{"tracks":[[{"time":0,"duration":404.12199999999996,"noteNumber":56,"velocity":33,"programNumber":0},{"time":404.12199999999996,"duration":404.12199999999996,"noteNumber":61,"velocity":26,"programNumber":0},{"time":808.2439999999999,"duration":394.7886666666666,"noteNumber":64,"velocity":26,"programNumber":0},{"time":1203.0326666666665,"duration":390.7445,"noteNumber":56,"velocity":33,"programNumber":0},{"time":1593.7771666666665,"duration":383.6381666666666,"noteNumber":61,"velocity":26,"programNumber":0},{"time":1977.4153333333331,"duration":385.6018333333334,"noteNumber":64,"velocity":26,"programNumber":0},{"time":2363.0171666666665,"duration":403.0633333333335,"noteNumber":56,"velocity":32,"programNumber":0},{"time":2766.0805,"duration":398.8829999999998,"noteNumber":61,"velocity":26,"programNumber":0},{"time":3164.9635,"duration":390.77766666666685,"noteNumber":64,"velocity":26,"programNumber":0},{"time":3555.7411666666667,"duration":445.33500000000004,"noteNumber":56,"velocity":35,"programNumber":0},{"time":4001.0761666666667,"duration":403.0633333333335,"noteNumber":61,"velocity":26,"programNumber":0},{"time":4404.1395,"duration":390.77766666666685,"noteNumber":64,"velocity":26,"programNumber":0},{"time":0,"duration":4794.917166666667,"noteNumber":49,"velocity":35,"programNumber":0},{"time":0,"duration":4794.917166666667,"noteNumber":37,"velocity":35,"programNumber":0},{"time":4794.917166666667,"duration":407.29224583333416,"noteNumber":56,"velocity":33,"programNumber":0},{"time":5202.209412500001,"duration":588.2353333333331,"noteNumber":61,"velocity":26,"programNumber":0},{"time":5790.444745833334,"duration":434.78266666666696,"noteNumber":64,"velocity":23,"programNumber":0},{"time":6225.227412500001,"duration":421.0526666666665,"noteNumber":56,"velocity":30,"programNumber":0},{"time":6646.280079166668,"duration":410.2671666666665,"noteNumber":61,"velocity":26,"programNumber":0},{"time":7056.547245833334,"duration":400,"noteNumber":64,"velocity":23,"programNumber":0},{"time":7456.547245833334,"duration":394.78866666666636,"noteNumber":56,"velocity":33,"programNumber":0},{"time":7851.335912500001,"duration":420.8753333333334,"noteNumber":61,"velocity":26,"programNumber":0},{"time":8272.211245833334,"duration":390.77766666666685,"noteNumber":64,"velocity":23,"programNumber":0},{"time":8662.9889125,"duration":440.237666666666,"noteNumber":56,"velocity":32,"programNumber":0},{"time":9103.226579166667,"duration":394.78866666666727,"noteNumber":61,"velocity":26,"programNumber":0},{"time":9498.015245833334,"duration":430.29266666666626,"noteNumber":64,"velocity":23,"programNumber":0},{"time":4794.917166666667,"duration":5133.390745833333,"noteNumber":47,"velocity":35,"programNumber":0},{"time":4794.917166666667,"duration":5133.390745833333,"noteNumber":35,"velocity":35,"programNumber":0},{"time":9928.3079125,"duration":457.7440604166659,"noteNumber":57,"velocity":45,"programNumber":0},{"time":10386.051972916666,"duration":422.1338333333333,"noteNumber":61,"velocity":38,"programNumber":0},{"time":10808.18580625,"duration":458.7990000000009,"noteNumber":64,"velocity":38,"programNumber":0},{"time":11266.98480625,"duration":398.8829999999998,"noteNumber":57,"velocity":35,"programNumber":0},{"time":11665.86780625,"duration":563.2216666666664,"noteNumber":61,"velocity":32,"programNumber":0},{"time":12229.089472916667,"duration":411.9463333333333,"noteNumber":64,"velocity":32,"programNumber":0},{"time":9928.3079125,"duration":2712.7278937499996,"noteNumber":33,"velocity":41,"programNumber":0},{"time":9928.3079125,"duration":2712.7278937499996,"noteNumber":45,"velocity":41,"programNumber":0},{"time":12641.03580625,"duration":444.6296854166667,"noteNumber":57,"velocity":41,"programNumber":0},{"time":13085.665491666667,"duration":455.8923333333332,"noteNumber":62,"velocity":33,"programNumber":0},{"time":13541.557825,"duration":464.40866666666625,"noteNumber":66,"velocity":28,"programNumber":0},{"time":14005.966491666666,"duration":416.3196666666663,"noteNumber":57,"velocity":38,"programNumber":0},{"time":14422.286158333332,"duration":440.237666666666,"noteNumber":62,"velocity":33,"programNumber":0},{"time":14862.523824999998,"duration":435.255666666666,"noteNumber":66,"velocity":30,"programNumber":0},{"time":12641.03580625,"duration":2656.7436854166644,"noteNumber":42,"velocity":38,"programNumber":0},{"time":12641.03580625,"duration":2656.7436854166644,"noteNumber":30,"velocity":38,"programNumber":0},{"time":15297.779491666664,"duration":429.10533333333296,"noteNumber":56,"velocity":38,"programNumber":0},{"time":15726.884824999997,"duration":467.1806666666671,"noteNumber":60,"velocity":31,"programNumber":0},{"time":16194.065491666664,"duration":510.72533333333195,"noteNumber":66,"velocity":31,"programNumber":0},{"time":16704.790824999996,"duration":489.904810416665,"noteNumber":56,"velocity":35,"programNumber":0},{"time":17194.69563541666,"duration":472.9249999999993,"noteNumber":61,"velocity":30,"programNumber":0},{"time":17667.62063541666,"duration":461.46733333333395,"noteNumber":64,"velocity":30,"programNumber":0},{"time":15297.779491666664,"duration":2831.30847708333,"noteNumber":44,"velocity":41,"programNumber":0},{"time":15297.779491666664,"duration":2831.30847708333,"noteNumber":32,"velocity":41,"programNumber":0},{"time":18129.087968749995,"duration":419.6677395833358,"noteNumber":56,"velocity":35,"programNumber":0},{"time":18548.75570833333,"duration":407.3319999999985,"noteNumber":61,"velocity":27,"programNumber":0},{"time":18956.08770833333,"duration":398.88300000000163,"noteNumber":63,"velocity":25,"programNumber":0},{"time":19354.97070833333,"duration":443.5448333333334,"noteNumber":54,"velocity":35,"programNumber":0},{"time":19798.515541666664,"duration":420.8753333333334,"noteNumber":60,"velocity":30,"programNumber":0},{"time":20219.390874999997,"duration":411.9463333333333,"noteNumber":63,"velocity":30,"programNumber":0},{"time":18129.087968749995,"duration":2502.249239583336,"noteNumber":32,"velocity":35,"programNumber":0},{"time":18129.087968749995,"duration":2502.249239583336,"noteNumber":44,"velocity":35,"programNumber":0},{"time":20631.33720833333,"duration":403.6863395833352,"noteNumber":52,"velocity":32,"programNumber":0},{"time":21035.023547916666,"duration":421.0526666666665,"noteNumber":56,"velocity":26,"programNumber":0},{"time":21456.076214583332,"duration":430.1076666666668,"noteNumber":61,"velocity":26,"programNumber":0},{"time":21886.18388125,"duration":444.4443333333329,"noteNumber":56,"velocity":32,"programNumber":0},{"time":22330.628214583332,"duration":454.54533333333166,"noteNumber":61,"velocity":26,"programNumber":0},{"time":22785.173547916664,"duration":465.11633333333157,"noteNumber":64,"velocity":26,"programNumber":0},{"time":23250.289881249995,"duration":420.8753333333334,"noteNumber":56,"velocity":31,"programNumber":0},{"time":23671.16521458333,"duration":425.6223333333328,"noteNumber":61,"velocity":25,"programNumber":0},{"time":24096.78754791666,"duration":435.2556666666678,"noteNumber":64,"velocity":25,"programNumber":0},{"time":24532.04321458333,"duration":467.1806666666671,"noteNumber":56,"velocity":31,"programNumber":0},{"time":24999.223881249996,"duration":425.6223333333328,"noteNumber":61,"velocity":25,"programNumber":0},{"time":24532.04321458333,"duration":995.789583333335,"noteNumber":68,"velocity":56,"programNumber":0},{"time":25527.832797916664,"duration":302.2975000000006,"noteNumber":68,"velocity":50,"programNumber":0},{"time":25424.84621458333,"duration":405.28408333333573,"noteNumber":64,"velocity":22,"programNumber":0},{"time":20631.33720833333,"duration":5198.793089583334,"noteNumber":44,"velocity":35,"programNumber":0},{"time":20631.33720833333,"duration":5198.793089583334,"noteNumber":49,"velocity":35,"programNumber":0},{"time":20631.33720833333,"duration":5198.793089583334,"noteNumber":37,"velocity":35,"programNumber":0},{"time":25830.130297916665,"duration":452.3542083333341,"noteNumber":56,"velocity":31,"programNumber":0},{"time":26282.48450625,"duration":405.9201666666668,"noteNumber":63,"velocity":26,"programNumber":0},{"time":26688.404672916666,"duration":472.36195833333477,"noteNumber":66,"velocity":23,"programNumber":0},{"time":27160.76663125,"duration":455.8923333333332,"noteNumber":56,"velocity":31,"programNumber":0},{"time":27616.658964583334,"duration":440.2376666666678,"noteNumber":63,"velocity":26,"programNumber":0},{"time":28056.89663125,"duration":430.2926666666681,"noteNumber":66,"velocity":25,"programNumber":0},{"time":28487.18929791667,"duration":435.2556666666678,"noteNumber":56,"velocity":31,"programNumber":0},{"time":28922.444964583337,"duration":445.3349999999991,"noteNumber":63,"velocity":26,"programNumber":0},{"time":29367.779964583337,"duration":440.2376666666678,"noteNumber":66,"velocity":25,"programNumber":0},{"time":25830.130297916665,"duration":3977.8873333333395,"noteNumber":68,"velocity":50,"programNumber":0},{"time":29808.017631250004,"duration":539.3743333333332,"noteNumber":56,"velocity":31,"programNumber":0},{"time":30347.391964583338,"duration":472.9249999999993,"noteNumber":63,"velocity":25,"programNumber":0},{"time":29808.017631250004,"duration":1116.3792499999981,"noteNumber":68,"velocity":56,"programNumber":0},{"time":30924.396881250002,"duration":379.7467499999984,"noteNumber":68,"velocity":53,"programNumber":0},{"time":30820.316964583337,"duration":483.8266666666641,"noteNumber":66,"velocity":23,"programNumber":0},{"time":25830.130297916665,"duration":5474.013333333336,"noteNumber":48,"velocity":38,"programNumber":0},{"time":25830.130297916665,"duration":5474.013333333336,"noteNumber":36,"velocity":38,"programNumber":0},{"time":25830.130297916665,"duration":5474.013333333336,"noteNumber":44,"velocity":38,"programNumber":0},{"time":31304.14363125,"duration":426.01495833333684,"noteNumber":56,"velocity":31,"programNumber":0},{"time":31730.158589583338,"duration":563.2216666666682,"noteNumber":61,"velocity":26,"programNumber":0},{"time":32293.380256250006,"duration":414.6796666666669,"noteNumber":64,"velocity":25,"programNumber":0},{"time":32708.059922916673,"duration":402.90100000000166,"noteNumber":56,"velocity":31,"programNumber":0},{"time":33110.960922916674,"duration":430.10766666666314,"noteNumber":61,"velocity":26,"programNumber":0},{"time":33541.06858958334,"duration":531.9150000000009,"noteNumber":64,"velocity":23,"programNumber":0},{"time":31304.14363125,"duration":2768.8399583333376,"noteNumber":49,"velocity":35,"programNumber":0},{"time":31304.14363125,"duration":2768.8399583333376,"noteNumber":37,"velocity":35,"programNumber":0},{"time":31304.14363125,"duration":2768.8399583333376,"noteNumber":68,"velocity":53,"programNumber":0},{"time":34072.98358958334,"duration":447.81172083333513,"noteNumber":57,"velocity":31,"programNumber":0},{"time":34520.79531041667,"duration":510.7253333333356,"noteNumber":61,"velocity":25,"programNumber":0},{"time":35031.52064375001,"duration":524.5213333333304,"noteNumber":66,"velocity":25,"programNumber":0},{"time":35556.04197708334,"duration":484.8483333333352,"noteNumber":57,"velocity":27,"programNumber":0},{"time":36040.890310416675,"duration":445.3349999999991,"noteNumber":61,"velocity":25,"programNumber":0},{"time":36486.225310416674,"duration":435.2556666666642,"noteNumber":66,"velocity":25,"programNumber":0},{"time":34072.98358958334,"duration":2848.4973874999996,"noteNumber":30,"velocity":32,"programNumber":0},{"time":34072.98358958334,"duration":2848.4973874999996,"noteNumber":42,"velocity":32,"programNumber":0},{"time":34072.98358958334,"duration":2848.4973874999996,"noteNumber":69,"velocity":56,"programNumber":0},{"time":36921.48097708334,"duration":443.2884437499961,"noteNumber":56,"velocity":33,"programNumber":0},{"time":37364.769420833334,"duration":437.7634583333347,"noteNumber":59,"velocity":23,"programNumber":0},{"time":37802.53287916667,"duration":440.7920000000013,"noteNumber":64,"velocity":23,"programNumber":0},{"time":38243.32487916667,"duration":411.9463333333333,"noteNumber":56,"velocity":33,"programNumber":0},{"time":38655.2712125,"duration":403.0633333333317,"noteNumber":59,"velocity":26,"programNumber":0},{"time":39058.334545833335,"duration":421.0526666666701,"noteNumber":64,"velocity":26,"programNumber":0},{"time":36921.48097708334,"duration":2557.906235416667,"noteNumber":47,"velocity":41,"programNumber":0},{"time":36921.48097708334,"duration":2557.906235416667,"noteNumber":35,"velocity":41,"programNumber":0},{"time":36921.48097708334,"duration":2557.906235416667,"noteNumber":68,"velocity":56,"programNumber":0},{"time":39479.387212500005,"duration":520.9767166666643,"noteNumber":57,"velocity":33,"programNumber":0},{"time":40000.36392916667,"duration":382.9950000000026,"noteNumber":59,"velocity":27,"programNumber":0},{"time":40383.35892916667,"duration":374.39166666667006,"noteNumber":63,"velocity":25,"programNumber":0},{"time":39479.387212500005,"duration":1278.363383333337,"noteNumber":66,"velocity":53,"programNumber":0},{"time":40757.75059583334,"duration":459.7699999999968,"noteNumber":57,"velocity":30,"programNumber":0},{"time":41217.52059583334,"duration":435.2556666666642,"noteNumber":59,"velocity":26,"programNumber":0},{"time":41652.7762625,"duration":398.88300000000163,"noteNumber":63,"velocity":27,"programNumber":0},{"time":39479.387212500005,"duration":2572.2720499999996,"noteNumber":47,"velocity":41,"programNumber":0},{"time":39479.387212500005,"duration":2572.2720499999996,"noteNumber":35,"velocity":41,"programNumber":0},{"time":40757.75059583334,"duration":1293.9086666666626,"noteNumber":71,"velocity":50,"programNumber":0},{"time":42051.659262500005,"duration":398.3872020833296,"noteNumber":56,"velocity":33,"programNumber":0},{"time":42051.659262500005,"duration":820.7797020833314,"noteNumber":64,"velocity":47,"programNumber":0},{"time":42450.046464583334,"duration":449.59597916666826,"noteNumber":59,"velocity":26,"programNumber":0},{"time":42899.64244375,"duration":403.0633333333317,"noteNumber":64,"velocity":26,"programNumber":0},{"time":43302.705777083334,"duration":386.1333083333302,"noteNumber":56,"velocity":27,"programNumber":0},{"time":43688.839085416665,"duration":371.81633333333593,"noteNumber":59,"velocity":26,"programNumber":0},{"time":44060.65541875,"duration":353.9823333333334,"noteNumber":64,"velocity":26,"programNumber":0},{"time":44414.637752083334,"duration":382.9950000000026,"noteNumber":56,"velocity":27,"programNumber":0},{"time":44797.63275208334,"duration":617.8559999999998,"noteNumber":59,"velocity":26,"programNumber":0},{"time":45415.488752083336,"duration":411.9463333333333,"noteNumber":64,"velocity":23,"programNumber":0},{"time":45827.43508541667,"duration":361.27166666666744,"noteNumber":56,"velocity":27,"programNumber":0},{"time":46188.70675208334,"duration":360.36033333333035,"noteNumber":59,"velocity":26,"programNumber":0},{"time":46549.06708541667,"duration":360.36033333333035,"noteNumber":64,"velocity":23,"programNumber":0},{"time":42051.659262500005,"duration":4857.768156249993,"noteNumber":52,"velocity":35,"programNumber":0},{"time":42051.659262500005,"duration":4857.768156249993,"noteNumber":40,"velocity":35,"programNumber":0},{"time":46909.42741875,"duration":366.8342291666704,"noteNumber":55,"velocity":32,"programNumber":0},{"time":47276.26164791667,"duration":380.95233333333454,"noteNumber":59,"velocity":25,"programNumber":0},{"time":47657.21398125,"duration":382.9950000000026,"noteNumber":64,"velocity":23,"programNumber":0},{"time":48040.208981250005,"duration":377.35833333332994,"noteNumber":55,"velocity":27,"programNumber":0},{"time":48417.567314583335,"duration":380.95233333333454,"noteNumber":59,"velocity":26,"programNumber":0},{"time":48798.51964791667,"duration":440.2376666666678,"noteNumber":64,"velocity":23,"programNumber":0},{"time":49238.75731458334,"duration":411.9463333333333,"noteNumber":55,"velocity":27,"programNumber":0},{"time":49650.70364791667,"duration":366.97233333333133,"noteNumber":59,"velocity":26,"programNumber":0},{"time":50017.67598125,"duration":398.88300000000163,"noteNumber":64,"velocity":22,"programNumber":0},{"time":50416.558981250004,"duration":491.03866666666727,"noteNumber":55,"velocity":26,"programNumber":0},{"time":50907.59764791667,"duration":420.87533333332976,"noteNumber":59,"velocity":25,"programNumber":0},{"time":50416.558981250004,"duration":1008.6258333333317,"noteNumber":67,"velocity":46,"programNumber":0},{"time":51425.184814583336,"duration":296.09150000000227,"noteNumber":67,"velocity":45,"programNumber":0},{"time":51328.47298125,"duration":392.8033333333369,"noteNumber":64,"velocity":21,"programNumber":0},{"time":46909.42741875,"duration":4811.84889583334,"noteNumber":40,"velocity":38,"programNumber":0},{"time":46909.42741875,"duration":4811.84889583334,"noteNumber":52,"velocity":38,"programNumber":0},{"time":51721.27631458334,"duration":440.36907500000234,"noteNumber":55,"velocity":32,"programNumber":0},{"time":52161.64538958334,"duration":423.30616666666174,"noteNumber":59,"velocity":26,"programNumber":0},{"time":52584.95155625,"duration":438.0448333333334,"noteNumber":65,"velocity":26,"programNumber":0},{"time":53022.996389583335,"duration":416.66666666666424,"noteNumber":55,"velocity":32,"programNumber":0},{"time":53439.66305625,"duration":440.2376666666678,"noteNumber":59,"velocity":27,"programNumber":0},{"time":53879.90072291667,"duration":439.5603333333347,"noteNumber":65,"velocity":25,"programNumber":0},{"time":54319.46105625,"duration":461.46733333333395,"noteNumber":55,"velocity":31,"programNumber":0},{"time":54780.928389583336,"duration":450.5520000000033,"noteNumber":59,"velocity":27,"programNumber":0},{"time":55231.48038958334,"duration":435.2556666666642,"noteNumber":65,"velocity":25,"programNumber":0},{"time":51721.27631458334,"duration":3945.4597416666656,"noteNumber":67,"velocity":45,"programNumber":0},{"time":55666.73605625,"duration":416.66666666666424,"noteNumber":55,"velocity":30,"programNumber":0},{"time":56083.40272291667,"duration":404.04033333333064,"noteNumber":59,"velocity":25,"programNumber":0},{"time":55666.73605625,"duration":963.6458333333285,"noteNumber":67,"velocity":50,"programNumber":0},{"time":56630.38188958333,"duration":333.3332500000033,"noteNumber":67,"velocity":50,"programNumber":0},{"time":56487.44305625,"duration":476.2720833333369,"noteNumber":65,"velocity":22,"programNumber":0},{"time":51721.27631458334,"duration":5242.438824999997,"noteNumber":38,"velocity":35,"programNumber":0},{"time":51721.27631458334,"duration":5242.438824999997,"noteNumber":50,"velocity":35,"programNumber":0},{"time":56963.715139583335,"duration":434.1611000000048,"noteNumber":55,"velocity":33,"programNumber":0},{"time":57397.87623958334,"duration":403.0633333333317,"noteNumber":60,"velocity":27,"programNumber":0},{"time":57800.93957291667,"duration":464.2526666666672,"noteNumber":64,"velocity":27,"programNumber":0},{"time":56963.715139583335,"duration":1301.4771000000037,"noteNumber":48,"velocity":40,"programNumber":0},{"time":56963.715139583335,"duration":1301.4771000000037,"noteNumber":36,"velocity":40,"programNumber":0},{"time":58265.19223958334,"duration":457.7210104166661,"noteNumber":55,"velocity":40,"programNumber":0},{"time":58722.913250000005,"duration":468.05533333333005,"noteNumber":59,"velocity":33,"programNumber":0},{"time":59190.968583333335,"duration":445.3349999999991,"noteNumber":64,"velocity":33,"programNumber":0},{"time":58265.19223958334,"duration":1371.1113437499953,"noteNumber":35,"velocity":46,"programNumber":0},{"time":58265.19223958334,"duration":1371.1113437499953,"noteNumber":47,"velocity":46,"programNumber":0},{"time":59636.303583333334,"duration":422.2154020833332,"noteNumber":55,"velocity":38,"programNumber":0},{"time":60058.51898541667,"duration":387.3386249999967,"noteNumber":61,"velocity":42,"programNumber":0},{"time":60445.857610416664,"duration":379.21866666666756,"noteNumber":64,"velocity":47,"programNumber":0},{"time":56963.715139583335,"duration":3861.3611374999964,"noteNumber":67,"velocity":57,"programNumber":0},{"time":60825.07627708333,"duration":431.8399375000008,"noteNumber":54,"velocity":41,"programNumber":0},{"time":61256.91621458333,"duration":547.9453333333367,"noteNumber":61,"velocity":35,"programNumber":0},{"time":61804.86154791667,"duration":411.9463333333333,"noteNumber":64,"velocity":27,"programNumber":0},{"time":59636.303583333334,"duration":2580.5042979166683,"noteNumber":46,"velocity":53,"programNumber":0},{"time":59636.303583333334,"duration":2580.5042979166683,"noteNumber":34,"velocity":53,"programNumber":0},{"time":60825.07627708333,"duration":1391.7316041666709,"noteNumber":66,"velocity":56,"programNumber":0},{"time":62216.80788125,"duration":479.2067791666632,"noteNumber":54,"velocity":38,"programNumber":0},{"time":62696.014660416666,"duration":528.6427083333328,"noteNumber":59,"velocity":32,"programNumber":0},{"time":63224.65736875,"duration":467.1806666666671,"noteNumber":62,"velocity":27,"programNumber":0},{"time":63691.838035416666,"duration":390.77766666666867,"noteNumber":54,"velocity":33,"programNumber":0},{"time":64082.615702083334,"duration":416.8891250000015,"noteNumber":59,"velocity":27,"programNumber":0},{"time":64499.504827083336,"duration":531.9150000000009,"noteNumber":62,"velocity":27,"programNumber":0},{"time":62216.80788125,"duration":2814.611945833334,"noteNumber":47,"velocity":42,"programNumber":0},{"time":62216.80788125,"duration":2814.611945833334,"noteNumber":35,"velocity":42,"programNumber":0},{"time":62216.80788125,"duration":2814.611945833334,"noteNumber":66,"velocity":65,"programNumber":0},{"time":65031.41982708334,"duration":441.4204291666683,"noteNumber":55,"velocity":35,"programNumber":0},{"time":65472.840256250005,"duration":440.2376666666605,"noteNumber":59,"velocity":27,"programNumber":0},{"time":65913.07792291667,"duration":411.9463333333406,"noteNumber":61,"velocity":27,"programNumber":0},{"time":65031.41982708334,"duration":1293.6044291666694,"noteNumber":40,"velocity":41,"programNumber":0},{"time":65031.41982708334,"duration":1293.6044291666694,"noteNumber":67,"velocity":56,"programNumber":0},{"time":66325.02425625,"duration":420.87533333332976,"noteNumber":52,"velocity":35,"programNumber":0},{"time":66745.89958958334,"duration":523.6532083333441,"noteNumber":59,"velocity":27,"programNumber":0},{"time":67269.55279791668,"duration":461.46733333333395,"noteNumber":61,"velocity":23,"programNumber":0},{"time":66325.02425625,"duration":1405.9958750000078,"noteNumber":43,"velocity":40,"programNumber":0},{"time":66325.02425625,"duration":1405.9958750000078,"noteNumber":64,"velocity":47,"programNumber":0},{"time":67731.02013125001,"duration":392.8062812499993,"noteNumber":54,"velocity":41,"programNumber":0},{"time":68123.82641250001,"duration":382.99499999999534,"noteNumber":59,"velocity":35,"programNumber":0},{"time":68506.82141250001,"duration":411.9463333333406,"noteNumber":62,"velocity":32,"programNumber":0},{"time":68918.76774583335,"duration":394.78866666666,"noteNumber":54,"velocity":38,"programNumber":0},{"time":69313.55641250001,"duration":425.5320000000065,"noteNumber":59,"velocity":31,"programNumber":0},{"time":69739.08841250002,"duration":461.46733333333395,"noteNumber":62,"velocity":28,"programNumber":0},{"time":67731.02013125001,"duration":2469.5356145833357,"noteNumber":42,"velocity":46,"programNumber":0},{"time":67731.02013125001,"duration":2469.5356145833357,"noteNumber":66,"velocity":53,"programNumber":0},{"time":70200.55574583335,"duration":496.1811666666763,"noteNumber":54,"velocity":31,"programNumber":0},{"time":70696.73691250003,"duration":445.3350000000064,"noteNumber":58,"velocity":26,"programNumber":0},{"time":71142.07191250003,"duration":510.7253333333356,"noteNumber":61,"velocity":23,"programNumber":0},{"time":71652.79724583337,"duration":571.7553333333344,"noteNumber":54,"velocity":31,"programNumber":0},{"time":72224.5525791667,"duration":435.2556666666642,"noteNumber":58,"velocity":26,"programNumber":0},{"time":72659.80824583337,"duration":440.2376666666678,"noteNumber":61,"velocity":23,"programNumber":0},{"time":70200.55574583335,"duration":2899.4901666666847,"noteNumber":42,"velocity":35,"programNumber":0},{"time":70200.55574583335,"duration":2899.4901666666847,"noteNumber":30,"velocity":35,"programNumber":0},{"time":70200.55574583335,"duration":2899.4901666666847,"noteNumber":66,"velocity":47,"programNumber":0},{"time":73100.04591250003,"duration":446.37503333335917,"noteNumber":59,"velocity":32,"programNumber":0},{"time":73546.4209458334,"duration":392.9882083333505,"noteNumber":62,"velocity":27,"programNumber":0},{"time":73939.40915416674,"duration":438.84641666668176,"noteNumber":66,"velocity":25,"programNumber":0},{"time":74378.25557083343,"duration":382.99499999999534,"noteNumber":59,"velocity":27,"programNumber":0},{"time":74761.25057083342,"duration":386.8473333333386,"noteNumber":62,"velocity":26,"programNumber":0},{"time":75148.09790416676,"duration":517.5983333333279,"noteNumber":66,"velocity":26,"programNumber":0},{"time":75665.69623750009,"duration":385.3386375000118,"noteNumber":59,"velocity":41,"programNumber":0},{"time":76051.0348750001,"duration":491.03866666666,"noteNumber":63,"velocity":38,"programNumber":0},{"time":76542.07354166676,"duration":555.0929999999935,"noteNumber":66,"velocity":38,"programNumber":0},{"time":77097.16654166675,"duration":408.16333333333023,"noteNumber":59,"velocity":41,"programNumber":0},{"time":77505.32987500008,"duration":408.16333333333023,"noteNumber":63,"velocity":38,"programNumber":0},{"time":77913.49320833341,"duration":569.7117499999877,"noteNumber":66,"velocity":35,"programNumber":0},{"time":77097.16654166675,"duration":1386.0384166666481,"noteNumber":71,"velocity":56,"programNumber":0},{"time":78483.2049583334,"duration":419.6745020833332,"noteNumber":59,"velocity":41,"programNumber":0},{"time":78902.87946041673,"duration":413.7182916666643,"noteNumber":64,"velocity":41,"programNumber":0},{"time":79316.5977520834,"duration":657.6849583333387,"noteNumber":67,"velocity":45,"programNumber":0},{"time":73100.04591250003,"duration":6874.236797916703,"noteNumber":35,"velocity":35,"programNumber":0},{"time":73100.04591250003,"duration":6874.236797916703,"noteNumber":47,"velocity":35,"programNumber":0},{"time":79974.28271041674,"duration":638.1619999999966,"noteNumber":59,"velocity":47,"programNumber":0},{"time":80612.44471041673,"duration":638.1619999999966,"noteNumber":64,"velocity":53,"programNumber":0},{"time":81250.60671041673,"duration":638.1619999999966,"noteNumber":67,"velocity":56,"programNumber":0},{"time":79974.28271041674,"duration":1914.4859999999899,"noteNumber":40,"velocity":53,"programNumber":0},{"time":79974.28271041674,"duration":1914.4859999999899,"noteNumber":52,"velocity":53,"programNumber":0},{"time":81888.76871041673,"duration":638.1619999999966,"noteNumber":59,"velocity":61,"programNumber":0},{"time":82526.93071041672,"duration":638.1620000000112,"noteNumber":64,"velocity":60,"programNumber":0},{"time":83165.09271041673,"duration":638.1620000000112,"noteNumber":67,"velocity":56,"programNumber":0},{"time":78483.2049583334,"duration":5320.049752083345,"noteNumber":72,"velocity":63,"programNumber":0},{"time":81888.76871041673,"duration":1914.486000000019,"noteNumber":43,"velocity":60,"programNumber":0},{"time":81888.76871041673,"duration":1914.486000000019,"noteNumber":55,"velocity":60,"programNumber":0},{"time":83803.25471041675,"duration":638.1620000000112,"noteNumber":59,"velocity":52,"programNumber":0},{"time":84441.41671041676,"duration":638.1620000000112,"noteNumber":64,"velocity":46,"programNumber":0},{"time":85079.57871041677,"duration":638.1619999999966,"noteNumber":67,"velocity":31,"programNumber":0},{"time":83803.25471041675,"duration":1914.486000000019,"noteNumber":70,"velocity":56,"programNumber":0},{"time":83803.25471041675,"duration":1914.486000000019,"noteNumber":40,"velocity":48,"programNumber":0},{"time":83803.25471041675,"duration":1914.486000000019,"noteNumber":52,"velocity":48,"programNumber":0},{"time":85717.74071041677,"duration":638.1619999999966,"noteNumber":59,"velocity":37,"programNumber":0},{"time":86355.90271041676,"duration":638.1619999999966,"noteNumber":63,"velocity":35,"programNumber":0},{"time":86994.06471041676,"duration":638.1619999999966,"noteNumber":66,"velocity":35,"programNumber":0},{"time":87632.22671041675,"duration":638.1619999999966,"noteNumber":59,"velocity":40,"programNumber":0},{"time":88270.38871041675,"duration":638.1619999999966,"noteNumber":63,"velocity":35,"programNumber":0},{"time":88908.55071041675,"duration":638.1619999999966,"noteNumber":66,"velocity":35,"programNumber":0},{"time":89546.71271041674,"duration":638.1619999999966,"noteNumber":59,"velocity":41,"programNumber":0},{"time":90184.87471041674,"duration":638.1619999999966,"noteNumber":63,"velocity":37,"programNumber":0},{"time":90823.03671041674,"duration":638.1619999999966,"noteNumber":66,"velocity":33,"programNumber":0},{"time":85717.74071041677,"duration":5743.45799999997,"noteNumber":71,"velocity":56,"programNumber":0},{"time":91461.19871041673,"duration":638.1619999999966,"noteNumber":59,"velocity":41,"programNumber":0},{"time":92099.36071041673,"duration":638.1619999999966,"noteNumber":63,"velocity":37,"programNumber":0},{"time":92737.52271041673,"duration":638.1619999999966,"noteNumber":66,"velocity":37,"programNumber":0},{"time":91461.19871041673,"duration":1914.4859999999899,"noteNumber":71,"velocity":56,"programNumber":0},{"time":93375.68471041672,"duration":638.1620000000112,"noteNumber":59,"velocity":41,"programNumber":0},{"time":94013.84671041674,"duration":638.1620000000112,"noteNumber":64,"velocity":45,"programNumber":0},{"time":94652.00871041675,"duration":638.1620000000112,"noteNumber":67,"velocity":52,"programNumber":0},{"time":85717.74071041677,"duration":9572.429999999993,"noteNumber":35,"velocity":42,"programNumber":0},{"time":85717.74071041677,"duration":9572.429999999993,"noteNumber":47,"velocity":42,"programNumber":0},{"time":95290.17071041676,"duration":638.1619999999966,"noteNumber":59,"velocity":55,"programNumber":0},{"time":95928.33271041675,"duration":638.1619999999966,"noteNumber":64,"velocity":56,"programNumber":0},{"time":96566.49471041675,"duration":638.1619999999966,"noteNumber":67,"velocity":57,"programNumber":0},{"time":95290.17071041676,"duration":1914.4859999999899,"noteNumber":40,"velocity":50,"programNumber":0},{"time":95290.17071041676,"duration":1914.4859999999899,"noteNumber":52,"velocity":50,"programNumber":0},{"time":97204.65671041675,"duration":638.1619999999966,"noteNumber":59,"velocity":60,"programNumber":0},{"time":97842.81871041674,"duration":638.1619999999966,"noteNumber":64,"velocity":60,"programNumber":0},{"time":98480.98071041674,"duration":638.1619999999966,"noteNumber":67,"velocity":56,"programNumber":0},{"time":93375.68471041672,"duration":5743.458000000013,"noteNumber":72,"velocity":63,"programNumber":0},{"time":97204.65671041675,"duration":1914.4859999999899,"noteNumber":43,"velocity":55,"programNumber":0},{"time":97204.65671041675,"duration":1914.4859999999899,"noteNumber":55,"velocity":55,"programNumber":0},{"time":99119.14271041674,"duration":638.1620000000112,"noteNumber":59,"velocity":52,"programNumber":0},{"time":99757.30471041675,"duration":638.1619999999966,"noteNumber":64,"velocity":41,"programNumber":0},{"time":100395.46671041675,"duration":638.1619999999966,"noteNumber":67,"velocity":35,"programNumber":0},{"time":99119.14271041674,"duration":1914.4860000000044,"noteNumber":70,"velocity":56,"programNumber":0},{"time":99119.14271041674,"duration":1914.4860000000044,"noteNumber":52,"velocity":41,"programNumber":0},{"time":99119.14271041674,"duration":1914.4860000000044,"noteNumber":40,"velocity":41,"programNumber":0},{"time":101033.62871041674,"duration":638.1620000000112,"noteNumber":59,"velocity":41,"programNumber":0},{"time":101671.79071041675,"duration":638.1619999999966,"noteNumber":63,"velocity":35,"programNumber":0},{"time":102309.95271041675,"duration":638.1619999999966,"noteNumber":66,"velocity":33,"programNumber":0},{"time":102948.11471041675,"duration":638.1619999999966,"noteNumber":59,"velocity":35,"programNumber":0},{"time":103586.27671041674,"duration":638.1619999999966,"noteNumber":63,"velocity":30,"programNumber":0},{"time":104224.43871041674,"duration":638.1619999999966,"noteNumber":66,"velocity":30,"programNumber":0},{"time":101033.62871041674,"duration":3828.9719999999943,"noteNumber":47,"velocity":37,"programNumber":0},{"time":101033.62871041674,"duration":3828.9719999999943,"noteNumber":35,"velocity":37,"programNumber":0},{"time":101033.62871041674,"duration":3828.9719999999943,"noteNumber":71,"velocity":56,"programNumber":0},{"time":104862.60071041674,"duration":638.1620000000112,"noteNumber":59,"velocity":35,"programNumber":0},{"time":105500.76271041675,"duration":638.1619999999966,"noteNumber":62,"velocity":27,"programNumber":0},{"time":106138.92471041674,"duration":638.1619999999966,"noteNumber":65,"velocity":27,"programNumber":0},{"time":106777.08671041674,"duration":638.1619999999966,"noteNumber":59,"velocity":30,"programNumber":0},{"time":107415.24871041674,"duration":638.1619999999966,"noteNumber":62,"velocity":25,"programNumber":0},{"time":108053.41071041673,"duration":638.1619999999966,"noteNumber":65,"velocity":25,"programNumber":0},{"time":104862.60071041674,"duration":3828.9719999999943,"noteNumber":44,"velocity":35,"programNumber":0},{"time":104862.60071041674,"duration":3828.9719999999943,"noteNumber":32,"velocity":35,"programNumber":0},{"time":104862.60071041674,"duration":3828.9719999999943,"noteNumber":71,"velocity":47,"programNumber":0},{"time":108691.57271041673,"duration":638.1620000000112,"noteNumber":59,"velocity":30,"programNumber":0},{"time":109329.73471041674,"duration":638.1619999999966,"noteNumber":61,"velocity":27,"programNumber":0},{"time":109967.89671041674,"duration":638.1619999999966,"noteNumber":68,"velocity":25,"programNumber":0},{"time":110606.05871041674,"duration":638.1619999999966,"noteNumber":59,"velocity":30,"programNumber":0},{"time":111244.22071041673,"duration":638.1619999999966,"noteNumber":61,"velocity":26,"programNumber":0},{"time":111882.38271041673,"duration":638.1619999999966,"noteNumber":68,"velocity":26,"programNumber":0},{"time":108691.57271041673,"duration":3828.9719999999943,"noteNumber":29,"velocity":35,"programNumber":0},{"time":108691.57271041673,"duration":3828.9719999999943,"noteNumber":41,"velocity":35,"programNumber":0},{"time":108691.57271041673,"duration":3828.9719999999943,"noteNumber":71,"velocity":47,"programNumber":0},{"time":112520.54471041673,"duration":638.1620000000112,"noteNumber":57,"velocity":30,"programNumber":0},{"time":113158.70671041674,"duration":638.1619999999966,"noteNumber":61,"velocity":26,"programNumber":0},{"time":113796.86871041673,"duration":638.1619999999966,"noteNumber":66,"velocity":26,"programNumber":0},{"time":114435.03071041673,"duration":638.1619999999966,"noteNumber":57,"velocity":35,"programNumber":0},{"time":115073.19271041673,"duration":638.1619999999966,"noteNumber":61,"velocity":31,"programNumber":0},{"time":115711.35471041672,"duration":638.1619999999966,"noteNumber":66,"velocity":31,"programNumber":0},{"time":112520.54471041673,"duration":3828.9719999999943,"noteNumber":42,"velocity":41,"programNumber":0},{"time":112520.54471041673,"duration":3828.9719999999943,"noteNumber":30,"velocity":41,"programNumber":0},{"time":112520.54471041673,"duration":3828.9719999999943,"noteNumber":69,"velocity":52,"programNumber":0},{"time":116349.51671041672,"duration":638.1620000000112,"noteNumber":55,"velocity":41,"programNumber":0},{"time":116987.67871041673,"duration":638.1619999999966,"noteNumber":59,"velocity":38,"programNumber":0},{"time":117625.84071041673,"duration":638.1619999999966,"noteNumber":62,"velocity":38,"programNumber":0},{"time":118264.00271041672,"duration":638.1619999999966,"noteNumber":55,"velocity":41,"programNumber":0},{"time":118902.16471041672,"duration":638.1619999999966,"noteNumber":59,"velocity":38,"programNumber":0},{"time":119540.32671041672,"duration":638.1619999999966,"noteNumber":62,"velocity":38,"programNumber":0},{"time":116349.51671041672,"duration":3828.9719999999943,"noteNumber":35,"velocity":41,"programNumber":0},{"time":116349.51671041672,"duration":3828.9719999999943,"noteNumber":47,"velocity":41,"programNumber":0},{"time":116349.51671041672,"duration":3828.9719999999943,"noteNumber":67,"velocity":56,"programNumber":0},{"time":120178.48871041671,"duration":638.1620000000112,"noteNumber":54,"velocity":41,"programNumber":0},{"time":120816.65071041672,"duration":638.1620000000112,"noteNumber":57,"velocity":38,"programNumber":0},{"time":121454.81271041674,"duration":638.1620000000112,"noteNumber":63,"velocity":38,"programNumber":0},{"time":122092.97471041675,"duration":638.1619999999966,"noteNumber":54,"velocity":35,"programNumber":0},{"time":122731.13671041674,"duration":638.1619999999966,"noteNumber":57,"velocity":31,"programNumber":0},{"time":123369.29871041674,"duration":638.1619999999966,"noteNumber":63,"velocity":26,"programNumber":0},{"time":120178.48871041671,"duration":3828.9720000000234,"noteNumber":48,"velocity":45,"programNumber":0},{"time":120178.48871041671,"duration":3828.9720000000234,"noteNumber":36,"velocity":45,"programNumber":0},{"time":120178.48871041671,"duration":3828.9720000000234,"noteNumber":66,"velocity":52,"programNumber":0},{"time":124007.46071041674,"duration":638.1620000000112,"noteNumber":49,"velocity":30,"programNumber":0},{"time":124645.62271041675,"duration":638.1619999999966,"noteNumber":54,"velocity":27,"programNumber":0},{"time":125283.78471041674,"duration":638.1619999999966,"noteNumber":57,"velocity":27,"programNumber":0},{"time":125921.94671041674,"duration":638.1619999999966,"noteNumber":49,"velocity":30,"programNumber":0},{"time":126560.10871041674,"duration":638.1619999999966,"noteNumber":54,"velocity":27,"programNumber":0},{"time":127198.27071041673,"duration":638.1619999999966,"noteNumber":57,"velocity":27,"programNumber":0},{"time":124007.46071041674,"duration":3828.9719999999943,"noteNumber":37,"velocity":35,"programNumber":0},{"time":124007.46071041674,"duration":3828.9719999999943,"noteNumber":61,"velocity":47,"programNumber":0},{"time":127836.43271041673,"duration":638.1620000000112,"noteNumber":49,"velocity":30,"programNumber":0},{"time":128474.59471041674,"duration":638.1619999999966,"noteNumber":54,"velocity":26,"programNumber":0},{"time":129112.75671041674,"duration":638.1619999999966,"noteNumber":56,"velocity":26,"programNumber":0},{"time":127836.43271041673,"duration":1914.4860000000044,"noteNumber":61,"velocity":47,"programNumber":0},{"time":129750.91871041674,"duration":638.1620000000112,"noteNumber":49,"velocity":30,"programNumber":0},{"time":130389.08071041675,"duration":638.1619999999966,"noteNumber":53,"velocity":26,"programNumber":0},{"time":131027.24271041674,"duration":638.1619999999966,"noteNumber":56,"velocity":22,"programNumber":0},{"time":129750.91871041674,"duration":1914.4860000000044,"noteNumber":61,"velocity":41,"programNumber":0},{"time":127836.43271041673,"duration":3828.972000000009,"noteNumber":37,"velocity":35,"programNumber":0},{"time":131665.40471041674,"duration":638.1619999999821,"noteNumber":54,"velocity":32,"programNumber":0},{"time":132303.56671041672,"duration":638.1620000000112,"noteNumber":57,"velocity":26,"programNumber":0},{"time":132941.72871041673,"duration":638.1620000000112,"noteNumber":61,"velocity":26,"programNumber":0},{"time":133579.89071041674,"duration":638.1620000000112,"noteNumber":57,"velocity":30,"programNumber":0},{"time":134218.05271041676,"duration":638.1620000000112,"noteNumber":61,"velocity":26,"programNumber":0},{"time":134856.21471041677,"duration":638.1620000000112,"noteNumber":66,"velocity":26,"programNumber":0},{"time":135494.37671041678,"duration":638.1620000000112,"noteNumber":61,"velocity":30,"programNumber":0},{"time":136132.5387104168,"duration":638.1620000000112,"noteNumber":66,"velocity":26,"programNumber":0},{"time":136770.7007104168,"duration":638.1620000000112,"noteNumber":69,"velocity":26,"programNumber":0},{"time":137408.8627104168,"duration":638.1620000000112,"noteNumber":61,"velocity":41,"programNumber":0},{"time":138047.02471041682,"duration":638.1620000000112,"noteNumber":66,"velocity":33,"programNumber":0},{"time":137408.8627104168,"duration":1435.8645000000251,"noteNumber":73,"velocity":56,"programNumber":0},{"time":138844.72721041684,"duration":478.6215000000084,"noteNumber":73,"velocity":56,"programNumber":0},{"time":138685.18671041683,"duration":638.1620000000112,"noteNumber":69,"velocity":26,"programNumber":0},{"time":131665.40471041674,"duration":7657.944000000105,"noteNumber":30,"velocity":35,"programNumber":0},{"time":131665.40471041674,"duration":7657.944000000105,"noteNumber":42,"velocity":35,"programNumber":0},{"time":131665.40471041674,"duration":7657.944000000105,"noteNumber":37,"velocity":35,"programNumber":0},{"time":139323.34871041685,"duration":638.1619999999821,"noteNumber":61,"velocity":37,"programNumber":0},{"time":139961.51071041683,"duration":638.1620000000112,"noteNumber":68,"velocity":32,"programNumber":0},{"time":140599.67271041684,"duration":638.1620000000112,"noteNumber":71,"velocity":32,"programNumber":0},{"time":141237.83471041685,"duration":638.1620000000112,"noteNumber":61,"velocity":41,"programNumber":0},{"time":141875.99671041686,"duration":638.1620000000112,"noteNumber":68,"velocity":35,"programNumber":0},{"time":142514.15871041687,"duration":638.1620000000112,"noteNumber":71,"velocity":35,"programNumber":0},{"time":143152.32071041688,"duration":638.1620000000112,"noteNumber":61,"velocity":41,"programNumber":0},{"time":143790.4827104169,"duration":638.1620000000112,"noteNumber":68,"velocity":35,"programNumber":0},{"time":144428.6447104169,"duration":638.1620000000112,"noteNumber":71,"velocity":35,"programNumber":0},{"time":139323.34871041685,"duration":5743.4580000000715,"noteNumber":73,"velocity":61,"programNumber":0},{"time":145066.80671041692,"duration":638.1620000000112,"noteNumber":61,"velocity":41,"programNumber":0},{"time":145704.96871041693,"duration":638.1620000000112,"noteNumber":68,"velocity":35,"programNumber":0},{"time":145066.80671041692,"duration":1435.8645000000251,"noteNumber":73,"velocity":56,"programNumber":0},{"time":146502.67121041694,"duration":478.6215000000084,"noteNumber":73,"velocity":56,"programNumber":0},{"time":146343.13071041694,"duration":638.1620000000112,"noteNumber":71,"velocity":35,"programNumber":0},{"time":139323.34871041685,"duration":7657.944000000105,"noteNumber":41,"velocity":33,"programNumber":0},{"time":139323.34871041685,"duration":7657.944000000105,"noteNumber":49,"velocity":33,"programNumber":0},{"time":139323.34871041685,"duration":7657.944000000105,"noteNumber":53,"velocity":33,"programNumber":0},{"time":146981.29271041695,"duration":638.1619999999821,"noteNumber":61,"velocity":41,"programNumber":0},{"time":147619.45471041693,"duration":638.1620000000112,"noteNumber":66,"velocity":38,"programNumber":0},{"time":148257.61671041694,"duration":638.1620000000112,"noteNumber":69,"velocity":38,"programNumber":0},{"time":148895.77871041695,"duration":638.1620000000112,"noteNumber":61,"velocity":41,"programNumber":0},{"time":149533.94071041697,"duration":638.1620000000112,"noteNumber":66,"velocity":42,"programNumber":0},{"time":150172.10271041698,"duration":638.1620000000112,"noteNumber":69,"velocity":45,"programNumber":0},{"time":146981.29271041695,"duration":3828.972000000038,"noteNumber":42,"velocity":40,"programNumber":0},{"time":146981.29271041695,"duration":3828.972000000038,"noteNumber":54,"velocity":40,"programNumber":0},{"time":146981.29271041695,"duration":3828.972000000038,"noteNumber":73,"velocity":65,"programNumber":0},{"time":150810.264710417,"duration":638.1620000000112,"noteNumber":60,"velocity":46,"programNumber":0},{"time":151448.426710417,"duration":638.1620000000112,"noteNumber":66,"velocity":42,"programNumber":0},{"time":152086.588710417,"duration":638.1620000000112,"noteNumber":69,"velocity":41,"programNumber":0},{"time":150810.264710417,"duration":1914.4860000000335,"noteNumber":72,"velocity":61,"programNumber":0},{"time":150810.264710417,"duration":1914.4860000000335,"noteNumber":51,"velocity":46,"programNumber":0},{"time":150810.264710417,"duration":1914.4860000000335,"noteNumber":39,"velocity":46,"programNumber":0},{"time":152724.75071041702,"duration":638.1619999999821,"noteNumber":61,"velocity":47,"programNumber":0},{"time":153362.912710417,"duration":638.1620000000112,"noteNumber":66,"velocity":42,"programNumber":0},{"time":154001.07471041702,"duration":638.1620000000112,"noteNumber":69,"velocity":42,"programNumber":0},{"time":152724.75071041702,"duration":1914.4860000000044,"noteNumber":73,"velocity":63,"programNumber":0},{"time":152724.75071041702,"duration":1914.4860000000044,"noteNumber":37,"velocity":46,"programNumber":0},{"time":152724.75071041702,"duration":1914.4860000000044,"noteNumber":49,"velocity":46,"programNumber":0},{"time":154639.23671041703,"duration":638.1620000000112,"noteNumber":63,"velocity":52,"programNumber":0},{"time":155277.39871041704,"duration":638.1620000000112,"noteNumber":66,"velocity":50,"programNumber":0},{"time":155915.56071041705,"duration":638.1620000000112,"noteNumber":68,"velocity":48,"programNumber":0},{"time":156553.72271041706,"duration":638.1620000000112,"noteNumber":63,"velocity":53,"programNumber":0},{"time":157191.88471041707,"duration":638.1620000000112,"noteNumber":66,"velocity":50,"programNumber":0},{"time":157830.04671041708,"duration":638.1620000000112,"noteNumber":68,"velocity":50,"programNumber":0},{"time":158468.2087104171,"duration":638.1620000000112,"noteNumber":63,"velocity":56,"programNumber":0},{"time":159106.3707104171,"duration":638.1620000000112,"noteNumber":66,"velocity":52,"programNumber":0},{"time":159744.53271041712,"duration":638.1620000000112,"noteNumber":68,"velocity":52,"programNumber":0},{"time":154639.23671041703,"duration":5743.458000000101,"noteNumber":44,"velocity":50,"programNumber":0},{"time":154639.23671041703,"duration":5743.458000000101,"noteNumber":75,"velocity":65,"programNumber":0},{"time":154639.23671041703,"duration":5743.458000000101,"noteNumber":36,"velocity":50,"programNumber":0},{"time":154639.23671041703,"duration":5743.458000000101,"noteNumber":48,"velocity":50,"programNumber":0},{"time":160382.69471041713,"duration":638.1620000000112,"noteNumber":63,"velocity":57,"programNumber":0},{"time":161020.85671041714,"duration":638.1620000000112,"noteNumber":66,"velocity":56,"programNumber":0},{"time":161659.01871041715,"duration":638.1620000000112,"noteNumber":68,"velocity":56,"programNumber":0},{"time":160382.69471041713,"duration":1914.4860000000335,"noteNumber":44,"velocity":48,"programNumber":0},{"time":160382.69471041713,"duration":1914.4860000000335,"noteNumber":75,"velocity":72,"programNumber":0},{"time":160382.69471041713,"duration":1914.4860000000335,"noteNumber":36,"velocity":48,"programNumber":0},{"time":160382.69471041713,"duration":1914.4860000000335,"noteNumber":48,"velocity":48,"programNumber":0},{"time":162297.18071041716,"duration":638.1619999999821,"noteNumber":64,"velocity":61,"programNumber":0},{"time":162935.34271041714,"duration":638.1620000000112,"noteNumber":68,"velocity":57,"programNumber":0},{"time":163573.50471041715,"duration":638.1620000000112,"noteNumber":73,"velocity":55,"programNumber":0},{"time":164211.66671041716,"duration":638.1620000000112,"noteNumber":64,"velocity":52,"programNumber":0},{"time":164849.82871041718,"duration":638.1620000000112,"noteNumber":68,"velocity":48,"programNumber":0},{"time":165487.9907104172,"duration":638.1620000000112,"noteNumber":73,"velocity":48,"programNumber":0},{"time":162297.18071041716,"duration":3828.972000000038,"noteNumber":49,"velocity":55,"programNumber":0},{"time":162297.18071041716,"duration":3828.972000000038,"noteNumber":76,"velocity":86,"programNumber":0},{"time":162297.18071041716,"duration":3828.972000000038,"noteNumber":37,"velocity":55,"programNumber":0},{"time":162297.18071041716,"duration":3828.972000000038,"noteNumber":44,"velocity":55,"programNumber":0},{"time":166126.1527104172,"duration":638.1619999999821,"noteNumber":63,"velocity":45,"programNumber":0},{"time":166764.31471041718,"duration":638.1620000000112,"noteNumber":66,"velocity":41,"programNumber":0},{"time":167402.4767104172,"duration":638.1620000000112,"noteNumber":69,"velocity":41,"programNumber":0},{"time":166126.1527104172,"duration":1914.4860000000044,"noteNumber":75,"velocity":65,"programNumber":0},{"time":166126.1527104172,"duration":1914.4860000000044,"noteNumber":42,"velocity":46,"programNumber":0},{"time":166126.1527104172,"duration":1914.4860000000044,"noteNumber":30,"velocity":46,"programNumber":0},{"time":168040.6387104172,"duration":638.1620000000112,"noteNumber":61,"velocity":40,"programNumber":0},{"time":168678.8007104172,"duration":638.1620000000112,"noteNumber":64,"velocity":38,"programNumber":0},{"time":169316.96271041723,"duration":638.1620000000112,"noteNumber":70,"velocity":33,"programNumber":0},{"time":168040.6387104172,"duration":1914.4860000000335,"noteNumber":73,"velocity":56,"programNumber":0},{"time":168040.6387104172,"duration":1914.4860000000335,"noteNumber":31,"velocity":45,"programNumber":0},{"time":168040.6387104172,"duration":1914.4860000000335,"noteNumber":43,"velocity":45,"programNumber":0},{"time":169955.12471041724,"duration":638.1620000000112,"noteNumber":72,"velocity":52,"programNumber":0},{"time":170593.28671041725,"duration":638.1620000000112,"noteNumber":60,"velocity":52,"programNumber":0},{"time":171231.44871041726,"duration":638.1620000000112,"noteNumber":63,"velocity":52,"programNumber":0},{"time":172507.77271041728,"duration":638.1620000000112,"noteNumber":60,"velocity":52,"programNumber":0},{"time":173145.9347104173,"duration":638.1620000000112,"noteNumber":63,"velocity":53,"programNumber":0},{"time":171869.61071041727,"duration":1914.4860000000335,"noteNumber":68,"velocity":65,"programNumber":0},{"time":174422.25871041729,"duration":638.1620000000112,"noteNumber":60,"velocity":52,"programNumber":0},{"time":175060.4207104173,"duration":638.1620000000112,"noteNumber":63,"velocity":52,"programNumber":0},{"time":173784.0967104173,"duration":1914.4860000000044,"noteNumber":69,"velocity":77,"programNumber":0},{"time":176336.7447104173,"duration":638.1620000000112,"noteNumber":60,"velocity":52,"programNumber":0},{"time":176974.9067104173,"duration":638.1620000000112,"noteNumber":63,"velocity":53,"programNumber":0},{"time":175698.5827104173,"duration":1914.4860000000044,"noteNumber":66,"velocity":65,"programNumber":0},{"time":169955.12471041724,"duration":7657.944000000076,"noteNumber":44,"velocity":41,"programNumber":0},{"time":169955.12471041724,"duration":7657.944000000076,"noteNumber":32,"velocity":41,"programNumber":0},{"time":178251.2307104173,"duration":638.1620000000112,"noteNumber":60,"velocity":52,"programNumber":0},{"time":178889.3927104173,"duration":638.1620000000112,"noteNumber":63,"velocity":52,"programNumber":0},{"time":180165.71671041733,"duration":638.1620000000112,"noteNumber":60,"velocity":53,"programNumber":0},{"time":180803.87871041734,"duration":638.1620000000112,"noteNumber":63,"velocity":53,"programNumber":0},{"time":179527.55471041732,"duration":1914.4860000000335,"noteNumber":56,"velocity":65,"programNumber":0},{"time":182080.20271041733,"duration":638.1620000000112,"noteNumber":60,"velocity":53,"programNumber":0},{"time":182718.36471041734,"duration":638.1620000000112,"noteNumber":63,"velocity":53,"programNumber":0},{"time":181442.04071041735,"duration":1914.4860000000044,"noteNumber":57,"velocity":76,"programNumber":0},{"time":183994.68871041737,"duration":638.1620000000112,"noteNumber":60,"velocity":52,"programNumber":0},{"time":184632.85071041738,"duration":638.1620000000112,"noteNumber":63,"velocity":46,"programNumber":0},{"time":183356.52671041735,"duration":1914.4860000000335,"noteNumber":54,"velocity":60,"programNumber":0},{"time":177613.0687104173,"duration":7657.944000000076,"noteNumber":32,"velocity":53,"programNumber":0},{"time":177613.0687104173,"duration":7657.944000000076,"noteNumber":44,"velocity":53,"programNumber":0},{"time":185271.0127104174,"duration":638.1620000000112,"noteNumber":52,"velocity":52,"programNumber":0},{"time":185909.1747104174,"duration":638.1620000000112,"noteNumber":64,"velocity":52,"programNumber":0},{"time":186547.3367104174,"duration":638.1620000000112,"noteNumber":68,"velocity":52,"programNumber":0},{"time":187823.6607104174,"duration":638.1620000000112,"noteNumber":64,"velocity":52,"programNumber":0},{"time":188461.82271041741,"duration":638.1620000000112,"noteNumber":68,"velocity":47,"programNumber":0},{"time":187185.49871041742,"duration":1914.4860000000044,"noteNumber":73,"velocity":65,"programNumber":0},{"time":189738.14671041744,"duration":638.1620000000112,"noteNumber":64,"velocity":65,"programNumber":0},{"time":190376.30871041745,"duration":638.1620000000112,"noteNumber":68,"velocity":65,"programNumber":0},{"time":189099.98471041743,"duration":1914.4860000000335,"noteNumber":76,"velocity":76,"programNumber":0},{"time":191652.63271041744,"duration":638.1620000000112,"noteNumber":64,"velocity":53,"programNumber":0},{"time":192290.79471041745,"duration":638.1620000000112,"noteNumber":68,"velocity":50,"programNumber":0},{"time":191014.47071041746,"duration":1914.4860000000044,"noteNumber":73,"velocity":65,"programNumber":0},{"time":185271.0127104174,"duration":7657.944000000076,"noteNumber":44,"velocity":46,"programNumber":0},{"time":185271.0127104174,"duration":7657.944000000076,"noteNumber":32,"velocity":46,"programNumber":0},{"time":193567.11871041745,"duration":638.1620000000112,"noteNumber":52,"velocity":52,"programNumber":0},{"time":194205.28071041746,"duration":638.1620000000112,"noteNumber":56,"velocity":52,"programNumber":0},{"time":195481.60471041745,"duration":638.1620000000112,"noteNumber":52,"velocity":52,"programNumber":0},{"time":196119.76671041746,"duration":638.1620000000112,"noteNumber":56,"velocity":52,"programNumber":0},{"time":194843.44271041747,"duration":1914.4860000000044,"noteNumber":61,"velocity":61,"programNumber":0},{"time":197396.09071041745,"duration":638.1620000000112,"noteNumber":52,"velocity":48,"programNumber":0},{"time":198034.25271041747,"duration":638.1620000000112,"noteNumber":56,"velocity":48,"programNumber":0},{"time":196757.92871041747,"duration":1914.4860000000044,"noteNumber":64,"velocity":75,"programNumber":0},{"time":199310.5767104175,"duration":638.1620000000112,"noteNumber":52,"velocity":53,"programNumber":0},{"time":199948.7387104175,"duration":638.1620000000112,"noteNumber":56,"velocity":50,"programNumber":0},{"time":198672.41471041748,"duration":1914.4860000000335,"noteNumber":61,"velocity":65,"programNumber":0},{"time":192928.95671041746,"duration":7657.944000000047,"noteNumber":44,"velocity":52,"programNumber":0},{"time":192928.95671041746,"duration":7657.944000000047,"noteNumber":32,"velocity":52,"programNumber":0},{"time":200586.9007104175,"duration":638.1620000000112,"noteNumber":51,"velocity":65,"programNumber":0},{"time":201225.06271041752,"duration":638.1620000000112,"noteNumber":57,"velocity":52,"programNumber":0},{"time":201863.22471041753,"duration":638.1620000000112,"noteNumber":54,"velocity":52,"programNumber":0},{"time":202501.38671041754,"duration":638.1619999999821,"noteNumber":60,"velocity":53,"programNumber":0},{"time":203139.54871041753,"duration":638.1620000000112,"noteNumber":57,"velocity":52,"programNumber":0},{"time":203777.71071041754,"duration":638.1620000000112,"noteNumber":63,"velocity":52,"programNumber":0},{"time":204415.87271041755,"duration":638.1620000000112,"noteNumber":60,"velocity":52,"programNumber":0},{"time":205054.03471041756,"duration":638.1620000000112,"noteNumber":66,"velocity":52,"programNumber":0},{"time":205692.19671041757,"duration":638.1620000000112,"noteNumber":63,"velocity":52,"programNumber":0},{"time":206330.35871041758,"duration":638.1619999999821,"noteNumber":69,"velocity":52,"programNumber":0},{"time":206968.52071041756,"duration":638.1620000000112,"noteNumber":66,"velocity":52,"programNumber":0},{"time":207606.68271041758,"duration":638.1619999999821,"noteNumber":72,"velocity":52,"programNumber":0},{"time":200586.9007104175,"duration":7657.944000000047,"noteNumber":32,"velocity":46,"programNumber":0},{"time":200586.9007104175,"duration":7657.944000000047,"noteNumber":44,"velocity":46,"programNumber":0},{"time":208244.84471041756,"duration":638.1620000000112,"noteNumber":52,"velocity":65,"programNumber":0},{"time":208883.00671041757,"duration":638.1620000000112,"noteNumber":61,"velocity":52,"programNumber":0},{"time":209521.16871041758,"duration":638.1620000000112,"noteNumber":56,"velocity":52,"programNumber":0},{"time":210159.3307104176,"duration":638.1620000000112,"noteNumber":64,"velocity":48,"programNumber":0},{"time":210797.4927104176,"duration":638.1620000000112,"noteNumber":61,"velocity":52,"programNumber":0},{"time":211435.6547104176,"duration":638.1620000000112,"noteNumber":68,"velocity":52,"programNumber":0},{"time":212073.81671041762,"duration":638.1620000000112,"noteNumber":64,"velocity":53,"programNumber":0},{"time":212711.97871041764,"duration":638.1620000000112,"noteNumber":73,"velocity":52,"programNumber":0},{"time":213350.14071041765,"duration":638.1620000000112,"noteNumber":68,"velocity":52,"programNumber":0},{"time":213988.30271041766,"duration":638.1620000000112,"noteNumber":76,"velocity":53,"programNumber":0},{"time":214626.46471041767,"duration":638.1620000000112,"noteNumber":73,"velocity":52,"programNumber":0},{"time":215264.62671041768,"duration":638.1620000000112,"noteNumber":68,"velocity":52,"programNumber":0},{"time":208244.84471041756,"duration":7657.944000000134,"noteNumber":32,"velocity":46,"programNumber":0},{"time":208244.84471041756,"duration":7657.944000000134,"noteNumber":44,"velocity":46,"programNumber":0},{"time":215902.7887104177,"duration":638.1619999999821,"noteNumber":61,"velocity":65,"programNumber":0},{"time":216540.95071041767,"duration":638.1619999999821,"noteNumber":67,"velocity":55,"programNumber":0},{"time":217179.11271041766,"duration":638.1620000000112,"noteNumber":64,"velocity":55,"programNumber":0},{"time":217817.27471041767,"duration":638.1619999999821,"noteNumber":70,"velocity":56,"programNumber":0},{"time":218455.43671041765,"duration":638.1620000000112,"noteNumber":67,"velocity":56,"programNumber":0},{"time":219093.59871041766,"duration":638.1619999999821,"noteNumber":73,"velocity":62,"programNumber":0},{"time":219731.76071041764,"duration":638.1620000000112,"noteNumber":70,"velocity":62,"programNumber":0},{"time":220369.92271041765,"duration":638.1619999999821,"noteNumber":76,"velocity":68,"programNumber":0},{"time":221008.08471041764,"duration":638.1620000000112,"noteNumber":73,"velocity":67,"programNumber":0},{"time":221646.24671041765,"duration":638.1619999999821,"noteNumber":79,"velocity":71,"programNumber":0},{"time":222284.40871041763,"duration":638.1620000000112,"noteNumber":76,"velocity":68,"programNumber":0},{"time":222922.57071041764,"duration":638.1619999999821,"noteNumber":82,"velocity":68,"programNumber":0},{"time":215902.7887104177,"duration":7657.94399999993,"noteNumber":44,"velocity":45,"programNumber":0},{"time":215902.7887104177,"duration":7657.94399999993,"noteNumber":32,"velocity":45,"programNumber":0},{"time":223560.73271041762,"duration":638.1619999999821,"noteNumber":66,"velocity":76,"programNumber":0},{"time":224198.8947104176,"duration":638.1619999999821,"noteNumber":72,"velocity":72,"programNumber":0},{"time":224837.0567104176,"duration":638.1620000000112,"noteNumber":69,"velocity":70,"programNumber":0},{"time":225475.2187104176,"duration":638.1619999999821,"noteNumber":75,"velocity":78,"programNumber":0},{"time":226113.38071041758,"duration":638.1620000000112,"noteNumber":72,"velocity":76,"programNumber":0},{"time":226751.5427104176,"duration":638.1619999999821,"noteNumber":78,"velocity":82,"programNumber":0},{"time":227389.70471041757,"duration":638.1620000000112,"noteNumber":75,"velocity":80,"programNumber":0},{"time":228027.86671041758,"duration":638.1619999999821,"noteNumber":81,"velocity":83,"programNumber":0},{"time":228666.02871041757,"duration":638.1620000000112,"noteNumber":78,"velocity":81,"programNumber":0},{"time":229304.19071041758,"duration":638.1619999999821,"noteNumber":84,"velocity":88,"programNumber":0},{"time":229942.35271041756,"duration":638.1620000000112,"noteNumber":81,"velocity":83,"programNumber":0},{"time":230580.51471041757,"duration":638.1619999999821,"noteNumber":87,"velocity":92,"programNumber":0},{"time":231218.67671041755,"duration":638.1620000000112,"noteNumber":84,"velocity":97,"programNumber":0},{"time":231856.83871041756,"duration":638.1620000000112,"noteNumber":78,"velocity":90,"programNumber":0},{"time":232495.00071041757,"duration":638.1620000000112,"noteNumber":81,"velocity":82,"programNumber":0},{"time":233133.1627104176,"duration":638.1620000000112,"noteNumber":75,"velocity":90,"programNumber":0},{"time":233771.3247104176,"duration":638.1620000000112,"noteNumber":78,"velocity":83,"programNumber":0},{"time":234409.4867104176,"duration":638.1620000000112,"noteNumber":72,"velocity":90,"programNumber":0},{"time":235047.64871041762,"duration":638.1620000000112,"noteNumber":75,"velocity":82,"programNumber":0},{"time":235685.81071041763,"duration":638.1620000000112,"noteNumber":69,"velocity":90,"programNumber":0},{"time":236323.97271041764,"duration":638.1620000000112,"noteNumber":72,"velocity":82,"programNumber":0},{"time":236962.13471041765,"duration":638.1620000000112,"noteNumber":66,"velocity":90,"programNumber":0},{"time":237600.29671041766,"duration":638.1620000000112,"noteNumber":69,"velocity":82,"programNumber":0},{"time":238238.45871041768,"duration":638.1619999999821,"noteNumber":63,"velocity":88,"programNumber":0},{"time":238876.62071041766,"duration":638.1620000000112,"noteNumber":66,"velocity":82,"programNumber":0},{"time":239514.78271041767,"duration":638.1620000000112,"noteNumber":60,"velocity":87,"programNumber":0},{"time":240152.94471041768,"duration":638.1620000000112,"noteNumber":63,"velocity":81,"programNumber":0},{"time":240791.1067104177,"duration":638.1620000000112,"noteNumber":57,"velocity":85,"programNumber":0},{"time":241429.2687104177,"duration":638.1620000000112,"noteNumber":60,"velocity":77,"programNumber":0},{"time":242067.4307104177,"duration":638.1619999999821,"noteNumber":54,"velocity":85,"programNumber":0},{"time":242705.5927104177,"duration":638.1620000000112,"noteNumber":57,"velocity":80,"programNumber":0},{"time":243981.9167104177,"duration":638.1620000000112,"noteNumber":54,"velocity":75,"programNumber":0},{"time":243343.7547104177,"duration":1276.3239999999932,"noteNumber":51,"velocity":82,"programNumber":0},{"time":245258.24071041768,"duration":638.1620000000112,"noteNumber":54,"velocity":75,"programNumber":0},{"time":245896.4027104177,"duration":638.1620000000112,"noteNumber":57,"velocity":71,"programNumber":0},{"time":244620.0787104177,"duration":1914.4860000000044,"noteNumber":49,"velocity":83,"programNumber":0},{"time":223560.73271041762,"duration":22973.832000000082,"noteNumber":44,"velocity":46,"programNumber":0},{"time":223560.73271041762,"duration":22973.832000000082,"noteNumber":32,"velocity":46,"programNumber":0},{"time":247172.7267104177,"duration":638.1620000000112,"noteNumber":54,"velocity":70,"programNumber":0},{"time":247810.8887104177,"duration":638.1620000000112,"noteNumber":56,"velocity":70,"programNumber":0},{"time":248449.0507104177,"duration":638.1619999999821,"noteNumber":57,"velocity":70,"programNumber":0},{"time":249087.2127104177,"duration":638.1620000000112,"noteNumber":56,"velocity":67,"programNumber":0},{"time":249725.3747104177,"duration":638.1620000000112,"noteNumber":54,"velocity":67,"programNumber":0},{"time":246534.5647104177,"duration":3828.972000000009,"noteNumber":48,"velocity":80,"programNumber":0},{"time":251001.6987104177,"duration":638.1620000000112,"noteNumber":54,"velocity":68,"programNumber":0},{"time":251639.8607104177,"duration":638.1620000000112,"noteNumber":57,"velocity":68,"programNumber":0},{"time":250363.5367104177,"duration":1914.4860000000044,"noteNumber":51,"velocity":78,"programNumber":0},{"time":252916.1847104177,"duration":638.1620000000112,"noteNumber":54,"velocity":65,"programNumber":0},{"time":253554.3467104177,"duration":638.1620000000112,"noteNumber":57,"velocity":65,"programNumber":0},{"time":252278.02271041772,"duration":1914.4860000000044,"noteNumber":49,"velocity":78,"programNumber":0},{"time":246534.5647104177,"duration":7657.944000000018,"noteNumber":44,"velocity":56,"programNumber":0},{"time":246534.5647104177,"duration":7657.944000000018,"noteNumber":32,"velocity":56,"programNumber":0},{"time":254830.6707104177,"duration":638.1620000000112,"noteNumber":54,"velocity":65,"programNumber":0},{"time":255468.83271041772,"duration":638.1620000000112,"noteNumber":56,"velocity":65,"programNumber":0},{"time":256106.99471041773,"duration":638.161999999953,"noteNumber":57,"velocity":63,"programNumber":0},{"time":256745.15671041768,"duration":638.1620000000112,"noteNumber":56,"velocity":62,"programNumber":0},{"time":257383.3187104177,"duration":638.1620000000112,"noteNumber":54,"velocity":62,"programNumber":0},{"time":254192.50871041772,"duration":3828.9719999999797,"noteNumber":48,"velocity":77,"programNumber":0},{"time":258659.6427104177,"duration":638.1620000000112,"noteNumber":54,"velocity":70,"programNumber":0},{"time":259297.80471041772,"duration":638.1620000000112,"noteNumber":57,"velocity":71,"programNumber":0},{"time":258021.4807104177,"duration":1914.4860000000335,"noteNumber":50,"velocity":78,"programNumber":0},{"time":260574.12871041772,"duration":638.1620000000112,"noteNumber":54,"velocity":65,"programNumber":0},{"time":261212.29071041773,"duration":638.1620000000112,"noteNumber":57,"velocity":65,"programNumber":0},{"time":259935.96671041774,"duration":1914.4860000000044,"noteNumber":49,"velocity":76,"programNumber":0},{"time":254192.50871041772,"duration":7657.944000000018,"noteNumber":44,"velocity":47,"programNumber":0},{"time":254192.50871041772,"duration":7657.944000000018,"noteNumber":32,"velocity":47,"programNumber":0},{"time":262488.61471041775,"duration":638.1620000000112,"noteNumber":54,"velocity":68,"programNumber":0},{"time":263126.77671041776,"duration":638.1620000000112,"noteNumber":56,"velocity":68,"programNumber":0},{"time":263764.9387104178,"duration":638.1620000000112,"noteNumber":57,"velocity":66,"programNumber":0},{"time":264403.1007104178,"duration":638.1620000000112,"noteNumber":56,"velocity":65,"programNumber":0},{"time":265041.2627104178,"duration":638.1620000000112,"noteNumber":54,"velocity":63,"programNumber":0},{"time":261850.45271041774,"duration":3828.972000000067,"noteNumber":48,"velocity":78,"programNumber":0},{"time":261850.45271041774,"duration":3828.972000000067,"noteNumber":32,"velocity":42,"programNumber":0},{"time":261850.45271041774,"duration":3828.972000000067,"noteNumber":44,"velocity":42,"programNumber":0},{"time":265679.4247104178,"duration":638.1620000000112,"noteNumber":49,"velocity":68,"programNumber":0},{"time":266317.5867104178,"duration":638.1620000000112,"noteNumber":52,"velocity":63,"programNumber":0},{"time":266955.7487104178,"duration":638.1620000000112,"noteNumber":61,"velocity":62,"programNumber":0},{"time":267593.91071041784,"duration":638.1620000000112,"noteNumber":49,"velocity":68,"programNumber":0},{"time":268232.07271041785,"duration":638.1620000000112,"noteNumber":52,"velocity":62,"programNumber":0},{"time":268870.23471041786,"duration":638.1620000000112,"noteNumber":61,"velocity":62,"programNumber":0},{"time":265679.4247104178,"duration":3828.972000000067,"noteNumber":33,"velocity":41,"programNumber":0},{"time":265679.4247104178,"duration":3828.972000000067,"noteNumber":45,"velocity":41,"programNumber":0},{"time":269508.3967104179,"duration":638.1620000000112,"noteNumber":51,"velocity":76,"programNumber":0},{"time":270146.5587104179,"duration":638.1620000000112,"noteNumber":57,"velocity":65,"programNumber":0},{"time":270784.7207104179,"duration":638.1620000000112,"noteNumber":61,"velocity":61,"programNumber":0},{"time":271422.8827104179,"duration":638.1620000000112,"noteNumber":51,"velocity":65,"programNumber":0},{"time":272061.0447104179,"duration":638.1620000000112,"noteNumber":57,"velocity":57,"programNumber":0},{"time":272699.20671041793,"duration":638.1620000000112,"noteNumber":61,"velocity":56,"programNumber":0},{"time":269508.3967104179,"duration":3828.972000000067,"noteNumber":42,"velocity":35,"programNumber":0},{"time":269508.3967104179,"duration":3828.972000000067,"noteNumber":30,"velocity":35,"programNumber":0},{"time":273337.36871041794,"duration":638.1620000000112,"noteNumber":51,"velocity":60,"programNumber":0},{"time":273975.53071041795,"duration":638.1620000000112,"noteNumber":56,"velocity":52,"programNumber":0},{"time":274613.69271041796,"duration":638.1620000000112,"noteNumber":60,"velocity":52,"programNumber":0},{"time":275251.854710418,"duration":638.1620000000112,"noteNumber":51,"velocity":47,"programNumber":0},{"time":275890.016710418,"duration":638.1620000000112,"noteNumber":54,"velocity":45,"programNumber":0},{"time":276528.178710418,"duration":638.1620000000112,"noteNumber":60,"velocity":40,"programNumber":0},{"time":273337.36871041794,"duration":3828.972000000067,"noteNumber":32,"velocity":46,"programNumber":0},{"time":273337.36871041794,"duration":3828.972000000067,"noteNumber":44,"velocity":46,"programNumber":0},{"time":277166.340710418,"duration":638.1620000000112,"noteNumber":52,"velocity":41,"programNumber":0},{"time":277804.502710418,"duration":638.1620000000112,"noteNumber":56,"velocity":38,"programNumber":0},{"time":278442.66471041803,"duration":638.1620000000112,"noteNumber":61,"velocity":37,"programNumber":0},{"time":279080.82671041804,"duration":638.1620000000112,"noteNumber":56,"velocity":41,"programNumber":0},{"time":279718.98871041805,"duration":638.1620000000112,"noteNumber":61,"velocity":38,"programNumber":0},{"time":280357.15071041806,"duration":638.1620000000112,"noteNumber":64,"velocity":38,"programNumber":0},{"time":280995.3127104181,"duration":638.1620000000112,"noteNumber":56,"velocity":41,"programNumber":0},{"time":281633.4747104181,"duration":638.1620000000112,"noteNumber":61,"velocity":38,"programNumber":0},{"time":282271.6367104181,"duration":638.1620000000112,"noteNumber":64,"velocity":38,"programNumber":0},{"time":282909.7987104181,"duration":638.1620000000112,"noteNumber":56,"velocity":41,"programNumber":0},{"time":283547.9607104181,"duration":638.1620000000112,"noteNumber":61,"velocity":37,"programNumber":0},{"time":282909.7987104181,"duration":1435.8645000000251,"noteNumber":68,"velocity":56,"programNumber":0},{"time":284345.66321041813,"duration":478.6215000000084,"noteNumber":68,"velocity":56,"programNumber":0},{"time":284186.12271041813,"duration":638.1620000000112,"noteNumber":64,"velocity":33,"programNumber":0},{"time":277166.340710418,"duration":7657.944000000134,"noteNumber":44,"velocity":41,"programNumber":0},{"time":277166.340710418,"duration":7657.944000000134,"noteNumber":49,"velocity":41,"programNumber":0},{"time":277166.340710418,"duration":7657.944000000134,"noteNumber":37,"velocity":41,"programNumber":0},{"time":284824.28471041814,"duration":638.161999999953,"noteNumber":56,"velocity":41,"programNumber":0},{"time":285462.4467104181,"duration":638.1620000000112,"noteNumber":63,"velocity":37,"programNumber":0},{"time":286100.6087104181,"duration":638.1620000000112,"noteNumber":66,"velocity":37,"programNumber":0},{"time":286738.7707104181,"duration":638.1620000000112,"noteNumber":56,"velocity":40,"programNumber":0},{"time":287376.9327104181,"duration":638.1620000000112,"noteNumber":63,"velocity":38,"programNumber":0},{"time":288015.09471041814,"duration":638.1620000000112,"noteNumber":66,"velocity":38,"programNumber":0},{"time":288653.25671041815,"duration":638.1620000000112,"noteNumber":56,"velocity":41,"programNumber":0},{"time":289291.41871041816,"duration":638.1620000000112,"noteNumber":63,"velocity":38,"programNumber":0},{"time":289929.5807104182,"duration":638.1620000000112,"noteNumber":66,"velocity":37,"programNumber":0},{"time":284824.28471041814,"duration":5743.458000000042,"noteNumber":68,"velocity":56,"programNumber":0},{"time":290567.7427104182,"duration":638.1620000000112,"noteNumber":56,"velocity":41,"programNumber":0},{"time":291205.9047104182,"duration":638.1620000000112,"noteNumber":63,"velocity":38,"programNumber":0},{"time":290567.7427104182,"duration":1435.8645000000251,"noteNumber":68,"velocity":56,"programNumber":0},{"time":292003.6072104182,"duration":478.6215000000084,"noteNumber":68,"velocity":56,"programNumber":0},{"time":291844.0667104182,"duration":638.1620000000112,"noteNumber":66,"velocity":35,"programNumber":0},{"time":284824.28471041814,"duration":7657.944000000076,"noteNumber":44,"velocity":46,"programNumber":0},{"time":284824.28471041814,"duration":7657.944000000076,"noteNumber":36,"velocity":46,"programNumber":0},{"time":284824.28471041814,"duration":7657.944000000076,"noteNumber":48,"velocity":46,"programNumber":0},{"time":292482.2287104182,"duration":638.161999999953,"noteNumber":56,"velocity":41,"programNumber":0},{"time":293120.39071041817,"duration":638.1620000000112,"noteNumber":61,"velocity":40,"programNumber":0},{"time":293758.5527104182,"duration":638.1620000000112,"noteNumber":64,"velocity":40,"programNumber":0},{"time":294396.7147104182,"duration":638.1620000000112,"noteNumber":56,"velocity":41,"programNumber":0},{"time":295034.8767104182,"duration":638.1620000000112,"noteNumber":61,"velocity":38,"programNumber":0},{"time":295673.0387104182,"duration":638.1620000000112,"noteNumber":64,"velocity":37,"programNumber":0},{"time":292482.2287104182,"duration":3828.972000000009,"noteNumber":49,"velocity":46,"programNumber":0},{"time":292482.2287104182,"duration":3828.972000000009,"noteNumber":37,"velocity":46,"programNumber":0},{"time":292482.2287104182,"duration":3828.972000000009,"noteNumber":68,"velocity":56,"programNumber":0},{"time":296311.2007104182,"duration":638.161999999953,"noteNumber":57,"velocity":41,"programNumber":0},{"time":296949.3627104182,"duration":638.1620000000112,"noteNumber":61,"velocity":40,"programNumber":0},{"time":297587.5247104182,"duration":638.1620000000112,"noteNumber":66,"velocity":38,"programNumber":0},{"time":298225.6867104182,"duration":638.1620000000112,"noteNumber":57,"velocity":41,"programNumber":0},{"time":298863.8487104182,"duration":638.1620000000112,"noteNumber":61,"velocity":38,"programNumber":0},{"time":299502.0107104182,"duration":638.1620000000112,"noteNumber":66,"velocity":36,"programNumber":0},{"time":296311.2007104182,"duration":3828.972000000009,"noteNumber":30,"velocity":46,"programNumber":0},{"time":296311.2007104182,"duration":3828.972000000009,"noteNumber":42,"velocity":46,"programNumber":0},{"time":296311.2007104182,"duration":3828.972000000009,"noteNumber":69,"velocity":56,"programNumber":0},{"time":300140.17271041824,"duration":638.161999999953,"noteNumber":56,"velocity":41,"programNumber":0},{"time":300778.3347104182,"duration":638.1620000000112,"noteNumber":59,"velocity":37,"programNumber":0},{"time":301416.4967104182,"duration":638.1620000000112,"noteNumber":64,"velocity":37,"programNumber":0},{"time":302054.6587104182,"duration":638.1620000000112,"noteNumber":56,"velocity":40,"programNumber":0},{"time":302692.8207104182,"duration":638.1620000000112,"noteNumber":59,"velocity":37,"programNumber":0},{"time":303330.98271041823,"duration":638.1620000000112,"noteNumber":64,"velocity":37,"programNumber":0},{"time":300140.17271041824,"duration":3828.972000000009,"noteNumber":47,"velocity":46,"programNumber":0},{"time":300140.17271041824,"duration":3828.972000000009,"noteNumber":35,"velocity":46,"programNumber":0},{"time":300140.17271041824,"duration":3828.972000000009,"noteNumber":68,"velocity":56,"programNumber":0},{"time":303969.14471041824,"duration":638.1620000000112,"noteNumber":57,"velocity":40,"programNumber":0},{"time":304607.30671041826,"duration":638.1620000000112,"noteNumber":59,"velocity":35,"programNumber":0},{"time":305245.46871041827,"duration":638.1620000000112,"noteNumber":63,"velocity":35,"programNumber":0},{"time":303969.14471041824,"duration":1914.4860000000335,"noteNumber":66,"velocity":56,"programNumber":0},{"time":305883.6307104183,"duration":638.1620000000112,"noteNumber":57,"velocity":40,"programNumber":0},{"time":306521.7927104183,"duration":638.1620000000112,"noteNumber":59,"velocity":35,"programNumber":0},{"time":307159.9547104183,"duration":638.1620000000112,"noteNumber":63,"velocity":32,"programNumber":0},{"time":303969.14471041824,"duration":3828.972000000067,"noteNumber":35,"velocity":46,"programNumber":0},{"time":303969.14471041824,"duration":3828.972000000067,"noteNumber":47,"velocity":46,"programNumber":0},{"time":305883.6307104183,"duration":1914.4860000000335,"noteNumber":71,"velocity":56,"programNumber":0},{"time":307798.1167104183,"duration":638.1620000000112,"noteNumber":56,"velocity":40,"programNumber":0},{"time":307798.1167104183,"duration":1236.4388749999925,"noteNumber":64,"velocity":56,"programNumber":0},{"time":308436.2787104183,"duration":638.161999999953,"noteNumber":59,"velocity":37,"programNumber":0},{"time":309074.4407104183,"duration":638.1620000000112,"noteNumber":64,"velocity":37,"programNumber":0},{"time":309712.6027104183,"duration":638.1620000000112,"noteNumber":59,"velocity":40,"programNumber":0},{"time":310350.7647104183,"duration":638.1620000000112,"noteNumber":64,"velocity":37,"programNumber":0},{"time":310988.9267104183,"duration":638.1620000000112,"noteNumber":68,"velocity":37,"programNumber":0},{"time":311627.0887104183,"duration":638.1620000000112,"noteNumber":59,"velocity":40,"programNumber":0},{"time":312265.25071041833,"duration":638.1620000000112,"noteNumber":64,"velocity":37,"programNumber":0},{"time":312903.41271041834,"duration":638.1620000000112,"noteNumber":68,"velocity":37,"programNumber":0},{"time":313541.57471041835,"duration":638.1620000000112,"noteNumber":59,"velocity":40,"programNumber":0},{"time":314179.73671041836,"duration":638.1620000000112,"noteNumber":64,"velocity":37,"programNumber":0},{"time":313541.57471041835,"duration":1435.8645000000251,"noteNumber":71,"velocity":61,"programNumber":0},{"time":314977.4392104184,"duration":478.6215000000084,"noteNumber":71,"velocity":56,"programNumber":0},{"time":314817.8987104184,"duration":638.1620000000112,"noteNumber":68,"velocity":32,"programNumber":0},{"time":307798.1167104183,"duration":7657.944000000076,"noteNumber":40,"velocity":45,"programNumber":0},{"time":307798.1167104183,"duration":7657.944000000076,"noteNumber":52,"velocity":45,"programNumber":0},{"time":315456.0607104184,"duration":638.1620000000112,"noteNumber":59,"velocity":40,"programNumber":0},{"time":316094.2227104184,"duration":638.1620000000112,"noteNumber":66,"velocity":33,"programNumber":0},{"time":316732.3847104184,"duration":638.1620000000112,"noteNumber":69,"velocity":31,"programNumber":0},{"time":317370.5467104184,"duration":638.1620000000112,"noteNumber":59,"velocity":40,"programNumber":0},{"time":318008.70871041843,"duration":638.1620000000112,"noteNumber":66,"velocity":32,"programNumber":0},{"time":318646.87071041844,"duration":638.1620000000112,"noteNumber":69,"velocity":32,"programNumber":0},{"time":319285.03271041845,"duration":638.1620000000112,"noteNumber":59,"velocity":40,"programNumber":0},{"time":319923.19471041847,"duration":638.1620000000112,"noteNumber":66,"velocity":32,"programNumber":0},{"time":320561.3567104185,"duration":638.1620000000112,"noteNumber":69,"velocity":32,"programNumber":0},{"time":315456.0607104184,"duration":5743.458000000101,"noteNumber":71,"velocity":61,"programNumber":0},{"time":321199.5187104185,"duration":638.1620000000112,"noteNumber":59,"velocity":40,"programNumber":0},{"time":321837.6807104185,"duration":638.1620000000112,"noteNumber":66,"velocity":33,"programNumber":0},{"time":321199.5187104185,"duration":1435.8645000000251,"noteNumber":71,"velocity":63,"programNumber":0},{"time":322635.3832104185,"duration":478.6215000000084,"noteNumber":71,"velocity":56,"programNumber":0},{"time":322475.8427104185,"duration":638.1620000000112,"noteNumber":69,"velocity":33,"programNumber":0},{"time":315456.0607104184,"duration":7657.944000000134,"noteNumber":39,"velocity":35,"programNumber":0},{"time":315456.0607104184,"duration":7657.944000000134,"noteNumber":51,"velocity":35,"programNumber":0},{"time":323114.0047104185,"duration":638.161999999953,"noteNumber":59,"velocity":40,"programNumber":0},{"time":323752.1667104185,"duration":638.1620000000112,"noteNumber":64,"velocity":35,"programNumber":0},{"time":324390.3287104185,"duration":638.1620000000112,"noteNumber":68,"velocity":35,"programNumber":0},{"time":325028.4907104185,"duration":638.1620000000112,"noteNumber":59,"velocity":40,"programNumber":0},{"time":325666.6527104185,"duration":638.1620000000112,"noteNumber":64,"velocity":35,"programNumber":0},{"time":326304.8147104185,"duration":638.1620000000112,"noteNumber":68,"velocity":35,"programNumber":0},{"time":323114.0047104185,"duration":3828.972000000009,"noteNumber":40,"velocity":37,"programNumber":0},{"time":323114.0047104185,"duration":3828.972000000009,"noteNumber":52,"velocity":37,"programNumber":0},{"time":323114.0047104185,"duration":3828.972000000009,"noteNumber":71,"velocity":63,"programNumber":0},{"time":326942.97671041853,"duration":638.1620000000112,"noteNumber":60,"velocity":40,"programNumber":0},{"time":327581.13871041854,"duration":638.1620000000112,"noteNumber":66,"velocity":46,"programNumber":0},{"time":328219.30071041855,"duration":638.1620000000112,"noteNumber":68,"velocity":50,"programNumber":0},{"time":326942.97671041853,"duration":1914.4860000000335,"noteNumber":72,"velocity":65,"programNumber":0},{"time":326942.97671041853,"duration":1914.4860000000335,"noteNumber":39,"velocity":37,"programNumber":0},{"time":326942.97671041853,"duration":1914.4860000000335,"noteNumber":51,"velocity":37,"programNumber":0},{"time":328857.46271041856,"duration":638.161999999953,"noteNumber":61,"velocity":55,"programNumber":0},{"time":329495.6247104185,"duration":638.1620000000112,"noteNumber":64,"velocity":60,"programNumber":0},{"time":330133.7867104185,"duration":638.1620000000112,"noteNumber":68,"velocity":60,"programNumber":0},{"time":328857.46271041856,"duration":1914.4859999999753,"noteNumber":73,"velocity":72,"programNumber":0},{"time":328857.46271041856,"duration":1914.4859999999753,"noteNumber":49,"velocity":40,"programNumber":0},{"time":328857.46271041856,"duration":1914.4859999999753,"noteNumber":37,"velocity":40,"programNumber":0},{"time":330771.94871041854,"duration":638.1620000000112,"noteNumber":63,"velocity":60,"programNumber":0},{"time":331410.11071041855,"duration":638.1620000000112,"noteNumber":66,"velocity":52,"programNumber":0},{"time":332048.27271041856,"duration":638.1620000000112,"noteNumber":68,"velocity":52,"programNumber":0},{"time":332686.4347104186,"duration":638.1620000000112,"noteNumber":63,"velocity":53,"programNumber":0},{"time":333324.5967104186,"duration":638.1620000000112,"noteNumber":66,"velocity":50,"programNumber":0},{"time":333962.7587104186,"duration":638.1620000000112,"noteNumber":68,"velocity":50,"programNumber":0},{"time":330771.94871041854,"duration":3828.972000000067,"noteNumber":44,"velocity":45,"programNumber":0},{"time":330771.94871041854,"duration":3828.972000000067,"noteNumber":75,"velocity":75,"programNumber":0},{"time":330771.94871041854,"duration":3828.972000000067,"noteNumber":36,"velocity":45,"programNumber":0},{"time":330771.94871041854,"duration":3828.972000000067,"noteNumber":48,"velocity":45,"programNumber":0},{"time":334600.9207104186,"duration":638.161999999953,"noteNumber":64,"velocity":48,"programNumber":0},{"time":335239.08271041856,"duration":638.1620000000112,"noteNumber":68,"velocity":40,"programNumber":0},{"time":335877.24471041857,"duration":638.1620000000112,"noteNumber":73,"velocity":40,"programNumber":0},{"time":336515.4067104186,"duration":638.1620000000112,"noteNumber":64,"velocity":40,"programNumber":0},{"time":337153.5687104186,"duration":638.1620000000112,"noteNumber":68,"velocity":33,"programNumber":0},{"time":337791.7307104186,"duration":638.1620000000112,"noteNumber":73,"velocity":33,"programNumber":0},{"time":334600.9207104186,"duration":3828.972000000009,"noteNumber":44,"velocity":38,"programNumber":0},{"time":334600.9207104186,"duration":3828.972000000009,"noteNumber":76,"velocity":56,"programNumber":0},{"time":334600.9207104186,"duration":3828.972000000009,"noteNumber":37,"velocity":38,"programNumber":0},{"time":334600.9207104186,"duration":3828.972000000009,"noteNumber":49,"velocity":38,"programNumber":0},{"time":338429.8927104186,"duration":638.1620000000112,"noteNumber":62,"velocity":40,"programNumber":0},{"time":339068.0547104186,"duration":638.1620000000112,"noteNumber":66,"velocity":37,"programNumber":0},{"time":339706.21671041864,"duration":638.1620000000112,"noteNumber":69,"velocity":37,"programNumber":0},{"time":340344.37871041865,"duration":638.1620000000112,"noteNumber":62,"velocity":40,"programNumber":0},{"time":340982.54071041866,"duration":638.1620000000112,"noteNumber":66,"velocity":37,"programNumber":0},{"time":341620.7027104187,"duration":638.1620000000112,"noteNumber":69,"velocity":37,"programNumber":0},{"time":338429.8927104186,"duration":3828.972000000067,"noteNumber":42,"velocity":41,"programNumber":0},{"time":338429.8927104186,"duration":3828.972000000067,"noteNumber":30,"velocity":41,"programNumber":0},{"time":338429.8927104186,"duration":3828.972000000067,"noteNumber":74,"velocity":56,"programNumber":0},{"time":342258.8647104187,"duration":638.1620000000112,"noteNumber":60,"velocity":40,"programNumber":0},{"time":342897.0267104187,"duration":638.1620000000112,"noteNumber":66,"velocity":37,"programNumber":0},{"time":343535.1887104187,"duration":638.1620000000112,"noteNumber":68,"velocity":37,"programNumber":0},{"time":344173.3507104187,"duration":638.1620000000112,"noteNumber":60,"velocity":40,"programNumber":0},{"time":344811.5127104187,"duration":638.1620000000112,"noteNumber":66,"velocity":37,"programNumber":0},{"time":345449.67471041874,"duration":638.1620000000112,"noteNumber":68,"velocity":35,"programNumber":0},{"time":342258.8647104187,"duration":3828.972000000067,"noteNumber":44,"velocity":41,"programNumber":0},{"time":342258.8647104187,"duration":3828.972000000067,"noteNumber":32,"velocity":41,"programNumber":0},{"time":342258.8647104187,"duration":3828.972000000067,"noteNumber":72,"velocity":56,"programNumber":0},{"time":346087.83671041875,"duration":638.161999999953,"noteNumber":61,"velocity":40,"programNumber":0},{"time":346725.9987104187,"duration":638.1620000000112,"noteNumber":64,"velocity":33,"programNumber":0},{"time":347364.1607104187,"duration":638.1620000000112,"noteNumber":68,"velocity":30,"programNumber":0},{"time":348002.3227104187,"duration":638.1620000000112,"noteNumber":61,"velocity":40,"programNumber":0},{"time":348640.48471041874,"duration":638.1620000000112,"noteNumber":64,"velocity":33,"programNumber":0},{"time":349278.64671041875,"duration":638.1620000000112,"noteNumber":68,"velocity":31,"programNumber":0},{"time":349916.80871041876,"duration":638.1620000000112,"noteNumber":61,"velocity":40,"programNumber":0},{"time":350554.97071041877,"duration":638.1620000000112,"noteNumber":65,"velocity":33,"programNumber":0},{"time":351193.1327104188,"duration":638.1620000000112,"noteNumber":68,"velocity":33,"programNumber":0},{"time":346087.83671041875,"duration":5743.458000000042,"noteNumber":73,"velocity":56,"programNumber":0},{"time":351831.2947104188,"duration":638.1620000000112,"noteNumber":61,"velocity":40,"programNumber":0},{"time":352469.4567104188,"duration":638.1620000000112,"noteNumber":65,"velocity":31,"programNumber":0},{"time":353107.6187104188,"duration":638.1620000000112,"noteNumber":68,"velocity":30,"programNumber":0},{"time":351831.2947104188,"duration":1914.4860000000335,"noteNumber":73,"velocity":56,"programNumber":0},{"time":353745.7807104188,"duration":638.161999999953,"noteNumber":61,"velocity":40,"programNumber":0},{"time":354383.9427104188,"duration":638.1620000000112,"noteNumber":66,"velocity":42,"programNumber":0},{"time":355022.1047104188,"duration":638.1620000000112,"noteNumber":69,"velocity":40,"programNumber":0},{"time":346087.83671041875,"duration":9572.430000000051,"noteNumber":37,"velocity":38,"programNumber":0},{"time":346087.83671041875,"duration":9572.430000000051,"noteNumber":49,"velocity":38,"programNumber":0},{"time":355660.2667104188,"duration":638.1620000000112,"noteNumber":61,"velocity":46,"programNumber":0},{"time":356298.4287104188,"duration":638.1620000000112,"noteNumber":66,"velocity":47,"programNumber":0},{"time":356936.5907104188,"duration":638.1620000000112,"noteNumber":69,"velocity":47,"programNumber":0},{"time":355660.2667104188,"duration":1914.4860000000335,"noteNumber":42,"velocity":47,"programNumber":0},{"time":355660.2667104188,"duration":1914.4860000000335,"noteNumber":54,"velocity":47,"programNumber":0},{"time":357574.75271041883,"duration":638.1620000000112,"noteNumber":61,"velocity":53,"programNumber":0},{"time":358212.91471041885,"duration":638.1620000000112,"noteNumber":66,"velocity":55,"programNumber":0},{"time":358851.07671041886,"duration":638.1620000000112,"noteNumber":69,"velocity":53,"programNumber":0},{"time":353745.7807104188,"duration":5743.458000000042,"noteNumber":74,"velocity":71,"programNumber":0},{"time":357574.75271041883,"duration":1914.4860000000335,"noteNumber":45,"velocity":56,"programNumber":0},{"time":357574.75271041883,"duration":1914.4860000000335,"noteNumber":57,"velocity":56,"programNumber":0},{"time":359489.23871041887,"duration":638.1620000000112,"noteNumber":61,"velocity":61,"programNumber":0},{"time":360127.4007104189,"duration":638.1620000000112,"noteNumber":66,"velocity":60,"programNumber":0},{"time":360765.5627104189,"duration":638.1620000000112,"noteNumber":69,"velocity":52,"programNumber":0},{"time":359489.23871041887,"duration":1914.4860000000335,"noteNumber":72,"velocity":56,"programNumber":0},{"time":359489.23871041887,"duration":1914.4860000000335,"noteNumber":54,"velocity":50,"programNumber":0},{"time":359489.23871041887,"duration":1914.4860000000335,"noteNumber":42,"velocity":50,"programNumber":0},{"time":361403.7247104189,"duration":638.161999999953,"noteNumber":61,"velocity":45,"programNumber":0},{"time":362041.88671041885,"duration":638.1620000000112,"noteNumber":65,"velocity":37,"programNumber":0},{"time":362680.04871041887,"duration":638.1620000000112,"noteNumber":68,"velocity":36,"programNumber":0},{"time":363318.2107104189,"duration":638.1620000000112,"noteNumber":61,"velocity":40,"programNumber":0},{"time":363956.3727104189,"duration":638.1620000000112,"noteNumber":65,"velocity":35,"programNumber":0},{"time":364594.5347104189,"duration":638.1620000000112,"noteNumber":68,"velocity":35,"programNumber":0},{"time":365232.6967104189,"duration":638.1620000000112,"noteNumber":61,"velocity":40,"programNumber":0},{"time":365870.8587104189,"duration":638.1620000000112,"noteNumber":65,"velocity":33,"programNumber":0},{"time":366509.02071041893,"duration":638.1620000000112,"noteNumber":68,"velocity":33,"programNumber":0},{"time":361403.7247104189,"duration":5743.458000000042,"noteNumber":73,"velocity":56,"programNumber":0},{"time":367147.18271041894,"duration":638.1620000000112,"noteNumber":61,"velocity":40,"programNumber":0},{"time":367785.34471041895,"duration":638.1620000000112,"noteNumber":65,"velocity":33,"programNumber":0},{"time":368423.50671041897,"duration":638.1620000000112,"noteNumber":68,"velocity":28,"programNumber":0},{"time":367147.18271041894,"duration":1914.4860000000335,"noteNumber":73,"velocity":56,"programNumber":0},{"time":369061.668710419,"duration":638.161999999953,"noteNumber":61,"velocity":40,"programNumber":0},{"time":369699.83071041893,"duration":638.1620000000112,"noteNumber":66,"velocity":42,"programNumber":0},{"time":370337.99271041894,"duration":638.1620000000112,"noteNumber":69,"velocity":46,"programNumber":0},{"time":361403.7247104189,"duration":9572.430000000051,"noteNumber":49,"velocity":41,"programNumber":0},{"time":361403.7247104189,"duration":9572.430000000051,"noteNumber":37,"velocity":41,"programNumber":0},{"time":370976.15471041895,"duration":638.1620000000112,"noteNumber":61,"velocity":47,"programNumber":0},{"time":371614.31671041896,"duration":638.1620000000112,"noteNumber":66,"velocity":48,"programNumber":0},{"time":372252.478710419,"duration":638.1620000000112,"noteNumber":69,"velocity":55,"programNumber":0},{"time":370976.15471041895,"duration":1914.4860000000335,"noteNumber":54,"velocity":48,"programNumber":0},{"time":370976.15471041895,"duration":1914.4860000000335,"noteNumber":42,"velocity":48,"programNumber":0},{"time":372890.640710419,"duration":638.1620000000112,"noteNumber":61,"velocity":57,"programNumber":0},{"time":373528.802710419,"duration":638.1620000000112,"noteNumber":66,"velocity":56,"programNumber":0},{"time":374166.964710419,"duration":638.1620000000112,"noteNumber":69,"velocity":55,"programNumber":0},{"time":369061.668710419,"duration":5743.458000000042,"noteNumber":74,"velocity":68,"programNumber":0},{"time":372890.640710419,"duration":1914.4860000000335,"noteNumber":57,"velocity":57,"programNumber":0},{"time":372890.640710419,"duration":1914.4860000000335,"noteNumber":45,"velocity":57,"programNumber":0},{"time":374805.126710419,"duration":638.1620000000112,"noteNumber":61,"velocity":61,"programNumber":0},{"time":375443.28871041903,"duration":638.1620000000112,"noteNumber":66,"velocity":55,"programNumber":0},{"time":376081.45071041904,"duration":638.1620000000112,"noteNumber":69,"velocity":37,"programNumber":0},{"time":374805.126710419,"duration":1914.4860000000335,"noteNumber":72,"velocity":56,"programNumber":0},{"time":374805.126710419,"duration":1914.4860000000335,"noteNumber":42,"velocity":48,"programNumber":0},{"time":374805.126710419,"duration":1914.4860000000335,"noteNumber":54,"velocity":48,"programNumber":0},{"time":376719.61271041905,"duration":638.1620000000112,"noteNumber":61,"velocity":46,"programNumber":0},{"time":377357.77471041906,"duration":638.1620000000112,"noteNumber":65,"velocity":38,"programNumber":0},{"time":377995.9367104191,"duration":638.1620000000112,"noteNumber":68,"velocity":38,"programNumber":0},{"time":378634.0987104191,"duration":638.1620000000112,"noteNumber":61,"velocity":40,"programNumber":0},{"time":379272.2607104191,"duration":638.1620000000112,"noteNumber":65,"velocity":37,"programNumber":0},{"time":379910.4227104191,"duration":638.1620000000112,"noteNumber":68,"velocity":37,"programNumber":0},{"time":376719.61271041905,"duration":3828.972000000067,"noteNumber":37,"velocity":40,"programNumber":0},{"time":376719.61271041905,"duration":3828.972000000067,"noteNumber":49,"velocity":40,"programNumber":0},{"time":376719.61271041905,"duration":3828.972000000067,"noteNumber":73,"velocity":61,"programNumber":0},{"time":380548.5847104191,"duration":638.1620000000112,"noteNumber":61,"velocity":42,"programNumber":0},{"time":381186.74671041913,"duration":638.1620000000112,"noteNumber":66,"velocity":37,"programNumber":0},{"time":381824.90871041914,"duration":638.1620000000112,"noteNumber":69,"velocity":37,"programNumber":0},{"time":382463.07071041915,"duration":638.1620000000112,"noteNumber":61,"velocity":40,"programNumber":0},{"time":383101.23271041916,"duration":638.1620000000112,"noteNumber":66,"velocity":37,"programNumber":0},{"time":383739.3947104192,"duration":638.1620000000112,"noteNumber":69,"velocity":37,"programNumber":0},{"time":380548.5847104191,"duration":3828.972000000067,"noteNumber":42,"velocity":42,"programNumber":0},{"time":380548.5847104191,"duration":3828.972000000067,"noteNumber":30,"velocity":42,"programNumber":0},{"time":380548.5847104191,"duration":3828.972000000067,"noteNumber":73,"velocity":56,"programNumber":0},{"time":384377.5567104192,"duration":638.1620000000112,"noteNumber":59,"velocity":47,"programNumber":0},{"time":385015.7187104192,"duration":638.1620000000112,"noteNumber":66,"velocity":40,"programNumber":0},{"time":385653.8807104192,"duration":638.1620000000112,"noteNumber":69,"velocity":40,"programNumber":0},{"time":386292.0427104192,"duration":638.1620000000112,"noteNumber":59,"velocity":40,"programNumber":0},{"time":386930.20471041923,"duration":638.1620000000112,"noteNumber":66,"velocity":38,"programNumber":0},{"time":387568.36671041924,"duration":638.1620000000112,"noteNumber":69,"velocity":37,"programNumber":0},{"time":388206.52871041925,"duration":638.1620000000112,"noteNumber":59,"velocity":40,"programNumber":0},{"time":388844.69071041927,"duration":638.1620000000112,"noteNumber":66,"velocity":38,"programNumber":0},{"time":389482.8527104193,"duration":638.1620000000112,"noteNumber":69,"velocity":37,"programNumber":0},{"time":384377.5567104192,"duration":5743.458000000101,"noteNumber":71,"velocity":56,"programNumber":0},{"time":384377.5567104192,"duration":5743.458000000101,"noteNumber":39,"velocity":45,"programNumber":0},{"time":384377.5567104192,"duration":5743.458000000101,"noteNumber":51,"velocity":45,"programNumber":0},{"time":390121.0147104193,"duration":638.1620000000112,"noteNumber":59,"velocity":40,"programNumber":0},{"time":390759.1767104193,"duration":638.1620000000112,"noteNumber":64,"velocity":38,"programNumber":0},{"time":391397.3387104193,"duration":638.1620000000112,"noteNumber":68,"velocity":33,"programNumber":0},{"time":390121.0147104193,"duration":1914.4860000000335,"noteNumber":71,"velocity":56,"programNumber":0},{"time":390121.0147104193,"duration":1914.4860000000335,"noteNumber":40,"velocity":41,"programNumber":0},{"time":390121.0147104193,"duration":1914.4860000000335,"noteNumber":52,"velocity":41,"programNumber":0},{"time":392035.5007104193,"duration":638.1620000000112,"noteNumber":57,"velocity":40,"programNumber":0},{"time":392673.66271041933,"duration":638.1620000000112,"noteNumber":64,"velocity":37,"programNumber":0},{"time":393311.82471041934,"duration":638.1620000000112,"noteNumber":68,"velocity":37,"programNumber":0},{"time":392035.5007104193,"duration":1914.4860000000335,"noteNumber":69,"velocity":56,"programNumber":0},{"time":392035.5007104193,"duration":1914.4860000000335,"noteNumber":37,"velocity":46,"programNumber":0},{"time":392035.5007104193,"duration":1914.4860000000335,"noteNumber":49,"velocity":46,"programNumber":0},{"time":393949.98671041935,"duration":638.1620000000112,"noteNumber":57,"velocity":40,"programNumber":0},{"time":394588.14871041937,"duration":638.1620000000112,"noteNumber":63,"velocity":37,"programNumber":0},{"time":395226.3107104194,"duration":638.1620000000112,"noteNumber":66,"velocity":37,"programNumber":0},{"time":393949.98671041935,"duration":1914.4860000000335,"noteNumber":69,"velocity":56,"programNumber":0},{"time":393949.98671041935,"duration":1914.4860000000335,"noteNumber":39,"velocity":40,"programNumber":0},{"time":393949.98671041935,"duration":1914.4860000000335,"noteNumber":51,"velocity":40,"programNumber":0},{"time":395864.4727104194,"duration":638.161999999953,"noteNumber":56,"velocity":40,"programNumber":0},{"time":396502.63471041934,"duration":638.1620000000112,"noteNumber":63,"velocity":37,"programNumber":0},{"time":397140.79671041935,"duration":638.1620000000112,"noteNumber":66,"velocity":37,"programNumber":0},{"time":395864.4727104194,"duration":1914.4859999999753,"noteNumber":68,"velocity":56,"programNumber":0},{"time":395864.4727104194,"duration":1914.4859999999753,"noteNumber":48,"velocity":46,"programNumber":0},{"time":395864.4727104194,"duration":1914.4859999999753,"noteNumber":36,"velocity":46,"programNumber":0},{"time":397778.95871041936,"duration":638.1620000000112,"noteNumber":56,"velocity":40,"programNumber":0},{"time":398417.1207104194,"duration":638.1620000000112,"noteNumber":61,"velocity":37,"programNumber":0},{"time":399055.2827104194,"duration":638.1620000000112,"noteNumber":64,"velocity":37,"programNumber":0},{"time":397778.95871041936,"duration":1914.4860000000335,"noteNumber":68,"velocity":56,"programNumber":0},{"time":397778.95871041936,"duration":1914.4860000000335,"noteNumber":49,"velocity":40,"programNumber":0},{"time":397778.95871041936,"duration":1914.4860000000335,"noteNumber":37,"velocity":40,"programNumber":0},{"time":399693.4447104194,"duration":638.1620000000112,"noteNumber":54,"velocity":40,"programNumber":0},{"time":400331.6067104194,"duration":638.1620000000112,"noteNumber":61,"velocity":42,"programNumber":0},{"time":400969.7687104194,"duration":638.1620000000112,"noteNumber":63,"velocity":46,"programNumber":0},{"time":401607.93071041943,"duration":638.1620000000112,"noteNumber":54,"velocity":46,"programNumber":0},{"time":402246.09271041944,"duration":638.1620000000112,"noteNumber":61,"velocity":47,"programNumber":0},{"time":402884.25471041945,"duration":638.1620000000112,"noteNumber":63,"velocity":50,"programNumber":0},{"time":399693.4447104194,"duration":3828.972000000067,"noteNumber":45,"velocity":46,"programNumber":0},{"time":399693.4447104194,"duration":3828.972000000067,"noteNumber":33,"velocity":46,"programNumber":0},{"time":399693.4447104194,"duration":3828.972000000067,"noteNumber":66,"velocity":56,"programNumber":0},{"time":403522.41671041946,"duration":638.1620000000112,"noteNumber":56,"velocity":53,"programNumber":0},{"time":404160.5787104195,"duration":638.1620000000112,"noteNumber":61,"velocity":53,"programNumber":0},{"time":404798.7407104195,"duration":638.1620000000112,"noteNumber":63,"velocity":53,"programNumber":0},{"time":403522.41671041946,"duration":1914.4860000000335,"noteNumber":68,"velocity":67,"programNumber":0},{"time":403522.41671041946,"duration":1914.4860000000335,"noteNumber":32,"velocity":50,"programNumber":0},{"time":403522.41671041946,"duration":1914.4860000000335,"noteNumber":44,"velocity":50,"programNumber":0},{"time":405436.9027104195,"duration":638.161999999953,"noteNumber":57,"velocity":60,"programNumber":0},{"time":406075.06471041945,"duration":638.1620000000112,"noteNumber":61,"velocity":57,"programNumber":0},{"time":406713.22671041946,"duration":638.1620000000112,"noteNumber":63,"velocity":55,"programNumber":0},{"time":405436.9027104195,"duration":1914.4859999999753,"noteNumber":69,"velocity":77,"programNumber":0},{"time":405436.9027104195,"duration":1914.4859999999753,"noteNumber":42,"velocity":57,"programNumber":0},{"time":405436.9027104195,"duration":1914.4859999999753,"noteNumber":30,"velocity":57,"programNumber":0},{"time":407351.3887104195,"duration":638.161999999953,"noteNumber":56,"velocity":40,"programNumber":0},{"time":407989.5507104194,"duration":638.1620000000112,"noteNumber":61,"velocity":37,"programNumber":0},{"time":408627.71271041944,"duration":638.1620000000112,"noteNumber":64,"velocity":35,"programNumber":0},{"time":409265.87471041945,"duration":638.1620000000112,"noteNumber":56,"velocity":40,"programNumber":0},{"time":409904.03671041946,"duration":638.1620000000112,"noteNumber":61,"velocity":37,"programNumber":0},{"time":410542.19871041947,"duration":638.1620000000112,"noteNumber":64,"velocity":37,"programNumber":0},{"time":407351.3887104195,"duration":3828.972000000009,"noteNumber":44,"velocity":46,"programNumber":0},{"time":407351.3887104195,"duration":3828.972000000009,"noteNumber":32,"velocity":46,"programNumber":0},{"time":407351.3887104195,"duration":3828.972000000009,"noteNumber":68,"velocity":56,"programNumber":0},{"time":411180.3607104195,"duration":638.1620000000112,"noteNumber":54,"velocity":40,"programNumber":0},{"time":411818.5227104195,"duration":638.1620000000112,"noteNumber":60,"velocity":35,"programNumber":0},{"time":412456.6847104195,"duration":638.1620000000112,"noteNumber":63,"velocity":31,"programNumber":0},{"time":413094.8467104195,"duration":638.1620000000112,"noteNumber":54,"velocity":30,"programNumber":0},{"time":413733.0087104195,"duration":638.1620000000112,"noteNumber":60,"velocity":26,"programNumber":0},{"time":414371.17071041954,"duration":638.1620000000112,"noteNumber":63,"velocity":26,"programNumber":0},{"time":411180.3607104195,"duration":3828.972000000067,"noteNumber":44,"velocity":46,"programNumber":0},{"time":411180.3607104195,"duration":3828.972000000067,"noteNumber":32,"velocity":46,"programNumber":0},{"time":411180.3607104195,"duration":3828.972000000067,"noteNumber":68,"velocity":47,"programNumber":0},{"time":415009.33271041955,"duration":638.161999999953,"noteNumber":52,"velocity":37,"programNumber":0},{"time":415647.4947104195,"duration":638.1620000000112,"noteNumber":56,"velocity":32,"programNumber":0},{"time":416285.6567104195,"duration":638.1620000000112,"noteNumber":61,"velocity":32,"programNumber":0},{"time":416923.8187104195,"duration":638.1620000000112,"noteNumber":56,"velocity":37,"programNumber":0},{"time":417561.98071041954,"duration":638.1620000000112,"noteNumber":61,"velocity":32,"programNumber":0},{"time":418200.14271041955,"duration":638.1620000000112,"noteNumber":64,"velocity":32,"programNumber":0},{"time":418838.30471041956,"duration":638.1620000000112,"noteNumber":56,"velocity":37,"programNumber":0},{"time":419476.46671041957,"duration":638.1620000000112,"noteNumber":61,"velocity":31,"programNumber":0},{"time":420114.6287104196,"duration":638.1620000000112,"noteNumber":64,"velocity":31,"programNumber":0},{"time":415009.33271041955,"duration":5743.458000000042,"noteNumber":44,"velocity":53,"programNumber":0},{"time":420752.7907104196,"duration":638.1620000000112,"noteNumber":56,"velocity":37,"programNumber":0},{"time":421390.9527104196,"duration":638.1620000000112,"noteNumber":61,"velocity":30,"programNumber":0},{"time":420752.7907104196,"duration":1435.8645000000251,"noteNumber":44,"velocity":53,"programNumber":0},{"time":422188.6552104196,"duration":478.6215000000084,"noteNumber":44,"velocity":53,"programNumber":0},{"time":422029.1147104196,"duration":638.1620000000112,"noteNumber":64,"velocity":30,"programNumber":0},{"time":415009.33271041955,"duration":7657.944000000076,"noteNumber":37,"velocity":37,"programNumber":0},{"time":422667.2767104196,"duration":638.1620000000112,"noteNumber":56,"velocity":37,"programNumber":0},{"time":423305.43871041964,"duration":638.1620000000112,"noteNumber":63,"velocity":33,"programNumber":0},{"time":423943.60071041965,"duration":638.1620000000112,"noteNumber":66,"velocity":33,"programNumber":0},{"time":424581.76271041966,"duration":638.1620000000112,"noteNumber":56,"velocity":37,"programNumber":0},{"time":425219.92471041967,"duration":638.1620000000112,"noteNumber":63,"velocity":30,"programNumber":0},{"time":425858.0867104197,"duration":638.1620000000112,"noteNumber":66,"velocity":30,"programNumber":0},{"time":426496.2487104197,"duration":638.1620000000112,"noteNumber":56,"velocity":37,"programNumber":0},{"time":427134.4107104197,"duration":638.1620000000112,"noteNumber":63,"velocity":30,"programNumber":0},{"time":427772.5727104197,"duration":638.1620000000112,"noteNumber":66,"velocity":30,"programNumber":0},{"time":422667.2767104196,"duration":5743.458000000101,"noteNumber":44,"velocity":53,"programNumber":0},{"time":428410.7347104197,"duration":638.1620000000112,"noteNumber":56,"velocity":37,"programNumber":0},{"time":429048.89671041974,"duration":638.1620000000112,"noteNumber":63,"velocity":30,"programNumber":0},{"time":428410.7347104197,"duration":1435.8645000000251,"noteNumber":44,"velocity":53,"programNumber":0},{"time":429846.59921041975,"duration":478.6215000000084,"noteNumber":44,"velocity":53,"programNumber":0},{"time":429687.05871041975,"duration":638.1620000000112,"noteNumber":66,"velocity":30,"programNumber":0},{"time":422667.2767104196,"duration":7657.944000000134,"noteNumber":36,"velocity":37,"programNumber":0},{"time":430325.22071041976,"duration":638.1620000000112,"noteNumber":56,"velocity":37,"programNumber":0},{"time":430963.38271041977,"duration":638.1620000000112,"noteNumber":64,"velocity":35,"programNumber":0},{"time":431601.5447104198,"duration":638.1620000000112,"noteNumber":61,"velocity":40,"programNumber":0},{"time":432239.7067104198,"duration":638.1620000000112,"noteNumber":68,"velocity":45,"programNumber":0},{"time":432877.8687104198,"duration":638.1620000000112,"noteNumber":64,"velocity":48,"programNumber":0},{"time":433516.0307104198,"duration":638.1620000000112,"noteNumber":73,"velocity":50,"programNumber":0},{"time":434154.1927104198,"duration":638.1620000000112,"noteNumber":68,"velocity":48,"programNumber":0},{"time":434792.35471041984,"duration":638.1620000000112,"noteNumber":76,"velocity":53,"programNumber":0},{"time":435430.51671041985,"duration":638.1620000000112,"noteNumber":73,"velocity":60,"programNumber":0},{"time":430325.22071041976,"duration":5743.458000000101,"noteNumber":44,"velocity":53,"programNumber":0},{"time":436068.67871041986,"duration":638.1620000000112,"noteNumber":80,"velocity":62,"programNumber":0},{"time":436706.84071041987,"duration":638.1620000000112,"noteNumber":76,"velocity":65,"programNumber":0},{"time":436068.67871041986,"duration":1435.8645000000251,"noteNumber":44,"velocity":53,"programNumber":0},{"time":437504.5432104199,"duration":478.6215000000084,"noteNumber":44,"velocity":60,"programNumber":0},{"time":437345.0027104199,"duration":638.1620000000112,"noteNumber":73,"velocity":71,"programNumber":0},{"time":430325.22071041976,"duration":7657.944000000134,"noteNumber":37,"velocity":37,"programNumber":0},{"time":437983.1647104199,"duration":638.1620000000112,"noteNumber":72,"velocity":75,"programNumber":0},{"time":438621.3267104199,"duration":638.1620000000112,"noteNumber":75,"velocity":75,"programNumber":0},{"time":439259.4887104199,"duration":638.1620000000112,"noteNumber":69,"velocity":75,"programNumber":0},{"time":439897.6507104199,"duration":638.1620000000112,"noteNumber":72,"velocity":70,"programNumber":0},{"time":440535.81271041994,"duration":638.1620000000112,"noteNumber":66,"velocity":65,"programNumber":0},{"time":441173.97471041995,"duration":638.1620000000112,"noteNumber":69,"velocity":63,"programNumber":0},{"time":441812.13671041996,"duration":638.1620000000112,"noteNumber":63,"velocity":61,"programNumber":0},{"time":442450.29871042,"duration":638.1620000000112,"noteNumber":66,"velocity":57,"programNumber":0},{"time":437983.1647104199,"duration":5743.458000000101,"noteNumber":44,"velocity":63,"programNumber":0},{"time":443088.46071042,"duration":1276.3240000000224,"noteNumber":57,"velocity":52,"programNumber":0},{"time":444364.78471042,"duration":638.1620000000112,"noteNumber":56,"velocity":47,"programNumber":0},{"time":443726.62271042,"duration":1435.8645000000251,"noteNumber":44,"velocity":62,"programNumber":0},{"time":445162.48721042,"duration":478.6215000000084,"noteNumber":44,"velocity":60,"programNumber":0},{"time":445002.94671042,"duration":638.1620000000112,"noteNumber":54,"velocity":47,"programNumber":0},{"time":437983.1647104199,"duration":7657.944000000134,"noteNumber":32,"velocity":37,"programNumber":0},{"time":443726.62271042,"duration":1914.4860000000335,"noteNumber":60,"velocity":50,"programNumber":0},{"time":445641.10871042,"duration":638.161999999953,"noteNumber":61,"velocity":42,"programNumber":0},{"time":445641.10871042,"duration":638.161999999953,"noteNumber":52,"velocity":42,"programNumber":0},{"time":446279.27071042,"duration":638.1620000000112,"noteNumber":64,"velocity":40,"programNumber":0},{"time":446917.43271042,"duration":638.1620000000112,"noteNumber":61,"velocity":45,"programNumber":0},{"time":447555.59471042,"duration":638.1620000000112,"noteNumber":68,"velocity":48,"programNumber":0},{"time":448193.75671042,"duration":638.1620000000112,"noteNumber":64,"velocity":53,"programNumber":0},{"time":448831.91871042,"duration":638.1620000000112,"noteNumber":73,"velocity":60,"programNumber":0},{"time":449470.08071042004,"duration":638.1620000000112,"noteNumber":68,"velocity":61,"programNumber":0},{"time":450108.24271042005,"duration":638.1620000000112,"noteNumber":76,"velocity":63,"programNumber":0},{"time":450746.40471042006,"duration":638.1620000000112,"noteNumber":73,"velocity":65,"programNumber":0},{"time":445641.10871042,"duration":5743.458000000042,"noteNumber":44,"velocity":53,"programNumber":0},{"time":451384.56671042007,"duration":638.1620000000112,"noteNumber":80,"velocity":67,"programNumber":0},{"time":452022.7287104201,"duration":638.1620000000112,"noteNumber":76,"velocity":68,"programNumber":0},{"time":451384.56671042007,"duration":1435.8645000000251,"noteNumber":44,"velocity":53,"programNumber":0},{"time":452820.4312104201,"duration":478.6215000000084,"noteNumber":44,"velocity":56,"programNumber":0},{"time":452660.8907104201,"duration":638.1620000000112,"noteNumber":73,"velocity":70,"programNumber":0},{"time":445641.10871042,"duration":7657.944000000076,"noteNumber":37,"velocity":37,"programNumber":0},{"time":453299.0527104201,"duration":638.1620000000112,"noteNumber":72,"velocity":75,"programNumber":0},{"time":453937.2147104201,"duration":638.1620000000112,"noteNumber":75,"velocity":68,"programNumber":0},{"time":454575.3767104201,"duration":638.1620000000112,"noteNumber":69,"velocity":65,"programNumber":0},{"time":455213.53871042014,"duration":638.1620000000112,"noteNumber":72,"velocity":61,"programNumber":0},{"time":455851.70071042015,"duration":638.1620000000112,"noteNumber":66,"velocity":60,"programNumber":0},{"time":456489.86271042016,"duration":638.1620000000112,"noteNumber":69,"velocity":53,"programNumber":0},{"time":457128.02471042017,"duration":638.1620000000112,"noteNumber":63,"velocity":50,"programNumber":0},{"time":457766.1867104202,"duration":638.1620000000112,"noteNumber":66,"velocity":48,"programNumber":0},{"time":453299.0527104201,"duration":5743.458000000101,"noteNumber":44,"velocity":63,"programNumber":0},{"time":458404.3487104202,"duration":1276.3240000000224,"noteNumber":57,"velocity":46,"programNumber":0},{"time":459680.6727104202,"duration":638.1620000000112,"noteNumber":56,"velocity":37,"programNumber":0},{"time":459042.5107104202,"duration":1435.8645000000251,"noteNumber":44,"velocity":61,"programNumber":0},{"time":460478.3752104202,"duration":478.6215000000084,"noteNumber":44,"velocity":53,"programNumber":0},{"time":460318.8347104202,"duration":638.1620000000112,"noteNumber":54,"velocity":35,"programNumber":0},{"time":453299.0527104201,"duration":7657.944000000134,"noteNumber":32,"velocity":37,"programNumber":0},{"time":459042.5107104202,"duration":1914.4860000000335,"noteNumber":60,"velocity":41,"programNumber":0},{"time":460956.99671042024,"duration":638.161999999953,"noteNumber":52,"velocity":50,"programNumber":0},{"time":460956.99671042024,"duration":638.161999999953,"noteNumber":61,"velocity":50,"programNumber":0},{"time":461595.1587104202,"duration":638.1620000000112,"noteNumber":56,"velocity":50,"programNumber":0},{"time":462233.3207104202,"duration":638.1620000000112,"noteNumber":61,"velocity":50,"programNumber":0},{"time":462871.4827104202,"duration":638.1620000000112,"noteNumber":64,"velocity":48,"programNumber":0},{"time":463509.6447104202,"duration":638.1620000000112,"noteNumber":61,"velocity":48,"programNumber":0},{"time":464147.80671042023,"duration":638.1620000000112,"noteNumber":56,"velocity":47,"programNumber":0},{"time":460956.99671042024,"duration":3828.972000000009,"noteNumber":44,"velocity":53,"programNumber":0},{"time":465424.13071042026,"duration":638.1620000000112,"noteNumber":52,"velocity":47,"programNumber":0},{"time":466062.29271042027,"duration":638.1620000000112,"noteNumber":56,"velocity":47,"programNumber":0},{"time":466700.4547104203,"duration":638.1620000000112,"noteNumber":61,"velocity":47,"programNumber":0},{"time":467338.6167104203,"duration":638.1620000000112,"noteNumber":56,"velocity":46,"programNumber":0},{"time":467976.7787104203,"duration":638.1620000000112,"noteNumber":52,"velocity":46,"programNumber":0},{"time":464785.96871042025,"duration":3828.972000000067,"noteNumber":49,"velocity":53,"programNumber":0},{"time":469253.1027104203,"duration":638.1620000000112,"noteNumber":49,"velocity":45,"programNumber":0},{"time":469811.49446042033,"duration":638.1620000000112,"noteNumber":52,"velocity":45,"programNumber":0},{"time":470529.42671042035,"duration":638.1620000000112,"noteNumber":56,"velocity":42,"programNumber":0},{"time":471167.58871042036,"duration":638.1620000000112,"noteNumber":52,"velocity":42,"programNumber":0},{"time":468614.9407104203,"duration":3809.029437500052,"noteNumber":44,"velocity":50,"programNumber":0},{"time":471805.75071042037,"duration":638.1620000000112,"noteNumber":49,"velocity":41,"programNumber":0},{"time":460956.99671042024,"duration":11486.916000000143,"noteNumber":37,"velocity":37,"programNumber":0},{"time":472443.9127104204,"duration":638.1620000000112,"noteNumber":44,"velocity":41,"programNumber":0},{"time":473082.0747104204,"duration":638.1620000000112,"noteNumber":49,"velocity":41,"programNumber":0},{"time":473720.2367104204,"duration":638.1620000000112,"noteNumber":44,"velocity":40,"programNumber":0},{"time":474358.3987104204,"duration":638.1620000000112,"noteNumber":40,"velocity":40,"programNumber":0},{"time":474996.5607104204,"duration":638.1620000000112,"noteNumber":44,"velocity":38,"programNumber":0},{"time":475634.72271042044,"duration":638.1620000000112,"noteNumber":40,"velocity":37,"programNumber":0},{"time":476272.88471042045,"duration":3828.972000000009,"noteNumber":37,"velocity":38,"programNumber":0},{"time":480101.85671042046,"duration":3828.972000000009,"noteNumber":37,"velocity":26,"programNumber":0},{"time":480101.85671042046,"duration":3828.972000000009,"noteNumber":52,"velocity":31,"programNumber":0},{"time":480101.85671042046,"duration":3828.972000000009,"noteNumber":56,"velocity":31,"programNumber":0},{"time":480101.85671042046,"duration":3828.972000000009,"noteNumber":61,"velocity":37,"programNumber":0},{"time":480101.85671042046,"duration":3828.972000000009,"noteNumber":49,"velocity":31,"programNumber":0},{"time":480101.85671042046,"duration":3828.972000000009,"noteNumber":44,"velocity":26,"programNumber":0},{"time":483930.82871042046,"duration":7657.9439999999595,"noteNumber":37,"velocity":26,"programNumber":0},{"time":483930.82871042046,"duration":7657.9439999999595,"noteNumber":52,"velocity":31,"programNumber":0},{"time":483930.82871042046,"duration":7657.9439999999595,"noteNumber":56,"velocity":31,"programNumber":0},{"time":483930.82871042046,"duration":7657.9439999999595,"noteNumber":61,"velocity":37,"programNumber":0},{"time":483930.82871042046,"duration":7657.9439999999595,"noteNumber":49,"velocity":31,"programNumber":0},{"time":483930.82871042046,"duration":7657.9439999999595,"noteNumber":44,"velocity":26,"programNumber":0}]]}