{"tracks":[[{"time":0,"duration":480.37637500000005,"noteNumber":48,"velocity":59,"programNumber":0},{"time":0,"duration":480.37637500000005,"noteNumber":55,"velocity":59,"programNumber":0},{"time":0,"duration":480.37637500000005,"noteNumber":67,"velocity":69,"programNumber":0},{"time":0,"duration":480.37637500000005,"noteNumber":72,"velocity":82,"programNumber":0},{"time":0,"duration":480.37637500000005,"noteNumber":63,"velocity":69,"programNumber":0},{"time":0,"duration":480.37637500000005,"noteNumber":51,"velocity":59,"programNumber":0},{"time":0,"duration":480.37637500000005,"noteNumber":60,"velocity":70,"programNumber":0},{"time":562.2006250000001,"duration":79.57550000000003,"noteNumber":67,"velocity":70,"programNumber":0},{"time":641.7761250000001,"duration":256.67325000000005,"noteNumber":75,"velocity":78,"programNumber":0},{"time":898.4493750000001,"duration":85.83699999999999,"noteNumber":72,"velocity":70,"programNumber":0},{"time":984.2863750000001,"duration":289.70550000000003,"noteNumber":79,"velocity":79,"programNumber":0},{"time":1273.9918750000002,"duration":87.8477499999999,"noteNumber":75,"velocity":70,"programNumber":0},{"time":1361.839625,"duration":305.4157500000001,"noteNumber":84,"velocity":79,"programNumber":0},{"time":1667.2553750000002,"duration":87.8477499999999,"noteNumber":79,"velocity":70,"programNumber":0},{"time":1755.103125,"duration":85.50804375000007,"noteNumber":87,"velocity":84,"programNumber":0},{"time":2087.86366875,"duration":85.00500000000011,"noteNumber":87,"velocity":84,"programNumber":0},{"time":2761.6724687500005,"duration":170.56100000000015,"noteNumber":63,"velocity":41,"programNumber":0},{"time":2761.6724687500005,"duration":170.56100000000015,"noteNumber":67,"velocity":39,"programNumber":0},{"time":2761.6724687500005,"duration":170.56100000000015,"noteNumber":72,"velocity":46,"programNumber":0},{"time":2761.6724687500005,"duration":170.56100000000015,"noteNumber":60,"velocity":34,"programNumber":0},{"time":3105.0344687500005,"duration":705.1440000000002,"noteNumber":60,"velocity":34,"programNumber":0},{"time":3105.0344687500005,"duration":705.1440000000002,"noteNumber":67,"velocity":42,"programNumber":0},{"time":3105.0344687500005,"duration":705.1440000000002,"noteNumber":72,"velocity":50,"programNumber":0},{"time":3105.0344687500005,"duration":705.1440000000002,"noteNumber":63,"velocity":41,"programNumber":0},{"time":3810.178468750001,"duration":334.5087500000004,"noteNumber":65,"velocity":38,"programNumber":0},{"time":3810.178468750001,"duration":334.5087500000004,"noteNumber":67,"velocity":39,"programNumber":0},{"time":3810.178468750001,"duration":334.5087500000004,"noteNumber":62,"velocity":32,"programNumber":0},{"time":3817.7786354166674,"duration":334.0383958333341,"noteNumber":71,"velocity":46,"programNumber":0},{"time":4151.8170312500015,"duration":535.6407499999996,"noteNumber":50,"velocity":59,"programNumber":0},{"time":4151.8170312500015,"duration":535.6407499999996,"noteNumber":68,"velocity":69,"programNumber":0},{"time":4151.8170312500015,"duration":535.6407499999996,"noteNumber":59,"velocity":59,"programNumber":0},{"time":4151.8170312500015,"duration":535.6407499999996,"noteNumber":65,"velocity":69,"programNumber":0},{"time":4151.8170312500015,"duration":535.6407499999996,"noteNumber":71,"velocity":82,"programNumber":0},{"time":4151.8170312500015,"duration":535.6407499999996,"noteNumber":53,"velocity":59,"programNumber":0},{"time":4151.8170312500015,"duration":535.6407499999996,"noteNumber":56,"velocity":59,"programNumber":0},{"time":4151.8170312500015,"duration":535.6407499999996,"noteNumber":62,"velocity":70,"programNumber":0},{"time":4773.015531250001,"duration":85.28049999999985,"noteNumber":71,"velocity":70,"programNumber":0},{"time":4858.296031250001,"duration":258.3532500000001,"noteNumber":77,"velocity":78,"programNumber":0},{"time":5116.649281250001,"duration":86.9717499999997,"noteNumber":74,"velocity":70,"programNumber":0},{"time":5203.621031250001,"duration":262.66650000000027,"noteNumber":83,"velocity":79,"programNumber":0},{"time":5466.287531250001,"duration":88.43825000000015,"noteNumber":77,"velocity":70,"programNumber":0},{"time":5554.725781250001,"duration":267.1095000000005,"noteNumber":86,"velocity":79,"programNumber":0},{"time":5821.835281250002,"duration":90.26350000000002,"noteNumber":83,"velocity":70,"programNumber":0},{"time":5912.098781250002,"duration":91.72711250000066,"noteNumber":89,"velocity":84,"programNumber":0},{"time":6260.499143750002,"duration":85.28049999999985,"noteNumber":89,"velocity":84,"programNumber":0},{"time":6945.866402083335,"duration":176.8765000000003,"noteNumber":65,"velocity":34,"programNumber":0},{"time":6945.866402083335,"duration":176.8765000000003,"noteNumber":62,"velocity":34,"programNumber":0},{"time":6945.866402083335,"duration":176.8765000000003,"noteNumber":71,"velocity":39,"programNumber":0},{"time":6945.866402083335,"duration":176.8765000000003,"noteNumber":74,"velocity":46,"programNumber":0},{"time":6945.866402083335,"duration":176.8765000000003,"noteNumber":68,"velocity":41,"programNumber":0},{"time":7303.269902083335,"duration":643.9200000000001,"noteNumber":62,"velocity":34,"programNumber":0},{"time":7303.269902083335,"duration":643.9200000000001,"noteNumber":68,"velocity":41,"programNumber":0},{"time":7303.269902083335,"duration":643.9200000000001,"noteNumber":71,"velocity":42,"programNumber":0},{"time":7303.269902083335,"duration":643.9200000000001,"noteNumber":74,"velocity":50,"programNumber":0},{"time":7303.269902083335,"duration":643.9200000000001,"noteNumber":65,"velocity":34,"programNumber":0},{"time":7947.189902083335,"duration":240.01953125,"noteNumber":72,"velocity":46,"programNumber":0},{"time":8187.209433333335,"duration":40.91212500000074,"noteNumber":72,"velocity":45,"programNumber":0},{"time":8228.121558333336,"duration":41.69212499999958,"noteNumber":75,"velocity":48,"programNumber":0},{"time":7947.189902083335,"duration":322.6237812500003,"noteNumber":63,"velocity":32,"programNumber":0},{"time":7947.189902083335,"duration":322.6237812500003,"noteNumber":67,"velocity":38,"programNumber":0},{"time":8269.813683333336,"duration":504.0543749999997,"noteNumber":79,"velocity":53,"programNumber":0},{"time":8773.868058333335,"duration":170.5609999999997,"noteNumber":77,"velocity":41,"programNumber":0},{"time":8944.429058333335,"duration":328.12398333333476,"noteNumber":51,"velocity":29,"programNumber":0},{"time":8944.429058333335,"duration":328.12398333333476,"noteNumber":75,"velocity":51,"programNumber":0},{"time":8944.429058333335,"duration":328.12398333333476,"noteNumber":60,"velocity":35,"programNumber":0},{"time":8944.429058333335,"duration":328.12398333333476,"noteNumber":55,"velocity":29,"programNumber":0},{"time":9272.55304166667,"duration":659.9840000000004,"noteNumber":59,"velocity":39,"programNumber":0},{"time":9272.55304166667,"duration":659.9840000000004,"noteNumber":74,"velocity":47,"programNumber":0},{"time":9272.55304166667,"duration":659.9840000000004,"noteNumber":53,"velocity":33,"programNumber":0},{"time":9272.55304166667,"duration":659.9840000000004,"noteNumber":56,"velocity":33,"programNumber":0},{"time":9932.53704166667,"duration":248.77952083333366,"noteNumber":72,"velocity":39,"programNumber":0},{"time":10181.316562500004,"duration":27.24791666666715,"noteNumber":67,"velocity":27,"programNumber":0},{"time":10208.564479166671,"duration":27.70083333333423,"noteNumber":72,"velocity":45,"programNumber":0},{"time":10236.265312500005,"duration":28.519249999999374,"noteNumber":75,"velocity":48,"programNumber":0},{"time":9932.53704166667,"duration":332.2475208333344,"noteNumber":51,"velocity":28,"programNumber":0},{"time":9932.53704166667,"duration":332.2475208333344,"noteNumber":55,"velocity":28,"programNumber":0},{"time":9932.53704166667,"duration":332.2475208333344,"noteNumber":60,"velocity":34,"programNumber":0},{"time":10264.784562500005,"duration":517.7147499999992,"noteNumber":79,"velocity":53,"programNumber":0},{"time":10782.499312500004,"duration":157.0679999999993,"noteNumber":77,"velocity":41,"programNumber":0},{"time":10939.567312500003,"duration":328.8148249999995,"noteNumber":67,"velocity":35,"programNumber":0},{"time":10939.567312500003,"duration":328.8148249999995,"noteNumber":72,"velocity":43,"programNumber":0},{"time":10939.567312500003,"duration":328.8148249999995,"noteNumber":75,"velocity":51,"programNumber":0},{"time":10939.567312500003,"duration":328.8148249999995,"noteNumber":63,"velocity":29,"programNumber":0},{"time":11268.382137500003,"duration":642.1419999999998,"noteNumber":65,"velocity":33,"programNumber":0},{"time":11268.382137500003,"duration":642.1419999999998,"noteNumber":71,"velocity":39,"programNumber":0},{"time":11268.382137500003,"duration":642.1419999999998,"noteNumber":74,"velocity":47,"programNumber":0},{"time":11268.382137500003,"duration":642.1419999999998,"noteNumber":68,"velocity":39,"programNumber":0},{"time":11910.524137500002,"duration":243.92066666666688,"noteNumber":72,"velocity":39,"programNumber":0},{"time":12154.44480416667,"duration":26.881750000000466,"noteNumber":67,"velocity":60,"programNumber":0},{"time":12181.32655416667,"duration":27.027000000000044,"noteNumber":72,"velocity":63,"programNumber":0},{"time":12208.35355416667,"duration":27.173916666666628,"noteNumber":75,"velocity":69,"programNumber":0},{"time":11910.524137500002,"duration":325.003333333334,"noteNumber":63,"velocity":28,"programNumber":0},{"time":12235.527470833336,"duration":500.0498750000006,"noteNumber":79,"velocity":81,"programNumber":0},{"time":12235.527470833336,"duration":500.0498750000006,"noteNumber":67,"velocity":69,"programNumber":0},{"time":12735.577345833337,"duration":166.2420000000002,"noteNumber":65,"velocity":51,"programNumber":0},{"time":12735.577345833337,"duration":166.2420000000002,"noteNumber":77,"velocity":61,"programNumber":0},{"time":12901.819345833337,"duration":330.8985375000011,"noteNumber":51,"velocity":39,"programNumber":0},{"time":12901.819345833337,"duration":330.8985375000011,"noteNumber":55,"velocity":39,"programNumber":0},{"time":12901.819345833337,"duration":330.8985375000011,"noteNumber":60,"velocity":47,"programNumber":0},{"time":12901.819345833337,"duration":652.9045375000005,"noteNumber":63,"velocity":62,"programNumber":0},{"time":12901.819345833337,"duration":652.9045375000005,"noteNumber":75,"velocity":73,"programNumber":0},{"time":13554.723883333338,"duration":81.46650000000045,"noteNumber":62,"velocity":61,"programNumber":0},{"time":13554.723883333338,"duration":81.46650000000045,"noteNumber":74,"velocity":72,"programNumber":0},{"time":13232.717883333338,"duration":650.4812500000007,"noteNumber":56,"velocity":45,"programNumber":0},{"time":13232.717883333338,"duration":650.4812500000007,"noteNumber":59,"velocity":53,"programNumber":0},{"time":13232.717883333338,"duration":650.4812500000007,"noteNumber":53,"velocity":45,"programNumber":0},{"time":13883.199133333339,"duration":330.2267625000004,"noteNumber":51,"velocity":39,"programNumber":0},{"time":13883.199133333339,"duration":330.2267625000004,"noteNumber":55,"velocity":46,"programNumber":0},{"time":13883.199133333339,"duration":654.2667541666688,"noteNumber":60,"velocity":63,"programNumber":0},{"time":13883.199133333339,"duration":654.2667541666688,"noteNumber":72,"velocity":75,"programNumber":0},{"time":14537.465887500008,"duration":92.55762499999946,"noteNumber":71,"velocity":75,"programNumber":0},{"time":14537.465887500008,"duration":92.55762499999946,"noteNumber":59,"velocity":63,"programNumber":0},{"time":14213.42589583334,"duration":665.9606166666672,"noteNumber":50,"velocity":46,"programNumber":0},{"time":14213.42589583334,"duration":665.9606166666672,"noteNumber":53,"velocity":56,"programNumber":0},{"time":14879.386512500007,"duration":322.0043333333342,"noteNumber":48,"velocity":41,"programNumber":0},{"time":14879.386512500007,"duration":322.0043333333342,"noteNumber":51,"velocity":49,"programNumber":0},{"time":15201.39084583334,"duration":327.5523750000011,"noteNumber":47,"velocity":55,"programNumber":0},{"time":14879.386512500007,"duration":649.5567083333353,"noteNumber":56,"velocity":62,"programNumber":0},{"time":14879.386512500007,"duration":649.5567083333353,"noteNumber":68,"velocity":74,"programNumber":0},{"time":15201.39084583334,"duration":327.5523750000011,"noteNumber":50,"velocity":47,"programNumber":0},{"time":15528.943220833342,"duration":163.07495000000017,"noteNumber":67,"velocity":67,"programNumber":0},{"time":15528.943220833342,"duration":163.07495000000017,"noteNumber":55,"velocity":57,"programNumber":0},{"time":16501.95417083334,"duration":107.52699999999822,"noteNumber":59,"velocity":42,"programNumber":0},{"time":16609.48117083334,"duration":106.10066666666535,"noteNumber":62,"velocity":35,"programNumber":0},{"time":16715.581837500005,"duration":111.5235291666686,"noteNumber":65,"velocity":35,"programNumber":0},{"time":16827.105366666674,"duration":112.2000208333302,"noteNumber":68,"velocity":43,"programNumber":0},{"time":16939.305387500004,"duration":111.32883749999746,"noteNumber":67,"velocity":36,"programNumber":0},{"time":17050.634225,"duration":111.2042999999976,"noteNumber":65,"velocity":36,"programNumber":0},{"time":16827.105366666674,"duration":334.73315833332526,"noteNumber":50,"velocity":28,"programNumber":0},{"time":16827.105366666674,"duration":334.73315833332526,"noteNumber":56,"velocity":34,"programNumber":0},{"time":16827.105366666674,"duration":334.73315833332526,"noteNumber":53,"velocity":28,"programNumber":0},{"time":16827.105366666674,"duration":334.73315833332526,"noteNumber":47,"velocity":28,"programNumber":0},{"time":17161.838525,"duration":83.38424999999916,"noteNumber":48,"velocity":28,"programNumber":0},{"time":17161.838525,"duration":83.38424999999916,"noteNumber":63,"velocity":43,"programNumber":0},{"time":17161.838525,"duration":83.38424999999916,"noteNumber":55,"velocity":34,"programNumber":0},{"time":17161.838525,"duration":83.38424999999916,"noteNumber":51,"velocity":28,"programNumber":0},{"time":18499.961525,"duration":114.82366666666712,"noteNumber":53,"velocity":42,"programNumber":0},{"time":18614.785191666666,"duration":109.58899999999994,"noteNumber":56,"velocity":35,"programNumber":0},{"time":18724.374191666666,"duration":110.79766250000102,"noteNumber":62,"velocity":35,"programNumber":0},{"time":18835.171854166667,"duration":110.72623750000275,"noteNumber":65,"velocity":43,"programNumber":0},{"time":18945.89809166667,"duration":113.37853333333624,"noteNumber":63,"velocity":36,"programNumber":0},{"time":19059.276625000006,"duration":112.46123749999606,"noteNumber":62,"velocity":36,"programNumber":0},{"time":18835.171854166667,"duration":336.56600833333505,"noteNumber":50,"velocity":34,"programNumber":0},{"time":18835.171854166667,"duration":336.56600833333505,"noteNumber":44,"velocity":28,"programNumber":0},{"time":18835.171854166667,"duration":336.56600833333505,"noteNumber":41,"velocity":28,"programNumber":0},{"time":19171.737862500002,"duration":83.12099999999919,"noteNumber":51,"velocity":34,"programNumber":0},{"time":19171.737862500002,"duration":83.12099999999919,"noteNumber":60,"velocity":43,"programNumber":0},{"time":19171.737862500002,"duration":83.12099999999919,"noteNumber":48,"velocity":28,"programNumber":0},{"time":19171.737862500002,"duration":83.12099999999919,"noteNumber":43,"velocity":28,"programNumber":0},{"time":20599.674499999986,"duration":151.13031458333353,"noteNumber":55,"velocity":66,"programNumber":0},{"time":20750.80481458332,"duration":109.09899999999834,"noteNumber":59,"velocity":69,"programNumber":0},{"time":20859.90381458332,"duration":117.80743333333157,"noteNumber":62,"velocity":72,"programNumber":0},{"time":20977.71124791665,"duration":114.33153750000201,"noteNumber":65,"velocity":75,"programNumber":0},{"time":20977.71124791665,"duration":174.65465416666848,"noteNumber":31,"velocity":73,"programNumber":0},{"time":20977.71124791665,"duration":174.65465416666848,"noteNumber":43,"velocity":73,"programNumber":0},{"time":21092.042785416652,"duration":119.10203750000437,"noteNumber":62,"velocity":67,"programNumber":0},{"time":21211.144822916656,"duration":112.38224999999875,"noteNumber":59,"velocity":67,"programNumber":0},{"time":21323.527072916655,"duration":521.0336812499991,"noteNumber":39,"velocity":67,"programNumber":0},{"time":21323.527072916655,"duration":521.0336812499991,"noteNumber":36,"velocity":67,"programNumber":0},{"time":21323.527072916655,"duration":521.0336812499991,"noteNumber":51,"velocity":79,"programNumber":0},{"time":21323.527072916655,"duration":521.0336812499991,"noteNumber":60,"velocity":94,"programNumber":0},{"time":21323.527072916655,"duration":521.0336812499991,"noteNumber":55,"velocity":79,"programNumber":0},{"time":21323.527072916655,"duration":521.0336812499991,"noteNumber":48,"velocity":80,"programNumber":0},{"time":21323.527072916655,"duration":521.0336812499991,"noteNumber":43,"velocity":67,"programNumber":0},{"time":21933.899754166654,"duration":89.64325000000099,"noteNumber":60,"velocity":70,"programNumber":0},{"time":22023.543004166655,"duration":272.66100000000006,"noteNumber":67,"velocity":78,"programNumber":0},{"time":22296.204004166655,"duration":91.83850000000166,"noteNumber":63,"velocity":70,"programNumber":0},{"time":22388.042504166657,"duration":255.84149999999863,"noteNumber":72,"velocity":85,"programNumber":0},{"time":22643.884004166655,"duration":85.83699999999953,"noteNumber":67,"velocity":72,"programNumber":0},{"time":22729.721004166655,"duration":259.2014999999992,"noteNumber":75,"velocity":80,"programNumber":0},{"time":22988.922504166654,"duration":87.55549999999857,"noteNumber":72,"velocity":83,"programNumber":0},{"time":23076.478004166653,"duration":90.51986875000148,"noteNumber":51,"velocity":58,"programNumber":0},{"time":23076.478004166653,"duration":90.51986875000148,"noteNumber":48,"velocity":58,"programNumber":0},{"time":23076.478004166653,"duration":90.51986875000148,"noteNumber":79,"velocity":96,"programNumber":0},{"time":23076.478004166653,"duration":90.51986875000148,"noteNumber":67,"velocity":81,"programNumber":0},{"time":23076.478004166653,"duration":90.51986875000148,"noteNumber":55,"velocity":69,"programNumber":0},{"time":23423.671122916654,"duration":86.40049999999974,"noteNumber":55,"velocity":69,"programNumber":0},{"time":23423.671122916654,"duration":86.40049999999974,"noteNumber":47,"velocity":58,"programNumber":0},{"time":23423.671122916654,"duration":86.40049999999974,"noteNumber":79,"velocity":96,"programNumber":0},{"time":23423.671122916654,"duration":86.40049999999974,"noteNumber":67,"velocity":81,"programNumber":0},{"time":23423.671122916654,"duration":86.40049999999974,"noteNumber":50,"velocity":58,"programNumber":0},{"time":24040.701122916653,"duration":89.29614583333387,"noteNumber":59,"velocity":70,"programNumber":0},{"time":24129.997268749987,"duration":271.7227500000008,"noteNumber":67,"velocity":78,"programNumber":0},{"time":24401.720018749988,"duration":91.20200000000114,"noteNumber":62,"velocity":70,"programNumber":0},{"time":24492.92201874999,"duration":255.84149999999863,"noteNumber":71,"velocity":85,"programNumber":0},{"time":24748.763518749987,"duration":85.83699999999953,"noteNumber":67,"velocity":74,"programNumber":0},{"time":24834.600518749987,"duration":259.2014999999992,"noteNumber":74,"velocity":86,"programNumber":0},{"time":25093.802018749986,"duration":87.55549999999857,"noteNumber":71,"velocity":83,"programNumber":0},{"time":25181.357518749985,"duration":90.51986875000148,"noteNumber":50,"velocity":58,"programNumber":0},{"time":25181.357518749985,"duration":90.51986875000148,"noteNumber":55,"velocity":69,"programNumber":0},{"time":25181.357518749985,"duration":90.51986875000148,"noteNumber":79,"velocity":96,"programNumber":0},{"time":25181.357518749985,"duration":90.51986875000148,"noteNumber":67,"velocity":81,"programNumber":0},{"time":25181.357518749985,"duration":90.51986875000148,"noteNumber":47,"velocity":58,"programNumber":0},{"time":25509.344637499988,"duration":79.3650000000016,"noteNumber":51,"velocity":58,"programNumber":0},{"time":25509.344637499988,"duration":79.3650000000016,"noteNumber":55,"velocity":69,"programNumber":0},{"time":25509.344637499988,"duration":79.3650000000016,"noteNumber":79,"velocity":96,"programNumber":0},{"time":25509.344637499988,"duration":79.3650000000016,"noteNumber":67,"velocity":81,"programNumber":0},{"time":25509.344637499988,"duration":79.3650000000016,"noteNumber":48,"velocity":58,"programNumber":0},{"time":26066.16263749999,"duration":82.76123333333453,"noteNumber":63,"velocity":70,"programNumber":0},{"time":26148.923870833325,"duration":243.95550000000003,"noteNumber":67,"velocity":78,"programNumber":0},{"time":26392.879370833325,"duration":86.40049999999974,"noteNumber":63,"velocity":70,"programNumber":0},{"time":26479.279870833325,"duration":252.5535000000018,"noteNumber":72,"velocity":85,"programNumber":0},{"time":26731.833370833327,"duration":85.28050000000076,"noteNumber":67,"velocity":74,"programNumber":0},{"time":26817.113870833327,"duration":252.5535000000018,"noteNumber":75,"velocity":86,"programNumber":0},{"time":27069.66737083333,"duration":82.85925000000134,"noteNumber":72,"velocity":83,"programNumber":0},{"time":27152.52662083333,"duration":84.18449999999939,"noteNumber":55,"velocity":58,"programNumber":0},{"time":27152.52662083333,"duration":84.18449999999939,"noteNumber":60,"velocity":69,"programNumber":0},{"time":27152.52662083333,"duration":84.18449999999939,"noteNumber":51,"velocity":58,"programNumber":0},{"time":27152.52662083333,"duration":247.325499999999,"noteNumber":79,"velocity":90,"programNumber":0},{"time":27399.85212083333,"duration":84.18449999999939,"noteNumber":75,"velocity":83,"programNumber":0},{"time":27484.03662083333,"duration":82.85925000000134,"noteNumber":53,"velocity":58,"programNumber":0},{"time":27484.03662083333,"duration":82.85925000000134,"noteNumber":74,"velocity":96,"programNumber":0},{"time":27484.03662083333,"duration":82.85925000000134,"noteNumber":56,"velocity":58,"programNumber":0},{"time":27484.03662083333,"duration":82.85925000000134,"noteNumber":62,"velocity":69,"programNumber":0},{"time":27815.47362083333,"duration":82.85925000000134,"noteNumber":89,"velocity":96,"programNumber":0},{"time":28495.296370833334,"duration":81.96725000000151,"noteNumber":55,"velocity":58,"programNumber":0},{"time":28495.296370833334,"duration":81.96725000000151,"noteNumber":71,"velocity":96,"programNumber":0},{"time":28495.296370833334,"duration":81.96725000000151,"noteNumber":62,"velocity":69,"programNumber":0},{"time":28495.296370833334,"duration":81.96725000000151,"noteNumber":59,"velocity":58,"programNumber":0},{"time":28814.105370833335,"duration":80.42900000000009,"noteNumber":86,"velocity":96,"programNumber":0},{"time":29445.716120833335,"duration":83.38424999999916,"noteNumber":51,"velocity":58,"programNumber":0},{"time":29445.716120833335,"duration":83.38424999999916,"noteNumber":48,"velocity":58,"programNumber":0},{"time":29445.716120833335,"duration":83.38424999999916,"noteNumber":72,"velocity":96,"programNumber":0},{"time":29445.716120833335,"duration":83.38424999999916,"noteNumber":55,"velocity":58,"programNumber":0},{"time":29445.716120833335,"duration":83.38424999999916,"noteNumber":60,"velocity":69,"programNumber":0},{"time":29775.338120833334,"duration":82.19175000000178,"noteNumber":84,"velocity":96,"programNumber":0},{"time":33035.78207083333,"duration":320,"noteNumber":75,"velocity":45,"programNumber":0},{"time":32714.066070833334,"duration":641.7159999999967,"noteNumber":67,"velocity":50,"programNumber":0},{"time":32390.616070833334,"duration":965.1659999999974,"noteNumber":61,"velocity":50,"programNumber":0},{"time":33355.78207083333,"duration":646.6246541666624,"noteNumber":75,"velocity":50,"programNumber":0},{"time":31414.907620833335,"duration":2911.8231041666586,"noteNumber":63,"velocity":69,"programNumber":0},{"time":33355.78207083333,"duration":970.9486541666629,"noteNumber":60,"velocity":49,"programNumber":0},{"time":33355.78207083333,"duration":970.9486541666629,"noteNumber":68,"velocity":42,"programNumber":0},{"time":34002.40672499999,"duration":656.6760708333313,"noteNumber":75,"velocity":45,"programNumber":0},{"time":34659.082795833325,"duration":334.5970000000016,"noteNumber":77,"velocity":45,"programNumber":0},{"time":34326.730724999994,"duration":998.3860708333305,"noteNumber":58,"velocity":28,"programNumber":0},{"time":34326.730724999994,"duration":998.3860708333305,"noteNumber":67,"velocity":42,"programNumber":0},{"time":34326.730724999994,"duration":998.3860708333305,"noteNumber":61,"velocity":34,"programNumber":0},{"time":34993.679795833326,"duration":662.8481624999986,"noteNumber":73,"velocity":44,"programNumber":0},{"time":35656.527958333325,"duration":326.97499999999854,"noteNumber":71,"velocity":45,"programNumber":0},{"time":35983.50295833332,"duration":324.3551312500058,"noteNumber":72,"velocity":45,"programNumber":0},{"time":35325.116795833324,"duration":982.7412937500048,"noteNumber":68,"velocity":42,"programNumber":0},{"time":35325.116795833324,"duration":982.7412937500048,"noteNumber":56,"velocity":28,"programNumber":0},{"time":35325.116795833324,"duration":982.7412937500048,"noteNumber":63,"velocity":33,"programNumber":0},{"time":36958.26908958333,"duration":329.34500000000116,"noteNumber":84,"velocity":45,"programNumber":0},{"time":36632.18208958333,"duration":655.4320000000007,"noteNumber":76,"velocity":50,"programNumber":0},{"time":36307.85808958333,"duration":979.7560000000012,"noteNumber":70,"velocity":50,"programNumber":0},{"time":37287.61408958333,"duration":659.0544124999942,"noteNumber":84,"velocity":50,"programNumber":0},{"time":36307.85808958333,"duration":1965.785412499994,"noteNumber":72,"velocity":60,"programNumber":0},{"time":37287.61408958333,"duration":986.0294124999928,"noteNumber":68,"velocity":49,"programNumber":0},{"time":37287.61408958333,"duration":986.0294124999928,"noteNumber":77,"velocity":42,"programNumber":0},{"time":37946.668502083325,"duration":645.5452229166694,"noteNumber":84,"velocity":45,"programNumber":0},{"time":38592.213724999994,"duration":353.9820000000036,"noteNumber":85,"velocity":45,"programNumber":0},{"time":38273.64350208332,"duration":999.527222916673,"noteNumber":70,"velocity":34,"programNumber":0},{"time":38273.64350208332,"duration":999.527222916673,"noteNumber":76,"velocity":42,"programNumber":0},{"time":38273.64350208332,"duration":999.527222916673,"noteNumber":67,"velocity":28,"programNumber":0},{"time":38946.195725,"duration":650.7582124999972,"noteNumber":82,"velocity":44,"programNumber":0},{"time":39596.953937499995,"duration":326.97499999999854,"noteNumber":79,"velocity":45,"programNumber":0},{"time":39923.92893749999,"duration":328.7669999999998,"noteNumber":80,"velocity":45,"programNumber":0},{"time":39273.170724999996,"duration":979.525212499997,"noteNumber":72,"velocity":42,"programNumber":0},{"time":39273.170724999996,"duration":979.525212499997,"noteNumber":65,"velocity":28,"programNumber":0},{"time":39273.170724999996,"duration":979.525212499997,"noteNumber":68,"velocity":33,"programNumber":0},{"time":40901.34893749999,"duration":321.71600000000035,"noteNumber":80,"velocity":45,"programNumber":0},{"time":40577.898937499995,"duration":645.1659999999974,"noteNumber":72,"velocity":50,"programNumber":0},{"time":40252.69593749999,"duration":970.3689999999988,"noteNumber":66,"velocity":50,"programNumber":0},{"time":41223.06493749999,"duration":672.4328208333318,"noteNumber":80,"velocity":50,"programNumber":0},{"time":40252.69593749999,"duration":1987.2728208333283,"noteNumber":68,"velocity":60,"programNumber":0},{"time":41223.06493749999,"duration":1016.9038208333295,"noteNumber":65,"velocity":49,"programNumber":0},{"time":41223.06493749999,"duration":1016.9038208333295,"noteNumber":73,"velocity":42,"programNumber":0},{"time":41895.497758333324,"duration":679.6949645833374,"noteNumber":80,"velocity":45,"programNumber":0},{"time":42575.19272291666,"duration":332.48399999999674,"noteNumber":82,"velocity":45,"programNumber":0},{"time":42239.96875833332,"duration":997.0529645833376,"noteNumber":66,"velocity":44,"programNumber":0},{"time":42239.96875833332,"duration":997.0529645833376,"noteNumber":72,"velocity":42,"programNumber":0},{"time":42239.96875833332,"duration":997.0529645833376,"noteNumber":63,"velocity":44,"programNumber":0},{"time":42907.67672291666,"duration":665.1300312500025,"noteNumber":78,"velocity":44,"programNumber":0},{"time":43572.80675416666,"duration":333.5369999999966,"noteNumber":76,"velocity":52,"programNumber":0},{"time":43237.02172291666,"duration":1013.4433270833324,"noteNumber":65,"velocity":33,"programNumber":0},{"time":43237.02172291666,"duration":1013.4433270833324,"noteNumber":68,"velocity":49,"programNumber":0},{"time":43237.02172291666,"duration":1013.4433270833324,"noteNumber":61,"velocity":28,"programNumber":0},{"time":43906.34375416666,"duration":675.1926374999966,"noteNumber":77,"velocity":52,"programNumber":0},{"time":44581.536391666654,"duration":332.48399999999674,"noteNumber":78,"velocity":55,"programNumber":0},{"time":44250.46504999999,"duration":996.0393416666557,"noteNumber":63,"velocity":48,"programNumber":0},{"time":44250.46504999999,"duration":996.0393416666557,"noteNumber":69,"velocity":50,"programNumber":0},{"time":44250.46504999999,"duration":996.0393416666557,"noteNumber":59,"velocity":42,"programNumber":0},{"time":44914.02039166665,"duration":663.0942562499986,"noteNumber":75,"velocity":50,"programNumber":0},{"time":45577.11464791665,"duration":338.9060000000027,"noteNumber":75,"velocity":45,"programNumber":0},{"time":45246.50439166665,"duration":1023.5350833333432,"noteNumber":58,"velocity":33,"programNumber":0},{"time":45246.50439166665,"duration":1023.5350833333432,"noteNumber":65,"velocity":42,"programNumber":0},{"time":45916.02064791665,"duration":695.3700875000068,"noteNumber":74,"velocity":45,"programNumber":0},{"time":46611.39073541666,"duration":338.9060000000027,"noteNumber":75,"velocity":45,"programNumber":0},{"time":46270.03947499999,"duration":680.2572604166708,"noteNumber":66,"velocity":42,"programNumber":0},{"time":46950.29673541666,"duration":327.2646333333396,"noteNumber":66,"velocity":33,"programNumber":0},{"time":46950.29673541666,"duration":327.2646333333396,"noteNumber":63,"velocity":28,"programNumber":0},{"time":46270.03947499999,"duration":1007.5218937500103,"noteNumber":57,"velocity":33,"programNumber":0},{"time":47277.56136875,"duration":332.48399999999674,"noteNumber":65,"velocity":38,"programNumber":0},{"time":47277.56136875,"duration":332.48399999999674,"noteNumber":62,"velocity":32,"programNumber":0},{"time":47610.04536875,"duration":346.7410000000018,"noteNumber":53,"velocity":33,"programNumber":0},{"time":47956.78636875,"duration":346.7410000000018,"noteNumber":55,"velocity":37,"programNumber":0},{"time":48303.52736875,"duration":347.88700000000244,"noteNumber":56,"velocity":41,"programNumber":0},{"time":48651.41436875,"duration":173.37049999999726,"noteNumber":72,"velocity":38,"programNumber":0},{"time":48651.41436875,"duration":346.74099999999453,"noteNumber":52,"velocity":33,"programNumber":0},{"time":48998.15536875,"duration":173.94350000000122,"noteNumber":72,"velocity":38,"programNumber":0},{"time":48998.15536875,"duration":353.84300000000076,"noteNumber":53,"velocity":35,"programNumber":0},{"time":47277.56136875,"duration":2074.436999999998,"noteNumber":46,"velocity":33,"programNumber":0},{"time":49351.99836875,"duration":375.2350000000006,"noteNumber":55,"velocity":42,"programNumber":0},{"time":49351.99836875,"duration":375.2350000000006,"noteNumber":72,"velocity":46,"programNumber":0},{"time":49727.23336875,"duration":464.90000000000146,"noteNumber":50,"velocity":33,"programNumber":0},{"time":49727.23336875,"duration":464.90000000000146,"noteNumber":70,"velocity":38,"programNumber":0},{"time":50192.13336875,"duration":353.752999999997,"noteNumber":51,"velocity":33,"programNumber":0},{"time":50545.88636875,"duration":351.9060000000027,"noteNumber":53,"velocity":40,"programNumber":0},{"time":50897.79236875,"duration":163.64850000000297,"noteNumber":68,"velocity":38,"programNumber":0},{"time":50897.79236875,"duration":322.799500000001,"noteNumber":48,"velocity":33,"programNumber":0},{"time":51220.59186875,"duration":166.7684999999983,"noteNumber":68,"velocity":38,"programNumber":0},{"time":51220.59186875,"duration":338.4424999999974,"noteNumber":50,"velocity":33,"programNumber":0},{"time":49351.99836875,"duration":2207.036,"noteNumber":46,"velocity":42,"programNumber":0},{"time":51559.03436875,"duration":324.2719999999972,"noteNumber":51,"velocity":39,"programNumber":0},{"time":51559.03436875,"duration":324.2719999999972,"noteNumber":68,"velocity":43,"programNumber":0},{"time":51883.306368749996,"duration":360.66399999999703,"noteNumber":53,"velocity":33,"programNumber":0},{"time":51883.306368749996,"duration":360.66399999999703,"noteNumber":67,"velocity":38,"programNumber":0},{"time":52243.97036874999,"duration":334.26200000000244,"noteNumber":55,"velocity":36,"programNumber":0},{"time":52743.978368749995,"duration":165.28949999999895,"noteNumber":72,"velocity":37,"programNumber":0},{"time":52578.232368749996,"duration":331.03549999999814,"noteNumber":56,"velocity":40,"programNumber":0},{"time":52909.267868749994,"duration":168.17171249999956,"noteNumber":71,"velocity":38,"programNumber":0},{"time":53077.43958124999,"duration":176.9910000000018,"noteNumber":72,"velocity":34,"programNumber":0},{"time":52909.267868749994,"duration":345.16271250000136,"noteNumber":52,"velocity":33,"programNumber":0},{"time":53254.430581249995,"duration":167.53388750000158,"noteNumber":74,"velocity":43,"programNumber":0},{"time":53421.96446875,"duration":165.74599999999919,"noteNumber":72,"velocity":38,"programNumber":0},{"time":53254.430581249995,"duration":333.27988750000077,"noteNumber":53,"velocity":33,"programNumber":0},{"time":51559.03436875,"duration":2028.676099999997,"noteNumber":46,"velocity":39,"programNumber":0},{"time":53757.20196874999,"duration":163.93450000000303,"noteNumber":70,"velocity":36,"programNumber":0},{"time":53587.710468749996,"duration":333.4259999999995,"noteNumber":55,"velocity":42,"programNumber":0},{"time":53921.136468749995,"duration":166.3850166666598,"noteNumber":69,"velocity":38,"programNumber":0},{"time":54087.521485416655,"duration":173.91300000000047,"noteNumber":70,"velocity":36,"programNumber":0},{"time":53921.136468749995,"duration":340.29801666666026,"noteNumber":50,"velocity":33,"programNumber":0},{"time":54261.434485416656,"duration":166.53533333334053,"noteNumber":72,"velocity":44,"programNumber":0},{"time":54427.969818749996,"duration":165.28949999999895,"noteNumber":70,"velocity":38,"programNumber":0},{"time":54261.434485416656,"duration":331.8248333333395,"noteNumber":51,"velocity":33,"programNumber":0},{"time":54761.798818749994,"duration":166.66649999999936,"noteNumber":68,"velocity":36,"programNumber":0},{"time":54593.259318749995,"duration":335.2059999999983,"noteNumber":53,"velocity":40,"programNumber":0},{"time":54928.46531874999,"duration":169.01400000000285,"noteNumber":67,"velocity":38,"programNumber":0},{"time":55097.479318749996,"duration":172.07872916666383,"noteNumber":68,"velocity":35,"programNumber":0},{"time":54928.46531874999,"duration":341.0927291666667,"noteNumber":48,"velocity":33,"programNumber":0},{"time":55269.55804791666,"duration":167.41755416667002,"noteNumber":70,"velocity":44,"programNumber":0},{"time":55436.97560208333,"duration":167.0748729166662,"noteNumber":68,"velocity":37,"programNumber":0},{"time":55269.55804791666,"duration":334.4924270833362,"noteNumber":50,"velocity":33,"programNumber":0},{"time":53587.710468749996,"duration":2016.3400062500004,"noteNumber":46,"velocity":42,"programNumber":0},{"time":55604.050475,"duration":166.4894062500025,"noteNumber":51,"velocity":40,"programNumber":0},{"time":55770.53988125,"duration":166.82401874999778,"noteNumber":58,"velocity":28,"programNumber":0},{"time":55937.3639,"duration":166.76442708333343,"noteNumber":55,"velocity":33,"programNumber":0},{"time":56104.12832708333,"duration":166.1938999999984,"noteNumber":58,"velocity":27,"programNumber":0},{"time":56279.96411458333,"duration":167.81025000000227,"noteNumber":53,"velocity":33,"programNumber":0},{"time":56437.879360416664,"duration":171.07621249999647,"noteNumber":58,"velocity":30,"programNumber":0},{"time":56608.95557291666,"duration":175.65527916666906,"noteNumber":51,"velocity":38,"programNumber":0},{"time":56784.61085208333,"duration":179.10450000000128,"noteNumber":58,"velocity":28,"programNumber":0},{"time":56963.71535208333,"duration":182.4007750000019,"noteNumber":53,"velocity":42,"programNumber":0},{"time":55604.050475,"duration":1542.0656520833363,"noteNumber":67,"velocity":46,"programNumber":0},{"time":57146.11612708333,"duration":176.8764999999985,"noteNumber":58,"velocity":35,"programNumber":0},{"time":57146.11612708333,"duration":176.8764999999985,"noteNumber":70,"velocity":56,"programNumber":0},{"time":57322.99262708333,"duration":181.471335416667,"noteNumber":55,"velocity":46,"programNumber":0},{"time":57322.99262708333,"duration":338.3011479166671,"noteNumber":75,"velocity":62,"programNumber":0},{"time":57504.4639625,"duration":163.95962500000314,"noteNumber":58,"velocity":40,"programNumber":0},{"time":57668.4235875,"duration":183.31036250000034,"noteNumber":53,"velocity":51,"programNumber":0},{"time":57851.73395,"duration":175.5013291666619,"noteNumber":58,"velocity":44,"programNumber":0},{"time":58027.23527916666,"duration":170.82581875000324,"noteNumber":55,"velocity":52,"programNumber":0},{"time":58198.06109791667,"duration":173.0742166666605,"noteNumber":58,"velocity":43,"programNumber":0},{"time":58371.13531458333,"duration":173.14984374999767,"noteNumber":56,"velocity":55,"programNumber":0},{"time":58544.285158333325,"duration":178.93077500000072,"noteNumber":58,"velocity":47,"programNumber":0},{"time":57668.4235875,"duration":1054.7923458333244,"noteNumber":75,"velocity":63,"programNumber":0},{"time":58723.215933333326,"duration":170.8544229166655,"noteNumber":53,"velocity":60,"programNumber":0},{"time":58894.07035624999,"duration":171.67399999999907,"noteNumber":58,"velocity":39,"programNumber":0},{"time":58723.215933333326,"duration":342.52842291666457,"noteNumber":74,"velocity":57,"programNumber":0},{"time":59065.74435624999,"duration":174.69802499999787,"noteNumber":55,"velocity":46,"programNumber":0},{"time":59240.44238124999,"duration":176.8764999999985,"noteNumber":58,"velocity":33,"programNumber":0},{"time":59417.31888124999,"duration":178.92921041666705,"noteNumber":56,"velocity":41,"programNumber":0},{"time":59596.24809166665,"duration":181.14850000000297,"noteNumber":58,"velocity":33,"programNumber":0},{"time":59777.39659166666,"duration":171.0230833333335,"noteNumber":50,"velocity":40,"programNumber":0},{"time":59948.41967499999,"duration":172.83773333333374,"noteNumber":58,"velocity":28,"programNumber":0},{"time":60121.257408333324,"duration":175.41542708333145,"noteNumber":53,"velocity":33,"programNumber":0},{"time":60296.672835416655,"duration":178.0991041666639,"noteNumber":58,"velocity":27,"programNumber":0},{"time":60474.77193958332,"duration":181.71911458333489,"noteNumber":51,"velocity":33,"programNumber":0},{"time":60656.491054166654,"duration":170.60489791666623,"noteNumber":58,"velocity":30,"programNumber":0},{"time":59777.39659166666,"duration":1049.6993604166637,"noteNumber":70,"velocity":51,"programNumber":0},{"time":60827.09595208332,"duration":174.3758749999979,"noteNumber":50,"velocity":38,"programNumber":0},{"time":60827.09595208332,"duration":174.3758749999979,"noteNumber":70,"velocity":61,"programNumber":0},{"time":61001.47182708332,"duration":59.357666666663135,"noteNumber":72,"velocity":57,"programNumber":0},{"time":61060.82949374998,"duration":59.762166666667326,"noteNumber":70,"velocity":52,"programNumber":0},{"time":61120.59166041665,"duration":60.38283333333675,"noteNumber":69,"velocity":52,"programNumber":0},{"time":61001.47182708332,"duration":179.5026666666672,"noteNumber":58,"velocity":31,"programNumber":0},{"time":61180.974493749985,"duration":167.1202312500027,"noteNumber":51,"velocity":46,"programNumber":0},{"time":61180.974493749985,"duration":167.1202312500027,"noteNumber":70,"velocity":61,"programNumber":0},{"time":61348.09472499999,"duration":168.36899999999878,"noteNumber":58,"velocity":38,"programNumber":0},{"time":61348.09472499999,"duration":168.36899999999878,"noteNumber":77,"velocity":65,"programNumber":0},{"time":61516.46372499999,"duration":164.57411875000253,"noteNumber":53,"velocity":50,"programNumber":0},{"time":61681.03784374999,"duration":168.36899999999878,"noteNumber":58,"velocity":43,"programNumber":0},{"time":61516.46372499999,"duration":332.9431187500013,"noteNumber":80,"velocity":73,"programNumber":0},{"time":61849.40684374999,"duration":166.83959999999934,"noteNumber":51,"velocity":56,"programNumber":0},{"time":62016.24644374999,"duration":166.92797500000597,"noteNumber":58,"velocity":42,"programNumber":0},{"time":62183.17441874999,"duration":168.30096041666548,"noteNumber":53,"velocity":54,"programNumber":0},{"time":62351.47537916666,"duration":165.19964583333785,"noteNumber":58,"velocity":44,"programNumber":0},{"time":62516.675025,"duration":163.94508750000386,"noteNumber":55,"velocity":46,"programNumber":0},{"time":62680.6201125,"duration":164.6026312499962,"noteNumber":58,"velocity":33,"programNumber":0},{"time":61849.40684374999,"duration":995.8159000000087,"noteNumber":80,"velocity":74,"programNumber":0},{"time":62845.22274375,"duration":161.95624583333847,"noteNumber":51,"velocity":48,"programNumber":0},{"time":63007.178989583335,"duration":160.85800000000017,"noteNumber":58,"velocity":39,"programNumber":0},{"time":62845.22274375,"duration":322.81424583333865,"noteNumber":79,"velocity":69,"programNumber":0},{"time":63168.036989583336,"duration":165.99234999999317,"noteNumber":53,"velocity":41,"programNumber":0},{"time":63334.02933958333,"duration":163.4875000000029,"noteNumber":58,"velocity":33,"programNumber":0},{"time":63497.51683958333,"duration":161.98188333333383,"noteNumber":55,"velocity":41,"programNumber":0},{"time":63659.498722916665,"duration":161.72499999999854,"noteNumber":58,"velocity":33,"programNumber":0},{"time":63821.223722916664,"duration":82.12814166666794,"noteNumber":67,"velocity":56,"programNumber":0},{"time":63821.223722916664,"duration":164.70850416667236,"noteNumber":51,"velocity":40,"programNumber":0},{"time":63985.932227083336,"duration":83.64925000000221,"noteNumber":68,"velocity":58,"programNumber":0},{"time":63985.932227083336,"duration":166.7921875000029,"noteNumber":58,"velocity":28,"programNumber":0},{"time":64152.72441458334,"duration":82.07091666666383,"noteNumber":70,"velocity":60,"programNumber":0},{"time":64152.72441458334,"duration":163.4086666666626,"noteNumber":55,"velocity":33,"programNumber":0},{"time":64316.13308125,"duration":82.34601249999832,"noteNumber":72,"velocity":62,"programNumber":0},{"time":64316.13308125,"duration":164.2424874999997,"noteNumber":58,"velocity":27,"programNumber":0},{"time":64480.37556875,"duration":80.96810833333438,"noteNumber":74,"velocity":64,"programNumber":0},{"time":64480.37556875,"duration":161.390545833332,"noteNumber":51,"velocity":35,"programNumber":0},{"time":64641.76611458333,"duration":81.01909166666883,"noteNumber":75,"velocity":65,"programNumber":0},{"time":64641.76611458333,"duration":162.47822499999893,"noteNumber":58,"velocity":32,"programNumber":0},{"time":64804.24433958333,"duration":82.83756249999715,"noteNumber":77,"velocity":70,"programNumber":0},{"time":64804.24433958333,"duration":165.95856249999633,"noteNumber":51,"velocity":41,"programNumber":0},{"time":64970.20290208333,"duration":82.87299999999959,"noteNumber":79,"velocity":73,"programNumber":0},{"time":64970.20290208333,"duration":165.51774999999907,"noteNumber":58,"velocity":38,"programNumber":0},{"time":65135.72065208333,"duration":81.96725000000151,"noteNumber":80,"velocity":76,"programNumber":0},{"time":65135.72065208333,"duration":163.71100000000297,"noteNumber":55,"velocity":48,"programNumber":0},{"time":65299.43165208333,"duration":81.08099999999831,"noteNumber":82,"velocity":78,"programNumber":0},{"time":65299.43165208333,"duration":161.94350000000122,"noteNumber":58,"velocity":41,"programNumber":0},{"time":65461.37515208333,"duration":80.21400000000722,"noteNumber":84,"velocity":81,"programNumber":0},{"time":65461.37515208333,"duration":160.21400000000722,"noteNumber":51,"velocity":54,"programNumber":0},{"time":65621.58915208334,"duration":83.12099999999919,"noteNumber":86,"velocity":84,"programNumber":0},{"time":65621.58915208334,"duration":165.0882500000007,"noteNumber":58,"velocity":51,"programNumber":0},{"time":65786.67740208334,"duration":161.482520833335,"noteNumber":53,"velocity":52,"programNumber":0},{"time":65948.15992291667,"duration":162.7621979166579,"noteNumber":58,"velocity":48,"programNumber":0},{"time":66110.92212083333,"duration":164.48066666667,"noteNumber":56,"velocity":52,"programNumber":0},{"time":66275.4027875,"duration":162.88415208333754,"noteNumber":58,"velocity":44,"programNumber":0},{"time":66438.28693958334,"duration":164.3567041666538,"noteNumber":53,"velocity":46,"programNumber":0},{"time":66602.64364375,"duration":168.46322083333507,"noteNumber":58,"velocity":43,"programNumber":0},{"time":65786.67740208334,"duration":984.4294624999893,"noteNumber":87,"velocity":91,"programNumber":0},{"time":66771.10686458333,"duration":164.98752083333966,"noteNumber":53,"velocity":43,"programNumber":0},{"time":66936.09438541667,"duration":164.8350000000064,"noteNumber":58,"velocity":31,"programNumber":0},{"time":66771.10686458333,"duration":329.82252083334606,"noteNumber":86,"velocity":71,"programNumber":0},{"time":67100.92938541668,"duration":162.91100000000733,"noteNumber":56,"velocity":39,"programNumber":0},{"time":67263.84038541668,"duration":161.72500000000582,"noteNumber":58,"velocity":31,"programNumber":0},{"time":67425.56538541669,"duration":160.25156666665862,"noteNumber":53,"velocity":39,"programNumber":0},{"time":67585.81695208335,"duration":164.7847145833366,"noteNumber":58,"velocity":31,"programNumber":0},{"time":67751.96778750002,"duration":81.30074999999488,"noteNumber":58,"velocity":56,"programNumber":0},{"time":67751.96778750002,"duration":162.27067916665692,"noteNumber":50,"velocity":40,"programNumber":0},{"time":67914.23846666668,"duration":81.10480625000491,"noteNumber":60,"velocity":58,"programNumber":0},{"time":67914.23846666668,"duration":162.6265562500048,"noteNumber":58,"velocity":32,"programNumber":0},{"time":68076.86502291668,"duration":82.30650624999544,"noteNumber":62,"velocity":60,"programNumber":0},{"time":68076.86502291668,"duration":164.9759833333228,"noteNumber":53,"velocity":39,"programNumber":0},{"time":68241.84100625,"duration":83.64925000000221,"noteNumber":63,"velocity":62,"programNumber":0},{"time":68241.84100625,"duration":166.89968125001178,"noteNumber":58,"velocity":29,"programNumber":0},{"time":68408.74068750002,"duration":82.30840833333787,"noteNumber":65,"velocity":64,"programNumber":0},{"time":68408.74068750002,"duration":164.7259083333338,"noteNumber":50,"velocity":46,"programNumber":0},{"time":68573.46659583335,"duration":81.63090000000375,"noteNumber":67,"velocity":65,"programNumber":0},{"time":68573.46659583335,"duration":162.90784375001385,"noteNumber":58,"velocity":37,"programNumber":0},{"time":68736.37443958336,"duration":80.42900000000373,"noteNumber":68,"velocity":67,"programNumber":0},{"time":68736.37443958336,"duration":160.64300000001094,"noteNumber":50,"velocity":52,"programNumber":0},{"time":68897.01743958337,"duration":82.33624999999302,"noteNumber":70,"velocity":72,"programNumber":0},{"time":68897.01743958337,"duration":164.30349999999453,"noteNumber":58,"velocity":43,"programNumber":0},{"time":69061.32093958337,"duration":81.30074999999488,"noteNumber":72,"velocity":74,"programNumber":0},{"time":69061.32093958337,"duration":162.38175000000047,"noteNumber":53,"velocity":57,"programNumber":0},{"time":69223.70268958337,"duration":80.86250000000291,"noteNumber":74,"velocity":76,"programNumber":0},{"time":69223.70268958337,"duration":161.9435000000085,"noteNumber":58,"velocity":49,"programNumber":0},{"time":69385.64618958338,"duration":81.74374999999418,"noteNumber":75,"velocity":78,"programNumber":0},{"time":69385.64618958338,"duration":163.7109999999957,"noteNumber":50,"velocity":62,"programNumber":0},{"time":69549.35718958337,"duration":82.87300000000687,"noteNumber":77,"velocity":80,"programNumber":0},{"time":69549.35718958337,"duration":166.25725000000966,"noteNumber":58,"velocity":51,"programNumber":0},{"time":69882.91293958339,"duration":166.24199999999837,"noteNumber":51,"velocity":43,"programNumber":0},{"time":70049.15493958339,"duration":164.67250000000058,"noteNumber":50,"velocity":50,"programNumber":0},{"time":70213.82743958339,"duration":164.8350000000064,"noteNumber":51,"velocity":44,"programNumber":0},{"time":70378.6624395834,"duration":163.93450000000303,"noteNumber":50,"velocity":53,"programNumber":0},{"time":70542.5969395834,"duration":162.6015000000043,"noteNumber":51,"velocity":44,"programNumber":0},{"time":69715.61443958338,"duration":989.5840000000171,"noteNumber":79,"velocity":94,"programNumber":0},{"time":70705.1984395834,"duration":160.17655000000377,"noteNumber":43,"velocity":67,"programNumber":0},{"time":70865.3749895834,"duration":164.67250000000058,"noteNumber":51,"velocity":45,"programNumber":0},{"time":71030.0474895834,"duration":162.9367833333381,"noteNumber":44,"velocity":59,"programNumber":0},{"time":71192.98427291674,"duration":161.72500000000582,"noteNumber":51,"velocity":47,"programNumber":0},{"time":70705.1984395834,"duration":649.5108333333483,"noteNumber":87,"velocity":100,"programNumber":0},{"time":71354.70927291675,"duration":163.64228749998438,"noteNumber":46,"velocity":61,"programNumber":0},{"time":71518.35156041673,"duration":165.28949999999895,"noteNumber":51,"velocity":44,"programNumber":0},{"time":71354.70927291675,"duration":328.93178749998333,"noteNumber":55,"velocity":77,"programNumber":0},{"time":71683.64106041673,"duration":166.11985000000277,"noteNumber":44,"velocity":65,"programNumber":0},{"time":71849.76091041673,"duration":164.67250000000058,"noteNumber":51,"velocity":45,"programNumber":0},{"time":72014.43341041674,"duration":163.76882083332748,"noteNumber":46,"velocity":57,"programNumber":0},{"time":72178.20223125006,"duration":162.6015000000043,"noteNumber":51,"velocity":42,"programNumber":0},{"time":72340.80373125007,"duration":161.10496875000536,"noteNumber":48,"velocity":55,"programNumber":0},{"time":72501.90870000007,"duration":172.23549999999523,"noteNumber":51,"velocity":45,"programNumber":0},{"time":71683.64106041673,"duration":990.5031395833357,"noteNumber":56,"velocity":82,"programNumber":0},{"time":72674.14420000007,"duration":166.39703541666677,"noteNumber":45,"velocity":67,"programNumber":0},{"time":72840.54123541673,"duration":167.29850000000442,"noteNumber":51,"velocity":45,"programNumber":0},{"time":73007.83973541674,"duration":168.19114791665925,"noteNumber":46,"velocity":56,"programNumber":0},{"time":73176.0308833334,"duration":169.45299999999406,"noteNumber":51,"velocity":47,"programNumber":0},{"time":73345.48388333339,"duration":168.11858958334778,"noteNumber":48,"velocity":55,"programNumber":0},{"time":73513.60247291674,"duration":166.24199999999837,"noteNumber":51,"velocity":44,"programNumber":0},{"time":72674.14420000007,"duration":1005.7002729166707,"noteNumber":57,"velocity":84,"programNumber":0},{"time":73679.84447291674,"duration":166.3648499999981,"noteNumber":46,"velocity":64,"programNumber":0},{"time":73846.20932291674,"duration":167.83199999999488,"noteNumber":55,"velocity":46,"programNumber":0},{"time":74014.04132291673,"duration":168.9094999999943,"noteNumber":51,"velocity":56,"programNumber":0},{"time":74182.95082291673,"duration":164.8350000000064,"noteNumber":55,"velocity":45,"programNumber":0},{"time":74347.78582291673,"duration":166.7685000000056,"noteNumber":46,"velocity":57,"programNumber":0},{"time":74514.55432291674,"duration":171.8938124999986,"noteNumber":55,"velocity":46,"programNumber":0},{"time":73679.84447291674,"duration":1006.6036624999979,"noteNumber":58,"velocity":84,"programNumber":0},{"time":74686.44813541674,"duration":83.19916250000824,"noteNumber":56,"velocity":84,"programNumber":0},{"time":74769.64729791674,"duration":83.8704562500061,"noteNumber":58,"velocity":57,"programNumber":0},{"time":74686.44813541674,"duration":167.06961875001434,"noteNumber":46,"velocity":64,"programNumber":0},{"time":74853.51775416675,"duration":53.908333333340124,"noteNumber":56,"velocity":61,"programNumber":0},{"time":74907.42608750009,"duration":54.64483333333919,"noteNumber":58,"velocity":57,"programNumber":0},{"time":74962.07092083343,"duration":56.484333333326504,"noteNumber":56,"velocity":64,"programNumber":0},{"time":74853.51775416675,"duration":165.03750000000582,"noteNumber":53,"velocity":46,"programNumber":0},{"time":75018.55525416676,"duration":56.484333333326504,"noteNumber":58,"velocity":56,"programNumber":0},{"time":75075.03958750008,"duration":54.64483333333919,"noteNumber":56,"velocity":64,"programNumber":0},{"time":75129.68442083342,"duration":56.484333333326504,"noteNumber":58,"velocity":56,"programNumber":0},{"time":75018.55525416676,"duration":167.6134999999922,"noteNumber":50,"velocity":55,"programNumber":0},{"time":75186.16875416675,"duration":56.484333333326504,"noteNumber":56,"velocity":64,"programNumber":0},{"time":75242.65308750008,"duration":55.41400000000431,"noteNumber":58,"velocity":55,"programNumber":0},{"time":75298.06708750008,"duration":55.94400000000314,"noteNumber":56,"velocity":64,"programNumber":0},{"time":75186.16875416675,"duration":167.84233333333395,"noteNumber":53,"velocity":45,"programNumber":0},{"time":75354.01108750008,"duration":84.0849187499989,"noteNumber":58,"velocity":54,"programNumber":0},{"time":75438.09600625008,"duration":89.47806250001304,"noteNumber":56,"velocity":59,"programNumber":0},{"time":75354.01108750008,"duration":173.56298125001194,"noteNumber":46,"velocity":55,"programNumber":0},{"time":75527.5740687501,"duration":88.06983750000654,"noteNumber":55,"velocity":55,"programNumber":0},{"time":75615.6439062501,"duration":87.91965625001467,"noteNumber":56,"velocity":57,"programNumber":0},{"time":75527.5740687501,"duration":175.9894937500212,"noteNumber":53,"velocity":46,"programNumber":0},{"time":75703.56356250012,"duration":174.02603749999253,"noteNumber":55,"velocity":74,"programNumber":0},{"time":75877.58960000011,"duration":181.79738124999858,"noteNumber":58,"velocity":60,"programNumber":0},{"time":75703.56356250012,"duration":355.8234187499911,"noteNumber":51,"velocity":64,"programNumber":0},{"time":75703.56356250012,"duration":355.8234187499911,"noteNumber":39,"velocity":64,"programNumber":0},{"time":76059.3869812501,"duration":215.73399999999674,"noteNumber":63,"velocity":68,"programNumber":0},{"time":76275.1209812501,"duration":215.73399999999674,"noteNumber":58,"velocity":61,"programNumber":0},{"time":76490.8549812501,"duration":215.73399999999674,"noteNumber":63,"velocity":69,"programNumber":0},{"time":76706.5889812501,"duration":215.73399999999674,"noteNumber":67,"velocity":63,"programNumber":0},{"time":76922.3229812501,"duration":215.73399999999674,"noteNumber":70,"velocity":69,"programNumber":0},{"time":77138.05698125009,"duration":215.73399999999674,"noteNumber":67,"velocity":60,"programNumber":0},{"time":77353.79098125009,"duration":215.73399999999674,"noteNumber":70,"velocity":69,"programNumber":0},{"time":77569.52498125008,"duration":215.73399999999674,"noteNumber":75,"velocity":62,"programNumber":0},{"time":77785.25898125008,"duration":215.73399999999674,"noteNumber":79,"velocity":73,"programNumber":0},{"time":78000.99298125008,"duration":215.73399999999674,"noteNumber":82,"velocity":65,"programNumber":0},{"time":78216.72698125007,"duration":215.73399999999674,"noteNumber":43,"velocity":67,"programNumber":0},{"time":78216.72698125007,"duration":215.73399999999674,"noteNumber":87,"velocity":89,"programNumber":0},{"time":78432.46098125007,"duration":215.73399999999674,"noteNumber":51,"velocity":45,"programNumber":0},{"time":78648.19498125007,"duration":215.73399999999674,"noteNumber":44,"velocity":59,"programNumber":0},{"time":78863.92898125006,"duration":215.73399999999674,"noteNumber":51,"velocity":47,"programNumber":0},{"time":79079.66298125006,"duration":215.7340000000113,"noteNumber":46,"velocity":61,"programNumber":0},{"time":79295.39698125007,"duration":215.73399999999674,"noteNumber":51,"velocity":44,"programNumber":0},{"time":79511.13098125007,"duration":215.73399999999674,"noteNumber":43,"velocity":67,"programNumber":0},{"time":79726.86498125007,"duration":215.73399999999674,"noteNumber":51,"velocity":45,"programNumber":0},{"time":79942.59898125006,"duration":215.73399999999674,"noteNumber":44,"velocity":57,"programNumber":0},{"time":80158.33298125006,"duration":215.73399999999674,"noteNumber":51,"velocity":52,"programNumber":0},{"time":79079.66298125006,"duration":1294.403999999995,"noteNumber":63,"velocity":84,"programNumber":0},{"time":80374.06698125006,"duration":215.7340000000113,"noteNumber":46,"velocity":61,"programNumber":0},{"time":80589.80098125007,"duration":215.73399999999674,"noteNumber":51,"velocity":44,"programNumber":0},{"time":80374.06698125006,"duration":431.46800000000803,"noteNumber":55,"velocity":81,"programNumber":0},{"time":80805.53498125006,"duration":215.73399999999674,"noteNumber":44,"velocity":65,"programNumber":0},{"time":81021.26898125006,"duration":215.73399999999674,"noteNumber":51,"velocity":45,"programNumber":0},{"time":81237.00298125006,"duration":215.7340000000113,"noteNumber":46,"velocity":58,"programNumber":0},{"time":81452.73698125007,"duration":215.73399999999674,"noteNumber":51,"velocity":42,"programNumber":0},{"time":80805.53498125006,"duration":862.9360000000015,"noteNumber":56,"velocity":84,"programNumber":0},{"time":81668.47098125007,"duration":215.73399999999674,"noteNumber":48,"velocity":57,"programNumber":0},{"time":81884.20498125006,"duration":215.73399999999674,"noteNumber":51,"velocity":45,"programNumber":0},{"time":81668.47098125007,"duration":431.4679999999935,"noteNumber":63,"velocity":84,"programNumber":0},{"time":82099.93898125006,"duration":215.73399999999674,"noteNumber":45,"velocity":67,"programNumber":0},{"time":82315.67298125006,"duration":215.73399999999674,"noteNumber":51,"velocity":45,"programNumber":0},{"time":82531.40698125005,"duration":215.7340000000113,"noteNumber":46,"velocity":56,"programNumber":0},{"time":82747.14098125006,"duration":215.73399999999674,"noteNumber":51,"velocity":47,"programNumber":0},{"time":82099.93898125006,"duration":862.9360000000015,"noteNumber":57,"velocity":92,"programNumber":0},{"time":82962.87498125006,"duration":215.7340000000113,"noteNumber":48,"velocity":58,"programNumber":0},{"time":83178.60898125007,"duration":215.73399999999674,"noteNumber":51,"velocity":44,"programNumber":0},{"time":82962.87498125006,"duration":431.46800000000803,"noteNumber":63,"velocity":84,"programNumber":0},{"time":83394.34298125007,"duration":215.73399999999674,"noteNumber":46,"velocity":67,"programNumber":0},{"time":83394.34298125007,"duration":215.73399999999674,"noteNumber":58,"velocity":77,"programNumber":0},{"time":83610.07698125007,"duration":215.73399999999674,"noteNumber":51,"velocity":52,"programNumber":0},{"time":83610.07698125007,"duration":215.73399999999674,"noteNumber":63,"velocity":59,"programNumber":0},{"time":83825.81098125006,"duration":215.7340000000113,"noteNumber":50,"velocity":61,"programNumber":0},{"time":83825.81098125006,"duration":215.7340000000113,"noteNumber":62,"velocity":68,"programNumber":0},{"time":84041.54498125007,"duration":215.73399999999674,"noteNumber":51,"velocity":48,"programNumber":0},{"time":84041.54498125007,"duration":215.73399999999674,"noteNumber":63,"velocity":55,"programNumber":0},{"time":84257.27898125007,"duration":215.7340000000113,"noteNumber":47,"velocity":62,"programNumber":0},{"time":84257.27898125007,"duration":215.7340000000113,"noteNumber":59,"velocity":65,"programNumber":0},{"time":84473.01298125008,"duration":215.73399999999674,"noteNumber":51,"velocity":53,"programNumber":0},{"time":84473.01298125008,"duration":215.73399999999674,"noteNumber":63,"velocity":59,"programNumber":0},{"time":84688.74698125008,"duration":215.73399999999674,"noteNumber":48,"velocity":71,"programNumber":0},{"time":84688.74698125008,"duration":215.73399999999674,"noteNumber":60,"velocity":82,"programNumber":0},{"time":84904.48098125008,"duration":215.73399999999674,"noteNumber":51,"velocity":54,"programNumber":0},{"time":84904.48098125008,"duration":215.73399999999674,"noteNumber":63,"velocity":62,"programNumber":0},{"time":85120.21498125007,"duration":215.7340000000113,"noteNumber":50,"velocity":65,"programNumber":0},{"time":85120.21498125007,"duration":215.7340000000113,"noteNumber":62,"velocity":71,"programNumber":0},{"time":85335.94898125008,"duration":215.73399999999674,"noteNumber":51,"velocity":52,"programNumber":0},{"time":85335.94898125008,"duration":215.73399999999674,"noteNumber":63,"velocity":59,"programNumber":0},{"time":85551.68298125008,"duration":215.7340000000113,"noteNumber":45,"velocity":64,"programNumber":0},{"time":85551.68298125008,"duration":215.7340000000113,"noteNumber":57,"velocity":66,"programNumber":0},{"time":85767.41698125009,"duration":215.73399999999674,"noteNumber":51,"velocity":49,"programNumber":0},{"time":85767.41698125009,"duration":215.73399999999674,"noteNumber":63,"velocity":56,"programNumber":0},{"time":85983.15098125009,"duration":215.73399999999674,"noteNumber":46,"velocity":77,"programNumber":0},{"time":85983.15098125009,"duration":215.73399999999674,"noteNumber":58,"velocity":88,"programNumber":0},{"time":86198.88498125008,"duration":215.73399999999674,"noteNumber":51,"velocity":58,"programNumber":0},{"time":86198.88498125008,"duration":215.73399999999674,"noteNumber":63,"velocity":58,"programNumber":0},{"time":86414.61898125008,"duration":215.7340000000113,"noteNumber":49,"velocity":65,"programNumber":0},{"time":86414.61898125008,"duration":215.7340000000113,"noteNumber":61,"velocity":72,"programNumber":0},{"time":86630.3529812501,"duration":215.73399999999674,"noteNumber":51,"velocity":56,"programNumber":0},{"time":86630.3529812501,"duration":215.73399999999674,"noteNumber":63,"velocity":62,"programNumber":0},{"time":86846.08698125009,"duration":215.7340000000113,"noteNumber":47,"velocity":70,"programNumber":0},{"time":86846.08698125009,"duration":215.7340000000113,"noteNumber":59,"velocity":72,"programNumber":0},{"time":87061.8209812501,"duration":215.73399999999674,"noteNumber":51,"velocity":54,"programNumber":0},{"time":87061.8209812501,"duration":215.73399999999674,"noteNumber":63,"velocity":64,"programNumber":0},{"time":87277.5549812501,"duration":215.73399999999674,"noteNumber":48,"velocity":77,"programNumber":0},{"time":87277.5549812501,"duration":215.73399999999674,"noteNumber":60,"velocity":88,"programNumber":0},{"time":87493.2889812501,"duration":215.73399999999674,"noteNumber":51,"velocity":57,"programNumber":0},{"time":87493.2889812501,"duration":215.73399999999674,"noteNumber":63,"velocity":65,"programNumber":0},{"time":87709.02298125009,"duration":215.7340000000113,"noteNumber":50,"velocity":63,"programNumber":0},{"time":87709.02298125009,"duration":215.7340000000113,"noteNumber":62,"velocity":75,"programNumber":0},{"time":87924.7569812501,"duration":215.73399999999674,"noteNumber":51,"velocity":58,"programNumber":0},{"time":87924.7569812501,"duration":215.73399999999674,"noteNumber":63,"velocity":65,"programNumber":0},{"time":88140.4909812501,"duration":215.7340000000113,"noteNumber":45,"velocity":71,"programNumber":0},{"time":88140.4909812501,"duration":215.7340000000113,"noteNumber":57,"velocity":80,"programNumber":0},{"time":88356.22498125011,"duration":215.73399999999674,"noteNumber":51,"velocity":65,"programNumber":0},{"time":88356.22498125011,"duration":215.73399999999674,"noteNumber":63,"velocity":72,"programNumber":0},{"time":88571.9589812501,"duration":431.4679999999935,"noteNumber":46,"velocity":82,"programNumber":0},{"time":88571.9589812501,"duration":431.4679999999935,"noteNumber":58,"velocity":93,"programNumber":0},{"time":89003.4269812501,"duration":107.86699999999837,"noteNumber":55,"velocity":87,"programNumber":0},{"time":89003.4269812501,"duration":107.86699999999837,"noteNumber":51,"velocity":77,"programNumber":0},{"time":89003.4269812501,"duration":107.86699999999837,"noteNumber":46,"velocity":77,"programNumber":0},{"time":89327.0279812501,"duration":107.86699999999837,"noteNumber":63,"velocity":81,"programNumber":0},{"time":89434.8949812501,"duration":323.6009999999951,"noteNumber":70,"velocity":87,"programNumber":0},{"time":89758.49598125009,"duration":107.86699999999837,"noteNumber":67,"velocity":84,"programNumber":0},{"time":89866.36298125009,"duration":107.86699999999837,"noteNumber":75,"velocity":93,"programNumber":0},{"time":90297.83098125008,"duration":107.86699999999837,"noteNumber":54,"velocity":87,"programNumber":0},{"time":90297.83098125008,"duration":107.86699999999837,"noteNumber":48,"velocity":77,"programNumber":0},{"time":90297.83098125008,"duration":107.86699999999837,"noteNumber":51,"velocity":77,"programNumber":0},{"time":90621.43198125008,"duration":107.86699999999837,"noteNumber":63,"velocity":81,"programNumber":0},{"time":90729.29898125007,"duration":323.6009999999951,"noteNumber":69,"velocity":87,"programNumber":0},{"time":91052.89998125007,"duration":107.86699999999837,"noteNumber":66,"velocity":84,"programNumber":0},{"time":91160.76698125007,"duration":107.86699999999837,"noteNumber":75,"velocity":93,"programNumber":0},{"time":91592.23498125006,"duration":107.86699999999837,"noteNumber":51,"velocity":77,"programNumber":0},{"time":91592.23498125006,"duration":107.86699999999837,"noteNumber":46,"velocity":77,"programNumber":0},{"time":91592.23498125006,"duration":107.86699999999837,"noteNumber":55,"velocity":87,"programNumber":0},{"time":91915.83598125006,"duration":107.86699999999837,"noteNumber":63,"velocity":81,"programNumber":0},{"time":92023.70298125006,"duration":323.6009999999951,"noteNumber":70,"velocity":87,"programNumber":0},{"time":92347.30398125005,"duration":107.86699999999837,"noteNumber":67,"velocity":84,"programNumber":0},{"time":92455.17098125005,"duration":107.86699999999837,"noteNumber":75,"velocity":93,"programNumber":0},{"time":92886.63898125004,"duration":107.86699999999837,"noteNumber":45,"velocity":77,"programNumber":0},{"time":92886.63898125004,"duration":107.86699999999837,"noteNumber":57,"velocity":87,"programNumber":0},{"time":92886.63898125004,"duration":107.86699999999837,"noteNumber":51,"velocity":77,"programNumber":0},{"time":92886.63898125004,"duration":107.86699999999837,"noteNumber":54,"velocity":77,"programNumber":0},{"time":93210.23998125004,"duration":107.86699999999837,"noteNumber":72,"velocity":81,"programNumber":0},{"time":93318.10698125004,"duration":323.6009999999951,"noteNumber":78,"velocity":87,"programNumber":0},{"time":93641.70798125003,"duration":107.86699999999837,"noteNumber":75,"velocity":84,"programNumber":0},{"time":94181.04298125002,"duration":107.86699999999837,"noteNumber":51,"velocity":77,"programNumber":0},{"time":94181.04298125002,"duration":107.86699999999837,"noteNumber":58,"velocity":87,"programNumber":0},{"time":94181.04298125002,"duration":107.86699999999837,"noteNumber":55,"velocity":77,"programNumber":0},{"time":94181.04298125002,"duration":107.86699999999837,"noteNumber":46,"velocity":77,"programNumber":0},{"time":93749.57498125003,"duration":647.2019999999902,"noteNumber":79,"velocity":95,"programNumber":0},{"time":94396.77698125002,"duration":215.73399999999674,"noteNumber":75,"velocity":85,"programNumber":0},{"time":94612.51098125002,"duration":215.73399999999674,"noteNumber":75,"velocity":93,"programNumber":0},{"time":94828.24498125001,"duration":161.80049999999756,"noteNumber":70,"velocity":79,"programNumber":0},{"time":95043.97898125001,"duration":215.73399999999674,"noteNumber":70,"velocity":88,"programNumber":0},{"time":95259.71298125,"duration":161.80049999999756,"noteNumber":67,"velocity":78,"programNumber":0},{"time":95475.44698125,"duration":215.73399999999674,"noteNumber":67,"velocity":85,"programNumber":0},{"time":95691.18098125,"duration":161.80049999999756,"noteNumber":63,"velocity":77,"programNumber":0},{"time":95906.91498125,"duration":215.73399999999674,"noteNumber":63,"velocity":81,"programNumber":0},{"time":96122.64898125,"duration":161.80049999999756,"noteNumber":58,"velocity":77,"programNumber":0},{"time":96338.38298124999,"duration":215.73399999999674,"noteNumber":58,"velocity":81,"programNumber":0},{"time":96554.11698124999,"duration":161.80049999999756,"noteNumber":55,"velocity":77,"programNumber":0},{"time":96769.85098124998,"duration":215.73399999999674,"noteNumber":55,"velocity":82,"programNumber":0},{"time":96985.58498124998,"duration":161.80049999999756,"noteNumber":51,"velocity":77,"programNumber":0},{"time":97201.31898124998,"duration":215.73399999999674,"noteNumber":51,"velocity":83,"programNumber":0},{"time":97417.05298124997,"duration":161.80049999999756,"noteNumber":46,"velocity":77,"programNumber":0},{"time":98495.72298124997,"duration":431.4679999999935,"noteNumber":53,"velocity":59,"programNumber":0},{"time":97632.78698124997,"duration":1294.403999999995,"noteNumber":34,"velocity":78,"programNumber":0},{"time":98495.72298124997,"duration":431.4679999999935,"noteNumber":58,"velocity":66,"programNumber":0},{"time":97632.78698124997,"duration":1294.403999999995,"noteNumber":46,"velocity":92,"programNumber":0},{"time":98495.72298124997,"duration":431.4679999999935,"noteNumber":56,"velocity":70,"programNumber":0},{"time":98495.72298124997,"duration":431.4679999999935,"noteNumber":62,"velocity":78,"programNumber":0},{"time":98927.19098124997,"duration":431.4679999999935,"noteNumber":39,"velocity":67,"programNumber":0},{"time":98927.19098124997,"duration":431.4679999999935,"noteNumber":58,"velocity":70,"programNumber":0},{"time":98927.19098124997,"duration":431.4679999999935,"noteNumber":63,"velocity":83,"programNumber":0},{"time":98927.19098124997,"duration":431.4679999999935,"noteNumber":55,"velocity":79,"programNumber":0},{"time":99790.12698124995,"duration":431.4679999999935,"noteNumber":45,"velocity":51,"programNumber":0},{"time":100221.59498124995,"duration":431.4679999999935,"noteNumber":44,"velocity":51,"programNumber":0},{"time":100653.06298124994,"duration":431.4679999999935,"noteNumber":43,"velocity":49,"programNumber":0},{"time":100653.06298124994,"duration":431.4679999999935,"noteNumber":70,"velocity":53,"programNumber":0},{"time":100653.06298124994,"duration":431.4679999999935,"noteNumber":65,"velocity":42,"programNumber":0},{"time":100653.06298124994,"duration":431.4679999999935,"noteNumber":68,"velocity":42,"programNumber":0},{"time":100653.06298124994,"duration":431.4679999999935,"noteNumber":62,"velocity":42,"programNumber":0},{"time":101084.53098124993,"duration":431.4679999999935,"noteNumber":41,"velocity":49,"programNumber":0},{"time":101084.53098124993,"duration":431.4679999999935,"noteNumber":62,"velocity":38,"programNumber":0},{"time":101084.53098124993,"duration":431.4679999999935,"noteNumber":65,"velocity":38,"programNumber":0},{"time":99358.65898124996,"duration":2157.3399999999674,"noteNumber":46,"velocity":51,"programNumber":0},{"time":101084.53098124993,"duration":431.4679999999935,"noteNumber":70,"velocity":48,"programNumber":0},{"time":101084.53098124993,"duration":431.4679999999935,"noteNumber":68,"velocity":38,"programNumber":0},{"time":101515.99898124993,"duration":431.4679999999935,"noteNumber":39,"velocity":51,"programNumber":0},{"time":101515.99898124993,"duration":431.4679999999935,"noteNumber":72,"velocity":53,"programNumber":0},{"time":101947.46698124992,"duration":431.4679999999935,"noteNumber":43,"velocity":47,"programNumber":0},{"time":101515.99898124993,"duration":862.935999999987,"noteNumber":63,"velocity":42,"programNumber":0},{"time":101515.99898124993,"duration":862.935999999987,"noteNumber":67,"velocity":42,"programNumber":0},{"time":101947.46698124992,"duration":431.4679999999935,"noteNumber":70,"velocity":49,"programNumber":0},{"time":102378.93498124991,"duration":431.4679999999935,"noteNumber":46,"velocity":47,"programNumber":0},{"time":102810.4029812499,"duration":431.4679999999935,"noteNumber":34,"velocity":51,"programNumber":0},{"time":103241.8709812499,"duration":431.4679999999935,"noteNumber":41,"velocity":48,"programNumber":0},{"time":103241.8709812499,"duration":431.4679999999935,"noteNumber":65,"velocity":42,"programNumber":0},{"time":103241.8709812499,"duration":431.4679999999935,"noteNumber":68,"velocity":42,"programNumber":0},{"time":103241.8709812499,"duration":431.4679999999935,"noteNumber":74,"velocity":53,"programNumber":0},{"time":103673.3389812499,"duration":431.4679999999935,"noteNumber":46,"velocity":48,"programNumber":0},{"time":103673.3389812499,"duration":431.4679999999935,"noteNumber":65,"velocity":38,"programNumber":0},{"time":103673.3389812499,"duration":431.4679999999935,"noteNumber":68,"velocity":38,"programNumber":0},{"time":103673.3389812499,"duration":431.4679999999935,"noteNumber":74,"velocity":48,"programNumber":0},{"time":104104.80698124989,"duration":431.46800000000803,"noteNumber":39,"velocity":67,"programNumber":0},{"time":104104.80698124989,"duration":431.46800000000803,"noteNumber":77,"velocity":53,"programNumber":0},{"time":104536.2749812499,"duration":431.46800000000803,"noteNumber":75,"velocity":49,"programNumber":0},{"time":104104.80698124989,"duration":862.9360000000161,"noteNumber":67,"velocity":42,"programNumber":0},{"time":104104.80698124989,"duration":862.9360000000161,"noteNumber":70,"velocity":42,"programNumber":0},{"time":104967.7429812499,"duration":431.4679999999935,"noteNumber":45,"velocity":51,"programNumber":0},{"time":105399.2109812499,"duration":431.4679999999935,"noteNumber":44,"velocity":51,"programNumber":0},{"time":105830.67898124989,"duration":431.4679999999935,"noteNumber":43,"velocity":49,"programNumber":0},{"time":105830.67898124989,"duration":431.4679999999935,"noteNumber":62,"velocity":42,"programNumber":0},{"time":105830.67898124989,"duration":431.4679999999935,"noteNumber":65,"velocity":42,"programNumber":0},{"time":105830.67898124989,"duration":431.4679999999935,"noteNumber":68,"velocity":42,"programNumber":0},{"time":105830.67898124989,"duration":431.4679999999935,"noteNumber":70,"velocity":53,"programNumber":0},{"time":106262.14698124988,"duration":431.4679999999935,"noteNumber":41,"velocity":49,"programNumber":0},{"time":106262.14698124988,"duration":431.4679999999935,"noteNumber":70,"velocity":48,"programNumber":0},{"time":106262.14698124988,"duration":431.4679999999935,"noteNumber":65,"velocity":38,"programNumber":0},{"time":104536.2749812499,"duration":2157.339999999982,"noteNumber":46,"velocity":51,"programNumber":0},{"time":106262.14698124988,"duration":431.4679999999935,"noteNumber":62,"velocity":38,"programNumber":0},{"time":106262.14698124988,"duration":431.4679999999935,"noteNumber":68,"velocity":38,"programNumber":0},{"time":106693.61498124988,"duration":431.4679999999935,"noteNumber":39,"velocity":51,"programNumber":0},{"time":106693.61498124988,"duration":431.4679999999935,"noteNumber":72,"velocity":53,"programNumber":0},{"time":107125.08298124987,"duration":431.46800000000803,"noteNumber":43,"velocity":47,"programNumber":0},{"time":106693.61498124988,"duration":862.9360000000015,"noteNumber":63,"velocity":42,"programNumber":0},{"time":106693.61498124988,"duration":862.9360000000015,"noteNumber":67,"velocity":42,"programNumber":0},{"time":107125.08298124987,"duration":431.46800000000803,"noteNumber":70,"velocity":49,"programNumber":0},{"time":107556.55098124988,"duration":431.4679999999935,"noteNumber":46,"velocity":47,"programNumber":0},{"time":107988.01898124987,"duration":431.4679999999935,"noteNumber":34,"velocity":51,"programNumber":0},{"time":108419.48698124987,"duration":431.4679999999935,"noteNumber":41,"velocity":48,"programNumber":0},{"time":108419.48698124987,"duration":431.4679999999935,"noteNumber":53,"velocity":42,"programNumber":0},{"time":108419.48698124987,"duration":431.4679999999935,"noteNumber":56,"velocity":42,"programNumber":0},{"time":108419.48698124987,"duration":431.4679999999935,"noteNumber":62,"velocity":53,"programNumber":0},{"time":108850.95498124986,"duration":431.4679999999935,"noteNumber":46,"velocity":48,"programNumber":0},{"time":108850.95498124986,"duration":431.4679999999935,"noteNumber":53,"velocity":38,"programNumber":0},{"time":108850.95498124986,"duration":431.4679999999935,"noteNumber":56,"velocity":38,"programNumber":0},{"time":108850.95498124986,"duration":431.4679999999935,"noteNumber":62,"velocity":48,"programNumber":0},{"time":109282.42298124985,"duration":431.4679999999935,"noteNumber":39,"velocity":51,"programNumber":0},{"time":109282.42298124985,"duration":431.4679999999935,"noteNumber":65,"velocity":53,"programNumber":0},{"time":109713.89098124985,"duration":431.46800000000803,"noteNumber":43,"velocity":47,"programNumber":0},{"time":109282.42298124985,"duration":862.9360000000015,"noteNumber":55,"velocity":42,"programNumber":0},{"time":109282.42298124985,"duration":862.9360000000015,"noteNumber":58,"velocity":42,"programNumber":0},{"time":109713.89098124985,"duration":431.46800000000803,"noteNumber":63,"velocity":49,"programNumber":0},{"time":110145.35898124985,"duration":431.4679999999935,"noteNumber":46,"velocity":47,"programNumber":0},{"time":110576.82698124985,"duration":431.4679999999935,"noteNumber":34,"velocity":51,"programNumber":0},{"time":111008.29498124984,"duration":431.46800000000803,"noteNumber":41,"velocity":48,"programNumber":0},{"time":111008.29498124984,"duration":431.46800000000803,"noteNumber":53,"velocity":42,"programNumber":0},{"time":111008.29498124984,"duration":431.46800000000803,"noteNumber":56,"velocity":42,"programNumber":0},{"time":111008.29498124984,"duration":431.46800000000803,"noteNumber":62,"velocity":53,"programNumber":0},{"time":111439.76298124985,"duration":431.4679999999935,"noteNumber":46,"velocity":48,"programNumber":0},{"time":111439.76298124985,"duration":431.4679999999935,"noteNumber":53,"velocity":38,"programNumber":0},{"time":111439.76298124985,"duration":431.4679999999935,"noteNumber":56,"velocity":38,"programNumber":0},{"time":111439.76298124985,"duration":431.4679999999935,"noteNumber":62,"velocity":48,"programNumber":0},{"time":111871.23098124984,"duration":431.46800000000803,"noteNumber":39,"velocity":51,"programNumber":0},{"time":112302.69898124985,"duration":431.4679999999935,"noteNumber":43,"velocity":47,"programNumber":0},{"time":112734.16698124984,"duration":431.4679999999935,"noteNumber":46,"velocity":47,"programNumber":0},{"time":111871.23098124984,"duration":1294.403999999995,"noteNumber":56,"velocity":42,"programNumber":0},{"time":111871.23098124984,"duration":1294.403999999995,"noteNumber":62,"velocity":42,"programNumber":0},{"time":111871.23098124984,"duration":1294.403999999995,"noteNumber":65,"velocity":53,"programNumber":0},{"time":113165.63498124984,"duration":431.4679999999935,"noteNumber":55,"velocity":44,"programNumber":0},{"time":113165.63498124984,"duration":431.4679999999935,"noteNumber":58,"velocity":44,"programNumber":0},{"time":113165.63498124984,"duration":431.4679999999935,"noteNumber":63,"velocity":49,"programNumber":0},{"time":113165.63498124984,"duration":431.4679999999935,"noteNumber":51,"velocity":40,"programNumber":0},{"time":114460.03898124983,"duration":647.2020000000048,"noteNumber":48,"velocity":59,"programNumber":0},{"time":114460.03898124983,"duration":647.2020000000048,"noteNumber":55,"velocity":59,"programNumber":0},{"time":114460.03898124983,"duration":647.2020000000048,"noteNumber":67,"velocity":69,"programNumber":0},{"time":114460.03898124983,"duration":647.2020000000048,"noteNumber":72,"velocity":82,"programNumber":0},{"time":114460.03898124983,"duration":647.2020000000048,"noteNumber":63,"velocity":69,"programNumber":0},{"time":114460.03898124983,"duration":647.2020000000048,"noteNumber":51,"velocity":59,"programNumber":0},{"time":114460.03898124983,"duration":647.2020000000048,"noteNumber":60,"velocity":70,"programNumber":0},{"time":115215.10798124984,"duration":107.86699999999837,"noteNumber":67,"velocity":70,"programNumber":0},{"time":115322.97498124983,"duration":323.6009999999951,"noteNumber":75,"velocity":78,"programNumber":0},{"time":115646.57598124983,"duration":107.86699999999837,"noteNumber":72,"velocity":70,"programNumber":0},{"time":115754.44298124983,"duration":323.6009999999951,"noteNumber":79,"velocity":79,"programNumber":0},{"time":116078.04398124982,"duration":107.86699999999837,"noteNumber":75,"velocity":70,"programNumber":0},{"time":116185.91098124982,"duration":323.6009999999951,"noteNumber":84,"velocity":79,"programNumber":0},{"time":116509.51198124982,"duration":107.86699999999837,"noteNumber":79,"velocity":70,"programNumber":0},{"time":116617.37898124981,"duration":107.86699999999837,"noteNumber":87,"velocity":84,"programNumber":0},{"time":117048.84698124981,"duration":107.86699999999837,"noteNumber":87,"velocity":84,"programNumber":0},{"time":117911.7829812498,"duration":215.73399999999674,"noteNumber":63,"velocity":41,"programNumber":0},{"time":117911.7829812498,"duration":215.73399999999674,"noteNumber":67,"velocity":39,"programNumber":0},{"time":117911.7829812498,"duration":215.73399999999674,"noteNumber":72,"velocity":46,"programNumber":0},{"time":117911.7829812498,"duration":215.73399999999674,"noteNumber":60,"velocity":34,"programNumber":0},{"time":118343.25098124979,"duration":862.935999999987,"noteNumber":60,"velocity":34,"programNumber":0},{"time":118343.25098124979,"duration":862.935999999987,"noteNumber":67,"velocity":42,"programNumber":0},{"time":118343.25098124979,"duration":862.935999999987,"noteNumber":72,"velocity":50,"programNumber":0},{"time":118343.25098124979,"duration":862.935999999987,"noteNumber":63,"velocity":41,"programNumber":0},{"time":119206.18698124978,"duration":422.4790833333245,"noteNumber":65,"velocity":38,"programNumber":0},{"time":119206.18698124978,"duration":422.4790833333245,"noteNumber":67,"velocity":39,"programNumber":0},{"time":119206.18698124978,"duration":422.4790833333245,"noteNumber":62,"velocity":32,"programNumber":0},{"time":119215.17589791644,"duration":422.4790833333245,"noteNumber":71,"velocity":46,"programNumber":0},{"time":119637.65498124977,"duration":647.2020000000048,"noteNumber":50,"velocity":59,"programNumber":0},{"time":119637.65498124977,"duration":647.2020000000048,"noteNumber":68,"velocity":69,"programNumber":0},{"time":119637.65498124977,"duration":647.2020000000048,"noteNumber":59,"velocity":59,"programNumber":0},{"time":119637.65498124977,"duration":647.2020000000048,"noteNumber":65,"velocity":69,"programNumber":0},{"time":119637.65498124977,"duration":647.2020000000048,"noteNumber":71,"velocity":82,"programNumber":0},{"time":119637.65498124977,"duration":647.2020000000048,"noteNumber":53,"velocity":59,"programNumber":0},{"time":119637.65498124977,"duration":647.2020000000048,"noteNumber":56,"velocity":59,"programNumber":0},{"time":119637.65498124977,"duration":647.2020000000048,"noteNumber":62,"velocity":70,"programNumber":0},{"time":120392.72398124977,"duration":107.86699999999837,"noteNumber":71,"velocity":70,"programNumber":0},{"time":120500.59098124977,"duration":323.6009999999951,"noteNumber":77,"velocity":78,"programNumber":0},{"time":120824.19198124977,"duration":107.86699999999837,"noteNumber":74,"velocity":70,"programNumber":0},{"time":120932.05898124976,"duration":323.6009999999951,"noteNumber":83,"velocity":79,"programNumber":0},{"time":121255.65998124976,"duration":107.86699999999837,"noteNumber":77,"velocity":70,"programNumber":0},{"time":121363.52698124976,"duration":323.6009999999951,"noteNumber":86,"velocity":79,"programNumber":0},{"time":121687.12798124975,"duration":107.86699999999837,"noteNumber":83,"velocity":70,"programNumber":0},{"time":121794.99498124975,"duration":107.86699999999837,"noteNumber":89,"velocity":84,"programNumber":0},{"time":122226.46298124974,"duration":107.86699999999837,"noteNumber":89,"velocity":84,"programNumber":0},{"time":123089.39898124973,"duration":215.73399999999674,"noteNumber":65,"velocity":34,"programNumber":0},{"time":123089.39898124973,"duration":215.73399999999674,"noteNumber":62,"velocity":34,"programNumber":0},{"time":123089.39898124973,"duration":215.73399999999674,"noteNumber":71,"velocity":39,"programNumber":0},{"time":123089.39898124973,"duration":215.73399999999674,"noteNumber":74,"velocity":46,"programNumber":0},{"time":123089.39898124973,"duration":215.73399999999674,"noteNumber":68,"velocity":41,"programNumber":0},{"time":123520.86698124972,"duration":862.935999999987,"noteNumber":62,"velocity":34,"programNumber":0},{"time":123520.86698124972,"duration":862.935999999987,"noteNumber":68,"velocity":41,"programNumber":0},{"time":123520.86698124972,"duration":862.935999999987,"noteNumber":71,"velocity":42,"programNumber":0},{"time":123520.86698124972,"duration":862.935999999987,"noteNumber":74,"velocity":50,"programNumber":0},{"time":123520.86698124972,"duration":862.935999999987,"noteNumber":65,"velocity":34,"programNumber":0},{"time":124383.80298124971,"duration":323.6009999999951,"noteNumber":72,"velocity":46,"programNumber":0},{"time":124707.4039812497,"duration":53.933499999999185,"noteNumber":72,"velocity":45,"programNumber":0},{"time":124761.3374812497,"duration":53.933499999999185,"noteNumber":75,"velocity":48,"programNumber":0},{"time":124383.80298124971,"duration":431.4679999999935,"noteNumber":63,"velocity":32,"programNumber":0},{"time":124383.80298124971,"duration":431.4679999999935,"noteNumber":67,"velocity":38,"programNumber":0},{"time":124815.2709812497,"duration":647.2020000000048,"noteNumber":79,"velocity":53,"programNumber":0},{"time":125462.47298124971,"duration":215.73399999999674,"noteNumber":77,"velocity":41,"programNumber":0},{"time":125678.2069812497,"duration":431.4679999999935,"noteNumber":51,"velocity":29,"programNumber":0},{"time":125678.2069812497,"duration":431.4679999999935,"noteNumber":75,"velocity":51,"programNumber":0},{"time":125678.2069812497,"duration":431.4679999999935,"noteNumber":60,"velocity":35,"programNumber":0},{"time":125678.2069812497,"duration":431.4679999999935,"noteNumber":55,"velocity":29,"programNumber":0},{"time":126109.6749812497,"duration":862.9360000000015,"noteNumber":59,"velocity":39,"programNumber":0},{"time":126109.6749812497,"duration":862.9360000000015,"noteNumber":74,"velocity":47,"programNumber":0},{"time":126109.6749812497,"duration":862.9360000000015,"noteNumber":53,"velocity":33,"programNumber":0},{"time":126109.6749812497,"duration":862.9360000000015,"noteNumber":56,"velocity":33,"programNumber":0},{"time":126972.6109812497,"duration":323.6009999999951,"noteNumber":72,"velocity":39,"programNumber":0},{"time":127296.2119812497,"duration":35.95566666666127,"noteNumber":67,"velocity":27,"programNumber":0},{"time":127332.16764791636,"duration":35.95566666666127,"noteNumber":72,"velocity":45,"programNumber":0},{"time":127368.12331458302,"duration":35.95566666666127,"noteNumber":75,"velocity":48,"programNumber":0},{"time":126972.6109812497,"duration":431.46799999997893,"noteNumber":51,"velocity":28,"programNumber":0},{"time":126972.6109812497,"duration":431.46799999997893,"noteNumber":55,"velocity":28,"programNumber":0},{"time":126972.6109812497,"duration":431.46799999997893,"noteNumber":60,"velocity":34,"programNumber":0},{"time":127404.07898124968,"duration":647.2020000000048,"noteNumber":79,"velocity":53,"programNumber":0},{"time":128051.28098124969,"duration":215.73399999999674,"noteNumber":77,"velocity":41,"programNumber":0},{"time":128267.01498124968,"duration":431.4679999999935,"noteNumber":67,"velocity":35,"programNumber":0},{"time":128267.01498124968,"duration":431.4679999999935,"noteNumber":72,"velocity":43,"programNumber":0},{"time":128267.01498124968,"duration":431.4679999999935,"noteNumber":75,"velocity":51,"programNumber":0},{"time":128267.01498124968,"duration":431.4679999999935,"noteNumber":63,"velocity":29,"programNumber":0},{"time":128698.48298124968,"duration":862.9360000000015,"noteNumber":65,"velocity":33,"programNumber":0},{"time":128698.48298124968,"duration":862.9360000000015,"noteNumber":71,"velocity":39,"programNumber":0},{"time":128698.48298124968,"duration":862.9360000000015,"noteNumber":74,"velocity":47,"programNumber":0},{"time":128698.48298124968,"duration":862.9360000000015,"noteNumber":68,"velocity":39,"programNumber":0},{"time":129561.41898124968,"duration":323.6009999999951,"noteNumber":72,"velocity":39,"programNumber":0},{"time":129885.01998124967,"duration":35.95566666666127,"noteNumber":67,"velocity":60,"programNumber":0},{"time":129920.97564791633,"duration":35.95566666666127,"noteNumber":72,"velocity":63,"programNumber":0},{"time":129956.931314583,"duration":35.95566666666127,"noteNumber":75,"velocity":69,"programNumber":0},{"time":129561.41898124968,"duration":431.46799999997893,"noteNumber":63,"velocity":28,"programNumber":0},{"time":129992.88698124966,"duration":647.2020000000048,"noteNumber":79,"velocity":81,"programNumber":0},{"time":129992.88698124966,"duration":647.2020000000048,"noteNumber":67,"velocity":69,"programNumber":0},{"time":130640.08898124966,"duration":215.73399999999674,"noteNumber":65,"velocity":51,"programNumber":0},{"time":130640.08898124966,"duration":215.73399999999674,"noteNumber":77,"velocity":61,"programNumber":0},{"time":130855.82298124966,"duration":431.4679999999935,"noteNumber":51,"velocity":39,"programNumber":0},{"time":130855.82298124966,"duration":431.4679999999935,"noteNumber":55,"velocity":39,"programNumber":0},{"time":130855.82298124966,"duration":431.4679999999935,"noteNumber":60,"velocity":47,"programNumber":0},{"time":130855.82298124966,"duration":862.935999999987,"noteNumber":63,"velocity":62,"programNumber":0},{"time":130855.82298124966,"duration":862.935999999987,"noteNumber":75,"velocity":73,"programNumber":0},{"time":131718.75898124964,"duration":107.86699999999837,"noteNumber":62,"velocity":61,"programNumber":0},{"time":131718.75898124964,"duration":107.86699999999837,"noteNumber":74,"velocity":72,"programNumber":0},{"time":131287.29098124965,"duration":862.935999999987,"noteNumber":56,"velocity":45,"programNumber":0},{"time":131287.29098124965,"duration":862.935999999987,"noteNumber":59,"velocity":53,"programNumber":0},{"time":131287.29098124965,"duration":862.935999999987,"noteNumber":53,"velocity":45,"programNumber":0},{"time":132150.22698124964,"duration":431.4680000000226,"noteNumber":51,"velocity":39,"programNumber":0},{"time":132150.22698124964,"duration":431.4680000000226,"noteNumber":55,"velocity":46,"programNumber":0},{"time":132150.22698124964,"duration":862.9360000000161,"noteNumber":60,"velocity":63,"programNumber":0},{"time":132150.22698124964,"duration":862.9360000000161,"noteNumber":72,"velocity":75,"programNumber":0},{"time":133013.16298124965,"duration":107.86699999999837,"noteNumber":71,"velocity":75,"programNumber":0},{"time":133013.16298124965,"duration":107.86699999999837,"noteNumber":59,"velocity":63,"programNumber":0},{"time":132581.69498124966,"duration":862.935999999987,"noteNumber":50,"velocity":46,"programNumber":0},{"time":132581.69498124966,"duration":862.935999999987,"noteNumber":53,"velocity":56,"programNumber":0},{"time":133444.63098124965,"duration":431.4679999999935,"noteNumber":48,"velocity":41,"programNumber":0},{"time":133444.63098124965,"duration":431.4679999999935,"noteNumber":51,"velocity":49,"programNumber":0},{"time":133876.09898124964,"duration":431.4679999999935,"noteNumber":47,"velocity":56,"programNumber":0},{"time":133444.63098124965,"duration":862.935999999987,"noteNumber":56,"velocity":62,"programNumber":0},{"time":133444.63098124965,"duration":862.935999999987,"noteNumber":68,"velocity":74,"programNumber":0},{"time":133876.09898124964,"duration":431.4679999999935,"noteNumber":50,"velocity":47,"programNumber":0},{"time":134307.56698124963,"duration":215.73399999999674,"noteNumber":67,"velocity":68,"programNumber":0},{"time":134307.56698124963,"duration":215.73399999999674,"noteNumber":55,"velocity":58,"programNumber":0},{"time":135601.97098124961,"duration":143.8226666666742,"noteNumber":59,"velocity":42,"programNumber":0},{"time":135745.7936479163,"duration":143.8226666666742,"noteNumber":62,"velocity":35,"programNumber":0},{"time":135889.61631458296,"duration":143.8226666666742,"noteNumber":65,"velocity":35,"programNumber":0},{"time":136033.43898124964,"duration":143.8226666666451,"noteNumber":68,"velocity":43,"programNumber":0},{"time":136177.26164791628,"duration":143.822666666616,"noteNumber":67,"velocity":36,"programNumber":0},{"time":136321.0843145829,"duration":143.8226666666451,"noteNumber":65,"velocity":36,"programNumber":0},{"time":136033.43898124964,"duration":431.46799999990617,"noteNumber":50,"velocity":28,"programNumber":0},{"time":136033.43898124964,"duration":431.46799999990617,"noteNumber":56,"velocity":34,"programNumber":0},{"time":136033.43898124964,"duration":431.46799999990617,"noteNumber":53,"velocity":28,"programNumber":0},{"time":136033.43898124964,"duration":431.46799999990617,"noteNumber":47,"velocity":28,"programNumber":0},{"time":136464.90698124954,"duration":107.86699999999837,"noteNumber":48,"velocity":28,"programNumber":0},{"time":136464.90698124954,"duration":107.86699999999837,"noteNumber":63,"velocity":43,"programNumber":0},{"time":136464.90698124954,"duration":107.86699999999837,"noteNumber":55,"velocity":34,"programNumber":0},{"time":136464.90698124954,"duration":107.86699999999837,"noteNumber":51,"velocity":28,"programNumber":0},{"time":138190.77898124955,"duration":143.8226666666742,"noteNumber":53,"velocity":42,"programNumber":0},{"time":138334.60164791622,"duration":143.8226666666742,"noteNumber":56,"velocity":35,"programNumber":0},{"time":138478.4243145829,"duration":143.8226666666742,"noteNumber":62,"velocity":35,"programNumber":0},{"time":138622.24698124957,"duration":143.8226666666451,"noteNumber":65,"velocity":43,"programNumber":0},{"time":138766.0696479162,"duration":143.822666666616,"noteNumber":63,"velocity":36,"programNumber":0},{"time":138909.89231458283,"duration":143.8226666666451,"noteNumber":62,"velocity":36,"programNumber":0},{"time":138622.24698124957,"duration":431.46799999990617,"noteNumber":50,"velocity":34,"programNumber":0},{"time":138622.24698124957,"duration":431.46799999990617,"noteNumber":44,"velocity":28,"programNumber":0},{"time":138622.24698124957,"duration":431.46799999990617,"noteNumber":41,"velocity":28,"programNumber":0},{"time":139053.71498124948,"duration":107.86699999999837,"noteNumber":51,"velocity":34,"programNumber":0},{"time":139053.71498124948,"duration":107.86699999999837,"noteNumber":60,"velocity":43,"programNumber":0},{"time":139053.71498124948,"duration":107.86699999999837,"noteNumber":48,"velocity":28,"programNumber":0},{"time":139053.71498124948,"duration":107.86699999999837,"noteNumber":43,"velocity":28,"programNumber":0},{"time":140779.58698124936,"duration":143.8226666666451,"noteNumber":55,"velocity":66,"programNumber":0},{"time":140923.409647916,"duration":143.8226666666742,"noteNumber":59,"velocity":69,"programNumber":0},{"time":141067.23231458268,"duration":143.8226666666742,"noteNumber":62,"velocity":72,"programNumber":0},{"time":141211.05498124936,"duration":143.8226666666451,"noteNumber":65,"velocity":75,"programNumber":0},{"time":141211.05498124936,"duration":215.73399999996764,"noteNumber":31,"velocity":73,"programNumber":0},{"time":141211.05498124936,"duration":215.73399999996764,"noteNumber":43,"velocity":73,"programNumber":0},{"time":141354.877647916,"duration":143.8226666666451,"noteNumber":62,"velocity":67,"programNumber":0},{"time":141498.70031458265,"duration":143.8226666666451,"noteNumber":59,"velocity":67,"programNumber":0},{"time":141642.5229812493,"duration":647.2019999999902,"noteNumber":39,"velocity":67,"programNumber":0},{"time":141642.5229812493,"duration":647.2019999999902,"noteNumber":36,"velocity":67,"programNumber":0},{"time":141642.5229812493,"duration":647.2019999999902,"noteNumber":51,"velocity":79,"programNumber":0},{"time":141642.5229812493,"duration":647.2019999999902,"noteNumber":60,"velocity":94,"programNumber":0},{"time":141642.5229812493,"duration":647.2019999999902,"noteNumber":55,"velocity":79,"programNumber":0},{"time":141642.5229812493,"duration":647.2019999999902,"noteNumber":48,"velocity":80,"programNumber":0},{"time":141642.5229812493,"duration":647.2019999999902,"noteNumber":43,"velocity":67,"programNumber":0},{"time":142397.59198124928,"duration":107.86699999999837,"noteNumber":60,"velocity":70,"programNumber":0},{"time":142505.45898124928,"duration":323.6009999999951,"noteNumber":67,"velocity":78,"programNumber":0},{"time":142829.05998124927,"duration":107.86699999999837,"noteNumber":63,"velocity":70,"programNumber":0},{"time":142936.92698124927,"duration":323.6009999999951,"noteNumber":72,"velocity":85,"programNumber":0},{"time":143260.52798124927,"duration":107.86699999999837,"noteNumber":67,"velocity":72,"programNumber":0},{"time":143368.39498124926,"duration":323.6009999999951,"noteNumber":75,"velocity":80,"programNumber":0},{"time":143691.99598124926,"duration":107.86699999999837,"noteNumber":72,"velocity":83,"programNumber":0},{"time":143799.86298124926,"duration":107.86699999999837,"noteNumber":51,"velocity":58,"programNumber":0},{"time":143799.86298124926,"duration":107.86699999999837,"noteNumber":48,"velocity":58,"programNumber":0},{"time":143799.86298124926,"duration":107.86699999999837,"noteNumber":79,"velocity":96,"programNumber":0},{"time":143799.86298124926,"duration":107.86699999999837,"noteNumber":67,"velocity":81,"programNumber":0},{"time":143799.86298124926,"duration":107.86699999999837,"noteNumber":55,"velocity":69,"programNumber":0},{"time":144231.33098124925,"duration":107.86699999999837,"noteNumber":55,"velocity":69,"programNumber":0},{"time":144231.33098124925,"duration":107.86699999999837,"noteNumber":47,"velocity":58,"programNumber":0},{"time":144231.33098124925,"duration":107.86699999999837,"noteNumber":79,"velocity":96,"programNumber":0},{"time":144231.33098124925,"duration":107.86699999999837,"noteNumber":67,"velocity":81,"programNumber":0},{"time":144231.33098124925,"duration":107.86699999999837,"noteNumber":50,"velocity":58,"programNumber":0},{"time":144986.39998124924,"duration":107.86699999999837,"noteNumber":59,"velocity":70,"programNumber":0},{"time":145094.26698124924,"duration":323.6009999999951,"noteNumber":67,"velocity":78,"programNumber":0},{"time":145417.86798124923,"duration":107.86699999999837,"noteNumber":62,"velocity":70,"programNumber":0},{"time":145525.73498124923,"duration":323.6009999999951,"noteNumber":71,"velocity":85,"programNumber":0},{"time":145849.33598124923,"duration":107.86699999999837,"noteNumber":67,"velocity":74,"programNumber":0},{"time":145957.20298124923,"duration":323.6009999999951,"noteNumber":74,"velocity":86,"programNumber":0},{"time":146280.80398124922,"duration":107.86699999999837,"noteNumber":71,"velocity":83,"programNumber":0},{"time":146388.67098124922,"duration":107.86699999999837,"noteNumber":50,"velocity":58,"programNumber":0},{"time":146388.67098124922,"duration":107.86699999999837,"noteNumber":55,"velocity":69,"programNumber":0},{"time":146388.67098124922,"duration":107.86699999999837,"noteNumber":79,"velocity":96,"programNumber":0},{"time":146388.67098124922,"duration":107.86699999999837,"noteNumber":67,"velocity":81,"programNumber":0},{"time":146388.67098124922,"duration":107.86699999999837,"noteNumber":47,"velocity":58,"programNumber":0},{"time":146820.1389812492,"duration":107.86699999999837,"noteNumber":51,"velocity":58,"programNumber":0},{"time":146820.1389812492,"duration":107.86699999999837,"noteNumber":55,"velocity":69,"programNumber":0},{"time":146820.1389812492,"duration":107.86699999999837,"noteNumber":79,"velocity":96,"programNumber":0},{"time":146820.1389812492,"duration":107.86699999999837,"noteNumber":67,"velocity":81,"programNumber":0},{"time":146820.1389812492,"duration":107.86699999999837,"noteNumber":48,"velocity":58,"programNumber":0},{"time":147575.2079812492,"duration":107.86699999999837,"noteNumber":63,"velocity":70,"programNumber":0},{"time":147683.0749812492,"duration":323.6009999999951,"noteNumber":67,"velocity":78,"programNumber":0},{"time":148006.6759812492,"duration":107.86699999999837,"noteNumber":63,"velocity":70,"programNumber":0},{"time":148114.5429812492,"duration":323.6009999999951,"noteNumber":72,"velocity":85,"programNumber":0},{"time":148438.1439812492,"duration":107.86699999999837,"noteNumber":67,"velocity":74,"programNumber":0},{"time":148546.0109812492,"duration":323.6009999999951,"noteNumber":75,"velocity":86,"programNumber":0},{"time":148869.61198124918,"duration":107.86699999999837,"noteNumber":72,"velocity":83,"programNumber":0},{"time":148977.47898124918,"duration":107.86699999999837,"noteNumber":55,"velocity":58,"programNumber":0},{"time":148977.47898124918,"duration":107.86699999999837,"noteNumber":60,"velocity":69,"programNumber":0},{"time":148977.47898124918,"duration":107.86699999999837,"noteNumber":51,"velocity":58,"programNumber":0},{"time":148977.47898124918,"duration":323.6009999999951,"noteNumber":79,"velocity":90,"programNumber":0},{"time":149301.07998124918,"duration":107.86699999999837,"noteNumber":75,"velocity":83,"programNumber":0},{"time":149408.94698124917,"duration":107.86699999999837,"noteNumber":53,"velocity":58,"programNumber":0},{"time":149408.94698124917,"duration":107.86699999999837,"noteNumber":74,"velocity":96,"programNumber":0},{"time":149408.94698124917,"duration":107.86699999999837,"noteNumber":56,"velocity":58,"programNumber":0},{"time":149408.94698124917,"duration":107.86699999999837,"noteNumber":62,"velocity":69,"programNumber":0},{"time":149840.41498124917,"duration":107.86699999999837,"noteNumber":89,"velocity":96,"programNumber":0},{"time":150703.35098124915,"duration":107.86699999999837,"noteNumber":55,"velocity":58,"programNumber":0},{"time":150703.35098124915,"duration":107.86699999999837,"noteNumber":71,"velocity":96,"programNumber":0},{"time":150703.35098124915,"duration":107.86699999999837,"noteNumber":62,"velocity":69,"programNumber":0},{"time":150703.35098124915,"duration":107.86699999999837,"noteNumber":59,"velocity":58,"programNumber":0},{"time":151134.81898124915,"duration":107.86699999999837,"noteNumber":86,"velocity":96,"programNumber":0},{"time":151997.75498124913,"duration":107.86699999999837,"noteNumber":51,"velocity":58,"programNumber":0},{"time":151997.75498124913,"duration":107.86699999999837,"noteNumber":48,"velocity":58,"programNumber":0},{"time":151997.75498124913,"duration":107.86699999999837,"noteNumber":72,"velocity":96,"programNumber":0},{"time":151997.75498124913,"duration":107.86699999999837,"noteNumber":55,"velocity":58,"programNumber":0},{"time":151997.75498124913,"duration":107.86699999999837,"noteNumber":60,"velocity":69,"programNumber":0},{"time":152429.22298124913,"duration":107.86699999999837,"noteNumber":84,"velocity":96,"programNumber":0},{"time":156743.9029812491,"duration":431.4679999999935,"noteNumber":75,"velocity":45,"programNumber":0},{"time":156312.4349812491,"duration":862.935999999987,"noteNumber":67,"velocity":50,"programNumber":0},{"time":155880.9669812491,"duration":1294.4039999999804,"noteNumber":61,"velocity":50,"programNumber":0},{"time":157175.37098124909,"duration":862.935999999987,"noteNumber":75,"velocity":50,"programNumber":0},{"time":154586.56298124912,"duration":3883.2119999999413,"noteNumber":63,"velocity":69,"programNumber":0},{"time":157175.37098124909,"duration":1294.4039999999804,"noteNumber":60,"velocity":49,"programNumber":0},{"time":157175.37098124909,"duration":1294.4039999999804,"noteNumber":68,"velocity":42,"programNumber":0},{"time":158038.30698124907,"duration":862.9360000000161,"noteNumber":75,"velocity":45,"programNumber":0},{"time":158901.2429812491,"duration":431.4679999999935,"noteNumber":77,"velocity":45,"programNumber":0},{"time":158469.77498124907,"duration":1294.4040000000095,"noteNumber":58,"velocity":28,"programNumber":0},{"time":158469.77498124907,"duration":1294.4040000000095,"noteNumber":67,"velocity":42,"programNumber":0},{"time":158469.77498124907,"duration":1294.4040000000095,"noteNumber":61,"velocity":34,"programNumber":0},{"time":159332.71098124908,"duration":862.935999999987,"noteNumber":73,"velocity":44,"programNumber":0},{"time":160195.64698124907,"duration":431.4679999999935,"noteNumber":71,"velocity":45,"programNumber":0},{"time":160627.11498124906,"duration":431.4679999999935,"noteNumber":72,"velocity":45,"programNumber":0},{"time":159764.17898124908,"duration":1294.4039999999804,"noteNumber":68,"velocity":42,"programNumber":0},{"time":159764.17898124908,"duration":1294.4039999999804,"noteNumber":56,"velocity":28,"programNumber":0},{"time":159764.17898124908,"duration":1294.4039999999804,"noteNumber":63,"velocity":33,"programNumber":0},{"time":161921.51898124904,"duration":431.4679999999935,"noteNumber":84,"velocity":45,"programNumber":0},{"time":161490.05098124905,"duration":862.935999999987,"noteNumber":76,"velocity":50,"programNumber":0},{"time":161058.58298124906,"duration":1294.4039999999804,"noteNumber":70,"velocity":50,"programNumber":0},{"time":162352.98698124904,"duration":862.935999999987,"noteNumber":84,"velocity":50,"programNumber":0},{"time":161058.58298124906,"duration":2588.807999999961,"noteNumber":72,"velocity":60,"programNumber":0},{"time":162352.98698124904,"duration":1294.4039999999804,"noteNumber":68,"velocity":49,"programNumber":0},{"time":162352.98698124904,"duration":1294.4039999999804,"noteNumber":77,"velocity":42,"programNumber":0},{"time":163215.92298124902,"duration":862.9360000000161,"noteNumber":84,"velocity":45,"programNumber":0},{"time":164078.85898124904,"duration":431.4679999999935,"noteNumber":85,"velocity":45,"programNumber":0},{"time":163647.39098124902,"duration":1294.4040000000095,"noteNumber":70,"velocity":34,"programNumber":0},{"time":163647.39098124902,"duration":1294.4040000000095,"noteNumber":76,"velocity":42,"programNumber":0},{"time":163647.39098124902,"duration":1294.4040000000095,"noteNumber":67,"velocity":28,"programNumber":0},{"time":164510.32698124903,"duration":862.935999999987,"noteNumber":82,"velocity":44,"programNumber":0},{"time":165373.26298124902,"duration":431.4679999999935,"noteNumber":79,"velocity":45,"programNumber":0},{"time":165804.730981249,"duration":431.4679999999935,"noteNumber":80,"velocity":45,"programNumber":0},{"time":164941.79498124903,"duration":1294.4039999999804,"noteNumber":72,"velocity":42,"programNumber":0},{"time":164941.79498124903,"duration":1294.4039999999804,"noteNumber":65,"velocity":28,"programNumber":0},{"time":164941.79498124903,"duration":1294.4039999999804,"noteNumber":68,"velocity":33,"programNumber":0},{"time":167099.134981249,"duration":431.4679999999935,"noteNumber":80,"velocity":45,"programNumber":0},{"time":166667.666981249,"duration":862.935999999987,"noteNumber":72,"velocity":50,"programNumber":0},{"time":166236.198981249,"duration":1294.4039999999804,"noteNumber":66,"velocity":50,"programNumber":0},{"time":167530.602981249,"duration":862.935999999987,"noteNumber":80,"velocity":50,"programNumber":0},{"time":166236.198981249,"duration":2588.807999999961,"noteNumber":68,"velocity":60,"programNumber":0},{"time":167530.602981249,"duration":1294.4039999999804,"noteNumber":65,"velocity":49,"programNumber":0},{"time":167530.602981249,"duration":1294.4039999999804,"noteNumber":73,"velocity":42,"programNumber":0},{"time":168393.53898124897,"duration":862.9360000000161,"noteNumber":80,"velocity":45,"programNumber":0},{"time":169256.474981249,"duration":431.4679999999935,"noteNumber":82,"velocity":45,"programNumber":0},{"time":168825.00698124897,"duration":1294.4040000000095,"noteNumber":66,"velocity":44,"programNumber":0},{"time":168825.00698124897,"duration":1294.4040000000095,"noteNumber":72,"velocity":42,"programNumber":0},{"time":168825.00698124897,"duration":1294.4040000000095,"noteNumber":63,"velocity":44,"programNumber":0},{"time":169687.94298124898,"duration":862.935999999987,"noteNumber":78,"velocity":44,"programNumber":0},{"time":170550.87898124897,"duration":431.4679999999935,"noteNumber":76,"velocity":52,"programNumber":0},{"time":170119.41098124898,"duration":1294.4039999999804,"noteNumber":65,"velocity":33,"programNumber":0},{"time":170119.41098124898,"duration":1294.4039999999804,"noteNumber":68,"velocity":49,"programNumber":0},{"time":170119.41098124898,"duration":1294.4039999999804,"noteNumber":61,"velocity":28,"programNumber":0},{"time":170982.34698124896,"duration":862.9360000000161,"noteNumber":77,"velocity":52,"programNumber":0},{"time":171845.28298124898,"duration":431.4679999999935,"noteNumber":78,"velocity":55,"programNumber":0},{"time":171413.81498124896,"duration":1294.4040000000095,"noteNumber":63,"velocity":48,"programNumber":0},{"time":171413.81498124896,"duration":1294.4040000000095,"noteNumber":69,"velocity":50,"programNumber":0},{"time":171413.81498124896,"duration":1294.4040000000095,"noteNumber":59,"velocity":42,"programNumber":0},{"time":172276.75098124897,"duration":862.935999999987,"noteNumber":75,"velocity":50,"programNumber":0},{"time":173139.68698124896,"duration":431.4679999999935,"noteNumber":75,"velocity":45,"programNumber":0},{"time":172708.21898124897,"duration":1294.4039999999804,"noteNumber":58,"velocity":33,"programNumber":0},{"time":172708.21898124897,"duration":1294.4039999999804,"noteNumber":65,"velocity":42,"programNumber":0},{"time":173571.15498124895,"duration":862.935999999987,"noteNumber":74,"velocity":45,"programNumber":0},{"time":174434.09098124894,"duration":431.4679999999935,"noteNumber":75,"velocity":45,"programNumber":0},{"time":174002.62298124895,"duration":862.935999999987,"noteNumber":66,"velocity":42,"programNumber":0},{"time":174865.55898124893,"duration":431.4679999999935,"noteNumber":66,"velocity":33,"programNumber":0},{"time":174865.55898124893,"duration":431.4679999999935,"noteNumber":63,"velocity":28,"programNumber":0},{"time":174002.62298124895,"duration":1294.4039999999804,"noteNumber":57,"velocity":33,"programNumber":0},{"time":175297.02698124893,"duration":431.4679999999935,"noteNumber":65,"velocity":38,"programNumber":0},{"time":175297.02698124893,"duration":431.4679999999935,"noteNumber":62,"velocity":32,"programNumber":0},{"time":175728.49498124892,"duration":431.4679999999935,"noteNumber":53,"velocity":33,"programNumber":0},{"time":176159.96298124891,"duration":431.4679999999935,"noteNumber":55,"velocity":37,"programNumber":0},{"time":176591.4309812489,"duration":431.4679999999935,"noteNumber":56,"velocity":41,"programNumber":0},{"time":177022.8989812489,"duration":215.73399999999674,"noteNumber":72,"velocity":38,"programNumber":0},{"time":177022.8989812489,"duration":431.4679999999935,"noteNumber":52,"velocity":33,"programNumber":0},{"time":177454.3669812489,"duration":215.73399999999674,"noteNumber":72,"velocity":38,"programNumber":0},{"time":177454.3669812489,"duration":431.4679999999935,"noteNumber":53,"velocity":35,"programNumber":0},{"time":175297.02698124893,"duration":2588.807999999961,"noteNumber":46,"velocity":33,"programNumber":0},{"time":177885.8349812489,"duration":431.4679999999935,"noteNumber":55,"velocity":42,"programNumber":0},{"time":177885.8349812489,"duration":431.4679999999935,"noteNumber":72,"velocity":46,"programNumber":0},{"time":178317.30298124888,"duration":431.4679999999935,"noteNumber":50,"velocity":33,"programNumber":0},{"time":178317.30298124888,"duration":431.4679999999935,"noteNumber":70,"velocity":38,"programNumber":0},{"time":178748.77098124888,"duration":431.4679999999935,"noteNumber":51,"velocity":33,"programNumber":0},{"time":179180.23898124887,"duration":431.4679999999935,"noteNumber":53,"velocity":40,"programNumber":0},{"time":179611.70698124886,"duration":215.73399999999674,"noteNumber":68,"velocity":38,"programNumber":0},{"time":179611.70698124886,"duration":431.4679999999935,"noteNumber":48,"velocity":33,"programNumber":0},{"time":180043.17498124886,"duration":215.73399999999674,"noteNumber":68,"velocity":38,"programNumber":0},{"time":180043.17498124886,"duration":431.4679999999935,"noteNumber":50,"velocity":33,"programNumber":0},{"time":177885.8349812489,"duration":2588.807999999961,"noteNumber":46,"velocity":42,"programNumber":0},{"time":180474.64298124885,"duration":431.4679999999935,"noteNumber":51,"velocity":39,"programNumber":0},{"time":180474.64298124885,"duration":431.4679999999935,"noteNumber":68,"velocity":43,"programNumber":0},{"time":180906.11098124884,"duration":431.4679999999935,"noteNumber":53,"velocity":33,"programNumber":0},{"time":180906.11098124884,"duration":431.4679999999935,"noteNumber":67,"velocity":38,"programNumber":0},{"time":181337.57898124884,"duration":431.4679999999935,"noteNumber":55,"velocity":36,"programNumber":0},{"time":181984.78098124883,"duration":215.73399999999674,"noteNumber":72,"velocity":37,"programNumber":0},{"time":181769.04698124883,"duration":431.4679999999935,"noteNumber":56,"velocity":40,"programNumber":0},{"time":182200.51498124882,"duration":215.73399999999674,"noteNumber":71,"velocity":38,"programNumber":0},{"time":182416.24898124882,"duration":215.73399999999674,"noteNumber":72,"velocity":34,"programNumber":0},{"time":182200.51498124882,"duration":431.4679999999935,"noteNumber":52,"velocity":33,"programNumber":0},{"time":182631.98298124882,"duration":215.73399999999674,"noteNumber":74,"velocity":43,"programNumber":0},{"time":182847.7169812488,"duration":215.73399999999674,"noteNumber":72,"velocity":38,"programNumber":0},{"time":182631.98298124882,"duration":431.4679999999935,"noteNumber":53,"velocity":33,"programNumber":0},{"time":180474.64298124885,"duration":2588.807999999961,"noteNumber":46,"velocity":39,"programNumber":0},{"time":183279.1849812488,"duration":215.73399999999674,"noteNumber":70,"velocity":36,"programNumber":0},{"time":183063.4509812488,"duration":431.4679999999935,"noteNumber":55,"velocity":42,"programNumber":0},{"time":183494.9189812488,"duration":215.73399999999674,"noteNumber":69,"velocity":38,"programNumber":0},{"time":183710.6529812488,"duration":215.73399999999674,"noteNumber":70,"velocity":36,"programNumber":0},{"time":183494.9189812488,"duration":431.4679999999935,"noteNumber":50,"velocity":33,"programNumber":0},{"time":183926.3869812488,"duration":215.73399999999674,"noteNumber":72,"velocity":44,"programNumber":0},{"time":184142.1209812488,"duration":215.73399999999674,"noteNumber":70,"velocity":38,"programNumber":0},{"time":183926.3869812488,"duration":431.4679999999935,"noteNumber":51,"velocity":33,"programNumber":0},{"time":184573.5889812488,"duration":215.73399999999674,"noteNumber":68,"velocity":36,"programNumber":0},{"time":184357.8549812488,"duration":431.4679999999935,"noteNumber":53,"velocity":40,"programNumber":0},{"time":184789.32298124878,"duration":215.73399999999674,"noteNumber":67,"velocity":38,"programNumber":0},{"time":185005.05698124878,"duration":215.73399999999674,"noteNumber":68,"velocity":35,"programNumber":0},{"time":184789.32298124878,"duration":431.4679999999935,"noteNumber":48,"velocity":33,"programNumber":0},{"time":185220.79098124878,"duration":215.73399999999674,"noteNumber":70,"velocity":44,"programNumber":0},{"time":185436.52498124877,"duration":215.73399999999674,"noteNumber":68,"velocity":37,"programNumber":0},{"time":185220.79098124878,"duration":431.4679999999935,"noteNumber":50,"velocity":33,"programNumber":0},{"time":183063.4509812488,"duration":2588.807999999961,"noteNumber":46,"velocity":42,"programNumber":0},{"time":185652.25898124877,"duration":215.73399999999674,"noteNumber":51,"velocity":40,"programNumber":0},{"time":185867.99298124877,"duration":215.73399999996764,"noteNumber":58,"velocity":28,"programNumber":0},{"time":186083.72698124874,"duration":215.73399999999674,"noteNumber":55,"velocity":33,"programNumber":0},{"time":186299.46098124873,"duration":215.73399999999674,"noteNumber":58,"velocity":27,"programNumber":0},{"time":186527.77946458207,"duration":215.73399999999674,"noteNumber":53,"velocity":33,"programNumber":0},{"time":186730.92898124876,"duration":215.73399999999674,"noteNumber":58,"velocity":30,"programNumber":0},{"time":186946.66298124875,"duration":215.73399999999674,"noteNumber":51,"velocity":38,"programNumber":0},{"time":187162.39698124875,"duration":215.73399999999674,"noteNumber":58,"velocity":33,"programNumber":0},{"time":187378.13098124875,"duration":215.73399999999674,"noteNumber":53,"velocity":45,"programNumber":0},{"time":185652.25898124877,"duration":1941.6059999999707,"noteNumber":67,"velocity":46,"programNumber":0},{"time":187593.86498124874,"duration":215.73399999999674,"noteNumber":58,"velocity":37,"programNumber":0},{"time":187593.86498124874,"duration":215.73399999999674,"noteNumber":70,"velocity":56,"programNumber":0},{"time":187809.59898124874,"duration":215.73399999999674,"noteNumber":55,"velocity":48,"programNumber":0},{"time":187809.59898124874,"duration":422.4790833333391,"noteNumber":75,"velocity":62,"programNumber":0},{"time":188025.33298124874,"duration":215.73399999999674,"noteNumber":58,"velocity":43,"programNumber":0},{"time":188241.06698124873,"duration":215.73399999999674,"noteNumber":53,"velocity":55,"programNumber":0},{"time":188456.80098124873,"duration":215.73399999999674,"noteNumber":58,"velocity":40,"programNumber":0},{"time":188672.53498124873,"duration":215.73399999999674,"noteNumber":55,"velocity":48,"programNumber":0},{"time":188888.26898124872,"duration":215.73399999999674,"noteNumber":58,"velocity":30,"programNumber":0},{"time":189104.00298124872,"duration":215.73399999993853,"noteNumber":56,"velocity":40,"programNumber":0},{"time":189319.73698124866,"duration":215.73399999996764,"noteNumber":58,"velocity":33,"programNumber":0},{"time":188241.06698124873,"duration":1294.4039999998931,"noteNumber":75,"velocity":63,"programNumber":0},{"time":189535.47098124863,"duration":215.73399999999674,"noteNumber":53,"velocity":39,"programNumber":0},{"time":189751.20498124862,"duration":215.73399999999674,"noteNumber":58,"velocity":33,"programNumber":0},{"time":189535.47098124863,"duration":431.4679999999935,"noteNumber":74,"velocity":57,"programNumber":0},{"time":189966.93898124862,"duration":215.73399999999674,"noteNumber":55,"velocity":41,"programNumber":0},{"time":190182.67298124862,"duration":215.73399999999674,"noteNumber":58,"velocity":33,"programNumber":0},{"time":190398.4069812486,"duration":215.73399999999674,"noteNumber":56,"velocity":41,"programNumber":0},{"time":190614.1409812486,"duration":215.73399999999674,"noteNumber":58,"velocity":33,"programNumber":0},{"time":190829.8749812486,"duration":215.73399999999674,"noteNumber":50,"velocity":40,"programNumber":0},{"time":191045.6089812486,"duration":215.73399999996764,"noteNumber":58,"velocity":28,"programNumber":0},{"time":191261.34298124857,"duration":215.73399999999674,"noteNumber":53,"velocity":33,"programNumber":0},{"time":191477.07698124857,"duration":215.73399999999674,"noteNumber":58,"velocity":27,"programNumber":0},{"time":191692.81098124856,"duration":215.73399999999674,"noteNumber":51,"velocity":38,"programNumber":0},{"time":191908.54498124856,"duration":215.73399999999674,"noteNumber":58,"velocity":34,"programNumber":0},{"time":190829.8749812486,"duration":1294.4039999999513,"noteNumber":70,"velocity":51,"programNumber":0},{"time":192124.27898124856,"duration":215.73400000002584,"noteNumber":50,"velocity":38,"programNumber":0},{"time":192124.27898124856,"duration":215.73400000002584,"noteNumber":70,"velocity":61,"programNumber":0},{"time":192340.01298124858,"duration":71.91133333332255,"noteNumber":72,"velocity":57,"programNumber":0},{"time":192411.9243145819,"duration":71.91133333332255,"noteNumber":70,"velocity":52,"programNumber":0},{"time":192483.83564791523,"duration":71.91133333332255,"noteNumber":69,"velocity":52,"programNumber":0},{"time":192340.01298124858,"duration":215.73399999996764,"noteNumber":58,"velocity":34,"programNumber":0},{"time":192555.74698124855,"duration":215.73399999999674,"noteNumber":51,"velocity":46,"programNumber":0},{"time":192555.74698124855,"duration":215.73399999999674,"noteNumber":70,"velocity":61,"programNumber":0},{"time":192771.48098124855,"duration":215.73399999999674,"noteNumber":58,"velocity":39,"programNumber":0},{"time":192771.48098124855,"duration":215.73399999999674,"noteNumber":77,"velocity":65,"programNumber":0},{"time":192987.21498124854,"duration":215.73399999999674,"noteNumber":53,"velocity":48,"programNumber":0},{"time":193202.94898124854,"duration":215.73399999999674,"noteNumber":58,"velocity":44,"programNumber":0},{"time":192987.21498124854,"duration":431.4679999999935,"noteNumber":80,"velocity":75,"programNumber":0},{"time":193418.68298124854,"duration":215.73399999996764,"noteNumber":51,"velocity":55,"programNumber":0},{"time":193634.4169812485,"duration":215.73399999999674,"noteNumber":58,"velocity":43,"programNumber":0},{"time":193850.1509812485,"duration":215.73399999993853,"noteNumber":53,"velocity":52,"programNumber":0},{"time":194065.88498124844,"duration":215.73399999996764,"noteNumber":58,"velocity":37,"programNumber":0},{"time":194281.6189812484,"duration":215.73399999999674,"noteNumber":55,"velocity":46,"programNumber":0},{"time":194497.3529812484,"duration":215.73400000002584,"noteNumber":58,"velocity":33,"programNumber":0},{"time":193418.68298124854,"duration":1294.4039999998931,"noteNumber":80,"velocity":78,"programNumber":0},{"time":194713.08698124843,"duration":215.73399999999674,"noteNumber":51,"velocity":44,"programNumber":0},{"time":194928.82098124843,"duration":215.73399999999674,"noteNumber":58,"velocity":39,"programNumber":0},{"time":194713.08698124843,"duration":431.4679999999935,"noteNumber":79,"velocity":69,"programNumber":0},{"time":195144.55498124842,"duration":215.73399999999674,"noteNumber":53,"velocity":41,"programNumber":0},{"time":195360.28898124842,"duration":215.73399999999674,"noteNumber":58,"velocity":33,"programNumber":0},{"time":195576.02298124842,"duration":215.73399999999674,"noteNumber":55,"velocity":41,"programNumber":0},{"time":195791.7569812484,"duration":215.73399999999674,"noteNumber":58,"velocity":33,"programNumber":0},{"time":196007.4909812484,"duration":107.86699999999837,"noteNumber":67,"velocity":56,"programNumber":0},{"time":196007.4909812484,"duration":215.73399999999674,"noteNumber":51,"velocity":40,"programNumber":0},{"time":196223.2249812484,"duration":107.86699999999837,"noteNumber":68,"velocity":58,"programNumber":0},{"time":196223.2249812484,"duration":215.73399999999674,"noteNumber":58,"velocity":28,"programNumber":0},{"time":196438.9589812484,"duration":107.86699999999837,"noteNumber":70,"velocity":60,"programNumber":0},{"time":196438.9589812484,"duration":215.73399999999674,"noteNumber":55,"velocity":33,"programNumber":0},{"time":196654.6929812484,"duration":107.86699999999837,"noteNumber":72,"velocity":62,"programNumber":0},{"time":196654.6929812484,"duration":215.73399999999674,"noteNumber":58,"velocity":27,"programNumber":0},{"time":196870.4269812484,"duration":107.86699999999837,"noteNumber":74,"velocity":64,"programNumber":0},{"time":196870.4269812484,"duration":215.73399999999674,"noteNumber":51,"velocity":40,"programNumber":0},{"time":197086.1609812484,"duration":107.86699999999837,"noteNumber":75,"velocity":65,"programNumber":0},{"time":197086.1609812484,"duration":215.73399999999674,"noteNumber":58,"velocity":31,"programNumber":0},{"time":197301.8949812484,"duration":107.86699999999837,"noteNumber":77,"velocity":68,"programNumber":0},{"time":197301.8949812484,"duration":215.73399999999674,"noteNumber":51,"velocity":43,"programNumber":0},{"time":197517.6289812484,"duration":107.86699999999837,"noteNumber":79,"velocity":70,"programNumber":0},{"time":197517.6289812484,"duration":215.73399999999674,"noteNumber":58,"velocity":38,"programNumber":0},{"time":197733.36298124839,"duration":107.86699999999837,"noteNumber":80,"velocity":73,"programNumber":0},{"time":197733.36298124839,"duration":215.73399999999674,"noteNumber":55,"velocity":52,"programNumber":0},{"time":197949.09698124838,"duration":107.86699999999837,"noteNumber":82,"velocity":76,"programNumber":0},{"time":197949.09698124838,"duration":215.73399999999674,"noteNumber":58,"velocity":45,"programNumber":0},{"time":198164.83098124838,"duration":107.86699999999837,"noteNumber":84,"velocity":79,"programNumber":0},{"time":198164.83098124838,"duration":215.73399999999674,"noteNumber":51,"velocity":54,"programNumber":0},{"time":198380.56498124838,"duration":107.86699999999837,"noteNumber":86,"velocity":81,"programNumber":0},{"time":198380.56498124838,"duration":215.73399999999674,"noteNumber":58,"velocity":47,"programNumber":0},{"time":198596.29898124837,"duration":215.73400000002584,"noteNumber":53,"velocity":52,"programNumber":0},{"time":198812.0329812484,"duration":215.73399999999674,"noteNumber":58,"velocity":43,"programNumber":0},{"time":199027.7669812484,"duration":215.73400000002584,"noteNumber":56,"velocity":51,"programNumber":0},{"time":199243.50098124842,"duration":215.73400000002584,"noteNumber":58,"velocity":40,"programNumber":0},{"time":199459.23498124845,"duration":215.73399999999674,"noteNumber":53,"velocity":46,"programNumber":0},{"time":199674.96898124844,"duration":215.73399999999674,"noteNumber":58,"velocity":37,"programNumber":0},{"time":198596.29898124837,"duration":1294.4040000000678,"noteNumber":87,"velocity":88,"programNumber":0},{"time":199890.70298124844,"duration":215.73399999999674,"noteNumber":53,"velocity":37,"programNumber":0},{"time":200106.43698124844,"duration":215.73399999999674,"noteNumber":58,"velocity":31,"programNumber":0},{"time":199890.70298124844,"duration":431.4679999999935,"noteNumber":86,"velocity":81,"programNumber":0},{"time":200322.17098124843,"duration":215.73399999999674,"noteNumber":56,"velocity":39,"programNumber":0},{"time":200537.90498124843,"duration":215.73399999999674,"noteNumber":58,"velocity":31,"programNumber":0},{"time":200753.63898124843,"duration":215.73399999999674,"noteNumber":53,"velocity":39,"programNumber":0},{"time":200969.37298124842,"duration":213.93621666665422,"noteNumber":58,"velocity":31,"programNumber":0},{"time":201185.10698124842,"duration":107.86699999999837,"noteNumber":58,"velocity":56,"programNumber":0},{"time":201185.10698124842,"duration":215.73399999999674,"noteNumber":50,"velocity":40,"programNumber":0},{"time":201400.84098124842,"duration":107.86699999999837,"noteNumber":60,"velocity":58,"programNumber":0},{"time":201400.84098124842,"duration":215.73399999999674,"noteNumber":58,"velocity":32,"programNumber":0},{"time":201616.5749812484,"duration":107.86699999999837,"noteNumber":62,"velocity":60,"programNumber":0},{"time":201616.5749812484,"duration":215.73399999999674,"noteNumber":53,"velocity":39,"programNumber":0},{"time":201832.3089812484,"duration":107.86699999999837,"noteNumber":63,"velocity":62,"programNumber":0},{"time":201832.3089812484,"duration":215.73399999999674,"noteNumber":58,"velocity":29,"programNumber":0},{"time":202048.0429812484,"duration":107.86699999999837,"noteNumber":65,"velocity":64,"programNumber":0},{"time":202048.0429812484,"duration":215.73399999999674,"noteNumber":50,"velocity":45,"programNumber":0},{"time":202263.7769812484,"duration":107.86699999999837,"noteNumber":67,"velocity":65,"programNumber":0},{"time":202263.7769812484,"duration":215.73399999999674,"noteNumber":58,"velocity":36,"programNumber":0},{"time":202479.5109812484,"duration":107.86699999999837,"noteNumber":68,"velocity":67,"programNumber":0},{"time":202479.5109812484,"duration":215.73399999999674,"noteNumber":50,"velocity":48,"programNumber":0},{"time":202695.2449812484,"duration":107.86699999999837,"noteNumber":70,"velocity":70,"programNumber":0},{"time":202695.2449812484,"duration":215.73399999999674,"noteNumber":58,"velocity":40,"programNumber":0},{"time":202910.9789812484,"duration":107.86699999999837,"noteNumber":72,"velocity":73,"programNumber":0},{"time":202910.9789812484,"duration":215.73399999999674,"noteNumber":53,"velocity":53,"programNumber":0},{"time":203126.7129812484,"duration":107.86699999999837,"noteNumber":74,"velocity":76,"programNumber":0},{"time":203126.7129812484,"duration":215.73399999999674,"noteNumber":58,"velocity":45,"programNumber":0},{"time":203342.4469812484,"duration":107.86699999999837,"noteNumber":75,"velocity":79,"programNumber":0},{"time":203342.4469812484,"duration":215.73399999999674,"noteNumber":50,"velocity":60,"programNumber":0},{"time":203558.18098124838,"duration":107.86699999999837,"noteNumber":77,"velocity":82,"programNumber":0},{"time":203558.18098124838,"duration":215.73399999999674,"noteNumber":58,"velocity":50,"programNumber":0},{"time":203989.64898124838,"duration":215.73399999999674,"noteNumber":51,"velocity":43,"programNumber":0},{"time":204205.38298124837,"duration":215.73399999999674,"noteNumber":50,"velocity":61,"programNumber":0},{"time":204421.11698124837,"duration":215.73399999999674,"noteNumber":51,"velocity":48,"programNumber":0},{"time":204636.85098124837,"duration":215.73399999999674,"noteNumber":50,"velocity":60,"programNumber":0},{"time":204852.58498124836,"duration":215.73399999999674,"noteNumber":51,"velocity":50,"programNumber":0},{"time":203773.91498124838,"duration":1294.4039999999804,"noteNumber":79,"velocity":89,"programNumber":0},{"time":205068.31898124836,"duration":215.73399999999674,"noteNumber":43,"velocity":67,"programNumber":0},{"time":205284.05298124836,"duration":215.73399999999674,"noteNumber":51,"velocity":45,"programNumber":0},{"time":205499.78698124836,"duration":215.73399999999674,"noteNumber":44,"velocity":59,"programNumber":0},{"time":205715.52098124835,"duration":215.73399999999674,"noteNumber":51,"velocity":51,"programNumber":0},{"time":205068.31898124836,"duration":862.935999999987,"noteNumber":87,"velocity":100,"programNumber":0},{"time":205931.25498124835,"duration":215.73399999996764,"noteNumber":46,"velocity":60,"programNumber":0},{"time":206146.98898124832,"duration":215.73399999999674,"noteNumber":51,"velocity":44,"programNumber":0},{"time":205931.25498124835,"duration":431.4679999999644,"noteNumber":55,"velocity":77,"programNumber":0},{"time":206362.7229812483,"duration":215.73399999999674,"noteNumber":44,"velocity":65,"programNumber":0},{"time":206578.4569812483,"duration":215.73399999999674,"noteNumber":51,"velocity":49,"programNumber":0},{"time":206794.1909812483,"duration":215.73399999996764,"noteNumber":46,"velocity":60,"programNumber":0},{"time":207009.92498124827,"duration":215.73399999999674,"noteNumber":51,"velocity":47,"programNumber":0},{"time":207225.65898124827,"duration":215.73399999999674,"noteNumber":48,"velocity":59,"programNumber":0},{"time":207441.39298124827,"duration":215.73399999999674,"noteNumber":51,"velocity":48,"programNumber":0},{"time":206362.7229812483,"duration":1294.4039999999513,"noteNumber":56,"velocity":82,"programNumber":0},{"time":207657.12698124826,"duration":215.73399999999674,"noteNumber":45,"velocity":67,"programNumber":0},{"time":207872.86098124826,"duration":215.73399999999674,"noteNumber":51,"velocity":49,"programNumber":0},{"time":208088.59498124826,"duration":215.73399999999674,"noteNumber":46,"velocity":59,"programNumber":0},{"time":208304.32898124825,"duration":215.73399999999674,"noteNumber":51,"velocity":47,"programNumber":0},{"time":208520.06298124825,"duration":215.73399999999674,"noteNumber":48,"velocity":57,"programNumber":0},{"time":208735.79698124825,"duration":215.73399999999674,"noteNumber":51,"velocity":44,"programNumber":0},{"time":207657.12698124826,"duration":1294.4039999999804,"noteNumber":57,"velocity":84,"programNumber":0},{"time":208951.53098124824,"duration":215.73399999999674,"noteNumber":46,"velocity":64,"programNumber":0},{"time":209167.26498124824,"duration":215.73399999999674,"noteNumber":55,"velocity":46,"programNumber":0},{"time":209382.99898124824,"duration":215.73399999999674,"noteNumber":51,"velocity":57,"programNumber":0},{"time":209598.73298124823,"duration":215.73399999999674,"noteNumber":55,"velocity":45,"programNumber":0},{"time":209814.46698124823,"duration":215.73399999999674,"noteNumber":46,"velocity":56,"programNumber":0},{"time":210030.20098124823,"duration":215.73399999999674,"noteNumber":55,"velocity":56,"programNumber":0},{"time":208951.53098124824,"duration":1294.4039999999804,"noteNumber":58,"velocity":84,"programNumber":0},{"time":210245.93498124823,"duration":107.86699999999837,"noteNumber":56,"velocity":84,"programNumber":0},{"time":210353.80198124822,"duration":107.86699999999837,"noteNumber":58,"velocity":57,"programNumber":0},{"time":210245.93498124823,"duration":215.73399999999674,"noteNumber":46,"velocity":64,"programNumber":0},{"time":210461.66898124822,"duration":71.91133333332255,"noteNumber":56,"velocity":61,"programNumber":0},{"time":210533.58031458154,"duration":71.91133333332255,"noteNumber":58,"velocity":57,"programNumber":0},{"time":210605.49164791487,"duration":71.91133333332255,"noteNumber":56,"velocity":64,"programNumber":0},{"time":210461.66898124822,"duration":215.73399999996764,"noteNumber":53,"velocity":46,"programNumber":0},{"time":210677.4029812482,"duration":71.91133333332255,"noteNumber":58,"velocity":56,"programNumber":0},{"time":210749.3143145815,"duration":71.91133333332255,"noteNumber":56,"velocity":64,"programNumber":0},{"time":210821.22564791483,"duration":71.91133333332255,"noteNumber":58,"velocity":56,"programNumber":0},{"time":210677.4029812482,"duration":215.73399999996764,"noteNumber":50,"velocity":56,"programNumber":0},{"time":210893.13698124816,"duration":71.91133333332255,"noteNumber":56,"velocity":64,"programNumber":0},{"time":210965.04831458148,"duration":71.91133333332255,"noteNumber":58,"velocity":55,"programNumber":0},{"time":211036.9596479148,"duration":71.91133333332255,"noteNumber":56,"velocity":64,"programNumber":0},{"time":210893.13698124816,"duration":215.73399999996764,"noteNumber":53,"velocity":45,"programNumber":0},{"time":211108.87098124812,"duration":107.86699999999837,"noteNumber":58,"velocity":54,"programNumber":0},{"time":211216.73798124812,"duration":107.86699999999837,"noteNumber":56,"velocity":59,"programNumber":0},{"time":211108.87098124812,"duration":215.73399999999674,"noteNumber":46,"velocity":58,"programNumber":0},{"time":211324.60498124812,"duration":107.86699999999837,"noteNumber":55,"velocity":55,"programNumber":0},{"time":211432.47198124812,"duration":107.86699999999837,"noteNumber":56,"velocity":57,"programNumber":0},{"time":211324.60498124812,"duration":215.73399999999674,"noteNumber":53,"velocity":53,"programNumber":0},{"time":211540.33898124812,"duration":215.73399999999674,"noteNumber":55,"velocity":74,"programNumber":0},{"time":211756.07298124811,"duration":215.73399999999674,"noteNumber":58,"velocity":60,"programNumber":0},{"time":211540.33898124812,"duration":431.4679999999935,"noteNumber":51,"velocity":64,"programNumber":0},{"time":211540.33898124812,"duration":431.4679999999935,"noteNumber":39,"velocity":64,"programNumber":0},{"time":211971.8069812481,"duration":215.73399999999674,"noteNumber":63,"velocity":68,"programNumber":0},{"time":212187.5409812481,"duration":215.73399999999674,"noteNumber":58,"velocity":61,"programNumber":0},{"time":212403.2749812481,"duration":215.73399999999674,"noteNumber":63,"velocity":69,"programNumber":0},{"time":212619.0089812481,"duration":215.73399999999674,"noteNumber":67,"velocity":63,"programNumber":0},{"time":212834.7429812481,"duration":215.73399999999674,"noteNumber":70,"velocity":69,"programNumber":0},{"time":213050.4769812481,"duration":215.73399999999674,"noteNumber":67,"velocity":60,"programNumber":0},{"time":213266.2109812481,"duration":215.73399999999674,"noteNumber":70,"velocity":69,"programNumber":0},{"time":213481.9449812481,"duration":215.73399999999674,"noteNumber":75,"velocity":62,"programNumber":0},{"time":213697.6789812481,"duration":215.73399999999674,"noteNumber":79,"velocity":78,"programNumber":0},{"time":213913.41298124808,"duration":215.73399999999674,"noteNumber":82,"velocity":73,"programNumber":0},{"time":214129.14698124808,"duration":215.73399999999674,"noteNumber":43,"velocity":67,"programNumber":0},{"time":214129.14698124808,"duration":215.73399999999674,"noteNumber":87,"velocity":89,"programNumber":0},{"time":214344.88098124808,"duration":215.73399999999674,"noteNumber":51,"velocity":45,"programNumber":0},{"time":214560.61498124807,"duration":215.73399999999674,"noteNumber":44,"velocity":50,"programNumber":0},{"time":214776.34898124807,"duration":215.73399999999674,"noteNumber":51,"velocity":47,"programNumber":0},{"time":214992.08298124807,"duration":215.73399999996764,"noteNumber":46,"velocity":54,"programNumber":0},{"time":215207.81698124803,"duration":215.73399999999674,"noteNumber":51,"velocity":44,"programNumber":0},{"time":215423.55098124803,"duration":215.73399999999674,"noteNumber":43,"velocity":67,"programNumber":0},{"time":215639.28498124803,"duration":215.73399999999674,"noteNumber":51,"velocity":45,"programNumber":0},{"time":215855.01898124802,"duration":215.73399999999674,"noteNumber":44,"velocity":50,"programNumber":0},{"time":216070.75298124802,"duration":215.73399999999674,"noteNumber":51,"velocity":47,"programNumber":0},{"time":214992.08298124807,"duration":1294.4039999999513,"noteNumber":63,"velocity":84,"programNumber":0},{"time":216286.48698124802,"duration":215.73399999996764,"noteNumber":46,"velocity":54,"programNumber":0},{"time":216502.22098124799,"duration":215.73399999999674,"noteNumber":51,"velocity":44,"programNumber":0},{"time":216286.48698124802,"duration":431.4679999999644,"noteNumber":55,"velocity":81,"programNumber":0},{"time":216717.95498124798,"duration":215.73399999999674,"noteNumber":44,"velocity":65,"programNumber":0},{"time":216933.68898124798,"duration":215.73399999999674,"noteNumber":51,"velocity":45,"programNumber":0},{"time":217149.42298124798,"duration":215.73399999996764,"noteNumber":46,"velocity":59,"programNumber":0},{"time":217365.15698124794,"duration":215.73399999999674,"noteNumber":51,"velocity":42,"programNumber":0},{"time":216717.95498124798,"duration":862.9359999999579,"noteNumber":56,"velocity":84,"programNumber":0},{"time":217580.89098124794,"duration":215.73399999999674,"noteNumber":48,"velocity":58,"programNumber":0},{"time":217796.62498124794,"duration":215.73399999999674,"noteNumber":51,"velocity":45,"programNumber":0},{"time":217580.89098124794,"duration":431.4679999999935,"noteNumber":63,"velocity":84,"programNumber":0},{"time":218012.35898124793,"duration":215.73399999999674,"noteNumber":45,"velocity":67,"programNumber":0},{"time":218228.09298124793,"duration":215.73399999999674,"noteNumber":51,"velocity":45,"programNumber":0},{"time":218443.82698124793,"duration":215.73399999999674,"noteNumber":46,"velocity":60,"programNumber":0},{"time":218659.56098124792,"duration":215.73399999999674,"noteNumber":51,"velocity":47,"programNumber":0},{"time":218012.35898124793,"duration":862.935999999987,"noteNumber":57,"velocity":92,"programNumber":0},{"time":218875.29498124792,"duration":215.73399999999674,"noteNumber":48,"velocity":58,"programNumber":0},{"time":219091.02898124792,"duration":215.73399999999674,"noteNumber":51,"velocity":44,"programNumber":0},{"time":218875.29498124792,"duration":431.4679999999935,"noteNumber":63,"velocity":84,"programNumber":0},{"time":219306.7629812479,"duration":215.73399999999674,"noteNumber":46,"velocity":67,"programNumber":0},{"time":219306.7629812479,"duration":215.73399999999674,"noteNumber":58,"velocity":77,"programNumber":0},{"time":219522.4969812479,"duration":215.73399999999674,"noteNumber":51,"velocity":53,"programNumber":0},{"time":219522.4969812479,"duration":215.73399999999674,"noteNumber":63,"velocity":60,"programNumber":0},{"time":219738.2309812479,"duration":215.73399999999674,"noteNumber":50,"velocity":61,"programNumber":0},{"time":219738.2309812479,"duration":215.73399999999674,"noteNumber":62,"velocity":69,"programNumber":0},{"time":219953.9649812479,"duration":215.73399999999674,"noteNumber":51,"velocity":48,"programNumber":0},{"time":219953.9649812479,"duration":215.73399999999674,"noteNumber":63,"velocity":55,"programNumber":0},{"time":220169.6989812479,"duration":215.73399999999674,"noteNumber":47,"velocity":61,"programNumber":0},{"time":220169.6989812479,"duration":215.73399999999674,"noteNumber":59,"velocity":68,"programNumber":0},{"time":220385.4329812479,"duration":215.73399999999674,"noteNumber":51,"velocity":49,"programNumber":0},{"time":220385.4329812479,"duration":215.73399999999674,"noteNumber":63,"velocity":61,"programNumber":0},{"time":220601.1669812479,"duration":215.73399999999674,"noteNumber":48,"velocity":71,"programNumber":0},{"time":220601.1669812479,"duration":215.73399999999674,"noteNumber":60,"velocity":82,"programNumber":0},{"time":220816.9009812479,"duration":215.73399999999674,"noteNumber":51,"velocity":52,"programNumber":0},{"time":220816.9009812479,"duration":215.73399999999674,"noteNumber":63,"velocity":63,"programNumber":0},{"time":221032.6349812479,"duration":215.73399999999674,"noteNumber":50,"velocity":63,"programNumber":0},{"time":221032.6349812479,"duration":215.73399999999674,"noteNumber":62,"velocity":70,"programNumber":0},{"time":221248.36898124788,"duration":215.73399999999674,"noteNumber":51,"velocity":55,"programNumber":0},{"time":221248.36898124788,"duration":215.73399999999674,"noteNumber":63,"velocity":62,"programNumber":0},{"time":221464.10298124788,"duration":215.73399999999674,"noteNumber":45,"velocity":66,"programNumber":0},{"time":221464.10298124788,"duration":215.73399999999674,"noteNumber":57,"velocity":70,"programNumber":0},{"time":221679.83698124788,"duration":215.73399999999674,"noteNumber":51,"velocity":49,"programNumber":0},{"time":221679.83698124788,"duration":215.73399999999674,"noteNumber":63,"velocity":61,"programNumber":0},{"time":221895.57098124787,"duration":215.73399999999674,"noteNumber":46,"velocity":77,"programNumber":0},{"time":221895.57098124787,"duration":215.73399999999674,"noteNumber":58,"velocity":88,"programNumber":0},{"time":222111.30498124787,"duration":215.73399999999674,"noteNumber":51,"velocity":56,"programNumber":0},{"time":222111.30498124787,"duration":215.73399999999674,"noteNumber":63,"velocity":66,"programNumber":0},{"time":222327.03898124787,"duration":215.73399999999674,"noteNumber":49,"velocity":66,"programNumber":0},{"time":222327.03898124787,"duration":215.73399999999674,"noteNumber":61,"velocity":75,"programNumber":0},{"time":222542.77298124786,"duration":215.73399999999674,"noteNumber":51,"velocity":54,"programNumber":0},{"time":222542.77298124786,"duration":215.73399999999674,"noteNumber":63,"velocity":62,"programNumber":0},{"time":222758.50698124786,"duration":215.73399999999674,"noteNumber":47,"velocity":67,"programNumber":0},{"time":222758.50698124786,"duration":215.73399999999674,"noteNumber":59,"velocity":74,"programNumber":0},{"time":222974.24098124786,"duration":215.73399999999674,"noteNumber":51,"velocity":56,"programNumber":0},{"time":222974.24098124786,"duration":215.73399999999674,"noteNumber":63,"velocity":65,"programNumber":0},{"time":223189.97498124785,"duration":215.73399999999674,"noteNumber":48,"velocity":77,"programNumber":0},{"time":223189.97498124785,"duration":215.73399999999674,"noteNumber":60,"velocity":88,"programNumber":0},{"time":223405.70898124785,"duration":215.73399999999674,"noteNumber":51,"velocity":58,"programNumber":0},{"time":223405.70898124785,"duration":215.73399999999674,"noteNumber":63,"velocity":65,"programNumber":0},{"time":223621.44298124785,"duration":215.73399999999674,"noteNumber":50,"velocity":63,"programNumber":0},{"time":223621.44298124785,"duration":215.73399999999674,"noteNumber":62,"velocity":71,"programNumber":0},{"time":223837.17698124785,"duration":215.73399999999674,"noteNumber":51,"velocity":58,"programNumber":0},{"time":223837.17698124785,"duration":215.73399999999674,"noteNumber":63,"velocity":65,"programNumber":0},{"time":224052.91098124784,"duration":215.73399999999674,"noteNumber":45,"velocity":71,"programNumber":0},{"time":224052.91098124784,"duration":215.73399999999674,"noteNumber":57,"velocity":80,"programNumber":0},{"time":224268.64498124784,"duration":215.73399999999674,"noteNumber":51,"velocity":65,"programNumber":0},{"time":224268.64498124784,"duration":215.73399999999674,"noteNumber":63,"velocity":72,"programNumber":0},{"time":224484.37898124784,"duration":431.4679999999935,"noteNumber":46,"velocity":82,"programNumber":0},{"time":224484.37898124784,"duration":431.4679999999935,"noteNumber":58,"velocity":93,"programNumber":0},{"time":224915.84698124783,"duration":107.86699999999837,"noteNumber":55,"velocity":87,"programNumber":0},{"time":224915.84698124783,"duration":107.86699999999837,"noteNumber":51,"velocity":77,"programNumber":0},{"time":224915.84698124783,"duration":107.86699999999837,"noteNumber":46,"velocity":77,"programNumber":0},{"time":225239.44798124782,"duration":107.86699999999837,"noteNumber":63,"velocity":81,"programNumber":0},{"time":225347.31498124782,"duration":323.6009999999951,"noteNumber":70,"velocity":87,"programNumber":0},{"time":225670.91598124782,"duration":107.86699999999837,"noteNumber":67,"velocity":84,"programNumber":0},{"time":225778.78298124782,"duration":107.86699999999837,"noteNumber":75,"velocity":93,"programNumber":0},{"time":226210.2509812478,"duration":107.86699999999837,"noteNumber":54,"velocity":87,"programNumber":0},{"time":226210.2509812478,"duration":107.86699999999837,"noteNumber":48,"velocity":77,"programNumber":0},{"time":226210.2509812478,"duration":107.86699999999837,"noteNumber":51,"velocity":77,"programNumber":0},{"time":226533.8519812478,"duration":107.86699999999837,"noteNumber":63,"velocity":81,"programNumber":0},{"time":226641.7189812478,"duration":323.6009999999951,"noteNumber":69,"velocity":87,"programNumber":0},{"time":226965.3199812478,"duration":107.86699999999837,"noteNumber":66,"velocity":84,"programNumber":0},{"time":227073.1869812478,"duration":107.86699999999837,"noteNumber":75,"velocity":93,"programNumber":0},{"time":227504.6549812478,"duration":107.86699999999837,"noteNumber":51,"velocity":77,"programNumber":0},{"time":227504.6549812478,"duration":107.86699999999837,"noteNumber":46,"velocity":77,"programNumber":0},{"time":227504.6549812478,"duration":107.86699999999837,"noteNumber":55,"velocity":87,"programNumber":0},{"time":227828.25598124778,"duration":107.86699999999837,"noteNumber":63,"velocity":81,"programNumber":0},{"time":227936.12298124778,"duration":323.6009999999951,"noteNumber":70,"velocity":87,"programNumber":0},{"time":228259.72398124778,"duration":107.86699999999837,"noteNumber":67,"velocity":84,"programNumber":0},{"time":228367.59098124778,"duration":107.86699999999837,"noteNumber":75,"velocity":93,"programNumber":0},{"time":228799.05898124777,"duration":107.86699999999837,"noteNumber":45,"velocity":77,"programNumber":0},{"time":228799.05898124777,"duration":107.86699999999837,"noteNumber":57,"velocity":87,"programNumber":0},{"time":228799.05898124777,"duration":107.86699999999837,"noteNumber":51,"velocity":77,"programNumber":0},{"time":228799.05898124777,"duration":107.86699999999837,"noteNumber":54,"velocity":77,"programNumber":0},{"time":229122.65998124777,"duration":107.86699999999837,"noteNumber":72,"velocity":81,"programNumber":0},{"time":229230.52698124776,"duration":323.6009999999951,"noteNumber":78,"velocity":87,"programNumber":0},{"time":229554.12798124776,"duration":107.86699999999837,"noteNumber":75,"velocity":84,"programNumber":0},{"time":230093.46298124775,"duration":107.86699999999837,"noteNumber":51,"velocity":77,"programNumber":0},{"time":230093.46298124775,"duration":107.86699999999837,"noteNumber":58,"velocity":87,"programNumber":0},{"time":230093.46298124775,"duration":107.86699999999837,"noteNumber":55,"velocity":77,"programNumber":0},{"time":230093.46298124775,"duration":107.86699999999837,"noteNumber":46,"velocity":77,"programNumber":0},{"time":229661.99498124776,"duration":647.2019999999902,"noteNumber":79,"velocity":95,"programNumber":0},{"time":230309.19698124775,"duration":215.73399999999674,"noteNumber":75,"velocity":85,"programNumber":0},{"time":230524.93098124774,"duration":215.73399999999674,"noteNumber":75,"velocity":93,"programNumber":0},{"time":230740.66498124774,"duration":161.8005000000121,"noteNumber":70,"velocity":79,"programNumber":0},{"time":230956.39898124777,"duration":215.73399999999674,"noteNumber":70,"velocity":88,"programNumber":0},{"time":231172.13298124776,"duration":161.8005000000121,"noteNumber":67,"velocity":78,"programNumber":0},{"time":231387.8669812478,"duration":215.73399999999674,"noteNumber":67,"velocity":85,"programNumber":0},{"time":231603.6009812478,"duration":161.8005000000121,"noteNumber":63,"velocity":77,"programNumber":0},{"time":231819.3349812478,"duration":215.73399999999674,"noteNumber":63,"velocity":81,"programNumber":0},{"time":232035.0689812478,"duration":161.8005000000121,"noteNumber":58,"velocity":77,"programNumber":0},{"time":232250.80298124783,"duration":215.73399999999674,"noteNumber":58,"velocity":81,"programNumber":0},{"time":232466.53698124783,"duration":161.8005000000121,"noteNumber":55,"velocity":77,"programNumber":0},{"time":232682.27098124786,"duration":215.73399999999674,"noteNumber":55,"velocity":82,"programNumber":0},{"time":232898.00498124785,"duration":161.8005000000121,"noteNumber":51,"velocity":77,"programNumber":0},{"time":233113.73898124788,"duration":215.73399999999674,"noteNumber":51,"velocity":83,"programNumber":0},{"time":233329.47298124788,"duration":161.8005000000121,"noteNumber":46,"velocity":77,"programNumber":0},{"time":234408.1429812479,"duration":431.4679999999935,"noteNumber":53,"velocity":59,"programNumber":0},{"time":233545.2069812479,"duration":1294.4039999999804,"noteNumber":34,"velocity":78,"programNumber":0},{"time":234408.1429812479,"duration":431.4679999999935,"noteNumber":58,"velocity":66,"programNumber":0},{"time":233545.2069812479,"duration":1294.4039999999804,"noteNumber":46,"velocity":92,"programNumber":0},{"time":234408.1429812479,"duration":431.4679999999935,"noteNumber":56,"velocity":70,"programNumber":0},{"time":234408.1429812479,"duration":431.4679999999935,"noteNumber":62,"velocity":78,"programNumber":0},{"time":234839.61098124788,"duration":431.4679999999935,"noteNumber":39,"velocity":67,"programNumber":0},{"time":234839.61098124788,"duration":431.4679999999935,"noteNumber":58,"velocity":70,"programNumber":0},{"time":234839.61098124788,"duration":431.4679999999935,"noteNumber":63,"velocity":83,"programNumber":0},{"time":234839.61098124788,"duration":431.4679999999935,"noteNumber":55,"velocity":79,"programNumber":0},{"time":235702.54698124787,"duration":431.4679999999935,"noteNumber":45,"velocity":51,"programNumber":0},{"time":236134.01498124786,"duration":431.4679999999935,"noteNumber":44,"velocity":51,"programNumber":0},{"time":236565.48298124786,"duration":431.4679999999935,"noteNumber":43,"velocity":49,"programNumber":0},{"time":236565.48298124786,"duration":431.4679999999935,"noteNumber":70,"velocity":53,"programNumber":0},{"time":236565.48298124786,"duration":431.4679999999935,"noteNumber":65,"velocity":42,"programNumber":0},{"time":236565.48298124786,"duration":431.4679999999935,"noteNumber":68,"velocity":42,"programNumber":0},{"time":236565.48298124786,"duration":431.4679999999935,"noteNumber":62,"velocity":42,"programNumber":0},{"time":236996.95098124785,"duration":431.4679999999935,"noteNumber":41,"velocity":49,"programNumber":0},{"time":236996.95098124785,"duration":431.4679999999935,"noteNumber":62,"velocity":38,"programNumber":0},{"time":236996.95098124785,"duration":431.4679999999935,"noteNumber":65,"velocity":38,"programNumber":0},{"time":235271.07898124788,"duration":2157.3399999999674,"noteNumber":46,"velocity":51,"programNumber":0},{"time":236996.95098124785,"duration":431.4679999999935,"noteNumber":70,"velocity":48,"programNumber":0},{"time":236996.95098124785,"duration":431.4679999999935,"noteNumber":68,"velocity":38,"programNumber":0},{"time":237428.41898124784,"duration":431.4679999999935,"noteNumber":39,"velocity":51,"programNumber":0},{"time":237428.41898124784,"duration":431.4679999999935,"noteNumber":72,"velocity":53,"programNumber":0},{"time":237859.88698124784,"duration":431.4680000000226,"noteNumber":43,"velocity":47,"programNumber":0},{"time":237428.41898124784,"duration":862.9360000000161,"noteNumber":63,"velocity":42,"programNumber":0},{"time":237428.41898124784,"duration":862.9360000000161,"noteNumber":67,"velocity":42,"programNumber":0},{"time":237859.88698124784,"duration":431.4680000000226,"noteNumber":70,"velocity":49,"programNumber":0},{"time":238291.35498124786,"duration":431.4679999999935,"noteNumber":46,"velocity":47,"programNumber":0},{"time":238722.82298124785,"duration":431.4679999999935,"noteNumber":34,"velocity":51,"programNumber":0},{"time":239154.29098124785,"duration":431.4679999999935,"noteNumber":41,"velocity":48,"programNumber":0},{"time":239154.29098124785,"duration":431.4679999999935,"noteNumber":65,"velocity":42,"programNumber":0},{"time":239154.29098124785,"duration":431.4679999999935,"noteNumber":68,"velocity":42,"programNumber":0},{"time":239154.29098124785,"duration":431.4679999999935,"noteNumber":74,"velocity":53,"programNumber":0},{"time":239585.75898124784,"duration":431.4679999999935,"noteNumber":46,"velocity":48,"programNumber":0},{"time":239585.75898124784,"duration":431.4679999999935,"noteNumber":65,"velocity":38,"programNumber":0},{"time":239585.75898124784,"duration":431.4679999999935,"noteNumber":68,"velocity":38,"programNumber":0},{"time":239585.75898124784,"duration":431.4679999999935,"noteNumber":74,"velocity":48,"programNumber":0},{"time":240017.22698124783,"duration":431.4679999999935,"noteNumber":39,"velocity":67,"programNumber":0},{"time":240017.22698124783,"duration":431.4679999999935,"noteNumber":77,"velocity":53,"programNumber":0},{"time":240448.69498124783,"duration":431.4679999999935,"noteNumber":75,"velocity":49,"programNumber":0},{"time":240017.22698124783,"duration":862.935999999987,"noteNumber":67,"velocity":42,"programNumber":0},{"time":240017.22698124783,"duration":862.935999999987,"noteNumber":70,"velocity":42,"programNumber":0},{"time":240880.16298124782,"duration":431.4679999999935,"noteNumber":45,"velocity":51,"programNumber":0},{"time":241311.6309812478,"duration":431.4679999999935,"noteNumber":44,"velocity":51,"programNumber":0},{"time":241743.0989812478,"duration":431.4679999999935,"noteNumber":43,"velocity":49,"programNumber":0},{"time":241743.0989812478,"duration":431.4679999999935,"noteNumber":62,"velocity":42,"programNumber":0},{"time":241743.0989812478,"duration":431.4679999999935,"noteNumber":65,"velocity":42,"programNumber":0},{"time":241743.0989812478,"duration":431.4679999999935,"noteNumber":68,"velocity":42,"programNumber":0},{"time":241743.0989812478,"duration":431.4679999999935,"noteNumber":70,"velocity":53,"programNumber":0},{"time":242174.5669812478,"duration":431.4679999999935,"noteNumber":41,"velocity":49,"programNumber":0},{"time":242174.5669812478,"duration":431.4679999999935,"noteNumber":70,"velocity":48,"programNumber":0},{"time":242174.5669812478,"duration":431.4679999999935,"noteNumber":65,"velocity":38,"programNumber":0},{"time":240448.69498124783,"duration":2157.3399999999674,"noteNumber":46,"velocity":51,"programNumber":0},{"time":242174.5669812478,"duration":431.4679999999935,"noteNumber":62,"velocity":38,"programNumber":0},{"time":242174.5669812478,"duration":431.4679999999935,"noteNumber":68,"velocity":38,"programNumber":0},{"time":242606.0349812478,"duration":431.4679999999935,"noteNumber":39,"velocity":51,"programNumber":0},{"time":242606.0349812478,"duration":431.4679999999935,"noteNumber":72,"velocity":53,"programNumber":0},{"time":243037.5029812478,"duration":431.4679999999935,"noteNumber":43,"velocity":47,"programNumber":0},{"time":242606.0349812478,"duration":862.935999999987,"noteNumber":63,"velocity":42,"programNumber":0},{"time":242606.0349812478,"duration":862.935999999987,"noteNumber":67,"velocity":42,"programNumber":0},{"time":243037.5029812478,"duration":431.4679999999935,"noteNumber":70,"velocity":49,"programNumber":0},{"time":243468.97098124778,"duration":431.4679999999935,"noteNumber":46,"velocity":47,"programNumber":0},{"time":243900.43898124777,"duration":431.4679999999935,"noteNumber":34,"velocity":51,"programNumber":0},{"time":244331.90698124777,"duration":431.4679999999935,"noteNumber":41,"velocity":48,"programNumber":0},{"time":244331.90698124777,"duration":431.4679999999935,"noteNumber":53,"velocity":42,"programNumber":0},{"time":244331.90698124777,"duration":431.4679999999935,"noteNumber":56,"velocity":42,"programNumber":0},{"time":244331.90698124777,"duration":431.4679999999935,"noteNumber":62,"velocity":53,"programNumber":0},{"time":244763.37498124776,"duration":431.4679999999935,"noteNumber":46,"velocity":48,"programNumber":0},{"time":244763.37498124776,"duration":431.4679999999935,"noteNumber":53,"velocity":38,"programNumber":0},{"time":244763.37498124776,"duration":431.4679999999935,"noteNumber":56,"velocity":38,"programNumber":0},{"time":244763.37498124776,"duration":431.4679999999935,"noteNumber":62,"velocity":48,"programNumber":0},{"time":245194.84298124776,"duration":431.4679999999935,"noteNumber":39,"velocity":51,"programNumber":0},{"time":245194.84298124776,"duration":431.4679999999935,"noteNumber":65,"velocity":53,"programNumber":0},{"time":245626.31098124775,"duration":431.4679999999935,"noteNumber":43,"velocity":47,"programNumber":0},{"time":245194.84298124776,"duration":862.935999999987,"noteNumber":55,"velocity":42,"programNumber":0},{"time":245194.84298124776,"duration":862.935999999987,"noteNumber":58,"velocity":42,"programNumber":0},{"time":245626.31098124775,"duration":431.4679999999935,"noteNumber":63,"velocity":49,"programNumber":0},{"time":246057.77898124774,"duration":431.4679999999935,"noteNumber":46,"velocity":47,"programNumber":0},{"time":246489.24698124774,"duration":431.4679999999935,"noteNumber":34,"velocity":51,"programNumber":0},{"time":246920.71498124773,"duration":431.4679999999935,"noteNumber":41,"velocity":48,"programNumber":0},{"time":246920.71498124773,"duration":431.4679999999935,"noteNumber":53,"velocity":42,"programNumber":0},{"time":246920.71498124773,"duration":431.4679999999935,"noteNumber":56,"velocity":42,"programNumber":0},{"time":246920.71498124773,"duration":431.4679999999935,"noteNumber":62,"velocity":53,"programNumber":0},{"time":247352.18298124772,"duration":431.4679999999935,"noteNumber":46,"velocity":48,"programNumber":0},{"time":247352.18298124772,"duration":431.4679999999935,"noteNumber":53,"velocity":38,"programNumber":0},{"time":247352.18298124772,"duration":431.4679999999935,"noteNumber":56,"velocity":38,"programNumber":0},{"time":247352.18298124772,"duration":431.4679999999935,"noteNumber":62,"velocity":48,"programNumber":0},{"time":247783.65098124772,"duration":431.4679999999935,"noteNumber":39,"velocity":51,"programNumber":0},{"time":248215.1189812477,"duration":431.4679999999935,"noteNumber":43,"velocity":47,"programNumber":0},{"time":248646.5869812477,"duration":431.4679999999935,"noteNumber":46,"velocity":47,"programNumber":0},{"time":247783.65098124772,"duration":1294.4039999999804,"noteNumber":56,"velocity":42,"programNumber":0},{"time":247783.65098124772,"duration":1294.4039999999804,"noteNumber":62,"velocity":42,"programNumber":0},{"time":247783.65098124772,"duration":1294.4039999999804,"noteNumber":65,"velocity":53,"programNumber":0},{"time":249078.0549812477,"duration":431.4679999999935,"noteNumber":55,"velocity":44,"programNumber":0},{"time":249078.0549812477,"duration":431.4679999999935,"noteNumber":58,"velocity":44,"programNumber":0},{"time":249078.0549812477,"duration":431.4679999999935,"noteNumber":63,"velocity":49,"programNumber":0},{"time":249078.0549812477,"duration":431.4679999999935,"noteNumber":51,"velocity":40,"programNumber":0},{"time":250372.45898124768,"duration":647.2019999999902,"noteNumber":48,"velocity":59,"programNumber":0},{"time":250372.45898124768,"duration":647.2019999999902,"noteNumber":55,"velocity":59,"programNumber":0},{"time":250372.45898124768,"duration":647.2019999999902,"noteNumber":67,"velocity":69,"programNumber":0},{"time":250372.45898124768,"duration":647.2019999999902,"noteNumber":72,"velocity":82,"programNumber":0},{"time":250372.45898124768,"duration":647.2019999999902,"noteNumber":64,"velocity":69,"programNumber":0},{"time":250372.45898124768,"duration":647.2019999999902,"noteNumber":52,"velocity":59,"programNumber":0},{"time":250372.45898124768,"duration":647.2019999999902,"noteNumber":60,"velocity":70,"programNumber":0},{"time":251127.52798124767,"duration":107.86699999999837,"noteNumber":67,"velocity":70,"programNumber":0},{"time":251235.39498124766,"duration":323.6009999999951,"noteNumber":76,"velocity":78,"programNumber":0},{"time":251558.99598124766,"duration":107.86699999999837,"noteNumber":72,"velocity":70,"programNumber":0},{"time":251666.86298124766,"duration":323.6009999999951,"noteNumber":79,"velocity":79,"programNumber":0},{"time":251990.46398124765,"duration":107.86699999999837,"noteNumber":76,"velocity":70,"programNumber":0},{"time":252098.33098124765,"duration":323.6009999999951,"noteNumber":84,"velocity":79,"programNumber":0},{"time":252421.93198124765,"duration":107.86699999999837,"noteNumber":79,"velocity":70,"programNumber":0},{"time":252529.79898124764,"duration":107.86699999999837,"noteNumber":88,"velocity":84,"programNumber":0},{"time":252961.26698124764,"duration":107.86699999999837,"noteNumber":88,"velocity":84,"programNumber":0},{"time":253824.20298124765,"duration":215.73399999999674,"noteNumber":67,"velocity":41,"programNumber":0},{"time":253824.20298124765,"duration":215.73399999999674,"noteNumber":72,"velocity":39,"programNumber":0},{"time":253824.20298124765,"duration":215.73399999999674,"noteNumber":76,"velocity":46,"programNumber":0},{"time":253824.20298124765,"duration":215.73399999999674,"noteNumber":64,"velocity":34,"programNumber":0},{"time":254255.67098124765,"duration":862.935999999987,"noteNumber":64,"velocity":34,"programNumber":0},{"time":254255.67098124765,"duration":862.935999999987,"noteNumber":72,"velocity":42,"programNumber":0},{"time":254255.67098124765,"duration":862.935999999987,"noteNumber":76,"velocity":50,"programNumber":0},{"time":254255.67098124765,"duration":862.935999999987,"noteNumber":67,"velocity":41,"programNumber":0},{"time":255118.60698124763,"duration":422.4790833333391,"noteNumber":68,"velocity":38,"programNumber":0},{"time":255118.60698124763,"duration":422.4790833333391,"noteNumber":74,"velocity":46,"programNumber":0},{"time":255118.60698124763,"duration":422.4790833333391,"noteNumber":71,"velocity":39,"programNumber":0},{"time":255118.60698124763,"duration":422.4790833333391,"noteNumber":65,"velocity":32,"programNumber":0},{"time":255550.07498124763,"duration":647.2019999999902,"noteNumber":68,"velocity":41,"programNumber":0},{"time":255550.07498124763,"duration":647.2019999999902,"noteNumber":71,"velocity":42,"programNumber":0},{"time":255550.07498124763,"duration":647.2019999999902,"noteNumber":74,"velocity":50,"programNumber":0},{"time":255550.07498124763,"duration":647.2019999999902,"noteNumber":65,"velocity":34,"programNumber":0},{"time":256305.14398124762,"duration":107.86699999999837,"noteNumber":71,"velocity":70,"programNumber":0},{"time":256413.01098124761,"duration":323.6009999999951,"noteNumber":77,"velocity":78,"programNumber":0},{"time":256736.6119812476,"duration":107.86699999999837,"noteNumber":74,"velocity":70,"programNumber":0},{"time":256844.4789812476,"duration":323.6009999999951,"noteNumber":83,"velocity":79,"programNumber":0},{"time":257168.0799812476,"duration":107.86699999999837,"noteNumber":77,"velocity":70,"programNumber":0},{"time":257275.9469812476,"duration":323.6009999999951,"noteNumber":86,"velocity":79,"programNumber":0},{"time":257599.5479812476,"duration":107.86699999999837,"noteNumber":83,"velocity":70,"programNumber":0},{"time":257707.4149812476,"duration":107.86699999999837,"noteNumber":89,"velocity":84,"programNumber":0},{"time":258138.8829812476,"duration":107.86699999999837,"noteNumber":89,"velocity":84,"programNumber":0},{"time":259001.81898124758,"duration":215.73399999999674,"noteNumber":68,"velocity":41,"programNumber":0},{"time":259001.81898124758,"duration":215.73399999999674,"noteNumber":74,"velocity":39,"programNumber":0},{"time":259001.81898124758,"duration":215.73399999999674,"noteNumber":77,"velocity":46,"programNumber":0},{"time":259001.81898124758,"duration":215.73399999999674,"noteNumber":65,"velocity":34,"programNumber":0},{"time":259433.28698124757,"duration":862.935999999987,"noteNumber":65,"velocity":34,"programNumber":0},{"time":259433.28698124757,"duration":862.935999999987,"noteNumber":74,"velocity":42,"programNumber":0},{"time":259433.28698124757,"duration":862.935999999987,"noteNumber":77,"velocity":50,"programNumber":0},{"time":259433.28698124757,"duration":862.935999999987,"noteNumber":68,"velocity":41,"programNumber":0},{"time":260296.22298124756,"duration":422.47908333331,"noteNumber":70,"velocity":38,"programNumber":0},{"time":260296.22298124756,"duration":422.47908333331,"noteNumber":76,"velocity":46,"programNumber":0},{"time":260296.22298124756,"duration":422.47908333331,"noteNumber":73,"velocity":39,"programNumber":0},{"time":260296.22298124756,"duration":422.47908333331,"noteNumber":67,"velocity":32,"programNumber":0},{"time":260727.69098124752,"duration":647.2019999999902,"noteNumber":70,"velocity":41,"programNumber":0},{"time":260727.69098124752,"duration":647.2019999999902,"noteNumber":73,"velocity":42,"programNumber":0},{"time":260727.69098124752,"duration":647.2019999999902,"noteNumber":76,"velocity":50,"programNumber":0},{"time":260727.69098124752,"duration":647.2019999999902,"noteNumber":67,"velocity":34,"programNumber":0},{"time":261482.7599812475,"duration":107.86699999999837,"noteNumber":70,"velocity":70,"programNumber":0},{"time":261590.6269812475,"duration":323.6009999999951,"noteNumber":76,"velocity":78,"programNumber":0},{"time":261914.2279812475,"duration":107.86699999999837,"noteNumber":73,"velocity":70,"programNumber":0},{"time":262022.0949812475,"duration":323.6010000000242,"noteNumber":79,"velocity":84,"programNumber":0},{"time":262345.6959812475,"duration":107.86700000002747,"noteNumber":76,"velocity":70,"programNumber":0},{"time":262453.56298124755,"duration":323.6010000000242,"noteNumber":82,"velocity":85,"programNumber":0},{"time":262777.1639812476,"duration":107.86700000002747,"noteNumber":79,"velocity":70,"programNumber":0},{"time":262885.0309812476,"duration":107.86699999996927,"noteNumber":85,"velocity":89,"programNumber":0},{"time":263316.4989812476,"duration":107.86700000002747,"noteNumber":67,"velocity":87,"programNumber":0},{"time":263747.96698124765,"duration":107.86700000002747,"noteNumber":82,"velocity":86,"programNumber":0},{"time":264610.9029812477,"duration":107.86700000002747,"noteNumber":64,"velocity":85,"programNumber":0},{"time":265042.37098124775,"duration":107.86700000002747,"noteNumber":79,"velocity":79,"programNumber":0},{"time":265905.30698124785,"duration":215.73399999999674,"noteNumber":53,"velocity":40,"programNumber":0},{"time":266121.04098124785,"duration":215.73399999999674,"noteNumber":60,"velocity":32,"programNumber":0},{"time":266336.77498124784,"duration":215.73399999999674,"noteNumber":56,"velocity":34,"programNumber":0},{"time":266552.50898124784,"duration":215.73399999999674,"noteNumber":60,"velocity":32,"programNumber":0},{"time":266768.24298124784,"duration":215.73399999999674,"noteNumber":53,"velocity":34,"programNumber":0},{"time":266983.97698124783,"duration":215.73399999999674,"noteNumber":60,"velocity":32,"programNumber":0},{"time":265905.30698124785,"duration":1294.4039999999804,"noteNumber":77,"velocity":50,"programNumber":0},{"time":265905.30698124785,"duration":1294.4039999999804,"noteNumber":65,"velocity":42,"programNumber":0},{"time":267199.71098124783,"duration":215.73399999999674,"noteNumber":53,"velocity":40,"programNumber":0},{"time":267415.4449812478,"duration":215.73399999999674,"noteNumber":60,"velocity":33,"programNumber":0},{"time":267631.1789812478,"duration":215.73399999999674,"noteNumber":56,"velocity":34,"programNumber":0},{"time":267199.71098124783,"duration":853.9470833333326,"noteNumber":72,"velocity":45,"programNumber":0},{"time":267199.71098124783,"duration":853.9470833333326,"noteNumber":84,"velocity":53,"programNumber":0},{"time":267846.9129812478,"duration":215.73399999999674,"noteNumber":60,"velocity":32,"programNumber":0},{"time":268062.6469812478,"duration":215.73399999999674,"noteNumber":53,"velocity":35,"programNumber":0},{"time":268062.6469812478,"duration":422.4790833333391,"noteNumber":72,"velocity":42,"programNumber":0},{"time":268062.6469812478,"duration":422.4790833333391,"noteNumber":84,"velocity":50,"programNumber":0},{"time":268278.3809812478,"duration":215.73399999999674,"noteNumber":60,"velocity":32,"programNumber":0},{"time":268494.1149812478,"duration":215.73399999999674,"noteNumber":55,"velocity":40,"programNumber":0},{"time":268709.8489812478,"duration":215.73399999999674,"noteNumber":60,"velocity":32,"programNumber":0},{"time":268494.1149812478,"duration":431.4679999999935,"noteNumber":72,"velocity":45,"programNumber":0},{"time":268494.1149812478,"duration":431.4679999999935,"noteNumber":84,"velocity":54,"programNumber":0},{"time":268925.5829812478,"duration":215.73399999993853,"noteNumber":58,"velocity":34,"programNumber":0},{"time":269141.31698124774,"duration":215.73399999999674,"noteNumber":60,"velocity":32,"programNumber":0},{"time":268925.5829812478,"duration":431.4679999999353,"noteNumber":71,"velocity":42,"programNumber":0},{"time":268925.5829812478,"duration":431.4679999999353,"noteNumber":83,"velocity":50,"programNumber":0},{"time":269357.05098124774,"duration":215.73399999999674,"noteNumber":55,"velocity":37,"programNumber":0},{"time":269572.78498124774,"duration":215.73399999999674,"noteNumber":60,"velocity":32,"programNumber":0},{"time":269357.05098124774,"duration":431.4679999999935,"noteNumber":73,"velocity":42,"programNumber":0},{"time":269357.05098124774,"duration":431.4679999999935,"noteNumber":85,"velocity":50,"programNumber":0},{"time":269788.51898124773,"duration":215.73399999999674,"noteNumber":52,"velocity":32,"programNumber":0},{"time":270004.25298124773,"duration":215.73399999999674,"noteNumber":60,"velocity":32,"programNumber":0},{"time":269788.51898124773,"duration":431.4679999999935,"noteNumber":84,"velocity":50,"programNumber":0},{"time":269788.51898124773,"duration":431.4679999999935,"noteNumber":72,"velocity":42,"programNumber":0},{"time":270219.9869812477,"duration":215.73399999999674,"noteNumber":55,"velocity":35,"programNumber":0},{"time":270435.7209812477,"duration":215.73399999999674,"noteNumber":60,"velocity":32,"programNumber":0},{"time":270219.9869812477,"duration":431.4679999999935,"noteNumber":70,"velocity":42,"programNumber":0},{"time":270219.9869812477,"duration":431.4679999999935,"noteNumber":82,"velocity":50,"programNumber":0},{"time":270651.4549812477,"duration":215.73399999999674,"noteNumber":52,"velocity":37,"programNumber":0},{"time":270867.1889812477,"duration":215.73399999999674,"noteNumber":60,"velocity":32,"programNumber":0},{"time":270651.4549812477,"duration":431.4679999999935,"noteNumber":67,"velocity":42,"programNumber":0},{"time":270651.4549812477,"duration":431.4679999999935,"noteNumber":79,"velocity":50,"programNumber":0},{"time":271082.9229812477,"duration":215.73399999999674,"noteNumber":48,"velocity":40,"programNumber":0},{"time":271298.6569812477,"duration":215.73399999999674,"noteNumber":60,"velocity":31,"programNumber":0},{"time":271514.3909812477,"duration":215.73399999999674,"noteNumber":52,"velocity":36,"programNumber":0},{"time":271730.1249812477,"duration":215.73399999999674,"noteNumber":60,"velocity":32,"programNumber":0},{"time":271082.9229812477,"duration":862.935999999987,"noteNumber":64,"velocity":47,"programNumber":0},{"time":271082.9229812477,"duration":862.935999999987,"noteNumber":76,"velocity":56,"programNumber":0},{"time":271945.8589812477,"duration":215.73399999999674,"noteNumber":55,"velocity":38,"programNumber":0},{"time":272161.5929812477,"duration":215.73399999999674,"noteNumber":60,"velocity":33,"programNumber":0},{"time":271945.8589812477,"duration":431.4679999999935,"noteNumber":79,"velocity":59,"programNumber":0},{"time":271945.8589812477,"duration":431.4679999999935,"noteNumber":67,"velocity":50,"programNumber":0},{"time":272377.3269812477,"duration":215.73399999999674,"noteNumber":52,"velocity":45,"programNumber":0},{"time":272593.0609812477,"duration":215.73399999999674,"noteNumber":60,"velocity":35,"programNumber":0},{"time":272808.7949812477,"duration":215.73399999999674,"noteNumber":55,"velocity":38,"programNumber":0},{"time":273024.5289812477,"duration":215.73399999999674,"noteNumber":60,"velocity":31,"programNumber":0},{"time":272377.3269812477,"duration":862.935999999987,"noteNumber":72,"velocity":55,"programNumber":0},{"time":272377.3269812477,"duration":862.935999999987,"noteNumber":84,"velocity":65,"programNumber":0},{"time":273240.2629812477,"duration":215.73399999999674,"noteNumber":58,"velocity":37,"programNumber":0},{"time":273455.9969812477,"duration":215.73399999999674,"noteNumber":60,"velocity":31,"programNumber":0},{"time":273240.2629812477,"duration":431.4679999999935,"noteNumber":67,"velocity":50,"programNumber":0},{"time":273240.2629812477,"duration":431.4679999999935,"noteNumber":79,"velocity":59,"programNumber":0},{"time":273671.7309812477,"duration":215.73399999999674,"noteNumber":53,"velocity":45,"programNumber":0},{"time":273887.4649812477,"duration":215.73399999999674,"noteNumber":60,"velocity":31,"programNumber":0},{"time":274103.19898124767,"duration":215.73399999999674,"noteNumber":56,"velocity":36,"programNumber":0},{"time":274318.93298124766,"duration":215.73399999999674,"noteNumber":60,"velocity":31,"programNumber":0},{"time":274534.66698124766,"duration":215.73399999999674,"noteNumber":53,"velocity":36,"programNumber":0},{"time":274750.40098124766,"duration":215.73399999999674,"noteNumber":60,"velocity":31,"programNumber":0},{"time":273671.7309812477,"duration":1294.4039999999804,"noteNumber":82,"velocity":64,"programNumber":0},{"time":273671.7309812477,"duration":1294.4039999999804,"noteNumber":70,"velocity":54,"programNumber":0},{"time":274966.13498124765,"duration":215.73400000005495,"noteNumber":53,"velocity":40,"programNumber":0},{"time":275181.8689812477,"duration":215.73399999999674,"noteNumber":60,"velocity":30,"programNumber":0},{"time":274966.13498124765,"duration":431.4680000000517,"noteNumber":68,"velocity":49,"programNumber":0},{"time":274966.13498124765,"duration":431.4680000000517,"noteNumber":80,"velocity":58,"programNumber":0},{"time":275397.6029812477,"duration":215.73399999999674,"noteNumber":52,"velocity":42,"programNumber":0},{"time":275613.3369812477,"duration":215.73399999999674,"noteNumber":53,"velocity":40,"programNumber":0},{"time":275829.0709812477,"duration":215.73399999999674,"noteNumber":51,"velocity":49,"programNumber":0},{"time":276044.8049812477,"duration":215.73399999999674,"noteNumber":53,"velocity":43,"programNumber":0},{"time":275829.0709812477,"duration":431.4679999999935,"noteNumber":81,"velocity":57,"programNumber":0},{"time":275829.0709812477,"duration":431.4679999999935,"noteNumber":69,"velocity":48,"programNumber":0},{"time":276260.5389812477,"duration":215.73399999999674,"noteNumber":49,"velocity":52,"programNumber":0},{"time":276476.2729812477,"duration":215.73399999999674,"noteNumber":53,"velocity":38,"programNumber":0},{"time":276692.0069812477,"duration":215.73399999993853,"noteNumber":48,"velocity":43,"programNumber":0},{"time":276907.7409812476,"duration":215.73399999999674,"noteNumber":53,"velocity":32,"programNumber":0},{"time":277123.4749812476,"duration":215.73399999993853,"noteNumber":49,"velocity":38,"programNumber":0},{"time":277339.20898124756,"duration":215.73399999999674,"noteNumber":53,"velocity":32,"programNumber":0},{"time":276260.5389812477,"duration":1294.403999999864,"noteNumber":82,"velocity":62,"programNumber":0},{"time":276260.5389812477,"duration":1294.403999999864,"noteNumber":70,"velocity":52,"programNumber":0},{"time":277554.94298124756,"duration":215.73399999999674,"noteNumber":46,"velocity":45,"programNumber":0},{"time":277770.67698124755,"duration":215.73399999999674,"noteNumber":53,"velocity":33,"programNumber":0},{"time":277986.41098124755,"duration":215.73399999999674,"noteNumber":48,"velocity":34,"programNumber":0},{"time":277554.94298124756,"duration":853.9470833333326,"noteNumber":77,"velocity":56,"programNumber":0},{"time":277554.94298124756,"duration":853.9470833333326,"noteNumber":89,"velocity":66,"programNumber":0},{"time":278202.14498124755,"duration":215.73399999999674,"noteNumber":53,"velocity":32,"programNumber":0},{"time":278417.87898124754,"duration":215.73399999999674,"noteNumber":49,"velocity":35,"programNumber":0},{"time":278417.87898124754,"duration":422.4790833333391,"noteNumber":77,"velocity":52,"programNumber":0},{"time":278417.87898124754,"duration":422.4790833333391,"noteNumber":89,"velocity":62,"programNumber":0},{"time":278633.61298124754,"duration":215.73399999999674,"noteNumber":53,"velocity":32,"programNumber":0},{"time":278849.34698124754,"duration":215.73399999999674,"noteNumber":48,"velocity":46,"programNumber":0},{"time":279065.08098124753,"duration":215.73399999999674,"noteNumber":53,"velocity":32,"programNumber":0},{"time":278849.34698124754,"duration":431.4679999999935,"noteNumber":77,"velocity":57,"programNumber":0},{"time":278849.34698124754,"duration":431.4679999999935,"noteNumber":89,"velocity":68,"programNumber":0},{"time":279280.81498124753,"duration":215.73399999993853,"noteNumber":51,"velocity":34,"programNumber":0},{"time":279496.54898124747,"duration":215.73399999999674,"noteNumber":53,"velocity":32,"programNumber":0},{"time":279280.81498124753,"duration":431.4679999999353,"noteNumber":76,"velocity":52,"programNumber":0},{"time":279280.81498124753,"duration":431.4679999999353,"noteNumber":88,"velocity":62,"programNumber":0},{"time":279712.28298124747,"duration":215.73399999999674,"noteNumber":48,"velocity":37,"programNumber":0},{"time":279928.01698124746,"duration":215.73399999999674,"noteNumber":53,"velocity":32,"programNumber":0},{"time":279712.28298124747,"duration":431.4679999999935,"noteNumber":78,"velocity":52,"programNumber":0},{"time":279712.28298124747,"duration":431.4679999999935,"noteNumber":90,"velocity":62,"programNumber":0},{"time":280143.75098124746,"duration":215.73399999999674,"noteNumber":45,"velocity":40,"programNumber":0},{"time":280359.48498124746,"duration":215.73399999999674,"noteNumber":53,"velocity":32,"programNumber":0},{"time":280143.75098124746,"duration":431.4679999999935,"noteNumber":89,"velocity":62,"programNumber":0},{"time":280143.75098124746,"duration":431.4679999999935,"noteNumber":77,"velocity":52,"programNumber":0},{"time":280575.21898124745,"duration":215.73399999999674,"noteNumber":48,"velocity":35,"programNumber":0},{"time":280790.95298124745,"duration":215.73399999999674,"noteNumber":53,"velocity":32,"programNumber":0},{"time":280575.21898124745,"duration":431.4679999999935,"noteNumber":75,"velocity":52,"programNumber":0},{"time":280575.21898124745,"duration":431.4679999999935,"noteNumber":87,"velocity":62,"programNumber":0},{"time":281006.68698124745,"duration":215.73399999999674,"noteNumber":45,"velocity":37,"programNumber":0},{"time":281222.42098124744,"duration":215.73399999999674,"noteNumber":53,"velocity":32,"programNumber":0},{"time":281006.68698124745,"duration":431.4679999999935,"noteNumber":72,"velocity":52,"programNumber":0},{"time":281006.68698124745,"duration":431.4679999999935,"noteNumber":84,"velocity":62,"programNumber":0},{"time":281438.15498124744,"duration":215.73399999999674,"noteNumber":41,"velocity":40,"programNumber":0},{"time":281653.88898124744,"duration":215.73399999999674,"noteNumber":53,"velocity":31,"programNumber":0},{"time":281869.62298124743,"duration":215.73399999999674,"noteNumber":45,"velocity":45,"programNumber":0},{"time":282085.35698124743,"duration":215.73399999999674,"noteNumber":53,"velocity":37,"programNumber":0},{"time":281438.15498124744,"duration":862.935999999987,"noteNumber":69,"velocity":59,"programNumber":0},{"time":281438.15498124744,"duration":862.935999999987,"noteNumber":81,"velocity":70,"programNumber":0},{"time":282301.0909812474,"duration":215.73399999999674,"noteNumber":48,"velocity":46,"programNumber":0},{"time":282516.8249812474,"duration":215.73399999999674,"noteNumber":53,"velocity":39,"programNumber":0},{"time":282301.0909812474,"duration":431.4679999999935,"noteNumber":84,"velocity":73,"programNumber":0},{"time":282301.0909812474,"duration":431.4679999999935,"noteNumber":72,"velocity":61,"programNumber":0},{"time":282732.5589812474,"duration":215.73399999999674,"noteNumber":45,"velocity":51,"programNumber":0},{"time":282948.2929812474,"duration":215.73399999999674,"noteNumber":53,"velocity":44,"programNumber":0},{"time":283164.0269812474,"duration":215.73399999999674,"noteNumber":48,"velocity":38,"programNumber":0},{"time":283379.7609812474,"duration":215.73399999999674,"noteNumber":53,"velocity":31,"programNumber":0},{"time":282732.5589812474,"duration":862.935999999987,"noteNumber":77,"velocity":68,"programNumber":0},{"time":282732.5589812474,"duration":862.935999999987,"noteNumber":89,"velocity":81,"programNumber":0},{"time":283595.4949812474,"duration":215.73399999999674,"noteNumber":51,"velocity":37,"programNumber":0},{"time":283811.2289812474,"duration":215.73399999999674,"noteNumber":53,"velocity":31,"programNumber":0},{"time":283595.4949812474,"duration":431.4679999999935,"noteNumber":72,"velocity":61,"programNumber":0},{"time":283595.4949812474,"duration":431.4679999999935,"noteNumber":84,"velocity":73,"programNumber":0},{"time":284026.9629812474,"duration":215.73399999999674,"noteNumber":46,"velocity":45,"programNumber":0},{"time":284242.6969812474,"duration":215.73399999999674,"noteNumber":53,"velocity":31,"programNumber":0},{"time":284458.4309812474,"duration":215.73399999999674,"noteNumber":49,"velocity":36,"programNumber":0},{"time":284674.1649812474,"duration":215.73399999999674,"noteNumber":53,"velocity":31,"programNumber":0},{"time":284889.8989812474,"duration":215.73399999999674,"noteNumber":46,"velocity":36,"programNumber":0},{"time":285105.6329812474,"duration":215.73399999999674,"noteNumber":53,"velocity":31,"programNumber":0},{"time":284026.9629812474,"duration":1294.4039999999804,"noteNumber":87,"velocity":80,"programNumber":0},{"time":284026.9629812474,"duration":1294.4039999999804,"noteNumber":75,"velocity":68,"programNumber":0},{"time":285321.3669812474,"duration":215.73400000005495,"noteNumber":46,"velocity":40,"programNumber":0},{"time":285537.10098124744,"duration":215.73399999999674,"noteNumber":53,"velocity":30,"programNumber":0},{"time":285321.3669812474,"duration":431.4680000000517,"noteNumber":73,"velocity":61,"programNumber":0},{"time":285321.3669812474,"duration":431.4680000000517,"noteNumber":85,"velocity":72,"programNumber":0},{"time":285752.83498124743,"duration":215.73399999999674,"noteNumber":49,"velocity":33,"programNumber":0},{"time":285968.56898124743,"duration":215.73399999999674,"noteNumber":53,"velocity":30,"programNumber":0},{"time":286184.3029812474,"duration":215.73399999999674,"noteNumber":46,"velocity":33,"programNumber":0},{"time":286400.0369812474,"duration":215.73399999999674,"noteNumber":53,"velocity":30,"programNumber":0},{"time":286184.3029812474,"duration":431.4679999999935,"noteNumber":73,"velocity":61,"programNumber":0},{"time":286615.7709812474,"duration":215.73399999999674,"noteNumber":44,"velocity":40,"programNumber":0},{"time":286831.5049812474,"duration":215.73399999999674,"noteNumber":54,"velocity":32,"programNumber":0},{"time":287047.2389812474,"duration":215.73399999999674,"noteNumber":51,"velocity":48,"programNumber":0},{"time":287262.9729812474,"duration":215.73399999999674,"noteNumber":54,"velocity":40,"programNumber":0},{"time":286615.7709812474,"duration":862.935999999987,"noteNumber":72,"velocity":67,"programNumber":0},{"time":287478.7069812474,"duration":107.86700000002747,"noteNumber":75,"velocity":61,"programNumber":0},{"time":287586.57398124743,"duration":71.91133333335165,"noteNumber":77,"velocity":57,"programNumber":0},{"time":287478.7069812474,"duration":215.73400000005495,"noteNumber":44,"velocity":51,"programNumber":0},{"time":287658.4853145808,"duration":71.91133333335165,"noteNumber":75,"velocity":61,"programNumber":0},{"time":287730.39664791414,"duration":71.91133333335165,"noteNumber":74,"velocity":65,"programNumber":0},{"time":287802.3079812475,"duration":107.86700000002747,"noteNumber":75,"velocity":69,"programNumber":0},{"time":287694.44098124746,"duration":215.73400000005495,"noteNumber":54,"velocity":46,"programNumber":0},{"time":287910.1749812475,"duration":215.73399999999674,"noteNumber":44,"velocity":52,"programNumber":0},{"time":288125.9089812475,"duration":215.73399999999674,"noteNumber":54,"velocity":40,"programNumber":0},{"time":288341.6429812475,"duration":215.73399999999674,"noteNumber":48,"velocity":40,"programNumber":0},{"time":288557.3769812475,"duration":215.73399999999674,"noteNumber":54,"velocity":35,"programNumber":0},{"time":287910.1749812475,"duration":862.935999999987,"noteNumber":80,"velocity":74,"programNumber":0},{"time":288773.1109812475,"duration":215.73399999999674,"noteNumber":44,"velocity":40,"programNumber":0},{"time":288988.8449812475,"duration":215.73399999999674,"noteNumber":54,"velocity":34,"programNumber":0},{"time":288773.1109812475,"duration":431.4679999999935,"noteNumber":75,"velocity":66,"programNumber":0},{"time":289204.5789812475,"duration":431.4680000000517,"noteNumber":53,"velocity":40,"programNumber":0},{"time":289204.5789812475,"duration":431.4680000000517,"noteNumber":49,"velocity":40,"programNumber":0},{"time":289204.5789812475,"duration":431.4680000000517,"noteNumber":77,"velocity":70,"programNumber":0},{"time":289636.04698124755,"duration":431.4679999999935,"noteNumber":76,"velocity":61,"programNumber":0},{"time":290067.51498124754,"duration":431.4679999999935,"noteNumber":78,"velocity":61,"programNumber":0},{"time":290498.98298124754,"duration":431.4679999999935,"noteNumber":68,"velocity":45,"programNumber":0},{"time":290498.98298124754,"duration":431.4679999999935,"noteNumber":77,"velocity":70,"programNumber":0},{"time":290930.45098124753,"duration":431.4679999999935,"noteNumber":66,"velocity":38,"programNumber":0},{"time":290930.45098124753,"duration":431.4679999999935,"noteNumber":75,"velocity":61,"programNumber":0},{"time":291361.9189812475,"duration":431.4679999999935,"noteNumber":63,"velocity":38,"programNumber":0},{"time":291361.9189812475,"duration":431.4679999999935,"noteNumber":72,"velocity":61,"programNumber":0},{"time":291793.3869812475,"duration":431.4679999999935,"noteNumber":65,"velocity":45,"programNumber":0},{"time":291793.3869812475,"duration":431.4679999999935,"noteNumber":80,"velocity":70,"programNumber":0},{"time":292224.8549812475,"duration":431.4679999999935,"noteNumber":64,"velocity":38,"programNumber":0},{"time":292224.8549812475,"duration":431.4679999999935,"noteNumber":79,"velocity":61,"programNumber":0},{"time":292656.3229812475,"duration":431.4679999999935,"noteNumber":66,"velocity":38,"programNumber":0},{"time":292656.3229812475,"duration":431.4679999999935,"noteNumber":82,"velocity":61,"programNumber":0},{"time":293087.7909812475,"duration":431.4679999999935,"noteNumber":65,"velocity":45,"programNumber":0},{"time":293087.7909812475,"duration":431.4679999999935,"noteNumber":80,"velocity":70,"programNumber":0},{"time":293519.2589812475,"duration":431.4679999999935,"noteNumber":63,"velocity":38,"programNumber":0},{"time":293519.2589812475,"duration":431.4679999999935,"noteNumber":78,"velocity":61,"programNumber":0},{"time":293950.7269812475,"duration":431.4679999999935,"noteNumber":60,"velocity":38,"programNumber":0},{"time":293950.7269812475,"duration":431.4679999999935,"noteNumber":75,"velocity":61,"programNumber":0},{"time":294382.1949812475,"duration":431.4679999999935,"noteNumber":61,"velocity":45,"programNumber":0},{"time":294382.1949812475,"duration":431.4679999999935,"noteNumber":77,"velocity":70,"programNumber":0},{"time":294813.6629812475,"duration":431.4679999999935,"noteNumber":60,"velocity":38,"programNumber":0},{"time":294813.6629812475,"duration":431.4679999999935,"noteNumber":76,"velocity":61,"programNumber":0},{"time":295245.13098124746,"duration":431.4679999999935,"noteNumber":63,"velocity":38,"programNumber":0},{"time":295245.13098124746,"duration":431.4679999999935,"noteNumber":78,"velocity":61,"programNumber":0},{"time":295676.59898124746,"duration":431.4679999999935,"noteNumber":61,"velocity":45,"programNumber":0},{"time":295676.59898124746,"duration":431.4679999999935,"noteNumber":77,"velocity":70,"programNumber":0},{"time":296108.06698124745,"duration":431.4679999999935,"noteNumber":60,"velocity":38,"programNumber":0},{"time":296108.06698124745,"duration":431.4679999999935,"noteNumber":75,"velocity":61,"programNumber":0},{"time":296539.53498124745,"duration":431.4679999999935,"noteNumber":57,"velocity":38,"programNumber":0},{"time":296539.53498124745,"duration":431.4679999999935,"noteNumber":72,"velocity":61,"programNumber":0},{"time":296971.00298124744,"duration":431.4679999999935,"noteNumber":58,"velocity":45,"programNumber":0},{"time":297402.47098124743,"duration":431.4679999999935,"noteNumber":61,"velocity":37,"programNumber":0},{"time":297833.9389812474,"duration":431.4679999999935,"noteNumber":56,"velocity":37,"programNumber":0},{"time":296971.00298124744,"duration":1294.4039999999804,"noteNumber":73,"velocity":66,"programNumber":0},{"time":298265.4069812474,"duration":431.4679999999935,"noteNumber":55,"velocity":45,"programNumber":0},{"time":298265.4069812474,"duration":853.9470833333326,"noteNumber":73,"velocity":57,"programNumber":0},{"time":298265.4069812474,"duration":853.9470833333326,"noteNumber":82,"velocity":71,"programNumber":0},{"time":298696.8749812474,"duration":431.4679999999935,"noteNumber":58,"velocity":43,"programNumber":0},{"time":299128.3429812474,"duration":422.4790833333391,"noteNumber":73,"velocity":60,"programNumber":0},{"time":299128.3429812474,"duration":422.4790833333391,"noteNumber":82,"velocity":74,"programNumber":0},{"time":299128.3429812474,"duration":431.4679999999935,"noteNumber":53,"velocity":48,"programNumber":0},{"time":299559.8109812474,"duration":431.4679999999935,"noteNumber":52,"velocity":53,"programNumber":0},{"time":299991.2789812474,"duration":431.4679999999935,"noteNumber":55,"velocity":44,"programNumber":0},{"time":300422.7469812474,"duration":431.4679999999935,"noteNumber":50,"velocity":44,"programNumber":0},{"time":300854.2149812474,"duration":431.4679999999935,"noteNumber":48,"velocity":52,"programNumber":0},{"time":301285.6829812474,"duration":431.4679999999935,"noteNumber":50,"velocity":44,"programNumber":0},{"time":299559.8109812474,"duration":2157.3399999999674,"noteNumber":72,"velocity":63,"programNumber":0},{"time":299559.8109812474,"duration":2157.3399999999674,"noteNumber":82,"velocity":78,"programNumber":0},{"time":301717.15098124737,"duration":431.4679999999935,"noteNumber":52,"velocity":44,"programNumber":0},{"time":301717.15098124737,"duration":431.4679999999935,"noteNumber":70,"velocity":72,"programNumber":0},{"time":301717.15098124737,"duration":431.4679999999935,"noteNumber":67,"velocity":61,"programNumber":0},{"time":302148.61898124736,"duration":431.4679999999935,"noteNumber":53,"velocity":53,"programNumber":0},{"time":302580.08698124735,"duration":431.4679999999935,"noteNumber":56,"velocity":45,"programNumber":0},{"time":303011.55498124735,"duration":431.4680000000517,"noteNumber":51,"velocity":45,"programNumber":0},{"time":302148.61898124736,"duration":1294.4040000000386,"noteNumber":68,"velocity":69,"programNumber":0},{"time":302148.61898124736,"duration":1294.4040000000386,"noteNumber":65,"velocity":58,"programNumber":0},{"time":303443.0229812474,"duration":431.4679999999935,"noteNumber":50,"velocity":45,"programNumber":0},{"time":303443.0229812474,"duration":853.9470833333326,"noteNumber":77,"velocity":62,"programNumber":0},{"time":303443.0229812474,"duration":853.9470833333326,"noteNumber":80,"velocity":78,"programNumber":0},{"time":303874.4909812474,"duration":431.4679999999935,"noteNumber":53,"velocity":43,"programNumber":0},{"time":304305.9589812474,"duration":431.4679999999935,"noteNumber":48,"velocity":48,"programNumber":0},{"time":304305.9589812474,"duration":431.4679999999935,"noteNumber":80,"velocity":81,"programNumber":0},{"time":304305.9589812474,"duration":431.4679999999935,"noteNumber":77,"velocity":66,"programNumber":0},{"time":304737.4269812474,"duration":431.4679999999935,"noteNumber":47,"velocity":56,"programNumber":0},{"time":305168.8949812474,"duration":431.4679999999935,"noteNumber":50,"velocity":46,"programNumber":0},{"time":305600.36298124737,"duration":431.4679999999935,"noteNumber":45,"velocity":46,"programNumber":0},{"time":306031.83098124736,"duration":431.4679999999935,"noteNumber":43,"velocity":55,"programNumber":0},{"time":306463.29898124735,"duration":431.4679999999935,"noteNumber":45,"velocity":48,"programNumber":0},{"time":304737.4269812474,"duration":2157.3399999999674,"noteNumber":77,"velocity":69,"programNumber":0},{"time":304737.4269812474,"duration":2157.3399999999674,"noteNumber":79,"velocity":85,"programNumber":0},{"time":306894.76698124735,"duration":431.4679999999935,"noteNumber":47,"velocity":48,"programNumber":0},{"time":306894.76698124735,"duration":431.4679999999935,"noteNumber":65,"velocity":72,"programNumber":0},{"time":306894.76698124735,"duration":431.4679999999935,"noteNumber":62,"velocity":61,"programNumber":0},{"time":307326.23498124734,"duration":431.4679999999935,"noteNumber":48,"velocity":62,"programNumber":0},{"time":307326.23498124734,"duration":431.4679999999935,"noteNumber":63,"velocity":69,"programNumber":0},{"time":307326.23498124734,"duration":431.4679999999935,"noteNumber":60,"velocity":58,"programNumber":0},{"time":307757.70298124733,"duration":431.4679999999935,"noteNumber":51,"velocity":52,"programNumber":0},{"time":308189.1709812473,"duration":431.4680000000517,"noteNumber":46,"velocity":52,"programNumber":0},{"time":308620.6389812474,"duration":431.4679999999935,"noteNumber":44,"velocity":61,"programNumber":0},{"time":308620.6389812474,"duration":853.9470833333326,"noteNumber":72,"velocity":72,"programNumber":0},{"time":308620.6389812474,"duration":853.9470833333326,"noteNumber":75,"velocity":72,"programNumber":0},{"time":308620.6389812474,"duration":853.9470833333326,"noteNumber":84,"velocity":85,"programNumber":0},{"time":309052.1069812474,"duration":431.4679999999935,"noteNumber":48,"velocity":53,"programNumber":0},{"time":309483.57498124737,"duration":422.4790833333391,"noteNumber":84,"velocity":84,"programNumber":0},{"time":309483.57498124737,"duration":422.4790833333391,"noteNumber":72,"velocity":71,"programNumber":0},{"time":309483.57498124737,"duration":422.4790833333391,"noteNumber":75,"velocity":71,"programNumber":0},{"time":309483.57498124737,"duration":431.4679999999935,"noteNumber":43,"velocity":53,"programNumber":0},{"time":309915.04298124736,"duration":431.4679999999935,"noteNumber":41,"velocity":61,"programNumber":0},{"time":310346.51098124735,"duration":431.4679999999935,"noteNumber":44,"velocity":53,"programNumber":0},{"time":310777.97898124735,"duration":431.4679999999935,"noteNumber":39,"velocity":53,"programNumber":0},{"time":309915.04298124736,"duration":1294.4039999999804,"noteNumber":72,"velocity":76,"programNumber":0},{"time":309915.04298124736,"duration":1294.4039999999804,"noteNumber":84,"velocity":90,"programNumber":0},{"time":309915.04298124736,"duration":1294.4039999999804,"noteNumber":80,"velocity":76,"programNumber":0},{"time":311209.44698124734,"duration":431.4679999999935,"noteNumber":38,"velocity":70,"programNumber":0},{"time":311209.44698124734,"duration":853.9470833333326,"noteNumber":77,"velocity":82,"programNumber":0},{"time":311209.44698124734,"duration":853.9470833333326,"noteNumber":80,"velocity":82,"programNumber":0},{"time":311209.44698124734,"duration":853.9470833333326,"noteNumber":89,"velocity":97,"programNumber":0},{"time":311640.91498124733,"duration":431.4679999999935,"noteNumber":41,"velocity":60,"programNumber":0},{"time":312072.3829812473,"duration":422.4790833333391,"noteNumber":89,"velocity":96,"programNumber":0},{"time":312072.3829812473,"duration":422.4790833333391,"noteNumber":77,"velocity":81,"programNumber":0},{"time":312072.3829812473,"duration":422.4790833333391,"noteNumber":80,"velocity":81,"programNumber":0},{"time":312072.3829812473,"duration":431.4679999999935,"noteNumber":36,"velocity":60,"programNumber":0},{"time":312503.8509812473,"duration":431.4679999999935,"noteNumber":35,"velocity":70,"programNumber":0},{"time":312935.3189812473,"duration":431.4679999999935,"noteNumber":38,"velocity":60,"programNumber":0},{"time":313366.7869812473,"duration":431.4679999999935,"noteNumber":33,"velocity":60,"programNumber":0},{"time":313798.2549812473,"duration":431.4679999999935,"noteNumber":31,"velocity":66,"programNumber":0},{"time":314229.7229812473,"duration":431.4679999999935,"noteNumber":33,"velocity":57,"programNumber":0},{"time":312503.8509812473,"duration":2157.3399999999674,"noteNumber":89,"velocity":103,"programNumber":0},{"time":312503.8509812473,"duration":2157.3399999999674,"noteNumber":79,"velocity":87,"programNumber":0},{"time":312503.8509812473,"duration":2157.3399999999674,"noteNumber":77,"velocity":87,"programNumber":0},{"time":312503.8509812473,"duration":2157.3399999999674,"noteNumber":86,"velocity":87,"programNumber":0},{"time":314661.1909812473,"duration":431.4679999999935,"noteNumber":35,"velocity":57,"programNumber":0},{"time":314661.1909812473,"duration":431.4679999999935,"noteNumber":77,"velocity":79,"programNumber":0},{"time":314661.1909812473,"duration":431.4679999999935,"noteNumber":74,"velocity":67,"programNumber":0},{"time":315092.6589812473,"duration":431.4679999999935,"noteNumber":36,"velocity":62,"programNumber":0},{"time":315524.1269812473,"duration":431.4679999999935,"noteNumber":38,"velocity":57,"programNumber":0},{"time":315092.6589812473,"duration":862.935999999987,"noteNumber":75,"velocity":85,"programNumber":0},{"time":315092.6589812473,"duration":862.935999999987,"noteNumber":72,"velocity":72,"programNumber":0},{"time":315955.59498124727,"duration":431.4679999999935,"noteNumber":39,"velocity":62,"programNumber":0},{"time":315955.59498124727,"duration":862.935999999987,"noteNumber":75,"velocity":76,"programNumber":0},{"time":315955.59498124727,"duration":862.935999999987,"noteNumber":67,"velocity":64,"programNumber":0},{"time":316818.53098124726,"duration":431.4679999999935,"noteNumber":74,"velocity":74,"programNumber":0},{"time":316387.06298124726,"duration":862.935999999987,"noteNumber":41,"velocity":57,"programNumber":0},{"time":316387.06298124726,"duration":862.935999999987,"noteNumber":68,"velocity":80,"programNumber":0},{"time":316818.53098124726,"duration":431.4679999999935,"noteNumber":65,"velocity":62,"programNumber":0},{"time":317249.99898124725,"duration":431.4679999999935,"noteNumber":42,"velocity":50,"programNumber":0},{"time":317249.99898124725,"duration":431.4679999999935,"noteNumber":63,"velocity":60,"programNumber":0},{"time":317249.99898124725,"duration":431.4679999999935,"noteNumber":69,"velocity":60,"programNumber":0},{"time":317249.99898124725,"duration":431.4679999999935,"noteNumber":72,"velocity":71,"programNumber":0},{"time":317681.46698124724,"duration":215.73399999999674,"noteNumber":43,"velocity":57,"programNumber":0},{"time":317681.46698124724,"duration":431.4679999999935,"noteNumber":62,"velocity":64,"programNumber":0},{"time":317681.46698124724,"duration":431.4679999999935,"noteNumber":67,"velocity":64,"programNumber":0},{"time":317681.46698124724,"duration":431.4679999999935,"noteNumber":71,"velocity":76,"programNumber":0},{"time":318112.93498124724,"duration":431.4679999999935,"noteNumber":55,"velocity":54,"programNumber":0},{"time":318544.4029812472,"duration":431.4679999999935,"noteNumber":79,"velocity":57,"programNumber":0},{"time":318544.4029812472,"duration":431.4679999999935,"noteNumber":74,"velocity":48,"programNumber":0},{"time":318544.4029812472,"duration":431.4679999999935,"noteNumber":71,"velocity":48,"programNumber":0},{"time":318975.8709812472,"duration":431.4679999999935,"noteNumber":77,"velocity":60,"programNumber":0},{"time":318975.8709812472,"duration":431.4679999999935,"noteNumber":72,"velocity":51,"programNumber":0},{"time":318975.8709812472,"duration":431.4679999999935,"noteNumber":68,"velocity":51,"programNumber":0},{"time":319407.3389812472,"duration":431.4679999999935,"noteNumber":55,"velocity":45,"programNumber":0},{"time":319838.8069812472,"duration":431.4679999999935,"noteNumber":75,"velocity":56,"programNumber":0},{"time":319838.8069812472,"duration":431.4679999999935,"noteNumber":70,"velocity":47,"programNumber":0},{"time":319838.8069812472,"duration":431.4679999999935,"noteNumber":67,"velocity":47,"programNumber":0},{"time":320270.2749812472,"duration":431.4679999999935,"noteNumber":74,"velocity":60,"programNumber":0},{"time":320270.2749812472,"duration":431.4679999999935,"noteNumber":68,"velocity":51,"programNumber":0},{"time":320270.2749812472,"duration":431.4679999999935,"noteNumber":65,"velocity":51,"programNumber":0},{"time":320701.7429812472,"duration":431.4679999999935,"noteNumber":55,"velocity":46,"programNumber":0},{"time":321133.2109812472,"duration":431.4679999999935,"noteNumber":72,"velocity":57,"programNumber":0},{"time":321133.2109812472,"duration":431.4679999999935,"noteNumber":67,"velocity":48,"programNumber":0},{"time":321133.2109812472,"duration":431.4679999999935,"noteNumber":63,"velocity":48,"programNumber":0},{"time":321564.6789812472,"duration":431.4679999999935,"noteNumber":71,"velocity":60,"programNumber":0},{"time":321564.6789812472,"duration":431.4679999999935,"noteNumber":65,"velocity":51,"programNumber":0},{"time":321564.6789812472,"duration":431.4679999999935,"noteNumber":62,"velocity":51,"programNumber":0},{"time":321996.1469812472,"duration":431.4679999999935,"noteNumber":55,"velocity":47,"programNumber":0},{"time":322427.61498124717,"duration":431.4679999999935,"noteNumber":68,"velocity":54,"programNumber":0},{"time":322427.61498124717,"duration":431.4679999999935,"noteNumber":63,"velocity":45,"programNumber":0},{"time":322427.61498124717,"duration":431.4679999999935,"noteNumber":60,"velocity":45,"programNumber":0},{"time":322859.08298124716,"duration":431.4679999999935,"noteNumber":67,"velocity":60,"programNumber":0},{"time":322859.08298124716,"duration":431.4679999999935,"noteNumber":62,"velocity":51,"programNumber":0},{"time":322859.08298124716,"duration":431.4679999999935,"noteNumber":59,"velocity":51,"programNumber":0},{"time":323290.55098124716,"duration":431.4679999999935,"noteNumber":43,"velocity":47,"programNumber":0},{"time":323722.01898124715,"duration":431.4679999999935,"noteNumber":79,"velocity":51,"programNumber":0},{"time":323722.01898124715,"duration":431.4679999999935,"noteNumber":74,"velocity":43,"programNumber":0},{"time":323722.01898124715,"duration":431.4679999999935,"noteNumber":71,"velocity":43,"programNumber":0},{"time":324153.48698124714,"duration":431.4679999999935,"noteNumber":77,"velocity":53,"programNumber":0},{"time":324153.48698124714,"duration":431.4679999999935,"noteNumber":72,"velocity":45,"programNumber":0},{"time":324153.48698124714,"duration":431.4679999999935,"noteNumber":68,"velocity":45,"programNumber":0},{"time":324584.95498124714,"duration":431.4679999999935,"noteNumber":43,"velocity":39,"programNumber":0},{"time":325016.42298124713,"duration":431.4679999999935,"noteNumber":75,"velocity":48,"programNumber":0},{"time":325016.42298124713,"duration":431.4679999999935,"noteNumber":70,"velocity":40,"programNumber":0},{"time":325016.42298124713,"duration":431.4679999999935,"noteNumber":67,"velocity":40,"programNumber":0},{"time":325447.8909812471,"duration":431.4679999999935,"noteNumber":74,"velocity":51,"programNumber":0},{"time":325447.8909812471,"duration":431.4679999999935,"noteNumber":68,"velocity":43,"programNumber":0},{"time":325447.8909812471,"duration":431.4679999999935,"noteNumber":65,"velocity":43,"programNumber":0},{"time":325879.3589812471,"duration":431.4679999999935,"noteNumber":43,"velocity":38,"programNumber":0},{"time":326310.8269812471,"duration":431.4679999999935,"noteNumber":72,"velocity":47,"programNumber":0},{"time":326310.8269812471,"duration":431.4679999999935,"noteNumber":67,"velocity":39,"programNumber":0},{"time":326310.8269812471,"duration":431.4679999999935,"noteNumber":63,"velocity":39,"programNumber":0},{"time":326742.2949812471,"duration":431.4679999999935,"noteNumber":71,"velocity":49,"programNumber":0},{"time":326742.2949812471,"duration":431.4679999999935,"noteNumber":65,"velocity":41,"programNumber":0},{"time":326742.2949812471,"duration":431.4679999999935,"noteNumber":62,"velocity":41,"programNumber":0},{"time":327173.7629812471,"duration":431.4679999999935,"noteNumber":43,"velocity":37,"programNumber":0},{"time":327605.2309812471,"duration":431.4679999999935,"noteNumber":68,"velocity":42,"programNumber":0},{"time":327605.2309812471,"duration":431.4679999999935,"noteNumber":63,"velocity":35,"programNumber":0},{"time":327605.2309812471,"duration":431.4679999999935,"noteNumber":60,"velocity":35,"programNumber":0},{"time":328036.6989812471,"duration":431.4680000000517,"noteNumber":67,"velocity":46,"programNumber":0},{"time":328036.6989812471,"duration":431.4680000000517,"noteNumber":62,"velocity":39,"programNumber":0},{"time":328036.6989812471,"duration":431.4680000000517,"noteNumber":59,"velocity":39,"programNumber":0},{"time":328468.16698124714,"duration":431.4679999999353,"noteNumber":43,"velocity":36,"programNumber":0},{"time":328468.16698124714,"duration":431.4679999999353,"noteNumber":31,"velocity":36,"programNumber":0},{"time":328899.6349812471,"duration":431.46799999987707,"noteNumber":65,"velocity":41,"programNumber":0},{"time":328899.6349812471,"duration":431.46799999987707,"noteNumber":56,"velocity":34,"programNumber":0},{"time":328899.6349812471,"duration":431.46799999987707,"noteNumber":60,"velocity":34,"programNumber":0},{"time":329331.10298124695,"duration":431.4679999999353,"noteNumber":63,"velocity":43,"programNumber":0},{"time":329331.10298124695,"duration":431.4679999999353,"noteNumber":60,"velocity":36,"programNumber":0},{"time":329331.10298124695,"duration":431.4679999999353,"noteNumber":55,"velocity":36,"programNumber":0},{"time":329762.5709812469,"duration":431.4679999999935,"noteNumber":43,"velocity":33,"programNumber":0},{"time":329762.5709812469,"duration":431.4679999999935,"noteNumber":31,"velocity":28,"programNumber":0},{"time":330194.0389812469,"duration":431.4679999999935,"noteNumber":62,"velocity":38,"programNumber":0},{"time":330194.0389812469,"duration":431.4679999999935,"noteNumber":59,"velocity":32,"programNumber":0},{"time":330194.0389812469,"duration":431.4679999999935,"noteNumber":53,"velocity":32,"programNumber":0},{"time":330625.5069812469,"duration":647.2019999999902,"noteNumber":36,"velocity":59,"programNumber":0},{"time":330625.5069812469,"duration":647.2019999999902,"noteNumber":43,"velocity":59,"programNumber":0},{"time":330625.5069812469,"duration":647.2019999999902,"noteNumber":55,"velocity":69,"programNumber":0},{"time":330625.5069812469,"duration":647.2019999999902,"noteNumber":60,"velocity":82,"programNumber":0},{"time":330625.5069812469,"duration":647.2019999999902,"noteNumber":51,"velocity":69,"programNumber":0},{"time":330625.5069812469,"duration":647.2019999999902,"noteNumber":39,"velocity":59,"programNumber":0},{"time":330625.5069812469,"duration":647.2019999999902,"noteNumber":48,"velocity":70,"programNumber":0},{"time":331380.5759812469,"duration":107.86700000002747,"noteNumber":67,"velocity":70,"programNumber":0},{"time":331488.4429812469,"duration":323.6010000000242,"noteNumber":75,"velocity":78,"programNumber":0},{"time":331812.04398124694,"duration":107.86700000002747,"noteNumber":72,"velocity":70,"programNumber":0},{"time":331919.91098124697,"duration":323.6010000000242,"noteNumber":79,"velocity":79,"programNumber":0},{"time":332243.511981247,"duration":107.86700000002747,"noteNumber":75,"velocity":70,"programNumber":0},{"time":332351.378981247,"duration":323.6010000000242,"noteNumber":84,"velocity":79,"programNumber":0},{"time":332674.97998124704,"duration":107.86700000002747,"noteNumber":79,"velocity":70,"programNumber":0},{"time":332782.8469812471,"duration":107.86699999996927,"noteNumber":87,"velocity":84,"programNumber":0},{"time":333214.31498124707,"duration":107.86700000002747,"noteNumber":87,"velocity":84,"programNumber":0},{"time":334077.2509812471,"duration":215.73399999999674,"noteNumber":63,"velocity":41,"programNumber":0},{"time":334077.2509812471,"duration":215.73399999999674,"noteNumber":67,"velocity":39,"programNumber":0},{"time":334077.2509812471,"duration":215.73399999999674,"noteNumber":72,"velocity":46,"programNumber":0},{"time":334077.2509812471,"duration":215.73399999999674,"noteNumber":60,"velocity":34,"programNumber":0},{"time":334508.7189812471,"duration":862.935999999987,"noteNumber":60,"velocity":34,"programNumber":0},{"time":334508.7189812471,"duration":862.935999999987,"noteNumber":67,"velocity":42,"programNumber":0},{"time":334508.7189812471,"duration":862.935999999987,"noteNumber":72,"velocity":50,"programNumber":0},{"time":334508.7189812471,"duration":862.935999999987,"noteNumber":63,"velocity":41,"programNumber":0},{"time":335371.6549812471,"duration":422.4790833333391,"noteNumber":65,"velocity":38,"programNumber":0},{"time":335371.6549812471,"duration":422.4790833333391,"noteNumber":67,"velocity":39,"programNumber":0},{"time":335371.6549812471,"duration":422.4790833333391,"noteNumber":62,"velocity":32,"programNumber":0},{"time":335380.64389791375,"duration":422.4790833333391,"noteNumber":71,"velocity":46,"programNumber":0},{"time":335803.1229812471,"duration":647.2019999999902,"noteNumber":50,"velocity":59,"programNumber":0},{"time":335803.1229812471,"duration":647.2019999999902,"noteNumber":68,"velocity":69,"programNumber":0},{"time":335803.1229812471,"duration":647.2019999999902,"noteNumber":59,"velocity":59,"programNumber":0},{"time":335803.1229812471,"duration":647.2019999999902,"noteNumber":65,"velocity":69,"programNumber":0},{"time":335803.1229812471,"duration":647.2019999999902,"noteNumber":71,"velocity":82,"programNumber":0},{"time":335803.1229812471,"duration":647.2019999999902,"noteNumber":53,"velocity":59,"programNumber":0},{"time":335803.1229812471,"duration":647.2019999999902,"noteNumber":56,"velocity":59,"programNumber":0},{"time":335803.1229812471,"duration":647.2019999999902,"noteNumber":62,"velocity":70,"programNumber":0},{"time":336558.1919812471,"duration":107.86700000002747,"noteNumber":71,"velocity":70,"programNumber":0},{"time":336666.05898124713,"duration":323.6010000000242,"noteNumber":77,"velocity":78,"programNumber":0},{"time":336989.65998124715,"duration":107.86700000002747,"noteNumber":74,"velocity":70,"programNumber":0},{"time":337097.5269812472,"duration":323.6010000000242,"noteNumber":83,"velocity":79,"programNumber":0},{"time":337421.1279812472,"duration":107.86700000002747,"noteNumber":77,"velocity":70,"programNumber":0},{"time":337528.99498124723,"duration":323.6010000000242,"noteNumber":86,"velocity":79,"programNumber":0},{"time":337852.59598124726,"duration":107.86700000002747,"noteNumber":83,"velocity":70,"programNumber":0},{"time":337960.4629812473,"duration":107.86699999996927,"noteNumber":89,"velocity":84,"programNumber":0},{"time":338391.9309812473,"duration":107.86700000002747,"noteNumber":89,"velocity":84,"programNumber":0},{"time":339254.8669812473,"duration":215.73399999999674,"noteNumber":65,"velocity":34,"programNumber":0},{"time":339254.8669812473,"duration":215.73399999999674,"noteNumber":62,"velocity":34,"programNumber":0},{"time":339254.8669812473,"duration":215.73399999999674,"noteNumber":71,"velocity":39,"programNumber":0},{"time":339254.8669812473,"duration":215.73399999999674,"noteNumber":74,"velocity":46,"programNumber":0},{"time":339254.8669812473,"duration":215.73399999999674,"noteNumber":68,"velocity":41,"programNumber":0},{"time":339686.3349812473,"duration":862.935999999987,"noteNumber":62,"velocity":34,"programNumber":0},{"time":339686.3349812473,"duration":862.935999999987,"noteNumber":68,"velocity":41,"programNumber":0},{"time":339686.3349812473,"duration":862.935999999987,"noteNumber":71,"velocity":42,"programNumber":0},{"time":339686.3349812473,"duration":862.935999999987,"noteNumber":74,"velocity":50,"programNumber":0},{"time":339686.3349812473,"duration":862.935999999987,"noteNumber":65,"velocity":34,"programNumber":0},{"time":340549.2709812473,"duration":323.6010000000242,"noteNumber":72,"velocity":46,"programNumber":0},{"time":340872.8719812473,"duration":53.93349999998463,"noteNumber":72,"velocity":45,"programNumber":0},{"time":340926.8054812473,"duration":53.93349999998463,"noteNumber":75,"velocity":48,"programNumber":0},{"time":340549.2709812473,"duration":431.4679999999935,"noteNumber":63,"velocity":32,"programNumber":0},{"time":340549.2709812473,"duration":431.4679999999935,"noteNumber":67,"velocity":38,"programNumber":0},{"time":340980.7389812473,"duration":647.2019999999902,"noteNumber":79,"velocity":53,"programNumber":0},{"time":341627.9409812473,"duration":215.73399999999674,"noteNumber":77,"velocity":41,"programNumber":0},{"time":341843.6749812473,"duration":431.4679999999935,"noteNumber":51,"velocity":29,"programNumber":0},{"time":341843.6749812473,"duration":431.4679999999935,"noteNumber":75,"velocity":51,"programNumber":0},{"time":341843.6749812473,"duration":431.4679999999935,"noteNumber":60,"velocity":35,"programNumber":0},{"time":341843.6749812473,"duration":431.4679999999935,"noteNumber":55,"velocity":29,"programNumber":0},{"time":342275.1429812473,"duration":862.935999999987,"noteNumber":59,"velocity":39,"programNumber":0},{"time":342275.1429812473,"duration":862.935999999987,"noteNumber":74,"velocity":47,"programNumber":0},{"time":342275.1429812473,"duration":862.935999999987,"noteNumber":53,"velocity":33,"programNumber":0},{"time":342275.1429812473,"duration":862.935999999987,"noteNumber":56,"velocity":33,"programNumber":0},{"time":343138.07898124726,"duration":323.600999999966,"noteNumber":72,"velocity":39,"programNumber":0},{"time":343461.67998124723,"duration":35.955666666675825,"noteNumber":67,"velocity":27,"programNumber":0},{"time":343497.6356479139,"duration":35.955666666675825,"noteNumber":72,"velocity":45,"programNumber":0},{"time":343533.5913145806,"duration":35.955666666675825,"noteNumber":75,"velocity":48,"programNumber":0},{"time":343138.07898124726,"duration":431.4679999999935,"noteNumber":51,"velocity":28,"programNumber":0},{"time":343138.07898124726,"duration":431.4679999999935,"noteNumber":55,"velocity":28,"programNumber":0},{"time":343138.07898124726,"duration":431.4679999999935,"noteNumber":60,"velocity":34,"programNumber":0},{"time":343569.54698124726,"duration":647.2019999999902,"noteNumber":79,"velocity":53,"programNumber":0},{"time":344216.74898124725,"duration":215.73399999999674,"noteNumber":77,"velocity":41,"programNumber":0},{"time":344432.48298124725,"duration":431.4679999999935,"noteNumber":67,"velocity":35,"programNumber":0},{"time":344432.48298124725,"duration":431.4679999999935,"noteNumber":72,"velocity":43,"programNumber":0},{"time":344432.48298124725,"duration":431.4679999999935,"noteNumber":75,"velocity":51,"programNumber":0},{"time":344432.48298124725,"duration":431.4679999999935,"noteNumber":63,"velocity":29,"programNumber":0},{"time":344863.95098124724,"duration":862.935999999987,"noteNumber":65,"velocity":33,"programNumber":0},{"time":344863.95098124724,"duration":862.935999999987,"noteNumber":71,"velocity":39,"programNumber":0},{"time":344863.95098124724,"duration":862.935999999987,"noteNumber":74,"velocity":47,"programNumber":0},{"time":344863.95098124724,"duration":862.935999999987,"noteNumber":68,"velocity":39,"programNumber":0},{"time":345726.8869812472,"duration":323.600999999966,"noteNumber":72,"velocity":39,"programNumber":0},{"time":346050.4879812472,"duration":35.955666666675825,"noteNumber":67,"velocity":60,"programNumber":0},{"time":346086.44364791387,"duration":35.955666666675825,"noteNumber":72,"velocity":63,"programNumber":0},{"time":346122.39931458054,"duration":35.955666666675825,"noteNumber":75,"velocity":69,"programNumber":0},{"time":345726.8869812472,"duration":431.4679999999935,"noteNumber":63,"velocity":28,"programNumber":0},{"time":346158.3549812472,"duration":647.2019999999902,"noteNumber":79,"velocity":81,"programNumber":0},{"time":346158.3549812472,"duration":647.2019999999902,"noteNumber":67,"velocity":69,"programNumber":0},{"time":346805.5569812472,"duration":215.73399999999674,"noteNumber":65,"velocity":51,"programNumber":0},{"time":346805.5569812472,"duration":215.73399999999674,"noteNumber":77,"velocity":61,"programNumber":0},{"time":347021.2909812472,"duration":431.4680000000517,"noteNumber":51,"velocity":39,"programNumber":0},{"time":347021.2909812472,"duration":431.4680000000517,"noteNumber":55,"velocity":39,"programNumber":0},{"time":347021.2909812472,"duration":431.4680000000517,"noteNumber":60,"velocity":47,"programNumber":0},{"time":347021.2909812472,"duration":862.9360000000452,"noteNumber":63,"velocity":62,"programNumber":0},{"time":347021.2909812472,"duration":862.9360000000452,"noteNumber":75,"velocity":73,"programNumber":0},{"time":347884.22698124725,"duration":107.86700000002747,"noteNumber":62,"velocity":61,"programNumber":0},{"time":347884.22698124725,"duration":107.86700000002747,"noteNumber":74,"velocity":72,"programNumber":0},{"time":347452.75898124726,"duration":862.9360000000452,"noteNumber":56,"velocity":45,"programNumber":0},{"time":347452.75898124726,"duration":862.9360000000452,"noteNumber":59,"velocity":53,"programNumber":0},{"time":347452.75898124726,"duration":862.9360000000452,"noteNumber":53,"velocity":45,"programNumber":0},{"time":348315.6949812473,"duration":431.4679999999935,"noteNumber":51,"velocity":39,"programNumber":0},{"time":348315.6949812473,"duration":431.4679999999935,"noteNumber":55,"velocity":46,"programNumber":0},{"time":348315.6949812473,"duration":862.935999999987,"noteNumber":60,"velocity":63,"programNumber":0},{"time":348315.6949812473,"duration":862.935999999987,"noteNumber":72,"velocity":75,"programNumber":0},{"time":349178.6309812473,"duration":107.86699999996927,"noteNumber":71,"velocity":75,"programNumber":0},{"time":349178.6309812473,"duration":107.86699999996927,"noteNumber":59,"velocity":63,"programNumber":0},{"time":348747.1629812473,"duration":862.935999999987,"noteNumber":50,"velocity":46,"programNumber":0},{"time":348747.1629812473,"duration":862.935999999987,"noteNumber":53,"velocity":56,"programNumber":0},{"time":349610.0989812473,"duration":431.4679999999935,"noteNumber":48,"velocity":41,"programNumber":0},{"time":349610.0989812473,"duration":431.4679999999935,"noteNumber":51,"velocity":49,"programNumber":0},{"time":350041.5669812473,"duration":431.4680000000517,"noteNumber":47,"velocity":56,"programNumber":0},{"time":349610.0989812473,"duration":862.9360000000452,"noteNumber":56,"velocity":62,"programNumber":0},{"time":349610.0989812473,"duration":862.9360000000452,"noteNumber":68,"velocity":74,"programNumber":0},{"time":350041.5669812473,"duration":431.4680000000517,"noteNumber":50,"velocity":47,"programNumber":0},{"time":350473.0349812473,"duration":215.73399999999674,"noteNumber":67,"velocity":67,"programNumber":0},{"time":350473.0349812473,"duration":215.73399999999674,"noteNumber":55,"velocity":57,"programNumber":0},{"time":351767.4389812473,"duration":143.8226666666451,"noteNumber":59,"velocity":42,"programNumber":0},{"time":351911.26164791395,"duration":143.8226666666451,"noteNumber":62,"velocity":35,"programNumber":0},{"time":352055.0843145806,"duration":143.8226666667033,"noteNumber":65,"velocity":35,"programNumber":0},{"time":352198.9069812473,"duration":143.8226666666451,"noteNumber":68,"velocity":43,"programNumber":0},{"time":352342.72964791395,"duration":143.8226666666451,"noteNumber":67,"velocity":36,"programNumber":0},{"time":352486.5523145806,"duration":143.8226666666451,"noteNumber":65,"velocity":36,"programNumber":0},{"time":352198.9069812473,"duration":431.4679999999353,"noteNumber":50,"velocity":28,"programNumber":0},{"time":352198.9069812473,"duration":431.4679999999353,"noteNumber":56,"velocity":34,"programNumber":0},{"time":352198.9069812473,"duration":431.4679999999353,"noteNumber":53,"velocity":28,"programNumber":0},{"time":352198.9069812473,"duration":431.4679999999353,"noteNumber":47,"velocity":28,"programNumber":0},{"time":352630.37498124724,"duration":107.86700000002747,"noteNumber":48,"velocity":28,"programNumber":0},{"time":352630.37498124724,"duration":107.86700000002747,"noteNumber":63,"velocity":43,"programNumber":0},{"time":352630.37498124724,"duration":107.86700000002747,"noteNumber":55,"velocity":34,"programNumber":0},{"time":352630.37498124724,"duration":107.86700000002747,"noteNumber":51,"velocity":28,"programNumber":0},{"time":354356.24698124727,"duration":143.8226666666451,"noteNumber":53,"velocity":42,"programNumber":0},{"time":354500.0696479139,"duration":143.8226666666451,"noteNumber":56,"velocity":35,"programNumber":0},{"time":354643.89231458056,"duration":143.8226666667033,"noteNumber":62,"velocity":35,"programNumber":0},{"time":354787.71498124726,"duration":143.8226666666451,"noteNumber":65,"velocity":43,"programNumber":0},{"time":354931.5376479139,"duration":143.8226666666451,"noteNumber":63,"velocity":36,"programNumber":0},{"time":355075.36031458055,"duration":143.8226666666451,"noteNumber":62,"velocity":36,"programNumber":0},{"time":354787.71498124726,"duration":431.4679999999353,"noteNumber":50,"velocity":34,"programNumber":0},{"time":354787.71498124726,"duration":431.4679999999353,"noteNumber":44,"velocity":28,"programNumber":0},{"time":354787.71498124726,"duration":431.4679999999353,"noteNumber":41,"velocity":28,"programNumber":0},{"time":355219.1829812472,"duration":107.86700000002747,"noteNumber":51,"velocity":34,"programNumber":0},{"time":355219.1829812472,"duration":107.86700000002747,"noteNumber":60,"velocity":43,"programNumber":0},{"time":355219.1829812472,"duration":107.86700000002747,"noteNumber":48,"velocity":28,"programNumber":0},{"time":355219.1829812472,"duration":107.86700000002747,"noteNumber":43,"velocity":28,"programNumber":0},{"time":356945.0549812471,"duration":143.8226666666451,"noteNumber":55,"velocity":66,"programNumber":0},{"time":357088.87764791376,"duration":143.8226666666451,"noteNumber":59,"velocity":69,"programNumber":0},{"time":357232.7003145804,"duration":143.8226666667033,"noteNumber":62,"velocity":72,"programNumber":0},{"time":357376.5229812471,"duration":143.8226666666451,"noteNumber":65,"velocity":75,"programNumber":0},{"time":357376.5229812471,"duration":215.73399999999674,"noteNumber":31,"velocity":73,"programNumber":0},{"time":357376.5229812471,"duration":215.73399999999674,"noteNumber":43,"velocity":73,"programNumber":0},{"time":357520.34564791375,"duration":143.8226666666451,"noteNumber":62,"velocity":67,"programNumber":0},{"time":357664.1683145804,"duration":143.8226666666451,"noteNumber":59,"velocity":71,"programNumber":0},{"time":357807.99098124704,"duration":215.73399999999674,"noteNumber":48,"velocity":80,"programNumber":0},{"time":357807.99098124704,"duration":215.73399999999674,"noteNumber":36,"velocity":67,"programNumber":0},{"time":357807.99098124704,"duration":215.73399999999674,"noteNumber":60,"velocity":94,"programNumber":0},{"time":362554.1389812471,"duration":431.4679999999935,"noteNumber":73,"velocity":45,"programNumber":0},{"time":362122.6709812471,"duration":862.935999999987,"noteNumber":65,"velocity":50,"programNumber":0},{"time":361691.2029812471,"duration":1294.4039999999804,"noteNumber":59,"velocity":50,"programNumber":0},{"time":362985.6069812471,"duration":862.935999999987,"noteNumber":73,"velocity":50,"programNumber":0},{"time":360396.79898124706,"duration":3883.2119999999995,"noteNumber":61,"velocity":69,"programNumber":0},{"time":362985.6069812471,"duration":1294.4039999999804,"noteNumber":58,"velocity":49,"programNumber":0},{"time":362985.6069812471,"duration":1294.4039999999804,"noteNumber":66,"velocity":42,"programNumber":0},{"time":363848.54298124707,"duration":862.935999999987,"noteNumber":73,"velocity":45,"programNumber":0},{"time":364711.47898124706,"duration":431.4679999999935,"noteNumber":75,"velocity":45,"programNumber":0},{"time":364280.01098124706,"duration":1294.4039999999804,"noteNumber":56,"velocity":28,"programNumber":0},{"time":364280.01098124706,"duration":1294.4039999999804,"noteNumber":65,"velocity":42,"programNumber":0},{"time":364280.01098124706,"duration":1294.4039999999804,"noteNumber":59,"velocity":34,"programNumber":0},{"time":365142.94698124705,"duration":862.9360000000452,"noteNumber":71,"velocity":44,"programNumber":0},{"time":366005.8829812471,"duration":431.4679999999935,"noteNumber":69,"velocity":45,"programNumber":0},{"time":366437.3509812471,"duration":431.4679999999935,"noteNumber":70,"velocity":45,"programNumber":0},{"time":365574.41498124704,"duration":1294.4040000000386,"noteNumber":66,"velocity":42,"programNumber":0},{"time":365574.41498124704,"duration":1294.4040000000386,"noteNumber":54,"velocity":28,"programNumber":0},{"time":365574.41498124704,"duration":1294.4040000000386,"noteNumber":61,"velocity":33,"programNumber":0},{"time":367731.75498124707,"duration":431.4679999999935,"noteNumber":85,"velocity":45,"programNumber":0},{"time":367300.2869812471,"duration":862.935999999987,"noteNumber":77,"velocity":50,"programNumber":0},{"time":366868.8189812471,"duration":1294.4039999999804,"noteNumber":71,"velocity":50,"programNumber":0},{"time":368163.22298124706,"duration":862.935999999987,"noteNumber":85,"velocity":50,"programNumber":0},{"time":366868.8189812471,"duration":2588.807999999961,"noteNumber":73,"velocity":60,"programNumber":0},{"time":368163.22298124706,"duration":1294.4039999999804,"noteNumber":70,"velocity":49,"programNumber":0},{"time":368163.22298124706,"duration":1294.4039999999804,"noteNumber":78,"velocity":42,"programNumber":0},{"time":369026.15898124705,"duration":862.935999999987,"noteNumber":85,"velocity":45,"programNumber":0},{"time":369889.09498124704,"duration":431.4679999999935,"noteNumber":87,"velocity":45,"programNumber":0},{"time":369457.62698124704,"duration":1294.4039999999804,"noteNumber":71,"velocity":34,"programNumber":0},{"time":369457.62698124704,"duration":1294.4039999999804,"noteNumber":77,"velocity":42,"programNumber":0},{"time":369457.62698124704,"duration":1294.4039999999804,"noteNumber":68,"velocity":28,"programNumber":0},{"time":370320.562981247,"duration":862.9360000000452,"noteNumber":83,"velocity":44,"programNumber":0},{"time":371183.4989812471,"duration":431.4679999999935,"noteNumber":81,"velocity":45,"programNumber":0},{"time":371614.96698124707,"duration":431.4679999999935,"noteNumber":82,"velocity":45,"programNumber":0},{"time":370752.030981247,"duration":1294.4040000000386,"noteNumber":78,"velocity":42,"programNumber":0},{"time":370752.030981247,"duration":1294.4040000000386,"noteNumber":66,"velocity":28,"programNumber":0},{"time":370752.030981247,"duration":1294.4040000000386,"noteNumber":73,"velocity":33,"programNumber":0},{"time":372909.37098124705,"duration":431.4679999999935,"noteNumber":82,"velocity":45,"programNumber":0},{"time":372477.90298124705,"duration":862.935999999987,"noteNumber":74,"velocity":50,"programNumber":0},{"time":372046.43498124706,"duration":1294.4039999999804,"noteNumber":68,"velocity":50,"programNumber":0},{"time":373340.83898124704,"duration":862.935999999987,"noteNumber":82,"velocity":50,"programNumber":0},{"time":372046.43498124706,"duration":2588.807999999961,"noteNumber":70,"velocity":60,"programNumber":0},{"time":373340.83898124704,"duration":1294.4039999999804,"noteNumber":66,"velocity":49,"programNumber":0},{"time":373340.83898124704,"duration":1294.4039999999804,"noteNumber":75,"velocity":42,"programNumber":0},{"time":374203.774981247,"duration":862.935999999987,"noteNumber":82,"velocity":45,"programNumber":0},{"time":375066.710981247,"duration":431.4679999999935,"noteNumber":83,"velocity":45,"programNumber":0},{"time":374635.242981247,"duration":1294.4039999999804,"noteNumber":68,"velocity":44,"programNumber":0},{"time":374635.242981247,"duration":1294.4039999999804,"noteNumber":74,"velocity":42,"programNumber":0},{"time":374635.242981247,"duration":1294.4039999999804,"noteNumber":65,"velocity":44,"programNumber":0},{"time":375498.178981247,"duration":862.9360000000452,"noteNumber":80,"velocity":44,"programNumber":0},{"time":376361.11498124705,"duration":431.4679999999935,"noteNumber":77,"velocity":52,"programNumber":0},{"time":375929.646981247,"duration":1294.4040000000386,"noteNumber":66,"velocity":33,"programNumber":0},{"time":375929.646981247,"duration":1294.4040000000386,"noteNumber":70,"velocity":49,"programNumber":0},{"time":375929.646981247,"duration":1294.4040000000386,"noteNumber":63,"velocity":28,"programNumber":0},{"time":376792.58298124705,"duration":862.935999999987,"noteNumber":78,"velocity":52,"programNumber":0},{"time":377655.51898124703,"duration":431.4679999999935,"noteNumber":80,"velocity":55,"programNumber":0},{"time":377224.05098124704,"duration":1294.4039999999804,"noteNumber":65,"velocity":48,"programNumber":0},{"time":377224.05098124704,"duration":1294.4039999999804,"noteNumber":71,"velocity":50,"programNumber":0},{"time":377224.05098124704,"duration":1294.4039999999804,"noteNumber":61,"velocity":42,"programNumber":0},{"time":378086.986981247,"duration":862.9360000000452,"noteNumber":77,"velocity":50,"programNumber":0},{"time":378949.9229812471,"duration":431.4679999999935,"noteNumber":77,"velocity":45,"programNumber":0},{"time":378518.454981247,"duration":1294.4040000000386,"noteNumber":60,"velocity":28,"programNumber":0},{"time":378518.454981247,"duration":1294.4040000000386,"noteNumber":72,"velocity":42,"programNumber":0},{"time":378518.454981247,"duration":1294.4040000000386,"noteNumber":67,"velocity":33,"programNumber":0},{"time":379381.39098124707,"duration":862.935999999987,"noteNumber":76,"velocity":45,"programNumber":0},{"time":380244.32698124705,"duration":431.4679999999935,"noteNumber":77,"velocity":45,"programNumber":0},{"time":379812.85898124706,"duration":862.935999999987,"noteNumber":68,"velocity":42,"programNumber":0},{"time":380675.79498124705,"duration":431.4679999999935,"noteNumber":68,"velocity":33,"programNumber":0},{"time":380675.79498124705,"duration":431.4679999999935,"noteNumber":65,"velocity":28,"programNumber":0},{"time":379812.85898124706,"duration":1294.4039999999804,"noteNumber":59,"velocity":33,"programNumber":0},{"time":381107.26298124704,"duration":431.4679999999935,"noteNumber":60,"velocity":42,"programNumber":0},{"time":381107.26298124704,"duration":431.4679999999935,"noteNumber":64,"velocity":32,"programNumber":0},{"time":381107.26298124704,"duration":431.4679999999935,"noteNumber":67,"velocity":38,"programNumber":0},{"time":381538.73098124703,"duration":431.4679999999935,"noteNumber":55,"velocity":33,"programNumber":0},{"time":381970.198981247,"duration":431.4679999999935,"noteNumber":56,"velocity":37,"programNumber":0},{"time":382401.666981247,"duration":431.4679999999935,"noteNumber":58,"velocity":41,"programNumber":0},{"time":382833.134981247,"duration":215.73399999999674,"noteNumber":73,"velocity":38,"programNumber":0},{"time":382833.134981247,"duration":431.4679999999935,"noteNumber":53,"velocity":33,"programNumber":0},{"time":383264.602981247,"duration":215.73399999999674,"noteNumber":73,"velocity":38,"programNumber":0},{"time":383264.602981247,"duration":431.4679999999935,"noteNumber":55,"velocity":35,"programNumber":0},{"time":381107.26298124704,"duration":2588.807999999961,"noteNumber":48,"velocity":33,"programNumber":0},{"time":383696.070981247,"duration":431.4679999999935,"noteNumber":56,"velocity":42,"programNumber":0},{"time":383696.070981247,"duration":431.4679999999935,"noteNumber":73,"velocity":46,"programNumber":0},{"time":384127.538981247,"duration":431.4679999999935,"noteNumber":52,"velocity":33,"programNumber":0},{"time":384127.538981247,"duration":431.4679999999935,"noteNumber":72,"velocity":38,"programNumber":0},{"time":384559.006981247,"duration":431.4679999999935,"noteNumber":53,"velocity":33,"programNumber":0},{"time":384990.474981247,"duration":431.4679999999935,"noteNumber":55,"velocity":40,"programNumber":0},{"time":385421.942981247,"duration":215.73399999999674,"noteNumber":70,"velocity":38,"programNumber":0},{"time":385421.942981247,"duration":431.4679999999935,"noteNumber":50,"velocity":33,"programNumber":0},{"time":385853.41098124697,"duration":215.73399999999674,"noteNumber":70,"velocity":38,"programNumber":0},{"time":385853.41098124697,"duration":431.4679999999935,"noteNumber":52,"velocity":33,"programNumber":0},{"time":383696.070981247,"duration":2588.807999999961,"noteNumber":48,"velocity":42,"programNumber":0},{"time":386284.87898124696,"duration":431.4679999999935,"noteNumber":53,"velocity":39,"programNumber":0},{"time":386284.87898124696,"duration":431.4679999999935,"noteNumber":70,"velocity":43,"programNumber":0},{"time":386716.34698124696,"duration":431.4679999999935,"noteNumber":55,"velocity":33,"programNumber":0},{"time":386716.34698124696,"duration":431.4679999999935,"noteNumber":69,"velocity":38,"programNumber":0},{"time":387147.81498124695,"duration":431.4679999999935,"noteNumber":57,"velocity":36,"programNumber":0},{"time":387795.01698124694,"duration":215.73399999999674,"noteNumber":74,"velocity":37,"programNumber":0},{"time":387579.28298124694,"duration":431.4679999999935,"noteNumber":58,"velocity":40,"programNumber":0},{"time":388010.75098124694,"duration":215.73400000005495,"noteNumber":73,"velocity":38,"programNumber":0},{"time":388226.484981247,"duration":215.73399999999674,"noteNumber":74,"velocity":34,"programNumber":0},{"time":388010.75098124694,"duration":431.4680000000517,"noteNumber":54,"velocity":33,"programNumber":0},{"time":388442.218981247,"duration":215.73399999999674,"noteNumber":76,"velocity":43,"programNumber":0},{"time":388657.952981247,"duration":215.73399999999674,"noteNumber":74,"velocity":38,"programNumber":0},{"time":388442.218981247,"duration":431.4679999999935,"noteNumber":55,"velocity":33,"programNumber":0},{"time":386284.87898124696,"duration":2588.808000000019,"noteNumber":48,"velocity":39,"programNumber":0},{"time":389089.420981247,"duration":215.73399999999674,"noteNumber":72,"velocity":36,"programNumber":0},{"time":388873.686981247,"duration":431.4679999999935,"noteNumber":57,"velocity":42,"programNumber":0},{"time":389305.154981247,"duration":215.73399999999674,"noteNumber":71,"velocity":38,"programNumber":0},{"time":389520.888981247,"duration":215.73399999999674,"noteNumber":72,"velocity":36,"programNumber":0},{"time":389305.154981247,"duration":431.4679999999935,"noteNumber":52,"velocity":33,"programNumber":0},{"time":389736.62298124697,"duration":215.73399999999674,"noteNumber":74,"velocity":44,"programNumber":0},{"time":389952.35698124697,"duration":215.73399999999674,"noteNumber":72,"velocity":38,"programNumber":0},{"time":389736.62298124697,"duration":431.4679999999935,"noteNumber":53,"velocity":33,"programNumber":0},{"time":390383.82498124696,"duration":215.73399999999674,"noteNumber":70,"velocity":36,"programNumber":0},{"time":390168.09098124696,"duration":431.4679999999935,"noteNumber":55,"velocity":40,"programNumber":0},{"time":390599.55898124696,"duration":215.73399999999674,"noteNumber":69,"velocity":38,"programNumber":0},{"time":390815.29298124695,"duration":215.73399999999674,"noteNumber":70,"velocity":35,"programNumber":0},{"time":390599.55898124696,"duration":431.4679999999935,"noteNumber":50,"velocity":33,"programNumber":0},{"time":391031.02698124695,"duration":215.73399999999674,"noteNumber":72,"velocity":44,"programNumber":0},{"time":391246.76098124695,"duration":215.73399999999674,"noteNumber":70,"velocity":37,"programNumber":0},{"time":391031.02698124695,"duration":431.4679999999935,"noteNumber":52,"velocity":33,"programNumber":0},{"time":388873.686981247,"duration":2588.807999999961,"noteNumber":48,"velocity":42,"programNumber":0},{"time":391462.49498124694,"duration":215.73399999999674,"noteNumber":53,"velocity":40,"programNumber":0},{"time":391678.22898124694,"duration":215.73400000005495,"noteNumber":60,"velocity":28,"programNumber":0},{"time":391893.962981247,"duration":215.73399999999674,"noteNumber":57,"velocity":33,"programNumber":0},{"time":392109.696981247,"duration":215.73400000005495,"noteNumber":60,"velocity":27,"programNumber":0},{"time":392338.0154645804,"duration":215.73399999999674,"noteNumber":55,"velocity":33,"programNumber":0},{"time":392541.16498124704,"duration":215.73399999999674,"noteNumber":60,"velocity":30,"programNumber":0},{"time":392756.89898124704,"duration":215.73399999993853,"noteNumber":53,"velocity":38,"programNumber":0},{"time":392972.632981247,"duration":215.73399999999674,"noteNumber":60,"velocity":28,"programNumber":0},{"time":393188.366981247,"duration":215.73400000005495,"noteNumber":55,"velocity":43,"programNumber":0},{"time":391462.49498124694,"duration":1941.606000000087,"noteNumber":69,"velocity":46,"programNumber":0},{"time":393404.10098124703,"duration":215.73399999999674,"noteNumber":60,"velocity":38,"programNumber":0},{"time":393404.10098124703,"duration":215.73399999999674,"noteNumber":72,"velocity":56,"programNumber":0},{"time":393619.834981247,"duration":215.73399999999674,"noteNumber":57,"velocity":51,"programNumber":0},{"time":393835.568981247,"duration":215.73399999999674,"noteNumber":60,"velocity":41,"programNumber":0},{"time":393619.834981247,"duration":431.4679999999935,"noteNumber":77,"velocity":62,"programNumber":0},{"time":394051.302981247,"duration":215.73400000005495,"noteNumber":55,"velocity":53,"programNumber":0},{"time":394267.0369812471,"duration":215.73399999993853,"noteNumber":60,"velocity":40,"programNumber":0},{"time":394482.770981247,"duration":215.73399999993853,"noteNumber":57,"velocity":45,"programNumber":0},{"time":394698.50498124695,"duration":215.73399999993853,"noteNumber":60,"velocity":35,"programNumber":0},{"time":394914.2389812469,"duration":215.73399999999674,"noteNumber":58,"velocity":40,"programNumber":0},{"time":395129.9729812469,"duration":215.73399999993853,"noteNumber":60,"velocity":33,"programNumber":0},{"time":394051.302981247,"duration":1294.4039999998058,"noteNumber":77,"velocity":63,"programNumber":0},{"time":395345.7069812468,"duration":215.73399999999674,"noteNumber":55,"velocity":39,"programNumber":0},{"time":395561.4409812468,"duration":215.73399999999674,"noteNumber":60,"velocity":33,"programNumber":0},{"time":395345.7069812468,"duration":431.4679999999935,"noteNumber":76,"velocity":57,"programNumber":0},{"time":395777.1749812468,"duration":215.73399999999674,"noteNumber":57,"velocity":41,"programNumber":0},{"time":395992.9089812468,"duration":215.73399999999674,"noteNumber":60,"velocity":33,"programNumber":0},{"time":396208.6429812468,"duration":215.73399999999674,"noteNumber":58,"velocity":41,"programNumber":0},{"time":396424.3769812468,"duration":215.73399999999674,"noteNumber":60,"velocity":33,"programNumber":0},{"time":396640.1109812468,"duration":215.73399999999674,"noteNumber":52,"velocity":40,"programNumber":0},{"time":396855.8449812468,"duration":215.73400000005495,"noteNumber":60,"velocity":28,"programNumber":0},{"time":397071.57898124686,"duration":215.73399999999674,"noteNumber":55,"velocity":33,"programNumber":0},{"time":397287.31298124685,"duration":215.73400000005495,"noteNumber":60,"velocity":27,"programNumber":0},{"time":397503.0469812469,"duration":215.73399999999674,"noteNumber":53,"velocity":33,"programNumber":0},{"time":397718.7809812469,"duration":215.73400000005495,"noteNumber":60,"velocity":30,"programNumber":0},{"time":396640.1109812468,"duration":1294.404000000155,"noteNumber":72,"velocity":51,"programNumber":0},{"time":397934.51498124696,"duration":215.73399999999674,"noteNumber":52,"velocity":38,"programNumber":0},{"time":397934.51498124696,"duration":215.73399999999674,"noteNumber":72,"velocity":61,"programNumber":0},{"time":398150.24898124696,"duration":71.91133333335165,"noteNumber":74,"velocity":57,"programNumber":0},{"time":398222.1603145803,"duration":71.91133333335165,"noteNumber":72,"velocity":52,"programNumber":0},{"time":398294.07164791366,"duration":71.91133333335165,"noteNumber":71,"velocity":52,"programNumber":0},{"time":398150.24898124696,"duration":215.73400000005495,"noteNumber":60,"velocity":28,"programNumber":0},{"time":398365.982981247,"duration":215.73400000005495,"noteNumber":53,"velocity":47,"programNumber":0},{"time":398365.982981247,"duration":215.73400000005495,"noteNumber":72,"velocity":61,"programNumber":0},{"time":398581.71698124707,"duration":215.73399999999674,"noteNumber":60,"velocity":41,"programNumber":0},{"time":398581.71698124707,"duration":215.73399999999674,"noteNumber":79,"velocity":71,"programNumber":0},{"time":398797.45098124706,"duration":215.73399999999674,"noteNumber":55,"velocity":49,"programNumber":0},{"time":399013.18498124706,"duration":215.73399999999674,"noteNumber":60,"velocity":40,"programNumber":0},{"time":398797.45098124706,"duration":431.4679999999935,"noteNumber":82,"velocity":76,"programNumber":0},{"time":399228.91898124706,"duration":215.73399999999674,"noteNumber":53,"velocity":54,"programNumber":0},{"time":399444.65298124705,"duration":215.73399999993853,"noteNumber":60,"velocity":43,"programNumber":0},{"time":399660.386981247,"duration":215.73400000005495,"noteNumber":55,"velocity":45,"programNumber":0},{"time":399876.12098124705,"duration":215.73399999993853,"noteNumber":60,"velocity":37,"programNumber":0},{"time":400091.854981247,"duration":215.73399999999674,"noteNumber":57,"velocity":46,"programNumber":0},{"time":400307.588981247,"duration":215.73399999999674,"noteNumber":60,"velocity":33,"programNumber":0},{"time":399228.91898124706,"duration":1294.4039999999222,"noteNumber":82,"velocity":78,"programNumber":0},{"time":400523.322981247,"duration":215.73399999999674,"noteNumber":53,"velocity":44,"programNumber":0},{"time":400739.056981247,"duration":215.73399999999674,"noteNumber":60,"velocity":39,"programNumber":0},{"time":400523.322981247,"duration":431.4679999999935,"noteNumber":81,"velocity":69,"programNumber":0},{"time":400967.3754645803,"duration":215.73399999999674,"noteNumber":55,"velocity":41,"programNumber":0},{"time":401170.52498124697,"duration":215.73399999999674,"noteNumber":60,"velocity":33,"programNumber":0},{"time":401386.25898124697,"duration":215.73399999999674,"noteNumber":57,"velocity":41,"programNumber":0},{"time":401601.99298124696,"duration":215.73399999999674,"noteNumber":60,"velocity":33,"programNumber":0},{"time":401817.72698124696,"duration":107.86699999996927,"noteNumber":69,"velocity":56,"programNumber":0},{"time":401817.72698124696,"duration":215.73399999993853,"noteNumber":53,"velocity":40,"programNumber":0},{"time":402033.4609812469,"duration":107.86699999996927,"noteNumber":70,"velocity":58,"programNumber":0},{"time":402033.4609812469,"duration":215.73399999993853,"noteNumber":60,"velocity":28,"programNumber":0},{"time":402249.19498124684,"duration":107.86699999996927,"noteNumber":72,"velocity":60,"programNumber":0},{"time":402249.19498124684,"duration":215.73399999999674,"noteNumber":57,"velocity":33,"programNumber":0},{"time":402464.92898124683,"duration":107.86700000002747,"noteNumber":74,"velocity":62,"programNumber":0},{"time":402464.92898124683,"duration":215.73400000005495,"noteNumber":60,"velocity":27,"programNumber":0},{"time":402680.6629812469,"duration":107.86699999996927,"noteNumber":76,"velocity":64,"programNumber":0},{"time":402680.6629812469,"duration":215.73399999993853,"noteNumber":53,"velocity":34,"programNumber":0},{"time":402896.3969812468,"duration":107.86699999996927,"noteNumber":77,"velocity":65,"programNumber":0},{"time":402896.3969812468,"duration":215.73399999993853,"noteNumber":60,"velocity":31,"programNumber":0},{"time":403112.13098124677,"duration":107.86699999996927,"noteNumber":79,"velocity":67,"programNumber":0},{"time":403112.13098124677,"duration":215.73399999999674,"noteNumber":53,"velocity":40,"programNumber":0},{"time":403327.86498124676,"duration":107.86700000002747,"noteNumber":81,"velocity":71,"programNumber":0},{"time":403327.86498124676,"duration":215.73400000005495,"noteNumber":60,"velocity":36,"programNumber":0},{"time":403543.5989812468,"duration":107.86700000002747,"noteNumber":82,"velocity":74,"programNumber":0},{"time":403543.5989812468,"duration":215.73400000005495,"noteNumber":57,"velocity":48,"programNumber":0},{"time":403759.3329812469,"duration":107.86700000002747,"noteNumber":84,"velocity":77,"programNumber":0},{"time":403759.3329812469,"duration":215.73400000005495,"noteNumber":60,"velocity":40,"programNumber":0},{"time":403975.0669812469,"duration":107.86700000002747,"noteNumber":86,"velocity":80,"programNumber":0},{"time":403975.0669812469,"duration":215.73400000005495,"noteNumber":53,"velocity":51,"programNumber":0},{"time":404190.800981247,"duration":107.86700000002747,"noteNumber":88,"velocity":83,"programNumber":0},{"time":404190.800981247,"duration":215.73400000005495,"noteNumber":60,"velocity":42,"programNumber":0},{"time":404406.53498124704,"duration":215.73399999999674,"noteNumber":55,"velocity":59,"programNumber":0},{"time":404622.26898124703,"duration":215.73399999993853,"noteNumber":60,"velocity":47,"programNumber":0},{"time":404838.002981247,"duration":215.73399999993853,"noteNumber":58,"velocity":46,"programNumber":0},{"time":405053.7369812469,"duration":215.73399999993853,"noteNumber":60,"velocity":38,"programNumber":0},{"time":405269.47098124685,"duration":215.73399999999674,"noteNumber":55,"velocity":46,"programNumber":0},{"time":405485.20498124685,"duration":215.73399999993853,"noteNumber":60,"velocity":37,"programNumber":0},{"time":404406.53498124704,"duration":1294.4039999997476,"noteNumber":89,"velocity":90,"programNumber":0},{"time":405700.9389812468,"duration":215.73399999999674,"noteNumber":55,"velocity":44,"programNumber":0},{"time":405916.6729812468,"duration":215.73399999999674,"noteNumber":60,"velocity":37,"programNumber":0},{"time":405700.9389812468,"duration":431.4679999999935,"noteNumber":88,"velocity":71,"programNumber":0},{"time":406132.4069812468,"duration":215.73399999999674,"noteNumber":58,"velocity":47,"programNumber":0},{"time":406348.1409812468,"duration":215.73399999999674,"noteNumber":60,"velocity":37,"programNumber":0},{"time":406563.8749812468,"duration":215.73399999999674,"noteNumber":55,"velocity":47,"programNumber":0},{"time":406779.60898124677,"duration":213.93621666665422,"noteNumber":60,"velocity":37,"programNumber":0},{"time":406995.34298124677,"duration":107.86700000002747,"noteNumber":60,"velocity":56,"programNumber":0},{"time":406995.34298124677,"duration":215.73399999999674,"noteNumber":52,"velocity":40,"programNumber":0},{"time":407211.07698124676,"duration":107.86700000002747,"noteNumber":62,"velocity":58,"programNumber":0},{"time":407211.07698124676,"duration":215.73400000005495,"noteNumber":60,"velocity":32,"programNumber":0},{"time":407426.8109812468,"duration":107.86699999996927,"noteNumber":64,"velocity":60,"programNumber":0},{"time":407426.8109812468,"duration":215.73399999999674,"noteNumber":55,"velocity":39,"programNumber":0},{"time":407642.5449812468,"duration":107.86700000002747,"noteNumber":65,"velocity":62,"programNumber":0},{"time":407642.5449812468,"duration":215.73399999999674,"noteNumber":60,"velocity":29,"programNumber":0},{"time":407858.2789812468,"duration":107.86700000002747,"noteNumber":67,"velocity":64,"programNumber":0},{"time":407858.2789812468,"duration":215.73400000005495,"noteNumber":52,"velocity":40,"programNumber":0},{"time":408074.01298124687,"duration":107.86699999996927,"noteNumber":69,"velocity":65,"programNumber":0},{"time":408074.01298124687,"duration":215.73399999999674,"noteNumber":60,"velocity":31,"programNumber":0},{"time":408289.74698124686,"duration":107.86700000002747,"noteNumber":70,"velocity":71,"programNumber":0},{"time":408289.74698124686,"duration":215.73400000005495,"noteNumber":52,"velocity":46,"programNumber":0},{"time":408505.4809812469,"duration":107.86700000002747,"noteNumber":72,"velocity":71,"programNumber":0},{"time":408505.4809812469,"duration":215.73400000005495,"noteNumber":60,"velocity":41,"programNumber":0},{"time":408721.214981247,"duration":107.86700000002747,"noteNumber":74,"velocity":73,"programNumber":0},{"time":408721.214981247,"duration":215.73400000005495,"noteNumber":55,"velocity":52,"programNumber":0},{"time":408936.948981247,"duration":107.86700000002747,"noteNumber":76,"velocity":75,"programNumber":0},{"time":408936.948981247,"duration":215.73400000005495,"noteNumber":60,"velocity":40,"programNumber":0},{"time":409152.6829812471,"duration":107.86700000002747,"noteNumber":77,"velocity":82,"programNumber":0},{"time":409152.6829812471,"duration":215.73400000005495,"noteNumber":52,"velocity":57,"programNumber":0},{"time":409368.41698124714,"duration":107.86700000002747,"noteNumber":79,"velocity":84,"programNumber":0},{"time":409368.41698124714,"duration":215.73400000005495,"noteNumber":60,"velocity":44,"programNumber":0},{"time":409584.1509812472,"duration":215.73399999999674,"noteNumber":53,"velocity":45,"programNumber":0},{"time":409799.8849812472,"duration":215.73399999999674,"noteNumber":60,"velocity":36,"programNumber":0},{"time":410015.6189812472,"duration":215.73399999999674,"noteNumber":55,"velocity":49,"programNumber":0},{"time":410231.3529812472,"duration":215.73399999999674,"noteNumber":60,"velocity":42,"programNumber":0},{"time":410447.0869812472,"duration":215.73399999999674,"noteNumber":56,"velocity":51,"programNumber":0},{"time":410662.8209812472,"duration":215.73399999999674,"noteNumber":60,"velocity":44,"programNumber":0},{"time":410878.5549812472,"duration":215.73399999999674,"noteNumber":53,"velocity":47,"programNumber":0},{"time":411094.28898124717,"duration":215.73399999999674,"noteNumber":60,"velocity":37,"programNumber":0},{"time":409584.1509812472,"duration":1725.871999999974,"noteNumber":80,"velocity":92,"programNumber":0},{"time":411310.02298124717,"duration":215.73399999999674,"noteNumber":55,"velocity":41,"programNumber":0},{"time":411525.75698124716,"duration":215.73399999999674,"noteNumber":60,"velocity":37,"programNumber":0},{"time":411310.02298124717,"duration":431.4679999999935,"noteNumber":79,"velocity":77,"programNumber":0},{"time":411741.49098124716,"duration":215.73399999999674,"noteNumber":56,"velocity":41,"programNumber":0},{"time":411957.22498124716,"duration":215.73399999999674,"noteNumber":60,"velocity":37,"programNumber":0},{"time":411741.49098124716,"duration":431.4679999999935,"noteNumber":77,"velocity":77,"programNumber":0},{"time":412172.95898124715,"duration":215.73399999999674,"noteNumber":55,"velocity":51,"programNumber":0},{"time":412388.69298124715,"duration":215.73399999999674,"noteNumber":63,"velocity":36,"programNumber":0},{"time":412604.42698124715,"duration":215.73399999999674,"noteNumber":60,"velocity":41,"programNumber":0},{"time":412820.16098124714,"duration":215.73399999999674,"noteNumber":63,"velocity":36,"programNumber":0},{"time":412172.95898124715,"duration":970.8030000000144,"noteNumber":75,"velocity":84,"programNumber":0},{"time":413143.76198124717,"duration":71.91133333335165,"noteNumber":77,"velocity":57,"programNumber":0},{"time":413035.89498124714,"duration":215.73400000005495,"noteNumber":55,"velocity":41,"programNumber":0},{"time":413215.6733145805,"duration":71.91133333335165,"noteNumber":75,"velocity":61,"programNumber":0},{"time":413287.58464791387,"duration":71.91133333335165,"noteNumber":74,"velocity":65,"programNumber":0},{"time":413359.4959812472,"duration":107.86700000002747,"noteNumber":75,"velocity":69,"programNumber":0},{"time":413251.6289812472,"duration":215.73400000005495,"noteNumber":63,"velocity":36,"programNumber":0},{"time":413467.36298124725,"duration":215.73399999999674,"noteNumber":55,"velocity":47,"programNumber":0},{"time":413683.09698124725,"duration":215.73399999999674,"noteNumber":62,"velocity":36,"programNumber":0},{"time":413467.36298124725,"duration":431.4679999999935,"noteNumber":79,"velocity":84,"programNumber":0},{"time":413898.83098124724,"duration":215.73399999999674,"noteNumber":59,"velocity":42,"programNumber":0},{"time":414114.56498124724,"duration":215.73399999999674,"noteNumber":62,"velocity":34,"programNumber":0},{"time":413898.83098124724,"duration":431.4679999999935,"noteNumber":77,"velocity":78,"programNumber":0},{"time":414330.29898124724,"duration":215.73400000005495,"noteNumber":55,"velocity":40,"programNumber":0},{"time":414546.0329812473,"duration":215.73399999999674,"noteNumber":62,"velocity":35,"programNumber":0},{"time":414330.29898124724,"duration":431.4680000000517,"noteNumber":74,"velocity":78,"programNumber":0},{"time":414761.7669812473,"duration":215.73399999999674,"noteNumber":48,"velocity":60,"programNumber":0},{"time":414977.5009812473,"duration":215.73400000005495,"noteNumber":55,"velocity":37,"programNumber":0},{"time":415193.23498124734,"duration":215.73399999999674,"noteNumber":51,"velocity":52,"programNumber":0},{"time":415408.96898124734,"duration":215.73400000005495,"noteNumber":55,"velocity":36,"programNumber":0},{"time":415637.28746458073,"duration":215.73399999999674,"noteNumber":50,"velocity":52,"programNumber":0},{"time":415840.4369812474,"duration":215.73399999999674,"noteNumber":55,"velocity":46,"programNumber":0},{"time":416056.1709812474,"duration":215.73399999993853,"noteNumber":48,"velocity":57,"programNumber":0},{"time":416271.9049812473,"duration":215.73399999999674,"noteNumber":55,"velocity":46,"programNumber":0},{"time":416487.6389812473,"duration":215.73400000005495,"noteNumber":50,"velocity":57,"programNumber":0},{"time":414761.7669812473,"duration":1941.606000000087,"noteNumber":75,"velocity":89,"programNumber":0},{"time":414761.7669812473,"duration":1941.606000000087,"noteNumber":63,"velocity":66,"programNumber":0},{"time":416703.3729812474,"duration":215.73399999999674,"noteNumber":55,"velocity":50,"programNumber":0},{"time":416703.3729812474,"duration":215.73399999999674,"noteNumber":79,"velocity":84,"programNumber":0},{"time":416703.3729812474,"duration":215.73399999999674,"noteNumber":67,"velocity":63,"programNumber":0},{"time":416919.1069812474,"duration":215.73399999999674,"noteNumber":51,"velocity":61,"programNumber":0},{"time":417134.84098124737,"duration":215.73399999999674,"noteNumber":55,"velocity":56,"programNumber":0},{"time":416919.1069812474,"duration":431.4679999999935,"noteNumber":84,"velocity":97,"programNumber":0},{"time":416919.1069812474,"duration":431.4679999999935,"noteNumber":72,"velocity":72,"programNumber":0},{"time":417350.57498124737,"duration":215.73400000005495,"noteNumber":50,"velocity":66,"programNumber":0},{"time":417566.3089812474,"duration":215.73399999993853,"noteNumber":55,"velocity":43,"programNumber":0},{"time":417782.04298124736,"duration":215.73399999993853,"noteNumber":51,"velocity":59,"programNumber":0},{"time":417997.7769812473,"duration":215.73399999993853,"noteNumber":55,"velocity":51,"programNumber":0},{"time":418213.51098124724,"duration":215.73399999999674,"noteNumber":53,"velocity":60,"programNumber":0},{"time":418429.24498124723,"duration":215.73399999993853,"noteNumber":55,"velocity":53,"programNumber":0},{"time":417350.57498124737,"duration":1294.4039999998058,"noteNumber":84,"velocity":98,"programNumber":0},{"time":417350.57498124737,"duration":1294.4039999998058,"noteNumber":72,"velocity":73,"programNumber":0},{"time":418644.9789812472,"duration":215.73399999999674,"noteNumber":50,"velocity":63,"programNumber":0},{"time":418860.71298124717,"duration":215.73399999999674,"noteNumber":55,"velocity":44,"programNumber":0},{"time":418644.9789812472,"duration":431.4679999999935,"noteNumber":83,"velocity":85,"programNumber":0},{"time":418644.9789812472,"duration":431.4679999999935,"noteNumber":71,"velocity":63,"programNumber":0},{"time":419076.44698124717,"duration":215.73399999999674,"noteNumber":51,"velocity":54,"programNumber":0},{"time":419292.18098124716,"duration":215.73399999999674,"noteNumber":55,"velocity":44,"programNumber":0},{"time":419507.91498124716,"duration":215.73399999999674,"noteNumber":53,"velocity":54,"programNumber":0},{"time":419723.64898124716,"duration":215.73399999999674,"noteNumber":55,"velocity":44,"programNumber":0},{"time":419939.38298124715,"duration":215.73399999999674,"noteNumber":47,"velocity":54,"programNumber":0},{"time":420155.11698124715,"duration":215.73400000005495,"noteNumber":55,"velocity":37,"programNumber":0},{"time":420370.8509812472,"duration":215.73399999999674,"noteNumber":50,"velocity":44,"programNumber":0},{"time":420586.5849812472,"duration":215.73400000005495,"noteNumber":55,"velocity":36,"programNumber":0},{"time":420802.31898124726,"duration":215.73399999999674,"noteNumber":48,"velocity":44,"programNumber":0},{"time":421018.05298124725,"duration":215.73399999993853,"noteNumber":55,"velocity":40,"programNumber":0},{"time":421233.7869812472,"duration":215.73399999993853,"noteNumber":47,"velocity":51,"programNumber":0},{"time":421449.52098124713,"duration":215.73399999999674,"noteNumber":55,"velocity":44,"programNumber":0},{"time":421665.2549812471,"duration":215.73400000005495,"noteNumber":48,"velocity":57,"programNumber":0},{"time":419939.38298124715,"duration":1941.6060000000289,"noteNumber":79,"velocity":89,"programNumber":0},{"time":419939.38298124715,"duration":1941.6060000000289,"noteNumber":67,"velocity":66,"programNumber":0},{"time":421880.9889812472,"duration":215.73399999999674,"noteNumber":55,"velocity":52,"programNumber":0},{"time":421880.9889812472,"duration":215.73399999999674,"noteNumber":86,"velocity":84,"programNumber":0},{"time":421880.9889812472,"duration":215.73399999999674,"noteNumber":74,"velocity":63,"programNumber":0},{"time":422096.7229812472,"duration":215.73399999999674,"noteNumber":50,"velocity":61,"programNumber":0},{"time":422096.7229812472,"duration":422.4790833333391,"noteNumber":89,"velocity":97,"programNumber":0},{"time":422096.7229812472,"duration":422.4790833333391,"noteNumber":77,"velocity":72,"programNumber":0},{"time":422312.4569812472,"duration":215.73399999999674,"noteNumber":55,"velocity":46,"programNumber":0},{"time":422528.1909812472,"duration":215.73400000005495,"noteNumber":48,"velocity":69,"programNumber":0},{"time":422743.9249812472,"duration":215.73399999993853,"noteNumber":55,"velocity":53,"programNumber":0},{"time":422959.65898124716,"duration":215.73399999993853,"noteNumber":50,"velocity":60,"programNumber":0},{"time":423175.3929812471,"duration":215.73399999993853,"noteNumber":55,"velocity":44,"programNumber":0},{"time":423391.12698124704,"duration":215.73399999999674,"noteNumber":51,"velocity":54,"programNumber":0},{"time":423606.86098124704,"duration":215.73399999993853,"noteNumber":55,"velocity":44,"programNumber":0},{"time":422528.1909812472,"duration":1294.4039999998058,"noteNumber":89,"velocity":98,"programNumber":0},{"time":422528.1909812472,"duration":1294.4039999998058,"noteNumber":77,"velocity":73,"programNumber":0},{"time":423822.594981247,"duration":215.73399999999674,"noteNumber":48,"velocity":52,"programNumber":0},{"time":424038.328981247,"duration":215.73399999999674,"noteNumber":55,"velocity":44,"programNumber":0},{"time":423822.594981247,"duration":431.4679999999935,"noteNumber":87,"velocity":88,"programNumber":0},{"time":423822.594981247,"duration":431.4679999999935,"noteNumber":75,"velocity":66,"programNumber":0},{"time":424254.06298124697,"duration":215.73399999999674,"noteNumber":50,"velocity":54,"programNumber":0},{"time":424469.79698124697,"duration":215.73399999999674,"noteNumber":55,"velocity":44,"programNumber":0},{"time":424685.53098124696,"duration":215.73399999999674,"noteNumber":51,"velocity":54,"programNumber":0},{"time":424901.26498124696,"duration":215.73399999999674,"noteNumber":55,"velocity":44,"programNumber":0},{"time":425116.99898124696,"duration":215.73399999999674,"noteNumber":48,"velocity":54,"programNumber":0},{"time":425116.99898124696,"duration":215.73399999999674,"noteNumber":63,"velocity":89,"programNumber":0},{"time":425332.73298124695,"duration":215.73400000005495,"noteNumber":55,"velocity":37,"programNumber":0},{"time":425332.73298124695,"duration":215.73400000005495,"noteNumber":67,"velocity":75,"programNumber":0},{"time":425548.466981247,"duration":215.73399999999674,"noteNumber":51,"velocity":44,"programNumber":0},{"time":425548.466981247,"duration":215.73399999999674,"noteNumber":72,"velocity":79,"programNumber":0},{"time":425764.200981247,"duration":215.73400000005495,"noteNumber":55,"velocity":36,"programNumber":0},{"time":425764.200981247,"duration":215.73400000005495,"noteNumber":67,"velocity":79,"programNumber":0},{"time":425979.93498124706,"duration":215.73399999993853,"noteNumber":48,"velocity":44,"programNumber":0},{"time":425979.93498124706,"duration":215.73399999993853,"noteNumber":72,"velocity":83,"programNumber":0},{"time":426195.668981247,"duration":215.73399999993853,"noteNumber":55,"velocity":40,"programNumber":0},{"time":426195.668981247,"duration":215.73399999993853,"noteNumber":75,"velocity":89,"programNumber":0},{"time":426411.40298124694,"duration":215.73399999993853,"noteNumber":48,"velocity":51,"programNumber":0},{"time":426411.40298124694,"duration":215.73399999993853,"noteNumber":72,"velocity":89,"programNumber":0},{"time":426627.1369812469,"duration":215.73399999999674,"noteNumber":55,"velocity":42,"programNumber":0},{"time":426627.1369812469,"duration":215.73399999999674,"noteNumber":75,"velocity":77,"programNumber":0},{"time":426842.8709812469,"duration":215.73399999999674,"noteNumber":51,"velocity":51,"programNumber":0},{"time":426842.8709812469,"duration":215.73399999999674,"noteNumber":79,"velocity":83,"programNumber":0},{"time":427058.60498124687,"duration":215.73399999999674,"noteNumber":55,"velocity":42,"programNumber":0},{"time":427058.60498124687,"duration":215.73399999999674,"noteNumber":75,"velocity":89,"programNumber":0},{"time":427274.33898124687,"duration":215.73399999999674,"noteNumber":48,"velocity":60,"programNumber":0},{"time":427274.33898124687,"duration":215.73399999999674,"noteNumber":79,"velocity":83,"programNumber":0},{"time":427490.07298124686,"duration":206.74508333334234,"noteNumber":84,"velocity":89,"programNumber":0},{"time":427490.07298124686,"duration":215.73399999999674,"noteNumber":55,"velocity":53,"programNumber":0},{"time":427705.80698124686,"duration":215.73400000005495,"noteNumber":50,"velocity":66,"programNumber":0},{"time":427921.5409812469,"duration":215.73399999993853,"noteNumber":55,"velocity":43,"programNumber":0},{"time":428137.27498124685,"duration":215.73399999993853,"noteNumber":53,"velocity":54,"programNumber":0},{"time":428353.0089812468,"duration":215.73399999993853,"noteNumber":55,"velocity":45,"programNumber":0},{"time":428568.74298124673,"duration":215.73399999993853,"noteNumber":50,"velocity":54,"programNumber":0},{"time":428784.47698124667,"duration":215.73399999993853,"noteNumber":55,"velocity":44,"programNumber":0},{"time":427705.80698124686,"duration":1294.4039999997476,"noteNumber":84,"velocity":98,"programNumber":0},{"time":429000.2109812466,"duration":215.73399999999674,"noteNumber":50,"velocity":52,"programNumber":0},{"time":429215.9449812466,"duration":215.73399999999674,"noteNumber":55,"velocity":44,"programNumber":0},{"time":429000.2109812466,"duration":431.4679999999935,"noteNumber":83,"velocity":92,"programNumber":0},{"time":429431.6789812466,"duration":215.73399999999674,"noteNumber":53,"velocity":54,"programNumber":0},{"time":429647.4129812466,"duration":215.73399999999674,"noteNumber":55,"velocity":44,"programNumber":0},{"time":429863.1469812466,"duration":215.73399999999674,"noteNumber":50,"velocity":54,"programNumber":0},{"time":430078.8809812466,"duration":213.93621666665422,"noteNumber":55,"velocity":44,"programNumber":0},{"time":430294.6149812466,"duration":215.73399999999674,"noteNumber":47,"velocity":54,"programNumber":0},{"time":430294.6149812466,"duration":215.73399999999674,"noteNumber":55,"velocity":80,"programNumber":0},{"time":430510.3489812466,"duration":215.73400000005495,"noteNumber":55,"velocity":37,"programNumber":0},{"time":430510.3489812466,"duration":215.73400000005495,"noteNumber":59,"velocity":67,"programNumber":0},{"time":430726.08298124664,"duration":215.73399999999674,"noteNumber":50,"velocity":49,"programNumber":0},{"time":430726.08298124664,"duration":215.73399999999674,"noteNumber":62,"velocity":71,"programNumber":0},{"time":430941.81698124664,"duration":215.73400000005495,"noteNumber":55,"velocity":36,"programNumber":0},{"time":430941.81698124664,"duration":215.73400000005495,"noteNumber":59,"velocity":71,"programNumber":0},{"time":431157.5509812467,"duration":215.73399999993853,"noteNumber":47,"velocity":50,"programNumber":0},{"time":431157.5509812467,"duration":215.73399999993853,"noteNumber":62,"velocity":74,"programNumber":0},{"time":431373.28498124663,"duration":215.73399999993853,"noteNumber":55,"velocity":40,"programNumber":0},{"time":431373.28498124663,"duration":215.73399999993853,"noteNumber":67,"velocity":80,"programNumber":0},{"time":431589.01898124657,"duration":215.73399999993853,"noteNumber":47,"velocity":58,"programNumber":0},{"time":431589.01898124657,"duration":215.73399999993853,"noteNumber":62,"velocity":80,"programNumber":0},{"time":431804.7529812465,"duration":215.73399999999674,"noteNumber":55,"velocity":45,"programNumber":0},{"time":431804.7529812465,"duration":215.73399999999674,"noteNumber":67,"velocity":69,"programNumber":0},{"time":432020.4869812465,"duration":215.73399999999674,"noteNumber":50,"velocity":51,"programNumber":0},{"time":432020.4869812465,"duration":215.73399999999674,"noteNumber":71,"velocity":74,"programNumber":0},{"time":432236.2209812465,"duration":215.73399999999674,"noteNumber":55,"velocity":45,"programNumber":0},{"time":432236.2209812465,"duration":215.73399999999674,"noteNumber":67,"velocity":80,"programNumber":0},{"time":432451.9549812465,"duration":215.73399999999674,"noteNumber":47,"velocity":56,"programNumber":0},{"time":432451.9549812465,"duration":215.73399999999674,"noteNumber":71,"velocity":74,"programNumber":0},{"time":432667.6889812465,"duration":215.73399999999674,"noteNumber":55,"velocity":37,"programNumber":0},{"time":432667.6889812465,"duration":215.73399999999674,"noteNumber":74,"velocity":80,"programNumber":0},{"time":433099.1569812465,"duration":215.73399999999674,"noteNumber":48,"velocity":43,"programNumber":0},{"time":432883.4229812465,"duration":431.4679999999935,"noteNumber":75,"velocity":86,"programNumber":0},{"time":433314.8909812465,"duration":215.73399999999674,"noteNumber":47,"velocity":61,"programNumber":0},{"time":433530.6249812465,"duration":215.73399999999674,"noteNumber":48,"velocity":44,"programNumber":0},{"time":433746.3589812465,"duration":215.73399999999674,"noteNumber":47,"velocity":63,"programNumber":0},{"time":433962.0929812465,"duration":215.73399999999674,"noteNumber":48,"velocity":50,"programNumber":0},{"time":434177.8269812465,"duration":215.73399999999674,"noteNumber":40,"velocity":67,"programNumber":0},{"time":434393.56098124647,"duration":215.73399999999674,"noteNumber":48,"velocity":52,"programNumber":0},{"time":434609.29498124646,"duration":215.73399999999674,"noteNumber":41,"velocity":57,"programNumber":0},{"time":434825.02898124646,"duration":215.73399999999674,"noteNumber":48,"velocity":47,"programNumber":0},{"time":433746.3589812465,"duration":1294.4039999999804,"noteNumber":84,"velocity":100,"programNumber":0},{"time":435040.76298124646,"duration":215.73399999999674,"noteNumber":43,"velocity":61,"programNumber":0},{"time":435256.49698124646,"duration":215.73399999999674,"noteNumber":48,"velocity":44,"programNumber":0},{"time":435040.76298124646,"duration":431.4679999999935,"noteNumber":52,"velocity":77,"programNumber":0},{"time":435472.23098124645,"duration":215.73399999999674,"noteNumber":41,"velocity":65,"programNumber":0},{"time":435687.96498124645,"duration":215.73399999999674,"noteNumber":48,"velocity":45,"programNumber":0},{"time":435903.69898124645,"duration":215.73399999999674,"noteNumber":43,"velocity":57,"programNumber":0},{"time":436119.43298124644,"duration":215.73399999999674,"noteNumber":48,"velocity":48,"programNumber":0},{"time":436335.16698124644,"duration":215.73399999999674,"noteNumber":44,"velocity":56,"programNumber":0},{"time":436550.90098124644,"duration":215.73399999999674,"noteNumber":48,"velocity":50,"programNumber":0},{"time":435472.23098124645,"duration":1294.4039999999804,"noteNumber":53,"velocity":82,"programNumber":0},{"time":436766.63498124643,"duration":215.73399999999674,"noteNumber":42,"velocity":67,"programNumber":0},{"time":436982.3689812464,"duration":215.73399999999674,"noteNumber":48,"velocity":51,"programNumber":0},{"time":437198.1029812464,"duration":215.73399999999674,"noteNumber":43,"velocity":58,"programNumber":0},{"time":437413.8369812464,"duration":215.73399999999674,"noteNumber":48,"velocity":49,"programNumber":0},{"time":437629.5709812464,"duration":215.73399999999674,"noteNumber":45,"velocity":60,"programNumber":0},{"time":437845.3049812464,"duration":215.73399999999674,"noteNumber":48,"velocity":44,"programNumber":0},{"time":436766.63498124643,"duration":1294.4039999999804,"noteNumber":54,"velocity":84,"programNumber":0},{"time":438061.0389812464,"duration":215.73399999999674,"noteNumber":43,"velocity":64,"programNumber":0},{"time":438276.7729812464,"duration":215.73399999999674,"noteNumber":51,"velocity":51,"programNumber":0},{"time":438492.5069812464,"duration":215.73399999999674,"noteNumber":48,"velocity":59,"programNumber":0},{"time":438708.2409812464,"duration":215.73399999999674,"noteNumber":51,"velocity":50,"programNumber":0},{"time":438923.9749812464,"duration":215.73399999999674,"noteNumber":43,"velocity":57,"programNumber":0},{"time":439139.7089812464,"duration":215.73399999999674,"noteNumber":51,"velocity":46,"programNumber":0},{"time":438061.0389812464,"duration":1294.4039999999804,"noteNumber":55,"velocity":84,"programNumber":0},{"time":439355.4429812464,"duration":107.86699999996927,"noteNumber":53,"velocity":84,"programNumber":0},{"time":439463.30998124636,"duration":107.86699999996927,"noteNumber":55,"velocity":57,"programNumber":0},{"time":439355.4429812464,"duration":215.73399999993853,"noteNumber":43,"velocity":64,"programNumber":0},{"time":439571.17698124633,"duration":71.91133333335165,"noteNumber":53,"velocity":61,"programNumber":0},{"time":439643.0883145797,"duration":71.91133333335165,"noteNumber":55,"velocity":57,"programNumber":0},{"time":439714.99964791304,"duration":71.91133333335165,"noteNumber":53,"velocity":64,"programNumber":0},{"time":439571.17698124633,"duration":215.73400000005495,"noteNumber":50,"velocity":46,"programNumber":0},{"time":439786.9109812464,"duration":71.91133333335165,"noteNumber":55,"velocity":56,"programNumber":0},{"time":439858.82231457974,"duration":71.91133333335165,"noteNumber":53,"velocity":64,"programNumber":0},{"time":439930.7336479131,"duration":71.91133333335165,"noteNumber":55,"velocity":56,"programNumber":0},{"time":439786.9109812464,"duration":215.73400000005495,"noteNumber":47,"velocity":58,"programNumber":0},{"time":440002.64498124644,"duration":71.91133333335165,"noteNumber":53,"velocity":64,"programNumber":0},{"time":440074.5563145798,"duration":71.91133333335165,"noteNumber":55,"velocity":55,"programNumber":0},{"time":440146.46764791314,"duration":71.91133333335165,"noteNumber":53,"velocity":64,"programNumber":0},{"time":440002.64498124644,"duration":215.73400000005495,"noteNumber":50,"velocity":47,"programNumber":0},{"time":440218.3789812465,"duration":107.86699999996927,"noteNumber":55,"velocity":54,"programNumber":0},{"time":440326.24598124647,"duration":107.86699999996927,"noteNumber":53,"velocity":59,"programNumber":0},{"time":440218.3789812465,"duration":215.73399999993853,"noteNumber":43,"velocity":56,"programNumber":0},{"time":440434.11298124644,"duration":107.86699999996927,"noteNumber":52,"velocity":55,"programNumber":0},{"time":440541.9799812464,"duration":107.86699999996927,"noteNumber":53,"velocity":57,"programNumber":0},{"time":440434.11298124644,"duration":215.73399999993853,"noteNumber":50,"velocity":46,"programNumber":0},{"time":440649.8469812464,"duration":215.73399999999674,"noteNumber":51,"velocity":74,"programNumber":0},{"time":440865.58098124637,"duration":215.73399999999674,"noteNumber":55,"velocity":60,"programNumber":0},{"time":440649.8469812464,"duration":431.4679999999935,"noteNumber":48,"velocity":64,"programNumber":0},{"time":440649.8469812464,"duration":431.4679999999935,"noteNumber":36,"velocity":64,"programNumber":0},{"time":441081.31498124637,"duration":215.73399999999674,"noteNumber":60,"velocity":68,"programNumber":0},{"time":441297.04898124636,"duration":215.73399999999674,"noteNumber":55,"velocity":61,"programNumber":0},{"time":441512.78298124636,"duration":215.73399999999674,"noteNumber":60,"velocity":69,"programNumber":0},{"time":441728.51698124636,"duration":215.73399999999674,"noteNumber":63,"velocity":63,"programNumber":0},{"time":441944.25098124635,"duration":215.73399999999674,"noteNumber":67,"velocity":69,"programNumber":0},{"time":442159.98498124635,"duration":215.73399999999674,"noteNumber":63,"velocity":60,"programNumber":0},{"time":442375.71898124635,"duration":215.73399999999674,"noteNumber":67,"velocity":73,"programNumber":0},{"time":442591.45298124634,"duration":215.73399999999674,"noteNumber":72,"velocity":68,"programNumber":0},{"time":442807.18698124634,"duration":215.73399999999674,"noteNumber":75,"velocity":80,"programNumber":0},{"time":443022.92098124634,"duration":215.73399999999674,"noteNumber":79,"velocity":73,"programNumber":0},{"time":443238.65498124633,"duration":215.73399999999674,"noteNumber":39,"velocity":67,"programNumber":0},{"time":443238.65498124633,"duration":215.73399999999674,"noteNumber":84,"velocity":89,"programNumber":0},{"time":443454.38898124633,"duration":215.73399999999674,"noteNumber":48,"velocity":45,"programNumber":0},{"time":443670.1229812463,"duration":215.73399999999674,"noteNumber":41,"velocity":50,"programNumber":0},{"time":443885.8569812463,"duration":215.73399999999674,"noteNumber":48,"velocity":47,"programNumber":0},{"time":444101.5909812463,"duration":215.73399999999674,"noteNumber":43,"velocity":56,"programNumber":0},{"time":444317.3249812463,"duration":215.73399999999674,"noteNumber":48,"velocity":50,"programNumber":0},{"time":444533.0589812463,"duration":215.73399999999674,"noteNumber":40,"velocity":67,"programNumber":0},{"time":444748.7929812463,"duration":215.73399999999674,"noteNumber":48,"velocity":45,"programNumber":0},{"time":444964.5269812463,"duration":215.73399999999674,"noteNumber":41,"velocity":61,"programNumber":0},{"time":445180.2609812463,"duration":215.73399999999674,"noteNumber":48,"velocity":47,"programNumber":0},{"time":444101.5909812463,"duration":1294.4039999999804,"noteNumber":60,"velocity":84,"programNumber":0},{"time":445395.9949812463,"duration":215.73399999999674,"noteNumber":43,"velocity":60,"programNumber":0},{"time":445611.7289812463,"duration":215.73399999999674,"noteNumber":48,"velocity":44,"programNumber":0},{"time":445395.9949812463,"duration":431.4679999999935,"noteNumber":52,"velocity":81,"programNumber":0},{"time":445827.4629812463,"duration":215.73399999999674,"noteNumber":41,"velocity":65,"programNumber":0},{"time":446043.1969812463,"duration":215.73399999999674,"noteNumber":48,"velocity":45,"programNumber":0},{"time":446258.9309812463,"duration":215.73399999999674,"noteNumber":43,"velocity":57,"programNumber":0},{"time":446474.6649812463,"duration":215.73399999999674,"noteNumber":48,"velocity":42,"programNumber":0},{"time":445827.4629812463,"duration":862.935999999987,"noteNumber":53,"velocity":84,"programNumber":0},{"time":446690.3989812463,"duration":215.73399999999674,"noteNumber":44,"velocity":58,"programNumber":0},{"time":446906.1329812463,"duration":215.73399999999674,"noteNumber":48,"velocity":45,"programNumber":0},{"time":446690.3989812463,"duration":431.4679999999935,"noteNumber":60,"velocity":84,"programNumber":0},{"time":447121.8669812463,"duration":215.73399999999674,"noteNumber":42,"velocity":67,"programNumber":0},{"time":447337.6009812463,"duration":215.73399999999674,"noteNumber":48,"velocity":51,"programNumber":0},{"time":447553.33498124627,"duration":215.73399999999674,"noteNumber":43,"velocity":58,"programNumber":0},{"time":447769.06898124627,"duration":215.73399999999674,"noteNumber":48,"velocity":47,"programNumber":0},{"time":447121.8669812463,"duration":862.935999999987,"noteNumber":54,"velocity":92,"programNumber":0},{"time":447984.80298124626,"duration":215.73399999999674,"noteNumber":45,"velocity":58,"programNumber":0},{"time":448200.53698124626,"duration":215.73399999999674,"noteNumber":48,"velocity":44,"programNumber":0},{"time":447984.80298124626,"duration":431.4679999999935,"noteNumber":60,"velocity":84,"programNumber":0},{"time":448416.27098124626,"duration":215.73399999999674,"noteNumber":43,"velocity":67,"programNumber":0},{"time":448416.27098124626,"duration":215.73399999999674,"noteNumber":55,"velocity":88,"programNumber":0},{"time":448632.00498124625,"duration":215.73399999999674,"noteNumber":48,"velocity":51,"programNumber":0},{"time":448632.00498124625,"duration":215.73399999999674,"noteNumber":60,"velocity":62,"programNumber":0},{"time":448847.73898124625,"duration":215.73399999999674,"noteNumber":47,"velocity":57,"programNumber":0},{"time":448847.73898124625,"duration":215.73399999999674,"noteNumber":59,"velocity":74,"programNumber":0},{"time":449063.47298124625,"duration":215.73399999999674,"noteNumber":48,"velocity":48,"programNumber":0},{"time":449063.47298124625,"duration":215.73399999999674,"noteNumber":60,"velocity":62,"programNumber":0},{"time":449279.20698124624,"duration":215.73399999999674,"noteNumber":43,"velocity":61,"programNumber":0},{"time":449279.20698124624,"duration":215.73399999999674,"noteNumber":55,"velocity":72,"programNumber":0},{"time":449494.94098124624,"duration":215.73399999999674,"noteNumber":48,"velocity":50,"programNumber":0},{"time":449494.94098124624,"duration":215.73399999999674,"noteNumber":60,"velocity":62,"programNumber":0},{"time":449710.67498124624,"duration":215.73399999999674,"noteNumber":44,"velocity":71,"programNumber":0},{"time":449710.67498124624,"duration":215.73399999999674,"noteNumber":56,"velocity":82,"programNumber":0},{"time":449926.40898124623,"duration":215.73399999999674,"noteNumber":48,"velocity":56,"programNumber":0},{"time":449926.40898124623,"duration":215.73399999999674,"noteNumber":60,"velocity":62,"programNumber":0},{"time":450142.14298124623,"duration":215.73399999999674,"noteNumber":47,"velocity":64,"programNumber":0},{"time":450142.14298124623,"duration":215.73399999999674,"noteNumber":59,"velocity":73,"programNumber":0},{"time":450357.8769812462,"duration":215.73399999999674,"noteNumber":48,"velocity":55,"programNumber":0},{"time":450357.8769812462,"duration":215.73399999999674,"noteNumber":60,"velocity":64,"programNumber":0},{"time":450573.6109812462,"duration":215.73399999999674,"noteNumber":42,"velocity":65,"programNumber":0},{"time":450573.6109812462,"duration":215.73399999999674,"noteNumber":54,"velocity":73,"programNumber":0},{"time":450789.3449812462,"duration":215.73399999999674,"noteNumber":48,"velocity":54,"programNumber":0},{"time":450789.3449812462,"duration":215.73399999999674,"noteNumber":60,"velocity":62,"programNumber":0},{"time":451005.0789812462,"duration":215.73399999999674,"noteNumber":43,"velocity":77,"programNumber":0},{"time":451005.0789812462,"duration":215.73399999999674,"noteNumber":55,"velocity":88,"programNumber":0},{"time":451220.8129812462,"duration":215.73399999999674,"noteNumber":48,"velocity":58,"programNumber":0},{"time":451220.8129812462,"duration":215.73399999999674,"noteNumber":60,"velocity":63,"programNumber":0},{"time":451436.5469812462,"duration":215.73399999999674,"noteNumber":47,"velocity":68,"programNumber":0},{"time":451436.5469812462,"duration":215.73399999999674,"noteNumber":59,"velocity":73,"programNumber":0},{"time":451652.2809812462,"duration":215.73399999999674,"noteNumber":48,"velocity":54,"programNumber":0},{"time":451652.2809812462,"duration":215.73399999999674,"noteNumber":60,"velocity":62,"programNumber":0},{"time":451868.0149812462,"duration":215.73399999999674,"noteNumber":40,"velocity":65,"programNumber":0},{"time":451868.0149812462,"duration":215.73399999999674,"noteNumber":52,"velocity":74,"programNumber":0},{"time":452083.7489812462,"duration":215.73399999999674,"noteNumber":48,"velocity":50,"programNumber":0},{"time":452083.7489812462,"duration":215.73399999999674,"noteNumber":60,"velocity":65,"programNumber":0},{"time":452299.4829812462,"duration":215.73399999999674,"noteNumber":41,"velocity":77,"programNumber":0},{"time":452299.4829812462,"duration":215.73399999999674,"noteNumber":53,"velocity":88,"programNumber":0},{"time":452515.2169812462,"duration":215.73399999999674,"noteNumber":48,"velocity":51,"programNumber":0},{"time":452515.2169812462,"duration":215.73399999999674,"noteNumber":60,"velocity":64,"programNumber":0},{"time":452730.9509812462,"duration":215.73399999999674,"noteNumber":44,"velocity":63,"programNumber":0},{"time":452730.9509812462,"duration":215.73399999999674,"noteNumber":56,"velocity":71,"programNumber":0},{"time":452946.6849812462,"duration":215.73399999999674,"noteNumber":48,"velocity":58,"programNumber":0},{"time":452946.6849812462,"duration":215.73399999999674,"noteNumber":60,"velocity":65,"programNumber":0},{"time":453162.4189812462,"duration":215.73399999999674,"noteNumber":42,"velocity":71,"programNumber":0},{"time":453162.4189812462,"duration":215.73399999999674,"noteNumber":54,"velocity":80,"programNumber":0},{"time":453378.1529812462,"duration":215.73399999999674,"noteNumber":48,"velocity":65,"programNumber":0},{"time":453378.1529812462,"duration":215.73399999999674,"noteNumber":60,"velocity":72,"programNumber":0},{"time":453593.8869812462,"duration":431.4679999999935,"noteNumber":43,"velocity":82,"programNumber":0},{"time":453593.8869812462,"duration":431.4679999999935,"noteNumber":55,"velocity":93,"programNumber":0},{"time":454025.3549812462,"duration":107.86700000002747,"noteNumber":63,"velocity":87,"programNumber":0},{"time":454025.3549812462,"duration":107.86700000002747,"noteNumber":60,"velocity":77,"programNumber":0},{"time":454025.3549812462,"duration":107.86700000002747,"noteNumber":55,"velocity":77,"programNumber":0},{"time":454348.9559812462,"duration":107.86699999996927,"noteNumber":67,"velocity":81,"programNumber":0},{"time":454456.82298124616,"duration":323.6010000000242,"noteNumber":75,"velocity":87,"programNumber":0},{"time":454780.4239812462,"duration":107.86700000002747,"noteNumber":72,"velocity":84,"programNumber":0},{"time":454888.2909812462,"duration":107.86700000002747,"noteNumber":78,"velocity":93,"programNumber":0},{"time":455319.75898124627,"duration":107.86700000002747,"noteNumber":63,"velocity":87,"programNumber":0},{"time":455319.75898124627,"duration":107.86700000002747,"noteNumber":56,"velocity":77,"programNumber":0},{"time":455319.75898124627,"duration":107.86700000002747,"noteNumber":60,"velocity":77,"programNumber":0},{"time":455643.3599812463,"duration":107.86699999996927,"noteNumber":66,"velocity":81,"programNumber":0},{"time":455751.22698124626,"duration":323.6010000000242,"noteNumber":75,"velocity":87,"programNumber":0},{"time":456074.8279812463,"duration":107.86700000002747,"noteNumber":72,"velocity":84,"programNumber":0},{"time":456182.6949812463,"duration":107.86700000002747,"noteNumber":79,"velocity":93,"programNumber":0},{"time":456614.16298124637,"duration":107.86700000002747,"noteNumber":60,"velocity":77,"programNumber":0},{"time":456614.16298124637,"duration":107.86700000002747,"noteNumber":55,"velocity":77,"programNumber":0},{"time":456614.16298124637,"duration":107.86700000002747,"noteNumber":63,"velocity":87,"programNumber":0},{"time":456937.7639812464,"duration":107.86699999996927,"noteNumber":67,"velocity":81,"programNumber":0},{"time":457045.63098124636,"duration":323.6010000000242,"noteNumber":75,"velocity":87,"programNumber":0},{"time":457369.2319812464,"duration":107.86700000002747,"noteNumber":72,"velocity":84,"programNumber":0},{"time":457477.0989812464,"duration":107.86700000002747,"noteNumber":81,"velocity":93,"programNumber":0},{"time":457908.56698124646,"duration":107.86700000002747,"noteNumber":54,"velocity":77,"programNumber":0},{"time":457908.56698124646,"duration":107.86700000002747,"noteNumber":60,"velocity":77,"programNumber":0},{"time":457908.56698124646,"duration":107.86700000002747,"noteNumber":63,"velocity":87,"programNumber":0},{"time":458232.1679812465,"duration":107.86699999996927,"noteNumber":69,"velocity":81,"programNumber":0},{"time":458340.03498124646,"duration":323.6010000000242,"noteNumber":75,"velocity":87,"programNumber":0},{"time":458663.6359812465,"duration":107.86700000002747,"noteNumber":72,"velocity":84,"programNumber":0},{"time":459202.9709812465,"duration":107.86700000002747,"noteNumber":60,"velocity":77,"programNumber":0},{"time":459202.9709812465,"duration":107.86700000002747,"noteNumber":63,"velocity":87,"programNumber":0},{"time":459202.9709812465,"duration":107.86700000002747,"noteNumber":55,"velocity":77,"programNumber":0},{"time":458771.5029812465,"duration":647.2020000000484,"noteNumber":79,"velocity":95,"programNumber":0},{"time":459418.70498124656,"duration":215.73399999999674,"noteNumber":75,"velocity":85,"programNumber":0},{"time":459634.43898124655,"duration":215.73399999999674,"noteNumber":75,"velocity":93,"programNumber":0},{"time":459850.17298124655,"duration":161.8005000000121,"noteNumber":72,"velocity":79,"programNumber":0},{"time":460065.90698124655,"duration":215.73399999999674,"noteNumber":72,"velocity":88,"programNumber":0},{"time":460281.64098124654,"duration":161.8005000000121,"noteNumber":67,"velocity":78,"programNumber":0},{"time":460497.37498124654,"duration":215.73399999999674,"noteNumber":67,"velocity":85,"programNumber":0},{"time":460713.10898124654,"duration":161.8005000000121,"noteNumber":63,"velocity":77,"programNumber":0},{"time":460928.84298124653,"duration":215.73399999999674,"noteNumber":63,"velocity":81,"programNumber":0},{"time":461144.57698124653,"duration":161.8005000000121,"noteNumber":60,"velocity":77,"programNumber":0},{"time":461360.3109812465,"duration":215.73399999999674,"noteNumber":60,"velocity":81,"programNumber":0},{"time":461576.0449812465,"duration":161.8005000000121,"noteNumber":55,"velocity":77,"programNumber":0},{"time":461791.7789812465,"duration":215.73399999999674,"noteNumber":55,"velocity":82,"programNumber":0},{"time":462007.5129812465,"duration":161.8005000000121,"noteNumber":51,"velocity":77,"programNumber":0},{"time":462223.2469812465,"duration":215.73399999999674,"noteNumber":51,"velocity":83,"programNumber":0},{"time":462438.9809812465,"duration":161.8005000000121,"noteNumber":48,"velocity":77,"programNumber":0},{"time":463517.6509812465,"duration":431.4679999999935,"noteNumber":50,"velocity":59,"programNumber":0},{"time":462654.7149812465,"duration":1294.4039999999804,"noteNumber":31,"velocity":78,"programNumber":0},{"time":463517.6509812465,"duration":431.4679999999935,"noteNumber":55,"velocity":66,"programNumber":0},{"time":462654.7149812465,"duration":1294.4039999999804,"noteNumber":43,"velocity":92,"programNumber":0},{"time":463517.6509812465,"duration":431.4679999999935,"noteNumber":53,"velocity":70,"programNumber":0},{"time":463517.6509812465,"duration":431.4679999999935,"noteNumber":59,"velocity":78,"programNumber":0},{"time":463949.1189812465,"duration":431.4679999999935,"noteNumber":36,"velocity":67,"programNumber":0},{"time":463949.1189812465,"duration":431.4679999999935,"noteNumber":55,"velocity":70,"programNumber":0},{"time":463949.1189812465,"duration":431.4679999999935,"noteNumber":60,"velocity":83,"programNumber":0},{"time":463949.1189812465,"duration":431.4679999999935,"noteNumber":51,"velocity":79,"programNumber":0},{"time":464812.0549812465,"duration":431.4679999999935,"noteNumber":42,"velocity":51,"programNumber":0},{"time":465243.52298124647,"duration":431.4679999999935,"noteNumber":41,"velocity":51,"programNumber":0},{"time":465674.99098124646,"duration":431.4679999999935,"noteNumber":39,"velocity":49,"programNumber":0},{"time":465674.99098124646,"duration":431.4679999999935,"noteNumber":67,"velocity":53,"programNumber":0},{"time":465674.99098124646,"duration":431.4679999999935,"noteNumber":62,"velocity":42,"programNumber":0},{"time":465674.99098124646,"duration":431.4679999999935,"noteNumber":65,"velocity":42,"programNumber":0},{"time":465674.99098124646,"duration":431.4679999999935,"noteNumber":59,"velocity":42,"programNumber":0},{"time":466106.45898124645,"duration":431.4679999999935,"noteNumber":38,"velocity":49,"programNumber":0},{"time":466106.45898124645,"duration":431.4679999999935,"noteNumber":59,"velocity":38,"programNumber":0},{"time":466106.45898124645,"duration":431.4679999999935,"noteNumber":62,"velocity":38,"programNumber":0},{"time":464380.5869812465,"duration":2157.3399999999674,"noteNumber":43,"velocity":51,"programNumber":0},{"time":466106.45898124645,"duration":431.4679999999935,"noteNumber":67,"velocity":48,"programNumber":0},{"time":466106.45898124645,"duration":431.4679999999935,"noteNumber":65,"velocity":38,"programNumber":0},{"time":466537.92698124645,"duration":431.4679999999935,"noteNumber":36,"velocity":51,"programNumber":0},{"time":466537.92698124645,"duration":431.4679999999935,"noteNumber":68,"velocity":53,"programNumber":0},{"time":466969.39498124644,"duration":431.4679999999935,"noteNumber":39,"velocity":47,"programNumber":0},{"time":466537.92698124645,"duration":862.935999999987,"noteNumber":60,"velocity":42,"programNumber":0},{"time":466537.92698124645,"duration":862.935999999987,"noteNumber":63,"velocity":42,"programNumber":0},{"time":466969.39498124644,"duration":431.4679999999935,"noteNumber":67,"velocity":49,"programNumber":0},{"time":467400.86298124644,"duration":431.4679999999935,"noteNumber":43,"velocity":47,"programNumber":0},{"time":467832.3309812464,"duration":431.4679999999935,"noteNumber":31,"velocity":51,"programNumber":0},{"time":468263.7989812464,"duration":431.4679999999935,"noteNumber":38,"velocity":48,"programNumber":0},{"time":468263.7989812464,"duration":431.4679999999935,"noteNumber":62,"velocity":42,"programNumber":0},{"time":468263.7989812464,"duration":431.4679999999935,"noteNumber":65,"velocity":42,"programNumber":0},{"time":468263.7989812464,"duration":431.4679999999935,"noteNumber":71,"velocity":53,"programNumber":0},{"time":468695.2669812464,"duration":431.4679999999935,"noteNumber":43,"velocity":48,"programNumber":0},{"time":468695.2669812464,"duration":431.4679999999935,"noteNumber":62,"velocity":38,"programNumber":0},{"time":468695.2669812464,"duration":431.4679999999935,"noteNumber":65,"velocity":38,"programNumber":0},{"time":468695.2669812464,"duration":431.4679999999935,"noteNumber":71,"velocity":48,"programNumber":0},{"time":469126.7349812464,"duration":431.4679999999935,"noteNumber":36,"velocity":67,"programNumber":0},{"time":469126.7349812464,"duration":431.4679999999935,"noteNumber":74,"velocity":53,"programNumber":0},{"time":469558.2029812464,"duration":431.4679999999935,"noteNumber":72,"velocity":49,"programNumber":0},{"time":469126.7349812464,"duration":862.935999999987,"noteNumber":63,"velocity":42,"programNumber":0},{"time":469126.7349812464,"duration":862.935999999987,"noteNumber":67,"velocity":42,"programNumber":0},{"time":469989.6709812464,"duration":431.4679999999935,"noteNumber":42,"velocity":51,"programNumber":0},{"time":470421.1389812464,"duration":431.4679999999935,"noteNumber":41,"velocity":51,"programNumber":0},{"time":470852.6069812464,"duration":431.4679999999935,"noteNumber":39,"velocity":49,"programNumber":0},{"time":470852.6069812464,"duration":431.4679999999935,"noteNumber":59,"velocity":42,"programNumber":0},{"time":470852.6069812464,"duration":431.4679999999935,"noteNumber":62,"velocity":42,"programNumber":0},{"time":470852.6069812464,"duration":431.4679999999935,"noteNumber":65,"velocity":42,"programNumber":0},{"time":470852.6069812464,"duration":431.4679999999935,"noteNumber":67,"velocity":53,"programNumber":0},{"time":471284.0749812464,"duration":431.4679999999935,"noteNumber":38,"velocity":49,"programNumber":0},{"time":471284.0749812464,"duration":431.4679999999935,"noteNumber":67,"velocity":48,"programNumber":0},{"time":471284.0749812464,"duration":431.4679999999935,"noteNumber":62,"velocity":38,"programNumber":0},{"time":469558.2029812464,"duration":2157.3399999999674,"noteNumber":43,"velocity":51,"programNumber":0},{"time":471284.0749812464,"duration":431.4679999999935,"noteNumber":59,"velocity":38,"programNumber":0},{"time":471284.0749812464,"duration":431.4679999999935,"noteNumber":65,"velocity":38,"programNumber":0},{"time":471715.54298124637,"duration":431.4679999999935,"noteNumber":36,"velocity":51,"programNumber":0},{"time":471715.54298124637,"duration":431.4679999999935,"noteNumber":68,"velocity":53,"programNumber":0},{"time":472147.01098124636,"duration":431.4679999999935,"noteNumber":39,"velocity":47,"programNumber":0},{"time":471715.54298124637,"duration":862.935999999987,"noteNumber":60,"velocity":42,"programNumber":0},{"time":471715.54298124637,"duration":862.935999999987,"noteNumber":63,"velocity":42,"programNumber":0},{"time":472147.01098124636,"duration":431.4679999999935,"noteNumber":67,"velocity":49,"programNumber":0},{"time":472578.47898124636,"duration":431.4679999999935,"noteNumber":43,"velocity":47,"programNumber":0},{"time":473009.94698124635,"duration":431.4679999999935,"noteNumber":31,"velocity":51,"programNumber":0},{"time":473441.41498124634,"duration":431.4679999999935,"noteNumber":38,"velocity":48,"programNumber":0},{"time":473441.41498124634,"duration":431.4679999999935,"noteNumber":50,"velocity":42,"programNumber":0},{"time":473441.41498124634,"duration":431.4679999999935,"noteNumber":53,"velocity":42,"programNumber":0},{"time":473441.41498124634,"duration":431.4679999999935,"noteNumber":59,"velocity":53,"programNumber":0},{"time":473872.88298124634,"duration":431.4679999999935,"noteNumber":43,"velocity":48,"programNumber":0},{"time":473872.88298124634,"duration":431.4679999999935,"noteNumber":50,"velocity":38,"programNumber":0},{"time":473872.88298124634,"duration":431.4679999999935,"noteNumber":53,"velocity":38,"programNumber":0},{"time":473872.88298124634,"duration":431.4679999999935,"noteNumber":59,"velocity":48,"programNumber":0},{"time":474304.35098124633,"duration":431.4679999999935,"noteNumber":36,"velocity":51,"programNumber":0},{"time":474304.35098124633,"duration":431.4679999999935,"noteNumber":62,"velocity":53,"programNumber":0},{"time":474735.8189812463,"duration":431.4679999999935,"noteNumber":39,"velocity":47,"programNumber":0},{"time":474304.35098124633,"duration":862.935999999987,"noteNumber":51,"velocity":42,"programNumber":0},{"time":474304.35098124633,"duration":862.935999999987,"noteNumber":55,"velocity":42,"programNumber":0},{"time":474735.8189812463,"duration":431.4679999999935,"noteNumber":60,"velocity":49,"programNumber":0},{"time":475167.2869812463,"duration":431.4679999999935,"noteNumber":43,"velocity":47,"programNumber":0},{"time":475598.7549812463,"duration":431.4679999999935,"noteNumber":31,"velocity":51,"programNumber":0},{"time":476030.2229812463,"duration":431.4679999999935,"noteNumber":38,"velocity":48,"programNumber":0},{"time":476030.2229812463,"duration":431.4679999999935,"noteNumber":50,"velocity":42,"programNumber":0},{"time":476030.2229812463,"duration":431.4679999999935,"noteNumber":53,"velocity":42,"programNumber":0},{"time":476030.2229812463,"duration":431.4679999999935,"noteNumber":59,"velocity":53,"programNumber":0},{"time":476461.6909812463,"duration":431.4679999999935,"noteNumber":43,"velocity":48,"programNumber":0},{"time":476461.6909812463,"duration":431.4679999999935,"noteNumber":50,"velocity":38,"programNumber":0},{"time":476461.6909812463,"duration":431.4679999999935,"noteNumber":53,"velocity":38,"programNumber":0},{"time":476461.6909812463,"duration":431.4679999999935,"noteNumber":59,"velocity":48,"programNumber":0},{"time":476893.1589812463,"duration":431.4679999999935,"noteNumber":36,"velocity":51,"programNumber":0},{"time":476893.1589812463,"duration":431.4679999999935,"noteNumber":51,"velocity":42,"programNumber":0},{"time":476893.1589812463,"duration":431.4679999999935,"noteNumber":55,"velocity":42,"programNumber":0},{"time":476893.1589812463,"duration":431.4679999999935,"noteNumber":60,"velocity":53,"programNumber":0},{"time":478187.56298124633,"duration":431.4679999999935,"noteNumber":43,"velocity":71,"programNumber":0},{"time":478187.56298124633,"duration":431.4679999999935,"noteNumber":67,"velocity":82,"programNumber":0},{"time":478187.56298124633,"duration":431.4679999999935,"noteNumber":31,"velocity":60,"programNumber":0},{"time":478187.56298124633,"duration":431.4679999999935,"noteNumber":71,"velocity":82,"programNumber":0},{"time":478187.56298124633,"duration":431.4679999999935,"noteNumber":74,"velocity":82,"programNumber":0},{"time":478187.56298124633,"duration":431.4679999999935,"noteNumber":79,"velocity":97,"programNumber":0},{"time":478187.56298124633,"duration":431.4679999999935,"noteNumber":35,"velocity":60,"programNumber":0},{"time":478187.56298124633,"duration":431.4679999999935,"noteNumber":38,"velocity":60,"programNumber":0},{"time":479481.9669812463,"duration":431.4679999999935,"noteNumber":48,"velocity":71,"programNumber":0},{"time":479481.9669812463,"duration":431.4679999999935,"noteNumber":60,"velocity":82,"programNumber":0},{"time":479481.9669812463,"duration":431.4679999999935,"noteNumber":36,"velocity":60,"programNumber":0},{"time":479481.9669812463,"duration":431.4679999999935,"noteNumber":63,"velocity":82,"programNumber":0},{"time":479481.9669812463,"duration":431.4679999999935,"noteNumber":67,"velocity":82,"programNumber":0},{"time":479481.9669812463,"duration":431.4679999999935,"noteNumber":72,"velocity":97,"programNumber":0},{"time":479481.9669812463,"duration":431.4679999999935,"noteNumber":39,"velocity":60,"programNumber":0},{"time":479481.9669812463,"duration":431.4679999999935,"noteNumber":43,"velocity":60,"programNumber":0}]]}