{"tracks":[[{"time":0,"duration":444.444,"noteNumber":71,"velocity":85,"programNumber":44},{"time":0,"duration":444.444,"noteNumber":79,"velocity":85,"programNumber":44},{"time":0,"duration":444.444,"noteNumber":62,"velocity":85,"programNumber":44},{"time":666.666,"duration":111.11099999999999,"noteNumber":74,"velocity":85,"programNumber":44},{"time":888.888,"duration":444.4440000000001,"noteNumber":79,"velocity":85,"programNumber":44},{"time":1555.554,"duration":111.1110000000001,"noteNumber":74,"velocity":85,"programNumber":44},{"time":1777.7760000000003,"duration":111.1110000000001,"noteNumber":79,"velocity":85,"programNumber":44},{"time":1999.9980000000005,"duration":111.11099999999988,"noteNumber":74,"velocity":85,"programNumber":44},{"time":2222.2200000000003,"duration":111.11099999999988,"noteNumber":79,"velocity":85,"programNumber":44},{"time":2444.442,"duration":111.11099999999988,"noteNumber":83,"velocity":85,"programNumber":44},{"time":2666.6639999999998,"duration":444.44399999999996,"noteNumber":86,"velocity":85,"programNumber":44},{"time":3555.5519999999997,"duration":444.44399999999996,"noteNumber":84,"velocity":85,"programNumber":44},{"time":4222.218,"duration":111.11099999999988,"noteNumber":81,"velocity":82,"programNumber":44},{"time":4444.44,"duration":444.4440000000004,"noteNumber":84,"velocity":85,"programNumber":44},{"time":5111.106,"duration":111.11099999999988,"noteNumber":81,"velocity":79,"programNumber":44},{"time":5333.3279999999995,"duration":111.11099999999988,"noteNumber":84,"velocity":85,"programNumber":44},{"time":5555.549999999999,"duration":111.11099999999988,"noteNumber":81,"velocity":80,"programNumber":44},{"time":5777.771999999999,"duration":111.11099999999988,"noteNumber":78,"velocity":85,"programNumber":44},{"time":5999.993999999999,"duration":111.11099999999988,"noteNumber":81,"velocity":77,"programNumber":44},{"time":6222.2159999999985,"duration":444.4440000000004,"noteNumber":74,"velocity":85,"programNumber":44},{"time":7111.103999999999,"duration":222.22199999999975,"noteNumber":71,"velocity":85,"programNumber":44},{"time":7111.103999999999,"duration":222.22199999999975,"noteNumber":79,"velocity":85,"programNumber":44},{"time":7111.103999999999,"duration":222.22199999999975,"noteNumber":62,"velocity":85,"programNumber":44},{"time":7555.547999999999,"duration":666.6659999999993,"noteNumber":79,"velocity":85,"programNumber":44},{"time":8222.213999999998,"duration":222.22199999999975,"noteNumber":83,"velocity":89,"programNumber":44},{"time":8444.435999999998,"duration":111.11100000000079,"noteNumber":81,"velocity":94,"programNumber":44},{"time":8666.658,"duration":111.11100000000079,"noteNumber":79,"velocity":97,"programNumber":44},{"time":8888.880000000001,"duration":55.55550000000039,"noteNumber":79,"velocity":95,"programNumber":44},{"time":8944.435500000001,"duration":55.55550000000039,"noteNumber":81,"velocity":95,"programNumber":44},{"time":8999.991000000002,"duration":55.55550000000039,"noteNumber":79,"velocity":95,"programNumber":44},{"time":9055.546500000002,"duration":55.55550000000039,"noteNumber":81,"velocity":94,"programNumber":44},{"time":9111.102000000003,"duration":185.1849999999995,"noteNumber":78,"velocity":94,"programNumber":44},{"time":9333.324000000002,"duration":666.6659999999993,"noteNumber":78,"velocity":88,"programNumber":44},{"time":9999.990000000002,"duration":222.22199999999975,"noteNumber":81,"velocity":85,"programNumber":44},{"time":10222.212000000001,"duration":111.11100000000079,"noteNumber":84,"velocity":85,"programNumber":44},{"time":10444.434000000003,"duration":111.11100000000079,"noteNumber":78,"velocity":85,"programNumber":44},{"time":10666.656000000004,"duration":222.22199999999975,"noteNumber":81,"velocity":85,"programNumber":44},{"time":10888.878000000004,"duration":111.11100000000079,"noteNumber":79,"velocity":85,"programNumber":44},{"time":11111.100000000006,"duration":666.6659999999993,"noteNumber":79,"velocity":85,"programNumber":44},{"time":11777.766000000005,"duration":222.22199999999975,"noteNumber":83,"velocity":86,"programNumber":44},{"time":11999.988000000005,"duration":111.11100000000079,"noteNumber":81,"velocity":86,"programNumber":44},{"time":12222.210000000006,"duration":111.11100000000079,"noteNumber":79,"velocity":89,"programNumber":44},{"time":12444.432000000008,"duration":55.55550000000039,"noteNumber":79,"velocity":91,"programNumber":44},{"time":12499.987500000008,"duration":55.55550000000039,"noteNumber":81,"velocity":91,"programNumber":44},{"time":12555.543000000009,"duration":55.55550000000039,"noteNumber":79,"velocity":92,"programNumber":44},{"time":12611.09850000001,"duration":55.55550000000039,"noteNumber":81,"velocity":94,"programNumber":44},{"time":12666.65400000001,"duration":185.1849999999995,"noteNumber":78,"velocity":94,"programNumber":44},{"time":12888.87600000001,"duration":666.6659999999993,"noteNumber":78,"velocity":94,"programNumber":44},{"time":13555.542000000009,"duration":222.22199999999975,"noteNumber":81,"velocity":85,"programNumber":44},{"time":13777.764000000008,"duration":111.11100000000079,"noteNumber":84,"velocity":85,"programNumber":44},{"time":13999.98600000001,"duration":111.11100000000079,"noteNumber":78,"velocity":85,"programNumber":44},{"time":14222.208000000011,"duration":111.11100000000079,"noteNumber":79,"velocity":85,"programNumber":44},{"time":14444.430000000013,"duration":111.11100000000079,"noteNumber":79,"velocity":85,"programNumber":44},{"time":14666.652000000015,"duration":111.11100000000079,"noteNumber":79,"velocity":85,"programNumber":44},{"time":14777.763000000015,"duration":111.11100000000079,"noteNumber":78,"velocity":85,"programNumber":44},{"time":14888.874000000016,"duration":111.11100000000079,"noteNumber":76,"velocity":85,"programNumber":44},{"time":14999.985000000017,"duration":111.11100000000079,"noteNumber":78,"velocity":85,"programNumber":44},{"time":15111.096000000018,"duration":111.11100000000079,"noteNumber":79,"velocity":85,"programNumber":44},{"time":15333.31800000002,"duration":111.11100000000079,"noteNumber":79,"velocity":85,"programNumber":44},{"time":15555.54000000002,"duration":111.11100000000079,"noteNumber":83,"velocity":85,"programNumber":44},{"time":15666.651000000022,"duration":111.11100000000079,"noteNumber":81,"velocity":85,"programNumber":44},{"time":15777.762000000022,"duration":111.11100000000079,"noteNumber":79,"velocity":85,"programNumber":44},{"time":15888.873000000023,"duration":111.11100000000079,"noteNumber":81,"velocity":85,"programNumber":44},{"time":15999.984000000024,"duration":111.11100000000079,"noteNumber":83,"velocity":86,"programNumber":44},{"time":16222.206000000026,"duration":111.11100000000079,"noteNumber":83,"velocity":86,"programNumber":44},{"time":16444.428000000025,"duration":111.11100000000079,"noteNumber":86,"velocity":83,"programNumber":44},{"time":16555.539000000026,"duration":111.11100000000079,"noteNumber":84,"velocity":80,"programNumber":44},{"time":16666.650000000027,"duration":111.11100000000079,"noteNumber":83,"velocity":80,"programNumber":44},{"time":16777.761000000028,"duration":111.11100000000079,"noteNumber":84,"velocity":79,"programNumber":44},{"time":16888.87200000003,"duration":444.4439999999995,"noteNumber":86,"velocity":76,"programNumber":44},{"time":17777.760000000028,"duration":888.887999999999,"noteNumber":74,"velocity":41,"programNumber":44},{"time":18666.648000000027,"duration":888.887999999999,"noteNumber":76,"velocity":47,"programNumber":44},{"time":19555.536000000026,"duration":111.11100000000079,"noteNumber":74,"velocity":47,"programNumber":44},{"time":19666.647000000026,"duration":296.29599999999846,"noteNumber":72,"velocity":47,"programNumber":44},{"time":19999.980000000025,"duration":444.4439999999995,"noteNumber":72,"velocity":47,"programNumber":44},{"time":20444.424000000025,"duration":111.11100000000079,"noteNumber":72,"velocity":47,"programNumber":44},{"time":20555.535000000025,"duration":296.29599999999846,"noteNumber":71,"velocity":47,"programNumber":44},{"time":20888.868000000024,"duration":444.4439999999995,"noteNumber":71,"velocity":47,"programNumber":44},{"time":21333.312000000024,"duration":111.11100000000079,"noteNumber":71,"velocity":47,"programNumber":44},{"time":21444.423000000024,"duration":296.29599999999846,"noteNumber":69,"velocity":47,"programNumber":44},{"time":21777.756000000023,"duration":444.4439999999995,"noteNumber":69,"velocity":47,"programNumber":44},{"time":22222.200000000023,"duration":222.22200000000157,"noteNumber":67,"velocity":47,"programNumber":44},{"time":22444.422000000024,"duration":111.11100000000079,"noteNumber":66,"velocity":47,"programNumber":44},{"time":22666.644000000026,"duration":111.11100000000079,"noteNumber":64,"velocity":47,"programNumber":44},{"time":22888.866000000027,"duration":111.11100000000079,"noteNumber":66,"velocity":47,"programNumber":44},{"time":23111.08800000003,"duration":222.22200000000157,"noteNumber":67,"velocity":47,"programNumber":44},{"time":23555.532000000032,"duration":222.22200000000157,"noteNumber":69,"velocity":47,"programNumber":44},{"time":23999.976000000035,"duration":222.22200000000157,"noteNumber":71,"velocity":47,"programNumber":44},{"time":24888.864000000038,"duration":888.887999999999,"noteNumber":74,"velocity":47,"programNumber":44},{"time":25777.752000000037,"duration":888.887999999999,"noteNumber":76,"velocity":47,"programNumber":44},{"time":26666.640000000036,"duration":222.22200000000157,"noteNumber":74,"velocity":47,"programNumber":44},{"time":26888.862000000037,"duration":111.11100000000079,"noteNumber":72,"velocity":47,"programNumber":44},{"time":27111.08400000004,"duration":111.11100000000079,"noteNumber":72,"velocity":47,"programNumber":44},{"time":27333.30600000004,"duration":111.11100000000079,"noteNumber":72,"velocity":47,"programNumber":44},{"time":27555.528000000042,"duration":222.22200000000157,"noteNumber":72,"velocity":47,"programNumber":44},{"time":27777.750000000044,"duration":111.11100000000079,"noteNumber":71,"velocity":47,"programNumber":44},{"time":27999.972000000045,"duration":111.11100000000079,"noteNumber":71,"velocity":47,"programNumber":44},{"time":28222.194000000047,"duration":111.11100000000079,"noteNumber":71,"velocity":47,"programNumber":44},{"time":28444.41600000005,"duration":222.22200000000157,"noteNumber":71,"velocity":47,"programNumber":44},{"time":28666.63800000005,"duration":111.11100000000079,"noteNumber":69,"velocity":47,"programNumber":44},{"time":28888.86000000005,"duration":166.66649999999936,"noteNumber":69,"velocity":47,"programNumber":44},{"time":29111.08200000005,"duration":166.66649999999936,"noteNumber":69,"velocity":47,"programNumber":44},{"time":29333.304000000047,"duration":222.22200000000157,"noteNumber":67,"velocity":47,"programNumber":44},{"time":29555.52600000005,"duration":222.22200000000157,"noteNumber":66,"velocity":47,"programNumber":44},{"time":29777.74800000005,"duration":222.22200000000157,"noteNumber":64,"velocity":47,"programNumber":44},{"time":29999.970000000052,"duration":222.22200000000157,"noteNumber":66,"velocity":47,"programNumber":44},{"time":30222.192000000054,"duration":1111.1100000000006,"noteNumber":67,"velocity":85,"programNumber":44},{"time":30222.192000000054,"duration":1111.1100000000006,"noteNumber":55,"velocity":85,"programNumber":44},{"time":31333.302000000054,"duration":55.555499999998574,"noteNumber":67,"velocity":61,"programNumber":44},{"time":31388.857500000053,"duration":55.555499999998574,"noteNumber":69,"velocity":61,"programNumber":44},{"time":31444.41300000005,"duration":55.555499999998574,"noteNumber":66,"velocity":61,"programNumber":44},{"time":31499.96850000005,"duration":55.555499999998574,"noteNumber":67,"velocity":61,"programNumber":44},{"time":31555.52400000005,"duration":222.22200000000157,"noteNumber":69,"velocity":61,"programNumber":44},{"time":31777.74600000005,"duration":222.22200000000157,"noteNumber":66,"velocity":61,"programNumber":44},{"time":31999.96800000005,"duration":1111.1100000000006,"noteNumber":71,"velocity":85,"programNumber":44},{"time":33111.07800000005,"duration":55.55550000000221,"noteNumber":71,"velocity":61,"programNumber":44},{"time":33166.633500000054,"duration":55.55550000000221,"noteNumber":72,"velocity":61,"programNumber":44},{"time":33222.18900000006,"duration":55.55550000000221,"noteNumber":69,"velocity":61,"programNumber":44},{"time":33277.74450000006,"duration":55.55550000000221,"noteNumber":71,"velocity":61,"programNumber":44},{"time":33333.30000000006,"duration":222.22200000000157,"noteNumber":72,"velocity":61,"programNumber":44},{"time":33555.52200000006,"duration":222.22200000000157,"noteNumber":69,"velocity":61,"programNumber":44},{"time":33777.744000000064,"duration":74.07400000000052,"noteNumber":74,"velocity":46,"programNumber":44},{"time":33888.85500000006,"duration":74.07400000000052,"noteNumber":74,"velocity":46,"programNumber":44},{"time":33999.96600000006,"duration":74.07400000000052,"noteNumber":74,"velocity":47,"programNumber":44},{"time":34111.077000000056,"duration":74.07400000000052,"noteNumber":74,"velocity":47,"programNumber":44},{"time":34222.18800000005,"duration":74.07400000000052,"noteNumber":74,"velocity":49,"programNumber":44},{"time":34333.29900000005,"duration":74.07400000000052,"noteNumber":74,"velocity":50,"programNumber":44},{"time":34444.41000000005,"duration":74.07400000000052,"noteNumber":74,"velocity":50,"programNumber":44},{"time":34555.521000000044,"duration":74.07400000000052,"noteNumber":74,"velocity":52,"programNumber":44},{"time":34666.63200000004,"duration":74.07400000000052,"noteNumber":76,"velocity":53,"programNumber":44},{"time":34777.74300000004,"duration":74.07400000000052,"noteNumber":76,"velocity":53,"programNumber":44},{"time":34888.854000000036,"duration":74.07400000000052,"noteNumber":76,"velocity":55,"programNumber":44},{"time":34999.96500000003,"duration":74.07400000000052,"noteNumber":76,"velocity":56,"programNumber":44},{"time":35111.07600000003,"duration":74.07400000000052,"noteNumber":78,"velocity":56,"programNumber":44},{"time":35222.18700000003,"duration":74.07400000000052,"noteNumber":78,"velocity":58,"programNumber":44},{"time":35333.298000000024,"duration":74.07400000000052,"noteNumber":78,"velocity":58,"programNumber":44},{"time":35444.40900000002,"duration":74.07400000000052,"noteNumber":78,"velocity":59,"programNumber":44},{"time":35555.52000000002,"duration":74.07400000000052,"noteNumber":79,"velocity":61,"programNumber":44},{"time":35666.631000000016,"duration":74.07400000000052,"noteNumber":79,"velocity":61,"programNumber":44},{"time":35777.74200000001,"duration":74.07400000000052,"noteNumber":79,"velocity":62,"programNumber":44},{"time":35888.85300000001,"duration":74.07400000000052,"noteNumber":79,"velocity":64,"programNumber":44},{"time":35999.96400000001,"duration":74.07400000000052,"noteNumber":81,"velocity":64,"programNumber":44},{"time":36111.075000000004,"duration":74.07400000000052,"noteNumber":81,"velocity":65,"programNumber":44},{"time":36222.186,"duration":74.07400000000052,"noteNumber":81,"velocity":67,"programNumber":44},{"time":36333.297,"duration":74.07400000000052,"noteNumber":81,"velocity":67,"programNumber":44},{"time":36444.407999999996,"duration":74.07400000000052,"noteNumber":83,"velocity":68,"programNumber":44},{"time":36555.51899999999,"duration":74.07400000000052,"noteNumber":83,"velocity":68,"programNumber":44},{"time":36666.62999999999,"duration":74.07400000000052,"noteNumber":83,"velocity":70,"programNumber":44},{"time":36777.74099999999,"duration":74.07400000000052,"noteNumber":83,"velocity":71,"programNumber":44},{"time":36888.851999999984,"duration":74.07400000000052,"noteNumber":85,"velocity":71,"programNumber":44},{"time":36999.96299999998,"duration":74.07400000000052,"noteNumber":85,"velocity":73,"programNumber":44},{"time":37111.07399999998,"duration":74.07400000000052,"noteNumber":85,"velocity":74,"programNumber":44},{"time":37222.184999999976,"duration":74.07400000000052,"noteNumber":85,"velocity":74,"programNumber":44},{"time":37333.29599999997,"duration":666.6659999999974,"noteNumber":86,"velocity":85,"programNumber":44},{"time":37999.96199999997,"duration":222.22200000000157,"noteNumber":81,"velocity":85,"programNumber":44},{"time":38222.18399999997,"duration":333.3329999999987,"noteNumber":85,"velocity":94,"programNumber":44},{"time":38555.51699999997,"duration":111.11099999999715,"noteNumber":81,"velocity":85,"programNumber":44},{"time":38666.62799999997,"duration":333.3329999999987,"noteNumber":85,"velocity":85,"programNumber":44},{"time":38999.96099999997,"duration":111.11099999999715,"noteNumber":81,"velocity":85,"programNumber":44},{"time":39111.071999999964,"duration":666.6659999999974,"noteNumber":86,"velocity":85,"programNumber":44},{"time":39777.73799999996,"duration":222.22200000000157,"noteNumber":81,"velocity":85,"programNumber":44},{"time":39999.95999999996,"duration":333.3329999999987,"noteNumber":85,"velocity":85,"programNumber":44},{"time":40333.29299999996,"duration":111.11099999999715,"noteNumber":81,"velocity":85,"programNumber":44},{"time":40444.40399999996,"duration":333.3329999999987,"noteNumber":85,"velocity":85,"programNumber":44},{"time":40777.73699999996,"duration":111.11099999999715,"noteNumber":81,"velocity":85,"programNumber":44},{"time":40888.847999999954,"duration":111.11099999999715,"noteNumber":86,"velocity":85,"programNumber":44},{"time":41111.06999999995,"duration":333.3329999999987,"noteNumber":86,"velocity":85,"programNumber":44},{"time":41111.06999999995,"duration":333.3329999999987,"noteNumber":78,"velocity":85,"programNumber":44},{"time":41555.513999999945,"duration":333.3329999999987,"noteNumber":86,"velocity":85,"programNumber":44},{"time":41555.513999999945,"duration":333.3329999999987,"noteNumber":78,"velocity":85,"programNumber":44},{"time":41999.95799999994,"duration":333.3329999999987,"noteNumber":86,"velocity":85,"programNumber":44},{"time":41999.95799999994,"duration":333.3329999999987,"noteNumber":78,"velocity":85,"programNumber":44},{"time":42444.40199999994,"duration":222.22200000000157,"noteNumber":78,"velocity":85,"programNumber":44},{"time":42666.62399999994,"duration":111.11099999999715,"noteNumber":76,"velocity":85,"programNumber":44},{"time":42444.40199999994,"duration":333.3329999999987,"noteNumber":86,"velocity":85,"programNumber":44},{"time":42888.84599999993,"duration":333.3329999999987,"noteNumber":86,"velocity":85,"programNumber":44},{"time":42888.84599999993,"duration":333.3329999999987,"noteNumber":76,"velocity":85,"programNumber":44},{"time":43333.28999999993,"duration":333.3329999999987,"noteNumber":86,"velocity":85,"programNumber":44},{"time":43333.28999999993,"duration":333.3329999999987,"noteNumber":76,"velocity":85,"programNumber":44},{"time":43777.733999999924,"duration":333.3329999999987,"noteNumber":86,"velocity":85,"programNumber":44},{"time":43777.733999999924,"duration":333.3329999999987,"noteNumber":76,"velocity":85,"programNumber":44},{"time":44222.17799999992,"duration":222.22200000000157,"noteNumber":86,"velocity":85,"programNumber":44},{"time":44222.17799999992,"duration":222.22200000000157,"noteNumber":76,"velocity":85,"programNumber":44},{"time":44444.39999999992,"duration":166.66649999999936,"noteNumber":85,"velocity":92,"programNumber":44},{"time":44444.39999999992,"duration":166.66649999999936,"noteNumber":76,"velocity":92,"programNumber":44},{"time":44666.62199999992,"duration":166.66649999999936,"noteNumber":81,"velocity":85,"programNumber":44},{"time":44888.843999999925,"duration":166.66649999999936,"noteNumber":86,"velocity":85,"programNumber":44},{"time":45111.065999999926,"duration":166.66649999999936,"noteNumber":81,"velocity":85,"programNumber":44},{"time":45333.28799999993,"duration":166.66649999999936,"noteNumber":85,"velocity":85,"programNumber":44},{"time":45555.50999999993,"duration":166.66649999999936,"noteNumber":81,"velocity":85,"programNumber":44},{"time":45777.73199999993,"duration":166.66649999999936,"noteNumber":86,"velocity":85,"programNumber":44},{"time":45999.95399999993,"duration":166.66649999999936,"noteNumber":81,"velocity":85,"programNumber":44},{"time":46222.175999999934,"duration":166.66649999999936,"noteNumber":85,"velocity":94,"programNumber":44},{"time":46444.397999999936,"duration":166.66649999999936,"noteNumber":69,"velocity":85,"programNumber":44},{"time":46666.61999999994,"duration":166.66649999999936,"noteNumber":69,"velocity":85,"programNumber":44},{"time":46888.84199999994,"duration":166.66649999999936,"noteNumber":69,"velocity":85,"programNumber":44},{"time":47111.06399999994,"duration":444.44400000000314,"noteNumber":69,"velocity":85,"programNumber":44},{"time":47999.95199999994,"duration":666.6659999999902,"noteNumber":81,"velocity":55,"programNumber":44},{"time":48666.61799999993,"duration":74.07400000000052,"noteNumber":79,"velocity":55,"programNumber":44},{"time":48740.69199999993,"duration":74.07400000000052,"noteNumber":78,"velocity":55,"programNumber":44},{"time":48814.76599999993,"duration":74.07400000000052,"noteNumber":76,"velocity":55,"programNumber":44},{"time":48888.83999999993,"duration":222.22200000000157,"noteNumber":74,"velocity":55,"programNumber":44},{"time":49333.283999999934,"duration":222.22200000000157,"noteNumber":83,"velocity":55,"programNumber":44},{"time":49777.72799999994,"duration":222.22200000000157,"noteNumber":79,"velocity":55,"programNumber":44},{"time":50222.17199999994,"duration":222.22200000000157,"noteNumber":76,"velocity":55,"programNumber":44},{"time":50666.61599999994,"duration":222.22200000000157,"noteNumber":81,"velocity":55,"programNumber":44},{"time":51555.50399999994,"duration":666.6659999999974,"noteNumber":78,"velocity":55,"programNumber":44},{"time":52222.16999999994,"duration":74.07400000000052,"noteNumber":76,"velocity":55,"programNumber":44},{"time":52296.24399999994,"duration":74.07400000000052,"noteNumber":74,"velocity":55,"programNumber":44},{"time":52370.31799999994,"duration":74.07400000000052,"noteNumber":73,"velocity":55,"programNumber":44},{"time":52444.39199999994,"duration":222.22200000000157,"noteNumber":71,"velocity":55,"programNumber":44},{"time":52888.835999999945,"duration":222.22200000000157,"noteNumber":79,"velocity":55,"programNumber":44},{"time":53333.27999999995,"duration":888.887999999999,"noteNumber":78,"velocity":55,"programNumber":44},{"time":54222.16799999995,"duration":444.44400000000314,"noteNumber":76,"velocity":49,"programNumber":44},{"time":55333.27799999995,"duration":111.11099999999715,"noteNumber":81,"velocity":55,"programNumber":44},{"time":55555.49999999994,"duration":111.11099999999715,"noteNumber":81,"velocity":55,"programNumber":44},{"time":55777.721999999936,"duration":111.11099999999715,"noteNumber":81,"velocity":55,"programNumber":44},{"time":55999.94399999993,"duration":111.11099999999715,"noteNumber":81,"velocity":55,"programNumber":44},{"time":56222.165999999925,"duration":111.11099999999715,"noteNumber":81,"velocity":55,"programNumber":44},{"time":56444.38799999992,"duration":111.11099999999715,"noteNumber":81,"velocity":55,"programNumber":44},{"time":56666.60999999991,"duration":111.11099999999715,"noteNumber":81,"velocity":55,"programNumber":44},{"time":56888.83199999991,"duration":111.11099999999715,"noteNumber":81,"velocity":55,"programNumber":44},{"time":57111.0539999999,"duration":111.11099999999715,"noteNumber":81,"velocity":55,"programNumber":44},{"time":57333.275999999896,"duration":111.11099999999715,"noteNumber":81,"velocity":55,"programNumber":44},{"time":57555.49799999989,"duration":111.11099999999715,"noteNumber":81,"velocity":55,"programNumber":44},{"time":57777.719999999885,"duration":111.11099999999715,"noteNumber":81,"velocity":55,"programNumber":44},{"time":57999.94199999988,"duration":111.11099999999715,"noteNumber":81,"velocity":55,"programNumber":44},{"time":58222.16399999987,"duration":111.11099999999715,"noteNumber":83,"velocity":55,"programNumber":44},{"time":58444.38599999987,"duration":111.11099999999715,"noteNumber":85,"velocity":55,"programNumber":44},{"time":58666.60799999986,"duration":222.22200000000157,"noteNumber":85,"velocity":55,"programNumber":44},{"time":58888.82999999986,"duration":222.22200000000157,"noteNumber":86,"velocity":55,"programNumber":44},{"time":59333.27399999987,"duration":111.11099999999715,"noteNumber":83,"velocity":55,"programNumber":44},{"time":59555.49599999986,"duration":222.22200000000157,"noteNumber":83,"velocity":55,"programNumber":44},{"time":59777.71799999986,"duration":222.22200000000157,"noteNumber":81,"velocity":55,"programNumber":44},{"time":60222.161999999866,"duration":166.66649999999936,"noteNumber":73,"velocity":55,"programNumber":44},{"time":60444.38399999987,"duration":444.44400000000314,"noteNumber":74,"velocity":55,"programNumber":44},{"time":61111.04999999987,"duration":111.11099999999715,"noteNumber":81,"velocity":55,"programNumber":44},{"time":61333.271999999866,"duration":222.22200000000157,"noteNumber":86,"velocity":55,"programNumber":44},{"time":61555.49399999987,"duration":222.22200000000157,"noteNumber":85,"velocity":55,"programNumber":44},{"time":61777.71599999987,"duration":222.22200000000157,"noteNumber":83,"velocity":55,"programNumber":44},{"time":61999.93799999987,"duration":222.22200000000157,"noteNumber":81,"velocity":55,"programNumber":44},{"time":62222.15999999987,"duration":55.55550000000221,"noteNumber":83,"velocity":55,"programNumber":44},{"time":62277.715499999875,"duration":55.55550000000221,"noteNumber":85,"velocity":55,"programNumber":44},{"time":62333.27099999988,"duration":55.55550000000221,"noteNumber":83,"velocity":55,"programNumber":44},{"time":62388.82649999988,"duration":55.55550000000221,"noteNumber":85,"velocity":55,"programNumber":44},{"time":62444.38199999988,"duration":222.22200000000157,"noteNumber":81,"velocity":55,"programNumber":44},{"time":62888.825999999885,"duration":111.11099999999715,"noteNumber":81,"velocity":55,"programNumber":44},{"time":63111.04799999988,"duration":111.11099999999715,"noteNumber":81,"velocity":55,"programNumber":44},{"time":63333.26999999987,"duration":111.11099999999715,"noteNumber":81,"velocity":55,"programNumber":44},{"time":63555.49199999987,"duration":111.11099999999715,"noteNumber":81,"velocity":55,"programNumber":44},{"time":63777.71399999986,"duration":111.11099999999715,"noteNumber":81,"velocity":55,"programNumber":44},{"time":63999.935999999856,"duration":55.55550000000221,"noteNumber":83,"velocity":55,"programNumber":44},{"time":64055.49149999986,"duration":55.55550000000221,"noteNumber":85,"velocity":55,"programNumber":44},{"time":64111.04699999986,"duration":55.55550000000221,"noteNumber":83,"velocity":55,"programNumber":44},{"time":64166.60249999986,"duration":55.55550000000221,"noteNumber":85,"velocity":55,"programNumber":44},{"time":64222.157999999865,"duration":222.22200000000157,"noteNumber":81,"velocity":55,"programNumber":44},{"time":64666.60199999987,"duration":166.66649999999936,"noteNumber":81,"velocity":55,"programNumber":44},{"time":64888.82399999987,"duration":222.22200000000157,"noteNumber":86,"velocity":55,"programNumber":44},{"time":65111.04599999987,"duration":222.22200000000157,"noteNumber":85,"velocity":55,"programNumber":44},{"time":65333.26799999987,"duration":222.22200000000157,"noteNumber":83,"velocity":55,"programNumber":44},{"time":65555.48999999987,"duration":222.2219999999943,"noteNumber":81,"velocity":55,"programNumber":44},{"time":65777.71199999987,"duration":55.55550000000221,"noteNumber":83,"velocity":55,"programNumber":44},{"time":65833.26749999987,"duration":55.55550000000221,"noteNumber":85,"velocity":55,"programNumber":44},{"time":65888.82299999987,"duration":55.55550000000221,"noteNumber":83,"velocity":55,"programNumber":44},{"time":65944.37849999988,"duration":55.55550000000221,"noteNumber":85,"velocity":55,"programNumber":44},{"time":65999.93399999988,"duration":222.2219999999943,"noteNumber":81,"velocity":55,"programNumber":44},{"time":66444.37799999987,"duration":111.11100000000442,"noteNumber":81,"velocity":55,"programNumber":44},{"time":66666.59999999987,"duration":111.11100000000442,"noteNumber":81,"velocity":55,"programNumber":44},{"time":66888.82199999988,"duration":111.11100000000442,"noteNumber":81,"velocity":55,"programNumber":44},{"time":67111.04399999989,"duration":111.11100000000442,"noteNumber":81,"velocity":55,"programNumber":44},{"time":67333.2659999999,"duration":111.11100000000442,"noteNumber":81,"velocity":53,"programNumber":44},{"time":67555.48799999991,"duration":55.55550000000221,"noteNumber":83,"velocity":49,"programNumber":44},{"time":67611.04349999991,"duration":55.55550000000221,"noteNumber":85,"velocity":49,"programNumber":44},{"time":67666.59899999991,"duration":55.55550000000221,"noteNumber":83,"velocity":47,"programNumber":44},{"time":67722.15449999992,"duration":55.55550000000221,"noteNumber":85,"velocity":47,"programNumber":44},{"time":67777.70999999992,"duration":222.2219999999943,"noteNumber":81,"velocity":46,"programNumber":44},{"time":68444.37599999992,"duration":629.6290000000008,"noteNumber":83,"velocity":91,"programNumber":44},{"time":68444.37599999992,"duration":629.6290000000008,"noteNumber":71,"velocity":91,"programNumber":44},{"time":69111.04199999991,"duration":74.07399999999325,"noteNumber":81,"velocity":89,"programNumber":44},{"time":69185.1159999999,"duration":74.07399999999325,"noteNumber":79,"velocity":92,"programNumber":44},{"time":69259.1899999999,"duration":74.07399999999325,"noteNumber":78,"velocity":94,"programNumber":44},{"time":69333.2639999999,"duration":444.44400000000314,"noteNumber":79,"velocity":97,"programNumber":44},{"time":70222.1519999999,"duration":629.6290000000008,"noteNumber":69,"velocity":85,"programNumber":44},{"time":70222.1519999999,"duration":629.6290000000008,"noteNumber":81,"velocity":85,"programNumber":44},{"time":70888.8179999999,"duration":74.07399999999325,"noteNumber":79,"velocity":86,"programNumber":44},{"time":70962.89199999989,"duration":74.07399999999325,"noteNumber":78,"velocity":86,"programNumber":44},{"time":71036.96599999988,"duration":74.07399999999325,"noteNumber":76,"velocity":89,"programNumber":44},{"time":71111.03999999988,"duration":444.44400000000314,"noteNumber":78,"velocity":92,"programNumber":44},{"time":71999.92799999988,"duration":222.2219999999943,"noteNumber":83,"velocity":85,"programNumber":44},{"time":72222.14999999988,"duration":111.11100000000442,"noteNumber":85,"velocity":85,"programNumber":44},{"time":72333.26099999988,"duration":111.11100000000442,"noteNumber":86,"velocity":89,"programNumber":44},{"time":72444.37199999989,"duration":166.66650000000664,"noteNumber":85,"velocity":94,"programNumber":44},{"time":72666.5939999999,"duration":111.11100000000442,"noteNumber":83,"velocity":95,"programNumber":44},{"time":72888.8159999999,"duration":222.2219999999943,"noteNumber":83,"velocity":97,"programNumber":44},{"time":73111.0379999999,"duration":166.66650000000664,"noteNumber":81,"velocity":101,"programNumber":44},{"time":73333.25999999991,"duration":111.11100000000442,"noteNumber":78,"velocity":104,"programNumber":44},{"time":73555.48199999992,"duration":111.11100000000442,"noteNumber":81,"velocity":104,"programNumber":44},{"time":73777.70399999993,"duration":222.2219999999943,"noteNumber":81,"velocity":104,"programNumber":44},{"time":73999.92599999992,"duration":166.66650000000664,"noteNumber":79,"velocity":103,"programNumber":44},{"time":74222.14799999993,"duration":111.11100000000442,"noteNumber":78,"velocity":98,"programNumber":44},{"time":74444.36999999994,"duration":111.11100000000442,"noteNumber":76,"velocity":89,"programNumber":44},{"time":74666.59199999995,"duration":444.44400000000314,"noteNumber":74,"velocity":85,"programNumber":44},{"time":75333.25799999994,"duration":111.11100000000442,"noteNumber":81,"velocity":53,"programNumber":44},{"time":75555.47999999995,"duration":222.2219999999943,"noteNumber":86,"velocity":53,"programNumber":44},{"time":75777.70199999995,"duration":222.2219999999943,"noteNumber":85,"velocity":53,"programNumber":44},{"time":75999.92399999994,"duration":222.2219999999943,"noteNumber":83,"velocity":53,"programNumber":44},{"time":76222.14599999994,"duration":222.2219999999943,"noteNumber":81,"velocity":53,"programNumber":44},{"time":76444.36799999993,"duration":55.55550000000221,"noteNumber":83,"velocity":55,"programNumber":44},{"time":76499.92349999993,"duration":55.55550000000221,"noteNumber":85,"velocity":55,"programNumber":44},{"time":76555.47899999993,"duration":55.55550000000221,"noteNumber":83,"velocity":55,"programNumber":44},{"time":76611.03449999994,"duration":55.55550000000221,"noteNumber":85,"velocity":55,"programNumber":44},{"time":76666.58999999994,"duration":222.2219999999943,"noteNumber":81,"velocity":55,"programNumber":44},{"time":77111.03399999993,"duration":111.11100000000442,"noteNumber":81,"velocity":55,"programNumber":44},{"time":77333.25599999994,"duration":111.11100000000442,"noteNumber":81,"velocity":55,"programNumber":44},{"time":77555.47799999994,"duration":111.11100000000442,"noteNumber":81,"velocity":55,"programNumber":44},{"time":77777.69999999995,"duration":111.11100000000442,"noteNumber":81,"velocity":55,"programNumber":44},{"time":77999.92199999996,"duration":111.11100000000442,"noteNumber":81,"velocity":55,"programNumber":44},{"time":78222.14399999997,"duration":55.55550000000221,"noteNumber":83,"velocity":55,"programNumber":44},{"time":78277.69949999997,"duration":55.55550000000221,"noteNumber":85,"velocity":55,"programNumber":44},{"time":78333.25499999998,"duration":55.55550000000221,"noteNumber":83,"velocity":55,"programNumber":44},{"time":78388.81049999998,"duration":55.55550000000221,"noteNumber":85,"velocity":55,"programNumber":44},{"time":78444.36599999998,"duration":222.2219999999943,"noteNumber":81,"velocity":55,"programNumber":44},{"time":78888.80999999997,"duration":166.66650000000664,"noteNumber":81,"velocity":55,"programNumber":44},{"time":79111.03199999998,"duration":222.2219999999943,"noteNumber":86,"velocity":55,"programNumber":44},{"time":79333.25399999997,"duration":222.2219999999943,"noteNumber":85,"velocity":55,"programNumber":44},{"time":79555.47599999997,"duration":222.2219999999943,"noteNumber":83,"velocity":55,"programNumber":44},{"time":79777.69799999996,"duration":222.2219999999943,"noteNumber":81,"velocity":55,"programNumber":44},{"time":79999.91999999995,"duration":55.55550000000221,"noteNumber":83,"velocity":55,"programNumber":44},{"time":80055.47549999996,"duration":55.55550000000221,"noteNumber":85,"velocity":55,"programNumber":44},{"time":80111.03099999996,"duration":55.55550000000221,"noteNumber":83,"velocity":55,"programNumber":44},{"time":80166.58649999996,"duration":55.55550000000221,"noteNumber":85,"velocity":55,"programNumber":44},{"time":80222.14199999996,"duration":222.2219999999943,"noteNumber":81,"velocity":55,"programNumber":44},{"time":80666.58599999995,"duration":111.11100000000442,"noteNumber":81,"velocity":55,"programNumber":44},{"time":80888.80799999996,"duration":111.11100000000442,"noteNumber":81,"velocity":55,"programNumber":44},{"time":81111.02999999997,"duration":111.11100000000442,"noteNumber":81,"velocity":55,"programNumber":44},{"time":81333.25199999998,"duration":111.11100000000442,"noteNumber":81,"velocity":55,"programNumber":44},{"time":81555.47399999999,"duration":111.11100000000442,"noteNumber":81,"velocity":55,"programNumber":44},{"time":81777.696,"duration":55.55550000000221,"noteNumber":83,"velocity":59,"programNumber":44},{"time":81833.2515,"duration":55.55550000000221,"noteNumber":85,"velocity":59,"programNumber":44},{"time":81888.807,"duration":55.55550000000221,"noteNumber":83,"velocity":59,"programNumber":44},{"time":81944.3625,"duration":55.55550000000221,"noteNumber":85,"velocity":59,"programNumber":44},{"time":81999.918,"duration":222.2219999999943,"noteNumber":81,"velocity":59,"programNumber":44},{"time":82666.584,"duration":629.6290000000008,"noteNumber":83,"velocity":85,"programNumber":44},{"time":82666.584,"duration":629.6290000000008,"noteNumber":71,"velocity":85,"programNumber":44},{"time":83333.25,"duration":74.07399999999325,"noteNumber":81,"velocity":85,"programNumber":44},{"time":83407.324,"duration":74.07399999999325,"noteNumber":79,"velocity":85,"programNumber":44},{"time":83481.39799999999,"duration":74.07399999999325,"noteNumber":78,"velocity":85,"programNumber":44},{"time":83555.47199999998,"duration":444.44400000000314,"noteNumber":79,"velocity":85,"programNumber":44},{"time":84444.35999999999,"duration":629.6290000000008,"noteNumber":69,"velocity":85,"programNumber":44},{"time":84444.35999999999,"duration":629.6290000000008,"noteNumber":81,"velocity":85,"programNumber":44},{"time":85111.02599999998,"duration":74.07399999999325,"noteNumber":79,"velocity":85,"programNumber":44},{"time":85185.09999999998,"duration":74.07399999999325,"noteNumber":78,"velocity":85,"programNumber":44},{"time":85259.17399999997,"duration":74.07399999999325,"noteNumber":76,"velocity":85,"programNumber":44},{"time":85333.24799999996,"duration":444.44400000000314,"noteNumber":78,"velocity":85,"programNumber":44},{"time":86222.13599999997,"duration":222.2219999999943,"noteNumber":83,"velocity":80,"programNumber":44},{"time":86444.35799999996,"duration":111.11100000000442,"noteNumber":85,"velocity":82,"programNumber":44},{"time":86555.46899999997,"duration":111.11100000000442,"noteNumber":86,"velocity":83,"programNumber":44},{"time":86666.57999999997,"duration":166.66650000000664,"noteNumber":85,"velocity":83,"programNumber":44},{"time":86888.80199999998,"duration":111.11100000000442,"noteNumber":83,"velocity":85,"programNumber":44},{"time":87111.02399999999,"duration":222.2219999999943,"noteNumber":83,"velocity":86,"programNumber":44},{"time":87333.24599999998,"duration":166.66650000000664,"noteNumber":81,"velocity":88,"programNumber":44},{"time":87555.468,"duration":111.11100000000442,"noteNumber":78,"velocity":88,"programNumber":44},{"time":87777.69,"duration":111.11100000000442,"noteNumber":81,"velocity":88,"programNumber":44},{"time":87999.91200000001,"duration":222.2219999999943,"noteNumber":81,"velocity":88,"programNumber":44},{"time":88222.134,"duration":166.66650000000664,"noteNumber":79,"velocity":88,"programNumber":44},{"time":88444.35600000001,"duration":111.11100000000442,"noteNumber":78,"velocity":88,"programNumber":44},{"time":88666.57800000002,"duration":111.11100000000442,"noteNumber":76,"velocity":88,"programNumber":44},{"time":88888.80000000003,"duration":166.66650000000664,"noteNumber":74,"velocity":88,"programNumber":44},{"time":89111.02200000004,"duration":166.66650000000664,"noteNumber":69,"velocity":88,"programNumber":44},{"time":89333.24400000005,"duration":166.66650000000664,"noteNumber":71,"velocity":88,"programNumber":44},{"time":89555.46600000006,"duration":166.66650000000664,"noteNumber":73,"velocity":85,"programNumber":44},{"time":89777.68800000007,"duration":111.11100000000442,"noteNumber":74,"velocity":82,"programNumber":44},{"time":89999.91000000008,"duration":111.11100000000442,"noteNumber":74,"velocity":85,"programNumber":44},{"time":90222.13200000009,"duration":55.55550000000221,"noteNumber":76,"velocity":85,"programNumber":44},{"time":90277.68750000009,"duration":55.55550000000221,"noteNumber":78,"velocity":85,"programNumber":44},{"time":90333.24300000009,"duration":55.55550000000221,"noteNumber":76,"velocity":85,"programNumber":44},{"time":90388.79850000009,"duration":55.55550000000221,"noteNumber":78,"velocity":85,"programNumber":44},{"time":90444.3540000001,"duration":111.11100000000442,"noteNumber":74,"velocity":85,"programNumber":44},{"time":90555.4650000001,"duration":111.11100000000442,"noteNumber":76,"velocity":85,"programNumber":44},{"time":90666.5760000001,"duration":222.2219999999943,"noteNumber":78,"velocity":85,"programNumber":44},{"time":90888.7980000001,"duration":166.66650000000664,"noteNumber":73,"velocity":85,"programNumber":44},{"time":91111.0200000001,"duration":166.66650000000664,"noteNumber":74,"velocity":85,"programNumber":44},{"time":91333.24200000011,"duration":166.66650000000664,"noteNumber":76,"velocity":85,"programNumber":44},{"time":91555.46400000012,"duration":166.66650000000664,"noteNumber":78,"velocity":85,"programNumber":44},{"time":91777.68600000013,"duration":166.66650000000664,"noteNumber":78,"velocity":85,"programNumber":44},{"time":91999.90800000014,"duration":55.55550000000221,"noteNumber":79,"velocity":85,"programNumber":44},{"time":92055.46350000014,"duration":55.55550000000221,"noteNumber":81,"velocity":86,"programNumber":44},{"time":92111.01900000015,"duration":55.55550000000221,"noteNumber":79,"velocity":88,"programNumber":44},{"time":92166.57450000015,"duration":55.55550000000221,"noteNumber":81,"velocity":88,"programNumber":44},{"time":92222.13000000015,"duration":111.11100000000442,"noteNumber":78,"velocity":88,"programNumber":44},{"time":92333.24100000015,"duration":111.11100000000442,"noteNumber":79,"velocity":88,"programNumber":44},{"time":92444.35200000016,"duration":166.66650000000664,"noteNumber":81,"velocity":88,"programNumber":44},{"time":92666.57400000017,"duration":166.66650000000664,"noteNumber":81,"velocity":91,"programNumber":44},{"time":92888.79600000018,"duration":55.55550000000221,"noteNumber":82,"velocity":92,"programNumber":44},{"time":92944.35150000018,"duration":55.55550000000221,"noteNumber":83,"velocity":92,"programNumber":44},{"time":92999.90700000018,"duration":55.55550000000221,"noteNumber":82,"velocity":94,"programNumber":44},{"time":93055.46250000018,"duration":55.55550000000221,"noteNumber":83,"velocity":94,"programNumber":44},{"time":93111.01800000019,"duration":111.11100000000442,"noteNumber":80,"velocity":95,"programNumber":44},{"time":93222.12900000019,"duration":111.11100000000442,"noteNumber":82,"velocity":97,"programNumber":44},{"time":93333.2400000002,"duration":444.44400000000314,"noteNumber":83,"velocity":100,"programNumber":44},{"time":94222.1280000002,"duration":666.6659999999974,"noteNumber":71,"velocity":47,"programNumber":44},{"time":94888.7940000002,"duration":166.66650000000664,"noteNumber":76,"velocity":47,"programNumber":44},{"time":95111.0160000002,"duration":222.2219999999943,"noteNumber":74,"velocity":47,"programNumber":44},{"time":95333.2380000002,"duration":222.2219999999943,"noteNumber":73,"velocity":47,"programNumber":44},{"time":95555.4600000002,"duration":222.2219999999943,"noteNumber":71,"velocity":49,"programNumber":44},{"time":95777.68200000019,"duration":222.2219999999943,"noteNumber":69,"velocity":50,"programNumber":44},{"time":95999.90400000018,"duration":222.2219999999943,"noteNumber":74,"velocity":50,"programNumber":44},{"time":96444.34800000017,"duration":222.2219999999943,"noteNumber":78,"velocity":50,"programNumber":44},{"time":96888.79200000016,"duration":222.2219999999943,"noteNumber":74,"velocity":41,"programNumber":44},{"time":97777.68000000015,"duration":444.44400000000314,"noteNumber":71,"velocity":85,"programNumber":44},{"time":97777.68000000015,"duration":444.44400000000314,"noteNumber":79,"velocity":85,"programNumber":44},{"time":97777.68000000015,"duration":444.44400000000314,"noteNumber":62,"velocity":85,"programNumber":44},{"time":98444.34600000015,"duration":111.11100000000442,"noteNumber":74,"velocity":85,"programNumber":44},{"time":98666.56800000016,"duration":444.44400000000314,"noteNumber":79,"velocity":85,"programNumber":44},{"time":99333.23400000016,"duration":111.11100000000442,"noteNumber":74,"velocity":85,"programNumber":44},{"time":99555.45600000017,"duration":111.11100000000442,"noteNumber":79,"velocity":85,"programNumber":44},{"time":99777.67800000017,"duration":111.11100000000442,"noteNumber":74,"velocity":85,"programNumber":44},{"time":99999.90000000018,"duration":111.11100000000442,"noteNumber":79,"velocity":85,"programNumber":44},{"time":100222.12200000019,"duration":111.11100000000442,"noteNumber":83,"velocity":85,"programNumber":44},{"time":100444.3440000002,"duration":444.44400000000314,"noteNumber":86,"velocity":85,"programNumber":44},{"time":101333.23200000021,"duration":444.44400000000314,"noteNumber":84,"velocity":85,"programNumber":44},{"time":101999.8980000002,"duration":111.11100000000442,"noteNumber":81,"velocity":76,"programNumber":44},{"time":102222.12000000021,"duration":444.44400000000314,"noteNumber":84,"velocity":85,"programNumber":44},{"time":102888.78600000021,"duration":111.11100000000442,"noteNumber":81,"velocity":76,"programNumber":44},{"time":103111.00800000022,"duration":111.11100000000442,"noteNumber":84,"velocity":85,"programNumber":44},{"time":103333.23000000023,"duration":111.11100000000442,"noteNumber":81,"velocity":74,"programNumber":44},{"time":103555.45200000024,"duration":111.11100000000442,"noteNumber":78,"velocity":85,"programNumber":44},{"time":103777.67400000025,"duration":111.11100000000442,"noteNumber":81,"velocity":71,"programNumber":44},{"time":103999.89600000026,"duration":444.44400000000314,"noteNumber":74,"velocity":85,"programNumber":44},{"time":104888.78400000026,"duration":222.2219999999943,"noteNumber":71,"velocity":85,"programNumber":44},{"time":104888.78400000026,"duration":222.2219999999943,"noteNumber":79,"velocity":85,"programNumber":44},{"time":104888.78400000026,"duration":222.2219999999943,"noteNumber":62,"velocity":85,"programNumber":44},{"time":105333.22800000025,"duration":666.6659999999974,"noteNumber":79,"velocity":85,"programNumber":44},{"time":105999.89400000025,"duration":222.2219999999943,"noteNumber":83,"velocity":85,"programNumber":44},{"time":106222.11600000024,"duration":111.11100000000442,"noteNumber":81,"velocity":85,"programNumber":44},{"time":106444.33800000025,"duration":111.11100000000442,"noteNumber":79,"velocity":85,"programNumber":44},{"time":106666.56000000026,"duration":55.55550000000221,"noteNumber":79,"velocity":85,"programNumber":44},{"time":106722.11550000026,"duration":55.55550000000221,"noteNumber":81,"velocity":85,"programNumber":44},{"time":106777.67100000026,"duration":55.55550000000221,"noteNumber":79,"velocity":85,"programNumber":44},{"time":106833.22650000027,"duration":55.55550000000221,"noteNumber":81,"velocity":85,"programNumber":44},{"time":106888.78200000027,"duration":185.18499999999767,"noteNumber":78,"velocity":85,"programNumber":44},{"time":107111.00400000026,"duration":666.6659999999974,"noteNumber":78,"velocity":85,"programNumber":44},{"time":107777.67000000026,"duration":222.2219999999943,"noteNumber":81,"velocity":85,"programNumber":44},{"time":107999.89200000025,"duration":111.11100000000442,"noteNumber":84,"velocity":85,"programNumber":44},{"time":108222.11400000026,"duration":111.11100000000442,"noteNumber":78,"velocity":85,"programNumber":44},{"time":108444.33600000027,"duration":222.2219999999943,"noteNumber":81,"velocity":85,"programNumber":44},{"time":108666.55800000027,"duration":111.11100000000442,"noteNumber":79,"velocity":85,"programNumber":44},{"time":108888.78000000028,"duration":666.6659999999974,"noteNumber":79,"velocity":85,"programNumber":44},{"time":109555.44600000027,"duration":222.2219999999943,"noteNumber":83,"velocity":85,"programNumber":44},{"time":109777.66800000027,"duration":111.11100000000442,"noteNumber":81,"velocity":85,"programNumber":44},{"time":109999.89000000028,"duration":111.11100000000442,"noteNumber":79,"velocity":85,"programNumber":44},{"time":110222.11200000028,"duration":55.55550000000221,"noteNumber":79,"velocity":85,"programNumber":44},{"time":110277.66750000029,"duration":55.55550000000221,"noteNumber":81,"velocity":85,"programNumber":44},{"time":110333.22300000029,"duration":55.55550000000221,"noteNumber":79,"velocity":85,"programNumber":44},{"time":110388.77850000029,"duration":55.55550000000221,"noteNumber":81,"velocity":85,"programNumber":44},{"time":110444.3340000003,"duration":185.18499999999767,"noteNumber":78,"velocity":85,"programNumber":44},{"time":110666.55600000029,"duration":666.6659999999974,"noteNumber":78,"velocity":85,"programNumber":44},{"time":111333.22200000029,"duration":222.2219999999943,"noteNumber":81,"velocity":85,"programNumber":44},{"time":111555.44400000028,"duration":111.11100000000442,"noteNumber":84,"velocity":85,"programNumber":44},{"time":111777.66600000029,"duration":111.11100000000442,"noteNumber":78,"velocity":85,"programNumber":44},{"time":111999.8880000003,"duration":111.11100000000442,"noteNumber":79,"velocity":85,"programNumber":44},{"time":112222.1100000003,"duration":111.11100000000442,"noteNumber":79,"velocity":85,"programNumber":44},{"time":112444.33200000032,"duration":111.11100000000442,"noteNumber":79,"velocity":85,"programNumber":44},{"time":112555.44300000032,"duration":111.11100000000442,"noteNumber":78,"velocity":85,"programNumber":44},{"time":112666.55400000032,"duration":111.11100000000442,"noteNumber":76,"velocity":85,"programNumber":44},{"time":112777.66500000033,"duration":111.11100000000442,"noteNumber":78,"velocity":85,"programNumber":44},{"time":112888.77600000033,"duration":111.11100000000442,"noteNumber":79,"velocity":85,"programNumber":44},{"time":113110.99800000034,"duration":111.11100000000442,"noteNumber":79,"velocity":85,"programNumber":44},{"time":113333.22000000035,"duration":111.11100000000442,"noteNumber":83,"velocity":85,"programNumber":44},{"time":113444.33100000035,"duration":111.11100000000442,"noteNumber":81,"velocity":85,"programNumber":44},{"time":113555.44200000036,"duration":111.11100000000442,"noteNumber":79,"velocity":85,"programNumber":44},{"time":113666.55300000036,"duration":111.11100000000442,"noteNumber":81,"velocity":85,"programNumber":44},{"time":113777.66400000037,"duration":111.11100000000442,"noteNumber":83,"velocity":85,"programNumber":44},{"time":113999.88600000038,"duration":111.11100000000442,"noteNumber":83,"velocity":85,"programNumber":44},{"time":114222.10800000039,"duration":111.11100000000442,"noteNumber":86,"velocity":85,"programNumber":44},{"time":114333.21900000039,"duration":111.11100000000442,"noteNumber":84,"velocity":85,"programNumber":44},{"time":114444.3300000004,"duration":111.11100000000442,"noteNumber":83,"velocity":85,"programNumber":44},{"time":114555.4410000004,"duration":111.11100000000442,"noteNumber":84,"velocity":85,"programNumber":44},{"time":114666.5520000004,"duration":444.44400000000314,"noteNumber":86,"velocity":85,"programNumber":44},{"time":115555.44000000041,"duration":888.8880000000063,"noteNumber":74,"velocity":52,"programNumber":44},{"time":116444.32800000042,"duration":888.8880000000063,"noteNumber":76,"velocity":40,"programNumber":44},{"time":117333.21600000042,"duration":111.11100000000442,"noteNumber":74,"velocity":44,"programNumber":44},{"time":117444.32700000043,"duration":296.2960000000021,"noteNumber":72,"velocity":46,"programNumber":44},{"time":117777.66000000043,"duration":444.44400000000314,"noteNumber":72,"velocity":46,"programNumber":44},{"time":118222.10400000043,"duration":111.11100000000442,"noteNumber":72,"velocity":47,"programNumber":44},{"time":118333.21500000043,"duration":296.2960000000021,"noteNumber":71,"velocity":47,"programNumber":44},{"time":118666.54800000043,"duration":444.44400000000314,"noteNumber":71,"velocity":47,"programNumber":44},{"time":119110.99200000043,"duration":111.11100000000442,"noteNumber":71,"velocity":47,"programNumber":44},{"time":119222.10300000044,"duration":296.2960000000021,"noteNumber":69,"velocity":47,"programNumber":44},{"time":119555.43600000044,"duration":444.44400000000314,"noteNumber":69,"velocity":47,"programNumber":44},{"time":119999.88000000044,"duration":222.2219999999943,"noteNumber":67,"velocity":47,"programNumber":44},{"time":120222.10200000044,"duration":111.11100000000442,"noteNumber":66,"velocity":47,"programNumber":44},{"time":120444.32400000044,"duration":111.11100000000442,"noteNumber":64,"velocity":47,"programNumber":44},{"time":120666.54600000045,"duration":111.11100000000442,"noteNumber":66,"velocity":47,"programNumber":44},{"time":120888.76800000046,"duration":222.2219999999943,"noteNumber":67,"velocity":47,"programNumber":44},{"time":121333.21200000045,"duration":222.2219999999943,"noteNumber":69,"velocity":47,"programNumber":44},{"time":121777.65600000044,"duration":222.2219999999943,"noteNumber":71,"velocity":47,"programNumber":44},{"time":122666.54400000043,"duration":888.8880000000063,"noteNumber":74,"velocity":54,"programNumber":44},{"time":123555.43200000044,"duration":888.8880000000063,"noteNumber":76,"velocity":59,"programNumber":44},{"time":124444.32000000044,"duration":222.2219999999943,"noteNumber":74,"velocity":47,"programNumber":44},{"time":124666.54200000044,"duration":111.11100000000442,"noteNumber":72,"velocity":47,"programNumber":44},{"time":124888.76400000045,"duration":111.11100000000442,"noteNumber":72,"velocity":47,"programNumber":44},{"time":125110.98600000046,"duration":111.11100000000442,"noteNumber":72,"velocity":47,"programNumber":44},{"time":125333.20800000046,"duration":222.2219999999943,"noteNumber":72,"velocity":47,"programNumber":44},{"time":125555.43000000046,"duration":111.11100000000442,"noteNumber":71,"velocity":47,"programNumber":44},{"time":125777.65200000047,"duration":111.11100000000442,"noteNumber":71,"velocity":47,"programNumber":44},{"time":125999.87400000048,"duration":111.11100000000442,"noteNumber":71,"velocity":47,"programNumber":44},{"time":126222.09600000049,"duration":222.2219999999943,"noteNumber":71,"velocity":47,"programNumber":44},{"time":126444.31800000048,"duration":111.11100000000442,"noteNumber":69,"velocity":47,"programNumber":44},{"time":126666.54000000049,"duration":166.66650000000664,"noteNumber":69,"velocity":47,"programNumber":44},{"time":126888.7620000005,"duration":166.66650000000664,"noteNumber":69,"velocity":47,"programNumber":44},{"time":127110.9840000005,"duration":222.2219999999943,"noteNumber":67,"velocity":47,"programNumber":44},{"time":127333.2060000005,"duration":222.2219999999943,"noteNumber":66,"velocity":47,"programNumber":44},{"time":127555.4280000005,"duration":222.2219999999943,"noteNumber":64,"velocity":47,"programNumber":44},{"time":127777.65000000049,"duration":222.2219999999943,"noteNumber":66,"velocity":47,"programNumber":44},{"time":127999.87200000048,"duration":1111.1100000000006,"noteNumber":67,"velocity":95,"programNumber":44},{"time":127999.87200000048,"duration":1111.1100000000006,"noteNumber":55,"velocity":95,"programNumber":44},{"time":129110.98200000048,"duration":55.55550000000221,"noteNumber":67,"velocity":61,"programNumber":44},{"time":129166.53750000049,"duration":55.55550000000221,"noteNumber":69,"velocity":61,"programNumber":44},{"time":129222.09300000049,"duration":55.55550000000221,"noteNumber":66,"velocity":61,"programNumber":44},{"time":129277.64850000049,"duration":55.55550000000221,"noteNumber":67,"velocity":61,"programNumber":44},{"time":129333.20400000049,"duration":222.2219999999943,"noteNumber":69,"velocity":61,"programNumber":44},{"time":129555.42600000049,"duration":222.2219999999943,"noteNumber":66,"velocity":61,"programNumber":44},{"time":129777.64800000048,"duration":1111.1100000000006,"noteNumber":71,"velocity":85,"programNumber":44},{"time":130888.75800000048,"duration":55.55550000000221,"noteNumber":71,"velocity":61,"programNumber":44},{"time":130944.31350000048,"duration":55.55550000000221,"noteNumber":72,"velocity":61,"programNumber":44},{"time":130999.86900000049,"duration":55.55550000000221,"noteNumber":69,"velocity":61,"programNumber":44},{"time":131055.42450000049,"duration":55.55549999998766,"noteNumber":71,"velocity":61,"programNumber":44},{"time":131110.98000000048,"duration":222.22200000000885,"noteNumber":72,"velocity":61,"programNumber":44},{"time":131333.20200000048,"duration":222.22200000000885,"noteNumber":69,"velocity":61,"programNumber":44},{"time":131555.4240000005,"duration":74.07399999999325,"noteNumber":74,"velocity":46,"programNumber":44},{"time":131666.5350000005,"duration":74.07399999999325,"noteNumber":74,"velocity":46,"programNumber":44},{"time":131777.6460000005,"duration":74.07399999999325,"noteNumber":74,"velocity":47,"programNumber":44},{"time":131888.7570000005,"duration":74.07399999999325,"noteNumber":74,"velocity":47,"programNumber":44},{"time":131999.8680000005,"duration":74.07399999999325,"noteNumber":74,"velocity":49,"programNumber":44},{"time":132110.97900000052,"duration":74.07399999999325,"noteNumber":74,"velocity":50,"programNumber":44},{"time":132222.09000000052,"duration":74.07399999999325,"noteNumber":74,"velocity":50,"programNumber":44},{"time":132333.20100000052,"duration":74.07399999999325,"noteNumber":74,"velocity":52,"programNumber":44},{"time":132444.31200000053,"duration":74.07399999999325,"noteNumber":76,"velocity":53,"programNumber":44},{"time":132555.42300000053,"duration":74.07399999999325,"noteNumber":76,"velocity":53,"programNumber":44},{"time":132666.53400000054,"duration":74.07399999999325,"noteNumber":76,"velocity":55,"programNumber":44},{"time":132777.64500000054,"duration":74.07399999999325,"noteNumber":76,"velocity":56,"programNumber":44},{"time":132888.75600000055,"duration":74.07399999999325,"noteNumber":78,"velocity":56,"programNumber":44},{"time":132999.86700000055,"duration":74.07399999999325,"noteNumber":78,"velocity":58,"programNumber":44},{"time":133110.97800000056,"duration":74.07399999999325,"noteNumber":78,"velocity":58,"programNumber":44},{"time":133222.08900000056,"duration":74.07399999999325,"noteNumber":78,"velocity":59,"programNumber":44},{"time":133333.20000000056,"duration":74.07399999999325,"noteNumber":79,"velocity":61,"programNumber":44},{"time":133444.31100000057,"duration":74.07399999999325,"noteNumber":79,"velocity":61,"programNumber":44},{"time":133555.42200000057,"duration":74.07399999999325,"noteNumber":79,"velocity":62,"programNumber":44},{"time":133666.53300000058,"duration":74.07399999999325,"noteNumber":79,"velocity":64,"programNumber":44},{"time":133777.64400000058,"duration":74.07399999999325,"noteNumber":81,"velocity":64,"programNumber":44},{"time":133888.7550000006,"duration":74.07399999999325,"noteNumber":81,"velocity":65,"programNumber":44},{"time":133999.8660000006,"duration":74.07399999999325,"noteNumber":81,"velocity":67,"programNumber":44},{"time":134110.9770000006,"duration":74.07399999999325,"noteNumber":81,"velocity":67,"programNumber":44},{"time":134222.0880000006,"duration":74.07399999999325,"noteNumber":83,"velocity":68,"programNumber":44},{"time":134333.1990000006,"duration":74.07399999999325,"noteNumber":83,"velocity":68,"programNumber":44},{"time":134444.3100000006,"duration":74.07399999999325,"noteNumber":83,"velocity":70,"programNumber":44},{"time":134555.4210000006,"duration":74.07399999999325,"noteNumber":83,"velocity":71,"programNumber":44},{"time":134666.53200000062,"duration":74.07399999999325,"noteNumber":85,"velocity":71,"programNumber":44},{"time":134777.64300000062,"duration":74.07399999999325,"noteNumber":85,"velocity":73,"programNumber":44},{"time":134888.75400000063,"duration":74.07399999999325,"noteNumber":85,"velocity":74,"programNumber":44},{"time":134999.86500000063,"duration":74.07399999999325,"noteNumber":85,"velocity":74,"programNumber":44},{"time":135110.97600000064,"duration":666.6659999999974,"noteNumber":86,"velocity":92,"programNumber":44},{"time":135777.64200000063,"duration":222.22200000000885,"noteNumber":81,"velocity":85,"programNumber":44},{"time":135999.86400000064,"duration":333.33300000001327,"noteNumber":85,"velocity":85,"programNumber":44},{"time":136333.19700000065,"duration":111.11100000000442,"noteNumber":81,"velocity":85,"programNumber":44},{"time":136444.30800000066,"duration":333.33300000001327,"noteNumber":85,"velocity":85,"programNumber":44},{"time":136777.64100000067,"duration":111.11100000000442,"noteNumber":81,"velocity":85,"programNumber":44},{"time":136888.75200000068,"duration":666.6659999999974,"noteNumber":86,"velocity":98,"programNumber":44},{"time":137555.41800000067,"duration":222.22200000000885,"noteNumber":81,"velocity":85,"programNumber":44},{"time":137777.64000000068,"duration":333.33300000001327,"noteNumber":85,"velocity":85,"programNumber":44},{"time":138110.9730000007,"duration":111.11100000000442,"noteNumber":81,"velocity":85,"programNumber":44},{"time":138222.0840000007,"duration":333.33300000001327,"noteNumber":85,"velocity":85,"programNumber":44},{"time":138555.4170000007,"duration":111.11100000000442,"noteNumber":81,"velocity":85,"programNumber":44},{"time":138666.52800000072,"duration":111.11100000000442,"noteNumber":86,"velocity":85,"programNumber":44},{"time":138888.75000000073,"duration":333.33300000001327,"noteNumber":86,"velocity":98,"programNumber":44},{"time":138888.75000000073,"duration":333.33300000001327,"noteNumber":78,"velocity":98,"programNumber":44},{"time":139333.19400000075,"duration":333.33300000001327,"noteNumber":86,"velocity":85,"programNumber":44},{"time":139333.19400000075,"duration":333.33300000001327,"noteNumber":78,"velocity":85,"programNumber":44},{"time":139777.63800000076,"duration":333.33300000001327,"noteNumber":86,"velocity":85,"programNumber":44},{"time":139777.63800000076,"duration":333.33300000001327,"noteNumber":78,"velocity":85,"programNumber":44},{"time":140222.08200000078,"duration":222.22200000000885,"noteNumber":78,"velocity":85,"programNumber":44},{"time":140444.3040000008,"duration":111.11100000000442,"noteNumber":76,"velocity":85,"programNumber":44},{"time":140222.08200000078,"duration":333.33300000001327,"noteNumber":86,"velocity":85,"programNumber":44},{"time":140666.5260000008,"duration":333.33300000001327,"noteNumber":86,"velocity":85,"programNumber":44},{"time":140666.5260000008,"duration":333.33300000001327,"noteNumber":76,"velocity":85,"programNumber":44},{"time":141110.97000000082,"duration":333.33300000001327,"noteNumber":86,"velocity":85,"programNumber":44},{"time":141110.97000000082,"duration":333.33300000001327,"noteNumber":76,"velocity":85,"programNumber":44},{"time":141555.41400000083,"duration":333.33300000001327,"noteNumber":86,"velocity":85,"programNumber":44},{"time":141555.41400000083,"duration":333.33300000001327,"noteNumber":76,"velocity":85,"programNumber":44},{"time":141999.85800000085,"duration":222.22200000000885,"noteNumber":86,"velocity":85,"programNumber":44},{"time":141999.85800000085,"duration":222.22200000000885,"noteNumber":76,"velocity":85,"programNumber":44},{"time":142222.08000000086,"duration":166.66649999999208,"noteNumber":85,"velocity":97,"programNumber":44},{"time":142222.08000000086,"duration":166.66649999999208,"noteNumber":76,"velocity":97,"programNumber":44},{"time":142444.30200000084,"duration":166.66649999999208,"noteNumber":81,"velocity":85,"programNumber":44},{"time":142666.52400000082,"duration":166.66649999999208,"noteNumber":86,"velocity":85,"programNumber":44},{"time":142888.7460000008,"duration":166.66649999999208,"noteNumber":81,"velocity":85,"programNumber":44},{"time":143110.96800000078,"duration":166.66649999999208,"noteNumber":85,"velocity":85,"programNumber":44},{"time":143333.19000000076,"duration":166.66649999999208,"noteNumber":81,"velocity":85,"programNumber":44},{"time":143555.41200000074,"duration":166.66649999999208,"noteNumber":86,"velocity":85,"programNumber":44},{"time":143777.63400000072,"duration":166.66649999999208,"noteNumber":81,"velocity":85,"programNumber":44},{"time":143999.8560000007,"duration":166.66649999999208,"noteNumber":85,"velocity":97,"programNumber":44},{"time":144222.07800000068,"duration":166.66649999999208,"noteNumber":69,"velocity":85,"programNumber":44},{"time":144444.30000000066,"duration":166.66649999999208,"noteNumber":69,"velocity":85,"programNumber":44},{"time":144666.52200000064,"duration":166.66649999999208,"noteNumber":69,"velocity":85,"programNumber":44},{"time":144888.74400000062,"duration":444.4439999999886,"noteNumber":69,"velocity":85,"programNumber":44},{"time":145777.6320000006,"duration":666.6659999999974,"noteNumber":81,"velocity":55,"programNumber":44},{"time":146444.2980000006,"duration":74.07399999999325,"noteNumber":79,"velocity":55,"programNumber":44},{"time":146518.37200000059,"duration":74.07399999999325,"noteNumber":78,"velocity":55,"programNumber":44},{"time":146592.44600000058,"duration":74.07399999999325,"noteNumber":76,"velocity":55,"programNumber":44},{"time":146666.52000000057,"duration":222.22200000000885,"noteNumber":74,"velocity":55,"programNumber":44},{"time":147110.9640000006,"duration":222.22200000000885,"noteNumber":83,"velocity":55,"programNumber":44},{"time":147555.4080000006,"duration":222.22200000000885,"noteNumber":79,"velocity":55,"programNumber":44},{"time":147999.85200000062,"duration":222.22200000000885,"noteNumber":76,"velocity":55,"programNumber":44},{"time":148444.29600000064,"duration":222.22200000000885,"noteNumber":81,"velocity":55,"programNumber":44},{"time":149333.18400000065,"duration":666.6659999999974,"noteNumber":78,"velocity":55,"programNumber":44},{"time":149999.85000000065,"duration":74.07399999999325,"noteNumber":76,"velocity":55,"programNumber":44},{"time":150073.92400000064,"duration":74.07399999999325,"noteNumber":74,"velocity":55,"programNumber":44},{"time":150147.99800000063,"duration":74.07399999999325,"noteNumber":73,"velocity":55,"programNumber":44},{"time":150222.07200000063,"duration":222.22200000000885,"noteNumber":71,"velocity":55,"programNumber":44},{"time":150666.51600000064,"duration":222.22200000000885,"noteNumber":79,"velocity":55,"programNumber":44},{"time":151110.96000000066,"duration":888.8880000000063,"noteNumber":78,"velocity":55,"programNumber":44},{"time":151999.84800000067,"duration":444.4439999999886,"noteNumber":76,"velocity":43,"programNumber":44},{"time":153110.95800000065,"duration":111.11100000000442,"noteNumber":81,"velocity":55,"programNumber":44},{"time":153333.18000000066,"duration":111.11100000000442,"noteNumber":81,"velocity":55,"programNumber":44},{"time":153555.40200000067,"duration":111.11100000000442,"noteNumber":81,"velocity":55,"programNumber":44},{"time":153777.62400000068,"duration":111.11100000000442,"noteNumber":81,"velocity":55,"programNumber":44},{"time":153999.8460000007,"duration":111.11100000000442,"noteNumber":81,"velocity":55,"programNumber":44},{"time":154222.0680000007,"duration":111.11100000000442,"noteNumber":81,"velocity":55,"programNumber":44},{"time":154444.2900000007,"duration":111.11100000000442,"noteNumber":81,"velocity":55,"programNumber":44},{"time":154666.51200000072,"duration":111.11100000000442,"noteNumber":81,"velocity":55,"programNumber":44},{"time":154888.73400000072,"duration":111.11100000000442,"noteNumber":81,"velocity":55,"programNumber":44},{"time":155110.95600000073,"duration":111.11100000000442,"noteNumber":81,"velocity":55,"programNumber":44},{"time":155333.17800000074,"duration":111.11100000000442,"noteNumber":81,"velocity":55,"programNumber":44},{"time":155555.40000000075,"duration":111.11100000000442,"noteNumber":81,"velocity":55,"programNumber":44},{"time":155777.62200000076,"duration":111.11100000000442,"noteNumber":81,"velocity":55,"programNumber":44},{"time":155999.84400000077,"duration":111.11100000000442,"noteNumber":83,"velocity":55,"programNumber":44},{"time":156222.06600000078,"duration":111.11100000000442,"noteNumber":85,"velocity":55,"programNumber":44},{"time":156444.2880000008,"duration":222.22200000000885,"noteNumber":85,"velocity":55,"programNumber":44},{"time":156666.5100000008,"duration":222.22200000000885,"noteNumber":86,"velocity":55,"programNumber":44},{"time":157110.9540000008,"duration":111.11100000000442,"noteNumber":83,"velocity":55,"programNumber":44},{"time":157333.17600000082,"duration":222.22200000000885,"noteNumber":83,"velocity":55,"programNumber":44},{"time":157555.39800000083,"duration":222.22200000000885,"noteNumber":81,"velocity":55,"programNumber":44},{"time":157999.84200000085,"duration":166.66649999999208,"noteNumber":73,"velocity":55,"programNumber":44},{"time":158222.06400000083,"duration":444.4439999999886,"noteNumber":74,"velocity":55,"programNumber":44},{"time":158888.73000000083,"duration":111.11100000000442,"noteNumber":81,"velocity":55,"programNumber":44},{"time":159110.95200000083,"duration":222.22200000000885,"noteNumber":86,"velocity":55,"programNumber":44},{"time":159333.17400000084,"duration":222.22200000000885,"noteNumber":85,"velocity":55,"programNumber":44},{"time":159555.39600000085,"duration":222.22200000000885,"noteNumber":83,"velocity":55,"programNumber":44},{"time":159777.61800000086,"duration":222.22200000000885,"noteNumber":81,"velocity":55,"programNumber":44},{"time":159999.84000000087,"duration":55.55549999998766,"noteNumber":83,"velocity":55,"programNumber":44},{"time":160055.39550000086,"duration":55.55549999998766,"noteNumber":85,"velocity":55,"programNumber":44},{"time":160110.95100000084,"duration":55.55549999998766,"noteNumber":83,"velocity":55,"programNumber":44},{"time":160166.50650000083,"duration":55.55549999998766,"noteNumber":85,"velocity":55,"programNumber":44},{"time":160222.06200000082,"duration":222.22200000000885,"noteNumber":81,"velocity":55,"programNumber":44},{"time":160666.50600000084,"duration":111.11100000000442,"noteNumber":81,"velocity":55,"programNumber":44},{"time":160888.72800000085,"duration":111.11100000000442,"noteNumber":81,"velocity":55,"programNumber":44},{"time":161110.95000000086,"duration":111.11100000000442,"noteNumber":81,"velocity":55,"programNumber":44},{"time":161333.17200000086,"duration":111.11100000000442,"noteNumber":81,"velocity":55,"programNumber":44},{"time":161555.39400000087,"duration":111.11100000000442,"noteNumber":81,"velocity":55,"programNumber":44},{"time":161777.61600000088,"duration":55.55549999998766,"noteNumber":83,"velocity":55,"programNumber":44},{"time":161833.17150000087,"duration":55.55549999998766,"noteNumber":85,"velocity":55,"programNumber":44},{"time":161888.72700000086,"duration":55.55549999998766,"noteNumber":83,"velocity":55,"programNumber":44},{"time":161944.28250000085,"duration":55.55549999998766,"noteNumber":85,"velocity":55,"programNumber":44},{"time":161999.83800000083,"duration":222.22200000000885,"noteNumber":81,"velocity":55,"programNumber":44},{"time":162444.28200000085,"duration":166.66649999999208,"noteNumber":81,"velocity":55,"programNumber":44},{"time":162666.50400000083,"duration":222.22200000000885,"noteNumber":86,"velocity":55,"programNumber":44},{"time":162888.72600000084,"duration":222.22200000000885,"noteNumber":85,"velocity":55,"programNumber":44},{"time":163110.94800000085,"duration":222.22200000000885,"noteNumber":83,"velocity":55,"programNumber":44},{"time":163333.17000000086,"duration":222.22200000000885,"noteNumber":81,"velocity":55,"programNumber":44},{"time":163555.39200000087,"duration":55.55549999998766,"noteNumber":83,"velocity":55,"programNumber":44},{"time":163610.94750000085,"duration":55.55549999998766,"noteNumber":85,"velocity":55,"programNumber":44},{"time":163666.50300000084,"duration":55.55549999998766,"noteNumber":83,"velocity":55,"programNumber":44},{"time":163722.05850000083,"duration":55.55549999998766,"noteNumber":85,"velocity":55,"programNumber":44},{"time":163777.61400000082,"duration":222.22200000000885,"noteNumber":81,"velocity":55,"programNumber":44},{"time":164222.05800000083,"duration":111.11100000000442,"noteNumber":81,"velocity":55,"programNumber":44},{"time":164444.28000000084,"duration":111.11100000000442,"noteNumber":81,"velocity":55,"programNumber":44},{"time":164666.50200000085,"duration":111.11100000000442,"noteNumber":81,"velocity":55,"programNumber":44},{"time":164888.72400000086,"duration":111.11100000000442,"noteNumber":81,"velocity":55,"programNumber":44},{"time":165110.94600000087,"duration":111.11100000000442,"noteNumber":81,"velocity":55,"programNumber":44},{"time":165333.16800000088,"duration":55.55549999998766,"noteNumber":83,"velocity":55,"programNumber":44},{"time":165388.72350000087,"duration":55.55549999998766,"noteNumber":85,"velocity":55,"programNumber":44},{"time":165444.27900000085,"duration":55.55549999998766,"noteNumber":83,"velocity":55,"programNumber":44},{"time":165499.83450000084,"duration":55.55549999998766,"noteNumber":85,"velocity":55,"programNumber":44},{"time":165555.39000000083,"duration":222.22200000000885,"noteNumber":81,"velocity":55,"programNumber":44},{"time":166222.05600000083,"duration":629.6289999999863,"noteNumber":83,"velocity":94,"programNumber":44},{"time":166222.05600000083,"duration":629.6289999999863,"noteNumber":71,"velocity":94,"programNumber":44},{"time":166888.72200000082,"duration":74.07399999999325,"noteNumber":81,"velocity":83,"programNumber":44},{"time":166962.79600000082,"duration":74.07399999999325,"noteNumber":79,"velocity":83,"programNumber":44},{"time":167036.8700000008,"duration":74.07399999999325,"noteNumber":78,"velocity":83,"programNumber":44},{"time":167110.9440000008,"duration":444.4439999999886,"noteNumber":79,"velocity":83,"programNumber":44},{"time":167999.83200000078,"duration":629.6289999999863,"noteNumber":69,"velocity":85,"programNumber":44},{"time":167999.83200000078,"duration":629.6289999999863,"noteNumber":81,"velocity":85,"programNumber":44},{"time":168666.49800000078,"duration":74.07399999999325,"noteNumber":79,"velocity":85,"programNumber":44},{"time":168740.57200000077,"duration":74.07399999999325,"noteNumber":78,"velocity":85,"programNumber":44},{"time":168814.64600000076,"duration":74.07399999999325,"noteNumber":76,"velocity":85,"programNumber":44},{"time":168888.72000000076,"duration":444.4439999999886,"noteNumber":78,"velocity":85,"programNumber":44},{"time":169777.60800000074,"duration":222.22200000000885,"noteNumber":83,"velocity":79,"programNumber":44},{"time":169999.83000000074,"duration":111.11100000000442,"noteNumber":85,"velocity":80,"programNumber":44},{"time":170110.94100000075,"duration":111.11100000000442,"noteNumber":86,"velocity":82,"programNumber":44},{"time":170222.05200000075,"duration":166.66649999999208,"noteNumber":85,"velocity":82,"programNumber":44},{"time":170444.27400000073,"duration":111.11100000000442,"noteNumber":83,"velocity":82,"programNumber":44},{"time":170666.49600000074,"duration":222.22200000000885,"noteNumber":83,"velocity":83,"programNumber":44},{"time":170888.71800000075,"duration":166.66649999999208,"noteNumber":81,"velocity":86,"programNumber":44},{"time":171110.94000000073,"duration":111.11100000000442,"noteNumber":78,"velocity":86,"programNumber":44},{"time":171333.16200000074,"duration":111.11100000000442,"noteNumber":81,"velocity":88,"programNumber":44},{"time":171555.38400000075,"duration":222.22200000000885,"noteNumber":81,"velocity":88,"programNumber":44},{"time":171777.60600000076,"duration":166.66649999999208,"noteNumber":79,"velocity":83,"programNumber":44},{"time":171999.82800000074,"duration":111.11100000000442,"noteNumber":78,"velocity":79,"programNumber":44},{"time":172222.05000000075,"duration":111.11100000000442,"noteNumber":76,"velocity":76,"programNumber":44},{"time":172444.27200000075,"duration":444.4439999999886,"noteNumber":74,"velocity":85,"programNumber":44},{"time":173110.93800000075,"duration":111.11100000000442,"noteNumber":81,"velocity":53,"programNumber":44},{"time":173333.16000000076,"duration":222.22200000000885,"noteNumber":86,"velocity":53,"programNumber":44},{"time":173555.38200000077,"duration":222.22200000000885,"noteNumber":85,"velocity":53,"programNumber":44},{"time":173777.60400000078,"duration":222.22200000000885,"noteNumber":83,"velocity":53,"programNumber":44},{"time":173999.8260000008,"duration":222.22200000000885,"noteNumber":81,"velocity":53,"programNumber":44},{"time":174222.0480000008,"duration":55.55549999998766,"noteNumber":83,"velocity":55,"programNumber":44},{"time":174277.60350000078,"duration":55.55549999998766,"noteNumber":85,"velocity":55,"programNumber":44},{"time":174333.15900000077,"duration":55.55549999998766,"noteNumber":83,"velocity":55,"programNumber":44},{"time":174388.71450000076,"duration":55.55549999998766,"noteNumber":85,"velocity":55,"programNumber":44},{"time":174444.27000000075,"duration":222.22200000000885,"noteNumber":81,"velocity":55,"programNumber":44},{"time":174888.71400000076,"duration":111.11100000000442,"noteNumber":81,"velocity":55,"programNumber":44},{"time":175110.93600000077,"duration":111.11100000000442,"noteNumber":81,"velocity":55,"programNumber":44},{"time":175333.15800000078,"duration":111.11100000000442,"noteNumber":81,"velocity":55,"programNumber":44},{"time":175555.3800000008,"duration":111.11100000000442,"noteNumber":81,"velocity":55,"programNumber":44},{"time":175777.6020000008,"duration":111.11100000000442,"noteNumber":81,"velocity":55,"programNumber":44},{"time":175999.8240000008,"duration":55.55549999998766,"noteNumber":83,"velocity":55,"programNumber":44},{"time":176055.3795000008,"duration":55.55549999998766,"noteNumber":85,"velocity":55,"programNumber":44},{"time":176110.93500000078,"duration":55.55549999998766,"noteNumber":83,"velocity":55,"programNumber":44},{"time":176166.49050000077,"duration":55.55549999998766,"noteNumber":85,"velocity":55,"programNumber":44},{"time":176222.04600000076,"duration":222.22200000000885,"noteNumber":81,"velocity":55,"programNumber":44},{"time":176666.49000000078,"duration":166.66649999999208,"noteNumber":81,"velocity":55,"programNumber":44},{"time":176888.71200000076,"duration":222.22200000000885,"noteNumber":86,"velocity":55,"programNumber":44},{"time":177110.93400000077,"duration":222.22200000000885,"noteNumber":85,"velocity":55,"programNumber":44},{"time":177333.15600000077,"duration":222.22200000000885,"noteNumber":83,"velocity":55,"programNumber":44},{"time":177555.37800000078,"duration":222.22200000000885,"noteNumber":81,"velocity":55,"programNumber":44},{"time":177777.6000000008,"duration":55.55549999998766,"noteNumber":83,"velocity":55,"programNumber":44},{"time":177833.15550000078,"duration":55.55549999998766,"noteNumber":85,"velocity":55,"programNumber":44},{"time":177888.71100000077,"duration":55.55549999998766,"noteNumber":83,"velocity":55,"programNumber":44},{"time":177944.26650000075,"duration":55.55549999998766,"noteNumber":85,"velocity":55,"programNumber":44},{"time":177999.82200000074,"duration":222.22200000000885,"noteNumber":81,"velocity":55,"programNumber":44},{"time":178444.26600000076,"duration":111.11100000000442,"noteNumber":81,"velocity":55,"programNumber":44},{"time":178666.48800000077,"duration":111.11100000000442,"noteNumber":81,"velocity":55,"programNumber":44},{"time":178888.71000000078,"duration":111.11100000000442,"noteNumber":81,"velocity":55,"programNumber":44},{"time":179110.9320000008,"duration":111.11100000000442,"noteNumber":81,"velocity":55,"programNumber":44},{"time":179333.1540000008,"duration":111.11100000000442,"noteNumber":81,"velocity":55,"programNumber":44},{"time":179555.3760000008,"duration":55.55549999998766,"noteNumber":83,"velocity":59,"programNumber":44},{"time":179610.9315000008,"duration":55.55549999998766,"noteNumber":85,"velocity":59,"programNumber":44},{"time":179666.48700000078,"duration":55.55549999998766,"noteNumber":83,"velocity":59,"programNumber":44},{"time":179722.04250000077,"duration":55.55549999998766,"noteNumber":85,"velocity":59,"programNumber":44},{"time":179777.59800000075,"duration":222.22200000000885,"noteNumber":81,"velocity":59,"programNumber":44},{"time":180444.26400000075,"duration":629.6289999999863,"noteNumber":83,"velocity":85,"programNumber":44},{"time":180444.26400000075,"duration":629.6289999999863,"noteNumber":71,"velocity":85,"programNumber":44},{"time":181110.93000000075,"duration":74.07399999999325,"noteNumber":81,"velocity":85,"programNumber":44},{"time":181185.00400000074,"duration":74.07399999999325,"noteNumber":79,"velocity":85,"programNumber":44},{"time":181259.07800000074,"duration":74.07399999999325,"noteNumber":78,"velocity":85,"programNumber":44},{"time":181333.15200000073,"duration":444.4439999999886,"noteNumber":79,"velocity":85,"programNumber":44},{"time":182222.0400000007,"duration":629.6289999999863,"noteNumber":69,"velocity":85,"programNumber":44},{"time":182222.0400000007,"duration":629.6289999999863,"noteNumber":81,"velocity":85,"programNumber":44},{"time":182888.7060000007,"duration":74.07399999999325,"noteNumber":79,"velocity":85,"programNumber":44},{"time":182962.7800000007,"duration":74.07399999999325,"noteNumber":78,"velocity":85,"programNumber":44},{"time":183036.8540000007,"duration":74.07399999999325,"noteNumber":76,"velocity":85,"programNumber":44},{"time":183110.92800000068,"duration":444.4439999999886,"noteNumber":78,"velocity":85,"programNumber":44},{"time":183999.81600000066,"duration":222.22200000000885,"noteNumber":83,"velocity":85,"programNumber":44},{"time":184222.03800000067,"duration":111.11100000000442,"noteNumber":85,"velocity":85,"programNumber":44},{"time":184333.14900000067,"duration":111.11100000000442,"noteNumber":86,"velocity":85,"programNumber":44},{"time":184444.26000000068,"duration":166.66649999999208,"noteNumber":85,"velocity":85,"programNumber":44},{"time":184666.48200000066,"duration":111.11100000000442,"noteNumber":83,"velocity":85,"programNumber":44},{"time":184888.70400000067,"duration":222.22200000000885,"noteNumber":83,"velocity":95,"programNumber":44},{"time":185110.92600000068,"duration":166.66649999999208,"noteNumber":81,"velocity":85,"programNumber":44},{"time":185333.14800000066,"duration":111.11100000000442,"noteNumber":78,"velocity":85,"programNumber":44},{"time":185555.37000000066,"duration":111.11100000000442,"noteNumber":81,"velocity":85,"programNumber":44},{"time":185777.59200000067,"duration":222.22200000000885,"noteNumber":81,"velocity":85,"programNumber":44},{"time":185999.81400000068,"duration":166.66649999999208,"noteNumber":79,"velocity":85,"programNumber":44},{"time":186222.03600000066,"duration":111.11100000000442,"noteNumber":78,"velocity":85,"programNumber":44},{"time":186444.25800000067,"duration":111.11100000000442,"noteNumber":76,"velocity":85,"programNumber":44},{"time":186666.48000000068,"duration":166.66649999999208,"noteNumber":74,"velocity":85,"programNumber":44},{"time":186888.70200000066,"duration":166.66649999999208,"noteNumber":69,"velocity":85,"programNumber":44},{"time":187110.92400000064,"duration":166.66649999999208,"noteNumber":71,"velocity":85,"programNumber":44},{"time":187333.14600000062,"duration":166.66649999999208,"noteNumber":73,"velocity":85,"programNumber":44},{"time":187555.3680000006,"duration":111.11100000000442,"noteNumber":74,"velocity":85,"programNumber":44},{"time":187777.5900000006,"duration":111.11100000000442,"noteNumber":74,"velocity":85,"programNumber":44},{"time":187999.81200000062,"duration":55.55549999998766,"noteNumber":76,"velocity":85,"programNumber":44},{"time":188055.3675000006,"duration":55.55549999998766,"noteNumber":78,"velocity":85,"programNumber":44},{"time":188110.9230000006,"duration":55.55549999998766,"noteNumber":76,"velocity":85,"programNumber":44},{"time":188166.47850000058,"duration":55.55549999998766,"noteNumber":78,"velocity":85,"programNumber":44},{"time":188222.03400000057,"duration":111.11100000000442,"noteNumber":74,"velocity":85,"programNumber":44},{"time":188333.14500000057,"duration":111.11100000000442,"noteNumber":76,"velocity":85,"programNumber":44},{"time":188444.25600000058,"duration":222.22200000000885,"noteNumber":78,"velocity":85,"programNumber":44},{"time":188666.47800000058,"duration":166.66649999999208,"noteNumber":73,"velocity":85,"programNumber":44},{"time":188888.70000000056,"duration":166.66649999999208,"noteNumber":74,"velocity":85,"programNumber":44},{"time":189110.92200000054,"duration":166.66649999999208,"noteNumber":76,"velocity":85,"programNumber":44},{"time":189333.14400000052,"duration":166.66649999999208,"noteNumber":78,"velocity":85,"programNumber":44},{"time":189555.3660000005,"duration":166.66649999999208,"noteNumber":78,"velocity":85,"programNumber":44},{"time":189777.58800000048,"duration":55.55549999998766,"noteNumber":79,"velocity":85,"programNumber":44},{"time":189833.14350000047,"duration":55.55549999998766,"noteNumber":81,"velocity":86,"programNumber":44},{"time":189888.69900000046,"duration":55.55549999998766,"noteNumber":79,"velocity":86,"programNumber":44},{"time":189944.25450000045,"duration":55.55549999998766,"noteNumber":81,"velocity":86,"programNumber":44},{"time":189999.81000000043,"duration":111.11100000000442,"noteNumber":78,"velocity":86,"programNumber":44},{"time":190110.92100000044,"duration":111.11100000000442,"noteNumber":79,"velocity":88,"programNumber":44},{"time":190222.03200000044,"duration":166.66649999999208,"noteNumber":81,"velocity":88,"programNumber":44},{"time":190444.25400000042,"duration":166.66649999999208,"noteNumber":81,"velocity":88,"programNumber":44},{"time":190666.4760000004,"duration":55.55549999998766,"noteNumber":82,"velocity":89,"programNumber":44},{"time":190722.0315000004,"duration":55.55549999998766,"noteNumber":83,"velocity":91,"programNumber":44},{"time":190777.58700000038,"duration":55.55549999998766,"noteNumber":82,"velocity":91,"programNumber":44},{"time":190833.14250000037,"duration":55.55549999998766,"noteNumber":83,"velocity":91,"programNumber":44},{"time":190888.69800000035,"duration":111.11100000000442,"noteNumber":80,"velocity":92,"programNumber":44},{"time":190999.80900000036,"duration":111.11100000000442,"noteNumber":82,"velocity":94,"programNumber":44},{"time":191110.92000000036,"duration":444.4439999999886,"noteNumber":83,"velocity":98,"programNumber":44},{"time":191999.80800000034,"duration":666.6659999999974,"noteNumber":71,"velocity":40,"programNumber":44},{"time":192666.47400000034,"duration":166.66649999999208,"noteNumber":76,"velocity":47,"programNumber":44},{"time":192888.69600000032,"duration":222.22200000000885,"noteNumber":74,"velocity":49,"programNumber":44},{"time":193110.91800000033,"duration":222.22200000000885,"noteNumber":73,"velocity":49,"programNumber":44},{"time":193333.14000000033,"duration":222.22200000000885,"noteNumber":71,"velocity":43,"programNumber":44},{"time":193555.36200000034,"duration":222.22200000000885,"noteNumber":69,"velocity":41,"programNumber":44},{"time":193777.58400000035,"duration":222.22200000000885,"noteNumber":74,"velocity":40,"programNumber":44},{"time":194222.02800000037,"duration":222.22200000000885,"noteNumber":78,"velocity":59,"programNumber":44},{"time":194666.4720000004,"duration":222.22200000000885,"noteNumber":74,"velocity":57,"programNumber":44},{"time":195555.3600000004,"duration":444.4439999999886,"noteNumber":74,"velocity":100,"programNumber":44},{"time":195555.3600000004,"duration":444.4439999999886,"noteNumber":62,"velocity":100,"programNumber":44},{"time":196222.0260000004,"duration":166.66649999999208,"noteNumber":69,"velocity":91,"programNumber":44},{"time":196444.24800000037,"duration":444.4439999999886,"noteNumber":74,"velocity":91,"programNumber":44},{"time":197110.91400000037,"duration":166.66649999999208,"noteNumber":69,"velocity":91,"programNumber":44},{"time":197333.13600000035,"duration":166.66649999999208,"noteNumber":74,"velocity":91,"programNumber":44},{"time":197555.35800000033,"duration":166.66649999999208,"noteNumber":69,"velocity":91,"programNumber":44},{"time":197777.5800000003,"duration":166.66649999999208,"noteNumber":74,"velocity":91,"programNumber":44},{"time":197999.8020000003,"duration":166.66649999999208,"noteNumber":78,"velocity":91,"programNumber":44},{"time":198222.02400000027,"duration":444.4439999999886,"noteNumber":81,"velocity":91,"programNumber":44},{"time":199110.91200000024,"duration":444.4439999999886,"noteNumber":81,"velocity":91,"programNumber":44},{"time":199777.57800000024,"duration":166.66649999999208,"noteNumber":78,"velocity":91,"programNumber":44},{"time":199999.80000000022,"duration":444.4439999999886,"noteNumber":81,"velocity":91,"programNumber":44},{"time":200666.46600000022,"duration":166.66649999999208,"noteNumber":78,"velocity":91,"programNumber":44},{"time":200888.6880000002,"duration":166.66649999999208,"noteNumber":81,"velocity":91,"programNumber":44},{"time":201110.91000000018,"duration":166.66649999999208,"noteNumber":78,"velocity":91,"programNumber":44},{"time":201333.13200000016,"duration":166.66649999999208,"noteNumber":75,"velocity":91,"programNumber":44},{"time":201555.35400000014,"duration":166.66649999999208,"noteNumber":78,"velocity":91,"programNumber":44},{"time":201777.57600000012,"duration":444.4439999999886,"noteNumber":71,"velocity":91,"programNumber":44},{"time":203333.1300000001,"duration":166.66649999999208,"noteNumber":79,"velocity":55,"programNumber":44},{"time":203555.35200000007,"duration":222.22200000000885,"noteNumber":84,"velocity":55,"programNumber":44},{"time":203777.57400000008,"duration":222.22200000000885,"noteNumber":83,"velocity":55,"programNumber":44},{"time":203999.7960000001,"duration":222.22200000000885,"noteNumber":81,"velocity":55,"programNumber":44},{"time":204222.0180000001,"duration":222.22200000000885,"noteNumber":79,"velocity":55,"programNumber":44},{"time":204444.2400000001,"duration":55.55549999998766,"noteNumber":81,"velocity":55,"programNumber":44},{"time":204499.7955000001,"duration":55.55549999998766,"noteNumber":83,"velocity":55,"programNumber":44},{"time":204555.35100000008,"duration":55.55549999998766,"noteNumber":81,"velocity":55,"programNumber":44},{"time":204610.90650000007,"duration":55.55549999998766,"noteNumber":83,"velocity":55,"programNumber":44},{"time":204666.46200000006,"duration":222.22200000000885,"noteNumber":79,"velocity":55,"programNumber":44},{"time":205110.90600000008,"duration":111.11100000000442,"noteNumber":79,"velocity":55,"programNumber":44},{"time":205333.12800000008,"duration":111.11100000000442,"noteNumber":79,"velocity":55,"programNumber":44},{"time":205555.3500000001,"duration":111.11100000000442,"noteNumber":79,"velocity":55,"programNumber":44},{"time":205777.5720000001,"duration":111.11100000000442,"noteNumber":79,"velocity":55,"programNumber":44},{"time":205999.7940000001,"duration":111.11100000000442,"noteNumber":79,"velocity":55,"programNumber":44},{"time":206222.01600000012,"duration":55.55549999998766,"noteNumber":81,"velocity":55,"programNumber":44},{"time":206277.5715000001,"duration":55.55549999998766,"noteNumber":83,"velocity":55,"programNumber":44},{"time":206333.1270000001,"duration":55.55549999998766,"noteNumber":81,"velocity":55,"programNumber":44},{"time":206388.68250000008,"duration":55.55549999998766,"noteNumber":83,"velocity":55,"programNumber":44},{"time":206444.23800000007,"duration":222.22200000000885,"noteNumber":79,"velocity":55,"programNumber":44},{"time":206888.6820000001,"duration":166.66649999999208,"noteNumber":79,"velocity":55,"programNumber":44},{"time":207110.90400000007,"duration":222.22200000000885,"noteNumber":84,"velocity":55,"programNumber":44},{"time":207333.12600000008,"duration":222.22200000000885,"noteNumber":83,"velocity":55,"programNumber":44},{"time":207555.3480000001,"duration":222.22200000000885,"noteNumber":81,"velocity":55,"programNumber":44},{"time":207777.5700000001,"duration":222.22200000000885,"noteNumber":79,"velocity":55,"programNumber":44},{"time":207999.7920000001,"duration":55.55549999998766,"noteNumber":81,"velocity":55,"programNumber":44},{"time":208055.3475000001,"duration":55.55549999998766,"noteNumber":83,"velocity":55,"programNumber":44},{"time":208110.90300000008,"duration":55.55549999998766,"noteNumber":81,"velocity":55,"programNumber":44},{"time":208166.45850000007,"duration":55.55549999998766,"noteNumber":83,"velocity":55,"programNumber":44},{"time":208222.01400000005,"duration":222.22200000000885,"noteNumber":79,"velocity":55,"programNumber":44},{"time":208666.45800000007,"duration":111.11100000000442,"noteNumber":79,"velocity":55,"programNumber":44},{"time":208888.68000000008,"duration":111.11100000000442,"noteNumber":79,"velocity":55,"programNumber":44},{"time":209110.9020000001,"duration":111.11100000000442,"noteNumber":79,"velocity":55,"programNumber":44},{"time":209333.1240000001,"duration":111.11100000000442,"noteNumber":79,"velocity":55,"programNumber":44},{"time":209555.3460000001,"duration":111.11100000000442,"noteNumber":79,"velocity":55,"programNumber":44},{"time":209777.56800000012,"duration":55.55549999998766,"noteNumber":81,"velocity":55,"programNumber":44},{"time":209833.1235000001,"duration":55.55549999998766,"noteNumber":83,"velocity":55,"programNumber":44},{"time":209888.6790000001,"duration":55.55549999998766,"noteNumber":81,"velocity":55,"programNumber":44},{"time":209944.23450000008,"duration":55.55549999998766,"noteNumber":83,"velocity":55,"programNumber":44},{"time":209999.79000000007,"duration":222.22200000000885,"noteNumber":79,"velocity":55,"programNumber":44},{"time":210444.23400000008,"duration":166.66649999999208,"noteNumber":79,"velocity":55,"programNumber":44},{"time":210666.45600000006,"duration":222.22200000000885,"noteNumber":84,"velocity":55,"programNumber":44},{"time":210888.67800000007,"duration":222.22200000000885,"noteNumber":83,"velocity":55,"programNumber":44},{"time":211110.90000000008,"duration":222.22200000000885,"noteNumber":81,"velocity":55,"programNumber":44},{"time":211333.1220000001,"duration":222.22200000000885,"noteNumber":79,"velocity":55,"programNumber":44},{"time":211555.3440000001,"duration":55.55549999998766,"noteNumber":81,"velocity":55,"programNumber":44},{"time":211610.8995000001,"duration":55.55549999998766,"noteNumber":83,"velocity":55,"programNumber":44},{"time":211666.45500000007,"duration":55.55549999998766,"noteNumber":81,"velocity":55,"programNumber":44},{"time":211722.01050000006,"duration":55.55549999998766,"noteNumber":83,"velocity":55,"programNumber":44},{"time":211777.56600000005,"duration":222.22200000000885,"noteNumber":80,"velocity":55,"programNumber":44},{"time":212222.01000000007,"duration":111.11100000000442,"noteNumber":80,"velocity":55,"programNumber":44},{"time":212444.23200000008,"duration":111.11100000000442,"noteNumber":80,"velocity":55,"programNumber":44},{"time":212666.45400000009,"duration":111.11100000000442,"noteNumber":80,"velocity":55,"programNumber":44},{"time":212888.6760000001,"duration":111.11100000000442,"noteNumber":80,"velocity":55,"programNumber":44},{"time":213110.8980000001,"duration":111.11100000000442,"noteNumber":80,"velocity":55,"programNumber":44},{"time":213333.1200000001,"duration":55.55549999998766,"noteNumber":83,"velocity":55,"programNumber":44},{"time":213388.6755000001,"duration":55.55549999998766,"noteNumber":84,"velocity":55,"programNumber":44},{"time":213444.2310000001,"duration":55.55549999998766,"noteNumber":83,"velocity":55,"programNumber":44},{"time":213499.78650000007,"duration":55.55549999998766,"noteNumber":84,"velocity":55,"programNumber":44},{"time":213555.34200000006,"duration":222.22200000000885,"noteNumber":81,"velocity":55,"programNumber":44},{"time":213999.78600000008,"duration":166.66649999999208,"noteNumber":81,"velocity":55,"programNumber":44},{"time":214222.00800000006,"duration":222.22200000000885,"noteNumber":84,"velocity":55,"programNumber":44},{"time":214444.23000000007,"duration":222.22200000000885,"noteNumber":82,"velocity":55,"programNumber":44},{"time":214666.45200000008,"duration":222.22200000000885,"noteNumber":81,"velocity":55,"programNumber":44},{"time":214888.6740000001,"duration":222.22200000000885,"noteNumber":79,"velocity":55,"programNumber":44},{"time":215110.8960000001,"duration":55.55549999998766,"noteNumber":79,"velocity":55,"programNumber":44},{"time":215166.45150000008,"duration":55.55549999998766,"noteNumber":81,"velocity":55,"programNumber":44},{"time":215222.00700000007,"duration":55.55549999998766,"noteNumber":79,"velocity":55,"programNumber":44},{"time":215277.56250000006,"duration":55.55549999998766,"noteNumber":81,"velocity":55,"programNumber":44},{"time":215333.11800000005,"duration":222.22200000000885,"noteNumber":78,"velocity":55,"programNumber":44},{"time":215777.56200000006,"duration":111.11100000000442,"noteNumber":78,"velocity":55,"programNumber":44},{"time":215999.78400000007,"duration":111.11100000000442,"noteNumber":78,"velocity":55,"programNumber":44},{"time":216222.00600000008,"duration":111.11100000000442,"noteNumber":78,"velocity":55,"programNumber":44},{"time":216444.2280000001,"duration":111.11100000000442,"noteNumber":78,"velocity":55,"programNumber":44},{"time":216666.4500000001,"duration":111.11100000000442,"noteNumber":78,"velocity":55,"programNumber":44},{"time":216888.6720000001,"duration":55.55549999998766,"noteNumber":81,"velocity":55,"programNumber":44},{"time":216944.2275000001,"duration":55.55549999998766,"noteNumber":82,"velocity":55,"programNumber":44},{"time":216999.78300000008,"duration":55.55549999998766,"noteNumber":81,"velocity":55,"programNumber":44},{"time":217055.33850000007,"duration":55.55549999998766,"noteNumber":82,"velocity":55,"programNumber":44},{"time":217110.89400000006,"duration":222.22200000000885,"noteNumber":79,"velocity":55,"programNumber":44},{"time":217555.33800000008,"duration":166.66649999999208,"noteNumber":75,"velocity":55,"programNumber":44},{"time":217777.56000000006,"duration":222.22200000000885,"noteNumber":79,"velocity":55,"programNumber":44},{"time":217999.78200000006,"duration":222.22200000000885,"noteNumber":77,"velocity":55,"programNumber":44},{"time":218222.00400000007,"duration":222.22200000000885,"noteNumber":76,"velocity":55,"programNumber":44},{"time":218444.22600000008,"duration":222.22200000000885,"noteNumber":74,"velocity":55,"programNumber":44},{"time":218666.4480000001,"duration":55.55549999998766,"noteNumber":74,"velocity":55,"programNumber":44},{"time":218722.00350000008,"duration":55.55549999998766,"noteNumber":75,"velocity":55,"programNumber":44},{"time":218777.55900000007,"duration":55.55549999998766,"noteNumber":74,"velocity":55,"programNumber":44},{"time":218833.11450000005,"duration":55.55549999998766,"noteNumber":75,"velocity":55,"programNumber":44},{"time":218888.67000000004,"duration":222.22200000000885,"noteNumber":73,"velocity":55,"programNumber":44},{"time":219333.11400000006,"duration":111.11100000000442,"noteNumber":73,"velocity":55,"programNumber":44},{"time":219555.33600000007,"duration":111.11100000000442,"noteNumber":73,"velocity":55,"programNumber":44},{"time":219777.55800000008,"duration":111.11100000000442,"noteNumber":73,"velocity":55,"programNumber":44},{"time":219999.7800000001,"duration":111.11100000000442,"noteNumber":73,"velocity":55,"programNumber":44},{"time":220222.0020000001,"duration":111.11100000000442,"noteNumber":73,"velocity":55,"programNumber":44},{"time":220444.2240000001,"duration":55.55549999998766,"noteNumber":76,"velocity":53,"programNumber":44},{"time":220499.7795000001,"duration":55.55549999998766,"noteNumber":78,"velocity":53,"programNumber":44},{"time":220555.33500000008,"duration":55.55549999998766,"noteNumber":76,"velocity":53,"programNumber":44},{"time":220610.89050000007,"duration":55.55549999998766,"noteNumber":78,"velocity":53,"programNumber":44},{"time":220666.44600000005,"duration":222.22200000000885,"noteNumber":74,"velocity":53,"programNumber":44},{"time":221110.89000000007,"duration":222.22200000000885,"noteNumber":62,"velocity":91,"programNumber":44},{"time":221333.11200000008,"duration":222.22200000000885,"noteNumber":64,"velocity":91,"programNumber":44},{"time":221555.3340000001,"duration":222.22200000000885,"noteNumber":66,"velocity":91,"programNumber":44},{"time":221777.5560000001,"duration":222.22200000000885,"noteNumber":67,"velocity":91,"programNumber":44},{"time":221999.7780000001,"duration":222.22200000000885,"noteNumber":69,"velocity":91,"programNumber":44},{"time":222222.00000000012,"duration":222.22200000000885,"noteNumber":72,"velocity":91,"programNumber":44},{"time":222444.22200000013,"duration":222.22200000000885,"noteNumber":70,"velocity":91,"programNumber":44},{"time":222888.66600000014,"duration":222.22200000000885,"noteNumber":66,"velocity":91,"programNumber":44},{"time":223110.88800000015,"duration":222.22200000000885,"noteNumber":67,"velocity":91,"programNumber":44},{"time":223333.11000000016,"duration":222.22200000000885,"noteNumber":69,"velocity":91,"programNumber":44},{"time":223555.33200000017,"duration":222.22200000000885,"noteNumber":70,"velocity":91,"programNumber":44},{"time":223777.55400000018,"duration":222.22200000000885,"noteNumber":73,"velocity":91,"programNumber":44},{"time":223999.7760000002,"duration":222.22200000000885,"noteNumber":76,"velocity":91,"programNumber":44},{"time":224221.9980000002,"duration":222.22200000000885,"noteNumber":74,"velocity":91,"programNumber":44},{"time":224666.4420000002,"duration":222.22200000000885,"noteNumber":74,"velocity":53,"programNumber":44},{"time":224888.66400000022,"duration":222.22200000000885,"noteNumber":76,"velocity":53,"programNumber":44},{"time":225110.88600000023,"duration":222.22200000000885,"noteNumber":78,"velocity":53,"programNumber":44},{"time":225333.10800000024,"duration":222.22200000000885,"noteNumber":79,"velocity":53,"programNumber":44},{"time":225555.33000000025,"duration":222.22200000000885,"noteNumber":81,"velocity":52,"programNumber":44},{"time":225777.55200000026,"duration":444.4439999999886,"noteNumber":82,"velocity":50,"programNumber":44},{"time":226221.99600000025,"duration":444.4439999999886,"noteNumber":83,"velocity":46,"programNumber":44},{"time":226666.44000000024,"duration":444.4439999999886,"noteNumber":84,"velocity":43,"programNumber":44},{"time":227110.88400000022,"duration":444.4439999999886,"noteNumber":85,"velocity":40,"programNumber":44},{"time":227555.3280000002,"duration":2611.108500000002,"noteNumber":86,"velocity":59,"programNumber":44},{"time":230221.9920000002,"duration":55.55549999998766,"noteNumber":78,"velocity":52,"programNumber":44},{"time":230277.5475000002,"duration":55.55549999998766,"noteNumber":79,"velocity":53,"programNumber":44},{"time":230333.10300000018,"duration":55.55549999998766,"noteNumber":78,"velocity":55,"programNumber":44},{"time":230388.65850000017,"duration":55.55549999998766,"noteNumber":79,"velocity":58,"programNumber":44},{"time":230444.21400000015,"duration":55.55549999998766,"noteNumber":78,"velocity":59,"programNumber":44},{"time":230499.76950000014,"duration":55.55549999998766,"noteNumber":79,"velocity":61,"programNumber":44},{"time":230555.32500000013,"duration":55.55549999998766,"noteNumber":78,"velocity":62,"programNumber":44},{"time":230610.88050000012,"duration":55.55549999998766,"noteNumber":79,"velocity":65,"programNumber":44},{"time":230666.4360000001,"duration":55.55549999998766,"noteNumber":78,"velocity":67,"programNumber":44},{"time":230721.9915000001,"duration":55.55549999998766,"noteNumber":79,"velocity":68,"programNumber":44},{"time":230777.54700000008,"duration":55.55549999998766,"noteNumber":78,"velocity":70,"programNumber":44},{"time":230833.10250000007,"duration":55.55549999998766,"noteNumber":79,"velocity":71,"programNumber":44},{"time":230888.65800000005,"duration":111.11100000000442,"noteNumber":76,"velocity":74,"programNumber":44},{"time":230999.76900000006,"duration":111.11100000000442,"noteNumber":78,"velocity":77,"programNumber":44},{"time":231110.88000000006,"duration":444.4439999999886,"noteNumber":79,"velocity":93,"programNumber":44},{"time":231777.54600000006,"duration":111.11100000000442,"noteNumber":74,"velocity":92,"programNumber":44},{"time":231999.76800000007,"duration":444.4439999999886,"noteNumber":79,"velocity":92,"programNumber":44},{"time":232666.43400000007,"duration":111.11100000000442,"noteNumber":74,"velocity":91,"programNumber":44},{"time":232888.65600000008,"duration":111.11100000000442,"noteNumber":79,"velocity":90,"programNumber":44},{"time":233110.87800000008,"duration":111.11100000000442,"noteNumber":74,"velocity":90,"programNumber":44},{"time":233333.1000000001,"duration":111.11100000000442,"noteNumber":79,"velocity":90,"programNumber":44},{"time":233555.3220000001,"duration":111.11100000000442,"noteNumber":83,"velocity":90,"programNumber":44},{"time":233777.5440000001,"duration":444.4439999999886,"noteNumber":86,"velocity":89,"programNumber":44},{"time":234666.4320000001,"duration":444.4439999999886,"noteNumber":84,"velocity":104,"programNumber":44},{"time":235333.0980000001,"duration":111.11100000000442,"noteNumber":81,"velocity":87,"programNumber":44},{"time":235555.3200000001,"duration":444.4439999999886,"noteNumber":84,"velocity":86,"programNumber":44},{"time":236221.9860000001,"duration":111.11100000000442,"noteNumber":81,"velocity":85,"programNumber":44},{"time":236444.2080000001,"duration":111.11100000000442,"noteNumber":84,"velocity":92,"programNumber":44},{"time":236666.4300000001,"duration":111.11100000000442,"noteNumber":81,"velocity":85,"programNumber":44},{"time":236888.65200000012,"duration":111.11100000000442,"noteNumber":78,"velocity":92,"programNumber":44},{"time":237110.87400000013,"duration":111.11100000000442,"noteNumber":81,"velocity":85,"programNumber":44},{"time":237333.09600000014,"duration":444.4439999999886,"noteNumber":74,"velocity":94,"programNumber":44},{"time":238221.9840000001,"duration":222.22200000000885,"noteNumber":71,"velocity":92,"programNumber":44},{"time":238221.9840000001,"duration":222.22200000000885,"noteNumber":79,"velocity":92,"programNumber":44},{"time":238221.9840000001,"duration":222.22200000000885,"noteNumber":62,"velocity":92,"programNumber":44},{"time":238666.42800000013,"duration":666.6659999999974,"noteNumber":79,"velocity":85,"programNumber":44},{"time":239333.09400000013,"duration":222.22200000000885,"noteNumber":83,"velocity":74,"programNumber":44},{"time":239555.31600000014,"duration":111.11100000000442,"noteNumber":81,"velocity":74,"programNumber":44},{"time":239777.53800000015,"duration":111.11100000000442,"noteNumber":79,"velocity":80,"programNumber":44},{"time":239999.76000000015,"duration":55.55549999998766,"noteNumber":79,"velocity":86,"programNumber":44},{"time":240055.31550000014,"duration":55.55549999998766,"noteNumber":81,"velocity":86,"programNumber":44},{"time":240110.87100000013,"duration":55.55549999998766,"noteNumber":79,"velocity":86,"programNumber":44},{"time":240166.42650000012,"duration":55.55549999998766,"noteNumber":81,"velocity":86,"programNumber":44},{"time":240221.9820000001,"duration":185.18499999999767,"noteNumber":78,"velocity":83,"programNumber":44},{"time":240444.2040000001,"duration":666.6659999999974,"noteNumber":78,"velocity":77,"programNumber":44},{"time":241110.8700000001,"duration":222.22200000000885,"noteNumber":81,"velocity":85,"programNumber":44},{"time":241333.09200000012,"duration":111.11100000000442,"noteNumber":84,"velocity":85,"programNumber":44},{"time":241555.31400000013,"duration":111.11100000000442,"noteNumber":78,"velocity":85,"programNumber":44},{"time":241777.53600000014,"duration":222.22200000000885,"noteNumber":81,"velocity":85,"programNumber":44},{"time":241999.75800000015,"duration":111.11100000000442,"noteNumber":79,"velocity":85,"programNumber":44},{"time":242221.98000000016,"duration":666.6659999999974,"noteNumber":79,"velocity":85,"programNumber":44},{"time":242888.64600000015,"duration":222.22200000000885,"noteNumber":83,"velocity":85,"programNumber":44},{"time":243110.86800000016,"duration":111.11100000000442,"noteNumber":81,"velocity":85,"programNumber":44},{"time":243333.09000000017,"duration":111.11100000000442,"noteNumber":79,"velocity":85,"programNumber":44},{"time":243555.31200000018,"duration":55.55549999998766,"noteNumber":79,"velocity":85,"programNumber":44},{"time":243610.86750000017,"duration":55.55549999998766,"noteNumber":81,"velocity":85,"programNumber":44},{"time":243666.42300000016,"duration":55.55549999998766,"noteNumber":79,"velocity":85,"programNumber":44},{"time":243721.97850000014,"duration":55.55549999998766,"noteNumber":81,"velocity":85,"programNumber":44},{"time":243777.53400000013,"duration":185.18499999999767,"noteNumber":78,"velocity":85,"programNumber":44},{"time":243999.75600000014,"duration":666.6659999999974,"noteNumber":78,"velocity":85,"programNumber":44},{"time":244666.42200000014,"duration":222.22200000000885,"noteNumber":81,"velocity":85,"programNumber":44},{"time":244888.64400000015,"duration":111.11100000000442,"noteNumber":84,"velocity":85,"programNumber":44},{"time":245110.86600000015,"duration":111.11100000000442,"noteNumber":78,"velocity":85,"programNumber":44},{"time":245333.08800000016,"duration":111.11100000000442,"noteNumber":79,"velocity":85,"programNumber":44},{"time":245555.31000000017,"duration":111.11100000000442,"noteNumber":79,"velocity":85,"programNumber":44},{"time":245777.53200000018,"duration":111.11100000000442,"noteNumber":79,"velocity":85,"programNumber":44},{"time":245888.6430000002,"duration":111.11100000000442,"noteNumber":78,"velocity":85,"programNumber":44},{"time":245999.7540000002,"duration":111.11100000000442,"noteNumber":76,"velocity":85,"programNumber":44},{"time":246110.8650000002,"duration":111.11100000000442,"noteNumber":78,"velocity":85,"programNumber":44},{"time":246221.9760000002,"duration":111.11100000000442,"noteNumber":79,"velocity":85,"programNumber":44},{"time":246444.1980000002,"duration":111.11100000000442,"noteNumber":79,"velocity":85,"programNumber":44},{"time":246666.42000000022,"duration":111.11100000000442,"noteNumber":83,"velocity":85,"programNumber":44},{"time":246777.53100000022,"duration":111.11100000000442,"noteNumber":81,"velocity":85,"programNumber":44},{"time":246888.64200000023,"duration":111.11100000000442,"noteNumber":79,"velocity":85,"programNumber":44},{"time":246999.75300000023,"duration":111.11100000000442,"noteNumber":81,"velocity":83,"programNumber":44},{"time":247110.86400000023,"duration":111.11100000000442,"noteNumber":83,"velocity":83,"programNumber":44},{"time":247333.08600000024,"duration":111.11100000000442,"noteNumber":83,"velocity":83,"programNumber":44},{"time":247555.30800000025,"duration":111.11100000000442,"noteNumber":86,"velocity":83,"programNumber":44},{"time":247666.41900000026,"duration":111.11100000000442,"noteNumber":84,"velocity":80,"programNumber":44},{"time":247777.53000000026,"duration":111.11100000000442,"noteNumber":83,"velocity":79,"programNumber":44},{"time":247888.64100000027,"duration":111.11100000000442,"noteNumber":84,"velocity":76,"programNumber":44},{"time":247999.75200000027,"duration":444.4439999999886,"noteNumber":86,"velocity":71,"programNumber":44},{"time":248888.64000000025,"duration":888.8880000000063,"noteNumber":74,"velocity":56,"programNumber":44},{"time":249777.52800000025,"duration":888.8880000000063,"noteNumber":76,"velocity":55,"programNumber":44},{"time":250666.41600000026,"duration":111.11100000000442,"noteNumber":74,"velocity":57,"programNumber":44},{"time":250777.52700000026,"duration":296.2960000000021,"noteNumber":72,"velocity":59,"programNumber":44},{"time":251110.86000000028,"duration":444.4439999999886,"noteNumber":72,"velocity":58,"programNumber":44},{"time":251555.30400000027,"duration":111.11100000000442,"noteNumber":72,"velocity":57,"programNumber":44},{"time":251666.41500000027,"duration":296.2960000000021,"noteNumber":71,"velocity":55,"programNumber":44},{"time":251999.74800000028,"duration":444.4439999999886,"noteNumber":71,"velocity":53,"programNumber":44},{"time":252444.19200000027,"duration":111.11100000000442,"noteNumber":71,"velocity":57,"programNumber":44},{"time":252555.30300000028,"duration":296.2960000000021,"noteNumber":69,"velocity":56,"programNumber":44},{"time":252888.6360000003,"duration":444.4439999999886,"noteNumber":69,"velocity":55,"programNumber":44},{"time":253333.08000000028,"duration":222.22200000000885,"noteNumber":67,"velocity":54,"programNumber":44},{"time":253555.3020000003,"duration":111.11100000000442,"noteNumber":66,"velocity":55,"programNumber":44},{"time":253777.5240000003,"duration":111.11100000000442,"noteNumber":64,"velocity":55,"programNumber":44},{"time":253999.7460000003,"duration":111.11100000000442,"noteNumber":66,"velocity":55,"programNumber":44},{"time":254221.9680000003,"duration":222.22200000000885,"noteNumber":67,"velocity":56,"programNumber":44},{"time":254666.41200000033,"duration":222.22200000000885,"noteNumber":69,"velocity":57,"programNumber":44},{"time":255110.85600000035,"duration":222.22200000000885,"noteNumber":71,"velocity":57,"programNumber":44},{"time":255999.74400000036,"duration":888.8880000000063,"noteNumber":74,"velocity":56,"programNumber":44},{"time":256888.63200000036,"duration":888.8880000000063,"noteNumber":76,"velocity":59,"programNumber":44},{"time":257777.52000000037,"duration":222.22200000000885,"noteNumber":74,"velocity":46,"programNumber":44},{"time":257999.74200000038,"duration":111.11100000000442,"noteNumber":72,"velocity":51,"programNumber":44},{"time":258221.9640000004,"duration":111.11100000000442,"noteNumber":72,"velocity":51,"programNumber":44},{"time":258444.1860000004,"duration":111.11100000000442,"noteNumber":72,"velocity":51,"programNumber":44},{"time":258666.4080000004,"duration":222.22200000000885,"noteNumber":72,"velocity":51,"programNumber":44},{"time":258888.6300000004,"duration":111.11100000000442,"noteNumber":71,"velocity":50,"programNumber":44},{"time":259110.85200000042,"duration":111.11100000000442,"noteNumber":71,"velocity":49,"programNumber":44},{"time":259333.07400000043,"duration":111.11100000000442,"noteNumber":71,"velocity":49,"programNumber":44},{"time":259555.29600000044,"duration":222.22200000000885,"noteNumber":71,"velocity":49,"programNumber":44},{"time":259777.51800000045,"duration":111.11100000000442,"noteNumber":69,"velocity":50,"programNumber":44},{"time":259999.74000000046,"duration":166.66649999999208,"noteNumber":69,"velocity":52,"programNumber":44},{"time":260221.96200000044,"duration":166.66649999999208,"noteNumber":69,"velocity":52,"programNumber":44},{"time":260444.18400000042,"duration":222.22200000000885,"noteNumber":67,"velocity":52,"programNumber":44},{"time":260666.40600000042,"duration":222.22200000000885,"noteNumber":66,"velocity":54,"programNumber":44},{"time":260888.62800000043,"duration":222.22200000000885,"noteNumber":64,"velocity":55,"programNumber":44},{"time":261110.85000000044,"duration":222.22200000000885,"noteNumber":66,"velocity":55,"programNumber":44},{"time":261333.07200000045,"duration":1111.109999999986,"noteNumber":67,"velocity":85,"programNumber":44},{"time":261333.07200000045,"duration":1111.109999999986,"noteNumber":55,"velocity":85,"programNumber":44},{"time":262444.18200000044,"duration":55.555500000016764,"noteNumber":67,"velocity":61,"programNumber":44},{"time":262499.73750000045,"duration":55.555500000016764,"noteNumber":69,"velocity":61,"programNumber":44},{"time":262555.29300000047,"duration":55.555500000016764,"noteNumber":66,"velocity":61,"programNumber":44},{"time":262610.8485000005,"duration":55.555500000016764,"noteNumber":67,"velocity":61,"programNumber":44},{"time":262666.4040000005,"duration":222.22200000000885,"noteNumber":69,"velocity":61,"programNumber":44},{"time":262888.6260000005,"duration":222.22200000000885,"noteNumber":66,"velocity":61,"programNumber":44},{"time":263110.8480000005,"duration":1111.109999999986,"noteNumber":71,"velocity":91,"programNumber":44},{"time":264221.9580000005,"duration":55.555500000016764,"noteNumber":71,"velocity":61,"programNumber":44},{"time":264277.5135000005,"duration":55.555500000016764,"noteNumber":72,"velocity":61,"programNumber":44},{"time":264333.06900000054,"duration":55.555500000016764,"noteNumber":69,"velocity":61,"programNumber":44},{"time":264388.62450000056,"duration":55.555500000016764,"noteNumber":71,"velocity":61,"programNumber":44},{"time":264444.1800000006,"duration":222.22200000000885,"noteNumber":72,"velocity":61,"programNumber":44},{"time":264666.4020000006,"duration":222.22200000000885,"noteNumber":69,"velocity":61,"programNumber":44},{"time":264888.6240000006,"duration":74.07400000002235,"noteNumber":74,"velocity":51,"programNumber":44},{"time":264999.7350000006,"duration":74.07400000002235,"noteNumber":74,"velocity":56,"programNumber":44},{"time":265110.84600000066,"duration":74.07400000002235,"noteNumber":74,"velocity":59,"programNumber":44},{"time":265221.9570000007,"duration":74.07400000002235,"noteNumber":74,"velocity":56,"programNumber":44},{"time":265333.0680000007,"duration":74.07400000002235,"noteNumber":74,"velocity":56,"programNumber":44},{"time":265444.17900000076,"duration":74.07400000002235,"noteNumber":74,"velocity":56,"programNumber":44},{"time":265555.2900000008,"duration":74.07400000002235,"noteNumber":74,"velocity":56,"programNumber":44},{"time":265666.4010000008,"duration":74.07400000002235,"noteNumber":74,"velocity":56,"programNumber":44},{"time":265777.51200000086,"duration":74.07400000002235,"noteNumber":76,"velocity":56,"programNumber":44},{"time":265888.6230000009,"duration":74.07400000002235,"noteNumber":76,"velocity":56,"programNumber":44},{"time":265999.7340000009,"duration":74.07400000002235,"noteNumber":76,"velocity":56,"programNumber":44},{"time":266110.84500000096,"duration":74.07400000002235,"noteNumber":76,"velocity":56,"programNumber":44},{"time":266221.956000001,"duration":74.07400000002235,"noteNumber":78,"velocity":56,"programNumber":44},{"time":266333.067000001,"duration":74.07400000002235,"noteNumber":78,"velocity":56,"programNumber":44},{"time":266444.17800000106,"duration":74.07400000002235,"noteNumber":78,"velocity":57,"programNumber":44},{"time":266555.2890000011,"duration":74.07400000002235,"noteNumber":78,"velocity":59,"programNumber":44},{"time":266666.40000000113,"duration":74.07400000002235,"noteNumber":79,"velocity":62,"programNumber":44},{"time":266777.51100000116,"duration":74.07400000002235,"noteNumber":79,"velocity":65,"programNumber":44},{"time":266888.6220000012,"duration":74.07400000002235,"noteNumber":79,"velocity":66,"programNumber":44},{"time":266999.73300000123,"duration":74.07400000002235,"noteNumber":79,"velocity":66,"programNumber":44},{"time":267110.84400000126,"duration":74.07400000002235,"noteNumber":81,"velocity":66,"programNumber":44},{"time":267221.9550000013,"duration":74.07400000002235,"noteNumber":81,"velocity":66,"programNumber":44},{"time":267333.06600000133,"duration":74.07400000002235,"noteNumber":81,"velocity":66,"programNumber":44},{"time":267444.17700000136,"duration":74.07400000002235,"noteNumber":81,"velocity":68,"programNumber":44},{"time":267555.2880000014,"duration":74.07400000002235,"noteNumber":83,"velocity":68,"programNumber":44},{"time":267666.39900000143,"duration":74.07400000002235,"noteNumber":83,"velocity":70,"programNumber":44},{"time":267777.51000000146,"duration":74.07400000002235,"noteNumber":83,"velocity":70,"programNumber":44},{"time":267888.6210000015,"duration":74.07400000002235,"noteNumber":83,"velocity":71,"programNumber":44},{"time":267999.73200000153,"duration":74.07400000002235,"noteNumber":85,"velocity":71,"programNumber":44},{"time":268110.84300000157,"duration":74.07400000002235,"noteNumber":85,"velocity":73,"programNumber":44},{"time":268221.9540000016,"duration":74.07400000002235,"noteNumber":85,"velocity":74,"programNumber":44},{"time":268333.06500000163,"duration":74.07400000002235,"noteNumber":85,"velocity":74,"programNumber":44},{"time":268444.17600000167,"duration":666.6660000000265,"noteNumber":86,"velocity":85,"programNumber":44},{"time":269110.8420000017,"duration":222.22200000000885,"noteNumber":81,"velocity":85,"programNumber":44},{"time":269333.0640000017,"duration":333.33299999998417,"noteNumber":85,"velocity":85,"programNumber":44},{"time":269666.3970000017,"duration":111.11099999997532,"noteNumber":81,"velocity":85,"programNumber":44},{"time":269777.50800000166,"duration":333.33299999998417,"noteNumber":85,"velocity":85,"programNumber":44},{"time":270110.84100000164,"duration":111.11099999997532,"noteNumber":81,"velocity":85,"programNumber":44},{"time":270221.9520000016,"duration":666.6660000000265,"noteNumber":86,"velocity":85,"programNumber":44},{"time":270888.61800000165,"duration":222.22200000000885,"noteNumber":81,"velocity":85,"programNumber":44},{"time":271110.84000000166,"duration":333.33299999998417,"noteNumber":85,"velocity":85,"programNumber":44},{"time":271444.17300000164,"duration":111.11099999997532,"noteNumber":81,"velocity":85,"programNumber":44},{"time":271555.2840000016,"duration":333.33299999998417,"noteNumber":85,"velocity":85,"programNumber":44},{"time":271888.6170000016,"duration":111.11099999997532,"noteNumber":81,"velocity":85,"programNumber":44},{"time":271999.7280000016,"duration":111.11099999997532,"noteNumber":86,"velocity":100,"programNumber":44},{"time":272221.9500000015,"duration":111.11099999997532,"noteNumber":81,"velocity":100,"programNumber":44},{"time":272444.1720000015,"duration":111.11099999997532,"noteNumber":85,"velocity":100,"programNumber":44},{"time":272666.3940000014,"duration":111.11099999997532,"noteNumber":81,"velocity":100,"programNumber":44},{"time":272888.6160000014,"duration":111.11099999997532,"noteNumber":86,"velocity":100,"programNumber":44},{"time":273110.8380000013,"duration":111.11099999997532,"noteNumber":81,"velocity":100,"programNumber":44},{"time":273333.0600000013,"duration":111.11099999997532,"noteNumber":85,"velocity":100,"programNumber":44},{"time":273555.2820000012,"duration":111.11099999997532,"noteNumber":81,"velocity":100,"programNumber":44},{"time":273777.5040000012,"duration":166.66649999999208,"noteNumber":86,"velocity":85,"programNumber":44},{"time":273999.7260000012,"duration":166.66649999999208,"noteNumber":62,"velocity":85,"programNumber":44},{"time":274221.9480000012,"duration":166.66649999999208,"noteNumber":62,"velocity":85,"programNumber":44},{"time":274444.1700000012,"duration":166.66649999999208,"noteNumber":62,"velocity":85,"programNumber":44},{"time":274666.3920000012,"duration":444.4440000000177,"noteNumber":62,"velocity":85,"programNumber":44},{"time":275555.28000000125,"duration":666.6660000000265,"noteNumber":74,"velocity":46,"programNumber":44},{"time":276221.9460000013,"duration":74.07400000002235,"noteNumber":72,"velocity":47,"programNumber":44},{"time":276296.0200000013,"duration":74.07400000002235,"noteNumber":71,"velocity":47,"programNumber":44},{"time":276370.0940000013,"duration":74.07400000002235,"noteNumber":69,"velocity":47,"programNumber":44},{"time":276444.16800000134,"duration":222.22200000000885,"noteNumber":67,"velocity":47,"programNumber":44},{"time":276888.61200000136,"duration":222.22200000000885,"noteNumber":76,"velocity":47,"programNumber":44},{"time":277333.0560000014,"duration":222.22200000000885,"noteNumber":72,"velocity":46,"programNumber":44},{"time":277777.5000000014,"duration":222.22200000000885,"noteNumber":69,"velocity":43,"programNumber":44},{"time":278221.9440000014,"duration":222.22200000000885,"noteNumber":74,"velocity":59,"programNumber":44},{"time":279110.83200000145,"duration":666.6660000000265,"noteNumber":83,"velocity":55,"programNumber":44},{"time":279777.4980000015,"duration":74.07400000002235,"noteNumber":81,"velocity":55,"programNumber":44},{"time":279851.5720000015,"duration":74.07400000002235,"noteNumber":79,"velocity":55,"programNumber":44},{"time":279925.6460000015,"duration":74.07400000002235,"noteNumber":78,"velocity":55,"programNumber":44},{"time":279999.72000000154,"duration":222.22200000000885,"noteNumber":76,"velocity":55,"programNumber":44},{"time":280444.16400000156,"duration":222.22200000000885,"noteNumber":84,"velocity":55,"programNumber":44},{"time":280888.6080000016,"duration":888.8879999999772,"noteNumber":83,"velocity":55,"programNumber":44},{"time":281777.49600000156,"duration":444.4440000000177,"noteNumber":81,"velocity":47,"programNumber":44},{"time":282888.6060000016,"duration":111.11099999997532,"noteNumber":86,"velocity":55,"programNumber":44},{"time":283110.82800000155,"duration":111.11099999997532,"noteNumber":86,"velocity":55,"programNumber":44},{"time":283333.0500000015,"duration":111.11099999997532,"noteNumber":86,"velocity":55,"programNumber":44},{"time":283555.27200000145,"duration":111.11099999997532,"noteNumber":86,"velocity":55,"programNumber":44},{"time":283777.4940000014,"duration":111.11099999997532,"noteNumber":86,"velocity":55,"programNumber":44},{"time":283999.71600000135,"duration":111.11099999997532,"noteNumber":86,"velocity":55,"programNumber":44},{"time":284221.9380000013,"duration":111.11099999997532,"noteNumber":86,"velocity":55,"programNumber":44},{"time":284444.16000000125,"duration":111.11099999997532,"noteNumber":86,"velocity":55,"programNumber":44},{"time":284666.3820000012,"duration":111.11099999997532,"noteNumber":86,"velocity":55,"programNumber":44},{"time":284888.60400000116,"duration":111.11099999997532,"noteNumber":86,"velocity":55,"programNumber":44},{"time":285110.8260000011,"duration":111.11099999997532,"noteNumber":86,"velocity":55,"programNumber":44},{"time":285333.04800000106,"duration":222.22200000000885,"noteNumber":86,"velocity":55,"programNumber":44},{"time":285555.27000000107,"duration":222.22200000000885,"noteNumber":84,"velocity":55,"programNumber":44},{"time":285777.4920000011,"duration":222.22200000000885,"noteNumber":79,"velocity":55,"programNumber":44},{"time":285999.7140000011,"duration":222.22200000000885,"noteNumber":78,"velocity":55,"programNumber":44},{"time":286221.9360000011,"duration":222.22200000000885,"noteNumber":78,"velocity":55,"programNumber":44},{"time":286444.1580000011,"duration":222.22200000000885,"noteNumber":79,"velocity":65,"programNumber":44},{"time":286888.6020000011,"duration":111.11099999997532,"noteNumber":76,"velocity":55,"programNumber":44},{"time":287110.82400000107,"duration":222.22200000000885,"noteNumber":76,"velocity":55,"programNumber":44},{"time":287333.0460000011,"duration":222.22200000000885,"noteNumber":74,"velocity":55,"programNumber":44},{"time":287777.4900000011,"duration":166.66649999999208,"noteNumber":66,"velocity":55,"programNumber":44},{"time":287999.7120000011,"duration":444.4440000000177,"noteNumber":67,"velocity":67,"programNumber":44},{"time":288666.37800000113,"duration":111.11099999997532,"noteNumber":74,"velocity":55,"programNumber":44},{"time":288888.6000000011,"duration":222.22200000000885,"noteNumber":79,"velocity":55,"programNumber":44},{"time":289110.8220000011,"duration":222.22200000000885,"noteNumber":78,"velocity":55,"programNumber":44},{"time":289333.0440000011,"duration":222.22200000000885,"noteNumber":76,"velocity":55,"programNumber":44},{"time":289555.2660000011,"duration":222.22200000000885,"noteNumber":74,"velocity":55,"programNumber":44},{"time":289777.4880000011,"duration":55.555500000016764,"noteNumber":76,"velocity":55,"programNumber":44},{"time":289833.04350000113,"duration":55.555500000016764,"noteNumber":78,"velocity":55,"programNumber":44},{"time":289888.59900000115,"duration":55.555500000016764,"noteNumber":76,"velocity":55,"programNumber":44},{"time":289944.15450000117,"duration":55.555500000016764,"noteNumber":78,"velocity":55,"programNumber":44},{"time":289999.7100000012,"duration":222.22200000000885,"noteNumber":74,"velocity":55,"programNumber":44},{"time":290444.1540000012,"duration":111.11099999997532,"noteNumber":74,"velocity":55,"programNumber":44},{"time":290666.37600000115,"duration":111.11099999997532,"noteNumber":74,"velocity":55,"programNumber":44},{"time":290888.5980000011,"duration":111.11099999997532,"noteNumber":74,"velocity":55,"programNumber":44},{"time":291110.82000000105,"duration":111.11099999997532,"noteNumber":74,"velocity":55,"programNumber":44},{"time":291333.042000001,"duration":111.11099999997532,"noteNumber":74,"velocity":55,"programNumber":44},{"time":291555.26400000096,"duration":55.555500000016764,"noteNumber":76,"velocity":55,"programNumber":44},{"time":291610.819500001,"duration":55.555500000016764,"noteNumber":78,"velocity":55,"programNumber":44},{"time":291666.375000001,"duration":55.555500000016764,"noteNumber":76,"velocity":55,"programNumber":44},{"time":291721.930500001,"duration":55.555500000016764,"noteNumber":78,"velocity":55,"programNumber":44},{"time":291777.486000001,"duration":222.22200000000885,"noteNumber":74,"velocity":55,"programNumber":44},{"time":292221.93000000104,"duration":166.66649999999208,"noteNumber":74,"velocity":55,"programNumber":44},{"time":292444.15200000105,"duration":222.22200000000885,"noteNumber":79,"velocity":55,"programNumber":44},{"time":292666.37400000106,"duration":222.22200000000885,"noteNumber":78,"velocity":55,"programNumber":44},{"time":292888.59600000107,"duration":222.22200000000885,"noteNumber":76,"velocity":55,"programNumber":44},{"time":293110.8180000011,"duration":222.22200000000885,"noteNumber":74,"velocity":55,"programNumber":44},{"time":293333.0400000011,"duration":55.555500000016764,"noteNumber":76,"velocity":55,"programNumber":44},{"time":293388.5955000011,"duration":55.555500000016764,"noteNumber":78,"velocity":55,"programNumber":44},{"time":293444.1510000011,"duration":55.555500000016764,"noteNumber":76,"velocity":55,"programNumber":44},{"time":293499.70650000114,"duration":55.555500000016764,"noteNumber":78,"velocity":55,"programNumber":44},{"time":293555.26200000115,"duration":222.22200000000885,"noteNumber":74,"velocity":55,"programNumber":44},{"time":293999.70600000117,"duration":111.11099999997532,"noteNumber":74,"velocity":55,"programNumber":44},{"time":294221.9280000011,"duration":111.11099999997532,"noteNumber":74,"velocity":55,"programNumber":44},{"time":294444.1500000011,"duration":111.11099999997532,"noteNumber":74,"velocity":55,"programNumber":44},{"time":294666.372000001,"duration":111.11099999997532,"noteNumber":74,"velocity":55,"programNumber":44},{"time":294888.594000001,"duration":111.11099999997532,"noteNumber":74,"velocity":55,"programNumber":44},{"time":295110.8160000009,"duration":55.555500000016764,"noteNumber":76,"velocity":55,"programNumber":44},{"time":295166.37150000094,"duration":55.555500000016764,"noteNumber":78,"velocity":55,"programNumber":44},{"time":295221.92700000096,"duration":55.555500000016764,"noteNumber":76,"velocity":55,"programNumber":44},{"time":295277.482500001,"duration":55.555500000016764,"noteNumber":78,"velocity":55,"programNumber":44},{"time":295333.038000001,"duration":222.22200000000885,"noteNumber":74,"velocity":55,"programNumber":44},{"time":295999.704000001,"duration":629.6290000000154,"noteNumber":76,"velocity":83,"programNumber":44},{"time":295999.704000001,"duration":629.6290000000154,"noteNumber":64,"velocity":83,"programNumber":44},{"time":296666.37000000104,"duration":74.07400000002235,"noteNumber":74,"velocity":82,"programNumber":44},{"time":296740.44400000107,"duration":74.07400000002235,"noteNumber":72,"velocity":82,"programNumber":44},{"time":296814.5180000011,"duration":74.07400000002235,"noteNumber":71,"velocity":82,"programNumber":44},{"time":296888.5920000011,"duration":444.4440000000177,"noteNumber":72,"velocity":83,"programNumber":44},{"time":297777.48000000115,"duration":629.6290000000154,"noteNumber":62,"velocity":85,"programNumber":44},{"time":297777.48000000115,"duration":629.6290000000154,"noteNumber":74,"velocity":85,"programNumber":44},{"time":298444.1460000012,"duration":74.07400000002235,"noteNumber":72,"velocity":77,"programNumber":44},{"time":298518.2200000012,"duration":74.07400000002235,"noteNumber":71,"velocity":79,"programNumber":44},{"time":298592.2940000012,"duration":74.07400000002235,"noteNumber":69,"velocity":83,"programNumber":44},{"time":298666.36800000124,"duration":444.4440000000177,"noteNumber":71,"velocity":88,"programNumber":44},{"time":299555.2560000013,"duration":222.22200000000885,"noteNumber":76,"velocity":85,"programNumber":44},{"time":299777.4780000013,"duration":111.11099999997532,"noteNumber":78,"velocity":85,"programNumber":44},{"time":299888.58900000126,"duration":111.11099999997532,"noteNumber":79,"velocity":85,"programNumber":44},{"time":299999.70000000123,"duration":166.66649999999208,"noteNumber":78,"velocity":85,"programNumber":44},{"time":300221.92200000124,"duration":111.11099999997532,"noteNumber":76,"velocity":85,"programNumber":44},{"time":300444.1440000012,"duration":222.22200000000885,"noteNumber":76,"velocity":85,"programNumber":44},{"time":300666.3660000012,"duration":166.66649999999208,"noteNumber":74,"velocity":85,"programNumber":44},{"time":300888.5880000012,"duration":111.11099999997532,"noteNumber":71,"velocity":85,"programNumber":44},{"time":301110.81000000116,"duration":111.11099999997532,"noteNumber":74,"velocity":85,"programNumber":44},{"time":301333.0320000011,"duration":222.22200000000885,"noteNumber":74,"velocity":85,"programNumber":44},{"time":301555.2540000011,"duration":166.66649999999208,"noteNumber":72,"velocity":85,"programNumber":44},{"time":301777.47600000113,"duration":111.11099999997532,"noteNumber":71,"velocity":85,"programNumber":44},{"time":301999.6980000011,"duration":111.11099999997532,"noteNumber":69,"velocity":85,"programNumber":44},{"time":302221.92000000103,"duration":444.4440000000177,"noteNumber":67,"velocity":85,"programNumber":44},{"time":302888.58600000106,"duration":111.11099999997532,"noteNumber":74,"velocity":50,"programNumber":44},{"time":303110.808000001,"duration":222.22200000000885,"noteNumber":79,"velocity":50,"programNumber":44},{"time":303333.030000001,"duration":222.22200000000885,"noteNumber":78,"velocity":50,"programNumber":44},{"time":303555.252000001,"duration":222.22200000000885,"noteNumber":76,"velocity":53,"programNumber":44},{"time":303777.47400000104,"duration":222.22200000000885,"noteNumber":74,"velocity":56,"programNumber":44},{"time":303999.69600000104,"duration":55.555500000016764,"noteNumber":76,"velocity":58,"programNumber":44},{"time":304055.25150000106,"duration":55.555500000016764,"noteNumber":78,"velocity":58,"programNumber":44},{"time":304110.8070000011,"duration":55.555500000016764,"noteNumber":76,"velocity":59,"programNumber":44},{"time":304166.3625000011,"duration":55.555500000016764,"noteNumber":78,"velocity":59,"programNumber":44},{"time":304221.9180000011,"duration":222.22200000000885,"noteNumber":74,"velocity":61,"programNumber":44},{"time":304666.3620000011,"duration":111.11099999997532,"noteNumber":74,"velocity":56,"programNumber":44},{"time":304888.5840000011,"duration":111.11099999997532,"noteNumber":74,"velocity":55,"programNumber":44},{"time":305110.80600000103,"duration":111.11099999997532,"noteNumber":74,"velocity":55,"programNumber":44},{"time":305333.028000001,"duration":111.11099999997532,"noteNumber":74,"velocity":53,"programNumber":44},{"time":305555.25000000093,"duration":111.11099999997532,"noteNumber":74,"velocity":52,"programNumber":44},{"time":305777.4720000009,"duration":55.555500000016764,"noteNumber":76,"velocity":55,"programNumber":44},{"time":305833.0275000009,"duration":55.555500000016764,"noteNumber":78,"velocity":55,"programNumber":44},{"time":305888.5830000009,"duration":55.555500000016764,"noteNumber":76,"velocity":55,"programNumber":44},{"time":305944.13850000093,"duration":55.555500000016764,"noteNumber":78,"velocity":55,"programNumber":44},{"time":305999.69400000095,"duration":222.22200000000885,"noteNumber":74,"velocity":55,"programNumber":44},{"time":306444.13800000097,"duration":166.66649999999208,"noteNumber":74,"velocity":55,"programNumber":44},{"time":306666.360000001,"duration":222.22200000000885,"noteNumber":79,"velocity":55,"programNumber":44},{"time":306888.582000001,"duration":222.22200000000885,"noteNumber":78,"velocity":55,"programNumber":44},{"time":307110.804000001,"duration":222.22200000000885,"noteNumber":76,"velocity":55,"programNumber":44},{"time":307333.026000001,"duration":222.22200000000885,"noteNumber":74,"velocity":56,"programNumber":44},{"time":307555.248000001,"duration":55.555500000016764,"noteNumber":76,"velocity":65,"programNumber":44},{"time":307610.803500001,"duration":55.555500000016764,"noteNumber":78,"velocity":65,"programNumber":44},{"time":307666.35900000104,"duration":55.555500000016764,"noteNumber":76,"velocity":65,"programNumber":44},{"time":307721.91450000106,"duration":55.555500000016764,"noteNumber":78,"velocity":65,"programNumber":44},{"time":307777.4700000011,"duration":222.22200000000885,"noteNumber":74,"velocity":64,"programNumber":44},{"time":308221.9140000011,"duration":111.11099999997532,"noteNumber":74,"velocity":55,"programNumber":44},{"time":308444.13600000105,"duration":111.11099999997532,"noteNumber":74,"velocity":55,"programNumber":44},{"time":308666.358000001,"duration":111.11099999997532,"noteNumber":74,"velocity":55,"programNumber":44},{"time":308888.58000000095,"duration":111.11099999997532,"noteNumber":74,"velocity":55,"programNumber":44},{"time":309110.8020000009,"duration":111.11099999997532,"noteNumber":74,"velocity":55,"programNumber":44},{"time":309333.02400000085,"duration":55.555500000016764,"noteNumber":76,"velocity":59,"programNumber":44},{"time":309388.57950000087,"duration":55.555500000016764,"noteNumber":78,"velocity":59,"programNumber":44},{"time":309444.1350000009,"duration":55.555500000016764,"noteNumber":76,"velocity":59,"programNumber":44},{"time":309499.6905000009,"duration":55.555500000016764,"noteNumber":78,"velocity":59,"programNumber":44},{"time":309555.2460000009,"duration":222.22200000000885,"noteNumber":74,"velocity":59,"programNumber":44},{"time":310221.91200000094,"duration":629.6290000000154,"noteNumber":88,"velocity":85,"programNumber":44},{"time":310888.57800000097,"duration":74.07400000002235,"noteNumber":86,"velocity":85,"programNumber":44},{"time":310962.652000001,"duration":74.07400000002235,"noteNumber":84,"velocity":85,"programNumber":44},{"time":311036.726000001,"duration":74.07400000002235,"noteNumber":83,"velocity":85,"programNumber":44},{"time":311110.80000000104,"duration":444.4440000000177,"noteNumber":84,"velocity":85,"programNumber":44},{"time":311999.6880000011,"duration":629.6290000000154,"noteNumber":74,"velocity":85,"programNumber":44},{"time":311999.6880000011,"duration":629.6290000000154,"noteNumber":86,"velocity":85,"programNumber":44},{"time":312666.3540000011,"duration":74.07400000002235,"noteNumber":84,"velocity":82,"programNumber":44},{"time":312740.4280000011,"duration":74.07400000002235,"noteNumber":83,"velocity":83,"programNumber":44},{"time":312814.50200000114,"duration":74.07400000002235,"noteNumber":81,"velocity":83,"programNumber":44},{"time":312888.57600000117,"duration":444.4440000000177,"noteNumber":83,"velocity":86,"programNumber":44},{"time":313777.4640000012,"duration":222.22200000000885,"noteNumber":76,"velocity":85,"programNumber":44},{"time":313999.6860000012,"duration":111.11099999997532,"noteNumber":78,"velocity":85,"programNumber":44},{"time":314110.7970000012,"duration":111.11099999997532,"noteNumber":79,"velocity":85,"programNumber":44},{"time":314221.90800000116,"duration":166.66649999999208,"noteNumber":78,"velocity":85,"programNumber":44},{"time":314444.13000000117,"duration":111.11099999997532,"noteNumber":76,"velocity":85,"programNumber":44},{"time":314666.3520000011,"duration":111.11099999997532,"noteNumber":74,"velocity":85,"programNumber":44},{"time":314888.57400000107,"duration":111.11099999997532,"noteNumber":79,"velocity":85,"programNumber":44},{"time":315110.796000001,"duration":111.11099999997532,"noteNumber":83,"velocity":85,"programNumber":44},{"time":315333.018000001,"duration":111.11099999997532,"noteNumber":86,"velocity":85,"programNumber":44},{"time":315555.2400000009,"duration":222.22200000000885,"noteNumber":86,"velocity":85,"programNumber":44},{"time":315777.46200000093,"duration":166.66649999999208,"noteNumber":84,"velocity":85,"programNumber":44},{"time":315999.68400000094,"duration":111.11099999997532,"noteNumber":83,"velocity":85,"programNumber":44},{"time":316221.9060000009,"duration":111.11099999997532,"noteNumber":81,"velocity":85,"programNumber":44},{"time":316444.12800000084,"duration":166.66649999999208,"noteNumber":79,"velocity":94,"programNumber":44},{"time":316666.35000000085,"duration":166.66649999999208,"noteNumber":62,"velocity":85,"programNumber":44},{"time":316888.57200000086,"duration":166.66649999999208,"noteNumber":64,"velocity":85,"programNumber":44},{"time":317110.79400000087,"duration":166.66649999999208,"noteNumber":66,"velocity":85,"programNumber":44},{"time":317333.0160000009,"duration":166.66649999999208,"noteNumber":67,"velocity":85,"programNumber":44},{"time":317555.2380000009,"duration":166.66649999999208,"noteNumber":67,"velocity":85,"programNumber":44},{"time":317777.4600000009,"duration":55.555500000016764,"noteNumber":69,"velocity":85,"programNumber":44},{"time":317833.0155000009,"duration":55.555500000016764,"noteNumber":71,"velocity":85,"programNumber":44},{"time":317888.5710000009,"duration":55.555500000016764,"noteNumber":69,"velocity":85,"programNumber":44},{"time":317944.12650000094,"duration":55.555500000016764,"noteNumber":71,"velocity":85,"programNumber":44},{"time":317999.68200000096,"duration":111.11099999997532,"noteNumber":67,"velocity":85,"programNumber":44},{"time":318110.79300000094,"duration":111.11099999997532,"noteNumber":69,"velocity":85,"programNumber":44},{"time":318221.9040000009,"duration":166.66649999999208,"noteNumber":71,"velocity":85,"programNumber":44},{"time":318444.1260000009,"duration":166.66649999999208,"noteNumber":66,"velocity":85,"programNumber":44},{"time":318666.34800000093,"duration":166.66649999999208,"noteNumber":67,"velocity":85,"programNumber":44},{"time":318888.57000000094,"duration":166.66649999999208,"noteNumber":69,"velocity":85,"programNumber":44},{"time":319110.79200000095,"duration":166.66649999999208,"noteNumber":71,"velocity":85,"programNumber":44},{"time":319333.01400000096,"duration":166.66649999999208,"noteNumber":71,"velocity":85,"programNumber":44},{"time":319555.23600000096,"duration":55.555500000016764,"noteNumber":72,"velocity":86,"programNumber":44},{"time":319610.791500001,"duration":55.555500000016764,"noteNumber":74,"velocity":86,"programNumber":44},{"time":319666.347000001,"duration":55.555500000016764,"noteNumber":72,"velocity":86,"programNumber":44},{"time":319721.902500001,"duration":55.555500000016764,"noteNumber":74,"velocity":86,"programNumber":44},{"time":319777.45800000103,"duration":111.11099999997532,"noteNumber":71,"velocity":86,"programNumber":44},{"time":319888.569000001,"duration":111.11099999997532,"noteNumber":72,"velocity":89,"programNumber":44},{"time":319999.680000001,"duration":166.66649999999208,"noteNumber":74,"velocity":89,"programNumber":44},{"time":320221.902000001,"duration":166.66649999999208,"noteNumber":74,"velocity":91,"programNumber":44},{"time":320444.124000001,"duration":55.555500000016764,"noteNumber":75,"velocity":91,"programNumber":44},{"time":320499.679500001,"duration":55.555500000016764,"noteNumber":76,"velocity":91,"programNumber":44},{"time":320555.23500000103,"duration":55.555500000016764,"noteNumber":75,"velocity":91,"programNumber":44},{"time":320610.79050000105,"duration":55.555500000016764,"noteNumber":76,"velocity":92,"programNumber":44},{"time":320666.34600000107,"duration":111.11099999997532,"noteNumber":73,"velocity":94,"programNumber":44},{"time":320777.45700000104,"duration":111.11099999997532,"noteNumber":75,"velocity":97,"programNumber":44},{"time":320888.568000001,"duration":444.4440000000177,"noteNumber":76,"velocity":98,"programNumber":44},{"time":321777.45600000105,"duration":666.6660000000265,"noteNumber":64,"velocity":61,"programNumber":44},{"time":322444.1220000011,"duration":166.66649999999208,"noteNumber":69,"velocity":61,"programNumber":44},{"time":322666.3440000011,"duration":222.22200000000885,"noteNumber":67,"velocity":61,"programNumber":44},{"time":322888.5660000011,"duration":222.22200000000885,"noteNumber":66,"velocity":62,"programNumber":44},{"time":323110.7880000011,"duration":222.22200000000885,"noteNumber":64,"velocity":62,"programNumber":44},{"time":323333.0100000011,"duration":166.66649999999208,"noteNumber":62,"velocity":62,"programNumber":44},{"time":323555.2320000011,"duration":222.22200000000885,"noteNumber":74,"velocity":62,"programNumber":44},{"time":323777.45400000113,"duration":222.22200000000885,"noteNumber":73,"velocity":62,"programNumber":44},{"time":323999.67600000114,"duration":222.22200000000885,"noteNumber":72,"velocity":62,"programNumber":44},{"time":324221.89800000115,"duration":222.22200000000885,"noteNumber":71,"velocity":62,"programNumber":44},{"time":324444.12000000116,"duration":222.22200000000885,"noteNumber":74,"velocity":61,"programNumber":44},{"time":324666.34200000117,"duration":222.22200000000885,"noteNumber":73,"velocity":61,"programNumber":44},{"time":324888.5640000012,"duration":222.22200000000885,"noteNumber":72,"velocity":61,"programNumber":44},{"time":325110.7860000012,"duration":166.66649999999208,"noteNumber":71,"velocity":59,"programNumber":44},{"time":325333.0080000012,"duration":666.6660000000265,"noteNumber":64,"velocity":61,"programNumber":44},{"time":325999.6740000012,"duration":166.66649999999208,"noteNumber":69,"velocity":67,"programNumber":44},{"time":326221.89600000123,"duration":222.22200000000885,"noteNumber":67,"velocity":70,"programNumber":44},{"time":326444.11800000124,"duration":222.22200000000885,"noteNumber":66,"velocity":70,"programNumber":44},{"time":326666.34000000125,"duration":222.22200000000885,"noteNumber":64,"velocity":70,"programNumber":44},{"time":326888.56200000126,"duration":166.66649999999208,"noteNumber":62,"velocity":70,"programNumber":44},{"time":327110.78400000127,"duration":222.22200000000885,"noteNumber":74,"velocity":70,"programNumber":44},{"time":327333.0060000013,"duration":222.22200000000885,"noteNumber":76,"velocity":70,"programNumber":44},{"time":327555.2280000013,"duration":222.22200000000885,"noteNumber":78,"velocity":70,"programNumber":44},{"time":327777.4500000013,"duration":222.22200000000885,"noteNumber":79,"velocity":70,"programNumber":44},{"time":327999.6720000013,"duration":222.22200000000885,"noteNumber":74,"velocity":70,"programNumber":44},{"time":328221.8940000013,"duration":222.22200000000885,"noteNumber":76,"velocity":70,"programNumber":44},{"time":328444.1160000013,"duration":222.22200000000885,"noteNumber":78,"velocity":70,"programNumber":44},{"time":328666.3380000013,"duration":166.66649999999208,"noteNumber":79,"velocity":76,"programNumber":44},{"time":328888.56000000134,"duration":444.4440000000177,"noteNumber":81,"velocity":75,"programNumber":44},{"time":329777.4480000014,"duration":444.4440000000177,"noteNumber":86,"velocity":91,"programNumber":44},{"time":329777.4480000014,"duration":444.4440000000177,"noteNumber":74,"velocity":91,"programNumber":44},{"time":330666.3360000014,"duration":444.4440000000177,"noteNumber":79,"velocity":96,"programNumber":44},{"time":330666.3360000014,"duration":444.4440000000177,"noteNumber":71,"velocity":96,"programNumber":44},{"time":330666.3360000014,"duration":444.4440000000177,"noteNumber":62,"velocity":96,"programNumber":44},{"time":331333.00200000143,"duration":166.66649999999208,"noteNumber":74,"velocity":95,"programNumber":44},{"time":331555.22400000144,"duration":166.66649999999208,"noteNumber":71,"velocity":94,"programNumber":44},{"time":331777.44600000145,"duration":166.66649999999208,"noteNumber":67,"velocity":90,"programNumber":44},{"time":331999.66800000146,"duration":166.66649999999208,"noteNumber":71,"velocity":90,"programNumber":44},{"time":332221.89000000147,"duration":166.66649999999208,"noteNumber":74,"velocity":89,"programNumber":44},{"time":332444.1120000015,"duration":166.66649999999208,"noteNumber":79,"velocity":88,"programNumber":44},{"time":332666.3340000015,"duration":166.66649999999208,"noteNumber":74,"velocity":88,"programNumber":44},{"time":332888.5560000015,"duration":166.66649999999208,"noteNumber":79,"velocity":88,"programNumber":44},{"time":333110.7780000015,"duration":166.66649999999208,"noteNumber":83,"velocity":90,"programNumber":44},{"time":333333.0000000015,"duration":370.36999999999534,"noteNumber":86,"velocity":92,"programNumber":44},{"time":333777.44400000153,"duration":370.36999999999534,"noteNumber":78,"velocity":95,"programNumber":44},{"time":333777.44400000153,"duration":370.36999999999534,"noteNumber":69,"velocity":95,"programNumber":44},{"time":333777.44400000153,"duration":370.36999999999534,"noteNumber":62,"velocity":95,"programNumber":44},{"time":334221.88800000155,"duration":444.4440000000177,"noteNumber":79,"velocity":100,"programNumber":44},{"time":334221.88800000155,"duration":444.4440000000177,"noteNumber":71,"velocity":100,"programNumber":44},{"time":334221.88800000155,"duration":444.4440000000177,"noteNumber":62,"velocity":100,"programNumber":44},{"time":334888.5540000016,"duration":166.66649999999208,"noteNumber":74,"velocity":98,"programNumber":44},{"time":335110.7760000016,"duration":166.66649999999208,"noteNumber":71,"velocity":98,"programNumber":44},{"time":335332.9980000016,"duration":166.66649999999208,"noteNumber":67,"velocity":95,"programNumber":44},{"time":335555.2200000016,"duration":166.66649999999208,"noteNumber":71,"velocity":94,"programNumber":44},{"time":335777.4420000016,"duration":166.66649999999208,"noteNumber":74,"velocity":92,"programNumber":44},{"time":335999.6640000016,"duration":166.66649999999208,"noteNumber":79,"velocity":91,"programNumber":44},{"time":336221.8860000016,"duration":166.66649999999208,"noteNumber":74,"velocity":91,"programNumber":44},{"time":336444.10800000164,"duration":166.66649999999208,"noteNumber":79,"velocity":92,"programNumber":44},{"time":336666.33000000165,"duration":166.66649999999208,"noteNumber":83,"velocity":92,"programNumber":44},{"time":336888.55200000165,"duration":370.36999999999534,"noteNumber":86,"velocity":96,"programNumber":44},{"time":337332.9960000017,"duration":370.36999999999534,"noteNumber":78,"velocity":99,"programNumber":44},{"time":337332.9960000017,"duration":370.36999999999534,"noteNumber":69,"velocity":99,"programNumber":44},{"time":337332.9960000017,"duration":370.36999999999534,"noteNumber":62,"velocity":99,"programNumber":44},{"time":337777.4400000017,"duration":444.4440000000177,"noteNumber":79,"velocity":109,"programNumber":44},{"time":337777.4400000017,"duration":444.4440000000177,"noteNumber":71,"velocity":109,"programNumber":44},{"time":337777.4400000017,"duration":444.4440000000177,"noteNumber":62,"velocity":109,"programNumber":44},{"time":338666.3280000017,"duration":444.4440000000177,"noteNumber":79,"velocity":106,"programNumber":44},{"time":338666.3280000017,"duration":444.4440000000177,"noteNumber":71,"velocity":106,"programNumber":44},{"time":338666.3280000017,"duration":444.4440000000177,"noteNumber":62,"velocity":106,"programNumber":44},{"time":339555.21600000176,"duration":370.36999999999534,"noteNumber":79,"velocity":106,"programNumber":44},{"time":339555.21600000176,"duration":370.36999999999534,"noteNumber":71,"velocity":106,"programNumber":44},{"time":339555.21600000176,"duration":370.36999999999534,"noteNumber":62,"velocity":106,"programNumber":44},{"time":339999.6600000018,"duration":222.22200000000885,"noteNumber":67,"velocity":110,"programNumber":44},{"time":339999.6600000018,"duration":222.22200000000885,"noteNumber":55,"velocity":110,"programNumber":44},{"time":340332.99300000176,"duration":55.555500000016764,"noteNumber":67,"velocity":109,"programNumber":44},{"time":340332.99300000176,"duration":55.555500000016764,"noteNumber":55,"velocity":109,"programNumber":44},{"time":340444.1040000018,"duration":444.4440000000177,"noteNumber":67,"velocity":108,"programNumber":44},{"time":340444.1040000018,"duration":444.4440000000177,"noteNumber":55,"velocity":108,"programNumber":44}],[{"time":0,"duration":444.444,"noteNumber":71,"velocity":85,"programNumber":41},{"time":0,"duration":444.444,"noteNumber":79,"velocity":85,"programNumber":41},{"time":0,"duration":444.444,"noteNumber":62,"velocity":85,"programNumber":41},{"time":666.666,"duration":111.11099999999999,"noteNumber":74,"velocity":85,"programNumber":41},{"time":888.888,"duration":444.4440000000001,"noteNumber":79,"velocity":85,"programNumber":41},{"time":1555.554,"duration":111.1110000000001,"noteNumber":74,"velocity":85,"programNumber":41},{"time":1777.7760000000003,"duration":111.1110000000001,"noteNumber":79,"velocity":85,"programNumber":41},{"time":1999.9980000000005,"duration":111.11099999999988,"noteNumber":74,"velocity":85,"programNumber":41},{"time":2222.2200000000003,"duration":111.11099999999988,"noteNumber":79,"velocity":85,"programNumber":41},{"time":2444.442,"duration":111.11099999999988,"noteNumber":83,"velocity":85,"programNumber":41},{"time":2666.6639999999998,"duration":444.44399999999996,"noteNumber":86,"velocity":85,"programNumber":41},{"time":3555.5519999999997,"duration":444.44399999999996,"noteNumber":84,"velocity":85,"programNumber":41},{"time":4222.218,"duration":111.11099999999988,"noteNumber":81,"velocity":82,"programNumber":41},{"time":4444.44,"duration":444.4440000000004,"noteNumber":84,"velocity":85,"programNumber":41},{"time":5111.106,"duration":111.11099999999988,"noteNumber":81,"velocity":79,"programNumber":41},{"time":5333.3279999999995,"duration":111.11099999999988,"noteNumber":84,"velocity":85,"programNumber":41},{"time":5555.549999999999,"duration":111.11099999999988,"noteNumber":81,"velocity":80,"programNumber":41},{"time":5777.771999999999,"duration":111.11099999999988,"noteNumber":78,"velocity":85,"programNumber":41},{"time":5999.993999999999,"duration":111.11099999999988,"noteNumber":81,"velocity":77,"programNumber":41},{"time":6222.2159999999985,"duration":444.4440000000004,"noteNumber":74,"velocity":85,"programNumber":41},{"time":7111.103999999999,"duration":222.22199999999975,"noteNumber":71,"velocity":85,"programNumber":41},{"time":7111.103999999999,"duration":222.22199999999975,"noteNumber":79,"velocity":85,"programNumber":41},{"time":7111.103999999999,"duration":222.22199999999975,"noteNumber":62,"velocity":85,"programNumber":41},{"time":7555.547999999999,"duration":666.6659999999993,"noteNumber":79,"velocity":85,"programNumber":41},{"time":8222.213999999998,"duration":222.22199999999975,"noteNumber":83,"velocity":89,"programNumber":41},{"time":8444.435999999998,"duration":111.11100000000079,"noteNumber":81,"velocity":94,"programNumber":41},{"time":8666.658,"duration":111.11100000000079,"noteNumber":79,"velocity":97,"programNumber":41},{"time":8888.880000000001,"duration":55.55550000000039,"noteNumber":79,"velocity":95,"programNumber":41},{"time":8944.435500000001,"duration":55.55550000000039,"noteNumber":81,"velocity":95,"programNumber":41},{"time":8999.991000000002,"duration":55.55550000000039,"noteNumber":79,"velocity":95,"programNumber":41},{"time":9055.546500000002,"duration":55.55550000000039,"noteNumber":81,"velocity":94,"programNumber":41},{"time":9111.102000000003,"duration":185.1849999999995,"noteNumber":78,"velocity":94,"programNumber":41},{"time":9333.324000000002,"duration":666.6659999999993,"noteNumber":78,"velocity":88,"programNumber":41},{"time":9999.990000000002,"duration":222.22199999999975,"noteNumber":81,"velocity":85,"programNumber":41},{"time":10222.212000000001,"duration":111.11100000000079,"noteNumber":84,"velocity":85,"programNumber":41},{"time":10444.434000000003,"duration":111.11100000000079,"noteNumber":78,"velocity":85,"programNumber":41},{"time":10666.656000000004,"duration":222.22199999999975,"noteNumber":81,"velocity":85,"programNumber":41},{"time":10888.878000000004,"duration":111.11100000000079,"noteNumber":79,"velocity":85,"programNumber":41},{"time":11111.100000000006,"duration":666.6659999999993,"noteNumber":79,"velocity":85,"programNumber":41},{"time":11777.766000000005,"duration":222.22199999999975,"noteNumber":83,"velocity":86,"programNumber":41},{"time":11999.988000000005,"duration":111.11100000000079,"noteNumber":81,"velocity":86,"programNumber":41},{"time":12222.210000000006,"duration":111.11100000000079,"noteNumber":79,"velocity":89,"programNumber":41},{"time":12444.432000000008,"duration":55.55550000000039,"noteNumber":79,"velocity":91,"programNumber":41},{"time":12499.987500000008,"duration":55.55550000000039,"noteNumber":81,"velocity":91,"programNumber":41},{"time":12555.543000000009,"duration":55.55550000000039,"noteNumber":79,"velocity":92,"programNumber":41},{"time":12611.09850000001,"duration":55.55550000000039,"noteNumber":81,"velocity":94,"programNumber":41},{"time":12666.65400000001,"duration":185.1849999999995,"noteNumber":78,"velocity":94,"programNumber":41},{"time":12888.87600000001,"duration":666.6659999999993,"noteNumber":78,"velocity":94,"programNumber":41},{"time":13555.542000000009,"duration":222.22199999999975,"noteNumber":81,"velocity":85,"programNumber":41},{"time":13777.764000000008,"duration":111.11100000000079,"noteNumber":84,"velocity":85,"programNumber":41},{"time":13999.98600000001,"duration":111.11100000000079,"noteNumber":78,"velocity":85,"programNumber":41},{"time":14222.208000000011,"duration":111.11100000000079,"noteNumber":79,"velocity":85,"programNumber":41},{"time":14444.430000000013,"duration":111.11100000000079,"noteNumber":79,"velocity":85,"programNumber":41},{"time":14666.652000000015,"duration":111.11100000000079,"noteNumber":79,"velocity":85,"programNumber":41},{"time":14777.763000000015,"duration":111.11100000000079,"noteNumber":78,"velocity":85,"programNumber":41},{"time":14888.874000000016,"duration":111.11100000000079,"noteNumber":76,"velocity":85,"programNumber":41},{"time":14999.985000000017,"duration":111.11100000000079,"noteNumber":78,"velocity":85,"programNumber":41},{"time":15111.096000000018,"duration":111.11100000000079,"noteNumber":79,"velocity":85,"programNumber":41},{"time":15333.31800000002,"duration":111.11100000000079,"noteNumber":79,"velocity":85,"programNumber":41},{"time":15555.54000000002,"duration":111.11100000000079,"noteNumber":83,"velocity":85,"programNumber":41},{"time":15666.651000000022,"duration":111.11100000000079,"noteNumber":81,"velocity":85,"programNumber":41},{"time":15777.762000000022,"duration":111.11100000000079,"noteNumber":79,"velocity":85,"programNumber":41},{"time":15888.873000000023,"duration":111.11100000000079,"noteNumber":81,"velocity":85,"programNumber":41},{"time":15999.984000000024,"duration":111.11100000000079,"noteNumber":83,"velocity":86,"programNumber":41},{"time":16222.206000000026,"duration":111.11100000000079,"noteNumber":83,"velocity":86,"programNumber":41},{"time":16444.428000000025,"duration":111.11100000000079,"noteNumber":86,"velocity":83,"programNumber":41},{"time":16555.539000000026,"duration":111.11100000000079,"noteNumber":84,"velocity":80,"programNumber":41},{"time":16666.650000000027,"duration":111.11100000000079,"noteNumber":83,"velocity":80,"programNumber":41},{"time":16777.761000000028,"duration":111.11100000000079,"noteNumber":84,"velocity":79,"programNumber":41},{"time":16888.87200000003,"duration":444.4439999999995,"noteNumber":86,"velocity":76,"programNumber":41},{"time":17777.760000000028,"duration":888.887999999999,"noteNumber":74,"velocity":41,"programNumber":41},{"time":18666.648000000027,"duration":888.887999999999,"noteNumber":76,"velocity":47,"programNumber":41},{"time":19555.536000000026,"duration":111.11100000000079,"noteNumber":74,"velocity":47,"programNumber":41},{"time":19666.647000000026,"duration":296.29599999999846,"noteNumber":72,"velocity":47,"programNumber":41},{"time":19999.980000000025,"duration":444.4439999999995,"noteNumber":72,"velocity":47,"programNumber":41},{"time":20444.424000000025,"duration":111.11100000000079,"noteNumber":72,"velocity":47,"programNumber":41},{"time":20555.535000000025,"duration":296.29599999999846,"noteNumber":71,"velocity":47,"programNumber":41},{"time":20888.868000000024,"duration":444.4439999999995,"noteNumber":71,"velocity":47,"programNumber":41},{"time":21333.312000000024,"duration":111.11100000000079,"noteNumber":71,"velocity":47,"programNumber":41},{"time":21444.423000000024,"duration":296.29599999999846,"noteNumber":69,"velocity":47,"programNumber":41},{"time":21777.756000000023,"duration":444.4439999999995,"noteNumber":69,"velocity":47,"programNumber":41},{"time":22222.200000000023,"duration":222.22200000000157,"noteNumber":67,"velocity":47,"programNumber":41},{"time":22444.422000000024,"duration":111.11100000000079,"noteNumber":66,"velocity":47,"programNumber":41},{"time":22666.644000000026,"duration":111.11100000000079,"noteNumber":64,"velocity":47,"programNumber":41},{"time":22888.866000000027,"duration":111.11100000000079,"noteNumber":66,"velocity":47,"programNumber":41},{"time":23111.08800000003,"duration":222.22200000000157,"noteNumber":67,"velocity":47,"programNumber":41},{"time":23555.532000000032,"duration":222.22200000000157,"noteNumber":69,"velocity":47,"programNumber":41},{"time":23999.976000000035,"duration":222.22200000000157,"noteNumber":71,"velocity":47,"programNumber":41},{"time":24888.864000000038,"duration":888.887999999999,"noteNumber":74,"velocity":47,"programNumber":41},{"time":25777.752000000037,"duration":888.887999999999,"noteNumber":76,"velocity":47,"programNumber":41},{"time":26666.640000000036,"duration":222.22200000000157,"noteNumber":74,"velocity":47,"programNumber":41},{"time":26888.862000000037,"duration":111.11100000000079,"noteNumber":72,"velocity":47,"programNumber":41},{"time":27111.08400000004,"duration":111.11100000000079,"noteNumber":72,"velocity":47,"programNumber":41},{"time":27333.30600000004,"duration":111.11100000000079,"noteNumber":72,"velocity":47,"programNumber":41},{"time":27555.528000000042,"duration":222.22200000000157,"noteNumber":72,"velocity":47,"programNumber":41},{"time":27777.750000000044,"duration":111.11100000000079,"noteNumber":71,"velocity":47,"programNumber":41},{"time":27999.972000000045,"duration":111.11100000000079,"noteNumber":71,"velocity":47,"programNumber":41},{"time":28222.194000000047,"duration":111.11100000000079,"noteNumber":71,"velocity":47,"programNumber":41},{"time":28444.41600000005,"duration":222.22200000000157,"noteNumber":71,"velocity":47,"programNumber":41},{"time":28666.63800000005,"duration":111.11100000000079,"noteNumber":69,"velocity":47,"programNumber":41},{"time":28888.86000000005,"duration":166.66649999999936,"noteNumber":69,"velocity":47,"programNumber":41},{"time":29111.08200000005,"duration":166.66649999999936,"noteNumber":69,"velocity":47,"programNumber":41},{"time":29333.304000000047,"duration":222.22200000000157,"noteNumber":67,"velocity":47,"programNumber":41},{"time":29555.52600000005,"duration":222.22200000000157,"noteNumber":66,"velocity":47,"programNumber":41},{"time":29777.74800000005,"duration":222.22200000000157,"noteNumber":64,"velocity":47,"programNumber":41},{"time":29999.970000000052,"duration":222.22200000000157,"noteNumber":66,"velocity":47,"programNumber":41},{"time":30222.192000000054,"duration":1111.1100000000006,"noteNumber":67,"velocity":85,"programNumber":41},{"time":30222.192000000054,"duration":1111.1100000000006,"noteNumber":55,"velocity":85,"programNumber":41},{"time":31333.302000000054,"duration":55.555499999998574,"noteNumber":67,"velocity":61,"programNumber":41},{"time":31388.857500000053,"duration":55.555499999998574,"noteNumber":69,"velocity":61,"programNumber":41},{"time":31444.41300000005,"duration":55.555499999998574,"noteNumber":66,"velocity":61,"programNumber":41},{"time":31499.96850000005,"duration":55.555499999998574,"noteNumber":67,"velocity":61,"programNumber":41},{"time":31555.52400000005,"duration":222.22200000000157,"noteNumber":69,"velocity":61,"programNumber":41},{"time":31777.74600000005,"duration":222.22200000000157,"noteNumber":66,"velocity":61,"programNumber":41},{"time":31999.96800000005,"duration":1111.1100000000006,"noteNumber":71,"velocity":85,"programNumber":41},{"time":33111.07800000005,"duration":55.55550000000221,"noteNumber":71,"velocity":61,"programNumber":41},{"time":33166.633500000054,"duration":55.55550000000221,"noteNumber":72,"velocity":61,"programNumber":41},{"time":33222.18900000006,"duration":55.55550000000221,"noteNumber":69,"velocity":61,"programNumber":41},{"time":33277.74450000006,"duration":55.55550000000221,"noteNumber":71,"velocity":61,"programNumber":41},{"time":33333.30000000006,"duration":222.22200000000157,"noteNumber":72,"velocity":61,"programNumber":41},{"time":33555.52200000006,"duration":222.22200000000157,"noteNumber":69,"velocity":61,"programNumber":41},{"time":33777.744000000064,"duration":74.07400000000052,"noteNumber":74,"velocity":46,"programNumber":41},{"time":33888.85500000006,"duration":74.07400000000052,"noteNumber":74,"velocity":46,"programNumber":41},{"time":33999.96600000006,"duration":74.07400000000052,"noteNumber":74,"velocity":47,"programNumber":41},{"time":34111.077000000056,"duration":74.07400000000052,"noteNumber":74,"velocity":47,"programNumber":41},{"time":34222.18800000005,"duration":74.07400000000052,"noteNumber":74,"velocity":49,"programNumber":41},{"time":34333.29900000005,"duration":74.07400000000052,"noteNumber":74,"velocity":50,"programNumber":41},{"time":34444.41000000005,"duration":74.07400000000052,"noteNumber":74,"velocity":50,"programNumber":41},{"time":34555.521000000044,"duration":74.07400000000052,"noteNumber":74,"velocity":52,"programNumber":41},{"time":34666.63200000004,"duration":74.07400000000052,"noteNumber":76,"velocity":53,"programNumber":41},{"time":34777.74300000004,"duration":74.07400000000052,"noteNumber":76,"velocity":53,"programNumber":41},{"time":34888.854000000036,"duration":74.07400000000052,"noteNumber":76,"velocity":55,"programNumber":41},{"time":34999.96500000003,"duration":74.07400000000052,"noteNumber":76,"velocity":56,"programNumber":41},{"time":35111.07600000003,"duration":74.07400000000052,"noteNumber":78,"velocity":56,"programNumber":41},{"time":35222.18700000003,"duration":74.07400000000052,"noteNumber":78,"velocity":58,"programNumber":41},{"time":35333.298000000024,"duration":74.07400000000052,"noteNumber":78,"velocity":58,"programNumber":41},{"time":35444.40900000002,"duration":74.07400000000052,"noteNumber":78,"velocity":59,"programNumber":41},{"time":35555.52000000002,"duration":74.07400000000052,"noteNumber":79,"velocity":61,"programNumber":41},{"time":35666.631000000016,"duration":74.07400000000052,"noteNumber":79,"velocity":61,"programNumber":41},{"time":35777.74200000001,"duration":74.07400000000052,"noteNumber":79,"velocity":62,"programNumber":41},{"time":35888.85300000001,"duration":74.07400000000052,"noteNumber":79,"velocity":64,"programNumber":41},{"time":35999.96400000001,"duration":74.07400000000052,"noteNumber":81,"velocity":64,"programNumber":41},{"time":36111.075000000004,"duration":74.07400000000052,"noteNumber":81,"velocity":65,"programNumber":41},{"time":36222.186,"duration":74.07400000000052,"noteNumber":81,"velocity":67,"programNumber":41},{"time":36333.297,"duration":74.07400000000052,"noteNumber":81,"velocity":67,"programNumber":41},{"time":36444.407999999996,"duration":74.07400000000052,"noteNumber":83,"velocity":68,"programNumber":41},{"time":36555.51899999999,"duration":74.07400000000052,"noteNumber":83,"velocity":68,"programNumber":41},{"time":36666.62999999999,"duration":74.07400000000052,"noteNumber":83,"velocity":70,"programNumber":41},{"time":36777.74099999999,"duration":74.07400000000052,"noteNumber":83,"velocity":71,"programNumber":41},{"time":36888.851999999984,"duration":74.07400000000052,"noteNumber":85,"velocity":71,"programNumber":41},{"time":36999.96299999998,"duration":74.07400000000052,"noteNumber":85,"velocity":73,"programNumber":41},{"time":37111.07399999998,"duration":74.07400000000052,"noteNumber":85,"velocity":74,"programNumber":41},{"time":37222.184999999976,"duration":74.07400000000052,"noteNumber":85,"velocity":74,"programNumber":41},{"time":37333.29599999997,"duration":666.6659999999974,"noteNumber":86,"velocity":85,"programNumber":41},{"time":37999.96199999997,"duration":222.22200000000157,"noteNumber":81,"velocity":85,"programNumber":41},{"time":38222.18399999997,"duration":333.3329999999987,"noteNumber":85,"velocity":94,"programNumber":41},{"time":38555.51699999997,"duration":111.11099999999715,"noteNumber":81,"velocity":85,"programNumber":41},{"time":38666.62799999997,"duration":333.3329999999987,"noteNumber":85,"velocity":85,"programNumber":41},{"time":38999.96099999997,"duration":111.11099999999715,"noteNumber":81,"velocity":85,"programNumber":41},{"time":39111.071999999964,"duration":666.6659999999974,"noteNumber":86,"velocity":85,"programNumber":41},{"time":39777.73799999996,"duration":222.22200000000157,"noteNumber":81,"velocity":85,"programNumber":41},{"time":39999.95999999996,"duration":333.3329999999987,"noteNumber":85,"velocity":85,"programNumber":41},{"time":40333.29299999996,"duration":111.11099999999715,"noteNumber":81,"velocity":85,"programNumber":41},{"time":40444.40399999996,"duration":333.3329999999987,"noteNumber":85,"velocity":85,"programNumber":41},{"time":40777.73699999996,"duration":111.11099999999715,"noteNumber":81,"velocity":85,"programNumber":41},{"time":40888.847999999954,"duration":111.11099999999715,"noteNumber":86,"velocity":85,"programNumber":41},{"time":41111.06999999995,"duration":333.3329999999987,"noteNumber":86,"velocity":85,"programNumber":41},{"time":41111.06999999995,"duration":333.3329999999987,"noteNumber":78,"velocity":85,"programNumber":41},{"time":41555.513999999945,"duration":333.3329999999987,"noteNumber":86,"velocity":85,"programNumber":41},{"time":41555.513999999945,"duration":333.3329999999987,"noteNumber":78,"velocity":85,"programNumber":41},{"time":41999.95799999994,"duration":333.3329999999987,"noteNumber":86,"velocity":85,"programNumber":41},{"time":41999.95799999994,"duration":333.3329999999987,"noteNumber":78,"velocity":85,"programNumber":41},{"time":42444.40199999994,"duration":222.22200000000157,"noteNumber":78,"velocity":85,"programNumber":41},{"time":42666.62399999994,"duration":111.11099999999715,"noteNumber":76,"velocity":85,"programNumber":41},{"time":42444.40199999994,"duration":333.3329999999987,"noteNumber":86,"velocity":85,"programNumber":41},{"time":42888.84599999993,"duration":333.3329999999987,"noteNumber":86,"velocity":85,"programNumber":41},{"time":42888.84599999993,"duration":333.3329999999987,"noteNumber":76,"velocity":85,"programNumber":41},{"time":43333.28999999993,"duration":333.3329999999987,"noteNumber":86,"velocity":85,"programNumber":41},{"time":43333.28999999993,"duration":333.3329999999987,"noteNumber":76,"velocity":85,"programNumber":41},{"time":43777.733999999924,"duration":333.3329999999987,"noteNumber":86,"velocity":85,"programNumber":41},{"time":43777.733999999924,"duration":333.3329999999987,"noteNumber":76,"velocity":85,"programNumber":41},{"time":44222.17799999992,"duration":222.22200000000157,"noteNumber":86,"velocity":85,"programNumber":41},{"time":44222.17799999992,"duration":222.22200000000157,"noteNumber":76,"velocity":85,"programNumber":41},{"time":44444.39999999992,"duration":166.66649999999936,"noteNumber":85,"velocity":92,"programNumber":41},{"time":44444.39999999992,"duration":166.66649999999936,"noteNumber":76,"velocity":92,"programNumber":41},{"time":44666.62199999992,"duration":166.66649999999936,"noteNumber":81,"velocity":85,"programNumber":41},{"time":44888.843999999925,"duration":166.66649999999936,"noteNumber":86,"velocity":85,"programNumber":41},{"time":45111.065999999926,"duration":166.66649999999936,"noteNumber":81,"velocity":85,"programNumber":41},{"time":45333.28799999993,"duration":166.66649999999936,"noteNumber":85,"velocity":85,"programNumber":41},{"time":45555.50999999993,"duration":166.66649999999936,"noteNumber":81,"velocity":85,"programNumber":41},{"time":45777.73199999993,"duration":166.66649999999936,"noteNumber":86,"velocity":85,"programNumber":41},{"time":45999.95399999993,"duration":166.66649999999936,"noteNumber":81,"velocity":85,"programNumber":41},{"time":46222.175999999934,"duration":166.66649999999936,"noteNumber":85,"velocity":94,"programNumber":41},{"time":46444.397999999936,"duration":166.66649999999936,"noteNumber":69,"velocity":85,"programNumber":41},{"time":46666.61999999994,"duration":166.66649999999936,"noteNumber":69,"velocity":85,"programNumber":41},{"time":46888.84199999994,"duration":166.66649999999936,"noteNumber":69,"velocity":85,"programNumber":41},{"time":47111.06399999994,"duration":444.44400000000314,"noteNumber":69,"velocity":85,"programNumber":41},{"time":47999.95199999994,"duration":666.6659999999902,"noteNumber":81,"velocity":55,"programNumber":41},{"time":48666.61799999993,"duration":74.07400000000052,"noteNumber":79,"velocity":55,"programNumber":41},{"time":48740.69199999993,"duration":74.07400000000052,"noteNumber":78,"velocity":55,"programNumber":41},{"time":48814.76599999993,"duration":74.07400000000052,"noteNumber":76,"velocity":55,"programNumber":41},{"time":48888.83999999993,"duration":222.22200000000157,"noteNumber":74,"velocity":55,"programNumber":41},{"time":49333.283999999934,"duration":222.22200000000157,"noteNumber":83,"velocity":55,"programNumber":41},{"time":49777.72799999994,"duration":222.22200000000157,"noteNumber":79,"velocity":55,"programNumber":41},{"time":50222.17199999994,"duration":222.22200000000157,"noteNumber":76,"velocity":55,"programNumber":41},{"time":50666.61599999994,"duration":222.22200000000157,"noteNumber":81,"velocity":55,"programNumber":41},{"time":51555.50399999994,"duration":666.6659999999974,"noteNumber":78,"velocity":55,"programNumber":41},{"time":52222.16999999994,"duration":74.07400000000052,"noteNumber":76,"velocity":55,"programNumber":41},{"time":52296.24399999994,"duration":74.07400000000052,"noteNumber":74,"velocity":55,"programNumber":41},{"time":52370.31799999994,"duration":74.07400000000052,"noteNumber":73,"velocity":55,"programNumber":41},{"time":52444.39199999994,"duration":222.22200000000157,"noteNumber":71,"velocity":55,"programNumber":41},{"time":52888.835999999945,"duration":222.22200000000157,"noteNumber":79,"velocity":55,"programNumber":41},{"time":53333.27999999995,"duration":888.887999999999,"noteNumber":78,"velocity":55,"programNumber":41},{"time":54222.16799999995,"duration":444.44400000000314,"noteNumber":76,"velocity":49,"programNumber":41},{"time":55333.27799999995,"duration":111.11099999999715,"noteNumber":81,"velocity":55,"programNumber":41},{"time":55555.49999999994,"duration":111.11099999999715,"noteNumber":81,"velocity":55,"programNumber":41},{"time":55777.721999999936,"duration":111.11099999999715,"noteNumber":81,"velocity":55,"programNumber":41},{"time":55999.94399999993,"duration":111.11099999999715,"noteNumber":81,"velocity":55,"programNumber":41},{"time":56222.165999999925,"duration":111.11099999999715,"noteNumber":81,"velocity":55,"programNumber":41},{"time":56444.38799999992,"duration":111.11099999999715,"noteNumber":81,"velocity":55,"programNumber":41},{"time":56666.60999999991,"duration":111.11099999999715,"noteNumber":81,"velocity":55,"programNumber":41},{"time":56888.83199999991,"duration":111.11099999999715,"noteNumber":81,"velocity":55,"programNumber":41},{"time":57111.0539999999,"duration":111.11099999999715,"noteNumber":81,"velocity":55,"programNumber":41},{"time":57333.275999999896,"duration":111.11099999999715,"noteNumber":81,"velocity":55,"programNumber":41},{"time":57555.49799999989,"duration":111.11099999999715,"noteNumber":81,"velocity":55,"programNumber":41},{"time":57777.719999999885,"duration":111.11099999999715,"noteNumber":81,"velocity":55,"programNumber":41},{"time":57999.94199999988,"duration":111.11099999999715,"noteNumber":81,"velocity":55,"programNumber":41},{"time":58222.16399999987,"duration":111.11099999999715,"noteNumber":83,"velocity":55,"programNumber":41},{"time":58444.38599999987,"duration":111.11099999999715,"noteNumber":85,"velocity":55,"programNumber":41},{"time":58666.60799999986,"duration":222.22200000000157,"noteNumber":85,"velocity":55,"programNumber":41},{"time":58888.82999999986,"duration":222.22200000000157,"noteNumber":86,"velocity":55,"programNumber":41},{"time":59333.27399999987,"duration":111.11099999999715,"noteNumber":83,"velocity":55,"programNumber":41},{"time":59555.49599999986,"duration":222.22200000000157,"noteNumber":83,"velocity":55,"programNumber":41},{"time":59777.71799999986,"duration":222.22200000000157,"noteNumber":81,"velocity":55,"programNumber":41},{"time":60222.161999999866,"duration":166.66649999999936,"noteNumber":73,"velocity":55,"programNumber":41},{"time":60444.38399999987,"duration":444.44400000000314,"noteNumber":74,"velocity":55,"programNumber":41},{"time":61111.04999999987,"duration":111.11099999999715,"noteNumber":81,"velocity":55,"programNumber":41},{"time":61333.271999999866,"duration":222.22200000000157,"noteNumber":86,"velocity":55,"programNumber":41},{"time":61555.49399999987,"duration":222.22200000000157,"noteNumber":85,"velocity":55,"programNumber":41},{"time":61777.71599999987,"duration":222.22200000000157,"noteNumber":83,"velocity":55,"programNumber":41},{"time":61999.93799999987,"duration":222.22200000000157,"noteNumber":81,"velocity":55,"programNumber":41},{"time":62222.15999999987,"duration":55.55550000000221,"noteNumber":83,"velocity":55,"programNumber":41},{"time":62277.715499999875,"duration":55.55550000000221,"noteNumber":85,"velocity":55,"programNumber":41},{"time":62333.27099999988,"duration":55.55550000000221,"noteNumber":83,"velocity":55,"programNumber":41},{"time":62388.82649999988,"duration":55.55550000000221,"noteNumber":85,"velocity":55,"programNumber":41},{"time":62444.38199999988,"duration":222.22200000000157,"noteNumber":81,"velocity":55,"programNumber":41},{"time":62888.825999999885,"duration":111.11099999999715,"noteNumber":81,"velocity":55,"programNumber":41},{"time":63111.04799999988,"duration":111.11099999999715,"noteNumber":81,"velocity":55,"programNumber":41},{"time":63333.26999999987,"duration":111.11099999999715,"noteNumber":81,"velocity":55,"programNumber":41},{"time":63555.49199999987,"duration":111.11099999999715,"noteNumber":81,"velocity":55,"programNumber":41},{"time":63777.71399999986,"duration":111.11099999999715,"noteNumber":81,"velocity":55,"programNumber":41},{"time":63999.935999999856,"duration":55.55550000000221,"noteNumber":83,"velocity":55,"programNumber":41},{"time":64055.49149999986,"duration":55.55550000000221,"noteNumber":85,"velocity":55,"programNumber":41},{"time":64111.04699999986,"duration":55.55550000000221,"noteNumber":83,"velocity":55,"programNumber":41},{"time":64166.60249999986,"duration":55.55550000000221,"noteNumber":85,"velocity":55,"programNumber":41},{"time":64222.157999999865,"duration":222.22200000000157,"noteNumber":81,"velocity":55,"programNumber":41},{"time":64666.60199999987,"duration":166.66649999999936,"noteNumber":81,"velocity":55,"programNumber":41},{"time":64888.82399999987,"duration":222.22200000000157,"noteNumber":86,"velocity":55,"programNumber":41},{"time":65111.04599999987,"duration":222.22200000000157,"noteNumber":85,"velocity":55,"programNumber":41},{"time":65333.26799999987,"duration":222.22200000000157,"noteNumber":83,"velocity":55,"programNumber":41},{"time":65555.48999999987,"duration":222.2219999999943,"noteNumber":81,"velocity":55,"programNumber":41},{"time":65777.71199999987,"duration":55.55550000000221,"noteNumber":83,"velocity":55,"programNumber":41},{"time":65833.26749999987,"duration":55.55550000000221,"noteNumber":85,"velocity":55,"programNumber":41},{"time":65888.82299999987,"duration":55.55550000000221,"noteNumber":83,"velocity":55,"programNumber":41},{"time":65944.37849999988,"duration":55.55550000000221,"noteNumber":85,"velocity":55,"programNumber":41},{"time":65999.93399999988,"duration":222.2219999999943,"noteNumber":81,"velocity":55,"programNumber":41},{"time":66444.37799999987,"duration":111.11100000000442,"noteNumber":81,"velocity":55,"programNumber":41},{"time":66666.59999999987,"duration":111.11100000000442,"noteNumber":81,"velocity":55,"programNumber":41},{"time":66888.82199999988,"duration":111.11100000000442,"noteNumber":81,"velocity":55,"programNumber":41},{"time":67111.04399999989,"duration":111.11100000000442,"noteNumber":81,"velocity":55,"programNumber":41},{"time":67333.2659999999,"duration":111.11100000000442,"noteNumber":81,"velocity":53,"programNumber":41},{"time":67555.48799999991,"duration":55.55550000000221,"noteNumber":83,"velocity":49,"programNumber":41},{"time":67611.04349999991,"duration":55.55550000000221,"noteNumber":85,"velocity":49,"programNumber":41},{"time":67666.59899999991,"duration":55.55550000000221,"noteNumber":83,"velocity":47,"programNumber":41},{"time":67722.15449999992,"duration":55.55550000000221,"noteNumber":85,"velocity":47,"programNumber":41},{"time":67777.70999999992,"duration":222.2219999999943,"noteNumber":81,"velocity":46,"programNumber":41},{"time":68444.37599999992,"duration":629.6290000000008,"noteNumber":83,"velocity":91,"programNumber":41},{"time":68444.37599999992,"duration":629.6290000000008,"noteNumber":71,"velocity":91,"programNumber":41},{"time":69111.04199999991,"duration":74.07399999999325,"noteNumber":81,"velocity":89,"programNumber":41},{"time":69185.1159999999,"duration":74.07399999999325,"noteNumber":79,"velocity":92,"programNumber":41},{"time":69259.1899999999,"duration":74.07399999999325,"noteNumber":78,"velocity":94,"programNumber":41},{"time":69333.2639999999,"duration":444.44400000000314,"noteNumber":79,"velocity":97,"programNumber":41},{"time":70222.1519999999,"duration":629.6290000000008,"noteNumber":69,"velocity":85,"programNumber":41},{"time":70222.1519999999,"duration":629.6290000000008,"noteNumber":81,"velocity":85,"programNumber":41},{"time":70888.8179999999,"duration":74.07399999999325,"noteNumber":79,"velocity":86,"programNumber":41},{"time":70962.89199999989,"duration":74.07399999999325,"noteNumber":78,"velocity":86,"programNumber":41},{"time":71036.96599999988,"duration":74.07399999999325,"noteNumber":76,"velocity":89,"programNumber":41},{"time":71111.03999999988,"duration":444.44400000000314,"noteNumber":78,"velocity":92,"programNumber":41},{"time":71999.92799999988,"duration":222.2219999999943,"noteNumber":83,"velocity":85,"programNumber":41},{"time":72222.14999999988,"duration":111.11100000000442,"noteNumber":85,"velocity":85,"programNumber":41},{"time":72333.26099999988,"duration":111.11100000000442,"noteNumber":86,"velocity":89,"programNumber":41},{"time":72444.37199999989,"duration":166.66650000000664,"noteNumber":85,"velocity":94,"programNumber":41},{"time":72666.5939999999,"duration":111.11100000000442,"noteNumber":83,"velocity":95,"programNumber":41},{"time":72888.8159999999,"duration":222.2219999999943,"noteNumber":83,"velocity":97,"programNumber":41},{"time":73111.0379999999,"duration":166.66650000000664,"noteNumber":81,"velocity":101,"programNumber":41},{"time":73333.25999999991,"duration":111.11100000000442,"noteNumber":78,"velocity":104,"programNumber":41},{"time":73555.48199999992,"duration":111.11100000000442,"noteNumber":81,"velocity":104,"programNumber":41},{"time":73777.70399999993,"duration":222.2219999999943,"noteNumber":81,"velocity":104,"programNumber":41},{"time":73999.92599999992,"duration":166.66650000000664,"noteNumber":79,"velocity":103,"programNumber":41},{"time":74222.14799999993,"duration":111.11100000000442,"noteNumber":78,"velocity":98,"programNumber":41},{"time":74444.36999999994,"duration":111.11100000000442,"noteNumber":76,"velocity":89,"programNumber":41},{"time":74666.59199999995,"duration":444.44400000000314,"noteNumber":74,"velocity":85,"programNumber":41},{"time":75333.25799999994,"duration":111.11100000000442,"noteNumber":81,"velocity":53,"programNumber":41},{"time":75555.47999999995,"duration":222.2219999999943,"noteNumber":86,"velocity":53,"programNumber":41},{"time":75777.70199999995,"duration":222.2219999999943,"noteNumber":85,"velocity":53,"programNumber":41},{"time":75999.92399999994,"duration":222.2219999999943,"noteNumber":83,"velocity":53,"programNumber":41},{"time":76222.14599999994,"duration":222.2219999999943,"noteNumber":81,"velocity":53,"programNumber":41},{"time":76444.36799999993,"duration":55.55550000000221,"noteNumber":83,"velocity":55,"programNumber":41},{"time":76499.92349999993,"duration":55.55550000000221,"noteNumber":85,"velocity":55,"programNumber":41},{"time":76555.47899999993,"duration":55.55550000000221,"noteNumber":83,"velocity":55,"programNumber":41},{"time":76611.03449999994,"duration":55.55550000000221,"noteNumber":85,"velocity":55,"programNumber":41},{"time":76666.58999999994,"duration":222.2219999999943,"noteNumber":81,"velocity":55,"programNumber":41},{"time":77111.03399999993,"duration":111.11100000000442,"noteNumber":81,"velocity":55,"programNumber":41},{"time":77333.25599999994,"duration":111.11100000000442,"noteNumber":81,"velocity":55,"programNumber":41},{"time":77555.47799999994,"duration":111.11100000000442,"noteNumber":81,"velocity":55,"programNumber":41},{"time":77777.69999999995,"duration":111.11100000000442,"noteNumber":81,"velocity":55,"programNumber":41},{"time":77999.92199999996,"duration":111.11100000000442,"noteNumber":81,"velocity":55,"programNumber":41},{"time":78222.14399999997,"duration":55.55550000000221,"noteNumber":83,"velocity":55,"programNumber":41},{"time":78277.69949999997,"duration":55.55550000000221,"noteNumber":85,"velocity":55,"programNumber":41},{"time":78333.25499999998,"duration":55.55550000000221,"noteNumber":83,"velocity":55,"programNumber":41},{"time":78388.81049999998,"duration":55.55550000000221,"noteNumber":85,"velocity":55,"programNumber":41},{"time":78444.36599999998,"duration":222.2219999999943,"noteNumber":81,"velocity":55,"programNumber":41},{"time":78888.80999999997,"duration":166.66650000000664,"noteNumber":81,"velocity":55,"programNumber":41},{"time":79111.03199999998,"duration":222.2219999999943,"noteNumber":86,"velocity":55,"programNumber":41},{"time":79333.25399999997,"duration":222.2219999999943,"noteNumber":85,"velocity":55,"programNumber":41},{"time":79555.47599999997,"duration":222.2219999999943,"noteNumber":83,"velocity":55,"programNumber":41},{"time":79777.69799999996,"duration":222.2219999999943,"noteNumber":81,"velocity":55,"programNumber":41},{"time":79999.91999999995,"duration":55.55550000000221,"noteNumber":83,"velocity":55,"programNumber":41},{"time":80055.47549999996,"duration":55.55550000000221,"noteNumber":85,"velocity":55,"programNumber":41},{"time":80111.03099999996,"duration":55.55550000000221,"noteNumber":83,"velocity":55,"programNumber":41},{"time":80166.58649999996,"duration":55.55550000000221,"noteNumber":85,"velocity":55,"programNumber":41},{"time":80222.14199999996,"duration":222.2219999999943,"noteNumber":81,"velocity":55,"programNumber":41},{"time":80666.58599999995,"duration":111.11100000000442,"noteNumber":81,"velocity":55,"programNumber":41},{"time":80888.80799999996,"duration":111.11100000000442,"noteNumber":81,"velocity":55,"programNumber":41},{"time":81111.02999999997,"duration":111.11100000000442,"noteNumber":81,"velocity":55,"programNumber":41},{"time":81333.25199999998,"duration":111.11100000000442,"noteNumber":81,"velocity":55,"programNumber":41},{"time":81555.47399999999,"duration":111.11100000000442,"noteNumber":81,"velocity":55,"programNumber":41},{"time":81777.696,"duration":55.55550000000221,"noteNumber":83,"velocity":59,"programNumber":41},{"time":81833.2515,"duration":55.55550000000221,"noteNumber":85,"velocity":59,"programNumber":41},{"time":81888.807,"duration":55.55550000000221,"noteNumber":83,"velocity":59,"programNumber":41},{"time":81944.3625,"duration":55.55550000000221,"noteNumber":85,"velocity":59,"programNumber":41},{"time":81999.918,"duration":222.2219999999943,"noteNumber":81,"velocity":59,"programNumber":41},{"time":82666.584,"duration":629.6290000000008,"noteNumber":83,"velocity":85,"programNumber":41},{"time":82666.584,"duration":629.6290000000008,"noteNumber":71,"velocity":85,"programNumber":41},{"time":83333.25,"duration":74.07399999999325,"noteNumber":81,"velocity":85,"programNumber":41},{"time":83407.324,"duration":74.07399999999325,"noteNumber":79,"velocity":85,"programNumber":41},{"time":83481.39799999999,"duration":74.07399999999325,"noteNumber":78,"velocity":85,"programNumber":41},{"time":83555.47199999998,"duration":444.44400000000314,"noteNumber":79,"velocity":85,"programNumber":41},{"time":84444.35999999999,"duration":629.6290000000008,"noteNumber":69,"velocity":85,"programNumber":41},{"time":84444.35999999999,"duration":629.6290000000008,"noteNumber":81,"velocity":85,"programNumber":41},{"time":85111.02599999998,"duration":74.07399999999325,"noteNumber":79,"velocity":85,"programNumber":41},{"time":85185.09999999998,"duration":74.07399999999325,"noteNumber":78,"velocity":85,"programNumber":41},{"time":85259.17399999997,"duration":74.07399999999325,"noteNumber":76,"velocity":85,"programNumber":41},{"time":85333.24799999996,"duration":444.44400000000314,"noteNumber":78,"velocity":85,"programNumber":41},{"time":86222.13599999997,"duration":222.2219999999943,"noteNumber":83,"velocity":80,"programNumber":41},{"time":86444.35799999996,"duration":111.11100000000442,"noteNumber":85,"velocity":82,"programNumber":41},{"time":86555.46899999997,"duration":111.11100000000442,"noteNumber":86,"velocity":83,"programNumber":41},{"time":86666.57999999997,"duration":166.66650000000664,"noteNumber":85,"velocity":83,"programNumber":41},{"time":86888.80199999998,"duration":111.11100000000442,"noteNumber":83,"velocity":85,"programNumber":41},{"time":87111.02399999999,"duration":222.2219999999943,"noteNumber":83,"velocity":86,"programNumber":41},{"time":87333.24599999998,"duration":166.66650000000664,"noteNumber":81,"velocity":88,"programNumber":41},{"time":87555.468,"duration":111.11100000000442,"noteNumber":78,"velocity":88,"programNumber":41},{"time":87777.69,"duration":111.11100000000442,"noteNumber":81,"velocity":88,"programNumber":41},{"time":87999.91200000001,"duration":222.2219999999943,"noteNumber":81,"velocity":88,"programNumber":41},{"time":88222.134,"duration":166.66650000000664,"noteNumber":79,"velocity":88,"programNumber":41},{"time":88444.35600000001,"duration":111.11100000000442,"noteNumber":78,"velocity":88,"programNumber":41},{"time":88666.57800000002,"duration":111.11100000000442,"noteNumber":76,"velocity":88,"programNumber":41},{"time":88888.80000000003,"duration":166.66650000000664,"noteNumber":74,"velocity":88,"programNumber":41},{"time":89111.02200000004,"duration":166.66650000000664,"noteNumber":69,"velocity":88,"programNumber":41},{"time":89333.24400000005,"duration":166.66650000000664,"noteNumber":71,"velocity":88,"programNumber":41},{"time":89555.46600000006,"duration":166.66650000000664,"noteNumber":73,"velocity":85,"programNumber":41},{"time":89777.68800000007,"duration":111.11100000000442,"noteNumber":74,"velocity":82,"programNumber":41},{"time":89999.91000000008,"duration":111.11100000000442,"noteNumber":74,"velocity":85,"programNumber":41},{"time":90222.13200000009,"duration":55.55550000000221,"noteNumber":76,"velocity":85,"programNumber":41},{"time":90277.68750000009,"duration":55.55550000000221,"noteNumber":78,"velocity":85,"programNumber":41},{"time":90333.24300000009,"duration":55.55550000000221,"noteNumber":76,"velocity":85,"programNumber":41},{"time":90388.79850000009,"duration":55.55550000000221,"noteNumber":78,"velocity":85,"programNumber":41},{"time":90444.3540000001,"duration":111.11100000000442,"noteNumber":74,"velocity":85,"programNumber":41},{"time":90555.4650000001,"duration":111.11100000000442,"noteNumber":76,"velocity":85,"programNumber":41},{"time":90666.5760000001,"duration":222.2219999999943,"noteNumber":78,"velocity":85,"programNumber":41},{"time":90888.7980000001,"duration":166.66650000000664,"noteNumber":73,"velocity":85,"programNumber":41},{"time":91111.0200000001,"duration":166.66650000000664,"noteNumber":74,"velocity":85,"programNumber":41},{"time":91333.24200000011,"duration":166.66650000000664,"noteNumber":76,"velocity":85,"programNumber":41},{"time":91555.46400000012,"duration":166.66650000000664,"noteNumber":78,"velocity":85,"programNumber":41},{"time":91777.68600000013,"duration":166.66650000000664,"noteNumber":78,"velocity":85,"programNumber":41},{"time":91999.90800000014,"duration":55.55550000000221,"noteNumber":79,"velocity":85,"programNumber":41},{"time":92055.46350000014,"duration":55.55550000000221,"noteNumber":81,"velocity":86,"programNumber":41},{"time":92111.01900000015,"duration":55.55550000000221,"noteNumber":79,"velocity":88,"programNumber":41},{"time":92166.57450000015,"duration":55.55550000000221,"noteNumber":81,"velocity":88,"programNumber":41},{"time":92222.13000000015,"duration":111.11100000000442,"noteNumber":78,"velocity":88,"programNumber":41},{"time":92333.24100000015,"duration":111.11100000000442,"noteNumber":79,"velocity":88,"programNumber":41},{"time":92444.35200000016,"duration":166.66650000000664,"noteNumber":81,"velocity":88,"programNumber":41},{"time":92666.57400000017,"duration":166.66650000000664,"noteNumber":81,"velocity":91,"programNumber":41},{"time":92888.79600000018,"duration":55.55550000000221,"noteNumber":82,"velocity":92,"programNumber":41},{"time":92944.35150000018,"duration":55.55550000000221,"noteNumber":83,"velocity":92,"programNumber":41},{"time":92999.90700000018,"duration":55.55550000000221,"noteNumber":82,"velocity":94,"programNumber":41},{"time":93055.46250000018,"duration":55.55550000000221,"noteNumber":83,"velocity":94,"programNumber":41},{"time":93111.01800000019,"duration":111.11100000000442,"noteNumber":80,"velocity":95,"programNumber":41},{"time":93222.12900000019,"duration":111.11100000000442,"noteNumber":82,"velocity":97,"programNumber":41},{"time":93333.2400000002,"duration":444.44400000000314,"noteNumber":83,"velocity":100,"programNumber":41},{"time":94222.1280000002,"duration":666.6659999999974,"noteNumber":71,"velocity":47,"programNumber":41},{"time":94888.7940000002,"duration":166.66650000000664,"noteNumber":76,"velocity":47,"programNumber":41},{"time":95111.0160000002,"duration":222.2219999999943,"noteNumber":74,"velocity":47,"programNumber":41},{"time":95333.2380000002,"duration":222.2219999999943,"noteNumber":73,"velocity":47,"programNumber":41},{"time":95555.4600000002,"duration":222.2219999999943,"noteNumber":71,"velocity":49,"programNumber":41},{"time":95777.68200000019,"duration":222.2219999999943,"noteNumber":69,"velocity":50,"programNumber":41},{"time":95999.90400000018,"duration":222.2219999999943,"noteNumber":74,"velocity":50,"programNumber":41},{"time":96444.34800000017,"duration":222.2219999999943,"noteNumber":78,"velocity":50,"programNumber":41},{"time":96888.79200000016,"duration":222.2219999999943,"noteNumber":74,"velocity":41,"programNumber":41},{"time":97777.68000000015,"duration":444.44400000000314,"noteNumber":71,"velocity":85,"programNumber":41},{"time":97777.68000000015,"duration":444.44400000000314,"noteNumber":79,"velocity":85,"programNumber":41},{"time":97777.68000000015,"duration":444.44400000000314,"noteNumber":62,"velocity":85,"programNumber":41},{"time":98444.34600000015,"duration":111.11100000000442,"noteNumber":74,"velocity":85,"programNumber":41},{"time":98666.56800000016,"duration":444.44400000000314,"noteNumber":79,"velocity":85,"programNumber":41},{"time":99333.23400000016,"duration":111.11100000000442,"noteNumber":74,"velocity":85,"programNumber":41},{"time":99555.45600000017,"duration":111.11100000000442,"noteNumber":79,"velocity":85,"programNumber":41},{"time":99777.67800000017,"duration":111.11100000000442,"noteNumber":74,"velocity":85,"programNumber":41},{"time":99999.90000000018,"duration":111.11100000000442,"noteNumber":79,"velocity":85,"programNumber":41},{"time":100222.12200000019,"duration":111.11100000000442,"noteNumber":83,"velocity":85,"programNumber":41},{"time":100444.3440000002,"duration":444.44400000000314,"noteNumber":86,"velocity":85,"programNumber":41},{"time":101333.23200000021,"duration":444.44400000000314,"noteNumber":84,"velocity":85,"programNumber":41},{"time":101999.8980000002,"duration":111.11100000000442,"noteNumber":81,"velocity":76,"programNumber":41},{"time":102222.12000000021,"duration":444.44400000000314,"noteNumber":84,"velocity":85,"programNumber":41},{"time":102888.78600000021,"duration":111.11100000000442,"noteNumber":81,"velocity":76,"programNumber":41},{"time":103111.00800000022,"duration":111.11100000000442,"noteNumber":84,"velocity":85,"programNumber":41},{"time":103333.23000000023,"duration":111.11100000000442,"noteNumber":81,"velocity":74,"programNumber":41},{"time":103555.45200000024,"duration":111.11100000000442,"noteNumber":78,"velocity":85,"programNumber":41},{"time":103777.67400000025,"duration":111.11100000000442,"noteNumber":81,"velocity":71,"programNumber":41},{"time":103999.89600000026,"duration":444.44400000000314,"noteNumber":74,"velocity":85,"programNumber":41},{"time":104888.78400000026,"duration":222.2219999999943,"noteNumber":71,"velocity":85,"programNumber":41},{"time":104888.78400000026,"duration":222.2219999999943,"noteNumber":79,"velocity":85,"programNumber":41},{"time":104888.78400000026,"duration":222.2219999999943,"noteNumber":62,"velocity":85,"programNumber":41},{"time":105333.22800000025,"duration":666.6659999999974,"noteNumber":79,"velocity":85,"programNumber":41},{"time":105999.89400000025,"duration":222.2219999999943,"noteNumber":83,"velocity":85,"programNumber":41},{"time":106222.11600000024,"duration":111.11100000000442,"noteNumber":81,"velocity":85,"programNumber":41},{"time":106444.33800000025,"duration":111.11100000000442,"noteNumber":79,"velocity":85,"programNumber":41},{"time":106666.56000000026,"duration":55.55550000000221,"noteNumber":79,"velocity":85,"programNumber":41},{"time":106722.11550000026,"duration":55.55550000000221,"noteNumber":81,"velocity":85,"programNumber":41},{"time":106777.67100000026,"duration":55.55550000000221,"noteNumber":79,"velocity":85,"programNumber":41},{"time":106833.22650000027,"duration":55.55550000000221,"noteNumber":81,"velocity":85,"programNumber":41},{"time":106888.78200000027,"duration":185.18499999999767,"noteNumber":78,"velocity":85,"programNumber":41},{"time":107111.00400000026,"duration":666.6659999999974,"noteNumber":78,"velocity":85,"programNumber":41},{"time":107777.67000000026,"duration":222.2219999999943,"noteNumber":81,"velocity":85,"programNumber":41},{"time":107999.89200000025,"duration":111.11100000000442,"noteNumber":84,"velocity":85,"programNumber":41},{"time":108222.11400000026,"duration":111.11100000000442,"noteNumber":78,"velocity":85,"programNumber":41},{"time":108444.33600000027,"duration":222.2219999999943,"noteNumber":81,"velocity":85,"programNumber":41},{"time":108666.55800000027,"duration":111.11100000000442,"noteNumber":79,"velocity":85,"programNumber":41},{"time":108888.78000000028,"duration":666.6659999999974,"noteNumber":79,"velocity":85,"programNumber":41},{"time":109555.44600000027,"duration":222.2219999999943,"noteNumber":83,"velocity":85,"programNumber":41},{"time":109777.66800000027,"duration":111.11100000000442,"noteNumber":81,"velocity":85,"programNumber":41},{"time":109999.89000000028,"duration":111.11100000000442,"noteNumber":79,"velocity":85,"programNumber":41},{"time":110222.11200000028,"duration":55.55550000000221,"noteNumber":79,"velocity":85,"programNumber":41},{"time":110277.66750000029,"duration":55.55550000000221,"noteNumber":81,"velocity":85,"programNumber":41},{"time":110333.22300000029,"duration":55.55550000000221,"noteNumber":79,"velocity":85,"programNumber":41},{"time":110388.77850000029,"duration":55.55550000000221,"noteNumber":81,"velocity":85,"programNumber":41},{"time":110444.3340000003,"duration":185.18499999999767,"noteNumber":78,"velocity":85,"programNumber":41},{"time":110666.55600000029,"duration":666.6659999999974,"noteNumber":78,"velocity":85,"programNumber":41},{"time":111333.22200000029,"duration":222.2219999999943,"noteNumber":81,"velocity":85,"programNumber":41},{"time":111555.44400000028,"duration":111.11100000000442,"noteNumber":84,"velocity":85,"programNumber":41},{"time":111777.66600000029,"duration":111.11100000000442,"noteNumber":78,"velocity":85,"programNumber":41},{"time":111999.8880000003,"duration":111.11100000000442,"noteNumber":79,"velocity":85,"programNumber":41},{"time":112222.1100000003,"duration":111.11100000000442,"noteNumber":79,"velocity":85,"programNumber":41},{"time":112444.33200000032,"duration":111.11100000000442,"noteNumber":79,"velocity":85,"programNumber":41},{"time":112555.44300000032,"duration":111.11100000000442,"noteNumber":78,"velocity":85,"programNumber":41},{"time":112666.55400000032,"duration":111.11100000000442,"noteNumber":76,"velocity":85,"programNumber":41},{"time":112777.66500000033,"duration":111.11100000000442,"noteNumber":78,"velocity":85,"programNumber":41},{"time":112888.77600000033,"duration":111.11100000000442,"noteNumber":79,"velocity":85,"programNumber":41},{"time":113110.99800000034,"duration":111.11100000000442,"noteNumber":79,"velocity":85,"programNumber":41},{"time":113333.22000000035,"duration":111.11100000000442,"noteNumber":83,"velocity":85,"programNumber":41},{"time":113444.33100000035,"duration":111.11100000000442,"noteNumber":81,"velocity":85,"programNumber":41},{"time":113555.44200000036,"duration":111.11100000000442,"noteNumber":79,"velocity":85,"programNumber":41},{"time":113666.55300000036,"duration":111.11100000000442,"noteNumber":81,"velocity":85,"programNumber":41},{"time":113777.66400000037,"duration":111.11100000000442,"noteNumber":83,"velocity":85,"programNumber":41},{"time":113999.88600000038,"duration":111.11100000000442,"noteNumber":83,"velocity":85,"programNumber":41},{"time":114222.10800000039,"duration":111.11100000000442,"noteNumber":86,"velocity":85,"programNumber":41},{"time":114333.21900000039,"duration":111.11100000000442,"noteNumber":84,"velocity":85,"programNumber":41},{"time":114444.3300000004,"duration":111.11100000000442,"noteNumber":83,"velocity":85,"programNumber":41},{"time":114555.4410000004,"duration":111.11100000000442,"noteNumber":84,"velocity":85,"programNumber":41},{"time":114666.5520000004,"duration":444.44400000000314,"noteNumber":86,"velocity":85,"programNumber":41},{"time":115555.44000000041,"duration":888.8880000000063,"noteNumber":74,"velocity":52,"programNumber":41},{"time":116444.32800000042,"duration":888.8880000000063,"noteNumber":76,"velocity":40,"programNumber":41},{"time":117333.21600000042,"duration":111.11100000000442,"noteNumber":74,"velocity":44,"programNumber":41},{"time":117444.32700000043,"duration":296.2960000000021,"noteNumber":72,"velocity":46,"programNumber":41},{"time":117777.66000000043,"duration":444.44400000000314,"noteNumber":72,"velocity":46,"programNumber":41},{"time":118222.10400000043,"duration":111.11100000000442,"noteNumber":72,"velocity":47,"programNumber":41},{"time":118333.21500000043,"duration":296.2960000000021,"noteNumber":71,"velocity":47,"programNumber":41},{"time":118666.54800000043,"duration":444.44400000000314,"noteNumber":71,"velocity":47,"programNumber":41},{"time":119110.99200000043,"duration":111.11100000000442,"noteNumber":71,"velocity":47,"programNumber":41},{"time":119222.10300000044,"duration":296.2960000000021,"noteNumber":69,"velocity":47,"programNumber":41},{"time":119555.43600000044,"duration":444.44400000000314,"noteNumber":69,"velocity":47,"programNumber":41},{"time":119999.88000000044,"duration":222.2219999999943,"noteNumber":67,"velocity":47,"programNumber":41},{"time":120222.10200000044,"duration":111.11100000000442,"noteNumber":66,"velocity":47,"programNumber":41},{"time":120444.32400000044,"duration":111.11100000000442,"noteNumber":64,"velocity":47,"programNumber":41},{"time":120666.54600000045,"duration":111.11100000000442,"noteNumber":66,"velocity":47,"programNumber":41},{"time":120888.76800000046,"duration":222.2219999999943,"noteNumber":67,"velocity":47,"programNumber":41},{"time":121333.21200000045,"duration":222.2219999999943,"noteNumber":69,"velocity":47,"programNumber":41},{"time":121777.65600000044,"duration":222.2219999999943,"noteNumber":71,"velocity":47,"programNumber":41},{"time":122666.54400000043,"duration":888.8880000000063,"noteNumber":74,"velocity":54,"programNumber":41},{"time":123555.43200000044,"duration":888.8880000000063,"noteNumber":76,"velocity":59,"programNumber":41},{"time":124444.32000000044,"duration":222.2219999999943,"noteNumber":74,"velocity":47,"programNumber":41},{"time":124666.54200000044,"duration":111.11100000000442,"noteNumber":72,"velocity":47,"programNumber":41},{"time":124888.76400000045,"duration":111.11100000000442,"noteNumber":72,"velocity":47,"programNumber":41},{"time":125110.98600000046,"duration":111.11100000000442,"noteNumber":72,"velocity":47,"programNumber":41},{"time":125333.20800000046,"duration":222.2219999999943,"noteNumber":72,"velocity":47,"programNumber":41},{"time":125555.43000000046,"duration":111.11100000000442,"noteNumber":71,"velocity":47,"programNumber":41},{"time":125777.65200000047,"duration":111.11100000000442,"noteNumber":71,"velocity":47,"programNumber":41},{"time":125999.87400000048,"duration":111.11100000000442,"noteNumber":71,"velocity":47,"programNumber":41},{"time":126222.09600000049,"duration":222.2219999999943,"noteNumber":71,"velocity":47,"programNumber":41},{"time":126444.31800000048,"duration":111.11100000000442,"noteNumber":69,"velocity":47,"programNumber":41},{"time":126666.54000000049,"duration":166.66650000000664,"noteNumber":69,"velocity":47,"programNumber":41},{"time":126888.7620000005,"duration":166.66650000000664,"noteNumber":69,"velocity":47,"programNumber":41},{"time":127110.9840000005,"duration":222.2219999999943,"noteNumber":67,"velocity":47,"programNumber":41},{"time":127333.2060000005,"duration":222.2219999999943,"noteNumber":66,"velocity":47,"programNumber":41},{"time":127555.4280000005,"duration":222.2219999999943,"noteNumber":64,"velocity":47,"programNumber":41},{"time":127777.65000000049,"duration":222.2219999999943,"noteNumber":66,"velocity":47,"programNumber":41},{"time":127999.87200000048,"duration":1111.1100000000006,"noteNumber":67,"velocity":95,"programNumber":41},{"time":127999.87200000048,"duration":1111.1100000000006,"noteNumber":55,"velocity":95,"programNumber":41},{"time":129110.98200000048,"duration":55.55550000000221,"noteNumber":67,"velocity":61,"programNumber":41},{"time":129166.53750000049,"duration":55.55550000000221,"noteNumber":69,"velocity":61,"programNumber":41},{"time":129222.09300000049,"duration":55.55550000000221,"noteNumber":66,"velocity":61,"programNumber":41},{"time":129277.64850000049,"duration":55.55550000000221,"noteNumber":67,"velocity":61,"programNumber":41},{"time":129333.20400000049,"duration":222.2219999999943,"noteNumber":69,"velocity":61,"programNumber":41},{"time":129555.42600000049,"duration":222.2219999999943,"noteNumber":66,"velocity":61,"programNumber":41},{"time":129777.64800000048,"duration":1111.1100000000006,"noteNumber":71,"velocity":85,"programNumber":41},{"time":130888.75800000048,"duration":55.55550000000221,"noteNumber":71,"velocity":61,"programNumber":41},{"time":130944.31350000048,"duration":55.55550000000221,"noteNumber":72,"velocity":61,"programNumber":41},{"time":130999.86900000049,"duration":55.55550000000221,"noteNumber":69,"velocity":61,"programNumber":41},{"time":131055.42450000049,"duration":55.55549999998766,"noteNumber":71,"velocity":61,"programNumber":41},{"time":131110.98000000048,"duration":222.22200000000885,"noteNumber":72,"velocity":61,"programNumber":41},{"time":131333.20200000048,"duration":222.22200000000885,"noteNumber":69,"velocity":61,"programNumber":41},{"time":131555.4240000005,"duration":74.07399999999325,"noteNumber":74,"velocity":46,"programNumber":41},{"time":131666.5350000005,"duration":74.07399999999325,"noteNumber":74,"velocity":46,"programNumber":41},{"time":131777.6460000005,"duration":74.07399999999325,"noteNumber":74,"velocity":47,"programNumber":41},{"time":131888.7570000005,"duration":74.07399999999325,"noteNumber":74,"velocity":47,"programNumber":41},{"time":131999.8680000005,"duration":74.07399999999325,"noteNumber":74,"velocity":49,"programNumber":41},{"time":132110.97900000052,"duration":74.07399999999325,"noteNumber":74,"velocity":50,"programNumber":41},{"time":132222.09000000052,"duration":74.07399999999325,"noteNumber":74,"velocity":50,"programNumber":41},{"time":132333.20100000052,"duration":74.07399999999325,"noteNumber":74,"velocity":52,"programNumber":41},{"time":132444.31200000053,"duration":74.07399999999325,"noteNumber":76,"velocity":53,"programNumber":41},{"time":132555.42300000053,"duration":74.07399999999325,"noteNumber":76,"velocity":53,"programNumber":41},{"time":132666.53400000054,"duration":74.07399999999325,"noteNumber":76,"velocity":55,"programNumber":41},{"time":132777.64500000054,"duration":74.07399999999325,"noteNumber":76,"velocity":56,"programNumber":41},{"time":132888.75600000055,"duration":74.07399999999325,"noteNumber":78,"velocity":56,"programNumber":41},{"time":132999.86700000055,"duration":74.07399999999325,"noteNumber":78,"velocity":58,"programNumber":41},{"time":133110.97800000056,"duration":74.07399999999325,"noteNumber":78,"velocity":58,"programNumber":41},{"time":133222.08900000056,"duration":74.07399999999325,"noteNumber":78,"velocity":59,"programNumber":41},{"time":133333.20000000056,"duration":74.07399999999325,"noteNumber":79,"velocity":61,"programNumber":41},{"time":133444.31100000057,"duration":74.07399999999325,"noteNumber":79,"velocity":61,"programNumber":41},{"time":133555.42200000057,"duration":74.07399999999325,"noteNumber":79,"velocity":62,"programNumber":41},{"time":133666.53300000058,"duration":74.07399999999325,"noteNumber":79,"velocity":64,"programNumber":41},{"time":133777.64400000058,"duration":74.07399999999325,"noteNumber":81,"velocity":64,"programNumber":41},{"time":133888.7550000006,"duration":74.07399999999325,"noteNumber":81,"velocity":65,"programNumber":41},{"time":133999.8660000006,"duration":74.07399999999325,"noteNumber":81,"velocity":67,"programNumber":41},{"time":134110.9770000006,"duration":74.07399999999325,"noteNumber":81,"velocity":67,"programNumber":41},{"time":134222.0880000006,"duration":74.07399999999325,"noteNumber":83,"velocity":68,"programNumber":41},{"time":134333.1990000006,"duration":74.07399999999325,"noteNumber":83,"velocity":68,"programNumber":41},{"time":134444.3100000006,"duration":74.07399999999325,"noteNumber":83,"velocity":70,"programNumber":41},{"time":134555.4210000006,"duration":74.07399999999325,"noteNumber":83,"velocity":71,"programNumber":41},{"time":134666.53200000062,"duration":74.07399999999325,"noteNumber":85,"velocity":71,"programNumber":41},{"time":134777.64300000062,"duration":74.07399999999325,"noteNumber":85,"velocity":73,"programNumber":41},{"time":134888.75400000063,"duration":74.07399999999325,"noteNumber":85,"velocity":74,"programNumber":41},{"time":134999.86500000063,"duration":74.07399999999325,"noteNumber":85,"velocity":74,"programNumber":41},{"time":135110.97600000064,"duration":666.6659999999974,"noteNumber":86,"velocity":92,"programNumber":41},{"time":135777.64200000063,"duration":222.22200000000885,"noteNumber":81,"velocity":85,"programNumber":41},{"time":135999.86400000064,"duration":333.33300000001327,"noteNumber":85,"velocity":85,"programNumber":41},{"time":136333.19700000065,"duration":111.11100000000442,"noteNumber":81,"velocity":85,"programNumber":41},{"time":136444.30800000066,"duration":333.33300000001327,"noteNumber":85,"velocity":85,"programNumber":41},{"time":136777.64100000067,"duration":111.11100000000442,"noteNumber":81,"velocity":85,"programNumber":41},{"time":136888.75200000068,"duration":666.6659999999974,"noteNumber":86,"velocity":98,"programNumber":41},{"time":137555.41800000067,"duration":222.22200000000885,"noteNumber":81,"velocity":85,"programNumber":41},{"time":137777.64000000068,"duration":333.33300000001327,"noteNumber":85,"velocity":85,"programNumber":41},{"time":138110.9730000007,"duration":111.11100000000442,"noteNumber":81,"velocity":85,"programNumber":41},{"time":138222.0840000007,"duration":333.33300000001327,"noteNumber":85,"velocity":85,"programNumber":41},{"time":138555.4170000007,"duration":111.11100000000442,"noteNumber":81,"velocity":85,"programNumber":41},{"time":138666.52800000072,"duration":111.11100000000442,"noteNumber":86,"velocity":85,"programNumber":41},{"time":138888.75000000073,"duration":333.33300000001327,"noteNumber":86,"velocity":98,"programNumber":41},{"time":138888.75000000073,"duration":333.33300000001327,"noteNumber":78,"velocity":98,"programNumber":41},{"time":139333.19400000075,"duration":333.33300000001327,"noteNumber":86,"velocity":85,"programNumber":41},{"time":139333.19400000075,"duration":333.33300000001327,"noteNumber":78,"velocity":85,"programNumber":41},{"time":139777.63800000076,"duration":333.33300000001327,"noteNumber":86,"velocity":85,"programNumber":41},{"time":139777.63800000076,"duration":333.33300000001327,"noteNumber":78,"velocity":85,"programNumber":41},{"time":140222.08200000078,"duration":222.22200000000885,"noteNumber":78,"velocity":85,"programNumber":41},{"time":140444.3040000008,"duration":111.11100000000442,"noteNumber":76,"velocity":85,"programNumber":41},{"time":140222.08200000078,"duration":333.33300000001327,"noteNumber":86,"velocity":85,"programNumber":41},{"time":140666.5260000008,"duration":333.33300000001327,"noteNumber":86,"velocity":85,"programNumber":41},{"time":140666.5260000008,"duration":333.33300000001327,"noteNumber":76,"velocity":85,"programNumber":41},{"time":141110.97000000082,"duration":333.33300000001327,"noteNumber":86,"velocity":85,"programNumber":41},{"time":141110.97000000082,"duration":333.33300000001327,"noteNumber":76,"velocity":85,"programNumber":41},{"time":141555.41400000083,"duration":333.33300000001327,"noteNumber":86,"velocity":85,"programNumber":41},{"time":141555.41400000083,"duration":333.33300000001327,"noteNumber":76,"velocity":85,"programNumber":41},{"time":141999.85800000085,"duration":222.22200000000885,"noteNumber":86,"velocity":85,"programNumber":41},{"time":141999.85800000085,"duration":222.22200000000885,"noteNumber":76,"velocity":85,"programNumber":41},{"time":142222.08000000086,"duration":166.66649999999208,"noteNumber":85,"velocity":97,"programNumber":41},{"time":142222.08000000086,"duration":166.66649999999208,"noteNumber":76,"velocity":97,"programNumber":41},{"time":142444.30200000084,"duration":166.66649999999208,"noteNumber":81,"velocity":85,"programNumber":41},{"time":142666.52400000082,"duration":166.66649999999208,"noteNumber":86,"velocity":85,"programNumber":41},{"time":142888.7460000008,"duration":166.66649999999208,"noteNumber":81,"velocity":85,"programNumber":41},{"time":143110.96800000078,"duration":166.66649999999208,"noteNumber":85,"velocity":85,"programNumber":41},{"time":143333.19000000076,"duration":166.66649999999208,"noteNumber":81,"velocity":85,"programNumber":41},{"time":143555.41200000074,"duration":166.66649999999208,"noteNumber":86,"velocity":85,"programNumber":41},{"time":143777.63400000072,"duration":166.66649999999208,"noteNumber":81,"velocity":85,"programNumber":41},{"time":143999.8560000007,"duration":166.66649999999208,"noteNumber":85,"velocity":97,"programNumber":41},{"time":144222.07800000068,"duration":166.66649999999208,"noteNumber":69,"velocity":85,"programNumber":41},{"time":144444.30000000066,"duration":166.66649999999208,"noteNumber":69,"velocity":85,"programNumber":41},{"time":144666.52200000064,"duration":166.66649999999208,"noteNumber":69,"velocity":85,"programNumber":41},{"time":144888.74400000062,"duration":444.4439999999886,"noteNumber":69,"velocity":85,"programNumber":41},{"time":145777.6320000006,"duration":666.6659999999974,"noteNumber":81,"velocity":55,"programNumber":41},{"time":146444.2980000006,"duration":74.07399999999325,"noteNumber":79,"velocity":55,"programNumber":41},{"time":146518.37200000059,"duration":74.07399999999325,"noteNumber":78,"velocity":55,"programNumber":41},{"time":146592.44600000058,"duration":74.07399999999325,"noteNumber":76,"velocity":55,"programNumber":41},{"time":146666.52000000057,"duration":222.22200000000885,"noteNumber":74,"velocity":55,"programNumber":41},{"time":147110.9640000006,"duration":222.22200000000885,"noteNumber":83,"velocity":55,"programNumber":41},{"time":147555.4080000006,"duration":222.22200000000885,"noteNumber":79,"velocity":55,"programNumber":41},{"time":147999.85200000062,"duration":222.22200000000885,"noteNumber":76,"velocity":55,"programNumber":41},{"time":148444.29600000064,"duration":222.22200000000885,"noteNumber":81,"velocity":55,"programNumber":41},{"time":149333.18400000065,"duration":666.6659999999974,"noteNumber":78,"velocity":55,"programNumber":41},{"time":149999.85000000065,"duration":74.07399999999325,"noteNumber":76,"velocity":55,"programNumber":41},{"time":150073.92400000064,"duration":74.07399999999325,"noteNumber":74,"velocity":55,"programNumber":41},{"time":150147.99800000063,"duration":74.07399999999325,"noteNumber":73,"velocity":55,"programNumber":41},{"time":150222.07200000063,"duration":222.22200000000885,"noteNumber":71,"velocity":55,"programNumber":41},{"time":150666.51600000064,"duration":222.22200000000885,"noteNumber":79,"velocity":55,"programNumber":41},{"time":151110.96000000066,"duration":888.8880000000063,"noteNumber":78,"velocity":55,"programNumber":41},{"time":151999.84800000067,"duration":444.4439999999886,"noteNumber":76,"velocity":43,"programNumber":41},{"time":153110.95800000065,"duration":111.11100000000442,"noteNumber":81,"velocity":55,"programNumber":41},{"time":153333.18000000066,"duration":111.11100000000442,"noteNumber":81,"velocity":55,"programNumber":41},{"time":153555.40200000067,"duration":111.11100000000442,"noteNumber":81,"velocity":55,"programNumber":41},{"time":153777.62400000068,"duration":111.11100000000442,"noteNumber":81,"velocity":55,"programNumber":41},{"time":153999.8460000007,"duration":111.11100000000442,"noteNumber":81,"velocity":55,"programNumber":41},{"time":154222.0680000007,"duration":111.11100000000442,"noteNumber":81,"velocity":55,"programNumber":41},{"time":154444.2900000007,"duration":111.11100000000442,"noteNumber":81,"velocity":55,"programNumber":41},{"time":154666.51200000072,"duration":111.11100000000442,"noteNumber":81,"velocity":55,"programNumber":41},{"time":154888.73400000072,"duration":111.11100000000442,"noteNumber":81,"velocity":55,"programNumber":41},{"time":155110.95600000073,"duration":111.11100000000442,"noteNumber":81,"velocity":55,"programNumber":41},{"time":155333.17800000074,"duration":111.11100000000442,"noteNumber":81,"velocity":55,"programNumber":41},{"time":155555.40000000075,"duration":111.11100000000442,"noteNumber":81,"velocity":55,"programNumber":41},{"time":155777.62200000076,"duration":111.11100000000442,"noteNumber":81,"velocity":55,"programNumber":41},{"time":155999.84400000077,"duration":111.11100000000442,"noteNumber":83,"velocity":55,"programNumber":41},{"time":156222.06600000078,"duration":111.11100000000442,"noteNumber":85,"velocity":55,"programNumber":41},{"time":156444.2880000008,"duration":222.22200000000885,"noteNumber":85,"velocity":55,"programNumber":41},{"time":156666.5100000008,"duration":222.22200000000885,"noteNumber":86,"velocity":55,"programNumber":41},{"time":157110.9540000008,"duration":111.11100000000442,"noteNumber":83,"velocity":55,"programNumber":41},{"time":157333.17600000082,"duration":222.22200000000885,"noteNumber":83,"velocity":55,"programNumber":41},{"time":157555.39800000083,"duration":222.22200000000885,"noteNumber":81,"velocity":55,"programNumber":41},{"time":157999.84200000085,"duration":166.66649999999208,"noteNumber":73,"velocity":55,"programNumber":41},{"time":158222.06400000083,"duration":444.4439999999886,"noteNumber":74,"velocity":55,"programNumber":41},{"time":158888.73000000083,"duration":111.11100000000442,"noteNumber":81,"velocity":55,"programNumber":41},{"time":159110.95200000083,"duration":222.22200000000885,"noteNumber":86,"velocity":55,"programNumber":41},{"time":159333.17400000084,"duration":222.22200000000885,"noteNumber":85,"velocity":55,"programNumber":41},{"time":159555.39600000085,"duration":222.22200000000885,"noteNumber":83,"velocity":55,"programNumber":41},{"time":159777.61800000086,"duration":222.22200000000885,"noteNumber":81,"velocity":55,"programNumber":41},{"time":159999.84000000087,"duration":55.55549999998766,"noteNumber":83,"velocity":55,"programNumber":41},{"time":160055.39550000086,"duration":55.55549999998766,"noteNumber":85,"velocity":55,"programNumber":41},{"time":160110.95100000084,"duration":55.55549999998766,"noteNumber":83,"velocity":55,"programNumber":41},{"time":160166.50650000083,"duration":55.55549999998766,"noteNumber":85,"velocity":55,"programNumber":41},{"time":160222.06200000082,"duration":222.22200000000885,"noteNumber":81,"velocity":55,"programNumber":41},{"time":160666.50600000084,"duration":111.11100000000442,"noteNumber":81,"velocity":55,"programNumber":41},{"time":160888.72800000085,"duration":111.11100000000442,"noteNumber":81,"velocity":55,"programNumber":41},{"time":161110.95000000086,"duration":111.11100000000442,"noteNumber":81,"velocity":55,"programNumber":41},{"time":161333.17200000086,"duration":111.11100000000442,"noteNumber":81,"velocity":55,"programNumber":41},{"time":161555.39400000087,"duration":111.11100000000442,"noteNumber":81,"velocity":55,"programNumber":41},{"time":161777.61600000088,"duration":55.55549999998766,"noteNumber":83,"velocity":55,"programNumber":41},{"time":161833.17150000087,"duration":55.55549999998766,"noteNumber":85,"velocity":55,"programNumber":41},{"time":161888.72700000086,"duration":55.55549999998766,"noteNumber":83,"velocity":55,"programNumber":41},{"time":161944.28250000085,"duration":55.55549999998766,"noteNumber":85,"velocity":55,"programNumber":41},{"time":161999.83800000083,"duration":222.22200000000885,"noteNumber":81,"velocity":55,"programNumber":41},{"time":162444.28200000085,"duration":166.66649999999208,"noteNumber":81,"velocity":55,"programNumber":41},{"time":162666.50400000083,"duration":222.22200000000885,"noteNumber":86,"velocity":55,"programNumber":41},{"time":162888.72600000084,"duration":222.22200000000885,"noteNumber":85,"velocity":55,"programNumber":41},{"time":163110.94800000085,"duration":222.22200000000885,"noteNumber":83,"velocity":55,"programNumber":41},{"time":163333.17000000086,"duration":222.22200000000885,"noteNumber":81,"velocity":55,"programNumber":41},{"time":163555.39200000087,"duration":55.55549999998766,"noteNumber":83,"velocity":55,"programNumber":41},{"time":163610.94750000085,"duration":55.55549999998766,"noteNumber":85,"velocity":55,"programNumber":41},{"time":163666.50300000084,"duration":55.55549999998766,"noteNumber":83,"velocity":55,"programNumber":41},{"time":163722.05850000083,"duration":55.55549999998766,"noteNumber":85,"velocity":55,"programNumber":41},{"time":163777.61400000082,"duration":222.22200000000885,"noteNumber":81,"velocity":55,"programNumber":41},{"time":164222.05800000083,"duration":111.11100000000442,"noteNumber":81,"velocity":55,"programNumber":41},{"time":164444.28000000084,"duration":111.11100000000442,"noteNumber":81,"velocity":55,"programNumber":41},{"time":164666.50200000085,"duration":111.11100000000442,"noteNumber":81,"velocity":55,"programNumber":41},{"time":164888.72400000086,"duration":111.11100000000442,"noteNumber":81,"velocity":55,"programNumber":41},{"time":165110.94600000087,"duration":111.11100000000442,"noteNumber":81,"velocity":55,"programNumber":41},{"time":165333.16800000088,"duration":55.55549999998766,"noteNumber":83,"velocity":55,"programNumber":41},{"time":165388.72350000087,"duration":55.55549999998766,"noteNumber":85,"velocity":55,"programNumber":41},{"time":165444.27900000085,"duration":55.55549999998766,"noteNumber":83,"velocity":55,"programNumber":41},{"time":165499.83450000084,"duration":55.55549999998766,"noteNumber":85,"velocity":55,"programNumber":41},{"time":165555.39000000083,"duration":222.22200000000885,"noteNumber":81,"velocity":55,"programNumber":41},{"time":166222.05600000083,"duration":629.6289999999863,"noteNumber":83,"velocity":94,"programNumber":41},{"time":166222.05600000083,"duration":629.6289999999863,"noteNumber":71,"velocity":94,"programNumber":41},{"time":166888.72200000082,"duration":74.07399999999325,"noteNumber":81,"velocity":83,"programNumber":41},{"time":166962.79600000082,"duration":74.07399999999325,"noteNumber":79,"velocity":83,"programNumber":41},{"time":167036.8700000008,"duration":74.07399999999325,"noteNumber":78,"velocity":83,"programNumber":41},{"time":167110.9440000008,"duration":444.4439999999886,"noteNumber":79,"velocity":83,"programNumber":41},{"time":167999.83200000078,"duration":629.6289999999863,"noteNumber":69,"velocity":85,"programNumber":41},{"time":167999.83200000078,"duration":629.6289999999863,"noteNumber":81,"velocity":85,"programNumber":41},{"time":168666.49800000078,"duration":74.07399999999325,"noteNumber":79,"velocity":85,"programNumber":41},{"time":168740.57200000077,"duration":74.07399999999325,"noteNumber":78,"velocity":85,"programNumber":41},{"time":168814.64600000076,"duration":74.07399999999325,"noteNumber":76,"velocity":85,"programNumber":41},{"time":168888.72000000076,"duration":444.4439999999886,"noteNumber":78,"velocity":85,"programNumber":41},{"time":169777.60800000074,"duration":222.22200000000885,"noteNumber":83,"velocity":79,"programNumber":41},{"time":169999.83000000074,"duration":111.11100000000442,"noteNumber":85,"velocity":80,"programNumber":41},{"time":170110.94100000075,"duration":111.11100000000442,"noteNumber":86,"velocity":82,"programNumber":41},{"time":170222.05200000075,"duration":166.66649999999208,"noteNumber":85,"velocity":82,"programNumber":41},{"time":170444.27400000073,"duration":111.11100000000442,"noteNumber":83,"velocity":82,"programNumber":41},{"time":170666.49600000074,"duration":222.22200000000885,"noteNumber":83,"velocity":83,"programNumber":41},{"time":170888.71800000075,"duration":166.66649999999208,"noteNumber":81,"velocity":86,"programNumber":41},{"time":171110.94000000073,"duration":111.11100000000442,"noteNumber":78,"velocity":86,"programNumber":41},{"time":171333.16200000074,"duration":111.11100000000442,"noteNumber":81,"velocity":88,"programNumber":41},{"time":171555.38400000075,"duration":222.22200000000885,"noteNumber":81,"velocity":88,"programNumber":41},{"time":171777.60600000076,"duration":166.66649999999208,"noteNumber":79,"velocity":83,"programNumber":41},{"time":171999.82800000074,"duration":111.11100000000442,"noteNumber":78,"velocity":79,"programNumber":41},{"time":172222.05000000075,"duration":111.11100000000442,"noteNumber":76,"velocity":76,"programNumber":41},{"time":172444.27200000075,"duration":444.4439999999886,"noteNumber":74,"velocity":85,"programNumber":41},{"time":173110.93800000075,"duration":111.11100000000442,"noteNumber":81,"velocity":53,"programNumber":41},{"time":173333.16000000076,"duration":222.22200000000885,"noteNumber":86,"velocity":53,"programNumber":41},{"time":173555.38200000077,"duration":222.22200000000885,"noteNumber":85,"velocity":53,"programNumber":41},{"time":173777.60400000078,"duration":222.22200000000885,"noteNumber":83,"velocity":53,"programNumber":41},{"time":173999.8260000008,"duration":222.22200000000885,"noteNumber":81,"velocity":53,"programNumber":41},{"time":174222.0480000008,"duration":55.55549999998766,"noteNumber":83,"velocity":55,"programNumber":41},{"time":174277.60350000078,"duration":55.55549999998766,"noteNumber":85,"velocity":55,"programNumber":41},{"time":174333.15900000077,"duration":55.55549999998766,"noteNumber":83,"velocity":55,"programNumber":41},{"time":174388.71450000076,"duration":55.55549999998766,"noteNumber":85,"velocity":55,"programNumber":41},{"time":174444.27000000075,"duration":222.22200000000885,"noteNumber":81,"velocity":55,"programNumber":41},{"time":174888.71400000076,"duration":111.11100000000442,"noteNumber":81,"velocity":55,"programNumber":41},{"time":175110.93600000077,"duration":111.11100000000442,"noteNumber":81,"velocity":55,"programNumber":41},{"time":175333.15800000078,"duration":111.11100000000442,"noteNumber":81,"velocity":55,"programNumber":41},{"time":175555.3800000008,"duration":111.11100000000442,"noteNumber":81,"velocity":55,"programNumber":41},{"time":175777.6020000008,"duration":111.11100000000442,"noteNumber":81,"velocity":55,"programNumber":41},{"time":175999.8240000008,"duration":55.55549999998766,"noteNumber":83,"velocity":55,"programNumber":41},{"time":176055.3795000008,"duration":55.55549999998766,"noteNumber":85,"velocity":55,"programNumber":41},{"time":176110.93500000078,"duration":55.55549999998766,"noteNumber":83,"velocity":55,"programNumber":41},{"time":176166.49050000077,"duration":55.55549999998766,"noteNumber":85,"velocity":55,"programNumber":41},{"time":176222.04600000076,"duration":222.22200000000885,"noteNumber":81,"velocity":55,"programNumber":41},{"time":176666.49000000078,"duration":166.66649999999208,"noteNumber":81,"velocity":55,"programNumber":41},{"time":176888.71200000076,"duration":222.22200000000885,"noteNumber":86,"velocity":55,"programNumber":41},{"time":177110.93400000077,"duration":222.22200000000885,"noteNumber":85,"velocity":55,"programNumber":41},{"time":177333.15600000077,"duration":222.22200000000885,"noteNumber":83,"velocity":55,"programNumber":41},{"time":177555.37800000078,"duration":222.22200000000885,"noteNumber":81,"velocity":55,"programNumber":41},{"time":177777.6000000008,"duration":55.55549999998766,"noteNumber":83,"velocity":55,"programNumber":41},{"time":177833.15550000078,"duration":55.55549999998766,"noteNumber":85,"velocity":55,"programNumber":41},{"time":177888.71100000077,"duration":55.55549999998766,"noteNumber":83,"velocity":55,"programNumber":41},{"time":177944.26650000075,"duration":55.55549999998766,"noteNumber":85,"velocity":55,"programNumber":41},{"time":177999.82200000074,"duration":222.22200000000885,"noteNumber":81,"velocity":55,"programNumber":41},{"time":178444.26600000076,"duration":111.11100000000442,"noteNumber":81,"velocity":55,"programNumber":41},{"time":178666.48800000077,"duration":111.11100000000442,"noteNumber":81,"velocity":55,"programNumber":41},{"time":178888.71000000078,"duration":111.11100000000442,"noteNumber":81,"velocity":55,"programNumber":41},{"time":179110.9320000008,"duration":111.11100000000442,"noteNumber":81,"velocity":55,"programNumber":41},{"time":179333.1540000008,"duration":111.11100000000442,"noteNumber":81,"velocity":55,"programNumber":41},{"time":179555.3760000008,"duration":55.55549999998766,"noteNumber":83,"velocity":59,"programNumber":41},{"time":179610.9315000008,"duration":55.55549999998766,"noteNumber":85,"velocity":59,"programNumber":41},{"time":179666.48700000078,"duration":55.55549999998766,"noteNumber":83,"velocity":59,"programNumber":41},{"time":179722.04250000077,"duration":55.55549999998766,"noteNumber":85,"velocity":59,"programNumber":41},{"time":179777.59800000075,"duration":222.22200000000885,"noteNumber":81,"velocity":59,"programNumber":41},{"time":180444.26400000075,"duration":629.6289999999863,"noteNumber":83,"velocity":85,"programNumber":41},{"time":180444.26400000075,"duration":629.6289999999863,"noteNumber":71,"velocity":85,"programNumber":41},{"time":181110.93000000075,"duration":74.07399999999325,"noteNumber":81,"velocity":85,"programNumber":41},{"time":181185.00400000074,"duration":74.07399999999325,"noteNumber":79,"velocity":85,"programNumber":41},{"time":181259.07800000074,"duration":74.07399999999325,"noteNumber":78,"velocity":85,"programNumber":41},{"time":181333.15200000073,"duration":444.4439999999886,"noteNumber":79,"velocity":85,"programNumber":41},{"time":182222.0400000007,"duration":629.6289999999863,"noteNumber":69,"velocity":85,"programNumber":41},{"time":182222.0400000007,"duration":629.6289999999863,"noteNumber":81,"velocity":85,"programNumber":41},{"time":182888.7060000007,"duration":74.07399999999325,"noteNumber":79,"velocity":85,"programNumber":41},{"time":182962.7800000007,"duration":74.07399999999325,"noteNumber":78,"velocity":85,"programNumber":41},{"time":183036.8540000007,"duration":74.07399999999325,"noteNumber":76,"velocity":85,"programNumber":41},{"time":183110.92800000068,"duration":444.4439999999886,"noteNumber":78,"velocity":85,"programNumber":41},{"time":183999.81600000066,"duration":222.22200000000885,"noteNumber":83,"velocity":85,"programNumber":41},{"time":184222.03800000067,"duration":111.11100000000442,"noteNumber":85,"velocity":85,"programNumber":41},{"time":184333.14900000067,"duration":111.11100000000442,"noteNumber":86,"velocity":85,"programNumber":41},{"time":184444.26000000068,"duration":166.66649999999208,"noteNumber":85,"velocity":85,"programNumber":41},{"time":184666.48200000066,"duration":111.11100000000442,"noteNumber":83,"velocity":85,"programNumber":41},{"time":184888.70400000067,"duration":222.22200000000885,"noteNumber":83,"velocity":95,"programNumber":41},{"time":185110.92600000068,"duration":166.66649999999208,"noteNumber":81,"velocity":85,"programNumber":41},{"time":185333.14800000066,"duration":111.11100000000442,"noteNumber":78,"velocity":85,"programNumber":41},{"time":185555.37000000066,"duration":111.11100000000442,"noteNumber":81,"velocity":85,"programNumber":41},{"time":185777.59200000067,"duration":222.22200000000885,"noteNumber":81,"velocity":85,"programNumber":41},{"time":185999.81400000068,"duration":166.66649999999208,"noteNumber":79,"velocity":85,"programNumber":41},{"time":186222.03600000066,"duration":111.11100000000442,"noteNumber":78,"velocity":85,"programNumber":41},{"time":186444.25800000067,"duration":111.11100000000442,"noteNumber":76,"velocity":85,"programNumber":41},{"time":186666.48000000068,"duration":166.66649999999208,"noteNumber":74,"velocity":85,"programNumber":41},{"time":186888.70200000066,"duration":166.66649999999208,"noteNumber":69,"velocity":85,"programNumber":41},{"time":187110.92400000064,"duration":166.66649999999208,"noteNumber":71,"velocity":85,"programNumber":41},{"time":187333.14600000062,"duration":166.66649999999208,"noteNumber":73,"velocity":85,"programNumber":41},{"time":187555.3680000006,"duration":111.11100000000442,"noteNumber":74,"velocity":85,"programNumber":41},{"time":187777.5900000006,"duration":111.11100000000442,"noteNumber":74,"velocity":85,"programNumber":41},{"time":187999.81200000062,"duration":55.55549999998766,"noteNumber":76,"velocity":85,"programNumber":41},{"time":188055.3675000006,"duration":55.55549999998766,"noteNumber":78,"velocity":85,"programNumber":41},{"time":188110.9230000006,"duration":55.55549999998766,"noteNumber":76,"velocity":85,"programNumber":41},{"time":188166.47850000058,"duration":55.55549999998766,"noteNumber":78,"velocity":85,"programNumber":41},{"time":188222.03400000057,"duration":111.11100000000442,"noteNumber":74,"velocity":85,"programNumber":41},{"time":188333.14500000057,"duration":111.11100000000442,"noteNumber":76,"velocity":85,"programNumber":41},{"time":188444.25600000058,"duration":222.22200000000885,"noteNumber":78,"velocity":85,"programNumber":41},{"time":188666.47800000058,"duration":166.66649999999208,"noteNumber":73,"velocity":85,"programNumber":41},{"time":188888.70000000056,"duration":166.66649999999208,"noteNumber":74,"velocity":85,"programNumber":41},{"time":189110.92200000054,"duration":166.66649999999208,"noteNumber":76,"velocity":85,"programNumber":41},{"time":189333.14400000052,"duration":166.66649999999208,"noteNumber":78,"velocity":85,"programNumber":41},{"time":189555.3660000005,"duration":166.66649999999208,"noteNumber":78,"velocity":85,"programNumber":41},{"time":189777.58800000048,"duration":55.55549999998766,"noteNumber":79,"velocity":85,"programNumber":41},{"time":189833.14350000047,"duration":55.55549999998766,"noteNumber":81,"velocity":86,"programNumber":41},{"time":189888.69900000046,"duration":55.55549999998766,"noteNumber":79,"velocity":86,"programNumber":41},{"time":189944.25450000045,"duration":55.55549999998766,"noteNumber":81,"velocity":86,"programNumber":41},{"time":189999.81000000043,"duration":111.11100000000442,"noteNumber":78,"velocity":86,"programNumber":41},{"time":190110.92100000044,"duration":111.11100000000442,"noteNumber":79,"velocity":88,"programNumber":41},{"time":190222.03200000044,"duration":166.66649999999208,"noteNumber":81,"velocity":88,"programNumber":41},{"time":190444.25400000042,"duration":166.66649999999208,"noteNumber":81,"velocity":88,"programNumber":41},{"time":190666.4760000004,"duration":55.55549999998766,"noteNumber":82,"velocity":89,"programNumber":41},{"time":190722.0315000004,"duration":55.55549999998766,"noteNumber":83,"velocity":91,"programNumber":41},{"time":190777.58700000038,"duration":55.55549999998766,"noteNumber":82,"velocity":91,"programNumber":41},{"time":190833.14250000037,"duration":55.55549999998766,"noteNumber":83,"velocity":91,"programNumber":41},{"time":190888.69800000035,"duration":111.11100000000442,"noteNumber":80,"velocity":92,"programNumber":41},{"time":190999.80900000036,"duration":111.11100000000442,"noteNumber":82,"velocity":94,"programNumber":41},{"time":191110.92000000036,"duration":444.4439999999886,"noteNumber":83,"velocity":98,"programNumber":41},{"time":191999.80800000034,"duration":666.6659999999974,"noteNumber":71,"velocity":40,"programNumber":41},{"time":192666.47400000034,"duration":166.66649999999208,"noteNumber":76,"velocity":47,"programNumber":41},{"time":192888.69600000032,"duration":222.22200000000885,"noteNumber":74,"velocity":49,"programNumber":41},{"time":193110.91800000033,"duration":222.22200000000885,"noteNumber":73,"velocity":49,"programNumber":41},{"time":193333.14000000033,"duration":222.22200000000885,"noteNumber":71,"velocity":43,"programNumber":41},{"time":193555.36200000034,"duration":222.22200000000885,"noteNumber":69,"velocity":41,"programNumber":41},{"time":193777.58400000035,"duration":222.22200000000885,"noteNumber":74,"velocity":40,"programNumber":41},{"time":194222.02800000037,"duration":222.22200000000885,"noteNumber":78,"velocity":59,"programNumber":41},{"time":194666.4720000004,"duration":222.22200000000885,"noteNumber":74,"velocity":57,"programNumber":41},{"time":195555.3600000004,"duration":444.4439999999886,"noteNumber":74,"velocity":100,"programNumber":41},{"time":195555.3600000004,"duration":444.4439999999886,"noteNumber":62,"velocity":100,"programNumber":41},{"time":196222.0260000004,"duration":166.66649999999208,"noteNumber":69,"velocity":91,"programNumber":41},{"time":196444.24800000037,"duration":444.4439999999886,"noteNumber":74,"velocity":91,"programNumber":41},{"time":197110.91400000037,"duration":166.66649999999208,"noteNumber":69,"velocity":91,"programNumber":41},{"time":197333.13600000035,"duration":166.66649999999208,"noteNumber":74,"velocity":91,"programNumber":41},{"time":197555.35800000033,"duration":166.66649999999208,"noteNumber":69,"velocity":91,"programNumber":41},{"time":197777.5800000003,"duration":166.66649999999208,"noteNumber":74,"velocity":91,"programNumber":41},{"time":197999.8020000003,"duration":166.66649999999208,"noteNumber":78,"velocity":91,"programNumber":41},{"time":198222.02400000027,"duration":444.4439999999886,"noteNumber":81,"velocity":91,"programNumber":41},{"time":199110.91200000024,"duration":444.4439999999886,"noteNumber":81,"velocity":91,"programNumber":41},{"time":199777.57800000024,"duration":166.66649999999208,"noteNumber":78,"velocity":91,"programNumber":41},{"time":199999.80000000022,"duration":444.4439999999886,"noteNumber":81,"velocity":91,"programNumber":41},{"time":200666.46600000022,"duration":166.66649999999208,"noteNumber":78,"velocity":91,"programNumber":41},{"time":200888.6880000002,"duration":166.66649999999208,"noteNumber":81,"velocity":91,"programNumber":41},{"time":201110.91000000018,"duration":166.66649999999208,"noteNumber":78,"velocity":91,"programNumber":41},{"time":201333.13200000016,"duration":166.66649999999208,"noteNumber":75,"velocity":91,"programNumber":41},{"time":201555.35400000014,"duration":166.66649999999208,"noteNumber":78,"velocity":91,"programNumber":41},{"time":201777.57600000012,"duration":444.4439999999886,"noteNumber":71,"velocity":91,"programNumber":41},{"time":203333.1300000001,"duration":166.66649999999208,"noteNumber":79,"velocity":55,"programNumber":41},{"time":203555.35200000007,"duration":222.22200000000885,"noteNumber":84,"velocity":55,"programNumber":41},{"time":203777.57400000008,"duration":222.22200000000885,"noteNumber":83,"velocity":55,"programNumber":41},{"time":203999.7960000001,"duration":222.22200000000885,"noteNumber":81,"velocity":55,"programNumber":41},{"time":204222.0180000001,"duration":222.22200000000885,"noteNumber":79,"velocity":55,"programNumber":41},{"time":204444.2400000001,"duration":55.55549999998766,"noteNumber":81,"velocity":55,"programNumber":41},{"time":204499.7955000001,"duration":55.55549999998766,"noteNumber":83,"velocity":55,"programNumber":41},{"time":204555.35100000008,"duration":55.55549999998766,"noteNumber":81,"velocity":55,"programNumber":41},{"time":204610.90650000007,"duration":55.55549999998766,"noteNumber":83,"velocity":55,"programNumber":41},{"time":204666.46200000006,"duration":222.22200000000885,"noteNumber":79,"velocity":55,"programNumber":41},{"time":205110.90600000008,"duration":111.11100000000442,"noteNumber":79,"velocity":55,"programNumber":41},{"time":205333.12800000008,"duration":111.11100000000442,"noteNumber":79,"velocity":55,"programNumber":41},{"time":205555.3500000001,"duration":111.11100000000442,"noteNumber":79,"velocity":55,"programNumber":41},{"time":205777.5720000001,"duration":111.11100000000442,"noteNumber":79,"velocity":55,"programNumber":41},{"time":205999.7940000001,"duration":111.11100000000442,"noteNumber":79,"velocity":55,"programNumber":41},{"time":206222.01600000012,"duration":55.55549999998766,"noteNumber":81,"velocity":55,"programNumber":41},{"time":206277.5715000001,"duration":55.55549999998766,"noteNumber":83,"velocity":55,"programNumber":41},{"time":206333.1270000001,"duration":55.55549999998766,"noteNumber":81,"velocity":55,"programNumber":41},{"time":206388.68250000008,"duration":55.55549999998766,"noteNumber":83,"velocity":55,"programNumber":41},{"time":206444.23800000007,"duration":222.22200000000885,"noteNumber":79,"velocity":55,"programNumber":41},{"time":206888.6820000001,"duration":166.66649999999208,"noteNumber":79,"velocity":55,"programNumber":41},{"time":207110.90400000007,"duration":222.22200000000885,"noteNumber":84,"velocity":55,"programNumber":41},{"time":207333.12600000008,"duration":222.22200000000885,"noteNumber":83,"velocity":55,"programNumber":41},{"time":207555.3480000001,"duration":222.22200000000885,"noteNumber":81,"velocity":55,"programNumber":41},{"time":207777.5700000001,"duration":222.22200000000885,"noteNumber":79,"velocity":55,"programNumber":41},{"time":207999.7920000001,"duration":55.55549999998766,"noteNumber":81,"velocity":55,"programNumber":41},{"time":208055.3475000001,"duration":55.55549999998766,"noteNumber":83,"velocity":55,"programNumber":41},{"time":208110.90300000008,"duration":55.55549999998766,"noteNumber":81,"velocity":55,"programNumber":41},{"time":208166.45850000007,"duration":55.55549999998766,"noteNumber":83,"velocity":55,"programNumber":41},{"time":208222.01400000005,"duration":222.22200000000885,"noteNumber":79,"velocity":55,"programNumber":41},{"time":208666.45800000007,"duration":111.11100000000442,"noteNumber":79,"velocity":55,"programNumber":41},{"time":208888.68000000008,"duration":111.11100000000442,"noteNumber":79,"velocity":55,"programNumber":41},{"time":209110.9020000001,"duration":111.11100000000442,"noteNumber":79,"velocity":55,"programNumber":41},{"time":209333.1240000001,"duration":111.11100000000442,"noteNumber":79,"velocity":55,"programNumber":41},{"time":209555.3460000001,"duration":111.11100000000442,"noteNumber":79,"velocity":55,"programNumber":41},{"time":209777.56800000012,"duration":55.55549999998766,"noteNumber":81,"velocity":55,"programNumber":41},{"time":209833.1235000001,"duration":55.55549999998766,"noteNumber":83,"velocity":55,"programNumber":41},{"time":209888.6790000001,"duration":55.55549999998766,"noteNumber":81,"velocity":55,"programNumber":41},{"time":209944.23450000008,"duration":55.55549999998766,"noteNumber":83,"velocity":55,"programNumber":41},{"time":209999.79000000007,"duration":222.22200000000885,"noteNumber":79,"velocity":55,"programNumber":41},{"time":210444.23400000008,"duration":166.66649999999208,"noteNumber":79,"velocity":55,"programNumber":41},{"time":210666.45600000006,"duration":222.22200000000885,"noteNumber":84,"velocity":55,"programNumber":41},{"time":210888.67800000007,"duration":222.22200000000885,"noteNumber":83,"velocity":55,"programNumber":41},{"time":211110.90000000008,"duration":222.22200000000885,"noteNumber":81,"velocity":55,"programNumber":41},{"time":211333.1220000001,"duration":222.22200000000885,"noteNumber":79,"velocity":55,"programNumber":41},{"time":211555.3440000001,"duration":55.55549999998766,"noteNumber":81,"velocity":55,"programNumber":41},{"time":211610.8995000001,"duration":55.55549999998766,"noteNumber":83,"velocity":55,"programNumber":41},{"time":211666.45500000007,"duration":55.55549999998766,"noteNumber":81,"velocity":55,"programNumber":41},{"time":211722.01050000006,"duration":55.55549999998766,"noteNumber":83,"velocity":55,"programNumber":41},{"time":211777.56600000005,"duration":222.22200000000885,"noteNumber":80,"velocity":55,"programNumber":41},{"time":212222.01000000007,"duration":111.11100000000442,"noteNumber":80,"velocity":55,"programNumber":41},{"time":212444.23200000008,"duration":111.11100000000442,"noteNumber":80,"velocity":55,"programNumber":41},{"time":212666.45400000009,"duration":111.11100000000442,"noteNumber":80,"velocity":55,"programNumber":41},{"time":212888.6760000001,"duration":111.11100000000442,"noteNumber":80,"velocity":55,"programNumber":41},{"time":213110.8980000001,"duration":111.11100000000442,"noteNumber":80,"velocity":55,"programNumber":41},{"time":213333.1200000001,"duration":55.55549999998766,"noteNumber":83,"velocity":55,"programNumber":41},{"time":213388.6755000001,"duration":55.55549999998766,"noteNumber":84,"velocity":55,"programNumber":41},{"time":213444.2310000001,"duration":55.55549999998766,"noteNumber":83,"velocity":55,"programNumber":41},{"time":213499.78650000007,"duration":55.55549999998766,"noteNumber":84,"velocity":55,"programNumber":41},{"time":213555.34200000006,"duration":222.22200000000885,"noteNumber":81,"velocity":55,"programNumber":41},{"time":213999.78600000008,"duration":166.66649999999208,"noteNumber":81,"velocity":55,"programNumber":41},{"time":214222.00800000006,"duration":222.22200000000885,"noteNumber":84,"velocity":55,"programNumber":41},{"time":214444.23000000007,"duration":222.22200000000885,"noteNumber":82,"velocity":55,"programNumber":41},{"time":214666.45200000008,"duration":222.22200000000885,"noteNumber":81,"velocity":55,"programNumber":41},{"time":214888.6740000001,"duration":222.22200000000885,"noteNumber":79,"velocity":55,"programNumber":41},{"time":215110.8960000001,"duration":55.55549999998766,"noteNumber":79,"velocity":55,"programNumber":41},{"time":215166.45150000008,"duration":55.55549999998766,"noteNumber":81,"velocity":55,"programNumber":41},{"time":215222.00700000007,"duration":55.55549999998766,"noteNumber":79,"velocity":55,"programNumber":41},{"time":215277.56250000006,"duration":55.55549999998766,"noteNumber":81,"velocity":55,"programNumber":41},{"time":215333.11800000005,"duration":222.22200000000885,"noteNumber":78,"velocity":55,"programNumber":41},{"time":215777.56200000006,"duration":111.11100000000442,"noteNumber":78,"velocity":55,"programNumber":41},{"time":215999.78400000007,"duration":111.11100000000442,"noteNumber":78,"velocity":55,"programNumber":41},{"time":216222.00600000008,"duration":111.11100000000442,"noteNumber":78,"velocity":55,"programNumber":41},{"time":216444.2280000001,"duration":111.11100000000442,"noteNumber":78,"velocity":55,"programNumber":41},{"time":216666.4500000001,"duration":111.11100000000442,"noteNumber":78,"velocity":55,"programNumber":41},{"time":216888.6720000001,"duration":55.55549999998766,"noteNumber":81,"velocity":55,"programNumber":41},{"time":216944.2275000001,"duration":55.55549999998766,"noteNumber":82,"velocity":55,"programNumber":41},{"time":216999.78300000008,"duration":55.55549999998766,"noteNumber":81,"velocity":55,"programNumber":41},{"time":217055.33850000007,"duration":55.55549999998766,"noteNumber":82,"velocity":55,"programNumber":41},{"time":217110.89400000006,"duration":222.22200000000885,"noteNumber":79,"velocity":55,"programNumber":41},{"time":217555.33800000008,"duration":166.66649999999208,"noteNumber":75,"velocity":55,"programNumber":41},{"time":217777.56000000006,"duration":222.22200000000885,"noteNumber":79,"velocity":55,"programNumber":41},{"time":217999.78200000006,"duration":222.22200000000885,"noteNumber":77,"velocity":55,"programNumber":41},{"time":218222.00400000007,"duration":222.22200000000885,"noteNumber":76,"velocity":55,"programNumber":41},{"time":218444.22600000008,"duration":222.22200000000885,"noteNumber":74,"velocity":55,"programNumber":41},{"time":218666.4480000001,"duration":55.55549999998766,"noteNumber":74,"velocity":55,"programNumber":41},{"time":218722.00350000008,"duration":55.55549999998766,"noteNumber":75,"velocity":55,"programNumber":41},{"time":218777.55900000007,"duration":55.55549999998766,"noteNumber":74,"velocity":55,"programNumber":41},{"time":218833.11450000005,"duration":55.55549999998766,"noteNumber":75,"velocity":55,"programNumber":41},{"time":218888.67000000004,"duration":222.22200000000885,"noteNumber":73,"velocity":55,"programNumber":41},{"time":219333.11400000006,"duration":111.11100000000442,"noteNumber":73,"velocity":55,"programNumber":41},{"time":219555.33600000007,"duration":111.11100000000442,"noteNumber":73,"velocity":55,"programNumber":41},{"time":219777.55800000008,"duration":111.11100000000442,"noteNumber":73,"velocity":55,"programNumber":41},{"time":219999.7800000001,"duration":111.11100000000442,"noteNumber":73,"velocity":55,"programNumber":41},{"time":220222.0020000001,"duration":111.11100000000442,"noteNumber":73,"velocity":55,"programNumber":41},{"time":220444.2240000001,"duration":55.55549999998766,"noteNumber":76,"velocity":53,"programNumber":41},{"time":220499.7795000001,"duration":55.55549999998766,"noteNumber":78,"velocity":53,"programNumber":41},{"time":220555.33500000008,"duration":55.55549999998766,"noteNumber":76,"velocity":53,"programNumber":41},{"time":220610.89050000007,"duration":55.55549999998766,"noteNumber":78,"velocity":53,"programNumber":41},{"time":220666.44600000005,"duration":222.22200000000885,"noteNumber":74,"velocity":53,"programNumber":41},{"time":221110.89000000007,"duration":222.22200000000885,"noteNumber":62,"velocity":91,"programNumber":41},{"time":221333.11200000008,"duration":222.22200000000885,"noteNumber":64,"velocity":91,"programNumber":41},{"time":221555.3340000001,"duration":222.22200000000885,"noteNumber":66,"velocity":91,"programNumber":41},{"time":221777.5560000001,"duration":222.22200000000885,"noteNumber":67,"velocity":91,"programNumber":41},{"time":221999.7780000001,"duration":222.22200000000885,"noteNumber":69,"velocity":91,"programNumber":41},{"time":222222.00000000012,"duration":222.22200000000885,"noteNumber":72,"velocity":91,"programNumber":41},{"time":222444.22200000013,"duration":222.22200000000885,"noteNumber":70,"velocity":91,"programNumber":41},{"time":222888.66600000014,"duration":222.22200000000885,"noteNumber":66,"velocity":91,"programNumber":41},{"time":223110.88800000015,"duration":222.22200000000885,"noteNumber":67,"velocity":91,"programNumber":41},{"time":223333.11000000016,"duration":222.22200000000885,"noteNumber":69,"velocity":91,"programNumber":41},{"time":223555.33200000017,"duration":222.22200000000885,"noteNumber":70,"velocity":91,"programNumber":41},{"time":223777.55400000018,"duration":222.22200000000885,"noteNumber":73,"velocity":91,"programNumber":41},{"time":223999.7760000002,"duration":222.22200000000885,"noteNumber":76,"velocity":91,"programNumber":41},{"time":224221.9980000002,"duration":222.22200000000885,"noteNumber":74,"velocity":91,"programNumber":41},{"time":224666.4420000002,"duration":222.22200000000885,"noteNumber":74,"velocity":53,"programNumber":41},{"time":224888.66400000022,"duration":222.22200000000885,"noteNumber":76,"velocity":53,"programNumber":41},{"time":225110.88600000023,"duration":222.22200000000885,"noteNumber":78,"velocity":53,"programNumber":41},{"time":225333.10800000024,"duration":222.22200000000885,"noteNumber":79,"velocity":53,"programNumber":41},{"time":225555.33000000025,"duration":222.22200000000885,"noteNumber":81,"velocity":52,"programNumber":41},{"time":225777.55200000026,"duration":444.4439999999886,"noteNumber":82,"velocity":50,"programNumber":41},{"time":226221.99600000025,"duration":444.4439999999886,"noteNumber":83,"velocity":46,"programNumber":41},{"time":226666.44000000024,"duration":444.4439999999886,"noteNumber":84,"velocity":43,"programNumber":41},{"time":227110.88400000022,"duration":444.4439999999886,"noteNumber":85,"velocity":40,"programNumber":41},{"time":227555.3280000002,"duration":2611.108500000002,"noteNumber":86,"velocity":59,"programNumber":41},{"time":230221.9920000002,"duration":55.55549999998766,"noteNumber":78,"velocity":52,"programNumber":41},{"time":230277.5475000002,"duration":55.55549999998766,"noteNumber":79,"velocity":53,"programNumber":41},{"time":230333.10300000018,"duration":55.55549999998766,"noteNumber":78,"velocity":55,"programNumber":41},{"time":230388.65850000017,"duration":55.55549999998766,"noteNumber":79,"velocity":58,"programNumber":41},{"time":230444.21400000015,"duration":55.55549999998766,"noteNumber":78,"velocity":59,"programNumber":41},{"time":230499.76950000014,"duration":55.55549999998766,"noteNumber":79,"velocity":61,"programNumber":41},{"time":230555.32500000013,"duration":55.55549999998766,"noteNumber":78,"velocity":62,"programNumber":41},{"time":230610.88050000012,"duration":55.55549999998766,"noteNumber":79,"velocity":65,"programNumber":41},{"time":230666.4360000001,"duration":55.55549999998766,"noteNumber":78,"velocity":67,"programNumber":41},{"time":230721.9915000001,"duration":55.55549999998766,"noteNumber":79,"velocity":68,"programNumber":41},{"time":230777.54700000008,"duration":55.55549999998766,"noteNumber":78,"velocity":70,"programNumber":41},{"time":230833.10250000007,"duration":55.55549999998766,"noteNumber":79,"velocity":71,"programNumber":41},{"time":230888.65800000005,"duration":111.11100000000442,"noteNumber":76,"velocity":74,"programNumber":41},{"time":230999.76900000006,"duration":111.11100000000442,"noteNumber":78,"velocity":77,"programNumber":41},{"time":231110.88000000006,"duration":444.4439999999886,"noteNumber":79,"velocity":93,"programNumber":41},{"time":231777.54600000006,"duration":111.11100000000442,"noteNumber":74,"velocity":92,"programNumber":41},{"time":231999.76800000007,"duration":444.4439999999886,"noteNumber":79,"velocity":92,"programNumber":41},{"time":232666.43400000007,"duration":111.11100000000442,"noteNumber":74,"velocity":91,"programNumber":41},{"time":232888.65600000008,"duration":111.11100000000442,"noteNumber":79,"velocity":90,"programNumber":41},{"time":233110.87800000008,"duration":111.11100000000442,"noteNumber":74,"velocity":90,"programNumber":41},{"time":233333.1000000001,"duration":111.11100000000442,"noteNumber":79,"velocity":90,"programNumber":41},{"time":233555.3220000001,"duration":111.11100000000442,"noteNumber":83,"velocity":90,"programNumber":41},{"time":233777.5440000001,"duration":444.4439999999886,"noteNumber":86,"velocity":89,"programNumber":41},{"time":234666.4320000001,"duration":444.4439999999886,"noteNumber":84,"velocity":104,"programNumber":41},{"time":235333.0980000001,"duration":111.11100000000442,"noteNumber":81,"velocity":87,"programNumber":41},{"time":235555.3200000001,"duration":444.4439999999886,"noteNumber":84,"velocity":86,"programNumber":41},{"time":236221.9860000001,"duration":111.11100000000442,"noteNumber":81,"velocity":85,"programNumber":41},{"time":236444.2080000001,"duration":111.11100000000442,"noteNumber":84,"velocity":92,"programNumber":41},{"time":236666.4300000001,"duration":111.11100000000442,"noteNumber":81,"velocity":85,"programNumber":41},{"time":236888.65200000012,"duration":111.11100000000442,"noteNumber":78,"velocity":92,"programNumber":41},{"time":237110.87400000013,"duration":111.11100000000442,"noteNumber":81,"velocity":85,"programNumber":41},{"time":237333.09600000014,"duration":444.4439999999886,"noteNumber":74,"velocity":94,"programNumber":41},{"time":238221.9840000001,"duration":222.22200000000885,"noteNumber":71,"velocity":92,"programNumber":41},{"time":238221.9840000001,"duration":222.22200000000885,"noteNumber":79,"velocity":92,"programNumber":41},{"time":238221.9840000001,"duration":222.22200000000885,"noteNumber":62,"velocity":92,"programNumber":41},{"time":238666.42800000013,"duration":666.6659999999974,"noteNumber":79,"velocity":85,"programNumber":41},{"time":239333.09400000013,"duration":222.22200000000885,"noteNumber":83,"velocity":74,"programNumber":41},{"time":239555.31600000014,"duration":111.11100000000442,"noteNumber":81,"velocity":74,"programNumber":41},{"time":239777.53800000015,"duration":111.11100000000442,"noteNumber":79,"velocity":80,"programNumber":41},{"time":239999.76000000015,"duration":55.55549999998766,"noteNumber":79,"velocity":86,"programNumber":41},{"time":240055.31550000014,"duration":55.55549999998766,"noteNumber":81,"velocity":86,"programNumber":41},{"time":240110.87100000013,"duration":55.55549999998766,"noteNumber":79,"velocity":86,"programNumber":41},{"time":240166.42650000012,"duration":55.55549999998766,"noteNumber":81,"velocity":86,"programNumber":41},{"time":240221.9820000001,"duration":185.18499999999767,"noteNumber":78,"velocity":83,"programNumber":41},{"time":240444.2040000001,"duration":666.6659999999974,"noteNumber":78,"velocity":77,"programNumber":41},{"time":241110.8700000001,"duration":222.22200000000885,"noteNumber":81,"velocity":85,"programNumber":41},{"time":241333.09200000012,"duration":111.11100000000442,"noteNumber":84,"velocity":85,"programNumber":41},{"time":241555.31400000013,"duration":111.11100000000442,"noteNumber":78,"velocity":85,"programNumber":41},{"time":241777.53600000014,"duration":222.22200000000885,"noteNumber":81,"velocity":85,"programNumber":41},{"time":241999.75800000015,"duration":111.11100000000442,"noteNumber":79,"velocity":85,"programNumber":41},{"time":242221.98000000016,"duration":666.6659999999974,"noteNumber":79,"velocity":85,"programNumber":41},{"time":242888.64600000015,"duration":222.22200000000885,"noteNumber":83,"velocity":85,"programNumber":41},{"time":243110.86800000016,"duration":111.11100000000442,"noteNumber":81,"velocity":85,"programNumber":41},{"time":243333.09000000017,"duration":111.11100000000442,"noteNumber":79,"velocity":85,"programNumber":41},{"time":243555.31200000018,"duration":55.55549999998766,"noteNumber":79,"velocity":85,"programNumber":41},{"time":243610.86750000017,"duration":55.55549999998766,"noteNumber":81,"velocity":85,"programNumber":41},{"time":243666.42300000016,"duration":55.55549999998766,"noteNumber":79,"velocity":85,"programNumber":41},{"time":243721.97850000014,"duration":55.55549999998766,"noteNumber":81,"velocity":85,"programNumber":41},{"time":243777.53400000013,"duration":185.18499999999767,"noteNumber":78,"velocity":85,"programNumber":41},{"time":243999.75600000014,"duration":666.6659999999974,"noteNumber":78,"velocity":85,"programNumber":41},{"time":244666.42200000014,"duration":222.22200000000885,"noteNumber":81,"velocity":85,"programNumber":41},{"time":244888.64400000015,"duration":111.11100000000442,"noteNumber":84,"velocity":85,"programNumber":41},{"time":245110.86600000015,"duration":111.11100000000442,"noteNumber":78,"velocity":85,"programNumber":41},{"time":245333.08800000016,"duration":111.11100000000442,"noteNumber":79,"velocity":85,"programNumber":41},{"time":245555.31000000017,"duration":111.11100000000442,"noteNumber":79,"velocity":85,"programNumber":41},{"time":245777.53200000018,"duration":111.11100000000442,"noteNumber":79,"velocity":85,"programNumber":41},{"time":245888.6430000002,"duration":111.11100000000442,"noteNumber":78,"velocity":85,"programNumber":41},{"time":245999.7540000002,"duration":111.11100000000442,"noteNumber":76,"velocity":85,"programNumber":41},{"time":246110.8650000002,"duration":111.11100000000442,"noteNumber":78,"velocity":85,"programNumber":41},{"time":246221.9760000002,"duration":111.11100000000442,"noteNumber":79,"velocity":85,"programNumber":41},{"time":246444.1980000002,"duration":111.11100000000442,"noteNumber":79,"velocity":85,"programNumber":41},{"time":246666.42000000022,"duration":111.11100000000442,"noteNumber":83,"velocity":85,"programNumber":41},{"time":246777.53100000022,"duration":111.11100000000442,"noteNumber":81,"velocity":85,"programNumber":41},{"time":246888.64200000023,"duration":111.11100000000442,"noteNumber":79,"velocity":85,"programNumber":41},{"time":246999.75300000023,"duration":111.11100000000442,"noteNumber":81,"velocity":83,"programNumber":41},{"time":247110.86400000023,"duration":111.11100000000442,"noteNumber":83,"velocity":83,"programNumber":41},{"time":247333.08600000024,"duration":111.11100000000442,"noteNumber":83,"velocity":83,"programNumber":41},{"time":247555.30800000025,"duration":111.11100000000442,"noteNumber":86,"velocity":83,"programNumber":41},{"time":247666.41900000026,"duration":111.11100000000442,"noteNumber":84,"velocity":80,"programNumber":41},{"time":247777.53000000026,"duration":111.11100000000442,"noteNumber":83,"velocity":79,"programNumber":41},{"time":247888.64100000027,"duration":111.11100000000442,"noteNumber":84,"velocity":76,"programNumber":41},{"time":247999.75200000027,"duration":444.4439999999886,"noteNumber":86,"velocity":71,"programNumber":41},{"time":248888.64000000025,"duration":888.8880000000063,"noteNumber":74,"velocity":56,"programNumber":41},{"time":249777.52800000025,"duration":888.8880000000063,"noteNumber":76,"velocity":55,"programNumber":41},{"time":250666.41600000026,"duration":111.11100000000442,"noteNumber":74,"velocity":57,"programNumber":41},{"time":250777.52700000026,"duration":296.2960000000021,"noteNumber":72,"velocity":59,"programNumber":41},{"time":251110.86000000028,"duration":444.4439999999886,"noteNumber":72,"velocity":58,"programNumber":41},{"time":251555.30400000027,"duration":111.11100000000442,"noteNumber":72,"velocity":57,"programNumber":41},{"time":251666.41500000027,"duration":296.2960000000021,"noteNumber":71,"velocity":55,"programNumber":41},{"time":251999.74800000028,"duration":444.4439999999886,"noteNumber":71,"velocity":53,"programNumber":41},{"time":252444.19200000027,"duration":111.11100000000442,"noteNumber":71,"velocity":57,"programNumber":41},{"time":252555.30300000028,"duration":296.2960000000021,"noteNumber":69,"velocity":56,"programNumber":41},{"time":252888.6360000003,"duration":444.4439999999886,"noteNumber":69,"velocity":55,"programNumber":41},{"time":253333.08000000028,"duration":222.22200000000885,"noteNumber":67,"velocity":54,"programNumber":41},{"time":253555.3020000003,"duration":111.11100000000442,"noteNumber":66,"velocity":55,"programNumber":41},{"time":253777.5240000003,"duration":111.11100000000442,"noteNumber":64,"velocity":55,"programNumber":41},{"time":253999.7460000003,"duration":111.11100000000442,"noteNumber":66,"velocity":55,"programNumber":41},{"time":254221.9680000003,"duration":222.22200000000885,"noteNumber":67,"velocity":56,"programNumber":41},{"time":254666.41200000033,"duration":222.22200000000885,"noteNumber":69,"velocity":57,"programNumber":41},{"time":255110.85600000035,"duration":222.22200000000885,"noteNumber":71,"velocity":57,"programNumber":41},{"time":255999.74400000036,"duration":888.8880000000063,"noteNumber":74,"velocity":56,"programNumber":41},{"time":256888.63200000036,"duration":888.8880000000063,"noteNumber":76,"velocity":59,"programNumber":41},{"time":257777.52000000037,"duration":222.22200000000885,"noteNumber":74,"velocity":46,"programNumber":41},{"time":257999.74200000038,"duration":111.11100000000442,"noteNumber":72,"velocity":51,"programNumber":41},{"time":258221.9640000004,"duration":111.11100000000442,"noteNumber":72,"velocity":51,"programNumber":41},{"time":258444.1860000004,"duration":111.11100000000442,"noteNumber":72,"velocity":51,"programNumber":41},{"time":258666.4080000004,"duration":222.22200000000885,"noteNumber":72,"velocity":51,"programNumber":41},{"time":258888.6300000004,"duration":111.11100000000442,"noteNumber":71,"velocity":50,"programNumber":41},{"time":259110.85200000042,"duration":111.11100000000442,"noteNumber":71,"velocity":49,"programNumber":41},{"time":259333.07400000043,"duration":111.11100000000442,"noteNumber":71,"velocity":49,"programNumber":41},{"time":259555.29600000044,"duration":222.22200000000885,"noteNumber":71,"velocity":49,"programNumber":41},{"time":259777.51800000045,"duration":111.11100000000442,"noteNumber":69,"velocity":50,"programNumber":41},{"time":259999.74000000046,"duration":166.66649999999208,"noteNumber":69,"velocity":52,"programNumber":41},{"time":260221.96200000044,"duration":166.66649999999208,"noteNumber":69,"velocity":52,"programNumber":41},{"time":260444.18400000042,"duration":222.22200000000885,"noteNumber":67,"velocity":52,"programNumber":41},{"time":260666.40600000042,"duration":222.22200000000885,"noteNumber":66,"velocity":54,"programNumber":41},{"time":260888.62800000043,"duration":222.22200000000885,"noteNumber":64,"velocity":55,"programNumber":41},{"time":261110.85000000044,"duration":222.22200000000885,"noteNumber":66,"velocity":55,"programNumber":41},{"time":261333.07200000045,"duration":1111.109999999986,"noteNumber":67,"velocity":85,"programNumber":41},{"time":261333.07200000045,"duration":1111.109999999986,"noteNumber":55,"velocity":85,"programNumber":41},{"time":262444.18200000044,"duration":55.555500000016764,"noteNumber":67,"velocity":61,"programNumber":41},{"time":262499.73750000045,"duration":55.555500000016764,"noteNumber":69,"velocity":61,"programNumber":41},{"time":262555.29300000047,"duration":55.555500000016764,"noteNumber":66,"velocity":61,"programNumber":41},{"time":262610.8485000005,"duration":55.555500000016764,"noteNumber":67,"velocity":61,"programNumber":41},{"time":262666.4040000005,"duration":222.22200000000885,"noteNumber":69,"velocity":61,"programNumber":41},{"time":262888.6260000005,"duration":222.22200000000885,"noteNumber":66,"velocity":61,"programNumber":41},{"time":263110.8480000005,"duration":1111.109999999986,"noteNumber":71,"velocity":91,"programNumber":41},{"time":264221.9580000005,"duration":55.555500000016764,"noteNumber":71,"velocity":61,"programNumber":41},{"time":264277.5135000005,"duration":55.555500000016764,"noteNumber":72,"velocity":61,"programNumber":41},{"time":264333.06900000054,"duration":55.555500000016764,"noteNumber":69,"velocity":61,"programNumber":41},{"time":264388.62450000056,"duration":55.555500000016764,"noteNumber":71,"velocity":61,"programNumber":41},{"time":264444.1800000006,"duration":222.22200000000885,"noteNumber":72,"velocity":61,"programNumber":41},{"time":264666.4020000006,"duration":222.22200000000885,"noteNumber":69,"velocity":61,"programNumber":41},{"time":264888.6240000006,"duration":74.07400000002235,"noteNumber":74,"velocity":51,"programNumber":41},{"time":264999.7350000006,"duration":74.07400000002235,"noteNumber":74,"velocity":56,"programNumber":41},{"time":265110.84600000066,"duration":74.07400000002235,"noteNumber":74,"velocity":59,"programNumber":41},{"time":265221.9570000007,"duration":74.07400000002235,"noteNumber":74,"velocity":56,"programNumber":41},{"time":265333.0680000007,"duration":74.07400000002235,"noteNumber":74,"velocity":56,"programNumber":41},{"time":265444.17900000076,"duration":74.07400000002235,"noteNumber":74,"velocity":56,"programNumber":41},{"time":265555.2900000008,"duration":74.07400000002235,"noteNumber":74,"velocity":56,"programNumber":41},{"time":265666.4010000008,"duration":74.07400000002235,"noteNumber":74,"velocity":56,"programNumber":41},{"time":265777.51200000086,"duration":74.07400000002235,"noteNumber":76,"velocity":56,"programNumber":41},{"time":265888.6230000009,"duration":74.07400000002235,"noteNumber":76,"velocity":56,"programNumber":41},{"time":265999.7340000009,"duration":74.07400000002235,"noteNumber":76,"velocity":56,"programNumber":41},{"time":266110.84500000096,"duration":74.07400000002235,"noteNumber":76,"velocity":56,"programNumber":41},{"time":266221.956000001,"duration":74.07400000002235,"noteNumber":78,"velocity":56,"programNumber":41},{"time":266333.067000001,"duration":74.07400000002235,"noteNumber":78,"velocity":56,"programNumber":41},{"time":266444.17800000106,"duration":74.07400000002235,"noteNumber":78,"velocity":57,"programNumber":41},{"time":266555.2890000011,"duration":74.07400000002235,"noteNumber":78,"velocity":59,"programNumber":41},{"time":266666.40000000113,"duration":74.07400000002235,"noteNumber":79,"velocity":62,"programNumber":41},{"time":266777.51100000116,"duration":74.07400000002235,"noteNumber":79,"velocity":65,"programNumber":41},{"time":266888.6220000012,"duration":74.07400000002235,"noteNumber":79,"velocity":66,"programNumber":41},{"time":266999.73300000123,"duration":74.07400000002235,"noteNumber":79,"velocity":66,"programNumber":41},{"time":267110.84400000126,"duration":74.07400000002235,"noteNumber":81,"velocity":66,"programNumber":41},{"time":267221.9550000013,"duration":74.07400000002235,"noteNumber":81,"velocity":66,"programNumber":41},{"time":267333.06600000133,"duration":74.07400000002235,"noteNumber":81,"velocity":66,"programNumber":41},{"time":267444.17700000136,"duration":74.07400000002235,"noteNumber":81,"velocity":68,"programNumber":41},{"time":267555.2880000014,"duration":74.07400000002235,"noteNumber":83,"velocity":68,"programNumber":41},{"time":267666.39900000143,"duration":74.07400000002235,"noteNumber":83,"velocity":70,"programNumber":41},{"time":267777.51000000146,"duration":74.07400000002235,"noteNumber":83,"velocity":70,"programNumber":41},{"time":267888.6210000015,"duration":74.07400000002235,"noteNumber":83,"velocity":71,"programNumber":41},{"time":267999.73200000153,"duration":74.07400000002235,"noteNumber":85,"velocity":71,"programNumber":41},{"time":268110.84300000157,"duration":74.07400000002235,"noteNumber":85,"velocity":73,"programNumber":41},{"time":268221.9540000016,"duration":74.07400000002235,"noteNumber":85,"velocity":74,"programNumber":41},{"time":268333.06500000163,"duration":74.07400000002235,"noteNumber":85,"velocity":74,"programNumber":41},{"time":268444.17600000167,"duration":666.6660000000265,"noteNumber":86,"velocity":85,"programNumber":41},{"time":269110.8420000017,"duration":222.22200000000885,"noteNumber":81,"velocity":85,"programNumber":41},{"time":269333.0640000017,"duration":333.33299999998417,"noteNumber":85,"velocity":85,"programNumber":41},{"time":269666.3970000017,"duration":111.11099999997532,"noteNumber":81,"velocity":85,"programNumber":41},{"time":269777.50800000166,"duration":333.33299999998417,"noteNumber":85,"velocity":85,"programNumber":41},{"time":270110.84100000164,"duration":111.11099999997532,"noteNumber":81,"velocity":85,"programNumber":41},{"time":270221.9520000016,"duration":666.6660000000265,"noteNumber":86,"velocity":85,"programNumber":41},{"time":270888.61800000165,"duration":222.22200000000885,"noteNumber":81,"velocity":85,"programNumber":41},{"time":271110.84000000166,"duration":333.33299999998417,"noteNumber":85,"velocity":85,"programNumber":41},{"time":271444.17300000164,"duration":111.11099999997532,"noteNumber":81,"velocity":85,"programNumber":41},{"time":271555.2840000016,"duration":333.33299999998417,"noteNumber":85,"velocity":85,"programNumber":41},{"time":271888.6170000016,"duration":111.11099999997532,"noteNumber":81,"velocity":85,"programNumber":41},{"time":271999.7280000016,"duration":111.11099999997532,"noteNumber":86,"velocity":100,"programNumber":41},{"time":272221.9500000015,"duration":111.11099999997532,"noteNumber":81,"velocity":100,"programNumber":41},{"time":272444.1720000015,"duration":111.11099999997532,"noteNumber":85,"velocity":100,"programNumber":41},{"time":272666.3940000014,"duration":111.11099999997532,"noteNumber":81,"velocity":100,"programNumber":41},{"time":272888.6160000014,"duration":111.11099999997532,"noteNumber":86,"velocity":100,"programNumber":41},{"time":273110.8380000013,"duration":111.11099999997532,"noteNumber":81,"velocity":100,"programNumber":41},{"time":273333.0600000013,"duration":111.11099999997532,"noteNumber":85,"velocity":100,"programNumber":41},{"time":273555.2820000012,"duration":111.11099999997532,"noteNumber":81,"velocity":100,"programNumber":41},{"time":273777.5040000012,"duration":166.66649999999208,"noteNumber":86,"velocity":85,"programNumber":41},{"time":273999.7260000012,"duration":166.66649999999208,"noteNumber":62,"velocity":85,"programNumber":41},{"time":274221.9480000012,"duration":166.66649999999208,"noteNumber":62,"velocity":85,"programNumber":41},{"time":274444.1700000012,"duration":166.66649999999208,"noteNumber":62,"velocity":85,"programNumber":41},{"time":274666.3920000012,"duration":444.4440000000177,"noteNumber":62,"velocity":85,"programNumber":41},{"time":275555.28000000125,"duration":666.6660000000265,"noteNumber":74,"velocity":46,"programNumber":41},{"time":276221.9460000013,"duration":74.07400000002235,"noteNumber":72,"velocity":47,"programNumber":41},{"time":276296.0200000013,"duration":74.07400000002235,"noteNumber":71,"velocity":47,"programNumber":41},{"time":276370.0940000013,"duration":74.07400000002235,"noteNumber":69,"velocity":47,"programNumber":41},{"time":276444.16800000134,"duration":222.22200000000885,"noteNumber":67,"velocity":47,"programNumber":41},{"time":276888.61200000136,"duration":222.22200000000885,"noteNumber":76,"velocity":47,"programNumber":41},{"time":277333.0560000014,"duration":222.22200000000885,"noteNumber":72,"velocity":46,"programNumber":41},{"time":277777.5000000014,"duration":222.22200000000885,"noteNumber":69,"velocity":43,"programNumber":41},{"time":278221.9440000014,"duration":222.22200000000885,"noteNumber":74,"velocity":59,"programNumber":41},{"time":279110.83200000145,"duration":666.6660000000265,"noteNumber":83,"velocity":55,"programNumber":41},{"time":279777.4980000015,"duration":74.07400000002235,"noteNumber":81,"velocity":55,"programNumber":41},{"time":279851.5720000015,"duration":74.07400000002235,"noteNumber":79,"velocity":55,"programNumber":41},{"time":279925.6460000015,"duration":74.07400000002235,"noteNumber":78,"velocity":55,"programNumber":41},{"time":279999.72000000154,"duration":222.22200000000885,"noteNumber":76,"velocity":55,"programNumber":41},{"time":280444.16400000156,"duration":222.22200000000885,"noteNumber":84,"velocity":55,"programNumber":41},{"time":280888.6080000016,"duration":888.8879999999772,"noteNumber":83,"velocity":55,"programNumber":41},{"time":281777.49600000156,"duration":444.4440000000177,"noteNumber":81,"velocity":47,"programNumber":41},{"time":282888.6060000016,"duration":111.11099999997532,"noteNumber":86,"velocity":55,"programNumber":41},{"time":283110.82800000155,"duration":111.11099999997532,"noteNumber":86,"velocity":55,"programNumber":41},{"time":283333.0500000015,"duration":111.11099999997532,"noteNumber":86,"velocity":55,"programNumber":41},{"time":283555.27200000145,"duration":111.11099999997532,"noteNumber":86,"velocity":55,"programNumber":41},{"time":283777.4940000014,"duration":111.11099999997532,"noteNumber":86,"velocity":55,"programNumber":41},{"time":283999.71600000135,"duration":111.11099999997532,"noteNumber":86,"velocity":55,"programNumber":41},{"time":284221.9380000013,"duration":111.11099999997532,"noteNumber":86,"velocity":55,"programNumber":41},{"time":284444.16000000125,"duration":111.11099999997532,"noteNumber":86,"velocity":55,"programNumber":41},{"time":284666.3820000012,"duration":111.11099999997532,"noteNumber":86,"velocity":55,"programNumber":41},{"time":284888.60400000116,"duration":111.11099999997532,"noteNumber":86,"velocity":55,"programNumber":41},{"time":285110.8260000011,"duration":111.11099999997532,"noteNumber":86,"velocity":55,"programNumber":41},{"time":285333.04800000106,"duration":222.22200000000885,"noteNumber":86,"velocity":55,"programNumber":41},{"time":285555.27000000107,"duration":222.22200000000885,"noteNumber":84,"velocity":55,"programNumber":41},{"time":285777.4920000011,"duration":222.22200000000885,"noteNumber":79,"velocity":55,"programNumber":41},{"time":285999.7140000011,"duration":222.22200000000885,"noteNumber":78,"velocity":55,"programNumber":41},{"time":286221.9360000011,"duration":222.22200000000885,"noteNumber":78,"velocity":55,"programNumber":41},{"time":286444.1580000011,"duration":222.22200000000885,"noteNumber":79,"velocity":65,"programNumber":41},{"time":286888.6020000011,"duration":111.11099999997532,"noteNumber":76,"velocity":55,"programNumber":41},{"time":287110.82400000107,"duration":222.22200000000885,"noteNumber":76,"velocity":55,"programNumber":41},{"time":287333.0460000011,"duration":222.22200000000885,"noteNumber":74,"velocity":55,"programNumber":41},{"time":287777.4900000011,"duration":166.66649999999208,"noteNumber":66,"velocity":55,"programNumber":41},{"time":287999.7120000011,"duration":444.4440000000177,"noteNumber":67,"velocity":67,"programNumber":41},{"time":288666.37800000113,"duration":111.11099999997532,"noteNumber":74,"velocity":55,"programNumber":41},{"time":288888.6000000011,"duration":222.22200000000885,"noteNumber":79,"velocity":55,"programNumber":41},{"time":289110.8220000011,"duration":222.22200000000885,"noteNumber":78,"velocity":55,"programNumber":41},{"time":289333.0440000011,"duration":222.22200000000885,"noteNumber":76,"velocity":55,"programNumber":41},{"time":289555.2660000011,"duration":222.22200000000885,"noteNumber":74,"velocity":55,"programNumber":41},{"time":289777.4880000011,"duration":55.555500000016764,"noteNumber":76,"velocity":55,"programNumber":41},{"time":289833.04350000113,"duration":55.555500000016764,"noteNumber":78,"velocity":55,"programNumber":41},{"time":289888.59900000115,"duration":55.555500000016764,"noteNumber":76,"velocity":55,"programNumber":41},{"time":289944.15450000117,"duration":55.555500000016764,"noteNumber":78,"velocity":55,"programNumber":41},{"time":289999.7100000012,"duration":222.22200000000885,"noteNumber":74,"velocity":55,"programNumber":41},{"time":290444.1540000012,"duration":111.11099999997532,"noteNumber":74,"velocity":55,"programNumber":41},{"time":290666.37600000115,"duration":111.11099999997532,"noteNumber":74,"velocity":55,"programNumber":41},{"time":290888.5980000011,"duration":111.11099999997532,"noteNumber":74,"velocity":55,"programNumber":41},{"time":291110.82000000105,"duration":111.11099999997532,"noteNumber":74,"velocity":55,"programNumber":41},{"time":291333.042000001,"duration":111.11099999997532,"noteNumber":74,"velocity":55,"programNumber":41},{"time":291555.26400000096,"duration":55.555500000016764,"noteNumber":76,"velocity":55,"programNumber":41},{"time":291610.819500001,"duration":55.555500000016764,"noteNumber":78,"velocity":55,"programNumber":41},{"time":291666.375000001,"duration":55.555500000016764,"noteNumber":76,"velocity":55,"programNumber":41},{"time":291721.930500001,"duration":55.555500000016764,"noteNumber":78,"velocity":55,"programNumber":41},{"time":291777.486000001,"duration":222.22200000000885,"noteNumber":74,"velocity":55,"programNumber":41},{"time":292221.93000000104,"duration":166.66649999999208,"noteNumber":74,"velocity":55,"programNumber":41},{"time":292444.15200000105,"duration":222.22200000000885,"noteNumber":79,"velocity":55,"programNumber":41},{"time":292666.37400000106,"duration":222.22200000000885,"noteNumber":78,"velocity":55,"programNumber":41},{"time":292888.59600000107,"duration":222.22200000000885,"noteNumber":76,"velocity":55,"programNumber":41},{"time":293110.8180000011,"duration":222.22200000000885,"noteNumber":74,"velocity":55,"programNumber":41},{"time":293333.0400000011,"duration":55.555500000016764,"noteNumber":76,"velocity":55,"programNumber":41},{"time":293388.5955000011,"duration":55.555500000016764,"noteNumber":78,"velocity":55,"programNumber":41},{"time":293444.1510000011,"duration":55.555500000016764,"noteNumber":76,"velocity":55,"programNumber":41},{"time":293499.70650000114,"duration":55.555500000016764,"noteNumber":78,"velocity":55,"programNumber":41},{"time":293555.26200000115,"duration":222.22200000000885,"noteNumber":74,"velocity":55,"programNumber":41},{"time":293999.70600000117,"duration":111.11099999997532,"noteNumber":74,"velocity":55,"programNumber":41},{"time":294221.9280000011,"duration":111.11099999997532,"noteNumber":74,"velocity":55,"programNumber":41},{"time":294444.1500000011,"duration":111.11099999997532,"noteNumber":74,"velocity":55,"programNumber":41},{"time":294666.372000001,"duration":111.11099999997532,"noteNumber":74,"velocity":55,"programNumber":41},{"time":294888.594000001,"duration":111.11099999997532,"noteNumber":74,"velocity":55,"programNumber":41},{"time":295110.8160000009,"duration":55.555500000016764,"noteNumber":76,"velocity":55,"programNumber":41},{"time":295166.37150000094,"duration":55.555500000016764,"noteNumber":78,"velocity":55,"programNumber":41},{"time":295221.92700000096,"duration":55.555500000016764,"noteNumber":76,"velocity":55,"programNumber":41},{"time":295277.482500001,"duration":55.555500000016764,"noteNumber":78,"velocity":55,"programNumber":41},{"time":295333.038000001,"duration":222.22200000000885,"noteNumber":74,"velocity":55,"programNumber":41},{"time":295999.704000001,"duration":629.6290000000154,"noteNumber":76,"velocity":83,"programNumber":41},{"time":295999.704000001,"duration":629.6290000000154,"noteNumber":64,"velocity":83,"programNumber":41},{"time":296666.37000000104,"duration":74.07400000002235,"noteNumber":74,"velocity":82,"programNumber":41},{"time":296740.44400000107,"duration":74.07400000002235,"noteNumber":72,"velocity":82,"programNumber":41},{"time":296814.5180000011,"duration":74.07400000002235,"noteNumber":71,"velocity":82,"programNumber":41},{"time":296888.5920000011,"duration":444.4440000000177,"noteNumber":72,"velocity":83,"programNumber":41},{"time":297777.48000000115,"duration":629.6290000000154,"noteNumber":62,"velocity":85,"programNumber":41},{"time":297777.48000000115,"duration":629.6290000000154,"noteNumber":74,"velocity":85,"programNumber":41},{"time":298444.1460000012,"duration":74.07400000002235,"noteNumber":72,"velocity":77,"programNumber":41},{"time":298518.2200000012,"duration":74.07400000002235,"noteNumber":71,"velocity":79,"programNumber":41},{"time":298592.2940000012,"duration":74.07400000002235,"noteNumber":69,"velocity":83,"programNumber":41},{"time":298666.36800000124,"duration":444.4440000000177,"noteNumber":71,"velocity":88,"programNumber":41},{"time":299555.2560000013,"duration":222.22200000000885,"noteNumber":76,"velocity":85,"programNumber":41},{"time":299777.4780000013,"duration":111.11099999997532,"noteNumber":78,"velocity":85,"programNumber":41},{"time":299888.58900000126,"duration":111.11099999997532,"noteNumber":79,"velocity":85,"programNumber":41},{"time":299999.70000000123,"duration":166.66649999999208,"noteNumber":78,"velocity":85,"programNumber":41},{"time":300221.92200000124,"duration":111.11099999997532,"noteNumber":76,"velocity":85,"programNumber":41},{"time":300444.1440000012,"duration":222.22200000000885,"noteNumber":76,"velocity":85,"programNumber":41},{"time":300666.3660000012,"duration":166.66649999999208,"noteNumber":74,"velocity":85,"programNumber":41},{"time":300888.5880000012,"duration":111.11099999997532,"noteNumber":71,"velocity":85,"programNumber":41},{"time":301110.81000000116,"duration":111.11099999997532,"noteNumber":74,"velocity":85,"programNumber":41},{"time":301333.0320000011,"duration":222.22200000000885,"noteNumber":74,"velocity":85,"programNumber":41},{"time":301555.2540000011,"duration":166.66649999999208,"noteNumber":72,"velocity":85,"programNumber":41},{"time":301777.47600000113,"duration":111.11099999997532,"noteNumber":71,"velocity":85,"programNumber":41},{"time":301999.6980000011,"duration":111.11099999997532,"noteNumber":69,"velocity":85,"programNumber":41},{"time":302221.92000000103,"duration":444.4440000000177,"noteNumber":67,"velocity":85,"programNumber":41},{"time":302888.58600000106,"duration":111.11099999997532,"noteNumber":74,"velocity":50,"programNumber":41},{"time":303110.808000001,"duration":222.22200000000885,"noteNumber":79,"velocity":50,"programNumber":41},{"time":303333.030000001,"duration":222.22200000000885,"noteNumber":78,"velocity":50,"programNumber":41},{"time":303555.252000001,"duration":222.22200000000885,"noteNumber":76,"velocity":53,"programNumber":41},{"time":303777.47400000104,"duration":222.22200000000885,"noteNumber":74,"velocity":56,"programNumber":41},{"time":303999.69600000104,"duration":55.555500000016764,"noteNumber":76,"velocity":58,"programNumber":41},{"time":304055.25150000106,"duration":55.555500000016764,"noteNumber":78,"velocity":58,"programNumber":41},{"time":304110.8070000011,"duration":55.555500000016764,"noteNumber":76,"velocity":59,"programNumber":41},{"time":304166.3625000011,"duration":55.555500000016764,"noteNumber":78,"velocity":59,"programNumber":41},{"time":304221.9180000011,"duration":222.22200000000885,"noteNumber":74,"velocity":61,"programNumber":41},{"time":304666.3620000011,"duration":111.11099999997532,"noteNumber":74,"velocity":56,"programNumber":41},{"time":304888.5840000011,"duration":111.11099999997532,"noteNumber":74,"velocity":55,"programNumber":41},{"time":305110.80600000103,"duration":111.11099999997532,"noteNumber":74,"velocity":55,"programNumber":41},{"time":305333.028000001,"duration":111.11099999997532,"noteNumber":74,"velocity":53,"programNumber":41},{"time":305555.25000000093,"duration":111.11099999997532,"noteNumber":74,"velocity":52,"programNumber":41},{"time":305777.4720000009,"duration":55.555500000016764,"noteNumber":76,"velocity":55,"programNumber":41},{"time":305833.0275000009,"duration":55.555500000016764,"noteNumber":78,"velocity":55,"programNumber":41},{"time":305888.5830000009,"duration":55.555500000016764,"noteNumber":76,"velocity":55,"programNumber":41},{"time":305944.13850000093,"duration":55.555500000016764,"noteNumber":78,"velocity":55,"programNumber":41},{"time":305999.69400000095,"duration":222.22200000000885,"noteNumber":74,"velocity":55,"programNumber":41},{"time":306444.13800000097,"duration":166.66649999999208,"noteNumber":74,"velocity":55,"programNumber":41},{"time":306666.360000001,"duration":222.22200000000885,"noteNumber":79,"velocity":55,"programNumber":41},{"time":306888.582000001,"duration":222.22200000000885,"noteNumber":78,"velocity":55,"programNumber":41},{"time":307110.804000001,"duration":222.22200000000885,"noteNumber":76,"velocity":55,"programNumber":41},{"time":307333.026000001,"duration":222.22200000000885,"noteNumber":74,"velocity":56,"programNumber":41},{"time":307555.248000001,"duration":55.555500000016764,"noteNumber":76,"velocity":65,"programNumber":41},{"time":307610.803500001,"duration":55.555500000016764,"noteNumber":78,"velocity":65,"programNumber":41},{"time":307666.35900000104,"duration":55.555500000016764,"noteNumber":76,"velocity":65,"programNumber":41},{"time":307721.91450000106,"duration":55.555500000016764,"noteNumber":78,"velocity":65,"programNumber":41},{"time":307777.4700000011,"duration":222.22200000000885,"noteNumber":74,"velocity":64,"programNumber":41},{"time":308221.9140000011,"duration":111.11099999997532,"noteNumber":74,"velocity":55,"programNumber":41},{"time":308444.13600000105,"duration":111.11099999997532,"noteNumber":74,"velocity":55,"programNumber":41},{"time":308666.358000001,"duration":111.11099999997532,"noteNumber":74,"velocity":55,"programNumber":41},{"time":308888.58000000095,"duration":111.11099999997532,"noteNumber":74,"velocity":55,"programNumber":41},{"time":309110.8020000009,"duration":111.11099999997532,"noteNumber":74,"velocity":55,"programNumber":41},{"time":309333.02400000085,"duration":55.555500000016764,"noteNumber":76,"velocity":59,"programNumber":41},{"time":309388.57950000087,"duration":55.555500000016764,"noteNumber":78,"velocity":59,"programNumber":41},{"time":309444.1350000009,"duration":55.555500000016764,"noteNumber":76,"velocity":59,"programNumber":41},{"time":309499.6905000009,"duration":55.555500000016764,"noteNumber":78,"velocity":59,"programNumber":41},{"time":309555.2460000009,"duration":222.22200000000885,"noteNumber":74,"velocity":59,"programNumber":41},{"time":310221.91200000094,"duration":629.6290000000154,"noteNumber":88,"velocity":85,"programNumber":41},{"time":310888.57800000097,"duration":74.07400000002235,"noteNumber":86,"velocity":85,"programNumber":41},{"time":310962.652000001,"duration":74.07400000002235,"noteNumber":84,"velocity":85,"programNumber":41},{"time":311036.726000001,"duration":74.07400000002235,"noteNumber":83,"velocity":85,"programNumber":41},{"time":311110.80000000104,"duration":444.4440000000177,"noteNumber":84,"velocity":85,"programNumber":41},{"time":311999.6880000011,"duration":629.6290000000154,"noteNumber":74,"velocity":85,"programNumber":41},{"time":311999.6880000011,"duration":629.6290000000154,"noteNumber":86,"velocity":85,"programNumber":41},{"time":312666.3540000011,"duration":74.07400000002235,"noteNumber":84,"velocity":82,"programNumber":41},{"time":312740.4280000011,"duration":74.07400000002235,"noteNumber":83,"velocity":83,"programNumber":41},{"time":312814.50200000114,"duration":74.07400000002235,"noteNumber":81,"velocity":83,"programNumber":41},{"time":312888.57600000117,"duration":444.4440000000177,"noteNumber":83,"velocity":86,"programNumber":41},{"time":313777.4640000012,"duration":222.22200000000885,"noteNumber":76,"velocity":85,"programNumber":41},{"time":313999.6860000012,"duration":111.11099999997532,"noteNumber":78,"velocity":85,"programNumber":41},{"time":314110.7970000012,"duration":111.11099999997532,"noteNumber":79,"velocity":85,"programNumber":41},{"time":314221.90800000116,"duration":166.66649999999208,"noteNumber":78,"velocity":85,"programNumber":41},{"time":314444.13000000117,"duration":111.11099999997532,"noteNumber":76,"velocity":85,"programNumber":41},{"time":314666.3520000011,"duration":111.11099999997532,"noteNumber":74,"velocity":85,"programNumber":41},{"time":314888.57400000107,"duration":111.11099999997532,"noteNumber":79,"velocity":85,"programNumber":41},{"time":315110.796000001,"duration":111.11099999997532,"noteNumber":83,"velocity":85,"programNumber":41},{"time":315333.018000001,"duration":111.11099999997532,"noteNumber":86,"velocity":85,"programNumber":41},{"time":315555.2400000009,"duration":222.22200000000885,"noteNumber":86,"velocity":85,"programNumber":41},{"time":315777.46200000093,"duration":166.66649999999208,"noteNumber":84,"velocity":85,"programNumber":41},{"time":315999.68400000094,"duration":111.11099999997532,"noteNumber":83,"velocity":85,"programNumber":41},{"time":316221.9060000009,"duration":111.11099999997532,"noteNumber":81,"velocity":85,"programNumber":41},{"time":316444.12800000084,"duration":166.66649999999208,"noteNumber":79,"velocity":94,"programNumber":41},{"time":316666.35000000085,"duration":166.66649999999208,"noteNumber":62,"velocity":85,"programNumber":41},{"time":316888.57200000086,"duration":166.66649999999208,"noteNumber":64,"velocity":85,"programNumber":41},{"time":317110.79400000087,"duration":166.66649999999208,"noteNumber":66,"velocity":85,"programNumber":41},{"time":317333.0160000009,"duration":166.66649999999208,"noteNumber":67,"velocity":85,"programNumber":41},{"time":317555.2380000009,"duration":166.66649999999208,"noteNumber":67,"velocity":85,"programNumber":41},{"time":317777.4600000009,"duration":55.555500000016764,"noteNumber":69,"velocity":85,"programNumber":41},{"time":317833.0155000009,"duration":55.555500000016764,"noteNumber":71,"velocity":85,"programNumber":41},{"time":317888.5710000009,"duration":55.555500000016764,"noteNumber":69,"velocity":85,"programNumber":41},{"time":317944.12650000094,"duration":55.555500000016764,"noteNumber":71,"velocity":85,"programNumber":41},{"time":317999.68200000096,"duration":111.11099999997532,"noteNumber":67,"velocity":85,"programNumber":41},{"time":318110.79300000094,"duration":111.11099999997532,"noteNumber":69,"velocity":85,"programNumber":41},{"time":318221.9040000009,"duration":166.66649999999208,"noteNumber":71,"velocity":85,"programNumber":41},{"time":318444.1260000009,"duration":166.66649999999208,"noteNumber":66,"velocity":85,"programNumber":41},{"time":318666.34800000093,"duration":166.66649999999208,"noteNumber":67,"velocity":85,"programNumber":41},{"time":318888.57000000094,"duration":166.66649999999208,"noteNumber":69,"velocity":85,"programNumber":41},{"time":319110.79200000095,"duration":166.66649999999208,"noteNumber":71,"velocity":85,"programNumber":41},{"time":319333.01400000096,"duration":166.66649999999208,"noteNumber":71,"velocity":85,"programNumber":41},{"time":319555.23600000096,"duration":55.555500000016764,"noteNumber":72,"velocity":86,"programNumber":41},{"time":319610.791500001,"duration":55.555500000016764,"noteNumber":74,"velocity":86,"programNumber":41},{"time":319666.347000001,"duration":55.555500000016764,"noteNumber":72,"velocity":86,"programNumber":41},{"time":319721.902500001,"duration":55.555500000016764,"noteNumber":74,"velocity":86,"programNumber":41},{"time":319777.45800000103,"duration":111.11099999997532,"noteNumber":71,"velocity":86,"programNumber":41},{"time":319888.569000001,"duration":111.11099999997532,"noteNumber":72,"velocity":89,"programNumber":41},{"time":319999.680000001,"duration":166.66649999999208,"noteNumber":74,"velocity":89,"programNumber":41},{"time":320221.902000001,"duration":166.66649999999208,"noteNumber":74,"velocity":91,"programNumber":41},{"time":320444.124000001,"duration":55.555500000016764,"noteNumber":75,"velocity":91,"programNumber":41},{"time":320499.679500001,"duration":55.555500000016764,"noteNumber":76,"velocity":91,"programNumber":41},{"time":320555.23500000103,"duration":55.555500000016764,"noteNumber":75,"velocity":91,"programNumber":41},{"time":320610.79050000105,"duration":55.555500000016764,"noteNumber":76,"velocity":92,"programNumber":41},{"time":320666.34600000107,"duration":111.11099999997532,"noteNumber":73,"velocity":94,"programNumber":41},{"time":320777.45700000104,"duration":111.11099999997532,"noteNumber":75,"velocity":97,"programNumber":41},{"time":320888.568000001,"duration":444.4440000000177,"noteNumber":76,"velocity":98,"programNumber":41},{"time":321777.45600000105,"duration":666.6660000000265,"noteNumber":64,"velocity":61,"programNumber":41},{"time":322444.1220000011,"duration":166.66649999999208,"noteNumber":69,"velocity":61,"programNumber":41},{"time":322666.3440000011,"duration":222.22200000000885,"noteNumber":67,"velocity":61,"programNumber":41},{"time":322888.5660000011,"duration":222.22200000000885,"noteNumber":66,"velocity":62,"programNumber":41},{"time":323110.7880000011,"duration":222.22200000000885,"noteNumber":64,"velocity":62,"programNumber":41},{"time":323333.0100000011,"duration":166.66649999999208,"noteNumber":62,"velocity":62,"programNumber":41},{"time":323555.2320000011,"duration":222.22200000000885,"noteNumber":74,"velocity":62,"programNumber":41},{"time":323777.45400000113,"duration":222.22200000000885,"noteNumber":73,"velocity":62,"programNumber":41},{"time":323999.67600000114,"duration":222.22200000000885,"noteNumber":72,"velocity":62,"programNumber":41},{"time":324221.89800000115,"duration":222.22200000000885,"noteNumber":71,"velocity":62,"programNumber":41},{"time":324444.12000000116,"duration":222.22200000000885,"noteNumber":74,"velocity":61,"programNumber":41},{"time":324666.34200000117,"duration":222.22200000000885,"noteNumber":73,"velocity":61,"programNumber":41},{"time":324888.5640000012,"duration":222.22200000000885,"noteNumber":72,"velocity":61,"programNumber":41},{"time":325110.7860000012,"duration":166.66649999999208,"noteNumber":71,"velocity":59,"programNumber":41},{"time":325333.0080000012,"duration":666.6660000000265,"noteNumber":64,"velocity":61,"programNumber":41},{"time":325999.6740000012,"duration":166.66649999999208,"noteNumber":69,"velocity":67,"programNumber":41},{"time":326221.89600000123,"duration":222.22200000000885,"noteNumber":67,"velocity":70,"programNumber":41},{"time":326444.11800000124,"duration":222.22200000000885,"noteNumber":66,"velocity":70,"programNumber":41},{"time":326666.34000000125,"duration":222.22200000000885,"noteNumber":64,"velocity":70,"programNumber":41},{"time":326888.56200000126,"duration":166.66649999999208,"noteNumber":62,"velocity":70,"programNumber":41},{"time":327110.78400000127,"duration":222.22200000000885,"noteNumber":74,"velocity":70,"programNumber":41},{"time":327333.0060000013,"duration":222.22200000000885,"noteNumber":76,"velocity":70,"programNumber":41},{"time":327555.2280000013,"duration":222.22200000000885,"noteNumber":78,"velocity":70,"programNumber":41},{"time":327777.4500000013,"duration":222.22200000000885,"noteNumber":79,"velocity":70,"programNumber":41},{"time":327999.6720000013,"duration":222.22200000000885,"noteNumber":74,"velocity":70,"programNumber":41},{"time":328221.8940000013,"duration":222.22200000000885,"noteNumber":76,"velocity":70,"programNumber":41},{"time":328444.1160000013,"duration":222.22200000000885,"noteNumber":78,"velocity":70,"programNumber":41},{"time":328666.3380000013,"duration":166.66649999999208,"noteNumber":79,"velocity":76,"programNumber":41},{"time":328888.56000000134,"duration":444.4440000000177,"noteNumber":81,"velocity":75,"programNumber":41},{"time":329777.4480000014,"duration":444.4440000000177,"noteNumber":86,"velocity":91,"programNumber":41},{"time":329777.4480000014,"duration":444.4440000000177,"noteNumber":74,"velocity":91,"programNumber":41},{"time":330666.3360000014,"duration":444.4440000000177,"noteNumber":79,"velocity":96,"programNumber":41},{"time":330666.3360000014,"duration":444.4440000000177,"noteNumber":71,"velocity":96,"programNumber":41},{"time":330666.3360000014,"duration":444.4440000000177,"noteNumber":62,"velocity":96,"programNumber":41},{"time":331333.00200000143,"duration":166.66649999999208,"noteNumber":74,"velocity":95,"programNumber":41},{"time":331555.22400000144,"duration":166.66649999999208,"noteNumber":71,"velocity":94,"programNumber":41},{"time":331777.44600000145,"duration":166.66649999999208,"noteNumber":67,"velocity":90,"programNumber":41},{"time":331999.66800000146,"duration":166.66649999999208,"noteNumber":71,"velocity":90,"programNumber":41},{"time":332221.89000000147,"duration":166.66649999999208,"noteNumber":74,"velocity":89,"programNumber":41},{"time":332444.1120000015,"duration":166.66649999999208,"noteNumber":79,"velocity":88,"programNumber":41},{"time":332666.3340000015,"duration":166.66649999999208,"noteNumber":74,"velocity":88,"programNumber":41},{"time":332888.5560000015,"duration":166.66649999999208,"noteNumber":79,"velocity":88,"programNumber":41},{"time":333110.7780000015,"duration":166.66649999999208,"noteNumber":83,"velocity":90,"programNumber":41},{"time":333333.0000000015,"duration":370.36999999999534,"noteNumber":86,"velocity":92,"programNumber":41},{"time":333777.44400000153,"duration":370.36999999999534,"noteNumber":78,"velocity":95,"programNumber":41},{"time":333777.44400000153,"duration":370.36999999999534,"noteNumber":69,"velocity":95,"programNumber":41},{"time":333777.44400000153,"duration":370.36999999999534,"noteNumber":62,"velocity":95,"programNumber":41},{"time":334221.88800000155,"duration":444.4440000000177,"noteNumber":79,"velocity":100,"programNumber":41},{"time":334221.88800000155,"duration":444.4440000000177,"noteNumber":71,"velocity":100,"programNumber":41},{"time":334221.88800000155,"duration":444.4440000000177,"noteNumber":62,"velocity":100,"programNumber":41},{"time":334888.5540000016,"duration":166.66649999999208,"noteNumber":74,"velocity":98,"programNumber":41},{"time":335110.7760000016,"duration":166.66649999999208,"noteNumber":71,"velocity":98,"programNumber":41},{"time":335332.9980000016,"duration":166.66649999999208,"noteNumber":67,"velocity":95,"programNumber":41},{"time":335555.2200000016,"duration":166.66649999999208,"noteNumber":71,"velocity":94,"programNumber":41},{"time":335777.4420000016,"duration":166.66649999999208,"noteNumber":74,"velocity":92,"programNumber":41},{"time":335999.6640000016,"duration":166.66649999999208,"noteNumber":79,"velocity":91,"programNumber":41},{"time":336221.8860000016,"duration":166.66649999999208,"noteNumber":74,"velocity":91,"programNumber":41},{"time":336444.10800000164,"duration":166.66649999999208,"noteNumber":79,"velocity":92,"programNumber":41},{"time":336666.33000000165,"duration":166.66649999999208,"noteNumber":83,"velocity":92,"programNumber":41},{"time":336888.55200000165,"duration":370.36999999999534,"noteNumber":86,"velocity":96,"programNumber":41},{"time":337332.9960000017,"duration":370.36999999999534,"noteNumber":78,"velocity":99,"programNumber":41},{"time":337332.9960000017,"duration":370.36999999999534,"noteNumber":69,"velocity":99,"programNumber":41},{"time":337332.9960000017,"duration":370.36999999999534,"noteNumber":62,"velocity":99,"programNumber":41},{"time":337777.4400000017,"duration":444.4440000000177,"noteNumber":79,"velocity":109,"programNumber":41},{"time":337777.4400000017,"duration":444.4440000000177,"noteNumber":71,"velocity":109,"programNumber":41},{"time":337777.4400000017,"duration":444.4440000000177,"noteNumber":62,"velocity":109,"programNumber":41},{"time":338666.3280000017,"duration":444.4440000000177,"noteNumber":79,"velocity":106,"programNumber":41},{"time":338666.3280000017,"duration":444.4440000000177,"noteNumber":71,"velocity":106,"programNumber":41},{"time":338666.3280000017,"duration":444.4440000000177,"noteNumber":62,"velocity":106,"programNumber":41},{"time":339555.21600000176,"duration":370.36999999999534,"noteNumber":79,"velocity":106,"programNumber":41},{"time":339555.21600000176,"duration":370.36999999999534,"noteNumber":71,"velocity":106,"programNumber":41},{"time":339555.21600000176,"duration":370.36999999999534,"noteNumber":62,"velocity":106,"programNumber":41},{"time":339999.6600000018,"duration":222.22200000000885,"noteNumber":67,"velocity":110,"programNumber":41},{"time":339999.6600000018,"duration":222.22200000000885,"noteNumber":55,"velocity":110,"programNumber":41},{"time":340332.99300000176,"duration":55.555500000016764,"noteNumber":67,"velocity":109,"programNumber":41},{"time":340332.99300000176,"duration":55.555500000016764,"noteNumber":55,"velocity":109,"programNumber":41},{"time":340444.1040000018,"duration":444.4440000000177,"noteNumber":67,"velocity":108,"programNumber":41},{"time":340444.1040000018,"duration":444.4440000000177,"noteNumber":55,"velocity":108,"programNumber":41}],[{"time":0,"duration":444.444,"noteNumber":71,"velocity":85,"programNumber":40},{"time":0,"duration":444.444,"noteNumber":79,"velocity":85,"programNumber":40},{"time":0,"duration":444.444,"noteNumber":62,"velocity":85,"programNumber":40},{"time":666.666,"duration":111.11099999999999,"noteNumber":74,"velocity":85,"programNumber":40},{"time":888.888,"duration":444.4440000000001,"noteNumber":79,"velocity":85,"programNumber":40},{"time":1555.554,"duration":111.1110000000001,"noteNumber":74,"velocity":85,"programNumber":40},{"time":1777.7760000000003,"duration":111.1110000000001,"noteNumber":79,"velocity":85,"programNumber":40},{"time":1999.9980000000005,"duration":111.11099999999988,"noteNumber":74,"velocity":85,"programNumber":40},{"time":2222.2200000000003,"duration":111.11099999999988,"noteNumber":79,"velocity":85,"programNumber":40},{"time":2444.442,"duration":111.11099999999988,"noteNumber":83,"velocity":85,"programNumber":40},{"time":2666.6639999999998,"duration":444.44399999999996,"noteNumber":86,"velocity":85,"programNumber":40},{"time":3555.5519999999997,"duration":444.44399999999996,"noteNumber":84,"velocity":85,"programNumber":40},{"time":4222.218,"duration":111.11099999999988,"noteNumber":81,"velocity":82,"programNumber":40},{"time":4444.44,"duration":444.4440000000004,"noteNumber":84,"velocity":85,"programNumber":40},{"time":5111.106,"duration":111.11099999999988,"noteNumber":81,"velocity":79,"programNumber":40},{"time":5333.3279999999995,"duration":111.11099999999988,"noteNumber":84,"velocity":85,"programNumber":40},{"time":5555.549999999999,"duration":111.11099999999988,"noteNumber":81,"velocity":80,"programNumber":40},{"time":5777.771999999999,"duration":111.11099999999988,"noteNumber":78,"velocity":85,"programNumber":40},{"time":5999.993999999999,"duration":111.11099999999988,"noteNumber":81,"velocity":77,"programNumber":40},{"time":6222.2159999999985,"duration":444.4440000000004,"noteNumber":74,"velocity":85,"programNumber":40},{"time":7111.103999999999,"duration":222.22199999999975,"noteNumber":71,"velocity":85,"programNumber":40},{"time":7111.103999999999,"duration":222.22199999999975,"noteNumber":79,"velocity":85,"programNumber":40},{"time":7111.103999999999,"duration":222.22199999999975,"noteNumber":62,"velocity":85,"programNumber":40},{"time":7555.547999999999,"duration":666.6659999999993,"noteNumber":79,"velocity":85,"programNumber":40},{"time":8222.213999999998,"duration":222.22199999999975,"noteNumber":83,"velocity":89,"programNumber":40},{"time":8444.435999999998,"duration":111.11100000000079,"noteNumber":81,"velocity":94,"programNumber":40},{"time":8666.658,"duration":111.11100000000079,"noteNumber":79,"velocity":97,"programNumber":40},{"time":8888.880000000001,"duration":55.55550000000039,"noteNumber":79,"velocity":95,"programNumber":40},{"time":8944.435500000001,"duration":55.55550000000039,"noteNumber":81,"velocity":95,"programNumber":40},{"time":8999.991000000002,"duration":55.55550000000039,"noteNumber":79,"velocity":95,"programNumber":40},{"time":9055.546500000002,"duration":55.55550000000039,"noteNumber":81,"velocity":94,"programNumber":40},{"time":9111.102000000003,"duration":185.1849999999995,"noteNumber":78,"velocity":94,"programNumber":40},{"time":9333.324000000002,"duration":666.6659999999993,"noteNumber":78,"velocity":88,"programNumber":40},{"time":9999.990000000002,"duration":222.22199999999975,"noteNumber":81,"velocity":85,"programNumber":40},{"time":10222.212000000001,"duration":111.11100000000079,"noteNumber":84,"velocity":85,"programNumber":40},{"time":10444.434000000003,"duration":111.11100000000079,"noteNumber":78,"velocity":85,"programNumber":40},{"time":10666.656000000004,"duration":222.22199999999975,"noteNumber":81,"velocity":85,"programNumber":40},{"time":10888.878000000004,"duration":111.11100000000079,"noteNumber":79,"velocity":85,"programNumber":40},{"time":11111.100000000006,"duration":666.6659999999993,"noteNumber":79,"velocity":85,"programNumber":40},{"time":11777.766000000005,"duration":222.22199999999975,"noteNumber":83,"velocity":86,"programNumber":40},{"time":11999.988000000005,"duration":111.11100000000079,"noteNumber":81,"velocity":86,"programNumber":40},{"time":12222.210000000006,"duration":111.11100000000079,"noteNumber":79,"velocity":89,"programNumber":40},{"time":12444.432000000008,"duration":55.55550000000039,"noteNumber":79,"velocity":91,"programNumber":40},{"time":12499.987500000008,"duration":55.55550000000039,"noteNumber":81,"velocity":91,"programNumber":40},{"time":12555.543000000009,"duration":55.55550000000039,"noteNumber":79,"velocity":92,"programNumber":40},{"time":12611.09850000001,"duration":55.55550000000039,"noteNumber":81,"velocity":94,"programNumber":40},{"time":12666.65400000001,"duration":185.1849999999995,"noteNumber":78,"velocity":94,"programNumber":40},{"time":12888.87600000001,"duration":666.6659999999993,"noteNumber":78,"velocity":94,"programNumber":40},{"time":13555.542000000009,"duration":222.22199999999975,"noteNumber":81,"velocity":85,"programNumber":40},{"time":13777.764000000008,"duration":111.11100000000079,"noteNumber":84,"velocity":85,"programNumber":40},{"time":13999.98600000001,"duration":111.11100000000079,"noteNumber":78,"velocity":85,"programNumber":40},{"time":14222.208000000011,"duration":111.11100000000079,"noteNumber":79,"velocity":85,"programNumber":40},{"time":14444.430000000013,"duration":111.11100000000079,"noteNumber":79,"velocity":85,"programNumber":40},{"time":14666.652000000015,"duration":111.11100000000079,"noteNumber":79,"velocity":85,"programNumber":40},{"time":14777.763000000015,"duration":111.11100000000079,"noteNumber":78,"velocity":85,"programNumber":40},{"time":14888.874000000016,"duration":111.11100000000079,"noteNumber":76,"velocity":85,"programNumber":40},{"time":14999.985000000017,"duration":111.11100000000079,"noteNumber":78,"velocity":85,"programNumber":40},{"time":15111.096000000018,"duration":111.11100000000079,"noteNumber":79,"velocity":85,"programNumber":40},{"time":15333.31800000002,"duration":111.11100000000079,"noteNumber":79,"velocity":85,"programNumber":40},{"time":15555.54000000002,"duration":111.11100000000079,"noteNumber":83,"velocity":85,"programNumber":40},{"time":15666.651000000022,"duration":111.11100000000079,"noteNumber":81,"velocity":85,"programNumber":40},{"time":15777.762000000022,"duration":111.11100000000079,"noteNumber":79,"velocity":85,"programNumber":40},{"time":15888.873000000023,"duration":111.11100000000079,"noteNumber":81,"velocity":85,"programNumber":40},{"time":15999.984000000024,"duration":111.11100000000079,"noteNumber":83,"velocity":86,"programNumber":40},{"time":16222.206000000026,"duration":111.11100000000079,"noteNumber":83,"velocity":86,"programNumber":40},{"time":16444.428000000025,"duration":111.11100000000079,"noteNumber":86,"velocity":83,"programNumber":40},{"time":16555.539000000026,"duration":111.11100000000079,"noteNumber":84,"velocity":80,"programNumber":40},{"time":16666.650000000027,"duration":111.11100000000079,"noteNumber":83,"velocity":80,"programNumber":40},{"time":16777.761000000028,"duration":111.11100000000079,"noteNumber":84,"velocity":79,"programNumber":40},{"time":16888.87200000003,"duration":444.4439999999995,"noteNumber":86,"velocity":76,"programNumber":40},{"time":17777.760000000028,"duration":888.887999999999,"noteNumber":74,"velocity":41,"programNumber":40},{"time":18666.648000000027,"duration":888.887999999999,"noteNumber":76,"velocity":47,"programNumber":40},{"time":19555.536000000026,"duration":111.11100000000079,"noteNumber":74,"velocity":47,"programNumber":40},{"time":19666.647000000026,"duration":296.29599999999846,"noteNumber":72,"velocity":47,"programNumber":40},{"time":19999.980000000025,"duration":444.4439999999995,"noteNumber":72,"velocity":47,"programNumber":40},{"time":20444.424000000025,"duration":111.11100000000079,"noteNumber":72,"velocity":47,"programNumber":40},{"time":20555.535000000025,"duration":296.29599999999846,"noteNumber":71,"velocity":47,"programNumber":40},{"time":20888.868000000024,"duration":444.4439999999995,"noteNumber":71,"velocity":47,"programNumber":40},{"time":21333.312000000024,"duration":111.11100000000079,"noteNumber":71,"velocity":47,"programNumber":40},{"time":21444.423000000024,"duration":296.29599999999846,"noteNumber":69,"velocity":47,"programNumber":40},{"time":21777.756000000023,"duration":444.4439999999995,"noteNumber":69,"velocity":47,"programNumber":40},{"time":22222.200000000023,"duration":222.22200000000157,"noteNumber":67,"velocity":47,"programNumber":40},{"time":22444.422000000024,"duration":111.11100000000079,"noteNumber":66,"velocity":47,"programNumber":40},{"time":22666.644000000026,"duration":111.11100000000079,"noteNumber":64,"velocity":47,"programNumber":40},{"time":22888.866000000027,"duration":111.11100000000079,"noteNumber":66,"velocity":47,"programNumber":40},{"time":23111.08800000003,"duration":222.22200000000157,"noteNumber":67,"velocity":47,"programNumber":40},{"time":23555.532000000032,"duration":222.22200000000157,"noteNumber":69,"velocity":47,"programNumber":40},{"time":23999.976000000035,"duration":222.22200000000157,"noteNumber":71,"velocity":47,"programNumber":40},{"time":24888.864000000038,"duration":888.887999999999,"noteNumber":74,"velocity":47,"programNumber":40},{"time":25777.752000000037,"duration":888.887999999999,"noteNumber":76,"velocity":47,"programNumber":40},{"time":26666.640000000036,"duration":222.22200000000157,"noteNumber":74,"velocity":47,"programNumber":40},{"time":26888.862000000037,"duration":111.11100000000079,"noteNumber":72,"velocity":47,"programNumber":40},{"time":27111.08400000004,"duration":111.11100000000079,"noteNumber":72,"velocity":47,"programNumber":40},{"time":27333.30600000004,"duration":111.11100000000079,"noteNumber":72,"velocity":47,"programNumber":40},{"time":27555.528000000042,"duration":222.22200000000157,"noteNumber":72,"velocity":47,"programNumber":40},{"time":27777.750000000044,"duration":111.11100000000079,"noteNumber":71,"velocity":47,"programNumber":40},{"time":27999.972000000045,"duration":111.11100000000079,"noteNumber":71,"velocity":47,"programNumber":40},{"time":28222.194000000047,"duration":111.11100000000079,"noteNumber":71,"velocity":47,"programNumber":40},{"time":28444.41600000005,"duration":222.22200000000157,"noteNumber":71,"velocity":47,"programNumber":40},{"time":28666.63800000005,"duration":111.11100000000079,"noteNumber":69,"velocity":47,"programNumber":40},{"time":28888.86000000005,"duration":166.66649999999936,"noteNumber":69,"velocity":47,"programNumber":40},{"time":29111.08200000005,"duration":166.66649999999936,"noteNumber":69,"velocity":47,"programNumber":40},{"time":29333.304000000047,"duration":222.22200000000157,"noteNumber":67,"velocity":47,"programNumber":40},{"time":29555.52600000005,"duration":222.22200000000157,"noteNumber":66,"velocity":47,"programNumber":40},{"time":29777.74800000005,"duration":222.22200000000157,"noteNumber":64,"velocity":47,"programNumber":40},{"time":29999.970000000052,"duration":222.22200000000157,"noteNumber":66,"velocity":47,"programNumber":40},{"time":30222.192000000054,"duration":1111.1100000000006,"noteNumber":67,"velocity":85,"programNumber":40},{"time":30222.192000000054,"duration":1111.1100000000006,"noteNumber":55,"velocity":85,"programNumber":40},{"time":31333.302000000054,"duration":55.555499999998574,"noteNumber":67,"velocity":61,"programNumber":40},{"time":31388.857500000053,"duration":55.555499999998574,"noteNumber":69,"velocity":61,"programNumber":40},{"time":31444.41300000005,"duration":55.555499999998574,"noteNumber":66,"velocity":61,"programNumber":40},{"time":31499.96850000005,"duration":55.555499999998574,"noteNumber":67,"velocity":61,"programNumber":40},{"time":31555.52400000005,"duration":222.22200000000157,"noteNumber":69,"velocity":61,"programNumber":40},{"time":31777.74600000005,"duration":222.22200000000157,"noteNumber":66,"velocity":61,"programNumber":40},{"time":31999.96800000005,"duration":1111.1100000000006,"noteNumber":71,"velocity":85,"programNumber":40},{"time":33111.07800000005,"duration":55.55550000000221,"noteNumber":71,"velocity":61,"programNumber":40},{"time":33166.633500000054,"duration":55.55550000000221,"noteNumber":72,"velocity":61,"programNumber":40},{"time":33222.18900000006,"duration":55.55550000000221,"noteNumber":69,"velocity":61,"programNumber":40},{"time":33277.74450000006,"duration":55.55550000000221,"noteNumber":71,"velocity":61,"programNumber":40},{"time":33333.30000000006,"duration":222.22200000000157,"noteNumber":72,"velocity":61,"programNumber":40},{"time":33555.52200000006,"duration":222.22200000000157,"noteNumber":69,"velocity":61,"programNumber":40},{"time":33777.744000000064,"duration":74.07400000000052,"noteNumber":74,"velocity":46,"programNumber":40},{"time":33888.85500000006,"duration":74.07400000000052,"noteNumber":74,"velocity":46,"programNumber":40},{"time":33999.96600000006,"duration":74.07400000000052,"noteNumber":74,"velocity":47,"programNumber":40},{"time":34111.077000000056,"duration":74.07400000000052,"noteNumber":74,"velocity":47,"programNumber":40},{"time":34222.18800000005,"duration":74.07400000000052,"noteNumber":74,"velocity":49,"programNumber":40},{"time":34333.29900000005,"duration":74.07400000000052,"noteNumber":74,"velocity":50,"programNumber":40},{"time":34444.41000000005,"duration":74.07400000000052,"noteNumber":74,"velocity":50,"programNumber":40},{"time":34555.521000000044,"duration":74.07400000000052,"noteNumber":74,"velocity":52,"programNumber":40},{"time":34666.63200000004,"duration":74.07400000000052,"noteNumber":76,"velocity":53,"programNumber":40},{"time":34777.74300000004,"duration":74.07400000000052,"noteNumber":76,"velocity":53,"programNumber":40},{"time":34888.854000000036,"duration":74.07400000000052,"noteNumber":76,"velocity":55,"programNumber":40},{"time":34999.96500000003,"duration":74.07400000000052,"noteNumber":76,"velocity":56,"programNumber":40},{"time":35111.07600000003,"duration":74.07400000000052,"noteNumber":78,"velocity":56,"programNumber":40},{"time":35222.18700000003,"duration":74.07400000000052,"noteNumber":78,"velocity":58,"programNumber":40},{"time":35333.298000000024,"duration":74.07400000000052,"noteNumber":78,"velocity":58,"programNumber":40},{"time":35444.40900000002,"duration":74.07400000000052,"noteNumber":78,"velocity":59,"programNumber":40},{"time":35555.52000000002,"duration":74.07400000000052,"noteNumber":79,"velocity":61,"programNumber":40},{"time":35666.631000000016,"duration":74.07400000000052,"noteNumber":79,"velocity":61,"programNumber":40},{"time":35777.74200000001,"duration":74.07400000000052,"noteNumber":79,"velocity":62,"programNumber":40},{"time":35888.85300000001,"duration":74.07400000000052,"noteNumber":79,"velocity":64,"programNumber":40},{"time":35999.96400000001,"duration":74.07400000000052,"noteNumber":81,"velocity":64,"programNumber":40},{"time":36111.075000000004,"duration":74.07400000000052,"noteNumber":81,"velocity":65,"programNumber":40},{"time":36222.186,"duration":74.07400000000052,"noteNumber":81,"velocity":67,"programNumber":40},{"time":36333.297,"duration":74.07400000000052,"noteNumber":81,"velocity":67,"programNumber":40},{"time":36444.407999999996,"duration":74.07400000000052,"noteNumber":83,"velocity":68,"programNumber":40},{"time":36555.51899999999,"duration":74.07400000000052,"noteNumber":83,"velocity":68,"programNumber":40},{"time":36666.62999999999,"duration":74.07400000000052,"noteNumber":83,"velocity":70,"programNumber":40},{"time":36777.74099999999,"duration":74.07400000000052,"noteNumber":83,"velocity":71,"programNumber":40},{"time":36888.851999999984,"duration":74.07400000000052,"noteNumber":85,"velocity":71,"programNumber":40},{"time":36999.96299999998,"duration":74.07400000000052,"noteNumber":85,"velocity":73,"programNumber":40},{"time":37111.07399999998,"duration":74.07400000000052,"noteNumber":85,"velocity":74,"programNumber":40},{"time":37222.184999999976,"duration":74.07400000000052,"noteNumber":85,"velocity":74,"programNumber":40},{"time":37333.29599999997,"duration":666.6659999999974,"noteNumber":86,"velocity":85,"programNumber":40},{"time":37999.96199999997,"duration":222.22200000000157,"noteNumber":81,"velocity":85,"programNumber":40},{"time":38222.18399999997,"duration":333.3329999999987,"noteNumber":85,"velocity":94,"programNumber":40},{"time":38555.51699999997,"duration":111.11099999999715,"noteNumber":81,"velocity":85,"programNumber":40},{"time":38666.62799999997,"duration":333.3329999999987,"noteNumber":85,"velocity":85,"programNumber":40},{"time":38999.96099999997,"duration":111.11099999999715,"noteNumber":81,"velocity":85,"programNumber":40},{"time":39111.071999999964,"duration":666.6659999999974,"noteNumber":86,"velocity":85,"programNumber":40},{"time":39777.73799999996,"duration":222.22200000000157,"noteNumber":81,"velocity":85,"programNumber":40},{"time":39999.95999999996,"duration":333.3329999999987,"noteNumber":85,"velocity":85,"programNumber":40},{"time":40333.29299999996,"duration":111.11099999999715,"noteNumber":81,"velocity":85,"programNumber":40},{"time":40444.40399999996,"duration":333.3329999999987,"noteNumber":85,"velocity":85,"programNumber":40},{"time":40777.73699999996,"duration":111.11099999999715,"noteNumber":81,"velocity":85,"programNumber":40},{"time":40888.847999999954,"duration":111.11099999999715,"noteNumber":86,"velocity":85,"programNumber":40},{"time":41111.06999999995,"duration":333.3329999999987,"noteNumber":86,"velocity":85,"programNumber":40},{"time":41111.06999999995,"duration":333.3329999999987,"noteNumber":78,"velocity":85,"programNumber":40},{"time":41555.513999999945,"duration":333.3329999999987,"noteNumber":86,"velocity":85,"programNumber":40},{"time":41555.513999999945,"duration":333.3329999999987,"noteNumber":78,"velocity":85,"programNumber":40},{"time":41999.95799999994,"duration":333.3329999999987,"noteNumber":86,"velocity":85,"programNumber":40},{"time":41999.95799999994,"duration":333.3329999999987,"noteNumber":78,"velocity":85,"programNumber":40},{"time":42444.40199999994,"duration":222.22200000000157,"noteNumber":78,"velocity":85,"programNumber":40},{"time":42666.62399999994,"duration":111.11099999999715,"noteNumber":76,"velocity":85,"programNumber":40},{"time":42444.40199999994,"duration":333.3329999999987,"noteNumber":86,"velocity":85,"programNumber":40},{"time":42888.84599999993,"duration":333.3329999999987,"noteNumber":86,"velocity":85,"programNumber":40},{"time":42888.84599999993,"duration":333.3329999999987,"noteNumber":76,"velocity":85,"programNumber":40},{"time":43333.28999999993,"duration":333.3329999999987,"noteNumber":86,"velocity":85,"programNumber":40},{"time":43333.28999999993,"duration":333.3329999999987,"noteNumber":76,"velocity":85,"programNumber":40},{"time":43777.733999999924,"duration":333.3329999999987,"noteNumber":86,"velocity":85,"programNumber":40},{"time":43777.733999999924,"duration":333.3329999999987,"noteNumber":76,"velocity":85,"programNumber":40},{"time":44222.17799999992,"duration":222.22200000000157,"noteNumber":86,"velocity":85,"programNumber":40},{"time":44222.17799999992,"duration":222.22200000000157,"noteNumber":76,"velocity":85,"programNumber":40},{"time":44444.39999999992,"duration":166.66649999999936,"noteNumber":85,"velocity":92,"programNumber":40},{"time":44444.39999999992,"duration":166.66649999999936,"noteNumber":76,"velocity":92,"programNumber":40},{"time":44666.62199999992,"duration":166.66649999999936,"noteNumber":81,"velocity":85,"programNumber":40},{"time":44888.843999999925,"duration":166.66649999999936,"noteNumber":86,"velocity":85,"programNumber":40},{"time":45111.065999999926,"duration":166.66649999999936,"noteNumber":81,"velocity":85,"programNumber":40},{"time":45333.28799999993,"duration":166.66649999999936,"noteNumber":85,"velocity":85,"programNumber":40},{"time":45555.50999999993,"duration":166.66649999999936,"noteNumber":81,"velocity":85,"programNumber":40},{"time":45777.73199999993,"duration":166.66649999999936,"noteNumber":86,"velocity":85,"programNumber":40},{"time":45999.95399999993,"duration":166.66649999999936,"noteNumber":81,"velocity":85,"programNumber":40},{"time":46222.175999999934,"duration":166.66649999999936,"noteNumber":85,"velocity":94,"programNumber":40},{"time":46444.397999999936,"duration":166.66649999999936,"noteNumber":69,"velocity":85,"programNumber":40},{"time":46666.61999999994,"duration":166.66649999999936,"noteNumber":69,"velocity":85,"programNumber":40},{"time":46888.84199999994,"duration":166.66649999999936,"noteNumber":69,"velocity":85,"programNumber":40},{"time":47111.06399999994,"duration":444.44400000000314,"noteNumber":69,"velocity":85,"programNumber":40},{"time":47999.95199999994,"duration":666.6659999999902,"noteNumber":81,"velocity":55,"programNumber":40},{"time":48666.61799999993,"duration":74.07400000000052,"noteNumber":79,"velocity":55,"programNumber":40},{"time":48740.69199999993,"duration":74.07400000000052,"noteNumber":78,"velocity":55,"programNumber":40},{"time":48814.76599999993,"duration":74.07400000000052,"noteNumber":76,"velocity":55,"programNumber":40},{"time":48888.83999999993,"duration":222.22200000000157,"noteNumber":74,"velocity":55,"programNumber":40},{"time":49333.283999999934,"duration":222.22200000000157,"noteNumber":83,"velocity":55,"programNumber":40},{"time":49777.72799999994,"duration":222.22200000000157,"noteNumber":79,"velocity":55,"programNumber":40},{"time":50222.17199999994,"duration":222.22200000000157,"noteNumber":76,"velocity":55,"programNumber":40},{"time":50666.61599999994,"duration":222.22200000000157,"noteNumber":81,"velocity":55,"programNumber":40},{"time":51555.50399999994,"duration":666.6659999999974,"noteNumber":78,"velocity":55,"programNumber":40},{"time":52222.16999999994,"duration":74.07400000000052,"noteNumber":76,"velocity":55,"programNumber":40},{"time":52296.24399999994,"duration":74.07400000000052,"noteNumber":74,"velocity":55,"programNumber":40},{"time":52370.31799999994,"duration":74.07400000000052,"noteNumber":73,"velocity":55,"programNumber":40},{"time":52444.39199999994,"duration":222.22200000000157,"noteNumber":71,"velocity":55,"programNumber":40},{"time":52888.835999999945,"duration":222.22200000000157,"noteNumber":79,"velocity":55,"programNumber":40},{"time":53333.27999999995,"duration":888.887999999999,"noteNumber":78,"velocity":55,"programNumber":40},{"time":54222.16799999995,"duration":444.44400000000314,"noteNumber":76,"velocity":49,"programNumber":40},{"time":55333.27799999995,"duration":111.11099999999715,"noteNumber":81,"velocity":55,"programNumber":40},{"time":55555.49999999994,"duration":111.11099999999715,"noteNumber":81,"velocity":55,"programNumber":40},{"time":55777.721999999936,"duration":111.11099999999715,"noteNumber":81,"velocity":55,"programNumber":40},{"time":55999.94399999993,"duration":111.11099999999715,"noteNumber":81,"velocity":55,"programNumber":40},{"time":56222.165999999925,"duration":111.11099999999715,"noteNumber":81,"velocity":55,"programNumber":40},{"time":56444.38799999992,"duration":111.11099999999715,"noteNumber":81,"velocity":55,"programNumber":40},{"time":56666.60999999991,"duration":111.11099999999715,"noteNumber":81,"velocity":55,"programNumber":40},{"time":56888.83199999991,"duration":111.11099999999715,"noteNumber":81,"velocity":55,"programNumber":40},{"time":57111.0539999999,"duration":111.11099999999715,"noteNumber":81,"velocity":55,"programNumber":40},{"time":57333.275999999896,"duration":111.11099999999715,"noteNumber":81,"velocity":55,"programNumber":40},{"time":57555.49799999989,"duration":111.11099999999715,"noteNumber":81,"velocity":55,"programNumber":40},{"time":57777.719999999885,"duration":111.11099999999715,"noteNumber":81,"velocity":55,"programNumber":40},{"time":57999.94199999988,"duration":111.11099999999715,"noteNumber":81,"velocity":55,"programNumber":40},{"time":58222.16399999987,"duration":111.11099999999715,"noteNumber":83,"velocity":55,"programNumber":40},{"time":58444.38599999987,"duration":111.11099999999715,"noteNumber":85,"velocity":55,"programNumber":40},{"time":58666.60799999986,"duration":222.22200000000157,"noteNumber":85,"velocity":55,"programNumber":40},{"time":58888.82999999986,"duration":222.22200000000157,"noteNumber":86,"velocity":55,"programNumber":40},{"time":59333.27399999987,"duration":111.11099999999715,"noteNumber":83,"velocity":55,"programNumber":40},{"time":59555.49599999986,"duration":222.22200000000157,"noteNumber":83,"velocity":55,"programNumber":40},{"time":59777.71799999986,"duration":222.22200000000157,"noteNumber":81,"velocity":55,"programNumber":40},{"time":60222.161999999866,"duration":166.66649999999936,"noteNumber":73,"velocity":55,"programNumber":40},{"time":60444.38399999987,"duration":444.44400000000314,"noteNumber":74,"velocity":55,"programNumber":40},{"time":61111.04999999987,"duration":111.11099999999715,"noteNumber":81,"velocity":55,"programNumber":40},{"time":61333.271999999866,"duration":222.22200000000157,"noteNumber":86,"velocity":55,"programNumber":40},{"time":61555.49399999987,"duration":222.22200000000157,"noteNumber":85,"velocity":55,"programNumber":40},{"time":61777.71599999987,"duration":222.22200000000157,"noteNumber":83,"velocity":55,"programNumber":40},{"time":61999.93799999987,"duration":222.22200000000157,"noteNumber":81,"velocity":55,"programNumber":40},{"time":62222.15999999987,"duration":55.55550000000221,"noteNumber":83,"velocity":55,"programNumber":40},{"time":62277.715499999875,"duration":55.55550000000221,"noteNumber":85,"velocity":55,"programNumber":40},{"time":62333.27099999988,"duration":55.55550000000221,"noteNumber":83,"velocity":55,"programNumber":40},{"time":62388.82649999988,"duration":55.55550000000221,"noteNumber":85,"velocity":55,"programNumber":40},{"time":62444.38199999988,"duration":222.22200000000157,"noteNumber":81,"velocity":55,"programNumber":40},{"time":62888.825999999885,"duration":111.11099999999715,"noteNumber":81,"velocity":55,"programNumber":40},{"time":63111.04799999988,"duration":111.11099999999715,"noteNumber":81,"velocity":55,"programNumber":40},{"time":63333.26999999987,"duration":111.11099999999715,"noteNumber":81,"velocity":55,"programNumber":40},{"time":63555.49199999987,"duration":111.11099999999715,"noteNumber":81,"velocity":55,"programNumber":40},{"time":63777.71399999986,"duration":111.11099999999715,"noteNumber":81,"velocity":55,"programNumber":40},{"time":63999.935999999856,"duration":55.55550000000221,"noteNumber":83,"velocity":55,"programNumber":40},{"time":64055.49149999986,"duration":55.55550000000221,"noteNumber":85,"velocity":55,"programNumber":40},{"time":64111.04699999986,"duration":55.55550000000221,"noteNumber":83,"velocity":55,"programNumber":40},{"time":64166.60249999986,"duration":55.55550000000221,"noteNumber":85,"velocity":55,"programNumber":40},{"time":64222.157999999865,"duration":222.22200000000157,"noteNumber":81,"velocity":55,"programNumber":40},{"time":64666.60199999987,"duration":166.66649999999936,"noteNumber":81,"velocity":55,"programNumber":40},{"time":64888.82399999987,"duration":222.22200000000157,"noteNumber":86,"velocity":55,"programNumber":40},{"time":65111.04599999987,"duration":222.22200000000157,"noteNumber":85,"velocity":55,"programNumber":40},{"time":65333.26799999987,"duration":222.22200000000157,"noteNumber":83,"velocity":55,"programNumber":40},{"time":65555.48999999987,"duration":222.2219999999943,"noteNumber":81,"velocity":55,"programNumber":40},{"time":65777.71199999987,"duration":55.55550000000221,"noteNumber":83,"velocity":55,"programNumber":40},{"time":65833.26749999987,"duration":55.55550000000221,"noteNumber":85,"velocity":55,"programNumber":40},{"time":65888.82299999987,"duration":55.55550000000221,"noteNumber":83,"velocity":55,"programNumber":40},{"time":65944.37849999988,"duration":55.55550000000221,"noteNumber":85,"velocity":55,"programNumber":40},{"time":65999.93399999988,"duration":222.2219999999943,"noteNumber":81,"velocity":55,"programNumber":40},{"time":66444.37799999987,"duration":111.11100000000442,"noteNumber":81,"velocity":55,"programNumber":40},{"time":66666.59999999987,"duration":111.11100000000442,"noteNumber":81,"velocity":55,"programNumber":40},{"time":66888.82199999988,"duration":111.11100000000442,"noteNumber":81,"velocity":55,"programNumber":40},{"time":67111.04399999989,"duration":111.11100000000442,"noteNumber":81,"velocity":55,"programNumber":40},{"time":67333.2659999999,"duration":111.11100000000442,"noteNumber":81,"velocity":53,"programNumber":40},{"time":67555.48799999991,"duration":55.55550000000221,"noteNumber":83,"velocity":49,"programNumber":40},{"time":67611.04349999991,"duration":55.55550000000221,"noteNumber":85,"velocity":49,"programNumber":40},{"time":67666.59899999991,"duration":55.55550000000221,"noteNumber":83,"velocity":47,"programNumber":40},{"time":67722.15449999992,"duration":55.55550000000221,"noteNumber":85,"velocity":47,"programNumber":40},{"time":67777.70999999992,"duration":222.2219999999943,"noteNumber":81,"velocity":46,"programNumber":40},{"time":68444.37599999992,"duration":629.6290000000008,"noteNumber":83,"velocity":91,"programNumber":40},{"time":68444.37599999992,"duration":629.6290000000008,"noteNumber":71,"velocity":91,"programNumber":40},{"time":69111.04199999991,"duration":74.07399999999325,"noteNumber":81,"velocity":89,"programNumber":40},{"time":69185.1159999999,"duration":74.07399999999325,"noteNumber":79,"velocity":92,"programNumber":40},{"time":69259.1899999999,"duration":74.07399999999325,"noteNumber":78,"velocity":94,"programNumber":40},{"time":69333.2639999999,"duration":444.44400000000314,"noteNumber":79,"velocity":97,"programNumber":40},{"time":70222.1519999999,"duration":629.6290000000008,"noteNumber":69,"velocity":85,"programNumber":40},{"time":70222.1519999999,"duration":629.6290000000008,"noteNumber":81,"velocity":85,"programNumber":40},{"time":70888.8179999999,"duration":74.07399999999325,"noteNumber":79,"velocity":86,"programNumber":40},{"time":70962.89199999989,"duration":74.07399999999325,"noteNumber":78,"velocity":86,"programNumber":40},{"time":71036.96599999988,"duration":74.07399999999325,"noteNumber":76,"velocity":89,"programNumber":40},{"time":71111.03999999988,"duration":444.44400000000314,"noteNumber":78,"velocity":92,"programNumber":40},{"time":71999.92799999988,"duration":222.2219999999943,"noteNumber":83,"velocity":85,"programNumber":40},{"time":72222.14999999988,"duration":111.11100000000442,"noteNumber":85,"velocity":85,"programNumber":40},{"time":72333.26099999988,"duration":111.11100000000442,"noteNumber":86,"velocity":89,"programNumber":40},{"time":72444.37199999989,"duration":166.66650000000664,"noteNumber":85,"velocity":94,"programNumber":40},{"time":72666.5939999999,"duration":111.11100000000442,"noteNumber":83,"velocity":95,"programNumber":40},{"time":72888.8159999999,"duration":222.2219999999943,"noteNumber":83,"velocity":97,"programNumber":40},{"time":73111.0379999999,"duration":166.66650000000664,"noteNumber":81,"velocity":101,"programNumber":40},{"time":73333.25999999991,"duration":111.11100000000442,"noteNumber":78,"velocity":104,"programNumber":40},{"time":73555.48199999992,"duration":111.11100000000442,"noteNumber":81,"velocity":104,"programNumber":40},{"time":73777.70399999993,"duration":222.2219999999943,"noteNumber":81,"velocity":104,"programNumber":40},{"time":73999.92599999992,"duration":166.66650000000664,"noteNumber":79,"velocity":103,"programNumber":40},{"time":74222.14799999993,"duration":111.11100000000442,"noteNumber":78,"velocity":98,"programNumber":40},{"time":74444.36999999994,"duration":111.11100000000442,"noteNumber":76,"velocity":89,"programNumber":40},{"time":74666.59199999995,"duration":444.44400000000314,"noteNumber":74,"velocity":85,"programNumber":40},{"time":75333.25799999994,"duration":111.11100000000442,"noteNumber":81,"velocity":53,"programNumber":40},{"time":75555.47999999995,"duration":222.2219999999943,"noteNumber":86,"velocity":53,"programNumber":40},{"time":75777.70199999995,"duration":222.2219999999943,"noteNumber":85,"velocity":53,"programNumber":40},{"time":75999.92399999994,"duration":222.2219999999943,"noteNumber":83,"velocity":53,"programNumber":40},{"time":76222.14599999994,"duration":222.2219999999943,"noteNumber":81,"velocity":53,"programNumber":40},{"time":76444.36799999993,"duration":55.55550000000221,"noteNumber":83,"velocity":55,"programNumber":40},{"time":76499.92349999993,"duration":55.55550000000221,"noteNumber":85,"velocity":55,"programNumber":40},{"time":76555.47899999993,"duration":55.55550000000221,"noteNumber":83,"velocity":55,"programNumber":40},{"time":76611.03449999994,"duration":55.55550000000221,"noteNumber":85,"velocity":55,"programNumber":40},{"time":76666.58999999994,"duration":222.2219999999943,"noteNumber":81,"velocity":55,"programNumber":40},{"time":77111.03399999993,"duration":111.11100000000442,"noteNumber":81,"velocity":55,"programNumber":40},{"time":77333.25599999994,"duration":111.11100000000442,"noteNumber":81,"velocity":55,"programNumber":40},{"time":77555.47799999994,"duration":111.11100000000442,"noteNumber":81,"velocity":55,"programNumber":40},{"time":77777.69999999995,"duration":111.11100000000442,"noteNumber":81,"velocity":55,"programNumber":40},{"time":77999.92199999996,"duration":111.11100000000442,"noteNumber":81,"velocity":55,"programNumber":40},{"time":78222.14399999997,"duration":55.55550000000221,"noteNumber":83,"velocity":55,"programNumber":40},{"time":78277.69949999997,"duration":55.55550000000221,"noteNumber":85,"velocity":55,"programNumber":40},{"time":78333.25499999998,"duration":55.55550000000221,"noteNumber":83,"velocity":55,"programNumber":40},{"time":78388.81049999998,"duration":55.55550000000221,"noteNumber":85,"velocity":55,"programNumber":40},{"time":78444.36599999998,"duration":222.2219999999943,"noteNumber":81,"velocity":55,"programNumber":40},{"time":78888.80999999997,"duration":166.66650000000664,"noteNumber":81,"velocity":55,"programNumber":40},{"time":79111.03199999998,"duration":222.2219999999943,"noteNumber":86,"velocity":55,"programNumber":40},{"time":79333.25399999997,"duration":222.2219999999943,"noteNumber":85,"velocity":55,"programNumber":40},{"time":79555.47599999997,"duration":222.2219999999943,"noteNumber":83,"velocity":55,"programNumber":40},{"time":79777.69799999996,"duration":222.2219999999943,"noteNumber":81,"velocity":55,"programNumber":40},{"time":79999.91999999995,"duration":55.55550000000221,"noteNumber":83,"velocity":55,"programNumber":40},{"time":80055.47549999996,"duration":55.55550000000221,"noteNumber":85,"velocity":55,"programNumber":40},{"time":80111.03099999996,"duration":55.55550000000221,"noteNumber":83,"velocity":55,"programNumber":40},{"time":80166.58649999996,"duration":55.55550000000221,"noteNumber":85,"velocity":55,"programNumber":40},{"time":80222.14199999996,"duration":222.2219999999943,"noteNumber":81,"velocity":55,"programNumber":40},{"time":80666.58599999995,"duration":111.11100000000442,"noteNumber":81,"velocity":55,"programNumber":40},{"time":80888.80799999996,"duration":111.11100000000442,"noteNumber":81,"velocity":55,"programNumber":40},{"time":81111.02999999997,"duration":111.11100000000442,"noteNumber":81,"velocity":55,"programNumber":40},{"time":81333.25199999998,"duration":111.11100000000442,"noteNumber":81,"velocity":55,"programNumber":40},{"time":81555.47399999999,"duration":111.11100000000442,"noteNumber":81,"velocity":55,"programNumber":40},{"time":81777.696,"duration":55.55550000000221,"noteNumber":83,"velocity":59,"programNumber":40},{"time":81833.2515,"duration":55.55550000000221,"noteNumber":85,"velocity":59,"programNumber":40},{"time":81888.807,"duration":55.55550000000221,"noteNumber":83,"velocity":59,"programNumber":40},{"time":81944.3625,"duration":55.55550000000221,"noteNumber":85,"velocity":59,"programNumber":40},{"time":81999.918,"duration":222.2219999999943,"noteNumber":81,"velocity":59,"programNumber":40},{"time":82666.584,"duration":629.6290000000008,"noteNumber":83,"velocity":85,"programNumber":40},{"time":82666.584,"duration":629.6290000000008,"noteNumber":71,"velocity":85,"programNumber":40},{"time":83333.25,"duration":74.07399999999325,"noteNumber":81,"velocity":85,"programNumber":40},{"time":83407.324,"duration":74.07399999999325,"noteNumber":79,"velocity":85,"programNumber":40},{"time":83481.39799999999,"duration":74.07399999999325,"noteNumber":78,"velocity":85,"programNumber":40},{"time":83555.47199999998,"duration":444.44400000000314,"noteNumber":79,"velocity":85,"programNumber":40},{"time":84444.35999999999,"duration":629.6290000000008,"noteNumber":69,"velocity":85,"programNumber":40},{"time":84444.35999999999,"duration":629.6290000000008,"noteNumber":81,"velocity":85,"programNumber":40},{"time":85111.02599999998,"duration":74.07399999999325,"noteNumber":79,"velocity":85,"programNumber":40},{"time":85185.09999999998,"duration":74.07399999999325,"noteNumber":78,"velocity":85,"programNumber":40},{"time":85259.17399999997,"duration":74.07399999999325,"noteNumber":76,"velocity":85,"programNumber":40},{"time":85333.24799999996,"duration":444.44400000000314,"noteNumber":78,"velocity":85,"programNumber":40},{"time":86222.13599999997,"duration":222.2219999999943,"noteNumber":83,"velocity":80,"programNumber":40},{"time":86444.35799999996,"duration":111.11100000000442,"noteNumber":85,"velocity":82,"programNumber":40},{"time":86555.46899999997,"duration":111.11100000000442,"noteNumber":86,"velocity":83,"programNumber":40},{"time":86666.57999999997,"duration":166.66650000000664,"noteNumber":85,"velocity":83,"programNumber":40},{"time":86888.80199999998,"duration":111.11100000000442,"noteNumber":83,"velocity":85,"programNumber":40},{"time":87111.02399999999,"duration":222.2219999999943,"noteNumber":83,"velocity":86,"programNumber":40},{"time":87333.24599999998,"duration":166.66650000000664,"noteNumber":81,"velocity":88,"programNumber":40},{"time":87555.468,"duration":111.11100000000442,"noteNumber":78,"velocity":88,"programNumber":40},{"time":87777.69,"duration":111.11100000000442,"noteNumber":81,"velocity":88,"programNumber":40},{"time":87999.91200000001,"duration":222.2219999999943,"noteNumber":81,"velocity":88,"programNumber":40},{"time":88222.134,"duration":166.66650000000664,"noteNumber":79,"velocity":88,"programNumber":40},{"time":88444.35600000001,"duration":111.11100000000442,"noteNumber":78,"velocity":88,"programNumber":40},{"time":88666.57800000002,"duration":111.11100000000442,"noteNumber":76,"velocity":88,"programNumber":40},{"time":88888.80000000003,"duration":166.66650000000664,"noteNumber":74,"velocity":88,"programNumber":40},{"time":89111.02200000004,"duration":166.66650000000664,"noteNumber":69,"velocity":88,"programNumber":40},{"time":89333.24400000005,"duration":166.66650000000664,"noteNumber":71,"velocity":88,"programNumber":40},{"time":89555.46600000006,"duration":166.66650000000664,"noteNumber":73,"velocity":85,"programNumber":40},{"time":89777.68800000007,"duration":111.11100000000442,"noteNumber":74,"velocity":82,"programNumber":40},{"time":89999.91000000008,"duration":111.11100000000442,"noteNumber":74,"velocity":85,"programNumber":40},{"time":90222.13200000009,"duration":55.55550000000221,"noteNumber":76,"velocity":85,"programNumber":40},{"time":90277.68750000009,"duration":55.55550000000221,"noteNumber":78,"velocity":85,"programNumber":40},{"time":90333.24300000009,"duration":55.55550000000221,"noteNumber":76,"velocity":85,"programNumber":40},{"time":90388.79850000009,"duration":55.55550000000221,"noteNumber":78,"velocity":85,"programNumber":40},{"time":90444.3540000001,"duration":111.11100000000442,"noteNumber":74,"velocity":85,"programNumber":40},{"time":90555.4650000001,"duration":111.11100000000442,"noteNumber":76,"velocity":85,"programNumber":40},{"time":90666.5760000001,"duration":222.2219999999943,"noteNumber":78,"velocity":85,"programNumber":40},{"time":90888.7980000001,"duration":166.66650000000664,"noteNumber":73,"velocity":85,"programNumber":40},{"time":91111.0200000001,"duration":166.66650000000664,"noteNumber":74,"velocity":85,"programNumber":40},{"time":91333.24200000011,"duration":166.66650000000664,"noteNumber":76,"velocity":85,"programNumber":40},{"time":91555.46400000012,"duration":166.66650000000664,"noteNumber":78,"velocity":85,"programNumber":40},{"time":91777.68600000013,"duration":166.66650000000664,"noteNumber":78,"velocity":85,"programNumber":40},{"time":91999.90800000014,"duration":55.55550000000221,"noteNumber":79,"velocity":85,"programNumber":40},{"time":92055.46350000014,"duration":55.55550000000221,"noteNumber":81,"velocity":86,"programNumber":40},{"time":92111.01900000015,"duration":55.55550000000221,"noteNumber":79,"velocity":88,"programNumber":40},{"time":92166.57450000015,"duration":55.55550000000221,"noteNumber":81,"velocity":88,"programNumber":40},{"time":92222.13000000015,"duration":111.11100000000442,"noteNumber":78,"velocity":88,"programNumber":40},{"time":92333.24100000015,"duration":111.11100000000442,"noteNumber":79,"velocity":88,"programNumber":40},{"time":92444.35200000016,"duration":166.66650000000664,"noteNumber":81,"velocity":88,"programNumber":40},{"time":92666.57400000017,"duration":166.66650000000664,"noteNumber":81,"velocity":91,"programNumber":40},{"time":92888.79600000018,"duration":55.55550000000221,"noteNumber":82,"velocity":92,"programNumber":40},{"time":92944.35150000018,"duration":55.55550000000221,"noteNumber":83,"velocity":92,"programNumber":40},{"time":92999.90700000018,"duration":55.55550000000221,"noteNumber":82,"velocity":94,"programNumber":40},{"time":93055.46250000018,"duration":55.55550000000221,"noteNumber":83,"velocity":94,"programNumber":40},{"time":93111.01800000019,"duration":111.11100000000442,"noteNumber":80,"velocity":95,"programNumber":40},{"time":93222.12900000019,"duration":111.11100000000442,"noteNumber":82,"velocity":97,"programNumber":40},{"time":93333.2400000002,"duration":444.44400000000314,"noteNumber":83,"velocity":100,"programNumber":40},{"time":94222.1280000002,"duration":666.6659999999974,"noteNumber":71,"velocity":47,"programNumber":40},{"time":94888.7940000002,"duration":166.66650000000664,"noteNumber":76,"velocity":47,"programNumber":40},{"time":95111.0160000002,"duration":222.2219999999943,"noteNumber":74,"velocity":47,"programNumber":40},{"time":95333.2380000002,"duration":222.2219999999943,"noteNumber":73,"velocity":47,"programNumber":40},{"time":95555.4600000002,"duration":222.2219999999943,"noteNumber":71,"velocity":49,"programNumber":40},{"time":95777.68200000019,"duration":222.2219999999943,"noteNumber":69,"velocity":50,"programNumber":40},{"time":95999.90400000018,"duration":222.2219999999943,"noteNumber":74,"velocity":50,"programNumber":40},{"time":96444.34800000017,"duration":222.2219999999943,"noteNumber":78,"velocity":50,"programNumber":40},{"time":96888.79200000016,"duration":222.2219999999943,"noteNumber":74,"velocity":41,"programNumber":40},{"time":97777.68000000015,"duration":444.44400000000314,"noteNumber":71,"velocity":85,"programNumber":40},{"time":97777.68000000015,"duration":444.44400000000314,"noteNumber":79,"velocity":85,"programNumber":40},{"time":97777.68000000015,"duration":444.44400000000314,"noteNumber":62,"velocity":85,"programNumber":40},{"time":98444.34600000015,"duration":111.11100000000442,"noteNumber":74,"velocity":85,"programNumber":40},{"time":98666.56800000016,"duration":444.44400000000314,"noteNumber":79,"velocity":85,"programNumber":40},{"time":99333.23400000016,"duration":111.11100000000442,"noteNumber":74,"velocity":85,"programNumber":40},{"time":99555.45600000017,"duration":111.11100000000442,"noteNumber":79,"velocity":85,"programNumber":40},{"time":99777.67800000017,"duration":111.11100000000442,"noteNumber":74,"velocity":85,"programNumber":40},{"time":99999.90000000018,"duration":111.11100000000442,"noteNumber":79,"velocity":85,"programNumber":40},{"time":100222.12200000019,"duration":111.11100000000442,"noteNumber":83,"velocity":85,"programNumber":40},{"time":100444.3440000002,"duration":444.44400000000314,"noteNumber":86,"velocity":85,"programNumber":40},{"time":101333.23200000021,"duration":444.44400000000314,"noteNumber":84,"velocity":85,"programNumber":40},{"time":101999.8980000002,"duration":111.11100000000442,"noteNumber":81,"velocity":76,"programNumber":40},{"time":102222.12000000021,"duration":444.44400000000314,"noteNumber":84,"velocity":85,"programNumber":40},{"time":102888.78600000021,"duration":111.11100000000442,"noteNumber":81,"velocity":76,"programNumber":40},{"time":103111.00800000022,"duration":111.11100000000442,"noteNumber":84,"velocity":85,"programNumber":40},{"time":103333.23000000023,"duration":111.11100000000442,"noteNumber":81,"velocity":74,"programNumber":40},{"time":103555.45200000024,"duration":111.11100000000442,"noteNumber":78,"velocity":85,"programNumber":40},{"time":103777.67400000025,"duration":111.11100000000442,"noteNumber":81,"velocity":71,"programNumber":40},{"time":103999.89600000026,"duration":444.44400000000314,"noteNumber":74,"velocity":85,"programNumber":40},{"time":104888.78400000026,"duration":222.2219999999943,"noteNumber":71,"velocity":85,"programNumber":40},{"time":104888.78400000026,"duration":222.2219999999943,"noteNumber":79,"velocity":85,"programNumber":40},{"time":104888.78400000026,"duration":222.2219999999943,"noteNumber":62,"velocity":85,"programNumber":40},{"time":105333.22800000025,"duration":666.6659999999974,"noteNumber":79,"velocity":85,"programNumber":40},{"time":105999.89400000025,"duration":222.2219999999943,"noteNumber":83,"velocity":85,"programNumber":40},{"time":106222.11600000024,"duration":111.11100000000442,"noteNumber":81,"velocity":85,"programNumber":40},{"time":106444.33800000025,"duration":111.11100000000442,"noteNumber":79,"velocity":85,"programNumber":40},{"time":106666.56000000026,"duration":55.55550000000221,"noteNumber":79,"velocity":85,"programNumber":40},{"time":106722.11550000026,"duration":55.55550000000221,"noteNumber":81,"velocity":85,"programNumber":40},{"time":106777.67100000026,"duration":55.55550000000221,"noteNumber":79,"velocity":85,"programNumber":40},{"time":106833.22650000027,"duration":55.55550000000221,"noteNumber":81,"velocity":85,"programNumber":40},{"time":106888.78200000027,"duration":185.18499999999767,"noteNumber":78,"velocity":85,"programNumber":40},{"time":107111.00400000026,"duration":666.6659999999974,"noteNumber":78,"velocity":85,"programNumber":40},{"time":107777.67000000026,"duration":222.2219999999943,"noteNumber":81,"velocity":85,"programNumber":40},{"time":107999.89200000025,"duration":111.11100000000442,"noteNumber":84,"velocity":85,"programNumber":40},{"time":108222.11400000026,"duration":111.11100000000442,"noteNumber":78,"velocity":85,"programNumber":40},{"time":108444.33600000027,"duration":222.2219999999943,"noteNumber":81,"velocity":85,"programNumber":40},{"time":108666.55800000027,"duration":111.11100000000442,"noteNumber":79,"velocity":85,"programNumber":40},{"time":108888.78000000028,"duration":666.6659999999974,"noteNumber":79,"velocity":85,"programNumber":40},{"time":109555.44600000027,"duration":222.2219999999943,"noteNumber":83,"velocity":85,"programNumber":40},{"time":109777.66800000027,"duration":111.11100000000442,"noteNumber":81,"velocity":85,"programNumber":40},{"time":109999.89000000028,"duration":111.11100000000442,"noteNumber":79,"velocity":85,"programNumber":40},{"time":110222.11200000028,"duration":55.55550000000221,"noteNumber":79,"velocity":85,"programNumber":40},{"time":110277.66750000029,"duration":55.55550000000221,"noteNumber":81,"velocity":85,"programNumber":40},{"time":110333.22300000029,"duration":55.55550000000221,"noteNumber":79,"velocity":85,"programNumber":40},{"time":110388.77850000029,"duration":55.55550000000221,"noteNumber":81,"velocity":85,"programNumber":40},{"time":110444.3340000003,"duration":185.18499999999767,"noteNumber":78,"velocity":85,"programNumber":40},{"time":110666.55600000029,"duration":666.6659999999974,"noteNumber":78,"velocity":85,"programNumber":40},{"time":111333.22200000029,"duration":222.2219999999943,"noteNumber":81,"velocity":85,"programNumber":40},{"time":111555.44400000028,"duration":111.11100000000442,"noteNumber":84,"velocity":85,"programNumber":40},{"time":111777.66600000029,"duration":111.11100000000442,"noteNumber":78,"velocity":85,"programNumber":40},{"time":111999.8880000003,"duration":111.11100000000442,"noteNumber":79,"velocity":85,"programNumber":40},{"time":112222.1100000003,"duration":111.11100000000442,"noteNumber":79,"velocity":85,"programNumber":40},{"time":112444.33200000032,"duration":111.11100000000442,"noteNumber":79,"velocity":85,"programNumber":40},{"time":112555.44300000032,"duration":111.11100000000442,"noteNumber":78,"velocity":85,"programNumber":40},{"time":112666.55400000032,"duration":111.11100000000442,"noteNumber":76,"velocity":85,"programNumber":40},{"time":112777.66500000033,"duration":111.11100000000442,"noteNumber":78,"velocity":85,"programNumber":40},{"time":112888.77600000033,"duration":111.11100000000442,"noteNumber":79,"velocity":85,"programNumber":40},{"time":113110.99800000034,"duration":111.11100000000442,"noteNumber":79,"velocity":85,"programNumber":40},{"time":113333.22000000035,"duration":111.11100000000442,"noteNumber":83,"velocity":85,"programNumber":40},{"time":113444.33100000035,"duration":111.11100000000442,"noteNumber":81,"velocity":85,"programNumber":40},{"time":113555.44200000036,"duration":111.11100000000442,"noteNumber":79,"velocity":85,"programNumber":40},{"time":113666.55300000036,"duration":111.11100000000442,"noteNumber":81,"velocity":85,"programNumber":40},{"time":113777.66400000037,"duration":111.11100000000442,"noteNumber":83,"velocity":85,"programNumber":40},{"time":113999.88600000038,"duration":111.11100000000442,"noteNumber":83,"velocity":85,"programNumber":40},{"time":114222.10800000039,"duration":111.11100000000442,"noteNumber":86,"velocity":85,"programNumber":40},{"time":114333.21900000039,"duration":111.11100000000442,"noteNumber":84,"velocity":85,"programNumber":40},{"time":114444.3300000004,"duration":111.11100000000442,"noteNumber":83,"velocity":85,"programNumber":40},{"time":114555.4410000004,"duration":111.11100000000442,"noteNumber":84,"velocity":85,"programNumber":40},{"time":114666.5520000004,"duration":444.44400000000314,"noteNumber":86,"velocity":85,"programNumber":40},{"time":115555.44000000041,"duration":888.8880000000063,"noteNumber":74,"velocity":52,"programNumber":40},{"time":116444.32800000042,"duration":888.8880000000063,"noteNumber":76,"velocity":40,"programNumber":40},{"time":117333.21600000042,"duration":111.11100000000442,"noteNumber":74,"velocity":44,"programNumber":40},{"time":117444.32700000043,"duration":296.2960000000021,"noteNumber":72,"velocity":46,"programNumber":40},{"time":117777.66000000043,"duration":444.44400000000314,"noteNumber":72,"velocity":46,"programNumber":40},{"time":118222.10400000043,"duration":111.11100000000442,"noteNumber":72,"velocity":47,"programNumber":40},{"time":118333.21500000043,"duration":296.2960000000021,"noteNumber":71,"velocity":47,"programNumber":40},{"time":118666.54800000043,"duration":444.44400000000314,"noteNumber":71,"velocity":47,"programNumber":40},{"time":119110.99200000043,"duration":111.11100000000442,"noteNumber":71,"velocity":47,"programNumber":40},{"time":119222.10300000044,"duration":296.2960000000021,"noteNumber":69,"velocity":47,"programNumber":40},{"time":119555.43600000044,"duration":444.44400000000314,"noteNumber":69,"velocity":47,"programNumber":40},{"time":119999.88000000044,"duration":222.2219999999943,"noteNumber":67,"velocity":47,"programNumber":40},{"time":120222.10200000044,"duration":111.11100000000442,"noteNumber":66,"velocity":47,"programNumber":40},{"time":120444.32400000044,"duration":111.11100000000442,"noteNumber":64,"velocity":47,"programNumber":40},{"time":120666.54600000045,"duration":111.11100000000442,"noteNumber":66,"velocity":47,"programNumber":40},{"time":120888.76800000046,"duration":222.2219999999943,"noteNumber":67,"velocity":47,"programNumber":40},{"time":121333.21200000045,"duration":222.2219999999943,"noteNumber":69,"velocity":47,"programNumber":40},{"time":121777.65600000044,"duration":222.2219999999943,"noteNumber":71,"velocity":47,"programNumber":40},{"time":122666.54400000043,"duration":888.8880000000063,"noteNumber":74,"velocity":54,"programNumber":40},{"time":123555.43200000044,"duration":888.8880000000063,"noteNumber":76,"velocity":59,"programNumber":40},{"time":124444.32000000044,"duration":222.2219999999943,"noteNumber":74,"velocity":47,"programNumber":40},{"time":124666.54200000044,"duration":111.11100000000442,"noteNumber":72,"velocity":47,"programNumber":40},{"time":124888.76400000045,"duration":111.11100000000442,"noteNumber":72,"velocity":47,"programNumber":40},{"time":125110.98600000046,"duration":111.11100000000442,"noteNumber":72,"velocity":47,"programNumber":40},{"time":125333.20800000046,"duration":222.2219999999943,"noteNumber":72,"velocity":47,"programNumber":40},{"time":125555.43000000046,"duration":111.11100000000442,"noteNumber":71,"velocity":47,"programNumber":40},{"time":125777.65200000047,"duration":111.11100000000442,"noteNumber":71,"velocity":47,"programNumber":40},{"time":125999.87400000048,"duration":111.11100000000442,"noteNumber":71,"velocity":47,"programNumber":40},{"time":126222.09600000049,"duration":222.2219999999943,"noteNumber":71,"velocity":47,"programNumber":40},{"time":126444.31800000048,"duration":111.11100000000442,"noteNumber":69,"velocity":47,"programNumber":40},{"time":126666.54000000049,"duration":166.66650000000664,"noteNumber":69,"velocity":47,"programNumber":40},{"time":126888.7620000005,"duration":166.66650000000664,"noteNumber":69,"velocity":47,"programNumber":40},{"time":127110.9840000005,"duration":222.2219999999943,"noteNumber":67,"velocity":47,"programNumber":40},{"time":127333.2060000005,"duration":222.2219999999943,"noteNumber":66,"velocity":47,"programNumber":40},{"time":127555.4280000005,"duration":222.2219999999943,"noteNumber":64,"velocity":47,"programNumber":40},{"time":127777.65000000049,"duration":222.2219999999943,"noteNumber":66,"velocity":47,"programNumber":40},{"time":127999.87200000048,"duration":1111.1100000000006,"noteNumber":67,"velocity":95,"programNumber":40},{"time":127999.87200000048,"duration":1111.1100000000006,"noteNumber":55,"velocity":95,"programNumber":40},{"time":129110.98200000048,"duration":55.55550000000221,"noteNumber":67,"velocity":61,"programNumber":40},{"time":129166.53750000049,"duration":55.55550000000221,"noteNumber":69,"velocity":61,"programNumber":40},{"time":129222.09300000049,"duration":55.55550000000221,"noteNumber":66,"velocity":61,"programNumber":40},{"time":129277.64850000049,"duration":55.55550000000221,"noteNumber":67,"velocity":61,"programNumber":40},{"time":129333.20400000049,"duration":222.2219999999943,"noteNumber":69,"velocity":61,"programNumber":40},{"time":129555.42600000049,"duration":222.2219999999943,"noteNumber":66,"velocity":61,"programNumber":40},{"time":129777.64800000048,"duration":1111.1100000000006,"noteNumber":71,"velocity":85,"programNumber":40},{"time":130888.75800000048,"duration":55.55550000000221,"noteNumber":71,"velocity":61,"programNumber":40},{"time":130944.31350000048,"duration":55.55550000000221,"noteNumber":72,"velocity":61,"programNumber":40},{"time":130999.86900000049,"duration":55.55550000000221,"noteNumber":69,"velocity":61,"programNumber":40},{"time":131055.42450000049,"duration":55.55549999998766,"noteNumber":71,"velocity":61,"programNumber":40},{"time":131110.98000000048,"duration":222.22200000000885,"noteNumber":72,"velocity":61,"programNumber":40},{"time":131333.20200000048,"duration":222.22200000000885,"noteNumber":69,"velocity":61,"programNumber":40},{"time":131555.4240000005,"duration":74.07399999999325,"noteNumber":74,"velocity":46,"programNumber":40},{"time":131666.5350000005,"duration":74.07399999999325,"noteNumber":74,"velocity":46,"programNumber":40},{"time":131777.6460000005,"duration":74.07399999999325,"noteNumber":74,"velocity":47,"programNumber":40},{"time":131888.7570000005,"duration":74.07399999999325,"noteNumber":74,"velocity":47,"programNumber":40},{"time":131999.8680000005,"duration":74.07399999999325,"noteNumber":74,"velocity":49,"programNumber":40},{"time":132110.97900000052,"duration":74.07399999999325,"noteNumber":74,"velocity":50,"programNumber":40},{"time":132222.09000000052,"duration":74.07399999999325,"noteNumber":74,"velocity":50,"programNumber":40},{"time":132333.20100000052,"duration":74.07399999999325,"noteNumber":74,"velocity":52,"programNumber":40},{"time":132444.31200000053,"duration":74.07399999999325,"noteNumber":76,"velocity":53,"programNumber":40},{"time":132555.42300000053,"duration":74.07399999999325,"noteNumber":76,"velocity":53,"programNumber":40},{"time":132666.53400000054,"duration":74.07399999999325,"noteNumber":76,"velocity":55,"programNumber":40},{"time":132777.64500000054,"duration":74.07399999999325,"noteNumber":76,"velocity":56,"programNumber":40},{"time":132888.75600000055,"duration":74.07399999999325,"noteNumber":78,"velocity":56,"programNumber":40},{"time":132999.86700000055,"duration":74.07399999999325,"noteNumber":78,"velocity":58,"programNumber":40},{"time":133110.97800000056,"duration":74.07399999999325,"noteNumber":78,"velocity":58,"programNumber":40},{"time":133222.08900000056,"duration":74.07399999999325,"noteNumber":78,"velocity":59,"programNumber":40},{"time":133333.20000000056,"duration":74.07399999999325,"noteNumber":79,"velocity":61,"programNumber":40},{"time":133444.31100000057,"duration":74.07399999999325,"noteNumber":79,"velocity":61,"programNumber":40},{"time":133555.42200000057,"duration":74.07399999999325,"noteNumber":79,"velocity":62,"programNumber":40},{"time":133666.53300000058,"duration":74.07399999999325,"noteNumber":79,"velocity":64,"programNumber":40},{"time":133777.64400000058,"duration":74.07399999999325,"noteNumber":81,"velocity":64,"programNumber":40},{"time":133888.7550000006,"duration":74.07399999999325,"noteNumber":81,"velocity":65,"programNumber":40},{"time":133999.8660000006,"duration":74.07399999999325,"noteNumber":81,"velocity":67,"programNumber":40},{"time":134110.9770000006,"duration":74.07399999999325,"noteNumber":81,"velocity":67,"programNumber":40},{"time":134222.0880000006,"duration":74.07399999999325,"noteNumber":83,"velocity":68,"programNumber":40},{"time":134333.1990000006,"duration":74.07399999999325,"noteNumber":83,"velocity":68,"programNumber":40},{"time":134444.3100000006,"duration":74.07399999999325,"noteNumber":83,"velocity":70,"programNumber":40},{"time":134555.4210000006,"duration":74.07399999999325,"noteNumber":83,"velocity":71,"programNumber":40},{"time":134666.53200000062,"duration":74.07399999999325,"noteNumber":85,"velocity":71,"programNumber":40},{"time":134777.64300000062,"duration":74.07399999999325,"noteNumber":85,"velocity":73,"programNumber":40},{"time":134888.75400000063,"duration":74.07399999999325,"noteNumber":85,"velocity":74,"programNumber":40},{"time":134999.86500000063,"duration":74.07399999999325,"noteNumber":85,"velocity":74,"programNumber":40},{"time":135110.97600000064,"duration":666.6659999999974,"noteNumber":86,"velocity":92,"programNumber":40},{"time":135777.64200000063,"duration":222.22200000000885,"noteNumber":81,"velocity":85,"programNumber":40},{"time":135999.86400000064,"duration":333.33300000001327,"noteNumber":85,"velocity":85,"programNumber":40},{"time":136333.19700000065,"duration":111.11100000000442,"noteNumber":81,"velocity":85,"programNumber":40},{"time":136444.30800000066,"duration":333.33300000001327,"noteNumber":85,"velocity":85,"programNumber":40},{"time":136777.64100000067,"duration":111.11100000000442,"noteNumber":81,"velocity":85,"programNumber":40},{"time":136888.75200000068,"duration":666.6659999999974,"noteNumber":86,"velocity":98,"programNumber":40},{"time":137555.41800000067,"duration":222.22200000000885,"noteNumber":81,"velocity":85,"programNumber":40},{"time":137777.64000000068,"duration":333.33300000001327,"noteNumber":85,"velocity":85,"programNumber":40},{"time":138110.9730000007,"duration":111.11100000000442,"noteNumber":81,"velocity":85,"programNumber":40},{"time":138222.0840000007,"duration":333.33300000001327,"noteNumber":85,"velocity":85,"programNumber":40},{"time":138555.4170000007,"duration":111.11100000000442,"noteNumber":81,"velocity":85,"programNumber":40},{"time":138666.52800000072,"duration":111.11100000000442,"noteNumber":86,"velocity":85,"programNumber":40},{"time":138888.75000000073,"duration":333.33300000001327,"noteNumber":86,"velocity":98,"programNumber":40},{"time":138888.75000000073,"duration":333.33300000001327,"noteNumber":78,"velocity":98,"programNumber":40},{"time":139333.19400000075,"duration":333.33300000001327,"noteNumber":86,"velocity":85,"programNumber":40},{"time":139333.19400000075,"duration":333.33300000001327,"noteNumber":78,"velocity":85,"programNumber":40},{"time":139777.63800000076,"duration":333.33300000001327,"noteNumber":86,"velocity":85,"programNumber":40},{"time":139777.63800000076,"duration":333.33300000001327,"noteNumber":78,"velocity":85,"programNumber":40},{"time":140222.08200000078,"duration":222.22200000000885,"noteNumber":78,"velocity":85,"programNumber":40},{"time":140444.3040000008,"duration":111.11100000000442,"noteNumber":76,"velocity":85,"programNumber":40},{"time":140222.08200000078,"duration":333.33300000001327,"noteNumber":86,"velocity":85,"programNumber":40},{"time":140666.5260000008,"duration":333.33300000001327,"noteNumber":86,"velocity":85,"programNumber":40},{"time":140666.5260000008,"duration":333.33300000001327,"noteNumber":76,"velocity":85,"programNumber":40},{"time":141110.97000000082,"duration":333.33300000001327,"noteNumber":86,"velocity":85,"programNumber":40},{"time":141110.97000000082,"duration":333.33300000001327,"noteNumber":76,"velocity":85,"programNumber":40},{"time":141555.41400000083,"duration":333.33300000001327,"noteNumber":86,"velocity":85,"programNumber":40},{"time":141555.41400000083,"duration":333.33300000001327,"noteNumber":76,"velocity":85,"programNumber":40},{"time":141999.85800000085,"duration":222.22200000000885,"noteNumber":86,"velocity":85,"programNumber":40},{"time":141999.85800000085,"duration":222.22200000000885,"noteNumber":76,"velocity":85,"programNumber":40},{"time":142222.08000000086,"duration":166.66649999999208,"noteNumber":85,"velocity":97,"programNumber":40},{"time":142222.08000000086,"duration":166.66649999999208,"noteNumber":76,"velocity":97,"programNumber":40},{"time":142444.30200000084,"duration":166.66649999999208,"noteNumber":81,"velocity":85,"programNumber":40},{"time":142666.52400000082,"duration":166.66649999999208,"noteNumber":86,"velocity":85,"programNumber":40},{"time":142888.7460000008,"duration":166.66649999999208,"noteNumber":81,"velocity":85,"programNumber":40},{"time":143110.96800000078,"duration":166.66649999999208,"noteNumber":85,"velocity":85,"programNumber":40},{"time":143333.19000000076,"duration":166.66649999999208,"noteNumber":81,"velocity":85,"programNumber":40},{"time":143555.41200000074,"duration":166.66649999999208,"noteNumber":86,"velocity":85,"programNumber":40},{"time":143777.63400000072,"duration":166.66649999999208,"noteNumber":81,"velocity":85,"programNumber":40},{"time":143999.8560000007,"duration":166.66649999999208,"noteNumber":85,"velocity":97,"programNumber":40},{"time":144222.07800000068,"duration":166.66649999999208,"noteNumber":69,"velocity":85,"programNumber":40},{"time":144444.30000000066,"duration":166.66649999999208,"noteNumber":69,"velocity":85,"programNumber":40},{"time":144666.52200000064,"duration":166.66649999999208,"noteNumber":69,"velocity":85,"programNumber":40},{"time":144888.74400000062,"duration":444.4439999999886,"noteNumber":69,"velocity":85,"programNumber":40},{"time":145777.6320000006,"duration":666.6659999999974,"noteNumber":81,"velocity":55,"programNumber":40},{"time":146444.2980000006,"duration":74.07399999999325,"noteNumber":79,"velocity":55,"programNumber":40},{"time":146518.37200000059,"duration":74.07399999999325,"noteNumber":78,"velocity":55,"programNumber":40},{"time":146592.44600000058,"duration":74.07399999999325,"noteNumber":76,"velocity":55,"programNumber":40},{"time":146666.52000000057,"duration":222.22200000000885,"noteNumber":74,"velocity":55,"programNumber":40},{"time":147110.9640000006,"duration":222.22200000000885,"noteNumber":83,"velocity":55,"programNumber":40},{"time":147555.4080000006,"duration":222.22200000000885,"noteNumber":79,"velocity":55,"programNumber":40},{"time":147999.85200000062,"duration":222.22200000000885,"noteNumber":76,"velocity":55,"programNumber":40},{"time":148444.29600000064,"duration":222.22200000000885,"noteNumber":81,"velocity":55,"programNumber":40},{"time":149333.18400000065,"duration":666.6659999999974,"noteNumber":78,"velocity":55,"programNumber":40},{"time":149999.85000000065,"duration":74.07399999999325,"noteNumber":76,"velocity":55,"programNumber":40},{"time":150073.92400000064,"duration":74.07399999999325,"noteNumber":74,"velocity":55,"programNumber":40},{"time":150147.99800000063,"duration":74.07399999999325,"noteNumber":73,"velocity":55,"programNumber":40},{"time":150222.07200000063,"duration":222.22200000000885,"noteNumber":71,"velocity":55,"programNumber":40},{"time":150666.51600000064,"duration":222.22200000000885,"noteNumber":79,"velocity":55,"programNumber":40},{"time":151110.96000000066,"duration":888.8880000000063,"noteNumber":78,"velocity":55,"programNumber":40},{"time":151999.84800000067,"duration":444.4439999999886,"noteNumber":76,"velocity":43,"programNumber":40},{"time":153110.95800000065,"duration":111.11100000000442,"noteNumber":81,"velocity":55,"programNumber":40},{"time":153333.18000000066,"duration":111.11100000000442,"noteNumber":81,"velocity":55,"programNumber":40},{"time":153555.40200000067,"duration":111.11100000000442,"noteNumber":81,"velocity":55,"programNumber":40},{"time":153777.62400000068,"duration":111.11100000000442,"noteNumber":81,"velocity":55,"programNumber":40},{"time":153999.8460000007,"duration":111.11100000000442,"noteNumber":81,"velocity":55,"programNumber":40},{"time":154222.0680000007,"duration":111.11100000000442,"noteNumber":81,"velocity":55,"programNumber":40},{"time":154444.2900000007,"duration":111.11100000000442,"noteNumber":81,"velocity":55,"programNumber":40},{"time":154666.51200000072,"duration":111.11100000000442,"noteNumber":81,"velocity":55,"programNumber":40},{"time":154888.73400000072,"duration":111.11100000000442,"noteNumber":81,"velocity":55,"programNumber":40},{"time":155110.95600000073,"duration":111.11100000000442,"noteNumber":81,"velocity":55,"programNumber":40},{"time":155333.17800000074,"duration":111.11100000000442,"noteNumber":81,"velocity":55,"programNumber":40},{"time":155555.40000000075,"duration":111.11100000000442,"noteNumber":81,"velocity":55,"programNumber":40},{"time":155777.62200000076,"duration":111.11100000000442,"noteNumber":81,"velocity":55,"programNumber":40},{"time":155999.84400000077,"duration":111.11100000000442,"noteNumber":83,"velocity":55,"programNumber":40},{"time":156222.06600000078,"duration":111.11100000000442,"noteNumber":85,"velocity":55,"programNumber":40},{"time":156444.2880000008,"duration":222.22200000000885,"noteNumber":85,"velocity":55,"programNumber":40},{"time":156666.5100000008,"duration":222.22200000000885,"noteNumber":86,"velocity":55,"programNumber":40},{"time":157110.9540000008,"duration":111.11100000000442,"noteNumber":83,"velocity":55,"programNumber":40},{"time":157333.17600000082,"duration":222.22200000000885,"noteNumber":83,"velocity":55,"programNumber":40},{"time":157555.39800000083,"duration":222.22200000000885,"noteNumber":81,"velocity":55,"programNumber":40},{"time":157999.84200000085,"duration":166.66649999999208,"noteNumber":73,"velocity":55,"programNumber":40},{"time":158222.06400000083,"duration":444.4439999999886,"noteNumber":74,"velocity":55,"programNumber":40},{"time":158888.73000000083,"duration":111.11100000000442,"noteNumber":81,"velocity":55,"programNumber":40},{"time":159110.95200000083,"duration":222.22200000000885,"noteNumber":86,"velocity":55,"programNumber":40},{"time":159333.17400000084,"duration":222.22200000000885,"noteNumber":85,"velocity":55,"programNumber":40},{"time":159555.39600000085,"duration":222.22200000000885,"noteNumber":83,"velocity":55,"programNumber":40},{"time":159777.61800000086,"duration":222.22200000000885,"noteNumber":81,"velocity":55,"programNumber":40},{"time":159999.84000000087,"duration":55.55549999998766,"noteNumber":83,"velocity":55,"programNumber":40},{"time":160055.39550000086,"duration":55.55549999998766,"noteNumber":85,"velocity":55,"programNumber":40},{"time":160110.95100000084,"duration":55.55549999998766,"noteNumber":83,"velocity":55,"programNumber":40},{"time":160166.50650000083,"duration":55.55549999998766,"noteNumber":85,"velocity":55,"programNumber":40},{"time":160222.06200000082,"duration":222.22200000000885,"noteNumber":81,"velocity":55,"programNumber":40},{"time":160666.50600000084,"duration":111.11100000000442,"noteNumber":81,"velocity":55,"programNumber":40},{"time":160888.72800000085,"duration":111.11100000000442,"noteNumber":81,"velocity":55,"programNumber":40},{"time":161110.95000000086,"duration":111.11100000000442,"noteNumber":81,"velocity":55,"programNumber":40},{"time":161333.17200000086,"duration":111.11100000000442,"noteNumber":81,"velocity":55,"programNumber":40},{"time":161555.39400000087,"duration":111.11100000000442,"noteNumber":81,"velocity":55,"programNumber":40},{"time":161777.61600000088,"duration":55.55549999998766,"noteNumber":83,"velocity":55,"programNumber":40},{"time":161833.17150000087,"duration":55.55549999998766,"noteNumber":85,"velocity":55,"programNumber":40},{"time":161888.72700000086,"duration":55.55549999998766,"noteNumber":83,"velocity":55,"programNumber":40},{"time":161944.28250000085,"duration":55.55549999998766,"noteNumber":85,"velocity":55,"programNumber":40},{"time":161999.83800000083,"duration":222.22200000000885,"noteNumber":81,"velocity":55,"programNumber":40},{"time":162444.28200000085,"duration":166.66649999999208,"noteNumber":81,"velocity":55,"programNumber":40},{"time":162666.50400000083,"duration":222.22200000000885,"noteNumber":86,"velocity":55,"programNumber":40},{"time":162888.72600000084,"duration":222.22200000000885,"noteNumber":85,"velocity":55,"programNumber":40},{"time":163110.94800000085,"duration":222.22200000000885,"noteNumber":83,"velocity":55,"programNumber":40},{"time":163333.17000000086,"duration":222.22200000000885,"noteNumber":81,"velocity":55,"programNumber":40},{"time":163555.39200000087,"duration":55.55549999998766,"noteNumber":83,"velocity":55,"programNumber":40},{"time":163610.94750000085,"duration":55.55549999998766,"noteNumber":85,"velocity":55,"programNumber":40},{"time":163666.50300000084,"duration":55.55549999998766,"noteNumber":83,"velocity":55,"programNumber":40},{"time":163722.05850000083,"duration":55.55549999998766,"noteNumber":85,"velocity":55,"programNumber":40},{"time":163777.61400000082,"duration":222.22200000000885,"noteNumber":81,"velocity":55,"programNumber":40},{"time":164222.05800000083,"duration":111.11100000000442,"noteNumber":81,"velocity":55,"programNumber":40},{"time":164444.28000000084,"duration":111.11100000000442,"noteNumber":81,"velocity":55,"programNumber":40},{"time":164666.50200000085,"duration":111.11100000000442,"noteNumber":81,"velocity":55,"programNumber":40},{"time":164888.72400000086,"duration":111.11100000000442,"noteNumber":81,"velocity":55,"programNumber":40},{"time":165110.94600000087,"duration":111.11100000000442,"noteNumber":81,"velocity":55,"programNumber":40},{"time":165333.16800000088,"duration":55.55549999998766,"noteNumber":83,"velocity":55,"programNumber":40},{"time":165388.72350000087,"duration":55.55549999998766,"noteNumber":85,"velocity":55,"programNumber":40},{"time":165444.27900000085,"duration":55.55549999998766,"noteNumber":83,"velocity":55,"programNumber":40},{"time":165499.83450000084,"duration":55.55549999998766,"noteNumber":85,"velocity":55,"programNumber":40},{"time":165555.39000000083,"duration":222.22200000000885,"noteNumber":81,"velocity":55,"programNumber":40},{"time":166222.05600000083,"duration":629.6289999999863,"noteNumber":83,"velocity":94,"programNumber":40},{"time":166222.05600000083,"duration":629.6289999999863,"noteNumber":71,"velocity":94,"programNumber":40},{"time":166888.72200000082,"duration":74.07399999999325,"noteNumber":81,"velocity":83,"programNumber":40},{"time":166962.79600000082,"duration":74.07399999999325,"noteNumber":79,"velocity":83,"programNumber":40},{"time":167036.8700000008,"duration":74.07399999999325,"noteNumber":78,"velocity":83,"programNumber":40},{"time":167110.9440000008,"duration":444.4439999999886,"noteNumber":79,"velocity":83,"programNumber":40},{"time":167999.83200000078,"duration":629.6289999999863,"noteNumber":69,"velocity":85,"programNumber":40},{"time":167999.83200000078,"duration":629.6289999999863,"noteNumber":81,"velocity":85,"programNumber":40},{"time":168666.49800000078,"duration":74.07399999999325,"noteNumber":79,"velocity":85,"programNumber":40},{"time":168740.57200000077,"duration":74.07399999999325,"noteNumber":78,"velocity":85,"programNumber":40},{"time":168814.64600000076,"duration":74.07399999999325,"noteNumber":76,"velocity":85,"programNumber":40},{"time":168888.72000000076,"duration":444.4439999999886,"noteNumber":78,"velocity":85,"programNumber":40},{"time":169777.60800000074,"duration":222.22200000000885,"noteNumber":83,"velocity":79,"programNumber":40},{"time":169999.83000000074,"duration":111.11100000000442,"noteNumber":85,"velocity":80,"programNumber":40},{"time":170110.94100000075,"duration":111.11100000000442,"noteNumber":86,"velocity":82,"programNumber":40},{"time":170222.05200000075,"duration":166.66649999999208,"noteNumber":85,"velocity":82,"programNumber":40},{"time":170444.27400000073,"duration":111.11100000000442,"noteNumber":83,"velocity":82,"programNumber":40},{"time":170666.49600000074,"duration":222.22200000000885,"noteNumber":83,"velocity":83,"programNumber":40},{"time":170888.71800000075,"duration":166.66649999999208,"noteNumber":81,"velocity":86,"programNumber":40},{"time":171110.94000000073,"duration":111.11100000000442,"noteNumber":78,"velocity":86,"programNumber":40},{"time":171333.16200000074,"duration":111.11100000000442,"noteNumber":81,"velocity":88,"programNumber":40},{"time":171555.38400000075,"duration":222.22200000000885,"noteNumber":81,"velocity":88,"programNumber":40},{"time":171777.60600000076,"duration":166.66649999999208,"noteNumber":79,"velocity":83,"programNumber":40},{"time":171999.82800000074,"duration":111.11100000000442,"noteNumber":78,"velocity":79,"programNumber":40},{"time":172222.05000000075,"duration":111.11100000000442,"noteNumber":76,"velocity":76,"programNumber":40},{"time":172444.27200000075,"duration":444.4439999999886,"noteNumber":74,"velocity":85,"programNumber":40},{"time":173110.93800000075,"duration":111.11100000000442,"noteNumber":81,"velocity":53,"programNumber":40},{"time":173333.16000000076,"duration":222.22200000000885,"noteNumber":86,"velocity":53,"programNumber":40},{"time":173555.38200000077,"duration":222.22200000000885,"noteNumber":85,"velocity":53,"programNumber":40},{"time":173777.60400000078,"duration":222.22200000000885,"noteNumber":83,"velocity":53,"programNumber":40},{"time":173999.8260000008,"duration":222.22200000000885,"noteNumber":81,"velocity":53,"programNumber":40},{"time":174222.0480000008,"duration":55.55549999998766,"noteNumber":83,"velocity":55,"programNumber":40},{"time":174277.60350000078,"duration":55.55549999998766,"noteNumber":85,"velocity":55,"programNumber":40},{"time":174333.15900000077,"duration":55.55549999998766,"noteNumber":83,"velocity":55,"programNumber":40},{"time":174388.71450000076,"duration":55.55549999998766,"noteNumber":85,"velocity":55,"programNumber":40},{"time":174444.27000000075,"duration":222.22200000000885,"noteNumber":81,"velocity":55,"programNumber":40},{"time":174888.71400000076,"duration":111.11100000000442,"noteNumber":81,"velocity":55,"programNumber":40},{"time":175110.93600000077,"duration":111.11100000000442,"noteNumber":81,"velocity":55,"programNumber":40},{"time":175333.15800000078,"duration":111.11100000000442,"noteNumber":81,"velocity":55,"programNumber":40},{"time":175555.3800000008,"duration":111.11100000000442,"noteNumber":81,"velocity":55,"programNumber":40},{"time":175777.6020000008,"duration":111.11100000000442,"noteNumber":81,"velocity":55,"programNumber":40},{"time":175999.8240000008,"duration":55.55549999998766,"noteNumber":83,"velocity":55,"programNumber":40},{"time":176055.3795000008,"duration":55.55549999998766,"noteNumber":85,"velocity":55,"programNumber":40},{"time":176110.93500000078,"duration":55.55549999998766,"noteNumber":83,"velocity":55,"programNumber":40},{"time":176166.49050000077,"duration":55.55549999998766,"noteNumber":85,"velocity":55,"programNumber":40},{"time":176222.04600000076,"duration":222.22200000000885,"noteNumber":81,"velocity":55,"programNumber":40},{"time":176666.49000000078,"duration":166.66649999999208,"noteNumber":81,"velocity":55,"programNumber":40},{"time":176888.71200000076,"duration":222.22200000000885,"noteNumber":86,"velocity":55,"programNumber":40},{"time":177110.93400000077,"duration":222.22200000000885,"noteNumber":85,"velocity":55,"programNumber":40},{"time":177333.15600000077,"duration":222.22200000000885,"noteNumber":83,"velocity":55,"programNumber":40},{"time":177555.37800000078,"duration":222.22200000000885,"noteNumber":81,"velocity":55,"programNumber":40},{"time":177777.6000000008,"duration":55.55549999998766,"noteNumber":83,"velocity":55,"programNumber":40},{"time":177833.15550000078,"duration":55.55549999998766,"noteNumber":85,"velocity":55,"programNumber":40},{"time":177888.71100000077,"duration":55.55549999998766,"noteNumber":83,"velocity":55,"programNumber":40},{"time":177944.26650000075,"duration":55.55549999998766,"noteNumber":85,"velocity":55,"programNumber":40},{"time":177999.82200000074,"duration":222.22200000000885,"noteNumber":81,"velocity":55,"programNumber":40},{"time":178444.26600000076,"duration":111.11100000000442,"noteNumber":81,"velocity":55,"programNumber":40},{"time":178666.48800000077,"duration":111.11100000000442,"noteNumber":81,"velocity":55,"programNumber":40},{"time":178888.71000000078,"duration":111.11100000000442,"noteNumber":81,"velocity":55,"programNumber":40},{"time":179110.9320000008,"duration":111.11100000000442,"noteNumber":81,"velocity":55,"programNumber":40},{"time":179333.1540000008,"duration":111.11100000000442,"noteNumber":81,"velocity":55,"programNumber":40},{"time":179555.3760000008,"duration":55.55549999998766,"noteNumber":83,"velocity":59,"programNumber":40},{"time":179610.9315000008,"duration":55.55549999998766,"noteNumber":85,"velocity":59,"programNumber":40},{"time":179666.48700000078,"duration":55.55549999998766,"noteNumber":83,"velocity":59,"programNumber":40},{"time":179722.04250000077,"duration":55.55549999998766,"noteNumber":85,"velocity":59,"programNumber":40},{"time":179777.59800000075,"duration":222.22200000000885,"noteNumber":81,"velocity":59,"programNumber":40},{"time":180444.26400000075,"duration":629.6289999999863,"noteNumber":83,"velocity":85,"programNumber":40},{"time":180444.26400000075,"duration":629.6289999999863,"noteNumber":71,"velocity":85,"programNumber":40},{"time":181110.93000000075,"duration":74.07399999999325,"noteNumber":81,"velocity":85,"programNumber":40},{"time":181185.00400000074,"duration":74.07399999999325,"noteNumber":79,"velocity":85,"programNumber":40},{"time":181259.07800000074,"duration":74.07399999999325,"noteNumber":78,"velocity":85,"programNumber":40},{"time":181333.15200000073,"duration":444.4439999999886,"noteNumber":79,"velocity":85,"programNumber":40},{"time":182222.0400000007,"duration":629.6289999999863,"noteNumber":69,"velocity":85,"programNumber":40},{"time":182222.0400000007,"duration":629.6289999999863,"noteNumber":81,"velocity":85,"programNumber":40},{"time":182888.7060000007,"duration":74.07399999999325,"noteNumber":79,"velocity":85,"programNumber":40},{"time":182962.7800000007,"duration":74.07399999999325,"noteNumber":78,"velocity":85,"programNumber":40},{"time":183036.8540000007,"duration":74.07399999999325,"noteNumber":76,"velocity":85,"programNumber":40},{"time":183110.92800000068,"duration":444.4439999999886,"noteNumber":78,"velocity":85,"programNumber":40},{"time":183999.81600000066,"duration":222.22200000000885,"noteNumber":83,"velocity":85,"programNumber":40},{"time":184222.03800000067,"duration":111.11100000000442,"noteNumber":85,"velocity":85,"programNumber":40},{"time":184333.14900000067,"duration":111.11100000000442,"noteNumber":86,"velocity":85,"programNumber":40},{"time":184444.26000000068,"duration":166.66649999999208,"noteNumber":85,"velocity":85,"programNumber":40},{"time":184666.48200000066,"duration":111.11100000000442,"noteNumber":83,"velocity":85,"programNumber":40},{"time":184888.70400000067,"duration":222.22200000000885,"noteNumber":83,"velocity":95,"programNumber":40},{"time":185110.92600000068,"duration":166.66649999999208,"noteNumber":81,"velocity":85,"programNumber":40},{"time":185333.14800000066,"duration":111.11100000000442,"noteNumber":78,"velocity":85,"programNumber":40},{"time":185555.37000000066,"duration":111.11100000000442,"noteNumber":81,"velocity":85,"programNumber":40},{"time":185777.59200000067,"duration":222.22200000000885,"noteNumber":81,"velocity":85,"programNumber":40},{"time":185999.81400000068,"duration":166.66649999999208,"noteNumber":79,"velocity":85,"programNumber":40},{"time":186222.03600000066,"duration":111.11100000000442,"noteNumber":78,"velocity":85,"programNumber":40},{"time":186444.25800000067,"duration":111.11100000000442,"noteNumber":76,"velocity":85,"programNumber":40},{"time":186666.48000000068,"duration":166.66649999999208,"noteNumber":74,"velocity":85,"programNumber":40},{"time":186888.70200000066,"duration":166.66649999999208,"noteNumber":69,"velocity":85,"programNumber":40},{"time":187110.92400000064,"duration":166.66649999999208,"noteNumber":71,"velocity":85,"programNumber":40},{"time":187333.14600000062,"duration":166.66649999999208,"noteNumber":73,"velocity":85,"programNumber":40},{"time":187555.3680000006,"duration":111.11100000000442,"noteNumber":74,"velocity":85,"programNumber":40},{"time":187777.5900000006,"duration":111.11100000000442,"noteNumber":74,"velocity":85,"programNumber":40},{"time":187999.81200000062,"duration":55.55549999998766,"noteNumber":76,"velocity":85,"programNumber":40},{"time":188055.3675000006,"duration":55.55549999998766,"noteNumber":78,"velocity":85,"programNumber":40},{"time":188110.9230000006,"duration":55.55549999998766,"noteNumber":76,"velocity":85,"programNumber":40},{"time":188166.47850000058,"duration":55.55549999998766,"noteNumber":78,"velocity":85,"programNumber":40},{"time":188222.03400000057,"duration":111.11100000000442,"noteNumber":74,"velocity":85,"programNumber":40},{"time":188333.14500000057,"duration":111.11100000000442,"noteNumber":76,"velocity":85,"programNumber":40},{"time":188444.25600000058,"duration":222.22200000000885,"noteNumber":78,"velocity":85,"programNumber":40},{"time":188666.47800000058,"duration":166.66649999999208,"noteNumber":73,"velocity":85,"programNumber":40},{"time":188888.70000000056,"duration":166.66649999999208,"noteNumber":74,"velocity":85,"programNumber":40},{"time":189110.92200000054,"duration":166.66649999999208,"noteNumber":76,"velocity":85,"programNumber":40},{"time":189333.14400000052,"duration":166.66649999999208,"noteNumber":78,"velocity":85,"programNumber":40},{"time":189555.3660000005,"duration":166.66649999999208,"noteNumber":78,"velocity":85,"programNumber":40},{"time":189777.58800000048,"duration":55.55549999998766,"noteNumber":79,"velocity":85,"programNumber":40},{"time":189833.14350000047,"duration":55.55549999998766,"noteNumber":81,"velocity":86,"programNumber":40},{"time":189888.69900000046,"duration":55.55549999998766,"noteNumber":79,"velocity":86,"programNumber":40},{"time":189944.25450000045,"duration":55.55549999998766,"noteNumber":81,"velocity":86,"programNumber":40},{"time":189999.81000000043,"duration":111.11100000000442,"noteNumber":78,"velocity":86,"programNumber":40},{"time":190110.92100000044,"duration":111.11100000000442,"noteNumber":79,"velocity":88,"programNumber":40},{"time":190222.03200000044,"duration":166.66649999999208,"noteNumber":81,"velocity":88,"programNumber":40},{"time":190444.25400000042,"duration":166.66649999999208,"noteNumber":81,"velocity":88,"programNumber":40},{"time":190666.4760000004,"duration":55.55549999998766,"noteNumber":82,"velocity":89,"programNumber":40},{"time":190722.0315000004,"duration":55.55549999998766,"noteNumber":83,"velocity":91,"programNumber":40},{"time":190777.58700000038,"duration":55.55549999998766,"noteNumber":82,"velocity":91,"programNumber":40},{"time":190833.14250000037,"duration":55.55549999998766,"noteNumber":83,"velocity":91,"programNumber":40},{"time":190888.69800000035,"duration":111.11100000000442,"noteNumber":80,"velocity":92,"programNumber":40},{"time":190999.80900000036,"duration":111.11100000000442,"noteNumber":82,"velocity":94,"programNumber":40},{"time":191110.92000000036,"duration":444.4439999999886,"noteNumber":83,"velocity":98,"programNumber":40},{"time":191999.80800000034,"duration":666.6659999999974,"noteNumber":71,"velocity":40,"programNumber":40},{"time":192666.47400000034,"duration":166.66649999999208,"noteNumber":76,"velocity":47,"programNumber":40},{"time":192888.69600000032,"duration":222.22200000000885,"noteNumber":74,"velocity":49,"programNumber":40},{"time":193110.91800000033,"duration":222.22200000000885,"noteNumber":73,"velocity":49,"programNumber":40},{"time":193333.14000000033,"duration":222.22200000000885,"noteNumber":71,"velocity":43,"programNumber":40},{"time":193555.36200000034,"duration":222.22200000000885,"noteNumber":69,"velocity":41,"programNumber":40},{"time":193777.58400000035,"duration":222.22200000000885,"noteNumber":74,"velocity":40,"programNumber":40},{"time":194222.02800000037,"duration":222.22200000000885,"noteNumber":78,"velocity":59,"programNumber":40},{"time":194666.4720000004,"duration":222.22200000000885,"noteNumber":74,"velocity":57,"programNumber":40},{"time":195555.3600000004,"duration":444.4439999999886,"noteNumber":74,"velocity":100,"programNumber":40},{"time":195555.3600000004,"duration":444.4439999999886,"noteNumber":62,"velocity":100,"programNumber":40},{"time":196222.0260000004,"duration":166.66649999999208,"noteNumber":69,"velocity":91,"programNumber":40},{"time":196444.24800000037,"duration":444.4439999999886,"noteNumber":74,"velocity":91,"programNumber":40},{"time":197110.91400000037,"duration":166.66649999999208,"noteNumber":69,"velocity":91,"programNumber":40},{"time":197333.13600000035,"duration":166.66649999999208,"noteNumber":74,"velocity":91,"programNumber":40},{"time":197555.35800000033,"duration":166.66649999999208,"noteNumber":69,"velocity":91,"programNumber":40},{"time":197777.5800000003,"duration":166.66649999999208,"noteNumber":74,"velocity":91,"programNumber":40},{"time":197999.8020000003,"duration":166.66649999999208,"noteNumber":78,"velocity":91,"programNumber":40},{"time":198222.02400000027,"duration":444.4439999999886,"noteNumber":81,"velocity":91,"programNumber":40},{"time":199110.91200000024,"duration":444.4439999999886,"noteNumber":81,"velocity":91,"programNumber":40},{"time":199777.57800000024,"duration":166.66649999999208,"noteNumber":78,"velocity":91,"programNumber":40},{"time":199999.80000000022,"duration":444.4439999999886,"noteNumber":81,"velocity":91,"programNumber":40},{"time":200666.46600000022,"duration":166.66649999999208,"noteNumber":78,"velocity":91,"programNumber":40},{"time":200888.6880000002,"duration":166.66649999999208,"noteNumber":81,"velocity":91,"programNumber":40},{"time":201110.91000000018,"duration":166.66649999999208,"noteNumber":78,"velocity":91,"programNumber":40},{"time":201333.13200000016,"duration":166.66649999999208,"noteNumber":75,"velocity":91,"programNumber":40},{"time":201555.35400000014,"duration":166.66649999999208,"noteNumber":78,"velocity":91,"programNumber":40},{"time":201777.57600000012,"duration":444.4439999999886,"noteNumber":71,"velocity":91,"programNumber":40},{"time":203333.1300000001,"duration":166.66649999999208,"noteNumber":79,"velocity":55,"programNumber":40},{"time":203555.35200000007,"duration":222.22200000000885,"noteNumber":84,"velocity":55,"programNumber":40},{"time":203777.57400000008,"duration":222.22200000000885,"noteNumber":83,"velocity":55,"programNumber":40},{"time":203999.7960000001,"duration":222.22200000000885,"noteNumber":81,"velocity":55,"programNumber":40},{"time":204222.0180000001,"duration":222.22200000000885,"noteNumber":79,"velocity":55,"programNumber":40},{"time":204444.2400000001,"duration":55.55549999998766,"noteNumber":81,"velocity":55,"programNumber":40},{"time":204499.7955000001,"duration":55.55549999998766,"noteNumber":83,"velocity":55,"programNumber":40},{"time":204555.35100000008,"duration":55.55549999998766,"noteNumber":81,"velocity":55,"programNumber":40},{"time":204610.90650000007,"duration":55.55549999998766,"noteNumber":83,"velocity":55,"programNumber":40},{"time":204666.46200000006,"duration":222.22200000000885,"noteNumber":79,"velocity":55,"programNumber":40},{"time":205110.90600000008,"duration":111.11100000000442,"noteNumber":79,"velocity":55,"programNumber":40},{"time":205333.12800000008,"duration":111.11100000000442,"noteNumber":79,"velocity":55,"programNumber":40},{"time":205555.3500000001,"duration":111.11100000000442,"noteNumber":79,"velocity":55,"programNumber":40},{"time":205777.5720000001,"duration":111.11100000000442,"noteNumber":79,"velocity":55,"programNumber":40},{"time":205999.7940000001,"duration":111.11100000000442,"noteNumber":79,"velocity":55,"programNumber":40},{"time":206222.01600000012,"duration":55.55549999998766,"noteNumber":81,"velocity":55,"programNumber":40},{"time":206277.5715000001,"duration":55.55549999998766,"noteNumber":83,"velocity":55,"programNumber":40},{"time":206333.1270000001,"duration":55.55549999998766,"noteNumber":81,"velocity":55,"programNumber":40},{"time":206388.68250000008,"duration":55.55549999998766,"noteNumber":83,"velocity":55,"programNumber":40},{"time":206444.23800000007,"duration":222.22200000000885,"noteNumber":79,"velocity":55,"programNumber":40},{"time":206888.6820000001,"duration":166.66649999999208,"noteNumber":79,"velocity":55,"programNumber":40},{"time":207110.90400000007,"duration":222.22200000000885,"noteNumber":84,"velocity":55,"programNumber":40},{"time":207333.12600000008,"duration":222.22200000000885,"noteNumber":83,"velocity":55,"programNumber":40},{"time":207555.3480000001,"duration":222.22200000000885,"noteNumber":81,"velocity":55,"programNumber":40},{"time":207777.5700000001,"duration":222.22200000000885,"noteNumber":79,"velocity":55,"programNumber":40},{"time":207999.7920000001,"duration":55.55549999998766,"noteNumber":81,"velocity":55,"programNumber":40},{"time":208055.3475000001,"duration":55.55549999998766,"noteNumber":83,"velocity":55,"programNumber":40},{"time":208110.90300000008,"duration":55.55549999998766,"noteNumber":81,"velocity":55,"programNumber":40},{"time":208166.45850000007,"duration":55.55549999998766,"noteNumber":83,"velocity":55,"programNumber":40},{"time":208222.01400000005,"duration":222.22200000000885,"noteNumber":79,"velocity":55,"programNumber":40},{"time":208666.45800000007,"duration":111.11100000000442,"noteNumber":79,"velocity":55,"programNumber":40},{"time":208888.68000000008,"duration":111.11100000000442,"noteNumber":79,"velocity":55,"programNumber":40},{"time":209110.9020000001,"duration":111.11100000000442,"noteNumber":79,"velocity":55,"programNumber":40},{"time":209333.1240000001,"duration":111.11100000000442,"noteNumber":79,"velocity":55,"programNumber":40},{"time":209555.3460000001,"duration":111.11100000000442,"noteNumber":79,"velocity":55,"programNumber":40},{"time":209777.56800000012,"duration":55.55549999998766,"noteNumber":81,"velocity":55,"programNumber":40},{"time":209833.1235000001,"duration":55.55549999998766,"noteNumber":83,"velocity":55,"programNumber":40},{"time":209888.6790000001,"duration":55.55549999998766,"noteNumber":81,"velocity":55,"programNumber":40},{"time":209944.23450000008,"duration":55.55549999998766,"noteNumber":83,"velocity":55,"programNumber":40},{"time":209999.79000000007,"duration":222.22200000000885,"noteNumber":79,"velocity":55,"programNumber":40},{"time":210444.23400000008,"duration":166.66649999999208,"noteNumber":79,"velocity":55,"programNumber":40},{"time":210666.45600000006,"duration":222.22200000000885,"noteNumber":84,"velocity":55,"programNumber":40},{"time":210888.67800000007,"duration":222.22200000000885,"noteNumber":83,"velocity":55,"programNumber":40},{"time":211110.90000000008,"duration":222.22200000000885,"noteNumber":81,"velocity":55,"programNumber":40},{"time":211333.1220000001,"duration":222.22200000000885,"noteNumber":79,"velocity":55,"programNumber":40},{"time":211555.3440000001,"duration":55.55549999998766,"noteNumber":81,"velocity":55,"programNumber":40},{"time":211610.8995000001,"duration":55.55549999998766,"noteNumber":83,"velocity":55,"programNumber":40},{"time":211666.45500000007,"duration":55.55549999998766,"noteNumber":81,"velocity":55,"programNumber":40},{"time":211722.01050000006,"duration":55.55549999998766,"noteNumber":83,"velocity":55,"programNumber":40},{"time":211777.56600000005,"duration":222.22200000000885,"noteNumber":80,"velocity":55,"programNumber":40},{"time":212222.01000000007,"duration":111.11100000000442,"noteNumber":80,"velocity":55,"programNumber":40},{"time":212444.23200000008,"duration":111.11100000000442,"noteNumber":80,"velocity":55,"programNumber":40},{"time":212666.45400000009,"duration":111.11100000000442,"noteNumber":80,"velocity":55,"programNumber":40},{"time":212888.6760000001,"duration":111.11100000000442,"noteNumber":80,"velocity":55,"programNumber":40},{"time":213110.8980000001,"duration":111.11100000000442,"noteNumber":80,"velocity":55,"programNumber":40},{"time":213333.1200000001,"duration":55.55549999998766,"noteNumber":83,"velocity":55,"programNumber":40},{"time":213388.6755000001,"duration":55.55549999998766,"noteNumber":84,"velocity":55,"programNumber":40},{"time":213444.2310000001,"duration":55.55549999998766,"noteNumber":83,"velocity":55,"programNumber":40},{"time":213499.78650000007,"duration":55.55549999998766,"noteNumber":84,"velocity":55,"programNumber":40},{"time":213555.34200000006,"duration":222.22200000000885,"noteNumber":81,"velocity":55,"programNumber":40},{"time":213999.78600000008,"duration":166.66649999999208,"noteNumber":81,"velocity":55,"programNumber":40},{"time":214222.00800000006,"duration":222.22200000000885,"noteNumber":84,"velocity":55,"programNumber":40},{"time":214444.23000000007,"duration":222.22200000000885,"noteNumber":82,"velocity":55,"programNumber":40},{"time":214666.45200000008,"duration":222.22200000000885,"noteNumber":81,"velocity":55,"programNumber":40},{"time":214888.6740000001,"duration":222.22200000000885,"noteNumber":79,"velocity":55,"programNumber":40},{"time":215110.8960000001,"duration":55.55549999998766,"noteNumber":79,"velocity":55,"programNumber":40},{"time":215166.45150000008,"duration":55.55549999998766,"noteNumber":81,"velocity":55,"programNumber":40},{"time":215222.00700000007,"duration":55.55549999998766,"noteNumber":79,"velocity":55,"programNumber":40},{"time":215277.56250000006,"duration":55.55549999998766,"noteNumber":81,"velocity":55,"programNumber":40},{"time":215333.11800000005,"duration":222.22200000000885,"noteNumber":78,"velocity":55,"programNumber":40},{"time":215777.56200000006,"duration":111.11100000000442,"noteNumber":78,"velocity":55,"programNumber":40},{"time":215999.78400000007,"duration":111.11100000000442,"noteNumber":78,"velocity":55,"programNumber":40},{"time":216222.00600000008,"duration":111.11100000000442,"noteNumber":78,"velocity":55,"programNumber":40},{"time":216444.2280000001,"duration":111.11100000000442,"noteNumber":78,"velocity":55,"programNumber":40},{"time":216666.4500000001,"duration":111.11100000000442,"noteNumber":78,"velocity":55,"programNumber":40},{"time":216888.6720000001,"duration":55.55549999998766,"noteNumber":81,"velocity":55,"programNumber":40},{"time":216944.2275000001,"duration":55.55549999998766,"noteNumber":82,"velocity":55,"programNumber":40},{"time":216999.78300000008,"duration":55.55549999998766,"noteNumber":81,"velocity":55,"programNumber":40},{"time":217055.33850000007,"duration":55.55549999998766,"noteNumber":82,"velocity":55,"programNumber":40},{"time":217110.89400000006,"duration":222.22200000000885,"noteNumber":79,"velocity":55,"programNumber":40},{"time":217555.33800000008,"duration":166.66649999999208,"noteNumber":75,"velocity":55,"programNumber":40},{"time":217777.56000000006,"duration":222.22200000000885,"noteNumber":79,"velocity":55,"programNumber":40},{"time":217999.78200000006,"duration":222.22200000000885,"noteNumber":77,"velocity":55,"programNumber":40},{"time":218222.00400000007,"duration":222.22200000000885,"noteNumber":76,"velocity":55,"programNumber":40},{"time":218444.22600000008,"duration":222.22200000000885,"noteNumber":74,"velocity":55,"programNumber":40},{"time":218666.4480000001,"duration":55.55549999998766,"noteNumber":74,"velocity":55,"programNumber":40},{"time":218722.00350000008,"duration":55.55549999998766,"noteNumber":75,"velocity":55,"programNumber":40},{"time":218777.55900000007,"duration":55.55549999998766,"noteNumber":74,"velocity":55,"programNumber":40},{"time":218833.11450000005,"duration":55.55549999998766,"noteNumber":75,"velocity":55,"programNumber":40},{"time":218888.67000000004,"duration":222.22200000000885,"noteNumber":73,"velocity":55,"programNumber":40},{"time":219333.11400000006,"duration":111.11100000000442,"noteNumber":73,"velocity":55,"programNumber":40},{"time":219555.33600000007,"duration":111.11100000000442,"noteNumber":73,"velocity":55,"programNumber":40},{"time":219777.55800000008,"duration":111.11100000000442,"noteNumber":73,"velocity":55,"programNumber":40},{"time":219999.7800000001,"duration":111.11100000000442,"noteNumber":73,"velocity":55,"programNumber":40},{"time":220222.0020000001,"duration":111.11100000000442,"noteNumber":73,"velocity":55,"programNumber":40},{"time":220444.2240000001,"duration":55.55549999998766,"noteNumber":76,"velocity":53,"programNumber":40},{"time":220499.7795000001,"duration":55.55549999998766,"noteNumber":78,"velocity":53,"programNumber":40},{"time":220555.33500000008,"duration":55.55549999998766,"noteNumber":76,"velocity":53,"programNumber":40},{"time":220610.89050000007,"duration":55.55549999998766,"noteNumber":78,"velocity":53,"programNumber":40},{"time":220666.44600000005,"duration":222.22200000000885,"noteNumber":74,"velocity":53,"programNumber":40},{"time":221110.89000000007,"duration":222.22200000000885,"noteNumber":62,"velocity":91,"programNumber":40},{"time":221333.11200000008,"duration":222.22200000000885,"noteNumber":64,"velocity":91,"programNumber":40},{"time":221555.3340000001,"duration":222.22200000000885,"noteNumber":66,"velocity":91,"programNumber":40},{"time":221777.5560000001,"duration":222.22200000000885,"noteNumber":67,"velocity":91,"programNumber":40},{"time":221999.7780000001,"duration":222.22200000000885,"noteNumber":69,"velocity":91,"programNumber":40},{"time":222222.00000000012,"duration":222.22200000000885,"noteNumber":72,"velocity":91,"programNumber":40},{"time":222444.22200000013,"duration":222.22200000000885,"noteNumber":70,"velocity":91,"programNumber":40},{"time":222888.66600000014,"duration":222.22200000000885,"noteNumber":66,"velocity":91,"programNumber":40},{"time":223110.88800000015,"duration":222.22200000000885,"noteNumber":67,"velocity":91,"programNumber":40},{"time":223333.11000000016,"duration":222.22200000000885,"noteNumber":69,"velocity":91,"programNumber":40},{"time":223555.33200000017,"duration":222.22200000000885,"noteNumber":70,"velocity":91,"programNumber":40},{"time":223777.55400000018,"duration":222.22200000000885,"noteNumber":73,"velocity":91,"programNumber":40},{"time":223999.7760000002,"duration":222.22200000000885,"noteNumber":76,"velocity":91,"programNumber":40},{"time":224221.9980000002,"duration":222.22200000000885,"noteNumber":74,"velocity":91,"programNumber":40},{"time":224666.4420000002,"duration":222.22200000000885,"noteNumber":74,"velocity":53,"programNumber":40},{"time":224888.66400000022,"duration":222.22200000000885,"noteNumber":76,"velocity":53,"programNumber":40},{"time":225110.88600000023,"duration":222.22200000000885,"noteNumber":78,"velocity":53,"programNumber":40},{"time":225333.10800000024,"duration":222.22200000000885,"noteNumber":79,"velocity":53,"programNumber":40},{"time":225555.33000000025,"duration":222.22200000000885,"noteNumber":81,"velocity":52,"programNumber":40},{"time":225777.55200000026,"duration":444.4439999999886,"noteNumber":82,"velocity":50,"programNumber":40},{"time":226221.99600000025,"duration":444.4439999999886,"noteNumber":83,"velocity":46,"programNumber":40},{"time":226666.44000000024,"duration":444.4439999999886,"noteNumber":84,"velocity":43,"programNumber":40},{"time":227110.88400000022,"duration":444.4439999999886,"noteNumber":85,"velocity":40,"programNumber":40},{"time":227555.3280000002,"duration":2611.108500000002,"noteNumber":86,"velocity":59,"programNumber":40},{"time":230221.9920000002,"duration":55.55549999998766,"noteNumber":78,"velocity":52,"programNumber":40},{"time":230277.5475000002,"duration":55.55549999998766,"noteNumber":79,"velocity":53,"programNumber":40},{"time":230333.10300000018,"duration":55.55549999998766,"noteNumber":78,"velocity":55,"programNumber":40},{"time":230388.65850000017,"duration":55.55549999998766,"noteNumber":79,"velocity":58,"programNumber":40},{"time":230444.21400000015,"duration":55.55549999998766,"noteNumber":78,"velocity":59,"programNumber":40},{"time":230499.76950000014,"duration":55.55549999998766,"noteNumber":79,"velocity":61,"programNumber":40},{"time":230555.32500000013,"duration":55.55549999998766,"noteNumber":78,"velocity":62,"programNumber":40},{"time":230610.88050000012,"duration":55.55549999998766,"noteNumber":79,"velocity":65,"programNumber":40},{"time":230666.4360000001,"duration":55.55549999998766,"noteNumber":78,"velocity":67,"programNumber":40},{"time":230721.9915000001,"duration":55.55549999998766,"noteNumber":79,"velocity":68,"programNumber":40},{"time":230777.54700000008,"duration":55.55549999998766,"noteNumber":78,"velocity":70,"programNumber":40},{"time":230833.10250000007,"duration":55.55549999998766,"noteNumber":79,"velocity":71,"programNumber":40},{"time":230888.65800000005,"duration":111.11100000000442,"noteNumber":76,"velocity":74,"programNumber":40},{"time":230999.76900000006,"duration":111.11100000000442,"noteNumber":78,"velocity":77,"programNumber":40},{"time":231110.88000000006,"duration":444.4439999999886,"noteNumber":79,"velocity":93,"programNumber":40},{"time":231777.54600000006,"duration":111.11100000000442,"noteNumber":74,"velocity":92,"programNumber":40},{"time":231999.76800000007,"duration":444.4439999999886,"noteNumber":79,"velocity":92,"programNumber":40},{"time":232666.43400000007,"duration":111.11100000000442,"noteNumber":74,"velocity":91,"programNumber":40},{"time":232888.65600000008,"duration":111.11100000000442,"noteNumber":79,"velocity":90,"programNumber":40},{"time":233110.87800000008,"duration":111.11100000000442,"noteNumber":74,"velocity":90,"programNumber":40},{"time":233333.1000000001,"duration":111.11100000000442,"noteNumber":79,"velocity":90,"programNumber":40},{"time":233555.3220000001,"duration":111.11100000000442,"noteNumber":83,"velocity":90,"programNumber":40},{"time":233777.5440000001,"duration":444.4439999999886,"noteNumber":86,"velocity":89,"programNumber":40},{"time":234666.4320000001,"duration":444.4439999999886,"noteNumber":84,"velocity":104,"programNumber":40},{"time":235333.0980000001,"duration":111.11100000000442,"noteNumber":81,"velocity":87,"programNumber":40},{"time":235555.3200000001,"duration":444.4439999999886,"noteNumber":84,"velocity":86,"programNumber":40},{"time":236221.9860000001,"duration":111.11100000000442,"noteNumber":81,"velocity":85,"programNumber":40},{"time":236444.2080000001,"duration":111.11100000000442,"noteNumber":84,"velocity":92,"programNumber":40},{"time":236666.4300000001,"duration":111.11100000000442,"noteNumber":81,"velocity":85,"programNumber":40},{"time":236888.65200000012,"duration":111.11100000000442,"noteNumber":78,"velocity":92,"programNumber":40},{"time":237110.87400000013,"duration":111.11100000000442,"noteNumber":81,"velocity":85,"programNumber":40},{"time":237333.09600000014,"duration":444.4439999999886,"noteNumber":74,"velocity":94,"programNumber":40},{"time":238221.9840000001,"duration":222.22200000000885,"noteNumber":71,"velocity":92,"programNumber":40},{"time":238221.9840000001,"duration":222.22200000000885,"noteNumber":79,"velocity":92,"programNumber":40},{"time":238221.9840000001,"duration":222.22200000000885,"noteNumber":62,"velocity":92,"programNumber":40},{"time":238666.42800000013,"duration":666.6659999999974,"noteNumber":79,"velocity":85,"programNumber":40},{"time":239333.09400000013,"duration":222.22200000000885,"noteNumber":83,"velocity":74,"programNumber":40},{"time":239555.31600000014,"duration":111.11100000000442,"noteNumber":81,"velocity":74,"programNumber":40},{"time":239777.53800000015,"duration":111.11100000000442,"noteNumber":79,"velocity":80,"programNumber":40},{"time":239999.76000000015,"duration":55.55549999998766,"noteNumber":79,"velocity":86,"programNumber":40},{"time":240055.31550000014,"duration":55.55549999998766,"noteNumber":81,"velocity":86,"programNumber":40},{"time":240110.87100000013,"duration":55.55549999998766,"noteNumber":79,"velocity":86,"programNumber":40},{"time":240166.42650000012,"duration":55.55549999998766,"noteNumber":81,"velocity":86,"programNumber":40},{"time":240221.9820000001,"duration":185.18499999999767,"noteNumber":78,"velocity":83,"programNumber":40},{"time":240444.2040000001,"duration":666.6659999999974,"noteNumber":78,"velocity":77,"programNumber":40},{"time":241110.8700000001,"duration":222.22200000000885,"noteNumber":81,"velocity":85,"programNumber":40},{"time":241333.09200000012,"duration":111.11100000000442,"noteNumber":84,"velocity":85,"programNumber":40},{"time":241555.31400000013,"duration":111.11100000000442,"noteNumber":78,"velocity":85,"programNumber":40},{"time":241777.53600000014,"duration":222.22200000000885,"noteNumber":81,"velocity":85,"programNumber":40},{"time":241999.75800000015,"duration":111.11100000000442,"noteNumber":79,"velocity":85,"programNumber":40},{"time":242221.98000000016,"duration":666.6659999999974,"noteNumber":79,"velocity":85,"programNumber":40},{"time":242888.64600000015,"duration":222.22200000000885,"noteNumber":83,"velocity":85,"programNumber":40},{"time":243110.86800000016,"duration":111.11100000000442,"noteNumber":81,"velocity":85,"programNumber":40},{"time":243333.09000000017,"duration":111.11100000000442,"noteNumber":79,"velocity":85,"programNumber":40},{"time":243555.31200000018,"duration":55.55549999998766,"noteNumber":79,"velocity":85,"programNumber":40},{"time":243610.86750000017,"duration":55.55549999998766,"noteNumber":81,"velocity":85,"programNumber":40},{"time":243666.42300000016,"duration":55.55549999998766,"noteNumber":79,"velocity":85,"programNumber":40},{"time":243721.97850000014,"duration":55.55549999998766,"noteNumber":81,"velocity":85,"programNumber":40},{"time":243777.53400000013,"duration":185.18499999999767,"noteNumber":78,"velocity":85,"programNumber":40},{"time":243999.75600000014,"duration":666.6659999999974,"noteNumber":78,"velocity":85,"programNumber":40},{"time":244666.42200000014,"duration":222.22200000000885,"noteNumber":81,"velocity":85,"programNumber":40},{"time":244888.64400000015,"duration":111.11100000000442,"noteNumber":84,"velocity":85,"programNumber":40},{"time":245110.86600000015,"duration":111.11100000000442,"noteNumber":78,"velocity":85,"programNumber":40},{"time":245333.08800000016,"duration":111.11100000000442,"noteNumber":79,"velocity":85,"programNumber":40},{"time":245555.31000000017,"duration":111.11100000000442,"noteNumber":79,"velocity":85,"programNumber":40},{"time":245777.53200000018,"duration":111.11100000000442,"noteNumber":79,"velocity":85,"programNumber":40},{"time":245888.6430000002,"duration":111.11100000000442,"noteNumber":78,"velocity":85,"programNumber":40},{"time":245999.7540000002,"duration":111.11100000000442,"noteNumber":76,"velocity":85,"programNumber":40},{"time":246110.8650000002,"duration":111.11100000000442,"noteNumber":78,"velocity":85,"programNumber":40},{"time":246221.9760000002,"duration":111.11100000000442,"noteNumber":79,"velocity":85,"programNumber":40},{"time":246444.1980000002,"duration":111.11100000000442,"noteNumber":79,"velocity":85,"programNumber":40},{"time":246666.42000000022,"duration":111.11100000000442,"noteNumber":83,"velocity":85,"programNumber":40},{"time":246777.53100000022,"duration":111.11100000000442,"noteNumber":81,"velocity":85,"programNumber":40},{"time":246888.64200000023,"duration":111.11100000000442,"noteNumber":79,"velocity":85,"programNumber":40},{"time":246999.75300000023,"duration":111.11100000000442,"noteNumber":81,"velocity":83,"programNumber":40},{"time":247110.86400000023,"duration":111.11100000000442,"noteNumber":83,"velocity":83,"programNumber":40},{"time":247333.08600000024,"duration":111.11100000000442,"noteNumber":83,"velocity":83,"programNumber":40},{"time":247555.30800000025,"duration":111.11100000000442,"noteNumber":86,"velocity":83,"programNumber":40},{"time":247666.41900000026,"duration":111.11100000000442,"noteNumber":84,"velocity":80,"programNumber":40},{"time":247777.53000000026,"duration":111.11100000000442,"noteNumber":83,"velocity":79,"programNumber":40},{"time":247888.64100000027,"duration":111.11100000000442,"noteNumber":84,"velocity":76,"programNumber":40},{"time":247999.75200000027,"duration":444.4439999999886,"noteNumber":86,"velocity":71,"programNumber":40},{"time":248888.64000000025,"duration":888.8880000000063,"noteNumber":74,"velocity":56,"programNumber":40},{"time":249777.52800000025,"duration":888.8880000000063,"noteNumber":76,"velocity":55,"programNumber":40},{"time":250666.41600000026,"duration":111.11100000000442,"noteNumber":74,"velocity":57,"programNumber":40},{"time":250777.52700000026,"duration":296.2960000000021,"noteNumber":72,"velocity":59,"programNumber":40},{"time":251110.86000000028,"duration":444.4439999999886,"noteNumber":72,"velocity":58,"programNumber":40},{"time":251555.30400000027,"duration":111.11100000000442,"noteNumber":72,"velocity":57,"programNumber":40},{"time":251666.41500000027,"duration":296.2960000000021,"noteNumber":71,"velocity":55,"programNumber":40},{"time":251999.74800000028,"duration":444.4439999999886,"noteNumber":71,"velocity":53,"programNumber":40},{"time":252444.19200000027,"duration":111.11100000000442,"noteNumber":71,"velocity":57,"programNumber":40},{"time":252555.30300000028,"duration":296.2960000000021,"noteNumber":69,"velocity":56,"programNumber":40},{"time":252888.6360000003,"duration":444.4439999999886,"noteNumber":69,"velocity":55,"programNumber":40},{"time":253333.08000000028,"duration":222.22200000000885,"noteNumber":67,"velocity":54,"programNumber":40},{"time":253555.3020000003,"duration":111.11100000000442,"noteNumber":66,"velocity":55,"programNumber":40},{"time":253777.5240000003,"duration":111.11100000000442,"noteNumber":64,"velocity":55,"programNumber":40},{"time":253999.7460000003,"duration":111.11100000000442,"noteNumber":66,"velocity":55,"programNumber":40},{"time":254221.9680000003,"duration":222.22200000000885,"noteNumber":67,"velocity":56,"programNumber":40},{"time":254666.41200000033,"duration":222.22200000000885,"noteNumber":69,"velocity":57,"programNumber":40},{"time":255110.85600000035,"duration":222.22200000000885,"noteNumber":71,"velocity":57,"programNumber":40},{"time":255999.74400000036,"duration":888.8880000000063,"noteNumber":74,"velocity":56,"programNumber":40},{"time":256888.63200000036,"duration":888.8880000000063,"noteNumber":76,"velocity":59,"programNumber":40},{"time":257777.52000000037,"duration":222.22200000000885,"noteNumber":74,"velocity":46,"programNumber":40},{"time":257999.74200000038,"duration":111.11100000000442,"noteNumber":72,"velocity":51,"programNumber":40},{"time":258221.9640000004,"duration":111.11100000000442,"noteNumber":72,"velocity":51,"programNumber":40},{"time":258444.1860000004,"duration":111.11100000000442,"noteNumber":72,"velocity":51,"programNumber":40},{"time":258666.4080000004,"duration":222.22200000000885,"noteNumber":72,"velocity":51,"programNumber":40},{"time":258888.6300000004,"duration":111.11100000000442,"noteNumber":71,"velocity":50,"programNumber":40},{"time":259110.85200000042,"duration":111.11100000000442,"noteNumber":71,"velocity":49,"programNumber":40},{"time":259333.07400000043,"duration":111.11100000000442,"noteNumber":71,"velocity":49,"programNumber":40},{"time":259555.29600000044,"duration":222.22200000000885,"noteNumber":71,"velocity":49,"programNumber":40},{"time":259777.51800000045,"duration":111.11100000000442,"noteNumber":69,"velocity":50,"programNumber":40},{"time":259999.74000000046,"duration":166.66649999999208,"noteNumber":69,"velocity":52,"programNumber":40},{"time":260221.96200000044,"duration":166.66649999999208,"noteNumber":69,"velocity":52,"programNumber":40},{"time":260444.18400000042,"duration":222.22200000000885,"noteNumber":67,"velocity":52,"programNumber":40},{"time":260666.40600000042,"duration":222.22200000000885,"noteNumber":66,"velocity":54,"programNumber":40},{"time":260888.62800000043,"duration":222.22200000000885,"noteNumber":64,"velocity":55,"programNumber":40},{"time":261110.85000000044,"duration":222.22200000000885,"noteNumber":66,"velocity":55,"programNumber":40},{"time":261333.07200000045,"duration":1111.109999999986,"noteNumber":67,"velocity":85,"programNumber":40},{"time":261333.07200000045,"duration":1111.109999999986,"noteNumber":55,"velocity":85,"programNumber":40},{"time":262444.18200000044,"duration":55.555500000016764,"noteNumber":67,"velocity":61,"programNumber":40},{"time":262499.73750000045,"duration":55.555500000016764,"noteNumber":69,"velocity":61,"programNumber":40},{"time":262555.29300000047,"duration":55.555500000016764,"noteNumber":66,"velocity":61,"programNumber":40},{"time":262610.8485000005,"duration":55.555500000016764,"noteNumber":67,"velocity":61,"programNumber":40},{"time":262666.4040000005,"duration":222.22200000000885,"noteNumber":69,"velocity":61,"programNumber":40},{"time":262888.6260000005,"duration":222.22200000000885,"noteNumber":66,"velocity":61,"programNumber":40},{"time":263110.8480000005,"duration":1111.109999999986,"noteNumber":71,"velocity":91,"programNumber":40},{"time":264221.9580000005,"duration":55.555500000016764,"noteNumber":71,"velocity":61,"programNumber":40},{"time":264277.5135000005,"duration":55.555500000016764,"noteNumber":72,"velocity":61,"programNumber":40},{"time":264333.06900000054,"duration":55.555500000016764,"noteNumber":69,"velocity":61,"programNumber":40},{"time":264388.62450000056,"duration":55.555500000016764,"noteNumber":71,"velocity":61,"programNumber":40},{"time":264444.1800000006,"duration":222.22200000000885,"noteNumber":72,"velocity":61,"programNumber":40},{"time":264666.4020000006,"duration":222.22200000000885,"noteNumber":69,"velocity":61,"programNumber":40},{"time":264888.6240000006,"duration":74.07400000002235,"noteNumber":74,"velocity":51,"programNumber":40},{"time":264999.7350000006,"duration":74.07400000002235,"noteNumber":74,"velocity":56,"programNumber":40},{"time":265110.84600000066,"duration":74.07400000002235,"noteNumber":74,"velocity":59,"programNumber":40},{"time":265221.9570000007,"duration":74.07400000002235,"noteNumber":74,"velocity":56,"programNumber":40},{"time":265333.0680000007,"duration":74.07400000002235,"noteNumber":74,"velocity":56,"programNumber":40},{"time":265444.17900000076,"duration":74.07400000002235,"noteNumber":74,"velocity":56,"programNumber":40},{"time":265555.2900000008,"duration":74.07400000002235,"noteNumber":74,"velocity":56,"programNumber":40},{"time":265666.4010000008,"duration":74.07400000002235,"noteNumber":74,"velocity":56,"programNumber":40},{"time":265777.51200000086,"duration":74.07400000002235,"noteNumber":76,"velocity":56,"programNumber":40},{"time":265888.6230000009,"duration":74.07400000002235,"noteNumber":76,"velocity":56,"programNumber":40},{"time":265999.7340000009,"duration":74.07400000002235,"noteNumber":76,"velocity":56,"programNumber":40},{"time":266110.84500000096,"duration":74.07400000002235,"noteNumber":76,"velocity":56,"programNumber":40},{"time":266221.956000001,"duration":74.07400000002235,"noteNumber":78,"velocity":56,"programNumber":40},{"time":266333.067000001,"duration":74.07400000002235,"noteNumber":78,"velocity":56,"programNumber":40},{"time":266444.17800000106,"duration":74.07400000002235,"noteNumber":78,"velocity":57,"programNumber":40},{"time":266555.2890000011,"duration":74.07400000002235,"noteNumber":78,"velocity":59,"programNumber":40},{"time":266666.40000000113,"duration":74.07400000002235,"noteNumber":79,"velocity":62,"programNumber":40},{"time":266777.51100000116,"duration":74.07400000002235,"noteNumber":79,"velocity":65,"programNumber":40},{"time":266888.6220000012,"duration":74.07400000002235,"noteNumber":79,"velocity":66,"programNumber":40},{"time":266999.73300000123,"duration":74.07400000002235,"noteNumber":79,"velocity":66,"programNumber":40},{"time":267110.84400000126,"duration":74.07400000002235,"noteNumber":81,"velocity":66,"programNumber":40},{"time":267221.9550000013,"duration":74.07400000002235,"noteNumber":81,"velocity":66,"programNumber":40},{"time":267333.06600000133,"duration":74.07400000002235,"noteNumber":81,"velocity":66,"programNumber":40},{"time":267444.17700000136,"duration":74.07400000002235,"noteNumber":81,"velocity":68,"programNumber":40},{"time":267555.2880000014,"duration":74.07400000002235,"noteNumber":83,"velocity":68,"programNumber":40},{"time":267666.39900000143,"duration":74.07400000002235,"noteNumber":83,"velocity":70,"programNumber":40},{"time":267777.51000000146,"duration":74.07400000002235,"noteNumber":83,"velocity":70,"programNumber":40},{"time":267888.6210000015,"duration":74.07400000002235,"noteNumber":83,"velocity":71,"programNumber":40},{"time":267999.73200000153,"duration":74.07400000002235,"noteNumber":85,"velocity":71,"programNumber":40},{"time":268110.84300000157,"duration":74.07400000002235,"noteNumber":85,"velocity":73,"programNumber":40},{"time":268221.9540000016,"duration":74.07400000002235,"noteNumber":85,"velocity":74,"programNumber":40},{"time":268333.06500000163,"duration":74.07400000002235,"noteNumber":85,"velocity":74,"programNumber":40},{"time":268444.17600000167,"duration":666.6660000000265,"noteNumber":86,"velocity":85,"programNumber":40},{"time":269110.8420000017,"duration":222.22200000000885,"noteNumber":81,"velocity":85,"programNumber":40},{"time":269333.0640000017,"duration":333.33299999998417,"noteNumber":85,"velocity":85,"programNumber":40},{"time":269666.3970000017,"duration":111.11099999997532,"noteNumber":81,"velocity":85,"programNumber":40},{"time":269777.50800000166,"duration":333.33299999998417,"noteNumber":85,"velocity":85,"programNumber":40},{"time":270110.84100000164,"duration":111.11099999997532,"noteNumber":81,"velocity":85,"programNumber":40},{"time":270221.9520000016,"duration":666.6660000000265,"noteNumber":86,"velocity":85,"programNumber":40},{"time":270888.61800000165,"duration":222.22200000000885,"noteNumber":81,"velocity":85,"programNumber":40},{"time":271110.84000000166,"duration":333.33299999998417,"noteNumber":85,"velocity":85,"programNumber":40},{"time":271444.17300000164,"duration":111.11099999997532,"noteNumber":81,"velocity":85,"programNumber":40},{"time":271555.2840000016,"duration":333.33299999998417,"noteNumber":85,"velocity":85,"programNumber":40},{"time":271888.6170000016,"duration":111.11099999997532,"noteNumber":81,"velocity":85,"programNumber":40},{"time":271999.7280000016,"duration":111.11099999997532,"noteNumber":86,"velocity":100,"programNumber":40},{"time":272221.9500000015,"duration":111.11099999997532,"noteNumber":81,"velocity":100,"programNumber":40},{"time":272444.1720000015,"duration":111.11099999997532,"noteNumber":85,"velocity":100,"programNumber":40},{"time":272666.3940000014,"duration":111.11099999997532,"noteNumber":81,"velocity":100,"programNumber":40},{"time":272888.6160000014,"duration":111.11099999997532,"noteNumber":86,"velocity":100,"programNumber":40},{"time":273110.8380000013,"duration":111.11099999997532,"noteNumber":81,"velocity":100,"programNumber":40},{"time":273333.0600000013,"duration":111.11099999997532,"noteNumber":85,"velocity":100,"programNumber":40},{"time":273555.2820000012,"duration":111.11099999997532,"noteNumber":81,"velocity":100,"programNumber":40},{"time":273777.5040000012,"duration":166.66649999999208,"noteNumber":86,"velocity":85,"programNumber":40},{"time":273999.7260000012,"duration":166.66649999999208,"noteNumber":62,"velocity":85,"programNumber":40},{"time":274221.9480000012,"duration":166.66649999999208,"noteNumber":62,"velocity":85,"programNumber":40},{"time":274444.1700000012,"duration":166.66649999999208,"noteNumber":62,"velocity":85,"programNumber":40},{"time":274666.3920000012,"duration":444.4440000000177,"noteNumber":62,"velocity":85,"programNumber":40},{"time":275555.28000000125,"duration":666.6660000000265,"noteNumber":74,"velocity":46,"programNumber":40},{"time":276221.9460000013,"duration":74.07400000002235,"noteNumber":72,"velocity":47,"programNumber":40},{"time":276296.0200000013,"duration":74.07400000002235,"noteNumber":71,"velocity":47,"programNumber":40},{"time":276370.0940000013,"duration":74.07400000002235,"noteNumber":69,"velocity":47,"programNumber":40},{"time":276444.16800000134,"duration":222.22200000000885,"noteNumber":67,"velocity":47,"programNumber":40},{"time":276888.61200000136,"duration":222.22200000000885,"noteNumber":76,"velocity":47,"programNumber":40},{"time":277333.0560000014,"duration":222.22200000000885,"noteNumber":72,"velocity":46,"programNumber":40},{"time":277777.5000000014,"duration":222.22200000000885,"noteNumber":69,"velocity":43,"programNumber":40},{"time":278221.9440000014,"duration":222.22200000000885,"noteNumber":74,"velocity":59,"programNumber":40},{"time":279110.83200000145,"duration":666.6660000000265,"noteNumber":83,"velocity":55,"programNumber":40},{"time":279777.4980000015,"duration":74.07400000002235,"noteNumber":81,"velocity":55,"programNumber":40},{"time":279851.5720000015,"duration":74.07400000002235,"noteNumber":79,"velocity":55,"programNumber":40},{"time":279925.6460000015,"duration":74.07400000002235,"noteNumber":78,"velocity":55,"programNumber":40},{"time":279999.72000000154,"duration":222.22200000000885,"noteNumber":76,"velocity":55,"programNumber":40},{"time":280444.16400000156,"duration":222.22200000000885,"noteNumber":84,"velocity":55,"programNumber":40},{"time":280888.6080000016,"duration":888.8879999999772,"noteNumber":83,"velocity":55,"programNumber":40},{"time":281777.49600000156,"duration":444.4440000000177,"noteNumber":81,"velocity":47,"programNumber":40},{"time":282888.6060000016,"duration":111.11099999997532,"noteNumber":86,"velocity":55,"programNumber":40},{"time":283110.82800000155,"duration":111.11099999997532,"noteNumber":86,"velocity":55,"programNumber":40},{"time":283333.0500000015,"duration":111.11099999997532,"noteNumber":86,"velocity":55,"programNumber":40},{"time":283555.27200000145,"duration":111.11099999997532,"noteNumber":86,"velocity":55,"programNumber":40},{"time":283777.4940000014,"duration":111.11099999997532,"noteNumber":86,"velocity":55,"programNumber":40},{"time":283999.71600000135,"duration":111.11099999997532,"noteNumber":86,"velocity":55,"programNumber":40},{"time":284221.9380000013,"duration":111.11099999997532,"noteNumber":86,"velocity":55,"programNumber":40},{"time":284444.16000000125,"duration":111.11099999997532,"noteNumber":86,"velocity":55,"programNumber":40},{"time":284666.3820000012,"duration":111.11099999997532,"noteNumber":86,"velocity":55,"programNumber":40},{"time":284888.60400000116,"duration":111.11099999997532,"noteNumber":86,"velocity":55,"programNumber":40},{"time":285110.8260000011,"duration":111.11099999997532,"noteNumber":86,"velocity":55,"programNumber":40},{"time":285333.04800000106,"duration":222.22200000000885,"noteNumber":86,"velocity":55,"programNumber":40},{"time":285555.27000000107,"duration":222.22200000000885,"noteNumber":84,"velocity":55,"programNumber":40},{"time":285777.4920000011,"duration":222.22200000000885,"noteNumber":79,"velocity":55,"programNumber":40},{"time":285999.7140000011,"duration":222.22200000000885,"noteNumber":78,"velocity":55,"programNumber":40},{"time":286221.9360000011,"duration":222.22200000000885,"noteNumber":78,"velocity":55,"programNumber":40},{"time":286444.1580000011,"duration":222.22200000000885,"noteNumber":79,"velocity":65,"programNumber":40},{"time":286888.6020000011,"duration":111.11099999997532,"noteNumber":76,"velocity":55,"programNumber":40},{"time":287110.82400000107,"duration":222.22200000000885,"noteNumber":76,"velocity":55,"programNumber":40},{"time":287333.0460000011,"duration":222.22200000000885,"noteNumber":74,"velocity":55,"programNumber":40},{"time":287777.4900000011,"duration":166.66649999999208,"noteNumber":66,"velocity":55,"programNumber":40},{"time":287999.7120000011,"duration":444.4440000000177,"noteNumber":67,"velocity":67,"programNumber":40},{"time":288666.37800000113,"duration":111.11099999997532,"noteNumber":74,"velocity":55,"programNumber":40},{"time":288888.6000000011,"duration":222.22200000000885,"noteNumber":79,"velocity":55,"programNumber":40},{"time":289110.8220000011,"duration":222.22200000000885,"noteNumber":78,"velocity":55,"programNumber":40},{"time":289333.0440000011,"duration":222.22200000000885,"noteNumber":76,"velocity":55,"programNumber":40},{"time":289555.2660000011,"duration":222.22200000000885,"noteNumber":74,"velocity":55,"programNumber":40},{"time":289777.4880000011,"duration":55.555500000016764,"noteNumber":76,"velocity":55,"programNumber":40},{"time":289833.04350000113,"duration":55.555500000016764,"noteNumber":78,"velocity":55,"programNumber":40},{"time":289888.59900000115,"duration":55.555500000016764,"noteNumber":76,"velocity":55,"programNumber":40},{"time":289944.15450000117,"duration":55.555500000016764,"noteNumber":78,"velocity":55,"programNumber":40},{"time":289999.7100000012,"duration":222.22200000000885,"noteNumber":74,"velocity":55,"programNumber":40},{"time":290444.1540000012,"duration":111.11099999997532,"noteNumber":74,"velocity":55,"programNumber":40},{"time":290666.37600000115,"duration":111.11099999997532,"noteNumber":74,"velocity":55,"programNumber":40},{"time":290888.5980000011,"duration":111.11099999997532,"noteNumber":74,"velocity":55,"programNumber":40},{"time":291110.82000000105,"duration":111.11099999997532,"noteNumber":74,"velocity":55,"programNumber":40},{"time":291333.042000001,"duration":111.11099999997532,"noteNumber":74,"velocity":55,"programNumber":40},{"time":291555.26400000096,"duration":55.555500000016764,"noteNumber":76,"velocity":55,"programNumber":40},{"time":291610.819500001,"duration":55.555500000016764,"noteNumber":78,"velocity":55,"programNumber":40},{"time":291666.375000001,"duration":55.555500000016764,"noteNumber":76,"velocity":55,"programNumber":40},{"time":291721.930500001,"duration":55.555500000016764,"noteNumber":78,"velocity":55,"programNumber":40},{"time":291777.486000001,"duration":222.22200000000885,"noteNumber":74,"velocity":55,"programNumber":40},{"time":292221.93000000104,"duration":166.66649999999208,"noteNumber":74,"velocity":55,"programNumber":40},{"time":292444.15200000105,"duration":222.22200000000885,"noteNumber":79,"velocity":55,"programNumber":40},{"time":292666.37400000106,"duration":222.22200000000885,"noteNumber":78,"velocity":55,"programNumber":40},{"time":292888.59600000107,"duration":222.22200000000885,"noteNumber":76,"velocity":55,"programNumber":40},{"time":293110.8180000011,"duration":222.22200000000885,"noteNumber":74,"velocity":55,"programNumber":40},{"time":293333.0400000011,"duration":55.555500000016764,"noteNumber":76,"velocity":55,"programNumber":40},{"time":293388.5955000011,"duration":55.555500000016764,"noteNumber":78,"velocity":55,"programNumber":40},{"time":293444.1510000011,"duration":55.555500000016764,"noteNumber":76,"velocity":55,"programNumber":40},{"time":293499.70650000114,"duration":55.555500000016764,"noteNumber":78,"velocity":55,"programNumber":40},{"time":293555.26200000115,"duration":222.22200000000885,"noteNumber":74,"velocity":55,"programNumber":40},{"time":293999.70600000117,"duration":111.11099999997532,"noteNumber":74,"velocity":55,"programNumber":40},{"time":294221.9280000011,"duration":111.11099999997532,"noteNumber":74,"velocity":55,"programNumber":40},{"time":294444.1500000011,"duration":111.11099999997532,"noteNumber":74,"velocity":55,"programNumber":40},{"time":294666.372000001,"duration":111.11099999997532,"noteNumber":74,"velocity":55,"programNumber":40},{"time":294888.594000001,"duration":111.11099999997532,"noteNumber":74,"velocity":55,"programNumber":40},{"time":295110.8160000009,"duration":55.555500000016764,"noteNumber":76,"velocity":55,"programNumber":40},{"time":295166.37150000094,"duration":55.555500000016764,"noteNumber":78,"velocity":55,"programNumber":40},{"time":295221.92700000096,"duration":55.555500000016764,"noteNumber":76,"velocity":55,"programNumber":40},{"time":295277.482500001,"duration":55.555500000016764,"noteNumber":78,"velocity":55,"programNumber":40},{"time":295333.038000001,"duration":222.22200000000885,"noteNumber":74,"velocity":55,"programNumber":40},{"time":295999.704000001,"duration":629.6290000000154,"noteNumber":76,"velocity":83,"programNumber":40},{"time":295999.704000001,"duration":629.6290000000154,"noteNumber":64,"velocity":83,"programNumber":40},{"time":296666.37000000104,"duration":74.07400000002235,"noteNumber":74,"velocity":82,"programNumber":40},{"time":296740.44400000107,"duration":74.07400000002235,"noteNumber":72,"velocity":82,"programNumber":40},{"time":296814.5180000011,"duration":74.07400000002235,"noteNumber":71,"velocity":82,"programNumber":40},{"time":296888.5920000011,"duration":444.4440000000177,"noteNumber":72,"velocity":83,"programNumber":40},{"time":297777.48000000115,"duration":629.6290000000154,"noteNumber":62,"velocity":85,"programNumber":40},{"time":297777.48000000115,"duration":629.6290000000154,"noteNumber":74,"velocity":85,"programNumber":40},{"time":298444.1460000012,"duration":74.07400000002235,"noteNumber":72,"velocity":77,"programNumber":40},{"time":298518.2200000012,"duration":74.07400000002235,"noteNumber":71,"velocity":79,"programNumber":40},{"time":298592.2940000012,"duration":74.07400000002235,"noteNumber":69,"velocity":83,"programNumber":40},{"time":298666.36800000124,"duration":444.4440000000177,"noteNumber":71,"velocity":88,"programNumber":40},{"time":299555.2560000013,"duration":222.22200000000885,"noteNumber":76,"velocity":85,"programNumber":40},{"time":299777.4780000013,"duration":111.11099999997532,"noteNumber":78,"velocity":85,"programNumber":40},{"time":299888.58900000126,"duration":111.11099999997532,"noteNumber":79,"velocity":85,"programNumber":40},{"time":299999.70000000123,"duration":166.66649999999208,"noteNumber":78,"velocity":85,"programNumber":40},{"time":300221.92200000124,"duration":111.11099999997532,"noteNumber":76,"velocity":85,"programNumber":40},{"time":300444.1440000012,"duration":222.22200000000885,"noteNumber":76,"velocity":85,"programNumber":40},{"time":300666.3660000012,"duration":166.66649999999208,"noteNumber":74,"velocity":85,"programNumber":40},{"time":300888.5880000012,"duration":111.11099999997532,"noteNumber":71,"velocity":85,"programNumber":40},{"time":301110.81000000116,"duration":111.11099999997532,"noteNumber":74,"velocity":85,"programNumber":40},{"time":301333.0320000011,"duration":222.22200000000885,"noteNumber":74,"velocity":85,"programNumber":40},{"time":301555.2540000011,"duration":166.66649999999208,"noteNumber":72,"velocity":85,"programNumber":40},{"time":301777.47600000113,"duration":111.11099999997532,"noteNumber":71,"velocity":85,"programNumber":40},{"time":301999.6980000011,"duration":111.11099999997532,"noteNumber":69,"velocity":85,"programNumber":40},{"time":302221.92000000103,"duration":444.4440000000177,"noteNumber":67,"velocity":85,"programNumber":40},{"time":302888.58600000106,"duration":111.11099999997532,"noteNumber":74,"velocity":50,"programNumber":40},{"time":303110.808000001,"duration":222.22200000000885,"noteNumber":79,"velocity":50,"programNumber":40},{"time":303333.030000001,"duration":222.22200000000885,"noteNumber":78,"velocity":50,"programNumber":40},{"time":303555.252000001,"duration":222.22200000000885,"noteNumber":76,"velocity":53,"programNumber":40},{"time":303777.47400000104,"duration":222.22200000000885,"noteNumber":74,"velocity":56,"programNumber":40},{"time":303999.69600000104,"duration":55.555500000016764,"noteNumber":76,"velocity":58,"programNumber":40},{"time":304055.25150000106,"duration":55.555500000016764,"noteNumber":78,"velocity":58,"programNumber":40},{"time":304110.8070000011,"duration":55.555500000016764,"noteNumber":76,"velocity":59,"programNumber":40},{"time":304166.3625000011,"duration":55.555500000016764,"noteNumber":78,"velocity":59,"programNumber":40},{"time":304221.9180000011,"duration":222.22200000000885,"noteNumber":74,"velocity":61,"programNumber":40},{"time":304666.3620000011,"duration":111.11099999997532,"noteNumber":74,"velocity":56,"programNumber":40},{"time":304888.5840000011,"duration":111.11099999997532,"noteNumber":74,"velocity":55,"programNumber":40},{"time":305110.80600000103,"duration":111.11099999997532,"noteNumber":74,"velocity":55,"programNumber":40},{"time":305333.028000001,"duration":111.11099999997532,"noteNumber":74,"velocity":53,"programNumber":40},{"time":305555.25000000093,"duration":111.11099999997532,"noteNumber":74,"velocity":52,"programNumber":40},{"time":305777.4720000009,"duration":55.555500000016764,"noteNumber":76,"velocity":55,"programNumber":40},{"time":305833.0275000009,"duration":55.555500000016764,"noteNumber":78,"velocity":55,"programNumber":40},{"time":305888.5830000009,"duration":55.555500000016764,"noteNumber":76,"velocity":55,"programNumber":40},{"time":305944.13850000093,"duration":55.555500000016764,"noteNumber":78,"velocity":55,"programNumber":40},{"time":305999.69400000095,"duration":222.22200000000885,"noteNumber":74,"velocity":55,"programNumber":40},{"time":306444.13800000097,"duration":166.66649999999208,"noteNumber":74,"velocity":55,"programNumber":40},{"time":306666.360000001,"duration":222.22200000000885,"noteNumber":79,"velocity":55,"programNumber":40},{"time":306888.582000001,"duration":222.22200000000885,"noteNumber":78,"velocity":55,"programNumber":40},{"time":307110.804000001,"duration":222.22200000000885,"noteNumber":76,"velocity":55,"programNumber":40},{"time":307333.026000001,"duration":222.22200000000885,"noteNumber":74,"velocity":56,"programNumber":40},{"time":307555.248000001,"duration":55.555500000016764,"noteNumber":76,"velocity":65,"programNumber":40},{"time":307610.803500001,"duration":55.555500000016764,"noteNumber":78,"velocity":65,"programNumber":40},{"time":307666.35900000104,"duration":55.555500000016764,"noteNumber":76,"velocity":65,"programNumber":40},{"time":307721.91450000106,"duration":55.555500000016764,"noteNumber":78,"velocity":65,"programNumber":40},{"time":307777.4700000011,"duration":222.22200000000885,"noteNumber":74,"velocity":64,"programNumber":40},{"time":308221.9140000011,"duration":111.11099999997532,"noteNumber":74,"velocity":55,"programNumber":40},{"time":308444.13600000105,"duration":111.11099999997532,"noteNumber":74,"velocity":55,"programNumber":40},{"time":308666.358000001,"duration":111.11099999997532,"noteNumber":74,"velocity":55,"programNumber":40},{"time":308888.58000000095,"duration":111.11099999997532,"noteNumber":74,"velocity":55,"programNumber":40},{"time":309110.8020000009,"duration":111.11099999997532,"noteNumber":74,"velocity":55,"programNumber":40},{"time":309333.02400000085,"duration":55.555500000016764,"noteNumber":76,"velocity":59,"programNumber":40},{"time":309388.57950000087,"duration":55.555500000016764,"noteNumber":78,"velocity":59,"programNumber":40},{"time":309444.1350000009,"duration":55.555500000016764,"noteNumber":76,"velocity":59,"programNumber":40},{"time":309499.6905000009,"duration":55.555500000016764,"noteNumber":78,"velocity":59,"programNumber":40},{"time":309555.2460000009,"duration":222.22200000000885,"noteNumber":74,"velocity":59,"programNumber":40},{"time":310221.91200000094,"duration":629.6290000000154,"noteNumber":88,"velocity":85,"programNumber":40},{"time":310888.57800000097,"duration":74.07400000002235,"noteNumber":86,"velocity":85,"programNumber":40},{"time":310962.652000001,"duration":74.07400000002235,"noteNumber":84,"velocity":85,"programNumber":40},{"time":311036.726000001,"duration":74.07400000002235,"noteNumber":83,"velocity":85,"programNumber":40},{"time":311110.80000000104,"duration":444.4440000000177,"noteNumber":84,"velocity":85,"programNumber":40},{"time":311999.6880000011,"duration":629.6290000000154,"noteNumber":74,"velocity":85,"programNumber":40},{"time":311999.6880000011,"duration":629.6290000000154,"noteNumber":86,"velocity":85,"programNumber":40},{"time":312666.3540000011,"duration":74.07400000002235,"noteNumber":84,"velocity":82,"programNumber":40},{"time":312740.4280000011,"duration":74.07400000002235,"noteNumber":83,"velocity":83,"programNumber":40},{"time":312814.50200000114,"duration":74.07400000002235,"noteNumber":81,"velocity":83,"programNumber":40},{"time":312888.57600000117,"duration":444.4440000000177,"noteNumber":83,"velocity":86,"programNumber":40},{"time":313777.4640000012,"duration":222.22200000000885,"noteNumber":76,"velocity":85,"programNumber":40},{"time":313999.6860000012,"duration":111.11099999997532,"noteNumber":78,"velocity":85,"programNumber":40},{"time":314110.7970000012,"duration":111.11099999997532,"noteNumber":79,"velocity":85,"programNumber":40},{"time":314221.90800000116,"duration":166.66649999999208,"noteNumber":78,"velocity":85,"programNumber":40},{"time":314444.13000000117,"duration":111.11099999997532,"noteNumber":76,"velocity":85,"programNumber":40},{"time":314666.3520000011,"duration":111.11099999997532,"noteNumber":74,"velocity":85,"programNumber":40},{"time":314888.57400000107,"duration":111.11099999997532,"noteNumber":79,"velocity":85,"programNumber":40},{"time":315110.796000001,"duration":111.11099999997532,"noteNumber":83,"velocity":85,"programNumber":40},{"time":315333.018000001,"duration":111.11099999997532,"noteNumber":86,"velocity":85,"programNumber":40},{"time":315555.2400000009,"duration":222.22200000000885,"noteNumber":86,"velocity":85,"programNumber":40},{"time":315777.46200000093,"duration":166.66649999999208,"noteNumber":84,"velocity":85,"programNumber":40},{"time":315999.68400000094,"duration":111.11099999997532,"noteNumber":83,"velocity":85,"programNumber":40},{"time":316221.9060000009,"duration":111.11099999997532,"noteNumber":81,"velocity":85,"programNumber":40},{"time":316444.12800000084,"duration":166.66649999999208,"noteNumber":79,"velocity":94,"programNumber":40},{"time":316666.35000000085,"duration":166.66649999999208,"noteNumber":62,"velocity":85,"programNumber":40},{"time":316888.57200000086,"duration":166.66649999999208,"noteNumber":64,"velocity":85,"programNumber":40},{"time":317110.79400000087,"duration":166.66649999999208,"noteNumber":66,"velocity":85,"programNumber":40},{"time":317333.0160000009,"duration":166.66649999999208,"noteNumber":67,"velocity":85,"programNumber":40},{"time":317555.2380000009,"duration":166.66649999999208,"noteNumber":67,"velocity":85,"programNumber":40},{"time":317777.4600000009,"duration":55.555500000016764,"noteNumber":69,"velocity":85,"programNumber":40},{"time":317833.0155000009,"duration":55.555500000016764,"noteNumber":71,"velocity":85,"programNumber":40},{"time":317888.5710000009,"duration":55.555500000016764,"noteNumber":69,"velocity":85,"programNumber":40},{"time":317944.12650000094,"duration":55.555500000016764,"noteNumber":71,"velocity":85,"programNumber":40},{"time":317999.68200000096,"duration":111.11099999997532,"noteNumber":67,"velocity":85,"programNumber":40},{"time":318110.79300000094,"duration":111.11099999997532,"noteNumber":69,"velocity":85,"programNumber":40},{"time":318221.9040000009,"duration":166.66649999999208,"noteNumber":71,"velocity":85,"programNumber":40},{"time":318444.1260000009,"duration":166.66649999999208,"noteNumber":66,"velocity":85,"programNumber":40},{"time":318666.34800000093,"duration":166.66649999999208,"noteNumber":67,"velocity":85,"programNumber":40},{"time":318888.57000000094,"duration":166.66649999999208,"noteNumber":69,"velocity":85,"programNumber":40},{"time":319110.79200000095,"duration":166.66649999999208,"noteNumber":71,"velocity":85,"programNumber":40},{"time":319333.01400000096,"duration":166.66649999999208,"noteNumber":71,"velocity":85,"programNumber":40},{"time":319555.23600000096,"duration":55.555500000016764,"noteNumber":72,"velocity":86,"programNumber":40},{"time":319610.791500001,"duration":55.555500000016764,"noteNumber":74,"velocity":86,"programNumber":40},{"time":319666.347000001,"duration":55.555500000016764,"noteNumber":72,"velocity":86,"programNumber":40},{"time":319721.902500001,"duration":55.555500000016764,"noteNumber":74,"velocity":86,"programNumber":40},{"time":319777.45800000103,"duration":111.11099999997532,"noteNumber":71,"velocity":86,"programNumber":40},{"time":319888.569000001,"duration":111.11099999997532,"noteNumber":72,"velocity":89,"programNumber":40},{"time":319999.680000001,"duration":166.66649999999208,"noteNumber":74,"velocity":89,"programNumber":40},{"time":320221.902000001,"duration":166.66649999999208,"noteNumber":74,"velocity":91,"programNumber":40},{"time":320444.124000001,"duration":55.555500000016764,"noteNumber":75,"velocity":91,"programNumber":40},{"time":320499.679500001,"duration":55.555500000016764,"noteNumber":76,"velocity":91,"programNumber":40},{"time":320555.23500000103,"duration":55.555500000016764,"noteNumber":75,"velocity":91,"programNumber":40},{"time":320610.79050000105,"duration":55.555500000016764,"noteNumber":76,"velocity":92,"programNumber":40},{"time":320666.34600000107,"duration":111.11099999997532,"noteNumber":73,"velocity":94,"programNumber":40},{"time":320777.45700000104,"duration":111.11099999997532,"noteNumber":75,"velocity":97,"programNumber":40},{"time":320888.568000001,"duration":444.4440000000177,"noteNumber":76,"velocity":98,"programNumber":40},{"time":321777.45600000105,"duration":666.6660000000265,"noteNumber":64,"velocity":61,"programNumber":40},{"time":322444.1220000011,"duration":166.66649999999208,"noteNumber":69,"velocity":61,"programNumber":40},{"time":322666.3440000011,"duration":222.22200000000885,"noteNumber":67,"velocity":61,"programNumber":40},{"time":322888.5660000011,"duration":222.22200000000885,"noteNumber":66,"velocity":62,"programNumber":40},{"time":323110.7880000011,"duration":222.22200000000885,"noteNumber":64,"velocity":62,"programNumber":40},{"time":323333.0100000011,"duration":166.66649999999208,"noteNumber":62,"velocity":62,"programNumber":40},{"time":323555.2320000011,"duration":222.22200000000885,"noteNumber":74,"velocity":62,"programNumber":40},{"time":323777.45400000113,"duration":222.22200000000885,"noteNumber":73,"velocity":62,"programNumber":40},{"time":323999.67600000114,"duration":222.22200000000885,"noteNumber":72,"velocity":62,"programNumber":40},{"time":324221.89800000115,"duration":222.22200000000885,"noteNumber":71,"velocity":62,"programNumber":40},{"time":324444.12000000116,"duration":222.22200000000885,"noteNumber":74,"velocity":61,"programNumber":40},{"time":324666.34200000117,"duration":222.22200000000885,"noteNumber":73,"velocity":61,"programNumber":40},{"time":324888.5640000012,"duration":222.22200000000885,"noteNumber":72,"velocity":61,"programNumber":40},{"time":325110.7860000012,"duration":166.66649999999208,"noteNumber":71,"velocity":59,"programNumber":40},{"time":325333.0080000012,"duration":666.6660000000265,"noteNumber":64,"velocity":61,"programNumber":40},{"time":325999.6740000012,"duration":166.66649999999208,"noteNumber":69,"velocity":67,"programNumber":40},{"time":326221.89600000123,"duration":222.22200000000885,"noteNumber":67,"velocity":70,"programNumber":40},{"time":326444.11800000124,"duration":222.22200000000885,"noteNumber":66,"velocity":70,"programNumber":40},{"time":326666.34000000125,"duration":222.22200000000885,"noteNumber":64,"velocity":70,"programNumber":40},{"time":326888.56200000126,"duration":166.66649999999208,"noteNumber":62,"velocity":70,"programNumber":40},{"time":327110.78400000127,"duration":222.22200000000885,"noteNumber":74,"velocity":70,"programNumber":40},{"time":327333.0060000013,"duration":222.22200000000885,"noteNumber":76,"velocity":70,"programNumber":40},{"time":327555.2280000013,"duration":222.22200000000885,"noteNumber":78,"velocity":70,"programNumber":40},{"time":327777.4500000013,"duration":222.22200000000885,"noteNumber":79,"velocity":70,"programNumber":40},{"time":327999.6720000013,"duration":222.22200000000885,"noteNumber":74,"velocity":70,"programNumber":40},{"time":328221.8940000013,"duration":222.22200000000885,"noteNumber":76,"velocity":70,"programNumber":40},{"time":328444.1160000013,"duration":222.22200000000885,"noteNumber":78,"velocity":70,"programNumber":40},{"time":328666.3380000013,"duration":166.66649999999208,"noteNumber":79,"velocity":76,"programNumber":40},{"time":328888.56000000134,"duration":444.4440000000177,"noteNumber":81,"velocity":75,"programNumber":40},{"time":329777.4480000014,"duration":444.4440000000177,"noteNumber":86,"velocity":91,"programNumber":40},{"time":329777.4480000014,"duration":444.4440000000177,"noteNumber":74,"velocity":91,"programNumber":40},{"time":330666.3360000014,"duration":444.4440000000177,"noteNumber":79,"velocity":96,"programNumber":40},{"time":330666.3360000014,"duration":444.4440000000177,"noteNumber":71,"velocity":96,"programNumber":40},{"time":330666.3360000014,"duration":444.4440000000177,"noteNumber":62,"velocity":96,"programNumber":40},{"time":331333.00200000143,"duration":166.66649999999208,"noteNumber":74,"velocity":95,"programNumber":40},{"time":331555.22400000144,"duration":166.66649999999208,"noteNumber":71,"velocity":94,"programNumber":40},{"time":331777.44600000145,"duration":166.66649999999208,"noteNumber":67,"velocity":90,"programNumber":40},{"time":331999.66800000146,"duration":166.66649999999208,"noteNumber":71,"velocity":90,"programNumber":40},{"time":332221.89000000147,"duration":166.66649999999208,"noteNumber":74,"velocity":89,"programNumber":40},{"time":332444.1120000015,"duration":166.66649999999208,"noteNumber":79,"velocity":88,"programNumber":40},{"time":332666.3340000015,"duration":166.66649999999208,"noteNumber":74,"velocity":88,"programNumber":40},{"time":332888.5560000015,"duration":166.66649999999208,"noteNumber":79,"velocity":88,"programNumber":40},{"time":333110.7780000015,"duration":166.66649999999208,"noteNumber":83,"velocity":90,"programNumber":40},{"time":333333.0000000015,"duration":370.36999999999534,"noteNumber":86,"velocity":92,"programNumber":40},{"time":333777.44400000153,"duration":370.36999999999534,"noteNumber":78,"velocity":95,"programNumber":40},{"time":333777.44400000153,"duration":370.36999999999534,"noteNumber":69,"velocity":95,"programNumber":40},{"time":333777.44400000153,"duration":370.36999999999534,"noteNumber":62,"velocity":95,"programNumber":40},{"time":334221.88800000155,"duration":444.4440000000177,"noteNumber":79,"velocity":100,"programNumber":40},{"time":334221.88800000155,"duration":444.4440000000177,"noteNumber":71,"velocity":100,"programNumber":40},{"time":334221.88800000155,"duration":444.4440000000177,"noteNumber":62,"velocity":100,"programNumber":40},{"time":334888.5540000016,"duration":166.66649999999208,"noteNumber":74,"velocity":98,"programNumber":40},{"time":335110.7760000016,"duration":166.66649999999208,"noteNumber":71,"velocity":98,"programNumber":40},{"time":335332.9980000016,"duration":166.66649999999208,"noteNumber":67,"velocity":95,"programNumber":40},{"time":335555.2200000016,"duration":166.66649999999208,"noteNumber":71,"velocity":94,"programNumber":40},{"time":335777.4420000016,"duration":166.66649999999208,"noteNumber":74,"velocity":92,"programNumber":40},{"time":335999.6640000016,"duration":166.66649999999208,"noteNumber":79,"velocity":91,"programNumber":40},{"time":336221.8860000016,"duration":166.66649999999208,"noteNumber":74,"velocity":91,"programNumber":40},{"time":336444.10800000164,"duration":166.66649999999208,"noteNumber":79,"velocity":92,"programNumber":40},{"time":336666.33000000165,"duration":166.66649999999208,"noteNumber":83,"velocity":92,"programNumber":40},{"time":336888.55200000165,"duration":370.36999999999534,"noteNumber":86,"velocity":96,"programNumber":40},{"time":337332.9960000017,"duration":370.36999999999534,"noteNumber":78,"velocity":99,"programNumber":40},{"time":337332.9960000017,"duration":370.36999999999534,"noteNumber":69,"velocity":99,"programNumber":40},{"time":337332.9960000017,"duration":370.36999999999534,"noteNumber":62,"velocity":99,"programNumber":40},{"time":337777.4400000017,"duration":444.4440000000177,"noteNumber":79,"velocity":109,"programNumber":40},{"time":337777.4400000017,"duration":444.4440000000177,"noteNumber":71,"velocity":109,"programNumber":40},{"time":337777.4400000017,"duration":444.4440000000177,"noteNumber":62,"velocity":109,"programNumber":40},{"time":338666.3280000017,"duration":444.4440000000177,"noteNumber":79,"velocity":106,"programNumber":40},{"time":338666.3280000017,"duration":444.4440000000177,"noteNumber":71,"velocity":106,"programNumber":40},{"time":338666.3280000017,"duration":444.4440000000177,"noteNumber":62,"velocity":106,"programNumber":40},{"time":339555.21600000176,"duration":370.36999999999534,"noteNumber":79,"velocity":106,"programNumber":40},{"time":339555.21600000176,"duration":370.36999999999534,"noteNumber":71,"velocity":106,"programNumber":40},{"time":339555.21600000176,"duration":370.36999999999534,"noteNumber":62,"velocity":106,"programNumber":40},{"time":339999.6600000018,"duration":222.22200000000885,"noteNumber":67,"velocity":110,"programNumber":40},{"time":339999.6600000018,"duration":222.22200000000885,"noteNumber":55,"velocity":110,"programNumber":40},{"time":340332.99300000176,"duration":55.555500000016764,"noteNumber":67,"velocity":109,"programNumber":40},{"time":340332.99300000176,"duration":55.555500000016764,"noteNumber":55,"velocity":109,"programNumber":40},{"time":340444.1040000018,"duration":444.4440000000177,"noteNumber":67,"velocity":108,"programNumber":40},{"time":340444.1040000018,"duration":444.4440000000177,"noteNumber":55,"velocity":108,"programNumber":40}],[{"time":0,"duration":444.444,"noteNumber":71,"velocity":85,"programNumber":44},{"time":0,"duration":444.444,"noteNumber":79,"velocity":85,"programNumber":44},{"time":0,"duration":444.444,"noteNumber":62,"velocity":85,"programNumber":44},{"time":666.666,"duration":111.11099999999999,"noteNumber":74,"velocity":85,"programNumber":44},{"time":888.888,"duration":444.4440000000001,"noteNumber":79,"velocity":85,"programNumber":44},{"time":1555.554,"duration":111.1110000000001,"noteNumber":74,"velocity":85,"programNumber":44},{"time":1777.7760000000003,"duration":111.1110000000001,"noteNumber":79,"velocity":85,"programNumber":44},{"time":1999.9980000000005,"duration":111.11099999999988,"noteNumber":74,"velocity":85,"programNumber":44},{"time":2222.2200000000003,"duration":111.11099999999988,"noteNumber":79,"velocity":85,"programNumber":44},{"time":2444.442,"duration":111.11099999999988,"noteNumber":83,"velocity":85,"programNumber":44},{"time":2666.6639999999998,"duration":444.44399999999996,"noteNumber":86,"velocity":85,"programNumber":44},{"time":3555.5519999999997,"duration":444.44399999999996,"noteNumber":84,"velocity":85,"programNumber":44},{"time":4222.218,"duration":111.11099999999988,"noteNumber":81,"velocity":82,"programNumber":44},{"time":4444.44,"duration":444.4440000000004,"noteNumber":84,"velocity":85,"programNumber":44},{"time":5111.106,"duration":111.11099999999988,"noteNumber":81,"velocity":79,"programNumber":44},{"time":5333.3279999999995,"duration":111.11099999999988,"noteNumber":84,"velocity":85,"programNumber":44},{"time":5555.549999999999,"duration":111.11099999999988,"noteNumber":81,"velocity":80,"programNumber":44},{"time":5777.771999999999,"duration":111.11099999999988,"noteNumber":78,"velocity":85,"programNumber":44},{"time":5999.993999999999,"duration":111.11099999999988,"noteNumber":81,"velocity":77,"programNumber":44},{"time":6222.2159999999985,"duration":444.4440000000004,"noteNumber":74,"velocity":85,"programNumber":44},{"time":7111.103999999999,"duration":222.22199999999975,"noteNumber":71,"velocity":85,"programNumber":44},{"time":7111.103999999999,"duration":222.22199999999975,"noteNumber":79,"velocity":85,"programNumber":44},{"time":7111.103999999999,"duration":222.22199999999975,"noteNumber":62,"velocity":85,"programNumber":44},{"time":7555.547999999999,"duration":666.6659999999993,"noteNumber":79,"velocity":85,"programNumber":44},{"time":8222.213999999998,"duration":222.22199999999975,"noteNumber":83,"velocity":89,"programNumber":44},{"time":8444.435999999998,"duration":111.11100000000079,"noteNumber":81,"velocity":94,"programNumber":44},{"time":8666.658,"duration":111.11100000000079,"noteNumber":79,"velocity":97,"programNumber":44},{"time":8888.880000000001,"duration":55.55550000000039,"noteNumber":79,"velocity":95,"programNumber":44},{"time":8944.435500000001,"duration":55.55550000000039,"noteNumber":81,"velocity":95,"programNumber":44},{"time":8999.991000000002,"duration":55.55550000000039,"noteNumber":79,"velocity":95,"programNumber":44},{"time":9055.546500000002,"duration":55.55550000000039,"noteNumber":81,"velocity":94,"programNumber":44},{"time":9111.102000000003,"duration":185.1849999999995,"noteNumber":78,"velocity":94,"programNumber":44},{"time":9333.324000000002,"duration":666.6659999999993,"noteNumber":78,"velocity":88,"programNumber":44},{"time":9999.990000000002,"duration":222.22199999999975,"noteNumber":81,"velocity":85,"programNumber":44},{"time":10222.212000000001,"duration":111.11100000000079,"noteNumber":84,"velocity":85,"programNumber":44},{"time":10444.434000000003,"duration":111.11100000000079,"noteNumber":78,"velocity":85,"programNumber":44},{"time":10666.656000000004,"duration":222.22199999999975,"noteNumber":81,"velocity":85,"programNumber":44},{"time":10888.878000000004,"duration":111.11100000000079,"noteNumber":79,"velocity":85,"programNumber":44},{"time":11111.100000000006,"duration":666.6659999999993,"noteNumber":79,"velocity":85,"programNumber":44},{"time":11777.766000000005,"duration":222.22199999999975,"noteNumber":83,"velocity":86,"programNumber":44},{"time":11999.988000000005,"duration":111.11100000000079,"noteNumber":81,"velocity":86,"programNumber":44},{"time":12222.210000000006,"duration":111.11100000000079,"noteNumber":79,"velocity":89,"programNumber":44},{"time":12444.432000000008,"duration":55.55550000000039,"noteNumber":79,"velocity":91,"programNumber":44},{"time":12499.987500000008,"duration":55.55550000000039,"noteNumber":81,"velocity":91,"programNumber":44},{"time":12555.543000000009,"duration":55.55550000000039,"noteNumber":79,"velocity":92,"programNumber":44},{"time":12611.09850000001,"duration":55.55550000000039,"noteNumber":81,"velocity":94,"programNumber":44},{"time":12666.65400000001,"duration":185.1849999999995,"noteNumber":78,"velocity":94,"programNumber":44},{"time":12888.87600000001,"duration":666.6659999999993,"noteNumber":78,"velocity":94,"programNumber":44},{"time":13555.542000000009,"duration":222.22199999999975,"noteNumber":81,"velocity":85,"programNumber":44},{"time":13777.764000000008,"duration":111.11100000000079,"noteNumber":84,"velocity":85,"programNumber":44},{"time":13999.98600000001,"duration":111.11100000000079,"noteNumber":78,"velocity":85,"programNumber":44},{"time":14222.208000000011,"duration":111.11100000000079,"noteNumber":79,"velocity":85,"programNumber":44},{"time":14444.430000000013,"duration":111.11100000000079,"noteNumber":79,"velocity":85,"programNumber":44},{"time":14666.652000000015,"duration":111.11100000000079,"noteNumber":79,"velocity":85,"programNumber":44},{"time":14777.763000000015,"duration":111.11100000000079,"noteNumber":78,"velocity":85,"programNumber":44},{"time":14888.874000000016,"duration":111.11100000000079,"noteNumber":76,"velocity":85,"programNumber":44},{"time":14999.985000000017,"duration":111.11100000000079,"noteNumber":78,"velocity":85,"programNumber":44},{"time":15111.096000000018,"duration":111.11100000000079,"noteNumber":79,"velocity":85,"programNumber":44},{"time":15333.31800000002,"duration":111.11100000000079,"noteNumber":79,"velocity":85,"programNumber":44},{"time":15555.54000000002,"duration":111.11100000000079,"noteNumber":83,"velocity":85,"programNumber":44},{"time":15666.651000000022,"duration":111.11100000000079,"noteNumber":81,"velocity":85,"programNumber":44},{"time":15777.762000000022,"duration":111.11100000000079,"noteNumber":79,"velocity":85,"programNumber":44},{"time":15888.873000000023,"duration":111.11100000000079,"noteNumber":81,"velocity":85,"programNumber":44},{"time":15999.984000000024,"duration":111.11100000000079,"noteNumber":83,"velocity":86,"programNumber":44},{"time":16222.206000000026,"duration":111.11100000000079,"noteNumber":83,"velocity":86,"programNumber":44},{"time":16444.428000000025,"duration":111.11100000000079,"noteNumber":86,"velocity":83,"programNumber":44},{"time":16555.539000000026,"duration":111.11100000000079,"noteNumber":84,"velocity":80,"programNumber":44},{"time":16666.650000000027,"duration":111.11100000000079,"noteNumber":83,"velocity":80,"programNumber":44},{"time":16777.761000000028,"duration":111.11100000000079,"noteNumber":84,"velocity":79,"programNumber":44},{"time":16888.87200000003,"duration":444.4439999999995,"noteNumber":86,"velocity":76,"programNumber":44},{"time":17777.760000000028,"duration":888.887999999999,"noteNumber":74,"velocity":41,"programNumber":44},{"time":18666.648000000027,"duration":888.887999999999,"noteNumber":76,"velocity":47,"programNumber":44},{"time":19555.536000000026,"duration":111.11100000000079,"noteNumber":74,"velocity":47,"programNumber":44},{"time":19666.647000000026,"duration":296.29599999999846,"noteNumber":72,"velocity":47,"programNumber":44},{"time":19999.980000000025,"duration":444.4439999999995,"noteNumber":72,"velocity":47,"programNumber":44},{"time":20444.424000000025,"duration":111.11100000000079,"noteNumber":72,"velocity":47,"programNumber":44},{"time":20555.535000000025,"duration":296.29599999999846,"noteNumber":71,"velocity":47,"programNumber":44},{"time":20888.868000000024,"duration":444.4439999999995,"noteNumber":71,"velocity":47,"programNumber":44},{"time":21333.312000000024,"duration":111.11100000000079,"noteNumber":71,"velocity":47,"programNumber":44},{"time":21444.423000000024,"duration":296.29599999999846,"noteNumber":69,"velocity":47,"programNumber":44},{"time":21777.756000000023,"duration":444.4439999999995,"noteNumber":69,"velocity":47,"programNumber":44},{"time":22222.200000000023,"duration":222.22200000000157,"noteNumber":67,"velocity":47,"programNumber":44},{"time":22444.422000000024,"duration":111.11100000000079,"noteNumber":66,"velocity":47,"programNumber":44},{"time":22666.644000000026,"duration":111.11100000000079,"noteNumber":64,"velocity":47,"programNumber":44},{"time":22888.866000000027,"duration":111.11100000000079,"noteNumber":66,"velocity":47,"programNumber":44},{"time":23111.08800000003,"duration":222.22200000000157,"noteNumber":67,"velocity":47,"programNumber":44},{"time":23555.532000000032,"duration":222.22200000000157,"noteNumber":69,"velocity":47,"programNumber":44},{"time":23999.976000000035,"duration":222.22200000000157,"noteNumber":71,"velocity":47,"programNumber":44},{"time":24888.864000000038,"duration":888.887999999999,"noteNumber":74,"velocity":47,"programNumber":44},{"time":25777.752000000037,"duration":888.887999999999,"noteNumber":76,"velocity":47,"programNumber":44},{"time":26666.640000000036,"duration":222.22200000000157,"noteNumber":74,"velocity":47,"programNumber":44},{"time":26888.862000000037,"duration":111.11100000000079,"noteNumber":72,"velocity":47,"programNumber":44},{"time":27111.08400000004,"duration":111.11100000000079,"noteNumber":72,"velocity":47,"programNumber":44},{"time":27333.30600000004,"duration":111.11100000000079,"noteNumber":72,"velocity":47,"programNumber":44},{"time":27555.528000000042,"duration":222.22200000000157,"noteNumber":72,"velocity":47,"programNumber":44},{"time":27777.750000000044,"duration":111.11100000000079,"noteNumber":71,"velocity":47,"programNumber":44},{"time":27999.972000000045,"duration":111.11100000000079,"noteNumber":71,"velocity":47,"programNumber":44},{"time":28222.194000000047,"duration":111.11100000000079,"noteNumber":71,"velocity":47,"programNumber":44},{"time":28444.41600000005,"duration":222.22200000000157,"noteNumber":71,"velocity":47,"programNumber":44},{"time":28666.63800000005,"duration":111.11100000000079,"noteNumber":69,"velocity":47,"programNumber":44},{"time":28888.86000000005,"duration":166.66649999999936,"noteNumber":69,"velocity":47,"programNumber":44},{"time":29111.08200000005,"duration":166.66649999999936,"noteNumber":69,"velocity":47,"programNumber":44},{"time":29333.304000000047,"duration":222.22200000000157,"noteNumber":67,"velocity":47,"programNumber":44},{"time":29555.52600000005,"duration":222.22200000000157,"noteNumber":66,"velocity":47,"programNumber":44},{"time":29777.74800000005,"duration":222.22200000000157,"noteNumber":64,"velocity":47,"programNumber":44},{"time":29999.970000000052,"duration":222.22200000000157,"noteNumber":66,"velocity":47,"programNumber":44},{"time":30222.192000000054,"duration":1111.1100000000006,"noteNumber":67,"velocity":85,"programNumber":44},{"time":30222.192000000054,"duration":1111.1100000000006,"noteNumber":55,"velocity":85,"programNumber":44},{"time":31333.302000000054,"duration":55.555499999998574,"noteNumber":67,"velocity":61,"programNumber":44},{"time":31388.857500000053,"duration":55.555499999998574,"noteNumber":69,"velocity":61,"programNumber":44},{"time":31444.41300000005,"duration":55.555499999998574,"noteNumber":66,"velocity":61,"programNumber":44},{"time":31499.96850000005,"duration":55.555499999998574,"noteNumber":67,"velocity":61,"programNumber":44},{"time":31555.52400000005,"duration":222.22200000000157,"noteNumber":69,"velocity":61,"programNumber":44},{"time":31777.74600000005,"duration":222.22200000000157,"noteNumber":66,"velocity":61,"programNumber":44},{"time":31999.96800000005,"duration":1111.1100000000006,"noteNumber":71,"velocity":85,"programNumber":44},{"time":33111.07800000005,"duration":55.55550000000221,"noteNumber":71,"velocity":61,"programNumber":44},{"time":33166.633500000054,"duration":55.55550000000221,"noteNumber":72,"velocity":61,"programNumber":44},{"time":33222.18900000006,"duration":55.55550000000221,"noteNumber":69,"velocity":61,"programNumber":44},{"time":33277.74450000006,"duration":55.55550000000221,"noteNumber":71,"velocity":61,"programNumber":44},{"time":33333.30000000006,"duration":222.22200000000157,"noteNumber":72,"velocity":61,"programNumber":44},{"time":33555.52200000006,"duration":222.22200000000157,"noteNumber":69,"velocity":61,"programNumber":44},{"time":33777.744000000064,"duration":74.07400000000052,"noteNumber":74,"velocity":46,"programNumber":44},{"time":33888.85500000006,"duration":74.07400000000052,"noteNumber":74,"velocity":46,"programNumber":44},{"time":33999.96600000006,"duration":74.07400000000052,"noteNumber":74,"velocity":47,"programNumber":44},{"time":34111.077000000056,"duration":74.07400000000052,"noteNumber":74,"velocity":47,"programNumber":44},{"time":34222.18800000005,"duration":74.07400000000052,"noteNumber":74,"velocity":49,"programNumber":44},{"time":34333.29900000005,"duration":74.07400000000052,"noteNumber":74,"velocity":50,"programNumber":44},{"time":34444.41000000005,"duration":74.07400000000052,"noteNumber":74,"velocity":50,"programNumber":44},{"time":34555.521000000044,"duration":74.07400000000052,"noteNumber":74,"velocity":52,"programNumber":44},{"time":34666.63200000004,"duration":74.07400000000052,"noteNumber":76,"velocity":53,"programNumber":44},{"time":34777.74300000004,"duration":74.07400000000052,"noteNumber":76,"velocity":53,"programNumber":44},{"time":34888.854000000036,"duration":74.07400000000052,"noteNumber":76,"velocity":55,"programNumber":44},{"time":34999.96500000003,"duration":74.07400000000052,"noteNumber":76,"velocity":56,"programNumber":44},{"time":35111.07600000003,"duration":74.07400000000052,"noteNumber":78,"velocity":56,"programNumber":44},{"time":35222.18700000003,"duration":74.07400000000052,"noteNumber":78,"velocity":58,"programNumber":44},{"time":35333.298000000024,"duration":74.07400000000052,"noteNumber":78,"velocity":58,"programNumber":44},{"time":35444.40900000002,"duration":74.07400000000052,"noteNumber":78,"velocity":59,"programNumber":44},{"time":35555.52000000002,"duration":74.07400000000052,"noteNumber":79,"velocity":61,"programNumber":44},{"time":35666.631000000016,"duration":74.07400000000052,"noteNumber":79,"velocity":61,"programNumber":44},{"time":35777.74200000001,"duration":74.07400000000052,"noteNumber":79,"velocity":62,"programNumber":44},{"time":35888.85300000001,"duration":74.07400000000052,"noteNumber":79,"velocity":64,"programNumber":44},{"time":35999.96400000001,"duration":74.07400000000052,"noteNumber":81,"velocity":64,"programNumber":44},{"time":36111.075000000004,"duration":74.07400000000052,"noteNumber":81,"velocity":65,"programNumber":44},{"time":36222.186,"duration":74.07400000000052,"noteNumber":81,"velocity":67,"programNumber":44},{"time":36333.297,"duration":74.07400000000052,"noteNumber":81,"velocity":67,"programNumber":44},{"time":36444.407999999996,"duration":74.07400000000052,"noteNumber":83,"velocity":68,"programNumber":44},{"time":36555.51899999999,"duration":74.07400000000052,"noteNumber":83,"velocity":68,"programNumber":44},{"time":36666.62999999999,"duration":74.07400000000052,"noteNumber":83,"velocity":70,"programNumber":44},{"time":36777.74099999999,"duration":74.07400000000052,"noteNumber":83,"velocity":71,"programNumber":44},{"time":36888.851999999984,"duration":74.07400000000052,"noteNumber":85,"velocity":71,"programNumber":44},{"time":36999.96299999998,"duration":74.07400000000052,"noteNumber":85,"velocity":73,"programNumber":44},{"time":37111.07399999998,"duration":74.07400000000052,"noteNumber":85,"velocity":74,"programNumber":44},{"time":37222.184999999976,"duration":74.07400000000052,"noteNumber":85,"velocity":74,"programNumber":44},{"time":37333.29599999997,"duration":666.6659999999974,"noteNumber":86,"velocity":85,"programNumber":44},{"time":37999.96199999997,"duration":222.22200000000157,"noteNumber":81,"velocity":85,"programNumber":44},{"time":38222.18399999997,"duration":333.3329999999987,"noteNumber":85,"velocity":94,"programNumber":44},{"time":38555.51699999997,"duration":111.11099999999715,"noteNumber":81,"velocity":85,"programNumber":44},{"time":38666.62799999997,"duration":333.3329999999987,"noteNumber":85,"velocity":85,"programNumber":44},{"time":38999.96099999997,"duration":111.11099999999715,"noteNumber":81,"velocity":85,"programNumber":44},{"time":39111.071999999964,"duration":666.6659999999974,"noteNumber":86,"velocity":85,"programNumber":44},{"time":39777.73799999996,"duration":222.22200000000157,"noteNumber":81,"velocity":85,"programNumber":44},{"time":39999.95999999996,"duration":333.3329999999987,"noteNumber":85,"velocity":85,"programNumber":44},{"time":40333.29299999996,"duration":111.11099999999715,"noteNumber":81,"velocity":85,"programNumber":44},{"time":40444.40399999996,"duration":333.3329999999987,"noteNumber":85,"velocity":85,"programNumber":44},{"time":40777.73699999996,"duration":111.11099999999715,"noteNumber":81,"velocity":85,"programNumber":44},{"time":40888.847999999954,"duration":111.11099999999715,"noteNumber":86,"velocity":85,"programNumber":44},{"time":41111.06999999995,"duration":333.3329999999987,"noteNumber":86,"velocity":85,"programNumber":44},{"time":41111.06999999995,"duration":333.3329999999987,"noteNumber":78,"velocity":85,"programNumber":44},{"time":41555.513999999945,"duration":333.3329999999987,"noteNumber":86,"velocity":85,"programNumber":44},{"time":41555.513999999945,"duration":333.3329999999987,"noteNumber":78,"velocity":85,"programNumber":44},{"time":41999.95799999994,"duration":333.3329999999987,"noteNumber":86,"velocity":85,"programNumber":44},{"time":41999.95799999994,"duration":333.3329999999987,"noteNumber":78,"velocity":85,"programNumber":44},{"time":42444.40199999994,"duration":222.22200000000157,"noteNumber":78,"velocity":85,"programNumber":44},{"time":42666.62399999994,"duration":111.11099999999715,"noteNumber":76,"velocity":85,"programNumber":44},{"time":42444.40199999994,"duration":333.3329999999987,"noteNumber":86,"velocity":85,"programNumber":44},{"time":42888.84599999993,"duration":333.3329999999987,"noteNumber":86,"velocity":85,"programNumber":44},{"time":42888.84599999993,"duration":333.3329999999987,"noteNumber":76,"velocity":85,"programNumber":44},{"time":43333.28999999993,"duration":333.3329999999987,"noteNumber":86,"velocity":85,"programNumber":44},{"time":43333.28999999993,"duration":333.3329999999987,"noteNumber":76,"velocity":85,"programNumber":44},{"time":43777.733999999924,"duration":333.3329999999987,"noteNumber":86,"velocity":85,"programNumber":44},{"time":43777.733999999924,"duration":333.3329999999987,"noteNumber":76,"velocity":85,"programNumber":44},{"time":44222.17799999992,"duration":222.22200000000157,"noteNumber":86,"velocity":85,"programNumber":44},{"time":44222.17799999992,"duration":222.22200000000157,"noteNumber":76,"velocity":85,"programNumber":44},{"time":44444.39999999992,"duration":166.66649999999936,"noteNumber":85,"velocity":92,"programNumber":44},{"time":44444.39999999992,"duration":166.66649999999936,"noteNumber":76,"velocity":92,"programNumber":44},{"time":44666.62199999992,"duration":166.66649999999936,"noteNumber":81,"velocity":85,"programNumber":44},{"time":44888.843999999925,"duration":166.66649999999936,"noteNumber":86,"velocity":85,"programNumber":44},{"time":45111.065999999926,"duration":166.66649999999936,"noteNumber":81,"velocity":85,"programNumber":44},{"time":45333.28799999993,"duration":166.66649999999936,"noteNumber":85,"velocity":85,"programNumber":44},{"time":45555.50999999993,"duration":166.66649999999936,"noteNumber":81,"velocity":85,"programNumber":44},{"time":45777.73199999993,"duration":166.66649999999936,"noteNumber":86,"velocity":85,"programNumber":44},{"time":45999.95399999993,"duration":166.66649999999936,"noteNumber":81,"velocity":85,"programNumber":44},{"time":46222.175999999934,"duration":166.66649999999936,"noteNumber":85,"velocity":94,"programNumber":44},{"time":46444.397999999936,"duration":166.66649999999936,"noteNumber":69,"velocity":85,"programNumber":44},{"time":46666.61999999994,"duration":166.66649999999936,"noteNumber":69,"velocity":85,"programNumber":44},{"time":46888.84199999994,"duration":166.66649999999936,"noteNumber":69,"velocity":85,"programNumber":44},{"time":47111.06399999994,"duration":444.44400000000314,"noteNumber":69,"velocity":85,"programNumber":44},{"time":47999.95199999994,"duration":666.6659999999902,"noteNumber":81,"velocity":55,"programNumber":44},{"time":48666.61799999993,"duration":74.07400000000052,"noteNumber":79,"velocity":55,"programNumber":44},{"time":48740.69199999993,"duration":74.07400000000052,"noteNumber":78,"velocity":55,"programNumber":44},{"time":48814.76599999993,"duration":74.07400000000052,"noteNumber":76,"velocity":55,"programNumber":44},{"time":48888.83999999993,"duration":222.22200000000157,"noteNumber":74,"velocity":55,"programNumber":44},{"time":49333.283999999934,"duration":222.22200000000157,"noteNumber":83,"velocity":55,"programNumber":44},{"time":49777.72799999994,"duration":222.22200000000157,"noteNumber":79,"velocity":55,"programNumber":44},{"time":50222.17199999994,"duration":222.22200000000157,"noteNumber":76,"velocity":55,"programNumber":44},{"time":50666.61599999994,"duration":222.22200000000157,"noteNumber":81,"velocity":55,"programNumber":44},{"time":51555.50399999994,"duration":666.6659999999974,"noteNumber":78,"velocity":55,"programNumber":44},{"time":52222.16999999994,"duration":74.07400000000052,"noteNumber":76,"velocity":55,"programNumber":44},{"time":52296.24399999994,"duration":74.07400000000052,"noteNumber":74,"velocity":55,"programNumber":44},{"time":52370.31799999994,"duration":74.07400000000052,"noteNumber":73,"velocity":55,"programNumber":44},{"time":52444.39199999994,"duration":222.22200000000157,"noteNumber":71,"velocity":55,"programNumber":44},{"time":52888.835999999945,"duration":222.22200000000157,"noteNumber":79,"velocity":55,"programNumber":44},{"time":53333.27999999995,"duration":888.887999999999,"noteNumber":78,"velocity":55,"programNumber":44},{"time":54222.16799999995,"duration":444.44400000000314,"noteNumber":76,"velocity":49,"programNumber":44},{"time":55333.27799999995,"duration":111.11099999999715,"noteNumber":81,"velocity":55,"programNumber":44},{"time":55555.49999999994,"duration":111.11099999999715,"noteNumber":81,"velocity":55,"programNumber":44},{"time":55777.721999999936,"duration":111.11099999999715,"noteNumber":81,"velocity":55,"programNumber":44},{"time":55999.94399999993,"duration":111.11099999999715,"noteNumber":81,"velocity":55,"programNumber":44},{"time":56222.165999999925,"duration":111.11099999999715,"noteNumber":81,"velocity":55,"programNumber":44},{"time":56444.38799999992,"duration":111.11099999999715,"noteNumber":81,"velocity":55,"programNumber":44},{"time":56666.60999999991,"duration":111.11099999999715,"noteNumber":81,"velocity":55,"programNumber":44},{"time":56888.83199999991,"duration":111.11099999999715,"noteNumber":81,"velocity":55,"programNumber":44},{"time":57111.0539999999,"duration":111.11099999999715,"noteNumber":81,"velocity":55,"programNumber":44},{"time":57333.275999999896,"duration":111.11099999999715,"noteNumber":81,"velocity":55,"programNumber":44},{"time":57555.49799999989,"duration":111.11099999999715,"noteNumber":81,"velocity":55,"programNumber":44},{"time":57777.719999999885,"duration":111.11099999999715,"noteNumber":81,"velocity":55,"programNumber":44},{"time":57999.94199999988,"duration":111.11099999999715,"noteNumber":81,"velocity":55,"programNumber":44},{"time":58222.16399999987,"duration":111.11099999999715,"noteNumber":83,"velocity":55,"programNumber":44},{"time":58444.38599999987,"duration":111.11099999999715,"noteNumber":85,"velocity":55,"programNumber":44},{"time":58666.60799999986,"duration":222.22200000000157,"noteNumber":85,"velocity":55,"programNumber":44},{"time":58888.82999999986,"duration":222.22200000000157,"noteNumber":86,"velocity":55,"programNumber":44},{"time":59333.27399999987,"duration":111.11099999999715,"noteNumber":83,"velocity":55,"programNumber":44},{"time":59555.49599999986,"duration":222.22200000000157,"noteNumber":83,"velocity":55,"programNumber":44},{"time":59777.71799999986,"duration":222.22200000000157,"noteNumber":81,"velocity":55,"programNumber":44},{"time":60222.161999999866,"duration":166.66649999999936,"noteNumber":73,"velocity":55,"programNumber":44},{"time":60444.38399999987,"duration":444.44400000000314,"noteNumber":74,"velocity":55,"programNumber":44},{"time":61111.04999999987,"duration":111.11099999999715,"noteNumber":81,"velocity":55,"programNumber":44},{"time":61333.271999999866,"duration":222.22200000000157,"noteNumber":86,"velocity":55,"programNumber":44},{"time":61555.49399999987,"duration":222.22200000000157,"noteNumber":85,"velocity":55,"programNumber":44},{"time":61777.71599999987,"duration":222.22200000000157,"noteNumber":83,"velocity":55,"programNumber":44},{"time":61999.93799999987,"duration":222.22200000000157,"noteNumber":81,"velocity":55,"programNumber":44},{"time":62222.15999999987,"duration":55.55550000000221,"noteNumber":83,"velocity":55,"programNumber":44},{"time":62277.715499999875,"duration":55.55550000000221,"noteNumber":85,"velocity":55,"programNumber":44},{"time":62333.27099999988,"duration":55.55550000000221,"noteNumber":83,"velocity":55,"programNumber":44},{"time":62388.82649999988,"duration":55.55550000000221,"noteNumber":85,"velocity":55,"programNumber":44},{"time":62444.38199999988,"duration":222.22200000000157,"noteNumber":81,"velocity":55,"programNumber":44},{"time":62888.825999999885,"duration":111.11099999999715,"noteNumber":81,"velocity":55,"programNumber":44},{"time":63111.04799999988,"duration":111.11099999999715,"noteNumber":81,"velocity":55,"programNumber":44},{"time":63333.26999999987,"duration":111.11099999999715,"noteNumber":81,"velocity":55,"programNumber":44},{"time":63555.49199999987,"duration":111.11099999999715,"noteNumber":81,"velocity":55,"programNumber":44},{"time":63777.71399999986,"duration":111.11099999999715,"noteNumber":81,"velocity":55,"programNumber":44},{"time":63999.935999999856,"duration":55.55550000000221,"noteNumber":83,"velocity":55,"programNumber":44},{"time":64055.49149999986,"duration":55.55550000000221,"noteNumber":85,"velocity":55,"programNumber":44},{"time":64111.04699999986,"duration":55.55550000000221,"noteNumber":83,"velocity":55,"programNumber":44},{"time":64166.60249999986,"duration":55.55550000000221,"noteNumber":85,"velocity":55,"programNumber":44},{"time":64222.157999999865,"duration":222.22200000000157,"noteNumber":81,"velocity":55,"programNumber":44},{"time":64666.60199999987,"duration":166.66649999999936,"noteNumber":81,"velocity":55,"programNumber":44},{"time":64888.82399999987,"duration":222.22200000000157,"noteNumber":86,"velocity":55,"programNumber":44},{"time":65111.04599999987,"duration":222.22200000000157,"noteNumber":85,"velocity":55,"programNumber":44},{"time":65333.26799999987,"duration":222.22200000000157,"noteNumber":83,"velocity":55,"programNumber":44},{"time":65555.48999999987,"duration":222.2219999999943,"noteNumber":81,"velocity":55,"programNumber":44},{"time":65777.71199999987,"duration":55.55550000000221,"noteNumber":83,"velocity":55,"programNumber":44},{"time":65833.26749999987,"duration":55.55550000000221,"noteNumber":85,"velocity":55,"programNumber":44},{"time":65888.82299999987,"duration":55.55550000000221,"noteNumber":83,"velocity":55,"programNumber":44},{"time":65944.37849999988,"duration":55.55550000000221,"noteNumber":85,"velocity":55,"programNumber":44},{"time":65999.93399999988,"duration":222.2219999999943,"noteNumber":81,"velocity":55,"programNumber":44},{"time":66444.37799999987,"duration":111.11100000000442,"noteNumber":81,"velocity":55,"programNumber":44},{"time":66666.59999999987,"duration":111.11100000000442,"noteNumber":81,"velocity":55,"programNumber":44},{"time":66888.82199999988,"duration":111.11100000000442,"noteNumber":81,"velocity":55,"programNumber":44},{"time":67111.04399999989,"duration":111.11100000000442,"noteNumber":81,"velocity":55,"programNumber":44},{"time":67333.2659999999,"duration":111.11100000000442,"noteNumber":81,"velocity":53,"programNumber":44},{"time":67555.48799999991,"duration":55.55550000000221,"noteNumber":83,"velocity":49,"programNumber":44},{"time":67611.04349999991,"duration":55.55550000000221,"noteNumber":85,"velocity":49,"programNumber":44},{"time":67666.59899999991,"duration":55.55550000000221,"noteNumber":83,"velocity":47,"programNumber":44},{"time":67722.15449999992,"duration":55.55550000000221,"noteNumber":85,"velocity":47,"programNumber":44},{"time":67777.70999999992,"duration":222.2219999999943,"noteNumber":81,"velocity":46,"programNumber":44},{"time":68444.37599999992,"duration":629.6290000000008,"noteNumber":83,"velocity":91,"programNumber":44},{"time":68444.37599999992,"duration":629.6290000000008,"noteNumber":71,"velocity":91,"programNumber":44},{"time":69111.04199999991,"duration":74.07399999999325,"noteNumber":81,"velocity":89,"programNumber":44},{"time":69185.1159999999,"duration":74.07399999999325,"noteNumber":79,"velocity":92,"programNumber":44},{"time":69259.1899999999,"duration":74.07399999999325,"noteNumber":78,"velocity":94,"programNumber":44},{"time":69333.2639999999,"duration":444.44400000000314,"noteNumber":79,"velocity":97,"programNumber":44},{"time":70222.1519999999,"duration":629.6290000000008,"noteNumber":69,"velocity":85,"programNumber":44},{"time":70222.1519999999,"duration":629.6290000000008,"noteNumber":81,"velocity":85,"programNumber":44},{"time":70888.8179999999,"duration":74.07399999999325,"noteNumber":79,"velocity":86,"programNumber":44},{"time":70962.89199999989,"duration":74.07399999999325,"noteNumber":78,"velocity":86,"programNumber":44},{"time":71036.96599999988,"duration":74.07399999999325,"noteNumber":76,"velocity":89,"programNumber":44},{"time":71111.03999999988,"duration":444.44400000000314,"noteNumber":78,"velocity":92,"programNumber":44},{"time":71999.92799999988,"duration":222.2219999999943,"noteNumber":83,"velocity":85,"programNumber":44},{"time":72222.14999999988,"duration":111.11100000000442,"noteNumber":85,"velocity":85,"programNumber":44},{"time":72333.26099999988,"duration":111.11100000000442,"noteNumber":86,"velocity":89,"programNumber":44},{"time":72444.37199999989,"duration":166.66650000000664,"noteNumber":85,"velocity":94,"programNumber":44},{"time":72666.5939999999,"duration":111.11100000000442,"noteNumber":83,"velocity":95,"programNumber":44},{"time":72888.8159999999,"duration":222.2219999999943,"noteNumber":83,"velocity":97,"programNumber":44},{"time":73111.0379999999,"duration":166.66650000000664,"noteNumber":81,"velocity":101,"programNumber":44},{"time":73333.25999999991,"duration":111.11100000000442,"noteNumber":78,"velocity":104,"programNumber":44},{"time":73555.48199999992,"duration":111.11100000000442,"noteNumber":81,"velocity":104,"programNumber":44},{"time":73777.70399999993,"duration":222.2219999999943,"noteNumber":81,"velocity":104,"programNumber":44},{"time":73999.92599999992,"duration":166.66650000000664,"noteNumber":79,"velocity":103,"programNumber":44},{"time":74222.14799999993,"duration":111.11100000000442,"noteNumber":78,"velocity":98,"programNumber":44},{"time":74444.36999999994,"duration":111.11100000000442,"noteNumber":76,"velocity":89,"programNumber":44},{"time":74666.59199999995,"duration":444.44400000000314,"noteNumber":74,"velocity":85,"programNumber":44},{"time":75333.25799999994,"duration":111.11100000000442,"noteNumber":81,"velocity":53,"programNumber":44},{"time":75555.47999999995,"duration":222.2219999999943,"noteNumber":86,"velocity":53,"programNumber":44},{"time":75777.70199999995,"duration":222.2219999999943,"noteNumber":85,"velocity":53,"programNumber":44},{"time":75999.92399999994,"duration":222.2219999999943,"noteNumber":83,"velocity":53,"programNumber":44},{"time":76222.14599999994,"duration":222.2219999999943,"noteNumber":81,"velocity":53,"programNumber":44},{"time":76444.36799999993,"duration":55.55550000000221,"noteNumber":83,"velocity":55,"programNumber":44},{"time":76499.92349999993,"duration":55.55550000000221,"noteNumber":85,"velocity":55,"programNumber":44},{"time":76555.47899999993,"duration":55.55550000000221,"noteNumber":83,"velocity":55,"programNumber":44},{"time":76611.03449999994,"duration":55.55550000000221,"noteNumber":85,"velocity":55,"programNumber":44},{"time":76666.58999999994,"duration":222.2219999999943,"noteNumber":81,"velocity":55,"programNumber":44},{"time":77111.03399999993,"duration":111.11100000000442,"noteNumber":81,"velocity":55,"programNumber":44},{"time":77333.25599999994,"duration":111.11100000000442,"noteNumber":81,"velocity":55,"programNumber":44},{"time":77555.47799999994,"duration":111.11100000000442,"noteNumber":81,"velocity":55,"programNumber":44},{"time":77777.69999999995,"duration":111.11100000000442,"noteNumber":81,"velocity":55,"programNumber":44},{"time":77999.92199999996,"duration":111.11100000000442,"noteNumber":81,"velocity":55,"programNumber":44},{"time":78222.14399999997,"duration":55.55550000000221,"noteNumber":83,"velocity":55,"programNumber":44},{"time":78277.69949999997,"duration":55.55550000000221,"noteNumber":85,"velocity":55,"programNumber":44},{"time":78333.25499999998,"duration":55.55550000000221,"noteNumber":83,"velocity":55,"programNumber":44},{"time":78388.81049999998,"duration":55.55550000000221,"noteNumber":85,"velocity":55,"programNumber":44},{"time":78444.36599999998,"duration":222.2219999999943,"noteNumber":81,"velocity":55,"programNumber":44},{"time":78888.80999999997,"duration":166.66650000000664,"noteNumber":81,"velocity":55,"programNumber":44},{"time":79111.03199999998,"duration":222.2219999999943,"noteNumber":86,"velocity":55,"programNumber":44},{"time":79333.25399999997,"duration":222.2219999999943,"noteNumber":85,"velocity":55,"programNumber":44},{"time":79555.47599999997,"duration":222.2219999999943,"noteNumber":83,"velocity":55,"programNumber":44},{"time":79777.69799999996,"duration":222.2219999999943,"noteNumber":81,"velocity":55,"programNumber":44},{"time":79999.91999999995,"duration":55.55550000000221,"noteNumber":83,"velocity":55,"programNumber":44},{"time":80055.47549999996,"duration":55.55550000000221,"noteNumber":85,"velocity":55,"programNumber":44},{"time":80111.03099999996,"duration":55.55550000000221,"noteNumber":83,"velocity":55,"programNumber":44},{"time":80166.58649999996,"duration":55.55550000000221,"noteNumber":85,"velocity":55,"programNumber":44},{"time":80222.14199999996,"duration":222.2219999999943,"noteNumber":81,"velocity":55,"programNumber":44},{"time":80666.58599999995,"duration":111.11100000000442,"noteNumber":81,"velocity":55,"programNumber":44},{"time":80888.80799999996,"duration":111.11100000000442,"noteNumber":81,"velocity":55,"programNumber":44},{"time":81111.02999999997,"duration":111.11100000000442,"noteNumber":81,"velocity":55,"programNumber":44},{"time":81333.25199999998,"duration":111.11100000000442,"noteNumber":81,"velocity":55,"programNumber":44},{"time":81555.47399999999,"duration":111.11100000000442,"noteNumber":81,"velocity":55,"programNumber":44},{"time":81777.696,"duration":55.55550000000221,"noteNumber":83,"velocity":59,"programNumber":44},{"time":81833.2515,"duration":55.55550000000221,"noteNumber":85,"velocity":59,"programNumber":44},{"time":81888.807,"duration":55.55550000000221,"noteNumber":83,"velocity":59,"programNumber":44},{"time":81944.3625,"duration":55.55550000000221,"noteNumber":85,"velocity":59,"programNumber":44},{"time":81999.918,"duration":222.2219999999943,"noteNumber":81,"velocity":59,"programNumber":44},{"time":82666.584,"duration":629.6290000000008,"noteNumber":83,"velocity":85,"programNumber":44},{"time":82666.584,"duration":629.6290000000008,"noteNumber":71,"velocity":85,"programNumber":44},{"time":83333.25,"duration":74.07399999999325,"noteNumber":81,"velocity":85,"programNumber":44},{"time":83407.324,"duration":74.07399999999325,"noteNumber":79,"velocity":85,"programNumber":44},{"time":83481.39799999999,"duration":74.07399999999325,"noteNumber":78,"velocity":85,"programNumber":44},{"time":83555.47199999998,"duration":444.44400000000314,"noteNumber":79,"velocity":85,"programNumber":44},{"time":84444.35999999999,"duration":629.6290000000008,"noteNumber":69,"velocity":85,"programNumber":44},{"time":84444.35999999999,"duration":629.6290000000008,"noteNumber":81,"velocity":85,"programNumber":44},{"time":85111.02599999998,"duration":74.07399999999325,"noteNumber":79,"velocity":85,"programNumber":44},{"time":85185.09999999998,"duration":74.07399999999325,"noteNumber":78,"velocity":85,"programNumber":44},{"time":85259.17399999997,"duration":74.07399999999325,"noteNumber":76,"velocity":85,"programNumber":44},{"time":85333.24799999996,"duration":444.44400000000314,"noteNumber":78,"velocity":85,"programNumber":44},{"time":86222.13599999997,"duration":222.2219999999943,"noteNumber":83,"velocity":80,"programNumber":44},{"time":86444.35799999996,"duration":111.11100000000442,"noteNumber":85,"velocity":82,"programNumber":44},{"time":86555.46899999997,"duration":111.11100000000442,"noteNumber":86,"velocity":83,"programNumber":44},{"time":86666.57999999997,"duration":166.66650000000664,"noteNumber":85,"velocity":83,"programNumber":44},{"time":86888.80199999998,"duration":111.11100000000442,"noteNumber":83,"velocity":85,"programNumber":44},{"time":87111.02399999999,"duration":222.2219999999943,"noteNumber":83,"velocity":86,"programNumber":44},{"time":87333.24599999998,"duration":166.66650000000664,"noteNumber":81,"velocity":88,"programNumber":44},{"time":87555.468,"duration":111.11100000000442,"noteNumber":78,"velocity":88,"programNumber":44},{"time":87777.69,"duration":111.11100000000442,"noteNumber":81,"velocity":88,"programNumber":44},{"time":87999.91200000001,"duration":222.2219999999943,"noteNumber":81,"velocity":88,"programNumber":44},{"time":88222.134,"duration":166.66650000000664,"noteNumber":79,"velocity":88,"programNumber":44},{"time":88444.35600000001,"duration":111.11100000000442,"noteNumber":78,"velocity":88,"programNumber":44},{"time":88666.57800000002,"duration":111.11100000000442,"noteNumber":76,"velocity":88,"programNumber":44},{"time":88888.80000000003,"duration":166.66650000000664,"noteNumber":74,"velocity":88,"programNumber":44},{"time":89111.02200000004,"duration":166.66650000000664,"noteNumber":69,"velocity":88,"programNumber":44},{"time":89333.24400000005,"duration":166.66650000000664,"noteNumber":71,"velocity":88,"programNumber":44},{"time":89555.46600000006,"duration":166.66650000000664,"noteNumber":73,"velocity":85,"programNumber":44},{"time":89777.68800000007,"duration":111.11100000000442,"noteNumber":74,"velocity":82,"programNumber":44},{"time":89999.91000000008,"duration":111.11100000000442,"noteNumber":74,"velocity":85,"programNumber":44},{"time":90222.13200000009,"duration":55.55550000000221,"noteNumber":76,"velocity":85,"programNumber":44},{"time":90277.68750000009,"duration":55.55550000000221,"noteNumber":78,"velocity":85,"programNumber":44},{"time":90333.24300000009,"duration":55.55550000000221,"noteNumber":76,"velocity":85,"programNumber":44},{"time":90388.79850000009,"duration":55.55550000000221,"noteNumber":78,"velocity":85,"programNumber":44},{"time":90444.3540000001,"duration":111.11100000000442,"noteNumber":74,"velocity":85,"programNumber":44},{"time":90555.4650000001,"duration":111.11100000000442,"noteNumber":76,"velocity":85,"programNumber":44},{"time":90666.5760000001,"duration":222.2219999999943,"noteNumber":78,"velocity":85,"programNumber":44},{"time":90888.7980000001,"duration":166.66650000000664,"noteNumber":73,"velocity":85,"programNumber":44},{"time":91111.0200000001,"duration":166.66650000000664,"noteNumber":74,"velocity":85,"programNumber":44},{"time":91333.24200000011,"duration":166.66650000000664,"noteNumber":76,"velocity":85,"programNumber":44},{"time":91555.46400000012,"duration":166.66650000000664,"noteNumber":78,"velocity":85,"programNumber":44},{"time":91777.68600000013,"duration":166.66650000000664,"noteNumber":78,"velocity":85,"programNumber":44},{"time":91999.90800000014,"duration":55.55550000000221,"noteNumber":79,"velocity":85,"programNumber":44},{"time":92055.46350000014,"duration":55.55550000000221,"noteNumber":81,"velocity":86,"programNumber":44},{"time":92111.01900000015,"duration":55.55550000000221,"noteNumber":79,"velocity":88,"programNumber":44},{"time":92166.57450000015,"duration":55.55550000000221,"noteNumber":81,"velocity":88,"programNumber":44},{"time":92222.13000000015,"duration":111.11100000000442,"noteNumber":78,"velocity":88,"programNumber":44},{"time":92333.24100000015,"duration":111.11100000000442,"noteNumber":79,"velocity":88,"programNumber":44},{"time":92444.35200000016,"duration":166.66650000000664,"noteNumber":81,"velocity":88,"programNumber":44},{"time":92666.57400000017,"duration":166.66650000000664,"noteNumber":81,"velocity":91,"programNumber":44},{"time":92888.79600000018,"duration":55.55550000000221,"noteNumber":82,"velocity":92,"programNumber":44},{"time":92944.35150000018,"duration":55.55550000000221,"noteNumber":83,"velocity":92,"programNumber":44},{"time":92999.90700000018,"duration":55.55550000000221,"noteNumber":82,"velocity":94,"programNumber":44},{"time":93055.46250000018,"duration":55.55550000000221,"noteNumber":83,"velocity":94,"programNumber":44},{"time":93111.01800000019,"duration":111.11100000000442,"noteNumber":80,"velocity":95,"programNumber":44},{"time":93222.12900000019,"duration":111.11100000000442,"noteNumber":82,"velocity":97,"programNumber":44},{"time":93333.2400000002,"duration":444.44400000000314,"noteNumber":83,"velocity":100,"programNumber":44},{"time":94222.1280000002,"duration":666.6659999999974,"noteNumber":71,"velocity":47,"programNumber":44},{"time":94888.7940000002,"duration":166.66650000000664,"noteNumber":76,"velocity":47,"programNumber":44},{"time":95111.0160000002,"duration":222.2219999999943,"noteNumber":74,"velocity":47,"programNumber":44},{"time":95333.2380000002,"duration":222.2219999999943,"noteNumber":73,"velocity":47,"programNumber":44},{"time":95555.4600000002,"duration":222.2219999999943,"noteNumber":71,"velocity":49,"programNumber":44},{"time":95777.68200000019,"duration":222.2219999999943,"noteNumber":69,"velocity":50,"programNumber":44},{"time":95999.90400000018,"duration":222.2219999999943,"noteNumber":74,"velocity":50,"programNumber":44},{"time":96444.34800000017,"duration":222.2219999999943,"noteNumber":78,"velocity":50,"programNumber":44},{"time":96888.79200000016,"duration":222.2219999999943,"noteNumber":74,"velocity":41,"programNumber":44},{"time":97777.68000000015,"duration":444.44400000000314,"noteNumber":71,"velocity":85,"programNumber":44},{"time":97777.68000000015,"duration":444.44400000000314,"noteNumber":79,"velocity":85,"programNumber":44},{"time":97777.68000000015,"duration":444.44400000000314,"noteNumber":62,"velocity":85,"programNumber":44},{"time":98444.34600000015,"duration":111.11100000000442,"noteNumber":74,"velocity":85,"programNumber":44},{"time":98666.56800000016,"duration":444.44400000000314,"noteNumber":79,"velocity":85,"programNumber":44},{"time":99333.23400000016,"duration":111.11100000000442,"noteNumber":74,"velocity":85,"programNumber":44},{"time":99555.45600000017,"duration":111.11100000000442,"noteNumber":79,"velocity":85,"programNumber":44},{"time":99777.67800000017,"duration":111.11100000000442,"noteNumber":74,"velocity":85,"programNumber":44},{"time":99999.90000000018,"duration":111.11100000000442,"noteNumber":79,"velocity":85,"programNumber":44},{"time":100222.12200000019,"duration":111.11100000000442,"noteNumber":83,"velocity":85,"programNumber":44},{"time":100444.3440000002,"duration":444.44400000000314,"noteNumber":86,"velocity":85,"programNumber":44},{"time":101333.23200000021,"duration":444.44400000000314,"noteNumber":84,"velocity":85,"programNumber":44},{"time":101999.8980000002,"duration":111.11100000000442,"noteNumber":81,"velocity":76,"programNumber":44},{"time":102222.12000000021,"duration":444.44400000000314,"noteNumber":84,"velocity":85,"programNumber":44},{"time":102888.78600000021,"duration":111.11100000000442,"noteNumber":81,"velocity":76,"programNumber":44},{"time":103111.00800000022,"duration":111.11100000000442,"noteNumber":84,"velocity":85,"programNumber":44},{"time":103333.23000000023,"duration":111.11100000000442,"noteNumber":81,"velocity":74,"programNumber":44},{"time":103555.45200000024,"duration":111.11100000000442,"noteNumber":78,"velocity":85,"programNumber":44},{"time":103777.67400000025,"duration":111.11100000000442,"noteNumber":81,"velocity":71,"programNumber":44},{"time":103999.89600000026,"duration":444.44400000000314,"noteNumber":74,"velocity":85,"programNumber":44},{"time":104888.78400000026,"duration":222.2219999999943,"noteNumber":71,"velocity":85,"programNumber":44},{"time":104888.78400000026,"duration":222.2219999999943,"noteNumber":79,"velocity":85,"programNumber":44},{"time":104888.78400000026,"duration":222.2219999999943,"noteNumber":62,"velocity":85,"programNumber":44},{"time":105333.22800000025,"duration":666.6659999999974,"noteNumber":79,"velocity":85,"programNumber":44},{"time":105999.89400000025,"duration":222.2219999999943,"noteNumber":83,"velocity":85,"programNumber":44},{"time":106222.11600000024,"duration":111.11100000000442,"noteNumber":81,"velocity":85,"programNumber":44},{"time":106444.33800000025,"duration":111.11100000000442,"noteNumber":79,"velocity":85,"programNumber":44},{"time":106666.56000000026,"duration":55.55550000000221,"noteNumber":79,"velocity":85,"programNumber":44},{"time":106722.11550000026,"duration":55.55550000000221,"noteNumber":81,"velocity":85,"programNumber":44},{"time":106777.67100000026,"duration":55.55550000000221,"noteNumber":79,"velocity":85,"programNumber":44},{"time":106833.22650000027,"duration":55.55550000000221,"noteNumber":81,"velocity":85,"programNumber":44},{"time":106888.78200000027,"duration":185.18499999999767,"noteNumber":78,"velocity":85,"programNumber":44},{"time":107111.00400000026,"duration":666.6659999999974,"noteNumber":78,"velocity":85,"programNumber":44},{"time":107777.67000000026,"duration":222.2219999999943,"noteNumber":81,"velocity":85,"programNumber":44},{"time":107999.89200000025,"duration":111.11100000000442,"noteNumber":84,"velocity":85,"programNumber":44},{"time":108222.11400000026,"duration":111.11100000000442,"noteNumber":78,"velocity":85,"programNumber":44},{"time":108444.33600000027,"duration":222.2219999999943,"noteNumber":81,"velocity":85,"programNumber":44},{"time":108666.55800000027,"duration":111.11100000000442,"noteNumber":79,"velocity":85,"programNumber":44},{"time":108888.78000000028,"duration":666.6659999999974,"noteNumber":79,"velocity":85,"programNumber":44},{"time":109555.44600000027,"duration":222.2219999999943,"noteNumber":83,"velocity":85,"programNumber":44},{"time":109777.66800000027,"duration":111.11100000000442,"noteNumber":81,"velocity":85,"programNumber":44},{"time":109999.89000000028,"duration":111.11100000000442,"noteNumber":79,"velocity":85,"programNumber":44},{"time":110222.11200000028,"duration":55.55550000000221,"noteNumber":79,"velocity":85,"programNumber":44},{"time":110277.66750000029,"duration":55.55550000000221,"noteNumber":81,"velocity":85,"programNumber":44},{"time":110333.22300000029,"duration":55.55550000000221,"noteNumber":79,"velocity":85,"programNumber":44},{"time":110388.77850000029,"duration":55.55550000000221,"noteNumber":81,"velocity":85,"programNumber":44},{"time":110444.3340000003,"duration":185.18499999999767,"noteNumber":78,"velocity":85,"programNumber":44},{"time":110666.55600000029,"duration":666.6659999999974,"noteNumber":78,"velocity":85,"programNumber":44},{"time":111333.22200000029,"duration":222.2219999999943,"noteNumber":81,"velocity":85,"programNumber":44},{"time":111555.44400000028,"duration":111.11100000000442,"noteNumber":84,"velocity":85,"programNumber":44},{"time":111777.66600000029,"duration":111.11100000000442,"noteNumber":78,"velocity":85,"programNumber":44},{"time":111999.8880000003,"duration":111.11100000000442,"noteNumber":79,"velocity":85,"programNumber":44},{"time":112222.1100000003,"duration":111.11100000000442,"noteNumber":79,"velocity":85,"programNumber":44},{"time":112444.33200000032,"duration":111.11100000000442,"noteNumber":79,"velocity":85,"programNumber":44},{"time":112555.44300000032,"duration":111.11100000000442,"noteNumber":78,"velocity":85,"programNumber":44},{"time":112666.55400000032,"duration":111.11100000000442,"noteNumber":76,"velocity":85,"programNumber":44},{"time":112777.66500000033,"duration":111.11100000000442,"noteNumber":78,"velocity":85,"programNumber":44},{"time":112888.77600000033,"duration":111.11100000000442,"noteNumber":79,"velocity":85,"programNumber":44},{"time":113110.99800000034,"duration":111.11100000000442,"noteNumber":79,"velocity":85,"programNumber":44},{"time":113333.22000000035,"duration":111.11100000000442,"noteNumber":83,"velocity":85,"programNumber":44},{"time":113444.33100000035,"duration":111.11100000000442,"noteNumber":81,"velocity":85,"programNumber":44},{"time":113555.44200000036,"duration":111.11100000000442,"noteNumber":79,"velocity":85,"programNumber":44},{"time":113666.55300000036,"duration":111.11100000000442,"noteNumber":81,"velocity":85,"programNumber":44},{"time":113777.66400000037,"duration":111.11100000000442,"noteNumber":83,"velocity":85,"programNumber":44},{"time":113999.88600000038,"duration":111.11100000000442,"noteNumber":83,"velocity":85,"programNumber":44},{"time":114222.10800000039,"duration":111.11100000000442,"noteNumber":86,"velocity":85,"programNumber":44},{"time":114333.21900000039,"duration":111.11100000000442,"noteNumber":84,"velocity":85,"programNumber":44},{"time":114444.3300000004,"duration":111.11100000000442,"noteNumber":83,"velocity":85,"programNumber":44},{"time":114555.4410000004,"duration":111.11100000000442,"noteNumber":84,"velocity":85,"programNumber":44},{"time":114666.5520000004,"duration":444.44400000000314,"noteNumber":86,"velocity":85,"programNumber":44},{"time":115555.44000000041,"duration":888.8880000000063,"noteNumber":74,"velocity":52,"programNumber":44},{"time":116444.32800000042,"duration":888.8880000000063,"noteNumber":76,"velocity":40,"programNumber":44},{"time":117333.21600000042,"duration":111.11100000000442,"noteNumber":74,"velocity":44,"programNumber":44},{"time":117444.32700000043,"duration":296.2960000000021,"noteNumber":72,"velocity":46,"programNumber":44},{"time":117777.66000000043,"duration":444.44400000000314,"noteNumber":72,"velocity":46,"programNumber":44},{"time":118222.10400000043,"duration":111.11100000000442,"noteNumber":72,"velocity":47,"programNumber":44},{"time":118333.21500000043,"duration":296.2960000000021,"noteNumber":71,"velocity":47,"programNumber":44},{"time":118666.54800000043,"duration":444.44400000000314,"noteNumber":71,"velocity":47,"programNumber":44},{"time":119110.99200000043,"duration":111.11100000000442,"noteNumber":71,"velocity":47,"programNumber":44},{"time":119222.10300000044,"duration":296.2960000000021,"noteNumber":69,"velocity":47,"programNumber":44},{"time":119555.43600000044,"duration":444.44400000000314,"noteNumber":69,"velocity":47,"programNumber":44},{"time":119999.88000000044,"duration":222.2219999999943,"noteNumber":67,"velocity":47,"programNumber":44},{"time":120222.10200000044,"duration":111.11100000000442,"noteNumber":66,"velocity":47,"programNumber":44},{"time":120444.32400000044,"duration":111.11100000000442,"noteNumber":64,"velocity":47,"programNumber":44},{"time":120666.54600000045,"duration":111.11100000000442,"noteNumber":66,"velocity":47,"programNumber":44},{"time":120888.76800000046,"duration":222.2219999999943,"noteNumber":67,"velocity":47,"programNumber":44},{"time":121333.21200000045,"duration":222.2219999999943,"noteNumber":69,"velocity":47,"programNumber":44},{"time":121777.65600000044,"duration":222.2219999999943,"noteNumber":71,"velocity":47,"programNumber":44},{"time":122666.54400000043,"duration":888.8880000000063,"noteNumber":74,"velocity":54,"programNumber":44},{"time":123555.43200000044,"duration":888.8880000000063,"noteNumber":76,"velocity":59,"programNumber":44},{"time":124444.32000000044,"duration":222.2219999999943,"noteNumber":74,"velocity":47,"programNumber":44},{"time":124666.54200000044,"duration":111.11100000000442,"noteNumber":72,"velocity":47,"programNumber":44},{"time":124888.76400000045,"duration":111.11100000000442,"noteNumber":72,"velocity":47,"programNumber":44},{"time":125110.98600000046,"duration":111.11100000000442,"noteNumber":72,"velocity":47,"programNumber":44},{"time":125333.20800000046,"duration":222.2219999999943,"noteNumber":72,"velocity":47,"programNumber":44},{"time":125555.43000000046,"duration":111.11100000000442,"noteNumber":71,"velocity":47,"programNumber":44},{"time":125777.65200000047,"duration":111.11100000000442,"noteNumber":71,"velocity":47,"programNumber":44},{"time":125999.87400000048,"duration":111.11100000000442,"noteNumber":71,"velocity":47,"programNumber":44},{"time":126222.09600000049,"duration":222.2219999999943,"noteNumber":71,"velocity":47,"programNumber":44},{"time":126444.31800000048,"duration":111.11100000000442,"noteNumber":69,"velocity":47,"programNumber":44},{"time":126666.54000000049,"duration":166.66650000000664,"noteNumber":69,"velocity":47,"programNumber":44},{"time":126888.7620000005,"duration":166.66650000000664,"noteNumber":69,"velocity":47,"programNumber":44},{"time":127110.9840000005,"duration":222.2219999999943,"noteNumber":67,"velocity":47,"programNumber":44},{"time":127333.2060000005,"duration":222.2219999999943,"noteNumber":66,"velocity":47,"programNumber":44},{"time":127555.4280000005,"duration":222.2219999999943,"noteNumber":64,"velocity":47,"programNumber":44},{"time":127777.65000000049,"duration":222.2219999999943,"noteNumber":66,"velocity":47,"programNumber":44},{"time":127999.87200000048,"duration":1111.1100000000006,"noteNumber":67,"velocity":95,"programNumber":44},{"time":127999.87200000048,"duration":1111.1100000000006,"noteNumber":55,"velocity":95,"programNumber":44},{"time":129110.98200000048,"duration":55.55550000000221,"noteNumber":67,"velocity":61,"programNumber":44},{"time":129166.53750000049,"duration":55.55550000000221,"noteNumber":69,"velocity":61,"programNumber":44},{"time":129222.09300000049,"duration":55.55550000000221,"noteNumber":66,"velocity":61,"programNumber":44},{"time":129277.64850000049,"duration":55.55550000000221,"noteNumber":67,"velocity":61,"programNumber":44},{"time":129333.20400000049,"duration":222.2219999999943,"noteNumber":69,"velocity":61,"programNumber":44},{"time":129555.42600000049,"duration":222.2219999999943,"noteNumber":66,"velocity":61,"programNumber":44},{"time":129777.64800000048,"duration":1111.1100000000006,"noteNumber":71,"velocity":85,"programNumber":44},{"time":130888.75800000048,"duration":55.55550000000221,"noteNumber":71,"velocity":61,"programNumber":44},{"time":130944.31350000048,"duration":55.55550000000221,"noteNumber":72,"velocity":61,"programNumber":44},{"time":130999.86900000049,"duration":55.55550000000221,"noteNumber":69,"velocity":61,"programNumber":44},{"time":131055.42450000049,"duration":55.55549999998766,"noteNumber":71,"velocity":61,"programNumber":44},{"time":131110.98000000048,"duration":222.22200000000885,"noteNumber":72,"velocity":61,"programNumber":44},{"time":131333.20200000048,"duration":222.22200000000885,"noteNumber":69,"velocity":61,"programNumber":44},{"time":131555.4240000005,"duration":74.07399999999325,"noteNumber":74,"velocity":46,"programNumber":44},{"time":131666.5350000005,"duration":74.07399999999325,"noteNumber":74,"velocity":46,"programNumber":44},{"time":131777.6460000005,"duration":74.07399999999325,"noteNumber":74,"velocity":47,"programNumber":44},{"time":131888.7570000005,"duration":74.07399999999325,"noteNumber":74,"velocity":47,"programNumber":44},{"time":131999.8680000005,"duration":74.07399999999325,"noteNumber":74,"velocity":49,"programNumber":44},{"time":132110.97900000052,"duration":74.07399999999325,"noteNumber":74,"velocity":50,"programNumber":44},{"time":132222.09000000052,"duration":74.07399999999325,"noteNumber":74,"velocity":50,"programNumber":44},{"time":132333.20100000052,"duration":74.07399999999325,"noteNumber":74,"velocity":52,"programNumber":44},{"time":132444.31200000053,"duration":74.07399999999325,"noteNumber":76,"velocity":53,"programNumber":44},{"time":132555.42300000053,"duration":74.07399999999325,"noteNumber":76,"velocity":53,"programNumber":44},{"time":132666.53400000054,"duration":74.07399999999325,"noteNumber":76,"velocity":55,"programNumber":44},{"time":132777.64500000054,"duration":74.07399999999325,"noteNumber":76,"velocity":56,"programNumber":44},{"time":132888.75600000055,"duration":74.07399999999325,"noteNumber":78,"velocity":56,"programNumber":44},{"time":132999.86700000055,"duration":74.07399999999325,"noteNumber":78,"velocity":58,"programNumber":44},{"time":133110.97800000056,"duration":74.07399999999325,"noteNumber":78,"velocity":58,"programNumber":44},{"time":133222.08900000056,"duration":74.07399999999325,"noteNumber":78,"velocity":59,"programNumber":44},{"time":133333.20000000056,"duration":74.07399999999325,"noteNumber":79,"velocity":61,"programNumber":44},{"time":133444.31100000057,"duration":74.07399999999325,"noteNumber":79,"velocity":61,"programNumber":44},{"time":133555.42200000057,"duration":74.07399999999325,"noteNumber":79,"velocity":62,"programNumber":44},{"time":133666.53300000058,"duration":74.07399999999325,"noteNumber":79,"velocity":64,"programNumber":44},{"time":133777.64400000058,"duration":74.07399999999325,"noteNumber":81,"velocity":64,"programNumber":44},{"time":133888.7550000006,"duration":74.07399999999325,"noteNumber":81,"velocity":65,"programNumber":44},{"time":133999.8660000006,"duration":74.07399999999325,"noteNumber":81,"velocity":67,"programNumber":44},{"time":134110.9770000006,"duration":74.07399999999325,"noteNumber":81,"velocity":67,"programNumber":44},{"time":134222.0880000006,"duration":74.07399999999325,"noteNumber":83,"velocity":68,"programNumber":44},{"time":134333.1990000006,"duration":74.07399999999325,"noteNumber":83,"velocity":68,"programNumber":44},{"time":134444.3100000006,"duration":74.07399999999325,"noteNumber":83,"velocity":70,"programNumber":44},{"time":134555.4210000006,"duration":74.07399999999325,"noteNumber":83,"velocity":71,"programNumber":44},{"time":134666.53200000062,"duration":74.07399999999325,"noteNumber":85,"velocity":71,"programNumber":44},{"time":134777.64300000062,"duration":74.07399999999325,"noteNumber":85,"velocity":73,"programNumber":44},{"time":134888.75400000063,"duration":74.07399999999325,"noteNumber":85,"velocity":74,"programNumber":44},{"time":134999.86500000063,"duration":74.07399999999325,"noteNumber":85,"velocity":74,"programNumber":44},{"time":135110.97600000064,"duration":666.6659999999974,"noteNumber":86,"velocity":92,"programNumber":44},{"time":135777.64200000063,"duration":222.22200000000885,"noteNumber":81,"velocity":85,"programNumber":44},{"time":135999.86400000064,"duration":333.33300000001327,"noteNumber":85,"velocity":85,"programNumber":44},{"time":136333.19700000065,"duration":111.11100000000442,"noteNumber":81,"velocity":85,"programNumber":44},{"time":136444.30800000066,"duration":333.33300000001327,"noteNumber":85,"velocity":85,"programNumber":44},{"time":136777.64100000067,"duration":111.11100000000442,"noteNumber":81,"velocity":85,"programNumber":44},{"time":136888.75200000068,"duration":666.6659999999974,"noteNumber":86,"velocity":98,"programNumber":44},{"time":137555.41800000067,"duration":222.22200000000885,"noteNumber":81,"velocity":85,"programNumber":44},{"time":137777.64000000068,"duration":333.33300000001327,"noteNumber":85,"velocity":85,"programNumber":44},{"time":138110.9730000007,"duration":111.11100000000442,"noteNumber":81,"velocity":85,"programNumber":44},{"time":138222.0840000007,"duration":333.33300000001327,"noteNumber":85,"velocity":85,"programNumber":44},{"time":138555.4170000007,"duration":111.11100000000442,"noteNumber":81,"velocity":85,"programNumber":44},{"time":138666.52800000072,"duration":111.11100000000442,"noteNumber":86,"velocity":85,"programNumber":44},{"time":138888.75000000073,"duration":333.33300000001327,"noteNumber":86,"velocity":98,"programNumber":44},{"time":138888.75000000073,"duration":333.33300000001327,"noteNumber":78,"velocity":98,"programNumber":44},{"time":139333.19400000075,"duration":333.33300000001327,"noteNumber":86,"velocity":85,"programNumber":44},{"time":139333.19400000075,"duration":333.33300000001327,"noteNumber":78,"velocity":85,"programNumber":44},{"time":139777.63800000076,"duration":333.33300000001327,"noteNumber":86,"velocity":85,"programNumber":44},{"time":139777.63800000076,"duration":333.33300000001327,"noteNumber":78,"velocity":85,"programNumber":44},{"time":140222.08200000078,"duration":222.22200000000885,"noteNumber":78,"velocity":85,"programNumber":44},{"time":140444.3040000008,"duration":111.11100000000442,"noteNumber":76,"velocity":85,"programNumber":44},{"time":140222.08200000078,"duration":333.33300000001327,"noteNumber":86,"velocity":85,"programNumber":44},{"time":140666.5260000008,"duration":333.33300000001327,"noteNumber":86,"velocity":85,"programNumber":44},{"time":140666.5260000008,"duration":333.33300000001327,"noteNumber":76,"velocity":85,"programNumber":44},{"time":141110.97000000082,"duration":333.33300000001327,"noteNumber":86,"velocity":85,"programNumber":44},{"time":141110.97000000082,"duration":333.33300000001327,"noteNumber":76,"velocity":85,"programNumber":44},{"time":141555.41400000083,"duration":333.33300000001327,"noteNumber":86,"velocity":85,"programNumber":44},{"time":141555.41400000083,"duration":333.33300000001327,"noteNumber":76,"velocity":85,"programNumber":44},{"time":141999.85800000085,"duration":222.22200000000885,"noteNumber":86,"velocity":85,"programNumber":44},{"time":141999.85800000085,"duration":222.22200000000885,"noteNumber":76,"velocity":85,"programNumber":44},{"time":142222.08000000086,"duration":166.66649999999208,"noteNumber":85,"velocity":97,"programNumber":44},{"time":142222.08000000086,"duration":166.66649999999208,"noteNumber":76,"velocity":97,"programNumber":44},{"time":142444.30200000084,"duration":166.66649999999208,"noteNumber":81,"velocity":85,"programNumber":44},{"time":142666.52400000082,"duration":166.66649999999208,"noteNumber":86,"velocity":85,"programNumber":44},{"time":142888.7460000008,"duration":166.66649999999208,"noteNumber":81,"velocity":85,"programNumber":44},{"time":143110.96800000078,"duration":166.66649999999208,"noteNumber":85,"velocity":85,"programNumber":44},{"time":143333.19000000076,"duration":166.66649999999208,"noteNumber":81,"velocity":85,"programNumber":44},{"time":143555.41200000074,"duration":166.66649999999208,"noteNumber":86,"velocity":85,"programNumber":44},{"time":143777.63400000072,"duration":166.66649999999208,"noteNumber":81,"velocity":85,"programNumber":44},{"time":143999.8560000007,"duration":166.66649999999208,"noteNumber":85,"velocity":97,"programNumber":44},{"time":144222.07800000068,"duration":166.66649999999208,"noteNumber":69,"velocity":85,"programNumber":44},{"time":144444.30000000066,"duration":166.66649999999208,"noteNumber":69,"velocity":85,"programNumber":44},{"time":144666.52200000064,"duration":166.66649999999208,"noteNumber":69,"velocity":85,"programNumber":44},{"time":144888.74400000062,"duration":444.4439999999886,"noteNumber":69,"velocity":85,"programNumber":44},{"time":145777.6320000006,"duration":666.6659999999974,"noteNumber":81,"velocity":55,"programNumber":44},{"time":146444.2980000006,"duration":74.07399999999325,"noteNumber":79,"velocity":55,"programNumber":44},{"time":146518.37200000059,"duration":74.07399999999325,"noteNumber":78,"velocity":55,"programNumber":44},{"time":146592.44600000058,"duration":74.07399999999325,"noteNumber":76,"velocity":55,"programNumber":44},{"time":146666.52000000057,"duration":222.22200000000885,"noteNumber":74,"velocity":55,"programNumber":44},{"time":147110.9640000006,"duration":222.22200000000885,"noteNumber":83,"velocity":55,"programNumber":44},{"time":147555.4080000006,"duration":222.22200000000885,"noteNumber":79,"velocity":55,"programNumber":44},{"time":147999.85200000062,"duration":222.22200000000885,"noteNumber":76,"velocity":55,"programNumber":44},{"time":148444.29600000064,"duration":222.22200000000885,"noteNumber":81,"velocity":55,"programNumber":44},{"time":149333.18400000065,"duration":666.6659999999974,"noteNumber":78,"velocity":55,"programNumber":44},{"time":149999.85000000065,"duration":74.07399999999325,"noteNumber":76,"velocity":55,"programNumber":44},{"time":150073.92400000064,"duration":74.07399999999325,"noteNumber":74,"velocity":55,"programNumber":44},{"time":150147.99800000063,"duration":74.07399999999325,"noteNumber":73,"velocity":55,"programNumber":44},{"time":150222.07200000063,"duration":222.22200000000885,"noteNumber":71,"velocity":55,"programNumber":44},{"time":150666.51600000064,"duration":222.22200000000885,"noteNumber":79,"velocity":55,"programNumber":44},{"time":151110.96000000066,"duration":888.8880000000063,"noteNumber":78,"velocity":55,"programNumber":44},{"time":151999.84800000067,"duration":444.4439999999886,"noteNumber":76,"velocity":43,"programNumber":44},{"time":153110.95800000065,"duration":111.11100000000442,"noteNumber":81,"velocity":55,"programNumber":44},{"time":153333.18000000066,"duration":111.11100000000442,"noteNumber":81,"velocity":55,"programNumber":44},{"time":153555.40200000067,"duration":111.11100000000442,"noteNumber":81,"velocity":55,"programNumber":44},{"time":153777.62400000068,"duration":111.11100000000442,"noteNumber":81,"velocity":55,"programNumber":44},{"time":153999.8460000007,"duration":111.11100000000442,"noteNumber":81,"velocity":55,"programNumber":44},{"time":154222.0680000007,"duration":111.11100000000442,"noteNumber":81,"velocity":55,"programNumber":44},{"time":154444.2900000007,"duration":111.11100000000442,"noteNumber":81,"velocity":55,"programNumber":44},{"time":154666.51200000072,"duration":111.11100000000442,"noteNumber":81,"velocity":55,"programNumber":44},{"time":154888.73400000072,"duration":111.11100000000442,"noteNumber":81,"velocity":55,"programNumber":44},{"time":155110.95600000073,"duration":111.11100000000442,"noteNumber":81,"velocity":55,"programNumber":44},{"time":155333.17800000074,"duration":111.11100000000442,"noteNumber":81,"velocity":55,"programNumber":44},{"time":155555.40000000075,"duration":111.11100000000442,"noteNumber":81,"velocity":55,"programNumber":44},{"time":155777.62200000076,"duration":111.11100000000442,"noteNumber":81,"velocity":55,"programNumber":44},{"time":155999.84400000077,"duration":111.11100000000442,"noteNumber":83,"velocity":55,"programNumber":44},{"time":156222.06600000078,"duration":111.11100000000442,"noteNumber":85,"velocity":55,"programNumber":44},{"time":156444.2880000008,"duration":222.22200000000885,"noteNumber":85,"velocity":55,"programNumber":44},{"time":156666.5100000008,"duration":222.22200000000885,"noteNumber":86,"velocity":55,"programNumber":44},{"time":157110.9540000008,"duration":111.11100000000442,"noteNumber":83,"velocity":55,"programNumber":44},{"time":157333.17600000082,"duration":222.22200000000885,"noteNumber":83,"velocity":55,"programNumber":44},{"time":157555.39800000083,"duration":222.22200000000885,"noteNumber":81,"velocity":55,"programNumber":44},{"time":157999.84200000085,"duration":166.66649999999208,"noteNumber":73,"velocity":55,"programNumber":44},{"time":158222.06400000083,"duration":444.4439999999886,"noteNumber":74,"velocity":55,"programNumber":44},{"time":158888.73000000083,"duration":111.11100000000442,"noteNumber":81,"velocity":55,"programNumber":44},{"time":159110.95200000083,"duration":222.22200000000885,"noteNumber":86,"velocity":55,"programNumber":44},{"time":159333.17400000084,"duration":222.22200000000885,"noteNumber":85,"velocity":55,"programNumber":44},{"time":159555.39600000085,"duration":222.22200000000885,"noteNumber":83,"velocity":55,"programNumber":44},{"time":159777.61800000086,"duration":222.22200000000885,"noteNumber":81,"velocity":55,"programNumber":44},{"time":159999.84000000087,"duration":55.55549999998766,"noteNumber":83,"velocity":55,"programNumber":44},{"time":160055.39550000086,"duration":55.55549999998766,"noteNumber":85,"velocity":55,"programNumber":44},{"time":160110.95100000084,"duration":55.55549999998766,"noteNumber":83,"velocity":55,"programNumber":44},{"time":160166.50650000083,"duration":55.55549999998766,"noteNumber":85,"velocity":55,"programNumber":44},{"time":160222.06200000082,"duration":222.22200000000885,"noteNumber":81,"velocity":55,"programNumber":44},{"time":160666.50600000084,"duration":111.11100000000442,"noteNumber":81,"velocity":55,"programNumber":44},{"time":160888.72800000085,"duration":111.11100000000442,"noteNumber":81,"velocity":55,"programNumber":44},{"time":161110.95000000086,"duration":111.11100000000442,"noteNumber":81,"velocity":55,"programNumber":44},{"time":161333.17200000086,"duration":111.11100000000442,"noteNumber":81,"velocity":55,"programNumber":44},{"time":161555.39400000087,"duration":111.11100000000442,"noteNumber":81,"velocity":55,"programNumber":44},{"time":161777.61600000088,"duration":55.55549999998766,"noteNumber":83,"velocity":55,"programNumber":44},{"time":161833.17150000087,"duration":55.55549999998766,"noteNumber":85,"velocity":55,"programNumber":44},{"time":161888.72700000086,"duration":55.55549999998766,"noteNumber":83,"velocity":55,"programNumber":44},{"time":161944.28250000085,"duration":55.55549999998766,"noteNumber":85,"velocity":55,"programNumber":44},{"time":161999.83800000083,"duration":222.22200000000885,"noteNumber":81,"velocity":55,"programNumber":44},{"time":162444.28200000085,"duration":166.66649999999208,"noteNumber":81,"velocity":55,"programNumber":44},{"time":162666.50400000083,"duration":222.22200000000885,"noteNumber":86,"velocity":55,"programNumber":44},{"time":162888.72600000084,"duration":222.22200000000885,"noteNumber":85,"velocity":55,"programNumber":44},{"time":163110.94800000085,"duration":222.22200000000885,"noteNumber":83,"velocity":55,"programNumber":44},{"time":163333.17000000086,"duration":222.22200000000885,"noteNumber":81,"velocity":55,"programNumber":44},{"time":163555.39200000087,"duration":55.55549999998766,"noteNumber":83,"velocity":55,"programNumber":44},{"time":163610.94750000085,"duration":55.55549999998766,"noteNumber":85,"velocity":55,"programNumber":44},{"time":163666.50300000084,"duration":55.55549999998766,"noteNumber":83,"velocity":55,"programNumber":44},{"time":163722.05850000083,"duration":55.55549999998766,"noteNumber":85,"velocity":55,"programNumber":44},{"time":163777.61400000082,"duration":222.22200000000885,"noteNumber":81,"velocity":55,"programNumber":44},{"time":164222.05800000083,"duration":111.11100000000442,"noteNumber":81,"velocity":55,"programNumber":44},{"time":164444.28000000084,"duration":111.11100000000442,"noteNumber":81,"velocity":55,"programNumber":44},{"time":164666.50200000085,"duration":111.11100000000442,"noteNumber":81,"velocity":55,"programNumber":44},{"time":164888.72400000086,"duration":111.11100000000442,"noteNumber":81,"velocity":55,"programNumber":44},{"time":165110.94600000087,"duration":111.11100000000442,"noteNumber":81,"velocity":55,"programNumber":44},{"time":165333.16800000088,"duration":55.55549999998766,"noteNumber":83,"velocity":55,"programNumber":44},{"time":165388.72350000087,"duration":55.55549999998766,"noteNumber":85,"velocity":55,"programNumber":44},{"time":165444.27900000085,"duration":55.55549999998766,"noteNumber":83,"velocity":55,"programNumber":44},{"time":165499.83450000084,"duration":55.55549999998766,"noteNumber":85,"velocity":55,"programNumber":44},{"time":165555.39000000083,"duration":222.22200000000885,"noteNumber":81,"velocity":55,"programNumber":44},{"time":166222.05600000083,"duration":629.6289999999863,"noteNumber":83,"velocity":94,"programNumber":44},{"time":166222.05600000083,"duration":629.6289999999863,"noteNumber":71,"velocity":94,"programNumber":44},{"time":166888.72200000082,"duration":74.07399999999325,"noteNumber":81,"velocity":83,"programNumber":44},{"time":166962.79600000082,"duration":74.07399999999325,"noteNumber":79,"velocity":83,"programNumber":44},{"time":167036.8700000008,"duration":74.07399999999325,"noteNumber":78,"velocity":83,"programNumber":44},{"time":167110.9440000008,"duration":444.4439999999886,"noteNumber":79,"velocity":83,"programNumber":44},{"time":167999.83200000078,"duration":629.6289999999863,"noteNumber":69,"velocity":85,"programNumber":44},{"time":167999.83200000078,"duration":629.6289999999863,"noteNumber":81,"velocity":85,"programNumber":44},{"time":168666.49800000078,"duration":74.07399999999325,"noteNumber":79,"velocity":85,"programNumber":44},{"time":168740.57200000077,"duration":74.07399999999325,"noteNumber":78,"velocity":85,"programNumber":44},{"time":168814.64600000076,"duration":74.07399999999325,"noteNumber":76,"velocity":85,"programNumber":44},{"time":168888.72000000076,"duration":444.4439999999886,"noteNumber":78,"velocity":85,"programNumber":44},{"time":169777.60800000074,"duration":222.22200000000885,"noteNumber":83,"velocity":79,"programNumber":44},{"time":169999.83000000074,"duration":111.11100000000442,"noteNumber":85,"velocity":80,"programNumber":44},{"time":170110.94100000075,"duration":111.11100000000442,"noteNumber":86,"velocity":82,"programNumber":44},{"time":170222.05200000075,"duration":166.66649999999208,"noteNumber":85,"velocity":82,"programNumber":44},{"time":170444.27400000073,"duration":111.11100000000442,"noteNumber":83,"velocity":82,"programNumber":44},{"time":170666.49600000074,"duration":222.22200000000885,"noteNumber":83,"velocity":83,"programNumber":44},{"time":170888.71800000075,"duration":166.66649999999208,"noteNumber":81,"velocity":86,"programNumber":44},{"time":171110.94000000073,"duration":111.11100000000442,"noteNumber":78,"velocity":86,"programNumber":44},{"time":171333.16200000074,"duration":111.11100000000442,"noteNumber":81,"velocity":88,"programNumber":44},{"time":171555.38400000075,"duration":222.22200000000885,"noteNumber":81,"velocity":88,"programNumber":44},{"time":171777.60600000076,"duration":166.66649999999208,"noteNumber":79,"velocity":83,"programNumber":44},{"time":171999.82800000074,"duration":111.11100000000442,"noteNumber":78,"velocity":79,"programNumber":44},{"time":172222.05000000075,"duration":111.11100000000442,"noteNumber":76,"velocity":76,"programNumber":44},{"time":172444.27200000075,"duration":444.4439999999886,"noteNumber":74,"velocity":85,"programNumber":44},{"time":173110.93800000075,"duration":111.11100000000442,"noteNumber":81,"velocity":53,"programNumber":44},{"time":173333.16000000076,"duration":222.22200000000885,"noteNumber":86,"velocity":53,"programNumber":44},{"time":173555.38200000077,"duration":222.22200000000885,"noteNumber":85,"velocity":53,"programNumber":44},{"time":173777.60400000078,"duration":222.22200000000885,"noteNumber":83,"velocity":53,"programNumber":44},{"time":173999.8260000008,"duration":222.22200000000885,"noteNumber":81,"velocity":53,"programNumber":44},{"time":174222.0480000008,"duration":55.55549999998766,"noteNumber":83,"velocity":55,"programNumber":44},{"time":174277.60350000078,"duration":55.55549999998766,"noteNumber":85,"velocity":55,"programNumber":44},{"time":174333.15900000077,"duration":55.55549999998766,"noteNumber":83,"velocity":55,"programNumber":44},{"time":174388.71450000076,"duration":55.55549999998766,"noteNumber":85,"velocity":55,"programNumber":44},{"time":174444.27000000075,"duration":222.22200000000885,"noteNumber":81,"velocity":55,"programNumber":44},{"time":174888.71400000076,"duration":111.11100000000442,"noteNumber":81,"velocity":55,"programNumber":44},{"time":175110.93600000077,"duration":111.11100000000442,"noteNumber":81,"velocity":55,"programNumber":44},{"time":175333.15800000078,"duration":111.11100000000442,"noteNumber":81,"velocity":55,"programNumber":44},{"time":175555.3800000008,"duration":111.11100000000442,"noteNumber":81,"velocity":55,"programNumber":44},{"time":175777.6020000008,"duration":111.11100000000442,"noteNumber":81,"velocity":55,"programNumber":44},{"time":175999.8240000008,"duration":55.55549999998766,"noteNumber":83,"velocity":55,"programNumber":44},{"time":176055.3795000008,"duration":55.55549999998766,"noteNumber":85,"velocity":55,"programNumber":44},{"time":176110.93500000078,"duration":55.55549999998766,"noteNumber":83,"velocity":55,"programNumber":44},{"time":176166.49050000077,"duration":55.55549999998766,"noteNumber":85,"velocity":55,"programNumber":44},{"time":176222.04600000076,"duration":222.22200000000885,"noteNumber":81,"velocity":55,"programNumber":44},{"time":176666.49000000078,"duration":166.66649999999208,"noteNumber":81,"velocity":55,"programNumber":44},{"time":176888.71200000076,"duration":222.22200000000885,"noteNumber":86,"velocity":55,"programNumber":44},{"time":177110.93400000077,"duration":222.22200000000885,"noteNumber":85,"velocity":55,"programNumber":44},{"time":177333.15600000077,"duration":222.22200000000885,"noteNumber":83,"velocity":55,"programNumber":44},{"time":177555.37800000078,"duration":222.22200000000885,"noteNumber":81,"velocity":55,"programNumber":44},{"time":177777.6000000008,"duration":55.55549999998766,"noteNumber":83,"velocity":55,"programNumber":44},{"time":177833.15550000078,"duration":55.55549999998766,"noteNumber":85,"velocity":55,"programNumber":44},{"time":177888.71100000077,"duration":55.55549999998766,"noteNumber":83,"velocity":55,"programNumber":44},{"time":177944.26650000075,"duration":55.55549999998766,"noteNumber":85,"velocity":55,"programNumber":44},{"time":177999.82200000074,"duration":222.22200000000885,"noteNumber":81,"velocity":55,"programNumber":44},{"time":178444.26600000076,"duration":111.11100000000442,"noteNumber":81,"velocity":55,"programNumber":44},{"time":178666.48800000077,"duration":111.11100000000442,"noteNumber":81,"velocity":55,"programNumber":44},{"time":178888.71000000078,"duration":111.11100000000442,"noteNumber":81,"velocity":55,"programNumber":44},{"time":179110.9320000008,"duration":111.11100000000442,"noteNumber":81,"velocity":55,"programNumber":44},{"time":179333.1540000008,"duration":111.11100000000442,"noteNumber":81,"velocity":55,"programNumber":44},{"time":179555.3760000008,"duration":55.55549999998766,"noteNumber":83,"velocity":59,"programNumber":44},{"time":179610.9315000008,"duration":55.55549999998766,"noteNumber":85,"velocity":59,"programNumber":44},{"time":179666.48700000078,"duration":55.55549999998766,"noteNumber":83,"velocity":59,"programNumber":44},{"time":179722.04250000077,"duration":55.55549999998766,"noteNumber":85,"velocity":59,"programNumber":44},{"time":179777.59800000075,"duration":222.22200000000885,"noteNumber":81,"velocity":59,"programNumber":44},{"time":180444.26400000075,"duration":629.6289999999863,"noteNumber":83,"velocity":85,"programNumber":44},{"time":180444.26400000075,"duration":629.6289999999863,"noteNumber":71,"velocity":85,"programNumber":44},{"time":181110.93000000075,"duration":74.07399999999325,"noteNumber":81,"velocity":85,"programNumber":44},{"time":181185.00400000074,"duration":74.07399999999325,"noteNumber":79,"velocity":85,"programNumber":44},{"time":181259.07800000074,"duration":74.07399999999325,"noteNumber":78,"velocity":85,"programNumber":44},{"time":181333.15200000073,"duration":444.4439999999886,"noteNumber":79,"velocity":85,"programNumber":44},{"time":182222.0400000007,"duration":629.6289999999863,"noteNumber":69,"velocity":85,"programNumber":44},{"time":182222.0400000007,"duration":629.6289999999863,"noteNumber":81,"velocity":85,"programNumber":44},{"time":182888.7060000007,"duration":74.07399999999325,"noteNumber":79,"velocity":85,"programNumber":44},{"time":182962.7800000007,"duration":74.07399999999325,"noteNumber":78,"velocity":85,"programNumber":44},{"time":183036.8540000007,"duration":74.07399999999325,"noteNumber":76,"velocity":85,"programNumber":44},{"time":183110.92800000068,"duration":444.4439999999886,"noteNumber":78,"velocity":85,"programNumber":44},{"time":183999.81600000066,"duration":222.22200000000885,"noteNumber":83,"velocity":85,"programNumber":44},{"time":184222.03800000067,"duration":111.11100000000442,"noteNumber":85,"velocity":85,"programNumber":44},{"time":184333.14900000067,"duration":111.11100000000442,"noteNumber":86,"velocity":85,"programNumber":44},{"time":184444.26000000068,"duration":166.66649999999208,"noteNumber":85,"velocity":85,"programNumber":44},{"time":184666.48200000066,"duration":111.11100000000442,"noteNumber":83,"velocity":85,"programNumber":44},{"time":184888.70400000067,"duration":222.22200000000885,"noteNumber":83,"velocity":95,"programNumber":44},{"time":185110.92600000068,"duration":166.66649999999208,"noteNumber":81,"velocity":85,"programNumber":44},{"time":185333.14800000066,"duration":111.11100000000442,"noteNumber":78,"velocity":85,"programNumber":44},{"time":185555.37000000066,"duration":111.11100000000442,"noteNumber":81,"velocity":85,"programNumber":44},{"time":185777.59200000067,"duration":222.22200000000885,"noteNumber":81,"velocity":85,"programNumber":44},{"time":185999.81400000068,"duration":166.66649999999208,"noteNumber":79,"velocity":85,"programNumber":44},{"time":186222.03600000066,"duration":111.11100000000442,"noteNumber":78,"velocity":85,"programNumber":44},{"time":186444.25800000067,"duration":111.11100000000442,"noteNumber":76,"velocity":85,"programNumber":44},{"time":186666.48000000068,"duration":166.66649999999208,"noteNumber":74,"velocity":85,"programNumber":44},{"time":186888.70200000066,"duration":166.66649999999208,"noteNumber":69,"velocity":85,"programNumber":44},{"time":187110.92400000064,"duration":166.66649999999208,"noteNumber":71,"velocity":85,"programNumber":44},{"time":187333.14600000062,"duration":166.66649999999208,"noteNumber":73,"velocity":85,"programNumber":44},{"time":187555.3680000006,"duration":111.11100000000442,"noteNumber":74,"velocity":85,"programNumber":44},{"time":187777.5900000006,"duration":111.11100000000442,"noteNumber":74,"velocity":85,"programNumber":44},{"time":187999.81200000062,"duration":55.55549999998766,"noteNumber":76,"velocity":85,"programNumber":44},{"time":188055.3675000006,"duration":55.55549999998766,"noteNumber":78,"velocity":85,"programNumber":44},{"time":188110.9230000006,"duration":55.55549999998766,"noteNumber":76,"velocity":85,"programNumber":44},{"time":188166.47850000058,"duration":55.55549999998766,"noteNumber":78,"velocity":85,"programNumber":44},{"time":188222.03400000057,"duration":111.11100000000442,"noteNumber":74,"velocity":85,"programNumber":44},{"time":188333.14500000057,"duration":111.11100000000442,"noteNumber":76,"velocity":85,"programNumber":44},{"time":188444.25600000058,"duration":222.22200000000885,"noteNumber":78,"velocity":85,"programNumber":44},{"time":188666.47800000058,"duration":166.66649999999208,"noteNumber":73,"velocity":85,"programNumber":44},{"time":188888.70000000056,"duration":166.66649999999208,"noteNumber":74,"velocity":85,"programNumber":44},{"time":189110.92200000054,"duration":166.66649999999208,"noteNumber":76,"velocity":85,"programNumber":44},{"time":189333.14400000052,"duration":166.66649999999208,"noteNumber":78,"velocity":85,"programNumber":44},{"time":189555.3660000005,"duration":166.66649999999208,"noteNumber":78,"velocity":85,"programNumber":44},{"time":189777.58800000048,"duration":55.55549999998766,"noteNumber":79,"velocity":85,"programNumber":44},{"time":189833.14350000047,"duration":55.55549999998766,"noteNumber":81,"velocity":86,"programNumber":44},{"time":189888.69900000046,"duration":55.55549999998766,"noteNumber":79,"velocity":86,"programNumber":44},{"time":189944.25450000045,"duration":55.55549999998766,"noteNumber":81,"velocity":86,"programNumber":44},{"time":189999.81000000043,"duration":111.11100000000442,"noteNumber":78,"velocity":86,"programNumber":44},{"time":190110.92100000044,"duration":111.11100000000442,"noteNumber":79,"velocity":88,"programNumber":44},{"time":190222.03200000044,"duration":166.66649999999208,"noteNumber":81,"velocity":88,"programNumber":44},{"time":190444.25400000042,"duration":166.66649999999208,"noteNumber":81,"velocity":88,"programNumber":44},{"time":190666.4760000004,"duration":55.55549999998766,"noteNumber":82,"velocity":89,"programNumber":44},{"time":190722.0315000004,"duration":55.55549999998766,"noteNumber":83,"velocity":91,"programNumber":44},{"time":190777.58700000038,"duration":55.55549999998766,"noteNumber":82,"velocity":91,"programNumber":44},{"time":190833.14250000037,"duration":55.55549999998766,"noteNumber":83,"velocity":91,"programNumber":44},{"time":190888.69800000035,"duration":111.11100000000442,"noteNumber":80,"velocity":92,"programNumber":44},{"time":190999.80900000036,"duration":111.11100000000442,"noteNumber":82,"velocity":94,"programNumber":44},{"time":191110.92000000036,"duration":444.4439999999886,"noteNumber":83,"velocity":98,"programNumber":44},{"time":191999.80800000034,"duration":666.6659999999974,"noteNumber":71,"velocity":40,"programNumber":44},{"time":192666.47400000034,"duration":166.66649999999208,"noteNumber":76,"velocity":47,"programNumber":44},{"time":192888.69600000032,"duration":222.22200000000885,"noteNumber":74,"velocity":49,"programNumber":44},{"time":193110.91800000033,"duration":222.22200000000885,"noteNumber":73,"velocity":49,"programNumber":44},{"time":193333.14000000033,"duration":222.22200000000885,"noteNumber":71,"velocity":43,"programNumber":44},{"time":193555.36200000034,"duration":222.22200000000885,"noteNumber":69,"velocity":41,"programNumber":44},{"time":193777.58400000035,"duration":222.22200000000885,"noteNumber":74,"velocity":40,"programNumber":44},{"time":194222.02800000037,"duration":222.22200000000885,"noteNumber":78,"velocity":59,"programNumber":44},{"time":194666.4720000004,"duration":222.22200000000885,"noteNumber":74,"velocity":57,"programNumber":44},{"time":195555.3600000004,"duration":444.4439999999886,"noteNumber":74,"velocity":100,"programNumber":44},{"time":195555.3600000004,"duration":444.4439999999886,"noteNumber":62,"velocity":100,"programNumber":44},{"time":196222.0260000004,"duration":166.66649999999208,"noteNumber":69,"velocity":91,"programNumber":44},{"time":196444.24800000037,"duration":444.4439999999886,"noteNumber":74,"velocity":91,"programNumber":44},{"time":197110.91400000037,"duration":166.66649999999208,"noteNumber":69,"velocity":91,"programNumber":44},{"time":197333.13600000035,"duration":166.66649999999208,"noteNumber":74,"velocity":91,"programNumber":44},{"time":197555.35800000033,"duration":166.66649999999208,"noteNumber":69,"velocity":91,"programNumber":44},{"time":197777.5800000003,"duration":166.66649999999208,"noteNumber":74,"velocity":91,"programNumber":44},{"time":197999.8020000003,"duration":166.66649999999208,"noteNumber":78,"velocity":91,"programNumber":44},{"time":198222.02400000027,"duration":444.4439999999886,"noteNumber":81,"velocity":91,"programNumber":44},{"time":199110.91200000024,"duration":444.4439999999886,"noteNumber":81,"velocity":91,"programNumber":44},{"time":199777.57800000024,"duration":166.66649999999208,"noteNumber":78,"velocity":91,"programNumber":44},{"time":199999.80000000022,"duration":444.4439999999886,"noteNumber":81,"velocity":91,"programNumber":44},{"time":200666.46600000022,"duration":166.66649999999208,"noteNumber":78,"velocity":91,"programNumber":44},{"time":200888.6880000002,"duration":166.66649999999208,"noteNumber":81,"velocity":91,"programNumber":44},{"time":201110.91000000018,"duration":166.66649999999208,"noteNumber":78,"velocity":91,"programNumber":44},{"time":201333.13200000016,"duration":166.66649999999208,"noteNumber":75,"velocity":91,"programNumber":44},{"time":201555.35400000014,"duration":166.66649999999208,"noteNumber":78,"velocity":91,"programNumber":44},{"time":201777.57600000012,"duration":444.4439999999886,"noteNumber":71,"velocity":91,"programNumber":44},{"time":203333.1300000001,"duration":166.66649999999208,"noteNumber":79,"velocity":55,"programNumber":44},{"time":203555.35200000007,"duration":222.22200000000885,"noteNumber":84,"velocity":55,"programNumber":44},{"time":203777.57400000008,"duration":222.22200000000885,"noteNumber":83,"velocity":55,"programNumber":44},{"time":203999.7960000001,"duration":222.22200000000885,"noteNumber":81,"velocity":55,"programNumber":44},{"time":204222.0180000001,"duration":222.22200000000885,"noteNumber":79,"velocity":55,"programNumber":44},{"time":204444.2400000001,"duration":55.55549999998766,"noteNumber":81,"velocity":55,"programNumber":44},{"time":204499.7955000001,"duration":55.55549999998766,"noteNumber":83,"velocity":55,"programNumber":44},{"time":204555.35100000008,"duration":55.55549999998766,"noteNumber":81,"velocity":55,"programNumber":44},{"time":204610.90650000007,"duration":55.55549999998766,"noteNumber":83,"velocity":55,"programNumber":44},{"time":204666.46200000006,"duration":222.22200000000885,"noteNumber":79,"velocity":55,"programNumber":44},{"time":205110.90600000008,"duration":111.11100000000442,"noteNumber":79,"velocity":55,"programNumber":44},{"time":205333.12800000008,"duration":111.11100000000442,"noteNumber":79,"velocity":55,"programNumber":44},{"time":205555.3500000001,"duration":111.11100000000442,"noteNumber":79,"velocity":55,"programNumber":44},{"time":205777.5720000001,"duration":111.11100000000442,"noteNumber":79,"velocity":55,"programNumber":44},{"time":205999.7940000001,"duration":111.11100000000442,"noteNumber":79,"velocity":55,"programNumber":44},{"time":206222.01600000012,"duration":55.55549999998766,"noteNumber":81,"velocity":55,"programNumber":44},{"time":206277.5715000001,"duration":55.55549999998766,"noteNumber":83,"velocity":55,"programNumber":44},{"time":206333.1270000001,"duration":55.55549999998766,"noteNumber":81,"velocity":55,"programNumber":44},{"time":206388.68250000008,"duration":55.55549999998766,"noteNumber":83,"velocity":55,"programNumber":44},{"time":206444.23800000007,"duration":222.22200000000885,"noteNumber":79,"velocity":55,"programNumber":44},{"time":206888.6820000001,"duration":166.66649999999208,"noteNumber":79,"velocity":55,"programNumber":44},{"time":207110.90400000007,"duration":222.22200000000885,"noteNumber":84,"velocity":55,"programNumber":44},{"time":207333.12600000008,"duration":222.22200000000885,"noteNumber":83,"velocity":55,"programNumber":44},{"time":207555.3480000001,"duration":222.22200000000885,"noteNumber":81,"velocity":55,"programNumber":44},{"time":207777.5700000001,"duration":222.22200000000885,"noteNumber":79,"velocity":55,"programNumber":44},{"time":207999.7920000001,"duration":55.55549999998766,"noteNumber":81,"velocity":55,"programNumber":44},{"time":208055.3475000001,"duration":55.55549999998766,"noteNumber":83,"velocity":55,"programNumber":44},{"time":208110.90300000008,"duration":55.55549999998766,"noteNumber":81,"velocity":55,"programNumber":44},{"time":208166.45850000007,"duration":55.55549999998766,"noteNumber":83,"velocity":55,"programNumber":44},{"time":208222.01400000005,"duration":222.22200000000885,"noteNumber":79,"velocity":55,"programNumber":44},{"time":208666.45800000007,"duration":111.11100000000442,"noteNumber":79,"velocity":55,"programNumber":44},{"time":208888.68000000008,"duration":111.11100000000442,"noteNumber":79,"velocity":55,"programNumber":44},{"time":209110.9020000001,"duration":111.11100000000442,"noteNumber":79,"velocity":55,"programNumber":44},{"time":209333.1240000001,"duration":111.11100000000442,"noteNumber":79,"velocity":55,"programNumber":44},{"time":209555.3460000001,"duration":111.11100000000442,"noteNumber":79,"velocity":55,"programNumber":44},{"time":209777.56800000012,"duration":55.55549999998766,"noteNumber":81,"velocity":55,"programNumber":44},{"time":209833.1235000001,"duration":55.55549999998766,"noteNumber":83,"velocity":55,"programNumber":44},{"time":209888.6790000001,"duration":55.55549999998766,"noteNumber":81,"velocity":55,"programNumber":44},{"time":209944.23450000008,"duration":55.55549999998766,"noteNumber":83,"velocity":55,"programNumber":44},{"time":209999.79000000007,"duration":222.22200000000885,"noteNumber":79,"velocity":55,"programNumber":44},{"time":210444.23400000008,"duration":166.66649999999208,"noteNumber":79,"velocity":55,"programNumber":44},{"time":210666.45600000006,"duration":222.22200000000885,"noteNumber":84,"velocity":55,"programNumber":44},{"time":210888.67800000007,"duration":222.22200000000885,"noteNumber":83,"velocity":55,"programNumber":44},{"time":211110.90000000008,"duration":222.22200000000885,"noteNumber":81,"velocity":55,"programNumber":44},{"time":211333.1220000001,"duration":222.22200000000885,"noteNumber":79,"velocity":55,"programNumber":44},{"time":211555.3440000001,"duration":55.55549999998766,"noteNumber":81,"velocity":55,"programNumber":44},{"time":211610.8995000001,"duration":55.55549999998766,"noteNumber":83,"velocity":55,"programNumber":44},{"time":211666.45500000007,"duration":55.55549999998766,"noteNumber":81,"velocity":55,"programNumber":44},{"time":211722.01050000006,"duration":55.55549999998766,"noteNumber":83,"velocity":55,"programNumber":44},{"time":211777.56600000005,"duration":222.22200000000885,"noteNumber":80,"velocity":55,"programNumber":44},{"time":212222.01000000007,"duration":111.11100000000442,"noteNumber":80,"velocity":55,"programNumber":44},{"time":212444.23200000008,"duration":111.11100000000442,"noteNumber":80,"velocity":55,"programNumber":44},{"time":212666.45400000009,"duration":111.11100000000442,"noteNumber":80,"velocity":55,"programNumber":44},{"time":212888.6760000001,"duration":111.11100000000442,"noteNumber":80,"velocity":55,"programNumber":44},{"time":213110.8980000001,"duration":111.11100000000442,"noteNumber":80,"velocity":55,"programNumber":44},{"time":213333.1200000001,"duration":55.55549999998766,"noteNumber":83,"velocity":55,"programNumber":44},{"time":213388.6755000001,"duration":55.55549999998766,"noteNumber":84,"velocity":55,"programNumber":44},{"time":213444.2310000001,"duration":55.55549999998766,"noteNumber":83,"velocity":55,"programNumber":44},{"time":213499.78650000007,"duration":55.55549999998766,"noteNumber":84,"velocity":55,"programNumber":44},{"time":213555.34200000006,"duration":222.22200000000885,"noteNumber":81,"velocity":55,"programNumber":44},{"time":213999.78600000008,"duration":166.66649999999208,"noteNumber":81,"velocity":55,"programNumber":44},{"time":214222.00800000006,"duration":222.22200000000885,"noteNumber":84,"velocity":55,"programNumber":44},{"time":214444.23000000007,"duration":222.22200000000885,"noteNumber":82,"velocity":55,"programNumber":44},{"time":214666.45200000008,"duration":222.22200000000885,"noteNumber":81,"velocity":55,"programNumber":44},{"time":214888.6740000001,"duration":222.22200000000885,"noteNumber":79,"velocity":55,"programNumber":44},{"time":215110.8960000001,"duration":55.55549999998766,"noteNumber":79,"velocity":55,"programNumber":44},{"time":215166.45150000008,"duration":55.55549999998766,"noteNumber":81,"velocity":55,"programNumber":44},{"time":215222.00700000007,"duration":55.55549999998766,"noteNumber":79,"velocity":55,"programNumber":44},{"time":215277.56250000006,"duration":55.55549999998766,"noteNumber":81,"velocity":55,"programNumber":44},{"time":215333.11800000005,"duration":222.22200000000885,"noteNumber":78,"velocity":55,"programNumber":44},{"time":215777.56200000006,"duration":111.11100000000442,"noteNumber":78,"velocity":55,"programNumber":44},{"time":215999.78400000007,"duration":111.11100000000442,"noteNumber":78,"velocity":55,"programNumber":44},{"time":216222.00600000008,"duration":111.11100000000442,"noteNumber":78,"velocity":55,"programNumber":44},{"time":216444.2280000001,"duration":111.11100000000442,"noteNumber":78,"velocity":55,"programNumber":44},{"time":216666.4500000001,"duration":111.11100000000442,"noteNumber":78,"velocity":55,"programNumber":44},{"time":216888.6720000001,"duration":55.55549999998766,"noteNumber":81,"velocity":55,"programNumber":44},{"time":216944.2275000001,"duration":55.55549999998766,"noteNumber":82,"velocity":55,"programNumber":44},{"time":216999.78300000008,"duration":55.55549999998766,"noteNumber":81,"velocity":55,"programNumber":44},{"time":217055.33850000007,"duration":55.55549999998766,"noteNumber":82,"velocity":55,"programNumber":44},{"time":217110.89400000006,"duration":222.22200000000885,"noteNumber":79,"velocity":55,"programNumber":44},{"time":217555.33800000008,"duration":166.66649999999208,"noteNumber":75,"velocity":55,"programNumber":44},{"time":217777.56000000006,"duration":222.22200000000885,"noteNumber":79,"velocity":55,"programNumber":44},{"time":217999.78200000006,"duration":222.22200000000885,"noteNumber":77,"velocity":55,"programNumber":44},{"time":218222.00400000007,"duration":222.22200000000885,"noteNumber":76,"velocity":55,"programNumber":44},{"time":218444.22600000008,"duration":222.22200000000885,"noteNumber":74,"velocity":55,"programNumber":44},{"time":218666.4480000001,"duration":55.55549999998766,"noteNumber":74,"velocity":55,"programNumber":44},{"time":218722.00350000008,"duration":55.55549999998766,"noteNumber":75,"velocity":55,"programNumber":44},{"time":218777.55900000007,"duration":55.55549999998766,"noteNumber":74,"velocity":55,"programNumber":44},{"time":218833.11450000005,"duration":55.55549999998766,"noteNumber":75,"velocity":55,"programNumber":44},{"time":218888.67000000004,"duration":222.22200000000885,"noteNumber":73,"velocity":55,"programNumber":44},{"time":219333.11400000006,"duration":111.11100000000442,"noteNumber":73,"velocity":55,"programNumber":44},{"time":219555.33600000007,"duration":111.11100000000442,"noteNumber":73,"velocity":55,"programNumber":44},{"time":219777.55800000008,"duration":111.11100000000442,"noteNumber":73,"velocity":55,"programNumber":44},{"time":219999.7800000001,"duration":111.11100000000442,"noteNumber":73,"velocity":55,"programNumber":44},{"time":220222.0020000001,"duration":111.11100000000442,"noteNumber":73,"velocity":55,"programNumber":44},{"time":220444.2240000001,"duration":55.55549999998766,"noteNumber":76,"velocity":53,"programNumber":44},{"time":220499.7795000001,"duration":55.55549999998766,"noteNumber":78,"velocity":53,"programNumber":44},{"time":220555.33500000008,"duration":55.55549999998766,"noteNumber":76,"velocity":53,"programNumber":44},{"time":220610.89050000007,"duration":55.55549999998766,"noteNumber":78,"velocity":53,"programNumber":44},{"time":220666.44600000005,"duration":222.22200000000885,"noteNumber":74,"velocity":53,"programNumber":44},{"time":221110.89000000007,"duration":222.22200000000885,"noteNumber":62,"velocity":91,"programNumber":44},{"time":221333.11200000008,"duration":222.22200000000885,"noteNumber":64,"velocity":91,"programNumber":44},{"time":221555.3340000001,"duration":222.22200000000885,"noteNumber":66,"velocity":91,"programNumber":44},{"time":221777.5560000001,"duration":222.22200000000885,"noteNumber":67,"velocity":91,"programNumber":44},{"time":221999.7780000001,"duration":222.22200000000885,"noteNumber":69,"velocity":91,"programNumber":44},{"time":222222.00000000012,"duration":222.22200000000885,"noteNumber":72,"velocity":91,"programNumber":44},{"time":222444.22200000013,"duration":222.22200000000885,"noteNumber":70,"velocity":91,"programNumber":44},{"time":222888.66600000014,"duration":222.22200000000885,"noteNumber":66,"velocity":91,"programNumber":44},{"time":223110.88800000015,"duration":222.22200000000885,"noteNumber":67,"velocity":91,"programNumber":44},{"time":223333.11000000016,"duration":222.22200000000885,"noteNumber":69,"velocity":91,"programNumber":44},{"time":223555.33200000017,"duration":222.22200000000885,"noteNumber":70,"velocity":91,"programNumber":44},{"time":223777.55400000018,"duration":222.22200000000885,"noteNumber":73,"velocity":91,"programNumber":44},{"time":223999.7760000002,"duration":222.22200000000885,"noteNumber":76,"velocity":91,"programNumber":44},{"time":224221.9980000002,"duration":222.22200000000885,"noteNumber":74,"velocity":91,"programNumber":44},{"time":224666.4420000002,"duration":222.22200000000885,"noteNumber":74,"velocity":53,"programNumber":44},{"time":224888.66400000022,"duration":222.22200000000885,"noteNumber":76,"velocity":53,"programNumber":44},{"time":225110.88600000023,"duration":222.22200000000885,"noteNumber":78,"velocity":53,"programNumber":44},{"time":225333.10800000024,"duration":222.22200000000885,"noteNumber":79,"velocity":53,"programNumber":44},{"time":225555.33000000025,"duration":222.22200000000885,"noteNumber":81,"velocity":52,"programNumber":44},{"time":225777.55200000026,"duration":444.4439999999886,"noteNumber":82,"velocity":50,"programNumber":44},{"time":226221.99600000025,"duration":444.4439999999886,"noteNumber":83,"velocity":46,"programNumber":44},{"time":226666.44000000024,"duration":444.4439999999886,"noteNumber":84,"velocity":43,"programNumber":44},{"time":227110.88400000022,"duration":444.4439999999886,"noteNumber":85,"velocity":40,"programNumber":44},{"time":227555.3280000002,"duration":2611.108500000002,"noteNumber":86,"velocity":59,"programNumber":44},{"time":230221.9920000002,"duration":55.55549999998766,"noteNumber":78,"velocity":52,"programNumber":44},{"time":230277.5475000002,"duration":55.55549999998766,"noteNumber":79,"velocity":53,"programNumber":44},{"time":230333.10300000018,"duration":55.55549999998766,"noteNumber":78,"velocity":55,"programNumber":44},{"time":230388.65850000017,"duration":55.55549999998766,"noteNumber":79,"velocity":58,"programNumber":44},{"time":230444.21400000015,"duration":55.55549999998766,"noteNumber":78,"velocity":59,"programNumber":44},{"time":230499.76950000014,"duration":55.55549999998766,"noteNumber":79,"velocity":61,"programNumber":44},{"time":230555.32500000013,"duration":55.55549999998766,"noteNumber":78,"velocity":62,"programNumber":44},{"time":230610.88050000012,"duration":55.55549999998766,"noteNumber":79,"velocity":65,"programNumber":44},{"time":230666.4360000001,"duration":55.55549999998766,"noteNumber":78,"velocity":67,"programNumber":44},{"time":230721.9915000001,"duration":55.55549999998766,"noteNumber":79,"velocity":68,"programNumber":44},{"time":230777.54700000008,"duration":55.55549999998766,"noteNumber":78,"velocity":70,"programNumber":44},{"time":230833.10250000007,"duration":55.55549999998766,"noteNumber":79,"velocity":71,"programNumber":44},{"time":230888.65800000005,"duration":111.11100000000442,"noteNumber":76,"velocity":74,"programNumber":44},{"time":230999.76900000006,"duration":111.11100000000442,"noteNumber":78,"velocity":77,"programNumber":44},{"time":231110.88000000006,"duration":444.4439999999886,"noteNumber":79,"velocity":93,"programNumber":44},{"time":231777.54600000006,"duration":111.11100000000442,"noteNumber":74,"velocity":92,"programNumber":44},{"time":231999.76800000007,"duration":444.4439999999886,"noteNumber":79,"velocity":92,"programNumber":44},{"time":232666.43400000007,"duration":111.11100000000442,"noteNumber":74,"velocity":91,"programNumber":44},{"time":232888.65600000008,"duration":111.11100000000442,"noteNumber":79,"velocity":90,"programNumber":44},{"time":233110.87800000008,"duration":111.11100000000442,"noteNumber":74,"velocity":90,"programNumber":44},{"time":233333.1000000001,"duration":111.11100000000442,"noteNumber":79,"velocity":90,"programNumber":44},{"time":233555.3220000001,"duration":111.11100000000442,"noteNumber":83,"velocity":90,"programNumber":44},{"time":233777.5440000001,"duration":444.4439999999886,"noteNumber":86,"velocity":89,"programNumber":44},{"time":234666.4320000001,"duration":444.4439999999886,"noteNumber":84,"velocity":104,"programNumber":44},{"time":235333.0980000001,"duration":111.11100000000442,"noteNumber":81,"velocity":87,"programNumber":44},{"time":235555.3200000001,"duration":444.4439999999886,"noteNumber":84,"velocity":86,"programNumber":44},{"time":236221.9860000001,"duration":111.11100000000442,"noteNumber":81,"velocity":85,"programNumber":44},{"time":236444.2080000001,"duration":111.11100000000442,"noteNumber":84,"velocity":92,"programNumber":44},{"time":236666.4300000001,"duration":111.11100000000442,"noteNumber":81,"velocity":85,"programNumber":44},{"time":236888.65200000012,"duration":111.11100000000442,"noteNumber":78,"velocity":92,"programNumber":44},{"time":237110.87400000013,"duration":111.11100000000442,"noteNumber":81,"velocity":85,"programNumber":44},{"time":237333.09600000014,"duration":444.4439999999886,"noteNumber":74,"velocity":94,"programNumber":44},{"time":238221.9840000001,"duration":222.22200000000885,"noteNumber":71,"velocity":92,"programNumber":44},{"time":238221.9840000001,"duration":222.22200000000885,"noteNumber":79,"velocity":92,"programNumber":44},{"time":238221.9840000001,"duration":222.22200000000885,"noteNumber":62,"velocity":92,"programNumber":44},{"time":238666.42800000013,"duration":666.6659999999974,"noteNumber":79,"velocity":85,"programNumber":44},{"time":239333.09400000013,"duration":222.22200000000885,"noteNumber":83,"velocity":74,"programNumber":44},{"time":239555.31600000014,"duration":111.11100000000442,"noteNumber":81,"velocity":74,"programNumber":44},{"time":239777.53800000015,"duration":111.11100000000442,"noteNumber":79,"velocity":80,"programNumber":44},{"time":239999.76000000015,"duration":55.55549999998766,"noteNumber":79,"velocity":86,"programNumber":44},{"time":240055.31550000014,"duration":55.55549999998766,"noteNumber":81,"velocity":86,"programNumber":44},{"time":240110.87100000013,"duration":55.55549999998766,"noteNumber":79,"velocity":86,"programNumber":44},{"time":240166.42650000012,"duration":55.55549999998766,"noteNumber":81,"velocity":86,"programNumber":44},{"time":240221.9820000001,"duration":185.18499999999767,"noteNumber":78,"velocity":83,"programNumber":44},{"time":240444.2040000001,"duration":666.6659999999974,"noteNumber":78,"velocity":77,"programNumber":44},{"time":241110.8700000001,"duration":222.22200000000885,"noteNumber":81,"velocity":85,"programNumber":44},{"time":241333.09200000012,"duration":111.11100000000442,"noteNumber":84,"velocity":85,"programNumber":44},{"time":241555.31400000013,"duration":111.11100000000442,"noteNumber":78,"velocity":85,"programNumber":44},{"time":241777.53600000014,"duration":222.22200000000885,"noteNumber":81,"velocity":85,"programNumber":44},{"time":241999.75800000015,"duration":111.11100000000442,"noteNumber":79,"velocity":85,"programNumber":44},{"time":242221.98000000016,"duration":666.6659999999974,"noteNumber":79,"velocity":85,"programNumber":44},{"time":242888.64600000015,"duration":222.22200000000885,"noteNumber":83,"velocity":85,"programNumber":44},{"time":243110.86800000016,"duration":111.11100000000442,"noteNumber":81,"velocity":85,"programNumber":44},{"time":243333.09000000017,"duration":111.11100000000442,"noteNumber":79,"velocity":85,"programNumber":44},{"time":243555.31200000018,"duration":55.55549999998766,"noteNumber":79,"velocity":85,"programNumber":44},{"time":243610.86750000017,"duration":55.55549999998766,"noteNumber":81,"velocity":85,"programNumber":44},{"time":243666.42300000016,"duration":55.55549999998766,"noteNumber":79,"velocity":85,"programNumber":44},{"time":243721.97850000014,"duration":55.55549999998766,"noteNumber":81,"velocity":85,"programNumber":44},{"time":243777.53400000013,"duration":185.18499999999767,"noteNumber":78,"velocity":85,"programNumber":44},{"time":243999.75600000014,"duration":666.6659999999974,"noteNumber":78,"velocity":85,"programNumber":44},{"time":244666.42200000014,"duration":222.22200000000885,"noteNumber":81,"velocity":85,"programNumber":44},{"time":244888.64400000015,"duration":111.11100000000442,"noteNumber":84,"velocity":85,"programNumber":44},{"time":245110.86600000015,"duration":111.11100000000442,"noteNumber":78,"velocity":85,"programNumber":44},{"time":245333.08800000016,"duration":111.11100000000442,"noteNumber":79,"velocity":85,"programNumber":44},{"time":245555.31000000017,"duration":111.11100000000442,"noteNumber":79,"velocity":85,"programNumber":44},{"time":245777.53200000018,"duration":111.11100000000442,"noteNumber":79,"velocity":85,"programNumber":44},{"time":245888.6430000002,"duration":111.11100000000442,"noteNumber":78,"velocity":85,"programNumber":44},{"time":245999.7540000002,"duration":111.11100000000442,"noteNumber":76,"velocity":85,"programNumber":44},{"time":246110.8650000002,"duration":111.11100000000442,"noteNumber":78,"velocity":85,"programNumber":44},{"time":246221.9760000002,"duration":111.11100000000442,"noteNumber":79,"velocity":85,"programNumber":44},{"time":246444.1980000002,"duration":111.11100000000442,"noteNumber":79,"velocity":85,"programNumber":44},{"time":246666.42000000022,"duration":111.11100000000442,"noteNumber":83,"velocity":85,"programNumber":44},{"time":246777.53100000022,"duration":111.11100000000442,"noteNumber":81,"velocity":85,"programNumber":44},{"time":246888.64200000023,"duration":111.11100000000442,"noteNumber":79,"velocity":85,"programNumber":44},{"time":246999.75300000023,"duration":111.11100000000442,"noteNumber":81,"velocity":83,"programNumber":44},{"time":247110.86400000023,"duration":111.11100000000442,"noteNumber":83,"velocity":83,"programNumber":44},{"time":247333.08600000024,"duration":111.11100000000442,"noteNumber":83,"velocity":83,"programNumber":44},{"time":247555.30800000025,"duration":111.11100000000442,"noteNumber":86,"velocity":83,"programNumber":44},{"time":247666.41900000026,"duration":111.11100000000442,"noteNumber":84,"velocity":80,"programNumber":44},{"time":247777.53000000026,"duration":111.11100000000442,"noteNumber":83,"velocity":79,"programNumber":44},{"time":247888.64100000027,"duration":111.11100000000442,"noteNumber":84,"velocity":76,"programNumber":44},{"time":247999.75200000027,"duration":444.4439999999886,"noteNumber":86,"velocity":71,"programNumber":44},{"time":248888.64000000025,"duration":888.8880000000063,"noteNumber":74,"velocity":56,"programNumber":44},{"time":249777.52800000025,"duration":888.8880000000063,"noteNumber":76,"velocity":55,"programNumber":44},{"time":250666.41600000026,"duration":111.11100000000442,"noteNumber":74,"velocity":57,"programNumber":44},{"time":250777.52700000026,"duration":296.2960000000021,"noteNumber":72,"velocity":59,"programNumber":44},{"time":251110.86000000028,"duration":444.4439999999886,"noteNumber":72,"velocity":58,"programNumber":44},{"time":251555.30400000027,"duration":111.11100000000442,"noteNumber":72,"velocity":57,"programNumber":44},{"time":251666.41500000027,"duration":296.2960000000021,"noteNumber":71,"velocity":55,"programNumber":44},{"time":251999.74800000028,"duration":444.4439999999886,"noteNumber":71,"velocity":53,"programNumber":44},{"time":252444.19200000027,"duration":111.11100000000442,"noteNumber":71,"velocity":57,"programNumber":44},{"time":252555.30300000028,"duration":296.2960000000021,"noteNumber":69,"velocity":56,"programNumber":44},{"time":252888.6360000003,"duration":444.4439999999886,"noteNumber":69,"velocity":55,"programNumber":44},{"time":253333.08000000028,"duration":222.22200000000885,"noteNumber":67,"velocity":54,"programNumber":44},{"time":253555.3020000003,"duration":111.11100000000442,"noteNumber":66,"velocity":55,"programNumber":44},{"time":253777.5240000003,"duration":111.11100000000442,"noteNumber":64,"velocity":55,"programNumber":44},{"time":253999.7460000003,"duration":111.11100000000442,"noteNumber":66,"velocity":55,"programNumber":44},{"time":254221.9680000003,"duration":222.22200000000885,"noteNumber":67,"velocity":56,"programNumber":44},{"time":254666.41200000033,"duration":222.22200000000885,"noteNumber":69,"velocity":57,"programNumber":44},{"time":255110.85600000035,"duration":222.22200000000885,"noteNumber":71,"velocity":57,"programNumber":44},{"time":255999.74400000036,"duration":888.8880000000063,"noteNumber":74,"velocity":56,"programNumber":44},{"time":256888.63200000036,"duration":888.8880000000063,"noteNumber":76,"velocity":59,"programNumber":44},{"time":257777.52000000037,"duration":222.22200000000885,"noteNumber":74,"velocity":46,"programNumber":44},{"time":257999.74200000038,"duration":111.11100000000442,"noteNumber":72,"velocity":51,"programNumber":44},{"time":258221.9640000004,"duration":111.11100000000442,"noteNumber":72,"velocity":51,"programNumber":44},{"time":258444.1860000004,"duration":111.11100000000442,"noteNumber":72,"velocity":51,"programNumber":44},{"time":258666.4080000004,"duration":222.22200000000885,"noteNumber":72,"velocity":51,"programNumber":44},{"time":258888.6300000004,"duration":111.11100000000442,"noteNumber":71,"velocity":50,"programNumber":44},{"time":259110.85200000042,"duration":111.11100000000442,"noteNumber":71,"velocity":49,"programNumber":44},{"time":259333.07400000043,"duration":111.11100000000442,"noteNumber":71,"velocity":49,"programNumber":44},{"time":259555.29600000044,"duration":222.22200000000885,"noteNumber":71,"velocity":49,"programNumber":44},{"time":259777.51800000045,"duration":111.11100000000442,"noteNumber":69,"velocity":50,"programNumber":44},{"time":259999.74000000046,"duration":166.66649999999208,"noteNumber":69,"velocity":52,"programNumber":44},{"time":260221.96200000044,"duration":166.66649999999208,"noteNumber":69,"velocity":52,"programNumber":44},{"time":260444.18400000042,"duration":222.22200000000885,"noteNumber":67,"velocity":52,"programNumber":44},{"time":260666.40600000042,"duration":222.22200000000885,"noteNumber":66,"velocity":54,"programNumber":44},{"time":260888.62800000043,"duration":222.22200000000885,"noteNumber":64,"velocity":55,"programNumber":44},{"time":261110.85000000044,"duration":222.22200000000885,"noteNumber":66,"velocity":55,"programNumber":44},{"time":261333.07200000045,"duration":1111.109999999986,"noteNumber":67,"velocity":85,"programNumber":44},{"time":261333.07200000045,"duration":1111.109999999986,"noteNumber":55,"velocity":85,"programNumber":44},{"time":262444.18200000044,"duration":55.555500000016764,"noteNumber":67,"velocity":61,"programNumber":44},{"time":262499.73750000045,"duration":55.555500000016764,"noteNumber":69,"velocity":61,"programNumber":44},{"time":262555.29300000047,"duration":55.555500000016764,"noteNumber":66,"velocity":61,"programNumber":44},{"time":262610.8485000005,"duration":55.555500000016764,"noteNumber":67,"velocity":61,"programNumber":44},{"time":262666.4040000005,"duration":222.22200000000885,"noteNumber":69,"velocity":61,"programNumber":44},{"time":262888.6260000005,"duration":222.22200000000885,"noteNumber":66,"velocity":61,"programNumber":44},{"time":263110.8480000005,"duration":1111.109999999986,"noteNumber":71,"velocity":91,"programNumber":44},{"time":264221.9580000005,"duration":55.555500000016764,"noteNumber":71,"velocity":61,"programNumber":44},{"time":264277.5135000005,"duration":55.555500000016764,"noteNumber":72,"velocity":61,"programNumber":44},{"time":264333.06900000054,"duration":55.555500000016764,"noteNumber":69,"velocity":61,"programNumber":44},{"time":264388.62450000056,"duration":55.555500000016764,"noteNumber":71,"velocity":61,"programNumber":44},{"time":264444.1800000006,"duration":222.22200000000885,"noteNumber":72,"velocity":61,"programNumber":44},{"time":264666.4020000006,"duration":222.22200000000885,"noteNumber":69,"velocity":61,"programNumber":44},{"time":264888.6240000006,"duration":74.07400000002235,"noteNumber":74,"velocity":51,"programNumber":44},{"time":264999.7350000006,"duration":74.07400000002235,"noteNumber":74,"velocity":56,"programNumber":44},{"time":265110.84600000066,"duration":74.07400000002235,"noteNumber":74,"velocity":59,"programNumber":44},{"time":265221.9570000007,"duration":74.07400000002235,"noteNumber":74,"velocity":56,"programNumber":44},{"time":265333.0680000007,"duration":74.07400000002235,"noteNumber":74,"velocity":56,"programNumber":44},{"time":265444.17900000076,"duration":74.07400000002235,"noteNumber":74,"velocity":56,"programNumber":44},{"time":265555.2900000008,"duration":74.07400000002235,"noteNumber":74,"velocity":56,"programNumber":44},{"time":265666.4010000008,"duration":74.07400000002235,"noteNumber":74,"velocity":56,"programNumber":44},{"time":265777.51200000086,"duration":74.07400000002235,"noteNumber":76,"velocity":56,"programNumber":44},{"time":265888.6230000009,"duration":74.07400000002235,"noteNumber":76,"velocity":56,"programNumber":44},{"time":265999.7340000009,"duration":74.07400000002235,"noteNumber":76,"velocity":56,"programNumber":44},{"time":266110.84500000096,"duration":74.07400000002235,"noteNumber":76,"velocity":56,"programNumber":44},{"time":266221.956000001,"duration":74.07400000002235,"noteNumber":78,"velocity":56,"programNumber":44},{"time":266333.067000001,"duration":74.07400000002235,"noteNumber":78,"velocity":56,"programNumber":44},{"time":266444.17800000106,"duration":74.07400000002235,"noteNumber":78,"velocity":57,"programNumber":44},{"time":266555.2890000011,"duration":74.07400000002235,"noteNumber":78,"velocity":59,"programNumber":44},{"time":266666.40000000113,"duration":74.07400000002235,"noteNumber":79,"velocity":62,"programNumber":44},{"time":266777.51100000116,"duration":74.07400000002235,"noteNumber":79,"velocity":65,"programNumber":44},{"time":266888.6220000012,"duration":74.07400000002235,"noteNumber":79,"velocity":66,"programNumber":44},{"time":266999.73300000123,"duration":74.07400000002235,"noteNumber":79,"velocity":66,"programNumber":44},{"time":267110.84400000126,"duration":74.07400000002235,"noteNumber":81,"velocity":66,"programNumber":44},{"time":267221.9550000013,"duration":74.07400000002235,"noteNumber":81,"velocity":66,"programNumber":44},{"time":267333.06600000133,"duration":74.07400000002235,"noteNumber":81,"velocity":66,"programNumber":44},{"time":267444.17700000136,"duration":74.07400000002235,"noteNumber":81,"velocity":68,"programNumber":44},{"time":267555.2880000014,"duration":74.07400000002235,"noteNumber":83,"velocity":68,"programNumber":44},{"time":267666.39900000143,"duration":74.07400000002235,"noteNumber":83,"velocity":70,"programNumber":44},{"time":267777.51000000146,"duration":74.07400000002235,"noteNumber":83,"velocity":70,"programNumber":44},{"time":267888.6210000015,"duration":74.07400000002235,"noteNumber":83,"velocity":71,"programNumber":44},{"time":267999.73200000153,"duration":74.07400000002235,"noteNumber":85,"velocity":71,"programNumber":44},{"time":268110.84300000157,"duration":74.07400000002235,"noteNumber":85,"velocity":73,"programNumber":44},{"time":268221.9540000016,"duration":74.07400000002235,"noteNumber":85,"velocity":74,"programNumber":44},{"time":268333.06500000163,"duration":74.07400000002235,"noteNumber":85,"velocity":74,"programNumber":44},{"time":268444.17600000167,"duration":666.6660000000265,"noteNumber":86,"velocity":85,"programNumber":44},{"time":269110.8420000017,"duration":222.22200000000885,"noteNumber":81,"velocity":85,"programNumber":44},{"time":269333.0640000017,"duration":333.33299999998417,"noteNumber":85,"velocity":85,"programNumber":44},{"time":269666.3970000017,"duration":111.11099999997532,"noteNumber":81,"velocity":85,"programNumber":44},{"time":269777.50800000166,"duration":333.33299999998417,"noteNumber":85,"velocity":85,"programNumber":44},{"time":270110.84100000164,"duration":111.11099999997532,"noteNumber":81,"velocity":85,"programNumber":44},{"time":270221.9520000016,"duration":666.6660000000265,"noteNumber":86,"velocity":85,"programNumber":44},{"time":270888.61800000165,"duration":222.22200000000885,"noteNumber":81,"velocity":85,"programNumber":44},{"time":271110.84000000166,"duration":333.33299999998417,"noteNumber":85,"velocity":85,"programNumber":44},{"time":271444.17300000164,"duration":111.11099999997532,"noteNumber":81,"velocity":85,"programNumber":44},{"time":271555.2840000016,"duration":333.33299999998417,"noteNumber":85,"velocity":85,"programNumber":44},{"time":271888.6170000016,"duration":111.11099999997532,"noteNumber":81,"velocity":85,"programNumber":44},{"time":271999.7280000016,"duration":111.11099999997532,"noteNumber":86,"velocity":100,"programNumber":44},{"time":272221.9500000015,"duration":111.11099999997532,"noteNumber":81,"velocity":100,"programNumber":44},{"time":272444.1720000015,"duration":111.11099999997532,"noteNumber":85,"velocity":100,"programNumber":44},{"time":272666.3940000014,"duration":111.11099999997532,"noteNumber":81,"velocity":100,"programNumber":44},{"time":272888.6160000014,"duration":111.11099999997532,"noteNumber":86,"velocity":100,"programNumber":44},{"time":273110.8380000013,"duration":111.11099999997532,"noteNumber":81,"velocity":100,"programNumber":44},{"time":273333.0600000013,"duration":111.11099999997532,"noteNumber":85,"velocity":100,"programNumber":44},{"time":273555.2820000012,"duration":111.11099999997532,"noteNumber":81,"velocity":100,"programNumber":44},{"time":273777.5040000012,"duration":166.66649999999208,"noteNumber":86,"velocity":85,"programNumber":44},{"time":273999.7260000012,"duration":166.66649999999208,"noteNumber":62,"velocity":85,"programNumber":44},{"time":274221.9480000012,"duration":166.66649999999208,"noteNumber":62,"velocity":85,"programNumber":44},{"time":274444.1700000012,"duration":166.66649999999208,"noteNumber":62,"velocity":85,"programNumber":44},{"time":274666.3920000012,"duration":444.4440000000177,"noteNumber":62,"velocity":85,"programNumber":44},{"time":275555.28000000125,"duration":666.6660000000265,"noteNumber":74,"velocity":46,"programNumber":44},{"time":276221.9460000013,"duration":74.07400000002235,"noteNumber":72,"velocity":47,"programNumber":44},{"time":276296.0200000013,"duration":74.07400000002235,"noteNumber":71,"velocity":47,"programNumber":44},{"time":276370.0940000013,"duration":74.07400000002235,"noteNumber":69,"velocity":47,"programNumber":44},{"time":276444.16800000134,"duration":222.22200000000885,"noteNumber":67,"velocity":47,"programNumber":44},{"time":276888.61200000136,"duration":222.22200000000885,"noteNumber":76,"velocity":47,"programNumber":44},{"time":277333.0560000014,"duration":222.22200000000885,"noteNumber":72,"velocity":46,"programNumber":44},{"time":277777.5000000014,"duration":222.22200000000885,"noteNumber":69,"velocity":43,"programNumber":44},{"time":278221.9440000014,"duration":222.22200000000885,"noteNumber":74,"velocity":59,"programNumber":44},{"time":279110.83200000145,"duration":666.6660000000265,"noteNumber":83,"velocity":55,"programNumber":44},{"time":279777.4980000015,"duration":74.07400000002235,"noteNumber":81,"velocity":55,"programNumber":44},{"time":279851.5720000015,"duration":74.07400000002235,"noteNumber":79,"velocity":55,"programNumber":44},{"time":279925.6460000015,"duration":74.07400000002235,"noteNumber":78,"velocity":55,"programNumber":44},{"time":279999.72000000154,"duration":222.22200000000885,"noteNumber":76,"velocity":55,"programNumber":44},{"time":280444.16400000156,"duration":222.22200000000885,"noteNumber":84,"velocity":55,"programNumber":44},{"time":280888.6080000016,"duration":888.8879999999772,"noteNumber":83,"velocity":55,"programNumber":44},{"time":281777.49600000156,"duration":444.4440000000177,"noteNumber":81,"velocity":47,"programNumber":44},{"time":282888.6060000016,"duration":111.11099999997532,"noteNumber":86,"velocity":55,"programNumber":44},{"time":283110.82800000155,"duration":111.11099999997532,"noteNumber":86,"velocity":55,"programNumber":44},{"time":283333.0500000015,"duration":111.11099999997532,"noteNumber":86,"velocity":55,"programNumber":44},{"time":283555.27200000145,"duration":111.11099999997532,"noteNumber":86,"velocity":55,"programNumber":44},{"time":283777.4940000014,"duration":111.11099999997532,"noteNumber":86,"velocity":55,"programNumber":44},{"time":283999.71600000135,"duration":111.11099999997532,"noteNumber":86,"velocity":55,"programNumber":44},{"time":284221.9380000013,"duration":111.11099999997532,"noteNumber":86,"velocity":55,"programNumber":44},{"time":284444.16000000125,"duration":111.11099999997532,"noteNumber":86,"velocity":55,"programNumber":44},{"time":284666.3820000012,"duration":111.11099999997532,"noteNumber":86,"velocity":55,"programNumber":44},{"time":284888.60400000116,"duration":111.11099999997532,"noteNumber":86,"velocity":55,"programNumber":44},{"time":285110.8260000011,"duration":111.11099999997532,"noteNumber":86,"velocity":55,"programNumber":44},{"time":285333.04800000106,"duration":222.22200000000885,"noteNumber":86,"velocity":55,"programNumber":44},{"time":285555.27000000107,"duration":222.22200000000885,"noteNumber":84,"velocity":55,"programNumber":44},{"time":285777.4920000011,"duration":222.22200000000885,"noteNumber":79,"velocity":55,"programNumber":44},{"time":285999.7140000011,"duration":222.22200000000885,"noteNumber":78,"velocity":55,"programNumber":44},{"time":286221.9360000011,"duration":222.22200000000885,"noteNumber":78,"velocity":55,"programNumber":44},{"time":286444.1580000011,"duration":222.22200000000885,"noteNumber":79,"velocity":65,"programNumber":44},{"time":286888.6020000011,"duration":111.11099999997532,"noteNumber":76,"velocity":55,"programNumber":44},{"time":287110.82400000107,"duration":222.22200000000885,"noteNumber":76,"velocity":55,"programNumber":44},{"time":287333.0460000011,"duration":222.22200000000885,"noteNumber":74,"velocity":55,"programNumber":44},{"time":287777.4900000011,"duration":166.66649999999208,"noteNumber":66,"velocity":55,"programNumber":44},{"time":287999.7120000011,"duration":444.4440000000177,"noteNumber":67,"velocity":67,"programNumber":44},{"time":288666.37800000113,"duration":111.11099999997532,"noteNumber":74,"velocity":55,"programNumber":44},{"time":288888.6000000011,"duration":222.22200000000885,"noteNumber":79,"velocity":55,"programNumber":44},{"time":289110.8220000011,"duration":222.22200000000885,"noteNumber":78,"velocity":55,"programNumber":44},{"time":289333.0440000011,"duration":222.22200000000885,"noteNumber":76,"velocity":55,"programNumber":44},{"time":289555.2660000011,"duration":222.22200000000885,"noteNumber":74,"velocity":55,"programNumber":44},{"time":289777.4880000011,"duration":55.555500000016764,"noteNumber":76,"velocity":55,"programNumber":44},{"time":289833.04350000113,"duration":55.555500000016764,"noteNumber":78,"velocity":55,"programNumber":44},{"time":289888.59900000115,"duration":55.555500000016764,"noteNumber":76,"velocity":55,"programNumber":44},{"time":289944.15450000117,"duration":55.555500000016764,"noteNumber":78,"velocity":55,"programNumber":44},{"time":289999.7100000012,"duration":222.22200000000885,"noteNumber":74,"velocity":55,"programNumber":44},{"time":290444.1540000012,"duration":111.11099999997532,"noteNumber":74,"velocity":55,"programNumber":44},{"time":290666.37600000115,"duration":111.11099999997532,"noteNumber":74,"velocity":55,"programNumber":44},{"time":290888.5980000011,"duration":111.11099999997532,"noteNumber":74,"velocity":55,"programNumber":44},{"time":291110.82000000105,"duration":111.11099999997532,"noteNumber":74,"velocity":55,"programNumber":44},{"time":291333.042000001,"duration":111.11099999997532,"noteNumber":74,"velocity":55,"programNumber":44},{"time":291555.26400000096,"duration":55.555500000016764,"noteNumber":76,"velocity":55,"programNumber":44},{"time":291610.819500001,"duration":55.555500000016764,"noteNumber":78,"velocity":55,"programNumber":44},{"time":291666.375000001,"duration":55.555500000016764,"noteNumber":76,"velocity":55,"programNumber":44},{"time":291721.930500001,"duration":55.555500000016764,"noteNumber":78,"velocity":55,"programNumber":44},{"time":291777.486000001,"duration":222.22200000000885,"noteNumber":74,"velocity":55,"programNumber":44},{"time":292221.93000000104,"duration":166.66649999999208,"noteNumber":74,"velocity":55,"programNumber":44},{"time":292444.15200000105,"duration":222.22200000000885,"noteNumber":79,"velocity":55,"programNumber":44},{"time":292666.37400000106,"duration":222.22200000000885,"noteNumber":78,"velocity":55,"programNumber":44},{"time":292888.59600000107,"duration":222.22200000000885,"noteNumber":76,"velocity":55,"programNumber":44},{"time":293110.8180000011,"duration":222.22200000000885,"noteNumber":74,"velocity":55,"programNumber":44},{"time":293333.0400000011,"duration":55.555500000016764,"noteNumber":76,"velocity":55,"programNumber":44},{"time":293388.5955000011,"duration":55.555500000016764,"noteNumber":78,"velocity":55,"programNumber":44},{"time":293444.1510000011,"duration":55.555500000016764,"noteNumber":76,"velocity":55,"programNumber":44},{"time":293499.70650000114,"duration":55.555500000016764,"noteNumber":78,"velocity":55,"programNumber":44},{"time":293555.26200000115,"duration":222.22200000000885,"noteNumber":74,"velocity":55,"programNumber":44},{"time":293999.70600000117,"duration":111.11099999997532,"noteNumber":74,"velocity":55,"programNumber":44},{"time":294221.9280000011,"duration":111.11099999997532,"noteNumber":74,"velocity":55,"programNumber":44},{"time":294444.1500000011,"duration":111.11099999997532,"noteNumber":74,"velocity":55,"programNumber":44},{"time":294666.372000001,"duration":111.11099999997532,"noteNumber":74,"velocity":55,"programNumber":44},{"time":294888.594000001,"duration":111.11099999997532,"noteNumber":74,"velocity":55,"programNumber":44},{"time":295110.8160000009,"duration":55.555500000016764,"noteNumber":76,"velocity":55,"programNumber":44},{"time":295166.37150000094,"duration":55.555500000016764,"noteNumber":78,"velocity":55,"programNumber":44},{"time":295221.92700000096,"duration":55.555500000016764,"noteNumber":76,"velocity":55,"programNumber":44},{"time":295277.482500001,"duration":55.555500000016764,"noteNumber":78,"velocity":55,"programNumber":44},{"time":295333.038000001,"duration":222.22200000000885,"noteNumber":74,"velocity":55,"programNumber":44},{"time":295999.704000001,"duration":629.6290000000154,"noteNumber":76,"velocity":83,"programNumber":44},{"time":295999.704000001,"duration":629.6290000000154,"noteNumber":64,"velocity":83,"programNumber":44},{"time":296666.37000000104,"duration":74.07400000002235,"noteNumber":74,"velocity":82,"programNumber":44},{"time":296740.44400000107,"duration":74.07400000002235,"noteNumber":72,"velocity":82,"programNumber":44},{"time":296814.5180000011,"duration":74.07400000002235,"noteNumber":71,"velocity":82,"programNumber":44},{"time":296888.5920000011,"duration":444.4440000000177,"noteNumber":72,"velocity":83,"programNumber":44},{"time":297777.48000000115,"duration":629.6290000000154,"noteNumber":62,"velocity":85,"programNumber":44},{"time":297777.48000000115,"duration":629.6290000000154,"noteNumber":74,"velocity":85,"programNumber":44},{"time":298444.1460000012,"duration":74.07400000002235,"noteNumber":72,"velocity":77,"programNumber":44},{"time":298518.2200000012,"duration":74.07400000002235,"noteNumber":71,"velocity":79,"programNumber":44},{"time":298592.2940000012,"duration":74.07400000002235,"noteNumber":69,"velocity":83,"programNumber":44},{"time":298666.36800000124,"duration":444.4440000000177,"noteNumber":71,"velocity":88,"programNumber":44},{"time":299555.2560000013,"duration":222.22200000000885,"noteNumber":76,"velocity":85,"programNumber":44},{"time":299777.4780000013,"duration":111.11099999997532,"noteNumber":78,"velocity":85,"programNumber":44},{"time":299888.58900000126,"duration":111.11099999997532,"noteNumber":79,"velocity":85,"programNumber":44},{"time":299999.70000000123,"duration":166.66649999999208,"noteNumber":78,"velocity":85,"programNumber":44},{"time":300221.92200000124,"duration":111.11099999997532,"noteNumber":76,"velocity":85,"programNumber":44},{"time":300444.1440000012,"duration":222.22200000000885,"noteNumber":76,"velocity":85,"programNumber":44},{"time":300666.3660000012,"duration":166.66649999999208,"noteNumber":74,"velocity":85,"programNumber":44},{"time":300888.5880000012,"duration":111.11099999997532,"noteNumber":71,"velocity":85,"programNumber":44},{"time":301110.81000000116,"duration":111.11099999997532,"noteNumber":74,"velocity":85,"programNumber":44},{"time":301333.0320000011,"duration":222.22200000000885,"noteNumber":74,"velocity":85,"programNumber":44},{"time":301555.2540000011,"duration":166.66649999999208,"noteNumber":72,"velocity":85,"programNumber":44},{"time":301777.47600000113,"duration":111.11099999997532,"noteNumber":71,"velocity":85,"programNumber":44},{"time":301999.6980000011,"duration":111.11099999997532,"noteNumber":69,"velocity":85,"programNumber":44},{"time":302221.92000000103,"duration":444.4440000000177,"noteNumber":67,"velocity":85,"programNumber":44},{"time":302888.58600000106,"duration":111.11099999997532,"noteNumber":74,"velocity":50,"programNumber":44},{"time":303110.808000001,"duration":222.22200000000885,"noteNumber":79,"velocity":50,"programNumber":44},{"time":303333.030000001,"duration":222.22200000000885,"noteNumber":78,"velocity":50,"programNumber":44},{"time":303555.252000001,"duration":222.22200000000885,"noteNumber":76,"velocity":53,"programNumber":44},{"time":303777.47400000104,"duration":222.22200000000885,"noteNumber":74,"velocity":56,"programNumber":44},{"time":303999.69600000104,"duration":55.555500000016764,"noteNumber":76,"velocity":58,"programNumber":44},{"time":304055.25150000106,"duration":55.555500000016764,"noteNumber":78,"velocity":58,"programNumber":44},{"time":304110.8070000011,"duration":55.555500000016764,"noteNumber":76,"velocity":59,"programNumber":44},{"time":304166.3625000011,"duration":55.555500000016764,"noteNumber":78,"velocity":59,"programNumber":44},{"time":304221.9180000011,"duration":222.22200000000885,"noteNumber":74,"velocity":61,"programNumber":44},{"time":304666.3620000011,"duration":111.11099999997532,"noteNumber":74,"velocity":56,"programNumber":44},{"time":304888.5840000011,"duration":111.11099999997532,"noteNumber":74,"velocity":55,"programNumber":44},{"time":305110.80600000103,"duration":111.11099999997532,"noteNumber":74,"velocity":55,"programNumber":44},{"time":305333.028000001,"duration":111.11099999997532,"noteNumber":74,"velocity":53,"programNumber":44},{"time":305555.25000000093,"duration":111.11099999997532,"noteNumber":74,"velocity":52,"programNumber":44},{"time":305777.4720000009,"duration":55.555500000016764,"noteNumber":76,"velocity":55,"programNumber":44},{"time":305833.0275000009,"duration":55.555500000016764,"noteNumber":78,"velocity":55,"programNumber":44},{"time":305888.5830000009,"duration":55.555500000016764,"noteNumber":76,"velocity":55,"programNumber":44},{"time":305944.13850000093,"duration":55.555500000016764,"noteNumber":78,"velocity":55,"programNumber":44},{"time":305999.69400000095,"duration":222.22200000000885,"noteNumber":74,"velocity":55,"programNumber":44},{"time":306444.13800000097,"duration":166.66649999999208,"noteNumber":74,"velocity":55,"programNumber":44},{"time":306666.360000001,"duration":222.22200000000885,"noteNumber":79,"velocity":55,"programNumber":44},{"time":306888.582000001,"duration":222.22200000000885,"noteNumber":78,"velocity":55,"programNumber":44},{"time":307110.804000001,"duration":222.22200000000885,"noteNumber":76,"velocity":55,"programNumber":44},{"time":307333.026000001,"duration":222.22200000000885,"noteNumber":74,"velocity":56,"programNumber":44},{"time":307555.248000001,"duration":55.555500000016764,"noteNumber":76,"velocity":65,"programNumber":44},{"time":307610.803500001,"duration":55.555500000016764,"noteNumber":78,"velocity":65,"programNumber":44},{"time":307666.35900000104,"duration":55.555500000016764,"noteNumber":76,"velocity":65,"programNumber":44},{"time":307721.91450000106,"duration":55.555500000016764,"noteNumber":78,"velocity":65,"programNumber":44},{"time":307777.4700000011,"duration":222.22200000000885,"noteNumber":74,"velocity":64,"programNumber":44},{"time":308221.9140000011,"duration":111.11099999997532,"noteNumber":74,"velocity":55,"programNumber":44},{"time":308444.13600000105,"duration":111.11099999997532,"noteNumber":74,"velocity":55,"programNumber":44},{"time":308666.358000001,"duration":111.11099999997532,"noteNumber":74,"velocity":55,"programNumber":44},{"time":308888.58000000095,"duration":111.11099999997532,"noteNumber":74,"velocity":55,"programNumber":44},{"time":309110.8020000009,"duration":111.11099999997532,"noteNumber":74,"velocity":55,"programNumber":44},{"time":309333.02400000085,"duration":55.555500000016764,"noteNumber":76,"velocity":59,"programNumber":44},{"time":309388.57950000087,"duration":55.555500000016764,"noteNumber":78,"velocity":59,"programNumber":44},{"time":309444.1350000009,"duration":55.555500000016764,"noteNumber":76,"velocity":59,"programNumber":44},{"time":309499.6905000009,"duration":55.555500000016764,"noteNumber":78,"velocity":59,"programNumber":44},{"time":309555.2460000009,"duration":222.22200000000885,"noteNumber":74,"velocity":59,"programNumber":44},{"time":310221.91200000094,"duration":629.6290000000154,"noteNumber":88,"velocity":85,"programNumber":44},{"time":310888.57800000097,"duration":74.07400000002235,"noteNumber":86,"velocity":85,"programNumber":44},{"time":310962.652000001,"duration":74.07400000002235,"noteNumber":84,"velocity":85,"programNumber":44},{"time":311036.726000001,"duration":74.07400000002235,"noteNumber":83,"velocity":85,"programNumber":44},{"time":311110.80000000104,"duration":444.4440000000177,"noteNumber":84,"velocity":85,"programNumber":44},{"time":311999.6880000011,"duration":629.6290000000154,"noteNumber":74,"velocity":85,"programNumber":44},{"time":311999.6880000011,"duration":629.6290000000154,"noteNumber":86,"velocity":85,"programNumber":44},{"time":312666.3540000011,"duration":74.07400000002235,"noteNumber":84,"velocity":82,"programNumber":44},{"time":312740.4280000011,"duration":74.07400000002235,"noteNumber":83,"velocity":83,"programNumber":44},{"time":312814.50200000114,"duration":74.07400000002235,"noteNumber":81,"velocity":83,"programNumber":44},{"time":312888.57600000117,"duration":444.4440000000177,"noteNumber":83,"velocity":86,"programNumber":44},{"time":313777.4640000012,"duration":222.22200000000885,"noteNumber":76,"velocity":85,"programNumber":44},{"time":313999.6860000012,"duration":111.11099999997532,"noteNumber":78,"velocity":85,"programNumber":44},{"time":314110.7970000012,"duration":111.11099999997532,"noteNumber":79,"velocity":85,"programNumber":44},{"time":314221.90800000116,"duration":166.66649999999208,"noteNumber":78,"velocity":85,"programNumber":44},{"time":314444.13000000117,"duration":111.11099999997532,"noteNumber":76,"velocity":85,"programNumber":44},{"time":314666.3520000011,"duration":111.11099999997532,"noteNumber":74,"velocity":85,"programNumber":44},{"time":314888.57400000107,"duration":111.11099999997532,"noteNumber":79,"velocity":85,"programNumber":44},{"time":315110.796000001,"duration":111.11099999997532,"noteNumber":83,"velocity":85,"programNumber":44},{"time":315333.018000001,"duration":111.11099999997532,"noteNumber":86,"velocity":85,"programNumber":44},{"time":315555.2400000009,"duration":222.22200000000885,"noteNumber":86,"velocity":85,"programNumber":44},{"time":315777.46200000093,"duration":166.66649999999208,"noteNumber":84,"velocity":85,"programNumber":44},{"time":315999.68400000094,"duration":111.11099999997532,"noteNumber":83,"velocity":85,"programNumber":44},{"time":316221.9060000009,"duration":111.11099999997532,"noteNumber":81,"velocity":85,"programNumber":44},{"time":316444.12800000084,"duration":166.66649999999208,"noteNumber":79,"velocity":94,"programNumber":44},{"time":316666.35000000085,"duration":166.66649999999208,"noteNumber":62,"velocity":85,"programNumber":44},{"time":316888.57200000086,"duration":166.66649999999208,"noteNumber":64,"velocity":85,"programNumber":44},{"time":317110.79400000087,"duration":166.66649999999208,"noteNumber":66,"velocity":85,"programNumber":44},{"time":317333.0160000009,"duration":166.66649999999208,"noteNumber":67,"velocity":85,"programNumber":44},{"time":317555.2380000009,"duration":166.66649999999208,"noteNumber":67,"velocity":85,"programNumber":44},{"time":317777.4600000009,"duration":55.555500000016764,"noteNumber":69,"velocity":85,"programNumber":44},{"time":317833.0155000009,"duration":55.555500000016764,"noteNumber":71,"velocity":85,"programNumber":44},{"time":317888.5710000009,"duration":55.555500000016764,"noteNumber":69,"velocity":85,"programNumber":44},{"time":317944.12650000094,"duration":55.555500000016764,"noteNumber":71,"velocity":85,"programNumber":44},{"time":317999.68200000096,"duration":111.11099999997532,"noteNumber":67,"velocity":85,"programNumber":44},{"time":318110.79300000094,"duration":111.11099999997532,"noteNumber":69,"velocity":85,"programNumber":44},{"time":318221.9040000009,"duration":166.66649999999208,"noteNumber":71,"velocity":85,"programNumber":44},{"time":318444.1260000009,"duration":166.66649999999208,"noteNumber":66,"velocity":85,"programNumber":44},{"time":318666.34800000093,"duration":166.66649999999208,"noteNumber":67,"velocity":85,"programNumber":44},{"time":318888.57000000094,"duration":166.66649999999208,"noteNumber":69,"velocity":85,"programNumber":44},{"time":319110.79200000095,"duration":166.66649999999208,"noteNumber":71,"velocity":85,"programNumber":44},{"time":319333.01400000096,"duration":166.66649999999208,"noteNumber":71,"velocity":85,"programNumber":44},{"time":319555.23600000096,"duration":55.555500000016764,"noteNumber":72,"velocity":86,"programNumber":44},{"time":319610.791500001,"duration":55.555500000016764,"noteNumber":74,"velocity":86,"programNumber":44},{"time":319666.347000001,"duration":55.555500000016764,"noteNumber":72,"velocity":86,"programNumber":44},{"time":319721.902500001,"duration":55.555500000016764,"noteNumber":74,"velocity":86,"programNumber":44},{"time":319777.45800000103,"duration":111.11099999997532,"noteNumber":71,"velocity":86,"programNumber":44},{"time":319888.569000001,"duration":111.11099999997532,"noteNumber":72,"velocity":89,"programNumber":44},{"time":319999.680000001,"duration":166.66649999999208,"noteNumber":74,"velocity":89,"programNumber":44},{"time":320221.902000001,"duration":166.66649999999208,"noteNumber":74,"velocity":91,"programNumber":44},{"time":320444.124000001,"duration":55.555500000016764,"noteNumber":75,"velocity":91,"programNumber":44},{"time":320499.679500001,"duration":55.555500000016764,"noteNumber":76,"velocity":91,"programNumber":44},{"time":320555.23500000103,"duration":55.555500000016764,"noteNumber":75,"velocity":91,"programNumber":44},{"time":320610.79050000105,"duration":55.555500000016764,"noteNumber":76,"velocity":92,"programNumber":44},{"time":320666.34600000107,"duration":111.11099999997532,"noteNumber":73,"velocity":94,"programNumber":44},{"time":320777.45700000104,"duration":111.11099999997532,"noteNumber":75,"velocity":97,"programNumber":44},{"time":320888.568000001,"duration":444.4440000000177,"noteNumber":76,"velocity":98,"programNumber":44},{"time":321777.45600000105,"duration":666.6660000000265,"noteNumber":64,"velocity":61,"programNumber":44},{"time":322444.1220000011,"duration":166.66649999999208,"noteNumber":69,"velocity":61,"programNumber":44},{"time":322666.3440000011,"duration":222.22200000000885,"noteNumber":67,"velocity":61,"programNumber":44},{"time":322888.5660000011,"duration":222.22200000000885,"noteNumber":66,"velocity":62,"programNumber":44},{"time":323110.7880000011,"duration":222.22200000000885,"noteNumber":64,"velocity":62,"programNumber":44},{"time":323333.0100000011,"duration":166.66649999999208,"noteNumber":62,"velocity":62,"programNumber":44},{"time":323555.2320000011,"duration":222.22200000000885,"noteNumber":74,"velocity":62,"programNumber":44},{"time":323777.45400000113,"duration":222.22200000000885,"noteNumber":73,"velocity":62,"programNumber":44},{"time":323999.67600000114,"duration":222.22200000000885,"noteNumber":72,"velocity":62,"programNumber":44},{"time":324221.89800000115,"duration":222.22200000000885,"noteNumber":71,"velocity":62,"programNumber":44},{"time":324444.12000000116,"duration":222.22200000000885,"noteNumber":74,"velocity":61,"programNumber":44},{"time":324666.34200000117,"duration":222.22200000000885,"noteNumber":73,"velocity":61,"programNumber":44},{"time":324888.5640000012,"duration":222.22200000000885,"noteNumber":72,"velocity":61,"programNumber":44},{"time":325110.7860000012,"duration":166.66649999999208,"noteNumber":71,"velocity":59,"programNumber":44},{"time":325333.0080000012,"duration":666.6660000000265,"noteNumber":64,"velocity":61,"programNumber":44},{"time":325999.6740000012,"duration":166.66649999999208,"noteNumber":69,"velocity":67,"programNumber":44},{"time":326221.89600000123,"duration":222.22200000000885,"noteNumber":67,"velocity":70,"programNumber":44},{"time":326444.11800000124,"duration":222.22200000000885,"noteNumber":66,"velocity":70,"programNumber":44},{"time":326666.34000000125,"duration":222.22200000000885,"noteNumber":64,"velocity":70,"programNumber":44},{"time":326888.56200000126,"duration":166.66649999999208,"noteNumber":62,"velocity":70,"programNumber":44},{"time":327110.78400000127,"duration":222.22200000000885,"noteNumber":74,"velocity":70,"programNumber":44},{"time":327333.0060000013,"duration":222.22200000000885,"noteNumber":76,"velocity":70,"programNumber":44},{"time":327555.2280000013,"duration":222.22200000000885,"noteNumber":78,"velocity":70,"programNumber":44},{"time":327777.4500000013,"duration":222.22200000000885,"noteNumber":79,"velocity":70,"programNumber":44},{"time":327999.6720000013,"duration":222.22200000000885,"noteNumber":74,"velocity":70,"programNumber":44},{"time":328221.8940000013,"duration":222.22200000000885,"noteNumber":76,"velocity":70,"programNumber":44},{"time":328444.1160000013,"duration":222.22200000000885,"noteNumber":78,"velocity":70,"programNumber":44},{"time":328666.3380000013,"duration":166.66649999999208,"noteNumber":79,"velocity":76,"programNumber":44},{"time":328888.56000000134,"duration":444.4440000000177,"noteNumber":81,"velocity":75,"programNumber":44},{"time":329777.4480000014,"duration":444.4440000000177,"noteNumber":86,"velocity":91,"programNumber":44},{"time":329777.4480000014,"duration":444.4440000000177,"noteNumber":74,"velocity":91,"programNumber":44},{"time":330666.3360000014,"duration":444.4440000000177,"noteNumber":79,"velocity":96,"programNumber":44},{"time":330666.3360000014,"duration":444.4440000000177,"noteNumber":71,"velocity":96,"programNumber":44},{"time":330666.3360000014,"duration":444.4440000000177,"noteNumber":62,"velocity":96,"programNumber":44},{"time":331333.00200000143,"duration":166.66649999999208,"noteNumber":74,"velocity":95,"programNumber":44},{"time":331555.22400000144,"duration":166.66649999999208,"noteNumber":71,"velocity":94,"programNumber":44},{"time":331777.44600000145,"duration":166.66649999999208,"noteNumber":67,"velocity":90,"programNumber":44},{"time":331999.66800000146,"duration":166.66649999999208,"noteNumber":71,"velocity":90,"programNumber":44},{"time":332221.89000000147,"duration":166.66649999999208,"noteNumber":74,"velocity":89,"programNumber":44},{"time":332444.1120000015,"duration":166.66649999999208,"noteNumber":79,"velocity":88,"programNumber":44},{"time":332666.3340000015,"duration":166.66649999999208,"noteNumber":74,"velocity":88,"programNumber":44},{"time":332888.5560000015,"duration":166.66649999999208,"noteNumber":79,"velocity":88,"programNumber":44},{"time":333110.7780000015,"duration":166.66649999999208,"noteNumber":83,"velocity":90,"programNumber":44},{"time":333333.0000000015,"duration":370.36999999999534,"noteNumber":86,"velocity":92,"programNumber":44},{"time":333777.44400000153,"duration":370.36999999999534,"noteNumber":78,"velocity":95,"programNumber":44},{"time":333777.44400000153,"duration":370.36999999999534,"noteNumber":69,"velocity":95,"programNumber":44},{"time":333777.44400000153,"duration":370.36999999999534,"noteNumber":62,"velocity":95,"programNumber":44},{"time":334221.88800000155,"duration":444.4440000000177,"noteNumber":79,"velocity":100,"programNumber":44},{"time":334221.88800000155,"duration":444.4440000000177,"noteNumber":71,"velocity":100,"programNumber":44},{"time":334221.88800000155,"duration":444.4440000000177,"noteNumber":62,"velocity":100,"programNumber":44},{"time":334888.5540000016,"duration":166.66649999999208,"noteNumber":74,"velocity":98,"programNumber":44},{"time":335110.7760000016,"duration":166.66649999999208,"noteNumber":71,"velocity":98,"programNumber":44},{"time":335332.9980000016,"duration":166.66649999999208,"noteNumber":67,"velocity":95,"programNumber":44},{"time":335555.2200000016,"duration":166.66649999999208,"noteNumber":71,"velocity":94,"programNumber":44},{"time":335777.4420000016,"duration":166.66649999999208,"noteNumber":74,"velocity":92,"programNumber":44},{"time":335999.6640000016,"duration":166.66649999999208,"noteNumber":79,"velocity":91,"programNumber":44},{"time":336221.8860000016,"duration":166.66649999999208,"noteNumber":74,"velocity":91,"programNumber":44},{"time":336444.10800000164,"duration":166.66649999999208,"noteNumber":79,"velocity":92,"programNumber":44},{"time":336666.33000000165,"duration":166.66649999999208,"noteNumber":83,"velocity":92,"programNumber":44},{"time":336888.55200000165,"duration":370.36999999999534,"noteNumber":86,"velocity":96,"programNumber":44},{"time":337332.9960000017,"duration":370.36999999999534,"noteNumber":78,"velocity":99,"programNumber":44},{"time":337332.9960000017,"duration":370.36999999999534,"noteNumber":69,"velocity":99,"programNumber":44},{"time":337332.9960000017,"duration":370.36999999999534,"noteNumber":62,"velocity":99,"programNumber":44},{"time":337777.4400000017,"duration":444.4440000000177,"noteNumber":79,"velocity":109,"programNumber":44},{"time":337777.4400000017,"duration":444.4440000000177,"noteNumber":71,"velocity":109,"programNumber":44},{"time":337777.4400000017,"duration":444.4440000000177,"noteNumber":62,"velocity":109,"programNumber":44},{"time":338666.3280000017,"duration":444.4440000000177,"noteNumber":79,"velocity":106,"programNumber":44},{"time":338666.3280000017,"duration":444.4440000000177,"noteNumber":71,"velocity":106,"programNumber":44},{"time":338666.3280000017,"duration":444.4440000000177,"noteNumber":62,"velocity":106,"programNumber":44},{"time":339555.21600000176,"duration":370.36999999999534,"noteNumber":79,"velocity":106,"programNumber":44},{"time":339555.21600000176,"duration":370.36999999999534,"noteNumber":71,"velocity":106,"programNumber":44},{"time":339555.21600000176,"duration":370.36999999999534,"noteNumber":62,"velocity":106,"programNumber":44},{"time":339999.6600000018,"duration":222.22200000000885,"noteNumber":67,"velocity":110,"programNumber":44},{"time":339999.6600000018,"duration":222.22200000000885,"noteNumber":55,"velocity":110,"programNumber":44},{"time":340332.99300000176,"duration":55.555500000016764,"noteNumber":67,"velocity":109,"programNumber":44},{"time":340332.99300000176,"duration":55.555500000016764,"noteNumber":55,"velocity":109,"programNumber":44},{"time":340444.1040000018,"duration":444.4440000000177,"noteNumber":67,"velocity":108,"programNumber":44},{"time":340444.1040000018,"duration":444.4440000000177,"noteNumber":55,"velocity":108,"programNumber":44}],[{"time":0,"duration":440.7403,"noteNumber":71,"velocity":85,"programNumber":41},{"time":0,"duration":440.7403,"noteNumber":79,"velocity":85,"programNumber":41},{"time":0,"duration":440.7403,"noteNumber":62,"velocity":85,"programNumber":41},{"time":666.6659999999999,"duration":111.11099999999999,"noteNumber":74,"velocity":85,"programNumber":41},{"time":888.8879999999999,"duration":444.44399999999996,"noteNumber":79,"velocity":85,"programNumber":41},{"time":1555.5539999999999,"duration":111.1110000000001,"noteNumber":74,"velocity":85,"programNumber":41},{"time":1777.776,"duration":111.1110000000001,"noteNumber":79,"velocity":85,"programNumber":41},{"time":1999.9980000000003,"duration":111.1110000000001,"noteNumber":74,"velocity":85,"programNumber":41},{"time":2222.2200000000003,"duration":111.11099999999988,"noteNumber":79,"velocity":85,"programNumber":41},{"time":2444.442,"duration":111.11099999999988,"noteNumber":83,"velocity":85,"programNumber":41},{"time":2666.6639999999998,"duration":444.44399999999996,"noteNumber":86,"velocity":85,"programNumber":41},{"time":3555.5519999999997,"duration":444.44399999999996,"noteNumber":84,"velocity":85,"programNumber":41},{"time":4222.218,"duration":111.11099999999988,"noteNumber":81,"velocity":82,"programNumber":41},{"time":4444.44,"duration":444.4440000000004,"noteNumber":84,"velocity":85,"programNumber":41},{"time":5111.106,"duration":111.11099999999988,"noteNumber":81,"velocity":79,"programNumber":41},{"time":5333.3279999999995,"duration":111.11099999999988,"noteNumber":84,"velocity":85,"programNumber":41},{"time":5555.549999999999,"duration":111.11099999999988,"noteNumber":81,"velocity":80,"programNumber":41},{"time":5777.771999999999,"duration":111.11099999999988,"noteNumber":78,"velocity":85,"programNumber":41},{"time":5999.993999999999,"duration":111.11099999999988,"noteNumber":81,"velocity":77,"programNumber":41},{"time":6222.2159999999985,"duration":444.4440000000004,"noteNumber":74,"velocity":85,"programNumber":41},{"time":7111.103999999999,"duration":222.22199999999975,"noteNumber":71,"velocity":85,"programNumber":41},{"time":7111.103999999999,"duration":222.22199999999975,"noteNumber":79,"velocity":85,"programNumber":41},{"time":7111.103999999999,"duration":222.22199999999975,"noteNumber":62,"velocity":85,"programNumber":41},{"time":7555.547999999999,"duration":666.6659999999993,"noteNumber":79,"velocity":85,"programNumber":41},{"time":8222.213999999998,"duration":222.22199999999975,"noteNumber":83,"velocity":89,"programNumber":41},{"time":8444.435999999998,"duration":111.11100000000079,"noteNumber":81,"velocity":94,"programNumber":41},{"time":8666.658,"duration":111.11100000000079,"noteNumber":79,"velocity":97,"programNumber":41},{"time":8888.880000000001,"duration":55.55550000000039,"noteNumber":79,"velocity":95,"programNumber":41},{"time":8944.435500000001,"duration":55.55550000000039,"noteNumber":81,"velocity":95,"programNumber":41},{"time":8999.991000000002,"duration":55.55550000000039,"noteNumber":79,"velocity":95,"programNumber":41},{"time":9055.546500000002,"duration":55.55550000000039,"noteNumber":81,"velocity":94,"programNumber":41},{"time":9111.102000000003,"duration":185.1849999999995,"noteNumber":78,"velocity":94,"programNumber":41},{"time":9333.324000000002,"duration":666.6659999999993,"noteNumber":78,"velocity":88,"programNumber":41},{"time":9999.990000000002,"duration":222.22199999999975,"noteNumber":81,"velocity":85,"programNumber":41},{"time":10222.212000000001,"duration":111.11100000000079,"noteNumber":84,"velocity":85,"programNumber":41},{"time":10444.434000000003,"duration":111.11100000000079,"noteNumber":78,"velocity":85,"programNumber":41},{"time":10666.656000000004,"duration":222.22199999999975,"noteNumber":81,"velocity":85,"programNumber":41},{"time":10888.878000000004,"duration":111.11100000000079,"noteNumber":79,"velocity":85,"programNumber":41},{"time":11111.100000000006,"duration":666.6659999999993,"noteNumber":79,"velocity":85,"programNumber":41},{"time":11777.766000000005,"duration":222.22199999999975,"noteNumber":83,"velocity":86,"programNumber":41},{"time":11999.988000000005,"duration":111.11100000000079,"noteNumber":81,"velocity":86,"programNumber":41},{"time":12222.210000000006,"duration":111.11100000000079,"noteNumber":79,"velocity":89,"programNumber":41},{"time":12444.432000000008,"duration":55.55550000000039,"noteNumber":79,"velocity":91,"programNumber":41},{"time":12499.987500000008,"duration":55.55550000000039,"noteNumber":81,"velocity":91,"programNumber":41},{"time":12555.543000000009,"duration":55.55550000000039,"noteNumber":79,"velocity":92,"programNumber":41},{"time":12611.09850000001,"duration":55.55550000000039,"noteNumber":81,"velocity":94,"programNumber":41},{"time":12666.65400000001,"duration":185.1849999999995,"noteNumber":78,"velocity":94,"programNumber":41},{"time":12888.87600000001,"duration":666.6659999999993,"noteNumber":78,"velocity":94,"programNumber":41},{"time":13555.542000000009,"duration":222.22199999999975,"noteNumber":81,"velocity":85,"programNumber":41},{"time":13777.764000000008,"duration":111.11100000000079,"noteNumber":84,"velocity":85,"programNumber":41},{"time":13999.98600000001,"duration":111.11100000000079,"noteNumber":78,"velocity":85,"programNumber":41},{"time":14222.208000000011,"duration":111.11100000000079,"noteNumber":79,"velocity":85,"programNumber":41},{"time":14444.430000000013,"duration":111.11100000000079,"noteNumber":79,"velocity":85,"programNumber":41},{"time":14666.652000000015,"duration":111.11100000000079,"noteNumber":79,"velocity":85,"programNumber":41},{"time":14777.763000000015,"duration":111.11100000000079,"noteNumber":78,"velocity":85,"programNumber":41},{"time":14888.874000000016,"duration":111.11100000000079,"noteNumber":76,"velocity":85,"programNumber":41},{"time":14999.985000000017,"duration":111.11100000000079,"noteNumber":78,"velocity":85,"programNumber":41},{"time":15111.096000000018,"duration":111.11100000000079,"noteNumber":79,"velocity":85,"programNumber":41},{"time":15333.31800000002,"duration":111.11100000000079,"noteNumber":79,"velocity":85,"programNumber":41},{"time":15555.54000000002,"duration":111.11100000000079,"noteNumber":83,"velocity":85,"programNumber":41},{"time":15666.651000000022,"duration":111.11100000000079,"noteNumber":81,"velocity":85,"programNumber":41},{"time":15777.762000000022,"duration":111.11100000000079,"noteNumber":79,"velocity":85,"programNumber":41},{"time":15888.873000000023,"duration":111.11100000000079,"noteNumber":81,"velocity":85,"programNumber":41},{"time":15999.984000000024,"duration":111.11100000000079,"noteNumber":83,"velocity":86,"programNumber":41},{"time":16222.206000000026,"duration":111.11100000000079,"noteNumber":83,"velocity":86,"programNumber":41},{"time":16444.428000000025,"duration":111.11100000000079,"noteNumber":86,"velocity":83,"programNumber":41},{"time":16555.539000000026,"duration":111.11100000000079,"noteNumber":84,"velocity":80,"programNumber":41},{"time":16666.650000000027,"duration":111.11100000000079,"noteNumber":83,"velocity":80,"programNumber":41},{"time":16777.761000000028,"duration":111.11100000000079,"noteNumber":84,"velocity":79,"programNumber":41},{"time":16888.87200000003,"duration":444.4439999999995,"noteNumber":86,"velocity":76,"programNumber":41},{"time":17777.760000000028,"duration":888.887999999999,"noteNumber":74,"velocity":41,"programNumber":41},{"time":18666.648000000027,"duration":888.887999999999,"noteNumber":76,"velocity":47,"programNumber":41},{"time":19555.536000000026,"duration":111.11100000000079,"noteNumber":74,"velocity":47,"programNumber":41},{"time":19666.647000000026,"duration":296.29599999999846,"noteNumber":72,"velocity":47,"programNumber":41},{"time":19999.980000000025,"duration":444.4439999999995,"noteNumber":72,"velocity":47,"programNumber":41},{"time":20444.424000000025,"duration":111.11100000000079,"noteNumber":72,"velocity":47,"programNumber":41},{"time":20555.535000000025,"duration":296.29599999999846,"noteNumber":71,"velocity":47,"programNumber":41},{"time":20888.868000000024,"duration":444.4439999999995,"noteNumber":71,"velocity":47,"programNumber":41},{"time":21333.312000000024,"duration":111.11100000000079,"noteNumber":71,"velocity":47,"programNumber":41},{"time":21444.423000000024,"duration":296.29599999999846,"noteNumber":69,"velocity":47,"programNumber":41},{"time":21777.756000000023,"duration":444.4439999999995,"noteNumber":69,"velocity":47,"programNumber":41},{"time":22222.200000000023,"duration":222.22200000000157,"noteNumber":67,"velocity":47,"programNumber":41},{"time":22444.422000000024,"duration":111.11100000000079,"noteNumber":66,"velocity":47,"programNumber":41},{"time":22666.644000000026,"duration":111.11100000000079,"noteNumber":64,"velocity":47,"programNumber":41},{"time":22888.866000000027,"duration":111.11100000000079,"noteNumber":66,"velocity":47,"programNumber":41},{"time":23111.08800000003,"duration":222.22200000000157,"noteNumber":67,"velocity":47,"programNumber":41},{"time":23555.532000000032,"duration":222.22200000000157,"noteNumber":69,"velocity":47,"programNumber":41},{"time":23999.976000000035,"duration":222.22200000000157,"noteNumber":71,"velocity":47,"programNumber":41},{"time":24888.864000000038,"duration":888.887999999999,"noteNumber":74,"velocity":47,"programNumber":41},{"time":25777.752000000037,"duration":888.887999999999,"noteNumber":76,"velocity":47,"programNumber":41},{"time":26666.640000000036,"duration":222.22200000000157,"noteNumber":74,"velocity":47,"programNumber":41},{"time":26888.862000000037,"duration":111.11100000000079,"noteNumber":72,"velocity":47,"programNumber":41},{"time":27111.08400000004,"duration":111.11100000000079,"noteNumber":72,"velocity":47,"programNumber":41},{"time":27333.30600000004,"duration":111.11100000000079,"noteNumber":72,"velocity":47,"programNumber":41},{"time":27555.528000000042,"duration":222.22200000000157,"noteNumber":72,"velocity":47,"programNumber":41},{"time":27777.750000000044,"duration":111.11100000000079,"noteNumber":71,"velocity":47,"programNumber":41},{"time":27999.972000000045,"duration":111.11100000000079,"noteNumber":71,"velocity":47,"programNumber":41},{"time":28222.194000000047,"duration":111.11100000000079,"noteNumber":71,"velocity":47,"programNumber":41},{"time":28444.41600000005,"duration":222.22200000000157,"noteNumber":71,"velocity":47,"programNumber":41},{"time":28666.63800000005,"duration":111.11100000000079,"noteNumber":69,"velocity":47,"programNumber":41},{"time":28888.86000000005,"duration":166.66649999999936,"noteNumber":69,"velocity":47,"programNumber":41},{"time":29111.08200000005,"duration":166.66649999999936,"noteNumber":69,"velocity":47,"programNumber":41},{"time":29333.304000000047,"duration":222.22200000000157,"noteNumber":67,"velocity":47,"programNumber":41},{"time":29555.52600000005,"duration":222.22200000000157,"noteNumber":66,"velocity":47,"programNumber":41},{"time":29777.74800000005,"duration":222.22200000000157,"noteNumber":64,"velocity":47,"programNumber":41},{"time":29999.970000000052,"duration":222.22200000000157,"noteNumber":66,"velocity":47,"programNumber":41},{"time":30222.192000000054,"duration":1111.1100000000006,"noteNumber":67,"velocity":85,"programNumber":41},{"time":30222.192000000054,"duration":1111.1100000000006,"noteNumber":55,"velocity":85,"programNumber":41},{"time":31333.302000000054,"duration":55.555499999998574,"noteNumber":67,"velocity":61,"programNumber":41},{"time":31388.857500000053,"duration":55.555499999998574,"noteNumber":69,"velocity":61,"programNumber":41},{"time":31444.41300000005,"duration":55.555499999998574,"noteNumber":66,"velocity":61,"programNumber":41},{"time":31499.96850000005,"duration":55.555499999998574,"noteNumber":67,"velocity":61,"programNumber":41},{"time":31555.52400000005,"duration":222.22200000000157,"noteNumber":69,"velocity":61,"programNumber":41},{"time":31777.74600000005,"duration":222.22200000000157,"noteNumber":66,"velocity":61,"programNumber":41},{"time":31999.96800000005,"duration":1111.1100000000006,"noteNumber":71,"velocity":85,"programNumber":41},{"time":33111.07800000005,"duration":55.55550000000221,"noteNumber":71,"velocity":61,"programNumber":41},{"time":33166.633500000054,"duration":55.55550000000221,"noteNumber":72,"velocity":61,"programNumber":41},{"time":33222.18900000006,"duration":55.55550000000221,"noteNumber":69,"velocity":61,"programNumber":41},{"time":33277.74450000006,"duration":55.55550000000221,"noteNumber":71,"velocity":61,"programNumber":41},{"time":33333.30000000006,"duration":222.22200000000157,"noteNumber":72,"velocity":61,"programNumber":41},{"time":33555.52200000006,"duration":222.22200000000157,"noteNumber":69,"velocity":61,"programNumber":41},{"time":33777.744000000064,"duration":74.07400000000052,"noteNumber":74,"velocity":46,"programNumber":41},{"time":33888.85500000006,"duration":74.07400000000052,"noteNumber":74,"velocity":46,"programNumber":41},{"time":33999.96600000006,"duration":74.07400000000052,"noteNumber":74,"velocity":47,"programNumber":41},{"time":34111.077000000056,"duration":74.07400000000052,"noteNumber":74,"velocity":47,"programNumber":41},{"time":34222.18800000005,"duration":74.07400000000052,"noteNumber":74,"velocity":49,"programNumber":41},{"time":34333.29900000005,"duration":74.07400000000052,"noteNumber":74,"velocity":50,"programNumber":41},{"time":34444.41000000005,"duration":74.07400000000052,"noteNumber":74,"velocity":50,"programNumber":41},{"time":34555.521000000044,"duration":74.07400000000052,"noteNumber":74,"velocity":52,"programNumber":41},{"time":34666.63200000004,"duration":74.07400000000052,"noteNumber":76,"velocity":53,"programNumber":41},{"time":34777.74300000004,"duration":74.07400000000052,"noteNumber":76,"velocity":53,"programNumber":41},{"time":34888.854000000036,"duration":74.07400000000052,"noteNumber":76,"velocity":55,"programNumber":41},{"time":34999.96500000003,"duration":74.07400000000052,"noteNumber":76,"velocity":56,"programNumber":41},{"time":35111.07600000003,"duration":74.07400000000052,"noteNumber":78,"velocity":56,"programNumber":41},{"time":35222.18700000003,"duration":74.07400000000052,"noteNumber":78,"velocity":58,"programNumber":41},{"time":35333.298000000024,"duration":74.07400000000052,"noteNumber":78,"velocity":58,"programNumber":41},{"time":35444.40900000002,"duration":74.07400000000052,"noteNumber":78,"velocity":59,"programNumber":41},{"time":35555.52000000002,"duration":74.07400000000052,"noteNumber":79,"velocity":61,"programNumber":41},{"time":35666.631000000016,"duration":74.07400000000052,"noteNumber":79,"velocity":61,"programNumber":41},{"time":35777.74200000001,"duration":74.07400000000052,"noteNumber":79,"velocity":62,"programNumber":41},{"time":35888.85300000001,"duration":74.07400000000052,"noteNumber":79,"velocity":64,"programNumber":41},{"time":35999.96400000001,"duration":74.07400000000052,"noteNumber":81,"velocity":64,"programNumber":41},{"time":36111.075000000004,"duration":74.07400000000052,"noteNumber":81,"velocity":65,"programNumber":41},{"time":36222.186,"duration":74.07400000000052,"noteNumber":81,"velocity":67,"programNumber":41},{"time":36333.297,"duration":74.07400000000052,"noteNumber":81,"velocity":67,"programNumber":41},{"time":36444.407999999996,"duration":74.07400000000052,"noteNumber":83,"velocity":68,"programNumber":41},{"time":36555.51899999999,"duration":74.07400000000052,"noteNumber":83,"velocity":68,"programNumber":41},{"time":36666.62999999999,"duration":74.07400000000052,"noteNumber":83,"velocity":70,"programNumber":41},{"time":36777.74099999999,"duration":74.07400000000052,"noteNumber":83,"velocity":71,"programNumber":41},{"time":36888.851999999984,"duration":74.07400000000052,"noteNumber":85,"velocity":71,"programNumber":41},{"time":36999.96299999998,"duration":74.07400000000052,"noteNumber":85,"velocity":73,"programNumber":41},{"time":37111.07399999998,"duration":74.07400000000052,"noteNumber":85,"velocity":74,"programNumber":41},{"time":37222.184999999976,"duration":74.07400000000052,"noteNumber":85,"velocity":74,"programNumber":41},{"time":37333.29599999997,"duration":666.6659999999974,"noteNumber":86,"velocity":85,"programNumber":41},{"time":37999.96199999997,"duration":222.22200000000157,"noteNumber":81,"velocity":85,"programNumber":41},{"time":38222.18399999997,"duration":333.3329999999987,"noteNumber":85,"velocity":94,"programNumber":41},{"time":38555.51699999997,"duration":111.11099999999715,"noteNumber":81,"velocity":85,"programNumber":41},{"time":38666.62799999997,"duration":333.3329999999987,"noteNumber":85,"velocity":85,"programNumber":41},{"time":38999.96099999997,"duration":111.11099999999715,"noteNumber":81,"velocity":85,"programNumber":41},{"time":39111.071999999964,"duration":666.6659999999974,"noteNumber":86,"velocity":85,"programNumber":41},{"time":39777.73799999996,"duration":222.22200000000157,"noteNumber":81,"velocity":85,"programNumber":41},{"time":39999.95999999996,"duration":333.3329999999987,"noteNumber":85,"velocity":85,"programNumber":41},{"time":40333.29299999996,"duration":111.11099999999715,"noteNumber":81,"velocity":85,"programNumber":41},{"time":40444.40399999996,"duration":333.3329999999987,"noteNumber":85,"velocity":85,"programNumber":41},{"time":40777.73699999996,"duration":111.11099999999715,"noteNumber":81,"velocity":85,"programNumber":41},{"time":40888.847999999954,"duration":111.11099999999715,"noteNumber":86,"velocity":85,"programNumber":41},{"time":41111.06999999995,"duration":333.3329999999987,"noteNumber":86,"velocity":85,"programNumber":41},{"time":41111.06999999995,"duration":333.3329999999987,"noteNumber":78,"velocity":85,"programNumber":41},{"time":41555.513999999945,"duration":333.3329999999987,"noteNumber":86,"velocity":85,"programNumber":41},{"time":41555.513999999945,"duration":333.3329999999987,"noteNumber":78,"velocity":85,"programNumber":41},{"time":41999.95799999994,"duration":333.3329999999987,"noteNumber":86,"velocity":85,"programNumber":41},{"time":41999.95799999994,"duration":333.3329999999987,"noteNumber":78,"velocity":85,"programNumber":41},{"time":42444.40199999994,"duration":222.22200000000157,"noteNumber":78,"velocity":85,"programNumber":41},{"time":42666.62399999994,"duration":111.11099999999715,"noteNumber":76,"velocity":85,"programNumber":41},{"time":42444.40199999994,"duration":333.3329999999987,"noteNumber":86,"velocity":85,"programNumber":41},{"time":42888.84599999993,"duration":333.3329999999987,"noteNumber":86,"velocity":85,"programNumber":41},{"time":42888.84599999993,"duration":333.3329999999987,"noteNumber":76,"velocity":85,"programNumber":41},{"time":43333.28999999993,"duration":333.3329999999987,"noteNumber":86,"velocity":85,"programNumber":41},{"time":43333.28999999993,"duration":333.3329999999987,"noteNumber":76,"velocity":85,"programNumber":41},{"time":43777.733999999924,"duration":333.3329999999987,"noteNumber":86,"velocity":85,"programNumber":41},{"time":43777.733999999924,"duration":333.3329999999987,"noteNumber":76,"velocity":85,"programNumber":41},{"time":44222.17799999992,"duration":222.22200000000157,"noteNumber":86,"velocity":85,"programNumber":41},{"time":44222.17799999992,"duration":222.22200000000157,"noteNumber":76,"velocity":85,"programNumber":41},{"time":44444.39999999992,"duration":166.66649999999936,"noteNumber":85,"velocity":92,"programNumber":41},{"time":44444.39999999992,"duration":166.66649999999936,"noteNumber":76,"velocity":92,"programNumber":41},{"time":44666.62199999992,"duration":166.66649999999936,"noteNumber":81,"velocity":85,"programNumber":41},{"time":44888.843999999925,"duration":166.66649999999936,"noteNumber":86,"velocity":85,"programNumber":41},{"time":45111.065999999926,"duration":166.66649999999936,"noteNumber":81,"velocity":85,"programNumber":41},{"time":45333.28799999993,"duration":166.66649999999936,"noteNumber":85,"velocity":85,"programNumber":41},{"time":45555.50999999993,"duration":166.66649999999936,"noteNumber":81,"velocity":85,"programNumber":41},{"time":45777.73199999993,"duration":166.66649999999936,"noteNumber":86,"velocity":85,"programNumber":41},{"time":45999.95399999993,"duration":166.66649999999936,"noteNumber":81,"velocity":85,"programNumber":41},{"time":46222.175999999934,"duration":166.66649999999936,"noteNumber":85,"velocity":94,"programNumber":41},{"time":46444.397999999936,"duration":166.66649999999936,"noteNumber":69,"velocity":85,"programNumber":41},{"time":46666.61999999994,"duration":166.66649999999936,"noteNumber":69,"velocity":85,"programNumber":41},{"time":46888.84199999994,"duration":166.66649999999936,"noteNumber":69,"velocity":85,"programNumber":41},{"time":47111.06399999994,"duration":444.44400000000314,"noteNumber":69,"velocity":85,"programNumber":41},{"time":47999.95199999994,"duration":666.6659999999902,"noteNumber":81,"velocity":55,"programNumber":41},{"time":48666.61799999993,"duration":74.07400000000052,"noteNumber":79,"velocity":55,"programNumber":41},{"time":48740.69199999993,"duration":74.07400000000052,"noteNumber":78,"velocity":55,"programNumber":41},{"time":48814.76599999993,"duration":74.07400000000052,"noteNumber":76,"velocity":55,"programNumber":41},{"time":48888.83999999993,"duration":222.22200000000157,"noteNumber":74,"velocity":55,"programNumber":41},{"time":49333.283999999934,"duration":222.22200000000157,"noteNumber":83,"velocity":55,"programNumber":41},{"time":49777.72799999994,"duration":222.22200000000157,"noteNumber":79,"velocity":55,"programNumber":41},{"time":50222.17199999994,"duration":222.22200000000157,"noteNumber":76,"velocity":55,"programNumber":41},{"time":50666.61599999994,"duration":222.22200000000157,"noteNumber":81,"velocity":55,"programNumber":41},{"time":51555.50399999994,"duration":666.6659999999974,"noteNumber":78,"velocity":55,"programNumber":41},{"time":52222.16999999994,"duration":74.07400000000052,"noteNumber":76,"velocity":55,"programNumber":41},{"time":52296.24399999994,"duration":74.07400000000052,"noteNumber":74,"velocity":55,"programNumber":41},{"time":52370.31799999994,"duration":74.07400000000052,"noteNumber":73,"velocity":55,"programNumber":41},{"time":52444.39199999994,"duration":222.22200000000157,"noteNumber":71,"velocity":55,"programNumber":41},{"time":52888.835999999945,"duration":222.22200000000157,"noteNumber":79,"velocity":55,"programNumber":41},{"time":53333.27999999995,"duration":888.887999999999,"noteNumber":78,"velocity":55,"programNumber":41},{"time":54222.16799999995,"duration":444.44400000000314,"noteNumber":76,"velocity":49,"programNumber":41},{"time":55333.27799999995,"duration":111.11099999999715,"noteNumber":81,"velocity":55,"programNumber":41},{"time":55555.49999999994,"duration":111.11099999999715,"noteNumber":81,"velocity":55,"programNumber":41},{"time":55777.721999999936,"duration":111.11099999999715,"noteNumber":81,"velocity":55,"programNumber":41},{"time":55999.94399999993,"duration":111.11099999999715,"noteNumber":81,"velocity":55,"programNumber":41},{"time":56222.165999999925,"duration":111.11099999999715,"noteNumber":81,"velocity":55,"programNumber":41},{"time":56444.38799999992,"duration":111.11099999999715,"noteNumber":81,"velocity":55,"programNumber":41},{"time":56666.60999999991,"duration":111.11099999999715,"noteNumber":81,"velocity":55,"programNumber":41},{"time":56888.83199999991,"duration":111.11099999999715,"noteNumber":81,"velocity":55,"programNumber":41},{"time":57111.0539999999,"duration":111.11099999999715,"noteNumber":81,"velocity":55,"programNumber":41},{"time":57333.275999999896,"duration":111.11099999999715,"noteNumber":81,"velocity":55,"programNumber":41},{"time":57555.49799999989,"duration":111.11099999999715,"noteNumber":81,"velocity":55,"programNumber":41},{"time":57777.719999999885,"duration":111.11099999999715,"noteNumber":81,"velocity":55,"programNumber":41},{"time":57999.94199999988,"duration":111.11099999999715,"noteNumber":81,"velocity":55,"programNumber":41},{"time":58222.16399999987,"duration":111.11099999999715,"noteNumber":83,"velocity":55,"programNumber":41},{"time":58444.38599999987,"duration":111.11099999999715,"noteNumber":85,"velocity":55,"programNumber":41},{"time":58666.60799999986,"duration":222.22200000000157,"noteNumber":85,"velocity":55,"programNumber":41},{"time":58888.82999999986,"duration":222.22200000000157,"noteNumber":86,"velocity":55,"programNumber":41},{"time":59333.27399999987,"duration":111.11099999999715,"noteNumber":83,"velocity":55,"programNumber":41},{"time":59555.49599999986,"duration":222.22200000000157,"noteNumber":83,"velocity":55,"programNumber":41},{"time":59777.71799999986,"duration":222.22200000000157,"noteNumber":81,"velocity":55,"programNumber":41},{"time":60222.161999999866,"duration":166.66649999999936,"noteNumber":73,"velocity":55,"programNumber":41},{"time":60444.38399999987,"duration":444.44400000000314,"noteNumber":74,"velocity":55,"programNumber":41},{"time":61111.04999999987,"duration":111.11099999999715,"noteNumber":81,"velocity":55,"programNumber":41},{"time":61333.271999999866,"duration":222.22200000000157,"noteNumber":86,"velocity":55,"programNumber":41},{"time":61555.49399999987,"duration":222.22200000000157,"noteNumber":85,"velocity":55,"programNumber":41},{"time":61777.71599999987,"duration":222.22200000000157,"noteNumber":83,"velocity":55,"programNumber":41},{"time":61999.93799999987,"duration":222.22200000000157,"noteNumber":81,"velocity":55,"programNumber":41},{"time":62222.15999999987,"duration":55.55550000000221,"noteNumber":83,"velocity":55,"programNumber":41},{"time":62277.715499999875,"duration":55.55550000000221,"noteNumber":85,"velocity":55,"programNumber":41},{"time":62333.27099999988,"duration":55.55550000000221,"noteNumber":83,"velocity":55,"programNumber":41},{"time":62388.82649999988,"duration":55.55550000000221,"noteNumber":85,"velocity":55,"programNumber":41},{"time":62444.38199999988,"duration":222.22200000000157,"noteNumber":81,"velocity":55,"programNumber":41},{"time":62888.825999999885,"duration":111.11099999999715,"noteNumber":81,"velocity":55,"programNumber":41},{"time":63111.04799999988,"duration":111.11099999999715,"noteNumber":81,"velocity":55,"programNumber":41},{"time":63333.26999999987,"duration":111.11099999999715,"noteNumber":81,"velocity":55,"programNumber":41},{"time":63555.49199999987,"duration":111.11099999999715,"noteNumber":81,"velocity":55,"programNumber":41},{"time":63777.71399999986,"duration":111.11099999999715,"noteNumber":81,"velocity":55,"programNumber":41},{"time":63999.935999999856,"duration":55.55550000000221,"noteNumber":83,"velocity":55,"programNumber":41},{"time":64055.49149999986,"duration":55.55550000000221,"noteNumber":85,"velocity":55,"programNumber":41},{"time":64111.04699999986,"duration":55.55550000000221,"noteNumber":83,"velocity":55,"programNumber":41},{"time":64166.60249999986,"duration":55.55550000000221,"noteNumber":85,"velocity":55,"programNumber":41},{"time":64222.157999999865,"duration":222.22200000000157,"noteNumber":81,"velocity":55,"programNumber":41},{"time":64666.60199999987,"duration":166.66649999999936,"noteNumber":81,"velocity":55,"programNumber":41},{"time":64888.82399999987,"duration":222.22200000000157,"noteNumber":86,"velocity":55,"programNumber":41},{"time":65111.04599999987,"duration":222.22200000000157,"noteNumber":85,"velocity":55,"programNumber":41},{"time":65333.26799999987,"duration":222.22200000000157,"noteNumber":83,"velocity":55,"programNumber":41},{"time":65555.48999999987,"duration":222.2219999999943,"noteNumber":81,"velocity":55,"programNumber":41},{"time":65777.71199999987,"duration":55.55550000000221,"noteNumber":83,"velocity":55,"programNumber":41},{"time":65833.26749999987,"duration":55.55550000000221,"noteNumber":85,"velocity":55,"programNumber":41},{"time":65888.82299999987,"duration":55.55550000000221,"noteNumber":83,"velocity":55,"programNumber":41},{"time":65944.37849999988,"duration":55.55550000000221,"noteNumber":85,"velocity":55,"programNumber":41},{"time":65999.93399999988,"duration":222.2219999999943,"noteNumber":81,"velocity":55,"programNumber":41},{"time":66444.37799999987,"duration":111.11100000000442,"noteNumber":81,"velocity":55,"programNumber":41},{"time":66666.59999999987,"duration":111.11100000000442,"noteNumber":81,"velocity":55,"programNumber":41},{"time":66888.82199999988,"duration":111.11100000000442,"noteNumber":81,"velocity":55,"programNumber":41},{"time":67111.04399999989,"duration":111.11100000000442,"noteNumber":81,"velocity":55,"programNumber":41},{"time":67333.2659999999,"duration":111.11100000000442,"noteNumber":81,"velocity":53,"programNumber":41},{"time":67555.48799999991,"duration":55.55550000000221,"noteNumber":83,"velocity":49,"programNumber":41},{"time":67611.04349999991,"duration":55.55550000000221,"noteNumber":85,"velocity":49,"programNumber":41},{"time":67666.59899999991,"duration":55.55550000000221,"noteNumber":83,"velocity":47,"programNumber":41},{"time":67722.15449999992,"duration":55.55550000000221,"noteNumber":85,"velocity":47,"programNumber":41},{"time":67777.70999999992,"duration":222.2219999999943,"noteNumber":81,"velocity":46,"programNumber":41},{"time":68444.37599999992,"duration":629.6290000000008,"noteNumber":83,"velocity":91,"programNumber":41},{"time":68444.37599999992,"duration":629.6290000000008,"noteNumber":71,"velocity":91,"programNumber":41},{"time":69111.04199999991,"duration":74.07399999999325,"noteNumber":81,"velocity":89,"programNumber":41},{"time":69185.1159999999,"duration":74.07399999999325,"noteNumber":79,"velocity":92,"programNumber":41},{"time":69259.1899999999,"duration":74.07399999999325,"noteNumber":78,"velocity":94,"programNumber":41},{"time":69333.2639999999,"duration":444.44400000000314,"noteNumber":79,"velocity":97,"programNumber":41},{"time":70222.1519999999,"duration":629.6290000000008,"noteNumber":69,"velocity":85,"programNumber":41},{"time":70222.1519999999,"duration":629.6290000000008,"noteNumber":81,"velocity":85,"programNumber":41},{"time":70888.8179999999,"duration":74.07399999999325,"noteNumber":79,"velocity":86,"programNumber":41},{"time":70962.89199999989,"duration":74.07399999999325,"noteNumber":78,"velocity":86,"programNumber":41},{"time":71036.96599999988,"duration":74.07399999999325,"noteNumber":76,"velocity":89,"programNumber":41},{"time":71111.03999999988,"duration":444.44400000000314,"noteNumber":78,"velocity":92,"programNumber":41},{"time":71999.92799999988,"duration":222.2219999999943,"noteNumber":83,"velocity":85,"programNumber":41},{"time":72222.14999999988,"duration":111.11100000000442,"noteNumber":85,"velocity":85,"programNumber":41},{"time":72333.26099999988,"duration":111.11100000000442,"noteNumber":86,"velocity":89,"programNumber":41},{"time":72444.37199999989,"duration":166.66650000000664,"noteNumber":85,"velocity":94,"programNumber":41},{"time":72666.5939999999,"duration":111.11100000000442,"noteNumber":83,"velocity":95,"programNumber":41},{"time":72888.8159999999,"duration":222.2219999999943,"noteNumber":83,"velocity":97,"programNumber":41},{"time":73111.0379999999,"duration":166.66650000000664,"noteNumber":81,"velocity":101,"programNumber":41},{"time":73333.25999999991,"duration":111.11100000000442,"noteNumber":78,"velocity":104,"programNumber":41},{"time":73555.48199999992,"duration":111.11100000000442,"noteNumber":81,"velocity":104,"programNumber":41},{"time":73777.70399999993,"duration":222.2219999999943,"noteNumber":81,"velocity":104,"programNumber":41},{"time":73999.92599999992,"duration":166.66650000000664,"noteNumber":79,"velocity":103,"programNumber":41},{"time":74222.14799999993,"duration":111.11100000000442,"noteNumber":78,"velocity":98,"programNumber":41},{"time":74444.36999999994,"duration":111.11100000000442,"noteNumber":76,"velocity":89,"programNumber":41},{"time":74666.59199999995,"duration":444.44400000000314,"noteNumber":74,"velocity":85,"programNumber":41},{"time":75333.25799999994,"duration":111.11100000000442,"noteNumber":81,"velocity":53,"programNumber":41},{"time":75555.47999999995,"duration":222.2219999999943,"noteNumber":86,"velocity":53,"programNumber":41},{"time":75777.70199999995,"duration":222.2219999999943,"noteNumber":85,"velocity":53,"programNumber":41},{"time":75999.92399999994,"duration":222.2219999999943,"noteNumber":83,"velocity":53,"programNumber":41},{"time":76222.14599999994,"duration":222.2219999999943,"noteNumber":81,"velocity":53,"programNumber":41},{"time":76444.36799999993,"duration":55.55550000000221,"noteNumber":83,"velocity":55,"programNumber":41},{"time":76499.92349999993,"duration":55.55550000000221,"noteNumber":85,"velocity":55,"programNumber":41},{"time":76555.47899999993,"duration":55.55550000000221,"noteNumber":83,"velocity":55,"programNumber":41},{"time":76611.03449999994,"duration":55.55550000000221,"noteNumber":85,"velocity":55,"programNumber":41},{"time":76666.58999999994,"duration":222.2219999999943,"noteNumber":81,"velocity":55,"programNumber":41},{"time":77111.03399999993,"duration":111.11100000000442,"noteNumber":81,"velocity":55,"programNumber":41},{"time":77333.25599999994,"duration":111.11100000000442,"noteNumber":81,"velocity":55,"programNumber":41},{"time":77555.47799999994,"duration":111.11100000000442,"noteNumber":81,"velocity":55,"programNumber":41},{"time":77777.69999999995,"duration":111.11100000000442,"noteNumber":81,"velocity":55,"programNumber":41},{"time":77999.92199999996,"duration":111.11100000000442,"noteNumber":81,"velocity":55,"programNumber":41},{"time":78222.14399999997,"duration":55.55550000000221,"noteNumber":83,"velocity":55,"programNumber":41},{"time":78277.69949999997,"duration":55.55550000000221,"noteNumber":85,"velocity":55,"programNumber":41},{"time":78333.25499999998,"duration":55.55550000000221,"noteNumber":83,"velocity":55,"programNumber":41},{"time":78388.81049999998,"duration":55.55550000000221,"noteNumber":85,"velocity":55,"programNumber":41},{"time":78444.36599999998,"duration":222.2219999999943,"noteNumber":81,"velocity":55,"programNumber":41},{"time":78888.80999999997,"duration":166.66650000000664,"noteNumber":81,"velocity":55,"programNumber":41},{"time":79111.03199999998,"duration":222.2219999999943,"noteNumber":86,"velocity":55,"programNumber":41},{"time":79333.25399999997,"duration":222.2219999999943,"noteNumber":85,"velocity":55,"programNumber":41},{"time":79555.47599999997,"duration":222.2219999999943,"noteNumber":83,"velocity":55,"programNumber":41},{"time":79777.69799999996,"duration":222.2219999999943,"noteNumber":81,"velocity":55,"programNumber":41},{"time":79999.91999999995,"duration":55.55550000000221,"noteNumber":83,"velocity":55,"programNumber":41},{"time":80055.47549999996,"duration":55.55550000000221,"noteNumber":85,"velocity":55,"programNumber":41},{"time":80111.03099999996,"duration":55.55550000000221,"noteNumber":83,"velocity":55,"programNumber":41},{"time":80166.58649999996,"duration":55.55550000000221,"noteNumber":85,"velocity":55,"programNumber":41},{"time":80222.14199999996,"duration":222.2219999999943,"noteNumber":81,"velocity":55,"programNumber":41},{"time":80666.58599999995,"duration":111.11100000000442,"noteNumber":81,"velocity":55,"programNumber":41},{"time":80888.80799999996,"duration":111.11100000000442,"noteNumber":81,"velocity":55,"programNumber":41},{"time":81111.02999999997,"duration":111.11100000000442,"noteNumber":81,"velocity":55,"programNumber":41},{"time":81333.25199999998,"duration":111.11100000000442,"noteNumber":81,"velocity":55,"programNumber":41},{"time":81555.47399999999,"duration":111.11100000000442,"noteNumber":81,"velocity":55,"programNumber":41},{"time":81777.696,"duration":55.55550000000221,"noteNumber":83,"velocity":59,"programNumber":41},{"time":81833.2515,"duration":55.55550000000221,"noteNumber":85,"velocity":59,"programNumber":41},{"time":81888.807,"duration":55.55550000000221,"noteNumber":83,"velocity":59,"programNumber":41},{"time":81944.3625,"duration":55.55550000000221,"noteNumber":85,"velocity":59,"programNumber":41},{"time":81999.918,"duration":222.2219999999943,"noteNumber":81,"velocity":59,"programNumber":41},{"time":82666.584,"duration":629.6290000000008,"noteNumber":83,"velocity":85,"programNumber":41},{"time":82666.584,"duration":629.6290000000008,"noteNumber":71,"velocity":85,"programNumber":41},{"time":83333.25,"duration":74.07399999999325,"noteNumber":81,"velocity":85,"programNumber":41},{"time":83407.324,"duration":74.07399999999325,"noteNumber":79,"velocity":85,"programNumber":41},{"time":83481.39799999999,"duration":74.07399999999325,"noteNumber":78,"velocity":85,"programNumber":41},{"time":83555.47199999998,"duration":444.44400000000314,"noteNumber":79,"velocity":85,"programNumber":41},{"time":84444.35999999999,"duration":629.6290000000008,"noteNumber":69,"velocity":85,"programNumber":41},{"time":84444.35999999999,"duration":629.6290000000008,"noteNumber":81,"velocity":85,"programNumber":41},{"time":85111.02599999998,"duration":74.07399999999325,"noteNumber":79,"velocity":85,"programNumber":41},{"time":85185.09999999998,"duration":74.07399999999325,"noteNumber":78,"velocity":85,"programNumber":41},{"time":85259.17399999997,"duration":74.07399999999325,"noteNumber":76,"velocity":85,"programNumber":41},{"time":85333.24799999996,"duration":444.44400000000314,"noteNumber":78,"velocity":85,"programNumber":41},{"time":86222.13599999997,"duration":222.2219999999943,"noteNumber":83,"velocity":80,"programNumber":41},{"time":86444.35799999996,"duration":111.11100000000442,"noteNumber":85,"velocity":82,"programNumber":41},{"time":86555.46899999997,"duration":111.11100000000442,"noteNumber":86,"velocity":83,"programNumber":41},{"time":86666.57999999997,"duration":166.66650000000664,"noteNumber":85,"velocity":83,"programNumber":41},{"time":86888.80199999998,"duration":111.11100000000442,"noteNumber":83,"velocity":85,"programNumber":41},{"time":87111.02399999999,"duration":222.2219999999943,"noteNumber":83,"velocity":86,"programNumber":41},{"time":87333.24599999998,"duration":166.66650000000664,"noteNumber":81,"velocity":88,"programNumber":41},{"time":87555.468,"duration":111.11100000000442,"noteNumber":78,"velocity":88,"programNumber":41},{"time":87777.69,"duration":111.11100000000442,"noteNumber":81,"velocity":88,"programNumber":41},{"time":87999.91200000001,"duration":222.2219999999943,"noteNumber":81,"velocity":88,"programNumber":41},{"time":88222.134,"duration":166.66650000000664,"noteNumber":79,"velocity":88,"programNumber":41},{"time":88444.35600000001,"duration":111.11100000000442,"noteNumber":78,"velocity":88,"programNumber":41},{"time":88666.57800000002,"duration":111.11100000000442,"noteNumber":76,"velocity":88,"programNumber":41},{"time":88888.80000000003,"duration":166.66650000000664,"noteNumber":74,"velocity":88,"programNumber":41},{"time":89111.02200000004,"duration":166.66650000000664,"noteNumber":69,"velocity":88,"programNumber":41},{"time":89333.24400000005,"duration":166.66650000000664,"noteNumber":71,"velocity":88,"programNumber":41},{"time":89555.46600000006,"duration":166.66650000000664,"noteNumber":73,"velocity":85,"programNumber":41},{"time":89777.68800000007,"duration":111.11100000000442,"noteNumber":74,"velocity":82,"programNumber":41},{"time":89999.91000000008,"duration":111.11100000000442,"noteNumber":74,"velocity":85,"programNumber":41},{"time":90222.13200000009,"duration":55.55550000000221,"noteNumber":76,"velocity":85,"programNumber":41},{"time":90277.68750000009,"duration":55.55550000000221,"noteNumber":78,"velocity":85,"programNumber":41},{"time":90333.24300000009,"duration":55.55550000000221,"noteNumber":76,"velocity":85,"programNumber":41},{"time":90388.79850000009,"duration":55.55550000000221,"noteNumber":78,"velocity":85,"programNumber":41},{"time":90444.3540000001,"duration":111.11100000000442,"noteNumber":74,"velocity":85,"programNumber":41},{"time":90555.4650000001,"duration":111.11100000000442,"noteNumber":76,"velocity":85,"programNumber":41},{"time":90666.5760000001,"duration":222.2219999999943,"noteNumber":78,"velocity":85,"programNumber":41},{"time":90888.7980000001,"duration":166.66650000000664,"noteNumber":73,"velocity":85,"programNumber":41},{"time":91111.0200000001,"duration":166.66650000000664,"noteNumber":74,"velocity":85,"programNumber":41},{"time":91333.24200000011,"duration":166.66650000000664,"noteNumber":76,"velocity":85,"programNumber":41},{"time":91555.46400000012,"duration":166.66650000000664,"noteNumber":78,"velocity":85,"programNumber":41},{"time":91777.68600000013,"duration":166.66650000000664,"noteNumber":78,"velocity":85,"programNumber":41},{"time":91999.90800000014,"duration":55.55550000000221,"noteNumber":79,"velocity":85,"programNumber":41},{"time":92055.46350000014,"duration":55.55550000000221,"noteNumber":81,"velocity":86,"programNumber":41},{"time":92111.01900000015,"duration":55.55550000000221,"noteNumber":79,"velocity":88,"programNumber":41},{"time":92166.57450000015,"duration":55.55550000000221,"noteNumber":81,"velocity":88,"programNumber":41},{"time":92222.13000000015,"duration":111.11100000000442,"noteNumber":78,"velocity":88,"programNumber":41},{"time":92333.24100000015,"duration":111.11100000000442,"noteNumber":79,"velocity":88,"programNumber":41},{"time":92444.35200000016,"duration":166.66650000000664,"noteNumber":81,"velocity":88,"programNumber":41},{"time":92666.57400000017,"duration":166.66650000000664,"noteNumber":81,"velocity":91,"programNumber":41},{"time":92888.79600000018,"duration":55.55550000000221,"noteNumber":82,"velocity":92,"programNumber":41},{"time":92944.35150000018,"duration":55.55550000000221,"noteNumber":83,"velocity":92,"programNumber":41},{"time":92999.90700000018,"duration":55.55550000000221,"noteNumber":82,"velocity":94,"programNumber":41},{"time":93055.46250000018,"duration":55.55550000000221,"noteNumber":83,"velocity":94,"programNumber":41},{"time":93111.01800000019,"duration":111.11100000000442,"noteNumber":80,"velocity":95,"programNumber":41},{"time":93222.12900000019,"duration":111.11100000000442,"noteNumber":82,"velocity":97,"programNumber":41},{"time":93333.2400000002,"duration":444.44400000000314,"noteNumber":83,"velocity":100,"programNumber":41},{"time":94222.1280000002,"duration":666.6659999999974,"noteNumber":71,"velocity":47,"programNumber":41},{"time":94888.7940000002,"duration":166.66650000000664,"noteNumber":76,"velocity":47,"programNumber":41},{"time":95111.0160000002,"duration":222.2219999999943,"noteNumber":74,"velocity":47,"programNumber":41},{"time":95333.2380000002,"duration":222.2219999999943,"noteNumber":73,"velocity":47,"programNumber":41},{"time":95555.4600000002,"duration":222.2219999999943,"noteNumber":71,"velocity":49,"programNumber":41},{"time":95777.68200000019,"duration":222.2219999999943,"noteNumber":69,"velocity":50,"programNumber":41},{"time":95999.90400000018,"duration":222.2219999999943,"noteNumber":74,"velocity":50,"programNumber":41},{"time":96444.34800000017,"duration":222.2219999999943,"noteNumber":78,"velocity":50,"programNumber":41},{"time":96888.79200000016,"duration":222.2219999999943,"noteNumber":74,"velocity":41,"programNumber":41},{"time":97777.68000000015,"duration":444.44400000000314,"noteNumber":71,"velocity":85,"programNumber":41},{"time":97777.68000000015,"duration":444.44400000000314,"noteNumber":79,"velocity":85,"programNumber":41},{"time":97777.68000000015,"duration":444.44400000000314,"noteNumber":62,"velocity":85,"programNumber":41},{"time":98444.34600000015,"duration":111.11100000000442,"noteNumber":74,"velocity":85,"programNumber":41},{"time":98666.56800000016,"duration":444.44400000000314,"noteNumber":79,"velocity":85,"programNumber":41},{"time":99333.23400000016,"duration":111.11100000000442,"noteNumber":74,"velocity":85,"programNumber":41},{"time":99555.45600000017,"duration":111.11100000000442,"noteNumber":79,"velocity":85,"programNumber":41},{"time":99777.67800000017,"duration":111.11100000000442,"noteNumber":74,"velocity":85,"programNumber":41},{"time":99999.90000000018,"duration":111.11100000000442,"noteNumber":79,"velocity":85,"programNumber":41},{"time":100222.12200000019,"duration":111.11100000000442,"noteNumber":83,"velocity":85,"programNumber":41},{"time":100444.3440000002,"duration":444.44400000000314,"noteNumber":86,"velocity":85,"programNumber":41},{"time":101333.23200000021,"duration":444.44400000000314,"noteNumber":84,"velocity":85,"programNumber":41},{"time":101999.8980000002,"duration":111.11100000000442,"noteNumber":81,"velocity":76,"programNumber":41},{"time":102222.12000000021,"duration":444.44400000000314,"noteNumber":84,"velocity":85,"programNumber":41},{"time":102888.78600000021,"duration":111.11100000000442,"noteNumber":81,"velocity":76,"programNumber":41},{"time":103111.00800000022,"duration":111.11100000000442,"noteNumber":84,"velocity":85,"programNumber":41},{"time":103333.23000000023,"duration":111.11100000000442,"noteNumber":81,"velocity":74,"programNumber":41},{"time":103555.45200000024,"duration":111.11100000000442,"noteNumber":78,"velocity":85,"programNumber":41},{"time":103777.67400000025,"duration":111.11100000000442,"noteNumber":81,"velocity":71,"programNumber":41},{"time":103999.89600000026,"duration":444.44400000000314,"noteNumber":74,"velocity":85,"programNumber":41},{"time":104888.78400000026,"duration":222.2219999999943,"noteNumber":71,"velocity":85,"programNumber":41},{"time":104888.78400000026,"duration":222.2219999999943,"noteNumber":79,"velocity":85,"programNumber":41},{"time":104888.78400000026,"duration":222.2219999999943,"noteNumber":62,"velocity":85,"programNumber":41},{"time":105333.22800000025,"duration":666.6659999999974,"noteNumber":79,"velocity":85,"programNumber":41},{"time":105999.89400000025,"duration":222.2219999999943,"noteNumber":83,"velocity":85,"programNumber":41},{"time":106222.11600000024,"duration":111.11100000000442,"noteNumber":81,"velocity":85,"programNumber":41},{"time":106444.33800000025,"duration":111.11100000000442,"noteNumber":79,"velocity":85,"programNumber":41},{"time":106666.56000000026,"duration":55.55550000000221,"noteNumber":79,"velocity":85,"programNumber":41},{"time":106722.11550000026,"duration":55.55550000000221,"noteNumber":81,"velocity":85,"programNumber":41},{"time":106777.67100000026,"duration":55.55550000000221,"noteNumber":79,"velocity":85,"programNumber":41},{"time":106833.22650000027,"duration":55.55550000000221,"noteNumber":81,"velocity":85,"programNumber":41},{"time":106888.78200000027,"duration":185.18499999999767,"noteNumber":78,"velocity":85,"programNumber":41},{"time":107111.00400000026,"duration":666.6659999999974,"noteNumber":78,"velocity":85,"programNumber":41},{"time":107777.67000000026,"duration":222.2219999999943,"noteNumber":81,"velocity":85,"programNumber":41},{"time":107999.89200000025,"duration":111.11100000000442,"noteNumber":84,"velocity":85,"programNumber":41},{"time":108222.11400000026,"duration":111.11100000000442,"noteNumber":78,"velocity":85,"programNumber":41},{"time":108444.33600000027,"duration":222.2219999999943,"noteNumber":81,"velocity":85,"programNumber":41},{"time":108666.55800000027,"duration":111.11100000000442,"noteNumber":79,"velocity":85,"programNumber":41},{"time":108888.78000000028,"duration":666.6659999999974,"noteNumber":79,"velocity":85,"programNumber":41},{"time":109555.44600000027,"duration":222.2219999999943,"noteNumber":83,"velocity":85,"programNumber":41},{"time":109777.66800000027,"duration":111.11100000000442,"noteNumber":81,"velocity":85,"programNumber":41},{"time":109999.89000000028,"duration":111.11100000000442,"noteNumber":79,"velocity":85,"programNumber":41},{"time":110222.11200000028,"duration":55.55550000000221,"noteNumber":79,"velocity":85,"programNumber":41},{"time":110277.66750000029,"duration":55.55550000000221,"noteNumber":81,"velocity":85,"programNumber":41},{"time":110333.22300000029,"duration":55.55550000000221,"noteNumber":79,"velocity":85,"programNumber":41},{"time":110388.77850000029,"duration":55.55550000000221,"noteNumber":81,"velocity":85,"programNumber":41},{"time":110444.3340000003,"duration":185.18499999999767,"noteNumber":78,"velocity":85,"programNumber":41},{"time":110666.55600000029,"duration":666.6659999999974,"noteNumber":78,"velocity":85,"programNumber":41},{"time":111333.22200000029,"duration":222.2219999999943,"noteNumber":81,"velocity":85,"programNumber":41},{"time":111555.44400000028,"duration":111.11100000000442,"noteNumber":84,"velocity":85,"programNumber":41},{"time":111777.66600000029,"duration":111.11100000000442,"noteNumber":78,"velocity":85,"programNumber":41},{"time":111999.8880000003,"duration":111.11100000000442,"noteNumber":79,"velocity":85,"programNumber":41},{"time":112222.1100000003,"duration":111.11100000000442,"noteNumber":79,"velocity":85,"programNumber":41},{"time":112444.33200000032,"duration":111.11100000000442,"noteNumber":79,"velocity":85,"programNumber":41},{"time":112555.44300000032,"duration":111.11100000000442,"noteNumber":78,"velocity":85,"programNumber":41},{"time":112666.55400000032,"duration":111.11100000000442,"noteNumber":76,"velocity":85,"programNumber":41},{"time":112777.66500000033,"duration":111.11100000000442,"noteNumber":78,"velocity":85,"programNumber":41},{"time":112888.77600000033,"duration":111.11100000000442,"noteNumber":79,"velocity":85,"programNumber":41},{"time":113110.99800000034,"duration":111.11100000000442,"noteNumber":79,"velocity":85,"programNumber":41},{"time":113333.22000000035,"duration":111.11100000000442,"noteNumber":83,"velocity":85,"programNumber":41},{"time":113444.33100000035,"duration":111.11100000000442,"noteNumber":81,"velocity":85,"programNumber":41},{"time":113555.44200000036,"duration":111.11100000000442,"noteNumber":79,"velocity":85,"programNumber":41},{"time":113666.55300000036,"duration":111.11100000000442,"noteNumber":81,"velocity":85,"programNumber":41},{"time":113777.66400000037,"duration":111.11100000000442,"noteNumber":83,"velocity":85,"programNumber":41},{"time":113999.88600000038,"duration":111.11100000000442,"noteNumber":83,"velocity":85,"programNumber":41},{"time":114222.10800000039,"duration":111.11100000000442,"noteNumber":86,"velocity":85,"programNumber":41},{"time":114333.21900000039,"duration":111.11100000000442,"noteNumber":84,"velocity":85,"programNumber":41},{"time":114444.3300000004,"duration":111.11100000000442,"noteNumber":83,"velocity":85,"programNumber":41},{"time":114555.4410000004,"duration":111.11100000000442,"noteNumber":84,"velocity":85,"programNumber":41},{"time":114666.5520000004,"duration":444.44400000000314,"noteNumber":86,"velocity":85,"programNumber":41},{"time":115555.44000000041,"duration":888.8880000000063,"noteNumber":74,"velocity":52,"programNumber":41},{"time":116444.32800000042,"duration":888.8880000000063,"noteNumber":76,"velocity":40,"programNumber":41},{"time":117333.21600000042,"duration":111.11100000000442,"noteNumber":74,"velocity":44,"programNumber":41},{"time":117444.32700000043,"duration":296.2960000000021,"noteNumber":72,"velocity":46,"programNumber":41},{"time":117777.66000000043,"duration":444.44400000000314,"noteNumber":72,"velocity":46,"programNumber":41},{"time":118222.10400000043,"duration":111.11100000000442,"noteNumber":72,"velocity":47,"programNumber":41},{"time":118333.21500000043,"duration":296.2960000000021,"noteNumber":71,"velocity":47,"programNumber":41},{"time":118666.54800000043,"duration":444.44400000000314,"noteNumber":71,"velocity":47,"programNumber":41},{"time":119110.99200000043,"duration":111.11100000000442,"noteNumber":71,"velocity":47,"programNumber":41},{"time":119222.10300000044,"duration":296.2960000000021,"noteNumber":69,"velocity":47,"programNumber":41},{"time":119555.43600000044,"duration":444.44400000000314,"noteNumber":69,"velocity":47,"programNumber":41},{"time":119999.88000000044,"duration":222.2219999999943,"noteNumber":67,"velocity":47,"programNumber":41},{"time":120222.10200000044,"duration":111.11100000000442,"noteNumber":66,"velocity":47,"programNumber":41},{"time":120444.32400000044,"duration":111.11100000000442,"noteNumber":64,"velocity":47,"programNumber":41},{"time":120666.54600000045,"duration":111.11100000000442,"noteNumber":66,"velocity":47,"programNumber":41},{"time":120888.76800000046,"duration":222.2219999999943,"noteNumber":67,"velocity":47,"programNumber":41},{"time":121333.21200000045,"duration":222.2219999999943,"noteNumber":69,"velocity":47,"programNumber":41},{"time":121777.65600000044,"duration":222.2219999999943,"noteNumber":71,"velocity":47,"programNumber":41},{"time":122666.54400000043,"duration":888.8880000000063,"noteNumber":74,"velocity":54,"programNumber":41},{"time":123555.43200000044,"duration":888.8880000000063,"noteNumber":76,"velocity":59,"programNumber":41},{"time":124444.32000000044,"duration":222.2219999999943,"noteNumber":74,"velocity":47,"programNumber":41},{"time":124666.54200000044,"duration":111.11100000000442,"noteNumber":72,"velocity":47,"programNumber":41},{"time":124888.76400000045,"duration":111.11100000000442,"noteNumber":72,"velocity":47,"programNumber":41},{"time":125110.98600000046,"duration":111.11100000000442,"noteNumber":72,"velocity":47,"programNumber":41},{"time":125333.20800000046,"duration":222.2219999999943,"noteNumber":72,"velocity":47,"programNumber":41},{"time":125555.43000000046,"duration":111.11100000000442,"noteNumber":71,"velocity":47,"programNumber":41},{"time":125777.65200000047,"duration":111.11100000000442,"noteNumber":71,"velocity":47,"programNumber":41},{"time":125999.87400000048,"duration":111.11100000000442,"noteNumber":71,"velocity":47,"programNumber":41},{"time":126222.09600000049,"duration":222.2219999999943,"noteNumber":71,"velocity":47,"programNumber":41},{"time":126444.31800000048,"duration":111.11100000000442,"noteNumber":69,"velocity":47,"programNumber":41},{"time":126666.54000000049,"duration":166.66650000000664,"noteNumber":69,"velocity":47,"programNumber":41},{"time":126888.7620000005,"duration":166.66650000000664,"noteNumber":69,"velocity":47,"programNumber":41},{"time":127110.9840000005,"duration":222.2219999999943,"noteNumber":67,"velocity":47,"programNumber":41},{"time":127333.2060000005,"duration":222.2219999999943,"noteNumber":66,"velocity":47,"programNumber":41},{"time":127555.4280000005,"duration":222.2219999999943,"noteNumber":64,"velocity":47,"programNumber":41},{"time":127777.65000000049,"duration":222.2219999999943,"noteNumber":66,"velocity":47,"programNumber":41},{"time":127999.87200000048,"duration":1111.1100000000006,"noteNumber":67,"velocity":95,"programNumber":41},{"time":127999.87200000048,"duration":1111.1100000000006,"noteNumber":55,"velocity":95,"programNumber":41},{"time":129110.98200000048,"duration":55.55550000000221,"noteNumber":67,"velocity":61,"programNumber":41},{"time":129166.53750000049,"duration":55.55550000000221,"noteNumber":69,"velocity":61,"programNumber":41},{"time":129222.09300000049,"duration":55.55550000000221,"noteNumber":66,"velocity":61,"programNumber":41},{"time":129277.64850000049,"duration":55.55550000000221,"noteNumber":67,"velocity":61,"programNumber":41},{"time":129333.20400000049,"duration":222.2219999999943,"noteNumber":69,"velocity":61,"programNumber":41},{"time":129555.42600000049,"duration":222.2219999999943,"noteNumber":66,"velocity":61,"programNumber":41},{"time":129777.64800000048,"duration":1111.1100000000006,"noteNumber":71,"velocity":85,"programNumber":41},{"time":130888.75800000048,"duration":55.55550000000221,"noteNumber":71,"velocity":61,"programNumber":41},{"time":130944.31350000048,"duration":55.55550000000221,"noteNumber":72,"velocity":61,"programNumber":41},{"time":130999.86900000049,"duration":55.55550000000221,"noteNumber":69,"velocity":61,"programNumber":41},{"time":131055.42450000049,"duration":55.55549999998766,"noteNumber":71,"velocity":61,"programNumber":41},{"time":131110.98000000048,"duration":222.22200000000885,"noteNumber":72,"velocity":61,"programNumber":41},{"time":131333.20200000048,"duration":222.22200000000885,"noteNumber":69,"velocity":61,"programNumber":41},{"time":131555.4240000005,"duration":74.07399999999325,"noteNumber":74,"velocity":46,"programNumber":41},{"time":131666.5350000005,"duration":74.07399999999325,"noteNumber":74,"velocity":46,"programNumber":41},{"time":131777.6460000005,"duration":74.07399999999325,"noteNumber":74,"velocity":47,"programNumber":41},{"time":131888.7570000005,"duration":74.07399999999325,"noteNumber":74,"velocity":47,"programNumber":41},{"time":131999.8680000005,"duration":74.07399999999325,"noteNumber":74,"velocity":49,"programNumber":41},{"time":132110.97900000052,"duration":74.07399999999325,"noteNumber":74,"velocity":50,"programNumber":41},{"time":132222.09000000052,"duration":74.07399999999325,"noteNumber":74,"velocity":50,"programNumber":41},{"time":132333.20100000052,"duration":74.07399999999325,"noteNumber":74,"velocity":52,"programNumber":41},{"time":132444.31200000053,"duration":74.07399999999325,"noteNumber":76,"velocity":53,"programNumber":41},{"time":132555.42300000053,"duration":74.07399999999325,"noteNumber":76,"velocity":53,"programNumber":41},{"time":132666.53400000054,"duration":74.07399999999325,"noteNumber":76,"velocity":55,"programNumber":41},{"time":132777.64500000054,"duration":74.07399999999325,"noteNumber":76,"velocity":56,"programNumber":41},{"time":132888.75600000055,"duration":74.07399999999325,"noteNumber":78,"velocity":56,"programNumber":41},{"time":132999.86700000055,"duration":74.07399999999325,"noteNumber":78,"velocity":58,"programNumber":41},{"time":133110.97800000056,"duration":74.07399999999325,"noteNumber":78,"velocity":58,"programNumber":41},{"time":133222.08900000056,"duration":74.07399999999325,"noteNumber":78,"velocity":59,"programNumber":41},{"time":133333.20000000056,"duration":74.07399999999325,"noteNumber":79,"velocity":61,"programNumber":41},{"time":133444.31100000057,"duration":74.07399999999325,"noteNumber":79,"velocity":61,"programNumber":41},{"time":133555.42200000057,"duration":74.07399999999325,"noteNumber":79,"velocity":62,"programNumber":41},{"time":133666.53300000058,"duration":74.07399999999325,"noteNumber":79,"velocity":64,"programNumber":41},{"time":133777.64400000058,"duration":74.07399999999325,"noteNumber":81,"velocity":64,"programNumber":41},{"time":133888.7550000006,"duration":74.07399999999325,"noteNumber":81,"velocity":65,"programNumber":41},{"time":133999.8660000006,"duration":74.07399999999325,"noteNumber":81,"velocity":67,"programNumber":41},{"time":134110.9770000006,"duration":74.07399999999325,"noteNumber":81,"velocity":67,"programNumber":41},{"time":134222.0880000006,"duration":74.07399999999325,"noteNumber":83,"velocity":68,"programNumber":41},{"time":134333.1990000006,"duration":74.07399999999325,"noteNumber":83,"velocity":68,"programNumber":41},{"time":134444.3100000006,"duration":74.07399999999325,"noteNumber":83,"velocity":70,"programNumber":41},{"time":134555.4210000006,"duration":74.07399999999325,"noteNumber":83,"velocity":71,"programNumber":41},{"time":134666.53200000062,"duration":74.07399999999325,"noteNumber":85,"velocity":71,"programNumber":41},{"time":134777.64300000062,"duration":74.07399999999325,"noteNumber":85,"velocity":73,"programNumber":41},{"time":134888.75400000063,"duration":74.07399999999325,"noteNumber":85,"velocity":74,"programNumber":41},{"time":134999.86500000063,"duration":74.07399999999325,"noteNumber":85,"velocity":74,"programNumber":41},{"time":135110.97600000064,"duration":666.6659999999974,"noteNumber":86,"velocity":92,"programNumber":41},{"time":135777.64200000063,"duration":222.22200000000885,"noteNumber":81,"velocity":85,"programNumber":41},{"time":135999.86400000064,"duration":333.33300000001327,"noteNumber":85,"velocity":85,"programNumber":41},{"time":136333.19700000065,"duration":111.11100000000442,"noteNumber":81,"velocity":85,"programNumber":41},{"time":136444.30800000066,"duration":333.33300000001327,"noteNumber":85,"velocity":85,"programNumber":41},{"time":136777.64100000067,"duration":111.11100000000442,"noteNumber":81,"velocity":85,"programNumber":41},{"time":136888.75200000068,"duration":666.6659999999974,"noteNumber":86,"velocity":98,"programNumber":41},{"time":137555.41800000067,"duration":222.22200000000885,"noteNumber":81,"velocity":85,"programNumber":41},{"time":137777.64000000068,"duration":333.33300000001327,"noteNumber":85,"velocity":85,"programNumber":41},{"time":138110.9730000007,"duration":111.11100000000442,"noteNumber":81,"velocity":85,"programNumber":41},{"time":138222.0840000007,"duration":333.33300000001327,"noteNumber":85,"velocity":85,"programNumber":41},{"time":138555.4170000007,"duration":111.11100000000442,"noteNumber":81,"velocity":85,"programNumber":41},{"time":138666.52800000072,"duration":111.11100000000442,"noteNumber":86,"velocity":85,"programNumber":41},{"time":138888.75000000073,"duration":333.33300000001327,"noteNumber":86,"velocity":98,"programNumber":41},{"time":138888.75000000073,"duration":333.33300000001327,"noteNumber":78,"velocity":98,"programNumber":41},{"time":139333.19400000075,"duration":333.33300000001327,"noteNumber":86,"velocity":85,"programNumber":41},{"time":139333.19400000075,"duration":333.33300000001327,"noteNumber":78,"velocity":85,"programNumber":41},{"time":139777.63800000076,"duration":333.33300000001327,"noteNumber":86,"velocity":85,"programNumber":41},{"time":139777.63800000076,"duration":333.33300000001327,"noteNumber":78,"velocity":85,"programNumber":41},{"time":140222.08200000078,"duration":222.22200000000885,"noteNumber":78,"velocity":85,"programNumber":41},{"time":140444.3040000008,"duration":111.11100000000442,"noteNumber":76,"velocity":85,"programNumber":41},{"time":140222.08200000078,"duration":333.33300000001327,"noteNumber":86,"velocity":85,"programNumber":41},{"time":140666.5260000008,"duration":333.33300000001327,"noteNumber":86,"velocity":85,"programNumber":41},{"time":140666.5260000008,"duration":333.33300000001327,"noteNumber":76,"velocity":85,"programNumber":41},{"time":141110.97000000082,"duration":333.33300000001327,"noteNumber":86,"velocity":85,"programNumber":41},{"time":141110.97000000082,"duration":333.33300000001327,"noteNumber":76,"velocity":85,"programNumber":41},{"time":141555.41400000083,"duration":333.33300000001327,"noteNumber":86,"velocity":85,"programNumber":41},{"time":141555.41400000083,"duration":333.33300000001327,"noteNumber":76,"velocity":85,"programNumber":41},{"time":141999.85800000085,"duration":222.22200000000885,"noteNumber":86,"velocity":85,"programNumber":41},{"time":141999.85800000085,"duration":222.22200000000885,"noteNumber":76,"velocity":85,"programNumber":41},{"time":142222.08000000086,"duration":166.66649999999208,"noteNumber":85,"velocity":97,"programNumber":41},{"time":142222.08000000086,"duration":166.66649999999208,"noteNumber":76,"velocity":97,"programNumber":41},{"time":142444.30200000084,"duration":166.66649999999208,"noteNumber":81,"velocity":85,"programNumber":41},{"time":142666.52400000082,"duration":166.66649999999208,"noteNumber":86,"velocity":85,"programNumber":41},{"time":142888.7460000008,"duration":166.66649999999208,"noteNumber":81,"velocity":85,"programNumber":41},{"time":143110.96800000078,"duration":166.66649999999208,"noteNumber":85,"velocity":85,"programNumber":41},{"time":143333.19000000076,"duration":166.66649999999208,"noteNumber":81,"velocity":85,"programNumber":41},{"time":143555.41200000074,"duration":166.66649999999208,"noteNumber":86,"velocity":85,"programNumber":41},{"time":143777.63400000072,"duration":166.66649999999208,"noteNumber":81,"velocity":85,"programNumber":41},{"time":143999.8560000007,"duration":166.66649999999208,"noteNumber":85,"velocity":97,"programNumber":41},{"time":144222.07800000068,"duration":166.66649999999208,"noteNumber":69,"velocity":85,"programNumber":41},{"time":144444.30000000066,"duration":166.66649999999208,"noteNumber":69,"velocity":85,"programNumber":41},{"time":144666.52200000064,"duration":166.66649999999208,"noteNumber":69,"velocity":85,"programNumber":41},{"time":144888.74400000062,"duration":444.4439999999886,"noteNumber":69,"velocity":85,"programNumber":41},{"time":145777.6320000006,"duration":666.6659999999974,"noteNumber":81,"velocity":55,"programNumber":41},{"time":146444.2980000006,"duration":74.07399999999325,"noteNumber":79,"velocity":55,"programNumber":41},{"time":146518.37200000059,"duration":74.07399999999325,"noteNumber":78,"velocity":55,"programNumber":41},{"time":146592.44600000058,"duration":74.07399999999325,"noteNumber":76,"velocity":55,"programNumber":41},{"time":146666.52000000057,"duration":222.22200000000885,"noteNumber":74,"velocity":55,"programNumber":41},{"time":147110.9640000006,"duration":222.22200000000885,"noteNumber":83,"velocity":55,"programNumber":41},{"time":147555.4080000006,"duration":222.22200000000885,"noteNumber":79,"velocity":55,"programNumber":41},{"time":147999.85200000062,"duration":222.22200000000885,"noteNumber":76,"velocity":55,"programNumber":41},{"time":148444.29600000064,"duration":222.22200000000885,"noteNumber":81,"velocity":55,"programNumber":41},{"time":149333.18400000065,"duration":666.6659999999974,"noteNumber":78,"velocity":55,"programNumber":41},{"time":149999.85000000065,"duration":74.07399999999325,"noteNumber":76,"velocity":55,"programNumber":41},{"time":150073.92400000064,"duration":74.07399999999325,"noteNumber":74,"velocity":55,"programNumber":41},{"time":150147.99800000063,"duration":74.07399999999325,"noteNumber":73,"velocity":55,"programNumber":41},{"time":150222.07200000063,"duration":222.22200000000885,"noteNumber":71,"velocity":55,"programNumber":41},{"time":150666.51600000064,"duration":222.22200000000885,"noteNumber":79,"velocity":55,"programNumber":41},{"time":151110.96000000066,"duration":888.8880000000063,"noteNumber":78,"velocity":55,"programNumber":41},{"time":151999.84800000067,"duration":444.4439999999886,"noteNumber":76,"velocity":43,"programNumber":41},{"time":153110.95800000065,"duration":111.11100000000442,"noteNumber":81,"velocity":55,"programNumber":41},{"time":153333.18000000066,"duration":111.11100000000442,"noteNumber":81,"velocity":55,"programNumber":41},{"time":153555.40200000067,"duration":111.11100000000442,"noteNumber":81,"velocity":55,"programNumber":41},{"time":153777.62400000068,"duration":111.11100000000442,"noteNumber":81,"velocity":55,"programNumber":41},{"time":153999.8460000007,"duration":111.11100000000442,"noteNumber":81,"velocity":55,"programNumber":41},{"time":154222.0680000007,"duration":111.11100000000442,"noteNumber":81,"velocity":55,"programNumber":41},{"time":154444.2900000007,"duration":111.11100000000442,"noteNumber":81,"velocity":55,"programNumber":41},{"time":154666.51200000072,"duration":111.11100000000442,"noteNumber":81,"velocity":55,"programNumber":41},{"time":154888.73400000072,"duration":111.11100000000442,"noteNumber":81,"velocity":55,"programNumber":41},{"time":155110.95600000073,"duration":111.11100000000442,"noteNumber":81,"velocity":55,"programNumber":41},{"time":155333.17800000074,"duration":111.11100000000442,"noteNumber":81,"velocity":55,"programNumber":41},{"time":155555.40000000075,"duration":111.11100000000442,"noteNumber":81,"velocity":55,"programNumber":41},{"time":155777.62200000076,"duration":111.11100000000442,"noteNumber":81,"velocity":55,"programNumber":41},{"time":155999.84400000077,"duration":111.11100000000442,"noteNumber":83,"velocity":55,"programNumber":41},{"time":156222.06600000078,"duration":111.11100000000442,"noteNumber":85,"velocity":55,"programNumber":41},{"time":156444.2880000008,"duration":222.22200000000885,"noteNumber":85,"velocity":55,"programNumber":41},{"time":156666.5100000008,"duration":222.22200000000885,"noteNumber":86,"velocity":55,"programNumber":41},{"time":157110.9540000008,"duration":111.11100000000442,"noteNumber":83,"velocity":55,"programNumber":41},{"time":157333.17600000082,"duration":222.22200000000885,"noteNumber":83,"velocity":55,"programNumber":41},{"time":157555.39800000083,"duration":222.22200000000885,"noteNumber":81,"velocity":55,"programNumber":41},{"time":157999.84200000085,"duration":166.66649999999208,"noteNumber":73,"velocity":55,"programNumber":41},{"time":158222.06400000083,"duration":444.4439999999886,"noteNumber":74,"velocity":55,"programNumber":41},{"time":158888.73000000083,"duration":111.11100000000442,"noteNumber":81,"velocity":55,"programNumber":41},{"time":159110.95200000083,"duration":222.22200000000885,"noteNumber":86,"velocity":55,"programNumber":41},{"time":159333.17400000084,"duration":222.22200000000885,"noteNumber":85,"velocity":55,"programNumber":41},{"time":159555.39600000085,"duration":222.22200000000885,"noteNumber":83,"velocity":55,"programNumber":41},{"time":159777.61800000086,"duration":222.22200000000885,"noteNumber":81,"velocity":55,"programNumber":41},{"time":159999.84000000087,"duration":55.55549999998766,"noteNumber":83,"velocity":55,"programNumber":41},{"time":160055.39550000086,"duration":55.55549999998766,"noteNumber":85,"velocity":55,"programNumber":41},{"time":160110.95100000084,"duration":55.55549999998766,"noteNumber":83,"velocity":55,"programNumber":41},{"time":160166.50650000083,"duration":55.55549999998766,"noteNumber":85,"velocity":55,"programNumber":41},{"time":160222.06200000082,"duration":222.22200000000885,"noteNumber":81,"velocity":55,"programNumber":41},{"time":160666.50600000084,"duration":111.11100000000442,"noteNumber":81,"velocity":55,"programNumber":41},{"time":160888.72800000085,"duration":111.11100000000442,"noteNumber":81,"velocity":55,"programNumber":41},{"time":161110.95000000086,"duration":111.11100000000442,"noteNumber":81,"velocity":55,"programNumber":41},{"time":161333.17200000086,"duration":111.11100000000442,"noteNumber":81,"velocity":55,"programNumber":41},{"time":161555.39400000087,"duration":111.11100000000442,"noteNumber":81,"velocity":55,"programNumber":41},{"time":161777.61600000088,"duration":55.55549999998766,"noteNumber":83,"velocity":55,"programNumber":41},{"time":161833.17150000087,"duration":55.55549999998766,"noteNumber":85,"velocity":55,"programNumber":41},{"time":161888.72700000086,"duration":55.55549999998766,"noteNumber":83,"velocity":55,"programNumber":41},{"time":161944.28250000085,"duration":55.55549999998766,"noteNumber":85,"velocity":55,"programNumber":41},{"time":161999.83800000083,"duration":222.22200000000885,"noteNumber":81,"velocity":55,"programNumber":41},{"time":162444.28200000085,"duration":166.66649999999208,"noteNumber":81,"velocity":55,"programNumber":41},{"time":162666.50400000083,"duration":222.22200000000885,"noteNumber":86,"velocity":55,"programNumber":41},{"time":162888.72600000084,"duration":222.22200000000885,"noteNumber":85,"velocity":55,"programNumber":41},{"time":163110.94800000085,"duration":222.22200000000885,"noteNumber":83,"velocity":55,"programNumber":41},{"time":163333.17000000086,"duration":222.22200000000885,"noteNumber":81,"velocity":55,"programNumber":41},{"time":163555.39200000087,"duration":55.55549999998766,"noteNumber":83,"velocity":55,"programNumber":41},{"time":163610.94750000085,"duration":55.55549999998766,"noteNumber":85,"velocity":55,"programNumber":41},{"time":163666.50300000084,"duration":55.55549999998766,"noteNumber":83,"velocity":55,"programNumber":41},{"time":163722.05850000083,"duration":55.55549999998766,"noteNumber":85,"velocity":55,"programNumber":41},{"time":163777.61400000082,"duration":222.22200000000885,"noteNumber":81,"velocity":55,"programNumber":41},{"time":164222.05800000083,"duration":111.11100000000442,"noteNumber":81,"velocity":55,"programNumber":41},{"time":164444.28000000084,"duration":111.11100000000442,"noteNumber":81,"velocity":55,"programNumber":41},{"time":164666.50200000085,"duration":111.11100000000442,"noteNumber":81,"velocity":55,"programNumber":41},{"time":164888.72400000086,"duration":111.11100000000442,"noteNumber":81,"velocity":55,"programNumber":41},{"time":165110.94600000087,"duration":111.11100000000442,"noteNumber":81,"velocity":55,"programNumber":41},{"time":165333.16800000088,"duration":55.55549999998766,"noteNumber":83,"velocity":55,"programNumber":41},{"time":165388.72350000087,"duration":55.55549999998766,"noteNumber":85,"velocity":55,"programNumber":41},{"time":165444.27900000085,"duration":55.55549999998766,"noteNumber":83,"velocity":55,"programNumber":41},{"time":165499.83450000084,"duration":55.55549999998766,"noteNumber":85,"velocity":55,"programNumber":41},{"time":165555.39000000083,"duration":222.22200000000885,"noteNumber":81,"velocity":55,"programNumber":41},{"time":166222.05600000083,"duration":629.6289999999863,"noteNumber":83,"velocity":94,"programNumber":41},{"time":166222.05600000083,"duration":629.6289999999863,"noteNumber":71,"velocity":94,"programNumber":41},{"time":166888.72200000082,"duration":74.07399999999325,"noteNumber":81,"velocity":83,"programNumber":41},{"time":166962.79600000082,"duration":74.07399999999325,"noteNumber":79,"velocity":83,"programNumber":41},{"time":167036.8700000008,"duration":74.07399999999325,"noteNumber":78,"velocity":83,"programNumber":41},{"time":167110.9440000008,"duration":444.4439999999886,"noteNumber":79,"velocity":83,"programNumber":41},{"time":167999.83200000078,"duration":629.6289999999863,"noteNumber":69,"velocity":85,"programNumber":41},{"time":167999.83200000078,"duration":629.6289999999863,"noteNumber":81,"velocity":85,"programNumber":41},{"time":168666.49800000078,"duration":74.07399999999325,"noteNumber":79,"velocity":85,"programNumber":41},{"time":168740.57200000077,"duration":74.07399999999325,"noteNumber":78,"velocity":85,"programNumber":41},{"time":168814.64600000076,"duration":74.07399999999325,"noteNumber":76,"velocity":85,"programNumber":41},{"time":168888.72000000076,"duration":444.4439999999886,"noteNumber":78,"velocity":85,"programNumber":41},{"time":169777.60800000074,"duration":222.22200000000885,"noteNumber":83,"velocity":79,"programNumber":41},{"time":169999.83000000074,"duration":111.11100000000442,"noteNumber":85,"velocity":80,"programNumber":41},{"time":170110.94100000075,"duration":111.11100000000442,"noteNumber":86,"velocity":82,"programNumber":41},{"time":170222.05200000075,"duration":166.66649999999208,"noteNumber":85,"velocity":82,"programNumber":41},{"time":170444.27400000073,"duration":111.11100000000442,"noteNumber":83,"velocity":82,"programNumber":41},{"time":170666.49600000074,"duration":222.22200000000885,"noteNumber":83,"velocity":83,"programNumber":41},{"time":170888.71800000075,"duration":166.66649999999208,"noteNumber":81,"velocity":86,"programNumber":41},{"time":171110.94000000073,"duration":111.11100000000442,"noteNumber":78,"velocity":86,"programNumber":41},{"time":171333.16200000074,"duration":111.11100000000442,"noteNumber":81,"velocity":88,"programNumber":41},{"time":171555.38400000075,"duration":222.22200000000885,"noteNumber":81,"velocity":88,"programNumber":41},{"time":171777.60600000076,"duration":166.66649999999208,"noteNumber":79,"velocity":83,"programNumber":41},{"time":171999.82800000074,"duration":111.11100000000442,"noteNumber":78,"velocity":79,"programNumber":41},{"time":172222.05000000075,"duration":111.11100000000442,"noteNumber":76,"velocity":76,"programNumber":41},{"time":172444.27200000075,"duration":444.4439999999886,"noteNumber":74,"velocity":85,"programNumber":41},{"time":173110.93800000075,"duration":111.11100000000442,"noteNumber":81,"velocity":53,"programNumber":41},{"time":173333.16000000076,"duration":222.22200000000885,"noteNumber":86,"velocity":53,"programNumber":41},{"time":173555.38200000077,"duration":222.22200000000885,"noteNumber":85,"velocity":53,"programNumber":41},{"time":173777.60400000078,"duration":222.22200000000885,"noteNumber":83,"velocity":53,"programNumber":41},{"time":173999.8260000008,"duration":222.22200000000885,"noteNumber":81,"velocity":53,"programNumber":41},{"time":174222.0480000008,"duration":55.55549999998766,"noteNumber":83,"velocity":55,"programNumber":41},{"time":174277.60350000078,"duration":55.55549999998766,"noteNumber":85,"velocity":55,"programNumber":41},{"time":174333.15900000077,"duration":55.55549999998766,"noteNumber":83,"velocity":55,"programNumber":41},{"time":174388.71450000076,"duration":55.55549999998766,"noteNumber":85,"velocity":55,"programNumber":41},{"time":174444.27000000075,"duration":222.22200000000885,"noteNumber":81,"velocity":55,"programNumber":41},{"time":174888.71400000076,"duration":111.11100000000442,"noteNumber":81,"velocity":55,"programNumber":41},{"time":175110.93600000077,"duration":111.11100000000442,"noteNumber":81,"velocity":55,"programNumber":41},{"time":175333.15800000078,"duration":111.11100000000442,"noteNumber":81,"velocity":55,"programNumber":41},{"time":175555.3800000008,"duration":111.11100000000442,"noteNumber":81,"velocity":55,"programNumber":41},{"time":175777.6020000008,"duration":111.11100000000442,"noteNumber":81,"velocity":55,"programNumber":41},{"time":175999.8240000008,"duration":55.55549999998766,"noteNumber":83,"velocity":55,"programNumber":41},{"time":176055.3795000008,"duration":55.55549999998766,"noteNumber":85,"velocity":55,"programNumber":41},{"time":176110.93500000078,"duration":55.55549999998766,"noteNumber":83,"velocity":55,"programNumber":41},{"time":176166.49050000077,"duration":55.55549999998766,"noteNumber":85,"velocity":55,"programNumber":41},{"time":176222.04600000076,"duration":222.22200000000885,"noteNumber":81,"velocity":55,"programNumber":41},{"time":176666.49000000078,"duration":166.66649999999208,"noteNumber":81,"velocity":55,"programNumber":41},{"time":176888.71200000076,"duration":222.22200000000885,"noteNumber":86,"velocity":55,"programNumber":41},{"time":177110.93400000077,"duration":222.22200000000885,"noteNumber":85,"velocity":55,"programNumber":41},{"time":177333.15600000077,"duration":222.22200000000885,"noteNumber":83,"velocity":55,"programNumber":41},{"time":177555.37800000078,"duration":222.22200000000885,"noteNumber":81,"velocity":55,"programNumber":41},{"time":177777.6000000008,"duration":55.55549999998766,"noteNumber":83,"velocity":55,"programNumber":41},{"time":177833.15550000078,"duration":55.55549999998766,"noteNumber":85,"velocity":55,"programNumber":41},{"time":177888.71100000077,"duration":55.55549999998766,"noteNumber":83,"velocity":55,"programNumber":41},{"time":177944.26650000075,"duration":55.55549999998766,"noteNumber":85,"velocity":55,"programNumber":41},{"time":177999.82200000074,"duration":222.22200000000885,"noteNumber":81,"velocity":55,"programNumber":41},{"time":178444.26600000076,"duration":111.11100000000442,"noteNumber":81,"velocity":55,"programNumber":41},{"time":178666.48800000077,"duration":111.11100000000442,"noteNumber":81,"velocity":55,"programNumber":41},{"time":178888.71000000078,"duration":111.11100000000442,"noteNumber":81,"velocity":55,"programNumber":41},{"time":179110.9320000008,"duration":111.11100000000442,"noteNumber":81,"velocity":55,"programNumber":41},{"time":179333.1540000008,"duration":111.11100000000442,"noteNumber":81,"velocity":55,"programNumber":41},{"time":179555.3760000008,"duration":55.55549999998766,"noteNumber":83,"velocity":59,"programNumber":41},{"time":179610.9315000008,"duration":55.55549999998766,"noteNumber":85,"velocity":59,"programNumber":41},{"time":179666.48700000078,"duration":55.55549999998766,"noteNumber":83,"velocity":59,"programNumber":41},{"time":179722.04250000077,"duration":55.55549999998766,"noteNumber":85,"velocity":59,"programNumber":41},{"time":179777.59800000075,"duration":222.22200000000885,"noteNumber":81,"velocity":59,"programNumber":41},{"time":180444.26400000075,"duration":629.6289999999863,"noteNumber":83,"velocity":85,"programNumber":41},{"time":180444.26400000075,"duration":629.6289999999863,"noteNumber":71,"velocity":85,"programNumber":41},{"time":181110.93000000075,"duration":74.07399999999325,"noteNumber":81,"velocity":85,"programNumber":41},{"time":181185.00400000074,"duration":74.07399999999325,"noteNumber":79,"velocity":85,"programNumber":41},{"time":181259.07800000074,"duration":74.07399999999325,"noteNumber":78,"velocity":85,"programNumber":41},{"time":181333.15200000073,"duration":444.4439999999886,"noteNumber":79,"velocity":85,"programNumber":41},{"time":182222.0400000007,"duration":629.6289999999863,"noteNumber":69,"velocity":85,"programNumber":41},{"time":182222.0400000007,"duration":629.6289999999863,"noteNumber":81,"velocity":85,"programNumber":41},{"time":182888.7060000007,"duration":74.07399999999325,"noteNumber":79,"velocity":85,"programNumber":41},{"time":182962.7800000007,"duration":74.07399999999325,"noteNumber":78,"velocity":85,"programNumber":41},{"time":183036.8540000007,"duration":74.07399999999325,"noteNumber":76,"velocity":85,"programNumber":41},{"time":183110.92800000068,"duration":444.4439999999886,"noteNumber":78,"velocity":85,"programNumber":41},{"time":183999.81600000066,"duration":222.22200000000885,"noteNumber":83,"velocity":85,"programNumber":41},{"time":184222.03800000067,"duration":111.11100000000442,"noteNumber":85,"velocity":85,"programNumber":41},{"time":184333.14900000067,"duration":111.11100000000442,"noteNumber":86,"velocity":85,"programNumber":41},{"time":184444.26000000068,"duration":166.66649999999208,"noteNumber":85,"velocity":85,"programNumber":41},{"time":184666.48200000066,"duration":111.11100000000442,"noteNumber":83,"velocity":85,"programNumber":41},{"time":184888.70400000067,"duration":222.22200000000885,"noteNumber":83,"velocity":95,"programNumber":41},{"time":185110.92600000068,"duration":166.66649999999208,"noteNumber":81,"velocity":85,"programNumber":41},{"time":185333.14800000066,"duration":111.11100000000442,"noteNumber":78,"velocity":85,"programNumber":41},{"time":185555.37000000066,"duration":111.11100000000442,"noteNumber":81,"velocity":85,"programNumber":41},{"time":185777.59200000067,"duration":222.22200000000885,"noteNumber":81,"velocity":85,"programNumber":41},{"time":185999.81400000068,"duration":166.66649999999208,"noteNumber":79,"velocity":85,"programNumber":41},{"time":186222.03600000066,"duration":111.11100000000442,"noteNumber":78,"velocity":85,"programNumber":41},{"time":186444.25800000067,"duration":111.11100000000442,"noteNumber":76,"velocity":85,"programNumber":41},{"time":186666.48000000068,"duration":166.66649999999208,"noteNumber":74,"velocity":85,"programNumber":41},{"time":186888.70200000066,"duration":166.66649999999208,"noteNumber":69,"velocity":85,"programNumber":41},{"time":187110.92400000064,"duration":166.66649999999208,"noteNumber":71,"velocity":85,"programNumber":41},{"time":187333.14600000062,"duration":166.66649999999208,"noteNumber":73,"velocity":85,"programNumber":41},{"time":187555.3680000006,"duration":111.11100000000442,"noteNumber":74,"velocity":85,"programNumber":41},{"time":187777.5900000006,"duration":111.11100000000442,"noteNumber":74,"velocity":85,"programNumber":41},{"time":187999.81200000062,"duration":55.55549999998766,"noteNumber":76,"velocity":85,"programNumber":41},{"time":188055.3675000006,"duration":55.55549999998766,"noteNumber":78,"velocity":85,"programNumber":41},{"time":188110.9230000006,"duration":55.55549999998766,"noteNumber":76,"velocity":85,"programNumber":41},{"time":188166.47850000058,"duration":55.55549999998766,"noteNumber":78,"velocity":85,"programNumber":41},{"time":188222.03400000057,"duration":111.11100000000442,"noteNumber":74,"velocity":85,"programNumber":41},{"time":188333.14500000057,"duration":111.11100000000442,"noteNumber":76,"velocity":85,"programNumber":41},{"time":188444.25600000058,"duration":222.22200000000885,"noteNumber":78,"velocity":85,"programNumber":41},{"time":188666.47800000058,"duration":166.66649999999208,"noteNumber":73,"velocity":85,"programNumber":41},{"time":188888.70000000056,"duration":166.66649999999208,"noteNumber":74,"velocity":85,"programNumber":41},{"time":189110.92200000054,"duration":166.66649999999208,"noteNumber":76,"velocity":85,"programNumber":41},{"time":189333.14400000052,"duration":166.66649999999208,"noteNumber":78,"velocity":85,"programNumber":41},{"time":189555.3660000005,"duration":166.66649999999208,"noteNumber":78,"velocity":85,"programNumber":41},{"time":189777.58800000048,"duration":55.55549999998766,"noteNumber":79,"velocity":85,"programNumber":41},{"time":189833.14350000047,"duration":55.55549999998766,"noteNumber":81,"velocity":86,"programNumber":41},{"time":189888.69900000046,"duration":55.55549999998766,"noteNumber":79,"velocity":86,"programNumber":41},{"time":189944.25450000045,"duration":55.55549999998766,"noteNumber":81,"velocity":86,"programNumber":41},{"time":189999.81000000043,"duration":111.11100000000442,"noteNumber":78,"velocity":86,"programNumber":41},{"time":190110.92100000044,"duration":111.11100000000442,"noteNumber":79,"velocity":88,"programNumber":41},{"time":190222.03200000044,"duration":166.66649999999208,"noteNumber":81,"velocity":88,"programNumber":41},{"time":190444.25400000042,"duration":166.66649999999208,"noteNumber":81,"velocity":88,"programNumber":41},{"time":190666.4760000004,"duration":55.55549999998766,"noteNumber":82,"velocity":89,"programNumber":41},{"time":190722.0315000004,"duration":55.55549999998766,"noteNumber":83,"velocity":91,"programNumber":41},{"time":190777.58700000038,"duration":55.55549999998766,"noteNumber":82,"velocity":91,"programNumber":41},{"time":190833.14250000037,"duration":55.55549999998766,"noteNumber":83,"velocity":91,"programNumber":41},{"time":190888.69800000035,"duration":111.11100000000442,"noteNumber":80,"velocity":92,"programNumber":41},{"time":190999.80900000036,"duration":111.11100000000442,"noteNumber":82,"velocity":94,"programNumber":41},{"time":191110.92000000036,"duration":444.4439999999886,"noteNumber":83,"velocity":98,"programNumber":41},{"time":191999.80800000034,"duration":666.6659999999974,"noteNumber":71,"velocity":40,"programNumber":41},{"time":192666.47400000034,"duration":166.66649999999208,"noteNumber":76,"velocity":47,"programNumber":41},{"time":192888.69600000032,"duration":222.22200000000885,"noteNumber":74,"velocity":49,"programNumber":41},{"time":193110.91800000033,"duration":222.22200000000885,"noteNumber":73,"velocity":49,"programNumber":41},{"time":193333.14000000033,"duration":222.22200000000885,"noteNumber":71,"velocity":43,"programNumber":41},{"time":193555.36200000034,"duration":222.22200000000885,"noteNumber":69,"velocity":41,"programNumber":41},{"time":193777.58400000035,"duration":222.22200000000885,"noteNumber":74,"velocity":40,"programNumber":41},{"time":194222.02800000037,"duration":222.22200000000885,"noteNumber":78,"velocity":59,"programNumber":41},{"time":194666.4720000004,"duration":222.22200000000885,"noteNumber":74,"velocity":57,"programNumber":41},{"time":195555.3600000004,"duration":444.4439999999886,"noteNumber":74,"velocity":100,"programNumber":41},{"time":195555.3600000004,"duration":444.4439999999886,"noteNumber":62,"velocity":100,"programNumber":41},{"time":196222.0260000004,"duration":166.66649999999208,"noteNumber":69,"velocity":91,"programNumber":41},{"time":196444.24800000037,"duration":444.4439999999886,"noteNumber":74,"velocity":91,"programNumber":41},{"time":197110.91400000037,"duration":166.66649999999208,"noteNumber":69,"velocity":91,"programNumber":41},{"time":197333.13600000035,"duration":166.66649999999208,"noteNumber":74,"velocity":91,"programNumber":41},{"time":197555.35800000033,"duration":166.66649999999208,"noteNumber":69,"velocity":91,"programNumber":41},{"time":197777.5800000003,"duration":166.66649999999208,"noteNumber":74,"velocity":91,"programNumber":41},{"time":197999.8020000003,"duration":166.66649999999208,"noteNumber":78,"velocity":91,"programNumber":41},{"time":198222.02400000027,"duration":444.4439999999886,"noteNumber":81,"velocity":91,"programNumber":41},{"time":199110.91200000024,"duration":444.4439999999886,"noteNumber":81,"velocity":91,"programNumber":41},{"time":199777.57800000024,"duration":166.66649999999208,"noteNumber":78,"velocity":91,"programNumber":41},{"time":199999.80000000022,"duration":444.4439999999886,"noteNumber":81,"velocity":91,"programNumber":41},{"time":200666.46600000022,"duration":166.66649999999208,"noteNumber":78,"velocity":91,"programNumber":41},{"time":200888.6880000002,"duration":166.66649999999208,"noteNumber":81,"velocity":91,"programNumber":41},{"time":201110.91000000018,"duration":166.66649999999208,"noteNumber":78,"velocity":91,"programNumber":41},{"time":201333.13200000016,"duration":166.66649999999208,"noteNumber":75,"velocity":91,"programNumber":41},{"time":201555.35400000014,"duration":166.66649999999208,"noteNumber":78,"velocity":91,"programNumber":41},{"time":201777.57600000012,"duration":444.4439999999886,"noteNumber":71,"velocity":91,"programNumber":41},{"time":203333.1300000001,"duration":166.66649999999208,"noteNumber":79,"velocity":55,"programNumber":41},{"time":203555.35200000007,"duration":222.22200000000885,"noteNumber":84,"velocity":55,"programNumber":41},{"time":203777.57400000008,"duration":222.22200000000885,"noteNumber":83,"velocity":55,"programNumber":41},{"time":203999.7960000001,"duration":222.22200000000885,"noteNumber":81,"velocity":55,"programNumber":41},{"time":204222.0180000001,"duration":222.22200000000885,"noteNumber":79,"velocity":55,"programNumber":41},{"time":204444.2400000001,"duration":55.55549999998766,"noteNumber":81,"velocity":55,"programNumber":41},{"time":204499.7955000001,"duration":55.55549999998766,"noteNumber":83,"velocity":55,"programNumber":41},{"time":204555.35100000008,"duration":55.55549999998766,"noteNumber":81,"velocity":55,"programNumber":41},{"time":204610.90650000007,"duration":55.55549999998766,"noteNumber":83,"velocity":55,"programNumber":41},{"time":204666.46200000006,"duration":222.22200000000885,"noteNumber":79,"velocity":55,"programNumber":41},{"time":205110.90600000008,"duration":111.11100000000442,"noteNumber":79,"velocity":55,"programNumber":41},{"time":205333.12800000008,"duration":111.11100000000442,"noteNumber":79,"velocity":55,"programNumber":41},{"time":205555.3500000001,"duration":111.11100000000442,"noteNumber":79,"velocity":55,"programNumber":41},{"time":205777.5720000001,"duration":111.11100000000442,"noteNumber":79,"velocity":55,"programNumber":41},{"time":205999.7940000001,"duration":111.11100000000442,"noteNumber":79,"velocity":55,"programNumber":41},{"time":206222.01600000012,"duration":55.55549999998766,"noteNumber":81,"velocity":55,"programNumber":41},{"time":206277.5715000001,"duration":55.55549999998766,"noteNumber":83,"velocity":55,"programNumber":41},{"time":206333.1270000001,"duration":55.55549999998766,"noteNumber":81,"velocity":55,"programNumber":41},{"time":206388.68250000008,"duration":55.55549999998766,"noteNumber":83,"velocity":55,"programNumber":41},{"time":206444.23800000007,"duration":222.22200000000885,"noteNumber":79,"velocity":55,"programNumber":41},{"time":206888.6820000001,"duration":166.66649999999208,"noteNumber":79,"velocity":55,"programNumber":41},{"time":207110.90400000007,"duration":222.22200000000885,"noteNumber":84,"velocity":55,"programNumber":41},{"time":207333.12600000008,"duration":222.22200000000885,"noteNumber":83,"velocity":55,"programNumber":41},{"time":207555.3480000001,"duration":222.22200000000885,"noteNumber":81,"velocity":55,"programNumber":41},{"time":207777.5700000001,"duration":222.22200000000885,"noteNumber":79,"velocity":55,"programNumber":41},{"time":207999.7920000001,"duration":55.55549999998766,"noteNumber":81,"velocity":55,"programNumber":41},{"time":208055.3475000001,"duration":55.55549999998766,"noteNumber":83,"velocity":55,"programNumber":41},{"time":208110.90300000008,"duration":55.55549999998766,"noteNumber":81,"velocity":55,"programNumber":41},{"time":208166.45850000007,"duration":55.55549999998766,"noteNumber":83,"velocity":55,"programNumber":41},{"time":208222.01400000005,"duration":222.22200000000885,"noteNumber":79,"velocity":55,"programNumber":41},{"time":208666.45800000007,"duration":111.11100000000442,"noteNumber":79,"velocity":55,"programNumber":41},{"time":208888.68000000008,"duration":111.11100000000442,"noteNumber":79,"velocity":55,"programNumber":41},{"time":209110.9020000001,"duration":111.11100000000442,"noteNumber":79,"velocity":55,"programNumber":41},{"time":209333.1240000001,"duration":111.11100000000442,"noteNumber":79,"velocity":55,"programNumber":41},{"time":209555.3460000001,"duration":111.11100000000442,"noteNumber":79,"velocity":55,"programNumber":41},{"time":209777.56800000012,"duration":55.55549999998766,"noteNumber":81,"velocity":55,"programNumber":41},{"time":209833.1235000001,"duration":55.55549999998766,"noteNumber":83,"velocity":55,"programNumber":41},{"time":209888.6790000001,"duration":55.55549999998766,"noteNumber":81,"velocity":55,"programNumber":41},{"time":209944.23450000008,"duration":55.55549999998766,"noteNumber":83,"velocity":55,"programNumber":41},{"time":209999.79000000007,"duration":222.22200000000885,"noteNumber":79,"velocity":55,"programNumber":41},{"time":210444.23400000008,"duration":166.66649999999208,"noteNumber":79,"velocity":55,"programNumber":41},{"time":210666.45600000006,"duration":222.22200000000885,"noteNumber":84,"velocity":55,"programNumber":41},{"time":210888.67800000007,"duration":222.22200000000885,"noteNumber":83,"velocity":55,"programNumber":41},{"time":211110.90000000008,"duration":222.22200000000885,"noteNumber":81,"velocity":55,"programNumber":41},{"time":211333.1220000001,"duration":222.22200000000885,"noteNumber":79,"velocity":55,"programNumber":41},{"time":211555.3440000001,"duration":55.55549999998766,"noteNumber":81,"velocity":55,"programNumber":41},{"time":211610.8995000001,"duration":55.55549999998766,"noteNumber":83,"velocity":55,"programNumber":41},{"time":211666.45500000007,"duration":55.55549999998766,"noteNumber":81,"velocity":55,"programNumber":41},{"time":211722.01050000006,"duration":55.55549999998766,"noteNumber":83,"velocity":55,"programNumber":41},{"time":211777.56600000005,"duration":222.22200000000885,"noteNumber":80,"velocity":55,"programNumber":41},{"time":212222.01000000007,"duration":111.11100000000442,"noteNumber":80,"velocity":55,"programNumber":41},{"time":212444.23200000008,"duration":111.11100000000442,"noteNumber":80,"velocity":55,"programNumber":41},{"time":212666.45400000009,"duration":111.11100000000442,"noteNumber":80,"velocity":55,"programNumber":41},{"time":212888.6760000001,"duration":111.11100000000442,"noteNumber":80,"velocity":55,"programNumber":41},{"time":213110.8980000001,"duration":111.11100000000442,"noteNumber":80,"velocity":55,"programNumber":41},{"time":213333.1200000001,"duration":55.55549999998766,"noteNumber":83,"velocity":55,"programNumber":41},{"time":213388.6755000001,"duration":55.55549999998766,"noteNumber":84,"velocity":55,"programNumber":41},{"time":213444.2310000001,"duration":55.55549999998766,"noteNumber":83,"velocity":55,"programNumber":41},{"time":213499.78650000007,"duration":55.55549999998766,"noteNumber":84,"velocity":55,"programNumber":41},{"time":213555.34200000006,"duration":222.22200000000885,"noteNumber":81,"velocity":55,"programNumber":41},{"time":213999.78600000008,"duration":166.66649999999208,"noteNumber":81,"velocity":55,"programNumber":41},{"time":214222.00800000006,"duration":222.22200000000885,"noteNumber":84,"velocity":55,"programNumber":41},{"time":214444.23000000007,"duration":222.22200000000885,"noteNumber":82,"velocity":55,"programNumber":41},{"time":214666.45200000008,"duration":222.22200000000885,"noteNumber":81,"velocity":55,"programNumber":41},{"time":214888.6740000001,"duration":222.22200000000885,"noteNumber":79,"velocity":55,"programNumber":41},{"time":215110.8960000001,"duration":55.55549999998766,"noteNumber":79,"velocity":55,"programNumber":41},{"time":215166.45150000008,"duration":55.55549999998766,"noteNumber":81,"velocity":55,"programNumber":41},{"time":215222.00700000007,"duration":55.55549999998766,"noteNumber":79,"velocity":55,"programNumber":41},{"time":215277.56250000006,"duration":55.55549999998766,"noteNumber":81,"velocity":55,"programNumber":41},{"time":215333.11800000005,"duration":222.22200000000885,"noteNumber":78,"velocity":55,"programNumber":41},{"time":215777.56200000006,"duration":111.11100000000442,"noteNumber":78,"velocity":55,"programNumber":41},{"time":215999.78400000007,"duration":111.11100000000442,"noteNumber":78,"velocity":55,"programNumber":41},{"time":216222.00600000008,"duration":111.11100000000442,"noteNumber":78,"velocity":55,"programNumber":41},{"time":216444.2280000001,"duration":111.11100000000442,"noteNumber":78,"velocity":55,"programNumber":41},{"time":216666.4500000001,"duration":111.11100000000442,"noteNumber":78,"velocity":55,"programNumber":41},{"time":216888.6720000001,"duration":55.55549999998766,"noteNumber":81,"velocity":55,"programNumber":41},{"time":216944.2275000001,"duration":55.55549999998766,"noteNumber":82,"velocity":55,"programNumber":41},{"time":216999.78300000008,"duration":55.55549999998766,"noteNumber":81,"velocity":55,"programNumber":41},{"time":217055.33850000007,"duration":55.55549999998766,"noteNumber":82,"velocity":55,"programNumber":41},{"time":217110.89400000006,"duration":222.22200000000885,"noteNumber":79,"velocity":55,"programNumber":41},{"time":217555.33800000008,"duration":166.66649999999208,"noteNumber":75,"velocity":55,"programNumber":41},{"time":217777.56000000006,"duration":222.22200000000885,"noteNumber":79,"velocity":55,"programNumber":41},{"time":217999.78200000006,"duration":222.22200000000885,"noteNumber":77,"velocity":55,"programNumber":41},{"time":218222.00400000007,"duration":222.22200000000885,"noteNumber":76,"velocity":55,"programNumber":41},{"time":218444.22600000008,"duration":222.22200000000885,"noteNumber":74,"velocity":55,"programNumber":41},{"time":218666.4480000001,"duration":55.55549999998766,"noteNumber":74,"velocity":55,"programNumber":41},{"time":218722.00350000008,"duration":55.55549999998766,"noteNumber":75,"velocity":55,"programNumber":41},{"time":218777.55900000007,"duration":55.55549999998766,"noteNumber":74,"velocity":55,"programNumber":41},{"time":218833.11450000005,"duration":55.55549999998766,"noteNumber":75,"velocity":55,"programNumber":41},{"time":218888.67000000004,"duration":222.22200000000885,"noteNumber":73,"velocity":55,"programNumber":41},{"time":219333.11400000006,"duration":111.11100000000442,"noteNumber":73,"velocity":55,"programNumber":41},{"time":219555.33600000007,"duration":111.11100000000442,"noteNumber":73,"velocity":55,"programNumber":41},{"time":219777.55800000008,"duration":111.11100000000442,"noteNumber":73,"velocity":55,"programNumber":41},{"time":219999.7800000001,"duration":111.11100000000442,"noteNumber":73,"velocity":55,"programNumber":41},{"time":220222.0020000001,"duration":111.11100000000442,"noteNumber":73,"velocity":55,"programNumber":41},{"time":220444.2240000001,"duration":55.55549999998766,"noteNumber":76,"velocity":53,"programNumber":41},{"time":220499.7795000001,"duration":55.55549999998766,"noteNumber":78,"velocity":53,"programNumber":41},{"time":220555.33500000008,"duration":55.55549999998766,"noteNumber":76,"velocity":53,"programNumber":41},{"time":220610.89050000007,"duration":55.55549999998766,"noteNumber":78,"velocity":53,"programNumber":41},{"time":220666.44600000005,"duration":222.22200000000885,"noteNumber":74,"velocity":53,"programNumber":41},{"time":221110.89000000007,"duration":222.22200000000885,"noteNumber":62,"velocity":91,"programNumber":41},{"time":221333.11200000008,"duration":222.22200000000885,"noteNumber":64,"velocity":91,"programNumber":41},{"time":221555.3340000001,"duration":222.22200000000885,"noteNumber":66,"velocity":91,"programNumber":41},{"time":221777.5560000001,"duration":222.22200000000885,"noteNumber":67,"velocity":91,"programNumber":41},{"time":221999.7780000001,"duration":222.22200000000885,"noteNumber":69,"velocity":91,"programNumber":41},{"time":222222.00000000012,"duration":222.22200000000885,"noteNumber":72,"velocity":91,"programNumber":41},{"time":222444.22200000013,"duration":222.22200000000885,"noteNumber":70,"velocity":91,"programNumber":41},{"time":222888.66600000014,"duration":222.22200000000885,"noteNumber":66,"velocity":91,"programNumber":41},{"time":223110.88800000015,"duration":222.22200000000885,"noteNumber":67,"velocity":91,"programNumber":41},{"time":223333.11000000016,"duration":222.22200000000885,"noteNumber":69,"velocity":91,"programNumber":41},{"time":223555.33200000017,"duration":222.22200000000885,"noteNumber":70,"velocity":91,"programNumber":41},{"time":223777.55400000018,"duration":222.22200000000885,"noteNumber":73,"velocity":91,"programNumber":41},{"time":223999.7760000002,"duration":222.22200000000885,"noteNumber":76,"velocity":91,"programNumber":41},{"time":224221.9980000002,"duration":222.22200000000885,"noteNumber":74,"velocity":91,"programNumber":41},{"time":224666.4420000002,"duration":222.22200000000885,"noteNumber":74,"velocity":53,"programNumber":41},{"time":224888.66400000022,"duration":222.22200000000885,"noteNumber":76,"velocity":53,"programNumber":41},{"time":225110.88600000023,"duration":222.22200000000885,"noteNumber":78,"velocity":53,"programNumber":41},{"time":225333.10800000024,"duration":222.22200000000885,"noteNumber":79,"velocity":53,"programNumber":41},{"time":225555.33000000025,"duration":222.22200000000885,"noteNumber":81,"velocity":52,"programNumber":41},{"time":225777.55200000026,"duration":444.4439999999886,"noteNumber":82,"velocity":50,"programNumber":41},{"time":226221.99600000025,"duration":444.4439999999886,"noteNumber":83,"velocity":46,"programNumber":41},{"time":226666.44000000024,"duration":444.4439999999886,"noteNumber":84,"velocity":43,"programNumber":41},{"time":227110.88400000022,"duration":444.4439999999886,"noteNumber":85,"velocity":40,"programNumber":41},{"time":227555.3280000002,"duration":2611.108500000002,"noteNumber":86,"velocity":59,"programNumber":41},{"time":230221.9920000002,"duration":55.55549999998766,"noteNumber":78,"velocity":52,"programNumber":41},{"time":230277.5475000002,"duration":55.55549999998766,"noteNumber":79,"velocity":53,"programNumber":41},{"time":230333.10300000018,"duration":55.55549999998766,"noteNumber":78,"velocity":55,"programNumber":41},{"time":230388.65850000017,"duration":55.55549999998766,"noteNumber":79,"velocity":58,"programNumber":41},{"time":230444.21400000015,"duration":55.55549999998766,"noteNumber":78,"velocity":59,"programNumber":41},{"time":230499.76950000014,"duration":55.55549999998766,"noteNumber":79,"velocity":61,"programNumber":41},{"time":230555.32500000013,"duration":55.55549999998766,"noteNumber":78,"velocity":62,"programNumber":41},{"time":230610.88050000012,"duration":55.55549999998766,"noteNumber":79,"velocity":65,"programNumber":41},{"time":230666.4360000001,"duration":55.55549999998766,"noteNumber":78,"velocity":67,"programNumber":41},{"time":230721.9915000001,"duration":55.55549999998766,"noteNumber":79,"velocity":68,"programNumber":41},{"time":230777.54700000008,"duration":55.55549999998766,"noteNumber":78,"velocity":70,"programNumber":41},{"time":230833.10250000007,"duration":55.55549999998766,"noteNumber":79,"velocity":71,"programNumber":41},{"time":230888.65800000005,"duration":111.11100000000442,"noteNumber":76,"velocity":74,"programNumber":41},{"time":230999.76900000006,"duration":111.11100000000442,"noteNumber":78,"velocity":77,"programNumber":41},{"time":231110.88000000006,"duration":444.4439999999886,"noteNumber":79,"velocity":93,"programNumber":41},{"time":231777.54600000006,"duration":111.11100000000442,"noteNumber":74,"velocity":92,"programNumber":41},{"time":231999.76800000007,"duration":444.4439999999886,"noteNumber":79,"velocity":92,"programNumber":41},{"time":232666.43400000007,"duration":111.11100000000442,"noteNumber":74,"velocity":91,"programNumber":41},{"time":232888.65600000008,"duration":111.11100000000442,"noteNumber":79,"velocity":90,"programNumber":41},{"time":233110.87800000008,"duration":111.11100000000442,"noteNumber":74,"velocity":90,"programNumber":41},{"time":233333.1000000001,"duration":111.11100000000442,"noteNumber":79,"velocity":90,"programNumber":41},{"time":233555.3220000001,"duration":111.11100000000442,"noteNumber":83,"velocity":90,"programNumber":41},{"time":233777.5440000001,"duration":444.4439999999886,"noteNumber":86,"velocity":89,"programNumber":41},{"time":234666.4320000001,"duration":444.4439999999886,"noteNumber":84,"velocity":104,"programNumber":41},{"time":235333.0980000001,"duration":111.11100000000442,"noteNumber":81,"velocity":87,"programNumber":41},{"time":235555.3200000001,"duration":444.4439999999886,"noteNumber":84,"velocity":86,"programNumber":41},{"time":236221.9860000001,"duration":111.11100000000442,"noteNumber":81,"velocity":85,"programNumber":41},{"time":236444.2080000001,"duration":111.11100000000442,"noteNumber":84,"velocity":92,"programNumber":41},{"time":236666.4300000001,"duration":111.11100000000442,"noteNumber":81,"velocity":85,"programNumber":41},{"time":236888.65200000012,"duration":111.11100000000442,"noteNumber":78,"velocity":92,"programNumber":41},{"time":237110.87400000013,"duration":111.11100000000442,"noteNumber":81,"velocity":85,"programNumber":41},{"time":237333.09600000014,"duration":444.4439999999886,"noteNumber":74,"velocity":94,"programNumber":41},{"time":238221.9840000001,"duration":222.22200000000885,"noteNumber":71,"velocity":92,"programNumber":41},{"time":238221.9840000001,"duration":222.22200000000885,"noteNumber":79,"velocity":92,"programNumber":41},{"time":238221.9840000001,"duration":222.22200000000885,"noteNumber":62,"velocity":92,"programNumber":41},{"time":238666.42800000013,"duration":666.6659999999974,"noteNumber":79,"velocity":85,"programNumber":41},{"time":239333.09400000013,"duration":222.22200000000885,"noteNumber":83,"velocity":74,"programNumber":41},{"time":239555.31600000014,"duration":111.11100000000442,"noteNumber":81,"velocity":74,"programNumber":41},{"time":239777.53800000015,"duration":111.11100000000442,"noteNumber":79,"velocity":80,"programNumber":41},{"time":239999.76000000015,"duration":55.55549999998766,"noteNumber":79,"velocity":86,"programNumber":41},{"time":240055.31550000014,"duration":55.55549999998766,"noteNumber":81,"velocity":86,"programNumber":41},{"time":240110.87100000013,"duration":55.55549999998766,"noteNumber":79,"velocity":86,"programNumber":41},{"time":240166.42650000012,"duration":55.55549999998766,"noteNumber":81,"velocity":86,"programNumber":41},{"time":240221.9820000001,"duration":185.18499999999767,"noteNumber":78,"velocity":83,"programNumber":41},{"time":240444.2040000001,"duration":666.6659999999974,"noteNumber":78,"velocity":77,"programNumber":41},{"time":241110.8700000001,"duration":222.22200000000885,"noteNumber":81,"velocity":85,"programNumber":41},{"time":241333.09200000012,"duration":111.11100000000442,"noteNumber":84,"velocity":85,"programNumber":41},{"time":241555.31400000013,"duration":111.11100000000442,"noteNumber":78,"velocity":85,"programNumber":41},{"time":241777.53600000014,"duration":222.22200000000885,"noteNumber":81,"velocity":85,"programNumber":41},{"time":241999.75800000015,"duration":111.11100000000442,"noteNumber":79,"velocity":85,"programNumber":41},{"time":242221.98000000016,"duration":666.6659999999974,"noteNumber":79,"velocity":85,"programNumber":41},{"time":242888.64600000015,"duration":222.22200000000885,"noteNumber":83,"velocity":85,"programNumber":41},{"time":243110.86800000016,"duration":111.11100000000442,"noteNumber":81,"velocity":85,"programNumber":41},{"time":243333.09000000017,"duration":111.11100000000442,"noteNumber":79,"velocity":85,"programNumber":41},{"time":243555.31200000018,"duration":55.55549999998766,"noteNumber":79,"velocity":85,"programNumber":41},{"time":243610.86750000017,"duration":55.55549999998766,"noteNumber":81,"velocity":85,"programNumber":41},{"time":243666.42300000016,"duration":55.55549999998766,"noteNumber":79,"velocity":85,"programNumber":41},{"time":243721.97850000014,"duration":55.55549999998766,"noteNumber":81,"velocity":85,"programNumber":41},{"time":243777.53400000013,"duration":185.18499999999767,"noteNumber":78,"velocity":85,"programNumber":41},{"time":243999.75600000014,"duration":666.6659999999974,"noteNumber":78,"velocity":85,"programNumber":41},{"time":244666.42200000014,"duration":222.22200000000885,"noteNumber":81,"velocity":85,"programNumber":41},{"time":244888.64400000015,"duration":111.11100000000442,"noteNumber":84,"velocity":85,"programNumber":41},{"time":245110.86600000015,"duration":111.11100000000442,"noteNumber":78,"velocity":85,"programNumber":41},{"time":245333.08800000016,"duration":111.11100000000442,"noteNumber":79,"velocity":85,"programNumber":41},{"time":245555.31000000017,"duration":111.11100000000442,"noteNumber":79,"velocity":85,"programNumber":41},{"time":245777.53200000018,"duration":111.11100000000442,"noteNumber":79,"velocity":85,"programNumber":41},{"time":245888.6430000002,"duration":111.11100000000442,"noteNumber":78,"velocity":85,"programNumber":41},{"time":245999.7540000002,"duration":111.11100000000442,"noteNumber":76,"velocity":85,"programNumber":41},{"time":246110.8650000002,"duration":111.11100000000442,"noteNumber":78,"velocity":85,"programNumber":41},{"time":246221.9760000002,"duration":111.11100000000442,"noteNumber":79,"velocity":85,"programNumber":41},{"time":246444.1980000002,"duration":111.11100000000442,"noteNumber":79,"velocity":85,"programNumber":41},{"time":246666.42000000022,"duration":111.11100000000442,"noteNumber":83,"velocity":85,"programNumber":41},{"time":246777.53100000022,"duration":111.11100000000442,"noteNumber":81,"velocity":85,"programNumber":41},{"time":246888.64200000023,"duration":111.11100000000442,"noteNumber":79,"velocity":85,"programNumber":41},{"time":246999.75300000023,"duration":111.11100000000442,"noteNumber":81,"velocity":83,"programNumber":41},{"time":247110.86400000023,"duration":111.11100000000442,"noteNumber":83,"velocity":83,"programNumber":41},{"time":247333.08600000024,"duration":111.11100000000442,"noteNumber":83,"velocity":83,"programNumber":41},{"time":247555.30800000025,"duration":111.11100000000442,"noteNumber":86,"velocity":83,"programNumber":41},{"time":247666.41900000026,"duration":111.11100000000442,"noteNumber":84,"velocity":80,"programNumber":41},{"time":247777.53000000026,"duration":111.11100000000442,"noteNumber":83,"velocity":79,"programNumber":41},{"time":247888.64100000027,"duration":111.11100000000442,"noteNumber":84,"velocity":76,"programNumber":41},{"time":247999.75200000027,"duration":444.4439999999886,"noteNumber":86,"velocity":71,"programNumber":41},{"time":248888.64000000025,"duration":888.8880000000063,"noteNumber":74,"velocity":56,"programNumber":41},{"time":249777.52800000025,"duration":888.8880000000063,"noteNumber":76,"velocity":55,"programNumber":41},{"time":250666.41600000026,"duration":111.11100000000442,"noteNumber":74,"velocity":57,"programNumber":41},{"time":250777.52700000026,"duration":296.2960000000021,"noteNumber":72,"velocity":59,"programNumber":41},{"time":251110.86000000028,"duration":444.4439999999886,"noteNumber":72,"velocity":58,"programNumber":41},{"time":251555.30400000027,"duration":111.11100000000442,"noteNumber":72,"velocity":57,"programNumber":41},{"time":251666.41500000027,"duration":296.2960000000021,"noteNumber":71,"velocity":55,"programNumber":41},{"time":251999.74800000028,"duration":444.4439999999886,"noteNumber":71,"velocity":53,"programNumber":41},{"time":252444.19200000027,"duration":111.11100000000442,"noteNumber":71,"velocity":57,"programNumber":41},{"time":252555.30300000028,"duration":296.2960000000021,"noteNumber":69,"velocity":56,"programNumber":41},{"time":252888.6360000003,"duration":444.4439999999886,"noteNumber":69,"velocity":55,"programNumber":41},{"time":253333.08000000028,"duration":222.22200000000885,"noteNumber":67,"velocity":54,"programNumber":41},{"time":253555.3020000003,"duration":111.11100000000442,"noteNumber":66,"velocity":55,"programNumber":41},{"time":253777.5240000003,"duration":111.11100000000442,"noteNumber":64,"velocity":55,"programNumber":41},{"time":253999.7460000003,"duration":111.11100000000442,"noteNumber":66,"velocity":55,"programNumber":41},{"time":254221.9680000003,"duration":222.22200000000885,"noteNumber":67,"velocity":56,"programNumber":41},{"time":254666.41200000033,"duration":222.22200000000885,"noteNumber":69,"velocity":57,"programNumber":41},{"time":255110.85600000035,"duration":222.22200000000885,"noteNumber":71,"velocity":57,"programNumber":41},{"time":255999.74400000036,"duration":888.8880000000063,"noteNumber":74,"velocity":56,"programNumber":41},{"time":256888.63200000036,"duration":888.8880000000063,"noteNumber":76,"velocity":59,"programNumber":41},{"time":257777.52000000037,"duration":222.22200000000885,"noteNumber":74,"velocity":46,"programNumber":41},{"time":257999.74200000038,"duration":111.11100000000442,"noteNumber":72,"velocity":51,"programNumber":41},{"time":258221.9640000004,"duration":111.11100000000442,"noteNumber":72,"velocity":51,"programNumber":41},{"time":258444.1860000004,"duration":111.11100000000442,"noteNumber":72,"velocity":51,"programNumber":41},{"time":258666.4080000004,"duration":222.22200000000885,"noteNumber":72,"velocity":51,"programNumber":41},{"time":258888.6300000004,"duration":111.11100000000442,"noteNumber":71,"velocity":50,"programNumber":41},{"time":259110.85200000042,"duration":111.11100000000442,"noteNumber":71,"velocity":49,"programNumber":41},{"time":259333.07400000043,"duration":111.11100000000442,"noteNumber":71,"velocity":49,"programNumber":41},{"time":259555.29600000044,"duration":222.22200000000885,"noteNumber":71,"velocity":49,"programNumber":41},{"time":259777.51800000045,"duration":111.11100000000442,"noteNumber":69,"velocity":50,"programNumber":41},{"time":259999.74000000046,"duration":166.66649999999208,"noteNumber":69,"velocity":52,"programNumber":41},{"time":260221.96200000044,"duration":166.66649999999208,"noteNumber":69,"velocity":52,"programNumber":41},{"time":260444.18400000042,"duration":222.22200000000885,"noteNumber":67,"velocity":52,"programNumber":41},{"time":260666.40600000042,"duration":222.22200000000885,"noteNumber":66,"velocity":54,"programNumber":41},{"time":260888.62800000043,"duration":222.22200000000885,"noteNumber":64,"velocity":55,"programNumber":41},{"time":261110.85000000044,"duration":222.22200000000885,"noteNumber":66,"velocity":55,"programNumber":41},{"time":261333.07200000045,"duration":1111.109999999986,"noteNumber":67,"velocity":85,"programNumber":41},{"time":261333.07200000045,"duration":1111.109999999986,"noteNumber":55,"velocity":85,"programNumber":41},{"time":262444.18200000044,"duration":55.555500000016764,"noteNumber":67,"velocity":61,"programNumber":41},{"time":262499.73750000045,"duration":55.555500000016764,"noteNumber":69,"velocity":61,"programNumber":41},{"time":262555.29300000047,"duration":55.555500000016764,"noteNumber":66,"velocity":61,"programNumber":41},{"time":262610.8485000005,"duration":55.555500000016764,"noteNumber":67,"velocity":61,"programNumber":41},{"time":262666.4040000005,"duration":222.22200000000885,"noteNumber":69,"velocity":61,"programNumber":41},{"time":262888.6260000005,"duration":222.22200000000885,"noteNumber":66,"velocity":61,"programNumber":41},{"time":263110.8480000005,"duration":1111.109999999986,"noteNumber":71,"velocity":91,"programNumber":41},{"time":264221.9580000005,"duration":55.555500000016764,"noteNumber":71,"velocity":61,"programNumber":41},{"time":264277.5135000005,"duration":55.555500000016764,"noteNumber":72,"velocity":61,"programNumber":41},{"time":264333.06900000054,"duration":55.555500000016764,"noteNumber":69,"velocity":61,"programNumber":41},{"time":264388.62450000056,"duration":55.555500000016764,"noteNumber":71,"velocity":61,"programNumber":41},{"time":264444.1800000006,"duration":222.22200000000885,"noteNumber":72,"velocity":61,"programNumber":41},{"time":264666.4020000006,"duration":222.22200000000885,"noteNumber":69,"velocity":61,"programNumber":41},{"time":264888.6240000006,"duration":74.07400000002235,"noteNumber":74,"velocity":51,"programNumber":41},{"time":264999.7350000006,"duration":74.07400000002235,"noteNumber":74,"velocity":56,"programNumber":41},{"time":265110.84600000066,"duration":74.07400000002235,"noteNumber":74,"velocity":59,"programNumber":41},{"time":265221.9570000007,"duration":74.07400000002235,"noteNumber":74,"velocity":56,"programNumber":41},{"time":265333.0680000007,"duration":74.07400000002235,"noteNumber":74,"velocity":56,"programNumber":41},{"time":265444.17900000076,"duration":74.07400000002235,"noteNumber":74,"velocity":56,"programNumber":41},{"time":265555.2900000008,"duration":74.07400000002235,"noteNumber":74,"velocity":56,"programNumber":41},{"time":265666.4010000008,"duration":74.07400000002235,"noteNumber":74,"velocity":56,"programNumber":41},{"time":265777.51200000086,"duration":74.07400000002235,"noteNumber":76,"velocity":56,"programNumber":41},{"time":265888.6230000009,"duration":74.07400000002235,"noteNumber":76,"velocity":56,"programNumber":41},{"time":265999.7340000009,"duration":74.07400000002235,"noteNumber":76,"velocity":56,"programNumber":41},{"time":266110.84500000096,"duration":74.07400000002235,"noteNumber":76,"velocity":56,"programNumber":41},{"time":266221.956000001,"duration":74.07400000002235,"noteNumber":78,"velocity":56,"programNumber":41},{"time":266333.067000001,"duration":74.07400000002235,"noteNumber":78,"velocity":56,"programNumber":41},{"time":266444.17800000106,"duration":74.07400000002235,"noteNumber":78,"velocity":57,"programNumber":41},{"time":266555.2890000011,"duration":74.07400000002235,"noteNumber":78,"velocity":59,"programNumber":41},{"time":266666.40000000113,"duration":74.07400000002235,"noteNumber":79,"velocity":62,"programNumber":41},{"time":266777.51100000116,"duration":74.07400000002235,"noteNumber":79,"velocity":65,"programNumber":41},{"time":266888.6220000012,"duration":74.07400000002235,"noteNumber":79,"velocity":66,"programNumber":41},{"time":266999.73300000123,"duration":74.07400000002235,"noteNumber":79,"velocity":66,"programNumber":41},{"time":267110.84400000126,"duration":74.07400000002235,"noteNumber":81,"velocity":66,"programNumber":41},{"time":267221.9550000013,"duration":74.07400000002235,"noteNumber":81,"velocity":66,"programNumber":41},{"time":267333.06600000133,"duration":74.07400000002235,"noteNumber":81,"velocity":66,"programNumber":41},{"time":267444.17700000136,"duration":74.07400000002235,"noteNumber":81,"velocity":68,"programNumber":41},{"time":267555.2880000014,"duration":74.07400000002235,"noteNumber":83,"velocity":68,"programNumber":41},{"time":267666.39900000143,"duration":74.07400000002235,"noteNumber":83,"velocity":70,"programNumber":41},{"time":267777.51000000146,"duration":74.07400000002235,"noteNumber":83,"velocity":70,"programNumber":41},{"time":267888.6210000015,"duration":74.07400000002235,"noteNumber":83,"velocity":71,"programNumber":41},{"time":267999.73200000153,"duration":74.07400000002235,"noteNumber":85,"velocity":71,"programNumber":41},{"time":268110.84300000157,"duration":74.07400000002235,"noteNumber":85,"velocity":73,"programNumber":41},{"time":268221.9540000016,"duration":74.07400000002235,"noteNumber":85,"velocity":74,"programNumber":41},{"time":268333.06500000163,"duration":74.07400000002235,"noteNumber":85,"velocity":74,"programNumber":41},{"time":268444.17600000167,"duration":666.6660000000265,"noteNumber":86,"velocity":85,"programNumber":41},{"time":269110.8420000017,"duration":222.22200000000885,"noteNumber":81,"velocity":85,"programNumber":41},{"time":269333.0640000017,"duration":333.33299999998417,"noteNumber":85,"velocity":85,"programNumber":41},{"time":269666.3970000017,"duration":111.11099999997532,"noteNumber":81,"velocity":85,"programNumber":41},{"time":269777.50800000166,"duration":333.33299999998417,"noteNumber":85,"velocity":85,"programNumber":41},{"time":270110.84100000164,"duration":111.11099999997532,"noteNumber":81,"velocity":85,"programNumber":41},{"time":270221.9520000016,"duration":666.6660000000265,"noteNumber":86,"velocity":85,"programNumber":41},{"time":270888.61800000165,"duration":222.22200000000885,"noteNumber":81,"velocity":85,"programNumber":41},{"time":271110.84000000166,"duration":333.33299999998417,"noteNumber":85,"velocity":85,"programNumber":41},{"time":271444.17300000164,"duration":111.11099999997532,"noteNumber":81,"velocity":85,"programNumber":41},{"time":271555.2840000016,"duration":333.33299999998417,"noteNumber":85,"velocity":85,"programNumber":41},{"time":271888.6170000016,"duration":111.11099999997532,"noteNumber":81,"velocity":85,"programNumber":41},{"time":271999.7280000016,"duration":111.11099999997532,"noteNumber":86,"velocity":100,"programNumber":41},{"time":272221.9500000015,"duration":111.11099999997532,"noteNumber":81,"velocity":100,"programNumber":41},{"time":272444.1720000015,"duration":111.11099999997532,"noteNumber":85,"velocity":100,"programNumber":41},{"time":272666.3940000014,"duration":111.11099999997532,"noteNumber":81,"velocity":100,"programNumber":41},{"time":272888.6160000014,"duration":111.11099999997532,"noteNumber":86,"velocity":100,"programNumber":41},{"time":273110.8380000013,"duration":111.11099999997532,"noteNumber":81,"velocity":100,"programNumber":41},{"time":273333.0600000013,"duration":111.11099999997532,"noteNumber":85,"velocity":100,"programNumber":41},{"time":273555.2820000012,"duration":111.11099999997532,"noteNumber":81,"velocity":100,"programNumber":41},{"time":273777.5040000012,"duration":166.66649999999208,"noteNumber":86,"velocity":85,"programNumber":41},{"time":273999.7260000012,"duration":166.66649999999208,"noteNumber":62,"velocity":85,"programNumber":41},{"time":274221.9480000012,"duration":166.66649999999208,"noteNumber":62,"velocity":85,"programNumber":41},{"time":274444.1700000012,"duration":166.66649999999208,"noteNumber":62,"velocity":85,"programNumber":41},{"time":274666.3920000012,"duration":444.4440000000177,"noteNumber":62,"velocity":85,"programNumber":41},{"time":275555.28000000125,"duration":666.6660000000265,"noteNumber":74,"velocity":46,"programNumber":41},{"time":276221.9460000013,"duration":74.07400000002235,"noteNumber":72,"velocity":47,"programNumber":41},{"time":276296.0200000013,"duration":74.07400000002235,"noteNumber":71,"velocity":47,"programNumber":41},{"time":276370.0940000013,"duration":74.07400000002235,"noteNumber":69,"velocity":47,"programNumber":41},{"time":276444.16800000134,"duration":222.22200000000885,"noteNumber":67,"velocity":47,"programNumber":41},{"time":276888.61200000136,"duration":222.22200000000885,"noteNumber":76,"velocity":47,"programNumber":41},{"time":277333.0560000014,"duration":222.22200000000885,"noteNumber":72,"velocity":46,"programNumber":41},{"time":277777.5000000014,"duration":222.22200000000885,"noteNumber":69,"velocity":43,"programNumber":41},{"time":278221.9440000014,"duration":222.22200000000885,"noteNumber":74,"velocity":59,"programNumber":41},{"time":279110.83200000145,"duration":666.6660000000265,"noteNumber":83,"velocity":55,"programNumber":41},{"time":279777.4980000015,"duration":74.07400000002235,"noteNumber":81,"velocity":55,"programNumber":41},{"time":279851.5720000015,"duration":74.07400000002235,"noteNumber":79,"velocity":55,"programNumber":41},{"time":279925.6460000015,"duration":74.07400000002235,"noteNumber":78,"velocity":55,"programNumber":41},{"time":279999.72000000154,"duration":222.22200000000885,"noteNumber":76,"velocity":55,"programNumber":41},{"time":280444.16400000156,"duration":222.22200000000885,"noteNumber":84,"velocity":55,"programNumber":41},{"time":280888.6080000016,"duration":888.8879999999772,"noteNumber":83,"velocity":55,"programNumber":41},{"time":281777.49600000156,"duration":444.4440000000177,"noteNumber":81,"velocity":47,"programNumber":41},{"time":282888.6060000016,"duration":111.11099999997532,"noteNumber":86,"velocity":55,"programNumber":41},{"time":283110.82800000155,"duration":111.11099999997532,"noteNumber":86,"velocity":55,"programNumber":41},{"time":283333.0500000015,"duration":111.11099999997532,"noteNumber":86,"velocity":55,"programNumber":41},{"time":283555.27200000145,"duration":111.11099999997532,"noteNumber":86,"velocity":55,"programNumber":41},{"time":283777.4940000014,"duration":111.11099999997532,"noteNumber":86,"velocity":55,"programNumber":41},{"time":283999.71600000135,"duration":111.11099999997532,"noteNumber":86,"velocity":55,"programNumber":41},{"time":284221.9380000013,"duration":111.11099999997532,"noteNumber":86,"velocity":55,"programNumber":41},{"time":284444.16000000125,"duration":111.11099999997532,"noteNumber":86,"velocity":55,"programNumber":41},{"time":284666.3820000012,"duration":111.11099999997532,"noteNumber":86,"velocity":55,"programNumber":41},{"time":284888.60400000116,"duration":111.11099999997532,"noteNumber":86,"velocity":55,"programNumber":41},{"time":285110.8260000011,"duration":111.11099999997532,"noteNumber":86,"velocity":55,"programNumber":41},{"time":285333.04800000106,"duration":222.22200000000885,"noteNumber":86,"velocity":55,"programNumber":41},{"time":285555.27000000107,"duration":222.22200000000885,"noteNumber":84,"velocity":55,"programNumber":41},{"time":285777.4920000011,"duration":222.22200000000885,"noteNumber":79,"velocity":55,"programNumber":41},{"time":285999.7140000011,"duration":222.22200000000885,"noteNumber":78,"velocity":55,"programNumber":41},{"time":286221.9360000011,"duration":222.22200000000885,"noteNumber":78,"velocity":55,"programNumber":41},{"time":286444.1580000011,"duration":222.22200000000885,"noteNumber":79,"velocity":65,"programNumber":41},{"time":286888.6020000011,"duration":111.11099999997532,"noteNumber":76,"velocity":55,"programNumber":41},{"time":287110.82400000107,"duration":222.22200000000885,"noteNumber":76,"velocity":55,"programNumber":41},{"time":287333.0460000011,"duration":222.22200000000885,"noteNumber":74,"velocity":55,"programNumber":41},{"time":287777.4900000011,"duration":166.66649999999208,"noteNumber":66,"velocity":55,"programNumber":41},{"time":287999.7120000011,"duration":444.4440000000177,"noteNumber":67,"velocity":67,"programNumber":41},{"time":288666.37800000113,"duration":111.11099999997532,"noteNumber":74,"velocity":55,"programNumber":41},{"time":288888.6000000011,"duration":222.22200000000885,"noteNumber":79,"velocity":55,"programNumber":41},{"time":289110.8220000011,"duration":222.22200000000885,"noteNumber":78,"velocity":55,"programNumber":41},{"time":289333.0440000011,"duration":222.22200000000885,"noteNumber":76,"velocity":55,"programNumber":41},{"time":289555.2660000011,"duration":222.22200000000885,"noteNumber":74,"velocity":55,"programNumber":41},{"time":289777.4880000011,"duration":55.555500000016764,"noteNumber":76,"velocity":55,"programNumber":41},{"time":289833.04350000113,"duration":55.555500000016764,"noteNumber":78,"velocity":55,"programNumber":41},{"time":289888.59900000115,"duration":55.555500000016764,"noteNumber":76,"velocity":55,"programNumber":41},{"time":289944.15450000117,"duration":55.555500000016764,"noteNumber":78,"velocity":55,"programNumber":41},{"time":289999.7100000012,"duration":222.22200000000885,"noteNumber":74,"velocity":55,"programNumber":41},{"time":290444.1540000012,"duration":111.11099999997532,"noteNumber":74,"velocity":55,"programNumber":41},{"time":290666.37600000115,"duration":111.11099999997532,"noteNumber":74,"velocity":55,"programNumber":41},{"time":290888.5980000011,"duration":111.11099999997532,"noteNumber":74,"velocity":55,"programNumber":41},{"time":291110.82000000105,"duration":111.11099999997532,"noteNumber":74,"velocity":55,"programNumber":41},{"time":291333.042000001,"duration":111.11099999997532,"noteNumber":74,"velocity":55,"programNumber":41},{"time":291555.26400000096,"duration":55.555500000016764,"noteNumber":76,"velocity":55,"programNumber":41},{"time":291610.819500001,"duration":55.555500000016764,"noteNumber":78,"velocity":55,"programNumber":41},{"time":291666.375000001,"duration":55.555500000016764,"noteNumber":76,"velocity":55,"programNumber":41},{"time":291721.930500001,"duration":55.555500000016764,"noteNumber":78,"velocity":55,"programNumber":41},{"time":291777.486000001,"duration":222.22200000000885,"noteNumber":74,"velocity":55,"programNumber":41},{"time":292221.93000000104,"duration":166.66649999999208,"noteNumber":74,"velocity":55,"programNumber":41},{"time":292444.15200000105,"duration":222.22200000000885,"noteNumber":79,"velocity":55,"programNumber":41},{"time":292666.37400000106,"duration":222.22200000000885,"noteNumber":78,"velocity":55,"programNumber":41},{"time":292888.59600000107,"duration":222.22200000000885,"noteNumber":76,"velocity":55,"programNumber":41},{"time":293110.8180000011,"duration":222.22200000000885,"noteNumber":74,"velocity":55,"programNumber":41},{"time":293333.0400000011,"duration":55.555500000016764,"noteNumber":76,"velocity":55,"programNumber":41},{"time":293388.5955000011,"duration":55.555500000016764,"noteNumber":78,"velocity":55,"programNumber":41},{"time":293444.1510000011,"duration":55.555500000016764,"noteNumber":76,"velocity":55,"programNumber":41},{"time":293499.70650000114,"duration":55.555500000016764,"noteNumber":78,"velocity":55,"programNumber":41},{"time":293555.26200000115,"duration":222.22200000000885,"noteNumber":74,"velocity":55,"programNumber":41},{"time":293999.70600000117,"duration":111.11099999997532,"noteNumber":74,"velocity":55,"programNumber":41},{"time":294221.9280000011,"duration":111.11099999997532,"noteNumber":74,"velocity":55,"programNumber":41},{"time":294444.1500000011,"duration":111.11099999997532,"noteNumber":74,"velocity":55,"programNumber":41},{"time":294666.372000001,"duration":111.11099999997532,"noteNumber":74,"velocity":55,"programNumber":41},{"time":294888.594000001,"duration":111.11099999997532,"noteNumber":74,"velocity":55,"programNumber":41},{"time":295110.8160000009,"duration":55.555500000016764,"noteNumber":76,"velocity":55,"programNumber":41},{"time":295166.37150000094,"duration":55.555500000016764,"noteNumber":78,"velocity":55,"programNumber":41},{"time":295221.92700000096,"duration":55.555500000016764,"noteNumber":76,"velocity":55,"programNumber":41},{"time":295277.482500001,"duration":55.555500000016764,"noteNumber":78,"velocity":55,"programNumber":41},{"time":295333.038000001,"duration":222.22200000000885,"noteNumber":74,"velocity":55,"programNumber":41},{"time":295999.704000001,"duration":629.6290000000154,"noteNumber":76,"velocity":83,"programNumber":41},{"time":295999.704000001,"duration":629.6290000000154,"noteNumber":64,"velocity":83,"programNumber":41},{"time":296666.37000000104,"duration":74.07400000002235,"noteNumber":74,"velocity":82,"programNumber":41},{"time":296740.44400000107,"duration":74.07400000002235,"noteNumber":72,"velocity":82,"programNumber":41},{"time":296814.5180000011,"duration":74.07400000002235,"noteNumber":71,"velocity":82,"programNumber":41},{"time":296888.5920000011,"duration":444.4440000000177,"noteNumber":72,"velocity":83,"programNumber":41},{"time":297777.48000000115,"duration":629.6290000000154,"noteNumber":62,"velocity":85,"programNumber":41},{"time":297777.48000000115,"duration":629.6290000000154,"noteNumber":74,"velocity":85,"programNumber":41},{"time":298444.1460000012,"duration":74.07400000002235,"noteNumber":72,"velocity":77,"programNumber":41},{"time":298518.2200000012,"duration":74.07400000002235,"noteNumber":71,"velocity":79,"programNumber":41},{"time":298592.2940000012,"duration":74.07400000002235,"noteNumber":69,"velocity":83,"programNumber":41},{"time":298666.36800000124,"duration":444.4440000000177,"noteNumber":71,"velocity":88,"programNumber":41},{"time":299555.2560000013,"duration":222.22200000000885,"noteNumber":76,"velocity":85,"programNumber":41},{"time":299777.4780000013,"duration":111.11099999997532,"noteNumber":78,"velocity":85,"programNumber":41},{"time":299888.58900000126,"duration":111.11099999997532,"noteNumber":79,"velocity":85,"programNumber":41},{"time":299999.70000000123,"duration":166.66649999999208,"noteNumber":78,"velocity":85,"programNumber":41},{"time":300221.92200000124,"duration":111.11099999997532,"noteNumber":76,"velocity":85,"programNumber":41},{"time":300444.1440000012,"duration":222.22200000000885,"noteNumber":76,"velocity":85,"programNumber":41},{"time":300666.3660000012,"duration":166.66649999999208,"noteNumber":74,"velocity":85,"programNumber":41},{"time":300888.5880000012,"duration":111.11099999997532,"noteNumber":71,"velocity":85,"programNumber":41},{"time":301110.81000000116,"duration":111.11099999997532,"noteNumber":74,"velocity":85,"programNumber":41},{"time":301333.0320000011,"duration":222.22200000000885,"noteNumber":74,"velocity":85,"programNumber":41},{"time":301555.2540000011,"duration":166.66649999999208,"noteNumber":72,"velocity":85,"programNumber":41},{"time":301777.47600000113,"duration":111.11099999997532,"noteNumber":71,"velocity":85,"programNumber":41},{"time":301999.6980000011,"duration":111.11099999997532,"noteNumber":69,"velocity":85,"programNumber":41},{"time":302221.92000000103,"duration":444.4440000000177,"noteNumber":67,"velocity":85,"programNumber":41},{"time":302888.58600000106,"duration":111.11099999997532,"noteNumber":74,"velocity":50,"programNumber":41},{"time":303110.808000001,"duration":222.22200000000885,"noteNumber":79,"velocity":50,"programNumber":41},{"time":303333.030000001,"duration":222.22200000000885,"noteNumber":78,"velocity":50,"programNumber":41},{"time":303555.252000001,"duration":222.22200000000885,"noteNumber":76,"velocity":53,"programNumber":41},{"time":303777.47400000104,"duration":222.22200000000885,"noteNumber":74,"velocity":56,"programNumber":41},{"time":303999.69600000104,"duration":55.555500000016764,"noteNumber":76,"velocity":58,"programNumber":41},{"time":304055.25150000106,"duration":55.555500000016764,"noteNumber":78,"velocity":58,"programNumber":41},{"time":304110.8070000011,"duration":55.555500000016764,"noteNumber":76,"velocity":59,"programNumber":41},{"time":304166.3625000011,"duration":55.555500000016764,"noteNumber":78,"velocity":59,"programNumber":41},{"time":304221.9180000011,"duration":222.22200000000885,"noteNumber":74,"velocity":61,"programNumber":41},{"time":304666.3620000011,"duration":111.11099999997532,"noteNumber":74,"velocity":56,"programNumber":41},{"time":304888.5840000011,"duration":111.11099999997532,"noteNumber":74,"velocity":55,"programNumber":41},{"time":305110.80600000103,"duration":111.11099999997532,"noteNumber":74,"velocity":55,"programNumber":41},{"time":305333.028000001,"duration":111.11099999997532,"noteNumber":74,"velocity":53,"programNumber":41},{"time":305555.25000000093,"duration":111.11099999997532,"noteNumber":74,"velocity":52,"programNumber":41},{"time":305777.4720000009,"duration":55.555500000016764,"noteNumber":76,"velocity":55,"programNumber":41},{"time":305833.0275000009,"duration":55.555500000016764,"noteNumber":78,"velocity":55,"programNumber":41},{"time":305888.5830000009,"duration":55.555500000016764,"noteNumber":76,"velocity":55,"programNumber":41},{"time":305944.13850000093,"duration":55.555500000016764,"noteNumber":78,"velocity":55,"programNumber":41},{"time":305999.69400000095,"duration":222.22200000000885,"noteNumber":74,"velocity":55,"programNumber":41},{"time":306444.13800000097,"duration":166.66649999999208,"noteNumber":74,"velocity":55,"programNumber":41},{"time":306666.360000001,"duration":222.22200000000885,"noteNumber":79,"velocity":55,"programNumber":41},{"time":306888.582000001,"duration":222.22200000000885,"noteNumber":78,"velocity":55,"programNumber":41},{"time":307110.804000001,"duration":222.22200000000885,"noteNumber":76,"velocity":55,"programNumber":41},{"time":307333.026000001,"duration":222.22200000000885,"noteNumber":74,"velocity":56,"programNumber":41},{"time":307555.248000001,"duration":55.555500000016764,"noteNumber":76,"velocity":65,"programNumber":41},{"time":307610.803500001,"duration":55.555500000016764,"noteNumber":78,"velocity":65,"programNumber":41},{"time":307666.35900000104,"duration":55.555500000016764,"noteNumber":76,"velocity":65,"programNumber":41},{"time":307721.91450000106,"duration":55.555500000016764,"noteNumber":78,"velocity":65,"programNumber":41},{"time":307777.4700000011,"duration":222.22200000000885,"noteNumber":74,"velocity":64,"programNumber":41},{"time":308221.9140000011,"duration":111.11099999997532,"noteNumber":74,"velocity":55,"programNumber":41},{"time":308444.13600000105,"duration":111.11099999997532,"noteNumber":74,"velocity":55,"programNumber":41},{"time":308666.358000001,"duration":111.11099999997532,"noteNumber":74,"velocity":55,"programNumber":41},{"time":308888.58000000095,"duration":111.11099999997532,"noteNumber":74,"velocity":55,"programNumber":41},{"time":309110.8020000009,"duration":111.11099999997532,"noteNumber":74,"velocity":55,"programNumber":41},{"time":309333.02400000085,"duration":55.555500000016764,"noteNumber":76,"velocity":59,"programNumber":41},{"time":309388.57950000087,"duration":55.555500000016764,"noteNumber":78,"velocity":59,"programNumber":41},{"time":309444.1350000009,"duration":55.555500000016764,"noteNumber":76,"velocity":59,"programNumber":41},{"time":309499.6905000009,"duration":55.555500000016764,"noteNumber":78,"velocity":59,"programNumber":41},{"time":309555.2460000009,"duration":222.22200000000885,"noteNumber":74,"velocity":59,"programNumber":41},{"time":310221.91200000094,"duration":629.6290000000154,"noteNumber":88,"velocity":85,"programNumber":41},{"time":310888.57800000097,"duration":74.07400000002235,"noteNumber":86,"velocity":85,"programNumber":41},{"time":310962.652000001,"duration":74.07400000002235,"noteNumber":84,"velocity":85,"programNumber":41},{"time":311036.726000001,"duration":74.07400000002235,"noteNumber":83,"velocity":85,"programNumber":41},{"time":311110.80000000104,"duration":444.4440000000177,"noteNumber":84,"velocity":85,"programNumber":41},{"time":311999.6880000011,"duration":629.6290000000154,"noteNumber":74,"velocity":85,"programNumber":41},{"time":311999.6880000011,"duration":629.6290000000154,"noteNumber":86,"velocity":85,"programNumber":41},{"time":312666.3540000011,"duration":74.07400000002235,"noteNumber":84,"velocity":82,"programNumber":41},{"time":312740.4280000011,"duration":74.07400000002235,"noteNumber":83,"velocity":83,"programNumber":41},{"time":312814.50200000114,"duration":74.07400000002235,"noteNumber":81,"velocity":83,"programNumber":41},{"time":312888.57600000117,"duration":444.4440000000177,"noteNumber":83,"velocity":86,"programNumber":41},{"time":313777.4640000012,"duration":222.22200000000885,"noteNumber":76,"velocity":85,"programNumber":41},{"time":313999.6860000012,"duration":111.11099999997532,"noteNumber":78,"velocity":85,"programNumber":41},{"time":314110.7970000012,"duration":111.11099999997532,"noteNumber":79,"velocity":85,"programNumber":41},{"time":314221.90800000116,"duration":166.66649999999208,"noteNumber":78,"velocity":85,"programNumber":41},{"time":314444.13000000117,"duration":111.11099999997532,"noteNumber":76,"velocity":85,"programNumber":41},{"time":314666.3520000011,"duration":111.11099999997532,"noteNumber":74,"velocity":85,"programNumber":41},{"time":314888.57400000107,"duration":111.11099999997532,"noteNumber":79,"velocity":85,"programNumber":41},{"time":315110.796000001,"duration":111.11099999997532,"noteNumber":83,"velocity":85,"programNumber":41},{"time":315333.018000001,"duration":111.11099999997532,"noteNumber":86,"velocity":85,"programNumber":41},{"time":315555.2400000009,"duration":222.22200000000885,"noteNumber":86,"velocity":85,"programNumber":41},{"time":315777.46200000093,"duration":166.66649999999208,"noteNumber":84,"velocity":85,"programNumber":41},{"time":315999.68400000094,"duration":111.11099999997532,"noteNumber":83,"velocity":85,"programNumber":41},{"time":316221.9060000009,"duration":111.11099999997532,"noteNumber":81,"velocity":85,"programNumber":41},{"time":316444.12800000084,"duration":166.66649999999208,"noteNumber":79,"velocity":94,"programNumber":41},{"time":316666.35000000085,"duration":166.66649999999208,"noteNumber":62,"velocity":85,"programNumber":41},{"time":316888.57200000086,"duration":166.66649999999208,"noteNumber":64,"velocity":85,"programNumber":41},{"time":317110.79400000087,"duration":166.66649999999208,"noteNumber":66,"velocity":85,"programNumber":41},{"time":317333.0160000009,"duration":166.66649999999208,"noteNumber":67,"velocity":85,"programNumber":41},{"time":317555.2380000009,"duration":166.66649999999208,"noteNumber":67,"velocity":85,"programNumber":41},{"time":317777.4600000009,"duration":55.555500000016764,"noteNumber":69,"velocity":85,"programNumber":41},{"time":317833.0155000009,"duration":55.555500000016764,"noteNumber":71,"velocity":85,"programNumber":41},{"time":317888.5710000009,"duration":55.555500000016764,"noteNumber":69,"velocity":85,"programNumber":41},{"time":317944.12650000094,"duration":55.555500000016764,"noteNumber":71,"velocity":85,"programNumber":41},{"time":317999.68200000096,"duration":111.11099999997532,"noteNumber":67,"velocity":85,"programNumber":41},{"time":318110.79300000094,"duration":111.11099999997532,"noteNumber":69,"velocity":85,"programNumber":41},{"time":318221.9040000009,"duration":166.66649999999208,"noteNumber":71,"velocity":85,"programNumber":41},{"time":318444.1260000009,"duration":166.66649999999208,"noteNumber":66,"velocity":85,"programNumber":41},{"time":318666.34800000093,"duration":166.66649999999208,"noteNumber":67,"velocity":85,"programNumber":41},{"time":318888.57000000094,"duration":166.66649999999208,"noteNumber":69,"velocity":85,"programNumber":41},{"time":319110.79200000095,"duration":166.66649999999208,"noteNumber":71,"velocity":85,"programNumber":41},{"time":319333.01400000096,"duration":166.66649999999208,"noteNumber":71,"velocity":85,"programNumber":41},{"time":319555.23600000096,"duration":55.555500000016764,"noteNumber":72,"velocity":86,"programNumber":41},{"time":319610.791500001,"duration":55.555500000016764,"noteNumber":74,"velocity":86,"programNumber":41},{"time":319666.347000001,"duration":55.555500000016764,"noteNumber":72,"velocity":86,"programNumber":41},{"time":319721.902500001,"duration":55.555500000016764,"noteNumber":74,"velocity":86,"programNumber":41},{"time":319777.45800000103,"duration":111.11099999997532,"noteNumber":71,"velocity":86,"programNumber":41},{"time":319888.569000001,"duration":111.11099999997532,"noteNumber":72,"velocity":89,"programNumber":41},{"time":319999.680000001,"duration":166.66649999999208,"noteNumber":74,"velocity":89,"programNumber":41},{"time":320221.902000001,"duration":166.66649999999208,"noteNumber":74,"velocity":91,"programNumber":41},{"time":320444.124000001,"duration":55.555500000016764,"noteNumber":75,"velocity":91,"programNumber":41},{"time":320499.679500001,"duration":55.555500000016764,"noteNumber":76,"velocity":91,"programNumber":41},{"time":320555.23500000103,"duration":55.555500000016764,"noteNumber":75,"velocity":91,"programNumber":41},{"time":320610.79050000105,"duration":55.555500000016764,"noteNumber":76,"velocity":92,"programNumber":41},{"time":320666.34600000107,"duration":111.11099999997532,"noteNumber":73,"velocity":94,"programNumber":41},{"time":320777.45700000104,"duration":111.11099999997532,"noteNumber":75,"velocity":97,"programNumber":41},{"time":320888.568000001,"duration":444.4440000000177,"noteNumber":76,"velocity":98,"programNumber":41},{"time":321777.45600000105,"duration":666.6660000000265,"noteNumber":64,"velocity":61,"programNumber":41},{"time":322444.1220000011,"duration":166.66649999999208,"noteNumber":69,"velocity":61,"programNumber":41},{"time":322666.3440000011,"duration":222.22200000000885,"noteNumber":67,"velocity":61,"programNumber":41},{"time":322888.5660000011,"duration":222.22200000000885,"noteNumber":66,"velocity":62,"programNumber":41},{"time":323110.7880000011,"duration":222.22200000000885,"noteNumber":64,"velocity":62,"programNumber":41},{"time":323333.0100000011,"duration":166.66649999999208,"noteNumber":62,"velocity":62,"programNumber":41},{"time":323555.2320000011,"duration":222.22200000000885,"noteNumber":74,"velocity":62,"programNumber":41},{"time":323777.45400000113,"duration":222.22200000000885,"noteNumber":73,"velocity":62,"programNumber":41},{"time":323999.67600000114,"duration":222.22200000000885,"noteNumber":72,"velocity":62,"programNumber":41},{"time":324221.89800000115,"duration":222.22200000000885,"noteNumber":71,"velocity":62,"programNumber":41},{"time":324444.12000000116,"duration":222.22200000000885,"noteNumber":74,"velocity":61,"programNumber":41},{"time":324666.34200000117,"duration":222.22200000000885,"noteNumber":73,"velocity":61,"programNumber":41},{"time":324888.5640000012,"duration":222.22200000000885,"noteNumber":72,"velocity":61,"programNumber":41},{"time":325110.7860000012,"duration":166.66649999999208,"noteNumber":71,"velocity":59,"programNumber":41},{"time":325333.0080000012,"duration":666.6660000000265,"noteNumber":64,"velocity":61,"programNumber":41},{"time":325999.6740000012,"duration":166.66649999999208,"noteNumber":69,"velocity":67,"programNumber":41},{"time":326221.89600000123,"duration":222.22200000000885,"noteNumber":67,"velocity":70,"programNumber":41},{"time":326444.11800000124,"duration":222.22200000000885,"noteNumber":66,"velocity":70,"programNumber":41},{"time":326666.34000000125,"duration":222.22200000000885,"noteNumber":64,"velocity":70,"programNumber":41},{"time":326888.56200000126,"duration":166.66649999999208,"noteNumber":62,"velocity":70,"programNumber":41},{"time":327110.78400000127,"duration":222.22200000000885,"noteNumber":74,"velocity":70,"programNumber":41},{"time":327333.0060000013,"duration":222.22200000000885,"noteNumber":76,"velocity":70,"programNumber":41},{"time":327555.2280000013,"duration":222.22200000000885,"noteNumber":78,"velocity":70,"programNumber":41},{"time":327777.4500000013,"duration":222.22200000000885,"noteNumber":79,"velocity":70,"programNumber":41},{"time":327999.6720000013,"duration":222.22200000000885,"noteNumber":74,"velocity":70,"programNumber":41},{"time":328221.8940000013,"duration":222.22200000000885,"noteNumber":76,"velocity":70,"programNumber":41},{"time":328444.1160000013,"duration":222.22200000000885,"noteNumber":78,"velocity":70,"programNumber":41},{"time":328666.3380000013,"duration":166.66649999999208,"noteNumber":79,"velocity":76,"programNumber":41},{"time":328888.56000000134,"duration":444.4440000000177,"noteNumber":81,"velocity":75,"programNumber":41},{"time":329777.4480000014,"duration":444.4440000000177,"noteNumber":86,"velocity":91,"programNumber":41},{"time":329777.4480000014,"duration":444.4440000000177,"noteNumber":74,"velocity":91,"programNumber":41},{"time":330666.3360000014,"duration":444.4440000000177,"noteNumber":79,"velocity":96,"programNumber":41},{"time":330666.3360000014,"duration":444.4440000000177,"noteNumber":71,"velocity":96,"programNumber":41},{"time":330666.3360000014,"duration":444.4440000000177,"noteNumber":62,"velocity":96,"programNumber":41},{"time":331333.00200000143,"duration":166.66649999999208,"noteNumber":74,"velocity":95,"programNumber":41},{"time":331555.22400000144,"duration":166.66649999999208,"noteNumber":71,"velocity":94,"programNumber":41},{"time":331777.44600000145,"duration":166.66649999999208,"noteNumber":67,"velocity":90,"programNumber":41},{"time":331999.66800000146,"duration":166.66649999999208,"noteNumber":71,"velocity":90,"programNumber":41},{"time":332221.89000000147,"duration":166.66649999999208,"noteNumber":74,"velocity":89,"programNumber":41},{"time":332444.1120000015,"duration":166.66649999999208,"noteNumber":79,"velocity":88,"programNumber":41},{"time":332666.3340000015,"duration":166.66649999999208,"noteNumber":74,"velocity":88,"programNumber":41},{"time":332888.5560000015,"duration":166.66649999999208,"noteNumber":79,"velocity":88,"programNumber":41},{"time":333110.7780000015,"duration":166.66649999999208,"noteNumber":83,"velocity":90,"programNumber":41},{"time":333333.0000000015,"duration":370.36999999999534,"noteNumber":86,"velocity":92,"programNumber":41},{"time":333777.44400000153,"duration":370.36999999999534,"noteNumber":78,"velocity":95,"programNumber":41},{"time":333777.44400000153,"duration":370.36999999999534,"noteNumber":69,"velocity":95,"programNumber":41},{"time":333777.44400000153,"duration":370.36999999999534,"noteNumber":62,"velocity":95,"programNumber":41},{"time":334221.88800000155,"duration":444.4440000000177,"noteNumber":79,"velocity":100,"programNumber":41},{"time":334221.88800000155,"duration":444.4440000000177,"noteNumber":71,"velocity":100,"programNumber":41},{"time":334221.88800000155,"duration":444.4440000000177,"noteNumber":62,"velocity":100,"programNumber":41},{"time":334888.5540000016,"duration":166.66649999999208,"noteNumber":74,"velocity":98,"programNumber":41},{"time":335110.7760000016,"duration":166.66649999999208,"noteNumber":71,"velocity":98,"programNumber":41},{"time":335332.9980000016,"duration":166.66649999999208,"noteNumber":67,"velocity":95,"programNumber":41},{"time":335555.2200000016,"duration":166.66649999999208,"noteNumber":71,"velocity":94,"programNumber":41},{"time":335777.4420000016,"duration":166.66649999999208,"noteNumber":74,"velocity":92,"programNumber":41},{"time":335999.6640000016,"duration":166.66649999999208,"noteNumber":79,"velocity":91,"programNumber":41},{"time":336221.8860000016,"duration":166.66649999999208,"noteNumber":74,"velocity":91,"programNumber":41},{"time":336444.10800000164,"duration":166.66649999999208,"noteNumber":79,"velocity":92,"programNumber":41},{"time":336666.33000000165,"duration":166.66649999999208,"noteNumber":83,"velocity":92,"programNumber":41},{"time":336888.55200000165,"duration":370.36999999999534,"noteNumber":86,"velocity":96,"programNumber":41},{"time":337332.9960000017,"duration":370.36999999999534,"noteNumber":78,"velocity":99,"programNumber":41},{"time":337332.9960000017,"duration":370.36999999999534,"noteNumber":69,"velocity":99,"programNumber":41},{"time":337332.9960000017,"duration":370.36999999999534,"noteNumber":62,"velocity":99,"programNumber":41},{"time":337777.4400000017,"duration":444.4440000000177,"noteNumber":79,"velocity":109,"programNumber":41},{"time":337777.4400000017,"duration":444.4440000000177,"noteNumber":71,"velocity":109,"programNumber":41},{"time":337777.4400000017,"duration":444.4440000000177,"noteNumber":62,"velocity":109,"programNumber":41},{"time":338666.3280000017,"duration":444.4440000000177,"noteNumber":79,"velocity":106,"programNumber":41},{"time":338666.3280000017,"duration":444.4440000000177,"noteNumber":71,"velocity":106,"programNumber":41},{"time":338666.3280000017,"duration":444.4440000000177,"noteNumber":62,"velocity":106,"programNumber":41},{"time":339555.21600000176,"duration":370.36999999999534,"noteNumber":79,"velocity":106,"programNumber":41},{"time":339555.21600000176,"duration":370.36999999999534,"noteNumber":71,"velocity":106,"programNumber":41},{"time":339555.21600000176,"duration":370.36999999999534,"noteNumber":62,"velocity":106,"programNumber":41},{"time":339999.6600000018,"duration":222.22200000000885,"noteNumber":67,"velocity":110,"programNumber":41},{"time":339999.6600000018,"duration":222.22200000000885,"noteNumber":55,"velocity":110,"programNumber":41},{"time":340332.99300000176,"duration":55.555500000016764,"noteNumber":67,"velocity":109,"programNumber":41},{"time":340332.99300000176,"duration":55.555500000016764,"noteNumber":55,"velocity":109,"programNumber":41},{"time":340444.1040000018,"duration":444.4440000000177,"noteNumber":67,"velocity":108,"programNumber":41},{"time":340444.1040000018,"duration":444.4440000000177,"noteNumber":55,"velocity":108,"programNumber":41}],[{"time":37.037,"duration":444.444,"noteNumber":62,"velocity":85,"programNumber":42},{"time":37.037,"duration":444.444,"noteNumber":71,"velocity":85,"programNumber":42},{"time":37.037,"duration":444.444,"noteNumber":79,"velocity":85,"programNumber":42},{"time":703.703,"duration":111.11099999999999,"noteNumber":74,"velocity":85,"programNumber":42},{"time":925.925,"duration":444.44399999999996,"noteNumber":79,"velocity":85,"programNumber":42},{"time":1592.591,"duration":111.1110000000001,"noteNumber":74,"velocity":85,"programNumber":42},{"time":1814.813,"duration":111.1110000000001,"noteNumber":79,"velocity":85,"programNumber":42},{"time":2037.0350000000003,"duration":111.11099999999988,"noteNumber":74,"velocity":85,"programNumber":42},{"time":2259.257,"duration":111.11099999999988,"noteNumber":79,"velocity":85,"programNumber":42},{"time":2481.479,"duration":111.11099999999988,"noteNumber":83,"velocity":85,"programNumber":42},{"time":2703.7009999999996,"duration":444.44399999999996,"noteNumber":86,"velocity":85,"programNumber":42},{"time":3592.5889999999995,"duration":444.44399999999996,"noteNumber":84,"velocity":85,"programNumber":42},{"time":4259.254999999999,"duration":111.11099999999988,"noteNumber":81,"velocity":85,"programNumber":42},{"time":4481.476999999999,"duration":444.4440000000004,"noteNumber":84,"velocity":85,"programNumber":42},{"time":5148.142999999999,"duration":111.11099999999988,"noteNumber":81,"velocity":85,"programNumber":42},{"time":5370.364999999999,"duration":111.11099999999988,"noteNumber":84,"velocity":85,"programNumber":42},{"time":5592.586999999999,"duration":111.11099999999988,"noteNumber":81,"velocity":85,"programNumber":42},{"time":5814.808999999998,"duration":111.11099999999988,"noteNumber":78,"velocity":85,"programNumber":42},{"time":6037.030999999998,"duration":111.11099999999988,"noteNumber":81,"velocity":85,"programNumber":42},{"time":6259.252999999998,"duration":444.4440000000004,"noteNumber":74,"velocity":85,"programNumber":42},{"time":7111.103999999998,"duration":74.07399999999961,"noteNumber":62,"velocity":85,"programNumber":42},{"time":7111.103999999998,"duration":74.07399999999961,"noteNumber":59,"velocity":85,"programNumber":42},{"time":7222.214999999998,"duration":74.07399999999961,"noteNumber":62,"velocity":85,"programNumber":42},{"time":7222.214999999998,"duration":74.07399999999961,"noteNumber":59,"velocity":85,"programNumber":42},{"time":7333.325999999998,"duration":74.07399999999961,"noteNumber":62,"velocity":85,"programNumber":42},{"time":7333.325999999998,"duration":74.07399999999961,"noteNumber":59,"velocity":85,"programNumber":42},{"time":7444.436999999998,"duration":74.07399999999961,"noteNumber":62,"velocity":85,"programNumber":42},{"time":7444.436999999998,"duration":74.07399999999961,"noteNumber":59,"velocity":85,"programNumber":42},{"time":7555.547999999998,"duration":74.07399999999961,"noteNumber":62,"velocity":85,"programNumber":42},{"time":7555.547999999998,"duration":74.07399999999961,"noteNumber":59,"velocity":85,"programNumber":42},{"time":7666.658999999998,"duration":74.07399999999961,"noteNumber":62,"velocity":85,"programNumber":42},{"time":7666.658999999998,"duration":74.07399999999961,"noteNumber":59,"velocity":85,"programNumber":42},{"time":7777.769999999998,"duration":74.07399999999961,"noteNumber":62,"velocity":85,"programNumber":42},{"time":7777.769999999998,"duration":74.07399999999961,"noteNumber":59,"velocity":85,"programNumber":42},{"time":7888.880999999998,"duration":74.07399999999961,"noteNumber":62,"velocity":85,"programNumber":42},{"time":7888.880999999998,"duration":74.07399999999961,"noteNumber":59,"velocity":85,"programNumber":42},{"time":7999.9919999999975,"duration":74.07399999999961,"noteNumber":62,"velocity":85,"programNumber":42},{"time":7999.9919999999975,"duration":74.07399999999961,"noteNumber":59,"velocity":85,"programNumber":42},{"time":8111.102999999997,"duration":74.07399999999961,"noteNumber":62,"velocity":85,"programNumber":42},{"time":8111.102999999997,"duration":74.07399999999961,"noteNumber":59,"velocity":85,"programNumber":42},{"time":8222.213999999996,"duration":74.07400000000052,"noteNumber":62,"velocity":85,"programNumber":42},{"time":8222.213999999996,"duration":74.07400000000052,"noteNumber":59,"velocity":85,"programNumber":42},{"time":8333.324999999997,"duration":74.07400000000052,"noteNumber":62,"velocity":85,"programNumber":42},{"time":8333.324999999997,"duration":74.07400000000052,"noteNumber":59,"velocity":85,"programNumber":42},{"time":8444.435999999998,"duration":74.07400000000052,"noteNumber":62,"velocity":85,"programNumber":42},{"time":8444.435999999998,"duration":74.07400000000052,"noteNumber":59,"velocity":85,"programNumber":42},{"time":8555.546999999999,"duration":74.07400000000052,"noteNumber":62,"velocity":85,"programNumber":42},{"time":8555.546999999999,"duration":74.07400000000052,"noteNumber":59,"velocity":85,"programNumber":42},{"time":8666.658,"duration":74.07400000000052,"noteNumber":62,"velocity":85,"programNumber":42},{"time":8666.658,"duration":74.07400000000052,"noteNumber":59,"velocity":85,"programNumber":42},{"time":8777.769,"duration":74.07400000000052,"noteNumber":62,"velocity":85,"programNumber":42},{"time":8777.769,"duration":74.07400000000052,"noteNumber":59,"velocity":85,"programNumber":42},{"time":8888.880000000001,"duration":74.07400000000052,"noteNumber":62,"velocity":85,"programNumber":42},{"time":8888.880000000001,"duration":74.07400000000052,"noteNumber":60,"velocity":85,"programNumber":42},{"time":8999.991000000002,"duration":74.07400000000052,"noteNumber":62,"velocity":85,"programNumber":42},{"time":8999.991000000002,"duration":74.07400000000052,"noteNumber":60,"velocity":85,"programNumber":42},{"time":9111.102000000003,"duration":74.07400000000052,"noteNumber":62,"velocity":85,"programNumber":42},{"time":9111.102000000003,"duration":74.07400000000052,"noteNumber":60,"velocity":85,"programNumber":42},{"time":9222.213000000003,"duration":74.07400000000052,"noteNumber":62,"velocity":85,"programNumber":42},{"time":9222.213000000003,"duration":74.07400000000052,"noteNumber":60,"velocity":85,"programNumber":42},{"time":9333.324000000004,"duration":74.07400000000052,"noteNumber":62,"velocity":85,"programNumber":42},{"time":9333.324000000004,"duration":74.07400000000052,"noteNumber":60,"velocity":85,"programNumber":42},{"time":9444.435000000005,"duration":74.07400000000052,"noteNumber":62,"velocity":85,"programNumber":42},{"time":9444.435000000005,"duration":74.07400000000052,"noteNumber":60,"velocity":85,"programNumber":42},{"time":9555.546000000006,"duration":74.07400000000052,"noteNumber":62,"velocity":85,"programNumber":42},{"time":9555.546000000006,"duration":74.07400000000052,"noteNumber":60,"velocity":85,"programNumber":42},{"time":9666.657000000007,"duration":74.07400000000052,"noteNumber":62,"velocity":85,"programNumber":42},{"time":9666.657000000007,"duration":74.07400000000052,"noteNumber":60,"velocity":85,"programNumber":42},{"time":9777.768000000007,"duration":74.07400000000052,"noteNumber":62,"velocity":85,"programNumber":42},{"time":9777.768000000007,"duration":74.07400000000052,"noteNumber":60,"velocity":85,"programNumber":42},{"time":9888.879000000008,"duration":74.07400000000052,"noteNumber":62,"velocity":85,"programNumber":42},{"time":9888.879000000008,"duration":74.07400000000052,"noteNumber":60,"velocity":85,"programNumber":42},{"time":9999.990000000009,"duration":74.07400000000052,"noteNumber":62,"velocity":85,"programNumber":42},{"time":9999.990000000009,"duration":74.07400000000052,"noteNumber":60,"velocity":85,"programNumber":42},{"time":10111.10100000001,"duration":74.07400000000052,"noteNumber":62,"velocity":85,"programNumber":42},{"time":10111.10100000001,"duration":74.07400000000052,"noteNumber":60,"velocity":85,"programNumber":42},{"time":10222.21200000001,"duration":74.07400000000052,"noteNumber":62,"velocity":85,"programNumber":42},{"time":10222.21200000001,"duration":74.07400000000052,"noteNumber":60,"velocity":85,"programNumber":42},{"time":10333.323000000011,"duration":74.07400000000052,"noteNumber":62,"velocity":85,"programNumber":42},{"time":10333.323000000011,"duration":74.07400000000052,"noteNumber":60,"velocity":85,"programNumber":42},{"time":10444.434000000012,"duration":74.07400000000052,"noteNumber":62,"velocity":85,"programNumber":42},{"time":10444.434000000012,"duration":74.07400000000052,"noteNumber":60,"velocity":85,"programNumber":42},{"time":10555.545000000013,"duration":74.07400000000052,"noteNumber":62,"velocity":85,"programNumber":42},{"time":10555.545000000013,"duration":74.07400000000052,"noteNumber":60,"velocity":85,"programNumber":42},{"time":10666.656000000014,"duration":74.07400000000052,"noteNumber":62,"velocity":85,"programNumber":42},{"time":10666.656000000014,"duration":74.07400000000052,"noteNumber":59,"velocity":85,"programNumber":42},{"time":10777.767000000014,"duration":74.07400000000052,"noteNumber":62,"velocity":85,"programNumber":42},{"time":10777.767000000014,"duration":74.07400000000052,"noteNumber":59,"velocity":85,"programNumber":42},{"time":10888.878000000015,"duration":74.07400000000052,"noteNumber":62,"velocity":85,"programNumber":42},{"time":10888.878000000015,"duration":74.07400000000052,"noteNumber":59,"velocity":85,"programNumber":42},{"time":10999.989000000016,"duration":74.07400000000052,"noteNumber":62,"velocity":85,"programNumber":42},{"time":10999.989000000016,"duration":74.07400000000052,"noteNumber":59,"velocity":85,"programNumber":42},{"time":11111.100000000017,"duration":74.07400000000052,"noteNumber":62,"velocity":85,"programNumber":42},{"time":11111.100000000017,"duration":74.07400000000052,"noteNumber":59,"velocity":85,"programNumber":42},{"time":11222.211000000018,"duration":74.07400000000052,"noteNumber":62,"velocity":85,"programNumber":42},{"time":11222.211000000018,"duration":74.07400000000052,"noteNumber":59,"velocity":85,"programNumber":42},{"time":11333.322000000018,"duration":74.07400000000052,"noteNumber":62,"velocity":85,"programNumber":42},{"time":11333.322000000018,"duration":74.07400000000052,"noteNumber":59,"velocity":85,"programNumber":42},{"time":11444.43300000002,"duration":74.07400000000052,"noteNumber":62,"velocity":85,"programNumber":42},{"time":11444.43300000002,"duration":74.07400000000052,"noteNumber":59,"velocity":85,"programNumber":42},{"time":11555.54400000002,"duration":74.07400000000052,"noteNumber":62,"velocity":85,"programNumber":42},{"time":11555.54400000002,"duration":74.07400000000052,"noteNumber":59,"velocity":85,"programNumber":42},{"time":11666.65500000002,"duration":74.07400000000052,"noteNumber":62,"velocity":85,"programNumber":42},{"time":11666.65500000002,"duration":74.07400000000052,"noteNumber":59,"velocity":85,"programNumber":42},{"time":11777.766000000021,"duration":74.07400000000052,"noteNumber":62,"velocity":85,"programNumber":42},{"time":11777.766000000021,"duration":74.07400000000052,"noteNumber":59,"velocity":85,"programNumber":42},{"time":11888.877000000022,"duration":74.07400000000052,"noteNumber":62,"velocity":85,"programNumber":42},{"time":11888.877000000022,"duration":74.07400000000052,"noteNumber":59,"velocity":85,"programNumber":42},{"time":11999.988000000023,"duration":74.07400000000052,"noteNumber":62,"velocity":85,"programNumber":42},{"time":11999.988000000023,"duration":74.07400000000052,"noteNumber":59,"velocity":85,"programNumber":42},{"time":12111.099000000024,"duration":74.07400000000052,"noteNumber":62,"velocity":85,"programNumber":42},{"time":12111.099000000024,"duration":74.07400000000052,"noteNumber":59,"velocity":85,"programNumber":42},{"time":12222.210000000025,"duration":74.07400000000052,"noteNumber":62,"velocity":85,"programNumber":42},{"time":12222.210000000025,"duration":74.07400000000052,"noteNumber":59,"velocity":85,"programNumber":42},{"time":12333.321000000025,"duration":74.07400000000052,"noteNumber":62,"velocity":85,"programNumber":42},{"time":12333.321000000025,"duration":74.07400000000052,"noteNumber":59,"velocity":85,"programNumber":42},{"time":12444.432000000026,"duration":74.07400000000052,"noteNumber":62,"velocity":85,"programNumber":42},{"time":12444.432000000026,"duration":74.07400000000052,"noteNumber":60,"velocity":85,"programNumber":42},{"time":12555.543000000027,"duration":74.07400000000052,"noteNumber":62,"velocity":85,"programNumber":42},{"time":12555.543000000027,"duration":74.07400000000052,"noteNumber":60,"velocity":85,"programNumber":42},{"time":12666.654000000028,"duration":74.07400000000052,"noteNumber":62,"velocity":85,"programNumber":42},{"time":12666.654000000028,"duration":74.07400000000052,"noteNumber":60,"velocity":85,"programNumber":42},{"time":12777.765000000029,"duration":74.07400000000052,"noteNumber":62,"velocity":85,"programNumber":42},{"time":12777.765000000029,"duration":74.07400000000052,"noteNumber":60,"velocity":85,"programNumber":42},{"time":12888.87600000003,"duration":74.07400000000052,"noteNumber":62,"velocity":85,"programNumber":42},{"time":12888.87600000003,"duration":74.07400000000052,"noteNumber":60,"velocity":85,"programNumber":42},{"time":12999.98700000003,"duration":74.07400000000052,"noteNumber":62,"velocity":85,"programNumber":42},{"time":12999.98700000003,"duration":74.07400000000052,"noteNumber":60,"velocity":85,"programNumber":42},{"time":13111.09800000003,"duration":74.07400000000052,"noteNumber":62,"velocity":85,"programNumber":42},{"time":13111.09800000003,"duration":74.07400000000052,"noteNumber":60,"velocity":85,"programNumber":42},{"time":13222.209000000032,"duration":74.07400000000052,"noteNumber":62,"velocity":85,"programNumber":42},{"time":13222.209000000032,"duration":74.07400000000052,"noteNumber":60,"velocity":85,"programNumber":42},{"time":13333.320000000032,"duration":74.07400000000052,"noteNumber":62,"velocity":85,"programNumber":42},{"time":13333.320000000032,"duration":74.07400000000052,"noteNumber":60,"velocity":85,"programNumber":42},{"time":13444.431000000033,"duration":74.07400000000052,"noteNumber":62,"velocity":85,"programNumber":42},{"time":13444.431000000033,"duration":74.07400000000052,"noteNumber":60,"velocity":85,"programNumber":42},{"time":13555.542000000034,"duration":74.07400000000052,"noteNumber":62,"velocity":85,"programNumber":42},{"time":13555.542000000034,"duration":74.07400000000052,"noteNumber":60,"velocity":85,"programNumber":42},{"time":13666.653000000035,"duration":74.07400000000052,"noteNumber":62,"velocity":85,"programNumber":42},{"time":13666.653000000035,"duration":74.07400000000052,"noteNumber":60,"velocity":85,"programNumber":42},{"time":13777.764000000036,"duration":74.07400000000052,"noteNumber":62,"velocity":85,"programNumber":42},{"time":13777.764000000036,"duration":74.07400000000052,"noteNumber":60,"velocity":85,"programNumber":42},{"time":13888.875000000036,"duration":74.07400000000052,"noteNumber":62,"velocity":85,"programNumber":42},{"time":13888.875000000036,"duration":74.07400000000052,"noteNumber":60,"velocity":85,"programNumber":42},{"time":13999.986000000037,"duration":74.07400000000052,"noteNumber":62,"velocity":85,"programNumber":42},{"time":13999.986000000037,"duration":74.07400000000052,"noteNumber":60,"velocity":85,"programNumber":42},{"time":14111.097000000038,"duration":74.07400000000052,"noteNumber":62,"velocity":85,"programNumber":42},{"time":14111.097000000038,"duration":74.07400000000052,"noteNumber":60,"velocity":85,"programNumber":42},{"time":14222.208000000039,"duration":444.4439999999995,"noteNumber":62,"velocity":85,"programNumber":42},{"time":14222.208000000039,"duration":444.4439999999995,"noteNumber":59,"velocity":85,"programNumber":42},{"time":14666.652000000038,"duration":166.66649999999936,"noteNumber":72,"velocity":85,"programNumber":42},{"time":14888.874000000038,"duration":166.66649999999936,"noteNumber":72,"velocity":85,"programNumber":42},{"time":15111.096000000038,"duration":166.66649999999936,"noteNumber":74,"velocity":85,"programNumber":42},{"time":15333.318000000038,"duration":166.66649999999936,"noteNumber":74,"velocity":85,"programNumber":42},{"time":15555.540000000037,"duration":222.22199999999975,"noteNumber":72,"velocity":85,"programNumber":42},{"time":15777.762000000037,"duration":111.11100000000079,"noteNumber":71,"velocity":85,"programNumber":42},{"time":15888.873000000038,"duration":111.11100000000079,"noteNumber":69,"velocity":85,"programNumber":42},{"time":15999.984000000039,"duration":166.66649999999936,"noteNumber":67,"velocity":85,"programNumber":42},{"time":16222.206000000038,"duration":166.66649999999936,"noteNumber":67,"velocity":85,"programNumber":42},{"time":16444.428000000036,"duration":166.66649999999936,"noteNumber":66,"velocity":85,"programNumber":42},{"time":16666.650000000034,"duration":166.66649999999936,"noteNumber":66,"velocity":85,"programNumber":42},{"time":16888.872000000032,"duration":444.4439999999995,"noteNumber":67,"velocity":85,"programNumber":42},{"time":17777.76000000003,"duration":888.887999999999,"noteNumber":71,"velocity":47,"programNumber":42},{"time":18666.64800000003,"duration":888.887999999999,"noteNumber":72,"velocity":47,"programNumber":42},{"time":19555.53600000003,"duration":111.11100000000079,"noteNumber":71,"velocity":47,"programNumber":42},{"time":19666.64700000003,"duration":296.29599999999846,"noteNumber":69,"velocity":47,"programNumber":42},{"time":19999.98000000003,"duration":444.4439999999995,"noteNumber":69,"velocity":47,"programNumber":42},{"time":20444.424000000028,"duration":111.11100000000079,"noteNumber":69,"velocity":47,"programNumber":42},{"time":20555.53500000003,"duration":296.29599999999846,"noteNumber":67,"velocity":47,"programNumber":42},{"time":20888.868000000028,"duration":444.4439999999995,"noteNumber":67,"velocity":47,"programNumber":42},{"time":21333.312000000027,"duration":333.3329999999987,"noteNumber":64,"velocity":47,"programNumber":42},{"time":21777.756000000027,"duration":333.3329999999987,"noteNumber":64,"velocity":47,"programNumber":42},{"time":22222.200000000026,"duration":333.3329999999987,"noteNumber":60,"velocity":47,"programNumber":42},{"time":22666.644000000026,"duration":333.3329999999987,"noteNumber":57,"velocity":47,"programNumber":42},{"time":23111.088000000025,"duration":222.22200000000157,"noteNumber":62,"velocity":47,"programNumber":42},{"time":23555.53200000003,"duration":222.22200000000157,"noteNumber":66,"velocity":47,"programNumber":42},{"time":23999.97600000003,"duration":222.22200000000157,"noteNumber":67,"velocity":47,"programNumber":42},{"time":24888.864000000034,"duration":888.887999999999,"noteNumber":71,"velocity":47,"programNumber":42},{"time":25777.752000000033,"duration":888.887999999999,"noteNumber":72,"velocity":47,"programNumber":42},{"time":26666.640000000032,"duration":222.22200000000157,"noteNumber":71,"velocity":47,"programNumber":42},{"time":26888.862000000034,"duration":111.11100000000079,"noteNumber":69,"velocity":47,"programNumber":42},{"time":27111.084000000035,"duration":111.11100000000079,"noteNumber":69,"velocity":47,"programNumber":42},{"time":27333.306000000037,"duration":111.11100000000079,"noteNumber":69,"velocity":47,"programNumber":42},{"time":27555.52800000004,"duration":222.22200000000157,"noteNumber":69,"velocity":47,"programNumber":42},{"time":27777.75000000004,"duration":111.11100000000079,"noteNumber":67,"velocity":47,"programNumber":42},{"time":27999.97200000004,"duration":111.11100000000079,"noteNumber":67,"velocity":47,"programNumber":42},{"time":28222.194000000043,"duration":111.11100000000079,"noteNumber":67,"velocity":47,"programNumber":42},{"time":28444.416000000045,"duration":333.3329999999987,"noteNumber":64,"velocity":47,"programNumber":42},{"time":28888.860000000044,"duration":166.66649999999936,"noteNumber":64,"velocity":47,"programNumber":42},{"time":29111.082000000042,"duration":166.66649999999936,"noteNumber":64,"velocity":47,"programNumber":42},{"time":29333.30400000004,"duration":333.3329999999987,"noteNumber":60,"velocity":47,"programNumber":42},{"time":29777.74800000004,"duration":166.66649999999936,"noteNumber":60,"velocity":47,"programNumber":42},{"time":29999.970000000038,"duration":166.66649999999936,"noteNumber":60,"velocity":47,"programNumber":42},{"time":30222.192000000035,"duration":1111.1100000000006,"noteNumber":59,"velocity":85,"programNumber":42},{"time":31333.302000000036,"duration":55.555499999998574,"noteNumber":59,"velocity":61,"programNumber":42},{"time":31388.857500000035,"duration":55.555499999998574,"noteNumber":60,"velocity":61,"programNumber":42},{"time":31444.413000000033,"duration":55.555499999998574,"noteNumber":57,"velocity":61,"programNumber":42},{"time":31499.96850000003,"duration":55.555499999998574,"noteNumber":59,"velocity":61,"programNumber":42},{"time":31555.52400000003,"duration":222.22200000000157,"noteNumber":60,"velocity":61,"programNumber":42},{"time":31777.746000000032,"duration":222.22200000000157,"noteNumber":57,"velocity":61,"programNumber":42},{"time":31999.968000000033,"duration":1111.109999999997,"noteNumber":67,"velocity":85,"programNumber":42},{"time":33111.07800000003,"duration":55.55550000000221,"noteNumber":67,"velocity":61,"programNumber":42},{"time":33166.63350000003,"duration":55.55550000000221,"noteNumber":69,"velocity":61,"programNumber":42},{"time":33222.189000000035,"duration":55.55550000000221,"noteNumber":66,"velocity":61,"programNumber":42},{"time":33277.74450000004,"duration":55.55550000000221,"noteNumber":67,"velocity":61,"programNumber":42},{"time":33333.30000000004,"duration":222.22200000000157,"noteNumber":69,"velocity":61,"programNumber":42},{"time":33555.52200000004,"duration":222.22200000000157,"noteNumber":66,"velocity":61,"programNumber":42},{"time":33777.74400000004,"duration":74.07400000000052,"noteNumber":71,"velocity":53,"programNumber":42},{"time":33888.85500000004,"duration":74.07400000000052,"noteNumber":71,"velocity":53,"programNumber":42},{"time":33999.96600000004,"duration":74.07400000000052,"noteNumber":71,"velocity":55,"programNumber":42},{"time":34111.077000000034,"duration":74.07400000000052,"noteNumber":71,"velocity":55,"programNumber":42},{"time":34222.18800000003,"duration":74.07400000000052,"noteNumber":71,"velocity":55,"programNumber":42},{"time":34333.29900000003,"duration":74.07400000000052,"noteNumber":71,"velocity":56,"programNumber":42},{"time":34444.410000000025,"duration":74.07400000000052,"noteNumber":71,"velocity":56,"programNumber":42},{"time":34555.52100000002,"duration":74.07400000000052,"noteNumber":71,"velocity":58,"programNumber":42},{"time":34666.63200000002,"duration":74.07400000000052,"noteNumber":72,"velocity":58,"programNumber":42},{"time":34777.74300000002,"duration":74.07400000000052,"noteNumber":72,"velocity":59,"programNumber":42},{"time":34888.854000000014,"duration":74.07400000000052,"noteNumber":72,"velocity":59,"programNumber":42},{"time":34999.96500000001,"duration":74.07400000000052,"noteNumber":72,"velocity":61,"programNumber":42},{"time":35111.07600000001,"duration":74.07400000000052,"noteNumber":74,"velocity":61,"programNumber":42},{"time":35222.187000000005,"duration":74.07400000000052,"noteNumber":74,"velocity":62,"programNumber":42},{"time":35333.298,"duration":74.07400000000052,"noteNumber":74,"velocity":62,"programNumber":42},{"time":35444.409,"duration":74.07400000000052,"noteNumber":74,"velocity":64,"programNumber":42},{"time":35555.52,"duration":74.07400000000052,"noteNumber":71,"velocity":64,"programNumber":42},{"time":35666.630999999994,"duration":74.07400000000052,"noteNumber":71,"velocity":65,"programNumber":42},{"time":35777.74199999999,"duration":74.07400000000052,"noteNumber":71,"velocity":65,"programNumber":42},{"time":35888.85299999999,"duration":74.07400000000052,"noteNumber":71,"velocity":67,"programNumber":42},{"time":35999.963999999985,"duration":74.07400000000052,"noteNumber":74,"velocity":67,"programNumber":42},{"time":36111.07499999998,"duration":74.07400000000052,"noteNumber":74,"velocity":68,"programNumber":42},{"time":36222.18599999998,"duration":74.07400000000052,"noteNumber":74,"velocity":68,"programNumber":42},{"time":36333.29699999998,"duration":74.07400000000052,"noteNumber":74,"velocity":70,"programNumber":42},{"time":36444.407999999974,"duration":74.07400000000052,"noteNumber":74,"velocity":70,"programNumber":42},{"time":36555.51899999997,"duration":74.07400000000052,"noteNumber":74,"velocity":71,"programNumber":42},{"time":36666.62999999997,"duration":74.07400000000052,"noteNumber":74,"velocity":71,"programNumber":42},{"time":36777.740999999965,"duration":74.07400000000052,"noteNumber":74,"velocity":73,"programNumber":42},{"time":36888.85199999996,"duration":74.07400000000052,"noteNumber":79,"velocity":73,"programNumber":42},{"time":36999.96299999996,"duration":74.07400000000052,"noteNumber":79,"velocity":73,"programNumber":42},{"time":37111.07399999996,"duration":74.07400000000052,"noteNumber":79,"velocity":74,"programNumber":42},{"time":37222.184999999954,"duration":74.07400000000052,"noteNumber":79,"velocity":74,"programNumber":42},{"time":37333.29599999995,"duration":74.07400000000052,"noteNumber":78,"velocity":85,"programNumber":42},{"time":37444.40699999995,"duration":74.07400000000052,"noteNumber":78,"velocity":85,"programNumber":42},{"time":37555.517999999945,"duration":74.07400000000052,"noteNumber":78,"velocity":85,"programNumber":42},{"time":37666.62899999994,"duration":74.07400000000052,"noteNumber":78,"velocity":85,"programNumber":42},{"time":37777.73999999994,"duration":74.07400000000052,"noteNumber":78,"velocity":85,"programNumber":42},{"time":37888.85099999994,"duration":74.07400000000052,"noteNumber":78,"velocity":85,"programNumber":42},{"time":37999.961999999934,"duration":74.07400000000052,"noteNumber":78,"velocity":85,"programNumber":42},{"time":38111.07299999993,"duration":74.07400000000052,"noteNumber":78,"velocity":85,"programNumber":42},{"time":38222.18399999993,"duration":74.07400000000052,"noteNumber":79,"velocity":85,"programNumber":42},{"time":38333.294999999925,"duration":74.07400000000052,"noteNumber":79,"velocity":85,"programNumber":42},{"time":38444.40599999992,"duration":74.07400000000052,"noteNumber":79,"velocity":85,"programNumber":42},{"time":38555.51699999992,"duration":74.07400000000052,"noteNumber":79,"velocity":85,"programNumber":42},{"time":38666.62799999992,"duration":74.07400000000052,"noteNumber":79,"velocity":85,"programNumber":42},{"time":38777.738999999914,"duration":74.07400000000052,"noteNumber":79,"velocity":85,"programNumber":42},{"time":38888.84999999991,"duration":74.07400000000052,"noteNumber":79,"velocity":85,"programNumber":42},{"time":38999.96099999991,"duration":74.07400000000052,"noteNumber":79,"velocity":85,"programNumber":42},{"time":39111.071999999906,"duration":74.07400000000052,"noteNumber":78,"velocity":85,"programNumber":42},{"time":39222.1829999999,"duration":74.07400000000052,"noteNumber":78,"velocity":85,"programNumber":42},{"time":39333.2939999999,"duration":74.07400000000052,"noteNumber":78,"velocity":85,"programNumber":42},{"time":39444.4049999999,"duration":74.07400000000052,"noteNumber":78,"velocity":85,"programNumber":42},{"time":39555.515999999894,"duration":74.07400000000052,"noteNumber":78,"velocity":85,"programNumber":42},{"time":39666.62699999989,"duration":74.07400000000052,"noteNumber":78,"velocity":85,"programNumber":42},{"time":39777.73799999989,"duration":74.07400000000052,"noteNumber":78,"velocity":85,"programNumber":42},{"time":39888.848999999886,"duration":74.07400000000052,"noteNumber":78,"velocity":85,"programNumber":42},{"time":39999.95999999988,"duration":74.07400000000052,"noteNumber":79,"velocity":85,"programNumber":42},{"time":40111.07099999988,"duration":74.07400000000052,"noteNumber":79,"velocity":85,"programNumber":42},{"time":40222.18199999988,"duration":74.07400000000052,"noteNumber":79,"velocity":85,"programNumber":42},{"time":40333.292999999874,"duration":74.07400000000052,"noteNumber":79,"velocity":85,"programNumber":42},{"time":40444.40399999987,"duration":74.07400000000052,"noteNumber":79,"velocity":85,"programNumber":42},{"time":40555.51499999987,"duration":74.07400000000052,"noteNumber":79,"velocity":85,"programNumber":42},{"time":40666.625999999866,"duration":74.07400000000052,"noteNumber":79,"velocity":85,"programNumber":42},{"time":40777.73699999986,"duration":74.07400000000052,"noteNumber":79,"velocity":85,"programNumber":42},{"time":40888.84799999986,"duration":111.11099999999715,"noteNumber":74,"velocity":85,"programNumber":42},{"time":41111.069999999854,"duration":333.3329999999987,"noteNumber":74,"velocity":85,"programNumber":42},{"time":41555.51399999985,"duration":333.3329999999987,"noteNumber":74,"velocity":85,"programNumber":42},{"time":41999.957999999846,"duration":333.3329999999987,"noteNumber":74,"velocity":85,"programNumber":42},{"time":42444.40199999984,"duration":333.3329999999987,"noteNumber":74,"velocity":85,"programNumber":42},{"time":42888.84599999984,"duration":333.3329999999987,"noteNumber":74,"velocity":85,"programNumber":42},{"time":43333.28999999983,"duration":333.3329999999987,"noteNumber":74,"velocity":85,"programNumber":42},{"time":43777.73399999983,"duration":333.3329999999987,"noteNumber":74,"velocity":85,"programNumber":42},{"time":44222.177999999825,"duration":222.22200000000157,"noteNumber":74,"velocity":85,"programNumber":42},{"time":44444.39999999983,"duration":74.07400000000052,"noteNumber":73,"velocity":85,"programNumber":42},{"time":44555.510999999824,"duration":74.07400000000052,"noteNumber":73,"velocity":85,"programNumber":42},{"time":44555.510999999824,"duration":74.07400000000052,"noteNumber":76,"velocity":85,"programNumber":42},{"time":44666.62199999982,"duration":74.07400000000052,"noteNumber":73,"velocity":85,"programNumber":42},{"time":44666.62199999982,"duration":74.07400000000052,"noteNumber":76,"velocity":85,"programNumber":42},{"time":44777.73299999982,"duration":74.07400000000052,"noteNumber":73,"velocity":85,"programNumber":42},{"time":44777.73299999982,"duration":74.07400000000052,"noteNumber":76,"velocity":85,"programNumber":42},{"time":44888.843999999815,"duration":74.07400000000052,"noteNumber":74,"velocity":85,"programNumber":42},{"time":44888.843999999815,"duration":74.07400000000052,"noteNumber":78,"velocity":85,"programNumber":42},{"time":44999.95499999981,"duration":74.07400000000052,"noteNumber":74,"velocity":85,"programNumber":42},{"time":44999.95499999981,"duration":74.07400000000052,"noteNumber":78,"velocity":85,"programNumber":42},{"time":45111.06599999981,"duration":74.07400000000052,"noteNumber":74,"velocity":85,"programNumber":42},{"time":45111.06599999981,"duration":74.07400000000052,"noteNumber":78,"velocity":85,"programNumber":42},{"time":45222.17699999981,"duration":74.07400000000052,"noteNumber":74,"velocity":85,"programNumber":42},{"time":45222.17699999981,"duration":74.07400000000052,"noteNumber":78,"velocity":85,"programNumber":42},{"time":45333.287999999804,"duration":74.07400000000052,"noteNumber":76,"velocity":85,"programNumber":42},{"time":45333.287999999804,"duration":74.07400000000052,"noteNumber":73,"velocity":85,"programNumber":42},{"time":45444.3989999998,"duration":74.07400000000052,"noteNumber":76,"velocity":85,"programNumber":42},{"time":45444.3989999998,"duration":74.07400000000052,"noteNumber":73,"velocity":85,"programNumber":42},{"time":45555.5099999998,"duration":74.07400000000052,"noteNumber":76,"velocity":85,"programNumber":42},{"time":45555.5099999998,"duration":74.07400000000052,"noteNumber":73,"velocity":85,"programNumber":42},{"time":45666.620999999795,"duration":74.07400000000052,"noteNumber":76,"velocity":85,"programNumber":42},{"time":45666.620999999795,"duration":74.07400000000052,"noteNumber":73,"velocity":85,"programNumber":42},{"time":45777.73199999979,"duration":74.07400000000052,"noteNumber":74,"velocity":85,"programNumber":42},{"time":45777.73199999979,"duration":74.07400000000052,"noteNumber":78,"velocity":85,"programNumber":42},{"time":45888.84299999979,"duration":74.07400000000052,"noteNumber":74,"velocity":85,"programNumber":42},{"time":45888.84299999979,"duration":74.07400000000052,"noteNumber":78,"velocity":85,"programNumber":42},{"time":45999.95399999979,"duration":74.07400000000052,"noteNumber":74,"velocity":85,"programNumber":42},{"time":45999.95399999979,"duration":74.07400000000052,"noteNumber":78,"velocity":85,"programNumber":42},{"time":46111.064999999784,"duration":74.07400000000052,"noteNumber":74,"velocity":85,"programNumber":42},{"time":46111.064999999784,"duration":74.07400000000052,"noteNumber":78,"velocity":85,"programNumber":42},{"time":46222.17599999978,"duration":166.66649999999936,"noteNumber":73,"velocity":85,"programNumber":42},{"time":46222.17599999978,"duration":166.66649999999936,"noteNumber":76,"velocity":85,"programNumber":42},{"time":46444.39799999978,"duration":166.66649999999936,"noteNumber":69,"velocity":85,"programNumber":42},{"time":46666.619999999784,"duration":166.66649999999936,"noteNumber":69,"velocity":85,"programNumber":42},{"time":46888.841999999786,"duration":166.66649999999936,"noteNumber":69,"velocity":85,"programNumber":42},{"time":47111.06399999979,"duration":444.44400000000314,"noteNumber":69,"velocity":85,"programNumber":42},{"time":47999.951999999794,"duration":666.6659999999974,"noteNumber":69,"velocity":55,"programNumber":42},{"time":48666.61799999979,"duration":74.07400000000052,"noteNumber":67,"velocity":55,"programNumber":42},{"time":48740.69199999979,"duration":74.07400000000052,"noteNumber":66,"velocity":55,"programNumber":42},{"time":48814.76599999979,"duration":74.07400000000052,"noteNumber":64,"velocity":55,"programNumber":42},{"time":48888.83999999979,"duration":222.22200000000157,"noteNumber":62,"velocity":55,"programNumber":42},{"time":49333.283999999796,"duration":222.22200000000157,"noteNumber":71,"velocity":55,"programNumber":42},{"time":49777.7279999998,"duration":222.22200000000157,"noteNumber":67,"velocity":55,"programNumber":42},{"time":50222.1719999998,"duration":222.22200000000157,"noteNumber":64,"velocity":55,"programNumber":42},{"time":50666.615999999805,"duration":222.22200000000157,"noteNumber":69,"velocity":55,"programNumber":42},{"time":51555.503999999804,"duration":666.6659999999974,"noteNumber":66,"velocity":55,"programNumber":42},{"time":52222.1699999998,"duration":74.07400000000052,"noteNumber":64,"velocity":55,"programNumber":42},{"time":52296.2439999998,"duration":74.07400000000052,"noteNumber":62,"velocity":55,"programNumber":42},{"time":52370.3179999998,"duration":74.07400000000052,"noteNumber":61,"velocity":55,"programNumber":42},{"time":52444.3919999998,"duration":222.22200000000157,"noteNumber":59,"velocity":55,"programNumber":42},{"time":52888.83599999981,"duration":222.22200000000157,"noteNumber":67,"velocity":55,"programNumber":42},{"time":53333.27999999981,"duration":888.887999999999,"noteNumber":66,"velocity":55,"programNumber":42},{"time":54222.16799999981,"duration":444.44400000000314,"noteNumber":64,"velocity":55,"programNumber":42},{"time":55111.055999999815,"duration":666.6659999999974,"noteNumber":69,"velocity":55,"programNumber":42},{"time":55777.72199999981,"duration":74.07400000000052,"noteNumber":67,"velocity":55,"programNumber":42},{"time":55851.79599999981,"duration":74.07400000000052,"noteNumber":66,"velocity":55,"programNumber":42},{"time":55925.86999999981,"duration":74.07400000000052,"noteNumber":64,"velocity":55,"programNumber":42},{"time":55999.943999999814,"duration":222.22200000000157,"noteNumber":62,"velocity":55,"programNumber":42},{"time":56444.38799999982,"duration":222.22200000000157,"noteNumber":71,"velocity":55,"programNumber":42},{"time":56888.83199999982,"duration":222.22200000000157,"noteNumber":67,"velocity":55,"programNumber":42},{"time":57333.27599999982,"duration":222.22200000000157,"noteNumber":64,"velocity":55,"programNumber":42},{"time":57777.71999999983,"duration":222.22200000000157,"noteNumber":69,"velocity":55,"programNumber":42},{"time":58388.83049999983,"duration":166.66649999999936,"noteNumber":67,"velocity":55,"programNumber":42},{"time":58666.607999999826,"duration":222.22200000000157,"noteNumber":67,"velocity":55,"programNumber":42},{"time":58888.82999999983,"duration":222.22200000000157,"noteNumber":66,"velocity":55,"programNumber":42},{"time":59333.27399999983,"duration":111.11099999999715,"noteNumber":79,"velocity":55,"programNumber":42},{"time":59555.495999999825,"duration":222.22200000000157,"noteNumber":79,"velocity":55,"programNumber":42},{"time":59777.717999999826,"duration":222.22200000000157,"noteNumber":78,"velocity":55,"programNumber":42},{"time":60222.16199999983,"duration":166.66649999999936,"noteNumber":67,"velocity":55,"programNumber":42},{"time":60444.38399999983,"duration":166.66649999999936,"noteNumber":66,"velocity":55,"programNumber":42},{"time":60666.60599999983,"duration":166.66649999999936,"noteNumber":66,"velocity":55,"programNumber":42},{"time":60888.827999999834,"duration":166.66649999999936,"noteNumber":67,"velocity":55,"programNumber":42},{"time":61111.049999999836,"duration":166.66649999999936,"noteNumber":67,"velocity":55,"programNumber":42},{"time":61333.27199999984,"duration":166.66649999999936,"noteNumber":69,"velocity":55,"programNumber":42},{"time":61555.49399999984,"duration":166.66649999999936,"noteNumber":69,"velocity":55,"programNumber":42},{"time":61777.71599999984,"duration":166.66649999999936,"noteNumber":66,"velocity":55,"programNumber":42},{"time":61999.93799999984,"duration":166.66649999999936,"noteNumber":66,"velocity":55,"programNumber":42},{"time":62222.15999999984,"duration":166.66649999999936,"noteNumber":64,"velocity":55,"programNumber":42},{"time":62444.381999999845,"duration":166.66649999999936,"noteNumber":64,"velocity":55,"programNumber":42},{"time":62666.60399999985,"duration":166.66649999999936,"noteNumber":66,"velocity":55,"programNumber":42},{"time":62888.82599999985,"duration":166.66649999999936,"noteNumber":66,"velocity":55,"programNumber":42},{"time":63111.04799999985,"duration":166.66649999999936,"noteNumber":67,"velocity":55,"programNumber":42},{"time":63333.26999999985,"duration":166.66649999999936,"noteNumber":67,"velocity":55,"programNumber":42},{"time":63555.49199999985,"duration":166.66649999999936,"noteNumber":64,"velocity":55,"programNumber":42},{"time":63777.713999999854,"duration":166.66649999999936,"noteNumber":64,"velocity":55,"programNumber":42},{"time":63999.935999999856,"duration":166.66649999999936,"noteNumber":66,"velocity":55,"programNumber":42},{"time":64222.15799999986,"duration":166.66649999999936,"noteNumber":66,"velocity":55,"programNumber":42},{"time":64444.37999999986,"duration":166.66649999999936,"noteNumber":67,"velocity":55,"programNumber":42},{"time":64666.60199999986,"duration":166.66649999999936,"noteNumber":67,"velocity":55,"programNumber":42},{"time":64888.82399999986,"duration":166.66649999999936,"noteNumber":69,"velocity":55,"programNumber":42},{"time":65111.045999999864,"duration":166.66649999999936,"noteNumber":69,"velocity":55,"programNumber":42},{"time":65333.267999999865,"duration":166.66649999999936,"noteNumber":66,"velocity":55,"programNumber":42},{"time":65555.48999999986,"duration":166.66650000000664,"noteNumber":66,"velocity":55,"programNumber":42},{"time":65777.71199999987,"duration":166.66650000000664,"noteNumber":64,"velocity":55,"programNumber":42},{"time":65999.93399999988,"duration":166.66650000000664,"noteNumber":64,"velocity":55,"programNumber":42},{"time":66222.15599999989,"duration":166.66650000000664,"noteNumber":66,"velocity":55,"programNumber":42},{"time":66444.3779999999,"duration":166.66650000000664,"noteNumber":66,"velocity":55,"programNumber":42},{"time":66666.5999999999,"duration":166.66650000000664,"noteNumber":67,"velocity":55,"programNumber":42},{"time":66888.82199999991,"duration":166.66650000000664,"noteNumber":67,"velocity":55,"programNumber":42},{"time":67111.04399999992,"duration":166.66650000000664,"noteNumber":64,"velocity":55,"programNumber":42},{"time":67333.26599999993,"duration":166.66650000000664,"noteNumber":64,"velocity":55,"programNumber":42},{"time":67555.48799999994,"duration":444.44400000000314,"noteNumber":66,"velocity":55,"programNumber":42},{"time":68444.37599999995,"duration":888.8880000000063,"noteNumber":71,"velocity":85,"programNumber":42},{"time":68444.37599999995,"duration":888.8880000000063,"noteNumber":78,"velocity":85,"programNumber":42},{"time":69333.26399999995,"duration":444.44400000000314,"noteNumber":76,"velocity":85,"programNumber":42},{"time":70222.15199999996,"duration":888.8880000000063,"noteNumber":76,"velocity":85,"programNumber":42},{"time":70222.15199999996,"duration":888.8880000000063,"noteNumber":69,"velocity":85,"programNumber":42},{"time":71111.03999999996,"duration":166.66650000000664,"noteNumber":74,"velocity":85,"programNumber":42},{"time":71333.26199999997,"duration":111.11100000000442,"noteNumber":78,"velocity":85,"programNumber":42},{"time":71555.48399999998,"duration":111.11100000000442,"noteNumber":79,"velocity":85,"programNumber":42},{"time":71777.70599999999,"duration":111.11100000000442,"noteNumber":81,"velocity":85,"programNumber":42},{"time":71999.928,"duration":222.2219999999943,"noteNumber":79,"velocity":85,"programNumber":42},{"time":72222.15,"duration":111.11100000000442,"noteNumber":81,"velocity":85,"programNumber":42},{"time":72333.261,"duration":111.11100000000442,"noteNumber":83,"velocity":85,"programNumber":42},{"time":72444.372,"duration":166.66650000000664,"noteNumber":81,"velocity":85,"programNumber":42},{"time":72666.59400000001,"duration":111.11100000000442,"noteNumber":79,"velocity":85,"programNumber":42},{"time":72888.81600000002,"duration":222.2219999999943,"noteNumber":79,"velocity":85,"programNumber":42},{"time":73111.03800000002,"duration":166.66650000000664,"noteNumber":78,"velocity":85,"programNumber":42},{"time":73333.26000000002,"duration":111.11100000000442,"noteNumber":74,"velocity":85,"programNumber":42},{"time":73555.48200000003,"duration":111.11100000000442,"noteNumber":78,"velocity":85,"programNumber":42},{"time":73777.70400000004,"duration":222.2219999999943,"noteNumber":78,"velocity":85,"programNumber":42},{"time":73999.92600000004,"duration":166.66650000000664,"noteNumber":76,"velocity":85,"programNumber":42},{"time":74222.14800000004,"duration":111.11100000000442,"noteNumber":74,"velocity":85,"programNumber":42},{"time":74444.37000000005,"duration":111.11100000000442,"noteNumber":73,"velocity":85,"programNumber":42},{"time":74666.59200000006,"duration":166.66650000000664,"noteNumber":74,"velocity":85,"programNumber":42},{"time":74888.81400000007,"duration":166.66650000000664,"noteNumber":66,"velocity":53,"programNumber":42},{"time":75111.03600000008,"duration":166.66650000000664,"noteNumber":67,"velocity":53,"programNumber":42},{"time":75333.25800000009,"duration":166.66650000000664,"noteNumber":67,"velocity":53,"programNumber":42},{"time":75555.4800000001,"duration":166.66650000000664,"noteNumber":69,"velocity":53,"programNumber":42},{"time":75777.7020000001,"duration":166.66650000000664,"noteNumber":69,"velocity":53,"programNumber":42},{"time":75999.92400000012,"duration":166.66650000000664,"noteNumber":66,"velocity":53,"programNumber":42},{"time":76222.14600000012,"duration":166.66650000000664,"noteNumber":66,"velocity":53,"programNumber":42},{"time":76444.36800000013,"duration":166.66650000000664,"noteNumber":64,"velocity":55,"programNumber":42},{"time":76666.59000000014,"duration":166.66650000000664,"noteNumber":64,"velocity":55,"programNumber":42},{"time":76888.81200000015,"duration":166.66650000000664,"noteNumber":66,"velocity":55,"programNumber":42},{"time":77111.03400000016,"duration":166.66650000000664,"noteNumber":66,"velocity":55,"programNumber":42},{"time":77333.25600000017,"duration":166.66650000000664,"noteNumber":67,"velocity":55,"programNumber":42},{"time":77555.47800000018,"duration":166.66650000000664,"noteNumber":67,"velocity":55,"programNumber":42},{"time":77777.70000000019,"duration":166.66650000000664,"noteNumber":64,"velocity":55,"programNumber":42},{"time":77999.9220000002,"duration":166.66650000000664,"noteNumber":64,"velocity":55,"programNumber":42},{"time":78222.1440000002,"duration":166.66650000000664,"noteNumber":66,"velocity":55,"programNumber":42},{"time":78444.36600000021,"duration":166.66650000000664,"noteNumber":66,"velocity":55,"programNumber":42},{"time":78666.58800000022,"duration":166.66650000000664,"noteNumber":67,"velocity":55,"programNumber":42},{"time":78888.81000000023,"duration":166.66650000000664,"noteNumber":67,"velocity":55,"programNumber":42},{"time":79111.03200000024,"duration":166.66650000000664,"noteNumber":69,"velocity":55,"programNumber":42},{"time":79333.25400000025,"duration":166.66650000000664,"noteNumber":69,"velocity":55,"programNumber":42},{"time":79555.47600000026,"duration":166.66650000000664,"noteNumber":66,"velocity":55,"programNumber":42},{"time":79777.69800000027,"duration":166.66650000000664,"noteNumber":66,"velocity":55,"programNumber":42},{"time":79999.92000000027,"duration":166.66650000000664,"noteNumber":64,"velocity":55,"programNumber":42},{"time":80222.14200000028,"duration":166.66650000000664,"noteNumber":64,"velocity":55,"programNumber":42},{"time":80444.36400000029,"duration":166.66650000000664,"noteNumber":66,"velocity":55,"programNumber":42},{"time":80666.5860000003,"duration":166.66650000000664,"noteNumber":66,"velocity":55,"programNumber":42},{"time":80888.80800000031,"duration":166.66650000000664,"noteNumber":67,"velocity":55,"programNumber":42},{"time":81111.03000000032,"duration":166.66650000000664,"noteNumber":67,"velocity":55,"programNumber":42},{"time":81333.25200000033,"duration":166.66650000000664,"noteNumber":64,"velocity":55,"programNumber":42},{"time":81555.47400000034,"duration":166.66650000000664,"noteNumber":64,"velocity":55,"programNumber":42},{"time":81777.69600000035,"duration":444.44400000000314,"noteNumber":66,"velocity":58,"programNumber":42},{"time":82666.58400000035,"duration":888.8880000000063,"noteNumber":71,"velocity":85,"programNumber":42},{"time":82666.58400000035,"duration":888.8880000000063,"noteNumber":78,"velocity":85,"programNumber":42},{"time":83555.47200000036,"duration":444.44400000000314,"noteNumber":76,"velocity":85,"programNumber":42},{"time":84444.36000000036,"duration":888.8880000000063,"noteNumber":76,"velocity":85,"programNumber":42},{"time":84444.36000000036,"duration":888.8880000000063,"noteNumber":69,"velocity":85,"programNumber":42},{"time":85333.24800000037,"duration":166.66650000000664,"noteNumber":74,"velocity":85,"programNumber":42},{"time":85555.47000000038,"duration":111.11100000000442,"noteNumber":78,"velocity":85,"programNumber":42},{"time":85777.69200000039,"duration":111.11100000000442,"noteNumber":79,"velocity":85,"programNumber":42},{"time":85999.9140000004,"duration":111.11100000000442,"noteNumber":81,"velocity":85,"programNumber":42},{"time":86222.1360000004,"duration":222.2219999999943,"noteNumber":79,"velocity":85,"programNumber":42},{"time":86444.3580000004,"duration":111.11100000000442,"noteNumber":81,"velocity":85,"programNumber":42},{"time":86555.4690000004,"duration":111.11100000000442,"noteNumber":83,"velocity":85,"programNumber":42},{"time":86666.58000000041,"duration":166.66650000000664,"noteNumber":81,"velocity":85,"programNumber":42},{"time":86888.80200000042,"duration":111.11100000000442,"noteNumber":79,"velocity":85,"programNumber":42},{"time":87111.02400000043,"duration":222.2219999999943,"noteNumber":79,"velocity":85,"programNumber":42},{"time":87333.24600000042,"duration":166.66650000000664,"noteNumber":78,"velocity":85,"programNumber":42},{"time":87555.46800000043,"duration":111.11100000000442,"noteNumber":74,"velocity":85,"programNumber":42},{"time":87777.69000000044,"duration":111.11100000000442,"noteNumber":78,"velocity":85,"programNumber":42},{"time":87999.91200000045,"duration":222.2219999999943,"noteNumber":78,"velocity":85,"programNumber":42},{"time":88222.13400000044,"duration":166.66650000000664,"noteNumber":76,"velocity":85,"programNumber":42},{"time":88444.35600000045,"duration":111.11100000000442,"noteNumber":74,"velocity":85,"programNumber":42},{"time":88666.57800000046,"duration":111.11100000000442,"noteNumber":73,"velocity":85,"programNumber":42},{"time":88888.80000000047,"duration":166.66650000000664,"noteNumber":74,"velocity":85,"programNumber":42},{"time":89111.02200000048,"duration":166.66650000000664,"noteNumber":69,"velocity":85,"programNumber":42},{"time":89333.24400000049,"duration":166.66650000000664,"noteNumber":71,"velocity":85,"programNumber":42},{"time":89555.4660000005,"duration":166.66650000000664,"noteNumber":73,"velocity":85,"programNumber":42},{"time":89777.6880000005,"duration":111.11100000000442,"noteNumber":74,"velocity":85,"programNumber":42},{"time":89999.91000000051,"duration":111.11100000000442,"noteNumber":74,"velocity":85,"programNumber":42},{"time":90222.13200000052,"duration":55.55550000000221,"noteNumber":76,"velocity":85,"programNumber":42},{"time":90277.68750000052,"duration":55.55550000000221,"noteNumber":78,"velocity":85,"programNumber":42},{"time":90333.24300000053,"duration":55.55550000000221,"noteNumber":76,"velocity":85,"programNumber":42},{"time":90388.79850000053,"duration":55.55550000000221,"noteNumber":78,"velocity":85,"programNumber":42},{"time":90444.35400000053,"duration":111.11100000000442,"noteNumber":74,"velocity":85,"programNumber":42},{"time":90555.46500000053,"duration":111.11100000000442,"noteNumber":76,"velocity":85,"programNumber":42},{"time":90666.57600000054,"duration":222.2219999999943,"noteNumber":78,"velocity":85,"programNumber":42},{"time":90888.79800000053,"duration":166.66650000000664,"noteNumber":73,"velocity":85,"programNumber":42},{"time":91111.02000000054,"duration":166.66650000000664,"noteNumber":74,"velocity":85,"programNumber":42},{"time":91333.24200000055,"duration":166.66650000000664,"noteNumber":76,"velocity":85,"programNumber":42},{"time":91555.46400000056,"duration":166.66650000000664,"noteNumber":78,"velocity":85,"programNumber":42},{"time":91777.68600000057,"duration":166.66650000000664,"noteNumber":78,"velocity":85,"programNumber":42},{"time":91999.90800000058,"duration":55.55550000000221,"noteNumber":79,"velocity":85,"programNumber":42},{"time":92055.46350000058,"duration":55.55550000000221,"noteNumber":81,"velocity":85,"programNumber":42},{"time":92111.01900000058,"duration":55.55550000000221,"noteNumber":79,"velocity":85,"programNumber":42},{"time":92166.57450000058,"duration":55.55550000000221,"noteNumber":81,"velocity":85,"programNumber":42},{"time":92222.13000000059,"duration":111.11100000000442,"noteNumber":78,"velocity":85,"programNumber":42},{"time":92333.24100000059,"duration":111.11100000000442,"noteNumber":79,"velocity":85,"programNumber":42},{"time":92444.3520000006,"duration":166.66650000000664,"noteNumber":81,"velocity":85,"programNumber":42},{"time":92666.5740000006,"duration":166.66650000000664,"noteNumber":81,"velocity":85,"programNumber":42},{"time":92888.79600000061,"duration":55.55550000000221,"noteNumber":82,"velocity":85,"programNumber":42},{"time":92944.35150000062,"duration":55.55550000000221,"noteNumber":83,"velocity":85,"programNumber":42},{"time":92999.90700000062,"duration":55.55550000000221,"noteNumber":82,"velocity":85,"programNumber":42},{"time":93055.46250000062,"duration":55.55550000000221,"noteNumber":83,"velocity":85,"programNumber":42},{"time":93111.01800000062,"duration":111.11100000000442,"noteNumber":80,"velocity":85,"programNumber":42},{"time":93222.12900000063,"duration":111.11100000000442,"noteNumber":82,"velocity":85,"programNumber":42},{"time":93333.24000000063,"duration":444.44400000000314,"noteNumber":83,"velocity":85,"programNumber":42},{"time":94222.12800000064,"duration":1777.775999999998,"noteNumber":67,"velocity":55,"programNumber":42},{"time":95999.90400000064,"duration":222.2219999999943,"noteNumber":66,"velocity":55,"programNumber":42},{"time":96444.34800000062,"duration":222.2219999999943,"noteNumber":69,"velocity":55,"programNumber":42},{"time":96888.79200000061,"duration":222.2219999999943,"noteNumber":66,"velocity":55,"programNumber":42},{"time":97814.7170000006,"duration":444.44400000000314,"noteNumber":62,"velocity":85,"programNumber":42},{"time":97814.7170000006,"duration":444.44400000000314,"noteNumber":71,"velocity":85,"programNumber":42},{"time":97814.7170000006,"duration":444.44400000000314,"noteNumber":79,"velocity":85,"programNumber":42},{"time":98481.3830000006,"duration":111.11100000000442,"noteNumber":74,"velocity":85,"programNumber":42},{"time":98703.6050000006,"duration":444.44400000000314,"noteNumber":79,"velocity":85,"programNumber":42},{"time":99370.2710000006,"duration":111.11100000000442,"noteNumber":74,"velocity":85,"programNumber":42},{"time":99592.49300000061,"duration":111.11100000000442,"noteNumber":79,"velocity":85,"programNumber":42},{"time":99814.71500000062,"duration":111.11100000000442,"noteNumber":74,"velocity":85,"programNumber":42},{"time":100036.93700000063,"duration":111.11100000000442,"noteNumber":79,"velocity":85,"programNumber":42},{"time":100259.15900000064,"duration":111.11100000000442,"noteNumber":83,"velocity":85,"programNumber":42},{"time":100481.38100000065,"duration":444.44400000000314,"noteNumber":86,"velocity":85,"programNumber":42},{"time":101370.26900000066,"duration":444.44400000000314,"noteNumber":84,"velocity":85,"programNumber":42},{"time":102036.93500000065,"duration":111.11100000000442,"noteNumber":81,"velocity":85,"programNumber":42},{"time":102259.15700000066,"duration":444.44400000000314,"noteNumber":84,"velocity":85,"programNumber":42},{"time":102925.82300000066,"duration":111.11100000000442,"noteNumber":81,"velocity":85,"programNumber":42},{"time":103148.04500000067,"duration":111.11100000000442,"noteNumber":84,"velocity":85,"programNumber":42},{"time":103370.26700000068,"duration":111.11100000000442,"noteNumber":81,"velocity":85,"programNumber":42},{"time":103592.48900000069,"duration":111.11100000000442,"noteNumber":78,"velocity":85,"programNumber":42},{"time":103814.7110000007,"duration":111.11100000000442,"noteNumber":81,"velocity":85,"programNumber":42},{"time":104036.9330000007,"duration":444.44400000000314,"noteNumber":74,"velocity":85,"programNumber":42},{"time":104888.78400000071,"duration":74.07399999999325,"noteNumber":62,"velocity":85,"programNumber":42},{"time":104888.78400000071,"duration":74.07399999999325,"noteNumber":59,"velocity":85,"programNumber":42},{"time":104999.8950000007,"duration":74.07399999999325,"noteNumber":62,"velocity":85,"programNumber":42},{"time":104999.8950000007,"duration":74.07399999999325,"noteNumber":59,"velocity":85,"programNumber":42},{"time":105111.00600000069,"duration":74.07399999999325,"noteNumber":62,"velocity":85,"programNumber":42},{"time":105111.00600000069,"duration":74.07399999999325,"noteNumber":59,"velocity":85,"programNumber":42},{"time":105222.11700000068,"duration":74.07399999999325,"noteNumber":62,"velocity":85,"programNumber":42},{"time":105222.11700000068,"duration":74.07399999999325,"noteNumber":59,"velocity":85,"programNumber":42},{"time":105333.22800000067,"duration":74.07399999999325,"noteNumber":62,"velocity":85,"programNumber":42},{"time":105333.22800000067,"duration":74.07399999999325,"noteNumber":59,"velocity":85,"programNumber":42},{"time":105444.33900000066,"duration":74.07399999999325,"noteNumber":62,"velocity":85,"programNumber":42},{"time":105444.33900000066,"duration":74.07399999999325,"noteNumber":59,"velocity":85,"programNumber":42},{"time":105555.45000000065,"duration":74.07399999999325,"noteNumber":62,"velocity":85,"programNumber":42},{"time":105555.45000000065,"duration":74.07399999999325,"noteNumber":59,"velocity":85,"programNumber":42},{"time":105666.56100000064,"duration":74.07399999999325,"noteNumber":62,"velocity":85,"programNumber":42},{"time":105666.56100000064,"duration":74.07399999999325,"noteNumber":59,"velocity":85,"programNumber":42},{"time":105777.67200000063,"duration":74.07399999999325,"noteNumber":62,"velocity":85,"programNumber":42},{"time":105777.67200000063,"duration":74.07399999999325,"noteNumber":59,"velocity":85,"programNumber":42},{"time":105888.78300000062,"duration":74.07399999999325,"noteNumber":62,"velocity":85,"programNumber":42},{"time":105888.78300000062,"duration":74.07399999999325,"noteNumber":59,"velocity":85,"programNumber":42},{"time":105999.89400000061,"duration":74.07399999999325,"noteNumber":62,"velocity":85,"programNumber":42},{"time":105999.89400000061,"duration":74.07399999999325,"noteNumber":59,"velocity":85,"programNumber":42},{"time":106111.0050000006,"duration":74.07399999999325,"noteNumber":62,"velocity":85,"programNumber":42},{"time":106111.0050000006,"duration":74.07399999999325,"noteNumber":59,"velocity":85,"programNumber":42},{"time":106222.11600000059,"duration":74.07399999999325,"noteNumber":62,"velocity":85,"programNumber":42},{"time":106222.11600000059,"duration":74.07399999999325,"noteNumber":59,"velocity":85,"programNumber":42},{"time":106333.22700000058,"duration":74.07399999999325,"noteNumber":62,"velocity":85,"programNumber":42},{"time":106333.22700000058,"duration":74.07399999999325,"noteNumber":59,"velocity":85,"programNumber":42},{"time":106444.33800000057,"duration":74.07399999999325,"noteNumber":62,"velocity":85,"programNumber":42},{"time":106444.33800000057,"duration":74.07399999999325,"noteNumber":59,"velocity":85,"programNumber":42},{"time":106555.44900000056,"duration":74.07399999999325,"noteNumber":62,"velocity":85,"programNumber":42},{"time":106555.44900000056,"duration":74.07399999999325,"noteNumber":59,"velocity":85,"programNumber":42},{"time":106666.56000000055,"duration":74.07399999999325,"noteNumber":62,"velocity":85,"programNumber":42},{"time":106666.56000000055,"duration":74.07399999999325,"noteNumber":60,"velocity":85,"programNumber":42},{"time":106777.67100000054,"duration":74.07399999999325,"noteNumber":62,"velocity":85,"programNumber":42},{"time":106777.67100000054,"duration":74.07399999999325,"noteNumber":60,"velocity":85,"programNumber":42},{"time":106888.78200000053,"duration":74.07399999999325,"noteNumber":62,"velocity":85,"programNumber":42},{"time":106888.78200000053,"duration":74.07399999999325,"noteNumber":60,"velocity":85,"programNumber":42},{"time":106999.89300000052,"duration":74.07399999999325,"noteNumber":62,"velocity":85,"programNumber":42},{"time":106999.89300000052,"duration":74.07399999999325,"noteNumber":60,"velocity":85,"programNumber":42},{"time":107111.00400000051,"duration":74.07399999999325,"noteNumber":62,"velocity":85,"programNumber":42},{"time":107111.00400000051,"duration":74.07399999999325,"noteNumber":60,"velocity":85,"programNumber":42},{"time":107222.1150000005,"duration":74.07399999999325,"noteNumber":62,"velocity":85,"programNumber":42},{"time":107222.1150000005,"duration":74.07399999999325,"noteNumber":60,"velocity":85,"programNumber":42},{"time":107333.22600000049,"duration":74.07399999999325,"noteNumber":62,"velocity":85,"programNumber":42},{"time":107333.22600000049,"duration":74.07399999999325,"noteNumber":60,"velocity":85,"programNumber":42},{"time":107444.33700000048,"duration":74.07399999999325,"noteNumber":62,"velocity":85,"programNumber":42},{"time":107444.33700000048,"duration":74.07399999999325,"noteNumber":60,"velocity":85,"programNumber":42},{"time":107555.44800000047,"duration":74.07399999999325,"noteNumber":62,"velocity":85,"programNumber":42},{"time":107555.44800000047,"duration":74.07399999999325,"noteNumber":60,"velocity":85,"programNumber":42},{"time":107666.55900000046,"duration":74.07399999999325,"noteNumber":62,"velocity":85,"programNumber":42},{"time":107666.55900000046,"duration":74.07399999999325,"noteNumber":60,"velocity":85,"programNumber":42},{"time":107777.67000000045,"duration":74.07399999999325,"noteNumber":62,"velocity":85,"programNumber":42},{"time":107777.67000000045,"duration":74.07399999999325,"noteNumber":60,"velocity":85,"programNumber":42},{"time":107888.78100000044,"duration":74.07399999999325,"noteNumber":62,"velocity":85,"programNumber":42},{"time":107888.78100000044,"duration":74.07399999999325,"noteNumber":60,"velocity":85,"programNumber":42},{"time":107999.89200000043,"duration":74.07399999999325,"noteNumber":62,"velocity":85,"programNumber":42},{"time":107999.89200000043,"duration":74.07399999999325,"noteNumber":60,"velocity":85,"programNumber":42},{"time":108111.00300000042,"duration":74.07399999999325,"noteNumber":62,"velocity":85,"programNumber":42},{"time":108111.00300000042,"duration":74.07399999999325,"noteNumber":60,"velocity":85,"programNumber":42},{"time":108222.11400000041,"duration":74.07399999999325,"noteNumber":62,"velocity":85,"programNumber":42},{"time":108222.11400000041,"duration":74.07399999999325,"noteNumber":60,"velocity":85,"programNumber":42},{"time":108333.2250000004,"duration":74.07399999999325,"noteNumber":62,"velocity":85,"programNumber":42},{"time":108333.2250000004,"duration":74.07399999999325,"noteNumber":60,"velocity":85,"programNumber":42},{"time":108444.33600000039,"duration":74.07399999999325,"noteNumber":62,"velocity":85,"programNumber":42},{"time":108444.33600000039,"duration":74.07399999999325,"noteNumber":59,"velocity":85,"programNumber":42},{"time":108555.44700000038,"duration":74.07399999999325,"noteNumber":62,"velocity":85,"programNumber":42},{"time":108555.44700000038,"duration":74.07399999999325,"noteNumber":59,"velocity":85,"programNumber":42},{"time":108666.55800000037,"duration":74.07399999999325,"noteNumber":62,"velocity":85,"programNumber":42},{"time":108666.55800000037,"duration":74.07399999999325,"noteNumber":59,"velocity":85,"programNumber":42},{"time":108777.66900000036,"duration":74.07399999999325,"noteNumber":62,"velocity":85,"programNumber":42},{"time":108777.66900000036,"duration":74.07399999999325,"noteNumber":59,"velocity":85,"programNumber":42},{"time":108888.78000000035,"duration":74.07399999999325,"noteNumber":62,"velocity":85,"programNumber":42},{"time":108888.78000000035,"duration":74.07399999999325,"noteNumber":59,"velocity":85,"programNumber":42},{"time":108999.89100000034,"duration":74.07399999999325,"noteNumber":62,"velocity":85,"programNumber":42},{"time":108999.89100000034,"duration":74.07399999999325,"noteNumber":59,"velocity":85,"programNumber":42},{"time":109111.00200000033,"duration":74.07399999999325,"noteNumber":62,"velocity":85,"programNumber":42},{"time":109111.00200000033,"duration":74.07399999999325,"noteNumber":59,"velocity":85,"programNumber":42},{"time":109222.11300000032,"duration":74.07399999999325,"noteNumber":62,"velocity":85,"programNumber":42},{"time":109222.11300000032,"duration":74.07399999999325,"noteNumber":59,"velocity":85,"programNumber":42},{"time":109333.22400000031,"duration":74.07399999999325,"noteNumber":62,"velocity":85,"programNumber":42},{"time":109333.22400000031,"duration":74.07399999999325,"noteNumber":59,"velocity":85,"programNumber":42},{"time":109444.3350000003,"duration":74.07399999999325,"noteNumber":62,"velocity":85,"programNumber":42},{"time":109444.3350000003,"duration":74.07399999999325,"noteNumber":59,"velocity":85,"programNumber":42},{"time":109555.44600000029,"duration":74.07399999999325,"noteNumber":62,"velocity":85,"programNumber":42},{"time":109555.44600000029,"duration":74.07399999999325,"noteNumber":59,"velocity":85,"programNumber":42},{"time":109666.55700000028,"duration":74.07399999999325,"noteNumber":62,"velocity":85,"programNumber":42},{"time":109666.55700000028,"duration":74.07399999999325,"noteNumber":59,"velocity":85,"programNumber":42},{"time":109777.66800000027,"duration":74.07399999999325,"noteNumber":62,"velocity":85,"programNumber":42},{"time":109777.66800000027,"duration":74.07399999999325,"noteNumber":59,"velocity":85,"programNumber":42},{"time":109888.77900000026,"duration":74.07399999999325,"noteNumber":62,"velocity":85,"programNumber":42},{"time":109888.77900000026,"duration":74.07399999999325,"noteNumber":59,"velocity":85,"programNumber":42},{"time":109999.89000000025,"duration":74.07399999999325,"noteNumber":62,"velocity":85,"programNumber":42},{"time":109999.89000000025,"duration":74.07399999999325,"noteNumber":59,"velocity":85,"programNumber":42},{"time":110111.00100000024,"duration":74.07399999999325,"noteNumber":62,"velocity":85,"programNumber":42},{"time":110111.00100000024,"duration":74.07399999999325,"noteNumber":59,"velocity":85,"programNumber":42},{"time":110222.11200000023,"duration":74.07399999999325,"noteNumber":62,"velocity":85,"programNumber":42},{"time":110222.11200000023,"duration":74.07399999999325,"noteNumber":60,"velocity":85,"programNumber":42},{"time":110333.22300000022,"duration":74.07399999999325,"noteNumber":62,"velocity":85,"programNumber":42},{"time":110333.22300000022,"duration":74.07399999999325,"noteNumber":60,"velocity":85,"programNumber":42},{"time":110444.3340000002,"duration":74.07399999999325,"noteNumber":62,"velocity":85,"programNumber":42},{"time":110444.3340000002,"duration":74.07399999999325,"noteNumber":60,"velocity":85,"programNumber":42},{"time":110555.4450000002,"duration":74.07399999999325,"noteNumber":62,"velocity":85,"programNumber":42},{"time":110555.4450000002,"duration":74.07399999999325,"noteNumber":60,"velocity":85,"programNumber":42},{"time":110666.55600000019,"duration":74.07399999999325,"noteNumber":62,"velocity":85,"programNumber":42},{"time":110666.55600000019,"duration":74.07399999999325,"noteNumber":60,"velocity":85,"programNumber":42},{"time":110777.66700000018,"duration":74.07399999999325,"noteNumber":62,"velocity":85,"programNumber":42},{"time":110777.66700000018,"duration":74.07399999999325,"noteNumber":60,"velocity":85,"programNumber":42},{"time":110888.77800000017,"duration":74.07399999999325,"noteNumber":62,"velocity":85,"programNumber":42},{"time":110888.77800000017,"duration":74.07399999999325,"noteNumber":60,"velocity":85,"programNumber":42},{"time":110999.88900000016,"duration":74.07399999999325,"noteNumber":62,"velocity":85,"programNumber":42},{"time":110999.88900000016,"duration":74.07399999999325,"noteNumber":60,"velocity":85,"programNumber":42},{"time":111111.00000000015,"duration":74.07399999999325,"noteNumber":62,"velocity":85,"programNumber":42},{"time":111111.00000000015,"duration":74.07399999999325,"noteNumber":60,"velocity":85,"programNumber":42},{"time":111222.11100000014,"duration":74.07399999999325,"noteNumber":62,"velocity":85,"programNumber":42},{"time":111222.11100000014,"duration":74.07399999999325,"noteNumber":60,"velocity":85,"programNumber":42},{"time":111333.22200000013,"duration":74.07399999999325,"noteNumber":62,"velocity":85,"programNumber":42},{"time":111333.22200000013,"duration":74.07399999999325,"noteNumber":60,"velocity":85,"programNumber":42},{"time":111444.33300000012,"duration":74.07399999999325,"noteNumber":62,"velocity":85,"programNumber":42},{"time":111444.33300000012,"duration":74.07399999999325,"noteNumber":60,"velocity":85,"programNumber":42},{"time":111555.4440000001,"duration":74.07399999999325,"noteNumber":62,"velocity":85,"programNumber":42},{"time":111555.4440000001,"duration":74.07399999999325,"noteNumber":60,"velocity":85,"programNumber":42},{"time":111666.5550000001,"duration":74.07399999999325,"noteNumber":62,"velocity":85,"programNumber":42},{"time":111666.5550000001,"duration":74.07399999999325,"noteNumber":60,"velocity":85,"programNumber":42},{"time":111777.66600000008,"duration":74.07399999999325,"noteNumber":62,"velocity":85,"programNumber":42},{"time":111777.66600000008,"duration":74.07399999999325,"noteNumber":60,"velocity":85,"programNumber":42},{"time":111888.77700000007,"duration":74.07399999999325,"noteNumber":62,"velocity":85,"programNumber":42},{"time":111888.77700000007,"duration":74.07399999999325,"noteNumber":60,"velocity":85,"programNumber":42},{"time":111999.88800000006,"duration":444.44400000000314,"noteNumber":62,"velocity":85,"programNumber":42},{"time":111999.88800000006,"duration":444.44400000000314,"noteNumber":59,"velocity":85,"programNumber":42},{"time":112444.33200000007,"duration":166.66650000000664,"noteNumber":72,"velocity":85,"programNumber":42},{"time":112666.55400000008,"duration":166.66650000000664,"noteNumber":72,"velocity":85,"programNumber":42},{"time":112888.77600000009,"duration":166.66650000000664,"noteNumber":74,"velocity":85,"programNumber":42},{"time":113110.9980000001,"duration":166.66650000000664,"noteNumber":74,"velocity":85,"programNumber":42},{"time":113333.2200000001,"duration":222.2219999999943,"noteNumber":72,"velocity":85,"programNumber":42},{"time":113555.4420000001,"duration":111.11100000000442,"noteNumber":71,"velocity":85,"programNumber":42},{"time":113666.5530000001,"duration":111.11100000000442,"noteNumber":69,"velocity":85,"programNumber":42},{"time":113777.6640000001,"duration":166.66650000000664,"noteNumber":67,"velocity":85,"programNumber":42},{"time":113999.88600000012,"duration":166.66650000000664,"noteNumber":67,"velocity":85,"programNumber":42},{"time":114222.10800000012,"duration":166.66650000000664,"noteNumber":66,"velocity":85,"programNumber":42},{"time":114444.33000000013,"duration":166.66650000000664,"noteNumber":66,"velocity":85,"programNumber":42},{"time":114666.55200000014,"duration":444.44400000000314,"noteNumber":67,"velocity":85,"programNumber":42},{"time":115555.44000000015,"duration":888.8880000000063,"noteNumber":71,"velocity":47,"programNumber":42},{"time":116444.32800000015,"duration":888.8880000000063,"noteNumber":72,"velocity":47,"programNumber":42},{"time":117333.21600000016,"duration":111.11100000000442,"noteNumber":71,"velocity":47,"programNumber":42},{"time":117444.32700000016,"duration":296.2960000000021,"noteNumber":69,"velocity":47,"programNumber":42},{"time":117777.66000000016,"duration":444.44400000000314,"noteNumber":69,"velocity":47,"programNumber":42},{"time":118222.10400000017,"duration":111.11100000000442,"noteNumber":69,"velocity":47,"programNumber":42},{"time":118333.21500000017,"duration":296.2960000000021,"noteNumber":67,"velocity":47,"programNumber":42},{"time":118666.54800000017,"duration":444.44400000000314,"noteNumber":67,"velocity":47,"programNumber":42},{"time":119110.99200000017,"duration":333.3329999999987,"noteNumber":64,"velocity":47,"programNumber":42},{"time":119555.43600000018,"duration":333.3329999999987,"noteNumber":64,"velocity":47,"programNumber":42},{"time":119999.88000000018,"duration":333.3329999999987,"noteNumber":60,"velocity":47,"programNumber":42},{"time":120444.32400000018,"duration":333.3329999999987,"noteNumber":57,"velocity":47,"programNumber":42},{"time":120888.76800000019,"duration":222.2219999999943,"noteNumber":62,"velocity":47,"programNumber":42},{"time":121333.21200000017,"duration":222.2219999999943,"noteNumber":66,"velocity":47,"programNumber":42},{"time":121777.65600000016,"duration":222.2219999999943,"noteNumber":67,"velocity":47,"programNumber":42},{"time":122666.54400000015,"duration":888.8880000000063,"noteNumber":71,"velocity":47,"programNumber":42},{"time":123555.43200000016,"duration":888.8880000000063,"noteNumber":72,"velocity":47,"programNumber":42},{"time":124444.32000000017,"duration":222.2219999999943,"noteNumber":71,"velocity":47,"programNumber":42},{"time":124666.54200000016,"duration":111.11100000000442,"noteNumber":69,"velocity":47,"programNumber":42},{"time":124888.76400000017,"duration":111.11100000000442,"noteNumber":69,"velocity":47,"programNumber":42},{"time":125110.98600000018,"duration":111.11100000000442,"noteNumber":69,"velocity":47,"programNumber":42},{"time":125333.20800000019,"duration":222.2219999999943,"noteNumber":69,"velocity":47,"programNumber":42},{"time":125555.43000000018,"duration":111.11100000000442,"noteNumber":67,"velocity":47,"programNumber":42},{"time":125777.65200000019,"duration":111.11100000000442,"noteNumber":67,"velocity":47,"programNumber":42},{"time":125999.8740000002,"duration":111.11100000000442,"noteNumber":67,"velocity":47,"programNumber":42},{"time":126222.09600000021,"duration":333.3329999999987,"noteNumber":64,"velocity":47,"programNumber":42},{"time":126666.54000000021,"duration":166.66650000000664,"noteNumber":64,"velocity":47,"programNumber":42},{"time":126888.76200000022,"duration":166.66650000000664,"noteNumber":64,"velocity":47,"programNumber":42},{"time":127110.98400000023,"duration":333.3329999999987,"noteNumber":60,"velocity":47,"programNumber":42},{"time":127555.42800000023,"duration":166.66650000000664,"noteNumber":60,"velocity":47,"programNumber":42},{"time":127777.65000000024,"duration":166.66650000000664,"noteNumber":60,"velocity":47,"programNumber":42},{"time":127999.87200000025,"duration":1111.1100000000006,"noteNumber":59,"velocity":85,"programNumber":42},{"time":129110.98200000025,"duration":55.55550000000221,"noteNumber":59,"velocity":61,"programNumber":42},{"time":129166.53750000025,"duration":55.55550000000221,"noteNumber":60,"velocity":61,"programNumber":42},{"time":129222.09300000026,"duration":55.55550000000221,"noteNumber":57,"velocity":61,"programNumber":42},{"time":129277.64850000026,"duration":55.55550000000221,"noteNumber":59,"velocity":61,"programNumber":42},{"time":129333.20400000026,"duration":222.2219999999943,"noteNumber":60,"velocity":61,"programNumber":42},{"time":129555.42600000025,"duration":222.2219999999943,"noteNumber":57,"velocity":61,"programNumber":42},{"time":129777.64800000025,"duration":1111.1100000000006,"noteNumber":67,"velocity":85,"programNumber":42},{"time":130888.75800000025,"duration":55.55550000000221,"noteNumber":67,"velocity":61,"programNumber":42},{"time":130944.31350000025,"duration":55.55550000000221,"noteNumber":69,"velocity":61,"programNumber":42},{"time":130999.86900000025,"duration":55.55550000000221,"noteNumber":66,"velocity":61,"programNumber":42},{"time":131055.42450000026,"duration":55.55549999998766,"noteNumber":67,"velocity":61,"programNumber":42},{"time":131110.98000000024,"duration":222.22200000000885,"noteNumber":69,"velocity":61,"programNumber":42},{"time":131333.20200000025,"duration":222.22200000000885,"noteNumber":66,"velocity":61,"programNumber":42},{"time":131555.42400000026,"duration":74.07399999999325,"noteNumber":71,"velocity":53,"programNumber":42},{"time":131666.53500000027,"duration":74.07399999999325,"noteNumber":71,"velocity":53,"programNumber":42},{"time":131777.64600000027,"duration":74.07399999999325,"noteNumber":71,"velocity":55,"programNumber":42},{"time":131888.75700000027,"duration":74.07399999999325,"noteNumber":71,"velocity":55,"programNumber":42},{"time":131999.86800000028,"duration":74.07399999999325,"noteNumber":71,"velocity":55,"programNumber":42},{"time":132110.97900000028,"duration":74.07399999999325,"noteNumber":71,"velocity":56,"programNumber":42},{"time":132222.0900000003,"duration":74.07399999999325,"noteNumber":71,"velocity":56,"programNumber":42},{"time":132333.2010000003,"duration":74.07399999999325,"noteNumber":71,"velocity":58,"programNumber":42},{"time":132444.3120000003,"duration":74.07399999999325,"noteNumber":72,"velocity":58,"programNumber":42},{"time":132555.4230000003,"duration":74.07399999999325,"noteNumber":72,"velocity":59,"programNumber":42},{"time":132666.5340000003,"duration":74.07399999999325,"noteNumber":72,"velocity":59,"programNumber":42},{"time":132777.6450000003,"duration":74.07399999999325,"noteNumber":72,"velocity":61,"programNumber":42},{"time":132888.7560000003,"duration":74.07399999999325,"noteNumber":74,"velocity":61,"programNumber":42},{"time":132999.86700000032,"duration":74.07399999999325,"noteNumber":74,"velocity":62,"programNumber":42},{"time":133110.97800000032,"duration":74.07399999999325,"noteNumber":74,"velocity":62,"programNumber":42},{"time":133222.08900000033,"duration":74.07399999999325,"noteNumber":74,"velocity":64,"programNumber":42},{"time":133333.20000000033,"duration":74.07399999999325,"noteNumber":71,"velocity":64,"programNumber":42},{"time":133444.31100000034,"duration":74.07399999999325,"noteNumber":71,"velocity":65,"programNumber":42},{"time":133555.42200000034,"duration":74.07399999999325,"noteNumber":71,"velocity":65,"programNumber":42},{"time":133666.53300000035,"duration":74.07399999999325,"noteNumber":71,"velocity":67,"programNumber":42},{"time":133777.64400000035,"duration":74.07399999999325,"noteNumber":74,"velocity":67,"programNumber":42},{"time":133888.75500000035,"duration":74.07399999999325,"noteNumber":74,"velocity":68,"programNumber":42},{"time":133999.86600000036,"duration":74.07399999999325,"noteNumber":74,"velocity":68,"programNumber":42},{"time":134110.97700000036,"duration":74.07399999999325,"noteNumber":74,"velocity":70,"programNumber":42},{"time":134222.08800000037,"duration":74.07399999999325,"noteNumber":74,"velocity":70,"programNumber":42},{"time":134333.19900000037,"duration":74.07399999999325,"noteNumber":74,"velocity":71,"programNumber":42},{"time":134444.31000000038,"duration":74.07399999999325,"noteNumber":74,"velocity":71,"programNumber":42},{"time":134555.42100000038,"duration":74.07399999999325,"noteNumber":74,"velocity":73,"programNumber":42},{"time":134666.53200000038,"duration":74.07399999999325,"noteNumber":79,"velocity":73,"programNumber":42},{"time":134777.6430000004,"duration":74.07399999999325,"noteNumber":79,"velocity":73,"programNumber":42},{"time":134888.7540000004,"duration":74.07399999999325,"noteNumber":79,"velocity":74,"programNumber":42},{"time":134999.8650000004,"duration":74.07399999999325,"noteNumber":79,"velocity":74,"programNumber":42},{"time":135110.9760000004,"duration":74.07399999999325,"noteNumber":78,"velocity":85,"programNumber":42},{"time":135222.0870000004,"duration":74.07399999999325,"noteNumber":78,"velocity":85,"programNumber":42},{"time":135333.1980000004,"duration":74.07399999999325,"noteNumber":78,"velocity":85,"programNumber":42},{"time":135444.30900000042,"duration":74.07399999999325,"noteNumber":78,"velocity":85,"programNumber":42},{"time":135555.42000000042,"duration":74.07399999999325,"noteNumber":78,"velocity":85,"programNumber":42},{"time":135666.53100000042,"duration":74.07399999999325,"noteNumber":78,"velocity":85,"programNumber":42},{"time":135777.64200000043,"duration":74.07399999999325,"noteNumber":78,"velocity":85,"programNumber":42},{"time":135888.75300000043,"duration":74.07399999999325,"noteNumber":78,"velocity":85,"programNumber":42},{"time":135999.86400000044,"duration":74.07399999999325,"noteNumber":79,"velocity":85,"programNumber":42},{"time":136110.97500000044,"duration":74.07399999999325,"noteNumber":79,"velocity":85,"programNumber":42},{"time":136222.08600000045,"duration":74.07399999999325,"noteNumber":79,"velocity":85,"programNumber":42},{"time":136333.19700000045,"duration":74.07399999999325,"noteNumber":79,"velocity":85,"programNumber":42},{"time":136444.30800000046,"duration":74.07399999999325,"noteNumber":79,"velocity":85,"programNumber":42},{"time":136555.41900000046,"duration":74.07399999999325,"noteNumber":79,"velocity":85,"programNumber":42},{"time":136666.53000000046,"duration":74.07399999999325,"noteNumber":79,"velocity":85,"programNumber":42},{"time":136777.64100000047,"duration":74.07399999999325,"noteNumber":79,"velocity":85,"programNumber":42},{"time":136888.75200000047,"duration":74.07399999999325,"noteNumber":78,"velocity":85,"programNumber":42},{"time":136999.86300000048,"duration":74.07399999999325,"noteNumber":78,"velocity":85,"programNumber":42},{"time":137110.97400000048,"duration":74.07399999999325,"noteNumber":78,"velocity":85,"programNumber":42},{"time":137222.0850000005,"duration":74.07399999999325,"noteNumber":78,"velocity":85,"programNumber":42},{"time":137333.1960000005,"duration":74.07399999999325,"noteNumber":78,"velocity":85,"programNumber":42},{"time":137444.3070000005,"duration":74.07399999999325,"noteNumber":78,"velocity":85,"programNumber":42},{"time":137555.4180000005,"duration":74.07399999999325,"noteNumber":78,"velocity":85,"programNumber":42},{"time":137666.5290000005,"duration":74.07399999999325,"noteNumber":78,"velocity":85,"programNumber":42},{"time":137777.6400000005,"duration":74.07399999999325,"noteNumber":79,"velocity":85,"programNumber":42},{"time":137888.7510000005,"duration":74.07399999999325,"noteNumber":79,"velocity":85,"programNumber":42},{"time":137999.86200000052,"duration":74.07399999999325,"noteNumber":79,"velocity":85,"programNumber":42},{"time":138110.97300000052,"duration":74.07399999999325,"noteNumber":79,"velocity":85,"programNumber":42},{"time":138222.08400000053,"duration":74.07399999999325,"noteNumber":79,"velocity":85,"programNumber":42},{"time":138333.19500000053,"duration":74.07399999999325,"noteNumber":79,"velocity":85,"programNumber":42},{"time":138444.30600000054,"duration":74.07399999999325,"noteNumber":79,"velocity":85,"programNumber":42},{"time":138555.41700000054,"duration":74.07399999999325,"noteNumber":79,"velocity":85,"programNumber":42},{"time":138666.52800000054,"duration":111.11100000000442,"noteNumber":74,"velocity":85,"programNumber":42},{"time":138888.75000000055,"duration":333.33300000001327,"noteNumber":74,"velocity":85,"programNumber":42},{"time":139333.19400000057,"duration":333.33300000001327,"noteNumber":74,"velocity":85,"programNumber":42},{"time":139777.6380000006,"duration":333.33300000001327,"noteNumber":74,"velocity":85,"programNumber":42},{"time":140222.0820000006,"duration":333.33300000001327,"noteNumber":74,"velocity":85,"programNumber":42},{"time":140666.52600000062,"duration":333.33300000001327,"noteNumber":74,"velocity":85,"programNumber":42},{"time":141110.97000000064,"duration":333.33300000001327,"noteNumber":74,"velocity":85,"programNumber":42},{"time":141555.41400000066,"duration":333.33300000001327,"noteNumber":74,"velocity":85,"programNumber":42},{"time":141999.85800000068,"duration":222.22200000000885,"noteNumber":74,"velocity":85,"programNumber":42},{"time":142222.0800000007,"duration":74.07399999999325,"noteNumber":73,"velocity":85,"programNumber":42},{"time":142333.1910000007,"duration":74.07399999999325,"noteNumber":73,"velocity":85,"programNumber":42},{"time":142333.1910000007,"duration":74.07399999999325,"noteNumber":76,"velocity":85,"programNumber":42},{"time":142444.3020000007,"duration":74.07399999999325,"noteNumber":73,"velocity":85,"programNumber":42},{"time":142444.3020000007,"duration":74.07399999999325,"noteNumber":76,"velocity":85,"programNumber":42},{"time":142555.4130000007,"duration":74.07399999999325,"noteNumber":73,"velocity":85,"programNumber":42},{"time":142555.4130000007,"duration":74.07399999999325,"noteNumber":76,"velocity":85,"programNumber":42},{"time":142666.5240000007,"duration":74.07399999999325,"noteNumber":74,"velocity":85,"programNumber":42},{"time":142666.5240000007,"duration":74.07399999999325,"noteNumber":78,"velocity":85,"programNumber":42},{"time":142777.6350000007,"duration":74.07399999999325,"noteNumber":74,"velocity":85,"programNumber":42},{"time":142777.6350000007,"duration":74.07399999999325,"noteNumber":78,"velocity":85,"programNumber":42},{"time":142888.7460000007,"duration":74.07399999999325,"noteNumber":74,"velocity":85,"programNumber":42},{"time":142888.7460000007,"duration":74.07399999999325,"noteNumber":78,"velocity":85,"programNumber":42},{"time":142999.85700000072,"duration":74.07399999999325,"noteNumber":74,"velocity":85,"programNumber":42},{"time":142999.85700000072,"duration":74.07399999999325,"noteNumber":78,"velocity":85,"programNumber":42},{"time":143110.96800000072,"duration":74.07399999999325,"noteNumber":76,"velocity":85,"programNumber":42},{"time":143110.96800000072,"duration":74.07399999999325,"noteNumber":73,"velocity":85,"programNumber":42},{"time":143222.07900000073,"duration":74.07399999999325,"noteNumber":76,"velocity":85,"programNumber":42},{"time":143222.07900000073,"duration":74.07399999999325,"noteNumber":73,"velocity":85,"programNumber":42},{"time":143333.19000000073,"duration":74.07399999999325,"noteNumber":76,"velocity":85,"programNumber":42},{"time":143333.19000000073,"duration":74.07399999999325,"noteNumber":73,"velocity":85,"programNumber":42},{"time":143444.30100000073,"duration":74.07399999999325,"noteNumber":76,"velocity":85,"programNumber":42},{"time":143444.30100000073,"duration":74.07399999999325,"noteNumber":73,"velocity":85,"programNumber":42},{"time":143555.41200000074,"duration":74.07399999999325,"noteNumber":74,"velocity":85,"programNumber":42},{"time":143555.41200000074,"duration":74.07399999999325,"noteNumber":78,"velocity":85,"programNumber":42},{"time":143666.52300000074,"duration":74.07399999999325,"noteNumber":74,"velocity":85,"programNumber":42},{"time":143666.52300000074,"duration":74.07399999999325,"noteNumber":78,"velocity":85,"programNumber":42},{"time":143777.63400000075,"duration":74.07399999999325,"noteNumber":74,"velocity":85,"programNumber":42},{"time":143777.63400000075,"duration":74.07399999999325,"noteNumber":78,"velocity":85,"programNumber":42},{"time":143888.74500000075,"duration":74.07399999999325,"noteNumber":74,"velocity":85,"programNumber":42},{"time":143888.74500000075,"duration":74.07399999999325,"noteNumber":78,"velocity":85,"programNumber":42},{"time":144018.37450000073,"duration":166.66649999999208,"noteNumber":73,"velocity":85,"programNumber":42},{"time":144018.37450000073,"duration":166.66649999999208,"noteNumber":76,"velocity":85,"programNumber":42},{"time":144240.5965000007,"duration":166.66649999999208,"noteNumber":69,"velocity":85,"programNumber":42},{"time":144462.8185000007,"duration":166.66649999999208,"noteNumber":69,"velocity":85,"programNumber":42},{"time":144685.04050000067,"duration":166.66649999999208,"noteNumber":69,"velocity":85,"programNumber":42},{"time":144907.26250000065,"duration":444.4439999999886,"noteNumber":69,"velocity":85,"programNumber":42},{"time":145777.63200000065,"duration":666.6659999999974,"noteNumber":69,"velocity":55,"programNumber":42},{"time":146444.29800000065,"duration":74.07399999999325,"noteNumber":67,"velocity":55,"programNumber":42},{"time":146518.37200000064,"duration":74.07399999999325,"noteNumber":66,"velocity":55,"programNumber":42},{"time":146592.44600000064,"duration":74.07399999999325,"noteNumber":64,"velocity":55,"programNumber":42},{"time":146666.52000000063,"duration":222.22200000000885,"noteNumber":62,"velocity":55,"programNumber":42},{"time":147110.96400000065,"duration":222.22200000000885,"noteNumber":71,"velocity":55,"programNumber":42},{"time":147555.40800000067,"duration":222.22200000000885,"noteNumber":67,"velocity":55,"programNumber":42},{"time":147999.85200000068,"duration":222.22200000000885,"noteNumber":64,"velocity":55,"programNumber":42},{"time":148444.2960000007,"duration":222.22200000000885,"noteNumber":69,"velocity":55,"programNumber":42},{"time":149333.1840000007,"duration":666.6659999999974,"noteNumber":66,"velocity":55,"programNumber":42},{"time":149999.8500000007,"duration":74.07399999999325,"noteNumber":64,"velocity":55,"programNumber":42},{"time":150073.9240000007,"duration":74.07399999999325,"noteNumber":62,"velocity":55,"programNumber":42},{"time":150147.9980000007,"duration":74.07399999999325,"noteNumber":61,"velocity":55,"programNumber":42},{"time":150222.07200000068,"duration":222.22200000000885,"noteNumber":59,"velocity":55,"programNumber":42},{"time":150666.5160000007,"duration":222.22200000000885,"noteNumber":67,"velocity":55,"programNumber":42},{"time":151110.96000000072,"duration":888.8880000000063,"noteNumber":66,"velocity":55,"programNumber":42},{"time":151999.84800000073,"duration":444.4439999999886,"noteNumber":64,"velocity":55,"programNumber":42},{"time":152888.7360000007,"duration":666.6659999999974,"noteNumber":69,"velocity":55,"programNumber":42},{"time":153555.4020000007,"duration":74.07399999999325,"noteNumber":67,"velocity":55,"programNumber":42},{"time":153629.4760000007,"duration":74.07399999999325,"noteNumber":66,"velocity":55,"programNumber":42},{"time":153703.5500000007,"duration":74.07399999999325,"noteNumber":64,"velocity":55,"programNumber":42},{"time":153777.62400000068,"duration":222.22200000000885,"noteNumber":62,"velocity":55,"programNumber":42},{"time":154222.0680000007,"duration":222.22200000000885,"noteNumber":71,"velocity":55,"programNumber":42},{"time":154666.51200000072,"duration":222.22200000000885,"noteNumber":67,"velocity":55,"programNumber":42},{"time":155110.95600000073,"duration":222.22200000000885,"noteNumber":64,"velocity":55,"programNumber":42},{"time":155555.40000000075,"duration":222.22200000000885,"noteNumber":69,"velocity":55,"programNumber":42},{"time":156166.51050000076,"duration":166.66649999999208,"noteNumber":67,"velocity":55,"programNumber":42},{"time":156444.28800000076,"duration":222.22200000000885,"noteNumber":67,"velocity":55,"programNumber":42},{"time":156666.51000000077,"duration":222.22200000000885,"noteNumber":66,"velocity":55,"programNumber":42},{"time":157110.95400000078,"duration":111.11100000000442,"noteNumber":79,"velocity":55,"programNumber":42},{"time":157333.1760000008,"duration":222.22200000000885,"noteNumber":79,"velocity":55,"programNumber":42},{"time":157555.3980000008,"duration":222.22200000000885,"noteNumber":78,"velocity":55,"programNumber":42},{"time":157999.84200000082,"duration":166.66649999999208,"noteNumber":67,"velocity":55,"programNumber":42},{"time":158222.0640000008,"duration":166.66649999999208,"noteNumber":66,"velocity":55,"programNumber":42},{"time":158444.28600000078,"duration":166.66649999999208,"noteNumber":66,"velocity":55,"programNumber":42},{"time":158666.50800000076,"duration":166.66649999999208,"noteNumber":67,"velocity":55,"programNumber":42},{"time":158888.73000000074,"duration":166.66649999999208,"noteNumber":67,"velocity":55,"programNumber":42},{"time":159110.95200000072,"duration":166.66649999999208,"noteNumber":69,"velocity":55,"programNumber":42},{"time":159333.1740000007,"duration":166.66649999999208,"noteNumber":69,"velocity":55,"programNumber":42},{"time":159555.39600000068,"duration":166.66649999999208,"noteNumber":66,"velocity":55,"programNumber":42},{"time":159777.61800000066,"duration":166.66649999999208,"noteNumber":66,"velocity":55,"programNumber":42},{"time":159999.84000000064,"duration":166.66649999999208,"noteNumber":64,"velocity":55,"programNumber":42},{"time":160222.06200000062,"duration":166.66649999999208,"noteNumber":64,"velocity":55,"programNumber":42},{"time":160444.2840000006,"duration":166.66649999999208,"noteNumber":66,"velocity":55,"programNumber":42},{"time":160666.50600000058,"duration":166.66649999999208,"noteNumber":66,"velocity":55,"programNumber":42},{"time":160888.72800000056,"duration":166.66649999999208,"noteNumber":67,"velocity":55,"programNumber":42},{"time":161110.95000000054,"duration":166.66649999999208,"noteNumber":67,"velocity":55,"programNumber":42},{"time":161333.17200000052,"duration":166.66649999999208,"noteNumber":64,"velocity":55,"programNumber":42},{"time":161555.3940000005,"duration":166.66649999999208,"noteNumber":64,"velocity":55,"programNumber":42},{"time":161777.61600000047,"duration":166.66649999999208,"noteNumber":66,"velocity":55,"programNumber":42},{"time":161999.83800000045,"duration":166.66649999999208,"noteNumber":66,"velocity":55,"programNumber":42},{"time":162222.06000000043,"duration":166.66649999999208,"noteNumber":67,"velocity":55,"programNumber":42},{"time":162444.2820000004,"duration":166.66649999999208,"noteNumber":67,"velocity":55,"programNumber":42},{"time":162666.5040000004,"duration":166.66649999999208,"noteNumber":69,"velocity":55,"programNumber":42},{"time":162888.72600000037,"duration":166.66649999999208,"noteNumber":69,"velocity":55,"programNumber":42},{"time":163110.94800000035,"duration":166.66649999999208,"noteNumber":66,"velocity":55,"programNumber":42},{"time":163333.17000000033,"duration":166.66649999999208,"noteNumber":66,"velocity":55,"programNumber":42},{"time":163555.3920000003,"duration":166.66649999999208,"noteNumber":64,"velocity":55,"programNumber":42},{"time":163777.6140000003,"duration":166.66649999999208,"noteNumber":64,"velocity":55,"programNumber":42},{"time":163999.83600000027,"duration":166.66649999999208,"noteNumber":66,"velocity":55,"programNumber":42},{"time":164222.05800000025,"duration":166.66649999999208,"noteNumber":66,"velocity":55,"programNumber":42},{"time":164444.28000000023,"duration":166.66649999999208,"noteNumber":67,"velocity":55,"programNumber":42},{"time":164666.5020000002,"duration":166.66649999999208,"noteNumber":67,"velocity":55,"programNumber":42},{"time":164888.7240000002,"duration":166.66649999999208,"noteNumber":64,"velocity":55,"programNumber":42},{"time":165110.94600000017,"duration":166.66649999999208,"noteNumber":64,"velocity":55,"programNumber":42},{"time":165333.16800000015,"duration":444.4439999999886,"noteNumber":66,"velocity":55,"programNumber":42},{"time":166222.05600000013,"duration":888.8880000000063,"noteNumber":71,"velocity":85,"programNumber":42},{"time":166222.05600000013,"duration":888.8880000000063,"noteNumber":78,"velocity":85,"programNumber":42},{"time":167110.94400000013,"duration":444.4439999999886,"noteNumber":76,"velocity":85,"programNumber":42},{"time":167999.8320000001,"duration":888.8880000000063,"noteNumber":76,"velocity":85,"programNumber":42},{"time":167999.8320000001,"duration":888.8880000000063,"noteNumber":69,"velocity":85,"programNumber":42},{"time":168888.72000000012,"duration":166.66649999999208,"noteNumber":74,"velocity":85,"programNumber":42},{"time":169110.9420000001,"duration":111.11100000000442,"noteNumber":78,"velocity":85,"programNumber":42},{"time":169333.1640000001,"duration":111.11100000000442,"noteNumber":79,"velocity":85,"programNumber":42},{"time":169555.38600000012,"duration":111.11100000000442,"noteNumber":81,"velocity":85,"programNumber":42},{"time":169777.60800000012,"duration":222.22200000000885,"noteNumber":79,"velocity":85,"programNumber":42},{"time":169999.83000000013,"duration":111.11100000000442,"noteNumber":81,"velocity":85,"programNumber":42},{"time":170110.94100000014,"duration":111.11100000000442,"noteNumber":83,"velocity":85,"programNumber":42},{"time":170222.05200000014,"duration":166.66649999999208,"noteNumber":81,"velocity":85,"programNumber":42},{"time":170444.27400000012,"duration":111.11100000000442,"noteNumber":79,"velocity":85,"programNumber":42},{"time":170666.49600000013,"duration":222.22200000000885,"noteNumber":79,"velocity":85,"programNumber":42},{"time":170888.71800000014,"duration":166.66649999999208,"noteNumber":78,"velocity":85,"programNumber":42},{"time":171110.94000000012,"duration":111.11100000000442,"noteNumber":74,"velocity":85,"programNumber":42},{"time":171333.16200000013,"duration":111.11100000000442,"noteNumber":78,"velocity":85,"programNumber":42},{"time":171555.38400000014,"duration":222.22200000000885,"noteNumber":78,"velocity":85,"programNumber":42},{"time":171777.60600000015,"duration":166.66649999999208,"noteNumber":76,"velocity":85,"programNumber":42},{"time":171999.82800000013,"duration":111.11100000000442,"noteNumber":74,"velocity":85,"programNumber":42},{"time":172222.05000000013,"duration":111.11100000000442,"noteNumber":73,"velocity":85,"programNumber":42},{"time":172444.27200000014,"duration":166.66649999999208,"noteNumber":74,"velocity":85,"programNumber":42},{"time":172666.49400000012,"duration":166.66649999999208,"noteNumber":66,"velocity":53,"programNumber":42},{"time":172888.7160000001,"duration":166.66649999999208,"noteNumber":67,"velocity":53,"programNumber":42},{"time":173110.93800000008,"duration":166.66649999999208,"noteNumber":67,"velocity":53,"programNumber":42},{"time":173333.16000000006,"duration":166.66649999999208,"noteNumber":69,"velocity":53,"programNumber":42},{"time":173555.38200000004,"duration":166.66649999999208,"noteNumber":69,"velocity":53,"programNumber":42},{"time":173777.60400000002,"duration":166.66649999999208,"noteNumber":66,"velocity":53,"programNumber":42},{"time":173999.826,"duration":166.66649999999208,"noteNumber":66,"velocity":53,"programNumber":42},{"time":174222.04799999998,"duration":166.66649999999208,"noteNumber":64,"velocity":55,"programNumber":42},{"time":174444.26999999996,"duration":166.66649999999208,"noteNumber":64,"velocity":55,"programNumber":42},{"time":174666.49199999994,"duration":166.66649999999208,"noteNumber":66,"velocity":55,"programNumber":42},{"time":174888.71399999992,"duration":166.66649999999208,"noteNumber":66,"velocity":55,"programNumber":42},{"time":175110.9359999999,"duration":166.66649999999208,"noteNumber":67,"velocity":55,"programNumber":42},{"time":175333.15799999988,"duration":166.66649999999208,"noteNumber":67,"velocity":55,"programNumber":42},{"time":175555.37999999986,"duration":166.66649999999208,"noteNumber":64,"velocity":55,"programNumber":42},{"time":175777.60199999984,"duration":166.66649999999208,"noteNumber":64,"velocity":55,"programNumber":42},{"time":175999.82399999982,"duration":166.66649999999208,"noteNumber":66,"velocity":55,"programNumber":42},{"time":176222.0459999998,"duration":166.66649999999208,"noteNumber":66,"velocity":55,"programNumber":42},{"time":176444.26799999978,"duration":166.66649999999208,"noteNumber":67,"velocity":55,"programNumber":42},{"time":176666.48999999976,"duration":166.66649999999208,"noteNumber":67,"velocity":55,"programNumber":42},{"time":176888.71199999974,"duration":166.66649999999208,"noteNumber":69,"velocity":55,"programNumber":42},{"time":177110.93399999972,"duration":166.66649999999208,"noteNumber":69,"velocity":55,"programNumber":42},{"time":177333.1559999997,"duration":166.66649999999208,"noteNumber":66,"velocity":55,"programNumber":42},{"time":177555.37799999968,"duration":166.66649999999208,"noteNumber":66,"velocity":55,"programNumber":42},{"time":177777.59999999966,"duration":166.66649999999208,"noteNumber":64,"velocity":55,"programNumber":42},{"time":177999.82199999964,"duration":166.66649999999208,"noteNumber":64,"velocity":55,"programNumber":42},{"time":178222.04399999962,"duration":166.66649999999208,"noteNumber":66,"velocity":55,"programNumber":42},{"time":178444.2659999996,"duration":166.66649999999208,"noteNumber":66,"velocity":55,"programNumber":42},{"time":178666.48799999958,"duration":166.66649999999208,"noteNumber":67,"velocity":55,"programNumber":42},{"time":178888.70999999956,"duration":166.66649999999208,"noteNumber":67,"velocity":55,"programNumber":42},{"time":179110.93199999954,"duration":166.66649999999208,"noteNumber":64,"velocity":55,"programNumber":42},{"time":179333.15399999951,"duration":166.66649999999208,"noteNumber":64,"velocity":55,"programNumber":42},{"time":179555.3759999995,"duration":444.4439999999886,"noteNumber":66,"velocity":58,"programNumber":42},{"time":180444.26399999947,"duration":888.8880000000063,"noteNumber":71,"velocity":85,"programNumber":42},{"time":180444.26399999947,"duration":888.8880000000063,"noteNumber":78,"velocity":85,"programNumber":42},{"time":181333.15199999948,"duration":444.4439999999886,"noteNumber":76,"velocity":85,"programNumber":42},{"time":182222.03999999946,"duration":888.8880000000063,"noteNumber":76,"velocity":85,"programNumber":42},{"time":182222.03999999946,"duration":888.8880000000063,"noteNumber":69,"velocity":85,"programNumber":42},{"time":183110.92799999946,"duration":166.66649999999208,"noteNumber":74,"velocity":85,"programNumber":42},{"time":183333.14999999944,"duration":111.11100000000442,"noteNumber":78,"velocity":85,"programNumber":42},{"time":183555.37199999945,"duration":111.11100000000442,"noteNumber":79,"velocity":85,"programNumber":42},{"time":183777.59399999946,"duration":111.11100000000442,"noteNumber":81,"velocity":85,"programNumber":42},{"time":183999.81599999947,"duration":222.22200000000885,"noteNumber":79,"velocity":85,"programNumber":42},{"time":184222.03799999948,"duration":111.11100000000442,"noteNumber":81,"velocity":85,"programNumber":42},{"time":184333.14899999948,"duration":111.11100000000442,"noteNumber":83,"velocity":85,"programNumber":42},{"time":184444.25999999949,"duration":166.66649999999208,"noteNumber":81,"velocity":85,"programNumber":42},{"time":184666.48199999947,"duration":111.11100000000442,"noteNumber":79,"velocity":85,"programNumber":42},{"time":184888.70399999947,"duration":222.22200000000885,"noteNumber":79,"velocity":85,"programNumber":42},{"time":185110.92599999948,"duration":166.66649999999208,"noteNumber":78,"velocity":85,"programNumber":42},{"time":185333.14799999946,"duration":111.11100000000442,"noteNumber":74,"velocity":85,"programNumber":42},{"time":185555.36999999947,"duration":111.11100000000442,"noteNumber":78,"velocity":85,"programNumber":42},{"time":185777.59199999948,"duration":222.22200000000885,"noteNumber":78,"velocity":85,"programNumber":42},{"time":185999.8139999995,"duration":166.66649999999208,"noteNumber":76,"velocity":85,"programNumber":42},{"time":186222.03599999947,"duration":111.11100000000442,"noteNumber":74,"velocity":85,"programNumber":42},{"time":186444.25799999948,"duration":111.11100000000442,"noteNumber":73,"velocity":85,"programNumber":42},{"time":186666.4799999995,"duration":166.66649999999208,"noteNumber":74,"velocity":85,"programNumber":42},{"time":186888.70199999947,"duration":166.66649999999208,"noteNumber":69,"velocity":85,"programNumber":42},{"time":187110.92399999945,"duration":166.66649999999208,"noteNumber":71,"velocity":85,"programNumber":42},{"time":187333.14599999943,"duration":166.66649999999208,"noteNumber":73,"velocity":85,"programNumber":42},{"time":187555.3679999994,"duration":111.11100000000442,"noteNumber":74,"velocity":85,"programNumber":42},{"time":187777.5899999994,"duration":111.11100000000442,"noteNumber":74,"velocity":85,"programNumber":42},{"time":187999.81199999942,"duration":55.55549999998766,"noteNumber":76,"velocity":85,"programNumber":42},{"time":188055.3674999994,"duration":55.55549999998766,"noteNumber":78,"velocity":85,"programNumber":42},{"time":188110.9229999994,"duration":55.55549999998766,"noteNumber":76,"velocity":85,"programNumber":42},{"time":188166.4784999994,"duration":55.55549999998766,"noteNumber":78,"velocity":85,"programNumber":42},{"time":188222.03399999937,"duration":111.11100000000442,"noteNumber":74,"velocity":85,"programNumber":42},{"time":188333.14499999938,"duration":111.11100000000442,"noteNumber":76,"velocity":85,"programNumber":42},{"time":188444.25599999938,"duration":222.22200000000885,"noteNumber":78,"velocity":85,"programNumber":42},{"time":188666.4779999994,"duration":166.66649999999208,"noteNumber":73,"velocity":85,"programNumber":42},{"time":188888.69999999937,"duration":166.66649999999208,"noteNumber":74,"velocity":85,"programNumber":42},{"time":189110.92199999935,"duration":166.66649999999208,"noteNumber":76,"velocity":85,"programNumber":42},{"time":189333.14399999933,"duration":166.66649999999208,"noteNumber":78,"velocity":85,"programNumber":42},{"time":189555.3659999993,"duration":166.66649999999208,"noteNumber":78,"velocity":85,"programNumber":42},{"time":189777.5879999993,"duration":55.55549999998766,"noteNumber":79,"velocity":85,"programNumber":42},{"time":189833.14349999928,"duration":55.55549999998766,"noteNumber":81,"velocity":85,"programNumber":42},{"time":189888.69899999927,"duration":55.55549999998766,"noteNumber":79,"velocity":85,"programNumber":42},{"time":189944.25449999925,"duration":55.55549999998766,"noteNumber":81,"velocity":85,"programNumber":42},{"time":189999.80999999924,"duration":111.11100000000442,"noteNumber":78,"velocity":85,"programNumber":42},{"time":190110.92099999925,"duration":111.11100000000442,"noteNumber":79,"velocity":85,"programNumber":42},{"time":190222.03199999925,"duration":166.66649999999208,"noteNumber":81,"velocity":85,"programNumber":42},{"time":190444.25399999923,"duration":166.66649999999208,"noteNumber":81,"velocity":85,"programNumber":42},{"time":190666.4759999992,"duration":55.55549999998766,"noteNumber":82,"velocity":85,"programNumber":42},{"time":190722.0314999992,"duration":55.55549999998766,"noteNumber":83,"velocity":85,"programNumber":42},{"time":190777.58699999918,"duration":55.55549999998766,"noteNumber":82,"velocity":85,"programNumber":42},{"time":190833.14249999917,"duration":55.55549999998766,"noteNumber":83,"velocity":85,"programNumber":42},{"time":190888.69799999916,"duration":111.11100000000442,"noteNumber":80,"velocity":85,"programNumber":42},{"time":190999.80899999916,"duration":111.11100000000442,"noteNumber":82,"velocity":85,"programNumber":42},{"time":191110.91999999917,"duration":444.4439999999886,"noteNumber":83,"velocity":85,"programNumber":42},{"time":191999.80799999915,"duration":1777.7760000000126,"noteNumber":67,"velocity":55,"programNumber":42},{"time":193777.58399999916,"duration":222.22200000000885,"noteNumber":66,"velocity":55,"programNumber":42},{"time":194222.02799999918,"duration":222.22200000000885,"noteNumber":69,"velocity":55,"programNumber":42},{"time":194666.4719999992,"duration":222.22200000000885,"noteNumber":66,"velocity":55,"programNumber":42},{"time":195592.3969999992,"duration":444.4439999999886,"noteNumber":74,"velocity":89,"programNumber":42},{"time":195592.3969999992,"duration":444.4439999999886,"noteNumber":62,"velocity":89,"programNumber":42},{"time":196259.0629999992,"duration":166.66649999999208,"noteNumber":69,"velocity":89,"programNumber":42},{"time":196481.2849999992,"duration":444.4439999999886,"noteNumber":74,"velocity":89,"programNumber":42},{"time":197147.9509999992,"duration":166.66649999999208,"noteNumber":69,"velocity":89,"programNumber":42},{"time":197370.17299999917,"duration":166.66649999999208,"noteNumber":74,"velocity":89,"programNumber":42},{"time":197592.39499999915,"duration":166.66649999999208,"noteNumber":69,"velocity":89,"programNumber":42},{"time":197814.61699999913,"duration":166.66649999999208,"noteNumber":74,"velocity":89,"programNumber":42},{"time":198036.8389999991,"duration":166.66649999999208,"noteNumber":78,"velocity":89,"programNumber":42},{"time":198259.06099999908,"duration":444.4439999999886,"noteNumber":81,"velocity":89,"programNumber":42},{"time":199147.94899999906,"duration":444.4439999999886,"noteNumber":81,"velocity":89,"programNumber":42},{"time":199814.61499999906,"duration":166.66649999999208,"noteNumber":78,"velocity":89,"programNumber":42},{"time":200036.83699999904,"duration":444.4439999999886,"noteNumber":81,"velocity":89,"programNumber":42},{"time":200703.50299999904,"duration":166.66649999999208,"noteNumber":78,"velocity":89,"programNumber":42},{"time":200925.72499999902,"duration":166.66649999999208,"noteNumber":81,"velocity":89,"programNumber":42},{"time":201147.946999999,"duration":166.66649999999208,"noteNumber":78,"velocity":89,"programNumber":42},{"time":201370.16899999898,"duration":166.66649999999208,"noteNumber":75,"velocity":89,"programNumber":42},{"time":201592.39099999896,"duration":166.66649999999208,"noteNumber":78,"velocity":89,"programNumber":42},{"time":201814.61299999894,"duration":444.4439999999886,"noteNumber":71,"velocity":89,"programNumber":42},{"time":202666.46399999893,"duration":166.66649999999208,"noteNumber":64,"velocity":55,"programNumber":42},{"time":202888.6859999989,"duration":166.66649999999208,"noteNumber":64,"velocity":55,"programNumber":42},{"time":203110.9079999989,"duration":166.66649999999208,"noteNumber":65,"velocity":55,"programNumber":42},{"time":203333.12999999887,"duration":166.66649999999208,"noteNumber":65,"velocity":55,"programNumber":42},{"time":203555.35199999885,"duration":166.66649999999208,"noteNumber":67,"velocity":55,"programNumber":42},{"time":203777.57399999883,"duration":166.66649999999208,"noteNumber":67,"velocity":55,"programNumber":42},{"time":203999.7959999988,"duration":166.66649999999208,"noteNumber":64,"velocity":55,"programNumber":42},{"time":204222.0179999988,"duration":166.66649999999208,"noteNumber":64,"velocity":55,"programNumber":42},{"time":204444.23999999877,"duration":166.66649999999208,"noteNumber":62,"velocity":55,"programNumber":42},{"time":204666.46199999875,"duration":166.66649999999208,"noteNumber":62,"velocity":55,"programNumber":42},{"time":204888.68399999873,"duration":166.66649999999208,"noteNumber":64,"velocity":55,"programNumber":42},{"time":205110.9059999987,"duration":166.66649999999208,"noteNumber":64,"velocity":55,"programNumber":42},{"time":205333.1279999987,"duration":166.66649999999208,"noteNumber":65,"velocity":55,"programNumber":42},{"time":205555.34999999867,"duration":166.66649999999208,"noteNumber":65,"velocity":55,"programNumber":42},{"time":205777.57199999865,"duration":166.66649999999208,"noteNumber":62,"velocity":55,"programNumber":42},{"time":205999.79399999863,"duration":166.66649999999208,"noteNumber":62,"velocity":55,"programNumber":42},{"time":206222.0159999986,"duration":166.66649999999208,"noteNumber":64,"velocity":55,"programNumber":42},{"time":206444.2379999986,"duration":166.66649999999208,"noteNumber":64,"velocity":55,"programNumber":42},{"time":206666.45999999857,"duration":166.66649999999208,"noteNumber":65,"velocity":55,"programNumber":42},{"time":206888.68199999855,"duration":166.66649999999208,"noteNumber":65,"velocity":55,"programNumber":42},{"time":207110.90399999853,"duration":166.66649999999208,"noteNumber":67,"velocity":55,"programNumber":42},{"time":207333.1259999985,"duration":166.66649999999208,"noteNumber":67,"velocity":55,"programNumber":42},{"time":207555.34799999848,"duration":166.66649999999208,"noteNumber":64,"velocity":55,"programNumber":42},{"time":207777.56999999846,"duration":166.66649999999208,"noteNumber":64,"velocity":55,"programNumber":42},{"time":207999.79199999844,"duration":166.66649999999208,"noteNumber":62,"velocity":55,"programNumber":42},{"time":208222.01399999842,"duration":166.66649999999208,"noteNumber":62,"velocity":55,"programNumber":42},{"time":208444.2359999984,"duration":166.66649999999208,"noteNumber":64,"velocity":55,"programNumber":42},{"time":208666.45799999838,"duration":166.66649999999208,"noteNumber":64,"velocity":55,"programNumber":42},{"time":208888.67999999836,"duration":166.66649999999208,"noteNumber":65,"velocity":55,"programNumber":42},{"time":209110.90199999834,"duration":166.66649999999208,"noteNumber":65,"velocity":55,"programNumber":42},{"time":209333.12399999832,"duration":166.66649999999208,"noteNumber":62,"velocity":55,"programNumber":42},{"time":209555.3459999983,"duration":166.66649999999208,"noteNumber":62,"velocity":55,"programNumber":42},{"time":209777.56799999828,"duration":166.66649999999208,"noteNumber":64,"velocity":55,"programNumber":42},{"time":209999.78999999826,"duration":166.66649999999208,"noteNumber":64,"velocity":55,"programNumber":42},{"time":210222.01199999824,"duration":166.66649999999208,"noteNumber":65,"velocity":55,"programNumber":42},{"time":210444.23399999822,"duration":166.66649999999208,"noteNumber":65,"velocity":55,"programNumber":42},{"time":210666.4559999982,"duration":166.66649999999208,"noteNumber":67,"velocity":55,"programNumber":42},{"time":210888.67799999818,"duration":166.66649999999208,"noteNumber":67,"velocity":55,"programNumber":42},{"time":211110.89999999816,"duration":166.66649999999208,"noteNumber":64,"velocity":55,"programNumber":42},{"time":211333.12199999814,"duration":166.66649999999208,"noteNumber":64,"velocity":55,"programNumber":42},{"time":211555.34399999812,"duration":166.66649999999208,"noteNumber":62,"velocity":55,"programNumber":42},{"time":211777.5659999981,"duration":166.66649999999208,"noteNumber":62,"velocity":55,"programNumber":42},{"time":211999.78799999808,"duration":166.66649999999208,"noteNumber":64,"velocity":55,"programNumber":42},{"time":212222.00999999806,"duration":166.66649999999208,"noteNumber":64,"velocity":55,"programNumber":42},{"time":212444.23199999804,"duration":166.66649999999208,"noteNumber":65,"velocity":55,"programNumber":42},{"time":212666.45399999802,"duration":166.66649999999208,"noteNumber":65,"velocity":55,"programNumber":42},{"time":212888.675999998,"duration":166.66649999999208,"noteNumber":62,"velocity":55,"programNumber":42},{"time":213110.89799999798,"duration":166.66649999999208,"noteNumber":62,"velocity":55,"programNumber":42},{"time":213333.11999999796,"duration":166.66649999999208,"noteNumber":60,"velocity":55,"programNumber":42},{"time":213555.34199999794,"duration":166.66649999999208,"noteNumber":60,"velocity":55,"programNumber":42},{"time":213777.56399999792,"duration":166.66649999999208,"noteNumber":62,"velocity":55,"programNumber":42},{"time":213999.7859999979,"duration":166.66649999999208,"noteNumber":62,"velocity":55,"programNumber":42},{"time":214222.00799999788,"duration":166.66649999999208,"noteNumber":64,"velocity":55,"programNumber":42},{"time":214444.22999999786,"duration":166.66649999999208,"noteNumber":64,"velocity":55,"programNumber":42},{"time":214666.45199999784,"duration":166.66649999999208,"noteNumber":60,"velocity":55,"programNumber":42},{"time":214888.67399999782,"duration":166.66649999999208,"noteNumber":60,"velocity":55,"programNumber":42},{"time":215110.8959999978,"duration":166.66649999999208,"noteNumber":60,"velocity":55,"programNumber":42},{"time":215333.11799999778,"duration":166.66649999999208,"noteNumber":60,"velocity":55,"programNumber":42},{"time":215555.33999999776,"duration":166.66649999999208,"noteNumber":62,"velocity":55,"programNumber":42},{"time":215777.56199999774,"duration":166.66649999999208,"noteNumber":62,"velocity":55,"programNumber":42},{"time":215999.78399999772,"duration":166.66649999999208,"noteNumber":63,"velocity":55,"programNumber":42},{"time":216222.0059999977,"duration":166.66649999999208,"noteNumber":63,"velocity":55,"programNumber":42},{"time":216444.22799999767,"duration":166.66649999999208,"noteNumber":60,"velocity":55,"programNumber":42},{"time":216666.44999999765,"duration":166.66649999999208,"noteNumber":60,"velocity":55,"programNumber":42},{"time":216888.67199999763,"duration":166.66649999999208,"noteNumber":58,"velocity":55,"programNumber":42},{"time":217110.8939999976,"duration":166.66649999999208,"noteNumber":58,"velocity":55,"programNumber":42},{"time":217333.1159999976,"duration":166.66649999999208,"noteNumber":57,"velocity":55,"programNumber":42},{"time":217555.33799999757,"duration":166.66649999999208,"noteNumber":57,"velocity":55,"programNumber":42},{"time":217777.55999999755,"duration":166.66649999999208,"noteNumber":58,"velocity":55,"programNumber":42},{"time":217999.78199999753,"duration":166.66649999999208,"noteNumber":58,"velocity":55,"programNumber":42},{"time":218222.0039999975,"duration":166.66649999999208,"noteNumber":69,"velocity":55,"programNumber":42},{"time":218444.2259999975,"duration":166.66649999999208,"noteNumber":69,"velocity":55,"programNumber":42},{"time":218666.44799999747,"duration":166.66649999999208,"noteNumber":70,"velocity":55,"programNumber":42},{"time":218888.66999999745,"duration":166.66649999999208,"noteNumber":70,"velocity":55,"programNumber":42},{"time":219110.89199999743,"duration":166.66649999999208,"noteNumber":69,"velocity":55,"programNumber":42},{"time":219333.1139999974,"duration":166.66649999999208,"noteNumber":69,"velocity":55,"programNumber":42},{"time":219555.3359999974,"duration":166.66649999999208,"noteNumber":70,"velocity":55,"programNumber":42},{"time":219777.55799999737,"duration":166.66649999999208,"noteNumber":70,"velocity":55,"programNumber":42},{"time":219999.77999999735,"duration":166.66649999999208,"noteNumber":69,"velocity":55,"programNumber":42},{"time":220222.00199999733,"duration":166.66649999999208,"noteNumber":67,"velocity":55,"programNumber":42},{"time":220481.26099999732,"duration":444.4439999999886,"noteNumber":66,"velocity":53,"programNumber":42},{"time":221147.92699999732,"duration":222.22200000000885,"noteNumber":62,"velocity":91,"programNumber":42},{"time":221370.14899999733,"duration":222.22200000000885,"noteNumber":64,"velocity":91,"programNumber":42},{"time":221592.37099999734,"duration":222.22200000000885,"noteNumber":66,"velocity":91,"programNumber":42},{"time":221814.59299999735,"duration":222.22200000000885,"noteNumber":67,"velocity":91,"programNumber":42},{"time":222036.81499999735,"duration":222.22200000000885,"noteNumber":69,"velocity":91,"programNumber":42},{"time":222259.03699999736,"duration":222.22200000000885,"noteNumber":72,"velocity":91,"programNumber":42},{"time":222481.25899999737,"duration":222.22200000000885,"noteNumber":70,"velocity":91,"programNumber":42},{"time":222925.7029999974,"duration":222.22200000000885,"noteNumber":66,"velocity":91,"programNumber":42},{"time":223147.9249999974,"duration":222.22200000000885,"noteNumber":67,"velocity":91,"programNumber":42},{"time":223370.1469999974,"duration":222.22200000000885,"noteNumber":69,"velocity":91,"programNumber":42},{"time":223592.36899999742,"duration":222.22200000000885,"noteNumber":70,"velocity":91,"programNumber":42},{"time":223814.59099999742,"duration":222.22200000000885,"noteNumber":73,"velocity":91,"programNumber":42},{"time":224036.81299999743,"duration":222.22200000000885,"noteNumber":76,"velocity":91,"programNumber":42},{"time":224259.03499999744,"duration":222.22200000000885,"noteNumber":74,"velocity":91,"programNumber":42},{"time":224703.47899999746,"duration":222.22200000000885,"noteNumber":62,"velocity":53,"programNumber":42},{"time":224925.70099999747,"duration":222.22200000000885,"noteNumber":64,"velocity":53,"programNumber":42},{"time":225147.92299999748,"duration":222.22200000000885,"noteNumber":66,"velocity":53,"programNumber":42},{"time":225370.1449999975,"duration":222.22200000000885,"noteNumber":67,"velocity":53,"programNumber":42},{"time":225592.3669999975,"duration":222.22200000000885,"noteNumber":69,"velocity":53,"programNumber":42},{"time":225777.5519999975,"duration":444.4440000000177,"noteNumber":70,"velocity":53,"programNumber":42},{"time":226221.9959999975,"duration":444.4439999999886,"noteNumber":71,"velocity":53,"programNumber":42},{"time":226666.4399999975,"duration":444.4439999999886,"noteNumber":72,"velocity":53,"programNumber":42},{"time":227110.8839999975,"duration":444.4439999999886,"noteNumber":73,"velocity":53,"programNumber":42},{"time":227555.32799999748,"duration":111.11100000000442,"noteNumber":74,"velocity":68,"programNumber":42},{"time":227777.54999999749,"duration":111.11100000000442,"noteNumber":74,"velocity":68,"programNumber":42},{"time":227999.7719999975,"duration":222.22200000000885,"noteNumber":74,"velocity":68,"programNumber":42},{"time":228221.9939999975,"duration":166.66649999999208,"noteNumber":76,"velocity":68,"programNumber":42},{"time":228444.21599999748,"duration":111.11100000000442,"noteNumber":72,"velocity":68,"programNumber":42},{"time":228666.4379999975,"duration":111.11100000000442,"noteNumber":72,"velocity":68,"programNumber":42},{"time":228888.6599999975,"duration":222.22200000000885,"noteNumber":72,"velocity":68,"programNumber":42},{"time":229110.8819999975,"duration":166.66649999999208,"noteNumber":74,"velocity":68,"programNumber":42},{"time":229333.1039999975,"duration":111.11100000000442,"noteNumber":71,"velocity":68,"programNumber":42},{"time":229555.3259999975,"duration":111.11100000000442,"noteNumber":71,"velocity":68,"programNumber":42},{"time":229777.5479999975,"duration":222.22200000000885,"noteNumber":71,"velocity":68,"programNumber":42},{"time":229999.76999999752,"duration":166.66649999999208,"noteNumber":74,"velocity":68,"programNumber":42},{"time":230221.9919999975,"duration":222.22200000000885,"noteNumber":74,"velocity":68,"programNumber":42},{"time":230444.2139999975,"duration":166.66649999999208,"noteNumber":72,"velocity":68,"programNumber":42},{"time":230666.43599999748,"duration":111.11100000000442,"noteNumber":71,"velocity":68,"programNumber":42},{"time":230888.6579999975,"duration":111.11100000000442,"noteNumber":69,"velocity":68,"programNumber":42},{"time":231147.91699999748,"duration":444.4439999999886,"noteNumber":62,"velocity":93,"programNumber":42},{"time":231147.91699999748,"duration":444.4439999999886,"noteNumber":71,"velocity":93,"programNumber":42},{"time":231147.91699999748,"duration":444.4439999999886,"noteNumber":79,"velocity":93,"programNumber":42},{"time":231814.58299999748,"duration":111.11100000000442,"noteNumber":74,"velocity":92,"programNumber":42},{"time":232036.8049999975,"duration":444.4439999999886,"noteNumber":79,"velocity":92,"programNumber":42},{"time":232703.4709999975,"duration":111.11100000000442,"noteNumber":74,"velocity":91,"programNumber":42},{"time":232925.6929999975,"duration":111.11100000000442,"noteNumber":79,"velocity":90,"programNumber":42},{"time":233147.9149999975,"duration":111.11100000000442,"noteNumber":74,"velocity":90,"programNumber":42},{"time":233370.1369999975,"duration":111.11100000000442,"noteNumber":79,"velocity":90,"programNumber":42},{"time":233592.35899999752,"duration":111.11100000000442,"noteNumber":83,"velocity":90,"programNumber":42},{"time":233814.58099999753,"duration":444.4439999999886,"noteNumber":86,"velocity":89,"programNumber":42},{"time":234703.4689999975,"duration":444.4439999999886,"noteNumber":84,"velocity":88,"programNumber":42},{"time":235370.1349999975,"duration":111.11100000000442,"noteNumber":81,"velocity":87,"programNumber":42},{"time":235592.35699999752,"duration":444.4439999999886,"noteNumber":84,"velocity":86,"programNumber":42},{"time":236259.0229999975,"duration":111.11100000000442,"noteNumber":81,"velocity":85,"programNumber":42},{"time":236481.24499999752,"duration":111.11100000000442,"noteNumber":84,"velocity":85,"programNumber":42},{"time":236703.46699999753,"duration":111.11100000000442,"noteNumber":81,"velocity":85,"programNumber":42},{"time":236925.68899999754,"duration":111.11100000000442,"noteNumber":78,"velocity":85,"programNumber":42},{"time":237147.91099999755,"duration":111.11100000000442,"noteNumber":81,"velocity":85,"programNumber":42},{"time":237370.13299999756,"duration":444.4439999999886,"noteNumber":74,"velocity":85,"programNumber":42},{"time":238221.98399999755,"duration":74.07399999999325,"noteNumber":62,"velocity":85,"programNumber":42},{"time":238221.98399999755,"duration":74.07399999999325,"noteNumber":59,"velocity":85,"programNumber":42},{"time":238333.09499999756,"duration":74.07399999999325,"noteNumber":62,"velocity":85,"programNumber":42},{"time":238333.09499999756,"duration":74.07399999999325,"noteNumber":59,"velocity":85,"programNumber":42},{"time":238444.20599999756,"duration":74.07399999999325,"noteNumber":62,"velocity":85,"programNumber":42},{"time":238444.20599999756,"duration":74.07399999999325,"noteNumber":59,"velocity":85,"programNumber":42},{"time":238555.31699999757,"duration":74.07399999999325,"noteNumber":62,"velocity":85,"programNumber":42},{"time":238555.31699999757,"duration":74.07399999999325,"noteNumber":59,"velocity":85,"programNumber":42},{"time":238666.42799999757,"duration":74.07399999999325,"noteNumber":62,"velocity":85,"programNumber":42},{"time":238666.42799999757,"duration":74.07399999999325,"noteNumber":59,"velocity":85,"programNumber":42},{"time":238777.53899999757,"duration":74.07399999999325,"noteNumber":62,"velocity":85,"programNumber":42},{"time":238777.53899999757,"duration":74.07399999999325,"noteNumber":59,"velocity":85,"programNumber":42},{"time":238888.64999999758,"duration":74.07399999999325,"noteNumber":62,"velocity":85,"programNumber":42},{"time":238888.64999999758,"duration":74.07399999999325,"noteNumber":59,"velocity":85,"programNumber":42},{"time":238999.76099999758,"duration":74.07399999999325,"noteNumber":62,"velocity":85,"programNumber":42},{"time":238999.76099999758,"duration":74.07399999999325,"noteNumber":59,"velocity":85,"programNumber":42},{"time":239110.8719999976,"duration":74.07399999999325,"noteNumber":62,"velocity":85,"programNumber":42},{"time":239110.8719999976,"duration":74.07399999999325,"noteNumber":59,"velocity":85,"programNumber":42},{"time":239221.9829999976,"duration":74.07399999999325,"noteNumber":62,"velocity":85,"programNumber":42},{"time":239221.9829999976,"duration":74.07399999999325,"noteNumber":59,"velocity":85,"programNumber":42},{"time":239333.0939999976,"duration":74.07399999999325,"noteNumber":62,"velocity":85,"programNumber":42},{"time":239333.0939999976,"duration":74.07399999999325,"noteNumber":59,"velocity":85,"programNumber":42},{"time":239444.2049999976,"duration":74.07399999999325,"noteNumber":62,"velocity":85,"programNumber":42},{"time":239444.2049999976,"duration":74.07399999999325,"noteNumber":59,"velocity":85,"programNumber":42},{"time":239555.3159999976,"duration":74.07399999999325,"noteNumber":62,"velocity":85,"programNumber":42},{"time":239555.3159999976,"duration":74.07399999999325,"noteNumber":59,"velocity":85,"programNumber":42},{"time":239666.4269999976,"duration":74.07399999999325,"noteNumber":62,"velocity":85,"programNumber":42},{"time":239666.4269999976,"duration":74.07399999999325,"noteNumber":59,"velocity":85,"programNumber":42},{"time":239777.5379999976,"duration":74.07399999999325,"noteNumber":62,"velocity":85,"programNumber":42},{"time":239777.5379999976,"duration":74.07399999999325,"noteNumber":59,"velocity":85,"programNumber":42},{"time":239888.64899999762,"duration":74.07399999999325,"noteNumber":62,"velocity":85,"programNumber":42},{"time":239888.64899999762,"duration":74.07399999999325,"noteNumber":59,"velocity":85,"programNumber":42},{"time":239999.75999999762,"duration":74.07399999999325,"noteNumber":62,"velocity":85,"programNumber":42},{"time":239999.75999999762,"duration":74.07399999999325,"noteNumber":60,"velocity":85,"programNumber":42},{"time":240110.87099999763,"duration":74.07399999999325,"noteNumber":62,"velocity":85,"programNumber":42},{"time":240110.87099999763,"duration":74.07399999999325,"noteNumber":60,"velocity":85,"programNumber":42},{"time":240221.98199999763,"duration":74.07399999999325,"noteNumber":62,"velocity":85,"programNumber":42},{"time":240221.98199999763,"duration":74.07399999999325,"noteNumber":60,"velocity":85,"programNumber":42},{"time":240333.09299999764,"duration":74.07399999999325,"noteNumber":62,"velocity":85,"programNumber":42},{"time":240333.09299999764,"duration":74.07399999999325,"noteNumber":60,"velocity":85,"programNumber":42},{"time":240444.20399999764,"duration":74.07399999999325,"noteNumber":62,"velocity":85,"programNumber":42},{"time":240444.20399999764,"duration":74.07399999999325,"noteNumber":60,"velocity":85,"programNumber":42},{"time":240555.31499999764,"duration":74.07399999999325,"noteNumber":62,"velocity":85,"programNumber":42},{"time":240555.31499999764,"duration":74.07399999999325,"noteNumber":60,"velocity":85,"programNumber":42},{"time":240666.42599999765,"duration":74.07399999999325,"noteNumber":62,"velocity":85,"programNumber":42},{"time":240666.42599999765,"duration":74.07399999999325,"noteNumber":60,"velocity":85,"programNumber":42},{"time":240777.53699999765,"duration":74.07399999999325,"noteNumber":62,"velocity":85,"programNumber":42},{"time":240777.53699999765,"duration":74.07399999999325,"noteNumber":60,"velocity":85,"programNumber":42},{"time":240888.64799999766,"duration":74.07399999999325,"noteNumber":62,"velocity":85,"programNumber":42},{"time":240888.64799999766,"duration":74.07399999999325,"noteNumber":60,"velocity":85,"programNumber":42},{"time":240999.75899999766,"duration":74.07399999999325,"noteNumber":62,"velocity":85,"programNumber":42},{"time":240999.75899999766,"duration":74.07399999999325,"noteNumber":60,"velocity":85,"programNumber":42},{"time":241110.86999999767,"duration":74.07399999999325,"noteNumber":62,"velocity":85,"programNumber":42},{"time":241110.86999999767,"duration":74.07399999999325,"noteNumber":60,"velocity":85,"programNumber":42},{"time":241221.98099999767,"duration":74.07399999999325,"noteNumber":62,"velocity":85,"programNumber":42},{"time":241221.98099999767,"duration":74.07399999999325,"noteNumber":60,"velocity":85,"programNumber":42},{"time":241333.09199999768,"duration":74.07399999999325,"noteNumber":62,"velocity":85,"programNumber":42},{"time":241333.09199999768,"duration":74.07399999999325,"noteNumber":60,"velocity":85,"programNumber":42},{"time":241444.20299999768,"duration":74.07399999999325,"noteNumber":62,"velocity":85,"programNumber":42},{"time":241444.20299999768,"duration":74.07399999999325,"noteNumber":60,"velocity":85,"programNumber":42},{"time":241555.31399999768,"duration":74.07399999999325,"noteNumber":62,"velocity":85,"programNumber":42},{"time":241555.31399999768,"duration":74.07399999999325,"noteNumber":60,"velocity":85,"programNumber":42},{"time":241666.4249999977,"duration":74.07399999999325,"noteNumber":62,"velocity":85,"programNumber":42},{"time":241666.4249999977,"duration":74.07399999999325,"noteNumber":60,"velocity":85,"programNumber":42},{"time":241777.5359999977,"duration":74.07399999999325,"noteNumber":62,"velocity":85,"programNumber":42},{"time":241777.5359999977,"duration":74.07399999999325,"noteNumber":59,"velocity":85,"programNumber":42},{"time":241888.6469999977,"duration":74.07399999999325,"noteNumber":62,"velocity":85,"programNumber":42},{"time":241888.6469999977,"duration":74.07399999999325,"noteNumber":59,"velocity":85,"programNumber":42},{"time":241999.7579999977,"duration":74.07399999999325,"noteNumber":62,"velocity":85,"programNumber":42},{"time":241999.7579999977,"duration":74.07399999999325,"noteNumber":59,"velocity":85,"programNumber":42},{"time":242110.8689999977,"duration":74.07399999999325,"noteNumber":62,"velocity":85,"programNumber":42},{"time":242110.8689999977,"duration":74.07399999999325,"noteNumber":59,"velocity":85,"programNumber":42},{"time":242221.9799999977,"duration":74.07399999999325,"noteNumber":62,"velocity":85,"programNumber":42},{"time":242221.9799999977,"duration":74.07399999999325,"noteNumber":59,"velocity":85,"programNumber":42},{"time":242333.09099999772,"duration":74.07399999999325,"noteNumber":62,"velocity":85,"programNumber":42},{"time":242333.09099999772,"duration":74.07399999999325,"noteNumber":59,"velocity":85,"programNumber":42},{"time":242444.20199999772,"duration":74.07399999999325,"noteNumber":62,"velocity":85,"programNumber":42},{"time":242444.20199999772,"duration":74.07399999999325,"noteNumber":59,"velocity":85,"programNumber":42},{"time":242555.31299999772,"duration":74.07399999999325,"noteNumber":62,"velocity":85,"programNumber":42},{"time":242555.31299999772,"duration":74.07399999999325,"noteNumber":59,"velocity":85,"programNumber":42},{"time":242666.42399999773,"duration":74.07399999999325,"noteNumber":62,"velocity":85,"programNumber":42},{"time":242666.42399999773,"duration":74.07399999999325,"noteNumber":59,"velocity":85,"programNumber":42},{"time":242777.53499999773,"duration":74.07399999999325,"noteNumber":62,"velocity":85,"programNumber":42},{"time":242777.53499999773,"duration":74.07399999999325,"noteNumber":59,"velocity":85,"programNumber":42},{"time":242888.64599999774,"duration":74.07399999999325,"noteNumber":62,"velocity":85,"programNumber":42},{"time":242888.64599999774,"duration":74.07399999999325,"noteNumber":59,"velocity":85,"programNumber":42},{"time":242999.75699999774,"duration":74.07399999999325,"noteNumber":62,"velocity":85,"programNumber":42},{"time":242999.75699999774,"duration":74.07399999999325,"noteNumber":59,"velocity":85,"programNumber":42},{"time":243110.86799999775,"duration":74.07399999999325,"noteNumber":62,"velocity":85,"programNumber":42},{"time":243110.86799999775,"duration":74.07399999999325,"noteNumber":59,"velocity":85,"programNumber":42},{"time":243221.97899999775,"duration":74.07399999999325,"noteNumber":62,"velocity":85,"programNumber":42},{"time":243221.97899999775,"duration":74.07399999999325,"noteNumber":59,"velocity":85,"programNumber":42},{"time":243333.08999999776,"duration":74.07399999999325,"noteNumber":62,"velocity":85,"programNumber":42},{"time":243333.08999999776,"duration":74.07399999999325,"noteNumber":59,"velocity":85,"programNumber":42},{"time":243444.20099999776,"duration":74.07399999999325,"noteNumber":62,"velocity":85,"programNumber":42},{"time":243444.20099999776,"duration":74.07399999999325,"noteNumber":59,"velocity":85,"programNumber":42},{"time":243555.31199999776,"duration":74.07399999999325,"noteNumber":62,"velocity":85,"programNumber":42},{"time":243555.31199999776,"duration":74.07399999999325,"noteNumber":60,"velocity":85,"programNumber":42},{"time":243666.42299999777,"duration":74.07399999999325,"noteNumber":62,"velocity":85,"programNumber":42},{"time":243666.42299999777,"duration":74.07399999999325,"noteNumber":60,"velocity":85,"programNumber":42},{"time":243777.53399999777,"duration":74.07399999999325,"noteNumber":62,"velocity":85,"programNumber":42},{"time":243777.53399999777,"duration":74.07399999999325,"noteNumber":60,"velocity":85,"programNumber":42},{"time":243888.64499999778,"duration":74.07399999999325,"noteNumber":62,"velocity":85,"programNumber":42},{"time":243888.64499999778,"duration":74.07399999999325,"noteNumber":60,"velocity":85,"programNumber":42},{"time":243999.75599999778,"duration":74.07399999999325,"noteNumber":62,"velocity":85,"programNumber":42},{"time":243999.75599999778,"duration":74.07399999999325,"noteNumber":60,"velocity":85,"programNumber":42},{"time":244110.8669999978,"duration":74.07399999999325,"noteNumber":62,"velocity":85,"programNumber":42},{"time":244110.8669999978,"duration":74.07399999999325,"noteNumber":60,"velocity":85,"programNumber":42},{"time":244221.9779999978,"duration":74.07399999999325,"noteNumber":62,"velocity":85,"programNumber":42},{"time":244221.9779999978,"duration":74.07399999999325,"noteNumber":60,"velocity":85,"programNumber":42},{"time":244333.0889999978,"duration":74.07399999999325,"noteNumber":62,"velocity":85,"programNumber":42},{"time":244333.0889999978,"duration":74.07399999999325,"noteNumber":60,"velocity":85,"programNumber":42},{"time":244444.1999999978,"duration":74.07399999999325,"noteNumber":62,"velocity":85,"programNumber":42},{"time":244444.1999999978,"duration":74.07399999999325,"noteNumber":60,"velocity":85,"programNumber":42},{"time":244555.3109999978,"duration":74.07399999999325,"noteNumber":62,"velocity":85,"programNumber":42},{"time":244555.3109999978,"duration":74.07399999999325,"noteNumber":60,"velocity":85,"programNumber":42},{"time":244666.4219999978,"duration":74.07399999999325,"noteNumber":62,"velocity":85,"programNumber":42},{"time":244666.4219999978,"duration":74.07399999999325,"noteNumber":60,"velocity":85,"programNumber":42},{"time":244777.5329999978,"duration":74.07399999999325,"noteNumber":62,"velocity":85,"programNumber":42},{"time":244777.5329999978,"duration":74.07399999999325,"noteNumber":60,"velocity":85,"programNumber":42},{"time":244888.64399999782,"duration":74.07399999999325,"noteNumber":62,"velocity":85,"programNumber":42},{"time":244888.64399999782,"duration":74.07399999999325,"noteNumber":60,"velocity":85,"programNumber":42},{"time":244999.75499999782,"duration":74.07399999999325,"noteNumber":62,"velocity":85,"programNumber":42},{"time":244999.75499999782,"duration":74.07399999999325,"noteNumber":60,"velocity":85,"programNumber":42},{"time":245110.86599999783,"duration":74.07399999999325,"noteNumber":62,"velocity":85,"programNumber":42},{"time":245110.86599999783,"duration":74.07399999999325,"noteNumber":60,"velocity":85,"programNumber":42},{"time":245221.97699999783,"duration":74.07399999999325,"noteNumber":62,"velocity":85,"programNumber":42},{"time":245221.97699999783,"duration":74.07399999999325,"noteNumber":60,"velocity":85,"programNumber":42},{"time":245333.08799999784,"duration":444.4439999999886,"noteNumber":62,"velocity":85,"programNumber":42},{"time":245333.08799999784,"duration":444.4439999999886,"noteNumber":59,"velocity":85,"programNumber":42},{"time":245777.53199999782,"duration":166.66649999999208,"noteNumber":72,"velocity":85,"programNumber":42},{"time":245999.7539999978,"duration":166.66649999999208,"noteNumber":72,"velocity":85,"programNumber":42},{"time":246221.97599999778,"duration":166.66649999999208,"noteNumber":74,"velocity":85,"programNumber":42},{"time":246444.19799999776,"duration":166.66649999999208,"noteNumber":74,"velocity":85,"programNumber":42},{"time":246666.41999999774,"duration":222.22200000000885,"noteNumber":72,"velocity":85,"programNumber":42},{"time":246888.64199999775,"duration":111.11100000000442,"noteNumber":71,"velocity":85,"programNumber":42},{"time":246999.75299999776,"duration":111.11100000000442,"noteNumber":69,"velocity":85,"programNumber":42},{"time":247110.86399999776,"duration":166.66649999999208,"noteNumber":67,"velocity":85,"programNumber":42},{"time":247333.08599999774,"duration":166.66649999999208,"noteNumber":67,"velocity":85,"programNumber":42},{"time":247555.30799999772,"duration":166.66649999999208,"noteNumber":66,"velocity":85,"programNumber":42},{"time":247777.5299999977,"duration":166.66649999999208,"noteNumber":66,"velocity":85,"programNumber":42},{"time":247999.75199999768,"duration":444.4439999999886,"noteNumber":67,"velocity":85,"programNumber":42},{"time":248888.63999999766,"duration":888.8880000000063,"noteNumber":71,"velocity":47,"programNumber":42},{"time":249777.52799999766,"duration":888.8880000000063,"noteNumber":72,"velocity":47,"programNumber":42},{"time":250666.41599999767,"duration":111.11100000000442,"noteNumber":71,"velocity":47,"programNumber":42},{"time":250777.52699999767,"duration":296.2960000000021,"noteNumber":69,"velocity":47,"programNumber":42},{"time":251110.8599999977,"duration":444.4439999999886,"noteNumber":69,"velocity":47,"programNumber":42},{"time":251555.30399999768,"duration":111.11100000000442,"noteNumber":69,"velocity":47,"programNumber":42},{"time":251666.41499999768,"duration":296.2960000000021,"noteNumber":67,"velocity":47,"programNumber":42},{"time":251999.7479999977,"duration":444.4439999999886,"noteNumber":67,"velocity":47,"programNumber":42},{"time":252444.19199999768,"duration":333.33300000001327,"noteNumber":64,"velocity":47,"programNumber":42},{"time":252888.6359999977,"duration":333.33300000001327,"noteNumber":64,"velocity":47,"programNumber":42},{"time":253333.07999999772,"duration":333.33300000001327,"noteNumber":60,"velocity":47,"programNumber":42},{"time":253777.52399999773,"duration":333.33300000001327,"noteNumber":57,"velocity":47,"programNumber":42},{"time":254221.96799999775,"duration":222.22200000000885,"noteNumber":62,"velocity":47,"programNumber":42},{"time":254666.41199999777,"duration":222.22200000000885,"noteNumber":66,"velocity":47,"programNumber":42},{"time":255110.8559999978,"duration":222.22200000000885,"noteNumber":67,"velocity":47,"programNumber":42},{"time":255999.7439999978,"duration":888.8880000000063,"noteNumber":71,"velocity":47,"programNumber":42},{"time":256888.6319999978,"duration":888.8880000000063,"noteNumber":72,"velocity":47,"programNumber":42},{"time":257777.5199999978,"duration":222.22200000000885,"noteNumber":71,"velocity":47,"programNumber":42},{"time":257999.74199999782,"duration":111.11100000000442,"noteNumber":69,"velocity":47,"programNumber":42},{"time":258221.96399999782,"duration":111.11100000000442,"noteNumber":69,"velocity":47,"programNumber":42},{"time":258444.18599999783,"duration":111.11100000000442,"noteNumber":69,"velocity":47,"programNumber":42},{"time":258666.40799999784,"duration":222.22200000000885,"noteNumber":69,"velocity":47,"programNumber":42},{"time":258888.62999999785,"duration":111.11100000000442,"noteNumber":67,"velocity":47,"programNumber":42},{"time":259110.85199999786,"duration":111.11100000000442,"noteNumber":67,"velocity":47,"programNumber":42},{"time":259333.07399999787,"duration":111.11100000000442,"noteNumber":67,"velocity":47,"programNumber":42},{"time":259555.29599999788,"duration":333.33300000001327,"noteNumber":64,"velocity":47,"programNumber":42},{"time":259999.7399999979,"duration":166.66649999999208,"noteNumber":64,"velocity":47,"programNumber":42},{"time":260221.96199999787,"duration":166.66649999999208,"noteNumber":64,"velocity":47,"programNumber":42},{"time":260444.18399999785,"duration":333.33300000001327,"noteNumber":60,"velocity":47,"programNumber":42},{"time":260888.62799999787,"duration":166.66649999999208,"noteNumber":60,"velocity":47,"programNumber":42},{"time":261110.84999999785,"duration":166.66649999999208,"noteNumber":60,"velocity":47,"programNumber":42},{"time":261333.07199999783,"duration":1111.109999999986,"noteNumber":59,"velocity":85,"programNumber":42},{"time":262444.1819999978,"duration":55.555500000016764,"noteNumber":59,"velocity":61,"programNumber":42},{"time":262499.73749999783,"duration":55.555500000016764,"noteNumber":60,"velocity":61,"programNumber":42},{"time":262555.29299999785,"duration":55.555500000016764,"noteNumber":57,"velocity":61,"programNumber":42},{"time":262610.84849999787,"duration":55.555500000016764,"noteNumber":59,"velocity":61,"programNumber":42},{"time":262666.4039999979,"duration":222.22200000000885,"noteNumber":60,"velocity":61,"programNumber":42},{"time":262888.6259999979,"duration":222.22200000000885,"noteNumber":57,"velocity":61,"programNumber":42},{"time":263110.8479999979,"duration":1111.109999999986,"noteNumber":67,"velocity":85,"programNumber":42},{"time":264221.9579999979,"duration":55.555500000016764,"noteNumber":67,"velocity":61,"programNumber":42},{"time":264277.5134999979,"duration":55.555500000016764,"noteNumber":69,"velocity":61,"programNumber":42},{"time":264333.0689999979,"duration":55.555500000016764,"noteNumber":66,"velocity":61,"programNumber":42},{"time":264388.62449999794,"duration":55.555500000016764,"noteNumber":67,"velocity":61,"programNumber":42},{"time":264444.17999999796,"duration":222.22200000000885,"noteNumber":69,"velocity":61,"programNumber":42},{"time":264666.40199999796,"duration":222.22200000000885,"noteNumber":66,"velocity":61,"programNumber":42},{"time":264888.623999998,"duration":74.07400000002235,"noteNumber":71,"velocity":53,"programNumber":42},{"time":264999.734999998,"duration":74.07400000002235,"noteNumber":71,"velocity":53,"programNumber":42},{"time":265110.84599999804,"duration":74.07400000002235,"noteNumber":71,"velocity":55,"programNumber":42},{"time":265221.9569999981,"duration":74.07400000002235,"noteNumber":71,"velocity":55,"programNumber":42},{"time":265333.0679999981,"duration":74.07400000002235,"noteNumber":71,"velocity":55,"programNumber":42},{"time":265444.17899999814,"duration":74.07400000002235,"noteNumber":71,"velocity":56,"programNumber":42},{"time":265555.2899999982,"duration":74.07400000002235,"noteNumber":71,"velocity":56,"programNumber":42},{"time":265666.4009999982,"duration":74.07400000002235,"noteNumber":71,"velocity":58,"programNumber":42},{"time":265777.51199999824,"duration":74.07400000002235,"noteNumber":72,"velocity":58,"programNumber":42},{"time":265888.6229999983,"duration":74.07400000002235,"noteNumber":72,"velocity":59,"programNumber":42},{"time":265999.7339999983,"duration":74.07400000002235,"noteNumber":72,"velocity":59,"programNumber":42},{"time":266110.84499999834,"duration":74.07400000002235,"noteNumber":72,"velocity":61,"programNumber":42},{"time":266221.9559999984,"duration":74.07400000002235,"noteNumber":74,"velocity":61,"programNumber":42},{"time":266333.0669999984,"duration":74.07400000002235,"noteNumber":74,"velocity":62,"programNumber":42},{"time":266444.17799999844,"duration":74.07400000002235,"noteNumber":74,"velocity":62,"programNumber":42},{"time":266555.2889999985,"duration":74.07400000002235,"noteNumber":74,"velocity":64,"programNumber":42},{"time":266666.3999999985,"duration":74.07400000002235,"noteNumber":71,"velocity":64,"programNumber":42},{"time":266777.51099999854,"duration":74.07400000002235,"noteNumber":71,"velocity":65,"programNumber":42},{"time":266888.6219999986,"duration":74.07400000002235,"noteNumber":71,"velocity":65,"programNumber":42},{"time":266999.7329999986,"duration":74.07400000002235,"noteNumber":71,"velocity":67,"programNumber":42},{"time":267110.84399999864,"duration":74.07400000002235,"noteNumber":74,"velocity":67,"programNumber":42},{"time":267221.9549999987,"duration":74.07400000002235,"noteNumber":74,"velocity":68,"programNumber":42},{"time":267333.0659999987,"duration":74.07400000002235,"noteNumber":74,"velocity":68,"programNumber":42},{"time":267444.17699999874,"duration":74.07400000002235,"noteNumber":74,"velocity":70,"programNumber":42},{"time":267555.2879999988,"duration":74.07400000002235,"noteNumber":74,"velocity":70,"programNumber":42},{"time":267666.3989999988,"duration":74.07400000002235,"noteNumber":74,"velocity":71,"programNumber":42},{"time":267777.50999999885,"duration":74.07400000002235,"noteNumber":74,"velocity":71,"programNumber":42},{"time":267888.6209999989,"duration":74.07400000002235,"noteNumber":74,"velocity":73,"programNumber":42},{"time":267999.7319999989,"duration":74.07400000002235,"noteNumber":79,"velocity":73,"programNumber":42},{"time":268110.84299999895,"duration":74.07400000002235,"noteNumber":79,"velocity":73,"programNumber":42},{"time":268221.953999999,"duration":74.07400000002235,"noteNumber":79,"velocity":74,"programNumber":42},{"time":268333.064999999,"duration":74.07400000002235,"noteNumber":79,"velocity":74,"programNumber":42},{"time":268444.17599999905,"duration":74.07400000002235,"noteNumber":78,"velocity":85,"programNumber":42},{"time":268555.2869999991,"duration":74.07400000002235,"noteNumber":78,"velocity":85,"programNumber":42},{"time":268666.3979999991,"duration":74.07400000002235,"noteNumber":78,"velocity":85,"programNumber":42},{"time":268777.50899999915,"duration":74.07400000002235,"noteNumber":78,"velocity":85,"programNumber":42},{"time":268888.6199999992,"duration":74.07400000002235,"noteNumber":78,"velocity":85,"programNumber":42},{"time":268999.7309999992,"duration":74.07400000002235,"noteNumber":78,"velocity":85,"programNumber":42},{"time":269110.84199999925,"duration":74.07400000002235,"noteNumber":78,"velocity":85,"programNumber":42},{"time":269221.9529999993,"duration":74.07400000002235,"noteNumber":78,"velocity":85,"programNumber":42},{"time":269333.0639999993,"duration":74.07400000002235,"noteNumber":79,"velocity":85,"programNumber":42},{"time":269444.17499999935,"duration":74.07400000002235,"noteNumber":79,"velocity":85,"programNumber":42},{"time":269555.2859999994,"duration":74.07400000002235,"noteNumber":79,"velocity":85,"programNumber":42},{"time":269666.3969999994,"duration":74.07400000002235,"noteNumber":79,"velocity":85,"programNumber":42},{"time":269777.50799999945,"duration":74.07400000002235,"noteNumber":79,"velocity":85,"programNumber":42},{"time":269888.6189999995,"duration":74.07400000002235,"noteNumber":79,"velocity":85,"programNumber":42},{"time":269999.7299999995,"duration":74.07400000002235,"noteNumber":79,"velocity":85,"programNumber":42},{"time":270110.84099999955,"duration":74.07400000002235,"noteNumber":79,"velocity":85,"programNumber":42},{"time":270221.9519999996,"duration":74.07400000002235,"noteNumber":78,"velocity":85,"programNumber":42},{"time":270333.0629999996,"duration":74.07400000002235,"noteNumber":78,"velocity":85,"programNumber":42},{"time":270444.17399999965,"duration":74.07400000002235,"noteNumber":78,"velocity":85,"programNumber":42},{"time":270555.2849999997,"duration":74.07400000002235,"noteNumber":78,"velocity":85,"programNumber":42},{"time":270666.3959999997,"duration":74.07400000002235,"noteNumber":78,"velocity":85,"programNumber":42},{"time":270777.50699999975,"duration":74.07400000002235,"noteNumber":78,"velocity":85,"programNumber":42},{"time":270888.6179999998,"duration":74.07400000002235,"noteNumber":78,"velocity":85,"programNumber":42},{"time":270999.7289999998,"duration":74.07400000002235,"noteNumber":78,"velocity":85,"programNumber":42},{"time":271110.83999999985,"duration":74.07400000002235,"noteNumber":79,"velocity":85,"programNumber":42},{"time":271221.9509999999,"duration":74.07400000002235,"noteNumber":79,"velocity":85,"programNumber":42},{"time":271333.0619999999,"duration":74.07400000002235,"noteNumber":79,"velocity":85,"programNumber":42},{"time":271444.17299999995,"duration":74.07400000002235,"noteNumber":79,"velocity":85,"programNumber":42},{"time":271555.284,"duration":74.07400000002235,"noteNumber":79,"velocity":85,"programNumber":42},{"time":271666.395,"duration":74.07400000002235,"noteNumber":79,"velocity":85,"programNumber":42},{"time":271777.50600000005,"duration":74.07400000002235,"noteNumber":79,"velocity":85,"programNumber":42},{"time":271888.6170000001,"duration":74.07400000002235,"noteNumber":79,"velocity":85,"programNumber":42},{"time":271999.7280000001,"duration":74.07400000002235,"noteNumber":78,"velocity":85,"programNumber":42},{"time":272110.83900000015,"duration":74.07400000002235,"noteNumber":78,"velocity":85,"programNumber":42},{"time":272221.9500000002,"duration":74.07400000002235,"noteNumber":78,"velocity":85,"programNumber":42},{"time":272333.0610000002,"duration":74.07400000002235,"noteNumber":78,"velocity":85,"programNumber":42},{"time":272444.17200000025,"duration":74.07400000002235,"noteNumber":79,"velocity":85,"programNumber":42},{"time":272555.2830000003,"duration":74.07400000002235,"noteNumber":79,"velocity":85,"programNumber":42},{"time":272666.3940000003,"duration":74.07400000002235,"noteNumber":79,"velocity":85,"programNumber":42},{"time":272777.50500000035,"duration":74.07400000002235,"noteNumber":79,"velocity":85,"programNumber":42},{"time":272888.6160000004,"duration":74.07400000002235,"noteNumber":78,"velocity":85,"programNumber":42},{"time":272999.7270000004,"duration":74.07400000002235,"noteNumber":78,"velocity":85,"programNumber":42},{"time":273110.83800000045,"duration":74.07400000002235,"noteNumber":78,"velocity":85,"programNumber":42},{"time":273221.9490000005,"duration":74.07400000002235,"noteNumber":78,"velocity":85,"programNumber":42},{"time":273333.0600000005,"duration":74.07400000002235,"noteNumber":79,"velocity":85,"programNumber":42},{"time":273444.17100000056,"duration":74.07400000002235,"noteNumber":79,"velocity":85,"programNumber":42},{"time":273555.2820000006,"duration":74.07400000002235,"noteNumber":79,"velocity":85,"programNumber":42},{"time":273666.3930000006,"duration":74.07400000002235,"noteNumber":79,"velocity":85,"programNumber":42},{"time":273788.61510000064,"duration":166.66649999999208,"noteNumber":78,"velocity":85,"programNumber":42},{"time":274010.83710000064,"duration":166.66649999999208,"noteNumber":62,"velocity":85,"programNumber":42},{"time":274233.05910000065,"duration":166.66649999999208,"noteNumber":62,"velocity":85,"programNumber":42},{"time":274455.28110000066,"duration":166.66649999999208,"noteNumber":62,"velocity":85,"programNumber":42},{"time":274677.5031000007,"duration":444.4440000000177,"noteNumber":62,"velocity":85,"programNumber":42},{"time":275555.28000000067,"duration":666.6660000000265,"noteNumber":62,"velocity":55,"programNumber":42},{"time":276221.9460000007,"duration":74.07400000002235,"noteNumber":60,"velocity":55,"programNumber":42},{"time":276296.0200000007,"duration":74.07400000002235,"noteNumber":59,"velocity":55,"programNumber":42},{"time":276370.09400000074,"duration":74.07400000002235,"noteNumber":57,"velocity":55,"programNumber":42},{"time":276444.16800000076,"duration":222.22200000000885,"noteNumber":55,"velocity":55,"programNumber":42},{"time":276888.6120000008,"duration":222.22200000000885,"noteNumber":64,"velocity":55,"programNumber":42},{"time":277333.0560000008,"duration":222.22200000000885,"noteNumber":60,"velocity":55,"programNumber":42},{"time":277777.5000000008,"duration":222.22200000000885,"noteNumber":57,"velocity":55,"programNumber":42},{"time":278221.94400000083,"duration":222.22200000000885,"noteNumber":62,"velocity":55,"programNumber":42},{"time":279110.83200000087,"duration":666.6660000000265,"noteNumber":71,"velocity":55,"programNumber":42},{"time":279777.4980000009,"duration":74.07400000002235,"noteNumber":69,"velocity":55,"programNumber":42},{"time":279851.5720000009,"duration":74.07400000002235,"noteNumber":67,"velocity":55,"programNumber":42},{"time":279925.64600000094,"duration":74.07400000002235,"noteNumber":66,"velocity":55,"programNumber":42},{"time":279999.72000000096,"duration":222.22200000000885,"noteNumber":64,"velocity":55,"programNumber":42},{"time":280444.164000001,"duration":222.22200000000885,"noteNumber":72,"velocity":55,"programNumber":42},{"time":280888.608000001,"duration":888.8879999999772,"noteNumber":71,"velocity":55,"programNumber":42},{"time":281777.496000001,"duration":444.4440000000177,"noteNumber":69,"velocity":55,"programNumber":42},{"time":282666.384000001,"duration":666.6660000000265,"noteNumber":74,"velocity":55,"programNumber":42},{"time":283333.05000000104,"duration":74.07400000002235,"noteNumber":72,"velocity":55,"programNumber":42},{"time":283407.12400000106,"duration":74.07400000002235,"noteNumber":71,"velocity":55,"programNumber":42},{"time":283481.1980000011,"duration":74.07400000002235,"noteNumber":69,"velocity":55,"programNumber":42},{"time":283555.2720000011,"duration":222.22200000000885,"noteNumber":67,"velocity":55,"programNumber":42},{"time":283999.7160000011,"duration":222.22200000000885,"noteNumber":76,"velocity":55,"programNumber":42},{"time":284444.16000000114,"duration":222.22200000000885,"noteNumber":72,"velocity":55,"programNumber":42},{"time":284888.60400000116,"duration":222.22200000000885,"noteNumber":69,"velocity":55,"programNumber":42},{"time":285333.0480000012,"duration":222.22200000000885,"noteNumber":74,"velocity":55,"programNumber":42},{"time":285944.1585000012,"duration":166.66649999999208,"noteNumber":72,"velocity":55,"programNumber":42},{"time":286221.93600000115,"duration":222.22200000000885,"noteNumber":72,"velocity":55,"programNumber":42},{"time":286444.15800000116,"duration":222.22200000000885,"noteNumber":71,"velocity":55,"programNumber":42},{"time":286888.6020000012,"duration":111.11099999997532,"noteNumber":72,"velocity":55,"programNumber":42},{"time":287110.8240000011,"duration":222.22200000000885,"noteNumber":72,"velocity":55,"programNumber":42},{"time":287333.04600000114,"duration":222.22200000000885,"noteNumber":71,"velocity":55,"programNumber":42},{"time":287777.49000000115,"duration":166.66649999999208,"noteNumber":60,"velocity":55,"programNumber":42},{"time":287999.71200000116,"duration":166.66649999999208,"noteNumber":59,"velocity":55,"programNumber":42},{"time":288221.9340000012,"duration":166.66649999999208,"noteNumber":59,"velocity":55,"programNumber":42},{"time":288444.1560000012,"duration":166.66649999999208,"noteNumber":60,"velocity":55,"programNumber":42},{"time":288666.3780000012,"duration":166.66649999999208,"noteNumber":60,"velocity":55,"programNumber":42},{"time":288888.6000000012,"duration":166.66649999999208,"noteNumber":62,"velocity":55,"programNumber":42},{"time":289110.8220000012,"duration":166.66649999999208,"noteNumber":62,"velocity":55,"programNumber":42},{"time":289333.0440000012,"duration":166.66649999999208,"noteNumber":59,"velocity":55,"programNumber":42},{"time":289555.2660000012,"duration":166.66649999999208,"noteNumber":59,"velocity":55,"programNumber":42},{"time":289777.48800000123,"duration":166.66649999999208,"noteNumber":57,"velocity":55,"programNumber":42},{"time":289999.71000000124,"duration":166.66649999999208,"noteNumber":57,"velocity":55,"programNumber":42},{"time":290221.93200000125,"duration":166.66649999999208,"noteNumber":59,"velocity":55,"programNumber":42},{"time":290444.15400000126,"duration":166.66649999999208,"noteNumber":59,"velocity":55,"programNumber":42},{"time":290666.37600000127,"duration":166.66649999999208,"noteNumber":60,"velocity":55,"programNumber":42},{"time":290888.5980000013,"duration":166.66649999999208,"noteNumber":60,"velocity":55,"programNumber":42},{"time":291110.8200000013,"duration":166.66649999999208,"noteNumber":57,"velocity":55,"programNumber":42},{"time":291333.0420000013,"duration":166.66649999999208,"noteNumber":57,"velocity":55,"programNumber":42},{"time":291555.2640000013,"duration":166.66649999999208,"noteNumber":59,"velocity":55,"programNumber":42},{"time":291777.4860000013,"duration":166.66649999999208,"noteNumber":59,"velocity":55,"programNumber":42},{"time":291999.7080000013,"duration":166.66649999999208,"noteNumber":60,"velocity":55,"programNumber":42},{"time":292221.93000000133,"duration":166.66649999999208,"noteNumber":60,"velocity":55,"programNumber":42},{"time":292444.15200000134,"duration":166.66649999999208,"noteNumber":62,"velocity":55,"programNumber":42},{"time":292666.37400000135,"duration":166.66649999999208,"noteNumber":62,"velocity":55,"programNumber":42},{"time":292888.59600000136,"duration":166.66649999999208,"noteNumber":59,"velocity":55,"programNumber":42},{"time":293110.81800000137,"duration":166.66649999999208,"noteNumber":59,"velocity":55,"programNumber":42},{"time":293333.0400000014,"duration":166.66649999999208,"noteNumber":57,"velocity":55,"programNumber":42},{"time":293555.2620000014,"duration":166.66649999999208,"noteNumber":57,"velocity":55,"programNumber":42},{"time":293777.4840000014,"duration":166.66649999999208,"noteNumber":59,"velocity":55,"programNumber":42},{"time":293999.7060000014,"duration":166.66649999999208,"noteNumber":59,"velocity":55,"programNumber":42},{"time":294221.9280000014,"duration":166.66649999999208,"noteNumber":60,"velocity":55,"programNumber":42},{"time":294444.1500000014,"duration":166.66649999999208,"noteNumber":60,"velocity":55,"programNumber":42},{"time":294666.37200000143,"duration":166.66649999999208,"noteNumber":57,"velocity":55,"programNumber":42},{"time":294888.59400000144,"duration":166.66649999999208,"noteNumber":57,"velocity":55,"programNumber":42},{"time":295110.81600000145,"duration":444.4440000000177,"noteNumber":59,"velocity":55,"programNumber":42},{"time":295999.7040000015,"duration":888.8879999999772,"noteNumber":64,"velocity":85,"programNumber":42},{"time":295999.7040000015,"duration":888.8879999999772,"noteNumber":71,"velocity":85,"programNumber":42},{"time":296888.59200000146,"duration":444.4440000000177,"noteNumber":69,"velocity":85,"programNumber":42},{"time":297777.4800000015,"duration":888.8879999999772,"noteNumber":69,"velocity":85,"programNumber":42},{"time":297777.4800000015,"duration":888.8879999999772,"noteNumber":62,"velocity":85,"programNumber":42},{"time":298666.3680000015,"duration":166.66649999999208,"noteNumber":67,"velocity":85,"programNumber":42},{"time":298888.5900000015,"duration":111.11099999997532,"noteNumber":71,"velocity":85,"programNumber":42},{"time":299110.81200000143,"duration":111.11099999997532,"noteNumber":72,"velocity":85,"programNumber":42},{"time":299333.0340000014,"duration":111.11099999997532,"noteNumber":74,"velocity":85,"programNumber":42},{"time":299555.25600000133,"duration":222.22200000000885,"noteNumber":72,"velocity":85,"programNumber":42},{"time":299777.47800000134,"duration":111.11099999997532,"noteNumber":74,"velocity":85,"programNumber":42},{"time":299888.5890000013,"duration":111.11099999997532,"noteNumber":76,"velocity":85,"programNumber":42},{"time":299999.7000000013,"duration":166.66649999999208,"noteNumber":74,"velocity":85,"programNumber":42},{"time":300221.9220000013,"duration":111.11099999997532,"noteNumber":72,"velocity":85,"programNumber":42},{"time":300444.14400000125,"duration":222.22200000000885,"noteNumber":72,"velocity":85,"programNumber":42},{"time":300666.36600000126,"duration":166.66649999999208,"noteNumber":71,"velocity":85,"programNumber":42},{"time":300888.58800000127,"duration":111.11099999997532,"noteNumber":67,"velocity":85,"programNumber":42},{"time":301110.8100000012,"duration":111.11099999997532,"noteNumber":71,"velocity":85,"programNumber":42},{"time":301333.03200000117,"duration":222.22200000000885,"noteNumber":71,"velocity":85,"programNumber":42},{"time":301555.2540000012,"duration":166.66649999999208,"noteNumber":69,"velocity":85,"programNumber":42},{"time":301777.4760000012,"duration":111.11099999997532,"noteNumber":67,"velocity":85,"programNumber":42},{"time":301999.69800000114,"duration":111.11099999997532,"noteNumber":66,"velocity":85,"programNumber":42},{"time":302221.9200000011,"duration":166.66649999999208,"noteNumber":67,"velocity":85,"programNumber":42},{"time":302444.1420000011,"duration":166.66649999999208,"noteNumber":59,"velocity":53,"programNumber":42},{"time":302666.3640000011,"duration":166.66649999999208,"noteNumber":60,"velocity":53,"programNumber":42},{"time":302888.5860000011,"duration":166.66649999999208,"noteNumber":60,"velocity":53,"programNumber":42},{"time":303110.8080000011,"duration":166.66649999999208,"noteNumber":62,"velocity":53,"programNumber":42},{"time":303333.03000000113,"duration":166.66649999999208,"noteNumber":62,"velocity":53,"programNumber":42},{"time":303555.25200000114,"duration":166.66649999999208,"noteNumber":59,"velocity":53,"programNumber":42},{"time":303777.47400000115,"duration":166.66649999999208,"noteNumber":59,"velocity":53,"programNumber":42},{"time":303999.69600000116,"duration":166.66649999999208,"noteNumber":57,"velocity":55,"programNumber":42},{"time":304221.91800000117,"duration":166.66649999999208,"noteNumber":57,"velocity":55,"programNumber":42},{"time":304444.1400000012,"duration":166.66649999999208,"noteNumber":59,"velocity":55,"programNumber":42},{"time":304666.3620000012,"duration":166.66649999999208,"noteNumber":59,"velocity":55,"programNumber":42},{"time":304888.5840000012,"duration":166.66649999999208,"noteNumber":60,"velocity":55,"programNumber":42},{"time":305110.8060000012,"duration":166.66649999999208,"noteNumber":60,"velocity":55,"programNumber":42},{"time":305333.0280000012,"duration":166.66649999999208,"noteNumber":57,"velocity":55,"programNumber":42},{"time":305555.2500000012,"duration":166.66649999999208,"noteNumber":57,"velocity":55,"programNumber":42},{"time":305777.47200000123,"duration":166.66649999999208,"noteNumber":59,"velocity":55,"programNumber":42},{"time":305999.69400000124,"duration":166.66649999999208,"noteNumber":71,"velocity":55,"programNumber":42},{"time":306221.91600000125,"duration":166.66649999999208,"noteNumber":72,"velocity":55,"programNumber":42},{"time":306444.13800000126,"duration":166.66649999999208,"noteNumber":72,"velocity":55,"programNumber":42},{"time":306666.36000000127,"duration":166.66649999999208,"noteNumber":74,"velocity":55,"programNumber":42},{"time":306888.5820000013,"duration":166.66649999999208,"noteNumber":74,"velocity":55,"programNumber":42},{"time":307110.8040000013,"duration":166.66649999999208,"noteNumber":71,"velocity":55,"programNumber":42},{"time":307333.0260000013,"duration":166.66649999999208,"noteNumber":71,"velocity":55,"programNumber":42},{"time":307555.2480000013,"duration":166.66649999999208,"noteNumber":69,"velocity":55,"programNumber":42},{"time":307777.4700000013,"duration":166.66649999999208,"noteNumber":69,"velocity":55,"programNumber":42},{"time":307999.6920000013,"duration":166.66649999999208,"noteNumber":71,"velocity":55,"programNumber":42},{"time":308221.9140000013,"duration":166.66649999999208,"noteNumber":71,"velocity":55,"programNumber":42},{"time":308444.13600000134,"duration":166.66649999999208,"noteNumber":72,"velocity":55,"programNumber":42},{"time":308666.35800000135,"duration":166.66649999999208,"noteNumber":72,"velocity":55,"programNumber":42},{"time":308888.58000000136,"duration":166.66649999999208,"noteNumber":69,"velocity":55,"programNumber":42},{"time":309110.80200000136,"duration":166.66649999999208,"noteNumber":69,"velocity":55,"programNumber":42},{"time":309333.0240000014,"duration":444.4440000000177,"noteNumber":71,"velocity":58,"programNumber":42},{"time":310221.9120000014,"duration":888.8879999999772,"noteNumber":83,"velocity":85,"programNumber":42},{"time":311110.8000000014,"duration":444.4440000000177,"noteNumber":81,"velocity":85,"programNumber":42},{"time":311999.6880000014,"duration":888.8879999999772,"noteNumber":81,"velocity":85,"programNumber":42},{"time":312888.5760000014,"duration":166.66649999999208,"noteNumber":79,"velocity":85,"programNumber":42},{"time":313110.7980000014,"duration":111.11099999997532,"noteNumber":71,"velocity":85,"programNumber":42},{"time":313333.02000000136,"duration":111.11099999997532,"noteNumber":72,"velocity":85,"programNumber":42},{"time":313555.2420000013,"duration":111.11099999997532,"noteNumber":74,"velocity":85,"programNumber":42},{"time":313777.46400000126,"duration":222.22200000000885,"noteNumber":72,"velocity":85,"programNumber":42},{"time":313999.68600000127,"duration":111.11099999997532,"noteNumber":74,"velocity":85,"programNumber":42},{"time":314110.79700000124,"duration":111.11099999997532,"noteNumber":76,"velocity":85,"programNumber":42},{"time":314221.9080000012,"duration":166.66649999999208,"noteNumber":74,"velocity":85,"programNumber":42},{"time":314444.1300000012,"duration":111.11099999997532,"noteNumber":72,"velocity":85,"programNumber":42},{"time":314666.3520000012,"duration":111.11099999997532,"noteNumber":71,"velocity":85,"programNumber":42},{"time":314888.5740000011,"duration":111.11099999997532,"noteNumber":74,"velocity":85,"programNumber":42},{"time":315110.7960000011,"duration":111.11099999997532,"noteNumber":79,"velocity":85,"programNumber":42},{"time":315333.01800000103,"duration":111.11099999997532,"noteNumber":83,"velocity":85,"programNumber":42},{"time":315555.240000001,"duration":222.22200000000885,"noteNumber":83,"velocity":85,"programNumber":42},{"time":315777.462000001,"duration":166.66649999999208,"noteNumber":81,"velocity":85,"programNumber":42},{"time":315999.684000001,"duration":111.11099999997532,"noteNumber":79,"velocity":85,"programNumber":42},{"time":316221.90600000095,"duration":111.11099999997532,"noteNumber":78,"velocity":85,"programNumber":42},{"time":316451.5354000009,"duration":166.66649999999208,"noteNumber":79,"velocity":85,"programNumber":42},{"time":316673.75740000093,"duration":166.66649999999208,"noteNumber":62,"velocity":85,"programNumber":42},{"time":316895.97940000094,"duration":166.66649999999208,"noteNumber":64,"velocity":85,"programNumber":42},{"time":317118.20140000095,"duration":166.66649999999208,"noteNumber":66,"velocity":85,"programNumber":42},{"time":317340.42340000096,"duration":166.66649999999208,"noteNumber":67,"velocity":85,"programNumber":42},{"time":317562.64540000097,"duration":166.66649999999208,"noteNumber":67,"velocity":85,"programNumber":42},{"time":317784.867400001,"duration":55.555500000016764,"noteNumber":69,"velocity":85,"programNumber":42},{"time":317840.422900001,"duration":55.555500000016764,"noteNumber":71,"velocity":85,"programNumber":42},{"time":317895.978400001,"duration":55.555500000016764,"noteNumber":69,"velocity":85,"programNumber":42},{"time":317951.533900001,"duration":55.555500000016764,"noteNumber":71,"velocity":85,"programNumber":42},{"time":318007.08940000104,"duration":111.11099999997532,"noteNumber":67,"velocity":85,"programNumber":42},{"time":318118.200400001,"duration":111.11099999997532,"noteNumber":69,"velocity":85,"programNumber":42},{"time":318229.311400001,"duration":166.66649999999208,"noteNumber":71,"velocity":85,"programNumber":42},{"time":318451.533400001,"duration":166.66649999999208,"noteNumber":66,"velocity":85,"programNumber":42},{"time":318673.755400001,"duration":166.66649999999208,"noteNumber":67,"velocity":85,"programNumber":42},{"time":318895.977400001,"duration":166.66649999999208,"noteNumber":69,"velocity":85,"programNumber":42},{"time":319118.19940000103,"duration":166.66649999999208,"noteNumber":71,"velocity":85,"programNumber":42},{"time":319340.42140000104,"duration":166.66649999999208,"noteNumber":71,"velocity":85,"programNumber":42},{"time":319562.64340000105,"duration":55.555500000016764,"noteNumber":72,"velocity":85,"programNumber":42},{"time":319618.19890000107,"duration":55.555500000016764,"noteNumber":74,"velocity":85,"programNumber":42},{"time":319673.7544000011,"duration":55.555500000016764,"noteNumber":72,"velocity":85,"programNumber":42},{"time":319729.3099000011,"duration":55.555500000016764,"noteNumber":74,"velocity":85,"programNumber":42},{"time":319784.8654000011,"duration":111.11099999997532,"noteNumber":71,"velocity":85,"programNumber":42},{"time":319895.9764000011,"duration":111.11100000003353,"noteNumber":72,"velocity":85,"programNumber":42},{"time":319999.6800000011,"duration":166.6665000000503,"noteNumber":74,"velocity":85,"programNumber":42},{"time":320221.90200000117,"duration":166.66649999999208,"noteNumber":74,"velocity":85,"programNumber":42},{"time":320444.1240000012,"duration":55.555500000016764,"noteNumber":75,"velocity":85,"programNumber":42},{"time":320499.6795000012,"duration":55.555500000016764,"noteNumber":76,"velocity":85,"programNumber":42},{"time":320555.2350000012,"duration":55.555500000016764,"noteNumber":75,"velocity":85,"programNumber":42},{"time":320610.7905000012,"duration":55.555500000016764,"noteNumber":76,"velocity":85,"programNumber":42},{"time":320666.34600000124,"duration":111.11099999997532,"noteNumber":73,"velocity":85,"programNumber":42},{"time":320777.4570000012,"duration":111.11099999997532,"noteNumber":75,"velocity":85,"programNumber":42},{"time":320888.5680000012,"duration":444.4440000000177,"noteNumber":76,"velocity":85,"programNumber":42},{"time":321777.4560000012,"duration":1777.7760000000126,"noteNumber":60,"velocity":70,"programNumber":42},{"time":323555.23200000124,"duration":444.4440000000177,"noteNumber":59,"velocity":70,"programNumber":42},{"time":325333.00800000125,"duration":1777.7760000000126,"noteNumber":60,"velocity":70,"programNumber":42},{"time":327110.78400000127,"duration":444.4440000000177,"noteNumber":59,"velocity":70,"programNumber":42},{"time":327999.6720000013,"duration":444.4440000000177,"noteNumber":71,"velocity":70,"programNumber":42},{"time":328888.56000000134,"duration":444.4440000000177,"noteNumber":76,"velocity":92,"programNumber":42},{"time":329777.4480000014,"duration":444.4440000000177,"noteNumber":78,"velocity":106,"programNumber":42},{"time":329777.4480000014,"duration":444.4440000000177,"noteNumber":72,"velocity":106,"programNumber":42},{"time":330666.3360000014,"duration":74.07400000002235,"noteNumber":62,"velocity":95,"programNumber":42},{"time":330666.3360000014,"duration":74.07400000002235,"noteNumber":59,"velocity":95,"programNumber":42},{"time":330777.44700000144,"duration":74.07400000002235,"noteNumber":62,"velocity":95,"programNumber":42},{"time":330777.44700000144,"duration":74.07400000002235,"noteNumber":59,"velocity":95,"programNumber":42},{"time":330888.5580000015,"duration":74.07400000002235,"noteNumber":62,"velocity":95,"programNumber":42},{"time":330888.5580000015,"duration":74.07400000002235,"noteNumber":59,"velocity":95,"programNumber":42},{"time":330999.6690000015,"duration":74.07400000002235,"noteNumber":62,"velocity":95,"programNumber":42},{"time":330999.6690000015,"duration":74.07400000002235,"noteNumber":59,"velocity":95,"programNumber":42},{"time":331110.78000000154,"duration":74.07400000002235,"noteNumber":62,"velocity":95,"programNumber":42},{"time":331110.78000000154,"duration":74.07400000002235,"noteNumber":59,"velocity":95,"programNumber":42},{"time":331221.8910000016,"duration":74.07400000002235,"noteNumber":62,"velocity":94,"programNumber":42},{"time":331221.8910000016,"duration":74.07400000002235,"noteNumber":59,"velocity":94,"programNumber":42},{"time":331333.0020000016,"duration":74.07400000002235,"noteNumber":62,"velocity":94,"programNumber":42},{"time":331333.0020000016,"duration":74.07400000002235,"noteNumber":59,"velocity":94,"programNumber":42},{"time":331444.11300000164,"duration":74.07400000002235,"noteNumber":62,"velocity":94,"programNumber":42},{"time":331444.11300000164,"duration":74.07400000002235,"noteNumber":59,"velocity":94,"programNumber":42},{"time":331555.2240000017,"duration":74.07400000002235,"noteNumber":62,"velocity":94,"programNumber":42},{"time":331555.2240000017,"duration":74.07400000002235,"noteNumber":59,"velocity":94,"programNumber":42},{"time":331666.3350000017,"duration":74.07400000002235,"noteNumber":62,"velocity":94,"programNumber":42},{"time":331666.3350000017,"duration":74.07400000002235,"noteNumber":59,"velocity":94,"programNumber":42},{"time":331777.44600000174,"duration":74.07400000002235,"noteNumber":62,"velocity":94,"programNumber":42},{"time":331777.44600000174,"duration":74.07400000002235,"noteNumber":59,"velocity":94,"programNumber":42},{"time":331888.5570000018,"duration":74.07400000002235,"noteNumber":62,"velocity":94,"programNumber":42},{"time":331888.5570000018,"duration":74.07400000002235,"noteNumber":59,"velocity":94,"programNumber":42},{"time":331999.6680000018,"duration":74.07400000002235,"noteNumber":62,"velocity":94,"programNumber":42},{"time":331999.6680000018,"duration":74.07400000002235,"noteNumber":59,"velocity":94,"programNumber":42},{"time":332110.77900000184,"duration":74.07400000002235,"noteNumber":62,"velocity":94,"programNumber":42},{"time":332110.77900000184,"duration":74.07400000002235,"noteNumber":59,"velocity":94,"programNumber":42},{"time":332221.8900000019,"duration":74.07400000002235,"noteNumber":62,"velocity":94,"programNumber":42},{"time":332221.8900000019,"duration":74.07400000002235,"noteNumber":59,"velocity":94,"programNumber":42},{"time":332333.0010000019,"duration":74.07400000002235,"noteNumber":62,"velocity":94,"programNumber":42},{"time":332333.0010000019,"duration":74.07400000002235,"noteNumber":59,"velocity":94,"programNumber":42},{"time":332444.11200000194,"duration":74.07400000002235,"noteNumber":62,"velocity":94,"programNumber":42},{"time":332444.11200000194,"duration":74.07400000002235,"noteNumber":59,"velocity":94,"programNumber":42},{"time":332555.223000002,"duration":74.07400000002235,"noteNumber":62,"velocity":94,"programNumber":42},{"time":332555.223000002,"duration":74.07400000002235,"noteNumber":59,"velocity":94,"programNumber":42},{"time":332666.334000002,"duration":74.07400000002235,"noteNumber":62,"velocity":94,"programNumber":42},{"time":332666.334000002,"duration":74.07400000002235,"noteNumber":59,"velocity":94,"programNumber":42},{"time":332777.44500000204,"duration":74.07400000002235,"noteNumber":62,"velocity":94,"programNumber":42},{"time":332777.44500000204,"duration":74.07400000002235,"noteNumber":59,"velocity":94,"programNumber":42},{"time":332888.5560000021,"duration":74.07400000002235,"noteNumber":62,"velocity":94,"programNumber":42},{"time":332888.5560000021,"duration":74.07400000002235,"noteNumber":59,"velocity":94,"programNumber":42},{"time":332999.6670000021,"duration":74.07400000002235,"noteNumber":62,"velocity":93,"programNumber":42},{"time":332999.6670000021,"duration":74.07400000002235,"noteNumber":59,"velocity":93,"programNumber":42},{"time":333110.77800000214,"duration":74.07400000002235,"noteNumber":62,"velocity":93,"programNumber":42},{"time":333110.77800000214,"duration":74.07400000002235,"noteNumber":59,"velocity":93,"programNumber":42},{"time":333221.8890000022,"duration":74.07400000002235,"noteNumber":62,"velocity":91,"programNumber":42},{"time":333221.8890000022,"duration":74.07400000002235,"noteNumber":59,"velocity":91,"programNumber":42},{"time":333333.0000000022,"duration":74.07400000002235,"noteNumber":62,"velocity":90,"programNumber":42},{"time":333333.0000000022,"duration":74.07400000002235,"noteNumber":59,"velocity":90,"programNumber":42},{"time":333444.11100000225,"duration":74.07400000002235,"noteNumber":62,"velocity":90,"programNumber":42},{"time":333444.11100000225,"duration":74.07400000002235,"noteNumber":59,"velocity":90,"programNumber":42},{"time":333555.2220000023,"duration":74.07400000002235,"noteNumber":62,"velocity":90,"programNumber":42},{"time":333555.2220000023,"duration":74.07400000002235,"noteNumber":59,"velocity":90,"programNumber":42},{"time":333666.3330000023,"duration":74.07400000002235,"noteNumber":62,"velocity":90,"programNumber":42},{"time":333666.3330000023,"duration":74.07400000002235,"noteNumber":59,"velocity":90,"programNumber":42},{"time":333777.44400000235,"duration":74.07400000002235,"noteNumber":62,"velocity":90,"programNumber":42},{"time":333777.44400000235,"duration":74.07400000002235,"noteNumber":60,"velocity":90,"programNumber":42},{"time":333888.5550000024,"duration":74.07400000002235,"noteNumber":62,"velocity":89,"programNumber":42},{"time":333888.5550000024,"duration":74.07400000002235,"noteNumber":60,"velocity":89,"programNumber":42},{"time":333999.6660000024,"duration":74.07400000002235,"noteNumber":62,"velocity":89,"programNumber":42},{"time":333999.6660000024,"duration":74.07400000002235,"noteNumber":60,"velocity":89,"programNumber":42},{"time":334110.77700000245,"duration":74.07400000002235,"noteNumber":62,"velocity":89,"programNumber":42},{"time":334110.77700000245,"duration":74.07400000002235,"noteNumber":60,"velocity":89,"programNumber":42},{"time":334221.8880000025,"duration":74.07400000002235,"noteNumber":62,"velocity":89,"programNumber":42},{"time":334221.8880000025,"duration":74.07400000002235,"noteNumber":59,"velocity":89,"programNumber":42},{"time":334332.9990000025,"duration":74.07400000002235,"noteNumber":62,"velocity":89,"programNumber":42},{"time":334332.9990000025,"duration":74.07400000002235,"noteNumber":59,"velocity":89,"programNumber":42},{"time":334444.11000000255,"duration":74.07400000002235,"noteNumber":62,"velocity":89,"programNumber":42},{"time":334444.11000000255,"duration":74.07400000002235,"noteNumber":59,"velocity":89,"programNumber":42},{"time":334555.2210000026,"duration":74.07400000002235,"noteNumber":62,"velocity":90,"programNumber":42},{"time":334555.2210000026,"duration":74.07400000002235,"noteNumber":59,"velocity":90,"programNumber":42},{"time":334666.3320000026,"duration":74.07400000002235,"noteNumber":62,"velocity":90,"programNumber":42},{"time":334666.3320000026,"duration":74.07400000002235,"noteNumber":59,"velocity":90,"programNumber":42},{"time":334777.44300000265,"duration":74.07400000002235,"noteNumber":62,"velocity":90,"programNumber":42},{"time":334777.44300000265,"duration":74.07400000002235,"noteNumber":59,"velocity":90,"programNumber":42},{"time":334888.5540000027,"duration":74.07400000002235,"noteNumber":62,"velocity":92,"programNumber":42},{"time":334888.5540000027,"duration":74.07400000002235,"noteNumber":59,"velocity":92,"programNumber":42},{"time":334999.6650000027,"duration":74.07400000002235,"noteNumber":62,"velocity":93,"programNumber":42},{"time":334999.6650000027,"duration":74.07400000002235,"noteNumber":59,"velocity":93,"programNumber":42},{"time":335110.77600000275,"duration":74.07400000002235,"noteNumber":62,"velocity":94,"programNumber":42},{"time":335110.77600000275,"duration":74.07400000002235,"noteNumber":59,"velocity":94,"programNumber":42},{"time":335221.8870000028,"duration":74.07400000002235,"noteNumber":62,"velocity":95,"programNumber":42},{"time":335221.8870000028,"duration":74.07400000002235,"noteNumber":59,"velocity":95,"programNumber":42},{"time":335332.9980000028,"duration":74.07400000002235,"noteNumber":62,"velocity":96,"programNumber":42},{"time":335332.9980000028,"duration":74.07400000002235,"noteNumber":59,"velocity":96,"programNumber":42},{"time":335444.10900000285,"duration":74.07400000002235,"noteNumber":62,"velocity":96,"programNumber":42},{"time":335444.10900000285,"duration":74.07400000002235,"noteNumber":59,"velocity":96,"programNumber":42},{"time":335555.2200000029,"duration":74.07400000002235,"noteNumber":62,"velocity":96,"programNumber":42},{"time":335555.2200000029,"duration":74.07400000002235,"noteNumber":59,"velocity":96,"programNumber":42},{"time":335666.3310000029,"duration":74.07400000002235,"noteNumber":62,"velocity":96,"programNumber":42},{"time":335666.3310000029,"duration":74.07400000002235,"noteNumber":59,"velocity":96,"programNumber":42},{"time":335777.44200000295,"duration":74.07400000002235,"noteNumber":62,"velocity":95,"programNumber":42},{"time":335777.44200000295,"duration":74.07400000002235,"noteNumber":59,"velocity":95,"programNumber":42},{"time":335888.553000003,"duration":74.07400000002235,"noteNumber":62,"velocity":94,"programNumber":42},{"time":335888.553000003,"duration":74.07400000002235,"noteNumber":59,"velocity":94,"programNumber":42},{"time":335999.664000003,"duration":74.07400000002235,"noteNumber":62,"velocity":94,"programNumber":42},{"time":335999.664000003,"duration":74.07400000002235,"noteNumber":59,"velocity":94,"programNumber":42},{"time":336110.77500000305,"duration":74.07400000002235,"noteNumber":62,"velocity":93,"programNumber":42},{"time":336110.77500000305,"duration":74.07400000002235,"noteNumber":59,"velocity":93,"programNumber":42},{"time":336221.8860000031,"duration":74.07400000002235,"noteNumber":62,"velocity":93,"programNumber":42},{"time":336221.8860000031,"duration":74.07400000002235,"noteNumber":59,"velocity":93,"programNumber":42},{"time":336332.9970000031,"duration":74.07400000002235,"noteNumber":62,"velocity":93,"programNumber":42},{"time":336332.9970000031,"duration":74.07400000002235,"noteNumber":59,"velocity":93,"programNumber":42},{"time":336444.10800000315,"duration":74.07400000002235,"noteNumber":62,"velocity":92,"programNumber":42},{"time":336444.10800000315,"duration":74.07400000002235,"noteNumber":59,"velocity":92,"programNumber":42},{"time":336555.2190000032,"duration":74.07400000002235,"noteNumber":62,"velocity":91,"programNumber":42},{"time":336555.2190000032,"duration":74.07400000002235,"noteNumber":59,"velocity":91,"programNumber":42},{"time":336666.3300000032,"duration":74.07400000002235,"noteNumber":62,"velocity":90,"programNumber":42},{"time":336666.3300000032,"duration":74.07400000002235,"noteNumber":59,"velocity":90,"programNumber":42},{"time":336777.44100000325,"duration":74.07400000002235,"noteNumber":62,"velocity":90,"programNumber":42},{"time":336777.44100000325,"duration":74.07400000002235,"noteNumber":59,"velocity":90,"programNumber":42},{"time":336888.5520000033,"duration":74.07400000002235,"noteNumber":62,"velocity":90,"programNumber":42},{"time":336888.5520000033,"duration":74.07400000002235,"noteNumber":59,"velocity":90,"programNumber":42},{"time":336999.6630000033,"duration":74.07400000002235,"noteNumber":62,"velocity":90,"programNumber":42},{"time":336999.6630000033,"duration":74.07400000002235,"noteNumber":59,"velocity":90,"programNumber":42},{"time":337110.77400000335,"duration":74.07400000002235,"noteNumber":62,"velocity":90,"programNumber":42},{"time":337110.77400000335,"duration":74.07400000002235,"noteNumber":59,"velocity":90,"programNumber":42},{"time":337221.8850000034,"duration":74.07400000002235,"noteNumber":62,"velocity":90,"programNumber":42},{"time":337221.8850000034,"duration":74.07400000002235,"noteNumber":59,"velocity":90,"programNumber":42},{"time":337332.9960000034,"duration":74.07400000002235,"noteNumber":62,"velocity":91,"programNumber":42},{"time":337332.9960000034,"duration":74.07400000002235,"noteNumber":60,"velocity":91,"programNumber":42},{"time":337444.10700000345,"duration":74.07400000002235,"noteNumber":62,"velocity":94,"programNumber":42},{"time":337444.10700000345,"duration":74.07400000002235,"noteNumber":60,"velocity":94,"programNumber":42},{"time":337555.2180000035,"duration":74.07400000002235,"noteNumber":62,"velocity":95,"programNumber":42},{"time":337555.2180000035,"duration":74.07400000002235,"noteNumber":60,"velocity":95,"programNumber":42},{"time":337666.3290000035,"duration":74.07400000002235,"noteNumber":62,"velocity":98,"programNumber":42},{"time":337666.3290000035,"duration":74.07400000002235,"noteNumber":60,"velocity":98,"programNumber":42},{"time":337777.44000000355,"duration":444.4440000000177,"noteNumber":59,"velocity":98,"programNumber":42},{"time":337777.44000000355,"duration":444.4440000000177,"noteNumber":62,"velocity":98,"programNumber":42},{"time":338666.3280000036,"duration":444.4440000000177,"noteNumber":62,"velocity":103,"programNumber":42},{"time":338666.3280000036,"duration":444.4440000000177,"noteNumber":71,"velocity":103,"programNumber":42},{"time":338666.3280000036,"duration":444.4440000000177,"noteNumber":79,"velocity":103,"programNumber":42},{"time":339562.6234000036,"duration":370.36999999999534,"noteNumber":79,"velocity":103,"programNumber":42},{"time":339562.6234000036,"duration":370.36999999999534,"noteNumber":71,"velocity":103,"programNumber":42},{"time":339562.6234000036,"duration":370.36999999999534,"noteNumber":62,"velocity":103,"programNumber":42},{"time":340007.0674000036,"duration":222.22200000000885,"noteNumber":67,"velocity":103,"programNumber":42},{"time":340007.0674000036,"duration":222.22200000000885,"noteNumber":55,"velocity":103,"programNumber":42},{"time":340340.4004000036,"duration":55.555500000016764,"noteNumber":67,"velocity":103,"programNumber":42},{"time":340340.4004000036,"duration":55.555500000016764,"noteNumber":55,"velocity":103,"programNumber":42},{"time":340451.5114000036,"duration":444.4440000000177,"noteNumber":67,"velocity":103,"programNumber":42},{"time":340451.5114000036,"duration":444.4440000000177,"noteNumber":55,"velocity":103,"programNumber":42}],[{"time":0,"duration":444.444,"noteNumber":67,"velocity":85,"programNumber":44},{"time":666.666,"duration":111.11099999999999,"noteNumber":62,"velocity":85,"programNumber":44},{"time":888.888,"duration":444.4440000000001,"noteNumber":67,"velocity":85,"programNumber":44},{"time":1555.554,"duration":111.1110000000001,"noteNumber":62,"velocity":85,"programNumber":44},{"time":1777.7760000000003,"duration":111.1110000000001,"noteNumber":67,"velocity":85,"programNumber":44},{"time":1999.9980000000005,"duration":111.11099999999988,"noteNumber":62,"velocity":85,"programNumber":44},{"time":2222.2200000000003,"duration":111.11099999999988,"noteNumber":67,"velocity":85,"programNumber":44},{"time":2444.442,"duration":111.11099999999988,"noteNumber":71,"velocity":85,"programNumber":44},{"time":2666.6639999999998,"duration":444.44399999999996,"noteNumber":74,"velocity":85,"programNumber":44},{"time":3555.5519999999997,"duration":444.44399999999996,"noteNumber":72,"velocity":85,"programNumber":44},{"time":4222.218,"duration":111.11099999999988,"noteNumber":69,"velocity":85,"programNumber":44},{"time":4444.44,"duration":444.4440000000004,"noteNumber":72,"velocity":85,"programNumber":44},{"time":5111.106,"duration":111.11099999999988,"noteNumber":69,"velocity":85,"programNumber":44},{"time":5333.3279999999995,"duration":111.11099999999988,"noteNumber":72,"velocity":85,"programNumber":44},{"time":5555.549999999999,"duration":111.11099999999988,"noteNumber":69,"velocity":85,"programNumber":44},{"time":5777.771999999999,"duration":111.11099999999988,"noteNumber":66,"velocity":85,"programNumber":44},{"time":5999.993999999999,"duration":111.11099999999988,"noteNumber":69,"velocity":85,"programNumber":44},{"time":6222.2159999999985,"duration":444.4440000000004,"noteNumber":62,"velocity":85,"programNumber":44},{"time":7111.103999999999,"duration":166.66650000000027,"noteNumber":67,"velocity":85,"programNumber":44},{"time":7333.326,"duration":166.66650000000027,"noteNumber":67,"velocity":85,"programNumber":44},{"time":7555.548000000001,"duration":166.66650000000027,"noteNumber":67,"velocity":85,"programNumber":44},{"time":7777.770000000001,"duration":166.66650000000027,"noteNumber":67,"velocity":85,"programNumber":44},{"time":7999.992000000002,"duration":166.66650000000027,"noteNumber":67,"velocity":85,"programNumber":44},{"time":8222.214000000002,"duration":166.66649999999936,"noteNumber":67,"velocity":85,"programNumber":44},{"time":8444.436000000002,"duration":166.66649999999936,"noteNumber":67,"velocity":85,"programNumber":44},{"time":8666.658000000001,"duration":166.66649999999936,"noteNumber":67,"velocity":85,"programNumber":44},{"time":8888.880000000001,"duration":166.66649999999936,"noteNumber":69,"velocity":85,"programNumber":44},{"time":9111.102,"duration":166.66649999999936,"noteNumber":69,"velocity":85,"programNumber":44},{"time":9333.324,"duration":166.66649999999936,"noteNumber":69,"velocity":85,"programNumber":44},{"time":9555.546,"duration":166.66649999999936,"noteNumber":69,"velocity":85,"programNumber":44},{"time":9777.768,"duration":222.22199999999975,"noteNumber":69,"velocity":85,"programNumber":44},{"time":9999.99,"duration":166.66649999999936,"noteNumber":72,"velocity":85,"programNumber":44},{"time":10222.212,"duration":222.22199999999975,"noteNumber":66,"velocity":85,"programNumber":44},{"time":10444.434,"duration":166.66649999999936,"noteNumber":69,"velocity":85,"programNumber":44},{"time":10666.655999999999,"duration":166.66649999999936,"noteNumber":67,"velocity":85,"programNumber":44},{"time":10888.877999999999,"duration":166.66649999999936,"noteNumber":67,"velocity":85,"programNumber":44},{"time":11111.099999999999,"duration":166.66649999999936,"noteNumber":67,"velocity":85,"programNumber":44},{"time":11333.321999999998,"duration":166.66649999999936,"noteNumber":67,"velocity":85,"programNumber":44},{"time":11555.543999999998,"duration":166.66649999999936,"noteNumber":67,"velocity":85,"programNumber":44},{"time":11777.765999999998,"duration":166.66649999999936,"noteNumber":67,"velocity":85,"programNumber":44},{"time":11999.987999999998,"duration":166.66649999999936,"noteNumber":67,"velocity":85,"programNumber":44},{"time":12222.209999999997,"duration":166.66649999999936,"noteNumber":67,"velocity":85,"programNumber":44},{"time":12444.431999999997,"duration":166.66649999999936,"noteNumber":69,"velocity":85,"programNumber":44},{"time":12666.653999999997,"duration":166.66649999999936,"noteNumber":69,"velocity":85,"programNumber":44},{"time":12888.875999999997,"duration":166.66649999999936,"noteNumber":69,"velocity":85,"programNumber":44},{"time":13111.097999999996,"duration":166.66649999999936,"noteNumber":69,"velocity":85,"programNumber":44},{"time":13333.319999999996,"duration":222.22199999999975,"noteNumber":69,"velocity":85,"programNumber":44},{"time":13555.541999999996,"duration":166.66649999999936,"noteNumber":72,"velocity":85,"programNumber":44},{"time":13777.763999999996,"duration":222.22199999999975,"noteNumber":66,"velocity":85,"programNumber":44},{"time":13999.985999999995,"duration":166.66649999999936,"noteNumber":69,"velocity":85,"programNumber":44},{"time":14222.207999999995,"duration":74.07400000000052,"noteNumber":62,"velocity":85,"programNumber":44},{"time":14333.318999999996,"duration":74.07400000000052,"noteNumber":62,"velocity":85,"programNumber":44},{"time":14444.429999999997,"duration":74.07400000000052,"noteNumber":62,"velocity":85,"programNumber":44},{"time":14555.540999999997,"duration":74.07400000000052,"noteNumber":62,"velocity":85,"programNumber":44},{"time":14666.651999999998,"duration":74.07400000000052,"noteNumber":62,"velocity":85,"programNumber":44},{"time":14777.762999999999,"duration":74.07400000000052,"noteNumber":62,"velocity":85,"programNumber":44},{"time":14888.874,"duration":74.07400000000052,"noteNumber":62,"velocity":85,"programNumber":44},{"time":14999.985,"duration":74.07400000000052,"noteNumber":62,"velocity":85,"programNumber":44},{"time":15111.096000000001,"duration":74.07400000000052,"noteNumber":62,"velocity":85,"programNumber":44},{"time":15222.207000000002,"duration":74.07400000000052,"noteNumber":62,"velocity":85,"programNumber":44},{"time":15333.318000000003,"duration":74.07400000000052,"noteNumber":62,"velocity":85,"programNumber":44},{"time":15444.429000000004,"duration":74.07400000000052,"noteNumber":62,"velocity":85,"programNumber":44},{"time":15555.540000000005,"duration":74.07400000000052,"noteNumber":62,"velocity":85,"programNumber":44},{"time":15666.651000000005,"duration":74.07400000000052,"noteNumber":62,"velocity":85,"programNumber":44},{"time":15777.762000000006,"duration":74.07400000000052,"noteNumber":62,"velocity":85,"programNumber":44},{"time":15888.873000000007,"duration":74.07400000000052,"noteNumber":62,"velocity":85,"programNumber":44},{"time":15999.984000000008,"duration":74.07400000000052,"noteNumber":62,"velocity":85,"programNumber":44},{"time":16111.095000000008,"duration":74.07400000000052,"noteNumber":62,"velocity":85,"programNumber":44},{"time":16222.20600000001,"duration":74.07400000000052,"noteNumber":62,"velocity":85,"programNumber":44},{"time":16333.31700000001,"duration":74.07400000000052,"noteNumber":62,"velocity":85,"programNumber":44},{"time":16444.42800000001,"duration":74.07400000000052,"noteNumber":62,"velocity":85,"programNumber":44},{"time":16555.53900000001,"duration":74.07400000000052,"noteNumber":62,"velocity":85,"programNumber":44},{"time":16666.650000000012,"duration":74.07400000000052,"noteNumber":62,"velocity":85,"programNumber":44},{"time":16777.761000000013,"duration":74.07400000000052,"noteNumber":62,"velocity":85,"programNumber":44},{"time":16888.872000000014,"duration":444.4439999999995,"noteNumber":62,"velocity":85,"programNumber":44},{"time":19555.536000000015,"duration":888.887999999999,"noteNumber":54,"velocity":47,"programNumber":44},{"time":20444.424000000014,"duration":888.887999999999,"noteNumber":55,"velocity":47,"programNumber":44},{"time":21333.312000000013,"duration":333.3329999999987,"noteNumber":60,"velocity":47,"programNumber":44},{"time":21777.756000000012,"duration":333.3329999999987,"noteNumber":60,"velocity":47,"programNumber":44},{"time":22222.20000000001,"duration":333.3329999999987,"noteNumber":57,"velocity":47,"programNumber":44},{"time":22666.64400000001,"duration":333.3329999999987,"noteNumber":50,"velocity":47,"programNumber":44},{"time":23111.08800000001,"duration":222.22200000000157,"noteNumber":50,"velocity":47,"programNumber":44},{"time":23555.532000000014,"duration":222.22200000000157,"noteNumber":62,"velocity":47,"programNumber":44},{"time":23999.976000000017,"duration":444.4439999999995,"noteNumber":62,"velocity":47,"programNumber":44},{"time":26666.640000000018,"duration":888.887999999999,"noteNumber":66,"velocity":47,"programNumber":44},{"time":27555.528000000017,"duration":888.887999999999,"noteNumber":67,"velocity":47,"programNumber":44},{"time":28444.416000000016,"duration":333.3329999999987,"noteNumber":60,"velocity":47,"programNumber":44},{"time":28888.860000000015,"duration":166.66649999999936,"noteNumber":60,"velocity":47,"programNumber":44},{"time":29111.082000000013,"duration":166.66649999999936,"noteNumber":60,"velocity":47,"programNumber":44},{"time":29333.30400000001,"duration":333.3329999999987,"noteNumber":57,"velocity":47,"programNumber":44},{"time":29777.74800000001,"duration":166.66649999999936,"noteNumber":57,"velocity":47,"programNumber":44},{"time":29999.97000000001,"duration":166.66649999999936,"noteNumber":57,"velocity":47,"programNumber":44},{"time":30222.192000000006,"duration":166.66649999999936,"noteNumber":55,"velocity":92,"programNumber":44},{"time":30444.414000000004,"duration":166.66649999999936,"noteNumber":55,"velocity":71,"programNumber":44},{"time":30666.636000000002,"duration":166.66649999999936,"noteNumber":55,"velocity":71,"programNumber":44},{"time":30888.858,"duration":166.66649999999936,"noteNumber":55,"velocity":71,"programNumber":44},{"time":31111.079999999998,"duration":166.66649999999936,"noteNumber":55,"velocity":55,"programNumber":44},{"time":31333.301999999996,"duration":166.66649999999936,"noteNumber":55,"velocity":50,"programNumber":44},{"time":31555.523999999994,"duration":166.66649999999936,"noteNumber":55,"velocity":50,"programNumber":44},{"time":31777.745999999992,"duration":166.66649999999936,"noteNumber":55,"velocity":50,"programNumber":44},{"time":31999.96799999999,"duration":166.66649999999936,"noteNumber":55,"velocity":91,"programNumber":44},{"time":32222.189999999988,"duration":166.66649999999936,"noteNumber":55,"velocity":65,"programNumber":44},{"time":32444.411999999986,"duration":166.66649999999936,"noteNumber":55,"velocity":65,"programNumber":44},{"time":32666.633999999984,"duration":166.66649999999936,"noteNumber":55,"velocity":65,"programNumber":44},{"time":32888.855999999985,"duration":166.66649999999936,"noteNumber":55,"velocity":46,"programNumber":44},{"time":33111.07799999999,"duration":166.66649999999936,"noteNumber":55,"velocity":46,"programNumber":44},{"time":33333.29999999999,"duration":166.66649999999936,"noteNumber":55,"velocity":46,"programNumber":44},{"time":33555.52199999999,"duration":166.66649999999936,"noteNumber":55,"velocity":46,"programNumber":44},{"time":33777.74399999999,"duration":166.66649999999936,"noteNumber":55,"velocity":59,"programNumber":44},{"time":33999.96599999999,"duration":166.66649999999936,"noteNumber":67,"velocity":41,"programNumber":44},{"time":34222.187999999995,"duration":166.66649999999936,"noteNumber":67,"velocity":46,"programNumber":44},{"time":34444.409999999996,"duration":166.66649999999936,"noteNumber":67,"velocity":49,"programNumber":44},{"time":34666.632,"duration":166.66649999999936,"noteNumber":67,"velocity":53,"programNumber":44},{"time":34888.854,"duration":166.66649999999936,"noteNumber":67,"velocity":56,"programNumber":44},{"time":35111.076,"duration":166.66649999999936,"noteNumber":69,"velocity":61,"programNumber":44},{"time":35333.298,"duration":166.66649999999936,"noteNumber":69,"velocity":64,"programNumber":44},{"time":35555.520000000004,"duration":166.66649999999936,"noteNumber":67,"velocity":68,"programNumber":44},{"time":35777.742000000006,"duration":166.66649999999936,"noteNumber":67,"velocity":71,"programNumber":44},{"time":35999.96400000001,"duration":166.66649999999936,"noteNumber":66,"velocity":76,"programNumber":44},{"time":36222.18600000001,"duration":166.66649999999936,"noteNumber":66,"velocity":79,"programNumber":44},{"time":36444.40800000001,"duration":166.66649999999936,"noteNumber":67,"velocity":82,"programNumber":44},{"time":36666.63000000001,"duration":166.66649999999936,"noteNumber":67,"velocity":82,"programNumber":44},{"time":36888.85200000001,"duration":166.66649999999936,"noteNumber":64,"velocity":82,"programNumber":44},{"time":37111.074000000015,"duration":166.66649999999936,"noteNumber":64,"velocity":82,"programNumber":44},{"time":37333.29600000002,"duration":74.07400000000052,"noteNumber":62,"velocity":85,"programNumber":44},{"time":37333.29600000002,"duration":74.07400000000052,"noteNumber":69,"velocity":85,"programNumber":44},{"time":37444.407000000014,"duration":74.07400000000052,"noteNumber":62,"velocity":85,"programNumber":44},{"time":37444.407000000014,"duration":74.07400000000052,"noteNumber":69,"velocity":85,"programNumber":44},{"time":37555.51800000001,"duration":74.07400000000052,"noteNumber":62,"velocity":85,"programNumber":44},{"time":37555.51800000001,"duration":74.07400000000052,"noteNumber":69,"velocity":85,"programNumber":44},{"time":37666.62900000001,"duration":74.07400000000052,"noteNumber":62,"velocity":85,"programNumber":44},{"time":37666.62900000001,"duration":74.07400000000052,"noteNumber":69,"velocity":85,"programNumber":44},{"time":37777.740000000005,"duration":74.07400000000052,"noteNumber":62,"velocity":85,"programNumber":44},{"time":37777.740000000005,"duration":74.07400000000052,"noteNumber":69,"velocity":85,"programNumber":44},{"time":37888.851,"duration":74.07400000000052,"noteNumber":62,"velocity":85,"programNumber":44},{"time":37888.851,"duration":74.07400000000052,"noteNumber":69,"velocity":85,"programNumber":44},{"time":37999.962,"duration":74.07400000000052,"noteNumber":62,"velocity":85,"programNumber":44},{"time":37999.962,"duration":74.07400000000052,"noteNumber":69,"velocity":85,"programNumber":44},{"time":38111.073,"duration":74.07400000000052,"noteNumber":62,"velocity":85,"programNumber":44},{"time":38111.073,"duration":74.07400000000052,"noteNumber":69,"velocity":85,"programNumber":44},{"time":38222.183999999994,"duration":74.07400000000052,"noteNumber":64,"velocity":85,"programNumber":44},{"time":38222.183999999994,"duration":74.07400000000052,"noteNumber":69,"velocity":85,"programNumber":44},{"time":38333.29499999999,"duration":74.07400000000052,"noteNumber":64,"velocity":85,"programNumber":44},{"time":38333.29499999999,"duration":74.07400000000052,"noteNumber":69,"velocity":85,"programNumber":44},{"time":38444.40599999999,"duration":74.07400000000052,"noteNumber":64,"velocity":85,"programNumber":44},{"time":38444.40599999999,"duration":74.07400000000052,"noteNumber":69,"velocity":85,"programNumber":44},{"time":38555.516999999985,"duration":74.07400000000052,"noteNumber":64,"velocity":85,"programNumber":44},{"time":38555.516999999985,"duration":74.07400000000052,"noteNumber":69,"velocity":85,"programNumber":44},{"time":38666.62799999998,"duration":74.07400000000052,"noteNumber":64,"velocity":85,"programNumber":44},{"time":38666.62799999998,"duration":74.07400000000052,"noteNumber":69,"velocity":85,"programNumber":44},{"time":38777.73899999998,"duration":74.07400000000052,"noteNumber":64,"velocity":85,"programNumber":44},{"time":38777.73899999998,"duration":74.07400000000052,"noteNumber":69,"velocity":85,"programNumber":44},{"time":38888.84999999998,"duration":74.07400000000052,"noteNumber":64,"velocity":85,"programNumber":44},{"time":38888.84999999998,"duration":74.07400000000052,"noteNumber":69,"velocity":85,"programNumber":44},{"time":38999.960999999974,"duration":74.07400000000052,"noteNumber":64,"velocity":85,"programNumber":44},{"time":38999.960999999974,"duration":74.07400000000052,"noteNumber":69,"velocity":85,"programNumber":44},{"time":39111.07199999997,"duration":74.07400000000052,"noteNumber":62,"velocity":85,"programNumber":44},{"time":39111.07199999997,"duration":74.07400000000052,"noteNumber":69,"velocity":85,"programNumber":44},{"time":39222.18299999997,"duration":74.07400000000052,"noteNumber":62,"velocity":85,"programNumber":44},{"time":39222.18299999997,"duration":74.07400000000052,"noteNumber":69,"velocity":85,"programNumber":44},{"time":39333.293999999965,"duration":74.07400000000052,"noteNumber":62,"velocity":85,"programNumber":44},{"time":39333.293999999965,"duration":74.07400000000052,"noteNumber":69,"velocity":85,"programNumber":44},{"time":39444.40499999996,"duration":74.07400000000052,"noteNumber":62,"velocity":85,"programNumber":44},{"time":39444.40499999996,"duration":74.07400000000052,"noteNumber":69,"velocity":85,"programNumber":44},{"time":39555.51599999996,"duration":74.07400000000052,"noteNumber":62,"velocity":85,"programNumber":44},{"time":39555.51599999996,"duration":74.07400000000052,"noteNumber":69,"velocity":85,"programNumber":44},{"time":39666.62699999996,"duration":74.07400000000052,"noteNumber":62,"velocity":85,"programNumber":44},{"time":39666.62699999996,"duration":74.07400000000052,"noteNumber":69,"velocity":85,"programNumber":44},{"time":39777.737999999954,"duration":74.07400000000052,"noteNumber":62,"velocity":85,"programNumber":44},{"time":39777.737999999954,"duration":74.07400000000052,"noteNumber":69,"velocity":85,"programNumber":44},{"time":39888.84899999995,"duration":74.07400000000052,"noteNumber":62,"velocity":85,"programNumber":44},{"time":39888.84899999995,"duration":74.07400000000052,"noteNumber":69,"velocity":85,"programNumber":44},{"time":39999.95999999995,"duration":74.07400000000052,"noteNumber":64,"velocity":85,"programNumber":44},{"time":39999.95999999995,"duration":74.07400000000052,"noteNumber":69,"velocity":85,"programNumber":44},{"time":40111.070999999945,"duration":74.07400000000052,"noteNumber":64,"velocity":85,"programNumber":44},{"time":40111.070999999945,"duration":74.07400000000052,"noteNumber":69,"velocity":85,"programNumber":44},{"time":40222.18199999994,"duration":74.07400000000052,"noteNumber":64,"velocity":85,"programNumber":44},{"time":40222.18199999994,"duration":74.07400000000052,"noteNumber":69,"velocity":85,"programNumber":44},{"time":40333.29299999994,"duration":74.07400000000052,"noteNumber":64,"velocity":85,"programNumber":44},{"time":40333.29299999994,"duration":74.07400000000052,"noteNumber":69,"velocity":85,"programNumber":44},{"time":40444.40399999994,"duration":74.07400000000052,"noteNumber":64,"velocity":85,"programNumber":44},{"time":40444.40399999994,"duration":74.07400000000052,"noteNumber":69,"velocity":85,"programNumber":44},{"time":40555.514999999934,"duration":74.07400000000052,"noteNumber":64,"velocity":85,"programNumber":44},{"time":40555.514999999934,"duration":74.07400000000052,"noteNumber":69,"velocity":85,"programNumber":44},{"time":40666.62599999993,"duration":74.07400000000052,"noteNumber":64,"velocity":85,"programNumber":44},{"time":40666.62599999993,"duration":74.07400000000052,"noteNumber":69,"velocity":85,"programNumber":44},{"time":40777.73699999993,"duration":74.07400000000052,"noteNumber":64,"velocity":85,"programNumber":44},{"time":40777.73699999993,"duration":74.07400000000052,"noteNumber":69,"velocity":85,"programNumber":44},{"time":40888.847999999925,"duration":166.66649999999936,"noteNumber":62,"velocity":85,"programNumber":44},{"time":41111.06999999993,"duration":166.66649999999936,"noteNumber":64,"velocity":85,"programNumber":44},{"time":41333.29199999993,"duration":166.66649999999936,"noteNumber":66,"velocity":85,"programNumber":44},{"time":41555.51399999993,"duration":166.66649999999936,"noteNumber":64,"velocity":85,"programNumber":44},{"time":41777.73599999993,"duration":166.66649999999936,"noteNumber":62,"velocity":85,"programNumber":44},{"time":41999.95799999993,"duration":166.66649999999936,"noteNumber":64,"velocity":85,"programNumber":44},{"time":42222.179999999935,"duration":166.66649999999936,"noteNumber":66,"velocity":85,"programNumber":44},{"time":42444.40199999994,"duration":166.66649999999936,"noteNumber":62,"velocity":85,"programNumber":44},{"time":42666.62399999994,"duration":166.66649999999936,"noteNumber":71,"velocity":85,"programNumber":44},{"time":42888.84599999994,"duration":166.66649999999936,"noteNumber":69,"velocity":85,"programNumber":44},{"time":43111.06799999994,"duration":166.66649999999936,"noteNumber":67,"velocity":85,"programNumber":44},{"time":43333.28999999994,"duration":166.66649999999936,"noteNumber":69,"velocity":85,"programNumber":44},{"time":43555.511999999944,"duration":166.66649999999936,"noteNumber":71,"velocity":85,"programNumber":44},{"time":43777.733999999946,"duration":166.66649999999936,"noteNumber":69,"velocity":85,"programNumber":44},{"time":43999.95599999995,"duration":166.66649999999936,"noteNumber":68,"velocity":85,"programNumber":44},{"time":44222.17799999995,"duration":166.66649999999936,"noteNumber":71,"velocity":85,"programNumber":44},{"time":44444.39999999995,"duration":166.66649999999936,"noteNumber":69,"velocity":85,"programNumber":44},{"time":44666.62199999995,"duration":166.66649999999936,"noteNumber":69,"velocity":85,"programNumber":44},{"time":44888.843999999954,"duration":166.66649999999936,"noteNumber":69,"velocity":85,"programNumber":44},{"time":45111.065999999955,"duration":166.66649999999936,"noteNumber":69,"velocity":85,"programNumber":44},{"time":45333.28799999996,"duration":166.66649999999936,"noteNumber":69,"velocity":85,"programNumber":44},{"time":45555.50999999996,"duration":166.66649999999936,"noteNumber":69,"velocity":85,"programNumber":44},{"time":45777.73199999996,"duration":166.66649999999936,"noteNumber":69,"velocity":85,"programNumber":44},{"time":45999.95399999996,"duration":166.66649999999936,"noteNumber":69,"velocity":85,"programNumber":44},{"time":46222.17599999996,"duration":166.66649999999936,"noteNumber":69,"velocity":85,"programNumber":44},{"time":46444.397999999965,"duration":166.66649999999936,"noteNumber":57,"velocity":85,"programNumber":44},{"time":46666.619999999966,"duration":166.66649999999936,"noteNumber":57,"velocity":85,"programNumber":44},{"time":46888.84199999997,"duration":166.66649999999936,"noteNumber":57,"velocity":85,"programNumber":44},{"time":47111.06399999997,"duration":444.44400000000314,"noteNumber":57,"velocity":85,"programNumber":44},{"time":49333.28399999997,"duration":222.22200000000157,"noteNumber":66,"velocity":55,"programNumber":44},{"time":49777.727999999974,"duration":222.22200000000157,"noteNumber":59,"velocity":55,"programNumber":44},{"time":50222.17199999998,"duration":222.22200000000157,"noteNumber":67,"velocity":55,"programNumber":44},{"time":50666.61599999998,"duration":222.22200000000157,"noteNumber":64,"velocity":55,"programNumber":44},{"time":51111.05999999998,"duration":222.22200000000157,"noteNumber":61,"velocity":55,"programNumber":44},{"time":51999.94799999998,"duration":444.44400000000314,"noteNumber":64,"velocity":55,"programNumber":44},{"time":52444.391999999985,"duration":222.22200000000157,"noteNumber":62,"velocity":55,"programNumber":44},{"time":52888.83599999999,"duration":222.22200000000157,"noteNumber":64,"velocity":55,"programNumber":44},{"time":53333.27999999999,"duration":888.887999999999,"noteNumber":62,"velocity":55,"programNumber":44},{"time":54222.16799999999,"duration":444.44400000000314,"noteNumber":61,"velocity":55,"programNumber":44},{"time":55555.49999999999,"duration":444.44400000000314,"noteNumber":61,"velocity":55,"programNumber":44},{"time":55999.943999999996,"duration":222.22200000000157,"noteNumber":62,"velocity":55,"programNumber":44},{"time":56444.388,"duration":222.22200000000157,"noteNumber":66,"velocity":55,"programNumber":44},{"time":56888.832,"duration":222.22200000000157,"noteNumber":59,"velocity":55,"programNumber":44},{"time":57333.276000000005,"duration":222.22200000000157,"noteNumber":55,"velocity":55,"programNumber":44},{"time":57777.72000000001,"duration":444.44400000000314,"noteNumber":52,"velocity":55,"programNumber":44},{"time":58444.38600000001,"duration":166.66649999999936,"noteNumber":64,"velocity":55,"programNumber":44},{"time":58666.608000000015,"duration":222.22200000000157,"noteNumber":64,"velocity":55,"programNumber":44},{"time":58888.830000000016,"duration":222.22200000000157,"noteNumber":62,"velocity":55,"programNumber":44},{"time":60444.38400000002,"duration":166.66649999999936,"noteNumber":62,"velocity":55,"programNumber":44},{"time":60666.60600000002,"duration":166.66649999999936,"noteNumber":62,"velocity":55,"programNumber":44},{"time":60888.82800000002,"duration":166.66649999999936,"noteNumber":64,"velocity":55,"programNumber":44},{"time":61111.050000000025,"duration":166.66649999999936,"noteNumber":64,"velocity":55,"programNumber":44},{"time":61333.272000000026,"duration":166.66649999999936,"noteNumber":66,"velocity":55,"programNumber":44},{"time":61555.49400000003,"duration":166.66649999999936,"noteNumber":66,"velocity":55,"programNumber":44},{"time":61777.71600000003,"duration":166.66649999999936,"noteNumber":62,"velocity":55,"programNumber":44},{"time":61999.93800000003,"duration":166.66649999999936,"noteNumber":62,"velocity":55,"programNumber":44},{"time":62222.16000000003,"duration":166.66649999999936,"noteNumber":61,"velocity":55,"programNumber":44},{"time":62444.382000000034,"duration":166.66649999999936,"noteNumber":61,"velocity":55,"programNumber":44},{"time":62666.604000000036,"duration":166.66649999999936,"noteNumber":62,"velocity":55,"programNumber":44},{"time":62888.82600000004,"duration":166.66649999999936,"noteNumber":62,"velocity":55,"programNumber":44},{"time":63111.04800000004,"duration":166.66649999999936,"noteNumber":64,"velocity":55,"programNumber":44},{"time":63333.27000000004,"duration":166.66649999999936,"noteNumber":64,"velocity":55,"programNumber":44},{"time":63555.49200000004,"duration":166.66649999999936,"noteNumber":61,"velocity":55,"programNumber":44},{"time":63777.71400000004,"duration":166.66649999999936,"noteNumber":61,"velocity":55,"programNumber":44},{"time":63999.936000000045,"duration":166.66649999999936,"noteNumber":62,"velocity":55,"programNumber":44},{"time":64222.15800000005,"duration":166.66649999999936,"noteNumber":62,"velocity":55,"programNumber":44},{"time":64444.38000000005,"duration":166.66649999999936,"noteNumber":64,"velocity":55,"programNumber":44},{"time":64666.60200000005,"duration":166.66649999999936,"noteNumber":64,"velocity":55,"programNumber":44},{"time":64888.82400000005,"duration":166.66649999999936,"noteNumber":66,"velocity":55,"programNumber":44},{"time":65111.04600000005,"duration":166.66649999999936,"noteNumber":66,"velocity":55,"programNumber":44},{"time":65333.268000000055,"duration":166.66649999999936,"noteNumber":62,"velocity":55,"programNumber":44},{"time":65555.49000000005,"duration":166.66650000000664,"noteNumber":62,"velocity":55,"programNumber":44},{"time":65777.71200000006,"duration":166.66650000000664,"noteNumber":61,"velocity":55,"programNumber":44},{"time":65999.93400000007,"duration":166.66650000000664,"noteNumber":61,"velocity":55,"programNumber":44},{"time":66222.15600000008,"duration":166.66650000000664,"noteNumber":62,"velocity":55,"programNumber":44},{"time":66444.37800000008,"duration":166.66650000000664,"noteNumber":62,"velocity":55,"programNumber":44},{"time":66666.6000000001,"duration":166.66650000000664,"noteNumber":64,"velocity":55,"programNumber":44},{"time":66888.8220000001,"duration":166.66650000000664,"noteNumber":64,"velocity":55,"programNumber":44},{"time":67111.04400000011,"duration":166.66650000000664,"noteNumber":61,"velocity":55,"programNumber":44},{"time":67333.26600000012,"duration":166.66650000000664,"noteNumber":61,"velocity":55,"programNumber":44},{"time":67555.48800000013,"duration":166.66650000000664,"noteNumber":62,"velocity":55,"programNumber":44},{"time":67777.71000000014,"duration":166.66650000000664,"noteNumber":62,"velocity":55,"programNumber":44},{"time":67999.93200000015,"duration":166.66650000000664,"noteNumber":66,"velocity":55,"programNumber":44},{"time":68222.15400000016,"duration":166.66650000000664,"noteNumber":64,"velocity":55,"programNumber":44},{"time":68444.37600000016,"duration":166.66650000000664,"noteNumber":63,"velocity":55,"programNumber":44},{"time":68666.59800000017,"duration":166.66650000000664,"noteNumber":59,"velocity":55,"programNumber":44},{"time":68888.82000000018,"duration":166.66650000000664,"noteNumber":61,"velocity":55,"programNumber":44},{"time":69111.04200000019,"duration":166.66650000000664,"noteNumber":62,"velocity":55,"programNumber":44},{"time":69333.2640000002,"duration":166.66650000000664,"noteNumber":64,"velocity":85,"programNumber":44},{"time":69555.48600000021,"duration":166.66650000000664,"noteNumber":67,"velocity":85,"programNumber":44},{"time":69777.70800000022,"duration":166.66650000000664,"noteNumber":64,"velocity":85,"programNumber":44},{"time":69999.93000000023,"duration":166.66650000000664,"noteNumber":62,"velocity":85,"programNumber":44},{"time":70222.15200000023,"duration":166.66650000000664,"noteNumber":61,"velocity":85,"programNumber":44},{"time":70444.37400000024,"duration":166.66650000000664,"noteNumber":57,"velocity":55,"programNumber":44},{"time":70666.59600000025,"duration":166.66650000000664,"noteNumber":59,"velocity":85,"programNumber":44},{"time":70888.81800000026,"duration":166.66650000000664,"noteNumber":61,"velocity":85,"programNumber":44},{"time":71111.04000000027,"duration":166.66650000000664,"noteNumber":62,"velocity":85,"programNumber":44},{"time":71333.26200000028,"duration":166.66650000000664,"noteNumber":74,"velocity":85,"programNumber":44},{"time":71555.48400000029,"duration":166.66650000000664,"noteNumber":74,"velocity":85,"programNumber":44},{"time":71777.7060000003,"duration":166.66650000000664,"noteNumber":74,"velocity":85,"programNumber":44},{"time":71999.9280000003,"duration":166.66650000000664,"noteNumber":74,"velocity":85,"programNumber":44},{"time":72222.15000000031,"duration":166.66650000000664,"noteNumber":74,"velocity":85,"programNumber":44},{"time":72444.37200000032,"duration":166.66650000000664,"noteNumber":74,"velocity":85,"programNumber":44},{"time":72666.59400000033,"duration":166.66650000000664,"noteNumber":74,"velocity":85,"programNumber":44},{"time":72888.81600000034,"duration":222.2219999999943,"noteNumber":74,"velocity":85,"programNumber":44},{"time":73111.03800000034,"duration":166.66650000000664,"noteNumber":69,"velocity":85,"programNumber":44},{"time":73333.26000000034,"duration":111.11100000000442,"noteNumber":69,"velocity":85,"programNumber":44},{"time":73555.48200000035,"duration":111.11100000000442,"noteNumber":69,"velocity":85,"programNumber":44},{"time":73777.70400000036,"duration":166.66650000000664,"noteNumber":69,"velocity":85,"programNumber":44},{"time":73999.92600000037,"duration":166.66650000000664,"noteNumber":69,"velocity":85,"programNumber":44},{"time":74222.14800000038,"duration":166.66650000000664,"noteNumber":69,"velocity":85,"programNumber":44},{"time":74444.37000000039,"duration":166.66650000000664,"noteNumber":67,"velocity":85,"programNumber":44},{"time":74666.5920000004,"duration":166.66650000000664,"noteNumber":62,"velocity":85,"programNumber":44},{"time":74888.8140000004,"duration":166.66650000000664,"noteNumber":62,"velocity":53,"programNumber":44},{"time":75111.03600000041,"duration":166.66650000000664,"noteNumber":64,"velocity":53,"programNumber":44},{"time":75333.25800000042,"duration":166.66650000000664,"noteNumber":64,"velocity":53,"programNumber":44},{"time":75555.48000000043,"duration":166.66650000000664,"noteNumber":66,"velocity":53,"programNumber":44},{"time":75777.70200000044,"duration":166.66650000000664,"noteNumber":66,"velocity":53,"programNumber":44},{"time":75999.92400000045,"duration":166.66650000000664,"noteNumber":62,"velocity":53,"programNumber":44},{"time":76222.14600000046,"duration":166.66650000000664,"noteNumber":62,"velocity":53,"programNumber":44},{"time":76444.36800000047,"duration":166.66650000000664,"noteNumber":61,"velocity":55,"programNumber":44},{"time":76666.59000000048,"duration":166.66650000000664,"noteNumber":61,"velocity":55,"programNumber":44},{"time":76888.81200000049,"duration":166.66650000000664,"noteNumber":62,"velocity":55,"programNumber":44},{"time":77111.0340000005,"duration":166.66650000000664,"noteNumber":62,"velocity":55,"programNumber":44},{"time":77333.2560000005,"duration":166.66650000000664,"noteNumber":64,"velocity":55,"programNumber":44},{"time":77555.47800000051,"duration":166.66650000000664,"noteNumber":64,"velocity":55,"programNumber":44},{"time":77777.70000000052,"duration":166.66650000000664,"noteNumber":61,"velocity":55,"programNumber":44},{"time":77999.92200000053,"duration":166.66650000000664,"noteNumber":61,"velocity":55,"programNumber":44},{"time":78222.14400000054,"duration":166.66650000000664,"noteNumber":62,"velocity":55,"programNumber":44},{"time":78444.36600000055,"duration":166.66650000000664,"noteNumber":62,"velocity":55,"programNumber":44},{"time":78666.58800000056,"duration":166.66650000000664,"noteNumber":64,"velocity":55,"programNumber":44},{"time":78888.81000000057,"duration":166.66650000000664,"noteNumber":64,"velocity":55,"programNumber":44},{"time":79111.03200000057,"duration":166.66650000000664,"noteNumber":66,"velocity":55,"programNumber":44},{"time":79333.25400000058,"duration":166.66650000000664,"noteNumber":66,"velocity":55,"programNumber":44},{"time":79555.47600000059,"duration":166.66650000000664,"noteNumber":62,"velocity":55,"programNumber":44},{"time":79777.6980000006,"duration":166.66650000000664,"noteNumber":62,"velocity":55,"programNumber":44},{"time":79999.92000000061,"duration":166.66650000000664,"noteNumber":61,"velocity":55,"programNumber":44},{"time":80222.14200000062,"duration":166.66650000000664,"noteNumber":61,"velocity":55,"programNumber":44},{"time":80444.36400000063,"duration":166.66650000000664,"noteNumber":62,"velocity":55,"programNumber":44},{"time":80666.58600000064,"duration":166.66650000000664,"noteNumber":62,"velocity":55,"programNumber":44},{"time":80888.80800000064,"duration":166.66650000000664,"noteNumber":64,"velocity":55,"programNumber":44},{"time":81111.03000000065,"duration":166.66650000000664,"noteNumber":64,"velocity":55,"programNumber":44},{"time":81333.25200000066,"duration":166.66650000000664,"noteNumber":61,"velocity":55,"programNumber":44},{"time":81555.47400000067,"duration":166.66650000000664,"noteNumber":61,"velocity":55,"programNumber":44},{"time":81777.69600000068,"duration":166.66650000000664,"noteNumber":62,"velocity":55,"programNumber":44},{"time":81999.91800000069,"duration":166.66650000000664,"noteNumber":62,"velocity":85,"programNumber":44},{"time":82222.1400000007,"duration":166.66650000000664,"noteNumber":66,"velocity":85,"programNumber":44},{"time":82444.3620000007,"duration":166.66650000000664,"noteNumber":64,"velocity":85,"programNumber":44},{"time":82666.58400000072,"duration":166.66650000000664,"noteNumber":63,"velocity":85,"programNumber":44},{"time":82888.80600000072,"duration":166.66650000000664,"noteNumber":59,"velocity":85,"programNumber":44},{"time":83111.02800000073,"duration":166.66650000000664,"noteNumber":61,"velocity":85,"programNumber":44},{"time":83333.25000000074,"duration":166.66650000000664,"noteNumber":62,"velocity":85,"programNumber":44},{"time":83555.47200000075,"duration":166.66650000000664,"noteNumber":64,"velocity":85,"programNumber":44},{"time":83777.69400000076,"duration":166.66650000000664,"noteNumber":67,"velocity":85,"programNumber":44},{"time":83999.91600000077,"duration":166.66650000000664,"noteNumber":64,"velocity":85,"programNumber":44},{"time":84222.13800000078,"duration":166.66650000000664,"noteNumber":62,"velocity":85,"programNumber":44},{"time":84444.36000000079,"duration":166.66650000000664,"noteNumber":61,"velocity":85,"programNumber":44},{"time":84666.5820000008,"duration":166.66650000000664,"noteNumber":57,"velocity":85,"programNumber":44},{"time":84888.8040000008,"duration":166.66650000000664,"noteNumber":59,"velocity":85,"programNumber":44},{"time":85111.02600000081,"duration":166.66650000000664,"noteNumber":61,"velocity":85,"programNumber":44},{"time":85333.24800000082,"duration":166.66650000000664,"noteNumber":62,"velocity":85,"programNumber":44},{"time":85555.47000000083,"duration":166.66650000000664,"noteNumber":74,"velocity":85,"programNumber":44},{"time":85777.69200000084,"duration":166.66650000000664,"noteNumber":74,"velocity":85,"programNumber":44},{"time":85999.91400000085,"duration":166.66650000000664,"noteNumber":74,"velocity":85,"programNumber":44},{"time":86222.13600000086,"duration":166.66650000000664,"noteNumber":74,"velocity":85,"programNumber":44},{"time":86444.35800000087,"duration":166.66650000000664,"noteNumber":74,"velocity":85,"programNumber":44},{"time":86666.58000000087,"duration":166.66650000000664,"noteNumber":74,"velocity":85,"programNumber":44},{"time":86888.80200000088,"duration":166.66650000000664,"noteNumber":74,"velocity":85,"programNumber":44},{"time":87111.02400000089,"duration":222.2219999999943,"noteNumber":74,"velocity":85,"programNumber":44},{"time":87333.24600000089,"duration":166.66650000000664,"noteNumber":69,"velocity":85,"programNumber":44},{"time":87555.4680000009,"duration":111.11100000000442,"noteNumber":69,"velocity":85,"programNumber":44},{"time":87777.6900000009,"duration":111.11100000000442,"noteNumber":69,"velocity":85,"programNumber":44},{"time":87999.91200000091,"duration":166.66650000000664,"noteNumber":69,"velocity":85,"programNumber":44},{"time":88222.13400000092,"duration":166.66650000000664,"noteNumber":69,"velocity":85,"programNumber":44},{"time":88444.35600000093,"duration":166.66650000000664,"noteNumber":69,"velocity":85,"programNumber":44},{"time":88666.57800000094,"duration":166.66650000000664,"noteNumber":67,"velocity":85,"programNumber":44},{"time":88888.80000000095,"duration":166.66650000000664,"noteNumber":66,"velocity":85,"programNumber":44},{"time":89111.02200000096,"duration":166.66650000000664,"noteNumber":57,"velocity":85,"programNumber":44},{"time":89333.24400000097,"duration":166.66650000000664,"noteNumber":59,"velocity":85,"programNumber":44},{"time":89555.46600000098,"duration":166.66650000000664,"noteNumber":61,"velocity":85,"programNumber":44},{"time":89777.68800000098,"duration":166.66650000000664,"noteNumber":62,"velocity":85,"programNumber":44},{"time":89999.910000001,"duration":166.66650000000664,"noteNumber":62,"velocity":85,"programNumber":44},{"time":90222.132000001,"duration":166.66650000000664,"noteNumber":64,"velocity":85,"programNumber":44},{"time":90444.35400000101,"duration":166.66650000000664,"noteNumber":64,"velocity":85,"programNumber":44},{"time":90666.57600000102,"duration":166.66650000000664,"noteNumber":66,"velocity":85,"programNumber":44},{"time":90888.79800000103,"duration":166.66650000000664,"noteNumber":61,"velocity":85,"programNumber":44},{"time":91111.02000000104,"duration":166.66650000000664,"noteNumber":62,"velocity":85,"programNumber":44},{"time":91333.24200000105,"duration":166.66650000000664,"noteNumber":64,"velocity":85,"programNumber":44},{"time":91555.46400000105,"duration":166.66650000000664,"noteNumber":66,"velocity":85,"programNumber":44},{"time":91777.68600000106,"duration":166.66650000000664,"noteNumber":66,"velocity":85,"programNumber":44},{"time":91999.90800000107,"duration":166.66650000000664,"noteNumber":67,"velocity":85,"programNumber":44},{"time":92222.13000000108,"duration":166.66650000000664,"noteNumber":67,"velocity":85,"programNumber":44},{"time":92444.35200000109,"duration":166.66650000000664,"noteNumber":69,"velocity":85,"programNumber":44},{"time":92666.5740000011,"duration":166.66650000000664,"noteNumber":69,"velocity":85,"programNumber":44},{"time":92888.79600000111,"duration":166.66650000000664,"noteNumber":70,"velocity":85,"programNumber":44},{"time":93111.01800000112,"duration":166.66650000000664,"noteNumber":70,"velocity":85,"programNumber":44},{"time":93333.24000000113,"duration":444.44400000000314,"noteNumber":71,"velocity":85,"programNumber":44},{"time":94222.12800000113,"duration":1333.3319999999949,"noteNumber":64,"velocity":55,"programNumber":44},{"time":95555.46000000113,"duration":222.2219999999943,"noteNumber":62,"velocity":55,"programNumber":44},{"time":95777.68200000112,"duration":222.2219999999943,"noteNumber":61,"velocity":55,"programNumber":44},{"time":95999.90400000112,"duration":222.2219999999943,"noteNumber":62,"velocity":55,"programNumber":44},{"time":96444.3480000011,"duration":222.2219999999943,"noteNumber":62,"velocity":55,"programNumber":44},{"time":96888.79200000109,"duration":222.2219999999943,"noteNumber":62,"velocity":55,"programNumber":44},{"time":97777.68000000108,"duration":444.44400000000314,"noteNumber":67,"velocity":85,"programNumber":44},{"time":98444.34600000108,"duration":111.11100000000442,"noteNumber":62,"velocity":85,"programNumber":44},{"time":98666.56800000109,"duration":444.44400000000314,"noteNumber":67,"velocity":85,"programNumber":44},{"time":99333.23400000109,"duration":111.11100000000442,"noteNumber":62,"velocity":85,"programNumber":44},{"time":99555.4560000011,"duration":111.11100000000442,"noteNumber":67,"velocity":85,"programNumber":44},{"time":99777.6780000011,"duration":111.11100000000442,"noteNumber":62,"velocity":85,"programNumber":44},{"time":99999.90000000111,"duration":111.11100000000442,"noteNumber":67,"velocity":85,"programNumber":44},{"time":100222.12200000112,"duration":111.11100000000442,"noteNumber":71,"velocity":85,"programNumber":44},{"time":100444.34400000113,"duration":444.44400000000314,"noteNumber":74,"velocity":85,"programNumber":44},{"time":101333.23200000114,"duration":444.44400000000314,"noteNumber":72,"velocity":85,"programNumber":44},{"time":101999.89800000114,"duration":111.11100000000442,"noteNumber":69,"velocity":85,"programNumber":44},{"time":102222.12000000114,"duration":444.44400000000314,"noteNumber":72,"velocity":85,"programNumber":44},{"time":102888.78600000114,"duration":111.11100000000442,"noteNumber":69,"velocity":85,"programNumber":44},{"time":103111.00800000115,"duration":111.11100000000442,"noteNumber":72,"velocity":85,"programNumber":44},{"time":103333.23000000116,"duration":111.11100000000442,"noteNumber":69,"velocity":85,"programNumber":44},{"time":103555.45200000117,"duration":111.11100000000442,"noteNumber":66,"velocity":85,"programNumber":44},{"time":103777.67400000118,"duration":111.11100000000442,"noteNumber":69,"velocity":85,"programNumber":44},{"time":103999.89600000119,"duration":444.44400000000314,"noteNumber":62,"velocity":85,"programNumber":44},{"time":104888.7840000012,"duration":166.66650000000664,"noteNumber":67,"velocity":85,"programNumber":44},{"time":105111.0060000012,"duration":166.66650000000664,"noteNumber":67,"velocity":85,"programNumber":44},{"time":105333.22800000121,"duration":166.66650000000664,"noteNumber":67,"velocity":85,"programNumber":44},{"time":105555.45000000122,"duration":166.66650000000664,"noteNumber":67,"velocity":85,"programNumber":44},{"time":105777.67200000123,"duration":166.66650000000664,"noteNumber":67,"velocity":85,"programNumber":44},{"time":105999.89400000124,"duration":166.66650000000664,"noteNumber":67,"velocity":85,"programNumber":44},{"time":106222.11600000125,"duration":166.66650000000664,"noteNumber":67,"velocity":85,"programNumber":44},{"time":106444.33800000125,"duration":166.66650000000664,"noteNumber":67,"velocity":85,"programNumber":44},{"time":106666.56000000126,"duration":166.66650000000664,"noteNumber":69,"velocity":85,"programNumber":44},{"time":106888.78200000127,"duration":166.66650000000664,"noteNumber":69,"velocity":85,"programNumber":44},{"time":107111.00400000128,"duration":166.66650000000664,"noteNumber":69,"velocity":85,"programNumber":44},{"time":107333.22600000129,"duration":166.66650000000664,"noteNumber":69,"velocity":85,"programNumber":44},{"time":107555.4480000013,"duration":222.2219999999943,"noteNumber":69,"velocity":85,"programNumber":44},{"time":107777.6700000013,"duration":166.66650000000664,"noteNumber":72,"velocity":85,"programNumber":44},{"time":107999.8920000013,"duration":222.2219999999943,"noteNumber":66,"velocity":85,"programNumber":44},{"time":108222.1140000013,"duration":166.66650000000664,"noteNumber":69,"velocity":85,"programNumber":44},{"time":108444.3360000013,"duration":166.66650000000664,"noteNumber":67,"velocity":85,"programNumber":44},{"time":108666.55800000131,"duration":166.66650000000664,"noteNumber":67,"velocity":85,"programNumber":44},{"time":108888.78000000132,"duration":166.66650000000664,"noteNumber":67,"velocity":85,"programNumber":44},{"time":109111.00200000133,"duration":166.66650000000664,"noteNumber":67,"velocity":85,"programNumber":44},{"time":109333.22400000134,"duration":166.66650000000664,"noteNumber":67,"velocity":85,"programNumber":44},{"time":109555.44600000135,"duration":166.66650000000664,"noteNumber":67,"velocity":85,"programNumber":44},{"time":109777.66800000136,"duration":166.66650000000664,"noteNumber":67,"velocity":85,"programNumber":44},{"time":109999.89000000137,"duration":166.66650000000664,"noteNumber":67,"velocity":85,"programNumber":44},{"time":110222.11200000138,"duration":166.66650000000664,"noteNumber":69,"velocity":85,"programNumber":44},{"time":110444.33400000138,"duration":166.66650000000664,"noteNumber":69,"velocity":85,"programNumber":44},{"time":110666.5560000014,"duration":166.66650000000664,"noteNumber":69,"velocity":85,"programNumber":44},{"time":110888.7780000014,"duration":166.66650000000664,"noteNumber":69,"velocity":85,"programNumber":44},{"time":111111.00000000141,"duration":222.2219999999943,"noteNumber":69,"velocity":85,"programNumber":44},{"time":111333.2220000014,"duration":166.66650000000664,"noteNumber":72,"velocity":85,"programNumber":44},{"time":111555.44400000141,"duration":222.2219999999943,"noteNumber":66,"velocity":85,"programNumber":44},{"time":111777.66600000141,"duration":166.66650000000664,"noteNumber":69,"velocity":85,"programNumber":44},{"time":111999.88800000142,"duration":74.07399999999325,"noteNumber":62,"velocity":85,"programNumber":44},{"time":112110.99900000141,"duration":74.07399999999325,"noteNumber":62,"velocity":85,"programNumber":44},{"time":112222.1100000014,"duration":74.07399999999325,"noteNumber":62,"velocity":85,"programNumber":44},{"time":112333.22100000139,"duration":74.07399999999325,"noteNumber":62,"velocity":85,"programNumber":44},{"time":112444.33200000138,"duration":74.07399999999325,"noteNumber":62,"velocity":85,"programNumber":44},{"time":112555.44300000137,"duration":74.07399999999325,"noteNumber":62,"velocity":85,"programNumber":44},{"time":112666.55400000136,"duration":74.07399999999325,"noteNumber":62,"velocity":85,"programNumber":44},{"time":112777.66500000135,"duration":74.07399999999325,"noteNumber":62,"velocity":85,"programNumber":44},{"time":112888.77600000134,"duration":74.07399999999325,"noteNumber":62,"velocity":85,"programNumber":44},{"time":112999.88700000133,"duration":74.07399999999325,"noteNumber":62,"velocity":85,"programNumber":44},{"time":113110.99800000132,"duration":74.07399999999325,"noteNumber":62,"velocity":85,"programNumber":44},{"time":113222.1090000013,"duration":74.07399999999325,"noteNumber":62,"velocity":85,"programNumber":44},{"time":113333.2200000013,"duration":74.07399999999325,"noteNumber":62,"velocity":85,"programNumber":44},{"time":113444.33100000129,"duration":74.07399999999325,"noteNumber":62,"velocity":85,"programNumber":44},{"time":113555.44200000128,"duration":74.07399999999325,"noteNumber":62,"velocity":85,"programNumber":44},{"time":113666.55300000127,"duration":74.07399999999325,"noteNumber":62,"velocity":85,"programNumber":44},{"time":113777.66400000126,"duration":74.07399999999325,"noteNumber":62,"velocity":85,"programNumber":44},{"time":113888.77500000125,"duration":74.07399999999325,"noteNumber":62,"velocity":85,"programNumber":44},{"time":113999.88600000124,"duration":74.07399999999325,"noteNumber":62,"velocity":85,"programNumber":44},{"time":114110.99700000123,"duration":74.07399999999325,"noteNumber":62,"velocity":85,"programNumber":44},{"time":114222.10800000122,"duration":74.07399999999325,"noteNumber":62,"velocity":85,"programNumber":44},{"time":114333.2190000012,"duration":74.07399999999325,"noteNumber":62,"velocity":85,"programNumber":44},{"time":114444.3300000012,"duration":74.07399999999325,"noteNumber":62,"velocity":85,"programNumber":44},{"time":114555.44100000118,"duration":74.07399999999325,"noteNumber":62,"velocity":85,"programNumber":44},{"time":114666.55200000117,"duration":444.44400000000314,"noteNumber":62,"velocity":85,"programNumber":44},{"time":117333.21600000118,"duration":888.8880000000063,"noteNumber":54,"velocity":47,"programNumber":44},{"time":118222.10400000119,"duration":888.8880000000063,"noteNumber":55,"velocity":47,"programNumber":44},{"time":119110.99200000119,"duration":333.3329999999987,"noteNumber":60,"velocity":47,"programNumber":44},{"time":119555.4360000012,"duration":333.3329999999987,"noteNumber":60,"velocity":47,"programNumber":44},{"time":119999.8800000012,"duration":333.3329999999987,"noteNumber":57,"velocity":47,"programNumber":44},{"time":120444.3240000012,"duration":333.3329999999987,"noteNumber":50,"velocity":47,"programNumber":44},{"time":120888.7680000012,"duration":222.2219999999943,"noteNumber":50,"velocity":47,"programNumber":44},{"time":121333.2120000012,"duration":222.2219999999943,"noteNumber":62,"velocity":47,"programNumber":44},{"time":121777.65600000118,"duration":444.44400000000314,"noteNumber":62,"velocity":47,"programNumber":44},{"time":124444.32000000119,"duration":888.8880000000063,"noteNumber":66,"velocity":47,"programNumber":44},{"time":125333.20800000119,"duration":888.8880000000063,"noteNumber":67,"velocity":47,"programNumber":44},{"time":126222.0960000012,"duration":333.3329999999987,"noteNumber":60,"velocity":47,"programNumber":44},{"time":126666.5400000012,"duration":166.66650000000664,"noteNumber":60,"velocity":47,"programNumber":44},{"time":126888.76200000121,"duration":166.66650000000664,"noteNumber":60,"velocity":47,"programNumber":44},{"time":127110.98400000122,"duration":333.3329999999987,"noteNumber":57,"velocity":47,"programNumber":44},{"time":127555.42800000122,"duration":166.66650000000664,"noteNumber":57,"velocity":47,"programNumber":44},{"time":127777.65000000123,"duration":166.66650000000664,"noteNumber":57,"velocity":47,"programNumber":44},{"time":127999.87200000124,"duration":166.66650000000664,"noteNumber":55,"velocity":92,"programNumber":44},{"time":128222.09400000125,"duration":166.66650000000664,"noteNumber":55,"velocity":71,"programNumber":44},{"time":128444.31600000126,"duration":166.66650000000664,"noteNumber":55,"velocity":71,"programNumber":44},{"time":128666.53800000127,"duration":166.66650000000664,"noteNumber":55,"velocity":71,"programNumber":44},{"time":128888.76000000128,"duration":166.66650000000664,"noteNumber":55,"velocity":55,"programNumber":44},{"time":129110.98200000128,"duration":166.66650000000664,"noteNumber":55,"velocity":50,"programNumber":44},{"time":129333.2040000013,"duration":166.66650000000664,"noteNumber":55,"velocity":50,"programNumber":44},{"time":129555.4260000013,"duration":166.66650000000664,"noteNumber":55,"velocity":50,"programNumber":44},{"time":129777.64800000131,"duration":166.66650000000664,"noteNumber":55,"velocity":91,"programNumber":44},{"time":129999.87000000132,"duration":166.66650000000664,"noteNumber":55,"velocity":65,"programNumber":44},{"time":130222.09200000133,"duration":166.66650000000664,"noteNumber":55,"velocity":65,"programNumber":44},{"time":130444.31400000134,"duration":166.66650000000664,"noteNumber":55,"velocity":65,"programNumber":44},{"time":130666.53600000135,"duration":166.66650000000664,"noteNumber":55,"velocity":46,"programNumber":44},{"time":130888.75800000135,"duration":166.66650000000664,"noteNumber":55,"velocity":46,"programNumber":44},{"time":131110.98000000135,"duration":166.66649999999208,"noteNumber":55,"velocity":46,"programNumber":44},{"time":131333.20200000133,"duration":166.66649999999208,"noteNumber":55,"velocity":46,"programNumber":44},{"time":131555.4240000013,"duration":166.66649999999208,"noteNumber":55,"velocity":59,"programNumber":44},{"time":131777.6460000013,"duration":166.66649999999208,"noteNumber":67,"velocity":41,"programNumber":44},{"time":131999.86800000127,"duration":166.66649999999208,"noteNumber":67,"velocity":46,"programNumber":44},{"time":132222.09000000125,"duration":166.66649999999208,"noteNumber":67,"velocity":49,"programNumber":44},{"time":132444.31200000123,"duration":166.66649999999208,"noteNumber":67,"velocity":53,"programNumber":44},{"time":132666.5340000012,"duration":166.66649999999208,"noteNumber":67,"velocity":56,"programNumber":44},{"time":132888.7560000012,"duration":166.66649999999208,"noteNumber":69,"velocity":61,"programNumber":44},{"time":133110.97800000117,"duration":166.66649999999208,"noteNumber":69,"velocity":64,"programNumber":44},{"time":133333.20000000115,"duration":166.66649999999208,"noteNumber":67,"velocity":68,"programNumber":44},{"time":133555.42200000113,"duration":166.66649999999208,"noteNumber":67,"velocity":71,"programNumber":44},{"time":133777.6440000011,"duration":166.66649999999208,"noteNumber":66,"velocity":76,"programNumber":44},{"time":133999.8660000011,"duration":166.66649999999208,"noteNumber":66,"velocity":79,"programNumber":44},{"time":134222.08800000107,"duration":166.66649999999208,"noteNumber":67,"velocity":82,"programNumber":44},{"time":134444.31000000105,"duration":166.66649999999208,"noteNumber":67,"velocity":82,"programNumber":44},{"time":134666.53200000103,"duration":166.66649999999208,"noteNumber":64,"velocity":82,"programNumber":44},{"time":134888.754000001,"duration":166.66649999999208,"noteNumber":64,"velocity":82,"programNumber":44},{"time":135110.97600000098,"duration":74.07399999999325,"noteNumber":62,"velocity":85,"programNumber":44},{"time":135110.97600000098,"duration":74.07399999999325,"noteNumber":69,"velocity":85,"programNumber":44},{"time":135222.087000001,"duration":74.07399999999325,"noteNumber":62,"velocity":85,"programNumber":44},{"time":135222.087000001,"duration":74.07399999999325,"noteNumber":69,"velocity":85,"programNumber":44},{"time":135333.198000001,"duration":74.07399999999325,"noteNumber":62,"velocity":85,"programNumber":44},{"time":135333.198000001,"duration":74.07399999999325,"noteNumber":69,"velocity":85,"programNumber":44},{"time":135444.309000001,"duration":74.07399999999325,"noteNumber":62,"velocity":85,"programNumber":44},{"time":135444.309000001,"duration":74.07399999999325,"noteNumber":69,"velocity":85,"programNumber":44},{"time":135555.420000001,"duration":74.07399999999325,"noteNumber":62,"velocity":85,"programNumber":44},{"time":135555.420000001,"duration":74.07399999999325,"noteNumber":69,"velocity":85,"programNumber":44},{"time":135666.531000001,"duration":74.07399999999325,"noteNumber":62,"velocity":85,"programNumber":44},{"time":135666.531000001,"duration":74.07399999999325,"noteNumber":69,"velocity":85,"programNumber":44},{"time":135777.642000001,"duration":74.07399999999325,"noteNumber":62,"velocity":85,"programNumber":44},{"time":135777.642000001,"duration":74.07399999999325,"noteNumber":69,"velocity":85,"programNumber":44},{"time":135888.75300000102,"duration":74.07399999999325,"noteNumber":62,"velocity":85,"programNumber":44},{"time":135888.75300000102,"duration":74.07399999999325,"noteNumber":69,"velocity":85,"programNumber":44},{"time":135999.86400000102,"duration":74.07399999999325,"noteNumber":64,"velocity":85,"programNumber":44},{"time":135999.86400000102,"duration":74.07399999999325,"noteNumber":69,"velocity":85,"programNumber":44},{"time":136110.97500000102,"duration":74.07399999999325,"noteNumber":64,"velocity":85,"programNumber":44},{"time":136110.97500000102,"duration":74.07399999999325,"noteNumber":69,"velocity":85,"programNumber":44},{"time":136222.08600000103,"duration":74.07399999999325,"noteNumber":64,"velocity":85,"programNumber":44},{"time":136222.08600000103,"duration":74.07399999999325,"noteNumber":69,"velocity":85,"programNumber":44},{"time":136333.19700000103,"duration":74.07399999999325,"noteNumber":64,"velocity":85,"programNumber":44},{"time":136333.19700000103,"duration":74.07399999999325,"noteNumber":69,"velocity":85,"programNumber":44},{"time":136444.30800000104,"duration":74.07399999999325,"noteNumber":64,"velocity":85,"programNumber":44},{"time":136444.30800000104,"duration":74.07399999999325,"noteNumber":69,"velocity":85,"programNumber":44},{"time":136555.41900000104,"duration":74.07399999999325,"noteNumber":64,"velocity":85,"programNumber":44},{"time":136555.41900000104,"duration":74.07399999999325,"noteNumber":69,"velocity":85,"programNumber":44},{"time":136666.53000000105,"duration":74.07399999999325,"noteNumber":64,"velocity":85,"programNumber":44},{"time":136666.53000000105,"duration":74.07399999999325,"noteNumber":69,"velocity":85,"programNumber":44},{"time":136777.64100000105,"duration":74.07399999999325,"noteNumber":64,"velocity":85,"programNumber":44},{"time":136777.64100000105,"duration":74.07399999999325,"noteNumber":69,"velocity":85,"programNumber":44},{"time":136888.75200000106,"duration":74.07399999999325,"noteNumber":62,"velocity":85,"programNumber":44},{"time":136888.75200000106,"duration":74.07399999999325,"noteNumber":69,"velocity":85,"programNumber":44},{"time":136999.86300000106,"duration":74.07399999999325,"noteNumber":62,"velocity":85,"programNumber":44},{"time":136999.86300000106,"duration":74.07399999999325,"noteNumber":69,"velocity":85,"programNumber":44},{"time":137110.97400000106,"duration":74.07399999999325,"noteNumber":62,"velocity":85,"programNumber":44},{"time":137110.97400000106,"duration":74.07399999999325,"noteNumber":69,"velocity":85,"programNumber":44},{"time":137222.08500000107,"duration":74.07399999999325,"noteNumber":62,"velocity":85,"programNumber":44},{"time":137222.08500000107,"duration":74.07399999999325,"noteNumber":69,"velocity":85,"programNumber":44},{"time":137333.19600000107,"duration":74.07399999999325,"noteNumber":62,"velocity":85,"programNumber":44},{"time":137333.19600000107,"duration":74.07399999999325,"noteNumber":69,"velocity":85,"programNumber":44},{"time":137444.30700000108,"duration":74.07399999999325,"noteNumber":62,"velocity":85,"programNumber":44},{"time":137444.30700000108,"duration":74.07399999999325,"noteNumber":69,"velocity":85,"programNumber":44},{"time":137555.41800000108,"duration":74.07399999999325,"noteNumber":62,"velocity":85,"programNumber":44},{"time":137555.41800000108,"duration":74.07399999999325,"noteNumber":69,"velocity":85,"programNumber":44},{"time":137666.5290000011,"duration":74.07399999999325,"noteNumber":62,"velocity":85,"programNumber":44},{"time":137666.5290000011,"duration":74.07399999999325,"noteNumber":69,"velocity":85,"programNumber":44},{"time":137777.6400000011,"duration":74.07399999999325,"noteNumber":64,"velocity":85,"programNumber":44},{"time":137777.6400000011,"duration":74.07399999999325,"noteNumber":69,"velocity":85,"programNumber":44},{"time":137888.7510000011,"duration":74.07399999999325,"noteNumber":64,"velocity":85,"programNumber":44},{"time":137888.7510000011,"duration":74.07399999999325,"noteNumber":69,"velocity":85,"programNumber":44},{"time":137999.8620000011,"duration":74.07399999999325,"noteNumber":64,"velocity":85,"programNumber":44},{"time":137999.8620000011,"duration":74.07399999999325,"noteNumber":69,"velocity":85,"programNumber":44},{"time":138110.9730000011,"duration":74.07399999999325,"noteNumber":64,"velocity":85,"programNumber":44},{"time":138110.9730000011,"duration":74.07399999999325,"noteNumber":69,"velocity":85,"programNumber":44},{"time":138222.0840000011,"duration":74.07399999999325,"noteNumber":64,"velocity":85,"programNumber":44},{"time":138222.0840000011,"duration":74.07399999999325,"noteNumber":69,"velocity":85,"programNumber":44},{"time":138333.1950000011,"duration":74.07399999999325,"noteNumber":64,"velocity":85,"programNumber":44},{"time":138333.1950000011,"duration":74.07399999999325,"noteNumber":69,"velocity":85,"programNumber":44},{"time":138444.30600000112,"duration":74.07399999999325,"noteNumber":64,"velocity":85,"programNumber":44},{"time":138444.30600000112,"duration":74.07399999999325,"noteNumber":69,"velocity":85,"programNumber":44},{"time":138555.41700000112,"duration":74.07399999999325,"noteNumber":64,"velocity":85,"programNumber":44},{"time":138555.41700000112,"duration":74.07399999999325,"noteNumber":69,"velocity":85,"programNumber":44},{"time":138666.52800000113,"duration":166.66649999999208,"noteNumber":62,"velocity":85,"programNumber":44},{"time":138888.7500000011,"duration":166.66649999999208,"noteNumber":64,"velocity":85,"programNumber":44},{"time":139110.9720000011,"duration":166.66649999999208,"noteNumber":66,"velocity":85,"programNumber":44},{"time":139333.19400000107,"duration":166.66649999999208,"noteNumber":64,"velocity":85,"programNumber":44},{"time":139555.41600000105,"duration":166.66649999999208,"noteNumber":62,"velocity":85,"programNumber":44},{"time":139777.63800000102,"duration":166.66649999999208,"noteNumber":64,"velocity":85,"programNumber":44},{"time":139999.860000001,"duration":166.66649999999208,"noteNumber":66,"velocity":85,"programNumber":44},{"time":140222.08200000098,"duration":166.66649999999208,"noteNumber":62,"velocity":85,"programNumber":44},{"time":140444.30400000096,"duration":166.66649999999208,"noteNumber":71,"velocity":85,"programNumber":44},{"time":140666.52600000094,"duration":166.66649999999208,"noteNumber":69,"velocity":85,"programNumber":44},{"time":140888.74800000092,"duration":166.66649999999208,"noteNumber":67,"velocity":85,"programNumber":44},{"time":141110.9700000009,"duration":166.66649999999208,"noteNumber":69,"velocity":85,"programNumber":44},{"time":141333.19200000088,"duration":166.66649999999208,"noteNumber":71,"velocity":85,"programNumber":44},{"time":141555.41400000086,"duration":166.66649999999208,"noteNumber":69,"velocity":85,"programNumber":44},{"time":141777.63600000084,"duration":166.66649999999208,"noteNumber":68,"velocity":85,"programNumber":44},{"time":141999.85800000082,"duration":166.66649999999208,"noteNumber":71,"velocity":85,"programNumber":44},{"time":142222.0800000008,"duration":166.66649999999208,"noteNumber":69,"velocity":85,"programNumber":44},{"time":142444.30200000078,"duration":166.66649999999208,"noteNumber":69,"velocity":85,"programNumber":44},{"time":142666.52400000076,"duration":166.66649999999208,"noteNumber":69,"velocity":85,"programNumber":44},{"time":142888.74600000074,"duration":166.66649999999208,"noteNumber":69,"velocity":85,"programNumber":44},{"time":143110.96800000072,"duration":166.66649999999208,"noteNumber":69,"velocity":85,"programNumber":44},{"time":143333.1900000007,"duration":166.66649999999208,"noteNumber":69,"velocity":85,"programNumber":44},{"time":143555.41200000068,"duration":166.66649999999208,"noteNumber":69,"velocity":85,"programNumber":44},{"time":143777.63400000066,"duration":166.66649999999208,"noteNumber":69,"velocity":85,"programNumber":44},{"time":143999.85600000064,"duration":166.66649999999208,"noteNumber":69,"velocity":85,"programNumber":44},{"time":144222.07800000062,"duration":166.66649999999208,"noteNumber":57,"velocity":85,"programNumber":44},{"time":144444.3000000006,"duration":166.66649999999208,"noteNumber":57,"velocity":85,"programNumber":44},{"time":144666.52200000058,"duration":166.66649999999208,"noteNumber":57,"velocity":85,"programNumber":44},{"time":144888.74400000056,"duration":444.4439999999886,"noteNumber":57,"velocity":85,"programNumber":44},{"time":147110.96400000056,"duration":222.22200000000885,"noteNumber":66,"velocity":55,"programNumber":44},{"time":147555.40800000058,"duration":222.22200000000885,"noteNumber":59,"velocity":55,"programNumber":44},{"time":147999.8520000006,"duration":222.22200000000885,"noteNumber":67,"velocity":55,"programNumber":44},{"time":148444.2960000006,"duration":222.22200000000885,"noteNumber":64,"velocity":55,"programNumber":44},{"time":148888.74000000063,"duration":222.22200000000885,"noteNumber":61,"velocity":55,"programNumber":44},{"time":149777.62800000064,"duration":444.4439999999886,"noteNumber":64,"velocity":55,"programNumber":44},{"time":150222.07200000063,"duration":222.22200000000885,"noteNumber":62,"velocity":55,"programNumber":44},{"time":150666.51600000064,"duration":222.22200000000885,"noteNumber":64,"velocity":55,"programNumber":44},{"time":151110.96000000066,"duration":888.8880000000063,"noteNumber":62,"velocity":55,"programNumber":44},{"time":151999.84800000067,"duration":444.4439999999886,"noteNumber":61,"velocity":55,"programNumber":44},{"time":153333.18000000066,"duration":444.4439999999886,"noteNumber":61,"velocity":55,"programNumber":44},{"time":153777.62400000065,"duration":222.22200000000885,"noteNumber":62,"velocity":55,"programNumber":44},{"time":154222.06800000067,"duration":222.22200000000885,"noteNumber":66,"velocity":55,"programNumber":44},{"time":154666.5120000007,"duration":222.22200000000885,"noteNumber":59,"velocity":55,"programNumber":44},{"time":155110.9560000007,"duration":222.22200000000885,"noteNumber":55,"velocity":55,"programNumber":44},{"time":155555.40000000072,"duration":444.4439999999886,"noteNumber":52,"velocity":55,"programNumber":44},{"time":156222.06600000072,"duration":166.66649999999208,"noteNumber":64,"velocity":55,"programNumber":44},{"time":156444.2880000007,"duration":222.22200000000885,"noteNumber":64,"velocity":55,"programNumber":44},{"time":156666.5100000007,"duration":222.22200000000885,"noteNumber":62,"velocity":55,"programNumber":44},{"time":158222.0640000007,"duration":166.66649999999208,"noteNumber":62,"velocity":55,"programNumber":44},{"time":158444.2860000007,"duration":166.66649999999208,"noteNumber":62,"velocity":55,"programNumber":44},{"time":158666.50800000067,"duration":166.66649999999208,"noteNumber":64,"velocity":55,"programNumber":44},{"time":158888.73000000065,"duration":166.66649999999208,"noteNumber":64,"velocity":55,"programNumber":44},{"time":159110.95200000063,"duration":166.66649999999208,"noteNumber":66,"velocity":55,"programNumber":44},{"time":159333.1740000006,"duration":166.66649999999208,"noteNumber":66,"velocity":55,"programNumber":44},{"time":159555.3960000006,"duration":166.66649999999208,"noteNumber":62,"velocity":55,"programNumber":44},{"time":159777.61800000057,"duration":166.66649999999208,"noteNumber":62,"velocity":55,"programNumber":44},{"time":159999.84000000055,"duration":166.66649999999208,"noteNumber":61,"velocity":55,"programNumber":44},{"time":160222.06200000053,"duration":166.66649999999208,"noteNumber":61,"velocity":55,"programNumber":44},{"time":160444.2840000005,"duration":166.66649999999208,"noteNumber":62,"velocity":55,"programNumber":44},{"time":160666.5060000005,"duration":166.66649999999208,"noteNumber":62,"velocity":55,"programNumber":44},{"time":160888.72800000047,"duration":166.66649999999208,"noteNumber":64,"velocity":55,"programNumber":44},{"time":161110.95000000045,"duration":166.66649999999208,"noteNumber":64,"velocity":55,"programNumber":44},{"time":161333.17200000043,"duration":166.66649999999208,"noteNumber":61,"velocity":55,"programNumber":44},{"time":161555.3940000004,"duration":166.66649999999208,"noteNumber":61,"velocity":55,"programNumber":44},{"time":161777.6160000004,"duration":166.66649999999208,"noteNumber":62,"velocity":55,"programNumber":44},{"time":161999.83800000037,"duration":166.66649999999208,"noteNumber":62,"velocity":55,"programNumber":44},{"time":162222.06000000035,"duration":166.66649999999208,"noteNumber":64,"velocity":55,"programNumber":44},{"time":162444.28200000033,"duration":166.66649999999208,"noteNumber":64,"velocity":55,"programNumber":44},{"time":162666.5040000003,"duration":166.66649999999208,"noteNumber":66,"velocity":55,"programNumber":44},{"time":162888.7260000003,"duration":166.66649999999208,"noteNumber":66,"velocity":55,"programNumber":44},{"time":163110.94800000027,"duration":166.66649999999208,"noteNumber":62,"velocity":55,"programNumber":44},{"time":163333.17000000025,"duration":166.66649999999208,"noteNumber":62,"velocity":55,"programNumber":44},{"time":163555.39200000023,"duration":166.66649999999208,"noteNumber":61,"velocity":55,"programNumber":44},{"time":163777.6140000002,"duration":166.66649999999208,"noteNumber":61,"velocity":55,"programNumber":44},{"time":163999.83600000018,"duration":166.66649999999208,"noteNumber":62,"velocity":55,"programNumber":44},{"time":164222.05800000016,"duration":166.66649999999208,"noteNumber":62,"velocity":55,"programNumber":44},{"time":164444.28000000014,"duration":166.66649999999208,"noteNumber":64,"velocity":55,"programNumber":44},{"time":164666.50200000012,"duration":166.66649999999208,"noteNumber":64,"velocity":55,"programNumber":44},{"time":164888.7240000001,"duration":166.66649999999208,"noteNumber":61,"velocity":55,"programNumber":44},{"time":165110.94600000008,"duration":166.66649999999208,"noteNumber":61,"velocity":55,"programNumber":44},{"time":165333.16800000006,"duration":166.66649999999208,"noteNumber":62,"velocity":55,"programNumber":44},{"time":165555.39000000004,"duration":166.66649999999208,"noteNumber":62,"velocity":55,"programNumber":44},{"time":165777.61200000002,"duration":166.66649999999208,"noteNumber":66,"velocity":55,"programNumber":44},{"time":165999.834,"duration":166.66649999999208,"noteNumber":64,"velocity":55,"programNumber":44},{"time":166222.05599999998,"duration":166.66649999999208,"noteNumber":63,"velocity":55,"programNumber":44},{"time":166444.27799999996,"duration":166.66649999999208,"noteNumber":59,"velocity":55,"programNumber":44},{"time":166666.49999999994,"duration":166.66649999999208,"noteNumber":61,"velocity":55,"programNumber":44},{"time":166888.72199999992,"duration":166.66649999999208,"noteNumber":62,"velocity":55,"programNumber":44},{"time":167110.9439999999,"duration":166.66649999999208,"noteNumber":64,"velocity":85,"programNumber":44},{"time":167333.16599999988,"duration":166.66649999999208,"noteNumber":67,"velocity":85,"programNumber":44},{"time":167555.38799999986,"duration":166.66649999999208,"noteNumber":64,"velocity":85,"programNumber":44},{"time":167777.60999999984,"duration":166.66649999999208,"noteNumber":62,"velocity":85,"programNumber":44},{"time":167999.83199999982,"duration":166.66649999999208,"noteNumber":61,"velocity":85,"programNumber":44},{"time":168222.0539999998,"duration":166.66649999999208,"noteNumber":57,"velocity":55,"programNumber":44},{"time":168444.27599999978,"duration":166.66649999999208,"noteNumber":59,"velocity":85,"programNumber":44},{"time":168666.49799999976,"duration":166.66649999999208,"noteNumber":61,"velocity":85,"programNumber":44},{"time":168888.71999999974,"duration":166.66649999999208,"noteNumber":62,"velocity":85,"programNumber":44},{"time":169110.94199999972,"duration":166.66649999999208,"noteNumber":74,"velocity":85,"programNumber":44},{"time":169333.1639999997,"duration":166.66649999999208,"noteNumber":74,"velocity":85,"programNumber":44},{"time":169555.38599999968,"duration":166.66649999999208,"noteNumber":74,"velocity":85,"programNumber":44},{"time":169777.60799999966,"duration":166.66649999999208,"noteNumber":74,"velocity":85,"programNumber":44},{"time":169999.82999999964,"duration":166.66649999999208,"noteNumber":74,"velocity":85,"programNumber":44},{"time":170222.05199999962,"duration":166.66649999999208,"noteNumber":74,"velocity":85,"programNumber":44},{"time":170444.2739999996,"duration":166.66649999999208,"noteNumber":74,"velocity":85,"programNumber":44},{"time":170666.49599999958,"duration":222.22200000000885,"noteNumber":74,"velocity":85,"programNumber":44},{"time":170888.7179999996,"duration":166.66649999999208,"noteNumber":69,"velocity":85,"programNumber":44},{"time":171110.93999999957,"duration":111.11100000000442,"noteNumber":69,"velocity":85,"programNumber":44},{"time":171333.16199999957,"duration":111.11100000000442,"noteNumber":69,"velocity":85,"programNumber":44},{"time":171555.38399999958,"duration":166.66649999999208,"noteNumber":69,"velocity":85,"programNumber":44},{"time":171777.60599999956,"duration":166.66649999999208,"noteNumber":69,"velocity":85,"programNumber":44},{"time":171999.82799999954,"duration":166.66649999999208,"noteNumber":69,"velocity":85,"programNumber":44},{"time":172222.04999999952,"duration":166.66649999999208,"noteNumber":67,"velocity":85,"programNumber":44},{"time":172444.2719999995,"duration":166.66649999999208,"noteNumber":62,"velocity":85,"programNumber":44},{"time":172666.49399999948,"duration":166.66649999999208,"noteNumber":62,"velocity":53,"programNumber":44},{"time":172888.71599999946,"duration":166.66649999999208,"noteNumber":64,"velocity":53,"programNumber":44},{"time":173110.93799999944,"duration":166.66649999999208,"noteNumber":64,"velocity":53,"programNumber":44},{"time":173333.15999999942,"duration":166.66649999999208,"noteNumber":66,"velocity":53,"programNumber":44},{"time":173555.3819999994,"duration":166.66649999999208,"noteNumber":66,"velocity":53,"programNumber":44},{"time":173777.60399999938,"duration":166.66649999999208,"noteNumber":62,"velocity":53,"programNumber":44},{"time":173999.82599999936,"duration":166.66649999999208,"noteNumber":62,"velocity":53,"programNumber":44},{"time":174222.04799999934,"duration":166.66649999999208,"noteNumber":61,"velocity":55,"programNumber":44},{"time":174444.26999999932,"duration":166.66649999999208,"noteNumber":61,"velocity":55,"programNumber":44},{"time":174666.4919999993,"duration":166.66649999999208,"noteNumber":62,"velocity":55,"programNumber":44},{"time":174888.71399999928,"duration":166.66649999999208,"noteNumber":62,"velocity":55,"programNumber":44},{"time":175110.93599999926,"duration":166.66649999999208,"noteNumber":64,"velocity":55,"programNumber":44},{"time":175333.15799999924,"duration":166.66649999999208,"noteNumber":64,"velocity":55,"programNumber":44},{"time":175555.37999999922,"duration":166.66649999999208,"noteNumber":61,"velocity":55,"programNumber":44},{"time":175777.6019999992,"duration":166.66649999999208,"noteNumber":61,"velocity":55,"programNumber":44},{"time":175999.82399999918,"duration":166.66649999999208,"noteNumber":62,"velocity":55,"programNumber":44},{"time":176222.04599999916,"duration":166.66649999999208,"noteNumber":62,"velocity":55,"programNumber":44},{"time":176444.26799999914,"duration":166.66649999999208,"noteNumber":64,"velocity":55,"programNumber":44},{"time":176666.48999999912,"duration":166.66649999999208,"noteNumber":64,"velocity":55,"programNumber":44},{"time":176888.7119999991,"duration":166.66649999999208,"noteNumber":66,"velocity":55,"programNumber":44},{"time":177110.93399999908,"duration":166.66649999999208,"noteNumber":66,"velocity":55,"programNumber":44},{"time":177333.15599999906,"duration":166.66649999999208,"noteNumber":62,"velocity":55,"programNumber":44},{"time":177555.37799999904,"duration":166.66649999999208,"noteNumber":62,"velocity":55,"programNumber":44},{"time":177777.59999999902,"duration":166.66649999999208,"noteNumber":61,"velocity":55,"programNumber":44},{"time":177999.821999999,"duration":166.66649999999208,"noteNumber":61,"velocity":55,"programNumber":44},{"time":178222.04399999898,"duration":166.66649999999208,"noteNumber":62,"velocity":55,"programNumber":44},{"time":178444.26599999896,"duration":166.66649999999208,"noteNumber":62,"velocity":55,"programNumber":44},{"time":178666.48799999894,"duration":166.66649999999208,"noteNumber":64,"velocity":55,"programNumber":44},{"time":178888.70999999892,"duration":166.66649999999208,"noteNumber":64,"velocity":55,"programNumber":44},{"time":179110.9319999989,"duration":166.66649999999208,"noteNumber":61,"velocity":55,"programNumber":44},{"time":179333.15399999887,"duration":166.66649999999208,"noteNumber":61,"velocity":55,"programNumber":44},{"time":179555.37599999885,"duration":166.66649999999208,"noteNumber":62,"velocity":55,"programNumber":44},{"time":179777.59799999883,"duration":166.66649999999208,"noteNumber":62,"velocity":85,"programNumber":44},{"time":179999.8199999988,"duration":166.66649999999208,"noteNumber":66,"velocity":85,"programNumber":44},{"time":180222.0419999988,"duration":166.66649999999208,"noteNumber":64,"velocity":85,"programNumber":44},{"time":180444.26399999877,"duration":166.66649999999208,"noteNumber":63,"velocity":85,"programNumber":44},{"time":180666.48599999875,"duration":166.66649999999208,"noteNumber":59,"velocity":85,"programNumber":44},{"time":180888.70799999873,"duration":166.66649999999208,"noteNumber":61,"velocity":85,"programNumber":44},{"time":181110.9299999987,"duration":166.66649999999208,"noteNumber":62,"velocity":85,"programNumber":44},{"time":181333.1519999987,"duration":166.66649999999208,"noteNumber":64,"velocity":85,"programNumber":44},{"time":181555.37399999867,"duration":166.66649999999208,"noteNumber":67,"velocity":85,"programNumber":44},{"time":181777.59599999865,"duration":166.66649999999208,"noteNumber":64,"velocity":85,"programNumber":44},{"time":181999.81799999863,"duration":166.66649999999208,"noteNumber":62,"velocity":85,"programNumber":44},{"time":182222.0399999986,"duration":166.66649999999208,"noteNumber":61,"velocity":85,"programNumber":44},{"time":182444.2619999986,"duration":166.66649999999208,"noteNumber":57,"velocity":85,"programNumber":44},{"time":182666.48399999857,"duration":166.66649999999208,"noteNumber":59,"velocity":85,"programNumber":44},{"time":182888.70599999855,"duration":166.66649999999208,"noteNumber":61,"velocity":85,"programNumber":44},{"time":183110.92799999853,"duration":166.66649999999208,"noteNumber":62,"velocity":85,"programNumber":44},{"time":183333.1499999985,"duration":166.66649999999208,"noteNumber":74,"velocity":85,"programNumber":44},{"time":183555.3719999985,"duration":166.66649999999208,"noteNumber":74,"velocity":85,"programNumber":44},{"time":183777.59399999847,"duration":166.66649999999208,"noteNumber":74,"velocity":85,"programNumber":44},{"time":183999.81599999845,"duration":166.66649999999208,"noteNumber":74,"velocity":85,"programNumber":44},{"time":184222.03799999843,"duration":166.66649999999208,"noteNumber":74,"velocity":85,"programNumber":44},{"time":184444.2599999984,"duration":166.66649999999208,"noteNumber":74,"velocity":85,"programNumber":44},{"time":184666.4819999984,"duration":166.66649999999208,"noteNumber":74,"velocity":85,"programNumber":44},{"time":184888.70399999837,"duration":222.22200000000885,"noteNumber":74,"velocity":85,"programNumber":44},{"time":185110.92599999838,"duration":166.66649999999208,"noteNumber":69,"velocity":85,"programNumber":44},{"time":185333.14799999836,"duration":111.11100000000442,"noteNumber":69,"velocity":85,"programNumber":44},{"time":185555.36999999837,"duration":111.11100000000442,"noteNumber":69,"velocity":85,"programNumber":44},{"time":185777.59199999837,"duration":166.66649999999208,"noteNumber":69,"velocity":85,"programNumber":44},{"time":185999.81399999835,"duration":166.66649999999208,"noteNumber":69,"velocity":85,"programNumber":44},{"time":186222.03599999833,"duration":166.66649999999208,"noteNumber":69,"velocity":85,"programNumber":44},{"time":186444.2579999983,"duration":166.66649999999208,"noteNumber":67,"velocity":85,"programNumber":44},{"time":186666.4799999983,"duration":166.66649999999208,"noteNumber":66,"velocity":85,"programNumber":44},{"time":186888.70199999827,"duration":166.66649999999208,"noteNumber":57,"velocity":85,"programNumber":44},{"time":187110.92399999825,"duration":166.66649999999208,"noteNumber":59,"velocity":85,"programNumber":44},{"time":187333.14599999823,"duration":166.66649999999208,"noteNumber":61,"velocity":85,"programNumber":44},{"time":187555.3679999982,"duration":166.66649999999208,"noteNumber":62,"velocity":85,"programNumber":44},{"time":187777.5899999982,"duration":166.66649999999208,"noteNumber":62,"velocity":85,"programNumber":44},{"time":187999.81199999817,"duration":166.66649999999208,"noteNumber":64,"velocity":85,"programNumber":44},{"time":188222.03399999815,"duration":166.66649999999208,"noteNumber":64,"velocity":85,"programNumber":44},{"time":188444.25599999813,"duration":166.66649999999208,"noteNumber":66,"velocity":85,"programNumber":44},{"time":188666.4779999981,"duration":166.66649999999208,"noteNumber":61,"velocity":85,"programNumber":44},{"time":188888.6999999981,"duration":166.66649999999208,"noteNumber":62,"velocity":85,"programNumber":44},{"time":189110.92199999807,"duration":166.66649999999208,"noteNumber":64,"velocity":85,"programNumber":44},{"time":189333.14399999805,"duration":166.66649999999208,"noteNumber":66,"velocity":85,"programNumber":44},{"time":189555.36599999803,"duration":166.66649999999208,"noteNumber":66,"velocity":85,"programNumber":44},{"time":189777.587999998,"duration":166.66649999999208,"noteNumber":67,"velocity":85,"programNumber":44},{"time":189999.809999998,"duration":166.66649999999208,"noteNumber":67,"velocity":85,"programNumber":44},{"time":190222.03199999797,"duration":166.66649999999208,"noteNumber":69,"velocity":85,"programNumber":44},{"time":190444.25399999795,"duration":166.66649999999208,"noteNumber":69,"velocity":85,"programNumber":44},{"time":190666.47599999793,"duration":166.66649999999208,"noteNumber":70,"velocity":85,"programNumber":44},{"time":190888.6979999979,"duration":166.66649999999208,"noteNumber":70,"velocity":85,"programNumber":44},{"time":191110.9199999979,"duration":444.4439999999886,"noteNumber":71,"velocity":85,"programNumber":44},{"time":191999.80799999787,"duration":1333.3319999999949,"noteNumber":64,"velocity":55,"programNumber":44},{"time":193333.13999999786,"duration":222.22200000000885,"noteNumber":62,"velocity":55,"programNumber":44},{"time":193555.36199999787,"duration":222.22200000000885,"noteNumber":61,"velocity":55,"programNumber":44},{"time":193777.58399999788,"duration":222.22200000000885,"noteNumber":62,"velocity":55,"programNumber":44},{"time":194222.0279999979,"duration":222.22200000000885,"noteNumber":62,"velocity":55,"programNumber":44},{"time":194666.4719999979,"duration":222.22200000000885,"noteNumber":62,"velocity":55,"programNumber":44},{"time":195555.35999999792,"duration":444.4439999999886,"noteNumber":62,"velocity":89,"programNumber":44},{"time":196222.02599999792,"duration":166.66649999999208,"noteNumber":57,"velocity":89,"programNumber":44},{"time":196444.2479999979,"duration":444.4439999999886,"noteNumber":62,"velocity":89,"programNumber":44},{"time":197110.9139999979,"duration":166.66649999999208,"noteNumber":57,"velocity":89,"programNumber":44},{"time":197333.13599999787,"duration":166.66649999999208,"noteNumber":62,"velocity":89,"programNumber":44},{"time":197555.35799999785,"duration":166.66649999999208,"noteNumber":57,"velocity":89,"programNumber":44},{"time":197777.57999999783,"duration":166.66649999999208,"noteNumber":62,"velocity":89,"programNumber":44},{"time":197999.8019999978,"duration":166.66649999999208,"noteNumber":66,"velocity":89,"programNumber":44},{"time":198222.0239999978,"duration":444.4439999999886,"noteNumber":69,"velocity":89,"programNumber":44},{"time":199110.91199999777,"duration":444.4439999999886,"noteNumber":69,"velocity":89,"programNumber":44},{"time":199777.57799999777,"duration":166.66649999999208,"noteNumber":66,"velocity":89,"programNumber":44},{"time":199999.79999999775,"duration":444.4439999999886,"noteNumber":69,"velocity":89,"programNumber":44},{"time":200666.46599999774,"duration":166.66649999999208,"noteNumber":66,"velocity":89,"programNumber":44},{"time":200888.68799999772,"duration":166.66649999999208,"noteNumber":69,"velocity":89,"programNumber":44},{"time":201110.9099999977,"duration":166.66649999999208,"noteNumber":66,"velocity":89,"programNumber":44},{"time":201333.13199999768,"duration":166.66649999999208,"noteNumber":63,"velocity":89,"programNumber":44},{"time":201555.35399999766,"duration":166.66649999999208,"noteNumber":66,"velocity":89,"programNumber":44},{"time":201777.57599999764,"duration":444.4439999999886,"noteNumber":59,"velocity":89,"programNumber":44},{"time":202666.46399999762,"duration":166.66649999999208,"noteNumber":60,"velocity":55,"programNumber":44},{"time":202888.6859999976,"duration":166.66649999999208,"noteNumber":60,"velocity":55,"programNumber":44},{"time":203110.90799999758,"duration":166.66649999999208,"noteNumber":62,"velocity":55,"programNumber":44},{"time":203333.12999999756,"duration":166.66649999999208,"noteNumber":62,"velocity":55,"programNumber":44},{"time":203555.35199999754,"duration":166.66649999999208,"noteNumber":64,"velocity":55,"programNumber":44},{"time":203777.57399999752,"duration":166.66649999999208,"noteNumber":64,"velocity":55,"programNumber":44},{"time":203999.7959999975,"duration":166.66649999999208,"noteNumber":60,"velocity":55,"programNumber":44},{"time":204222.01799999748,"duration":166.66649999999208,"noteNumber":60,"velocity":55,"programNumber":44},{"time":204444.23999999746,"duration":166.66649999999208,"noteNumber":59,"velocity":55,"programNumber":44},{"time":204666.46199999744,"duration":166.66649999999208,"noteNumber":59,"velocity":55,"programNumber":44},{"time":204888.68399999742,"duration":166.66649999999208,"noteNumber":60,"velocity":55,"programNumber":44},{"time":205110.9059999974,"duration":166.66649999999208,"noteNumber":60,"velocity":55,"programNumber":44},{"time":205333.12799999738,"duration":166.66649999999208,"noteNumber":62,"velocity":55,"programNumber":44},{"time":205555.34999999736,"duration":166.66649999999208,"noteNumber":62,"velocity":55,"programNumber":44},{"time":205777.57199999734,"duration":166.66649999999208,"noteNumber":59,"velocity":55,"programNumber":44},{"time":205999.79399999732,"duration":166.66649999999208,"noteNumber":59,"velocity":55,"programNumber":44},{"time":206222.0159999973,"duration":166.66649999999208,"noteNumber":60,"velocity":55,"programNumber":44},{"time":206444.23799999728,"duration":166.66649999999208,"noteNumber":60,"velocity":55,"programNumber":44},{"time":206666.45999999726,"duration":166.66649999999208,"noteNumber":62,"velocity":55,"programNumber":44},{"time":206888.68199999724,"duration":166.66649999999208,"noteNumber":62,"velocity":55,"programNumber":44},{"time":207110.90399999722,"duration":166.66649999999208,"noteNumber":64,"velocity":55,"programNumber":44},{"time":207333.1259999972,"duration":166.66649999999208,"noteNumber":64,"velocity":55,"programNumber":44},{"time":207555.34799999718,"duration":166.66649999999208,"noteNumber":60,"velocity":55,"programNumber":44},{"time":207777.56999999715,"duration":166.66649999999208,"noteNumber":60,"velocity":55,"programNumber":44},{"time":207999.79199999713,"duration":166.66649999999208,"noteNumber":59,"velocity":55,"programNumber":44},{"time":208222.0139999971,"duration":166.66649999999208,"noteNumber":59,"velocity":55,"programNumber":44},{"time":208444.2359999971,"duration":166.66649999999208,"noteNumber":60,"velocity":55,"programNumber":44},{"time":208666.45799999707,"duration":166.66649999999208,"noteNumber":60,"velocity":55,"programNumber":44},{"time":208888.67999999705,"duration":166.66649999999208,"noteNumber":62,"velocity":55,"programNumber":44},{"time":209110.90199999703,"duration":166.66649999999208,"noteNumber":62,"velocity":55,"programNumber":44},{"time":209333.123999997,"duration":166.66649999999208,"noteNumber":59,"velocity":55,"programNumber":44},{"time":209555.345999997,"duration":166.66649999999208,"noteNumber":59,"velocity":55,"programNumber":44},{"time":209777.56799999697,"duration":166.66649999999208,"noteNumber":60,"velocity":55,"programNumber":44},{"time":209999.78999999695,"duration":166.66649999999208,"noteNumber":60,"velocity":55,"programNumber":44},{"time":210222.01199999693,"duration":166.66649999999208,"noteNumber":62,"velocity":55,"programNumber":44},{"time":210444.2339999969,"duration":166.66649999999208,"noteNumber":62,"velocity":55,"programNumber":44},{"time":210666.4559999969,"duration":166.66649999999208,"noteNumber":64,"velocity":55,"programNumber":44},{"time":210888.67799999687,"duration":166.66649999999208,"noteNumber":64,"velocity":55,"programNumber":44},{"time":211110.89999999685,"duration":166.66649999999208,"noteNumber":60,"velocity":55,"programNumber":44},{"time":211333.12199999683,"duration":166.66649999999208,"noteNumber":60,"velocity":55,"programNumber":44},{"time":211555.3439999968,"duration":166.66649999999208,"noteNumber":59,"velocity":55,"programNumber":44},{"time":211777.5659999968,"duration":166.66649999999208,"noteNumber":59,"velocity":55,"programNumber":44},{"time":211999.78799999677,"duration":166.66649999999208,"noteNumber":60,"velocity":55,"programNumber":44},{"time":212222.00999999675,"duration":166.66649999999208,"noteNumber":60,"velocity":55,"programNumber":44},{"time":212444.23199999673,"duration":166.66649999999208,"noteNumber":62,"velocity":55,"programNumber":44},{"time":212666.4539999967,"duration":166.66649999999208,"noteNumber":62,"velocity":55,"programNumber":44},{"time":212888.6759999967,"duration":166.66649999999208,"noteNumber":59,"velocity":55,"programNumber":44},{"time":213110.89799999667,"duration":166.66649999999208,"noteNumber":59,"velocity":55,"programNumber":44},{"time":213333.11999999665,"duration":166.66649999999208,"noteNumber":57,"velocity":55,"programNumber":44},{"time":213555.34199999663,"duration":166.66649999999208,"noteNumber":57,"velocity":55,"programNumber":44},{"time":213777.5639999966,"duration":166.66649999999208,"noteNumber":59,"velocity":55,"programNumber":44},{"time":213999.7859999966,"duration":166.66649999999208,"noteNumber":59,"velocity":55,"programNumber":44},{"time":214222.00799999657,"duration":166.66649999999208,"noteNumber":60,"velocity":55,"programNumber":44},{"time":214444.22999999655,"duration":166.66649999999208,"noteNumber":60,"velocity":55,"programNumber":44},{"time":214666.45199999653,"duration":166.66649999999208,"noteNumber":57,"velocity":55,"programNumber":44},{"time":214888.6739999965,"duration":166.66649999999208,"noteNumber":57,"velocity":55,"programNumber":44},{"time":215110.8959999965,"duration":166.66649999999208,"noteNumber":57,"velocity":55,"programNumber":44},{"time":215333.11799999647,"duration":166.66649999999208,"noteNumber":57,"velocity":55,"programNumber":44},{"time":215555.33999999645,"duration":166.66649999999208,"noteNumber":58,"velocity":55,"programNumber":44},{"time":215777.56199999643,"duration":166.66649999999208,"noteNumber":58,"velocity":55,"programNumber":44},{"time":215999.7839999964,"duration":166.66649999999208,"noteNumber":60,"velocity":55,"programNumber":44},{"time":216222.00599999639,"duration":166.66649999999208,"noteNumber":60,"velocity":55,"programNumber":44},{"time":216444.22799999636,"duration":166.66649999999208,"noteNumber":57,"velocity":55,"programNumber":44},{"time":216666.44999999634,"duration":166.66649999999208,"noteNumber":57,"velocity":55,"programNumber":44},{"time":216888.67199999632,"duration":166.66649999999208,"noteNumber":55,"velocity":55,"programNumber":44},{"time":217110.8939999963,"duration":166.66649999999208,"noteNumber":55,"velocity":55,"programNumber":44},{"time":217333.11599999628,"duration":166.66649999999208,"noteNumber":54,"velocity":55,"programNumber":44},{"time":217555.33799999626,"duration":166.66649999999208,"noteNumber":54,"velocity":55,"programNumber":44},{"time":217777.55999999624,"duration":166.66649999999208,"noteNumber":55,"velocity":55,"programNumber":44},{"time":217999.78199999622,"duration":166.66649999999208,"noteNumber":55,"velocity":55,"programNumber":44},{"time":218222.0039999962,"duration":166.66649999999208,"noteNumber":66,"velocity":55,"programNumber":44},{"time":218444.22599999618,"duration":166.66649999999208,"noteNumber":66,"velocity":55,"programNumber":44},{"time":218666.44799999616,"duration":166.66649999999208,"noteNumber":67,"velocity":55,"programNumber":44},{"time":218888.66999999614,"duration":166.66649999999208,"noteNumber":67,"velocity":55,"programNumber":44},{"time":219110.89199999612,"duration":166.66649999999208,"noteNumber":66,"velocity":55,"programNumber":44},{"time":219333.1139999961,"duration":166.66649999999208,"noteNumber":66,"velocity":55,"programNumber":44},{"time":219555.33599999608,"duration":166.66649999999208,"noteNumber":67,"velocity":55,"programNumber":44},{"time":219777.55799999606,"duration":166.66649999999208,"noteNumber":55,"velocity":55,"programNumber":44},{"time":219999.77999999604,"duration":166.66649999999208,"noteNumber":53,"velocity":55,"programNumber":44},{"time":220222.00199999602,"duration":166.66649999999208,"noteNumber":55,"velocity":55,"programNumber":44},{"time":220481.260999996,"duration":444.4439999999886,"noteNumber":57,"velocity":53,"programNumber":44},{"time":221147.926999996,"duration":222.22200000000885,"noteNumber":50,"velocity":91,"programNumber":44},{"time":221370.14899999602,"duration":222.22200000000885,"noteNumber":52,"velocity":91,"programNumber":44},{"time":221592.37099999603,"duration":222.22200000000885,"noteNumber":54,"velocity":91,"programNumber":44},{"time":221814.59299999604,"duration":222.22200000000885,"noteNumber":55,"velocity":91,"programNumber":44},{"time":222036.81499999604,"duration":222.22200000000885,"noteNumber":57,"velocity":91,"programNumber":44},{"time":222259.03699999605,"duration":222.22200000000885,"noteNumber":60,"velocity":91,"programNumber":44},{"time":222481.25899999606,"duration":222.22200000000885,"noteNumber":58,"velocity":91,"programNumber":44},{"time":222925.70299999608,"duration":222.22200000000885,"noteNumber":54,"velocity":91,"programNumber":44},{"time":223147.9249999961,"duration":222.22200000000885,"noteNumber":55,"velocity":91,"programNumber":44},{"time":223370.1469999961,"duration":222.22200000000885,"noteNumber":57,"velocity":91,"programNumber":44},{"time":223592.3689999961,"duration":222.22200000000885,"noteNumber":58,"velocity":91,"programNumber":44},{"time":223814.59099999611,"duration":222.22200000000885,"noteNumber":61,"velocity":91,"programNumber":44},{"time":224036.81299999612,"duration":222.22200000000885,"noteNumber":64,"velocity":53,"programNumber":44},{"time":224259.03499999613,"duration":222.22200000000885,"noteNumber":62,"velocity":53,"programNumber":44},{"time":227555.32799999614,"duration":111.11100000000442,"noteNumber":71,"velocity":68,"programNumber":44},{"time":227777.54999999615,"duration":111.11100000000442,"noteNumber":71,"velocity":68,"programNumber":44},{"time":227999.77199999616,"duration":222.22200000000885,"noteNumber":71,"velocity":68,"programNumber":44},{"time":228221.99399999616,"duration":166.66649999999208,"noteNumber":72,"velocity":68,"programNumber":44},{"time":228444.21599999614,"duration":111.11100000000442,"noteNumber":69,"velocity":68,"programNumber":44},{"time":228666.43799999615,"duration":111.11100000000442,"noteNumber":69,"velocity":68,"programNumber":44},{"time":228888.65999999616,"duration":222.22200000000885,"noteNumber":69,"velocity":68,"programNumber":44},{"time":229110.88199999617,"duration":166.66649999999208,"noteNumber":71,"velocity":68,"programNumber":44},{"time":229333.10399999615,"duration":111.11100000000442,"noteNumber":67,"velocity":68,"programNumber":44},{"time":229555.32599999616,"duration":111.11100000000442,"noteNumber":67,"velocity":68,"programNumber":44},{"time":229777.54799999617,"duration":222.22200000000885,"noteNumber":67,"velocity":68,"programNumber":44},{"time":229999.76999999618,"duration":166.66649999999208,"noteNumber":71,"velocity":68,"programNumber":44},{"time":230221.99199999616,"duration":222.22200000000885,"noteNumber":71,"velocity":68,"programNumber":44},{"time":230444.21399999617,"duration":166.66649999999208,"noteNumber":69,"velocity":68,"programNumber":44},{"time":230666.43599999615,"duration":111.11100000000442,"noteNumber":67,"velocity":68,"programNumber":44},{"time":230888.65799999615,"duration":111.11100000000442,"noteNumber":62,"velocity":68,"programNumber":44},{"time":231129.39849999617,"duration":444.4439999999886,"noteNumber":59,"velocity":93,"programNumber":44},{"time":231796.06449999617,"duration":111.11100000000442,"noteNumber":62,"velocity":92,"programNumber":44},{"time":232018.28649999617,"duration":444.4439999999886,"noteNumber":67,"velocity":92,"programNumber":44},{"time":232684.95249999617,"duration":111.11100000000442,"noteNumber":62,"velocity":91,"programNumber":44},{"time":232907.17449999618,"duration":111.11100000000442,"noteNumber":67,"velocity":90,"programNumber":44},{"time":233129.3964999962,"duration":111.11100000000442,"noteNumber":62,"velocity":90,"programNumber":44},{"time":233351.6184999962,"duration":111.11100000000442,"noteNumber":67,"velocity":90,"programNumber":44},{"time":233573.8404999962,"duration":111.11100000000442,"noteNumber":71,"velocity":90,"programNumber":44},{"time":233796.06249999622,"duration":444.4439999999886,"noteNumber":74,"velocity":89,"programNumber":44},{"time":234684.9504999962,"duration":444.4439999999886,"noteNumber":72,"velocity":88,"programNumber":44},{"time":235351.6164999962,"duration":111.11100000000442,"noteNumber":69,"velocity":87,"programNumber":44},{"time":235573.8384999962,"duration":444.4439999999886,"noteNumber":72,"velocity":86,"programNumber":44},{"time":236240.5044999962,"duration":111.11100000000442,"noteNumber":69,"velocity":85,"programNumber":44},{"time":236462.7264999962,"duration":111.11100000000442,"noteNumber":72,"velocity":85,"programNumber":44},{"time":236684.94849999622,"duration":111.11100000000442,"noteNumber":69,"velocity":85,"programNumber":44},{"time":236907.17049999622,"duration":111.11100000000442,"noteNumber":66,"velocity":85,"programNumber":44},{"time":237129.39249999623,"duration":111.11100000000442,"noteNumber":69,"velocity":85,"programNumber":44},{"time":237351.61449999624,"duration":444.4439999999886,"noteNumber":62,"velocity":85,"programNumber":44},{"time":238221.98399999624,"duration":166.66649999999208,"noteNumber":67,"velocity":85,"programNumber":44},{"time":238444.20599999622,"duration":166.66649999999208,"noteNumber":67,"velocity":85,"programNumber":44},{"time":238666.4279999962,"duration":166.66649999999208,"noteNumber":67,"velocity":85,"programNumber":44},{"time":238888.64999999618,"duration":166.66649999999208,"noteNumber":67,"velocity":85,"programNumber":44},{"time":239110.87199999616,"duration":166.66649999999208,"noteNumber":67,"velocity":85,"programNumber":44},{"time":239333.09399999614,"duration":166.66649999999208,"noteNumber":67,"velocity":85,"programNumber":44},{"time":239555.31599999612,"duration":166.66649999999208,"noteNumber":67,"velocity":85,"programNumber":44},{"time":239777.5379999961,"duration":166.66649999999208,"noteNumber":67,"velocity":85,"programNumber":44},{"time":239999.75999999608,"duration":166.66649999999208,"noteNumber":69,"velocity":85,"programNumber":44},{"time":240221.98199999606,"duration":166.66649999999208,"noteNumber":69,"velocity":85,"programNumber":44},{"time":240444.20399999604,"duration":166.66649999999208,"noteNumber":69,"velocity":85,"programNumber":44},{"time":240666.42599999602,"duration":166.66649999999208,"noteNumber":69,"velocity":85,"programNumber":44},{"time":240888.647999996,"duration":222.22200000000885,"noteNumber":69,"velocity":85,"programNumber":44},{"time":241110.869999996,"duration":166.66649999999208,"noteNumber":72,"velocity":85,"programNumber":44},{"time":241333.091999996,"duration":222.22200000000885,"noteNumber":66,"velocity":85,"programNumber":44},{"time":241555.313999996,"duration":166.66649999999208,"noteNumber":69,"velocity":85,"programNumber":44},{"time":241777.53599999598,"duration":166.66649999999208,"noteNumber":67,"velocity":85,"programNumber":44},{"time":241999.75799999596,"duration":166.66649999999208,"noteNumber":67,"velocity":85,"programNumber":44},{"time":242221.97999999594,"duration":166.66649999999208,"noteNumber":67,"velocity":85,"programNumber":44},{"time":242444.20199999592,"duration":166.66649999999208,"noteNumber":67,"velocity":85,"programNumber":44},{"time":242666.4239999959,"duration":166.66649999999208,"noteNumber":67,"velocity":85,"programNumber":44},{"time":242888.64599999588,"duration":166.66649999999208,"noteNumber":67,"velocity":85,"programNumber":44},{"time":243110.86799999585,"duration":166.66649999999208,"noteNumber":67,"velocity":85,"programNumber":44},{"time":243333.08999999583,"duration":166.66649999999208,"noteNumber":67,"velocity":85,"programNumber":44},{"time":243555.3119999958,"duration":166.66649999999208,"noteNumber":69,"velocity":85,"programNumber":44},{"time":243777.5339999958,"duration":166.66649999999208,"noteNumber":69,"velocity":85,"programNumber":44},{"time":243999.75599999577,"duration":166.66649999999208,"noteNumber":69,"velocity":85,"programNumber":44},{"time":244221.97799999575,"duration":166.66649999999208,"noteNumber":69,"velocity":85,"programNumber":44},{"time":244444.19999999573,"duration":222.22200000000885,"noteNumber":69,"velocity":85,"programNumber":44},{"time":244666.42199999574,"duration":166.66649999999208,"noteNumber":72,"velocity":85,"programNumber":44},{"time":244888.64399999572,"duration":222.22200000000885,"noteNumber":66,"velocity":85,"programNumber":44},{"time":245110.86599999573,"duration":166.66649999999208,"noteNumber":69,"velocity":85,"programNumber":44},{"time":245333.0879999957,"duration":74.07399999999325,"noteNumber":62,"velocity":85,"programNumber":44},{"time":245444.19899999571,"duration":74.07399999999325,"noteNumber":62,"velocity":85,"programNumber":44},{"time":245555.30999999572,"duration":74.07399999999325,"noteNumber":62,"velocity":85,"programNumber":44},{"time":245666.42099999572,"duration":74.07399999999325,"noteNumber":62,"velocity":85,"programNumber":44},{"time":245777.53199999573,"duration":74.07399999999325,"noteNumber":62,"velocity":85,"programNumber":44},{"time":245888.64299999573,"duration":74.07399999999325,"noteNumber":62,"velocity":85,"programNumber":44},{"time":245999.75399999574,"duration":74.07399999999325,"noteNumber":62,"velocity":85,"programNumber":44},{"time":246110.86499999574,"duration":74.07399999999325,"noteNumber":62,"velocity":85,"programNumber":44},{"time":246221.97599999575,"duration":74.07399999999325,"noteNumber":62,"velocity":85,"programNumber":44},{"time":246333.08699999575,"duration":74.07399999999325,"noteNumber":62,"velocity":85,"programNumber":44},{"time":246444.19799999575,"duration":74.07399999999325,"noteNumber":62,"velocity":85,"programNumber":44},{"time":246555.30899999576,"duration":74.07399999999325,"noteNumber":62,"velocity":85,"programNumber":44},{"time":246666.41999999576,"duration":74.07399999999325,"noteNumber":62,"velocity":85,"programNumber":44},{"time":246777.53099999577,"duration":74.07399999999325,"noteNumber":62,"velocity":85,"programNumber":44},{"time":246888.64199999577,"duration":74.07399999999325,"noteNumber":62,"velocity":85,"programNumber":44},{"time":246999.75299999578,"duration":74.07399999999325,"noteNumber":62,"velocity":85,"programNumber":44},{"time":247110.86399999578,"duration":74.07399999999325,"noteNumber":62,"velocity":85,"programNumber":44},{"time":247221.9749999958,"duration":74.07399999999325,"noteNumber":62,"velocity":85,"programNumber":44},{"time":247333.0859999958,"duration":74.07399999999325,"noteNumber":62,"velocity":85,"programNumber":44},{"time":247444.1969999958,"duration":74.07399999999325,"noteNumber":62,"velocity":85,"programNumber":44},{"time":247555.3079999958,"duration":74.07399999999325,"noteNumber":62,"velocity":85,"programNumber":44},{"time":247666.4189999958,"duration":74.07399999999325,"noteNumber":62,"velocity":85,"programNumber":44},{"time":247777.5299999958,"duration":74.07399999999325,"noteNumber":62,"velocity":85,"programNumber":44},{"time":247888.6409999958,"duration":74.07399999999325,"noteNumber":62,"velocity":85,"programNumber":44},{"time":247999.75199999582,"duration":444.4439999999886,"noteNumber":62,"velocity":85,"programNumber":44},{"time":250666.4159999958,"duration":888.8880000000063,"noteNumber":54,"velocity":47,"programNumber":44},{"time":251555.3039999958,"duration":888.8880000000063,"noteNumber":55,"velocity":47,"programNumber":44},{"time":252444.19199999582,"duration":333.33300000001327,"noteNumber":60,"velocity":47,"programNumber":44},{"time":252888.63599999584,"duration":333.33300000001327,"noteNumber":60,"velocity":47,"programNumber":44},{"time":253333.07999999585,"duration":333.33300000001327,"noteNumber":57,"velocity":47,"programNumber":44},{"time":253777.52399999587,"duration":333.33300000001327,"noteNumber":50,"velocity":47,"programNumber":44},{"time":254221.9679999959,"duration":222.22200000000885,"noteNumber":50,"velocity":47,"programNumber":44},{"time":254666.4119999959,"duration":222.22200000000885,"noteNumber":62,"velocity":47,"programNumber":44},{"time":255110.85599999593,"duration":444.4439999999886,"noteNumber":62,"velocity":47,"programNumber":44},{"time":257777.51999999591,"duration":888.8880000000063,"noteNumber":66,"velocity":47,"programNumber":44},{"time":258666.40799999592,"duration":888.8880000000063,"noteNumber":67,"velocity":47,"programNumber":44},{"time":259555.29599999593,"duration":333.33300000001327,"noteNumber":60,"velocity":47,"programNumber":44},{"time":259999.73999999595,"duration":166.66649999999208,"noteNumber":60,"velocity":47,"programNumber":44},{"time":260221.96199999592,"duration":166.66649999999208,"noteNumber":60,"velocity":47,"programNumber":44},{"time":260444.1839999959,"duration":333.33300000001327,"noteNumber":57,"velocity":47,"programNumber":44},{"time":260888.62799999592,"duration":166.66649999999208,"noteNumber":57,"velocity":47,"programNumber":44},{"time":261110.8499999959,"duration":166.66649999999208,"noteNumber":57,"velocity":47,"programNumber":44},{"time":261333.07199999588,"duration":166.66649999999208,"noteNumber":55,"velocity":92,"programNumber":44},{"time":261555.29399999586,"duration":166.66649999999208,"noteNumber":55,"velocity":71,"programNumber":44},{"time":261777.51599999584,"duration":166.66649999999208,"noteNumber":55,"velocity":71,"programNumber":44},{"time":261999.73799999582,"duration":166.66649999999208,"noteNumber":55,"velocity":71,"programNumber":44},{"time":262221.95999999583,"duration":166.66649999999208,"noteNumber":55,"velocity":55,"programNumber":44},{"time":262444.18199999584,"duration":166.66649999999208,"noteNumber":55,"velocity":50,"programNumber":44},{"time":262666.40399999585,"duration":166.66649999999208,"noteNumber":55,"velocity":50,"programNumber":44},{"time":262888.62599999586,"duration":166.66649999999208,"noteNumber":55,"velocity":50,"programNumber":44},{"time":263110.84799999587,"duration":166.66649999999208,"noteNumber":55,"velocity":91,"programNumber":44},{"time":263333.0699999959,"duration":166.66649999999208,"noteNumber":55,"velocity":65,"programNumber":44},{"time":263555.2919999959,"duration":166.66649999999208,"noteNumber":55,"velocity":65,"programNumber":44},{"time":263777.5139999959,"duration":166.66649999999208,"noteNumber":55,"velocity":65,"programNumber":44},{"time":263999.7359999959,"duration":166.66649999999208,"noteNumber":55,"velocity":46,"programNumber":44},{"time":264221.9579999959,"duration":166.66649999999208,"noteNumber":55,"velocity":46,"programNumber":44},{"time":264444.1799999959,"duration":166.66649999999208,"noteNumber":55,"velocity":46,"programNumber":44},{"time":264666.4019999959,"duration":166.66649999999208,"noteNumber":55,"velocity":46,"programNumber":44},{"time":264888.62399999594,"duration":166.66649999999208,"noteNumber":55,"velocity":59,"programNumber":44},{"time":265110.84599999595,"duration":166.66649999999208,"noteNumber":67,"velocity":41,"programNumber":44},{"time":265333.06799999595,"duration":166.66649999999208,"noteNumber":67,"velocity":46,"programNumber":44},{"time":265555.28999999596,"duration":166.66649999999208,"noteNumber":67,"velocity":49,"programNumber":44},{"time":265777.511999996,"duration":166.66649999999208,"noteNumber":67,"velocity":53,"programNumber":44},{"time":265999.733999996,"duration":166.66649999999208,"noteNumber":67,"velocity":56,"programNumber":44},{"time":266221.955999996,"duration":166.66649999999208,"noteNumber":69,"velocity":61,"programNumber":44},{"time":266444.177999996,"duration":166.66649999999208,"noteNumber":69,"velocity":64,"programNumber":44},{"time":266666.399999996,"duration":166.66649999999208,"noteNumber":67,"velocity":68,"programNumber":44},{"time":266888.621999996,"duration":166.66649999999208,"noteNumber":67,"velocity":71,"programNumber":44},{"time":267110.843999996,"duration":166.66649999999208,"noteNumber":66,"velocity":76,"programNumber":44},{"time":267333.06599999603,"duration":166.66649999999208,"noteNumber":66,"velocity":79,"programNumber":44},{"time":267555.28799999604,"duration":166.66649999999208,"noteNumber":67,"velocity":82,"programNumber":44},{"time":267777.50999999605,"duration":166.66649999999208,"noteNumber":67,"velocity":82,"programNumber":44},{"time":267999.73199999606,"duration":166.66649999999208,"noteNumber":64,"velocity":82,"programNumber":44},{"time":268221.95399999607,"duration":166.66649999999208,"noteNumber":64,"velocity":82,"programNumber":44},{"time":268444.1759999961,"duration":74.07400000002235,"noteNumber":62,"velocity":85,"programNumber":44},{"time":268444.1759999961,"duration":74.07400000002235,"noteNumber":69,"velocity":85,"programNumber":44},{"time":268555.2869999961,"duration":74.07400000002235,"noteNumber":62,"velocity":85,"programNumber":44},{"time":268555.2869999961,"duration":74.07400000002235,"noteNumber":69,"velocity":85,"programNumber":44},{"time":268666.39799999614,"duration":74.07400000002235,"noteNumber":62,"velocity":85,"programNumber":44},{"time":268666.39799999614,"duration":74.07400000002235,"noteNumber":69,"velocity":85,"programNumber":44},{"time":268777.5089999962,"duration":74.07400000002235,"noteNumber":62,"velocity":85,"programNumber":44},{"time":268777.5089999962,"duration":74.07400000002235,"noteNumber":69,"velocity":85,"programNumber":44},{"time":268888.6199999962,"duration":74.07400000002235,"noteNumber":62,"velocity":85,"programNumber":44},{"time":268888.6199999962,"duration":74.07400000002235,"noteNumber":69,"velocity":85,"programNumber":44},{"time":268999.73099999625,"duration":74.07400000002235,"noteNumber":62,"velocity":85,"programNumber":44},{"time":268999.73099999625,"duration":74.07400000002235,"noteNumber":69,"velocity":85,"programNumber":44},{"time":269110.8419999963,"duration":74.07400000002235,"noteNumber":62,"velocity":85,"programNumber":44},{"time":269110.8419999963,"duration":74.07400000002235,"noteNumber":69,"velocity":85,"programNumber":44},{"time":269221.9529999963,"duration":74.07400000002235,"noteNumber":62,"velocity":85,"programNumber":44},{"time":269221.9529999963,"duration":74.07400000002235,"noteNumber":69,"velocity":85,"programNumber":44},{"time":269333.06399999635,"duration":74.07400000002235,"noteNumber":64,"velocity":85,"programNumber":44},{"time":269333.06399999635,"duration":74.07400000002235,"noteNumber":69,"velocity":85,"programNumber":44},{"time":269444.1749999964,"duration":74.07400000002235,"noteNumber":64,"velocity":85,"programNumber":44},{"time":269444.1749999964,"duration":74.07400000002235,"noteNumber":69,"velocity":85,"programNumber":44},{"time":269555.2859999964,"duration":74.07400000002235,"noteNumber":64,"velocity":85,"programNumber":44},{"time":269555.2859999964,"duration":74.07400000002235,"noteNumber":69,"velocity":85,"programNumber":44},{"time":269666.39699999645,"duration":74.07400000002235,"noteNumber":64,"velocity":85,"programNumber":44},{"time":269666.39699999645,"duration":74.07400000002235,"noteNumber":69,"velocity":85,"programNumber":44},{"time":269777.5079999965,"duration":74.07400000002235,"noteNumber":64,"velocity":85,"programNumber":44},{"time":269777.5079999965,"duration":74.07400000002235,"noteNumber":69,"velocity":85,"programNumber":44},{"time":269888.6189999965,"duration":74.07400000002235,"noteNumber":64,"velocity":85,"programNumber":44},{"time":269888.6189999965,"duration":74.07400000002235,"noteNumber":69,"velocity":85,"programNumber":44},{"time":269999.72999999655,"duration":74.07400000002235,"noteNumber":64,"velocity":85,"programNumber":44},{"time":269999.72999999655,"duration":74.07400000002235,"noteNumber":69,"velocity":85,"programNumber":44},{"time":270110.8409999966,"duration":74.07400000002235,"noteNumber":64,"velocity":85,"programNumber":44},{"time":270110.8409999966,"duration":74.07400000002235,"noteNumber":69,"velocity":85,"programNumber":44},{"time":270221.9519999966,"duration":74.07400000002235,"noteNumber":62,"velocity":85,"programNumber":44},{"time":270221.9519999966,"duration":74.07400000002235,"noteNumber":69,"velocity":85,"programNumber":44},{"time":270333.06299999665,"duration":74.07400000002235,"noteNumber":62,"velocity":85,"programNumber":44},{"time":270333.06299999665,"duration":74.07400000002235,"noteNumber":69,"velocity":85,"programNumber":44},{"time":270444.1739999967,"duration":74.07400000002235,"noteNumber":62,"velocity":85,"programNumber":44},{"time":270444.1739999967,"duration":74.07400000002235,"noteNumber":69,"velocity":85,"programNumber":44},{"time":270555.2849999967,"duration":74.07400000002235,"noteNumber":62,"velocity":85,"programNumber":44},{"time":270555.2849999967,"duration":74.07400000002235,"noteNumber":69,"velocity":85,"programNumber":44},{"time":270666.39599999675,"duration":74.07400000002235,"noteNumber":62,"velocity":85,"programNumber":44},{"time":270666.39599999675,"duration":74.07400000002235,"noteNumber":69,"velocity":85,"programNumber":44},{"time":270777.5069999968,"duration":74.07400000002235,"noteNumber":62,"velocity":85,"programNumber":44},{"time":270777.5069999968,"duration":74.07400000002235,"noteNumber":69,"velocity":85,"programNumber":44},{"time":270888.6179999968,"duration":74.07400000002235,"noteNumber":62,"velocity":85,"programNumber":44},{"time":270888.6179999968,"duration":74.07400000002235,"noteNumber":69,"velocity":85,"programNumber":44},{"time":270999.72899999685,"duration":74.07400000002235,"noteNumber":62,"velocity":85,"programNumber":44},{"time":270999.72899999685,"duration":74.07400000002235,"noteNumber":69,"velocity":85,"programNumber":44},{"time":271110.8399999969,"duration":74.07400000002235,"noteNumber":64,"velocity":85,"programNumber":44},{"time":271110.8399999969,"duration":74.07400000002235,"noteNumber":69,"velocity":85,"programNumber":44},{"time":271221.9509999969,"duration":74.07400000002235,"noteNumber":64,"velocity":85,"programNumber":44},{"time":271221.9509999969,"duration":74.07400000002235,"noteNumber":69,"velocity":85,"programNumber":44},{"time":271333.06199999695,"duration":74.07400000002235,"noteNumber":64,"velocity":85,"programNumber":44},{"time":271333.06199999695,"duration":74.07400000002235,"noteNumber":69,"velocity":85,"programNumber":44},{"time":271444.172999997,"duration":74.07400000002235,"noteNumber":64,"velocity":85,"programNumber":44},{"time":271444.172999997,"duration":74.07400000002235,"noteNumber":69,"velocity":85,"programNumber":44},{"time":271555.283999997,"duration":74.07400000002235,"noteNumber":64,"velocity":85,"programNumber":44},{"time":271555.283999997,"duration":74.07400000002235,"noteNumber":69,"velocity":85,"programNumber":44},{"time":271666.39499999705,"duration":74.07400000002235,"noteNumber":64,"velocity":85,"programNumber":44},{"time":271666.39499999705,"duration":74.07400000002235,"noteNumber":69,"velocity":85,"programNumber":44},{"time":271777.5059999971,"duration":74.07400000002235,"noteNumber":64,"velocity":85,"programNumber":44},{"time":271777.5059999971,"duration":74.07400000002235,"noteNumber":69,"velocity":85,"programNumber":44},{"time":271888.6169999971,"duration":74.07400000002235,"noteNumber":64,"velocity":85,"programNumber":44},{"time":271888.6169999971,"duration":74.07400000002235,"noteNumber":69,"velocity":85,"programNumber":44},{"time":271999.72799999715,"duration":74.07400000002235,"noteNumber":62,"velocity":85,"programNumber":44},{"time":271999.72799999715,"duration":74.07400000002235,"noteNumber":69,"velocity":85,"programNumber":44},{"time":272110.8389999972,"duration":74.07400000002235,"noteNumber":62,"velocity":85,"programNumber":44},{"time":272110.8389999972,"duration":74.07400000002235,"noteNumber":69,"velocity":85,"programNumber":44},{"time":272221.9499999972,"duration":74.07400000002235,"noteNumber":62,"velocity":85,"programNumber":44},{"time":272221.9499999972,"duration":74.07400000002235,"noteNumber":69,"velocity":85,"programNumber":44},{"time":272333.06099999725,"duration":74.07400000002235,"noteNumber":62,"velocity":85,"programNumber":44},{"time":272333.06099999725,"duration":74.07400000002235,"noteNumber":69,"velocity":85,"programNumber":44},{"time":272444.1719999973,"duration":74.07400000002235,"noteNumber":69,"velocity":85,"programNumber":44},{"time":272444.1719999973,"duration":74.07400000002235,"noteNumber":64,"velocity":85,"programNumber":44},{"time":272555.2829999973,"duration":74.07400000002235,"noteNumber":69,"velocity":85,"programNumber":44},{"time":272555.2829999973,"duration":74.07400000002235,"noteNumber":64,"velocity":85,"programNumber":44},{"time":272666.39399999735,"duration":74.07400000002235,"noteNumber":69,"velocity":85,"programNumber":44},{"time":272666.39399999735,"duration":74.07400000002235,"noteNumber":64,"velocity":85,"programNumber":44},{"time":272777.5049999974,"duration":74.07400000002235,"noteNumber":69,"velocity":85,"programNumber":44},{"time":272777.5049999974,"duration":74.07400000002235,"noteNumber":64,"velocity":85,"programNumber":44},{"time":272888.6159999974,"duration":74.07400000002235,"noteNumber":69,"velocity":85,"programNumber":44},{"time":272888.6159999974,"duration":74.07400000002235,"noteNumber":62,"velocity":85,"programNumber":44},{"time":272999.72699999745,"duration":74.07400000002235,"noteNumber":69,"velocity":85,"programNumber":44},{"time":272999.72699999745,"duration":74.07400000002235,"noteNumber":62,"velocity":85,"programNumber":44},{"time":273110.8379999975,"duration":74.07400000002235,"noteNumber":69,"velocity":85,"programNumber":44},{"time":273110.8379999975,"duration":74.07400000002235,"noteNumber":62,"velocity":85,"programNumber":44},{"time":273221.9489999975,"duration":74.07400000002235,"noteNumber":69,"velocity":85,"programNumber":44},{"time":273221.9489999975,"duration":74.07400000002235,"noteNumber":62,"velocity":85,"programNumber":44},{"time":273333.05999999755,"duration":74.07400000002235,"noteNumber":64,"velocity":85,"programNumber":44},{"time":273333.05999999755,"duration":74.07400000002235,"noteNumber":69,"velocity":85,"programNumber":44},{"time":273444.1709999976,"duration":74.07400000002235,"noteNumber":64,"velocity":85,"programNumber":44},{"time":273444.1709999976,"duration":74.07400000002235,"noteNumber":69,"velocity":85,"programNumber":44},{"time":273555.2819999976,"duration":74.07400000002235,"noteNumber":64,"velocity":85,"programNumber":44},{"time":273555.2819999976,"duration":74.07400000002235,"noteNumber":69,"velocity":85,"programNumber":44},{"time":273666.39299999765,"duration":74.07400000002235,"noteNumber":64,"velocity":85,"programNumber":44},{"time":273666.39299999765,"duration":74.07400000002235,"noteNumber":69,"velocity":85,"programNumber":44},{"time":273788.61509999767,"duration":166.66649999999208,"noteNumber":69,"velocity":85,"programNumber":44},{"time":273788.61509999767,"duration":166.66649999999208,"noteNumber":62,"velocity":85,"programNumber":44},{"time":274010.8370999977,"duration":166.66649999999208,"noteNumber":50,"velocity":85,"programNumber":44},{"time":274233.0590999977,"duration":166.66649999999208,"noteNumber":50,"velocity":85,"programNumber":44},{"time":274455.2810999977,"duration":166.66649999999208,"noteNumber":50,"velocity":85,"programNumber":44},{"time":274677.5030999977,"duration":444.4440000000177,"noteNumber":50,"velocity":85,"programNumber":44},{"time":276888.6119999977,"duration":222.22200000000885,"noteNumber":59,"velocity":55,"programNumber":44},{"time":277333.0559999977,"duration":222.22200000000885,"noteNumber":52,"velocity":55,"programNumber":44},{"time":277777.49999999773,"duration":222.22200000000885,"noteNumber":60,"velocity":55,"programNumber":44},{"time":278221.94399999775,"duration":222.22200000000885,"noteNumber":57,"velocity":55,"programNumber":44},{"time":278666.38799999777,"duration":222.22200000000885,"noteNumber":54,"velocity":55,"programNumber":44},{"time":279555.2759999978,"duration":444.4440000000177,"noteNumber":69,"velocity":55,"programNumber":44},{"time":279999.7199999978,"duration":222.22200000000885,"noteNumber":67,"velocity":55,"programNumber":44},{"time":280444.16399999784,"duration":222.22200000000885,"noteNumber":69,"velocity":55,"programNumber":44},{"time":280888.60799999785,"duration":888.8879999999772,"noteNumber":67,"velocity":55,"programNumber":44},{"time":281777.49599999783,"duration":444.4440000000177,"noteNumber":66,"velocity":55,"programNumber":44},{"time":283110.8279999978,"duration":444.4440000000177,"noteNumber":66,"velocity":55,"programNumber":44},{"time":283555.27199999784,"duration":222.22200000000885,"noteNumber":67,"velocity":55,"programNumber":44},{"time":283999.71599999786,"duration":222.22200000000885,"noteNumber":71,"velocity":55,"programNumber":44},{"time":284444.1599999979,"duration":222.22200000000885,"noteNumber":64,"velocity":55,"programNumber":44},{"time":284888.6039999979,"duration":222.22200000000885,"noteNumber":60,"velocity":55,"programNumber":44},{"time":285333.0479999979,"duration":444.4440000000177,"noteNumber":57,"velocity":55,"programNumber":44},{"time":285999.71399999794,"duration":166.66649999999208,"noteNumber":69,"velocity":55,"programNumber":44},{"time":286221.93599999795,"duration":222.22200000000885,"noteNumber":69,"velocity":55,"programNumber":44},{"time":286444.15799999796,"duration":222.22200000000885,"noteNumber":67,"velocity":55,"programNumber":44},{"time":287999.71199999796,"duration":166.66649999999208,"noteNumber":55,"velocity":55,"programNumber":44},{"time":288221.933999998,"duration":166.66649999999208,"noteNumber":55,"velocity":55,"programNumber":44},{"time":288444.155999998,"duration":166.66649999999208,"noteNumber":57,"velocity":55,"programNumber":44},{"time":288666.377999998,"duration":166.66649999999208,"noteNumber":57,"velocity":55,"programNumber":44},{"time":288888.599999998,"duration":166.66649999999208,"noteNumber":59,"velocity":55,"programNumber":44},{"time":289110.821999998,"duration":166.66649999999208,"noteNumber":59,"velocity":55,"programNumber":44},{"time":289333.043999998,"duration":166.66649999999208,"noteNumber":55,"velocity":55,"programNumber":44},{"time":289555.265999998,"duration":166.66649999999208,"noteNumber":55,"velocity":55,"programNumber":44},{"time":289777.48799999803,"duration":166.66649999999208,"noteNumber":54,"velocity":55,"programNumber":44},{"time":289999.70999999804,"duration":166.66649999999208,"noteNumber":54,"velocity":55,"programNumber":44},{"time":290221.93199999805,"duration":166.66649999999208,"noteNumber":55,"velocity":55,"programNumber":44},{"time":290444.15399999806,"duration":166.66649999999208,"noteNumber":55,"velocity":55,"programNumber":44},{"time":290666.37599999807,"duration":166.66649999999208,"noteNumber":57,"velocity":55,"programNumber":44},{"time":290888.5979999981,"duration":166.66649999999208,"noteNumber":57,"velocity":55,"programNumber":44},{"time":291110.8199999981,"duration":166.66649999999208,"noteNumber":54,"velocity":55,"programNumber":44},{"time":291333.0419999981,"duration":166.66649999999208,"noteNumber":54,"velocity":55,"programNumber":44},{"time":291555.2639999981,"duration":166.66649999999208,"noteNumber":55,"velocity":55,"programNumber":44},{"time":291777.4859999981,"duration":166.66649999999208,"noteNumber":55,"velocity":55,"programNumber":44},{"time":291999.7079999981,"duration":166.66649999999208,"noteNumber":57,"velocity":55,"programNumber":44},{"time":292221.92999999813,"duration":166.66649999999208,"noteNumber":57,"velocity":55,"programNumber":44},{"time":292444.15199999814,"duration":166.66649999999208,"noteNumber":59,"velocity":55,"programNumber":44},{"time":292666.37399999815,"duration":166.66649999999208,"noteNumber":59,"velocity":55,"programNumber":44},{"time":292888.59599999816,"duration":166.66649999999208,"noteNumber":55,"velocity":55,"programNumber":44},{"time":293110.81799999817,"duration":166.66649999999208,"noteNumber":55,"velocity":55,"programNumber":44},{"time":293333.0399999982,"duration":166.66649999999208,"noteNumber":54,"velocity":55,"programNumber":44},{"time":293555.2619999982,"duration":166.66649999999208,"noteNumber":54,"velocity":55,"programNumber":44},{"time":293777.4839999982,"duration":166.66649999999208,"noteNumber":55,"velocity":55,"programNumber":44},{"time":293999.7059999982,"duration":166.66649999999208,"noteNumber":55,"velocity":55,"programNumber":44},{"time":294221.9279999982,"duration":166.66649999999208,"noteNumber":57,"velocity":55,"programNumber":44},{"time":294444.1499999982,"duration":166.66649999999208,"noteNumber":57,"velocity":55,"programNumber":44},{"time":294666.3719999982,"duration":166.66649999999208,"noteNumber":54,"velocity":55,"programNumber":44},{"time":294888.59399999824,"duration":166.66649999999208,"noteNumber":54,"velocity":55,"programNumber":44},{"time":295110.81599999825,"duration":166.66649999999208,"noteNumber":55,"velocity":55,"programNumber":44},{"time":295333.03799999825,"duration":166.66649999999208,"noteNumber":67,"velocity":83,"programNumber":44},{"time":295555.25999999826,"duration":166.66649999999208,"noteNumber":71,"velocity":83,"programNumber":44},{"time":295777.4819999983,"duration":166.66649999999208,"noteNumber":69,"velocity":83,"programNumber":44},{"time":295999.7039999983,"duration":166.66649999999208,"noteNumber":68,"velocity":83,"programNumber":44},{"time":296221.9259999983,"duration":166.66649999999208,"noteNumber":64,"velocity":83,"programNumber":44},{"time":296444.1479999983,"duration":166.66649999999208,"noteNumber":66,"velocity":83,"programNumber":44},{"time":296666.3699999983,"duration":166.66649999999208,"noteNumber":67,"velocity":83,"programNumber":44},{"time":296888.5919999983,"duration":166.66649999999208,"noteNumber":69,"velocity":83,"programNumber":44},{"time":297110.8139999983,"duration":166.66649999999208,"noteNumber":72,"velocity":83,"programNumber":44},{"time":297333.03599999833,"duration":166.66649999999208,"noteNumber":69,"velocity":85,"programNumber":44},{"time":297555.25799999834,"duration":166.66649999999208,"noteNumber":67,"velocity":85,"programNumber":44},{"time":297777.47999999835,"duration":166.66649999999208,"noteNumber":66,"velocity":85,"programNumber":44},{"time":297999.70199999836,"duration":166.66649999999208,"noteNumber":62,"velocity":86,"programNumber":44},{"time":298221.92399999837,"duration":166.66649999999208,"noteNumber":64,"velocity":85,"programNumber":44},{"time":298444.1459999984,"duration":166.66649999999208,"noteNumber":66,"velocity":85,"programNumber":44},{"time":298666.3679999984,"duration":166.66649999999208,"noteNumber":67,"velocity":85,"programNumber":44},{"time":298888.5899999984,"duration":166.66649999999208,"noteNumber":67,"velocity":85,"programNumber":44},{"time":299110.8119999984,"duration":166.66649999999208,"noteNumber":67,"velocity":85,"programNumber":44},{"time":299333.0339999984,"duration":166.66649999999208,"noteNumber":67,"velocity":85,"programNumber":44},{"time":299555.2559999984,"duration":166.66649999999208,"noteNumber":67,"velocity":85,"programNumber":44},{"time":299777.47799999843,"duration":166.66649999999208,"noteNumber":67,"velocity":85,"programNumber":44},{"time":299999.69999999844,"duration":166.66649999999208,"noteNumber":67,"velocity":85,"programNumber":44},{"time":300221.92199999845,"duration":166.66649999999208,"noteNumber":67,"velocity":85,"programNumber":44},{"time":300444.14399999846,"duration":222.22200000000885,"noteNumber":67,"velocity":85,"programNumber":44},{"time":300666.36599999847,"duration":166.66649999999208,"noteNumber":62,"velocity":85,"programNumber":44},{"time":300888.5879999985,"duration":111.11099999997532,"noteNumber":62,"velocity":85,"programNumber":44},{"time":301110.8099999984,"duration":111.11099999997532,"noteNumber":62,"velocity":85,"programNumber":44},{"time":301333.0319999984,"duration":166.66649999999208,"noteNumber":62,"velocity":85,"programNumber":44},{"time":301555.2539999984,"duration":166.66649999999208,"noteNumber":62,"velocity":85,"programNumber":44},{"time":301777.4759999984,"duration":166.66649999999208,"noteNumber":62,"velocity":85,"programNumber":44},{"time":301999.6979999984,"duration":166.66649999999208,"noteNumber":60,"velocity":85,"programNumber":44},{"time":302221.9199999984,"duration":166.66649999999208,"noteNumber":55,"velocity":85,"programNumber":44},{"time":302444.1419999984,"duration":166.66649999999208,"noteNumber":55,"velocity":53,"programNumber":44},{"time":302666.36399999843,"duration":166.66649999999208,"noteNumber":57,"velocity":53,"programNumber":44},{"time":302888.58599999844,"duration":166.66649999999208,"noteNumber":57,"velocity":53,"programNumber":44},{"time":303110.80799999845,"duration":166.66649999999208,"noteNumber":59,"velocity":53,"programNumber":44},{"time":303333.02999999846,"duration":166.66649999999208,"noteNumber":59,"velocity":53,"programNumber":44},{"time":303555.25199999847,"duration":166.66649999999208,"noteNumber":55,"velocity":53,"programNumber":44},{"time":303777.4739999985,"duration":166.66649999999208,"noteNumber":55,"velocity":53,"programNumber":44},{"time":303999.6959999985,"duration":166.66649999999208,"noteNumber":54,"velocity":55,"programNumber":44},{"time":304221.9179999985,"duration":166.66649999999208,"noteNumber":54,"velocity":55,"programNumber":44},{"time":304444.1399999985,"duration":166.66649999999208,"noteNumber":55,"velocity":55,"programNumber":44},{"time":304666.3619999985,"duration":166.66649999999208,"noteNumber":55,"velocity":55,"programNumber":44},{"time":304888.5839999985,"duration":166.66649999999208,"noteNumber":57,"velocity":55,"programNumber":44},{"time":305110.8059999985,"duration":166.66649999999208,"noteNumber":57,"velocity":55,"programNumber":44},{"time":305333.02799999854,"duration":166.66649999999208,"noteNumber":54,"velocity":55,"programNumber":44},{"time":305555.24999999854,"duration":166.66649999999208,"noteNumber":54,"velocity":55,"programNumber":44},{"time":305777.47199999855,"duration":166.66649999999208,"noteNumber":55,"velocity":55,"programNumber":44},{"time":305999.69399999856,"duration":166.66649999999208,"noteNumber":67,"velocity":55,"programNumber":44},{"time":306221.9159999986,"duration":166.66649999999208,"noteNumber":69,"velocity":55,"programNumber":44},{"time":306444.1379999986,"duration":166.66649999999208,"noteNumber":69,"velocity":55,"programNumber":44},{"time":306666.3599999986,"duration":166.66649999999208,"noteNumber":71,"velocity":55,"programNumber":44},{"time":306888.5819999986,"duration":166.66649999999208,"noteNumber":71,"velocity":55,"programNumber":44},{"time":307110.8039999986,"duration":166.66649999999208,"noteNumber":67,"velocity":55,"programNumber":44},{"time":307333.0259999986,"duration":166.66649999999208,"noteNumber":67,"velocity":55,"programNumber":44},{"time":307555.2479999986,"duration":166.66649999999208,"noteNumber":66,"velocity":55,"programNumber":44},{"time":307777.46999999863,"duration":166.66649999999208,"noteNumber":66,"velocity":55,"programNumber":44},{"time":307999.69199999864,"duration":166.66649999999208,"noteNumber":67,"velocity":55,"programNumber":44},{"time":308221.91399999865,"duration":166.66649999999208,"noteNumber":67,"velocity":55,"programNumber":44},{"time":308444.13599999866,"duration":166.66649999999208,"noteNumber":69,"velocity":55,"programNumber":44},{"time":308666.35799999867,"duration":166.66649999999208,"noteNumber":69,"velocity":55,"programNumber":44},{"time":308888.5799999987,"duration":166.66649999999208,"noteNumber":66,"velocity":55,"programNumber":44},{"time":309110.8019999987,"duration":166.66649999999208,"noteNumber":66,"velocity":55,"programNumber":44},{"time":309333.0239999987,"duration":166.66649999999208,"noteNumber":67,"velocity":55,"programNumber":44},{"time":309555.2459999987,"duration":166.66649999999208,"noteNumber":67,"velocity":85,"programNumber":44},{"time":309777.4679999987,"duration":166.66649999999208,"noteNumber":71,"velocity":85,"programNumber":44},{"time":309999.6899999987,"duration":166.66649999999208,"noteNumber":69,"velocity":85,"programNumber":44},{"time":310221.91199999873,"duration":166.66649999999208,"noteNumber":68,"velocity":85,"programNumber":44},{"time":310444.13399999874,"duration":166.66649999999208,"noteNumber":64,"velocity":85,"programNumber":44},{"time":310666.35599999875,"duration":166.66649999999208,"noteNumber":66,"velocity":85,"programNumber":44},{"time":310888.57799999876,"duration":166.66649999999208,"noteNumber":67,"velocity":85,"programNumber":44},{"time":311110.79999999877,"duration":166.66649999999208,"noteNumber":69,"velocity":85,"programNumber":44},{"time":311333.0219999988,"duration":166.66649999999208,"noteNumber":72,"velocity":85,"programNumber":44},{"time":311555.2439999988,"duration":166.66649999999208,"noteNumber":69,"velocity":85,"programNumber":44},{"time":311777.4659999988,"duration":166.66649999999208,"noteNumber":67,"velocity":85,"programNumber":44},{"time":311999.6879999988,"duration":166.66649999999208,"noteNumber":66,"velocity":85,"programNumber":44},{"time":312221.9099999988,"duration":166.66649999999208,"noteNumber":62,"velocity":85,"programNumber":44},{"time":312444.1319999988,"duration":166.66649999999208,"noteNumber":64,"velocity":85,"programNumber":44},{"time":312666.3539999988,"duration":166.66649999999208,"noteNumber":66,"velocity":85,"programNumber":44},{"time":312888.57599999884,"duration":166.66649999999208,"noteNumber":67,"velocity":85,"programNumber":44},{"time":313110.79799999885,"duration":166.66649999999208,"noteNumber":67,"velocity":85,"programNumber":44},{"time":313333.01999999885,"duration":166.66649999999208,"noteNumber":67,"velocity":85,"programNumber":44},{"time":313555.24199999886,"duration":166.66649999999208,"noteNumber":67,"velocity":85,"programNumber":44},{"time":313777.4639999989,"duration":166.66649999999208,"noteNumber":67,"velocity":85,"programNumber":44},{"time":313999.6859999989,"duration":166.66649999999208,"noteNumber":67,"velocity":85,"programNumber":44},{"time":314221.9079999989,"duration":166.66649999999208,"noteNumber":67,"velocity":85,"programNumber":44},{"time":314444.1299999989,"duration":166.66649999999208,"noteNumber":67,"velocity":85,"programNumber":44},{"time":314666.3519999989,"duration":166.66649999999208,"noteNumber":67,"velocity":85,"programNumber":44},{"time":314888.5739999989,"duration":166.66649999999208,"noteNumber":71,"velocity":85,"programNumber":44},{"time":315110.7959999989,"duration":166.66649999999208,"noteNumber":74,"velocity":85,"programNumber":44},{"time":315333.01799999893,"duration":166.66649999999208,"noteNumber":74,"velocity":85,"programNumber":44},{"time":315555.23999999894,"duration":166.66649999999208,"noteNumber":74,"velocity":85,"programNumber":44},{"time":315777.46199999895,"duration":166.66649999999208,"noteNumber":74,"velocity":85,"programNumber":44},{"time":315999.68399999896,"duration":166.66649999999208,"noteNumber":74,"velocity":85,"programNumber":44},{"time":316221.90599999897,"duration":166.66649999999208,"noteNumber":72,"velocity":85,"programNumber":44},{"time":316451.53539999895,"duration":166.66649999999208,"noteNumber":71,"velocity":85,"programNumber":44},{"time":316673.75739999895,"duration":166.66649999999208,"noteNumber":62,"velocity":85,"programNumber":44},{"time":316895.97939999896,"duration":166.66649999999208,"noteNumber":64,"velocity":85,"programNumber":44},{"time":317118.201399999,"duration":166.66649999999208,"noteNumber":66,"velocity":85,"programNumber":44},{"time":317340.423399999,"duration":166.66649999999208,"noteNumber":67,"velocity":85,"programNumber":44},{"time":317562.645399999,"duration":166.66649999999208,"noteNumber":67,"velocity":85,"programNumber":44},{"time":317784.867399999,"duration":166.66649999999208,"noteNumber":69,"velocity":85,"programNumber":44},{"time":318007.089399999,"duration":166.66649999999208,"noteNumber":69,"velocity":85,"programNumber":44},{"time":318229.311399999,"duration":166.66649999999208,"noteNumber":71,"velocity":85,"programNumber":44},{"time":318451.533399999,"duration":166.66649999999208,"noteNumber":54,"velocity":85,"programNumber":44},{"time":318673.75539999903,"duration":166.66649999999208,"noteNumber":55,"velocity":85,"programNumber":44},{"time":318895.97739999904,"duration":166.66649999999208,"noteNumber":57,"velocity":85,"programNumber":44},{"time":319118.19939999905,"duration":166.66649999999208,"noteNumber":59,"velocity":85,"programNumber":44},{"time":319340.42139999906,"duration":166.66649999999208,"noteNumber":59,"velocity":85,"programNumber":44},{"time":319562.64339999907,"duration":166.66649999999208,"noteNumber":60,"velocity":85,"programNumber":44},{"time":319784.8653999991,"duration":166.66649999999208,"noteNumber":60,"velocity":85,"programNumber":44},{"time":319999.67999999906,"duration":166.66649999999208,"noteNumber":62,"velocity":85,"programNumber":44},{"time":320221.90199999907,"duration":166.66649999999208,"noteNumber":62,"velocity":85,"programNumber":44},{"time":320444.1239999991,"duration":166.66649999999208,"noteNumber":63,"velocity":85,"programNumber":44},{"time":320666.3459999991,"duration":166.66649999999208,"noteNumber":63,"velocity":85,"programNumber":44},{"time":320888.5679999991,"duration":444.4440000000177,"noteNumber":64,"velocity":85,"programNumber":44},{"time":321777.45599999913,"duration":1333.3319999999949,"noteNumber":57,"velocity":70,"programNumber":44},{"time":323110.7879999991,"duration":222.22200000000885,"noteNumber":55,"velocity":70,"programNumber":44},{"time":323333.00999999914,"duration":222.22200000000885,"noteNumber":54,"velocity":70,"programNumber":44},{"time":323555.23199999915,"duration":444.4440000000177,"noteNumber":55,"velocity":70,"programNumber":44},{"time":325333.00799999916,"duration":1333.3319999999949,"noteNumber":57,"velocity":70,"programNumber":44},{"time":326666.33999999915,"duration":222.22200000000885,"noteNumber":55,"velocity":70,"programNumber":44},{"time":326888.56199999916,"duration":222.22200000000885,"noteNumber":54,"velocity":70,"programNumber":44},{"time":327110.78399999917,"duration":444.4440000000177,"noteNumber":55,"velocity":70,"programNumber":44},{"time":327999.6719999992,"duration":444.4440000000177,"noteNumber":67,"velocity":70,"programNumber":44},{"time":328888.55999999924,"duration":444.4440000000177,"noteNumber":64,"velocity":92,"programNumber":44},{"time":329777.4479999993,"duration":444.4440000000177,"noteNumber":69,"velocity":111,"programNumber":44},{"time":329777.4479999993,"duration":444.4440000000177,"noteNumber":62,"velocity":111,"programNumber":44},{"time":330666.3359999993,"duration":74.07400000002235,"noteNumber":55,"velocity":97,"programNumber":44},{"time":330777.44699999935,"duration":74.07400000002235,"noteNumber":55,"velocity":94,"programNumber":44},{"time":330888.5579999994,"duration":74.07400000002235,"noteNumber":55,"velocity":93,"programNumber":44},{"time":330999.6689999994,"duration":74.07400000002235,"noteNumber":55,"velocity":92,"programNumber":44},{"time":331110.77999999945,"duration":74.07400000002235,"noteNumber":55,"velocity":90,"programNumber":44},{"time":331221.8909999995,"duration":74.07400000002235,"noteNumber":55,"velocity":90,"programNumber":44},{"time":331333.0019999995,"duration":74.07400000002235,"noteNumber":55,"velocity":90,"programNumber":44},{"time":331444.11299999955,"duration":74.07400000002235,"noteNumber":55,"velocity":90,"programNumber":44},{"time":331555.2239999996,"duration":74.07400000002235,"noteNumber":55,"velocity":88,"programNumber":44},{"time":331666.3349999996,"duration":74.07400000002235,"noteNumber":55,"velocity":88,"programNumber":44},{"time":331777.44599999965,"duration":74.07400000002235,"noteNumber":55,"velocity":90,"programNumber":44},{"time":331888.5569999997,"duration":74.07400000002235,"noteNumber":55,"velocity":90,"programNumber":44},{"time":331999.6679999997,"duration":74.07400000002235,"noteNumber":55,"velocity":88,"programNumber":44},{"time":332110.77899999975,"duration":74.07400000002235,"noteNumber":55,"velocity":87,"programNumber":44},{"time":332221.8899999998,"duration":74.07400000002235,"noteNumber":55,"velocity":87,"programNumber":44},{"time":332333.0009999998,"duration":74.07400000002235,"noteNumber":55,"velocity":86,"programNumber":44},{"time":332444.11199999985,"duration":74.07400000002235,"noteNumber":55,"velocity":86,"programNumber":44},{"time":332555.2229999999,"duration":74.07400000002235,"noteNumber":55,"velocity":86,"programNumber":44},{"time":332666.3339999999,"duration":74.07400000002235,"noteNumber":55,"velocity":87,"programNumber":44},{"time":332777.44499999995,"duration":74.07400000002235,"noteNumber":55,"velocity":89,"programNumber":44},{"time":332888.556,"duration":74.07400000002235,"noteNumber":55,"velocity":90,"programNumber":44},{"time":332999.667,"duration":74.07400000002235,"noteNumber":55,"velocity":90,"programNumber":44},{"time":333110.77800000005,"duration":74.07400000002235,"noteNumber":55,"velocity":90,"programNumber":44},{"time":333221.8890000001,"duration":74.07400000002235,"noteNumber":55,"velocity":89,"programNumber":44},{"time":333333.0000000001,"duration":74.07400000002235,"noteNumber":55,"velocity":85,"programNumber":44},{"time":333444.11100000015,"duration":74.07400000002235,"noteNumber":55,"velocity":87,"programNumber":44},{"time":333555.2220000002,"duration":74.07400000002235,"noteNumber":55,"velocity":87,"programNumber":44},{"time":333666.3330000002,"duration":74.07400000002235,"noteNumber":55,"velocity":88,"programNumber":44},{"time":333777.44400000025,"duration":74.07400000002235,"noteNumber":57,"velocity":89,"programNumber":44},{"time":333888.5550000003,"duration":74.07400000002235,"noteNumber":57,"velocity":90,"programNumber":44},{"time":333999.6660000003,"duration":74.07400000002235,"noteNumber":57,"velocity":90,"programNumber":44},{"time":334110.77700000035,"duration":74.07400000002235,"noteNumber":57,"velocity":90,"programNumber":44},{"time":334221.8880000004,"duration":74.07400000002235,"noteNumber":55,"velocity":90,"programNumber":44},{"time":334332.9990000004,"duration":74.07400000002235,"noteNumber":55,"velocity":90,"programNumber":44},{"time":334444.11000000045,"duration":74.07400000002235,"noteNumber":55,"velocity":90,"programNumber":44},{"time":334555.2210000005,"duration":74.07400000002235,"noteNumber":55,"velocity":90,"programNumber":44},{"time":334666.3320000005,"duration":74.07400000002235,"noteNumber":55,"velocity":90,"programNumber":44},{"time":334777.44300000055,"duration":74.07400000002235,"noteNumber":55,"velocity":90,"programNumber":44},{"time":334888.5540000006,"duration":74.07400000002235,"noteNumber":55,"velocity":90,"programNumber":44},{"time":334999.6650000006,"duration":74.07400000002235,"noteNumber":55,"velocity":90,"programNumber":44},{"time":335110.77600000065,"duration":74.07400000002235,"noteNumber":55,"velocity":89,"programNumber":44},{"time":335221.8870000007,"duration":74.07400000002235,"noteNumber":55,"velocity":89,"programNumber":44},{"time":335332.9980000007,"duration":74.07400000002235,"noteNumber":55,"velocity":89,"programNumber":44},{"time":335444.10900000075,"duration":74.07400000002235,"noteNumber":55,"velocity":89,"programNumber":44},{"time":335555.2200000008,"duration":74.07400000002235,"noteNumber":55,"velocity":89,"programNumber":44},{"time":335666.3310000008,"duration":74.07400000002235,"noteNumber":55,"velocity":90,"programNumber":44},{"time":335777.44200000085,"duration":74.07400000002235,"noteNumber":55,"velocity":95,"programNumber":44},{"time":335888.5530000009,"duration":74.07400000002235,"noteNumber":55,"velocity":96,"programNumber":44},{"time":335999.6640000009,"duration":74.07400000002235,"noteNumber":55,"velocity":97,"programNumber":44},{"time":336110.77500000095,"duration":74.07400000002235,"noteNumber":55,"velocity":98,"programNumber":44},{"time":336221.886000001,"duration":74.07400000002235,"noteNumber":55,"velocity":99,"programNumber":44},{"time":336332.997000001,"duration":74.07400000002235,"noteNumber":55,"velocity":99,"programNumber":44},{"time":336444.10800000106,"duration":74.07400000002235,"noteNumber":55,"velocity":99,"programNumber":44},{"time":336555.2190000011,"duration":74.07400000002235,"noteNumber":55,"velocity":99,"programNumber":44},{"time":336666.3300000011,"duration":74.07400000002235,"noteNumber":55,"velocity":99,"programNumber":44},{"time":336777.44100000116,"duration":74.07400000002235,"noteNumber":55,"velocity":99,"programNumber":44},{"time":336888.5520000012,"duration":74.07400000002235,"noteNumber":55,"velocity":97,"programNumber":44},{"time":336999.6630000012,"duration":74.07400000002235,"noteNumber":55,"velocity":97,"programNumber":44},{"time":337110.77400000126,"duration":74.07400000002235,"noteNumber":55,"velocity":96,"programNumber":44},{"time":337221.8850000013,"duration":74.07400000002235,"noteNumber":55,"velocity":94,"programNumber":44},{"time":337332.9960000013,"duration":74.07400000002235,"noteNumber":57,"velocity":94,"programNumber":44},{"time":337444.10700000136,"duration":74.07400000002235,"noteNumber":57,"velocity":94,"programNumber":44},{"time":337555.2180000014,"duration":74.07400000002235,"noteNumber":57,"velocity":95,"programNumber":44},{"time":337666.3290000014,"duration":74.07400000002235,"noteNumber":57,"velocity":95,"programNumber":44},{"time":337777.44000000146,"duration":166.66649999999208,"noteNumber":55,"velocity":96,"programNumber":44},{"time":337999.66200000147,"duration":166.66649999999208,"noteNumber":59,"velocity":103,"programNumber":44},{"time":338221.8840000015,"duration":166.66649999999208,"noteNumber":62,"velocity":103,"programNumber":44},{"time":338444.1060000015,"duration":166.66649999999208,"noteNumber":67,"velocity":103,"programNumber":44},{"time":338666.3280000015,"duration":166.66649999999208,"noteNumber":71,"velocity":103,"programNumber":44},{"time":338888.5500000015,"duration":166.66649999999208,"noteNumber":67,"velocity":103,"programNumber":44},{"time":339110.7720000015,"duration":166.66649999999208,"noteNumber":74,"velocity":103,"programNumber":44},{"time":339332.9940000015,"duration":166.66649999999208,"noteNumber":71,"velocity":103,"programNumber":44},{"time":339566.3271000015,"duration":370.36999999999534,"noteNumber":67,"velocity":103,"programNumber":44},{"time":340010.7711000015,"duration":222.22200000000885,"noteNumber":55,"velocity":103,"programNumber":44},{"time":340344.1041000015,"duration":55.555500000016764,"noteNumber":55,"velocity":103,"programNumber":44},{"time":340455.21510000154,"duration":444.4440000000177,"noteNumber":55,"velocity":103,"programNumber":44}],[{"time":0,"duration":444.444,"noteNumber":55,"velocity":85,"programNumber":50},{"time":666.666,"duration":111.11099999999999,"noteNumber":50,"velocity":85,"programNumber":50},{"time":888.888,"duration":444.4440000000001,"noteNumber":55,"velocity":85,"programNumber":50},{"time":1555.554,"duration":111.1110000000001,"noteNumber":50,"velocity":85,"programNumber":50},{"time":1777.7760000000003,"duration":111.1110000000001,"noteNumber":55,"velocity":85,"programNumber":50},{"time":1999.9980000000005,"duration":111.11099999999988,"noteNumber":50,"velocity":85,"programNumber":50},{"time":2222.2200000000003,"duration":111.11099999999988,"noteNumber":55,"velocity":85,"programNumber":50},{"time":2444.442,"duration":111.11099999999988,"noteNumber":59,"velocity":85,"programNumber":50},{"time":2666.6639999999998,"duration":444.44399999999996,"noteNumber":62,"velocity":85,"programNumber":50},{"time":3555.5519999999997,"duration":444.44399999999996,"noteNumber":60,"velocity":85,"programNumber":50},{"time":4222.218,"duration":111.11099999999988,"noteNumber":57,"velocity":85,"programNumber":50},{"time":4444.44,"duration":444.4440000000004,"noteNumber":60,"velocity":85,"programNumber":50},{"time":5111.106,"duration":111.11099999999988,"noteNumber":57,"velocity":85,"programNumber":50},{"time":5333.3279999999995,"duration":111.11099999999988,"noteNumber":60,"velocity":85,"programNumber":50},{"time":5555.549999999999,"duration":111.11099999999988,"noteNumber":57,"velocity":85,"programNumber":50},{"time":5777.771999999999,"duration":111.11099999999988,"noteNumber":54,"velocity":85,"programNumber":50},{"time":5999.993999999999,"duration":111.11099999999988,"noteNumber":57,"velocity":85,"programNumber":50},{"time":6222.2159999999985,"duration":444.4440000000004,"noteNumber":50,"velocity":85,"programNumber":50},{"time":7111.103999999999,"duration":166.66650000000027,"noteNumber":55,"velocity":85,"programNumber":50},{"time":7333.326,"duration":166.66650000000027,"noteNumber":55,"velocity":85,"programNumber":50},{"time":7555.548000000001,"duration":166.66650000000027,"noteNumber":55,"velocity":85,"programNumber":50},{"time":7777.770000000001,"duration":166.66650000000027,"noteNumber":55,"velocity":85,"programNumber":50},{"time":7999.992000000002,"duration":166.66650000000027,"noteNumber":55,"velocity":85,"programNumber":50},{"time":8222.214000000002,"duration":166.66649999999936,"noteNumber":55,"velocity":85,"programNumber":50},{"time":8444.436000000002,"duration":166.66649999999936,"noteNumber":55,"velocity":85,"programNumber":50},{"time":8666.658000000001,"duration":166.66649999999936,"noteNumber":55,"velocity":85,"programNumber":50},{"time":8888.880000000001,"duration":166.66649999999936,"noteNumber":55,"velocity":85,"programNumber":50},{"time":9111.102,"duration":166.66649999999936,"noteNumber":55,"velocity":85,"programNumber":50},{"time":9333.324,"duration":166.66649999999936,"noteNumber":55,"velocity":85,"programNumber":50},{"time":9555.546,"duration":166.66649999999936,"noteNumber":55,"velocity":85,"programNumber":50},{"time":9777.768,"duration":166.66649999999936,"noteNumber":55,"velocity":85,"programNumber":50},{"time":9999.99,"duration":166.66649999999936,"noteNumber":55,"velocity":85,"programNumber":50},{"time":10222.212,"duration":166.66649999999936,"noteNumber":55,"velocity":85,"programNumber":50},{"time":10444.434,"duration":166.66649999999936,"noteNumber":55,"velocity":85,"programNumber":50},{"time":10666.655999999999,"duration":166.66649999999936,"noteNumber":55,"velocity":85,"programNumber":50},{"time":10888.877999999999,"duration":166.66649999999936,"noteNumber":55,"velocity":85,"programNumber":50},{"time":11111.099999999999,"duration":166.66649999999936,"noteNumber":55,"velocity":85,"programNumber":50},{"time":11333.321999999998,"duration":166.66649999999936,"noteNumber":55,"velocity":85,"programNumber":50},{"time":11555.543999999998,"duration":166.66649999999936,"noteNumber":55,"velocity":85,"programNumber":50},{"time":11777.765999999998,"duration":166.66649999999936,"noteNumber":55,"velocity":85,"programNumber":50},{"time":11999.987999999998,"duration":166.66649999999936,"noteNumber":55,"velocity":85,"programNumber":50},{"time":12222.209999999997,"duration":166.66649999999936,"noteNumber":55,"velocity":85,"programNumber":50},{"time":12444.431999999997,"duration":166.66649999999936,"noteNumber":55,"velocity":85,"programNumber":50},{"time":12666.653999999997,"duration":166.66649999999936,"noteNumber":55,"velocity":85,"programNumber":50},{"time":12888.875999999997,"duration":166.66649999999936,"noteNumber":55,"velocity":85,"programNumber":50},{"time":13111.097999999996,"duration":166.66649999999936,"noteNumber":55,"velocity":85,"programNumber":50},{"time":13333.319999999996,"duration":166.66649999999936,"noteNumber":55,"velocity":85,"programNumber":50},{"time":13555.541999999996,"duration":166.66649999999936,"noteNumber":55,"velocity":85,"programNumber":50},{"time":13777.763999999996,"duration":166.66649999999936,"noteNumber":55,"velocity":85,"programNumber":50},{"time":13999.985999999995,"duration":166.66649999999936,"noteNumber":55,"velocity":85,"programNumber":50},{"time":14222.207999999995,"duration":166.66649999999936,"noteNumber":55,"velocity":85,"programNumber":50},{"time":14444.429999999995,"duration":166.66649999999936,"noteNumber":55,"velocity":85,"programNumber":50},{"time":14666.651999999995,"duration":166.66649999999936,"noteNumber":57,"velocity":85,"programNumber":50},{"time":14888.873999999994,"duration":166.66649999999936,"noteNumber":57,"velocity":85,"programNumber":50},{"time":15111.095999999994,"duration":166.66649999999936,"noteNumber":59,"velocity":85,"programNumber":50},{"time":15333.317999999994,"duration":166.66649999999936,"noteNumber":59,"velocity":85,"programNumber":50},{"time":15555.539999999994,"duration":166.66649999999936,"noteNumber":54,"velocity":85,"programNumber":50},{"time":15777.761999999993,"duration":166.66649999999936,"noteNumber":54,"velocity":85,"programNumber":50},{"time":15999.983999999993,"duration":166.66649999999936,"noteNumber":55,"velocity":85,"programNumber":50},{"time":16222.205999999993,"duration":166.66650000000118,"noteNumber":55,"velocity":85,"programNumber":50},{"time":16444.427999999993,"duration":166.66649999999936,"noteNumber":57,"velocity":85,"programNumber":50},{"time":16666.64999999999,"duration":166.66649999999936,"noteNumber":57,"velocity":85,"programNumber":50},{"time":16888.87199999999,"duration":444.4439999999995,"noteNumber":59,"velocity":85,"programNumber":50},{"time":19555.53599999999,"duration":888.887999999999,"noteNumber":50,"velocity":47,"programNumber":50},{"time":20444.423999999988,"duration":888.887999999999,"noteNumber":52,"velocity":47,"programNumber":50},{"time":21333.311999999987,"duration":333.3329999999987,"noteNumber":48,"velocity":47,"programNumber":50},{"time":21777.755999999987,"duration":333.3329999999987,"noteNumber":48,"velocity":47,"programNumber":50},{"time":22222.199999999986,"duration":333.3329999999987,"noteNumber":50,"velocity":47,"programNumber":50},{"time":22666.643999999986,"duration":333.3329999999987,"noteNumber":50,"velocity":47,"programNumber":50},{"time":23111.087999999985,"duration":222.22200000000157,"noteNumber":47,"velocity":47,"programNumber":50},{"time":23555.53199999999,"duration":222.22200000000157,"noteNumber":50,"velocity":47,"programNumber":50},{"time":23999.97599999999,"duration":444.4439999999995,"noteNumber":55,"velocity":47,"programNumber":50},{"time":26666.639999999992,"duration":888.887999999999,"noteNumber":50,"velocity":47,"programNumber":50},{"time":27555.52799999999,"duration":888.887999999999,"noteNumber":52,"velocity":47,"programNumber":50},{"time":28444.41599999999,"duration":333.3329999999987,"noteNumber":48,"velocity":47,"programNumber":50},{"time":28888.85999999999,"duration":333.3329999999987,"noteNumber":48,"velocity":47,"programNumber":50},{"time":29333.30399999999,"duration":333.3329999999987,"noteNumber":50,"velocity":47,"programNumber":50},{"time":29777.74799999999,"duration":333.3329999999987,"noteNumber":50,"velocity":47,"programNumber":50},{"time":30222.19199999999,"duration":166.66649999999936,"noteNumber":55,"velocity":91,"programNumber":50},{"time":30444.413999999986,"duration":166.66649999999936,"noteNumber":55,"velocity":83,"programNumber":50},{"time":30666.635999999984,"duration":166.66649999999936,"noteNumber":55,"velocity":83,"programNumber":50},{"time":30888.857999999982,"duration":166.66649999999936,"noteNumber":55,"velocity":83,"programNumber":50},{"time":31111.07999999998,"duration":166.66649999999936,"noteNumber":55,"velocity":59,"programNumber":50},{"time":31333.301999999978,"duration":166.66649999999936,"noteNumber":55,"velocity":59,"programNumber":50},{"time":31555.523999999976,"duration":166.66649999999936,"noteNumber":55,"velocity":59,"programNumber":50},{"time":31777.745999999974,"duration":166.66649999999936,"noteNumber":55,"velocity":59,"programNumber":50},{"time":31999.96799999997,"duration":166.66649999999936,"noteNumber":55,"velocity":92,"programNumber":50},{"time":32222.18999999997,"duration":166.66649999999936,"noteNumber":55,"velocity":79,"programNumber":50},{"time":32444.411999999968,"duration":166.66649999999936,"noteNumber":55,"velocity":79,"programNumber":50},{"time":32666.633999999965,"duration":166.666500000003,"noteNumber":55,"velocity":79,"programNumber":50},{"time":32888.85599999997,"duration":166.66649999999936,"noteNumber":55,"velocity":59,"programNumber":50},{"time":33111.07799999997,"duration":166.66649999999936,"noteNumber":55,"velocity":59,"programNumber":50},{"time":33333.299999999974,"duration":166.66649999999936,"noteNumber":55,"velocity":59,"programNumber":50},{"time":33555.521999999975,"duration":166.66649999999936,"noteNumber":55,"velocity":59,"programNumber":50},{"time":33777.74399999998,"duration":166.66649999999936,"noteNumber":55,"velocity":59,"programNumber":50},{"time":33999.96599999998,"duration":166.66649999999936,"noteNumber":55,"velocity":40,"programNumber":50},{"time":34222.18799999998,"duration":166.66649999999936,"noteNumber":55,"velocity":43,"programNumber":50},{"time":34444.40999999998,"duration":166.66649999999936,"noteNumber":55,"velocity":46,"programNumber":50},{"time":34666.63199999998,"duration":166.66649999999936,"noteNumber":55,"velocity":49,"programNumber":50},{"time":34888.853999999985,"duration":166.66649999999936,"noteNumber":55,"velocity":52,"programNumber":50},{"time":35111.07599999999,"duration":166.66649999999936,"noteNumber":55,"velocity":55,"programNumber":50},{"time":35333.29799999999,"duration":166.66649999999936,"noteNumber":55,"velocity":58,"programNumber":50},{"time":35555.51999999999,"duration":166.66649999999936,"noteNumber":55,"velocity":61,"programNumber":50},{"time":35777.74199999999,"duration":166.66649999999936,"noteNumber":55,"velocity":64,"programNumber":50},{"time":35999.96399999999,"duration":166.66649999999936,"noteNumber":54,"velocity":67,"programNumber":50},{"time":36222.185999999994,"duration":166.66649999999936,"noteNumber":54,"velocity":70,"programNumber":50},{"time":36444.407999999996,"duration":166.66649999999936,"noteNumber":55,"velocity":73,"programNumber":50},{"time":36666.63,"duration":166.66649999999936,"noteNumber":55,"velocity":76,"programNumber":50},{"time":36888.852,"duration":166.66649999999936,"noteNumber":52,"velocity":79,"programNumber":50},{"time":37111.074,"duration":166.66649999999936,"noteNumber":52,"velocity":82,"programNumber":50},{"time":37333.296,"duration":166.66649999999936,"noteNumber":50,"velocity":85,"programNumber":50},{"time":37555.518000000004,"duration":166.66649999999936,"noteNumber":50,"velocity":85,"programNumber":50},{"time":37777.740000000005,"duration":166.66649999999936,"noteNumber":50,"velocity":85,"programNumber":50},{"time":37999.96200000001,"duration":166.66649999999936,"noteNumber":50,"velocity":85,"programNumber":50},{"time":38222.18400000001,"duration":166.66649999999936,"noteNumber":50,"velocity":85,"programNumber":50},{"time":38444.40600000001,"duration":166.66649999999936,"noteNumber":50,"velocity":85,"programNumber":50},{"time":38666.62800000001,"duration":166.66649999999936,"noteNumber":50,"velocity":85,"programNumber":50},{"time":38888.85000000001,"duration":166.66649999999936,"noteNumber":50,"velocity":85,"programNumber":50},{"time":39111.072000000015,"duration":166.66649999999936,"noteNumber":50,"velocity":85,"programNumber":50},{"time":39333.294000000016,"duration":166.66649999999936,"noteNumber":50,"velocity":85,"programNumber":50},{"time":39555.51600000002,"duration":166.66649999999936,"noteNumber":50,"velocity":85,"programNumber":50},{"time":39777.73800000002,"duration":166.66649999999936,"noteNumber":50,"velocity":85,"programNumber":50},{"time":39999.96000000002,"duration":166.66649999999936,"noteNumber":50,"velocity":85,"programNumber":50},{"time":40222.18200000002,"duration":166.66649999999936,"noteNumber":50,"velocity":85,"programNumber":50},{"time":40444.404000000024,"duration":166.66649999999936,"noteNumber":50,"velocity":85,"programNumber":50},{"time":40666.626000000026,"duration":166.66649999999936,"noteNumber":50,"velocity":85,"programNumber":50},{"time":40888.84800000003,"duration":166.66649999999936,"noteNumber":50,"velocity":85,"programNumber":50},{"time":41111.07000000003,"duration":166.66649999999936,"noteNumber":52,"velocity":85,"programNumber":50},{"time":41333.29200000003,"duration":166.66649999999936,"noteNumber":54,"velocity":85,"programNumber":50},{"time":41555.51400000003,"duration":166.66649999999936,"noteNumber":52,"velocity":85,"programNumber":50},{"time":41777.73600000003,"duration":166.66649999999936,"noteNumber":50,"velocity":85,"programNumber":50},{"time":41999.958000000035,"duration":166.66649999999936,"noteNumber":52,"velocity":85,"programNumber":50},{"time":42222.18000000004,"duration":166.66649999999936,"noteNumber":54,"velocity":85,"programNumber":50},{"time":42444.40200000004,"duration":166.66649999999936,"noteNumber":50,"velocity":85,"programNumber":50},{"time":42666.62400000004,"duration":166.66649999999936,"noteNumber":55,"velocity":85,"programNumber":50},{"time":42888.84600000004,"duration":166.66649999999936,"noteNumber":57,"velocity":85,"programNumber":50},{"time":43111.06800000004,"duration":166.66649999999936,"noteNumber":59,"velocity":85,"programNumber":50},{"time":43333.290000000045,"duration":166.66649999999936,"noteNumber":57,"velocity":85,"programNumber":50},{"time":43555.512000000046,"duration":166.66649999999936,"noteNumber":55,"velocity":85,"programNumber":50},{"time":43777.73400000005,"duration":166.66649999999936,"noteNumber":57,"velocity":85,"programNumber":50},{"time":43999.95600000005,"duration":166.66649999999936,"noteNumber":59,"velocity":85,"programNumber":50},{"time":44222.17800000005,"duration":166.66649999999936,"noteNumber":56,"velocity":85,"programNumber":50},{"time":44444.40000000005,"duration":166.66649999999936,"noteNumber":57,"velocity":85,"programNumber":50},{"time":44666.622000000054,"duration":166.66649999999936,"noteNumber":57,"velocity":85,"programNumber":50},{"time":44888.844000000056,"duration":166.66649999999936,"noteNumber":57,"velocity":85,"programNumber":50},{"time":45111.06600000006,"duration":166.66649999999936,"noteNumber":57,"velocity":85,"programNumber":50},{"time":45333.28800000006,"duration":166.66649999999936,"noteNumber":57,"velocity":85,"programNumber":50},{"time":45555.51000000006,"duration":166.66649999999936,"noteNumber":57,"velocity":85,"programNumber":50},{"time":45777.73200000006,"duration":166.66649999999936,"noteNumber":57,"velocity":85,"programNumber":50},{"time":45999.95400000006,"duration":166.66649999999936,"noteNumber":57,"velocity":85,"programNumber":50},{"time":46222.176000000065,"duration":166.66649999999936,"noteNumber":57,"velocity":85,"programNumber":50},{"time":46444.39800000007,"duration":166.66649999999936,"noteNumber":45,"velocity":85,"programNumber":50},{"time":46666.62000000007,"duration":166.66649999999936,"noteNumber":45,"velocity":85,"programNumber":50},{"time":46888.84200000007,"duration":166.66649999999936,"noteNumber":45,"velocity":85,"programNumber":50},{"time":47111.06400000007,"duration":444.44400000000314,"noteNumber":45,"velocity":85,"programNumber":50},{"time":49333.28400000007,"duration":222.22200000000157,"noteNumber":51,"velocity":55,"programNumber":50},{"time":49777.728000000076,"duration":222.22200000000157,"noteNumber":52,"velocity":55,"programNumber":50},{"time":50222.17200000008,"duration":222.22200000000157,"noteNumber":50,"velocity":55,"programNumber":50},{"time":50666.61600000008,"duration":222.22200000000157,"noteNumber":49,"velocity":55,"programNumber":50},{"time":51111.060000000085,"duration":222.22200000000157,"noteNumber":45,"velocity":55,"programNumber":50},{"time":51999.948000000084,"duration":444.44400000000314,"noteNumber":46,"velocity":55,"programNumber":50},{"time":52444.39200000009,"duration":222.22200000000157,"noteNumber":47,"velocity":55,"programNumber":50},{"time":52888.83600000009,"duration":222.22200000000157,"noteNumber":43,"velocity":55,"programNumber":50},{"time":53333.28000000009,"duration":333.3329999999987,"noteNumber":45,"velocity":55,"programNumber":50},{"time":53777.72400000009,"duration":666.6659999999974,"noteNumber":57,"velocity":55,"programNumber":50},{"time":54444.39000000009,"duration":222.22200000000157,"noteNumber":56,"velocity":55,"programNumber":50},{"time":54666.61200000009,"duration":222.22200000000157,"noteNumber":55,"velocity":55,"programNumber":50},{"time":54888.83400000009,"duration":222.22200000000157,"noteNumber":52,"velocity":55,"programNumber":50},{"time":55111.05600000009,"duration":222.22200000000157,"noteNumber":50,"velocity":55,"programNumber":50},{"time":55555.500000000095,"duration":222.22200000000157,"noteNumber":52,"velocity":55,"programNumber":50},{"time":55999.9440000001,"duration":222.22200000000157,"noteNumber":54,"velocity":55,"programNumber":50},{"time":56444.3880000001,"duration":222.22200000000157,"noteNumber":51,"velocity":55,"programNumber":50},{"time":56888.832000000104,"duration":222.22200000000157,"noteNumber":52,"velocity":55,"programNumber":50},{"time":57333.27600000011,"duration":222.22200000000157,"noteNumber":50,"velocity":55,"programNumber":50},{"time":57777.72000000011,"duration":222.22200000000157,"noteNumber":49,"velocity":55,"programNumber":50},{"time":58222.16400000011,"duration":222.22200000000157,"noteNumber":45,"velocity":55,"programNumber":50},{"time":58666.60800000012,"duration":222.22200000000157,"noteNumber":47,"velocity":55,"programNumber":50},{"time":59111.05200000012,"duration":222.22200000000157,"noteNumber":55,"velocity":55,"programNumber":50},{"time":59555.49600000012,"duration":222.22200000000157,"noteNumber":57,"velocity":55,"programNumber":50},{"time":59999.940000000126,"duration":222.22200000000157,"noteNumber":45,"velocity":55,"programNumber":50},{"time":60444.38400000013,"duration":444.44400000000314,"noteNumber":50,"velocity":55,"programNumber":50},{"time":62222.160000000134,"duration":444.44400000000314,"noteNumber":45,"velocity":55,"programNumber":50},{"time":63999.93600000014,"duration":444.44400000000314,"noteNumber":50,"velocity":55,"programNumber":50},{"time":65777.71200000015,"duration":444.44400000000314,"noteNumber":45,"velocity":55,"programNumber":50},{"time":67777.71000000015,"duration":166.66650000000664,"noteNumber":50,"velocity":55,"programNumber":50},{"time":67999.93200000016,"duration":166.66650000000664,"noteNumber":54,"velocity":55,"programNumber":50},{"time":68222.15400000017,"duration":166.66650000000664,"noteNumber":52,"velocity":55,"programNumber":50},{"time":68444.37600000018,"duration":166.66650000000664,"noteNumber":51,"velocity":55,"programNumber":50},{"time":68666.59800000019,"duration":166.66650000000664,"noteNumber":47,"velocity":55,"programNumber":50},{"time":68888.8200000002,"duration":166.66650000000664,"noteNumber":49,"velocity":55,"programNumber":50},{"time":69111.0420000002,"duration":166.66650000000664,"noteNumber":50,"velocity":55,"programNumber":50},{"time":69333.26400000021,"duration":166.66650000000664,"noteNumber":52,"velocity":85,"programNumber":50},{"time":69555.48600000022,"duration":166.66650000000664,"noteNumber":55,"velocity":85,"programNumber":50},{"time":69777.70800000023,"duration":166.66650000000664,"noteNumber":52,"velocity":85,"programNumber":50},{"time":69999.93000000024,"duration":166.66650000000664,"noteNumber":50,"velocity":85,"programNumber":50},{"time":70222.15200000025,"duration":166.66650000000664,"noteNumber":49,"velocity":85,"programNumber":50},{"time":70444.37400000026,"duration":166.66650000000664,"noteNumber":45,"velocity":85,"programNumber":50},{"time":70666.59600000027,"duration":166.66650000000664,"noteNumber":47,"velocity":85,"programNumber":50},{"time":70888.81800000028,"duration":166.66650000000664,"noteNumber":49,"velocity":85,"programNumber":50},{"time":71111.04000000028,"duration":166.66650000000664,"noteNumber":50,"velocity":85,"programNumber":50},{"time":71333.2620000003,"duration":166.66650000000664,"noteNumber":50,"velocity":85,"programNumber":50},{"time":71555.4840000003,"duration":166.66650000000664,"noteNumber":52,"velocity":85,"programNumber":50},{"time":71777.70600000031,"duration":166.66650000000664,"noteNumber":54,"velocity":85,"programNumber":50},{"time":71999.92800000032,"duration":166.66650000000664,"noteNumber":55,"velocity":85,"programNumber":50},{"time":72222.15000000033,"duration":166.66650000000664,"noteNumber":55,"velocity":85,"programNumber":50},{"time":72444.37200000034,"duration":166.66650000000664,"noteNumber":55,"velocity":85,"programNumber":50},{"time":72666.59400000035,"duration":166.66650000000664,"noteNumber":55,"velocity":85,"programNumber":50},{"time":72888.81600000036,"duration":166.66650000000664,"noteNumber":57,"velocity":85,"programNumber":50},{"time":73111.03800000036,"duration":166.66650000000664,"noteNumber":57,"velocity":85,"programNumber":50},{"time":73333.26000000037,"duration":166.66650000000664,"noteNumber":57,"velocity":85,"programNumber":50},{"time":73555.48200000038,"duration":166.66650000000664,"noteNumber":57,"velocity":85,"programNumber":50},{"time":73777.70400000039,"duration":166.66650000000664,"noteNumber":45,"velocity":85,"programNumber":50},{"time":73999.9260000004,"duration":166.66650000000664,"noteNumber":45,"velocity":85,"programNumber":50},{"time":74222.14800000041,"duration":166.66650000000664,"noteNumber":45,"velocity":85,"programNumber":50},{"time":74444.37000000042,"duration":166.66650000000664,"noteNumber":45,"velocity":85,"programNumber":50},{"time":74666.59200000043,"duration":444.44400000000314,"noteNumber":50,"velocity":85,"programNumber":50},{"time":76444.36800000042,"duration":444.44400000000314,"noteNumber":45,"velocity":55,"programNumber":50},{"time":78222.14400000042,"duration":444.44400000000314,"noteNumber":50,"velocity":55,"programNumber":50},{"time":79999.92000000042,"duration":444.44400000000314,"noteNumber":45,"velocity":55,"programNumber":50},{"time":81999.91800000043,"duration":166.66650000000664,"noteNumber":50,"velocity":85,"programNumber":50},{"time":82222.14000000044,"duration":166.66650000000664,"noteNumber":54,"velocity":85,"programNumber":50},{"time":82444.36200000044,"duration":166.66650000000664,"noteNumber":52,"velocity":85,"programNumber":50},{"time":82666.58400000045,"duration":166.66650000000664,"noteNumber":51,"velocity":85,"programNumber":50},{"time":82888.80600000046,"duration":166.66650000000664,"noteNumber":47,"velocity":85,"programNumber":50},{"time":83111.02800000047,"duration":166.66650000000664,"noteNumber":49,"velocity":85,"programNumber":50},{"time":83333.25000000048,"duration":166.66650000000664,"noteNumber":50,"velocity":85,"programNumber":50},{"time":83555.47200000049,"duration":166.66650000000664,"noteNumber":52,"velocity":85,"programNumber":50},{"time":83777.6940000005,"duration":166.66650000000664,"noteNumber":55,"velocity":85,"programNumber":50},{"time":83999.9160000005,"duration":166.66650000000664,"noteNumber":52,"velocity":85,"programNumber":50},{"time":84222.13800000052,"duration":166.66650000000664,"noteNumber":50,"velocity":85,"programNumber":50},{"time":84444.36000000052,"duration":166.66650000000664,"noteNumber":49,"velocity":85,"programNumber":50},{"time":84666.58200000053,"duration":166.66650000000664,"noteNumber":45,"velocity":85,"programNumber":50},{"time":84888.80400000054,"duration":166.66650000000664,"noteNumber":47,"velocity":85,"programNumber":50},{"time":85111.02600000055,"duration":166.66650000000664,"noteNumber":49,"velocity":85,"programNumber":50},{"time":85333.24800000056,"duration":166.66650000000664,"noteNumber":50,"velocity":85,"programNumber":50},{"time":85555.47000000057,"duration":166.66650000000664,"noteNumber":50,"velocity":85,"programNumber":50},{"time":85777.69200000058,"duration":166.66650000000664,"noteNumber":52,"velocity":85,"programNumber":50},{"time":85999.91400000059,"duration":166.66650000000664,"noteNumber":54,"velocity":85,"programNumber":50},{"time":86222.1360000006,"duration":166.66650000000664,"noteNumber":55,"velocity":85,"programNumber":50},{"time":86444.3580000006,"duration":166.66650000000664,"noteNumber":55,"velocity":85,"programNumber":50},{"time":86666.58000000061,"duration":166.66650000000664,"noteNumber":55,"velocity":85,"programNumber":50},{"time":86888.80200000062,"duration":166.66650000000664,"noteNumber":55,"velocity":85,"programNumber":50},{"time":87111.02400000063,"duration":166.66650000000664,"noteNumber":57,"velocity":85,"programNumber":50},{"time":87333.24600000064,"duration":166.66650000000664,"noteNumber":57,"velocity":85,"programNumber":50},{"time":87555.46800000065,"duration":166.66650000000664,"noteNumber":57,"velocity":85,"programNumber":50},{"time":87777.69000000066,"duration":166.66650000000664,"noteNumber":57,"velocity":85,"programNumber":50},{"time":87999.91200000067,"duration":166.66650000000664,"noteNumber":45,"velocity":85,"programNumber":50},{"time":88222.13400000067,"duration":166.66650000000664,"noteNumber":45,"velocity":85,"programNumber":50},{"time":88444.35600000068,"duration":166.66650000000664,"noteNumber":45,"velocity":85,"programNumber":50},{"time":88666.57800000069,"duration":166.66650000000664,"noteNumber":45,"velocity":85,"programNumber":50},{"time":88888.8000000007,"duration":166.66650000000664,"noteNumber":50,"velocity":85,"programNumber":50},{"time":89111.02200000071,"duration":166.66650000000664,"noteNumber":45,"velocity":85,"programNumber":50},{"time":89333.24400000072,"duration":166.66650000000664,"noteNumber":47,"velocity":85,"programNumber":50},{"time":89555.46600000073,"duration":166.66650000000664,"noteNumber":49,"velocity":85,"programNumber":50},{"time":89777.68800000074,"duration":166.66650000000664,"noteNumber":50,"velocity":85,"programNumber":50},{"time":89999.91000000075,"duration":166.66650000000664,"noteNumber":50,"velocity":85,"programNumber":50},{"time":90222.13200000075,"duration":166.66650000000664,"noteNumber":52,"velocity":85,"programNumber":50},{"time":90444.35400000076,"duration":166.66650000000664,"noteNumber":52,"velocity":85,"programNumber":50},{"time":90666.57600000077,"duration":166.66650000000664,"noteNumber":54,"velocity":85,"programNumber":50},{"time":90888.79800000078,"duration":166.66650000000664,"noteNumber":49,"velocity":85,"programNumber":50},{"time":91111.02000000079,"duration":166.66650000000664,"noteNumber":50,"velocity":85,"programNumber":50},{"time":91333.2420000008,"duration":166.66650000000664,"noteNumber":52,"velocity":85,"programNumber":50},{"time":91555.46400000081,"duration":166.66650000000664,"noteNumber":54,"velocity":85,"programNumber":50},{"time":91777.68600000082,"duration":166.66650000000664,"noteNumber":54,"velocity":85,"programNumber":50},{"time":91999.90800000083,"duration":166.66650000000664,"noteNumber":55,"velocity":85,"programNumber":50},{"time":92222.13000000083,"duration":166.66650000000664,"noteNumber":55,"velocity":85,"programNumber":50},{"time":92444.35200000084,"duration":166.66650000000664,"noteNumber":57,"velocity":85,"programNumber":50},{"time":92666.57400000085,"duration":166.66650000000664,"noteNumber":57,"velocity":85,"programNumber":50},{"time":92888.79600000086,"duration":166.66650000000664,"noteNumber":58,"velocity":85,"programNumber":50},{"time":93111.01800000087,"duration":166.66650000000664,"noteNumber":58,"velocity":85,"programNumber":50},{"time":93333.24000000088,"duration":444.44400000000314,"noteNumber":59,"velocity":85,"programNumber":50},{"time":94222.12800000088,"duration":888.8880000000063,"noteNumber":55,"velocity":55,"programNumber":50},{"time":95111.01600000089,"duration":888.8880000000063,"noteNumber":57,"velocity":55,"programNumber":50},{"time":95999.9040000009,"duration":222.2219999999943,"noteNumber":50,"velocity":55,"programNumber":50},{"time":96444.34800000089,"duration":222.2219999999943,"noteNumber":50,"velocity":55,"programNumber":50},{"time":96888.79200000087,"duration":222.2219999999943,"noteNumber":50,"velocity":55,"programNumber":50},{"time":97777.68000000087,"duration":444.44400000000314,"noteNumber":55,"velocity":85,"programNumber":50},{"time":98444.34600000086,"duration":111.11100000000442,"noteNumber":50,"velocity":85,"programNumber":50},{"time":98666.56800000087,"duration":444.44400000000314,"noteNumber":55,"velocity":85,"programNumber":50},{"time":99333.23400000087,"duration":111.11100000000442,"noteNumber":50,"velocity":85,"programNumber":50},{"time":99555.45600000088,"duration":111.11100000000442,"noteNumber":55,"velocity":85,"programNumber":50},{"time":99777.67800000089,"duration":111.11100000000442,"noteNumber":50,"velocity":85,"programNumber":50},{"time":99999.9000000009,"duration":111.11100000000442,"noteNumber":55,"velocity":85,"programNumber":50},{"time":100222.1220000009,"duration":111.11100000000442,"noteNumber":59,"velocity":85,"programNumber":50},{"time":100444.34400000091,"duration":444.44400000000314,"noteNumber":62,"velocity":85,"programNumber":50},{"time":101333.23200000092,"duration":444.44400000000314,"noteNumber":60,"velocity":85,"programNumber":50},{"time":101999.89800000092,"duration":111.11100000000442,"noteNumber":57,"velocity":85,"programNumber":50},{"time":102222.12000000093,"duration":444.44400000000314,"noteNumber":60,"velocity":85,"programNumber":50},{"time":102888.78600000092,"duration":111.11100000000442,"noteNumber":57,"velocity":85,"programNumber":50},{"time":103111.00800000093,"duration":111.11100000000442,"noteNumber":60,"velocity":85,"programNumber":50},{"time":103333.23000000094,"duration":111.11100000000442,"noteNumber":57,"velocity":85,"programNumber":50},{"time":103555.45200000095,"duration":111.11100000000442,"noteNumber":54,"velocity":85,"programNumber":50},{"time":103777.67400000096,"duration":111.11100000000442,"noteNumber":57,"velocity":85,"programNumber":50},{"time":103999.89600000097,"duration":444.44400000000314,"noteNumber":50,"velocity":85,"programNumber":50},{"time":104888.78400000097,"duration":166.66650000000664,"noteNumber":55,"velocity":85,"programNumber":50},{"time":105111.00600000098,"duration":166.66650000000664,"noteNumber":55,"velocity":85,"programNumber":50},{"time":105333.22800000099,"duration":166.66650000000664,"noteNumber":55,"velocity":85,"programNumber":50},{"time":105555.450000001,"duration":166.66650000000664,"noteNumber":55,"velocity":85,"programNumber":50},{"time":105777.67200000101,"duration":166.66650000000664,"noteNumber":55,"velocity":85,"programNumber":50},{"time":105999.89400000102,"duration":166.66650000000664,"noteNumber":55,"velocity":85,"programNumber":50},{"time":106222.11600000103,"duration":166.66650000000664,"noteNumber":55,"velocity":85,"programNumber":50},{"time":106444.33800000104,"duration":166.66650000000664,"noteNumber":55,"velocity":85,"programNumber":50},{"time":106666.56000000105,"duration":166.66650000000664,"noteNumber":55,"velocity":85,"programNumber":50},{"time":106888.78200000105,"duration":166.66650000000664,"noteNumber":55,"velocity":85,"programNumber":50},{"time":107111.00400000106,"duration":166.66650000000664,"noteNumber":55,"velocity":85,"programNumber":50},{"time":107333.22600000107,"duration":166.66650000000664,"noteNumber":55,"velocity":85,"programNumber":50},{"time":107555.44800000108,"duration":166.66650000000664,"noteNumber":55,"velocity":85,"programNumber":50},{"time":107777.67000000109,"duration":166.66650000000664,"noteNumber":55,"velocity":85,"programNumber":50},{"time":107999.8920000011,"duration":166.66650000000664,"noteNumber":55,"velocity":85,"programNumber":50},{"time":108222.11400000111,"duration":166.66650000000664,"noteNumber":55,"velocity":85,"programNumber":50},{"time":108444.33600000112,"duration":166.66650000000664,"noteNumber":55,"velocity":85,"programNumber":50},{"time":108666.55800000113,"duration":166.66650000000664,"noteNumber":55,"velocity":85,"programNumber":50},{"time":108888.78000000113,"duration":166.66650000000664,"noteNumber":55,"velocity":85,"programNumber":50},{"time":109111.00200000114,"duration":166.66650000000664,"noteNumber":55,"velocity":85,"programNumber":50},{"time":109333.22400000115,"duration":166.66650000000664,"noteNumber":55,"velocity":85,"programNumber":50},{"time":109555.44600000116,"duration":166.66650000000664,"noteNumber":55,"velocity":85,"programNumber":50},{"time":109777.66800000117,"duration":166.66650000000664,"noteNumber":55,"velocity":85,"programNumber":50},{"time":109999.89000000118,"duration":166.66650000000664,"noteNumber":55,"velocity":85,"programNumber":50},{"time":110222.11200000119,"duration":166.66650000000664,"noteNumber":55,"velocity":85,"programNumber":50},{"time":110444.3340000012,"duration":166.66650000000664,"noteNumber":55,"velocity":85,"programNumber":50},{"time":110666.5560000012,"duration":166.66650000000664,"noteNumber":55,"velocity":85,"programNumber":50},{"time":110888.77800000121,"duration":166.66650000000664,"noteNumber":55,"velocity":85,"programNumber":50},{"time":111111.00000000122,"duration":166.66650000000664,"noteNumber":55,"velocity":85,"programNumber":50},{"time":111333.22200000123,"duration":166.66650000000664,"noteNumber":55,"velocity":85,"programNumber":50},{"time":111555.44400000124,"duration":166.66650000000664,"noteNumber":55,"velocity":85,"programNumber":50},{"time":111777.66600000125,"duration":166.66650000000664,"noteNumber":55,"velocity":85,"programNumber":50},{"time":111999.88800000126,"duration":166.66650000000664,"noteNumber":55,"velocity":85,"programNumber":50},{"time":112222.11000000127,"duration":166.66650000000664,"noteNumber":55,"velocity":85,"programNumber":50},{"time":112444.33200000128,"duration":166.66650000000664,"noteNumber":57,"velocity":85,"programNumber":50},{"time":112666.55400000128,"duration":166.66650000000664,"noteNumber":57,"velocity":85,"programNumber":50},{"time":112888.7760000013,"duration":166.66650000000664,"noteNumber":59,"velocity":85,"programNumber":50},{"time":113110.9980000013,"duration":166.66650000000664,"noteNumber":59,"velocity":85,"programNumber":50},{"time":113333.22000000131,"duration":166.66650000000664,"noteNumber":54,"velocity":85,"programNumber":50},{"time":113555.44200000132,"duration":166.66650000000664,"noteNumber":54,"velocity":85,"programNumber":50},{"time":113777.66400000133,"duration":166.66650000000664,"noteNumber":55,"velocity":85,"programNumber":50},{"time":113999.88600000134,"duration":166.66650000000664,"noteNumber":55,"velocity":85,"programNumber":50},{"time":114222.10800000135,"duration":166.66650000000664,"noteNumber":57,"velocity":85,"programNumber":50},{"time":114444.33000000136,"duration":166.66650000000664,"noteNumber":57,"velocity":85,"programNumber":50},{"time":114666.55200000136,"duration":444.44400000000314,"noteNumber":59,"velocity":85,"programNumber":50},{"time":117333.21600000137,"duration":888.8880000000063,"noteNumber":50,"velocity":47,"programNumber":50},{"time":118222.10400000137,"duration":888.8880000000063,"noteNumber":52,"velocity":47,"programNumber":50},{"time":119110.99200000138,"duration":333.3329999999987,"noteNumber":48,"velocity":47,"programNumber":50},{"time":119555.43600000138,"duration":333.3329999999987,"noteNumber":48,"velocity":47,"programNumber":50},{"time":119999.88000000139,"duration":333.3329999999987,"noteNumber":50,"velocity":47,"programNumber":50},{"time":120444.32400000139,"duration":333.3329999999987,"noteNumber":50,"velocity":47,"programNumber":50},{"time":120888.7680000014,"duration":222.2219999999943,"noteNumber":47,"velocity":47,"programNumber":50},{"time":121333.21200000138,"duration":222.2219999999943,"noteNumber":50,"velocity":47,"programNumber":50},{"time":121777.65600000137,"duration":444.44400000000314,"noteNumber":55,"velocity":47,"programNumber":50},{"time":124444.32000000137,"duration":888.8880000000063,"noteNumber":50,"velocity":47,"programNumber":50},{"time":125333.20800000138,"duration":888.8880000000063,"noteNumber":52,"velocity":47,"programNumber":50},{"time":126222.09600000139,"duration":333.3329999999987,"noteNumber":48,"velocity":47,"programNumber":50},{"time":126666.54000000139,"duration":333.3329999999987,"noteNumber":48,"velocity":47,"programNumber":50},{"time":127110.9840000014,"duration":333.3329999999987,"noteNumber":50,"velocity":47,"programNumber":50},{"time":127555.4280000014,"duration":333.3329999999987,"noteNumber":50,"velocity":47,"programNumber":50},{"time":127999.8720000014,"duration":166.66650000000664,"noteNumber":55,"velocity":91,"programNumber":50},{"time":128222.09400000141,"duration":166.66650000000664,"noteNumber":55,"velocity":83,"programNumber":50},{"time":128444.31600000142,"duration":166.66650000000664,"noteNumber":55,"velocity":83,"programNumber":50},{"time":128666.53800000143,"duration":166.66650000000664,"noteNumber":55,"velocity":83,"programNumber":50},{"time":128888.76000000144,"duration":166.66650000000664,"noteNumber":55,"velocity":59,"programNumber":50},{"time":129110.98200000144,"duration":166.66650000000664,"noteNumber":55,"velocity":59,"programNumber":50},{"time":129333.20400000145,"duration":166.66650000000664,"noteNumber":55,"velocity":59,"programNumber":50},{"time":129555.42600000146,"duration":166.66650000000664,"noteNumber":55,"velocity":59,"programNumber":50},{"time":129777.64800000147,"duration":166.66650000000664,"noteNumber":55,"velocity":92,"programNumber":50},{"time":129999.87000000148,"duration":166.66650000000664,"noteNumber":55,"velocity":79,"programNumber":50},{"time":130222.09200000149,"duration":166.66650000000664,"noteNumber":55,"velocity":79,"programNumber":50},{"time":130444.3140000015,"duration":166.66650000000664,"noteNumber":55,"velocity":79,"programNumber":50},{"time":130666.5360000015,"duration":166.66650000000664,"noteNumber":55,"velocity":59,"programNumber":50},{"time":130888.75800000152,"duration":166.66650000000664,"noteNumber":55,"velocity":59,"programNumber":50},{"time":131110.98000000152,"duration":166.66649999999208,"noteNumber":55,"velocity":59,"programNumber":50},{"time":131333.2020000015,"duration":166.66649999999208,"noteNumber":55,"velocity":59,"programNumber":50},{"time":131555.42400000148,"duration":166.66649999999208,"noteNumber":55,"velocity":59,"programNumber":50},{"time":131777.64600000146,"duration":166.66649999999208,"noteNumber":55,"velocity":40,"programNumber":50},{"time":131999.86800000144,"duration":166.66649999999208,"noteNumber":55,"velocity":43,"programNumber":50},{"time":132222.09000000142,"duration":166.66649999999208,"noteNumber":55,"velocity":46,"programNumber":50},{"time":132444.3120000014,"duration":166.66649999999208,"noteNumber":55,"velocity":49,"programNumber":50},{"time":132666.53400000138,"duration":166.66649999999208,"noteNumber":55,"velocity":52,"programNumber":50},{"time":132888.75600000136,"duration":166.66649999999208,"noteNumber":55,"velocity":55,"programNumber":50},{"time":133110.97800000134,"duration":166.66649999999208,"noteNumber":55,"velocity":58,"programNumber":50},{"time":133333.20000000132,"duration":166.66649999999208,"noteNumber":55,"velocity":61,"programNumber":50},{"time":133555.4220000013,"duration":166.66649999999208,"noteNumber":55,"velocity":64,"programNumber":50},{"time":133777.64400000128,"duration":166.66649999999208,"noteNumber":54,"velocity":67,"programNumber":50},{"time":133999.86600000126,"duration":166.66649999999208,"noteNumber":54,"velocity":70,"programNumber":50},{"time":134222.08800000124,"duration":166.66649999999208,"noteNumber":55,"velocity":73,"programNumber":50},{"time":134444.31000000122,"duration":166.66649999999208,"noteNumber":55,"velocity":76,"programNumber":50},{"time":134666.5320000012,"duration":166.66649999999208,"noteNumber":52,"velocity":79,"programNumber":50},{"time":134888.75400000118,"duration":166.66649999999208,"noteNumber":52,"velocity":82,"programNumber":50},{"time":135110.97600000116,"duration":166.66649999999208,"noteNumber":50,"velocity":85,"programNumber":50},{"time":135333.19800000114,"duration":166.66649999999208,"noteNumber":50,"velocity":85,"programNumber":50},{"time":135555.42000000112,"duration":166.66649999999208,"noteNumber":50,"velocity":85,"programNumber":50},{"time":135777.6420000011,"duration":166.66649999999208,"noteNumber":50,"velocity":85,"programNumber":50},{"time":135999.86400000108,"duration":166.66649999999208,"noteNumber":50,"velocity":85,"programNumber":50},{"time":136222.08600000106,"duration":166.66649999999208,"noteNumber":50,"velocity":85,"programNumber":50},{"time":136444.30800000104,"duration":166.66649999999208,"noteNumber":50,"velocity":85,"programNumber":50},{"time":136666.53000000102,"duration":166.66649999999208,"noteNumber":50,"velocity":85,"programNumber":50},{"time":136888.752000001,"duration":166.66649999999208,"noteNumber":50,"velocity":85,"programNumber":50},{"time":137110.97400000098,"duration":166.66649999999208,"noteNumber":50,"velocity":85,"programNumber":50},{"time":137333.19600000096,"duration":166.66649999999208,"noteNumber":50,"velocity":85,"programNumber":50},{"time":137555.41800000094,"duration":166.66649999999208,"noteNumber":50,"velocity":85,"programNumber":50},{"time":137777.64000000092,"duration":166.66649999999208,"noteNumber":50,"velocity":85,"programNumber":50},{"time":137999.8620000009,"duration":166.66649999999208,"noteNumber":50,"velocity":85,"programNumber":50},{"time":138222.08400000088,"duration":166.66649999999208,"noteNumber":50,"velocity":85,"programNumber":50},{"time":138444.30600000086,"duration":166.66649999999208,"noteNumber":50,"velocity":85,"programNumber":50},{"time":138666.52800000084,"duration":166.66649999999208,"noteNumber":50,"velocity":85,"programNumber":50},{"time":138888.75000000081,"duration":166.66649999999208,"noteNumber":52,"velocity":85,"programNumber":50},{"time":139110.9720000008,"duration":166.66649999999208,"noteNumber":54,"velocity":85,"programNumber":50},{"time":139333.19400000077,"duration":166.66649999999208,"noteNumber":52,"velocity":85,"programNumber":50},{"time":139555.41600000075,"duration":166.66649999999208,"noteNumber":50,"velocity":85,"programNumber":50},{"time":139777.63800000073,"duration":166.66649999999208,"noteNumber":52,"velocity":85,"programNumber":50},{"time":139999.8600000007,"duration":166.66649999999208,"noteNumber":54,"velocity":85,"programNumber":50},{"time":140222.0820000007,"duration":166.66649999999208,"noteNumber":50,"velocity":85,"programNumber":50},{"time":140444.30400000067,"duration":166.66649999999208,"noteNumber":55,"velocity":85,"programNumber":50},{"time":140666.52600000065,"duration":166.66649999999208,"noteNumber":57,"velocity":85,"programNumber":50},{"time":140888.74800000063,"duration":166.66649999999208,"noteNumber":59,"velocity":85,"programNumber":50},{"time":141110.9700000006,"duration":166.66649999999208,"noteNumber":57,"velocity":85,"programNumber":50},{"time":141333.1920000006,"duration":166.66649999999208,"noteNumber":55,"velocity":85,"programNumber":50},{"time":141555.41400000057,"duration":166.66649999999208,"noteNumber":57,"velocity":85,"programNumber":50},{"time":141777.63600000055,"duration":166.66649999999208,"noteNumber":59,"velocity":85,"programNumber":50},{"time":141999.85800000053,"duration":166.66649999999208,"noteNumber":56,"velocity":85,"programNumber":50},{"time":142222.0800000005,"duration":166.66649999999208,"noteNumber":57,"velocity":85,"programNumber":50},{"time":142444.3020000005,"duration":166.66649999999208,"noteNumber":57,"velocity":85,"programNumber":50},{"time":142666.52400000047,"duration":166.66649999999208,"noteNumber":57,"velocity":85,"programNumber":50},{"time":142888.74600000045,"duration":166.66649999999208,"noteNumber":57,"velocity":85,"programNumber":50},{"time":143110.96800000043,"duration":166.66649999999208,"noteNumber":57,"velocity":85,"programNumber":50},{"time":143333.1900000004,"duration":166.66649999999208,"noteNumber":57,"velocity":85,"programNumber":50},{"time":143555.4120000004,"duration":166.66649999999208,"noteNumber":57,"velocity":85,"programNumber":50},{"time":143777.63400000037,"duration":166.66649999999208,"noteNumber":57,"velocity":85,"programNumber":50},{"time":143999.85600000035,"duration":166.66649999999208,"noteNumber":57,"velocity":85,"programNumber":50},{"time":144222.07800000033,"duration":166.66649999999208,"noteNumber":45,"velocity":85,"programNumber":50},{"time":144444.3000000003,"duration":166.66649999999208,"noteNumber":45,"velocity":85,"programNumber":50},{"time":144666.5220000003,"duration":166.66649999999208,"noteNumber":45,"velocity":85,"programNumber":50},{"time":144888.74400000027,"duration":444.4439999999886,"noteNumber":45,"velocity":85,"programNumber":50},{"time":147110.96400000027,"duration":222.22200000000885,"noteNumber":51,"velocity":55,"programNumber":50},{"time":147555.4080000003,"duration":222.22200000000885,"noteNumber":52,"velocity":55,"programNumber":50},{"time":147999.8520000003,"duration":222.22200000000885,"noteNumber":50,"velocity":55,"programNumber":50},{"time":148444.29600000032,"duration":222.22200000000885,"noteNumber":49,"velocity":55,"programNumber":50},{"time":148888.74000000034,"duration":222.22200000000885,"noteNumber":45,"velocity":55,"programNumber":50},{"time":149777.62800000035,"duration":444.4439999999886,"noteNumber":46,"velocity":55,"programNumber":50},{"time":150222.07200000033,"duration":222.22200000000885,"noteNumber":47,"velocity":55,"programNumber":50},{"time":150666.51600000035,"duration":222.22200000000885,"noteNumber":43,"velocity":55,"programNumber":50},{"time":151110.96000000037,"duration":333.33300000001327,"noteNumber":45,"velocity":55,"programNumber":50},{"time":151555.4040000004,"duration":666.6659999999974,"noteNumber":57,"velocity":55,"programNumber":50},{"time":152222.07000000039,"duration":222.22200000000885,"noteNumber":56,"velocity":55,"programNumber":50},{"time":152444.2920000004,"duration":222.22200000000885,"noteNumber":55,"velocity":55,"programNumber":50},{"time":152666.5140000004,"duration":222.22200000000885,"noteNumber":52,"velocity":55,"programNumber":50},{"time":152888.7360000004,"duration":222.22200000000885,"noteNumber":50,"velocity":55,"programNumber":50},{"time":153333.18000000043,"duration":222.22200000000885,"noteNumber":52,"velocity":55,"programNumber":50},{"time":153777.62400000045,"duration":222.22200000000885,"noteNumber":54,"velocity":55,"programNumber":50},{"time":154222.06800000046,"duration":222.22200000000885,"noteNumber":51,"velocity":55,"programNumber":50},{"time":154666.51200000048,"duration":222.22200000000885,"noteNumber":52,"velocity":55,"programNumber":50},{"time":155110.9560000005,"duration":222.22200000000885,"noteNumber":50,"velocity":55,"programNumber":50},{"time":155555.40000000052,"duration":222.22200000000885,"noteNumber":49,"velocity":55,"programNumber":50},{"time":155999.84400000054,"duration":222.22200000000885,"noteNumber":45,"velocity":55,"programNumber":50},{"time":156444.28800000055,"duration":222.22200000000885,"noteNumber":47,"velocity":55,"programNumber":50},{"time":156888.73200000057,"duration":222.22200000000885,"noteNumber":55,"velocity":55,"programNumber":50},{"time":157333.1760000006,"duration":222.22200000000885,"noteNumber":57,"velocity":55,"programNumber":50},{"time":157777.6200000006,"duration":222.22200000000885,"noteNumber":45,"velocity":55,"programNumber":50},{"time":158222.06400000062,"duration":444.4439999999886,"noteNumber":50,"velocity":55,"programNumber":50},{"time":159999.8400000006,"duration":444.4439999999886,"noteNumber":45,"velocity":55,"programNumber":50},{"time":161777.6160000006,"duration":444.4439999999886,"noteNumber":50,"velocity":55,"programNumber":50},{"time":163555.39200000057,"duration":444.4439999999886,"noteNumber":45,"velocity":55,"programNumber":50},{"time":165555.39000000057,"duration":166.66649999999208,"noteNumber":50,"velocity":55,"programNumber":50},{"time":165777.61200000055,"duration":166.66649999999208,"noteNumber":54,"velocity":55,"programNumber":50},{"time":165999.83400000053,"duration":166.66649999999208,"noteNumber":52,"velocity":55,"programNumber":50},{"time":166222.0560000005,"duration":166.66649999999208,"noteNumber":51,"velocity":55,"programNumber":50},{"time":166444.2780000005,"duration":166.66649999999208,"noteNumber":47,"velocity":55,"programNumber":50},{"time":166666.50000000047,"duration":166.66649999999208,"noteNumber":49,"velocity":55,"programNumber":50},{"time":166888.72200000045,"duration":166.66649999999208,"noteNumber":50,"velocity":55,"programNumber":50},{"time":167110.94400000043,"duration":166.66649999999208,"noteNumber":52,"velocity":85,"programNumber":50},{"time":167333.1660000004,"duration":166.66649999999208,"noteNumber":55,"velocity":85,"programNumber":50},{"time":167555.38800000038,"duration":166.66649999999208,"noteNumber":52,"velocity":85,"programNumber":50},{"time":167777.61000000036,"duration":166.66649999999208,"noteNumber":50,"velocity":85,"programNumber":50},{"time":167999.83200000034,"duration":166.66649999999208,"noteNumber":49,"velocity":85,"programNumber":50},{"time":168222.05400000032,"duration":166.66649999999208,"noteNumber":45,"velocity":85,"programNumber":50},{"time":168444.2760000003,"duration":166.66649999999208,"noteNumber":47,"velocity":85,"programNumber":50},{"time":168666.49800000028,"duration":166.66649999999208,"noteNumber":49,"velocity":85,"programNumber":50},{"time":168888.72000000026,"duration":166.66649999999208,"noteNumber":50,"velocity":85,"programNumber":50},{"time":169110.94200000024,"duration":166.66649999999208,"noteNumber":50,"velocity":85,"programNumber":50},{"time":169333.16400000022,"duration":166.66649999999208,"noteNumber":52,"velocity":85,"programNumber":50},{"time":169555.3860000002,"duration":166.66649999999208,"noteNumber":54,"velocity":85,"programNumber":50},{"time":169777.60800000018,"duration":166.66649999999208,"noteNumber":55,"velocity":85,"programNumber":50},{"time":169999.83000000016,"duration":166.66649999999208,"noteNumber":55,"velocity":85,"programNumber":50},{"time":170222.05200000014,"duration":166.66649999999208,"noteNumber":55,"velocity":85,"programNumber":50},{"time":170444.27400000012,"duration":166.66649999999208,"noteNumber":55,"velocity":85,"programNumber":50},{"time":170666.4960000001,"duration":166.66649999999208,"noteNumber":57,"velocity":85,"programNumber":50},{"time":170888.71800000008,"duration":166.66649999999208,"noteNumber":57,"velocity":85,"programNumber":50},{"time":171110.94000000006,"duration":166.66649999999208,"noteNumber":57,"velocity":85,"programNumber":50},{"time":171333.16200000004,"duration":166.66649999999208,"noteNumber":57,"velocity":85,"programNumber":50},{"time":171555.38400000002,"duration":166.66649999999208,"noteNumber":45,"velocity":85,"programNumber":50},{"time":171777.606,"duration":166.66649999999208,"noteNumber":45,"velocity":85,"programNumber":50},{"time":171999.82799999998,"duration":166.66649999999208,"noteNumber":45,"velocity":85,"programNumber":50},{"time":172222.04999999996,"duration":166.66649999999208,"noteNumber":45,"velocity":85,"programNumber":50},{"time":172444.27199999994,"duration":444.4439999999886,"noteNumber":50,"velocity":85,"programNumber":50},{"time":174222.04799999992,"duration":444.4439999999886,"noteNumber":45,"velocity":55,"programNumber":50},{"time":175999.8239999999,"duration":444.4439999999886,"noteNumber":50,"velocity":55,"programNumber":50},{"time":177777.5999999999,"duration":444.4439999999886,"noteNumber":45,"velocity":55,"programNumber":50},{"time":179777.59799999988,"duration":166.66649999999208,"noteNumber":50,"velocity":85,"programNumber":50},{"time":179999.81999999986,"duration":166.66649999999208,"noteNumber":54,"velocity":85,"programNumber":50},{"time":180222.04199999984,"duration":166.66649999999208,"noteNumber":52,"velocity":85,"programNumber":50},{"time":180444.26399999982,"duration":166.66649999999208,"noteNumber":51,"velocity":85,"programNumber":50},{"time":180666.4859999998,"duration":166.66649999999208,"noteNumber":47,"velocity":85,"programNumber":50},{"time":180888.70799999978,"duration":166.66649999999208,"noteNumber":49,"velocity":85,"programNumber":50},{"time":181110.92999999976,"duration":166.66649999999208,"noteNumber":50,"velocity":85,"programNumber":50},{"time":181333.15199999974,"duration":166.66649999999208,"noteNumber":52,"velocity":85,"programNumber":50},{"time":181555.37399999972,"duration":166.66649999999208,"noteNumber":55,"velocity":85,"programNumber":50},{"time":181777.5959999997,"duration":166.66649999999208,"noteNumber":52,"velocity":85,"programNumber":50},{"time":181999.81799999968,"duration":166.66649999999208,"noteNumber":50,"velocity":85,"programNumber":50},{"time":182222.03999999966,"duration":166.66649999999208,"noteNumber":49,"velocity":85,"programNumber":50},{"time":182444.26199999964,"duration":166.66649999999208,"noteNumber":45,"velocity":85,"programNumber":50},{"time":182666.48399999962,"duration":166.66649999999208,"noteNumber":47,"velocity":85,"programNumber":50},{"time":182888.7059999996,"duration":166.66649999999208,"noteNumber":49,"velocity":85,"programNumber":50},{"time":183110.92799999958,"duration":166.66649999999208,"noteNumber":50,"velocity":85,"programNumber":50},{"time":183333.14999999956,"duration":166.66649999999208,"noteNumber":50,"velocity":85,"programNumber":50},{"time":183555.37199999954,"duration":166.66649999999208,"noteNumber":52,"velocity":85,"programNumber":50},{"time":183777.59399999952,"duration":166.66649999999208,"noteNumber":54,"velocity":85,"programNumber":50},{"time":183999.8159999995,"duration":166.66649999999208,"noteNumber":55,"velocity":85,"programNumber":50},{"time":184222.03799999948,"duration":166.66649999999208,"noteNumber":55,"velocity":85,"programNumber":50},{"time":184444.25999999946,"duration":166.66649999999208,"noteNumber":55,"velocity":85,"programNumber":50},{"time":184666.48199999944,"duration":166.66649999999208,"noteNumber":55,"velocity":85,"programNumber":50},{"time":184888.70399999942,"duration":166.66649999999208,"noteNumber":57,"velocity":85,"programNumber":50},{"time":185110.9259999994,"duration":166.66649999999208,"noteNumber":57,"velocity":85,"programNumber":50},{"time":185333.14799999938,"duration":166.66649999999208,"noteNumber":57,"velocity":85,"programNumber":50},{"time":185555.36999999936,"duration":166.66649999999208,"noteNumber":57,"velocity":85,"programNumber":50},{"time":185777.59199999933,"duration":166.66649999999208,"noteNumber":45,"velocity":85,"programNumber":50},{"time":185999.8139999993,"duration":166.66649999999208,"noteNumber":45,"velocity":85,"programNumber":50},{"time":186222.0359999993,"duration":166.66649999999208,"noteNumber":45,"velocity":85,"programNumber":50},{"time":186444.25799999927,"duration":166.66649999999208,"noteNumber":45,"velocity":85,"programNumber":50},{"time":186666.47999999925,"duration":166.66649999999208,"noteNumber":50,"velocity":85,"programNumber":50},{"time":186888.70199999923,"duration":166.66649999999208,"noteNumber":45,"velocity":85,"programNumber":50},{"time":187110.9239999992,"duration":166.66649999999208,"noteNumber":47,"velocity":85,"programNumber":50},{"time":187333.1459999992,"duration":166.66649999999208,"noteNumber":49,"velocity":85,"programNumber":50},{"time":187555.36799999917,"duration":166.66649999999208,"noteNumber":50,"velocity":85,"programNumber":50},{"time":187777.58999999915,"duration":166.66649999999208,"noteNumber":50,"velocity":85,"programNumber":50},{"time":187999.81199999913,"duration":166.66649999999208,"noteNumber":52,"velocity":85,"programNumber":50},{"time":188222.0339999991,"duration":166.66649999999208,"noteNumber":52,"velocity":85,"programNumber":50},{"time":188444.2559999991,"duration":166.66649999999208,"noteNumber":54,"velocity":85,"programNumber":50},{"time":188666.47799999907,"duration":166.66649999999208,"noteNumber":49,"velocity":85,"programNumber":50},{"time":188888.69999999905,"duration":166.66649999999208,"noteNumber":50,"velocity":85,"programNumber":50},{"time":189110.92199999903,"duration":166.66649999999208,"noteNumber":52,"velocity":85,"programNumber":50},{"time":189333.143999999,"duration":166.66649999999208,"noteNumber":54,"velocity":85,"programNumber":50},{"time":189555.365999999,"duration":166.66649999999208,"noteNumber":54,"velocity":85,"programNumber":50},{"time":189777.58799999897,"duration":166.66649999999208,"noteNumber":55,"velocity":85,"programNumber":50},{"time":189999.80999999895,"duration":166.66649999999208,"noteNumber":55,"velocity":85,"programNumber":50},{"time":190222.03199999893,"duration":166.66649999999208,"noteNumber":57,"velocity":85,"programNumber":50},{"time":190444.2539999989,"duration":166.66649999999208,"noteNumber":57,"velocity":85,"programNumber":50},{"time":190666.4759999989,"duration":166.66649999999208,"noteNumber":58,"velocity":85,"programNumber":50},{"time":190888.69799999887,"duration":166.66649999999208,"noteNumber":58,"velocity":85,"programNumber":50},{"time":191110.91999999885,"duration":444.4439999999886,"noteNumber":59,"velocity":85,"programNumber":50},{"time":191999.80799999883,"duration":888.8880000000063,"noteNumber":55,"velocity":55,"programNumber":50},{"time":192888.69599999883,"duration":888.8880000000063,"noteNumber":57,"velocity":55,"programNumber":50},{"time":193777.58399999884,"duration":222.22200000000885,"noteNumber":50,"velocity":55,"programNumber":50},{"time":194222.02799999886,"duration":222.22200000000885,"noteNumber":50,"velocity":55,"programNumber":50},{"time":194666.47199999887,"duration":222.22200000000885,"noteNumber":50,"velocity":55,"programNumber":50},{"time":195555.35999999888,"duration":444.4439999999886,"noteNumber":50,"velocity":89,"programNumber":50},{"time":196222.02599999888,"duration":166.66649999999208,"noteNumber":45,"velocity":89,"programNumber":50},{"time":196444.24799999886,"duration":444.4439999999886,"noteNumber":50,"velocity":89,"programNumber":50},{"time":197110.91399999885,"duration":166.66649999999208,"noteNumber":45,"velocity":89,"programNumber":50},{"time":197333.13599999883,"duration":166.66649999999208,"noteNumber":50,"velocity":89,"programNumber":50},{"time":197555.3579999988,"duration":166.66649999999208,"noteNumber":45,"velocity":89,"programNumber":50},{"time":197777.5799999988,"duration":166.66649999999208,"noteNumber":50,"velocity":89,"programNumber":50},{"time":197999.80199999877,"duration":166.66649999999208,"noteNumber":54,"velocity":89,"programNumber":50},{"time":198222.02399999875,"duration":444.4439999999886,"noteNumber":57,"velocity":89,"programNumber":50},{"time":199110.91199999873,"duration":444.4439999999886,"noteNumber":57,"velocity":89,"programNumber":50},{"time":199777.57799999873,"duration":166.66649999999208,"noteNumber":54,"velocity":89,"programNumber":50},{"time":199999.7999999987,"duration":444.4439999999886,"noteNumber":57,"velocity":89,"programNumber":50},{"time":200666.4659999987,"duration":166.66649999999208,"noteNumber":54,"velocity":89,"programNumber":50},{"time":200888.68799999868,"duration":166.66649999999208,"noteNumber":57,"velocity":89,"programNumber":50},{"time":201110.90999999866,"duration":166.66649999999208,"noteNumber":54,"velocity":89,"programNumber":50},{"time":201333.13199999864,"duration":166.66649999999208,"noteNumber":51,"velocity":89,"programNumber":50},{"time":201555.35399999862,"duration":166.66649999999208,"noteNumber":54,"velocity":89,"programNumber":50},{"time":201777.5759999986,"duration":444.4439999999886,"noteNumber":47,"velocity":89,"programNumber":50},{"time":202666.46399999858,"duration":444.4439999999886,"noteNumber":48,"velocity":55,"programNumber":50},{"time":204444.23999999856,"duration":444.4439999999886,"noteNumber":43,"velocity":55,"programNumber":50},{"time":206222.01599999855,"duration":444.4439999999886,"noteNumber":48,"velocity":55,"programNumber":50},{"time":207999.79199999853,"duration":444.4439999999886,"noteNumber":43,"velocity":55,"programNumber":50},{"time":209777.56799999852,"duration":444.4439999999886,"noteNumber":48,"velocity":55,"programNumber":50},{"time":211555.3439999985,"duration":444.4439999999886,"noteNumber":52,"velocity":55,"programNumber":50},{"time":213333.11999999848,"duration":444.4439999999886,"noteNumber":45,"velocity":55,"programNumber":50},{"time":215110.89599999847,"duration":444.4439999999886,"noteNumber":50,"velocity":55,"programNumber":50},{"time":216888.67199999845,"duration":3499.9965000000084,"noteNumber":51,"velocity":55,"programNumber":50},{"time":220444.22399999844,"duration":444.4439999999886,"noteNumber":50,"velocity":53,"programNumber":50},{"time":221110.88999999844,"duration":222.22200000000885,"noteNumber":50,"velocity":91,"programNumber":50},{"time":221333.11199999845,"duration":222.22200000000885,"noteNumber":52,"velocity":91,"programNumber":50},{"time":221555.33399999846,"duration":222.22200000000885,"noteNumber":54,"velocity":91,"programNumber":50},{"time":221777.55599999847,"duration":222.22200000000885,"noteNumber":55,"velocity":91,"programNumber":50},{"time":221999.77799999848,"duration":222.22200000000885,"noteNumber":57,"velocity":91,"programNumber":50},{"time":222221.9999999985,"duration":222.22200000000885,"noteNumber":60,"velocity":91,"programNumber":50},{"time":222444.2219999985,"duration":222.22200000000885,"noteNumber":58,"velocity":91,"programNumber":50},{"time":222888.6659999985,"duration":222.22200000000885,"noteNumber":54,"velocity":91,"programNumber":50},{"time":223110.88799999852,"duration":222.22200000000885,"noteNumber":55,"velocity":91,"programNumber":50},{"time":223333.10999999853,"duration":222.22200000000885,"noteNumber":57,"velocity":91,"programNumber":50},{"time":223555.33199999854,"duration":222.22200000000885,"noteNumber":58,"velocity":91,"programNumber":50},{"time":223777.55399999855,"duration":222.22200000000885,"noteNumber":61,"velocity":91,"programNumber":50},{"time":223999.77599999856,"duration":222.22200000000885,"noteNumber":64,"velocity":91,"programNumber":50},{"time":224221.99799999857,"duration":222.22200000000885,"noteNumber":62,"velocity":91,"programNumber":50},{"time":229333.10399999857,"duration":1777.7760000000126,"noteNumber":50,"velocity":53,"programNumber":50},{"time":231110.87999999858,"duration":444.4439999999886,"noteNumber":55,"velocity":97,"programNumber":50},{"time":231777.54599999858,"duration":111.11100000000442,"noteNumber":50,"velocity":97,"programNumber":50},{"time":231999.76799999858,"duration":444.4439999999886,"noteNumber":55,"velocity":97,"programNumber":50},{"time":232666.43399999858,"duration":111.11100000000442,"noteNumber":50,"velocity":97,"programNumber":50},{"time":232888.6559999986,"duration":111.11100000000442,"noteNumber":55,"velocity":97,"programNumber":50},{"time":233110.8779999986,"duration":111.11100000000442,"noteNumber":50,"velocity":97,"programNumber":50},{"time":233333.0999999986,"duration":111.11100000000442,"noteNumber":55,"velocity":96,"programNumber":50},{"time":233555.32199999862,"duration":111.11100000000442,"noteNumber":59,"velocity":96,"programNumber":50},{"time":233777.54399999863,"duration":444.4439999999886,"noteNumber":62,"velocity":95,"programNumber":50},{"time":234666.4319999986,"duration":444.4439999999886,"noteNumber":60,"velocity":95,"programNumber":50},{"time":235333.0979999986,"duration":111.11100000000442,"noteNumber":57,"velocity":95,"programNumber":50},{"time":235555.3199999986,"duration":444.4439999999886,"noteNumber":60,"velocity":95,"programNumber":50},{"time":236221.9859999986,"duration":111.11100000000442,"noteNumber":57,"velocity":91,"programNumber":50},{"time":236444.20799999862,"duration":111.11100000000442,"noteNumber":60,"velocity":91,"programNumber":50},{"time":236666.42999999863,"duration":111.11100000000442,"noteNumber":57,"velocity":91,"programNumber":50},{"time":236888.65199999863,"duration":111.11100000000442,"noteNumber":54,"velocity":91,"programNumber":50},{"time":237110.87399999864,"duration":111.11100000000442,"noteNumber":57,"velocity":91,"programNumber":50},{"time":237333.09599999865,"duration":444.4439999999886,"noteNumber":50,"velocity":90,"programNumber":50},{"time":238221.98399999863,"duration":166.66649999999208,"noteNumber":55,"velocity":85,"programNumber":50},{"time":238444.2059999986,"duration":166.66649999999208,"noteNumber":55,"velocity":85,"programNumber":50},{"time":238666.4279999986,"duration":166.66649999999208,"noteNumber":55,"velocity":85,"programNumber":50},{"time":238888.64999999857,"duration":166.66649999999208,"noteNumber":55,"velocity":85,"programNumber":50},{"time":239110.87199999855,"duration":166.66649999999208,"noteNumber":55,"velocity":85,"programNumber":50},{"time":239333.09399999853,"duration":166.66649999999208,"noteNumber":55,"velocity":85,"programNumber":50},{"time":239555.3159999985,"duration":166.66649999999208,"noteNumber":55,"velocity":85,"programNumber":50},{"time":239777.5379999985,"duration":166.66649999999208,"noteNumber":55,"velocity":85,"programNumber":50},{"time":239999.75999999847,"duration":166.66649999999208,"noteNumber":55,"velocity":85,"programNumber":50},{"time":240221.98199999845,"duration":166.66649999999208,"noteNumber":55,"velocity":85,"programNumber":50},{"time":240444.20399999843,"duration":166.66649999999208,"noteNumber":55,"velocity":85,"programNumber":50},{"time":240666.4259999984,"duration":166.66649999999208,"noteNumber":55,"velocity":85,"programNumber":50},{"time":240888.6479999984,"duration":166.66649999999208,"noteNumber":55,"velocity":85,"programNumber":50},{"time":241110.86999999837,"duration":166.66649999999208,"noteNumber":55,"velocity":85,"programNumber":50},{"time":241333.09199999835,"duration":166.66649999999208,"noteNumber":55,"velocity":85,"programNumber":50},{"time":241555.31399999833,"duration":166.66649999999208,"noteNumber":55,"velocity":85,"programNumber":50},{"time":241777.5359999983,"duration":166.66649999999208,"noteNumber":55,"velocity":85,"programNumber":50},{"time":241999.75799999828,"duration":166.66649999999208,"noteNumber":55,"velocity":85,"programNumber":50},{"time":242221.97999999826,"duration":166.66649999999208,"noteNumber":55,"velocity":85,"programNumber":50},{"time":242444.20199999824,"duration":166.66649999999208,"noteNumber":55,"velocity":85,"programNumber":50},{"time":242666.42399999822,"duration":166.66649999999208,"noteNumber":55,"velocity":85,"programNumber":50},{"time":242888.6459999982,"duration":166.66649999999208,"noteNumber":55,"velocity":85,"programNumber":50},{"time":243110.86799999818,"duration":166.66649999999208,"noteNumber":55,"velocity":85,"programNumber":50},{"time":243333.08999999816,"duration":166.66649999999208,"noteNumber":55,"velocity":85,"programNumber":50},{"time":243555.31199999814,"duration":166.66649999999208,"noteNumber":55,"velocity":85,"programNumber":50},{"time":243777.53399999812,"duration":166.66649999999208,"noteNumber":55,"velocity":85,"programNumber":50},{"time":243999.7559999981,"duration":166.66649999999208,"noteNumber":55,"velocity":85,"programNumber":50},{"time":244221.97799999808,"duration":166.66649999999208,"noteNumber":55,"velocity":85,"programNumber":50},{"time":244444.19999999806,"duration":166.66649999999208,"noteNumber":55,"velocity":85,"programNumber":50},{"time":244666.42199999804,"duration":166.66649999999208,"noteNumber":55,"velocity":85,"programNumber":50},{"time":244888.64399999802,"duration":166.66649999999208,"noteNumber":55,"velocity":85,"programNumber":50},{"time":245110.865999998,"duration":166.66649999999208,"noteNumber":55,"velocity":85,"programNumber":50},{"time":245333.08799999798,"duration":166.66649999999208,"noteNumber":55,"velocity":85,"programNumber":50},{"time":245555.30999999796,"duration":166.66649999999208,"noteNumber":55,"velocity":85,"programNumber":50},{"time":245777.53199999794,"duration":166.66649999999208,"noteNumber":57,"velocity":85,"programNumber":50},{"time":245999.75399999792,"duration":166.66649999999208,"noteNumber":57,"velocity":85,"programNumber":50},{"time":246221.9759999979,"duration":166.66649999999208,"noteNumber":59,"velocity":85,"programNumber":50},{"time":246444.19799999788,"duration":166.66649999999208,"noteNumber":59,"velocity":85,"programNumber":50},{"time":246666.41999999786,"duration":166.66649999999208,"noteNumber":54,"velocity":85,"programNumber":50},{"time":246888.64199999784,"duration":166.66649999999208,"noteNumber":54,"velocity":85,"programNumber":50},{"time":247110.86399999782,"duration":166.66649999999208,"noteNumber":55,"velocity":85,"programNumber":50},{"time":247333.0859999978,"duration":166.66649999999208,"noteNumber":55,"velocity":85,"programNumber":50},{"time":247555.30799999778,"duration":166.66649999999208,"noteNumber":57,"velocity":85,"programNumber":50},{"time":247777.52999999776,"duration":166.66649999999208,"noteNumber":57,"velocity":85,"programNumber":50},{"time":247999.75199999774,"duration":444.4439999999886,"noteNumber":59,"velocity":85,"programNumber":50},{"time":250666.41599999773,"duration":888.8880000000063,"noteNumber":50,"velocity":47,"programNumber":50},{"time":251555.30399999773,"duration":888.8880000000063,"noteNumber":52,"velocity":47,"programNumber":50},{"time":252444.19199999774,"duration":333.33300000001327,"noteNumber":48,"velocity":47,"programNumber":50},{"time":252888.63599999776,"duration":333.33300000001327,"noteNumber":48,"velocity":47,"programNumber":50},{"time":253333.07999999778,"duration":333.33300000001327,"noteNumber":50,"velocity":47,"programNumber":50},{"time":253777.5239999978,"duration":333.33300000001327,"noteNumber":50,"velocity":47,"programNumber":50},{"time":254221.9679999978,"duration":222.22200000000885,"noteNumber":47,"velocity":47,"programNumber":50},{"time":254666.41199999783,"duration":222.22200000000885,"noteNumber":50,"velocity":47,"programNumber":50},{"time":255110.85599999785,"duration":444.4439999999886,"noteNumber":55,"velocity":47,"programNumber":50},{"time":257777.51999999784,"duration":888.8880000000063,"noteNumber":50,"velocity":47,"programNumber":50},{"time":258666.40799999784,"duration":888.8880000000063,"noteNumber":52,"velocity":47,"programNumber":50},{"time":259555.29599999785,"duration":333.33300000001327,"noteNumber":48,"velocity":47,"programNumber":50},{"time":259999.73999999787,"duration":333.33300000001327,"noteNumber":48,"velocity":47,"programNumber":50},{"time":260444.18399999788,"duration":333.33300000001327,"noteNumber":50,"velocity":47,"programNumber":50},{"time":260888.6279999979,"duration":333.33300000001327,"noteNumber":50,"velocity":47,"programNumber":50},{"time":261333.07199999792,"duration":166.66649999999208,"noteNumber":55,"velocity":91,"programNumber":50},{"time":261555.2939999979,"duration":166.66649999999208,"noteNumber":55,"velocity":83,"programNumber":50},{"time":261777.51599999788,"duration":166.66649999999208,"noteNumber":55,"velocity":83,"programNumber":50},{"time":261999.73799999786,"duration":166.66649999999208,"noteNumber":55,"velocity":83,"programNumber":50},{"time":262221.95999999787,"duration":166.66649999999208,"noteNumber":55,"velocity":59,"programNumber":50},{"time":262444.1819999979,"duration":166.66649999999208,"noteNumber":55,"velocity":59,"programNumber":50},{"time":262666.4039999979,"duration":166.66649999999208,"noteNumber":55,"velocity":59,"programNumber":50},{"time":262888.6259999979,"duration":166.66649999999208,"noteNumber":55,"velocity":59,"programNumber":50},{"time":263110.8479999979,"duration":166.66649999999208,"noteNumber":55,"velocity":92,"programNumber":50},{"time":263333.0699999979,"duration":166.66649999999208,"noteNumber":55,"velocity":79,"programNumber":50},{"time":263555.2919999979,"duration":166.66649999999208,"noteNumber":55,"velocity":79,"programNumber":50},{"time":263777.51399999793,"duration":166.66649999999208,"noteNumber":55,"velocity":79,"programNumber":50},{"time":263999.73599999794,"duration":166.66649999999208,"noteNumber":55,"velocity":59,"programNumber":50},{"time":264221.95799999795,"duration":166.66649999999208,"noteNumber":55,"velocity":59,"programNumber":50},{"time":264444.17999999796,"duration":166.66649999999208,"noteNumber":55,"velocity":59,"programNumber":50},{"time":264666.40199999796,"duration":166.66649999999208,"noteNumber":55,"velocity":59,"programNumber":50},{"time":264888.623999998,"duration":166.66649999999208,"noteNumber":55,"velocity":59,"programNumber":50},{"time":265110.845999998,"duration":166.66649999999208,"noteNumber":55,"velocity":40,"programNumber":50},{"time":265333.067999998,"duration":166.66649999999208,"noteNumber":55,"velocity":43,"programNumber":50},{"time":265555.289999998,"duration":166.66649999999208,"noteNumber":55,"velocity":46,"programNumber":50},{"time":265777.511999998,"duration":166.66649999999208,"noteNumber":55,"velocity":49,"programNumber":50},{"time":265999.733999998,"duration":166.66649999999208,"noteNumber":55,"velocity":52,"programNumber":50},{"time":266221.955999998,"duration":166.66649999999208,"noteNumber":55,"velocity":55,"programNumber":50},{"time":266444.17799999804,"duration":166.66649999999208,"noteNumber":55,"velocity":58,"programNumber":50},{"time":266666.39999999804,"duration":166.66649999999208,"noteNumber":55,"velocity":61,"programNumber":50},{"time":266888.62199999805,"duration":166.66649999999208,"noteNumber":55,"velocity":64,"programNumber":50},{"time":267110.84399999806,"duration":166.66649999999208,"noteNumber":54,"velocity":67,"programNumber":50},{"time":267333.06599999807,"duration":166.66649999999208,"noteNumber":54,"velocity":70,"programNumber":50},{"time":267555.2879999981,"duration":166.66649999999208,"noteNumber":55,"velocity":73,"programNumber":50},{"time":267777.5099999981,"duration":166.66649999999208,"noteNumber":55,"velocity":76,"programNumber":50},{"time":267999.7319999981,"duration":166.66649999999208,"noteNumber":52,"velocity":79,"programNumber":50},{"time":268221.9539999981,"duration":166.66649999999208,"noteNumber":52,"velocity":82,"programNumber":50},{"time":268444.1759999981,"duration":166.66649999999208,"noteNumber":50,"velocity":85,"programNumber":50},{"time":268666.3979999981,"duration":166.66649999999208,"noteNumber":50,"velocity":85,"programNumber":50},{"time":268888.61999999813,"duration":166.66649999999208,"noteNumber":50,"velocity":85,"programNumber":50},{"time":269110.84199999814,"duration":166.66649999999208,"noteNumber":50,"velocity":85,"programNumber":50},{"time":269333.06399999815,"duration":166.66649999999208,"noteNumber":50,"velocity":85,"programNumber":50},{"time":269555.28599999816,"duration":166.66649999999208,"noteNumber":50,"velocity":85,"programNumber":50},{"time":269777.50799999817,"duration":166.66649999999208,"noteNumber":50,"velocity":85,"programNumber":50},{"time":269999.7299999982,"duration":166.66649999999208,"noteNumber":50,"velocity":85,"programNumber":50},{"time":270221.9519999982,"duration":166.66649999999208,"noteNumber":50,"velocity":85,"programNumber":50},{"time":270444.1739999982,"duration":166.66649999999208,"noteNumber":50,"velocity":85,"programNumber":50},{"time":270666.3959999982,"duration":166.66649999999208,"noteNumber":50,"velocity":85,"programNumber":50},{"time":270888.6179999982,"duration":166.66649999999208,"noteNumber":50,"velocity":85,"programNumber":50},{"time":271110.8399999982,"duration":166.66649999999208,"noteNumber":50,"velocity":85,"programNumber":50},{"time":271333.06199999823,"duration":166.66649999999208,"noteNumber":50,"velocity":85,"programNumber":50},{"time":271555.28399999824,"duration":166.66649999999208,"noteNumber":50,"velocity":85,"programNumber":50},{"time":271777.50599999825,"duration":166.66649999999208,"noteNumber":50,"velocity":85,"programNumber":50},{"time":271999.72799999826,"duration":166.66649999999208,"noteNumber":50,"velocity":85,"programNumber":50},{"time":272221.94999999827,"duration":166.66649999999208,"noteNumber":50,"velocity":85,"programNumber":50},{"time":272444.1719999983,"duration":166.66649999999208,"noteNumber":50,"velocity":85,"programNumber":50},{"time":272666.3939999983,"duration":166.66649999999208,"noteNumber":50,"velocity":85,"programNumber":50},{"time":272888.6159999983,"duration":166.66649999999208,"noteNumber":50,"velocity":85,"programNumber":50},{"time":273110.8379999983,"duration":166.66649999999208,"noteNumber":50,"velocity":85,"programNumber":50},{"time":273333.0599999983,"duration":166.66649999999208,"noteNumber":50,"velocity":85,"programNumber":50},{"time":273555.2819999983,"duration":166.66649999999208,"noteNumber":50,"velocity":85,"programNumber":50},{"time":273777.5039999983,"duration":166.66649999999208,"noteNumber":50,"velocity":85,"programNumber":50},{"time":273999.72599999834,"duration":166.66649999999208,"noteNumber":50,"velocity":85,"programNumber":50},{"time":274221.94799999835,"duration":166.66649999999208,"noteNumber":50,"velocity":85,"programNumber":50},{"time":274444.16999999835,"duration":166.66649999999208,"noteNumber":50,"velocity":85,"programNumber":50},{"time":274666.39199999836,"duration":444.4440000000177,"noteNumber":50,"velocity":85,"programNumber":50},{"time":276888.6119999984,"duration":222.22200000000885,"noteNumber":56,"velocity":55,"programNumber":50},{"time":277333.0559999984,"duration":222.22200000000885,"noteNumber":57,"velocity":55,"programNumber":50},{"time":277777.4999999984,"duration":222.22200000000885,"noteNumber":55,"velocity":55,"programNumber":50},{"time":278221.94399999845,"duration":222.22200000000885,"noteNumber":54,"velocity":55,"programNumber":50},{"time":278666.38799999846,"duration":222.22200000000885,"noteNumber":50,"velocity":55,"programNumber":50},{"time":279555.2759999985,"duration":444.4440000000177,"noteNumber":51,"velocity":55,"programNumber":50},{"time":279999.7199999985,"duration":222.22200000000885,"noteNumber":52,"velocity":55,"programNumber":50},{"time":280444.16399999853,"duration":222.22200000000885,"noteNumber":48,"velocity":55,"programNumber":50},{"time":280888.60799999855,"duration":333.33299999998417,"noteNumber":50,"velocity":55,"programNumber":50},{"time":281333.0519999985,"duration":666.6660000000265,"noteNumber":62,"velocity":55,"programNumber":50},{"time":281999.71799999854,"duration":222.22200000000885,"noteNumber":61,"velocity":55,"programNumber":50},{"time":282221.93999999855,"duration":222.22200000000885,"noteNumber":60,"velocity":55,"programNumber":50},{"time":282444.16199999856,"duration":222.22200000000885,"noteNumber":57,"velocity":55,"programNumber":50},{"time":282666.38399999856,"duration":222.22200000000885,"noteNumber":55,"velocity":55,"programNumber":50},{"time":283110.8279999986,"duration":222.22200000000885,"noteNumber":57,"velocity":55,"programNumber":50},{"time":283555.2719999986,"duration":222.22200000000885,"noteNumber":59,"velocity":55,"programNumber":50},{"time":283999.7159999986,"duration":222.22200000000885,"noteNumber":56,"velocity":55,"programNumber":50},{"time":284444.15999999864,"duration":222.22200000000885,"noteNumber":57,"velocity":55,"programNumber":50},{"time":284888.60399999865,"duration":222.22200000000885,"noteNumber":55,"velocity":55,"programNumber":50},{"time":285333.0479999987,"duration":222.22200000000885,"noteNumber":54,"velocity":55,"programNumber":50},{"time":285777.4919999987,"duration":222.22200000000885,"noteNumber":50,"velocity":55,"programNumber":50},{"time":286221.9359999987,"duration":222.22200000000885,"noteNumber":52,"velocity":55,"programNumber":50},{"time":286666.3799999987,"duration":222.22200000000885,"noteNumber":60,"velocity":55,"programNumber":50},{"time":287110.82399999874,"duration":222.22200000000885,"noteNumber":62,"velocity":55,"programNumber":50},{"time":287555.26799999876,"duration":222.22200000000885,"noteNumber":50,"velocity":55,"programNumber":50},{"time":287999.7119999988,"duration":444.4440000000177,"noteNumber":43,"velocity":55,"programNumber":50},{"time":289777.4879999988,"duration":444.4440000000177,"noteNumber":50,"velocity":55,"programNumber":50},{"time":291555.2639999988,"duration":444.4440000000177,"noteNumber":43,"velocity":55,"programNumber":50},{"time":293333.0399999988,"duration":444.4440000000177,"noteNumber":50,"velocity":55,"programNumber":50},{"time":295333.03799999884,"duration":166.66649999999208,"noteNumber":55,"velocity":55,"programNumber":50},{"time":295555.25999999885,"duration":166.66649999999208,"noteNumber":59,"velocity":55,"programNumber":50},{"time":295777.48199999885,"duration":166.66649999999208,"noteNumber":57,"velocity":55,"programNumber":50},{"time":295999.70399999886,"duration":166.66649999999208,"noteNumber":56,"velocity":55,"programNumber":50},{"time":296221.9259999989,"duration":166.66649999999208,"noteNumber":52,"velocity":55,"programNumber":50},{"time":296444.1479999989,"duration":166.66649999999208,"noteNumber":54,"velocity":55,"programNumber":50},{"time":296666.3699999989,"duration":166.66649999999208,"noteNumber":55,"velocity":55,"programNumber":50},{"time":296888.5919999989,"duration":166.66649999999208,"noteNumber":57,"velocity":85,"programNumber":50},{"time":297110.8139999989,"duration":166.66649999999208,"noteNumber":60,"velocity":85,"programNumber":50},{"time":297333.0359999989,"duration":166.66649999999208,"noteNumber":57,"velocity":85,"programNumber":50},{"time":297555.2579999989,"duration":166.66649999999208,"noteNumber":55,"velocity":85,"programNumber":50},{"time":297777.47999999893,"duration":166.66649999999208,"noteNumber":54,"velocity":85,"programNumber":50},{"time":297999.70199999894,"duration":166.66649999999208,"noteNumber":50,"velocity":85,"programNumber":50},{"time":298221.92399999895,"duration":166.66649999999208,"noteNumber":52,"velocity":85,"programNumber":50},{"time":298444.14599999896,"duration":166.66649999999208,"noteNumber":54,"velocity":85,"programNumber":50},{"time":298666.36799999897,"duration":166.66649999999208,"noteNumber":55,"velocity":85,"programNumber":50},{"time":298888.589999999,"duration":166.66649999999208,"noteNumber":55,"velocity":85,"programNumber":50},{"time":299110.811999999,"duration":166.66649999999208,"noteNumber":57,"velocity":85,"programNumber":50},{"time":299333.033999999,"duration":166.66649999999208,"noteNumber":59,"velocity":85,"programNumber":50},{"time":299555.255999999,"duration":166.66649999999208,"noteNumber":60,"velocity":85,"programNumber":50},{"time":299777.477999999,"duration":166.66649999999208,"noteNumber":60,"velocity":85,"programNumber":50},{"time":299999.699999999,"duration":166.66649999999208,"noteNumber":60,"velocity":85,"programNumber":50},{"time":300221.92199999903,"duration":166.66649999999208,"noteNumber":60,"velocity":85,"programNumber":50},{"time":300444.14399999904,"duration":166.66649999999208,"noteNumber":62,"velocity":85,"programNumber":50},{"time":300666.36599999905,"duration":166.66649999999208,"noteNumber":62,"velocity":85,"programNumber":50},{"time":300888.58799999906,"duration":166.66649999999208,"noteNumber":62,"velocity":85,"programNumber":50},{"time":301110.80999999907,"duration":166.66649999999208,"noteNumber":62,"velocity":85,"programNumber":50},{"time":301333.0319999991,"duration":166.66649999999208,"noteNumber":50,"velocity":85,"programNumber":50},{"time":301555.2539999991,"duration":166.66649999999208,"noteNumber":50,"velocity":85,"programNumber":50},{"time":301777.4759999991,"duration":166.66649999999208,"noteNumber":50,"velocity":85,"programNumber":50},{"time":301999.6979999991,"duration":166.66649999999208,"noteNumber":50,"velocity":85,"programNumber":50},{"time":302221.9199999991,"duration":444.4440000000177,"noteNumber":55,"velocity":85,"programNumber":50},{"time":303999.6959999991,"duration":444.4440000000177,"noteNumber":50,"velocity":55,"programNumber":50},{"time":305777.47199999914,"duration":444.4440000000177,"noteNumber":55,"velocity":55,"programNumber":50},{"time":307555.24799999915,"duration":444.4440000000177,"noteNumber":50,"velocity":55,"programNumber":50},{"time":309555.24599999917,"duration":166.66649999999208,"noteNumber":55,"velocity":85,"programNumber":50},{"time":309777.4679999992,"duration":166.66649999999208,"noteNumber":59,"velocity":85,"programNumber":50},{"time":309999.6899999992,"duration":166.66649999999208,"noteNumber":57,"velocity":85,"programNumber":50},{"time":310221.9119999992,"duration":166.66649999999208,"noteNumber":56,"velocity":85,"programNumber":50},{"time":310444.1339999992,"duration":166.66649999999208,"noteNumber":52,"velocity":85,"programNumber":50},{"time":310666.3559999992,"duration":166.66649999999208,"noteNumber":54,"velocity":85,"programNumber":50},{"time":310888.5779999992,"duration":166.66649999999208,"noteNumber":55,"velocity":85,"programNumber":50},{"time":311110.79999999923,"duration":166.66649999999208,"noteNumber":57,"velocity":85,"programNumber":50},{"time":311333.02199999924,"duration":166.66649999999208,"noteNumber":60,"velocity":85,"programNumber":50},{"time":311555.24399999925,"duration":166.66649999999208,"noteNumber":57,"velocity":85,"programNumber":50},{"time":311777.46599999926,"duration":166.66649999999208,"noteNumber":55,"velocity":85,"programNumber":50},{"time":311999.68799999927,"duration":166.66649999999208,"noteNumber":54,"velocity":85,"programNumber":50},{"time":312221.9099999993,"duration":166.66649999999208,"noteNumber":50,"velocity":85,"programNumber":50},{"time":312444.1319999993,"duration":166.66649999999208,"noteNumber":52,"velocity":85,"programNumber":50},{"time":312666.3539999993,"duration":166.66649999999208,"noteNumber":54,"velocity":85,"programNumber":50},{"time":312888.5759999993,"duration":166.66649999999208,"noteNumber":55,"velocity":85,"programNumber":50},{"time":313110.7979999993,"duration":166.66649999999208,"noteNumber":55,"velocity":85,"programNumber":50},{"time":313333.0199999993,"duration":166.66649999999208,"noteNumber":57,"velocity":85,"programNumber":50},{"time":313555.2419999993,"duration":166.66649999999208,"noteNumber":59,"velocity":85,"programNumber":50},{"time":313777.46399999934,"duration":166.66649999999208,"noteNumber":60,"velocity":85,"programNumber":50},{"time":313999.68599999935,"duration":166.66649999999208,"noteNumber":60,"velocity":85,"programNumber":50},{"time":314221.90799999936,"duration":166.66649999999208,"noteNumber":60,"velocity":85,"programNumber":50},{"time":314444.12999999936,"duration":166.66649999999208,"noteNumber":60,"velocity":85,"programNumber":50},{"time":314666.3519999994,"duration":166.66649999999208,"noteNumber":62,"velocity":85,"programNumber":50},{"time":314888.5739999994,"duration":166.66649999999208,"noteNumber":62,"velocity":85,"programNumber":50},{"time":315110.7959999994,"duration":166.66649999999208,"noteNumber":62,"velocity":85,"programNumber":50},{"time":315333.0179999994,"duration":166.66649999999208,"noteNumber":62,"velocity":85,"programNumber":50},{"time":315555.2399999994,"duration":166.66649999999208,"noteNumber":50,"velocity":85,"programNumber":50},{"time":315777.4619999994,"duration":166.66649999999208,"noteNumber":50,"velocity":85,"programNumber":50},{"time":315999.6839999994,"duration":166.66649999999208,"noteNumber":50,"velocity":85,"programNumber":50},{"time":316221.90599999944,"duration":166.66649999999208,"noteNumber":50,"velocity":85,"programNumber":50},{"time":316444.12799999944,"duration":166.66649999999208,"noteNumber":55,"velocity":85,"programNumber":50},{"time":316666.34999999945,"duration":166.66649999999208,"noteNumber":50,"velocity":85,"programNumber":50},{"time":316888.57199999946,"duration":166.66649999999208,"noteNumber":52,"velocity":85,"programNumber":50},{"time":317110.79399999947,"duration":166.66649999999208,"noteNumber":54,"velocity":85,"programNumber":50},{"time":317333.0159999995,"duration":166.66649999999208,"noteNumber":55,"velocity":85,"programNumber":50},{"time":317555.2379999995,"duration":166.66649999999208,"noteNumber":55,"velocity":85,"programNumber":50},{"time":317777.4599999995,"duration":166.66649999999208,"noteNumber":57,"velocity":85,"programNumber":50},{"time":317999.6819999995,"duration":166.66649999999208,"noteNumber":57,"velocity":85,"programNumber":50},{"time":318221.9039999995,"duration":166.66649999999208,"noteNumber":59,"velocity":85,"programNumber":50},{"time":318444.1259999995,"duration":166.66649999999208,"noteNumber":54,"velocity":85,"programNumber":50},{"time":318666.34799999953,"duration":166.66649999999208,"noteNumber":55,"velocity":85,"programNumber":50},{"time":318888.56999999954,"duration":166.66649999999208,"noteNumber":57,"velocity":85,"programNumber":50},{"time":319110.79199999955,"duration":166.66649999999208,"noteNumber":59,"velocity":85,"programNumber":50},{"time":319333.01399999956,"duration":166.66649999999208,"noteNumber":59,"velocity":85,"programNumber":50},{"time":319555.23599999957,"duration":166.66649999999208,"noteNumber":60,"velocity":85,"programNumber":50},{"time":319777.4579999996,"duration":166.66649999999208,"noteNumber":60,"velocity":85,"programNumber":50},{"time":319999.6799999996,"duration":166.66649999999208,"noteNumber":62,"velocity":85,"programNumber":50},{"time":320221.9019999996,"duration":166.66649999999208,"noteNumber":62,"velocity":85,"programNumber":50},{"time":320444.1239999996,"duration":166.66649999999208,"noteNumber":63,"velocity":85,"programNumber":50},{"time":320666.3459999996,"duration":166.66649999999208,"noteNumber":63,"velocity":85,"programNumber":50},{"time":320888.5679999996,"duration":444.4440000000177,"noteNumber":64,"velocity":85,"programNumber":50},{"time":321777.45599999966,"duration":888.8879999999772,"noteNumber":48,"velocity":70,"programNumber":50},{"time":322666.34399999963,"duration":888.8879999999772,"noteNumber":50,"velocity":70,"programNumber":50},{"time":323555.2319999996,"duration":444.4440000000177,"noteNumber":43,"velocity":70,"programNumber":50},{"time":325333.0079999996,"duration":888.8879999999772,"noteNumber":48,"velocity":70,"programNumber":50},{"time":326221.8959999996,"duration":888.8879999999772,"noteNumber":50,"velocity":70,"programNumber":50},{"time":327110.7839999996,"duration":444.4440000000177,"noteNumber":43,"velocity":70,"programNumber":50},{"time":328888.5599999996,"duration":444.4440000000177,"noteNumber":48,"velocity":80,"programNumber":50},{"time":329777.4479999996,"duration":444.4440000000177,"noteNumber":50,"velocity":109,"programNumber":50},{"time":330666.33599999966,"duration":166.66649999999208,"noteNumber":43,"velocity":99,"programNumber":50},{"time":330888.55799999967,"duration":166.66649999999208,"noteNumber":43,"velocity":95,"programNumber":50},{"time":331110.7799999997,"duration":166.66649999999208,"noteNumber":43,"velocity":93,"programNumber":50},{"time":331333.0019999997,"duration":166.66649999999208,"noteNumber":43,"velocity":93,"programNumber":50},{"time":331555.2239999997,"duration":166.66649999999208,"noteNumber":43,"velocity":93,"programNumber":50},{"time":331777.4459999997,"duration":166.66649999999208,"noteNumber":43,"velocity":94,"programNumber":50},{"time":331999.6679999997,"duration":166.66649999999208,"noteNumber":43,"velocity":94,"programNumber":50},{"time":332221.8899999997,"duration":166.66649999999208,"noteNumber":43,"velocity":94,"programNumber":50},{"time":332444.11199999973,"duration":166.66649999999208,"noteNumber":43,"velocity":94,"programNumber":50},{"time":332666.33399999974,"duration":166.66649999999208,"noteNumber":43,"velocity":94,"programNumber":50},{"time":332888.55599999975,"duration":166.66649999999208,"noteNumber":43,"velocity":94,"programNumber":50},{"time":333110.77799999976,"duration":166.66649999999208,"noteNumber":43,"velocity":94,"programNumber":50},{"time":333332.99999999977,"duration":166.66649999999208,"noteNumber":43,"velocity":94,"programNumber":50},{"time":333555.2219999998,"duration":166.66649999999208,"noteNumber":43,"velocity":94,"programNumber":50},{"time":333777.4439999998,"duration":166.66649999999208,"noteNumber":43,"velocity":94,"programNumber":50},{"time":333999.6659999998,"duration":166.66649999999208,"noteNumber":43,"velocity":94,"programNumber":50},{"time":334221.8879999998,"duration":166.66649999999208,"noteNumber":43,"velocity":94,"programNumber":50},{"time":334444.1099999998,"duration":166.66649999999208,"noteNumber":43,"velocity":94,"programNumber":50},{"time":334666.3319999998,"duration":166.66649999999208,"noteNumber":43,"velocity":94,"programNumber":50},{"time":334888.5539999998,"duration":166.66649999999208,"noteNumber":43,"velocity":94,"programNumber":50},{"time":335110.77599999984,"duration":166.66649999999208,"noteNumber":43,"velocity":94,"programNumber":50},{"time":335332.99799999985,"duration":166.66649999999208,"noteNumber":43,"velocity":94,"programNumber":50},{"time":335555.21999999986,"duration":166.66649999999208,"noteNumber":43,"velocity":94,"programNumber":50},{"time":335777.44199999986,"duration":166.66649999999208,"noteNumber":43,"velocity":94,"programNumber":50},{"time":335999.6639999999,"duration":166.66649999999208,"noteNumber":43,"velocity":94,"programNumber":50},{"time":336221.8859999999,"duration":166.66649999999208,"noteNumber":43,"velocity":94,"programNumber":50},{"time":336444.1079999999,"duration":166.66649999999208,"noteNumber":43,"velocity":94,"programNumber":50},{"time":336666.3299999999,"duration":166.66649999999208,"noteNumber":43,"velocity":94,"programNumber":50},{"time":336888.5519999999,"duration":166.66649999999208,"noteNumber":43,"velocity":94,"programNumber":50},{"time":337110.7739999999,"duration":166.66649999999208,"noteNumber":43,"velocity":94,"programNumber":50},{"time":337332.9959999999,"duration":166.66649999999208,"noteNumber":43,"velocity":94,"programNumber":50},{"time":337555.21799999994,"duration":166.66649999999208,"noteNumber":43,"velocity":94,"programNumber":50},{"time":337777.43999999994,"duration":166.66649999999208,"noteNumber":43,"velocity":94,"programNumber":50},{"time":337999.66199999995,"duration":166.66649999999208,"noteNumber":47,"velocity":96,"programNumber":50},{"time":338221.88399999996,"duration":166.66649999999208,"noteNumber":50,"velocity":98,"programNumber":50},{"time":338444.10599999997,"duration":166.66649999999208,"noteNumber":55,"velocity":98,"programNumber":50},{"time":338666.328,"duration":166.66649999999208,"noteNumber":59,"velocity":97,"programNumber":50},{"time":338888.55,"duration":166.66649999999208,"noteNumber":55,"velocity":93,"programNumber":50},{"time":339110.772,"duration":166.66649999999208,"noteNumber":62,"velocity":92,"programNumber":50},{"time":339332.994,"duration":166.66649999999208,"noteNumber":59,"velocity":93,"programNumber":50},{"time":339555.216,"duration":370.36999999999534,"noteNumber":55,"velocity":94,"programNumber":50},{"time":339999.66000000003,"duration":222.22200000000885,"noteNumber":43,"velocity":94,"programNumber":50},{"time":340332.993,"duration":55.555500000016764,"noteNumber":43,"velocity":93,"programNumber":50},{"time":340444.10400000005,"duration":444.4440000000177,"noteNumber":43,"velocity":92,"programNumber":50}],[{"time":0,"duration":444.444,"noteNumber":43,"velocity":85,"programNumber":41},{"time":666.666,"duration":111.11099999999999,"noteNumber":38,"velocity":85,"programNumber":41},{"time":888.888,"duration":444.4440000000001,"noteNumber":43,"velocity":85,"programNumber":41},{"time":1555.554,"duration":111.1110000000001,"noteNumber":38,"velocity":85,"programNumber":41},{"time":1777.7760000000003,"duration":111.1110000000001,"noteNumber":43,"velocity":85,"programNumber":41},{"time":1999.9980000000005,"duration":111.11099999999988,"noteNumber":38,"velocity":85,"programNumber":41},{"time":2222.2200000000003,"duration":111.11099999999988,"noteNumber":43,"velocity":85,"programNumber":41},{"time":2444.442,"duration":111.11099999999988,"noteNumber":47,"velocity":85,"programNumber":41},{"time":2666.6639999999998,"duration":444.44399999999996,"noteNumber":50,"velocity":85,"programNumber":41},{"time":3555.5519999999997,"duration":444.44399999999996,"noteNumber":48,"velocity":85,"programNumber":41},{"time":4222.218,"duration":111.11099999999988,"noteNumber":45,"velocity":85,"programNumber":41},{"time":4444.44,"duration":444.4440000000004,"noteNumber":48,"velocity":85,"programNumber":41},{"time":5111.106,"duration":111.11099999999988,"noteNumber":45,"velocity":85,"programNumber":41},{"time":5333.3279999999995,"duration":111.11099999999988,"noteNumber":48,"velocity":85,"programNumber":41},{"time":5555.549999999999,"duration":111.11099999999988,"noteNumber":45,"velocity":85,"programNumber":41},{"time":5777.771999999999,"duration":111.11099999999988,"noteNumber":42,"velocity":85,"programNumber":41},{"time":5999.993999999999,"duration":111.11099999999988,"noteNumber":45,"velocity":85,"programNumber":41},{"time":6222.2159999999985,"duration":444.4440000000004,"noteNumber":38,"velocity":85,"programNumber":41},{"time":7111.103999999999,"duration":166.66650000000027,"noteNumber":43,"velocity":85,"programNumber":41},{"time":7333.326,"duration":166.66650000000027,"noteNumber":43,"velocity":85,"programNumber":41},{"time":7555.548000000001,"duration":166.66650000000027,"noteNumber":43,"velocity":85,"programNumber":41},{"time":7777.770000000001,"duration":166.66650000000027,"noteNumber":43,"velocity":85,"programNumber":41},{"time":7999.992000000002,"duration":166.66650000000027,"noteNumber":43,"velocity":85,"programNumber":41},{"time":8222.214000000002,"duration":166.66649999999936,"noteNumber":43,"velocity":85,"programNumber":41},{"time":8444.436000000002,"duration":166.66649999999936,"noteNumber":43,"velocity":85,"programNumber":41},{"time":8666.658000000001,"duration":166.66649999999936,"noteNumber":43,"velocity":85,"programNumber":41},{"time":8888.880000000001,"duration":166.66649999999936,"noteNumber":43,"velocity":85,"programNumber":41},{"time":9111.102,"duration":166.66649999999936,"noteNumber":43,"velocity":85,"programNumber":41},{"time":9333.324,"duration":166.66649999999936,"noteNumber":43,"velocity":85,"programNumber":41},{"time":9555.546,"duration":166.66649999999936,"noteNumber":43,"velocity":85,"programNumber":41},{"time":9777.768,"duration":166.66649999999936,"noteNumber":43,"velocity":85,"programNumber":41},{"time":9999.99,"duration":166.66649999999936,"noteNumber":43,"velocity":85,"programNumber":41},{"time":10222.212,"duration":166.66649999999936,"noteNumber":43,"velocity":85,"programNumber":41},{"time":10444.434,"duration":166.66649999999936,"noteNumber":43,"velocity":85,"programNumber":41},{"time":10666.655999999999,"duration":166.66649999999936,"noteNumber":43,"velocity":85,"programNumber":41},{"time":10888.877999999999,"duration":166.66649999999936,"noteNumber":43,"velocity":85,"programNumber":41},{"time":11111.099999999999,"duration":166.66649999999936,"noteNumber":43,"velocity":85,"programNumber":41},{"time":11333.321999999998,"duration":166.66649999999936,"noteNumber":43,"velocity":85,"programNumber":41},{"time":11555.543999999998,"duration":166.66649999999936,"noteNumber":43,"velocity":85,"programNumber":41},{"time":11777.765999999998,"duration":166.66649999999936,"noteNumber":43,"velocity":85,"programNumber":41},{"time":11999.987999999998,"duration":166.66649999999936,"noteNumber":43,"velocity":85,"programNumber":41},{"time":12222.209999999997,"duration":166.66649999999936,"noteNumber":43,"velocity":85,"programNumber":41},{"time":12444.431999999997,"duration":166.66649999999936,"noteNumber":43,"velocity":85,"programNumber":41},{"time":12666.653999999997,"duration":166.66649999999936,"noteNumber":43,"velocity":85,"programNumber":41},{"time":12888.875999999997,"duration":166.66649999999936,"noteNumber":43,"velocity":85,"programNumber":41},{"time":13111.097999999996,"duration":166.66649999999936,"noteNumber":43,"velocity":85,"programNumber":41},{"time":13333.319999999996,"duration":166.66649999999936,"noteNumber":43,"velocity":85,"programNumber":41},{"time":13555.541999999996,"duration":166.66649999999936,"noteNumber":43,"velocity":85,"programNumber":41},{"time":13777.763999999996,"duration":166.66649999999936,"noteNumber":43,"velocity":85,"programNumber":41},{"time":13999.985999999995,"duration":166.66649999999936,"noteNumber":43,"velocity":85,"programNumber":41},{"time":14222.207999999995,"duration":166.66649999999936,"noteNumber":43,"velocity":85,"programNumber":41},{"time":14444.429999999995,"duration":166.66649999999936,"noteNumber":43,"velocity":85,"programNumber":41},{"time":14666.651999999995,"duration":166.66649999999936,"noteNumber":45,"velocity":85,"programNumber":41},{"time":14888.873999999994,"duration":166.66649999999936,"noteNumber":45,"velocity":85,"programNumber":41},{"time":15111.095999999994,"duration":166.66649999999936,"noteNumber":47,"velocity":85,"programNumber":41},{"time":15333.317999999994,"duration":166.66649999999936,"noteNumber":47,"velocity":85,"programNumber":41},{"time":15555.539999999994,"duration":166.66649999999936,"noteNumber":42,"velocity":85,"programNumber":41},{"time":15777.761999999993,"duration":166.66649999999936,"noteNumber":42,"velocity":85,"programNumber":41},{"time":15999.983999999993,"duration":166.66649999999936,"noteNumber":43,"velocity":85,"programNumber":41},{"time":16222.205999999993,"duration":166.66650000000118,"noteNumber":43,"velocity":85,"programNumber":41},{"time":16444.427999999993,"duration":166.66649999999936,"noteNumber":45,"velocity":85,"programNumber":41},{"time":16666.64999999999,"duration":166.66649999999936,"noteNumber":45,"velocity":85,"programNumber":41},{"time":16888.87199999999,"duration":444.4439999999995,"noteNumber":47,"velocity":85,"programNumber":41},{"time":19555.53599999999,"duration":888.887999999999,"noteNumber":38,"velocity":47,"programNumber":41},{"time":20444.423999999988,"duration":888.887999999999,"noteNumber":40,"velocity":47,"programNumber":41},{"time":21333.311999999987,"duration":333.3329999999987,"noteNumber":36,"velocity":47,"programNumber":41},{"time":21777.755999999987,"duration":333.3329999999987,"noteNumber":36,"velocity":47,"programNumber":41},{"time":22222.199999999986,"duration":333.3329999999987,"noteNumber":38,"velocity":47,"programNumber":41},{"time":22666.643999999986,"duration":333.3329999999987,"noteNumber":38,"velocity":47,"programNumber":41},{"time":23111.087999999985,"duration":222.22200000000157,"noteNumber":35,"velocity":47,"programNumber":41},{"time":23555.53199999999,"duration":222.22200000000157,"noteNumber":38,"velocity":47,"programNumber":41},{"time":23999.97599999999,"duration":444.4439999999995,"noteNumber":43,"velocity":47,"programNumber":41},{"time":26666.639999999992,"duration":888.887999999999,"noteNumber":38,"velocity":47,"programNumber":41},{"time":27555.52799999999,"duration":888.887999999999,"noteNumber":40,"velocity":47,"programNumber":41},{"time":28444.41599999999,"duration":333.3329999999987,"noteNumber":36,"velocity":47,"programNumber":41},{"time":28888.85999999999,"duration":333.3329999999987,"noteNumber":36,"velocity":47,"programNumber":41},{"time":29333.30399999999,"duration":333.3329999999987,"noteNumber":38,"velocity":47,"programNumber":41},{"time":29777.74799999999,"duration":333.3329999999987,"noteNumber":38,"velocity":47,"programNumber":41},{"time":30222.19199999999,"duration":166.66649999999936,"noteNumber":43,"velocity":91,"programNumber":41},{"time":30444.413999999986,"duration":166.66649999999936,"noteNumber":43,"velocity":83,"programNumber":41},{"time":30666.635999999984,"duration":166.66649999999936,"noteNumber":43,"velocity":83,"programNumber":41},{"time":30888.857999999982,"duration":166.66649999999936,"noteNumber":43,"velocity":83,"programNumber":41},{"time":31111.07999999998,"duration":166.66649999999936,"noteNumber":43,"velocity":59,"programNumber":41},{"time":31333.301999999978,"duration":166.66649999999936,"noteNumber":43,"velocity":59,"programNumber":41},{"time":31555.523999999976,"duration":166.66649999999936,"noteNumber":43,"velocity":59,"programNumber":41},{"time":31777.745999999974,"duration":166.66649999999936,"noteNumber":43,"velocity":59,"programNumber":41},{"time":31999.96799999997,"duration":166.66649999999936,"noteNumber":43,"velocity":92,"programNumber":41},{"time":32222.18999999997,"duration":166.66649999999936,"noteNumber":43,"velocity":79,"programNumber":41},{"time":32444.411999999968,"duration":166.66649999999936,"noteNumber":43,"velocity":79,"programNumber":41},{"time":32666.633999999965,"duration":166.666500000003,"noteNumber":43,"velocity":79,"programNumber":41},{"time":32888.85599999997,"duration":166.66649999999936,"noteNumber":43,"velocity":59,"programNumber":41},{"time":33111.07799999997,"duration":166.66649999999936,"noteNumber":43,"velocity":59,"programNumber":41},{"time":33333.299999999974,"duration":166.66649999999936,"noteNumber":43,"velocity":59,"programNumber":41},{"time":33555.521999999975,"duration":166.66649999999936,"noteNumber":43,"velocity":59,"programNumber":41},{"time":33777.74399999998,"duration":166.66649999999936,"noteNumber":43,"velocity":59,"programNumber":41},{"time":33999.96599999998,"duration":166.66649999999936,"noteNumber":43,"velocity":40,"programNumber":41},{"time":34222.18799999998,"duration":166.66649999999936,"noteNumber":43,"velocity":43,"programNumber":41},{"time":34444.40999999998,"duration":166.66649999999936,"noteNumber":43,"velocity":46,"programNumber":41},{"time":34666.63199999998,"duration":166.66649999999936,"noteNumber":43,"velocity":49,"programNumber":41},{"time":34888.853999999985,"duration":166.66649999999936,"noteNumber":43,"velocity":52,"programNumber":41},{"time":35111.07599999999,"duration":166.66649999999936,"noteNumber":43,"velocity":55,"programNumber":41},{"time":35333.29799999999,"duration":166.66649999999936,"noteNumber":43,"velocity":58,"programNumber":41},{"time":35555.51999999999,"duration":166.66649999999936,"noteNumber":43,"velocity":61,"programNumber":41},{"time":35777.74199999999,"duration":166.66649999999936,"noteNumber":43,"velocity":64,"programNumber":41},{"time":35999.96399999999,"duration":166.66649999999936,"noteNumber":42,"velocity":67,"programNumber":41},{"time":36222.185999999994,"duration":166.66649999999936,"noteNumber":42,"velocity":70,"programNumber":41},{"time":36444.407999999996,"duration":166.66649999999936,"noteNumber":43,"velocity":73,"programNumber":41},{"time":36666.63,"duration":166.66649999999936,"noteNumber":43,"velocity":76,"programNumber":41},{"time":36888.852,"duration":166.66649999999936,"noteNumber":40,"velocity":79,"programNumber":41},{"time":37111.074,"duration":166.66649999999936,"noteNumber":40,"velocity":82,"programNumber":41},{"time":37333.296,"duration":166.66649999999936,"noteNumber":38,"velocity":85,"programNumber":41},{"time":37555.518000000004,"duration":166.66649999999936,"noteNumber":38,"velocity":85,"programNumber":41},{"time":37777.740000000005,"duration":166.66649999999936,"noteNumber":38,"velocity":85,"programNumber":41},{"time":37999.96200000001,"duration":166.66649999999936,"noteNumber":38,"velocity":85,"programNumber":41},{"time":38222.18400000001,"duration":166.66649999999936,"noteNumber":38,"velocity":85,"programNumber":41},{"time":38444.40600000001,"duration":166.66649999999936,"noteNumber":38,"velocity":85,"programNumber":41},{"time":38666.62800000001,"duration":166.66649999999936,"noteNumber":38,"velocity":85,"programNumber":41},{"time":38888.85000000001,"duration":166.66649999999936,"noteNumber":38,"velocity":85,"programNumber":41},{"time":39111.072000000015,"duration":166.66649999999936,"noteNumber":38,"velocity":85,"programNumber":41},{"time":39333.294000000016,"duration":166.66649999999936,"noteNumber":38,"velocity":85,"programNumber":41},{"time":39555.51600000002,"duration":166.66649999999936,"noteNumber":38,"velocity":85,"programNumber":41},{"time":39777.73800000002,"duration":166.66649999999936,"noteNumber":38,"velocity":85,"programNumber":41},{"time":39999.96000000002,"duration":166.66649999999936,"noteNumber":38,"velocity":85,"programNumber":41},{"time":40222.18200000002,"duration":166.66649999999936,"noteNumber":38,"velocity":85,"programNumber":41},{"time":40444.404000000024,"duration":166.66649999999936,"noteNumber":38,"velocity":85,"programNumber":41},{"time":40666.626000000026,"duration":166.66649999999936,"noteNumber":38,"velocity":85,"programNumber":41},{"time":40888.84800000003,"duration":166.66649999999936,"noteNumber":38,"velocity":85,"programNumber":41},{"time":41111.07000000003,"duration":166.66649999999936,"noteNumber":40,"velocity":85,"programNumber":41},{"time":41333.29200000003,"duration":166.66649999999936,"noteNumber":42,"velocity":85,"programNumber":41},{"time":41555.51400000003,"duration":166.66649999999936,"noteNumber":40,"velocity":85,"programNumber":41},{"time":41777.73600000003,"duration":166.66649999999936,"noteNumber":38,"velocity":85,"programNumber":41},{"time":41999.958000000035,"duration":166.66649999999936,"noteNumber":40,"velocity":85,"programNumber":41},{"time":42222.18000000004,"duration":166.66649999999936,"noteNumber":42,"velocity":85,"programNumber":41},{"time":42444.40200000004,"duration":166.66649999999936,"noteNumber":38,"velocity":85,"programNumber":41},{"time":42666.62400000004,"duration":166.66649999999936,"noteNumber":43,"velocity":85,"programNumber":41},{"time":42888.84600000004,"duration":166.66649999999936,"noteNumber":45,"velocity":85,"programNumber":41},{"time":43111.06800000004,"duration":166.66649999999936,"noteNumber":47,"velocity":85,"programNumber":41},{"time":43333.290000000045,"duration":166.66649999999936,"noteNumber":45,"velocity":85,"programNumber":41},{"time":43555.512000000046,"duration":166.66649999999936,"noteNumber":43,"velocity":85,"programNumber":41},{"time":43777.73400000005,"duration":166.66649999999936,"noteNumber":45,"velocity":85,"programNumber":41},{"time":43999.95600000005,"duration":166.66649999999936,"noteNumber":47,"velocity":85,"programNumber":41},{"time":44222.17800000005,"duration":166.66649999999936,"noteNumber":44,"velocity":85,"programNumber":41},{"time":44444.40000000005,"duration":166.66649999999936,"noteNumber":45,"velocity":85,"programNumber":41},{"time":44666.622000000054,"duration":166.66649999999936,"noteNumber":45,"velocity":85,"programNumber":41},{"time":44888.844000000056,"duration":166.66649999999936,"noteNumber":45,"velocity":85,"programNumber":41},{"time":45111.06600000006,"duration":166.66649999999936,"noteNumber":45,"velocity":85,"programNumber":41},{"time":45333.28800000006,"duration":166.66649999999936,"noteNumber":45,"velocity":85,"programNumber":41},{"time":45555.51000000006,"duration":166.66649999999936,"noteNumber":45,"velocity":85,"programNumber":41},{"time":45777.73200000006,"duration":166.66649999999936,"noteNumber":45,"velocity":85,"programNumber":41},{"time":45999.95400000006,"duration":166.66649999999936,"noteNumber":45,"velocity":85,"programNumber":41},{"time":46222.176000000065,"duration":166.66649999999936,"noteNumber":45,"velocity":85,"programNumber":41},{"time":46444.39800000007,"duration":166.66649999999936,"noteNumber":33,"velocity":85,"programNumber":41},{"time":46666.62000000007,"duration":166.66649999999936,"noteNumber":33,"velocity":85,"programNumber":41},{"time":46888.84200000007,"duration":166.66649999999936,"noteNumber":33,"velocity":85,"programNumber":41},{"time":47111.06400000007,"duration":444.44400000000314,"noteNumber":33,"velocity":85,"programNumber":41},{"time":49333.28400000007,"duration":222.22200000000157,"noteNumber":39,"velocity":55,"programNumber":41},{"time":49777.728000000076,"duration":222.22200000000157,"noteNumber":40,"velocity":55,"programNumber":41},{"time":50222.17200000008,"duration":222.22200000000157,"noteNumber":38,"velocity":55,"programNumber":41},{"time":50666.61600000008,"duration":222.22200000000157,"noteNumber":37,"velocity":55,"programNumber":41},{"time":51111.060000000085,"duration":222.22200000000157,"noteNumber":33,"velocity":55,"programNumber":41},{"time":51999.948000000084,"duration":444.44400000000314,"noteNumber":34,"velocity":55,"programNumber":41},{"time":52444.39200000009,"duration":222.22200000000157,"noteNumber":35,"velocity":55,"programNumber":41},{"time":52888.83600000009,"duration":222.22200000000157,"noteNumber":31,"velocity":55,"programNumber":41},{"time":53333.28000000009,"duration":333.3329999999987,"noteNumber":33,"velocity":55,"programNumber":41},{"time":53777.72400000009,"duration":666.6659999999974,"noteNumber":45,"velocity":55,"programNumber":41},{"time":54444.39000000009,"duration":222.22200000000157,"noteNumber":44,"velocity":55,"programNumber":41},{"time":54666.61200000009,"duration":222.22200000000157,"noteNumber":43,"velocity":55,"programNumber":41},{"time":54888.83400000009,"duration":222.22200000000157,"noteNumber":40,"velocity":55,"programNumber":41},{"time":55111.05600000009,"duration":222.22200000000157,"noteNumber":38,"velocity":55,"programNumber":41},{"time":55555.500000000095,"duration":222.22200000000157,"noteNumber":40,"velocity":55,"programNumber":41},{"time":55999.9440000001,"duration":222.22200000000157,"noteNumber":42,"velocity":55,"programNumber":41},{"time":56444.3880000001,"duration":222.22200000000157,"noteNumber":39,"velocity":55,"programNumber":41},{"time":56888.832000000104,"duration":222.22200000000157,"noteNumber":40,"velocity":55,"programNumber":41},{"time":57333.27600000011,"duration":222.22200000000157,"noteNumber":38,"velocity":55,"programNumber":41},{"time":57777.72000000011,"duration":222.22200000000157,"noteNumber":37,"velocity":55,"programNumber":41},{"time":58222.16400000011,"duration":222.22200000000157,"noteNumber":33,"velocity":55,"programNumber":41},{"time":58666.60800000012,"duration":222.22200000000157,"noteNumber":35,"velocity":55,"programNumber":41},{"time":59111.05200000012,"duration":222.22200000000157,"noteNumber":43,"velocity":55,"programNumber":41},{"time":59555.49600000012,"duration":222.22200000000157,"noteNumber":45,"velocity":55,"programNumber":41},{"time":59999.940000000126,"duration":222.22200000000157,"noteNumber":33,"velocity":55,"programNumber":41},{"time":60444.38400000013,"duration":444.44400000000314,"noteNumber":38,"velocity":55,"programNumber":41},{"time":62222.160000000134,"duration":444.44400000000314,"noteNumber":33,"velocity":55,"programNumber":41},{"time":63999.93600000014,"duration":444.44400000000314,"noteNumber":38,"velocity":55,"programNumber":41},{"time":65777.71200000015,"duration":444.44400000000314,"noteNumber":33,"velocity":55,"programNumber":41},{"time":67777.71000000015,"duration":166.66650000000664,"noteNumber":38,"velocity":55,"programNumber":41},{"time":67999.93200000016,"duration":166.66650000000664,"noteNumber":42,"velocity":55,"programNumber":41},{"time":68222.15400000017,"duration":166.66650000000664,"noteNumber":40,"velocity":55,"programNumber":41},{"time":68444.37600000018,"duration":166.66650000000664,"noteNumber":39,"velocity":55,"programNumber":41},{"time":68666.59800000019,"duration":166.66650000000664,"noteNumber":35,"velocity":55,"programNumber":41},{"time":68888.8200000002,"duration":166.66650000000664,"noteNumber":37,"velocity":55,"programNumber":41},{"time":69111.0420000002,"duration":166.66650000000664,"noteNumber":38,"velocity":55,"programNumber":41},{"time":69333.26400000021,"duration":166.66650000000664,"noteNumber":40,"velocity":85,"programNumber":41},{"time":69555.48600000022,"duration":166.66650000000664,"noteNumber":43,"velocity":85,"programNumber":41},{"time":69777.70800000023,"duration":166.66650000000664,"noteNumber":40,"velocity":85,"programNumber":41},{"time":69999.93000000024,"duration":166.66650000000664,"noteNumber":38,"velocity":85,"programNumber":41},{"time":70222.15200000025,"duration":166.66650000000664,"noteNumber":37,"velocity":85,"programNumber":41},{"time":70444.37400000026,"duration":166.66650000000664,"noteNumber":33,"velocity":85,"programNumber":41},{"time":70666.59600000027,"duration":166.66650000000664,"noteNumber":35,"velocity":85,"programNumber":41},{"time":70888.81800000028,"duration":166.66650000000664,"noteNumber":37,"velocity":85,"programNumber":41},{"time":71111.04000000028,"duration":166.66650000000664,"noteNumber":38,"velocity":85,"programNumber":41},{"time":71333.2620000003,"duration":166.66650000000664,"noteNumber":38,"velocity":85,"programNumber":41},{"time":71555.4840000003,"duration":166.66650000000664,"noteNumber":40,"velocity":85,"programNumber":41},{"time":71777.70600000031,"duration":166.66650000000664,"noteNumber":42,"velocity":85,"programNumber":41},{"time":71999.92800000032,"duration":166.66650000000664,"noteNumber":43,"velocity":85,"programNumber":41},{"time":72222.15000000033,"duration":166.66650000000664,"noteNumber":43,"velocity":85,"programNumber":41},{"time":72444.37200000034,"duration":166.66650000000664,"noteNumber":43,"velocity":85,"programNumber":41},{"time":72666.59400000035,"duration":166.66650000000664,"noteNumber":43,"velocity":85,"programNumber":41},{"time":72888.81600000036,"duration":166.66650000000664,"noteNumber":45,"velocity":85,"programNumber":41},{"time":73111.03800000036,"duration":166.66650000000664,"noteNumber":45,"velocity":85,"programNumber":41},{"time":73333.26000000037,"duration":166.66650000000664,"noteNumber":45,"velocity":85,"programNumber":41},{"time":73555.48200000038,"duration":166.66650000000664,"noteNumber":45,"velocity":85,"programNumber":41},{"time":73777.70400000039,"duration":166.66650000000664,"noteNumber":33,"velocity":85,"programNumber":41},{"time":73999.9260000004,"duration":166.66650000000664,"noteNumber":33,"velocity":85,"programNumber":41},{"time":74222.14800000041,"duration":166.66650000000664,"noteNumber":33,"velocity":85,"programNumber":41},{"time":74444.37000000042,"duration":166.66650000000664,"noteNumber":33,"velocity":85,"programNumber":41},{"time":74666.59200000043,"duration":444.44400000000314,"noteNumber":38,"velocity":85,"programNumber":41},{"time":76444.36800000042,"duration":444.44400000000314,"noteNumber":33,"velocity":55,"programNumber":41},{"time":78222.14400000042,"duration":444.44400000000314,"noteNumber":38,"velocity":55,"programNumber":41},{"time":79999.92000000042,"duration":444.44400000000314,"noteNumber":33,"velocity":55,"programNumber":41},{"time":81999.91800000043,"duration":166.66650000000664,"noteNumber":38,"velocity":85,"programNumber":41},{"time":82222.14000000044,"duration":166.66650000000664,"noteNumber":42,"velocity":85,"programNumber":41},{"time":82444.36200000044,"duration":166.66650000000664,"noteNumber":40,"velocity":85,"programNumber":41},{"time":82666.58400000045,"duration":166.66650000000664,"noteNumber":39,"velocity":85,"programNumber":41},{"time":82888.80600000046,"duration":166.66650000000664,"noteNumber":35,"velocity":85,"programNumber":41},{"time":83111.02800000047,"duration":166.66650000000664,"noteNumber":37,"velocity":85,"programNumber":41},{"time":83333.25000000048,"duration":166.66650000000664,"noteNumber":38,"velocity":85,"programNumber":41},{"time":83555.47200000049,"duration":166.66650000000664,"noteNumber":40,"velocity":85,"programNumber":41},{"time":83777.6940000005,"duration":166.66650000000664,"noteNumber":43,"velocity":85,"programNumber":41},{"time":83999.9160000005,"duration":166.66650000000664,"noteNumber":40,"velocity":85,"programNumber":41},{"time":84222.13800000052,"duration":166.66650000000664,"noteNumber":38,"velocity":85,"programNumber":41},{"time":84444.36000000052,"duration":166.66650000000664,"noteNumber":37,"velocity":85,"programNumber":41},{"time":84666.58200000053,"duration":166.66650000000664,"noteNumber":33,"velocity":85,"programNumber":41},{"time":84888.80400000054,"duration":166.66650000000664,"noteNumber":35,"velocity":85,"programNumber":41},{"time":85111.02600000055,"duration":166.66650000000664,"noteNumber":37,"velocity":85,"programNumber":41},{"time":85333.24800000056,"duration":166.66650000000664,"noteNumber":38,"velocity":85,"programNumber":41},{"time":85555.47000000057,"duration":166.66650000000664,"noteNumber":38,"velocity":85,"programNumber":41},{"time":85777.69200000058,"duration":166.66650000000664,"noteNumber":40,"velocity":85,"programNumber":41},{"time":85999.91400000059,"duration":166.66650000000664,"noteNumber":42,"velocity":85,"programNumber":41},{"time":86222.1360000006,"duration":166.66650000000664,"noteNumber":43,"velocity":85,"programNumber":41},{"time":86444.3580000006,"duration":166.66650000000664,"noteNumber":43,"velocity":85,"programNumber":41},{"time":86666.58000000061,"duration":166.66650000000664,"noteNumber":43,"velocity":85,"programNumber":41},{"time":86888.80200000062,"duration":166.66650000000664,"noteNumber":43,"velocity":85,"programNumber":41},{"time":87111.02400000063,"duration":166.66650000000664,"noteNumber":45,"velocity":85,"programNumber":41},{"time":87333.24600000064,"duration":166.66650000000664,"noteNumber":45,"velocity":85,"programNumber":41},{"time":87555.46800000065,"duration":166.66650000000664,"noteNumber":45,"velocity":85,"programNumber":41},{"time":87777.69000000066,"duration":166.66650000000664,"noteNumber":45,"velocity":85,"programNumber":41},{"time":87999.91200000067,"duration":166.66650000000664,"noteNumber":33,"velocity":85,"programNumber":41},{"time":88222.13400000067,"duration":166.66650000000664,"noteNumber":33,"velocity":85,"programNumber":41},{"time":88444.35600000068,"duration":166.66650000000664,"noteNumber":33,"velocity":85,"programNumber":41},{"time":88666.57800000069,"duration":166.66650000000664,"noteNumber":33,"velocity":85,"programNumber":41},{"time":88888.8000000007,"duration":166.66650000000664,"noteNumber":38,"velocity":85,"programNumber":41},{"time":89111.02200000071,"duration":166.66650000000664,"noteNumber":33,"velocity":85,"programNumber":41},{"time":89333.24400000072,"duration":166.66650000000664,"noteNumber":35,"velocity":85,"programNumber":41},{"time":89555.46600000073,"duration":166.66650000000664,"noteNumber":37,"velocity":85,"programNumber":41},{"time":89777.68800000074,"duration":166.66650000000664,"noteNumber":38,"velocity":85,"programNumber":41},{"time":89999.91000000075,"duration":166.66650000000664,"noteNumber":38,"velocity":85,"programNumber":41},{"time":90222.13200000075,"duration":166.66650000000664,"noteNumber":40,"velocity":85,"programNumber":41},{"time":90444.35400000076,"duration":166.66650000000664,"noteNumber":40,"velocity":85,"programNumber":41},{"time":90666.57600000077,"duration":166.66650000000664,"noteNumber":42,"velocity":85,"programNumber":41},{"time":90888.79800000078,"duration":166.66650000000664,"noteNumber":37,"velocity":85,"programNumber":41},{"time":91111.02000000079,"duration":166.66650000000664,"noteNumber":38,"velocity":85,"programNumber":41},{"time":91333.2420000008,"duration":166.66650000000664,"noteNumber":40,"velocity":85,"programNumber":41},{"time":91555.46400000081,"duration":166.66650000000664,"noteNumber":42,"velocity":85,"programNumber":41},{"time":91777.68600000082,"duration":166.66650000000664,"noteNumber":42,"velocity":85,"programNumber":41},{"time":91999.90800000083,"duration":166.66650000000664,"noteNumber":43,"velocity":85,"programNumber":41},{"time":92222.13000000083,"duration":166.66650000000664,"noteNumber":43,"velocity":85,"programNumber":41},{"time":92444.35200000084,"duration":166.66650000000664,"noteNumber":45,"velocity":85,"programNumber":41},{"time":92666.57400000085,"duration":166.66650000000664,"noteNumber":45,"velocity":85,"programNumber":41},{"time":92888.79600000086,"duration":166.66650000000664,"noteNumber":46,"velocity":85,"programNumber":41},{"time":93111.01800000087,"duration":166.66650000000664,"noteNumber":46,"velocity":85,"programNumber":41},{"time":93333.24000000088,"duration":444.44400000000314,"noteNumber":47,"velocity":85,"programNumber":41},{"time":94222.12800000088,"duration":888.8880000000063,"noteNumber":43,"velocity":55,"programNumber":41},{"time":95111.01600000089,"duration":888.8880000000063,"noteNumber":45,"velocity":55,"programNumber":41},{"time":95999.9040000009,"duration":222.2219999999943,"noteNumber":38,"velocity":55,"programNumber":41},{"time":96444.34800000089,"duration":222.2219999999943,"noteNumber":38,"velocity":55,"programNumber":41},{"time":96888.79200000087,"duration":222.2219999999943,"noteNumber":38,"velocity":55,"programNumber":41},{"time":97814.71700000086,"duration":444.44400000000314,"noteNumber":43,"velocity":85,"programNumber":41},{"time":98481.38300000086,"duration":111.11100000000442,"noteNumber":38,"velocity":85,"programNumber":41},{"time":98703.60500000087,"duration":444.44400000000314,"noteNumber":43,"velocity":85,"programNumber":41},{"time":99370.27100000087,"duration":111.11100000000442,"noteNumber":38,"velocity":85,"programNumber":41},{"time":99592.49300000088,"duration":111.11100000000442,"noteNumber":43,"velocity":85,"programNumber":41},{"time":99814.71500000088,"duration":111.11100000000442,"noteNumber":38,"velocity":85,"programNumber":41},{"time":100036.9370000009,"duration":111.11100000000442,"noteNumber":43,"velocity":85,"programNumber":41},{"time":100259.1590000009,"duration":111.11100000000442,"noteNumber":47,"velocity":85,"programNumber":41},{"time":100481.38100000091,"duration":444.44400000000314,"noteNumber":50,"velocity":85,"programNumber":41},{"time":101370.26900000092,"duration":444.44400000000314,"noteNumber":48,"velocity":85,"programNumber":41},{"time":102036.93500000091,"duration":111.11100000000442,"noteNumber":45,"velocity":85,"programNumber":41},{"time":102259.15700000092,"duration":444.44400000000314,"noteNumber":48,"velocity":85,"programNumber":41},{"time":102925.82300000092,"duration":111.11100000000442,"noteNumber":45,"velocity":85,"programNumber":41},{"time":103148.04500000093,"duration":111.11100000000442,"noteNumber":48,"velocity":85,"programNumber":41},{"time":103370.26700000094,"duration":111.11100000000442,"noteNumber":45,"velocity":85,"programNumber":41},{"time":103592.48900000095,"duration":111.11100000000442,"noteNumber":42,"velocity":85,"programNumber":41},{"time":103814.71100000096,"duration":111.11100000000442,"noteNumber":45,"velocity":85,"programNumber":41},{"time":104036.93300000096,"duration":444.44400000000314,"noteNumber":38,"velocity":85,"programNumber":41},{"time":104888.78400000097,"duration":166.66650000000664,"noteNumber":43,"velocity":85,"programNumber":41},{"time":105111.00600000098,"duration":166.66650000000664,"noteNumber":43,"velocity":85,"programNumber":41},{"time":105333.22800000099,"duration":166.66650000000664,"noteNumber":43,"velocity":85,"programNumber":41},{"time":105555.450000001,"duration":166.66650000000664,"noteNumber":43,"velocity":85,"programNumber":41},{"time":105777.67200000101,"duration":166.66650000000664,"noteNumber":43,"velocity":85,"programNumber":41},{"time":105999.89400000102,"duration":166.66650000000664,"noteNumber":43,"velocity":85,"programNumber":41},{"time":106222.11600000103,"duration":166.66650000000664,"noteNumber":43,"velocity":85,"programNumber":41},{"time":106444.33800000104,"duration":166.66650000000664,"noteNumber":43,"velocity":85,"programNumber":41},{"time":106666.56000000105,"duration":166.66650000000664,"noteNumber":43,"velocity":85,"programNumber":41},{"time":106888.78200000105,"duration":166.66650000000664,"noteNumber":43,"velocity":85,"programNumber":41},{"time":107111.00400000106,"duration":166.66650000000664,"noteNumber":43,"velocity":85,"programNumber":41},{"time":107333.22600000107,"duration":166.66650000000664,"noteNumber":43,"velocity":85,"programNumber":41},{"time":107555.44800000108,"duration":166.66650000000664,"noteNumber":43,"velocity":85,"programNumber":41},{"time":107777.67000000109,"duration":166.66650000000664,"noteNumber":43,"velocity":85,"programNumber":41},{"time":107999.8920000011,"duration":166.66650000000664,"noteNumber":43,"velocity":85,"programNumber":41},{"time":108222.11400000111,"duration":166.66650000000664,"noteNumber":43,"velocity":85,"programNumber":41},{"time":108444.33600000112,"duration":166.66650000000664,"noteNumber":43,"velocity":85,"programNumber":41},{"time":108666.55800000113,"duration":166.66650000000664,"noteNumber":43,"velocity":85,"programNumber":41},{"time":108888.78000000113,"duration":166.66650000000664,"noteNumber":43,"velocity":85,"programNumber":41},{"time":109111.00200000114,"duration":166.66650000000664,"noteNumber":43,"velocity":85,"programNumber":41},{"time":109333.22400000115,"duration":166.66650000000664,"noteNumber":43,"velocity":85,"programNumber":41},{"time":109555.44600000116,"duration":166.66650000000664,"noteNumber":43,"velocity":85,"programNumber":41},{"time":109777.66800000117,"duration":166.66650000000664,"noteNumber":43,"velocity":85,"programNumber":41},{"time":109999.89000000118,"duration":166.66650000000664,"noteNumber":43,"velocity":85,"programNumber":41},{"time":110222.11200000119,"duration":166.66650000000664,"noteNumber":43,"velocity":85,"programNumber":41},{"time":110444.3340000012,"duration":166.66650000000664,"noteNumber":43,"velocity":85,"programNumber":41},{"time":110666.5560000012,"duration":166.66650000000664,"noteNumber":43,"velocity":85,"programNumber":41},{"time":110888.77800000121,"duration":166.66650000000664,"noteNumber":43,"velocity":85,"programNumber":41},{"time":111111.00000000122,"duration":166.66650000000664,"noteNumber":43,"velocity":85,"programNumber":41},{"time":111333.22200000123,"duration":166.66650000000664,"noteNumber":43,"velocity":85,"programNumber":41},{"time":111555.44400000124,"duration":166.66650000000664,"noteNumber":43,"velocity":85,"programNumber":41},{"time":111777.66600000125,"duration":166.66650000000664,"noteNumber":43,"velocity":85,"programNumber":41},{"time":111999.88800000126,"duration":166.66650000000664,"noteNumber":43,"velocity":85,"programNumber":41},{"time":112222.11000000127,"duration":166.66650000000664,"noteNumber":43,"velocity":85,"programNumber":41},{"time":112444.33200000128,"duration":166.66650000000664,"noteNumber":45,"velocity":85,"programNumber":41},{"time":112666.55400000128,"duration":166.66650000000664,"noteNumber":45,"velocity":85,"programNumber":41},{"time":112888.7760000013,"duration":166.66650000000664,"noteNumber":47,"velocity":85,"programNumber":41},{"time":113110.9980000013,"duration":166.66650000000664,"noteNumber":47,"velocity":85,"programNumber":41},{"time":113333.22000000131,"duration":166.66650000000664,"noteNumber":42,"velocity":85,"programNumber":41},{"time":113555.44200000132,"duration":166.66650000000664,"noteNumber":42,"velocity":85,"programNumber":41},{"time":113777.66400000133,"duration":166.66650000000664,"noteNumber":43,"velocity":85,"programNumber":41},{"time":113999.88600000134,"duration":166.66650000000664,"noteNumber":43,"velocity":85,"programNumber":41},{"time":114222.10800000135,"duration":166.66650000000664,"noteNumber":45,"velocity":85,"programNumber":41},{"time":114444.33000000136,"duration":166.66650000000664,"noteNumber":45,"velocity":85,"programNumber":41},{"time":114666.55200000136,"duration":444.44400000000314,"noteNumber":47,"velocity":85,"programNumber":41},{"time":117333.21600000137,"duration":888.8880000000063,"noteNumber":38,"velocity":47,"programNumber":41},{"time":118222.10400000137,"duration":888.8880000000063,"noteNumber":40,"velocity":47,"programNumber":41},{"time":119110.99200000138,"duration":333.3329999999987,"noteNumber":36,"velocity":47,"programNumber":41},{"time":119555.43600000138,"duration":333.3329999999987,"noteNumber":36,"velocity":47,"programNumber":41},{"time":119999.88000000139,"duration":333.3329999999987,"noteNumber":38,"velocity":47,"programNumber":41},{"time":120444.32400000139,"duration":333.3329999999987,"noteNumber":38,"velocity":47,"programNumber":41},{"time":120888.7680000014,"duration":222.2219999999943,"noteNumber":35,"velocity":47,"programNumber":41},{"time":121333.21200000138,"duration":222.2219999999943,"noteNumber":38,"velocity":47,"programNumber":41},{"time":121777.65600000137,"duration":444.44400000000314,"noteNumber":43,"velocity":47,"programNumber":41},{"time":124444.32000000137,"duration":888.8880000000063,"noteNumber":38,"velocity":47,"programNumber":41},{"time":125333.20800000138,"duration":888.8880000000063,"noteNumber":40,"velocity":47,"programNumber":41},{"time":126222.09600000139,"duration":333.3329999999987,"noteNumber":36,"velocity":47,"programNumber":41},{"time":126666.54000000139,"duration":333.3329999999987,"noteNumber":36,"velocity":47,"programNumber":41},{"time":127110.9840000014,"duration":333.3329999999987,"noteNumber":38,"velocity":47,"programNumber":41},{"time":127555.4280000014,"duration":333.3329999999987,"noteNumber":38,"velocity":47,"programNumber":41},{"time":127999.8720000014,"duration":166.66650000000664,"noteNumber":43,"velocity":91,"programNumber":41},{"time":128222.09400000141,"duration":166.66650000000664,"noteNumber":43,"velocity":83,"programNumber":41},{"time":128444.31600000142,"duration":166.66650000000664,"noteNumber":43,"velocity":83,"programNumber":41},{"time":128666.53800000143,"duration":166.66650000000664,"noteNumber":43,"velocity":83,"programNumber":41},{"time":128888.76000000144,"duration":166.66650000000664,"noteNumber":43,"velocity":59,"programNumber":41},{"time":129110.98200000144,"duration":166.66650000000664,"noteNumber":43,"velocity":59,"programNumber":41},{"time":129333.20400000145,"duration":166.66650000000664,"noteNumber":43,"velocity":59,"programNumber":41},{"time":129555.42600000146,"duration":166.66650000000664,"noteNumber":43,"velocity":59,"programNumber":41},{"time":129777.64800000147,"duration":166.66650000000664,"noteNumber":43,"velocity":92,"programNumber":41},{"time":129999.87000000148,"duration":166.66650000000664,"noteNumber":43,"velocity":79,"programNumber":41},{"time":130222.09200000149,"duration":166.66650000000664,"noteNumber":43,"velocity":79,"programNumber":41},{"time":130444.3140000015,"duration":166.66650000000664,"noteNumber":43,"velocity":79,"programNumber":41},{"time":130666.5360000015,"duration":166.66650000000664,"noteNumber":43,"velocity":59,"programNumber":41},{"time":130888.75800000152,"duration":166.66650000000664,"noteNumber":43,"velocity":59,"programNumber":41},{"time":131110.98000000152,"duration":166.66649999999208,"noteNumber":43,"velocity":59,"programNumber":41},{"time":131333.2020000015,"duration":166.66649999999208,"noteNumber":43,"velocity":59,"programNumber":41},{"time":131555.42400000148,"duration":166.66649999999208,"noteNumber":43,"velocity":59,"programNumber":41},{"time":131777.64600000146,"duration":166.66649999999208,"noteNumber":43,"velocity":40,"programNumber":41},{"time":131999.86800000144,"duration":166.66649999999208,"noteNumber":43,"velocity":43,"programNumber":41},{"time":132222.09000000142,"duration":166.66649999999208,"noteNumber":43,"velocity":46,"programNumber":41},{"time":132444.3120000014,"duration":166.66649999999208,"noteNumber":43,"velocity":49,"programNumber":41},{"time":132666.53400000138,"duration":166.66649999999208,"noteNumber":43,"velocity":52,"programNumber":41},{"time":132888.75600000136,"duration":166.66649999999208,"noteNumber":43,"velocity":55,"programNumber":41},{"time":133110.97800000134,"duration":166.66649999999208,"noteNumber":43,"velocity":58,"programNumber":41},{"time":133333.20000000132,"duration":166.66649999999208,"noteNumber":43,"velocity":61,"programNumber":41},{"time":133555.4220000013,"duration":166.66649999999208,"noteNumber":43,"velocity":64,"programNumber":41},{"time":133777.64400000128,"duration":166.66649999999208,"noteNumber":42,"velocity":67,"programNumber":41},{"time":133999.86600000126,"duration":166.66649999999208,"noteNumber":42,"velocity":70,"programNumber":41},{"time":134222.08800000124,"duration":166.66649999999208,"noteNumber":43,"velocity":73,"programNumber":41},{"time":134444.31000000122,"duration":166.66649999999208,"noteNumber":43,"velocity":76,"programNumber":41},{"time":134666.5320000012,"duration":166.66649999999208,"noteNumber":40,"velocity":79,"programNumber":41},{"time":134888.75400000118,"duration":166.66649999999208,"noteNumber":40,"velocity":82,"programNumber":41},{"time":135110.97600000116,"duration":166.66649999999208,"noteNumber":38,"velocity":85,"programNumber":41},{"time":135333.19800000114,"duration":166.66649999999208,"noteNumber":38,"velocity":85,"programNumber":41},{"time":135555.42000000112,"duration":166.66649999999208,"noteNumber":38,"velocity":85,"programNumber":41},{"time":135777.6420000011,"duration":166.66649999999208,"noteNumber":38,"velocity":85,"programNumber":41},{"time":135999.86400000108,"duration":166.66649999999208,"noteNumber":38,"velocity":85,"programNumber":41},{"time":136222.08600000106,"duration":166.66649999999208,"noteNumber":38,"velocity":85,"programNumber":41},{"time":136444.30800000104,"duration":166.66649999999208,"noteNumber":38,"velocity":85,"programNumber":41},{"time":136666.53000000102,"duration":166.66649999999208,"noteNumber":38,"velocity":85,"programNumber":41},{"time":136888.752000001,"duration":166.66649999999208,"noteNumber":38,"velocity":85,"programNumber":41},{"time":137110.97400000098,"duration":166.66649999999208,"noteNumber":38,"velocity":85,"programNumber":41},{"time":137333.19600000096,"duration":166.66649999999208,"noteNumber":38,"velocity":85,"programNumber":41},{"time":137555.41800000094,"duration":166.66649999999208,"noteNumber":38,"velocity":85,"programNumber":41},{"time":137777.64000000092,"duration":166.66649999999208,"noteNumber":38,"velocity":85,"programNumber":41},{"time":137999.8620000009,"duration":166.66649999999208,"noteNumber":38,"velocity":85,"programNumber":41},{"time":138222.08400000088,"duration":166.66649999999208,"noteNumber":38,"velocity":85,"programNumber":41},{"time":138444.30600000086,"duration":166.66649999999208,"noteNumber":38,"velocity":85,"programNumber":41},{"time":138666.52800000084,"duration":166.66649999999208,"noteNumber":38,"velocity":85,"programNumber":41},{"time":138888.75000000081,"duration":166.66649999999208,"noteNumber":40,"velocity":85,"programNumber":41},{"time":139110.9720000008,"duration":166.66649999999208,"noteNumber":42,"velocity":85,"programNumber":41},{"time":139333.19400000077,"duration":166.66649999999208,"noteNumber":40,"velocity":85,"programNumber":41},{"time":139555.41600000075,"duration":166.66649999999208,"noteNumber":38,"velocity":85,"programNumber":41},{"time":139777.63800000073,"duration":166.66649999999208,"noteNumber":40,"velocity":85,"programNumber":41},{"time":139999.8600000007,"duration":166.66649999999208,"noteNumber":42,"velocity":85,"programNumber":41},{"time":140222.0820000007,"duration":166.66649999999208,"noteNumber":38,"velocity":85,"programNumber":41},{"time":140444.30400000067,"duration":166.66649999999208,"noteNumber":43,"velocity":85,"programNumber":41},{"time":140666.52600000065,"duration":166.66649999999208,"noteNumber":45,"velocity":85,"programNumber":41},{"time":140888.74800000063,"duration":166.66649999999208,"noteNumber":47,"velocity":85,"programNumber":41},{"time":141110.9700000006,"duration":166.66649999999208,"noteNumber":45,"velocity":85,"programNumber":41},{"time":141333.1920000006,"duration":166.66649999999208,"noteNumber":43,"velocity":85,"programNumber":41},{"time":141555.41400000057,"duration":166.66649999999208,"noteNumber":45,"velocity":85,"programNumber":41},{"time":141777.63600000055,"duration":166.66649999999208,"noteNumber":47,"velocity":85,"programNumber":41},{"time":141999.85800000053,"duration":166.66649999999208,"noteNumber":44,"velocity":85,"programNumber":41},{"time":142222.0800000005,"duration":166.66649999999208,"noteNumber":45,"velocity":85,"programNumber":41},{"time":142444.3020000005,"duration":166.66649999999208,"noteNumber":45,"velocity":85,"programNumber":41},{"time":142666.52400000047,"duration":166.66649999999208,"noteNumber":45,"velocity":85,"programNumber":41},{"time":142888.74600000045,"duration":166.66649999999208,"noteNumber":45,"velocity":85,"programNumber":41},{"time":143110.96800000043,"duration":166.66649999999208,"noteNumber":45,"velocity":85,"programNumber":41},{"time":143333.1900000004,"duration":166.66649999999208,"noteNumber":45,"velocity":85,"programNumber":41},{"time":143555.4120000004,"duration":166.66649999999208,"noteNumber":45,"velocity":85,"programNumber":41},{"time":143777.63400000037,"duration":166.66649999999208,"noteNumber":45,"velocity":85,"programNumber":41},{"time":143999.85600000035,"duration":166.66649999999208,"noteNumber":45,"velocity":85,"programNumber":41},{"time":144222.07800000033,"duration":166.66649999999208,"noteNumber":33,"velocity":85,"programNumber":41},{"time":144444.3000000003,"duration":166.66649999999208,"noteNumber":33,"velocity":85,"programNumber":41},{"time":144666.5220000003,"duration":166.66649999999208,"noteNumber":33,"velocity":85,"programNumber":41},{"time":144888.74400000027,"duration":444.4439999999886,"noteNumber":33,"velocity":85,"programNumber":41},{"time":147110.96400000027,"duration":222.22200000000885,"noteNumber":39,"velocity":55,"programNumber":41},{"time":147555.4080000003,"duration":222.22200000000885,"noteNumber":40,"velocity":55,"programNumber":41},{"time":147999.8520000003,"duration":222.22200000000885,"noteNumber":38,"velocity":55,"programNumber":41},{"time":148444.29600000032,"duration":222.22200000000885,"noteNumber":37,"velocity":55,"programNumber":41},{"time":148888.74000000034,"duration":222.22200000000885,"noteNumber":33,"velocity":55,"programNumber":41},{"time":149777.62800000035,"duration":444.4439999999886,"noteNumber":34,"velocity":55,"programNumber":41},{"time":150222.07200000033,"duration":222.22200000000885,"noteNumber":35,"velocity":55,"programNumber":41},{"time":150666.51600000035,"duration":222.22200000000885,"noteNumber":31,"velocity":55,"programNumber":41},{"time":151110.96000000037,"duration":333.33300000001327,"noteNumber":33,"velocity":55,"programNumber":41},{"time":151555.4040000004,"duration":666.6659999999974,"noteNumber":45,"velocity":55,"programNumber":41},{"time":152222.07000000039,"duration":222.22200000000885,"noteNumber":44,"velocity":55,"programNumber":41},{"time":152444.2920000004,"duration":222.22200000000885,"noteNumber":43,"velocity":55,"programNumber":41},{"time":152666.5140000004,"duration":222.22200000000885,"noteNumber":40,"velocity":55,"programNumber":41},{"time":152888.7360000004,"duration":222.22200000000885,"noteNumber":38,"velocity":55,"programNumber":41},{"time":153333.18000000043,"duration":222.22200000000885,"noteNumber":40,"velocity":55,"programNumber":41},{"time":153777.62400000045,"duration":222.22200000000885,"noteNumber":42,"velocity":55,"programNumber":41},{"time":154222.06800000046,"duration":222.22200000000885,"noteNumber":39,"velocity":55,"programNumber":41},{"time":154666.51200000048,"duration":222.22200000000885,"noteNumber":40,"velocity":55,"programNumber":41},{"time":155110.9560000005,"duration":222.22200000000885,"noteNumber":38,"velocity":55,"programNumber":41},{"time":155555.40000000052,"duration":222.22200000000885,"noteNumber":37,"velocity":55,"programNumber":41},{"time":155999.84400000054,"duration":222.22200000000885,"noteNumber":33,"velocity":55,"programNumber":41},{"time":156444.28800000055,"duration":222.22200000000885,"noteNumber":35,"velocity":55,"programNumber":41},{"time":156888.73200000057,"duration":222.22200000000885,"noteNumber":43,"velocity":55,"programNumber":41},{"time":157333.1760000006,"duration":222.22200000000885,"noteNumber":45,"velocity":55,"programNumber":41},{"time":157777.6200000006,"duration":222.22200000000885,"noteNumber":33,"velocity":55,"programNumber":41},{"time":158222.06400000062,"duration":444.4439999999886,"noteNumber":38,"velocity":55,"programNumber":41},{"time":159999.8400000006,"duration":444.4439999999886,"noteNumber":33,"velocity":55,"programNumber":41},{"time":161777.6160000006,"duration":444.4439999999886,"noteNumber":38,"velocity":55,"programNumber":41},{"time":163555.39200000057,"duration":444.4439999999886,"noteNumber":33,"velocity":55,"programNumber":41},{"time":165555.39000000057,"duration":166.66649999999208,"noteNumber":38,"velocity":55,"programNumber":41},{"time":165777.61200000055,"duration":166.66649999999208,"noteNumber":42,"velocity":55,"programNumber":41},{"time":165999.83400000053,"duration":166.66649999999208,"noteNumber":40,"velocity":55,"programNumber":41},{"time":166222.0560000005,"duration":166.66649999999208,"noteNumber":39,"velocity":55,"programNumber":41},{"time":166444.2780000005,"duration":166.66649999999208,"noteNumber":35,"velocity":55,"programNumber":41},{"time":166666.50000000047,"duration":166.66649999999208,"noteNumber":37,"velocity":55,"programNumber":41},{"time":166888.72200000045,"duration":166.66649999999208,"noteNumber":38,"velocity":55,"programNumber":41},{"time":167110.94400000043,"duration":166.66649999999208,"noteNumber":40,"velocity":85,"programNumber":41},{"time":167333.1660000004,"duration":166.66649999999208,"noteNumber":43,"velocity":85,"programNumber":41},{"time":167555.38800000038,"duration":166.66649999999208,"noteNumber":40,"velocity":85,"programNumber":41},{"time":167777.61000000036,"duration":166.66649999999208,"noteNumber":38,"velocity":85,"programNumber":41},{"time":167999.83200000034,"duration":166.66649999999208,"noteNumber":37,"velocity":85,"programNumber":41},{"time":168222.05400000032,"duration":166.66649999999208,"noteNumber":33,"velocity":85,"programNumber":41},{"time":168444.2760000003,"duration":166.66649999999208,"noteNumber":35,"velocity":85,"programNumber":41},{"time":168666.49800000028,"duration":166.66649999999208,"noteNumber":37,"velocity":85,"programNumber":41},{"time":168888.72000000026,"duration":166.66649999999208,"noteNumber":38,"velocity":85,"programNumber":41},{"time":169110.94200000024,"duration":166.66649999999208,"noteNumber":38,"velocity":85,"programNumber":41},{"time":169333.16400000022,"duration":166.66649999999208,"noteNumber":40,"velocity":85,"programNumber":41},{"time":169555.3860000002,"duration":166.66649999999208,"noteNumber":42,"velocity":85,"programNumber":41},{"time":169777.60800000018,"duration":166.66649999999208,"noteNumber":43,"velocity":85,"programNumber":41},{"time":169999.83000000016,"duration":166.66649999999208,"noteNumber":43,"velocity":85,"programNumber":41},{"time":170222.05200000014,"duration":166.66649999999208,"noteNumber":43,"velocity":85,"programNumber":41},{"time":170444.27400000012,"duration":166.66649999999208,"noteNumber":43,"velocity":85,"programNumber":41},{"time":170666.4960000001,"duration":166.66649999999208,"noteNumber":45,"velocity":85,"programNumber":41},{"time":170888.71800000008,"duration":166.66649999999208,"noteNumber":45,"velocity":85,"programNumber":41},{"time":171110.94000000006,"duration":166.66649999999208,"noteNumber":45,"velocity":85,"programNumber":41},{"time":171333.16200000004,"duration":166.66649999999208,"noteNumber":45,"velocity":85,"programNumber":41},{"time":171555.38400000002,"duration":166.66649999999208,"noteNumber":33,"velocity":85,"programNumber":41},{"time":171777.606,"duration":166.66649999999208,"noteNumber":33,"velocity":85,"programNumber":41},{"time":171999.82799999998,"duration":166.66649999999208,"noteNumber":33,"velocity":85,"programNumber":41},{"time":172222.04999999996,"duration":166.66649999999208,"noteNumber":33,"velocity":85,"programNumber":41},{"time":172444.27199999994,"duration":444.4439999999886,"noteNumber":38,"velocity":85,"programNumber":41},{"time":174222.04799999992,"duration":444.4439999999886,"noteNumber":33,"velocity":55,"programNumber":41},{"time":175999.8239999999,"duration":444.4439999999886,"noteNumber":38,"velocity":55,"programNumber":41},{"time":177777.5999999999,"duration":444.4439999999886,"noteNumber":33,"velocity":55,"programNumber":41},{"time":179777.59799999988,"duration":166.66649999999208,"noteNumber":38,"velocity":85,"programNumber":41},{"time":179999.81999999986,"duration":166.66649999999208,"noteNumber":42,"velocity":85,"programNumber":41},{"time":180222.04199999984,"duration":166.66649999999208,"noteNumber":40,"velocity":85,"programNumber":41},{"time":180444.26399999982,"duration":166.66649999999208,"noteNumber":39,"velocity":85,"programNumber":41},{"time":180666.4859999998,"duration":166.66649999999208,"noteNumber":35,"velocity":85,"programNumber":41},{"time":180888.70799999978,"duration":166.66649999999208,"noteNumber":37,"velocity":85,"programNumber":41},{"time":181110.92999999976,"duration":166.66649999999208,"noteNumber":38,"velocity":85,"programNumber":41},{"time":181333.15199999974,"duration":166.66649999999208,"noteNumber":40,"velocity":85,"programNumber":41},{"time":181555.37399999972,"duration":166.66649999999208,"noteNumber":43,"velocity":85,"programNumber":41},{"time":181777.5959999997,"duration":166.66649999999208,"noteNumber":40,"velocity":85,"programNumber":41},{"time":181999.81799999968,"duration":166.66649999999208,"noteNumber":38,"velocity":85,"programNumber":41},{"time":182222.03999999966,"duration":166.66649999999208,"noteNumber":37,"velocity":85,"programNumber":41},{"time":182444.26199999964,"duration":166.66649999999208,"noteNumber":33,"velocity":85,"programNumber":41},{"time":182666.48399999962,"duration":166.66649999999208,"noteNumber":35,"velocity":85,"programNumber":41},{"time":182888.7059999996,"duration":166.66649999999208,"noteNumber":37,"velocity":85,"programNumber":41},{"time":183110.92799999958,"duration":166.66649999999208,"noteNumber":38,"velocity":85,"programNumber":41},{"time":183333.14999999956,"duration":166.66649999999208,"noteNumber":38,"velocity":85,"programNumber":41},{"time":183555.37199999954,"duration":166.66649999999208,"noteNumber":40,"velocity":85,"programNumber":41},{"time":183777.59399999952,"duration":166.66649999999208,"noteNumber":42,"velocity":85,"programNumber":41},{"time":183999.8159999995,"duration":166.66649999999208,"noteNumber":43,"velocity":85,"programNumber":41},{"time":184222.03799999948,"duration":166.66649999999208,"noteNumber":43,"velocity":85,"programNumber":41},{"time":184444.25999999946,"duration":166.66649999999208,"noteNumber":43,"velocity":85,"programNumber":41},{"time":184666.48199999944,"duration":166.66649999999208,"noteNumber":43,"velocity":85,"programNumber":41},{"time":184888.70399999942,"duration":166.66649999999208,"noteNumber":45,"velocity":85,"programNumber":41},{"time":185110.9259999994,"duration":166.66649999999208,"noteNumber":45,"velocity":85,"programNumber":41},{"time":185333.14799999938,"duration":166.66649999999208,"noteNumber":45,"velocity":85,"programNumber":41},{"time":185555.36999999936,"duration":166.66649999999208,"noteNumber":45,"velocity":85,"programNumber":41},{"time":185777.59199999933,"duration":166.66649999999208,"noteNumber":33,"velocity":85,"programNumber":41},{"time":185999.8139999993,"duration":166.66649999999208,"noteNumber":33,"velocity":85,"programNumber":41},{"time":186222.0359999993,"duration":166.66649999999208,"noteNumber":33,"velocity":85,"programNumber":41},{"time":186444.25799999927,"duration":166.66649999999208,"noteNumber":33,"velocity":85,"programNumber":41},{"time":186666.47999999925,"duration":166.66649999999208,"noteNumber":38,"velocity":85,"programNumber":41},{"time":186888.70199999923,"duration":166.66649999999208,"noteNumber":33,"velocity":85,"programNumber":41},{"time":187110.9239999992,"duration":166.66649999999208,"noteNumber":35,"velocity":85,"programNumber":41},{"time":187333.1459999992,"duration":166.66649999999208,"noteNumber":37,"velocity":85,"programNumber":41},{"time":187555.36799999917,"duration":166.66649999999208,"noteNumber":38,"velocity":85,"programNumber":41},{"time":187777.58999999915,"duration":166.66649999999208,"noteNumber":38,"velocity":85,"programNumber":41},{"time":187999.81199999913,"duration":166.66649999999208,"noteNumber":40,"velocity":85,"programNumber":41},{"time":188222.0339999991,"duration":166.66649999999208,"noteNumber":40,"velocity":85,"programNumber":41},{"time":188444.2559999991,"duration":166.66649999999208,"noteNumber":42,"velocity":85,"programNumber":41},{"time":188666.47799999907,"duration":166.66649999999208,"noteNumber":37,"velocity":85,"programNumber":41},{"time":188888.69999999905,"duration":166.66649999999208,"noteNumber":38,"velocity":85,"programNumber":41},{"time":189110.92199999903,"duration":166.66649999999208,"noteNumber":40,"velocity":85,"programNumber":41},{"time":189333.143999999,"duration":166.66649999999208,"noteNumber":42,"velocity":85,"programNumber":41},{"time":189555.365999999,"duration":166.66649999999208,"noteNumber":42,"velocity":85,"programNumber":41},{"time":189777.58799999897,"duration":166.66649999999208,"noteNumber":43,"velocity":85,"programNumber":41},{"time":189999.80999999895,"duration":166.66649999999208,"noteNumber":43,"velocity":85,"programNumber":41},{"time":190222.03199999893,"duration":166.66649999999208,"noteNumber":45,"velocity":85,"programNumber":41},{"time":190444.2539999989,"duration":166.66649999999208,"noteNumber":45,"velocity":85,"programNumber":41},{"time":190666.4759999989,"duration":166.66649999999208,"noteNumber":46,"velocity":85,"programNumber":41},{"time":190888.69799999887,"duration":166.66649999999208,"noteNumber":46,"velocity":85,"programNumber":41},{"time":191110.91999999885,"duration":444.4439999999886,"noteNumber":47,"velocity":85,"programNumber":41},{"time":191999.80799999883,"duration":888.8880000000063,"noteNumber":43,"velocity":55,"programNumber":41},{"time":192888.69599999883,"duration":888.8880000000063,"noteNumber":45,"velocity":55,"programNumber":41},{"time":193777.58399999884,"duration":222.22200000000885,"noteNumber":38,"velocity":55,"programNumber":41},{"time":194222.02799999886,"duration":222.22200000000885,"noteNumber":38,"velocity":55,"programNumber":41},{"time":194666.47199999887,"duration":222.22200000000885,"noteNumber":38,"velocity":55,"programNumber":41},{"time":195555.35999999888,"duration":444.4439999999886,"noteNumber":38,"velocity":89,"programNumber":41},{"time":196222.02599999888,"duration":166.66649999999208,"noteNumber":33,"velocity":89,"programNumber":41},{"time":196444.24799999886,"duration":444.4439999999886,"noteNumber":38,"velocity":89,"programNumber":41},{"time":197110.91399999885,"duration":166.66649999999208,"noteNumber":33,"velocity":89,"programNumber":41},{"time":197333.13599999883,"duration":166.66649999999208,"noteNumber":38,"velocity":89,"programNumber":41},{"time":197555.3579999988,"duration":166.66649999999208,"noteNumber":33,"velocity":89,"programNumber":41},{"time":197777.5799999988,"duration":166.66649999999208,"noteNumber":38,"velocity":89,"programNumber":41},{"time":197999.80199999877,"duration":166.66649999999208,"noteNumber":42,"velocity":89,"programNumber":41},{"time":198222.02399999875,"duration":444.4439999999886,"noteNumber":45,"velocity":89,"programNumber":41},{"time":199110.91199999873,"duration":444.4439999999886,"noteNumber":45,"velocity":89,"programNumber":41},{"time":199777.57799999873,"duration":166.66649999999208,"noteNumber":42,"velocity":89,"programNumber":41},{"time":199999.7999999987,"duration":444.4439999999886,"noteNumber":45,"velocity":89,"programNumber":41},{"time":200666.4659999987,"duration":166.66649999999208,"noteNumber":42,"velocity":89,"programNumber":41},{"time":200888.68799999868,"duration":166.66649999999208,"noteNumber":45,"velocity":89,"programNumber":41},{"time":201110.90999999866,"duration":166.66649999999208,"noteNumber":42,"velocity":89,"programNumber":41},{"time":201333.13199999864,"duration":166.66649999999208,"noteNumber":39,"velocity":89,"programNumber":41},{"time":201555.35399999862,"duration":166.66649999999208,"noteNumber":42,"velocity":89,"programNumber":41},{"time":201777.5759999986,"duration":444.4439999999886,"noteNumber":35,"velocity":89,"programNumber":41},{"time":202666.46399999858,"duration":444.4439999999886,"noteNumber":36,"velocity":55,"programNumber":41},{"time":204444.23999999856,"duration":444.4439999999886,"noteNumber":31,"velocity":55,"programNumber":41},{"time":206222.01599999855,"duration":444.4439999999886,"noteNumber":36,"velocity":55,"programNumber":41},{"time":207999.79199999853,"duration":444.4439999999886,"noteNumber":31,"velocity":55,"programNumber":41},{"time":209777.56799999852,"duration":444.4439999999886,"noteNumber":36,"velocity":55,"programNumber":41},{"time":211555.3439999985,"duration":444.4439999999886,"noteNumber":40,"velocity":55,"programNumber":41},{"time":213333.11999999848,"duration":444.4439999999886,"noteNumber":33,"velocity":55,"programNumber":41},{"time":215110.89599999847,"duration":444.4439999999886,"noteNumber":38,"velocity":55,"programNumber":41},{"time":216888.67199999845,"duration":3499.9965000000084,"noteNumber":39,"velocity":55,"programNumber":41},{"time":220444.22399999844,"duration":444.4439999999886,"noteNumber":38,"velocity":53,"programNumber":41},{"time":221110.88999999844,"duration":222.22200000000885,"noteNumber":38,"velocity":91,"programNumber":41},{"time":221333.11199999845,"duration":222.22200000000885,"noteNumber":40,"velocity":91,"programNumber":41},{"time":221555.33399999846,"duration":222.22200000000885,"noteNumber":42,"velocity":91,"programNumber":41},{"time":221777.55599999847,"duration":222.22200000000885,"noteNumber":43,"velocity":91,"programNumber":41},{"time":221999.77799999848,"duration":222.22200000000885,"noteNumber":45,"velocity":91,"programNumber":41},{"time":222221.9999999985,"duration":222.22200000000885,"noteNumber":48,"velocity":91,"programNumber":41},{"time":222444.2219999985,"duration":222.22200000000885,"noteNumber":46,"velocity":91,"programNumber":41},{"time":222888.6659999985,"duration":222.22200000000885,"noteNumber":42,"velocity":91,"programNumber":41},{"time":223110.88799999852,"duration":222.22200000000885,"noteNumber":43,"velocity":91,"programNumber":41},{"time":223333.10999999853,"duration":222.22200000000885,"noteNumber":45,"velocity":91,"programNumber":41},{"time":223555.33199999854,"duration":222.22200000000885,"noteNumber":46,"velocity":91,"programNumber":41},{"time":223777.55399999855,"duration":222.22200000000885,"noteNumber":49,"velocity":91,"programNumber":41},{"time":223999.77599999856,"duration":222.22200000000885,"noteNumber":52,"velocity":91,"programNumber":41},{"time":224221.99799999857,"duration":222.22200000000885,"noteNumber":50,"velocity":91,"programNumber":41},{"time":229333.10399999857,"duration":1777.7760000000126,"noteNumber":38,"velocity":53,"programNumber":41},{"time":231147.9169999986,"duration":444.4439999999886,"noteNumber":43,"velocity":99,"programNumber":41},{"time":231814.5829999986,"duration":111.11100000000442,"noteNumber":38,"velocity":100,"programNumber":41},{"time":232036.8049999986,"duration":444.4439999999886,"noteNumber":43,"velocity":100,"programNumber":41},{"time":232703.4709999986,"duration":111.11100000000442,"noteNumber":38,"velocity":98,"programNumber":41},{"time":232925.6929999986,"duration":111.11100000000442,"noteNumber":43,"velocity":97,"programNumber":41},{"time":233147.9149999986,"duration":111.11100000000442,"noteNumber":38,"velocity":97,"programNumber":41},{"time":233370.13699999862,"duration":111.11100000000442,"noteNumber":43,"velocity":97,"programNumber":41},{"time":233592.35899999863,"duration":111.11100000000442,"noteNumber":47,"velocity":97,"programNumber":41},{"time":233814.58099999864,"duration":444.4439999999886,"noteNumber":50,"velocity":97,"programNumber":41},{"time":234703.46899999861,"duration":444.4439999999886,"noteNumber":48,"velocity":100,"programNumber":41},{"time":235370.1349999986,"duration":111.11100000000442,"noteNumber":45,"velocity":98,"programNumber":41},{"time":235592.35699999862,"duration":444.4439999999886,"noteNumber":48,"velocity":97,"programNumber":41},{"time":236259.02299999862,"duration":111.11100000000442,"noteNumber":45,"velocity":93,"programNumber":41},{"time":236481.24499999863,"duration":111.11100000000442,"noteNumber":48,"velocity":92,"programNumber":41},{"time":236703.46699999864,"duration":111.11100000000442,"noteNumber":45,"velocity":91,"programNumber":41},{"time":236925.68899999865,"duration":111.11100000000442,"noteNumber":42,"velocity":89,"programNumber":41},{"time":237147.91099999865,"duration":111.11100000000442,"noteNumber":45,"velocity":85,"programNumber":41},{"time":237370.13299999866,"duration":444.4439999999886,"noteNumber":38,"velocity":85,"programNumber":41},{"time":238221.98399999866,"duration":166.66649999999208,"noteNumber":43,"velocity":85,"programNumber":41},{"time":238444.20599999864,"duration":166.66649999999208,"noteNumber":43,"velocity":85,"programNumber":41},{"time":238666.42799999862,"duration":166.66649999999208,"noteNumber":43,"velocity":85,"programNumber":41},{"time":238888.6499999986,"duration":166.66649999999208,"noteNumber":43,"velocity":85,"programNumber":41},{"time":239110.87199999858,"duration":166.66649999999208,"noteNumber":43,"velocity":85,"programNumber":41},{"time":239333.09399999856,"duration":166.66649999999208,"noteNumber":43,"velocity":85,"programNumber":41},{"time":239555.31599999854,"duration":166.66649999999208,"noteNumber":43,"velocity":85,"programNumber":41},{"time":239777.53799999852,"duration":166.66649999999208,"noteNumber":43,"velocity":85,"programNumber":41},{"time":239999.7599999985,"duration":166.66649999999208,"noteNumber":43,"velocity":85,"programNumber":41},{"time":240221.98199999848,"duration":166.66649999999208,"noteNumber":43,"velocity":85,"programNumber":41},{"time":240444.20399999846,"duration":166.66649999999208,"noteNumber":43,"velocity":85,"programNumber":41},{"time":240666.42599999844,"duration":166.66649999999208,"noteNumber":43,"velocity":85,"programNumber":41},{"time":240888.64799999841,"duration":166.66649999999208,"noteNumber":43,"velocity":85,"programNumber":41},{"time":241110.8699999984,"duration":166.66649999999208,"noteNumber":43,"velocity":85,"programNumber":41},{"time":241333.09199999837,"duration":166.66649999999208,"noteNumber":43,"velocity":85,"programNumber":41},{"time":241555.31399999835,"duration":166.66649999999208,"noteNumber":43,"velocity":85,"programNumber":41},{"time":241777.53599999833,"duration":166.66649999999208,"noteNumber":43,"velocity":85,"programNumber":41},{"time":241999.7579999983,"duration":166.66649999999208,"noteNumber":43,"velocity":85,"programNumber":41},{"time":242221.9799999983,"duration":166.66649999999208,"noteNumber":43,"velocity":85,"programNumber":41},{"time":242444.20199999827,"duration":166.66649999999208,"noteNumber":43,"velocity":85,"programNumber":41},{"time":242666.42399999825,"duration":166.66649999999208,"noteNumber":43,"velocity":85,"programNumber":41},{"time":242888.64599999823,"duration":166.66649999999208,"noteNumber":43,"velocity":85,"programNumber":41},{"time":243110.8679999982,"duration":166.66649999999208,"noteNumber":43,"velocity":85,"programNumber":41},{"time":243333.0899999982,"duration":166.66649999999208,"noteNumber":43,"velocity":85,"programNumber":41},{"time":243555.31199999817,"duration":166.66649999999208,"noteNumber":43,"velocity":85,"programNumber":41},{"time":243777.53399999815,"duration":166.66649999999208,"noteNumber":43,"velocity":85,"programNumber":41},{"time":243999.75599999813,"duration":166.66649999999208,"noteNumber":43,"velocity":85,"programNumber":41},{"time":244221.9779999981,"duration":166.66649999999208,"noteNumber":43,"velocity":85,"programNumber":41},{"time":244444.1999999981,"duration":166.66649999999208,"noteNumber":43,"velocity":85,"programNumber":41},{"time":244666.42199999807,"duration":166.66649999999208,"noteNumber":43,"velocity":85,"programNumber":41},{"time":244888.64399999805,"duration":166.66649999999208,"noteNumber":43,"velocity":85,"programNumber":41},{"time":245110.86599999803,"duration":166.66649999999208,"noteNumber":43,"velocity":85,"programNumber":41},{"time":245333.087999998,"duration":166.66649999999208,"noteNumber":43,"velocity":85,"programNumber":41},{"time":245555.309999998,"duration":166.66649999999208,"noteNumber":43,"velocity":85,"programNumber":41},{"time":245777.53199999797,"duration":166.66649999999208,"noteNumber":45,"velocity":85,"programNumber":41},{"time":245999.75399999795,"duration":166.66649999999208,"noteNumber":45,"velocity":85,"programNumber":41},{"time":246221.97599999793,"duration":166.66649999999208,"noteNumber":47,"velocity":85,"programNumber":41},{"time":246444.1979999979,"duration":166.66649999999208,"noteNumber":47,"velocity":85,"programNumber":41},{"time":246666.4199999979,"duration":166.66649999999208,"noteNumber":42,"velocity":85,"programNumber":41},{"time":246888.64199999787,"duration":166.66649999999208,"noteNumber":42,"velocity":85,"programNumber":41},{"time":247110.86399999785,"duration":166.66649999999208,"noteNumber":43,"velocity":85,"programNumber":41},{"time":247333.08599999783,"duration":166.66649999999208,"noteNumber":43,"velocity":85,"programNumber":41},{"time":247555.3079999978,"duration":166.66649999999208,"noteNumber":45,"velocity":85,"programNumber":41},{"time":247777.5299999978,"duration":166.66649999999208,"noteNumber":45,"velocity":85,"programNumber":41},{"time":247999.75199999777,"duration":444.4439999999886,"noteNumber":47,"velocity":85,"programNumber":41},{"time":250666.41599999776,"duration":888.8880000000063,"noteNumber":38,"velocity":47,"programNumber":41},{"time":251555.30399999776,"duration":888.8880000000063,"noteNumber":40,"velocity":47,"programNumber":41},{"time":252444.19199999777,"duration":333.33300000001327,"noteNumber":36,"velocity":47,"programNumber":41},{"time":252888.6359999978,"duration":333.33300000001327,"noteNumber":36,"velocity":47,"programNumber":41},{"time":253333.0799999978,"duration":333.33300000001327,"noteNumber":38,"velocity":47,"programNumber":41},{"time":253777.52399999782,"duration":333.33300000001327,"noteNumber":38,"velocity":47,"programNumber":41},{"time":254221.96799999784,"duration":222.22200000000885,"noteNumber":35,"velocity":47,"programNumber":41},{"time":254666.41199999786,"duration":222.22200000000885,"noteNumber":38,"velocity":47,"programNumber":41},{"time":255110.85599999788,"duration":444.4439999999886,"noteNumber":43,"velocity":47,"programNumber":41},{"time":257777.51999999786,"duration":888.8880000000063,"noteNumber":38,"velocity":47,"programNumber":41},{"time":258666.40799999787,"duration":888.8880000000063,"noteNumber":40,"velocity":47,"programNumber":41},{"time":259555.29599999788,"duration":333.33300000001327,"noteNumber":36,"velocity":47,"programNumber":41},{"time":259999.7399999979,"duration":333.33300000001327,"noteNumber":36,"velocity":47,"programNumber":41},{"time":260444.1839999979,"duration":333.33300000001327,"noteNumber":38,"velocity":47,"programNumber":41},{"time":260888.62799999793,"duration":333.33300000001327,"noteNumber":38,"velocity":47,"programNumber":41},{"time":261333.07199999795,"duration":166.66649999999208,"noteNumber":43,"velocity":91,"programNumber":41},{"time":261555.29399999793,"duration":166.66649999999208,"noteNumber":43,"velocity":83,"programNumber":41},{"time":261777.5159999979,"duration":166.66649999999208,"noteNumber":43,"velocity":83,"programNumber":41},{"time":261999.7379999979,"duration":166.6665000000212,"noteNumber":43,"velocity":83,"programNumber":41},{"time":262221.9599999979,"duration":166.66649999999208,"noteNumber":43,"velocity":59,"programNumber":41},{"time":262444.18199999793,"duration":166.66649999999208,"noteNumber":43,"velocity":59,"programNumber":41},{"time":262666.40399999794,"duration":166.66649999999208,"noteNumber":43,"velocity":59,"programNumber":41},{"time":262888.62599999795,"duration":166.66649999999208,"noteNumber":43,"velocity":59,"programNumber":41},{"time":263110.84799999796,"duration":166.66649999999208,"noteNumber":43,"velocity":92,"programNumber":41},{"time":263333.06999999797,"duration":166.66649999999208,"noteNumber":43,"velocity":79,"programNumber":41},{"time":263555.291999998,"duration":166.66649999999208,"noteNumber":43,"velocity":79,"programNumber":41},{"time":263777.513999998,"duration":166.66649999999208,"noteNumber":43,"velocity":79,"programNumber":41},{"time":263999.735999998,"duration":166.66649999999208,"noteNumber":43,"velocity":59,"programNumber":41},{"time":264221.957999998,"duration":166.66649999999208,"noteNumber":43,"velocity":59,"programNumber":41},{"time":264444.179999998,"duration":166.66649999999208,"noteNumber":43,"velocity":59,"programNumber":41},{"time":264666.401999998,"duration":166.66649999999208,"noteNumber":43,"velocity":59,"programNumber":41},{"time":264888.62399999803,"duration":166.66649999999208,"noteNumber":43,"velocity":59,"programNumber":41},{"time":265110.84599999804,"duration":166.66649999999208,"noteNumber":43,"velocity":40,"programNumber":41},{"time":265333.06799999805,"duration":166.66649999999208,"noteNumber":43,"velocity":43,"programNumber":41},{"time":265555.28999999806,"duration":166.66649999999208,"noteNumber":43,"velocity":46,"programNumber":41},{"time":265777.51199999807,"duration":166.66649999999208,"noteNumber":43,"velocity":49,"programNumber":41},{"time":265999.7339999981,"duration":166.66649999999208,"noteNumber":43,"velocity":52,"programNumber":41},{"time":266221.9559999981,"duration":166.66649999999208,"noteNumber":43,"velocity":55,"programNumber":41},{"time":266444.1779999981,"duration":166.66649999999208,"noteNumber":43,"velocity":58,"programNumber":41},{"time":266666.3999999981,"duration":166.66649999999208,"noteNumber":43,"velocity":61,"programNumber":41},{"time":266888.6219999981,"duration":166.66649999999208,"noteNumber":43,"velocity":64,"programNumber":41},{"time":267110.8439999981,"duration":166.66649999999208,"noteNumber":42,"velocity":67,"programNumber":41},{"time":267333.0659999981,"duration":166.66649999999208,"noteNumber":42,"velocity":70,"programNumber":41},{"time":267555.28799999814,"duration":166.66649999999208,"noteNumber":43,"velocity":73,"programNumber":41},{"time":267777.50999999815,"duration":166.66649999999208,"noteNumber":43,"velocity":76,"programNumber":41},{"time":267999.73199999816,"duration":166.66649999999208,"noteNumber":40,"velocity":79,"programNumber":41},{"time":268221.95399999816,"duration":166.66649999999208,"noteNumber":40,"velocity":82,"programNumber":41},{"time":268444.1759999982,"duration":166.66649999999208,"noteNumber":38,"velocity":85,"programNumber":41},{"time":268666.3979999982,"duration":166.66649999999208,"noteNumber":38,"velocity":85,"programNumber":41},{"time":268888.6199999982,"duration":166.66649999999208,"noteNumber":38,"velocity":85,"programNumber":41},{"time":269110.8419999982,"duration":166.66649999999208,"noteNumber":38,"velocity":85,"programNumber":41},{"time":269333.0639999982,"duration":166.66649999999208,"noteNumber":38,"velocity":85,"programNumber":41},{"time":269555.2859999982,"duration":166.66649999999208,"noteNumber":38,"velocity":85,"programNumber":41},{"time":269777.5079999982,"duration":166.66649999999208,"noteNumber":38,"velocity":85,"programNumber":41},{"time":269999.72999999824,"duration":166.66649999999208,"noteNumber":38,"velocity":85,"programNumber":41},{"time":270221.95199999824,"duration":166.66649999999208,"noteNumber":38,"velocity":85,"programNumber":41},{"time":270444.17399999825,"duration":166.66649999999208,"noteNumber":38,"velocity":85,"programNumber":41},{"time":270666.39599999826,"duration":166.66649999999208,"noteNumber":38,"velocity":85,"programNumber":41},{"time":270888.61799999827,"duration":166.66649999999208,"noteNumber":38,"velocity":85,"programNumber":41},{"time":271110.8399999983,"duration":166.66649999999208,"noteNumber":38,"velocity":85,"programNumber":41},{"time":271333.0619999983,"duration":166.66649999999208,"noteNumber":38,"velocity":85,"programNumber":41},{"time":271555.2839999983,"duration":166.66649999999208,"noteNumber":38,"velocity":85,"programNumber":41},{"time":271777.5059999983,"duration":166.66649999999208,"noteNumber":38,"velocity":85,"programNumber":41},{"time":271999.7279999983,"duration":166.66649999999208,"noteNumber":38,"velocity":85,"programNumber":41},{"time":272221.9499999983,"duration":166.66649999999208,"noteNumber":38,"velocity":85,"programNumber":41},{"time":272444.17199999833,"duration":166.66649999999208,"noteNumber":38,"velocity":85,"programNumber":41},{"time":272666.39399999834,"duration":166.66649999999208,"noteNumber":38,"velocity":85,"programNumber":41},{"time":272888.61599999835,"duration":166.66649999999208,"noteNumber":38,"velocity":85,"programNumber":41},{"time":273110.83799999836,"duration":166.66649999999208,"noteNumber":38,"velocity":85,"programNumber":41},{"time":273333.05999999837,"duration":166.66649999999208,"noteNumber":38,"velocity":85,"programNumber":41},{"time":273555.2819999984,"duration":166.66649999999208,"noteNumber":38,"velocity":85,"programNumber":41},{"time":273788.61509999837,"duration":166.66649999999208,"noteNumber":38,"velocity":85,"programNumber":41},{"time":274010.8370999984,"duration":166.66649999999208,"noteNumber":38,"velocity":85,"programNumber":41},{"time":274233.0590999984,"duration":166.66649999999208,"noteNumber":38,"velocity":85,"programNumber":41},{"time":274455.2810999984,"duration":166.66649999999208,"noteNumber":38,"velocity":85,"programNumber":41},{"time":274677.5030999984,"duration":444.4440000000177,"noteNumber":38,"velocity":85,"programNumber":41},{"time":276888.6119999984,"duration":222.22200000000885,"noteNumber":44,"velocity":55,"programNumber":41},{"time":277333.0559999984,"duration":222.22200000000885,"noteNumber":45,"velocity":55,"programNumber":41},{"time":277777.4999999984,"duration":222.22200000000885,"noteNumber":43,"velocity":55,"programNumber":41},{"time":278221.94399999845,"duration":222.22200000000885,"noteNumber":42,"velocity":55,"programNumber":41},{"time":278666.38799999846,"duration":222.22200000000885,"noteNumber":38,"velocity":55,"programNumber":41},{"time":279555.2759999985,"duration":444.4440000000177,"noteNumber":39,"velocity":55,"programNumber":41},{"time":279999.7199999985,"duration":222.22200000000885,"noteNumber":40,"velocity":55,"programNumber":41},{"time":280444.16399999853,"duration":222.22200000000885,"noteNumber":36,"velocity":55,"programNumber":41},{"time":280888.60799999855,"duration":333.33299999998417,"noteNumber":38,"velocity":55,"programNumber":41},{"time":281333.0519999985,"duration":666.6660000000265,"noteNumber":50,"velocity":55,"programNumber":41},{"time":281999.71799999854,"duration":222.22200000000885,"noteNumber":49,"velocity":55,"programNumber":41},{"time":282221.93999999855,"duration":222.22200000000885,"noteNumber":48,"velocity":55,"programNumber":41},{"time":282444.16199999856,"duration":222.22200000000885,"noteNumber":45,"velocity":55,"programNumber":41},{"time":282666.38399999856,"duration":222.22200000000885,"noteNumber":43,"velocity":55,"programNumber":41},{"time":283110.8279999986,"duration":222.22200000000885,"noteNumber":45,"velocity":55,"programNumber":41},{"time":283555.2719999986,"duration":222.22200000000885,"noteNumber":47,"velocity":55,"programNumber":41},{"time":283999.7159999986,"duration":222.22200000000885,"noteNumber":44,"velocity":55,"programNumber":41},{"time":284444.15999999864,"duration":222.22200000000885,"noteNumber":45,"velocity":55,"programNumber":41},{"time":284888.60399999865,"duration":222.22200000000885,"noteNumber":43,"velocity":55,"programNumber":41},{"time":285333.0479999987,"duration":222.22200000000885,"noteNumber":42,"velocity":55,"programNumber":41},{"time":285777.4919999987,"duration":222.22200000000885,"noteNumber":38,"velocity":55,"programNumber":41},{"time":286221.9359999987,"duration":222.22200000000885,"noteNumber":40,"velocity":55,"programNumber":41},{"time":286666.3799999987,"duration":222.22200000000885,"noteNumber":48,"velocity":55,"programNumber":41},{"time":287110.82399999874,"duration":222.22200000000885,"noteNumber":50,"velocity":55,"programNumber":41},{"time":287555.26799999876,"duration":222.22200000000885,"noteNumber":38,"velocity":55,"programNumber":41},{"time":287999.7119999988,"duration":444.4440000000177,"noteNumber":31,"velocity":55,"programNumber":41},{"time":289777.4879999988,"duration":444.4440000000177,"noteNumber":38,"velocity":55,"programNumber":41},{"time":291555.2639999988,"duration":444.4440000000177,"noteNumber":31,"velocity":55,"programNumber":41},{"time":293333.0399999988,"duration":444.4440000000177,"noteNumber":38,"velocity":55,"programNumber":41},{"time":295333.03799999884,"duration":166.66649999999208,"noteNumber":43,"velocity":55,"programNumber":41},{"time":295555.25999999885,"duration":166.66649999999208,"noteNumber":47,"velocity":55,"programNumber":41},{"time":295777.48199999885,"duration":166.66649999999208,"noteNumber":45,"velocity":55,"programNumber":41},{"time":295999.70399999886,"duration":166.66649999999208,"noteNumber":44,"velocity":55,"programNumber":41},{"time":296221.9259999989,"duration":166.66649999999208,"noteNumber":40,"velocity":55,"programNumber":41},{"time":296444.1479999989,"duration":166.66649999999208,"noteNumber":42,"velocity":55,"programNumber":41},{"time":296666.3699999989,"duration":166.66649999999208,"noteNumber":43,"velocity":55,"programNumber":41},{"time":296888.5919999989,"duration":166.66649999999208,"noteNumber":45,"velocity":85,"programNumber":41},{"time":297110.8139999989,"duration":166.66649999999208,"noteNumber":48,"velocity":85,"programNumber":41},{"time":297333.0359999989,"duration":166.66649999999208,"noteNumber":45,"velocity":85,"programNumber":41},{"time":297555.2579999989,"duration":166.66649999999208,"noteNumber":43,"velocity":85,"programNumber":41},{"time":297777.47999999893,"duration":166.66649999999208,"noteNumber":42,"velocity":85,"programNumber":41},{"time":297999.70199999894,"duration":166.66649999999208,"noteNumber":38,"velocity":85,"programNumber":41},{"time":298221.92399999895,"duration":166.66649999999208,"noteNumber":40,"velocity":85,"programNumber":41},{"time":298444.14599999896,"duration":166.66649999999208,"noteNumber":42,"velocity":85,"programNumber":41},{"time":298666.36799999897,"duration":166.66649999999208,"noteNumber":43,"velocity":85,"programNumber":41},{"time":298888.589999999,"duration":166.66649999999208,"noteNumber":43,"velocity":85,"programNumber":41},{"time":299110.811999999,"duration":166.66649999999208,"noteNumber":45,"velocity":85,"programNumber":41},{"time":299333.033999999,"duration":166.66649999999208,"noteNumber":47,"velocity":85,"programNumber":41},{"time":299555.255999999,"duration":166.66649999999208,"noteNumber":48,"velocity":85,"programNumber":41},{"time":299777.477999999,"duration":166.66649999999208,"noteNumber":48,"velocity":85,"programNumber":41},{"time":299999.699999999,"duration":166.66649999999208,"noteNumber":48,"velocity":85,"programNumber":41},{"time":300221.92199999903,"duration":166.66649999999208,"noteNumber":48,"velocity":85,"programNumber":41},{"time":300444.14399999904,"duration":166.66649999999208,"noteNumber":50,"velocity":85,"programNumber":41},{"time":300666.36599999905,"duration":166.66649999999208,"noteNumber":50,"velocity":85,"programNumber":41},{"time":300888.58799999906,"duration":166.66649999999208,"noteNumber":50,"velocity":85,"programNumber":41},{"time":301110.80999999907,"duration":166.66649999999208,"noteNumber":50,"velocity":85,"programNumber":41},{"time":301333.0319999991,"duration":166.66649999999208,"noteNumber":38,"velocity":85,"programNumber":41},{"time":301555.2539999991,"duration":166.66649999999208,"noteNumber":38,"velocity":85,"programNumber":41},{"time":301777.4759999991,"duration":166.66649999999208,"noteNumber":38,"velocity":85,"programNumber":41},{"time":301999.6979999991,"duration":166.66649999999208,"noteNumber":38,"velocity":85,"programNumber":41},{"time":302221.9199999991,"duration":444.4440000000177,"noteNumber":43,"velocity":85,"programNumber":41},{"time":303999.6959999991,"duration":444.4440000000177,"noteNumber":38,"velocity":55,"programNumber":41},{"time":305777.47199999914,"duration":444.4440000000177,"noteNumber":43,"velocity":55,"programNumber":41},{"time":307555.24799999915,"duration":444.4440000000177,"noteNumber":38,"velocity":55,"programNumber":41},{"time":309555.24599999917,"duration":166.66649999999208,"noteNumber":43,"velocity":85,"programNumber":41},{"time":309777.4679999992,"duration":166.66649999999208,"noteNumber":47,"velocity":85,"programNumber":41},{"time":309999.6899999992,"duration":166.66649999999208,"noteNumber":45,"velocity":85,"programNumber":41},{"time":310221.9119999992,"duration":166.66649999999208,"noteNumber":44,"velocity":85,"programNumber":41},{"time":310444.1339999992,"duration":166.66649999999208,"noteNumber":40,"velocity":85,"programNumber":41},{"time":310666.3559999992,"duration":166.66649999999208,"noteNumber":42,"velocity":85,"programNumber":41},{"time":310888.5779999992,"duration":166.66649999999208,"noteNumber":43,"velocity":85,"programNumber":41},{"time":311110.79999999923,"duration":166.66649999999208,"noteNumber":45,"velocity":85,"programNumber":41},{"time":311333.02199999924,"duration":166.66649999999208,"noteNumber":48,"velocity":85,"programNumber":41},{"time":311555.24399999925,"duration":166.66649999999208,"noteNumber":45,"velocity":85,"programNumber":41},{"time":311777.46599999926,"duration":166.66649999999208,"noteNumber":43,"velocity":85,"programNumber":41},{"time":311999.68799999927,"duration":166.66649999999208,"noteNumber":42,"velocity":85,"programNumber":41},{"time":312221.9099999993,"duration":166.66649999999208,"noteNumber":38,"velocity":85,"programNumber":41},{"time":312444.1319999993,"duration":166.66649999999208,"noteNumber":40,"velocity":85,"programNumber":41},{"time":312666.3539999993,"duration":166.66649999999208,"noteNumber":42,"velocity":85,"programNumber":41},{"time":312888.5759999993,"duration":166.66649999999208,"noteNumber":43,"velocity":85,"programNumber":41},{"time":313110.7979999993,"duration":166.66649999999208,"noteNumber":43,"velocity":85,"programNumber":41},{"time":313333.0199999993,"duration":166.66649999999208,"noteNumber":45,"velocity":85,"programNumber":41},{"time":313555.2419999993,"duration":166.66649999999208,"noteNumber":47,"velocity":85,"programNumber":41},{"time":313777.46399999934,"duration":166.66649999999208,"noteNumber":48,"velocity":85,"programNumber":41},{"time":313999.68599999935,"duration":166.66649999999208,"noteNumber":48,"velocity":85,"programNumber":41},{"time":314221.90799999936,"duration":166.66649999999208,"noteNumber":48,"velocity":85,"programNumber":41},{"time":314444.12999999936,"duration":166.66649999999208,"noteNumber":48,"velocity":85,"programNumber":41},{"time":314666.3519999994,"duration":166.66649999999208,"noteNumber":50,"velocity":85,"programNumber":41},{"time":314888.5739999994,"duration":166.66649999999208,"noteNumber":50,"velocity":85,"programNumber":41},{"time":315110.7959999994,"duration":166.66649999999208,"noteNumber":50,"velocity":85,"programNumber":41},{"time":315333.0179999994,"duration":166.66649999999208,"noteNumber":50,"velocity":85,"programNumber":41},{"time":315555.2399999994,"duration":166.66649999999208,"noteNumber":38,"velocity":85,"programNumber":41},{"time":315777.4619999994,"duration":166.66649999999208,"noteNumber":38,"velocity":85,"programNumber":41},{"time":315999.6839999994,"duration":166.66649999999208,"noteNumber":38,"velocity":85,"programNumber":41},{"time":316221.90599999944,"duration":166.66649999999208,"noteNumber":38,"velocity":85,"programNumber":41},{"time":316451.5353999994,"duration":166.66649999999208,"noteNumber":43,"velocity":85,"programNumber":41},{"time":316673.7573999994,"duration":166.66649999999208,"noteNumber":38,"velocity":85,"programNumber":41},{"time":316895.9793999994,"duration":166.66649999999208,"noteNumber":40,"velocity":85,"programNumber":41},{"time":317118.20139999944,"duration":166.66649999999208,"noteNumber":42,"velocity":85,"programNumber":41},{"time":317340.42339999945,"duration":166.66649999999208,"noteNumber":43,"velocity":85,"programNumber":41},{"time":317562.64539999946,"duration":166.66649999999208,"noteNumber":43,"velocity":85,"programNumber":41},{"time":317784.86739999946,"duration":166.66649999999208,"noteNumber":45,"velocity":85,"programNumber":41},{"time":318007.0893999995,"duration":166.66649999999208,"noteNumber":45,"velocity":85,"programNumber":41},{"time":318229.3113999995,"duration":166.66649999999208,"noteNumber":47,"velocity":85,"programNumber":41},{"time":318451.5333999995,"duration":166.66649999999208,"noteNumber":42,"velocity":85,"programNumber":41},{"time":318673.7553999995,"duration":166.66649999999208,"noteNumber":43,"velocity":85,"programNumber":41},{"time":318895.9773999995,"duration":166.66649999999208,"noteNumber":45,"velocity":85,"programNumber":41},{"time":319118.1993999995,"duration":166.66649999999208,"noteNumber":47,"velocity":85,"programNumber":41},{"time":319340.4213999995,"duration":166.66649999999208,"noteNumber":47,"velocity":85,"programNumber":41},{"time":319562.64339999954,"duration":166.66649999999208,"noteNumber":48,"velocity":85,"programNumber":41},{"time":319784.86539999954,"duration":166.66649999999208,"noteNumber":48,"velocity":85,"programNumber":41},{"time":319999.6799999995,"duration":166.66649999999208,"noteNumber":50,"velocity":85,"programNumber":41},{"time":320221.90199999954,"duration":166.66649999999208,"noteNumber":50,"velocity":85,"programNumber":41},{"time":320444.12399999955,"duration":166.66649999999208,"noteNumber":51,"velocity":85,"programNumber":41},{"time":320666.34599999955,"duration":166.66649999999208,"noteNumber":51,"velocity":85,"programNumber":41},{"time":320888.56799999956,"duration":444.4440000000177,"noteNumber":52,"velocity":85,"programNumber":41},{"time":321777.4559999996,"duration":888.8879999999772,"noteNumber":36,"velocity":70,"programNumber":41},{"time":322666.3439999996,"duration":888.8879999999772,"noteNumber":38,"velocity":70,"programNumber":41},{"time":323555.23199999955,"duration":444.4440000000177,"noteNumber":31,"velocity":70,"programNumber":41},{"time":325333.00799999957,"duration":888.8879999999772,"noteNumber":36,"velocity":70,"programNumber":41},{"time":326221.89599999954,"duration":888.8879999999772,"noteNumber":38,"velocity":70,"programNumber":41},{"time":327110.7839999995,"duration":444.4440000000177,"noteNumber":31,"velocity":70,"programNumber":41},{"time":328888.55999999953,"duration":444.4440000000177,"noteNumber":36,"velocity":80,"programNumber":41},{"time":329777.44799999957,"duration":444.4440000000177,"noteNumber":38,"velocity":102,"programNumber":41},{"time":330666.3359999996,"duration":166.66649999999208,"noteNumber":31,"velocity":99,"programNumber":41},{"time":330888.5579999996,"duration":166.66649999999208,"noteNumber":31,"velocity":91,"programNumber":41},{"time":331110.7799999996,"duration":166.66649999999208,"noteNumber":31,"velocity":90,"programNumber":41},{"time":331333.00199999963,"duration":166.66649999999208,"noteNumber":31,"velocity":90,"programNumber":41},{"time":331555.22399999964,"duration":166.66649999999208,"noteNumber":31,"velocity":90,"programNumber":41},{"time":331777.44599999965,"duration":166.66649999999208,"noteNumber":31,"velocity":90,"programNumber":41},{"time":331999.66799999966,"duration":166.66649999999208,"noteNumber":31,"velocity":90,"programNumber":41},{"time":332221.88999999966,"duration":166.66649999999208,"noteNumber":31,"velocity":90,"programNumber":41},{"time":332444.1119999997,"duration":166.66649999999208,"noteNumber":31,"velocity":90,"programNumber":41},{"time":332666.3339999997,"duration":166.66649999999208,"noteNumber":31,"velocity":92,"programNumber":41},{"time":332888.5559999997,"duration":166.66649999999208,"noteNumber":31,"velocity":92,"programNumber":41},{"time":333110.7779999997,"duration":166.66649999999208,"noteNumber":31,"velocity":92,"programNumber":41},{"time":333332.9999999997,"duration":166.66649999999208,"noteNumber":31,"velocity":92,"programNumber":41},{"time":333555.2219999997,"duration":166.66649999999208,"noteNumber":31,"velocity":92,"programNumber":41},{"time":333777.4439999997,"duration":166.66649999999208,"noteNumber":31,"velocity":92,"programNumber":41},{"time":333999.66599999974,"duration":166.66649999999208,"noteNumber":31,"velocity":92,"programNumber":41},{"time":334221.88799999974,"duration":166.66649999999208,"noteNumber":31,"velocity":93,"programNumber":41},{"time":334444.10999999975,"duration":166.66649999999208,"noteNumber":31,"velocity":92,"programNumber":41},{"time":334666.33199999976,"duration":166.66649999999208,"noteNumber":31,"velocity":92,"programNumber":41},{"time":334888.55399999977,"duration":166.66649999999208,"noteNumber":31,"velocity":92,"programNumber":41},{"time":335110.7759999998,"duration":166.66649999999208,"noteNumber":31,"velocity":94,"programNumber":41},{"time":335332.9979999998,"duration":166.66649999999208,"noteNumber":31,"velocity":94,"programNumber":41},{"time":335555.2199999998,"duration":166.66649999999208,"noteNumber":31,"velocity":94,"programNumber":41},{"time":335777.4419999998,"duration":166.66649999999208,"noteNumber":31,"velocity":93,"programNumber":41},{"time":335999.6639999998,"duration":166.66649999999208,"noteNumber":31,"velocity":92,"programNumber":41},{"time":336221.8859999998,"duration":166.66649999999208,"noteNumber":31,"velocity":92,"programNumber":41},{"time":336444.10799999983,"duration":166.66649999999208,"noteNumber":31,"velocity":92,"programNumber":41},{"time":336666.32999999984,"duration":166.66649999999208,"noteNumber":31,"velocity":92,"programNumber":41},{"time":336888.55199999985,"duration":166.66649999999208,"noteNumber":31,"velocity":92,"programNumber":41},{"time":337110.77399999986,"duration":166.66649999999208,"noteNumber":31,"velocity":92,"programNumber":41},{"time":337332.99599999987,"duration":166.66649999999208,"noteNumber":31,"velocity":93,"programNumber":41},{"time":337555.2179999999,"duration":166.66649999999208,"noteNumber":31,"velocity":95,"programNumber":41},{"time":337777.4399999999,"duration":166.66649999999208,"noteNumber":31,"velocity":98,"programNumber":41},{"time":337999.6619999999,"duration":166.66649999999208,"noteNumber":35,"velocity":94,"programNumber":41},{"time":338221.8839999999,"duration":166.66649999999208,"noteNumber":38,"velocity":94,"programNumber":41},{"time":338444.1059999999,"duration":166.66649999999208,"noteNumber":43,"velocity":94,"programNumber":41},{"time":338666.3279999999,"duration":166.66649999999208,"noteNumber":47,"velocity":94,"programNumber":41},{"time":338888.54999999993,"duration":166.66649999999208,"noteNumber":43,"velocity":94,"programNumber":41},{"time":339110.77199999994,"duration":166.66649999999208,"noteNumber":50,"velocity":94,"programNumber":41},{"time":339332.99399999995,"duration":166.66649999999208,"noteNumber":47,"velocity":94,"programNumber":41},{"time":339555.21599999996,"duration":370.36999999999534,"noteNumber":43,"velocity":94,"programNumber":41},{"time":339999.66,"duration":222.22200000000885,"noteNumber":31,"velocity":95,"programNumber":41},{"time":340332.99299999996,"duration":55.555500000016764,"noteNumber":31,"velocity":97,"programNumber":41},{"time":340444.104,"duration":444.4440000000177,"noteNumber":31,"velocity":97,"programNumber":41}],[{"time":0,"duration":444.444,"noteNumber":71,"velocity":85,"programNumber":48},{"time":0,"duration":444.444,"noteNumber":79,"velocity":85,"programNumber":48},{"time":0,"duration":444.444,"noteNumber":62,"velocity":85,"programNumber":48},{"time":666.666,"duration":111.11099999999999,"noteNumber":74,"velocity":85,"programNumber":48},{"time":888.888,"duration":444.4440000000001,"noteNumber":79,"velocity":85,"programNumber":48},{"time":1555.554,"duration":111.1110000000001,"noteNumber":74,"velocity":85,"programNumber":48},{"time":1777.7760000000003,"duration":111.1110000000001,"noteNumber":79,"velocity":85,"programNumber":48},{"time":1999.9980000000005,"duration":111.11099999999988,"noteNumber":74,"velocity":85,"programNumber":48},{"time":2222.2200000000003,"duration":111.11099999999988,"noteNumber":79,"velocity":85,"programNumber":48},{"time":2444.442,"duration":111.11099999999988,"noteNumber":83,"velocity":85,"programNumber":48},{"time":2666.6639999999998,"duration":444.44399999999996,"noteNumber":86,"velocity":85,"programNumber":48},{"time":3555.5519999999997,"duration":444.44399999999996,"noteNumber":84,"velocity":85,"programNumber":48},{"time":4222.218,"duration":111.11099999999988,"noteNumber":81,"velocity":82,"programNumber":48},{"time":4444.44,"duration":444.4440000000004,"noteNumber":84,"velocity":85,"programNumber":48},{"time":5111.106,"duration":111.11099999999988,"noteNumber":81,"velocity":79,"programNumber":48},{"time":5333.3279999999995,"duration":111.11099999999988,"noteNumber":84,"velocity":85,"programNumber":48},{"time":5555.549999999999,"duration":111.11099999999988,"noteNumber":81,"velocity":80,"programNumber":48},{"time":5777.771999999999,"duration":111.11099999999988,"noteNumber":78,"velocity":85,"programNumber":48},{"time":5999.993999999999,"duration":111.11099999999988,"noteNumber":81,"velocity":77,"programNumber":48},{"time":6222.2159999999985,"duration":444.4440000000004,"noteNumber":74,"velocity":85,"programNumber":48},{"time":7111.103999999999,"duration":222.22199999999975,"noteNumber":71,"velocity":85,"programNumber":48},{"time":7111.103999999999,"duration":222.22199999999975,"noteNumber":79,"velocity":85,"programNumber":48},{"time":7111.103999999999,"duration":222.22199999999975,"noteNumber":62,"velocity":85,"programNumber":48},{"time":7555.547999999999,"duration":666.6659999999993,"noteNumber":79,"velocity":85,"programNumber":48},{"time":8222.213999999998,"duration":222.22199999999975,"noteNumber":83,"velocity":89,"programNumber":48},{"time":8444.435999999998,"duration":111.11100000000079,"noteNumber":81,"velocity":94,"programNumber":48},{"time":8666.658,"duration":111.11100000000079,"noteNumber":79,"velocity":97,"programNumber":48},{"time":8888.880000000001,"duration":55.55550000000039,"noteNumber":79,"velocity":95,"programNumber":48},{"time":8944.435500000001,"duration":55.55550000000039,"noteNumber":81,"velocity":95,"programNumber":48},{"time":8999.991000000002,"duration":55.55550000000039,"noteNumber":79,"velocity":95,"programNumber":48},{"time":9055.546500000002,"duration":55.55550000000039,"noteNumber":81,"velocity":94,"programNumber":48},{"time":9111.102000000003,"duration":185.1849999999995,"noteNumber":78,"velocity":94,"programNumber":48},{"time":9333.324000000002,"duration":666.6659999999993,"noteNumber":78,"velocity":88,"programNumber":48},{"time":9999.990000000002,"duration":222.22199999999975,"noteNumber":81,"velocity":85,"programNumber":48},{"time":10222.212000000001,"duration":111.11100000000079,"noteNumber":84,"velocity":85,"programNumber":48},{"time":10444.434000000003,"duration":111.11100000000079,"noteNumber":78,"velocity":85,"programNumber":48},{"time":10666.656000000004,"duration":222.22199999999975,"noteNumber":81,"velocity":85,"programNumber":48},{"time":10888.878000000004,"duration":111.11100000000079,"noteNumber":79,"velocity":85,"programNumber":48},{"time":11111.100000000006,"duration":666.6659999999993,"noteNumber":79,"velocity":85,"programNumber":48},{"time":11777.766000000005,"duration":222.22199999999975,"noteNumber":83,"velocity":86,"programNumber":48},{"time":11999.988000000005,"duration":111.11100000000079,"noteNumber":81,"velocity":86,"programNumber":48},{"time":12222.210000000006,"duration":111.11100000000079,"noteNumber":79,"velocity":89,"programNumber":48},{"time":12444.432000000008,"duration":55.55550000000039,"noteNumber":79,"velocity":91,"programNumber":48},{"time":12499.987500000008,"duration":55.55550000000039,"noteNumber":81,"velocity":91,"programNumber":48},{"time":12555.543000000009,"duration":55.55550000000039,"noteNumber":79,"velocity":92,"programNumber":48},{"time":12611.09850000001,"duration":55.55550000000039,"noteNumber":81,"velocity":94,"programNumber":48},{"time":12666.65400000001,"duration":185.1849999999995,"noteNumber":78,"velocity":94,"programNumber":48},{"time":12888.87600000001,"duration":666.6659999999993,"noteNumber":78,"velocity":94,"programNumber":48},{"time":13555.542000000009,"duration":222.22199999999975,"noteNumber":81,"velocity":85,"programNumber":48},{"time":13777.764000000008,"duration":111.11100000000079,"noteNumber":84,"velocity":85,"programNumber":48},{"time":13999.98600000001,"duration":111.11100000000079,"noteNumber":78,"velocity":85,"programNumber":48},{"time":14222.208000000011,"duration":111.11100000000079,"noteNumber":79,"velocity":85,"programNumber":48},{"time":14444.430000000013,"duration":111.11100000000079,"noteNumber":79,"velocity":85,"programNumber":48},{"time":14666.652000000015,"duration":111.11100000000079,"noteNumber":79,"velocity":85,"programNumber":48},{"time":14777.763000000015,"duration":111.11100000000079,"noteNumber":78,"velocity":85,"programNumber":48},{"time":14888.874000000016,"duration":111.11100000000079,"noteNumber":76,"velocity":85,"programNumber":48},{"time":14999.985000000017,"duration":111.11100000000079,"noteNumber":78,"velocity":85,"programNumber":48},{"time":15111.096000000018,"duration":111.11100000000079,"noteNumber":79,"velocity":85,"programNumber":48},{"time":15333.31800000002,"duration":111.11100000000079,"noteNumber":79,"velocity":85,"programNumber":48},{"time":15555.54000000002,"duration":111.11100000000079,"noteNumber":83,"velocity":85,"programNumber":48},{"time":15666.651000000022,"duration":111.11100000000079,"noteNumber":81,"velocity":85,"programNumber":48},{"time":15777.762000000022,"duration":111.11100000000079,"noteNumber":79,"velocity":85,"programNumber":48},{"time":15888.873000000023,"duration":111.11100000000079,"noteNumber":81,"velocity":85,"programNumber":48},{"time":15999.984000000024,"duration":111.11100000000079,"noteNumber":83,"velocity":86,"programNumber":48},{"time":16222.206000000026,"duration":111.11100000000079,"noteNumber":83,"velocity":86,"programNumber":48},{"time":16444.428000000025,"duration":111.11100000000079,"noteNumber":86,"velocity":83,"programNumber":48},{"time":16555.539000000026,"duration":111.11100000000079,"noteNumber":84,"velocity":80,"programNumber":48},{"time":16666.650000000027,"duration":111.11100000000079,"noteNumber":83,"velocity":80,"programNumber":48},{"time":16777.761000000028,"duration":111.11100000000079,"noteNumber":84,"velocity":79,"programNumber":48},{"time":16888.87200000003,"duration":444.4439999999995,"noteNumber":86,"velocity":76,"programNumber":48},{"time":17777.760000000028,"duration":888.887999999999,"noteNumber":74,"velocity":41,"programNumber":48},{"time":18666.648000000027,"duration":888.887999999999,"noteNumber":76,"velocity":47,"programNumber":48},{"time":19555.536000000026,"duration":111.11100000000079,"noteNumber":74,"velocity":47,"programNumber":48},{"time":19666.647000000026,"duration":296.29599999999846,"noteNumber":72,"velocity":47,"programNumber":48},{"time":19999.980000000025,"duration":444.4439999999995,"noteNumber":72,"velocity":47,"programNumber":48},{"time":20444.424000000025,"duration":111.11100000000079,"noteNumber":72,"velocity":47,"programNumber":48},{"time":20555.535000000025,"duration":296.29599999999846,"noteNumber":71,"velocity":47,"programNumber":48},{"time":20888.868000000024,"duration":444.4439999999995,"noteNumber":71,"velocity":47,"programNumber":48},{"time":21333.312000000024,"duration":111.11100000000079,"noteNumber":71,"velocity":47,"programNumber":48},{"time":21444.423000000024,"duration":296.29599999999846,"noteNumber":69,"velocity":47,"programNumber":48},{"time":21777.756000000023,"duration":444.4439999999995,"noteNumber":69,"velocity":47,"programNumber":48},{"time":22222.200000000023,"duration":222.22200000000157,"noteNumber":67,"velocity":47,"programNumber":48},{"time":22444.422000000024,"duration":111.11100000000079,"noteNumber":66,"velocity":47,"programNumber":48},{"time":22666.644000000026,"duration":111.11100000000079,"noteNumber":64,"velocity":47,"programNumber":48},{"time":22888.866000000027,"duration":111.11100000000079,"noteNumber":66,"velocity":47,"programNumber":48},{"time":23111.08800000003,"duration":222.22200000000157,"noteNumber":67,"velocity":47,"programNumber":48},{"time":23555.532000000032,"duration":222.22200000000157,"noteNumber":69,"velocity":47,"programNumber":48},{"time":23999.976000000035,"duration":222.22200000000157,"noteNumber":71,"velocity":47,"programNumber":48},{"time":24888.864000000038,"duration":888.887999999999,"noteNumber":74,"velocity":47,"programNumber":48},{"time":25777.752000000037,"duration":888.887999999999,"noteNumber":76,"velocity":47,"programNumber":48},{"time":26666.640000000036,"duration":222.22200000000157,"noteNumber":74,"velocity":47,"programNumber":48},{"time":26888.862000000037,"duration":111.11100000000079,"noteNumber":72,"velocity":47,"programNumber":48},{"time":27111.08400000004,"duration":111.11100000000079,"noteNumber":72,"velocity":47,"programNumber":48},{"time":27333.30600000004,"duration":111.11100000000079,"noteNumber":72,"velocity":47,"programNumber":48},{"time":27555.528000000042,"duration":222.22200000000157,"noteNumber":72,"velocity":47,"programNumber":48},{"time":27777.750000000044,"duration":111.11100000000079,"noteNumber":71,"velocity":47,"programNumber":48},{"time":27999.972000000045,"duration":111.11100000000079,"noteNumber":71,"velocity":47,"programNumber":48},{"time":28222.194000000047,"duration":111.11100000000079,"noteNumber":71,"velocity":47,"programNumber":48},{"time":28444.41600000005,"duration":222.22200000000157,"noteNumber":71,"velocity":47,"programNumber":48},{"time":28666.63800000005,"duration":111.11100000000079,"noteNumber":69,"velocity":47,"programNumber":48},{"time":28888.86000000005,"duration":166.66649999999936,"noteNumber":69,"velocity":47,"programNumber":48},{"time":29111.08200000005,"duration":166.66649999999936,"noteNumber":69,"velocity":47,"programNumber":48},{"time":29333.304000000047,"duration":222.22200000000157,"noteNumber":67,"velocity":47,"programNumber":48},{"time":29555.52600000005,"duration":222.22200000000157,"noteNumber":66,"velocity":47,"programNumber":48},{"time":29777.74800000005,"duration":222.22200000000157,"noteNumber":64,"velocity":47,"programNumber":48},{"time":29999.970000000052,"duration":222.22200000000157,"noteNumber":66,"velocity":47,"programNumber":48},{"time":30222.192000000054,"duration":1111.1100000000006,"noteNumber":67,"velocity":85,"programNumber":48},{"time":30222.192000000054,"duration":1111.1100000000006,"noteNumber":55,"velocity":85,"programNumber":48},{"time":31333.302000000054,"duration":55.555499999998574,"noteNumber":67,"velocity":61,"programNumber":48},{"time":31388.857500000053,"duration":55.555499999998574,"noteNumber":69,"velocity":61,"programNumber":48},{"time":31444.41300000005,"duration":55.555499999998574,"noteNumber":66,"velocity":61,"programNumber":48},{"time":31499.96850000005,"duration":55.555499999998574,"noteNumber":67,"velocity":61,"programNumber":48},{"time":31555.52400000005,"duration":222.22200000000157,"noteNumber":69,"velocity":61,"programNumber":48},{"time":31777.74600000005,"duration":222.22200000000157,"noteNumber":66,"velocity":61,"programNumber":48},{"time":31999.96800000005,"duration":1111.1100000000006,"noteNumber":71,"velocity":85,"programNumber":48},{"time":33111.07800000005,"duration":55.55550000000221,"noteNumber":71,"velocity":61,"programNumber":48},{"time":33166.633500000054,"duration":55.55550000000221,"noteNumber":72,"velocity":61,"programNumber":48},{"time":33222.18900000006,"duration":55.55550000000221,"noteNumber":69,"velocity":61,"programNumber":48},{"time":33277.74450000006,"duration":55.55550000000221,"noteNumber":71,"velocity":61,"programNumber":48},{"time":33333.30000000006,"duration":222.22200000000157,"noteNumber":72,"velocity":61,"programNumber":48},{"time":33555.52200000006,"duration":222.22200000000157,"noteNumber":69,"velocity":61,"programNumber":48},{"time":33777.744000000064,"duration":74.07400000000052,"noteNumber":74,"velocity":46,"programNumber":48},{"time":33888.85500000006,"duration":74.07400000000052,"noteNumber":74,"velocity":46,"programNumber":48},{"time":33999.96600000006,"duration":74.07400000000052,"noteNumber":74,"velocity":47,"programNumber":48},{"time":34111.077000000056,"duration":74.07400000000052,"noteNumber":74,"velocity":47,"programNumber":48},{"time":34222.18800000005,"duration":74.07400000000052,"noteNumber":74,"velocity":49,"programNumber":48},{"time":34333.29900000005,"duration":74.07400000000052,"noteNumber":74,"velocity":50,"programNumber":48},{"time":34444.41000000005,"duration":74.07400000000052,"noteNumber":74,"velocity":50,"programNumber":48},{"time":34555.521000000044,"duration":74.07400000000052,"noteNumber":74,"velocity":52,"programNumber":48},{"time":34666.63200000004,"duration":74.07400000000052,"noteNumber":76,"velocity":53,"programNumber":48},{"time":34777.74300000004,"duration":74.07400000000052,"noteNumber":76,"velocity":53,"programNumber":48},{"time":34888.854000000036,"duration":74.07400000000052,"noteNumber":76,"velocity":55,"programNumber":48},{"time":34999.96500000003,"duration":74.07400000000052,"noteNumber":76,"velocity":56,"programNumber":48},{"time":35111.07600000003,"duration":74.07400000000052,"noteNumber":78,"velocity":56,"programNumber":48},{"time":35222.18700000003,"duration":74.07400000000052,"noteNumber":78,"velocity":58,"programNumber":48},{"time":35333.298000000024,"duration":74.07400000000052,"noteNumber":78,"velocity":58,"programNumber":48},{"time":35444.40900000002,"duration":74.07400000000052,"noteNumber":78,"velocity":59,"programNumber":48},{"time":35555.52000000002,"duration":74.07400000000052,"noteNumber":79,"velocity":61,"programNumber":48},{"time":35666.631000000016,"duration":74.07400000000052,"noteNumber":79,"velocity":61,"programNumber":48},{"time":35777.74200000001,"duration":74.07400000000052,"noteNumber":79,"velocity":62,"programNumber":48},{"time":35888.85300000001,"duration":74.07400000000052,"noteNumber":79,"velocity":64,"programNumber":48},{"time":35999.96400000001,"duration":74.07400000000052,"noteNumber":81,"velocity":64,"programNumber":48},{"time":36111.075000000004,"duration":74.07400000000052,"noteNumber":81,"velocity":65,"programNumber":48},{"time":36222.186,"duration":74.07400000000052,"noteNumber":81,"velocity":67,"programNumber":48},{"time":36333.297,"duration":74.07400000000052,"noteNumber":81,"velocity":67,"programNumber":48},{"time":36444.407999999996,"duration":74.07400000000052,"noteNumber":83,"velocity":68,"programNumber":48},{"time":36555.51899999999,"duration":74.07400000000052,"noteNumber":83,"velocity":68,"programNumber":48},{"time":36666.62999999999,"duration":74.07400000000052,"noteNumber":83,"velocity":70,"programNumber":48},{"time":36777.74099999999,"duration":74.07400000000052,"noteNumber":83,"velocity":71,"programNumber":48},{"time":36888.851999999984,"duration":74.07400000000052,"noteNumber":85,"velocity":71,"programNumber":48},{"time":36999.96299999998,"duration":74.07400000000052,"noteNumber":85,"velocity":73,"programNumber":48},{"time":37111.07399999998,"duration":74.07400000000052,"noteNumber":85,"velocity":74,"programNumber":48},{"time":37222.184999999976,"duration":74.07400000000052,"noteNumber":85,"velocity":74,"programNumber":48},{"time":37333.29599999997,"duration":666.6659999999974,"noteNumber":86,"velocity":85,"programNumber":48},{"time":37999.96199999997,"duration":222.22200000000157,"noteNumber":81,"velocity":85,"programNumber":48},{"time":38222.18399999997,"duration":333.3329999999987,"noteNumber":85,"velocity":94,"programNumber":48},{"time":38555.51699999997,"duration":111.11099999999715,"noteNumber":81,"velocity":85,"programNumber":48},{"time":38666.62799999997,"duration":333.3329999999987,"noteNumber":85,"velocity":85,"programNumber":48},{"time":38999.96099999997,"duration":111.11099999999715,"noteNumber":81,"velocity":85,"programNumber":48},{"time":39111.071999999964,"duration":666.6659999999974,"noteNumber":86,"velocity":85,"programNumber":48},{"time":39777.73799999996,"duration":222.22200000000157,"noteNumber":81,"velocity":85,"programNumber":48},{"time":39999.95999999996,"duration":333.3329999999987,"noteNumber":85,"velocity":85,"programNumber":48},{"time":40333.29299999996,"duration":111.11099999999715,"noteNumber":81,"velocity":85,"programNumber":48},{"time":40444.40399999996,"duration":333.3329999999987,"noteNumber":85,"velocity":85,"programNumber":48},{"time":40777.73699999996,"duration":111.11099999999715,"noteNumber":81,"velocity":85,"programNumber":48},{"time":40888.847999999954,"duration":111.11099999999715,"noteNumber":86,"velocity":85,"programNumber":48},{"time":41111.06999999995,"duration":333.3329999999987,"noteNumber":86,"velocity":85,"programNumber":48},{"time":41111.06999999995,"duration":333.3329999999987,"noteNumber":78,"velocity":85,"programNumber":48},{"time":41555.513999999945,"duration":333.3329999999987,"noteNumber":86,"velocity":85,"programNumber":48},{"time":41555.513999999945,"duration":333.3329999999987,"noteNumber":78,"velocity":85,"programNumber":48},{"time":41999.95799999994,"duration":333.3329999999987,"noteNumber":86,"velocity":85,"programNumber":48},{"time":41999.95799999994,"duration":333.3329999999987,"noteNumber":78,"velocity":85,"programNumber":48},{"time":42444.40199999994,"duration":222.22200000000157,"noteNumber":78,"velocity":85,"programNumber":48},{"time":42666.62399999994,"duration":111.11099999999715,"noteNumber":76,"velocity":85,"programNumber":48},{"time":42444.40199999994,"duration":333.3329999999987,"noteNumber":86,"velocity":85,"programNumber":48},{"time":42888.84599999993,"duration":333.3329999999987,"noteNumber":86,"velocity":85,"programNumber":48},{"time":42888.84599999993,"duration":333.3329999999987,"noteNumber":76,"velocity":85,"programNumber":48},{"time":43333.28999999993,"duration":333.3329999999987,"noteNumber":86,"velocity":85,"programNumber":48},{"time":43333.28999999993,"duration":333.3329999999987,"noteNumber":76,"velocity":85,"programNumber":48},{"time":43777.733999999924,"duration":333.3329999999987,"noteNumber":86,"velocity":85,"programNumber":48},{"time":43777.733999999924,"duration":333.3329999999987,"noteNumber":76,"velocity":85,"programNumber":48},{"time":44222.17799999992,"duration":222.22200000000157,"noteNumber":86,"velocity":85,"programNumber":48},{"time":44222.17799999992,"duration":222.22200000000157,"noteNumber":76,"velocity":85,"programNumber":48},{"time":44444.39999999992,"duration":166.66649999999936,"noteNumber":85,"velocity":92,"programNumber":48},{"time":44444.39999999992,"duration":166.66649999999936,"noteNumber":76,"velocity":92,"programNumber":48},{"time":44666.62199999992,"duration":166.66649999999936,"noteNumber":81,"velocity":85,"programNumber":48},{"time":44888.843999999925,"duration":166.66649999999936,"noteNumber":86,"velocity":85,"programNumber":48},{"time":45111.065999999926,"duration":166.66649999999936,"noteNumber":81,"velocity":85,"programNumber":48},{"time":45333.28799999993,"duration":166.66649999999936,"noteNumber":85,"velocity":85,"programNumber":48},{"time":45555.50999999993,"duration":166.66649999999936,"noteNumber":81,"velocity":85,"programNumber":48},{"time":45777.73199999993,"duration":166.66649999999936,"noteNumber":86,"velocity":85,"programNumber":48},{"time":45999.95399999993,"duration":166.66649999999936,"noteNumber":81,"velocity":85,"programNumber":48},{"time":46222.175999999934,"duration":166.66649999999936,"noteNumber":85,"velocity":94,"programNumber":48},{"time":46444.397999999936,"duration":166.66649999999936,"noteNumber":69,"velocity":85,"programNumber":48},{"time":46666.61999999994,"duration":166.66649999999936,"noteNumber":69,"velocity":85,"programNumber":48},{"time":46888.84199999994,"duration":166.66649999999936,"noteNumber":69,"velocity":85,"programNumber":48},{"time":47111.06399999994,"duration":444.44400000000314,"noteNumber":69,"velocity":85,"programNumber":48},{"time":47999.95199999994,"duration":666.6659999999902,"noteNumber":81,"velocity":55,"programNumber":48},{"time":48666.61799999993,"duration":74.07400000000052,"noteNumber":79,"velocity":55,"programNumber":48},{"time":48740.69199999993,"duration":74.07400000000052,"noteNumber":78,"velocity":55,"programNumber":48},{"time":48814.76599999993,"duration":74.07400000000052,"noteNumber":76,"velocity":55,"programNumber":48},{"time":48888.83999999993,"duration":222.22200000000157,"noteNumber":74,"velocity":55,"programNumber":48},{"time":49333.283999999934,"duration":222.22200000000157,"noteNumber":83,"velocity":55,"programNumber":48},{"time":49777.72799999994,"duration":222.22200000000157,"noteNumber":79,"velocity":55,"programNumber":48},{"time":50222.17199999994,"duration":222.22200000000157,"noteNumber":76,"velocity":55,"programNumber":48},{"time":50666.61599999994,"duration":222.22200000000157,"noteNumber":81,"velocity":55,"programNumber":48},{"time":51555.50399999994,"duration":666.6659999999974,"noteNumber":78,"velocity":55,"programNumber":48},{"time":52222.16999999994,"duration":74.07400000000052,"noteNumber":76,"velocity":55,"programNumber":48},{"time":52296.24399999994,"duration":74.07400000000052,"noteNumber":74,"velocity":55,"programNumber":48},{"time":52370.31799999994,"duration":74.07400000000052,"noteNumber":73,"velocity":55,"programNumber":48},{"time":52444.39199999994,"duration":222.22200000000157,"noteNumber":71,"velocity":55,"programNumber":48},{"time":52888.835999999945,"duration":222.22200000000157,"noteNumber":79,"velocity":55,"programNumber":48},{"time":53333.27999999995,"duration":888.887999999999,"noteNumber":78,"velocity":55,"programNumber":48},{"time":54222.16799999995,"duration":444.44400000000314,"noteNumber":76,"velocity":49,"programNumber":48},{"time":55333.27799999995,"duration":111.11099999999715,"noteNumber":81,"velocity":55,"programNumber":48},{"time":55555.49999999994,"duration":111.11099999999715,"noteNumber":81,"velocity":55,"programNumber":48},{"time":55777.721999999936,"duration":111.11099999999715,"noteNumber":81,"velocity":55,"programNumber":48},{"time":55999.94399999993,"duration":111.11099999999715,"noteNumber":81,"velocity":55,"programNumber":48},{"time":56222.165999999925,"duration":111.11099999999715,"noteNumber":81,"velocity":55,"programNumber":48},{"time":56444.38799999992,"duration":111.11099999999715,"noteNumber":81,"velocity":55,"programNumber":48},{"time":56666.60999999991,"duration":111.11099999999715,"noteNumber":81,"velocity":55,"programNumber":48},{"time":56888.83199999991,"duration":111.11099999999715,"noteNumber":81,"velocity":55,"programNumber":48},{"time":57111.0539999999,"duration":111.11099999999715,"noteNumber":81,"velocity":55,"programNumber":48},{"time":57333.275999999896,"duration":111.11099999999715,"noteNumber":81,"velocity":55,"programNumber":48},{"time":57555.49799999989,"duration":111.11099999999715,"noteNumber":81,"velocity":55,"programNumber":48},{"time":57777.719999999885,"duration":111.11099999999715,"noteNumber":81,"velocity":55,"programNumber":48},{"time":57999.94199999988,"duration":111.11099999999715,"noteNumber":81,"velocity":55,"programNumber":48},{"time":58222.16399999987,"duration":111.11099999999715,"noteNumber":83,"velocity":55,"programNumber":48},{"time":58444.38599999987,"duration":111.11099999999715,"noteNumber":85,"velocity":55,"programNumber":48},{"time":58666.60799999986,"duration":222.22200000000157,"noteNumber":85,"velocity":55,"programNumber":48},{"time":58888.82999999986,"duration":222.22200000000157,"noteNumber":86,"velocity":55,"programNumber":48},{"time":59333.27399999987,"duration":111.11099999999715,"noteNumber":83,"velocity":55,"programNumber":48},{"time":59555.49599999986,"duration":222.22200000000157,"noteNumber":83,"velocity":55,"programNumber":48},{"time":59777.71799999986,"duration":222.22200000000157,"noteNumber":81,"velocity":55,"programNumber":48},{"time":60222.161999999866,"duration":166.66649999999936,"noteNumber":73,"velocity":55,"programNumber":48},{"time":60444.38399999987,"duration":444.44400000000314,"noteNumber":74,"velocity":55,"programNumber":48},{"time":61111.04999999987,"duration":111.11099999999715,"noteNumber":81,"velocity":55,"programNumber":48},{"time":61333.271999999866,"duration":222.22200000000157,"noteNumber":86,"velocity":55,"programNumber":48},{"time":61555.49399999987,"duration":222.22200000000157,"noteNumber":85,"velocity":55,"programNumber":48},{"time":61777.71599999987,"duration":222.22200000000157,"noteNumber":83,"velocity":55,"programNumber":48},{"time":61999.93799999987,"duration":222.22200000000157,"noteNumber":81,"velocity":55,"programNumber":48},{"time":62222.15999999987,"duration":55.55550000000221,"noteNumber":83,"velocity":55,"programNumber":48},{"time":62277.715499999875,"duration":55.55550000000221,"noteNumber":85,"velocity":55,"programNumber":48},{"time":62333.27099999988,"duration":55.55550000000221,"noteNumber":83,"velocity":55,"programNumber":48},{"time":62388.82649999988,"duration":55.55550000000221,"noteNumber":85,"velocity":55,"programNumber":48},{"time":62444.38199999988,"duration":222.22200000000157,"noteNumber":81,"velocity":55,"programNumber":48},{"time":62888.825999999885,"duration":111.11099999999715,"noteNumber":81,"velocity":55,"programNumber":48},{"time":63111.04799999988,"duration":111.11099999999715,"noteNumber":81,"velocity":55,"programNumber":48},{"time":63333.26999999987,"duration":111.11099999999715,"noteNumber":81,"velocity":55,"programNumber":48},{"time":63555.49199999987,"duration":111.11099999999715,"noteNumber":81,"velocity":55,"programNumber":48},{"time":63777.71399999986,"duration":111.11099999999715,"noteNumber":81,"velocity":55,"programNumber":48},{"time":63999.935999999856,"duration":55.55550000000221,"noteNumber":83,"velocity":55,"programNumber":48},{"time":64055.49149999986,"duration":55.55550000000221,"noteNumber":85,"velocity":55,"programNumber":48},{"time":64111.04699999986,"duration":55.55550000000221,"noteNumber":83,"velocity":55,"programNumber":48},{"time":64166.60249999986,"duration":55.55550000000221,"noteNumber":85,"velocity":55,"programNumber":48},{"time":64222.157999999865,"duration":222.22200000000157,"noteNumber":81,"velocity":55,"programNumber":48},{"time":64666.60199999987,"duration":166.66649999999936,"noteNumber":81,"velocity":55,"programNumber":48},{"time":64888.82399999987,"duration":222.22200000000157,"noteNumber":86,"velocity":55,"programNumber":48},{"time":65111.04599999987,"duration":222.22200000000157,"noteNumber":85,"velocity":55,"programNumber":48},{"time":65333.26799999987,"duration":222.22200000000157,"noteNumber":83,"velocity":55,"programNumber":48},{"time":65555.48999999987,"duration":222.2219999999943,"noteNumber":81,"velocity":55,"programNumber":48},{"time":65777.71199999987,"duration":55.55550000000221,"noteNumber":83,"velocity":55,"programNumber":48},{"time":65833.26749999987,"duration":55.55550000000221,"noteNumber":85,"velocity":55,"programNumber":48},{"time":65888.82299999987,"duration":55.55550000000221,"noteNumber":83,"velocity":55,"programNumber":48},{"time":65944.37849999988,"duration":55.55550000000221,"noteNumber":85,"velocity":55,"programNumber":48},{"time":65999.93399999988,"duration":222.2219999999943,"noteNumber":81,"velocity":55,"programNumber":48},{"time":66444.37799999987,"duration":111.11100000000442,"noteNumber":81,"velocity":55,"programNumber":48},{"time":66666.59999999987,"duration":111.11100000000442,"noteNumber":81,"velocity":55,"programNumber":48},{"time":66888.82199999988,"duration":111.11100000000442,"noteNumber":81,"velocity":55,"programNumber":48},{"time":67111.04399999989,"duration":111.11100000000442,"noteNumber":81,"velocity":55,"programNumber":48},{"time":67333.2659999999,"duration":111.11100000000442,"noteNumber":81,"velocity":53,"programNumber":48},{"time":67555.48799999991,"duration":55.55550000000221,"noteNumber":83,"velocity":49,"programNumber":48},{"time":67611.04349999991,"duration":55.55550000000221,"noteNumber":85,"velocity":49,"programNumber":48},{"time":67666.59899999991,"duration":55.55550000000221,"noteNumber":83,"velocity":47,"programNumber":48},{"time":67722.15449999992,"duration":55.55550000000221,"noteNumber":85,"velocity":47,"programNumber":48},{"time":67777.70999999992,"duration":222.2219999999943,"noteNumber":81,"velocity":46,"programNumber":48},{"time":68444.37599999992,"duration":629.6290000000008,"noteNumber":83,"velocity":91,"programNumber":48},{"time":68444.37599999992,"duration":629.6290000000008,"noteNumber":71,"velocity":91,"programNumber":48},{"time":69111.04199999991,"duration":74.07399999999325,"noteNumber":81,"velocity":89,"programNumber":48},{"time":69185.1159999999,"duration":74.07399999999325,"noteNumber":79,"velocity":92,"programNumber":48},{"time":69259.1899999999,"duration":74.07399999999325,"noteNumber":78,"velocity":94,"programNumber":48},{"time":69333.2639999999,"duration":444.44400000000314,"noteNumber":79,"velocity":97,"programNumber":48},{"time":70222.1519999999,"duration":629.6290000000008,"noteNumber":69,"velocity":85,"programNumber":48},{"time":70222.1519999999,"duration":629.6290000000008,"noteNumber":81,"velocity":85,"programNumber":48},{"time":70888.8179999999,"duration":74.07399999999325,"noteNumber":79,"velocity":86,"programNumber":48},{"time":70962.89199999989,"duration":74.07399999999325,"noteNumber":78,"velocity":86,"programNumber":48},{"time":71036.96599999988,"duration":74.07399999999325,"noteNumber":76,"velocity":89,"programNumber":48},{"time":71111.03999999988,"duration":444.44400000000314,"noteNumber":78,"velocity":92,"programNumber":48},{"time":71999.92799999988,"duration":222.2219999999943,"noteNumber":83,"velocity":85,"programNumber":48},{"time":72222.14999999988,"duration":111.11100000000442,"noteNumber":85,"velocity":85,"programNumber":48},{"time":72333.26099999988,"duration":111.11100000000442,"noteNumber":86,"velocity":89,"programNumber":48},{"time":72444.37199999989,"duration":166.66650000000664,"noteNumber":85,"velocity":94,"programNumber":48},{"time":72666.5939999999,"duration":111.11100000000442,"noteNumber":83,"velocity":95,"programNumber":48},{"time":72888.8159999999,"duration":222.2219999999943,"noteNumber":83,"velocity":97,"programNumber":48},{"time":73111.0379999999,"duration":166.66650000000664,"noteNumber":81,"velocity":101,"programNumber":48},{"time":73333.25999999991,"duration":111.11100000000442,"noteNumber":78,"velocity":104,"programNumber":48},{"time":73555.48199999992,"duration":111.11100000000442,"noteNumber":81,"velocity":104,"programNumber":48},{"time":73777.70399999993,"duration":222.2219999999943,"noteNumber":81,"velocity":104,"programNumber":48},{"time":73999.92599999992,"duration":166.66650000000664,"noteNumber":79,"velocity":103,"programNumber":48},{"time":74222.14799999993,"duration":111.11100000000442,"noteNumber":78,"velocity":98,"programNumber":48},{"time":74444.36999999994,"duration":111.11100000000442,"noteNumber":76,"velocity":89,"programNumber":48},{"time":74666.59199999995,"duration":444.44400000000314,"noteNumber":74,"velocity":85,"programNumber":48},{"time":75333.25799999994,"duration":111.11100000000442,"noteNumber":81,"velocity":53,"programNumber":48},{"time":75555.47999999995,"duration":222.2219999999943,"noteNumber":86,"velocity":53,"programNumber":48},{"time":75777.70199999995,"duration":222.2219999999943,"noteNumber":85,"velocity":53,"programNumber":48},{"time":75999.92399999994,"duration":222.2219999999943,"noteNumber":83,"velocity":53,"programNumber":48},{"time":76222.14599999994,"duration":222.2219999999943,"noteNumber":81,"velocity":53,"programNumber":48},{"time":76444.36799999993,"duration":55.55550000000221,"noteNumber":83,"velocity":55,"programNumber":48},{"time":76499.92349999993,"duration":55.55550000000221,"noteNumber":85,"velocity":55,"programNumber":48},{"time":76555.47899999993,"duration":55.55550000000221,"noteNumber":83,"velocity":55,"programNumber":48},{"time":76611.03449999994,"duration":55.55550000000221,"noteNumber":85,"velocity":55,"programNumber":48},{"time":76666.58999999994,"duration":222.2219999999943,"noteNumber":81,"velocity":55,"programNumber":48},{"time":77111.03399999993,"duration":111.11100000000442,"noteNumber":81,"velocity":55,"programNumber":48},{"time":77333.25599999994,"duration":111.11100000000442,"noteNumber":81,"velocity":55,"programNumber":48},{"time":77555.47799999994,"duration":111.11100000000442,"noteNumber":81,"velocity":55,"programNumber":48},{"time":77777.69999999995,"duration":111.11100000000442,"noteNumber":81,"velocity":55,"programNumber":48},{"time":77999.92199999996,"duration":111.11100000000442,"noteNumber":81,"velocity":55,"programNumber":48},{"time":78222.14399999997,"duration":55.55550000000221,"noteNumber":83,"velocity":55,"programNumber":48},{"time":78277.69949999997,"duration":55.55550000000221,"noteNumber":85,"velocity":55,"programNumber":48},{"time":78333.25499999998,"duration":55.55550000000221,"noteNumber":83,"velocity":55,"programNumber":48},{"time":78388.81049999998,"duration":55.55550000000221,"noteNumber":85,"velocity":55,"programNumber":48},{"time":78444.36599999998,"duration":222.2219999999943,"noteNumber":81,"velocity":55,"programNumber":48},{"time":78888.80999999997,"duration":166.66650000000664,"noteNumber":81,"velocity":55,"programNumber":48},{"time":79111.03199999998,"duration":222.2219999999943,"noteNumber":86,"velocity":55,"programNumber":48},{"time":79333.25399999997,"duration":222.2219999999943,"noteNumber":85,"velocity":55,"programNumber":48},{"time":79555.47599999997,"duration":222.2219999999943,"noteNumber":83,"velocity":55,"programNumber":48},{"time":79777.69799999996,"duration":222.2219999999943,"noteNumber":81,"velocity":55,"programNumber":48},{"time":79999.91999999995,"duration":55.55550000000221,"noteNumber":83,"velocity":55,"programNumber":48},{"time":80055.47549999996,"duration":55.55550000000221,"noteNumber":85,"velocity":55,"programNumber":48},{"time":80111.03099999996,"duration":55.55550000000221,"noteNumber":83,"velocity":55,"programNumber":48},{"time":80166.58649999996,"duration":55.55550000000221,"noteNumber":85,"velocity":55,"programNumber":48},{"time":80222.14199999996,"duration":222.2219999999943,"noteNumber":81,"velocity":55,"programNumber":48},{"time":80666.58599999995,"duration":111.11100000000442,"noteNumber":81,"velocity":55,"programNumber":48},{"time":80888.80799999996,"duration":111.11100000000442,"noteNumber":81,"velocity":55,"programNumber":48},{"time":81111.02999999997,"duration":111.11100000000442,"noteNumber":81,"velocity":55,"programNumber":48},{"time":81333.25199999998,"duration":111.11100000000442,"noteNumber":81,"velocity":55,"programNumber":48},{"time":81555.47399999999,"duration":111.11100000000442,"noteNumber":81,"velocity":55,"programNumber":48},{"time":81777.696,"duration":55.55550000000221,"noteNumber":83,"velocity":59,"programNumber":48},{"time":81833.2515,"duration":55.55550000000221,"noteNumber":85,"velocity":59,"programNumber":48},{"time":81888.807,"duration":55.55550000000221,"noteNumber":83,"velocity":59,"programNumber":48},{"time":81944.3625,"duration":55.55550000000221,"noteNumber":85,"velocity":59,"programNumber":48},{"time":81999.918,"duration":222.2219999999943,"noteNumber":81,"velocity":59,"programNumber":48},{"time":82666.584,"duration":629.6290000000008,"noteNumber":83,"velocity":85,"programNumber":48},{"time":82666.584,"duration":629.6290000000008,"noteNumber":71,"velocity":85,"programNumber":48},{"time":83333.25,"duration":74.07399999999325,"noteNumber":81,"velocity":85,"programNumber":48},{"time":83407.324,"duration":74.07399999999325,"noteNumber":79,"velocity":85,"programNumber":48},{"time":83481.39799999999,"duration":74.07399999999325,"noteNumber":78,"velocity":85,"programNumber":48},{"time":83555.47199999998,"duration":444.44400000000314,"noteNumber":79,"velocity":85,"programNumber":48},{"time":84444.35999999999,"duration":629.6290000000008,"noteNumber":69,"velocity":85,"programNumber":48},{"time":84444.35999999999,"duration":629.6290000000008,"noteNumber":81,"velocity":85,"programNumber":48},{"time":85111.02599999998,"duration":74.07399999999325,"noteNumber":79,"velocity":85,"programNumber":48},{"time":85185.09999999998,"duration":74.07399999999325,"noteNumber":78,"velocity":85,"programNumber":48},{"time":85259.17399999997,"duration":74.07399999999325,"noteNumber":76,"velocity":85,"programNumber":48},{"time":85333.24799999996,"duration":444.44400000000314,"noteNumber":78,"velocity":85,"programNumber":48},{"time":86222.13599999997,"duration":222.2219999999943,"noteNumber":83,"velocity":80,"programNumber":48},{"time":86444.35799999996,"duration":111.11100000000442,"noteNumber":85,"velocity":82,"programNumber":48},{"time":86555.46899999997,"duration":111.11100000000442,"noteNumber":86,"velocity":83,"programNumber":48},{"time":86666.57999999997,"duration":166.66650000000664,"noteNumber":85,"velocity":83,"programNumber":48},{"time":86888.80199999998,"duration":111.11100000000442,"noteNumber":83,"velocity":85,"programNumber":48},{"time":87111.02399999999,"duration":222.2219999999943,"noteNumber":83,"velocity":86,"programNumber":48},{"time":87333.24599999998,"duration":166.66650000000664,"noteNumber":81,"velocity":88,"programNumber":48},{"time":87555.468,"duration":111.11100000000442,"noteNumber":78,"velocity":88,"programNumber":48},{"time":87777.69,"duration":111.11100000000442,"noteNumber":81,"velocity":88,"programNumber":48},{"time":87999.91200000001,"duration":222.2219999999943,"noteNumber":81,"velocity":88,"programNumber":48},{"time":88222.134,"duration":166.66650000000664,"noteNumber":79,"velocity":88,"programNumber":48},{"time":88444.35600000001,"duration":111.11100000000442,"noteNumber":78,"velocity":88,"programNumber":48},{"time":88666.57800000002,"duration":111.11100000000442,"noteNumber":76,"velocity":88,"programNumber":48},{"time":88888.80000000003,"duration":166.66650000000664,"noteNumber":74,"velocity":88,"programNumber":48},{"time":89111.02200000004,"duration":166.66650000000664,"noteNumber":69,"velocity":88,"programNumber":48},{"time":89333.24400000005,"duration":166.66650000000664,"noteNumber":71,"velocity":88,"programNumber":48},{"time":89555.46600000006,"duration":166.66650000000664,"noteNumber":73,"velocity":85,"programNumber":48},{"time":89777.68800000007,"duration":111.11100000000442,"noteNumber":74,"velocity":82,"programNumber":48},{"time":89999.91000000008,"duration":111.11100000000442,"noteNumber":74,"velocity":85,"programNumber":48},{"time":90222.13200000009,"duration":55.55550000000221,"noteNumber":76,"velocity":85,"programNumber":48},{"time":90277.68750000009,"duration":55.55550000000221,"noteNumber":78,"velocity":85,"programNumber":48},{"time":90333.24300000009,"duration":55.55550000000221,"noteNumber":76,"velocity":85,"programNumber":48},{"time":90388.79850000009,"duration":55.55550000000221,"noteNumber":78,"velocity":85,"programNumber":48},{"time":90444.3540000001,"duration":111.11100000000442,"noteNumber":74,"velocity":85,"programNumber":48},{"time":90555.4650000001,"duration":111.11100000000442,"noteNumber":76,"velocity":85,"programNumber":48},{"time":90666.5760000001,"duration":222.2219999999943,"noteNumber":78,"velocity":85,"programNumber":48},{"time":90888.7980000001,"duration":166.66650000000664,"noteNumber":73,"velocity":85,"programNumber":48},{"time":91111.0200000001,"duration":166.66650000000664,"noteNumber":74,"velocity":85,"programNumber":48},{"time":91333.24200000011,"duration":166.66650000000664,"noteNumber":76,"velocity":85,"programNumber":48},{"time":91555.46400000012,"duration":166.66650000000664,"noteNumber":78,"velocity":85,"programNumber":48},{"time":91777.68600000013,"duration":166.66650000000664,"noteNumber":78,"velocity":85,"programNumber":48},{"time":91999.90800000014,"duration":55.55550000000221,"noteNumber":79,"velocity":85,"programNumber":48},{"time":92055.46350000014,"duration":55.55550000000221,"noteNumber":81,"velocity":86,"programNumber":48},{"time":92111.01900000015,"duration":55.55550000000221,"noteNumber":79,"velocity":88,"programNumber":48},{"time":92166.57450000015,"duration":55.55550000000221,"noteNumber":81,"velocity":88,"programNumber":48},{"time":92222.13000000015,"duration":111.11100000000442,"noteNumber":78,"velocity":88,"programNumber":48},{"time":92333.24100000015,"duration":111.11100000000442,"noteNumber":79,"velocity":88,"programNumber":48},{"time":92444.35200000016,"duration":166.66650000000664,"noteNumber":81,"velocity":88,"programNumber":48},{"time":92666.57400000017,"duration":166.66650000000664,"noteNumber":81,"velocity":91,"programNumber":48},{"time":92888.79600000018,"duration":55.55550000000221,"noteNumber":82,"velocity":92,"programNumber":48},{"time":92944.35150000018,"duration":55.55550000000221,"noteNumber":83,"velocity":92,"programNumber":48},{"time":92999.90700000018,"duration":55.55550000000221,"noteNumber":82,"velocity":94,"programNumber":48},{"time":93055.46250000018,"duration":55.55550000000221,"noteNumber":83,"velocity":94,"programNumber":48},{"time":93111.01800000019,"duration":111.11100000000442,"noteNumber":80,"velocity":95,"programNumber":48},{"time":93222.12900000019,"duration":111.11100000000442,"noteNumber":82,"velocity":97,"programNumber":48},{"time":93333.2400000002,"duration":444.44400000000314,"noteNumber":83,"velocity":100,"programNumber":48},{"time":94222.1280000002,"duration":666.6659999999974,"noteNumber":71,"velocity":47,"programNumber":48},{"time":94888.7940000002,"duration":166.66650000000664,"noteNumber":76,"velocity":47,"programNumber":48},{"time":95111.0160000002,"duration":222.2219999999943,"noteNumber":74,"velocity":47,"programNumber":48},{"time":95333.2380000002,"duration":222.2219999999943,"noteNumber":73,"velocity":47,"programNumber":48},{"time":95555.4600000002,"duration":222.2219999999943,"noteNumber":71,"velocity":49,"programNumber":48},{"time":95777.68200000019,"duration":222.2219999999943,"noteNumber":69,"velocity":50,"programNumber":48},{"time":95999.90400000018,"duration":222.2219999999943,"noteNumber":74,"velocity":50,"programNumber":48},{"time":96444.34800000017,"duration":222.2219999999943,"noteNumber":78,"velocity":50,"programNumber":48},{"time":96888.79200000016,"duration":222.2219999999943,"noteNumber":74,"velocity":41,"programNumber":48},{"time":97777.68000000015,"duration":444.44400000000314,"noteNumber":71,"velocity":85,"programNumber":48},{"time":97777.68000000015,"duration":444.44400000000314,"noteNumber":79,"velocity":85,"programNumber":48},{"time":97777.68000000015,"duration":444.44400000000314,"noteNumber":62,"velocity":85,"programNumber":48},{"time":98444.34600000015,"duration":111.11100000000442,"noteNumber":74,"velocity":85,"programNumber":48},{"time":98666.56800000016,"duration":444.44400000000314,"noteNumber":79,"velocity":85,"programNumber":48},{"time":99333.23400000016,"duration":111.11100000000442,"noteNumber":74,"velocity":85,"programNumber":48},{"time":99555.45600000017,"duration":111.11100000000442,"noteNumber":79,"velocity":85,"programNumber":48},{"time":99777.67800000017,"duration":111.11100000000442,"noteNumber":74,"velocity":85,"programNumber":48},{"time":99999.90000000018,"duration":111.11100000000442,"noteNumber":79,"velocity":85,"programNumber":48},{"time":100222.12200000019,"duration":111.11100000000442,"noteNumber":83,"velocity":85,"programNumber":48},{"time":100444.3440000002,"duration":444.44400000000314,"noteNumber":86,"velocity":85,"programNumber":48},{"time":101333.23200000021,"duration":444.44400000000314,"noteNumber":84,"velocity":85,"programNumber":48},{"time":101999.8980000002,"duration":111.11100000000442,"noteNumber":81,"velocity":76,"programNumber":48},{"time":102222.12000000021,"duration":444.44400000000314,"noteNumber":84,"velocity":85,"programNumber":48},{"time":102888.78600000021,"duration":111.11100000000442,"noteNumber":81,"velocity":76,"programNumber":48},{"time":103111.00800000022,"duration":111.11100000000442,"noteNumber":84,"velocity":85,"programNumber":48},{"time":103333.23000000023,"duration":111.11100000000442,"noteNumber":81,"velocity":74,"programNumber":48},{"time":103555.45200000024,"duration":111.11100000000442,"noteNumber":78,"velocity":85,"programNumber":48},{"time":103777.67400000025,"duration":111.11100000000442,"noteNumber":81,"velocity":71,"programNumber":48},{"time":103999.89600000026,"duration":444.44400000000314,"noteNumber":74,"velocity":85,"programNumber":48},{"time":104888.78400000026,"duration":222.2219999999943,"noteNumber":71,"velocity":85,"programNumber":48},{"time":104888.78400000026,"duration":222.2219999999943,"noteNumber":79,"velocity":85,"programNumber":48},{"time":104888.78400000026,"duration":222.2219999999943,"noteNumber":62,"velocity":85,"programNumber":48},{"time":105333.22800000025,"duration":666.6659999999974,"noteNumber":79,"velocity":85,"programNumber":48},{"time":105999.89400000025,"duration":222.2219999999943,"noteNumber":83,"velocity":85,"programNumber":48},{"time":106222.11600000024,"duration":111.11100000000442,"noteNumber":81,"velocity":85,"programNumber":48},{"time":106444.33800000025,"duration":111.11100000000442,"noteNumber":79,"velocity":85,"programNumber":48},{"time":106666.56000000026,"duration":55.55550000000221,"noteNumber":79,"velocity":85,"programNumber":48},{"time":106722.11550000026,"duration":55.55550000000221,"noteNumber":81,"velocity":85,"programNumber":48},{"time":106777.67100000026,"duration":55.55550000000221,"noteNumber":79,"velocity":85,"programNumber":48},{"time":106833.22650000027,"duration":55.55550000000221,"noteNumber":81,"velocity":85,"programNumber":48},{"time":106888.78200000027,"duration":185.18499999999767,"noteNumber":78,"velocity":85,"programNumber":48},{"time":107111.00400000026,"duration":666.6659999999974,"noteNumber":78,"velocity":85,"programNumber":48},{"time":107777.67000000026,"duration":222.2219999999943,"noteNumber":81,"velocity":85,"programNumber":48},{"time":107999.89200000025,"duration":111.11100000000442,"noteNumber":84,"velocity":85,"programNumber":48},{"time":108222.11400000026,"duration":111.11100000000442,"noteNumber":78,"velocity":85,"programNumber":48},{"time":108444.33600000027,"duration":222.2219999999943,"noteNumber":81,"velocity":85,"programNumber":48},{"time":108666.55800000027,"duration":111.11100000000442,"noteNumber":79,"velocity":85,"programNumber":48},{"time":108888.78000000028,"duration":666.6659999999974,"noteNumber":79,"velocity":85,"programNumber":48},{"time":109555.44600000027,"duration":222.2219999999943,"noteNumber":83,"velocity":85,"programNumber":48},{"time":109777.66800000027,"duration":111.11100000000442,"noteNumber":81,"velocity":85,"programNumber":48},{"time":109999.89000000028,"duration":111.11100000000442,"noteNumber":79,"velocity":85,"programNumber":48},{"time":110222.11200000028,"duration":55.55550000000221,"noteNumber":79,"velocity":85,"programNumber":48},{"time":110277.66750000029,"duration":55.55550000000221,"noteNumber":81,"velocity":85,"programNumber":48},{"time":110333.22300000029,"duration":55.55550000000221,"noteNumber":79,"velocity":85,"programNumber":48},{"time":110388.77850000029,"duration":55.55550000000221,"noteNumber":81,"velocity":85,"programNumber":48},{"time":110444.3340000003,"duration":185.18499999999767,"noteNumber":78,"velocity":85,"programNumber":48},{"time":110666.55600000029,"duration":666.6659999999974,"noteNumber":78,"velocity":85,"programNumber":48},{"time":111333.22200000029,"duration":222.2219999999943,"noteNumber":81,"velocity":85,"programNumber":48},{"time":111555.44400000028,"duration":111.11100000000442,"noteNumber":84,"velocity":85,"programNumber":48},{"time":111777.66600000029,"duration":111.11100000000442,"noteNumber":78,"velocity":85,"programNumber":48},{"time":111999.8880000003,"duration":111.11100000000442,"noteNumber":79,"velocity":85,"programNumber":48},{"time":112222.1100000003,"duration":111.11100000000442,"noteNumber":79,"velocity":85,"programNumber":48},{"time":112444.33200000032,"duration":111.11100000000442,"noteNumber":79,"velocity":85,"programNumber":48},{"time":112555.44300000032,"duration":111.11100000000442,"noteNumber":78,"velocity":85,"programNumber":48},{"time":112666.55400000032,"duration":111.11100000000442,"noteNumber":76,"velocity":85,"programNumber":48},{"time":112777.66500000033,"duration":111.11100000000442,"noteNumber":78,"velocity":85,"programNumber":48},{"time":112888.77600000033,"duration":111.11100000000442,"noteNumber":79,"velocity":85,"programNumber":48},{"time":113110.99800000034,"duration":111.11100000000442,"noteNumber":79,"velocity":85,"programNumber":48},{"time":113333.22000000035,"duration":111.11100000000442,"noteNumber":83,"velocity":85,"programNumber":48},{"time":113444.33100000035,"duration":111.11100000000442,"noteNumber":81,"velocity":85,"programNumber":48},{"time":113555.44200000036,"duration":111.11100000000442,"noteNumber":79,"velocity":85,"programNumber":48},{"time":113666.55300000036,"duration":111.11100000000442,"noteNumber":81,"velocity":85,"programNumber":48},{"time":113777.66400000037,"duration":111.11100000000442,"noteNumber":83,"velocity":85,"programNumber":48},{"time":113999.88600000038,"duration":111.11100000000442,"noteNumber":83,"velocity":85,"programNumber":48},{"time":114222.10800000039,"duration":111.11100000000442,"noteNumber":86,"velocity":85,"programNumber":48},{"time":114333.21900000039,"duration":111.11100000000442,"noteNumber":84,"velocity":85,"programNumber":48},{"time":114444.3300000004,"duration":111.11100000000442,"noteNumber":83,"velocity":85,"programNumber":48},{"time":114555.4410000004,"duration":111.11100000000442,"noteNumber":84,"velocity":85,"programNumber":48},{"time":114666.5520000004,"duration":444.44400000000314,"noteNumber":86,"velocity":85,"programNumber":48},{"time":115555.44000000041,"duration":888.8880000000063,"noteNumber":74,"velocity":52,"programNumber":48},{"time":116444.32800000042,"duration":888.8880000000063,"noteNumber":76,"velocity":40,"programNumber":48},{"time":117333.21600000042,"duration":111.11100000000442,"noteNumber":74,"velocity":44,"programNumber":48},{"time":117444.32700000043,"duration":296.2960000000021,"noteNumber":72,"velocity":46,"programNumber":48},{"time":117777.66000000043,"duration":444.44400000000314,"noteNumber":72,"velocity":46,"programNumber":48},{"time":118222.10400000043,"duration":111.11100000000442,"noteNumber":72,"velocity":47,"programNumber":48},{"time":118333.21500000043,"duration":296.2960000000021,"noteNumber":71,"velocity":47,"programNumber":48},{"time":118666.54800000043,"duration":444.44400000000314,"noteNumber":71,"velocity":47,"programNumber":48},{"time":119110.99200000043,"duration":111.11100000000442,"noteNumber":71,"velocity":47,"programNumber":48},{"time":119222.10300000044,"duration":296.2960000000021,"noteNumber":69,"velocity":47,"programNumber":48},{"time":119555.43600000044,"duration":444.44400000000314,"noteNumber":69,"velocity":47,"programNumber":48},{"time":119999.88000000044,"duration":222.2219999999943,"noteNumber":67,"velocity":47,"programNumber":48},{"time":120222.10200000044,"duration":111.11100000000442,"noteNumber":66,"velocity":47,"programNumber":48},{"time":120444.32400000044,"duration":111.11100000000442,"noteNumber":64,"velocity":47,"programNumber":48},{"time":120666.54600000045,"duration":111.11100000000442,"noteNumber":66,"velocity":47,"programNumber":48},{"time":120888.76800000046,"duration":222.2219999999943,"noteNumber":67,"velocity":47,"programNumber":48},{"time":121333.21200000045,"duration":222.2219999999943,"noteNumber":69,"velocity":47,"programNumber":48},{"time":121777.65600000044,"duration":222.2219999999943,"noteNumber":71,"velocity":47,"programNumber":48},{"time":122666.54400000043,"duration":888.8880000000063,"noteNumber":74,"velocity":54,"programNumber":48},{"time":123555.43200000044,"duration":888.8880000000063,"noteNumber":76,"velocity":59,"programNumber":48},{"time":124444.32000000044,"duration":222.2219999999943,"noteNumber":74,"velocity":47,"programNumber":48},{"time":124666.54200000044,"duration":111.11100000000442,"noteNumber":72,"velocity":47,"programNumber":48},{"time":124888.76400000045,"duration":111.11100000000442,"noteNumber":72,"velocity":47,"programNumber":48},{"time":125110.98600000046,"duration":111.11100000000442,"noteNumber":72,"velocity":47,"programNumber":48},{"time":125333.20800000046,"duration":222.2219999999943,"noteNumber":72,"velocity":47,"programNumber":48},{"time":125555.43000000046,"duration":111.11100000000442,"noteNumber":71,"velocity":47,"programNumber":48},{"time":125777.65200000047,"duration":111.11100000000442,"noteNumber":71,"velocity":47,"programNumber":48},{"time":125999.87400000048,"duration":111.11100000000442,"noteNumber":71,"velocity":47,"programNumber":48},{"time":126222.09600000049,"duration":222.2219999999943,"noteNumber":71,"velocity":47,"programNumber":48},{"time":126444.31800000048,"duration":111.11100000000442,"noteNumber":69,"velocity":47,"programNumber":48},{"time":126666.54000000049,"duration":166.66650000000664,"noteNumber":69,"velocity":47,"programNumber":48},{"time":126888.7620000005,"duration":166.66650000000664,"noteNumber":69,"velocity":47,"programNumber":48},{"time":127110.9840000005,"duration":222.2219999999943,"noteNumber":67,"velocity":47,"programNumber":48},{"time":127333.2060000005,"duration":222.2219999999943,"noteNumber":66,"velocity":47,"programNumber":48},{"time":127555.4280000005,"duration":222.2219999999943,"noteNumber":64,"velocity":47,"programNumber":48},{"time":127777.65000000049,"duration":222.2219999999943,"noteNumber":66,"velocity":47,"programNumber":48},{"time":127999.87200000048,"duration":1111.1100000000006,"noteNumber":67,"velocity":95,"programNumber":48},{"time":127999.87200000048,"duration":1111.1100000000006,"noteNumber":55,"velocity":95,"programNumber":48},{"time":129110.98200000048,"duration":55.55550000000221,"noteNumber":67,"velocity":61,"programNumber":48},{"time":129166.53750000049,"duration":55.55550000000221,"noteNumber":69,"velocity":61,"programNumber":48},{"time":129222.09300000049,"duration":55.55550000000221,"noteNumber":66,"velocity":61,"programNumber":48},{"time":129277.64850000049,"duration":55.55550000000221,"noteNumber":67,"velocity":61,"programNumber":48},{"time":129333.20400000049,"duration":222.2219999999943,"noteNumber":69,"velocity":61,"programNumber":48},{"time":129555.42600000049,"duration":222.2219999999943,"noteNumber":66,"velocity":61,"programNumber":48},{"time":129777.64800000048,"duration":1111.1100000000006,"noteNumber":71,"velocity":85,"programNumber":48},{"time":130888.75800000048,"duration":55.55550000000221,"noteNumber":71,"velocity":61,"programNumber":48},{"time":130944.31350000048,"duration":55.55550000000221,"noteNumber":72,"velocity":61,"programNumber":48},{"time":130999.86900000049,"duration":55.55550000000221,"noteNumber":69,"velocity":61,"programNumber":48},{"time":131055.42450000049,"duration":55.55549999998766,"noteNumber":71,"velocity":61,"programNumber":48},{"time":131110.98000000048,"duration":222.22200000000885,"noteNumber":72,"velocity":61,"programNumber":48},{"time":131333.20200000048,"duration":222.22200000000885,"noteNumber":69,"velocity":61,"programNumber":48},{"time":131555.4240000005,"duration":74.07399999999325,"noteNumber":74,"velocity":46,"programNumber":48},{"time":131666.5350000005,"duration":74.07399999999325,"noteNumber":74,"velocity":46,"programNumber":48},{"time":131777.6460000005,"duration":74.07399999999325,"noteNumber":74,"velocity":47,"programNumber":48},{"time":131888.7570000005,"duration":74.07399999999325,"noteNumber":74,"velocity":47,"programNumber":48},{"time":131999.8680000005,"duration":74.07399999999325,"noteNumber":74,"velocity":49,"programNumber":48},{"time":132110.97900000052,"duration":74.07399999999325,"noteNumber":74,"velocity":50,"programNumber":48},{"time":132222.09000000052,"duration":74.07399999999325,"noteNumber":74,"velocity":50,"programNumber":48},{"time":132333.20100000052,"duration":74.07399999999325,"noteNumber":74,"velocity":52,"programNumber":48},{"time":132444.31200000053,"duration":74.07399999999325,"noteNumber":76,"velocity":53,"programNumber":48},{"time":132555.42300000053,"duration":74.07399999999325,"noteNumber":76,"velocity":53,"programNumber":48},{"time":132666.53400000054,"duration":74.07399999999325,"noteNumber":76,"velocity":55,"programNumber":48},{"time":132777.64500000054,"duration":74.07399999999325,"noteNumber":76,"velocity":56,"programNumber":48},{"time":132888.75600000055,"duration":74.07399999999325,"noteNumber":78,"velocity":56,"programNumber":48},{"time":132999.86700000055,"duration":74.07399999999325,"noteNumber":78,"velocity":58,"programNumber":48},{"time":133110.97800000056,"duration":74.07399999999325,"noteNumber":78,"velocity":58,"programNumber":48},{"time":133222.08900000056,"duration":74.07399999999325,"noteNumber":78,"velocity":59,"programNumber":48},{"time":133333.20000000056,"duration":74.07399999999325,"noteNumber":79,"velocity":61,"programNumber":48},{"time":133444.31100000057,"duration":74.07399999999325,"noteNumber":79,"velocity":61,"programNumber":48},{"time":133555.42200000057,"duration":74.07399999999325,"noteNumber":79,"velocity":62,"programNumber":48},{"time":133666.53300000058,"duration":74.07399999999325,"noteNumber":79,"velocity":64,"programNumber":48},{"time":133777.64400000058,"duration":74.07399999999325,"noteNumber":81,"velocity":64,"programNumber":48},{"time":133888.7550000006,"duration":74.07399999999325,"noteNumber":81,"velocity":65,"programNumber":48},{"time":133999.8660000006,"duration":74.07399999999325,"noteNumber":81,"velocity":67,"programNumber":48},{"time":134110.9770000006,"duration":74.07399999999325,"noteNumber":81,"velocity":67,"programNumber":48},{"time":134222.0880000006,"duration":74.07399999999325,"noteNumber":83,"velocity":68,"programNumber":48},{"time":134333.1990000006,"duration":74.07399999999325,"noteNumber":83,"velocity":68,"programNumber":48},{"time":134444.3100000006,"duration":74.07399999999325,"noteNumber":83,"velocity":70,"programNumber":48},{"time":134555.4210000006,"duration":74.07399999999325,"noteNumber":83,"velocity":71,"programNumber":48},{"time":134666.53200000062,"duration":74.07399999999325,"noteNumber":85,"velocity":71,"programNumber":48},{"time":134777.64300000062,"duration":74.07399999999325,"noteNumber":85,"velocity":73,"programNumber":48},{"time":134888.75400000063,"duration":74.07399999999325,"noteNumber":85,"velocity":74,"programNumber":48},{"time":134999.86500000063,"duration":74.07399999999325,"noteNumber":85,"velocity":74,"programNumber":48},{"time":135110.97600000064,"duration":666.6659999999974,"noteNumber":86,"velocity":92,"programNumber":48},{"time":135777.64200000063,"duration":222.22200000000885,"noteNumber":81,"velocity":85,"programNumber":48},{"time":135999.86400000064,"duration":333.33300000001327,"noteNumber":85,"velocity":85,"programNumber":48},{"time":136333.19700000065,"duration":111.11100000000442,"noteNumber":81,"velocity":85,"programNumber":48},{"time":136444.30800000066,"duration":333.33300000001327,"noteNumber":85,"velocity":85,"programNumber":48},{"time":136777.64100000067,"duration":111.11100000000442,"noteNumber":81,"velocity":85,"programNumber":48},{"time":136888.75200000068,"duration":666.6659999999974,"noteNumber":86,"velocity":98,"programNumber":48},{"time":137555.41800000067,"duration":222.22200000000885,"noteNumber":81,"velocity":85,"programNumber":48},{"time":137777.64000000068,"duration":333.33300000001327,"noteNumber":85,"velocity":85,"programNumber":48},{"time":138110.9730000007,"duration":111.11100000000442,"noteNumber":81,"velocity":85,"programNumber":48},{"time":138222.0840000007,"duration":333.33300000001327,"noteNumber":85,"velocity":85,"programNumber":48},{"time":138555.4170000007,"duration":111.11100000000442,"noteNumber":81,"velocity":85,"programNumber":48},{"time":138666.52800000072,"duration":111.11100000000442,"noteNumber":86,"velocity":85,"programNumber":48},{"time":138888.75000000073,"duration":333.33300000001327,"noteNumber":86,"velocity":98,"programNumber":48},{"time":138888.75000000073,"duration":333.33300000001327,"noteNumber":78,"velocity":98,"programNumber":48},{"time":139333.19400000075,"duration":333.33300000001327,"noteNumber":86,"velocity":85,"programNumber":48},{"time":139333.19400000075,"duration":333.33300000001327,"noteNumber":78,"velocity":85,"programNumber":48},{"time":139777.63800000076,"duration":333.33300000001327,"noteNumber":86,"velocity":85,"programNumber":48},{"time":139777.63800000076,"duration":333.33300000001327,"noteNumber":78,"velocity":85,"programNumber":48},{"time":140222.08200000078,"duration":222.22200000000885,"noteNumber":78,"velocity":85,"programNumber":48},{"time":140444.3040000008,"duration":111.11100000000442,"noteNumber":76,"velocity":85,"programNumber":48},{"time":140222.08200000078,"duration":333.33300000001327,"noteNumber":86,"velocity":85,"programNumber":48},{"time":140666.5260000008,"duration":333.33300000001327,"noteNumber":86,"velocity":85,"programNumber":48},{"time":140666.5260000008,"duration":333.33300000001327,"noteNumber":76,"velocity":85,"programNumber":48},{"time":141110.97000000082,"duration":333.33300000001327,"noteNumber":86,"velocity":85,"programNumber":48},{"time":141110.97000000082,"duration":333.33300000001327,"noteNumber":76,"velocity":85,"programNumber":48},{"time":141555.41400000083,"duration":333.33300000001327,"noteNumber":86,"velocity":85,"programNumber":48},{"time":141555.41400000083,"duration":333.33300000001327,"noteNumber":76,"velocity":85,"programNumber":48},{"time":141999.85800000085,"duration":222.22200000000885,"noteNumber":86,"velocity":85,"programNumber":48},{"time":141999.85800000085,"duration":222.22200000000885,"noteNumber":76,"velocity":85,"programNumber":48},{"time":142222.08000000086,"duration":166.66649999999208,"noteNumber":85,"velocity":97,"programNumber":48},{"time":142222.08000000086,"duration":166.66649999999208,"noteNumber":76,"velocity":97,"programNumber":48},{"time":142444.30200000084,"duration":166.66649999999208,"noteNumber":81,"velocity":85,"programNumber":48},{"time":142666.52400000082,"duration":166.66649999999208,"noteNumber":86,"velocity":85,"programNumber":48},{"time":142888.7460000008,"duration":166.66649999999208,"noteNumber":81,"velocity":85,"programNumber":48},{"time":143110.96800000078,"duration":166.66649999999208,"noteNumber":85,"velocity":85,"programNumber":48},{"time":143333.19000000076,"duration":166.66649999999208,"noteNumber":81,"velocity":85,"programNumber":48},{"time":143555.41200000074,"duration":166.66649999999208,"noteNumber":86,"velocity":85,"programNumber":48},{"time":143777.63400000072,"duration":166.66649999999208,"noteNumber":81,"velocity":85,"programNumber":48},{"time":143999.8560000007,"duration":166.66649999999208,"noteNumber":85,"velocity":97,"programNumber":48},{"time":144222.07800000068,"duration":166.66649999999208,"noteNumber":69,"velocity":85,"programNumber":48},{"time":144444.30000000066,"duration":166.66649999999208,"noteNumber":69,"velocity":85,"programNumber":48},{"time":144666.52200000064,"duration":166.66649999999208,"noteNumber":69,"velocity":85,"programNumber":48},{"time":144888.74400000062,"duration":444.4439999999886,"noteNumber":69,"velocity":85,"programNumber":48},{"time":145777.6320000006,"duration":666.6659999999974,"noteNumber":81,"velocity":55,"programNumber":48},{"time":146444.2980000006,"duration":74.07399999999325,"noteNumber":79,"velocity":55,"programNumber":48},{"time":146518.37200000059,"duration":74.07399999999325,"noteNumber":78,"velocity":55,"programNumber":48},{"time":146592.44600000058,"duration":74.07399999999325,"noteNumber":76,"velocity":55,"programNumber":48},{"time":146666.52000000057,"duration":222.22200000000885,"noteNumber":74,"velocity":55,"programNumber":48},{"time":147110.9640000006,"duration":222.22200000000885,"noteNumber":83,"velocity":55,"programNumber":48},{"time":147555.4080000006,"duration":222.22200000000885,"noteNumber":79,"velocity":55,"programNumber":48},{"time":147999.85200000062,"duration":222.22200000000885,"noteNumber":76,"velocity":55,"programNumber":48},{"time":148444.29600000064,"duration":222.22200000000885,"noteNumber":81,"velocity":55,"programNumber":48},{"time":149333.18400000065,"duration":666.6659999999974,"noteNumber":78,"velocity":55,"programNumber":48},{"time":149999.85000000065,"duration":74.07399999999325,"noteNumber":76,"velocity":55,"programNumber":48},{"time":150073.92400000064,"duration":74.07399999999325,"noteNumber":74,"velocity":55,"programNumber":48},{"time":150147.99800000063,"duration":74.07399999999325,"noteNumber":73,"velocity":55,"programNumber":48},{"time":150222.07200000063,"duration":222.22200000000885,"noteNumber":71,"velocity":55,"programNumber":48},{"time":150666.51600000064,"duration":222.22200000000885,"noteNumber":79,"velocity":55,"programNumber":48},{"time":151110.96000000066,"duration":888.8880000000063,"noteNumber":78,"velocity":55,"programNumber":48},{"time":151999.84800000067,"duration":444.4439999999886,"noteNumber":76,"velocity":43,"programNumber":48},{"time":153110.95800000065,"duration":111.11100000000442,"noteNumber":81,"velocity":55,"programNumber":48},{"time":153333.18000000066,"duration":111.11100000000442,"noteNumber":81,"velocity":55,"programNumber":48},{"time":153555.40200000067,"duration":111.11100000000442,"noteNumber":81,"velocity":55,"programNumber":48},{"time":153777.62400000068,"duration":111.11100000000442,"noteNumber":81,"velocity":55,"programNumber":48},{"time":153999.8460000007,"duration":111.11100000000442,"noteNumber":81,"velocity":55,"programNumber":48},{"time":154222.0680000007,"duration":111.11100000000442,"noteNumber":81,"velocity":55,"programNumber":48},{"time":154444.2900000007,"duration":111.11100000000442,"noteNumber":81,"velocity":55,"programNumber":48},{"time":154666.51200000072,"duration":111.11100000000442,"noteNumber":81,"velocity":55,"programNumber":48},{"time":154888.73400000072,"duration":111.11100000000442,"noteNumber":81,"velocity":55,"programNumber":48},{"time":155110.95600000073,"duration":111.11100000000442,"noteNumber":81,"velocity":55,"programNumber":48},{"time":155333.17800000074,"duration":111.11100000000442,"noteNumber":81,"velocity":55,"programNumber":48},{"time":155555.40000000075,"duration":111.11100000000442,"noteNumber":81,"velocity":55,"programNumber":48},{"time":155777.62200000076,"duration":111.11100000000442,"noteNumber":81,"velocity":55,"programNumber":48},{"time":155999.84400000077,"duration":111.11100000000442,"noteNumber":83,"velocity":55,"programNumber":48},{"time":156222.06600000078,"duration":111.11100000000442,"noteNumber":85,"velocity":55,"programNumber":48},{"time":156444.2880000008,"duration":222.22200000000885,"noteNumber":85,"velocity":55,"programNumber":48},{"time":156666.5100000008,"duration":222.22200000000885,"noteNumber":86,"velocity":55,"programNumber":48},{"time":157110.9540000008,"duration":111.11100000000442,"noteNumber":83,"velocity":55,"programNumber":48},{"time":157333.17600000082,"duration":222.22200000000885,"noteNumber":83,"velocity":55,"programNumber":48},{"time":157555.39800000083,"duration":222.22200000000885,"noteNumber":81,"velocity":55,"programNumber":48},{"time":157999.84200000085,"duration":166.66649999999208,"noteNumber":73,"velocity":55,"programNumber":48},{"time":158222.06400000083,"duration":444.4439999999886,"noteNumber":74,"velocity":55,"programNumber":48},{"time":158888.73000000083,"duration":111.11100000000442,"noteNumber":81,"velocity":55,"programNumber":48},{"time":159110.95200000083,"duration":222.22200000000885,"noteNumber":86,"velocity":55,"programNumber":48},{"time":159333.17400000084,"duration":222.22200000000885,"noteNumber":85,"velocity":55,"programNumber":48},{"time":159555.39600000085,"duration":222.22200000000885,"noteNumber":83,"velocity":55,"programNumber":48},{"time":159777.61800000086,"duration":222.22200000000885,"noteNumber":81,"velocity":55,"programNumber":48},{"time":159999.84000000087,"duration":55.55549999998766,"noteNumber":83,"velocity":55,"programNumber":48},{"time":160055.39550000086,"duration":55.55549999998766,"noteNumber":85,"velocity":55,"programNumber":48},{"time":160110.95100000084,"duration":55.55549999998766,"noteNumber":83,"velocity":55,"programNumber":48},{"time":160166.50650000083,"duration":55.55549999998766,"noteNumber":85,"velocity":55,"programNumber":48},{"time":160222.06200000082,"duration":222.22200000000885,"noteNumber":81,"velocity":55,"programNumber":48},{"time":160666.50600000084,"duration":111.11100000000442,"noteNumber":81,"velocity":55,"programNumber":48},{"time":160888.72800000085,"duration":111.11100000000442,"noteNumber":81,"velocity":55,"programNumber":48},{"time":161110.95000000086,"duration":111.11100000000442,"noteNumber":81,"velocity":55,"programNumber":48},{"time":161333.17200000086,"duration":111.11100000000442,"noteNumber":81,"velocity":55,"programNumber":48},{"time":161555.39400000087,"duration":111.11100000000442,"noteNumber":81,"velocity":55,"programNumber":48},{"time":161777.61600000088,"duration":55.55549999998766,"noteNumber":83,"velocity":55,"programNumber":48},{"time":161833.17150000087,"duration":55.55549999998766,"noteNumber":85,"velocity":55,"programNumber":48},{"time":161888.72700000086,"duration":55.55549999998766,"noteNumber":83,"velocity":55,"programNumber":48},{"time":161944.28250000085,"duration":55.55549999998766,"noteNumber":85,"velocity":55,"programNumber":48},{"time":161999.83800000083,"duration":222.22200000000885,"noteNumber":81,"velocity":55,"programNumber":48},{"time":162444.28200000085,"duration":166.66649999999208,"noteNumber":81,"velocity":55,"programNumber":48},{"time":162666.50400000083,"duration":222.22200000000885,"noteNumber":86,"velocity":55,"programNumber":48},{"time":162888.72600000084,"duration":222.22200000000885,"noteNumber":85,"velocity":55,"programNumber":48},{"time":163110.94800000085,"duration":222.22200000000885,"noteNumber":83,"velocity":55,"programNumber":48},{"time":163333.17000000086,"duration":222.22200000000885,"noteNumber":81,"velocity":55,"programNumber":48},{"time":163555.39200000087,"duration":55.55549999998766,"noteNumber":83,"velocity":55,"programNumber":48},{"time":163610.94750000085,"duration":55.55549999998766,"noteNumber":85,"velocity":55,"programNumber":48},{"time":163666.50300000084,"duration":55.55549999998766,"noteNumber":83,"velocity":55,"programNumber":48},{"time":163722.05850000083,"duration":55.55549999998766,"noteNumber":85,"velocity":55,"programNumber":48},{"time":163777.61400000082,"duration":222.22200000000885,"noteNumber":81,"velocity":55,"programNumber":48},{"time":164222.05800000083,"duration":111.11100000000442,"noteNumber":81,"velocity":55,"programNumber":48},{"time":164444.28000000084,"duration":111.11100000000442,"noteNumber":81,"velocity":55,"programNumber":48},{"time":164666.50200000085,"duration":111.11100000000442,"noteNumber":81,"velocity":55,"programNumber":48},{"time":164888.72400000086,"duration":111.11100000000442,"noteNumber":81,"velocity":55,"programNumber":48},{"time":165110.94600000087,"duration":111.11100000000442,"noteNumber":81,"velocity":55,"programNumber":48},{"time":165333.16800000088,"duration":55.55549999998766,"noteNumber":83,"velocity":55,"programNumber":48},{"time":165388.72350000087,"duration":55.55549999998766,"noteNumber":85,"velocity":55,"programNumber":48},{"time":165444.27900000085,"duration":55.55549999998766,"noteNumber":83,"velocity":55,"programNumber":48},{"time":165499.83450000084,"duration":55.55549999998766,"noteNumber":85,"velocity":55,"programNumber":48},{"time":165555.39000000083,"duration":222.22200000000885,"noteNumber":81,"velocity":55,"programNumber":48},{"time":166222.05600000083,"duration":629.6289999999863,"noteNumber":83,"velocity":94,"programNumber":48},{"time":166222.05600000083,"duration":629.6289999999863,"noteNumber":71,"velocity":94,"programNumber":48},{"time":166888.72200000082,"duration":74.07399999999325,"noteNumber":81,"velocity":83,"programNumber":48},{"time":166962.79600000082,"duration":74.07399999999325,"noteNumber":79,"velocity":83,"programNumber":48},{"time":167036.8700000008,"duration":74.07399999999325,"noteNumber":78,"velocity":83,"programNumber":48},{"time":167110.9440000008,"duration":444.4439999999886,"noteNumber":79,"velocity":83,"programNumber":48},{"time":167999.83200000078,"duration":629.6289999999863,"noteNumber":69,"velocity":85,"programNumber":48},{"time":167999.83200000078,"duration":629.6289999999863,"noteNumber":81,"velocity":85,"programNumber":48},{"time":168666.49800000078,"duration":74.07399999999325,"noteNumber":79,"velocity":85,"programNumber":48},{"time":168740.57200000077,"duration":74.07399999999325,"noteNumber":78,"velocity":85,"programNumber":48},{"time":168814.64600000076,"duration":74.07399999999325,"noteNumber":76,"velocity":85,"programNumber":48},{"time":168888.72000000076,"duration":444.4439999999886,"noteNumber":78,"velocity":85,"programNumber":48},{"time":169777.60800000074,"duration":222.22200000000885,"noteNumber":83,"velocity":79,"programNumber":48},{"time":169999.83000000074,"duration":111.11100000000442,"noteNumber":85,"velocity":80,"programNumber":48},{"time":170110.94100000075,"duration":111.11100000000442,"noteNumber":86,"velocity":82,"programNumber":48},{"time":170222.05200000075,"duration":166.66649999999208,"noteNumber":85,"velocity":82,"programNumber":48},{"time":170444.27400000073,"duration":111.11100000000442,"noteNumber":83,"velocity":82,"programNumber":48},{"time":170666.49600000074,"duration":222.22200000000885,"noteNumber":83,"velocity":83,"programNumber":48},{"time":170888.71800000075,"duration":166.66649999999208,"noteNumber":81,"velocity":86,"programNumber":48},{"time":171110.94000000073,"duration":111.11100000000442,"noteNumber":78,"velocity":86,"programNumber":48},{"time":171333.16200000074,"duration":111.11100000000442,"noteNumber":81,"velocity":88,"programNumber":48},{"time":171555.38400000075,"duration":222.22200000000885,"noteNumber":81,"velocity":88,"programNumber":48},{"time":171777.60600000076,"duration":166.66649999999208,"noteNumber":79,"velocity":83,"programNumber":48},{"time":171999.82800000074,"duration":111.11100000000442,"noteNumber":78,"velocity":79,"programNumber":48},{"time":172222.05000000075,"duration":111.11100000000442,"noteNumber":76,"velocity":76,"programNumber":48},{"time":172444.27200000075,"duration":444.4439999999886,"noteNumber":74,"velocity":85,"programNumber":48},{"time":173110.93800000075,"duration":111.11100000000442,"noteNumber":81,"velocity":53,"programNumber":48},{"time":173333.16000000076,"duration":222.22200000000885,"noteNumber":86,"velocity":53,"programNumber":48},{"time":173555.38200000077,"duration":222.22200000000885,"noteNumber":85,"velocity":53,"programNumber":48},{"time":173777.60400000078,"duration":222.22200000000885,"noteNumber":83,"velocity":53,"programNumber":48},{"time":173999.8260000008,"duration":222.22200000000885,"noteNumber":81,"velocity":53,"programNumber":48},{"time":174222.0480000008,"duration":55.55549999998766,"noteNumber":83,"velocity":55,"programNumber":48},{"time":174277.60350000078,"duration":55.55549999998766,"noteNumber":85,"velocity":55,"programNumber":48},{"time":174333.15900000077,"duration":55.55549999998766,"noteNumber":83,"velocity":55,"programNumber":48},{"time":174388.71450000076,"duration":55.55549999998766,"noteNumber":85,"velocity":55,"programNumber":48},{"time":174444.27000000075,"duration":222.22200000000885,"noteNumber":81,"velocity":55,"programNumber":48},{"time":174888.71400000076,"duration":111.11100000000442,"noteNumber":81,"velocity":55,"programNumber":48},{"time":175110.93600000077,"duration":111.11100000000442,"noteNumber":81,"velocity":55,"programNumber":48},{"time":175333.15800000078,"duration":111.11100000000442,"noteNumber":81,"velocity":55,"programNumber":48},{"time":175555.3800000008,"duration":111.11100000000442,"noteNumber":81,"velocity":55,"programNumber":48},{"time":175777.6020000008,"duration":111.11100000000442,"noteNumber":81,"velocity":55,"programNumber":48},{"time":175999.8240000008,"duration":55.55549999998766,"noteNumber":83,"velocity":55,"programNumber":48},{"time":176055.3795000008,"duration":55.55549999998766,"noteNumber":85,"velocity":55,"programNumber":48},{"time":176110.93500000078,"duration":55.55549999998766,"noteNumber":83,"velocity":55,"programNumber":48},{"time":176166.49050000077,"duration":55.55549999998766,"noteNumber":85,"velocity":55,"programNumber":48},{"time":176222.04600000076,"duration":222.22200000000885,"noteNumber":81,"velocity":55,"programNumber":48},{"time":176666.49000000078,"duration":166.66649999999208,"noteNumber":81,"velocity":55,"programNumber":48},{"time":176888.71200000076,"duration":222.22200000000885,"noteNumber":86,"velocity":55,"programNumber":48},{"time":177110.93400000077,"duration":222.22200000000885,"noteNumber":85,"velocity":55,"programNumber":48},{"time":177333.15600000077,"duration":222.22200000000885,"noteNumber":83,"velocity":55,"programNumber":48},{"time":177555.37800000078,"duration":222.22200000000885,"noteNumber":81,"velocity":55,"programNumber":48},{"time":177777.6000000008,"duration":55.55549999998766,"noteNumber":83,"velocity":55,"programNumber":48},{"time":177833.15550000078,"duration":55.55549999998766,"noteNumber":85,"velocity":55,"programNumber":48},{"time":177888.71100000077,"duration":55.55549999998766,"noteNumber":83,"velocity":55,"programNumber":48},{"time":177944.26650000075,"duration":55.55549999998766,"noteNumber":85,"velocity":55,"programNumber":48},{"time":177999.82200000074,"duration":222.22200000000885,"noteNumber":81,"velocity":55,"programNumber":48},{"time":178444.26600000076,"duration":111.11100000000442,"noteNumber":81,"velocity":55,"programNumber":48},{"time":178666.48800000077,"duration":111.11100000000442,"noteNumber":81,"velocity":55,"programNumber":48},{"time":178888.71000000078,"duration":111.11100000000442,"noteNumber":81,"velocity":55,"programNumber":48},{"time":179110.9320000008,"duration":111.11100000000442,"noteNumber":81,"velocity":55,"programNumber":48},{"time":179333.1540000008,"duration":111.11100000000442,"noteNumber":81,"velocity":55,"programNumber":48},{"time":179555.3760000008,"duration":55.55549999998766,"noteNumber":83,"velocity":59,"programNumber":48},{"time":179610.9315000008,"duration":55.55549999998766,"noteNumber":85,"velocity":59,"programNumber":48},{"time":179666.48700000078,"duration":55.55549999998766,"noteNumber":83,"velocity":59,"programNumber":48},{"time":179722.04250000077,"duration":55.55549999998766,"noteNumber":85,"velocity":59,"programNumber":48},{"time":179777.59800000075,"duration":222.22200000000885,"noteNumber":81,"velocity":59,"programNumber":48},{"time":180444.26400000075,"duration":629.6289999999863,"noteNumber":83,"velocity":85,"programNumber":48},{"time":180444.26400000075,"duration":629.6289999999863,"noteNumber":71,"velocity":85,"programNumber":48},{"time":181110.93000000075,"duration":74.07399999999325,"noteNumber":81,"velocity":85,"programNumber":48},{"time":181185.00400000074,"duration":74.07399999999325,"noteNumber":79,"velocity":85,"programNumber":48},{"time":181259.07800000074,"duration":74.07399999999325,"noteNumber":78,"velocity":85,"programNumber":48},{"time":181333.15200000073,"duration":444.4439999999886,"noteNumber":79,"velocity":85,"programNumber":48},{"time":182222.0400000007,"duration":629.6289999999863,"noteNumber":69,"velocity":85,"programNumber":48},{"time":182222.0400000007,"duration":629.6289999999863,"noteNumber":81,"velocity":85,"programNumber":48},{"time":182888.7060000007,"duration":74.07399999999325,"noteNumber":79,"velocity":85,"programNumber":48},{"time":182962.7800000007,"duration":74.07399999999325,"noteNumber":78,"velocity":85,"programNumber":48},{"time":183036.8540000007,"duration":74.07399999999325,"noteNumber":76,"velocity":85,"programNumber":48},{"time":183110.92800000068,"duration":444.4439999999886,"noteNumber":78,"velocity":85,"programNumber":48},{"time":183999.81600000066,"duration":222.22200000000885,"noteNumber":83,"velocity":85,"programNumber":48},{"time":184222.03800000067,"duration":111.11100000000442,"noteNumber":85,"velocity":85,"programNumber":48},{"time":184333.14900000067,"duration":111.11100000000442,"noteNumber":86,"velocity":85,"programNumber":48},{"time":184444.26000000068,"duration":166.66649999999208,"noteNumber":85,"velocity":85,"programNumber":48},{"time":184666.48200000066,"duration":111.11100000000442,"noteNumber":83,"velocity":85,"programNumber":48},{"time":184888.70400000067,"duration":222.22200000000885,"noteNumber":83,"velocity":95,"programNumber":48},{"time":185110.92600000068,"duration":166.66649999999208,"noteNumber":81,"velocity":85,"programNumber":48},{"time":185333.14800000066,"duration":111.11100000000442,"noteNumber":78,"velocity":85,"programNumber":48},{"time":185555.37000000066,"duration":111.11100000000442,"noteNumber":81,"velocity":85,"programNumber":48},{"time":185777.59200000067,"duration":222.22200000000885,"noteNumber":81,"velocity":85,"programNumber":48},{"time":185999.81400000068,"duration":166.66649999999208,"noteNumber":79,"velocity":85,"programNumber":48},{"time":186222.03600000066,"duration":111.11100000000442,"noteNumber":78,"velocity":85,"programNumber":48},{"time":186444.25800000067,"duration":111.11100000000442,"noteNumber":76,"velocity":85,"programNumber":48},{"time":186666.48000000068,"duration":166.66649999999208,"noteNumber":74,"velocity":85,"programNumber":48},{"time":186888.70200000066,"duration":166.66649999999208,"noteNumber":69,"velocity":85,"programNumber":48},{"time":187110.92400000064,"duration":166.66649999999208,"noteNumber":71,"velocity":85,"programNumber":48},{"time":187333.14600000062,"duration":166.66649999999208,"noteNumber":73,"velocity":85,"programNumber":48},{"time":187555.3680000006,"duration":111.11100000000442,"noteNumber":74,"velocity":85,"programNumber":48},{"time":187777.5900000006,"duration":111.11100000000442,"noteNumber":74,"velocity":85,"programNumber":48},{"time":187999.81200000062,"duration":55.55549999998766,"noteNumber":76,"velocity":85,"programNumber":48},{"time":188055.3675000006,"duration":55.55549999998766,"noteNumber":78,"velocity":85,"programNumber":48},{"time":188110.9230000006,"duration":55.55549999998766,"noteNumber":76,"velocity":85,"programNumber":48},{"time":188166.47850000058,"duration":55.55549999998766,"noteNumber":78,"velocity":85,"programNumber":48},{"time":188222.03400000057,"duration":111.11100000000442,"noteNumber":74,"velocity":85,"programNumber":48},{"time":188333.14500000057,"duration":111.11100000000442,"noteNumber":76,"velocity":85,"programNumber":48},{"time":188444.25600000058,"duration":222.22200000000885,"noteNumber":78,"velocity":85,"programNumber":48},{"time":188666.47800000058,"duration":166.66649999999208,"noteNumber":73,"velocity":85,"programNumber":48},{"time":188888.70000000056,"duration":166.66649999999208,"noteNumber":74,"velocity":85,"programNumber":48},{"time":189110.92200000054,"duration":166.66649999999208,"noteNumber":76,"velocity":85,"programNumber":48},{"time":189333.14400000052,"duration":166.66649999999208,"noteNumber":78,"velocity":85,"programNumber":48},{"time":189555.3660000005,"duration":166.66649999999208,"noteNumber":78,"velocity":85,"programNumber":48},{"time":189777.58800000048,"duration":55.55549999998766,"noteNumber":79,"velocity":85,"programNumber":48},{"time":189833.14350000047,"duration":55.55549999998766,"noteNumber":81,"velocity":86,"programNumber":48},{"time":189888.69900000046,"duration":55.55549999998766,"noteNumber":79,"velocity":86,"programNumber":48},{"time":189944.25450000045,"duration":55.55549999998766,"noteNumber":81,"velocity":86,"programNumber":48},{"time":189999.81000000043,"duration":111.11100000000442,"noteNumber":78,"velocity":86,"programNumber":48},{"time":190110.92100000044,"duration":111.11100000000442,"noteNumber":79,"velocity":88,"programNumber":48},{"time":190222.03200000044,"duration":166.66649999999208,"noteNumber":81,"velocity":88,"programNumber":48},{"time":190444.25400000042,"duration":166.66649999999208,"noteNumber":81,"velocity":88,"programNumber":48},{"time":190666.4760000004,"duration":55.55549999998766,"noteNumber":82,"velocity":89,"programNumber":48},{"time":190722.0315000004,"duration":55.55549999998766,"noteNumber":83,"velocity":91,"programNumber":48},{"time":190777.58700000038,"duration":55.55549999998766,"noteNumber":82,"velocity":91,"programNumber":48},{"time":190833.14250000037,"duration":55.55549999998766,"noteNumber":83,"velocity":91,"programNumber":48},{"time":190888.69800000035,"duration":111.11100000000442,"noteNumber":80,"velocity":92,"programNumber":48},{"time":190999.80900000036,"duration":111.11100000000442,"noteNumber":82,"velocity":94,"programNumber":48},{"time":191110.92000000036,"duration":444.4439999999886,"noteNumber":83,"velocity":98,"programNumber":48},{"time":191999.80800000034,"duration":666.6659999999974,"noteNumber":71,"velocity":40,"programNumber":48},{"time":192666.47400000034,"duration":166.66649999999208,"noteNumber":76,"velocity":47,"programNumber":48},{"time":192888.69600000032,"duration":222.22200000000885,"noteNumber":74,"velocity":49,"programNumber":48},{"time":193110.91800000033,"duration":222.22200000000885,"noteNumber":73,"velocity":49,"programNumber":48},{"time":193333.14000000033,"duration":222.22200000000885,"noteNumber":71,"velocity":43,"programNumber":48},{"time":193555.36200000034,"duration":222.22200000000885,"noteNumber":69,"velocity":41,"programNumber":48},{"time":193777.58400000035,"duration":222.22200000000885,"noteNumber":74,"velocity":40,"programNumber":48},{"time":194222.02800000037,"duration":222.22200000000885,"noteNumber":78,"velocity":59,"programNumber":48},{"time":194666.4720000004,"duration":222.22200000000885,"noteNumber":74,"velocity":57,"programNumber":48},{"time":195555.3600000004,"duration":444.4439999999886,"noteNumber":74,"velocity":100,"programNumber":48},{"time":195555.3600000004,"duration":444.4439999999886,"noteNumber":62,"velocity":100,"programNumber":48},{"time":196222.0260000004,"duration":166.66649999999208,"noteNumber":69,"velocity":91,"programNumber":48},{"time":196444.24800000037,"duration":444.4439999999886,"noteNumber":74,"velocity":91,"programNumber":48},{"time":197110.91400000037,"duration":166.66649999999208,"noteNumber":69,"velocity":91,"programNumber":48},{"time":197333.13600000035,"duration":166.66649999999208,"noteNumber":74,"velocity":91,"programNumber":48},{"time":197555.35800000033,"duration":166.66649999999208,"noteNumber":69,"velocity":91,"programNumber":48},{"time":197777.5800000003,"duration":166.66649999999208,"noteNumber":74,"velocity":91,"programNumber":48},{"time":197999.8020000003,"duration":166.66649999999208,"noteNumber":78,"velocity":91,"programNumber":48},{"time":198222.02400000027,"duration":444.4439999999886,"noteNumber":81,"velocity":91,"programNumber":48},{"time":199110.91200000024,"duration":444.4439999999886,"noteNumber":81,"velocity":91,"programNumber":48},{"time":199777.57800000024,"duration":166.66649999999208,"noteNumber":78,"velocity":91,"programNumber":48},{"time":199999.80000000022,"duration":444.4439999999886,"noteNumber":81,"velocity":91,"programNumber":48},{"time":200666.46600000022,"duration":166.66649999999208,"noteNumber":78,"velocity":91,"programNumber":48},{"time":200888.6880000002,"duration":166.66649999999208,"noteNumber":81,"velocity":91,"programNumber":48},{"time":201110.91000000018,"duration":166.66649999999208,"noteNumber":78,"velocity":91,"programNumber":48},{"time":201333.13200000016,"duration":166.66649999999208,"noteNumber":75,"velocity":91,"programNumber":48},{"time":201555.35400000014,"duration":166.66649999999208,"noteNumber":78,"velocity":91,"programNumber":48},{"time":201777.57600000012,"duration":444.4439999999886,"noteNumber":71,"velocity":91,"programNumber":48},{"time":203333.1300000001,"duration":166.66649999999208,"noteNumber":79,"velocity":55,"programNumber":48},{"time":203555.35200000007,"duration":222.22200000000885,"noteNumber":84,"velocity":55,"programNumber":48},{"time":203777.57400000008,"duration":222.22200000000885,"noteNumber":83,"velocity":55,"programNumber":48},{"time":203999.7960000001,"duration":222.22200000000885,"noteNumber":81,"velocity":55,"programNumber":48},{"time":204222.0180000001,"duration":222.22200000000885,"noteNumber":79,"velocity":55,"programNumber":48},{"time":204444.2400000001,"duration":55.55549999998766,"noteNumber":81,"velocity":55,"programNumber":48},{"time":204499.7955000001,"duration":55.55549999998766,"noteNumber":83,"velocity":55,"programNumber":48},{"time":204555.35100000008,"duration":55.55549999998766,"noteNumber":81,"velocity":55,"programNumber":48},{"time":204610.90650000007,"duration":55.55549999998766,"noteNumber":83,"velocity":55,"programNumber":48},{"time":204666.46200000006,"duration":222.22200000000885,"noteNumber":79,"velocity":55,"programNumber":48},{"time":205110.90600000008,"duration":111.11100000000442,"noteNumber":79,"velocity":55,"programNumber":48},{"time":205333.12800000008,"duration":111.11100000000442,"noteNumber":79,"velocity":55,"programNumber":48},{"time":205555.3500000001,"duration":111.11100000000442,"noteNumber":79,"velocity":55,"programNumber":48},{"time":205777.5720000001,"duration":111.11100000000442,"noteNumber":79,"velocity":55,"programNumber":48},{"time":205999.7940000001,"duration":111.11100000000442,"noteNumber":79,"velocity":55,"programNumber":48},{"time":206222.01600000012,"duration":55.55549999998766,"noteNumber":81,"velocity":55,"programNumber":48},{"time":206277.5715000001,"duration":55.55549999998766,"noteNumber":83,"velocity":55,"programNumber":48},{"time":206333.1270000001,"duration":55.55549999998766,"noteNumber":81,"velocity":55,"programNumber":48},{"time":206388.68250000008,"duration":55.55549999998766,"noteNumber":83,"velocity":55,"programNumber":48},{"time":206444.23800000007,"duration":222.22200000000885,"noteNumber":79,"velocity":55,"programNumber":48},{"time":206888.6820000001,"duration":166.66649999999208,"noteNumber":79,"velocity":55,"programNumber":48},{"time":207110.90400000007,"duration":222.22200000000885,"noteNumber":84,"velocity":55,"programNumber":48},{"time":207333.12600000008,"duration":222.22200000000885,"noteNumber":83,"velocity":55,"programNumber":48},{"time":207555.3480000001,"duration":222.22200000000885,"noteNumber":81,"velocity":55,"programNumber":48},{"time":207777.5700000001,"duration":222.22200000000885,"noteNumber":79,"velocity":55,"programNumber":48},{"time":207999.7920000001,"duration":55.55549999998766,"noteNumber":81,"velocity":55,"programNumber":48},{"time":208055.3475000001,"duration":55.55549999998766,"noteNumber":83,"velocity":55,"programNumber":48},{"time":208110.90300000008,"duration":55.55549999998766,"noteNumber":81,"velocity":55,"programNumber":48},{"time":208166.45850000007,"duration":55.55549999998766,"noteNumber":83,"velocity":55,"programNumber":48},{"time":208222.01400000005,"duration":222.22200000000885,"noteNumber":79,"velocity":55,"programNumber":48},{"time":208666.45800000007,"duration":111.11100000000442,"noteNumber":79,"velocity":55,"programNumber":48},{"time":208888.68000000008,"duration":111.11100000000442,"noteNumber":79,"velocity":55,"programNumber":48},{"time":209110.9020000001,"duration":111.11100000000442,"noteNumber":79,"velocity":55,"programNumber":48},{"time":209333.1240000001,"duration":111.11100000000442,"noteNumber":79,"velocity":55,"programNumber":48},{"time":209555.3460000001,"duration":111.11100000000442,"noteNumber":79,"velocity":55,"programNumber":48},{"time":209777.56800000012,"duration":55.55549999998766,"noteNumber":81,"velocity":55,"programNumber":48},{"time":209833.1235000001,"duration":55.55549999998766,"noteNumber":83,"velocity":55,"programNumber":48},{"time":209888.6790000001,"duration":55.55549999998766,"noteNumber":81,"velocity":55,"programNumber":48},{"time":209944.23450000008,"duration":55.55549999998766,"noteNumber":83,"velocity":55,"programNumber":48},{"time":209999.79000000007,"duration":222.22200000000885,"noteNumber":79,"velocity":55,"programNumber":48},{"time":210444.23400000008,"duration":166.66649999999208,"noteNumber":79,"velocity":55,"programNumber":48},{"time":210666.45600000006,"duration":222.22200000000885,"noteNumber":84,"velocity":55,"programNumber":48},{"time":210888.67800000007,"duration":222.22200000000885,"noteNumber":83,"velocity":55,"programNumber":48},{"time":211110.90000000008,"duration":222.22200000000885,"noteNumber":81,"velocity":55,"programNumber":48},{"time":211333.1220000001,"duration":222.22200000000885,"noteNumber":79,"velocity":55,"programNumber":48},{"time":211555.3440000001,"duration":55.55549999998766,"noteNumber":81,"velocity":55,"programNumber":48},{"time":211610.8995000001,"duration":55.55549999998766,"noteNumber":83,"velocity":55,"programNumber":48},{"time":211666.45500000007,"duration":55.55549999998766,"noteNumber":81,"velocity":55,"programNumber":48},{"time":211722.01050000006,"duration":55.55549999998766,"noteNumber":83,"velocity":55,"programNumber":48},{"time":211777.56600000005,"duration":222.22200000000885,"noteNumber":80,"velocity":55,"programNumber":48},{"time":212222.01000000007,"duration":111.11100000000442,"noteNumber":80,"velocity":55,"programNumber":48},{"time":212444.23200000008,"duration":111.11100000000442,"noteNumber":80,"velocity":55,"programNumber":48},{"time":212666.45400000009,"duration":111.11100000000442,"noteNumber":80,"velocity":55,"programNumber":48},{"time":212888.6760000001,"duration":111.11100000000442,"noteNumber":80,"velocity":55,"programNumber":48},{"time":213110.8980000001,"duration":111.11100000000442,"noteNumber":80,"velocity":55,"programNumber":48},{"time":213333.1200000001,"duration":55.55549999998766,"noteNumber":83,"velocity":55,"programNumber":48},{"time":213388.6755000001,"duration":55.55549999998766,"noteNumber":84,"velocity":55,"programNumber":48},{"time":213444.2310000001,"duration":55.55549999998766,"noteNumber":83,"velocity":55,"programNumber":48},{"time":213499.78650000007,"duration":55.55549999998766,"noteNumber":84,"velocity":55,"programNumber":48},{"time":213555.34200000006,"duration":222.22200000000885,"noteNumber":81,"velocity":55,"programNumber":48},{"time":213999.78600000008,"duration":166.66649999999208,"noteNumber":81,"velocity":55,"programNumber":48},{"time":214222.00800000006,"duration":222.22200000000885,"noteNumber":84,"velocity":55,"programNumber":48},{"time":214444.23000000007,"duration":222.22200000000885,"noteNumber":82,"velocity":55,"programNumber":48},{"time":214666.45200000008,"duration":222.22200000000885,"noteNumber":81,"velocity":55,"programNumber":48},{"time":214888.6740000001,"duration":222.22200000000885,"noteNumber":79,"velocity":55,"programNumber":48},{"time":215110.8960000001,"duration":55.55549999998766,"noteNumber":79,"velocity":55,"programNumber":48},{"time":215166.45150000008,"duration":55.55549999998766,"noteNumber":81,"velocity":55,"programNumber":48},{"time":215222.00700000007,"duration":55.55549999998766,"noteNumber":79,"velocity":55,"programNumber":48},{"time":215277.56250000006,"duration":55.55549999998766,"noteNumber":81,"velocity":55,"programNumber":48},{"time":215333.11800000005,"duration":222.22200000000885,"noteNumber":78,"velocity":55,"programNumber":48},{"time":215777.56200000006,"duration":111.11100000000442,"noteNumber":78,"velocity":55,"programNumber":48},{"time":215999.78400000007,"duration":111.11100000000442,"noteNumber":78,"velocity":55,"programNumber":48},{"time":216222.00600000008,"duration":111.11100000000442,"noteNumber":78,"velocity":55,"programNumber":48},{"time":216444.2280000001,"duration":111.11100000000442,"noteNumber":78,"velocity":55,"programNumber":48},{"time":216666.4500000001,"duration":111.11100000000442,"noteNumber":78,"velocity":55,"programNumber":48},{"time":216888.6720000001,"duration":55.55549999998766,"noteNumber":81,"velocity":55,"programNumber":48},{"time":216944.2275000001,"duration":55.55549999998766,"noteNumber":82,"velocity":55,"programNumber":48},{"time":216999.78300000008,"duration":55.55549999998766,"noteNumber":81,"velocity":55,"programNumber":48},{"time":217055.33850000007,"duration":55.55549999998766,"noteNumber":82,"velocity":55,"programNumber":48},{"time":217110.89400000006,"duration":222.22200000000885,"noteNumber":79,"velocity":55,"programNumber":48},{"time":217555.33800000008,"duration":166.66649999999208,"noteNumber":75,"velocity":55,"programNumber":48},{"time":217777.56000000006,"duration":222.22200000000885,"noteNumber":79,"velocity":55,"programNumber":48},{"time":217999.78200000006,"duration":222.22200000000885,"noteNumber":77,"velocity":55,"programNumber":48},{"time":218222.00400000007,"duration":222.22200000000885,"noteNumber":76,"velocity":55,"programNumber":48},{"time":218444.22600000008,"duration":222.22200000000885,"noteNumber":74,"velocity":55,"programNumber":48},{"time":218666.4480000001,"duration":55.55549999998766,"noteNumber":74,"velocity":55,"programNumber":48},{"time":218722.00350000008,"duration":55.55549999998766,"noteNumber":75,"velocity":55,"programNumber":48},{"time":218777.55900000007,"duration":55.55549999998766,"noteNumber":74,"velocity":55,"programNumber":48},{"time":218833.11450000005,"duration":55.55549999998766,"noteNumber":75,"velocity":55,"programNumber":48},{"time":218888.67000000004,"duration":222.22200000000885,"noteNumber":73,"velocity":55,"programNumber":48},{"time":219333.11400000006,"duration":111.11100000000442,"noteNumber":73,"velocity":55,"programNumber":48},{"time":219555.33600000007,"duration":111.11100000000442,"noteNumber":73,"velocity":55,"programNumber":48},{"time":219777.55800000008,"duration":111.11100000000442,"noteNumber":73,"velocity":55,"programNumber":48},{"time":219999.7800000001,"duration":111.11100000000442,"noteNumber":73,"velocity":55,"programNumber":48},{"time":220222.0020000001,"duration":111.11100000000442,"noteNumber":73,"velocity":55,"programNumber":48},{"time":220444.2240000001,"duration":55.55549999998766,"noteNumber":76,"velocity":53,"programNumber":48},{"time":220499.7795000001,"duration":55.55549999998766,"noteNumber":78,"velocity":53,"programNumber":48},{"time":220555.33500000008,"duration":55.55549999998766,"noteNumber":76,"velocity":53,"programNumber":48},{"time":220610.89050000007,"duration":55.55549999998766,"noteNumber":78,"velocity":53,"programNumber":48},{"time":220666.44600000005,"duration":222.22200000000885,"noteNumber":74,"velocity":53,"programNumber":48},{"time":221110.89000000007,"duration":222.22200000000885,"noteNumber":62,"velocity":91,"programNumber":48},{"time":221333.11200000008,"duration":222.22200000000885,"noteNumber":64,"velocity":91,"programNumber":48},{"time":221555.3340000001,"duration":222.22200000000885,"noteNumber":66,"velocity":91,"programNumber":48},{"time":221777.5560000001,"duration":222.22200000000885,"noteNumber":67,"velocity":91,"programNumber":48},{"time":221999.7780000001,"duration":222.22200000000885,"noteNumber":69,"velocity":91,"programNumber":48},{"time":222222.00000000012,"duration":222.22200000000885,"noteNumber":72,"velocity":91,"programNumber":48},{"time":222444.22200000013,"duration":222.22200000000885,"noteNumber":70,"velocity":91,"programNumber":48},{"time":222888.66600000014,"duration":222.22200000000885,"noteNumber":66,"velocity":91,"programNumber":48},{"time":223110.88800000015,"duration":222.22200000000885,"noteNumber":67,"velocity":91,"programNumber":48},{"time":223333.11000000016,"duration":222.22200000000885,"noteNumber":69,"velocity":91,"programNumber":48},{"time":223555.33200000017,"duration":222.22200000000885,"noteNumber":70,"velocity":91,"programNumber":48},{"time":223777.55400000018,"duration":222.22200000000885,"noteNumber":73,"velocity":91,"programNumber":48},{"time":223999.7760000002,"duration":222.22200000000885,"noteNumber":76,"velocity":91,"programNumber":48},{"time":224221.9980000002,"duration":222.22200000000885,"noteNumber":74,"velocity":91,"programNumber":48},{"time":224666.4420000002,"duration":222.22200000000885,"noteNumber":74,"velocity":53,"programNumber":48},{"time":224888.66400000022,"duration":222.22200000000885,"noteNumber":76,"velocity":53,"programNumber":48},{"time":225110.88600000023,"duration":222.22200000000885,"noteNumber":78,"velocity":53,"programNumber":48},{"time":225333.10800000024,"duration":222.22200000000885,"noteNumber":79,"velocity":53,"programNumber":48},{"time":225555.33000000025,"duration":222.22200000000885,"noteNumber":81,"velocity":52,"programNumber":48},{"time":225777.55200000026,"duration":444.4439999999886,"noteNumber":82,"velocity":50,"programNumber":48},{"time":226221.99600000025,"duration":444.4439999999886,"noteNumber":83,"velocity":46,"programNumber":48},{"time":226666.44000000024,"duration":444.4439999999886,"noteNumber":84,"velocity":43,"programNumber":48},{"time":227110.88400000022,"duration":444.4439999999886,"noteNumber":85,"velocity":40,"programNumber":48},{"time":227555.3280000002,"duration":2611.108500000002,"noteNumber":86,"velocity":59,"programNumber":48},{"time":230221.9920000002,"duration":55.55549999998766,"noteNumber":78,"velocity":52,"programNumber":48},{"time":230277.5475000002,"duration":55.55549999998766,"noteNumber":79,"velocity":53,"programNumber":48},{"time":230333.10300000018,"duration":55.55549999998766,"noteNumber":78,"velocity":55,"programNumber":48},{"time":230388.65850000017,"duration":55.55549999998766,"noteNumber":79,"velocity":58,"programNumber":48},{"time":230444.21400000015,"duration":55.55549999998766,"noteNumber":78,"velocity":59,"programNumber":48},{"time":230499.76950000014,"duration":55.55549999998766,"noteNumber":79,"velocity":61,"programNumber":48},{"time":230555.32500000013,"duration":55.55549999998766,"noteNumber":78,"velocity":62,"programNumber":48},{"time":230610.88050000012,"duration":55.55549999998766,"noteNumber":79,"velocity":65,"programNumber":48},{"time":230666.4360000001,"duration":55.55549999998766,"noteNumber":78,"velocity":67,"programNumber":48},{"time":230721.9915000001,"duration":55.55549999998766,"noteNumber":79,"velocity":68,"programNumber":48},{"time":230777.54700000008,"duration":55.55549999998766,"noteNumber":78,"velocity":70,"programNumber":48},{"time":230833.10250000007,"duration":55.55549999998766,"noteNumber":79,"velocity":71,"programNumber":48},{"time":230888.65800000005,"duration":111.11100000000442,"noteNumber":76,"velocity":74,"programNumber":48},{"time":230999.76900000006,"duration":111.11100000000442,"noteNumber":78,"velocity":77,"programNumber":48},{"time":231110.88000000006,"duration":444.4439999999886,"noteNumber":79,"velocity":93,"programNumber":48},{"time":231777.54600000006,"duration":111.11100000000442,"noteNumber":74,"velocity":92,"programNumber":48},{"time":231999.76800000007,"duration":444.4439999999886,"noteNumber":79,"velocity":92,"programNumber":48},{"time":232666.43400000007,"duration":111.11100000000442,"noteNumber":74,"velocity":91,"programNumber":48},{"time":232888.65600000008,"duration":111.11100000000442,"noteNumber":79,"velocity":90,"programNumber":48},{"time":233110.87800000008,"duration":111.11100000000442,"noteNumber":74,"velocity":90,"programNumber":48},{"time":233333.1000000001,"duration":111.11100000000442,"noteNumber":79,"velocity":90,"programNumber":48},{"time":233555.3220000001,"duration":111.11100000000442,"noteNumber":83,"velocity":90,"programNumber":48},{"time":233777.5440000001,"duration":444.4439999999886,"noteNumber":86,"velocity":89,"programNumber":48},{"time":234666.4320000001,"duration":444.4439999999886,"noteNumber":84,"velocity":104,"programNumber":48},{"time":235333.0980000001,"duration":111.11100000000442,"noteNumber":81,"velocity":87,"programNumber":48},{"time":235555.3200000001,"duration":444.4439999999886,"noteNumber":84,"velocity":86,"programNumber":48},{"time":236221.9860000001,"duration":111.11100000000442,"noteNumber":81,"velocity":85,"programNumber":48},{"time":236444.2080000001,"duration":111.11100000000442,"noteNumber":84,"velocity":92,"programNumber":48},{"time":236666.4300000001,"duration":111.11100000000442,"noteNumber":81,"velocity":85,"programNumber":48},{"time":236888.65200000012,"duration":111.11100000000442,"noteNumber":78,"velocity":92,"programNumber":48},{"time":237110.87400000013,"duration":111.11100000000442,"noteNumber":81,"velocity":85,"programNumber":48},{"time":237333.09600000014,"duration":444.4439999999886,"noteNumber":74,"velocity":94,"programNumber":48},{"time":238221.9840000001,"duration":222.22200000000885,"noteNumber":71,"velocity":92,"programNumber":48},{"time":238221.9840000001,"duration":222.22200000000885,"noteNumber":79,"velocity":92,"programNumber":48},{"time":238221.9840000001,"duration":222.22200000000885,"noteNumber":62,"velocity":92,"programNumber":48},{"time":238666.42800000013,"duration":666.6659999999974,"noteNumber":79,"velocity":85,"programNumber":48},{"time":239333.09400000013,"duration":222.22200000000885,"noteNumber":83,"velocity":74,"programNumber":48},{"time":239555.31600000014,"duration":111.11100000000442,"noteNumber":81,"velocity":74,"programNumber":48},{"time":239777.53800000015,"duration":111.11100000000442,"noteNumber":79,"velocity":80,"programNumber":48},{"time":239999.76000000015,"duration":55.55549999998766,"noteNumber":79,"velocity":86,"programNumber":48},{"time":240055.31550000014,"duration":55.55549999998766,"noteNumber":81,"velocity":86,"programNumber":48},{"time":240110.87100000013,"duration":55.55549999998766,"noteNumber":79,"velocity":86,"programNumber":48},{"time":240166.42650000012,"duration":55.55549999998766,"noteNumber":81,"velocity":86,"programNumber":48},{"time":240221.9820000001,"duration":185.18499999999767,"noteNumber":78,"velocity":83,"programNumber":48},{"time":240444.2040000001,"duration":666.6659999999974,"noteNumber":78,"velocity":77,"programNumber":48},{"time":241110.8700000001,"duration":222.22200000000885,"noteNumber":81,"velocity":85,"programNumber":48},{"time":241333.09200000012,"duration":111.11100000000442,"noteNumber":84,"velocity":85,"programNumber":48},{"time":241555.31400000013,"duration":111.11100000000442,"noteNumber":78,"velocity":85,"programNumber":48},{"time":241777.53600000014,"duration":222.22200000000885,"noteNumber":81,"velocity":85,"programNumber":48},{"time":241999.75800000015,"duration":111.11100000000442,"noteNumber":79,"velocity":85,"programNumber":48},{"time":242221.98000000016,"duration":666.6659999999974,"noteNumber":79,"velocity":85,"programNumber":48},{"time":242888.64600000015,"duration":222.22200000000885,"noteNumber":83,"velocity":85,"programNumber":48},{"time":243110.86800000016,"duration":111.11100000000442,"noteNumber":81,"velocity":85,"programNumber":48},{"time":243333.09000000017,"duration":111.11100000000442,"noteNumber":79,"velocity":85,"programNumber":48},{"time":243555.31200000018,"duration":55.55549999998766,"noteNumber":79,"velocity":85,"programNumber":48},{"time":243610.86750000017,"duration":55.55549999998766,"noteNumber":81,"velocity":85,"programNumber":48},{"time":243666.42300000016,"duration":55.55549999998766,"noteNumber":79,"velocity":85,"programNumber":48},{"time":243721.97850000014,"duration":55.55549999998766,"noteNumber":81,"velocity":85,"programNumber":48},{"time":243777.53400000013,"duration":185.18499999999767,"noteNumber":78,"velocity":85,"programNumber":48},{"time":243999.75600000014,"duration":666.6659999999974,"noteNumber":78,"velocity":85,"programNumber":48},{"time":244666.42200000014,"duration":222.22200000000885,"noteNumber":81,"velocity":85,"programNumber":48},{"time":244888.64400000015,"duration":111.11100000000442,"noteNumber":84,"velocity":85,"programNumber":48},{"time":245110.86600000015,"duration":111.11100000000442,"noteNumber":78,"velocity":85,"programNumber":48},{"time":245333.08800000016,"duration":111.11100000000442,"noteNumber":79,"velocity":85,"programNumber":48},{"time":245555.31000000017,"duration":111.11100000000442,"noteNumber":79,"velocity":85,"programNumber":48},{"time":245777.53200000018,"duration":111.11100000000442,"noteNumber":79,"velocity":85,"programNumber":48},{"time":245888.6430000002,"duration":111.11100000000442,"noteNumber":78,"velocity":85,"programNumber":48},{"time":245999.7540000002,"duration":111.11100000000442,"noteNumber":76,"velocity":85,"programNumber":48},{"time":246110.8650000002,"duration":111.11100000000442,"noteNumber":78,"velocity":85,"programNumber":48},{"time":246221.9760000002,"duration":111.11100000000442,"noteNumber":79,"velocity":85,"programNumber":48},{"time":246444.1980000002,"duration":111.11100000000442,"noteNumber":79,"velocity":85,"programNumber":48},{"time":246666.42000000022,"duration":111.11100000000442,"noteNumber":83,"velocity":85,"programNumber":48},{"time":246777.53100000022,"duration":111.11100000000442,"noteNumber":81,"velocity":85,"programNumber":48},{"time":246888.64200000023,"duration":111.11100000000442,"noteNumber":79,"velocity":85,"programNumber":48},{"time":246999.75300000023,"duration":111.11100000000442,"noteNumber":81,"velocity":83,"programNumber":48},{"time":247110.86400000023,"duration":111.11100000000442,"noteNumber":83,"velocity":83,"programNumber":48},{"time":247333.08600000024,"duration":111.11100000000442,"noteNumber":83,"velocity":83,"programNumber":48},{"time":247555.30800000025,"duration":111.11100000000442,"noteNumber":86,"velocity":83,"programNumber":48},{"time":247666.41900000026,"duration":111.11100000000442,"noteNumber":84,"velocity":80,"programNumber":48},{"time":247777.53000000026,"duration":111.11100000000442,"noteNumber":83,"velocity":79,"programNumber":48},{"time":247888.64100000027,"duration":111.11100000000442,"noteNumber":84,"velocity":76,"programNumber":48},{"time":247999.75200000027,"duration":444.4439999999886,"noteNumber":86,"velocity":71,"programNumber":48},{"time":248888.64000000025,"duration":888.8880000000063,"noteNumber":74,"velocity":56,"programNumber":48},{"time":249777.52800000025,"duration":888.8880000000063,"noteNumber":76,"velocity":55,"programNumber":48},{"time":250666.41600000026,"duration":111.11100000000442,"noteNumber":74,"velocity":57,"programNumber":48},{"time":250777.52700000026,"duration":296.2960000000021,"noteNumber":72,"velocity":59,"programNumber":48},{"time":251110.86000000028,"duration":444.4439999999886,"noteNumber":72,"velocity":58,"programNumber":48},{"time":251555.30400000027,"duration":111.11100000000442,"noteNumber":72,"velocity":57,"programNumber":48},{"time":251666.41500000027,"duration":296.2960000000021,"noteNumber":71,"velocity":55,"programNumber":48},{"time":251999.74800000028,"duration":444.4439999999886,"noteNumber":71,"velocity":53,"programNumber":48},{"time":252444.19200000027,"duration":111.11100000000442,"noteNumber":71,"velocity":57,"programNumber":48},{"time":252555.30300000028,"duration":296.2960000000021,"noteNumber":69,"velocity":56,"programNumber":48},{"time":252888.6360000003,"duration":444.4439999999886,"noteNumber":69,"velocity":55,"programNumber":48},{"time":253333.08000000028,"duration":222.22200000000885,"noteNumber":67,"velocity":54,"programNumber":48},{"time":253555.3020000003,"duration":111.11100000000442,"noteNumber":66,"velocity":55,"programNumber":48},{"time":253777.5240000003,"duration":111.11100000000442,"noteNumber":64,"velocity":55,"programNumber":48},{"time":253999.7460000003,"duration":111.11100000000442,"noteNumber":66,"velocity":55,"programNumber":48},{"time":254221.9680000003,"duration":222.22200000000885,"noteNumber":67,"velocity":56,"programNumber":48},{"time":254666.41200000033,"duration":222.22200000000885,"noteNumber":69,"velocity":57,"programNumber":48},{"time":255110.85600000035,"duration":222.22200000000885,"noteNumber":71,"velocity":57,"programNumber":48},{"time":255999.74400000036,"duration":888.8880000000063,"noteNumber":74,"velocity":56,"programNumber":48},{"time":256888.63200000036,"duration":888.8880000000063,"noteNumber":76,"velocity":59,"programNumber":48},{"time":257777.52000000037,"duration":222.22200000000885,"noteNumber":74,"velocity":46,"programNumber":48},{"time":257999.74200000038,"duration":111.11100000000442,"noteNumber":72,"velocity":51,"programNumber":48},{"time":258221.9640000004,"duration":111.11100000000442,"noteNumber":72,"velocity":51,"programNumber":48},{"time":258444.1860000004,"duration":111.11100000000442,"noteNumber":72,"velocity":51,"programNumber":48},{"time":258666.4080000004,"duration":222.22200000000885,"noteNumber":72,"velocity":51,"programNumber":48},{"time":258888.6300000004,"duration":111.11100000000442,"noteNumber":71,"velocity":50,"programNumber":48},{"time":259110.85200000042,"duration":111.11100000000442,"noteNumber":71,"velocity":49,"programNumber":48},{"time":259333.07400000043,"duration":111.11100000000442,"noteNumber":71,"velocity":49,"programNumber":48},{"time":259555.29600000044,"duration":222.22200000000885,"noteNumber":71,"velocity":49,"programNumber":48},{"time":259777.51800000045,"duration":111.11100000000442,"noteNumber":69,"velocity":50,"programNumber":48},{"time":259999.74000000046,"duration":166.66649999999208,"noteNumber":69,"velocity":52,"programNumber":48},{"time":260221.96200000044,"duration":166.66649999999208,"noteNumber":69,"velocity":52,"programNumber":48},{"time":260444.18400000042,"duration":222.22200000000885,"noteNumber":67,"velocity":52,"programNumber":48},{"time":260666.40600000042,"duration":222.22200000000885,"noteNumber":66,"velocity":54,"programNumber":48},{"time":260888.62800000043,"duration":222.22200000000885,"noteNumber":64,"velocity":55,"programNumber":48},{"time":261110.85000000044,"duration":222.22200000000885,"noteNumber":66,"velocity":55,"programNumber":48},{"time":261333.07200000045,"duration":1111.109999999986,"noteNumber":67,"velocity":85,"programNumber":48},{"time":261333.07200000045,"duration":1111.109999999986,"noteNumber":55,"velocity":85,"programNumber":48},{"time":262444.18200000044,"duration":55.555500000016764,"noteNumber":67,"velocity":61,"programNumber":48},{"time":262499.73750000045,"duration":55.555500000016764,"noteNumber":69,"velocity":61,"programNumber":48},{"time":262555.29300000047,"duration":55.555500000016764,"noteNumber":66,"velocity":61,"programNumber":48},{"time":262610.8485000005,"duration":55.555500000016764,"noteNumber":67,"velocity":61,"programNumber":48},{"time":262666.4040000005,"duration":222.22200000000885,"noteNumber":69,"velocity":61,"programNumber":48},{"time":262888.6260000005,"duration":222.22200000000885,"noteNumber":66,"velocity":61,"programNumber":48},{"time":263110.8480000005,"duration":1111.109999999986,"noteNumber":71,"velocity":91,"programNumber":48},{"time":264221.9580000005,"duration":55.555500000016764,"noteNumber":71,"velocity":61,"programNumber":48},{"time":264277.5135000005,"duration":55.555500000016764,"noteNumber":72,"velocity":61,"programNumber":48},{"time":264333.06900000054,"duration":55.555500000016764,"noteNumber":69,"velocity":61,"programNumber":48},{"time":264388.62450000056,"duration":55.555500000016764,"noteNumber":71,"velocity":61,"programNumber":48},{"time":264444.1800000006,"duration":222.22200000000885,"noteNumber":72,"velocity":61,"programNumber":48},{"time":264666.4020000006,"duration":222.22200000000885,"noteNumber":69,"velocity":61,"programNumber":48},{"time":264888.6240000006,"duration":74.07400000002235,"noteNumber":74,"velocity":51,"programNumber":48},{"time":264999.7350000006,"duration":74.07400000002235,"noteNumber":74,"velocity":56,"programNumber":48},{"time":265110.84600000066,"duration":74.07400000002235,"noteNumber":74,"velocity":59,"programNumber":48},{"time":265221.9570000007,"duration":74.07400000002235,"noteNumber":74,"velocity":56,"programNumber":48},{"time":265333.0680000007,"duration":74.07400000002235,"noteNumber":74,"velocity":56,"programNumber":48},{"time":265444.17900000076,"duration":74.07400000002235,"noteNumber":74,"velocity":56,"programNumber":48},{"time":265555.2900000008,"duration":74.07400000002235,"noteNumber":74,"velocity":56,"programNumber":48},{"time":265666.4010000008,"duration":74.07400000002235,"noteNumber":74,"velocity":56,"programNumber":48},{"time":265777.51200000086,"duration":74.07400000002235,"noteNumber":76,"velocity":56,"programNumber":48},{"time":265888.6230000009,"duration":74.07400000002235,"noteNumber":76,"velocity":56,"programNumber":48},{"time":265999.7340000009,"duration":74.07400000002235,"noteNumber":76,"velocity":56,"programNumber":48},{"time":266110.84500000096,"duration":74.07400000002235,"noteNumber":76,"velocity":56,"programNumber":48},{"time":266221.956000001,"duration":74.07400000002235,"noteNumber":78,"velocity":56,"programNumber":48},{"time":266333.067000001,"duration":74.07400000002235,"noteNumber":78,"velocity":56,"programNumber":48},{"time":266444.17800000106,"duration":74.07400000002235,"noteNumber":78,"velocity":57,"programNumber":48},{"time":266555.2890000011,"duration":74.07400000002235,"noteNumber":78,"velocity":59,"programNumber":48},{"time":266666.40000000113,"duration":74.07400000002235,"noteNumber":79,"velocity":62,"programNumber":48},{"time":266777.51100000116,"duration":74.07400000002235,"noteNumber":79,"velocity":65,"programNumber":48},{"time":266888.6220000012,"duration":74.07400000002235,"noteNumber":79,"velocity":66,"programNumber":48},{"time":266999.73300000123,"duration":74.07400000002235,"noteNumber":79,"velocity":66,"programNumber":48},{"time":267110.84400000126,"duration":74.07400000002235,"noteNumber":81,"velocity":66,"programNumber":48},{"time":267221.9550000013,"duration":74.07400000002235,"noteNumber":81,"velocity":66,"programNumber":48},{"time":267333.06600000133,"duration":74.07400000002235,"noteNumber":81,"velocity":66,"programNumber":48},{"time":267444.17700000136,"duration":74.07400000002235,"noteNumber":81,"velocity":68,"programNumber":48},{"time":267555.2880000014,"duration":74.07400000002235,"noteNumber":83,"velocity":68,"programNumber":48},{"time":267666.39900000143,"duration":74.07400000002235,"noteNumber":83,"velocity":70,"programNumber":48},{"time":267777.51000000146,"duration":74.07400000002235,"noteNumber":83,"velocity":70,"programNumber":48},{"time":267888.6210000015,"duration":74.07400000002235,"noteNumber":83,"velocity":71,"programNumber":48},{"time":267999.73200000153,"duration":74.07400000002235,"noteNumber":85,"velocity":71,"programNumber":48},{"time":268110.84300000157,"duration":74.07400000002235,"noteNumber":85,"velocity":73,"programNumber":48},{"time":268221.9540000016,"duration":74.07400000002235,"noteNumber":85,"velocity":74,"programNumber":48},{"time":268333.06500000163,"duration":74.07400000002235,"noteNumber":85,"velocity":74,"programNumber":48},{"time":268444.17600000167,"duration":666.6660000000265,"noteNumber":86,"velocity":85,"programNumber":48},{"time":269110.8420000017,"duration":222.22200000000885,"noteNumber":81,"velocity":85,"programNumber":48},{"time":269333.0640000017,"duration":333.33299999998417,"noteNumber":85,"velocity":85,"programNumber":48},{"time":269666.3970000017,"duration":111.11099999997532,"noteNumber":81,"velocity":85,"programNumber":48},{"time":269777.50800000166,"duration":333.33299999998417,"noteNumber":85,"velocity":85,"programNumber":48},{"time":270110.84100000164,"duration":111.11099999997532,"noteNumber":81,"velocity":85,"programNumber":48},{"time":270221.9520000016,"duration":666.6660000000265,"noteNumber":86,"velocity":85,"programNumber":48},{"time":270888.61800000165,"duration":222.22200000000885,"noteNumber":81,"velocity":85,"programNumber":48},{"time":271110.84000000166,"duration":333.33299999998417,"noteNumber":85,"velocity":85,"programNumber":48},{"time":271444.17300000164,"duration":111.11099999997532,"noteNumber":81,"velocity":85,"programNumber":48},{"time":271555.2840000016,"duration":333.33299999998417,"noteNumber":85,"velocity":85,"programNumber":48},{"time":271888.6170000016,"duration":111.11099999997532,"noteNumber":81,"velocity":85,"programNumber":48},{"time":271999.7280000016,"duration":111.11099999997532,"noteNumber":86,"velocity":100,"programNumber":48},{"time":272221.9500000015,"duration":111.11099999997532,"noteNumber":81,"velocity":100,"programNumber":48},{"time":272444.1720000015,"duration":111.11099999997532,"noteNumber":85,"velocity":100,"programNumber":48},{"time":272666.3940000014,"duration":111.11099999997532,"noteNumber":81,"velocity":100,"programNumber":48},{"time":272888.6160000014,"duration":111.11099999997532,"noteNumber":86,"velocity":100,"programNumber":48},{"time":273110.8380000013,"duration":111.11099999997532,"noteNumber":81,"velocity":100,"programNumber":48},{"time":273333.0600000013,"duration":111.11099999997532,"noteNumber":85,"velocity":100,"programNumber":48},{"time":273555.2820000012,"duration":111.11099999997532,"noteNumber":81,"velocity":100,"programNumber":48},{"time":273777.5040000012,"duration":166.66649999999208,"noteNumber":86,"velocity":85,"programNumber":48},{"time":273999.7260000012,"duration":166.66649999999208,"noteNumber":62,"velocity":85,"programNumber":48},{"time":274221.9480000012,"duration":166.66649999999208,"noteNumber":62,"velocity":85,"programNumber":48},{"time":274444.1700000012,"duration":166.66649999999208,"noteNumber":62,"velocity":85,"programNumber":48},{"time":274666.3920000012,"duration":444.4440000000177,"noteNumber":62,"velocity":85,"programNumber":48},{"time":275555.28000000125,"duration":666.6660000000265,"noteNumber":74,"velocity":46,"programNumber":48},{"time":276221.9460000013,"duration":74.07400000002235,"noteNumber":72,"velocity":47,"programNumber":48},{"time":276296.0200000013,"duration":74.07400000002235,"noteNumber":71,"velocity":47,"programNumber":48},{"time":276370.0940000013,"duration":74.07400000002235,"noteNumber":69,"velocity":47,"programNumber":48},{"time":276444.16800000134,"duration":222.22200000000885,"noteNumber":67,"velocity":47,"programNumber":48},{"time":276888.61200000136,"duration":222.22200000000885,"noteNumber":76,"velocity":47,"programNumber":48},{"time":277333.0560000014,"duration":222.22200000000885,"noteNumber":72,"velocity":46,"programNumber":48},{"time":277777.5000000014,"duration":222.22200000000885,"noteNumber":69,"velocity":43,"programNumber":48},{"time":278221.9440000014,"duration":222.22200000000885,"noteNumber":74,"velocity":59,"programNumber":48},{"time":279110.83200000145,"duration":666.6660000000265,"noteNumber":83,"velocity":55,"programNumber":48},{"time":279777.4980000015,"duration":74.07400000002235,"noteNumber":81,"velocity":55,"programNumber":48},{"time":279851.5720000015,"duration":74.07400000002235,"noteNumber":79,"velocity":55,"programNumber":48},{"time":279925.6460000015,"duration":74.07400000002235,"noteNumber":78,"velocity":55,"programNumber":48},{"time":279999.72000000154,"duration":222.22200000000885,"noteNumber":76,"velocity":55,"programNumber":48},{"time":280444.16400000156,"duration":222.22200000000885,"noteNumber":84,"velocity":55,"programNumber":48},{"time":280888.6080000016,"duration":888.8879999999772,"noteNumber":83,"velocity":55,"programNumber":48},{"time":281777.49600000156,"duration":444.4440000000177,"noteNumber":81,"velocity":47,"programNumber":48},{"time":282888.6060000016,"duration":111.11099999997532,"noteNumber":86,"velocity":55,"programNumber":48},{"time":283110.82800000155,"duration":111.11099999997532,"noteNumber":86,"velocity":55,"programNumber":48},{"time":283333.0500000015,"duration":111.11099999997532,"noteNumber":86,"velocity":55,"programNumber":48},{"time":283555.27200000145,"duration":111.11099999997532,"noteNumber":86,"velocity":55,"programNumber":48},{"time":283777.4940000014,"duration":111.11099999997532,"noteNumber":86,"velocity":55,"programNumber":48},{"time":283999.71600000135,"duration":111.11099999997532,"noteNumber":86,"velocity":55,"programNumber":48},{"time":284221.9380000013,"duration":111.11099999997532,"noteNumber":86,"velocity":55,"programNumber":48},{"time":284444.16000000125,"duration":111.11099999997532,"noteNumber":86,"velocity":55,"programNumber":48},{"time":284666.3820000012,"duration":111.11099999997532,"noteNumber":86,"velocity":55,"programNumber":48},{"time":284888.60400000116,"duration":111.11099999997532,"noteNumber":86,"velocity":55,"programNumber":48},{"time":285110.8260000011,"duration":111.11099999997532,"noteNumber":86,"velocity":55,"programNumber":48},{"time":285333.04800000106,"duration":222.22200000000885,"noteNumber":86,"velocity":55,"programNumber":48},{"time":285555.27000000107,"duration":222.22200000000885,"noteNumber":84,"velocity":55,"programNumber":48},{"time":285777.4920000011,"duration":222.22200000000885,"noteNumber":79,"velocity":55,"programNumber":48},{"time":285999.7140000011,"duration":222.22200000000885,"noteNumber":78,"velocity":55,"programNumber":48},{"time":286221.9360000011,"duration":222.22200000000885,"noteNumber":78,"velocity":55,"programNumber":48},{"time":286444.1580000011,"duration":222.22200000000885,"noteNumber":79,"velocity":65,"programNumber":48},{"time":286888.6020000011,"duration":111.11099999997532,"noteNumber":76,"velocity":55,"programNumber":48},{"time":287110.82400000107,"duration":222.22200000000885,"noteNumber":76,"velocity":55,"programNumber":48},{"time":287333.0460000011,"duration":222.22200000000885,"noteNumber":74,"velocity":55,"programNumber":48},{"time":287777.4900000011,"duration":166.66649999999208,"noteNumber":66,"velocity":55,"programNumber":48},{"time":287999.7120000011,"duration":444.4440000000177,"noteNumber":67,"velocity":67,"programNumber":48},{"time":288666.37800000113,"duration":111.11099999997532,"noteNumber":74,"velocity":55,"programNumber":48},{"time":288888.6000000011,"duration":222.22200000000885,"noteNumber":79,"velocity":55,"programNumber":48},{"time":289110.8220000011,"duration":222.22200000000885,"noteNumber":78,"velocity":55,"programNumber":48},{"time":289333.0440000011,"duration":222.22200000000885,"noteNumber":76,"velocity":55,"programNumber":48},{"time":289555.2660000011,"duration":222.22200000000885,"noteNumber":74,"velocity":55,"programNumber":48},{"time":289777.4880000011,"duration":55.555500000016764,"noteNumber":76,"velocity":55,"programNumber":48},{"time":289833.04350000113,"duration":55.555500000016764,"noteNumber":78,"velocity":55,"programNumber":48},{"time":289888.59900000115,"duration":55.555500000016764,"noteNumber":76,"velocity":55,"programNumber":48},{"time":289944.15450000117,"duration":55.555500000016764,"noteNumber":78,"velocity":55,"programNumber":48},{"time":289999.7100000012,"duration":222.22200000000885,"noteNumber":74,"velocity":55,"programNumber":48},{"time":290444.1540000012,"duration":111.11099999997532,"noteNumber":74,"velocity":55,"programNumber":48},{"time":290666.37600000115,"duration":111.11099999997532,"noteNumber":74,"velocity":55,"programNumber":48},{"time":290888.5980000011,"duration":111.11099999997532,"noteNumber":74,"velocity":55,"programNumber":48},{"time":291110.82000000105,"duration":111.11099999997532,"noteNumber":74,"velocity":55,"programNumber":48},{"time":291333.042000001,"duration":111.11099999997532,"noteNumber":74,"velocity":55,"programNumber":48},{"time":291555.26400000096,"duration":55.555500000016764,"noteNumber":76,"velocity":55,"programNumber":48},{"time":291610.819500001,"duration":55.555500000016764,"noteNumber":78,"velocity":55,"programNumber":48},{"time":291666.375000001,"duration":55.555500000016764,"noteNumber":76,"velocity":55,"programNumber":48},{"time":291721.930500001,"duration":55.555500000016764,"noteNumber":78,"velocity":55,"programNumber":48},{"time":291777.486000001,"duration":222.22200000000885,"noteNumber":74,"velocity":55,"programNumber":48},{"time":292221.93000000104,"duration":166.66649999999208,"noteNumber":74,"velocity":55,"programNumber":48},{"time":292444.15200000105,"duration":222.22200000000885,"noteNumber":79,"velocity":55,"programNumber":48},{"time":292666.37400000106,"duration":222.22200000000885,"noteNumber":78,"velocity":55,"programNumber":48},{"time":292888.59600000107,"duration":222.22200000000885,"noteNumber":76,"velocity":55,"programNumber":48},{"time":293110.8180000011,"duration":222.22200000000885,"noteNumber":74,"velocity":55,"programNumber":48},{"time":293333.0400000011,"duration":55.555500000016764,"noteNumber":76,"velocity":55,"programNumber":48},{"time":293388.5955000011,"duration":55.555500000016764,"noteNumber":78,"velocity":55,"programNumber":48},{"time":293444.1510000011,"duration":55.555500000016764,"noteNumber":76,"velocity":55,"programNumber":48},{"time":293499.70650000114,"duration":55.555500000016764,"noteNumber":78,"velocity":55,"programNumber":48},{"time":293555.26200000115,"duration":222.22200000000885,"noteNumber":74,"velocity":55,"programNumber":48},{"time":293999.70600000117,"duration":111.11099999997532,"noteNumber":74,"velocity":55,"programNumber":48},{"time":294221.9280000011,"duration":111.11099999997532,"noteNumber":74,"velocity":55,"programNumber":48},{"time":294444.1500000011,"duration":111.11099999997532,"noteNumber":74,"velocity":55,"programNumber":48},{"time":294666.372000001,"duration":111.11099999997532,"noteNumber":74,"velocity":55,"programNumber":48},{"time":294888.594000001,"duration":111.11099999997532,"noteNumber":74,"velocity":55,"programNumber":48},{"time":295110.8160000009,"duration":55.555500000016764,"noteNumber":76,"velocity":55,"programNumber":48},{"time":295166.37150000094,"duration":55.555500000016764,"noteNumber":78,"velocity":55,"programNumber":48},{"time":295221.92700000096,"duration":55.555500000016764,"noteNumber":76,"velocity":55,"programNumber":48},{"time":295277.482500001,"duration":55.555500000016764,"noteNumber":78,"velocity":55,"programNumber":48},{"time":295333.038000001,"duration":222.22200000000885,"noteNumber":74,"velocity":55,"programNumber":48},{"time":295999.704000001,"duration":629.6290000000154,"noteNumber":76,"velocity":83,"programNumber":48},{"time":295999.704000001,"duration":629.6290000000154,"noteNumber":64,"velocity":83,"programNumber":48},{"time":296666.37000000104,"duration":74.07400000002235,"noteNumber":74,"velocity":82,"programNumber":48},{"time":296740.44400000107,"duration":74.07400000002235,"noteNumber":72,"velocity":82,"programNumber":48},{"time":296814.5180000011,"duration":74.07400000002235,"noteNumber":71,"velocity":82,"programNumber":48},{"time":296888.5920000011,"duration":444.4440000000177,"noteNumber":72,"velocity":83,"programNumber":48},{"time":297777.48000000115,"duration":629.6290000000154,"noteNumber":62,"velocity":85,"programNumber":48},{"time":297777.48000000115,"duration":629.6290000000154,"noteNumber":74,"velocity":85,"programNumber":48},{"time":298444.1460000012,"duration":74.07400000002235,"noteNumber":72,"velocity":77,"programNumber":48},{"time":298518.2200000012,"duration":74.07400000002235,"noteNumber":71,"velocity":79,"programNumber":48},{"time":298592.2940000012,"duration":74.07400000002235,"noteNumber":69,"velocity":83,"programNumber":48},{"time":298666.36800000124,"duration":444.4440000000177,"noteNumber":71,"velocity":88,"programNumber":48},{"time":299555.2560000013,"duration":222.22200000000885,"noteNumber":76,"velocity":85,"programNumber":48},{"time":299777.4780000013,"duration":111.11099999997532,"noteNumber":78,"velocity":85,"programNumber":48},{"time":299888.58900000126,"duration":111.11099999997532,"noteNumber":79,"velocity":85,"programNumber":48},{"time":299999.70000000123,"duration":166.66649999999208,"noteNumber":78,"velocity":85,"programNumber":48},{"time":300221.92200000124,"duration":111.11099999997532,"noteNumber":76,"velocity":85,"programNumber":48},{"time":300444.1440000012,"duration":222.22200000000885,"noteNumber":76,"velocity":85,"programNumber":48},{"time":300666.3660000012,"duration":166.66649999999208,"noteNumber":74,"velocity":85,"programNumber":48},{"time":300888.5880000012,"duration":111.11099999997532,"noteNumber":71,"velocity":85,"programNumber":48},{"time":301110.81000000116,"duration":111.11099999997532,"noteNumber":74,"velocity":85,"programNumber":48},{"time":301333.0320000011,"duration":222.22200000000885,"noteNumber":74,"velocity":85,"programNumber":48},{"time":301555.2540000011,"duration":166.66649999999208,"noteNumber":72,"velocity":85,"programNumber":48},{"time":301777.47600000113,"duration":111.11099999997532,"noteNumber":71,"velocity":85,"programNumber":48},{"time":301999.6980000011,"duration":111.11099999997532,"noteNumber":69,"velocity":85,"programNumber":48},{"time":302221.92000000103,"duration":444.4440000000177,"noteNumber":67,"velocity":85,"programNumber":48},{"time":302888.58600000106,"duration":111.11099999997532,"noteNumber":74,"velocity":50,"programNumber":48},{"time":303110.808000001,"duration":222.22200000000885,"noteNumber":79,"velocity":50,"programNumber":48},{"time":303333.030000001,"duration":222.22200000000885,"noteNumber":78,"velocity":50,"programNumber":48},{"time":303555.252000001,"duration":222.22200000000885,"noteNumber":76,"velocity":53,"programNumber":48},{"time":303777.47400000104,"duration":222.22200000000885,"noteNumber":74,"velocity":56,"programNumber":48},{"time":303999.69600000104,"duration":55.555500000016764,"noteNumber":76,"velocity":58,"programNumber":48},{"time":304055.25150000106,"duration":55.555500000016764,"noteNumber":78,"velocity":58,"programNumber":48},{"time":304110.8070000011,"duration":55.555500000016764,"noteNumber":76,"velocity":59,"programNumber":48},{"time":304166.3625000011,"duration":55.555500000016764,"noteNumber":78,"velocity":59,"programNumber":48},{"time":304221.9180000011,"duration":222.22200000000885,"noteNumber":74,"velocity":61,"programNumber":48},{"time":304666.3620000011,"duration":111.11099999997532,"noteNumber":74,"velocity":56,"programNumber":48},{"time":304888.5840000011,"duration":111.11099999997532,"noteNumber":74,"velocity":55,"programNumber":48},{"time":305110.80600000103,"duration":111.11099999997532,"noteNumber":74,"velocity":55,"programNumber":48},{"time":305333.028000001,"duration":111.11099999997532,"noteNumber":74,"velocity":53,"programNumber":48},{"time":305555.25000000093,"duration":111.11099999997532,"noteNumber":74,"velocity":52,"programNumber":48},{"time":305777.4720000009,"duration":55.555500000016764,"noteNumber":76,"velocity":55,"programNumber":48},{"time":305833.0275000009,"duration":55.555500000016764,"noteNumber":78,"velocity":55,"programNumber":48},{"time":305888.5830000009,"duration":55.555500000016764,"noteNumber":76,"velocity":55,"programNumber":48},{"time":305944.13850000093,"duration":55.555500000016764,"noteNumber":78,"velocity":55,"programNumber":48},{"time":305999.69400000095,"duration":222.22200000000885,"noteNumber":74,"velocity":55,"programNumber":48},{"time":306444.13800000097,"duration":166.66649999999208,"noteNumber":74,"velocity":55,"programNumber":48},{"time":306666.360000001,"duration":222.22200000000885,"noteNumber":79,"velocity":55,"programNumber":48},{"time":306888.582000001,"duration":222.22200000000885,"noteNumber":78,"velocity":55,"programNumber":48},{"time":307110.804000001,"duration":222.22200000000885,"noteNumber":76,"velocity":55,"programNumber":48},{"time":307333.026000001,"duration":222.22200000000885,"noteNumber":74,"velocity":56,"programNumber":48},{"time":307555.248000001,"duration":55.555500000016764,"noteNumber":76,"velocity":65,"programNumber":48},{"time":307610.803500001,"duration":55.555500000016764,"noteNumber":78,"velocity":65,"programNumber":48},{"time":307666.35900000104,"duration":55.555500000016764,"noteNumber":76,"velocity":65,"programNumber":48},{"time":307721.91450000106,"duration":55.555500000016764,"noteNumber":78,"velocity":65,"programNumber":48},{"time":307777.4700000011,"duration":222.22200000000885,"noteNumber":74,"velocity":64,"programNumber":48},{"time":308221.9140000011,"duration":111.11099999997532,"noteNumber":74,"velocity":55,"programNumber":48},{"time":308444.13600000105,"duration":111.11099999997532,"noteNumber":74,"velocity":55,"programNumber":48},{"time":308666.358000001,"duration":111.11099999997532,"noteNumber":74,"velocity":55,"programNumber":48},{"time":308888.58000000095,"duration":111.11099999997532,"noteNumber":74,"velocity":55,"programNumber":48},{"time":309110.8020000009,"duration":111.11099999997532,"noteNumber":74,"velocity":55,"programNumber":48},{"time":309333.02400000085,"duration":55.555500000016764,"noteNumber":76,"velocity":59,"programNumber":48},{"time":309388.57950000087,"duration":55.555500000016764,"noteNumber":78,"velocity":59,"programNumber":48},{"time":309444.1350000009,"duration":55.555500000016764,"noteNumber":76,"velocity":59,"programNumber":48},{"time":309499.6905000009,"duration":55.555500000016764,"noteNumber":78,"velocity":59,"programNumber":48},{"time":309555.2460000009,"duration":222.22200000000885,"noteNumber":74,"velocity":59,"programNumber":48},{"time":310221.91200000094,"duration":629.6290000000154,"noteNumber":88,"velocity":85,"programNumber":48},{"time":310888.57800000097,"duration":74.07400000002235,"noteNumber":86,"velocity":85,"programNumber":48},{"time":310962.652000001,"duration":74.07400000002235,"noteNumber":84,"velocity":85,"programNumber":48},{"time":311036.726000001,"duration":74.07400000002235,"noteNumber":83,"velocity":85,"programNumber":48},{"time":311110.80000000104,"duration":444.4440000000177,"noteNumber":84,"velocity":85,"programNumber":48},{"time":311999.6880000011,"duration":629.6290000000154,"noteNumber":74,"velocity":85,"programNumber":48},{"time":311999.6880000011,"duration":629.6290000000154,"noteNumber":86,"velocity":85,"programNumber":48},{"time":312666.3540000011,"duration":74.07400000002235,"noteNumber":84,"velocity":82,"programNumber":48},{"time":312740.4280000011,"duration":74.07400000002235,"noteNumber":83,"velocity":83,"programNumber":48},{"time":312814.50200000114,"duration":74.07400000002235,"noteNumber":81,"velocity":83,"programNumber":48},{"time":312888.57600000117,"duration":444.4440000000177,"noteNumber":83,"velocity":86,"programNumber":48},{"time":313777.4640000012,"duration":222.22200000000885,"noteNumber":76,"velocity":85,"programNumber":48},{"time":313999.6860000012,"duration":111.11099999997532,"noteNumber":78,"velocity":85,"programNumber":48},{"time":314110.7970000012,"duration":111.11099999997532,"noteNumber":79,"velocity":85,"programNumber":48},{"time":314221.90800000116,"duration":166.66649999999208,"noteNumber":78,"velocity":85,"programNumber":48},{"time":314444.13000000117,"duration":111.11099999997532,"noteNumber":76,"velocity":85,"programNumber":48},{"time":314666.3520000011,"duration":111.11099999997532,"noteNumber":74,"velocity":85,"programNumber":48},{"time":314888.57400000107,"duration":111.11099999997532,"noteNumber":79,"velocity":85,"programNumber":48},{"time":315110.796000001,"duration":111.11099999997532,"noteNumber":83,"velocity":85,"programNumber":48},{"time":315333.018000001,"duration":111.11099999997532,"noteNumber":86,"velocity":85,"programNumber":48},{"time":315555.2400000009,"duration":222.22200000000885,"noteNumber":86,"velocity":85,"programNumber":48},{"time":315777.46200000093,"duration":166.66649999999208,"noteNumber":84,"velocity":85,"programNumber":48},{"time":315999.68400000094,"duration":111.11099999997532,"noteNumber":83,"velocity":85,"programNumber":48},{"time":316221.9060000009,"duration":111.11099999997532,"noteNumber":81,"velocity":85,"programNumber":48},{"time":316444.12800000084,"duration":166.66649999999208,"noteNumber":79,"velocity":94,"programNumber":48},{"time":316666.35000000085,"duration":166.66649999999208,"noteNumber":62,"velocity":85,"programNumber":48},{"time":316888.57200000086,"duration":166.66649999999208,"noteNumber":64,"velocity":85,"programNumber":48},{"time":317110.79400000087,"duration":166.66649999999208,"noteNumber":66,"velocity":85,"programNumber":48},{"time":317333.0160000009,"duration":166.66649999999208,"noteNumber":67,"velocity":85,"programNumber":48},{"time":317555.2380000009,"duration":166.66649999999208,"noteNumber":67,"velocity":85,"programNumber":48},{"time":317777.4600000009,"duration":55.555500000016764,"noteNumber":69,"velocity":85,"programNumber":48},{"time":317833.0155000009,"duration":55.555500000016764,"noteNumber":71,"velocity":85,"programNumber":48},{"time":317888.5710000009,"duration":55.555500000016764,"noteNumber":69,"velocity":85,"programNumber":48},{"time":317944.12650000094,"duration":55.555500000016764,"noteNumber":71,"velocity":85,"programNumber":48},{"time":317999.68200000096,"duration":111.11099999997532,"noteNumber":67,"velocity":85,"programNumber":48},{"time":318110.79300000094,"duration":111.11099999997532,"noteNumber":69,"velocity":85,"programNumber":48},{"time":318221.9040000009,"duration":166.66649999999208,"noteNumber":71,"velocity":85,"programNumber":48},{"time":318444.1260000009,"duration":166.66649999999208,"noteNumber":66,"velocity":85,"programNumber":48},{"time":318666.34800000093,"duration":166.66649999999208,"noteNumber":67,"velocity":85,"programNumber":48},{"time":318888.57000000094,"duration":166.66649999999208,"noteNumber":69,"velocity":85,"programNumber":48},{"time":319110.79200000095,"duration":166.66649999999208,"noteNumber":71,"velocity":85,"programNumber":48},{"time":319333.01400000096,"duration":166.66649999999208,"noteNumber":71,"velocity":85,"programNumber":48},{"time":319555.23600000096,"duration":55.555500000016764,"noteNumber":72,"velocity":86,"programNumber":48},{"time":319610.791500001,"duration":55.555500000016764,"noteNumber":74,"velocity":86,"programNumber":48},{"time":319666.347000001,"duration":55.555500000016764,"noteNumber":72,"velocity":86,"programNumber":48},{"time":319721.902500001,"duration":55.555500000016764,"noteNumber":74,"velocity":86,"programNumber":48},{"time":319777.45800000103,"duration":111.11099999997532,"noteNumber":71,"velocity":86,"programNumber":48},{"time":319888.569000001,"duration":111.11099999997532,"noteNumber":72,"velocity":89,"programNumber":48},{"time":319999.680000001,"duration":166.66649999999208,"noteNumber":74,"velocity":89,"programNumber":48},{"time":320221.902000001,"duration":166.66649999999208,"noteNumber":74,"velocity":91,"programNumber":48},{"time":320444.124000001,"duration":55.555500000016764,"noteNumber":75,"velocity":91,"programNumber":48},{"time":320499.679500001,"duration":55.555500000016764,"noteNumber":76,"velocity":91,"programNumber":48},{"time":320555.23500000103,"duration":55.555500000016764,"noteNumber":75,"velocity":91,"programNumber":48},{"time":320610.79050000105,"duration":55.555500000016764,"noteNumber":76,"velocity":92,"programNumber":48},{"time":320666.34600000107,"duration":111.11099999997532,"noteNumber":73,"velocity":94,"programNumber":48},{"time":320777.45700000104,"duration":111.11099999997532,"noteNumber":75,"velocity":97,"programNumber":48},{"time":320888.568000001,"duration":444.4440000000177,"noteNumber":76,"velocity":98,"programNumber":48},{"time":321777.45600000105,"duration":666.6660000000265,"noteNumber":64,"velocity":61,"programNumber":48},{"time":322444.1220000011,"duration":166.66649999999208,"noteNumber":69,"velocity":61,"programNumber":48},{"time":322666.3440000011,"duration":222.22200000000885,"noteNumber":67,"velocity":61,"programNumber":48},{"time":322888.5660000011,"duration":222.22200000000885,"noteNumber":66,"velocity":62,"programNumber":48},{"time":323110.7880000011,"duration":222.22200000000885,"noteNumber":64,"velocity":62,"programNumber":48},{"time":323333.0100000011,"duration":166.66649999999208,"noteNumber":62,"velocity":62,"programNumber":48},{"time":323555.2320000011,"duration":222.22200000000885,"noteNumber":74,"velocity":62,"programNumber":48},{"time":323777.45400000113,"duration":222.22200000000885,"noteNumber":73,"velocity":62,"programNumber":48},{"time":323999.67600000114,"duration":222.22200000000885,"noteNumber":72,"velocity":62,"programNumber":48},{"time":324221.89800000115,"duration":222.22200000000885,"noteNumber":71,"velocity":62,"programNumber":48},{"time":324444.12000000116,"duration":222.22200000000885,"noteNumber":74,"velocity":61,"programNumber":48},{"time":324666.34200000117,"duration":222.22200000000885,"noteNumber":73,"velocity":61,"programNumber":48},{"time":324888.5640000012,"duration":222.22200000000885,"noteNumber":72,"velocity":61,"programNumber":48},{"time":325110.7860000012,"duration":166.66649999999208,"noteNumber":71,"velocity":59,"programNumber":48},{"time":325333.0080000012,"duration":666.6660000000265,"noteNumber":64,"velocity":61,"programNumber":48},{"time":325999.6740000012,"duration":166.66649999999208,"noteNumber":69,"velocity":67,"programNumber":48},{"time":326221.89600000123,"duration":222.22200000000885,"noteNumber":67,"velocity":70,"programNumber":48},{"time":326444.11800000124,"duration":222.22200000000885,"noteNumber":66,"velocity":70,"programNumber":48},{"time":326666.34000000125,"duration":222.22200000000885,"noteNumber":64,"velocity":70,"programNumber":48},{"time":326888.56200000126,"duration":166.66649999999208,"noteNumber":62,"velocity":70,"programNumber":48},{"time":327110.78400000127,"duration":222.22200000000885,"noteNumber":74,"velocity":70,"programNumber":48},{"time":327333.0060000013,"duration":222.22200000000885,"noteNumber":76,"velocity":70,"programNumber":48},{"time":327555.2280000013,"duration":222.22200000000885,"noteNumber":78,"velocity":70,"programNumber":48},{"time":327777.4500000013,"duration":222.22200000000885,"noteNumber":79,"velocity":70,"programNumber":48},{"time":327999.6720000013,"duration":222.22200000000885,"noteNumber":74,"velocity":70,"programNumber":48},{"time":328221.8940000013,"duration":222.22200000000885,"noteNumber":76,"velocity":70,"programNumber":48},{"time":328444.1160000013,"duration":222.22200000000885,"noteNumber":78,"velocity":70,"programNumber":48},{"time":328666.3380000013,"duration":166.66649999999208,"noteNumber":79,"velocity":76,"programNumber":48},{"time":328888.56000000134,"duration":444.4440000000177,"noteNumber":81,"velocity":75,"programNumber":48},{"time":329777.4480000014,"duration":444.4440000000177,"noteNumber":86,"velocity":91,"programNumber":48},{"time":329777.4480000014,"duration":444.4440000000177,"noteNumber":74,"velocity":91,"programNumber":48},{"time":330666.3360000014,"duration":444.4440000000177,"noteNumber":79,"velocity":96,"programNumber":48},{"time":330666.3360000014,"duration":444.4440000000177,"noteNumber":71,"velocity":96,"programNumber":48},{"time":330666.3360000014,"duration":444.4440000000177,"noteNumber":62,"velocity":96,"programNumber":48},{"time":331333.00200000143,"duration":166.66649999999208,"noteNumber":74,"velocity":95,"programNumber":48},{"time":331555.22400000144,"duration":166.66649999999208,"noteNumber":71,"velocity":94,"programNumber":48},{"time":331777.44600000145,"duration":166.66649999999208,"noteNumber":67,"velocity":90,"programNumber":48},{"time":331999.66800000146,"duration":166.66649999999208,"noteNumber":71,"velocity":90,"programNumber":48},{"time":332221.89000000147,"duration":166.66649999999208,"noteNumber":74,"velocity":89,"programNumber":48},{"time":332444.1120000015,"duration":166.66649999999208,"noteNumber":79,"velocity":88,"programNumber":48},{"time":332666.3340000015,"duration":166.66649999999208,"noteNumber":74,"velocity":88,"programNumber":48},{"time":332888.5560000015,"duration":166.66649999999208,"noteNumber":79,"velocity":88,"programNumber":48},{"time":333110.7780000015,"duration":166.66649999999208,"noteNumber":83,"velocity":90,"programNumber":48},{"time":333333.0000000015,"duration":370.36999999999534,"noteNumber":86,"velocity":92,"programNumber":48},{"time":333777.44400000153,"duration":370.36999999999534,"noteNumber":78,"velocity":95,"programNumber":48},{"time":333777.44400000153,"duration":370.36999999999534,"noteNumber":69,"velocity":95,"programNumber":48},{"time":333777.44400000153,"duration":370.36999999999534,"noteNumber":62,"velocity":95,"programNumber":48},{"time":334221.88800000155,"duration":444.4440000000177,"noteNumber":79,"velocity":100,"programNumber":48},{"time":334221.88800000155,"duration":444.4440000000177,"noteNumber":71,"velocity":100,"programNumber":48},{"time":334221.88800000155,"duration":444.4440000000177,"noteNumber":62,"velocity":100,"programNumber":48},{"time":334888.5540000016,"duration":166.66649999999208,"noteNumber":74,"velocity":98,"programNumber":48},{"time":335110.7760000016,"duration":166.66649999999208,"noteNumber":71,"velocity":98,"programNumber":48},{"time":335332.9980000016,"duration":166.66649999999208,"noteNumber":67,"velocity":95,"programNumber":48},{"time":335555.2200000016,"duration":166.66649999999208,"noteNumber":71,"velocity":94,"programNumber":48},{"time":335777.4420000016,"duration":166.66649999999208,"noteNumber":74,"velocity":92,"programNumber":48},{"time":335999.6640000016,"duration":166.66649999999208,"noteNumber":79,"velocity":91,"programNumber":48},{"time":336221.8860000016,"duration":166.66649999999208,"noteNumber":74,"velocity":91,"programNumber":48},{"time":336444.10800000164,"duration":166.66649999999208,"noteNumber":79,"velocity":92,"programNumber":48},{"time":336666.33000000165,"duration":166.66649999999208,"noteNumber":83,"velocity":92,"programNumber":48},{"time":336888.55200000165,"duration":370.36999999999534,"noteNumber":86,"velocity":96,"programNumber":48},{"time":337332.9960000017,"duration":370.36999999999534,"noteNumber":78,"velocity":99,"programNumber":48},{"time":337332.9960000017,"duration":370.36999999999534,"noteNumber":69,"velocity":99,"programNumber":48},{"time":337332.9960000017,"duration":370.36999999999534,"noteNumber":62,"velocity":99,"programNumber":48},{"time":337777.4400000017,"duration":444.4440000000177,"noteNumber":79,"velocity":109,"programNumber":48},{"time":337777.4400000017,"duration":444.4440000000177,"noteNumber":71,"velocity":109,"programNumber":48},{"time":337777.4400000017,"duration":444.4440000000177,"noteNumber":62,"velocity":109,"programNumber":48},{"time":338666.3280000017,"duration":444.4440000000177,"noteNumber":79,"velocity":106,"programNumber":48},{"time":338666.3280000017,"duration":444.4440000000177,"noteNumber":71,"velocity":106,"programNumber":48},{"time":338666.3280000017,"duration":444.4440000000177,"noteNumber":62,"velocity":106,"programNumber":48},{"time":339555.21600000176,"duration":370.36999999999534,"noteNumber":79,"velocity":106,"programNumber":48},{"time":339555.21600000176,"duration":370.36999999999534,"noteNumber":71,"velocity":106,"programNumber":48},{"time":339555.21600000176,"duration":370.36999999999534,"noteNumber":62,"velocity":106,"programNumber":48},{"time":339999.6600000018,"duration":222.22200000000885,"noteNumber":67,"velocity":110,"programNumber":48},{"time":339999.6600000018,"duration":222.22200000000885,"noteNumber":55,"velocity":110,"programNumber":48},{"time":340332.99300000176,"duration":55.555500000016764,"noteNumber":67,"velocity":109,"programNumber":48},{"time":340332.99300000176,"duration":55.555500000016764,"noteNumber":55,"velocity":109,"programNumber":48},{"time":340444.1040000018,"duration":444.4440000000177,"noteNumber":67,"velocity":108,"programNumber":48},{"time":340444.1040000018,"duration":444.4440000000177,"noteNumber":55,"velocity":108,"programNumber":48}],[{"time":37.037,"duration":444.444,"noteNumber":62,"velocity":85,"programNumber":44},{"time":37.037,"duration":444.444,"noteNumber":71,"velocity":85,"programNumber":44},{"time":37.037,"duration":444.444,"noteNumber":79,"velocity":85,"programNumber":44},{"time":703.703,"duration":111.11099999999999,"noteNumber":74,"velocity":85,"programNumber":44},{"time":925.925,"duration":444.44399999999996,"noteNumber":79,"velocity":85,"programNumber":44},{"time":1592.591,"duration":111.1110000000001,"noteNumber":74,"velocity":85,"programNumber":44},{"time":1814.813,"duration":111.1110000000001,"noteNumber":79,"velocity":85,"programNumber":44},{"time":2037.0350000000003,"duration":111.11099999999988,"noteNumber":74,"velocity":85,"programNumber":44},{"time":2259.257,"duration":111.11099999999988,"noteNumber":79,"velocity":85,"programNumber":44},{"time":2481.479,"duration":111.11099999999988,"noteNumber":83,"velocity":85,"programNumber":44},{"time":2703.7009999999996,"duration":444.44399999999996,"noteNumber":86,"velocity":85,"programNumber":44},{"time":3592.5889999999995,"duration":444.44399999999996,"noteNumber":84,"velocity":85,"programNumber":44},{"time":4259.254999999999,"duration":111.11099999999988,"noteNumber":81,"velocity":85,"programNumber":44},{"time":4481.476999999999,"duration":444.4440000000004,"noteNumber":84,"velocity":85,"programNumber":44},{"time":5148.142999999999,"duration":111.11099999999988,"noteNumber":81,"velocity":85,"programNumber":44},{"time":5370.364999999999,"duration":111.11099999999988,"noteNumber":84,"velocity":85,"programNumber":44},{"time":5592.586999999999,"duration":111.11099999999988,"noteNumber":81,"velocity":85,"programNumber":44},{"time":5814.808999999998,"duration":111.11099999999988,"noteNumber":78,"velocity":85,"programNumber":44},{"time":6037.030999999998,"duration":111.11099999999988,"noteNumber":81,"velocity":85,"programNumber":44},{"time":6259.252999999998,"duration":444.4440000000004,"noteNumber":74,"velocity":85,"programNumber":44},{"time":7111.103999999998,"duration":74.07399999999961,"noteNumber":62,"velocity":85,"programNumber":44},{"time":7111.103999999998,"duration":74.07399999999961,"noteNumber":59,"velocity":85,"programNumber":44},{"time":7222.214999999998,"duration":74.07399999999961,"noteNumber":62,"velocity":85,"programNumber":44},{"time":7222.214999999998,"duration":74.07399999999961,"noteNumber":59,"velocity":85,"programNumber":44},{"time":7333.325999999998,"duration":74.07399999999961,"noteNumber":62,"velocity":85,"programNumber":44},{"time":7333.325999999998,"duration":74.07399999999961,"noteNumber":59,"velocity":85,"programNumber":44},{"time":7444.436999999998,"duration":74.07399999999961,"noteNumber":62,"velocity":85,"programNumber":44},{"time":7444.436999999998,"duration":74.07399999999961,"noteNumber":59,"velocity":85,"programNumber":44},{"time":7555.547999999998,"duration":74.07399999999961,"noteNumber":62,"velocity":85,"programNumber":44},{"time":7555.547999999998,"duration":74.07399999999961,"noteNumber":59,"velocity":85,"programNumber":44},{"time":7666.658999999998,"duration":74.07399999999961,"noteNumber":62,"velocity":85,"programNumber":44},{"time":7666.658999999998,"duration":74.07399999999961,"noteNumber":59,"velocity":85,"programNumber":44},{"time":7777.769999999998,"duration":74.07399999999961,"noteNumber":62,"velocity":85,"programNumber":44},{"time":7777.769999999998,"duration":74.07399999999961,"noteNumber":59,"velocity":85,"programNumber":44},{"time":7888.880999999998,"duration":74.07399999999961,"noteNumber":62,"velocity":85,"programNumber":44},{"time":7888.880999999998,"duration":74.07399999999961,"noteNumber":59,"velocity":85,"programNumber":44},{"time":7999.9919999999975,"duration":74.07399999999961,"noteNumber":62,"velocity":85,"programNumber":44},{"time":7999.9919999999975,"duration":74.07399999999961,"noteNumber":59,"velocity":85,"programNumber":44},{"time":8111.102999999997,"duration":74.07399999999961,"noteNumber":62,"velocity":85,"programNumber":44},{"time":8111.102999999997,"duration":74.07399999999961,"noteNumber":59,"velocity":85,"programNumber":44},{"time":8222.213999999996,"duration":74.07400000000052,"noteNumber":62,"velocity":85,"programNumber":44},{"time":8222.213999999996,"duration":74.07400000000052,"noteNumber":59,"velocity":85,"programNumber":44},{"time":8333.324999999997,"duration":74.07400000000052,"noteNumber":62,"velocity":85,"programNumber":44},{"time":8333.324999999997,"duration":74.07400000000052,"noteNumber":59,"velocity":85,"programNumber":44},{"time":8444.435999999998,"duration":74.07400000000052,"noteNumber":62,"velocity":85,"programNumber":44},{"time":8444.435999999998,"duration":74.07400000000052,"noteNumber":59,"velocity":85,"programNumber":44},{"time":8555.546999999999,"duration":74.07400000000052,"noteNumber":62,"velocity":85,"programNumber":44},{"time":8555.546999999999,"duration":74.07400000000052,"noteNumber":59,"velocity":85,"programNumber":44},{"time":8666.658,"duration":74.07400000000052,"noteNumber":62,"velocity":85,"programNumber":44},{"time":8666.658,"duration":74.07400000000052,"noteNumber":59,"velocity":85,"programNumber":44},{"time":8777.769,"duration":74.07400000000052,"noteNumber":62,"velocity":85,"programNumber":44},{"time":8777.769,"duration":74.07400000000052,"noteNumber":59,"velocity":85,"programNumber":44},{"time":8888.880000000001,"duration":74.07400000000052,"noteNumber":62,"velocity":85,"programNumber":44},{"time":8888.880000000001,"duration":74.07400000000052,"noteNumber":60,"velocity":85,"programNumber":44},{"time":8999.991000000002,"duration":74.07400000000052,"noteNumber":62,"velocity":85,"programNumber":44},{"time":8999.991000000002,"duration":74.07400000000052,"noteNumber":60,"velocity":85,"programNumber":44},{"time":9111.102000000003,"duration":74.07400000000052,"noteNumber":62,"velocity":85,"programNumber":44},{"time":9111.102000000003,"duration":74.07400000000052,"noteNumber":60,"velocity":85,"programNumber":44},{"time":9222.213000000003,"duration":74.07400000000052,"noteNumber":62,"velocity":85,"programNumber":44},{"time":9222.213000000003,"duration":74.07400000000052,"noteNumber":60,"velocity":85,"programNumber":44},{"time":9333.324000000004,"duration":74.07400000000052,"noteNumber":62,"velocity":85,"programNumber":44},{"time":9333.324000000004,"duration":74.07400000000052,"noteNumber":60,"velocity":85,"programNumber":44},{"time":9444.435000000005,"duration":74.07400000000052,"noteNumber":62,"velocity":85,"programNumber":44},{"time":9444.435000000005,"duration":74.07400000000052,"noteNumber":60,"velocity":85,"programNumber":44},{"time":9555.546000000006,"duration":74.07400000000052,"noteNumber":62,"velocity":85,"programNumber":44},{"time":9555.546000000006,"duration":74.07400000000052,"noteNumber":60,"velocity":85,"programNumber":44},{"time":9666.657000000007,"duration":74.07400000000052,"noteNumber":62,"velocity":85,"programNumber":44},{"time":9666.657000000007,"duration":74.07400000000052,"noteNumber":60,"velocity":85,"programNumber":44},{"time":9777.768000000007,"duration":74.07400000000052,"noteNumber":62,"velocity":85,"programNumber":44},{"time":9777.768000000007,"duration":74.07400000000052,"noteNumber":60,"velocity":85,"programNumber":44},{"time":9888.879000000008,"duration":74.07400000000052,"noteNumber":62,"velocity":85,"programNumber":44},{"time":9888.879000000008,"duration":74.07400000000052,"noteNumber":60,"velocity":85,"programNumber":44},{"time":9999.990000000009,"duration":74.07400000000052,"noteNumber":62,"velocity":85,"programNumber":44},{"time":9999.990000000009,"duration":74.07400000000052,"noteNumber":60,"velocity":85,"programNumber":44},{"time":10111.10100000001,"duration":74.07400000000052,"noteNumber":62,"velocity":85,"programNumber":44},{"time":10111.10100000001,"duration":74.07400000000052,"noteNumber":60,"velocity":85,"programNumber":44},{"time":10222.21200000001,"duration":74.07400000000052,"noteNumber":62,"velocity":85,"programNumber":44},{"time":10222.21200000001,"duration":74.07400000000052,"noteNumber":60,"velocity":85,"programNumber":44},{"time":10333.323000000011,"duration":74.07400000000052,"noteNumber":62,"velocity":85,"programNumber":44},{"time":10333.323000000011,"duration":74.07400000000052,"noteNumber":60,"velocity":85,"programNumber":44},{"time":10444.434000000012,"duration":74.07400000000052,"noteNumber":62,"velocity":85,"programNumber":44},{"time":10444.434000000012,"duration":74.07400000000052,"noteNumber":60,"velocity":85,"programNumber":44},{"time":10555.545000000013,"duration":74.07400000000052,"noteNumber":62,"velocity":85,"programNumber":44},{"time":10555.545000000013,"duration":74.07400000000052,"noteNumber":60,"velocity":85,"programNumber":44},{"time":10666.656000000014,"duration":74.07400000000052,"noteNumber":62,"velocity":85,"programNumber":44},{"time":10666.656000000014,"duration":74.07400000000052,"noteNumber":59,"velocity":85,"programNumber":44},{"time":10777.767000000014,"duration":74.07400000000052,"noteNumber":62,"velocity":85,"programNumber":44},{"time":10777.767000000014,"duration":74.07400000000052,"noteNumber":59,"velocity":85,"programNumber":44},{"time":10888.878000000015,"duration":74.07400000000052,"noteNumber":62,"velocity":85,"programNumber":44},{"time":10888.878000000015,"duration":74.07400000000052,"noteNumber":59,"velocity":85,"programNumber":44},{"time":10999.989000000016,"duration":74.07400000000052,"noteNumber":62,"velocity":85,"programNumber":44},{"time":10999.989000000016,"duration":74.07400000000052,"noteNumber":59,"velocity":85,"programNumber":44},{"time":11111.100000000017,"duration":74.07400000000052,"noteNumber":62,"velocity":85,"programNumber":44},{"time":11111.100000000017,"duration":74.07400000000052,"noteNumber":59,"velocity":85,"programNumber":44},{"time":11222.211000000018,"duration":74.07400000000052,"noteNumber":62,"velocity":85,"programNumber":44},{"time":11222.211000000018,"duration":74.07400000000052,"noteNumber":59,"velocity":85,"programNumber":44},{"time":11333.322000000018,"duration":74.07400000000052,"noteNumber":62,"velocity":85,"programNumber":44},{"time":11333.322000000018,"duration":74.07400000000052,"noteNumber":59,"velocity":85,"programNumber":44},{"time":11444.43300000002,"duration":74.07400000000052,"noteNumber":62,"velocity":85,"programNumber":44},{"time":11444.43300000002,"duration":74.07400000000052,"noteNumber":59,"velocity":85,"programNumber":44},{"time":11555.54400000002,"duration":74.07400000000052,"noteNumber":62,"velocity":85,"programNumber":44},{"time":11555.54400000002,"duration":74.07400000000052,"noteNumber":59,"velocity":85,"programNumber":44},{"time":11666.65500000002,"duration":74.07400000000052,"noteNumber":62,"velocity":85,"programNumber":44},{"time":11666.65500000002,"duration":74.07400000000052,"noteNumber":59,"velocity":85,"programNumber":44},{"time":11777.766000000021,"duration":74.07400000000052,"noteNumber":62,"velocity":85,"programNumber":44},{"time":11777.766000000021,"duration":74.07400000000052,"noteNumber":59,"velocity":85,"programNumber":44},{"time":11888.877000000022,"duration":74.07400000000052,"noteNumber":62,"velocity":85,"programNumber":44},{"time":11888.877000000022,"duration":74.07400000000052,"noteNumber":59,"velocity":85,"programNumber":44},{"time":11999.988000000023,"duration":74.07400000000052,"noteNumber":62,"velocity":85,"programNumber":44},{"time":11999.988000000023,"duration":74.07400000000052,"noteNumber":59,"velocity":85,"programNumber":44},{"time":12111.099000000024,"duration":74.07400000000052,"noteNumber":62,"velocity":85,"programNumber":44},{"time":12111.099000000024,"duration":74.07400000000052,"noteNumber":59,"velocity":85,"programNumber":44},{"time":12222.210000000025,"duration":74.07400000000052,"noteNumber":62,"velocity":85,"programNumber":44},{"time":12222.210000000025,"duration":74.07400000000052,"noteNumber":59,"velocity":85,"programNumber":44},{"time":12333.321000000025,"duration":74.07400000000052,"noteNumber":62,"velocity":85,"programNumber":44},{"time":12333.321000000025,"duration":74.07400000000052,"noteNumber":59,"velocity":85,"programNumber":44},{"time":12444.432000000026,"duration":74.07400000000052,"noteNumber":62,"velocity":85,"programNumber":44},{"time":12444.432000000026,"duration":74.07400000000052,"noteNumber":60,"velocity":85,"programNumber":44},{"time":12555.543000000027,"duration":74.07400000000052,"noteNumber":62,"velocity":85,"programNumber":44},{"time":12555.543000000027,"duration":74.07400000000052,"noteNumber":60,"velocity":85,"programNumber":44},{"time":12666.654000000028,"duration":74.07400000000052,"noteNumber":62,"velocity":85,"programNumber":44},{"time":12666.654000000028,"duration":74.07400000000052,"noteNumber":60,"velocity":85,"programNumber":44},{"time":12777.765000000029,"duration":74.07400000000052,"noteNumber":62,"velocity":85,"programNumber":44},{"time":12777.765000000029,"duration":74.07400000000052,"noteNumber":60,"velocity":85,"programNumber":44},{"time":12888.87600000003,"duration":74.07400000000052,"noteNumber":62,"velocity":85,"programNumber":44},{"time":12888.87600000003,"duration":74.07400000000052,"noteNumber":60,"velocity":85,"programNumber":44},{"time":12999.98700000003,"duration":74.07400000000052,"noteNumber":62,"velocity":85,"programNumber":44},{"time":12999.98700000003,"duration":74.07400000000052,"noteNumber":60,"velocity":85,"programNumber":44},{"time":13111.09800000003,"duration":74.07400000000052,"noteNumber":62,"velocity":85,"programNumber":44},{"time":13111.09800000003,"duration":74.07400000000052,"noteNumber":60,"velocity":85,"programNumber":44},{"time":13222.209000000032,"duration":74.07400000000052,"noteNumber":62,"velocity":85,"programNumber":44},{"time":13222.209000000032,"duration":74.07400000000052,"noteNumber":60,"velocity":85,"programNumber":44},{"time":13333.320000000032,"duration":74.07400000000052,"noteNumber":62,"velocity":85,"programNumber":44},{"time":13333.320000000032,"duration":74.07400000000052,"noteNumber":60,"velocity":85,"programNumber":44},{"time":13444.431000000033,"duration":74.07400000000052,"noteNumber":62,"velocity":85,"programNumber":44},{"time":13444.431000000033,"duration":74.07400000000052,"noteNumber":60,"velocity":85,"programNumber":44},{"time":13555.542000000034,"duration":74.07400000000052,"noteNumber":62,"velocity":85,"programNumber":44},{"time":13555.542000000034,"duration":74.07400000000052,"noteNumber":60,"velocity":85,"programNumber":44},{"time":13666.653000000035,"duration":74.07400000000052,"noteNumber":62,"velocity":85,"programNumber":44},{"time":13666.653000000035,"duration":74.07400000000052,"noteNumber":60,"velocity":85,"programNumber":44},{"time":13777.764000000036,"duration":74.07400000000052,"noteNumber":62,"velocity":85,"programNumber":44},{"time":13777.764000000036,"duration":74.07400000000052,"noteNumber":60,"velocity":85,"programNumber":44},{"time":13888.875000000036,"duration":74.07400000000052,"noteNumber":62,"velocity":85,"programNumber":44},{"time":13888.875000000036,"duration":74.07400000000052,"noteNumber":60,"velocity":85,"programNumber":44},{"time":13999.986000000037,"duration":74.07400000000052,"noteNumber":62,"velocity":85,"programNumber":44},{"time":13999.986000000037,"duration":74.07400000000052,"noteNumber":60,"velocity":85,"programNumber":44},{"time":14111.097000000038,"duration":74.07400000000052,"noteNumber":62,"velocity":85,"programNumber":44},{"time":14111.097000000038,"duration":74.07400000000052,"noteNumber":60,"velocity":85,"programNumber":44},{"time":14222.208000000039,"duration":444.4439999999995,"noteNumber":62,"velocity":85,"programNumber":44},{"time":14222.208000000039,"duration":444.4439999999995,"noteNumber":59,"velocity":85,"programNumber":44},{"time":14666.652000000038,"duration":166.66649999999936,"noteNumber":72,"velocity":85,"programNumber":44},{"time":14888.874000000038,"duration":166.66649999999936,"noteNumber":72,"velocity":85,"programNumber":44},{"time":15111.096000000038,"duration":166.66649999999936,"noteNumber":74,"velocity":85,"programNumber":44},{"time":15333.318000000038,"duration":166.66649999999936,"noteNumber":74,"velocity":85,"programNumber":44},{"time":15555.540000000037,"duration":222.22199999999975,"noteNumber":72,"velocity":85,"programNumber":44},{"time":15777.762000000037,"duration":111.11100000000079,"noteNumber":71,"velocity":85,"programNumber":44},{"time":15888.873000000038,"duration":111.11100000000079,"noteNumber":69,"velocity":85,"programNumber":44},{"time":15999.984000000039,"duration":166.66649999999936,"noteNumber":67,"velocity":85,"programNumber":44},{"time":16222.206000000038,"duration":166.66649999999936,"noteNumber":67,"velocity":85,"programNumber":44},{"time":16444.428000000036,"duration":166.66649999999936,"noteNumber":66,"velocity":85,"programNumber":44},{"time":16666.650000000034,"duration":166.66649999999936,"noteNumber":66,"velocity":85,"programNumber":44},{"time":16888.872000000032,"duration":444.4439999999995,"noteNumber":67,"velocity":85,"programNumber":44},{"time":17777.76000000003,"duration":888.887999999999,"noteNumber":71,"velocity":47,"programNumber":44},{"time":18666.64800000003,"duration":888.887999999999,"noteNumber":72,"velocity":47,"programNumber":44},{"time":19555.53600000003,"duration":111.11100000000079,"noteNumber":71,"velocity":47,"programNumber":44},{"time":19666.64700000003,"duration":296.29599999999846,"noteNumber":69,"velocity":47,"programNumber":44},{"time":19999.98000000003,"duration":444.4439999999995,"noteNumber":69,"velocity":47,"programNumber":44},{"time":20444.424000000028,"duration":111.11100000000079,"noteNumber":69,"velocity":47,"programNumber":44},{"time":20555.53500000003,"duration":296.29599999999846,"noteNumber":67,"velocity":47,"programNumber":44},{"time":20888.868000000028,"duration":444.4439999999995,"noteNumber":67,"velocity":47,"programNumber":44},{"time":21333.312000000027,"duration":333.3329999999987,"noteNumber":64,"velocity":47,"programNumber":44},{"time":21777.756000000027,"duration":333.3329999999987,"noteNumber":64,"velocity":47,"programNumber":44},{"time":22222.200000000026,"duration":333.3329999999987,"noteNumber":60,"velocity":47,"programNumber":44},{"time":22666.644000000026,"duration":333.3329999999987,"noteNumber":57,"velocity":47,"programNumber":44},{"time":23111.088000000025,"duration":222.22200000000157,"noteNumber":62,"velocity":47,"programNumber":44},{"time":23555.53200000003,"duration":222.22200000000157,"noteNumber":66,"velocity":47,"programNumber":44},{"time":23999.97600000003,"duration":222.22200000000157,"noteNumber":67,"velocity":47,"programNumber":44},{"time":24888.864000000034,"duration":888.887999999999,"noteNumber":71,"velocity":47,"programNumber":44},{"time":25777.752000000033,"duration":888.887999999999,"noteNumber":72,"velocity":47,"programNumber":44},{"time":26666.640000000032,"duration":222.22200000000157,"noteNumber":71,"velocity":47,"programNumber":44},{"time":26888.862000000034,"duration":111.11100000000079,"noteNumber":69,"velocity":47,"programNumber":44},{"time":27111.084000000035,"duration":111.11100000000079,"noteNumber":69,"velocity":47,"programNumber":44},{"time":27333.306000000037,"duration":111.11100000000079,"noteNumber":69,"velocity":47,"programNumber":44},{"time":27555.52800000004,"duration":222.22200000000157,"noteNumber":69,"velocity":47,"programNumber":44},{"time":27777.75000000004,"duration":111.11100000000079,"noteNumber":67,"velocity":47,"programNumber":44},{"time":27999.97200000004,"duration":111.11100000000079,"noteNumber":67,"velocity":47,"programNumber":44},{"time":28222.194000000043,"duration":111.11100000000079,"noteNumber":67,"velocity":47,"programNumber":44},{"time":28444.416000000045,"duration":333.3329999999987,"noteNumber":64,"velocity":47,"programNumber":44},{"time":28888.860000000044,"duration":166.66649999999936,"noteNumber":64,"velocity":47,"programNumber":44},{"time":29111.082000000042,"duration":166.66649999999936,"noteNumber":64,"velocity":47,"programNumber":44},{"time":29333.30400000004,"duration":333.3329999999987,"noteNumber":60,"velocity":47,"programNumber":44},{"time":29777.74800000004,"duration":166.66649999999936,"noteNumber":60,"velocity":47,"programNumber":44},{"time":29999.970000000038,"duration":166.66649999999936,"noteNumber":60,"velocity":47,"programNumber":44},{"time":30222.192000000035,"duration":1111.1100000000006,"noteNumber":59,"velocity":85,"programNumber":44},{"time":31333.302000000036,"duration":55.555499999998574,"noteNumber":59,"velocity":61,"programNumber":44},{"time":31388.857500000035,"duration":55.555499999998574,"noteNumber":60,"velocity":61,"programNumber":44},{"time":31444.413000000033,"duration":55.555499999998574,"noteNumber":57,"velocity":61,"programNumber":44},{"time":31499.96850000003,"duration":55.555499999998574,"noteNumber":59,"velocity":61,"programNumber":44},{"time":31555.52400000003,"duration":222.22200000000157,"noteNumber":60,"velocity":61,"programNumber":44},{"time":31777.746000000032,"duration":222.22200000000157,"noteNumber":57,"velocity":61,"programNumber":44},{"time":31999.968000000033,"duration":1111.109999999997,"noteNumber":67,"velocity":85,"programNumber":44},{"time":33111.07800000003,"duration":55.55550000000221,"noteNumber":67,"velocity":61,"programNumber":44},{"time":33166.63350000003,"duration":55.55550000000221,"noteNumber":69,"velocity":61,"programNumber":44},{"time":33222.189000000035,"duration":55.55550000000221,"noteNumber":66,"velocity":61,"programNumber":44},{"time":33277.74450000004,"duration":55.55550000000221,"noteNumber":67,"velocity":61,"programNumber":44},{"time":33333.30000000004,"duration":222.22200000000157,"noteNumber":69,"velocity":61,"programNumber":44},{"time":33555.52200000004,"duration":222.22200000000157,"noteNumber":66,"velocity":61,"programNumber":44},{"time":33777.74400000004,"duration":74.07400000000052,"noteNumber":71,"velocity":53,"programNumber":44},{"time":33888.85500000004,"duration":74.07400000000052,"noteNumber":71,"velocity":53,"programNumber":44},{"time":33999.96600000004,"duration":74.07400000000052,"noteNumber":71,"velocity":55,"programNumber":44},{"time":34111.077000000034,"duration":74.07400000000052,"noteNumber":71,"velocity":55,"programNumber":44},{"time":34222.18800000003,"duration":74.07400000000052,"noteNumber":71,"velocity":55,"programNumber":44},{"time":34333.29900000003,"duration":74.07400000000052,"noteNumber":71,"velocity":56,"programNumber":44},{"time":34444.410000000025,"duration":74.07400000000052,"noteNumber":71,"velocity":56,"programNumber":44},{"time":34555.52100000002,"duration":74.07400000000052,"noteNumber":71,"velocity":58,"programNumber":44},{"time":34666.63200000002,"duration":74.07400000000052,"noteNumber":72,"velocity":58,"programNumber":44},{"time":34777.74300000002,"duration":74.07400000000052,"noteNumber":72,"velocity":59,"programNumber":44},{"time":34888.854000000014,"duration":74.07400000000052,"noteNumber":72,"velocity":59,"programNumber":44},{"time":34999.96500000001,"duration":74.07400000000052,"noteNumber":72,"velocity":61,"programNumber":44},{"time":35111.07600000001,"duration":74.07400000000052,"noteNumber":74,"velocity":61,"programNumber":44},{"time":35222.187000000005,"duration":74.07400000000052,"noteNumber":74,"velocity":62,"programNumber":44},{"time":35333.298,"duration":74.07400000000052,"noteNumber":74,"velocity":62,"programNumber":44},{"time":35444.409,"duration":74.07400000000052,"noteNumber":74,"velocity":64,"programNumber":44},{"time":35555.52,"duration":74.07400000000052,"noteNumber":71,"velocity":64,"programNumber":44},{"time":35666.630999999994,"duration":74.07400000000052,"noteNumber":71,"velocity":65,"programNumber":44},{"time":35777.74199999999,"duration":74.07400000000052,"noteNumber":71,"velocity":65,"programNumber":44},{"time":35888.85299999999,"duration":74.07400000000052,"noteNumber":71,"velocity":67,"programNumber":44},{"time":35999.963999999985,"duration":74.07400000000052,"noteNumber":74,"velocity":67,"programNumber":44},{"time":36111.07499999998,"duration":74.07400000000052,"noteNumber":74,"velocity":68,"programNumber":44},{"time":36222.18599999998,"duration":74.07400000000052,"noteNumber":74,"velocity":68,"programNumber":44},{"time":36333.29699999998,"duration":74.07400000000052,"noteNumber":74,"velocity":70,"programNumber":44},{"time":36444.407999999974,"duration":74.07400000000052,"noteNumber":74,"velocity":70,"programNumber":44},{"time":36555.51899999997,"duration":74.07400000000052,"noteNumber":74,"velocity":71,"programNumber":44},{"time":36666.62999999997,"duration":74.07400000000052,"noteNumber":74,"velocity":71,"programNumber":44},{"time":36777.740999999965,"duration":74.07400000000052,"noteNumber":74,"velocity":73,"programNumber":44},{"time":36888.85199999996,"duration":74.07400000000052,"noteNumber":79,"velocity":73,"programNumber":44},{"time":36999.96299999996,"duration":74.07400000000052,"noteNumber":79,"velocity":73,"programNumber":44},{"time":37111.07399999996,"duration":74.07400000000052,"noteNumber":79,"velocity":74,"programNumber":44},{"time":37222.184999999954,"duration":74.07400000000052,"noteNumber":79,"velocity":74,"programNumber":44},{"time":37333.29599999995,"duration":74.07400000000052,"noteNumber":78,"velocity":85,"programNumber":44},{"time":37444.40699999995,"duration":74.07400000000052,"noteNumber":78,"velocity":85,"programNumber":44},{"time":37555.517999999945,"duration":74.07400000000052,"noteNumber":78,"velocity":85,"programNumber":44},{"time":37666.62899999994,"duration":74.07400000000052,"noteNumber":78,"velocity":85,"programNumber":44},{"time":37777.73999999994,"duration":74.07400000000052,"noteNumber":78,"velocity":85,"programNumber":44},{"time":37888.85099999994,"duration":74.07400000000052,"noteNumber":78,"velocity":85,"programNumber":44},{"time":37999.961999999934,"duration":74.07400000000052,"noteNumber":78,"velocity":85,"programNumber":44},{"time":38111.07299999993,"duration":74.07400000000052,"noteNumber":78,"velocity":85,"programNumber":44},{"time":38222.18399999993,"duration":74.07400000000052,"noteNumber":79,"velocity":85,"programNumber":44},{"time":38333.294999999925,"duration":74.07400000000052,"noteNumber":79,"velocity":85,"programNumber":44},{"time":38444.40599999992,"duration":74.07400000000052,"noteNumber":79,"velocity":85,"programNumber":44},{"time":38555.51699999992,"duration":74.07400000000052,"noteNumber":79,"velocity":85,"programNumber":44},{"time":38666.62799999992,"duration":74.07400000000052,"noteNumber":79,"velocity":85,"programNumber":44},{"time":38777.738999999914,"duration":74.07400000000052,"noteNumber":79,"velocity":85,"programNumber":44},{"time":38888.84999999991,"duration":74.07400000000052,"noteNumber":79,"velocity":85,"programNumber":44},{"time":38999.96099999991,"duration":74.07400000000052,"noteNumber":79,"velocity":85,"programNumber":44},{"time":39111.071999999906,"duration":74.07400000000052,"noteNumber":78,"velocity":85,"programNumber":44},{"time":39222.1829999999,"duration":74.07400000000052,"noteNumber":78,"velocity":85,"programNumber":44},{"time":39333.2939999999,"duration":74.07400000000052,"noteNumber":78,"velocity":85,"programNumber":44},{"time":39444.4049999999,"duration":74.07400000000052,"noteNumber":78,"velocity":85,"programNumber":44},{"time":39555.515999999894,"duration":74.07400000000052,"noteNumber":78,"velocity":85,"programNumber":44},{"time":39666.62699999989,"duration":74.07400000000052,"noteNumber":78,"velocity":85,"programNumber":44},{"time":39777.73799999989,"duration":74.07400000000052,"noteNumber":78,"velocity":85,"programNumber":44},{"time":39888.848999999886,"duration":74.07400000000052,"noteNumber":78,"velocity":85,"programNumber":44},{"time":39999.95999999988,"duration":74.07400000000052,"noteNumber":79,"velocity":85,"programNumber":44},{"time":40111.07099999988,"duration":74.07400000000052,"noteNumber":79,"velocity":85,"programNumber":44},{"time":40222.18199999988,"duration":74.07400000000052,"noteNumber":79,"velocity":85,"programNumber":44},{"time":40333.292999999874,"duration":74.07400000000052,"noteNumber":79,"velocity":85,"programNumber":44},{"time":40444.40399999987,"duration":74.07400000000052,"noteNumber":79,"velocity":85,"programNumber":44},{"time":40555.51499999987,"duration":74.07400000000052,"noteNumber":79,"velocity":85,"programNumber":44},{"time":40666.625999999866,"duration":74.07400000000052,"noteNumber":79,"velocity":85,"programNumber":44},{"time":40777.73699999986,"duration":74.07400000000052,"noteNumber":79,"velocity":85,"programNumber":44},{"time":40888.84799999986,"duration":111.11099999999715,"noteNumber":74,"velocity":85,"programNumber":44},{"time":41111.069999999854,"duration":333.3329999999987,"noteNumber":74,"velocity":85,"programNumber":44},{"time":41555.51399999985,"duration":333.3329999999987,"noteNumber":74,"velocity":85,"programNumber":44},{"time":41999.957999999846,"duration":333.3329999999987,"noteNumber":74,"velocity":85,"programNumber":44},{"time":42444.40199999984,"duration":333.3329999999987,"noteNumber":74,"velocity":85,"programNumber":44},{"time":42888.84599999984,"duration":333.3329999999987,"noteNumber":74,"velocity":85,"programNumber":44},{"time":43333.28999999983,"duration":333.3329999999987,"noteNumber":74,"velocity":85,"programNumber":44},{"time":43777.73399999983,"duration":333.3329999999987,"noteNumber":74,"velocity":85,"programNumber":44},{"time":44222.177999999825,"duration":222.22200000000157,"noteNumber":74,"velocity":85,"programNumber":44},{"time":44444.39999999983,"duration":74.07400000000052,"noteNumber":73,"velocity":85,"programNumber":44},{"time":44555.510999999824,"duration":74.07400000000052,"noteNumber":73,"velocity":85,"programNumber":44},{"time":44555.510999999824,"duration":74.07400000000052,"noteNumber":76,"velocity":85,"programNumber":44},{"time":44666.62199999982,"duration":74.07400000000052,"noteNumber":73,"velocity":85,"programNumber":44},{"time":44666.62199999982,"duration":74.07400000000052,"noteNumber":76,"velocity":85,"programNumber":44},{"time":44777.73299999982,"duration":74.07400000000052,"noteNumber":73,"velocity":85,"programNumber":44},{"time":44777.73299999982,"duration":74.07400000000052,"noteNumber":76,"velocity":85,"programNumber":44},{"time":44888.843999999815,"duration":74.07400000000052,"noteNumber":74,"velocity":85,"programNumber":44},{"time":44888.843999999815,"duration":74.07400000000052,"noteNumber":78,"velocity":85,"programNumber":44},{"time":44999.95499999981,"duration":74.07400000000052,"noteNumber":74,"velocity":85,"programNumber":44},{"time":44999.95499999981,"duration":74.07400000000052,"noteNumber":78,"velocity":85,"programNumber":44},{"time":45111.06599999981,"duration":74.07400000000052,"noteNumber":74,"velocity":85,"programNumber":44},{"time":45111.06599999981,"duration":74.07400000000052,"noteNumber":78,"velocity":85,"programNumber":44},{"time":45222.17699999981,"duration":74.07400000000052,"noteNumber":74,"velocity":85,"programNumber":44},{"time":45222.17699999981,"duration":74.07400000000052,"noteNumber":78,"velocity":85,"programNumber":44},{"time":45333.287999999804,"duration":74.07400000000052,"noteNumber":76,"velocity":85,"programNumber":44},{"time":45333.287999999804,"duration":74.07400000000052,"noteNumber":73,"velocity":85,"programNumber":44},{"time":45444.3989999998,"duration":74.07400000000052,"noteNumber":76,"velocity":85,"programNumber":44},{"time":45444.3989999998,"duration":74.07400000000052,"noteNumber":73,"velocity":85,"programNumber":44},{"time":45555.5099999998,"duration":74.07400000000052,"noteNumber":76,"velocity":85,"programNumber":44},{"time":45555.5099999998,"duration":74.07400000000052,"noteNumber":73,"velocity":85,"programNumber":44},{"time":45666.620999999795,"duration":74.07400000000052,"noteNumber":76,"velocity":85,"programNumber":44},{"time":45666.620999999795,"duration":74.07400000000052,"noteNumber":73,"velocity":85,"programNumber":44},{"time":45777.73199999979,"duration":74.07400000000052,"noteNumber":74,"velocity":85,"programNumber":44},{"time":45777.73199999979,"duration":74.07400000000052,"noteNumber":78,"velocity":85,"programNumber":44},{"time":45888.84299999979,"duration":74.07400000000052,"noteNumber":74,"velocity":85,"programNumber":44},{"time":45888.84299999979,"duration":74.07400000000052,"noteNumber":78,"velocity":85,"programNumber":44},{"time":45999.95399999979,"duration":74.07400000000052,"noteNumber":74,"velocity":85,"programNumber":44},{"time":45999.95399999979,"duration":74.07400000000052,"noteNumber":78,"velocity":85,"programNumber":44},{"time":46111.064999999784,"duration":74.07400000000052,"noteNumber":74,"velocity":85,"programNumber":44},{"time":46111.064999999784,"duration":74.07400000000052,"noteNumber":78,"velocity":85,"programNumber":44},{"time":46222.17599999978,"duration":166.66649999999936,"noteNumber":73,"velocity":85,"programNumber":44},{"time":46222.17599999978,"duration":166.66649999999936,"noteNumber":76,"velocity":85,"programNumber":44},{"time":46444.39799999978,"duration":166.66649999999936,"noteNumber":69,"velocity":85,"programNumber":44},{"time":46666.619999999784,"duration":166.66649999999936,"noteNumber":69,"velocity":85,"programNumber":44},{"time":46888.841999999786,"duration":166.66649999999936,"noteNumber":69,"velocity":85,"programNumber":44},{"time":47111.06399999979,"duration":444.44400000000314,"noteNumber":69,"velocity":85,"programNumber":44},{"time":47999.951999999794,"duration":666.6659999999974,"noteNumber":69,"velocity":55,"programNumber":44},{"time":48666.61799999979,"duration":74.07400000000052,"noteNumber":67,"velocity":55,"programNumber":44},{"time":48740.69199999979,"duration":74.07400000000052,"noteNumber":66,"velocity":55,"programNumber":44},{"time":48814.76599999979,"duration":74.07400000000052,"noteNumber":64,"velocity":55,"programNumber":44},{"time":48888.83999999979,"duration":222.22200000000157,"noteNumber":62,"velocity":55,"programNumber":44},{"time":49333.283999999796,"duration":222.22200000000157,"noteNumber":71,"velocity":55,"programNumber":44},{"time":49777.7279999998,"duration":222.22200000000157,"noteNumber":67,"velocity":55,"programNumber":44},{"time":50222.1719999998,"duration":222.22200000000157,"noteNumber":64,"velocity":55,"programNumber":44},{"time":50666.615999999805,"duration":222.22200000000157,"noteNumber":69,"velocity":55,"programNumber":44},{"time":51555.503999999804,"duration":666.6659999999974,"noteNumber":66,"velocity":55,"programNumber":44},{"time":52222.1699999998,"duration":74.07400000000052,"noteNumber":64,"velocity":55,"programNumber":44},{"time":52296.2439999998,"duration":74.07400000000052,"noteNumber":62,"velocity":55,"programNumber":44},{"time":52370.3179999998,"duration":74.07400000000052,"noteNumber":61,"velocity":55,"programNumber":44},{"time":52444.3919999998,"duration":222.22200000000157,"noteNumber":59,"velocity":55,"programNumber":44},{"time":52888.83599999981,"duration":222.22200000000157,"noteNumber":67,"velocity":55,"programNumber":44},{"time":53333.27999999981,"duration":888.887999999999,"noteNumber":66,"velocity":55,"programNumber":44},{"time":54222.16799999981,"duration":444.44400000000314,"noteNumber":64,"velocity":55,"programNumber":44},{"time":55111.055999999815,"duration":666.6659999999974,"noteNumber":69,"velocity":55,"programNumber":44},{"time":55777.72199999981,"duration":74.07400000000052,"noteNumber":67,"velocity":55,"programNumber":44},{"time":55851.79599999981,"duration":74.07400000000052,"noteNumber":66,"velocity":55,"programNumber":44},{"time":55925.86999999981,"duration":74.07400000000052,"noteNumber":64,"velocity":55,"programNumber":44},{"time":55999.943999999814,"duration":222.22200000000157,"noteNumber":62,"velocity":55,"programNumber":44},{"time":56444.38799999982,"duration":222.22200000000157,"noteNumber":71,"velocity":55,"programNumber":44},{"time":56888.83199999982,"duration":222.22200000000157,"noteNumber":67,"velocity":55,"programNumber":44},{"time":57333.27599999982,"duration":222.22200000000157,"noteNumber":64,"velocity":55,"programNumber":44},{"time":57777.71999999983,"duration":222.22200000000157,"noteNumber":69,"velocity":55,"programNumber":44},{"time":58388.83049999983,"duration":166.66649999999936,"noteNumber":67,"velocity":55,"programNumber":44},{"time":58666.607999999826,"duration":222.22200000000157,"noteNumber":67,"velocity":55,"programNumber":44},{"time":58888.82999999983,"duration":222.22200000000157,"noteNumber":66,"velocity":55,"programNumber":44},{"time":59333.27399999983,"duration":111.11099999999715,"noteNumber":79,"velocity":55,"programNumber":44},{"time":59555.495999999825,"duration":222.22200000000157,"noteNumber":79,"velocity":55,"programNumber":44},{"time":59777.717999999826,"duration":222.22200000000157,"noteNumber":78,"velocity":55,"programNumber":44},{"time":60222.16199999983,"duration":166.66649999999936,"noteNumber":67,"velocity":55,"programNumber":44},{"time":60444.38399999983,"duration":166.66649999999936,"noteNumber":66,"velocity":55,"programNumber":44},{"time":60666.60599999983,"duration":166.66649999999936,"noteNumber":66,"velocity":55,"programNumber":44},{"time":60888.827999999834,"duration":166.66649999999936,"noteNumber":67,"velocity":55,"programNumber":44},{"time":61111.049999999836,"duration":166.66649999999936,"noteNumber":67,"velocity":55,"programNumber":44},{"time":61333.27199999984,"duration":166.66649999999936,"noteNumber":69,"velocity":55,"programNumber":44},{"time":61555.49399999984,"duration":166.66649999999936,"noteNumber":69,"velocity":55,"programNumber":44},{"time":61777.71599999984,"duration":166.66649999999936,"noteNumber":66,"velocity":55,"programNumber":44},{"time":61999.93799999984,"duration":166.66649999999936,"noteNumber":66,"velocity":55,"programNumber":44},{"time":62222.15999999984,"duration":166.66649999999936,"noteNumber":64,"velocity":55,"programNumber":44},{"time":62444.381999999845,"duration":166.66649999999936,"noteNumber":64,"velocity":55,"programNumber":44},{"time":62666.60399999985,"duration":166.66649999999936,"noteNumber":66,"velocity":55,"programNumber":44},{"time":62888.82599999985,"duration":166.66649999999936,"noteNumber":66,"velocity":55,"programNumber":44},{"time":63111.04799999985,"duration":166.66649999999936,"noteNumber":67,"velocity":55,"programNumber":44},{"time":63333.26999999985,"duration":166.66649999999936,"noteNumber":67,"velocity":55,"programNumber":44},{"time":63555.49199999985,"duration":166.66649999999936,"noteNumber":64,"velocity":55,"programNumber":44},{"time":63777.713999999854,"duration":166.66649999999936,"noteNumber":64,"velocity":55,"programNumber":44},{"time":63999.935999999856,"duration":166.66649999999936,"noteNumber":66,"velocity":55,"programNumber":44},{"time":64222.15799999986,"duration":166.66649999999936,"noteNumber":66,"velocity":55,"programNumber":44},{"time":64444.37999999986,"duration":166.66649999999936,"noteNumber":67,"velocity":55,"programNumber":44},{"time":64666.60199999986,"duration":166.66649999999936,"noteNumber":67,"velocity":55,"programNumber":44},{"time":64888.82399999986,"duration":166.66649999999936,"noteNumber":69,"velocity":55,"programNumber":44},{"time":65111.045999999864,"duration":166.66649999999936,"noteNumber":69,"velocity":55,"programNumber":44},{"time":65333.267999999865,"duration":166.66649999999936,"noteNumber":66,"velocity":55,"programNumber":44},{"time":65555.48999999986,"duration":166.66650000000664,"noteNumber":66,"velocity":55,"programNumber":44},{"time":65777.71199999987,"duration":166.66650000000664,"noteNumber":64,"velocity":55,"programNumber":44},{"time":65999.93399999988,"duration":166.66650000000664,"noteNumber":64,"velocity":55,"programNumber":44},{"time":66222.15599999989,"duration":166.66650000000664,"noteNumber":66,"velocity":55,"programNumber":44},{"time":66444.3779999999,"duration":166.66650000000664,"noteNumber":66,"velocity":55,"programNumber":44},{"time":66666.5999999999,"duration":166.66650000000664,"noteNumber":67,"velocity":55,"programNumber":44},{"time":66888.82199999991,"duration":166.66650000000664,"noteNumber":67,"velocity":55,"programNumber":44},{"time":67111.04399999992,"duration":166.66650000000664,"noteNumber":64,"velocity":55,"programNumber":44},{"time":67333.26599999993,"duration":166.66650000000664,"noteNumber":64,"velocity":55,"programNumber":44},{"time":67555.48799999994,"duration":444.44400000000314,"noteNumber":66,"velocity":55,"programNumber":44},{"time":68444.37599999995,"duration":888.8880000000063,"noteNumber":71,"velocity":85,"programNumber":44},{"time":68444.37599999995,"duration":888.8880000000063,"noteNumber":78,"velocity":85,"programNumber":44},{"time":69333.26399999995,"duration":444.44400000000314,"noteNumber":76,"velocity":85,"programNumber":44},{"time":70222.15199999996,"duration":888.8880000000063,"noteNumber":76,"velocity":85,"programNumber":44},{"time":70222.15199999996,"duration":888.8880000000063,"noteNumber":69,"velocity":85,"programNumber":44},{"time":71111.03999999996,"duration":166.66650000000664,"noteNumber":74,"velocity":85,"programNumber":44},{"time":71333.26199999997,"duration":111.11100000000442,"noteNumber":78,"velocity":85,"programNumber":44},{"time":71555.48399999998,"duration":111.11100000000442,"noteNumber":79,"velocity":85,"programNumber":44},{"time":71777.70599999999,"duration":111.11100000000442,"noteNumber":81,"velocity":85,"programNumber":44},{"time":71999.928,"duration":222.2219999999943,"noteNumber":79,"velocity":85,"programNumber":44},{"time":72222.15,"duration":111.11100000000442,"noteNumber":81,"velocity":85,"programNumber":44},{"time":72333.261,"duration":111.11100000000442,"noteNumber":83,"velocity":85,"programNumber":44},{"time":72444.372,"duration":166.66650000000664,"noteNumber":81,"velocity":85,"programNumber":44},{"time":72666.59400000001,"duration":111.11100000000442,"noteNumber":79,"velocity":85,"programNumber":44},{"time":72888.81600000002,"duration":222.2219999999943,"noteNumber":79,"velocity":85,"programNumber":44},{"time":73111.03800000002,"duration":166.66650000000664,"noteNumber":78,"velocity":85,"programNumber":44},{"time":73333.26000000002,"duration":111.11100000000442,"noteNumber":74,"velocity":85,"programNumber":44},{"time":73555.48200000003,"duration":111.11100000000442,"noteNumber":78,"velocity":85,"programNumber":44},{"time":73777.70400000004,"duration":222.2219999999943,"noteNumber":78,"velocity":85,"programNumber":44},{"time":73999.92600000004,"duration":166.66650000000664,"noteNumber":76,"velocity":85,"programNumber":44},{"time":74222.14800000004,"duration":111.11100000000442,"noteNumber":74,"velocity":85,"programNumber":44},{"time":74444.37000000005,"duration":111.11100000000442,"noteNumber":73,"velocity":85,"programNumber":44},{"time":74666.59200000006,"duration":166.66650000000664,"noteNumber":74,"velocity":85,"programNumber":44},{"time":74888.81400000007,"duration":166.66650000000664,"noteNumber":66,"velocity":53,"programNumber":44},{"time":75111.03600000008,"duration":166.66650000000664,"noteNumber":67,"velocity":53,"programNumber":44},{"time":75333.25800000009,"duration":166.66650000000664,"noteNumber":67,"velocity":53,"programNumber":44},{"time":75555.4800000001,"duration":166.66650000000664,"noteNumber":69,"velocity":53,"programNumber":44},{"time":75777.7020000001,"duration":166.66650000000664,"noteNumber":69,"velocity":53,"programNumber":44},{"time":75999.92400000012,"duration":166.66650000000664,"noteNumber":66,"velocity":53,"programNumber":44},{"time":76222.14600000012,"duration":166.66650000000664,"noteNumber":66,"velocity":53,"programNumber":44},{"time":76444.36800000013,"duration":166.66650000000664,"noteNumber":64,"velocity":55,"programNumber":44},{"time":76666.59000000014,"duration":166.66650000000664,"noteNumber":64,"velocity":55,"programNumber":44},{"time":76888.81200000015,"duration":166.66650000000664,"noteNumber":66,"velocity":55,"programNumber":44},{"time":77111.03400000016,"duration":166.66650000000664,"noteNumber":66,"velocity":55,"programNumber":44},{"time":77333.25600000017,"duration":166.66650000000664,"noteNumber":67,"velocity":55,"programNumber":44},{"time":77555.47800000018,"duration":166.66650000000664,"noteNumber":67,"velocity":55,"programNumber":44},{"time":77777.70000000019,"duration":166.66650000000664,"noteNumber":64,"velocity":55,"programNumber":44},{"time":77999.9220000002,"duration":166.66650000000664,"noteNumber":64,"velocity":55,"programNumber":44},{"time":78222.1440000002,"duration":166.66650000000664,"noteNumber":66,"velocity":55,"programNumber":44},{"time":78444.36600000021,"duration":166.66650000000664,"noteNumber":66,"velocity":55,"programNumber":44},{"time":78666.58800000022,"duration":166.66650000000664,"noteNumber":67,"velocity":55,"programNumber":44},{"time":78888.81000000023,"duration":166.66650000000664,"noteNumber":67,"velocity":55,"programNumber":44},{"time":79111.03200000024,"duration":166.66650000000664,"noteNumber":69,"velocity":55,"programNumber":44},{"time":79333.25400000025,"duration":166.66650000000664,"noteNumber":69,"velocity":55,"programNumber":44},{"time":79555.47600000026,"duration":166.66650000000664,"noteNumber":66,"velocity":55,"programNumber":44},{"time":79777.69800000027,"duration":166.66650000000664,"noteNumber":66,"velocity":55,"programNumber":44},{"time":79999.92000000027,"duration":166.66650000000664,"noteNumber":64,"velocity":55,"programNumber":44},{"time":80222.14200000028,"duration":166.66650000000664,"noteNumber":64,"velocity":55,"programNumber":44},{"time":80444.36400000029,"duration":166.66650000000664,"noteNumber":66,"velocity":55,"programNumber":44},{"time":80666.5860000003,"duration":166.66650000000664,"noteNumber":66,"velocity":55,"programNumber":44},{"time":80888.80800000031,"duration":166.66650000000664,"noteNumber":67,"velocity":55,"programNumber":44},{"time":81111.03000000032,"duration":166.66650000000664,"noteNumber":67,"velocity":55,"programNumber":44},{"time":81333.25200000033,"duration":166.66650000000664,"noteNumber":64,"velocity":55,"programNumber":44},{"time":81555.47400000034,"duration":166.66650000000664,"noteNumber":64,"velocity":55,"programNumber":44},{"time":81777.69600000035,"duration":444.44400000000314,"noteNumber":66,"velocity":58,"programNumber":44},{"time":82666.58400000035,"duration":888.8880000000063,"noteNumber":71,"velocity":85,"programNumber":44},{"time":82666.58400000035,"duration":888.8880000000063,"noteNumber":78,"velocity":85,"programNumber":44},{"time":83555.47200000036,"duration":444.44400000000314,"noteNumber":76,"velocity":85,"programNumber":44},{"time":84444.36000000036,"duration":888.8880000000063,"noteNumber":76,"velocity":85,"programNumber":44},{"time":84444.36000000036,"duration":888.8880000000063,"noteNumber":69,"velocity":85,"programNumber":44},{"time":85333.24800000037,"duration":166.66650000000664,"noteNumber":74,"velocity":85,"programNumber":44},{"time":85555.47000000038,"duration":111.11100000000442,"noteNumber":78,"velocity":85,"programNumber":44},{"time":85777.69200000039,"duration":111.11100000000442,"noteNumber":79,"velocity":85,"programNumber":44},{"time":85999.9140000004,"duration":111.11100000000442,"noteNumber":81,"velocity":85,"programNumber":44},{"time":86222.1360000004,"duration":222.2219999999943,"noteNumber":79,"velocity":85,"programNumber":44},{"time":86444.3580000004,"duration":111.11100000000442,"noteNumber":81,"velocity":85,"programNumber":44},{"time":86555.4690000004,"duration":111.11100000000442,"noteNumber":83,"velocity":85,"programNumber":44},{"time":86666.58000000041,"duration":166.66650000000664,"noteNumber":81,"velocity":85,"programNumber":44},{"time":86888.80200000042,"duration":111.11100000000442,"noteNumber":79,"velocity":85,"programNumber":44},{"time":87111.02400000043,"duration":222.2219999999943,"noteNumber":79,"velocity":85,"programNumber":44},{"time":87333.24600000042,"duration":166.66650000000664,"noteNumber":78,"velocity":85,"programNumber":44},{"time":87555.46800000043,"duration":111.11100000000442,"noteNumber":74,"velocity":85,"programNumber":44},{"time":87777.69000000044,"duration":111.11100000000442,"noteNumber":78,"velocity":85,"programNumber":44},{"time":87999.91200000045,"duration":222.2219999999943,"noteNumber":78,"velocity":85,"programNumber":44},{"time":88222.13400000044,"duration":166.66650000000664,"noteNumber":76,"velocity":85,"programNumber":44},{"time":88444.35600000045,"duration":111.11100000000442,"noteNumber":74,"velocity":85,"programNumber":44},{"time":88666.57800000046,"duration":111.11100000000442,"noteNumber":73,"velocity":85,"programNumber":44},{"time":88888.80000000047,"duration":166.66650000000664,"noteNumber":74,"velocity":85,"programNumber":44},{"time":89111.02200000048,"duration":166.66650000000664,"noteNumber":69,"velocity":85,"programNumber":44},{"time":89333.24400000049,"duration":166.66650000000664,"noteNumber":71,"velocity":85,"programNumber":44},{"time":89555.4660000005,"duration":166.66650000000664,"noteNumber":73,"velocity":85,"programNumber":44},{"time":89777.6880000005,"duration":111.11100000000442,"noteNumber":74,"velocity":85,"programNumber":44},{"time":89999.91000000051,"duration":111.11100000000442,"noteNumber":74,"velocity":85,"programNumber":44},{"time":90222.13200000052,"duration":55.55550000000221,"noteNumber":76,"velocity":85,"programNumber":44},{"time":90277.68750000052,"duration":55.55550000000221,"noteNumber":78,"velocity":85,"programNumber":44},{"time":90333.24300000053,"duration":55.55550000000221,"noteNumber":76,"velocity":85,"programNumber":44},{"time":90388.79850000053,"duration":55.55550000000221,"noteNumber":78,"velocity":85,"programNumber":44},{"time":90444.35400000053,"duration":111.11100000000442,"noteNumber":74,"velocity":85,"programNumber":44},{"time":90555.46500000053,"duration":111.11100000000442,"noteNumber":76,"velocity":85,"programNumber":44},{"time":90666.57600000054,"duration":222.2219999999943,"noteNumber":78,"velocity":85,"programNumber":44},{"time":90888.79800000053,"duration":166.66650000000664,"noteNumber":73,"velocity":85,"programNumber":44},{"time":91111.02000000054,"duration":166.66650000000664,"noteNumber":74,"velocity":85,"programNumber":44},{"time":91333.24200000055,"duration":166.66650000000664,"noteNumber":76,"velocity":85,"programNumber":44},{"time":91555.46400000056,"duration":166.66650000000664,"noteNumber":78,"velocity":85,"programNumber":44},{"time":91777.68600000057,"duration":166.66650000000664,"noteNumber":78,"velocity":85,"programNumber":44},{"time":91999.90800000058,"duration":55.55550000000221,"noteNumber":79,"velocity":85,"programNumber":44},{"time":92055.46350000058,"duration":55.55550000000221,"noteNumber":81,"velocity":85,"programNumber":44},{"time":92111.01900000058,"duration":55.55550000000221,"noteNumber":79,"velocity":85,"programNumber":44},{"time":92166.57450000058,"duration":55.55550000000221,"noteNumber":81,"velocity":85,"programNumber":44},{"time":92222.13000000059,"duration":111.11100000000442,"noteNumber":78,"velocity":85,"programNumber":44},{"time":92333.24100000059,"duration":111.11100000000442,"noteNumber":79,"velocity":85,"programNumber":44},{"time":92444.3520000006,"duration":166.66650000000664,"noteNumber":81,"velocity":85,"programNumber":44},{"time":92666.5740000006,"duration":166.66650000000664,"noteNumber":81,"velocity":85,"programNumber":44},{"time":92888.79600000061,"duration":55.55550000000221,"noteNumber":82,"velocity":85,"programNumber":44},{"time":92944.35150000062,"duration":55.55550000000221,"noteNumber":83,"velocity":85,"programNumber":44},{"time":92999.90700000062,"duration":55.55550000000221,"noteNumber":82,"velocity":85,"programNumber":44},{"time":93055.46250000062,"duration":55.55550000000221,"noteNumber":83,"velocity":85,"programNumber":44},{"time":93111.01800000062,"duration":111.11100000000442,"noteNumber":80,"velocity":85,"programNumber":44},{"time":93222.12900000063,"duration":111.11100000000442,"noteNumber":82,"velocity":85,"programNumber":44},{"time":93333.24000000063,"duration":444.44400000000314,"noteNumber":83,"velocity":85,"programNumber":44},{"time":94222.12800000064,"duration":1777.775999999998,"noteNumber":67,"velocity":55,"programNumber":44},{"time":95999.90400000064,"duration":222.2219999999943,"noteNumber":66,"velocity":55,"programNumber":44},{"time":96444.34800000062,"duration":222.2219999999943,"noteNumber":69,"velocity":55,"programNumber":44},{"time":96888.79200000061,"duration":222.2219999999943,"noteNumber":66,"velocity":55,"programNumber":44},{"time":97814.7170000006,"duration":444.44400000000314,"noteNumber":62,"velocity":85,"programNumber":44},{"time":97814.7170000006,"duration":444.44400000000314,"noteNumber":71,"velocity":85,"programNumber":44},{"time":97814.7170000006,"duration":444.44400000000314,"noteNumber":79,"velocity":85,"programNumber":44},{"time":98481.3830000006,"duration":111.11100000000442,"noteNumber":74,"velocity":85,"programNumber":44},{"time":98703.6050000006,"duration":444.44400000000314,"noteNumber":79,"velocity":85,"programNumber":44},{"time":99370.2710000006,"duration":111.11100000000442,"noteNumber":74,"velocity":85,"programNumber":44},{"time":99592.49300000061,"duration":111.11100000000442,"noteNumber":79,"velocity":85,"programNumber":44},{"time":99814.71500000062,"duration":111.11100000000442,"noteNumber":74,"velocity":85,"programNumber":44},{"time":100036.93700000063,"duration":111.11100000000442,"noteNumber":79,"velocity":85,"programNumber":44},{"time":100259.15900000064,"duration":111.11100000000442,"noteNumber":83,"velocity":85,"programNumber":44},{"time":100481.38100000065,"duration":444.44400000000314,"noteNumber":86,"velocity":85,"programNumber":44},{"time":101370.26900000066,"duration":444.44400000000314,"noteNumber":84,"velocity":85,"programNumber":44},{"time":102036.93500000065,"duration":111.11100000000442,"noteNumber":81,"velocity":85,"programNumber":44},{"time":102259.15700000066,"duration":444.44400000000314,"noteNumber":84,"velocity":85,"programNumber":44},{"time":102925.82300000066,"duration":111.11100000000442,"noteNumber":81,"velocity":85,"programNumber":44},{"time":103148.04500000067,"duration":111.11100000000442,"noteNumber":84,"velocity":85,"programNumber":44},{"time":103370.26700000068,"duration":111.11100000000442,"noteNumber":81,"velocity":85,"programNumber":44},{"time":103592.48900000069,"duration":111.11100000000442,"noteNumber":78,"velocity":85,"programNumber":44},{"time":103814.7110000007,"duration":111.11100000000442,"noteNumber":81,"velocity":85,"programNumber":44},{"time":104036.9330000007,"duration":444.44400000000314,"noteNumber":74,"velocity":85,"programNumber":44},{"time":104888.78400000071,"duration":74.07399999999325,"noteNumber":62,"velocity":85,"programNumber":44},{"time":104888.78400000071,"duration":74.07399999999325,"noteNumber":59,"velocity":85,"programNumber":44},{"time":104999.8950000007,"duration":74.07399999999325,"noteNumber":62,"velocity":85,"programNumber":44},{"time":104999.8950000007,"duration":74.07399999999325,"noteNumber":59,"velocity":85,"programNumber":44},{"time":105111.00600000069,"duration":74.07399999999325,"noteNumber":62,"velocity":85,"programNumber":44},{"time":105111.00600000069,"duration":74.07399999999325,"noteNumber":59,"velocity":85,"programNumber":44},{"time":105222.11700000068,"duration":74.07399999999325,"noteNumber":62,"velocity":85,"programNumber":44},{"time":105222.11700000068,"duration":74.07399999999325,"noteNumber":59,"velocity":85,"programNumber":44},{"time":105333.22800000067,"duration":74.07399999999325,"noteNumber":62,"velocity":85,"programNumber":44},{"time":105333.22800000067,"duration":74.07399999999325,"noteNumber":59,"velocity":85,"programNumber":44},{"time":105444.33900000066,"duration":74.07399999999325,"noteNumber":62,"velocity":85,"programNumber":44},{"time":105444.33900000066,"duration":74.07399999999325,"noteNumber":59,"velocity":85,"programNumber":44},{"time":105555.45000000065,"duration":74.07399999999325,"noteNumber":62,"velocity":85,"programNumber":44},{"time":105555.45000000065,"duration":74.07399999999325,"noteNumber":59,"velocity":85,"programNumber":44},{"time":105666.56100000064,"duration":74.07399999999325,"noteNumber":62,"velocity":85,"programNumber":44},{"time":105666.56100000064,"duration":74.07399999999325,"noteNumber":59,"velocity":85,"programNumber":44},{"time":105777.67200000063,"duration":74.07399999999325,"noteNumber":62,"velocity":85,"programNumber":44},{"time":105777.67200000063,"duration":74.07399999999325,"noteNumber":59,"velocity":85,"programNumber":44},{"time":105888.78300000062,"duration":74.07399999999325,"noteNumber":62,"velocity":85,"programNumber":44},{"time":105888.78300000062,"duration":74.07399999999325,"noteNumber":59,"velocity":85,"programNumber":44},{"time":105999.89400000061,"duration":74.07399999999325,"noteNumber":62,"velocity":85,"programNumber":44},{"time":105999.89400000061,"duration":74.07399999999325,"noteNumber":59,"velocity":85,"programNumber":44},{"time":106111.0050000006,"duration":74.07399999999325,"noteNumber":62,"velocity":85,"programNumber":44},{"time":106111.0050000006,"duration":74.07399999999325,"noteNumber":59,"velocity":85,"programNumber":44},{"time":106222.11600000059,"duration":74.07399999999325,"noteNumber":62,"velocity":85,"programNumber":44},{"time":106222.11600000059,"duration":74.07399999999325,"noteNumber":59,"velocity":85,"programNumber":44},{"time":106333.22700000058,"duration":74.07399999999325,"noteNumber":62,"velocity":85,"programNumber":44},{"time":106333.22700000058,"duration":74.07399999999325,"noteNumber":59,"velocity":85,"programNumber":44},{"time":106444.33800000057,"duration":74.07399999999325,"noteNumber":62,"velocity":85,"programNumber":44},{"time":106444.33800000057,"duration":74.07399999999325,"noteNumber":59,"velocity":85,"programNumber":44},{"time":106555.44900000056,"duration":74.07399999999325,"noteNumber":62,"velocity":85,"programNumber":44},{"time":106555.44900000056,"duration":74.07399999999325,"noteNumber":59,"velocity":85,"programNumber":44},{"time":106666.56000000055,"duration":74.07399999999325,"noteNumber":62,"velocity":85,"programNumber":44},{"time":106666.56000000055,"duration":74.07399999999325,"noteNumber":60,"velocity":85,"programNumber":44},{"time":106777.67100000054,"duration":74.07399999999325,"noteNumber":62,"velocity":85,"programNumber":44},{"time":106777.67100000054,"duration":74.07399999999325,"noteNumber":60,"velocity":85,"programNumber":44},{"time":106888.78200000053,"duration":74.07399999999325,"noteNumber":62,"velocity":85,"programNumber":44},{"time":106888.78200000053,"duration":74.07399999999325,"noteNumber":60,"velocity":85,"programNumber":44},{"time":106999.89300000052,"duration":74.07399999999325,"noteNumber":62,"velocity":85,"programNumber":44},{"time":106999.89300000052,"duration":74.07399999999325,"noteNumber":60,"velocity":85,"programNumber":44},{"time":107111.00400000051,"duration":74.07399999999325,"noteNumber":62,"velocity":85,"programNumber":44},{"time":107111.00400000051,"duration":74.07399999999325,"noteNumber":60,"velocity":85,"programNumber":44},{"time":107222.1150000005,"duration":74.07399999999325,"noteNumber":62,"velocity":85,"programNumber":44},{"time":107222.1150000005,"duration":74.07399999999325,"noteNumber":60,"velocity":85,"programNumber":44},{"time":107333.22600000049,"duration":74.07399999999325,"noteNumber":62,"velocity":85,"programNumber":44},{"time":107333.22600000049,"duration":74.07399999999325,"noteNumber":60,"velocity":85,"programNumber":44},{"time":107444.33700000048,"duration":74.07399999999325,"noteNumber":62,"velocity":85,"programNumber":44},{"time":107444.33700000048,"duration":74.07399999999325,"noteNumber":60,"velocity":85,"programNumber":44},{"time":107555.44800000047,"duration":74.07399999999325,"noteNumber":62,"velocity":85,"programNumber":44},{"time":107555.44800000047,"duration":74.07399999999325,"noteNumber":60,"velocity":85,"programNumber":44},{"time":107666.55900000046,"duration":74.07399999999325,"noteNumber":62,"velocity":85,"programNumber":44},{"time":107666.55900000046,"duration":74.07399999999325,"noteNumber":60,"velocity":85,"programNumber":44},{"time":107777.67000000045,"duration":74.07399999999325,"noteNumber":62,"velocity":85,"programNumber":44},{"time":107777.67000000045,"duration":74.07399999999325,"noteNumber":60,"velocity":85,"programNumber":44},{"time":107888.78100000044,"duration":74.07399999999325,"noteNumber":62,"velocity":85,"programNumber":44},{"time":107888.78100000044,"duration":74.07399999999325,"noteNumber":60,"velocity":85,"programNumber":44},{"time":107999.89200000043,"duration":74.07399999999325,"noteNumber":62,"velocity":85,"programNumber":44},{"time":107999.89200000043,"duration":74.07399999999325,"noteNumber":60,"velocity":85,"programNumber":44},{"time":108111.00300000042,"duration":74.07399999999325,"noteNumber":62,"velocity":85,"programNumber":44},{"time":108111.00300000042,"duration":74.07399999999325,"noteNumber":60,"velocity":85,"programNumber":44},{"time":108222.11400000041,"duration":74.07399999999325,"noteNumber":62,"velocity":85,"programNumber":44},{"time":108222.11400000041,"duration":74.07399999999325,"noteNumber":60,"velocity":85,"programNumber":44},{"time":108333.2250000004,"duration":74.07399999999325,"noteNumber":62,"velocity":85,"programNumber":44},{"time":108333.2250000004,"duration":74.07399999999325,"noteNumber":60,"velocity":85,"programNumber":44},{"time":108444.33600000039,"duration":74.07399999999325,"noteNumber":62,"velocity":85,"programNumber":44},{"time":108444.33600000039,"duration":74.07399999999325,"noteNumber":59,"velocity":85,"programNumber":44},{"time":108555.44700000038,"duration":74.07399999999325,"noteNumber":62,"velocity":85,"programNumber":44},{"time":108555.44700000038,"duration":74.07399999999325,"noteNumber":59,"velocity":85,"programNumber":44},{"time":108666.55800000037,"duration":74.07399999999325,"noteNumber":62,"velocity":85,"programNumber":44},{"time":108666.55800000037,"duration":74.07399999999325,"noteNumber":59,"velocity":85,"programNumber":44},{"time":108777.66900000036,"duration":74.07399999999325,"noteNumber":62,"velocity":85,"programNumber":44},{"time":108777.66900000036,"duration":74.07399999999325,"noteNumber":59,"velocity":85,"programNumber":44},{"time":108888.78000000035,"duration":74.07399999999325,"noteNumber":62,"velocity":85,"programNumber":44},{"time":108888.78000000035,"duration":74.07399999999325,"noteNumber":59,"velocity":85,"programNumber":44},{"time":108999.89100000034,"duration":74.07399999999325,"noteNumber":62,"velocity":85,"programNumber":44},{"time":108999.89100000034,"duration":74.07399999999325,"noteNumber":59,"velocity":85,"programNumber":44},{"time":109111.00200000033,"duration":74.07399999999325,"noteNumber":62,"velocity":85,"programNumber":44},{"time":109111.00200000033,"duration":74.07399999999325,"noteNumber":59,"velocity":85,"programNumber":44},{"time":109222.11300000032,"duration":74.07399999999325,"noteNumber":62,"velocity":85,"programNumber":44},{"time":109222.11300000032,"duration":74.07399999999325,"noteNumber":59,"velocity":85,"programNumber":44},{"time":109333.22400000031,"duration":74.07399999999325,"noteNumber":62,"velocity":85,"programNumber":44},{"time":109333.22400000031,"duration":74.07399999999325,"noteNumber":59,"velocity":85,"programNumber":44},{"time":109444.3350000003,"duration":74.07399999999325,"noteNumber":62,"velocity":85,"programNumber":44},{"time":109444.3350000003,"duration":74.07399999999325,"noteNumber":59,"velocity":85,"programNumber":44},{"time":109555.44600000029,"duration":74.07399999999325,"noteNumber":62,"velocity":85,"programNumber":44},{"time":109555.44600000029,"duration":74.07399999999325,"noteNumber":59,"velocity":85,"programNumber":44},{"time":109666.55700000028,"duration":74.07399999999325,"noteNumber":62,"velocity":85,"programNumber":44},{"time":109666.55700000028,"duration":74.07399999999325,"noteNumber":59,"velocity":85,"programNumber":44},{"time":109777.66800000027,"duration":74.07399999999325,"noteNumber":62,"velocity":85,"programNumber":44},{"time":109777.66800000027,"duration":74.07399999999325,"noteNumber":59,"velocity":85,"programNumber":44},{"time":109888.77900000026,"duration":74.07399999999325,"noteNumber":62,"velocity":85,"programNumber":44},{"time":109888.77900000026,"duration":74.07399999999325,"noteNumber":59,"velocity":85,"programNumber":44},{"time":109999.89000000025,"duration":74.07399999999325,"noteNumber":62,"velocity":85,"programNumber":44},{"time":109999.89000000025,"duration":74.07399999999325,"noteNumber":59,"velocity":85,"programNumber":44},{"time":110111.00100000024,"duration":74.07399999999325,"noteNumber":62,"velocity":85,"programNumber":44},{"time":110111.00100000024,"duration":74.07399999999325,"noteNumber":59,"velocity":85,"programNumber":44},{"time":110222.11200000023,"duration":74.07399999999325,"noteNumber":62,"velocity":85,"programNumber":44},{"time":110222.11200000023,"duration":74.07399999999325,"noteNumber":60,"velocity":85,"programNumber":44},{"time":110333.22300000022,"duration":74.07399999999325,"noteNumber":62,"velocity":85,"programNumber":44},{"time":110333.22300000022,"duration":74.07399999999325,"noteNumber":60,"velocity":85,"programNumber":44},{"time":110444.3340000002,"duration":74.07399999999325,"noteNumber":62,"velocity":85,"programNumber":44},{"time":110444.3340000002,"duration":74.07399999999325,"noteNumber":60,"velocity":85,"programNumber":44},{"time":110555.4450000002,"duration":74.07399999999325,"noteNumber":62,"velocity":85,"programNumber":44},{"time":110555.4450000002,"duration":74.07399999999325,"noteNumber":60,"velocity":85,"programNumber":44},{"time":110666.55600000019,"duration":74.07399999999325,"noteNumber":62,"velocity":85,"programNumber":44},{"time":110666.55600000019,"duration":74.07399999999325,"noteNumber":60,"velocity":85,"programNumber":44},{"time":110777.66700000018,"duration":74.07399999999325,"noteNumber":62,"velocity":85,"programNumber":44},{"time":110777.66700000018,"duration":74.07399999999325,"noteNumber":60,"velocity":85,"programNumber":44},{"time":110888.77800000017,"duration":74.07399999999325,"noteNumber":62,"velocity":85,"programNumber":44},{"time":110888.77800000017,"duration":74.07399999999325,"noteNumber":60,"velocity":85,"programNumber":44},{"time":110999.88900000016,"duration":74.07399999999325,"noteNumber":62,"velocity":85,"programNumber":44},{"time":110999.88900000016,"duration":74.07399999999325,"noteNumber":60,"velocity":85,"programNumber":44},{"time":111111.00000000015,"duration":74.07399999999325,"noteNumber":62,"velocity":85,"programNumber":44},{"time":111111.00000000015,"duration":74.07399999999325,"noteNumber":60,"velocity":85,"programNumber":44},{"time":111222.11100000014,"duration":74.07399999999325,"noteNumber":62,"velocity":85,"programNumber":44},{"time":111222.11100000014,"duration":74.07399999999325,"noteNumber":60,"velocity":85,"programNumber":44},{"time":111333.22200000013,"duration":74.07399999999325,"noteNumber":62,"velocity":85,"programNumber":44},{"time":111333.22200000013,"duration":74.07399999999325,"noteNumber":60,"velocity":85,"programNumber":44},{"time":111444.33300000012,"duration":74.07399999999325,"noteNumber":62,"velocity":85,"programNumber":44},{"time":111444.33300000012,"duration":74.07399999999325,"noteNumber":60,"velocity":85,"programNumber":44},{"time":111555.4440000001,"duration":74.07399999999325,"noteNumber":62,"velocity":85,"programNumber":44},{"time":111555.4440000001,"duration":74.07399999999325,"noteNumber":60,"velocity":85,"programNumber":44},{"time":111666.5550000001,"duration":74.07399999999325,"noteNumber":62,"velocity":85,"programNumber":44},{"time":111666.5550000001,"duration":74.07399999999325,"noteNumber":60,"velocity":85,"programNumber":44},{"time":111777.66600000008,"duration":74.07399999999325,"noteNumber":62,"velocity":85,"programNumber":44},{"time":111777.66600000008,"duration":74.07399999999325,"noteNumber":60,"velocity":85,"programNumber":44},{"time":111888.77700000007,"duration":74.07399999999325,"noteNumber":62,"velocity":85,"programNumber":44},{"time":111888.77700000007,"duration":74.07399999999325,"noteNumber":60,"velocity":85,"programNumber":44},{"time":111999.88800000006,"duration":444.44400000000314,"noteNumber":62,"velocity":85,"programNumber":44},{"time":111999.88800000006,"duration":444.44400000000314,"noteNumber":59,"velocity":85,"programNumber":44},{"time":112444.33200000007,"duration":166.66650000000664,"noteNumber":72,"velocity":85,"programNumber":44},{"time":112666.55400000008,"duration":166.66650000000664,"noteNumber":72,"velocity":85,"programNumber":44},{"time":112888.77600000009,"duration":166.66650000000664,"noteNumber":74,"velocity":85,"programNumber":44},{"time":113110.9980000001,"duration":166.66650000000664,"noteNumber":74,"velocity":85,"programNumber":44},{"time":113333.2200000001,"duration":222.2219999999943,"noteNumber":72,"velocity":85,"programNumber":44},{"time":113555.4420000001,"duration":111.11100000000442,"noteNumber":71,"velocity":85,"programNumber":44},{"time":113666.5530000001,"duration":111.11100000000442,"noteNumber":69,"velocity":85,"programNumber":44},{"time":113777.6640000001,"duration":166.66650000000664,"noteNumber":67,"velocity":85,"programNumber":44},{"time":113999.88600000012,"duration":166.66650000000664,"noteNumber":67,"velocity":85,"programNumber":44},{"time":114222.10800000012,"duration":166.66650000000664,"noteNumber":66,"velocity":85,"programNumber":44},{"time":114444.33000000013,"duration":166.66650000000664,"noteNumber":66,"velocity":85,"programNumber":44},{"time":114666.55200000014,"duration":444.44400000000314,"noteNumber":67,"velocity":85,"programNumber":44},{"time":115555.44000000015,"duration":888.8880000000063,"noteNumber":71,"velocity":47,"programNumber":44},{"time":116444.32800000015,"duration":888.8880000000063,"noteNumber":72,"velocity":47,"programNumber":44},{"time":117333.21600000016,"duration":111.11100000000442,"noteNumber":71,"velocity":47,"programNumber":44},{"time":117444.32700000016,"duration":296.2960000000021,"noteNumber":69,"velocity":47,"programNumber":44},{"time":117777.66000000016,"duration":444.44400000000314,"noteNumber":69,"velocity":47,"programNumber":44},{"time":118222.10400000017,"duration":111.11100000000442,"noteNumber":69,"velocity":47,"programNumber":44},{"time":118333.21500000017,"duration":296.2960000000021,"noteNumber":67,"velocity":47,"programNumber":44},{"time":118666.54800000017,"duration":444.44400000000314,"noteNumber":67,"velocity":47,"programNumber":44},{"time":119110.99200000017,"duration":333.3329999999987,"noteNumber":64,"velocity":47,"programNumber":44},{"time":119555.43600000018,"duration":333.3329999999987,"noteNumber":64,"velocity":47,"programNumber":44},{"time":119999.88000000018,"duration":333.3329999999987,"noteNumber":60,"velocity":47,"programNumber":44},{"time":120444.32400000018,"duration":333.3329999999987,"noteNumber":57,"velocity":47,"programNumber":44},{"time":120888.76800000019,"duration":222.2219999999943,"noteNumber":62,"velocity":47,"programNumber":44},{"time":121333.21200000017,"duration":222.2219999999943,"noteNumber":66,"velocity":47,"programNumber":44},{"time":121777.65600000016,"duration":222.2219999999943,"noteNumber":67,"velocity":47,"programNumber":44},{"time":122666.54400000015,"duration":888.8880000000063,"noteNumber":71,"velocity":47,"programNumber":44},{"time":123555.43200000016,"duration":888.8880000000063,"noteNumber":72,"velocity":47,"programNumber":44},{"time":124444.32000000017,"duration":222.2219999999943,"noteNumber":71,"velocity":47,"programNumber":44},{"time":124666.54200000016,"duration":111.11100000000442,"noteNumber":69,"velocity":47,"programNumber":44},{"time":124888.76400000017,"duration":111.11100000000442,"noteNumber":69,"velocity":47,"programNumber":44},{"time":125110.98600000018,"duration":111.11100000000442,"noteNumber":69,"velocity":47,"programNumber":44},{"time":125333.20800000019,"duration":222.2219999999943,"noteNumber":69,"velocity":47,"programNumber":44},{"time":125555.43000000018,"duration":111.11100000000442,"noteNumber":67,"velocity":47,"programNumber":44},{"time":125777.65200000019,"duration":111.11100000000442,"noteNumber":67,"velocity":47,"programNumber":44},{"time":125999.8740000002,"duration":111.11100000000442,"noteNumber":67,"velocity":47,"programNumber":44},{"time":126222.09600000021,"duration":333.3329999999987,"noteNumber":64,"velocity":47,"programNumber":44},{"time":126666.54000000021,"duration":166.66650000000664,"noteNumber":64,"velocity":47,"programNumber":44},{"time":126888.76200000022,"duration":166.66650000000664,"noteNumber":64,"velocity":47,"programNumber":44},{"time":127110.98400000023,"duration":333.3329999999987,"noteNumber":60,"velocity":47,"programNumber":44},{"time":127555.42800000023,"duration":166.66650000000664,"noteNumber":60,"velocity":47,"programNumber":44},{"time":127777.65000000024,"duration":166.66650000000664,"noteNumber":60,"velocity":47,"programNumber":44},{"time":127999.87200000025,"duration":1111.1100000000006,"noteNumber":59,"velocity":85,"programNumber":44},{"time":129110.98200000025,"duration":55.55550000000221,"noteNumber":59,"velocity":61,"programNumber":44},{"time":129166.53750000025,"duration":55.55550000000221,"noteNumber":60,"velocity":61,"programNumber":44},{"time":129222.09300000026,"duration":55.55550000000221,"noteNumber":57,"velocity":61,"programNumber":44},{"time":129277.64850000026,"duration":55.55550000000221,"noteNumber":59,"velocity":61,"programNumber":44},{"time":129333.20400000026,"duration":222.2219999999943,"noteNumber":60,"velocity":61,"programNumber":44},{"time":129555.42600000025,"duration":222.2219999999943,"noteNumber":57,"velocity":61,"programNumber":44},{"time":129777.64800000025,"duration":1111.1100000000006,"noteNumber":67,"velocity":85,"programNumber":44},{"time":130888.75800000025,"duration":55.55550000000221,"noteNumber":67,"velocity":61,"programNumber":44},{"time":130944.31350000025,"duration":55.55550000000221,"noteNumber":69,"velocity":61,"programNumber":44},{"time":130999.86900000025,"duration":55.55550000000221,"noteNumber":66,"velocity":61,"programNumber":44},{"time":131055.42450000026,"duration":55.55549999998766,"noteNumber":67,"velocity":61,"programNumber":44},{"time":131110.98000000024,"duration":222.22200000000885,"noteNumber":69,"velocity":61,"programNumber":44},{"time":131333.20200000025,"duration":222.22200000000885,"noteNumber":66,"velocity":61,"programNumber":44},{"time":131555.42400000026,"duration":74.07399999999325,"noteNumber":71,"velocity":53,"programNumber":44},{"time":131666.53500000027,"duration":74.07399999999325,"noteNumber":71,"velocity":53,"programNumber":44},{"time":131777.64600000027,"duration":74.07399999999325,"noteNumber":71,"velocity":55,"programNumber":44},{"time":131888.75700000027,"duration":74.07399999999325,"noteNumber":71,"velocity":55,"programNumber":44},{"time":131999.86800000028,"duration":74.07399999999325,"noteNumber":71,"velocity":55,"programNumber":44},{"time":132110.97900000028,"duration":74.07399999999325,"noteNumber":71,"velocity":56,"programNumber":44},{"time":132222.0900000003,"duration":74.07399999999325,"noteNumber":71,"velocity":56,"programNumber":44},{"time":132333.2010000003,"duration":74.07399999999325,"noteNumber":71,"velocity":58,"programNumber":44},{"time":132444.3120000003,"duration":74.07399999999325,"noteNumber":72,"velocity":58,"programNumber":44},{"time":132555.4230000003,"duration":74.07399999999325,"noteNumber":72,"velocity":59,"programNumber":44},{"time":132666.5340000003,"duration":74.07399999999325,"noteNumber":72,"velocity":59,"programNumber":44},{"time":132777.6450000003,"duration":74.07399999999325,"noteNumber":72,"velocity":61,"programNumber":44},{"time":132888.7560000003,"duration":74.07399999999325,"noteNumber":74,"velocity":61,"programNumber":44},{"time":132999.86700000032,"duration":74.07399999999325,"noteNumber":74,"velocity":62,"programNumber":44},{"time":133110.97800000032,"duration":74.07399999999325,"noteNumber":74,"velocity":62,"programNumber":44},{"time":133222.08900000033,"duration":74.07399999999325,"noteNumber":74,"velocity":64,"programNumber":44},{"time":133333.20000000033,"duration":74.07399999999325,"noteNumber":71,"velocity":64,"programNumber":44},{"time":133444.31100000034,"duration":74.07399999999325,"noteNumber":71,"velocity":65,"programNumber":44},{"time":133555.42200000034,"duration":74.07399999999325,"noteNumber":71,"velocity":65,"programNumber":44},{"time":133666.53300000035,"duration":74.07399999999325,"noteNumber":71,"velocity":67,"programNumber":44},{"time":133777.64400000035,"duration":74.07399999999325,"noteNumber":74,"velocity":67,"programNumber":44},{"time":133888.75500000035,"duration":74.07399999999325,"noteNumber":74,"velocity":68,"programNumber":44},{"time":133999.86600000036,"duration":74.07399999999325,"noteNumber":74,"velocity":68,"programNumber":44},{"time":134110.97700000036,"duration":74.07399999999325,"noteNumber":74,"velocity":70,"programNumber":44},{"time":134222.08800000037,"duration":74.07399999999325,"noteNumber":74,"velocity":70,"programNumber":44},{"time":134333.19900000037,"duration":74.07399999999325,"noteNumber":74,"velocity":71,"programNumber":44},{"time":134444.31000000038,"duration":74.07399999999325,"noteNumber":74,"velocity":71,"programNumber":44},{"time":134555.42100000038,"duration":74.07399999999325,"noteNumber":74,"velocity":73,"programNumber":44},{"time":134666.53200000038,"duration":74.07399999999325,"noteNumber":79,"velocity":73,"programNumber":44},{"time":134777.6430000004,"duration":74.07399999999325,"noteNumber":79,"velocity":73,"programNumber":44},{"time":134888.7540000004,"duration":74.07399999999325,"noteNumber":79,"velocity":74,"programNumber":44},{"time":134999.8650000004,"duration":74.07399999999325,"noteNumber":79,"velocity":74,"programNumber":44},{"time":135110.9760000004,"duration":74.07399999999325,"noteNumber":78,"velocity":85,"programNumber":44},{"time":135222.0870000004,"duration":74.07399999999325,"noteNumber":78,"velocity":85,"programNumber":44},{"time":135333.1980000004,"duration":74.07399999999325,"noteNumber":78,"velocity":85,"programNumber":44},{"time":135444.30900000042,"duration":74.07399999999325,"noteNumber":78,"velocity":85,"programNumber":44},{"time":135555.42000000042,"duration":74.07399999999325,"noteNumber":78,"velocity":85,"programNumber":44},{"time":135666.53100000042,"duration":74.07399999999325,"noteNumber":78,"velocity":85,"programNumber":44},{"time":135777.64200000043,"duration":74.07399999999325,"noteNumber":78,"velocity":85,"programNumber":44},{"time":135888.75300000043,"duration":74.07399999999325,"noteNumber":78,"velocity":85,"programNumber":44},{"time":135999.86400000044,"duration":74.07399999999325,"noteNumber":79,"velocity":85,"programNumber":44},{"time":136110.97500000044,"duration":74.07399999999325,"noteNumber":79,"velocity":85,"programNumber":44},{"time":136222.08600000045,"duration":74.07399999999325,"noteNumber":79,"velocity":85,"programNumber":44},{"time":136333.19700000045,"duration":74.07399999999325,"noteNumber":79,"velocity":85,"programNumber":44},{"time":136444.30800000046,"duration":74.07399999999325,"noteNumber":79,"velocity":85,"programNumber":44},{"time":136555.41900000046,"duration":74.07399999999325,"noteNumber":79,"velocity":85,"programNumber":44},{"time":136666.53000000046,"duration":74.07399999999325,"noteNumber":79,"velocity":85,"programNumber":44},{"time":136777.64100000047,"duration":74.07399999999325,"noteNumber":79,"velocity":85,"programNumber":44},{"time":136888.75200000047,"duration":74.07399999999325,"noteNumber":78,"velocity":85,"programNumber":44},{"time":136999.86300000048,"duration":74.07399999999325,"noteNumber":78,"velocity":85,"programNumber":44},{"time":137110.97400000048,"duration":74.07399999999325,"noteNumber":78,"velocity":85,"programNumber":44},{"time":137222.0850000005,"duration":74.07399999999325,"noteNumber":78,"velocity":85,"programNumber":44},{"time":137333.1960000005,"duration":74.07399999999325,"noteNumber":78,"velocity":85,"programNumber":44},{"time":137444.3070000005,"duration":74.07399999999325,"noteNumber":78,"velocity":85,"programNumber":44},{"time":137555.4180000005,"duration":74.07399999999325,"noteNumber":78,"velocity":85,"programNumber":44},{"time":137666.5290000005,"duration":74.07399999999325,"noteNumber":78,"velocity":85,"programNumber":44},{"time":137777.6400000005,"duration":74.07399999999325,"noteNumber":79,"velocity":85,"programNumber":44},{"time":137888.7510000005,"duration":74.07399999999325,"noteNumber":79,"velocity":85,"programNumber":44},{"time":137999.86200000052,"duration":74.07399999999325,"noteNumber":79,"velocity":85,"programNumber":44},{"time":138110.97300000052,"duration":74.07399999999325,"noteNumber":79,"velocity":85,"programNumber":44},{"time":138222.08400000053,"duration":74.07399999999325,"noteNumber":79,"velocity":85,"programNumber":44},{"time":138333.19500000053,"duration":74.07399999999325,"noteNumber":79,"velocity":85,"programNumber":44},{"time":138444.30600000054,"duration":74.07399999999325,"noteNumber":79,"velocity":85,"programNumber":44},{"time":138555.41700000054,"duration":74.07399999999325,"noteNumber":79,"velocity":85,"programNumber":44},{"time":138666.52800000054,"duration":111.11100000000442,"noteNumber":74,"velocity":85,"programNumber":44},{"time":138888.75000000055,"duration":333.33300000001327,"noteNumber":74,"velocity":85,"programNumber":44},{"time":139333.19400000057,"duration":333.33300000001327,"noteNumber":74,"velocity":85,"programNumber":44},{"time":139777.6380000006,"duration":333.33300000001327,"noteNumber":74,"velocity":85,"programNumber":44},{"time":140222.0820000006,"duration":333.33300000001327,"noteNumber":74,"velocity":85,"programNumber":44},{"time":140666.52600000062,"duration":333.33300000001327,"noteNumber":74,"velocity":85,"programNumber":44},{"time":141110.97000000064,"duration":333.33300000001327,"noteNumber":74,"velocity":85,"programNumber":44},{"time":141555.41400000066,"duration":333.33300000001327,"noteNumber":74,"velocity":85,"programNumber":44},{"time":141999.85800000068,"duration":222.22200000000885,"noteNumber":74,"velocity":85,"programNumber":44},{"time":142222.0800000007,"duration":74.07399999999325,"noteNumber":73,"velocity":85,"programNumber":44},{"time":142333.1910000007,"duration":74.07399999999325,"noteNumber":73,"velocity":85,"programNumber":44},{"time":142333.1910000007,"duration":74.07399999999325,"noteNumber":76,"velocity":85,"programNumber":44},{"time":142444.3020000007,"duration":74.07399999999325,"noteNumber":73,"velocity":85,"programNumber":44},{"time":142444.3020000007,"duration":74.07399999999325,"noteNumber":76,"velocity":85,"programNumber":44},{"time":142555.4130000007,"duration":74.07399999999325,"noteNumber":73,"velocity":85,"programNumber":44},{"time":142555.4130000007,"duration":74.07399999999325,"noteNumber":76,"velocity":85,"programNumber":44},{"time":142666.5240000007,"duration":74.07399999999325,"noteNumber":74,"velocity":85,"programNumber":44},{"time":142666.5240000007,"duration":74.07399999999325,"noteNumber":78,"velocity":85,"programNumber":44},{"time":142777.6350000007,"duration":74.07399999999325,"noteNumber":74,"velocity":85,"programNumber":44},{"time":142777.6350000007,"duration":74.07399999999325,"noteNumber":78,"velocity":85,"programNumber":44},{"time":142888.7460000007,"duration":74.07399999999325,"noteNumber":74,"velocity":85,"programNumber":44},{"time":142888.7460000007,"duration":74.07399999999325,"noteNumber":78,"velocity":85,"programNumber":44},{"time":142999.85700000072,"duration":74.07399999999325,"noteNumber":74,"velocity":85,"programNumber":44},{"time":142999.85700000072,"duration":74.07399999999325,"noteNumber":78,"velocity":85,"programNumber":44},{"time":143110.96800000072,"duration":74.07399999999325,"noteNumber":76,"velocity":85,"programNumber":44},{"time":143110.96800000072,"duration":74.07399999999325,"noteNumber":73,"velocity":85,"programNumber":44},{"time":143222.07900000073,"duration":74.07399999999325,"noteNumber":76,"velocity":85,"programNumber":44},{"time":143222.07900000073,"duration":74.07399999999325,"noteNumber":73,"velocity":85,"programNumber":44},{"time":143333.19000000073,"duration":74.07399999999325,"noteNumber":76,"velocity":85,"programNumber":44},{"time":143333.19000000073,"duration":74.07399999999325,"noteNumber":73,"velocity":85,"programNumber":44},{"time":143444.30100000073,"duration":74.07399999999325,"noteNumber":76,"velocity":85,"programNumber":44},{"time":143444.30100000073,"duration":74.07399999999325,"noteNumber":73,"velocity":85,"programNumber":44},{"time":143555.41200000074,"duration":74.07399999999325,"noteNumber":74,"velocity":85,"programNumber":44},{"time":143555.41200000074,"duration":74.07399999999325,"noteNumber":78,"velocity":85,"programNumber":44},{"time":143666.52300000074,"duration":74.07399999999325,"noteNumber":74,"velocity":85,"programNumber":44},{"time":143666.52300000074,"duration":74.07399999999325,"noteNumber":78,"velocity":85,"programNumber":44},{"time":143777.63400000075,"duration":74.07399999999325,"noteNumber":74,"velocity":85,"programNumber":44},{"time":143777.63400000075,"duration":74.07399999999325,"noteNumber":78,"velocity":85,"programNumber":44},{"time":143888.74500000075,"duration":74.07399999999325,"noteNumber":74,"velocity":85,"programNumber":44},{"time":143888.74500000075,"duration":74.07399999999325,"noteNumber":78,"velocity":85,"programNumber":44},{"time":144018.37450000073,"duration":166.66649999999208,"noteNumber":73,"velocity":85,"programNumber":44},{"time":144018.37450000073,"duration":166.66649999999208,"noteNumber":76,"velocity":85,"programNumber":44},{"time":144240.5965000007,"duration":166.66649999999208,"noteNumber":69,"velocity":85,"programNumber":44},{"time":144462.8185000007,"duration":166.66649999999208,"noteNumber":69,"velocity":85,"programNumber":44},{"time":144685.04050000067,"duration":166.66649999999208,"noteNumber":69,"velocity":85,"programNumber":44},{"time":144907.26250000065,"duration":444.4439999999886,"noteNumber":69,"velocity":85,"programNumber":44},{"time":145777.63200000065,"duration":666.6659999999974,"noteNumber":69,"velocity":55,"programNumber":44},{"time":146444.29800000065,"duration":74.07399999999325,"noteNumber":67,"velocity":55,"programNumber":44},{"time":146518.37200000064,"duration":74.07399999999325,"noteNumber":66,"velocity":55,"programNumber":44},{"time":146592.44600000064,"duration":74.07399999999325,"noteNumber":64,"velocity":55,"programNumber":44},{"time":146666.52000000063,"duration":222.22200000000885,"noteNumber":62,"velocity":55,"programNumber":44},{"time":147110.96400000065,"duration":222.22200000000885,"noteNumber":71,"velocity":55,"programNumber":44},{"time":147555.40800000067,"duration":222.22200000000885,"noteNumber":67,"velocity":55,"programNumber":44},{"time":147999.85200000068,"duration":222.22200000000885,"noteNumber":64,"velocity":55,"programNumber":44},{"time":148444.2960000007,"duration":222.22200000000885,"noteNumber":69,"velocity":55,"programNumber":44},{"time":149333.1840000007,"duration":666.6659999999974,"noteNumber":66,"velocity":55,"programNumber":44},{"time":149999.8500000007,"duration":74.07399999999325,"noteNumber":64,"velocity":55,"programNumber":44},{"time":150073.9240000007,"duration":74.07399999999325,"noteNumber":62,"velocity":55,"programNumber":44},{"time":150147.9980000007,"duration":74.07399999999325,"noteNumber":61,"velocity":55,"programNumber":44},{"time":150222.07200000068,"duration":222.22200000000885,"noteNumber":59,"velocity":55,"programNumber":44},{"time":150666.5160000007,"duration":222.22200000000885,"noteNumber":67,"velocity":55,"programNumber":44},{"time":151110.96000000072,"duration":888.8880000000063,"noteNumber":66,"velocity":55,"programNumber":44},{"time":151999.84800000073,"duration":444.4439999999886,"noteNumber":64,"velocity":55,"programNumber":44},{"time":152888.7360000007,"duration":666.6659999999974,"noteNumber":69,"velocity":55,"programNumber":44},{"time":153555.4020000007,"duration":74.07399999999325,"noteNumber":67,"velocity":55,"programNumber":44},{"time":153629.4760000007,"duration":74.07399999999325,"noteNumber":66,"velocity":55,"programNumber":44},{"time":153703.5500000007,"duration":74.07399999999325,"noteNumber":64,"velocity":55,"programNumber":44},{"time":153777.62400000068,"duration":222.22200000000885,"noteNumber":62,"velocity":55,"programNumber":44},{"time":154222.0680000007,"duration":222.22200000000885,"noteNumber":71,"velocity":55,"programNumber":44},{"time":154666.51200000072,"duration":222.22200000000885,"noteNumber":67,"velocity":55,"programNumber":44},{"time":155110.95600000073,"duration":222.22200000000885,"noteNumber":64,"velocity":55,"programNumber":44},{"time":155555.40000000075,"duration":222.22200000000885,"noteNumber":69,"velocity":55,"programNumber":44},{"time":156166.51050000076,"duration":166.66649999999208,"noteNumber":67,"velocity":55,"programNumber":44},{"time":156444.28800000076,"duration":222.22200000000885,"noteNumber":67,"velocity":55,"programNumber":44},{"time":156666.51000000077,"duration":222.22200000000885,"noteNumber":66,"velocity":55,"programNumber":44},{"time":157110.95400000078,"duration":111.11100000000442,"noteNumber":79,"velocity":55,"programNumber":44},{"time":157333.1760000008,"duration":222.22200000000885,"noteNumber":79,"velocity":55,"programNumber":44},{"time":157555.3980000008,"duration":222.22200000000885,"noteNumber":78,"velocity":55,"programNumber":44},{"time":157999.84200000082,"duration":166.66649999999208,"noteNumber":67,"velocity":55,"programNumber":44},{"time":158222.0640000008,"duration":166.66649999999208,"noteNumber":66,"velocity":55,"programNumber":44},{"time":158444.28600000078,"duration":166.66649999999208,"noteNumber":66,"velocity":55,"programNumber":44},{"time":158666.50800000076,"duration":166.66649999999208,"noteNumber":67,"velocity":55,"programNumber":44},{"time":158888.73000000074,"duration":166.66649999999208,"noteNumber":67,"velocity":55,"programNumber":44},{"time":159110.95200000072,"duration":166.66649999999208,"noteNumber":69,"velocity":55,"programNumber":44},{"time":159333.1740000007,"duration":166.66649999999208,"noteNumber":69,"velocity":55,"programNumber":44},{"time":159555.39600000068,"duration":166.66649999999208,"noteNumber":66,"velocity":55,"programNumber":44},{"time":159777.61800000066,"duration":166.66649999999208,"noteNumber":66,"velocity":55,"programNumber":44},{"time":159999.84000000064,"duration":166.66649999999208,"noteNumber":64,"velocity":55,"programNumber":44},{"time":160222.06200000062,"duration":166.66649999999208,"noteNumber":64,"velocity":55,"programNumber":44},{"time":160444.2840000006,"duration":166.66649999999208,"noteNumber":66,"velocity":55,"programNumber":44},{"time":160666.50600000058,"duration":166.66649999999208,"noteNumber":66,"velocity":55,"programNumber":44},{"time":160888.72800000056,"duration":166.66649999999208,"noteNumber":67,"velocity":55,"programNumber":44},{"time":161110.95000000054,"duration":166.66649999999208,"noteNumber":67,"velocity":55,"programNumber":44},{"time":161333.17200000052,"duration":166.66649999999208,"noteNumber":64,"velocity":55,"programNumber":44},{"time":161555.3940000005,"duration":166.66649999999208,"noteNumber":64,"velocity":55,"programNumber":44},{"time":161777.61600000047,"duration":166.66649999999208,"noteNumber":66,"velocity":55,"programNumber":44},{"time":161999.83800000045,"duration":166.66649999999208,"noteNumber":66,"velocity":55,"programNumber":44},{"time":162222.06000000043,"duration":166.66649999999208,"noteNumber":67,"velocity":55,"programNumber":44},{"time":162444.2820000004,"duration":166.66649999999208,"noteNumber":67,"velocity":55,"programNumber":44},{"time":162666.5040000004,"duration":166.66649999999208,"noteNumber":69,"velocity":55,"programNumber":44},{"time":162888.72600000037,"duration":166.66649999999208,"noteNumber":69,"velocity":55,"programNumber":44},{"time":163110.94800000035,"duration":166.66649999999208,"noteNumber":66,"velocity":55,"programNumber":44},{"time":163333.17000000033,"duration":166.66649999999208,"noteNumber":66,"velocity":55,"programNumber":44},{"time":163555.3920000003,"duration":166.66649999999208,"noteNumber":64,"velocity":55,"programNumber":44},{"time":163777.6140000003,"duration":166.66649999999208,"noteNumber":64,"velocity":55,"programNumber":44},{"time":163999.83600000027,"duration":166.66649999999208,"noteNumber":66,"velocity":55,"programNumber":44},{"time":164222.05800000025,"duration":166.66649999999208,"noteNumber":66,"velocity":55,"programNumber":44},{"time":164444.28000000023,"duration":166.66649999999208,"noteNumber":67,"velocity":55,"programNumber":44},{"time":164666.5020000002,"duration":166.66649999999208,"noteNumber":67,"velocity":55,"programNumber":44},{"time":164888.7240000002,"duration":166.66649999999208,"noteNumber":64,"velocity":55,"programNumber":44},{"time":165110.94600000017,"duration":166.66649999999208,"noteNumber":64,"velocity":55,"programNumber":44},{"time":165333.16800000015,"duration":444.4439999999886,"noteNumber":66,"velocity":55,"programNumber":44},{"time":166222.05600000013,"duration":888.8880000000063,"noteNumber":71,"velocity":85,"programNumber":44},{"time":166222.05600000013,"duration":888.8880000000063,"noteNumber":78,"velocity":85,"programNumber":44},{"time":167110.94400000013,"duration":444.4439999999886,"noteNumber":76,"velocity":85,"programNumber":44},{"time":167999.8320000001,"duration":888.8880000000063,"noteNumber":76,"velocity":85,"programNumber":44},{"time":167999.8320000001,"duration":888.8880000000063,"noteNumber":69,"velocity":85,"programNumber":44},{"time":168888.72000000012,"duration":166.66649999999208,"noteNumber":74,"velocity":85,"programNumber":44},{"time":169110.9420000001,"duration":111.11100000000442,"noteNumber":78,"velocity":85,"programNumber":44},{"time":169333.1640000001,"duration":111.11100000000442,"noteNumber":79,"velocity":85,"programNumber":44},{"time":169555.38600000012,"duration":111.11100000000442,"noteNumber":81,"velocity":85,"programNumber":44},{"time":169777.60800000012,"duration":222.22200000000885,"noteNumber":79,"velocity":85,"programNumber":44},{"time":169999.83000000013,"duration":111.11100000000442,"noteNumber":81,"velocity":85,"programNumber":44},{"time":170110.94100000014,"duration":111.11100000000442,"noteNumber":83,"velocity":85,"programNumber":44},{"time":170222.05200000014,"duration":166.66649999999208,"noteNumber":81,"velocity":85,"programNumber":44},{"time":170444.27400000012,"duration":111.11100000000442,"noteNumber":79,"velocity":85,"programNumber":44},{"time":170666.49600000013,"duration":222.22200000000885,"noteNumber":79,"velocity":85,"programNumber":44},{"time":170888.71800000014,"duration":166.66649999999208,"noteNumber":78,"velocity":85,"programNumber":44},{"time":171110.94000000012,"duration":111.11100000000442,"noteNumber":74,"velocity":85,"programNumber":44},{"time":171333.16200000013,"duration":111.11100000000442,"noteNumber":78,"velocity":85,"programNumber":44},{"time":171555.38400000014,"duration":222.22200000000885,"noteNumber":78,"velocity":85,"programNumber":44},{"time":171777.60600000015,"duration":166.66649999999208,"noteNumber":76,"velocity":85,"programNumber":44},{"time":171999.82800000013,"duration":111.11100000000442,"noteNumber":74,"velocity":85,"programNumber":44},{"time":172222.05000000013,"duration":111.11100000000442,"noteNumber":73,"velocity":85,"programNumber":44},{"time":172444.27200000014,"duration":166.66649999999208,"noteNumber":74,"velocity":85,"programNumber":44},{"time":172666.49400000012,"duration":166.66649999999208,"noteNumber":66,"velocity":53,"programNumber":44},{"time":172888.7160000001,"duration":166.66649999999208,"noteNumber":67,"velocity":53,"programNumber":44},{"time":173110.93800000008,"duration":166.66649999999208,"noteNumber":67,"velocity":53,"programNumber":44},{"time":173333.16000000006,"duration":166.66649999999208,"noteNumber":69,"velocity":53,"programNumber":44},{"time":173555.38200000004,"duration":166.66649999999208,"noteNumber":69,"velocity":53,"programNumber":44},{"time":173777.60400000002,"duration":166.66649999999208,"noteNumber":66,"velocity":53,"programNumber":44},{"time":173999.826,"duration":166.66649999999208,"noteNumber":66,"velocity":53,"programNumber":44},{"time":174222.04799999998,"duration":166.66649999999208,"noteNumber":64,"velocity":55,"programNumber":44},{"time":174444.26999999996,"duration":166.66649999999208,"noteNumber":64,"velocity":55,"programNumber":44},{"time":174666.49199999994,"duration":166.66649999999208,"noteNumber":66,"velocity":55,"programNumber":44},{"time":174888.71399999992,"duration":166.66649999999208,"noteNumber":66,"velocity":55,"programNumber":44},{"time":175110.9359999999,"duration":166.66649999999208,"noteNumber":67,"velocity":55,"programNumber":44},{"time":175333.15799999988,"duration":166.66649999999208,"noteNumber":67,"velocity":55,"programNumber":44},{"time":175555.37999999986,"duration":166.66649999999208,"noteNumber":64,"velocity":55,"programNumber":44},{"time":175777.60199999984,"duration":166.66649999999208,"noteNumber":64,"velocity":55,"programNumber":44},{"time":175999.82399999982,"duration":166.66649999999208,"noteNumber":66,"velocity":55,"programNumber":44},{"time":176222.0459999998,"duration":166.66649999999208,"noteNumber":66,"velocity":55,"programNumber":44},{"time":176444.26799999978,"duration":166.66649999999208,"noteNumber":67,"velocity":55,"programNumber":44},{"time":176666.48999999976,"duration":166.66649999999208,"noteNumber":67,"velocity":55,"programNumber":44},{"time":176888.71199999974,"duration":166.66649999999208,"noteNumber":69,"velocity":55,"programNumber":44},{"time":177110.93399999972,"duration":166.66649999999208,"noteNumber":69,"velocity":55,"programNumber":44},{"time":177333.1559999997,"duration":166.66649999999208,"noteNumber":66,"velocity":55,"programNumber":44},{"time":177555.37799999968,"duration":166.66649999999208,"noteNumber":66,"velocity":55,"programNumber":44},{"time":177777.59999999966,"duration":166.66649999999208,"noteNumber":64,"velocity":55,"programNumber":44},{"time":177999.82199999964,"duration":166.66649999999208,"noteNumber":64,"velocity":55,"programNumber":44},{"time":178222.04399999962,"duration":166.66649999999208,"noteNumber":66,"velocity":55,"programNumber":44},{"time":178444.2659999996,"duration":166.66649999999208,"noteNumber":66,"velocity":55,"programNumber":44},{"time":178666.48799999958,"duration":166.66649999999208,"noteNumber":67,"velocity":55,"programNumber":44},{"time":178888.70999999956,"duration":166.66649999999208,"noteNumber":67,"velocity":55,"programNumber":44},{"time":179110.93199999954,"duration":166.66649999999208,"noteNumber":64,"velocity":55,"programNumber":44},{"time":179333.15399999951,"duration":166.66649999999208,"noteNumber":64,"velocity":55,"programNumber":44},{"time":179555.3759999995,"duration":444.4439999999886,"noteNumber":66,"velocity":58,"programNumber":44},{"time":180444.26399999947,"duration":888.8880000000063,"noteNumber":71,"velocity":85,"programNumber":44},{"time":180444.26399999947,"duration":888.8880000000063,"noteNumber":78,"velocity":85,"programNumber":44},{"time":181333.15199999948,"duration":444.4439999999886,"noteNumber":76,"velocity":85,"programNumber":44},{"time":182222.03999999946,"duration":888.8880000000063,"noteNumber":76,"velocity":85,"programNumber":44},{"time":182222.03999999946,"duration":888.8880000000063,"noteNumber":69,"velocity":85,"programNumber":44},{"time":183110.92799999946,"duration":166.66649999999208,"noteNumber":74,"velocity":85,"programNumber":44},{"time":183333.14999999944,"duration":111.11100000000442,"noteNumber":78,"velocity":85,"programNumber":44},{"time":183555.37199999945,"duration":111.11100000000442,"noteNumber":79,"velocity":85,"programNumber":44},{"time":183777.59399999946,"duration":111.11100000000442,"noteNumber":81,"velocity":85,"programNumber":44},{"time":183999.81599999947,"duration":222.22200000000885,"noteNumber":79,"velocity":85,"programNumber":44},{"time":184222.03799999948,"duration":111.11100000000442,"noteNumber":81,"velocity":85,"programNumber":44},{"time":184333.14899999948,"duration":111.11100000000442,"noteNumber":83,"velocity":85,"programNumber":44},{"time":184444.25999999949,"duration":166.66649999999208,"noteNumber":81,"velocity":85,"programNumber":44},{"time":184666.48199999947,"duration":111.11100000000442,"noteNumber":79,"velocity":85,"programNumber":44},{"time":184888.70399999947,"duration":222.22200000000885,"noteNumber":79,"velocity":85,"programNumber":44},{"time":185110.92599999948,"duration":166.66649999999208,"noteNumber":78,"velocity":85,"programNumber":44},{"time":185333.14799999946,"duration":111.11100000000442,"noteNumber":74,"velocity":85,"programNumber":44},{"time":185555.36999999947,"duration":111.11100000000442,"noteNumber":78,"velocity":85,"programNumber":44},{"time":185777.59199999948,"duration":222.22200000000885,"noteNumber":78,"velocity":85,"programNumber":44},{"time":185999.8139999995,"duration":166.66649999999208,"noteNumber":76,"velocity":85,"programNumber":44},{"time":186222.03599999947,"duration":111.11100000000442,"noteNumber":74,"velocity":85,"programNumber":44},{"time":186444.25799999948,"duration":111.11100000000442,"noteNumber":73,"velocity":85,"programNumber":44},{"time":186666.4799999995,"duration":166.66649999999208,"noteNumber":74,"velocity":85,"programNumber":44},{"time":186888.70199999947,"duration":166.66649999999208,"noteNumber":69,"velocity":85,"programNumber":44},{"time":187110.92399999945,"duration":166.66649999999208,"noteNumber":71,"velocity":85,"programNumber":44},{"time":187333.14599999943,"duration":166.66649999999208,"noteNumber":73,"velocity":85,"programNumber":44},{"time":187555.3679999994,"duration":111.11100000000442,"noteNumber":74,"velocity":85,"programNumber":44},{"time":187777.5899999994,"duration":111.11100000000442,"noteNumber":74,"velocity":85,"programNumber":44},{"time":187999.81199999942,"duration":55.55549999998766,"noteNumber":76,"velocity":85,"programNumber":44},{"time":188055.3674999994,"duration":55.55549999998766,"noteNumber":78,"velocity":85,"programNumber":44},{"time":188110.9229999994,"duration":55.55549999998766,"noteNumber":76,"velocity":85,"programNumber":44},{"time":188166.4784999994,"duration":55.55549999998766,"noteNumber":78,"velocity":85,"programNumber":44},{"time":188222.03399999937,"duration":111.11100000000442,"noteNumber":74,"velocity":85,"programNumber":44},{"time":188333.14499999938,"duration":111.11100000000442,"noteNumber":76,"velocity":85,"programNumber":44},{"time":188444.25599999938,"duration":222.22200000000885,"noteNumber":78,"velocity":85,"programNumber":44},{"time":188666.4779999994,"duration":166.66649999999208,"noteNumber":73,"velocity":85,"programNumber":44},{"time":188888.69999999937,"duration":166.66649999999208,"noteNumber":74,"velocity":85,"programNumber":44},{"time":189110.92199999935,"duration":166.66649999999208,"noteNumber":76,"velocity":85,"programNumber":44},{"time":189333.14399999933,"duration":166.66649999999208,"noteNumber":78,"velocity":85,"programNumber":44},{"time":189555.3659999993,"duration":166.66649999999208,"noteNumber":78,"velocity":85,"programNumber":44},{"time":189777.5879999993,"duration":55.55549999998766,"noteNumber":79,"velocity":85,"programNumber":44},{"time":189833.14349999928,"duration":55.55549999998766,"noteNumber":81,"velocity":85,"programNumber":44},{"time":189888.69899999927,"duration":55.55549999998766,"noteNumber":79,"velocity":85,"programNumber":44},{"time":189944.25449999925,"duration":55.55549999998766,"noteNumber":81,"velocity":85,"programNumber":44},{"time":189999.80999999924,"duration":111.11100000000442,"noteNumber":78,"velocity":85,"programNumber":44},{"time":190110.92099999925,"duration":111.11100000000442,"noteNumber":79,"velocity":85,"programNumber":44},{"time":190222.03199999925,"duration":166.66649999999208,"noteNumber":81,"velocity":85,"programNumber":44},{"time":190444.25399999923,"duration":166.66649999999208,"noteNumber":81,"velocity":85,"programNumber":44},{"time":190666.4759999992,"duration":55.55549999998766,"noteNumber":82,"velocity":85,"programNumber":44},{"time":190722.0314999992,"duration":55.55549999998766,"noteNumber":83,"velocity":85,"programNumber":44},{"time":190777.58699999918,"duration":55.55549999998766,"noteNumber":82,"velocity":85,"programNumber":44},{"time":190833.14249999917,"duration":55.55549999998766,"noteNumber":83,"velocity":85,"programNumber":44},{"time":190888.69799999916,"duration":111.11100000000442,"noteNumber":80,"velocity":85,"programNumber":44},{"time":190999.80899999916,"duration":111.11100000000442,"noteNumber":82,"velocity":85,"programNumber":44},{"time":191110.91999999917,"duration":444.4439999999886,"noteNumber":83,"velocity":85,"programNumber":44},{"time":191999.80799999915,"duration":1777.7760000000126,"noteNumber":67,"velocity":55,"programNumber":44},{"time":193777.58399999916,"duration":222.22200000000885,"noteNumber":66,"velocity":55,"programNumber":44},{"time":194222.02799999918,"duration":222.22200000000885,"noteNumber":69,"velocity":55,"programNumber":44},{"time":194666.4719999992,"duration":222.22200000000885,"noteNumber":66,"velocity":55,"programNumber":44},{"time":195592.3969999992,"duration":444.4439999999886,"noteNumber":74,"velocity":89,"programNumber":44},{"time":195592.3969999992,"duration":444.4439999999886,"noteNumber":62,"velocity":89,"programNumber":44},{"time":196259.0629999992,"duration":166.66649999999208,"noteNumber":69,"velocity":89,"programNumber":44},{"time":196481.2849999992,"duration":444.4439999999886,"noteNumber":74,"velocity":89,"programNumber":44},{"time":197147.9509999992,"duration":166.66649999999208,"noteNumber":69,"velocity":89,"programNumber":44},{"time":197370.17299999917,"duration":166.66649999999208,"noteNumber":74,"velocity":89,"programNumber":44},{"time":197592.39499999915,"duration":166.66649999999208,"noteNumber":69,"velocity":89,"programNumber":44},{"time":197814.61699999913,"duration":166.66649999999208,"noteNumber":74,"velocity":89,"programNumber":44},{"time":198036.8389999991,"duration":166.66649999999208,"noteNumber":78,"velocity":89,"programNumber":44},{"time":198259.06099999908,"duration":444.4439999999886,"noteNumber":81,"velocity":89,"programNumber":44},{"time":199147.94899999906,"duration":444.4439999999886,"noteNumber":81,"velocity":89,"programNumber":44},{"time":199814.61499999906,"duration":166.66649999999208,"noteNumber":78,"velocity":89,"programNumber":44},{"time":200036.83699999904,"duration":444.4439999999886,"noteNumber":81,"velocity":89,"programNumber":44},{"time":200703.50299999904,"duration":166.66649999999208,"noteNumber":78,"velocity":89,"programNumber":44},{"time":200925.72499999902,"duration":166.66649999999208,"noteNumber":81,"velocity":89,"programNumber":44},{"time":201147.946999999,"duration":166.66649999999208,"noteNumber":78,"velocity":89,"programNumber":44},{"time":201370.16899999898,"duration":166.66649999999208,"noteNumber":75,"velocity":89,"programNumber":44},{"time":201592.39099999896,"duration":166.66649999999208,"noteNumber":78,"velocity":89,"programNumber":44},{"time":201814.61299999894,"duration":444.4439999999886,"noteNumber":71,"velocity":89,"programNumber":44},{"time":202666.46399999893,"duration":166.66649999999208,"noteNumber":64,"velocity":55,"programNumber":44},{"time":202888.6859999989,"duration":166.66649999999208,"noteNumber":64,"velocity":55,"programNumber":44},{"time":203110.9079999989,"duration":166.66649999999208,"noteNumber":65,"velocity":55,"programNumber":44},{"time":203333.12999999887,"duration":166.66649999999208,"noteNumber":65,"velocity":55,"programNumber":44},{"time":203555.35199999885,"duration":166.66649999999208,"noteNumber":67,"velocity":55,"programNumber":44},{"time":203777.57399999883,"duration":166.66649999999208,"noteNumber":67,"velocity":55,"programNumber":44},{"time":203999.7959999988,"duration":166.66649999999208,"noteNumber":64,"velocity":55,"programNumber":44},{"time":204222.0179999988,"duration":166.66649999999208,"noteNumber":64,"velocity":55,"programNumber":44},{"time":204444.23999999877,"duration":166.66649999999208,"noteNumber":62,"velocity":55,"programNumber":44},{"time":204666.46199999875,"duration":166.66649999999208,"noteNumber":62,"velocity":55,"programNumber":44},{"time":204888.68399999873,"duration":166.66649999999208,"noteNumber":64,"velocity":55,"programNumber":44},{"time":205110.9059999987,"duration":166.66649999999208,"noteNumber":64,"velocity":55,"programNumber":44},{"time":205333.1279999987,"duration":166.66649999999208,"noteNumber":65,"velocity":55,"programNumber":44},{"time":205555.34999999867,"duration":166.66649999999208,"noteNumber":65,"velocity":55,"programNumber":44},{"time":205777.57199999865,"duration":166.66649999999208,"noteNumber":62,"velocity":55,"programNumber":44},{"time":205999.79399999863,"duration":166.66649999999208,"noteNumber":62,"velocity":55,"programNumber":44},{"time":206222.0159999986,"duration":166.66649999999208,"noteNumber":64,"velocity":55,"programNumber":44},{"time":206444.2379999986,"duration":166.66649999999208,"noteNumber":64,"velocity":55,"programNumber":44},{"time":206666.45999999857,"duration":166.66649999999208,"noteNumber":65,"velocity":55,"programNumber":44},{"time":206888.68199999855,"duration":166.66649999999208,"noteNumber":65,"velocity":55,"programNumber":44},{"time":207110.90399999853,"duration":166.66649999999208,"noteNumber":67,"velocity":55,"programNumber":44},{"time":207333.1259999985,"duration":166.66649999999208,"noteNumber":67,"velocity":55,"programNumber":44},{"time":207555.34799999848,"duration":166.66649999999208,"noteNumber":64,"velocity":55,"programNumber":44},{"time":207777.56999999846,"duration":166.66649999999208,"noteNumber":64,"velocity":55,"programNumber":44},{"time":207999.79199999844,"duration":166.66649999999208,"noteNumber":62,"velocity":55,"programNumber":44},{"time":208222.01399999842,"duration":166.66649999999208,"noteNumber":62,"velocity":55,"programNumber":44},{"time":208444.2359999984,"duration":166.66649999999208,"noteNumber":64,"velocity":55,"programNumber":44},{"time":208666.45799999838,"duration":166.66649999999208,"noteNumber":64,"velocity":55,"programNumber":44},{"time":208888.67999999836,"duration":166.66649999999208,"noteNumber":65,"velocity":55,"programNumber":44},{"time":209110.90199999834,"duration":166.66649999999208,"noteNumber":65,"velocity":55,"programNumber":44},{"time":209333.12399999832,"duration":166.66649999999208,"noteNumber":62,"velocity":55,"programNumber":44},{"time":209555.3459999983,"duration":166.66649999999208,"noteNumber":62,"velocity":55,"programNumber":44},{"time":209777.56799999828,"duration":166.66649999999208,"noteNumber":64,"velocity":55,"programNumber":44},{"time":209999.78999999826,"duration":166.66649999999208,"noteNumber":64,"velocity":55,"programNumber":44},{"time":210222.01199999824,"duration":166.66649999999208,"noteNumber":65,"velocity":55,"programNumber":44},{"time":210444.23399999822,"duration":166.66649999999208,"noteNumber":65,"velocity":55,"programNumber":44},{"time":210666.4559999982,"duration":166.66649999999208,"noteNumber":67,"velocity":55,"programNumber":44},{"time":210888.67799999818,"duration":166.66649999999208,"noteNumber":67,"velocity":55,"programNumber":44},{"time":211110.89999999816,"duration":166.66649999999208,"noteNumber":64,"velocity":55,"programNumber":44},{"time":211333.12199999814,"duration":166.66649999999208,"noteNumber":64,"velocity":55,"programNumber":44},{"time":211555.34399999812,"duration":166.66649999999208,"noteNumber":62,"velocity":55,"programNumber":44},{"time":211777.5659999981,"duration":166.66649999999208,"noteNumber":62,"velocity":55,"programNumber":44},{"time":211999.78799999808,"duration":166.66649999999208,"noteNumber":64,"velocity":55,"programNumber":44},{"time":212222.00999999806,"duration":166.66649999999208,"noteNumber":64,"velocity":55,"programNumber":44},{"time":212444.23199999804,"duration":166.66649999999208,"noteNumber":65,"velocity":55,"programNumber":44},{"time":212666.45399999802,"duration":166.66649999999208,"noteNumber":65,"velocity":55,"programNumber":44},{"time":212888.675999998,"duration":166.66649999999208,"noteNumber":62,"velocity":55,"programNumber":44},{"time":213110.89799999798,"duration":166.66649999999208,"noteNumber":62,"velocity":55,"programNumber":44},{"time":213333.11999999796,"duration":166.66649999999208,"noteNumber":60,"velocity":55,"programNumber":44},{"time":213555.34199999794,"duration":166.66649999999208,"noteNumber":60,"velocity":55,"programNumber":44},{"time":213777.56399999792,"duration":166.66649999999208,"noteNumber":62,"velocity":55,"programNumber":44},{"time":213999.7859999979,"duration":166.66649999999208,"noteNumber":62,"velocity":55,"programNumber":44},{"time":214222.00799999788,"duration":166.66649999999208,"noteNumber":64,"velocity":55,"programNumber":44},{"time":214444.22999999786,"duration":166.66649999999208,"noteNumber":64,"velocity":55,"programNumber":44},{"time":214666.45199999784,"duration":166.66649999999208,"noteNumber":60,"velocity":55,"programNumber":44},{"time":214888.67399999782,"duration":166.66649999999208,"noteNumber":60,"velocity":55,"programNumber":44},{"time":215110.8959999978,"duration":166.66649999999208,"noteNumber":60,"velocity":55,"programNumber":44},{"time":215333.11799999778,"duration":166.66649999999208,"noteNumber":60,"velocity":55,"programNumber":44},{"time":215555.33999999776,"duration":166.66649999999208,"noteNumber":62,"velocity":55,"programNumber":44},{"time":215777.56199999774,"duration":166.66649999999208,"noteNumber":62,"velocity":55,"programNumber":44},{"time":215999.78399999772,"duration":166.66649999999208,"noteNumber":63,"velocity":55,"programNumber":44},{"time":216222.0059999977,"duration":166.66649999999208,"noteNumber":63,"velocity":55,"programNumber":44},{"time":216444.22799999767,"duration":166.66649999999208,"noteNumber":60,"velocity":55,"programNumber":44},{"time":216666.44999999765,"duration":166.66649999999208,"noteNumber":60,"velocity":55,"programNumber":44},{"time":216888.67199999763,"duration":166.66649999999208,"noteNumber":58,"velocity":55,"programNumber":44},{"time":217110.8939999976,"duration":166.66649999999208,"noteNumber":58,"velocity":55,"programNumber":44},{"time":217333.1159999976,"duration":166.66649999999208,"noteNumber":57,"velocity":55,"programNumber":44},{"time":217555.33799999757,"duration":166.66649999999208,"noteNumber":57,"velocity":55,"programNumber":44},{"time":217777.55999999755,"duration":166.66649999999208,"noteNumber":58,"velocity":55,"programNumber":44},{"time":217999.78199999753,"duration":166.66649999999208,"noteNumber":58,"velocity":55,"programNumber":44},{"time":218222.0039999975,"duration":166.66649999999208,"noteNumber":69,"velocity":55,"programNumber":44},{"time":218444.2259999975,"duration":166.66649999999208,"noteNumber":69,"velocity":55,"programNumber":44},{"time":218666.44799999747,"duration":166.66649999999208,"noteNumber":70,"velocity":55,"programNumber":44},{"time":218888.66999999745,"duration":166.66649999999208,"noteNumber":70,"velocity":55,"programNumber":44},{"time":219110.89199999743,"duration":166.66649999999208,"noteNumber":69,"velocity":55,"programNumber":44},{"time":219333.1139999974,"duration":166.66649999999208,"noteNumber":69,"velocity":55,"programNumber":44},{"time":219555.3359999974,"duration":166.66649999999208,"noteNumber":70,"velocity":55,"programNumber":44},{"time":219777.55799999737,"duration":166.66649999999208,"noteNumber":70,"velocity":55,"programNumber":44},{"time":219999.77999999735,"duration":166.66649999999208,"noteNumber":69,"velocity":55,"programNumber":44},{"time":220222.00199999733,"duration":166.66649999999208,"noteNumber":67,"velocity":55,"programNumber":44},{"time":220481.26099999732,"duration":444.4439999999886,"noteNumber":66,"velocity":53,"programNumber":44},{"time":221147.92699999732,"duration":222.22200000000885,"noteNumber":62,"velocity":91,"programNumber":44},{"time":221370.14899999733,"duration":222.22200000000885,"noteNumber":64,"velocity":91,"programNumber":44},{"time":221592.37099999734,"duration":222.22200000000885,"noteNumber":66,"velocity":91,"programNumber":44},{"time":221814.59299999735,"duration":222.22200000000885,"noteNumber":67,"velocity":91,"programNumber":44},{"time":222036.81499999735,"duration":222.22200000000885,"noteNumber":69,"velocity":91,"programNumber":44},{"time":222259.03699999736,"duration":222.22200000000885,"noteNumber":72,"velocity":91,"programNumber":44},{"time":222481.25899999737,"duration":222.22200000000885,"noteNumber":70,"velocity":91,"programNumber":44},{"time":222925.7029999974,"duration":222.22200000000885,"noteNumber":66,"velocity":91,"programNumber":44},{"time":223147.9249999974,"duration":222.22200000000885,"noteNumber":67,"velocity":91,"programNumber":44},{"time":223370.1469999974,"duration":222.22200000000885,"noteNumber":69,"velocity":91,"programNumber":44},{"time":223592.36899999742,"duration":222.22200000000885,"noteNumber":70,"velocity":91,"programNumber":44},{"time":223814.59099999742,"duration":222.22200000000885,"noteNumber":73,"velocity":91,"programNumber":44},{"time":224036.81299999743,"duration":222.22200000000885,"noteNumber":76,"velocity":91,"programNumber":44},{"time":224259.03499999744,"duration":222.22200000000885,"noteNumber":74,"velocity":91,"programNumber":44},{"time":224703.47899999746,"duration":222.22200000000885,"noteNumber":62,"velocity":53,"programNumber":44},{"time":224925.70099999747,"duration":222.22200000000885,"noteNumber":64,"velocity":53,"programNumber":44},{"time":225147.92299999748,"duration":222.22200000000885,"noteNumber":66,"velocity":53,"programNumber":44},{"time":225370.1449999975,"duration":222.22200000000885,"noteNumber":67,"velocity":53,"programNumber":44},{"time":225592.3669999975,"duration":222.22200000000885,"noteNumber":69,"velocity":53,"programNumber":44},{"time":225777.5519999975,"duration":444.4440000000177,"noteNumber":70,"velocity":53,"programNumber":44},{"time":226221.9959999975,"duration":444.4439999999886,"noteNumber":71,"velocity":53,"programNumber":44},{"time":226666.4399999975,"duration":444.4439999999886,"noteNumber":72,"velocity":53,"programNumber":44},{"time":227110.8839999975,"duration":444.4439999999886,"noteNumber":73,"velocity":53,"programNumber":44},{"time":227555.32799999748,"duration":111.11100000000442,"noteNumber":74,"velocity":68,"programNumber":44},{"time":227777.54999999749,"duration":111.11100000000442,"noteNumber":74,"velocity":68,"programNumber":44},{"time":227999.7719999975,"duration":222.22200000000885,"noteNumber":74,"velocity":68,"programNumber":44},{"time":228221.9939999975,"duration":166.66649999999208,"noteNumber":76,"velocity":68,"programNumber":44},{"time":228444.21599999748,"duration":111.11100000000442,"noteNumber":72,"velocity":68,"programNumber":44},{"time":228666.4379999975,"duration":111.11100000000442,"noteNumber":72,"velocity":68,"programNumber":44},{"time":228888.6599999975,"duration":222.22200000000885,"noteNumber":72,"velocity":68,"programNumber":44},{"time":229110.8819999975,"duration":166.66649999999208,"noteNumber":74,"velocity":68,"programNumber":44},{"time":229333.1039999975,"duration":111.11100000000442,"noteNumber":71,"velocity":68,"programNumber":44},{"time":229555.3259999975,"duration":111.11100000000442,"noteNumber":71,"velocity":68,"programNumber":44},{"time":229777.5479999975,"duration":222.22200000000885,"noteNumber":71,"velocity":68,"programNumber":44},{"time":229999.76999999752,"duration":166.66649999999208,"noteNumber":74,"velocity":68,"programNumber":44},{"time":230221.9919999975,"duration":222.22200000000885,"noteNumber":74,"velocity":68,"programNumber":44},{"time":230444.2139999975,"duration":166.66649999999208,"noteNumber":72,"velocity":68,"programNumber":44},{"time":230666.43599999748,"duration":111.11100000000442,"noteNumber":71,"velocity":68,"programNumber":44},{"time":230888.6579999975,"duration":111.11100000000442,"noteNumber":69,"velocity":68,"programNumber":44},{"time":231147.91699999748,"duration":444.4439999999886,"noteNumber":62,"velocity":93,"programNumber":44},{"time":231147.91699999748,"duration":444.4439999999886,"noteNumber":71,"velocity":93,"programNumber":44},{"time":231147.91699999748,"duration":444.4439999999886,"noteNumber":79,"velocity":93,"programNumber":44},{"time":231814.58299999748,"duration":111.11100000000442,"noteNumber":74,"velocity":92,"programNumber":44},{"time":232036.8049999975,"duration":444.4439999999886,"noteNumber":79,"velocity":92,"programNumber":44},{"time":232703.4709999975,"duration":111.11100000000442,"noteNumber":74,"velocity":91,"programNumber":44},{"time":232925.6929999975,"duration":111.11100000000442,"noteNumber":79,"velocity":90,"programNumber":44},{"time":233147.9149999975,"duration":111.11100000000442,"noteNumber":74,"velocity":90,"programNumber":44},{"time":233370.1369999975,"duration":111.11100000000442,"noteNumber":79,"velocity":90,"programNumber":44},{"time":233592.35899999752,"duration":111.11100000000442,"noteNumber":83,"velocity":90,"programNumber":44},{"time":233814.58099999753,"duration":444.4439999999886,"noteNumber":86,"velocity":89,"programNumber":44},{"time":234703.4689999975,"duration":444.4439999999886,"noteNumber":84,"velocity":88,"programNumber":44},{"time":235370.1349999975,"duration":111.11100000000442,"noteNumber":81,"velocity":87,"programNumber":44},{"time":235592.35699999752,"duration":444.4439999999886,"noteNumber":84,"velocity":86,"programNumber":44},{"time":236259.0229999975,"duration":111.11100000000442,"noteNumber":81,"velocity":85,"programNumber":44},{"time":236481.24499999752,"duration":111.11100000000442,"noteNumber":84,"velocity":85,"programNumber":44},{"time":236703.46699999753,"duration":111.11100000000442,"noteNumber":81,"velocity":85,"programNumber":44},{"time":236925.68899999754,"duration":111.11100000000442,"noteNumber":78,"velocity":85,"programNumber":44},{"time":237147.91099999755,"duration":111.11100000000442,"noteNumber":81,"velocity":85,"programNumber":44},{"time":237370.13299999756,"duration":444.4439999999886,"noteNumber":74,"velocity":85,"programNumber":44},{"time":238221.98399999755,"duration":74.07399999999325,"noteNumber":62,"velocity":85,"programNumber":44},{"time":238221.98399999755,"duration":74.07399999999325,"noteNumber":59,"velocity":85,"programNumber":44},{"time":238333.09499999756,"duration":74.07399999999325,"noteNumber":62,"velocity":85,"programNumber":44},{"time":238333.09499999756,"duration":74.07399999999325,"noteNumber":59,"velocity":85,"programNumber":44},{"time":238444.20599999756,"duration":74.07399999999325,"noteNumber":62,"velocity":85,"programNumber":44},{"time":238444.20599999756,"duration":74.07399999999325,"noteNumber":59,"velocity":85,"programNumber":44},{"time":238555.31699999757,"duration":74.07399999999325,"noteNumber":62,"velocity":85,"programNumber":44},{"time":238555.31699999757,"duration":74.07399999999325,"noteNumber":59,"velocity":85,"programNumber":44},{"time":238666.42799999757,"duration":74.07399999999325,"noteNumber":62,"velocity":85,"programNumber":44},{"time":238666.42799999757,"duration":74.07399999999325,"noteNumber":59,"velocity":85,"programNumber":44},{"time":238777.53899999757,"duration":74.07399999999325,"noteNumber":62,"velocity":85,"programNumber":44},{"time":238777.53899999757,"duration":74.07399999999325,"noteNumber":59,"velocity":85,"programNumber":44},{"time":238888.64999999758,"duration":74.07399999999325,"noteNumber":62,"velocity":85,"programNumber":44},{"time":238888.64999999758,"duration":74.07399999999325,"noteNumber":59,"velocity":85,"programNumber":44},{"time":238999.76099999758,"duration":74.07399999999325,"noteNumber":62,"velocity":85,"programNumber":44},{"time":238999.76099999758,"duration":74.07399999999325,"noteNumber":59,"velocity":85,"programNumber":44},{"time":239110.8719999976,"duration":74.07399999999325,"noteNumber":62,"velocity":85,"programNumber":44},{"time":239110.8719999976,"duration":74.07399999999325,"noteNumber":59,"velocity":85,"programNumber":44},{"time":239221.9829999976,"duration":74.07399999999325,"noteNumber":62,"velocity":85,"programNumber":44},{"time":239221.9829999976,"duration":74.07399999999325,"noteNumber":59,"velocity":85,"programNumber":44},{"time":239333.0939999976,"duration":74.07399999999325,"noteNumber":62,"velocity":85,"programNumber":44},{"time":239333.0939999976,"duration":74.07399999999325,"noteNumber":59,"velocity":85,"programNumber":44},{"time":239444.2049999976,"duration":74.07399999999325,"noteNumber":62,"velocity":85,"programNumber":44},{"time":239444.2049999976,"duration":74.07399999999325,"noteNumber":59,"velocity":85,"programNumber":44},{"time":239555.3159999976,"duration":74.07399999999325,"noteNumber":62,"velocity":85,"programNumber":44},{"time":239555.3159999976,"duration":74.07399999999325,"noteNumber":59,"velocity":85,"programNumber":44},{"time":239666.4269999976,"duration":74.07399999999325,"noteNumber":62,"velocity":85,"programNumber":44},{"time":239666.4269999976,"duration":74.07399999999325,"noteNumber":59,"velocity":85,"programNumber":44},{"time":239777.5379999976,"duration":74.07399999999325,"noteNumber":62,"velocity":85,"programNumber":44},{"time":239777.5379999976,"duration":74.07399999999325,"noteNumber":59,"velocity":85,"programNumber":44},{"time":239888.64899999762,"duration":74.07399999999325,"noteNumber":62,"velocity":85,"programNumber":44},{"time":239888.64899999762,"duration":74.07399999999325,"noteNumber":59,"velocity":85,"programNumber":44},{"time":239999.75999999762,"duration":74.07399999999325,"noteNumber":62,"velocity":85,"programNumber":44},{"time":239999.75999999762,"duration":74.07399999999325,"noteNumber":60,"velocity":85,"programNumber":44},{"time":240110.87099999763,"duration":74.07399999999325,"noteNumber":62,"velocity":85,"programNumber":44},{"time":240110.87099999763,"duration":74.07399999999325,"noteNumber":60,"velocity":85,"programNumber":44},{"time":240221.98199999763,"duration":74.07399999999325,"noteNumber":62,"velocity":85,"programNumber":44},{"time":240221.98199999763,"duration":74.07399999999325,"noteNumber":60,"velocity":85,"programNumber":44},{"time":240333.09299999764,"duration":74.07399999999325,"noteNumber":62,"velocity":85,"programNumber":44},{"time":240333.09299999764,"duration":74.07399999999325,"noteNumber":60,"velocity":85,"programNumber":44},{"time":240444.20399999764,"duration":74.07399999999325,"noteNumber":62,"velocity":85,"programNumber":44},{"time":240444.20399999764,"duration":74.07399999999325,"noteNumber":60,"velocity":85,"programNumber":44},{"time":240555.31499999764,"duration":74.07399999999325,"noteNumber":62,"velocity":85,"programNumber":44},{"time":240555.31499999764,"duration":74.07399999999325,"noteNumber":60,"velocity":85,"programNumber":44},{"time":240666.42599999765,"duration":74.07399999999325,"noteNumber":62,"velocity":85,"programNumber":44},{"time":240666.42599999765,"duration":74.07399999999325,"noteNumber":60,"velocity":85,"programNumber":44},{"time":240777.53699999765,"duration":74.07399999999325,"noteNumber":62,"velocity":85,"programNumber":44},{"time":240777.53699999765,"duration":74.07399999999325,"noteNumber":60,"velocity":85,"programNumber":44},{"time":240888.64799999766,"duration":74.07399999999325,"noteNumber":62,"velocity":85,"programNumber":44},{"time":240888.64799999766,"duration":74.07399999999325,"noteNumber":60,"velocity":85,"programNumber":44},{"time":240999.75899999766,"duration":74.07399999999325,"noteNumber":62,"velocity":85,"programNumber":44},{"time":240999.75899999766,"duration":74.07399999999325,"noteNumber":60,"velocity":85,"programNumber":44},{"time":241110.86999999767,"duration":74.07399999999325,"noteNumber":62,"velocity":85,"programNumber":44},{"time":241110.86999999767,"duration":74.07399999999325,"noteNumber":60,"velocity":85,"programNumber":44},{"time":241221.98099999767,"duration":74.07399999999325,"noteNumber":62,"velocity":85,"programNumber":44},{"time":241221.98099999767,"duration":74.07399999999325,"noteNumber":60,"velocity":85,"programNumber":44},{"time":241333.09199999768,"duration":74.07399999999325,"noteNumber":62,"velocity":85,"programNumber":44},{"time":241333.09199999768,"duration":74.07399999999325,"noteNumber":60,"velocity":85,"programNumber":44},{"time":241444.20299999768,"duration":74.07399999999325,"noteNumber":62,"velocity":85,"programNumber":44},{"time":241444.20299999768,"duration":74.07399999999325,"noteNumber":60,"velocity":85,"programNumber":44},{"time":241555.31399999768,"duration":74.07399999999325,"noteNumber":62,"velocity":85,"programNumber":44},{"time":241555.31399999768,"duration":74.07399999999325,"noteNumber":60,"velocity":85,"programNumber":44},{"time":241666.4249999977,"duration":74.07399999999325,"noteNumber":62,"velocity":85,"programNumber":44},{"time":241666.4249999977,"duration":74.07399999999325,"noteNumber":60,"velocity":85,"programNumber":44},{"time":241777.5359999977,"duration":74.07399999999325,"noteNumber":62,"velocity":85,"programNumber":44},{"time":241777.5359999977,"duration":74.07399999999325,"noteNumber":59,"velocity":85,"programNumber":44},{"time":241888.6469999977,"duration":74.07399999999325,"noteNumber":62,"velocity":85,"programNumber":44},{"time":241888.6469999977,"duration":74.07399999999325,"noteNumber":59,"velocity":85,"programNumber":44},{"time":241999.7579999977,"duration":74.07399999999325,"noteNumber":62,"velocity":85,"programNumber":44},{"time":241999.7579999977,"duration":74.07399999999325,"noteNumber":59,"velocity":85,"programNumber":44},{"time":242110.8689999977,"duration":74.07399999999325,"noteNumber":62,"velocity":85,"programNumber":44},{"time":242110.8689999977,"duration":74.07399999999325,"noteNumber":59,"velocity":85,"programNumber":44},{"time":242221.9799999977,"duration":74.07399999999325,"noteNumber":62,"velocity":85,"programNumber":44},{"time":242221.9799999977,"duration":74.07399999999325,"noteNumber":59,"velocity":85,"programNumber":44},{"time":242333.09099999772,"duration":74.07399999999325,"noteNumber":62,"velocity":85,"programNumber":44},{"time":242333.09099999772,"duration":74.07399999999325,"noteNumber":59,"velocity":85,"programNumber":44},{"time":242444.20199999772,"duration":74.07399999999325,"noteNumber":62,"velocity":85,"programNumber":44},{"time":242444.20199999772,"duration":74.07399999999325,"noteNumber":59,"velocity":85,"programNumber":44},{"time":242555.31299999772,"duration":74.07399999999325,"noteNumber":62,"velocity":85,"programNumber":44},{"time":242555.31299999772,"duration":74.07399999999325,"noteNumber":59,"velocity":85,"programNumber":44},{"time":242666.42399999773,"duration":74.07399999999325,"noteNumber":62,"velocity":85,"programNumber":44},{"time":242666.42399999773,"duration":74.07399999999325,"noteNumber":59,"velocity":85,"programNumber":44},{"time":242777.53499999773,"duration":74.07399999999325,"noteNumber":62,"velocity":85,"programNumber":44},{"time":242777.53499999773,"duration":74.07399999999325,"noteNumber":59,"velocity":85,"programNumber":44},{"time":242888.64599999774,"duration":74.07399999999325,"noteNumber":62,"velocity":85,"programNumber":44},{"time":242888.64599999774,"duration":74.07399999999325,"noteNumber":59,"velocity":85,"programNumber":44},{"time":242999.75699999774,"duration":74.07399999999325,"noteNumber":62,"velocity":85,"programNumber":44},{"time":242999.75699999774,"duration":74.07399999999325,"noteNumber":59,"velocity":85,"programNumber":44},{"time":243110.86799999775,"duration":74.07399999999325,"noteNumber":62,"velocity":85,"programNumber":44},{"time":243110.86799999775,"duration":74.07399999999325,"noteNumber":59,"velocity":85,"programNumber":44},{"time":243221.97899999775,"duration":74.07399999999325,"noteNumber":62,"velocity":85,"programNumber":44},{"time":243221.97899999775,"duration":74.07399999999325,"noteNumber":59,"velocity":85,"programNumber":44},{"time":243333.08999999776,"duration":74.07399999999325,"noteNumber":62,"velocity":85,"programNumber":44},{"time":243333.08999999776,"duration":74.07399999999325,"noteNumber":59,"velocity":85,"programNumber":44},{"time":243444.20099999776,"duration":74.07399999999325,"noteNumber":62,"velocity":85,"programNumber":44},{"time":243444.20099999776,"duration":74.07399999999325,"noteNumber":59,"velocity":85,"programNumber":44},{"time":243555.31199999776,"duration":74.07399999999325,"noteNumber":62,"velocity":85,"programNumber":44},{"time":243555.31199999776,"duration":74.07399999999325,"noteNumber":60,"velocity":85,"programNumber":44},{"time":243666.42299999777,"duration":74.07399999999325,"noteNumber":62,"velocity":85,"programNumber":44},{"time":243666.42299999777,"duration":74.07399999999325,"noteNumber":60,"velocity":85,"programNumber":44},{"time":243777.53399999777,"duration":74.07399999999325,"noteNumber":62,"velocity":85,"programNumber":44},{"time":243777.53399999777,"duration":74.07399999999325,"noteNumber":60,"velocity":85,"programNumber":44},{"time":243888.64499999778,"duration":74.07399999999325,"noteNumber":62,"velocity":85,"programNumber":44},{"time":243888.64499999778,"duration":74.07399999999325,"noteNumber":60,"velocity":85,"programNumber":44},{"time":243999.75599999778,"duration":74.07399999999325,"noteNumber":62,"velocity":85,"programNumber":44},{"time":243999.75599999778,"duration":74.07399999999325,"noteNumber":60,"velocity":85,"programNumber":44},{"time":244110.8669999978,"duration":74.07399999999325,"noteNumber":62,"velocity":85,"programNumber":44},{"time":244110.8669999978,"duration":74.07399999999325,"noteNumber":60,"velocity":85,"programNumber":44},{"time":244221.9779999978,"duration":74.07399999999325,"noteNumber":62,"velocity":85,"programNumber":44},{"time":244221.9779999978,"duration":74.07399999999325,"noteNumber":60,"velocity":85,"programNumber":44},{"time":244333.0889999978,"duration":74.07399999999325,"noteNumber":62,"velocity":85,"programNumber":44},{"time":244333.0889999978,"duration":74.07399999999325,"noteNumber":60,"velocity":85,"programNumber":44},{"time":244444.1999999978,"duration":74.07399999999325,"noteNumber":62,"velocity":85,"programNumber":44},{"time":244444.1999999978,"duration":74.07399999999325,"noteNumber":60,"velocity":85,"programNumber":44},{"time":244555.3109999978,"duration":74.07399999999325,"noteNumber":62,"velocity":85,"programNumber":44},{"time":244555.3109999978,"duration":74.07399999999325,"noteNumber":60,"velocity":85,"programNumber":44},{"time":244666.4219999978,"duration":74.07399999999325,"noteNumber":62,"velocity":85,"programNumber":44},{"time":244666.4219999978,"duration":74.07399999999325,"noteNumber":60,"velocity":85,"programNumber":44},{"time":244777.5329999978,"duration":74.07399999999325,"noteNumber":62,"velocity":85,"programNumber":44},{"time":244777.5329999978,"duration":74.07399999999325,"noteNumber":60,"velocity":85,"programNumber":44},{"time":244888.64399999782,"duration":74.07399999999325,"noteNumber":62,"velocity":85,"programNumber":44},{"time":244888.64399999782,"duration":74.07399999999325,"noteNumber":60,"velocity":85,"programNumber":44},{"time":244999.75499999782,"duration":74.07399999999325,"noteNumber":62,"velocity":85,"programNumber":44},{"time":244999.75499999782,"duration":74.07399999999325,"noteNumber":60,"velocity":85,"programNumber":44},{"time":245110.86599999783,"duration":74.07399999999325,"noteNumber":62,"velocity":85,"programNumber":44},{"time":245110.86599999783,"duration":74.07399999999325,"noteNumber":60,"velocity":85,"programNumber":44},{"time":245221.97699999783,"duration":74.07399999999325,"noteNumber":62,"velocity":85,"programNumber":44},{"time":245221.97699999783,"duration":74.07399999999325,"noteNumber":60,"velocity":85,"programNumber":44},{"time":245333.08799999784,"duration":444.4439999999886,"noteNumber":62,"velocity":85,"programNumber":44},{"time":245333.08799999784,"duration":444.4439999999886,"noteNumber":59,"velocity":85,"programNumber":44},{"time":245777.53199999782,"duration":166.66649999999208,"noteNumber":72,"velocity":85,"programNumber":44},{"time":245999.7539999978,"duration":166.66649999999208,"noteNumber":72,"velocity":85,"programNumber":44},{"time":246221.97599999778,"duration":166.66649999999208,"noteNumber":74,"velocity":85,"programNumber":44},{"time":246444.19799999776,"duration":166.66649999999208,"noteNumber":74,"velocity":85,"programNumber":44},{"time":246666.41999999774,"duration":222.22200000000885,"noteNumber":72,"velocity":85,"programNumber":44},{"time":246888.64199999775,"duration":111.11100000000442,"noteNumber":71,"velocity":85,"programNumber":44},{"time":246999.75299999776,"duration":111.11100000000442,"noteNumber":69,"velocity":85,"programNumber":44},{"time":247110.86399999776,"duration":166.66649999999208,"noteNumber":67,"velocity":85,"programNumber":44},{"time":247333.08599999774,"duration":166.66649999999208,"noteNumber":67,"velocity":85,"programNumber":44},{"time":247555.30799999772,"duration":166.66649999999208,"noteNumber":66,"velocity":85,"programNumber":44},{"time":247777.5299999977,"duration":166.66649999999208,"noteNumber":66,"velocity":85,"programNumber":44},{"time":247999.75199999768,"duration":444.4439999999886,"noteNumber":67,"velocity":85,"programNumber":44},{"time":248888.63999999766,"duration":888.8880000000063,"noteNumber":71,"velocity":47,"programNumber":44},{"time":249777.52799999766,"duration":888.8880000000063,"noteNumber":72,"velocity":47,"programNumber":44},{"time":250666.41599999767,"duration":111.11100000000442,"noteNumber":71,"velocity":47,"programNumber":44},{"time":250777.52699999767,"duration":296.2960000000021,"noteNumber":69,"velocity":47,"programNumber":44},{"time":251110.8599999977,"duration":444.4439999999886,"noteNumber":69,"velocity":47,"programNumber":44},{"time":251555.30399999768,"duration":111.11100000000442,"noteNumber":69,"velocity":47,"programNumber":44},{"time":251666.41499999768,"duration":296.2960000000021,"noteNumber":67,"velocity":47,"programNumber":44},{"time":251999.7479999977,"duration":444.4439999999886,"noteNumber":67,"velocity":47,"programNumber":44},{"time":252444.19199999768,"duration":333.33300000001327,"noteNumber":64,"velocity":47,"programNumber":44},{"time":252888.6359999977,"duration":333.33300000001327,"noteNumber":64,"velocity":47,"programNumber":44},{"time":253333.07999999772,"duration":333.33300000001327,"noteNumber":60,"velocity":47,"programNumber":44},{"time":253777.52399999773,"duration":333.33300000001327,"noteNumber":57,"velocity":47,"programNumber":44},{"time":254221.96799999775,"duration":222.22200000000885,"noteNumber":62,"velocity":47,"programNumber":44},{"time":254666.41199999777,"duration":222.22200000000885,"noteNumber":66,"velocity":47,"programNumber":44},{"time":255110.8559999978,"duration":222.22200000000885,"noteNumber":67,"velocity":47,"programNumber":44},{"time":255999.7439999978,"duration":888.8880000000063,"noteNumber":71,"velocity":47,"programNumber":44},{"time":256888.6319999978,"duration":888.8880000000063,"noteNumber":72,"velocity":47,"programNumber":44},{"time":257777.5199999978,"duration":222.22200000000885,"noteNumber":71,"velocity":47,"programNumber":44},{"time":257999.74199999782,"duration":111.11100000000442,"noteNumber":69,"velocity":47,"programNumber":44},{"time":258221.96399999782,"duration":111.11100000000442,"noteNumber":69,"velocity":47,"programNumber":44},{"time":258444.18599999783,"duration":111.11100000000442,"noteNumber":69,"velocity":47,"programNumber":44},{"time":258666.40799999784,"duration":222.22200000000885,"noteNumber":69,"velocity":47,"programNumber":44},{"time":258888.62999999785,"duration":111.11100000000442,"noteNumber":67,"velocity":47,"programNumber":44},{"time":259110.85199999786,"duration":111.11100000000442,"noteNumber":67,"velocity":47,"programNumber":44},{"time":259333.07399999787,"duration":111.11100000000442,"noteNumber":67,"velocity":47,"programNumber":44},{"time":259555.29599999788,"duration":333.33300000001327,"noteNumber":64,"velocity":47,"programNumber":44},{"time":259999.7399999979,"duration":166.66649999999208,"noteNumber":64,"velocity":47,"programNumber":44},{"time":260221.96199999787,"duration":166.66649999999208,"noteNumber":64,"velocity":47,"programNumber":44},{"time":260444.18399999785,"duration":333.33300000001327,"noteNumber":60,"velocity":47,"programNumber":44},{"time":260888.62799999787,"duration":166.66649999999208,"noteNumber":60,"velocity":47,"programNumber":44},{"time":261110.84999999785,"duration":166.66649999999208,"noteNumber":60,"velocity":47,"programNumber":44},{"time":261333.07199999783,"duration":1111.109999999986,"noteNumber":59,"velocity":85,"programNumber":44},{"time":262444.1819999978,"duration":55.555500000016764,"noteNumber":59,"velocity":61,"programNumber":44},{"time":262499.73749999783,"duration":55.555500000016764,"noteNumber":60,"velocity":61,"programNumber":44},{"time":262555.29299999785,"duration":55.555500000016764,"noteNumber":57,"velocity":61,"programNumber":44},{"time":262610.84849999787,"duration":55.555500000016764,"noteNumber":59,"velocity":61,"programNumber":44},{"time":262666.4039999979,"duration":222.22200000000885,"noteNumber":60,"velocity":61,"programNumber":44},{"time":262888.6259999979,"duration":222.22200000000885,"noteNumber":57,"velocity":61,"programNumber":44},{"time":263110.8479999979,"duration":1111.109999999986,"noteNumber":67,"velocity":85,"programNumber":44},{"time":264221.9579999979,"duration":55.555500000016764,"noteNumber":67,"velocity":61,"programNumber":44},{"time":264277.5134999979,"duration":55.555500000016764,"noteNumber":69,"velocity":61,"programNumber":44},{"time":264333.0689999979,"duration":55.555500000016764,"noteNumber":66,"velocity":61,"programNumber":44},{"time":264388.62449999794,"duration":55.555500000016764,"noteNumber":67,"velocity":61,"programNumber":44},{"time":264444.17999999796,"duration":222.22200000000885,"noteNumber":69,"velocity":61,"programNumber":44},{"time":264666.40199999796,"duration":222.22200000000885,"noteNumber":66,"velocity":61,"programNumber":44},{"time":264888.623999998,"duration":74.07400000002235,"noteNumber":71,"velocity":53,"programNumber":44},{"time":264999.734999998,"duration":74.07400000002235,"noteNumber":71,"velocity":53,"programNumber":44},{"time":265110.84599999804,"duration":74.07400000002235,"noteNumber":71,"velocity":55,"programNumber":44},{"time":265221.9569999981,"duration":74.07400000002235,"noteNumber":71,"velocity":55,"programNumber":44},{"time":265333.0679999981,"duration":74.07400000002235,"noteNumber":71,"velocity":55,"programNumber":44},{"time":265444.17899999814,"duration":74.07400000002235,"noteNumber":71,"velocity":56,"programNumber":44},{"time":265555.2899999982,"duration":74.07400000002235,"noteNumber":71,"velocity":56,"programNumber":44},{"time":265666.4009999982,"duration":74.07400000002235,"noteNumber":71,"velocity":58,"programNumber":44},{"time":265777.51199999824,"duration":74.07400000002235,"noteNumber":72,"velocity":58,"programNumber":44},{"time":265888.6229999983,"duration":74.07400000002235,"noteNumber":72,"velocity":59,"programNumber":44},{"time":265999.7339999983,"duration":74.07400000002235,"noteNumber":72,"velocity":59,"programNumber":44},{"time":266110.84499999834,"duration":74.07400000002235,"noteNumber":72,"velocity":61,"programNumber":44},{"time":266221.9559999984,"duration":74.07400000002235,"noteNumber":74,"velocity":61,"programNumber":44},{"time":266333.0669999984,"duration":74.07400000002235,"noteNumber":74,"velocity":62,"programNumber":44},{"time":266444.17799999844,"duration":74.07400000002235,"noteNumber":74,"velocity":62,"programNumber":44},{"time":266555.2889999985,"duration":74.07400000002235,"noteNumber":74,"velocity":64,"programNumber":44},{"time":266666.3999999985,"duration":74.07400000002235,"noteNumber":71,"velocity":64,"programNumber":44},{"time":266777.51099999854,"duration":74.07400000002235,"noteNumber":71,"velocity":65,"programNumber":44},{"time":266888.6219999986,"duration":74.07400000002235,"noteNumber":71,"velocity":65,"programNumber":44},{"time":266999.7329999986,"duration":74.07400000002235,"noteNumber":71,"velocity":67,"programNumber":44},{"time":267110.84399999864,"duration":74.07400000002235,"noteNumber":74,"velocity":67,"programNumber":44},{"time":267221.9549999987,"duration":74.07400000002235,"noteNumber":74,"velocity":68,"programNumber":44},{"time":267333.0659999987,"duration":74.07400000002235,"noteNumber":74,"velocity":68,"programNumber":44},{"time":267444.17699999874,"duration":74.07400000002235,"noteNumber":74,"velocity":70,"programNumber":44},{"time":267555.2879999988,"duration":74.07400000002235,"noteNumber":74,"velocity":70,"programNumber":44},{"time":267666.3989999988,"duration":74.07400000002235,"noteNumber":74,"velocity":71,"programNumber":44},{"time":267777.50999999885,"duration":74.07400000002235,"noteNumber":74,"velocity":71,"programNumber":44},{"time":267888.6209999989,"duration":74.07400000002235,"noteNumber":74,"velocity":73,"programNumber":44},{"time":267999.7319999989,"duration":74.07400000002235,"noteNumber":79,"velocity":73,"programNumber":44},{"time":268110.84299999895,"duration":74.07400000002235,"noteNumber":79,"velocity":73,"programNumber":44},{"time":268221.953999999,"duration":74.07400000002235,"noteNumber":79,"velocity":74,"programNumber":44},{"time":268333.064999999,"duration":74.07400000002235,"noteNumber":79,"velocity":74,"programNumber":44},{"time":268444.17599999905,"duration":74.07400000002235,"noteNumber":78,"velocity":85,"programNumber":44},{"time":268555.2869999991,"duration":74.07400000002235,"noteNumber":78,"velocity":85,"programNumber":44},{"time":268666.3979999991,"duration":74.07400000002235,"noteNumber":78,"velocity":85,"programNumber":44},{"time":268777.50899999915,"duration":74.07400000002235,"noteNumber":78,"velocity":85,"programNumber":44},{"time":268888.6199999992,"duration":74.07400000002235,"noteNumber":78,"velocity":85,"programNumber":44},{"time":268999.7309999992,"duration":74.07400000002235,"noteNumber":78,"velocity":85,"programNumber":44},{"time":269110.84199999925,"duration":74.07400000002235,"noteNumber":78,"velocity":85,"programNumber":44},{"time":269221.9529999993,"duration":74.07400000002235,"noteNumber":78,"velocity":85,"programNumber":44},{"time":269333.0639999993,"duration":74.07400000002235,"noteNumber":79,"velocity":85,"programNumber":44},{"time":269444.17499999935,"duration":74.07400000002235,"noteNumber":79,"velocity":85,"programNumber":44},{"time":269555.2859999994,"duration":74.07400000002235,"noteNumber":79,"velocity":85,"programNumber":44},{"time":269666.3969999994,"duration":74.07400000002235,"noteNumber":79,"velocity":85,"programNumber":44},{"time":269777.50799999945,"duration":74.07400000002235,"noteNumber":79,"velocity":85,"programNumber":44},{"time":269888.6189999995,"duration":74.07400000002235,"noteNumber":79,"velocity":85,"programNumber":44},{"time":269999.7299999995,"duration":74.07400000002235,"noteNumber":79,"velocity":85,"programNumber":44},{"time":270110.84099999955,"duration":74.07400000002235,"noteNumber":79,"velocity":85,"programNumber":44},{"time":270221.9519999996,"duration":74.07400000002235,"noteNumber":78,"velocity":85,"programNumber":44},{"time":270333.0629999996,"duration":74.07400000002235,"noteNumber":78,"velocity":85,"programNumber":44},{"time":270444.17399999965,"duration":74.07400000002235,"noteNumber":78,"velocity":85,"programNumber":44},{"time":270555.2849999997,"duration":74.07400000002235,"noteNumber":78,"velocity":85,"programNumber":44},{"time":270666.3959999997,"duration":74.07400000002235,"noteNumber":78,"velocity":85,"programNumber":44},{"time":270777.50699999975,"duration":74.07400000002235,"noteNumber":78,"velocity":85,"programNumber":44},{"time":270888.6179999998,"duration":74.07400000002235,"noteNumber":78,"velocity":85,"programNumber":44},{"time":270999.7289999998,"duration":74.07400000002235,"noteNumber":78,"velocity":85,"programNumber":44},{"time":271110.83999999985,"duration":74.07400000002235,"noteNumber":79,"velocity":85,"programNumber":44},{"time":271221.9509999999,"duration":74.07400000002235,"noteNumber":79,"velocity":85,"programNumber":44},{"time":271333.0619999999,"duration":74.07400000002235,"noteNumber":79,"velocity":85,"programNumber":44},{"time":271444.17299999995,"duration":74.07400000002235,"noteNumber":79,"velocity":85,"programNumber":44},{"time":271555.284,"duration":74.07400000002235,"noteNumber":79,"velocity":85,"programNumber":44},{"time":271666.395,"duration":74.07400000002235,"noteNumber":79,"velocity":85,"programNumber":44},{"time":271777.50600000005,"duration":74.07400000002235,"noteNumber":79,"velocity":85,"programNumber":44},{"time":271888.6170000001,"duration":74.07400000002235,"noteNumber":79,"velocity":85,"programNumber":44},{"time":271999.7280000001,"duration":74.07400000002235,"noteNumber":78,"velocity":85,"programNumber":44},{"time":272110.83900000015,"duration":74.07400000002235,"noteNumber":78,"velocity":85,"programNumber":44},{"time":272221.9500000002,"duration":74.07400000002235,"noteNumber":78,"velocity":85,"programNumber":44},{"time":272333.0610000002,"duration":74.07400000002235,"noteNumber":78,"velocity":85,"programNumber":44},{"time":272444.17200000025,"duration":74.07400000002235,"noteNumber":79,"velocity":85,"programNumber":44},{"time":272555.2830000003,"duration":74.07400000002235,"noteNumber":79,"velocity":85,"programNumber":44},{"time":272666.3940000003,"duration":74.07400000002235,"noteNumber":79,"velocity":85,"programNumber":44},{"time":272777.50500000035,"duration":74.07400000002235,"noteNumber":79,"velocity":85,"programNumber":44},{"time":272888.6160000004,"duration":74.07400000002235,"noteNumber":78,"velocity":85,"programNumber":44},{"time":272999.7270000004,"duration":74.07400000002235,"noteNumber":78,"velocity":85,"programNumber":44},{"time":273110.83800000045,"duration":74.07400000002235,"noteNumber":78,"velocity":85,"programNumber":44},{"time":273221.9490000005,"duration":74.07400000002235,"noteNumber":78,"velocity":85,"programNumber":44},{"time":273333.0600000005,"duration":74.07400000002235,"noteNumber":79,"velocity":85,"programNumber":44},{"time":273444.17100000056,"duration":74.07400000002235,"noteNumber":79,"velocity":85,"programNumber":44},{"time":273555.2820000006,"duration":74.07400000002235,"noteNumber":79,"velocity":85,"programNumber":44},{"time":273666.3930000006,"duration":74.07400000002235,"noteNumber":79,"velocity":85,"programNumber":44},{"time":273788.61510000064,"duration":166.66649999999208,"noteNumber":78,"velocity":85,"programNumber":44},{"time":274010.83710000064,"duration":166.66649999999208,"noteNumber":62,"velocity":85,"programNumber":44},{"time":274233.05910000065,"duration":166.66649999999208,"noteNumber":62,"velocity":85,"programNumber":44},{"time":274455.28110000066,"duration":166.66649999999208,"noteNumber":62,"velocity":85,"programNumber":44},{"time":274677.5031000007,"duration":444.4440000000177,"noteNumber":62,"velocity":85,"programNumber":44},{"time":275555.28000000067,"duration":666.6660000000265,"noteNumber":62,"velocity":55,"programNumber":44},{"time":276221.9460000007,"duration":74.07400000002235,"noteNumber":60,"velocity":55,"programNumber":44},{"time":276296.0200000007,"duration":74.07400000002235,"noteNumber":59,"velocity":55,"programNumber":44},{"time":276370.09400000074,"duration":74.07400000002235,"noteNumber":57,"velocity":55,"programNumber":44},{"time":276444.16800000076,"duration":222.22200000000885,"noteNumber":55,"velocity":55,"programNumber":44},{"time":276888.6120000008,"duration":222.22200000000885,"noteNumber":64,"velocity":55,"programNumber":44},{"time":277333.0560000008,"duration":222.22200000000885,"noteNumber":60,"velocity":55,"programNumber":44},{"time":277777.5000000008,"duration":222.22200000000885,"noteNumber":57,"velocity":55,"programNumber":44},{"time":278221.94400000083,"duration":222.22200000000885,"noteNumber":62,"velocity":55,"programNumber":44},{"time":279110.83200000087,"duration":666.6660000000265,"noteNumber":71,"velocity":55,"programNumber":44},{"time":279777.4980000009,"duration":74.07400000002235,"noteNumber":69,"velocity":55,"programNumber":44},{"time":279851.5720000009,"duration":74.07400000002235,"noteNumber":67,"velocity":55,"programNumber":44},{"time":279925.64600000094,"duration":74.07400000002235,"noteNumber":66,"velocity":55,"programNumber":44},{"time":279999.72000000096,"duration":222.22200000000885,"noteNumber":64,"velocity":55,"programNumber":44},{"time":280444.164000001,"duration":222.22200000000885,"noteNumber":72,"velocity":55,"programNumber":44},{"time":280888.608000001,"duration":888.8879999999772,"noteNumber":71,"velocity":55,"programNumber":44},{"time":281777.496000001,"duration":444.4440000000177,"noteNumber":69,"velocity":55,"programNumber":44},{"time":282666.384000001,"duration":666.6660000000265,"noteNumber":74,"velocity":55,"programNumber":44},{"time":283333.05000000104,"duration":74.07400000002235,"noteNumber":72,"velocity":55,"programNumber":44},{"time":283407.12400000106,"duration":74.07400000002235,"noteNumber":71,"velocity":55,"programNumber":44},{"time":283481.1980000011,"duration":74.07400000002235,"noteNumber":69,"velocity":55,"programNumber":44},{"time":283555.2720000011,"duration":222.22200000000885,"noteNumber":67,"velocity":55,"programNumber":44},{"time":283999.7160000011,"duration":222.22200000000885,"noteNumber":76,"velocity":55,"programNumber":44},{"time":284444.16000000114,"duration":222.22200000000885,"noteNumber":72,"velocity":55,"programNumber":44},{"time":284888.60400000116,"duration":222.22200000000885,"noteNumber":69,"velocity":55,"programNumber":44},{"time":285333.0480000012,"duration":222.22200000000885,"noteNumber":74,"velocity":55,"programNumber":44},{"time":285944.1585000012,"duration":166.66649999999208,"noteNumber":72,"velocity":55,"programNumber":44},{"time":286221.93600000115,"duration":222.22200000000885,"noteNumber":72,"velocity":55,"programNumber":44},{"time":286444.15800000116,"duration":222.22200000000885,"noteNumber":71,"velocity":55,"programNumber":44},{"time":286888.6020000012,"duration":111.11099999997532,"noteNumber":72,"velocity":55,"programNumber":44},{"time":287110.8240000011,"duration":222.22200000000885,"noteNumber":72,"velocity":55,"programNumber":44},{"time":287333.04600000114,"duration":222.22200000000885,"noteNumber":71,"velocity":55,"programNumber":44},{"time":287777.49000000115,"duration":166.66649999999208,"noteNumber":60,"velocity":55,"programNumber":44},{"time":287999.71200000116,"duration":166.66649999999208,"noteNumber":59,"velocity":55,"programNumber":44},{"time":288221.9340000012,"duration":166.66649999999208,"noteNumber":59,"velocity":55,"programNumber":44},{"time":288444.1560000012,"duration":166.66649999999208,"noteNumber":60,"velocity":55,"programNumber":44},{"time":288666.3780000012,"duration":166.66649999999208,"noteNumber":60,"velocity":55,"programNumber":44},{"time":288888.6000000012,"duration":166.66649999999208,"noteNumber":62,"velocity":55,"programNumber":44},{"time":289110.8220000012,"duration":166.66649999999208,"noteNumber":62,"velocity":55,"programNumber":44},{"time":289333.0440000012,"duration":166.66649999999208,"noteNumber":59,"velocity":55,"programNumber":44},{"time":289555.2660000012,"duration":166.66649999999208,"noteNumber":59,"velocity":55,"programNumber":44},{"time":289777.48800000123,"duration":166.66649999999208,"noteNumber":57,"velocity":55,"programNumber":44},{"time":289999.71000000124,"duration":166.66649999999208,"noteNumber":57,"velocity":55,"programNumber":44},{"time":290221.93200000125,"duration":166.66649999999208,"noteNumber":59,"velocity":55,"programNumber":44},{"time":290444.15400000126,"duration":166.66649999999208,"noteNumber":59,"velocity":55,"programNumber":44},{"time":290666.37600000127,"duration":166.66649999999208,"noteNumber":60,"velocity":55,"programNumber":44},{"time":290888.5980000013,"duration":166.66649999999208,"noteNumber":60,"velocity":55,"programNumber":44},{"time":291110.8200000013,"duration":166.66649999999208,"noteNumber":57,"velocity":55,"programNumber":44},{"time":291333.0420000013,"duration":166.66649999999208,"noteNumber":57,"velocity":55,"programNumber":44},{"time":291555.2640000013,"duration":166.66649999999208,"noteNumber":59,"velocity":55,"programNumber":44},{"time":291777.4860000013,"duration":166.66649999999208,"noteNumber":59,"velocity":55,"programNumber":44},{"time":291999.7080000013,"duration":166.66649999999208,"noteNumber":60,"velocity":55,"programNumber":44},{"time":292221.93000000133,"duration":166.66649999999208,"noteNumber":60,"velocity":55,"programNumber":44},{"time":292444.15200000134,"duration":166.66649999999208,"noteNumber":62,"velocity":55,"programNumber":44},{"time":292666.37400000135,"duration":166.66649999999208,"noteNumber":62,"velocity":55,"programNumber":44},{"time":292888.59600000136,"duration":166.66649999999208,"noteNumber":59,"velocity":55,"programNumber":44},{"time":293110.81800000137,"duration":166.66649999999208,"noteNumber":59,"velocity":55,"programNumber":44},{"time":293333.0400000014,"duration":166.66649999999208,"noteNumber":57,"velocity":55,"programNumber":44},{"time":293555.2620000014,"duration":166.66649999999208,"noteNumber":57,"velocity":55,"programNumber":44},{"time":293777.4840000014,"duration":166.66649999999208,"noteNumber":59,"velocity":55,"programNumber":44},{"time":293999.7060000014,"duration":166.66649999999208,"noteNumber":59,"velocity":55,"programNumber":44},{"time":294221.9280000014,"duration":166.66649999999208,"noteNumber":60,"velocity":55,"programNumber":44},{"time":294444.1500000014,"duration":166.66649999999208,"noteNumber":60,"velocity":55,"programNumber":44},{"time":294666.37200000143,"duration":166.66649999999208,"noteNumber":57,"velocity":55,"programNumber":44},{"time":294888.59400000144,"duration":166.66649999999208,"noteNumber":57,"velocity":55,"programNumber":44},{"time":295110.81600000145,"duration":444.4440000000177,"noteNumber":59,"velocity":55,"programNumber":44},{"time":295999.7040000015,"duration":888.8879999999772,"noteNumber":64,"velocity":85,"programNumber":44},{"time":295999.7040000015,"duration":888.8879999999772,"noteNumber":71,"velocity":85,"programNumber":44},{"time":296888.59200000146,"duration":444.4440000000177,"noteNumber":69,"velocity":85,"programNumber":44},{"time":297777.4800000015,"duration":888.8879999999772,"noteNumber":69,"velocity":85,"programNumber":44},{"time":297777.4800000015,"duration":888.8879999999772,"noteNumber":62,"velocity":85,"programNumber":44},{"time":298666.3680000015,"duration":166.66649999999208,"noteNumber":67,"velocity":85,"programNumber":44},{"time":298888.5900000015,"duration":111.11099999997532,"noteNumber":71,"velocity":85,"programNumber":44},{"time":299110.81200000143,"duration":111.11099999997532,"noteNumber":72,"velocity":85,"programNumber":44},{"time":299333.0340000014,"duration":111.11099999997532,"noteNumber":74,"velocity":85,"programNumber":44},{"time":299555.25600000133,"duration":222.22200000000885,"noteNumber":72,"velocity":85,"programNumber":44},{"time":299777.47800000134,"duration":111.11099999997532,"noteNumber":74,"velocity":85,"programNumber":44},{"time":299888.5890000013,"duration":111.11099999997532,"noteNumber":76,"velocity":85,"programNumber":44},{"time":299999.7000000013,"duration":166.66649999999208,"noteNumber":74,"velocity":85,"programNumber":44},{"time":300221.9220000013,"duration":111.11099999997532,"noteNumber":72,"velocity":85,"programNumber":44},{"time":300444.14400000125,"duration":222.22200000000885,"noteNumber":72,"velocity":85,"programNumber":44},{"time":300666.36600000126,"duration":166.66649999999208,"noteNumber":71,"velocity":85,"programNumber":44},{"time":300888.58800000127,"duration":111.11099999997532,"noteNumber":67,"velocity":85,"programNumber":44},{"time":301110.8100000012,"duration":111.11099999997532,"noteNumber":71,"velocity":85,"programNumber":44},{"time":301333.03200000117,"duration":222.22200000000885,"noteNumber":71,"velocity":85,"programNumber":44},{"time":301555.2540000012,"duration":166.66649999999208,"noteNumber":69,"velocity":85,"programNumber":44},{"time":301777.4760000012,"duration":111.11099999997532,"noteNumber":67,"velocity":85,"programNumber":44},{"time":301999.69800000114,"duration":111.11099999997532,"noteNumber":66,"velocity":85,"programNumber":44},{"time":302221.9200000011,"duration":166.66649999999208,"noteNumber":67,"velocity":85,"programNumber":44},{"time":302444.1420000011,"duration":166.66649999999208,"noteNumber":59,"velocity":53,"programNumber":44},{"time":302666.3640000011,"duration":166.66649999999208,"noteNumber":60,"velocity":53,"programNumber":44},{"time":302888.5860000011,"duration":166.66649999999208,"noteNumber":60,"velocity":53,"programNumber":44},{"time":303110.8080000011,"duration":166.66649999999208,"noteNumber":62,"velocity":53,"programNumber":44},{"time":303333.03000000113,"duration":166.66649999999208,"noteNumber":62,"velocity":53,"programNumber":44},{"time":303555.25200000114,"duration":166.66649999999208,"noteNumber":59,"velocity":53,"programNumber":44},{"time":303777.47400000115,"duration":166.66649999999208,"noteNumber":59,"velocity":53,"programNumber":44},{"time":303999.69600000116,"duration":166.66649999999208,"noteNumber":57,"velocity":55,"programNumber":44},{"time":304221.91800000117,"duration":166.66649999999208,"noteNumber":57,"velocity":55,"programNumber":44},{"time":304444.1400000012,"duration":166.66649999999208,"noteNumber":59,"velocity":55,"programNumber":44},{"time":304666.3620000012,"duration":166.66649999999208,"noteNumber":59,"velocity":55,"programNumber":44},{"time":304888.5840000012,"duration":166.66649999999208,"noteNumber":60,"velocity":55,"programNumber":44},{"time":305110.8060000012,"duration":166.66649999999208,"noteNumber":60,"velocity":55,"programNumber":44},{"time":305333.0280000012,"duration":166.66649999999208,"noteNumber":57,"velocity":55,"programNumber":44},{"time":305555.2500000012,"duration":166.66649999999208,"noteNumber":57,"velocity":55,"programNumber":44},{"time":305777.47200000123,"duration":166.66649999999208,"noteNumber":59,"velocity":55,"programNumber":44},{"time":305999.69400000124,"duration":166.66649999999208,"noteNumber":71,"velocity":55,"programNumber":44},{"time":306221.91600000125,"duration":166.66649999999208,"noteNumber":72,"velocity":55,"programNumber":44},{"time":306444.13800000126,"duration":166.66649999999208,"noteNumber":72,"velocity":55,"programNumber":44},{"time":306666.36000000127,"duration":166.66649999999208,"noteNumber":74,"velocity":55,"programNumber":44},{"time":306888.5820000013,"duration":166.66649999999208,"noteNumber":74,"velocity":55,"programNumber":44},{"time":307110.8040000013,"duration":166.66649999999208,"noteNumber":71,"velocity":55,"programNumber":44},{"time":307333.0260000013,"duration":166.66649999999208,"noteNumber":71,"velocity":55,"programNumber":44},{"time":307555.2480000013,"duration":166.66649999999208,"noteNumber":69,"velocity":55,"programNumber":44},{"time":307777.4700000013,"duration":166.66649999999208,"noteNumber":69,"velocity":55,"programNumber":44},{"time":307999.6920000013,"duration":166.66649999999208,"noteNumber":71,"velocity":55,"programNumber":44},{"time":308221.9140000013,"duration":166.66649999999208,"noteNumber":71,"velocity":55,"programNumber":44},{"time":308444.13600000134,"duration":166.66649999999208,"noteNumber":72,"velocity":55,"programNumber":44},{"time":308666.35800000135,"duration":166.66649999999208,"noteNumber":72,"velocity":55,"programNumber":44},{"time":308888.58000000136,"duration":166.66649999999208,"noteNumber":69,"velocity":55,"programNumber":44},{"time":309110.80200000136,"duration":166.66649999999208,"noteNumber":69,"velocity":55,"programNumber":44},{"time":309333.0240000014,"duration":444.4440000000177,"noteNumber":71,"velocity":58,"programNumber":44},{"time":310221.9120000014,"duration":888.8879999999772,"noteNumber":83,"velocity":85,"programNumber":44},{"time":311110.8000000014,"duration":444.4440000000177,"noteNumber":81,"velocity":85,"programNumber":44},{"time":311999.6880000014,"duration":888.8879999999772,"noteNumber":81,"velocity":85,"programNumber":44},{"time":312888.5760000014,"duration":166.66649999999208,"noteNumber":79,"velocity":85,"programNumber":44},{"time":313110.7980000014,"duration":111.11099999997532,"noteNumber":71,"velocity":85,"programNumber":44},{"time":313333.02000000136,"duration":111.11099999997532,"noteNumber":72,"velocity":85,"programNumber":44},{"time":313555.2420000013,"duration":111.11099999997532,"noteNumber":74,"velocity":85,"programNumber":44},{"time":313777.46400000126,"duration":222.22200000000885,"noteNumber":72,"velocity":85,"programNumber":44},{"time":313999.68600000127,"duration":111.11099999997532,"noteNumber":74,"velocity":85,"programNumber":44},{"time":314110.79700000124,"duration":111.11099999997532,"noteNumber":76,"velocity":85,"programNumber":44},{"time":314221.9080000012,"duration":166.66649999999208,"noteNumber":74,"velocity":85,"programNumber":44},{"time":314444.1300000012,"duration":111.11099999997532,"noteNumber":72,"velocity":85,"programNumber":44},{"time":314666.3520000012,"duration":111.11099999997532,"noteNumber":71,"velocity":85,"programNumber":44},{"time":314888.5740000011,"duration":111.11099999997532,"noteNumber":74,"velocity":85,"programNumber":44},{"time":315110.7960000011,"duration":111.11099999997532,"noteNumber":79,"velocity":85,"programNumber":44},{"time":315333.01800000103,"duration":111.11099999997532,"noteNumber":83,"velocity":85,"programNumber":44},{"time":315555.240000001,"duration":222.22200000000885,"noteNumber":83,"velocity":85,"programNumber":44},{"time":315777.462000001,"duration":166.66649999999208,"noteNumber":81,"velocity":85,"programNumber":44},{"time":315999.684000001,"duration":111.11099999997532,"noteNumber":79,"velocity":85,"programNumber":44},{"time":316221.90600000095,"duration":111.11099999997532,"noteNumber":78,"velocity":85,"programNumber":44},{"time":316451.5354000009,"duration":166.66649999999208,"noteNumber":79,"velocity":85,"programNumber":44},{"time":316673.75740000093,"duration":166.66649999999208,"noteNumber":62,"velocity":85,"programNumber":44},{"time":316895.97940000094,"duration":166.66649999999208,"noteNumber":64,"velocity":85,"programNumber":44},{"time":317118.20140000095,"duration":166.66649999999208,"noteNumber":66,"velocity":85,"programNumber":44},{"time":317340.42340000096,"duration":166.66649999999208,"noteNumber":67,"velocity":85,"programNumber":44},{"time":317562.64540000097,"duration":166.66649999999208,"noteNumber":67,"velocity":85,"programNumber":44},{"time":317784.867400001,"duration":55.555500000016764,"noteNumber":69,"velocity":85,"programNumber":44},{"time":317840.422900001,"duration":55.555500000016764,"noteNumber":71,"velocity":85,"programNumber":44},{"time":317895.978400001,"duration":55.555500000016764,"noteNumber":69,"velocity":85,"programNumber":44},{"time":317951.533900001,"duration":55.555500000016764,"noteNumber":71,"velocity":85,"programNumber":44},{"time":318007.08940000104,"duration":111.11099999997532,"noteNumber":67,"velocity":85,"programNumber":44},{"time":318118.200400001,"duration":111.11099999997532,"noteNumber":69,"velocity":85,"programNumber":44},{"time":318229.311400001,"duration":166.66649999999208,"noteNumber":71,"velocity":85,"programNumber":44},{"time":318451.533400001,"duration":166.66649999999208,"noteNumber":66,"velocity":85,"programNumber":44},{"time":318673.755400001,"duration":166.66649999999208,"noteNumber":67,"velocity":85,"programNumber":44},{"time":318895.977400001,"duration":166.66649999999208,"noteNumber":69,"velocity":85,"programNumber":44},{"time":319118.19940000103,"duration":166.66649999999208,"noteNumber":71,"velocity":85,"programNumber":44},{"time":319340.42140000104,"duration":166.66649999999208,"noteNumber":71,"velocity":85,"programNumber":44},{"time":319562.64340000105,"duration":55.555500000016764,"noteNumber":72,"velocity":85,"programNumber":44},{"time":319618.19890000107,"duration":55.555500000016764,"noteNumber":74,"velocity":85,"programNumber":44},{"time":319673.7544000011,"duration":55.555500000016764,"noteNumber":72,"velocity":85,"programNumber":44},{"time":319729.3099000011,"duration":55.555500000016764,"noteNumber":74,"velocity":85,"programNumber":44},{"time":319784.8654000011,"duration":111.11099999997532,"noteNumber":71,"velocity":85,"programNumber":44},{"time":319895.9764000011,"duration":111.11100000003353,"noteNumber":72,"velocity":85,"programNumber":44},{"time":319999.6800000011,"duration":166.6665000000503,"noteNumber":74,"velocity":85,"programNumber":44},{"time":320221.90200000117,"duration":166.66649999999208,"noteNumber":74,"velocity":85,"programNumber":44},{"time":320444.1240000012,"duration":55.555500000016764,"noteNumber":75,"velocity":85,"programNumber":44},{"time":320499.6795000012,"duration":55.555500000016764,"noteNumber":76,"velocity":85,"programNumber":44},{"time":320555.2350000012,"duration":55.555500000016764,"noteNumber":75,"velocity":85,"programNumber":44},{"time":320610.7905000012,"duration":55.555500000016764,"noteNumber":76,"velocity":85,"programNumber":44},{"time":320666.34600000124,"duration":111.11099999997532,"noteNumber":73,"velocity":85,"programNumber":44},{"time":320777.4570000012,"duration":111.11099999997532,"noteNumber":75,"velocity":85,"programNumber":44},{"time":320888.5680000012,"duration":444.4440000000177,"noteNumber":76,"velocity":85,"programNumber":44},{"time":321777.4560000012,"duration":1777.7760000000126,"noteNumber":60,"velocity":70,"programNumber":44},{"time":323555.23200000124,"duration":444.4440000000177,"noteNumber":59,"velocity":70,"programNumber":44},{"time":325333.00800000125,"duration":1777.7760000000126,"noteNumber":60,"velocity":70,"programNumber":44},{"time":327110.78400000127,"duration":444.4440000000177,"noteNumber":59,"velocity":70,"programNumber":44},{"time":327999.6720000013,"duration":444.4440000000177,"noteNumber":71,"velocity":70,"programNumber":44},{"time":328888.56000000134,"duration":444.4440000000177,"noteNumber":76,"velocity":92,"programNumber":44},{"time":329777.4480000014,"duration":444.4440000000177,"noteNumber":78,"velocity":106,"programNumber":44},{"time":329777.4480000014,"duration":444.4440000000177,"noteNumber":72,"velocity":106,"programNumber":44},{"time":330666.3360000014,"duration":74.07400000002235,"noteNumber":62,"velocity":95,"programNumber":44},{"time":330666.3360000014,"duration":74.07400000002235,"noteNumber":59,"velocity":95,"programNumber":44},{"time":330777.44700000144,"duration":74.07400000002235,"noteNumber":62,"velocity":95,"programNumber":44},{"time":330777.44700000144,"duration":74.07400000002235,"noteNumber":59,"velocity":95,"programNumber":44},{"time":330888.5580000015,"duration":74.07400000002235,"noteNumber":62,"velocity":95,"programNumber":44},{"time":330888.5580000015,"duration":74.07400000002235,"noteNumber":59,"velocity":95,"programNumber":44},{"time":330999.6690000015,"duration":74.07400000002235,"noteNumber":62,"velocity":95,"programNumber":44},{"time":330999.6690000015,"duration":74.07400000002235,"noteNumber":59,"velocity":95,"programNumber":44},{"time":331110.78000000154,"duration":74.07400000002235,"noteNumber":62,"velocity":95,"programNumber":44},{"time":331110.78000000154,"duration":74.07400000002235,"noteNumber":59,"velocity":95,"programNumber":44},{"time":331221.8910000016,"duration":74.07400000002235,"noteNumber":62,"velocity":94,"programNumber":44},{"time":331221.8910000016,"duration":74.07400000002235,"noteNumber":59,"velocity":94,"programNumber":44},{"time":331333.0020000016,"duration":74.07400000002235,"noteNumber":62,"velocity":94,"programNumber":44},{"time":331333.0020000016,"duration":74.07400000002235,"noteNumber":59,"velocity":94,"programNumber":44},{"time":331444.11300000164,"duration":74.07400000002235,"noteNumber":62,"velocity":94,"programNumber":44},{"time":331444.11300000164,"duration":74.07400000002235,"noteNumber":59,"velocity":94,"programNumber":44},{"time":331555.2240000017,"duration":74.07400000002235,"noteNumber":62,"velocity":94,"programNumber":44},{"time":331555.2240000017,"duration":74.07400000002235,"noteNumber":59,"velocity":94,"programNumber":44},{"time":331666.3350000017,"duration":74.07400000002235,"noteNumber":62,"velocity":94,"programNumber":44},{"time":331666.3350000017,"duration":74.07400000002235,"noteNumber":59,"velocity":94,"programNumber":44},{"time":331777.44600000174,"duration":74.07400000002235,"noteNumber":62,"velocity":94,"programNumber":44},{"time":331777.44600000174,"duration":74.07400000002235,"noteNumber":59,"velocity":94,"programNumber":44},{"time":331888.5570000018,"duration":74.07400000002235,"noteNumber":62,"velocity":94,"programNumber":44},{"time":331888.5570000018,"duration":74.07400000002235,"noteNumber":59,"velocity":94,"programNumber":44},{"time":331999.6680000018,"duration":74.07400000002235,"noteNumber":62,"velocity":94,"programNumber":44},{"time":331999.6680000018,"duration":74.07400000002235,"noteNumber":59,"velocity":94,"programNumber":44},{"time":332110.77900000184,"duration":74.07400000002235,"noteNumber":62,"velocity":94,"programNumber":44},{"time":332110.77900000184,"duration":74.07400000002235,"noteNumber":59,"velocity":94,"programNumber":44},{"time":332221.8900000019,"duration":74.07400000002235,"noteNumber":62,"velocity":94,"programNumber":44},{"time":332221.8900000019,"duration":74.07400000002235,"noteNumber":59,"velocity":94,"programNumber":44},{"time":332333.0010000019,"duration":74.07400000002235,"noteNumber":62,"velocity":94,"programNumber":44},{"time":332333.0010000019,"duration":74.07400000002235,"noteNumber":59,"velocity":94,"programNumber":44},{"time":332444.11200000194,"duration":74.07400000002235,"noteNumber":62,"velocity":94,"programNumber":44},{"time":332444.11200000194,"duration":74.07400000002235,"noteNumber":59,"velocity":94,"programNumber":44},{"time":332555.223000002,"duration":74.07400000002235,"noteNumber":62,"velocity":94,"programNumber":44},{"time":332555.223000002,"duration":74.07400000002235,"noteNumber":59,"velocity":94,"programNumber":44},{"time":332666.334000002,"duration":74.07400000002235,"noteNumber":62,"velocity":94,"programNumber":44},{"time":332666.334000002,"duration":74.07400000002235,"noteNumber":59,"velocity":94,"programNumber":44},{"time":332777.44500000204,"duration":74.07400000002235,"noteNumber":62,"velocity":94,"programNumber":44},{"time":332777.44500000204,"duration":74.07400000002235,"noteNumber":59,"velocity":94,"programNumber":44},{"time":332888.5560000021,"duration":74.07400000002235,"noteNumber":62,"velocity":94,"programNumber":44},{"time":332888.5560000021,"duration":74.07400000002235,"noteNumber":59,"velocity":94,"programNumber":44},{"time":332999.6670000021,"duration":74.07400000002235,"noteNumber":62,"velocity":93,"programNumber":44},{"time":332999.6670000021,"duration":74.07400000002235,"noteNumber":59,"velocity":93,"programNumber":44},{"time":333110.77800000214,"duration":74.07400000002235,"noteNumber":62,"velocity":93,"programNumber":44},{"time":333110.77800000214,"duration":74.07400000002235,"noteNumber":59,"velocity":93,"programNumber":44},{"time":333221.8890000022,"duration":74.07400000002235,"noteNumber":62,"velocity":91,"programNumber":44},{"time":333221.8890000022,"duration":74.07400000002235,"noteNumber":59,"velocity":91,"programNumber":44},{"time":333333.0000000022,"duration":74.07400000002235,"noteNumber":62,"velocity":90,"programNumber":44},{"time":333333.0000000022,"duration":74.07400000002235,"noteNumber":59,"velocity":90,"programNumber":44},{"time":333444.11100000225,"duration":74.07400000002235,"noteNumber":62,"velocity":90,"programNumber":44},{"time":333444.11100000225,"duration":74.07400000002235,"noteNumber":59,"velocity":90,"programNumber":44},{"time":333555.2220000023,"duration":74.07400000002235,"noteNumber":62,"velocity":90,"programNumber":44},{"time":333555.2220000023,"duration":74.07400000002235,"noteNumber":59,"velocity":90,"programNumber":44},{"time":333666.3330000023,"duration":74.07400000002235,"noteNumber":62,"velocity":90,"programNumber":44},{"time":333666.3330000023,"duration":74.07400000002235,"noteNumber":59,"velocity":90,"programNumber":44},{"time":333777.44400000235,"duration":74.07400000002235,"noteNumber":62,"velocity":90,"programNumber":44},{"time":333777.44400000235,"duration":74.07400000002235,"noteNumber":60,"velocity":90,"programNumber":44},{"time":333888.5550000024,"duration":74.07400000002235,"noteNumber":62,"velocity":89,"programNumber":44},{"time":333888.5550000024,"duration":74.07400000002235,"noteNumber":60,"velocity":89,"programNumber":44},{"time":333999.6660000024,"duration":74.07400000002235,"noteNumber":62,"velocity":89,"programNumber":44},{"time":333999.6660000024,"duration":74.07400000002235,"noteNumber":60,"velocity":89,"programNumber":44},{"time":334110.77700000245,"duration":74.07400000002235,"noteNumber":62,"velocity":89,"programNumber":44},{"time":334110.77700000245,"duration":74.07400000002235,"noteNumber":60,"velocity":89,"programNumber":44},{"time":334221.8880000025,"duration":74.07400000002235,"noteNumber":62,"velocity":89,"programNumber":44},{"time":334221.8880000025,"duration":74.07400000002235,"noteNumber":59,"velocity":89,"programNumber":44},{"time":334332.9990000025,"duration":74.07400000002235,"noteNumber":62,"velocity":89,"programNumber":44},{"time":334332.9990000025,"duration":74.07400000002235,"noteNumber":59,"velocity":89,"programNumber":44},{"time":334444.11000000255,"duration":74.07400000002235,"noteNumber":62,"velocity":89,"programNumber":44},{"time":334444.11000000255,"duration":74.07400000002235,"noteNumber":59,"velocity":89,"programNumber":44},{"time":334555.2210000026,"duration":74.07400000002235,"noteNumber":62,"velocity":90,"programNumber":44},{"time":334555.2210000026,"duration":74.07400000002235,"noteNumber":59,"velocity":90,"programNumber":44},{"time":334666.3320000026,"duration":74.07400000002235,"noteNumber":62,"velocity":90,"programNumber":44},{"time":334666.3320000026,"duration":74.07400000002235,"noteNumber":59,"velocity":90,"programNumber":44},{"time":334777.44300000265,"duration":74.07400000002235,"noteNumber":62,"velocity":90,"programNumber":44},{"time":334777.44300000265,"duration":74.07400000002235,"noteNumber":59,"velocity":90,"programNumber":44},{"time":334888.5540000027,"duration":74.07400000002235,"noteNumber":62,"velocity":92,"programNumber":44},{"time":334888.5540000027,"duration":74.07400000002235,"noteNumber":59,"velocity":92,"programNumber":44},{"time":334999.6650000027,"duration":74.07400000002235,"noteNumber":62,"velocity":93,"programNumber":44},{"time":334999.6650000027,"duration":74.07400000002235,"noteNumber":59,"velocity":93,"programNumber":44},{"time":335110.77600000275,"duration":74.07400000002235,"noteNumber":62,"velocity":94,"programNumber":44},{"time":335110.77600000275,"duration":74.07400000002235,"noteNumber":59,"velocity":94,"programNumber":44},{"time":335221.8870000028,"duration":74.07400000002235,"noteNumber":62,"velocity":95,"programNumber":44},{"time":335221.8870000028,"duration":74.07400000002235,"noteNumber":59,"velocity":95,"programNumber":44},{"time":335332.9980000028,"duration":74.07400000002235,"noteNumber":62,"velocity":96,"programNumber":44},{"time":335332.9980000028,"duration":74.07400000002235,"noteNumber":59,"velocity":96,"programNumber":44},{"time":335444.10900000285,"duration":74.07400000002235,"noteNumber":62,"velocity":96,"programNumber":44},{"time":335444.10900000285,"duration":74.07400000002235,"noteNumber":59,"velocity":96,"programNumber":44},{"time":335555.2200000029,"duration":74.07400000002235,"noteNumber":62,"velocity":96,"programNumber":44},{"time":335555.2200000029,"duration":74.07400000002235,"noteNumber":59,"velocity":96,"programNumber":44},{"time":335666.3310000029,"duration":74.07400000002235,"noteNumber":62,"velocity":96,"programNumber":44},{"time":335666.3310000029,"duration":74.07400000002235,"noteNumber":59,"velocity":96,"programNumber":44},{"time":335777.44200000295,"duration":74.07400000002235,"noteNumber":62,"velocity":95,"programNumber":44},{"time":335777.44200000295,"duration":74.07400000002235,"noteNumber":59,"velocity":95,"programNumber":44},{"time":335888.553000003,"duration":74.07400000002235,"noteNumber":62,"velocity":94,"programNumber":44},{"time":335888.553000003,"duration":74.07400000002235,"noteNumber":59,"velocity":94,"programNumber":44},{"time":335999.664000003,"duration":74.07400000002235,"noteNumber":62,"velocity":94,"programNumber":44},{"time":335999.664000003,"duration":74.07400000002235,"noteNumber":59,"velocity":94,"programNumber":44},{"time":336110.77500000305,"duration":74.07400000002235,"noteNumber":62,"velocity":93,"programNumber":44},{"time":336110.77500000305,"duration":74.07400000002235,"noteNumber":59,"velocity":93,"programNumber":44},{"time":336221.8860000031,"duration":74.07400000002235,"noteNumber":62,"velocity":93,"programNumber":44},{"time":336221.8860000031,"duration":74.07400000002235,"noteNumber":59,"velocity":93,"programNumber":44},{"time":336332.9970000031,"duration":74.07400000002235,"noteNumber":62,"velocity":93,"programNumber":44},{"time":336332.9970000031,"duration":74.07400000002235,"noteNumber":59,"velocity":93,"programNumber":44},{"time":336444.10800000315,"duration":74.07400000002235,"noteNumber":62,"velocity":92,"programNumber":44},{"time":336444.10800000315,"duration":74.07400000002235,"noteNumber":59,"velocity":92,"programNumber":44},{"time":336555.2190000032,"duration":74.07400000002235,"noteNumber":62,"velocity":91,"programNumber":44},{"time":336555.2190000032,"duration":74.07400000002235,"noteNumber":59,"velocity":91,"programNumber":44},{"time":336666.3300000032,"duration":74.07400000002235,"noteNumber":62,"velocity":90,"programNumber":44},{"time":336666.3300000032,"duration":74.07400000002235,"noteNumber":59,"velocity":90,"programNumber":44},{"time":336777.44100000325,"duration":74.07400000002235,"noteNumber":62,"velocity":90,"programNumber":44},{"time":336777.44100000325,"duration":74.07400000002235,"noteNumber":59,"velocity":90,"programNumber":44},{"time":336888.5520000033,"duration":74.07400000002235,"noteNumber":62,"velocity":90,"programNumber":44},{"time":336888.5520000033,"duration":74.07400000002235,"noteNumber":59,"velocity":90,"programNumber":44},{"time":336999.6630000033,"duration":74.07400000002235,"noteNumber":62,"velocity":90,"programNumber":44},{"time":336999.6630000033,"duration":74.07400000002235,"noteNumber":59,"velocity":90,"programNumber":44},{"time":337110.77400000335,"duration":74.07400000002235,"noteNumber":62,"velocity":90,"programNumber":44},{"time":337110.77400000335,"duration":74.07400000002235,"noteNumber":59,"velocity":90,"programNumber":44},{"time":337221.8850000034,"duration":74.07400000002235,"noteNumber":62,"velocity":90,"programNumber":44},{"time":337221.8850000034,"duration":74.07400000002235,"noteNumber":59,"velocity":90,"programNumber":44},{"time":337332.9960000034,"duration":74.07400000002235,"noteNumber":62,"velocity":91,"programNumber":44},{"time":337332.9960000034,"duration":74.07400000002235,"noteNumber":60,"velocity":91,"programNumber":44},{"time":337444.10700000345,"duration":74.07400000002235,"noteNumber":62,"velocity":94,"programNumber":44},{"time":337444.10700000345,"duration":74.07400000002235,"noteNumber":60,"velocity":94,"programNumber":44},{"time":337555.2180000035,"duration":74.07400000002235,"noteNumber":62,"velocity":95,"programNumber":44},{"time":337555.2180000035,"duration":74.07400000002235,"noteNumber":60,"velocity":95,"programNumber":44},{"time":337666.3290000035,"duration":74.07400000002235,"noteNumber":62,"velocity":98,"programNumber":44},{"time":337666.3290000035,"duration":74.07400000002235,"noteNumber":60,"velocity":98,"programNumber":44},{"time":337777.44000000355,"duration":444.4440000000177,"noteNumber":59,"velocity":98,"programNumber":44},{"time":337777.44000000355,"duration":444.4440000000177,"noteNumber":62,"velocity":98,"programNumber":44},{"time":338666.3280000036,"duration":444.4440000000177,"noteNumber":62,"velocity":103,"programNumber":44},{"time":338666.3280000036,"duration":444.4440000000177,"noteNumber":71,"velocity":103,"programNumber":44},{"time":338666.3280000036,"duration":444.4440000000177,"noteNumber":79,"velocity":103,"programNumber":44},{"time":339562.6234000036,"duration":370.36999999999534,"noteNumber":79,"velocity":103,"programNumber":44},{"time":339562.6234000036,"duration":370.36999999999534,"noteNumber":71,"velocity":103,"programNumber":44},{"time":339562.6234000036,"duration":370.36999999999534,"noteNumber":62,"velocity":103,"programNumber":44},{"time":340007.0674000036,"duration":222.22200000000885,"noteNumber":67,"velocity":103,"programNumber":44},{"time":340007.0674000036,"duration":222.22200000000885,"noteNumber":55,"velocity":103,"programNumber":44},{"time":340340.4004000036,"duration":55.555500000016764,"noteNumber":67,"velocity":103,"programNumber":44},{"time":340340.4004000036,"duration":55.555500000016764,"noteNumber":55,"velocity":103,"programNumber":44},{"time":340451.5114000036,"duration":444.4440000000177,"noteNumber":67,"velocity":103,"programNumber":44},{"time":340451.5114000036,"duration":444.4440000000177,"noteNumber":55,"velocity":103,"programNumber":44}],[{"time":0,"duration":444.444,"noteNumber":67,"velocity":85,"programNumber":48},{"time":666.666,"duration":111.11099999999999,"noteNumber":62,"velocity":85,"programNumber":48},{"time":888.888,"duration":444.4440000000001,"noteNumber":67,"velocity":85,"programNumber":48},{"time":1555.554,"duration":111.1110000000001,"noteNumber":62,"velocity":85,"programNumber":48},{"time":1777.7760000000003,"duration":111.1110000000001,"noteNumber":67,"velocity":85,"programNumber":48},{"time":1999.9980000000005,"duration":111.11099999999988,"noteNumber":62,"velocity":85,"programNumber":48},{"time":2222.2200000000003,"duration":111.11099999999988,"noteNumber":67,"velocity":85,"programNumber":48},{"time":2444.442,"duration":111.11099999999988,"noteNumber":71,"velocity":85,"programNumber":48},{"time":2666.6639999999998,"duration":444.44399999999996,"noteNumber":74,"velocity":85,"programNumber":48},{"time":3555.5519999999997,"duration":444.44399999999996,"noteNumber":72,"velocity":85,"programNumber":48},{"time":4222.218,"duration":111.11099999999988,"noteNumber":69,"velocity":85,"programNumber":48},{"time":4444.44,"duration":444.4440000000004,"noteNumber":72,"velocity":85,"programNumber":48},{"time":5111.106,"duration":111.11099999999988,"noteNumber":69,"velocity":85,"programNumber":48},{"time":5333.3279999999995,"duration":111.11099999999988,"noteNumber":72,"velocity":85,"programNumber":48},{"time":5555.549999999999,"duration":111.11099999999988,"noteNumber":69,"velocity":85,"programNumber":48},{"time":5777.771999999999,"duration":111.11099999999988,"noteNumber":66,"velocity":85,"programNumber":48},{"time":5999.993999999999,"duration":111.11099999999988,"noteNumber":69,"velocity":85,"programNumber":48},{"time":6222.2159999999985,"duration":444.4440000000004,"noteNumber":62,"velocity":85,"programNumber":48},{"time":7111.103999999999,"duration":166.66650000000027,"noteNumber":67,"velocity":85,"programNumber":48},{"time":7333.326,"duration":166.66650000000027,"noteNumber":67,"velocity":85,"programNumber":48},{"time":7555.548000000001,"duration":166.66650000000027,"noteNumber":67,"velocity":85,"programNumber":48},{"time":7777.770000000001,"duration":166.66650000000027,"noteNumber":67,"velocity":85,"programNumber":48},{"time":7999.992000000002,"duration":166.66650000000027,"noteNumber":67,"velocity":85,"programNumber":48},{"time":8222.214000000002,"duration":166.66649999999936,"noteNumber":67,"velocity":85,"programNumber":48},{"time":8444.436000000002,"duration":166.66649999999936,"noteNumber":67,"velocity":85,"programNumber":48},{"time":8666.658000000001,"duration":166.66649999999936,"noteNumber":67,"velocity":85,"programNumber":48},{"time":8888.880000000001,"duration":166.66649999999936,"noteNumber":69,"velocity":85,"programNumber":48},{"time":9111.102,"duration":166.66649999999936,"noteNumber":69,"velocity":85,"programNumber":48},{"time":9333.324,"duration":166.66649999999936,"noteNumber":69,"velocity":85,"programNumber":48},{"time":9555.546,"duration":166.66649999999936,"noteNumber":69,"velocity":85,"programNumber":48},{"time":9777.768,"duration":222.22199999999975,"noteNumber":69,"velocity":85,"programNumber":48},{"time":9999.99,"duration":166.66649999999936,"noteNumber":72,"velocity":85,"programNumber":48},{"time":10222.212,"duration":222.22199999999975,"noteNumber":66,"velocity":85,"programNumber":48},{"time":10444.434,"duration":166.66649999999936,"noteNumber":69,"velocity":85,"programNumber":48},{"time":10666.655999999999,"duration":166.66649999999936,"noteNumber":67,"velocity":85,"programNumber":48},{"time":10888.877999999999,"duration":166.66649999999936,"noteNumber":67,"velocity":85,"programNumber":48},{"time":11111.099999999999,"duration":166.66649999999936,"noteNumber":67,"velocity":85,"programNumber":48},{"time":11333.321999999998,"duration":166.66649999999936,"noteNumber":67,"velocity":85,"programNumber":48},{"time":11555.543999999998,"duration":166.66649999999936,"noteNumber":67,"velocity":85,"programNumber":48},{"time":11777.765999999998,"duration":166.66649999999936,"noteNumber":67,"velocity":85,"programNumber":48},{"time":11999.987999999998,"duration":166.66649999999936,"noteNumber":67,"velocity":85,"programNumber":48},{"time":12222.209999999997,"duration":166.66649999999936,"noteNumber":67,"velocity":85,"programNumber":48},{"time":12444.431999999997,"duration":166.66649999999936,"noteNumber":69,"velocity":85,"programNumber":48},{"time":12666.653999999997,"duration":166.66649999999936,"noteNumber":69,"velocity":85,"programNumber":48},{"time":12888.875999999997,"duration":166.66649999999936,"noteNumber":69,"velocity":85,"programNumber":48},{"time":13111.097999999996,"duration":166.66649999999936,"noteNumber":69,"velocity":85,"programNumber":48},{"time":13333.319999999996,"duration":222.22199999999975,"noteNumber":69,"velocity":85,"programNumber":48},{"time":13555.541999999996,"duration":166.66649999999936,"noteNumber":72,"velocity":85,"programNumber":48},{"time":13777.763999999996,"duration":222.22199999999975,"noteNumber":66,"velocity":85,"programNumber":48},{"time":13999.985999999995,"duration":166.66649999999936,"noteNumber":69,"velocity":85,"programNumber":48},{"time":14222.207999999995,"duration":74.07400000000052,"noteNumber":62,"velocity":85,"programNumber":48},{"time":14333.318999999996,"duration":74.07400000000052,"noteNumber":62,"velocity":85,"programNumber":48},{"time":14444.429999999997,"duration":74.07400000000052,"noteNumber":62,"velocity":85,"programNumber":48},{"time":14555.540999999997,"duration":74.07400000000052,"noteNumber":62,"velocity":85,"programNumber":48},{"time":14666.651999999998,"duration":74.07400000000052,"noteNumber":62,"velocity":85,"programNumber":48},{"time":14777.762999999999,"duration":74.07400000000052,"noteNumber":62,"velocity":85,"programNumber":48},{"time":14888.874,"duration":74.07400000000052,"noteNumber":62,"velocity":85,"programNumber":48},{"time":14999.985,"duration":74.07400000000052,"noteNumber":62,"velocity":85,"programNumber":48},{"time":15111.096000000001,"duration":74.07400000000052,"noteNumber":62,"velocity":85,"programNumber":48},{"time":15222.207000000002,"duration":74.07400000000052,"noteNumber":62,"velocity":85,"programNumber":48},{"time":15333.318000000003,"duration":74.07400000000052,"noteNumber":62,"velocity":85,"programNumber":48},{"time":15444.429000000004,"duration":74.07400000000052,"noteNumber":62,"velocity":85,"programNumber":48},{"time":15555.540000000005,"duration":74.07400000000052,"noteNumber":62,"velocity":85,"programNumber":48},{"time":15666.651000000005,"duration":74.07400000000052,"noteNumber":62,"velocity":85,"programNumber":48},{"time":15777.762000000006,"duration":74.07400000000052,"noteNumber":62,"velocity":85,"programNumber":48},{"time":15888.873000000007,"duration":74.07400000000052,"noteNumber":62,"velocity":85,"programNumber":48},{"time":15999.984000000008,"duration":74.07400000000052,"noteNumber":62,"velocity":85,"programNumber":48},{"time":16111.095000000008,"duration":74.07400000000052,"noteNumber":62,"velocity":85,"programNumber":48},{"time":16222.20600000001,"duration":74.07400000000052,"noteNumber":62,"velocity":85,"programNumber":48},{"time":16333.31700000001,"duration":74.07400000000052,"noteNumber":62,"velocity":85,"programNumber":48},{"time":16444.42800000001,"duration":74.07400000000052,"noteNumber":62,"velocity":85,"programNumber":48},{"time":16555.53900000001,"duration":74.07400000000052,"noteNumber":62,"velocity":85,"programNumber":48},{"time":16666.650000000012,"duration":74.07400000000052,"noteNumber":62,"velocity":85,"programNumber":48},{"time":16777.761000000013,"duration":74.07400000000052,"noteNumber":62,"velocity":85,"programNumber":48},{"time":16888.872000000014,"duration":444.4439999999995,"noteNumber":62,"velocity":85,"programNumber":48},{"time":19555.536000000015,"duration":888.887999999999,"noteNumber":54,"velocity":47,"programNumber":48},{"time":20444.424000000014,"duration":888.887999999999,"noteNumber":55,"velocity":47,"programNumber":48},{"time":21333.312000000013,"duration":333.3329999999987,"noteNumber":60,"velocity":47,"programNumber":48},{"time":21777.756000000012,"duration":333.3329999999987,"noteNumber":60,"velocity":47,"programNumber":48},{"time":22222.20000000001,"duration":333.3329999999987,"noteNumber":57,"velocity":47,"programNumber":48},{"time":22666.64400000001,"duration":333.3329999999987,"noteNumber":50,"velocity":47,"programNumber":48},{"time":23111.08800000001,"duration":222.22200000000157,"noteNumber":50,"velocity":47,"programNumber":48},{"time":23555.532000000014,"duration":222.22200000000157,"noteNumber":62,"velocity":47,"programNumber":48},{"time":23999.976000000017,"duration":444.4439999999995,"noteNumber":62,"velocity":47,"programNumber":48},{"time":26666.640000000018,"duration":888.887999999999,"noteNumber":66,"velocity":47,"programNumber":48},{"time":27555.528000000017,"duration":888.887999999999,"noteNumber":67,"velocity":47,"programNumber":48},{"time":28444.416000000016,"duration":333.3329999999987,"noteNumber":60,"velocity":47,"programNumber":48},{"time":28888.860000000015,"duration":166.66649999999936,"noteNumber":60,"velocity":47,"programNumber":48},{"time":29111.082000000013,"duration":166.66649999999936,"noteNumber":60,"velocity":47,"programNumber":48},{"time":29333.30400000001,"duration":333.3329999999987,"noteNumber":57,"velocity":47,"programNumber":48},{"time":29777.74800000001,"duration":166.66649999999936,"noteNumber":57,"velocity":47,"programNumber":48},{"time":29999.97000000001,"duration":166.66649999999936,"noteNumber":57,"velocity":47,"programNumber":48},{"time":30222.192000000006,"duration":166.66649999999936,"noteNumber":55,"velocity":92,"programNumber":48},{"time":30444.414000000004,"duration":166.66649999999936,"noteNumber":55,"velocity":71,"programNumber":48},{"time":30666.636000000002,"duration":166.66649999999936,"noteNumber":55,"velocity":71,"programNumber":48},{"time":30888.858,"duration":166.66649999999936,"noteNumber":55,"velocity":71,"programNumber":48},{"time":31111.079999999998,"duration":166.66649999999936,"noteNumber":55,"velocity":55,"programNumber":48},{"time":31333.301999999996,"duration":166.66649999999936,"noteNumber":55,"velocity":50,"programNumber":48},{"time":31555.523999999994,"duration":166.66649999999936,"noteNumber":55,"velocity":50,"programNumber":48},{"time":31777.745999999992,"duration":166.66649999999936,"noteNumber":55,"velocity":50,"programNumber":48},{"time":31999.96799999999,"duration":166.66649999999936,"noteNumber":55,"velocity":91,"programNumber":48},{"time":32222.189999999988,"duration":166.66649999999936,"noteNumber":55,"velocity":65,"programNumber":48},{"time":32444.411999999986,"duration":166.66649999999936,"noteNumber":55,"velocity":65,"programNumber":48},{"time":32666.633999999984,"duration":166.66649999999936,"noteNumber":55,"velocity":65,"programNumber":48},{"time":32888.855999999985,"duration":166.66649999999936,"noteNumber":55,"velocity":46,"programNumber":48},{"time":33111.07799999999,"duration":166.66649999999936,"noteNumber":55,"velocity":46,"programNumber":48},{"time":33333.29999999999,"duration":166.66649999999936,"noteNumber":55,"velocity":46,"programNumber":48},{"time":33555.52199999999,"duration":166.66649999999936,"noteNumber":55,"velocity":46,"programNumber":48},{"time":33777.74399999999,"duration":166.66649999999936,"noteNumber":55,"velocity":59,"programNumber":48},{"time":33999.96599999999,"duration":166.66649999999936,"noteNumber":67,"velocity":41,"programNumber":48},{"time":34222.187999999995,"duration":166.66649999999936,"noteNumber":67,"velocity":46,"programNumber":48},{"time":34444.409999999996,"duration":166.66649999999936,"noteNumber":67,"velocity":49,"programNumber":48},{"time":34666.632,"duration":166.66649999999936,"noteNumber":67,"velocity":53,"programNumber":48},{"time":34888.854,"duration":166.66649999999936,"noteNumber":67,"velocity":56,"programNumber":48},{"time":35111.076,"duration":166.66649999999936,"noteNumber":69,"velocity":61,"programNumber":48},{"time":35333.298,"duration":166.66649999999936,"noteNumber":69,"velocity":64,"programNumber":48},{"time":35555.520000000004,"duration":166.66649999999936,"noteNumber":67,"velocity":68,"programNumber":48},{"time":35777.742000000006,"duration":166.66649999999936,"noteNumber":67,"velocity":71,"programNumber":48},{"time":35999.96400000001,"duration":166.66649999999936,"noteNumber":66,"velocity":76,"programNumber":48},{"time":36222.18600000001,"duration":166.66649999999936,"noteNumber":66,"velocity":79,"programNumber":48},{"time":36444.40800000001,"duration":166.66649999999936,"noteNumber":67,"velocity":82,"programNumber":48},{"time":36666.63000000001,"duration":166.66649999999936,"noteNumber":67,"velocity":82,"programNumber":48},{"time":36888.85200000001,"duration":166.66649999999936,"noteNumber":64,"velocity":82,"programNumber":48},{"time":37111.074000000015,"duration":166.66649999999936,"noteNumber":64,"velocity":82,"programNumber":48},{"time":37333.29600000002,"duration":74.07400000000052,"noteNumber":62,"velocity":85,"programNumber":48},{"time":37333.29600000002,"duration":74.07400000000052,"noteNumber":69,"velocity":85,"programNumber":48},{"time":37444.407000000014,"duration":74.07400000000052,"noteNumber":62,"velocity":85,"programNumber":48},{"time":37444.407000000014,"duration":74.07400000000052,"noteNumber":69,"velocity":85,"programNumber":48},{"time":37555.51800000001,"duration":74.07400000000052,"noteNumber":62,"velocity":85,"programNumber":48},{"time":37555.51800000001,"duration":74.07400000000052,"noteNumber":69,"velocity":85,"programNumber":48},{"time":37666.62900000001,"duration":74.07400000000052,"noteNumber":62,"velocity":85,"programNumber":48},{"time":37666.62900000001,"duration":74.07400000000052,"noteNumber":69,"velocity":85,"programNumber":48},{"time":37777.740000000005,"duration":74.07400000000052,"noteNumber":62,"velocity":85,"programNumber":48},{"time":37777.740000000005,"duration":74.07400000000052,"noteNumber":69,"velocity":85,"programNumber":48},{"time":37888.851,"duration":74.07400000000052,"noteNumber":62,"velocity":85,"programNumber":48},{"time":37888.851,"duration":74.07400000000052,"noteNumber":69,"velocity":85,"programNumber":48},{"time":37999.962,"duration":74.07400000000052,"noteNumber":62,"velocity":85,"programNumber":48},{"time":37999.962,"duration":74.07400000000052,"noteNumber":69,"velocity":85,"programNumber":48},{"time":38111.073,"duration":74.07400000000052,"noteNumber":62,"velocity":85,"programNumber":48},{"time":38111.073,"duration":74.07400000000052,"noteNumber":69,"velocity":85,"programNumber":48},{"time":38222.183999999994,"duration":74.07400000000052,"noteNumber":64,"velocity":85,"programNumber":48},{"time":38222.183999999994,"duration":74.07400000000052,"noteNumber":69,"velocity":85,"programNumber":48},{"time":38333.29499999999,"duration":74.07400000000052,"noteNumber":64,"velocity":85,"programNumber":48},{"time":38333.29499999999,"duration":74.07400000000052,"noteNumber":69,"velocity":85,"programNumber":48},{"time":38444.40599999999,"duration":74.07400000000052,"noteNumber":64,"velocity":85,"programNumber":48},{"time":38444.40599999999,"duration":74.07400000000052,"noteNumber":69,"velocity":85,"programNumber":48},{"time":38555.516999999985,"duration":74.07400000000052,"noteNumber":64,"velocity":85,"programNumber":48},{"time":38555.516999999985,"duration":74.07400000000052,"noteNumber":69,"velocity":85,"programNumber":48},{"time":38666.62799999998,"duration":74.07400000000052,"noteNumber":64,"velocity":85,"programNumber":48},{"time":38666.62799999998,"duration":74.07400000000052,"noteNumber":69,"velocity":85,"programNumber":48},{"time":38777.73899999998,"duration":74.07400000000052,"noteNumber":64,"velocity":85,"programNumber":48},{"time":38777.73899999998,"duration":74.07400000000052,"noteNumber":69,"velocity":85,"programNumber":48},{"time":38888.84999999998,"duration":74.07400000000052,"noteNumber":64,"velocity":85,"programNumber":48},{"time":38888.84999999998,"duration":74.07400000000052,"noteNumber":69,"velocity":85,"programNumber":48},{"time":38999.960999999974,"duration":74.07400000000052,"noteNumber":64,"velocity":85,"programNumber":48},{"time":38999.960999999974,"duration":74.07400000000052,"noteNumber":69,"velocity":85,"programNumber":48},{"time":39111.07199999997,"duration":74.07400000000052,"noteNumber":62,"velocity":85,"programNumber":48},{"time":39111.07199999997,"duration":74.07400000000052,"noteNumber":69,"velocity":85,"programNumber":48},{"time":39222.18299999997,"duration":74.07400000000052,"noteNumber":62,"velocity":85,"programNumber":48},{"time":39222.18299999997,"duration":74.07400000000052,"noteNumber":69,"velocity":85,"programNumber":48},{"time":39333.293999999965,"duration":74.07400000000052,"noteNumber":62,"velocity":85,"programNumber":48},{"time":39333.293999999965,"duration":74.07400000000052,"noteNumber":69,"velocity":85,"programNumber":48},{"time":39444.40499999996,"duration":74.07400000000052,"noteNumber":62,"velocity":85,"programNumber":48},{"time":39444.40499999996,"duration":74.07400000000052,"noteNumber":69,"velocity":85,"programNumber":48},{"time":39555.51599999996,"duration":74.07400000000052,"noteNumber":62,"velocity":85,"programNumber":48},{"time":39555.51599999996,"duration":74.07400000000052,"noteNumber":69,"velocity":85,"programNumber":48},{"time":39666.62699999996,"duration":74.07400000000052,"noteNumber":62,"velocity":85,"programNumber":48},{"time":39666.62699999996,"duration":74.07400000000052,"noteNumber":69,"velocity":85,"programNumber":48},{"time":39777.737999999954,"duration":74.07400000000052,"noteNumber":62,"velocity":85,"programNumber":48},{"time":39777.737999999954,"duration":74.07400000000052,"noteNumber":69,"velocity":85,"programNumber":48},{"time":39888.84899999995,"duration":74.07400000000052,"noteNumber":62,"velocity":85,"programNumber":48},{"time":39888.84899999995,"duration":74.07400000000052,"noteNumber":69,"velocity":85,"programNumber":48},{"time":39999.95999999995,"duration":74.07400000000052,"noteNumber":64,"velocity":85,"programNumber":48},{"time":39999.95999999995,"duration":74.07400000000052,"noteNumber":69,"velocity":85,"programNumber":48},{"time":40111.070999999945,"duration":74.07400000000052,"noteNumber":64,"velocity":85,"programNumber":48},{"time":40111.070999999945,"duration":74.07400000000052,"noteNumber":69,"velocity":85,"programNumber":48},{"time":40222.18199999994,"duration":74.07400000000052,"noteNumber":64,"velocity":85,"programNumber":48},{"time":40222.18199999994,"duration":74.07400000000052,"noteNumber":69,"velocity":85,"programNumber":48},{"time":40333.29299999994,"duration":74.07400000000052,"noteNumber":64,"velocity":85,"programNumber":48},{"time":40333.29299999994,"duration":74.07400000000052,"noteNumber":69,"velocity":85,"programNumber":48},{"time":40444.40399999994,"duration":74.07400000000052,"noteNumber":64,"velocity":85,"programNumber":48},{"time":40444.40399999994,"duration":74.07400000000052,"noteNumber":69,"velocity":85,"programNumber":48},{"time":40555.514999999934,"duration":74.07400000000052,"noteNumber":64,"velocity":85,"programNumber":48},{"time":40555.514999999934,"duration":74.07400000000052,"noteNumber":69,"velocity":85,"programNumber":48},{"time":40666.62599999993,"duration":74.07400000000052,"noteNumber":64,"velocity":85,"programNumber":48},{"time":40666.62599999993,"duration":74.07400000000052,"noteNumber":69,"velocity":85,"programNumber":48},{"time":40777.73699999993,"duration":74.07400000000052,"noteNumber":64,"velocity":85,"programNumber":48},{"time":40777.73699999993,"duration":74.07400000000052,"noteNumber":69,"velocity":85,"programNumber":48},{"time":40888.847999999925,"duration":166.66649999999936,"noteNumber":62,"velocity":85,"programNumber":48},{"time":41111.06999999993,"duration":166.66649999999936,"noteNumber":64,"velocity":85,"programNumber":48},{"time":41333.29199999993,"duration":166.66649999999936,"noteNumber":66,"velocity":85,"programNumber":48},{"time":41555.51399999993,"duration":166.66649999999936,"noteNumber":64,"velocity":85,"programNumber":48},{"time":41777.73599999993,"duration":166.66649999999936,"noteNumber":62,"velocity":85,"programNumber":48},{"time":41999.95799999993,"duration":166.66649999999936,"noteNumber":64,"velocity":85,"programNumber":48},{"time":42222.179999999935,"duration":166.66649999999936,"noteNumber":66,"velocity":85,"programNumber":48},{"time":42444.40199999994,"duration":166.66649999999936,"noteNumber":62,"velocity":85,"programNumber":48},{"time":42666.62399999994,"duration":166.66649999999936,"noteNumber":71,"velocity":85,"programNumber":48},{"time":42888.84599999994,"duration":166.66649999999936,"noteNumber":69,"velocity":85,"programNumber":48},{"time":43111.06799999994,"duration":166.66649999999936,"noteNumber":67,"velocity":85,"programNumber":48},{"time":43333.28999999994,"duration":166.66649999999936,"noteNumber":69,"velocity":85,"programNumber":48},{"time":43555.511999999944,"duration":166.66649999999936,"noteNumber":71,"velocity":85,"programNumber":48},{"time":43777.733999999946,"duration":166.66649999999936,"noteNumber":69,"velocity":85,"programNumber":48},{"time":43999.95599999995,"duration":166.66649999999936,"noteNumber":68,"velocity":85,"programNumber":48},{"time":44222.17799999995,"duration":166.66649999999936,"noteNumber":71,"velocity":85,"programNumber":48},{"time":44444.39999999995,"duration":166.66649999999936,"noteNumber":69,"velocity":85,"programNumber":48},{"time":44666.62199999995,"duration":166.66649999999936,"noteNumber":69,"velocity":85,"programNumber":48},{"time":44888.843999999954,"duration":166.66649999999936,"noteNumber":69,"velocity":85,"programNumber":48},{"time":45111.065999999955,"duration":166.66649999999936,"noteNumber":69,"velocity":85,"programNumber":48},{"time":45333.28799999996,"duration":166.66649999999936,"noteNumber":69,"velocity":85,"programNumber":48},{"time":45555.50999999996,"duration":166.66649999999936,"noteNumber":69,"velocity":85,"programNumber":48},{"time":45777.73199999996,"duration":166.66649999999936,"noteNumber":69,"velocity":85,"programNumber":48},{"time":45999.95399999996,"duration":166.66649999999936,"noteNumber":69,"velocity":85,"programNumber":48},{"time":46222.17599999996,"duration":166.66649999999936,"noteNumber":69,"velocity":85,"programNumber":48},{"time":46444.397999999965,"duration":166.66649999999936,"noteNumber":57,"velocity":85,"programNumber":48},{"time":46666.619999999966,"duration":166.66649999999936,"noteNumber":57,"velocity":85,"programNumber":48},{"time":46888.84199999997,"duration":166.66649999999936,"noteNumber":57,"velocity":85,"programNumber":48},{"time":47111.06399999997,"duration":444.44400000000314,"noteNumber":57,"velocity":85,"programNumber":48},{"time":49333.28399999997,"duration":222.22200000000157,"noteNumber":66,"velocity":55,"programNumber":48},{"time":49777.727999999974,"duration":222.22200000000157,"noteNumber":59,"velocity":55,"programNumber":48},{"time":50222.17199999998,"duration":222.22200000000157,"noteNumber":67,"velocity":55,"programNumber":48},{"time":50666.61599999998,"duration":222.22200000000157,"noteNumber":64,"velocity":55,"programNumber":48},{"time":51111.05999999998,"duration":222.22200000000157,"noteNumber":61,"velocity":55,"programNumber":48},{"time":51999.94799999998,"duration":444.44400000000314,"noteNumber":64,"velocity":55,"programNumber":48},{"time":52444.391999999985,"duration":222.22200000000157,"noteNumber":62,"velocity":55,"programNumber":48},{"time":52888.83599999999,"duration":222.22200000000157,"noteNumber":64,"velocity":55,"programNumber":48},{"time":53333.27999999999,"duration":888.887999999999,"noteNumber":62,"velocity":55,"programNumber":48},{"time":54222.16799999999,"duration":444.44400000000314,"noteNumber":61,"velocity":55,"programNumber":48},{"time":55555.49999999999,"duration":444.44400000000314,"noteNumber":61,"velocity":55,"programNumber":48},{"time":55999.943999999996,"duration":222.22200000000157,"noteNumber":62,"velocity":55,"programNumber":48},{"time":56444.388,"duration":222.22200000000157,"noteNumber":66,"velocity":55,"programNumber":48},{"time":56888.832,"duration":222.22200000000157,"noteNumber":59,"velocity":55,"programNumber":48},{"time":57333.276000000005,"duration":222.22200000000157,"noteNumber":55,"velocity":55,"programNumber":48},{"time":57777.72000000001,"duration":444.44400000000314,"noteNumber":52,"velocity":55,"programNumber":48},{"time":58444.38600000001,"duration":166.66649999999936,"noteNumber":64,"velocity":55,"programNumber":48},{"time":58666.608000000015,"duration":222.22200000000157,"noteNumber":64,"velocity":55,"programNumber":48},{"time":58888.830000000016,"duration":222.22200000000157,"noteNumber":62,"velocity":55,"programNumber":48},{"time":60444.38400000002,"duration":166.66649999999936,"noteNumber":62,"velocity":55,"programNumber":48},{"time":60666.60600000002,"duration":166.66649999999936,"noteNumber":62,"velocity":55,"programNumber":48},{"time":60888.82800000002,"duration":166.66649999999936,"noteNumber":64,"velocity":55,"programNumber":48},{"time":61111.050000000025,"duration":166.66649999999936,"noteNumber":64,"velocity":55,"programNumber":48},{"time":61333.272000000026,"duration":166.66649999999936,"noteNumber":66,"velocity":55,"programNumber":48},{"time":61555.49400000003,"duration":166.66649999999936,"noteNumber":66,"velocity":55,"programNumber":48},{"time":61777.71600000003,"duration":166.66649999999936,"noteNumber":62,"velocity":55,"programNumber":48},{"time":61999.93800000003,"duration":166.66649999999936,"noteNumber":62,"velocity":55,"programNumber":48},{"time":62222.16000000003,"duration":166.66649999999936,"noteNumber":61,"velocity":55,"programNumber":48},{"time":62444.382000000034,"duration":166.66649999999936,"noteNumber":61,"velocity":55,"programNumber":48},{"time":62666.604000000036,"duration":166.66649999999936,"noteNumber":62,"velocity":55,"programNumber":48},{"time":62888.82600000004,"duration":166.66649999999936,"noteNumber":62,"velocity":55,"programNumber":48},{"time":63111.04800000004,"duration":166.66649999999936,"noteNumber":64,"velocity":55,"programNumber":48},{"time":63333.27000000004,"duration":166.66649999999936,"noteNumber":64,"velocity":55,"programNumber":48},{"time":63555.49200000004,"duration":166.66649999999936,"noteNumber":61,"velocity":55,"programNumber":48},{"time":63777.71400000004,"duration":166.66649999999936,"noteNumber":61,"velocity":55,"programNumber":48},{"time":63999.936000000045,"duration":166.66649999999936,"noteNumber":62,"velocity":55,"programNumber":48},{"time":64222.15800000005,"duration":166.66649999999936,"noteNumber":62,"velocity":55,"programNumber":48},{"time":64444.38000000005,"duration":166.66649999999936,"noteNumber":64,"velocity":55,"programNumber":48},{"time":64666.60200000005,"duration":166.66649999999936,"noteNumber":64,"velocity":55,"programNumber":48},{"time":64888.82400000005,"duration":166.66649999999936,"noteNumber":66,"velocity":55,"programNumber":48},{"time":65111.04600000005,"duration":166.66649999999936,"noteNumber":66,"velocity":55,"programNumber":48},{"time":65333.268000000055,"duration":166.66649999999936,"noteNumber":62,"velocity":55,"programNumber":48},{"time":65555.49000000005,"duration":166.66650000000664,"noteNumber":62,"velocity":55,"programNumber":48},{"time":65777.71200000006,"duration":166.66650000000664,"noteNumber":61,"velocity":55,"programNumber":48},{"time":65999.93400000007,"duration":166.66650000000664,"noteNumber":61,"velocity":55,"programNumber":48},{"time":66222.15600000008,"duration":166.66650000000664,"noteNumber":62,"velocity":55,"programNumber":48},{"time":66444.37800000008,"duration":166.66650000000664,"noteNumber":62,"velocity":55,"programNumber":48},{"time":66666.6000000001,"duration":166.66650000000664,"noteNumber":64,"velocity":55,"programNumber":48},{"time":66888.8220000001,"duration":166.66650000000664,"noteNumber":64,"velocity":55,"programNumber":48},{"time":67111.04400000011,"duration":166.66650000000664,"noteNumber":61,"velocity":55,"programNumber":48},{"time":67333.26600000012,"duration":166.66650000000664,"noteNumber":61,"velocity":55,"programNumber":48},{"time":67555.48800000013,"duration":166.66650000000664,"noteNumber":62,"velocity":55,"programNumber":48},{"time":67777.71000000014,"duration":166.66650000000664,"noteNumber":62,"velocity":55,"programNumber":48},{"time":67999.93200000015,"duration":166.66650000000664,"noteNumber":66,"velocity":55,"programNumber":48},{"time":68222.15400000016,"duration":166.66650000000664,"noteNumber":64,"velocity":55,"programNumber":48},{"time":68444.37600000016,"duration":166.66650000000664,"noteNumber":63,"velocity":55,"programNumber":48},{"time":68666.59800000017,"duration":166.66650000000664,"noteNumber":59,"velocity":55,"programNumber":48},{"time":68888.82000000018,"duration":166.66650000000664,"noteNumber":61,"velocity":55,"programNumber":48},{"time":69111.04200000019,"duration":166.66650000000664,"noteNumber":62,"velocity":55,"programNumber":48},{"time":69333.2640000002,"duration":166.66650000000664,"noteNumber":64,"velocity":85,"programNumber":48},{"time":69555.48600000021,"duration":166.66650000000664,"noteNumber":67,"velocity":85,"programNumber":48},{"time":69777.70800000022,"duration":166.66650000000664,"noteNumber":64,"velocity":85,"programNumber":48},{"time":69999.93000000023,"duration":166.66650000000664,"noteNumber":62,"velocity":85,"programNumber":48},{"time":70222.15200000023,"duration":166.66650000000664,"noteNumber":61,"velocity":85,"programNumber":48},{"time":70444.37400000024,"duration":166.66650000000664,"noteNumber":57,"velocity":55,"programNumber":48},{"time":70666.59600000025,"duration":166.66650000000664,"noteNumber":59,"velocity":85,"programNumber":48},{"time":70888.81800000026,"duration":166.66650000000664,"noteNumber":61,"velocity":85,"programNumber":48},{"time":71111.04000000027,"duration":166.66650000000664,"noteNumber":62,"velocity":85,"programNumber":48},{"time":71333.26200000028,"duration":166.66650000000664,"noteNumber":74,"velocity":85,"programNumber":48},{"time":71555.48400000029,"duration":166.66650000000664,"noteNumber":74,"velocity":85,"programNumber":48},{"time":71777.7060000003,"duration":166.66650000000664,"noteNumber":74,"velocity":85,"programNumber":48},{"time":71999.9280000003,"duration":166.66650000000664,"noteNumber":74,"velocity":85,"programNumber":48},{"time":72222.15000000031,"duration":166.66650000000664,"noteNumber":74,"velocity":85,"programNumber":48},{"time":72444.37200000032,"duration":166.66650000000664,"noteNumber":74,"velocity":85,"programNumber":48},{"time":72666.59400000033,"duration":166.66650000000664,"noteNumber":74,"velocity":85,"programNumber":48},{"time":72888.81600000034,"duration":222.2219999999943,"noteNumber":74,"velocity":85,"programNumber":48},{"time":73111.03800000034,"duration":166.66650000000664,"noteNumber":69,"velocity":85,"programNumber":48},{"time":73333.26000000034,"duration":111.11100000000442,"noteNumber":69,"velocity":85,"programNumber":48},{"time":73555.48200000035,"duration":111.11100000000442,"noteNumber":69,"velocity":85,"programNumber":48},{"time":73777.70400000036,"duration":166.66650000000664,"noteNumber":69,"velocity":85,"programNumber":48},{"time":73999.92600000037,"duration":166.66650000000664,"noteNumber":69,"velocity":85,"programNumber":48},{"time":74222.14800000038,"duration":166.66650000000664,"noteNumber":69,"velocity":85,"programNumber":48},{"time":74444.37000000039,"duration":166.66650000000664,"noteNumber":67,"velocity":85,"programNumber":48},{"time":74666.5920000004,"duration":166.66650000000664,"noteNumber":62,"velocity":85,"programNumber":48},{"time":74888.8140000004,"duration":166.66650000000664,"noteNumber":62,"velocity":53,"programNumber":48},{"time":75111.03600000041,"duration":166.66650000000664,"noteNumber":64,"velocity":53,"programNumber":48},{"time":75333.25800000042,"duration":166.66650000000664,"noteNumber":64,"velocity":53,"programNumber":48},{"time":75555.48000000043,"duration":166.66650000000664,"noteNumber":66,"velocity":53,"programNumber":48},{"time":75777.70200000044,"duration":166.66650000000664,"noteNumber":66,"velocity":53,"programNumber":48},{"time":75999.92400000045,"duration":166.66650000000664,"noteNumber":62,"velocity":53,"programNumber":48},{"time":76222.14600000046,"duration":166.66650000000664,"noteNumber":62,"velocity":53,"programNumber":48},{"time":76444.36800000047,"duration":166.66650000000664,"noteNumber":61,"velocity":55,"programNumber":48},{"time":76666.59000000048,"duration":166.66650000000664,"noteNumber":61,"velocity":55,"programNumber":48},{"time":76888.81200000049,"duration":166.66650000000664,"noteNumber":62,"velocity":55,"programNumber":48},{"time":77111.0340000005,"duration":166.66650000000664,"noteNumber":62,"velocity":55,"programNumber":48},{"time":77333.2560000005,"duration":166.66650000000664,"noteNumber":64,"velocity":55,"programNumber":48},{"time":77555.47800000051,"duration":166.66650000000664,"noteNumber":64,"velocity":55,"programNumber":48},{"time":77777.70000000052,"duration":166.66650000000664,"noteNumber":61,"velocity":55,"programNumber":48},{"time":77999.92200000053,"duration":166.66650000000664,"noteNumber":61,"velocity":55,"programNumber":48},{"time":78222.14400000054,"duration":166.66650000000664,"noteNumber":62,"velocity":55,"programNumber":48},{"time":78444.36600000055,"duration":166.66650000000664,"noteNumber":62,"velocity":55,"programNumber":48},{"time":78666.58800000056,"duration":166.66650000000664,"noteNumber":64,"velocity":55,"programNumber":48},{"time":78888.81000000057,"duration":166.66650000000664,"noteNumber":64,"velocity":55,"programNumber":48},{"time":79111.03200000057,"duration":166.66650000000664,"noteNumber":66,"velocity":55,"programNumber":48},{"time":79333.25400000058,"duration":166.66650000000664,"noteNumber":66,"velocity":55,"programNumber":48},{"time":79555.47600000059,"duration":166.66650000000664,"noteNumber":62,"velocity":55,"programNumber":48},{"time":79777.6980000006,"duration":166.66650000000664,"noteNumber":62,"velocity":55,"programNumber":48},{"time":79999.92000000061,"duration":166.66650000000664,"noteNumber":61,"velocity":55,"programNumber":48},{"time":80222.14200000062,"duration":166.66650000000664,"noteNumber":61,"velocity":55,"programNumber":48},{"time":80444.36400000063,"duration":166.66650000000664,"noteNumber":62,"velocity":55,"programNumber":48},{"time":80666.58600000064,"duration":166.66650000000664,"noteNumber":62,"velocity":55,"programNumber":48},{"time":80888.80800000064,"duration":166.66650000000664,"noteNumber":64,"velocity":55,"programNumber":48},{"time":81111.03000000065,"duration":166.66650000000664,"noteNumber":64,"velocity":55,"programNumber":48},{"time":81333.25200000066,"duration":166.66650000000664,"noteNumber":61,"velocity":55,"programNumber":48},{"time":81555.47400000067,"duration":166.66650000000664,"noteNumber":61,"velocity":55,"programNumber":48},{"time":81777.69600000068,"duration":166.66650000000664,"noteNumber":62,"velocity":55,"programNumber":48},{"time":81999.91800000069,"duration":166.66650000000664,"noteNumber":62,"velocity":85,"programNumber":48},{"time":82222.1400000007,"duration":166.66650000000664,"noteNumber":66,"velocity":85,"programNumber":48},{"time":82444.3620000007,"duration":166.66650000000664,"noteNumber":64,"velocity":85,"programNumber":48},{"time":82666.58400000072,"duration":166.66650000000664,"noteNumber":63,"velocity":85,"programNumber":48},{"time":82888.80600000072,"duration":166.66650000000664,"noteNumber":59,"velocity":85,"programNumber":48},{"time":83111.02800000073,"duration":166.66650000000664,"noteNumber":61,"velocity":85,"programNumber":48},{"time":83333.25000000074,"duration":166.66650000000664,"noteNumber":62,"velocity":85,"programNumber":48},{"time":83555.47200000075,"duration":166.66650000000664,"noteNumber":64,"velocity":85,"programNumber":48},{"time":83777.69400000076,"duration":166.66650000000664,"noteNumber":67,"velocity":85,"programNumber":48},{"time":83999.91600000077,"duration":166.66650000000664,"noteNumber":64,"velocity":85,"programNumber":48},{"time":84222.13800000078,"duration":166.66650000000664,"noteNumber":62,"velocity":85,"programNumber":48},{"time":84444.36000000079,"duration":166.66650000000664,"noteNumber":61,"velocity":85,"programNumber":48},{"time":84666.5820000008,"duration":166.66650000000664,"noteNumber":57,"velocity":85,"programNumber":48},{"time":84888.8040000008,"duration":166.66650000000664,"noteNumber":59,"velocity":85,"programNumber":48},{"time":85111.02600000081,"duration":166.66650000000664,"noteNumber":61,"velocity":85,"programNumber":48},{"time":85333.24800000082,"duration":166.66650000000664,"noteNumber":62,"velocity":85,"programNumber":48},{"time":85555.47000000083,"duration":166.66650000000664,"noteNumber":74,"velocity":85,"programNumber":48},{"time":85777.69200000084,"duration":166.66650000000664,"noteNumber":74,"velocity":85,"programNumber":48},{"time":85999.91400000085,"duration":166.66650000000664,"noteNumber":74,"velocity":85,"programNumber":48},{"time":86222.13600000086,"duration":166.66650000000664,"noteNumber":74,"velocity":85,"programNumber":48},{"time":86444.35800000087,"duration":166.66650000000664,"noteNumber":74,"velocity":85,"programNumber":48},{"time":86666.58000000087,"duration":166.66650000000664,"noteNumber":74,"velocity":85,"programNumber":48},{"time":86888.80200000088,"duration":166.66650000000664,"noteNumber":74,"velocity":85,"programNumber":48},{"time":87111.02400000089,"duration":222.2219999999943,"noteNumber":74,"velocity":85,"programNumber":48},{"time":87333.24600000089,"duration":166.66650000000664,"noteNumber":69,"velocity":85,"programNumber":48},{"time":87555.4680000009,"duration":111.11100000000442,"noteNumber":69,"velocity":85,"programNumber":48},{"time":87777.6900000009,"duration":111.11100000000442,"noteNumber":69,"velocity":85,"programNumber":48},{"time":87999.91200000091,"duration":166.66650000000664,"noteNumber":69,"velocity":85,"programNumber":48},{"time":88222.13400000092,"duration":166.66650000000664,"noteNumber":69,"velocity":85,"programNumber":48},{"time":88444.35600000093,"duration":166.66650000000664,"noteNumber":69,"velocity":85,"programNumber":48},{"time":88666.57800000094,"duration":166.66650000000664,"noteNumber":67,"velocity":85,"programNumber":48},{"time":88888.80000000095,"duration":166.66650000000664,"noteNumber":66,"velocity":85,"programNumber":48},{"time":89111.02200000096,"duration":166.66650000000664,"noteNumber":57,"velocity":85,"programNumber":48},{"time":89333.24400000097,"duration":166.66650000000664,"noteNumber":59,"velocity":85,"programNumber":48},{"time":89555.46600000098,"duration":166.66650000000664,"noteNumber":61,"velocity":85,"programNumber":48},{"time":89777.68800000098,"duration":166.66650000000664,"noteNumber":62,"velocity":85,"programNumber":48},{"time":89999.910000001,"duration":166.66650000000664,"noteNumber":62,"velocity":85,"programNumber":48},{"time":90222.132000001,"duration":166.66650000000664,"noteNumber":64,"velocity":85,"programNumber":48},{"time":90444.35400000101,"duration":166.66650000000664,"noteNumber":64,"velocity":85,"programNumber":48},{"time":90666.57600000102,"duration":166.66650000000664,"noteNumber":66,"velocity":85,"programNumber":48},{"time":90888.79800000103,"duration":166.66650000000664,"noteNumber":61,"velocity":85,"programNumber":48},{"time":91111.02000000104,"duration":166.66650000000664,"noteNumber":62,"velocity":85,"programNumber":48},{"time":91333.24200000105,"duration":166.66650000000664,"noteNumber":64,"velocity":85,"programNumber":48},{"time":91555.46400000105,"duration":166.66650000000664,"noteNumber":66,"velocity":85,"programNumber":48},{"time":91777.68600000106,"duration":166.66650000000664,"noteNumber":66,"velocity":85,"programNumber":48},{"time":91999.90800000107,"duration":166.66650000000664,"noteNumber":67,"velocity":85,"programNumber":48},{"time":92222.13000000108,"duration":166.66650000000664,"noteNumber":67,"velocity":85,"programNumber":48},{"time":92444.35200000109,"duration":166.66650000000664,"noteNumber":69,"velocity":85,"programNumber":48},{"time":92666.5740000011,"duration":166.66650000000664,"noteNumber":69,"velocity":85,"programNumber":48},{"time":92888.79600000111,"duration":166.66650000000664,"noteNumber":70,"velocity":85,"programNumber":48},{"time":93111.01800000112,"duration":166.66650000000664,"noteNumber":70,"velocity":85,"programNumber":48},{"time":93333.24000000113,"duration":444.44400000000314,"noteNumber":71,"velocity":85,"programNumber":48},{"time":94222.12800000113,"duration":1333.3319999999949,"noteNumber":64,"velocity":55,"programNumber":48},{"time":95555.46000000113,"duration":222.2219999999943,"noteNumber":62,"velocity":55,"programNumber":48},{"time":95777.68200000112,"duration":222.2219999999943,"noteNumber":61,"velocity":55,"programNumber":48},{"time":95999.90400000112,"duration":222.2219999999943,"noteNumber":62,"velocity":55,"programNumber":48},{"time":96444.3480000011,"duration":222.2219999999943,"noteNumber":62,"velocity":55,"programNumber":48},{"time":96888.79200000109,"duration":222.2219999999943,"noteNumber":62,"velocity":55,"programNumber":48},{"time":97777.68000000108,"duration":444.44400000000314,"noteNumber":67,"velocity":85,"programNumber":48},{"time":98444.34600000108,"duration":111.11100000000442,"noteNumber":62,"velocity":85,"programNumber":48},{"time":98666.56800000109,"duration":444.44400000000314,"noteNumber":67,"velocity":85,"programNumber":48},{"time":99333.23400000109,"duration":111.11100000000442,"noteNumber":62,"velocity":85,"programNumber":48},{"time":99555.4560000011,"duration":111.11100000000442,"noteNumber":67,"velocity":85,"programNumber":48},{"time":99777.6780000011,"duration":111.11100000000442,"noteNumber":62,"velocity":85,"programNumber":48},{"time":99999.90000000111,"duration":111.11100000000442,"noteNumber":67,"velocity":85,"programNumber":48},{"time":100222.12200000112,"duration":111.11100000000442,"noteNumber":71,"velocity":85,"programNumber":48},{"time":100444.34400000113,"duration":444.44400000000314,"noteNumber":74,"velocity":85,"programNumber":48},{"time":101333.23200000114,"duration":444.44400000000314,"noteNumber":72,"velocity":85,"programNumber":48},{"time":101999.89800000114,"duration":111.11100000000442,"noteNumber":69,"velocity":85,"programNumber":48},{"time":102222.12000000114,"duration":444.44400000000314,"noteNumber":72,"velocity":85,"programNumber":48},{"time":102888.78600000114,"duration":111.11100000000442,"noteNumber":69,"velocity":85,"programNumber":48},{"time":103111.00800000115,"duration":111.11100000000442,"noteNumber":72,"velocity":85,"programNumber":48},{"time":103333.23000000116,"duration":111.11100000000442,"noteNumber":69,"velocity":85,"programNumber":48},{"time":103555.45200000117,"duration":111.11100000000442,"noteNumber":66,"velocity":85,"programNumber":48},{"time":103777.67400000118,"duration":111.11100000000442,"noteNumber":69,"velocity":85,"programNumber":48},{"time":103999.89600000119,"duration":444.44400000000314,"noteNumber":62,"velocity":85,"programNumber":48},{"time":104888.7840000012,"duration":166.66650000000664,"noteNumber":67,"velocity":85,"programNumber":48},{"time":105111.0060000012,"duration":166.66650000000664,"noteNumber":67,"velocity":85,"programNumber":48},{"time":105333.22800000121,"duration":166.66650000000664,"noteNumber":67,"velocity":85,"programNumber":48},{"time":105555.45000000122,"duration":166.66650000000664,"noteNumber":67,"velocity":85,"programNumber":48},{"time":105777.67200000123,"duration":166.66650000000664,"noteNumber":67,"velocity":85,"programNumber":48},{"time":105999.89400000124,"duration":166.66650000000664,"noteNumber":67,"velocity":85,"programNumber":48},{"time":106222.11600000125,"duration":166.66650000000664,"noteNumber":67,"velocity":85,"programNumber":48},{"time":106444.33800000125,"duration":166.66650000000664,"noteNumber":67,"velocity":85,"programNumber":48},{"time":106666.56000000126,"duration":166.66650000000664,"noteNumber":69,"velocity":85,"programNumber":48},{"time":106888.78200000127,"duration":166.66650000000664,"noteNumber":69,"velocity":85,"programNumber":48},{"time":107111.00400000128,"duration":166.66650000000664,"noteNumber":69,"velocity":85,"programNumber":48},{"time":107333.22600000129,"duration":166.66650000000664,"noteNumber":69,"velocity":85,"programNumber":48},{"time":107555.4480000013,"duration":222.2219999999943,"noteNumber":69,"velocity":85,"programNumber":48},{"time":107777.6700000013,"duration":166.66650000000664,"noteNumber":72,"velocity":85,"programNumber":48},{"time":107999.8920000013,"duration":222.2219999999943,"noteNumber":66,"velocity":85,"programNumber":48},{"time":108222.1140000013,"duration":166.66650000000664,"noteNumber":69,"velocity":85,"programNumber":48},{"time":108444.3360000013,"duration":166.66650000000664,"noteNumber":67,"velocity":85,"programNumber":48},{"time":108666.55800000131,"duration":166.66650000000664,"noteNumber":67,"velocity":85,"programNumber":48},{"time":108888.78000000132,"duration":166.66650000000664,"noteNumber":67,"velocity":85,"programNumber":48},{"time":109111.00200000133,"duration":166.66650000000664,"noteNumber":67,"velocity":85,"programNumber":48},{"time":109333.22400000134,"duration":166.66650000000664,"noteNumber":67,"velocity":85,"programNumber":48},{"time":109555.44600000135,"duration":166.66650000000664,"noteNumber":67,"velocity":85,"programNumber":48},{"time":109777.66800000136,"duration":166.66650000000664,"noteNumber":67,"velocity":85,"programNumber":48},{"time":109999.89000000137,"duration":166.66650000000664,"noteNumber":67,"velocity":85,"programNumber":48},{"time":110222.11200000138,"duration":166.66650000000664,"noteNumber":69,"velocity":85,"programNumber":48},{"time":110444.33400000138,"duration":166.66650000000664,"noteNumber":69,"velocity":85,"programNumber":48},{"time":110666.5560000014,"duration":166.66650000000664,"noteNumber":69,"velocity":85,"programNumber":48},{"time":110888.7780000014,"duration":166.66650000000664,"noteNumber":69,"velocity":85,"programNumber":48},{"time":111111.00000000141,"duration":222.2219999999943,"noteNumber":69,"velocity":85,"programNumber":48},{"time":111333.2220000014,"duration":166.66650000000664,"noteNumber":72,"velocity":85,"programNumber":48},{"time":111555.44400000141,"duration":222.2219999999943,"noteNumber":66,"velocity":85,"programNumber":48},{"time":111777.66600000141,"duration":166.66650000000664,"noteNumber":69,"velocity":85,"programNumber":48},{"time":111999.88800000142,"duration":74.07399999999325,"noteNumber":62,"velocity":85,"programNumber":48},{"time":112110.99900000141,"duration":74.07399999999325,"noteNumber":62,"velocity":85,"programNumber":48},{"time":112222.1100000014,"duration":74.07399999999325,"noteNumber":62,"velocity":85,"programNumber":48},{"time":112333.22100000139,"duration":74.07399999999325,"noteNumber":62,"velocity":85,"programNumber":48},{"time":112444.33200000138,"duration":74.07399999999325,"noteNumber":62,"velocity":85,"programNumber":48},{"time":112555.44300000137,"duration":74.07399999999325,"noteNumber":62,"velocity":85,"programNumber":48},{"time":112666.55400000136,"duration":74.07399999999325,"noteNumber":62,"velocity":85,"programNumber":48},{"time":112777.66500000135,"duration":74.07399999999325,"noteNumber":62,"velocity":85,"programNumber":48},{"time":112888.77600000134,"duration":74.07399999999325,"noteNumber":62,"velocity":85,"programNumber":48},{"time":112999.88700000133,"duration":74.07399999999325,"noteNumber":62,"velocity":85,"programNumber":48},{"time":113110.99800000132,"duration":74.07399999999325,"noteNumber":62,"velocity":85,"programNumber":48},{"time":113222.1090000013,"duration":74.07399999999325,"noteNumber":62,"velocity":85,"programNumber":48},{"time":113333.2200000013,"duration":74.07399999999325,"noteNumber":62,"velocity":85,"programNumber":48},{"time":113444.33100000129,"duration":74.07399999999325,"noteNumber":62,"velocity":85,"programNumber":48},{"time":113555.44200000128,"duration":74.07399999999325,"noteNumber":62,"velocity":85,"programNumber":48},{"time":113666.55300000127,"duration":74.07399999999325,"noteNumber":62,"velocity":85,"programNumber":48},{"time":113777.66400000126,"duration":74.07399999999325,"noteNumber":62,"velocity":85,"programNumber":48},{"time":113888.77500000125,"duration":74.07399999999325,"noteNumber":62,"velocity":85,"programNumber":48},{"time":113999.88600000124,"duration":74.07399999999325,"noteNumber":62,"velocity":85,"programNumber":48},{"time":114110.99700000123,"duration":74.07399999999325,"noteNumber":62,"velocity":85,"programNumber":48},{"time":114222.10800000122,"duration":74.07399999999325,"noteNumber":62,"velocity":85,"programNumber":48},{"time":114333.2190000012,"duration":74.07399999999325,"noteNumber":62,"velocity":85,"programNumber":48},{"time":114444.3300000012,"duration":74.07399999999325,"noteNumber":62,"velocity":85,"programNumber":48},{"time":114555.44100000118,"duration":74.07399999999325,"noteNumber":62,"velocity":85,"programNumber":48},{"time":114666.55200000117,"duration":444.44400000000314,"noteNumber":62,"velocity":85,"programNumber":48},{"time":117333.21600000118,"duration":888.8880000000063,"noteNumber":54,"velocity":47,"programNumber":48},{"time":118222.10400000119,"duration":888.8880000000063,"noteNumber":55,"velocity":47,"programNumber":48},{"time":119110.99200000119,"duration":333.3329999999987,"noteNumber":60,"velocity":47,"programNumber":48},{"time":119555.4360000012,"duration":333.3329999999987,"noteNumber":60,"velocity":47,"programNumber":48},{"time":119999.8800000012,"duration":333.3329999999987,"noteNumber":57,"velocity":47,"programNumber":48},{"time":120444.3240000012,"duration":333.3329999999987,"noteNumber":50,"velocity":47,"programNumber":48},{"time":120888.7680000012,"duration":222.2219999999943,"noteNumber":50,"velocity":47,"programNumber":48},{"time":121333.2120000012,"duration":222.2219999999943,"noteNumber":62,"velocity":47,"programNumber":48},{"time":121777.65600000118,"duration":444.44400000000314,"noteNumber":62,"velocity":47,"programNumber":48},{"time":124444.32000000119,"duration":888.8880000000063,"noteNumber":66,"velocity":47,"programNumber":48},{"time":125333.20800000119,"duration":888.8880000000063,"noteNumber":67,"velocity":47,"programNumber":48},{"time":126222.0960000012,"duration":333.3329999999987,"noteNumber":60,"velocity":47,"programNumber":48},{"time":126666.5400000012,"duration":166.66650000000664,"noteNumber":60,"velocity":47,"programNumber":48},{"time":126888.76200000121,"duration":166.66650000000664,"noteNumber":60,"velocity":47,"programNumber":48},{"time":127110.98400000122,"duration":333.3329999999987,"noteNumber":57,"velocity":47,"programNumber":48},{"time":127555.42800000122,"duration":166.66650000000664,"noteNumber":57,"velocity":47,"programNumber":48},{"time":127777.65000000123,"duration":166.66650000000664,"noteNumber":57,"velocity":47,"programNumber":48},{"time":127999.87200000124,"duration":166.66650000000664,"noteNumber":55,"velocity":92,"programNumber":48},{"time":128222.09400000125,"duration":166.66650000000664,"noteNumber":55,"velocity":71,"programNumber":48},{"time":128444.31600000126,"duration":166.66650000000664,"noteNumber":55,"velocity":71,"programNumber":48},{"time":128666.53800000127,"duration":166.66650000000664,"noteNumber":55,"velocity":71,"programNumber":48},{"time":128888.76000000128,"duration":166.66650000000664,"noteNumber":55,"velocity":55,"programNumber":48},{"time":129110.98200000128,"duration":166.66650000000664,"noteNumber":55,"velocity":50,"programNumber":48},{"time":129333.2040000013,"duration":166.66650000000664,"noteNumber":55,"velocity":50,"programNumber":48},{"time":129555.4260000013,"duration":166.66650000000664,"noteNumber":55,"velocity":50,"programNumber":48},{"time":129777.64800000131,"duration":166.66650000000664,"noteNumber":55,"velocity":91,"programNumber":48},{"time":129999.87000000132,"duration":166.66650000000664,"noteNumber":55,"velocity":65,"programNumber":48},{"time":130222.09200000133,"duration":166.66650000000664,"noteNumber":55,"velocity":65,"programNumber":48},{"time":130444.31400000134,"duration":166.66650000000664,"noteNumber":55,"velocity":65,"programNumber":48},{"time":130666.53600000135,"duration":166.66650000000664,"noteNumber":55,"velocity":46,"programNumber":48},{"time":130888.75800000135,"duration":166.66650000000664,"noteNumber":55,"velocity":46,"programNumber":48},{"time":131110.98000000135,"duration":166.66649999999208,"noteNumber":55,"velocity":46,"programNumber":48},{"time":131333.20200000133,"duration":166.66649999999208,"noteNumber":55,"velocity":46,"programNumber":48},{"time":131555.4240000013,"duration":166.66649999999208,"noteNumber":55,"velocity":59,"programNumber":48},{"time":131777.6460000013,"duration":166.66649999999208,"noteNumber":67,"velocity":41,"programNumber":48},{"time":131999.86800000127,"duration":166.66649999999208,"noteNumber":67,"velocity":46,"programNumber":48},{"time":132222.09000000125,"duration":166.66649999999208,"noteNumber":67,"velocity":49,"programNumber":48},{"time":132444.31200000123,"duration":166.66649999999208,"noteNumber":67,"velocity":53,"programNumber":48},{"time":132666.5340000012,"duration":166.66649999999208,"noteNumber":67,"velocity":56,"programNumber":48},{"time":132888.7560000012,"duration":166.66649999999208,"noteNumber":69,"velocity":61,"programNumber":48},{"time":133110.97800000117,"duration":166.66649999999208,"noteNumber":69,"velocity":64,"programNumber":48},{"time":133333.20000000115,"duration":166.66649999999208,"noteNumber":67,"velocity":68,"programNumber":48},{"time":133555.42200000113,"duration":166.66649999999208,"noteNumber":67,"velocity":71,"programNumber":48},{"time":133777.6440000011,"duration":166.66649999999208,"noteNumber":66,"velocity":76,"programNumber":48},{"time":133999.8660000011,"duration":166.66649999999208,"noteNumber":66,"velocity":79,"programNumber":48},{"time":134222.08800000107,"duration":166.66649999999208,"noteNumber":67,"velocity":82,"programNumber":48},{"time":134444.31000000105,"duration":166.66649999999208,"noteNumber":67,"velocity":82,"programNumber":48},{"time":134666.53200000103,"duration":166.66649999999208,"noteNumber":64,"velocity":82,"programNumber":48},{"time":134888.754000001,"duration":166.66649999999208,"noteNumber":64,"velocity":82,"programNumber":48},{"time":135110.97600000098,"duration":74.07399999999325,"noteNumber":62,"velocity":85,"programNumber":48},{"time":135110.97600000098,"duration":74.07399999999325,"noteNumber":69,"velocity":85,"programNumber":48},{"time":135222.087000001,"duration":74.07399999999325,"noteNumber":62,"velocity":85,"programNumber":48},{"time":135222.087000001,"duration":74.07399999999325,"noteNumber":69,"velocity":85,"programNumber":48},{"time":135333.198000001,"duration":74.07399999999325,"noteNumber":62,"velocity":85,"programNumber":48},{"time":135333.198000001,"duration":74.07399999999325,"noteNumber":69,"velocity":85,"programNumber":48},{"time":135444.309000001,"duration":74.07399999999325,"noteNumber":62,"velocity":85,"programNumber":48},{"time":135444.309000001,"duration":74.07399999999325,"noteNumber":69,"velocity":85,"programNumber":48},{"time":135555.420000001,"duration":74.07399999999325,"noteNumber":62,"velocity":85,"programNumber":48},{"time":135555.420000001,"duration":74.07399999999325,"noteNumber":69,"velocity":85,"programNumber":48},{"time":135666.531000001,"duration":74.07399999999325,"noteNumber":62,"velocity":85,"programNumber":48},{"time":135666.531000001,"duration":74.07399999999325,"noteNumber":69,"velocity":85,"programNumber":48},{"time":135777.642000001,"duration":74.07399999999325,"noteNumber":62,"velocity":85,"programNumber":48},{"time":135777.642000001,"duration":74.07399999999325,"noteNumber":69,"velocity":85,"programNumber":48},{"time":135888.75300000102,"duration":74.07399999999325,"noteNumber":62,"velocity":85,"programNumber":48},{"time":135888.75300000102,"duration":74.07399999999325,"noteNumber":69,"velocity":85,"programNumber":48},{"time":135999.86400000102,"duration":74.07399999999325,"noteNumber":64,"velocity":85,"programNumber":48},{"time":135999.86400000102,"duration":74.07399999999325,"noteNumber":69,"velocity":85,"programNumber":48},{"time":136110.97500000102,"duration":74.07399999999325,"noteNumber":64,"velocity":85,"programNumber":48},{"time":136110.97500000102,"duration":74.07399999999325,"noteNumber":69,"velocity":85,"programNumber":48},{"time":136222.08600000103,"duration":74.07399999999325,"noteNumber":64,"velocity":85,"programNumber":48},{"time":136222.08600000103,"duration":74.07399999999325,"noteNumber":69,"velocity":85,"programNumber":48},{"time":136333.19700000103,"duration":74.07399999999325,"noteNumber":64,"velocity":85,"programNumber":48},{"time":136333.19700000103,"duration":74.07399999999325,"noteNumber":69,"velocity":85,"programNumber":48},{"time":136444.30800000104,"duration":74.07399999999325,"noteNumber":64,"velocity":85,"programNumber":48},{"time":136444.30800000104,"duration":74.07399999999325,"noteNumber":69,"velocity":85,"programNumber":48},{"time":136555.41900000104,"duration":74.07399999999325,"noteNumber":64,"velocity":85,"programNumber":48},{"time":136555.41900000104,"duration":74.07399999999325,"noteNumber":69,"velocity":85,"programNumber":48},{"time":136666.53000000105,"duration":74.07399999999325,"noteNumber":64,"velocity":85,"programNumber":48},{"time":136666.53000000105,"duration":74.07399999999325,"noteNumber":69,"velocity":85,"programNumber":48},{"time":136777.64100000105,"duration":74.07399999999325,"noteNumber":64,"velocity":85,"programNumber":48},{"time":136777.64100000105,"duration":74.07399999999325,"noteNumber":69,"velocity":85,"programNumber":48},{"time":136888.75200000106,"duration":74.07399999999325,"noteNumber":62,"velocity":85,"programNumber":48},{"time":136888.75200000106,"duration":74.07399999999325,"noteNumber":69,"velocity":85,"programNumber":48},{"time":136999.86300000106,"duration":74.07399999999325,"noteNumber":62,"velocity":85,"programNumber":48},{"time":136999.86300000106,"duration":74.07399999999325,"noteNumber":69,"velocity":85,"programNumber":48},{"time":137110.97400000106,"duration":74.07399999999325,"noteNumber":62,"velocity":85,"programNumber":48},{"time":137110.97400000106,"duration":74.07399999999325,"noteNumber":69,"velocity":85,"programNumber":48},{"time":137222.08500000107,"duration":74.07399999999325,"noteNumber":62,"velocity":85,"programNumber":48},{"time":137222.08500000107,"duration":74.07399999999325,"noteNumber":69,"velocity":85,"programNumber":48},{"time":137333.19600000107,"duration":74.07399999999325,"noteNumber":62,"velocity":85,"programNumber":48},{"time":137333.19600000107,"duration":74.07399999999325,"noteNumber":69,"velocity":85,"programNumber":48},{"time":137444.30700000108,"duration":74.07399999999325,"noteNumber":62,"velocity":85,"programNumber":48},{"time":137444.30700000108,"duration":74.07399999999325,"noteNumber":69,"velocity":85,"programNumber":48},{"time":137555.41800000108,"duration":74.07399999999325,"noteNumber":62,"velocity":85,"programNumber":48},{"time":137555.41800000108,"duration":74.07399999999325,"noteNumber":69,"velocity":85,"programNumber":48},{"time":137666.5290000011,"duration":74.07399999999325,"noteNumber":62,"velocity":85,"programNumber":48},{"time":137666.5290000011,"duration":74.07399999999325,"noteNumber":69,"velocity":85,"programNumber":48},{"time":137777.6400000011,"duration":74.07399999999325,"noteNumber":64,"velocity":85,"programNumber":48},{"time":137777.6400000011,"duration":74.07399999999325,"noteNumber":69,"velocity":85,"programNumber":48},{"time":137888.7510000011,"duration":74.07399999999325,"noteNumber":64,"velocity":85,"programNumber":48},{"time":137888.7510000011,"duration":74.07399999999325,"noteNumber":69,"velocity":85,"programNumber":48},{"time":137999.8620000011,"duration":74.07399999999325,"noteNumber":64,"velocity":85,"programNumber":48},{"time":137999.8620000011,"duration":74.07399999999325,"noteNumber":69,"velocity":85,"programNumber":48},{"time":138110.9730000011,"duration":74.07399999999325,"noteNumber":64,"velocity":85,"programNumber":48},{"time":138110.9730000011,"duration":74.07399999999325,"noteNumber":69,"velocity":85,"programNumber":48},{"time":138222.0840000011,"duration":74.07399999999325,"noteNumber":64,"velocity":85,"programNumber":48},{"time":138222.0840000011,"duration":74.07399999999325,"noteNumber":69,"velocity":85,"programNumber":48},{"time":138333.1950000011,"duration":74.07399999999325,"noteNumber":64,"velocity":85,"programNumber":48},{"time":138333.1950000011,"duration":74.07399999999325,"noteNumber":69,"velocity":85,"programNumber":48},{"time":138444.30600000112,"duration":74.07399999999325,"noteNumber":64,"velocity":85,"programNumber":48},{"time":138444.30600000112,"duration":74.07399999999325,"noteNumber":69,"velocity":85,"programNumber":48},{"time":138555.41700000112,"duration":74.07399999999325,"noteNumber":64,"velocity":85,"programNumber":48},{"time":138555.41700000112,"duration":74.07399999999325,"noteNumber":69,"velocity":85,"programNumber":48},{"time":138666.52800000113,"duration":166.66649999999208,"noteNumber":62,"velocity":85,"programNumber":48},{"time":138888.7500000011,"duration":166.66649999999208,"noteNumber":64,"velocity":85,"programNumber":48},{"time":139110.9720000011,"duration":166.66649999999208,"noteNumber":66,"velocity":85,"programNumber":48},{"time":139333.19400000107,"duration":166.66649999999208,"noteNumber":64,"velocity":85,"programNumber":48},{"time":139555.41600000105,"duration":166.66649999999208,"noteNumber":62,"velocity":85,"programNumber":48},{"time":139777.63800000102,"duration":166.66649999999208,"noteNumber":64,"velocity":85,"programNumber":48},{"time":139999.860000001,"duration":166.66649999999208,"noteNumber":66,"velocity":85,"programNumber":48},{"time":140222.08200000098,"duration":166.66649999999208,"noteNumber":62,"velocity":85,"programNumber":48},{"time":140444.30400000096,"duration":166.66649999999208,"noteNumber":71,"velocity":85,"programNumber":48},{"time":140666.52600000094,"duration":166.66649999999208,"noteNumber":69,"velocity":85,"programNumber":48},{"time":140888.74800000092,"duration":166.66649999999208,"noteNumber":67,"velocity":85,"programNumber":48},{"time":141110.9700000009,"duration":166.66649999999208,"noteNumber":69,"velocity":85,"programNumber":48},{"time":141333.19200000088,"duration":166.66649999999208,"noteNumber":71,"velocity":85,"programNumber":48},{"time":141555.41400000086,"duration":166.66649999999208,"noteNumber":69,"velocity":85,"programNumber":48},{"time":141777.63600000084,"duration":166.66649999999208,"noteNumber":68,"velocity":85,"programNumber":48},{"time":141999.85800000082,"duration":166.66649999999208,"noteNumber":71,"velocity":85,"programNumber":48},{"time":142222.0800000008,"duration":166.66649999999208,"noteNumber":69,"velocity":85,"programNumber":48},{"time":142444.30200000078,"duration":166.66649999999208,"noteNumber":69,"velocity":85,"programNumber":48},{"time":142666.52400000076,"duration":166.66649999999208,"noteNumber":69,"velocity":85,"programNumber":48},{"time":142888.74600000074,"duration":166.66649999999208,"noteNumber":69,"velocity":85,"programNumber":48},{"time":143110.96800000072,"duration":166.66649999999208,"noteNumber":69,"velocity":85,"programNumber":48},{"time":143333.1900000007,"duration":166.66649999999208,"noteNumber":69,"velocity":85,"programNumber":48},{"time":143555.41200000068,"duration":166.66649999999208,"noteNumber":69,"velocity":85,"programNumber":48},{"time":143777.63400000066,"duration":166.66649999999208,"noteNumber":69,"velocity":85,"programNumber":48},{"time":143999.85600000064,"duration":166.66649999999208,"noteNumber":69,"velocity":85,"programNumber":48},{"time":144222.07800000062,"duration":166.66649999999208,"noteNumber":57,"velocity":85,"programNumber":48},{"time":144444.3000000006,"duration":166.66649999999208,"noteNumber":57,"velocity":85,"programNumber":48},{"time":144666.52200000058,"duration":166.66649999999208,"noteNumber":57,"velocity":85,"programNumber":48},{"time":144888.74400000056,"duration":444.4439999999886,"noteNumber":57,"velocity":85,"programNumber":48},{"time":147110.96400000056,"duration":222.22200000000885,"noteNumber":66,"velocity":55,"programNumber":48},{"time":147555.40800000058,"duration":222.22200000000885,"noteNumber":59,"velocity":55,"programNumber":48},{"time":147999.8520000006,"duration":222.22200000000885,"noteNumber":67,"velocity":55,"programNumber":48},{"time":148444.2960000006,"duration":222.22200000000885,"noteNumber":64,"velocity":55,"programNumber":48},{"time":148888.74000000063,"duration":222.22200000000885,"noteNumber":61,"velocity":55,"programNumber":48},{"time":149777.62800000064,"duration":444.4439999999886,"noteNumber":64,"velocity":55,"programNumber":48},{"time":150222.07200000063,"duration":222.22200000000885,"noteNumber":62,"velocity":55,"programNumber":48},{"time":150666.51600000064,"duration":222.22200000000885,"noteNumber":64,"velocity":55,"programNumber":48},{"time":151110.96000000066,"duration":888.8880000000063,"noteNumber":62,"velocity":55,"programNumber":48},{"time":151999.84800000067,"duration":444.4439999999886,"noteNumber":61,"velocity":55,"programNumber":48},{"time":153333.18000000066,"duration":444.4439999999886,"noteNumber":61,"velocity":55,"programNumber":48},{"time":153777.62400000065,"duration":222.22200000000885,"noteNumber":62,"velocity":55,"programNumber":48},{"time":154222.06800000067,"duration":222.22200000000885,"noteNumber":66,"velocity":55,"programNumber":48},{"time":154666.5120000007,"duration":222.22200000000885,"noteNumber":59,"velocity":55,"programNumber":48},{"time":155110.9560000007,"duration":222.22200000000885,"noteNumber":55,"velocity":55,"programNumber":48},{"time":155555.40000000072,"duration":444.4439999999886,"noteNumber":52,"velocity":55,"programNumber":48},{"time":156222.06600000072,"duration":166.66649999999208,"noteNumber":64,"velocity":55,"programNumber":48},{"time":156444.2880000007,"duration":222.22200000000885,"noteNumber":64,"velocity":55,"programNumber":48},{"time":156666.5100000007,"duration":222.22200000000885,"noteNumber":62,"velocity":55,"programNumber":48},{"time":158222.0640000007,"duration":166.66649999999208,"noteNumber":62,"velocity":55,"programNumber":48},{"time":158444.2860000007,"duration":166.66649999999208,"noteNumber":62,"velocity":55,"programNumber":48},{"time":158666.50800000067,"duration":166.66649999999208,"noteNumber":64,"velocity":55,"programNumber":48},{"time":158888.73000000065,"duration":166.66649999999208,"noteNumber":64,"velocity":55,"programNumber":48},{"time":159110.95200000063,"duration":166.66649999999208,"noteNumber":66,"velocity":55,"programNumber":48},{"time":159333.1740000006,"duration":166.66649999999208,"noteNumber":66,"velocity":55,"programNumber":48},{"time":159555.3960000006,"duration":166.66649999999208,"noteNumber":62,"velocity":55,"programNumber":48},{"time":159777.61800000057,"duration":166.66649999999208,"noteNumber":62,"velocity":55,"programNumber":48},{"time":159999.84000000055,"duration":166.66649999999208,"noteNumber":61,"velocity":55,"programNumber":48},{"time":160222.06200000053,"duration":166.66649999999208,"noteNumber":61,"velocity":55,"programNumber":48},{"time":160444.2840000005,"duration":166.66649999999208,"noteNumber":62,"velocity":55,"programNumber":48},{"time":160666.5060000005,"duration":166.66649999999208,"noteNumber":62,"velocity":55,"programNumber":48},{"time":160888.72800000047,"duration":166.66649999999208,"noteNumber":64,"velocity":55,"programNumber":48},{"time":161110.95000000045,"duration":166.66649999999208,"noteNumber":64,"velocity":55,"programNumber":48},{"time":161333.17200000043,"duration":166.66649999999208,"noteNumber":61,"velocity":55,"programNumber":48},{"time":161555.3940000004,"duration":166.66649999999208,"noteNumber":61,"velocity":55,"programNumber":48},{"time":161777.6160000004,"duration":166.66649999999208,"noteNumber":62,"velocity":55,"programNumber":48},{"time":161999.83800000037,"duration":166.66649999999208,"noteNumber":62,"velocity":55,"programNumber":48},{"time":162222.06000000035,"duration":166.66649999999208,"noteNumber":64,"velocity":55,"programNumber":48},{"time":162444.28200000033,"duration":166.66649999999208,"noteNumber":64,"velocity":55,"programNumber":48},{"time":162666.5040000003,"duration":166.66649999999208,"noteNumber":66,"velocity":55,"programNumber":48},{"time":162888.7260000003,"duration":166.66649999999208,"noteNumber":66,"velocity":55,"programNumber":48},{"time":163110.94800000027,"duration":166.66649999999208,"noteNumber":62,"velocity":55,"programNumber":48},{"time":163333.17000000025,"duration":166.66649999999208,"noteNumber":62,"velocity":55,"programNumber":48},{"time":163555.39200000023,"duration":166.66649999999208,"noteNumber":61,"velocity":55,"programNumber":48},{"time":163777.6140000002,"duration":166.66649999999208,"noteNumber":61,"velocity":55,"programNumber":48},{"time":163999.83600000018,"duration":166.66649999999208,"noteNumber":62,"velocity":55,"programNumber":48},{"time":164222.05800000016,"duration":166.66649999999208,"noteNumber":62,"velocity":55,"programNumber":48},{"time":164444.28000000014,"duration":166.66649999999208,"noteNumber":64,"velocity":55,"programNumber":48},{"time":164666.50200000012,"duration":166.66649999999208,"noteNumber":64,"velocity":55,"programNumber":48},{"time":164888.7240000001,"duration":166.66649999999208,"noteNumber":61,"velocity":55,"programNumber":48},{"time":165110.94600000008,"duration":166.66649999999208,"noteNumber":61,"velocity":55,"programNumber":48},{"time":165333.16800000006,"duration":166.66649999999208,"noteNumber":62,"velocity":55,"programNumber":48},{"time":165555.39000000004,"duration":166.66649999999208,"noteNumber":62,"velocity":55,"programNumber":48},{"time":165777.61200000002,"duration":166.66649999999208,"noteNumber":66,"velocity":55,"programNumber":48},{"time":165999.834,"duration":166.66649999999208,"noteNumber":64,"velocity":55,"programNumber":48},{"time":166222.05599999998,"duration":166.66649999999208,"noteNumber":63,"velocity":55,"programNumber":48},{"time":166444.27799999996,"duration":166.66649999999208,"noteNumber":59,"velocity":55,"programNumber":48},{"time":166666.49999999994,"duration":166.66649999999208,"noteNumber":61,"velocity":55,"programNumber":48},{"time":166888.72199999992,"duration":166.66649999999208,"noteNumber":62,"velocity":55,"programNumber":48},{"time":167110.9439999999,"duration":166.66649999999208,"noteNumber":64,"velocity":85,"programNumber":48},{"time":167333.16599999988,"duration":166.66649999999208,"noteNumber":67,"velocity":85,"programNumber":48},{"time":167555.38799999986,"duration":166.66649999999208,"noteNumber":64,"velocity":85,"programNumber":48},{"time":167777.60999999984,"duration":166.66649999999208,"noteNumber":62,"velocity":85,"programNumber":48},{"time":167999.83199999982,"duration":166.66649999999208,"noteNumber":61,"velocity":85,"programNumber":48},{"time":168222.0539999998,"duration":166.66649999999208,"noteNumber":57,"velocity":55,"programNumber":48},{"time":168444.27599999978,"duration":166.66649999999208,"noteNumber":59,"velocity":85,"programNumber":48},{"time":168666.49799999976,"duration":166.66649999999208,"noteNumber":61,"velocity":85,"programNumber":48},{"time":168888.71999999974,"duration":166.66649999999208,"noteNumber":62,"velocity":85,"programNumber":48},{"time":169110.94199999972,"duration":166.66649999999208,"noteNumber":74,"velocity":85,"programNumber":48},{"time":169333.1639999997,"duration":166.66649999999208,"noteNumber":74,"velocity":85,"programNumber":48},{"time":169555.38599999968,"duration":166.66649999999208,"noteNumber":74,"velocity":85,"programNumber":48},{"time":169777.60799999966,"duration":166.66649999999208,"noteNumber":74,"velocity":85,"programNumber":48},{"time":169999.82999999964,"duration":166.66649999999208,"noteNumber":74,"velocity":85,"programNumber":48},{"time":170222.05199999962,"duration":166.66649999999208,"noteNumber":74,"velocity":85,"programNumber":48},{"time":170444.2739999996,"duration":166.66649999999208,"noteNumber":74,"velocity":85,"programNumber":48},{"time":170666.49599999958,"duration":222.22200000000885,"noteNumber":74,"velocity":85,"programNumber":48},{"time":170888.7179999996,"duration":166.66649999999208,"noteNumber":69,"velocity":85,"programNumber":48},{"time":171110.93999999957,"duration":111.11100000000442,"noteNumber":69,"velocity":85,"programNumber":48},{"time":171333.16199999957,"duration":111.11100000000442,"noteNumber":69,"velocity":85,"programNumber":48},{"time":171555.38399999958,"duration":166.66649999999208,"noteNumber":69,"velocity":85,"programNumber":48},{"time":171777.60599999956,"duration":166.66649999999208,"noteNumber":69,"velocity":85,"programNumber":48},{"time":171999.82799999954,"duration":166.66649999999208,"noteNumber":69,"velocity":85,"programNumber":48},{"time":172222.04999999952,"duration":166.66649999999208,"noteNumber":67,"velocity":85,"programNumber":48},{"time":172444.2719999995,"duration":166.66649999999208,"noteNumber":62,"velocity":85,"programNumber":48},{"time":172666.49399999948,"duration":166.66649999999208,"noteNumber":62,"velocity":53,"programNumber":48},{"time":172888.71599999946,"duration":166.66649999999208,"noteNumber":64,"velocity":53,"programNumber":48},{"time":173110.93799999944,"duration":166.66649999999208,"noteNumber":64,"velocity":53,"programNumber":48},{"time":173333.15999999942,"duration":166.66649999999208,"noteNumber":66,"velocity":53,"programNumber":48},{"time":173555.3819999994,"duration":166.66649999999208,"noteNumber":66,"velocity":53,"programNumber":48},{"time":173777.60399999938,"duration":166.66649999999208,"noteNumber":62,"velocity":53,"programNumber":48},{"time":173999.82599999936,"duration":166.66649999999208,"noteNumber":62,"velocity":53,"programNumber":48},{"time":174222.04799999934,"duration":166.66649999999208,"noteNumber":61,"velocity":55,"programNumber":48},{"time":174444.26999999932,"duration":166.66649999999208,"noteNumber":61,"velocity":55,"programNumber":48},{"time":174666.4919999993,"duration":166.66649999999208,"noteNumber":62,"velocity":55,"programNumber":48},{"time":174888.71399999928,"duration":166.66649999999208,"noteNumber":62,"velocity":55,"programNumber":48},{"time":175110.93599999926,"duration":166.66649999999208,"noteNumber":64,"velocity":55,"programNumber":48},{"time":175333.15799999924,"duration":166.66649999999208,"noteNumber":64,"velocity":55,"programNumber":48},{"time":175555.37999999922,"duration":166.66649999999208,"noteNumber":61,"velocity":55,"programNumber":48},{"time":175777.6019999992,"duration":166.66649999999208,"noteNumber":61,"velocity":55,"programNumber":48},{"time":175999.82399999918,"duration":166.66649999999208,"noteNumber":62,"velocity":55,"programNumber":48},{"time":176222.04599999916,"duration":166.66649999999208,"noteNumber":62,"velocity":55,"programNumber":48},{"time":176444.26799999914,"duration":166.66649999999208,"noteNumber":64,"velocity":55,"programNumber":48},{"time":176666.48999999912,"duration":166.66649999999208,"noteNumber":64,"velocity":55,"programNumber":48},{"time":176888.7119999991,"duration":166.66649999999208,"noteNumber":66,"velocity":55,"programNumber":48},{"time":177110.93399999908,"duration":166.66649999999208,"noteNumber":66,"velocity":55,"programNumber":48},{"time":177333.15599999906,"duration":166.66649999999208,"noteNumber":62,"velocity":55,"programNumber":48},{"time":177555.37799999904,"duration":166.66649999999208,"noteNumber":62,"velocity":55,"programNumber":48},{"time":177777.59999999902,"duration":166.66649999999208,"noteNumber":61,"velocity":55,"programNumber":48},{"time":177999.821999999,"duration":166.66649999999208,"noteNumber":61,"velocity":55,"programNumber":48},{"time":178222.04399999898,"duration":166.66649999999208,"noteNumber":62,"velocity":55,"programNumber":48},{"time":178444.26599999896,"duration":166.66649999999208,"noteNumber":62,"velocity":55,"programNumber":48},{"time":178666.48799999894,"duration":166.66649999999208,"noteNumber":64,"velocity":55,"programNumber":48},{"time":178888.70999999892,"duration":166.66649999999208,"noteNumber":64,"velocity":55,"programNumber":48},{"time":179110.9319999989,"duration":166.66649999999208,"noteNumber":61,"velocity":55,"programNumber":48},{"time":179333.15399999887,"duration":166.66649999999208,"noteNumber":61,"velocity":55,"programNumber":48},{"time":179555.37599999885,"duration":166.66649999999208,"noteNumber":62,"velocity":55,"programNumber":48},{"time":179777.59799999883,"duration":166.66649999999208,"noteNumber":62,"velocity":85,"programNumber":48},{"time":179999.8199999988,"duration":166.66649999999208,"noteNumber":66,"velocity":85,"programNumber":48},{"time":180222.0419999988,"duration":166.66649999999208,"noteNumber":64,"velocity":85,"programNumber":48},{"time":180444.26399999877,"duration":166.66649999999208,"noteNumber":63,"velocity":85,"programNumber":48},{"time":180666.48599999875,"duration":166.66649999999208,"noteNumber":59,"velocity":85,"programNumber":48},{"time":180888.70799999873,"duration":166.66649999999208,"noteNumber":61,"velocity":85,"programNumber":48},{"time":181110.9299999987,"duration":166.66649999999208,"noteNumber":62,"velocity":85,"programNumber":48},{"time":181333.1519999987,"duration":166.66649999999208,"noteNumber":64,"velocity":85,"programNumber":48},{"time":181555.37399999867,"duration":166.66649999999208,"noteNumber":67,"velocity":85,"programNumber":48},{"time":181777.59599999865,"duration":166.66649999999208,"noteNumber":64,"velocity":85,"programNumber":48},{"time":181999.81799999863,"duration":166.66649999999208,"noteNumber":62,"velocity":85,"programNumber":48},{"time":182222.0399999986,"duration":166.66649999999208,"noteNumber":61,"velocity":85,"programNumber":48},{"time":182444.2619999986,"duration":166.66649999999208,"noteNumber":57,"velocity":85,"programNumber":48},{"time":182666.48399999857,"duration":166.66649999999208,"noteNumber":59,"velocity":85,"programNumber":48},{"time":182888.70599999855,"duration":166.66649999999208,"noteNumber":61,"velocity":85,"programNumber":48},{"time":183110.92799999853,"duration":166.66649999999208,"noteNumber":62,"velocity":85,"programNumber":48},{"time":183333.1499999985,"duration":166.66649999999208,"noteNumber":74,"velocity":85,"programNumber":48},{"time":183555.3719999985,"duration":166.66649999999208,"noteNumber":74,"velocity":85,"programNumber":48},{"time":183777.59399999847,"duration":166.66649999999208,"noteNumber":74,"velocity":85,"programNumber":48},{"time":183999.81599999845,"duration":166.66649999999208,"noteNumber":74,"velocity":85,"programNumber":48},{"time":184222.03799999843,"duration":166.66649999999208,"noteNumber":74,"velocity":85,"programNumber":48},{"time":184444.2599999984,"duration":166.66649999999208,"noteNumber":74,"velocity":85,"programNumber":48},{"time":184666.4819999984,"duration":166.66649999999208,"noteNumber":74,"velocity":85,"programNumber":48},{"time":184888.70399999837,"duration":222.22200000000885,"noteNumber":74,"velocity":85,"programNumber":48},{"time":185110.92599999838,"duration":166.66649999999208,"noteNumber":69,"velocity":85,"programNumber":48},{"time":185333.14799999836,"duration":111.11100000000442,"noteNumber":69,"velocity":85,"programNumber":48},{"time":185555.36999999837,"duration":111.11100000000442,"noteNumber":69,"velocity":85,"programNumber":48},{"time":185777.59199999837,"duration":166.66649999999208,"noteNumber":69,"velocity":85,"programNumber":48},{"time":185999.81399999835,"duration":166.66649999999208,"noteNumber":69,"velocity":85,"programNumber":48},{"time":186222.03599999833,"duration":166.66649999999208,"noteNumber":69,"velocity":85,"programNumber":48},{"time":186444.2579999983,"duration":166.66649999999208,"noteNumber":67,"velocity":85,"programNumber":48},{"time":186666.4799999983,"duration":166.66649999999208,"noteNumber":66,"velocity":85,"programNumber":48},{"time":186888.70199999827,"duration":166.66649999999208,"noteNumber":57,"velocity":85,"programNumber":48},{"time":187110.92399999825,"duration":166.66649999999208,"noteNumber":59,"velocity":85,"programNumber":48},{"time":187333.14599999823,"duration":166.66649999999208,"noteNumber":61,"velocity":85,"programNumber":48},{"time":187555.3679999982,"duration":166.66649999999208,"noteNumber":62,"velocity":85,"programNumber":48},{"time":187777.5899999982,"duration":166.66649999999208,"noteNumber":62,"velocity":85,"programNumber":48},{"time":187999.81199999817,"duration":166.66649999999208,"noteNumber":64,"velocity":85,"programNumber":48},{"time":188222.03399999815,"duration":166.66649999999208,"noteNumber":64,"velocity":85,"programNumber":48},{"time":188444.25599999813,"duration":166.66649999999208,"noteNumber":66,"velocity":85,"programNumber":48},{"time":188666.4779999981,"duration":166.66649999999208,"noteNumber":61,"velocity":85,"programNumber":48},{"time":188888.6999999981,"duration":166.66649999999208,"noteNumber":62,"velocity":85,"programNumber":48},{"time":189110.92199999807,"duration":166.66649999999208,"noteNumber":64,"velocity":85,"programNumber":48},{"time":189333.14399999805,"duration":166.66649999999208,"noteNumber":66,"velocity":85,"programNumber":48},{"time":189555.36599999803,"duration":166.66649999999208,"noteNumber":66,"velocity":85,"programNumber":48},{"time":189777.587999998,"duration":166.66649999999208,"noteNumber":67,"velocity":85,"programNumber":48},{"time":189999.809999998,"duration":166.66649999999208,"noteNumber":67,"velocity":85,"programNumber":48},{"time":190222.03199999797,"duration":166.66649999999208,"noteNumber":69,"velocity":85,"programNumber":48},{"time":190444.25399999795,"duration":166.66649999999208,"noteNumber":69,"velocity":85,"programNumber":48},{"time":190666.47599999793,"duration":166.66649999999208,"noteNumber":70,"velocity":85,"programNumber":48},{"time":190888.6979999979,"duration":166.66649999999208,"noteNumber":70,"velocity":85,"programNumber":48},{"time":191110.9199999979,"duration":444.4439999999886,"noteNumber":71,"velocity":85,"programNumber":48},{"time":191999.80799999787,"duration":1333.3319999999949,"noteNumber":64,"velocity":55,"programNumber":48},{"time":193333.13999999786,"duration":222.22200000000885,"noteNumber":62,"velocity":55,"programNumber":48},{"time":193555.36199999787,"duration":222.22200000000885,"noteNumber":61,"velocity":55,"programNumber":48},{"time":193777.58399999788,"duration":222.22200000000885,"noteNumber":62,"velocity":55,"programNumber":48},{"time":194222.0279999979,"duration":222.22200000000885,"noteNumber":62,"velocity":55,"programNumber":48},{"time":194666.4719999979,"duration":222.22200000000885,"noteNumber":62,"velocity":55,"programNumber":48},{"time":195555.35999999792,"duration":444.4439999999886,"noteNumber":62,"velocity":89,"programNumber":48},{"time":196222.02599999792,"duration":166.66649999999208,"noteNumber":57,"velocity":89,"programNumber":48},{"time":196444.2479999979,"duration":444.4439999999886,"noteNumber":62,"velocity":89,"programNumber":48},{"time":197110.9139999979,"duration":166.66649999999208,"noteNumber":57,"velocity":89,"programNumber":48},{"time":197333.13599999787,"duration":166.66649999999208,"noteNumber":62,"velocity":89,"programNumber":48},{"time":197555.35799999785,"duration":166.66649999999208,"noteNumber":57,"velocity":89,"programNumber":48},{"time":197777.57999999783,"duration":166.66649999999208,"noteNumber":62,"velocity":89,"programNumber":48},{"time":197999.8019999978,"duration":166.66649999999208,"noteNumber":66,"velocity":89,"programNumber":48},{"time":198222.0239999978,"duration":444.4439999999886,"noteNumber":69,"velocity":89,"programNumber":48},{"time":199110.91199999777,"duration":444.4439999999886,"noteNumber":69,"velocity":89,"programNumber":48},{"time":199777.57799999777,"duration":166.66649999999208,"noteNumber":66,"velocity":89,"programNumber":48},{"time":199999.79999999775,"duration":444.4439999999886,"noteNumber":69,"velocity":89,"programNumber":48},{"time":200666.46599999774,"duration":166.66649999999208,"noteNumber":66,"velocity":89,"programNumber":48},{"time":200888.68799999772,"duration":166.66649999999208,"noteNumber":69,"velocity":89,"programNumber":48},{"time":201110.9099999977,"duration":166.66649999999208,"noteNumber":66,"velocity":89,"programNumber":48},{"time":201333.13199999768,"duration":166.66649999999208,"noteNumber":63,"velocity":89,"programNumber":48},{"time":201555.35399999766,"duration":166.66649999999208,"noteNumber":66,"velocity":89,"programNumber":48},{"time":201777.57599999764,"duration":444.4439999999886,"noteNumber":59,"velocity":89,"programNumber":48},{"time":202666.46399999762,"duration":166.66649999999208,"noteNumber":60,"velocity":55,"programNumber":48},{"time":202888.6859999976,"duration":166.66649999999208,"noteNumber":60,"velocity":55,"programNumber":48},{"time":203110.90799999758,"duration":166.66649999999208,"noteNumber":62,"velocity":55,"programNumber":48},{"time":203333.12999999756,"duration":166.66649999999208,"noteNumber":62,"velocity":55,"programNumber":48},{"time":203555.35199999754,"duration":166.66649999999208,"noteNumber":64,"velocity":55,"programNumber":48},{"time":203777.57399999752,"duration":166.66649999999208,"noteNumber":64,"velocity":55,"programNumber":48},{"time":203999.7959999975,"duration":166.66649999999208,"noteNumber":60,"velocity":55,"programNumber":48},{"time":204222.01799999748,"duration":166.66649999999208,"noteNumber":60,"velocity":55,"programNumber":48},{"time":204444.23999999746,"duration":166.66649999999208,"noteNumber":59,"velocity":55,"programNumber":48},{"time":204666.46199999744,"duration":166.66649999999208,"noteNumber":59,"velocity":55,"programNumber":48},{"time":204888.68399999742,"duration":166.66649999999208,"noteNumber":60,"velocity":55,"programNumber":48},{"time":205110.9059999974,"duration":166.66649999999208,"noteNumber":60,"velocity":55,"programNumber":48},{"time":205333.12799999738,"duration":166.66649999999208,"noteNumber":62,"velocity":55,"programNumber":48},{"time":205555.34999999736,"duration":166.66649999999208,"noteNumber":62,"velocity":55,"programNumber":48},{"time":205777.57199999734,"duration":166.66649999999208,"noteNumber":59,"velocity":55,"programNumber":48},{"time":205999.79399999732,"duration":166.66649999999208,"noteNumber":59,"velocity":55,"programNumber":48},{"time":206222.0159999973,"duration":166.66649999999208,"noteNumber":60,"velocity":55,"programNumber":48},{"time":206444.23799999728,"duration":166.66649999999208,"noteNumber":60,"velocity":55,"programNumber":48},{"time":206666.45999999726,"duration":166.66649999999208,"noteNumber":62,"velocity":55,"programNumber":48},{"time":206888.68199999724,"duration":166.66649999999208,"noteNumber":62,"velocity":55,"programNumber":48},{"time":207110.90399999722,"duration":166.66649999999208,"noteNumber":64,"velocity":55,"programNumber":48},{"time":207333.1259999972,"duration":166.66649999999208,"noteNumber":64,"velocity":55,"programNumber":48},{"time":207555.34799999718,"duration":166.66649999999208,"noteNumber":60,"velocity":55,"programNumber":48},{"time":207777.56999999715,"duration":166.66649999999208,"noteNumber":60,"velocity":55,"programNumber":48},{"time":207999.79199999713,"duration":166.66649999999208,"noteNumber":59,"velocity":55,"programNumber":48},{"time":208222.0139999971,"duration":166.66649999999208,"noteNumber":59,"velocity":55,"programNumber":48},{"time":208444.2359999971,"duration":166.66649999999208,"noteNumber":60,"velocity":55,"programNumber":48},{"time":208666.45799999707,"duration":166.66649999999208,"noteNumber":60,"velocity":55,"programNumber":48},{"time":208888.67999999705,"duration":166.66649999999208,"noteNumber":62,"velocity":55,"programNumber":48},{"time":209110.90199999703,"duration":166.66649999999208,"noteNumber":62,"velocity":55,"programNumber":48},{"time":209333.123999997,"duration":166.66649999999208,"noteNumber":59,"velocity":55,"programNumber":48},{"time":209555.345999997,"duration":166.66649999999208,"noteNumber":59,"velocity":55,"programNumber":48},{"time":209777.56799999697,"duration":166.66649999999208,"noteNumber":60,"velocity":55,"programNumber":48},{"time":209999.78999999695,"duration":166.66649999999208,"noteNumber":60,"velocity":55,"programNumber":48},{"time":210222.01199999693,"duration":166.66649999999208,"noteNumber":62,"velocity":55,"programNumber":48},{"time":210444.2339999969,"duration":166.66649999999208,"noteNumber":62,"velocity":55,"programNumber":48},{"time":210666.4559999969,"duration":166.66649999999208,"noteNumber":64,"velocity":55,"programNumber":48},{"time":210888.67799999687,"duration":166.66649999999208,"noteNumber":64,"velocity":55,"programNumber":48},{"time":211110.89999999685,"duration":166.66649999999208,"noteNumber":60,"velocity":55,"programNumber":48},{"time":211333.12199999683,"duration":166.66649999999208,"noteNumber":60,"velocity":55,"programNumber":48},{"time":211555.3439999968,"duration":166.66649999999208,"noteNumber":59,"velocity":55,"programNumber":48},{"time":211777.5659999968,"duration":166.66649999999208,"noteNumber":59,"velocity":55,"programNumber":48},{"time":211999.78799999677,"duration":166.66649999999208,"noteNumber":60,"velocity":55,"programNumber":48},{"time":212222.00999999675,"duration":166.66649999999208,"noteNumber":60,"velocity":55,"programNumber":48},{"time":212444.23199999673,"duration":166.66649999999208,"noteNumber":62,"velocity":55,"programNumber":48},{"time":212666.4539999967,"duration":166.66649999999208,"noteNumber":62,"velocity":55,"programNumber":48},{"time":212888.6759999967,"duration":166.66649999999208,"noteNumber":59,"velocity":55,"programNumber":48},{"time":213110.89799999667,"duration":166.66649999999208,"noteNumber":59,"velocity":55,"programNumber":48},{"time":213333.11999999665,"duration":166.66649999999208,"noteNumber":57,"velocity":55,"programNumber":48},{"time":213555.34199999663,"duration":166.66649999999208,"noteNumber":57,"velocity":55,"programNumber":48},{"time":213777.5639999966,"duration":166.66649999999208,"noteNumber":59,"velocity":55,"programNumber":48},{"time":213999.7859999966,"duration":166.66649999999208,"noteNumber":59,"velocity":55,"programNumber":48},{"time":214222.00799999657,"duration":166.66649999999208,"noteNumber":60,"velocity":55,"programNumber":48},{"time":214444.22999999655,"duration":166.66649999999208,"noteNumber":60,"velocity":55,"programNumber":48},{"time":214666.45199999653,"duration":166.66649999999208,"noteNumber":57,"velocity":55,"programNumber":48},{"time":214888.6739999965,"duration":166.66649999999208,"noteNumber":57,"velocity":55,"programNumber":48},{"time":215110.8959999965,"duration":166.66649999999208,"noteNumber":57,"velocity":55,"programNumber":48},{"time":215333.11799999647,"duration":166.66649999999208,"noteNumber":57,"velocity":55,"programNumber":48},{"time":215555.33999999645,"duration":166.66649999999208,"noteNumber":58,"velocity":55,"programNumber":48},{"time":215777.56199999643,"duration":166.66649999999208,"noteNumber":58,"velocity":55,"programNumber":48},{"time":215999.7839999964,"duration":166.66649999999208,"noteNumber":60,"velocity":55,"programNumber":48},{"time":216222.00599999639,"duration":166.66649999999208,"noteNumber":60,"velocity":55,"programNumber":48},{"time":216444.22799999636,"duration":166.66649999999208,"noteNumber":57,"velocity":55,"programNumber":48},{"time":216666.44999999634,"duration":166.66649999999208,"noteNumber":57,"velocity":55,"programNumber":48},{"time":216888.67199999632,"duration":166.66649999999208,"noteNumber":55,"velocity":55,"programNumber":48},{"time":217110.8939999963,"duration":166.66649999999208,"noteNumber":55,"velocity":55,"programNumber":48},{"time":217333.11599999628,"duration":166.66649999999208,"noteNumber":54,"velocity":55,"programNumber":48},{"time":217555.33799999626,"duration":166.66649999999208,"noteNumber":54,"velocity":55,"programNumber":48},{"time":217777.55999999624,"duration":166.66649999999208,"noteNumber":55,"velocity":55,"programNumber":48},{"time":217999.78199999622,"duration":166.66649999999208,"noteNumber":55,"velocity":55,"programNumber":48},{"time":218222.0039999962,"duration":166.66649999999208,"noteNumber":66,"velocity":55,"programNumber":48},{"time":218444.22599999618,"duration":166.66649999999208,"noteNumber":66,"velocity":55,"programNumber":48},{"time":218666.44799999616,"duration":166.66649999999208,"noteNumber":67,"velocity":55,"programNumber":48},{"time":218888.66999999614,"duration":166.66649999999208,"noteNumber":67,"velocity":55,"programNumber":48},{"time":219110.89199999612,"duration":166.66649999999208,"noteNumber":66,"velocity":55,"programNumber":48},{"time":219333.1139999961,"duration":166.66649999999208,"noteNumber":66,"velocity":55,"programNumber":48},{"time":219555.33599999608,"duration":166.66649999999208,"noteNumber":67,"velocity":55,"programNumber":48},{"time":219777.55799999606,"duration":166.66649999999208,"noteNumber":55,"velocity":55,"programNumber":48},{"time":219999.77999999604,"duration":166.66649999999208,"noteNumber":53,"velocity":55,"programNumber":48},{"time":220222.00199999602,"duration":166.66649999999208,"noteNumber":55,"velocity":55,"programNumber":48},{"time":220481.260999996,"duration":444.4439999999886,"noteNumber":57,"velocity":53,"programNumber":48},{"time":221147.926999996,"duration":222.22200000000885,"noteNumber":50,"velocity":91,"programNumber":48},{"time":221370.14899999602,"duration":222.22200000000885,"noteNumber":52,"velocity":91,"programNumber":48},{"time":221592.37099999603,"duration":222.22200000000885,"noteNumber":54,"velocity":91,"programNumber":48},{"time":221814.59299999604,"duration":222.22200000000885,"noteNumber":55,"velocity":91,"programNumber":48},{"time":222036.81499999604,"duration":222.22200000000885,"noteNumber":57,"velocity":91,"programNumber":48},{"time":222259.03699999605,"duration":222.22200000000885,"noteNumber":60,"velocity":91,"programNumber":48},{"time":222481.25899999606,"duration":222.22200000000885,"noteNumber":58,"velocity":91,"programNumber":48},{"time":222925.70299999608,"duration":222.22200000000885,"noteNumber":54,"velocity":91,"programNumber":48},{"time":223147.9249999961,"duration":222.22200000000885,"noteNumber":55,"velocity":91,"programNumber":48},{"time":223370.1469999961,"duration":222.22200000000885,"noteNumber":57,"velocity":91,"programNumber":48},{"time":223592.3689999961,"duration":222.22200000000885,"noteNumber":58,"velocity":91,"programNumber":48},{"time":223814.59099999611,"duration":222.22200000000885,"noteNumber":61,"velocity":91,"programNumber":48},{"time":224036.81299999612,"duration":222.22200000000885,"noteNumber":64,"velocity":53,"programNumber":48},{"time":224259.03499999613,"duration":222.22200000000885,"noteNumber":62,"velocity":53,"programNumber":48},{"time":227555.32799999614,"duration":111.11100000000442,"noteNumber":71,"velocity":68,"programNumber":48},{"time":227777.54999999615,"duration":111.11100000000442,"noteNumber":71,"velocity":68,"programNumber":48},{"time":227999.77199999616,"duration":222.22200000000885,"noteNumber":71,"velocity":68,"programNumber":48},{"time":228221.99399999616,"duration":166.66649999999208,"noteNumber":72,"velocity":68,"programNumber":48},{"time":228444.21599999614,"duration":111.11100000000442,"noteNumber":69,"velocity":68,"programNumber":48},{"time":228666.43799999615,"duration":111.11100000000442,"noteNumber":69,"velocity":68,"programNumber":48},{"time":228888.65999999616,"duration":222.22200000000885,"noteNumber":69,"velocity":68,"programNumber":48},{"time":229110.88199999617,"duration":166.66649999999208,"noteNumber":71,"velocity":68,"programNumber":48},{"time":229333.10399999615,"duration":111.11100000000442,"noteNumber":67,"velocity":68,"programNumber":48},{"time":229555.32599999616,"duration":111.11100000000442,"noteNumber":67,"velocity":68,"programNumber":48},{"time":229777.54799999617,"duration":222.22200000000885,"noteNumber":67,"velocity":68,"programNumber":48},{"time":229999.76999999618,"duration":166.66649999999208,"noteNumber":71,"velocity":68,"programNumber":48},{"time":230221.99199999616,"duration":222.22200000000885,"noteNumber":71,"velocity":68,"programNumber":48},{"time":230444.21399999617,"duration":166.66649999999208,"noteNumber":69,"velocity":68,"programNumber":48},{"time":230666.43599999615,"duration":111.11100000000442,"noteNumber":67,"velocity":68,"programNumber":48},{"time":230888.65799999615,"duration":111.11100000000442,"noteNumber":62,"velocity":68,"programNumber":48},{"time":231129.39849999617,"duration":444.4439999999886,"noteNumber":59,"velocity":93,"programNumber":48},{"time":231796.06449999617,"duration":111.11100000000442,"noteNumber":62,"velocity":92,"programNumber":48},{"time":232018.28649999617,"duration":444.4439999999886,"noteNumber":67,"velocity":92,"programNumber":48},{"time":232684.95249999617,"duration":111.11100000000442,"noteNumber":62,"velocity":91,"programNumber":48},{"time":232907.17449999618,"duration":111.11100000000442,"noteNumber":67,"velocity":90,"programNumber":48},{"time":233129.3964999962,"duration":111.11100000000442,"noteNumber":62,"velocity":90,"programNumber":48},{"time":233351.6184999962,"duration":111.11100000000442,"noteNumber":67,"velocity":90,"programNumber":48},{"time":233573.8404999962,"duration":111.11100000000442,"noteNumber":71,"velocity":90,"programNumber":48},{"time":233796.06249999622,"duration":444.4439999999886,"noteNumber":74,"velocity":89,"programNumber":48},{"time":234684.9504999962,"duration":444.4439999999886,"noteNumber":72,"velocity":88,"programNumber":48},{"time":235351.6164999962,"duration":111.11100000000442,"noteNumber":69,"velocity":87,"programNumber":48},{"time":235573.8384999962,"duration":444.4439999999886,"noteNumber":72,"velocity":86,"programNumber":48},{"time":236240.5044999962,"duration":111.11100000000442,"noteNumber":69,"velocity":85,"programNumber":48},{"time":236462.7264999962,"duration":111.11100000000442,"noteNumber":72,"velocity":85,"programNumber":48},{"time":236684.94849999622,"duration":111.11100000000442,"noteNumber":69,"velocity":85,"programNumber":48},{"time":236907.17049999622,"duration":111.11100000000442,"noteNumber":66,"velocity":85,"programNumber":48},{"time":237129.39249999623,"duration":111.11100000000442,"noteNumber":69,"velocity":85,"programNumber":48},{"time":237351.61449999624,"duration":444.4439999999886,"noteNumber":62,"velocity":85,"programNumber":48},{"time":238221.98399999624,"duration":166.66649999999208,"noteNumber":67,"velocity":85,"programNumber":48},{"time":238444.20599999622,"duration":166.66649999999208,"noteNumber":67,"velocity":85,"programNumber":48},{"time":238666.4279999962,"duration":166.66649999999208,"noteNumber":67,"velocity":85,"programNumber":48},{"time":238888.64999999618,"duration":166.66649999999208,"noteNumber":67,"velocity":85,"programNumber":48},{"time":239110.87199999616,"duration":166.66649999999208,"noteNumber":67,"velocity":85,"programNumber":48},{"time":239333.09399999614,"duration":166.66649999999208,"noteNumber":67,"velocity":85,"programNumber":48},{"time":239555.31599999612,"duration":166.66649999999208,"noteNumber":67,"velocity":85,"programNumber":48},{"time":239777.5379999961,"duration":166.66649999999208,"noteNumber":67,"velocity":85,"programNumber":48},{"time":239999.75999999608,"duration":166.66649999999208,"noteNumber":69,"velocity":85,"programNumber":48},{"time":240221.98199999606,"duration":166.66649999999208,"noteNumber":69,"velocity":85,"programNumber":48},{"time":240444.20399999604,"duration":166.66649999999208,"noteNumber":69,"velocity":85,"programNumber":48},{"time":240666.42599999602,"duration":166.66649999999208,"noteNumber":69,"velocity":85,"programNumber":48},{"time":240888.647999996,"duration":222.22200000000885,"noteNumber":69,"velocity":85,"programNumber":48},{"time":241110.869999996,"duration":166.66649999999208,"noteNumber":72,"velocity":85,"programNumber":48},{"time":241333.091999996,"duration":222.22200000000885,"noteNumber":66,"velocity":85,"programNumber":48},{"time":241555.313999996,"duration":166.66649999999208,"noteNumber":69,"velocity":85,"programNumber":48},{"time":241777.53599999598,"duration":166.66649999999208,"noteNumber":67,"velocity":85,"programNumber":48},{"time":241999.75799999596,"duration":166.66649999999208,"noteNumber":67,"velocity":85,"programNumber":48},{"time":242221.97999999594,"duration":166.66649999999208,"noteNumber":67,"velocity":85,"programNumber":48},{"time":242444.20199999592,"duration":166.66649999999208,"noteNumber":67,"velocity":85,"programNumber":48},{"time":242666.4239999959,"duration":166.66649999999208,"noteNumber":67,"velocity":85,"programNumber":48},{"time":242888.64599999588,"duration":166.66649999999208,"noteNumber":67,"velocity":85,"programNumber":48},{"time":243110.86799999585,"duration":166.66649999999208,"noteNumber":67,"velocity":85,"programNumber":48},{"time":243333.08999999583,"duration":166.66649999999208,"noteNumber":67,"velocity":85,"programNumber":48},{"time":243555.3119999958,"duration":166.66649999999208,"noteNumber":69,"velocity":85,"programNumber":48},{"time":243777.5339999958,"duration":166.66649999999208,"noteNumber":69,"velocity":85,"programNumber":48},{"time":243999.75599999577,"duration":166.66649999999208,"noteNumber":69,"velocity":85,"programNumber":48},{"time":244221.97799999575,"duration":166.66649999999208,"noteNumber":69,"velocity":85,"programNumber":48},{"time":244444.19999999573,"duration":222.22200000000885,"noteNumber":69,"velocity":85,"programNumber":48},{"time":244666.42199999574,"duration":166.66649999999208,"noteNumber":72,"velocity":85,"programNumber":48},{"time":244888.64399999572,"duration":222.22200000000885,"noteNumber":66,"velocity":85,"programNumber":48},{"time":245110.86599999573,"duration":166.66649999999208,"noteNumber":69,"velocity":85,"programNumber":48},{"time":245333.0879999957,"duration":74.07399999999325,"noteNumber":62,"velocity":85,"programNumber":48},{"time":245444.19899999571,"duration":74.07399999999325,"noteNumber":62,"velocity":85,"programNumber":48},{"time":245555.30999999572,"duration":74.07399999999325,"noteNumber":62,"velocity":85,"programNumber":48},{"time":245666.42099999572,"duration":74.07399999999325,"noteNumber":62,"velocity":85,"programNumber":48},{"time":245777.53199999573,"duration":74.07399999999325,"noteNumber":62,"velocity":85,"programNumber":48},{"time":245888.64299999573,"duration":74.07399999999325,"noteNumber":62,"velocity":85,"programNumber":48},{"time":245999.75399999574,"duration":74.07399999999325,"noteNumber":62,"velocity":85,"programNumber":48},{"time":246110.86499999574,"duration":74.07399999999325,"noteNumber":62,"velocity":85,"programNumber":48},{"time":246221.97599999575,"duration":74.07399999999325,"noteNumber":62,"velocity":85,"programNumber":48},{"time":246333.08699999575,"duration":74.07399999999325,"noteNumber":62,"velocity":85,"programNumber":48},{"time":246444.19799999575,"duration":74.07399999999325,"noteNumber":62,"velocity":85,"programNumber":48},{"time":246555.30899999576,"duration":74.07399999999325,"noteNumber":62,"velocity":85,"programNumber":48},{"time":246666.41999999576,"duration":74.07399999999325,"noteNumber":62,"velocity":85,"programNumber":48},{"time":246777.53099999577,"duration":74.07399999999325,"noteNumber":62,"velocity":85,"programNumber":48},{"time":246888.64199999577,"duration":74.07399999999325,"noteNumber":62,"velocity":85,"programNumber":48},{"time":246999.75299999578,"duration":74.07399999999325,"noteNumber":62,"velocity":85,"programNumber":48},{"time":247110.86399999578,"duration":74.07399999999325,"noteNumber":62,"velocity":85,"programNumber":48},{"time":247221.9749999958,"duration":74.07399999999325,"noteNumber":62,"velocity":85,"programNumber":48},{"time":247333.0859999958,"duration":74.07399999999325,"noteNumber":62,"velocity":85,"programNumber":48},{"time":247444.1969999958,"duration":74.07399999999325,"noteNumber":62,"velocity":85,"programNumber":48},{"time":247555.3079999958,"duration":74.07399999999325,"noteNumber":62,"velocity":85,"programNumber":48},{"time":247666.4189999958,"duration":74.07399999999325,"noteNumber":62,"velocity":85,"programNumber":48},{"time":247777.5299999958,"duration":74.07399999999325,"noteNumber":62,"velocity":85,"programNumber":48},{"time":247888.6409999958,"duration":74.07399999999325,"noteNumber":62,"velocity":85,"programNumber":48},{"time":247999.75199999582,"duration":444.4439999999886,"noteNumber":62,"velocity":85,"programNumber":48},{"time":250666.4159999958,"duration":888.8880000000063,"noteNumber":54,"velocity":47,"programNumber":48},{"time":251555.3039999958,"duration":888.8880000000063,"noteNumber":55,"velocity":47,"programNumber":48},{"time":252444.19199999582,"duration":333.33300000001327,"noteNumber":60,"velocity":47,"programNumber":48},{"time":252888.63599999584,"duration":333.33300000001327,"noteNumber":60,"velocity":47,"programNumber":48},{"time":253333.07999999585,"duration":333.33300000001327,"noteNumber":57,"velocity":47,"programNumber":48},{"time":253777.52399999587,"duration":333.33300000001327,"noteNumber":50,"velocity":47,"programNumber":48},{"time":254221.9679999959,"duration":222.22200000000885,"noteNumber":50,"velocity":47,"programNumber":48},{"time":254666.4119999959,"duration":222.22200000000885,"noteNumber":62,"velocity":47,"programNumber":48},{"time":255110.85599999593,"duration":444.4439999999886,"noteNumber":62,"velocity":47,"programNumber":48},{"time":257777.51999999591,"duration":888.8880000000063,"noteNumber":66,"velocity":47,"programNumber":48},{"time":258666.40799999592,"duration":888.8880000000063,"noteNumber":67,"velocity":47,"programNumber":48},{"time":259555.29599999593,"duration":333.33300000001327,"noteNumber":60,"velocity":47,"programNumber":48},{"time":259999.73999999595,"duration":166.66649999999208,"noteNumber":60,"velocity":47,"programNumber":48},{"time":260221.96199999592,"duration":166.66649999999208,"noteNumber":60,"velocity":47,"programNumber":48},{"time":260444.1839999959,"duration":333.33300000001327,"noteNumber":57,"velocity":47,"programNumber":48},{"time":260888.62799999592,"duration":166.66649999999208,"noteNumber":57,"velocity":47,"programNumber":48},{"time":261110.8499999959,"duration":166.66649999999208,"noteNumber":57,"velocity":47,"programNumber":48},{"time":261333.07199999588,"duration":166.66649999999208,"noteNumber":55,"velocity":92,"programNumber":48},{"time":261555.29399999586,"duration":166.66649999999208,"noteNumber":55,"velocity":71,"programNumber":48},{"time":261777.51599999584,"duration":166.66649999999208,"noteNumber":55,"velocity":71,"programNumber":48},{"time":261999.73799999582,"duration":166.66649999999208,"noteNumber":55,"velocity":71,"programNumber":48},{"time":262221.95999999583,"duration":166.66649999999208,"noteNumber":55,"velocity":55,"programNumber":48},{"time":262444.18199999584,"duration":166.66649999999208,"noteNumber":55,"velocity":50,"programNumber":48},{"time":262666.40399999585,"duration":166.66649999999208,"noteNumber":55,"velocity":50,"programNumber":48},{"time":262888.62599999586,"duration":166.66649999999208,"noteNumber":55,"velocity":50,"programNumber":48},{"time":263110.84799999587,"duration":166.66649999999208,"noteNumber":55,"velocity":91,"programNumber":48},{"time":263333.0699999959,"duration":166.66649999999208,"noteNumber":55,"velocity":65,"programNumber":48},{"time":263555.2919999959,"duration":166.66649999999208,"noteNumber":55,"velocity":65,"programNumber":48},{"time":263777.5139999959,"duration":166.66649999999208,"noteNumber":55,"velocity":65,"programNumber":48},{"time":263999.7359999959,"duration":166.66649999999208,"noteNumber":55,"velocity":46,"programNumber":48},{"time":264221.9579999959,"duration":166.66649999999208,"noteNumber":55,"velocity":46,"programNumber":48},{"time":264444.1799999959,"duration":166.66649999999208,"noteNumber":55,"velocity":46,"programNumber":48},{"time":264666.4019999959,"duration":166.66649999999208,"noteNumber":55,"velocity":46,"programNumber":48},{"time":264888.62399999594,"duration":166.66649999999208,"noteNumber":55,"velocity":59,"programNumber":48},{"time":265110.84599999595,"duration":166.66649999999208,"noteNumber":67,"velocity":41,"programNumber":48},{"time":265333.06799999595,"duration":166.66649999999208,"noteNumber":67,"velocity":46,"programNumber":48},{"time":265555.28999999596,"duration":166.66649999999208,"noteNumber":67,"velocity":49,"programNumber":48},{"time":265777.511999996,"duration":166.66649999999208,"noteNumber":67,"velocity":53,"programNumber":48},{"time":265999.733999996,"duration":166.66649999999208,"noteNumber":67,"velocity":56,"programNumber":48},{"time":266221.955999996,"duration":166.66649999999208,"noteNumber":69,"velocity":61,"programNumber":48},{"time":266444.177999996,"duration":166.66649999999208,"noteNumber":69,"velocity":64,"programNumber":48},{"time":266666.399999996,"duration":166.66649999999208,"noteNumber":67,"velocity":68,"programNumber":48},{"time":266888.621999996,"duration":166.66649999999208,"noteNumber":67,"velocity":71,"programNumber":48},{"time":267110.843999996,"duration":166.66649999999208,"noteNumber":66,"velocity":76,"programNumber":48},{"time":267333.06599999603,"duration":166.66649999999208,"noteNumber":66,"velocity":79,"programNumber":48},{"time":267555.28799999604,"duration":166.66649999999208,"noteNumber":67,"velocity":82,"programNumber":48},{"time":267777.50999999605,"duration":166.66649999999208,"noteNumber":67,"velocity":82,"programNumber":48},{"time":267999.73199999606,"duration":166.66649999999208,"noteNumber":64,"velocity":82,"programNumber":48},{"time":268221.95399999607,"duration":166.66649999999208,"noteNumber":64,"velocity":82,"programNumber":48},{"time":268444.1759999961,"duration":74.07400000002235,"noteNumber":62,"velocity":85,"programNumber":48},{"time":268444.1759999961,"duration":74.07400000002235,"noteNumber":69,"velocity":85,"programNumber":48},{"time":268555.2869999961,"duration":74.07400000002235,"noteNumber":62,"velocity":85,"programNumber":48},{"time":268555.2869999961,"duration":74.07400000002235,"noteNumber":69,"velocity":85,"programNumber":48},{"time":268666.39799999614,"duration":74.07400000002235,"noteNumber":62,"velocity":85,"programNumber":48},{"time":268666.39799999614,"duration":74.07400000002235,"noteNumber":69,"velocity":85,"programNumber":48},{"time":268777.5089999962,"duration":74.07400000002235,"noteNumber":62,"velocity":85,"programNumber":48},{"time":268777.5089999962,"duration":74.07400000002235,"noteNumber":69,"velocity":85,"programNumber":48},{"time":268888.6199999962,"duration":74.07400000002235,"noteNumber":62,"velocity":85,"programNumber":48},{"time":268888.6199999962,"duration":74.07400000002235,"noteNumber":69,"velocity":85,"programNumber":48},{"time":268999.73099999625,"duration":74.07400000002235,"noteNumber":62,"velocity":85,"programNumber":48},{"time":268999.73099999625,"duration":74.07400000002235,"noteNumber":69,"velocity":85,"programNumber":48},{"time":269110.8419999963,"duration":74.07400000002235,"noteNumber":62,"velocity":85,"programNumber":48},{"time":269110.8419999963,"duration":74.07400000002235,"noteNumber":69,"velocity":85,"programNumber":48},{"time":269221.9529999963,"duration":74.07400000002235,"noteNumber":62,"velocity":85,"programNumber":48},{"time":269221.9529999963,"duration":74.07400000002235,"noteNumber":69,"velocity":85,"programNumber":48},{"time":269333.06399999635,"duration":74.07400000002235,"noteNumber":64,"velocity":85,"programNumber":48},{"time":269333.06399999635,"duration":74.07400000002235,"noteNumber":69,"velocity":85,"programNumber":48},{"time":269444.1749999964,"duration":74.07400000002235,"noteNumber":64,"velocity":85,"programNumber":48},{"time":269444.1749999964,"duration":74.07400000002235,"noteNumber":69,"velocity":85,"programNumber":48},{"time":269555.2859999964,"duration":74.07400000002235,"noteNumber":64,"velocity":85,"programNumber":48},{"time":269555.2859999964,"duration":74.07400000002235,"noteNumber":69,"velocity":85,"programNumber":48},{"time":269666.39699999645,"duration":74.07400000002235,"noteNumber":64,"velocity":85,"programNumber":48},{"time":269666.39699999645,"duration":74.07400000002235,"noteNumber":69,"velocity":85,"programNumber":48},{"time":269777.5079999965,"duration":74.07400000002235,"noteNumber":64,"velocity":85,"programNumber":48},{"time":269777.5079999965,"duration":74.07400000002235,"noteNumber":69,"velocity":85,"programNumber":48},{"time":269888.6189999965,"duration":74.07400000002235,"noteNumber":64,"velocity":85,"programNumber":48},{"time":269888.6189999965,"duration":74.07400000002235,"noteNumber":69,"velocity":85,"programNumber":48},{"time":269999.72999999655,"duration":74.07400000002235,"noteNumber":64,"velocity":85,"programNumber":48},{"time":269999.72999999655,"duration":74.07400000002235,"noteNumber":69,"velocity":85,"programNumber":48},{"time":270110.8409999966,"duration":74.07400000002235,"noteNumber":64,"velocity":85,"programNumber":48},{"time":270110.8409999966,"duration":74.07400000002235,"noteNumber":69,"velocity":85,"programNumber":48},{"time":270221.9519999966,"duration":74.07400000002235,"noteNumber":62,"velocity":85,"programNumber":48},{"time":270221.9519999966,"duration":74.07400000002235,"noteNumber":69,"velocity":85,"programNumber":48},{"time":270333.06299999665,"duration":74.07400000002235,"noteNumber":62,"velocity":85,"programNumber":48},{"time":270333.06299999665,"duration":74.07400000002235,"noteNumber":69,"velocity":85,"programNumber":48},{"time":270444.1739999967,"duration":74.07400000002235,"noteNumber":62,"velocity":85,"programNumber":48},{"time":270444.1739999967,"duration":74.07400000002235,"noteNumber":69,"velocity":85,"programNumber":48},{"time":270555.2849999967,"duration":74.07400000002235,"noteNumber":62,"velocity":85,"programNumber":48},{"time":270555.2849999967,"duration":74.07400000002235,"noteNumber":69,"velocity":85,"programNumber":48},{"time":270666.39599999675,"duration":74.07400000002235,"noteNumber":62,"velocity":85,"programNumber":48},{"time":270666.39599999675,"duration":74.07400000002235,"noteNumber":69,"velocity":85,"programNumber":48},{"time":270777.5069999968,"duration":74.07400000002235,"noteNumber":62,"velocity":85,"programNumber":48},{"time":270777.5069999968,"duration":74.07400000002235,"noteNumber":69,"velocity":85,"programNumber":48},{"time":270888.6179999968,"duration":74.07400000002235,"noteNumber":62,"velocity":85,"programNumber":48},{"time":270888.6179999968,"duration":74.07400000002235,"noteNumber":69,"velocity":85,"programNumber":48},{"time":270999.72899999685,"duration":74.07400000002235,"noteNumber":62,"velocity":85,"programNumber":48},{"time":270999.72899999685,"duration":74.07400000002235,"noteNumber":69,"velocity":85,"programNumber":48},{"time":271110.8399999969,"duration":74.07400000002235,"noteNumber":64,"velocity":85,"programNumber":48},{"time":271110.8399999969,"duration":74.07400000002235,"noteNumber":69,"velocity":85,"programNumber":48},{"time":271221.9509999969,"duration":74.07400000002235,"noteNumber":64,"velocity":85,"programNumber":48},{"time":271221.9509999969,"duration":74.07400000002235,"noteNumber":69,"velocity":85,"programNumber":48},{"time":271333.06199999695,"duration":74.07400000002235,"noteNumber":64,"velocity":85,"programNumber":48},{"time":271333.06199999695,"duration":74.07400000002235,"noteNumber":69,"velocity":85,"programNumber":48},{"time":271444.172999997,"duration":74.07400000002235,"noteNumber":64,"velocity":85,"programNumber":48},{"time":271444.172999997,"duration":74.07400000002235,"noteNumber":69,"velocity":85,"programNumber":48},{"time":271555.283999997,"duration":74.07400000002235,"noteNumber":64,"velocity":85,"programNumber":48},{"time":271555.283999997,"duration":74.07400000002235,"noteNumber":69,"velocity":85,"programNumber":48},{"time":271666.39499999705,"duration":74.07400000002235,"noteNumber":64,"velocity":85,"programNumber":48},{"time":271666.39499999705,"duration":74.07400000002235,"noteNumber":69,"velocity":85,"programNumber":48},{"time":271777.5059999971,"duration":74.07400000002235,"noteNumber":64,"velocity":85,"programNumber":48},{"time":271777.5059999971,"duration":74.07400000002235,"noteNumber":69,"velocity":85,"programNumber":48},{"time":271888.6169999971,"duration":74.07400000002235,"noteNumber":64,"velocity":85,"programNumber":48},{"time":271888.6169999971,"duration":74.07400000002235,"noteNumber":69,"velocity":85,"programNumber":48},{"time":271999.72799999715,"duration":74.07400000002235,"noteNumber":62,"velocity":85,"programNumber":48},{"time":271999.72799999715,"duration":74.07400000002235,"noteNumber":69,"velocity":85,"programNumber":48},{"time":272110.8389999972,"duration":74.07400000002235,"noteNumber":62,"velocity":85,"programNumber":48},{"time":272110.8389999972,"duration":74.07400000002235,"noteNumber":69,"velocity":85,"programNumber":48},{"time":272221.9499999972,"duration":74.07400000002235,"noteNumber":62,"velocity":85,"programNumber":48},{"time":272221.9499999972,"duration":74.07400000002235,"noteNumber":69,"velocity":85,"programNumber":48},{"time":272333.06099999725,"duration":74.07400000002235,"noteNumber":62,"velocity":85,"programNumber":48},{"time":272333.06099999725,"duration":74.07400000002235,"noteNumber":69,"velocity":85,"programNumber":48},{"time":272444.1719999973,"duration":74.07400000002235,"noteNumber":69,"velocity":85,"programNumber":48},{"time":272444.1719999973,"duration":74.07400000002235,"noteNumber":64,"velocity":85,"programNumber":48},{"time":272555.2829999973,"duration":74.07400000002235,"noteNumber":69,"velocity":85,"programNumber":48},{"time":272555.2829999973,"duration":74.07400000002235,"noteNumber":64,"velocity":85,"programNumber":48},{"time":272666.39399999735,"duration":74.07400000002235,"noteNumber":69,"velocity":85,"programNumber":48},{"time":272666.39399999735,"duration":74.07400000002235,"noteNumber":64,"velocity":85,"programNumber":48},{"time":272777.5049999974,"duration":74.07400000002235,"noteNumber":69,"velocity":85,"programNumber":48},{"time":272777.5049999974,"duration":74.07400000002235,"noteNumber":64,"velocity":85,"programNumber":48},{"time":272888.6159999974,"duration":74.07400000002235,"noteNumber":69,"velocity":85,"programNumber":48},{"time":272888.6159999974,"duration":74.07400000002235,"noteNumber":62,"velocity":85,"programNumber":48},{"time":272999.72699999745,"duration":74.07400000002235,"noteNumber":69,"velocity":85,"programNumber":48},{"time":272999.72699999745,"duration":74.07400000002235,"noteNumber":62,"velocity":85,"programNumber":48},{"time":273110.8379999975,"duration":74.07400000002235,"noteNumber":69,"velocity":85,"programNumber":48},{"time":273110.8379999975,"duration":74.07400000002235,"noteNumber":62,"velocity":85,"programNumber":48},{"time":273221.9489999975,"duration":74.07400000002235,"noteNumber":69,"velocity":85,"programNumber":48},{"time":273221.9489999975,"duration":74.07400000002235,"noteNumber":62,"velocity":85,"programNumber":48},{"time":273333.05999999755,"duration":74.07400000002235,"noteNumber":64,"velocity":85,"programNumber":48},{"time":273333.05999999755,"duration":74.07400000002235,"noteNumber":69,"velocity":85,"programNumber":48},{"time":273444.1709999976,"duration":74.07400000002235,"noteNumber":64,"velocity":85,"programNumber":48},{"time":273444.1709999976,"duration":74.07400000002235,"noteNumber":69,"velocity":85,"programNumber":48},{"time":273555.2819999976,"duration":74.07400000002235,"noteNumber":64,"velocity":85,"programNumber":48},{"time":273555.2819999976,"duration":74.07400000002235,"noteNumber":69,"velocity":85,"programNumber":48},{"time":273666.39299999765,"duration":74.07400000002235,"noteNumber":64,"velocity":85,"programNumber":48},{"time":273666.39299999765,"duration":74.07400000002235,"noteNumber":69,"velocity":85,"programNumber":48},{"time":273788.61509999767,"duration":166.66649999999208,"noteNumber":69,"velocity":85,"programNumber":48},{"time":273788.61509999767,"duration":166.66649999999208,"noteNumber":62,"velocity":85,"programNumber":48},{"time":274010.8370999977,"duration":166.66649999999208,"noteNumber":50,"velocity":85,"programNumber":48},{"time":274233.0590999977,"duration":166.66649999999208,"noteNumber":50,"velocity":85,"programNumber":48},{"time":274455.2810999977,"duration":166.66649999999208,"noteNumber":50,"velocity":85,"programNumber":48},{"time":274677.5030999977,"duration":444.4440000000177,"noteNumber":50,"velocity":85,"programNumber":48},{"time":276888.6119999977,"duration":222.22200000000885,"noteNumber":59,"velocity":55,"programNumber":48},{"time":277333.0559999977,"duration":222.22200000000885,"noteNumber":52,"velocity":55,"programNumber":48},{"time":277777.49999999773,"duration":222.22200000000885,"noteNumber":60,"velocity":55,"programNumber":48},{"time":278221.94399999775,"duration":222.22200000000885,"noteNumber":57,"velocity":55,"programNumber":48},{"time":278666.38799999777,"duration":222.22200000000885,"noteNumber":54,"velocity":55,"programNumber":48},{"time":279555.2759999978,"duration":444.4440000000177,"noteNumber":69,"velocity":55,"programNumber":48},{"time":279999.7199999978,"duration":222.22200000000885,"noteNumber":67,"velocity":55,"programNumber":48},{"time":280444.16399999784,"duration":222.22200000000885,"noteNumber":69,"velocity":55,"programNumber":48},{"time":280888.60799999785,"duration":888.8879999999772,"noteNumber":67,"velocity":55,"programNumber":48},{"time":281777.49599999783,"duration":444.4440000000177,"noteNumber":66,"velocity":55,"programNumber":48},{"time":283110.8279999978,"duration":444.4440000000177,"noteNumber":66,"velocity":55,"programNumber":48},{"time":283555.27199999784,"duration":222.22200000000885,"noteNumber":67,"velocity":55,"programNumber":48},{"time":283999.71599999786,"duration":222.22200000000885,"noteNumber":71,"velocity":55,"programNumber":48},{"time":284444.1599999979,"duration":222.22200000000885,"noteNumber":64,"velocity":55,"programNumber":48},{"time":284888.6039999979,"duration":222.22200000000885,"noteNumber":60,"velocity":55,"programNumber":48},{"time":285333.0479999979,"duration":444.4440000000177,"noteNumber":57,"velocity":55,"programNumber":48},{"time":285999.71399999794,"duration":166.66649999999208,"noteNumber":69,"velocity":55,"programNumber":48},{"time":286221.93599999795,"duration":222.22200000000885,"noteNumber":69,"velocity":55,"programNumber":48},{"time":286444.15799999796,"duration":222.22200000000885,"noteNumber":67,"velocity":55,"programNumber":48},{"time":287999.71199999796,"duration":166.66649999999208,"noteNumber":55,"velocity":55,"programNumber":48},{"time":288221.933999998,"duration":166.66649999999208,"noteNumber":55,"velocity":55,"programNumber":48},{"time":288444.155999998,"duration":166.66649999999208,"noteNumber":57,"velocity":55,"programNumber":48},{"time":288666.377999998,"duration":166.66649999999208,"noteNumber":57,"velocity":55,"programNumber":48},{"time":288888.599999998,"duration":166.66649999999208,"noteNumber":59,"velocity":55,"programNumber":48},{"time":289110.821999998,"duration":166.66649999999208,"noteNumber":59,"velocity":55,"programNumber":48},{"time":289333.043999998,"duration":166.66649999999208,"noteNumber":55,"velocity":55,"programNumber":48},{"time":289555.265999998,"duration":166.66649999999208,"noteNumber":55,"velocity":55,"programNumber":48},{"time":289777.48799999803,"duration":166.66649999999208,"noteNumber":54,"velocity":55,"programNumber":48},{"time":289999.70999999804,"duration":166.66649999999208,"noteNumber":54,"velocity":55,"programNumber":48},{"time":290221.93199999805,"duration":166.66649999999208,"noteNumber":55,"velocity":55,"programNumber":48},{"time":290444.15399999806,"duration":166.66649999999208,"noteNumber":55,"velocity":55,"programNumber":48},{"time":290666.37599999807,"duration":166.66649999999208,"noteNumber":57,"velocity":55,"programNumber":48},{"time":290888.5979999981,"duration":166.66649999999208,"noteNumber":57,"velocity":55,"programNumber":48},{"time":291110.8199999981,"duration":166.66649999999208,"noteNumber":54,"velocity":55,"programNumber":48},{"time":291333.0419999981,"duration":166.66649999999208,"noteNumber":54,"velocity":55,"programNumber":48},{"time":291555.2639999981,"duration":166.66649999999208,"noteNumber":55,"velocity":55,"programNumber":48},{"time":291777.4859999981,"duration":166.66649999999208,"noteNumber":55,"velocity":55,"programNumber":48},{"time":291999.7079999981,"duration":166.66649999999208,"noteNumber":57,"velocity":55,"programNumber":48},{"time":292221.92999999813,"duration":166.66649999999208,"noteNumber":57,"velocity":55,"programNumber":48},{"time":292444.15199999814,"duration":166.66649999999208,"noteNumber":59,"velocity":55,"programNumber":48},{"time":292666.37399999815,"duration":166.66649999999208,"noteNumber":59,"velocity":55,"programNumber":48},{"time":292888.59599999816,"duration":166.66649999999208,"noteNumber":55,"velocity":55,"programNumber":48},{"time":293110.81799999817,"duration":166.66649999999208,"noteNumber":55,"velocity":55,"programNumber":48},{"time":293333.0399999982,"duration":166.66649999999208,"noteNumber":54,"velocity":55,"programNumber":48},{"time":293555.2619999982,"duration":166.66649999999208,"noteNumber":54,"velocity":55,"programNumber":48},{"time":293777.4839999982,"duration":166.66649999999208,"noteNumber":55,"velocity":55,"programNumber":48},{"time":293999.7059999982,"duration":166.66649999999208,"noteNumber":55,"velocity":55,"programNumber":48},{"time":294221.9279999982,"duration":166.66649999999208,"noteNumber":57,"velocity":55,"programNumber":48},{"time":294444.1499999982,"duration":166.66649999999208,"noteNumber":57,"velocity":55,"programNumber":48},{"time":294666.3719999982,"duration":166.66649999999208,"noteNumber":54,"velocity":55,"programNumber":48},{"time":294888.59399999824,"duration":166.66649999999208,"noteNumber":54,"velocity":55,"programNumber":48},{"time":295110.81599999825,"duration":166.66649999999208,"noteNumber":55,"velocity":55,"programNumber":48},{"time":295333.03799999825,"duration":166.66649999999208,"noteNumber":67,"velocity":83,"programNumber":48},{"time":295555.25999999826,"duration":166.66649999999208,"noteNumber":71,"velocity":83,"programNumber":48},{"time":295777.4819999983,"duration":166.66649999999208,"noteNumber":69,"velocity":83,"programNumber":48},{"time":295999.7039999983,"duration":166.66649999999208,"noteNumber":68,"velocity":83,"programNumber":48},{"time":296221.9259999983,"duration":166.66649999999208,"noteNumber":64,"velocity":83,"programNumber":48},{"time":296444.1479999983,"duration":166.66649999999208,"noteNumber":66,"velocity":83,"programNumber":48},{"time":296666.3699999983,"duration":166.66649999999208,"noteNumber":67,"velocity":83,"programNumber":48},{"time":296888.5919999983,"duration":166.66649999999208,"noteNumber":69,"velocity":83,"programNumber":48},{"time":297110.8139999983,"duration":166.66649999999208,"noteNumber":72,"velocity":83,"programNumber":48},{"time":297333.03599999833,"duration":166.66649999999208,"noteNumber":69,"velocity":85,"programNumber":48},{"time":297555.25799999834,"duration":166.66649999999208,"noteNumber":67,"velocity":85,"programNumber":48},{"time":297777.47999999835,"duration":166.66649999999208,"noteNumber":66,"velocity":85,"programNumber":48},{"time":297999.70199999836,"duration":166.66649999999208,"noteNumber":62,"velocity":86,"programNumber":48},{"time":298221.92399999837,"duration":166.66649999999208,"noteNumber":64,"velocity":85,"programNumber":48},{"time":298444.1459999984,"duration":166.66649999999208,"noteNumber":66,"velocity":85,"programNumber":48},{"time":298666.3679999984,"duration":166.66649999999208,"noteNumber":67,"velocity":85,"programNumber":48},{"time":298888.5899999984,"duration":166.66649999999208,"noteNumber":67,"velocity":85,"programNumber":48},{"time":299110.8119999984,"duration":166.66649999999208,"noteNumber":67,"velocity":85,"programNumber":48},{"time":299333.0339999984,"duration":166.66649999999208,"noteNumber":67,"velocity":85,"programNumber":48},{"time":299555.2559999984,"duration":166.66649999999208,"noteNumber":67,"velocity":85,"programNumber":48},{"time":299777.47799999843,"duration":166.66649999999208,"noteNumber":67,"velocity":85,"programNumber":48},{"time":299999.69999999844,"duration":166.66649999999208,"noteNumber":67,"velocity":85,"programNumber":48},{"time":300221.92199999845,"duration":166.66649999999208,"noteNumber":67,"velocity":85,"programNumber":48},{"time":300444.14399999846,"duration":222.22200000000885,"noteNumber":67,"velocity":85,"programNumber":48},{"time":300666.36599999847,"duration":166.66649999999208,"noteNumber":62,"velocity":85,"programNumber":48},{"time":300888.5879999985,"duration":111.11099999997532,"noteNumber":62,"velocity":85,"programNumber":48},{"time":301110.8099999984,"duration":111.11099999997532,"noteNumber":62,"velocity":85,"programNumber":48},{"time":301333.0319999984,"duration":166.66649999999208,"noteNumber":62,"velocity":85,"programNumber":48},{"time":301555.2539999984,"duration":166.66649999999208,"noteNumber":62,"velocity":85,"programNumber":48},{"time":301777.4759999984,"duration":166.66649999999208,"noteNumber":62,"velocity":85,"programNumber":48},{"time":301999.6979999984,"duration":166.66649999999208,"noteNumber":60,"velocity":85,"programNumber":48},{"time":302221.9199999984,"duration":166.66649999999208,"noteNumber":55,"velocity":85,"programNumber":48},{"time":302444.1419999984,"duration":166.66649999999208,"noteNumber":55,"velocity":53,"programNumber":48},{"time":302666.36399999843,"duration":166.66649999999208,"noteNumber":57,"velocity":53,"programNumber":48},{"time":302888.58599999844,"duration":166.66649999999208,"noteNumber":57,"velocity":53,"programNumber":48},{"time":303110.80799999845,"duration":166.66649999999208,"noteNumber":59,"velocity":53,"programNumber":48},{"time":303333.02999999846,"duration":166.66649999999208,"noteNumber":59,"velocity":53,"programNumber":48},{"time":303555.25199999847,"duration":166.66649999999208,"noteNumber":55,"velocity":53,"programNumber":48},{"time":303777.4739999985,"duration":166.66649999999208,"noteNumber":55,"velocity":53,"programNumber":48},{"time":303999.6959999985,"duration":166.66649999999208,"noteNumber":54,"velocity":55,"programNumber":48},{"time":304221.9179999985,"duration":166.66649999999208,"noteNumber":54,"velocity":55,"programNumber":48},{"time":304444.1399999985,"duration":166.66649999999208,"noteNumber":55,"velocity":55,"programNumber":48},{"time":304666.3619999985,"duration":166.66649999999208,"noteNumber":55,"velocity":55,"programNumber":48},{"time":304888.5839999985,"duration":166.66649999999208,"noteNumber":57,"velocity":55,"programNumber":48},{"time":305110.8059999985,"duration":166.66649999999208,"noteNumber":57,"velocity":55,"programNumber":48},{"time":305333.02799999854,"duration":166.66649999999208,"noteNumber":54,"velocity":55,"programNumber":48},{"time":305555.24999999854,"duration":166.66649999999208,"noteNumber":54,"velocity":55,"programNumber":48},{"time":305777.47199999855,"duration":166.66649999999208,"noteNumber":55,"velocity":55,"programNumber":48},{"time":305999.69399999856,"duration":166.66649999999208,"noteNumber":67,"velocity":55,"programNumber":48},{"time":306221.9159999986,"duration":166.66649999999208,"noteNumber":69,"velocity":55,"programNumber":48},{"time":306444.1379999986,"duration":166.66649999999208,"noteNumber":69,"velocity":55,"programNumber":48},{"time":306666.3599999986,"duration":166.66649999999208,"noteNumber":71,"velocity":55,"programNumber":48},{"time":306888.5819999986,"duration":166.66649999999208,"noteNumber":71,"velocity":55,"programNumber":48},{"time":307110.8039999986,"duration":166.66649999999208,"noteNumber":67,"velocity":55,"programNumber":48},{"time":307333.0259999986,"duration":166.66649999999208,"noteNumber":67,"velocity":55,"programNumber":48},{"time":307555.2479999986,"duration":166.66649999999208,"noteNumber":66,"velocity":55,"programNumber":48},{"time":307777.46999999863,"duration":166.66649999999208,"noteNumber":66,"velocity":55,"programNumber":48},{"time":307999.69199999864,"duration":166.66649999999208,"noteNumber":67,"velocity":55,"programNumber":48},{"time":308221.91399999865,"duration":166.66649999999208,"noteNumber":67,"velocity":55,"programNumber":48},{"time":308444.13599999866,"duration":166.66649999999208,"noteNumber":69,"velocity":55,"programNumber":48},{"time":308666.35799999867,"duration":166.66649999999208,"noteNumber":69,"velocity":55,"programNumber":48},{"time":308888.5799999987,"duration":166.66649999999208,"noteNumber":66,"velocity":55,"programNumber":48},{"time":309110.8019999987,"duration":166.66649999999208,"noteNumber":66,"velocity":55,"programNumber":48},{"time":309333.0239999987,"duration":166.66649999999208,"noteNumber":67,"velocity":55,"programNumber":48},{"time":309555.2459999987,"duration":166.66649999999208,"noteNumber":67,"velocity":85,"programNumber":48},{"time":309777.4679999987,"duration":166.66649999999208,"noteNumber":71,"velocity":85,"programNumber":48},{"time":309999.6899999987,"duration":166.66649999999208,"noteNumber":69,"velocity":85,"programNumber":48},{"time":310221.91199999873,"duration":166.66649999999208,"noteNumber":68,"velocity":85,"programNumber":48},{"time":310444.13399999874,"duration":166.66649999999208,"noteNumber":64,"velocity":85,"programNumber":48},{"time":310666.35599999875,"duration":166.66649999999208,"noteNumber":66,"velocity":85,"programNumber":48},{"time":310888.57799999876,"duration":166.66649999999208,"noteNumber":67,"velocity":85,"programNumber":48},{"time":311110.79999999877,"duration":166.66649999999208,"noteNumber":69,"velocity":85,"programNumber":48},{"time":311333.0219999988,"duration":166.66649999999208,"noteNumber":72,"velocity":85,"programNumber":48},{"time":311555.2439999988,"duration":166.66649999999208,"noteNumber":69,"velocity":85,"programNumber":48},{"time":311777.4659999988,"duration":166.66649999999208,"noteNumber":67,"velocity":85,"programNumber":48},{"time":311999.6879999988,"duration":166.66649999999208,"noteNumber":66,"velocity":85,"programNumber":48},{"time":312221.9099999988,"duration":166.66649999999208,"noteNumber":62,"velocity":85,"programNumber":48},{"time":312444.1319999988,"duration":166.66649999999208,"noteNumber":64,"velocity":85,"programNumber":48},{"time":312666.3539999988,"duration":166.66649999999208,"noteNumber":66,"velocity":85,"programNumber":48},{"time":312888.57599999884,"duration":166.66649999999208,"noteNumber":67,"velocity":85,"programNumber":48},{"time":313110.79799999885,"duration":166.66649999999208,"noteNumber":67,"velocity":85,"programNumber":48},{"time":313333.01999999885,"duration":166.66649999999208,"noteNumber":67,"velocity":85,"programNumber":48},{"time":313555.24199999886,"duration":166.66649999999208,"noteNumber":67,"velocity":85,"programNumber":48},{"time":313777.4639999989,"duration":166.66649999999208,"noteNumber":67,"velocity":85,"programNumber":48},{"time":313999.6859999989,"duration":166.66649999999208,"noteNumber":67,"velocity":85,"programNumber":48},{"time":314221.9079999989,"duration":166.66649999999208,"noteNumber":67,"velocity":85,"programNumber":48},{"time":314444.1299999989,"duration":166.66649999999208,"noteNumber":67,"velocity":85,"programNumber":48},{"time":314666.3519999989,"duration":166.66649999999208,"noteNumber":67,"velocity":85,"programNumber":48},{"time":314888.5739999989,"duration":166.66649999999208,"noteNumber":71,"velocity":85,"programNumber":48},{"time":315110.7959999989,"duration":166.66649999999208,"noteNumber":74,"velocity":85,"programNumber":48},{"time":315333.01799999893,"duration":166.66649999999208,"noteNumber":74,"velocity":85,"programNumber":48},{"time":315555.23999999894,"duration":166.66649999999208,"noteNumber":74,"velocity":85,"programNumber":48},{"time":315777.46199999895,"duration":166.66649999999208,"noteNumber":74,"velocity":85,"programNumber":48},{"time":315999.68399999896,"duration":166.66649999999208,"noteNumber":74,"velocity":85,"programNumber":48},{"time":316221.90599999897,"duration":166.66649999999208,"noteNumber":72,"velocity":85,"programNumber":48},{"time":316451.53539999895,"duration":166.66649999999208,"noteNumber":71,"velocity":85,"programNumber":48},{"time":316673.75739999895,"duration":166.66649999999208,"noteNumber":62,"velocity":85,"programNumber":48},{"time":316895.97939999896,"duration":166.66649999999208,"noteNumber":64,"velocity":85,"programNumber":48},{"time":317118.201399999,"duration":166.66649999999208,"noteNumber":66,"velocity":85,"programNumber":48},{"time":317340.423399999,"duration":166.66649999999208,"noteNumber":67,"velocity":85,"programNumber":48},{"time":317562.645399999,"duration":166.66649999999208,"noteNumber":67,"velocity":85,"programNumber":48},{"time":317784.867399999,"duration":166.66649999999208,"noteNumber":69,"velocity":85,"programNumber":48},{"time":318007.089399999,"duration":166.66649999999208,"noteNumber":69,"velocity":85,"programNumber":48},{"time":318229.311399999,"duration":166.66649999999208,"noteNumber":71,"velocity":85,"programNumber":48},{"time":318451.533399999,"duration":166.66649999999208,"noteNumber":54,"velocity":85,"programNumber":48},{"time":318673.75539999903,"duration":166.66649999999208,"noteNumber":55,"velocity":85,"programNumber":48},{"time":318895.97739999904,"duration":166.66649999999208,"noteNumber":57,"velocity":85,"programNumber":48},{"time":319118.19939999905,"duration":166.66649999999208,"noteNumber":59,"velocity":85,"programNumber":48},{"time":319340.42139999906,"duration":166.66649999999208,"noteNumber":59,"velocity":85,"programNumber":48},{"time":319562.64339999907,"duration":166.66649999999208,"noteNumber":60,"velocity":85,"programNumber":48},{"time":319784.8653999991,"duration":166.66649999999208,"noteNumber":60,"velocity":85,"programNumber":48},{"time":319999.67999999906,"duration":166.66649999999208,"noteNumber":62,"velocity":85,"programNumber":48},{"time":320221.90199999907,"duration":166.66649999999208,"noteNumber":62,"velocity":85,"programNumber":48},{"time":320444.1239999991,"duration":166.66649999999208,"noteNumber":63,"velocity":85,"programNumber":48},{"time":320666.3459999991,"duration":166.66649999999208,"noteNumber":63,"velocity":85,"programNumber":48},{"time":320888.5679999991,"duration":444.4440000000177,"noteNumber":64,"velocity":85,"programNumber":48},{"time":321777.45599999913,"duration":1333.3319999999949,"noteNumber":57,"velocity":70,"programNumber":48},{"time":323110.7879999991,"duration":222.22200000000885,"noteNumber":55,"velocity":70,"programNumber":48},{"time":323333.00999999914,"duration":222.22200000000885,"noteNumber":54,"velocity":70,"programNumber":48},{"time":323555.23199999915,"duration":444.4440000000177,"noteNumber":55,"velocity":70,"programNumber":48},{"time":325333.00799999916,"duration":1333.3319999999949,"noteNumber":57,"velocity":70,"programNumber":48},{"time":326666.33999999915,"duration":222.22200000000885,"noteNumber":55,"velocity":70,"programNumber":48},{"time":326888.56199999916,"duration":222.22200000000885,"noteNumber":54,"velocity":70,"programNumber":48},{"time":327110.78399999917,"duration":444.4440000000177,"noteNumber":55,"velocity":70,"programNumber":48},{"time":327999.6719999992,"duration":444.4440000000177,"noteNumber":67,"velocity":70,"programNumber":48},{"time":328888.55999999924,"duration":444.4440000000177,"noteNumber":64,"velocity":92,"programNumber":48},{"time":329777.4479999993,"duration":444.4440000000177,"noteNumber":69,"velocity":111,"programNumber":48},{"time":329777.4479999993,"duration":444.4440000000177,"noteNumber":62,"velocity":111,"programNumber":48},{"time":330666.3359999993,"duration":74.07400000002235,"noteNumber":55,"velocity":97,"programNumber":48},{"time":330777.44699999935,"duration":74.07400000002235,"noteNumber":55,"velocity":94,"programNumber":48},{"time":330888.5579999994,"duration":74.07400000002235,"noteNumber":55,"velocity":93,"programNumber":48},{"time":330999.6689999994,"duration":74.07400000002235,"noteNumber":55,"velocity":92,"programNumber":48},{"time":331110.77999999945,"duration":74.07400000002235,"noteNumber":55,"velocity":90,"programNumber":48},{"time":331221.8909999995,"duration":74.07400000002235,"noteNumber":55,"velocity":90,"programNumber":48},{"time":331333.0019999995,"duration":74.07400000002235,"noteNumber":55,"velocity":90,"programNumber":48},{"time":331444.11299999955,"duration":74.07400000002235,"noteNumber":55,"velocity":90,"programNumber":48},{"time":331555.2239999996,"duration":74.07400000002235,"noteNumber":55,"velocity":88,"programNumber":48},{"time":331666.3349999996,"duration":74.07400000002235,"noteNumber":55,"velocity":88,"programNumber":48},{"time":331777.44599999965,"duration":74.07400000002235,"noteNumber":55,"velocity":90,"programNumber":48},{"time":331888.5569999997,"duration":74.07400000002235,"noteNumber":55,"velocity":90,"programNumber":48},{"time":331999.6679999997,"duration":74.07400000002235,"noteNumber":55,"velocity":88,"programNumber":48},{"time":332110.77899999975,"duration":74.07400000002235,"noteNumber":55,"velocity":87,"programNumber":48},{"time":332221.8899999998,"duration":74.07400000002235,"noteNumber":55,"velocity":87,"programNumber":48},{"time":332333.0009999998,"duration":74.07400000002235,"noteNumber":55,"velocity":86,"programNumber":48},{"time":332444.11199999985,"duration":74.07400000002235,"noteNumber":55,"velocity":86,"programNumber":48},{"time":332555.2229999999,"duration":74.07400000002235,"noteNumber":55,"velocity":86,"programNumber":48},{"time":332666.3339999999,"duration":74.07400000002235,"noteNumber":55,"velocity":87,"programNumber":48},{"time":332777.44499999995,"duration":74.07400000002235,"noteNumber":55,"velocity":89,"programNumber":48},{"time":332888.556,"duration":74.07400000002235,"noteNumber":55,"velocity":90,"programNumber":48},{"time":332999.667,"duration":74.07400000002235,"noteNumber":55,"velocity":90,"programNumber":48},{"time":333110.77800000005,"duration":74.07400000002235,"noteNumber":55,"velocity":90,"programNumber":48},{"time":333221.8890000001,"duration":74.07400000002235,"noteNumber":55,"velocity":89,"programNumber":48},{"time":333333.0000000001,"duration":74.07400000002235,"noteNumber":55,"velocity":85,"programNumber":48},{"time":333444.11100000015,"duration":74.07400000002235,"noteNumber":55,"velocity":87,"programNumber":48},{"time":333555.2220000002,"duration":74.07400000002235,"noteNumber":55,"velocity":87,"programNumber":48},{"time":333666.3330000002,"duration":74.07400000002235,"noteNumber":55,"velocity":88,"programNumber":48},{"time":333777.44400000025,"duration":74.07400000002235,"noteNumber":57,"velocity":89,"programNumber":48},{"time":333888.5550000003,"duration":74.07400000002235,"noteNumber":57,"velocity":90,"programNumber":48},{"time":333999.6660000003,"duration":74.07400000002235,"noteNumber":57,"velocity":90,"programNumber":48},{"time":334110.77700000035,"duration":74.07400000002235,"noteNumber":57,"velocity":90,"programNumber":48},{"time":334221.8880000004,"duration":74.07400000002235,"noteNumber":55,"velocity":90,"programNumber":48},{"time":334332.9990000004,"duration":74.07400000002235,"noteNumber":55,"velocity":90,"programNumber":48},{"time":334444.11000000045,"duration":74.07400000002235,"noteNumber":55,"velocity":90,"programNumber":48},{"time":334555.2210000005,"duration":74.07400000002235,"noteNumber":55,"velocity":90,"programNumber":48},{"time":334666.3320000005,"duration":74.07400000002235,"noteNumber":55,"velocity":90,"programNumber":48},{"time":334777.44300000055,"duration":74.07400000002235,"noteNumber":55,"velocity":90,"programNumber":48},{"time":334888.5540000006,"duration":74.07400000002235,"noteNumber":55,"velocity":90,"programNumber":48},{"time":334999.6650000006,"duration":74.07400000002235,"noteNumber":55,"velocity":90,"programNumber":48},{"time":335110.77600000065,"duration":74.07400000002235,"noteNumber":55,"velocity":89,"programNumber":48},{"time":335221.8870000007,"duration":74.07400000002235,"noteNumber":55,"velocity":89,"programNumber":48},{"time":335332.9980000007,"duration":74.07400000002235,"noteNumber":55,"velocity":89,"programNumber":48},{"time":335444.10900000075,"duration":74.07400000002235,"noteNumber":55,"velocity":89,"programNumber":48},{"time":335555.2200000008,"duration":74.07400000002235,"noteNumber":55,"velocity":89,"programNumber":48},{"time":335666.3310000008,"duration":74.07400000002235,"noteNumber":55,"velocity":90,"programNumber":48},{"time":335777.44200000085,"duration":74.07400000002235,"noteNumber":55,"velocity":95,"programNumber":48},{"time":335888.5530000009,"duration":74.07400000002235,"noteNumber":55,"velocity":96,"programNumber":48},{"time":335999.6640000009,"duration":74.07400000002235,"noteNumber":55,"velocity":97,"programNumber":48},{"time":336110.77500000095,"duration":74.07400000002235,"noteNumber":55,"velocity":98,"programNumber":48},{"time":336221.886000001,"duration":74.07400000002235,"noteNumber":55,"velocity":99,"programNumber":48},{"time":336332.997000001,"duration":74.07400000002235,"noteNumber":55,"velocity":99,"programNumber":48},{"time":336444.10800000106,"duration":74.07400000002235,"noteNumber":55,"velocity":99,"programNumber":48},{"time":336555.2190000011,"duration":74.07400000002235,"noteNumber":55,"velocity":99,"programNumber":48},{"time":336666.3300000011,"duration":74.07400000002235,"noteNumber":55,"velocity":99,"programNumber":48},{"time":336777.44100000116,"duration":74.07400000002235,"noteNumber":55,"velocity":99,"programNumber":48},{"time":336888.5520000012,"duration":74.07400000002235,"noteNumber":55,"velocity":97,"programNumber":48},{"time":336999.6630000012,"duration":74.07400000002235,"noteNumber":55,"velocity":97,"programNumber":48},{"time":337110.77400000126,"duration":74.07400000002235,"noteNumber":55,"velocity":96,"programNumber":48},{"time":337221.8850000013,"duration":74.07400000002235,"noteNumber":55,"velocity":94,"programNumber":48},{"time":337332.9960000013,"duration":74.07400000002235,"noteNumber":57,"velocity":94,"programNumber":48},{"time":337444.10700000136,"duration":74.07400000002235,"noteNumber":57,"velocity":94,"programNumber":48},{"time":337555.2180000014,"duration":74.07400000002235,"noteNumber":57,"velocity":95,"programNumber":48},{"time":337666.3290000014,"duration":74.07400000002235,"noteNumber":57,"velocity":95,"programNumber":48},{"time":337777.44000000146,"duration":166.66649999999208,"noteNumber":55,"velocity":96,"programNumber":48},{"time":337999.66200000147,"duration":166.66649999999208,"noteNumber":59,"velocity":103,"programNumber":48},{"time":338221.8840000015,"duration":166.66649999999208,"noteNumber":62,"velocity":103,"programNumber":48},{"time":338444.1060000015,"duration":166.66649999999208,"noteNumber":67,"velocity":103,"programNumber":48},{"time":338666.3280000015,"duration":166.66649999999208,"noteNumber":71,"velocity":103,"programNumber":48},{"time":338888.5500000015,"duration":166.66649999999208,"noteNumber":67,"velocity":103,"programNumber":48},{"time":339110.7720000015,"duration":166.66649999999208,"noteNumber":74,"velocity":103,"programNumber":48},{"time":339332.9940000015,"duration":166.66649999999208,"noteNumber":71,"velocity":103,"programNumber":48},{"time":339566.3271000015,"duration":370.36999999999534,"noteNumber":67,"velocity":103,"programNumber":48},{"time":340010.7711000015,"duration":222.22200000000885,"noteNumber":55,"velocity":103,"programNumber":48},{"time":340344.1041000015,"duration":55.555500000016764,"noteNumber":55,"velocity":103,"programNumber":48},{"time":340455.21510000154,"duration":444.4440000000177,"noteNumber":55,"velocity":103,"programNumber":48}],[{"time":0,"duration":444.444,"noteNumber":55,"velocity":85,"programNumber":44},{"time":666.666,"duration":111.11099999999999,"noteNumber":50,"velocity":85,"programNumber":44},{"time":888.888,"duration":444.4440000000001,"noteNumber":55,"velocity":85,"programNumber":44},{"time":1555.554,"duration":111.1110000000001,"noteNumber":50,"velocity":85,"programNumber":44},{"time":1777.7760000000003,"duration":111.1110000000001,"noteNumber":55,"velocity":85,"programNumber":44},{"time":1999.9980000000005,"duration":111.11099999999988,"noteNumber":50,"velocity":85,"programNumber":44},{"time":2222.2200000000003,"duration":111.11099999999988,"noteNumber":55,"velocity":85,"programNumber":44},{"time":2444.442,"duration":111.11099999999988,"noteNumber":59,"velocity":85,"programNumber":44},{"time":2666.6639999999998,"duration":444.44399999999996,"noteNumber":62,"velocity":85,"programNumber":44},{"time":3555.5519999999997,"duration":444.44399999999996,"noteNumber":60,"velocity":85,"programNumber":44},{"time":4222.218,"duration":111.11099999999988,"noteNumber":57,"velocity":85,"programNumber":44},{"time":4444.44,"duration":444.4440000000004,"noteNumber":60,"velocity":85,"programNumber":44},{"time":5111.106,"duration":111.11099999999988,"noteNumber":57,"velocity":85,"programNumber":44},{"time":5333.3279999999995,"duration":111.11099999999988,"noteNumber":60,"velocity":85,"programNumber":44},{"time":5555.549999999999,"duration":111.11099999999988,"noteNumber":57,"velocity":85,"programNumber":44},{"time":5777.771999999999,"duration":111.11099999999988,"noteNumber":54,"velocity":85,"programNumber":44},{"time":5999.993999999999,"duration":111.11099999999988,"noteNumber":57,"velocity":85,"programNumber":44},{"time":6222.2159999999985,"duration":444.4440000000004,"noteNumber":50,"velocity":85,"programNumber":44},{"time":7111.103999999999,"duration":166.66650000000027,"noteNumber":55,"velocity":85,"programNumber":44},{"time":7333.326,"duration":166.66650000000027,"noteNumber":55,"velocity":85,"programNumber":44},{"time":7555.548000000001,"duration":166.66650000000027,"noteNumber":55,"velocity":85,"programNumber":44},{"time":7777.770000000001,"duration":166.66650000000027,"noteNumber":55,"velocity":85,"programNumber":44},{"time":7999.992000000002,"duration":166.66650000000027,"noteNumber":55,"velocity":85,"programNumber":44},{"time":8222.214000000002,"duration":166.66649999999936,"noteNumber":55,"velocity":85,"programNumber":44},{"time":8444.436000000002,"duration":166.66649999999936,"noteNumber":55,"velocity":85,"programNumber":44},{"time":8666.658000000001,"duration":166.66649999999936,"noteNumber":55,"velocity":85,"programNumber":44},{"time":8888.880000000001,"duration":166.66649999999936,"noteNumber":55,"velocity":85,"programNumber":44},{"time":9111.102,"duration":166.66649999999936,"noteNumber":55,"velocity":85,"programNumber":44},{"time":9333.324,"duration":166.66649999999936,"noteNumber":55,"velocity":85,"programNumber":44},{"time":9555.546,"duration":166.66649999999936,"noteNumber":55,"velocity":85,"programNumber":44},{"time":9777.768,"duration":166.66649999999936,"noteNumber":55,"velocity":85,"programNumber":44},{"time":9999.99,"duration":166.66649999999936,"noteNumber":55,"velocity":85,"programNumber":44},{"time":10222.212,"duration":166.66649999999936,"noteNumber":55,"velocity":85,"programNumber":44},{"time":10444.434,"duration":166.66649999999936,"noteNumber":55,"velocity":85,"programNumber":44},{"time":10666.655999999999,"duration":166.66649999999936,"noteNumber":55,"velocity":85,"programNumber":44},{"time":10888.877999999999,"duration":166.66649999999936,"noteNumber":55,"velocity":85,"programNumber":44},{"time":11111.099999999999,"duration":166.66649999999936,"noteNumber":55,"velocity":85,"programNumber":44},{"time":11333.321999999998,"duration":166.66649999999936,"noteNumber":55,"velocity":85,"programNumber":44},{"time":11555.543999999998,"duration":166.66649999999936,"noteNumber":55,"velocity":85,"programNumber":44},{"time":11777.765999999998,"duration":166.66649999999936,"noteNumber":55,"velocity":85,"programNumber":44},{"time":11999.987999999998,"duration":166.66649999999936,"noteNumber":55,"velocity":85,"programNumber":44},{"time":12222.209999999997,"duration":166.66649999999936,"noteNumber":55,"velocity":85,"programNumber":44},{"time":12444.431999999997,"duration":166.66649999999936,"noteNumber":55,"velocity":85,"programNumber":44},{"time":12666.653999999997,"duration":166.66649999999936,"noteNumber":55,"velocity":85,"programNumber":44},{"time":12888.875999999997,"duration":166.66649999999936,"noteNumber":55,"velocity":85,"programNumber":44},{"time":13111.097999999996,"duration":166.66649999999936,"noteNumber":55,"velocity":85,"programNumber":44},{"time":13333.319999999996,"duration":166.66649999999936,"noteNumber":55,"velocity":85,"programNumber":44},{"time":13555.541999999996,"duration":166.66649999999936,"noteNumber":55,"velocity":85,"programNumber":44},{"time":13777.763999999996,"duration":166.66649999999936,"noteNumber":55,"velocity":85,"programNumber":44},{"time":13999.985999999995,"duration":166.66649999999936,"noteNumber":55,"velocity":85,"programNumber":44},{"time":14222.207999999995,"duration":166.66649999999936,"noteNumber":55,"velocity":85,"programNumber":44},{"time":14444.429999999995,"duration":166.66649999999936,"noteNumber":55,"velocity":85,"programNumber":44},{"time":14666.651999999995,"duration":166.66649999999936,"noteNumber":57,"velocity":85,"programNumber":44},{"time":14888.873999999994,"duration":166.66649999999936,"noteNumber":57,"velocity":85,"programNumber":44},{"time":15111.095999999994,"duration":166.66649999999936,"noteNumber":59,"velocity":85,"programNumber":44},{"time":15333.317999999994,"duration":166.66649999999936,"noteNumber":59,"velocity":85,"programNumber":44},{"time":15555.539999999994,"duration":166.66649999999936,"noteNumber":54,"velocity":85,"programNumber":44},{"time":15777.761999999993,"duration":166.66649999999936,"noteNumber":54,"velocity":85,"programNumber":44},{"time":15999.983999999993,"duration":166.66649999999936,"noteNumber":55,"velocity":85,"programNumber":44},{"time":16222.205999999993,"duration":166.66650000000118,"noteNumber":55,"velocity":85,"programNumber":44},{"time":16444.427999999993,"duration":166.66649999999936,"noteNumber":57,"velocity":85,"programNumber":44},{"time":16666.64999999999,"duration":166.66649999999936,"noteNumber":57,"velocity":85,"programNumber":44},{"time":16888.87199999999,"duration":444.4439999999995,"noteNumber":59,"velocity":85,"programNumber":44},{"time":19555.53599999999,"duration":888.887999999999,"noteNumber":50,"velocity":47,"programNumber":44},{"time":20444.423999999988,"duration":888.887999999999,"noteNumber":52,"velocity":47,"programNumber":44},{"time":21333.311999999987,"duration":333.3329999999987,"noteNumber":48,"velocity":47,"programNumber":44},{"time":21777.755999999987,"duration":333.3329999999987,"noteNumber":48,"velocity":47,"programNumber":44},{"time":22222.199999999986,"duration":333.3329999999987,"noteNumber":50,"velocity":47,"programNumber":44},{"time":22666.643999999986,"duration":333.3329999999987,"noteNumber":50,"velocity":47,"programNumber":44},{"time":23111.087999999985,"duration":222.22200000000157,"noteNumber":47,"velocity":47,"programNumber":44},{"time":23555.53199999999,"duration":222.22200000000157,"noteNumber":50,"velocity":47,"programNumber":44},{"time":23999.97599999999,"duration":444.4439999999995,"noteNumber":55,"velocity":47,"programNumber":44},{"time":26666.639999999992,"duration":888.887999999999,"noteNumber":50,"velocity":47,"programNumber":44},{"time":27555.52799999999,"duration":888.887999999999,"noteNumber":52,"velocity":47,"programNumber":44},{"time":28444.41599999999,"duration":333.3329999999987,"noteNumber":48,"velocity":47,"programNumber":44},{"time":28888.85999999999,"duration":333.3329999999987,"noteNumber":48,"velocity":47,"programNumber":44},{"time":29333.30399999999,"duration":333.3329999999987,"noteNumber":50,"velocity":47,"programNumber":44},{"time":29777.74799999999,"duration":333.3329999999987,"noteNumber":50,"velocity":47,"programNumber":44},{"time":30222.19199999999,"duration":166.66649999999936,"noteNumber":55,"velocity":91,"programNumber":44},{"time":30444.413999999986,"duration":166.66649999999936,"noteNumber":55,"velocity":83,"programNumber":44},{"time":30666.635999999984,"duration":166.66649999999936,"noteNumber":55,"velocity":83,"programNumber":44},{"time":30888.857999999982,"duration":166.66649999999936,"noteNumber":55,"velocity":83,"programNumber":44},{"time":31111.07999999998,"duration":166.66649999999936,"noteNumber":55,"velocity":59,"programNumber":44},{"time":31333.301999999978,"duration":166.66649999999936,"noteNumber":55,"velocity":59,"programNumber":44},{"time":31555.523999999976,"duration":166.66649999999936,"noteNumber":55,"velocity":59,"programNumber":44},{"time":31777.745999999974,"duration":166.66649999999936,"noteNumber":55,"velocity":59,"programNumber":44},{"time":31999.96799999997,"duration":166.66649999999936,"noteNumber":55,"velocity":92,"programNumber":44},{"time":32222.18999999997,"duration":166.66649999999936,"noteNumber":55,"velocity":79,"programNumber":44},{"time":32444.411999999968,"duration":166.66649999999936,"noteNumber":55,"velocity":79,"programNumber":44},{"time":32666.633999999965,"duration":166.666500000003,"noteNumber":55,"velocity":79,"programNumber":44},{"time":32888.85599999997,"duration":166.66649999999936,"noteNumber":55,"velocity":59,"programNumber":44},{"time":33111.07799999997,"duration":166.66649999999936,"noteNumber":55,"velocity":59,"programNumber":44},{"time":33333.299999999974,"duration":166.66649999999936,"noteNumber":55,"velocity":59,"programNumber":44},{"time":33555.521999999975,"duration":166.66649999999936,"noteNumber":55,"velocity":59,"programNumber":44},{"time":33777.74399999998,"duration":166.66649999999936,"noteNumber":55,"velocity":59,"programNumber":44},{"time":33999.96599999998,"duration":166.66649999999936,"noteNumber":55,"velocity":40,"programNumber":44},{"time":34222.18799999998,"duration":166.66649999999936,"noteNumber":55,"velocity":43,"programNumber":44},{"time":34444.40999999998,"duration":166.66649999999936,"noteNumber":55,"velocity":46,"programNumber":44},{"time":34666.63199999998,"duration":166.66649999999936,"noteNumber":55,"velocity":49,"programNumber":44},{"time":34888.853999999985,"duration":166.66649999999936,"noteNumber":55,"velocity":52,"programNumber":44},{"time":35111.07599999999,"duration":166.66649999999936,"noteNumber":55,"velocity":55,"programNumber":44},{"time":35333.29799999999,"duration":166.66649999999936,"noteNumber":55,"velocity":58,"programNumber":44},{"time":35555.51999999999,"duration":166.66649999999936,"noteNumber":55,"velocity":61,"programNumber":44},{"time":35777.74199999999,"duration":166.66649999999936,"noteNumber":55,"velocity":64,"programNumber":44},{"time":35999.96399999999,"duration":166.66649999999936,"noteNumber":54,"velocity":67,"programNumber":44},{"time":36222.185999999994,"duration":166.66649999999936,"noteNumber":54,"velocity":70,"programNumber":44},{"time":36444.407999999996,"duration":166.66649999999936,"noteNumber":55,"velocity":73,"programNumber":44},{"time":36666.63,"duration":166.66649999999936,"noteNumber":55,"velocity":76,"programNumber":44},{"time":36888.852,"duration":166.66649999999936,"noteNumber":52,"velocity":79,"programNumber":44},{"time":37111.074,"duration":166.66649999999936,"noteNumber":52,"velocity":82,"programNumber":44},{"time":37333.296,"duration":166.66649999999936,"noteNumber":50,"velocity":85,"programNumber":44},{"time":37555.518000000004,"duration":166.66649999999936,"noteNumber":50,"velocity":85,"programNumber":44},{"time":37777.740000000005,"duration":166.66649999999936,"noteNumber":50,"velocity":85,"programNumber":44},{"time":37999.96200000001,"duration":166.66649999999936,"noteNumber":50,"velocity":85,"programNumber":44},{"time":38222.18400000001,"duration":166.66649999999936,"noteNumber":50,"velocity":85,"programNumber":44},{"time":38444.40600000001,"duration":166.66649999999936,"noteNumber":50,"velocity":85,"programNumber":44},{"time":38666.62800000001,"duration":166.66649999999936,"noteNumber":50,"velocity":85,"programNumber":44},{"time":38888.85000000001,"duration":166.66649999999936,"noteNumber":50,"velocity":85,"programNumber":44},{"time":39111.072000000015,"duration":166.66649999999936,"noteNumber":50,"velocity":85,"programNumber":44},{"time":39333.294000000016,"duration":166.66649999999936,"noteNumber":50,"velocity":85,"programNumber":44},{"time":39555.51600000002,"duration":166.66649999999936,"noteNumber":50,"velocity":85,"programNumber":44},{"time":39777.73800000002,"duration":166.66649999999936,"noteNumber":50,"velocity":85,"programNumber":44},{"time":39999.96000000002,"duration":166.66649999999936,"noteNumber":50,"velocity":85,"programNumber":44},{"time":40222.18200000002,"duration":166.66649999999936,"noteNumber":50,"velocity":85,"programNumber":44},{"time":40444.404000000024,"duration":166.66649999999936,"noteNumber":50,"velocity":85,"programNumber":44},{"time":40666.626000000026,"duration":166.66649999999936,"noteNumber":50,"velocity":85,"programNumber":44},{"time":40888.84800000003,"duration":166.66649999999936,"noteNumber":50,"velocity":85,"programNumber":44},{"time":41111.07000000003,"duration":166.66649999999936,"noteNumber":52,"velocity":85,"programNumber":44},{"time":41333.29200000003,"duration":166.66649999999936,"noteNumber":54,"velocity":85,"programNumber":44},{"time":41555.51400000003,"duration":166.66649999999936,"noteNumber":52,"velocity":85,"programNumber":44},{"time":41777.73600000003,"duration":166.66649999999936,"noteNumber":50,"velocity":85,"programNumber":44},{"time":41999.958000000035,"duration":166.66649999999936,"noteNumber":52,"velocity":85,"programNumber":44},{"time":42222.18000000004,"duration":166.66649999999936,"noteNumber":54,"velocity":85,"programNumber":44},{"time":42444.40200000004,"duration":166.66649999999936,"noteNumber":50,"velocity":85,"programNumber":44},{"time":42666.62400000004,"duration":166.66649999999936,"noteNumber":55,"velocity":85,"programNumber":44},{"time":42888.84600000004,"duration":166.66649999999936,"noteNumber":57,"velocity":85,"programNumber":44},{"time":43111.06800000004,"duration":166.66649999999936,"noteNumber":59,"velocity":85,"programNumber":44},{"time":43333.290000000045,"duration":166.66649999999936,"noteNumber":57,"velocity":85,"programNumber":44},{"time":43555.512000000046,"duration":166.66649999999936,"noteNumber":55,"velocity":85,"programNumber":44},{"time":43777.73400000005,"duration":166.66649999999936,"noteNumber":57,"velocity":85,"programNumber":44},{"time":43999.95600000005,"duration":166.66649999999936,"noteNumber":59,"velocity":85,"programNumber":44},{"time":44222.17800000005,"duration":166.66649999999936,"noteNumber":56,"velocity":85,"programNumber":44},{"time":44444.40000000005,"duration":166.66649999999936,"noteNumber":57,"velocity":85,"programNumber":44},{"time":44666.622000000054,"duration":166.66649999999936,"noteNumber":57,"velocity":85,"programNumber":44},{"time":44888.844000000056,"duration":166.66649999999936,"noteNumber":57,"velocity":85,"programNumber":44},{"time":45111.06600000006,"duration":166.66649999999936,"noteNumber":57,"velocity":85,"programNumber":44},{"time":45333.28800000006,"duration":166.66649999999936,"noteNumber":57,"velocity":85,"programNumber":44},{"time":45555.51000000006,"duration":166.66649999999936,"noteNumber":57,"velocity":85,"programNumber":44},{"time":45777.73200000006,"duration":166.66649999999936,"noteNumber":57,"velocity":85,"programNumber":44},{"time":45999.95400000006,"duration":166.66649999999936,"noteNumber":57,"velocity":85,"programNumber":44},{"time":46222.176000000065,"duration":166.66649999999936,"noteNumber":57,"velocity":85,"programNumber":44},{"time":46444.39800000007,"duration":166.66649999999936,"noteNumber":45,"velocity":85,"programNumber":44},{"time":46666.62000000007,"duration":166.66649999999936,"noteNumber":45,"velocity":85,"programNumber":44},{"time":46888.84200000007,"duration":166.66649999999936,"noteNumber":45,"velocity":85,"programNumber":44},{"time":47111.06400000007,"duration":444.44400000000314,"noteNumber":45,"velocity":85,"programNumber":44},{"time":49333.28400000007,"duration":222.22200000000157,"noteNumber":51,"velocity":55,"programNumber":44},{"time":49777.728000000076,"duration":222.22200000000157,"noteNumber":52,"velocity":55,"programNumber":44},{"time":50222.17200000008,"duration":222.22200000000157,"noteNumber":50,"velocity":55,"programNumber":44},{"time":50666.61600000008,"duration":222.22200000000157,"noteNumber":49,"velocity":55,"programNumber":44},{"time":51111.060000000085,"duration":222.22200000000157,"noteNumber":45,"velocity":55,"programNumber":44},{"time":51999.948000000084,"duration":444.44400000000314,"noteNumber":46,"velocity":55,"programNumber":44},{"time":52444.39200000009,"duration":222.22200000000157,"noteNumber":47,"velocity":55,"programNumber":44},{"time":52888.83600000009,"duration":222.22200000000157,"noteNumber":43,"velocity":55,"programNumber":44},{"time":53333.28000000009,"duration":333.3329999999987,"noteNumber":45,"velocity":55,"programNumber":44},{"time":53777.72400000009,"duration":666.6659999999974,"noteNumber":57,"velocity":55,"programNumber":44},{"time":54444.39000000009,"duration":222.22200000000157,"noteNumber":56,"velocity":55,"programNumber":44},{"time":54666.61200000009,"duration":222.22200000000157,"noteNumber":55,"velocity":55,"programNumber":44},{"time":54888.83400000009,"duration":222.22200000000157,"noteNumber":52,"velocity":55,"programNumber":44},{"time":55111.05600000009,"duration":222.22200000000157,"noteNumber":50,"velocity":55,"programNumber":44},{"time":55555.500000000095,"duration":222.22200000000157,"noteNumber":52,"velocity":55,"programNumber":44},{"time":55999.9440000001,"duration":222.22200000000157,"noteNumber":54,"velocity":55,"programNumber":44},{"time":56444.3880000001,"duration":222.22200000000157,"noteNumber":51,"velocity":55,"programNumber":44},{"time":56888.832000000104,"duration":222.22200000000157,"noteNumber":52,"velocity":55,"programNumber":44},{"time":57333.27600000011,"duration":222.22200000000157,"noteNumber":50,"velocity":55,"programNumber":44},{"time":57777.72000000011,"duration":222.22200000000157,"noteNumber":49,"velocity":55,"programNumber":44},{"time":58222.16400000011,"duration":222.22200000000157,"noteNumber":45,"velocity":55,"programNumber":44},{"time":58666.60800000012,"duration":222.22200000000157,"noteNumber":47,"velocity":55,"programNumber":44},{"time":59111.05200000012,"duration":222.22200000000157,"noteNumber":55,"velocity":55,"programNumber":44},{"time":59555.49600000012,"duration":222.22200000000157,"noteNumber":57,"velocity":55,"programNumber":44},{"time":59999.940000000126,"duration":222.22200000000157,"noteNumber":45,"velocity":55,"programNumber":44},{"time":60444.38400000013,"duration":444.44400000000314,"noteNumber":50,"velocity":55,"programNumber":44},{"time":62222.160000000134,"duration":444.44400000000314,"noteNumber":45,"velocity":55,"programNumber":44},{"time":63999.93600000014,"duration":444.44400000000314,"noteNumber":50,"velocity":55,"programNumber":44},{"time":65777.71200000015,"duration":444.44400000000314,"noteNumber":45,"velocity":55,"programNumber":44},{"time":67777.71000000015,"duration":166.66650000000664,"noteNumber":50,"velocity":55,"programNumber":44},{"time":67999.93200000016,"duration":166.66650000000664,"noteNumber":54,"velocity":55,"programNumber":44},{"time":68222.15400000017,"duration":166.66650000000664,"noteNumber":52,"velocity":55,"programNumber":44},{"time":68444.37600000018,"duration":166.66650000000664,"noteNumber":51,"velocity":55,"programNumber":44},{"time":68666.59800000019,"duration":166.66650000000664,"noteNumber":47,"velocity":55,"programNumber":44},{"time":68888.8200000002,"duration":166.66650000000664,"noteNumber":49,"velocity":55,"programNumber":44},{"time":69111.0420000002,"duration":166.66650000000664,"noteNumber":50,"velocity":55,"programNumber":44},{"time":69333.26400000021,"duration":166.66650000000664,"noteNumber":52,"velocity":85,"programNumber":44},{"time":69555.48600000022,"duration":166.66650000000664,"noteNumber":55,"velocity":85,"programNumber":44},{"time":69777.70800000023,"duration":166.66650000000664,"noteNumber":52,"velocity":85,"programNumber":44},{"time":69999.93000000024,"duration":166.66650000000664,"noteNumber":50,"velocity":85,"programNumber":44},{"time":70222.15200000025,"duration":166.66650000000664,"noteNumber":49,"velocity":85,"programNumber":44},{"time":70444.37400000026,"duration":166.66650000000664,"noteNumber":45,"velocity":85,"programNumber":44},{"time":70666.59600000027,"duration":166.66650000000664,"noteNumber":47,"velocity":85,"programNumber":44},{"time":70888.81800000028,"duration":166.66650000000664,"noteNumber":49,"velocity":85,"programNumber":44},{"time":71111.04000000028,"duration":166.66650000000664,"noteNumber":50,"velocity":85,"programNumber":44},{"time":71333.2620000003,"duration":166.66650000000664,"noteNumber":50,"velocity":85,"programNumber":44},{"time":71555.4840000003,"duration":166.66650000000664,"noteNumber":52,"velocity":85,"programNumber":44},{"time":71777.70600000031,"duration":166.66650000000664,"noteNumber":54,"velocity":85,"programNumber":44},{"time":71999.92800000032,"duration":166.66650000000664,"noteNumber":55,"velocity":85,"programNumber":44},{"time":72222.15000000033,"duration":166.66650000000664,"noteNumber":55,"velocity":85,"programNumber":44},{"time":72444.37200000034,"duration":166.66650000000664,"noteNumber":55,"velocity":85,"programNumber":44},{"time":72666.59400000035,"duration":166.66650000000664,"noteNumber":55,"velocity":85,"programNumber":44},{"time":72888.81600000036,"duration":166.66650000000664,"noteNumber":57,"velocity":85,"programNumber":44},{"time":73111.03800000036,"duration":166.66650000000664,"noteNumber":57,"velocity":85,"programNumber":44},{"time":73333.26000000037,"duration":166.66650000000664,"noteNumber":57,"velocity":85,"programNumber":44},{"time":73555.48200000038,"duration":166.66650000000664,"noteNumber":57,"velocity":85,"programNumber":44},{"time":73777.70400000039,"duration":166.66650000000664,"noteNumber":45,"velocity":85,"programNumber":44},{"time":73999.9260000004,"duration":166.66650000000664,"noteNumber":45,"velocity":85,"programNumber":44},{"time":74222.14800000041,"duration":166.66650000000664,"noteNumber":45,"velocity":85,"programNumber":44},{"time":74444.37000000042,"duration":166.66650000000664,"noteNumber":45,"velocity":85,"programNumber":44},{"time":74666.59200000043,"duration":444.44400000000314,"noteNumber":50,"velocity":85,"programNumber":44},{"time":76444.36800000042,"duration":444.44400000000314,"noteNumber":45,"velocity":55,"programNumber":44},{"time":78222.14400000042,"duration":444.44400000000314,"noteNumber":50,"velocity":55,"programNumber":44},{"time":79999.92000000042,"duration":444.44400000000314,"noteNumber":45,"velocity":55,"programNumber":44},{"time":81999.91800000043,"duration":166.66650000000664,"noteNumber":50,"velocity":85,"programNumber":44},{"time":82222.14000000044,"duration":166.66650000000664,"noteNumber":54,"velocity":85,"programNumber":44},{"time":82444.36200000044,"duration":166.66650000000664,"noteNumber":52,"velocity":85,"programNumber":44},{"time":82666.58400000045,"duration":166.66650000000664,"noteNumber":51,"velocity":85,"programNumber":44},{"time":82888.80600000046,"duration":166.66650000000664,"noteNumber":47,"velocity":85,"programNumber":44},{"time":83111.02800000047,"duration":166.66650000000664,"noteNumber":49,"velocity":85,"programNumber":44},{"time":83333.25000000048,"duration":166.66650000000664,"noteNumber":50,"velocity":85,"programNumber":44},{"time":83555.47200000049,"duration":166.66650000000664,"noteNumber":52,"velocity":85,"programNumber":44},{"time":83777.6940000005,"duration":166.66650000000664,"noteNumber":55,"velocity":85,"programNumber":44},{"time":83999.9160000005,"duration":166.66650000000664,"noteNumber":52,"velocity":85,"programNumber":44},{"time":84222.13800000052,"duration":166.66650000000664,"noteNumber":50,"velocity":85,"programNumber":44},{"time":84444.36000000052,"duration":166.66650000000664,"noteNumber":49,"velocity":85,"programNumber":44},{"time":84666.58200000053,"duration":166.66650000000664,"noteNumber":45,"velocity":85,"programNumber":44},{"time":84888.80400000054,"duration":166.66650000000664,"noteNumber":47,"velocity":85,"programNumber":44},{"time":85111.02600000055,"duration":166.66650000000664,"noteNumber":49,"velocity":85,"programNumber":44},{"time":85333.24800000056,"duration":166.66650000000664,"noteNumber":50,"velocity":85,"programNumber":44},{"time":85555.47000000057,"duration":166.66650000000664,"noteNumber":50,"velocity":85,"programNumber":44},{"time":85777.69200000058,"duration":166.66650000000664,"noteNumber":52,"velocity":85,"programNumber":44},{"time":85999.91400000059,"duration":166.66650000000664,"noteNumber":54,"velocity":85,"programNumber":44},{"time":86222.1360000006,"duration":166.66650000000664,"noteNumber":55,"velocity":85,"programNumber":44},{"time":86444.3580000006,"duration":166.66650000000664,"noteNumber":55,"velocity":85,"programNumber":44},{"time":86666.58000000061,"duration":166.66650000000664,"noteNumber":55,"velocity":85,"programNumber":44},{"time":86888.80200000062,"duration":166.66650000000664,"noteNumber":55,"velocity":85,"programNumber":44},{"time":87111.02400000063,"duration":166.66650000000664,"noteNumber":57,"velocity":85,"programNumber":44},{"time":87333.24600000064,"duration":166.66650000000664,"noteNumber":57,"velocity":85,"programNumber":44},{"time":87555.46800000065,"duration":166.66650000000664,"noteNumber":57,"velocity":85,"programNumber":44},{"time":87777.69000000066,"duration":166.66650000000664,"noteNumber":57,"velocity":85,"programNumber":44},{"time":87999.91200000067,"duration":166.66650000000664,"noteNumber":45,"velocity":85,"programNumber":44},{"time":88222.13400000067,"duration":166.66650000000664,"noteNumber":45,"velocity":85,"programNumber":44},{"time":88444.35600000068,"duration":166.66650000000664,"noteNumber":45,"velocity":85,"programNumber":44},{"time":88666.57800000069,"duration":166.66650000000664,"noteNumber":45,"velocity":85,"programNumber":44},{"time":88888.8000000007,"duration":166.66650000000664,"noteNumber":50,"velocity":85,"programNumber":44},{"time":89111.02200000071,"duration":166.66650000000664,"noteNumber":45,"velocity":85,"programNumber":44},{"time":89333.24400000072,"duration":166.66650000000664,"noteNumber":47,"velocity":85,"programNumber":44},{"time":89555.46600000073,"duration":166.66650000000664,"noteNumber":49,"velocity":85,"programNumber":44},{"time":89777.68800000074,"duration":166.66650000000664,"noteNumber":50,"velocity":85,"programNumber":44},{"time":89999.91000000075,"duration":166.66650000000664,"noteNumber":50,"velocity":85,"programNumber":44},{"time":90222.13200000075,"duration":166.66650000000664,"noteNumber":52,"velocity":85,"programNumber":44},{"time":90444.35400000076,"duration":166.66650000000664,"noteNumber":52,"velocity":85,"programNumber":44},{"time":90666.57600000077,"duration":166.66650000000664,"noteNumber":54,"velocity":85,"programNumber":44},{"time":90888.79800000078,"duration":166.66650000000664,"noteNumber":49,"velocity":85,"programNumber":44},{"time":91111.02000000079,"duration":166.66650000000664,"noteNumber":50,"velocity":85,"programNumber":44},{"time":91333.2420000008,"duration":166.66650000000664,"noteNumber":52,"velocity":85,"programNumber":44},{"time":91555.46400000081,"duration":166.66650000000664,"noteNumber":54,"velocity":85,"programNumber":44},{"time":91777.68600000082,"duration":166.66650000000664,"noteNumber":54,"velocity":85,"programNumber":44},{"time":91999.90800000083,"duration":166.66650000000664,"noteNumber":55,"velocity":85,"programNumber":44},{"time":92222.13000000083,"duration":166.66650000000664,"noteNumber":55,"velocity":85,"programNumber":44},{"time":92444.35200000084,"duration":166.66650000000664,"noteNumber":57,"velocity":85,"programNumber":44},{"time":92666.57400000085,"duration":166.66650000000664,"noteNumber":57,"velocity":85,"programNumber":44},{"time":92888.79600000086,"duration":166.66650000000664,"noteNumber":58,"velocity":85,"programNumber":44},{"time":93111.01800000087,"duration":166.66650000000664,"noteNumber":58,"velocity":85,"programNumber":44},{"time":93333.24000000088,"duration":444.44400000000314,"noteNumber":59,"velocity":85,"programNumber":44},{"time":94222.12800000088,"duration":888.8880000000063,"noteNumber":55,"velocity":55,"programNumber":44},{"time":95111.01600000089,"duration":888.8880000000063,"noteNumber":57,"velocity":55,"programNumber":44},{"time":95999.9040000009,"duration":222.2219999999943,"noteNumber":50,"velocity":55,"programNumber":44},{"time":96444.34800000089,"duration":222.2219999999943,"noteNumber":50,"velocity":55,"programNumber":44},{"time":96888.79200000087,"duration":222.2219999999943,"noteNumber":50,"velocity":55,"programNumber":44},{"time":97777.68000000087,"duration":444.44400000000314,"noteNumber":55,"velocity":85,"programNumber":44},{"time":98444.34600000086,"duration":111.11100000000442,"noteNumber":50,"velocity":85,"programNumber":44},{"time":98666.56800000087,"duration":444.44400000000314,"noteNumber":55,"velocity":85,"programNumber":44},{"time":99333.23400000087,"duration":111.11100000000442,"noteNumber":50,"velocity":85,"programNumber":44},{"time":99555.45600000088,"duration":111.11100000000442,"noteNumber":55,"velocity":85,"programNumber":44},{"time":99777.67800000089,"duration":111.11100000000442,"noteNumber":50,"velocity":85,"programNumber":44},{"time":99999.9000000009,"duration":111.11100000000442,"noteNumber":55,"velocity":85,"programNumber":44},{"time":100222.1220000009,"duration":111.11100000000442,"noteNumber":59,"velocity":85,"programNumber":44},{"time":100444.34400000091,"duration":444.44400000000314,"noteNumber":62,"velocity":85,"programNumber":44},{"time":101333.23200000092,"duration":444.44400000000314,"noteNumber":60,"velocity":85,"programNumber":44},{"time":101999.89800000092,"duration":111.11100000000442,"noteNumber":57,"velocity":85,"programNumber":44},{"time":102222.12000000093,"duration":444.44400000000314,"noteNumber":60,"velocity":85,"programNumber":44},{"time":102888.78600000092,"duration":111.11100000000442,"noteNumber":57,"velocity":85,"programNumber":44},{"time":103111.00800000093,"duration":111.11100000000442,"noteNumber":60,"velocity":85,"programNumber":44},{"time":103333.23000000094,"duration":111.11100000000442,"noteNumber":57,"velocity":85,"programNumber":44},{"time":103555.45200000095,"duration":111.11100000000442,"noteNumber":54,"velocity":85,"programNumber":44},{"time":103777.67400000096,"duration":111.11100000000442,"noteNumber":57,"velocity":85,"programNumber":44},{"time":103999.89600000097,"duration":444.44400000000314,"noteNumber":50,"velocity":85,"programNumber":44},{"time":104888.78400000097,"duration":166.66650000000664,"noteNumber":55,"velocity":85,"programNumber":44},{"time":105111.00600000098,"duration":166.66650000000664,"noteNumber":55,"velocity":85,"programNumber":44},{"time":105333.22800000099,"duration":166.66650000000664,"noteNumber":55,"velocity":85,"programNumber":44},{"time":105555.450000001,"duration":166.66650000000664,"noteNumber":55,"velocity":85,"programNumber":44},{"time":105777.67200000101,"duration":166.66650000000664,"noteNumber":55,"velocity":85,"programNumber":44},{"time":105999.89400000102,"duration":166.66650000000664,"noteNumber":55,"velocity":85,"programNumber":44},{"time":106222.11600000103,"duration":166.66650000000664,"noteNumber":55,"velocity":85,"programNumber":44},{"time":106444.33800000104,"duration":166.66650000000664,"noteNumber":55,"velocity":85,"programNumber":44},{"time":106666.56000000105,"duration":166.66650000000664,"noteNumber":55,"velocity":85,"programNumber":44},{"time":106888.78200000105,"duration":166.66650000000664,"noteNumber":55,"velocity":85,"programNumber":44},{"time":107111.00400000106,"duration":166.66650000000664,"noteNumber":55,"velocity":85,"programNumber":44},{"time":107333.22600000107,"duration":166.66650000000664,"noteNumber":55,"velocity":85,"programNumber":44},{"time":107555.44800000108,"duration":166.66650000000664,"noteNumber":55,"velocity":85,"programNumber":44},{"time":107777.67000000109,"duration":166.66650000000664,"noteNumber":55,"velocity":85,"programNumber":44},{"time":107999.8920000011,"duration":166.66650000000664,"noteNumber":55,"velocity":85,"programNumber":44},{"time":108222.11400000111,"duration":166.66650000000664,"noteNumber":55,"velocity":85,"programNumber":44},{"time":108444.33600000112,"duration":166.66650000000664,"noteNumber":55,"velocity":85,"programNumber":44},{"time":108666.55800000113,"duration":166.66650000000664,"noteNumber":55,"velocity":85,"programNumber":44},{"time":108888.78000000113,"duration":166.66650000000664,"noteNumber":55,"velocity":85,"programNumber":44},{"time":109111.00200000114,"duration":166.66650000000664,"noteNumber":55,"velocity":85,"programNumber":44},{"time":109333.22400000115,"duration":166.66650000000664,"noteNumber":55,"velocity":85,"programNumber":44},{"time":109555.44600000116,"duration":166.66650000000664,"noteNumber":55,"velocity":85,"programNumber":44},{"time":109777.66800000117,"duration":166.66650000000664,"noteNumber":55,"velocity":85,"programNumber":44},{"time":109999.89000000118,"duration":166.66650000000664,"noteNumber":55,"velocity":85,"programNumber":44},{"time":110222.11200000119,"duration":166.66650000000664,"noteNumber":55,"velocity":85,"programNumber":44},{"time":110444.3340000012,"duration":166.66650000000664,"noteNumber":55,"velocity":85,"programNumber":44},{"time":110666.5560000012,"duration":166.66650000000664,"noteNumber":55,"velocity":85,"programNumber":44},{"time":110888.77800000121,"duration":166.66650000000664,"noteNumber":55,"velocity":85,"programNumber":44},{"time":111111.00000000122,"duration":166.66650000000664,"noteNumber":55,"velocity":85,"programNumber":44},{"time":111333.22200000123,"duration":166.66650000000664,"noteNumber":55,"velocity":85,"programNumber":44},{"time":111555.44400000124,"duration":166.66650000000664,"noteNumber":55,"velocity":85,"programNumber":44},{"time":111777.66600000125,"duration":166.66650000000664,"noteNumber":55,"velocity":85,"programNumber":44},{"time":111999.88800000126,"duration":166.66650000000664,"noteNumber":55,"velocity":85,"programNumber":44},{"time":112222.11000000127,"duration":166.66650000000664,"noteNumber":55,"velocity":85,"programNumber":44},{"time":112444.33200000128,"duration":166.66650000000664,"noteNumber":57,"velocity":85,"programNumber":44},{"time":112666.55400000128,"duration":166.66650000000664,"noteNumber":57,"velocity":85,"programNumber":44},{"time":112888.7760000013,"duration":166.66650000000664,"noteNumber":59,"velocity":85,"programNumber":44},{"time":113110.9980000013,"duration":166.66650000000664,"noteNumber":59,"velocity":85,"programNumber":44},{"time":113333.22000000131,"duration":166.66650000000664,"noteNumber":54,"velocity":85,"programNumber":44},{"time":113555.44200000132,"duration":166.66650000000664,"noteNumber":54,"velocity":85,"programNumber":44},{"time":113777.66400000133,"duration":166.66650000000664,"noteNumber":55,"velocity":85,"programNumber":44},{"time":113999.88600000134,"duration":166.66650000000664,"noteNumber":55,"velocity":85,"programNumber":44},{"time":114222.10800000135,"duration":166.66650000000664,"noteNumber":57,"velocity":85,"programNumber":44},{"time":114444.33000000136,"duration":166.66650000000664,"noteNumber":57,"velocity":85,"programNumber":44},{"time":114666.55200000136,"duration":444.44400000000314,"noteNumber":59,"velocity":85,"programNumber":44},{"time":117333.21600000137,"duration":888.8880000000063,"noteNumber":50,"velocity":47,"programNumber":44},{"time":118222.10400000137,"duration":888.8880000000063,"noteNumber":52,"velocity":47,"programNumber":44},{"time":119110.99200000138,"duration":333.3329999999987,"noteNumber":48,"velocity":47,"programNumber":44},{"time":119555.43600000138,"duration":333.3329999999987,"noteNumber":48,"velocity":47,"programNumber":44},{"time":119999.88000000139,"duration":333.3329999999987,"noteNumber":50,"velocity":47,"programNumber":44},{"time":120444.32400000139,"duration":333.3329999999987,"noteNumber":50,"velocity":47,"programNumber":44},{"time":120888.7680000014,"duration":222.2219999999943,"noteNumber":47,"velocity":47,"programNumber":44},{"time":121333.21200000138,"duration":222.2219999999943,"noteNumber":50,"velocity":47,"programNumber":44},{"time":121777.65600000137,"duration":444.44400000000314,"noteNumber":55,"velocity":47,"programNumber":44},{"time":124444.32000000137,"duration":888.8880000000063,"noteNumber":50,"velocity":47,"programNumber":44},{"time":125333.20800000138,"duration":888.8880000000063,"noteNumber":52,"velocity":47,"programNumber":44},{"time":126222.09600000139,"duration":333.3329999999987,"noteNumber":48,"velocity":47,"programNumber":44},{"time":126666.54000000139,"duration":333.3329999999987,"noteNumber":48,"velocity":47,"programNumber":44},{"time":127110.9840000014,"duration":333.3329999999987,"noteNumber":50,"velocity":47,"programNumber":44},{"time":127555.4280000014,"duration":333.3329999999987,"noteNumber":50,"velocity":47,"programNumber":44},{"time":127999.8720000014,"duration":166.66650000000664,"noteNumber":55,"velocity":91,"programNumber":44},{"time":128222.09400000141,"duration":166.66650000000664,"noteNumber":55,"velocity":83,"programNumber":44},{"time":128444.31600000142,"duration":166.66650000000664,"noteNumber":55,"velocity":83,"programNumber":44},{"time":128666.53800000143,"duration":166.66650000000664,"noteNumber":55,"velocity":83,"programNumber":44},{"time":128888.76000000144,"duration":166.66650000000664,"noteNumber":55,"velocity":59,"programNumber":44},{"time":129110.98200000144,"duration":166.66650000000664,"noteNumber":55,"velocity":59,"programNumber":44},{"time":129333.20400000145,"duration":166.66650000000664,"noteNumber":55,"velocity":59,"programNumber":44},{"time":129555.42600000146,"duration":166.66650000000664,"noteNumber":55,"velocity":59,"programNumber":44},{"time":129777.64800000147,"duration":166.66650000000664,"noteNumber":55,"velocity":92,"programNumber":44},{"time":129999.87000000148,"duration":166.66650000000664,"noteNumber":55,"velocity":79,"programNumber":44},{"time":130222.09200000149,"duration":166.66650000000664,"noteNumber":55,"velocity":79,"programNumber":44},{"time":130444.3140000015,"duration":166.66650000000664,"noteNumber":55,"velocity":79,"programNumber":44},{"time":130666.5360000015,"duration":166.66650000000664,"noteNumber":55,"velocity":59,"programNumber":44},{"time":130888.75800000152,"duration":166.66650000000664,"noteNumber":55,"velocity":59,"programNumber":44},{"time":131110.98000000152,"duration":166.66649999999208,"noteNumber":55,"velocity":59,"programNumber":44},{"time":131333.2020000015,"duration":166.66649999999208,"noteNumber":55,"velocity":59,"programNumber":44},{"time":131555.42400000148,"duration":166.66649999999208,"noteNumber":55,"velocity":59,"programNumber":44},{"time":131777.64600000146,"duration":166.66649999999208,"noteNumber":55,"velocity":40,"programNumber":44},{"time":131999.86800000144,"duration":166.66649999999208,"noteNumber":55,"velocity":43,"programNumber":44},{"time":132222.09000000142,"duration":166.66649999999208,"noteNumber":55,"velocity":46,"programNumber":44},{"time":132444.3120000014,"duration":166.66649999999208,"noteNumber":55,"velocity":49,"programNumber":44},{"time":132666.53400000138,"duration":166.66649999999208,"noteNumber":55,"velocity":52,"programNumber":44},{"time":132888.75600000136,"duration":166.66649999999208,"noteNumber":55,"velocity":55,"programNumber":44},{"time":133110.97800000134,"duration":166.66649999999208,"noteNumber":55,"velocity":58,"programNumber":44},{"time":133333.20000000132,"duration":166.66649999999208,"noteNumber":55,"velocity":61,"programNumber":44},{"time":133555.4220000013,"duration":166.66649999999208,"noteNumber":55,"velocity":64,"programNumber":44},{"time":133777.64400000128,"duration":166.66649999999208,"noteNumber":54,"velocity":67,"programNumber":44},{"time":133999.86600000126,"duration":166.66649999999208,"noteNumber":54,"velocity":70,"programNumber":44},{"time":134222.08800000124,"duration":166.66649999999208,"noteNumber":55,"velocity":73,"programNumber":44},{"time":134444.31000000122,"duration":166.66649999999208,"noteNumber":55,"velocity":76,"programNumber":44},{"time":134666.5320000012,"duration":166.66649999999208,"noteNumber":52,"velocity":79,"programNumber":44},{"time":134888.75400000118,"duration":166.66649999999208,"noteNumber":52,"velocity":82,"programNumber":44},{"time":135110.97600000116,"duration":166.66649999999208,"noteNumber":50,"velocity":85,"programNumber":44},{"time":135333.19800000114,"duration":166.66649999999208,"noteNumber":50,"velocity":85,"programNumber":44},{"time":135555.42000000112,"duration":166.66649999999208,"noteNumber":50,"velocity":85,"programNumber":44},{"time":135777.6420000011,"duration":166.66649999999208,"noteNumber":50,"velocity":85,"programNumber":44},{"time":135999.86400000108,"duration":166.66649999999208,"noteNumber":50,"velocity":85,"programNumber":44},{"time":136222.08600000106,"duration":166.66649999999208,"noteNumber":50,"velocity":85,"programNumber":44},{"time":136444.30800000104,"duration":166.66649999999208,"noteNumber":50,"velocity":85,"programNumber":44},{"time":136666.53000000102,"duration":166.66649999999208,"noteNumber":50,"velocity":85,"programNumber":44},{"time":136888.752000001,"duration":166.66649999999208,"noteNumber":50,"velocity":85,"programNumber":44},{"time":137110.97400000098,"duration":166.66649999999208,"noteNumber":50,"velocity":85,"programNumber":44},{"time":137333.19600000096,"duration":166.66649999999208,"noteNumber":50,"velocity":85,"programNumber":44},{"time":137555.41800000094,"duration":166.66649999999208,"noteNumber":50,"velocity":85,"programNumber":44},{"time":137777.64000000092,"duration":166.66649999999208,"noteNumber":50,"velocity":85,"programNumber":44},{"time":137999.8620000009,"duration":166.66649999999208,"noteNumber":50,"velocity":85,"programNumber":44},{"time":138222.08400000088,"duration":166.66649999999208,"noteNumber":50,"velocity":85,"programNumber":44},{"time":138444.30600000086,"duration":166.66649999999208,"noteNumber":50,"velocity":85,"programNumber":44},{"time":138666.52800000084,"duration":166.66649999999208,"noteNumber":50,"velocity":85,"programNumber":44},{"time":138888.75000000081,"duration":166.66649999999208,"noteNumber":52,"velocity":85,"programNumber":44},{"time":139110.9720000008,"duration":166.66649999999208,"noteNumber":54,"velocity":85,"programNumber":44},{"time":139333.19400000077,"duration":166.66649999999208,"noteNumber":52,"velocity":85,"programNumber":44},{"time":139555.41600000075,"duration":166.66649999999208,"noteNumber":50,"velocity":85,"programNumber":44},{"time":139777.63800000073,"duration":166.66649999999208,"noteNumber":52,"velocity":85,"programNumber":44},{"time":139999.8600000007,"duration":166.66649999999208,"noteNumber":54,"velocity":85,"programNumber":44},{"time":140222.0820000007,"duration":166.66649999999208,"noteNumber":50,"velocity":85,"programNumber":44},{"time":140444.30400000067,"duration":166.66649999999208,"noteNumber":55,"velocity":85,"programNumber":44},{"time":140666.52600000065,"duration":166.66649999999208,"noteNumber":57,"velocity":85,"programNumber":44},{"time":140888.74800000063,"duration":166.66649999999208,"noteNumber":59,"velocity":85,"programNumber":44},{"time":141110.9700000006,"duration":166.66649999999208,"noteNumber":57,"velocity":85,"programNumber":44},{"time":141333.1920000006,"duration":166.66649999999208,"noteNumber":55,"velocity":85,"programNumber":44},{"time":141555.41400000057,"duration":166.66649999999208,"noteNumber":57,"velocity":85,"programNumber":44},{"time":141777.63600000055,"duration":166.66649999999208,"noteNumber":59,"velocity":85,"programNumber":44},{"time":141999.85800000053,"duration":166.66649999999208,"noteNumber":56,"velocity":85,"programNumber":44},{"time":142222.0800000005,"duration":166.66649999999208,"noteNumber":57,"velocity":85,"programNumber":44},{"time":142444.3020000005,"duration":166.66649999999208,"noteNumber":57,"velocity":85,"programNumber":44},{"time":142666.52400000047,"duration":166.66649999999208,"noteNumber":57,"velocity":85,"programNumber":44},{"time":142888.74600000045,"duration":166.66649999999208,"noteNumber":57,"velocity":85,"programNumber":44},{"time":143110.96800000043,"duration":166.66649999999208,"noteNumber":57,"velocity":85,"programNumber":44},{"time":143333.1900000004,"duration":166.66649999999208,"noteNumber":57,"velocity":85,"programNumber":44},{"time":143555.4120000004,"duration":166.66649999999208,"noteNumber":57,"velocity":85,"programNumber":44},{"time":143777.63400000037,"duration":166.66649999999208,"noteNumber":57,"velocity":85,"programNumber":44},{"time":143999.85600000035,"duration":166.66649999999208,"noteNumber":57,"velocity":85,"programNumber":44},{"time":144222.07800000033,"duration":166.66649999999208,"noteNumber":45,"velocity":85,"programNumber":44},{"time":144444.3000000003,"duration":166.66649999999208,"noteNumber":45,"velocity":85,"programNumber":44},{"time":144666.5220000003,"duration":166.66649999999208,"noteNumber":45,"velocity":85,"programNumber":44},{"time":144888.74400000027,"duration":444.4439999999886,"noteNumber":45,"velocity":85,"programNumber":44},{"time":147110.96400000027,"duration":222.22200000000885,"noteNumber":51,"velocity":55,"programNumber":44},{"time":147555.4080000003,"duration":222.22200000000885,"noteNumber":52,"velocity":55,"programNumber":44},{"time":147999.8520000003,"duration":222.22200000000885,"noteNumber":50,"velocity":55,"programNumber":44},{"time":148444.29600000032,"duration":222.22200000000885,"noteNumber":49,"velocity":55,"programNumber":44},{"time":148888.74000000034,"duration":222.22200000000885,"noteNumber":45,"velocity":55,"programNumber":44},{"time":149777.62800000035,"duration":444.4439999999886,"noteNumber":46,"velocity":55,"programNumber":44},{"time":150222.07200000033,"duration":222.22200000000885,"noteNumber":47,"velocity":55,"programNumber":44},{"time":150666.51600000035,"duration":222.22200000000885,"noteNumber":43,"velocity":55,"programNumber":44},{"time":151110.96000000037,"duration":333.33300000001327,"noteNumber":45,"velocity":55,"programNumber":44},{"time":151555.4040000004,"duration":666.6659999999974,"noteNumber":57,"velocity":55,"programNumber":44},{"time":152222.07000000039,"duration":222.22200000000885,"noteNumber":56,"velocity":55,"programNumber":44},{"time":152444.2920000004,"duration":222.22200000000885,"noteNumber":55,"velocity":55,"programNumber":44},{"time":152666.5140000004,"duration":222.22200000000885,"noteNumber":52,"velocity":55,"programNumber":44},{"time":152888.7360000004,"duration":222.22200000000885,"noteNumber":50,"velocity":55,"programNumber":44},{"time":153333.18000000043,"duration":222.22200000000885,"noteNumber":52,"velocity":55,"programNumber":44},{"time":153777.62400000045,"duration":222.22200000000885,"noteNumber":54,"velocity":55,"programNumber":44},{"time":154222.06800000046,"duration":222.22200000000885,"noteNumber":51,"velocity":55,"programNumber":44},{"time":154666.51200000048,"duration":222.22200000000885,"noteNumber":52,"velocity":55,"programNumber":44},{"time":155110.9560000005,"duration":222.22200000000885,"noteNumber":50,"velocity":55,"programNumber":44},{"time":155555.40000000052,"duration":222.22200000000885,"noteNumber":49,"velocity":55,"programNumber":44},{"time":155999.84400000054,"duration":222.22200000000885,"noteNumber":45,"velocity":55,"programNumber":44},{"time":156444.28800000055,"duration":222.22200000000885,"noteNumber":47,"velocity":55,"programNumber":44},{"time":156888.73200000057,"duration":222.22200000000885,"noteNumber":55,"velocity":55,"programNumber":44},{"time":157333.1760000006,"duration":222.22200000000885,"noteNumber":57,"velocity":55,"programNumber":44},{"time":157777.6200000006,"duration":222.22200000000885,"noteNumber":45,"velocity":55,"programNumber":44},{"time":158222.06400000062,"duration":444.4439999999886,"noteNumber":50,"velocity":55,"programNumber":44},{"time":159999.8400000006,"duration":444.4439999999886,"noteNumber":45,"velocity":55,"programNumber":44},{"time":161777.6160000006,"duration":444.4439999999886,"noteNumber":50,"velocity":55,"programNumber":44},{"time":163555.39200000057,"duration":444.4439999999886,"noteNumber":45,"velocity":55,"programNumber":44},{"time":165555.39000000057,"duration":166.66649999999208,"noteNumber":50,"velocity":55,"programNumber":44},{"time":165777.61200000055,"duration":166.66649999999208,"noteNumber":54,"velocity":55,"programNumber":44},{"time":165999.83400000053,"duration":166.66649999999208,"noteNumber":52,"velocity":55,"programNumber":44},{"time":166222.0560000005,"duration":166.66649999999208,"noteNumber":51,"velocity":55,"programNumber":44},{"time":166444.2780000005,"duration":166.66649999999208,"noteNumber":47,"velocity":55,"programNumber":44},{"time":166666.50000000047,"duration":166.66649999999208,"noteNumber":49,"velocity":55,"programNumber":44},{"time":166888.72200000045,"duration":166.66649999999208,"noteNumber":50,"velocity":55,"programNumber":44},{"time":167110.94400000043,"duration":166.66649999999208,"noteNumber":52,"velocity":85,"programNumber":44},{"time":167333.1660000004,"duration":166.66649999999208,"noteNumber":55,"velocity":85,"programNumber":44},{"time":167555.38800000038,"duration":166.66649999999208,"noteNumber":52,"velocity":85,"programNumber":44},{"time":167777.61000000036,"duration":166.66649999999208,"noteNumber":50,"velocity":85,"programNumber":44},{"time":167999.83200000034,"duration":166.66649999999208,"noteNumber":49,"velocity":85,"programNumber":44},{"time":168222.05400000032,"duration":166.66649999999208,"noteNumber":45,"velocity":85,"programNumber":44},{"time":168444.2760000003,"duration":166.66649999999208,"noteNumber":47,"velocity":85,"programNumber":44},{"time":168666.49800000028,"duration":166.66649999999208,"noteNumber":49,"velocity":85,"programNumber":44},{"time":168888.72000000026,"duration":166.66649999999208,"noteNumber":50,"velocity":85,"programNumber":44},{"time":169110.94200000024,"duration":166.66649999999208,"noteNumber":50,"velocity":85,"programNumber":44},{"time":169333.16400000022,"duration":166.66649999999208,"noteNumber":52,"velocity":85,"programNumber":44},{"time":169555.3860000002,"duration":166.66649999999208,"noteNumber":54,"velocity":85,"programNumber":44},{"time":169777.60800000018,"duration":166.66649999999208,"noteNumber":55,"velocity":85,"programNumber":44},{"time":169999.83000000016,"duration":166.66649999999208,"noteNumber":55,"velocity":85,"programNumber":44},{"time":170222.05200000014,"duration":166.66649999999208,"noteNumber":55,"velocity":85,"programNumber":44},{"time":170444.27400000012,"duration":166.66649999999208,"noteNumber":55,"velocity":85,"programNumber":44},{"time":170666.4960000001,"duration":166.66649999999208,"noteNumber":57,"velocity":85,"programNumber":44},{"time":170888.71800000008,"duration":166.66649999999208,"noteNumber":57,"velocity":85,"programNumber":44},{"time":171110.94000000006,"duration":166.66649999999208,"noteNumber":57,"velocity":85,"programNumber":44},{"time":171333.16200000004,"duration":166.66649999999208,"noteNumber":57,"velocity":85,"programNumber":44},{"time":171555.38400000002,"duration":166.66649999999208,"noteNumber":45,"velocity":85,"programNumber":44},{"time":171777.606,"duration":166.66649999999208,"noteNumber":45,"velocity":85,"programNumber":44},{"time":171999.82799999998,"duration":166.66649999999208,"noteNumber":45,"velocity":85,"programNumber":44},{"time":172222.04999999996,"duration":166.66649999999208,"noteNumber":45,"velocity":85,"programNumber":44},{"time":172444.27199999994,"duration":444.4439999999886,"noteNumber":50,"velocity":85,"programNumber":44},{"time":174222.04799999992,"duration":444.4439999999886,"noteNumber":45,"velocity":55,"programNumber":44},{"time":175999.8239999999,"duration":444.4439999999886,"noteNumber":50,"velocity":55,"programNumber":44},{"time":177777.5999999999,"duration":444.4439999999886,"noteNumber":45,"velocity":55,"programNumber":44},{"time":179777.59799999988,"duration":166.66649999999208,"noteNumber":50,"velocity":85,"programNumber":44},{"time":179999.81999999986,"duration":166.66649999999208,"noteNumber":54,"velocity":85,"programNumber":44},{"time":180222.04199999984,"duration":166.66649999999208,"noteNumber":52,"velocity":85,"programNumber":44},{"time":180444.26399999982,"duration":166.66649999999208,"noteNumber":51,"velocity":85,"programNumber":44},{"time":180666.4859999998,"duration":166.66649999999208,"noteNumber":47,"velocity":85,"programNumber":44},{"time":180888.70799999978,"duration":166.66649999999208,"noteNumber":49,"velocity":85,"programNumber":44},{"time":181110.92999999976,"duration":166.66649999999208,"noteNumber":50,"velocity":85,"programNumber":44},{"time":181333.15199999974,"duration":166.66649999999208,"noteNumber":52,"velocity":85,"programNumber":44},{"time":181555.37399999972,"duration":166.66649999999208,"noteNumber":55,"velocity":85,"programNumber":44},{"time":181777.5959999997,"duration":166.66649999999208,"noteNumber":52,"velocity":85,"programNumber":44},{"time":181999.81799999968,"duration":166.66649999999208,"noteNumber":50,"velocity":85,"programNumber":44},{"time":182222.03999999966,"duration":166.66649999999208,"noteNumber":49,"velocity":85,"programNumber":44},{"time":182444.26199999964,"duration":166.66649999999208,"noteNumber":45,"velocity":85,"programNumber":44},{"time":182666.48399999962,"duration":166.66649999999208,"noteNumber":47,"velocity":85,"programNumber":44},{"time":182888.7059999996,"duration":166.66649999999208,"noteNumber":49,"velocity":85,"programNumber":44},{"time":183110.92799999958,"duration":166.66649999999208,"noteNumber":50,"velocity":85,"programNumber":44},{"time":183333.14999999956,"duration":166.66649999999208,"noteNumber":50,"velocity":85,"programNumber":44},{"time":183555.37199999954,"duration":166.66649999999208,"noteNumber":52,"velocity":85,"programNumber":44},{"time":183777.59399999952,"duration":166.66649999999208,"noteNumber":54,"velocity":85,"programNumber":44},{"time":183999.8159999995,"duration":166.66649999999208,"noteNumber":55,"velocity":85,"programNumber":44},{"time":184222.03799999948,"duration":166.66649999999208,"noteNumber":55,"velocity":85,"programNumber":44},{"time":184444.25999999946,"duration":166.66649999999208,"noteNumber":55,"velocity":85,"programNumber":44},{"time":184666.48199999944,"duration":166.66649999999208,"noteNumber":55,"velocity":85,"programNumber":44},{"time":184888.70399999942,"duration":166.66649999999208,"noteNumber":57,"velocity":85,"programNumber":44},{"time":185110.9259999994,"duration":166.66649999999208,"noteNumber":57,"velocity":85,"programNumber":44},{"time":185333.14799999938,"duration":166.66649999999208,"noteNumber":57,"velocity":85,"programNumber":44},{"time":185555.36999999936,"duration":166.66649999999208,"noteNumber":57,"velocity":85,"programNumber":44},{"time":185777.59199999933,"duration":166.66649999999208,"noteNumber":45,"velocity":85,"programNumber":44},{"time":185999.8139999993,"duration":166.66649999999208,"noteNumber":45,"velocity":85,"programNumber":44},{"time":186222.0359999993,"duration":166.66649999999208,"noteNumber":45,"velocity":85,"programNumber":44},{"time":186444.25799999927,"duration":166.66649999999208,"noteNumber":45,"velocity":85,"programNumber":44},{"time":186666.47999999925,"duration":166.66649999999208,"noteNumber":50,"velocity":85,"programNumber":44},{"time":186888.70199999923,"duration":166.66649999999208,"noteNumber":45,"velocity":85,"programNumber":44},{"time":187110.9239999992,"duration":166.66649999999208,"noteNumber":47,"velocity":85,"programNumber":44},{"time":187333.1459999992,"duration":166.66649999999208,"noteNumber":49,"velocity":85,"programNumber":44},{"time":187555.36799999917,"duration":166.66649999999208,"noteNumber":50,"velocity":85,"programNumber":44},{"time":187777.58999999915,"duration":166.66649999999208,"noteNumber":50,"velocity":85,"programNumber":44},{"time":187999.81199999913,"duration":166.66649999999208,"noteNumber":52,"velocity":85,"programNumber":44},{"time":188222.0339999991,"duration":166.66649999999208,"noteNumber":52,"velocity":85,"programNumber":44},{"time":188444.2559999991,"duration":166.66649999999208,"noteNumber":54,"velocity":85,"programNumber":44},{"time":188666.47799999907,"duration":166.66649999999208,"noteNumber":49,"velocity":85,"programNumber":44},{"time":188888.69999999905,"duration":166.66649999999208,"noteNumber":50,"velocity":85,"programNumber":44},{"time":189110.92199999903,"duration":166.66649999999208,"noteNumber":52,"velocity":85,"programNumber":44},{"time":189333.143999999,"duration":166.66649999999208,"noteNumber":54,"velocity":85,"programNumber":44},{"time":189555.365999999,"duration":166.66649999999208,"noteNumber":54,"velocity":85,"programNumber":44},{"time":189777.58799999897,"duration":166.66649999999208,"noteNumber":55,"velocity":85,"programNumber":44},{"time":189999.80999999895,"duration":166.66649999999208,"noteNumber":55,"velocity":85,"programNumber":44},{"time":190222.03199999893,"duration":166.66649999999208,"noteNumber":57,"velocity":85,"programNumber":44},{"time":190444.2539999989,"duration":166.66649999999208,"noteNumber":57,"velocity":85,"programNumber":44},{"time":190666.4759999989,"duration":166.66649999999208,"noteNumber":58,"velocity":85,"programNumber":44},{"time":190888.69799999887,"duration":166.66649999999208,"noteNumber":58,"velocity":85,"programNumber":44},{"time":191110.91999999885,"duration":444.4439999999886,"noteNumber":59,"velocity":85,"programNumber":44},{"time":191999.80799999883,"duration":888.8880000000063,"noteNumber":55,"velocity":55,"programNumber":44},{"time":192888.69599999883,"duration":888.8880000000063,"noteNumber":57,"velocity":55,"programNumber":44},{"time":193777.58399999884,"duration":222.22200000000885,"noteNumber":50,"velocity":55,"programNumber":44},{"time":194222.02799999886,"duration":222.22200000000885,"noteNumber":50,"velocity":55,"programNumber":44},{"time":194666.47199999887,"duration":222.22200000000885,"noteNumber":50,"velocity":55,"programNumber":44},{"time":195555.35999999888,"duration":444.4439999999886,"noteNumber":50,"velocity":89,"programNumber":44},{"time":196222.02599999888,"duration":166.66649999999208,"noteNumber":45,"velocity":89,"programNumber":44},{"time":196444.24799999886,"duration":444.4439999999886,"noteNumber":50,"velocity":89,"programNumber":44},{"time":197110.91399999885,"duration":166.66649999999208,"noteNumber":45,"velocity":89,"programNumber":44},{"time":197333.13599999883,"duration":166.66649999999208,"noteNumber":50,"velocity":89,"programNumber":44},{"time":197555.3579999988,"duration":166.66649999999208,"noteNumber":45,"velocity":89,"programNumber":44},{"time":197777.5799999988,"duration":166.66649999999208,"noteNumber":50,"velocity":89,"programNumber":44},{"time":197999.80199999877,"duration":166.66649999999208,"noteNumber":54,"velocity":89,"programNumber":44},{"time":198222.02399999875,"duration":444.4439999999886,"noteNumber":57,"velocity":89,"programNumber":44},{"time":199110.91199999873,"duration":444.4439999999886,"noteNumber":57,"velocity":89,"programNumber":44},{"time":199777.57799999873,"duration":166.66649999999208,"noteNumber":54,"velocity":89,"programNumber":44},{"time":199999.7999999987,"duration":444.4439999999886,"noteNumber":57,"velocity":89,"programNumber":44},{"time":200666.4659999987,"duration":166.66649999999208,"noteNumber":54,"velocity":89,"programNumber":44},{"time":200888.68799999868,"duration":166.66649999999208,"noteNumber":57,"velocity":89,"programNumber":44},{"time":201110.90999999866,"duration":166.66649999999208,"noteNumber":54,"velocity":89,"programNumber":44},{"time":201333.13199999864,"duration":166.66649999999208,"noteNumber":51,"velocity":89,"programNumber":44},{"time":201555.35399999862,"duration":166.66649999999208,"noteNumber":54,"velocity":89,"programNumber":44},{"time":201777.5759999986,"duration":444.4439999999886,"noteNumber":47,"velocity":89,"programNumber":44},{"time":202666.46399999858,"duration":444.4439999999886,"noteNumber":48,"velocity":55,"programNumber":44},{"time":204444.23999999856,"duration":444.4439999999886,"noteNumber":43,"velocity":55,"programNumber":44},{"time":206222.01599999855,"duration":444.4439999999886,"noteNumber":48,"velocity":55,"programNumber":44},{"time":207999.79199999853,"duration":444.4439999999886,"noteNumber":43,"velocity":55,"programNumber":44},{"time":209777.56799999852,"duration":444.4439999999886,"noteNumber":48,"velocity":55,"programNumber":44},{"time":211555.3439999985,"duration":444.4439999999886,"noteNumber":52,"velocity":55,"programNumber":44},{"time":213333.11999999848,"duration":444.4439999999886,"noteNumber":45,"velocity":55,"programNumber":44},{"time":215110.89599999847,"duration":444.4439999999886,"noteNumber":50,"velocity":55,"programNumber":44},{"time":216888.67199999845,"duration":3499.9965000000084,"noteNumber":51,"velocity":55,"programNumber":44},{"time":220444.22399999844,"duration":444.4439999999886,"noteNumber":50,"velocity":53,"programNumber":44},{"time":221110.88999999844,"duration":222.22200000000885,"noteNumber":50,"velocity":91,"programNumber":44},{"time":221333.11199999845,"duration":222.22200000000885,"noteNumber":52,"velocity":91,"programNumber":44},{"time":221555.33399999846,"duration":222.22200000000885,"noteNumber":54,"velocity":91,"programNumber":44},{"time":221777.55599999847,"duration":222.22200000000885,"noteNumber":55,"velocity":91,"programNumber":44},{"time":221999.77799999848,"duration":222.22200000000885,"noteNumber":57,"velocity":91,"programNumber":44},{"time":222221.9999999985,"duration":222.22200000000885,"noteNumber":60,"velocity":91,"programNumber":44},{"time":222444.2219999985,"duration":222.22200000000885,"noteNumber":58,"velocity":91,"programNumber":44},{"time":222888.6659999985,"duration":222.22200000000885,"noteNumber":54,"velocity":91,"programNumber":44},{"time":223110.88799999852,"duration":222.22200000000885,"noteNumber":55,"velocity":91,"programNumber":44},{"time":223333.10999999853,"duration":222.22200000000885,"noteNumber":57,"velocity":91,"programNumber":44},{"time":223555.33199999854,"duration":222.22200000000885,"noteNumber":58,"velocity":91,"programNumber":44},{"time":223777.55399999855,"duration":222.22200000000885,"noteNumber":61,"velocity":91,"programNumber":44},{"time":223999.77599999856,"duration":222.22200000000885,"noteNumber":64,"velocity":91,"programNumber":44},{"time":224221.99799999857,"duration":222.22200000000885,"noteNumber":62,"velocity":91,"programNumber":44},{"time":229333.10399999857,"duration":1777.7760000000126,"noteNumber":50,"velocity":53,"programNumber":44},{"time":231110.87999999858,"duration":444.4439999999886,"noteNumber":55,"velocity":97,"programNumber":44},{"time":231777.54599999858,"duration":111.11100000000442,"noteNumber":50,"velocity":97,"programNumber":44},{"time":231999.76799999858,"duration":444.4439999999886,"noteNumber":55,"velocity":97,"programNumber":44},{"time":232666.43399999858,"duration":111.11100000000442,"noteNumber":50,"velocity":97,"programNumber":44},{"time":232888.6559999986,"duration":111.11100000000442,"noteNumber":55,"velocity":97,"programNumber":44},{"time":233110.8779999986,"duration":111.11100000000442,"noteNumber":50,"velocity":97,"programNumber":44},{"time":233333.0999999986,"duration":111.11100000000442,"noteNumber":55,"velocity":96,"programNumber":44},{"time":233555.32199999862,"duration":111.11100000000442,"noteNumber":59,"velocity":96,"programNumber":44},{"time":233777.54399999863,"duration":444.4439999999886,"noteNumber":62,"velocity":95,"programNumber":44},{"time":234666.4319999986,"duration":444.4439999999886,"noteNumber":60,"velocity":95,"programNumber":44},{"time":235333.0979999986,"duration":111.11100000000442,"noteNumber":57,"velocity":95,"programNumber":44},{"time":235555.3199999986,"duration":444.4439999999886,"noteNumber":60,"velocity":95,"programNumber":44},{"time":236221.9859999986,"duration":111.11100000000442,"noteNumber":57,"velocity":91,"programNumber":44},{"time":236444.20799999862,"duration":111.11100000000442,"noteNumber":60,"velocity":91,"programNumber":44},{"time":236666.42999999863,"duration":111.11100000000442,"noteNumber":57,"velocity":91,"programNumber":44},{"time":236888.65199999863,"duration":111.11100000000442,"noteNumber":54,"velocity":91,"programNumber":44},{"time":237110.87399999864,"duration":111.11100000000442,"noteNumber":57,"velocity":91,"programNumber":44},{"time":237333.09599999865,"duration":444.4439999999886,"noteNumber":50,"velocity":90,"programNumber":44},{"time":238221.98399999863,"duration":166.66649999999208,"noteNumber":55,"velocity":85,"programNumber":44},{"time":238444.2059999986,"duration":166.66649999999208,"noteNumber":55,"velocity":85,"programNumber":44},{"time":238666.4279999986,"duration":166.66649999999208,"noteNumber":55,"velocity":85,"programNumber":44},{"time":238888.64999999857,"duration":166.66649999999208,"noteNumber":55,"velocity":85,"programNumber":44},{"time":239110.87199999855,"duration":166.66649999999208,"noteNumber":55,"velocity":85,"programNumber":44},{"time":239333.09399999853,"duration":166.66649999999208,"noteNumber":55,"velocity":85,"programNumber":44},{"time":239555.3159999985,"duration":166.66649999999208,"noteNumber":55,"velocity":85,"programNumber":44},{"time":239777.5379999985,"duration":166.66649999999208,"noteNumber":55,"velocity":85,"programNumber":44},{"time":239999.75999999847,"duration":166.66649999999208,"noteNumber":55,"velocity":85,"programNumber":44},{"time":240221.98199999845,"duration":166.66649999999208,"noteNumber":55,"velocity":85,"programNumber":44},{"time":240444.20399999843,"duration":166.66649999999208,"noteNumber":55,"velocity":85,"programNumber":44},{"time":240666.4259999984,"duration":166.66649999999208,"noteNumber":55,"velocity":85,"programNumber":44},{"time":240888.6479999984,"duration":166.66649999999208,"noteNumber":55,"velocity":85,"programNumber":44},{"time":241110.86999999837,"duration":166.66649999999208,"noteNumber":55,"velocity":85,"programNumber":44},{"time":241333.09199999835,"duration":166.66649999999208,"noteNumber":55,"velocity":85,"programNumber":44},{"time":241555.31399999833,"duration":166.66649999999208,"noteNumber":55,"velocity":85,"programNumber":44},{"time":241777.5359999983,"duration":166.66649999999208,"noteNumber":55,"velocity":85,"programNumber":44},{"time":241999.75799999828,"duration":166.66649999999208,"noteNumber":55,"velocity":85,"programNumber":44},{"time":242221.97999999826,"duration":166.66649999999208,"noteNumber":55,"velocity":85,"programNumber":44},{"time":242444.20199999824,"duration":166.66649999999208,"noteNumber":55,"velocity":85,"programNumber":44},{"time":242666.42399999822,"duration":166.66649999999208,"noteNumber":55,"velocity":85,"programNumber":44},{"time":242888.6459999982,"duration":166.66649999999208,"noteNumber":55,"velocity":85,"programNumber":44},{"time":243110.86799999818,"duration":166.66649999999208,"noteNumber":55,"velocity":85,"programNumber":44},{"time":243333.08999999816,"duration":166.66649999999208,"noteNumber":55,"velocity":85,"programNumber":44},{"time":243555.31199999814,"duration":166.66649999999208,"noteNumber":55,"velocity":85,"programNumber":44},{"time":243777.53399999812,"duration":166.66649999999208,"noteNumber":55,"velocity":85,"programNumber":44},{"time":243999.7559999981,"duration":166.66649999999208,"noteNumber":55,"velocity":85,"programNumber":44},{"time":244221.97799999808,"duration":166.66649999999208,"noteNumber":55,"velocity":85,"programNumber":44},{"time":244444.19999999806,"duration":166.66649999999208,"noteNumber":55,"velocity":85,"programNumber":44},{"time":244666.42199999804,"duration":166.66649999999208,"noteNumber":55,"velocity":85,"programNumber":44},{"time":244888.64399999802,"duration":166.66649999999208,"noteNumber":55,"velocity":85,"programNumber":44},{"time":245110.865999998,"duration":166.66649999999208,"noteNumber":55,"velocity":85,"programNumber":44},{"time":245333.08799999798,"duration":166.66649999999208,"noteNumber":55,"velocity":85,"programNumber":44},{"time":245555.30999999796,"duration":166.66649999999208,"noteNumber":55,"velocity":85,"programNumber":44},{"time":245777.53199999794,"duration":166.66649999999208,"noteNumber":57,"velocity":85,"programNumber":44},{"time":245999.75399999792,"duration":166.66649999999208,"noteNumber":57,"velocity":85,"programNumber":44},{"time":246221.9759999979,"duration":166.66649999999208,"noteNumber":59,"velocity":85,"programNumber":44},{"time":246444.19799999788,"duration":166.66649999999208,"noteNumber":59,"velocity":85,"programNumber":44},{"time":246666.41999999786,"duration":166.66649999999208,"noteNumber":54,"velocity":85,"programNumber":44},{"time":246888.64199999784,"duration":166.66649999999208,"noteNumber":54,"velocity":85,"programNumber":44},{"time":247110.86399999782,"duration":166.66649999999208,"noteNumber":55,"velocity":85,"programNumber":44},{"time":247333.0859999978,"duration":166.66649999999208,"noteNumber":55,"velocity":85,"programNumber":44},{"time":247555.30799999778,"duration":166.66649999999208,"noteNumber":57,"velocity":85,"programNumber":44},{"time":247777.52999999776,"duration":166.66649999999208,"noteNumber":57,"velocity":85,"programNumber":44},{"time":247999.75199999774,"duration":444.4439999999886,"noteNumber":59,"velocity":85,"programNumber":44},{"time":250666.41599999773,"duration":888.8880000000063,"noteNumber":50,"velocity":47,"programNumber":44},{"time":251555.30399999773,"duration":888.8880000000063,"noteNumber":52,"velocity":47,"programNumber":44},{"time":252444.19199999774,"duration":333.33300000001327,"noteNumber":48,"velocity":47,"programNumber":44},{"time":252888.63599999776,"duration":333.33300000001327,"noteNumber":48,"velocity":47,"programNumber":44},{"time":253333.07999999778,"duration":333.33300000001327,"noteNumber":50,"velocity":47,"programNumber":44},{"time":253777.5239999978,"duration":333.33300000001327,"noteNumber":50,"velocity":47,"programNumber":44},{"time":254221.9679999978,"duration":222.22200000000885,"noteNumber":47,"velocity":47,"programNumber":44},{"time":254666.41199999783,"duration":222.22200000000885,"noteNumber":50,"velocity":47,"programNumber":44},{"time":255110.85599999785,"duration":444.4439999999886,"noteNumber":55,"velocity":47,"programNumber":44},{"time":257777.51999999784,"duration":888.8880000000063,"noteNumber":50,"velocity":47,"programNumber":44},{"time":258666.40799999784,"duration":888.8880000000063,"noteNumber":52,"velocity":47,"programNumber":44},{"time":259555.29599999785,"duration":333.33300000001327,"noteNumber":48,"velocity":47,"programNumber":44},{"time":259999.73999999787,"duration":333.33300000001327,"noteNumber":48,"velocity":47,"programNumber":44},{"time":260444.18399999788,"duration":333.33300000001327,"noteNumber":50,"velocity":47,"programNumber":44},{"time":260888.6279999979,"duration":333.33300000001327,"noteNumber":50,"velocity":47,"programNumber":44},{"time":261333.07199999792,"duration":166.66649999999208,"noteNumber":55,"velocity":91,"programNumber":44},{"time":261555.2939999979,"duration":166.66649999999208,"noteNumber":55,"velocity":83,"programNumber":44},{"time":261777.51599999788,"duration":166.66649999999208,"noteNumber":55,"velocity":83,"programNumber":44},{"time":261999.73799999786,"duration":166.66649999999208,"noteNumber":55,"velocity":83,"programNumber":44},{"time":262221.95999999787,"duration":166.66649999999208,"noteNumber":55,"velocity":59,"programNumber":44},{"time":262444.1819999979,"duration":166.66649999999208,"noteNumber":55,"velocity":59,"programNumber":44},{"time":262666.4039999979,"duration":166.66649999999208,"noteNumber":55,"velocity":59,"programNumber":44},{"time":262888.6259999979,"duration":166.66649999999208,"noteNumber":55,"velocity":59,"programNumber":44},{"time":263110.8479999979,"duration":166.66649999999208,"noteNumber":55,"velocity":92,"programNumber":44},{"time":263333.0699999979,"duration":166.66649999999208,"noteNumber":55,"velocity":79,"programNumber":44},{"time":263555.2919999979,"duration":166.66649999999208,"noteNumber":55,"velocity":79,"programNumber":44},{"time":263777.51399999793,"duration":166.66649999999208,"noteNumber":55,"velocity":79,"programNumber":44},{"time":263999.73599999794,"duration":166.66649999999208,"noteNumber":55,"velocity":59,"programNumber":44},{"time":264221.95799999795,"duration":166.66649999999208,"noteNumber":55,"velocity":59,"programNumber":44},{"time":264444.17999999796,"duration":166.66649999999208,"noteNumber":55,"velocity":59,"programNumber":44},{"time":264666.40199999796,"duration":166.66649999999208,"noteNumber":55,"velocity":59,"programNumber":44},{"time":264888.623999998,"duration":166.66649999999208,"noteNumber":55,"velocity":59,"programNumber":44},{"time":265110.845999998,"duration":166.66649999999208,"noteNumber":55,"velocity":40,"programNumber":44},{"time":265333.067999998,"duration":166.66649999999208,"noteNumber":55,"velocity":43,"programNumber":44},{"time":265555.289999998,"duration":166.66649999999208,"noteNumber":55,"velocity":46,"programNumber":44},{"time":265777.511999998,"duration":166.66649999999208,"noteNumber":55,"velocity":49,"programNumber":44},{"time":265999.733999998,"duration":166.66649999999208,"noteNumber":55,"velocity":52,"programNumber":44},{"time":266221.955999998,"duration":166.66649999999208,"noteNumber":55,"velocity":55,"programNumber":44},{"time":266444.17799999804,"duration":166.66649999999208,"noteNumber":55,"velocity":58,"programNumber":44},{"time":266666.39999999804,"duration":166.66649999999208,"noteNumber":55,"velocity":61,"programNumber":44},{"time":266888.62199999805,"duration":166.66649999999208,"noteNumber":55,"velocity":64,"programNumber":44},{"time":267110.84399999806,"duration":166.66649999999208,"noteNumber":54,"velocity":67,"programNumber":44},{"time":267333.06599999807,"duration":166.66649999999208,"noteNumber":54,"velocity":70,"programNumber":44},{"time":267555.2879999981,"duration":166.66649999999208,"noteNumber":55,"velocity":73,"programNumber":44},{"time":267777.5099999981,"duration":166.66649999999208,"noteNumber":55,"velocity":76,"programNumber":44},{"time":267999.7319999981,"duration":166.66649999999208,"noteNumber":52,"velocity":79,"programNumber":44},{"time":268221.9539999981,"duration":166.66649999999208,"noteNumber":52,"velocity":82,"programNumber":44},{"time":268444.1759999981,"duration":166.66649999999208,"noteNumber":50,"velocity":85,"programNumber":44},{"time":268666.3979999981,"duration":166.66649999999208,"noteNumber":50,"velocity":85,"programNumber":44},{"time":268888.61999999813,"duration":166.66649999999208,"noteNumber":50,"velocity":85,"programNumber":44},{"time":269110.84199999814,"duration":166.66649999999208,"noteNumber":50,"velocity":85,"programNumber":44},{"time":269333.06399999815,"duration":166.66649999999208,"noteNumber":50,"velocity":85,"programNumber":44},{"time":269555.28599999816,"duration":166.66649999999208,"noteNumber":50,"velocity":85,"programNumber":44},{"time":269777.50799999817,"duration":166.66649999999208,"noteNumber":50,"velocity":85,"programNumber":44},{"time":269999.7299999982,"duration":166.66649999999208,"noteNumber":50,"velocity":85,"programNumber":44},{"time":270221.9519999982,"duration":166.66649999999208,"noteNumber":50,"velocity":85,"programNumber":44},{"time":270444.1739999982,"duration":166.66649999999208,"noteNumber":50,"velocity":85,"programNumber":44},{"time":270666.3959999982,"duration":166.66649999999208,"noteNumber":50,"velocity":85,"programNumber":44},{"time":270888.6179999982,"duration":166.66649999999208,"noteNumber":50,"velocity":85,"programNumber":44},{"time":271110.8399999982,"duration":166.66649999999208,"noteNumber":50,"velocity":85,"programNumber":44},{"time":271333.06199999823,"duration":166.66649999999208,"noteNumber":50,"velocity":85,"programNumber":44},{"time":271555.28399999824,"duration":166.66649999999208,"noteNumber":50,"velocity":85,"programNumber":44},{"time":271777.50599999825,"duration":166.66649999999208,"noteNumber":50,"velocity":85,"programNumber":44},{"time":271999.72799999826,"duration":166.66649999999208,"noteNumber":50,"velocity":85,"programNumber":44},{"time":272221.94999999827,"duration":166.66649999999208,"noteNumber":50,"velocity":85,"programNumber":44},{"time":272444.1719999983,"duration":166.66649999999208,"noteNumber":50,"velocity":85,"programNumber":44},{"time":272666.3939999983,"duration":166.66649999999208,"noteNumber":50,"velocity":85,"programNumber":44},{"time":272888.6159999983,"duration":166.66649999999208,"noteNumber":50,"velocity":85,"programNumber":44},{"time":273110.8379999983,"duration":166.66649999999208,"noteNumber":50,"velocity":85,"programNumber":44},{"time":273333.0599999983,"duration":166.66649999999208,"noteNumber":50,"velocity":85,"programNumber":44},{"time":273555.2819999983,"duration":166.66649999999208,"noteNumber":50,"velocity":85,"programNumber":44},{"time":273777.5039999983,"duration":166.66649999999208,"noteNumber":50,"velocity":85,"programNumber":44},{"time":273999.72599999834,"duration":166.66649999999208,"noteNumber":50,"velocity":85,"programNumber":44},{"time":274221.94799999835,"duration":166.66649999999208,"noteNumber":50,"velocity":85,"programNumber":44},{"time":274444.16999999835,"duration":166.66649999999208,"noteNumber":50,"velocity":85,"programNumber":44},{"time":274666.39199999836,"duration":444.4440000000177,"noteNumber":50,"velocity":85,"programNumber":44},{"time":276888.6119999984,"duration":222.22200000000885,"noteNumber":56,"velocity":55,"programNumber":44},{"time":277333.0559999984,"duration":222.22200000000885,"noteNumber":57,"velocity":55,"programNumber":44},{"time":277777.4999999984,"duration":222.22200000000885,"noteNumber":55,"velocity":55,"programNumber":44},{"time":278221.94399999845,"duration":222.22200000000885,"noteNumber":54,"velocity":55,"programNumber":44},{"time":278666.38799999846,"duration":222.22200000000885,"noteNumber":50,"velocity":55,"programNumber":44},{"time":279555.2759999985,"duration":444.4440000000177,"noteNumber":51,"velocity":55,"programNumber":44},{"time":279999.7199999985,"duration":222.22200000000885,"noteNumber":52,"velocity":55,"programNumber":44},{"time":280444.16399999853,"duration":222.22200000000885,"noteNumber":48,"velocity":55,"programNumber":44},{"time":280888.60799999855,"duration":333.33299999998417,"noteNumber":50,"velocity":55,"programNumber":44},{"time":281333.0519999985,"duration":666.6660000000265,"noteNumber":62,"velocity":55,"programNumber":44},{"time":281999.71799999854,"duration":222.22200000000885,"noteNumber":61,"velocity":55,"programNumber":44},{"time":282221.93999999855,"duration":222.22200000000885,"noteNumber":60,"velocity":55,"programNumber":44},{"time":282444.16199999856,"duration":222.22200000000885,"noteNumber":57,"velocity":55,"programNumber":44},{"time":282666.38399999856,"duration":222.22200000000885,"noteNumber":55,"velocity":55,"programNumber":44},{"time":283110.8279999986,"duration":222.22200000000885,"noteNumber":57,"velocity":55,"programNumber":44},{"time":283555.2719999986,"duration":222.22200000000885,"noteNumber":59,"velocity":55,"programNumber":44},{"time":283999.7159999986,"duration":222.22200000000885,"noteNumber":56,"velocity":55,"programNumber":44},{"time":284444.15999999864,"duration":222.22200000000885,"noteNumber":57,"velocity":55,"programNumber":44},{"time":284888.60399999865,"duration":222.22200000000885,"noteNumber":55,"velocity":55,"programNumber":44},{"time":285333.0479999987,"duration":222.22200000000885,"noteNumber":54,"velocity":55,"programNumber":44},{"time":285777.4919999987,"duration":222.22200000000885,"noteNumber":50,"velocity":55,"programNumber":44},{"time":286221.9359999987,"duration":222.22200000000885,"noteNumber":52,"velocity":55,"programNumber":44},{"time":286666.3799999987,"duration":222.22200000000885,"noteNumber":60,"velocity":55,"programNumber":44},{"time":287110.82399999874,"duration":222.22200000000885,"noteNumber":62,"velocity":55,"programNumber":44},{"time":287555.26799999876,"duration":222.22200000000885,"noteNumber":50,"velocity":55,"programNumber":44},{"time":287999.7119999988,"duration":444.4440000000177,"noteNumber":43,"velocity":55,"programNumber":44},{"time":289777.4879999988,"duration":444.4440000000177,"noteNumber":50,"velocity":55,"programNumber":44},{"time":291555.2639999988,"duration":444.4440000000177,"noteNumber":43,"velocity":55,"programNumber":44},{"time":293333.0399999988,"duration":444.4440000000177,"noteNumber":50,"velocity":55,"programNumber":44},{"time":295333.03799999884,"duration":166.66649999999208,"noteNumber":55,"velocity":55,"programNumber":44},{"time":295555.25999999885,"duration":166.66649999999208,"noteNumber":59,"velocity":55,"programNumber":44},{"time":295777.48199999885,"duration":166.66649999999208,"noteNumber":57,"velocity":55,"programNumber":44},{"time":295999.70399999886,"duration":166.66649999999208,"noteNumber":56,"velocity":55,"programNumber":44},{"time":296221.9259999989,"duration":166.66649999999208,"noteNumber":52,"velocity":55,"programNumber":44},{"time":296444.1479999989,"duration":166.66649999999208,"noteNumber":54,"velocity":55,"programNumber":44},{"time":296666.3699999989,"duration":166.66649999999208,"noteNumber":55,"velocity":55,"programNumber":44},{"time":296888.5919999989,"duration":166.66649999999208,"noteNumber":57,"velocity":85,"programNumber":44},{"time":297110.8139999989,"duration":166.66649999999208,"noteNumber":60,"velocity":85,"programNumber":44},{"time":297333.0359999989,"duration":166.66649999999208,"noteNumber":57,"velocity":85,"programNumber":44},{"time":297555.2579999989,"duration":166.66649999999208,"noteNumber":55,"velocity":85,"programNumber":44},{"time":297777.47999999893,"duration":166.66649999999208,"noteNumber":54,"velocity":85,"programNumber":44},{"time":297999.70199999894,"duration":166.66649999999208,"noteNumber":50,"velocity":85,"programNumber":44},{"time":298221.92399999895,"duration":166.66649999999208,"noteNumber":52,"velocity":85,"programNumber":44},{"time":298444.14599999896,"duration":166.66649999999208,"noteNumber":54,"velocity":85,"programNumber":44},{"time":298666.36799999897,"duration":166.66649999999208,"noteNumber":55,"velocity":85,"programNumber":44},{"time":298888.589999999,"duration":166.66649999999208,"noteNumber":55,"velocity":85,"programNumber":44},{"time":299110.811999999,"duration":166.66649999999208,"noteNumber":57,"velocity":85,"programNumber":44},{"time":299333.033999999,"duration":166.66649999999208,"noteNumber":59,"velocity":85,"programNumber":44},{"time":299555.255999999,"duration":166.66649999999208,"noteNumber":60,"velocity":85,"programNumber":44},{"time":299777.477999999,"duration":166.66649999999208,"noteNumber":60,"velocity":85,"programNumber":44},{"time":299999.699999999,"duration":166.66649999999208,"noteNumber":60,"velocity":85,"programNumber":44},{"time":300221.92199999903,"duration":166.66649999999208,"noteNumber":60,"velocity":85,"programNumber":44},{"time":300444.14399999904,"duration":166.66649999999208,"noteNumber":62,"velocity":85,"programNumber":44},{"time":300666.36599999905,"duration":166.66649999999208,"noteNumber":62,"velocity":85,"programNumber":44},{"time":300888.58799999906,"duration":166.66649999999208,"noteNumber":62,"velocity":85,"programNumber":44},{"time":301110.80999999907,"duration":166.66649999999208,"noteNumber":62,"velocity":85,"programNumber":44},{"time":301333.0319999991,"duration":166.66649999999208,"noteNumber":50,"velocity":85,"programNumber":44},{"time":301555.2539999991,"duration":166.66649999999208,"noteNumber":50,"velocity":85,"programNumber":44},{"time":301777.4759999991,"duration":166.66649999999208,"noteNumber":50,"velocity":85,"programNumber":44},{"time":301999.6979999991,"duration":166.66649999999208,"noteNumber":50,"velocity":85,"programNumber":44},{"time":302221.9199999991,"duration":444.4440000000177,"noteNumber":55,"velocity":85,"programNumber":44},{"time":303999.6959999991,"duration":444.4440000000177,"noteNumber":50,"velocity":55,"programNumber":44},{"time":305777.47199999914,"duration":444.4440000000177,"noteNumber":55,"velocity":55,"programNumber":44},{"time":307555.24799999915,"duration":444.4440000000177,"noteNumber":50,"velocity":55,"programNumber":44},{"time":309555.24599999917,"duration":166.66649999999208,"noteNumber":55,"velocity":85,"programNumber":44},{"time":309777.4679999992,"duration":166.66649999999208,"noteNumber":59,"velocity":85,"programNumber":44},{"time":309999.6899999992,"duration":166.66649999999208,"noteNumber":57,"velocity":85,"programNumber":44},{"time":310221.9119999992,"duration":166.66649999999208,"noteNumber":56,"velocity":85,"programNumber":44},{"time":310444.1339999992,"duration":166.66649999999208,"noteNumber":52,"velocity":85,"programNumber":44},{"time":310666.3559999992,"duration":166.66649999999208,"noteNumber":54,"velocity":85,"programNumber":44},{"time":310888.5779999992,"duration":166.66649999999208,"noteNumber":55,"velocity":85,"programNumber":44},{"time":311110.79999999923,"duration":166.66649999999208,"noteNumber":57,"velocity":85,"programNumber":44},{"time":311333.02199999924,"duration":166.66649999999208,"noteNumber":60,"velocity":85,"programNumber":44},{"time":311555.24399999925,"duration":166.66649999999208,"noteNumber":57,"velocity":85,"programNumber":44},{"time":311777.46599999926,"duration":166.66649999999208,"noteNumber":55,"velocity":85,"programNumber":44},{"time":311999.68799999927,"duration":166.66649999999208,"noteNumber":54,"velocity":85,"programNumber":44},{"time":312221.9099999993,"duration":166.66649999999208,"noteNumber":50,"velocity":85,"programNumber":44},{"time":312444.1319999993,"duration":166.66649999999208,"noteNumber":52,"velocity":85,"programNumber":44},{"time":312666.3539999993,"duration":166.66649999999208,"noteNumber":54,"velocity":85,"programNumber":44},{"time":312888.5759999993,"duration":166.66649999999208,"noteNumber":55,"velocity":85,"programNumber":44},{"time":313110.7979999993,"duration":166.66649999999208,"noteNumber":55,"velocity":85,"programNumber":44},{"time":313333.0199999993,"duration":166.66649999999208,"noteNumber":57,"velocity":85,"programNumber":44},{"time":313555.2419999993,"duration":166.66649999999208,"noteNumber":59,"velocity":85,"programNumber":44},{"time":313777.46399999934,"duration":166.66649999999208,"noteNumber":60,"velocity":85,"programNumber":44},{"time":313999.68599999935,"duration":166.66649999999208,"noteNumber":60,"velocity":85,"programNumber":44},{"time":314221.90799999936,"duration":166.66649999999208,"noteNumber":60,"velocity":85,"programNumber":44},{"time":314444.12999999936,"duration":166.66649999999208,"noteNumber":60,"velocity":85,"programNumber":44},{"time":314666.3519999994,"duration":166.66649999999208,"noteNumber":62,"velocity":85,"programNumber":44},{"time":314888.5739999994,"duration":166.66649999999208,"noteNumber":62,"velocity":85,"programNumber":44},{"time":315110.7959999994,"duration":166.66649999999208,"noteNumber":62,"velocity":85,"programNumber":44},{"time":315333.0179999994,"duration":166.66649999999208,"noteNumber":62,"velocity":85,"programNumber":44},{"time":315555.2399999994,"duration":166.66649999999208,"noteNumber":50,"velocity":85,"programNumber":44},{"time":315777.4619999994,"duration":166.66649999999208,"noteNumber":50,"velocity":85,"programNumber":44},{"time":315999.6839999994,"duration":166.66649999999208,"noteNumber":50,"velocity":85,"programNumber":44},{"time":316221.90599999944,"duration":166.66649999999208,"noteNumber":50,"velocity":85,"programNumber":44},{"time":316444.12799999944,"duration":166.66649999999208,"noteNumber":55,"velocity":85,"programNumber":44},{"time":316666.34999999945,"duration":166.66649999999208,"noteNumber":50,"velocity":85,"programNumber":44},{"time":316888.57199999946,"duration":166.66649999999208,"noteNumber":52,"velocity":85,"programNumber":44},{"time":317110.79399999947,"duration":166.66649999999208,"noteNumber":54,"velocity":85,"programNumber":44},{"time":317333.0159999995,"duration":166.66649999999208,"noteNumber":55,"velocity":85,"programNumber":44},{"time":317555.2379999995,"duration":166.66649999999208,"noteNumber":55,"velocity":85,"programNumber":44},{"time":317777.4599999995,"duration":166.66649999999208,"noteNumber":57,"velocity":85,"programNumber":44},{"time":317999.6819999995,"duration":166.66649999999208,"noteNumber":57,"velocity":85,"programNumber":44},{"time":318221.9039999995,"duration":166.66649999999208,"noteNumber":59,"velocity":85,"programNumber":44},{"time":318444.1259999995,"duration":166.66649999999208,"noteNumber":54,"velocity":85,"programNumber":44},{"time":318666.34799999953,"duration":166.66649999999208,"noteNumber":55,"velocity":85,"programNumber":44},{"time":318888.56999999954,"duration":166.66649999999208,"noteNumber":57,"velocity":85,"programNumber":44},{"time":319110.79199999955,"duration":166.66649999999208,"noteNumber":59,"velocity":85,"programNumber":44},{"time":319333.01399999956,"duration":166.66649999999208,"noteNumber":59,"velocity":85,"programNumber":44},{"time":319555.23599999957,"duration":166.66649999999208,"noteNumber":60,"velocity":85,"programNumber":44},{"time":319777.4579999996,"duration":166.66649999999208,"noteNumber":60,"velocity":85,"programNumber":44},{"time":319999.6799999996,"duration":166.66649999999208,"noteNumber":62,"velocity":85,"programNumber":44},{"time":320221.9019999996,"duration":166.66649999999208,"noteNumber":62,"velocity":85,"programNumber":44},{"time":320444.1239999996,"duration":166.66649999999208,"noteNumber":63,"velocity":85,"programNumber":44},{"time":320666.3459999996,"duration":166.66649999999208,"noteNumber":63,"velocity":85,"programNumber":44},{"time":320888.5679999996,"duration":444.4440000000177,"noteNumber":64,"velocity":85,"programNumber":44},{"time":321777.45599999966,"duration":888.8879999999772,"noteNumber":48,"velocity":70,"programNumber":44},{"time":322666.34399999963,"duration":888.8879999999772,"noteNumber":50,"velocity":70,"programNumber":44},{"time":323555.2319999996,"duration":444.4440000000177,"noteNumber":43,"velocity":70,"programNumber":44},{"time":325333.0079999996,"duration":888.8879999999772,"noteNumber":48,"velocity":70,"programNumber":44},{"time":326221.8959999996,"duration":888.8879999999772,"noteNumber":50,"velocity":70,"programNumber":44},{"time":327110.7839999996,"duration":444.4440000000177,"noteNumber":43,"velocity":70,"programNumber":44},{"time":328888.5599999996,"duration":444.4440000000177,"noteNumber":48,"velocity":80,"programNumber":44},{"time":329777.4479999996,"duration":444.4440000000177,"noteNumber":50,"velocity":109,"programNumber":44},{"time":330666.33599999966,"duration":166.66649999999208,"noteNumber":43,"velocity":99,"programNumber":44},{"time":330888.55799999967,"duration":166.66649999999208,"noteNumber":43,"velocity":95,"programNumber":44},{"time":331110.7799999997,"duration":166.66649999999208,"noteNumber":43,"velocity":93,"programNumber":44},{"time":331333.0019999997,"duration":166.66649999999208,"noteNumber":43,"velocity":93,"programNumber":44},{"time":331555.2239999997,"duration":166.66649999999208,"noteNumber":43,"velocity":93,"programNumber":44},{"time":331777.4459999997,"duration":166.66649999999208,"noteNumber":43,"velocity":94,"programNumber":44},{"time":331999.6679999997,"duration":166.66649999999208,"noteNumber":43,"velocity":94,"programNumber":44},{"time":332221.8899999997,"duration":166.66649999999208,"noteNumber":43,"velocity":94,"programNumber":44},{"time":332444.11199999973,"duration":166.66649999999208,"noteNumber":43,"velocity":94,"programNumber":44},{"time":332666.33399999974,"duration":166.66649999999208,"noteNumber":43,"velocity":94,"programNumber":44},{"time":332888.55599999975,"duration":166.66649999999208,"noteNumber":43,"velocity":94,"programNumber":44},{"time":333110.77799999976,"duration":166.66649999999208,"noteNumber":43,"velocity":94,"programNumber":44},{"time":333332.99999999977,"duration":166.66649999999208,"noteNumber":43,"velocity":94,"programNumber":44},{"time":333555.2219999998,"duration":166.66649999999208,"noteNumber":43,"velocity":94,"programNumber":44},{"time":333777.4439999998,"duration":166.66649999999208,"noteNumber":43,"velocity":94,"programNumber":44},{"time":333999.6659999998,"duration":166.66649999999208,"noteNumber":43,"velocity":94,"programNumber":44},{"time":334221.8879999998,"duration":166.66649999999208,"noteNumber":43,"velocity":94,"programNumber":44},{"time":334444.1099999998,"duration":166.66649999999208,"noteNumber":43,"velocity":94,"programNumber":44},{"time":334666.3319999998,"duration":166.66649999999208,"noteNumber":43,"velocity":94,"programNumber":44},{"time":334888.5539999998,"duration":166.66649999999208,"noteNumber":43,"velocity":94,"programNumber":44},{"time":335110.77599999984,"duration":166.66649999999208,"noteNumber":43,"velocity":94,"programNumber":44},{"time":335332.99799999985,"duration":166.66649999999208,"noteNumber":43,"velocity":94,"programNumber":44},{"time":335555.21999999986,"duration":166.66649999999208,"noteNumber":43,"velocity":94,"programNumber":44},{"time":335777.44199999986,"duration":166.66649999999208,"noteNumber":43,"velocity":94,"programNumber":44},{"time":335999.6639999999,"duration":166.66649999999208,"noteNumber":43,"velocity":94,"programNumber":44},{"time":336221.8859999999,"duration":166.66649999999208,"noteNumber":43,"velocity":94,"programNumber":44},{"time":336444.1079999999,"duration":166.66649999999208,"noteNumber":43,"velocity":94,"programNumber":44},{"time":336666.3299999999,"duration":166.66649999999208,"noteNumber":43,"velocity":94,"programNumber":44},{"time":336888.5519999999,"duration":166.66649999999208,"noteNumber":43,"velocity":94,"programNumber":44},{"time":337110.7739999999,"duration":166.66649999999208,"noteNumber":43,"velocity":94,"programNumber":44},{"time":337332.9959999999,"duration":166.66649999999208,"noteNumber":43,"velocity":94,"programNumber":44},{"time":337555.21799999994,"duration":166.66649999999208,"noteNumber":43,"velocity":94,"programNumber":44},{"time":337777.43999999994,"duration":166.66649999999208,"noteNumber":43,"velocity":94,"programNumber":44},{"time":337999.66199999995,"duration":166.66649999999208,"noteNumber":47,"velocity":96,"programNumber":44},{"time":338221.88399999996,"duration":166.66649999999208,"noteNumber":50,"velocity":98,"programNumber":44},{"time":338444.10599999997,"duration":166.66649999999208,"noteNumber":55,"velocity":98,"programNumber":44},{"time":338666.328,"duration":166.66649999999208,"noteNumber":59,"velocity":97,"programNumber":44},{"time":338888.55,"duration":166.66649999999208,"noteNumber":55,"velocity":93,"programNumber":44},{"time":339110.772,"duration":166.66649999999208,"noteNumber":62,"velocity":92,"programNumber":44},{"time":339332.994,"duration":166.66649999999208,"noteNumber":59,"velocity":93,"programNumber":44},{"time":339555.216,"duration":370.36999999999534,"noteNumber":55,"velocity":94,"programNumber":44},{"time":339999.66000000003,"duration":222.22200000000885,"noteNumber":43,"velocity":94,"programNumber":44},{"time":340332.993,"duration":55.555500000016764,"noteNumber":43,"velocity":93,"programNumber":44},{"time":340444.10400000005,"duration":444.4440000000177,"noteNumber":43,"velocity":92,"programNumber":44}],[{"time":0,"duration":444.444,"noteNumber":71,"velocity":85,"programNumber":45},{"time":0,"duration":444.444,"noteNumber":79,"velocity":85,"programNumber":45},{"time":0,"duration":444.444,"noteNumber":62,"velocity":85,"programNumber":45},{"time":666.666,"duration":111.11099999999999,"noteNumber":74,"velocity":85,"programNumber":45},{"time":888.888,"duration":444.4440000000001,"noteNumber":79,"velocity":85,"programNumber":45},{"time":1555.554,"duration":111.1110000000001,"noteNumber":74,"velocity":85,"programNumber":45},{"time":1777.7760000000003,"duration":111.1110000000001,"noteNumber":79,"velocity":85,"programNumber":45},{"time":1999.9980000000005,"duration":111.11099999999988,"noteNumber":74,"velocity":85,"programNumber":45},{"time":2222.2200000000003,"duration":111.11099999999988,"noteNumber":79,"velocity":85,"programNumber":45},{"time":2444.442,"duration":111.11099999999988,"noteNumber":83,"velocity":85,"programNumber":45},{"time":2666.6639999999998,"duration":444.44399999999996,"noteNumber":86,"velocity":85,"programNumber":45},{"time":3555.5519999999997,"duration":444.44399999999996,"noteNumber":84,"velocity":85,"programNumber":45},{"time":4222.218,"duration":111.11099999999988,"noteNumber":81,"velocity":82,"programNumber":45},{"time":4444.44,"duration":444.4440000000004,"noteNumber":84,"velocity":85,"programNumber":45},{"time":5111.106,"duration":111.11099999999988,"noteNumber":81,"velocity":79,"programNumber":45},{"time":5333.3279999999995,"duration":111.11099999999988,"noteNumber":84,"velocity":85,"programNumber":45},{"time":5555.549999999999,"duration":111.11099999999988,"noteNumber":81,"velocity":80,"programNumber":45},{"time":5777.771999999999,"duration":111.11099999999988,"noteNumber":78,"velocity":85,"programNumber":45},{"time":5999.993999999999,"duration":111.11099999999988,"noteNumber":81,"velocity":77,"programNumber":45},{"time":6222.2159999999985,"duration":444.4440000000004,"noteNumber":74,"velocity":85,"programNumber":45},{"time":7111.103999999999,"duration":222.22199999999975,"noteNumber":71,"velocity":85,"programNumber":45},{"time":7111.103999999999,"duration":222.22199999999975,"noteNumber":79,"velocity":85,"programNumber":45},{"time":7111.103999999999,"duration":222.22199999999975,"noteNumber":62,"velocity":85,"programNumber":45},{"time":7555.547999999999,"duration":666.6659999999993,"noteNumber":79,"velocity":85,"programNumber":45},{"time":8222.213999999998,"duration":222.22199999999975,"noteNumber":83,"velocity":89,"programNumber":45},{"time":8444.435999999998,"duration":111.11100000000079,"noteNumber":81,"velocity":94,"programNumber":45},{"time":8666.658,"duration":111.11100000000079,"noteNumber":79,"velocity":97,"programNumber":45},{"time":8888.880000000001,"duration":55.55550000000039,"noteNumber":79,"velocity":95,"programNumber":45},{"time":8944.435500000001,"duration":55.55550000000039,"noteNumber":81,"velocity":95,"programNumber":45},{"time":8999.991000000002,"duration":55.55550000000039,"noteNumber":79,"velocity":95,"programNumber":45},{"time":9055.546500000002,"duration":55.55550000000039,"noteNumber":81,"velocity":94,"programNumber":45},{"time":9111.102000000003,"duration":185.1849999999995,"noteNumber":78,"velocity":94,"programNumber":45},{"time":9333.324000000002,"duration":666.6659999999993,"noteNumber":78,"velocity":88,"programNumber":45},{"time":9999.990000000002,"duration":222.22199999999975,"noteNumber":81,"velocity":85,"programNumber":45},{"time":10222.212000000001,"duration":111.11100000000079,"noteNumber":84,"velocity":85,"programNumber":45},{"time":10444.434000000003,"duration":111.11100000000079,"noteNumber":78,"velocity":85,"programNumber":45},{"time":10666.656000000004,"duration":222.22199999999975,"noteNumber":81,"velocity":85,"programNumber":45},{"time":10888.878000000004,"duration":111.11100000000079,"noteNumber":79,"velocity":85,"programNumber":45},{"time":11111.100000000006,"duration":666.6659999999993,"noteNumber":79,"velocity":85,"programNumber":45},{"time":11777.766000000005,"duration":222.22199999999975,"noteNumber":83,"velocity":86,"programNumber":45},{"time":11999.988000000005,"duration":111.11100000000079,"noteNumber":81,"velocity":86,"programNumber":45},{"time":12222.210000000006,"duration":111.11100000000079,"noteNumber":79,"velocity":89,"programNumber":45},{"time":12444.432000000008,"duration":55.55550000000039,"noteNumber":79,"velocity":91,"programNumber":45},{"time":12499.987500000008,"duration":55.55550000000039,"noteNumber":81,"velocity":91,"programNumber":45},{"time":12555.543000000009,"duration":55.55550000000039,"noteNumber":79,"velocity":92,"programNumber":45},{"time":12611.09850000001,"duration":55.55550000000039,"noteNumber":81,"velocity":94,"programNumber":45},{"time":12666.65400000001,"duration":185.1849999999995,"noteNumber":78,"velocity":94,"programNumber":45},{"time":12888.87600000001,"duration":666.6659999999993,"noteNumber":78,"velocity":94,"programNumber":45},{"time":13555.542000000009,"duration":222.22199999999975,"noteNumber":81,"velocity":85,"programNumber":45},{"time":13777.764000000008,"duration":111.11100000000079,"noteNumber":84,"velocity":85,"programNumber":45},{"time":13999.98600000001,"duration":111.11100000000079,"noteNumber":78,"velocity":85,"programNumber":45},{"time":14222.208000000011,"duration":111.11100000000079,"noteNumber":79,"velocity":85,"programNumber":45},{"time":14444.430000000013,"duration":111.11100000000079,"noteNumber":79,"velocity":85,"programNumber":45},{"time":14666.652000000015,"duration":111.11100000000079,"noteNumber":79,"velocity":85,"programNumber":45},{"time":14777.763000000015,"duration":111.11100000000079,"noteNumber":78,"velocity":85,"programNumber":45},{"time":14888.874000000016,"duration":111.11100000000079,"noteNumber":76,"velocity":85,"programNumber":45},{"time":14999.985000000017,"duration":111.11100000000079,"noteNumber":78,"velocity":85,"programNumber":45},{"time":15111.096000000018,"duration":111.11100000000079,"noteNumber":79,"velocity":85,"programNumber":45},{"time":15333.31800000002,"duration":111.11100000000079,"noteNumber":79,"velocity":85,"programNumber":45},{"time":15555.54000000002,"duration":111.11100000000079,"noteNumber":83,"velocity":85,"programNumber":45},{"time":15666.651000000022,"duration":111.11100000000079,"noteNumber":81,"velocity":85,"programNumber":45},{"time":15777.762000000022,"duration":111.11100000000079,"noteNumber":79,"velocity":85,"programNumber":45},{"time":15888.873000000023,"duration":111.11100000000079,"noteNumber":81,"velocity":85,"programNumber":45},{"time":15999.984000000024,"duration":111.11100000000079,"noteNumber":83,"velocity":86,"programNumber":45},{"time":16222.206000000026,"duration":111.11100000000079,"noteNumber":83,"velocity":86,"programNumber":45},{"time":16444.428000000025,"duration":111.11100000000079,"noteNumber":86,"velocity":83,"programNumber":45},{"time":16555.539000000026,"duration":111.11100000000079,"noteNumber":84,"velocity":80,"programNumber":45},{"time":16666.650000000027,"duration":111.11100000000079,"noteNumber":83,"velocity":80,"programNumber":45},{"time":16777.761000000028,"duration":111.11100000000079,"noteNumber":84,"velocity":79,"programNumber":45},{"time":16888.87200000003,"duration":444.4439999999995,"noteNumber":86,"velocity":76,"programNumber":45},{"time":17777.760000000028,"duration":888.887999999999,"noteNumber":74,"velocity":41,"programNumber":45},{"time":18666.648000000027,"duration":888.887999999999,"noteNumber":76,"velocity":47,"programNumber":45},{"time":19555.536000000026,"duration":111.11100000000079,"noteNumber":74,"velocity":47,"programNumber":45},{"time":19666.647000000026,"duration":296.29599999999846,"noteNumber":72,"velocity":47,"programNumber":45},{"time":19999.980000000025,"duration":444.4439999999995,"noteNumber":72,"velocity":47,"programNumber":45},{"time":20444.424000000025,"duration":111.11100000000079,"noteNumber":72,"velocity":47,"programNumber":45},{"time":20555.535000000025,"duration":296.29599999999846,"noteNumber":71,"velocity":47,"programNumber":45},{"time":20888.868000000024,"duration":444.4439999999995,"noteNumber":71,"velocity":47,"programNumber":45},{"time":21333.312000000024,"duration":111.11100000000079,"noteNumber":71,"velocity":47,"programNumber":45},{"time":21444.423000000024,"duration":296.29599999999846,"noteNumber":69,"velocity":47,"programNumber":45},{"time":21777.756000000023,"duration":444.4439999999995,"noteNumber":69,"velocity":47,"programNumber":45},{"time":22222.200000000023,"duration":222.22200000000157,"noteNumber":67,"velocity":47,"programNumber":45},{"time":22444.422000000024,"duration":111.11100000000079,"noteNumber":66,"velocity":47,"programNumber":45},{"time":22666.644000000026,"duration":111.11100000000079,"noteNumber":64,"velocity":47,"programNumber":45},{"time":22888.866000000027,"duration":111.11100000000079,"noteNumber":66,"velocity":47,"programNumber":45},{"time":23111.08800000003,"duration":222.22200000000157,"noteNumber":67,"velocity":47,"programNumber":45},{"time":23555.532000000032,"duration":222.22200000000157,"noteNumber":69,"velocity":47,"programNumber":45},{"time":23999.976000000035,"duration":222.22200000000157,"noteNumber":71,"velocity":47,"programNumber":45},{"time":24888.864000000038,"duration":888.887999999999,"noteNumber":74,"velocity":47,"programNumber":45},{"time":25777.752000000037,"duration":888.887999999999,"noteNumber":76,"velocity":47,"programNumber":45},{"time":26666.640000000036,"duration":222.22200000000157,"noteNumber":74,"velocity":47,"programNumber":45},{"time":26888.862000000037,"duration":111.11100000000079,"noteNumber":72,"velocity":47,"programNumber":45},{"time":27111.08400000004,"duration":111.11100000000079,"noteNumber":72,"velocity":47,"programNumber":45},{"time":27333.30600000004,"duration":111.11100000000079,"noteNumber":72,"velocity":47,"programNumber":45},{"time":27555.528000000042,"duration":222.22200000000157,"noteNumber":72,"velocity":47,"programNumber":45},{"time":27777.750000000044,"duration":111.11100000000079,"noteNumber":71,"velocity":47,"programNumber":45},{"time":27999.972000000045,"duration":111.11100000000079,"noteNumber":71,"velocity":47,"programNumber":45},{"time":28222.194000000047,"duration":111.11100000000079,"noteNumber":71,"velocity":47,"programNumber":45},{"time":28444.41600000005,"duration":222.22200000000157,"noteNumber":71,"velocity":47,"programNumber":45},{"time":28666.63800000005,"duration":111.11100000000079,"noteNumber":69,"velocity":47,"programNumber":45},{"time":28888.86000000005,"duration":166.66649999999936,"noteNumber":69,"velocity":47,"programNumber":45},{"time":29111.08200000005,"duration":166.66649999999936,"noteNumber":69,"velocity":47,"programNumber":45},{"time":29333.304000000047,"duration":222.22200000000157,"noteNumber":67,"velocity":47,"programNumber":45},{"time":29555.52600000005,"duration":222.22200000000157,"noteNumber":66,"velocity":47,"programNumber":45},{"time":29777.74800000005,"duration":222.22200000000157,"noteNumber":64,"velocity":47,"programNumber":45},{"time":29999.970000000052,"duration":222.22200000000157,"noteNumber":66,"velocity":47,"programNumber":45},{"time":30222.192000000054,"duration":1111.1100000000006,"noteNumber":67,"velocity":85,"programNumber":45},{"time":30222.192000000054,"duration":1111.1100000000006,"noteNumber":55,"velocity":85,"programNumber":45},{"time":31333.302000000054,"duration":55.555499999998574,"noteNumber":67,"velocity":61,"programNumber":45},{"time":31388.857500000053,"duration":55.555499999998574,"noteNumber":69,"velocity":61,"programNumber":45},{"time":31444.41300000005,"duration":55.555499999998574,"noteNumber":66,"velocity":61,"programNumber":45},{"time":31499.96850000005,"duration":55.555499999998574,"noteNumber":67,"velocity":61,"programNumber":45},{"time":31555.52400000005,"duration":222.22200000000157,"noteNumber":69,"velocity":61,"programNumber":45},{"time":31777.74600000005,"duration":222.22200000000157,"noteNumber":66,"velocity":61,"programNumber":45},{"time":31999.96800000005,"duration":1111.1100000000006,"noteNumber":71,"velocity":85,"programNumber":45},{"time":33111.07800000005,"duration":55.55550000000221,"noteNumber":71,"velocity":61,"programNumber":45},{"time":33166.633500000054,"duration":55.55550000000221,"noteNumber":72,"velocity":61,"programNumber":45},{"time":33222.18900000006,"duration":55.55550000000221,"noteNumber":69,"velocity":61,"programNumber":45},{"time":33277.74450000006,"duration":55.55550000000221,"noteNumber":71,"velocity":61,"programNumber":45},{"time":33333.30000000006,"duration":222.22200000000157,"noteNumber":72,"velocity":61,"programNumber":45},{"time":33555.52200000006,"duration":222.22200000000157,"noteNumber":69,"velocity":61,"programNumber":45},{"time":33777.744000000064,"duration":74.07400000000052,"noteNumber":74,"velocity":46,"programNumber":45},{"time":33888.85500000006,"duration":74.07400000000052,"noteNumber":74,"velocity":46,"programNumber":45},{"time":33999.96600000006,"duration":74.07400000000052,"noteNumber":74,"velocity":47,"programNumber":45},{"time":34111.077000000056,"duration":74.07400000000052,"noteNumber":74,"velocity":47,"programNumber":45},{"time":34222.18800000005,"duration":74.07400000000052,"noteNumber":74,"velocity":49,"programNumber":45},{"time":34333.29900000005,"duration":74.07400000000052,"noteNumber":74,"velocity":50,"programNumber":45},{"time":34444.41000000005,"duration":74.07400000000052,"noteNumber":74,"velocity":50,"programNumber":45},{"time":34555.521000000044,"duration":74.07400000000052,"noteNumber":74,"velocity":52,"programNumber":45},{"time":34666.63200000004,"duration":74.07400000000052,"noteNumber":76,"velocity":53,"programNumber":45},{"time":34777.74300000004,"duration":74.07400000000052,"noteNumber":76,"velocity":53,"programNumber":45},{"time":34888.854000000036,"duration":74.07400000000052,"noteNumber":76,"velocity":55,"programNumber":45},{"time":34999.96500000003,"duration":74.07400000000052,"noteNumber":76,"velocity":56,"programNumber":45},{"time":35111.07600000003,"duration":74.07400000000052,"noteNumber":78,"velocity":56,"programNumber":45},{"time":35222.18700000003,"duration":74.07400000000052,"noteNumber":78,"velocity":58,"programNumber":45},{"time":35333.298000000024,"duration":74.07400000000052,"noteNumber":78,"velocity":58,"programNumber":45},{"time":35444.40900000002,"duration":74.07400000000052,"noteNumber":78,"velocity":59,"programNumber":45},{"time":35555.52000000002,"duration":74.07400000000052,"noteNumber":79,"velocity":61,"programNumber":45},{"time":35666.631000000016,"duration":74.07400000000052,"noteNumber":79,"velocity":61,"programNumber":45},{"time":35777.74200000001,"duration":74.07400000000052,"noteNumber":79,"velocity":62,"programNumber":45},{"time":35888.85300000001,"duration":74.07400000000052,"noteNumber":79,"velocity":64,"programNumber":45},{"time":35999.96400000001,"duration":74.07400000000052,"noteNumber":81,"velocity":64,"programNumber":45},{"time":36111.075000000004,"duration":74.07400000000052,"noteNumber":81,"velocity":65,"programNumber":45},{"time":36222.186,"duration":74.07400000000052,"noteNumber":81,"velocity":67,"programNumber":45},{"time":36333.297,"duration":74.07400000000052,"noteNumber":81,"velocity":67,"programNumber":45},{"time":36444.407999999996,"duration":74.07400000000052,"noteNumber":83,"velocity":68,"programNumber":45},{"time":36555.51899999999,"duration":74.07400000000052,"noteNumber":83,"velocity":68,"programNumber":45},{"time":36666.62999999999,"duration":74.07400000000052,"noteNumber":83,"velocity":70,"programNumber":45},{"time":36777.74099999999,"duration":74.07400000000052,"noteNumber":83,"velocity":71,"programNumber":45},{"time":36888.851999999984,"duration":74.07400000000052,"noteNumber":85,"velocity":71,"programNumber":45},{"time":36999.96299999998,"duration":74.07400000000052,"noteNumber":85,"velocity":73,"programNumber":45},{"time":37111.07399999998,"duration":74.07400000000052,"noteNumber":85,"velocity":74,"programNumber":45},{"time":37222.184999999976,"duration":74.07400000000052,"noteNumber":85,"velocity":74,"programNumber":45},{"time":37333.29599999997,"duration":666.6659999999974,"noteNumber":86,"velocity":85,"programNumber":45},{"time":37999.96199999997,"duration":222.22200000000157,"noteNumber":81,"velocity":85,"programNumber":45},{"time":38222.18399999997,"duration":333.3329999999987,"noteNumber":85,"velocity":94,"programNumber":45},{"time":38555.51699999997,"duration":111.11099999999715,"noteNumber":81,"velocity":85,"programNumber":45},{"time":38666.62799999997,"duration":333.3329999999987,"noteNumber":85,"velocity":85,"programNumber":45},{"time":38999.96099999997,"duration":111.11099999999715,"noteNumber":81,"velocity":85,"programNumber":45},{"time":39111.071999999964,"duration":666.6659999999974,"noteNumber":86,"velocity":85,"programNumber":45},{"time":39777.73799999996,"duration":222.22200000000157,"noteNumber":81,"velocity":85,"programNumber":45},{"time":39999.95999999996,"duration":333.3329999999987,"noteNumber":85,"velocity":85,"programNumber":45},{"time":40333.29299999996,"duration":111.11099999999715,"noteNumber":81,"velocity":85,"programNumber":45},{"time":40444.40399999996,"duration":333.3329999999987,"noteNumber":85,"velocity":85,"programNumber":45},{"time":40777.73699999996,"duration":111.11099999999715,"noteNumber":81,"velocity":85,"programNumber":45},{"time":40888.847999999954,"duration":111.11099999999715,"noteNumber":86,"velocity":85,"programNumber":45},{"time":41111.06999999995,"duration":333.3329999999987,"noteNumber":86,"velocity":85,"programNumber":45},{"time":41111.06999999995,"duration":333.3329999999987,"noteNumber":78,"velocity":85,"programNumber":45},{"time":41555.513999999945,"duration":333.3329999999987,"noteNumber":86,"velocity":85,"programNumber":45},{"time":41555.513999999945,"duration":333.3329999999987,"noteNumber":78,"velocity":85,"programNumber":45},{"time":41999.95799999994,"duration":333.3329999999987,"noteNumber":86,"velocity":85,"programNumber":45},{"time":41999.95799999994,"duration":333.3329999999987,"noteNumber":78,"velocity":85,"programNumber":45},{"time":42444.40199999994,"duration":222.22200000000157,"noteNumber":78,"velocity":85,"programNumber":45},{"time":42666.62399999994,"duration":111.11099999999715,"noteNumber":76,"velocity":85,"programNumber":45},{"time":42444.40199999994,"duration":333.3329999999987,"noteNumber":86,"velocity":85,"programNumber":45},{"time":42888.84599999993,"duration":333.3329999999987,"noteNumber":86,"velocity":85,"programNumber":45},{"time":42888.84599999993,"duration":333.3329999999987,"noteNumber":76,"velocity":85,"programNumber":45},{"time":43333.28999999993,"duration":333.3329999999987,"noteNumber":86,"velocity":85,"programNumber":45},{"time":43333.28999999993,"duration":333.3329999999987,"noteNumber":76,"velocity":85,"programNumber":45},{"time":43777.733999999924,"duration":333.3329999999987,"noteNumber":86,"velocity":85,"programNumber":45},{"time":43777.733999999924,"duration":333.3329999999987,"noteNumber":76,"velocity":85,"programNumber":45},{"time":44222.17799999992,"duration":222.22200000000157,"noteNumber":86,"velocity":85,"programNumber":45},{"time":44222.17799999992,"duration":222.22200000000157,"noteNumber":76,"velocity":85,"programNumber":45},{"time":44444.39999999992,"duration":166.66649999999936,"noteNumber":85,"velocity":92,"programNumber":45},{"time":44444.39999999992,"duration":166.66649999999936,"noteNumber":76,"velocity":92,"programNumber":45},{"time":44666.62199999992,"duration":166.66649999999936,"noteNumber":81,"velocity":85,"programNumber":45},{"time":44888.843999999925,"duration":166.66649999999936,"noteNumber":86,"velocity":85,"programNumber":45},{"time":45111.065999999926,"duration":166.66649999999936,"noteNumber":81,"velocity":85,"programNumber":45},{"time":45333.28799999993,"duration":166.66649999999936,"noteNumber":85,"velocity":85,"programNumber":45},{"time":45555.50999999993,"duration":166.66649999999936,"noteNumber":81,"velocity":85,"programNumber":45},{"time":45777.73199999993,"duration":166.66649999999936,"noteNumber":86,"velocity":85,"programNumber":45},{"time":45999.95399999993,"duration":166.66649999999936,"noteNumber":81,"velocity":85,"programNumber":45},{"time":46222.175999999934,"duration":166.66649999999936,"noteNumber":85,"velocity":94,"programNumber":45},{"time":46444.397999999936,"duration":166.66649999999936,"noteNumber":69,"velocity":85,"programNumber":45},{"time":46666.61999999994,"duration":166.66649999999936,"noteNumber":69,"velocity":85,"programNumber":45},{"time":46888.84199999994,"duration":166.66649999999936,"noteNumber":69,"velocity":85,"programNumber":45},{"time":47111.06399999994,"duration":444.44400000000314,"noteNumber":69,"velocity":85,"programNumber":45},{"time":47999.95199999994,"duration":666.6659999999902,"noteNumber":81,"velocity":55,"programNumber":45},{"time":48666.61799999993,"duration":74.07400000000052,"noteNumber":79,"velocity":55,"programNumber":45},{"time":48740.69199999993,"duration":74.07400000000052,"noteNumber":78,"velocity":55,"programNumber":45},{"time":48814.76599999993,"duration":74.07400000000052,"noteNumber":76,"velocity":55,"programNumber":45},{"time":48888.83999999993,"duration":222.22200000000157,"noteNumber":74,"velocity":55,"programNumber":45},{"time":49333.283999999934,"duration":222.22200000000157,"noteNumber":83,"velocity":55,"programNumber":45},{"time":49777.72799999994,"duration":222.22200000000157,"noteNumber":79,"velocity":55,"programNumber":45},{"time":50222.17199999994,"duration":222.22200000000157,"noteNumber":76,"velocity":55,"programNumber":45},{"time":50666.61599999994,"duration":222.22200000000157,"noteNumber":81,"velocity":55,"programNumber":45},{"time":51555.50399999994,"duration":666.6659999999974,"noteNumber":78,"velocity":55,"programNumber":45},{"time":52222.16999999994,"duration":74.07400000000052,"noteNumber":76,"velocity":55,"programNumber":45},{"time":52296.24399999994,"duration":74.07400000000052,"noteNumber":74,"velocity":55,"programNumber":45},{"time":52370.31799999994,"duration":74.07400000000052,"noteNumber":73,"velocity":55,"programNumber":45},{"time":52444.39199999994,"duration":222.22200000000157,"noteNumber":71,"velocity":55,"programNumber":45},{"time":52888.835999999945,"duration":222.22200000000157,"noteNumber":79,"velocity":55,"programNumber":45},{"time":53333.27999999995,"duration":888.887999999999,"noteNumber":78,"velocity":55,"programNumber":45},{"time":54222.16799999995,"duration":444.44400000000314,"noteNumber":76,"velocity":49,"programNumber":45},{"time":55333.27799999995,"duration":111.11099999999715,"noteNumber":81,"velocity":55,"programNumber":45},{"time":55555.49999999994,"duration":111.11099999999715,"noteNumber":81,"velocity":55,"programNumber":45},{"time":55777.721999999936,"duration":111.11099999999715,"noteNumber":81,"velocity":55,"programNumber":45},{"time":55999.94399999993,"duration":111.11099999999715,"noteNumber":81,"velocity":55,"programNumber":45},{"time":56222.165999999925,"duration":111.11099999999715,"noteNumber":81,"velocity":55,"programNumber":45},{"time":56444.38799999992,"duration":111.11099999999715,"noteNumber":81,"velocity":55,"programNumber":45},{"time":56666.60999999991,"duration":111.11099999999715,"noteNumber":81,"velocity":55,"programNumber":45},{"time":56888.83199999991,"duration":111.11099999999715,"noteNumber":81,"velocity":55,"programNumber":45},{"time":57111.0539999999,"duration":111.11099999999715,"noteNumber":81,"velocity":55,"programNumber":45},{"time":57333.275999999896,"duration":111.11099999999715,"noteNumber":81,"velocity":55,"programNumber":45},{"time":57555.49799999989,"duration":111.11099999999715,"noteNumber":81,"velocity":55,"programNumber":45},{"time":57777.719999999885,"duration":111.11099999999715,"noteNumber":81,"velocity":55,"programNumber":45},{"time":57999.94199999988,"duration":111.11099999999715,"noteNumber":81,"velocity":55,"programNumber":45},{"time":58222.16399999987,"duration":111.11099999999715,"noteNumber":83,"velocity":55,"programNumber":45},{"time":58444.38599999987,"duration":111.11099999999715,"noteNumber":85,"velocity":55,"programNumber":45},{"time":58666.60799999986,"duration":222.22200000000157,"noteNumber":85,"velocity":55,"programNumber":45},{"time":58888.82999999986,"duration":222.22200000000157,"noteNumber":86,"velocity":55,"programNumber":45},{"time":59333.27399999987,"duration":111.11099999999715,"noteNumber":83,"velocity":55,"programNumber":45},{"time":59555.49599999986,"duration":222.22200000000157,"noteNumber":83,"velocity":55,"programNumber":45},{"time":59777.71799999986,"duration":222.22200000000157,"noteNumber":81,"velocity":55,"programNumber":45},{"time":60222.161999999866,"duration":166.66649999999936,"noteNumber":73,"velocity":55,"programNumber":45},{"time":60444.38399999987,"duration":444.44400000000314,"noteNumber":74,"velocity":55,"programNumber":45},{"time":61111.04999999987,"duration":111.11099999999715,"noteNumber":81,"velocity":55,"programNumber":45},{"time":61333.271999999866,"duration":222.22200000000157,"noteNumber":86,"velocity":55,"programNumber":45},{"time":61555.49399999987,"duration":222.22200000000157,"noteNumber":85,"velocity":55,"programNumber":45},{"time":61777.71599999987,"duration":222.22200000000157,"noteNumber":83,"velocity":55,"programNumber":45},{"time":61999.93799999987,"duration":222.22200000000157,"noteNumber":81,"velocity":55,"programNumber":45},{"time":62222.15999999987,"duration":55.55550000000221,"noteNumber":83,"velocity":55,"programNumber":45},{"time":62277.715499999875,"duration":55.55550000000221,"noteNumber":85,"velocity":55,"programNumber":45},{"time":62333.27099999988,"duration":55.55550000000221,"noteNumber":83,"velocity":55,"programNumber":45},{"time":62388.82649999988,"duration":55.55550000000221,"noteNumber":85,"velocity":55,"programNumber":45},{"time":62444.38199999988,"duration":222.22200000000157,"noteNumber":81,"velocity":55,"programNumber":45},{"time":62888.825999999885,"duration":111.11099999999715,"noteNumber":81,"velocity":55,"programNumber":45},{"time":63111.04799999988,"duration":111.11099999999715,"noteNumber":81,"velocity":55,"programNumber":45},{"time":63333.26999999987,"duration":111.11099999999715,"noteNumber":81,"velocity":55,"programNumber":45},{"time":63555.49199999987,"duration":111.11099999999715,"noteNumber":81,"velocity":55,"programNumber":45},{"time":63777.71399999986,"duration":111.11099999999715,"noteNumber":81,"velocity":55,"programNumber":45},{"time":63999.935999999856,"duration":55.55550000000221,"noteNumber":83,"velocity":55,"programNumber":45},{"time":64055.49149999986,"duration":55.55550000000221,"noteNumber":85,"velocity":55,"programNumber":45},{"time":64111.04699999986,"duration":55.55550000000221,"noteNumber":83,"velocity":55,"programNumber":45},{"time":64166.60249999986,"duration":55.55550000000221,"noteNumber":85,"velocity":55,"programNumber":45},{"time":64222.157999999865,"duration":222.22200000000157,"noteNumber":81,"velocity":55,"programNumber":45},{"time":64666.60199999987,"duration":166.66649999999936,"noteNumber":81,"velocity":55,"programNumber":45},{"time":64888.82399999987,"duration":222.22200000000157,"noteNumber":86,"velocity":55,"programNumber":45},{"time":65111.04599999987,"duration":222.22200000000157,"noteNumber":85,"velocity":55,"programNumber":45},{"time":65333.26799999987,"duration":222.22200000000157,"noteNumber":83,"velocity":55,"programNumber":45},{"time":65555.48999999987,"duration":222.2219999999943,"noteNumber":81,"velocity":55,"programNumber":45},{"time":65777.71199999987,"duration":55.55550000000221,"noteNumber":83,"velocity":55,"programNumber":45},{"time":65833.26749999987,"duration":55.55550000000221,"noteNumber":85,"velocity":55,"programNumber":45},{"time":65888.82299999987,"duration":55.55550000000221,"noteNumber":83,"velocity":55,"programNumber":45},{"time":65944.37849999988,"duration":55.55550000000221,"noteNumber":85,"velocity":55,"programNumber":45},{"time":65999.93399999988,"duration":222.2219999999943,"noteNumber":81,"velocity":55,"programNumber":45},{"time":66444.37799999987,"duration":111.11100000000442,"noteNumber":81,"velocity":55,"programNumber":45},{"time":66666.59999999987,"duration":111.11100000000442,"noteNumber":81,"velocity":55,"programNumber":45},{"time":66888.82199999988,"duration":111.11100000000442,"noteNumber":81,"velocity":55,"programNumber":45},{"time":67111.04399999989,"duration":111.11100000000442,"noteNumber":81,"velocity":55,"programNumber":45},{"time":67333.2659999999,"duration":111.11100000000442,"noteNumber":81,"velocity":53,"programNumber":45},{"time":67555.48799999991,"duration":55.55550000000221,"noteNumber":83,"velocity":49,"programNumber":45},{"time":67611.04349999991,"duration":55.55550000000221,"noteNumber":85,"velocity":49,"programNumber":45},{"time":67666.59899999991,"duration":55.55550000000221,"noteNumber":83,"velocity":47,"programNumber":45},{"time":67722.15449999992,"duration":55.55550000000221,"noteNumber":85,"velocity":47,"programNumber":45},{"time":67777.70999999992,"duration":222.2219999999943,"noteNumber":81,"velocity":46,"programNumber":45},{"time":68444.37599999992,"duration":629.6290000000008,"noteNumber":83,"velocity":91,"programNumber":45},{"time":68444.37599999992,"duration":629.6290000000008,"noteNumber":71,"velocity":91,"programNumber":45},{"time":69111.04199999991,"duration":74.07399999999325,"noteNumber":81,"velocity":89,"programNumber":45},{"time":69185.1159999999,"duration":74.07399999999325,"noteNumber":79,"velocity":92,"programNumber":45},{"time":69259.1899999999,"duration":74.07399999999325,"noteNumber":78,"velocity":94,"programNumber":45},{"time":69333.2639999999,"duration":444.44400000000314,"noteNumber":79,"velocity":97,"programNumber":45},{"time":70222.1519999999,"duration":629.6290000000008,"noteNumber":69,"velocity":85,"programNumber":45},{"time":70222.1519999999,"duration":629.6290000000008,"noteNumber":81,"velocity":85,"programNumber":45},{"time":70888.8179999999,"duration":74.07399999999325,"noteNumber":79,"velocity":86,"programNumber":45},{"time":70962.89199999989,"duration":74.07399999999325,"noteNumber":78,"velocity":86,"programNumber":45},{"time":71036.96599999988,"duration":74.07399999999325,"noteNumber":76,"velocity":89,"programNumber":45},{"time":71111.03999999988,"duration":444.44400000000314,"noteNumber":78,"velocity":92,"programNumber":45},{"time":71999.92799999988,"duration":222.2219999999943,"noteNumber":83,"velocity":85,"programNumber":45},{"time":72222.14999999988,"duration":111.11100000000442,"noteNumber":85,"velocity":85,"programNumber":45},{"time":72333.26099999988,"duration":111.11100000000442,"noteNumber":86,"velocity":89,"programNumber":45},{"time":72444.37199999989,"duration":166.66650000000664,"noteNumber":85,"velocity":94,"programNumber":45},{"time":72666.5939999999,"duration":111.11100000000442,"noteNumber":83,"velocity":95,"programNumber":45},{"time":72888.8159999999,"duration":222.2219999999943,"noteNumber":83,"velocity":97,"programNumber":45},{"time":73111.0379999999,"duration":166.66650000000664,"noteNumber":81,"velocity":101,"programNumber":45},{"time":73333.25999999991,"duration":111.11100000000442,"noteNumber":78,"velocity":104,"programNumber":45},{"time":73555.48199999992,"duration":111.11100000000442,"noteNumber":81,"velocity":104,"programNumber":45},{"time":73777.70399999993,"duration":222.2219999999943,"noteNumber":81,"velocity":104,"programNumber":45},{"time":73999.92599999992,"duration":166.66650000000664,"noteNumber":79,"velocity":103,"programNumber":45},{"time":74222.14799999993,"duration":111.11100000000442,"noteNumber":78,"velocity":98,"programNumber":45},{"time":74444.36999999994,"duration":111.11100000000442,"noteNumber":76,"velocity":89,"programNumber":45},{"time":74666.59199999995,"duration":444.44400000000314,"noteNumber":74,"velocity":85,"programNumber":45},{"time":75333.25799999994,"duration":111.11100000000442,"noteNumber":81,"velocity":53,"programNumber":45},{"time":75555.47999999995,"duration":222.2219999999943,"noteNumber":86,"velocity":53,"programNumber":45},{"time":75777.70199999995,"duration":222.2219999999943,"noteNumber":85,"velocity":53,"programNumber":45},{"time":75999.92399999994,"duration":222.2219999999943,"noteNumber":83,"velocity":53,"programNumber":45},{"time":76222.14599999994,"duration":222.2219999999943,"noteNumber":81,"velocity":53,"programNumber":45},{"time":76444.36799999993,"duration":55.55550000000221,"noteNumber":83,"velocity":55,"programNumber":45},{"time":76499.92349999993,"duration":55.55550000000221,"noteNumber":85,"velocity":55,"programNumber":45},{"time":76555.47899999993,"duration":55.55550000000221,"noteNumber":83,"velocity":55,"programNumber":45},{"time":76611.03449999994,"duration":55.55550000000221,"noteNumber":85,"velocity":55,"programNumber":45},{"time":76666.58999999994,"duration":222.2219999999943,"noteNumber":81,"velocity":55,"programNumber":45},{"time":77111.03399999993,"duration":111.11100000000442,"noteNumber":81,"velocity":55,"programNumber":45},{"time":77333.25599999994,"duration":111.11100000000442,"noteNumber":81,"velocity":55,"programNumber":45},{"time":77555.47799999994,"duration":111.11100000000442,"noteNumber":81,"velocity":55,"programNumber":45},{"time":77777.69999999995,"duration":111.11100000000442,"noteNumber":81,"velocity":55,"programNumber":45},{"time":77999.92199999996,"duration":111.11100000000442,"noteNumber":81,"velocity":55,"programNumber":45},{"time":78222.14399999997,"duration":55.55550000000221,"noteNumber":83,"velocity":55,"programNumber":45},{"time":78277.69949999997,"duration":55.55550000000221,"noteNumber":85,"velocity":55,"programNumber":45},{"time":78333.25499999998,"duration":55.55550000000221,"noteNumber":83,"velocity":55,"programNumber":45},{"time":78388.81049999998,"duration":55.55550000000221,"noteNumber":85,"velocity":55,"programNumber":45},{"time":78444.36599999998,"duration":222.2219999999943,"noteNumber":81,"velocity":55,"programNumber":45},{"time":78888.80999999997,"duration":166.66650000000664,"noteNumber":81,"velocity":55,"programNumber":45},{"time":79111.03199999998,"duration":222.2219999999943,"noteNumber":86,"velocity":55,"programNumber":45},{"time":79333.25399999997,"duration":222.2219999999943,"noteNumber":85,"velocity":55,"programNumber":45},{"time":79555.47599999997,"duration":222.2219999999943,"noteNumber":83,"velocity":55,"programNumber":45},{"time":79777.69799999996,"duration":222.2219999999943,"noteNumber":81,"velocity":55,"programNumber":45},{"time":79999.91999999995,"duration":55.55550000000221,"noteNumber":83,"velocity":55,"programNumber":45},{"time":80055.47549999996,"duration":55.55550000000221,"noteNumber":85,"velocity":55,"programNumber":45},{"time":80111.03099999996,"duration":55.55550000000221,"noteNumber":83,"velocity":55,"programNumber":45},{"time":80166.58649999996,"duration":55.55550000000221,"noteNumber":85,"velocity":55,"programNumber":45},{"time":80222.14199999996,"duration":222.2219999999943,"noteNumber":81,"velocity":55,"programNumber":45},{"time":80666.58599999995,"duration":111.11100000000442,"noteNumber":81,"velocity":55,"programNumber":45},{"time":80888.80799999996,"duration":111.11100000000442,"noteNumber":81,"velocity":55,"programNumber":45},{"time":81111.02999999997,"duration":111.11100000000442,"noteNumber":81,"velocity":55,"programNumber":45},{"time":81333.25199999998,"duration":111.11100000000442,"noteNumber":81,"velocity":55,"programNumber":45},{"time":81555.47399999999,"duration":111.11100000000442,"noteNumber":81,"velocity":55,"programNumber":45},{"time":81777.696,"duration":55.55550000000221,"noteNumber":83,"velocity":59,"programNumber":45},{"time":81833.2515,"duration":55.55550000000221,"noteNumber":85,"velocity":59,"programNumber":45},{"time":81888.807,"duration":55.55550000000221,"noteNumber":83,"velocity":59,"programNumber":45},{"time":81944.3625,"duration":55.55550000000221,"noteNumber":85,"velocity":59,"programNumber":45},{"time":81999.918,"duration":222.2219999999943,"noteNumber":81,"velocity":59,"programNumber":45},{"time":82666.584,"duration":629.6290000000008,"noteNumber":83,"velocity":85,"programNumber":45},{"time":82666.584,"duration":629.6290000000008,"noteNumber":71,"velocity":85,"programNumber":45},{"time":83333.25,"duration":74.07399999999325,"noteNumber":81,"velocity":85,"programNumber":45},{"time":83407.324,"duration":74.07399999999325,"noteNumber":79,"velocity":85,"programNumber":45},{"time":83481.39799999999,"duration":74.07399999999325,"noteNumber":78,"velocity":85,"programNumber":45},{"time":83555.47199999998,"duration":444.44400000000314,"noteNumber":79,"velocity":85,"programNumber":45},{"time":84444.35999999999,"duration":629.6290000000008,"noteNumber":69,"velocity":85,"programNumber":45},{"time":84444.35999999999,"duration":629.6290000000008,"noteNumber":81,"velocity":85,"programNumber":45},{"time":85111.02599999998,"duration":74.07399999999325,"noteNumber":79,"velocity":85,"programNumber":45},{"time":85185.09999999998,"duration":74.07399999999325,"noteNumber":78,"velocity":85,"programNumber":45},{"time":85259.17399999997,"duration":74.07399999999325,"noteNumber":76,"velocity":85,"programNumber":45},{"time":85333.24799999996,"duration":444.44400000000314,"noteNumber":78,"velocity":85,"programNumber":45},{"time":86222.13599999997,"duration":222.2219999999943,"noteNumber":83,"velocity":80,"programNumber":45},{"time":86444.35799999996,"duration":111.11100000000442,"noteNumber":85,"velocity":82,"programNumber":45},{"time":86555.46899999997,"duration":111.11100000000442,"noteNumber":86,"velocity":83,"programNumber":45},{"time":86666.57999999997,"duration":166.66650000000664,"noteNumber":85,"velocity":83,"programNumber":45},{"time":86888.80199999998,"duration":111.11100000000442,"noteNumber":83,"velocity":85,"programNumber":45},{"time":87111.02399999999,"duration":222.2219999999943,"noteNumber":83,"velocity":86,"programNumber":45},{"time":87333.24599999998,"duration":166.66650000000664,"noteNumber":81,"velocity":88,"programNumber":45},{"time":87555.468,"duration":111.11100000000442,"noteNumber":78,"velocity":88,"programNumber":45},{"time":87777.69,"duration":111.11100000000442,"noteNumber":81,"velocity":88,"programNumber":45},{"time":87999.91200000001,"duration":222.2219999999943,"noteNumber":81,"velocity":88,"programNumber":45},{"time":88222.134,"duration":166.66650000000664,"noteNumber":79,"velocity":88,"programNumber":45},{"time":88444.35600000001,"duration":111.11100000000442,"noteNumber":78,"velocity":88,"programNumber":45},{"time":88666.57800000002,"duration":111.11100000000442,"noteNumber":76,"velocity":88,"programNumber":45},{"time":88888.80000000003,"duration":166.66650000000664,"noteNumber":74,"velocity":88,"programNumber":45},{"time":89111.02200000004,"duration":166.66650000000664,"noteNumber":69,"velocity":88,"programNumber":45},{"time":89333.24400000005,"duration":166.66650000000664,"noteNumber":71,"velocity":88,"programNumber":45},{"time":89555.46600000006,"duration":166.66650000000664,"noteNumber":73,"velocity":85,"programNumber":45},{"time":89777.68800000007,"duration":111.11100000000442,"noteNumber":74,"velocity":82,"programNumber":45},{"time":89999.91000000008,"duration":111.11100000000442,"noteNumber":74,"velocity":85,"programNumber":45},{"time":90222.13200000009,"duration":55.55550000000221,"noteNumber":76,"velocity":85,"programNumber":45},{"time":90277.68750000009,"duration":55.55550000000221,"noteNumber":78,"velocity":85,"programNumber":45},{"time":90333.24300000009,"duration":55.55550000000221,"noteNumber":76,"velocity":85,"programNumber":45},{"time":90388.79850000009,"duration":55.55550000000221,"noteNumber":78,"velocity":85,"programNumber":45},{"time":90444.3540000001,"duration":111.11100000000442,"noteNumber":74,"velocity":85,"programNumber":45},{"time":90555.4650000001,"duration":111.11100000000442,"noteNumber":76,"velocity":85,"programNumber":45},{"time":90666.5760000001,"duration":222.2219999999943,"noteNumber":78,"velocity":85,"programNumber":45},{"time":90888.7980000001,"duration":166.66650000000664,"noteNumber":73,"velocity":85,"programNumber":45},{"time":91111.0200000001,"duration":166.66650000000664,"noteNumber":74,"velocity":85,"programNumber":45},{"time":91333.24200000011,"duration":166.66650000000664,"noteNumber":76,"velocity":85,"programNumber":45},{"time":91555.46400000012,"duration":166.66650000000664,"noteNumber":78,"velocity":85,"programNumber":45},{"time":91777.68600000013,"duration":166.66650000000664,"noteNumber":78,"velocity":85,"programNumber":45},{"time":91999.90800000014,"duration":55.55550000000221,"noteNumber":79,"velocity":85,"programNumber":45},{"time":92055.46350000014,"duration":55.55550000000221,"noteNumber":81,"velocity":86,"programNumber":45},{"time":92111.01900000015,"duration":55.55550000000221,"noteNumber":79,"velocity":88,"programNumber":45},{"time":92166.57450000015,"duration":55.55550000000221,"noteNumber":81,"velocity":88,"programNumber":45},{"time":92222.13000000015,"duration":111.11100000000442,"noteNumber":78,"velocity":88,"programNumber":45},{"time":92333.24100000015,"duration":111.11100000000442,"noteNumber":79,"velocity":88,"programNumber":45},{"time":92444.35200000016,"duration":166.66650000000664,"noteNumber":81,"velocity":88,"programNumber":45},{"time":92666.57400000017,"duration":166.66650000000664,"noteNumber":81,"velocity":91,"programNumber":45},{"time":92888.79600000018,"duration":55.55550000000221,"noteNumber":82,"velocity":92,"programNumber":45},{"time":92944.35150000018,"duration":55.55550000000221,"noteNumber":83,"velocity":92,"programNumber":45},{"time":92999.90700000018,"duration":55.55550000000221,"noteNumber":82,"velocity":94,"programNumber":45},{"time":93055.46250000018,"duration":55.55550000000221,"noteNumber":83,"velocity":94,"programNumber":45},{"time":93111.01800000019,"duration":111.11100000000442,"noteNumber":80,"velocity":95,"programNumber":45},{"time":93222.12900000019,"duration":111.11100000000442,"noteNumber":82,"velocity":97,"programNumber":45},{"time":93333.2400000002,"duration":444.44400000000314,"noteNumber":83,"velocity":100,"programNumber":45},{"time":94222.1280000002,"duration":666.6659999999974,"noteNumber":71,"velocity":47,"programNumber":45},{"time":94888.7940000002,"duration":166.66650000000664,"noteNumber":76,"velocity":47,"programNumber":45},{"time":95111.0160000002,"duration":222.2219999999943,"noteNumber":74,"velocity":47,"programNumber":45},{"time":95333.2380000002,"duration":222.2219999999943,"noteNumber":73,"velocity":47,"programNumber":45},{"time":95555.4600000002,"duration":222.2219999999943,"noteNumber":71,"velocity":49,"programNumber":45},{"time":95777.68200000019,"duration":222.2219999999943,"noteNumber":69,"velocity":50,"programNumber":45},{"time":95999.90400000018,"duration":222.2219999999943,"noteNumber":74,"velocity":50,"programNumber":45},{"time":96444.34800000017,"duration":222.2219999999943,"noteNumber":78,"velocity":50,"programNumber":45},{"time":96888.79200000016,"duration":222.2219999999943,"noteNumber":74,"velocity":41,"programNumber":45},{"time":97777.68000000015,"duration":444.44400000000314,"noteNumber":71,"velocity":85,"programNumber":45},{"time":97777.68000000015,"duration":444.44400000000314,"noteNumber":79,"velocity":85,"programNumber":45},{"time":97777.68000000015,"duration":444.44400000000314,"noteNumber":62,"velocity":85,"programNumber":45},{"time":98444.34600000015,"duration":111.11100000000442,"noteNumber":74,"velocity":85,"programNumber":45},{"time":98666.56800000016,"duration":444.44400000000314,"noteNumber":79,"velocity":85,"programNumber":45},{"time":99333.23400000016,"duration":111.11100000000442,"noteNumber":74,"velocity":85,"programNumber":45},{"time":99555.45600000017,"duration":111.11100000000442,"noteNumber":79,"velocity":85,"programNumber":45},{"time":99777.67800000017,"duration":111.11100000000442,"noteNumber":74,"velocity":85,"programNumber":45},{"time":99999.90000000018,"duration":111.11100000000442,"noteNumber":79,"velocity":85,"programNumber":45},{"time":100222.12200000019,"duration":111.11100000000442,"noteNumber":83,"velocity":85,"programNumber":45},{"time":100444.3440000002,"duration":444.44400000000314,"noteNumber":86,"velocity":85,"programNumber":45},{"time":101333.23200000021,"duration":444.44400000000314,"noteNumber":84,"velocity":85,"programNumber":45},{"time":101999.8980000002,"duration":111.11100000000442,"noteNumber":81,"velocity":76,"programNumber":45},{"time":102222.12000000021,"duration":444.44400000000314,"noteNumber":84,"velocity":85,"programNumber":45},{"time":102888.78600000021,"duration":111.11100000000442,"noteNumber":81,"velocity":76,"programNumber":45},{"time":103111.00800000022,"duration":111.11100000000442,"noteNumber":84,"velocity":85,"programNumber":45},{"time":103333.23000000023,"duration":111.11100000000442,"noteNumber":81,"velocity":74,"programNumber":45},{"time":103555.45200000024,"duration":111.11100000000442,"noteNumber":78,"velocity":85,"programNumber":45},{"time":103777.67400000025,"duration":111.11100000000442,"noteNumber":81,"velocity":71,"programNumber":45},{"time":103999.89600000026,"duration":444.44400000000314,"noteNumber":74,"velocity":85,"programNumber":45},{"time":104888.78400000026,"duration":222.2219999999943,"noteNumber":71,"velocity":85,"programNumber":45},{"time":104888.78400000026,"duration":222.2219999999943,"noteNumber":79,"velocity":85,"programNumber":45},{"time":104888.78400000026,"duration":222.2219999999943,"noteNumber":62,"velocity":85,"programNumber":45},{"time":105333.22800000025,"duration":666.6659999999974,"noteNumber":79,"velocity":85,"programNumber":45},{"time":105999.89400000025,"duration":222.2219999999943,"noteNumber":83,"velocity":85,"programNumber":45},{"time":106222.11600000024,"duration":111.11100000000442,"noteNumber":81,"velocity":85,"programNumber":45},{"time":106444.33800000025,"duration":111.11100000000442,"noteNumber":79,"velocity":85,"programNumber":45},{"time":106666.56000000026,"duration":55.55550000000221,"noteNumber":79,"velocity":85,"programNumber":45},{"time":106722.11550000026,"duration":55.55550000000221,"noteNumber":81,"velocity":85,"programNumber":45},{"time":106777.67100000026,"duration":55.55550000000221,"noteNumber":79,"velocity":85,"programNumber":45},{"time":106833.22650000027,"duration":55.55550000000221,"noteNumber":81,"velocity":85,"programNumber":45},{"time":106888.78200000027,"duration":185.18499999999767,"noteNumber":78,"velocity":85,"programNumber":45},{"time":107111.00400000026,"duration":666.6659999999974,"noteNumber":78,"velocity":85,"programNumber":45},{"time":107777.67000000026,"duration":222.2219999999943,"noteNumber":81,"velocity":85,"programNumber":45},{"time":107999.89200000025,"duration":111.11100000000442,"noteNumber":84,"velocity":85,"programNumber":45},{"time":108222.11400000026,"duration":111.11100000000442,"noteNumber":78,"velocity":85,"programNumber":45},{"time":108444.33600000027,"duration":222.2219999999943,"noteNumber":81,"velocity":85,"programNumber":45},{"time":108666.55800000027,"duration":111.11100000000442,"noteNumber":79,"velocity":85,"programNumber":45},{"time":108888.78000000028,"duration":666.6659999999974,"noteNumber":79,"velocity":85,"programNumber":45},{"time":109555.44600000027,"duration":222.2219999999943,"noteNumber":83,"velocity":85,"programNumber":45},{"time":109777.66800000027,"duration":111.11100000000442,"noteNumber":81,"velocity":85,"programNumber":45},{"time":109999.89000000028,"duration":111.11100000000442,"noteNumber":79,"velocity":85,"programNumber":45},{"time":110222.11200000028,"duration":55.55550000000221,"noteNumber":79,"velocity":85,"programNumber":45},{"time":110277.66750000029,"duration":55.55550000000221,"noteNumber":81,"velocity":85,"programNumber":45},{"time":110333.22300000029,"duration":55.55550000000221,"noteNumber":79,"velocity":85,"programNumber":45},{"time":110388.77850000029,"duration":55.55550000000221,"noteNumber":81,"velocity":85,"programNumber":45},{"time":110444.3340000003,"duration":185.18499999999767,"noteNumber":78,"velocity":85,"programNumber":45},{"time":110666.55600000029,"duration":666.6659999999974,"noteNumber":78,"velocity":85,"programNumber":45},{"time":111333.22200000029,"duration":222.2219999999943,"noteNumber":81,"velocity":85,"programNumber":45},{"time":111555.44400000028,"duration":111.11100000000442,"noteNumber":84,"velocity":85,"programNumber":45},{"time":111777.66600000029,"duration":111.11100000000442,"noteNumber":78,"velocity":85,"programNumber":45},{"time":111999.8880000003,"duration":111.11100000000442,"noteNumber":79,"velocity":85,"programNumber":45},{"time":112222.1100000003,"duration":111.11100000000442,"noteNumber":79,"velocity":85,"programNumber":45},{"time":112444.33200000032,"duration":111.11100000000442,"noteNumber":79,"velocity":85,"programNumber":45},{"time":112555.44300000032,"duration":111.11100000000442,"noteNumber":78,"velocity":85,"programNumber":45},{"time":112666.55400000032,"duration":111.11100000000442,"noteNumber":76,"velocity":85,"programNumber":45},{"time":112777.66500000033,"duration":111.11100000000442,"noteNumber":78,"velocity":85,"programNumber":45},{"time":112888.77600000033,"duration":111.11100000000442,"noteNumber":79,"velocity":85,"programNumber":45},{"time":113110.99800000034,"duration":111.11100000000442,"noteNumber":79,"velocity":85,"programNumber":45},{"time":113333.22000000035,"duration":111.11100000000442,"noteNumber":83,"velocity":85,"programNumber":45},{"time":113444.33100000035,"duration":111.11100000000442,"noteNumber":81,"velocity":85,"programNumber":45},{"time":113555.44200000036,"duration":111.11100000000442,"noteNumber":79,"velocity":85,"programNumber":45},{"time":113666.55300000036,"duration":111.11100000000442,"noteNumber":81,"velocity":85,"programNumber":45},{"time":113777.66400000037,"duration":111.11100000000442,"noteNumber":83,"velocity":85,"programNumber":45},{"time":113999.88600000038,"duration":111.11100000000442,"noteNumber":83,"velocity":85,"programNumber":45},{"time":114222.10800000039,"duration":111.11100000000442,"noteNumber":86,"velocity":85,"programNumber":45},{"time":114333.21900000039,"duration":111.11100000000442,"noteNumber":84,"velocity":85,"programNumber":45},{"time":114444.3300000004,"duration":111.11100000000442,"noteNumber":83,"velocity":85,"programNumber":45},{"time":114555.4410000004,"duration":111.11100000000442,"noteNumber":84,"velocity":85,"programNumber":45},{"time":114666.5520000004,"duration":444.44400000000314,"noteNumber":86,"velocity":85,"programNumber":45},{"time":115555.44000000041,"duration":888.8880000000063,"noteNumber":74,"velocity":52,"programNumber":45},{"time":116444.32800000042,"duration":888.8880000000063,"noteNumber":76,"velocity":40,"programNumber":45},{"time":117333.21600000042,"duration":111.11100000000442,"noteNumber":74,"velocity":44,"programNumber":45},{"time":117444.32700000043,"duration":296.2960000000021,"noteNumber":72,"velocity":46,"programNumber":45},{"time":117777.66000000043,"duration":444.44400000000314,"noteNumber":72,"velocity":46,"programNumber":45},{"time":118222.10400000043,"duration":111.11100000000442,"noteNumber":72,"velocity":47,"programNumber":45},{"time":118333.21500000043,"duration":296.2960000000021,"noteNumber":71,"velocity":47,"programNumber":45},{"time":118666.54800000043,"duration":444.44400000000314,"noteNumber":71,"velocity":47,"programNumber":45},{"time":119110.99200000043,"duration":111.11100000000442,"noteNumber":71,"velocity":47,"programNumber":45},{"time":119222.10300000044,"duration":296.2960000000021,"noteNumber":69,"velocity":47,"programNumber":45},{"time":119555.43600000044,"duration":444.44400000000314,"noteNumber":69,"velocity":47,"programNumber":45},{"time":119999.88000000044,"duration":222.2219999999943,"noteNumber":67,"velocity":47,"programNumber":45},{"time":120222.10200000044,"duration":111.11100000000442,"noteNumber":66,"velocity":47,"programNumber":45},{"time":120444.32400000044,"duration":111.11100000000442,"noteNumber":64,"velocity":47,"programNumber":45},{"time":120666.54600000045,"duration":111.11100000000442,"noteNumber":66,"velocity":47,"programNumber":45},{"time":120888.76800000046,"duration":222.2219999999943,"noteNumber":67,"velocity":47,"programNumber":45},{"time":121333.21200000045,"duration":222.2219999999943,"noteNumber":69,"velocity":47,"programNumber":45},{"time":121777.65600000044,"duration":222.2219999999943,"noteNumber":71,"velocity":47,"programNumber":45},{"time":122666.54400000043,"duration":888.8880000000063,"noteNumber":74,"velocity":54,"programNumber":45},{"time":123555.43200000044,"duration":888.8880000000063,"noteNumber":76,"velocity":59,"programNumber":45},{"time":124444.32000000044,"duration":222.2219999999943,"noteNumber":74,"velocity":47,"programNumber":45},{"time":124666.54200000044,"duration":111.11100000000442,"noteNumber":72,"velocity":47,"programNumber":45},{"time":124888.76400000045,"duration":111.11100000000442,"noteNumber":72,"velocity":47,"programNumber":45},{"time":125110.98600000046,"duration":111.11100000000442,"noteNumber":72,"velocity":47,"programNumber":45},{"time":125333.20800000046,"duration":222.2219999999943,"noteNumber":72,"velocity":47,"programNumber":45},{"time":125555.43000000046,"duration":111.11100000000442,"noteNumber":71,"velocity":47,"programNumber":45},{"time":125777.65200000047,"duration":111.11100000000442,"noteNumber":71,"velocity":47,"programNumber":45},{"time":125999.87400000048,"duration":111.11100000000442,"noteNumber":71,"velocity":47,"programNumber":45},{"time":126222.09600000049,"duration":222.2219999999943,"noteNumber":71,"velocity":47,"programNumber":45},{"time":126444.31800000048,"duration":111.11100000000442,"noteNumber":69,"velocity":47,"programNumber":45},{"time":126666.54000000049,"duration":166.66650000000664,"noteNumber":69,"velocity":47,"programNumber":45},{"time":126888.7620000005,"duration":166.66650000000664,"noteNumber":69,"velocity":47,"programNumber":45},{"time":127110.9840000005,"duration":222.2219999999943,"noteNumber":67,"velocity":47,"programNumber":45},{"time":127333.2060000005,"duration":222.2219999999943,"noteNumber":66,"velocity":47,"programNumber":45},{"time":127555.4280000005,"duration":222.2219999999943,"noteNumber":64,"velocity":47,"programNumber":45},{"time":127777.65000000049,"duration":222.2219999999943,"noteNumber":66,"velocity":47,"programNumber":45},{"time":127999.87200000048,"duration":1111.1100000000006,"noteNumber":67,"velocity":95,"programNumber":45},{"time":127999.87200000048,"duration":1111.1100000000006,"noteNumber":55,"velocity":95,"programNumber":45},{"time":129110.98200000048,"duration":55.55550000000221,"noteNumber":67,"velocity":61,"programNumber":45},{"time":129166.53750000049,"duration":55.55550000000221,"noteNumber":69,"velocity":61,"programNumber":45},{"time":129222.09300000049,"duration":55.55550000000221,"noteNumber":66,"velocity":61,"programNumber":45},{"time":129277.64850000049,"duration":55.55550000000221,"noteNumber":67,"velocity":61,"programNumber":45},{"time":129333.20400000049,"duration":222.2219999999943,"noteNumber":69,"velocity":61,"programNumber":45},{"time":129555.42600000049,"duration":222.2219999999943,"noteNumber":66,"velocity":61,"programNumber":45},{"time":129777.64800000048,"duration":1111.1100000000006,"noteNumber":71,"velocity":85,"programNumber":45},{"time":130888.75800000048,"duration":55.55550000000221,"noteNumber":71,"velocity":61,"programNumber":45},{"time":130944.31350000048,"duration":55.55550000000221,"noteNumber":72,"velocity":61,"programNumber":45},{"time":130999.86900000049,"duration":55.55550000000221,"noteNumber":69,"velocity":61,"programNumber":45},{"time":131055.42450000049,"duration":55.55549999998766,"noteNumber":71,"velocity":61,"programNumber":45},{"time":131110.98000000048,"duration":222.22200000000885,"noteNumber":72,"velocity":61,"programNumber":45},{"time":131333.20200000048,"duration":222.22200000000885,"noteNumber":69,"velocity":61,"programNumber":45},{"time":131555.4240000005,"duration":74.07399999999325,"noteNumber":74,"velocity":46,"programNumber":45},{"time":131666.5350000005,"duration":74.07399999999325,"noteNumber":74,"velocity":46,"programNumber":45},{"time":131777.6460000005,"duration":74.07399999999325,"noteNumber":74,"velocity":47,"programNumber":45},{"time":131888.7570000005,"duration":74.07399999999325,"noteNumber":74,"velocity":47,"programNumber":45},{"time":131999.8680000005,"duration":74.07399999999325,"noteNumber":74,"velocity":49,"programNumber":45},{"time":132110.97900000052,"duration":74.07399999999325,"noteNumber":74,"velocity":50,"programNumber":45},{"time":132222.09000000052,"duration":74.07399999999325,"noteNumber":74,"velocity":50,"programNumber":45},{"time":132333.20100000052,"duration":74.07399999999325,"noteNumber":74,"velocity":52,"programNumber":45},{"time":132444.31200000053,"duration":74.07399999999325,"noteNumber":76,"velocity":53,"programNumber":45},{"time":132555.42300000053,"duration":74.07399999999325,"noteNumber":76,"velocity":53,"programNumber":45},{"time":132666.53400000054,"duration":74.07399999999325,"noteNumber":76,"velocity":55,"programNumber":45},{"time":132777.64500000054,"duration":74.07399999999325,"noteNumber":76,"velocity":56,"programNumber":45},{"time":132888.75600000055,"duration":74.07399999999325,"noteNumber":78,"velocity":56,"programNumber":45},{"time":132999.86700000055,"duration":74.07399999999325,"noteNumber":78,"velocity":58,"programNumber":45},{"time":133110.97800000056,"duration":74.07399999999325,"noteNumber":78,"velocity":58,"programNumber":45},{"time":133222.08900000056,"duration":74.07399999999325,"noteNumber":78,"velocity":59,"programNumber":45},{"time":133333.20000000056,"duration":74.07399999999325,"noteNumber":79,"velocity":61,"programNumber":45},{"time":133444.31100000057,"duration":74.07399999999325,"noteNumber":79,"velocity":61,"programNumber":45},{"time":133555.42200000057,"duration":74.07399999999325,"noteNumber":79,"velocity":62,"programNumber":45},{"time":133666.53300000058,"duration":74.07399999999325,"noteNumber":79,"velocity":64,"programNumber":45},{"time":133777.64400000058,"duration":74.07399999999325,"noteNumber":81,"velocity":64,"programNumber":45},{"time":133888.7550000006,"duration":74.07399999999325,"noteNumber":81,"velocity":65,"programNumber":45},{"time":133999.8660000006,"duration":74.07399999999325,"noteNumber":81,"velocity":67,"programNumber":45},{"time":134110.9770000006,"duration":74.07399999999325,"noteNumber":81,"velocity":67,"programNumber":45},{"time":134222.0880000006,"duration":74.07399999999325,"noteNumber":83,"velocity":68,"programNumber":45},{"time":134333.1990000006,"duration":74.07399999999325,"noteNumber":83,"velocity":68,"programNumber":45},{"time":134444.3100000006,"duration":74.07399999999325,"noteNumber":83,"velocity":70,"programNumber":45},{"time":134555.4210000006,"duration":74.07399999999325,"noteNumber":83,"velocity":71,"programNumber":45},{"time":134666.53200000062,"duration":74.07399999999325,"noteNumber":85,"velocity":71,"programNumber":45},{"time":134777.64300000062,"duration":74.07399999999325,"noteNumber":85,"velocity":73,"programNumber":45},{"time":134888.75400000063,"duration":74.07399999999325,"noteNumber":85,"velocity":74,"programNumber":45},{"time":134999.86500000063,"duration":74.07399999999325,"noteNumber":85,"velocity":74,"programNumber":45},{"time":135110.97600000064,"duration":666.6659999999974,"noteNumber":86,"velocity":92,"programNumber":45},{"time":135777.64200000063,"duration":222.22200000000885,"noteNumber":81,"velocity":85,"programNumber":45},{"time":135999.86400000064,"duration":333.33300000001327,"noteNumber":85,"velocity":85,"programNumber":45},{"time":136333.19700000065,"duration":111.11100000000442,"noteNumber":81,"velocity":85,"programNumber":45},{"time":136444.30800000066,"duration":333.33300000001327,"noteNumber":85,"velocity":85,"programNumber":45},{"time":136777.64100000067,"duration":111.11100000000442,"noteNumber":81,"velocity":85,"programNumber":45},{"time":136888.75200000068,"duration":666.6659999999974,"noteNumber":86,"velocity":98,"programNumber":45},{"time":137555.41800000067,"duration":222.22200000000885,"noteNumber":81,"velocity":85,"programNumber":45},{"time":137777.64000000068,"duration":333.33300000001327,"noteNumber":85,"velocity":85,"programNumber":45},{"time":138110.9730000007,"duration":111.11100000000442,"noteNumber":81,"velocity":85,"programNumber":45},{"time":138222.0840000007,"duration":333.33300000001327,"noteNumber":85,"velocity":85,"programNumber":45},{"time":138555.4170000007,"duration":111.11100000000442,"noteNumber":81,"velocity":85,"programNumber":45},{"time":138666.52800000072,"duration":111.11100000000442,"noteNumber":86,"velocity":85,"programNumber":45},{"time":138888.75000000073,"duration":333.33300000001327,"noteNumber":86,"velocity":98,"programNumber":45},{"time":138888.75000000073,"duration":333.33300000001327,"noteNumber":78,"velocity":98,"programNumber":45},{"time":139333.19400000075,"duration":333.33300000001327,"noteNumber":86,"velocity":85,"programNumber":45},{"time":139333.19400000075,"duration":333.33300000001327,"noteNumber":78,"velocity":85,"programNumber":45},{"time":139777.63800000076,"duration":333.33300000001327,"noteNumber":86,"velocity":85,"programNumber":45},{"time":139777.63800000076,"duration":333.33300000001327,"noteNumber":78,"velocity":85,"programNumber":45},{"time":140222.08200000078,"duration":222.22200000000885,"noteNumber":78,"velocity":85,"programNumber":45},{"time":140444.3040000008,"duration":111.11100000000442,"noteNumber":76,"velocity":85,"programNumber":45},{"time":140222.08200000078,"duration":333.33300000001327,"noteNumber":86,"velocity":85,"programNumber":45},{"time":140666.5260000008,"duration":333.33300000001327,"noteNumber":86,"velocity":85,"programNumber":45},{"time":140666.5260000008,"duration":333.33300000001327,"noteNumber":76,"velocity":85,"programNumber":45},{"time":141110.97000000082,"duration":333.33300000001327,"noteNumber":86,"velocity":85,"programNumber":45},{"time":141110.97000000082,"duration":333.33300000001327,"noteNumber":76,"velocity":85,"programNumber":45},{"time":141555.41400000083,"duration":333.33300000001327,"noteNumber":86,"velocity":85,"programNumber":45},{"time":141555.41400000083,"duration":333.33300000001327,"noteNumber":76,"velocity":85,"programNumber":45},{"time":141999.85800000085,"duration":222.22200000000885,"noteNumber":86,"velocity":85,"programNumber":45},{"time":141999.85800000085,"duration":222.22200000000885,"noteNumber":76,"velocity":85,"programNumber":45},{"time":142222.08000000086,"duration":166.66649999999208,"noteNumber":85,"velocity":97,"programNumber":45},{"time":142222.08000000086,"duration":166.66649999999208,"noteNumber":76,"velocity":97,"programNumber":45},{"time":142444.30200000084,"duration":166.66649999999208,"noteNumber":81,"velocity":85,"programNumber":45},{"time":142666.52400000082,"duration":166.66649999999208,"noteNumber":86,"velocity":85,"programNumber":45},{"time":142888.7460000008,"duration":166.66649999999208,"noteNumber":81,"velocity":85,"programNumber":45},{"time":143110.96800000078,"duration":166.66649999999208,"noteNumber":85,"velocity":85,"programNumber":45},{"time":143333.19000000076,"duration":166.66649999999208,"noteNumber":81,"velocity":85,"programNumber":45},{"time":143555.41200000074,"duration":166.66649999999208,"noteNumber":86,"velocity":85,"programNumber":45},{"time":143777.63400000072,"duration":166.66649999999208,"noteNumber":81,"velocity":85,"programNumber":45},{"time":143999.8560000007,"duration":166.66649999999208,"noteNumber":85,"velocity":97,"programNumber":45},{"time":144222.07800000068,"duration":166.66649999999208,"noteNumber":69,"velocity":85,"programNumber":45},{"time":144444.30000000066,"duration":166.66649999999208,"noteNumber":69,"velocity":85,"programNumber":45},{"time":144666.52200000064,"duration":166.66649999999208,"noteNumber":69,"velocity":85,"programNumber":45},{"time":144888.74400000062,"duration":444.4439999999886,"noteNumber":69,"velocity":85,"programNumber":45},{"time":145777.6320000006,"duration":666.6659999999974,"noteNumber":81,"velocity":55,"programNumber":45},{"time":146444.2980000006,"duration":74.07399999999325,"noteNumber":79,"velocity":55,"programNumber":45},{"time":146518.37200000059,"duration":74.07399999999325,"noteNumber":78,"velocity":55,"programNumber":45},{"time":146592.44600000058,"duration":74.07399999999325,"noteNumber":76,"velocity":55,"programNumber":45},{"time":146666.52000000057,"duration":222.22200000000885,"noteNumber":74,"velocity":55,"programNumber":45},{"time":147110.9640000006,"duration":222.22200000000885,"noteNumber":83,"velocity":55,"programNumber":45},{"time":147555.4080000006,"duration":222.22200000000885,"noteNumber":79,"velocity":55,"programNumber":45},{"time":147999.85200000062,"duration":222.22200000000885,"noteNumber":76,"velocity":55,"programNumber":45},{"time":148444.29600000064,"duration":222.22200000000885,"noteNumber":81,"velocity":55,"programNumber":45},{"time":149333.18400000065,"duration":666.6659999999974,"noteNumber":78,"velocity":55,"programNumber":45},{"time":149999.85000000065,"duration":74.07399999999325,"noteNumber":76,"velocity":55,"programNumber":45},{"time":150073.92400000064,"duration":74.07399999999325,"noteNumber":74,"velocity":55,"programNumber":45},{"time":150147.99800000063,"duration":74.07399999999325,"noteNumber":73,"velocity":55,"programNumber":45},{"time":150222.07200000063,"duration":222.22200000000885,"noteNumber":71,"velocity":55,"programNumber":45},{"time":150666.51600000064,"duration":222.22200000000885,"noteNumber":79,"velocity":55,"programNumber":45},{"time":151110.96000000066,"duration":888.8880000000063,"noteNumber":78,"velocity":55,"programNumber":45},{"time":151999.84800000067,"duration":444.4439999999886,"noteNumber":76,"velocity":43,"programNumber":45},{"time":153110.95800000065,"duration":111.11100000000442,"noteNumber":81,"velocity":55,"programNumber":45},{"time":153333.18000000066,"duration":111.11100000000442,"noteNumber":81,"velocity":55,"programNumber":45},{"time":153555.40200000067,"duration":111.11100000000442,"noteNumber":81,"velocity":55,"programNumber":45},{"time":153777.62400000068,"duration":111.11100000000442,"noteNumber":81,"velocity":55,"programNumber":45},{"time":153999.8460000007,"duration":111.11100000000442,"noteNumber":81,"velocity":55,"programNumber":45},{"time":154222.0680000007,"duration":111.11100000000442,"noteNumber":81,"velocity":55,"programNumber":45},{"time":154444.2900000007,"duration":111.11100000000442,"noteNumber":81,"velocity":55,"programNumber":45},{"time":154666.51200000072,"duration":111.11100000000442,"noteNumber":81,"velocity":55,"programNumber":45},{"time":154888.73400000072,"duration":111.11100000000442,"noteNumber":81,"velocity":55,"programNumber":45},{"time":155110.95600000073,"duration":111.11100000000442,"noteNumber":81,"velocity":55,"programNumber":45},{"time":155333.17800000074,"duration":111.11100000000442,"noteNumber":81,"velocity":55,"programNumber":45},{"time":155555.40000000075,"duration":111.11100000000442,"noteNumber":81,"velocity":55,"programNumber":45},{"time":155777.62200000076,"duration":111.11100000000442,"noteNumber":81,"velocity":55,"programNumber":45},{"time":155999.84400000077,"duration":111.11100000000442,"noteNumber":83,"velocity":55,"programNumber":45},{"time":156222.06600000078,"duration":111.11100000000442,"noteNumber":85,"velocity":55,"programNumber":45},{"time":156444.2880000008,"duration":222.22200000000885,"noteNumber":85,"velocity":55,"programNumber":45},{"time":156666.5100000008,"duration":222.22200000000885,"noteNumber":86,"velocity":55,"programNumber":45},{"time":157110.9540000008,"duration":111.11100000000442,"noteNumber":83,"velocity":55,"programNumber":45},{"time":157333.17600000082,"duration":222.22200000000885,"noteNumber":83,"velocity":55,"programNumber":45},{"time":157555.39800000083,"duration":222.22200000000885,"noteNumber":81,"velocity":55,"programNumber":45},{"time":157999.84200000085,"duration":166.66649999999208,"noteNumber":73,"velocity":55,"programNumber":45},{"time":158222.06400000083,"duration":444.4439999999886,"noteNumber":74,"velocity":55,"programNumber":45},{"time":158888.73000000083,"duration":111.11100000000442,"noteNumber":81,"velocity":55,"programNumber":45},{"time":159110.95200000083,"duration":222.22200000000885,"noteNumber":86,"velocity":55,"programNumber":45},{"time":159333.17400000084,"duration":222.22200000000885,"noteNumber":85,"velocity":55,"programNumber":45},{"time":159555.39600000085,"duration":222.22200000000885,"noteNumber":83,"velocity":55,"programNumber":45},{"time":159777.61800000086,"duration":222.22200000000885,"noteNumber":81,"velocity":55,"programNumber":45},{"time":159999.84000000087,"duration":55.55549999998766,"noteNumber":83,"velocity":55,"programNumber":45},{"time":160055.39550000086,"duration":55.55549999998766,"noteNumber":85,"velocity":55,"programNumber":45},{"time":160110.95100000084,"duration":55.55549999998766,"noteNumber":83,"velocity":55,"programNumber":45},{"time":160166.50650000083,"duration":55.55549999998766,"noteNumber":85,"velocity":55,"programNumber":45},{"time":160222.06200000082,"duration":222.22200000000885,"noteNumber":81,"velocity":55,"programNumber":45},{"time":160666.50600000084,"duration":111.11100000000442,"noteNumber":81,"velocity":55,"programNumber":45},{"time":160888.72800000085,"duration":111.11100000000442,"noteNumber":81,"velocity":55,"programNumber":45},{"time":161110.95000000086,"duration":111.11100000000442,"noteNumber":81,"velocity":55,"programNumber":45},{"time":161333.17200000086,"duration":111.11100000000442,"noteNumber":81,"velocity":55,"programNumber":45},{"time":161555.39400000087,"duration":111.11100000000442,"noteNumber":81,"velocity":55,"programNumber":45},{"time":161777.61600000088,"duration":55.55549999998766,"noteNumber":83,"velocity":55,"programNumber":45},{"time":161833.17150000087,"duration":55.55549999998766,"noteNumber":85,"velocity":55,"programNumber":45},{"time":161888.72700000086,"duration":55.55549999998766,"noteNumber":83,"velocity":55,"programNumber":45},{"time":161944.28250000085,"duration":55.55549999998766,"noteNumber":85,"velocity":55,"programNumber":45},{"time":161999.83800000083,"duration":222.22200000000885,"noteNumber":81,"velocity":55,"programNumber":45},{"time":162444.28200000085,"duration":166.66649999999208,"noteNumber":81,"velocity":55,"programNumber":45},{"time":162666.50400000083,"duration":222.22200000000885,"noteNumber":86,"velocity":55,"programNumber":45},{"time":162888.72600000084,"duration":222.22200000000885,"noteNumber":85,"velocity":55,"programNumber":45},{"time":163110.94800000085,"duration":222.22200000000885,"noteNumber":83,"velocity":55,"programNumber":45},{"time":163333.17000000086,"duration":222.22200000000885,"noteNumber":81,"velocity":55,"programNumber":45},{"time":163555.39200000087,"duration":55.55549999998766,"noteNumber":83,"velocity":55,"programNumber":45},{"time":163610.94750000085,"duration":55.55549999998766,"noteNumber":85,"velocity":55,"programNumber":45},{"time":163666.50300000084,"duration":55.55549999998766,"noteNumber":83,"velocity":55,"programNumber":45},{"time":163722.05850000083,"duration":55.55549999998766,"noteNumber":85,"velocity":55,"programNumber":45},{"time":163777.61400000082,"duration":222.22200000000885,"noteNumber":81,"velocity":55,"programNumber":45},{"time":164222.05800000083,"duration":111.11100000000442,"noteNumber":81,"velocity":55,"programNumber":45},{"time":164444.28000000084,"duration":111.11100000000442,"noteNumber":81,"velocity":55,"programNumber":45},{"time":164666.50200000085,"duration":111.11100000000442,"noteNumber":81,"velocity":55,"programNumber":45},{"time":164888.72400000086,"duration":111.11100000000442,"noteNumber":81,"velocity":55,"programNumber":45},{"time":165110.94600000087,"duration":111.11100000000442,"noteNumber":81,"velocity":55,"programNumber":45},{"time":165333.16800000088,"duration":55.55549999998766,"noteNumber":83,"velocity":55,"programNumber":45},{"time":165388.72350000087,"duration":55.55549999998766,"noteNumber":85,"velocity":55,"programNumber":45},{"time":165444.27900000085,"duration":55.55549999998766,"noteNumber":83,"velocity":55,"programNumber":45},{"time":165499.83450000084,"duration":55.55549999998766,"noteNumber":85,"velocity":55,"programNumber":45},{"time":165555.39000000083,"duration":222.22200000000885,"noteNumber":81,"velocity":55,"programNumber":45},{"time":166222.05600000083,"duration":629.6289999999863,"noteNumber":83,"velocity":94,"programNumber":45},{"time":166222.05600000083,"duration":629.6289999999863,"noteNumber":71,"velocity":94,"programNumber":45},{"time":166888.72200000082,"duration":74.07399999999325,"noteNumber":81,"velocity":83,"programNumber":45},{"time":166962.79600000082,"duration":74.07399999999325,"noteNumber":79,"velocity":83,"programNumber":45},{"time":167036.8700000008,"duration":74.07399999999325,"noteNumber":78,"velocity":83,"programNumber":45},{"time":167110.9440000008,"duration":444.4439999999886,"noteNumber":79,"velocity":83,"programNumber":45},{"time":167999.83200000078,"duration":629.6289999999863,"noteNumber":69,"velocity":85,"programNumber":45},{"time":167999.83200000078,"duration":629.6289999999863,"noteNumber":81,"velocity":85,"programNumber":45},{"time":168666.49800000078,"duration":74.07399999999325,"noteNumber":79,"velocity":85,"programNumber":45},{"time":168740.57200000077,"duration":74.07399999999325,"noteNumber":78,"velocity":85,"programNumber":45},{"time":168814.64600000076,"duration":74.07399999999325,"noteNumber":76,"velocity":85,"programNumber":45},{"time":168888.72000000076,"duration":444.4439999999886,"noteNumber":78,"velocity":85,"programNumber":45},{"time":169777.60800000074,"duration":222.22200000000885,"noteNumber":83,"velocity":79,"programNumber":45},{"time":169999.83000000074,"duration":111.11100000000442,"noteNumber":85,"velocity":80,"programNumber":45},{"time":170110.94100000075,"duration":111.11100000000442,"noteNumber":86,"velocity":82,"programNumber":45},{"time":170222.05200000075,"duration":166.66649999999208,"noteNumber":85,"velocity":82,"programNumber":45},{"time":170444.27400000073,"duration":111.11100000000442,"noteNumber":83,"velocity":82,"programNumber":45},{"time":170666.49600000074,"duration":222.22200000000885,"noteNumber":83,"velocity":83,"programNumber":45},{"time":170888.71800000075,"duration":166.66649999999208,"noteNumber":81,"velocity":86,"programNumber":45},{"time":171110.94000000073,"duration":111.11100000000442,"noteNumber":78,"velocity":86,"programNumber":45},{"time":171333.16200000074,"duration":111.11100000000442,"noteNumber":81,"velocity":88,"programNumber":45},{"time":171555.38400000075,"duration":222.22200000000885,"noteNumber":81,"velocity":88,"programNumber":45},{"time":171777.60600000076,"duration":166.66649999999208,"noteNumber":79,"velocity":83,"programNumber":45},{"time":171999.82800000074,"duration":111.11100000000442,"noteNumber":78,"velocity":79,"programNumber":45},{"time":172222.05000000075,"duration":111.11100000000442,"noteNumber":76,"velocity":76,"programNumber":45},{"time":172444.27200000075,"duration":444.4439999999886,"noteNumber":74,"velocity":85,"programNumber":45},{"time":173110.93800000075,"duration":111.11100000000442,"noteNumber":81,"velocity":53,"programNumber":45},{"time":173333.16000000076,"duration":222.22200000000885,"noteNumber":86,"velocity":53,"programNumber":45},{"time":173555.38200000077,"duration":222.22200000000885,"noteNumber":85,"velocity":53,"programNumber":45},{"time":173777.60400000078,"duration":222.22200000000885,"noteNumber":83,"velocity":53,"programNumber":45},{"time":173999.8260000008,"duration":222.22200000000885,"noteNumber":81,"velocity":53,"programNumber":45},{"time":174222.0480000008,"duration":55.55549999998766,"noteNumber":83,"velocity":55,"programNumber":45},{"time":174277.60350000078,"duration":55.55549999998766,"noteNumber":85,"velocity":55,"programNumber":45},{"time":174333.15900000077,"duration":55.55549999998766,"noteNumber":83,"velocity":55,"programNumber":45},{"time":174388.71450000076,"duration":55.55549999998766,"noteNumber":85,"velocity":55,"programNumber":45},{"time":174444.27000000075,"duration":222.22200000000885,"noteNumber":81,"velocity":55,"programNumber":45},{"time":174888.71400000076,"duration":111.11100000000442,"noteNumber":81,"velocity":55,"programNumber":45},{"time":175110.93600000077,"duration":111.11100000000442,"noteNumber":81,"velocity":55,"programNumber":45},{"time":175333.15800000078,"duration":111.11100000000442,"noteNumber":81,"velocity":55,"programNumber":45},{"time":175555.3800000008,"duration":111.11100000000442,"noteNumber":81,"velocity":55,"programNumber":45},{"time":175777.6020000008,"duration":111.11100000000442,"noteNumber":81,"velocity":55,"programNumber":45},{"time":175999.8240000008,"duration":55.55549999998766,"noteNumber":83,"velocity":55,"programNumber":45},{"time":176055.3795000008,"duration":55.55549999998766,"noteNumber":85,"velocity":55,"programNumber":45},{"time":176110.93500000078,"duration":55.55549999998766,"noteNumber":83,"velocity":55,"programNumber":45},{"time":176166.49050000077,"duration":55.55549999998766,"noteNumber":85,"velocity":55,"programNumber":45},{"time":176222.04600000076,"duration":222.22200000000885,"noteNumber":81,"velocity":55,"programNumber":45},{"time":176666.49000000078,"duration":166.66649999999208,"noteNumber":81,"velocity":55,"programNumber":45},{"time":176888.71200000076,"duration":222.22200000000885,"noteNumber":86,"velocity":55,"programNumber":45},{"time":177110.93400000077,"duration":222.22200000000885,"noteNumber":85,"velocity":55,"programNumber":45},{"time":177333.15600000077,"duration":222.22200000000885,"noteNumber":83,"velocity":55,"programNumber":45},{"time":177555.37800000078,"duration":222.22200000000885,"noteNumber":81,"velocity":55,"programNumber":45},{"time":177777.6000000008,"duration":55.55549999998766,"noteNumber":83,"velocity":55,"programNumber":45},{"time":177833.15550000078,"duration":55.55549999998766,"noteNumber":85,"velocity":55,"programNumber":45},{"time":177888.71100000077,"duration":55.55549999998766,"noteNumber":83,"velocity":55,"programNumber":45},{"time":177944.26650000075,"duration":55.55549999998766,"noteNumber":85,"velocity":55,"programNumber":45},{"time":177999.82200000074,"duration":222.22200000000885,"noteNumber":81,"velocity":55,"programNumber":45},{"time":178444.26600000076,"duration":111.11100000000442,"noteNumber":81,"velocity":55,"programNumber":45},{"time":178666.48800000077,"duration":111.11100000000442,"noteNumber":81,"velocity":55,"programNumber":45},{"time":178888.71000000078,"duration":111.11100000000442,"noteNumber":81,"velocity":55,"programNumber":45},{"time":179110.9320000008,"duration":111.11100000000442,"noteNumber":81,"velocity":55,"programNumber":45},{"time":179333.1540000008,"duration":111.11100000000442,"noteNumber":81,"velocity":55,"programNumber":45},{"time":179555.3760000008,"duration":55.55549999998766,"noteNumber":83,"velocity":59,"programNumber":45},{"time":179610.9315000008,"duration":55.55549999998766,"noteNumber":85,"velocity":59,"programNumber":45},{"time":179666.48700000078,"duration":55.55549999998766,"noteNumber":83,"velocity":59,"programNumber":45},{"time":179722.04250000077,"duration":55.55549999998766,"noteNumber":85,"velocity":59,"programNumber":45},{"time":179777.59800000075,"duration":222.22200000000885,"noteNumber":81,"velocity":59,"programNumber":45},{"time":180444.26400000075,"duration":629.6289999999863,"noteNumber":83,"velocity":85,"programNumber":45},{"time":180444.26400000075,"duration":629.6289999999863,"noteNumber":71,"velocity":85,"programNumber":45},{"time":181110.93000000075,"duration":74.07399999999325,"noteNumber":81,"velocity":85,"programNumber":45},{"time":181185.00400000074,"duration":74.07399999999325,"noteNumber":79,"velocity":85,"programNumber":45},{"time":181259.07800000074,"duration":74.07399999999325,"noteNumber":78,"velocity":85,"programNumber":45},{"time":181333.15200000073,"duration":444.4439999999886,"noteNumber":79,"velocity":85,"programNumber":45},{"time":182222.0400000007,"duration":629.6289999999863,"noteNumber":69,"velocity":85,"programNumber":45},{"time":182222.0400000007,"duration":629.6289999999863,"noteNumber":81,"velocity":85,"programNumber":45},{"time":182888.7060000007,"duration":74.07399999999325,"noteNumber":79,"velocity":85,"programNumber":45},{"time":182962.7800000007,"duration":74.07399999999325,"noteNumber":78,"velocity":85,"programNumber":45},{"time":183036.8540000007,"duration":74.07399999999325,"noteNumber":76,"velocity":85,"programNumber":45},{"time":183110.92800000068,"duration":444.4439999999886,"noteNumber":78,"velocity":85,"programNumber":45},{"time":183999.81600000066,"duration":222.22200000000885,"noteNumber":83,"velocity":85,"programNumber":45},{"time":184222.03800000067,"duration":111.11100000000442,"noteNumber":85,"velocity":85,"programNumber":45},{"time":184333.14900000067,"duration":111.11100000000442,"noteNumber":86,"velocity":85,"programNumber":45},{"time":184444.26000000068,"duration":166.66649999999208,"noteNumber":85,"velocity":85,"programNumber":45},{"time":184666.48200000066,"duration":111.11100000000442,"noteNumber":83,"velocity":85,"programNumber":45},{"time":184888.70400000067,"duration":222.22200000000885,"noteNumber":83,"velocity":95,"programNumber":45},{"time":185110.92600000068,"duration":166.66649999999208,"noteNumber":81,"velocity":85,"programNumber":45},{"time":185333.14800000066,"duration":111.11100000000442,"noteNumber":78,"velocity":85,"programNumber":45},{"time":185555.37000000066,"duration":111.11100000000442,"noteNumber":81,"velocity":85,"programNumber":45},{"time":185777.59200000067,"duration":222.22200000000885,"noteNumber":81,"velocity":85,"programNumber":45},{"time":185999.81400000068,"duration":166.66649999999208,"noteNumber":79,"velocity":85,"programNumber":45},{"time":186222.03600000066,"duration":111.11100000000442,"noteNumber":78,"velocity":85,"programNumber":45},{"time":186444.25800000067,"duration":111.11100000000442,"noteNumber":76,"velocity":85,"programNumber":45},{"time":186666.48000000068,"duration":166.66649999999208,"noteNumber":74,"velocity":85,"programNumber":45},{"time":186888.70200000066,"duration":166.66649999999208,"noteNumber":69,"velocity":85,"programNumber":45},{"time":187110.92400000064,"duration":166.66649999999208,"noteNumber":71,"velocity":85,"programNumber":45},{"time":187333.14600000062,"duration":166.66649999999208,"noteNumber":73,"velocity":85,"programNumber":45},{"time":187555.3680000006,"duration":111.11100000000442,"noteNumber":74,"velocity":85,"programNumber":45},{"time":187777.5900000006,"duration":111.11100000000442,"noteNumber":74,"velocity":85,"programNumber":45},{"time":187999.81200000062,"duration":55.55549999998766,"noteNumber":76,"velocity":85,"programNumber":45},{"time":188055.3675000006,"duration":55.55549999998766,"noteNumber":78,"velocity":85,"programNumber":45},{"time":188110.9230000006,"duration":55.55549999998766,"noteNumber":76,"velocity":85,"programNumber":45},{"time":188166.47850000058,"duration":55.55549999998766,"noteNumber":78,"velocity":85,"programNumber":45},{"time":188222.03400000057,"duration":111.11100000000442,"noteNumber":74,"velocity":85,"programNumber":45},{"time":188333.14500000057,"duration":111.11100000000442,"noteNumber":76,"velocity":85,"programNumber":45},{"time":188444.25600000058,"duration":222.22200000000885,"noteNumber":78,"velocity":85,"programNumber":45},{"time":188666.47800000058,"duration":166.66649999999208,"noteNumber":73,"velocity":85,"programNumber":45},{"time":188888.70000000056,"duration":166.66649999999208,"noteNumber":74,"velocity":85,"programNumber":45},{"time":189110.92200000054,"duration":166.66649999999208,"noteNumber":76,"velocity":85,"programNumber":45},{"time":189333.14400000052,"duration":166.66649999999208,"noteNumber":78,"velocity":85,"programNumber":45},{"time":189555.3660000005,"duration":166.66649999999208,"noteNumber":78,"velocity":85,"programNumber":45},{"time":189777.58800000048,"duration":55.55549999998766,"noteNumber":79,"velocity":85,"programNumber":45},{"time":189833.14350000047,"duration":55.55549999998766,"noteNumber":81,"velocity":86,"programNumber":45},{"time":189888.69900000046,"duration":55.55549999998766,"noteNumber":79,"velocity":86,"programNumber":45},{"time":189944.25450000045,"duration":55.55549999998766,"noteNumber":81,"velocity":86,"programNumber":45},{"time":189999.81000000043,"duration":111.11100000000442,"noteNumber":78,"velocity":86,"programNumber":45},{"time":190110.92100000044,"duration":111.11100000000442,"noteNumber":79,"velocity":88,"programNumber":45},{"time":190222.03200000044,"duration":166.66649999999208,"noteNumber":81,"velocity":88,"programNumber":45},{"time":190444.25400000042,"duration":166.66649999999208,"noteNumber":81,"velocity":88,"programNumber":45},{"time":190666.4760000004,"duration":55.55549999998766,"noteNumber":82,"velocity":89,"programNumber":45},{"time":190722.0315000004,"duration":55.55549999998766,"noteNumber":83,"velocity":91,"programNumber":45},{"time":190777.58700000038,"duration":55.55549999998766,"noteNumber":82,"velocity":91,"programNumber":45},{"time":190833.14250000037,"duration":55.55549999998766,"noteNumber":83,"velocity":91,"programNumber":45},{"time":190888.69800000035,"duration":111.11100000000442,"noteNumber":80,"velocity":92,"programNumber":45},{"time":190999.80900000036,"duration":111.11100000000442,"noteNumber":82,"velocity":94,"programNumber":45},{"time":191110.92000000036,"duration":444.4439999999886,"noteNumber":83,"velocity":98,"programNumber":45},{"time":191999.80800000034,"duration":666.6659999999974,"noteNumber":71,"velocity":40,"programNumber":45},{"time":192666.47400000034,"duration":166.66649999999208,"noteNumber":76,"velocity":47,"programNumber":45},{"time":192888.69600000032,"duration":222.22200000000885,"noteNumber":74,"velocity":49,"programNumber":45},{"time":193110.91800000033,"duration":222.22200000000885,"noteNumber":73,"velocity":49,"programNumber":45},{"time":193333.14000000033,"duration":222.22200000000885,"noteNumber":71,"velocity":43,"programNumber":45},{"time":193555.36200000034,"duration":222.22200000000885,"noteNumber":69,"velocity":41,"programNumber":45},{"time":193777.58400000035,"duration":222.22200000000885,"noteNumber":74,"velocity":40,"programNumber":45},{"time":194222.02800000037,"duration":222.22200000000885,"noteNumber":78,"velocity":59,"programNumber":45},{"time":194666.4720000004,"duration":222.22200000000885,"noteNumber":74,"velocity":57,"programNumber":45},{"time":195555.3600000004,"duration":444.4439999999886,"noteNumber":74,"velocity":100,"programNumber":45},{"time":195555.3600000004,"duration":444.4439999999886,"noteNumber":62,"velocity":100,"programNumber":45},{"time":196222.0260000004,"duration":166.66649999999208,"noteNumber":69,"velocity":91,"programNumber":45},{"time":196444.24800000037,"duration":444.4439999999886,"noteNumber":74,"velocity":91,"programNumber":45},{"time":197110.91400000037,"duration":166.66649999999208,"noteNumber":69,"velocity":91,"programNumber":45},{"time":197333.13600000035,"duration":166.66649999999208,"noteNumber":74,"velocity":91,"programNumber":45},{"time":197555.35800000033,"duration":166.66649999999208,"noteNumber":69,"velocity":91,"programNumber":45},{"time":197777.5800000003,"duration":166.66649999999208,"noteNumber":74,"velocity":91,"programNumber":45},{"time":197999.8020000003,"duration":166.66649999999208,"noteNumber":78,"velocity":91,"programNumber":45},{"time":198222.02400000027,"duration":444.4439999999886,"noteNumber":81,"velocity":91,"programNumber":45},{"time":199110.91200000024,"duration":444.4439999999886,"noteNumber":81,"velocity":91,"programNumber":45},{"time":199777.57800000024,"duration":166.66649999999208,"noteNumber":78,"velocity":91,"programNumber":45},{"time":199999.80000000022,"duration":444.4439999999886,"noteNumber":81,"velocity":91,"programNumber":45},{"time":200666.46600000022,"duration":166.66649999999208,"noteNumber":78,"velocity":91,"programNumber":45},{"time":200888.6880000002,"duration":166.66649999999208,"noteNumber":81,"velocity":91,"programNumber":45},{"time":201110.91000000018,"duration":166.66649999999208,"noteNumber":78,"velocity":91,"programNumber":45},{"time":201333.13200000016,"duration":166.66649999999208,"noteNumber":75,"velocity":91,"programNumber":45},{"time":201555.35400000014,"duration":166.66649999999208,"noteNumber":78,"velocity":91,"programNumber":45},{"time":201777.57600000012,"duration":444.4439999999886,"noteNumber":71,"velocity":91,"programNumber":45},{"time":203333.1300000001,"duration":166.66649999999208,"noteNumber":79,"velocity":55,"programNumber":45},{"time":203555.35200000007,"duration":222.22200000000885,"noteNumber":84,"velocity":55,"programNumber":45},{"time":203777.57400000008,"duration":222.22200000000885,"noteNumber":83,"velocity":55,"programNumber":45},{"time":203999.7960000001,"duration":222.22200000000885,"noteNumber":81,"velocity":55,"programNumber":45},{"time":204222.0180000001,"duration":222.22200000000885,"noteNumber":79,"velocity":55,"programNumber":45},{"time":204444.2400000001,"duration":55.55549999998766,"noteNumber":81,"velocity":55,"programNumber":45},{"time":204499.7955000001,"duration":55.55549999998766,"noteNumber":83,"velocity":55,"programNumber":45},{"time":204555.35100000008,"duration":55.55549999998766,"noteNumber":81,"velocity":55,"programNumber":45},{"time":204610.90650000007,"duration":55.55549999998766,"noteNumber":83,"velocity":55,"programNumber":45},{"time":204666.46200000006,"duration":222.22200000000885,"noteNumber":79,"velocity":55,"programNumber":45},{"time":205110.90600000008,"duration":111.11100000000442,"noteNumber":79,"velocity":55,"programNumber":45},{"time":205333.12800000008,"duration":111.11100000000442,"noteNumber":79,"velocity":55,"programNumber":45},{"time":205555.3500000001,"duration":111.11100000000442,"noteNumber":79,"velocity":55,"programNumber":45},{"time":205777.5720000001,"duration":111.11100000000442,"noteNumber":79,"velocity":55,"programNumber":45},{"time":205999.7940000001,"duration":111.11100000000442,"noteNumber":79,"velocity":55,"programNumber":45},{"time":206222.01600000012,"duration":55.55549999998766,"noteNumber":81,"velocity":55,"programNumber":45},{"time":206277.5715000001,"duration":55.55549999998766,"noteNumber":83,"velocity":55,"programNumber":45},{"time":206333.1270000001,"duration":55.55549999998766,"noteNumber":81,"velocity":55,"programNumber":45},{"time":206388.68250000008,"duration":55.55549999998766,"noteNumber":83,"velocity":55,"programNumber":45},{"time":206444.23800000007,"duration":222.22200000000885,"noteNumber":79,"velocity":55,"programNumber":45},{"time":206888.6820000001,"duration":166.66649999999208,"noteNumber":79,"velocity":55,"programNumber":45},{"time":207110.90400000007,"duration":222.22200000000885,"noteNumber":84,"velocity":55,"programNumber":45},{"time":207333.12600000008,"duration":222.22200000000885,"noteNumber":83,"velocity":55,"programNumber":45},{"time":207555.3480000001,"duration":222.22200000000885,"noteNumber":81,"velocity":55,"programNumber":45},{"time":207777.5700000001,"duration":222.22200000000885,"noteNumber":79,"velocity":55,"programNumber":45},{"time":207999.7920000001,"duration":55.55549999998766,"noteNumber":81,"velocity":55,"programNumber":45},{"time":208055.3475000001,"duration":55.55549999998766,"noteNumber":83,"velocity":55,"programNumber":45},{"time":208110.90300000008,"duration":55.55549999998766,"noteNumber":81,"velocity":55,"programNumber":45},{"time":208166.45850000007,"duration":55.55549999998766,"noteNumber":83,"velocity":55,"programNumber":45},{"time":208222.01400000005,"duration":222.22200000000885,"noteNumber":79,"velocity":55,"programNumber":45},{"time":208666.45800000007,"duration":111.11100000000442,"noteNumber":79,"velocity":55,"programNumber":45},{"time":208888.68000000008,"duration":111.11100000000442,"noteNumber":79,"velocity":55,"programNumber":45},{"time":209110.9020000001,"duration":111.11100000000442,"noteNumber":79,"velocity":55,"programNumber":45},{"time":209333.1240000001,"duration":111.11100000000442,"noteNumber":79,"velocity":55,"programNumber":45},{"time":209555.3460000001,"duration":111.11100000000442,"noteNumber":79,"velocity":55,"programNumber":45},{"time":209777.56800000012,"duration":55.55549999998766,"noteNumber":81,"velocity":55,"programNumber":45},{"time":209833.1235000001,"duration":55.55549999998766,"noteNumber":83,"velocity":55,"programNumber":45},{"time":209888.6790000001,"duration":55.55549999998766,"noteNumber":81,"velocity":55,"programNumber":45},{"time":209944.23450000008,"duration":55.55549999998766,"noteNumber":83,"velocity":55,"programNumber":45},{"time":209999.79000000007,"duration":222.22200000000885,"noteNumber":79,"velocity":55,"programNumber":45},{"time":210444.23400000008,"duration":166.66649999999208,"noteNumber":79,"velocity":55,"programNumber":45},{"time":210666.45600000006,"duration":222.22200000000885,"noteNumber":84,"velocity":55,"programNumber":45},{"time":210888.67800000007,"duration":222.22200000000885,"noteNumber":83,"velocity":55,"programNumber":45},{"time":211110.90000000008,"duration":222.22200000000885,"noteNumber":81,"velocity":55,"programNumber":45},{"time":211333.1220000001,"duration":222.22200000000885,"noteNumber":79,"velocity":55,"programNumber":45},{"time":211555.3440000001,"duration":55.55549999998766,"noteNumber":81,"velocity":55,"programNumber":45},{"time":211610.8995000001,"duration":55.55549999998766,"noteNumber":83,"velocity":55,"programNumber":45},{"time":211666.45500000007,"duration":55.55549999998766,"noteNumber":81,"velocity":55,"programNumber":45},{"time":211722.01050000006,"duration":55.55549999998766,"noteNumber":83,"velocity":55,"programNumber":45},{"time":211777.56600000005,"duration":222.22200000000885,"noteNumber":80,"velocity":55,"programNumber":45},{"time":212222.01000000007,"duration":111.11100000000442,"noteNumber":80,"velocity":55,"programNumber":45},{"time":212444.23200000008,"duration":111.11100000000442,"noteNumber":80,"velocity":55,"programNumber":45},{"time":212666.45400000009,"duration":111.11100000000442,"noteNumber":80,"velocity":55,"programNumber":45},{"time":212888.6760000001,"duration":111.11100000000442,"noteNumber":80,"velocity":55,"programNumber":45},{"time":213110.8980000001,"duration":111.11100000000442,"noteNumber":80,"velocity":55,"programNumber":45},{"time":213333.1200000001,"duration":55.55549999998766,"noteNumber":83,"velocity":55,"programNumber":45},{"time":213388.6755000001,"duration":55.55549999998766,"noteNumber":84,"velocity":55,"programNumber":45},{"time":213444.2310000001,"duration":55.55549999998766,"noteNumber":83,"velocity":55,"programNumber":45},{"time":213499.78650000007,"duration":55.55549999998766,"noteNumber":84,"velocity":55,"programNumber":45},{"time":213555.34200000006,"duration":222.22200000000885,"noteNumber":81,"velocity":55,"programNumber":45},{"time":213999.78600000008,"duration":166.66649999999208,"noteNumber":81,"velocity":55,"programNumber":45},{"time":214222.00800000006,"duration":222.22200000000885,"noteNumber":84,"velocity":55,"programNumber":45},{"time":214444.23000000007,"duration":222.22200000000885,"noteNumber":82,"velocity":55,"programNumber":45},{"time":214666.45200000008,"duration":222.22200000000885,"noteNumber":81,"velocity":55,"programNumber":45},{"time":214888.6740000001,"duration":222.22200000000885,"noteNumber":79,"velocity":55,"programNumber":45},{"time":215110.8960000001,"duration":55.55549999998766,"noteNumber":79,"velocity":55,"programNumber":45},{"time":215166.45150000008,"duration":55.55549999998766,"noteNumber":81,"velocity":55,"programNumber":45},{"time":215222.00700000007,"duration":55.55549999998766,"noteNumber":79,"velocity":55,"programNumber":45},{"time":215277.56250000006,"duration":55.55549999998766,"noteNumber":81,"velocity":55,"programNumber":45},{"time":215333.11800000005,"duration":222.22200000000885,"noteNumber":78,"velocity":55,"programNumber":45},{"time":215777.56200000006,"duration":111.11100000000442,"noteNumber":78,"velocity":55,"programNumber":45},{"time":215999.78400000007,"duration":111.11100000000442,"noteNumber":78,"velocity":55,"programNumber":45},{"time":216222.00600000008,"duration":111.11100000000442,"noteNumber":78,"velocity":55,"programNumber":45},{"time":216444.2280000001,"duration":111.11100000000442,"noteNumber":78,"velocity":55,"programNumber":45},{"time":216666.4500000001,"duration":111.11100000000442,"noteNumber":78,"velocity":55,"programNumber":45},{"time":216888.6720000001,"duration":55.55549999998766,"noteNumber":81,"velocity":55,"programNumber":45},{"time":216944.2275000001,"duration":55.55549999998766,"noteNumber":82,"velocity":55,"programNumber":45},{"time":216999.78300000008,"duration":55.55549999998766,"noteNumber":81,"velocity":55,"programNumber":45},{"time":217055.33850000007,"duration":55.55549999998766,"noteNumber":82,"velocity":55,"programNumber":45},{"time":217110.89400000006,"duration":222.22200000000885,"noteNumber":79,"velocity":55,"programNumber":45},{"time":217555.33800000008,"duration":166.66649999999208,"noteNumber":75,"velocity":55,"programNumber":45},{"time":217777.56000000006,"duration":222.22200000000885,"noteNumber":79,"velocity":55,"programNumber":45},{"time":217999.78200000006,"duration":222.22200000000885,"noteNumber":77,"velocity":55,"programNumber":45},{"time":218222.00400000007,"duration":222.22200000000885,"noteNumber":76,"velocity":55,"programNumber":45},{"time":218444.22600000008,"duration":222.22200000000885,"noteNumber":74,"velocity":55,"programNumber":45},{"time":218666.4480000001,"duration":55.55549999998766,"noteNumber":74,"velocity":55,"programNumber":45},{"time":218722.00350000008,"duration":55.55549999998766,"noteNumber":75,"velocity":55,"programNumber":45},{"time":218777.55900000007,"duration":55.55549999998766,"noteNumber":74,"velocity":55,"programNumber":45},{"time":218833.11450000005,"duration":55.55549999998766,"noteNumber":75,"velocity":55,"programNumber":45},{"time":218888.67000000004,"duration":222.22200000000885,"noteNumber":73,"velocity":55,"programNumber":45},{"time":219333.11400000006,"duration":111.11100000000442,"noteNumber":73,"velocity":55,"programNumber":45},{"time":219555.33600000007,"duration":111.11100000000442,"noteNumber":73,"velocity":55,"programNumber":45},{"time":219777.55800000008,"duration":111.11100000000442,"noteNumber":73,"velocity":55,"programNumber":45},{"time":219999.7800000001,"duration":111.11100000000442,"noteNumber":73,"velocity":55,"programNumber":45},{"time":220222.0020000001,"duration":111.11100000000442,"noteNumber":73,"velocity":55,"programNumber":45},{"time":220444.2240000001,"duration":55.55549999998766,"noteNumber":76,"velocity":53,"programNumber":45},{"time":220499.7795000001,"duration":55.55549999998766,"noteNumber":78,"velocity":53,"programNumber":45},{"time":220555.33500000008,"duration":55.55549999998766,"noteNumber":76,"velocity":53,"programNumber":45},{"time":220610.89050000007,"duration":55.55549999998766,"noteNumber":78,"velocity":53,"programNumber":45},{"time":220666.44600000005,"duration":222.22200000000885,"noteNumber":74,"velocity":53,"programNumber":45},{"time":221110.89000000007,"duration":222.22200000000885,"noteNumber":62,"velocity":91,"programNumber":45},{"time":221333.11200000008,"duration":222.22200000000885,"noteNumber":64,"velocity":91,"programNumber":45},{"time":221555.3340000001,"duration":222.22200000000885,"noteNumber":66,"velocity":91,"programNumber":45},{"time":221777.5560000001,"duration":222.22200000000885,"noteNumber":67,"velocity":91,"programNumber":45},{"time":221999.7780000001,"duration":222.22200000000885,"noteNumber":69,"velocity":91,"programNumber":45},{"time":222222.00000000012,"duration":222.22200000000885,"noteNumber":72,"velocity":91,"programNumber":45},{"time":222444.22200000013,"duration":222.22200000000885,"noteNumber":70,"velocity":91,"programNumber":45},{"time":222888.66600000014,"duration":222.22200000000885,"noteNumber":66,"velocity":91,"programNumber":45},{"time":223110.88800000015,"duration":222.22200000000885,"noteNumber":67,"velocity":91,"programNumber":45},{"time":223333.11000000016,"duration":222.22200000000885,"noteNumber":69,"velocity":91,"programNumber":45},{"time":223555.33200000017,"duration":222.22200000000885,"noteNumber":70,"velocity":91,"programNumber":45},{"time":223777.55400000018,"duration":222.22200000000885,"noteNumber":73,"velocity":91,"programNumber":45},{"time":223999.7760000002,"duration":222.22200000000885,"noteNumber":76,"velocity":91,"programNumber":45},{"time":224221.9980000002,"duration":222.22200000000885,"noteNumber":74,"velocity":91,"programNumber":45},{"time":224666.4420000002,"duration":222.22200000000885,"noteNumber":74,"velocity":53,"programNumber":45},{"time":224888.66400000022,"duration":222.22200000000885,"noteNumber":76,"velocity":53,"programNumber":45},{"time":225110.88600000023,"duration":222.22200000000885,"noteNumber":78,"velocity":53,"programNumber":45},{"time":225333.10800000024,"duration":222.22200000000885,"noteNumber":79,"velocity":53,"programNumber":45},{"time":225555.33000000025,"duration":222.22200000000885,"noteNumber":81,"velocity":52,"programNumber":45},{"time":225777.55200000026,"duration":444.4439999999886,"noteNumber":82,"velocity":50,"programNumber":45},{"time":226221.99600000025,"duration":444.4439999999886,"noteNumber":83,"velocity":46,"programNumber":45},{"time":226666.44000000024,"duration":444.4439999999886,"noteNumber":84,"velocity":43,"programNumber":45},{"time":227110.88400000022,"duration":444.4439999999886,"noteNumber":85,"velocity":40,"programNumber":45},{"time":227555.3280000002,"duration":2611.108500000002,"noteNumber":86,"velocity":59,"programNumber":45},{"time":230221.9920000002,"duration":55.55549999998766,"noteNumber":78,"velocity":52,"programNumber":45},{"time":230277.5475000002,"duration":55.55549999998766,"noteNumber":79,"velocity":53,"programNumber":45},{"time":230333.10300000018,"duration":55.55549999998766,"noteNumber":78,"velocity":55,"programNumber":45},{"time":230388.65850000017,"duration":55.55549999998766,"noteNumber":79,"velocity":58,"programNumber":45},{"time":230444.21400000015,"duration":55.55549999998766,"noteNumber":78,"velocity":59,"programNumber":45},{"time":230499.76950000014,"duration":55.55549999998766,"noteNumber":79,"velocity":61,"programNumber":45},{"time":230555.32500000013,"duration":55.55549999998766,"noteNumber":78,"velocity":62,"programNumber":45},{"time":230610.88050000012,"duration":55.55549999998766,"noteNumber":79,"velocity":65,"programNumber":45},{"time":230666.4360000001,"duration":55.55549999998766,"noteNumber":78,"velocity":67,"programNumber":45},{"time":230721.9915000001,"duration":55.55549999998766,"noteNumber":79,"velocity":68,"programNumber":45},{"time":230777.54700000008,"duration":55.55549999998766,"noteNumber":78,"velocity":70,"programNumber":45},{"time":230833.10250000007,"duration":55.55549999998766,"noteNumber":79,"velocity":71,"programNumber":45},{"time":230888.65800000005,"duration":111.11100000000442,"noteNumber":76,"velocity":74,"programNumber":45},{"time":230999.76900000006,"duration":111.11100000000442,"noteNumber":78,"velocity":77,"programNumber":45},{"time":231110.88000000006,"duration":444.4439999999886,"noteNumber":79,"velocity":93,"programNumber":45},{"time":231777.54600000006,"duration":111.11100000000442,"noteNumber":74,"velocity":92,"programNumber":45},{"time":231999.76800000007,"duration":444.4439999999886,"noteNumber":79,"velocity":92,"programNumber":45},{"time":232666.43400000007,"duration":111.11100000000442,"noteNumber":74,"velocity":91,"programNumber":45},{"time":232888.65600000008,"duration":111.11100000000442,"noteNumber":79,"velocity":90,"programNumber":45},{"time":233110.87800000008,"duration":111.11100000000442,"noteNumber":74,"velocity":90,"programNumber":45},{"time":233333.1000000001,"duration":111.11100000000442,"noteNumber":79,"velocity":90,"programNumber":45},{"time":233555.3220000001,"duration":111.11100000000442,"noteNumber":83,"velocity":90,"programNumber":45},{"time":233777.5440000001,"duration":444.4439999999886,"noteNumber":86,"velocity":89,"programNumber":45},{"time":234666.4320000001,"duration":444.4439999999886,"noteNumber":84,"velocity":104,"programNumber":45},{"time":235333.0980000001,"duration":111.11100000000442,"noteNumber":81,"velocity":87,"programNumber":45},{"time":235555.3200000001,"duration":444.4439999999886,"noteNumber":84,"velocity":86,"programNumber":45},{"time":236221.9860000001,"duration":111.11100000000442,"noteNumber":81,"velocity":85,"programNumber":45},{"time":236444.2080000001,"duration":111.11100000000442,"noteNumber":84,"velocity":92,"programNumber":45},{"time":236666.4300000001,"duration":111.11100000000442,"noteNumber":81,"velocity":85,"programNumber":45},{"time":236888.65200000012,"duration":111.11100000000442,"noteNumber":78,"velocity":92,"programNumber":45},{"time":237110.87400000013,"duration":111.11100000000442,"noteNumber":81,"velocity":85,"programNumber":45},{"time":237333.09600000014,"duration":444.4439999999886,"noteNumber":74,"velocity":94,"programNumber":45},{"time":238221.9840000001,"duration":222.22200000000885,"noteNumber":71,"velocity":92,"programNumber":45},{"time":238221.9840000001,"duration":222.22200000000885,"noteNumber":79,"velocity":92,"programNumber":45},{"time":238221.9840000001,"duration":222.22200000000885,"noteNumber":62,"velocity":92,"programNumber":45},{"time":238666.42800000013,"duration":666.6659999999974,"noteNumber":79,"velocity":85,"programNumber":45},{"time":239333.09400000013,"duration":222.22200000000885,"noteNumber":83,"velocity":74,"programNumber":45},{"time":239555.31600000014,"duration":111.11100000000442,"noteNumber":81,"velocity":74,"programNumber":45},{"time":239777.53800000015,"duration":111.11100000000442,"noteNumber":79,"velocity":80,"programNumber":45},{"time":239999.76000000015,"duration":55.55549999998766,"noteNumber":79,"velocity":86,"programNumber":45},{"time":240055.31550000014,"duration":55.55549999998766,"noteNumber":81,"velocity":86,"programNumber":45},{"time":240110.87100000013,"duration":55.55549999998766,"noteNumber":79,"velocity":86,"programNumber":45},{"time":240166.42650000012,"duration":55.55549999998766,"noteNumber":81,"velocity":86,"programNumber":45},{"time":240221.9820000001,"duration":185.18499999999767,"noteNumber":78,"velocity":83,"programNumber":45},{"time":240444.2040000001,"duration":666.6659999999974,"noteNumber":78,"velocity":77,"programNumber":45},{"time":241110.8700000001,"duration":222.22200000000885,"noteNumber":81,"velocity":85,"programNumber":45},{"time":241333.09200000012,"duration":111.11100000000442,"noteNumber":84,"velocity":85,"programNumber":45},{"time":241555.31400000013,"duration":111.11100000000442,"noteNumber":78,"velocity":85,"programNumber":45},{"time":241777.53600000014,"duration":222.22200000000885,"noteNumber":81,"velocity":85,"programNumber":45},{"time":241999.75800000015,"duration":111.11100000000442,"noteNumber":79,"velocity":85,"programNumber":45},{"time":242221.98000000016,"duration":666.6659999999974,"noteNumber":79,"velocity":85,"programNumber":45},{"time":242888.64600000015,"duration":222.22200000000885,"noteNumber":83,"velocity":85,"programNumber":45},{"time":243110.86800000016,"duration":111.11100000000442,"noteNumber":81,"velocity":85,"programNumber":45},{"time":243333.09000000017,"duration":111.11100000000442,"noteNumber":79,"velocity":85,"programNumber":45},{"time":243555.31200000018,"duration":55.55549999998766,"noteNumber":79,"velocity":85,"programNumber":45},{"time":243610.86750000017,"duration":55.55549999998766,"noteNumber":81,"velocity":85,"programNumber":45},{"time":243666.42300000016,"duration":55.55549999998766,"noteNumber":79,"velocity":85,"programNumber":45},{"time":243721.97850000014,"duration":55.55549999998766,"noteNumber":81,"velocity":85,"programNumber":45},{"time":243777.53400000013,"duration":185.18499999999767,"noteNumber":78,"velocity":85,"programNumber":45},{"time":243999.75600000014,"duration":666.6659999999974,"noteNumber":78,"velocity":85,"programNumber":45},{"time":244666.42200000014,"duration":222.22200000000885,"noteNumber":81,"velocity":85,"programNumber":45},{"time":244888.64400000015,"duration":111.11100000000442,"noteNumber":84,"velocity":85,"programNumber":45},{"time":245110.86600000015,"duration":111.11100000000442,"noteNumber":78,"velocity":85,"programNumber":45},{"time":245333.08800000016,"duration":111.11100000000442,"noteNumber":79,"velocity":85,"programNumber":45},{"time":245555.31000000017,"duration":111.11100000000442,"noteNumber":79,"velocity":85,"programNumber":45},{"time":245777.53200000018,"duration":111.11100000000442,"noteNumber":79,"velocity":85,"programNumber":45},{"time":245888.6430000002,"duration":111.11100000000442,"noteNumber":78,"velocity":85,"programNumber":45},{"time":245999.7540000002,"duration":111.11100000000442,"noteNumber":76,"velocity":85,"programNumber":45},{"time":246110.8650000002,"duration":111.11100000000442,"noteNumber":78,"velocity":85,"programNumber":45},{"time":246221.9760000002,"duration":111.11100000000442,"noteNumber":79,"velocity":85,"programNumber":45},{"time":246444.1980000002,"duration":111.11100000000442,"noteNumber":79,"velocity":85,"programNumber":45},{"time":246666.42000000022,"duration":111.11100000000442,"noteNumber":83,"velocity":85,"programNumber":45},{"time":246777.53100000022,"duration":111.11100000000442,"noteNumber":81,"velocity":85,"programNumber":45},{"time":246888.64200000023,"duration":111.11100000000442,"noteNumber":79,"velocity":85,"programNumber":45},{"time":246999.75300000023,"duration":111.11100000000442,"noteNumber":81,"velocity":83,"programNumber":45},{"time":247110.86400000023,"duration":111.11100000000442,"noteNumber":83,"velocity":83,"programNumber":45},{"time":247333.08600000024,"duration":111.11100000000442,"noteNumber":83,"velocity":83,"programNumber":45},{"time":247555.30800000025,"duration":111.11100000000442,"noteNumber":86,"velocity":83,"programNumber":45},{"time":247666.41900000026,"duration":111.11100000000442,"noteNumber":84,"velocity":80,"programNumber":45},{"time":247777.53000000026,"duration":111.11100000000442,"noteNumber":83,"velocity":79,"programNumber":45},{"time":247888.64100000027,"duration":111.11100000000442,"noteNumber":84,"velocity":76,"programNumber":45},{"time":247999.75200000027,"duration":444.4439999999886,"noteNumber":86,"velocity":71,"programNumber":45},{"time":248888.64000000025,"duration":888.8880000000063,"noteNumber":74,"velocity":56,"programNumber":45},{"time":249777.52800000025,"duration":888.8880000000063,"noteNumber":76,"velocity":55,"programNumber":45},{"time":250666.41600000026,"duration":111.11100000000442,"noteNumber":74,"velocity":57,"programNumber":45},{"time":250777.52700000026,"duration":296.2960000000021,"noteNumber":72,"velocity":59,"programNumber":45},{"time":251110.86000000028,"duration":444.4439999999886,"noteNumber":72,"velocity":58,"programNumber":45},{"time":251555.30400000027,"duration":111.11100000000442,"noteNumber":72,"velocity":57,"programNumber":45},{"time":251666.41500000027,"duration":296.2960000000021,"noteNumber":71,"velocity":55,"programNumber":45},{"time":251999.74800000028,"duration":444.4439999999886,"noteNumber":71,"velocity":53,"programNumber":45},{"time":252444.19200000027,"duration":111.11100000000442,"noteNumber":71,"velocity":57,"programNumber":45},{"time":252555.30300000028,"duration":296.2960000000021,"noteNumber":69,"velocity":56,"programNumber":45},{"time":252888.6360000003,"duration":444.4439999999886,"noteNumber":69,"velocity":55,"programNumber":45},{"time":253333.08000000028,"duration":222.22200000000885,"noteNumber":67,"velocity":54,"programNumber":45},{"time":253555.3020000003,"duration":111.11100000000442,"noteNumber":66,"velocity":55,"programNumber":45},{"time":253777.5240000003,"duration":111.11100000000442,"noteNumber":64,"velocity":55,"programNumber":45},{"time":253999.7460000003,"duration":111.11100000000442,"noteNumber":66,"velocity":55,"programNumber":45},{"time":254221.9680000003,"duration":222.22200000000885,"noteNumber":67,"velocity":56,"programNumber":45},{"time":254666.41200000033,"duration":222.22200000000885,"noteNumber":69,"velocity":57,"programNumber":45},{"time":255110.85600000035,"duration":222.22200000000885,"noteNumber":71,"velocity":57,"programNumber":45},{"time":255999.74400000036,"duration":888.8880000000063,"noteNumber":74,"velocity":56,"programNumber":45},{"time":256888.63200000036,"duration":888.8880000000063,"noteNumber":76,"velocity":59,"programNumber":45},{"time":257777.52000000037,"duration":222.22200000000885,"noteNumber":74,"velocity":46,"programNumber":45},{"time":257999.74200000038,"duration":111.11100000000442,"noteNumber":72,"velocity":51,"programNumber":45},{"time":258221.9640000004,"duration":111.11100000000442,"noteNumber":72,"velocity":51,"programNumber":45},{"time":258444.1860000004,"duration":111.11100000000442,"noteNumber":72,"velocity":51,"programNumber":45},{"time":258666.4080000004,"duration":222.22200000000885,"noteNumber":72,"velocity":51,"programNumber":45},{"time":258888.6300000004,"duration":111.11100000000442,"noteNumber":71,"velocity":50,"programNumber":45},{"time":259110.85200000042,"duration":111.11100000000442,"noteNumber":71,"velocity":49,"programNumber":45},{"time":259333.07400000043,"duration":111.11100000000442,"noteNumber":71,"velocity":49,"programNumber":45},{"time":259555.29600000044,"duration":222.22200000000885,"noteNumber":71,"velocity":49,"programNumber":45},{"time":259777.51800000045,"duration":111.11100000000442,"noteNumber":69,"velocity":50,"programNumber":45},{"time":259999.74000000046,"duration":166.66649999999208,"noteNumber":69,"velocity":52,"programNumber":45},{"time":260221.96200000044,"duration":166.66649999999208,"noteNumber":69,"velocity":52,"programNumber":45},{"time":260444.18400000042,"duration":222.22200000000885,"noteNumber":67,"velocity":52,"programNumber":45},{"time":260666.40600000042,"duration":222.22200000000885,"noteNumber":66,"velocity":54,"programNumber":45},{"time":260888.62800000043,"duration":222.22200000000885,"noteNumber":64,"velocity":55,"programNumber":45},{"time":261110.85000000044,"duration":222.22200000000885,"noteNumber":66,"velocity":55,"programNumber":45},{"time":261333.07200000045,"duration":1111.109999999986,"noteNumber":67,"velocity":85,"programNumber":45},{"time":261333.07200000045,"duration":1111.109999999986,"noteNumber":55,"velocity":85,"programNumber":45},{"time":262444.18200000044,"duration":55.555500000016764,"noteNumber":67,"velocity":61,"programNumber":45},{"time":262499.73750000045,"duration":55.555500000016764,"noteNumber":69,"velocity":61,"programNumber":45},{"time":262555.29300000047,"duration":55.555500000016764,"noteNumber":66,"velocity":61,"programNumber":45},{"time":262610.8485000005,"duration":55.555500000016764,"noteNumber":67,"velocity":61,"programNumber":45},{"time":262666.4040000005,"duration":222.22200000000885,"noteNumber":69,"velocity":61,"programNumber":45},{"time":262888.6260000005,"duration":222.22200000000885,"noteNumber":66,"velocity":61,"programNumber":45},{"time":263110.8480000005,"duration":1111.109999999986,"noteNumber":71,"velocity":91,"programNumber":45},{"time":264221.9580000005,"duration":55.555500000016764,"noteNumber":71,"velocity":61,"programNumber":45},{"time":264277.5135000005,"duration":55.555500000016764,"noteNumber":72,"velocity":61,"programNumber":45},{"time":264333.06900000054,"duration":55.555500000016764,"noteNumber":69,"velocity":61,"programNumber":45},{"time":264388.62450000056,"duration":55.555500000016764,"noteNumber":71,"velocity":61,"programNumber":45},{"time":264444.1800000006,"duration":222.22200000000885,"noteNumber":72,"velocity":61,"programNumber":45},{"time":264666.4020000006,"duration":222.22200000000885,"noteNumber":69,"velocity":61,"programNumber":45},{"time":264888.6240000006,"duration":74.07400000002235,"noteNumber":74,"velocity":51,"programNumber":45},{"time":264999.7350000006,"duration":74.07400000002235,"noteNumber":74,"velocity":56,"programNumber":45},{"time":265110.84600000066,"duration":74.07400000002235,"noteNumber":74,"velocity":59,"programNumber":45},{"time":265221.9570000007,"duration":74.07400000002235,"noteNumber":74,"velocity":56,"programNumber":45},{"time":265333.0680000007,"duration":74.07400000002235,"noteNumber":74,"velocity":56,"programNumber":45},{"time":265444.17900000076,"duration":74.07400000002235,"noteNumber":74,"velocity":56,"programNumber":45},{"time":265555.2900000008,"duration":74.07400000002235,"noteNumber":74,"velocity":56,"programNumber":45},{"time":265666.4010000008,"duration":74.07400000002235,"noteNumber":74,"velocity":56,"programNumber":45},{"time":265777.51200000086,"duration":74.07400000002235,"noteNumber":76,"velocity":56,"programNumber":45},{"time":265888.6230000009,"duration":74.07400000002235,"noteNumber":76,"velocity":56,"programNumber":45},{"time":265999.7340000009,"duration":74.07400000002235,"noteNumber":76,"velocity":56,"programNumber":45},{"time":266110.84500000096,"duration":74.07400000002235,"noteNumber":76,"velocity":56,"programNumber":45},{"time":266221.956000001,"duration":74.07400000002235,"noteNumber":78,"velocity":56,"programNumber":45},{"time":266333.067000001,"duration":74.07400000002235,"noteNumber":78,"velocity":56,"programNumber":45},{"time":266444.17800000106,"duration":74.07400000002235,"noteNumber":78,"velocity":57,"programNumber":45},{"time":266555.2890000011,"duration":74.07400000002235,"noteNumber":78,"velocity":59,"programNumber":45},{"time":266666.40000000113,"duration":74.07400000002235,"noteNumber":79,"velocity":62,"programNumber":45},{"time":266777.51100000116,"duration":74.07400000002235,"noteNumber":79,"velocity":65,"programNumber":45},{"time":266888.6220000012,"duration":74.07400000002235,"noteNumber":79,"velocity":66,"programNumber":45},{"time":266999.73300000123,"duration":74.07400000002235,"noteNumber":79,"velocity":66,"programNumber":45},{"time":267110.84400000126,"duration":74.07400000002235,"noteNumber":81,"velocity":66,"programNumber":45},{"time":267221.9550000013,"duration":74.07400000002235,"noteNumber":81,"velocity":66,"programNumber":45},{"time":267333.06600000133,"duration":74.07400000002235,"noteNumber":81,"velocity":66,"programNumber":45},{"time":267444.17700000136,"duration":74.07400000002235,"noteNumber":81,"velocity":68,"programNumber":45},{"time":267555.2880000014,"duration":74.07400000002235,"noteNumber":83,"velocity":68,"programNumber":45},{"time":267666.39900000143,"duration":74.07400000002235,"noteNumber":83,"velocity":70,"programNumber":45},{"time":267777.51000000146,"duration":74.07400000002235,"noteNumber":83,"velocity":70,"programNumber":45},{"time":267888.6210000015,"duration":74.07400000002235,"noteNumber":83,"velocity":71,"programNumber":45},{"time":267999.73200000153,"duration":74.07400000002235,"noteNumber":85,"velocity":71,"programNumber":45},{"time":268110.84300000157,"duration":74.07400000002235,"noteNumber":85,"velocity":73,"programNumber":45},{"time":268221.9540000016,"duration":74.07400000002235,"noteNumber":85,"velocity":74,"programNumber":45},{"time":268333.06500000163,"duration":74.07400000002235,"noteNumber":85,"velocity":74,"programNumber":45},{"time":268444.17600000167,"duration":666.6660000000265,"noteNumber":86,"velocity":85,"programNumber":45},{"time":269110.8420000017,"duration":222.22200000000885,"noteNumber":81,"velocity":85,"programNumber":45},{"time":269333.0640000017,"duration":333.33299999998417,"noteNumber":85,"velocity":85,"programNumber":45},{"time":269666.3970000017,"duration":111.11099999997532,"noteNumber":81,"velocity":85,"programNumber":45},{"time":269777.50800000166,"duration":333.33299999998417,"noteNumber":85,"velocity":85,"programNumber":45},{"time":270110.84100000164,"duration":111.11099999997532,"noteNumber":81,"velocity":85,"programNumber":45},{"time":270221.9520000016,"duration":666.6660000000265,"noteNumber":86,"velocity":85,"programNumber":45},{"time":270888.61800000165,"duration":222.22200000000885,"noteNumber":81,"velocity":85,"programNumber":45},{"time":271110.84000000166,"duration":333.33299999998417,"noteNumber":85,"velocity":85,"programNumber":45},{"time":271444.17300000164,"duration":111.11099999997532,"noteNumber":81,"velocity":85,"programNumber":45},{"time":271555.2840000016,"duration":333.33299999998417,"noteNumber":85,"velocity":85,"programNumber":45},{"time":271888.6170000016,"duration":111.11099999997532,"noteNumber":81,"velocity":85,"programNumber":45},{"time":271999.7280000016,"duration":111.11099999997532,"noteNumber":86,"velocity":100,"programNumber":45},{"time":272221.9500000015,"duration":111.11099999997532,"noteNumber":81,"velocity":100,"programNumber":45},{"time":272444.1720000015,"duration":111.11099999997532,"noteNumber":85,"velocity":100,"programNumber":45},{"time":272666.3940000014,"duration":111.11099999997532,"noteNumber":81,"velocity":100,"programNumber":45},{"time":272888.6160000014,"duration":111.11099999997532,"noteNumber":86,"velocity":100,"programNumber":45},{"time":273110.8380000013,"duration":111.11099999997532,"noteNumber":81,"velocity":100,"programNumber":45},{"time":273333.0600000013,"duration":111.11099999997532,"noteNumber":85,"velocity":100,"programNumber":45},{"time":273555.2820000012,"duration":111.11099999997532,"noteNumber":81,"velocity":100,"programNumber":45},{"time":273777.5040000012,"duration":166.66649999999208,"noteNumber":86,"velocity":85,"programNumber":45},{"time":273999.7260000012,"duration":166.66649999999208,"noteNumber":62,"velocity":85,"programNumber":45},{"time":274221.9480000012,"duration":166.66649999999208,"noteNumber":62,"velocity":85,"programNumber":45},{"time":274444.1700000012,"duration":166.66649999999208,"noteNumber":62,"velocity":85,"programNumber":45},{"time":274666.3920000012,"duration":444.4440000000177,"noteNumber":62,"velocity":85,"programNumber":45},{"time":275555.28000000125,"duration":666.6660000000265,"noteNumber":74,"velocity":46,"programNumber":45},{"time":276221.9460000013,"duration":74.07400000002235,"noteNumber":72,"velocity":47,"programNumber":45},{"time":276296.0200000013,"duration":74.07400000002235,"noteNumber":71,"velocity":47,"programNumber":45},{"time":276370.0940000013,"duration":74.07400000002235,"noteNumber":69,"velocity":47,"programNumber":45},{"time":276444.16800000134,"duration":222.22200000000885,"noteNumber":67,"velocity":47,"programNumber":45},{"time":276888.61200000136,"duration":222.22200000000885,"noteNumber":76,"velocity":47,"programNumber":45},{"time":277333.0560000014,"duration":222.22200000000885,"noteNumber":72,"velocity":46,"programNumber":45},{"time":277777.5000000014,"duration":222.22200000000885,"noteNumber":69,"velocity":43,"programNumber":45},{"time":278221.9440000014,"duration":222.22200000000885,"noteNumber":74,"velocity":59,"programNumber":45},{"time":279110.83200000145,"duration":666.6660000000265,"noteNumber":83,"velocity":55,"programNumber":45},{"time":279777.4980000015,"duration":74.07400000002235,"noteNumber":81,"velocity":55,"programNumber":45},{"time":279851.5720000015,"duration":74.07400000002235,"noteNumber":79,"velocity":55,"programNumber":45},{"time":279925.6460000015,"duration":74.07400000002235,"noteNumber":78,"velocity":55,"programNumber":45},{"time":279999.72000000154,"duration":222.22200000000885,"noteNumber":76,"velocity":55,"programNumber":45},{"time":280444.16400000156,"duration":222.22200000000885,"noteNumber":84,"velocity":55,"programNumber":45},{"time":280888.6080000016,"duration":888.8879999999772,"noteNumber":83,"velocity":55,"programNumber":45},{"time":281777.49600000156,"duration":444.4440000000177,"noteNumber":81,"velocity":47,"programNumber":45},{"time":282888.6060000016,"duration":111.11099999997532,"noteNumber":86,"velocity":55,"programNumber":45},{"time":283110.82800000155,"duration":111.11099999997532,"noteNumber":86,"velocity":55,"programNumber":45},{"time":283333.0500000015,"duration":111.11099999997532,"noteNumber":86,"velocity":55,"programNumber":45},{"time":283555.27200000145,"duration":111.11099999997532,"noteNumber":86,"velocity":55,"programNumber":45},{"time":283777.4940000014,"duration":111.11099999997532,"noteNumber":86,"velocity":55,"programNumber":45},{"time":283999.71600000135,"duration":111.11099999997532,"noteNumber":86,"velocity":55,"programNumber":45},{"time":284221.9380000013,"duration":111.11099999997532,"noteNumber":86,"velocity":55,"programNumber":45},{"time":284444.16000000125,"duration":111.11099999997532,"noteNumber":86,"velocity":55,"programNumber":45},{"time":284666.3820000012,"duration":111.11099999997532,"noteNumber":86,"velocity":55,"programNumber":45},{"time":284888.60400000116,"duration":111.11099999997532,"noteNumber":86,"velocity":55,"programNumber":45},{"time":285110.8260000011,"duration":111.11099999997532,"noteNumber":86,"velocity":55,"programNumber":45},{"time":285333.04800000106,"duration":222.22200000000885,"noteNumber":86,"velocity":55,"programNumber":45},{"time":285555.27000000107,"duration":222.22200000000885,"noteNumber":84,"velocity":55,"programNumber":45},{"time":285777.4920000011,"duration":222.22200000000885,"noteNumber":79,"velocity":55,"programNumber":45},{"time":285999.7140000011,"duration":222.22200000000885,"noteNumber":78,"velocity":55,"programNumber":45},{"time":286221.9360000011,"duration":222.22200000000885,"noteNumber":78,"velocity":55,"programNumber":45},{"time":286444.1580000011,"duration":222.22200000000885,"noteNumber":79,"velocity":65,"programNumber":45},{"time":286888.6020000011,"duration":111.11099999997532,"noteNumber":76,"velocity":55,"programNumber":45},{"time":287110.82400000107,"duration":222.22200000000885,"noteNumber":76,"velocity":55,"programNumber":45},{"time":287333.0460000011,"duration":222.22200000000885,"noteNumber":74,"velocity":55,"programNumber":45},{"time":287777.4900000011,"duration":166.66649999999208,"noteNumber":66,"velocity":55,"programNumber":45},{"time":287999.7120000011,"duration":444.4440000000177,"noteNumber":67,"velocity":67,"programNumber":45},{"time":288666.37800000113,"duration":111.11099999997532,"noteNumber":74,"velocity":55,"programNumber":45},{"time":288888.6000000011,"duration":222.22200000000885,"noteNumber":79,"velocity":55,"programNumber":45},{"time":289110.8220000011,"duration":222.22200000000885,"noteNumber":78,"velocity":55,"programNumber":45},{"time":289333.0440000011,"duration":222.22200000000885,"noteNumber":76,"velocity":55,"programNumber":45},{"time":289555.2660000011,"duration":222.22200000000885,"noteNumber":74,"velocity":55,"programNumber":45},{"time":289777.4880000011,"duration":55.555500000016764,"noteNumber":76,"velocity":55,"programNumber":45},{"time":289833.04350000113,"duration":55.555500000016764,"noteNumber":78,"velocity":55,"programNumber":45},{"time":289888.59900000115,"duration":55.555500000016764,"noteNumber":76,"velocity":55,"programNumber":45},{"time":289944.15450000117,"duration":55.555500000016764,"noteNumber":78,"velocity":55,"programNumber":45},{"time":289999.7100000012,"duration":222.22200000000885,"noteNumber":74,"velocity":55,"programNumber":45},{"time":290444.1540000012,"duration":111.11099999997532,"noteNumber":74,"velocity":55,"programNumber":45},{"time":290666.37600000115,"duration":111.11099999997532,"noteNumber":74,"velocity":55,"programNumber":45},{"time":290888.5980000011,"duration":111.11099999997532,"noteNumber":74,"velocity":55,"programNumber":45},{"time":291110.82000000105,"duration":111.11099999997532,"noteNumber":74,"velocity":55,"programNumber":45},{"time":291333.042000001,"duration":111.11099999997532,"noteNumber":74,"velocity":55,"programNumber":45},{"time":291555.26400000096,"duration":55.555500000016764,"noteNumber":76,"velocity":55,"programNumber":45},{"time":291610.819500001,"duration":55.555500000016764,"noteNumber":78,"velocity":55,"programNumber":45},{"time":291666.375000001,"duration":55.555500000016764,"noteNumber":76,"velocity":55,"programNumber":45},{"time":291721.930500001,"duration":55.555500000016764,"noteNumber":78,"velocity":55,"programNumber":45},{"time":291777.486000001,"duration":222.22200000000885,"noteNumber":74,"velocity":55,"programNumber":45},{"time":292221.93000000104,"duration":166.66649999999208,"noteNumber":74,"velocity":55,"programNumber":45},{"time":292444.15200000105,"duration":222.22200000000885,"noteNumber":79,"velocity":55,"programNumber":45},{"time":292666.37400000106,"duration":222.22200000000885,"noteNumber":78,"velocity":55,"programNumber":45},{"time":292888.59600000107,"duration":222.22200000000885,"noteNumber":76,"velocity":55,"programNumber":45},{"time":293110.8180000011,"duration":222.22200000000885,"noteNumber":74,"velocity":55,"programNumber":45},{"time":293333.0400000011,"duration":55.555500000016764,"noteNumber":76,"velocity":55,"programNumber":45},{"time":293388.5955000011,"duration":55.555500000016764,"noteNumber":78,"velocity":55,"programNumber":45},{"time":293444.1510000011,"duration":55.555500000016764,"noteNumber":76,"velocity":55,"programNumber":45},{"time":293499.70650000114,"duration":55.555500000016764,"noteNumber":78,"velocity":55,"programNumber":45},{"time":293555.26200000115,"duration":222.22200000000885,"noteNumber":74,"velocity":55,"programNumber":45},{"time":293999.70600000117,"duration":111.11099999997532,"noteNumber":74,"velocity":55,"programNumber":45},{"time":294221.9280000011,"duration":111.11099999997532,"noteNumber":74,"velocity":55,"programNumber":45},{"time":294444.1500000011,"duration":111.11099999997532,"noteNumber":74,"velocity":55,"programNumber":45},{"time":294666.372000001,"duration":111.11099999997532,"noteNumber":74,"velocity":55,"programNumber":45},{"time":294888.594000001,"duration":111.11099999997532,"noteNumber":74,"velocity":55,"programNumber":45},{"time":295110.8160000009,"duration":55.555500000016764,"noteNumber":76,"velocity":55,"programNumber":45},{"time":295166.37150000094,"duration":55.555500000016764,"noteNumber":78,"velocity":55,"programNumber":45},{"time":295221.92700000096,"duration":55.555500000016764,"noteNumber":76,"velocity":55,"programNumber":45},{"time":295277.482500001,"duration":55.555500000016764,"noteNumber":78,"velocity":55,"programNumber":45},{"time":295333.038000001,"duration":222.22200000000885,"noteNumber":74,"velocity":55,"programNumber":45},{"time":295999.704000001,"duration":629.6290000000154,"noteNumber":76,"velocity":83,"programNumber":45},{"time":295999.704000001,"duration":629.6290000000154,"noteNumber":64,"velocity":83,"programNumber":45},{"time":296666.37000000104,"duration":74.07400000002235,"noteNumber":74,"velocity":82,"programNumber":45},{"time":296740.44400000107,"duration":74.07400000002235,"noteNumber":72,"velocity":82,"programNumber":45},{"time":296814.5180000011,"duration":74.07400000002235,"noteNumber":71,"velocity":82,"programNumber":45},{"time":296888.5920000011,"duration":444.4440000000177,"noteNumber":72,"velocity":83,"programNumber":45},{"time":297777.48000000115,"duration":629.6290000000154,"noteNumber":62,"velocity":85,"programNumber":45},{"time":297777.48000000115,"duration":629.6290000000154,"noteNumber":74,"velocity":85,"programNumber":45},{"time":298444.1460000012,"duration":74.07400000002235,"noteNumber":72,"velocity":77,"programNumber":45},{"time":298518.2200000012,"duration":74.07400000002235,"noteNumber":71,"velocity":79,"programNumber":45},{"time":298592.2940000012,"duration":74.07400000002235,"noteNumber":69,"velocity":83,"programNumber":45},{"time":298666.36800000124,"duration":444.4440000000177,"noteNumber":71,"velocity":88,"programNumber":45},{"time":299555.2560000013,"duration":222.22200000000885,"noteNumber":76,"velocity":85,"programNumber":45},{"time":299777.4780000013,"duration":111.11099999997532,"noteNumber":78,"velocity":85,"programNumber":45},{"time":299888.58900000126,"duration":111.11099999997532,"noteNumber":79,"velocity":85,"programNumber":45},{"time":299999.70000000123,"duration":166.66649999999208,"noteNumber":78,"velocity":85,"programNumber":45},{"time":300221.92200000124,"duration":111.11099999997532,"noteNumber":76,"velocity":85,"programNumber":45},{"time":300444.1440000012,"duration":222.22200000000885,"noteNumber":76,"velocity":85,"programNumber":45},{"time":300666.3660000012,"duration":166.66649999999208,"noteNumber":74,"velocity":85,"programNumber":45},{"time":300888.5880000012,"duration":111.11099999997532,"noteNumber":71,"velocity":85,"programNumber":45},{"time":301110.81000000116,"duration":111.11099999997532,"noteNumber":74,"velocity":85,"programNumber":45},{"time":301333.0320000011,"duration":222.22200000000885,"noteNumber":74,"velocity":85,"programNumber":45},{"time":301555.2540000011,"duration":166.66649999999208,"noteNumber":72,"velocity":85,"programNumber":45},{"time":301777.47600000113,"duration":111.11099999997532,"noteNumber":71,"velocity":85,"programNumber":45},{"time":301999.6980000011,"duration":111.11099999997532,"noteNumber":69,"velocity":85,"programNumber":45},{"time":302221.92000000103,"duration":444.4440000000177,"noteNumber":67,"velocity":85,"programNumber":45},{"time":302888.58600000106,"duration":111.11099999997532,"noteNumber":74,"velocity":50,"programNumber":45},{"time":303110.808000001,"duration":222.22200000000885,"noteNumber":79,"velocity":50,"programNumber":45},{"time":303333.030000001,"duration":222.22200000000885,"noteNumber":78,"velocity":50,"programNumber":45},{"time":303555.252000001,"duration":222.22200000000885,"noteNumber":76,"velocity":53,"programNumber":45},{"time":303777.47400000104,"duration":222.22200000000885,"noteNumber":74,"velocity":56,"programNumber":45},{"time":303999.69600000104,"duration":55.555500000016764,"noteNumber":76,"velocity":58,"programNumber":45},{"time":304055.25150000106,"duration":55.555500000016764,"noteNumber":78,"velocity":58,"programNumber":45},{"time":304110.8070000011,"duration":55.555500000016764,"noteNumber":76,"velocity":59,"programNumber":45},{"time":304166.3625000011,"duration":55.555500000016764,"noteNumber":78,"velocity":59,"programNumber":45},{"time":304221.9180000011,"duration":222.22200000000885,"noteNumber":74,"velocity":61,"programNumber":45},{"time":304666.3620000011,"duration":111.11099999997532,"noteNumber":74,"velocity":56,"programNumber":45},{"time":304888.5840000011,"duration":111.11099999997532,"noteNumber":74,"velocity":55,"programNumber":45},{"time":305110.80600000103,"duration":111.11099999997532,"noteNumber":74,"velocity":55,"programNumber":45},{"time":305333.028000001,"duration":111.11099999997532,"noteNumber":74,"velocity":53,"programNumber":45},{"time":305555.25000000093,"duration":111.11099999997532,"noteNumber":74,"velocity":52,"programNumber":45},{"time":305777.4720000009,"duration":55.555500000016764,"noteNumber":76,"velocity":55,"programNumber":45},{"time":305833.0275000009,"duration":55.555500000016764,"noteNumber":78,"velocity":55,"programNumber":45},{"time":305888.5830000009,"duration":55.555500000016764,"noteNumber":76,"velocity":55,"programNumber":45},{"time":305944.13850000093,"duration":55.555500000016764,"noteNumber":78,"velocity":55,"programNumber":45},{"time":305999.69400000095,"duration":222.22200000000885,"noteNumber":74,"velocity":55,"programNumber":45},{"time":306444.13800000097,"duration":166.66649999999208,"noteNumber":74,"velocity":55,"programNumber":45},{"time":306666.360000001,"duration":222.22200000000885,"noteNumber":79,"velocity":55,"programNumber":45},{"time":306888.582000001,"duration":222.22200000000885,"noteNumber":78,"velocity":55,"programNumber":45},{"time":307110.804000001,"duration":222.22200000000885,"noteNumber":76,"velocity":55,"programNumber":45},{"time":307333.026000001,"duration":222.22200000000885,"noteNumber":74,"velocity":56,"programNumber":45},{"time":307555.248000001,"duration":55.555500000016764,"noteNumber":76,"velocity":65,"programNumber":45},{"time":307610.803500001,"duration":55.555500000016764,"noteNumber":78,"velocity":65,"programNumber":45},{"time":307666.35900000104,"duration":55.555500000016764,"noteNumber":76,"velocity":65,"programNumber":45},{"time":307721.91450000106,"duration":55.555500000016764,"noteNumber":78,"velocity":65,"programNumber":45},{"time":307777.4700000011,"duration":222.22200000000885,"noteNumber":74,"velocity":64,"programNumber":45},{"time":308221.9140000011,"duration":111.11099999997532,"noteNumber":74,"velocity":55,"programNumber":45},{"time":308444.13600000105,"duration":111.11099999997532,"noteNumber":74,"velocity":55,"programNumber":45},{"time":308666.358000001,"duration":111.11099999997532,"noteNumber":74,"velocity":55,"programNumber":45},{"time":308888.58000000095,"duration":111.11099999997532,"noteNumber":74,"velocity":55,"programNumber":45},{"time":309110.8020000009,"duration":111.11099999997532,"noteNumber":74,"velocity":55,"programNumber":45},{"time":309333.02400000085,"duration":55.555500000016764,"noteNumber":76,"velocity":59,"programNumber":45},{"time":309388.57950000087,"duration":55.555500000016764,"noteNumber":78,"velocity":59,"programNumber":45},{"time":309444.1350000009,"duration":55.555500000016764,"noteNumber":76,"velocity":59,"programNumber":45},{"time":309499.6905000009,"duration":55.555500000016764,"noteNumber":78,"velocity":59,"programNumber":45},{"time":309555.2460000009,"duration":222.22200000000885,"noteNumber":74,"velocity":59,"programNumber":45},{"time":310221.91200000094,"duration":629.6290000000154,"noteNumber":88,"velocity":85,"programNumber":45},{"time":310888.57800000097,"duration":74.07400000002235,"noteNumber":86,"velocity":85,"programNumber":45},{"time":310962.652000001,"duration":74.07400000002235,"noteNumber":84,"velocity":85,"programNumber":45},{"time":311036.726000001,"duration":74.07400000002235,"noteNumber":83,"velocity":85,"programNumber":45},{"time":311110.80000000104,"duration":444.4440000000177,"noteNumber":84,"velocity":85,"programNumber":45},{"time":311999.6880000011,"duration":629.6290000000154,"noteNumber":74,"velocity":85,"programNumber":45},{"time":311999.6880000011,"duration":629.6290000000154,"noteNumber":86,"velocity":85,"programNumber":45},{"time":312666.3540000011,"duration":74.07400000002235,"noteNumber":84,"velocity":82,"programNumber":45},{"time":312740.4280000011,"duration":74.07400000002235,"noteNumber":83,"velocity":83,"programNumber":45},{"time":312814.50200000114,"duration":74.07400000002235,"noteNumber":81,"velocity":83,"programNumber":45},{"time":312888.57600000117,"duration":444.4440000000177,"noteNumber":83,"velocity":86,"programNumber":45},{"time":313777.4640000012,"duration":222.22200000000885,"noteNumber":76,"velocity":85,"programNumber":45},{"time":313999.6860000012,"duration":111.11099999997532,"noteNumber":78,"velocity":85,"programNumber":45},{"time":314110.7970000012,"duration":111.11099999997532,"noteNumber":79,"velocity":85,"programNumber":45},{"time":314221.90800000116,"duration":166.66649999999208,"noteNumber":78,"velocity":85,"programNumber":45},{"time":314444.13000000117,"duration":111.11099999997532,"noteNumber":76,"velocity":85,"programNumber":45},{"time":314666.3520000011,"duration":111.11099999997532,"noteNumber":74,"velocity":85,"programNumber":45},{"time":314888.57400000107,"duration":111.11099999997532,"noteNumber":79,"velocity":85,"programNumber":45},{"time":315110.796000001,"duration":111.11099999997532,"noteNumber":83,"velocity":85,"programNumber":45},{"time":315333.018000001,"duration":111.11099999997532,"noteNumber":86,"velocity":85,"programNumber":45},{"time":315555.2400000009,"duration":222.22200000000885,"noteNumber":86,"velocity":85,"programNumber":45},{"time":315777.46200000093,"duration":166.66649999999208,"noteNumber":84,"velocity":85,"programNumber":45},{"time":315999.68400000094,"duration":111.11099999997532,"noteNumber":83,"velocity":85,"programNumber":45},{"time":316221.9060000009,"duration":111.11099999997532,"noteNumber":81,"velocity":85,"programNumber":45},{"time":316444.12800000084,"duration":166.66649999999208,"noteNumber":79,"velocity":94,"programNumber":45},{"time":316666.35000000085,"duration":166.66649999999208,"noteNumber":62,"velocity":85,"programNumber":45},{"time":316888.57200000086,"duration":166.66649999999208,"noteNumber":64,"velocity":85,"programNumber":45},{"time":317110.79400000087,"duration":166.66649999999208,"noteNumber":66,"velocity":85,"programNumber":45},{"time":317333.0160000009,"duration":166.66649999999208,"noteNumber":67,"velocity":85,"programNumber":45},{"time":317555.2380000009,"duration":166.66649999999208,"noteNumber":67,"velocity":85,"programNumber":45},{"time":317777.4600000009,"duration":55.555500000016764,"noteNumber":69,"velocity":85,"programNumber":45},{"time":317833.0155000009,"duration":55.555500000016764,"noteNumber":71,"velocity":85,"programNumber":45},{"time":317888.5710000009,"duration":55.555500000016764,"noteNumber":69,"velocity":85,"programNumber":45},{"time":317944.12650000094,"duration":55.555500000016764,"noteNumber":71,"velocity":85,"programNumber":45},{"time":317999.68200000096,"duration":111.11099999997532,"noteNumber":67,"velocity":85,"programNumber":45},{"time":318110.79300000094,"duration":111.11099999997532,"noteNumber":69,"velocity":85,"programNumber":45},{"time":318221.9040000009,"duration":166.66649999999208,"noteNumber":71,"velocity":85,"programNumber":45},{"time":318444.1260000009,"duration":166.66649999999208,"noteNumber":66,"velocity":85,"programNumber":45},{"time":318666.34800000093,"duration":166.66649999999208,"noteNumber":67,"velocity":85,"programNumber":45},{"time":318888.57000000094,"duration":166.66649999999208,"noteNumber":69,"velocity":85,"programNumber":45},{"time":319110.79200000095,"duration":166.66649999999208,"noteNumber":71,"velocity":85,"programNumber":45},{"time":319333.01400000096,"duration":166.66649999999208,"noteNumber":71,"velocity":85,"programNumber":45},{"time":319555.23600000096,"duration":55.555500000016764,"noteNumber":72,"velocity":86,"programNumber":45},{"time":319610.791500001,"duration":55.555500000016764,"noteNumber":74,"velocity":86,"programNumber":45},{"time":319666.347000001,"duration":55.555500000016764,"noteNumber":72,"velocity":86,"programNumber":45},{"time":319721.902500001,"duration":55.555500000016764,"noteNumber":74,"velocity":86,"programNumber":45},{"time":319777.45800000103,"duration":111.11099999997532,"noteNumber":71,"velocity":86,"programNumber":45},{"time":319888.569000001,"duration":111.11099999997532,"noteNumber":72,"velocity":89,"programNumber":45},{"time":319999.680000001,"duration":166.66649999999208,"noteNumber":74,"velocity":89,"programNumber":45},{"time":320221.902000001,"duration":166.66649999999208,"noteNumber":74,"velocity":91,"programNumber":45},{"time":320444.124000001,"duration":55.555500000016764,"noteNumber":75,"velocity":91,"programNumber":45},{"time":320499.679500001,"duration":55.555500000016764,"noteNumber":76,"velocity":91,"programNumber":45},{"time":320555.23500000103,"duration":55.555500000016764,"noteNumber":75,"velocity":91,"programNumber":45},{"time":320610.79050000105,"duration":55.555500000016764,"noteNumber":76,"velocity":92,"programNumber":45},{"time":320666.34600000107,"duration":111.11099999997532,"noteNumber":73,"velocity":94,"programNumber":45},{"time":320777.45700000104,"duration":111.11099999997532,"noteNumber":75,"velocity":97,"programNumber":45},{"time":320888.568000001,"duration":444.4440000000177,"noteNumber":76,"velocity":98,"programNumber":45},{"time":321777.45600000105,"duration":666.6660000000265,"noteNumber":64,"velocity":61,"programNumber":45},{"time":322444.1220000011,"duration":166.66649999999208,"noteNumber":69,"velocity":61,"programNumber":45},{"time":322666.3440000011,"duration":222.22200000000885,"noteNumber":67,"velocity":61,"programNumber":45},{"time":322888.5660000011,"duration":222.22200000000885,"noteNumber":66,"velocity":62,"programNumber":45},{"time":323110.7880000011,"duration":222.22200000000885,"noteNumber":64,"velocity":62,"programNumber":45},{"time":323333.0100000011,"duration":166.66649999999208,"noteNumber":62,"velocity":62,"programNumber":45},{"time":323555.2320000011,"duration":222.22200000000885,"noteNumber":74,"velocity":62,"programNumber":45},{"time":323777.45400000113,"duration":222.22200000000885,"noteNumber":73,"velocity":62,"programNumber":45},{"time":323999.67600000114,"duration":222.22200000000885,"noteNumber":72,"velocity":62,"programNumber":45},{"time":324221.89800000115,"duration":222.22200000000885,"noteNumber":71,"velocity":62,"programNumber":45},{"time":324444.12000000116,"duration":222.22200000000885,"noteNumber":74,"velocity":61,"programNumber":45},{"time":324666.34200000117,"duration":222.22200000000885,"noteNumber":73,"velocity":61,"programNumber":45},{"time":324888.5640000012,"duration":222.22200000000885,"noteNumber":72,"velocity":61,"programNumber":45},{"time":325110.7860000012,"duration":166.66649999999208,"noteNumber":71,"velocity":59,"programNumber":45},{"time":325333.0080000012,"duration":666.6660000000265,"noteNumber":64,"velocity":61,"programNumber":45},{"time":325999.6740000012,"duration":166.66649999999208,"noteNumber":69,"velocity":67,"programNumber":45},{"time":326221.89600000123,"duration":222.22200000000885,"noteNumber":67,"velocity":70,"programNumber":45},{"time":326444.11800000124,"duration":222.22200000000885,"noteNumber":66,"velocity":70,"programNumber":45},{"time":326666.34000000125,"duration":222.22200000000885,"noteNumber":64,"velocity":70,"programNumber":45},{"time":326888.56200000126,"duration":166.66649999999208,"noteNumber":62,"velocity":70,"programNumber":45},{"time":327110.78400000127,"duration":222.22200000000885,"noteNumber":74,"velocity":70,"programNumber":45},{"time":327333.0060000013,"duration":222.22200000000885,"noteNumber":76,"velocity":70,"programNumber":45},{"time":327555.2280000013,"duration":222.22200000000885,"noteNumber":78,"velocity":70,"programNumber":45},{"time":327777.4500000013,"duration":222.22200000000885,"noteNumber":79,"velocity":70,"programNumber":45},{"time":327999.6720000013,"duration":222.22200000000885,"noteNumber":74,"velocity":70,"programNumber":45},{"time":328221.8940000013,"duration":222.22200000000885,"noteNumber":76,"velocity":70,"programNumber":45},{"time":328444.1160000013,"duration":222.22200000000885,"noteNumber":78,"velocity":70,"programNumber":45},{"time":328666.3380000013,"duration":166.66649999999208,"noteNumber":79,"velocity":76,"programNumber":45},{"time":328888.56000000134,"duration":444.4440000000177,"noteNumber":81,"velocity":75,"programNumber":45},{"time":329777.4480000014,"duration":444.4440000000177,"noteNumber":86,"velocity":91,"programNumber":45},{"time":329777.4480000014,"duration":444.4440000000177,"noteNumber":74,"velocity":91,"programNumber":45},{"time":330666.3360000014,"duration":444.4440000000177,"noteNumber":79,"velocity":96,"programNumber":45},{"time":330666.3360000014,"duration":444.4440000000177,"noteNumber":71,"velocity":96,"programNumber":45},{"time":330666.3360000014,"duration":444.4440000000177,"noteNumber":62,"velocity":96,"programNumber":45},{"time":331333.00200000143,"duration":166.66649999999208,"noteNumber":74,"velocity":95,"programNumber":45},{"time":331555.22400000144,"duration":166.66649999999208,"noteNumber":71,"velocity":94,"programNumber":45},{"time":331777.44600000145,"duration":166.66649999999208,"noteNumber":67,"velocity":90,"programNumber":45},{"time":331999.66800000146,"duration":166.66649999999208,"noteNumber":71,"velocity":90,"programNumber":45},{"time":332221.89000000147,"duration":166.66649999999208,"noteNumber":74,"velocity":89,"programNumber":45},{"time":332444.1120000015,"duration":166.66649999999208,"noteNumber":79,"velocity":88,"programNumber":45},{"time":332666.3340000015,"duration":166.66649999999208,"noteNumber":74,"velocity":88,"programNumber":45},{"time":332888.5560000015,"duration":166.66649999999208,"noteNumber":79,"velocity":88,"programNumber":45},{"time":333110.7780000015,"duration":166.66649999999208,"noteNumber":83,"velocity":90,"programNumber":45},{"time":333333.0000000015,"duration":370.36999999999534,"noteNumber":86,"velocity":92,"programNumber":45},{"time":333777.44400000153,"duration":370.36999999999534,"noteNumber":78,"velocity":95,"programNumber":45},{"time":333777.44400000153,"duration":370.36999999999534,"noteNumber":69,"velocity":95,"programNumber":45},{"time":333777.44400000153,"duration":370.36999999999534,"noteNumber":62,"velocity":95,"programNumber":45},{"time":334221.88800000155,"duration":444.4440000000177,"noteNumber":79,"velocity":100,"programNumber":45},{"time":334221.88800000155,"duration":444.4440000000177,"noteNumber":71,"velocity":100,"programNumber":45},{"time":334221.88800000155,"duration":444.4440000000177,"noteNumber":62,"velocity":100,"programNumber":45},{"time":334888.5540000016,"duration":166.66649999999208,"noteNumber":74,"velocity":98,"programNumber":45},{"time":335110.7760000016,"duration":166.66649999999208,"noteNumber":71,"velocity":98,"programNumber":45},{"time":335332.9980000016,"duration":166.66649999999208,"noteNumber":67,"velocity":95,"programNumber":45},{"time":335555.2200000016,"duration":166.66649999999208,"noteNumber":71,"velocity":94,"programNumber":45},{"time":335777.4420000016,"duration":166.66649999999208,"noteNumber":74,"velocity":92,"programNumber":45},{"time":335999.6640000016,"duration":166.66649999999208,"noteNumber":79,"velocity":91,"programNumber":45},{"time":336221.8860000016,"duration":166.66649999999208,"noteNumber":74,"velocity":91,"programNumber":45},{"time":336444.10800000164,"duration":166.66649999999208,"noteNumber":79,"velocity":92,"programNumber":45},{"time":336666.33000000165,"duration":166.66649999999208,"noteNumber":83,"velocity":92,"programNumber":45},{"time":336888.55200000165,"duration":370.36999999999534,"noteNumber":86,"velocity":96,"programNumber":45},{"time":337332.9960000017,"duration":370.36999999999534,"noteNumber":78,"velocity":99,"programNumber":45},{"time":337332.9960000017,"duration":370.36999999999534,"noteNumber":69,"velocity":99,"programNumber":45},{"time":337332.9960000017,"duration":370.36999999999534,"noteNumber":62,"velocity":99,"programNumber":45},{"time":337777.4400000017,"duration":444.4440000000177,"noteNumber":79,"velocity":109,"programNumber":45},{"time":337777.4400000017,"duration":444.4440000000177,"noteNumber":71,"velocity":109,"programNumber":45},{"time":337777.4400000017,"duration":444.4440000000177,"noteNumber":62,"velocity":109,"programNumber":45},{"time":338666.3280000017,"duration":444.4440000000177,"noteNumber":79,"velocity":106,"programNumber":45},{"time":338666.3280000017,"duration":444.4440000000177,"noteNumber":71,"velocity":106,"programNumber":45},{"time":338666.3280000017,"duration":444.4440000000177,"noteNumber":62,"velocity":106,"programNumber":45},{"time":339555.21600000176,"duration":370.36999999999534,"noteNumber":79,"velocity":106,"programNumber":45},{"time":339555.21600000176,"duration":370.36999999999534,"noteNumber":71,"velocity":106,"programNumber":45},{"time":339555.21600000176,"duration":370.36999999999534,"noteNumber":62,"velocity":106,"programNumber":45},{"time":339999.6600000018,"duration":222.22200000000885,"noteNumber":67,"velocity":110,"programNumber":45},{"time":339999.6600000018,"duration":222.22200000000885,"noteNumber":55,"velocity":110,"programNumber":45},{"time":340332.99300000176,"duration":55.555500000016764,"noteNumber":67,"velocity":109,"programNumber":45},{"time":340332.99300000176,"duration":55.555500000016764,"noteNumber":55,"velocity":109,"programNumber":45},{"time":340444.1040000018,"duration":444.4440000000177,"noteNumber":67,"velocity":108,"programNumber":45},{"time":340444.1040000018,"duration":444.4440000000177,"noteNumber":55,"velocity":108,"programNumber":45}],[{"time":0,"duration":444.444,"noteNumber":67,"velocity":85,"programNumber":32},{"time":666.666,"duration":111.11099999999999,"noteNumber":62,"velocity":85,"programNumber":32},{"time":888.888,"duration":444.4440000000001,"noteNumber":67,"velocity":85,"programNumber":32},{"time":1555.554,"duration":111.1110000000001,"noteNumber":62,"velocity":85,"programNumber":32},{"time":1777.7760000000003,"duration":111.1110000000001,"noteNumber":67,"velocity":85,"programNumber":32},{"time":1999.9980000000005,"duration":111.11099999999988,"noteNumber":62,"velocity":85,"programNumber":32},{"time":2222.2200000000003,"duration":111.11099999999988,"noteNumber":67,"velocity":85,"programNumber":32},{"time":2444.442,"duration":111.11099999999988,"noteNumber":71,"velocity":85,"programNumber":32},{"time":2666.6639999999998,"duration":444.44399999999996,"noteNumber":74,"velocity":85,"programNumber":32},{"time":3555.5519999999997,"duration":444.44399999999996,"noteNumber":72,"velocity":85,"programNumber":32},{"time":4222.218,"duration":111.11099999999988,"noteNumber":69,"velocity":85,"programNumber":32},{"time":4444.44,"duration":444.4440000000004,"noteNumber":72,"velocity":85,"programNumber":32},{"time":5111.106,"duration":111.11099999999988,"noteNumber":69,"velocity":85,"programNumber":32},{"time":5333.3279999999995,"duration":111.11099999999988,"noteNumber":72,"velocity":85,"programNumber":32},{"time":5555.549999999999,"duration":111.11099999999988,"noteNumber":69,"velocity":85,"programNumber":32},{"time":5777.771999999999,"duration":111.11099999999988,"noteNumber":66,"velocity":85,"programNumber":32},{"time":5999.993999999999,"duration":111.11099999999988,"noteNumber":69,"velocity":85,"programNumber":32},{"time":6222.2159999999985,"duration":444.4440000000004,"noteNumber":62,"velocity":85,"programNumber":32},{"time":7111.103999999999,"duration":166.66650000000027,"noteNumber":67,"velocity":85,"programNumber":32},{"time":7333.326,"duration":166.66650000000027,"noteNumber":67,"velocity":85,"programNumber":32},{"time":7555.548000000001,"duration":166.66650000000027,"noteNumber":67,"velocity":85,"programNumber":32},{"time":7777.770000000001,"duration":166.66650000000027,"noteNumber":67,"velocity":85,"programNumber":32},{"time":7999.992000000002,"duration":166.66650000000027,"noteNumber":67,"velocity":85,"programNumber":32},{"time":8222.214000000002,"duration":166.66649999999936,"noteNumber":67,"velocity":85,"programNumber":32},{"time":8444.436000000002,"duration":166.66649999999936,"noteNumber":67,"velocity":85,"programNumber":32},{"time":8666.658000000001,"duration":166.66649999999936,"noteNumber":67,"velocity":85,"programNumber":32},{"time":8888.880000000001,"duration":166.66649999999936,"noteNumber":69,"velocity":85,"programNumber":32},{"time":9111.102,"duration":166.66649999999936,"noteNumber":69,"velocity":85,"programNumber":32},{"time":9333.324,"duration":166.66649999999936,"noteNumber":69,"velocity":85,"programNumber":32},{"time":9555.546,"duration":166.66649999999936,"noteNumber":69,"velocity":85,"programNumber":32},{"time":9777.768,"duration":222.22199999999975,"noteNumber":69,"velocity":85,"programNumber":32},{"time":9999.99,"duration":166.66649999999936,"noteNumber":72,"velocity":85,"programNumber":32},{"time":10222.212,"duration":222.22199999999975,"noteNumber":66,"velocity":85,"programNumber":32},{"time":10444.434,"duration":166.66649999999936,"noteNumber":69,"velocity":85,"programNumber":32},{"time":10666.655999999999,"duration":166.66649999999936,"noteNumber":67,"velocity":85,"programNumber":32},{"time":10888.877999999999,"duration":166.66649999999936,"noteNumber":67,"velocity":85,"programNumber":32},{"time":11111.099999999999,"duration":166.66649999999936,"noteNumber":67,"velocity":85,"programNumber":32},{"time":11333.321999999998,"duration":166.66649999999936,"noteNumber":67,"velocity":85,"programNumber":32},{"time":11555.543999999998,"duration":166.66649999999936,"noteNumber":67,"velocity":85,"programNumber":32},{"time":11777.765999999998,"duration":166.66649999999936,"noteNumber":67,"velocity":85,"programNumber":32},{"time":11999.987999999998,"duration":166.66649999999936,"noteNumber":67,"velocity":85,"programNumber":32},{"time":12222.209999999997,"duration":166.66649999999936,"noteNumber":67,"velocity":85,"programNumber":32},{"time":12444.431999999997,"duration":166.66649999999936,"noteNumber":69,"velocity":85,"programNumber":32},{"time":12666.653999999997,"duration":166.66649999999936,"noteNumber":69,"velocity":85,"programNumber":32},{"time":12888.875999999997,"duration":166.66649999999936,"noteNumber":69,"velocity":85,"programNumber":32},{"time":13111.097999999996,"duration":166.66649999999936,"noteNumber":69,"velocity":85,"programNumber":32},{"time":13333.319999999996,"duration":222.22199999999975,"noteNumber":69,"velocity":85,"programNumber":32},{"time":13555.541999999996,"duration":166.66649999999936,"noteNumber":72,"velocity":85,"programNumber":32},{"time":13777.763999999996,"duration":222.22199999999975,"noteNumber":66,"velocity":85,"programNumber":32},{"time":13999.985999999995,"duration":166.66649999999936,"noteNumber":69,"velocity":85,"programNumber":32},{"time":14222.207999999995,"duration":74.07400000000052,"noteNumber":62,"velocity":85,"programNumber":32},{"time":14333.318999999996,"duration":74.07400000000052,"noteNumber":62,"velocity":85,"programNumber":32},{"time":14444.429999999997,"duration":74.07400000000052,"noteNumber":62,"velocity":85,"programNumber":32},{"time":14555.540999999997,"duration":74.07400000000052,"noteNumber":62,"velocity":85,"programNumber":32},{"time":14666.651999999998,"duration":74.07400000000052,"noteNumber":62,"velocity":85,"programNumber":32},{"time":14777.762999999999,"duration":74.07400000000052,"noteNumber":62,"velocity":85,"programNumber":32},{"time":14888.874,"duration":74.07400000000052,"noteNumber":62,"velocity":85,"programNumber":32},{"time":14999.985,"duration":74.07400000000052,"noteNumber":62,"velocity":85,"programNumber":32},{"time":15111.096000000001,"duration":74.07400000000052,"noteNumber":62,"velocity":85,"programNumber":32},{"time":15222.207000000002,"duration":74.07400000000052,"noteNumber":62,"velocity":85,"programNumber":32},{"time":15333.318000000003,"duration":74.07400000000052,"noteNumber":62,"velocity":85,"programNumber":32},{"time":15444.429000000004,"duration":74.07400000000052,"noteNumber":62,"velocity":85,"programNumber":32},{"time":15555.540000000005,"duration":74.07400000000052,"noteNumber":62,"velocity":85,"programNumber":32},{"time":15666.651000000005,"duration":74.07400000000052,"noteNumber":62,"velocity":85,"programNumber":32},{"time":15777.762000000006,"duration":74.07400000000052,"noteNumber":62,"velocity":85,"programNumber":32},{"time":15888.873000000007,"duration":74.07400000000052,"noteNumber":62,"velocity":85,"programNumber":32},{"time":15999.984000000008,"duration":74.07400000000052,"noteNumber":62,"velocity":85,"programNumber":32},{"time":16111.095000000008,"duration":74.07400000000052,"noteNumber":62,"velocity":85,"programNumber":32},{"time":16222.20600000001,"duration":74.07400000000052,"noteNumber":62,"velocity":85,"programNumber":32},{"time":16333.31700000001,"duration":74.07400000000052,"noteNumber":62,"velocity":85,"programNumber":32},{"time":16444.42800000001,"duration":74.07400000000052,"noteNumber":62,"velocity":85,"programNumber":32},{"time":16555.53900000001,"duration":74.07400000000052,"noteNumber":62,"velocity":85,"programNumber":32},{"time":16666.650000000012,"duration":74.07400000000052,"noteNumber":62,"velocity":85,"programNumber":32},{"time":16777.761000000013,"duration":74.07400000000052,"noteNumber":62,"velocity":85,"programNumber":32},{"time":16888.872000000014,"duration":444.4439999999995,"noteNumber":62,"velocity":85,"programNumber":32},{"time":19555.536000000015,"duration":888.887999999999,"noteNumber":54,"velocity":47,"programNumber":32},{"time":20444.424000000014,"duration":888.887999999999,"noteNumber":55,"velocity":47,"programNumber":32},{"time":21333.312000000013,"duration":333.3329999999987,"noteNumber":60,"velocity":47,"programNumber":32},{"time":21777.756000000012,"duration":333.3329999999987,"noteNumber":60,"velocity":47,"programNumber":32},{"time":22222.20000000001,"duration":333.3329999999987,"noteNumber":57,"velocity":47,"programNumber":32},{"time":22666.64400000001,"duration":333.3329999999987,"noteNumber":50,"velocity":47,"programNumber":32},{"time":23111.08800000001,"duration":222.22200000000157,"noteNumber":50,"velocity":47,"programNumber":32},{"time":23555.532000000014,"duration":222.22200000000157,"noteNumber":62,"velocity":47,"programNumber":32},{"time":23999.976000000017,"duration":444.4439999999995,"noteNumber":62,"velocity":47,"programNumber":32},{"time":26666.640000000018,"duration":888.887999999999,"noteNumber":66,"velocity":47,"programNumber":32},{"time":27555.528000000017,"duration":888.887999999999,"noteNumber":67,"velocity":47,"programNumber":32},{"time":28444.416000000016,"duration":333.3329999999987,"noteNumber":60,"velocity":47,"programNumber":32},{"time":28888.860000000015,"duration":166.66649999999936,"noteNumber":60,"velocity":47,"programNumber":32},{"time":29111.082000000013,"duration":166.66649999999936,"noteNumber":60,"velocity":47,"programNumber":32},{"time":29333.30400000001,"duration":333.3329999999987,"noteNumber":57,"velocity":47,"programNumber":32},{"time":29777.74800000001,"duration":166.66649999999936,"noteNumber":57,"velocity":47,"programNumber":32},{"time":29999.97000000001,"duration":166.66649999999936,"noteNumber":57,"velocity":47,"programNumber":32},{"time":30222.192000000006,"duration":166.66649999999936,"noteNumber":55,"velocity":92,"programNumber":32},{"time":30444.414000000004,"duration":166.66649999999936,"noteNumber":55,"velocity":71,"programNumber":32},{"time":30666.636000000002,"duration":166.66649999999936,"noteNumber":55,"velocity":71,"programNumber":32},{"time":30888.858,"duration":166.66649999999936,"noteNumber":55,"velocity":71,"programNumber":32},{"time":31111.079999999998,"duration":166.66649999999936,"noteNumber":55,"velocity":55,"programNumber":32},{"time":31333.301999999996,"duration":166.66649999999936,"noteNumber":55,"velocity":50,"programNumber":32},{"time":31555.523999999994,"duration":166.66649999999936,"noteNumber":55,"velocity":50,"programNumber":32},{"time":31777.745999999992,"duration":166.66649999999936,"noteNumber":55,"velocity":50,"programNumber":32},{"time":31999.96799999999,"duration":166.66649999999936,"noteNumber":55,"velocity":91,"programNumber":32},{"time":32222.189999999988,"duration":166.66649999999936,"noteNumber":55,"velocity":65,"programNumber":32},{"time":32444.411999999986,"duration":166.66649999999936,"noteNumber":55,"velocity":65,"programNumber":32},{"time":32666.633999999984,"duration":166.66649999999936,"noteNumber":55,"velocity":65,"programNumber":32},{"time":32888.855999999985,"duration":166.66649999999936,"noteNumber":55,"velocity":46,"programNumber":32},{"time":33111.07799999999,"duration":166.66649999999936,"noteNumber":55,"velocity":46,"programNumber":32},{"time":33333.29999999999,"duration":166.66649999999936,"noteNumber":55,"velocity":46,"programNumber":32},{"time":33555.52199999999,"duration":166.66649999999936,"noteNumber":55,"velocity":46,"programNumber":32},{"time":33777.74399999999,"duration":166.66649999999936,"noteNumber":55,"velocity":59,"programNumber":32},{"time":33999.96599999999,"duration":166.66649999999936,"noteNumber":67,"velocity":41,"programNumber":32},{"time":34222.187999999995,"duration":166.66649999999936,"noteNumber":67,"velocity":46,"programNumber":32},{"time":34444.409999999996,"duration":166.66649999999936,"noteNumber":67,"velocity":49,"programNumber":32},{"time":34666.632,"duration":166.66649999999936,"noteNumber":67,"velocity":53,"programNumber":32},{"time":34888.854,"duration":166.66649999999936,"noteNumber":67,"velocity":56,"programNumber":32},{"time":35111.076,"duration":166.66649999999936,"noteNumber":69,"velocity":61,"programNumber":32},{"time":35333.298,"duration":166.66649999999936,"noteNumber":69,"velocity":64,"programNumber":32},{"time":35555.520000000004,"duration":166.66649999999936,"noteNumber":67,"velocity":68,"programNumber":32},{"time":35777.742000000006,"duration":166.66649999999936,"noteNumber":67,"velocity":71,"programNumber":32},{"time":35999.96400000001,"duration":166.66649999999936,"noteNumber":66,"velocity":76,"programNumber":32},{"time":36222.18600000001,"duration":166.66649999999936,"noteNumber":66,"velocity":79,"programNumber":32},{"time":36444.40800000001,"duration":166.66649999999936,"noteNumber":67,"velocity":82,"programNumber":32},{"time":36666.63000000001,"duration":166.66649999999936,"noteNumber":67,"velocity":82,"programNumber":32},{"time":36888.85200000001,"duration":166.66649999999936,"noteNumber":64,"velocity":82,"programNumber":32},{"time":37111.074000000015,"duration":166.66649999999936,"noteNumber":64,"velocity":82,"programNumber":32},{"time":37333.29600000002,"duration":74.07400000000052,"noteNumber":62,"velocity":85,"programNumber":32},{"time":37333.29600000002,"duration":74.07400000000052,"noteNumber":69,"velocity":85,"programNumber":32},{"time":37444.407000000014,"duration":74.07400000000052,"noteNumber":62,"velocity":85,"programNumber":32},{"time":37444.407000000014,"duration":74.07400000000052,"noteNumber":69,"velocity":85,"programNumber":32},{"time":37555.51800000001,"duration":74.07400000000052,"noteNumber":62,"velocity":85,"programNumber":32},{"time":37555.51800000001,"duration":74.07400000000052,"noteNumber":69,"velocity":85,"programNumber":32},{"time":37666.62900000001,"duration":74.07400000000052,"noteNumber":62,"velocity":85,"programNumber":32},{"time":37666.62900000001,"duration":74.07400000000052,"noteNumber":69,"velocity":85,"programNumber":32},{"time":37777.740000000005,"duration":74.07400000000052,"noteNumber":62,"velocity":85,"programNumber":32},{"time":37777.740000000005,"duration":74.07400000000052,"noteNumber":69,"velocity":85,"programNumber":32},{"time":37888.851,"duration":74.07400000000052,"noteNumber":62,"velocity":85,"programNumber":32},{"time":37888.851,"duration":74.07400000000052,"noteNumber":69,"velocity":85,"programNumber":32},{"time":37999.962,"duration":74.07400000000052,"noteNumber":62,"velocity":85,"programNumber":32},{"time":37999.962,"duration":74.07400000000052,"noteNumber":69,"velocity":85,"programNumber":32},{"time":38111.073,"duration":74.07400000000052,"noteNumber":62,"velocity":85,"programNumber":32},{"time":38111.073,"duration":74.07400000000052,"noteNumber":69,"velocity":85,"programNumber":32},{"time":38222.183999999994,"duration":74.07400000000052,"noteNumber":64,"velocity":85,"programNumber":32},{"time":38222.183999999994,"duration":74.07400000000052,"noteNumber":69,"velocity":85,"programNumber":32},{"time":38333.29499999999,"duration":74.07400000000052,"noteNumber":64,"velocity":85,"programNumber":32},{"time":38333.29499999999,"duration":74.07400000000052,"noteNumber":69,"velocity":85,"programNumber":32},{"time":38444.40599999999,"duration":74.07400000000052,"noteNumber":64,"velocity":85,"programNumber":32},{"time":38444.40599999999,"duration":74.07400000000052,"noteNumber":69,"velocity":85,"programNumber":32},{"time":38555.516999999985,"duration":74.07400000000052,"noteNumber":64,"velocity":85,"programNumber":32},{"time":38555.516999999985,"duration":74.07400000000052,"noteNumber":69,"velocity":85,"programNumber":32},{"time":38666.62799999998,"duration":74.07400000000052,"noteNumber":64,"velocity":85,"programNumber":32},{"time":38666.62799999998,"duration":74.07400000000052,"noteNumber":69,"velocity":85,"programNumber":32},{"time":38777.73899999998,"duration":74.07400000000052,"noteNumber":64,"velocity":85,"programNumber":32},{"time":38777.73899999998,"duration":74.07400000000052,"noteNumber":69,"velocity":85,"programNumber":32},{"time":38888.84999999998,"duration":74.07400000000052,"noteNumber":64,"velocity":85,"programNumber":32},{"time":38888.84999999998,"duration":74.07400000000052,"noteNumber":69,"velocity":85,"programNumber":32},{"time":38999.960999999974,"duration":74.07400000000052,"noteNumber":64,"velocity":85,"programNumber":32},{"time":38999.960999999974,"duration":74.07400000000052,"noteNumber":69,"velocity":85,"programNumber":32},{"time":39111.07199999997,"duration":74.07400000000052,"noteNumber":62,"velocity":85,"programNumber":32},{"time":39111.07199999997,"duration":74.07400000000052,"noteNumber":69,"velocity":85,"programNumber":32},{"time":39222.18299999997,"duration":74.07400000000052,"noteNumber":62,"velocity":85,"programNumber":32},{"time":39222.18299999997,"duration":74.07400000000052,"noteNumber":69,"velocity":85,"programNumber":32},{"time":39333.293999999965,"duration":74.07400000000052,"noteNumber":62,"velocity":85,"programNumber":32},{"time":39333.293999999965,"duration":74.07400000000052,"noteNumber":69,"velocity":85,"programNumber":32},{"time":39444.40499999996,"duration":74.07400000000052,"noteNumber":62,"velocity":85,"programNumber":32},{"time":39444.40499999996,"duration":74.07400000000052,"noteNumber":69,"velocity":85,"programNumber":32},{"time":39555.51599999996,"duration":74.07400000000052,"noteNumber":62,"velocity":85,"programNumber":32},{"time":39555.51599999996,"duration":74.07400000000052,"noteNumber":69,"velocity":85,"programNumber":32},{"time":39666.62699999996,"duration":74.07400000000052,"noteNumber":62,"velocity":85,"programNumber":32},{"time":39666.62699999996,"duration":74.07400000000052,"noteNumber":69,"velocity":85,"programNumber":32},{"time":39777.737999999954,"duration":74.07400000000052,"noteNumber":62,"velocity":85,"programNumber":32},{"time":39777.737999999954,"duration":74.07400000000052,"noteNumber":69,"velocity":85,"programNumber":32},{"time":39888.84899999995,"duration":74.07400000000052,"noteNumber":62,"velocity":85,"programNumber":32},{"time":39888.84899999995,"duration":74.07400000000052,"noteNumber":69,"velocity":85,"programNumber":32},{"time":39999.95999999995,"duration":74.07400000000052,"noteNumber":64,"velocity":85,"programNumber":32},{"time":39999.95999999995,"duration":74.07400000000052,"noteNumber":69,"velocity":85,"programNumber":32},{"time":40111.070999999945,"duration":74.07400000000052,"noteNumber":64,"velocity":85,"programNumber":32},{"time":40111.070999999945,"duration":74.07400000000052,"noteNumber":69,"velocity":85,"programNumber":32},{"time":40222.18199999994,"duration":74.07400000000052,"noteNumber":64,"velocity":85,"programNumber":32},{"time":40222.18199999994,"duration":74.07400000000052,"noteNumber":69,"velocity":85,"programNumber":32},{"time":40333.29299999994,"duration":74.07400000000052,"noteNumber":64,"velocity":85,"programNumber":32},{"time":40333.29299999994,"duration":74.07400000000052,"noteNumber":69,"velocity":85,"programNumber":32},{"time":40444.40399999994,"duration":74.07400000000052,"noteNumber":64,"velocity":85,"programNumber":32},{"time":40444.40399999994,"duration":74.07400000000052,"noteNumber":69,"velocity":85,"programNumber":32},{"time":40555.514999999934,"duration":74.07400000000052,"noteNumber":64,"velocity":85,"programNumber":32},{"time":40555.514999999934,"duration":74.07400000000052,"noteNumber":69,"velocity":85,"programNumber":32},{"time":40666.62599999993,"duration":74.07400000000052,"noteNumber":64,"velocity":85,"programNumber":32},{"time":40666.62599999993,"duration":74.07400000000052,"noteNumber":69,"velocity":85,"programNumber":32},{"time":40777.73699999993,"duration":74.07400000000052,"noteNumber":64,"velocity":85,"programNumber":32},{"time":40777.73699999993,"duration":74.07400000000052,"noteNumber":69,"velocity":85,"programNumber":32},{"time":40888.847999999925,"duration":166.66649999999936,"noteNumber":62,"velocity":85,"programNumber":32},{"time":41111.06999999993,"duration":166.66649999999936,"noteNumber":64,"velocity":85,"programNumber":32},{"time":41333.29199999993,"duration":166.66649999999936,"noteNumber":66,"velocity":85,"programNumber":32},{"time":41555.51399999993,"duration":166.66649999999936,"noteNumber":64,"velocity":85,"programNumber":32},{"time":41777.73599999993,"duration":166.66649999999936,"noteNumber":62,"velocity":85,"programNumber":32},{"time":41999.95799999993,"duration":166.66649999999936,"noteNumber":64,"velocity":85,"programNumber":32},{"time":42222.179999999935,"duration":166.66649999999936,"noteNumber":66,"velocity":85,"programNumber":32},{"time":42444.40199999994,"duration":166.66649999999936,"noteNumber":62,"velocity":85,"programNumber":32},{"time":42666.62399999994,"duration":166.66649999999936,"noteNumber":71,"velocity":85,"programNumber":32},{"time":42888.84599999994,"duration":166.66649999999936,"noteNumber":69,"velocity":85,"programNumber":32},{"time":43111.06799999994,"duration":166.66649999999936,"noteNumber":67,"velocity":85,"programNumber":32},{"time":43333.28999999994,"duration":166.66649999999936,"noteNumber":69,"velocity":85,"programNumber":32},{"time":43555.511999999944,"duration":166.66649999999936,"noteNumber":71,"velocity":85,"programNumber":32},{"time":43777.733999999946,"duration":166.66649999999936,"noteNumber":69,"velocity":85,"programNumber":32},{"time":43999.95599999995,"duration":166.66649999999936,"noteNumber":68,"velocity":85,"programNumber":32},{"time":44222.17799999995,"duration":166.66649999999936,"noteNumber":71,"velocity":85,"programNumber":32},{"time":44444.39999999995,"duration":166.66649999999936,"noteNumber":69,"velocity":85,"programNumber":32},{"time":44666.62199999995,"duration":166.66649999999936,"noteNumber":69,"velocity":85,"programNumber":32},{"time":44888.843999999954,"duration":166.66649999999936,"noteNumber":69,"velocity":85,"programNumber":32},{"time":45111.065999999955,"duration":166.66649999999936,"noteNumber":69,"velocity":85,"programNumber":32},{"time":45333.28799999996,"duration":166.66649999999936,"noteNumber":69,"velocity":85,"programNumber":32},{"time":45555.50999999996,"duration":166.66649999999936,"noteNumber":69,"velocity":85,"programNumber":32},{"time":45777.73199999996,"duration":166.66649999999936,"noteNumber":69,"velocity":85,"programNumber":32},{"time":45999.95399999996,"duration":166.66649999999936,"noteNumber":69,"velocity":85,"programNumber":32},{"time":46222.17599999996,"duration":166.66649999999936,"noteNumber":69,"velocity":85,"programNumber":32},{"time":46444.397999999965,"duration":166.66649999999936,"noteNumber":57,"velocity":85,"programNumber":32},{"time":46666.619999999966,"duration":166.66649999999936,"noteNumber":57,"velocity":85,"programNumber":32},{"time":46888.84199999997,"duration":166.66649999999936,"noteNumber":57,"velocity":85,"programNumber":32},{"time":47111.06399999997,"duration":444.44400000000314,"noteNumber":57,"velocity":85,"programNumber":32},{"time":49333.28399999997,"duration":222.22200000000157,"noteNumber":66,"velocity":55,"programNumber":32},{"time":49777.727999999974,"duration":222.22200000000157,"noteNumber":59,"velocity":55,"programNumber":32},{"time":50222.17199999998,"duration":222.22200000000157,"noteNumber":67,"velocity":55,"programNumber":32},{"time":50666.61599999998,"duration":222.22200000000157,"noteNumber":64,"velocity":55,"programNumber":32},{"time":51111.05999999998,"duration":222.22200000000157,"noteNumber":61,"velocity":55,"programNumber":32},{"time":51999.94799999998,"duration":444.44400000000314,"noteNumber":64,"velocity":55,"programNumber":32},{"time":52444.391999999985,"duration":222.22200000000157,"noteNumber":62,"velocity":55,"programNumber":32},{"time":52888.83599999999,"duration":222.22200000000157,"noteNumber":64,"velocity":55,"programNumber":32},{"time":53333.27999999999,"duration":888.887999999999,"noteNumber":62,"velocity":55,"programNumber":32},{"time":54222.16799999999,"duration":444.44400000000314,"noteNumber":61,"velocity":55,"programNumber":32},{"time":55555.49999999999,"duration":444.44400000000314,"noteNumber":61,"velocity":55,"programNumber":32},{"time":55999.943999999996,"duration":222.22200000000157,"noteNumber":62,"velocity":55,"programNumber":32},{"time":56444.388,"duration":222.22200000000157,"noteNumber":66,"velocity":55,"programNumber":32},{"time":56888.832,"duration":222.22200000000157,"noteNumber":59,"velocity":55,"programNumber":32},{"time":57333.276000000005,"duration":222.22200000000157,"noteNumber":55,"velocity":55,"programNumber":32},{"time":57777.72000000001,"duration":444.44400000000314,"noteNumber":52,"velocity":55,"programNumber":32},{"time":58444.38600000001,"duration":166.66649999999936,"noteNumber":64,"velocity":55,"programNumber":32},{"time":58666.608000000015,"duration":222.22200000000157,"noteNumber":64,"velocity":55,"programNumber":32},{"time":58888.830000000016,"duration":222.22200000000157,"noteNumber":62,"velocity":55,"programNumber":32},{"time":60444.38400000002,"duration":166.66649999999936,"noteNumber":62,"velocity":55,"programNumber":32},{"time":60666.60600000002,"duration":166.66649999999936,"noteNumber":62,"velocity":55,"programNumber":32},{"time":60888.82800000002,"duration":166.66649999999936,"noteNumber":64,"velocity":55,"programNumber":32},{"time":61111.050000000025,"duration":166.66649999999936,"noteNumber":64,"velocity":55,"programNumber":32},{"time":61333.272000000026,"duration":166.66649999999936,"noteNumber":66,"velocity":55,"programNumber":32},{"time":61555.49400000003,"duration":166.66649999999936,"noteNumber":66,"velocity":55,"programNumber":32},{"time":61777.71600000003,"duration":166.66649999999936,"noteNumber":62,"velocity":55,"programNumber":32},{"time":61999.93800000003,"duration":166.66649999999936,"noteNumber":62,"velocity":55,"programNumber":32},{"time":62222.16000000003,"duration":166.66649999999936,"noteNumber":61,"velocity":55,"programNumber":32},{"time":62444.382000000034,"duration":166.66649999999936,"noteNumber":61,"velocity":55,"programNumber":32},{"time":62666.604000000036,"duration":166.66649999999936,"noteNumber":62,"velocity":55,"programNumber":32},{"time":62888.82600000004,"duration":166.66649999999936,"noteNumber":62,"velocity":55,"programNumber":32},{"time":63111.04800000004,"duration":166.66649999999936,"noteNumber":64,"velocity":55,"programNumber":32},{"time":63333.27000000004,"duration":166.66649999999936,"noteNumber":64,"velocity":55,"programNumber":32},{"time":63555.49200000004,"duration":166.66649999999936,"noteNumber":61,"velocity":55,"programNumber":32},{"time":63777.71400000004,"duration":166.66649999999936,"noteNumber":61,"velocity":55,"programNumber":32},{"time":63999.936000000045,"duration":166.66649999999936,"noteNumber":62,"velocity":55,"programNumber":32},{"time":64222.15800000005,"duration":166.66649999999936,"noteNumber":62,"velocity":55,"programNumber":32},{"time":64444.38000000005,"duration":166.66649999999936,"noteNumber":64,"velocity":55,"programNumber":32},{"time":64666.60200000005,"duration":166.66649999999936,"noteNumber":64,"velocity":55,"programNumber":32},{"time":64888.82400000005,"duration":166.66649999999936,"noteNumber":66,"velocity":55,"programNumber":32},{"time":65111.04600000005,"duration":166.66649999999936,"noteNumber":66,"velocity":55,"programNumber":32},{"time":65333.268000000055,"duration":166.66649999999936,"noteNumber":62,"velocity":55,"programNumber":32},{"time":65555.49000000005,"duration":166.66650000000664,"noteNumber":62,"velocity":55,"programNumber":32},{"time":65777.71200000006,"duration":166.66650000000664,"noteNumber":61,"velocity":55,"programNumber":32},{"time":65999.93400000007,"duration":166.66650000000664,"noteNumber":61,"velocity":55,"programNumber":32},{"time":66222.15600000008,"duration":166.66650000000664,"noteNumber":62,"velocity":55,"programNumber":32},{"time":66444.37800000008,"duration":166.66650000000664,"noteNumber":62,"velocity":55,"programNumber":32},{"time":66666.6000000001,"duration":166.66650000000664,"noteNumber":64,"velocity":55,"programNumber":32},{"time":66888.8220000001,"duration":166.66650000000664,"noteNumber":64,"velocity":55,"programNumber":32},{"time":67111.04400000011,"duration":166.66650000000664,"noteNumber":61,"velocity":55,"programNumber":32},{"time":67333.26600000012,"duration":166.66650000000664,"noteNumber":61,"velocity":55,"programNumber":32},{"time":67555.48800000013,"duration":166.66650000000664,"noteNumber":62,"velocity":55,"programNumber":32},{"time":67777.71000000014,"duration":166.66650000000664,"noteNumber":62,"velocity":55,"programNumber":32},{"time":67999.93200000015,"duration":166.66650000000664,"noteNumber":66,"velocity":55,"programNumber":32},{"time":68222.15400000016,"duration":166.66650000000664,"noteNumber":64,"velocity":55,"programNumber":32},{"time":68444.37600000016,"duration":166.66650000000664,"noteNumber":63,"velocity":55,"programNumber":32},{"time":68666.59800000017,"duration":166.66650000000664,"noteNumber":59,"velocity":55,"programNumber":32},{"time":68888.82000000018,"duration":166.66650000000664,"noteNumber":61,"velocity":55,"programNumber":32},{"time":69111.04200000019,"duration":166.66650000000664,"noteNumber":62,"velocity":55,"programNumber":32},{"time":69333.2640000002,"duration":166.66650000000664,"noteNumber":64,"velocity":85,"programNumber":32},{"time":69555.48600000021,"duration":166.66650000000664,"noteNumber":67,"velocity":85,"programNumber":32},{"time":69777.70800000022,"duration":166.66650000000664,"noteNumber":64,"velocity":85,"programNumber":32},{"time":69999.93000000023,"duration":166.66650000000664,"noteNumber":62,"velocity":85,"programNumber":32},{"time":70222.15200000023,"duration":166.66650000000664,"noteNumber":61,"velocity":85,"programNumber":32},{"time":70444.37400000024,"duration":166.66650000000664,"noteNumber":57,"velocity":55,"programNumber":32},{"time":70666.59600000025,"duration":166.66650000000664,"noteNumber":59,"velocity":85,"programNumber":32},{"time":70888.81800000026,"duration":166.66650000000664,"noteNumber":61,"velocity":85,"programNumber":32},{"time":71111.04000000027,"duration":166.66650000000664,"noteNumber":62,"velocity":85,"programNumber":32},{"time":71333.26200000028,"duration":166.66650000000664,"noteNumber":74,"velocity":85,"programNumber":32},{"time":71555.48400000029,"duration":166.66650000000664,"noteNumber":74,"velocity":85,"programNumber":32},{"time":71777.7060000003,"duration":166.66650000000664,"noteNumber":74,"velocity":85,"programNumber":32},{"time":71999.9280000003,"duration":166.66650000000664,"noteNumber":74,"velocity":85,"programNumber":32},{"time":72222.15000000031,"duration":166.66650000000664,"noteNumber":74,"velocity":85,"programNumber":32},{"time":72444.37200000032,"duration":166.66650000000664,"noteNumber":74,"velocity":85,"programNumber":32},{"time":72666.59400000033,"duration":166.66650000000664,"noteNumber":74,"velocity":85,"programNumber":32},{"time":72888.81600000034,"duration":222.2219999999943,"noteNumber":74,"velocity":85,"programNumber":32},{"time":73111.03800000034,"duration":166.66650000000664,"noteNumber":69,"velocity":85,"programNumber":32},{"time":73333.26000000034,"duration":111.11100000000442,"noteNumber":69,"velocity":85,"programNumber":32},{"time":73555.48200000035,"duration":111.11100000000442,"noteNumber":69,"velocity":85,"programNumber":32},{"time":73777.70400000036,"duration":166.66650000000664,"noteNumber":69,"velocity":85,"programNumber":32},{"time":73999.92600000037,"duration":166.66650000000664,"noteNumber":69,"velocity":85,"programNumber":32},{"time":74222.14800000038,"duration":166.66650000000664,"noteNumber":69,"velocity":85,"programNumber":32},{"time":74444.37000000039,"duration":166.66650000000664,"noteNumber":67,"velocity":85,"programNumber":32},{"time":74666.5920000004,"duration":166.66650000000664,"noteNumber":62,"velocity":85,"programNumber":32},{"time":74888.8140000004,"duration":166.66650000000664,"noteNumber":62,"velocity":53,"programNumber":32},{"time":75111.03600000041,"duration":166.66650000000664,"noteNumber":64,"velocity":53,"programNumber":32},{"time":75333.25800000042,"duration":166.66650000000664,"noteNumber":64,"velocity":53,"programNumber":32},{"time":75555.48000000043,"duration":166.66650000000664,"noteNumber":66,"velocity":53,"programNumber":32},{"time":75777.70200000044,"duration":166.66650000000664,"noteNumber":66,"velocity":53,"programNumber":32},{"time":75999.92400000045,"duration":166.66650000000664,"noteNumber":62,"velocity":53,"programNumber":32},{"time":76222.14600000046,"duration":166.66650000000664,"noteNumber":62,"velocity":53,"programNumber":32},{"time":76444.36800000047,"duration":166.66650000000664,"noteNumber":61,"velocity":55,"programNumber":32},{"time":76666.59000000048,"duration":166.66650000000664,"noteNumber":61,"velocity":55,"programNumber":32},{"time":76888.81200000049,"duration":166.66650000000664,"noteNumber":62,"velocity":55,"programNumber":32},{"time":77111.0340000005,"duration":166.66650000000664,"noteNumber":62,"velocity":55,"programNumber":32},{"time":77333.2560000005,"duration":166.66650000000664,"noteNumber":64,"velocity":55,"programNumber":32},{"time":77555.47800000051,"duration":166.66650000000664,"noteNumber":64,"velocity":55,"programNumber":32},{"time":77777.70000000052,"duration":166.66650000000664,"noteNumber":61,"velocity":55,"programNumber":32},{"time":77999.92200000053,"duration":166.66650000000664,"noteNumber":61,"velocity":55,"programNumber":32},{"time":78222.14400000054,"duration":166.66650000000664,"noteNumber":62,"velocity":55,"programNumber":32},{"time":78444.36600000055,"duration":166.66650000000664,"noteNumber":62,"velocity":55,"programNumber":32},{"time":78666.58800000056,"duration":166.66650000000664,"noteNumber":64,"velocity":55,"programNumber":32},{"time":78888.81000000057,"duration":166.66650000000664,"noteNumber":64,"velocity":55,"programNumber":32},{"time":79111.03200000057,"duration":166.66650000000664,"noteNumber":66,"velocity":55,"programNumber":32},{"time":79333.25400000058,"duration":166.66650000000664,"noteNumber":66,"velocity":55,"programNumber":32},{"time":79555.47600000059,"duration":166.66650000000664,"noteNumber":62,"velocity":55,"programNumber":32},{"time":79777.6980000006,"duration":166.66650000000664,"noteNumber":62,"velocity":55,"programNumber":32},{"time":79999.92000000061,"duration":166.66650000000664,"noteNumber":61,"velocity":55,"programNumber":32},{"time":80222.14200000062,"duration":166.66650000000664,"noteNumber":61,"velocity":55,"programNumber":32},{"time":80444.36400000063,"duration":166.66650000000664,"noteNumber":62,"velocity":55,"programNumber":32},{"time":80666.58600000064,"duration":166.66650000000664,"noteNumber":62,"velocity":55,"programNumber":32},{"time":80888.80800000064,"duration":166.66650000000664,"noteNumber":64,"velocity":55,"programNumber":32},{"time":81111.03000000065,"duration":166.66650000000664,"noteNumber":64,"velocity":55,"programNumber":32},{"time":81333.25200000066,"duration":166.66650000000664,"noteNumber":61,"velocity":55,"programNumber":32},{"time":81555.47400000067,"duration":166.66650000000664,"noteNumber":61,"velocity":55,"programNumber":32},{"time":81777.69600000068,"duration":166.66650000000664,"noteNumber":62,"velocity":55,"programNumber":32},{"time":81999.91800000069,"duration":166.66650000000664,"noteNumber":62,"velocity":85,"programNumber":32},{"time":82222.1400000007,"duration":166.66650000000664,"noteNumber":66,"velocity":85,"programNumber":32},{"time":82444.3620000007,"duration":166.66650000000664,"noteNumber":64,"velocity":85,"programNumber":32},{"time":82666.58400000072,"duration":166.66650000000664,"noteNumber":63,"velocity":85,"programNumber":32},{"time":82888.80600000072,"duration":166.66650000000664,"noteNumber":59,"velocity":85,"programNumber":32},{"time":83111.02800000073,"duration":166.66650000000664,"noteNumber":61,"velocity":85,"programNumber":32},{"time":83333.25000000074,"duration":166.66650000000664,"noteNumber":62,"velocity":85,"programNumber":32},{"time":83555.47200000075,"duration":166.66650000000664,"noteNumber":64,"velocity":85,"programNumber":32},{"time":83777.69400000076,"duration":166.66650000000664,"noteNumber":67,"velocity":85,"programNumber":32},{"time":83999.91600000077,"duration":166.66650000000664,"noteNumber":64,"velocity":85,"programNumber":32},{"time":84222.13800000078,"duration":166.66650000000664,"noteNumber":62,"velocity":85,"programNumber":32},{"time":84444.36000000079,"duration":166.66650000000664,"noteNumber":61,"velocity":85,"programNumber":32},{"time":84666.5820000008,"duration":166.66650000000664,"noteNumber":57,"velocity":85,"programNumber":32},{"time":84888.8040000008,"duration":166.66650000000664,"noteNumber":59,"velocity":85,"programNumber":32},{"time":85111.02600000081,"duration":166.66650000000664,"noteNumber":61,"velocity":85,"programNumber":32},{"time":85333.24800000082,"duration":166.66650000000664,"noteNumber":62,"velocity":85,"programNumber":32},{"time":85555.47000000083,"duration":166.66650000000664,"noteNumber":74,"velocity":85,"programNumber":32},{"time":85777.69200000084,"duration":166.66650000000664,"noteNumber":74,"velocity":85,"programNumber":32},{"time":85999.91400000085,"duration":166.66650000000664,"noteNumber":74,"velocity":85,"programNumber":32},{"time":86222.13600000086,"duration":166.66650000000664,"noteNumber":74,"velocity":85,"programNumber":32},{"time":86444.35800000087,"duration":166.66650000000664,"noteNumber":74,"velocity":85,"programNumber":32},{"time":86666.58000000087,"duration":166.66650000000664,"noteNumber":74,"velocity":85,"programNumber":32},{"time":86888.80200000088,"duration":166.66650000000664,"noteNumber":74,"velocity":85,"programNumber":32},{"time":87111.02400000089,"duration":222.2219999999943,"noteNumber":74,"velocity":85,"programNumber":32},{"time":87333.24600000089,"duration":166.66650000000664,"noteNumber":69,"velocity":85,"programNumber":32},{"time":87555.4680000009,"duration":111.11100000000442,"noteNumber":69,"velocity":85,"programNumber":32},{"time":87777.6900000009,"duration":111.11100000000442,"noteNumber":69,"velocity":85,"programNumber":32},{"time":87999.91200000091,"duration":166.66650000000664,"noteNumber":69,"velocity":85,"programNumber":32},{"time":88222.13400000092,"duration":166.66650000000664,"noteNumber":69,"velocity":85,"programNumber":32},{"time":88444.35600000093,"duration":166.66650000000664,"noteNumber":69,"velocity":85,"programNumber":32},{"time":88666.57800000094,"duration":166.66650000000664,"noteNumber":67,"velocity":85,"programNumber":32},{"time":88888.80000000095,"duration":166.66650000000664,"noteNumber":66,"velocity":85,"programNumber":32},{"time":89111.02200000096,"duration":166.66650000000664,"noteNumber":57,"velocity":85,"programNumber":32},{"time":89333.24400000097,"duration":166.66650000000664,"noteNumber":59,"velocity":85,"programNumber":32},{"time":89555.46600000098,"duration":166.66650000000664,"noteNumber":61,"velocity":85,"programNumber":32},{"time":89777.68800000098,"duration":166.66650000000664,"noteNumber":62,"velocity":85,"programNumber":32},{"time":89999.910000001,"duration":166.66650000000664,"noteNumber":62,"velocity":85,"programNumber":32},{"time":90222.132000001,"duration":166.66650000000664,"noteNumber":64,"velocity":85,"programNumber":32},{"time":90444.35400000101,"duration":166.66650000000664,"noteNumber":64,"velocity":85,"programNumber":32},{"time":90666.57600000102,"duration":166.66650000000664,"noteNumber":66,"velocity":85,"programNumber":32},{"time":90888.79800000103,"duration":166.66650000000664,"noteNumber":61,"velocity":85,"programNumber":32},{"time":91111.02000000104,"duration":166.66650000000664,"noteNumber":62,"velocity":85,"programNumber":32},{"time":91333.24200000105,"duration":166.66650000000664,"noteNumber":64,"velocity":85,"programNumber":32},{"time":91555.46400000105,"duration":166.66650000000664,"noteNumber":66,"velocity":85,"programNumber":32},{"time":91777.68600000106,"duration":166.66650000000664,"noteNumber":66,"velocity":85,"programNumber":32},{"time":91999.90800000107,"duration":166.66650000000664,"noteNumber":67,"velocity":85,"programNumber":32},{"time":92222.13000000108,"duration":166.66650000000664,"noteNumber":67,"velocity":85,"programNumber":32},{"time":92444.35200000109,"duration":166.66650000000664,"noteNumber":69,"velocity":85,"programNumber":32},{"time":92666.5740000011,"duration":166.66650000000664,"noteNumber":69,"velocity":85,"programNumber":32},{"time":92888.79600000111,"duration":166.66650000000664,"noteNumber":70,"velocity":85,"programNumber":32},{"time":93111.01800000112,"duration":166.66650000000664,"noteNumber":70,"velocity":85,"programNumber":32},{"time":93333.24000000113,"duration":444.44400000000314,"noteNumber":71,"velocity":85,"programNumber":32},{"time":94222.12800000113,"duration":1333.3319999999949,"noteNumber":64,"velocity":55,"programNumber":32},{"time":95555.46000000113,"duration":222.2219999999943,"noteNumber":62,"velocity":55,"programNumber":32},{"time":95777.68200000112,"duration":222.2219999999943,"noteNumber":61,"velocity":55,"programNumber":32},{"time":95999.90400000112,"duration":222.2219999999943,"noteNumber":62,"velocity":55,"programNumber":32},{"time":96444.3480000011,"duration":222.2219999999943,"noteNumber":62,"velocity":55,"programNumber":32},{"time":96888.79200000109,"duration":222.2219999999943,"noteNumber":62,"velocity":55,"programNumber":32},{"time":97777.68000000108,"duration":444.44400000000314,"noteNumber":67,"velocity":85,"programNumber":32},{"time":98444.34600000108,"duration":111.11100000000442,"noteNumber":62,"velocity":85,"programNumber":32},{"time":98666.56800000109,"duration":444.44400000000314,"noteNumber":67,"velocity":85,"programNumber":32},{"time":99333.23400000109,"duration":111.11100000000442,"noteNumber":62,"velocity":85,"programNumber":32},{"time":99555.4560000011,"duration":111.11100000000442,"noteNumber":67,"velocity":85,"programNumber":32},{"time":99777.6780000011,"duration":111.11100000000442,"noteNumber":62,"velocity":85,"programNumber":32},{"time":99999.90000000111,"duration":111.11100000000442,"noteNumber":67,"velocity":85,"programNumber":32},{"time":100222.12200000112,"duration":111.11100000000442,"noteNumber":71,"velocity":85,"programNumber":32},{"time":100444.34400000113,"duration":444.44400000000314,"noteNumber":74,"velocity":85,"programNumber":32},{"time":101333.23200000114,"duration":444.44400000000314,"noteNumber":72,"velocity":85,"programNumber":32},{"time":101999.89800000114,"duration":111.11100000000442,"noteNumber":69,"velocity":85,"programNumber":32},{"time":102222.12000000114,"duration":444.44400000000314,"noteNumber":72,"velocity":85,"programNumber":32},{"time":102888.78600000114,"duration":111.11100000000442,"noteNumber":69,"velocity":85,"programNumber":32},{"time":103111.00800000115,"duration":111.11100000000442,"noteNumber":72,"velocity":85,"programNumber":32},{"time":103333.23000000116,"duration":111.11100000000442,"noteNumber":69,"velocity":85,"programNumber":32},{"time":103555.45200000117,"duration":111.11100000000442,"noteNumber":66,"velocity":85,"programNumber":32},{"time":103777.67400000118,"duration":111.11100000000442,"noteNumber":69,"velocity":85,"programNumber":32},{"time":103999.89600000119,"duration":444.44400000000314,"noteNumber":62,"velocity":85,"programNumber":32},{"time":104888.7840000012,"duration":166.66650000000664,"noteNumber":67,"velocity":85,"programNumber":32},{"time":105111.0060000012,"duration":166.66650000000664,"noteNumber":67,"velocity":85,"programNumber":32},{"time":105333.22800000121,"duration":166.66650000000664,"noteNumber":67,"velocity":85,"programNumber":32},{"time":105555.45000000122,"duration":166.66650000000664,"noteNumber":67,"velocity":85,"programNumber":32},{"time":105777.67200000123,"duration":166.66650000000664,"noteNumber":67,"velocity":85,"programNumber":32},{"time":105999.89400000124,"duration":166.66650000000664,"noteNumber":67,"velocity":85,"programNumber":32},{"time":106222.11600000125,"duration":166.66650000000664,"noteNumber":67,"velocity":85,"programNumber":32},{"time":106444.33800000125,"duration":166.66650000000664,"noteNumber":67,"velocity":85,"programNumber":32},{"time":106666.56000000126,"duration":166.66650000000664,"noteNumber":69,"velocity":85,"programNumber":32},{"time":106888.78200000127,"duration":166.66650000000664,"noteNumber":69,"velocity":85,"programNumber":32},{"time":107111.00400000128,"duration":166.66650000000664,"noteNumber":69,"velocity":85,"programNumber":32},{"time":107333.22600000129,"duration":166.66650000000664,"noteNumber":69,"velocity":85,"programNumber":32},{"time":107555.4480000013,"duration":222.2219999999943,"noteNumber":69,"velocity":85,"programNumber":32},{"time":107777.6700000013,"duration":166.66650000000664,"noteNumber":72,"velocity":85,"programNumber":32},{"time":107999.8920000013,"duration":222.2219999999943,"noteNumber":66,"velocity":85,"programNumber":32},{"time":108222.1140000013,"duration":166.66650000000664,"noteNumber":69,"velocity":85,"programNumber":32},{"time":108444.3360000013,"duration":166.66650000000664,"noteNumber":67,"velocity":85,"programNumber":32},{"time":108666.55800000131,"duration":166.66650000000664,"noteNumber":67,"velocity":85,"programNumber":32},{"time":108888.78000000132,"duration":166.66650000000664,"noteNumber":67,"velocity":85,"programNumber":32},{"time":109111.00200000133,"duration":166.66650000000664,"noteNumber":67,"velocity":85,"programNumber":32},{"time":109333.22400000134,"duration":166.66650000000664,"noteNumber":67,"velocity":85,"programNumber":32},{"time":109555.44600000135,"duration":166.66650000000664,"noteNumber":67,"velocity":85,"programNumber":32},{"time":109777.66800000136,"duration":166.66650000000664,"noteNumber":67,"velocity":85,"programNumber":32},{"time":109999.89000000137,"duration":166.66650000000664,"noteNumber":67,"velocity":85,"programNumber":32},{"time":110222.11200000138,"duration":166.66650000000664,"noteNumber":69,"velocity":85,"programNumber":32},{"time":110444.33400000138,"duration":166.66650000000664,"noteNumber":69,"velocity":85,"programNumber":32},{"time":110666.5560000014,"duration":166.66650000000664,"noteNumber":69,"velocity":85,"programNumber":32},{"time":110888.7780000014,"duration":166.66650000000664,"noteNumber":69,"velocity":85,"programNumber":32},{"time":111111.00000000141,"duration":222.2219999999943,"noteNumber":69,"velocity":85,"programNumber":32},{"time":111333.2220000014,"duration":166.66650000000664,"noteNumber":72,"velocity":85,"programNumber":32},{"time":111555.44400000141,"duration":222.2219999999943,"noteNumber":66,"velocity":85,"programNumber":32},{"time":111777.66600000141,"duration":166.66650000000664,"noteNumber":69,"velocity":85,"programNumber":32},{"time":111999.88800000142,"duration":74.07399999999325,"noteNumber":62,"velocity":85,"programNumber":32},{"time":112110.99900000141,"duration":74.07399999999325,"noteNumber":62,"velocity":85,"programNumber":32},{"time":112222.1100000014,"duration":74.07399999999325,"noteNumber":62,"velocity":85,"programNumber":32},{"time":112333.22100000139,"duration":74.07399999999325,"noteNumber":62,"velocity":85,"programNumber":32},{"time":112444.33200000138,"duration":74.07399999999325,"noteNumber":62,"velocity":85,"programNumber":32},{"time":112555.44300000137,"duration":74.07399999999325,"noteNumber":62,"velocity":85,"programNumber":32},{"time":112666.55400000136,"duration":74.07399999999325,"noteNumber":62,"velocity":85,"programNumber":32},{"time":112777.66500000135,"duration":74.07399999999325,"noteNumber":62,"velocity":85,"programNumber":32},{"time":112888.77600000134,"duration":74.07399999999325,"noteNumber":62,"velocity":85,"programNumber":32},{"time":112999.88700000133,"duration":74.07399999999325,"noteNumber":62,"velocity":85,"programNumber":32},{"time":113110.99800000132,"duration":74.07399999999325,"noteNumber":62,"velocity":85,"programNumber":32},{"time":113222.1090000013,"duration":74.07399999999325,"noteNumber":62,"velocity":85,"programNumber":32},{"time":113333.2200000013,"duration":74.07399999999325,"noteNumber":62,"velocity":85,"programNumber":32},{"time":113444.33100000129,"duration":74.07399999999325,"noteNumber":62,"velocity":85,"programNumber":32},{"time":113555.44200000128,"duration":74.07399999999325,"noteNumber":62,"velocity":85,"programNumber":32},{"time":113666.55300000127,"duration":74.07399999999325,"noteNumber":62,"velocity":85,"programNumber":32},{"time":113777.66400000126,"duration":74.07399999999325,"noteNumber":62,"velocity":85,"programNumber":32},{"time":113888.77500000125,"duration":74.07399999999325,"noteNumber":62,"velocity":85,"programNumber":32},{"time":113999.88600000124,"duration":74.07399999999325,"noteNumber":62,"velocity":85,"programNumber":32},{"time":114110.99700000123,"duration":74.07399999999325,"noteNumber":62,"velocity":85,"programNumber":32},{"time":114222.10800000122,"duration":74.07399999999325,"noteNumber":62,"velocity":85,"programNumber":32},{"time":114333.2190000012,"duration":74.07399999999325,"noteNumber":62,"velocity":85,"programNumber":32},{"time":114444.3300000012,"duration":74.07399999999325,"noteNumber":62,"velocity":85,"programNumber":32},{"time":114555.44100000118,"duration":74.07399999999325,"noteNumber":62,"velocity":85,"programNumber":32},{"time":114666.55200000117,"duration":444.44400000000314,"noteNumber":62,"velocity":85,"programNumber":32},{"time":117333.21600000118,"duration":888.8880000000063,"noteNumber":54,"velocity":47,"programNumber":32},{"time":118222.10400000119,"duration":888.8880000000063,"noteNumber":55,"velocity":47,"programNumber":32},{"time":119110.99200000119,"duration":333.3329999999987,"noteNumber":60,"velocity":47,"programNumber":32},{"time":119555.4360000012,"duration":333.3329999999987,"noteNumber":60,"velocity":47,"programNumber":32},{"time":119999.8800000012,"duration":333.3329999999987,"noteNumber":57,"velocity":47,"programNumber":32},{"time":120444.3240000012,"duration":333.3329999999987,"noteNumber":50,"velocity":47,"programNumber":32},{"time":120888.7680000012,"duration":222.2219999999943,"noteNumber":50,"velocity":47,"programNumber":32},{"time":121333.2120000012,"duration":222.2219999999943,"noteNumber":62,"velocity":47,"programNumber":32},{"time":121777.65600000118,"duration":444.44400000000314,"noteNumber":62,"velocity":47,"programNumber":32},{"time":124444.32000000119,"duration":888.8880000000063,"noteNumber":66,"velocity":47,"programNumber":32},{"time":125333.20800000119,"duration":888.8880000000063,"noteNumber":67,"velocity":47,"programNumber":32},{"time":126222.0960000012,"duration":333.3329999999987,"noteNumber":60,"velocity":47,"programNumber":32},{"time":126666.5400000012,"duration":166.66650000000664,"noteNumber":60,"velocity":47,"programNumber":32},{"time":126888.76200000121,"duration":166.66650000000664,"noteNumber":60,"velocity":47,"programNumber":32},{"time":127110.98400000122,"duration":333.3329999999987,"noteNumber":57,"velocity":47,"programNumber":32},{"time":127555.42800000122,"duration":166.66650000000664,"noteNumber":57,"velocity":47,"programNumber":32},{"time":127777.65000000123,"duration":166.66650000000664,"noteNumber":57,"velocity":47,"programNumber":32},{"time":127999.87200000124,"duration":166.66650000000664,"noteNumber":55,"velocity":92,"programNumber":32},{"time":128222.09400000125,"duration":166.66650000000664,"noteNumber":55,"velocity":71,"programNumber":32},{"time":128444.31600000126,"duration":166.66650000000664,"noteNumber":55,"velocity":71,"programNumber":32},{"time":128666.53800000127,"duration":166.66650000000664,"noteNumber":55,"velocity":71,"programNumber":32},{"time":128888.76000000128,"duration":166.66650000000664,"noteNumber":55,"velocity":55,"programNumber":32},{"time":129110.98200000128,"duration":166.66650000000664,"noteNumber":55,"velocity":50,"programNumber":32},{"time":129333.2040000013,"duration":166.66650000000664,"noteNumber":55,"velocity":50,"programNumber":32},{"time":129555.4260000013,"duration":166.66650000000664,"noteNumber":55,"velocity":50,"programNumber":32},{"time":129777.64800000131,"duration":166.66650000000664,"noteNumber":55,"velocity":91,"programNumber":32},{"time":129999.87000000132,"duration":166.66650000000664,"noteNumber":55,"velocity":65,"programNumber":32},{"time":130222.09200000133,"duration":166.66650000000664,"noteNumber":55,"velocity":65,"programNumber":32},{"time":130444.31400000134,"duration":166.66650000000664,"noteNumber":55,"velocity":65,"programNumber":32},{"time":130666.53600000135,"duration":166.66650000000664,"noteNumber":55,"velocity":46,"programNumber":32},{"time":130888.75800000135,"duration":166.66650000000664,"noteNumber":55,"velocity":46,"programNumber":32},{"time":131110.98000000135,"duration":166.66649999999208,"noteNumber":55,"velocity":46,"programNumber":32},{"time":131333.20200000133,"duration":166.66649999999208,"noteNumber":55,"velocity":46,"programNumber":32},{"time":131555.4240000013,"duration":166.66649999999208,"noteNumber":55,"velocity":59,"programNumber":32},{"time":131777.6460000013,"duration":166.66649999999208,"noteNumber":67,"velocity":41,"programNumber":32},{"time":131999.86800000127,"duration":166.66649999999208,"noteNumber":67,"velocity":46,"programNumber":32},{"time":132222.09000000125,"duration":166.66649999999208,"noteNumber":67,"velocity":49,"programNumber":32},{"time":132444.31200000123,"duration":166.66649999999208,"noteNumber":67,"velocity":53,"programNumber":32},{"time":132666.5340000012,"duration":166.66649999999208,"noteNumber":67,"velocity":56,"programNumber":32},{"time":132888.7560000012,"duration":166.66649999999208,"noteNumber":69,"velocity":61,"programNumber":32},{"time":133110.97800000117,"duration":166.66649999999208,"noteNumber":69,"velocity":64,"programNumber":32},{"time":133333.20000000115,"duration":166.66649999999208,"noteNumber":67,"velocity":68,"programNumber":32},{"time":133555.42200000113,"duration":166.66649999999208,"noteNumber":67,"velocity":71,"programNumber":32},{"time":133777.6440000011,"duration":166.66649999999208,"noteNumber":66,"velocity":76,"programNumber":32},{"time":133999.8660000011,"duration":166.66649999999208,"noteNumber":66,"velocity":79,"programNumber":32},{"time":134222.08800000107,"duration":166.66649999999208,"noteNumber":67,"velocity":82,"programNumber":32},{"time":134444.31000000105,"duration":166.66649999999208,"noteNumber":67,"velocity":82,"programNumber":32},{"time":134666.53200000103,"duration":166.66649999999208,"noteNumber":64,"velocity":82,"programNumber":32},{"time":134888.754000001,"duration":166.66649999999208,"noteNumber":64,"velocity":82,"programNumber":32},{"time":135110.97600000098,"duration":74.07399999999325,"noteNumber":62,"velocity":85,"programNumber":32},{"time":135110.97600000098,"duration":74.07399999999325,"noteNumber":69,"velocity":85,"programNumber":32},{"time":135222.087000001,"duration":74.07399999999325,"noteNumber":62,"velocity":85,"programNumber":32},{"time":135222.087000001,"duration":74.07399999999325,"noteNumber":69,"velocity":85,"programNumber":32},{"time":135333.198000001,"duration":74.07399999999325,"noteNumber":62,"velocity":85,"programNumber":32},{"time":135333.198000001,"duration":74.07399999999325,"noteNumber":69,"velocity":85,"programNumber":32},{"time":135444.309000001,"duration":74.07399999999325,"noteNumber":62,"velocity":85,"programNumber":32},{"time":135444.309000001,"duration":74.07399999999325,"noteNumber":69,"velocity":85,"programNumber":32},{"time":135555.420000001,"duration":74.07399999999325,"noteNumber":62,"velocity":85,"programNumber":32},{"time":135555.420000001,"duration":74.07399999999325,"noteNumber":69,"velocity":85,"programNumber":32},{"time":135666.531000001,"duration":74.07399999999325,"noteNumber":62,"velocity":85,"programNumber":32},{"time":135666.531000001,"duration":74.07399999999325,"noteNumber":69,"velocity":85,"programNumber":32},{"time":135777.642000001,"duration":74.07399999999325,"noteNumber":62,"velocity":85,"programNumber":32},{"time":135777.642000001,"duration":74.07399999999325,"noteNumber":69,"velocity":85,"programNumber":32},{"time":135888.75300000102,"duration":74.07399999999325,"noteNumber":62,"velocity":85,"programNumber":32},{"time":135888.75300000102,"duration":74.07399999999325,"noteNumber":69,"velocity":85,"programNumber":32},{"time":135999.86400000102,"duration":74.07399999999325,"noteNumber":64,"velocity":85,"programNumber":32},{"time":135999.86400000102,"duration":74.07399999999325,"noteNumber":69,"velocity":85,"programNumber":32},{"time":136110.97500000102,"duration":74.07399999999325,"noteNumber":64,"velocity":85,"programNumber":32},{"time":136110.97500000102,"duration":74.07399999999325,"noteNumber":69,"velocity":85,"programNumber":32},{"time":136222.08600000103,"duration":74.07399999999325,"noteNumber":64,"velocity":85,"programNumber":32},{"time":136222.08600000103,"duration":74.07399999999325,"noteNumber":69,"velocity":85,"programNumber":32},{"time":136333.19700000103,"duration":74.07399999999325,"noteNumber":64,"velocity":85,"programNumber":32},{"time":136333.19700000103,"duration":74.07399999999325,"noteNumber":69,"velocity":85,"programNumber":32},{"time":136444.30800000104,"duration":74.07399999999325,"noteNumber":64,"velocity":85,"programNumber":32},{"time":136444.30800000104,"duration":74.07399999999325,"noteNumber":69,"velocity":85,"programNumber":32},{"time":136555.41900000104,"duration":74.07399999999325,"noteNumber":64,"velocity":85,"programNumber":32},{"time":136555.41900000104,"duration":74.07399999999325,"noteNumber":69,"velocity":85,"programNumber":32},{"time":136666.53000000105,"duration":74.07399999999325,"noteNumber":64,"velocity":85,"programNumber":32},{"time":136666.53000000105,"duration":74.07399999999325,"noteNumber":69,"velocity":85,"programNumber":32},{"time":136777.64100000105,"duration":74.07399999999325,"noteNumber":64,"velocity":85,"programNumber":32},{"time":136777.64100000105,"duration":74.07399999999325,"noteNumber":69,"velocity":85,"programNumber":32},{"time":136888.75200000106,"duration":74.07399999999325,"noteNumber":62,"velocity":85,"programNumber":32},{"time":136888.75200000106,"duration":74.07399999999325,"noteNumber":69,"velocity":85,"programNumber":32},{"time":136999.86300000106,"duration":74.07399999999325,"noteNumber":62,"velocity":85,"programNumber":32},{"time":136999.86300000106,"duration":74.07399999999325,"noteNumber":69,"velocity":85,"programNumber":32},{"time":137110.97400000106,"duration":74.07399999999325,"noteNumber":62,"velocity":85,"programNumber":32},{"time":137110.97400000106,"duration":74.07399999999325,"noteNumber":69,"velocity":85,"programNumber":32},{"time":137222.08500000107,"duration":74.07399999999325,"noteNumber":62,"velocity":85,"programNumber":32},{"time":137222.08500000107,"duration":74.07399999999325,"noteNumber":69,"velocity":85,"programNumber":32},{"time":137333.19600000107,"duration":74.07399999999325,"noteNumber":62,"velocity":85,"programNumber":32},{"time":137333.19600000107,"duration":74.07399999999325,"noteNumber":69,"velocity":85,"programNumber":32},{"time":137444.30700000108,"duration":74.07399999999325,"noteNumber":62,"velocity":85,"programNumber":32},{"time":137444.30700000108,"duration":74.07399999999325,"noteNumber":69,"velocity":85,"programNumber":32},{"time":137555.41800000108,"duration":74.07399999999325,"noteNumber":62,"velocity":85,"programNumber":32},{"time":137555.41800000108,"duration":74.07399999999325,"noteNumber":69,"velocity":85,"programNumber":32},{"time":137666.5290000011,"duration":74.07399999999325,"noteNumber":62,"velocity":85,"programNumber":32},{"time":137666.5290000011,"duration":74.07399999999325,"noteNumber":69,"velocity":85,"programNumber":32},{"time":137777.6400000011,"duration":74.07399999999325,"noteNumber":64,"velocity":85,"programNumber":32},{"time":137777.6400000011,"duration":74.07399999999325,"noteNumber":69,"velocity":85,"programNumber":32},{"time":137888.7510000011,"duration":74.07399999999325,"noteNumber":64,"velocity":85,"programNumber":32},{"time":137888.7510000011,"duration":74.07399999999325,"noteNumber":69,"velocity":85,"programNumber":32},{"time":137999.8620000011,"duration":74.07399999999325,"noteNumber":64,"velocity":85,"programNumber":32},{"time":137999.8620000011,"duration":74.07399999999325,"noteNumber":69,"velocity":85,"programNumber":32},{"time":138110.9730000011,"duration":74.07399999999325,"noteNumber":64,"velocity":85,"programNumber":32},{"time":138110.9730000011,"duration":74.07399999999325,"noteNumber":69,"velocity":85,"programNumber":32},{"time":138222.0840000011,"duration":74.07399999999325,"noteNumber":64,"velocity":85,"programNumber":32},{"time":138222.0840000011,"duration":74.07399999999325,"noteNumber":69,"velocity":85,"programNumber":32},{"time":138333.1950000011,"duration":74.07399999999325,"noteNumber":64,"velocity":85,"programNumber":32},{"time":138333.1950000011,"duration":74.07399999999325,"noteNumber":69,"velocity":85,"programNumber":32},{"time":138444.30600000112,"duration":74.07399999999325,"noteNumber":64,"velocity":85,"programNumber":32},{"time":138444.30600000112,"duration":74.07399999999325,"noteNumber":69,"velocity":85,"programNumber":32},{"time":138555.41700000112,"duration":74.07399999999325,"noteNumber":64,"velocity":85,"programNumber":32},{"time":138555.41700000112,"duration":74.07399999999325,"noteNumber":69,"velocity":85,"programNumber":32},{"time":138666.52800000113,"duration":166.66649999999208,"noteNumber":62,"velocity":85,"programNumber":32},{"time":138888.7500000011,"duration":166.66649999999208,"noteNumber":64,"velocity":85,"programNumber":32},{"time":139110.9720000011,"duration":166.66649999999208,"noteNumber":66,"velocity":85,"programNumber":32},{"time":139333.19400000107,"duration":166.66649999999208,"noteNumber":64,"velocity":85,"programNumber":32},{"time":139555.41600000105,"duration":166.66649999999208,"noteNumber":62,"velocity":85,"programNumber":32},{"time":139777.63800000102,"duration":166.66649999999208,"noteNumber":64,"velocity":85,"programNumber":32},{"time":139999.860000001,"duration":166.66649999999208,"noteNumber":66,"velocity":85,"programNumber":32},{"time":140222.08200000098,"duration":166.66649999999208,"noteNumber":62,"velocity":85,"programNumber":32},{"time":140444.30400000096,"duration":166.66649999999208,"noteNumber":71,"velocity":85,"programNumber":32},{"time":140666.52600000094,"duration":166.66649999999208,"noteNumber":69,"velocity":85,"programNumber":32},{"time":140888.74800000092,"duration":166.66649999999208,"noteNumber":67,"velocity":85,"programNumber":32},{"time":141110.9700000009,"duration":166.66649999999208,"noteNumber":69,"velocity":85,"programNumber":32},{"time":141333.19200000088,"duration":166.66649999999208,"noteNumber":71,"velocity":85,"programNumber":32},{"time":141555.41400000086,"duration":166.66649999999208,"noteNumber":69,"velocity":85,"programNumber":32},{"time":141777.63600000084,"duration":166.66649999999208,"noteNumber":68,"velocity":85,"programNumber":32},{"time":141999.85800000082,"duration":166.66649999999208,"noteNumber":71,"velocity":85,"programNumber":32},{"time":142222.0800000008,"duration":166.66649999999208,"noteNumber":69,"velocity":85,"programNumber":32},{"time":142444.30200000078,"duration":166.66649999999208,"noteNumber":69,"velocity":85,"programNumber":32},{"time":142666.52400000076,"duration":166.66649999999208,"noteNumber":69,"velocity":85,"programNumber":32},{"time":142888.74600000074,"duration":166.66649999999208,"noteNumber":69,"velocity":85,"programNumber":32},{"time":143110.96800000072,"duration":166.66649999999208,"noteNumber":69,"velocity":85,"programNumber":32},{"time":143333.1900000007,"duration":166.66649999999208,"noteNumber":69,"velocity":85,"programNumber":32},{"time":143555.41200000068,"duration":166.66649999999208,"noteNumber":69,"velocity":85,"programNumber":32},{"time":143777.63400000066,"duration":166.66649999999208,"noteNumber":69,"velocity":85,"programNumber":32},{"time":143999.85600000064,"duration":166.66649999999208,"noteNumber":69,"velocity":85,"programNumber":32},{"time":144222.07800000062,"duration":166.66649999999208,"noteNumber":57,"velocity":85,"programNumber":32},{"time":144444.3000000006,"duration":166.66649999999208,"noteNumber":57,"velocity":85,"programNumber":32},{"time":144666.52200000058,"duration":166.66649999999208,"noteNumber":57,"velocity":85,"programNumber":32},{"time":144888.74400000056,"duration":444.4439999999886,"noteNumber":57,"velocity":85,"programNumber":32},{"time":147110.96400000056,"duration":222.22200000000885,"noteNumber":66,"velocity":55,"programNumber":32},{"time":147555.40800000058,"duration":222.22200000000885,"noteNumber":59,"velocity":55,"programNumber":32},{"time":147999.8520000006,"duration":222.22200000000885,"noteNumber":67,"velocity":55,"programNumber":32},{"time":148444.2960000006,"duration":222.22200000000885,"noteNumber":64,"velocity":55,"programNumber":32},{"time":148888.74000000063,"duration":222.22200000000885,"noteNumber":61,"velocity":55,"programNumber":32},{"time":149777.62800000064,"duration":444.4439999999886,"noteNumber":64,"velocity":55,"programNumber":32},{"time":150222.07200000063,"duration":222.22200000000885,"noteNumber":62,"velocity":55,"programNumber":32},{"time":150666.51600000064,"duration":222.22200000000885,"noteNumber":64,"velocity":55,"programNumber":32},{"time":151110.96000000066,"duration":888.8880000000063,"noteNumber":62,"velocity":55,"programNumber":32},{"time":151999.84800000067,"duration":444.4439999999886,"noteNumber":61,"velocity":55,"programNumber":32},{"time":153333.18000000066,"duration":444.4439999999886,"noteNumber":61,"velocity":55,"programNumber":32},{"time":153777.62400000065,"duration":222.22200000000885,"noteNumber":62,"velocity":55,"programNumber":32},{"time":154222.06800000067,"duration":222.22200000000885,"noteNumber":66,"velocity":55,"programNumber":32},{"time":154666.5120000007,"duration":222.22200000000885,"noteNumber":59,"velocity":55,"programNumber":32},{"time":155110.9560000007,"duration":222.22200000000885,"noteNumber":55,"velocity":55,"programNumber":32},{"time":155555.40000000072,"duration":444.4439999999886,"noteNumber":52,"velocity":55,"programNumber":32},{"time":156222.06600000072,"duration":166.66649999999208,"noteNumber":64,"velocity":55,"programNumber":32},{"time":156444.2880000007,"duration":222.22200000000885,"noteNumber":64,"velocity":55,"programNumber":32},{"time":156666.5100000007,"duration":222.22200000000885,"noteNumber":62,"velocity":55,"programNumber":32},{"time":158222.0640000007,"duration":166.66649999999208,"noteNumber":62,"velocity":55,"programNumber":32},{"time":158444.2860000007,"duration":166.66649999999208,"noteNumber":62,"velocity":55,"programNumber":32},{"time":158666.50800000067,"duration":166.66649999999208,"noteNumber":64,"velocity":55,"programNumber":32},{"time":158888.73000000065,"duration":166.66649999999208,"noteNumber":64,"velocity":55,"programNumber":32},{"time":159110.95200000063,"duration":166.66649999999208,"noteNumber":66,"velocity":55,"programNumber":32},{"time":159333.1740000006,"duration":166.66649999999208,"noteNumber":66,"velocity":55,"programNumber":32},{"time":159555.3960000006,"duration":166.66649999999208,"noteNumber":62,"velocity":55,"programNumber":32},{"time":159777.61800000057,"duration":166.66649999999208,"noteNumber":62,"velocity":55,"programNumber":32},{"time":159999.84000000055,"duration":166.66649999999208,"noteNumber":61,"velocity":55,"programNumber":32},{"time":160222.06200000053,"duration":166.66649999999208,"noteNumber":61,"velocity":55,"programNumber":32},{"time":160444.2840000005,"duration":166.66649999999208,"noteNumber":62,"velocity":55,"programNumber":32},{"time":160666.5060000005,"duration":166.66649999999208,"noteNumber":62,"velocity":55,"programNumber":32},{"time":160888.72800000047,"duration":166.66649999999208,"noteNumber":64,"velocity":55,"programNumber":32},{"time":161110.95000000045,"duration":166.66649999999208,"noteNumber":64,"velocity":55,"programNumber":32},{"time":161333.17200000043,"duration":166.66649999999208,"noteNumber":61,"velocity":55,"programNumber":32},{"time":161555.3940000004,"duration":166.66649999999208,"noteNumber":61,"velocity":55,"programNumber":32},{"time":161777.6160000004,"duration":166.66649999999208,"noteNumber":62,"velocity":55,"programNumber":32},{"time":161999.83800000037,"duration":166.66649999999208,"noteNumber":62,"velocity":55,"programNumber":32},{"time":162222.06000000035,"duration":166.66649999999208,"noteNumber":64,"velocity":55,"programNumber":32},{"time":162444.28200000033,"duration":166.66649999999208,"noteNumber":64,"velocity":55,"programNumber":32},{"time":162666.5040000003,"duration":166.66649999999208,"noteNumber":66,"velocity":55,"programNumber":32},{"time":162888.7260000003,"duration":166.66649999999208,"noteNumber":66,"velocity":55,"programNumber":32},{"time":163110.94800000027,"duration":166.66649999999208,"noteNumber":62,"velocity":55,"programNumber":32},{"time":163333.17000000025,"duration":166.66649999999208,"noteNumber":62,"velocity":55,"programNumber":32},{"time":163555.39200000023,"duration":166.66649999999208,"noteNumber":61,"velocity":55,"programNumber":32},{"time":163777.6140000002,"duration":166.66649999999208,"noteNumber":61,"velocity":55,"programNumber":32},{"time":163999.83600000018,"duration":166.66649999999208,"noteNumber":62,"velocity":55,"programNumber":32},{"time":164222.05800000016,"duration":166.66649999999208,"noteNumber":62,"velocity":55,"programNumber":32},{"time":164444.28000000014,"duration":166.66649999999208,"noteNumber":64,"velocity":55,"programNumber":32},{"time":164666.50200000012,"duration":166.66649999999208,"noteNumber":64,"velocity":55,"programNumber":32},{"time":164888.7240000001,"duration":166.66649999999208,"noteNumber":61,"velocity":55,"programNumber":32},{"time":165110.94600000008,"duration":166.66649999999208,"noteNumber":61,"velocity":55,"programNumber":32},{"time":165333.16800000006,"duration":166.66649999999208,"noteNumber":62,"velocity":55,"programNumber":32},{"time":165555.39000000004,"duration":166.66649999999208,"noteNumber":62,"velocity":55,"programNumber":32},{"time":165777.61200000002,"duration":166.66649999999208,"noteNumber":66,"velocity":55,"programNumber":32},{"time":165999.834,"duration":166.66649999999208,"noteNumber":64,"velocity":55,"programNumber":32},{"time":166222.05599999998,"duration":166.66649999999208,"noteNumber":63,"velocity":55,"programNumber":32},{"time":166444.27799999996,"duration":166.66649999999208,"noteNumber":59,"velocity":55,"programNumber":32},{"time":166666.49999999994,"duration":166.66649999999208,"noteNumber":61,"velocity":55,"programNumber":32},{"time":166888.72199999992,"duration":166.66649999999208,"noteNumber":62,"velocity":55,"programNumber":32},{"time":167110.9439999999,"duration":166.66649999999208,"noteNumber":64,"velocity":85,"programNumber":32},{"time":167333.16599999988,"duration":166.66649999999208,"noteNumber":67,"velocity":85,"programNumber":32},{"time":167555.38799999986,"duration":166.66649999999208,"noteNumber":64,"velocity":85,"programNumber":32},{"time":167777.60999999984,"duration":166.66649999999208,"noteNumber":62,"velocity":85,"programNumber":32},{"time":167999.83199999982,"duration":166.66649999999208,"noteNumber":61,"velocity":85,"programNumber":32},{"time":168222.0539999998,"duration":166.66649999999208,"noteNumber":57,"velocity":55,"programNumber":32},{"time":168444.27599999978,"duration":166.66649999999208,"noteNumber":59,"velocity":85,"programNumber":32},{"time":168666.49799999976,"duration":166.66649999999208,"noteNumber":61,"velocity":85,"programNumber":32},{"time":168888.71999999974,"duration":166.66649999999208,"noteNumber":62,"velocity":85,"programNumber":32},{"time":169110.94199999972,"duration":166.66649999999208,"noteNumber":74,"velocity":85,"programNumber":32},{"time":169333.1639999997,"duration":166.66649999999208,"noteNumber":74,"velocity":85,"programNumber":32},{"time":169555.38599999968,"duration":166.66649999999208,"noteNumber":74,"velocity":85,"programNumber":32},{"time":169777.60799999966,"duration":166.66649999999208,"noteNumber":74,"velocity":85,"programNumber":32},{"time":169999.82999999964,"duration":166.66649999999208,"noteNumber":74,"velocity":85,"programNumber":32},{"time":170222.05199999962,"duration":166.66649999999208,"noteNumber":74,"velocity":85,"programNumber":32},{"time":170444.2739999996,"duration":166.66649999999208,"noteNumber":74,"velocity":85,"programNumber":32},{"time":170666.49599999958,"duration":222.22200000000885,"noteNumber":74,"velocity":85,"programNumber":32},{"time":170888.7179999996,"duration":166.66649999999208,"noteNumber":69,"velocity":85,"programNumber":32},{"time":171110.93999999957,"duration":111.11100000000442,"noteNumber":69,"velocity":85,"programNumber":32},{"time":171333.16199999957,"duration":111.11100000000442,"noteNumber":69,"velocity":85,"programNumber":32},{"time":171555.38399999958,"duration":166.66649999999208,"noteNumber":69,"velocity":85,"programNumber":32},{"time":171777.60599999956,"duration":166.66649999999208,"noteNumber":69,"velocity":85,"programNumber":32},{"time":171999.82799999954,"duration":166.66649999999208,"noteNumber":69,"velocity":85,"programNumber":32},{"time":172222.04999999952,"duration":166.66649999999208,"noteNumber":67,"velocity":85,"programNumber":32},{"time":172444.2719999995,"duration":166.66649999999208,"noteNumber":62,"velocity":85,"programNumber":32},{"time":172666.49399999948,"duration":166.66649999999208,"noteNumber":62,"velocity":53,"programNumber":32},{"time":172888.71599999946,"duration":166.66649999999208,"noteNumber":64,"velocity":53,"programNumber":32},{"time":173110.93799999944,"duration":166.66649999999208,"noteNumber":64,"velocity":53,"programNumber":32},{"time":173333.15999999942,"duration":166.66649999999208,"noteNumber":66,"velocity":53,"programNumber":32},{"time":173555.3819999994,"duration":166.66649999999208,"noteNumber":66,"velocity":53,"programNumber":32},{"time":173777.60399999938,"duration":166.66649999999208,"noteNumber":62,"velocity":53,"programNumber":32},{"time":173999.82599999936,"duration":166.66649999999208,"noteNumber":62,"velocity":53,"programNumber":32},{"time":174222.04799999934,"duration":166.66649999999208,"noteNumber":61,"velocity":55,"programNumber":32},{"time":174444.26999999932,"duration":166.66649999999208,"noteNumber":61,"velocity":55,"programNumber":32},{"time":174666.4919999993,"duration":166.66649999999208,"noteNumber":62,"velocity":55,"programNumber":32},{"time":174888.71399999928,"duration":166.66649999999208,"noteNumber":62,"velocity":55,"programNumber":32},{"time":175110.93599999926,"duration":166.66649999999208,"noteNumber":64,"velocity":55,"programNumber":32},{"time":175333.15799999924,"duration":166.66649999999208,"noteNumber":64,"velocity":55,"programNumber":32},{"time":175555.37999999922,"duration":166.66649999999208,"noteNumber":61,"velocity":55,"programNumber":32},{"time":175777.6019999992,"duration":166.66649999999208,"noteNumber":61,"velocity":55,"programNumber":32},{"time":175999.82399999918,"duration":166.66649999999208,"noteNumber":62,"velocity":55,"programNumber":32},{"time":176222.04599999916,"duration":166.66649999999208,"noteNumber":62,"velocity":55,"programNumber":32},{"time":176444.26799999914,"duration":166.66649999999208,"noteNumber":64,"velocity":55,"programNumber":32},{"time":176666.48999999912,"duration":166.66649999999208,"noteNumber":64,"velocity":55,"programNumber":32},{"time":176888.7119999991,"duration":166.66649999999208,"noteNumber":66,"velocity":55,"programNumber":32},{"time":177110.93399999908,"duration":166.66649999999208,"noteNumber":66,"velocity":55,"programNumber":32},{"time":177333.15599999906,"duration":166.66649999999208,"noteNumber":62,"velocity":55,"programNumber":32},{"time":177555.37799999904,"duration":166.66649999999208,"noteNumber":62,"velocity":55,"programNumber":32},{"time":177777.59999999902,"duration":166.66649999999208,"noteNumber":61,"velocity":55,"programNumber":32},{"time":177999.821999999,"duration":166.66649999999208,"noteNumber":61,"velocity":55,"programNumber":32},{"time":178222.04399999898,"duration":166.66649999999208,"noteNumber":62,"velocity":55,"programNumber":32},{"time":178444.26599999896,"duration":166.66649999999208,"noteNumber":62,"velocity":55,"programNumber":32},{"time":178666.48799999894,"duration":166.66649999999208,"noteNumber":64,"velocity":55,"programNumber":32},{"time":178888.70999999892,"duration":166.66649999999208,"noteNumber":64,"velocity":55,"programNumber":32},{"time":179110.9319999989,"duration":166.66649999999208,"noteNumber":61,"velocity":55,"programNumber":32},{"time":179333.15399999887,"duration":166.66649999999208,"noteNumber":61,"velocity":55,"programNumber":32},{"time":179555.37599999885,"duration":166.66649999999208,"noteNumber":62,"velocity":55,"programNumber":32},{"time":179777.59799999883,"duration":166.66649999999208,"noteNumber":62,"velocity":85,"programNumber":32},{"time":179999.8199999988,"duration":166.66649999999208,"noteNumber":66,"velocity":85,"programNumber":32},{"time":180222.0419999988,"duration":166.66649999999208,"noteNumber":64,"velocity":85,"programNumber":32},{"time":180444.26399999877,"duration":166.66649999999208,"noteNumber":63,"velocity":85,"programNumber":32},{"time":180666.48599999875,"duration":166.66649999999208,"noteNumber":59,"velocity":85,"programNumber":32},{"time":180888.70799999873,"duration":166.66649999999208,"noteNumber":61,"velocity":85,"programNumber":32},{"time":181110.9299999987,"duration":166.66649999999208,"noteNumber":62,"velocity":85,"programNumber":32},{"time":181333.1519999987,"duration":166.66649999999208,"noteNumber":64,"velocity":85,"programNumber":32},{"time":181555.37399999867,"duration":166.66649999999208,"noteNumber":67,"velocity":85,"programNumber":32},{"time":181777.59599999865,"duration":166.66649999999208,"noteNumber":64,"velocity":85,"programNumber":32},{"time":181999.81799999863,"duration":166.66649999999208,"noteNumber":62,"velocity":85,"programNumber":32},{"time":182222.0399999986,"duration":166.66649999999208,"noteNumber":61,"velocity":85,"programNumber":32},{"time":182444.2619999986,"duration":166.66649999999208,"noteNumber":57,"velocity":85,"programNumber":32},{"time":182666.48399999857,"duration":166.66649999999208,"noteNumber":59,"velocity":85,"programNumber":32},{"time":182888.70599999855,"duration":166.66649999999208,"noteNumber":61,"velocity":85,"programNumber":32},{"time":183110.92799999853,"duration":166.66649999999208,"noteNumber":62,"velocity":85,"programNumber":32},{"time":183333.1499999985,"duration":166.66649999999208,"noteNumber":74,"velocity":85,"programNumber":32},{"time":183555.3719999985,"duration":166.66649999999208,"noteNumber":74,"velocity":85,"programNumber":32},{"time":183777.59399999847,"duration":166.66649999999208,"noteNumber":74,"velocity":85,"programNumber":32},{"time":183999.81599999845,"duration":166.66649999999208,"noteNumber":74,"velocity":85,"programNumber":32},{"time":184222.03799999843,"duration":166.66649999999208,"noteNumber":74,"velocity":85,"programNumber":32},{"time":184444.2599999984,"duration":166.66649999999208,"noteNumber":74,"velocity":85,"programNumber":32},{"time":184666.4819999984,"duration":166.66649999999208,"noteNumber":74,"velocity":85,"programNumber":32},{"time":184888.70399999837,"duration":222.22200000000885,"noteNumber":74,"velocity":85,"programNumber":32},{"time":185110.92599999838,"duration":166.66649999999208,"noteNumber":69,"velocity":85,"programNumber":32},{"time":185333.14799999836,"duration":111.11100000000442,"noteNumber":69,"velocity":85,"programNumber":32},{"time":185555.36999999837,"duration":111.11100000000442,"noteNumber":69,"velocity":85,"programNumber":32},{"time":185777.59199999837,"duration":166.66649999999208,"noteNumber":69,"velocity":85,"programNumber":32},{"time":185999.81399999835,"duration":166.66649999999208,"noteNumber":69,"velocity":85,"programNumber":32},{"time":186222.03599999833,"duration":166.66649999999208,"noteNumber":69,"velocity":85,"programNumber":32},{"time":186444.2579999983,"duration":166.66649999999208,"noteNumber":67,"velocity":85,"programNumber":32},{"time":186666.4799999983,"duration":166.66649999999208,"noteNumber":66,"velocity":85,"programNumber":32},{"time":186888.70199999827,"duration":166.66649999999208,"noteNumber":57,"velocity":85,"programNumber":32},{"time":187110.92399999825,"duration":166.66649999999208,"noteNumber":59,"velocity":85,"programNumber":32},{"time":187333.14599999823,"duration":166.66649999999208,"noteNumber":61,"velocity":85,"programNumber":32},{"time":187555.3679999982,"duration":166.66649999999208,"noteNumber":62,"velocity":85,"programNumber":32},{"time":187777.5899999982,"duration":166.66649999999208,"noteNumber":62,"velocity":85,"programNumber":32},{"time":187999.81199999817,"duration":166.66649999999208,"noteNumber":64,"velocity":85,"programNumber":32},{"time":188222.03399999815,"duration":166.66649999999208,"noteNumber":64,"velocity":85,"programNumber":32},{"time":188444.25599999813,"duration":166.66649999999208,"noteNumber":66,"velocity":85,"programNumber":32},{"time":188666.4779999981,"duration":166.66649999999208,"noteNumber":61,"velocity":85,"programNumber":32},{"time":188888.6999999981,"duration":166.66649999999208,"noteNumber":62,"velocity":85,"programNumber":32},{"time":189110.92199999807,"duration":166.66649999999208,"noteNumber":64,"velocity":85,"programNumber":32},{"time":189333.14399999805,"duration":166.66649999999208,"noteNumber":66,"velocity":85,"programNumber":32},{"time":189555.36599999803,"duration":166.66649999999208,"noteNumber":66,"velocity":85,"programNumber":32},{"time":189777.587999998,"duration":166.66649999999208,"noteNumber":67,"velocity":85,"programNumber":32},{"time":189999.809999998,"duration":166.66649999999208,"noteNumber":67,"velocity":85,"programNumber":32},{"time":190222.03199999797,"duration":166.66649999999208,"noteNumber":69,"velocity":85,"programNumber":32},{"time":190444.25399999795,"duration":166.66649999999208,"noteNumber":69,"velocity":85,"programNumber":32},{"time":190666.47599999793,"duration":166.66649999999208,"noteNumber":70,"velocity":85,"programNumber":32},{"time":190888.6979999979,"duration":166.66649999999208,"noteNumber":70,"velocity":85,"programNumber":32},{"time":191110.9199999979,"duration":444.4439999999886,"noteNumber":71,"velocity":85,"programNumber":32},{"time":191999.80799999787,"duration":1333.3319999999949,"noteNumber":64,"velocity":55,"programNumber":32},{"time":193333.13999999786,"duration":222.22200000000885,"noteNumber":62,"velocity":55,"programNumber":32},{"time":193555.36199999787,"duration":222.22200000000885,"noteNumber":61,"velocity":55,"programNumber":32},{"time":193777.58399999788,"duration":222.22200000000885,"noteNumber":62,"velocity":55,"programNumber":32},{"time":194222.0279999979,"duration":222.22200000000885,"noteNumber":62,"velocity":55,"programNumber":32},{"time":194666.4719999979,"duration":222.22200000000885,"noteNumber":62,"velocity":55,"programNumber":32},{"time":195555.35999999792,"duration":444.4439999999886,"noteNumber":62,"velocity":89,"programNumber":32},{"time":196222.02599999792,"duration":166.66649999999208,"noteNumber":57,"velocity":89,"programNumber":32},{"time":196444.2479999979,"duration":444.4439999999886,"noteNumber":62,"velocity":89,"programNumber":32},{"time":197110.9139999979,"duration":166.66649999999208,"noteNumber":57,"velocity":89,"programNumber":32},{"time":197333.13599999787,"duration":166.66649999999208,"noteNumber":62,"velocity":89,"programNumber":32},{"time":197555.35799999785,"duration":166.66649999999208,"noteNumber":57,"velocity":89,"programNumber":32},{"time":197777.57999999783,"duration":166.66649999999208,"noteNumber":62,"velocity":89,"programNumber":32},{"time":197999.8019999978,"duration":166.66649999999208,"noteNumber":66,"velocity":89,"programNumber":32},{"time":198222.0239999978,"duration":444.4439999999886,"noteNumber":69,"velocity":89,"programNumber":32},{"time":199110.91199999777,"duration":444.4439999999886,"noteNumber":69,"velocity":89,"programNumber":32},{"time":199777.57799999777,"duration":166.66649999999208,"noteNumber":66,"velocity":89,"programNumber":32},{"time":199999.79999999775,"duration":444.4439999999886,"noteNumber":69,"velocity":89,"programNumber":32},{"time":200666.46599999774,"duration":166.66649999999208,"noteNumber":66,"velocity":89,"programNumber":32},{"time":200888.68799999772,"duration":166.66649999999208,"noteNumber":69,"velocity":89,"programNumber":32},{"time":201110.9099999977,"duration":166.66649999999208,"noteNumber":66,"velocity":89,"programNumber":32},{"time":201333.13199999768,"duration":166.66649999999208,"noteNumber":63,"velocity":89,"programNumber":32},{"time":201555.35399999766,"duration":166.66649999999208,"noteNumber":66,"velocity":89,"programNumber":32},{"time":201777.57599999764,"duration":444.4439999999886,"noteNumber":59,"velocity":89,"programNumber":32},{"time":202666.46399999762,"duration":166.66649999999208,"noteNumber":60,"velocity":55,"programNumber":32},{"time":202888.6859999976,"duration":166.66649999999208,"noteNumber":60,"velocity":55,"programNumber":32},{"time":203110.90799999758,"duration":166.66649999999208,"noteNumber":62,"velocity":55,"programNumber":32},{"time":203333.12999999756,"duration":166.66649999999208,"noteNumber":62,"velocity":55,"programNumber":32},{"time":203555.35199999754,"duration":166.66649999999208,"noteNumber":64,"velocity":55,"programNumber":32},{"time":203777.57399999752,"duration":166.66649999999208,"noteNumber":64,"velocity":55,"programNumber":32},{"time":203999.7959999975,"duration":166.66649999999208,"noteNumber":60,"velocity":55,"programNumber":32},{"time":204222.01799999748,"duration":166.66649999999208,"noteNumber":60,"velocity":55,"programNumber":32},{"time":204444.23999999746,"duration":166.66649999999208,"noteNumber":59,"velocity":55,"programNumber":32},{"time":204666.46199999744,"duration":166.66649999999208,"noteNumber":59,"velocity":55,"programNumber":32},{"time":204888.68399999742,"duration":166.66649999999208,"noteNumber":60,"velocity":55,"programNumber":32},{"time":205110.9059999974,"duration":166.66649999999208,"noteNumber":60,"velocity":55,"programNumber":32},{"time":205333.12799999738,"duration":166.66649999999208,"noteNumber":62,"velocity":55,"programNumber":32},{"time":205555.34999999736,"duration":166.66649999999208,"noteNumber":62,"velocity":55,"programNumber":32},{"time":205777.57199999734,"duration":166.66649999999208,"noteNumber":59,"velocity":55,"programNumber":32},{"time":205999.79399999732,"duration":166.66649999999208,"noteNumber":59,"velocity":55,"programNumber":32},{"time":206222.0159999973,"duration":166.66649999999208,"noteNumber":60,"velocity":55,"programNumber":32},{"time":206444.23799999728,"duration":166.66649999999208,"noteNumber":60,"velocity":55,"programNumber":32},{"time":206666.45999999726,"duration":166.66649999999208,"noteNumber":62,"velocity":55,"programNumber":32},{"time":206888.68199999724,"duration":166.66649999999208,"noteNumber":62,"velocity":55,"programNumber":32},{"time":207110.90399999722,"duration":166.66649999999208,"noteNumber":64,"velocity":55,"programNumber":32},{"time":207333.1259999972,"duration":166.66649999999208,"noteNumber":64,"velocity":55,"programNumber":32},{"time":207555.34799999718,"duration":166.66649999999208,"noteNumber":60,"velocity":55,"programNumber":32},{"time":207777.56999999715,"duration":166.66649999999208,"noteNumber":60,"velocity":55,"programNumber":32},{"time":207999.79199999713,"duration":166.66649999999208,"noteNumber":59,"velocity":55,"programNumber":32},{"time":208222.0139999971,"duration":166.66649999999208,"noteNumber":59,"velocity":55,"programNumber":32},{"time":208444.2359999971,"duration":166.66649999999208,"noteNumber":60,"velocity":55,"programNumber":32},{"time":208666.45799999707,"duration":166.66649999999208,"noteNumber":60,"velocity":55,"programNumber":32},{"time":208888.67999999705,"duration":166.66649999999208,"noteNumber":62,"velocity":55,"programNumber":32},{"time":209110.90199999703,"duration":166.66649999999208,"noteNumber":62,"velocity":55,"programNumber":32},{"time":209333.123999997,"duration":166.66649999999208,"noteNumber":59,"velocity":55,"programNumber":32},{"time":209555.345999997,"duration":166.66649999999208,"noteNumber":59,"velocity":55,"programNumber":32},{"time":209777.56799999697,"duration":166.66649999999208,"noteNumber":60,"velocity":55,"programNumber":32},{"time":209999.78999999695,"duration":166.66649999999208,"noteNumber":60,"velocity":55,"programNumber":32},{"time":210222.01199999693,"duration":166.66649999999208,"noteNumber":62,"velocity":55,"programNumber":32},{"time":210444.2339999969,"duration":166.66649999999208,"noteNumber":62,"velocity":55,"programNumber":32},{"time":210666.4559999969,"duration":166.66649999999208,"noteNumber":64,"velocity":55,"programNumber":32},{"time":210888.67799999687,"duration":166.66649999999208,"noteNumber":64,"velocity":55,"programNumber":32},{"time":211110.89999999685,"duration":166.66649999999208,"noteNumber":60,"velocity":55,"programNumber":32},{"time":211333.12199999683,"duration":166.66649999999208,"noteNumber":60,"velocity":55,"programNumber":32},{"time":211555.3439999968,"duration":166.66649999999208,"noteNumber":59,"velocity":55,"programNumber":32},{"time":211777.5659999968,"duration":166.66649999999208,"noteNumber":59,"velocity":55,"programNumber":32},{"time":211999.78799999677,"duration":166.66649999999208,"noteNumber":60,"velocity":55,"programNumber":32},{"time":212222.00999999675,"duration":166.66649999999208,"noteNumber":60,"velocity":55,"programNumber":32},{"time":212444.23199999673,"duration":166.66649999999208,"noteNumber":62,"velocity":55,"programNumber":32},{"time":212666.4539999967,"duration":166.66649999999208,"noteNumber":62,"velocity":55,"programNumber":32},{"time":212888.6759999967,"duration":166.66649999999208,"noteNumber":59,"velocity":55,"programNumber":32},{"time":213110.89799999667,"duration":166.66649999999208,"noteNumber":59,"velocity":55,"programNumber":32},{"time":213333.11999999665,"duration":166.66649999999208,"noteNumber":57,"velocity":55,"programNumber":32},{"time":213555.34199999663,"duration":166.66649999999208,"noteNumber":57,"velocity":55,"programNumber":32},{"time":213777.5639999966,"duration":166.66649999999208,"noteNumber":59,"velocity":55,"programNumber":32},{"time":213999.7859999966,"duration":166.66649999999208,"noteNumber":59,"velocity":55,"programNumber":32},{"time":214222.00799999657,"duration":166.66649999999208,"noteNumber":60,"velocity":55,"programNumber":32},{"time":214444.22999999655,"duration":166.66649999999208,"noteNumber":60,"velocity":55,"programNumber":32},{"time":214666.45199999653,"duration":166.66649999999208,"noteNumber":57,"velocity":55,"programNumber":32},{"time":214888.6739999965,"duration":166.66649999999208,"noteNumber":57,"velocity":55,"programNumber":32},{"time":215110.8959999965,"duration":166.66649999999208,"noteNumber":57,"velocity":55,"programNumber":32},{"time":215333.11799999647,"duration":166.66649999999208,"noteNumber":57,"velocity":55,"programNumber":32},{"time":215555.33999999645,"duration":166.66649999999208,"noteNumber":58,"velocity":55,"programNumber":32},{"time":215777.56199999643,"duration":166.66649999999208,"noteNumber":58,"velocity":55,"programNumber":32},{"time":215999.7839999964,"duration":166.66649999999208,"noteNumber":60,"velocity":55,"programNumber":32},{"time":216222.00599999639,"duration":166.66649999999208,"noteNumber":60,"velocity":55,"programNumber":32},{"time":216444.22799999636,"duration":166.66649999999208,"noteNumber":57,"velocity":55,"programNumber":32},{"time":216666.44999999634,"duration":166.66649999999208,"noteNumber":57,"velocity":55,"programNumber":32},{"time":216888.67199999632,"duration":166.66649999999208,"noteNumber":55,"velocity":55,"programNumber":32},{"time":217110.8939999963,"duration":166.66649999999208,"noteNumber":55,"velocity":55,"programNumber":32},{"time":217333.11599999628,"duration":166.66649999999208,"noteNumber":54,"velocity":55,"programNumber":32},{"time":217555.33799999626,"duration":166.66649999999208,"noteNumber":54,"velocity":55,"programNumber":32},{"time":217777.55999999624,"duration":166.66649999999208,"noteNumber":55,"velocity":55,"programNumber":32},{"time":217999.78199999622,"duration":166.66649999999208,"noteNumber":55,"velocity":55,"programNumber":32},{"time":218222.0039999962,"duration":166.66649999999208,"noteNumber":66,"velocity":55,"programNumber":32},{"time":218444.22599999618,"duration":166.66649999999208,"noteNumber":66,"velocity":55,"programNumber":32},{"time":218666.44799999616,"duration":166.66649999999208,"noteNumber":67,"velocity":55,"programNumber":32},{"time":218888.66999999614,"duration":166.66649999999208,"noteNumber":67,"velocity":55,"programNumber":32},{"time":219110.89199999612,"duration":166.66649999999208,"noteNumber":66,"velocity":55,"programNumber":32},{"time":219333.1139999961,"duration":166.66649999999208,"noteNumber":66,"velocity":55,"programNumber":32},{"time":219555.33599999608,"duration":166.66649999999208,"noteNumber":67,"velocity":55,"programNumber":32},{"time":219777.55799999606,"duration":166.66649999999208,"noteNumber":55,"velocity":55,"programNumber":32},{"time":219999.77999999604,"duration":166.66649999999208,"noteNumber":53,"velocity":55,"programNumber":32},{"time":220222.00199999602,"duration":166.66649999999208,"noteNumber":55,"velocity":55,"programNumber":32},{"time":220481.260999996,"duration":444.4439999999886,"noteNumber":57,"velocity":53,"programNumber":32},{"time":221147.926999996,"duration":222.22200000000885,"noteNumber":50,"velocity":91,"programNumber":32},{"time":221370.14899999602,"duration":222.22200000000885,"noteNumber":52,"velocity":91,"programNumber":32},{"time":221592.37099999603,"duration":222.22200000000885,"noteNumber":54,"velocity":91,"programNumber":32},{"time":221814.59299999604,"duration":222.22200000000885,"noteNumber":55,"velocity":91,"programNumber":32},{"time":222036.81499999604,"duration":222.22200000000885,"noteNumber":57,"velocity":91,"programNumber":32},{"time":222259.03699999605,"duration":222.22200000000885,"noteNumber":60,"velocity":91,"programNumber":32},{"time":222481.25899999606,"duration":222.22200000000885,"noteNumber":58,"velocity":91,"programNumber":32},{"time":222925.70299999608,"duration":222.22200000000885,"noteNumber":54,"velocity":91,"programNumber":32},{"time":223147.9249999961,"duration":222.22200000000885,"noteNumber":55,"velocity":91,"programNumber":32},{"time":223370.1469999961,"duration":222.22200000000885,"noteNumber":57,"velocity":91,"programNumber":32},{"time":223592.3689999961,"duration":222.22200000000885,"noteNumber":58,"velocity":91,"programNumber":32},{"time":223814.59099999611,"duration":222.22200000000885,"noteNumber":61,"velocity":91,"programNumber":32},{"time":224036.81299999612,"duration":222.22200000000885,"noteNumber":64,"velocity":53,"programNumber":32},{"time":224259.03499999613,"duration":222.22200000000885,"noteNumber":62,"velocity":53,"programNumber":32},{"time":227555.32799999614,"duration":111.11100000000442,"noteNumber":71,"velocity":68,"programNumber":32},{"time":227777.54999999615,"duration":111.11100000000442,"noteNumber":71,"velocity":68,"programNumber":32},{"time":227999.77199999616,"duration":222.22200000000885,"noteNumber":71,"velocity":68,"programNumber":32},{"time":228221.99399999616,"duration":166.66649999999208,"noteNumber":72,"velocity":68,"programNumber":32},{"time":228444.21599999614,"duration":111.11100000000442,"noteNumber":69,"velocity":68,"programNumber":32},{"time":228666.43799999615,"duration":111.11100000000442,"noteNumber":69,"velocity":68,"programNumber":32},{"time":228888.65999999616,"duration":222.22200000000885,"noteNumber":69,"velocity":68,"programNumber":32},{"time":229110.88199999617,"duration":166.66649999999208,"noteNumber":71,"velocity":68,"programNumber":32},{"time":229333.10399999615,"duration":111.11100000000442,"noteNumber":67,"velocity":68,"programNumber":32},{"time":229555.32599999616,"duration":111.11100000000442,"noteNumber":67,"velocity":68,"programNumber":32},{"time":229777.54799999617,"duration":222.22200000000885,"noteNumber":67,"velocity":68,"programNumber":32},{"time":229999.76999999618,"duration":166.66649999999208,"noteNumber":71,"velocity":68,"programNumber":32},{"time":230221.99199999616,"duration":222.22200000000885,"noteNumber":71,"velocity":68,"programNumber":32},{"time":230444.21399999617,"duration":166.66649999999208,"noteNumber":69,"velocity":68,"programNumber":32},{"time":230666.43599999615,"duration":111.11100000000442,"noteNumber":67,"velocity":68,"programNumber":32},{"time":230888.65799999615,"duration":111.11100000000442,"noteNumber":62,"velocity":68,"programNumber":32},{"time":231129.39849999617,"duration":444.4439999999886,"noteNumber":59,"velocity":93,"programNumber":32},{"time":231796.06449999617,"duration":111.11100000000442,"noteNumber":62,"velocity":92,"programNumber":32},{"time":232018.28649999617,"duration":444.4439999999886,"noteNumber":67,"velocity":92,"programNumber":32},{"time":232684.95249999617,"duration":111.11100000000442,"noteNumber":62,"velocity":91,"programNumber":32},{"time":232907.17449999618,"duration":111.11100000000442,"noteNumber":67,"velocity":90,"programNumber":32},{"time":233129.3964999962,"duration":111.11100000000442,"noteNumber":62,"velocity":90,"programNumber":32},{"time":233351.6184999962,"duration":111.11100000000442,"noteNumber":67,"velocity":90,"programNumber":32},{"time":233573.8404999962,"duration":111.11100000000442,"noteNumber":71,"velocity":90,"programNumber":32},{"time":233796.06249999622,"duration":444.4439999999886,"noteNumber":74,"velocity":89,"programNumber":32},{"time":234684.9504999962,"duration":444.4439999999886,"noteNumber":72,"velocity":88,"programNumber":32},{"time":235351.6164999962,"duration":111.11100000000442,"noteNumber":69,"velocity":87,"programNumber":32},{"time":235573.8384999962,"duration":444.4439999999886,"noteNumber":72,"velocity":86,"programNumber":32},{"time":236240.5044999962,"duration":111.11100000000442,"noteNumber":69,"velocity":85,"programNumber":32},{"time":236462.7264999962,"duration":111.11100000000442,"noteNumber":72,"velocity":85,"programNumber":32},{"time":236684.94849999622,"duration":111.11100000000442,"noteNumber":69,"velocity":85,"programNumber":32},{"time":236907.17049999622,"duration":111.11100000000442,"noteNumber":66,"velocity":85,"programNumber":32},{"time":237129.39249999623,"duration":111.11100000000442,"noteNumber":69,"velocity":85,"programNumber":32},{"time":237351.61449999624,"duration":444.4439999999886,"noteNumber":62,"velocity":85,"programNumber":32},{"time":238221.98399999624,"duration":166.66649999999208,"noteNumber":67,"velocity":85,"programNumber":32},{"time":238444.20599999622,"duration":166.66649999999208,"noteNumber":67,"velocity":85,"programNumber":32},{"time":238666.4279999962,"duration":166.66649999999208,"noteNumber":67,"velocity":85,"programNumber":32},{"time":238888.64999999618,"duration":166.66649999999208,"noteNumber":67,"velocity":85,"programNumber":32},{"time":239110.87199999616,"duration":166.66649999999208,"noteNumber":67,"velocity":85,"programNumber":32},{"time":239333.09399999614,"duration":166.66649999999208,"noteNumber":67,"velocity":85,"programNumber":32},{"time":239555.31599999612,"duration":166.66649999999208,"noteNumber":67,"velocity":85,"programNumber":32},{"time":239777.5379999961,"duration":166.66649999999208,"noteNumber":67,"velocity":85,"programNumber":32},{"time":239999.75999999608,"duration":166.66649999999208,"noteNumber":69,"velocity":85,"programNumber":32},{"time":240221.98199999606,"duration":166.66649999999208,"noteNumber":69,"velocity":85,"programNumber":32},{"time":240444.20399999604,"duration":166.66649999999208,"noteNumber":69,"velocity":85,"programNumber":32},{"time":240666.42599999602,"duration":166.66649999999208,"noteNumber":69,"velocity":85,"programNumber":32},{"time":240888.647999996,"duration":222.22200000000885,"noteNumber":69,"velocity":85,"programNumber":32},{"time":241110.869999996,"duration":166.66649999999208,"noteNumber":72,"velocity":85,"programNumber":32},{"time":241333.091999996,"duration":222.22200000000885,"noteNumber":66,"velocity":85,"programNumber":32},{"time":241555.313999996,"duration":166.66649999999208,"noteNumber":69,"velocity":85,"programNumber":32},{"time":241777.53599999598,"duration":166.66649999999208,"noteNumber":67,"velocity":85,"programNumber":32},{"time":241999.75799999596,"duration":166.66649999999208,"noteNumber":67,"velocity":85,"programNumber":32},{"time":242221.97999999594,"duration":166.66649999999208,"noteNumber":67,"velocity":85,"programNumber":32},{"time":242444.20199999592,"duration":166.66649999999208,"noteNumber":67,"velocity":85,"programNumber":32},{"time":242666.4239999959,"duration":166.66649999999208,"noteNumber":67,"velocity":85,"programNumber":32},{"time":242888.64599999588,"duration":166.66649999999208,"noteNumber":67,"velocity":85,"programNumber":32},{"time":243110.86799999585,"duration":166.66649999999208,"noteNumber":67,"velocity":85,"programNumber":32},{"time":243333.08999999583,"duration":166.66649999999208,"noteNumber":67,"velocity":85,"programNumber":32},{"time":243555.3119999958,"duration":166.66649999999208,"noteNumber":69,"velocity":85,"programNumber":32},{"time":243777.5339999958,"duration":166.66649999999208,"noteNumber":69,"velocity":85,"programNumber":32},{"time":243999.75599999577,"duration":166.66649999999208,"noteNumber":69,"velocity":85,"programNumber":32},{"time":244221.97799999575,"duration":166.66649999999208,"noteNumber":69,"velocity":85,"programNumber":32},{"time":244444.19999999573,"duration":222.22200000000885,"noteNumber":69,"velocity":85,"programNumber":32},{"time":244666.42199999574,"duration":166.66649999999208,"noteNumber":72,"velocity":85,"programNumber":32},{"time":244888.64399999572,"duration":222.22200000000885,"noteNumber":66,"velocity":85,"programNumber":32},{"time":245110.86599999573,"duration":166.66649999999208,"noteNumber":69,"velocity":85,"programNumber":32},{"time":245333.0879999957,"duration":74.07399999999325,"noteNumber":62,"velocity":85,"programNumber":32},{"time":245444.19899999571,"duration":74.07399999999325,"noteNumber":62,"velocity":85,"programNumber":32},{"time":245555.30999999572,"duration":74.07399999999325,"noteNumber":62,"velocity":85,"programNumber":32},{"time":245666.42099999572,"duration":74.07399999999325,"noteNumber":62,"velocity":85,"programNumber":32},{"time":245777.53199999573,"duration":74.07399999999325,"noteNumber":62,"velocity":85,"programNumber":32},{"time":245888.64299999573,"duration":74.07399999999325,"noteNumber":62,"velocity":85,"programNumber":32},{"time":245999.75399999574,"duration":74.07399999999325,"noteNumber":62,"velocity":85,"programNumber":32},{"time":246110.86499999574,"duration":74.07399999999325,"noteNumber":62,"velocity":85,"programNumber":32},{"time":246221.97599999575,"duration":74.07399999999325,"noteNumber":62,"velocity":85,"programNumber":32},{"time":246333.08699999575,"duration":74.07399999999325,"noteNumber":62,"velocity":85,"programNumber":32},{"time":246444.19799999575,"duration":74.07399999999325,"noteNumber":62,"velocity":85,"programNumber":32},{"time":246555.30899999576,"duration":74.07399999999325,"noteNumber":62,"velocity":85,"programNumber":32},{"time":246666.41999999576,"duration":74.07399999999325,"noteNumber":62,"velocity":85,"programNumber":32},{"time":246777.53099999577,"duration":74.07399999999325,"noteNumber":62,"velocity":85,"programNumber":32},{"time":246888.64199999577,"duration":74.07399999999325,"noteNumber":62,"velocity":85,"programNumber":32},{"time":246999.75299999578,"duration":74.07399999999325,"noteNumber":62,"velocity":85,"programNumber":32},{"time":247110.86399999578,"duration":74.07399999999325,"noteNumber":62,"velocity":85,"programNumber":32},{"time":247221.9749999958,"duration":74.07399999999325,"noteNumber":62,"velocity":85,"programNumber":32},{"time":247333.0859999958,"duration":74.07399999999325,"noteNumber":62,"velocity":85,"programNumber":32},{"time":247444.1969999958,"duration":74.07399999999325,"noteNumber":62,"velocity":85,"programNumber":32},{"time":247555.3079999958,"duration":74.07399999999325,"noteNumber":62,"velocity":85,"programNumber":32},{"time":247666.4189999958,"duration":74.07399999999325,"noteNumber":62,"velocity":85,"programNumber":32},{"time":247777.5299999958,"duration":74.07399999999325,"noteNumber":62,"velocity":85,"programNumber":32},{"time":247888.6409999958,"duration":74.07399999999325,"noteNumber":62,"velocity":85,"programNumber":32},{"time":247999.75199999582,"duration":444.4439999999886,"noteNumber":62,"velocity":85,"programNumber":32},{"time":250666.4159999958,"duration":888.8880000000063,"noteNumber":54,"velocity":47,"programNumber":32},{"time":251555.3039999958,"duration":888.8880000000063,"noteNumber":55,"velocity":47,"programNumber":32},{"time":252444.19199999582,"duration":333.33300000001327,"noteNumber":60,"velocity":47,"programNumber":32},{"time":252888.63599999584,"duration":333.33300000001327,"noteNumber":60,"velocity":47,"programNumber":32},{"time":253333.07999999585,"duration":333.33300000001327,"noteNumber":57,"velocity":47,"programNumber":32},{"time":253777.52399999587,"duration":333.33300000001327,"noteNumber":50,"velocity":47,"programNumber":32},{"time":254221.9679999959,"duration":222.22200000000885,"noteNumber":50,"velocity":47,"programNumber":32},{"time":254666.4119999959,"duration":222.22200000000885,"noteNumber":62,"velocity":47,"programNumber":32},{"time":255110.85599999593,"duration":444.4439999999886,"noteNumber":62,"velocity":47,"programNumber":32},{"time":257777.51999999591,"duration":888.8880000000063,"noteNumber":66,"velocity":47,"programNumber":32},{"time":258666.40799999592,"duration":888.8880000000063,"noteNumber":67,"velocity":47,"programNumber":32},{"time":259555.29599999593,"duration":333.33300000001327,"noteNumber":60,"velocity":47,"programNumber":32},{"time":259999.73999999595,"duration":166.66649999999208,"noteNumber":60,"velocity":47,"programNumber":32},{"time":260221.96199999592,"duration":166.66649999999208,"noteNumber":60,"velocity":47,"programNumber":32},{"time":260444.1839999959,"duration":333.33300000001327,"noteNumber":57,"velocity":47,"programNumber":32},{"time":260888.62799999592,"duration":166.66649999999208,"noteNumber":57,"velocity":47,"programNumber":32},{"time":261110.8499999959,"duration":166.66649999999208,"noteNumber":57,"velocity":47,"programNumber":32},{"time":261333.07199999588,"duration":166.66649999999208,"noteNumber":55,"velocity":92,"programNumber":32},{"time":261555.29399999586,"duration":166.66649999999208,"noteNumber":55,"velocity":71,"programNumber":32},{"time":261777.51599999584,"duration":166.66649999999208,"noteNumber":55,"velocity":71,"programNumber":32},{"time":261999.73799999582,"duration":166.66649999999208,"noteNumber":55,"velocity":71,"programNumber":32},{"time":262221.95999999583,"duration":166.66649999999208,"noteNumber":55,"velocity":55,"programNumber":32},{"time":262444.18199999584,"duration":166.66649999999208,"noteNumber":55,"velocity":50,"programNumber":32},{"time":262666.40399999585,"duration":166.66649999999208,"noteNumber":55,"velocity":50,"programNumber":32},{"time":262888.62599999586,"duration":166.66649999999208,"noteNumber":55,"velocity":50,"programNumber":32},{"time":263110.84799999587,"duration":166.66649999999208,"noteNumber":55,"velocity":91,"programNumber":32},{"time":263333.0699999959,"duration":166.66649999999208,"noteNumber":55,"velocity":65,"programNumber":32},{"time":263555.2919999959,"duration":166.66649999999208,"noteNumber":55,"velocity":65,"programNumber":32},{"time":263777.5139999959,"duration":166.66649999999208,"noteNumber":55,"velocity":65,"programNumber":32},{"time":263999.7359999959,"duration":166.66649999999208,"noteNumber":55,"velocity":46,"programNumber":32},{"time":264221.9579999959,"duration":166.66649999999208,"noteNumber":55,"velocity":46,"programNumber":32},{"time":264444.1799999959,"duration":166.66649999999208,"noteNumber":55,"velocity":46,"programNumber":32},{"time":264666.4019999959,"duration":166.66649999999208,"noteNumber":55,"velocity":46,"programNumber":32},{"time":264888.62399999594,"duration":166.66649999999208,"noteNumber":55,"velocity":59,"programNumber":32},{"time":265110.84599999595,"duration":166.66649999999208,"noteNumber":67,"velocity":41,"programNumber":32},{"time":265333.06799999595,"duration":166.66649999999208,"noteNumber":67,"velocity":46,"programNumber":32},{"time":265555.28999999596,"duration":166.66649999999208,"noteNumber":67,"velocity":49,"programNumber":32},{"time":265777.511999996,"duration":166.66649999999208,"noteNumber":67,"velocity":53,"programNumber":32},{"time":265999.733999996,"duration":166.66649999999208,"noteNumber":67,"velocity":56,"programNumber":32},{"time":266221.955999996,"duration":166.66649999999208,"noteNumber":69,"velocity":61,"programNumber":32},{"time":266444.177999996,"duration":166.66649999999208,"noteNumber":69,"velocity":64,"programNumber":32},{"time":266666.399999996,"duration":166.66649999999208,"noteNumber":67,"velocity":68,"programNumber":32},{"time":266888.621999996,"duration":166.66649999999208,"noteNumber":67,"velocity":71,"programNumber":32},{"time":267110.843999996,"duration":166.66649999999208,"noteNumber":66,"velocity":76,"programNumber":32},{"time":267333.06599999603,"duration":166.66649999999208,"noteNumber":66,"velocity":79,"programNumber":32},{"time":267555.28799999604,"duration":166.66649999999208,"noteNumber":67,"velocity":82,"programNumber":32},{"time":267777.50999999605,"duration":166.66649999999208,"noteNumber":67,"velocity":82,"programNumber":32},{"time":267999.73199999606,"duration":166.66649999999208,"noteNumber":64,"velocity":82,"programNumber":32},{"time":268221.95399999607,"duration":166.66649999999208,"noteNumber":64,"velocity":82,"programNumber":32},{"time":268444.1759999961,"duration":74.07400000002235,"noteNumber":62,"velocity":85,"programNumber":32},{"time":268444.1759999961,"duration":74.07400000002235,"noteNumber":69,"velocity":85,"programNumber":32},{"time":268555.2869999961,"duration":74.07400000002235,"noteNumber":62,"velocity":85,"programNumber":32},{"time":268555.2869999961,"duration":74.07400000002235,"noteNumber":69,"velocity":85,"programNumber":32},{"time":268666.39799999614,"duration":74.07400000002235,"noteNumber":62,"velocity":85,"programNumber":32},{"time":268666.39799999614,"duration":74.07400000002235,"noteNumber":69,"velocity":85,"programNumber":32},{"time":268777.5089999962,"duration":74.07400000002235,"noteNumber":62,"velocity":85,"programNumber":32},{"time":268777.5089999962,"duration":74.07400000002235,"noteNumber":69,"velocity":85,"programNumber":32},{"time":268888.6199999962,"duration":74.07400000002235,"noteNumber":62,"velocity":85,"programNumber":32},{"time":268888.6199999962,"duration":74.07400000002235,"noteNumber":69,"velocity":85,"programNumber":32},{"time":268999.73099999625,"duration":74.07400000002235,"noteNumber":62,"velocity":85,"programNumber":32},{"time":268999.73099999625,"duration":74.07400000002235,"noteNumber":69,"velocity":85,"programNumber":32},{"time":269110.8419999963,"duration":74.07400000002235,"noteNumber":62,"velocity":85,"programNumber":32},{"time":269110.8419999963,"duration":74.07400000002235,"noteNumber":69,"velocity":85,"programNumber":32},{"time":269221.9529999963,"duration":74.07400000002235,"noteNumber":62,"velocity":85,"programNumber":32},{"time":269221.9529999963,"duration":74.07400000002235,"noteNumber":69,"velocity":85,"programNumber":32},{"time":269333.06399999635,"duration":74.07400000002235,"noteNumber":64,"velocity":85,"programNumber":32},{"time":269333.06399999635,"duration":74.07400000002235,"noteNumber":69,"velocity":85,"programNumber":32},{"time":269444.1749999964,"duration":74.07400000002235,"noteNumber":64,"velocity":85,"programNumber":32},{"time":269444.1749999964,"duration":74.07400000002235,"noteNumber":69,"velocity":85,"programNumber":32},{"time":269555.2859999964,"duration":74.07400000002235,"noteNumber":64,"velocity":85,"programNumber":32},{"time":269555.2859999964,"duration":74.07400000002235,"noteNumber":69,"velocity":85,"programNumber":32},{"time":269666.39699999645,"duration":74.07400000002235,"noteNumber":64,"velocity":85,"programNumber":32},{"time":269666.39699999645,"duration":74.07400000002235,"noteNumber":69,"velocity":85,"programNumber":32},{"time":269777.5079999965,"duration":74.07400000002235,"noteNumber":64,"velocity":85,"programNumber":32},{"time":269777.5079999965,"duration":74.07400000002235,"noteNumber":69,"velocity":85,"programNumber":32},{"time":269888.6189999965,"duration":74.07400000002235,"noteNumber":64,"velocity":85,"programNumber":32},{"time":269888.6189999965,"duration":74.07400000002235,"noteNumber":69,"velocity":85,"programNumber":32},{"time":269999.72999999655,"duration":74.07400000002235,"noteNumber":64,"velocity":85,"programNumber":32},{"time":269999.72999999655,"duration":74.07400000002235,"noteNumber":69,"velocity":85,"programNumber":32},{"time":270110.8409999966,"duration":74.07400000002235,"noteNumber":64,"velocity":85,"programNumber":32},{"time":270110.8409999966,"duration":74.07400000002235,"noteNumber":69,"velocity":85,"programNumber":32},{"time":270221.9519999966,"duration":74.07400000002235,"noteNumber":62,"velocity":85,"programNumber":32},{"time":270221.9519999966,"duration":74.07400000002235,"noteNumber":69,"velocity":85,"programNumber":32},{"time":270333.06299999665,"duration":74.07400000002235,"noteNumber":62,"velocity":85,"programNumber":32},{"time":270333.06299999665,"duration":74.07400000002235,"noteNumber":69,"velocity":85,"programNumber":32},{"time":270444.1739999967,"duration":74.07400000002235,"noteNumber":62,"velocity":85,"programNumber":32},{"time":270444.1739999967,"duration":74.07400000002235,"noteNumber":69,"velocity":85,"programNumber":32},{"time":270555.2849999967,"duration":74.07400000002235,"noteNumber":62,"velocity":85,"programNumber":32},{"time":270555.2849999967,"duration":74.07400000002235,"noteNumber":69,"velocity":85,"programNumber":32},{"time":270666.39599999675,"duration":74.07400000002235,"noteNumber":62,"velocity":85,"programNumber":32},{"time":270666.39599999675,"duration":74.07400000002235,"noteNumber":69,"velocity":85,"programNumber":32},{"time":270777.5069999968,"duration":74.07400000002235,"noteNumber":62,"velocity":85,"programNumber":32},{"time":270777.5069999968,"duration":74.07400000002235,"noteNumber":69,"velocity":85,"programNumber":32},{"time":270888.6179999968,"duration":74.07400000002235,"noteNumber":62,"velocity":85,"programNumber":32},{"time":270888.6179999968,"duration":74.07400000002235,"noteNumber":69,"velocity":85,"programNumber":32},{"time":270999.72899999685,"duration":74.07400000002235,"noteNumber":62,"velocity":85,"programNumber":32},{"time":270999.72899999685,"duration":74.07400000002235,"noteNumber":69,"velocity":85,"programNumber":32},{"time":271110.8399999969,"duration":74.07400000002235,"noteNumber":64,"velocity":85,"programNumber":32},{"time":271110.8399999969,"duration":74.07400000002235,"noteNumber":69,"velocity":85,"programNumber":32},{"time":271221.9509999969,"duration":74.07400000002235,"noteNumber":64,"velocity":85,"programNumber":32},{"time":271221.9509999969,"duration":74.07400000002235,"noteNumber":69,"velocity":85,"programNumber":32},{"time":271333.06199999695,"duration":74.07400000002235,"noteNumber":64,"velocity":85,"programNumber":32},{"time":271333.06199999695,"duration":74.07400000002235,"noteNumber":69,"velocity":85,"programNumber":32},{"time":271444.172999997,"duration":74.07400000002235,"noteNumber":64,"velocity":85,"programNumber":32},{"time":271444.172999997,"duration":74.07400000002235,"noteNumber":69,"velocity":85,"programNumber":32},{"time":271555.283999997,"duration":74.07400000002235,"noteNumber":64,"velocity":85,"programNumber":32},{"time":271555.283999997,"duration":74.07400000002235,"noteNumber":69,"velocity":85,"programNumber":32},{"time":271666.39499999705,"duration":74.07400000002235,"noteNumber":64,"velocity":85,"programNumber":32},{"time":271666.39499999705,"duration":74.07400000002235,"noteNumber":69,"velocity":85,"programNumber":32},{"time":271777.5059999971,"duration":74.07400000002235,"noteNumber":64,"velocity":85,"programNumber":32},{"time":271777.5059999971,"duration":74.07400000002235,"noteNumber":69,"velocity":85,"programNumber":32},{"time":271888.6169999971,"duration":74.07400000002235,"noteNumber":64,"velocity":85,"programNumber":32},{"time":271888.6169999971,"duration":74.07400000002235,"noteNumber":69,"velocity":85,"programNumber":32},{"time":271999.72799999715,"duration":74.07400000002235,"noteNumber":62,"velocity":85,"programNumber":32},{"time":271999.72799999715,"duration":74.07400000002235,"noteNumber":69,"velocity":85,"programNumber":32},{"time":272110.8389999972,"duration":74.07400000002235,"noteNumber":62,"velocity":85,"programNumber":32},{"time":272110.8389999972,"duration":74.07400000002235,"noteNumber":69,"velocity":85,"programNumber":32},{"time":272221.9499999972,"duration":74.07400000002235,"noteNumber":62,"velocity":85,"programNumber":32},{"time":272221.9499999972,"duration":74.07400000002235,"noteNumber":69,"velocity":85,"programNumber":32},{"time":272333.06099999725,"duration":74.07400000002235,"noteNumber":62,"velocity":85,"programNumber":32},{"time":272333.06099999725,"duration":74.07400000002235,"noteNumber":69,"velocity":85,"programNumber":32},{"time":272444.1719999973,"duration":74.07400000002235,"noteNumber":69,"velocity":85,"programNumber":32},{"time":272444.1719999973,"duration":74.07400000002235,"noteNumber":64,"velocity":85,"programNumber":32},{"time":272555.2829999973,"duration":74.07400000002235,"noteNumber":69,"velocity":85,"programNumber":32},{"time":272555.2829999973,"duration":74.07400000002235,"noteNumber":64,"velocity":85,"programNumber":32},{"time":272666.39399999735,"duration":74.07400000002235,"noteNumber":69,"velocity":85,"programNumber":32},{"time":272666.39399999735,"duration":74.07400000002235,"noteNumber":64,"velocity":85,"programNumber":32},{"time":272777.5049999974,"duration":74.07400000002235,"noteNumber":69,"velocity":85,"programNumber":32},{"time":272777.5049999974,"duration":74.07400000002235,"noteNumber":64,"velocity":85,"programNumber":32},{"time":272888.6159999974,"duration":74.07400000002235,"noteNumber":69,"velocity":85,"programNumber":32},{"time":272888.6159999974,"duration":74.07400000002235,"noteNumber":62,"velocity":85,"programNumber":32},{"time":272999.72699999745,"duration":74.07400000002235,"noteNumber":69,"velocity":85,"programNumber":32},{"time":272999.72699999745,"duration":74.07400000002235,"noteNumber":62,"velocity":85,"programNumber":32},{"time":273110.8379999975,"duration":74.07400000002235,"noteNumber":69,"velocity":85,"programNumber":32},{"time":273110.8379999975,"duration":74.07400000002235,"noteNumber":62,"velocity":85,"programNumber":32},{"time":273221.9489999975,"duration":74.07400000002235,"noteNumber":69,"velocity":85,"programNumber":32},{"time":273221.9489999975,"duration":74.07400000002235,"noteNumber":62,"velocity":85,"programNumber":32},{"time":273333.05999999755,"duration":74.07400000002235,"noteNumber":64,"velocity":85,"programNumber":32},{"time":273333.05999999755,"duration":74.07400000002235,"noteNumber":69,"velocity":85,"programNumber":32},{"time":273444.1709999976,"duration":74.07400000002235,"noteNumber":64,"velocity":85,"programNumber":32},{"time":273444.1709999976,"duration":74.07400000002235,"noteNumber":69,"velocity":85,"programNumber":32},{"time":273555.2819999976,"duration":74.07400000002235,"noteNumber":64,"velocity":85,"programNumber":32},{"time":273555.2819999976,"duration":74.07400000002235,"noteNumber":69,"velocity":85,"programNumber":32},{"time":273666.39299999765,"duration":74.07400000002235,"noteNumber":64,"velocity":85,"programNumber":32},{"time":273666.39299999765,"duration":74.07400000002235,"noteNumber":69,"velocity":85,"programNumber":32},{"time":273788.61509999767,"duration":166.66649999999208,"noteNumber":69,"velocity":85,"programNumber":32},{"time":273788.61509999767,"duration":166.66649999999208,"noteNumber":62,"velocity":85,"programNumber":32},{"time":274010.8370999977,"duration":166.66649999999208,"noteNumber":50,"velocity":85,"programNumber":32},{"time":274233.0590999977,"duration":166.66649999999208,"noteNumber":50,"velocity":85,"programNumber":32},{"time":274455.2810999977,"duration":166.66649999999208,"noteNumber":50,"velocity":85,"programNumber":32},{"time":274677.5030999977,"duration":444.4440000000177,"noteNumber":50,"velocity":85,"programNumber":32},{"time":276888.6119999977,"duration":222.22200000000885,"noteNumber":59,"velocity":55,"programNumber":32},{"time":277333.0559999977,"duration":222.22200000000885,"noteNumber":52,"velocity":55,"programNumber":32},{"time":277777.49999999773,"duration":222.22200000000885,"noteNumber":60,"velocity":55,"programNumber":32},{"time":278221.94399999775,"duration":222.22200000000885,"noteNumber":57,"velocity":55,"programNumber":32},{"time":278666.38799999777,"duration":222.22200000000885,"noteNumber":54,"velocity":55,"programNumber":32},{"time":279555.2759999978,"duration":444.4440000000177,"noteNumber":69,"velocity":55,"programNumber":32},{"time":279999.7199999978,"duration":222.22200000000885,"noteNumber":67,"velocity":55,"programNumber":32},{"time":280444.16399999784,"duration":222.22200000000885,"noteNumber":69,"velocity":55,"programNumber":32},{"time":280888.60799999785,"duration":888.8879999999772,"noteNumber":67,"velocity":55,"programNumber":32},{"time":281777.49599999783,"duration":444.4440000000177,"noteNumber":66,"velocity":55,"programNumber":32},{"time":283110.8279999978,"duration":444.4440000000177,"noteNumber":66,"velocity":55,"programNumber":32},{"time":283555.27199999784,"duration":222.22200000000885,"noteNumber":67,"velocity":55,"programNumber":32},{"time":283999.71599999786,"duration":222.22200000000885,"noteNumber":71,"velocity":55,"programNumber":32},{"time":284444.1599999979,"duration":222.22200000000885,"noteNumber":64,"velocity":55,"programNumber":32},{"time":284888.6039999979,"duration":222.22200000000885,"noteNumber":60,"velocity":55,"programNumber":32},{"time":285333.0479999979,"duration":444.4440000000177,"noteNumber":57,"velocity":55,"programNumber":32},{"time":285999.71399999794,"duration":166.66649999999208,"noteNumber":69,"velocity":55,"programNumber":32},{"time":286221.93599999795,"duration":222.22200000000885,"noteNumber":69,"velocity":55,"programNumber":32},{"time":286444.15799999796,"duration":222.22200000000885,"noteNumber":67,"velocity":55,"programNumber":32},{"time":287999.71199999796,"duration":166.66649999999208,"noteNumber":55,"velocity":55,"programNumber":32},{"time":288221.933999998,"duration":166.66649999999208,"noteNumber":55,"velocity":55,"programNumber":32},{"time":288444.155999998,"duration":166.66649999999208,"noteNumber":57,"velocity":55,"programNumber":32},{"time":288666.377999998,"duration":166.66649999999208,"noteNumber":57,"velocity":55,"programNumber":32},{"time":288888.599999998,"duration":166.66649999999208,"noteNumber":59,"velocity":55,"programNumber":32},{"time":289110.821999998,"duration":166.66649999999208,"noteNumber":59,"velocity":55,"programNumber":32},{"time":289333.043999998,"duration":166.66649999999208,"noteNumber":55,"velocity":55,"programNumber":32},{"time":289555.265999998,"duration":166.66649999999208,"noteNumber":55,"velocity":55,"programNumber":32},{"time":289777.48799999803,"duration":166.66649999999208,"noteNumber":54,"velocity":55,"programNumber":32},{"time":289999.70999999804,"duration":166.66649999999208,"noteNumber":54,"velocity":55,"programNumber":32},{"time":290221.93199999805,"duration":166.66649999999208,"noteNumber":55,"velocity":55,"programNumber":32},{"time":290444.15399999806,"duration":166.66649999999208,"noteNumber":55,"velocity":55,"programNumber":32},{"time":290666.37599999807,"duration":166.66649999999208,"noteNumber":57,"velocity":55,"programNumber":32},{"time":290888.5979999981,"duration":166.66649999999208,"noteNumber":57,"velocity":55,"programNumber":32},{"time":291110.8199999981,"duration":166.66649999999208,"noteNumber":54,"velocity":55,"programNumber":32},{"time":291333.0419999981,"duration":166.66649999999208,"noteNumber":54,"velocity":55,"programNumber":32},{"time":291555.2639999981,"duration":166.66649999999208,"noteNumber":55,"velocity":55,"programNumber":32},{"time":291777.4859999981,"duration":166.66649999999208,"noteNumber":55,"velocity":55,"programNumber":32},{"time":291999.7079999981,"duration":166.66649999999208,"noteNumber":57,"velocity":55,"programNumber":32},{"time":292221.92999999813,"duration":166.66649999999208,"noteNumber":57,"velocity":55,"programNumber":32},{"time":292444.15199999814,"duration":166.66649999999208,"noteNumber":59,"velocity":55,"programNumber":32},{"time":292666.37399999815,"duration":166.66649999999208,"noteNumber":59,"velocity":55,"programNumber":32},{"time":292888.59599999816,"duration":166.66649999999208,"noteNumber":55,"velocity":55,"programNumber":32},{"time":293110.81799999817,"duration":166.66649999999208,"noteNumber":55,"velocity":55,"programNumber":32},{"time":293333.0399999982,"duration":166.66649999999208,"noteNumber":54,"velocity":55,"programNumber":32},{"time":293555.2619999982,"duration":166.66649999999208,"noteNumber":54,"velocity":55,"programNumber":32},{"time":293777.4839999982,"duration":166.66649999999208,"noteNumber":55,"velocity":55,"programNumber":32},{"time":293999.7059999982,"duration":166.66649999999208,"noteNumber":55,"velocity":55,"programNumber":32},{"time":294221.9279999982,"duration":166.66649999999208,"noteNumber":57,"velocity":55,"programNumber":32},{"time":294444.1499999982,"duration":166.66649999999208,"noteNumber":57,"velocity":55,"programNumber":32},{"time":294666.3719999982,"duration":166.66649999999208,"noteNumber":54,"velocity":55,"programNumber":32},{"time":294888.59399999824,"duration":166.66649999999208,"noteNumber":54,"velocity":55,"programNumber":32},{"time":295110.81599999825,"duration":166.66649999999208,"noteNumber":55,"velocity":55,"programNumber":32},{"time":295333.03799999825,"duration":166.66649999999208,"noteNumber":67,"velocity":83,"programNumber":32},{"time":295555.25999999826,"duration":166.66649999999208,"noteNumber":71,"velocity":83,"programNumber":32},{"time":295777.4819999983,"duration":166.66649999999208,"noteNumber":69,"velocity":83,"programNumber":32},{"time":295999.7039999983,"duration":166.66649999999208,"noteNumber":68,"velocity":83,"programNumber":32},{"time":296221.9259999983,"duration":166.66649999999208,"noteNumber":64,"velocity":83,"programNumber":32},{"time":296444.1479999983,"duration":166.66649999999208,"noteNumber":66,"velocity":83,"programNumber":32},{"time":296666.3699999983,"duration":166.66649999999208,"noteNumber":67,"velocity":83,"programNumber":32},{"time":296888.5919999983,"duration":166.66649999999208,"noteNumber":69,"velocity":83,"programNumber":32},{"time":297110.8139999983,"duration":166.66649999999208,"noteNumber":72,"velocity":83,"programNumber":32},{"time":297333.03599999833,"duration":166.66649999999208,"noteNumber":69,"velocity":85,"programNumber":32},{"time":297555.25799999834,"duration":166.66649999999208,"noteNumber":67,"velocity":85,"programNumber":32},{"time":297777.47999999835,"duration":166.66649999999208,"noteNumber":66,"velocity":85,"programNumber":32},{"time":297999.70199999836,"duration":166.66649999999208,"noteNumber":62,"velocity":86,"programNumber":32},{"time":298221.92399999837,"duration":166.66649999999208,"noteNumber":64,"velocity":85,"programNumber":32},{"time":298444.1459999984,"duration":166.66649999999208,"noteNumber":66,"velocity":85,"programNumber":32},{"time":298666.3679999984,"duration":166.66649999999208,"noteNumber":67,"velocity":85,"programNumber":32},{"time":298888.5899999984,"duration":166.66649999999208,"noteNumber":67,"velocity":85,"programNumber":32},{"time":299110.8119999984,"duration":166.66649999999208,"noteNumber":67,"velocity":85,"programNumber":32},{"time":299333.0339999984,"duration":166.66649999999208,"noteNumber":67,"velocity":85,"programNumber":32},{"time":299555.2559999984,"duration":166.66649999999208,"noteNumber":67,"velocity":85,"programNumber":32},{"time":299777.47799999843,"duration":166.66649999999208,"noteNumber":67,"velocity":85,"programNumber":32},{"time":299999.69999999844,"duration":166.66649999999208,"noteNumber":67,"velocity":85,"programNumber":32},{"time":300221.92199999845,"duration":166.66649999999208,"noteNumber":67,"velocity":85,"programNumber":32},{"time":300444.14399999846,"duration":222.22200000000885,"noteNumber":67,"velocity":85,"programNumber":32},{"time":300666.36599999847,"duration":166.66649999999208,"noteNumber":62,"velocity":85,"programNumber":32},{"time":300888.5879999985,"duration":111.11099999997532,"noteNumber":62,"velocity":85,"programNumber":32},{"time":301110.8099999984,"duration":111.11099999997532,"noteNumber":62,"velocity":85,"programNumber":32},{"time":301333.0319999984,"duration":166.66649999999208,"noteNumber":62,"velocity":85,"programNumber":32},{"time":301555.2539999984,"duration":166.66649999999208,"noteNumber":62,"velocity":85,"programNumber":32},{"time":301777.4759999984,"duration":166.66649999999208,"noteNumber":62,"velocity":85,"programNumber":32},{"time":301999.6979999984,"duration":166.66649999999208,"noteNumber":60,"velocity":85,"programNumber":32},{"time":302221.9199999984,"duration":166.66649999999208,"noteNumber":55,"velocity":85,"programNumber":32},{"time":302444.1419999984,"duration":166.66649999999208,"noteNumber":55,"velocity":53,"programNumber":32},{"time":302666.36399999843,"duration":166.66649999999208,"noteNumber":57,"velocity":53,"programNumber":32},{"time":302888.58599999844,"duration":166.66649999999208,"noteNumber":57,"velocity":53,"programNumber":32},{"time":303110.80799999845,"duration":166.66649999999208,"noteNumber":59,"velocity":53,"programNumber":32},{"time":303333.02999999846,"duration":166.66649999999208,"noteNumber":59,"velocity":53,"programNumber":32},{"time":303555.25199999847,"duration":166.66649999999208,"noteNumber":55,"velocity":53,"programNumber":32},{"time":303777.4739999985,"duration":166.66649999999208,"noteNumber":55,"velocity":53,"programNumber":32},{"time":303999.6959999985,"duration":166.66649999999208,"noteNumber":54,"velocity":55,"programNumber":32},{"time":304221.9179999985,"duration":166.66649999999208,"noteNumber":54,"velocity":55,"programNumber":32},{"time":304444.1399999985,"duration":166.66649999999208,"noteNumber":55,"velocity":55,"programNumber":32},{"time":304666.3619999985,"duration":166.66649999999208,"noteNumber":55,"velocity":55,"programNumber":32},{"time":304888.5839999985,"duration":166.66649999999208,"noteNumber":57,"velocity":55,"programNumber":32},{"time":305110.8059999985,"duration":166.66649999999208,"noteNumber":57,"velocity":55,"programNumber":32},{"time":305333.02799999854,"duration":166.66649999999208,"noteNumber":54,"velocity":55,"programNumber":32},{"time":305555.24999999854,"duration":166.66649999999208,"noteNumber":54,"velocity":55,"programNumber":32},{"time":305777.47199999855,"duration":166.66649999999208,"noteNumber":55,"velocity":55,"programNumber":32},{"time":305999.69399999856,"duration":166.66649999999208,"noteNumber":67,"velocity":55,"programNumber":32},{"time":306221.9159999986,"duration":166.66649999999208,"noteNumber":69,"velocity":55,"programNumber":32},{"time":306444.1379999986,"duration":166.66649999999208,"noteNumber":69,"velocity":55,"programNumber":32},{"time":306666.3599999986,"duration":166.66649999999208,"noteNumber":71,"velocity":55,"programNumber":32},{"time":306888.5819999986,"duration":166.66649999999208,"noteNumber":71,"velocity":55,"programNumber":32},{"time":307110.8039999986,"duration":166.66649999999208,"noteNumber":67,"velocity":55,"programNumber":32},{"time":307333.0259999986,"duration":166.66649999999208,"noteNumber":67,"velocity":55,"programNumber":32},{"time":307555.2479999986,"duration":166.66649999999208,"noteNumber":66,"velocity":55,"programNumber":32},{"time":307777.46999999863,"duration":166.66649999999208,"noteNumber":66,"velocity":55,"programNumber":32},{"time":307999.69199999864,"duration":166.66649999999208,"noteNumber":67,"velocity":55,"programNumber":32},{"time":308221.91399999865,"duration":166.66649999999208,"noteNumber":67,"velocity":55,"programNumber":32},{"time":308444.13599999866,"duration":166.66649999999208,"noteNumber":69,"velocity":55,"programNumber":32},{"time":308666.35799999867,"duration":166.66649999999208,"noteNumber":69,"velocity":55,"programNumber":32},{"time":308888.5799999987,"duration":166.66649999999208,"noteNumber":66,"velocity":55,"programNumber":32},{"time":309110.8019999987,"duration":166.66649999999208,"noteNumber":66,"velocity":55,"programNumber":32},{"time":309333.0239999987,"duration":166.66649999999208,"noteNumber":67,"velocity":55,"programNumber":32},{"time":309555.2459999987,"duration":166.66649999999208,"noteNumber":67,"velocity":85,"programNumber":32},{"time":309777.4679999987,"duration":166.66649999999208,"noteNumber":71,"velocity":85,"programNumber":32},{"time":309999.6899999987,"duration":166.66649999999208,"noteNumber":69,"velocity":85,"programNumber":32},{"time":310221.91199999873,"duration":166.66649999999208,"noteNumber":68,"velocity":85,"programNumber":32},{"time":310444.13399999874,"duration":166.66649999999208,"noteNumber":64,"velocity":85,"programNumber":32},{"time":310666.35599999875,"duration":166.66649999999208,"noteNumber":66,"velocity":85,"programNumber":32},{"time":310888.57799999876,"duration":166.66649999999208,"noteNumber":67,"velocity":85,"programNumber":32},{"time":311110.79999999877,"duration":166.66649999999208,"noteNumber":69,"velocity":85,"programNumber":32},{"time":311333.0219999988,"duration":166.66649999999208,"noteNumber":72,"velocity":85,"programNumber":32},{"time":311555.2439999988,"duration":166.66649999999208,"noteNumber":69,"velocity":85,"programNumber":32},{"time":311777.4659999988,"duration":166.66649999999208,"noteNumber":67,"velocity":85,"programNumber":32},{"time":311999.6879999988,"duration":166.66649999999208,"noteNumber":66,"velocity":85,"programNumber":32},{"time":312221.9099999988,"duration":166.66649999999208,"noteNumber":62,"velocity":85,"programNumber":32},{"time":312444.1319999988,"duration":166.66649999999208,"noteNumber":64,"velocity":85,"programNumber":32},{"time":312666.3539999988,"duration":166.66649999999208,"noteNumber":66,"velocity":85,"programNumber":32},{"time":312888.57599999884,"duration":166.66649999999208,"noteNumber":67,"velocity":85,"programNumber":32},{"time":313110.79799999885,"duration":166.66649999999208,"noteNumber":67,"velocity":85,"programNumber":32},{"time":313333.01999999885,"duration":166.66649999999208,"noteNumber":67,"velocity":85,"programNumber":32},{"time":313555.24199999886,"duration":166.66649999999208,"noteNumber":67,"velocity":85,"programNumber":32},{"time":313777.4639999989,"duration":166.66649999999208,"noteNumber":67,"velocity":85,"programNumber":32},{"time":313999.6859999989,"duration":166.66649999999208,"noteNumber":67,"velocity":85,"programNumber":32},{"time":314221.9079999989,"duration":166.66649999999208,"noteNumber":67,"velocity":85,"programNumber":32},{"time":314444.1299999989,"duration":166.66649999999208,"noteNumber":67,"velocity":85,"programNumber":32},{"time":314666.3519999989,"duration":166.66649999999208,"noteNumber":67,"velocity":85,"programNumber":32},{"time":314888.5739999989,"duration":166.66649999999208,"noteNumber":71,"velocity":85,"programNumber":32},{"time":315110.7959999989,"duration":166.66649999999208,"noteNumber":74,"velocity":85,"programNumber":32},{"time":315333.01799999893,"duration":166.66649999999208,"noteNumber":74,"velocity":85,"programNumber":32},{"time":315555.23999999894,"duration":166.66649999999208,"noteNumber":74,"velocity":85,"programNumber":32},{"time":315777.46199999895,"duration":166.66649999999208,"noteNumber":74,"velocity":85,"programNumber":32},{"time":315999.68399999896,"duration":166.66649999999208,"noteNumber":74,"velocity":85,"programNumber":32},{"time":316221.90599999897,"duration":166.66649999999208,"noteNumber":72,"velocity":85,"programNumber":32},{"time":316451.53539999895,"duration":166.66649999999208,"noteNumber":71,"velocity":85,"programNumber":32},{"time":316673.75739999895,"duration":166.66649999999208,"noteNumber":62,"velocity":85,"programNumber":32},{"time":316895.97939999896,"duration":166.66649999999208,"noteNumber":64,"velocity":85,"programNumber":32},{"time":317118.201399999,"duration":166.66649999999208,"noteNumber":66,"velocity":85,"programNumber":32},{"time":317340.423399999,"duration":166.66649999999208,"noteNumber":67,"velocity":85,"programNumber":32},{"time":317562.645399999,"duration":166.66649999999208,"noteNumber":67,"velocity":85,"programNumber":32},{"time":317784.867399999,"duration":166.66649999999208,"noteNumber":69,"velocity":85,"programNumber":32},{"time":318007.089399999,"duration":166.66649999999208,"noteNumber":69,"velocity":85,"programNumber":32},{"time":318229.311399999,"duration":166.66649999999208,"noteNumber":71,"velocity":85,"programNumber":32},{"time":318451.533399999,"duration":166.66649999999208,"noteNumber":54,"velocity":85,"programNumber":32},{"time":318673.75539999903,"duration":166.66649999999208,"noteNumber":55,"velocity":85,"programNumber":32},{"time":318895.97739999904,"duration":166.66649999999208,"noteNumber":57,"velocity":85,"programNumber":32},{"time":319118.19939999905,"duration":166.66649999999208,"noteNumber":59,"velocity":85,"programNumber":32},{"time":319340.42139999906,"duration":166.66649999999208,"noteNumber":59,"velocity":85,"programNumber":32},{"time":319562.64339999907,"duration":166.66649999999208,"noteNumber":60,"velocity":85,"programNumber":32},{"time":319784.8653999991,"duration":166.66649999999208,"noteNumber":60,"velocity":85,"programNumber":32},{"time":319999.67999999906,"duration":166.66649999999208,"noteNumber":62,"velocity":85,"programNumber":32},{"time":320221.90199999907,"duration":166.66649999999208,"noteNumber":62,"velocity":85,"programNumber":32},{"time":320444.1239999991,"duration":166.66649999999208,"noteNumber":63,"velocity":85,"programNumber":32},{"time":320666.3459999991,"duration":166.66649999999208,"noteNumber":63,"velocity":85,"programNumber":32},{"time":320888.5679999991,"duration":444.4440000000177,"noteNumber":64,"velocity":85,"programNumber":32},{"time":321777.45599999913,"duration":1333.3319999999949,"noteNumber":57,"velocity":70,"programNumber":32},{"time":323110.7879999991,"duration":222.22200000000885,"noteNumber":55,"velocity":70,"programNumber":32},{"time":323333.00999999914,"duration":222.22200000000885,"noteNumber":54,"velocity":70,"programNumber":32},{"time":323555.23199999915,"duration":444.4440000000177,"noteNumber":55,"velocity":70,"programNumber":32},{"time":325333.00799999916,"duration":1333.3319999999949,"noteNumber":57,"velocity":70,"programNumber":32},{"time":326666.33999999915,"duration":222.22200000000885,"noteNumber":55,"velocity":70,"programNumber":32},{"time":326888.56199999916,"duration":222.22200000000885,"noteNumber":54,"velocity":70,"programNumber":32},{"time":327110.78399999917,"duration":444.4440000000177,"noteNumber":55,"velocity":70,"programNumber":32},{"time":327999.6719999992,"duration":444.4440000000177,"noteNumber":67,"velocity":70,"programNumber":32},{"time":328888.55999999924,"duration":444.4440000000177,"noteNumber":64,"velocity":92,"programNumber":32},{"time":329777.4479999993,"duration":444.4440000000177,"noteNumber":69,"velocity":111,"programNumber":32},{"time":329777.4479999993,"duration":444.4440000000177,"noteNumber":62,"velocity":111,"programNumber":32},{"time":330666.3359999993,"duration":74.07400000002235,"noteNumber":55,"velocity":97,"programNumber":32},{"time":330777.44699999935,"duration":74.07400000002235,"noteNumber":55,"velocity":94,"programNumber":32},{"time":330888.5579999994,"duration":74.07400000002235,"noteNumber":55,"velocity":93,"programNumber":32},{"time":330999.6689999994,"duration":74.07400000002235,"noteNumber":55,"velocity":92,"programNumber":32},{"time":331110.77999999945,"duration":74.07400000002235,"noteNumber":55,"velocity":90,"programNumber":32},{"time":331221.8909999995,"duration":74.07400000002235,"noteNumber":55,"velocity":90,"programNumber":32},{"time":331333.0019999995,"duration":74.07400000002235,"noteNumber":55,"velocity":90,"programNumber":32},{"time":331444.11299999955,"duration":74.07400000002235,"noteNumber":55,"velocity":90,"programNumber":32},{"time":331555.2239999996,"duration":74.07400000002235,"noteNumber":55,"velocity":88,"programNumber":32},{"time":331666.3349999996,"duration":74.07400000002235,"noteNumber":55,"velocity":88,"programNumber":32},{"time":331777.44599999965,"duration":74.07400000002235,"noteNumber":55,"velocity":90,"programNumber":32},{"time":331888.5569999997,"duration":74.07400000002235,"noteNumber":55,"velocity":90,"programNumber":32},{"time":331999.6679999997,"duration":74.07400000002235,"noteNumber":55,"velocity":88,"programNumber":32},{"time":332110.77899999975,"duration":74.07400000002235,"noteNumber":55,"velocity":87,"programNumber":32},{"time":332221.8899999998,"duration":74.07400000002235,"noteNumber":55,"velocity":87,"programNumber":32},{"time":332333.0009999998,"duration":74.07400000002235,"noteNumber":55,"velocity":86,"programNumber":32},{"time":332444.11199999985,"duration":74.07400000002235,"noteNumber":55,"velocity":86,"programNumber":32},{"time":332555.2229999999,"duration":74.07400000002235,"noteNumber":55,"velocity":86,"programNumber":32},{"time":332666.3339999999,"duration":74.07400000002235,"noteNumber":55,"velocity":87,"programNumber":32},{"time":332777.44499999995,"duration":74.07400000002235,"noteNumber":55,"velocity":89,"programNumber":32},{"time":332888.556,"duration":74.07400000002235,"noteNumber":55,"velocity":90,"programNumber":32},{"time":332999.667,"duration":74.07400000002235,"noteNumber":55,"velocity":90,"programNumber":32},{"time":333110.77800000005,"duration":74.07400000002235,"noteNumber":55,"velocity":90,"programNumber":32},{"time":333221.8890000001,"duration":74.07400000002235,"noteNumber":55,"velocity":89,"programNumber":32},{"time":333333.0000000001,"duration":74.07400000002235,"noteNumber":55,"velocity":85,"programNumber":32},{"time":333444.11100000015,"duration":74.07400000002235,"noteNumber":55,"velocity":87,"programNumber":32},{"time":333555.2220000002,"duration":74.07400000002235,"noteNumber":55,"velocity":87,"programNumber":32},{"time":333666.3330000002,"duration":74.07400000002235,"noteNumber":55,"velocity":88,"programNumber":32},{"time":333777.44400000025,"duration":74.07400000002235,"noteNumber":57,"velocity":89,"programNumber":32},{"time":333888.5550000003,"duration":74.07400000002235,"noteNumber":57,"velocity":90,"programNumber":32},{"time":333999.6660000003,"duration":74.07400000002235,"noteNumber":57,"velocity":90,"programNumber":32},{"time":334110.77700000035,"duration":74.07400000002235,"noteNumber":57,"velocity":90,"programNumber":32},{"time":334221.8880000004,"duration":74.07400000002235,"noteNumber":55,"velocity":90,"programNumber":32},{"time":334332.9990000004,"duration":74.07400000002235,"noteNumber":55,"velocity":90,"programNumber":32},{"time":334444.11000000045,"duration":74.07400000002235,"noteNumber":55,"velocity":90,"programNumber":32},{"time":334555.2210000005,"duration":74.07400000002235,"noteNumber":55,"velocity":90,"programNumber":32},{"time":334666.3320000005,"duration":74.07400000002235,"noteNumber":55,"velocity":90,"programNumber":32},{"time":334777.44300000055,"duration":74.07400000002235,"noteNumber":55,"velocity":90,"programNumber":32},{"time":334888.5540000006,"duration":74.07400000002235,"noteNumber":55,"velocity":90,"programNumber":32},{"time":334999.6650000006,"duration":74.07400000002235,"noteNumber":55,"velocity":90,"programNumber":32},{"time":335110.77600000065,"duration":74.07400000002235,"noteNumber":55,"velocity":89,"programNumber":32},{"time":335221.8870000007,"duration":74.07400000002235,"noteNumber":55,"velocity":89,"programNumber":32},{"time":335332.9980000007,"duration":74.07400000002235,"noteNumber":55,"velocity":89,"programNumber":32},{"time":335444.10900000075,"duration":74.07400000002235,"noteNumber":55,"velocity":89,"programNumber":32},{"time":335555.2200000008,"duration":74.07400000002235,"noteNumber":55,"velocity":89,"programNumber":32},{"time":335666.3310000008,"duration":74.07400000002235,"noteNumber":55,"velocity":90,"programNumber":32},{"time":335777.44200000085,"duration":74.07400000002235,"noteNumber":55,"velocity":95,"programNumber":32},{"time":335888.5530000009,"duration":74.07400000002235,"noteNumber":55,"velocity":96,"programNumber":32},{"time":335999.6640000009,"duration":74.07400000002235,"noteNumber":55,"velocity":97,"programNumber":32},{"time":336110.77500000095,"duration":74.07400000002235,"noteNumber":55,"velocity":98,"programNumber":32},{"time":336221.886000001,"duration":74.07400000002235,"noteNumber":55,"velocity":99,"programNumber":32},{"time":336332.997000001,"duration":74.07400000002235,"noteNumber":55,"velocity":99,"programNumber":32},{"time":336444.10800000106,"duration":74.07400000002235,"noteNumber":55,"velocity":99,"programNumber":32},{"time":336555.2190000011,"duration":74.07400000002235,"noteNumber":55,"velocity":99,"programNumber":32},{"time":336666.3300000011,"duration":74.07400000002235,"noteNumber":55,"velocity":99,"programNumber":32},{"time":336777.44100000116,"duration":74.07400000002235,"noteNumber":55,"velocity":99,"programNumber":32},{"time":336888.5520000012,"duration":74.07400000002235,"noteNumber":55,"velocity":97,"programNumber":32},{"time":336999.6630000012,"duration":74.07400000002235,"noteNumber":55,"velocity":97,"programNumber":32},{"time":337110.77400000126,"duration":74.07400000002235,"noteNumber":55,"velocity":96,"programNumber":32},{"time":337221.8850000013,"duration":74.07400000002235,"noteNumber":55,"velocity":94,"programNumber":32},{"time":337332.9960000013,"duration":74.07400000002235,"noteNumber":57,"velocity":94,"programNumber":32},{"time":337444.10700000136,"duration":74.07400000002235,"noteNumber":57,"velocity":94,"programNumber":32},{"time":337555.2180000014,"duration":74.07400000002235,"noteNumber":57,"velocity":95,"programNumber":32},{"time":337666.3290000014,"duration":74.07400000002235,"noteNumber":57,"velocity":95,"programNumber":32},{"time":337777.44000000146,"duration":166.66649999999208,"noteNumber":55,"velocity":96,"programNumber":32},{"time":337999.66200000147,"duration":166.66649999999208,"noteNumber":59,"velocity":103,"programNumber":32},{"time":338221.8840000015,"duration":166.66649999999208,"noteNumber":62,"velocity":103,"programNumber":32},{"time":338444.1060000015,"duration":166.66649999999208,"noteNumber":67,"velocity":103,"programNumber":32},{"time":338666.3280000015,"duration":166.66649999999208,"noteNumber":71,"velocity":103,"programNumber":32},{"time":338888.5500000015,"duration":166.66649999999208,"noteNumber":67,"velocity":103,"programNumber":32},{"time":339110.7720000015,"duration":166.66649999999208,"noteNumber":74,"velocity":103,"programNumber":32},{"time":339332.9940000015,"duration":166.66649999999208,"noteNumber":71,"velocity":103,"programNumber":32},{"time":339566.3271000015,"duration":370.36999999999534,"noteNumber":67,"velocity":103,"programNumber":32},{"time":340010.7711000015,"duration":222.22200000000885,"noteNumber":55,"velocity":103,"programNumber":32},{"time":340344.1041000015,"duration":55.555500000016764,"noteNumber":55,"velocity":103,"programNumber":32},{"time":340455.21510000154,"duration":444.4440000000177,"noteNumber":55,"velocity":103,"programNumber":32}],[{"time":0,"duration":444.444,"noteNumber":71,"velocity":85,"programNumber":41},{"time":0,"duration":444.444,"noteNumber":79,"velocity":85,"programNumber":41},{"time":0,"duration":444.444,"noteNumber":62,"velocity":85,"programNumber":41},{"time":666.666,"duration":111.11099999999999,"noteNumber":74,"velocity":85,"programNumber":41},{"time":888.888,"duration":444.4440000000001,"noteNumber":79,"velocity":85,"programNumber":41},{"time":1555.554,"duration":111.1110000000001,"noteNumber":74,"velocity":85,"programNumber":41},{"time":1777.7760000000003,"duration":111.1110000000001,"noteNumber":79,"velocity":85,"programNumber":41},{"time":1999.9980000000005,"duration":111.11099999999988,"noteNumber":74,"velocity":85,"programNumber":41},{"time":2222.2200000000003,"duration":111.11099999999988,"noteNumber":79,"velocity":85,"programNumber":41},{"time":2444.442,"duration":111.11099999999988,"noteNumber":83,"velocity":85,"programNumber":41},{"time":2666.6639999999998,"duration":444.44399999999996,"noteNumber":86,"velocity":85,"programNumber":41},{"time":3555.5519999999997,"duration":444.44399999999996,"noteNumber":84,"velocity":85,"programNumber":41},{"time":4222.218,"duration":111.11099999999988,"noteNumber":81,"velocity":82,"programNumber":41},{"time":4444.44,"duration":444.4440000000004,"noteNumber":84,"velocity":85,"programNumber":41},{"time":5111.106,"duration":111.11099999999988,"noteNumber":81,"velocity":79,"programNumber":41},{"time":5333.3279999999995,"duration":111.11099999999988,"noteNumber":84,"velocity":85,"programNumber":41},{"time":5555.549999999999,"duration":111.11099999999988,"noteNumber":81,"velocity":80,"programNumber":41},{"time":5777.771999999999,"duration":111.11099999999988,"noteNumber":78,"velocity":85,"programNumber":41},{"time":5999.993999999999,"duration":111.11099999999988,"noteNumber":81,"velocity":77,"programNumber":41},{"time":6222.2159999999985,"duration":444.4440000000004,"noteNumber":74,"velocity":85,"programNumber":41},{"time":7111.103999999999,"duration":222.22199999999975,"noteNumber":71,"velocity":85,"programNumber":41},{"time":7111.103999999999,"duration":222.22199999999975,"noteNumber":79,"velocity":85,"programNumber":41},{"time":7111.103999999999,"duration":222.22199999999975,"noteNumber":62,"velocity":85,"programNumber":41},{"time":7555.547999999999,"duration":666.6659999999993,"noteNumber":79,"velocity":85,"programNumber":41},{"time":8222.213999999998,"duration":222.22199999999975,"noteNumber":83,"velocity":89,"programNumber":41},{"time":8444.435999999998,"duration":111.11100000000079,"noteNumber":81,"velocity":94,"programNumber":41},{"time":8666.658,"duration":111.11100000000079,"noteNumber":79,"velocity":97,"programNumber":41},{"time":8888.880000000001,"duration":55.55550000000039,"noteNumber":79,"velocity":95,"programNumber":41},{"time":8944.435500000001,"duration":55.55550000000039,"noteNumber":81,"velocity":95,"programNumber":41},{"time":8999.991000000002,"duration":55.55550000000039,"noteNumber":79,"velocity":95,"programNumber":41},{"time":9055.546500000002,"duration":55.55550000000039,"noteNumber":81,"velocity":94,"programNumber":41},{"time":9111.102000000003,"duration":185.1849999999995,"noteNumber":78,"velocity":94,"programNumber":41},{"time":9333.324000000002,"duration":666.6659999999993,"noteNumber":78,"velocity":88,"programNumber":41},{"time":9999.990000000002,"duration":222.22199999999975,"noteNumber":81,"velocity":85,"programNumber":41},{"time":10222.212000000001,"duration":111.11100000000079,"noteNumber":84,"velocity":85,"programNumber":41},{"time":10444.434000000003,"duration":111.11100000000079,"noteNumber":78,"velocity":85,"programNumber":41},{"time":10666.656000000004,"duration":222.22199999999975,"noteNumber":81,"velocity":85,"programNumber":41},{"time":10888.878000000004,"duration":111.11100000000079,"noteNumber":79,"velocity":85,"programNumber":41},{"time":11111.100000000006,"duration":666.6659999999993,"noteNumber":79,"velocity":85,"programNumber":41},{"time":11777.766000000005,"duration":222.22199999999975,"noteNumber":83,"velocity":86,"programNumber":41},{"time":11999.988000000005,"duration":111.11100000000079,"noteNumber":81,"velocity":86,"programNumber":41},{"time":12222.210000000006,"duration":111.11100000000079,"noteNumber":79,"velocity":89,"programNumber":41},{"time":12444.432000000008,"duration":55.55550000000039,"noteNumber":79,"velocity":91,"programNumber":41},{"time":12499.987500000008,"duration":55.55550000000039,"noteNumber":81,"velocity":91,"programNumber":41},{"time":12555.543000000009,"duration":55.55550000000039,"noteNumber":79,"velocity":92,"programNumber":41},{"time":12611.09850000001,"duration":55.55550000000039,"noteNumber":81,"velocity":94,"programNumber":41},{"time":12666.65400000001,"duration":185.1849999999995,"noteNumber":78,"velocity":94,"programNumber":41},{"time":12888.87600000001,"duration":666.6659999999993,"noteNumber":78,"velocity":94,"programNumber":41},{"time":13555.542000000009,"duration":222.22199999999975,"noteNumber":81,"velocity":85,"programNumber":41},{"time":13777.764000000008,"duration":111.11100000000079,"noteNumber":84,"velocity":85,"programNumber":41},{"time":13999.98600000001,"duration":111.11100000000079,"noteNumber":78,"velocity":85,"programNumber":41},{"time":14222.208000000011,"duration":111.11100000000079,"noteNumber":79,"velocity":85,"programNumber":41},{"time":14444.430000000013,"duration":111.11100000000079,"noteNumber":79,"velocity":85,"programNumber":41},{"time":14666.652000000015,"duration":111.11100000000079,"noteNumber":79,"velocity":85,"programNumber":41},{"time":14777.763000000015,"duration":111.11100000000079,"noteNumber":78,"velocity":85,"programNumber":41},{"time":14888.874000000016,"duration":111.11100000000079,"noteNumber":76,"velocity":85,"programNumber":41},{"time":14999.985000000017,"duration":111.11100000000079,"noteNumber":78,"velocity":85,"programNumber":41},{"time":15111.096000000018,"duration":111.11100000000079,"noteNumber":79,"velocity":85,"programNumber":41},{"time":15333.31800000002,"duration":111.11100000000079,"noteNumber":79,"velocity":85,"programNumber":41},{"time":15555.54000000002,"duration":111.11100000000079,"noteNumber":83,"velocity":85,"programNumber":41},{"time":15666.651000000022,"duration":111.11100000000079,"noteNumber":81,"velocity":85,"programNumber":41},{"time":15777.762000000022,"duration":111.11100000000079,"noteNumber":79,"velocity":85,"programNumber":41},{"time":15888.873000000023,"duration":111.11100000000079,"noteNumber":81,"velocity":85,"programNumber":41},{"time":15999.984000000024,"duration":111.11100000000079,"noteNumber":83,"velocity":86,"programNumber":41},{"time":16222.206000000026,"duration":111.11100000000079,"noteNumber":83,"velocity":86,"programNumber":41},{"time":16444.428000000025,"duration":111.11100000000079,"noteNumber":86,"velocity":83,"programNumber":41},{"time":16555.539000000026,"duration":111.11100000000079,"noteNumber":84,"velocity":80,"programNumber":41},{"time":16666.650000000027,"duration":111.11100000000079,"noteNumber":83,"velocity":80,"programNumber":41},{"time":16777.761000000028,"duration":111.11100000000079,"noteNumber":84,"velocity":79,"programNumber":41},{"time":16888.87200000003,"duration":444.4439999999995,"noteNumber":86,"velocity":76,"programNumber":41},{"time":17777.760000000028,"duration":888.887999999999,"noteNumber":74,"velocity":41,"programNumber":41},{"time":18666.648000000027,"duration":888.887999999999,"noteNumber":76,"velocity":47,"programNumber":41},{"time":19555.536000000026,"duration":111.11100000000079,"noteNumber":74,"velocity":47,"programNumber":41},{"time":19666.647000000026,"duration":296.29599999999846,"noteNumber":72,"velocity":47,"programNumber":41},{"time":19999.980000000025,"duration":444.4439999999995,"noteNumber":72,"velocity":47,"programNumber":41},{"time":20444.424000000025,"duration":111.11100000000079,"noteNumber":72,"velocity":47,"programNumber":41},{"time":20555.535000000025,"duration":296.29599999999846,"noteNumber":71,"velocity":47,"programNumber":41},{"time":20888.868000000024,"duration":444.4439999999995,"noteNumber":71,"velocity":47,"programNumber":41},{"time":21333.312000000024,"duration":111.11100000000079,"noteNumber":71,"velocity":47,"programNumber":41},{"time":21444.423000000024,"duration":296.29599999999846,"noteNumber":69,"velocity":47,"programNumber":41},{"time":21777.756000000023,"duration":444.4439999999995,"noteNumber":69,"velocity":47,"programNumber":41},{"time":22222.200000000023,"duration":222.22200000000157,"noteNumber":67,"velocity":47,"programNumber":41},{"time":22444.422000000024,"duration":111.11100000000079,"noteNumber":66,"velocity":47,"programNumber":41},{"time":22666.644000000026,"duration":111.11100000000079,"noteNumber":64,"velocity":47,"programNumber":41},{"time":22888.866000000027,"duration":111.11100000000079,"noteNumber":66,"velocity":47,"programNumber":41},{"time":23111.08800000003,"duration":222.22200000000157,"noteNumber":67,"velocity":47,"programNumber":41},{"time":23555.532000000032,"duration":222.22200000000157,"noteNumber":69,"velocity":47,"programNumber":41},{"time":23999.976000000035,"duration":222.22200000000157,"noteNumber":71,"velocity":47,"programNumber":41},{"time":24888.864000000038,"duration":888.887999999999,"noteNumber":74,"velocity":47,"programNumber":41},{"time":25777.752000000037,"duration":888.887999999999,"noteNumber":76,"velocity":47,"programNumber":41},{"time":26666.640000000036,"duration":222.22200000000157,"noteNumber":74,"velocity":47,"programNumber":41},{"time":26888.862000000037,"duration":111.11100000000079,"noteNumber":72,"velocity":47,"programNumber":41},{"time":27111.08400000004,"duration":111.11100000000079,"noteNumber":72,"velocity":47,"programNumber":41},{"time":27333.30600000004,"duration":111.11100000000079,"noteNumber":72,"velocity":47,"programNumber":41},{"time":27555.528000000042,"duration":222.22200000000157,"noteNumber":72,"velocity":47,"programNumber":41},{"time":27777.750000000044,"duration":111.11100000000079,"noteNumber":71,"velocity":47,"programNumber":41},{"time":27999.972000000045,"duration":111.11100000000079,"noteNumber":71,"velocity":47,"programNumber":41},{"time":28222.194000000047,"duration":111.11100000000079,"noteNumber":71,"velocity":47,"programNumber":41},{"time":28444.41600000005,"duration":222.22200000000157,"noteNumber":71,"velocity":47,"programNumber":41},{"time":28666.63800000005,"duration":111.11100000000079,"noteNumber":69,"velocity":47,"programNumber":41},{"time":28888.86000000005,"duration":166.66649999999936,"noteNumber":69,"velocity":47,"programNumber":41},{"time":29111.08200000005,"duration":166.66649999999936,"noteNumber":69,"velocity":47,"programNumber":41},{"time":29333.304000000047,"duration":222.22200000000157,"noteNumber":67,"velocity":47,"programNumber":41},{"time":29555.52600000005,"duration":222.22200000000157,"noteNumber":66,"velocity":47,"programNumber":41},{"time":29777.74800000005,"duration":222.22200000000157,"noteNumber":64,"velocity":47,"programNumber":41},{"time":29999.970000000052,"duration":222.22200000000157,"noteNumber":66,"velocity":47,"programNumber":41},{"time":30222.192000000054,"duration":1111.1100000000006,"noteNumber":67,"velocity":85,"programNumber":41},{"time":30222.192000000054,"duration":1111.1100000000006,"noteNumber":55,"velocity":85,"programNumber":41},{"time":31333.302000000054,"duration":55.555499999998574,"noteNumber":67,"velocity":61,"programNumber":41},{"time":31388.857500000053,"duration":55.555499999998574,"noteNumber":69,"velocity":61,"programNumber":41},{"time":31444.41300000005,"duration":55.555499999998574,"noteNumber":66,"velocity":61,"programNumber":41},{"time":31499.96850000005,"duration":55.555499999998574,"noteNumber":67,"velocity":61,"programNumber":41},{"time":31555.52400000005,"duration":222.22200000000157,"noteNumber":69,"velocity":61,"programNumber":41},{"time":31777.74600000005,"duration":222.22200000000157,"noteNumber":66,"velocity":61,"programNumber":41},{"time":31999.96800000005,"duration":1111.1100000000006,"noteNumber":71,"velocity":85,"programNumber":41},{"time":33111.07800000005,"duration":55.55550000000221,"noteNumber":71,"velocity":61,"programNumber":41},{"time":33166.633500000054,"duration":55.55550000000221,"noteNumber":72,"velocity":61,"programNumber":41},{"time":33222.18900000006,"duration":55.55550000000221,"noteNumber":69,"velocity":61,"programNumber":41},{"time":33277.74450000006,"duration":55.55550000000221,"noteNumber":71,"velocity":61,"programNumber":41},{"time":33333.30000000006,"duration":222.22200000000157,"noteNumber":72,"velocity":61,"programNumber":41},{"time":33555.52200000006,"duration":222.22200000000157,"noteNumber":69,"velocity":61,"programNumber":41},{"time":33777.744000000064,"duration":74.07400000000052,"noteNumber":74,"velocity":46,"programNumber":41},{"time":33888.85500000006,"duration":74.07400000000052,"noteNumber":74,"velocity":46,"programNumber":41},{"time":33999.96600000006,"duration":74.07400000000052,"noteNumber":74,"velocity":47,"programNumber":41},{"time":34111.077000000056,"duration":74.07400000000052,"noteNumber":74,"velocity":47,"programNumber":41},{"time":34222.18800000005,"duration":74.07400000000052,"noteNumber":74,"velocity":49,"programNumber":41},{"time":34333.29900000005,"duration":74.07400000000052,"noteNumber":74,"velocity":50,"programNumber":41},{"time":34444.41000000005,"duration":74.07400000000052,"noteNumber":74,"velocity":50,"programNumber":41},{"time":34555.521000000044,"duration":74.07400000000052,"noteNumber":74,"velocity":52,"programNumber":41},{"time":34666.63200000004,"duration":74.07400000000052,"noteNumber":76,"velocity":53,"programNumber":41},{"time":34777.74300000004,"duration":74.07400000000052,"noteNumber":76,"velocity":53,"programNumber":41},{"time":34888.854000000036,"duration":74.07400000000052,"noteNumber":76,"velocity":55,"programNumber":41},{"time":34999.96500000003,"duration":74.07400000000052,"noteNumber":76,"velocity":56,"programNumber":41},{"time":35111.07600000003,"duration":74.07400000000052,"noteNumber":78,"velocity":56,"programNumber":41},{"time":35222.18700000003,"duration":74.07400000000052,"noteNumber":78,"velocity":58,"programNumber":41},{"time":35333.298000000024,"duration":74.07400000000052,"noteNumber":78,"velocity":58,"programNumber":41},{"time":35444.40900000002,"duration":74.07400000000052,"noteNumber":78,"velocity":59,"programNumber":41},{"time":35555.52000000002,"duration":74.07400000000052,"noteNumber":79,"velocity":61,"programNumber":41},{"time":35666.631000000016,"duration":74.07400000000052,"noteNumber":79,"velocity":61,"programNumber":41},{"time":35777.74200000001,"duration":74.07400000000052,"noteNumber":79,"velocity":62,"programNumber":41},{"time":35888.85300000001,"duration":74.07400000000052,"noteNumber":79,"velocity":64,"programNumber":41},{"time":35999.96400000001,"duration":74.07400000000052,"noteNumber":81,"velocity":64,"programNumber":41},{"time":36111.075000000004,"duration":74.07400000000052,"noteNumber":81,"velocity":65,"programNumber":41},{"time":36222.186,"duration":74.07400000000052,"noteNumber":81,"velocity":67,"programNumber":41},{"time":36333.297,"duration":74.07400000000052,"noteNumber":81,"velocity":67,"programNumber":41},{"time":36444.407999999996,"duration":74.07400000000052,"noteNumber":83,"velocity":68,"programNumber":41},{"time":36555.51899999999,"duration":74.07400000000052,"noteNumber":83,"velocity":68,"programNumber":41},{"time":36666.62999999999,"duration":74.07400000000052,"noteNumber":83,"velocity":70,"programNumber":41},{"time":36777.74099999999,"duration":74.07400000000052,"noteNumber":83,"velocity":71,"programNumber":41},{"time":36888.851999999984,"duration":74.07400000000052,"noteNumber":85,"velocity":71,"programNumber":41},{"time":36999.96299999998,"duration":74.07400000000052,"noteNumber":85,"velocity":73,"programNumber":41},{"time":37111.07399999998,"duration":74.07400000000052,"noteNumber":85,"velocity":74,"programNumber":41},{"time":37222.184999999976,"duration":74.07400000000052,"noteNumber":85,"velocity":74,"programNumber":41},{"time":37333.29599999997,"duration":666.6659999999974,"noteNumber":86,"velocity":85,"programNumber":41},{"time":37999.96199999997,"duration":222.22200000000157,"noteNumber":81,"velocity":85,"programNumber":41},{"time":38222.18399999997,"duration":333.3329999999987,"noteNumber":85,"velocity":94,"programNumber":41},{"time":38555.51699999997,"duration":111.11099999999715,"noteNumber":81,"velocity":85,"programNumber":41},{"time":38666.62799999997,"duration":333.3329999999987,"noteNumber":85,"velocity":85,"programNumber":41},{"time":38999.96099999997,"duration":111.11099999999715,"noteNumber":81,"velocity":85,"programNumber":41},{"time":39111.071999999964,"duration":666.6659999999974,"noteNumber":86,"velocity":85,"programNumber":41},{"time":39777.73799999996,"duration":222.22200000000157,"noteNumber":81,"velocity":85,"programNumber":41},{"time":39999.95999999996,"duration":333.3329999999987,"noteNumber":85,"velocity":85,"programNumber":41},{"time":40333.29299999996,"duration":111.11099999999715,"noteNumber":81,"velocity":85,"programNumber":41},{"time":40444.40399999996,"duration":333.3329999999987,"noteNumber":85,"velocity":85,"programNumber":41},{"time":40777.73699999996,"duration":111.11099999999715,"noteNumber":81,"velocity":85,"programNumber":41},{"time":40888.847999999954,"duration":111.11099999999715,"noteNumber":86,"velocity":85,"programNumber":41},{"time":41111.06999999995,"duration":333.3329999999987,"noteNumber":86,"velocity":85,"programNumber":41},{"time":41111.06999999995,"duration":333.3329999999987,"noteNumber":78,"velocity":85,"programNumber":41},{"time":41555.513999999945,"duration":333.3329999999987,"noteNumber":86,"velocity":85,"programNumber":41},{"time":41555.513999999945,"duration":333.3329999999987,"noteNumber":78,"velocity":85,"programNumber":41},{"time":41999.95799999994,"duration":333.3329999999987,"noteNumber":86,"velocity":85,"programNumber":41},{"time":41999.95799999994,"duration":333.3329999999987,"noteNumber":78,"velocity":85,"programNumber":41},{"time":42444.40199999994,"duration":222.22200000000157,"noteNumber":78,"velocity":85,"programNumber":41},{"time":42666.62399999994,"duration":111.11099999999715,"noteNumber":76,"velocity":85,"programNumber":41},{"time":42444.40199999994,"duration":333.3329999999987,"noteNumber":86,"velocity":85,"programNumber":41},{"time":42888.84599999993,"duration":333.3329999999987,"noteNumber":86,"velocity":85,"programNumber":41},{"time":42888.84599999993,"duration":333.3329999999987,"noteNumber":76,"velocity":85,"programNumber":41},{"time":43333.28999999993,"duration":333.3329999999987,"noteNumber":86,"velocity":85,"programNumber":41},{"time":43333.28999999993,"duration":333.3329999999987,"noteNumber":76,"velocity":85,"programNumber":41},{"time":43777.733999999924,"duration":333.3329999999987,"noteNumber":86,"velocity":85,"programNumber":41},{"time":43777.733999999924,"duration":333.3329999999987,"noteNumber":76,"velocity":85,"programNumber":41},{"time":44222.17799999992,"duration":222.22200000000157,"noteNumber":86,"velocity":85,"programNumber":41},{"time":44222.17799999992,"duration":222.22200000000157,"noteNumber":76,"velocity":85,"programNumber":41},{"time":44444.39999999992,"duration":166.66649999999936,"noteNumber":85,"velocity":92,"programNumber":41},{"time":44444.39999999992,"duration":166.66649999999936,"noteNumber":76,"velocity":92,"programNumber":41},{"time":44666.62199999992,"duration":166.66649999999936,"noteNumber":81,"velocity":85,"programNumber":41},{"time":44888.843999999925,"duration":166.66649999999936,"noteNumber":86,"velocity":85,"programNumber":41},{"time":45111.065999999926,"duration":166.66649999999936,"noteNumber":81,"velocity":85,"programNumber":41},{"time":45333.28799999993,"duration":166.66649999999936,"noteNumber":85,"velocity":85,"programNumber":41},{"time":45555.50999999993,"duration":166.66649999999936,"noteNumber":81,"velocity":85,"programNumber":41},{"time":45777.73199999993,"duration":166.66649999999936,"noteNumber":86,"velocity":85,"programNumber":41},{"time":45999.95399999993,"duration":166.66649999999936,"noteNumber":81,"velocity":85,"programNumber":41},{"time":46222.175999999934,"duration":166.66649999999936,"noteNumber":85,"velocity":94,"programNumber":41},{"time":46444.397999999936,"duration":166.66649999999936,"noteNumber":69,"velocity":85,"programNumber":41},{"time":46666.61999999994,"duration":166.66649999999936,"noteNumber":69,"velocity":85,"programNumber":41},{"time":46888.84199999994,"duration":166.66649999999936,"noteNumber":69,"velocity":85,"programNumber":41},{"time":47111.06399999994,"duration":444.44400000000314,"noteNumber":69,"velocity":85,"programNumber":41},{"time":47999.95199999994,"duration":666.6659999999902,"noteNumber":81,"velocity":55,"programNumber":41},{"time":48666.61799999993,"duration":74.07400000000052,"noteNumber":79,"velocity":55,"programNumber":41},{"time":48740.69199999993,"duration":74.07400000000052,"noteNumber":78,"velocity":55,"programNumber":41},{"time":48814.76599999993,"duration":74.07400000000052,"noteNumber":76,"velocity":55,"programNumber":41},{"time":48888.83999999993,"duration":222.22200000000157,"noteNumber":74,"velocity":55,"programNumber":41},{"time":49333.283999999934,"duration":222.22200000000157,"noteNumber":83,"velocity":55,"programNumber":41},{"time":49777.72799999994,"duration":222.22200000000157,"noteNumber":79,"velocity":55,"programNumber":41},{"time":50222.17199999994,"duration":222.22200000000157,"noteNumber":76,"velocity":55,"programNumber":41},{"time":50666.61599999994,"duration":222.22200000000157,"noteNumber":81,"velocity":55,"programNumber":41},{"time":51555.50399999994,"duration":666.6659999999974,"noteNumber":78,"velocity":55,"programNumber":41},{"time":52222.16999999994,"duration":74.07400000000052,"noteNumber":76,"velocity":55,"programNumber":41},{"time":52296.24399999994,"duration":74.07400000000052,"noteNumber":74,"velocity":55,"programNumber":41},{"time":52370.31799999994,"duration":74.07400000000052,"noteNumber":73,"velocity":55,"programNumber":41},{"time":52444.39199999994,"duration":222.22200000000157,"noteNumber":71,"velocity":55,"programNumber":41},{"time":52888.835999999945,"duration":222.22200000000157,"noteNumber":79,"velocity":55,"programNumber":41},{"time":53333.27999999995,"duration":888.887999999999,"noteNumber":78,"velocity":55,"programNumber":41},{"time":54222.16799999995,"duration":444.44400000000314,"noteNumber":76,"velocity":49,"programNumber":41},{"time":55333.27799999995,"duration":111.11099999999715,"noteNumber":81,"velocity":55,"programNumber":41},{"time":55555.49999999994,"duration":111.11099999999715,"noteNumber":81,"velocity":55,"programNumber":41},{"time":55777.721999999936,"duration":111.11099999999715,"noteNumber":81,"velocity":55,"programNumber":41},{"time":55999.94399999993,"duration":111.11099999999715,"noteNumber":81,"velocity":55,"programNumber":41},{"time":56222.165999999925,"duration":111.11099999999715,"noteNumber":81,"velocity":55,"programNumber":41},{"time":56444.38799999992,"duration":111.11099999999715,"noteNumber":81,"velocity":55,"programNumber":41},{"time":56666.60999999991,"duration":111.11099999999715,"noteNumber":81,"velocity":55,"programNumber":41},{"time":56888.83199999991,"duration":111.11099999999715,"noteNumber":81,"velocity":55,"programNumber":41},{"time":57111.0539999999,"duration":111.11099999999715,"noteNumber":81,"velocity":55,"programNumber":41},{"time":57333.275999999896,"duration":111.11099999999715,"noteNumber":81,"velocity":55,"programNumber":41},{"time":57555.49799999989,"duration":111.11099999999715,"noteNumber":81,"velocity":55,"programNumber":41},{"time":57777.719999999885,"duration":111.11099999999715,"noteNumber":81,"velocity":55,"programNumber":41},{"time":57999.94199999988,"duration":111.11099999999715,"noteNumber":81,"velocity":55,"programNumber":41},{"time":58222.16399999987,"duration":111.11099999999715,"noteNumber":83,"velocity":55,"programNumber":41},{"time":58444.38599999987,"duration":111.11099999999715,"noteNumber":85,"velocity":55,"programNumber":41},{"time":58666.60799999986,"duration":222.22200000000157,"noteNumber":85,"velocity":55,"programNumber":41},{"time":58888.82999999986,"duration":222.22200000000157,"noteNumber":86,"velocity":55,"programNumber":41},{"time":59333.27399999987,"duration":111.11099999999715,"noteNumber":83,"velocity":55,"programNumber":41},{"time":59555.49599999986,"duration":222.22200000000157,"noteNumber":83,"velocity":55,"programNumber":41},{"time":59777.71799999986,"duration":222.22200000000157,"noteNumber":81,"velocity":55,"programNumber":41},{"time":60222.161999999866,"duration":166.66649999999936,"noteNumber":73,"velocity":55,"programNumber":41},{"time":60444.38399999987,"duration":444.44400000000314,"noteNumber":74,"velocity":55,"programNumber":41},{"time":61111.04999999987,"duration":111.11099999999715,"noteNumber":81,"velocity":55,"programNumber":41},{"time":61333.271999999866,"duration":222.22200000000157,"noteNumber":86,"velocity":55,"programNumber":41},{"time":61555.49399999987,"duration":222.22200000000157,"noteNumber":85,"velocity":55,"programNumber":41},{"time":61777.71599999987,"duration":222.22200000000157,"noteNumber":83,"velocity":55,"programNumber":41},{"time":61999.93799999987,"duration":222.22200000000157,"noteNumber":81,"velocity":55,"programNumber":41},{"time":62222.15999999987,"duration":55.55550000000221,"noteNumber":83,"velocity":55,"programNumber":41},{"time":62277.715499999875,"duration":55.55550000000221,"noteNumber":85,"velocity":55,"programNumber":41},{"time":62333.27099999988,"duration":55.55550000000221,"noteNumber":83,"velocity":55,"programNumber":41},{"time":62388.82649999988,"duration":55.55550000000221,"noteNumber":85,"velocity":55,"programNumber":41},{"time":62444.38199999988,"duration":222.22200000000157,"noteNumber":81,"velocity":55,"programNumber":41},{"time":62888.825999999885,"duration":111.11099999999715,"noteNumber":81,"velocity":55,"programNumber":41},{"time":63111.04799999988,"duration":111.11099999999715,"noteNumber":81,"velocity":55,"programNumber":41},{"time":63333.26999999987,"duration":111.11099999999715,"noteNumber":81,"velocity":55,"programNumber":41},{"time":63555.49199999987,"duration":111.11099999999715,"noteNumber":81,"velocity":55,"programNumber":41},{"time":63777.71399999986,"duration":111.11099999999715,"noteNumber":81,"velocity":55,"programNumber":41},{"time":63999.935999999856,"duration":55.55550000000221,"noteNumber":83,"velocity":55,"programNumber":41},{"time":64055.49149999986,"duration":55.55550000000221,"noteNumber":85,"velocity":55,"programNumber":41},{"time":64111.04699999986,"duration":55.55550000000221,"noteNumber":83,"velocity":55,"programNumber":41},{"time":64166.60249999986,"duration":55.55550000000221,"noteNumber":85,"velocity":55,"programNumber":41},{"time":64222.157999999865,"duration":222.22200000000157,"noteNumber":81,"velocity":55,"programNumber":41},{"time":64666.60199999987,"duration":166.66649999999936,"noteNumber":81,"velocity":55,"programNumber":41},{"time":64888.82399999987,"duration":222.22200000000157,"noteNumber":86,"velocity":55,"programNumber":41},{"time":65111.04599999987,"duration":222.22200000000157,"noteNumber":85,"velocity":55,"programNumber":41},{"time":65333.26799999987,"duration":222.22200000000157,"noteNumber":83,"velocity":55,"programNumber":41},{"time":65555.48999999987,"duration":222.2219999999943,"noteNumber":81,"velocity":55,"programNumber":41},{"time":65777.71199999987,"duration":55.55550000000221,"noteNumber":83,"velocity":55,"programNumber":41},{"time":65833.26749999987,"duration":55.55550000000221,"noteNumber":85,"velocity":55,"programNumber":41},{"time":65888.82299999987,"duration":55.55550000000221,"noteNumber":83,"velocity":55,"programNumber":41},{"time":65944.37849999988,"duration":55.55550000000221,"noteNumber":85,"velocity":55,"programNumber":41},{"time":65999.93399999988,"duration":222.2219999999943,"noteNumber":81,"velocity":55,"programNumber":41},{"time":66444.37799999987,"duration":111.11100000000442,"noteNumber":81,"velocity":55,"programNumber":41},{"time":66666.59999999987,"duration":111.11100000000442,"noteNumber":81,"velocity":55,"programNumber":41},{"time":66888.82199999988,"duration":111.11100000000442,"noteNumber":81,"velocity":55,"programNumber":41},{"time":67111.04399999989,"duration":111.11100000000442,"noteNumber":81,"velocity":55,"programNumber":41},{"time":67333.2659999999,"duration":111.11100000000442,"noteNumber":81,"velocity":53,"programNumber":41},{"time":67555.48799999991,"duration":55.55550000000221,"noteNumber":83,"velocity":49,"programNumber":41},{"time":67611.04349999991,"duration":55.55550000000221,"noteNumber":85,"velocity":49,"programNumber":41},{"time":67666.59899999991,"duration":55.55550000000221,"noteNumber":83,"velocity":47,"programNumber":41},{"time":67722.15449999992,"duration":55.55550000000221,"noteNumber":85,"velocity":47,"programNumber":41},{"time":67777.70999999992,"duration":222.2219999999943,"noteNumber":81,"velocity":46,"programNumber":41},{"time":68444.37599999992,"duration":629.6290000000008,"noteNumber":83,"velocity":91,"programNumber":41},{"time":68444.37599999992,"duration":629.6290000000008,"noteNumber":71,"velocity":91,"programNumber":41},{"time":69111.04199999991,"duration":74.07399999999325,"noteNumber":81,"velocity":89,"programNumber":41},{"time":69185.1159999999,"duration":74.07399999999325,"noteNumber":79,"velocity":92,"programNumber":41},{"time":69259.1899999999,"duration":74.07399999999325,"noteNumber":78,"velocity":94,"programNumber":41},{"time":69333.2639999999,"duration":444.44400000000314,"noteNumber":79,"velocity":97,"programNumber":41},{"time":70222.1519999999,"duration":629.6290000000008,"noteNumber":69,"velocity":85,"programNumber":41},{"time":70222.1519999999,"duration":629.6290000000008,"noteNumber":81,"velocity":85,"programNumber":41},{"time":70888.8179999999,"duration":74.07399999999325,"noteNumber":79,"velocity":86,"programNumber":41},{"time":70962.89199999989,"duration":74.07399999999325,"noteNumber":78,"velocity":86,"programNumber":41},{"time":71036.96599999988,"duration":74.07399999999325,"noteNumber":76,"velocity":89,"programNumber":41},{"time":71111.03999999988,"duration":444.44400000000314,"noteNumber":78,"velocity":92,"programNumber":41},{"time":71999.92799999988,"duration":222.2219999999943,"noteNumber":83,"velocity":85,"programNumber":41},{"time":72222.14999999988,"duration":111.11100000000442,"noteNumber":85,"velocity":85,"programNumber":41},{"time":72333.26099999988,"duration":111.11100000000442,"noteNumber":86,"velocity":89,"programNumber":41},{"time":72444.37199999989,"duration":166.66650000000664,"noteNumber":85,"velocity":94,"programNumber":41},{"time":72666.5939999999,"duration":111.11100000000442,"noteNumber":83,"velocity":95,"programNumber":41},{"time":72888.8159999999,"duration":222.2219999999943,"noteNumber":83,"velocity":97,"programNumber":41},{"time":73111.0379999999,"duration":166.66650000000664,"noteNumber":81,"velocity":101,"programNumber":41},{"time":73333.25999999991,"duration":111.11100000000442,"noteNumber":78,"velocity":104,"programNumber":41},{"time":73555.48199999992,"duration":111.11100000000442,"noteNumber":81,"velocity":104,"programNumber":41},{"time":73777.70399999993,"duration":222.2219999999943,"noteNumber":81,"velocity":104,"programNumber":41},{"time":73999.92599999992,"duration":166.66650000000664,"noteNumber":79,"velocity":103,"programNumber":41},{"time":74222.14799999993,"duration":111.11100000000442,"noteNumber":78,"velocity":98,"programNumber":41},{"time":74444.36999999994,"duration":111.11100000000442,"noteNumber":76,"velocity":89,"programNumber":41},{"time":74666.59199999995,"duration":444.44400000000314,"noteNumber":74,"velocity":85,"programNumber":41},{"time":75333.25799999994,"duration":111.11100000000442,"noteNumber":81,"velocity":53,"programNumber":41},{"time":75555.47999999995,"duration":222.2219999999943,"noteNumber":86,"velocity":53,"programNumber":41},{"time":75777.70199999995,"duration":222.2219999999943,"noteNumber":85,"velocity":53,"programNumber":41},{"time":75999.92399999994,"duration":222.2219999999943,"noteNumber":83,"velocity":53,"programNumber":41},{"time":76222.14599999994,"duration":222.2219999999943,"noteNumber":81,"velocity":53,"programNumber":41},{"time":76444.36799999993,"duration":55.55550000000221,"noteNumber":83,"velocity":55,"programNumber":41},{"time":76499.92349999993,"duration":55.55550000000221,"noteNumber":85,"velocity":55,"programNumber":41},{"time":76555.47899999993,"duration":55.55550000000221,"noteNumber":83,"velocity":55,"programNumber":41},{"time":76611.03449999994,"duration":55.55550000000221,"noteNumber":85,"velocity":55,"programNumber":41},{"time":76666.58999999994,"duration":222.2219999999943,"noteNumber":81,"velocity":55,"programNumber":41},{"time":77111.03399999993,"duration":111.11100000000442,"noteNumber":81,"velocity":55,"programNumber":41},{"time":77333.25599999994,"duration":111.11100000000442,"noteNumber":81,"velocity":55,"programNumber":41},{"time":77555.47799999994,"duration":111.11100000000442,"noteNumber":81,"velocity":55,"programNumber":41},{"time":77777.69999999995,"duration":111.11100000000442,"noteNumber":81,"velocity":55,"programNumber":41},{"time":77999.92199999996,"duration":111.11100000000442,"noteNumber":81,"velocity":55,"programNumber":41},{"time":78222.14399999997,"duration":55.55550000000221,"noteNumber":83,"velocity":55,"programNumber":41},{"time":78277.69949999997,"duration":55.55550000000221,"noteNumber":85,"velocity":55,"programNumber":41},{"time":78333.25499999998,"duration":55.55550000000221,"noteNumber":83,"velocity":55,"programNumber":41},{"time":78388.81049999998,"duration":55.55550000000221,"noteNumber":85,"velocity":55,"programNumber":41},{"time":78444.36599999998,"duration":222.2219999999943,"noteNumber":81,"velocity":55,"programNumber":41},{"time":78888.80999999997,"duration":166.66650000000664,"noteNumber":81,"velocity":55,"programNumber":41},{"time":79111.03199999998,"duration":222.2219999999943,"noteNumber":86,"velocity":55,"programNumber":41},{"time":79333.25399999997,"duration":222.2219999999943,"noteNumber":85,"velocity":55,"programNumber":41},{"time":79555.47599999997,"duration":222.2219999999943,"noteNumber":83,"velocity":55,"programNumber":41},{"time":79777.69799999996,"duration":222.2219999999943,"noteNumber":81,"velocity":55,"programNumber":41},{"time":79999.91999999995,"duration":55.55550000000221,"noteNumber":83,"velocity":55,"programNumber":41},{"time":80055.47549999996,"duration":55.55550000000221,"noteNumber":85,"velocity":55,"programNumber":41},{"time":80111.03099999996,"duration":55.55550000000221,"noteNumber":83,"velocity":55,"programNumber":41},{"time":80166.58649999996,"duration":55.55550000000221,"noteNumber":85,"velocity":55,"programNumber":41},{"time":80222.14199999996,"duration":222.2219999999943,"noteNumber":81,"velocity":55,"programNumber":41},{"time":80666.58599999995,"duration":111.11100000000442,"noteNumber":81,"velocity":55,"programNumber":41},{"time":80888.80799999996,"duration":111.11100000000442,"noteNumber":81,"velocity":55,"programNumber":41},{"time":81111.02999999997,"duration":111.11100000000442,"noteNumber":81,"velocity":55,"programNumber":41},{"time":81333.25199999998,"duration":111.11100000000442,"noteNumber":81,"velocity":55,"programNumber":41},{"time":81555.47399999999,"duration":111.11100000000442,"noteNumber":81,"velocity":55,"programNumber":41},{"time":81777.696,"duration":55.55550000000221,"noteNumber":83,"velocity":59,"programNumber":41},{"time":81833.2515,"duration":55.55550000000221,"noteNumber":85,"velocity":59,"programNumber":41},{"time":81888.807,"duration":55.55550000000221,"noteNumber":83,"velocity":59,"programNumber":41},{"time":81944.3625,"duration":55.55550000000221,"noteNumber":85,"velocity":59,"programNumber":41},{"time":81999.918,"duration":222.2219999999943,"noteNumber":81,"velocity":59,"programNumber":41},{"time":82666.584,"duration":629.6290000000008,"noteNumber":83,"velocity":85,"programNumber":41},{"time":82666.584,"duration":629.6290000000008,"noteNumber":71,"velocity":85,"programNumber":41},{"time":83333.25,"duration":74.07399999999325,"noteNumber":81,"velocity":85,"programNumber":41},{"time":83407.324,"duration":74.07399999999325,"noteNumber":79,"velocity":85,"programNumber":41},{"time":83481.39799999999,"duration":74.07399999999325,"noteNumber":78,"velocity":85,"programNumber":41},{"time":83555.47199999998,"duration":444.44400000000314,"noteNumber":79,"velocity":85,"programNumber":41},{"time":84444.35999999999,"duration":629.6290000000008,"noteNumber":69,"velocity":85,"programNumber":41},{"time":84444.35999999999,"duration":629.6290000000008,"noteNumber":81,"velocity":85,"programNumber":41},{"time":85111.02599999998,"duration":74.07399999999325,"noteNumber":79,"velocity":85,"programNumber":41},{"time":85185.09999999998,"duration":74.07399999999325,"noteNumber":78,"velocity":85,"programNumber":41},{"time":85259.17399999997,"duration":74.07399999999325,"noteNumber":76,"velocity":85,"programNumber":41},{"time":85333.24799999996,"duration":444.44400000000314,"noteNumber":78,"velocity":85,"programNumber":41},{"time":86222.13599999997,"duration":222.2219999999943,"noteNumber":83,"velocity":80,"programNumber":41},{"time":86444.35799999996,"duration":111.11100000000442,"noteNumber":85,"velocity":82,"programNumber":41},{"time":86555.46899999997,"duration":111.11100000000442,"noteNumber":86,"velocity":83,"programNumber":41},{"time":86666.57999999997,"duration":166.66650000000664,"noteNumber":85,"velocity":83,"programNumber":41},{"time":86888.80199999998,"duration":111.11100000000442,"noteNumber":83,"velocity":85,"programNumber":41},{"time":87111.02399999999,"duration":222.2219999999943,"noteNumber":83,"velocity":86,"programNumber":41},{"time":87333.24599999998,"duration":166.66650000000664,"noteNumber":81,"velocity":88,"programNumber":41},{"time":87555.468,"duration":111.11100000000442,"noteNumber":78,"velocity":88,"programNumber":41},{"time":87777.69,"duration":111.11100000000442,"noteNumber":81,"velocity":88,"programNumber":41},{"time":87999.91200000001,"duration":222.2219999999943,"noteNumber":81,"velocity":88,"programNumber":41},{"time":88222.134,"duration":166.66650000000664,"noteNumber":79,"velocity":88,"programNumber":41},{"time":88444.35600000001,"duration":111.11100000000442,"noteNumber":78,"velocity":88,"programNumber":41},{"time":88666.57800000002,"duration":111.11100000000442,"noteNumber":76,"velocity":88,"programNumber":41},{"time":88888.80000000003,"duration":166.66650000000664,"noteNumber":74,"velocity":88,"programNumber":41},{"time":89111.02200000004,"duration":166.66650000000664,"noteNumber":69,"velocity":88,"programNumber":41},{"time":89333.24400000005,"duration":166.66650000000664,"noteNumber":71,"velocity":88,"programNumber":41},{"time":89555.46600000006,"duration":166.66650000000664,"noteNumber":73,"velocity":85,"programNumber":41},{"time":89777.68800000007,"duration":111.11100000000442,"noteNumber":74,"velocity":82,"programNumber":41},{"time":89999.91000000008,"duration":111.11100000000442,"noteNumber":74,"velocity":85,"programNumber":41},{"time":90222.13200000009,"duration":55.55550000000221,"noteNumber":76,"velocity":85,"programNumber":41},{"time":90277.68750000009,"duration":55.55550000000221,"noteNumber":78,"velocity":85,"programNumber":41},{"time":90333.24300000009,"duration":55.55550000000221,"noteNumber":76,"velocity":85,"programNumber":41},{"time":90388.79850000009,"duration":55.55550000000221,"noteNumber":78,"velocity":85,"programNumber":41},{"time":90444.3540000001,"duration":111.11100000000442,"noteNumber":74,"velocity":85,"programNumber":41},{"time":90555.4650000001,"duration":111.11100000000442,"noteNumber":76,"velocity":85,"programNumber":41},{"time":90666.5760000001,"duration":222.2219999999943,"noteNumber":78,"velocity":85,"programNumber":41},{"time":90888.7980000001,"duration":166.66650000000664,"noteNumber":73,"velocity":85,"programNumber":41},{"time":91111.0200000001,"duration":166.66650000000664,"noteNumber":74,"velocity":85,"programNumber":41},{"time":91333.24200000011,"duration":166.66650000000664,"noteNumber":76,"velocity":85,"programNumber":41},{"time":91555.46400000012,"duration":166.66650000000664,"noteNumber":78,"velocity":85,"programNumber":41},{"time":91777.68600000013,"duration":166.66650000000664,"noteNumber":78,"velocity":85,"programNumber":41},{"time":91999.90800000014,"duration":55.55550000000221,"noteNumber":79,"velocity":85,"programNumber":41},{"time":92055.46350000014,"duration":55.55550000000221,"noteNumber":81,"velocity":86,"programNumber":41},{"time":92111.01900000015,"duration":55.55550000000221,"noteNumber":79,"velocity":88,"programNumber":41},{"time":92166.57450000015,"duration":55.55550000000221,"noteNumber":81,"velocity":88,"programNumber":41},{"time":92222.13000000015,"duration":111.11100000000442,"noteNumber":78,"velocity":88,"programNumber":41},{"time":92333.24100000015,"duration":111.11100000000442,"noteNumber":79,"velocity":88,"programNumber":41},{"time":92444.35200000016,"duration":166.66650000000664,"noteNumber":81,"velocity":88,"programNumber":41},{"time":92666.57400000017,"duration":166.66650000000664,"noteNumber":81,"velocity":91,"programNumber":41},{"time":92888.79600000018,"duration":55.55550000000221,"noteNumber":82,"velocity":92,"programNumber":41},{"time":92944.35150000018,"duration":55.55550000000221,"noteNumber":83,"velocity":92,"programNumber":41},{"time":92999.90700000018,"duration":55.55550000000221,"noteNumber":82,"velocity":94,"programNumber":41},{"time":93055.46250000018,"duration":55.55550000000221,"noteNumber":83,"velocity":94,"programNumber":41},{"time":93111.01800000019,"duration":111.11100000000442,"noteNumber":80,"velocity":95,"programNumber":41},{"time":93222.12900000019,"duration":111.11100000000442,"noteNumber":82,"velocity":97,"programNumber":41},{"time":93333.2400000002,"duration":444.44400000000314,"noteNumber":83,"velocity":100,"programNumber":41},{"time":94222.1280000002,"duration":666.6659999999974,"noteNumber":71,"velocity":47,"programNumber":41},{"time":94888.7940000002,"duration":166.66650000000664,"noteNumber":76,"velocity":47,"programNumber":41},{"time":95111.0160000002,"duration":222.2219999999943,"noteNumber":74,"velocity":47,"programNumber":41},{"time":95333.2380000002,"duration":222.2219999999943,"noteNumber":73,"velocity":47,"programNumber":41},{"time":95555.4600000002,"duration":222.2219999999943,"noteNumber":71,"velocity":49,"programNumber":41},{"time":95777.68200000019,"duration":222.2219999999943,"noteNumber":69,"velocity":50,"programNumber":41},{"time":95999.90400000018,"duration":222.2219999999943,"noteNumber":74,"velocity":50,"programNumber":41},{"time":96444.34800000017,"duration":222.2219999999943,"noteNumber":78,"velocity":50,"programNumber":41},{"time":96888.79200000016,"duration":222.2219999999943,"noteNumber":74,"velocity":41,"programNumber":41},{"time":97777.68000000015,"duration":444.44400000000314,"noteNumber":71,"velocity":85,"programNumber":41},{"time":97777.68000000015,"duration":444.44400000000314,"noteNumber":79,"velocity":85,"programNumber":41},{"time":97777.68000000015,"duration":444.44400000000314,"noteNumber":62,"velocity":85,"programNumber":41},{"time":98444.34600000015,"duration":111.11100000000442,"noteNumber":74,"velocity":85,"programNumber":41},{"time":98666.56800000016,"duration":444.44400000000314,"noteNumber":79,"velocity":85,"programNumber":41},{"time":99333.23400000016,"duration":111.11100000000442,"noteNumber":74,"velocity":85,"programNumber":41},{"time":99555.45600000017,"duration":111.11100000000442,"noteNumber":79,"velocity":85,"programNumber":41},{"time":99777.67800000017,"duration":111.11100000000442,"noteNumber":74,"velocity":85,"programNumber":41},{"time":99999.90000000018,"duration":111.11100000000442,"noteNumber":79,"velocity":85,"programNumber":41},{"time":100222.12200000019,"duration":111.11100000000442,"noteNumber":83,"velocity":85,"programNumber":41},{"time":100444.3440000002,"duration":444.44400000000314,"noteNumber":86,"velocity":85,"programNumber":41},{"time":101333.23200000021,"duration":444.44400000000314,"noteNumber":84,"velocity":85,"programNumber":41},{"time":101999.8980000002,"duration":111.11100000000442,"noteNumber":81,"velocity":76,"programNumber":41},{"time":102222.12000000021,"duration":444.44400000000314,"noteNumber":84,"velocity":85,"programNumber":41},{"time":102888.78600000021,"duration":111.11100000000442,"noteNumber":81,"velocity":76,"programNumber":41},{"time":103111.00800000022,"duration":111.11100000000442,"noteNumber":84,"velocity":85,"programNumber":41},{"time":103333.23000000023,"duration":111.11100000000442,"noteNumber":81,"velocity":74,"programNumber":41},{"time":103555.45200000024,"duration":111.11100000000442,"noteNumber":78,"velocity":85,"programNumber":41},{"time":103777.67400000025,"duration":111.11100000000442,"noteNumber":81,"velocity":71,"programNumber":41},{"time":103999.89600000026,"duration":444.44400000000314,"noteNumber":74,"velocity":85,"programNumber":41},{"time":104888.78400000026,"duration":222.2219999999943,"noteNumber":71,"velocity":85,"programNumber":41},{"time":104888.78400000026,"duration":222.2219999999943,"noteNumber":79,"velocity":85,"programNumber":41},{"time":104888.78400000026,"duration":222.2219999999943,"noteNumber":62,"velocity":85,"programNumber":41},{"time":105333.22800000025,"duration":666.6659999999974,"noteNumber":79,"velocity":85,"programNumber":41},{"time":105999.89400000025,"duration":222.2219999999943,"noteNumber":83,"velocity":85,"programNumber":41},{"time":106222.11600000024,"duration":111.11100000000442,"noteNumber":81,"velocity":85,"programNumber":41},{"time":106444.33800000025,"duration":111.11100000000442,"noteNumber":79,"velocity":85,"programNumber":41},{"time":106666.56000000026,"duration":55.55550000000221,"noteNumber":79,"velocity":85,"programNumber":41},{"time":106722.11550000026,"duration":55.55550000000221,"noteNumber":81,"velocity":85,"programNumber":41},{"time":106777.67100000026,"duration":55.55550000000221,"noteNumber":79,"velocity":85,"programNumber":41},{"time":106833.22650000027,"duration":55.55550000000221,"noteNumber":81,"velocity":85,"programNumber":41},{"time":106888.78200000027,"duration":185.18499999999767,"noteNumber":78,"velocity":85,"programNumber":41},{"time":107111.00400000026,"duration":666.6659999999974,"noteNumber":78,"velocity":85,"programNumber":41},{"time":107777.67000000026,"duration":222.2219999999943,"noteNumber":81,"velocity":85,"programNumber":41},{"time":107999.89200000025,"duration":111.11100000000442,"noteNumber":84,"velocity":85,"programNumber":41},{"time":108222.11400000026,"duration":111.11100000000442,"noteNumber":78,"velocity":85,"programNumber":41},{"time":108444.33600000027,"duration":222.2219999999943,"noteNumber":81,"velocity":85,"programNumber":41},{"time":108666.55800000027,"duration":111.11100000000442,"noteNumber":79,"velocity":85,"programNumber":41},{"time":108888.78000000028,"duration":666.6659999999974,"noteNumber":79,"velocity":85,"programNumber":41},{"time":109555.44600000027,"duration":222.2219999999943,"noteNumber":83,"velocity":85,"programNumber":41},{"time":109777.66800000027,"duration":111.11100000000442,"noteNumber":81,"velocity":85,"programNumber":41},{"time":109999.89000000028,"duration":111.11100000000442,"noteNumber":79,"velocity":85,"programNumber":41},{"time":110222.11200000028,"duration":55.55550000000221,"noteNumber":79,"velocity":85,"programNumber":41},{"time":110277.66750000029,"duration":55.55550000000221,"noteNumber":81,"velocity":85,"programNumber":41},{"time":110333.22300000029,"duration":55.55550000000221,"noteNumber":79,"velocity":85,"programNumber":41},{"time":110388.77850000029,"duration":55.55550000000221,"noteNumber":81,"velocity":85,"programNumber":41},{"time":110444.3340000003,"duration":185.18499999999767,"noteNumber":78,"velocity":85,"programNumber":41},{"time":110666.55600000029,"duration":666.6659999999974,"noteNumber":78,"velocity":85,"programNumber":41},{"time":111333.22200000029,"duration":222.2219999999943,"noteNumber":81,"velocity":85,"programNumber":41},{"time":111555.44400000028,"duration":111.11100000000442,"noteNumber":84,"velocity":85,"programNumber":41},{"time":111777.66600000029,"duration":111.11100000000442,"noteNumber":78,"velocity":85,"programNumber":41},{"time":111999.8880000003,"duration":111.11100000000442,"noteNumber":79,"velocity":85,"programNumber":41},{"time":112222.1100000003,"duration":111.11100000000442,"noteNumber":79,"velocity":85,"programNumber":41},{"time":112444.33200000032,"duration":111.11100000000442,"noteNumber":79,"velocity":85,"programNumber":41},{"time":112555.44300000032,"duration":111.11100000000442,"noteNumber":78,"velocity":85,"programNumber":41},{"time":112666.55400000032,"duration":111.11100000000442,"noteNumber":76,"velocity":85,"programNumber":41},{"time":112777.66500000033,"duration":111.11100000000442,"noteNumber":78,"velocity":85,"programNumber":41},{"time":112888.77600000033,"duration":111.11100000000442,"noteNumber":79,"velocity":85,"programNumber":41},{"time":113110.99800000034,"duration":111.11100000000442,"noteNumber":79,"velocity":85,"programNumber":41},{"time":113333.22000000035,"duration":111.11100000000442,"noteNumber":83,"velocity":85,"programNumber":41},{"time":113444.33100000035,"duration":111.11100000000442,"noteNumber":81,"velocity":85,"programNumber":41},{"time":113555.44200000036,"duration":111.11100000000442,"noteNumber":79,"velocity":85,"programNumber":41},{"time":113666.55300000036,"duration":111.11100000000442,"noteNumber":81,"velocity":85,"programNumber":41},{"time":113777.66400000037,"duration":111.11100000000442,"noteNumber":83,"velocity":85,"programNumber":41},{"time":113999.88600000038,"duration":111.11100000000442,"noteNumber":83,"velocity":85,"programNumber":41},{"time":114222.10800000039,"duration":111.11100000000442,"noteNumber":86,"velocity":85,"programNumber":41},{"time":114333.21900000039,"duration":111.11100000000442,"noteNumber":84,"velocity":85,"programNumber":41},{"time":114444.3300000004,"duration":111.11100000000442,"noteNumber":83,"velocity":85,"programNumber":41},{"time":114555.4410000004,"duration":111.11100000000442,"noteNumber":84,"velocity":85,"programNumber":41},{"time":114666.5520000004,"duration":444.44400000000314,"noteNumber":86,"velocity":85,"programNumber":41},{"time":115555.44000000041,"duration":888.8880000000063,"noteNumber":74,"velocity":52,"programNumber":41},{"time":116444.32800000042,"duration":888.8880000000063,"noteNumber":76,"velocity":40,"programNumber":41},{"time":117333.21600000042,"duration":111.11100000000442,"noteNumber":74,"velocity":44,"programNumber":41},{"time":117444.32700000043,"duration":296.2960000000021,"noteNumber":72,"velocity":46,"programNumber":41},{"time":117777.66000000043,"duration":444.44400000000314,"noteNumber":72,"velocity":46,"programNumber":41},{"time":118222.10400000043,"duration":111.11100000000442,"noteNumber":72,"velocity":47,"programNumber":41},{"time":118333.21500000043,"duration":296.2960000000021,"noteNumber":71,"velocity":47,"programNumber":41},{"time":118666.54800000043,"duration":444.44400000000314,"noteNumber":71,"velocity":47,"programNumber":41},{"time":119110.99200000043,"duration":111.11100000000442,"noteNumber":71,"velocity":47,"programNumber":41},{"time":119222.10300000044,"duration":296.2960000000021,"noteNumber":69,"velocity":47,"programNumber":41},{"time":119555.43600000044,"duration":444.44400000000314,"noteNumber":69,"velocity":47,"programNumber":41},{"time":119999.88000000044,"duration":222.2219999999943,"noteNumber":67,"velocity":47,"programNumber":41},{"time":120222.10200000044,"duration":111.11100000000442,"noteNumber":66,"velocity":47,"programNumber":41},{"time":120444.32400000044,"duration":111.11100000000442,"noteNumber":64,"velocity":47,"programNumber":41},{"time":120666.54600000045,"duration":111.11100000000442,"noteNumber":66,"velocity":47,"programNumber":41},{"time":120888.76800000046,"duration":222.2219999999943,"noteNumber":67,"velocity":47,"programNumber":41},{"time":121333.21200000045,"duration":222.2219999999943,"noteNumber":69,"velocity":47,"programNumber":41},{"time":121777.65600000044,"duration":222.2219999999943,"noteNumber":71,"velocity":47,"programNumber":41},{"time":122666.54400000043,"duration":888.8880000000063,"noteNumber":74,"velocity":54,"programNumber":41},{"time":123555.43200000044,"duration":888.8880000000063,"noteNumber":76,"velocity":59,"programNumber":41},{"time":124444.32000000044,"duration":222.2219999999943,"noteNumber":74,"velocity":47,"programNumber":41},{"time":124666.54200000044,"duration":111.11100000000442,"noteNumber":72,"velocity":47,"programNumber":41},{"time":124888.76400000045,"duration":111.11100000000442,"noteNumber":72,"velocity":47,"programNumber":41},{"time":125110.98600000046,"duration":111.11100000000442,"noteNumber":72,"velocity":47,"programNumber":41},{"time":125333.20800000046,"duration":222.2219999999943,"noteNumber":72,"velocity":47,"programNumber":41},{"time":125555.43000000046,"duration":111.11100000000442,"noteNumber":71,"velocity":47,"programNumber":41},{"time":125777.65200000047,"duration":111.11100000000442,"noteNumber":71,"velocity":47,"programNumber":41},{"time":125999.87400000048,"duration":111.11100000000442,"noteNumber":71,"velocity":47,"programNumber":41},{"time":126222.09600000049,"duration":222.2219999999943,"noteNumber":71,"velocity":47,"programNumber":41},{"time":126444.31800000048,"duration":111.11100000000442,"noteNumber":69,"velocity":47,"programNumber":41},{"time":126666.54000000049,"duration":166.66650000000664,"noteNumber":69,"velocity":47,"programNumber":41},{"time":126888.7620000005,"duration":166.66650000000664,"noteNumber":69,"velocity":47,"programNumber":41},{"time":127110.9840000005,"duration":222.2219999999943,"noteNumber":67,"velocity":47,"programNumber":41},{"time":127333.2060000005,"duration":222.2219999999943,"noteNumber":66,"velocity":47,"programNumber":41},{"time":127555.4280000005,"duration":222.2219999999943,"noteNumber":64,"velocity":47,"programNumber":41},{"time":127777.65000000049,"duration":222.2219999999943,"noteNumber":66,"velocity":47,"programNumber":41},{"time":127999.87200000048,"duration":1111.1100000000006,"noteNumber":67,"velocity":95,"programNumber":41},{"time":127999.87200000048,"duration":1111.1100000000006,"noteNumber":55,"velocity":95,"programNumber":41},{"time":129110.98200000048,"duration":55.55550000000221,"noteNumber":67,"velocity":61,"programNumber":41},{"time":129166.53750000049,"duration":55.55550000000221,"noteNumber":69,"velocity":61,"programNumber":41},{"time":129222.09300000049,"duration":55.55550000000221,"noteNumber":66,"velocity":61,"programNumber":41},{"time":129277.64850000049,"duration":55.55550000000221,"noteNumber":67,"velocity":61,"programNumber":41},{"time":129333.20400000049,"duration":222.2219999999943,"noteNumber":69,"velocity":61,"programNumber":41},{"time":129555.42600000049,"duration":222.2219999999943,"noteNumber":66,"velocity":61,"programNumber":41},{"time":129777.64800000048,"duration":1111.1100000000006,"noteNumber":71,"velocity":85,"programNumber":41},{"time":130888.75800000048,"duration":55.55550000000221,"noteNumber":71,"velocity":61,"programNumber":41},{"time":130944.31350000048,"duration":55.55550000000221,"noteNumber":72,"velocity":61,"programNumber":41},{"time":130999.86900000049,"duration":55.55550000000221,"noteNumber":69,"velocity":61,"programNumber":41},{"time":131055.42450000049,"duration":55.55549999998766,"noteNumber":71,"velocity":61,"programNumber":41},{"time":131110.98000000048,"duration":222.22200000000885,"noteNumber":72,"velocity":61,"programNumber":41},{"time":131333.20200000048,"duration":222.22200000000885,"noteNumber":69,"velocity":61,"programNumber":41},{"time":131555.4240000005,"duration":74.07399999999325,"noteNumber":74,"velocity":46,"programNumber":41},{"time":131666.5350000005,"duration":74.07399999999325,"noteNumber":74,"velocity":46,"programNumber":41},{"time":131777.6460000005,"duration":74.07399999999325,"noteNumber":74,"velocity":47,"programNumber":41},{"time":131888.7570000005,"duration":74.07399999999325,"noteNumber":74,"velocity":47,"programNumber":41},{"time":131999.8680000005,"duration":74.07399999999325,"noteNumber":74,"velocity":49,"programNumber":41},{"time":132110.97900000052,"duration":74.07399999999325,"noteNumber":74,"velocity":50,"programNumber":41},{"time":132222.09000000052,"duration":74.07399999999325,"noteNumber":74,"velocity":50,"programNumber":41},{"time":132333.20100000052,"duration":74.07399999999325,"noteNumber":74,"velocity":52,"programNumber":41},{"time":132444.31200000053,"duration":74.07399999999325,"noteNumber":76,"velocity":53,"programNumber":41},{"time":132555.42300000053,"duration":74.07399999999325,"noteNumber":76,"velocity":53,"programNumber":41},{"time":132666.53400000054,"duration":74.07399999999325,"noteNumber":76,"velocity":55,"programNumber":41},{"time":132777.64500000054,"duration":74.07399999999325,"noteNumber":76,"velocity":56,"programNumber":41},{"time":132888.75600000055,"duration":74.07399999999325,"noteNumber":78,"velocity":56,"programNumber":41},{"time":132999.86700000055,"duration":74.07399999999325,"noteNumber":78,"velocity":58,"programNumber":41},{"time":133110.97800000056,"duration":74.07399999999325,"noteNumber":78,"velocity":58,"programNumber":41},{"time":133222.08900000056,"duration":74.07399999999325,"noteNumber":78,"velocity":59,"programNumber":41},{"time":133333.20000000056,"duration":74.07399999999325,"noteNumber":79,"velocity":61,"programNumber":41},{"time":133444.31100000057,"duration":74.07399999999325,"noteNumber":79,"velocity":61,"programNumber":41},{"time":133555.42200000057,"duration":74.07399999999325,"noteNumber":79,"velocity":62,"programNumber":41},{"time":133666.53300000058,"duration":74.07399999999325,"noteNumber":79,"velocity":64,"programNumber":41},{"time":133777.64400000058,"duration":74.07399999999325,"noteNumber":81,"velocity":64,"programNumber":41},{"time":133888.7550000006,"duration":74.07399999999325,"noteNumber":81,"velocity":65,"programNumber":41},{"time":133999.8660000006,"duration":74.07399999999325,"noteNumber":81,"velocity":67,"programNumber":41},{"time":134110.9770000006,"duration":74.07399999999325,"noteNumber":81,"velocity":67,"programNumber":41},{"time":134222.0880000006,"duration":74.07399999999325,"noteNumber":83,"velocity":68,"programNumber":41},{"time":134333.1990000006,"duration":74.07399999999325,"noteNumber":83,"velocity":68,"programNumber":41},{"time":134444.3100000006,"duration":74.07399999999325,"noteNumber":83,"velocity":70,"programNumber":41},{"time":134555.4210000006,"duration":74.07399999999325,"noteNumber":83,"velocity":71,"programNumber":41},{"time":134666.53200000062,"duration":74.07399999999325,"noteNumber":85,"velocity":71,"programNumber":41},{"time":134777.64300000062,"duration":74.07399999999325,"noteNumber":85,"velocity":73,"programNumber":41},{"time":134888.75400000063,"duration":74.07399999999325,"noteNumber":85,"velocity":74,"programNumber":41},{"time":134999.86500000063,"duration":74.07399999999325,"noteNumber":85,"velocity":74,"programNumber":41},{"time":135110.97600000064,"duration":666.6659999999974,"noteNumber":86,"velocity":92,"programNumber":41},{"time":135777.64200000063,"duration":222.22200000000885,"noteNumber":81,"velocity":85,"programNumber":41},{"time":135999.86400000064,"duration":333.33300000001327,"noteNumber":85,"velocity":85,"programNumber":41},{"time":136333.19700000065,"duration":111.11100000000442,"noteNumber":81,"velocity":85,"programNumber":41},{"time":136444.30800000066,"duration":333.33300000001327,"noteNumber":85,"velocity":85,"programNumber":41},{"time":136777.64100000067,"duration":111.11100000000442,"noteNumber":81,"velocity":85,"programNumber":41},{"time":136888.75200000068,"duration":666.6659999999974,"noteNumber":86,"velocity":98,"programNumber":41},{"time":137555.41800000067,"duration":222.22200000000885,"noteNumber":81,"velocity":85,"programNumber":41},{"time":137777.64000000068,"duration":333.33300000001327,"noteNumber":85,"velocity":85,"programNumber":41},{"time":138110.9730000007,"duration":111.11100000000442,"noteNumber":81,"velocity":85,"programNumber":41},{"time":138222.0840000007,"duration":333.33300000001327,"noteNumber":85,"velocity":85,"programNumber":41},{"time":138555.4170000007,"duration":111.11100000000442,"noteNumber":81,"velocity":85,"programNumber":41},{"time":138666.52800000072,"duration":111.11100000000442,"noteNumber":86,"velocity":85,"programNumber":41},{"time":138888.75000000073,"duration":333.33300000001327,"noteNumber":86,"velocity":98,"programNumber":41},{"time":138888.75000000073,"duration":333.33300000001327,"noteNumber":78,"velocity":98,"programNumber":41},{"time":139333.19400000075,"duration":333.33300000001327,"noteNumber":86,"velocity":85,"programNumber":41},{"time":139333.19400000075,"duration":333.33300000001327,"noteNumber":78,"velocity":85,"programNumber":41},{"time":139777.63800000076,"duration":333.33300000001327,"noteNumber":86,"velocity":85,"programNumber":41},{"time":139777.63800000076,"duration":333.33300000001327,"noteNumber":78,"velocity":85,"programNumber":41},{"time":140222.08200000078,"duration":222.22200000000885,"noteNumber":78,"velocity":85,"programNumber":41},{"time":140444.3040000008,"duration":111.11100000000442,"noteNumber":76,"velocity":85,"programNumber":41},{"time":140222.08200000078,"duration":333.33300000001327,"noteNumber":86,"velocity":85,"programNumber":41},{"time":140666.5260000008,"duration":333.33300000001327,"noteNumber":86,"velocity":85,"programNumber":41},{"time":140666.5260000008,"duration":333.33300000001327,"noteNumber":76,"velocity":85,"programNumber":41},{"time":141110.97000000082,"duration":333.33300000001327,"noteNumber":86,"velocity":85,"programNumber":41},{"time":141110.97000000082,"duration":333.33300000001327,"noteNumber":76,"velocity":85,"programNumber":41},{"time":141555.41400000083,"duration":333.33300000001327,"noteNumber":86,"velocity":85,"programNumber":41},{"time":141555.41400000083,"duration":333.33300000001327,"noteNumber":76,"velocity":85,"programNumber":41},{"time":141999.85800000085,"duration":222.22200000000885,"noteNumber":86,"velocity":85,"programNumber":41},{"time":141999.85800000085,"duration":222.22200000000885,"noteNumber":76,"velocity":85,"programNumber":41},{"time":142222.08000000086,"duration":166.66649999999208,"noteNumber":85,"velocity":97,"programNumber":41},{"time":142222.08000000086,"duration":166.66649999999208,"noteNumber":76,"velocity":97,"programNumber":41},{"time":142444.30200000084,"duration":166.66649999999208,"noteNumber":81,"velocity":85,"programNumber":41},{"time":142666.52400000082,"duration":166.66649999999208,"noteNumber":86,"velocity":85,"programNumber":41},{"time":142888.7460000008,"duration":166.66649999999208,"noteNumber":81,"velocity":85,"programNumber":41},{"time":143110.96800000078,"duration":166.66649999999208,"noteNumber":85,"velocity":85,"programNumber":41},{"time":143333.19000000076,"duration":166.66649999999208,"noteNumber":81,"velocity":85,"programNumber":41},{"time":143555.41200000074,"duration":166.66649999999208,"noteNumber":86,"velocity":85,"programNumber":41},{"time":143777.63400000072,"duration":166.66649999999208,"noteNumber":81,"velocity":85,"programNumber":41},{"time":143999.8560000007,"duration":166.66649999999208,"noteNumber":85,"velocity":97,"programNumber":41},{"time":144222.07800000068,"duration":166.66649999999208,"noteNumber":69,"velocity":85,"programNumber":41},{"time":144444.30000000066,"duration":166.66649999999208,"noteNumber":69,"velocity":85,"programNumber":41},{"time":144666.52200000064,"duration":166.66649999999208,"noteNumber":69,"velocity":85,"programNumber":41},{"time":144888.74400000062,"duration":444.4439999999886,"noteNumber":69,"velocity":85,"programNumber":41},{"time":145777.6320000006,"duration":666.6659999999974,"noteNumber":81,"velocity":55,"programNumber":41},{"time":146444.2980000006,"duration":74.07399999999325,"noteNumber":79,"velocity":55,"programNumber":41},{"time":146518.37200000059,"duration":74.07399999999325,"noteNumber":78,"velocity":55,"programNumber":41},{"time":146592.44600000058,"duration":74.07399999999325,"noteNumber":76,"velocity":55,"programNumber":41},{"time":146666.52000000057,"duration":222.22200000000885,"noteNumber":74,"velocity":55,"programNumber":41},{"time":147110.9640000006,"duration":222.22200000000885,"noteNumber":83,"velocity":55,"programNumber":41},{"time":147555.4080000006,"duration":222.22200000000885,"noteNumber":79,"velocity":55,"programNumber":41},{"time":147999.85200000062,"duration":222.22200000000885,"noteNumber":76,"velocity":55,"programNumber":41},{"time":148444.29600000064,"duration":222.22200000000885,"noteNumber":81,"velocity":55,"programNumber":41},{"time":149333.18400000065,"duration":666.6659999999974,"noteNumber":78,"velocity":55,"programNumber":41},{"time":149999.85000000065,"duration":74.07399999999325,"noteNumber":76,"velocity":55,"programNumber":41},{"time":150073.92400000064,"duration":74.07399999999325,"noteNumber":74,"velocity":55,"programNumber":41},{"time":150147.99800000063,"duration":74.07399999999325,"noteNumber":73,"velocity":55,"programNumber":41},{"time":150222.07200000063,"duration":222.22200000000885,"noteNumber":71,"velocity":55,"programNumber":41},{"time":150666.51600000064,"duration":222.22200000000885,"noteNumber":79,"velocity":55,"programNumber":41},{"time":151110.96000000066,"duration":888.8880000000063,"noteNumber":78,"velocity":55,"programNumber":41},{"time":151999.84800000067,"duration":444.4439999999886,"noteNumber":76,"velocity":43,"programNumber":41},{"time":153110.95800000065,"duration":111.11100000000442,"noteNumber":81,"velocity":55,"programNumber":41},{"time":153333.18000000066,"duration":111.11100000000442,"noteNumber":81,"velocity":55,"programNumber":41},{"time":153555.40200000067,"duration":111.11100000000442,"noteNumber":81,"velocity":55,"programNumber":41},{"time":153777.62400000068,"duration":111.11100000000442,"noteNumber":81,"velocity":55,"programNumber":41},{"time":153999.8460000007,"duration":111.11100000000442,"noteNumber":81,"velocity":55,"programNumber":41},{"time":154222.0680000007,"duration":111.11100000000442,"noteNumber":81,"velocity":55,"programNumber":41},{"time":154444.2900000007,"duration":111.11100000000442,"noteNumber":81,"velocity":55,"programNumber":41},{"time":154666.51200000072,"duration":111.11100000000442,"noteNumber":81,"velocity":55,"programNumber":41},{"time":154888.73400000072,"duration":111.11100000000442,"noteNumber":81,"velocity":55,"programNumber":41},{"time":155110.95600000073,"duration":111.11100000000442,"noteNumber":81,"velocity":55,"programNumber":41},{"time":155333.17800000074,"duration":111.11100000000442,"noteNumber":81,"velocity":55,"programNumber":41},{"time":155555.40000000075,"duration":111.11100000000442,"noteNumber":81,"velocity":55,"programNumber":41},{"time":155777.62200000076,"duration":111.11100000000442,"noteNumber":81,"velocity":55,"programNumber":41},{"time":155999.84400000077,"duration":111.11100000000442,"noteNumber":83,"velocity":55,"programNumber":41},{"time":156222.06600000078,"duration":111.11100000000442,"noteNumber":85,"velocity":55,"programNumber":41},{"time":156444.2880000008,"duration":222.22200000000885,"noteNumber":85,"velocity":55,"programNumber":41},{"time":156666.5100000008,"duration":222.22200000000885,"noteNumber":86,"velocity":55,"programNumber":41},{"time":157110.9540000008,"duration":111.11100000000442,"noteNumber":83,"velocity":55,"programNumber":41},{"time":157333.17600000082,"duration":222.22200000000885,"noteNumber":83,"velocity":55,"programNumber":41},{"time":157555.39800000083,"duration":222.22200000000885,"noteNumber":81,"velocity":55,"programNumber":41},{"time":157999.84200000085,"duration":166.66649999999208,"noteNumber":73,"velocity":55,"programNumber":41},{"time":158222.06400000083,"duration":444.4439999999886,"noteNumber":74,"velocity":55,"programNumber":41},{"time":158888.73000000083,"duration":111.11100000000442,"noteNumber":81,"velocity":55,"programNumber":41},{"time":159110.95200000083,"duration":222.22200000000885,"noteNumber":86,"velocity":55,"programNumber":41},{"time":159333.17400000084,"duration":222.22200000000885,"noteNumber":85,"velocity":55,"programNumber":41},{"time":159555.39600000085,"duration":222.22200000000885,"noteNumber":83,"velocity":55,"programNumber":41},{"time":159777.61800000086,"duration":222.22200000000885,"noteNumber":81,"velocity":55,"programNumber":41},{"time":159999.84000000087,"duration":55.55549999998766,"noteNumber":83,"velocity":55,"programNumber":41},{"time":160055.39550000086,"duration":55.55549999998766,"noteNumber":85,"velocity":55,"programNumber":41},{"time":160110.95100000084,"duration":55.55549999998766,"noteNumber":83,"velocity":55,"programNumber":41},{"time":160166.50650000083,"duration":55.55549999998766,"noteNumber":85,"velocity":55,"programNumber":41},{"time":160222.06200000082,"duration":222.22200000000885,"noteNumber":81,"velocity":55,"programNumber":41},{"time":160666.50600000084,"duration":111.11100000000442,"noteNumber":81,"velocity":55,"programNumber":41},{"time":160888.72800000085,"duration":111.11100000000442,"noteNumber":81,"velocity":55,"programNumber":41},{"time":161110.95000000086,"duration":111.11100000000442,"noteNumber":81,"velocity":55,"programNumber":41},{"time":161333.17200000086,"duration":111.11100000000442,"noteNumber":81,"velocity":55,"programNumber":41},{"time":161555.39400000087,"duration":111.11100000000442,"noteNumber":81,"velocity":55,"programNumber":41},{"time":161777.61600000088,"duration":55.55549999998766,"noteNumber":83,"velocity":55,"programNumber":41},{"time":161833.17150000087,"duration":55.55549999998766,"noteNumber":85,"velocity":55,"programNumber":41},{"time":161888.72700000086,"duration":55.55549999998766,"noteNumber":83,"velocity":55,"programNumber":41},{"time":161944.28250000085,"duration":55.55549999998766,"noteNumber":85,"velocity":55,"programNumber":41},{"time":161999.83800000083,"duration":222.22200000000885,"noteNumber":81,"velocity":55,"programNumber":41},{"time":162444.28200000085,"duration":166.66649999999208,"noteNumber":81,"velocity":55,"programNumber":41},{"time":162666.50400000083,"duration":222.22200000000885,"noteNumber":86,"velocity":55,"programNumber":41},{"time":162888.72600000084,"duration":222.22200000000885,"noteNumber":85,"velocity":55,"programNumber":41},{"time":163110.94800000085,"duration":222.22200000000885,"noteNumber":83,"velocity":55,"programNumber":41},{"time":163333.17000000086,"duration":222.22200000000885,"noteNumber":81,"velocity":55,"programNumber":41},{"time":163555.39200000087,"duration":55.55549999998766,"noteNumber":83,"velocity":55,"programNumber":41},{"time":163610.94750000085,"duration":55.55549999998766,"noteNumber":85,"velocity":55,"programNumber":41},{"time":163666.50300000084,"duration":55.55549999998766,"noteNumber":83,"velocity":55,"programNumber":41},{"time":163722.05850000083,"duration":55.55549999998766,"noteNumber":85,"velocity":55,"programNumber":41},{"time":163777.61400000082,"duration":222.22200000000885,"noteNumber":81,"velocity":55,"programNumber":41},{"time":164222.05800000083,"duration":111.11100000000442,"noteNumber":81,"velocity":55,"programNumber":41},{"time":164444.28000000084,"duration":111.11100000000442,"noteNumber":81,"velocity":55,"programNumber":41},{"time":164666.50200000085,"duration":111.11100000000442,"noteNumber":81,"velocity":55,"programNumber":41},{"time":164888.72400000086,"duration":111.11100000000442,"noteNumber":81,"velocity":55,"programNumber":41},{"time":165110.94600000087,"duration":111.11100000000442,"noteNumber":81,"velocity":55,"programNumber":41},{"time":165333.16800000088,"duration":55.55549999998766,"noteNumber":83,"velocity":55,"programNumber":41},{"time":165388.72350000087,"duration":55.55549999998766,"noteNumber":85,"velocity":55,"programNumber":41},{"time":165444.27900000085,"duration":55.55549999998766,"noteNumber":83,"velocity":55,"programNumber":41},{"time":165499.83450000084,"duration":55.55549999998766,"noteNumber":85,"velocity":55,"programNumber":41},{"time":165555.39000000083,"duration":222.22200000000885,"noteNumber":81,"velocity":55,"programNumber":41},{"time":166222.05600000083,"duration":629.6289999999863,"noteNumber":83,"velocity":94,"programNumber":41},{"time":166222.05600000083,"duration":629.6289999999863,"noteNumber":71,"velocity":94,"programNumber":41},{"time":166888.72200000082,"duration":74.07399999999325,"noteNumber":81,"velocity":83,"programNumber":41},{"time":166962.79600000082,"duration":74.07399999999325,"noteNumber":79,"velocity":83,"programNumber":41},{"time":167036.8700000008,"duration":74.07399999999325,"noteNumber":78,"velocity":83,"programNumber":41},{"time":167110.9440000008,"duration":444.4439999999886,"noteNumber":79,"velocity":83,"programNumber":41},{"time":167999.83200000078,"duration":629.6289999999863,"noteNumber":69,"velocity":85,"programNumber":41},{"time":167999.83200000078,"duration":629.6289999999863,"noteNumber":81,"velocity":85,"programNumber":41},{"time":168666.49800000078,"duration":74.07399999999325,"noteNumber":79,"velocity":85,"programNumber":41},{"time":168740.57200000077,"duration":74.07399999999325,"noteNumber":78,"velocity":85,"programNumber":41},{"time":168814.64600000076,"duration":74.07399999999325,"noteNumber":76,"velocity":85,"programNumber":41},{"time":168888.72000000076,"duration":444.4439999999886,"noteNumber":78,"velocity":85,"programNumber":41},{"time":169777.60800000074,"duration":222.22200000000885,"noteNumber":83,"velocity":79,"programNumber":41},{"time":169999.83000000074,"duration":111.11100000000442,"noteNumber":85,"velocity":80,"programNumber":41},{"time":170110.94100000075,"duration":111.11100000000442,"noteNumber":86,"velocity":82,"programNumber":41},{"time":170222.05200000075,"duration":166.66649999999208,"noteNumber":85,"velocity":82,"programNumber":41},{"time":170444.27400000073,"duration":111.11100000000442,"noteNumber":83,"velocity":82,"programNumber":41},{"time":170666.49600000074,"duration":222.22200000000885,"noteNumber":83,"velocity":83,"programNumber":41},{"time":170888.71800000075,"duration":166.66649999999208,"noteNumber":81,"velocity":86,"programNumber":41},{"time":171110.94000000073,"duration":111.11100000000442,"noteNumber":78,"velocity":86,"programNumber":41},{"time":171333.16200000074,"duration":111.11100000000442,"noteNumber":81,"velocity":88,"programNumber":41},{"time":171555.38400000075,"duration":222.22200000000885,"noteNumber":81,"velocity":88,"programNumber":41},{"time":171777.60600000076,"duration":166.66649999999208,"noteNumber":79,"velocity":83,"programNumber":41},{"time":171999.82800000074,"duration":111.11100000000442,"noteNumber":78,"velocity":79,"programNumber":41},{"time":172222.05000000075,"duration":111.11100000000442,"noteNumber":76,"velocity":76,"programNumber":41},{"time":172444.27200000075,"duration":444.4439999999886,"noteNumber":74,"velocity":85,"programNumber":41},{"time":173110.93800000075,"duration":111.11100000000442,"noteNumber":81,"velocity":53,"programNumber":41},{"time":173333.16000000076,"duration":222.22200000000885,"noteNumber":86,"velocity":53,"programNumber":41},{"time":173555.38200000077,"duration":222.22200000000885,"noteNumber":85,"velocity":53,"programNumber":41},{"time":173777.60400000078,"duration":222.22200000000885,"noteNumber":83,"velocity":53,"programNumber":41},{"time":173999.8260000008,"duration":222.22200000000885,"noteNumber":81,"velocity":53,"programNumber":41},{"time":174222.0480000008,"duration":55.55549999998766,"noteNumber":83,"velocity":55,"programNumber":41},{"time":174277.60350000078,"duration":55.55549999998766,"noteNumber":85,"velocity":55,"programNumber":41},{"time":174333.15900000077,"duration":55.55549999998766,"noteNumber":83,"velocity":55,"programNumber":41},{"time":174388.71450000076,"duration":55.55549999998766,"noteNumber":85,"velocity":55,"programNumber":41},{"time":174444.27000000075,"duration":222.22200000000885,"noteNumber":81,"velocity":55,"programNumber":41},{"time":174888.71400000076,"duration":111.11100000000442,"noteNumber":81,"velocity":55,"programNumber":41},{"time":175110.93600000077,"duration":111.11100000000442,"noteNumber":81,"velocity":55,"programNumber":41},{"time":175333.15800000078,"duration":111.11100000000442,"noteNumber":81,"velocity":55,"programNumber":41},{"time":175555.3800000008,"duration":111.11100000000442,"noteNumber":81,"velocity":55,"programNumber":41},{"time":175777.6020000008,"duration":111.11100000000442,"noteNumber":81,"velocity":55,"programNumber":41},{"time":175999.8240000008,"duration":55.55549999998766,"noteNumber":83,"velocity":55,"programNumber":41},{"time":176055.3795000008,"duration":55.55549999998766,"noteNumber":85,"velocity":55,"programNumber":41},{"time":176110.93500000078,"duration":55.55549999998766,"noteNumber":83,"velocity":55,"programNumber":41},{"time":176166.49050000077,"duration":55.55549999998766,"noteNumber":85,"velocity":55,"programNumber":41},{"time":176222.04600000076,"duration":222.22200000000885,"noteNumber":81,"velocity":55,"programNumber":41},{"time":176666.49000000078,"duration":166.66649999999208,"noteNumber":81,"velocity":55,"programNumber":41},{"time":176888.71200000076,"duration":222.22200000000885,"noteNumber":86,"velocity":55,"programNumber":41},{"time":177110.93400000077,"duration":222.22200000000885,"noteNumber":85,"velocity":55,"programNumber":41},{"time":177333.15600000077,"duration":222.22200000000885,"noteNumber":83,"velocity":55,"programNumber":41},{"time":177555.37800000078,"duration":222.22200000000885,"noteNumber":81,"velocity":55,"programNumber":41},{"time":177777.6000000008,"duration":55.55549999998766,"noteNumber":83,"velocity":55,"programNumber":41},{"time":177833.15550000078,"duration":55.55549999998766,"noteNumber":85,"velocity":55,"programNumber":41},{"time":177888.71100000077,"duration":55.55549999998766,"noteNumber":83,"velocity":55,"programNumber":41},{"time":177944.26650000075,"duration":55.55549999998766,"noteNumber":85,"velocity":55,"programNumber":41},{"time":177999.82200000074,"duration":222.22200000000885,"noteNumber":81,"velocity":55,"programNumber":41},{"time":178444.26600000076,"duration":111.11100000000442,"noteNumber":81,"velocity":55,"programNumber":41},{"time":178666.48800000077,"duration":111.11100000000442,"noteNumber":81,"velocity":55,"programNumber":41},{"time":178888.71000000078,"duration":111.11100000000442,"noteNumber":81,"velocity":55,"programNumber":41},{"time":179110.9320000008,"duration":111.11100000000442,"noteNumber":81,"velocity":55,"programNumber":41},{"time":179333.1540000008,"duration":111.11100000000442,"noteNumber":81,"velocity":55,"programNumber":41},{"time":179555.3760000008,"duration":55.55549999998766,"noteNumber":83,"velocity":59,"programNumber":41},{"time":179610.9315000008,"duration":55.55549999998766,"noteNumber":85,"velocity":59,"programNumber":41},{"time":179666.48700000078,"duration":55.55549999998766,"noteNumber":83,"velocity":59,"programNumber":41},{"time":179722.04250000077,"duration":55.55549999998766,"noteNumber":85,"velocity":59,"programNumber":41},{"time":179777.59800000075,"duration":222.22200000000885,"noteNumber":81,"velocity":59,"programNumber":41},{"time":180444.26400000075,"duration":629.6289999999863,"noteNumber":83,"velocity":85,"programNumber":41},{"time":180444.26400000075,"duration":629.6289999999863,"noteNumber":71,"velocity":85,"programNumber":41},{"time":181110.93000000075,"duration":74.07399999999325,"noteNumber":81,"velocity":85,"programNumber":41},{"time":181185.00400000074,"duration":74.07399999999325,"noteNumber":79,"velocity":85,"programNumber":41},{"time":181259.07800000074,"duration":74.07399999999325,"noteNumber":78,"velocity":85,"programNumber":41},{"time":181333.15200000073,"duration":444.4439999999886,"noteNumber":79,"velocity":85,"programNumber":41},{"time":182222.0400000007,"duration":629.6289999999863,"noteNumber":69,"velocity":85,"programNumber":41},{"time":182222.0400000007,"duration":629.6289999999863,"noteNumber":81,"velocity":85,"programNumber":41},{"time":182888.7060000007,"duration":74.07399999999325,"noteNumber":79,"velocity":85,"programNumber":41},{"time":182962.7800000007,"duration":74.07399999999325,"noteNumber":78,"velocity":85,"programNumber":41},{"time":183036.8540000007,"duration":74.07399999999325,"noteNumber":76,"velocity":85,"programNumber":41},{"time":183110.92800000068,"duration":444.4439999999886,"noteNumber":78,"velocity":85,"programNumber":41},{"time":183999.81600000066,"duration":222.22200000000885,"noteNumber":83,"velocity":85,"programNumber":41},{"time":184222.03800000067,"duration":111.11100000000442,"noteNumber":85,"velocity":85,"programNumber":41},{"time":184333.14900000067,"duration":111.11100000000442,"noteNumber":86,"velocity":85,"programNumber":41},{"time":184444.26000000068,"duration":166.66649999999208,"noteNumber":85,"velocity":85,"programNumber":41},{"time":184666.48200000066,"duration":111.11100000000442,"noteNumber":83,"velocity":85,"programNumber":41},{"time":184888.70400000067,"duration":222.22200000000885,"noteNumber":83,"velocity":95,"programNumber":41},{"time":185110.92600000068,"duration":166.66649999999208,"noteNumber":81,"velocity":85,"programNumber":41},{"time":185333.14800000066,"duration":111.11100000000442,"noteNumber":78,"velocity":85,"programNumber":41},{"time":185555.37000000066,"duration":111.11100000000442,"noteNumber":81,"velocity":85,"programNumber":41},{"time":185777.59200000067,"duration":222.22200000000885,"noteNumber":81,"velocity":85,"programNumber":41},{"time":185999.81400000068,"duration":166.66649999999208,"noteNumber":79,"velocity":85,"programNumber":41},{"time":186222.03600000066,"duration":111.11100000000442,"noteNumber":78,"velocity":85,"programNumber":41},{"time":186444.25800000067,"duration":111.11100000000442,"noteNumber":76,"velocity":85,"programNumber":41},{"time":186666.48000000068,"duration":166.66649999999208,"noteNumber":74,"velocity":85,"programNumber":41},{"time":186888.70200000066,"duration":166.66649999999208,"noteNumber":69,"velocity":85,"programNumber":41},{"time":187110.92400000064,"duration":166.66649999999208,"noteNumber":71,"velocity":85,"programNumber":41},{"time":187333.14600000062,"duration":166.66649999999208,"noteNumber":73,"velocity":85,"programNumber":41},{"time":187555.3680000006,"duration":111.11100000000442,"noteNumber":74,"velocity":85,"programNumber":41},{"time":187777.5900000006,"duration":111.11100000000442,"noteNumber":74,"velocity":85,"programNumber":41},{"time":187999.81200000062,"duration":55.55549999998766,"noteNumber":76,"velocity":85,"programNumber":41},{"time":188055.3675000006,"duration":55.55549999998766,"noteNumber":78,"velocity":85,"programNumber":41},{"time":188110.9230000006,"duration":55.55549999998766,"noteNumber":76,"velocity":85,"programNumber":41},{"time":188166.47850000058,"duration":55.55549999998766,"noteNumber":78,"velocity":85,"programNumber":41},{"time":188222.03400000057,"duration":111.11100000000442,"noteNumber":74,"velocity":85,"programNumber":41},{"time":188333.14500000057,"duration":111.11100000000442,"noteNumber":76,"velocity":85,"programNumber":41},{"time":188444.25600000058,"duration":222.22200000000885,"noteNumber":78,"velocity":85,"programNumber":41},{"time":188666.47800000058,"duration":166.66649999999208,"noteNumber":73,"velocity":85,"programNumber":41},{"time":188888.70000000056,"duration":166.66649999999208,"noteNumber":74,"velocity":85,"programNumber":41},{"time":189110.92200000054,"duration":166.66649999999208,"noteNumber":76,"velocity":85,"programNumber":41},{"time":189333.14400000052,"duration":166.66649999999208,"noteNumber":78,"velocity":85,"programNumber":41},{"time":189555.3660000005,"duration":166.66649999999208,"noteNumber":78,"velocity":85,"programNumber":41},{"time":189777.58800000048,"duration":55.55549999998766,"noteNumber":79,"velocity":85,"programNumber":41},{"time":189833.14350000047,"duration":55.55549999998766,"noteNumber":81,"velocity":86,"programNumber":41},{"time":189888.69900000046,"duration":55.55549999998766,"noteNumber":79,"velocity":86,"programNumber":41},{"time":189944.25450000045,"duration":55.55549999998766,"noteNumber":81,"velocity":86,"programNumber":41},{"time":189999.81000000043,"duration":111.11100000000442,"noteNumber":78,"velocity":86,"programNumber":41},{"time":190110.92100000044,"duration":111.11100000000442,"noteNumber":79,"velocity":88,"programNumber":41},{"time":190222.03200000044,"duration":166.66649999999208,"noteNumber":81,"velocity":88,"programNumber":41},{"time":190444.25400000042,"duration":166.66649999999208,"noteNumber":81,"velocity":88,"programNumber":41},{"time":190666.4760000004,"duration":55.55549999998766,"noteNumber":82,"velocity":89,"programNumber":41},{"time":190722.0315000004,"duration":55.55549999998766,"noteNumber":83,"velocity":91,"programNumber":41},{"time":190777.58700000038,"duration":55.55549999998766,"noteNumber":82,"velocity":91,"programNumber":41},{"time":190833.14250000037,"duration":55.55549999998766,"noteNumber":83,"velocity":91,"programNumber":41},{"time":190888.69800000035,"duration":111.11100000000442,"noteNumber":80,"velocity":92,"programNumber":41},{"time":190999.80900000036,"duration":111.11100000000442,"noteNumber":82,"velocity":94,"programNumber":41},{"time":191110.92000000036,"duration":444.4439999999886,"noteNumber":83,"velocity":98,"programNumber":41},{"time":191999.80800000034,"duration":666.6659999999974,"noteNumber":71,"velocity":40,"programNumber":41},{"time":192666.47400000034,"duration":166.66649999999208,"noteNumber":76,"velocity":47,"programNumber":41},{"time":192888.69600000032,"duration":222.22200000000885,"noteNumber":74,"velocity":49,"programNumber":41},{"time":193110.91800000033,"duration":222.22200000000885,"noteNumber":73,"velocity":49,"programNumber":41},{"time":193333.14000000033,"duration":222.22200000000885,"noteNumber":71,"velocity":43,"programNumber":41},{"time":193555.36200000034,"duration":222.22200000000885,"noteNumber":69,"velocity":41,"programNumber":41},{"time":193777.58400000035,"duration":222.22200000000885,"noteNumber":74,"velocity":40,"programNumber":41},{"time":194222.02800000037,"duration":222.22200000000885,"noteNumber":78,"velocity":59,"programNumber":41},{"time":194666.4720000004,"duration":222.22200000000885,"noteNumber":74,"velocity":57,"programNumber":41},{"time":195555.3600000004,"duration":444.4439999999886,"noteNumber":74,"velocity":100,"programNumber":41},{"time":195555.3600000004,"duration":444.4439999999886,"noteNumber":62,"velocity":100,"programNumber":41},{"time":196222.0260000004,"duration":166.66649999999208,"noteNumber":69,"velocity":91,"programNumber":41},{"time":196444.24800000037,"duration":444.4439999999886,"noteNumber":74,"velocity":91,"programNumber":41},{"time":197110.91400000037,"duration":166.66649999999208,"noteNumber":69,"velocity":91,"programNumber":41},{"time":197333.13600000035,"duration":166.66649999999208,"noteNumber":74,"velocity":91,"programNumber":41},{"time":197555.35800000033,"duration":166.66649999999208,"noteNumber":69,"velocity":91,"programNumber":41},{"time":197777.5800000003,"duration":166.66649999999208,"noteNumber":74,"velocity":91,"programNumber":41},{"time":197999.8020000003,"duration":166.66649999999208,"noteNumber":78,"velocity":91,"programNumber":41},{"time":198222.02400000027,"duration":444.4439999999886,"noteNumber":81,"velocity":91,"programNumber":41},{"time":199110.91200000024,"duration":444.4439999999886,"noteNumber":81,"velocity":91,"programNumber":41},{"time":199777.57800000024,"duration":166.66649999999208,"noteNumber":78,"velocity":91,"programNumber":41},{"time":199999.80000000022,"duration":444.4439999999886,"noteNumber":81,"velocity":91,"programNumber":41},{"time":200666.46600000022,"duration":166.66649999999208,"noteNumber":78,"velocity":91,"programNumber":41},{"time":200888.6880000002,"duration":166.66649999999208,"noteNumber":81,"velocity":91,"programNumber":41},{"time":201110.91000000018,"duration":166.66649999999208,"noteNumber":78,"velocity":91,"programNumber":41},{"time":201333.13200000016,"duration":166.66649999999208,"noteNumber":75,"velocity":91,"programNumber":41},{"time":201555.35400000014,"duration":166.66649999999208,"noteNumber":78,"velocity":91,"programNumber":41},{"time":201777.57600000012,"duration":444.4439999999886,"noteNumber":71,"velocity":91,"programNumber":41},{"time":203333.1300000001,"duration":166.66649999999208,"noteNumber":79,"velocity":55,"programNumber":41},{"time":203555.35200000007,"duration":222.22200000000885,"noteNumber":84,"velocity":55,"programNumber":41},{"time":203777.57400000008,"duration":222.22200000000885,"noteNumber":83,"velocity":55,"programNumber":41},{"time":203999.7960000001,"duration":222.22200000000885,"noteNumber":81,"velocity":55,"programNumber":41},{"time":204222.0180000001,"duration":222.22200000000885,"noteNumber":79,"velocity":55,"programNumber":41},{"time":204444.2400000001,"duration":55.55549999998766,"noteNumber":81,"velocity":55,"programNumber":41},{"time":204499.7955000001,"duration":55.55549999998766,"noteNumber":83,"velocity":55,"programNumber":41},{"time":204555.35100000008,"duration":55.55549999998766,"noteNumber":81,"velocity":55,"programNumber":41},{"time":204610.90650000007,"duration":55.55549999998766,"noteNumber":83,"velocity":55,"programNumber":41},{"time":204666.46200000006,"duration":222.22200000000885,"noteNumber":79,"velocity":55,"programNumber":41},{"time":205110.90600000008,"duration":111.11100000000442,"noteNumber":79,"velocity":55,"programNumber":41},{"time":205333.12800000008,"duration":111.11100000000442,"noteNumber":79,"velocity":55,"programNumber":41},{"time":205555.3500000001,"duration":111.11100000000442,"noteNumber":79,"velocity":55,"programNumber":41},{"time":205777.5720000001,"duration":111.11100000000442,"noteNumber":79,"velocity":55,"programNumber":41},{"time":205999.7940000001,"duration":111.11100000000442,"noteNumber":79,"velocity":55,"programNumber":41},{"time":206222.01600000012,"duration":55.55549999998766,"noteNumber":81,"velocity":55,"programNumber":41},{"time":206277.5715000001,"duration":55.55549999998766,"noteNumber":83,"velocity":55,"programNumber":41},{"time":206333.1270000001,"duration":55.55549999998766,"noteNumber":81,"velocity":55,"programNumber":41},{"time":206388.68250000008,"duration":55.55549999998766,"noteNumber":83,"velocity":55,"programNumber":41},{"time":206444.23800000007,"duration":222.22200000000885,"noteNumber":79,"velocity":55,"programNumber":41},{"time":206888.6820000001,"duration":166.66649999999208,"noteNumber":79,"velocity":55,"programNumber":41},{"time":207110.90400000007,"duration":222.22200000000885,"noteNumber":84,"velocity":55,"programNumber":41},{"time":207333.12600000008,"duration":222.22200000000885,"noteNumber":83,"velocity":55,"programNumber":41},{"time":207555.3480000001,"duration":222.22200000000885,"noteNumber":81,"velocity":55,"programNumber":41},{"time":207777.5700000001,"duration":222.22200000000885,"noteNumber":79,"velocity":55,"programNumber":41},{"time":207999.7920000001,"duration":55.55549999998766,"noteNumber":81,"velocity":55,"programNumber":41},{"time":208055.3475000001,"duration":55.55549999998766,"noteNumber":83,"velocity":55,"programNumber":41},{"time":208110.90300000008,"duration":55.55549999998766,"noteNumber":81,"velocity":55,"programNumber":41},{"time":208166.45850000007,"duration":55.55549999998766,"noteNumber":83,"velocity":55,"programNumber":41},{"time":208222.01400000005,"duration":222.22200000000885,"noteNumber":79,"velocity":55,"programNumber":41},{"time":208666.45800000007,"duration":111.11100000000442,"noteNumber":79,"velocity":55,"programNumber":41},{"time":208888.68000000008,"duration":111.11100000000442,"noteNumber":79,"velocity":55,"programNumber":41},{"time":209110.9020000001,"duration":111.11100000000442,"noteNumber":79,"velocity":55,"programNumber":41},{"time":209333.1240000001,"duration":111.11100000000442,"noteNumber":79,"velocity":55,"programNumber":41},{"time":209555.3460000001,"duration":111.11100000000442,"noteNumber":79,"velocity":55,"programNumber":41},{"time":209777.56800000012,"duration":55.55549999998766,"noteNumber":81,"velocity":55,"programNumber":41},{"time":209833.1235000001,"duration":55.55549999998766,"noteNumber":83,"velocity":55,"programNumber":41},{"time":209888.6790000001,"duration":55.55549999998766,"noteNumber":81,"velocity":55,"programNumber":41},{"time":209944.23450000008,"duration":55.55549999998766,"noteNumber":83,"velocity":55,"programNumber":41},{"time":209999.79000000007,"duration":222.22200000000885,"noteNumber":79,"velocity":55,"programNumber":41},{"time":210444.23400000008,"duration":166.66649999999208,"noteNumber":79,"velocity":55,"programNumber":41},{"time":210666.45600000006,"duration":222.22200000000885,"noteNumber":84,"velocity":55,"programNumber":41},{"time":210888.67800000007,"duration":222.22200000000885,"noteNumber":83,"velocity":55,"programNumber":41},{"time":211110.90000000008,"duration":222.22200000000885,"noteNumber":81,"velocity":55,"programNumber":41},{"time":211333.1220000001,"duration":222.22200000000885,"noteNumber":79,"velocity":55,"programNumber":41},{"time":211555.3440000001,"duration":55.55549999998766,"noteNumber":81,"velocity":55,"programNumber":41},{"time":211610.8995000001,"duration":55.55549999998766,"noteNumber":83,"velocity":55,"programNumber":41},{"time":211666.45500000007,"duration":55.55549999998766,"noteNumber":81,"velocity":55,"programNumber":41},{"time":211722.01050000006,"duration":55.55549999998766,"noteNumber":83,"velocity":55,"programNumber":41},{"time":211777.56600000005,"duration":222.22200000000885,"noteNumber":80,"velocity":55,"programNumber":41},{"time":212222.01000000007,"duration":111.11100000000442,"noteNumber":80,"velocity":55,"programNumber":41},{"time":212444.23200000008,"duration":111.11100000000442,"noteNumber":80,"velocity":55,"programNumber":41},{"time":212666.45400000009,"duration":111.11100000000442,"noteNumber":80,"velocity":55,"programNumber":41},{"time":212888.6760000001,"duration":111.11100000000442,"noteNumber":80,"velocity":55,"programNumber":41},{"time":213110.8980000001,"duration":111.11100000000442,"noteNumber":80,"velocity":55,"programNumber":41},{"time":213333.1200000001,"duration":55.55549999998766,"noteNumber":83,"velocity":55,"programNumber":41},{"time":213388.6755000001,"duration":55.55549999998766,"noteNumber":84,"velocity":55,"programNumber":41},{"time":213444.2310000001,"duration":55.55549999998766,"noteNumber":83,"velocity":55,"programNumber":41},{"time":213499.78650000007,"duration":55.55549999998766,"noteNumber":84,"velocity":55,"programNumber":41},{"time":213555.34200000006,"duration":222.22200000000885,"noteNumber":81,"velocity":55,"programNumber":41},{"time":213999.78600000008,"duration":166.66649999999208,"noteNumber":81,"velocity":55,"programNumber":41},{"time":214222.00800000006,"duration":222.22200000000885,"noteNumber":84,"velocity":55,"programNumber":41},{"time":214444.23000000007,"duration":222.22200000000885,"noteNumber":82,"velocity":55,"programNumber":41},{"time":214666.45200000008,"duration":222.22200000000885,"noteNumber":81,"velocity":55,"programNumber":41},{"time":214888.6740000001,"duration":222.22200000000885,"noteNumber":79,"velocity":55,"programNumber":41},{"time":215110.8960000001,"duration":55.55549999998766,"noteNumber":79,"velocity":55,"programNumber":41},{"time":215166.45150000008,"duration":55.55549999998766,"noteNumber":81,"velocity":55,"programNumber":41},{"time":215222.00700000007,"duration":55.55549999998766,"noteNumber":79,"velocity":55,"programNumber":41},{"time":215277.56250000006,"duration":55.55549999998766,"noteNumber":81,"velocity":55,"programNumber":41},{"time":215333.11800000005,"duration":222.22200000000885,"noteNumber":78,"velocity":55,"programNumber":41},{"time":215777.56200000006,"duration":111.11100000000442,"noteNumber":78,"velocity":55,"programNumber":41},{"time":215999.78400000007,"duration":111.11100000000442,"noteNumber":78,"velocity":55,"programNumber":41},{"time":216222.00600000008,"duration":111.11100000000442,"noteNumber":78,"velocity":55,"programNumber":41},{"time":216444.2280000001,"duration":111.11100000000442,"noteNumber":78,"velocity":55,"programNumber":41},{"time":216666.4500000001,"duration":111.11100000000442,"noteNumber":78,"velocity":55,"programNumber":41},{"time":216888.6720000001,"duration":55.55549999998766,"noteNumber":81,"velocity":55,"programNumber":41},{"time":216944.2275000001,"duration":55.55549999998766,"noteNumber":82,"velocity":55,"programNumber":41},{"time":216999.78300000008,"duration":55.55549999998766,"noteNumber":81,"velocity":55,"programNumber":41},{"time":217055.33850000007,"duration":55.55549999998766,"noteNumber":82,"velocity":55,"programNumber":41},{"time":217110.89400000006,"duration":222.22200000000885,"noteNumber":79,"velocity":55,"programNumber":41},{"time":217555.33800000008,"duration":166.66649999999208,"noteNumber":75,"velocity":55,"programNumber":41},{"time":217777.56000000006,"duration":222.22200000000885,"noteNumber":79,"velocity":55,"programNumber":41},{"time":217999.78200000006,"duration":222.22200000000885,"noteNumber":77,"velocity":55,"programNumber":41},{"time":218222.00400000007,"duration":222.22200000000885,"noteNumber":76,"velocity":55,"programNumber":41},{"time":218444.22600000008,"duration":222.22200000000885,"noteNumber":74,"velocity":55,"programNumber":41},{"time":218666.4480000001,"duration":55.55549999998766,"noteNumber":74,"velocity":55,"programNumber":41},{"time":218722.00350000008,"duration":55.55549999998766,"noteNumber":75,"velocity":55,"programNumber":41},{"time":218777.55900000007,"duration":55.55549999998766,"noteNumber":74,"velocity":55,"programNumber":41},{"time":218833.11450000005,"duration":55.55549999998766,"noteNumber":75,"velocity":55,"programNumber":41},{"time":218888.67000000004,"duration":222.22200000000885,"noteNumber":73,"velocity":55,"programNumber":41},{"time":219333.11400000006,"duration":111.11100000000442,"noteNumber":73,"velocity":55,"programNumber":41},{"time":219555.33600000007,"duration":111.11100000000442,"noteNumber":73,"velocity":55,"programNumber":41},{"time":219777.55800000008,"duration":111.11100000000442,"noteNumber":73,"velocity":55,"programNumber":41},{"time":219999.7800000001,"duration":111.11100000000442,"noteNumber":73,"velocity":55,"programNumber":41},{"time":220222.0020000001,"duration":111.11100000000442,"noteNumber":73,"velocity":55,"programNumber":41},{"time":220444.2240000001,"duration":55.55549999998766,"noteNumber":76,"velocity":53,"programNumber":41},{"time":220499.7795000001,"duration":55.55549999998766,"noteNumber":78,"velocity":53,"programNumber":41},{"time":220555.33500000008,"duration":55.55549999998766,"noteNumber":76,"velocity":53,"programNumber":41},{"time":220610.89050000007,"duration":55.55549999998766,"noteNumber":78,"velocity":53,"programNumber":41},{"time":220666.44600000005,"duration":222.22200000000885,"noteNumber":74,"velocity":53,"programNumber":41},{"time":221110.89000000007,"duration":222.22200000000885,"noteNumber":62,"velocity":91,"programNumber":41},{"time":221333.11200000008,"duration":222.22200000000885,"noteNumber":64,"velocity":91,"programNumber":41},{"time":221555.3340000001,"duration":222.22200000000885,"noteNumber":66,"velocity":91,"programNumber":41},{"time":221777.5560000001,"duration":222.22200000000885,"noteNumber":67,"velocity":91,"programNumber":41},{"time":221999.7780000001,"duration":222.22200000000885,"noteNumber":69,"velocity":91,"programNumber":41},{"time":222222.00000000012,"duration":222.22200000000885,"noteNumber":72,"velocity":91,"programNumber":41},{"time":222444.22200000013,"duration":222.22200000000885,"noteNumber":70,"velocity":91,"programNumber":41},{"time":222888.66600000014,"duration":222.22200000000885,"noteNumber":66,"velocity":91,"programNumber":41},{"time":223110.88800000015,"duration":222.22200000000885,"noteNumber":67,"velocity":91,"programNumber":41},{"time":223333.11000000016,"duration":222.22200000000885,"noteNumber":69,"velocity":91,"programNumber":41},{"time":223555.33200000017,"duration":222.22200000000885,"noteNumber":70,"velocity":91,"programNumber":41},{"time":223777.55400000018,"duration":222.22200000000885,"noteNumber":73,"velocity":91,"programNumber":41},{"time":223999.7760000002,"duration":222.22200000000885,"noteNumber":76,"velocity":91,"programNumber":41},{"time":224221.9980000002,"duration":222.22200000000885,"noteNumber":74,"velocity":91,"programNumber":41},{"time":224666.4420000002,"duration":222.22200000000885,"noteNumber":74,"velocity":53,"programNumber":41},{"time":224888.66400000022,"duration":222.22200000000885,"noteNumber":76,"velocity":53,"programNumber":41},{"time":225110.88600000023,"duration":222.22200000000885,"noteNumber":78,"velocity":53,"programNumber":41},{"time":225333.10800000024,"duration":222.22200000000885,"noteNumber":79,"velocity":53,"programNumber":41},{"time":225555.33000000025,"duration":222.22200000000885,"noteNumber":81,"velocity":52,"programNumber":41},{"time":225777.55200000026,"duration":444.4439999999886,"noteNumber":82,"velocity":50,"programNumber":41},{"time":226221.99600000025,"duration":444.4439999999886,"noteNumber":83,"velocity":46,"programNumber":41},{"time":226666.44000000024,"duration":444.4439999999886,"noteNumber":84,"velocity":43,"programNumber":41},{"time":227110.88400000022,"duration":444.4439999999886,"noteNumber":85,"velocity":40,"programNumber":41},{"time":227555.3280000002,"duration":2611.108500000002,"noteNumber":86,"velocity":59,"programNumber":41},{"time":230221.9920000002,"duration":55.55549999998766,"noteNumber":78,"velocity":52,"programNumber":41},{"time":230277.5475000002,"duration":55.55549999998766,"noteNumber":79,"velocity":53,"programNumber":41},{"time":230333.10300000018,"duration":55.55549999998766,"noteNumber":78,"velocity":55,"programNumber":41},{"time":230388.65850000017,"duration":55.55549999998766,"noteNumber":79,"velocity":58,"programNumber":41},{"time":230444.21400000015,"duration":55.55549999998766,"noteNumber":78,"velocity":59,"programNumber":41},{"time":230499.76950000014,"duration":55.55549999998766,"noteNumber":79,"velocity":61,"programNumber":41},{"time":230555.32500000013,"duration":55.55549999998766,"noteNumber":78,"velocity":62,"programNumber":41},{"time":230610.88050000012,"duration":55.55549999998766,"noteNumber":79,"velocity":65,"programNumber":41},{"time":230666.4360000001,"duration":55.55549999998766,"noteNumber":78,"velocity":67,"programNumber":41},{"time":230721.9915000001,"duration":55.55549999998766,"noteNumber":79,"velocity":68,"programNumber":41},{"time":230777.54700000008,"duration":55.55549999998766,"noteNumber":78,"velocity":70,"programNumber":41},{"time":230833.10250000007,"duration":55.55549999998766,"noteNumber":79,"velocity":71,"programNumber":41},{"time":230888.65800000005,"duration":111.11100000000442,"noteNumber":76,"velocity":74,"programNumber":41},{"time":230999.76900000006,"duration":111.11100000000442,"noteNumber":78,"velocity":77,"programNumber":41},{"time":231110.88000000006,"duration":444.4439999999886,"noteNumber":79,"velocity":93,"programNumber":41},{"time":231777.54600000006,"duration":111.11100000000442,"noteNumber":74,"velocity":92,"programNumber":41},{"time":231999.76800000007,"duration":444.4439999999886,"noteNumber":79,"velocity":92,"programNumber":41},{"time":232666.43400000007,"duration":111.11100000000442,"noteNumber":74,"velocity":91,"programNumber":41},{"time":232888.65600000008,"duration":111.11100000000442,"noteNumber":79,"velocity":90,"programNumber":41},{"time":233110.87800000008,"duration":111.11100000000442,"noteNumber":74,"velocity":90,"programNumber":41},{"time":233333.1000000001,"duration":111.11100000000442,"noteNumber":79,"velocity":90,"programNumber":41},{"time":233555.3220000001,"duration":111.11100000000442,"noteNumber":83,"velocity":90,"programNumber":41},{"time":233777.5440000001,"duration":444.4439999999886,"noteNumber":86,"velocity":89,"programNumber":41},{"time":234666.4320000001,"duration":444.4439999999886,"noteNumber":84,"velocity":104,"programNumber":41},{"time":235333.0980000001,"duration":111.11100000000442,"noteNumber":81,"velocity":87,"programNumber":41},{"time":235555.3200000001,"duration":444.4439999999886,"noteNumber":84,"velocity":86,"programNumber":41},{"time":236221.9860000001,"duration":111.11100000000442,"noteNumber":81,"velocity":85,"programNumber":41},{"time":236444.2080000001,"duration":111.11100000000442,"noteNumber":84,"velocity":92,"programNumber":41},{"time":236666.4300000001,"duration":111.11100000000442,"noteNumber":81,"velocity":85,"programNumber":41},{"time":236888.65200000012,"duration":111.11100000000442,"noteNumber":78,"velocity":92,"programNumber":41},{"time":237110.87400000013,"duration":111.11100000000442,"noteNumber":81,"velocity":85,"programNumber":41},{"time":237333.09600000014,"duration":444.4439999999886,"noteNumber":74,"velocity":94,"programNumber":41},{"time":238221.9840000001,"duration":222.22200000000885,"noteNumber":71,"velocity":92,"programNumber":41},{"time":238221.9840000001,"duration":222.22200000000885,"noteNumber":79,"velocity":92,"programNumber":41},{"time":238221.9840000001,"duration":222.22200000000885,"noteNumber":62,"velocity":92,"programNumber":41},{"time":238666.42800000013,"duration":666.6659999999974,"noteNumber":79,"velocity":85,"programNumber":41},{"time":239333.09400000013,"duration":222.22200000000885,"noteNumber":83,"velocity":74,"programNumber":41},{"time":239555.31600000014,"duration":111.11100000000442,"noteNumber":81,"velocity":74,"programNumber":41},{"time":239777.53800000015,"duration":111.11100000000442,"noteNumber":79,"velocity":80,"programNumber":41},{"time":239999.76000000015,"duration":55.55549999998766,"noteNumber":79,"velocity":86,"programNumber":41},{"time":240055.31550000014,"duration":55.55549999998766,"noteNumber":81,"velocity":86,"programNumber":41},{"time":240110.87100000013,"duration":55.55549999998766,"noteNumber":79,"velocity":86,"programNumber":41},{"time":240166.42650000012,"duration":55.55549999998766,"noteNumber":81,"velocity":86,"programNumber":41},{"time":240221.9820000001,"duration":185.18499999999767,"noteNumber":78,"velocity":83,"programNumber":41},{"time":240444.2040000001,"duration":666.6659999999974,"noteNumber":78,"velocity":77,"programNumber":41},{"time":241110.8700000001,"duration":222.22200000000885,"noteNumber":81,"velocity":85,"programNumber":41},{"time":241333.09200000012,"duration":111.11100000000442,"noteNumber":84,"velocity":85,"programNumber":41},{"time":241555.31400000013,"duration":111.11100000000442,"noteNumber":78,"velocity":85,"programNumber":41},{"time":241777.53600000014,"duration":222.22200000000885,"noteNumber":81,"velocity":85,"programNumber":41},{"time":241999.75800000015,"duration":111.11100000000442,"noteNumber":79,"velocity":85,"programNumber":41},{"time":242221.98000000016,"duration":666.6659999999974,"noteNumber":79,"velocity":85,"programNumber":41},{"time":242888.64600000015,"duration":222.22200000000885,"noteNumber":83,"velocity":85,"programNumber":41},{"time":243110.86800000016,"duration":111.11100000000442,"noteNumber":81,"velocity":85,"programNumber":41},{"time":243333.09000000017,"duration":111.11100000000442,"noteNumber":79,"velocity":85,"programNumber":41},{"time":243555.31200000018,"duration":55.55549999998766,"noteNumber":79,"velocity":85,"programNumber":41},{"time":243610.86750000017,"duration":55.55549999998766,"noteNumber":81,"velocity":85,"programNumber":41},{"time":243666.42300000016,"duration":55.55549999998766,"noteNumber":79,"velocity":85,"programNumber":41},{"time":243721.97850000014,"duration":55.55549999998766,"noteNumber":81,"velocity":85,"programNumber":41},{"time":243777.53400000013,"duration":185.18499999999767,"noteNumber":78,"velocity":85,"programNumber":41},{"time":243999.75600000014,"duration":666.6659999999974,"noteNumber":78,"velocity":85,"programNumber":41},{"time":244666.42200000014,"duration":222.22200000000885,"noteNumber":81,"velocity":85,"programNumber":41},{"time":244888.64400000015,"duration":111.11100000000442,"noteNumber":84,"velocity":85,"programNumber":41},{"time":245110.86600000015,"duration":111.11100000000442,"noteNumber":78,"velocity":85,"programNumber":41},{"time":245333.08800000016,"duration":111.11100000000442,"noteNumber":79,"velocity":85,"programNumber":41},{"time":245555.31000000017,"duration":111.11100000000442,"noteNumber":79,"velocity":85,"programNumber":41},{"time":245777.53200000018,"duration":111.11100000000442,"noteNumber":79,"velocity":85,"programNumber":41},{"time":245888.6430000002,"duration":111.11100000000442,"noteNumber":78,"velocity":85,"programNumber":41},{"time":245999.7540000002,"duration":111.11100000000442,"noteNumber":76,"velocity":85,"programNumber":41},{"time":246110.8650000002,"duration":111.11100000000442,"noteNumber":78,"velocity":85,"programNumber":41},{"time":246221.9760000002,"duration":111.11100000000442,"noteNumber":79,"velocity":85,"programNumber":41},{"time":246444.1980000002,"duration":111.11100000000442,"noteNumber":79,"velocity":85,"programNumber":41},{"time":246666.42000000022,"duration":111.11100000000442,"noteNumber":83,"velocity":85,"programNumber":41},{"time":246777.53100000022,"duration":111.11100000000442,"noteNumber":81,"velocity":85,"programNumber":41},{"time":246888.64200000023,"duration":111.11100000000442,"noteNumber":79,"velocity":85,"programNumber":41},{"time":246999.75300000023,"duration":111.11100000000442,"noteNumber":81,"velocity":83,"programNumber":41},{"time":247110.86400000023,"duration":111.11100000000442,"noteNumber":83,"velocity":83,"programNumber":41},{"time":247333.08600000024,"duration":111.11100000000442,"noteNumber":83,"velocity":83,"programNumber":41},{"time":247555.30800000025,"duration":111.11100000000442,"noteNumber":86,"velocity":83,"programNumber":41},{"time":247666.41900000026,"duration":111.11100000000442,"noteNumber":84,"velocity":80,"programNumber":41},{"time":247777.53000000026,"duration":111.11100000000442,"noteNumber":83,"velocity":79,"programNumber":41},{"time":247888.64100000027,"duration":111.11100000000442,"noteNumber":84,"velocity":76,"programNumber":41},{"time":247999.75200000027,"duration":444.4439999999886,"noteNumber":86,"velocity":71,"programNumber":41},{"time":248888.64000000025,"duration":888.8880000000063,"noteNumber":74,"velocity":56,"programNumber":41},{"time":249777.52800000025,"duration":888.8880000000063,"noteNumber":76,"velocity":55,"programNumber":41},{"time":250666.41600000026,"duration":111.11100000000442,"noteNumber":74,"velocity":57,"programNumber":41},{"time":250777.52700000026,"duration":296.2960000000021,"noteNumber":72,"velocity":59,"programNumber":41},{"time":251110.86000000028,"duration":444.4439999999886,"noteNumber":72,"velocity":58,"programNumber":41},{"time":251555.30400000027,"duration":111.11100000000442,"noteNumber":72,"velocity":57,"programNumber":41},{"time":251666.41500000027,"duration":296.2960000000021,"noteNumber":71,"velocity":55,"programNumber":41},{"time":251999.74800000028,"duration":444.4439999999886,"noteNumber":71,"velocity":53,"programNumber":41},{"time":252444.19200000027,"duration":111.11100000000442,"noteNumber":71,"velocity":57,"programNumber":41},{"time":252555.30300000028,"duration":296.2960000000021,"noteNumber":69,"velocity":56,"programNumber":41},{"time":252888.6360000003,"duration":444.4439999999886,"noteNumber":69,"velocity":55,"programNumber":41},{"time":253333.08000000028,"duration":222.22200000000885,"noteNumber":67,"velocity":54,"programNumber":41},{"time":253555.3020000003,"duration":111.11100000000442,"noteNumber":66,"velocity":55,"programNumber":41},{"time":253777.5240000003,"duration":111.11100000000442,"noteNumber":64,"velocity":55,"programNumber":41},{"time":253999.7460000003,"duration":111.11100000000442,"noteNumber":66,"velocity":55,"programNumber":41},{"time":254221.9680000003,"duration":222.22200000000885,"noteNumber":67,"velocity":56,"programNumber":41},{"time":254666.41200000033,"duration":222.22200000000885,"noteNumber":69,"velocity":57,"programNumber":41},{"time":255110.85600000035,"duration":222.22200000000885,"noteNumber":71,"velocity":57,"programNumber":41},{"time":255999.74400000036,"duration":888.8880000000063,"noteNumber":74,"velocity":56,"programNumber":41},{"time":256888.63200000036,"duration":888.8880000000063,"noteNumber":76,"velocity":59,"programNumber":41},{"time":257777.52000000037,"duration":222.22200000000885,"noteNumber":74,"velocity":46,"programNumber":41},{"time":257999.74200000038,"duration":111.11100000000442,"noteNumber":72,"velocity":51,"programNumber":41},{"time":258221.9640000004,"duration":111.11100000000442,"noteNumber":72,"velocity":51,"programNumber":41},{"time":258444.1860000004,"duration":111.11100000000442,"noteNumber":72,"velocity":51,"programNumber":41},{"time":258666.4080000004,"duration":222.22200000000885,"noteNumber":72,"velocity":51,"programNumber":41},{"time":258888.6300000004,"duration":111.11100000000442,"noteNumber":71,"velocity":50,"programNumber":41},{"time":259110.85200000042,"duration":111.11100000000442,"noteNumber":71,"velocity":49,"programNumber":41},{"time":259333.07400000043,"duration":111.11100000000442,"noteNumber":71,"velocity":49,"programNumber":41},{"time":259555.29600000044,"duration":222.22200000000885,"noteNumber":71,"velocity":49,"programNumber":41},{"time":259777.51800000045,"duration":111.11100000000442,"noteNumber":69,"velocity":50,"programNumber":41},{"time":259999.74000000046,"duration":166.66649999999208,"noteNumber":69,"velocity":52,"programNumber":41},{"time":260221.96200000044,"duration":166.66649999999208,"noteNumber":69,"velocity":52,"programNumber":41},{"time":260444.18400000042,"duration":222.22200000000885,"noteNumber":67,"velocity":52,"programNumber":41},{"time":260666.40600000042,"duration":222.22200000000885,"noteNumber":66,"velocity":54,"programNumber":41},{"time":260888.62800000043,"duration":222.22200000000885,"noteNumber":64,"velocity":55,"programNumber":41},{"time":261110.85000000044,"duration":222.22200000000885,"noteNumber":66,"velocity":55,"programNumber":41},{"time":261333.07200000045,"duration":1111.109999999986,"noteNumber":67,"velocity":85,"programNumber":41},{"time":261333.07200000045,"duration":1111.109999999986,"noteNumber":55,"velocity":85,"programNumber":41},{"time":262444.18200000044,"duration":55.555500000016764,"noteNumber":67,"velocity":61,"programNumber":41},{"time":262499.73750000045,"duration":55.555500000016764,"noteNumber":69,"velocity":61,"programNumber":41},{"time":262555.29300000047,"duration":55.555500000016764,"noteNumber":66,"velocity":61,"programNumber":41},{"time":262610.8485000005,"duration":55.555500000016764,"noteNumber":67,"velocity":61,"programNumber":41},{"time":262666.4040000005,"duration":222.22200000000885,"noteNumber":69,"velocity":61,"programNumber":41},{"time":262888.6260000005,"duration":222.22200000000885,"noteNumber":66,"velocity":61,"programNumber":41},{"time":263110.8480000005,"duration":1111.109999999986,"noteNumber":71,"velocity":91,"programNumber":41},{"time":264221.9580000005,"duration":55.555500000016764,"noteNumber":71,"velocity":61,"programNumber":41},{"time":264277.5135000005,"duration":55.555500000016764,"noteNumber":72,"velocity":61,"programNumber":41},{"time":264333.06900000054,"duration":55.555500000016764,"noteNumber":69,"velocity":61,"programNumber":41},{"time":264388.62450000056,"duration":55.555500000016764,"noteNumber":71,"velocity":61,"programNumber":41},{"time":264444.1800000006,"duration":222.22200000000885,"noteNumber":72,"velocity":61,"programNumber":41},{"time":264666.4020000006,"duration":222.22200000000885,"noteNumber":69,"velocity":61,"programNumber":41},{"time":264888.6240000006,"duration":74.07400000002235,"noteNumber":74,"velocity":51,"programNumber":41},{"time":264999.7350000006,"duration":74.07400000002235,"noteNumber":74,"velocity":56,"programNumber":41},{"time":265110.84600000066,"duration":74.07400000002235,"noteNumber":74,"velocity":59,"programNumber":41},{"time":265221.9570000007,"duration":74.07400000002235,"noteNumber":74,"velocity":56,"programNumber":41},{"time":265333.0680000007,"duration":74.07400000002235,"noteNumber":74,"velocity":56,"programNumber":41},{"time":265444.17900000076,"duration":74.07400000002235,"noteNumber":74,"velocity":56,"programNumber":41},{"time":265555.2900000008,"duration":74.07400000002235,"noteNumber":74,"velocity":56,"programNumber":41},{"time":265666.4010000008,"duration":74.07400000002235,"noteNumber":74,"velocity":56,"programNumber":41},{"time":265777.51200000086,"duration":74.07400000002235,"noteNumber":76,"velocity":56,"programNumber":41},{"time":265888.6230000009,"duration":74.07400000002235,"noteNumber":76,"velocity":56,"programNumber":41},{"time":265999.7340000009,"duration":74.07400000002235,"noteNumber":76,"velocity":56,"programNumber":41},{"time":266110.84500000096,"duration":74.07400000002235,"noteNumber":76,"velocity":56,"programNumber":41},{"time":266221.956000001,"duration":74.07400000002235,"noteNumber":78,"velocity":56,"programNumber":41},{"time":266333.067000001,"duration":74.07400000002235,"noteNumber":78,"velocity":56,"programNumber":41},{"time":266444.17800000106,"duration":74.07400000002235,"noteNumber":78,"velocity":57,"programNumber":41},{"time":266555.2890000011,"duration":74.07400000002235,"noteNumber":78,"velocity":59,"programNumber":41},{"time":266666.40000000113,"duration":74.07400000002235,"noteNumber":79,"velocity":62,"programNumber":41},{"time":266777.51100000116,"duration":74.07400000002235,"noteNumber":79,"velocity":65,"programNumber":41},{"time":266888.6220000012,"duration":74.07400000002235,"noteNumber":79,"velocity":66,"programNumber":41},{"time":266999.73300000123,"duration":74.07400000002235,"noteNumber":79,"velocity":66,"programNumber":41},{"time":267110.84400000126,"duration":74.07400000002235,"noteNumber":81,"velocity":66,"programNumber":41},{"time":267221.9550000013,"duration":74.07400000002235,"noteNumber":81,"velocity":66,"programNumber":41},{"time":267333.06600000133,"duration":74.07400000002235,"noteNumber":81,"velocity":66,"programNumber":41},{"time":267444.17700000136,"duration":74.07400000002235,"noteNumber":81,"velocity":68,"programNumber":41},{"time":267555.2880000014,"duration":74.07400000002235,"noteNumber":83,"velocity":68,"programNumber":41},{"time":267666.39900000143,"duration":74.07400000002235,"noteNumber":83,"velocity":70,"programNumber":41},{"time":267777.51000000146,"duration":74.07400000002235,"noteNumber":83,"velocity":70,"programNumber":41},{"time":267888.6210000015,"duration":74.07400000002235,"noteNumber":83,"velocity":71,"programNumber":41},{"time":267999.73200000153,"duration":74.07400000002235,"noteNumber":85,"velocity":71,"programNumber":41},{"time":268110.84300000157,"duration":74.07400000002235,"noteNumber":85,"velocity":73,"programNumber":41},{"time":268221.9540000016,"duration":74.07400000002235,"noteNumber":85,"velocity":74,"programNumber":41},{"time":268333.06500000163,"duration":74.07400000002235,"noteNumber":85,"velocity":74,"programNumber":41},{"time":268444.17600000167,"duration":666.6660000000265,"noteNumber":86,"velocity":85,"programNumber":41},{"time":269110.8420000017,"duration":222.22200000000885,"noteNumber":81,"velocity":85,"programNumber":41},{"time":269333.0640000017,"duration":333.33299999998417,"noteNumber":85,"velocity":85,"programNumber":41},{"time":269666.3970000017,"duration":111.11099999997532,"noteNumber":81,"velocity":85,"programNumber":41},{"time":269777.50800000166,"duration":333.33299999998417,"noteNumber":85,"velocity":85,"programNumber":41},{"time":270110.84100000164,"duration":111.11099999997532,"noteNumber":81,"velocity":85,"programNumber":41},{"time":270221.9520000016,"duration":666.6660000000265,"noteNumber":86,"velocity":85,"programNumber":41},{"time":270888.61800000165,"duration":222.22200000000885,"noteNumber":81,"velocity":85,"programNumber":41},{"time":271110.84000000166,"duration":333.33299999998417,"noteNumber":85,"velocity":85,"programNumber":41},{"time":271444.17300000164,"duration":111.11099999997532,"noteNumber":81,"velocity":85,"programNumber":41},{"time":271555.2840000016,"duration":333.33299999998417,"noteNumber":85,"velocity":85,"programNumber":41},{"time":271888.6170000016,"duration":111.11099999997532,"noteNumber":81,"velocity":85,"programNumber":41},{"time":271999.7280000016,"duration":111.11099999997532,"noteNumber":86,"velocity":100,"programNumber":41},{"time":272221.9500000015,"duration":111.11099999997532,"noteNumber":81,"velocity":100,"programNumber":41},{"time":272444.1720000015,"duration":111.11099999997532,"noteNumber":85,"velocity":100,"programNumber":41},{"time":272666.3940000014,"duration":111.11099999997532,"noteNumber":81,"velocity":100,"programNumber":41},{"time":272888.6160000014,"duration":111.11099999997532,"noteNumber":86,"velocity":100,"programNumber":41},{"time":273110.8380000013,"duration":111.11099999997532,"noteNumber":81,"velocity":100,"programNumber":41},{"time":273333.0600000013,"duration":111.11099999997532,"noteNumber":85,"velocity":100,"programNumber":41},{"time":273555.2820000012,"duration":111.11099999997532,"noteNumber":81,"velocity":100,"programNumber":41},{"time":273777.5040000012,"duration":166.66649999999208,"noteNumber":86,"velocity":85,"programNumber":41},{"time":273999.7260000012,"duration":166.66649999999208,"noteNumber":62,"velocity":85,"programNumber":41},{"time":274221.9480000012,"duration":166.66649999999208,"noteNumber":62,"velocity":85,"programNumber":41},{"time":274444.1700000012,"duration":166.66649999999208,"noteNumber":62,"velocity":85,"programNumber":41},{"time":274666.3920000012,"duration":444.4440000000177,"noteNumber":62,"velocity":85,"programNumber":41},{"time":275555.28000000125,"duration":666.6660000000265,"noteNumber":74,"velocity":46,"programNumber":41},{"time":276221.9460000013,"duration":74.07400000002235,"noteNumber":72,"velocity":47,"programNumber":41},{"time":276296.0200000013,"duration":74.07400000002235,"noteNumber":71,"velocity":47,"programNumber":41},{"time":276370.0940000013,"duration":74.07400000002235,"noteNumber":69,"velocity":47,"programNumber":41},{"time":276444.16800000134,"duration":222.22200000000885,"noteNumber":67,"velocity":47,"programNumber":41},{"time":276888.61200000136,"duration":222.22200000000885,"noteNumber":76,"velocity":47,"programNumber":41},{"time":277333.0560000014,"duration":222.22200000000885,"noteNumber":72,"velocity":46,"programNumber":41},{"time":277777.5000000014,"duration":222.22200000000885,"noteNumber":69,"velocity":43,"programNumber":41},{"time":278221.9440000014,"duration":222.22200000000885,"noteNumber":74,"velocity":59,"programNumber":41},{"time":279110.83200000145,"duration":666.6660000000265,"noteNumber":83,"velocity":55,"programNumber":41},{"time":279777.4980000015,"duration":74.07400000002235,"noteNumber":81,"velocity":55,"programNumber":41},{"time":279851.5720000015,"duration":74.07400000002235,"noteNumber":79,"velocity":55,"programNumber":41},{"time":279925.6460000015,"duration":74.07400000002235,"noteNumber":78,"velocity":55,"programNumber":41},{"time":279999.72000000154,"duration":222.22200000000885,"noteNumber":76,"velocity":55,"programNumber":41},{"time":280444.16400000156,"duration":222.22200000000885,"noteNumber":84,"velocity":55,"programNumber":41},{"time":280888.6080000016,"duration":888.8879999999772,"noteNumber":83,"velocity":55,"programNumber":41},{"time":281777.49600000156,"duration":444.4440000000177,"noteNumber":81,"velocity":47,"programNumber":41},{"time":282888.6060000016,"duration":111.11099999997532,"noteNumber":86,"velocity":55,"programNumber":41},{"time":283110.82800000155,"duration":111.11099999997532,"noteNumber":86,"velocity":55,"programNumber":41},{"time":283333.0500000015,"duration":111.11099999997532,"noteNumber":86,"velocity":55,"programNumber":41},{"time":283555.27200000145,"duration":111.11099999997532,"noteNumber":86,"velocity":55,"programNumber":41},{"time":283777.4940000014,"duration":111.11099999997532,"noteNumber":86,"velocity":55,"programNumber":41},{"time":283999.71600000135,"duration":111.11099999997532,"noteNumber":86,"velocity":55,"programNumber":41},{"time":284221.9380000013,"duration":111.11099999997532,"noteNumber":86,"velocity":55,"programNumber":41},{"time":284444.16000000125,"duration":111.11099999997532,"noteNumber":86,"velocity":55,"programNumber":41},{"time":284666.3820000012,"duration":111.11099999997532,"noteNumber":86,"velocity":55,"programNumber":41},{"time":284888.60400000116,"duration":111.11099999997532,"noteNumber":86,"velocity":55,"programNumber":41},{"time":285110.8260000011,"duration":111.11099999997532,"noteNumber":86,"velocity":55,"programNumber":41},{"time":285333.04800000106,"duration":222.22200000000885,"noteNumber":86,"velocity":55,"programNumber":41},{"time":285555.27000000107,"duration":222.22200000000885,"noteNumber":84,"velocity":55,"programNumber":41},{"time":285777.4920000011,"duration":222.22200000000885,"noteNumber":79,"velocity":55,"programNumber":41},{"time":285999.7140000011,"duration":222.22200000000885,"noteNumber":78,"velocity":55,"programNumber":41},{"time":286221.9360000011,"duration":222.22200000000885,"noteNumber":78,"velocity":55,"programNumber":41},{"time":286444.1580000011,"duration":222.22200000000885,"noteNumber":79,"velocity":65,"programNumber":41},{"time":286888.6020000011,"duration":111.11099999997532,"noteNumber":76,"velocity":55,"programNumber":41},{"time":287110.82400000107,"duration":222.22200000000885,"noteNumber":76,"velocity":55,"programNumber":41},{"time":287333.0460000011,"duration":222.22200000000885,"noteNumber":74,"velocity":55,"programNumber":41},{"time":287777.4900000011,"duration":166.66649999999208,"noteNumber":66,"velocity":55,"programNumber":41},{"time":287999.7120000011,"duration":444.4440000000177,"noteNumber":67,"velocity":67,"programNumber":41},{"time":288666.37800000113,"duration":111.11099999997532,"noteNumber":74,"velocity":55,"programNumber":41},{"time":288888.6000000011,"duration":222.22200000000885,"noteNumber":79,"velocity":55,"programNumber":41},{"time":289110.8220000011,"duration":222.22200000000885,"noteNumber":78,"velocity":55,"programNumber":41},{"time":289333.0440000011,"duration":222.22200000000885,"noteNumber":76,"velocity":55,"programNumber":41},{"time":289555.2660000011,"duration":222.22200000000885,"noteNumber":74,"velocity":55,"programNumber":41},{"time":289777.4880000011,"duration":55.555500000016764,"noteNumber":76,"velocity":55,"programNumber":41},{"time":289833.04350000113,"duration":55.555500000016764,"noteNumber":78,"velocity":55,"programNumber":41},{"time":289888.59900000115,"duration":55.555500000016764,"noteNumber":76,"velocity":55,"programNumber":41},{"time":289944.15450000117,"duration":55.555500000016764,"noteNumber":78,"velocity":55,"programNumber":41},{"time":289999.7100000012,"duration":222.22200000000885,"noteNumber":74,"velocity":55,"programNumber":41},{"time":290444.1540000012,"duration":111.11099999997532,"noteNumber":74,"velocity":55,"programNumber":41},{"time":290666.37600000115,"duration":111.11099999997532,"noteNumber":74,"velocity":55,"programNumber":41},{"time":290888.5980000011,"duration":111.11099999997532,"noteNumber":74,"velocity":55,"programNumber":41},{"time":291110.82000000105,"duration":111.11099999997532,"noteNumber":74,"velocity":55,"programNumber":41},{"time":291333.042000001,"duration":111.11099999997532,"noteNumber":74,"velocity":55,"programNumber":41},{"time":291555.26400000096,"duration":55.555500000016764,"noteNumber":76,"velocity":55,"programNumber":41},{"time":291610.819500001,"duration":55.555500000016764,"noteNumber":78,"velocity":55,"programNumber":41},{"time":291666.375000001,"duration":55.555500000016764,"noteNumber":76,"velocity":55,"programNumber":41},{"time":291721.930500001,"duration":55.555500000016764,"noteNumber":78,"velocity":55,"programNumber":41},{"time":291777.486000001,"duration":222.22200000000885,"noteNumber":74,"velocity":55,"programNumber":41},{"time":292221.93000000104,"duration":166.66649999999208,"noteNumber":74,"velocity":55,"programNumber":41},{"time":292444.15200000105,"duration":222.22200000000885,"noteNumber":79,"velocity":55,"programNumber":41},{"time":292666.37400000106,"duration":222.22200000000885,"noteNumber":78,"velocity":55,"programNumber":41},{"time":292888.59600000107,"duration":222.22200000000885,"noteNumber":76,"velocity":55,"programNumber":41},{"time":293110.8180000011,"duration":222.22200000000885,"noteNumber":74,"velocity":55,"programNumber":41},{"time":293333.0400000011,"duration":55.555500000016764,"noteNumber":76,"velocity":55,"programNumber":41},{"time":293388.5955000011,"duration":55.555500000016764,"noteNumber":78,"velocity":55,"programNumber":41},{"time":293444.1510000011,"duration":55.555500000016764,"noteNumber":76,"velocity":55,"programNumber":41},{"time":293499.70650000114,"duration":55.555500000016764,"noteNumber":78,"velocity":55,"programNumber":41},{"time":293555.26200000115,"duration":222.22200000000885,"noteNumber":74,"velocity":55,"programNumber":41},{"time":293999.70600000117,"duration":111.11099999997532,"noteNumber":74,"velocity":55,"programNumber":41},{"time":294221.9280000011,"duration":111.11099999997532,"noteNumber":74,"velocity":55,"programNumber":41},{"time":294444.1500000011,"duration":111.11099999997532,"noteNumber":74,"velocity":55,"programNumber":41},{"time":294666.372000001,"duration":111.11099999997532,"noteNumber":74,"velocity":55,"programNumber":41},{"time":294888.594000001,"duration":111.11099999997532,"noteNumber":74,"velocity":55,"programNumber":41},{"time":295110.8160000009,"duration":55.555500000016764,"noteNumber":76,"velocity":55,"programNumber":41},{"time":295166.37150000094,"duration":55.555500000016764,"noteNumber":78,"velocity":55,"programNumber":41},{"time":295221.92700000096,"duration":55.555500000016764,"noteNumber":76,"velocity":55,"programNumber":41},{"time":295277.482500001,"duration":55.555500000016764,"noteNumber":78,"velocity":55,"programNumber":41},{"time":295333.038000001,"duration":222.22200000000885,"noteNumber":74,"velocity":55,"programNumber":41},{"time":295999.704000001,"duration":629.6290000000154,"noteNumber":76,"velocity":83,"programNumber":41},{"time":295999.704000001,"duration":629.6290000000154,"noteNumber":64,"velocity":83,"programNumber":41},{"time":296666.37000000104,"duration":74.07400000002235,"noteNumber":74,"velocity":82,"programNumber":41},{"time":296740.44400000107,"duration":74.07400000002235,"noteNumber":72,"velocity":82,"programNumber":41},{"time":296814.5180000011,"duration":74.07400000002235,"noteNumber":71,"velocity":82,"programNumber":41},{"time":296888.5920000011,"duration":444.4440000000177,"noteNumber":72,"velocity":83,"programNumber":41},{"time":297777.48000000115,"duration":629.6290000000154,"noteNumber":62,"velocity":85,"programNumber":41},{"time":297777.48000000115,"duration":629.6290000000154,"noteNumber":74,"velocity":85,"programNumber":41},{"time":298444.1460000012,"duration":74.07400000002235,"noteNumber":72,"velocity":77,"programNumber":41},{"time":298518.2200000012,"duration":74.07400000002235,"noteNumber":71,"velocity":79,"programNumber":41},{"time":298592.2940000012,"duration":74.07400000002235,"noteNumber":69,"velocity":83,"programNumber":41},{"time":298666.36800000124,"duration":444.4440000000177,"noteNumber":71,"velocity":88,"programNumber":41},{"time":299555.2560000013,"duration":222.22200000000885,"noteNumber":76,"velocity":85,"programNumber":41},{"time":299777.4780000013,"duration":111.11099999997532,"noteNumber":78,"velocity":85,"programNumber":41},{"time":299888.58900000126,"duration":111.11099999997532,"noteNumber":79,"velocity":85,"programNumber":41},{"time":299999.70000000123,"duration":166.66649999999208,"noteNumber":78,"velocity":85,"programNumber":41},{"time":300221.92200000124,"duration":111.11099999997532,"noteNumber":76,"velocity":85,"programNumber":41},{"time":300444.1440000012,"duration":222.22200000000885,"noteNumber":76,"velocity":85,"programNumber":41},{"time":300666.3660000012,"duration":166.66649999999208,"noteNumber":74,"velocity":85,"programNumber":41},{"time":300888.5880000012,"duration":111.11099999997532,"noteNumber":71,"velocity":85,"programNumber":41},{"time":301110.81000000116,"duration":111.11099999997532,"noteNumber":74,"velocity":85,"programNumber":41},{"time":301333.0320000011,"duration":222.22200000000885,"noteNumber":74,"velocity":85,"programNumber":41},{"time":301555.2540000011,"duration":166.66649999999208,"noteNumber":72,"velocity":85,"programNumber":41},{"time":301777.47600000113,"duration":111.11099999997532,"noteNumber":71,"velocity":85,"programNumber":41},{"time":301999.6980000011,"duration":111.11099999997532,"noteNumber":69,"velocity":85,"programNumber":41},{"time":302221.92000000103,"duration":444.4440000000177,"noteNumber":67,"velocity":85,"programNumber":41},{"time":302888.58600000106,"duration":111.11099999997532,"noteNumber":74,"velocity":50,"programNumber":41},{"time":303110.808000001,"duration":222.22200000000885,"noteNumber":79,"velocity":50,"programNumber":41},{"time":303333.030000001,"duration":222.22200000000885,"noteNumber":78,"velocity":50,"programNumber":41},{"time":303555.252000001,"duration":222.22200000000885,"noteNumber":76,"velocity":53,"programNumber":41},{"time":303777.47400000104,"duration":222.22200000000885,"noteNumber":74,"velocity":56,"programNumber":41},{"time":303999.69600000104,"duration":55.555500000016764,"noteNumber":76,"velocity":58,"programNumber":41},{"time":304055.25150000106,"duration":55.555500000016764,"noteNumber":78,"velocity":58,"programNumber":41},{"time":304110.8070000011,"duration":55.555500000016764,"noteNumber":76,"velocity":59,"programNumber":41},{"time":304166.3625000011,"duration":55.555500000016764,"noteNumber":78,"velocity":59,"programNumber":41},{"time":304221.9180000011,"duration":222.22200000000885,"noteNumber":74,"velocity":61,"programNumber":41},{"time":304666.3620000011,"duration":111.11099999997532,"noteNumber":74,"velocity":56,"programNumber":41},{"time":304888.5840000011,"duration":111.11099999997532,"noteNumber":74,"velocity":55,"programNumber":41},{"time":305110.80600000103,"duration":111.11099999997532,"noteNumber":74,"velocity":55,"programNumber":41},{"time":305333.028000001,"duration":111.11099999997532,"noteNumber":74,"velocity":53,"programNumber":41},{"time":305555.25000000093,"duration":111.11099999997532,"noteNumber":74,"velocity":52,"programNumber":41},{"time":305777.4720000009,"duration":55.555500000016764,"noteNumber":76,"velocity":55,"programNumber":41},{"time":305833.0275000009,"duration":55.555500000016764,"noteNumber":78,"velocity":55,"programNumber":41},{"time":305888.5830000009,"duration":55.555500000016764,"noteNumber":76,"velocity":55,"programNumber":41},{"time":305944.13850000093,"duration":55.555500000016764,"noteNumber":78,"velocity":55,"programNumber":41},{"time":305999.69400000095,"duration":222.22200000000885,"noteNumber":74,"velocity":55,"programNumber":41},{"time":306444.13800000097,"duration":166.66649999999208,"noteNumber":74,"velocity":55,"programNumber":41},{"time":306666.360000001,"duration":222.22200000000885,"noteNumber":79,"velocity":55,"programNumber":41},{"time":306888.582000001,"duration":222.22200000000885,"noteNumber":78,"velocity":55,"programNumber":41},{"time":307110.804000001,"duration":222.22200000000885,"noteNumber":76,"velocity":55,"programNumber":41},{"time":307333.026000001,"duration":222.22200000000885,"noteNumber":74,"velocity":56,"programNumber":41},{"time":307555.248000001,"duration":55.555500000016764,"noteNumber":76,"velocity":65,"programNumber":41},{"time":307610.803500001,"duration":55.555500000016764,"noteNumber":78,"velocity":65,"programNumber":41},{"time":307666.35900000104,"duration":55.555500000016764,"noteNumber":76,"velocity":65,"programNumber":41},{"time":307721.91450000106,"duration":55.555500000016764,"noteNumber":78,"velocity":65,"programNumber":41},{"time":307777.4700000011,"duration":222.22200000000885,"noteNumber":74,"velocity":64,"programNumber":41},{"time":308221.9140000011,"duration":111.11099999997532,"noteNumber":74,"velocity":55,"programNumber":41},{"time":308444.13600000105,"duration":111.11099999997532,"noteNumber":74,"velocity":55,"programNumber":41},{"time":308666.358000001,"duration":111.11099999997532,"noteNumber":74,"velocity":55,"programNumber":41},{"time":308888.58000000095,"duration":111.11099999997532,"noteNumber":74,"velocity":55,"programNumber":41},{"time":309110.8020000009,"duration":111.11099999997532,"noteNumber":74,"velocity":55,"programNumber":41},{"time":309333.02400000085,"duration":55.555500000016764,"noteNumber":76,"velocity":59,"programNumber":41},{"time":309388.57950000087,"duration":55.555500000016764,"noteNumber":78,"velocity":59,"programNumber":41},{"time":309444.1350000009,"duration":55.555500000016764,"noteNumber":76,"velocity":59,"programNumber":41},{"time":309499.6905000009,"duration":55.555500000016764,"noteNumber":78,"velocity":59,"programNumber":41},{"time":309555.2460000009,"duration":222.22200000000885,"noteNumber":74,"velocity":59,"programNumber":41},{"time":310221.91200000094,"duration":629.6290000000154,"noteNumber":88,"velocity":85,"programNumber":41},{"time":310888.57800000097,"duration":74.07400000002235,"noteNumber":86,"velocity":85,"programNumber":41},{"time":310962.652000001,"duration":74.07400000002235,"noteNumber":84,"velocity":85,"programNumber":41},{"time":311036.726000001,"duration":74.07400000002235,"noteNumber":83,"velocity":85,"programNumber":41},{"time":311110.80000000104,"duration":444.4440000000177,"noteNumber":84,"velocity":85,"programNumber":41},{"time":311999.6880000011,"duration":629.6290000000154,"noteNumber":74,"velocity":85,"programNumber":41},{"time":311999.6880000011,"duration":629.6290000000154,"noteNumber":86,"velocity":85,"programNumber":41},{"time":312666.3540000011,"duration":74.07400000002235,"noteNumber":84,"velocity":82,"programNumber":41},{"time":312740.4280000011,"duration":74.07400000002235,"noteNumber":83,"velocity":83,"programNumber":41},{"time":312814.50200000114,"duration":74.07400000002235,"noteNumber":81,"velocity":83,"programNumber":41},{"time":312888.57600000117,"duration":444.4440000000177,"noteNumber":83,"velocity":86,"programNumber":41},{"time":313777.4640000012,"duration":222.22200000000885,"noteNumber":76,"velocity":85,"programNumber":41},{"time":313999.6860000012,"duration":111.11099999997532,"noteNumber":78,"velocity":85,"programNumber":41},{"time":314110.7970000012,"duration":111.11099999997532,"noteNumber":79,"velocity":85,"programNumber":41},{"time":314221.90800000116,"duration":166.66649999999208,"noteNumber":78,"velocity":85,"programNumber":41},{"time":314444.13000000117,"duration":111.11099999997532,"noteNumber":76,"velocity":85,"programNumber":41},{"time":314666.3520000011,"duration":111.11099999997532,"noteNumber":74,"velocity":85,"programNumber":41},{"time":314888.57400000107,"duration":111.11099999997532,"noteNumber":79,"velocity":85,"programNumber":41},{"time":315110.796000001,"duration":111.11099999997532,"noteNumber":83,"velocity":85,"programNumber":41},{"time":315333.018000001,"duration":111.11099999997532,"noteNumber":86,"velocity":85,"programNumber":41},{"time":315555.2400000009,"duration":222.22200000000885,"noteNumber":86,"velocity":85,"programNumber":41},{"time":315777.46200000093,"duration":166.66649999999208,"noteNumber":84,"velocity":85,"programNumber":41},{"time":315999.68400000094,"duration":111.11099999997532,"noteNumber":83,"velocity":85,"programNumber":41},{"time":316221.9060000009,"duration":111.11099999997532,"noteNumber":81,"velocity":85,"programNumber":41},{"time":316444.12800000084,"duration":166.66649999999208,"noteNumber":79,"velocity":94,"programNumber":41},{"time":316666.35000000085,"duration":166.66649999999208,"noteNumber":62,"velocity":85,"programNumber":41},{"time":316888.57200000086,"duration":166.66649999999208,"noteNumber":64,"velocity":85,"programNumber":41},{"time":317110.79400000087,"duration":166.66649999999208,"noteNumber":66,"velocity":85,"programNumber":41},{"time":317333.0160000009,"duration":166.66649999999208,"noteNumber":67,"velocity":85,"programNumber":41},{"time":317555.2380000009,"duration":166.66649999999208,"noteNumber":67,"velocity":85,"programNumber":41},{"time":317777.4600000009,"duration":55.555500000016764,"noteNumber":69,"velocity":85,"programNumber":41},{"time":317833.0155000009,"duration":55.555500000016764,"noteNumber":71,"velocity":85,"programNumber":41},{"time":317888.5710000009,"duration":55.555500000016764,"noteNumber":69,"velocity":85,"programNumber":41},{"time":317944.12650000094,"duration":55.555500000016764,"noteNumber":71,"velocity":85,"programNumber":41},{"time":317999.68200000096,"duration":111.11099999997532,"noteNumber":67,"velocity":85,"programNumber":41},{"time":318110.79300000094,"duration":111.11099999997532,"noteNumber":69,"velocity":85,"programNumber":41},{"time":318221.9040000009,"duration":166.66649999999208,"noteNumber":71,"velocity":85,"programNumber":41},{"time":318444.1260000009,"duration":166.66649999999208,"noteNumber":66,"velocity":85,"programNumber":41},{"time":318666.34800000093,"duration":166.66649999999208,"noteNumber":67,"velocity":85,"programNumber":41},{"time":318888.57000000094,"duration":166.66649999999208,"noteNumber":69,"velocity":85,"programNumber":41},{"time":319110.79200000095,"duration":166.66649999999208,"noteNumber":71,"velocity":85,"programNumber":41},{"time":319333.01400000096,"duration":166.66649999999208,"noteNumber":71,"velocity":85,"programNumber":41},{"time":319555.23600000096,"duration":55.555500000016764,"noteNumber":72,"velocity":86,"programNumber":41},{"time":319610.791500001,"duration":55.555500000016764,"noteNumber":74,"velocity":86,"programNumber":41},{"time":319666.347000001,"duration":55.555500000016764,"noteNumber":72,"velocity":86,"programNumber":41},{"time":319721.902500001,"duration":55.555500000016764,"noteNumber":74,"velocity":86,"programNumber":41},{"time":319777.45800000103,"duration":111.11099999997532,"noteNumber":71,"velocity":86,"programNumber":41},{"time":319888.569000001,"duration":111.11099999997532,"noteNumber":72,"velocity":89,"programNumber":41},{"time":319999.680000001,"duration":166.66649999999208,"noteNumber":74,"velocity":89,"programNumber":41},{"time":320221.902000001,"duration":166.66649999999208,"noteNumber":74,"velocity":91,"programNumber":41},{"time":320444.124000001,"duration":55.555500000016764,"noteNumber":75,"velocity":91,"programNumber":41},{"time":320499.679500001,"duration":55.555500000016764,"noteNumber":76,"velocity":91,"programNumber":41},{"time":320555.23500000103,"duration":55.555500000016764,"noteNumber":75,"velocity":91,"programNumber":41},{"time":320610.79050000105,"duration":55.555500000016764,"noteNumber":76,"velocity":92,"programNumber":41},{"time":320666.34600000107,"duration":111.11099999997532,"noteNumber":73,"velocity":94,"programNumber":41},{"time":320777.45700000104,"duration":111.11099999997532,"noteNumber":75,"velocity":97,"programNumber":41},{"time":320888.568000001,"duration":444.4440000000177,"noteNumber":76,"velocity":98,"programNumber":41},{"time":321777.45600000105,"duration":666.6660000000265,"noteNumber":64,"velocity":61,"programNumber":41},{"time":322444.1220000011,"duration":166.66649999999208,"noteNumber":69,"velocity":61,"programNumber":41},{"time":322666.3440000011,"duration":222.22200000000885,"noteNumber":67,"velocity":61,"programNumber":41},{"time":322888.5660000011,"duration":222.22200000000885,"noteNumber":66,"velocity":62,"programNumber":41},{"time":323110.7880000011,"duration":222.22200000000885,"noteNumber":64,"velocity":62,"programNumber":41},{"time":323333.0100000011,"duration":166.66649999999208,"noteNumber":62,"velocity":62,"programNumber":41},{"time":323555.2320000011,"duration":222.22200000000885,"noteNumber":74,"velocity":62,"programNumber":41},{"time":323777.45400000113,"duration":222.22200000000885,"noteNumber":73,"velocity":62,"programNumber":41},{"time":323999.67600000114,"duration":222.22200000000885,"noteNumber":72,"velocity":62,"programNumber":41},{"time":324221.89800000115,"duration":222.22200000000885,"noteNumber":71,"velocity":62,"programNumber":41},{"time":324444.12000000116,"duration":222.22200000000885,"noteNumber":74,"velocity":61,"programNumber":41},{"time":324666.34200000117,"duration":222.22200000000885,"noteNumber":73,"velocity":61,"programNumber":41},{"time":324888.5640000012,"duration":222.22200000000885,"noteNumber":72,"velocity":61,"programNumber":41},{"time":325110.7860000012,"duration":166.66649999999208,"noteNumber":71,"velocity":59,"programNumber":41},{"time":325333.0080000012,"duration":666.6660000000265,"noteNumber":64,"velocity":61,"programNumber":41},{"time":325999.6740000012,"duration":166.66649999999208,"noteNumber":69,"velocity":67,"programNumber":41},{"time":326221.89600000123,"duration":222.22200000000885,"noteNumber":67,"velocity":70,"programNumber":41},{"time":326444.11800000124,"duration":222.22200000000885,"noteNumber":66,"velocity":70,"programNumber":41},{"time":326666.34000000125,"duration":222.22200000000885,"noteNumber":64,"velocity":70,"programNumber":41},{"time":326888.56200000126,"duration":166.66649999999208,"noteNumber":62,"velocity":70,"programNumber":41},{"time":327110.78400000127,"duration":222.22200000000885,"noteNumber":74,"velocity":70,"programNumber":41},{"time":327333.0060000013,"duration":222.22200000000885,"noteNumber":76,"velocity":70,"programNumber":41},{"time":327555.2280000013,"duration":222.22200000000885,"noteNumber":78,"velocity":70,"programNumber":41},{"time":327777.4500000013,"duration":222.22200000000885,"noteNumber":79,"velocity":70,"programNumber":41},{"time":327999.6720000013,"duration":222.22200000000885,"noteNumber":74,"velocity":70,"programNumber":41},{"time":328221.8940000013,"duration":222.22200000000885,"noteNumber":76,"velocity":70,"programNumber":41},{"time":328444.1160000013,"duration":222.22200000000885,"noteNumber":78,"velocity":70,"programNumber":41},{"time":328666.3380000013,"duration":166.66649999999208,"noteNumber":79,"velocity":76,"programNumber":41},{"time":328888.56000000134,"duration":444.4440000000177,"noteNumber":81,"velocity":75,"programNumber":41},{"time":329777.4480000014,"duration":444.4440000000177,"noteNumber":86,"velocity":91,"programNumber":41},{"time":329777.4480000014,"duration":444.4440000000177,"noteNumber":74,"velocity":91,"programNumber":41},{"time":330666.3360000014,"duration":444.4440000000177,"noteNumber":79,"velocity":96,"programNumber":41},{"time":330666.3360000014,"duration":444.4440000000177,"noteNumber":71,"velocity":96,"programNumber":41},{"time":330666.3360000014,"duration":444.4440000000177,"noteNumber":62,"velocity":96,"programNumber":41},{"time":331333.00200000143,"duration":166.66649999999208,"noteNumber":74,"velocity":95,"programNumber":41},{"time":331555.22400000144,"duration":166.66649999999208,"noteNumber":71,"velocity":94,"programNumber":41},{"time":331777.44600000145,"duration":166.66649999999208,"noteNumber":67,"velocity":90,"programNumber":41},{"time":331999.66800000146,"duration":166.66649999999208,"noteNumber":71,"velocity":90,"programNumber":41},{"time":332221.89000000147,"duration":166.66649999999208,"noteNumber":74,"velocity":89,"programNumber":41},{"time":332444.1120000015,"duration":166.66649999999208,"noteNumber":79,"velocity":88,"programNumber":41},{"time":332666.3340000015,"duration":166.66649999999208,"noteNumber":74,"velocity":88,"programNumber":41},{"time":332888.5560000015,"duration":166.66649999999208,"noteNumber":79,"velocity":88,"programNumber":41},{"time":333110.7780000015,"duration":166.66649999999208,"noteNumber":83,"velocity":90,"programNumber":41},{"time":333333.0000000015,"duration":370.36999999999534,"noteNumber":86,"velocity":92,"programNumber":41},{"time":333777.44400000153,"duration":370.36999999999534,"noteNumber":78,"velocity":95,"programNumber":41},{"time":333777.44400000153,"duration":370.36999999999534,"noteNumber":69,"velocity":95,"programNumber":41},{"time":333777.44400000153,"duration":370.36999999999534,"noteNumber":62,"velocity":95,"programNumber":41},{"time":334221.88800000155,"duration":444.4440000000177,"noteNumber":79,"velocity":100,"programNumber":41},{"time":334221.88800000155,"duration":444.4440000000177,"noteNumber":71,"velocity":100,"programNumber":41},{"time":334221.88800000155,"duration":444.4440000000177,"noteNumber":62,"velocity":100,"programNumber":41},{"time":334888.5540000016,"duration":166.66649999999208,"noteNumber":74,"velocity":98,"programNumber":41},{"time":335110.7760000016,"duration":166.66649999999208,"noteNumber":71,"velocity":98,"programNumber":41},{"time":335332.9980000016,"duration":166.66649999999208,"noteNumber":67,"velocity":95,"programNumber":41},{"time":335555.2200000016,"duration":166.66649999999208,"noteNumber":71,"velocity":94,"programNumber":41},{"time":335777.4420000016,"duration":166.66649999999208,"noteNumber":74,"velocity":92,"programNumber":41},{"time":335999.6640000016,"duration":166.66649999999208,"noteNumber":79,"velocity":91,"programNumber":41},{"time":336221.8860000016,"duration":166.66649999999208,"noteNumber":74,"velocity":91,"programNumber":41},{"time":336444.10800000164,"duration":166.66649999999208,"noteNumber":79,"velocity":92,"programNumber":41},{"time":336666.33000000165,"duration":166.66649999999208,"noteNumber":83,"velocity":92,"programNumber":41},{"time":336888.55200000165,"duration":370.36999999999534,"noteNumber":86,"velocity":96,"programNumber":41},{"time":337332.9960000017,"duration":370.36999999999534,"noteNumber":78,"velocity":99,"programNumber":41},{"time":337332.9960000017,"duration":370.36999999999534,"noteNumber":69,"velocity":99,"programNumber":41},{"time":337332.9960000017,"duration":370.36999999999534,"noteNumber":62,"velocity":99,"programNumber":41},{"time":337777.4400000017,"duration":444.4440000000177,"noteNumber":79,"velocity":109,"programNumber":41},{"time":337777.4400000017,"duration":444.4440000000177,"noteNumber":71,"velocity":109,"programNumber":41},{"time":337777.4400000017,"duration":444.4440000000177,"noteNumber":62,"velocity":109,"programNumber":41},{"time":338666.3280000017,"duration":444.4440000000177,"noteNumber":79,"velocity":106,"programNumber":41},{"time":338666.3280000017,"duration":444.4440000000177,"noteNumber":71,"velocity":106,"programNumber":41},{"time":338666.3280000017,"duration":444.4440000000177,"noteNumber":62,"velocity":106,"programNumber":41},{"time":339555.21600000176,"duration":370.36999999999534,"noteNumber":79,"velocity":106,"programNumber":41},{"time":339555.21600000176,"duration":370.36999999999534,"noteNumber":71,"velocity":106,"programNumber":41},{"time":339555.21600000176,"duration":370.36999999999534,"noteNumber":62,"velocity":106,"programNumber":41},{"time":339999.6600000018,"duration":222.22200000000885,"noteNumber":67,"velocity":110,"programNumber":41},{"time":339999.6600000018,"duration":222.22200000000885,"noteNumber":55,"velocity":110,"programNumber":41},{"time":340332.99300000176,"duration":55.555500000016764,"noteNumber":67,"velocity":109,"programNumber":41},{"time":340332.99300000176,"duration":55.555500000016764,"noteNumber":55,"velocity":109,"programNumber":41},{"time":340444.1040000018,"duration":444.4440000000177,"noteNumber":67,"velocity":108,"programNumber":41},{"time":340444.1040000018,"duration":444.4440000000177,"noteNumber":55,"velocity":108,"programNumber":41}],[{"time":0,"duration":444.444,"noteNumber":67,"velocity":85,"programNumber":48},{"time":666.666,"duration":111.11099999999999,"noteNumber":62,"velocity":85,"programNumber":48},{"time":888.888,"duration":444.4440000000001,"noteNumber":67,"velocity":85,"programNumber":48},{"time":1555.554,"duration":111.1110000000001,"noteNumber":62,"velocity":85,"programNumber":48},{"time":1777.7760000000003,"duration":111.1110000000001,"noteNumber":67,"velocity":85,"programNumber":48},{"time":1999.9980000000005,"duration":111.11099999999988,"noteNumber":62,"velocity":85,"programNumber":48},{"time":2222.2200000000003,"duration":111.11099999999988,"noteNumber":67,"velocity":85,"programNumber":48},{"time":2444.442,"duration":111.11099999999988,"noteNumber":71,"velocity":85,"programNumber":48},{"time":2666.6639999999998,"duration":444.44399999999996,"noteNumber":74,"velocity":85,"programNumber":48},{"time":3555.5519999999997,"duration":444.44399999999996,"noteNumber":72,"velocity":85,"programNumber":48},{"time":4222.218,"duration":111.11099999999988,"noteNumber":69,"velocity":85,"programNumber":48},{"time":4444.44,"duration":444.4440000000004,"noteNumber":72,"velocity":85,"programNumber":48},{"time":5111.106,"duration":111.11099999999988,"noteNumber":69,"velocity":85,"programNumber":48},{"time":5333.3279999999995,"duration":111.11099999999988,"noteNumber":72,"velocity":85,"programNumber":48},{"time":5555.549999999999,"duration":111.11099999999988,"noteNumber":69,"velocity":85,"programNumber":48},{"time":5777.771999999999,"duration":111.11099999999988,"noteNumber":66,"velocity":85,"programNumber":48},{"time":5999.993999999999,"duration":111.11099999999988,"noteNumber":69,"velocity":85,"programNumber":48},{"time":6222.2159999999985,"duration":444.4440000000004,"noteNumber":62,"velocity":85,"programNumber":48},{"time":7111.103999999999,"duration":166.66650000000027,"noteNumber":67,"velocity":85,"programNumber":48},{"time":7333.326,"duration":166.66650000000027,"noteNumber":67,"velocity":85,"programNumber":48},{"time":7555.548000000001,"duration":166.66650000000027,"noteNumber":67,"velocity":85,"programNumber":48},{"time":7777.770000000001,"duration":166.66650000000027,"noteNumber":67,"velocity":85,"programNumber":48},{"time":7999.992000000002,"duration":166.66650000000027,"noteNumber":67,"velocity":85,"programNumber":48},{"time":8222.214000000002,"duration":166.66649999999936,"noteNumber":67,"velocity":85,"programNumber":48},{"time":8444.436000000002,"duration":166.66649999999936,"noteNumber":67,"velocity":85,"programNumber":48},{"time":8666.658000000001,"duration":166.66649999999936,"noteNumber":67,"velocity":85,"programNumber":48},{"time":8888.880000000001,"duration":166.66649999999936,"noteNumber":69,"velocity":85,"programNumber":48},{"time":9111.102,"duration":166.66649999999936,"noteNumber":69,"velocity":85,"programNumber":48},{"time":9333.324,"duration":166.66649999999936,"noteNumber":69,"velocity":85,"programNumber":48},{"time":9555.546,"duration":166.66649999999936,"noteNumber":69,"velocity":85,"programNumber":48},{"time":9777.768,"duration":222.22199999999975,"noteNumber":69,"velocity":85,"programNumber":48},{"time":9999.99,"duration":166.66649999999936,"noteNumber":72,"velocity":85,"programNumber":48},{"time":10222.212,"duration":222.22199999999975,"noteNumber":66,"velocity":85,"programNumber":48},{"time":10444.434,"duration":166.66649999999936,"noteNumber":69,"velocity":85,"programNumber":48},{"time":10666.655999999999,"duration":166.66649999999936,"noteNumber":67,"velocity":85,"programNumber":48},{"time":10888.877999999999,"duration":166.66649999999936,"noteNumber":67,"velocity":85,"programNumber":48},{"time":11111.099999999999,"duration":166.66649999999936,"noteNumber":67,"velocity":85,"programNumber":48},{"time":11333.321999999998,"duration":166.66649999999936,"noteNumber":67,"velocity":85,"programNumber":48},{"time":11555.543999999998,"duration":166.66649999999936,"noteNumber":67,"velocity":85,"programNumber":48},{"time":11777.765999999998,"duration":166.66649999999936,"noteNumber":67,"velocity":85,"programNumber":48},{"time":11999.987999999998,"duration":166.66649999999936,"noteNumber":67,"velocity":85,"programNumber":48},{"time":12222.209999999997,"duration":166.66649999999936,"noteNumber":67,"velocity":85,"programNumber":48},{"time":12444.431999999997,"duration":166.66649999999936,"noteNumber":69,"velocity":85,"programNumber":48},{"time":12666.653999999997,"duration":166.66649999999936,"noteNumber":69,"velocity":85,"programNumber":48},{"time":12888.875999999997,"duration":166.66649999999936,"noteNumber":69,"velocity":85,"programNumber":48},{"time":13111.097999999996,"duration":166.66649999999936,"noteNumber":69,"velocity":85,"programNumber":48},{"time":13333.319999999996,"duration":222.22199999999975,"noteNumber":69,"velocity":85,"programNumber":48},{"time":13555.541999999996,"duration":166.66649999999936,"noteNumber":72,"velocity":85,"programNumber":48},{"time":13777.763999999996,"duration":222.22199999999975,"noteNumber":66,"velocity":85,"programNumber":48},{"time":13999.985999999995,"duration":166.66649999999936,"noteNumber":69,"velocity":85,"programNumber":48},{"time":14222.207999999995,"duration":74.07400000000052,"noteNumber":62,"velocity":85,"programNumber":48},{"time":14333.318999999996,"duration":74.07400000000052,"noteNumber":62,"velocity":85,"programNumber":48},{"time":14444.429999999997,"duration":74.07400000000052,"noteNumber":62,"velocity":85,"programNumber":48},{"time":14555.540999999997,"duration":74.07400000000052,"noteNumber":62,"velocity":85,"programNumber":48},{"time":14666.651999999998,"duration":74.07400000000052,"noteNumber":62,"velocity":85,"programNumber":48},{"time":14777.762999999999,"duration":74.07400000000052,"noteNumber":62,"velocity":85,"programNumber":48},{"time":14888.874,"duration":74.07400000000052,"noteNumber":62,"velocity":85,"programNumber":48},{"time":14999.985,"duration":74.07400000000052,"noteNumber":62,"velocity":85,"programNumber":48},{"time":15111.096000000001,"duration":74.07400000000052,"noteNumber":62,"velocity":85,"programNumber":48},{"time":15222.207000000002,"duration":74.07400000000052,"noteNumber":62,"velocity":85,"programNumber":48},{"time":15333.318000000003,"duration":74.07400000000052,"noteNumber":62,"velocity":85,"programNumber":48},{"time":15444.429000000004,"duration":74.07400000000052,"noteNumber":62,"velocity":85,"programNumber":48},{"time":15555.540000000005,"duration":74.07400000000052,"noteNumber":62,"velocity":85,"programNumber":48},{"time":15666.651000000005,"duration":74.07400000000052,"noteNumber":62,"velocity":85,"programNumber":48},{"time":15777.762000000006,"duration":74.07400000000052,"noteNumber":62,"velocity":85,"programNumber":48},{"time":15888.873000000007,"duration":74.07400000000052,"noteNumber":62,"velocity":85,"programNumber":48},{"time":15999.984000000008,"duration":74.07400000000052,"noteNumber":62,"velocity":85,"programNumber":48},{"time":16111.095000000008,"duration":74.07400000000052,"noteNumber":62,"velocity":85,"programNumber":48},{"time":16222.20600000001,"duration":74.07400000000052,"noteNumber":62,"velocity":85,"programNumber":48},{"time":16333.31700000001,"duration":74.07400000000052,"noteNumber":62,"velocity":85,"programNumber":48},{"time":16444.42800000001,"duration":74.07400000000052,"noteNumber":62,"velocity":85,"programNumber":48},{"time":16555.53900000001,"duration":74.07400000000052,"noteNumber":62,"velocity":85,"programNumber":48},{"time":16666.650000000012,"duration":74.07400000000052,"noteNumber":62,"velocity":85,"programNumber":48},{"time":16777.761000000013,"duration":74.07400000000052,"noteNumber":62,"velocity":85,"programNumber":48},{"time":16888.872000000014,"duration":444.4439999999995,"noteNumber":62,"velocity":85,"programNumber":48},{"time":19555.536000000015,"duration":888.887999999999,"noteNumber":54,"velocity":47,"programNumber":48},{"time":20444.424000000014,"duration":888.887999999999,"noteNumber":55,"velocity":47,"programNumber":48},{"time":21333.312000000013,"duration":333.3329999999987,"noteNumber":60,"velocity":47,"programNumber":48},{"time":21777.756000000012,"duration":333.3329999999987,"noteNumber":60,"velocity":47,"programNumber":48},{"time":22222.20000000001,"duration":333.3329999999987,"noteNumber":57,"velocity":47,"programNumber":48},{"time":22666.64400000001,"duration":333.3329999999987,"noteNumber":50,"velocity":47,"programNumber":48},{"time":23111.08800000001,"duration":222.22200000000157,"noteNumber":50,"velocity":47,"programNumber":48},{"time":23555.532000000014,"duration":222.22200000000157,"noteNumber":62,"velocity":47,"programNumber":48},{"time":23999.976000000017,"duration":444.4439999999995,"noteNumber":62,"velocity":47,"programNumber":48},{"time":26666.640000000018,"duration":888.887999999999,"noteNumber":66,"velocity":47,"programNumber":48},{"time":27555.528000000017,"duration":888.887999999999,"noteNumber":67,"velocity":47,"programNumber":48},{"time":28444.416000000016,"duration":333.3329999999987,"noteNumber":60,"velocity":47,"programNumber":48},{"time":28888.860000000015,"duration":166.66649999999936,"noteNumber":60,"velocity":47,"programNumber":48},{"time":29111.082000000013,"duration":166.66649999999936,"noteNumber":60,"velocity":47,"programNumber":48},{"time":29333.30400000001,"duration":333.3329999999987,"noteNumber":57,"velocity":47,"programNumber":48},{"time":29777.74800000001,"duration":166.66649999999936,"noteNumber":57,"velocity":47,"programNumber":48},{"time":29999.97000000001,"duration":166.66649999999936,"noteNumber":57,"velocity":47,"programNumber":48},{"time":30222.192000000006,"duration":166.66649999999936,"noteNumber":55,"velocity":92,"programNumber":48},{"time":30444.414000000004,"duration":166.66649999999936,"noteNumber":55,"velocity":71,"programNumber":48},{"time":30666.636000000002,"duration":166.66649999999936,"noteNumber":55,"velocity":71,"programNumber":48},{"time":30888.858,"duration":166.66649999999936,"noteNumber":55,"velocity":71,"programNumber":48},{"time":31111.079999999998,"duration":166.66649999999936,"noteNumber":55,"velocity":55,"programNumber":48},{"time":31333.301999999996,"duration":166.66649999999936,"noteNumber":55,"velocity":50,"programNumber":48},{"time":31555.523999999994,"duration":166.66649999999936,"noteNumber":55,"velocity":50,"programNumber":48},{"time":31777.745999999992,"duration":166.66649999999936,"noteNumber":55,"velocity":50,"programNumber":48},{"time":31999.96799999999,"duration":166.66649999999936,"noteNumber":55,"velocity":91,"programNumber":48},{"time":32222.189999999988,"duration":166.66649999999936,"noteNumber":55,"velocity":65,"programNumber":48},{"time":32444.411999999986,"duration":166.66649999999936,"noteNumber":55,"velocity":65,"programNumber":48},{"time":32666.633999999984,"duration":166.66649999999936,"noteNumber":55,"velocity":65,"programNumber":48},{"time":32888.855999999985,"duration":166.66649999999936,"noteNumber":55,"velocity":46,"programNumber":48},{"time":33111.07799999999,"duration":166.66649999999936,"noteNumber":55,"velocity":46,"programNumber":48},{"time":33333.29999999999,"duration":166.66649999999936,"noteNumber":55,"velocity":46,"programNumber":48},{"time":33555.52199999999,"duration":166.66649999999936,"noteNumber":55,"velocity":46,"programNumber":48},{"time":33777.74399999999,"duration":166.66649999999936,"noteNumber":55,"velocity":59,"programNumber":48},{"time":33999.96599999999,"duration":166.66649999999936,"noteNumber":67,"velocity":41,"programNumber":48},{"time":34222.187999999995,"duration":166.66649999999936,"noteNumber":67,"velocity":46,"programNumber":48},{"time":34444.409999999996,"duration":166.66649999999936,"noteNumber":67,"velocity":49,"programNumber":48},{"time":34666.632,"duration":166.66649999999936,"noteNumber":67,"velocity":53,"programNumber":48},{"time":34888.854,"duration":166.66649999999936,"noteNumber":67,"velocity":56,"programNumber":48},{"time":35111.076,"duration":166.66649999999936,"noteNumber":69,"velocity":61,"programNumber":48},{"time":35333.298,"duration":166.66649999999936,"noteNumber":69,"velocity":64,"programNumber":48},{"time":35555.520000000004,"duration":166.66649999999936,"noteNumber":67,"velocity":68,"programNumber":48},{"time":35777.742000000006,"duration":166.66649999999936,"noteNumber":67,"velocity":71,"programNumber":48},{"time":35999.96400000001,"duration":166.66649999999936,"noteNumber":66,"velocity":76,"programNumber":48},{"time":36222.18600000001,"duration":166.66649999999936,"noteNumber":66,"velocity":79,"programNumber":48},{"time":36444.40800000001,"duration":166.66649999999936,"noteNumber":67,"velocity":82,"programNumber":48},{"time":36666.63000000001,"duration":166.66649999999936,"noteNumber":67,"velocity":82,"programNumber":48},{"time":36888.85200000001,"duration":166.66649999999936,"noteNumber":64,"velocity":82,"programNumber":48},{"time":37111.074000000015,"duration":166.66649999999936,"noteNumber":64,"velocity":82,"programNumber":48},{"time":37333.29600000002,"duration":74.07400000000052,"noteNumber":62,"velocity":85,"programNumber":48},{"time":37333.29600000002,"duration":74.07400000000052,"noteNumber":69,"velocity":85,"programNumber":48},{"time":37444.407000000014,"duration":74.07400000000052,"noteNumber":62,"velocity":85,"programNumber":48},{"time":37444.407000000014,"duration":74.07400000000052,"noteNumber":69,"velocity":85,"programNumber":48},{"time":37555.51800000001,"duration":74.07400000000052,"noteNumber":62,"velocity":85,"programNumber":48},{"time":37555.51800000001,"duration":74.07400000000052,"noteNumber":69,"velocity":85,"programNumber":48},{"time":37666.62900000001,"duration":74.07400000000052,"noteNumber":62,"velocity":85,"programNumber":48},{"time":37666.62900000001,"duration":74.07400000000052,"noteNumber":69,"velocity":85,"programNumber":48},{"time":37777.740000000005,"duration":74.07400000000052,"noteNumber":62,"velocity":85,"programNumber":48},{"time":37777.740000000005,"duration":74.07400000000052,"noteNumber":69,"velocity":85,"programNumber":48},{"time":37888.851,"duration":74.07400000000052,"noteNumber":62,"velocity":85,"programNumber":48},{"time":37888.851,"duration":74.07400000000052,"noteNumber":69,"velocity":85,"programNumber":48},{"time":37999.962,"duration":74.07400000000052,"noteNumber":62,"velocity":85,"programNumber":48},{"time":37999.962,"duration":74.07400000000052,"noteNumber":69,"velocity":85,"programNumber":48},{"time":38111.073,"duration":74.07400000000052,"noteNumber":62,"velocity":85,"programNumber":48},{"time":38111.073,"duration":74.07400000000052,"noteNumber":69,"velocity":85,"programNumber":48},{"time":38222.183999999994,"duration":74.07400000000052,"noteNumber":64,"velocity":85,"programNumber":48},{"time":38222.183999999994,"duration":74.07400000000052,"noteNumber":69,"velocity":85,"programNumber":48},{"time":38333.29499999999,"duration":74.07400000000052,"noteNumber":64,"velocity":85,"programNumber":48},{"time":38333.29499999999,"duration":74.07400000000052,"noteNumber":69,"velocity":85,"programNumber":48},{"time":38444.40599999999,"duration":74.07400000000052,"noteNumber":64,"velocity":85,"programNumber":48},{"time":38444.40599999999,"duration":74.07400000000052,"noteNumber":69,"velocity":85,"programNumber":48},{"time":38555.516999999985,"duration":74.07400000000052,"noteNumber":64,"velocity":85,"programNumber":48},{"time":38555.516999999985,"duration":74.07400000000052,"noteNumber":69,"velocity":85,"programNumber":48},{"time":38666.62799999998,"duration":74.07400000000052,"noteNumber":64,"velocity":85,"programNumber":48},{"time":38666.62799999998,"duration":74.07400000000052,"noteNumber":69,"velocity":85,"programNumber":48},{"time":38777.73899999998,"duration":74.07400000000052,"noteNumber":64,"velocity":85,"programNumber":48},{"time":38777.73899999998,"duration":74.07400000000052,"noteNumber":69,"velocity":85,"programNumber":48},{"time":38888.84999999998,"duration":74.07400000000052,"noteNumber":64,"velocity":85,"programNumber":48},{"time":38888.84999999998,"duration":74.07400000000052,"noteNumber":69,"velocity":85,"programNumber":48},{"time":38999.960999999974,"duration":74.07400000000052,"noteNumber":64,"velocity":85,"programNumber":48},{"time":38999.960999999974,"duration":74.07400000000052,"noteNumber":69,"velocity":85,"programNumber":48},{"time":39111.07199999997,"duration":74.07400000000052,"noteNumber":62,"velocity":85,"programNumber":48},{"time":39111.07199999997,"duration":74.07400000000052,"noteNumber":69,"velocity":85,"programNumber":48},{"time":39222.18299999997,"duration":74.07400000000052,"noteNumber":62,"velocity":85,"programNumber":48},{"time":39222.18299999997,"duration":74.07400000000052,"noteNumber":69,"velocity":85,"programNumber":48},{"time":39333.293999999965,"duration":74.07400000000052,"noteNumber":62,"velocity":85,"programNumber":48},{"time":39333.293999999965,"duration":74.07400000000052,"noteNumber":69,"velocity":85,"programNumber":48},{"time":39444.40499999996,"duration":74.07400000000052,"noteNumber":62,"velocity":85,"programNumber":48},{"time":39444.40499999996,"duration":74.07400000000052,"noteNumber":69,"velocity":85,"programNumber":48},{"time":39555.51599999996,"duration":74.07400000000052,"noteNumber":62,"velocity":85,"programNumber":48},{"time":39555.51599999996,"duration":74.07400000000052,"noteNumber":69,"velocity":85,"programNumber":48},{"time":39666.62699999996,"duration":74.07400000000052,"noteNumber":62,"velocity":85,"programNumber":48},{"time":39666.62699999996,"duration":74.07400000000052,"noteNumber":69,"velocity":85,"programNumber":48},{"time":39777.737999999954,"duration":74.07400000000052,"noteNumber":62,"velocity":85,"programNumber":48},{"time":39777.737999999954,"duration":74.07400000000052,"noteNumber":69,"velocity":85,"programNumber":48},{"time":39888.84899999995,"duration":74.07400000000052,"noteNumber":62,"velocity":85,"programNumber":48},{"time":39888.84899999995,"duration":74.07400000000052,"noteNumber":69,"velocity":85,"programNumber":48},{"time":39999.95999999995,"duration":74.07400000000052,"noteNumber":64,"velocity":85,"programNumber":48},{"time":39999.95999999995,"duration":74.07400000000052,"noteNumber":69,"velocity":85,"programNumber":48},{"time":40111.070999999945,"duration":74.07400000000052,"noteNumber":64,"velocity":85,"programNumber":48},{"time":40111.070999999945,"duration":74.07400000000052,"noteNumber":69,"velocity":85,"programNumber":48},{"time":40222.18199999994,"duration":74.07400000000052,"noteNumber":64,"velocity":85,"programNumber":48},{"time":40222.18199999994,"duration":74.07400000000052,"noteNumber":69,"velocity":85,"programNumber":48},{"time":40333.29299999994,"duration":74.07400000000052,"noteNumber":64,"velocity":85,"programNumber":48},{"time":40333.29299999994,"duration":74.07400000000052,"noteNumber":69,"velocity":85,"programNumber":48},{"time":40444.40399999994,"duration":74.07400000000052,"noteNumber":64,"velocity":85,"programNumber":48},{"time":40444.40399999994,"duration":74.07400000000052,"noteNumber":69,"velocity":85,"programNumber":48},{"time":40555.514999999934,"duration":74.07400000000052,"noteNumber":64,"velocity":85,"programNumber":48},{"time":40555.514999999934,"duration":74.07400000000052,"noteNumber":69,"velocity":85,"programNumber":48},{"time":40666.62599999993,"duration":74.07400000000052,"noteNumber":64,"velocity":85,"programNumber":48},{"time":40666.62599999993,"duration":74.07400000000052,"noteNumber":69,"velocity":85,"programNumber":48},{"time":40777.73699999993,"duration":74.07400000000052,"noteNumber":64,"velocity":85,"programNumber":48},{"time":40777.73699999993,"duration":74.07400000000052,"noteNumber":69,"velocity":85,"programNumber":48},{"time":40888.847999999925,"duration":166.66649999999936,"noteNumber":62,"velocity":85,"programNumber":48},{"time":41111.06999999993,"duration":166.66649999999936,"noteNumber":64,"velocity":85,"programNumber":48},{"time":41333.29199999993,"duration":166.66649999999936,"noteNumber":66,"velocity":85,"programNumber":48},{"time":41555.51399999993,"duration":166.66649999999936,"noteNumber":64,"velocity":85,"programNumber":48},{"time":41777.73599999993,"duration":166.66649999999936,"noteNumber":62,"velocity":85,"programNumber":48},{"time":41999.95799999993,"duration":166.66649999999936,"noteNumber":64,"velocity":85,"programNumber":48},{"time":42222.179999999935,"duration":166.66649999999936,"noteNumber":66,"velocity":85,"programNumber":48},{"time":42444.40199999994,"duration":166.66649999999936,"noteNumber":62,"velocity":85,"programNumber":48},{"time":42666.62399999994,"duration":166.66649999999936,"noteNumber":71,"velocity":85,"programNumber":48},{"time":42888.84599999994,"duration":166.66649999999936,"noteNumber":69,"velocity":85,"programNumber":48},{"time":43111.06799999994,"duration":166.66649999999936,"noteNumber":67,"velocity":85,"programNumber":48},{"time":43333.28999999994,"duration":166.66649999999936,"noteNumber":69,"velocity":85,"programNumber":48},{"time":43555.511999999944,"duration":166.66649999999936,"noteNumber":71,"velocity":85,"programNumber":48},{"time":43777.733999999946,"duration":166.66649999999936,"noteNumber":69,"velocity":85,"programNumber":48},{"time":43999.95599999995,"duration":166.66649999999936,"noteNumber":68,"velocity":85,"programNumber":48},{"time":44222.17799999995,"duration":166.66649999999936,"noteNumber":71,"velocity":85,"programNumber":48},{"time":44444.39999999995,"duration":166.66649999999936,"noteNumber":69,"velocity":85,"programNumber":48},{"time":44666.62199999995,"duration":166.66649999999936,"noteNumber":69,"velocity":85,"programNumber":48},{"time":44888.843999999954,"duration":166.66649999999936,"noteNumber":69,"velocity":85,"programNumber":48},{"time":45111.065999999955,"duration":166.66649999999936,"noteNumber":69,"velocity":85,"programNumber":48},{"time":45333.28799999996,"duration":166.66649999999936,"noteNumber":69,"velocity":85,"programNumber":48},{"time":45555.50999999996,"duration":166.66649999999936,"noteNumber":69,"velocity":85,"programNumber":48},{"time":45777.73199999996,"duration":166.66649999999936,"noteNumber":69,"velocity":85,"programNumber":48},{"time":45999.95399999996,"duration":166.66649999999936,"noteNumber":69,"velocity":85,"programNumber":48},{"time":46222.17599999996,"duration":166.66649999999936,"noteNumber":69,"velocity":85,"programNumber":48},{"time":46444.397999999965,"duration":166.66649999999936,"noteNumber":57,"velocity":85,"programNumber":48},{"time":46666.619999999966,"duration":166.66649999999936,"noteNumber":57,"velocity":85,"programNumber":48},{"time":46888.84199999997,"duration":166.66649999999936,"noteNumber":57,"velocity":85,"programNumber":48},{"time":47111.06399999997,"duration":444.44400000000314,"noteNumber":57,"velocity":85,"programNumber":48},{"time":49333.28399999997,"duration":222.22200000000157,"noteNumber":66,"velocity":55,"programNumber":48},{"time":49777.727999999974,"duration":222.22200000000157,"noteNumber":59,"velocity":55,"programNumber":48},{"time":50222.17199999998,"duration":222.22200000000157,"noteNumber":67,"velocity":55,"programNumber":48},{"time":50666.61599999998,"duration":222.22200000000157,"noteNumber":64,"velocity":55,"programNumber":48},{"time":51111.05999999998,"duration":222.22200000000157,"noteNumber":61,"velocity":55,"programNumber":48},{"time":51999.94799999998,"duration":444.44400000000314,"noteNumber":64,"velocity":55,"programNumber":48},{"time":52444.391999999985,"duration":222.22200000000157,"noteNumber":62,"velocity":55,"programNumber":48},{"time":52888.83599999999,"duration":222.22200000000157,"noteNumber":64,"velocity":55,"programNumber":48},{"time":53333.27999999999,"duration":888.887999999999,"noteNumber":62,"velocity":55,"programNumber":48},{"time":54222.16799999999,"duration":444.44400000000314,"noteNumber":61,"velocity":55,"programNumber":48},{"time":55555.49999999999,"duration":444.44400000000314,"noteNumber":61,"velocity":55,"programNumber":48},{"time":55999.943999999996,"duration":222.22200000000157,"noteNumber":62,"velocity":55,"programNumber":48},{"time":56444.388,"duration":222.22200000000157,"noteNumber":66,"velocity":55,"programNumber":48},{"time":56888.832,"duration":222.22200000000157,"noteNumber":59,"velocity":55,"programNumber":48},{"time":57333.276000000005,"duration":222.22200000000157,"noteNumber":55,"velocity":55,"programNumber":48},{"time":57777.72000000001,"duration":444.44400000000314,"noteNumber":52,"velocity":55,"programNumber":48},{"time":58444.38600000001,"duration":166.66649999999936,"noteNumber":64,"velocity":55,"programNumber":48},{"time":58666.608000000015,"duration":222.22200000000157,"noteNumber":64,"velocity":55,"programNumber":48},{"time":58888.830000000016,"duration":222.22200000000157,"noteNumber":62,"velocity":55,"programNumber":48},{"time":60444.38400000002,"duration":166.66649999999936,"noteNumber":62,"velocity":55,"programNumber":48},{"time":60666.60600000002,"duration":166.66649999999936,"noteNumber":62,"velocity":55,"programNumber":48},{"time":60888.82800000002,"duration":166.66649999999936,"noteNumber":64,"velocity":55,"programNumber":48},{"time":61111.050000000025,"duration":166.66649999999936,"noteNumber":64,"velocity":55,"programNumber":48},{"time":61333.272000000026,"duration":166.66649999999936,"noteNumber":66,"velocity":55,"programNumber":48},{"time":61555.49400000003,"duration":166.66649999999936,"noteNumber":66,"velocity":55,"programNumber":48},{"time":61777.71600000003,"duration":166.66649999999936,"noteNumber":62,"velocity":55,"programNumber":48},{"time":61999.93800000003,"duration":166.66649999999936,"noteNumber":62,"velocity":55,"programNumber":48},{"time":62222.16000000003,"duration":166.66649999999936,"noteNumber":61,"velocity":55,"programNumber":48},{"time":62444.382000000034,"duration":166.66649999999936,"noteNumber":61,"velocity":55,"programNumber":48},{"time":62666.604000000036,"duration":166.66649999999936,"noteNumber":62,"velocity":55,"programNumber":48},{"time":62888.82600000004,"duration":166.66649999999936,"noteNumber":62,"velocity":55,"programNumber":48},{"time":63111.04800000004,"duration":166.66649999999936,"noteNumber":64,"velocity":55,"programNumber":48},{"time":63333.27000000004,"duration":166.66649999999936,"noteNumber":64,"velocity":55,"programNumber":48},{"time":63555.49200000004,"duration":166.66649999999936,"noteNumber":61,"velocity":55,"programNumber":48},{"time":63777.71400000004,"duration":166.66649999999936,"noteNumber":61,"velocity":55,"programNumber":48},{"time":63999.936000000045,"duration":166.66649999999936,"noteNumber":62,"velocity":55,"programNumber":48},{"time":64222.15800000005,"duration":166.66649999999936,"noteNumber":62,"velocity":55,"programNumber":48},{"time":64444.38000000005,"duration":166.66649999999936,"noteNumber":64,"velocity":55,"programNumber":48},{"time":64666.60200000005,"duration":166.66649999999936,"noteNumber":64,"velocity":55,"programNumber":48},{"time":64888.82400000005,"duration":166.66649999999936,"noteNumber":66,"velocity":55,"programNumber":48},{"time":65111.04600000005,"duration":166.66649999999936,"noteNumber":66,"velocity":55,"programNumber":48},{"time":65333.268000000055,"duration":166.66649999999936,"noteNumber":62,"velocity":55,"programNumber":48},{"time":65555.49000000005,"duration":166.66650000000664,"noteNumber":62,"velocity":55,"programNumber":48},{"time":65777.71200000006,"duration":166.66650000000664,"noteNumber":61,"velocity":55,"programNumber":48},{"time":65999.93400000007,"duration":166.66650000000664,"noteNumber":61,"velocity":55,"programNumber":48},{"time":66222.15600000008,"duration":166.66650000000664,"noteNumber":62,"velocity":55,"programNumber":48},{"time":66444.37800000008,"duration":166.66650000000664,"noteNumber":62,"velocity":55,"programNumber":48},{"time":66666.6000000001,"duration":166.66650000000664,"noteNumber":64,"velocity":55,"programNumber":48},{"time":66888.8220000001,"duration":166.66650000000664,"noteNumber":64,"velocity":55,"programNumber":48},{"time":67111.04400000011,"duration":166.66650000000664,"noteNumber":61,"velocity":55,"programNumber":48},{"time":67333.26600000012,"duration":166.66650000000664,"noteNumber":61,"velocity":55,"programNumber":48},{"time":67555.48800000013,"duration":166.66650000000664,"noteNumber":62,"velocity":55,"programNumber":48},{"time":67777.71000000014,"duration":166.66650000000664,"noteNumber":62,"velocity":55,"programNumber":48},{"time":67999.93200000015,"duration":166.66650000000664,"noteNumber":66,"velocity":55,"programNumber":48},{"time":68222.15400000016,"duration":166.66650000000664,"noteNumber":64,"velocity":55,"programNumber":48},{"time":68444.37600000016,"duration":166.66650000000664,"noteNumber":63,"velocity":55,"programNumber":48},{"time":68666.59800000017,"duration":166.66650000000664,"noteNumber":59,"velocity":55,"programNumber":48},{"time":68888.82000000018,"duration":166.66650000000664,"noteNumber":61,"velocity":55,"programNumber":48},{"time":69111.04200000019,"duration":166.66650000000664,"noteNumber":62,"velocity":55,"programNumber":48},{"time":69333.2640000002,"duration":166.66650000000664,"noteNumber":64,"velocity":85,"programNumber":48},{"time":69555.48600000021,"duration":166.66650000000664,"noteNumber":67,"velocity":85,"programNumber":48},{"time":69777.70800000022,"duration":166.66650000000664,"noteNumber":64,"velocity":85,"programNumber":48},{"time":69999.93000000023,"duration":166.66650000000664,"noteNumber":62,"velocity":85,"programNumber":48},{"time":70222.15200000023,"duration":166.66650000000664,"noteNumber":61,"velocity":85,"programNumber":48},{"time":70444.37400000024,"duration":166.66650000000664,"noteNumber":57,"velocity":55,"programNumber":48},{"time":70666.59600000025,"duration":166.66650000000664,"noteNumber":59,"velocity":85,"programNumber":48},{"time":70888.81800000026,"duration":166.66650000000664,"noteNumber":61,"velocity":85,"programNumber":48},{"time":71111.04000000027,"duration":166.66650000000664,"noteNumber":62,"velocity":85,"programNumber":48},{"time":71333.26200000028,"duration":166.66650000000664,"noteNumber":74,"velocity":85,"programNumber":48},{"time":71555.48400000029,"duration":166.66650000000664,"noteNumber":74,"velocity":85,"programNumber":48},{"time":71777.7060000003,"duration":166.66650000000664,"noteNumber":74,"velocity":85,"programNumber":48},{"time":71999.9280000003,"duration":166.66650000000664,"noteNumber":74,"velocity":85,"programNumber":48},{"time":72222.15000000031,"duration":166.66650000000664,"noteNumber":74,"velocity":85,"programNumber":48},{"time":72444.37200000032,"duration":166.66650000000664,"noteNumber":74,"velocity":85,"programNumber":48},{"time":72666.59400000033,"duration":166.66650000000664,"noteNumber":74,"velocity":85,"programNumber":48},{"time":72888.81600000034,"duration":222.2219999999943,"noteNumber":74,"velocity":85,"programNumber":48},{"time":73111.03800000034,"duration":166.66650000000664,"noteNumber":69,"velocity":85,"programNumber":48},{"time":73333.26000000034,"duration":111.11100000000442,"noteNumber":69,"velocity":85,"programNumber":48},{"time":73555.48200000035,"duration":111.11100000000442,"noteNumber":69,"velocity":85,"programNumber":48},{"time":73777.70400000036,"duration":166.66650000000664,"noteNumber":69,"velocity":85,"programNumber":48},{"time":73999.92600000037,"duration":166.66650000000664,"noteNumber":69,"velocity":85,"programNumber":48},{"time":74222.14800000038,"duration":166.66650000000664,"noteNumber":69,"velocity":85,"programNumber":48},{"time":74444.37000000039,"duration":166.66650000000664,"noteNumber":67,"velocity":85,"programNumber":48},{"time":74666.5920000004,"duration":166.66650000000664,"noteNumber":62,"velocity":85,"programNumber":48},{"time":74888.8140000004,"duration":166.66650000000664,"noteNumber":62,"velocity":53,"programNumber":48},{"time":75111.03600000041,"duration":166.66650000000664,"noteNumber":64,"velocity":53,"programNumber":48},{"time":75333.25800000042,"duration":166.66650000000664,"noteNumber":64,"velocity":53,"programNumber":48},{"time":75555.48000000043,"duration":166.66650000000664,"noteNumber":66,"velocity":53,"programNumber":48},{"time":75777.70200000044,"duration":166.66650000000664,"noteNumber":66,"velocity":53,"programNumber":48},{"time":75999.92400000045,"duration":166.66650000000664,"noteNumber":62,"velocity":53,"programNumber":48},{"time":76222.14600000046,"duration":166.66650000000664,"noteNumber":62,"velocity":53,"programNumber":48},{"time":76444.36800000047,"duration":166.66650000000664,"noteNumber":61,"velocity":55,"programNumber":48},{"time":76666.59000000048,"duration":166.66650000000664,"noteNumber":61,"velocity":55,"programNumber":48},{"time":76888.81200000049,"duration":166.66650000000664,"noteNumber":62,"velocity":55,"programNumber":48},{"time":77111.0340000005,"duration":166.66650000000664,"noteNumber":62,"velocity":55,"programNumber":48},{"time":77333.2560000005,"duration":166.66650000000664,"noteNumber":64,"velocity":55,"programNumber":48},{"time":77555.47800000051,"duration":166.66650000000664,"noteNumber":64,"velocity":55,"programNumber":48},{"time":77777.70000000052,"duration":166.66650000000664,"noteNumber":61,"velocity":55,"programNumber":48},{"time":77999.92200000053,"duration":166.66650000000664,"noteNumber":61,"velocity":55,"programNumber":48},{"time":78222.14400000054,"duration":166.66650000000664,"noteNumber":62,"velocity":55,"programNumber":48},{"time":78444.36600000055,"duration":166.66650000000664,"noteNumber":62,"velocity":55,"programNumber":48},{"time":78666.58800000056,"duration":166.66650000000664,"noteNumber":64,"velocity":55,"programNumber":48},{"time":78888.81000000057,"duration":166.66650000000664,"noteNumber":64,"velocity":55,"programNumber":48},{"time":79111.03200000057,"duration":166.66650000000664,"noteNumber":66,"velocity":55,"programNumber":48},{"time":79333.25400000058,"duration":166.66650000000664,"noteNumber":66,"velocity":55,"programNumber":48},{"time":79555.47600000059,"duration":166.66650000000664,"noteNumber":62,"velocity":55,"programNumber":48},{"time":79777.6980000006,"duration":166.66650000000664,"noteNumber":62,"velocity":55,"programNumber":48},{"time":79999.92000000061,"duration":166.66650000000664,"noteNumber":61,"velocity":55,"programNumber":48},{"time":80222.14200000062,"duration":166.66650000000664,"noteNumber":61,"velocity":55,"programNumber":48},{"time":80444.36400000063,"duration":166.66650000000664,"noteNumber":62,"velocity":55,"programNumber":48},{"time":80666.58600000064,"duration":166.66650000000664,"noteNumber":62,"velocity":55,"programNumber":48},{"time":80888.80800000064,"duration":166.66650000000664,"noteNumber":64,"velocity":55,"programNumber":48},{"time":81111.03000000065,"duration":166.66650000000664,"noteNumber":64,"velocity":55,"programNumber":48},{"time":81333.25200000066,"duration":166.66650000000664,"noteNumber":61,"velocity":55,"programNumber":48},{"time":81555.47400000067,"duration":166.66650000000664,"noteNumber":61,"velocity":55,"programNumber":48},{"time":81777.69600000068,"duration":166.66650000000664,"noteNumber":62,"velocity":55,"programNumber":48},{"time":81999.91800000069,"duration":166.66650000000664,"noteNumber":62,"velocity":85,"programNumber":48},{"time":82222.1400000007,"duration":166.66650000000664,"noteNumber":66,"velocity":85,"programNumber":48},{"time":82444.3620000007,"duration":166.66650000000664,"noteNumber":64,"velocity":85,"programNumber":48},{"time":82666.58400000072,"duration":166.66650000000664,"noteNumber":63,"velocity":85,"programNumber":48},{"time":82888.80600000072,"duration":166.66650000000664,"noteNumber":59,"velocity":85,"programNumber":48},{"time":83111.02800000073,"duration":166.66650000000664,"noteNumber":61,"velocity":85,"programNumber":48},{"time":83333.25000000074,"duration":166.66650000000664,"noteNumber":62,"velocity":85,"programNumber":48},{"time":83555.47200000075,"duration":166.66650000000664,"noteNumber":64,"velocity":85,"programNumber":48},{"time":83777.69400000076,"duration":166.66650000000664,"noteNumber":67,"velocity":85,"programNumber":48},{"time":83999.91600000077,"duration":166.66650000000664,"noteNumber":64,"velocity":85,"programNumber":48},{"time":84222.13800000078,"duration":166.66650000000664,"noteNumber":62,"velocity":85,"programNumber":48},{"time":84444.36000000079,"duration":166.66650000000664,"noteNumber":61,"velocity":85,"programNumber":48},{"time":84666.5820000008,"duration":166.66650000000664,"noteNumber":57,"velocity":85,"programNumber":48},{"time":84888.8040000008,"duration":166.66650000000664,"noteNumber":59,"velocity":85,"programNumber":48},{"time":85111.02600000081,"duration":166.66650000000664,"noteNumber":61,"velocity":85,"programNumber":48},{"time":85333.24800000082,"duration":166.66650000000664,"noteNumber":62,"velocity":85,"programNumber":48},{"time":85555.47000000083,"duration":166.66650000000664,"noteNumber":74,"velocity":85,"programNumber":48},{"time":85777.69200000084,"duration":166.66650000000664,"noteNumber":74,"velocity":85,"programNumber":48},{"time":85999.91400000085,"duration":166.66650000000664,"noteNumber":74,"velocity":85,"programNumber":48},{"time":86222.13600000086,"duration":166.66650000000664,"noteNumber":74,"velocity":85,"programNumber":48},{"time":86444.35800000087,"duration":166.66650000000664,"noteNumber":74,"velocity":85,"programNumber":48},{"time":86666.58000000087,"duration":166.66650000000664,"noteNumber":74,"velocity":85,"programNumber":48},{"time":86888.80200000088,"duration":166.66650000000664,"noteNumber":74,"velocity":85,"programNumber":48},{"time":87111.02400000089,"duration":222.2219999999943,"noteNumber":74,"velocity":85,"programNumber":48},{"time":87333.24600000089,"duration":166.66650000000664,"noteNumber":69,"velocity":85,"programNumber":48},{"time":87555.4680000009,"duration":111.11100000000442,"noteNumber":69,"velocity":85,"programNumber":48},{"time":87777.6900000009,"duration":111.11100000000442,"noteNumber":69,"velocity":85,"programNumber":48},{"time":87999.91200000091,"duration":166.66650000000664,"noteNumber":69,"velocity":85,"programNumber":48},{"time":88222.13400000092,"duration":166.66650000000664,"noteNumber":69,"velocity":85,"programNumber":48},{"time":88444.35600000093,"duration":166.66650000000664,"noteNumber":69,"velocity":85,"programNumber":48},{"time":88666.57800000094,"duration":166.66650000000664,"noteNumber":67,"velocity":85,"programNumber":48},{"time":88888.80000000095,"duration":166.66650000000664,"noteNumber":66,"velocity":85,"programNumber":48},{"time":89111.02200000096,"duration":166.66650000000664,"noteNumber":57,"velocity":85,"programNumber":48},{"time":89333.24400000097,"duration":166.66650000000664,"noteNumber":59,"velocity":85,"programNumber":48},{"time":89555.46600000098,"duration":166.66650000000664,"noteNumber":61,"velocity":85,"programNumber":48},{"time":89777.68800000098,"duration":166.66650000000664,"noteNumber":62,"velocity":85,"programNumber":48},{"time":89999.910000001,"duration":166.66650000000664,"noteNumber":62,"velocity":85,"programNumber":48},{"time":90222.132000001,"duration":166.66650000000664,"noteNumber":64,"velocity":85,"programNumber":48},{"time":90444.35400000101,"duration":166.66650000000664,"noteNumber":64,"velocity":85,"programNumber":48},{"time":90666.57600000102,"duration":166.66650000000664,"noteNumber":66,"velocity":85,"programNumber":48},{"time":90888.79800000103,"duration":166.66650000000664,"noteNumber":61,"velocity":85,"programNumber":48},{"time":91111.02000000104,"duration":166.66650000000664,"noteNumber":62,"velocity":85,"programNumber":48},{"time":91333.24200000105,"duration":166.66650000000664,"noteNumber":64,"velocity":85,"programNumber":48},{"time":91555.46400000105,"duration":166.66650000000664,"noteNumber":66,"velocity":85,"programNumber":48},{"time":91777.68600000106,"duration":166.66650000000664,"noteNumber":66,"velocity":85,"programNumber":48},{"time":91999.90800000107,"duration":166.66650000000664,"noteNumber":67,"velocity":85,"programNumber":48},{"time":92222.13000000108,"duration":166.66650000000664,"noteNumber":67,"velocity":85,"programNumber":48},{"time":92444.35200000109,"duration":166.66650000000664,"noteNumber":69,"velocity":85,"programNumber":48},{"time":92666.5740000011,"duration":166.66650000000664,"noteNumber":69,"velocity":85,"programNumber":48},{"time":92888.79600000111,"duration":166.66650000000664,"noteNumber":70,"velocity":85,"programNumber":48},{"time":93111.01800000112,"duration":166.66650000000664,"noteNumber":70,"velocity":85,"programNumber":48},{"time":93333.24000000113,"duration":444.44400000000314,"noteNumber":71,"velocity":85,"programNumber":48},{"time":94222.12800000113,"duration":1333.3319999999949,"noteNumber":64,"velocity":55,"programNumber":48},{"time":95555.46000000113,"duration":222.2219999999943,"noteNumber":62,"velocity":55,"programNumber":48},{"time":95777.68200000112,"duration":222.2219999999943,"noteNumber":61,"velocity":55,"programNumber":48},{"time":95999.90400000112,"duration":222.2219999999943,"noteNumber":62,"velocity":55,"programNumber":48},{"time":96444.3480000011,"duration":222.2219999999943,"noteNumber":62,"velocity":55,"programNumber":48},{"time":96888.79200000109,"duration":222.2219999999943,"noteNumber":62,"velocity":55,"programNumber":48},{"time":97777.68000000108,"duration":444.44400000000314,"noteNumber":67,"velocity":85,"programNumber":48},{"time":98444.34600000108,"duration":111.11100000000442,"noteNumber":62,"velocity":85,"programNumber":48},{"time":98666.56800000109,"duration":444.44400000000314,"noteNumber":67,"velocity":85,"programNumber":48},{"time":99333.23400000109,"duration":111.11100000000442,"noteNumber":62,"velocity":85,"programNumber":48},{"time":99555.4560000011,"duration":111.11100000000442,"noteNumber":67,"velocity":85,"programNumber":48},{"time":99777.6780000011,"duration":111.11100000000442,"noteNumber":62,"velocity":85,"programNumber":48},{"time":99999.90000000111,"duration":111.11100000000442,"noteNumber":67,"velocity":85,"programNumber":48},{"time":100222.12200000112,"duration":111.11100000000442,"noteNumber":71,"velocity":85,"programNumber":48},{"time":100444.34400000113,"duration":444.44400000000314,"noteNumber":74,"velocity":85,"programNumber":48},{"time":101333.23200000114,"duration":444.44400000000314,"noteNumber":72,"velocity":85,"programNumber":48},{"time":101999.89800000114,"duration":111.11100000000442,"noteNumber":69,"velocity":85,"programNumber":48},{"time":102222.12000000114,"duration":444.44400000000314,"noteNumber":72,"velocity":85,"programNumber":48},{"time":102888.78600000114,"duration":111.11100000000442,"noteNumber":69,"velocity":85,"programNumber":48},{"time":103111.00800000115,"duration":111.11100000000442,"noteNumber":72,"velocity":85,"programNumber":48},{"time":103333.23000000116,"duration":111.11100000000442,"noteNumber":69,"velocity":85,"programNumber":48},{"time":103555.45200000117,"duration":111.11100000000442,"noteNumber":66,"velocity":85,"programNumber":48},{"time":103777.67400000118,"duration":111.11100000000442,"noteNumber":69,"velocity":85,"programNumber":48},{"time":103999.89600000119,"duration":444.44400000000314,"noteNumber":62,"velocity":85,"programNumber":48},{"time":104888.7840000012,"duration":166.66650000000664,"noteNumber":67,"velocity":85,"programNumber":48},{"time":105111.0060000012,"duration":166.66650000000664,"noteNumber":67,"velocity":85,"programNumber":48},{"time":105333.22800000121,"duration":166.66650000000664,"noteNumber":67,"velocity":85,"programNumber":48},{"time":105555.45000000122,"duration":166.66650000000664,"noteNumber":67,"velocity":85,"programNumber":48},{"time":105777.67200000123,"duration":166.66650000000664,"noteNumber":67,"velocity":85,"programNumber":48},{"time":105999.89400000124,"duration":166.66650000000664,"noteNumber":67,"velocity":85,"programNumber":48},{"time":106222.11600000125,"duration":166.66650000000664,"noteNumber":67,"velocity":85,"programNumber":48},{"time":106444.33800000125,"duration":166.66650000000664,"noteNumber":67,"velocity":85,"programNumber":48},{"time":106666.56000000126,"duration":166.66650000000664,"noteNumber":69,"velocity":85,"programNumber":48},{"time":106888.78200000127,"duration":166.66650000000664,"noteNumber":69,"velocity":85,"programNumber":48},{"time":107111.00400000128,"duration":166.66650000000664,"noteNumber":69,"velocity":85,"programNumber":48},{"time":107333.22600000129,"duration":166.66650000000664,"noteNumber":69,"velocity":85,"programNumber":48},{"time":107555.4480000013,"duration":222.2219999999943,"noteNumber":69,"velocity":85,"programNumber":48},{"time":107777.6700000013,"duration":166.66650000000664,"noteNumber":72,"velocity":85,"programNumber":48},{"time":107999.8920000013,"duration":222.2219999999943,"noteNumber":66,"velocity":85,"programNumber":48},{"time":108222.1140000013,"duration":166.66650000000664,"noteNumber":69,"velocity":85,"programNumber":48},{"time":108444.3360000013,"duration":166.66650000000664,"noteNumber":67,"velocity":85,"programNumber":48},{"time":108666.55800000131,"duration":166.66650000000664,"noteNumber":67,"velocity":85,"programNumber":48},{"time":108888.78000000132,"duration":166.66650000000664,"noteNumber":67,"velocity":85,"programNumber":48},{"time":109111.00200000133,"duration":166.66650000000664,"noteNumber":67,"velocity":85,"programNumber":48},{"time":109333.22400000134,"duration":166.66650000000664,"noteNumber":67,"velocity":85,"programNumber":48},{"time":109555.44600000135,"duration":166.66650000000664,"noteNumber":67,"velocity":85,"programNumber":48},{"time":109777.66800000136,"duration":166.66650000000664,"noteNumber":67,"velocity":85,"programNumber":48},{"time":109999.89000000137,"duration":166.66650000000664,"noteNumber":67,"velocity":85,"programNumber":48},{"time":110222.11200000138,"duration":166.66650000000664,"noteNumber":69,"velocity":85,"programNumber":48},{"time":110444.33400000138,"duration":166.66650000000664,"noteNumber":69,"velocity":85,"programNumber":48},{"time":110666.5560000014,"duration":166.66650000000664,"noteNumber":69,"velocity":85,"programNumber":48},{"time":110888.7780000014,"duration":166.66650000000664,"noteNumber":69,"velocity":85,"programNumber":48},{"time":111111.00000000141,"duration":222.2219999999943,"noteNumber":69,"velocity":85,"programNumber":48},{"time":111333.2220000014,"duration":166.66650000000664,"noteNumber":72,"velocity":85,"programNumber":48},{"time":111555.44400000141,"duration":222.2219999999943,"noteNumber":66,"velocity":85,"programNumber":48},{"time":111777.66600000141,"duration":166.66650000000664,"noteNumber":69,"velocity":85,"programNumber":48},{"time":111999.88800000142,"duration":74.07399999999325,"noteNumber":62,"velocity":85,"programNumber":48},{"time":112110.99900000141,"duration":74.07399999999325,"noteNumber":62,"velocity":85,"programNumber":48},{"time":112222.1100000014,"duration":74.07399999999325,"noteNumber":62,"velocity":85,"programNumber":48},{"time":112333.22100000139,"duration":74.07399999999325,"noteNumber":62,"velocity":85,"programNumber":48},{"time":112444.33200000138,"duration":74.07399999999325,"noteNumber":62,"velocity":85,"programNumber":48},{"time":112555.44300000137,"duration":74.07399999999325,"noteNumber":62,"velocity":85,"programNumber":48},{"time":112666.55400000136,"duration":74.07399999999325,"noteNumber":62,"velocity":85,"programNumber":48},{"time":112777.66500000135,"duration":74.07399999999325,"noteNumber":62,"velocity":85,"programNumber":48},{"time":112888.77600000134,"duration":74.07399999999325,"noteNumber":62,"velocity":85,"programNumber":48},{"time":112999.88700000133,"duration":74.07399999999325,"noteNumber":62,"velocity":85,"programNumber":48},{"time":113110.99800000132,"duration":74.07399999999325,"noteNumber":62,"velocity":85,"programNumber":48},{"time":113222.1090000013,"duration":74.07399999999325,"noteNumber":62,"velocity":85,"programNumber":48},{"time":113333.2200000013,"duration":74.07399999999325,"noteNumber":62,"velocity":85,"programNumber":48},{"time":113444.33100000129,"duration":74.07399999999325,"noteNumber":62,"velocity":85,"programNumber":48},{"time":113555.44200000128,"duration":74.07399999999325,"noteNumber":62,"velocity":85,"programNumber":48},{"time":113666.55300000127,"duration":74.07399999999325,"noteNumber":62,"velocity":85,"programNumber":48},{"time":113777.66400000126,"duration":74.07399999999325,"noteNumber":62,"velocity":85,"programNumber":48},{"time":113888.77500000125,"duration":74.07399999999325,"noteNumber":62,"velocity":85,"programNumber":48},{"time":113999.88600000124,"duration":74.07399999999325,"noteNumber":62,"velocity":85,"programNumber":48},{"time":114110.99700000123,"duration":74.07399999999325,"noteNumber":62,"velocity":85,"programNumber":48},{"time":114222.10800000122,"duration":74.07399999999325,"noteNumber":62,"velocity":85,"programNumber":48},{"time":114333.2190000012,"duration":74.07399999999325,"noteNumber":62,"velocity":85,"programNumber":48},{"time":114444.3300000012,"duration":74.07399999999325,"noteNumber":62,"velocity":85,"programNumber":48},{"time":114555.44100000118,"duration":74.07399999999325,"noteNumber":62,"velocity":85,"programNumber":48},{"time":114666.55200000117,"duration":444.44400000000314,"noteNumber":62,"velocity":85,"programNumber":48},{"time":117333.21600000118,"duration":888.8880000000063,"noteNumber":54,"velocity":47,"programNumber":48},{"time":118222.10400000119,"duration":888.8880000000063,"noteNumber":55,"velocity":47,"programNumber":48},{"time":119110.99200000119,"duration":333.3329999999987,"noteNumber":60,"velocity":47,"programNumber":48},{"time":119555.4360000012,"duration":333.3329999999987,"noteNumber":60,"velocity":47,"programNumber":48},{"time":119999.8800000012,"duration":333.3329999999987,"noteNumber":57,"velocity":47,"programNumber":48},{"time":120444.3240000012,"duration":333.3329999999987,"noteNumber":50,"velocity":47,"programNumber":48},{"time":120888.7680000012,"duration":222.2219999999943,"noteNumber":50,"velocity":47,"programNumber":48},{"time":121333.2120000012,"duration":222.2219999999943,"noteNumber":62,"velocity":47,"programNumber":48},{"time":121777.65600000118,"duration":444.44400000000314,"noteNumber":62,"velocity":47,"programNumber":48},{"time":124444.32000000119,"duration":888.8880000000063,"noteNumber":66,"velocity":47,"programNumber":48},{"time":125333.20800000119,"duration":888.8880000000063,"noteNumber":67,"velocity":47,"programNumber":48},{"time":126222.0960000012,"duration":333.3329999999987,"noteNumber":60,"velocity":47,"programNumber":48},{"time":126666.5400000012,"duration":166.66650000000664,"noteNumber":60,"velocity":47,"programNumber":48},{"time":126888.76200000121,"duration":166.66650000000664,"noteNumber":60,"velocity":47,"programNumber":48},{"time":127110.98400000122,"duration":333.3329999999987,"noteNumber":57,"velocity":47,"programNumber":48},{"time":127555.42800000122,"duration":166.66650000000664,"noteNumber":57,"velocity":47,"programNumber":48},{"time":127777.65000000123,"duration":166.66650000000664,"noteNumber":57,"velocity":47,"programNumber":48},{"time":127999.87200000124,"duration":166.66650000000664,"noteNumber":55,"velocity":92,"programNumber":48},{"time":128222.09400000125,"duration":166.66650000000664,"noteNumber":55,"velocity":71,"programNumber":48},{"time":128444.31600000126,"duration":166.66650000000664,"noteNumber":55,"velocity":71,"programNumber":48},{"time":128666.53800000127,"duration":166.66650000000664,"noteNumber":55,"velocity":71,"programNumber":48},{"time":128888.76000000128,"duration":166.66650000000664,"noteNumber":55,"velocity":55,"programNumber":48},{"time":129110.98200000128,"duration":166.66650000000664,"noteNumber":55,"velocity":50,"programNumber":48},{"time":129333.2040000013,"duration":166.66650000000664,"noteNumber":55,"velocity":50,"programNumber":48},{"time":129555.4260000013,"duration":166.66650000000664,"noteNumber":55,"velocity":50,"programNumber":48},{"time":129777.64800000131,"duration":166.66650000000664,"noteNumber":55,"velocity":91,"programNumber":48},{"time":129999.87000000132,"duration":166.66650000000664,"noteNumber":55,"velocity":65,"programNumber":48},{"time":130222.09200000133,"duration":166.66650000000664,"noteNumber":55,"velocity":65,"programNumber":48},{"time":130444.31400000134,"duration":166.66650000000664,"noteNumber":55,"velocity":65,"programNumber":48},{"time":130666.53600000135,"duration":166.66650000000664,"noteNumber":55,"velocity":46,"programNumber":48},{"time":130888.75800000135,"duration":166.66650000000664,"noteNumber":55,"velocity":46,"programNumber":48},{"time":131110.98000000135,"duration":166.66649999999208,"noteNumber":55,"velocity":46,"programNumber":48},{"time":131333.20200000133,"duration":166.66649999999208,"noteNumber":55,"velocity":46,"programNumber":48},{"time":131555.4240000013,"duration":166.66649999999208,"noteNumber":55,"velocity":59,"programNumber":48},{"time":131777.6460000013,"duration":166.66649999999208,"noteNumber":67,"velocity":41,"programNumber":48},{"time":131999.86800000127,"duration":166.66649999999208,"noteNumber":67,"velocity":46,"programNumber":48},{"time":132222.09000000125,"duration":166.66649999999208,"noteNumber":67,"velocity":49,"programNumber":48},{"time":132444.31200000123,"duration":166.66649999999208,"noteNumber":67,"velocity":53,"programNumber":48},{"time":132666.5340000012,"duration":166.66649999999208,"noteNumber":67,"velocity":56,"programNumber":48},{"time":132888.7560000012,"duration":166.66649999999208,"noteNumber":69,"velocity":61,"programNumber":48},{"time":133110.97800000117,"duration":166.66649999999208,"noteNumber":69,"velocity":64,"programNumber":48},{"time":133333.20000000115,"duration":166.66649999999208,"noteNumber":67,"velocity":68,"programNumber":48},{"time":133555.42200000113,"duration":166.66649999999208,"noteNumber":67,"velocity":71,"programNumber":48},{"time":133777.6440000011,"duration":166.66649999999208,"noteNumber":66,"velocity":76,"programNumber":48},{"time":133999.8660000011,"duration":166.66649999999208,"noteNumber":66,"velocity":79,"programNumber":48},{"time":134222.08800000107,"duration":166.66649999999208,"noteNumber":67,"velocity":82,"programNumber":48},{"time":134444.31000000105,"duration":166.66649999999208,"noteNumber":67,"velocity":82,"programNumber":48},{"time":134666.53200000103,"duration":166.66649999999208,"noteNumber":64,"velocity":82,"programNumber":48},{"time":134888.754000001,"duration":166.66649999999208,"noteNumber":64,"velocity":82,"programNumber":48},{"time":135110.97600000098,"duration":74.07399999999325,"noteNumber":62,"velocity":85,"programNumber":48},{"time":135110.97600000098,"duration":74.07399999999325,"noteNumber":69,"velocity":85,"programNumber":48},{"time":135222.087000001,"duration":74.07399999999325,"noteNumber":62,"velocity":85,"programNumber":48},{"time":135222.087000001,"duration":74.07399999999325,"noteNumber":69,"velocity":85,"programNumber":48},{"time":135333.198000001,"duration":74.07399999999325,"noteNumber":62,"velocity":85,"programNumber":48},{"time":135333.198000001,"duration":74.07399999999325,"noteNumber":69,"velocity":85,"programNumber":48},{"time":135444.309000001,"duration":74.07399999999325,"noteNumber":62,"velocity":85,"programNumber":48},{"time":135444.309000001,"duration":74.07399999999325,"noteNumber":69,"velocity":85,"programNumber":48},{"time":135555.420000001,"duration":74.07399999999325,"noteNumber":62,"velocity":85,"programNumber":48},{"time":135555.420000001,"duration":74.07399999999325,"noteNumber":69,"velocity":85,"programNumber":48},{"time":135666.531000001,"duration":74.07399999999325,"noteNumber":62,"velocity":85,"programNumber":48},{"time":135666.531000001,"duration":74.07399999999325,"noteNumber":69,"velocity":85,"programNumber":48},{"time":135777.642000001,"duration":74.07399999999325,"noteNumber":62,"velocity":85,"programNumber":48},{"time":135777.642000001,"duration":74.07399999999325,"noteNumber":69,"velocity":85,"programNumber":48},{"time":135888.75300000102,"duration":74.07399999999325,"noteNumber":62,"velocity":85,"programNumber":48},{"time":135888.75300000102,"duration":74.07399999999325,"noteNumber":69,"velocity":85,"programNumber":48},{"time":135999.86400000102,"duration":74.07399999999325,"noteNumber":64,"velocity":85,"programNumber":48},{"time":135999.86400000102,"duration":74.07399999999325,"noteNumber":69,"velocity":85,"programNumber":48},{"time":136110.97500000102,"duration":74.07399999999325,"noteNumber":64,"velocity":85,"programNumber":48},{"time":136110.97500000102,"duration":74.07399999999325,"noteNumber":69,"velocity":85,"programNumber":48},{"time":136222.08600000103,"duration":74.07399999999325,"noteNumber":64,"velocity":85,"programNumber":48},{"time":136222.08600000103,"duration":74.07399999999325,"noteNumber":69,"velocity":85,"programNumber":48},{"time":136333.19700000103,"duration":74.07399999999325,"noteNumber":64,"velocity":85,"programNumber":48},{"time":136333.19700000103,"duration":74.07399999999325,"noteNumber":69,"velocity":85,"programNumber":48},{"time":136444.30800000104,"duration":74.07399999999325,"noteNumber":64,"velocity":85,"programNumber":48},{"time":136444.30800000104,"duration":74.07399999999325,"noteNumber":69,"velocity":85,"programNumber":48},{"time":136555.41900000104,"duration":74.07399999999325,"noteNumber":64,"velocity":85,"programNumber":48},{"time":136555.41900000104,"duration":74.07399999999325,"noteNumber":69,"velocity":85,"programNumber":48},{"time":136666.53000000105,"duration":74.07399999999325,"noteNumber":64,"velocity":85,"programNumber":48},{"time":136666.53000000105,"duration":74.07399999999325,"noteNumber":69,"velocity":85,"programNumber":48},{"time":136777.64100000105,"duration":74.07399999999325,"noteNumber":64,"velocity":85,"programNumber":48},{"time":136777.64100000105,"duration":74.07399999999325,"noteNumber":69,"velocity":85,"programNumber":48},{"time":136888.75200000106,"duration":74.07399999999325,"noteNumber":62,"velocity":85,"programNumber":48},{"time":136888.75200000106,"duration":74.07399999999325,"noteNumber":69,"velocity":85,"programNumber":48},{"time":136999.86300000106,"duration":74.07399999999325,"noteNumber":62,"velocity":85,"programNumber":48},{"time":136999.86300000106,"duration":74.07399999999325,"noteNumber":69,"velocity":85,"programNumber":48},{"time":137110.97400000106,"duration":74.07399999999325,"noteNumber":62,"velocity":85,"programNumber":48},{"time":137110.97400000106,"duration":74.07399999999325,"noteNumber":69,"velocity":85,"programNumber":48},{"time":137222.08500000107,"duration":74.07399999999325,"noteNumber":62,"velocity":85,"programNumber":48},{"time":137222.08500000107,"duration":74.07399999999325,"noteNumber":69,"velocity":85,"programNumber":48},{"time":137333.19600000107,"duration":74.07399999999325,"noteNumber":62,"velocity":85,"programNumber":48},{"time":137333.19600000107,"duration":74.07399999999325,"noteNumber":69,"velocity":85,"programNumber":48},{"time":137444.30700000108,"duration":74.07399999999325,"noteNumber":62,"velocity":85,"programNumber":48},{"time":137444.30700000108,"duration":74.07399999999325,"noteNumber":69,"velocity":85,"programNumber":48},{"time":137555.41800000108,"duration":74.07399999999325,"noteNumber":62,"velocity":85,"programNumber":48},{"time":137555.41800000108,"duration":74.07399999999325,"noteNumber":69,"velocity":85,"programNumber":48},{"time":137666.5290000011,"duration":74.07399999999325,"noteNumber":62,"velocity":85,"programNumber":48},{"time":137666.5290000011,"duration":74.07399999999325,"noteNumber":69,"velocity":85,"programNumber":48},{"time":137777.6400000011,"duration":74.07399999999325,"noteNumber":64,"velocity":85,"programNumber":48},{"time":137777.6400000011,"duration":74.07399999999325,"noteNumber":69,"velocity":85,"programNumber":48},{"time":137888.7510000011,"duration":74.07399999999325,"noteNumber":64,"velocity":85,"programNumber":48},{"time":137888.7510000011,"duration":74.07399999999325,"noteNumber":69,"velocity":85,"programNumber":48},{"time":137999.8620000011,"duration":74.07399999999325,"noteNumber":64,"velocity":85,"programNumber":48},{"time":137999.8620000011,"duration":74.07399999999325,"noteNumber":69,"velocity":85,"programNumber":48},{"time":138110.9730000011,"duration":74.07399999999325,"noteNumber":64,"velocity":85,"programNumber":48},{"time":138110.9730000011,"duration":74.07399999999325,"noteNumber":69,"velocity":85,"programNumber":48},{"time":138222.0840000011,"duration":74.07399999999325,"noteNumber":64,"velocity":85,"programNumber":48},{"time":138222.0840000011,"duration":74.07399999999325,"noteNumber":69,"velocity":85,"programNumber":48},{"time":138333.1950000011,"duration":74.07399999999325,"noteNumber":64,"velocity":85,"programNumber":48},{"time":138333.1950000011,"duration":74.07399999999325,"noteNumber":69,"velocity":85,"programNumber":48},{"time":138444.30600000112,"duration":74.07399999999325,"noteNumber":64,"velocity":85,"programNumber":48},{"time":138444.30600000112,"duration":74.07399999999325,"noteNumber":69,"velocity":85,"programNumber":48},{"time":138555.41700000112,"duration":74.07399999999325,"noteNumber":64,"velocity":85,"programNumber":48},{"time":138555.41700000112,"duration":74.07399999999325,"noteNumber":69,"velocity":85,"programNumber":48},{"time":138666.52800000113,"duration":166.66649999999208,"noteNumber":62,"velocity":85,"programNumber":48},{"time":138888.7500000011,"duration":166.66649999999208,"noteNumber":64,"velocity":85,"programNumber":48},{"time":139110.9720000011,"duration":166.66649999999208,"noteNumber":66,"velocity":85,"programNumber":48},{"time":139333.19400000107,"duration":166.66649999999208,"noteNumber":64,"velocity":85,"programNumber":48},{"time":139555.41600000105,"duration":166.66649999999208,"noteNumber":62,"velocity":85,"programNumber":48},{"time":139777.63800000102,"duration":166.66649999999208,"noteNumber":64,"velocity":85,"programNumber":48},{"time":139999.860000001,"duration":166.66649999999208,"noteNumber":66,"velocity":85,"programNumber":48},{"time":140222.08200000098,"duration":166.66649999999208,"noteNumber":62,"velocity":85,"programNumber":48},{"time":140444.30400000096,"duration":166.66649999999208,"noteNumber":71,"velocity":85,"programNumber":48},{"time":140666.52600000094,"duration":166.66649999999208,"noteNumber":69,"velocity":85,"programNumber":48},{"time":140888.74800000092,"duration":166.66649999999208,"noteNumber":67,"velocity":85,"programNumber":48},{"time":141110.9700000009,"duration":166.66649999999208,"noteNumber":69,"velocity":85,"programNumber":48},{"time":141333.19200000088,"duration":166.66649999999208,"noteNumber":71,"velocity":85,"programNumber":48},{"time":141555.41400000086,"duration":166.66649999999208,"noteNumber":69,"velocity":85,"programNumber":48},{"time":141777.63600000084,"duration":166.66649999999208,"noteNumber":68,"velocity":85,"programNumber":48},{"time":141999.85800000082,"duration":166.66649999999208,"noteNumber":71,"velocity":85,"programNumber":48},{"time":142222.0800000008,"duration":166.66649999999208,"noteNumber":69,"velocity":85,"programNumber":48},{"time":142444.30200000078,"duration":166.66649999999208,"noteNumber":69,"velocity":85,"programNumber":48},{"time":142666.52400000076,"duration":166.66649999999208,"noteNumber":69,"velocity":85,"programNumber":48},{"time":142888.74600000074,"duration":166.66649999999208,"noteNumber":69,"velocity":85,"programNumber":48},{"time":143110.96800000072,"duration":166.66649999999208,"noteNumber":69,"velocity":85,"programNumber":48},{"time":143333.1900000007,"duration":166.66649999999208,"noteNumber":69,"velocity":85,"programNumber":48},{"time":143555.41200000068,"duration":166.66649999999208,"noteNumber":69,"velocity":85,"programNumber":48},{"time":143777.63400000066,"duration":166.66649999999208,"noteNumber":69,"velocity":85,"programNumber":48},{"time":143999.85600000064,"duration":166.66649999999208,"noteNumber":69,"velocity":85,"programNumber":48},{"time":144222.07800000062,"duration":166.66649999999208,"noteNumber":57,"velocity":85,"programNumber":48},{"time":144444.3000000006,"duration":166.66649999999208,"noteNumber":57,"velocity":85,"programNumber":48},{"time":144666.52200000058,"duration":166.66649999999208,"noteNumber":57,"velocity":85,"programNumber":48},{"time":144888.74400000056,"duration":444.4439999999886,"noteNumber":57,"velocity":85,"programNumber":48},{"time":147110.96400000056,"duration":222.22200000000885,"noteNumber":66,"velocity":55,"programNumber":48},{"time":147555.40800000058,"duration":222.22200000000885,"noteNumber":59,"velocity":55,"programNumber":48},{"time":147999.8520000006,"duration":222.22200000000885,"noteNumber":67,"velocity":55,"programNumber":48},{"time":148444.2960000006,"duration":222.22200000000885,"noteNumber":64,"velocity":55,"programNumber":48},{"time":148888.74000000063,"duration":222.22200000000885,"noteNumber":61,"velocity":55,"programNumber":48},{"time":149777.62800000064,"duration":444.4439999999886,"noteNumber":64,"velocity":55,"programNumber":48},{"time":150222.07200000063,"duration":222.22200000000885,"noteNumber":62,"velocity":55,"programNumber":48},{"time":150666.51600000064,"duration":222.22200000000885,"noteNumber":64,"velocity":55,"programNumber":48},{"time":151110.96000000066,"duration":888.8880000000063,"noteNumber":62,"velocity":55,"programNumber":48},{"time":151999.84800000067,"duration":444.4439999999886,"noteNumber":61,"velocity":55,"programNumber":48},{"time":153333.18000000066,"duration":444.4439999999886,"noteNumber":61,"velocity":55,"programNumber":48},{"time":153777.62400000065,"duration":222.22200000000885,"noteNumber":62,"velocity":55,"programNumber":48},{"time":154222.06800000067,"duration":222.22200000000885,"noteNumber":66,"velocity":55,"programNumber":48},{"time":154666.5120000007,"duration":222.22200000000885,"noteNumber":59,"velocity":55,"programNumber":48},{"time":155110.9560000007,"duration":222.22200000000885,"noteNumber":55,"velocity":55,"programNumber":48},{"time":155555.40000000072,"duration":444.4439999999886,"noteNumber":52,"velocity":55,"programNumber":48},{"time":156222.06600000072,"duration":166.66649999999208,"noteNumber":64,"velocity":55,"programNumber":48},{"time":156444.2880000007,"duration":222.22200000000885,"noteNumber":64,"velocity":55,"programNumber":48},{"time":156666.5100000007,"duration":222.22200000000885,"noteNumber":62,"velocity":55,"programNumber":48},{"time":158222.0640000007,"duration":166.66649999999208,"noteNumber":62,"velocity":55,"programNumber":48},{"time":158444.2860000007,"duration":166.66649999999208,"noteNumber":62,"velocity":55,"programNumber":48},{"time":158666.50800000067,"duration":166.66649999999208,"noteNumber":64,"velocity":55,"programNumber":48},{"time":158888.73000000065,"duration":166.66649999999208,"noteNumber":64,"velocity":55,"programNumber":48},{"time":159110.95200000063,"duration":166.66649999999208,"noteNumber":66,"velocity":55,"programNumber":48},{"time":159333.1740000006,"duration":166.66649999999208,"noteNumber":66,"velocity":55,"programNumber":48},{"time":159555.3960000006,"duration":166.66649999999208,"noteNumber":62,"velocity":55,"programNumber":48},{"time":159777.61800000057,"duration":166.66649999999208,"noteNumber":62,"velocity":55,"programNumber":48},{"time":159999.84000000055,"duration":166.66649999999208,"noteNumber":61,"velocity":55,"programNumber":48},{"time":160222.06200000053,"duration":166.66649999999208,"noteNumber":61,"velocity":55,"programNumber":48},{"time":160444.2840000005,"duration":166.66649999999208,"noteNumber":62,"velocity":55,"programNumber":48},{"time":160666.5060000005,"duration":166.66649999999208,"noteNumber":62,"velocity":55,"programNumber":48},{"time":160888.72800000047,"duration":166.66649999999208,"noteNumber":64,"velocity":55,"programNumber":48},{"time":161110.95000000045,"duration":166.66649999999208,"noteNumber":64,"velocity":55,"programNumber":48},{"time":161333.17200000043,"duration":166.66649999999208,"noteNumber":61,"velocity":55,"programNumber":48},{"time":161555.3940000004,"duration":166.66649999999208,"noteNumber":61,"velocity":55,"programNumber":48},{"time":161777.6160000004,"duration":166.66649999999208,"noteNumber":62,"velocity":55,"programNumber":48},{"time":161999.83800000037,"duration":166.66649999999208,"noteNumber":62,"velocity":55,"programNumber":48},{"time":162222.06000000035,"duration":166.66649999999208,"noteNumber":64,"velocity":55,"programNumber":48},{"time":162444.28200000033,"duration":166.66649999999208,"noteNumber":64,"velocity":55,"programNumber":48},{"time":162666.5040000003,"duration":166.66649999999208,"noteNumber":66,"velocity":55,"programNumber":48},{"time":162888.7260000003,"duration":166.66649999999208,"noteNumber":66,"velocity":55,"programNumber":48},{"time":163110.94800000027,"duration":166.66649999999208,"noteNumber":62,"velocity":55,"programNumber":48},{"time":163333.17000000025,"duration":166.66649999999208,"noteNumber":62,"velocity":55,"programNumber":48},{"time":163555.39200000023,"duration":166.66649999999208,"noteNumber":61,"velocity":55,"programNumber":48},{"time":163777.6140000002,"duration":166.66649999999208,"noteNumber":61,"velocity":55,"programNumber":48},{"time":163999.83600000018,"duration":166.66649999999208,"noteNumber":62,"velocity":55,"programNumber":48},{"time":164222.05800000016,"duration":166.66649999999208,"noteNumber":62,"velocity":55,"programNumber":48},{"time":164444.28000000014,"duration":166.66649999999208,"noteNumber":64,"velocity":55,"programNumber":48},{"time":164666.50200000012,"duration":166.66649999999208,"noteNumber":64,"velocity":55,"programNumber":48},{"time":164888.7240000001,"duration":166.66649999999208,"noteNumber":61,"velocity":55,"programNumber":48},{"time":165110.94600000008,"duration":166.66649999999208,"noteNumber":61,"velocity":55,"programNumber":48},{"time":165333.16800000006,"duration":166.66649999999208,"noteNumber":62,"velocity":55,"programNumber":48},{"time":165555.39000000004,"duration":166.66649999999208,"noteNumber":62,"velocity":55,"programNumber":48},{"time":165777.61200000002,"duration":166.66649999999208,"noteNumber":66,"velocity":55,"programNumber":48},{"time":165999.834,"duration":166.66649999999208,"noteNumber":64,"velocity":55,"programNumber":48},{"time":166222.05599999998,"duration":166.66649999999208,"noteNumber":63,"velocity":55,"programNumber":48},{"time":166444.27799999996,"duration":166.66649999999208,"noteNumber":59,"velocity":55,"programNumber":48},{"time":166666.49999999994,"duration":166.66649999999208,"noteNumber":61,"velocity":55,"programNumber":48},{"time":166888.72199999992,"duration":166.66649999999208,"noteNumber":62,"velocity":55,"programNumber":48},{"time":167110.9439999999,"duration":166.66649999999208,"noteNumber":64,"velocity":85,"programNumber":48},{"time":167333.16599999988,"duration":166.66649999999208,"noteNumber":67,"velocity":85,"programNumber":48},{"time":167555.38799999986,"duration":166.66649999999208,"noteNumber":64,"velocity":85,"programNumber":48},{"time":167777.60999999984,"duration":166.66649999999208,"noteNumber":62,"velocity":85,"programNumber":48},{"time":167999.83199999982,"duration":166.66649999999208,"noteNumber":61,"velocity":85,"programNumber":48},{"time":168222.0539999998,"duration":166.66649999999208,"noteNumber":57,"velocity":55,"programNumber":48},{"time":168444.27599999978,"duration":166.66649999999208,"noteNumber":59,"velocity":85,"programNumber":48},{"time":168666.49799999976,"duration":166.66649999999208,"noteNumber":61,"velocity":85,"programNumber":48},{"time":168888.71999999974,"duration":166.66649999999208,"noteNumber":62,"velocity":85,"programNumber":48},{"time":169110.94199999972,"duration":166.66649999999208,"noteNumber":74,"velocity":85,"programNumber":48},{"time":169333.1639999997,"duration":166.66649999999208,"noteNumber":74,"velocity":85,"programNumber":48},{"time":169555.38599999968,"duration":166.66649999999208,"noteNumber":74,"velocity":85,"programNumber":48},{"time":169777.60799999966,"duration":166.66649999999208,"noteNumber":74,"velocity":85,"programNumber":48},{"time":169999.82999999964,"duration":166.66649999999208,"noteNumber":74,"velocity":85,"programNumber":48},{"time":170222.05199999962,"duration":166.66649999999208,"noteNumber":74,"velocity":85,"programNumber":48},{"time":170444.2739999996,"duration":166.66649999999208,"noteNumber":74,"velocity":85,"programNumber":48},{"time":170666.49599999958,"duration":222.22200000000885,"noteNumber":74,"velocity":85,"programNumber":48},{"time":170888.7179999996,"duration":166.66649999999208,"noteNumber":69,"velocity":85,"programNumber":48},{"time":171110.93999999957,"duration":111.11100000000442,"noteNumber":69,"velocity":85,"programNumber":48},{"time":171333.16199999957,"duration":111.11100000000442,"noteNumber":69,"velocity":85,"programNumber":48},{"time":171555.38399999958,"duration":166.66649999999208,"noteNumber":69,"velocity":85,"programNumber":48},{"time":171777.60599999956,"duration":166.66649999999208,"noteNumber":69,"velocity":85,"programNumber":48},{"time":171999.82799999954,"duration":166.66649999999208,"noteNumber":69,"velocity":85,"programNumber":48},{"time":172222.04999999952,"duration":166.66649999999208,"noteNumber":67,"velocity":85,"programNumber":48},{"time":172444.2719999995,"duration":166.66649999999208,"noteNumber":62,"velocity":85,"programNumber":48},{"time":172666.49399999948,"duration":166.66649999999208,"noteNumber":62,"velocity":53,"programNumber":48},{"time":172888.71599999946,"duration":166.66649999999208,"noteNumber":64,"velocity":53,"programNumber":48},{"time":173110.93799999944,"duration":166.66649999999208,"noteNumber":64,"velocity":53,"programNumber":48},{"time":173333.15999999942,"duration":166.66649999999208,"noteNumber":66,"velocity":53,"programNumber":48},{"time":173555.3819999994,"duration":166.66649999999208,"noteNumber":66,"velocity":53,"programNumber":48},{"time":173777.60399999938,"duration":166.66649999999208,"noteNumber":62,"velocity":53,"programNumber":48},{"time":173999.82599999936,"duration":166.66649999999208,"noteNumber":62,"velocity":53,"programNumber":48},{"time":174222.04799999934,"duration":166.66649999999208,"noteNumber":61,"velocity":55,"programNumber":48},{"time":174444.26999999932,"duration":166.66649999999208,"noteNumber":61,"velocity":55,"programNumber":48},{"time":174666.4919999993,"duration":166.66649999999208,"noteNumber":62,"velocity":55,"programNumber":48},{"time":174888.71399999928,"duration":166.66649999999208,"noteNumber":62,"velocity":55,"programNumber":48},{"time":175110.93599999926,"duration":166.66649999999208,"noteNumber":64,"velocity":55,"programNumber":48},{"time":175333.15799999924,"duration":166.66649999999208,"noteNumber":64,"velocity":55,"programNumber":48},{"time":175555.37999999922,"duration":166.66649999999208,"noteNumber":61,"velocity":55,"programNumber":48},{"time":175777.6019999992,"duration":166.66649999999208,"noteNumber":61,"velocity":55,"programNumber":48},{"time":175999.82399999918,"duration":166.66649999999208,"noteNumber":62,"velocity":55,"programNumber":48},{"time":176222.04599999916,"duration":166.66649999999208,"noteNumber":62,"velocity":55,"programNumber":48},{"time":176444.26799999914,"duration":166.66649999999208,"noteNumber":64,"velocity":55,"programNumber":48},{"time":176666.48999999912,"duration":166.66649999999208,"noteNumber":64,"velocity":55,"programNumber":48},{"time":176888.7119999991,"duration":166.66649999999208,"noteNumber":66,"velocity":55,"programNumber":48},{"time":177110.93399999908,"duration":166.66649999999208,"noteNumber":66,"velocity":55,"programNumber":48},{"time":177333.15599999906,"duration":166.66649999999208,"noteNumber":62,"velocity":55,"programNumber":48},{"time":177555.37799999904,"duration":166.66649999999208,"noteNumber":62,"velocity":55,"programNumber":48},{"time":177777.59999999902,"duration":166.66649999999208,"noteNumber":61,"velocity":55,"programNumber":48},{"time":177999.821999999,"duration":166.66649999999208,"noteNumber":61,"velocity":55,"programNumber":48},{"time":178222.04399999898,"duration":166.66649999999208,"noteNumber":62,"velocity":55,"programNumber":48},{"time":178444.26599999896,"duration":166.66649999999208,"noteNumber":62,"velocity":55,"programNumber":48},{"time":178666.48799999894,"duration":166.66649999999208,"noteNumber":64,"velocity":55,"programNumber":48},{"time":178888.70999999892,"duration":166.66649999999208,"noteNumber":64,"velocity":55,"programNumber":48},{"time":179110.9319999989,"duration":166.66649999999208,"noteNumber":61,"velocity":55,"programNumber":48},{"time":179333.15399999887,"duration":166.66649999999208,"noteNumber":61,"velocity":55,"programNumber":48},{"time":179555.37599999885,"duration":166.66649999999208,"noteNumber":62,"velocity":55,"programNumber":48},{"time":179777.59799999883,"duration":166.66649999999208,"noteNumber":62,"velocity":85,"programNumber":48},{"time":179999.8199999988,"duration":166.66649999999208,"noteNumber":66,"velocity":85,"programNumber":48},{"time":180222.0419999988,"duration":166.66649999999208,"noteNumber":64,"velocity":85,"programNumber":48},{"time":180444.26399999877,"duration":166.66649999999208,"noteNumber":63,"velocity":85,"programNumber":48},{"time":180666.48599999875,"duration":166.66649999999208,"noteNumber":59,"velocity":85,"programNumber":48},{"time":180888.70799999873,"duration":166.66649999999208,"noteNumber":61,"velocity":85,"programNumber":48},{"time":181110.9299999987,"duration":166.66649999999208,"noteNumber":62,"velocity":85,"programNumber":48},{"time":181333.1519999987,"duration":166.66649999999208,"noteNumber":64,"velocity":85,"programNumber":48},{"time":181555.37399999867,"duration":166.66649999999208,"noteNumber":67,"velocity":85,"programNumber":48},{"time":181777.59599999865,"duration":166.66649999999208,"noteNumber":64,"velocity":85,"programNumber":48},{"time":181999.81799999863,"duration":166.66649999999208,"noteNumber":62,"velocity":85,"programNumber":48},{"time":182222.0399999986,"duration":166.66649999999208,"noteNumber":61,"velocity":85,"programNumber":48},{"time":182444.2619999986,"duration":166.66649999999208,"noteNumber":57,"velocity":85,"programNumber":48},{"time":182666.48399999857,"duration":166.66649999999208,"noteNumber":59,"velocity":85,"programNumber":48},{"time":182888.70599999855,"duration":166.66649999999208,"noteNumber":61,"velocity":85,"programNumber":48},{"time":183110.92799999853,"duration":166.66649999999208,"noteNumber":62,"velocity":85,"programNumber":48},{"time":183333.1499999985,"duration":166.66649999999208,"noteNumber":74,"velocity":85,"programNumber":48},{"time":183555.3719999985,"duration":166.66649999999208,"noteNumber":74,"velocity":85,"programNumber":48},{"time":183777.59399999847,"duration":166.66649999999208,"noteNumber":74,"velocity":85,"programNumber":48},{"time":183999.81599999845,"duration":166.66649999999208,"noteNumber":74,"velocity":85,"programNumber":48},{"time":184222.03799999843,"duration":166.66649999999208,"noteNumber":74,"velocity":85,"programNumber":48},{"time":184444.2599999984,"duration":166.66649999999208,"noteNumber":74,"velocity":85,"programNumber":48},{"time":184666.4819999984,"duration":166.66649999999208,"noteNumber":74,"velocity":85,"programNumber":48},{"time":184888.70399999837,"duration":222.22200000000885,"noteNumber":74,"velocity":85,"programNumber":48},{"time":185110.92599999838,"duration":166.66649999999208,"noteNumber":69,"velocity":85,"programNumber":48},{"time":185333.14799999836,"duration":111.11100000000442,"noteNumber":69,"velocity":85,"programNumber":48},{"time":185555.36999999837,"duration":111.11100000000442,"noteNumber":69,"velocity":85,"programNumber":48},{"time":185777.59199999837,"duration":166.66649999999208,"noteNumber":69,"velocity":85,"programNumber":48},{"time":185999.81399999835,"duration":166.66649999999208,"noteNumber":69,"velocity":85,"programNumber":48},{"time":186222.03599999833,"duration":166.66649999999208,"noteNumber":69,"velocity":85,"programNumber":48},{"time":186444.2579999983,"duration":166.66649999999208,"noteNumber":67,"velocity":85,"programNumber":48},{"time":186666.4799999983,"duration":166.66649999999208,"noteNumber":66,"velocity":85,"programNumber":48},{"time":186888.70199999827,"duration":166.66649999999208,"noteNumber":57,"velocity":85,"programNumber":48},{"time":187110.92399999825,"duration":166.66649999999208,"noteNumber":59,"velocity":85,"programNumber":48},{"time":187333.14599999823,"duration":166.66649999999208,"noteNumber":61,"velocity":85,"programNumber":48},{"time":187555.3679999982,"duration":166.66649999999208,"noteNumber":62,"velocity":85,"programNumber":48},{"time":187777.5899999982,"duration":166.66649999999208,"noteNumber":62,"velocity":85,"programNumber":48},{"time":187999.81199999817,"duration":166.66649999999208,"noteNumber":64,"velocity":85,"programNumber":48},{"time":188222.03399999815,"duration":166.66649999999208,"noteNumber":64,"velocity":85,"programNumber":48},{"time":188444.25599999813,"duration":166.66649999999208,"noteNumber":66,"velocity":85,"programNumber":48},{"time":188666.4779999981,"duration":166.66649999999208,"noteNumber":61,"velocity":85,"programNumber":48},{"time":188888.6999999981,"duration":166.66649999999208,"noteNumber":62,"velocity":85,"programNumber":48},{"time":189110.92199999807,"duration":166.66649999999208,"noteNumber":64,"velocity":85,"programNumber":48},{"time":189333.14399999805,"duration":166.66649999999208,"noteNumber":66,"velocity":85,"programNumber":48},{"time":189555.36599999803,"duration":166.66649999999208,"noteNumber":66,"velocity":85,"programNumber":48},{"time":189777.587999998,"duration":166.66649999999208,"noteNumber":67,"velocity":85,"programNumber":48},{"time":189999.809999998,"duration":166.66649999999208,"noteNumber":67,"velocity":85,"programNumber":48},{"time":190222.03199999797,"duration":166.66649999999208,"noteNumber":69,"velocity":85,"programNumber":48},{"time":190444.25399999795,"duration":166.66649999999208,"noteNumber":69,"velocity":85,"programNumber":48},{"time":190666.47599999793,"duration":166.66649999999208,"noteNumber":70,"velocity":85,"programNumber":48},{"time":190888.6979999979,"duration":166.66649999999208,"noteNumber":70,"velocity":85,"programNumber":48},{"time":191110.9199999979,"duration":444.4439999999886,"noteNumber":71,"velocity":85,"programNumber":48},{"time":191999.80799999787,"duration":1333.3319999999949,"noteNumber":64,"velocity":55,"programNumber":48},{"time":193333.13999999786,"duration":222.22200000000885,"noteNumber":62,"velocity":55,"programNumber":48},{"time":193555.36199999787,"duration":222.22200000000885,"noteNumber":61,"velocity":55,"programNumber":48},{"time":193777.58399999788,"duration":222.22200000000885,"noteNumber":62,"velocity":55,"programNumber":48},{"time":194222.0279999979,"duration":222.22200000000885,"noteNumber":62,"velocity":55,"programNumber":48},{"time":194666.4719999979,"duration":222.22200000000885,"noteNumber":62,"velocity":55,"programNumber":48},{"time":195555.35999999792,"duration":444.4439999999886,"noteNumber":62,"velocity":89,"programNumber":48},{"time":196222.02599999792,"duration":166.66649999999208,"noteNumber":57,"velocity":89,"programNumber":48},{"time":196444.2479999979,"duration":444.4439999999886,"noteNumber":62,"velocity":89,"programNumber":48},{"time":197110.9139999979,"duration":166.66649999999208,"noteNumber":57,"velocity":89,"programNumber":48},{"time":197333.13599999787,"duration":166.66649999999208,"noteNumber":62,"velocity":89,"programNumber":48},{"time":197555.35799999785,"duration":166.66649999999208,"noteNumber":57,"velocity":89,"programNumber":48},{"time":197777.57999999783,"duration":166.66649999999208,"noteNumber":62,"velocity":89,"programNumber":48},{"time":197999.8019999978,"duration":166.66649999999208,"noteNumber":66,"velocity":89,"programNumber":48},{"time":198222.0239999978,"duration":444.4439999999886,"noteNumber":69,"velocity":89,"programNumber":48},{"time":199110.91199999777,"duration":444.4439999999886,"noteNumber":69,"velocity":89,"programNumber":48},{"time":199777.57799999777,"duration":166.66649999999208,"noteNumber":66,"velocity":89,"programNumber":48},{"time":199999.79999999775,"duration":444.4439999999886,"noteNumber":69,"velocity":89,"programNumber":48},{"time":200666.46599999774,"duration":166.66649999999208,"noteNumber":66,"velocity":89,"programNumber":48},{"time":200888.68799999772,"duration":166.66649999999208,"noteNumber":69,"velocity":89,"programNumber":48},{"time":201110.9099999977,"duration":166.66649999999208,"noteNumber":66,"velocity":89,"programNumber":48},{"time":201333.13199999768,"duration":166.66649999999208,"noteNumber":63,"velocity":89,"programNumber":48},{"time":201555.35399999766,"duration":166.66649999999208,"noteNumber":66,"velocity":89,"programNumber":48},{"time":201777.57599999764,"duration":444.4439999999886,"noteNumber":59,"velocity":89,"programNumber":48},{"time":202666.46399999762,"duration":166.66649999999208,"noteNumber":60,"velocity":55,"programNumber":48},{"time":202888.6859999976,"duration":166.66649999999208,"noteNumber":60,"velocity":55,"programNumber":48},{"time":203110.90799999758,"duration":166.66649999999208,"noteNumber":62,"velocity":55,"programNumber":48},{"time":203333.12999999756,"duration":166.66649999999208,"noteNumber":62,"velocity":55,"programNumber":48},{"time":203555.35199999754,"duration":166.66649999999208,"noteNumber":64,"velocity":55,"programNumber":48},{"time":203777.57399999752,"duration":166.66649999999208,"noteNumber":64,"velocity":55,"programNumber":48},{"time":203999.7959999975,"duration":166.66649999999208,"noteNumber":60,"velocity":55,"programNumber":48},{"time":204222.01799999748,"duration":166.66649999999208,"noteNumber":60,"velocity":55,"programNumber":48},{"time":204444.23999999746,"duration":166.66649999999208,"noteNumber":59,"velocity":55,"programNumber":48},{"time":204666.46199999744,"duration":166.66649999999208,"noteNumber":59,"velocity":55,"programNumber":48},{"time":204888.68399999742,"duration":166.66649999999208,"noteNumber":60,"velocity":55,"programNumber":48},{"time":205110.9059999974,"duration":166.66649999999208,"noteNumber":60,"velocity":55,"programNumber":48},{"time":205333.12799999738,"duration":166.66649999999208,"noteNumber":62,"velocity":55,"programNumber":48},{"time":205555.34999999736,"duration":166.66649999999208,"noteNumber":62,"velocity":55,"programNumber":48},{"time":205777.57199999734,"duration":166.66649999999208,"noteNumber":59,"velocity":55,"programNumber":48},{"time":205999.79399999732,"duration":166.66649999999208,"noteNumber":59,"velocity":55,"programNumber":48},{"time":206222.0159999973,"duration":166.66649999999208,"noteNumber":60,"velocity":55,"programNumber":48},{"time":206444.23799999728,"duration":166.66649999999208,"noteNumber":60,"velocity":55,"programNumber":48},{"time":206666.45999999726,"duration":166.66649999999208,"noteNumber":62,"velocity":55,"programNumber":48},{"time":206888.68199999724,"duration":166.66649999999208,"noteNumber":62,"velocity":55,"programNumber":48},{"time":207110.90399999722,"duration":166.66649999999208,"noteNumber":64,"velocity":55,"programNumber":48},{"time":207333.1259999972,"duration":166.66649999999208,"noteNumber":64,"velocity":55,"programNumber":48},{"time":207555.34799999718,"duration":166.66649999999208,"noteNumber":60,"velocity":55,"programNumber":48},{"time":207777.56999999715,"duration":166.66649999999208,"noteNumber":60,"velocity":55,"programNumber":48},{"time":207999.79199999713,"duration":166.66649999999208,"noteNumber":59,"velocity":55,"programNumber":48},{"time":208222.0139999971,"duration":166.66649999999208,"noteNumber":59,"velocity":55,"programNumber":48},{"time":208444.2359999971,"duration":166.66649999999208,"noteNumber":60,"velocity":55,"programNumber":48},{"time":208666.45799999707,"duration":166.66649999999208,"noteNumber":60,"velocity":55,"programNumber":48},{"time":208888.67999999705,"duration":166.66649999999208,"noteNumber":62,"velocity":55,"programNumber":48},{"time":209110.90199999703,"duration":166.66649999999208,"noteNumber":62,"velocity":55,"programNumber":48},{"time":209333.123999997,"duration":166.66649999999208,"noteNumber":59,"velocity":55,"programNumber":48},{"time":209555.345999997,"duration":166.66649999999208,"noteNumber":59,"velocity":55,"programNumber":48},{"time":209777.56799999697,"duration":166.66649999999208,"noteNumber":60,"velocity":55,"programNumber":48},{"time":209999.78999999695,"duration":166.66649999999208,"noteNumber":60,"velocity":55,"programNumber":48},{"time":210222.01199999693,"duration":166.66649999999208,"noteNumber":62,"velocity":55,"programNumber":48},{"time":210444.2339999969,"duration":166.66649999999208,"noteNumber":62,"velocity":55,"programNumber":48},{"time":210666.4559999969,"duration":166.66649999999208,"noteNumber":64,"velocity":55,"programNumber":48},{"time":210888.67799999687,"duration":166.66649999999208,"noteNumber":64,"velocity":55,"programNumber":48},{"time":211110.89999999685,"duration":166.66649999999208,"noteNumber":60,"velocity":55,"programNumber":48},{"time":211333.12199999683,"duration":166.66649999999208,"noteNumber":60,"velocity":55,"programNumber":48},{"time":211555.3439999968,"duration":166.66649999999208,"noteNumber":59,"velocity":55,"programNumber":48},{"time":211777.5659999968,"duration":166.66649999999208,"noteNumber":59,"velocity":55,"programNumber":48},{"time":211999.78799999677,"duration":166.66649999999208,"noteNumber":60,"velocity":55,"programNumber":48},{"time":212222.00999999675,"duration":166.66649999999208,"noteNumber":60,"velocity":55,"programNumber":48},{"time":212444.23199999673,"duration":166.66649999999208,"noteNumber":62,"velocity":55,"programNumber":48},{"time":212666.4539999967,"duration":166.66649999999208,"noteNumber":62,"velocity":55,"programNumber":48},{"time":212888.6759999967,"duration":166.66649999999208,"noteNumber":59,"velocity":55,"programNumber":48},{"time":213110.89799999667,"duration":166.66649999999208,"noteNumber":59,"velocity":55,"programNumber":48},{"time":213333.11999999665,"duration":166.66649999999208,"noteNumber":57,"velocity":55,"programNumber":48},{"time":213555.34199999663,"duration":166.66649999999208,"noteNumber":57,"velocity":55,"programNumber":48},{"time":213777.5639999966,"duration":166.66649999999208,"noteNumber":59,"velocity":55,"programNumber":48},{"time":213999.7859999966,"duration":166.66649999999208,"noteNumber":59,"velocity":55,"programNumber":48},{"time":214222.00799999657,"duration":166.66649999999208,"noteNumber":60,"velocity":55,"programNumber":48},{"time":214444.22999999655,"duration":166.66649999999208,"noteNumber":60,"velocity":55,"programNumber":48},{"time":214666.45199999653,"duration":166.66649999999208,"noteNumber":57,"velocity":55,"programNumber":48},{"time":214888.6739999965,"duration":166.66649999999208,"noteNumber":57,"velocity":55,"programNumber":48},{"time":215110.8959999965,"duration":166.66649999999208,"noteNumber":57,"velocity":55,"programNumber":48},{"time":215333.11799999647,"duration":166.66649999999208,"noteNumber":57,"velocity":55,"programNumber":48},{"time":215555.33999999645,"duration":166.66649999999208,"noteNumber":58,"velocity":55,"programNumber":48},{"time":215777.56199999643,"duration":166.66649999999208,"noteNumber":58,"velocity":55,"programNumber":48},{"time":215999.7839999964,"duration":166.66649999999208,"noteNumber":60,"velocity":55,"programNumber":48},{"time":216222.00599999639,"duration":166.66649999999208,"noteNumber":60,"velocity":55,"programNumber":48},{"time":216444.22799999636,"duration":166.66649999999208,"noteNumber":57,"velocity":55,"programNumber":48},{"time":216666.44999999634,"duration":166.66649999999208,"noteNumber":57,"velocity":55,"programNumber":48},{"time":216888.67199999632,"duration":166.66649999999208,"noteNumber":55,"velocity":55,"programNumber":48},{"time":217110.8939999963,"duration":166.66649999999208,"noteNumber":55,"velocity":55,"programNumber":48},{"time":217333.11599999628,"duration":166.66649999999208,"noteNumber":54,"velocity":55,"programNumber":48},{"time":217555.33799999626,"duration":166.66649999999208,"noteNumber":54,"velocity":55,"programNumber":48},{"time":217777.55999999624,"duration":166.66649999999208,"noteNumber":55,"velocity":55,"programNumber":48},{"time":217999.78199999622,"duration":166.66649999999208,"noteNumber":55,"velocity":55,"programNumber":48},{"time":218222.0039999962,"duration":166.66649999999208,"noteNumber":66,"velocity":55,"programNumber":48},{"time":218444.22599999618,"duration":166.66649999999208,"noteNumber":66,"velocity":55,"programNumber":48},{"time":218666.44799999616,"duration":166.66649999999208,"noteNumber":67,"velocity":55,"programNumber":48},{"time":218888.66999999614,"duration":166.66649999999208,"noteNumber":67,"velocity":55,"programNumber":48},{"time":219110.89199999612,"duration":166.66649999999208,"noteNumber":66,"velocity":55,"programNumber":48},{"time":219333.1139999961,"duration":166.66649999999208,"noteNumber":66,"velocity":55,"programNumber":48},{"time":219555.33599999608,"duration":166.66649999999208,"noteNumber":67,"velocity":55,"programNumber":48},{"time":219777.55799999606,"duration":166.66649999999208,"noteNumber":55,"velocity":55,"programNumber":48},{"time":219999.77999999604,"duration":166.66649999999208,"noteNumber":53,"velocity":55,"programNumber":48},{"time":220222.00199999602,"duration":166.66649999999208,"noteNumber":55,"velocity":55,"programNumber":48},{"time":220481.260999996,"duration":444.4439999999886,"noteNumber":57,"velocity":53,"programNumber":48},{"time":221147.926999996,"duration":222.22200000000885,"noteNumber":50,"velocity":91,"programNumber":48},{"time":221370.14899999602,"duration":222.22200000000885,"noteNumber":52,"velocity":91,"programNumber":48},{"time":221592.37099999603,"duration":222.22200000000885,"noteNumber":54,"velocity":91,"programNumber":48},{"time":221814.59299999604,"duration":222.22200000000885,"noteNumber":55,"velocity":91,"programNumber":48},{"time":222036.81499999604,"duration":222.22200000000885,"noteNumber":57,"velocity":91,"programNumber":48},{"time":222259.03699999605,"duration":222.22200000000885,"noteNumber":60,"velocity":91,"programNumber":48},{"time":222481.25899999606,"duration":222.22200000000885,"noteNumber":58,"velocity":91,"programNumber":48},{"time":222925.70299999608,"duration":222.22200000000885,"noteNumber":54,"velocity":91,"programNumber":48},{"time":223147.9249999961,"duration":222.22200000000885,"noteNumber":55,"velocity":91,"programNumber":48},{"time":223370.1469999961,"duration":222.22200000000885,"noteNumber":57,"velocity":91,"programNumber":48},{"time":223592.3689999961,"duration":222.22200000000885,"noteNumber":58,"velocity":91,"programNumber":48},{"time":223814.59099999611,"duration":222.22200000000885,"noteNumber":61,"velocity":91,"programNumber":48},{"time":224036.81299999612,"duration":222.22200000000885,"noteNumber":64,"velocity":53,"programNumber":48},{"time":224259.03499999613,"duration":222.22200000000885,"noteNumber":62,"velocity":53,"programNumber":48},{"time":227555.32799999614,"duration":111.11100000000442,"noteNumber":71,"velocity":68,"programNumber":48},{"time":227777.54999999615,"duration":111.11100000000442,"noteNumber":71,"velocity":68,"programNumber":48},{"time":227999.77199999616,"duration":222.22200000000885,"noteNumber":71,"velocity":68,"programNumber":48},{"time":228221.99399999616,"duration":166.66649999999208,"noteNumber":72,"velocity":68,"programNumber":48},{"time":228444.21599999614,"duration":111.11100000000442,"noteNumber":69,"velocity":68,"programNumber":48},{"time":228666.43799999615,"duration":111.11100000000442,"noteNumber":69,"velocity":68,"programNumber":48},{"time":228888.65999999616,"duration":222.22200000000885,"noteNumber":69,"velocity":68,"programNumber":48},{"time":229110.88199999617,"duration":166.66649999999208,"noteNumber":71,"velocity":68,"programNumber":48},{"time":229333.10399999615,"duration":111.11100000000442,"noteNumber":67,"velocity":68,"programNumber":48},{"time":229555.32599999616,"duration":111.11100000000442,"noteNumber":67,"velocity":68,"programNumber":48},{"time":229777.54799999617,"duration":222.22200000000885,"noteNumber":67,"velocity":68,"programNumber":48},{"time":229999.76999999618,"duration":166.66649999999208,"noteNumber":71,"velocity":68,"programNumber":48},{"time":230221.99199999616,"duration":222.22200000000885,"noteNumber":71,"velocity":68,"programNumber":48},{"time":230444.21399999617,"duration":166.66649999999208,"noteNumber":69,"velocity":68,"programNumber":48},{"time":230666.43599999615,"duration":111.11100000000442,"noteNumber":67,"velocity":68,"programNumber":48},{"time":230888.65799999615,"duration":111.11100000000442,"noteNumber":62,"velocity":68,"programNumber":48},{"time":231129.39849999617,"duration":444.4439999999886,"noteNumber":59,"velocity":93,"programNumber":48},{"time":231796.06449999617,"duration":111.11100000000442,"noteNumber":62,"velocity":92,"programNumber":48},{"time":232018.28649999617,"duration":444.4439999999886,"noteNumber":67,"velocity":92,"programNumber":48},{"time":232684.95249999617,"duration":111.11100000000442,"noteNumber":62,"velocity":91,"programNumber":48},{"time":232907.17449999618,"duration":111.11100000000442,"noteNumber":67,"velocity":90,"programNumber":48},{"time":233129.3964999962,"duration":111.11100000000442,"noteNumber":62,"velocity":90,"programNumber":48},{"time":233351.6184999962,"duration":111.11100000000442,"noteNumber":67,"velocity":90,"programNumber":48},{"time":233573.8404999962,"duration":111.11100000000442,"noteNumber":71,"velocity":90,"programNumber":48},{"time":233796.06249999622,"duration":444.4439999999886,"noteNumber":74,"velocity":89,"programNumber":48},{"time":234684.9504999962,"duration":444.4439999999886,"noteNumber":72,"velocity":88,"programNumber":48},{"time":235351.6164999962,"duration":111.11100000000442,"noteNumber":69,"velocity":87,"programNumber":48},{"time":235573.8384999962,"duration":444.4439999999886,"noteNumber":72,"velocity":86,"programNumber":48},{"time":236240.5044999962,"duration":111.11100000000442,"noteNumber":69,"velocity":85,"programNumber":48},{"time":236462.7264999962,"duration":111.11100000000442,"noteNumber":72,"velocity":85,"programNumber":48},{"time":236684.94849999622,"duration":111.11100000000442,"noteNumber":69,"velocity":85,"programNumber":48},{"time":236907.17049999622,"duration":111.11100000000442,"noteNumber":66,"velocity":85,"programNumber":48},{"time":237129.39249999623,"duration":111.11100000000442,"noteNumber":69,"velocity":85,"programNumber":48},{"time":237351.61449999624,"duration":444.4439999999886,"noteNumber":62,"velocity":85,"programNumber":48},{"time":238221.98399999624,"duration":166.66649999999208,"noteNumber":67,"velocity":85,"programNumber":48},{"time":238444.20599999622,"duration":166.66649999999208,"noteNumber":67,"velocity":85,"programNumber":48},{"time":238666.4279999962,"duration":166.66649999999208,"noteNumber":67,"velocity":85,"programNumber":48},{"time":238888.64999999618,"duration":166.66649999999208,"noteNumber":67,"velocity":85,"programNumber":48},{"time":239110.87199999616,"duration":166.66649999999208,"noteNumber":67,"velocity":85,"programNumber":48},{"time":239333.09399999614,"duration":166.66649999999208,"noteNumber":67,"velocity":85,"programNumber":48},{"time":239555.31599999612,"duration":166.66649999999208,"noteNumber":67,"velocity":85,"programNumber":48},{"time":239777.5379999961,"duration":166.66649999999208,"noteNumber":67,"velocity":85,"programNumber":48},{"time":239999.75999999608,"duration":166.66649999999208,"noteNumber":69,"velocity":85,"programNumber":48},{"time":240221.98199999606,"duration":166.66649999999208,"noteNumber":69,"velocity":85,"programNumber":48},{"time":240444.20399999604,"duration":166.66649999999208,"noteNumber":69,"velocity":85,"programNumber":48},{"time":240666.42599999602,"duration":166.66649999999208,"noteNumber":69,"velocity":85,"programNumber":48},{"time":240888.647999996,"duration":222.22200000000885,"noteNumber":69,"velocity":85,"programNumber":48},{"time":241110.869999996,"duration":166.66649999999208,"noteNumber":72,"velocity":85,"programNumber":48},{"time":241333.091999996,"duration":222.22200000000885,"noteNumber":66,"velocity":85,"programNumber":48},{"time":241555.313999996,"duration":166.66649999999208,"noteNumber":69,"velocity":85,"programNumber":48},{"time":241777.53599999598,"duration":166.66649999999208,"noteNumber":67,"velocity":85,"programNumber":48},{"time":241999.75799999596,"duration":166.66649999999208,"noteNumber":67,"velocity":85,"programNumber":48},{"time":242221.97999999594,"duration":166.66649999999208,"noteNumber":67,"velocity":85,"programNumber":48},{"time":242444.20199999592,"duration":166.66649999999208,"noteNumber":67,"velocity":85,"programNumber":48},{"time":242666.4239999959,"duration":166.66649999999208,"noteNumber":67,"velocity":85,"programNumber":48},{"time":242888.64599999588,"duration":166.66649999999208,"noteNumber":67,"velocity":85,"programNumber":48},{"time":243110.86799999585,"duration":166.66649999999208,"noteNumber":67,"velocity":85,"programNumber":48},{"time":243333.08999999583,"duration":166.66649999999208,"noteNumber":67,"velocity":85,"programNumber":48},{"time":243555.3119999958,"duration":166.66649999999208,"noteNumber":69,"velocity":85,"programNumber":48},{"time":243777.5339999958,"duration":166.66649999999208,"noteNumber":69,"velocity":85,"programNumber":48},{"time":243999.75599999577,"duration":166.66649999999208,"noteNumber":69,"velocity":85,"programNumber":48},{"time":244221.97799999575,"duration":166.66649999999208,"noteNumber":69,"velocity":85,"programNumber":48},{"time":244444.19999999573,"duration":222.22200000000885,"noteNumber":69,"velocity":85,"programNumber":48},{"time":244666.42199999574,"duration":166.66649999999208,"noteNumber":72,"velocity":85,"programNumber":48},{"time":244888.64399999572,"duration":222.22200000000885,"noteNumber":66,"velocity":85,"programNumber":48},{"time":245110.86599999573,"duration":166.66649999999208,"noteNumber":69,"velocity":85,"programNumber":48},{"time":245333.0879999957,"duration":74.07399999999325,"noteNumber":62,"velocity":85,"programNumber":48},{"time":245444.19899999571,"duration":74.07399999999325,"noteNumber":62,"velocity":85,"programNumber":48},{"time":245555.30999999572,"duration":74.07399999999325,"noteNumber":62,"velocity":85,"programNumber":48},{"time":245666.42099999572,"duration":74.07399999999325,"noteNumber":62,"velocity":85,"programNumber":48},{"time":245777.53199999573,"duration":74.07399999999325,"noteNumber":62,"velocity":85,"programNumber":48},{"time":245888.64299999573,"duration":74.07399999999325,"noteNumber":62,"velocity":85,"programNumber":48},{"time":245999.75399999574,"duration":74.07399999999325,"noteNumber":62,"velocity":85,"programNumber":48},{"time":246110.86499999574,"duration":74.07399999999325,"noteNumber":62,"velocity":85,"programNumber":48},{"time":246221.97599999575,"duration":74.07399999999325,"noteNumber":62,"velocity":85,"programNumber":48},{"time":246333.08699999575,"duration":74.07399999999325,"noteNumber":62,"velocity":85,"programNumber":48},{"time":246444.19799999575,"duration":74.07399999999325,"noteNumber":62,"velocity":85,"programNumber":48},{"time":246555.30899999576,"duration":74.07399999999325,"noteNumber":62,"velocity":85,"programNumber":48},{"time":246666.41999999576,"duration":74.07399999999325,"noteNumber":62,"velocity":85,"programNumber":48},{"time":246777.53099999577,"duration":74.07399999999325,"noteNumber":62,"velocity":85,"programNumber":48},{"time":246888.64199999577,"duration":74.07399999999325,"noteNumber":62,"velocity":85,"programNumber":48},{"time":246999.75299999578,"duration":74.07399999999325,"noteNumber":62,"velocity":85,"programNumber":48},{"time":247110.86399999578,"duration":74.07399999999325,"noteNumber":62,"velocity":85,"programNumber":48},{"time":247221.9749999958,"duration":74.07399999999325,"noteNumber":62,"velocity":85,"programNumber":48},{"time":247333.0859999958,"duration":74.07399999999325,"noteNumber":62,"velocity":85,"programNumber":48},{"time":247444.1969999958,"duration":74.07399999999325,"noteNumber":62,"velocity":85,"programNumber":48},{"time":247555.3079999958,"duration":74.07399999999325,"noteNumber":62,"velocity":85,"programNumber":48},{"time":247666.4189999958,"duration":74.07399999999325,"noteNumber":62,"velocity":85,"programNumber":48},{"time":247777.5299999958,"duration":74.07399999999325,"noteNumber":62,"velocity":85,"programNumber":48},{"time":247888.6409999958,"duration":74.07399999999325,"noteNumber":62,"velocity":85,"programNumber":48},{"time":247999.75199999582,"duration":444.4439999999886,"noteNumber":62,"velocity":85,"programNumber":48},{"time":250666.4159999958,"duration":888.8880000000063,"noteNumber":54,"velocity":47,"programNumber":48},{"time":251555.3039999958,"duration":888.8880000000063,"noteNumber":55,"velocity":47,"programNumber":48},{"time":252444.19199999582,"duration":333.33300000001327,"noteNumber":60,"velocity":47,"programNumber":48},{"time":252888.63599999584,"duration":333.33300000001327,"noteNumber":60,"velocity":47,"programNumber":48},{"time":253333.07999999585,"duration":333.33300000001327,"noteNumber":57,"velocity":47,"programNumber":48},{"time":253777.52399999587,"duration":333.33300000001327,"noteNumber":50,"velocity":47,"programNumber":48},{"time":254221.9679999959,"duration":222.22200000000885,"noteNumber":50,"velocity":47,"programNumber":48},{"time":254666.4119999959,"duration":222.22200000000885,"noteNumber":62,"velocity":47,"programNumber":48},{"time":255110.85599999593,"duration":444.4439999999886,"noteNumber":62,"velocity":47,"programNumber":48},{"time":257777.51999999591,"duration":888.8880000000063,"noteNumber":66,"velocity":47,"programNumber":48},{"time":258666.40799999592,"duration":888.8880000000063,"noteNumber":67,"velocity":47,"programNumber":48},{"time":259555.29599999593,"duration":333.33300000001327,"noteNumber":60,"velocity":47,"programNumber":48},{"time":259999.73999999595,"duration":166.66649999999208,"noteNumber":60,"velocity":47,"programNumber":48},{"time":260221.96199999592,"duration":166.66649999999208,"noteNumber":60,"velocity":47,"programNumber":48},{"time":260444.1839999959,"duration":333.33300000001327,"noteNumber":57,"velocity":47,"programNumber":48},{"time":260888.62799999592,"duration":166.66649999999208,"noteNumber":57,"velocity":47,"programNumber":48},{"time":261110.8499999959,"duration":166.66649999999208,"noteNumber":57,"velocity":47,"programNumber":48},{"time":261333.07199999588,"duration":166.66649999999208,"noteNumber":55,"velocity":92,"programNumber":48},{"time":261555.29399999586,"duration":166.66649999999208,"noteNumber":55,"velocity":71,"programNumber":48},{"time":261777.51599999584,"duration":166.66649999999208,"noteNumber":55,"velocity":71,"programNumber":48},{"time":261999.73799999582,"duration":166.66649999999208,"noteNumber":55,"velocity":71,"programNumber":48},{"time":262221.95999999583,"duration":166.66649999999208,"noteNumber":55,"velocity":55,"programNumber":48},{"time":262444.18199999584,"duration":166.66649999999208,"noteNumber":55,"velocity":50,"programNumber":48},{"time":262666.40399999585,"duration":166.66649999999208,"noteNumber":55,"velocity":50,"programNumber":48},{"time":262888.62599999586,"duration":166.66649999999208,"noteNumber":55,"velocity":50,"programNumber":48},{"time":263110.84799999587,"duration":166.66649999999208,"noteNumber":55,"velocity":91,"programNumber":48},{"time":263333.0699999959,"duration":166.66649999999208,"noteNumber":55,"velocity":65,"programNumber":48},{"time":263555.2919999959,"duration":166.66649999999208,"noteNumber":55,"velocity":65,"programNumber":48},{"time":263777.5139999959,"duration":166.66649999999208,"noteNumber":55,"velocity":65,"programNumber":48},{"time":263999.7359999959,"duration":166.66649999999208,"noteNumber":55,"velocity":46,"programNumber":48},{"time":264221.9579999959,"duration":166.66649999999208,"noteNumber":55,"velocity":46,"programNumber":48},{"time":264444.1799999959,"duration":166.66649999999208,"noteNumber":55,"velocity":46,"programNumber":48},{"time":264666.4019999959,"duration":166.66649999999208,"noteNumber":55,"velocity":46,"programNumber":48},{"time":264888.62399999594,"duration":166.66649999999208,"noteNumber":55,"velocity":59,"programNumber":48},{"time":265110.84599999595,"duration":166.66649999999208,"noteNumber":67,"velocity":41,"programNumber":48},{"time":265333.06799999595,"duration":166.66649999999208,"noteNumber":67,"velocity":46,"programNumber":48},{"time":265555.28999999596,"duration":166.66649999999208,"noteNumber":67,"velocity":49,"programNumber":48},{"time":265777.511999996,"duration":166.66649999999208,"noteNumber":67,"velocity":53,"programNumber":48},{"time":265999.733999996,"duration":166.66649999999208,"noteNumber":67,"velocity":56,"programNumber":48},{"time":266221.955999996,"duration":166.66649999999208,"noteNumber":69,"velocity":61,"programNumber":48},{"time":266444.177999996,"duration":166.66649999999208,"noteNumber":69,"velocity":64,"programNumber":48},{"time":266666.399999996,"duration":166.66649999999208,"noteNumber":67,"velocity":68,"programNumber":48},{"time":266888.621999996,"duration":166.66649999999208,"noteNumber":67,"velocity":71,"programNumber":48},{"time":267110.843999996,"duration":166.66649999999208,"noteNumber":66,"velocity":76,"programNumber":48},{"time":267333.06599999603,"duration":166.66649999999208,"noteNumber":66,"velocity":79,"programNumber":48},{"time":267555.28799999604,"duration":166.66649999999208,"noteNumber":67,"velocity":82,"programNumber":48},{"time":267777.50999999605,"duration":166.66649999999208,"noteNumber":67,"velocity":82,"programNumber":48},{"time":267999.73199999606,"duration":166.66649999999208,"noteNumber":64,"velocity":82,"programNumber":48},{"time":268221.95399999607,"duration":166.66649999999208,"noteNumber":64,"velocity":82,"programNumber":48},{"time":268444.1759999961,"duration":74.07400000002235,"noteNumber":62,"velocity":85,"programNumber":48},{"time":268444.1759999961,"duration":74.07400000002235,"noteNumber":69,"velocity":85,"programNumber":48},{"time":268555.2869999961,"duration":74.07400000002235,"noteNumber":62,"velocity":85,"programNumber":48},{"time":268555.2869999961,"duration":74.07400000002235,"noteNumber":69,"velocity":85,"programNumber":48},{"time":268666.39799999614,"duration":74.07400000002235,"noteNumber":62,"velocity":85,"programNumber":48},{"time":268666.39799999614,"duration":74.07400000002235,"noteNumber":69,"velocity":85,"programNumber":48},{"time":268777.5089999962,"duration":74.07400000002235,"noteNumber":62,"velocity":85,"programNumber":48},{"time":268777.5089999962,"duration":74.07400000002235,"noteNumber":69,"velocity":85,"programNumber":48},{"time":268888.6199999962,"duration":74.07400000002235,"noteNumber":62,"velocity":85,"programNumber":48},{"time":268888.6199999962,"duration":74.07400000002235,"noteNumber":69,"velocity":85,"programNumber":48},{"time":268999.73099999625,"duration":74.07400000002235,"noteNumber":62,"velocity":85,"programNumber":48},{"time":268999.73099999625,"duration":74.07400000002235,"noteNumber":69,"velocity":85,"programNumber":48},{"time":269110.8419999963,"duration":74.07400000002235,"noteNumber":62,"velocity":85,"programNumber":48},{"time":269110.8419999963,"duration":74.07400000002235,"noteNumber":69,"velocity":85,"programNumber":48},{"time":269221.9529999963,"duration":74.07400000002235,"noteNumber":62,"velocity":85,"programNumber":48},{"time":269221.9529999963,"duration":74.07400000002235,"noteNumber":69,"velocity":85,"programNumber":48},{"time":269333.06399999635,"duration":74.07400000002235,"noteNumber":64,"velocity":85,"programNumber":48},{"time":269333.06399999635,"duration":74.07400000002235,"noteNumber":69,"velocity":85,"programNumber":48},{"time":269444.1749999964,"duration":74.07400000002235,"noteNumber":64,"velocity":85,"programNumber":48},{"time":269444.1749999964,"duration":74.07400000002235,"noteNumber":69,"velocity":85,"programNumber":48},{"time":269555.2859999964,"duration":74.07400000002235,"noteNumber":64,"velocity":85,"programNumber":48},{"time":269555.2859999964,"duration":74.07400000002235,"noteNumber":69,"velocity":85,"programNumber":48},{"time":269666.39699999645,"duration":74.07400000002235,"noteNumber":64,"velocity":85,"programNumber":48},{"time":269666.39699999645,"duration":74.07400000002235,"noteNumber":69,"velocity":85,"programNumber":48},{"time":269777.5079999965,"duration":74.07400000002235,"noteNumber":64,"velocity":85,"programNumber":48},{"time":269777.5079999965,"duration":74.07400000002235,"noteNumber":69,"velocity":85,"programNumber":48},{"time":269888.6189999965,"duration":74.07400000002235,"noteNumber":64,"velocity":85,"programNumber":48},{"time":269888.6189999965,"duration":74.07400000002235,"noteNumber":69,"velocity":85,"programNumber":48},{"time":269999.72999999655,"duration":74.07400000002235,"noteNumber":64,"velocity":85,"programNumber":48},{"time":269999.72999999655,"duration":74.07400000002235,"noteNumber":69,"velocity":85,"programNumber":48},{"time":270110.8409999966,"duration":74.07400000002235,"noteNumber":64,"velocity":85,"programNumber":48},{"time":270110.8409999966,"duration":74.07400000002235,"noteNumber":69,"velocity":85,"programNumber":48},{"time":270221.9519999966,"duration":74.07400000002235,"noteNumber":62,"velocity":85,"programNumber":48},{"time":270221.9519999966,"duration":74.07400000002235,"noteNumber":69,"velocity":85,"programNumber":48},{"time":270333.06299999665,"duration":74.07400000002235,"noteNumber":62,"velocity":85,"programNumber":48},{"time":270333.06299999665,"duration":74.07400000002235,"noteNumber":69,"velocity":85,"programNumber":48},{"time":270444.1739999967,"duration":74.07400000002235,"noteNumber":62,"velocity":85,"programNumber":48},{"time":270444.1739999967,"duration":74.07400000002235,"noteNumber":69,"velocity":85,"programNumber":48},{"time":270555.2849999967,"duration":74.07400000002235,"noteNumber":62,"velocity":85,"programNumber":48},{"time":270555.2849999967,"duration":74.07400000002235,"noteNumber":69,"velocity":85,"programNumber":48},{"time":270666.39599999675,"duration":74.07400000002235,"noteNumber":62,"velocity":85,"programNumber":48},{"time":270666.39599999675,"duration":74.07400000002235,"noteNumber":69,"velocity":85,"programNumber":48},{"time":270777.5069999968,"duration":74.07400000002235,"noteNumber":62,"velocity":85,"programNumber":48},{"time":270777.5069999968,"duration":74.07400000002235,"noteNumber":69,"velocity":85,"programNumber":48},{"time":270888.6179999968,"duration":74.07400000002235,"noteNumber":62,"velocity":85,"programNumber":48},{"time":270888.6179999968,"duration":74.07400000002235,"noteNumber":69,"velocity":85,"programNumber":48},{"time":270999.72899999685,"duration":74.07400000002235,"noteNumber":62,"velocity":85,"programNumber":48},{"time":270999.72899999685,"duration":74.07400000002235,"noteNumber":69,"velocity":85,"programNumber":48},{"time":271110.8399999969,"duration":74.07400000002235,"noteNumber":64,"velocity":85,"programNumber":48},{"time":271110.8399999969,"duration":74.07400000002235,"noteNumber":69,"velocity":85,"programNumber":48},{"time":271221.9509999969,"duration":74.07400000002235,"noteNumber":64,"velocity":85,"programNumber":48},{"time":271221.9509999969,"duration":74.07400000002235,"noteNumber":69,"velocity":85,"programNumber":48},{"time":271333.06199999695,"duration":74.07400000002235,"noteNumber":64,"velocity":85,"programNumber":48},{"time":271333.06199999695,"duration":74.07400000002235,"noteNumber":69,"velocity":85,"programNumber":48},{"time":271444.172999997,"duration":74.07400000002235,"noteNumber":64,"velocity":85,"programNumber":48},{"time":271444.172999997,"duration":74.07400000002235,"noteNumber":69,"velocity":85,"programNumber":48},{"time":271555.283999997,"duration":74.07400000002235,"noteNumber":64,"velocity":85,"programNumber":48},{"time":271555.283999997,"duration":74.07400000002235,"noteNumber":69,"velocity":85,"programNumber":48},{"time":271666.39499999705,"duration":74.07400000002235,"noteNumber":64,"velocity":85,"programNumber":48},{"time":271666.39499999705,"duration":74.07400000002235,"noteNumber":69,"velocity":85,"programNumber":48},{"time":271777.5059999971,"duration":74.07400000002235,"noteNumber":64,"velocity":85,"programNumber":48},{"time":271777.5059999971,"duration":74.07400000002235,"noteNumber":69,"velocity":85,"programNumber":48},{"time":271888.6169999971,"duration":74.07400000002235,"noteNumber":64,"velocity":85,"programNumber":48},{"time":271888.6169999971,"duration":74.07400000002235,"noteNumber":69,"velocity":85,"programNumber":48},{"time":271999.72799999715,"duration":74.07400000002235,"noteNumber":62,"velocity":85,"programNumber":48},{"time":271999.72799999715,"duration":74.07400000002235,"noteNumber":69,"velocity":85,"programNumber":48},{"time":272110.8389999972,"duration":74.07400000002235,"noteNumber":62,"velocity":85,"programNumber":48},{"time":272110.8389999972,"duration":74.07400000002235,"noteNumber":69,"velocity":85,"programNumber":48},{"time":272221.9499999972,"duration":74.07400000002235,"noteNumber":62,"velocity":85,"programNumber":48},{"time":272221.9499999972,"duration":74.07400000002235,"noteNumber":69,"velocity":85,"programNumber":48},{"time":272333.06099999725,"duration":74.07400000002235,"noteNumber":62,"velocity":85,"programNumber":48},{"time":272333.06099999725,"duration":74.07400000002235,"noteNumber":69,"velocity":85,"programNumber":48},{"time":272444.1719999973,"duration":74.07400000002235,"noteNumber":69,"velocity":85,"programNumber":48},{"time":272444.1719999973,"duration":74.07400000002235,"noteNumber":64,"velocity":85,"programNumber":48},{"time":272555.2829999973,"duration":74.07400000002235,"noteNumber":69,"velocity":85,"programNumber":48},{"time":272555.2829999973,"duration":74.07400000002235,"noteNumber":64,"velocity":85,"programNumber":48},{"time":272666.39399999735,"duration":74.07400000002235,"noteNumber":69,"velocity":85,"programNumber":48},{"time":272666.39399999735,"duration":74.07400000002235,"noteNumber":64,"velocity":85,"programNumber":48},{"time":272777.5049999974,"duration":74.07400000002235,"noteNumber":69,"velocity":85,"programNumber":48},{"time":272777.5049999974,"duration":74.07400000002235,"noteNumber":64,"velocity":85,"programNumber":48},{"time":272888.6159999974,"duration":74.07400000002235,"noteNumber":69,"velocity":85,"programNumber":48},{"time":272888.6159999974,"duration":74.07400000002235,"noteNumber":62,"velocity":85,"programNumber":48},{"time":272999.72699999745,"duration":74.07400000002235,"noteNumber":69,"velocity":85,"programNumber":48},{"time":272999.72699999745,"duration":74.07400000002235,"noteNumber":62,"velocity":85,"programNumber":48},{"time":273110.8379999975,"duration":74.07400000002235,"noteNumber":69,"velocity":85,"programNumber":48},{"time":273110.8379999975,"duration":74.07400000002235,"noteNumber":62,"velocity":85,"programNumber":48},{"time":273221.9489999975,"duration":74.07400000002235,"noteNumber":69,"velocity":85,"programNumber":48},{"time":273221.9489999975,"duration":74.07400000002235,"noteNumber":62,"velocity":85,"programNumber":48},{"time":273333.05999999755,"duration":74.07400000002235,"noteNumber":64,"velocity":85,"programNumber":48},{"time":273333.05999999755,"duration":74.07400000002235,"noteNumber":69,"velocity":85,"programNumber":48},{"time":273444.1709999976,"duration":74.07400000002235,"noteNumber":64,"velocity":85,"programNumber":48},{"time":273444.1709999976,"duration":74.07400000002235,"noteNumber":69,"velocity":85,"programNumber":48},{"time":273555.2819999976,"duration":74.07400000002235,"noteNumber":64,"velocity":85,"programNumber":48},{"time":273555.2819999976,"duration":74.07400000002235,"noteNumber":69,"velocity":85,"programNumber":48},{"time":273666.39299999765,"duration":74.07400000002235,"noteNumber":64,"velocity":85,"programNumber":48},{"time":273666.39299999765,"duration":74.07400000002235,"noteNumber":69,"velocity":85,"programNumber":48},{"time":273788.61509999767,"duration":166.66649999999208,"noteNumber":69,"velocity":85,"programNumber":48},{"time":273788.61509999767,"duration":166.66649999999208,"noteNumber":62,"velocity":85,"programNumber":48},{"time":274010.8370999977,"duration":166.66649999999208,"noteNumber":50,"velocity":85,"programNumber":48},{"time":274233.0590999977,"duration":166.66649999999208,"noteNumber":50,"velocity":85,"programNumber":48},{"time":274455.2810999977,"duration":166.66649999999208,"noteNumber":50,"velocity":85,"programNumber":48},{"time":274677.5030999977,"duration":444.4440000000177,"noteNumber":50,"velocity":85,"programNumber":48},{"time":276888.6119999977,"duration":222.22200000000885,"noteNumber":59,"velocity":55,"programNumber":48},{"time":277333.0559999977,"duration":222.22200000000885,"noteNumber":52,"velocity":55,"programNumber":48},{"time":277777.49999999773,"duration":222.22200000000885,"noteNumber":60,"velocity":55,"programNumber":48},{"time":278221.94399999775,"duration":222.22200000000885,"noteNumber":57,"velocity":55,"programNumber":48},{"time":278666.38799999777,"duration":222.22200000000885,"noteNumber":54,"velocity":55,"programNumber":48},{"time":279555.2759999978,"duration":444.4440000000177,"noteNumber":69,"velocity":55,"programNumber":48},{"time":279999.7199999978,"duration":222.22200000000885,"noteNumber":67,"velocity":55,"programNumber":48},{"time":280444.16399999784,"duration":222.22200000000885,"noteNumber":69,"velocity":55,"programNumber":48},{"time":280888.60799999785,"duration":888.8879999999772,"noteNumber":67,"velocity":55,"programNumber":48},{"time":281777.49599999783,"duration":444.4440000000177,"noteNumber":66,"velocity":55,"programNumber":48},{"time":283110.8279999978,"duration":444.4440000000177,"noteNumber":66,"velocity":55,"programNumber":48},{"time":283555.27199999784,"duration":222.22200000000885,"noteNumber":67,"velocity":55,"programNumber":48},{"time":283999.71599999786,"duration":222.22200000000885,"noteNumber":71,"velocity":55,"programNumber":48},{"time":284444.1599999979,"duration":222.22200000000885,"noteNumber":64,"velocity":55,"programNumber":48},{"time":284888.6039999979,"duration":222.22200000000885,"noteNumber":60,"velocity":55,"programNumber":48},{"time":285333.0479999979,"duration":444.4440000000177,"noteNumber":57,"velocity":55,"programNumber":48},{"time":285999.71399999794,"duration":166.66649999999208,"noteNumber":69,"velocity":55,"programNumber":48},{"time":286221.93599999795,"duration":222.22200000000885,"noteNumber":69,"velocity":55,"programNumber":48},{"time":286444.15799999796,"duration":222.22200000000885,"noteNumber":67,"velocity":55,"programNumber":48},{"time":287999.71199999796,"duration":166.66649999999208,"noteNumber":55,"velocity":55,"programNumber":48},{"time":288221.933999998,"duration":166.66649999999208,"noteNumber":55,"velocity":55,"programNumber":48},{"time":288444.155999998,"duration":166.66649999999208,"noteNumber":57,"velocity":55,"programNumber":48},{"time":288666.377999998,"duration":166.66649999999208,"noteNumber":57,"velocity":55,"programNumber":48},{"time":288888.599999998,"duration":166.66649999999208,"noteNumber":59,"velocity":55,"programNumber":48},{"time":289110.821999998,"duration":166.66649999999208,"noteNumber":59,"velocity":55,"programNumber":48},{"time":289333.043999998,"duration":166.66649999999208,"noteNumber":55,"velocity":55,"programNumber":48},{"time":289555.265999998,"duration":166.66649999999208,"noteNumber":55,"velocity":55,"programNumber":48},{"time":289777.48799999803,"duration":166.66649999999208,"noteNumber":54,"velocity":55,"programNumber":48},{"time":289999.70999999804,"duration":166.66649999999208,"noteNumber":54,"velocity":55,"programNumber":48},{"time":290221.93199999805,"duration":166.66649999999208,"noteNumber":55,"velocity":55,"programNumber":48},{"time":290444.15399999806,"duration":166.66649999999208,"noteNumber":55,"velocity":55,"programNumber":48},{"time":290666.37599999807,"duration":166.66649999999208,"noteNumber":57,"velocity":55,"programNumber":48},{"time":290888.5979999981,"duration":166.66649999999208,"noteNumber":57,"velocity":55,"programNumber":48},{"time":291110.8199999981,"duration":166.66649999999208,"noteNumber":54,"velocity":55,"programNumber":48},{"time":291333.0419999981,"duration":166.66649999999208,"noteNumber":54,"velocity":55,"programNumber":48},{"time":291555.2639999981,"duration":166.66649999999208,"noteNumber":55,"velocity":55,"programNumber":48},{"time":291777.4859999981,"duration":166.66649999999208,"noteNumber":55,"velocity":55,"programNumber":48},{"time":291999.7079999981,"duration":166.66649999999208,"noteNumber":57,"velocity":55,"programNumber":48},{"time":292221.92999999813,"duration":166.66649999999208,"noteNumber":57,"velocity":55,"programNumber":48},{"time":292444.15199999814,"duration":166.66649999999208,"noteNumber":59,"velocity":55,"programNumber":48},{"time":292666.37399999815,"duration":166.66649999999208,"noteNumber":59,"velocity":55,"programNumber":48},{"time":292888.59599999816,"duration":166.66649999999208,"noteNumber":55,"velocity":55,"programNumber":48},{"time":293110.81799999817,"duration":166.66649999999208,"noteNumber":55,"velocity":55,"programNumber":48},{"time":293333.0399999982,"duration":166.66649999999208,"noteNumber":54,"velocity":55,"programNumber":48},{"time":293555.2619999982,"duration":166.66649999999208,"noteNumber":54,"velocity":55,"programNumber":48},{"time":293777.4839999982,"duration":166.66649999999208,"noteNumber":55,"velocity":55,"programNumber":48},{"time":293999.7059999982,"duration":166.66649999999208,"noteNumber":55,"velocity":55,"programNumber":48},{"time":294221.9279999982,"duration":166.66649999999208,"noteNumber":57,"velocity":55,"programNumber":48},{"time":294444.1499999982,"duration":166.66649999999208,"noteNumber":57,"velocity":55,"programNumber":48},{"time":294666.3719999982,"duration":166.66649999999208,"noteNumber":54,"velocity":55,"programNumber":48},{"time":294888.59399999824,"duration":166.66649999999208,"noteNumber":54,"velocity":55,"programNumber":48},{"time":295110.81599999825,"duration":166.66649999999208,"noteNumber":55,"velocity":55,"programNumber":48},{"time":295333.03799999825,"duration":166.66649999999208,"noteNumber":67,"velocity":83,"programNumber":48},{"time":295555.25999999826,"duration":166.66649999999208,"noteNumber":71,"velocity":83,"programNumber":48},{"time":295777.4819999983,"duration":166.66649999999208,"noteNumber":69,"velocity":83,"programNumber":48},{"time":295999.7039999983,"duration":166.66649999999208,"noteNumber":68,"velocity":83,"programNumber":48},{"time":296221.9259999983,"duration":166.66649999999208,"noteNumber":64,"velocity":83,"programNumber":48},{"time":296444.1479999983,"duration":166.66649999999208,"noteNumber":66,"velocity":83,"programNumber":48},{"time":296666.3699999983,"duration":166.66649999999208,"noteNumber":67,"velocity":83,"programNumber":48},{"time":296888.5919999983,"duration":166.66649999999208,"noteNumber":69,"velocity":83,"programNumber":48},{"time":297110.8139999983,"duration":166.66649999999208,"noteNumber":72,"velocity":83,"programNumber":48},{"time":297333.03599999833,"duration":166.66649999999208,"noteNumber":69,"velocity":85,"programNumber":48},{"time":297555.25799999834,"duration":166.66649999999208,"noteNumber":67,"velocity":85,"programNumber":48},{"time":297777.47999999835,"duration":166.66649999999208,"noteNumber":66,"velocity":85,"programNumber":48},{"time":297999.70199999836,"duration":166.66649999999208,"noteNumber":62,"velocity":86,"programNumber":48},{"time":298221.92399999837,"duration":166.66649999999208,"noteNumber":64,"velocity":85,"programNumber":48},{"time":298444.1459999984,"duration":166.66649999999208,"noteNumber":66,"velocity":85,"programNumber":48},{"time":298666.3679999984,"duration":166.66649999999208,"noteNumber":67,"velocity":85,"programNumber":48},{"time":298888.5899999984,"duration":166.66649999999208,"noteNumber":67,"velocity":85,"programNumber":48},{"time":299110.8119999984,"duration":166.66649999999208,"noteNumber":67,"velocity":85,"programNumber":48},{"time":299333.0339999984,"duration":166.66649999999208,"noteNumber":67,"velocity":85,"programNumber":48},{"time":299555.2559999984,"duration":166.66649999999208,"noteNumber":67,"velocity":85,"programNumber":48},{"time":299777.47799999843,"duration":166.66649999999208,"noteNumber":67,"velocity":85,"programNumber":48},{"time":299999.69999999844,"duration":166.66649999999208,"noteNumber":67,"velocity":85,"programNumber":48},{"time":300221.92199999845,"duration":166.66649999999208,"noteNumber":67,"velocity":85,"programNumber":48},{"time":300444.14399999846,"duration":222.22200000000885,"noteNumber":67,"velocity":85,"programNumber":48},{"time":300666.36599999847,"duration":166.66649999999208,"noteNumber":62,"velocity":85,"programNumber":48},{"time":300888.5879999985,"duration":111.11099999997532,"noteNumber":62,"velocity":85,"programNumber":48},{"time":301110.8099999984,"duration":111.11099999997532,"noteNumber":62,"velocity":85,"programNumber":48},{"time":301333.0319999984,"duration":166.66649999999208,"noteNumber":62,"velocity":85,"programNumber":48},{"time":301555.2539999984,"duration":166.66649999999208,"noteNumber":62,"velocity":85,"programNumber":48},{"time":301777.4759999984,"duration":166.66649999999208,"noteNumber":62,"velocity":85,"programNumber":48},{"time":301999.6979999984,"duration":166.66649999999208,"noteNumber":60,"velocity":85,"programNumber":48},{"time":302221.9199999984,"duration":166.66649999999208,"noteNumber":55,"velocity":85,"programNumber":48},{"time":302444.1419999984,"duration":166.66649999999208,"noteNumber":55,"velocity":53,"programNumber":48},{"time":302666.36399999843,"duration":166.66649999999208,"noteNumber":57,"velocity":53,"programNumber":48},{"time":302888.58599999844,"duration":166.66649999999208,"noteNumber":57,"velocity":53,"programNumber":48},{"time":303110.80799999845,"duration":166.66649999999208,"noteNumber":59,"velocity":53,"programNumber":48},{"time":303333.02999999846,"duration":166.66649999999208,"noteNumber":59,"velocity":53,"programNumber":48},{"time":303555.25199999847,"duration":166.66649999999208,"noteNumber":55,"velocity":53,"programNumber":48},{"time":303777.4739999985,"duration":166.66649999999208,"noteNumber":55,"velocity":53,"programNumber":48},{"time":303999.6959999985,"duration":166.66649999999208,"noteNumber":54,"velocity":55,"programNumber":48},{"time":304221.9179999985,"duration":166.66649999999208,"noteNumber":54,"velocity":55,"programNumber":48},{"time":304444.1399999985,"duration":166.66649999999208,"noteNumber":55,"velocity":55,"programNumber":48},{"time":304666.3619999985,"duration":166.66649999999208,"noteNumber":55,"velocity":55,"programNumber":48},{"time":304888.5839999985,"duration":166.66649999999208,"noteNumber":57,"velocity":55,"programNumber":48},{"time":305110.8059999985,"duration":166.66649999999208,"noteNumber":57,"velocity":55,"programNumber":48},{"time":305333.02799999854,"duration":166.66649999999208,"noteNumber":54,"velocity":55,"programNumber":48},{"time":305555.24999999854,"duration":166.66649999999208,"noteNumber":54,"velocity":55,"programNumber":48},{"time":305777.47199999855,"duration":166.66649999999208,"noteNumber":55,"velocity":55,"programNumber":48},{"time":305999.69399999856,"duration":166.66649999999208,"noteNumber":67,"velocity":55,"programNumber":48},{"time":306221.9159999986,"duration":166.66649999999208,"noteNumber":69,"velocity":55,"programNumber":48},{"time":306444.1379999986,"duration":166.66649999999208,"noteNumber":69,"velocity":55,"programNumber":48},{"time":306666.3599999986,"duration":166.66649999999208,"noteNumber":71,"velocity":55,"programNumber":48},{"time":306888.5819999986,"duration":166.66649999999208,"noteNumber":71,"velocity":55,"programNumber":48},{"time":307110.8039999986,"duration":166.66649999999208,"noteNumber":67,"velocity":55,"programNumber":48},{"time":307333.0259999986,"duration":166.66649999999208,"noteNumber":67,"velocity":55,"programNumber":48},{"time":307555.2479999986,"duration":166.66649999999208,"noteNumber":66,"velocity":55,"programNumber":48},{"time":307777.46999999863,"duration":166.66649999999208,"noteNumber":66,"velocity":55,"programNumber":48},{"time":307999.69199999864,"duration":166.66649999999208,"noteNumber":67,"velocity":55,"programNumber":48},{"time":308221.91399999865,"duration":166.66649999999208,"noteNumber":67,"velocity":55,"programNumber":48},{"time":308444.13599999866,"duration":166.66649999999208,"noteNumber":69,"velocity":55,"programNumber":48},{"time":308666.35799999867,"duration":166.66649999999208,"noteNumber":69,"velocity":55,"programNumber":48},{"time":308888.5799999987,"duration":166.66649999999208,"noteNumber":66,"velocity":55,"programNumber":48},{"time":309110.8019999987,"duration":166.66649999999208,"noteNumber":66,"velocity":55,"programNumber":48},{"time":309333.0239999987,"duration":166.66649999999208,"noteNumber":67,"velocity":55,"programNumber":48},{"time":309555.2459999987,"duration":166.66649999999208,"noteNumber":67,"velocity":85,"programNumber":48},{"time":309777.4679999987,"duration":166.66649999999208,"noteNumber":71,"velocity":85,"programNumber":48},{"time":309999.6899999987,"duration":166.66649999999208,"noteNumber":69,"velocity":85,"programNumber":48},{"time":310221.91199999873,"duration":166.66649999999208,"noteNumber":68,"velocity":85,"programNumber":48},{"time":310444.13399999874,"duration":166.66649999999208,"noteNumber":64,"velocity":85,"programNumber":48},{"time":310666.35599999875,"duration":166.66649999999208,"noteNumber":66,"velocity":85,"programNumber":48},{"time":310888.57799999876,"duration":166.66649999999208,"noteNumber":67,"velocity":85,"programNumber":48},{"time":311110.79999999877,"duration":166.66649999999208,"noteNumber":69,"velocity":85,"programNumber":48},{"time":311333.0219999988,"duration":166.66649999999208,"noteNumber":72,"velocity":85,"programNumber":48},{"time":311555.2439999988,"duration":166.66649999999208,"noteNumber":69,"velocity":85,"programNumber":48},{"time":311777.4659999988,"duration":166.66649999999208,"noteNumber":67,"velocity":85,"programNumber":48},{"time":311999.6879999988,"duration":166.66649999999208,"noteNumber":66,"velocity":85,"programNumber":48},{"time":312221.9099999988,"duration":166.66649999999208,"noteNumber":62,"velocity":85,"programNumber":48},{"time":312444.1319999988,"duration":166.66649999999208,"noteNumber":64,"velocity":85,"programNumber":48},{"time":312666.3539999988,"duration":166.66649999999208,"noteNumber":66,"velocity":85,"programNumber":48},{"time":312888.57599999884,"duration":166.66649999999208,"noteNumber":67,"velocity":85,"programNumber":48},{"time":313110.79799999885,"duration":166.66649999999208,"noteNumber":67,"velocity":85,"programNumber":48},{"time":313333.01999999885,"duration":166.66649999999208,"noteNumber":67,"velocity":85,"programNumber":48},{"time":313555.24199999886,"duration":166.66649999999208,"noteNumber":67,"velocity":85,"programNumber":48},{"time":313777.4639999989,"duration":166.66649999999208,"noteNumber":67,"velocity":85,"programNumber":48},{"time":313999.6859999989,"duration":166.66649999999208,"noteNumber":67,"velocity":85,"programNumber":48},{"time":314221.9079999989,"duration":166.66649999999208,"noteNumber":67,"velocity":85,"programNumber":48},{"time":314444.1299999989,"duration":166.66649999999208,"noteNumber":67,"velocity":85,"programNumber":48},{"time":314666.3519999989,"duration":166.66649999999208,"noteNumber":67,"velocity":85,"programNumber":48},{"time":314888.5739999989,"duration":166.66649999999208,"noteNumber":71,"velocity":85,"programNumber":48},{"time":315110.7959999989,"duration":166.66649999999208,"noteNumber":74,"velocity":85,"programNumber":48},{"time":315333.01799999893,"duration":166.66649999999208,"noteNumber":74,"velocity":85,"programNumber":48},{"time":315555.23999999894,"duration":166.66649999999208,"noteNumber":74,"velocity":85,"programNumber":48},{"time":315777.46199999895,"duration":166.66649999999208,"noteNumber":74,"velocity":85,"programNumber":48},{"time":315999.68399999896,"duration":166.66649999999208,"noteNumber":74,"velocity":85,"programNumber":48},{"time":316221.90599999897,"duration":166.66649999999208,"noteNumber":72,"velocity":85,"programNumber":48},{"time":316451.53539999895,"duration":166.66649999999208,"noteNumber":71,"velocity":85,"programNumber":48},{"time":316673.75739999895,"duration":166.66649999999208,"noteNumber":62,"velocity":85,"programNumber":48},{"time":316895.97939999896,"duration":166.66649999999208,"noteNumber":64,"velocity":85,"programNumber":48},{"time":317118.201399999,"duration":166.66649999999208,"noteNumber":66,"velocity":85,"programNumber":48},{"time":317340.423399999,"duration":166.66649999999208,"noteNumber":67,"velocity":85,"programNumber":48},{"time":317562.645399999,"duration":166.66649999999208,"noteNumber":67,"velocity":85,"programNumber":48},{"time":317784.867399999,"duration":166.66649999999208,"noteNumber":69,"velocity":85,"programNumber":48},{"time":318007.089399999,"duration":166.66649999999208,"noteNumber":69,"velocity":85,"programNumber":48},{"time":318229.311399999,"duration":166.66649999999208,"noteNumber":71,"velocity":85,"programNumber":48},{"time":318451.533399999,"duration":166.66649999999208,"noteNumber":54,"velocity":85,"programNumber":48},{"time":318673.75539999903,"duration":166.66649999999208,"noteNumber":55,"velocity":85,"programNumber":48},{"time":318895.97739999904,"duration":166.66649999999208,"noteNumber":57,"velocity":85,"programNumber":48},{"time":319118.19939999905,"duration":166.66649999999208,"noteNumber":59,"velocity":85,"programNumber":48},{"time":319340.42139999906,"duration":166.66649999999208,"noteNumber":59,"velocity":85,"programNumber":48},{"time":319562.64339999907,"duration":166.66649999999208,"noteNumber":60,"velocity":85,"programNumber":48},{"time":319784.8653999991,"duration":166.66649999999208,"noteNumber":60,"velocity":85,"programNumber":48},{"time":319999.67999999906,"duration":166.66649999999208,"noteNumber":62,"velocity":85,"programNumber":48},{"time":320221.90199999907,"duration":166.66649999999208,"noteNumber":62,"velocity":85,"programNumber":48},{"time":320444.1239999991,"duration":166.66649999999208,"noteNumber":63,"velocity":85,"programNumber":48},{"time":320666.3459999991,"duration":166.66649999999208,"noteNumber":63,"velocity":85,"programNumber":48},{"time":320888.5679999991,"duration":444.4440000000177,"noteNumber":64,"velocity":85,"programNumber":48},{"time":321777.45599999913,"duration":1333.3319999999949,"noteNumber":57,"velocity":70,"programNumber":48},{"time":323110.7879999991,"duration":222.22200000000885,"noteNumber":55,"velocity":70,"programNumber":48},{"time":323333.00999999914,"duration":222.22200000000885,"noteNumber":54,"velocity":70,"programNumber":48},{"time":323555.23199999915,"duration":444.4440000000177,"noteNumber":55,"velocity":70,"programNumber":48},{"time":325333.00799999916,"duration":1333.3319999999949,"noteNumber":57,"velocity":70,"programNumber":48},{"time":326666.33999999915,"duration":222.22200000000885,"noteNumber":55,"velocity":70,"programNumber":48},{"time":326888.56199999916,"duration":222.22200000000885,"noteNumber":54,"velocity":70,"programNumber":48},{"time":327110.78399999917,"duration":444.4440000000177,"noteNumber":55,"velocity":70,"programNumber":48},{"time":327999.6719999992,"duration":444.4440000000177,"noteNumber":67,"velocity":70,"programNumber":48},{"time":328888.55999999924,"duration":444.4440000000177,"noteNumber":64,"velocity":92,"programNumber":48},{"time":329777.4479999993,"duration":444.4440000000177,"noteNumber":69,"velocity":111,"programNumber":48},{"time":329777.4479999993,"duration":444.4440000000177,"noteNumber":62,"velocity":111,"programNumber":48},{"time":330666.3359999993,"duration":74.07400000002235,"noteNumber":55,"velocity":97,"programNumber":48},{"time":330777.44699999935,"duration":74.07400000002235,"noteNumber":55,"velocity":94,"programNumber":48},{"time":330888.5579999994,"duration":74.07400000002235,"noteNumber":55,"velocity":93,"programNumber":48},{"time":330999.6689999994,"duration":74.07400000002235,"noteNumber":55,"velocity":92,"programNumber":48},{"time":331110.77999999945,"duration":74.07400000002235,"noteNumber":55,"velocity":90,"programNumber":48},{"time":331221.8909999995,"duration":74.07400000002235,"noteNumber":55,"velocity":90,"programNumber":48},{"time":331333.0019999995,"duration":74.07400000002235,"noteNumber":55,"velocity":90,"programNumber":48},{"time":331444.11299999955,"duration":74.07400000002235,"noteNumber":55,"velocity":90,"programNumber":48},{"time":331555.2239999996,"duration":74.07400000002235,"noteNumber":55,"velocity":88,"programNumber":48},{"time":331666.3349999996,"duration":74.07400000002235,"noteNumber":55,"velocity":88,"programNumber":48},{"time":331777.44599999965,"duration":74.07400000002235,"noteNumber":55,"velocity":90,"programNumber":48},{"time":331888.5569999997,"duration":74.07400000002235,"noteNumber":55,"velocity":90,"programNumber":48},{"time":331999.6679999997,"duration":74.07400000002235,"noteNumber":55,"velocity":88,"programNumber":48},{"time":332110.77899999975,"duration":74.07400000002235,"noteNumber":55,"velocity":87,"programNumber":48},{"time":332221.8899999998,"duration":74.07400000002235,"noteNumber":55,"velocity":87,"programNumber":48},{"time":332333.0009999998,"duration":74.07400000002235,"noteNumber":55,"velocity":86,"programNumber":48},{"time":332444.11199999985,"duration":74.07400000002235,"noteNumber":55,"velocity":86,"programNumber":48},{"time":332555.2229999999,"duration":74.07400000002235,"noteNumber":55,"velocity":86,"programNumber":48},{"time":332666.3339999999,"duration":74.07400000002235,"noteNumber":55,"velocity":87,"programNumber":48},{"time":332777.44499999995,"duration":74.07400000002235,"noteNumber":55,"velocity":89,"programNumber":48},{"time":332888.556,"duration":74.07400000002235,"noteNumber":55,"velocity":90,"programNumber":48},{"time":332999.667,"duration":74.07400000002235,"noteNumber":55,"velocity":90,"programNumber":48},{"time":333110.77800000005,"duration":74.07400000002235,"noteNumber":55,"velocity":90,"programNumber":48},{"time":333221.8890000001,"duration":74.07400000002235,"noteNumber":55,"velocity":89,"programNumber":48},{"time":333333.0000000001,"duration":74.07400000002235,"noteNumber":55,"velocity":85,"programNumber":48},{"time":333444.11100000015,"duration":74.07400000002235,"noteNumber":55,"velocity":87,"programNumber":48},{"time":333555.2220000002,"duration":74.07400000002235,"noteNumber":55,"velocity":87,"programNumber":48},{"time":333666.3330000002,"duration":74.07400000002235,"noteNumber":55,"velocity":88,"programNumber":48},{"time":333777.44400000025,"duration":74.07400000002235,"noteNumber":57,"velocity":89,"programNumber":48},{"time":333888.5550000003,"duration":74.07400000002235,"noteNumber":57,"velocity":90,"programNumber":48},{"time":333999.6660000003,"duration":74.07400000002235,"noteNumber":57,"velocity":90,"programNumber":48},{"time":334110.77700000035,"duration":74.07400000002235,"noteNumber":57,"velocity":90,"programNumber":48},{"time":334221.8880000004,"duration":74.07400000002235,"noteNumber":55,"velocity":90,"programNumber":48},{"time":334332.9990000004,"duration":74.07400000002235,"noteNumber":55,"velocity":90,"programNumber":48},{"time":334444.11000000045,"duration":74.07400000002235,"noteNumber":55,"velocity":90,"programNumber":48},{"time":334555.2210000005,"duration":74.07400000002235,"noteNumber":55,"velocity":90,"programNumber":48},{"time":334666.3320000005,"duration":74.07400000002235,"noteNumber":55,"velocity":90,"programNumber":48},{"time":334777.44300000055,"duration":74.07400000002235,"noteNumber":55,"velocity":90,"programNumber":48},{"time":334888.5540000006,"duration":74.07400000002235,"noteNumber":55,"velocity":90,"programNumber":48},{"time":334999.6650000006,"duration":74.07400000002235,"noteNumber":55,"velocity":90,"programNumber":48},{"time":335110.77600000065,"duration":74.07400000002235,"noteNumber":55,"velocity":89,"programNumber":48},{"time":335221.8870000007,"duration":74.07400000002235,"noteNumber":55,"velocity":89,"programNumber":48},{"time":335332.9980000007,"duration":74.07400000002235,"noteNumber":55,"velocity":89,"programNumber":48},{"time":335444.10900000075,"duration":74.07400000002235,"noteNumber":55,"velocity":89,"programNumber":48},{"time":335555.2200000008,"duration":74.07400000002235,"noteNumber":55,"velocity":89,"programNumber":48},{"time":335666.3310000008,"duration":74.07400000002235,"noteNumber":55,"velocity":90,"programNumber":48},{"time":335777.44200000085,"duration":74.07400000002235,"noteNumber":55,"velocity":95,"programNumber":48},{"time":335888.5530000009,"duration":74.07400000002235,"noteNumber":55,"velocity":96,"programNumber":48},{"time":335999.6640000009,"duration":74.07400000002235,"noteNumber":55,"velocity":97,"programNumber":48},{"time":336110.77500000095,"duration":74.07400000002235,"noteNumber":55,"velocity":98,"programNumber":48},{"time":336221.886000001,"duration":74.07400000002235,"noteNumber":55,"velocity":99,"programNumber":48},{"time":336332.997000001,"duration":74.07400000002235,"noteNumber":55,"velocity":99,"programNumber":48},{"time":336444.10800000106,"duration":74.07400000002235,"noteNumber":55,"velocity":99,"programNumber":48},{"time":336555.2190000011,"duration":74.07400000002235,"noteNumber":55,"velocity":99,"programNumber":48},{"time":336666.3300000011,"duration":74.07400000002235,"noteNumber":55,"velocity":99,"programNumber":48},{"time":336777.44100000116,"duration":74.07400000002235,"noteNumber":55,"velocity":99,"programNumber":48},{"time":336888.5520000012,"duration":74.07400000002235,"noteNumber":55,"velocity":97,"programNumber":48},{"time":336999.6630000012,"duration":74.07400000002235,"noteNumber":55,"velocity":97,"programNumber":48},{"time":337110.77400000126,"duration":74.07400000002235,"noteNumber":55,"velocity":96,"programNumber":48},{"time":337221.8850000013,"duration":74.07400000002235,"noteNumber":55,"velocity":94,"programNumber":48},{"time":337332.9960000013,"duration":74.07400000002235,"noteNumber":57,"velocity":94,"programNumber":48},{"time":337444.10700000136,"duration":74.07400000002235,"noteNumber":57,"velocity":94,"programNumber":48},{"time":337555.2180000014,"duration":74.07400000002235,"noteNumber":57,"velocity":95,"programNumber":48},{"time":337666.3290000014,"duration":74.07400000002235,"noteNumber":57,"velocity":95,"programNumber":48},{"time":337777.44000000146,"duration":166.66649999999208,"noteNumber":55,"velocity":96,"programNumber":48},{"time":337999.66200000147,"duration":166.66649999999208,"noteNumber":59,"velocity":103,"programNumber":48},{"time":338221.8840000015,"duration":166.66649999999208,"noteNumber":62,"velocity":103,"programNumber":48},{"time":338444.1060000015,"duration":166.66649999999208,"noteNumber":67,"velocity":103,"programNumber":48},{"time":338666.3280000015,"duration":166.66649999999208,"noteNumber":71,"velocity":103,"programNumber":48},{"time":338888.5500000015,"duration":166.66649999999208,"noteNumber":67,"velocity":103,"programNumber":48},{"time":339110.7720000015,"duration":166.66649999999208,"noteNumber":74,"velocity":103,"programNumber":48},{"time":339332.9940000015,"duration":166.66649999999208,"noteNumber":71,"velocity":103,"programNumber":48},{"time":339566.3271000015,"duration":370.36999999999534,"noteNumber":67,"velocity":103,"programNumber":48},{"time":340010.7711000015,"duration":222.22200000000885,"noteNumber":55,"velocity":103,"programNumber":48},{"time":340344.1041000015,"duration":55.555500000016764,"noteNumber":55,"velocity":103,"programNumber":48},{"time":340455.21510000154,"duration":444.4440000000177,"noteNumber":55,"velocity":103,"programNumber":48}],[{"time":0,"duration":444.444,"noteNumber":71,"velocity":85,"programNumber":51},{"time":0,"duration":444.444,"noteNumber":79,"velocity":85,"programNumber":51},{"time":0,"duration":444.444,"noteNumber":62,"velocity":85,"programNumber":51},{"time":666.666,"duration":111.11099999999999,"noteNumber":74,"velocity":85,"programNumber":51},{"time":888.888,"duration":444.4440000000001,"noteNumber":79,"velocity":85,"programNumber":51},{"time":1555.554,"duration":111.1110000000001,"noteNumber":74,"velocity":85,"programNumber":51},{"time":1777.7760000000003,"duration":111.1110000000001,"noteNumber":79,"velocity":85,"programNumber":51},{"time":1999.9980000000005,"duration":111.11099999999988,"noteNumber":74,"velocity":85,"programNumber":51},{"time":2222.2200000000003,"duration":111.11099999999988,"noteNumber":79,"velocity":85,"programNumber":51},{"time":2444.442,"duration":111.11099999999988,"noteNumber":83,"velocity":85,"programNumber":51},{"time":2666.6639999999998,"duration":444.44399999999996,"noteNumber":86,"velocity":85,"programNumber":51},{"time":3555.5519999999997,"duration":444.44399999999996,"noteNumber":84,"velocity":85,"programNumber":51},{"time":4222.218,"duration":111.11099999999988,"noteNumber":81,"velocity":82,"programNumber":51},{"time":4444.44,"duration":444.4440000000004,"noteNumber":84,"velocity":85,"programNumber":51},{"time":5111.106,"duration":111.11099999999988,"noteNumber":81,"velocity":79,"programNumber":51},{"time":5333.3279999999995,"duration":111.11099999999988,"noteNumber":84,"velocity":85,"programNumber":51},{"time":5555.549999999999,"duration":111.11099999999988,"noteNumber":81,"velocity":80,"programNumber":51},{"time":5777.771999999999,"duration":111.11099999999988,"noteNumber":78,"velocity":85,"programNumber":51},{"time":5999.993999999999,"duration":111.11099999999988,"noteNumber":81,"velocity":77,"programNumber":51},{"time":6222.2159999999985,"duration":444.4440000000004,"noteNumber":74,"velocity":85,"programNumber":51},{"time":7111.103999999999,"duration":222.22199999999975,"noteNumber":71,"velocity":85,"programNumber":51},{"time":7111.103999999999,"duration":222.22199999999975,"noteNumber":79,"velocity":85,"programNumber":51},{"time":7111.103999999999,"duration":222.22199999999975,"noteNumber":62,"velocity":85,"programNumber":51},{"time":7555.547999999999,"duration":666.6659999999993,"noteNumber":79,"velocity":85,"programNumber":51},{"time":8222.213999999998,"duration":222.22199999999975,"noteNumber":83,"velocity":89,"programNumber":51},{"time":8444.435999999998,"duration":111.11100000000079,"noteNumber":81,"velocity":94,"programNumber":51},{"time":8666.658,"duration":111.11100000000079,"noteNumber":79,"velocity":97,"programNumber":51},{"time":8888.880000000001,"duration":55.55550000000039,"noteNumber":79,"velocity":95,"programNumber":51},{"time":8944.435500000001,"duration":55.55550000000039,"noteNumber":81,"velocity":95,"programNumber":51},{"time":8999.991000000002,"duration":55.55550000000039,"noteNumber":79,"velocity":95,"programNumber":51},{"time":9055.546500000002,"duration":55.55550000000039,"noteNumber":81,"velocity":94,"programNumber":51},{"time":9111.102000000003,"duration":185.1849999999995,"noteNumber":78,"velocity":94,"programNumber":51},{"time":9333.324000000002,"duration":666.6659999999993,"noteNumber":78,"velocity":88,"programNumber":51},{"time":9999.990000000002,"duration":222.22199999999975,"noteNumber":81,"velocity":85,"programNumber":51},{"time":10222.212000000001,"duration":111.11100000000079,"noteNumber":84,"velocity":85,"programNumber":51},{"time":10444.434000000003,"duration":111.11100000000079,"noteNumber":78,"velocity":85,"programNumber":51},{"time":10666.656000000004,"duration":222.22199999999975,"noteNumber":81,"velocity":85,"programNumber":51},{"time":10888.878000000004,"duration":111.11100000000079,"noteNumber":79,"velocity":85,"programNumber":51},{"time":11111.100000000006,"duration":666.6659999999993,"noteNumber":79,"velocity":85,"programNumber":51},{"time":11777.766000000005,"duration":222.22199999999975,"noteNumber":83,"velocity":86,"programNumber":51},{"time":11999.988000000005,"duration":111.11100000000079,"noteNumber":81,"velocity":86,"programNumber":51},{"time":12222.210000000006,"duration":111.11100000000079,"noteNumber":79,"velocity":89,"programNumber":51},{"time":12444.432000000008,"duration":55.55550000000039,"noteNumber":79,"velocity":91,"programNumber":51},{"time":12499.987500000008,"duration":55.55550000000039,"noteNumber":81,"velocity":91,"programNumber":51},{"time":12555.543000000009,"duration":55.55550000000039,"noteNumber":79,"velocity":92,"programNumber":51},{"time":12611.09850000001,"duration":55.55550000000039,"noteNumber":81,"velocity":94,"programNumber":51},{"time":12666.65400000001,"duration":185.1849999999995,"noteNumber":78,"velocity":94,"programNumber":51},{"time":12888.87600000001,"duration":666.6659999999993,"noteNumber":78,"velocity":94,"programNumber":51},{"time":13555.542000000009,"duration":222.22199999999975,"noteNumber":81,"velocity":85,"programNumber":51},{"time":13777.764000000008,"duration":111.11100000000079,"noteNumber":84,"velocity":85,"programNumber":51},{"time":13999.98600000001,"duration":111.11100000000079,"noteNumber":78,"velocity":85,"programNumber":51},{"time":14222.208000000011,"duration":111.11100000000079,"noteNumber":79,"velocity":85,"programNumber":51},{"time":14444.430000000013,"duration":111.11100000000079,"noteNumber":79,"velocity":85,"programNumber":51},{"time":14666.652000000015,"duration":111.11100000000079,"noteNumber":79,"velocity":85,"programNumber":51},{"time":14777.763000000015,"duration":111.11100000000079,"noteNumber":78,"velocity":85,"programNumber":51},{"time":14888.874000000016,"duration":111.11100000000079,"noteNumber":76,"velocity":85,"programNumber":51},{"time":14999.985000000017,"duration":111.11100000000079,"noteNumber":78,"velocity":85,"programNumber":51},{"time":15111.096000000018,"duration":111.11100000000079,"noteNumber":79,"velocity":85,"programNumber":51},{"time":15333.31800000002,"duration":111.11100000000079,"noteNumber":79,"velocity":85,"programNumber":51},{"time":15555.54000000002,"duration":111.11100000000079,"noteNumber":83,"velocity":85,"programNumber":51},{"time":15666.651000000022,"duration":111.11100000000079,"noteNumber":81,"velocity":85,"programNumber":51},{"time":15777.762000000022,"duration":111.11100000000079,"noteNumber":79,"velocity":85,"programNumber":51},{"time":15888.873000000023,"duration":111.11100000000079,"noteNumber":81,"velocity":85,"programNumber":51},{"time":15999.984000000024,"duration":111.11100000000079,"noteNumber":83,"velocity":86,"programNumber":51},{"time":16222.206000000026,"duration":111.11100000000079,"noteNumber":83,"velocity":86,"programNumber":51},{"time":16444.428000000025,"duration":111.11100000000079,"noteNumber":86,"velocity":83,"programNumber":51},{"time":16555.539000000026,"duration":111.11100000000079,"noteNumber":84,"velocity":80,"programNumber":51},{"time":16666.650000000027,"duration":111.11100000000079,"noteNumber":83,"velocity":80,"programNumber":51},{"time":16777.761000000028,"duration":111.11100000000079,"noteNumber":84,"velocity":79,"programNumber":51},{"time":16888.87200000003,"duration":444.4439999999995,"noteNumber":86,"velocity":76,"programNumber":51},{"time":17777.760000000028,"duration":888.887999999999,"noteNumber":74,"velocity":41,"programNumber":51},{"time":18666.648000000027,"duration":888.887999999999,"noteNumber":76,"velocity":47,"programNumber":51},{"time":19555.536000000026,"duration":111.11100000000079,"noteNumber":74,"velocity":47,"programNumber":51},{"time":19666.647000000026,"duration":296.29599999999846,"noteNumber":72,"velocity":47,"programNumber":51},{"time":19999.980000000025,"duration":444.4439999999995,"noteNumber":72,"velocity":47,"programNumber":51},{"time":20444.424000000025,"duration":111.11100000000079,"noteNumber":72,"velocity":47,"programNumber":51},{"time":20555.535000000025,"duration":296.29599999999846,"noteNumber":71,"velocity":47,"programNumber":51},{"time":20888.868000000024,"duration":444.4439999999995,"noteNumber":71,"velocity":47,"programNumber":51},{"time":21333.312000000024,"duration":111.11100000000079,"noteNumber":71,"velocity":47,"programNumber":51},{"time":21444.423000000024,"duration":296.29599999999846,"noteNumber":69,"velocity":47,"programNumber":51},{"time":21777.756000000023,"duration":444.4439999999995,"noteNumber":69,"velocity":47,"programNumber":51},{"time":22222.200000000023,"duration":222.22200000000157,"noteNumber":67,"velocity":47,"programNumber":51},{"time":22444.422000000024,"duration":111.11100000000079,"noteNumber":66,"velocity":47,"programNumber":51},{"time":22666.644000000026,"duration":111.11100000000079,"noteNumber":64,"velocity":47,"programNumber":51},{"time":22888.866000000027,"duration":111.11100000000079,"noteNumber":66,"velocity":47,"programNumber":51},{"time":23111.08800000003,"duration":222.22200000000157,"noteNumber":67,"velocity":47,"programNumber":51},{"time":23555.532000000032,"duration":222.22200000000157,"noteNumber":69,"velocity":47,"programNumber":51},{"time":23999.976000000035,"duration":222.22200000000157,"noteNumber":71,"velocity":47,"programNumber":51},{"time":24888.864000000038,"duration":888.887999999999,"noteNumber":74,"velocity":47,"programNumber":51},{"time":25777.752000000037,"duration":888.887999999999,"noteNumber":76,"velocity":47,"programNumber":51},{"time":26666.640000000036,"duration":222.22200000000157,"noteNumber":74,"velocity":47,"programNumber":51},{"time":26888.862000000037,"duration":111.11100000000079,"noteNumber":72,"velocity":47,"programNumber":51},{"time":27111.08400000004,"duration":111.11100000000079,"noteNumber":72,"velocity":47,"programNumber":51},{"time":27333.30600000004,"duration":111.11100000000079,"noteNumber":72,"velocity":47,"programNumber":51},{"time":27555.528000000042,"duration":222.22200000000157,"noteNumber":72,"velocity":47,"programNumber":51},{"time":27777.750000000044,"duration":111.11100000000079,"noteNumber":71,"velocity":47,"programNumber":51},{"time":27999.972000000045,"duration":111.11100000000079,"noteNumber":71,"velocity":47,"programNumber":51},{"time":28222.194000000047,"duration":111.11100000000079,"noteNumber":71,"velocity":47,"programNumber":51},{"time":28444.41600000005,"duration":222.22200000000157,"noteNumber":71,"velocity":47,"programNumber":51},{"time":28666.63800000005,"duration":111.11100000000079,"noteNumber":69,"velocity":47,"programNumber":51},{"time":28888.86000000005,"duration":166.66649999999936,"noteNumber":69,"velocity":47,"programNumber":51},{"time":29111.08200000005,"duration":166.66649999999936,"noteNumber":69,"velocity":47,"programNumber":51},{"time":29333.304000000047,"duration":222.22200000000157,"noteNumber":67,"velocity":47,"programNumber":51},{"time":29555.52600000005,"duration":222.22200000000157,"noteNumber":66,"velocity":47,"programNumber":51},{"time":29777.74800000005,"duration":222.22200000000157,"noteNumber":64,"velocity":47,"programNumber":51},{"time":29999.970000000052,"duration":222.22200000000157,"noteNumber":66,"velocity":47,"programNumber":51},{"time":30222.192000000054,"duration":1111.1100000000006,"noteNumber":67,"velocity":85,"programNumber":51},{"time":30222.192000000054,"duration":1111.1100000000006,"noteNumber":55,"velocity":85,"programNumber":51},{"time":31333.302000000054,"duration":55.555499999998574,"noteNumber":67,"velocity":61,"programNumber":51},{"time":31388.857500000053,"duration":55.555499999998574,"noteNumber":69,"velocity":61,"programNumber":51},{"time":31444.41300000005,"duration":55.555499999998574,"noteNumber":66,"velocity":61,"programNumber":51},{"time":31499.96850000005,"duration":55.555499999998574,"noteNumber":67,"velocity":61,"programNumber":51},{"time":31555.52400000005,"duration":222.22200000000157,"noteNumber":69,"velocity":61,"programNumber":51},{"time":31777.74600000005,"duration":222.22200000000157,"noteNumber":66,"velocity":61,"programNumber":51},{"time":31999.96800000005,"duration":1111.1100000000006,"noteNumber":71,"velocity":85,"programNumber":51},{"time":33111.07800000005,"duration":55.55550000000221,"noteNumber":71,"velocity":61,"programNumber":51},{"time":33166.633500000054,"duration":55.55550000000221,"noteNumber":72,"velocity":61,"programNumber":51},{"time":33222.18900000006,"duration":55.55550000000221,"noteNumber":69,"velocity":61,"programNumber":51},{"time":33277.74450000006,"duration":55.55550000000221,"noteNumber":71,"velocity":61,"programNumber":51},{"time":33333.30000000006,"duration":222.22200000000157,"noteNumber":72,"velocity":61,"programNumber":51},{"time":33555.52200000006,"duration":222.22200000000157,"noteNumber":69,"velocity":61,"programNumber":51},{"time":33777.744000000064,"duration":74.07400000000052,"noteNumber":74,"velocity":46,"programNumber":51},{"time":33888.85500000006,"duration":74.07400000000052,"noteNumber":74,"velocity":46,"programNumber":51},{"time":33999.96600000006,"duration":74.07400000000052,"noteNumber":74,"velocity":47,"programNumber":51},{"time":34111.077000000056,"duration":74.07400000000052,"noteNumber":74,"velocity":47,"programNumber":51},{"time":34222.18800000005,"duration":74.07400000000052,"noteNumber":74,"velocity":49,"programNumber":51},{"time":34333.29900000005,"duration":74.07400000000052,"noteNumber":74,"velocity":50,"programNumber":51},{"time":34444.41000000005,"duration":74.07400000000052,"noteNumber":74,"velocity":50,"programNumber":51},{"time":34555.521000000044,"duration":74.07400000000052,"noteNumber":74,"velocity":52,"programNumber":51},{"time":34666.63200000004,"duration":74.07400000000052,"noteNumber":76,"velocity":53,"programNumber":51},{"time":34777.74300000004,"duration":74.07400000000052,"noteNumber":76,"velocity":53,"programNumber":51},{"time":34888.854000000036,"duration":74.07400000000052,"noteNumber":76,"velocity":55,"programNumber":51},{"time":34999.96500000003,"duration":74.07400000000052,"noteNumber":76,"velocity":56,"programNumber":51},{"time":35111.07600000003,"duration":74.07400000000052,"noteNumber":78,"velocity":56,"programNumber":51},{"time":35222.18700000003,"duration":74.07400000000052,"noteNumber":78,"velocity":58,"programNumber":51},{"time":35333.298000000024,"duration":74.07400000000052,"noteNumber":78,"velocity":58,"programNumber":51},{"time":35444.40900000002,"duration":74.07400000000052,"noteNumber":78,"velocity":59,"programNumber":51},{"time":35555.52000000002,"duration":74.07400000000052,"noteNumber":79,"velocity":61,"programNumber":51},{"time":35666.631000000016,"duration":74.07400000000052,"noteNumber":79,"velocity":61,"programNumber":51},{"time":35777.74200000001,"duration":74.07400000000052,"noteNumber":79,"velocity":62,"programNumber":51},{"time":35888.85300000001,"duration":74.07400000000052,"noteNumber":79,"velocity":64,"programNumber":51},{"time":35999.96400000001,"duration":74.07400000000052,"noteNumber":81,"velocity":64,"programNumber":51},{"time":36111.075000000004,"duration":74.07400000000052,"noteNumber":81,"velocity":65,"programNumber":51},{"time":36222.186,"duration":74.07400000000052,"noteNumber":81,"velocity":67,"programNumber":51},{"time":36333.297,"duration":74.07400000000052,"noteNumber":81,"velocity":67,"programNumber":51},{"time":36444.407999999996,"duration":74.07400000000052,"noteNumber":83,"velocity":68,"programNumber":51},{"time":36555.51899999999,"duration":74.07400000000052,"noteNumber":83,"velocity":68,"programNumber":51},{"time":36666.62999999999,"duration":74.07400000000052,"noteNumber":83,"velocity":70,"programNumber":51},{"time":36777.74099999999,"duration":74.07400000000052,"noteNumber":83,"velocity":71,"programNumber":51},{"time":36888.851999999984,"duration":74.07400000000052,"noteNumber":85,"velocity":71,"programNumber":51},{"time":36999.96299999998,"duration":74.07400000000052,"noteNumber":85,"velocity":73,"programNumber":51},{"time":37111.07399999998,"duration":74.07400000000052,"noteNumber":85,"velocity":74,"programNumber":51},{"time":37222.184999999976,"duration":74.07400000000052,"noteNumber":85,"velocity":74,"programNumber":51},{"time":37333.29599999997,"duration":666.6659999999974,"noteNumber":86,"velocity":85,"programNumber":51},{"time":37999.96199999997,"duration":222.22200000000157,"noteNumber":81,"velocity":85,"programNumber":51},{"time":38222.18399999997,"duration":333.3329999999987,"noteNumber":85,"velocity":94,"programNumber":51},{"time":38555.51699999997,"duration":111.11099999999715,"noteNumber":81,"velocity":85,"programNumber":51},{"time":38666.62799999997,"duration":333.3329999999987,"noteNumber":85,"velocity":85,"programNumber":51},{"time":38999.96099999997,"duration":111.11099999999715,"noteNumber":81,"velocity":85,"programNumber":51},{"time":39111.071999999964,"duration":666.6659999999974,"noteNumber":86,"velocity":85,"programNumber":51},{"time":39777.73799999996,"duration":222.22200000000157,"noteNumber":81,"velocity":85,"programNumber":51},{"time":39999.95999999996,"duration":333.3329999999987,"noteNumber":85,"velocity":85,"programNumber":51},{"time":40333.29299999996,"duration":111.11099999999715,"noteNumber":81,"velocity":85,"programNumber":51},{"time":40444.40399999996,"duration":333.3329999999987,"noteNumber":85,"velocity":85,"programNumber":51},{"time":40777.73699999996,"duration":111.11099999999715,"noteNumber":81,"velocity":85,"programNumber":51},{"time":40888.847999999954,"duration":111.11099999999715,"noteNumber":86,"velocity":85,"programNumber":51},{"time":41111.06999999995,"duration":333.3329999999987,"noteNumber":86,"velocity":85,"programNumber":51},{"time":41111.06999999995,"duration":333.3329999999987,"noteNumber":78,"velocity":85,"programNumber":51},{"time":41555.513999999945,"duration":333.3329999999987,"noteNumber":86,"velocity":85,"programNumber":51},{"time":41555.513999999945,"duration":333.3329999999987,"noteNumber":78,"velocity":85,"programNumber":51},{"time":41999.95799999994,"duration":333.3329999999987,"noteNumber":86,"velocity":85,"programNumber":51},{"time":41999.95799999994,"duration":333.3329999999987,"noteNumber":78,"velocity":85,"programNumber":51},{"time":42444.40199999994,"duration":222.22200000000157,"noteNumber":78,"velocity":85,"programNumber":51},{"time":42666.62399999994,"duration":111.11099999999715,"noteNumber":76,"velocity":85,"programNumber":51},{"time":42444.40199999994,"duration":333.3329999999987,"noteNumber":86,"velocity":85,"programNumber":51},{"time":42888.84599999993,"duration":333.3329999999987,"noteNumber":86,"velocity":85,"programNumber":51},{"time":42888.84599999993,"duration":333.3329999999987,"noteNumber":76,"velocity":85,"programNumber":51},{"time":43333.28999999993,"duration":333.3329999999987,"noteNumber":86,"velocity":85,"programNumber":51},{"time":43333.28999999993,"duration":333.3329999999987,"noteNumber":76,"velocity":85,"programNumber":51},{"time":43777.733999999924,"duration":333.3329999999987,"noteNumber":86,"velocity":85,"programNumber":51},{"time":43777.733999999924,"duration":333.3329999999987,"noteNumber":76,"velocity":85,"programNumber":51},{"time":44222.17799999992,"duration":222.22200000000157,"noteNumber":86,"velocity":85,"programNumber":51},{"time":44222.17799999992,"duration":222.22200000000157,"noteNumber":76,"velocity":85,"programNumber":51},{"time":44444.39999999992,"duration":166.66649999999936,"noteNumber":85,"velocity":92,"programNumber":51},{"time":44444.39999999992,"duration":166.66649999999936,"noteNumber":76,"velocity":92,"programNumber":51},{"time":44666.62199999992,"duration":166.66649999999936,"noteNumber":81,"velocity":85,"programNumber":51},{"time":44888.843999999925,"duration":166.66649999999936,"noteNumber":86,"velocity":85,"programNumber":51},{"time":45111.065999999926,"duration":166.66649999999936,"noteNumber":81,"velocity":85,"programNumber":51},{"time":45333.28799999993,"duration":166.66649999999936,"noteNumber":85,"velocity":85,"programNumber":51},{"time":45555.50999999993,"duration":166.66649999999936,"noteNumber":81,"velocity":85,"programNumber":51},{"time":45777.73199999993,"duration":166.66649999999936,"noteNumber":86,"velocity":85,"programNumber":51},{"time":45999.95399999993,"duration":166.66649999999936,"noteNumber":81,"velocity":85,"programNumber":51},{"time":46222.175999999934,"duration":166.66649999999936,"noteNumber":85,"velocity":94,"programNumber":51},{"time":46444.397999999936,"duration":166.66649999999936,"noteNumber":69,"velocity":85,"programNumber":51},{"time":46666.61999999994,"duration":166.66649999999936,"noteNumber":69,"velocity":85,"programNumber":51},{"time":46888.84199999994,"duration":166.66649999999936,"noteNumber":69,"velocity":85,"programNumber":51},{"time":47111.06399999994,"duration":444.44400000000314,"noteNumber":69,"velocity":85,"programNumber":51},{"time":47999.95199999994,"duration":666.6659999999902,"noteNumber":81,"velocity":55,"programNumber":51},{"time":48666.61799999993,"duration":74.07400000000052,"noteNumber":79,"velocity":55,"programNumber":51},{"time":48740.69199999993,"duration":74.07400000000052,"noteNumber":78,"velocity":55,"programNumber":51},{"time":48814.76599999993,"duration":74.07400000000052,"noteNumber":76,"velocity":55,"programNumber":51},{"time":48888.83999999993,"duration":222.22200000000157,"noteNumber":74,"velocity":55,"programNumber":51},{"time":49333.283999999934,"duration":222.22200000000157,"noteNumber":83,"velocity":55,"programNumber":51},{"time":49777.72799999994,"duration":222.22200000000157,"noteNumber":79,"velocity":55,"programNumber":51},{"time":50222.17199999994,"duration":222.22200000000157,"noteNumber":76,"velocity":55,"programNumber":51},{"time":50666.61599999994,"duration":222.22200000000157,"noteNumber":81,"velocity":55,"programNumber":51},{"time":51555.50399999994,"duration":666.6659999999974,"noteNumber":78,"velocity":55,"programNumber":51},{"time":52222.16999999994,"duration":74.07400000000052,"noteNumber":76,"velocity":55,"programNumber":51},{"time":52296.24399999994,"duration":74.07400000000052,"noteNumber":74,"velocity":55,"programNumber":51},{"time":52370.31799999994,"duration":74.07400000000052,"noteNumber":73,"velocity":55,"programNumber":51},{"time":52444.39199999994,"duration":222.22200000000157,"noteNumber":71,"velocity":55,"programNumber":51},{"time":52888.835999999945,"duration":222.22200000000157,"noteNumber":79,"velocity":55,"programNumber":51},{"time":53333.27999999995,"duration":888.887999999999,"noteNumber":78,"velocity":55,"programNumber":51},{"time":54222.16799999995,"duration":444.44400000000314,"noteNumber":76,"velocity":49,"programNumber":51},{"time":55333.27799999995,"duration":111.11099999999715,"noteNumber":81,"velocity":55,"programNumber":51},{"time":55555.49999999994,"duration":111.11099999999715,"noteNumber":81,"velocity":55,"programNumber":51},{"time":55777.721999999936,"duration":111.11099999999715,"noteNumber":81,"velocity":55,"programNumber":51},{"time":55999.94399999993,"duration":111.11099999999715,"noteNumber":81,"velocity":55,"programNumber":51},{"time":56222.165999999925,"duration":111.11099999999715,"noteNumber":81,"velocity":55,"programNumber":51},{"time":56444.38799999992,"duration":111.11099999999715,"noteNumber":81,"velocity":55,"programNumber":51},{"time":56666.60999999991,"duration":111.11099999999715,"noteNumber":81,"velocity":55,"programNumber":51},{"time":56888.83199999991,"duration":111.11099999999715,"noteNumber":81,"velocity":55,"programNumber":51},{"time":57111.0539999999,"duration":111.11099999999715,"noteNumber":81,"velocity":55,"programNumber":51},{"time":57333.275999999896,"duration":111.11099999999715,"noteNumber":81,"velocity":55,"programNumber":51},{"time":57555.49799999989,"duration":111.11099999999715,"noteNumber":81,"velocity":55,"programNumber":51},{"time":57777.719999999885,"duration":111.11099999999715,"noteNumber":81,"velocity":55,"programNumber":51},{"time":57999.94199999988,"duration":111.11099999999715,"noteNumber":81,"velocity":55,"programNumber":51},{"time":58222.16399999987,"duration":111.11099999999715,"noteNumber":83,"velocity":55,"programNumber":51},{"time":58444.38599999987,"duration":111.11099999999715,"noteNumber":85,"velocity":55,"programNumber":51},{"time":58666.60799999986,"duration":222.22200000000157,"noteNumber":85,"velocity":55,"programNumber":51},{"time":58888.82999999986,"duration":222.22200000000157,"noteNumber":86,"velocity":55,"programNumber":51},{"time":59333.27399999987,"duration":111.11099999999715,"noteNumber":83,"velocity":55,"programNumber":51},{"time":59555.49599999986,"duration":222.22200000000157,"noteNumber":83,"velocity":55,"programNumber":51},{"time":59777.71799999986,"duration":222.22200000000157,"noteNumber":81,"velocity":55,"programNumber":51},{"time":60222.161999999866,"duration":166.66649999999936,"noteNumber":73,"velocity":55,"programNumber":51},{"time":60444.38399999987,"duration":444.44400000000314,"noteNumber":74,"velocity":55,"programNumber":51},{"time":61111.04999999987,"duration":111.11099999999715,"noteNumber":81,"velocity":55,"programNumber":51},{"time":61333.271999999866,"duration":222.22200000000157,"noteNumber":86,"velocity":55,"programNumber":51},{"time":61555.49399999987,"duration":222.22200000000157,"noteNumber":85,"velocity":55,"programNumber":51},{"time":61777.71599999987,"duration":222.22200000000157,"noteNumber":83,"velocity":55,"programNumber":51},{"time":61999.93799999987,"duration":222.22200000000157,"noteNumber":81,"velocity":55,"programNumber":51},{"time":62222.15999999987,"duration":55.55550000000221,"noteNumber":83,"velocity":55,"programNumber":51},{"time":62277.715499999875,"duration":55.55550000000221,"noteNumber":85,"velocity":55,"programNumber":51},{"time":62333.27099999988,"duration":55.55550000000221,"noteNumber":83,"velocity":55,"programNumber":51},{"time":62388.82649999988,"duration":55.55550000000221,"noteNumber":85,"velocity":55,"programNumber":51},{"time":62444.38199999988,"duration":222.22200000000157,"noteNumber":81,"velocity":55,"programNumber":51},{"time":62888.825999999885,"duration":111.11099999999715,"noteNumber":81,"velocity":55,"programNumber":51},{"time":63111.04799999988,"duration":111.11099999999715,"noteNumber":81,"velocity":55,"programNumber":51},{"time":63333.26999999987,"duration":111.11099999999715,"noteNumber":81,"velocity":55,"programNumber":51},{"time":63555.49199999987,"duration":111.11099999999715,"noteNumber":81,"velocity":55,"programNumber":51},{"time":63777.71399999986,"duration":111.11099999999715,"noteNumber":81,"velocity":55,"programNumber":51},{"time":63999.935999999856,"duration":55.55550000000221,"noteNumber":83,"velocity":55,"programNumber":51},{"time":64055.49149999986,"duration":55.55550000000221,"noteNumber":85,"velocity":55,"programNumber":51},{"time":64111.04699999986,"duration":55.55550000000221,"noteNumber":83,"velocity":55,"programNumber":51},{"time":64166.60249999986,"duration":55.55550000000221,"noteNumber":85,"velocity":55,"programNumber":51},{"time":64222.157999999865,"duration":222.22200000000157,"noteNumber":81,"velocity":55,"programNumber":51},{"time":64666.60199999987,"duration":166.66649999999936,"noteNumber":81,"velocity":55,"programNumber":51},{"time":64888.82399999987,"duration":222.22200000000157,"noteNumber":86,"velocity":55,"programNumber":51},{"time":65111.04599999987,"duration":222.22200000000157,"noteNumber":85,"velocity":55,"programNumber":51},{"time":65333.26799999987,"duration":222.22200000000157,"noteNumber":83,"velocity":55,"programNumber":51},{"time":65555.48999999987,"duration":222.2219999999943,"noteNumber":81,"velocity":55,"programNumber":51},{"time":65777.71199999987,"duration":55.55550000000221,"noteNumber":83,"velocity":55,"programNumber":51},{"time":65833.26749999987,"duration":55.55550000000221,"noteNumber":85,"velocity":55,"programNumber":51},{"time":65888.82299999987,"duration":55.55550000000221,"noteNumber":83,"velocity":55,"programNumber":51},{"time":65944.37849999988,"duration":55.55550000000221,"noteNumber":85,"velocity":55,"programNumber":51},{"time":65999.93399999988,"duration":222.2219999999943,"noteNumber":81,"velocity":55,"programNumber":51},{"time":66444.37799999987,"duration":111.11100000000442,"noteNumber":81,"velocity":55,"programNumber":51},{"time":66666.59999999987,"duration":111.11100000000442,"noteNumber":81,"velocity":55,"programNumber":51},{"time":66888.82199999988,"duration":111.11100000000442,"noteNumber":81,"velocity":55,"programNumber":51},{"time":67111.04399999989,"duration":111.11100000000442,"noteNumber":81,"velocity":55,"programNumber":51},{"time":67333.2659999999,"duration":111.11100000000442,"noteNumber":81,"velocity":53,"programNumber":51},{"time":67555.48799999991,"duration":55.55550000000221,"noteNumber":83,"velocity":49,"programNumber":51},{"time":67611.04349999991,"duration":55.55550000000221,"noteNumber":85,"velocity":49,"programNumber":51},{"time":67666.59899999991,"duration":55.55550000000221,"noteNumber":83,"velocity":47,"programNumber":51},{"time":67722.15449999992,"duration":55.55550000000221,"noteNumber":85,"velocity":47,"programNumber":51},{"time":67777.70999999992,"duration":222.2219999999943,"noteNumber":81,"velocity":46,"programNumber":51},{"time":68444.37599999992,"duration":629.6290000000008,"noteNumber":83,"velocity":91,"programNumber":51},{"time":68444.37599999992,"duration":629.6290000000008,"noteNumber":71,"velocity":91,"programNumber":51},{"time":69111.04199999991,"duration":74.07399999999325,"noteNumber":81,"velocity":89,"programNumber":51},{"time":69185.1159999999,"duration":74.07399999999325,"noteNumber":79,"velocity":92,"programNumber":51},{"time":69259.1899999999,"duration":74.07399999999325,"noteNumber":78,"velocity":94,"programNumber":51},{"time":69333.2639999999,"duration":444.44400000000314,"noteNumber":79,"velocity":97,"programNumber":51},{"time":70222.1519999999,"duration":629.6290000000008,"noteNumber":69,"velocity":85,"programNumber":51},{"time":70222.1519999999,"duration":629.6290000000008,"noteNumber":81,"velocity":85,"programNumber":51},{"time":70888.8179999999,"duration":74.07399999999325,"noteNumber":79,"velocity":86,"programNumber":51},{"time":70962.89199999989,"duration":74.07399999999325,"noteNumber":78,"velocity":86,"programNumber":51},{"time":71036.96599999988,"duration":74.07399999999325,"noteNumber":76,"velocity":89,"programNumber":51},{"time":71111.03999999988,"duration":444.44400000000314,"noteNumber":78,"velocity":92,"programNumber":51},{"time":71999.92799999988,"duration":222.2219999999943,"noteNumber":83,"velocity":85,"programNumber":51},{"time":72222.14999999988,"duration":111.11100000000442,"noteNumber":85,"velocity":85,"programNumber":51},{"time":72333.26099999988,"duration":111.11100000000442,"noteNumber":86,"velocity":89,"programNumber":51},{"time":72444.37199999989,"duration":166.66650000000664,"noteNumber":85,"velocity":94,"programNumber":51},{"time":72666.5939999999,"duration":111.11100000000442,"noteNumber":83,"velocity":95,"programNumber":51},{"time":72888.8159999999,"duration":222.2219999999943,"noteNumber":83,"velocity":97,"programNumber":51},{"time":73111.0379999999,"duration":166.66650000000664,"noteNumber":81,"velocity":101,"programNumber":51},{"time":73333.25999999991,"duration":111.11100000000442,"noteNumber":78,"velocity":104,"programNumber":51},{"time":73555.48199999992,"duration":111.11100000000442,"noteNumber":81,"velocity":104,"programNumber":51},{"time":73777.70399999993,"duration":222.2219999999943,"noteNumber":81,"velocity":104,"programNumber":51},{"time":73999.92599999992,"duration":166.66650000000664,"noteNumber":79,"velocity":103,"programNumber":51},{"time":74222.14799999993,"duration":111.11100000000442,"noteNumber":78,"velocity":98,"programNumber":51},{"time":74444.36999999994,"duration":111.11100000000442,"noteNumber":76,"velocity":89,"programNumber":51},{"time":74666.59199999995,"duration":444.44400000000314,"noteNumber":74,"velocity":85,"programNumber":51},{"time":75333.25799999994,"duration":111.11100000000442,"noteNumber":81,"velocity":53,"programNumber":51},{"time":75555.47999999995,"duration":222.2219999999943,"noteNumber":86,"velocity":53,"programNumber":51},{"time":75777.70199999995,"duration":222.2219999999943,"noteNumber":85,"velocity":53,"programNumber":51},{"time":75999.92399999994,"duration":222.2219999999943,"noteNumber":83,"velocity":53,"programNumber":51},{"time":76222.14599999994,"duration":222.2219999999943,"noteNumber":81,"velocity":53,"programNumber":51},{"time":76444.36799999993,"duration":55.55550000000221,"noteNumber":83,"velocity":55,"programNumber":51},{"time":76499.92349999993,"duration":55.55550000000221,"noteNumber":85,"velocity":55,"programNumber":51},{"time":76555.47899999993,"duration":55.55550000000221,"noteNumber":83,"velocity":55,"programNumber":51},{"time":76611.03449999994,"duration":55.55550000000221,"noteNumber":85,"velocity":55,"programNumber":51},{"time":76666.58999999994,"duration":222.2219999999943,"noteNumber":81,"velocity":55,"programNumber":51},{"time":77111.03399999993,"duration":111.11100000000442,"noteNumber":81,"velocity":55,"programNumber":51},{"time":77333.25599999994,"duration":111.11100000000442,"noteNumber":81,"velocity":55,"programNumber":51},{"time":77555.47799999994,"duration":111.11100000000442,"noteNumber":81,"velocity":55,"programNumber":51},{"time":77777.69999999995,"duration":111.11100000000442,"noteNumber":81,"velocity":55,"programNumber":51},{"time":77999.92199999996,"duration":111.11100000000442,"noteNumber":81,"velocity":55,"programNumber":51},{"time":78222.14399999997,"duration":55.55550000000221,"noteNumber":83,"velocity":55,"programNumber":51},{"time":78277.69949999997,"duration":55.55550000000221,"noteNumber":85,"velocity":55,"programNumber":51},{"time":78333.25499999998,"duration":55.55550000000221,"noteNumber":83,"velocity":55,"programNumber":51},{"time":78388.81049999998,"duration":55.55550000000221,"noteNumber":85,"velocity":55,"programNumber":51},{"time":78444.36599999998,"duration":222.2219999999943,"noteNumber":81,"velocity":55,"programNumber":51},{"time":78888.80999999997,"duration":166.66650000000664,"noteNumber":81,"velocity":55,"programNumber":51},{"time":79111.03199999998,"duration":222.2219999999943,"noteNumber":86,"velocity":55,"programNumber":51},{"time":79333.25399999997,"duration":222.2219999999943,"noteNumber":85,"velocity":55,"programNumber":51},{"time":79555.47599999997,"duration":222.2219999999943,"noteNumber":83,"velocity":55,"programNumber":51},{"time":79777.69799999996,"duration":222.2219999999943,"noteNumber":81,"velocity":55,"programNumber":51},{"time":79999.91999999995,"duration":55.55550000000221,"noteNumber":83,"velocity":55,"programNumber":51},{"time":80055.47549999996,"duration":55.55550000000221,"noteNumber":85,"velocity":55,"programNumber":51},{"time":80111.03099999996,"duration":55.55550000000221,"noteNumber":83,"velocity":55,"programNumber":51},{"time":80166.58649999996,"duration":55.55550000000221,"noteNumber":85,"velocity":55,"programNumber":51},{"time":80222.14199999996,"duration":222.2219999999943,"noteNumber":81,"velocity":55,"programNumber":51},{"time":80666.58599999995,"duration":111.11100000000442,"noteNumber":81,"velocity":55,"programNumber":51},{"time":80888.80799999996,"duration":111.11100000000442,"noteNumber":81,"velocity":55,"programNumber":51},{"time":81111.02999999997,"duration":111.11100000000442,"noteNumber":81,"velocity":55,"programNumber":51},{"time":81333.25199999998,"duration":111.11100000000442,"noteNumber":81,"velocity":55,"programNumber":51},{"time":81555.47399999999,"duration":111.11100000000442,"noteNumber":81,"velocity":55,"programNumber":51},{"time":81777.696,"duration":55.55550000000221,"noteNumber":83,"velocity":59,"programNumber":51},{"time":81833.2515,"duration":55.55550000000221,"noteNumber":85,"velocity":59,"programNumber":51},{"time":81888.807,"duration":55.55550000000221,"noteNumber":83,"velocity":59,"programNumber":51},{"time":81944.3625,"duration":55.55550000000221,"noteNumber":85,"velocity":59,"programNumber":51},{"time":81999.918,"duration":222.2219999999943,"noteNumber":81,"velocity":59,"programNumber":51},{"time":82666.584,"duration":629.6290000000008,"noteNumber":83,"velocity":85,"programNumber":51},{"time":82666.584,"duration":629.6290000000008,"noteNumber":71,"velocity":85,"programNumber":51},{"time":83333.25,"duration":74.07399999999325,"noteNumber":81,"velocity":85,"programNumber":51},{"time":83407.324,"duration":74.07399999999325,"noteNumber":79,"velocity":85,"programNumber":51},{"time":83481.39799999999,"duration":74.07399999999325,"noteNumber":78,"velocity":85,"programNumber":51},{"time":83555.47199999998,"duration":444.44400000000314,"noteNumber":79,"velocity":85,"programNumber":51},{"time":84444.35999999999,"duration":629.6290000000008,"noteNumber":69,"velocity":85,"programNumber":51},{"time":84444.35999999999,"duration":629.6290000000008,"noteNumber":81,"velocity":85,"programNumber":51},{"time":85111.02599999998,"duration":74.07399999999325,"noteNumber":79,"velocity":85,"programNumber":51},{"time":85185.09999999998,"duration":74.07399999999325,"noteNumber":78,"velocity":85,"programNumber":51},{"time":85259.17399999997,"duration":74.07399999999325,"noteNumber":76,"velocity":85,"programNumber":51},{"time":85333.24799999996,"duration":444.44400000000314,"noteNumber":78,"velocity":85,"programNumber":51},{"time":86222.13599999997,"duration":222.2219999999943,"noteNumber":83,"velocity":80,"programNumber":51},{"time":86444.35799999996,"duration":111.11100000000442,"noteNumber":85,"velocity":82,"programNumber":51},{"time":86555.46899999997,"duration":111.11100000000442,"noteNumber":86,"velocity":83,"programNumber":51},{"time":86666.57999999997,"duration":166.66650000000664,"noteNumber":85,"velocity":83,"programNumber":51},{"time":86888.80199999998,"duration":111.11100000000442,"noteNumber":83,"velocity":85,"programNumber":51},{"time":87111.02399999999,"duration":222.2219999999943,"noteNumber":83,"velocity":86,"programNumber":51},{"time":87333.24599999998,"duration":166.66650000000664,"noteNumber":81,"velocity":88,"programNumber":51},{"time":87555.468,"duration":111.11100000000442,"noteNumber":78,"velocity":88,"programNumber":51},{"time":87777.69,"duration":111.11100000000442,"noteNumber":81,"velocity":88,"programNumber":51},{"time":87999.91200000001,"duration":222.2219999999943,"noteNumber":81,"velocity":88,"programNumber":51},{"time":88222.134,"duration":166.66650000000664,"noteNumber":79,"velocity":88,"programNumber":51},{"time":88444.35600000001,"duration":111.11100000000442,"noteNumber":78,"velocity":88,"programNumber":51},{"time":88666.57800000002,"duration":111.11100000000442,"noteNumber":76,"velocity":88,"programNumber":51},{"time":88888.80000000003,"duration":166.66650000000664,"noteNumber":74,"velocity":88,"programNumber":51},{"time":89111.02200000004,"duration":166.66650000000664,"noteNumber":69,"velocity":88,"programNumber":51},{"time":89333.24400000005,"duration":166.66650000000664,"noteNumber":71,"velocity":88,"programNumber":51},{"time":89555.46600000006,"duration":166.66650000000664,"noteNumber":73,"velocity":85,"programNumber":51},{"time":89777.68800000007,"duration":111.11100000000442,"noteNumber":74,"velocity":82,"programNumber":51},{"time":89999.91000000008,"duration":111.11100000000442,"noteNumber":74,"velocity":85,"programNumber":51},{"time":90222.13200000009,"duration":55.55550000000221,"noteNumber":76,"velocity":85,"programNumber":51},{"time":90277.68750000009,"duration":55.55550000000221,"noteNumber":78,"velocity":85,"programNumber":51},{"time":90333.24300000009,"duration":55.55550000000221,"noteNumber":76,"velocity":85,"programNumber":51},{"time":90388.79850000009,"duration":55.55550000000221,"noteNumber":78,"velocity":85,"programNumber":51},{"time":90444.3540000001,"duration":111.11100000000442,"noteNumber":74,"velocity":85,"programNumber":51},{"time":90555.4650000001,"duration":111.11100000000442,"noteNumber":76,"velocity":85,"programNumber":51},{"time":90666.5760000001,"duration":222.2219999999943,"noteNumber":78,"velocity":85,"programNumber":51},{"time":90888.7980000001,"duration":166.66650000000664,"noteNumber":73,"velocity":85,"programNumber":51},{"time":91111.0200000001,"duration":166.66650000000664,"noteNumber":74,"velocity":85,"programNumber":51},{"time":91333.24200000011,"duration":166.66650000000664,"noteNumber":76,"velocity":85,"programNumber":51},{"time":91555.46400000012,"duration":166.66650000000664,"noteNumber":78,"velocity":85,"programNumber":51},{"time":91777.68600000013,"duration":166.66650000000664,"noteNumber":78,"velocity":85,"programNumber":51},{"time":91999.90800000014,"duration":55.55550000000221,"noteNumber":79,"velocity":85,"programNumber":51},{"time":92055.46350000014,"duration":55.55550000000221,"noteNumber":81,"velocity":86,"programNumber":51},{"time":92111.01900000015,"duration":55.55550000000221,"noteNumber":79,"velocity":88,"programNumber":51},{"time":92166.57450000015,"duration":55.55550000000221,"noteNumber":81,"velocity":88,"programNumber":51},{"time":92222.13000000015,"duration":111.11100000000442,"noteNumber":78,"velocity":88,"programNumber":51},{"time":92333.24100000015,"duration":111.11100000000442,"noteNumber":79,"velocity":88,"programNumber":51},{"time":92444.35200000016,"duration":166.66650000000664,"noteNumber":81,"velocity":88,"programNumber":51},{"time":92666.57400000017,"duration":166.66650000000664,"noteNumber":81,"velocity":91,"programNumber":51},{"time":92888.79600000018,"duration":55.55550000000221,"noteNumber":82,"velocity":92,"programNumber":51},{"time":92944.35150000018,"duration":55.55550000000221,"noteNumber":83,"velocity":92,"programNumber":51},{"time":92999.90700000018,"duration":55.55550000000221,"noteNumber":82,"velocity":94,"programNumber":51},{"time":93055.46250000018,"duration":55.55550000000221,"noteNumber":83,"velocity":94,"programNumber":51},{"time":93111.01800000019,"duration":111.11100000000442,"noteNumber":80,"velocity":95,"programNumber":51},{"time":93222.12900000019,"duration":111.11100000000442,"noteNumber":82,"velocity":97,"programNumber":51},{"time":93333.2400000002,"duration":444.44400000000314,"noteNumber":83,"velocity":100,"programNumber":51},{"time":94222.1280000002,"duration":666.6659999999974,"noteNumber":71,"velocity":47,"programNumber":51},{"time":94888.7940000002,"duration":166.66650000000664,"noteNumber":76,"velocity":47,"programNumber":51},{"time":95111.0160000002,"duration":222.2219999999943,"noteNumber":74,"velocity":47,"programNumber":51},{"time":95333.2380000002,"duration":222.2219999999943,"noteNumber":73,"velocity":47,"programNumber":51},{"time":95555.4600000002,"duration":222.2219999999943,"noteNumber":71,"velocity":49,"programNumber":51},{"time":95777.68200000019,"duration":222.2219999999943,"noteNumber":69,"velocity":50,"programNumber":51},{"time":95999.90400000018,"duration":222.2219999999943,"noteNumber":74,"velocity":50,"programNumber":51},{"time":96444.34800000017,"duration":222.2219999999943,"noteNumber":78,"velocity":50,"programNumber":51},{"time":96888.79200000016,"duration":222.2219999999943,"noteNumber":74,"velocity":41,"programNumber":51},{"time":97777.68000000015,"duration":444.44400000000314,"noteNumber":71,"velocity":85,"programNumber":51},{"time":97777.68000000015,"duration":444.44400000000314,"noteNumber":79,"velocity":85,"programNumber":51},{"time":97777.68000000015,"duration":444.44400000000314,"noteNumber":62,"velocity":85,"programNumber":51},{"time":98444.34600000015,"duration":111.11100000000442,"noteNumber":74,"velocity":85,"programNumber":51},{"time":98666.56800000016,"duration":444.44400000000314,"noteNumber":79,"velocity":85,"programNumber":51},{"time":99333.23400000016,"duration":111.11100000000442,"noteNumber":74,"velocity":85,"programNumber":51},{"time":99555.45600000017,"duration":111.11100000000442,"noteNumber":79,"velocity":85,"programNumber":51},{"time":99777.67800000017,"duration":111.11100000000442,"noteNumber":74,"velocity":85,"programNumber":51},{"time":99999.90000000018,"duration":111.11100000000442,"noteNumber":79,"velocity":85,"programNumber":51},{"time":100222.12200000019,"duration":111.11100000000442,"noteNumber":83,"velocity":85,"programNumber":51},{"time":100444.3440000002,"duration":444.44400000000314,"noteNumber":86,"velocity":85,"programNumber":51},{"time":101333.23200000021,"duration":444.44400000000314,"noteNumber":84,"velocity":85,"programNumber":51},{"time":101999.8980000002,"duration":111.11100000000442,"noteNumber":81,"velocity":76,"programNumber":51},{"time":102222.12000000021,"duration":444.44400000000314,"noteNumber":84,"velocity":85,"programNumber":51},{"time":102888.78600000021,"duration":111.11100000000442,"noteNumber":81,"velocity":76,"programNumber":51},{"time":103111.00800000022,"duration":111.11100000000442,"noteNumber":84,"velocity":85,"programNumber":51},{"time":103333.23000000023,"duration":111.11100000000442,"noteNumber":81,"velocity":74,"programNumber":51},{"time":103555.45200000024,"duration":111.11100000000442,"noteNumber":78,"velocity":85,"programNumber":51},{"time":103777.67400000025,"duration":111.11100000000442,"noteNumber":81,"velocity":71,"programNumber":51},{"time":103999.89600000026,"duration":444.44400000000314,"noteNumber":74,"velocity":85,"programNumber":51},{"time":104888.78400000026,"duration":222.2219999999943,"noteNumber":71,"velocity":85,"programNumber":51},{"time":104888.78400000026,"duration":222.2219999999943,"noteNumber":79,"velocity":85,"programNumber":51},{"time":104888.78400000026,"duration":222.2219999999943,"noteNumber":62,"velocity":85,"programNumber":51},{"time":105333.22800000025,"duration":666.6659999999974,"noteNumber":79,"velocity":85,"programNumber":51},{"time":105999.89400000025,"duration":222.2219999999943,"noteNumber":83,"velocity":85,"programNumber":51},{"time":106222.11600000024,"duration":111.11100000000442,"noteNumber":81,"velocity":85,"programNumber":51},{"time":106444.33800000025,"duration":111.11100000000442,"noteNumber":79,"velocity":85,"programNumber":51},{"time":106666.56000000026,"duration":55.55550000000221,"noteNumber":79,"velocity":85,"programNumber":51},{"time":106722.11550000026,"duration":55.55550000000221,"noteNumber":81,"velocity":85,"programNumber":51},{"time":106777.67100000026,"duration":55.55550000000221,"noteNumber":79,"velocity":85,"programNumber":51},{"time":106833.22650000027,"duration":55.55550000000221,"noteNumber":81,"velocity":85,"programNumber":51},{"time":106888.78200000027,"duration":185.18499999999767,"noteNumber":78,"velocity":85,"programNumber":51},{"time":107111.00400000026,"duration":666.6659999999974,"noteNumber":78,"velocity":85,"programNumber":51},{"time":107777.67000000026,"duration":222.2219999999943,"noteNumber":81,"velocity":85,"programNumber":51},{"time":107999.89200000025,"duration":111.11100000000442,"noteNumber":84,"velocity":85,"programNumber":51},{"time":108222.11400000026,"duration":111.11100000000442,"noteNumber":78,"velocity":85,"programNumber":51},{"time":108444.33600000027,"duration":222.2219999999943,"noteNumber":81,"velocity":85,"programNumber":51},{"time":108666.55800000027,"duration":111.11100000000442,"noteNumber":79,"velocity":85,"programNumber":51},{"time":108888.78000000028,"duration":666.6659999999974,"noteNumber":79,"velocity":85,"programNumber":51},{"time":109555.44600000027,"duration":222.2219999999943,"noteNumber":83,"velocity":85,"programNumber":51},{"time":109777.66800000027,"duration":111.11100000000442,"noteNumber":81,"velocity":85,"programNumber":51},{"time":109999.89000000028,"duration":111.11100000000442,"noteNumber":79,"velocity":85,"programNumber":51},{"time":110222.11200000028,"duration":55.55550000000221,"noteNumber":79,"velocity":85,"programNumber":51},{"time":110277.66750000029,"duration":55.55550000000221,"noteNumber":81,"velocity":85,"programNumber":51},{"time":110333.22300000029,"duration":55.55550000000221,"noteNumber":79,"velocity":85,"programNumber":51},{"time":110388.77850000029,"duration":55.55550000000221,"noteNumber":81,"velocity":85,"programNumber":51},{"time":110444.3340000003,"duration":185.18499999999767,"noteNumber":78,"velocity":85,"programNumber":51},{"time":110666.55600000029,"duration":666.6659999999974,"noteNumber":78,"velocity":85,"programNumber":51},{"time":111333.22200000029,"duration":222.2219999999943,"noteNumber":81,"velocity":85,"programNumber":51},{"time":111555.44400000028,"duration":111.11100000000442,"noteNumber":84,"velocity":85,"programNumber":51},{"time":111777.66600000029,"duration":111.11100000000442,"noteNumber":78,"velocity":85,"programNumber":51},{"time":111999.8880000003,"duration":111.11100000000442,"noteNumber":79,"velocity":85,"programNumber":51},{"time":112222.1100000003,"duration":111.11100000000442,"noteNumber":79,"velocity":85,"programNumber":51},{"time":112444.33200000032,"duration":111.11100000000442,"noteNumber":79,"velocity":85,"programNumber":51},{"time":112555.44300000032,"duration":111.11100000000442,"noteNumber":78,"velocity":85,"programNumber":51},{"time":112666.55400000032,"duration":111.11100000000442,"noteNumber":76,"velocity":85,"programNumber":51},{"time":112777.66500000033,"duration":111.11100000000442,"noteNumber":78,"velocity":85,"programNumber":51},{"time":112888.77600000033,"duration":111.11100000000442,"noteNumber":79,"velocity":85,"programNumber":51},{"time":113110.99800000034,"duration":111.11100000000442,"noteNumber":79,"velocity":85,"programNumber":51},{"time":113333.22000000035,"duration":111.11100000000442,"noteNumber":83,"velocity":85,"programNumber":51},{"time":113444.33100000035,"duration":111.11100000000442,"noteNumber":81,"velocity":85,"programNumber":51},{"time":113555.44200000036,"duration":111.11100000000442,"noteNumber":79,"velocity":85,"programNumber":51},{"time":113666.55300000036,"duration":111.11100000000442,"noteNumber":81,"velocity":85,"programNumber":51},{"time":113777.66400000037,"duration":111.11100000000442,"noteNumber":83,"velocity":85,"programNumber":51},{"time":113999.88600000038,"duration":111.11100000000442,"noteNumber":83,"velocity":85,"programNumber":51},{"time":114222.10800000039,"duration":111.11100000000442,"noteNumber":86,"velocity":85,"programNumber":51},{"time":114333.21900000039,"duration":111.11100000000442,"noteNumber":84,"velocity":85,"programNumber":51},{"time":114444.3300000004,"duration":111.11100000000442,"noteNumber":83,"velocity":85,"programNumber":51},{"time":114555.4410000004,"duration":111.11100000000442,"noteNumber":84,"velocity":85,"programNumber":51},{"time":114666.5520000004,"duration":444.44400000000314,"noteNumber":86,"velocity":85,"programNumber":51},{"time":115555.44000000041,"duration":888.8880000000063,"noteNumber":74,"velocity":52,"programNumber":51},{"time":116444.32800000042,"duration":888.8880000000063,"noteNumber":76,"velocity":40,"programNumber":51},{"time":117333.21600000042,"duration":111.11100000000442,"noteNumber":74,"velocity":44,"programNumber":51},{"time":117444.32700000043,"duration":296.2960000000021,"noteNumber":72,"velocity":46,"programNumber":51},{"time":117777.66000000043,"duration":444.44400000000314,"noteNumber":72,"velocity":46,"programNumber":51},{"time":118222.10400000043,"duration":111.11100000000442,"noteNumber":72,"velocity":47,"programNumber":51},{"time":118333.21500000043,"duration":296.2960000000021,"noteNumber":71,"velocity":47,"programNumber":51},{"time":118666.54800000043,"duration":444.44400000000314,"noteNumber":71,"velocity":47,"programNumber":51},{"time":119110.99200000043,"duration":111.11100000000442,"noteNumber":71,"velocity":47,"programNumber":51},{"time":119222.10300000044,"duration":296.2960000000021,"noteNumber":69,"velocity":47,"programNumber":51},{"time":119555.43600000044,"duration":444.44400000000314,"noteNumber":69,"velocity":47,"programNumber":51},{"time":119999.88000000044,"duration":222.2219999999943,"noteNumber":67,"velocity":47,"programNumber":51},{"time":120222.10200000044,"duration":111.11100000000442,"noteNumber":66,"velocity":47,"programNumber":51},{"time":120444.32400000044,"duration":111.11100000000442,"noteNumber":64,"velocity":47,"programNumber":51},{"time":120666.54600000045,"duration":111.11100000000442,"noteNumber":66,"velocity":47,"programNumber":51},{"time":120888.76800000046,"duration":222.2219999999943,"noteNumber":67,"velocity":47,"programNumber":51},{"time":121333.21200000045,"duration":222.2219999999943,"noteNumber":69,"velocity":47,"programNumber":51},{"time":121777.65600000044,"duration":222.2219999999943,"noteNumber":71,"velocity":47,"programNumber":51},{"time":122666.54400000043,"duration":888.8880000000063,"noteNumber":74,"velocity":54,"programNumber":51},{"time":123555.43200000044,"duration":888.8880000000063,"noteNumber":76,"velocity":59,"programNumber":51},{"time":124444.32000000044,"duration":222.2219999999943,"noteNumber":74,"velocity":47,"programNumber":51},{"time":124666.54200000044,"duration":111.11100000000442,"noteNumber":72,"velocity":47,"programNumber":51},{"time":124888.76400000045,"duration":111.11100000000442,"noteNumber":72,"velocity":47,"programNumber":51},{"time":125110.98600000046,"duration":111.11100000000442,"noteNumber":72,"velocity":47,"programNumber":51},{"time":125333.20800000046,"duration":222.2219999999943,"noteNumber":72,"velocity":47,"programNumber":51},{"time":125555.43000000046,"duration":111.11100000000442,"noteNumber":71,"velocity":47,"programNumber":51},{"time":125777.65200000047,"duration":111.11100000000442,"noteNumber":71,"velocity":47,"programNumber":51},{"time":125999.87400000048,"duration":111.11100000000442,"noteNumber":71,"velocity":47,"programNumber":51},{"time":126222.09600000049,"duration":222.2219999999943,"noteNumber":71,"velocity":47,"programNumber":51},{"time":126444.31800000048,"duration":111.11100000000442,"noteNumber":69,"velocity":47,"programNumber":51},{"time":126666.54000000049,"duration":166.66650000000664,"noteNumber":69,"velocity":47,"programNumber":51},{"time":126888.7620000005,"duration":166.66650000000664,"noteNumber":69,"velocity":47,"programNumber":51},{"time":127110.9840000005,"duration":222.2219999999943,"noteNumber":67,"velocity":47,"programNumber":51},{"time":127333.2060000005,"duration":222.2219999999943,"noteNumber":66,"velocity":47,"programNumber":51},{"time":127555.4280000005,"duration":222.2219999999943,"noteNumber":64,"velocity":47,"programNumber":51},{"time":127777.65000000049,"duration":222.2219999999943,"noteNumber":66,"velocity":47,"programNumber":51},{"time":127999.87200000048,"duration":1111.1100000000006,"noteNumber":67,"velocity":95,"programNumber":51},{"time":127999.87200000048,"duration":1111.1100000000006,"noteNumber":55,"velocity":95,"programNumber":51},{"time":129110.98200000048,"duration":55.55550000000221,"noteNumber":67,"velocity":61,"programNumber":51},{"time":129166.53750000049,"duration":55.55550000000221,"noteNumber":69,"velocity":61,"programNumber":51},{"time":129222.09300000049,"duration":55.55550000000221,"noteNumber":66,"velocity":61,"programNumber":51},{"time":129277.64850000049,"duration":55.55550000000221,"noteNumber":67,"velocity":61,"programNumber":51},{"time":129333.20400000049,"duration":222.2219999999943,"noteNumber":69,"velocity":61,"programNumber":51},{"time":129555.42600000049,"duration":222.2219999999943,"noteNumber":66,"velocity":61,"programNumber":51},{"time":129777.64800000048,"duration":1111.1100000000006,"noteNumber":71,"velocity":85,"programNumber":51},{"time":130888.75800000048,"duration":55.55550000000221,"noteNumber":71,"velocity":61,"programNumber":51},{"time":130944.31350000048,"duration":55.55550000000221,"noteNumber":72,"velocity":61,"programNumber":51},{"time":130999.86900000049,"duration":55.55550000000221,"noteNumber":69,"velocity":61,"programNumber":51},{"time":131055.42450000049,"duration":55.55549999998766,"noteNumber":71,"velocity":61,"programNumber":51},{"time":131110.98000000048,"duration":222.22200000000885,"noteNumber":72,"velocity":61,"programNumber":51},{"time":131333.20200000048,"duration":222.22200000000885,"noteNumber":69,"velocity":61,"programNumber":51},{"time":131555.4240000005,"duration":74.07399999999325,"noteNumber":74,"velocity":46,"programNumber":51},{"time":131666.5350000005,"duration":74.07399999999325,"noteNumber":74,"velocity":46,"programNumber":51},{"time":131777.6460000005,"duration":74.07399999999325,"noteNumber":74,"velocity":47,"programNumber":51},{"time":131888.7570000005,"duration":74.07399999999325,"noteNumber":74,"velocity":47,"programNumber":51},{"time":131999.8680000005,"duration":74.07399999999325,"noteNumber":74,"velocity":49,"programNumber":51},{"time":132110.97900000052,"duration":74.07399999999325,"noteNumber":74,"velocity":50,"programNumber":51},{"time":132222.09000000052,"duration":74.07399999999325,"noteNumber":74,"velocity":50,"programNumber":51},{"time":132333.20100000052,"duration":74.07399999999325,"noteNumber":74,"velocity":52,"programNumber":51},{"time":132444.31200000053,"duration":74.07399999999325,"noteNumber":76,"velocity":53,"programNumber":51},{"time":132555.42300000053,"duration":74.07399999999325,"noteNumber":76,"velocity":53,"programNumber":51},{"time":132666.53400000054,"duration":74.07399999999325,"noteNumber":76,"velocity":55,"programNumber":51},{"time":132777.64500000054,"duration":74.07399999999325,"noteNumber":76,"velocity":56,"programNumber":51},{"time":132888.75600000055,"duration":74.07399999999325,"noteNumber":78,"velocity":56,"programNumber":51},{"time":132999.86700000055,"duration":74.07399999999325,"noteNumber":78,"velocity":58,"programNumber":51},{"time":133110.97800000056,"duration":74.07399999999325,"noteNumber":78,"velocity":58,"programNumber":51},{"time":133222.08900000056,"duration":74.07399999999325,"noteNumber":78,"velocity":59,"programNumber":51},{"time":133333.20000000056,"duration":74.07399999999325,"noteNumber":79,"velocity":61,"programNumber":51},{"time":133444.31100000057,"duration":74.07399999999325,"noteNumber":79,"velocity":61,"programNumber":51},{"time":133555.42200000057,"duration":74.07399999999325,"noteNumber":79,"velocity":62,"programNumber":51},{"time":133666.53300000058,"duration":74.07399999999325,"noteNumber":79,"velocity":64,"programNumber":51},{"time":133777.64400000058,"duration":74.07399999999325,"noteNumber":81,"velocity":64,"programNumber":51},{"time":133888.7550000006,"duration":74.07399999999325,"noteNumber":81,"velocity":65,"programNumber":51},{"time":133999.8660000006,"duration":74.07399999999325,"noteNumber":81,"velocity":67,"programNumber":51},{"time":134110.9770000006,"duration":74.07399999999325,"noteNumber":81,"velocity":67,"programNumber":51},{"time":134222.0880000006,"duration":74.07399999999325,"noteNumber":83,"velocity":68,"programNumber":51},{"time":134333.1990000006,"duration":74.07399999999325,"noteNumber":83,"velocity":68,"programNumber":51},{"time":134444.3100000006,"duration":74.07399999999325,"noteNumber":83,"velocity":70,"programNumber":51},{"time":134555.4210000006,"duration":74.07399999999325,"noteNumber":83,"velocity":71,"programNumber":51},{"time":134666.53200000062,"duration":74.07399999999325,"noteNumber":85,"velocity":71,"programNumber":51},{"time":134777.64300000062,"duration":74.07399999999325,"noteNumber":85,"velocity":73,"programNumber":51},{"time":134888.75400000063,"duration":74.07399999999325,"noteNumber":85,"velocity":74,"programNumber":51},{"time":134999.86500000063,"duration":74.07399999999325,"noteNumber":85,"velocity":74,"programNumber":51},{"time":135110.97600000064,"duration":666.6659999999974,"noteNumber":86,"velocity":92,"programNumber":51},{"time":135777.64200000063,"duration":222.22200000000885,"noteNumber":81,"velocity":85,"programNumber":51},{"time":135999.86400000064,"duration":333.33300000001327,"noteNumber":85,"velocity":85,"programNumber":51},{"time":136333.19700000065,"duration":111.11100000000442,"noteNumber":81,"velocity":85,"programNumber":51},{"time":136444.30800000066,"duration":333.33300000001327,"noteNumber":85,"velocity":85,"programNumber":51},{"time":136777.64100000067,"duration":111.11100000000442,"noteNumber":81,"velocity":85,"programNumber":51},{"time":136888.75200000068,"duration":666.6659999999974,"noteNumber":86,"velocity":98,"programNumber":51},{"time":137555.41800000067,"duration":222.22200000000885,"noteNumber":81,"velocity":85,"programNumber":51},{"time":137777.64000000068,"duration":333.33300000001327,"noteNumber":85,"velocity":85,"programNumber":51},{"time":138110.9730000007,"duration":111.11100000000442,"noteNumber":81,"velocity":85,"programNumber":51},{"time":138222.0840000007,"duration":333.33300000001327,"noteNumber":85,"velocity":85,"programNumber":51},{"time":138555.4170000007,"duration":111.11100000000442,"noteNumber":81,"velocity":85,"programNumber":51},{"time":138666.52800000072,"duration":111.11100000000442,"noteNumber":86,"velocity":85,"programNumber":51},{"time":138888.75000000073,"duration":333.33300000001327,"noteNumber":86,"velocity":98,"programNumber":51},{"time":138888.75000000073,"duration":333.33300000001327,"noteNumber":78,"velocity":98,"programNumber":51},{"time":139333.19400000075,"duration":333.33300000001327,"noteNumber":86,"velocity":85,"programNumber":51},{"time":139333.19400000075,"duration":333.33300000001327,"noteNumber":78,"velocity":85,"programNumber":51},{"time":139777.63800000076,"duration":333.33300000001327,"noteNumber":86,"velocity":85,"programNumber":51},{"time":139777.63800000076,"duration":333.33300000001327,"noteNumber":78,"velocity":85,"programNumber":51},{"time":140222.08200000078,"duration":222.22200000000885,"noteNumber":78,"velocity":85,"programNumber":51},{"time":140444.3040000008,"duration":111.11100000000442,"noteNumber":76,"velocity":85,"programNumber":51},{"time":140222.08200000078,"duration":333.33300000001327,"noteNumber":86,"velocity":85,"programNumber":51},{"time":140666.5260000008,"duration":333.33300000001327,"noteNumber":86,"velocity":85,"programNumber":51},{"time":140666.5260000008,"duration":333.33300000001327,"noteNumber":76,"velocity":85,"programNumber":51},{"time":141110.97000000082,"duration":333.33300000001327,"noteNumber":86,"velocity":85,"programNumber":51},{"time":141110.97000000082,"duration":333.33300000001327,"noteNumber":76,"velocity":85,"programNumber":51},{"time":141555.41400000083,"duration":333.33300000001327,"noteNumber":86,"velocity":85,"programNumber":51},{"time":141555.41400000083,"duration":333.33300000001327,"noteNumber":76,"velocity":85,"programNumber":51},{"time":141999.85800000085,"duration":222.22200000000885,"noteNumber":86,"velocity":85,"programNumber":51},{"time":141999.85800000085,"duration":222.22200000000885,"noteNumber":76,"velocity":85,"programNumber":51},{"time":142222.08000000086,"duration":166.66649999999208,"noteNumber":85,"velocity":97,"programNumber":51},{"time":142222.08000000086,"duration":166.66649999999208,"noteNumber":76,"velocity":97,"programNumber":51},{"time":142444.30200000084,"duration":166.66649999999208,"noteNumber":81,"velocity":85,"programNumber":51},{"time":142666.52400000082,"duration":166.66649999999208,"noteNumber":86,"velocity":85,"programNumber":51},{"time":142888.7460000008,"duration":166.66649999999208,"noteNumber":81,"velocity":85,"programNumber":51},{"time":143110.96800000078,"duration":166.66649999999208,"noteNumber":85,"velocity":85,"programNumber":51},{"time":143333.19000000076,"duration":166.66649999999208,"noteNumber":81,"velocity":85,"programNumber":51},{"time":143555.41200000074,"duration":166.66649999999208,"noteNumber":86,"velocity":85,"programNumber":51},{"time":143777.63400000072,"duration":166.66649999999208,"noteNumber":81,"velocity":85,"programNumber":51},{"time":143999.8560000007,"duration":166.66649999999208,"noteNumber":85,"velocity":97,"programNumber":51},{"time":144222.07800000068,"duration":166.66649999999208,"noteNumber":69,"velocity":85,"programNumber":51},{"time":144444.30000000066,"duration":166.66649999999208,"noteNumber":69,"velocity":85,"programNumber":51},{"time":144666.52200000064,"duration":166.66649999999208,"noteNumber":69,"velocity":85,"programNumber":51},{"time":144888.74400000062,"duration":444.4439999999886,"noteNumber":69,"velocity":85,"programNumber":51},{"time":145777.6320000006,"duration":666.6659999999974,"noteNumber":81,"velocity":55,"programNumber":51},{"time":146444.2980000006,"duration":74.07399999999325,"noteNumber":79,"velocity":55,"programNumber":51},{"time":146518.37200000059,"duration":74.07399999999325,"noteNumber":78,"velocity":55,"programNumber":51},{"time":146592.44600000058,"duration":74.07399999999325,"noteNumber":76,"velocity":55,"programNumber":51},{"time":146666.52000000057,"duration":222.22200000000885,"noteNumber":74,"velocity":55,"programNumber":51},{"time":147110.9640000006,"duration":222.22200000000885,"noteNumber":83,"velocity":55,"programNumber":51},{"time":147555.4080000006,"duration":222.22200000000885,"noteNumber":79,"velocity":55,"programNumber":51},{"time":147999.85200000062,"duration":222.22200000000885,"noteNumber":76,"velocity":55,"programNumber":51},{"time":148444.29600000064,"duration":222.22200000000885,"noteNumber":81,"velocity":55,"programNumber":51},{"time":149333.18400000065,"duration":666.6659999999974,"noteNumber":78,"velocity":55,"programNumber":51},{"time":149999.85000000065,"duration":74.07399999999325,"noteNumber":76,"velocity":55,"programNumber":51},{"time":150073.92400000064,"duration":74.07399999999325,"noteNumber":74,"velocity":55,"programNumber":51},{"time":150147.99800000063,"duration":74.07399999999325,"noteNumber":73,"velocity":55,"programNumber":51},{"time":150222.07200000063,"duration":222.22200000000885,"noteNumber":71,"velocity":55,"programNumber":51},{"time":150666.51600000064,"duration":222.22200000000885,"noteNumber":79,"velocity":55,"programNumber":51},{"time":151110.96000000066,"duration":888.8880000000063,"noteNumber":78,"velocity":55,"programNumber":51},{"time":151999.84800000067,"duration":444.4439999999886,"noteNumber":76,"velocity":43,"programNumber":51},{"time":153110.95800000065,"duration":111.11100000000442,"noteNumber":81,"velocity":55,"programNumber":51},{"time":153333.18000000066,"duration":111.11100000000442,"noteNumber":81,"velocity":55,"programNumber":51},{"time":153555.40200000067,"duration":111.11100000000442,"noteNumber":81,"velocity":55,"programNumber":51},{"time":153777.62400000068,"duration":111.11100000000442,"noteNumber":81,"velocity":55,"programNumber":51},{"time":153999.8460000007,"duration":111.11100000000442,"noteNumber":81,"velocity":55,"programNumber":51},{"time":154222.0680000007,"duration":111.11100000000442,"noteNumber":81,"velocity":55,"programNumber":51},{"time":154444.2900000007,"duration":111.11100000000442,"noteNumber":81,"velocity":55,"programNumber":51},{"time":154666.51200000072,"duration":111.11100000000442,"noteNumber":81,"velocity":55,"programNumber":51},{"time":154888.73400000072,"duration":111.11100000000442,"noteNumber":81,"velocity":55,"programNumber":51},{"time":155110.95600000073,"duration":111.11100000000442,"noteNumber":81,"velocity":55,"programNumber":51},{"time":155333.17800000074,"duration":111.11100000000442,"noteNumber":81,"velocity":55,"programNumber":51},{"time":155555.40000000075,"duration":111.11100000000442,"noteNumber":81,"velocity":55,"programNumber":51},{"time":155777.62200000076,"duration":111.11100000000442,"noteNumber":81,"velocity":55,"programNumber":51},{"time":155999.84400000077,"duration":111.11100000000442,"noteNumber":83,"velocity":55,"programNumber":51},{"time":156222.06600000078,"duration":111.11100000000442,"noteNumber":85,"velocity":55,"programNumber":51},{"time":156444.2880000008,"duration":222.22200000000885,"noteNumber":85,"velocity":55,"programNumber":51},{"time":156666.5100000008,"duration":222.22200000000885,"noteNumber":86,"velocity":55,"programNumber":51},{"time":157110.9540000008,"duration":111.11100000000442,"noteNumber":83,"velocity":55,"programNumber":51},{"time":157333.17600000082,"duration":222.22200000000885,"noteNumber":83,"velocity":55,"programNumber":51},{"time":157555.39800000083,"duration":222.22200000000885,"noteNumber":81,"velocity":55,"programNumber":51},{"time":157999.84200000085,"duration":166.66649999999208,"noteNumber":73,"velocity":55,"programNumber":51},{"time":158222.06400000083,"duration":444.4439999999886,"noteNumber":74,"velocity":55,"programNumber":51},{"time":158888.73000000083,"duration":111.11100000000442,"noteNumber":81,"velocity":55,"programNumber":51},{"time":159110.95200000083,"duration":222.22200000000885,"noteNumber":86,"velocity":55,"programNumber":51},{"time":159333.17400000084,"duration":222.22200000000885,"noteNumber":85,"velocity":55,"programNumber":51},{"time":159555.39600000085,"duration":222.22200000000885,"noteNumber":83,"velocity":55,"programNumber":51},{"time":159777.61800000086,"duration":222.22200000000885,"noteNumber":81,"velocity":55,"programNumber":51},{"time":159999.84000000087,"duration":55.55549999998766,"noteNumber":83,"velocity":55,"programNumber":51},{"time":160055.39550000086,"duration":55.55549999998766,"noteNumber":85,"velocity":55,"programNumber":51},{"time":160110.95100000084,"duration":55.55549999998766,"noteNumber":83,"velocity":55,"programNumber":51},{"time":160166.50650000083,"duration":55.55549999998766,"noteNumber":85,"velocity":55,"programNumber":51},{"time":160222.06200000082,"duration":222.22200000000885,"noteNumber":81,"velocity":55,"programNumber":51},{"time":160666.50600000084,"duration":111.11100000000442,"noteNumber":81,"velocity":55,"programNumber":51},{"time":160888.72800000085,"duration":111.11100000000442,"noteNumber":81,"velocity":55,"programNumber":51},{"time":161110.95000000086,"duration":111.11100000000442,"noteNumber":81,"velocity":55,"programNumber":51},{"time":161333.17200000086,"duration":111.11100000000442,"noteNumber":81,"velocity":55,"programNumber":51},{"time":161555.39400000087,"duration":111.11100000000442,"noteNumber":81,"velocity":55,"programNumber":51},{"time":161777.61600000088,"duration":55.55549999998766,"noteNumber":83,"velocity":55,"programNumber":51},{"time":161833.17150000087,"duration":55.55549999998766,"noteNumber":85,"velocity":55,"programNumber":51},{"time":161888.72700000086,"duration":55.55549999998766,"noteNumber":83,"velocity":55,"programNumber":51},{"time":161944.28250000085,"duration":55.55549999998766,"noteNumber":85,"velocity":55,"programNumber":51},{"time":161999.83800000083,"duration":222.22200000000885,"noteNumber":81,"velocity":55,"programNumber":51},{"time":162444.28200000085,"duration":166.66649999999208,"noteNumber":81,"velocity":55,"programNumber":51},{"time":162666.50400000083,"duration":222.22200000000885,"noteNumber":86,"velocity":55,"programNumber":51},{"time":162888.72600000084,"duration":222.22200000000885,"noteNumber":85,"velocity":55,"programNumber":51},{"time":163110.94800000085,"duration":222.22200000000885,"noteNumber":83,"velocity":55,"programNumber":51},{"time":163333.17000000086,"duration":222.22200000000885,"noteNumber":81,"velocity":55,"programNumber":51},{"time":163555.39200000087,"duration":55.55549999998766,"noteNumber":83,"velocity":55,"programNumber":51},{"time":163610.94750000085,"duration":55.55549999998766,"noteNumber":85,"velocity":55,"programNumber":51},{"time":163666.50300000084,"duration":55.55549999998766,"noteNumber":83,"velocity":55,"programNumber":51},{"time":163722.05850000083,"duration":55.55549999998766,"noteNumber":85,"velocity":55,"programNumber":51},{"time":163777.61400000082,"duration":222.22200000000885,"noteNumber":81,"velocity":55,"programNumber":51},{"time":164222.05800000083,"duration":111.11100000000442,"noteNumber":81,"velocity":55,"programNumber":51},{"time":164444.28000000084,"duration":111.11100000000442,"noteNumber":81,"velocity":55,"programNumber":51},{"time":164666.50200000085,"duration":111.11100000000442,"noteNumber":81,"velocity":55,"programNumber":51},{"time":164888.72400000086,"duration":111.11100000000442,"noteNumber":81,"velocity":55,"programNumber":51},{"time":165110.94600000087,"duration":111.11100000000442,"noteNumber":81,"velocity":55,"programNumber":51},{"time":165333.16800000088,"duration":55.55549999998766,"noteNumber":83,"velocity":55,"programNumber":51},{"time":165388.72350000087,"duration":55.55549999998766,"noteNumber":85,"velocity":55,"programNumber":51},{"time":165444.27900000085,"duration":55.55549999998766,"noteNumber":83,"velocity":55,"programNumber":51},{"time":165499.83450000084,"duration":55.55549999998766,"noteNumber":85,"velocity":55,"programNumber":51},{"time":165555.39000000083,"duration":222.22200000000885,"noteNumber":81,"velocity":55,"programNumber":51},{"time":166222.05600000083,"duration":629.6289999999863,"noteNumber":83,"velocity":94,"programNumber":51},{"time":166222.05600000083,"duration":629.6289999999863,"noteNumber":71,"velocity":94,"programNumber":51},{"time":166888.72200000082,"duration":74.07399999999325,"noteNumber":81,"velocity":83,"programNumber":51},{"time":166962.79600000082,"duration":74.07399999999325,"noteNumber":79,"velocity":83,"programNumber":51},{"time":167036.8700000008,"duration":74.07399999999325,"noteNumber":78,"velocity":83,"programNumber":51},{"time":167110.9440000008,"duration":444.4439999999886,"noteNumber":79,"velocity":83,"programNumber":51},{"time":167999.83200000078,"duration":629.6289999999863,"noteNumber":69,"velocity":85,"programNumber":51},{"time":167999.83200000078,"duration":629.6289999999863,"noteNumber":81,"velocity":85,"programNumber":51},{"time":168666.49800000078,"duration":74.07399999999325,"noteNumber":79,"velocity":85,"programNumber":51},{"time":168740.57200000077,"duration":74.07399999999325,"noteNumber":78,"velocity":85,"programNumber":51},{"time":168814.64600000076,"duration":74.07399999999325,"noteNumber":76,"velocity":85,"programNumber":51},{"time":168888.72000000076,"duration":444.4439999999886,"noteNumber":78,"velocity":85,"programNumber":51},{"time":169777.60800000074,"duration":222.22200000000885,"noteNumber":83,"velocity":79,"programNumber":51},{"time":169999.83000000074,"duration":111.11100000000442,"noteNumber":85,"velocity":80,"programNumber":51},{"time":170110.94100000075,"duration":111.11100000000442,"noteNumber":86,"velocity":82,"programNumber":51},{"time":170222.05200000075,"duration":166.66649999999208,"noteNumber":85,"velocity":82,"programNumber":51},{"time":170444.27400000073,"duration":111.11100000000442,"noteNumber":83,"velocity":82,"programNumber":51},{"time":170666.49600000074,"duration":222.22200000000885,"noteNumber":83,"velocity":83,"programNumber":51},{"time":170888.71800000075,"duration":166.66649999999208,"noteNumber":81,"velocity":86,"programNumber":51},{"time":171110.94000000073,"duration":111.11100000000442,"noteNumber":78,"velocity":86,"programNumber":51},{"time":171333.16200000074,"duration":111.11100000000442,"noteNumber":81,"velocity":88,"programNumber":51},{"time":171555.38400000075,"duration":222.22200000000885,"noteNumber":81,"velocity":88,"programNumber":51},{"time":171777.60600000076,"duration":166.66649999999208,"noteNumber":79,"velocity":83,"programNumber":51},{"time":171999.82800000074,"duration":111.11100000000442,"noteNumber":78,"velocity":79,"programNumber":51},{"time":172222.05000000075,"duration":111.11100000000442,"noteNumber":76,"velocity":76,"programNumber":51},{"time":172444.27200000075,"duration":444.4439999999886,"noteNumber":74,"velocity":85,"programNumber":51},{"time":173110.93800000075,"duration":111.11100000000442,"noteNumber":81,"velocity":53,"programNumber":51},{"time":173333.16000000076,"duration":222.22200000000885,"noteNumber":86,"velocity":53,"programNumber":51},{"time":173555.38200000077,"duration":222.22200000000885,"noteNumber":85,"velocity":53,"programNumber":51},{"time":173777.60400000078,"duration":222.22200000000885,"noteNumber":83,"velocity":53,"programNumber":51},{"time":173999.8260000008,"duration":222.22200000000885,"noteNumber":81,"velocity":53,"programNumber":51},{"time":174222.0480000008,"duration":55.55549999998766,"noteNumber":83,"velocity":55,"programNumber":51},{"time":174277.60350000078,"duration":55.55549999998766,"noteNumber":85,"velocity":55,"programNumber":51},{"time":174333.15900000077,"duration":55.55549999998766,"noteNumber":83,"velocity":55,"programNumber":51},{"time":174388.71450000076,"duration":55.55549999998766,"noteNumber":85,"velocity":55,"programNumber":51},{"time":174444.27000000075,"duration":222.22200000000885,"noteNumber":81,"velocity":55,"programNumber":51},{"time":174888.71400000076,"duration":111.11100000000442,"noteNumber":81,"velocity":55,"programNumber":51},{"time":175110.93600000077,"duration":111.11100000000442,"noteNumber":81,"velocity":55,"programNumber":51},{"time":175333.15800000078,"duration":111.11100000000442,"noteNumber":81,"velocity":55,"programNumber":51},{"time":175555.3800000008,"duration":111.11100000000442,"noteNumber":81,"velocity":55,"programNumber":51},{"time":175777.6020000008,"duration":111.11100000000442,"noteNumber":81,"velocity":55,"programNumber":51},{"time":175999.8240000008,"duration":55.55549999998766,"noteNumber":83,"velocity":55,"programNumber":51},{"time":176055.3795000008,"duration":55.55549999998766,"noteNumber":85,"velocity":55,"programNumber":51},{"time":176110.93500000078,"duration":55.55549999998766,"noteNumber":83,"velocity":55,"programNumber":51},{"time":176166.49050000077,"duration":55.55549999998766,"noteNumber":85,"velocity":55,"programNumber":51},{"time":176222.04600000076,"duration":222.22200000000885,"noteNumber":81,"velocity":55,"programNumber":51},{"time":176666.49000000078,"duration":166.66649999999208,"noteNumber":81,"velocity":55,"programNumber":51},{"time":176888.71200000076,"duration":222.22200000000885,"noteNumber":86,"velocity":55,"programNumber":51},{"time":177110.93400000077,"duration":222.22200000000885,"noteNumber":85,"velocity":55,"programNumber":51},{"time":177333.15600000077,"duration":222.22200000000885,"noteNumber":83,"velocity":55,"programNumber":51},{"time":177555.37800000078,"duration":222.22200000000885,"noteNumber":81,"velocity":55,"programNumber":51},{"time":177777.6000000008,"duration":55.55549999998766,"noteNumber":83,"velocity":55,"programNumber":51},{"time":177833.15550000078,"duration":55.55549999998766,"noteNumber":85,"velocity":55,"programNumber":51},{"time":177888.71100000077,"duration":55.55549999998766,"noteNumber":83,"velocity":55,"programNumber":51},{"time":177944.26650000075,"duration":55.55549999998766,"noteNumber":85,"velocity":55,"programNumber":51},{"time":177999.82200000074,"duration":222.22200000000885,"noteNumber":81,"velocity":55,"programNumber":51},{"time":178444.26600000076,"duration":111.11100000000442,"noteNumber":81,"velocity":55,"programNumber":51},{"time":178666.48800000077,"duration":111.11100000000442,"noteNumber":81,"velocity":55,"programNumber":51},{"time":178888.71000000078,"duration":111.11100000000442,"noteNumber":81,"velocity":55,"programNumber":51},{"time":179110.9320000008,"duration":111.11100000000442,"noteNumber":81,"velocity":55,"programNumber":51},{"time":179333.1540000008,"duration":111.11100000000442,"noteNumber":81,"velocity":55,"programNumber":51},{"time":179555.3760000008,"duration":55.55549999998766,"noteNumber":83,"velocity":59,"programNumber":51},{"time":179610.9315000008,"duration":55.55549999998766,"noteNumber":85,"velocity":59,"programNumber":51},{"time":179666.48700000078,"duration":55.55549999998766,"noteNumber":83,"velocity":59,"programNumber":51},{"time":179722.04250000077,"duration":55.55549999998766,"noteNumber":85,"velocity":59,"programNumber":51},{"time":179777.59800000075,"duration":222.22200000000885,"noteNumber":81,"velocity":59,"programNumber":51},{"time":180444.26400000075,"duration":629.6289999999863,"noteNumber":83,"velocity":85,"programNumber":51},{"time":180444.26400000075,"duration":629.6289999999863,"noteNumber":71,"velocity":85,"programNumber":51},{"time":181110.93000000075,"duration":74.07399999999325,"noteNumber":81,"velocity":85,"programNumber":51},{"time":181185.00400000074,"duration":74.07399999999325,"noteNumber":79,"velocity":85,"programNumber":51},{"time":181259.07800000074,"duration":74.07399999999325,"noteNumber":78,"velocity":85,"programNumber":51},{"time":181333.15200000073,"duration":444.4439999999886,"noteNumber":79,"velocity":85,"programNumber":51},{"time":182222.0400000007,"duration":629.6289999999863,"noteNumber":69,"velocity":85,"programNumber":51},{"time":182222.0400000007,"duration":629.6289999999863,"noteNumber":81,"velocity":85,"programNumber":51},{"time":182888.7060000007,"duration":74.07399999999325,"noteNumber":79,"velocity":85,"programNumber":51},{"time":182962.7800000007,"duration":74.07399999999325,"noteNumber":78,"velocity":85,"programNumber":51},{"time":183036.8540000007,"duration":74.07399999999325,"noteNumber":76,"velocity":85,"programNumber":51},{"time":183110.92800000068,"duration":444.4439999999886,"noteNumber":78,"velocity":85,"programNumber":51},{"time":183999.81600000066,"duration":222.22200000000885,"noteNumber":83,"velocity":85,"programNumber":51},{"time":184222.03800000067,"duration":111.11100000000442,"noteNumber":85,"velocity":85,"programNumber":51},{"time":184333.14900000067,"duration":111.11100000000442,"noteNumber":86,"velocity":85,"programNumber":51},{"time":184444.26000000068,"duration":166.66649999999208,"noteNumber":85,"velocity":85,"programNumber":51},{"time":184666.48200000066,"duration":111.11100000000442,"noteNumber":83,"velocity":85,"programNumber":51},{"time":184888.70400000067,"duration":222.22200000000885,"noteNumber":83,"velocity":95,"programNumber":51},{"time":185110.92600000068,"duration":166.66649999999208,"noteNumber":81,"velocity":85,"programNumber":51},{"time":185333.14800000066,"duration":111.11100000000442,"noteNumber":78,"velocity":85,"programNumber":51},{"time":185555.37000000066,"duration":111.11100000000442,"noteNumber":81,"velocity":85,"programNumber":51},{"time":185777.59200000067,"duration":222.22200000000885,"noteNumber":81,"velocity":85,"programNumber":51},{"time":185999.81400000068,"duration":166.66649999999208,"noteNumber":79,"velocity":85,"programNumber":51},{"time":186222.03600000066,"duration":111.11100000000442,"noteNumber":78,"velocity":85,"programNumber":51},{"time":186444.25800000067,"duration":111.11100000000442,"noteNumber":76,"velocity":85,"programNumber":51},{"time":186666.48000000068,"duration":166.66649999999208,"noteNumber":74,"velocity":85,"programNumber":51},{"time":186888.70200000066,"duration":166.66649999999208,"noteNumber":69,"velocity":85,"programNumber":51},{"time":187110.92400000064,"duration":166.66649999999208,"noteNumber":71,"velocity":85,"programNumber":51},{"time":187333.14600000062,"duration":166.66649999999208,"noteNumber":73,"velocity":85,"programNumber":51},{"time":187555.3680000006,"duration":111.11100000000442,"noteNumber":74,"velocity":85,"programNumber":51},{"time":187777.5900000006,"duration":111.11100000000442,"noteNumber":74,"velocity":85,"programNumber":51},{"time":187999.81200000062,"duration":55.55549999998766,"noteNumber":76,"velocity":85,"programNumber":51},{"time":188055.3675000006,"duration":55.55549999998766,"noteNumber":78,"velocity":85,"programNumber":51},{"time":188110.9230000006,"duration":55.55549999998766,"noteNumber":76,"velocity":85,"programNumber":51},{"time":188166.47850000058,"duration":55.55549999998766,"noteNumber":78,"velocity":85,"programNumber":51},{"time":188222.03400000057,"duration":111.11100000000442,"noteNumber":74,"velocity":85,"programNumber":51},{"time":188333.14500000057,"duration":111.11100000000442,"noteNumber":76,"velocity":85,"programNumber":51},{"time":188444.25600000058,"duration":222.22200000000885,"noteNumber":78,"velocity":85,"programNumber":51},{"time":188666.47800000058,"duration":166.66649999999208,"noteNumber":73,"velocity":85,"programNumber":51},{"time":188888.70000000056,"duration":166.66649999999208,"noteNumber":74,"velocity":85,"programNumber":51},{"time":189110.92200000054,"duration":166.66649999999208,"noteNumber":76,"velocity":85,"programNumber":51},{"time":189333.14400000052,"duration":166.66649999999208,"noteNumber":78,"velocity":85,"programNumber":51},{"time":189555.3660000005,"duration":166.66649999999208,"noteNumber":78,"velocity":85,"programNumber":51},{"time":189777.58800000048,"duration":55.55549999998766,"noteNumber":79,"velocity":85,"programNumber":51},{"time":189833.14350000047,"duration":55.55549999998766,"noteNumber":81,"velocity":86,"programNumber":51},{"time":189888.69900000046,"duration":55.55549999998766,"noteNumber":79,"velocity":86,"programNumber":51},{"time":189944.25450000045,"duration":55.55549999998766,"noteNumber":81,"velocity":86,"programNumber":51},{"time":189999.81000000043,"duration":111.11100000000442,"noteNumber":78,"velocity":86,"programNumber":51},{"time":190110.92100000044,"duration":111.11100000000442,"noteNumber":79,"velocity":88,"programNumber":51},{"time":190222.03200000044,"duration":166.66649999999208,"noteNumber":81,"velocity":88,"programNumber":51},{"time":190444.25400000042,"duration":166.66649999999208,"noteNumber":81,"velocity":88,"programNumber":51},{"time":190666.4760000004,"duration":55.55549999998766,"noteNumber":82,"velocity":89,"programNumber":51},{"time":190722.0315000004,"duration":55.55549999998766,"noteNumber":83,"velocity":91,"programNumber":51},{"time":190777.58700000038,"duration":55.55549999998766,"noteNumber":82,"velocity":91,"programNumber":51},{"time":190833.14250000037,"duration":55.55549999998766,"noteNumber":83,"velocity":91,"programNumber":51},{"time":190888.69800000035,"duration":111.11100000000442,"noteNumber":80,"velocity":92,"programNumber":51},{"time":190999.80900000036,"duration":111.11100000000442,"noteNumber":82,"velocity":94,"programNumber":51},{"time":191110.92000000036,"duration":444.4439999999886,"noteNumber":83,"velocity":98,"programNumber":51},{"time":191999.80800000034,"duration":666.6659999999974,"noteNumber":71,"velocity":40,"programNumber":51},{"time":192666.47400000034,"duration":166.66649999999208,"noteNumber":76,"velocity":47,"programNumber":51},{"time":192888.69600000032,"duration":222.22200000000885,"noteNumber":74,"velocity":49,"programNumber":51},{"time":193110.91800000033,"duration":222.22200000000885,"noteNumber":73,"velocity":49,"programNumber":51},{"time":193333.14000000033,"duration":222.22200000000885,"noteNumber":71,"velocity":43,"programNumber":51},{"time":193555.36200000034,"duration":222.22200000000885,"noteNumber":69,"velocity":41,"programNumber":51},{"time":193777.58400000035,"duration":222.22200000000885,"noteNumber":74,"velocity":40,"programNumber":51},{"time":194222.02800000037,"duration":222.22200000000885,"noteNumber":78,"velocity":59,"programNumber":51},{"time":194666.4720000004,"duration":222.22200000000885,"noteNumber":74,"velocity":57,"programNumber":51},{"time":195555.3600000004,"duration":444.4439999999886,"noteNumber":74,"velocity":100,"programNumber":51},{"time":195555.3600000004,"duration":444.4439999999886,"noteNumber":62,"velocity":100,"programNumber":51},{"time":196222.0260000004,"duration":166.66649999999208,"noteNumber":69,"velocity":91,"programNumber":51},{"time":196444.24800000037,"duration":444.4439999999886,"noteNumber":74,"velocity":91,"programNumber":51},{"time":197110.91400000037,"duration":166.66649999999208,"noteNumber":69,"velocity":91,"programNumber":51},{"time":197333.13600000035,"duration":166.66649999999208,"noteNumber":74,"velocity":91,"programNumber":51},{"time":197555.35800000033,"duration":166.66649999999208,"noteNumber":69,"velocity":91,"programNumber":51},{"time":197777.5800000003,"duration":166.66649999999208,"noteNumber":74,"velocity":91,"programNumber":51},{"time":197999.8020000003,"duration":166.66649999999208,"noteNumber":78,"velocity":91,"programNumber":51},{"time":198222.02400000027,"duration":444.4439999999886,"noteNumber":81,"velocity":91,"programNumber":51},{"time":199110.91200000024,"duration":444.4439999999886,"noteNumber":81,"velocity":91,"programNumber":51},{"time":199777.57800000024,"duration":166.66649999999208,"noteNumber":78,"velocity":91,"programNumber":51},{"time":199999.80000000022,"duration":444.4439999999886,"noteNumber":81,"velocity":91,"programNumber":51},{"time":200666.46600000022,"duration":166.66649999999208,"noteNumber":78,"velocity":91,"programNumber":51},{"time":200888.6880000002,"duration":166.66649999999208,"noteNumber":81,"velocity":91,"programNumber":51},{"time":201110.91000000018,"duration":166.66649999999208,"noteNumber":78,"velocity":91,"programNumber":51},{"time":201333.13200000016,"duration":166.66649999999208,"noteNumber":75,"velocity":91,"programNumber":51},{"time":201555.35400000014,"duration":166.66649999999208,"noteNumber":78,"velocity":91,"programNumber":51},{"time":201777.57600000012,"duration":444.4439999999886,"noteNumber":71,"velocity":91,"programNumber":51},{"time":203333.1300000001,"duration":166.66649999999208,"noteNumber":79,"velocity":55,"programNumber":51},{"time":203555.35200000007,"duration":222.22200000000885,"noteNumber":84,"velocity":55,"programNumber":51},{"time":203777.57400000008,"duration":222.22200000000885,"noteNumber":83,"velocity":55,"programNumber":51},{"time":203999.7960000001,"duration":222.22200000000885,"noteNumber":81,"velocity":55,"programNumber":51},{"time":204222.0180000001,"duration":222.22200000000885,"noteNumber":79,"velocity":55,"programNumber":51},{"time":204444.2400000001,"duration":55.55549999998766,"noteNumber":81,"velocity":55,"programNumber":51},{"time":204499.7955000001,"duration":55.55549999998766,"noteNumber":83,"velocity":55,"programNumber":51},{"time":204555.35100000008,"duration":55.55549999998766,"noteNumber":81,"velocity":55,"programNumber":51},{"time":204610.90650000007,"duration":55.55549999998766,"noteNumber":83,"velocity":55,"programNumber":51},{"time":204666.46200000006,"duration":222.22200000000885,"noteNumber":79,"velocity":55,"programNumber":51},{"time":205110.90600000008,"duration":111.11100000000442,"noteNumber":79,"velocity":55,"programNumber":51},{"time":205333.12800000008,"duration":111.11100000000442,"noteNumber":79,"velocity":55,"programNumber":51},{"time":205555.3500000001,"duration":111.11100000000442,"noteNumber":79,"velocity":55,"programNumber":51},{"time":205777.5720000001,"duration":111.11100000000442,"noteNumber":79,"velocity":55,"programNumber":51},{"time":205999.7940000001,"duration":111.11100000000442,"noteNumber":79,"velocity":55,"programNumber":51},{"time":206222.01600000012,"duration":55.55549999998766,"noteNumber":81,"velocity":55,"programNumber":51},{"time":206277.5715000001,"duration":55.55549999998766,"noteNumber":83,"velocity":55,"programNumber":51},{"time":206333.1270000001,"duration":55.55549999998766,"noteNumber":81,"velocity":55,"programNumber":51},{"time":206388.68250000008,"duration":55.55549999998766,"noteNumber":83,"velocity":55,"programNumber":51},{"time":206444.23800000007,"duration":222.22200000000885,"noteNumber":79,"velocity":55,"programNumber":51},{"time":206888.6820000001,"duration":166.66649999999208,"noteNumber":79,"velocity":55,"programNumber":51},{"time":207110.90400000007,"duration":222.22200000000885,"noteNumber":84,"velocity":55,"programNumber":51},{"time":207333.12600000008,"duration":222.22200000000885,"noteNumber":83,"velocity":55,"programNumber":51},{"time":207555.3480000001,"duration":222.22200000000885,"noteNumber":81,"velocity":55,"programNumber":51},{"time":207777.5700000001,"duration":222.22200000000885,"noteNumber":79,"velocity":55,"programNumber":51},{"time":207999.7920000001,"duration":55.55549999998766,"noteNumber":81,"velocity":55,"programNumber":51},{"time":208055.3475000001,"duration":55.55549999998766,"noteNumber":83,"velocity":55,"programNumber":51},{"time":208110.90300000008,"duration":55.55549999998766,"noteNumber":81,"velocity":55,"programNumber":51},{"time":208166.45850000007,"duration":55.55549999998766,"noteNumber":83,"velocity":55,"programNumber":51},{"time":208222.01400000005,"duration":222.22200000000885,"noteNumber":79,"velocity":55,"programNumber":51},{"time":208666.45800000007,"duration":111.11100000000442,"noteNumber":79,"velocity":55,"programNumber":51},{"time":208888.68000000008,"duration":111.11100000000442,"noteNumber":79,"velocity":55,"programNumber":51},{"time":209110.9020000001,"duration":111.11100000000442,"noteNumber":79,"velocity":55,"programNumber":51},{"time":209333.1240000001,"duration":111.11100000000442,"noteNumber":79,"velocity":55,"programNumber":51},{"time":209555.3460000001,"duration":111.11100000000442,"noteNumber":79,"velocity":55,"programNumber":51},{"time":209777.56800000012,"duration":55.55549999998766,"noteNumber":81,"velocity":55,"programNumber":51},{"time":209833.1235000001,"duration":55.55549999998766,"noteNumber":83,"velocity":55,"programNumber":51},{"time":209888.6790000001,"duration":55.55549999998766,"noteNumber":81,"velocity":55,"programNumber":51},{"time":209944.23450000008,"duration":55.55549999998766,"noteNumber":83,"velocity":55,"programNumber":51},{"time":209999.79000000007,"duration":222.22200000000885,"noteNumber":79,"velocity":55,"programNumber":51},{"time":210444.23400000008,"duration":166.66649999999208,"noteNumber":79,"velocity":55,"programNumber":51},{"time":210666.45600000006,"duration":222.22200000000885,"noteNumber":84,"velocity":55,"programNumber":51},{"time":210888.67800000007,"duration":222.22200000000885,"noteNumber":83,"velocity":55,"programNumber":51},{"time":211110.90000000008,"duration":222.22200000000885,"noteNumber":81,"velocity":55,"programNumber":51},{"time":211333.1220000001,"duration":222.22200000000885,"noteNumber":79,"velocity":55,"programNumber":51},{"time":211555.3440000001,"duration":55.55549999998766,"noteNumber":81,"velocity":55,"programNumber":51},{"time":211610.8995000001,"duration":55.55549999998766,"noteNumber":83,"velocity":55,"programNumber":51},{"time":211666.45500000007,"duration":55.55549999998766,"noteNumber":81,"velocity":55,"programNumber":51},{"time":211722.01050000006,"duration":55.55549999998766,"noteNumber":83,"velocity":55,"programNumber":51},{"time":211777.56600000005,"duration":222.22200000000885,"noteNumber":80,"velocity":55,"programNumber":51},{"time":212222.01000000007,"duration":111.11100000000442,"noteNumber":80,"velocity":55,"programNumber":51},{"time":212444.23200000008,"duration":111.11100000000442,"noteNumber":80,"velocity":55,"programNumber":51},{"time":212666.45400000009,"duration":111.11100000000442,"noteNumber":80,"velocity":55,"programNumber":51},{"time":212888.6760000001,"duration":111.11100000000442,"noteNumber":80,"velocity":55,"programNumber":51},{"time":213110.8980000001,"duration":111.11100000000442,"noteNumber":80,"velocity":55,"programNumber":51},{"time":213333.1200000001,"duration":55.55549999998766,"noteNumber":83,"velocity":55,"programNumber":51},{"time":213388.6755000001,"duration":55.55549999998766,"noteNumber":84,"velocity":55,"programNumber":51},{"time":213444.2310000001,"duration":55.55549999998766,"noteNumber":83,"velocity":55,"programNumber":51},{"time":213499.78650000007,"duration":55.55549999998766,"noteNumber":84,"velocity":55,"programNumber":51},{"time":213555.34200000006,"duration":222.22200000000885,"noteNumber":81,"velocity":55,"programNumber":51},{"time":213999.78600000008,"duration":166.66649999999208,"noteNumber":81,"velocity":55,"programNumber":51},{"time":214222.00800000006,"duration":222.22200000000885,"noteNumber":84,"velocity":55,"programNumber":51},{"time":214444.23000000007,"duration":222.22200000000885,"noteNumber":82,"velocity":55,"programNumber":51},{"time":214666.45200000008,"duration":222.22200000000885,"noteNumber":81,"velocity":55,"programNumber":51},{"time":214888.6740000001,"duration":222.22200000000885,"noteNumber":79,"velocity":55,"programNumber":51},{"time":215110.8960000001,"duration":55.55549999998766,"noteNumber":79,"velocity":55,"programNumber":51},{"time":215166.45150000008,"duration":55.55549999998766,"noteNumber":81,"velocity":55,"programNumber":51},{"time":215222.00700000007,"duration":55.55549999998766,"noteNumber":79,"velocity":55,"programNumber":51},{"time":215277.56250000006,"duration":55.55549999998766,"noteNumber":81,"velocity":55,"programNumber":51},{"time":215333.11800000005,"duration":222.22200000000885,"noteNumber":78,"velocity":55,"programNumber":51},{"time":215777.56200000006,"duration":111.11100000000442,"noteNumber":78,"velocity":55,"programNumber":51},{"time":215999.78400000007,"duration":111.11100000000442,"noteNumber":78,"velocity":55,"programNumber":51},{"time":216222.00600000008,"duration":111.11100000000442,"noteNumber":78,"velocity":55,"programNumber":51},{"time":216444.2280000001,"duration":111.11100000000442,"noteNumber":78,"velocity":55,"programNumber":51},{"time":216666.4500000001,"duration":111.11100000000442,"noteNumber":78,"velocity":55,"programNumber":51},{"time":216888.6720000001,"duration":55.55549999998766,"noteNumber":81,"velocity":55,"programNumber":51},{"time":216944.2275000001,"duration":55.55549999998766,"noteNumber":82,"velocity":55,"programNumber":51},{"time":216999.78300000008,"duration":55.55549999998766,"noteNumber":81,"velocity":55,"programNumber":51},{"time":217055.33850000007,"duration":55.55549999998766,"noteNumber":82,"velocity":55,"programNumber":51},{"time":217110.89400000006,"duration":222.22200000000885,"noteNumber":79,"velocity":55,"programNumber":51},{"time":217555.33800000008,"duration":166.66649999999208,"noteNumber":75,"velocity":55,"programNumber":51},{"time":217777.56000000006,"duration":222.22200000000885,"noteNumber":79,"velocity":55,"programNumber":51},{"time":217999.78200000006,"duration":222.22200000000885,"noteNumber":77,"velocity":55,"programNumber":51},{"time":218222.00400000007,"duration":222.22200000000885,"noteNumber":76,"velocity":55,"programNumber":51},{"time":218444.22600000008,"duration":222.22200000000885,"noteNumber":74,"velocity":55,"programNumber":51},{"time":218666.4480000001,"duration":55.55549999998766,"noteNumber":74,"velocity":55,"programNumber":51},{"time":218722.00350000008,"duration":55.55549999998766,"noteNumber":75,"velocity":55,"programNumber":51},{"time":218777.55900000007,"duration":55.55549999998766,"noteNumber":74,"velocity":55,"programNumber":51},{"time":218833.11450000005,"duration":55.55549999998766,"noteNumber":75,"velocity":55,"programNumber":51},{"time":218888.67000000004,"duration":222.22200000000885,"noteNumber":73,"velocity":55,"programNumber":51},{"time":219333.11400000006,"duration":111.11100000000442,"noteNumber":73,"velocity":55,"programNumber":51},{"time":219555.33600000007,"duration":111.11100000000442,"noteNumber":73,"velocity":55,"programNumber":51},{"time":219777.55800000008,"duration":111.11100000000442,"noteNumber":73,"velocity":55,"programNumber":51},{"time":219999.7800000001,"duration":111.11100000000442,"noteNumber":73,"velocity":55,"programNumber":51},{"time":220222.0020000001,"duration":111.11100000000442,"noteNumber":73,"velocity":55,"programNumber":51},{"time":220444.2240000001,"duration":55.55549999998766,"noteNumber":76,"velocity":53,"programNumber":51},{"time":220499.7795000001,"duration":55.55549999998766,"noteNumber":78,"velocity":53,"programNumber":51},{"time":220555.33500000008,"duration":55.55549999998766,"noteNumber":76,"velocity":53,"programNumber":51},{"time":220610.89050000007,"duration":55.55549999998766,"noteNumber":78,"velocity":53,"programNumber":51},{"time":220666.44600000005,"duration":222.22200000000885,"noteNumber":74,"velocity":53,"programNumber":51},{"time":221110.89000000007,"duration":222.22200000000885,"noteNumber":62,"velocity":91,"programNumber":51},{"time":221333.11200000008,"duration":222.22200000000885,"noteNumber":64,"velocity":91,"programNumber":51},{"time":221555.3340000001,"duration":222.22200000000885,"noteNumber":66,"velocity":91,"programNumber":51},{"time":221777.5560000001,"duration":222.22200000000885,"noteNumber":67,"velocity":91,"programNumber":51},{"time":221999.7780000001,"duration":222.22200000000885,"noteNumber":69,"velocity":91,"programNumber":51},{"time":222222.00000000012,"duration":222.22200000000885,"noteNumber":72,"velocity":91,"programNumber":51},{"time":222444.22200000013,"duration":222.22200000000885,"noteNumber":70,"velocity":91,"programNumber":51},{"time":222888.66600000014,"duration":222.22200000000885,"noteNumber":66,"velocity":91,"programNumber":51},{"time":223110.88800000015,"duration":222.22200000000885,"noteNumber":67,"velocity":91,"programNumber":51},{"time":223333.11000000016,"duration":222.22200000000885,"noteNumber":69,"velocity":91,"programNumber":51},{"time":223555.33200000017,"duration":222.22200000000885,"noteNumber":70,"velocity":91,"programNumber":51},{"time":223777.55400000018,"duration":222.22200000000885,"noteNumber":73,"velocity":91,"programNumber":51},{"time":223999.7760000002,"duration":222.22200000000885,"noteNumber":76,"velocity":91,"programNumber":51},{"time":224221.9980000002,"duration":222.22200000000885,"noteNumber":74,"velocity":91,"programNumber":51},{"time":224666.4420000002,"duration":222.22200000000885,"noteNumber":74,"velocity":53,"programNumber":51},{"time":224888.66400000022,"duration":222.22200000000885,"noteNumber":76,"velocity":53,"programNumber":51},{"time":225110.88600000023,"duration":222.22200000000885,"noteNumber":78,"velocity":53,"programNumber":51},{"time":225333.10800000024,"duration":222.22200000000885,"noteNumber":79,"velocity":53,"programNumber":51},{"time":225555.33000000025,"duration":222.22200000000885,"noteNumber":81,"velocity":52,"programNumber":51},{"time":225777.55200000026,"duration":444.4439999999886,"noteNumber":82,"velocity":50,"programNumber":51},{"time":226221.99600000025,"duration":444.4439999999886,"noteNumber":83,"velocity":46,"programNumber":51},{"time":226666.44000000024,"duration":444.4439999999886,"noteNumber":84,"velocity":43,"programNumber":51},{"time":227110.88400000022,"duration":444.4439999999886,"noteNumber":85,"velocity":40,"programNumber":51},{"time":227555.3280000002,"duration":2611.108500000002,"noteNumber":86,"velocity":59,"programNumber":51},{"time":230221.9920000002,"duration":55.55549999998766,"noteNumber":78,"velocity":52,"programNumber":51},{"time":230277.5475000002,"duration":55.55549999998766,"noteNumber":79,"velocity":53,"programNumber":51},{"time":230333.10300000018,"duration":55.55549999998766,"noteNumber":78,"velocity":55,"programNumber":51},{"time":230388.65850000017,"duration":55.55549999998766,"noteNumber":79,"velocity":58,"programNumber":51},{"time":230444.21400000015,"duration":55.55549999998766,"noteNumber":78,"velocity":59,"programNumber":51},{"time":230499.76950000014,"duration":55.55549999998766,"noteNumber":79,"velocity":61,"programNumber":51},{"time":230555.32500000013,"duration":55.55549999998766,"noteNumber":78,"velocity":62,"programNumber":51},{"time":230610.88050000012,"duration":55.55549999998766,"noteNumber":79,"velocity":65,"programNumber":51},{"time":230666.4360000001,"duration":55.55549999998766,"noteNumber":78,"velocity":67,"programNumber":51},{"time":230721.9915000001,"duration":55.55549999998766,"noteNumber":79,"velocity":68,"programNumber":51},{"time":230777.54700000008,"duration":55.55549999998766,"noteNumber":78,"velocity":70,"programNumber":51},{"time":230833.10250000007,"duration":55.55549999998766,"noteNumber":79,"velocity":71,"programNumber":51},{"time":230888.65800000005,"duration":111.11100000000442,"noteNumber":76,"velocity":74,"programNumber":51},{"time":230999.76900000006,"duration":111.11100000000442,"noteNumber":78,"velocity":77,"programNumber":51},{"time":231110.88000000006,"duration":444.4439999999886,"noteNumber":79,"velocity":93,"programNumber":51},{"time":231777.54600000006,"duration":111.11100000000442,"noteNumber":74,"velocity":92,"programNumber":51},{"time":231999.76800000007,"duration":444.4439999999886,"noteNumber":79,"velocity":92,"programNumber":51},{"time":232666.43400000007,"duration":111.11100000000442,"noteNumber":74,"velocity":91,"programNumber":51},{"time":232888.65600000008,"duration":111.11100000000442,"noteNumber":79,"velocity":90,"programNumber":51},{"time":233110.87800000008,"duration":111.11100000000442,"noteNumber":74,"velocity":90,"programNumber":51},{"time":233333.1000000001,"duration":111.11100000000442,"noteNumber":79,"velocity":90,"programNumber":51},{"time":233555.3220000001,"duration":111.11100000000442,"noteNumber":83,"velocity":90,"programNumber":51},{"time":233777.5440000001,"duration":444.4439999999886,"noteNumber":86,"velocity":89,"programNumber":51},{"time":234666.4320000001,"duration":444.4439999999886,"noteNumber":84,"velocity":104,"programNumber":51},{"time":235333.0980000001,"duration":111.11100000000442,"noteNumber":81,"velocity":87,"programNumber":51},{"time":235555.3200000001,"duration":444.4439999999886,"noteNumber":84,"velocity":86,"programNumber":51},{"time":236221.9860000001,"duration":111.11100000000442,"noteNumber":81,"velocity":85,"programNumber":51},{"time":236444.2080000001,"duration":111.11100000000442,"noteNumber":84,"velocity":92,"programNumber":51},{"time":236666.4300000001,"duration":111.11100000000442,"noteNumber":81,"velocity":85,"programNumber":51},{"time":236888.65200000012,"duration":111.11100000000442,"noteNumber":78,"velocity":92,"programNumber":51},{"time":237110.87400000013,"duration":111.11100000000442,"noteNumber":81,"velocity":85,"programNumber":51},{"time":237333.09600000014,"duration":444.4439999999886,"noteNumber":74,"velocity":94,"programNumber":51},{"time":238221.9840000001,"duration":222.22200000000885,"noteNumber":71,"velocity":92,"programNumber":51},{"time":238221.9840000001,"duration":222.22200000000885,"noteNumber":79,"velocity":92,"programNumber":51},{"time":238221.9840000001,"duration":222.22200000000885,"noteNumber":62,"velocity":92,"programNumber":51},{"time":238666.42800000013,"duration":666.6659999999974,"noteNumber":79,"velocity":85,"programNumber":51},{"time":239333.09400000013,"duration":222.22200000000885,"noteNumber":83,"velocity":74,"programNumber":51},{"time":239555.31600000014,"duration":111.11100000000442,"noteNumber":81,"velocity":74,"programNumber":51},{"time":239777.53800000015,"duration":111.11100000000442,"noteNumber":79,"velocity":80,"programNumber":51},{"time":239999.76000000015,"duration":55.55549999998766,"noteNumber":79,"velocity":86,"programNumber":51},{"time":240055.31550000014,"duration":55.55549999998766,"noteNumber":81,"velocity":86,"programNumber":51},{"time":240110.87100000013,"duration":55.55549999998766,"noteNumber":79,"velocity":86,"programNumber":51},{"time":240166.42650000012,"duration":55.55549999998766,"noteNumber":81,"velocity":86,"programNumber":51},{"time":240221.9820000001,"duration":185.18499999999767,"noteNumber":78,"velocity":83,"programNumber":51},{"time":240444.2040000001,"duration":666.6659999999974,"noteNumber":78,"velocity":77,"programNumber":51},{"time":241110.8700000001,"duration":222.22200000000885,"noteNumber":81,"velocity":85,"programNumber":51},{"time":241333.09200000012,"duration":111.11100000000442,"noteNumber":84,"velocity":85,"programNumber":51},{"time":241555.31400000013,"duration":111.11100000000442,"noteNumber":78,"velocity":85,"programNumber":51},{"time":241777.53600000014,"duration":222.22200000000885,"noteNumber":81,"velocity":85,"programNumber":51},{"time":241999.75800000015,"duration":111.11100000000442,"noteNumber":79,"velocity":85,"programNumber":51},{"time":242221.98000000016,"duration":666.6659999999974,"noteNumber":79,"velocity":85,"programNumber":51},{"time":242888.64600000015,"duration":222.22200000000885,"noteNumber":83,"velocity":85,"programNumber":51},{"time":243110.86800000016,"duration":111.11100000000442,"noteNumber":81,"velocity":85,"programNumber":51},{"time":243333.09000000017,"duration":111.11100000000442,"noteNumber":79,"velocity":85,"programNumber":51},{"time":243555.31200000018,"duration":55.55549999998766,"noteNumber":79,"velocity":85,"programNumber":51},{"time":243610.86750000017,"duration":55.55549999998766,"noteNumber":81,"velocity":85,"programNumber":51},{"time":243666.42300000016,"duration":55.55549999998766,"noteNumber":79,"velocity":85,"programNumber":51},{"time":243721.97850000014,"duration":55.55549999998766,"noteNumber":81,"velocity":85,"programNumber":51},{"time":243777.53400000013,"duration":185.18499999999767,"noteNumber":78,"velocity":85,"programNumber":51},{"time":243999.75600000014,"duration":666.6659999999974,"noteNumber":78,"velocity":85,"programNumber":51},{"time":244666.42200000014,"duration":222.22200000000885,"noteNumber":81,"velocity":85,"programNumber":51},{"time":244888.64400000015,"duration":111.11100000000442,"noteNumber":84,"velocity":85,"programNumber":51},{"time":245110.86600000015,"duration":111.11100000000442,"noteNumber":78,"velocity":85,"programNumber":51},{"time":245333.08800000016,"duration":111.11100000000442,"noteNumber":79,"velocity":85,"programNumber":51},{"time":245555.31000000017,"duration":111.11100000000442,"noteNumber":79,"velocity":85,"programNumber":51},{"time":245777.53200000018,"duration":111.11100000000442,"noteNumber":79,"velocity":85,"programNumber":51},{"time":245888.6430000002,"duration":111.11100000000442,"noteNumber":78,"velocity":85,"programNumber":51},{"time":245999.7540000002,"duration":111.11100000000442,"noteNumber":76,"velocity":85,"programNumber":51},{"time":246110.8650000002,"duration":111.11100000000442,"noteNumber":78,"velocity":85,"programNumber":51},{"time":246221.9760000002,"duration":111.11100000000442,"noteNumber":79,"velocity":85,"programNumber":51},{"time":246444.1980000002,"duration":111.11100000000442,"noteNumber":79,"velocity":85,"programNumber":51},{"time":246666.42000000022,"duration":111.11100000000442,"noteNumber":83,"velocity":85,"programNumber":51},{"time":246777.53100000022,"duration":111.11100000000442,"noteNumber":81,"velocity":85,"programNumber":51},{"time":246888.64200000023,"duration":111.11100000000442,"noteNumber":79,"velocity":85,"programNumber":51},{"time":246999.75300000023,"duration":111.11100000000442,"noteNumber":81,"velocity":83,"programNumber":51},{"time":247110.86400000023,"duration":111.11100000000442,"noteNumber":83,"velocity":83,"programNumber":51},{"time":247333.08600000024,"duration":111.11100000000442,"noteNumber":83,"velocity":83,"programNumber":51},{"time":247555.30800000025,"duration":111.11100000000442,"noteNumber":86,"velocity":83,"programNumber":51},{"time":247666.41900000026,"duration":111.11100000000442,"noteNumber":84,"velocity":80,"programNumber":51},{"time":247777.53000000026,"duration":111.11100000000442,"noteNumber":83,"velocity":79,"programNumber":51},{"time":247888.64100000027,"duration":111.11100000000442,"noteNumber":84,"velocity":76,"programNumber":51},{"time":247999.75200000027,"duration":444.4439999999886,"noteNumber":86,"velocity":71,"programNumber":51},{"time":248888.64000000025,"duration":888.8880000000063,"noteNumber":74,"velocity":56,"programNumber":51},{"time":249777.52800000025,"duration":888.8880000000063,"noteNumber":76,"velocity":55,"programNumber":51},{"time":250666.41600000026,"duration":111.11100000000442,"noteNumber":74,"velocity":57,"programNumber":51},{"time":250777.52700000026,"duration":296.2960000000021,"noteNumber":72,"velocity":59,"programNumber":51},{"time":251110.86000000028,"duration":444.4439999999886,"noteNumber":72,"velocity":58,"programNumber":51},{"time":251555.30400000027,"duration":111.11100000000442,"noteNumber":72,"velocity":57,"programNumber":51},{"time":251666.41500000027,"duration":296.2960000000021,"noteNumber":71,"velocity":55,"programNumber":51},{"time":251999.74800000028,"duration":444.4439999999886,"noteNumber":71,"velocity":53,"programNumber":51},{"time":252444.19200000027,"duration":111.11100000000442,"noteNumber":71,"velocity":57,"programNumber":51},{"time":252555.30300000028,"duration":296.2960000000021,"noteNumber":69,"velocity":56,"programNumber":51},{"time":252888.6360000003,"duration":444.4439999999886,"noteNumber":69,"velocity":55,"programNumber":51},{"time":253333.08000000028,"duration":222.22200000000885,"noteNumber":67,"velocity":54,"programNumber":51},{"time":253555.3020000003,"duration":111.11100000000442,"noteNumber":66,"velocity":55,"programNumber":51},{"time":253777.5240000003,"duration":111.11100000000442,"noteNumber":64,"velocity":55,"programNumber":51},{"time":253999.7460000003,"duration":111.11100000000442,"noteNumber":66,"velocity":55,"programNumber":51},{"time":254221.9680000003,"duration":222.22200000000885,"noteNumber":67,"velocity":56,"programNumber":51},{"time":254666.41200000033,"duration":222.22200000000885,"noteNumber":69,"velocity":57,"programNumber":51},{"time":255110.85600000035,"duration":222.22200000000885,"noteNumber":71,"velocity":57,"programNumber":51},{"time":255999.74400000036,"duration":888.8880000000063,"noteNumber":74,"velocity":56,"programNumber":51},{"time":256888.63200000036,"duration":888.8880000000063,"noteNumber":76,"velocity":59,"programNumber":51},{"time":257777.52000000037,"duration":222.22200000000885,"noteNumber":74,"velocity":46,"programNumber":51},{"time":257999.74200000038,"duration":111.11100000000442,"noteNumber":72,"velocity":51,"programNumber":51},{"time":258221.9640000004,"duration":111.11100000000442,"noteNumber":72,"velocity":51,"programNumber":51},{"time":258444.1860000004,"duration":111.11100000000442,"noteNumber":72,"velocity":51,"programNumber":51},{"time":258666.4080000004,"duration":222.22200000000885,"noteNumber":72,"velocity":51,"programNumber":51},{"time":258888.6300000004,"duration":111.11100000000442,"noteNumber":71,"velocity":50,"programNumber":51},{"time":259110.85200000042,"duration":111.11100000000442,"noteNumber":71,"velocity":49,"programNumber":51},{"time":259333.07400000043,"duration":111.11100000000442,"noteNumber":71,"velocity":49,"programNumber":51},{"time":259555.29600000044,"duration":222.22200000000885,"noteNumber":71,"velocity":49,"programNumber":51},{"time":259777.51800000045,"duration":111.11100000000442,"noteNumber":69,"velocity":50,"programNumber":51},{"time":259999.74000000046,"duration":166.66649999999208,"noteNumber":69,"velocity":52,"programNumber":51},{"time":260221.96200000044,"duration":166.66649999999208,"noteNumber":69,"velocity":52,"programNumber":51},{"time":260444.18400000042,"duration":222.22200000000885,"noteNumber":67,"velocity":52,"programNumber":51},{"time":260666.40600000042,"duration":222.22200000000885,"noteNumber":66,"velocity":54,"programNumber":51},{"time":260888.62800000043,"duration":222.22200000000885,"noteNumber":64,"velocity":55,"programNumber":51},{"time":261110.85000000044,"duration":222.22200000000885,"noteNumber":66,"velocity":55,"programNumber":51},{"time":261333.07200000045,"duration":1111.109999999986,"noteNumber":67,"velocity":85,"programNumber":51},{"time":261333.07200000045,"duration":1111.109999999986,"noteNumber":55,"velocity":85,"programNumber":51},{"time":262444.18200000044,"duration":55.555500000016764,"noteNumber":67,"velocity":61,"programNumber":51},{"time":262499.73750000045,"duration":55.555500000016764,"noteNumber":69,"velocity":61,"programNumber":51},{"time":262555.29300000047,"duration":55.555500000016764,"noteNumber":66,"velocity":61,"programNumber":51},{"time":262610.8485000005,"duration":55.555500000016764,"noteNumber":67,"velocity":61,"programNumber":51},{"time":262666.4040000005,"duration":222.22200000000885,"noteNumber":69,"velocity":61,"programNumber":51},{"time":262888.6260000005,"duration":222.22200000000885,"noteNumber":66,"velocity":61,"programNumber":51},{"time":263110.8480000005,"duration":1111.109999999986,"noteNumber":71,"velocity":91,"programNumber":51},{"time":264221.9580000005,"duration":55.555500000016764,"noteNumber":71,"velocity":61,"programNumber":51},{"time":264277.5135000005,"duration":55.555500000016764,"noteNumber":72,"velocity":61,"programNumber":51},{"time":264333.06900000054,"duration":55.555500000016764,"noteNumber":69,"velocity":61,"programNumber":51},{"time":264388.62450000056,"duration":55.555500000016764,"noteNumber":71,"velocity":61,"programNumber":51},{"time":264444.1800000006,"duration":222.22200000000885,"noteNumber":72,"velocity":61,"programNumber":51},{"time":264666.4020000006,"duration":222.22200000000885,"noteNumber":69,"velocity":61,"programNumber":51},{"time":264888.6240000006,"duration":74.07400000002235,"noteNumber":74,"velocity":51,"programNumber":51},{"time":264999.7350000006,"duration":74.07400000002235,"noteNumber":74,"velocity":56,"programNumber":51},{"time":265110.84600000066,"duration":74.07400000002235,"noteNumber":74,"velocity":59,"programNumber":51},{"time":265221.9570000007,"duration":74.07400000002235,"noteNumber":74,"velocity":56,"programNumber":51},{"time":265333.0680000007,"duration":74.07400000002235,"noteNumber":74,"velocity":56,"programNumber":51},{"time":265444.17900000076,"duration":74.07400000002235,"noteNumber":74,"velocity":56,"programNumber":51},{"time":265555.2900000008,"duration":74.07400000002235,"noteNumber":74,"velocity":56,"programNumber":51},{"time":265666.4010000008,"duration":74.07400000002235,"noteNumber":74,"velocity":56,"programNumber":51},{"time":265777.51200000086,"duration":74.07400000002235,"noteNumber":76,"velocity":56,"programNumber":51},{"time":265888.6230000009,"duration":74.07400000002235,"noteNumber":76,"velocity":56,"programNumber":51},{"time":265999.7340000009,"duration":74.07400000002235,"noteNumber":76,"velocity":56,"programNumber":51},{"time":266110.84500000096,"duration":74.07400000002235,"noteNumber":76,"velocity":56,"programNumber":51},{"time":266221.956000001,"duration":74.07400000002235,"noteNumber":78,"velocity":56,"programNumber":51},{"time":266333.067000001,"duration":74.07400000002235,"noteNumber":78,"velocity":56,"programNumber":51},{"time":266444.17800000106,"duration":74.07400000002235,"noteNumber":78,"velocity":57,"programNumber":51},{"time":266555.2890000011,"duration":74.07400000002235,"noteNumber":78,"velocity":59,"programNumber":51},{"time":266666.40000000113,"duration":74.07400000002235,"noteNumber":79,"velocity":62,"programNumber":51},{"time":266777.51100000116,"duration":74.07400000002235,"noteNumber":79,"velocity":65,"programNumber":51},{"time":266888.6220000012,"duration":74.07400000002235,"noteNumber":79,"velocity":66,"programNumber":51},{"time":266999.73300000123,"duration":74.07400000002235,"noteNumber":79,"velocity":66,"programNumber":51},{"time":267110.84400000126,"duration":74.07400000002235,"noteNumber":81,"velocity":66,"programNumber":51},{"time":267221.9550000013,"duration":74.07400000002235,"noteNumber":81,"velocity":66,"programNumber":51},{"time":267333.06600000133,"duration":74.07400000002235,"noteNumber":81,"velocity":66,"programNumber":51},{"time":267444.17700000136,"duration":74.07400000002235,"noteNumber":81,"velocity":68,"programNumber":51},{"time":267555.2880000014,"duration":74.07400000002235,"noteNumber":83,"velocity":68,"programNumber":51},{"time":267666.39900000143,"duration":74.07400000002235,"noteNumber":83,"velocity":70,"programNumber":51},{"time":267777.51000000146,"duration":74.07400000002235,"noteNumber":83,"velocity":70,"programNumber":51},{"time":267888.6210000015,"duration":74.07400000002235,"noteNumber":83,"velocity":71,"programNumber":51},{"time":267999.73200000153,"duration":74.07400000002235,"noteNumber":85,"velocity":71,"programNumber":51},{"time":268110.84300000157,"duration":74.07400000002235,"noteNumber":85,"velocity":73,"programNumber":51},{"time":268221.9540000016,"duration":74.07400000002235,"noteNumber":85,"velocity":74,"programNumber":51},{"time":268333.06500000163,"duration":74.07400000002235,"noteNumber":85,"velocity":74,"programNumber":51},{"time":268444.17600000167,"duration":666.6660000000265,"noteNumber":86,"velocity":85,"programNumber":51},{"time":269110.8420000017,"duration":222.22200000000885,"noteNumber":81,"velocity":85,"programNumber":51},{"time":269333.0640000017,"duration":333.33299999998417,"noteNumber":85,"velocity":85,"programNumber":51},{"time":269666.3970000017,"duration":111.11099999997532,"noteNumber":81,"velocity":85,"programNumber":51},{"time":269777.50800000166,"duration":333.33299999998417,"noteNumber":85,"velocity":85,"programNumber":51},{"time":270110.84100000164,"duration":111.11099999997532,"noteNumber":81,"velocity":85,"programNumber":51},{"time":270221.9520000016,"duration":666.6660000000265,"noteNumber":86,"velocity":85,"programNumber":51},{"time":270888.61800000165,"duration":222.22200000000885,"noteNumber":81,"velocity":85,"programNumber":51},{"time":271110.84000000166,"duration":333.33299999998417,"noteNumber":85,"velocity":85,"programNumber":51},{"time":271444.17300000164,"duration":111.11099999997532,"noteNumber":81,"velocity":85,"programNumber":51},{"time":271555.2840000016,"duration":333.33299999998417,"noteNumber":85,"velocity":85,"programNumber":51},{"time":271888.6170000016,"duration":111.11099999997532,"noteNumber":81,"velocity":85,"programNumber":51},{"time":271999.7280000016,"duration":111.11099999997532,"noteNumber":86,"velocity":100,"programNumber":51},{"time":272221.9500000015,"duration":111.11099999997532,"noteNumber":81,"velocity":100,"programNumber":51},{"time":272444.1720000015,"duration":111.11099999997532,"noteNumber":85,"velocity":100,"programNumber":51},{"time":272666.3940000014,"duration":111.11099999997532,"noteNumber":81,"velocity":100,"programNumber":51},{"time":272888.6160000014,"duration":111.11099999997532,"noteNumber":86,"velocity":100,"programNumber":51},{"time":273110.8380000013,"duration":111.11099999997532,"noteNumber":81,"velocity":100,"programNumber":51},{"time":273333.0600000013,"duration":111.11099999997532,"noteNumber":85,"velocity":100,"programNumber":51},{"time":273555.2820000012,"duration":111.11099999997532,"noteNumber":81,"velocity":100,"programNumber":51},{"time":273777.5040000012,"duration":166.66649999999208,"noteNumber":86,"velocity":85,"programNumber":51},{"time":273999.7260000012,"duration":166.66649999999208,"noteNumber":62,"velocity":85,"programNumber":51},{"time":274221.9480000012,"duration":166.66649999999208,"noteNumber":62,"velocity":85,"programNumber":51},{"time":274444.1700000012,"duration":166.66649999999208,"noteNumber":62,"velocity":85,"programNumber":51},{"time":274666.3920000012,"duration":444.4440000000177,"noteNumber":62,"velocity":85,"programNumber":51},{"time":275555.28000000125,"duration":666.6660000000265,"noteNumber":74,"velocity":46,"programNumber":51},{"time":276221.9460000013,"duration":74.07400000002235,"noteNumber":72,"velocity":47,"programNumber":51},{"time":276296.0200000013,"duration":74.07400000002235,"noteNumber":71,"velocity":47,"programNumber":51},{"time":276370.0940000013,"duration":74.07400000002235,"noteNumber":69,"velocity":47,"programNumber":51},{"time":276444.16800000134,"duration":222.22200000000885,"noteNumber":67,"velocity":47,"programNumber":51},{"time":276888.61200000136,"duration":222.22200000000885,"noteNumber":76,"velocity":47,"programNumber":51},{"time":277333.0560000014,"duration":222.22200000000885,"noteNumber":72,"velocity":46,"programNumber":51},{"time":277777.5000000014,"duration":222.22200000000885,"noteNumber":69,"velocity":43,"programNumber":51},{"time":278221.9440000014,"duration":222.22200000000885,"noteNumber":74,"velocity":59,"programNumber":51},{"time":279110.83200000145,"duration":666.6660000000265,"noteNumber":83,"velocity":55,"programNumber":51},{"time":279777.4980000015,"duration":74.07400000002235,"noteNumber":81,"velocity":55,"programNumber":51},{"time":279851.5720000015,"duration":74.07400000002235,"noteNumber":79,"velocity":55,"programNumber":51},{"time":279925.6460000015,"duration":74.07400000002235,"noteNumber":78,"velocity":55,"programNumber":51},{"time":279999.72000000154,"duration":222.22200000000885,"noteNumber":76,"velocity":55,"programNumber":51},{"time":280444.16400000156,"duration":222.22200000000885,"noteNumber":84,"velocity":55,"programNumber":51},{"time":280888.6080000016,"duration":888.8879999999772,"noteNumber":83,"velocity":55,"programNumber":51},{"time":281777.49600000156,"duration":444.4440000000177,"noteNumber":81,"velocity":47,"programNumber":51},{"time":282888.6060000016,"duration":111.11099999997532,"noteNumber":86,"velocity":55,"programNumber":51},{"time":283110.82800000155,"duration":111.11099999997532,"noteNumber":86,"velocity":55,"programNumber":51},{"time":283333.0500000015,"duration":111.11099999997532,"noteNumber":86,"velocity":55,"programNumber":51},{"time":283555.27200000145,"duration":111.11099999997532,"noteNumber":86,"velocity":55,"programNumber":51},{"time":283777.4940000014,"duration":111.11099999997532,"noteNumber":86,"velocity":55,"programNumber":51},{"time":283999.71600000135,"duration":111.11099999997532,"noteNumber":86,"velocity":55,"programNumber":51},{"time":284221.9380000013,"duration":111.11099999997532,"noteNumber":86,"velocity":55,"programNumber":51},{"time":284444.16000000125,"duration":111.11099999997532,"noteNumber":86,"velocity":55,"programNumber":51},{"time":284666.3820000012,"duration":111.11099999997532,"noteNumber":86,"velocity":55,"programNumber":51},{"time":284888.60400000116,"duration":111.11099999997532,"noteNumber":86,"velocity":55,"programNumber":51},{"time":285110.8260000011,"duration":111.11099999997532,"noteNumber":86,"velocity":55,"programNumber":51},{"time":285333.04800000106,"duration":222.22200000000885,"noteNumber":86,"velocity":55,"programNumber":51},{"time":285555.27000000107,"duration":222.22200000000885,"noteNumber":84,"velocity":55,"programNumber":51},{"time":285777.4920000011,"duration":222.22200000000885,"noteNumber":79,"velocity":55,"programNumber":51},{"time":285999.7140000011,"duration":222.22200000000885,"noteNumber":78,"velocity":55,"programNumber":51},{"time":286221.9360000011,"duration":222.22200000000885,"noteNumber":78,"velocity":55,"programNumber":51},{"time":286444.1580000011,"duration":222.22200000000885,"noteNumber":79,"velocity":65,"programNumber":51},{"time":286888.6020000011,"duration":111.11099999997532,"noteNumber":76,"velocity":55,"programNumber":51},{"time":287110.82400000107,"duration":222.22200000000885,"noteNumber":76,"velocity":55,"programNumber":51},{"time":287333.0460000011,"duration":222.22200000000885,"noteNumber":74,"velocity":55,"programNumber":51},{"time":287777.4900000011,"duration":166.66649999999208,"noteNumber":66,"velocity":55,"programNumber":51},{"time":287999.7120000011,"duration":444.4440000000177,"noteNumber":67,"velocity":67,"programNumber":51},{"time":288666.37800000113,"duration":111.11099999997532,"noteNumber":74,"velocity":55,"programNumber":51},{"time":288888.6000000011,"duration":222.22200000000885,"noteNumber":79,"velocity":55,"programNumber":51},{"time":289110.8220000011,"duration":222.22200000000885,"noteNumber":78,"velocity":55,"programNumber":51},{"time":289333.0440000011,"duration":222.22200000000885,"noteNumber":76,"velocity":55,"programNumber":51},{"time":289555.2660000011,"duration":222.22200000000885,"noteNumber":74,"velocity":55,"programNumber":51},{"time":289777.4880000011,"duration":55.555500000016764,"noteNumber":76,"velocity":55,"programNumber":51},{"time":289833.04350000113,"duration":55.555500000016764,"noteNumber":78,"velocity":55,"programNumber":51},{"time":289888.59900000115,"duration":55.555500000016764,"noteNumber":76,"velocity":55,"programNumber":51},{"time":289944.15450000117,"duration":55.555500000016764,"noteNumber":78,"velocity":55,"programNumber":51},{"time":289999.7100000012,"duration":222.22200000000885,"noteNumber":74,"velocity":55,"programNumber":51},{"time":290444.1540000012,"duration":111.11099999997532,"noteNumber":74,"velocity":55,"programNumber":51},{"time":290666.37600000115,"duration":111.11099999997532,"noteNumber":74,"velocity":55,"programNumber":51},{"time":290888.5980000011,"duration":111.11099999997532,"noteNumber":74,"velocity":55,"programNumber":51},{"time":291110.82000000105,"duration":111.11099999997532,"noteNumber":74,"velocity":55,"programNumber":51},{"time":291333.042000001,"duration":111.11099999997532,"noteNumber":74,"velocity":55,"programNumber":51},{"time":291555.26400000096,"duration":55.555500000016764,"noteNumber":76,"velocity":55,"programNumber":51},{"time":291610.819500001,"duration":55.555500000016764,"noteNumber":78,"velocity":55,"programNumber":51},{"time":291666.375000001,"duration":55.555500000016764,"noteNumber":76,"velocity":55,"programNumber":51},{"time":291721.930500001,"duration":55.555500000016764,"noteNumber":78,"velocity":55,"programNumber":51},{"time":291777.486000001,"duration":222.22200000000885,"noteNumber":74,"velocity":55,"programNumber":51},{"time":292221.93000000104,"duration":166.66649999999208,"noteNumber":74,"velocity":55,"programNumber":51},{"time":292444.15200000105,"duration":222.22200000000885,"noteNumber":79,"velocity":55,"programNumber":51},{"time":292666.37400000106,"duration":222.22200000000885,"noteNumber":78,"velocity":55,"programNumber":51},{"time":292888.59600000107,"duration":222.22200000000885,"noteNumber":76,"velocity":55,"programNumber":51},{"time":293110.8180000011,"duration":222.22200000000885,"noteNumber":74,"velocity":55,"programNumber":51},{"time":293333.0400000011,"duration":55.555500000016764,"noteNumber":76,"velocity":55,"programNumber":51},{"time":293388.5955000011,"duration":55.555500000016764,"noteNumber":78,"velocity":55,"programNumber":51},{"time":293444.1510000011,"duration":55.555500000016764,"noteNumber":76,"velocity":55,"programNumber":51},{"time":293499.70650000114,"duration":55.555500000016764,"noteNumber":78,"velocity":55,"programNumber":51},{"time":293555.26200000115,"duration":222.22200000000885,"noteNumber":74,"velocity":55,"programNumber":51},{"time":293999.70600000117,"duration":111.11099999997532,"noteNumber":74,"velocity":55,"programNumber":51},{"time":294221.9280000011,"duration":111.11099999997532,"noteNumber":74,"velocity":55,"programNumber":51},{"time":294444.1500000011,"duration":111.11099999997532,"noteNumber":74,"velocity":55,"programNumber":51},{"time":294666.372000001,"duration":111.11099999997532,"noteNumber":74,"velocity":55,"programNumber":51},{"time":294888.594000001,"duration":111.11099999997532,"noteNumber":74,"velocity":55,"programNumber":51},{"time":295110.8160000009,"duration":55.555500000016764,"noteNumber":76,"velocity":55,"programNumber":51},{"time":295166.37150000094,"duration":55.555500000016764,"noteNumber":78,"velocity":55,"programNumber":51},{"time":295221.92700000096,"duration":55.555500000016764,"noteNumber":76,"velocity":55,"programNumber":51},{"time":295277.482500001,"duration":55.555500000016764,"noteNumber":78,"velocity":55,"programNumber":51},{"time":295333.038000001,"duration":222.22200000000885,"noteNumber":74,"velocity":55,"programNumber":51},{"time":295999.704000001,"duration":629.6290000000154,"noteNumber":76,"velocity":83,"programNumber":51},{"time":295999.704000001,"duration":629.6290000000154,"noteNumber":64,"velocity":83,"programNumber":51},{"time":296666.37000000104,"duration":74.07400000002235,"noteNumber":74,"velocity":82,"programNumber":51},{"time":296740.44400000107,"duration":74.07400000002235,"noteNumber":72,"velocity":82,"programNumber":51},{"time":296814.5180000011,"duration":74.07400000002235,"noteNumber":71,"velocity":82,"programNumber":51},{"time":296888.5920000011,"duration":444.4440000000177,"noteNumber":72,"velocity":83,"programNumber":51},{"time":297777.48000000115,"duration":629.6290000000154,"noteNumber":62,"velocity":85,"programNumber":51},{"time":297777.48000000115,"duration":629.6290000000154,"noteNumber":74,"velocity":85,"programNumber":51},{"time":298444.1460000012,"duration":74.07400000002235,"noteNumber":72,"velocity":77,"programNumber":51},{"time":298518.2200000012,"duration":74.07400000002235,"noteNumber":71,"velocity":79,"programNumber":51},{"time":298592.2940000012,"duration":74.07400000002235,"noteNumber":69,"velocity":83,"programNumber":51},{"time":298666.36800000124,"duration":444.4440000000177,"noteNumber":71,"velocity":88,"programNumber":51},{"time":299555.2560000013,"duration":222.22200000000885,"noteNumber":76,"velocity":85,"programNumber":51},{"time":299777.4780000013,"duration":111.11099999997532,"noteNumber":78,"velocity":85,"programNumber":51},{"time":299888.58900000126,"duration":111.11099999997532,"noteNumber":79,"velocity":85,"programNumber":51},{"time":299999.70000000123,"duration":166.66649999999208,"noteNumber":78,"velocity":85,"programNumber":51},{"time":300221.92200000124,"duration":111.11099999997532,"noteNumber":76,"velocity":85,"programNumber":51},{"time":300444.1440000012,"duration":222.22200000000885,"noteNumber":76,"velocity":85,"programNumber":51},{"time":300666.3660000012,"duration":166.66649999999208,"noteNumber":74,"velocity":85,"programNumber":51},{"time":300888.5880000012,"duration":111.11099999997532,"noteNumber":71,"velocity":85,"programNumber":51},{"time":301110.81000000116,"duration":111.11099999997532,"noteNumber":74,"velocity":85,"programNumber":51},{"time":301333.0320000011,"duration":222.22200000000885,"noteNumber":74,"velocity":85,"programNumber":51},{"time":301555.2540000011,"duration":166.66649999999208,"noteNumber":72,"velocity":85,"programNumber":51},{"time":301777.47600000113,"duration":111.11099999997532,"noteNumber":71,"velocity":85,"programNumber":51},{"time":301999.6980000011,"duration":111.11099999997532,"noteNumber":69,"velocity":85,"programNumber":51},{"time":302221.92000000103,"duration":444.4440000000177,"noteNumber":67,"velocity":85,"programNumber":51},{"time":302888.58600000106,"duration":111.11099999997532,"noteNumber":74,"velocity":50,"programNumber":51},{"time":303110.808000001,"duration":222.22200000000885,"noteNumber":79,"velocity":50,"programNumber":51},{"time":303333.030000001,"duration":222.22200000000885,"noteNumber":78,"velocity":50,"programNumber":51},{"time":303555.252000001,"duration":222.22200000000885,"noteNumber":76,"velocity":53,"programNumber":51},{"time":303777.47400000104,"duration":222.22200000000885,"noteNumber":74,"velocity":56,"programNumber":51},{"time":303999.69600000104,"duration":55.555500000016764,"noteNumber":76,"velocity":58,"programNumber":51},{"time":304055.25150000106,"duration":55.555500000016764,"noteNumber":78,"velocity":58,"programNumber":51},{"time":304110.8070000011,"duration":55.555500000016764,"noteNumber":76,"velocity":59,"programNumber":51},{"time":304166.3625000011,"duration":55.555500000016764,"noteNumber":78,"velocity":59,"programNumber":51},{"time":304221.9180000011,"duration":222.22200000000885,"noteNumber":74,"velocity":61,"programNumber":51},{"time":304666.3620000011,"duration":111.11099999997532,"noteNumber":74,"velocity":56,"programNumber":51},{"time":304888.5840000011,"duration":111.11099999997532,"noteNumber":74,"velocity":55,"programNumber":51},{"time":305110.80600000103,"duration":111.11099999997532,"noteNumber":74,"velocity":55,"programNumber":51},{"time":305333.028000001,"duration":111.11099999997532,"noteNumber":74,"velocity":53,"programNumber":51},{"time":305555.25000000093,"duration":111.11099999997532,"noteNumber":74,"velocity":52,"programNumber":51},{"time":305777.4720000009,"duration":55.555500000016764,"noteNumber":76,"velocity":55,"programNumber":51},{"time":305833.0275000009,"duration":55.555500000016764,"noteNumber":78,"velocity":55,"programNumber":51},{"time":305888.5830000009,"duration":55.555500000016764,"noteNumber":76,"velocity":55,"programNumber":51},{"time":305944.13850000093,"duration":55.555500000016764,"noteNumber":78,"velocity":55,"programNumber":51},{"time":305999.69400000095,"duration":222.22200000000885,"noteNumber":74,"velocity":55,"programNumber":51},{"time":306444.13800000097,"duration":166.66649999999208,"noteNumber":74,"velocity":55,"programNumber":51},{"time":306666.360000001,"duration":222.22200000000885,"noteNumber":79,"velocity":55,"programNumber":51},{"time":306888.582000001,"duration":222.22200000000885,"noteNumber":78,"velocity":55,"programNumber":51},{"time":307110.804000001,"duration":222.22200000000885,"noteNumber":76,"velocity":55,"programNumber":51},{"time":307333.026000001,"duration":222.22200000000885,"noteNumber":74,"velocity":56,"programNumber":51},{"time":307555.248000001,"duration":55.555500000016764,"noteNumber":76,"velocity":65,"programNumber":51},{"time":307610.803500001,"duration":55.555500000016764,"noteNumber":78,"velocity":65,"programNumber":51},{"time":307666.35900000104,"duration":55.555500000016764,"noteNumber":76,"velocity":65,"programNumber":51},{"time":307721.91450000106,"duration":55.555500000016764,"noteNumber":78,"velocity":65,"programNumber":51},{"time":307777.4700000011,"duration":222.22200000000885,"noteNumber":74,"velocity":64,"programNumber":51},{"time":308221.9140000011,"duration":111.11099999997532,"noteNumber":74,"velocity":55,"programNumber":51},{"time":308444.13600000105,"duration":111.11099999997532,"noteNumber":74,"velocity":55,"programNumber":51},{"time":308666.358000001,"duration":111.11099999997532,"noteNumber":74,"velocity":55,"programNumber":51},{"time":308888.58000000095,"duration":111.11099999997532,"noteNumber":74,"velocity":55,"programNumber":51},{"time":309110.8020000009,"duration":111.11099999997532,"noteNumber":74,"velocity":55,"programNumber":51},{"time":309333.02400000085,"duration":55.555500000016764,"noteNumber":76,"velocity":59,"programNumber":51},{"time":309388.57950000087,"duration":55.555500000016764,"noteNumber":78,"velocity":59,"programNumber":51},{"time":309444.1350000009,"duration":55.555500000016764,"noteNumber":76,"velocity":59,"programNumber":51},{"time":309499.6905000009,"duration":55.555500000016764,"noteNumber":78,"velocity":59,"programNumber":51},{"time":309555.2460000009,"duration":222.22200000000885,"noteNumber":74,"velocity":59,"programNumber":51},{"time":310221.91200000094,"duration":629.6290000000154,"noteNumber":88,"velocity":85,"programNumber":51},{"time":310888.57800000097,"duration":74.07400000002235,"noteNumber":86,"velocity":85,"programNumber":51},{"time":310962.652000001,"duration":74.07400000002235,"noteNumber":84,"velocity":85,"programNumber":51},{"time":311036.726000001,"duration":74.07400000002235,"noteNumber":83,"velocity":85,"programNumber":51},{"time":311110.80000000104,"duration":444.4440000000177,"noteNumber":84,"velocity":85,"programNumber":51},{"time":311999.6880000011,"duration":629.6290000000154,"noteNumber":74,"velocity":85,"programNumber":51},{"time":311999.6880000011,"duration":629.6290000000154,"noteNumber":86,"velocity":85,"programNumber":51},{"time":312666.3540000011,"duration":74.07400000002235,"noteNumber":84,"velocity":82,"programNumber":51},{"time":312740.4280000011,"duration":74.07400000002235,"noteNumber":83,"velocity":83,"programNumber":51},{"time":312814.50200000114,"duration":74.07400000002235,"noteNumber":81,"velocity":83,"programNumber":51},{"time":312888.57600000117,"duration":444.4440000000177,"noteNumber":83,"velocity":86,"programNumber":51},{"time":313777.4640000012,"duration":222.22200000000885,"noteNumber":76,"velocity":85,"programNumber":51},{"time":313999.6860000012,"duration":111.11099999997532,"noteNumber":78,"velocity":85,"programNumber":51},{"time":314110.7970000012,"duration":111.11099999997532,"noteNumber":79,"velocity":85,"programNumber":51},{"time":314221.90800000116,"duration":166.66649999999208,"noteNumber":78,"velocity":85,"programNumber":51},{"time":314444.13000000117,"duration":111.11099999997532,"noteNumber":76,"velocity":85,"programNumber":51},{"time":314666.3520000011,"duration":111.11099999997532,"noteNumber":74,"velocity":85,"programNumber":51},{"time":314888.57400000107,"duration":111.11099999997532,"noteNumber":79,"velocity":85,"programNumber":51},{"time":315110.796000001,"duration":111.11099999997532,"noteNumber":83,"velocity":85,"programNumber":51},{"time":315333.018000001,"duration":111.11099999997532,"noteNumber":86,"velocity":85,"programNumber":51},{"time":315555.2400000009,"duration":222.22200000000885,"noteNumber":86,"velocity":85,"programNumber":51},{"time":315777.46200000093,"duration":166.66649999999208,"noteNumber":84,"velocity":85,"programNumber":51},{"time":315999.68400000094,"duration":111.11099999997532,"noteNumber":83,"velocity":85,"programNumber":51},{"time":316221.9060000009,"duration":111.11099999997532,"noteNumber":81,"velocity":85,"programNumber":51},{"time":316444.12800000084,"duration":166.66649999999208,"noteNumber":79,"velocity":94,"programNumber":51},{"time":316666.35000000085,"duration":166.66649999999208,"noteNumber":62,"velocity":85,"programNumber":51},{"time":316888.57200000086,"duration":166.66649999999208,"noteNumber":64,"velocity":85,"programNumber":51},{"time":317110.79400000087,"duration":166.66649999999208,"noteNumber":66,"velocity":85,"programNumber":51},{"time":317333.0160000009,"duration":166.66649999999208,"noteNumber":67,"velocity":85,"programNumber":51},{"time":317555.2380000009,"duration":166.66649999999208,"noteNumber":67,"velocity":85,"programNumber":51},{"time":317777.4600000009,"duration":55.555500000016764,"noteNumber":69,"velocity":85,"programNumber":51},{"time":317833.0155000009,"duration":55.555500000016764,"noteNumber":71,"velocity":85,"programNumber":51},{"time":317888.5710000009,"duration":55.555500000016764,"noteNumber":69,"velocity":85,"programNumber":51},{"time":317944.12650000094,"duration":55.555500000016764,"noteNumber":71,"velocity":85,"programNumber":51},{"time":317999.68200000096,"duration":111.11099999997532,"noteNumber":67,"velocity":85,"programNumber":51},{"time":318110.79300000094,"duration":111.11099999997532,"noteNumber":69,"velocity":85,"programNumber":51},{"time":318221.9040000009,"duration":166.66649999999208,"noteNumber":71,"velocity":85,"programNumber":51},{"time":318444.1260000009,"duration":166.66649999999208,"noteNumber":66,"velocity":85,"programNumber":51},{"time":318666.34800000093,"duration":166.66649999999208,"noteNumber":67,"velocity":85,"programNumber":51},{"time":318888.57000000094,"duration":166.66649999999208,"noteNumber":69,"velocity":85,"programNumber":51},{"time":319110.79200000095,"duration":166.66649999999208,"noteNumber":71,"velocity":85,"programNumber":51},{"time":319333.01400000096,"duration":166.66649999999208,"noteNumber":71,"velocity":85,"programNumber":51},{"time":319555.23600000096,"duration":55.555500000016764,"noteNumber":72,"velocity":86,"programNumber":51},{"time":319610.791500001,"duration":55.555500000016764,"noteNumber":74,"velocity":86,"programNumber":51},{"time":319666.347000001,"duration":55.555500000016764,"noteNumber":72,"velocity":86,"programNumber":51},{"time":319721.902500001,"duration":55.555500000016764,"noteNumber":74,"velocity":86,"programNumber":51},{"time":319777.45800000103,"duration":111.11099999997532,"noteNumber":71,"velocity":86,"programNumber":51},{"time":319888.569000001,"duration":111.11099999997532,"noteNumber":72,"velocity":89,"programNumber":51},{"time":319999.680000001,"duration":166.66649999999208,"noteNumber":74,"velocity":89,"programNumber":51},{"time":320221.902000001,"duration":166.66649999999208,"noteNumber":74,"velocity":91,"programNumber":51},{"time":320444.124000001,"duration":55.555500000016764,"noteNumber":75,"velocity":91,"programNumber":51},{"time":320499.679500001,"duration":55.555500000016764,"noteNumber":76,"velocity":91,"programNumber":51},{"time":320555.23500000103,"duration":55.555500000016764,"noteNumber":75,"velocity":91,"programNumber":51},{"time":320610.79050000105,"duration":55.555500000016764,"noteNumber":76,"velocity":92,"programNumber":51},{"time":320666.34600000107,"duration":111.11099999997532,"noteNumber":73,"velocity":94,"programNumber":51},{"time":320777.45700000104,"duration":111.11099999997532,"noteNumber":75,"velocity":97,"programNumber":51},{"time":320888.568000001,"duration":444.4440000000177,"noteNumber":76,"velocity":98,"programNumber":51},{"time":321777.45600000105,"duration":666.6660000000265,"noteNumber":64,"velocity":61,"programNumber":51},{"time":322444.1220000011,"duration":166.66649999999208,"noteNumber":69,"velocity":61,"programNumber":51},{"time":322666.3440000011,"duration":222.22200000000885,"noteNumber":67,"velocity":61,"programNumber":51},{"time":322888.5660000011,"duration":222.22200000000885,"noteNumber":66,"velocity":62,"programNumber":51},{"time":323110.7880000011,"duration":222.22200000000885,"noteNumber":64,"velocity":62,"programNumber":51},{"time":323333.0100000011,"duration":166.66649999999208,"noteNumber":62,"velocity":62,"programNumber":51},{"time":323555.2320000011,"duration":222.22200000000885,"noteNumber":74,"velocity":62,"programNumber":51},{"time":323777.45400000113,"duration":222.22200000000885,"noteNumber":73,"velocity":62,"programNumber":51},{"time":323999.67600000114,"duration":222.22200000000885,"noteNumber":72,"velocity":62,"programNumber":51},{"time":324221.89800000115,"duration":222.22200000000885,"noteNumber":71,"velocity":62,"programNumber":51},{"time":324444.12000000116,"duration":222.22200000000885,"noteNumber":74,"velocity":61,"programNumber":51},{"time":324666.34200000117,"duration":222.22200000000885,"noteNumber":73,"velocity":61,"programNumber":51},{"time":324888.5640000012,"duration":222.22200000000885,"noteNumber":72,"velocity":61,"programNumber":51},{"time":325110.7860000012,"duration":166.66649999999208,"noteNumber":71,"velocity":59,"programNumber":51},{"time":325333.0080000012,"duration":666.6660000000265,"noteNumber":64,"velocity":61,"programNumber":51},{"time":325999.6740000012,"duration":166.66649999999208,"noteNumber":69,"velocity":67,"programNumber":51},{"time":326221.89600000123,"duration":222.22200000000885,"noteNumber":67,"velocity":70,"programNumber":51},{"time":326444.11800000124,"duration":222.22200000000885,"noteNumber":66,"velocity":70,"programNumber":51},{"time":326666.34000000125,"duration":222.22200000000885,"noteNumber":64,"velocity":70,"programNumber":51},{"time":326888.56200000126,"duration":166.66649999999208,"noteNumber":62,"velocity":70,"programNumber":51},{"time":327110.78400000127,"duration":222.22200000000885,"noteNumber":74,"velocity":70,"programNumber":51},{"time":327333.0060000013,"duration":222.22200000000885,"noteNumber":76,"velocity":70,"programNumber":51},{"time":327555.2280000013,"duration":222.22200000000885,"noteNumber":78,"velocity":70,"programNumber":51},{"time":327777.4500000013,"duration":222.22200000000885,"noteNumber":79,"velocity":70,"programNumber":51},{"time":327999.6720000013,"duration":222.22200000000885,"noteNumber":74,"velocity":70,"programNumber":51},{"time":328221.8940000013,"duration":222.22200000000885,"noteNumber":76,"velocity":70,"programNumber":51},{"time":328444.1160000013,"duration":222.22200000000885,"noteNumber":78,"velocity":70,"programNumber":51},{"time":328666.3380000013,"duration":166.66649999999208,"noteNumber":79,"velocity":76,"programNumber":51},{"time":328888.56000000134,"duration":444.4440000000177,"noteNumber":81,"velocity":75,"programNumber":51},{"time":329777.4480000014,"duration":444.4440000000177,"noteNumber":86,"velocity":91,"programNumber":51},{"time":329777.4480000014,"duration":444.4440000000177,"noteNumber":74,"velocity":91,"programNumber":51},{"time":330666.3360000014,"duration":444.4440000000177,"noteNumber":79,"velocity":96,"programNumber":51},{"time":330666.3360000014,"duration":444.4440000000177,"noteNumber":71,"velocity":96,"programNumber":51},{"time":330666.3360000014,"duration":444.4440000000177,"noteNumber":62,"velocity":96,"programNumber":51},{"time":331333.00200000143,"duration":166.66649999999208,"noteNumber":74,"velocity":95,"programNumber":51},{"time":331555.22400000144,"duration":166.66649999999208,"noteNumber":71,"velocity":94,"programNumber":51},{"time":331777.44600000145,"duration":166.66649999999208,"noteNumber":67,"velocity":90,"programNumber":51},{"time":331999.66800000146,"duration":166.66649999999208,"noteNumber":71,"velocity":90,"programNumber":51},{"time":332221.89000000147,"duration":166.66649999999208,"noteNumber":74,"velocity":89,"programNumber":51},{"time":332444.1120000015,"duration":166.66649999999208,"noteNumber":79,"velocity":88,"programNumber":51},{"time":332666.3340000015,"duration":166.66649999999208,"noteNumber":74,"velocity":88,"programNumber":51},{"time":332888.5560000015,"duration":166.66649999999208,"noteNumber":79,"velocity":88,"programNumber":51},{"time":333110.7780000015,"duration":166.66649999999208,"noteNumber":83,"velocity":90,"programNumber":51},{"time":333333.0000000015,"duration":370.36999999999534,"noteNumber":86,"velocity":92,"programNumber":51},{"time":333777.44400000153,"duration":370.36999999999534,"noteNumber":78,"velocity":95,"programNumber":51},{"time":333777.44400000153,"duration":370.36999999999534,"noteNumber":69,"velocity":95,"programNumber":51},{"time":333777.44400000153,"duration":370.36999999999534,"noteNumber":62,"velocity":95,"programNumber":51},{"time":334221.88800000155,"duration":444.4440000000177,"noteNumber":79,"velocity":100,"programNumber":51},{"time":334221.88800000155,"duration":444.4440000000177,"noteNumber":71,"velocity":100,"programNumber":51},{"time":334221.88800000155,"duration":444.4440000000177,"noteNumber":62,"velocity":100,"programNumber":51},{"time":334888.5540000016,"duration":166.66649999999208,"noteNumber":74,"velocity":98,"programNumber":51},{"time":335110.7760000016,"duration":166.66649999999208,"noteNumber":71,"velocity":98,"programNumber":51},{"time":335332.9980000016,"duration":166.66649999999208,"noteNumber":67,"velocity":95,"programNumber":51},{"time":335555.2200000016,"duration":166.66649999999208,"noteNumber":71,"velocity":94,"programNumber":51},{"time":335777.4420000016,"duration":166.66649999999208,"noteNumber":74,"velocity":92,"programNumber":51},{"time":335999.6640000016,"duration":166.66649999999208,"noteNumber":79,"velocity":91,"programNumber":51},{"time":336221.8860000016,"duration":166.66649999999208,"noteNumber":74,"velocity":91,"programNumber":51},{"time":336444.10800000164,"duration":166.66649999999208,"noteNumber":79,"velocity":92,"programNumber":51},{"time":336666.33000000165,"duration":166.66649999999208,"noteNumber":83,"velocity":92,"programNumber":51},{"time":336888.55200000165,"duration":370.36999999999534,"noteNumber":86,"velocity":96,"programNumber":51},{"time":337332.9960000017,"duration":370.36999999999534,"noteNumber":78,"velocity":99,"programNumber":51},{"time":337332.9960000017,"duration":370.36999999999534,"noteNumber":69,"velocity":99,"programNumber":51},{"time":337332.9960000017,"duration":370.36999999999534,"noteNumber":62,"velocity":99,"programNumber":51},{"time":337777.4400000017,"duration":444.4440000000177,"noteNumber":79,"velocity":109,"programNumber":51},{"time":337777.4400000017,"duration":444.4440000000177,"noteNumber":71,"velocity":109,"programNumber":51},{"time":337777.4400000017,"duration":444.4440000000177,"noteNumber":62,"velocity":109,"programNumber":51},{"time":338666.3280000017,"duration":444.4440000000177,"noteNumber":79,"velocity":106,"programNumber":51},{"time":338666.3280000017,"duration":444.4440000000177,"noteNumber":71,"velocity":106,"programNumber":51},{"time":338666.3280000017,"duration":444.4440000000177,"noteNumber":62,"velocity":106,"programNumber":51},{"time":339555.21600000176,"duration":370.36999999999534,"noteNumber":79,"velocity":106,"programNumber":51},{"time":339555.21600000176,"duration":370.36999999999534,"noteNumber":71,"velocity":106,"programNumber":51},{"time":339555.21600000176,"duration":370.36999999999534,"noteNumber":62,"velocity":106,"programNumber":51},{"time":339999.6600000018,"duration":222.22200000000885,"noteNumber":67,"velocity":110,"programNumber":51},{"time":339999.6600000018,"duration":222.22200000000885,"noteNumber":55,"velocity":110,"programNumber":51},{"time":340332.99300000176,"duration":55.555500000016764,"noteNumber":67,"velocity":109,"programNumber":51},{"time":340332.99300000176,"duration":55.555500000016764,"noteNumber":55,"velocity":109,"programNumber":51},{"time":340444.1040000018,"duration":444.4440000000177,"noteNumber":67,"velocity":108,"programNumber":51},{"time":340444.1040000018,"duration":444.4440000000177,"noteNumber":55,"velocity":108,"programNumber":51}],[{"time":37.037,"duration":444.444,"noteNumber":62,"velocity":85,"programNumber":50},{"time":37.037,"duration":444.444,"noteNumber":71,"velocity":85,"programNumber":50},{"time":37.037,"duration":444.444,"noteNumber":79,"velocity":85,"programNumber":50},{"time":703.703,"duration":111.11099999999999,"noteNumber":74,"velocity":85,"programNumber":50},{"time":925.925,"duration":444.44399999999996,"noteNumber":79,"velocity":85,"programNumber":50},{"time":1592.591,"duration":111.1110000000001,"noteNumber":74,"velocity":85,"programNumber":50},{"time":1814.813,"duration":111.1110000000001,"noteNumber":79,"velocity":85,"programNumber":50},{"time":2037.0350000000003,"duration":111.11099999999988,"noteNumber":74,"velocity":85,"programNumber":50},{"time":2259.257,"duration":111.11099999999988,"noteNumber":79,"velocity":85,"programNumber":50},{"time":2481.479,"duration":111.11099999999988,"noteNumber":83,"velocity":85,"programNumber":50},{"time":2703.7009999999996,"duration":444.44399999999996,"noteNumber":86,"velocity":85,"programNumber":50},{"time":3592.5889999999995,"duration":444.44399999999996,"noteNumber":84,"velocity":85,"programNumber":50},{"time":4259.254999999999,"duration":111.11099999999988,"noteNumber":81,"velocity":85,"programNumber":50},{"time":4481.476999999999,"duration":444.4440000000004,"noteNumber":84,"velocity":85,"programNumber":50},{"time":5148.142999999999,"duration":111.11099999999988,"noteNumber":81,"velocity":85,"programNumber":50},{"time":5370.364999999999,"duration":111.11099999999988,"noteNumber":84,"velocity":85,"programNumber":50},{"time":5592.586999999999,"duration":111.11099999999988,"noteNumber":81,"velocity":85,"programNumber":50},{"time":5814.808999999998,"duration":111.11099999999988,"noteNumber":78,"velocity":85,"programNumber":50},{"time":6037.030999999998,"duration":111.11099999999988,"noteNumber":81,"velocity":85,"programNumber":50},{"time":6259.252999999998,"duration":444.4440000000004,"noteNumber":74,"velocity":85,"programNumber":50},{"time":7111.103999999998,"duration":74.07399999999961,"noteNumber":62,"velocity":85,"programNumber":50},{"time":7111.103999999998,"duration":74.07399999999961,"noteNumber":59,"velocity":85,"programNumber":50},{"time":7222.214999999998,"duration":74.07399999999961,"noteNumber":62,"velocity":85,"programNumber":50},{"time":7222.214999999998,"duration":74.07399999999961,"noteNumber":59,"velocity":85,"programNumber":50},{"time":7333.325999999998,"duration":74.07399999999961,"noteNumber":62,"velocity":85,"programNumber":50},{"time":7333.325999999998,"duration":74.07399999999961,"noteNumber":59,"velocity":85,"programNumber":50},{"time":7444.436999999998,"duration":74.07399999999961,"noteNumber":62,"velocity":85,"programNumber":50},{"time":7444.436999999998,"duration":74.07399999999961,"noteNumber":59,"velocity":85,"programNumber":50},{"time":7555.547999999998,"duration":74.07399999999961,"noteNumber":62,"velocity":85,"programNumber":50},{"time":7555.547999999998,"duration":74.07399999999961,"noteNumber":59,"velocity":85,"programNumber":50},{"time":7666.658999999998,"duration":74.07399999999961,"noteNumber":62,"velocity":85,"programNumber":50},{"time":7666.658999999998,"duration":74.07399999999961,"noteNumber":59,"velocity":85,"programNumber":50},{"time":7777.769999999998,"duration":74.07399999999961,"noteNumber":62,"velocity":85,"programNumber":50},{"time":7777.769999999998,"duration":74.07399999999961,"noteNumber":59,"velocity":85,"programNumber":50},{"time":7888.880999999998,"duration":74.07399999999961,"noteNumber":62,"velocity":85,"programNumber":50},{"time":7888.880999999998,"duration":74.07399999999961,"noteNumber":59,"velocity":85,"programNumber":50},{"time":7999.9919999999975,"duration":74.07399999999961,"noteNumber":62,"velocity":85,"programNumber":50},{"time":7999.9919999999975,"duration":74.07399999999961,"noteNumber":59,"velocity":85,"programNumber":50},{"time":8111.102999999997,"duration":74.07399999999961,"noteNumber":62,"velocity":85,"programNumber":50},{"time":8111.102999999997,"duration":74.07399999999961,"noteNumber":59,"velocity":85,"programNumber":50},{"time":8222.213999999996,"duration":74.07400000000052,"noteNumber":62,"velocity":85,"programNumber":50},{"time":8222.213999999996,"duration":74.07400000000052,"noteNumber":59,"velocity":85,"programNumber":50},{"time":8333.324999999997,"duration":74.07400000000052,"noteNumber":62,"velocity":85,"programNumber":50},{"time":8333.324999999997,"duration":74.07400000000052,"noteNumber":59,"velocity":85,"programNumber":50},{"time":8444.435999999998,"duration":74.07400000000052,"noteNumber":62,"velocity":85,"programNumber":50},{"time":8444.435999999998,"duration":74.07400000000052,"noteNumber":59,"velocity":85,"programNumber":50},{"time":8555.546999999999,"duration":74.07400000000052,"noteNumber":62,"velocity":85,"programNumber":50},{"time":8555.546999999999,"duration":74.07400000000052,"noteNumber":59,"velocity":85,"programNumber":50},{"time":8666.658,"duration":74.07400000000052,"noteNumber":62,"velocity":85,"programNumber":50},{"time":8666.658,"duration":74.07400000000052,"noteNumber":59,"velocity":85,"programNumber":50},{"time":8777.769,"duration":74.07400000000052,"noteNumber":62,"velocity":85,"programNumber":50},{"time":8777.769,"duration":74.07400000000052,"noteNumber":59,"velocity":85,"programNumber":50},{"time":8888.880000000001,"duration":74.07400000000052,"noteNumber":62,"velocity":85,"programNumber":50},{"time":8888.880000000001,"duration":74.07400000000052,"noteNumber":60,"velocity":85,"programNumber":50},{"time":8999.991000000002,"duration":74.07400000000052,"noteNumber":62,"velocity":85,"programNumber":50},{"time":8999.991000000002,"duration":74.07400000000052,"noteNumber":60,"velocity":85,"programNumber":50},{"time":9111.102000000003,"duration":74.07400000000052,"noteNumber":62,"velocity":85,"programNumber":50},{"time":9111.102000000003,"duration":74.07400000000052,"noteNumber":60,"velocity":85,"programNumber":50},{"time":9222.213000000003,"duration":74.07400000000052,"noteNumber":62,"velocity":85,"programNumber":50},{"time":9222.213000000003,"duration":74.07400000000052,"noteNumber":60,"velocity":85,"programNumber":50},{"time":9333.324000000004,"duration":74.07400000000052,"noteNumber":62,"velocity":85,"programNumber":50},{"time":9333.324000000004,"duration":74.07400000000052,"noteNumber":60,"velocity":85,"programNumber":50},{"time":9444.435000000005,"duration":74.07400000000052,"noteNumber":62,"velocity":85,"programNumber":50},{"time":9444.435000000005,"duration":74.07400000000052,"noteNumber":60,"velocity":85,"programNumber":50},{"time":9555.546000000006,"duration":74.07400000000052,"noteNumber":62,"velocity":85,"programNumber":50},{"time":9555.546000000006,"duration":74.07400000000052,"noteNumber":60,"velocity":85,"programNumber":50},{"time":9666.657000000007,"duration":74.07400000000052,"noteNumber":62,"velocity":85,"programNumber":50},{"time":9666.657000000007,"duration":74.07400000000052,"noteNumber":60,"velocity":85,"programNumber":50},{"time":9777.768000000007,"duration":74.07400000000052,"noteNumber":62,"velocity":85,"programNumber":50},{"time":9777.768000000007,"duration":74.07400000000052,"noteNumber":60,"velocity":85,"programNumber":50},{"time":9888.879000000008,"duration":74.07400000000052,"noteNumber":62,"velocity":85,"programNumber":50},{"time":9888.879000000008,"duration":74.07400000000052,"noteNumber":60,"velocity":85,"programNumber":50},{"time":9999.990000000009,"duration":74.07400000000052,"noteNumber":62,"velocity":85,"programNumber":50},{"time":9999.990000000009,"duration":74.07400000000052,"noteNumber":60,"velocity":85,"programNumber":50},{"time":10111.10100000001,"duration":74.07400000000052,"noteNumber":62,"velocity":85,"programNumber":50},{"time":10111.10100000001,"duration":74.07400000000052,"noteNumber":60,"velocity":85,"programNumber":50},{"time":10222.21200000001,"duration":74.07400000000052,"noteNumber":62,"velocity":85,"programNumber":50},{"time":10222.21200000001,"duration":74.07400000000052,"noteNumber":60,"velocity":85,"programNumber":50},{"time":10333.323000000011,"duration":74.07400000000052,"noteNumber":62,"velocity":85,"programNumber":50},{"time":10333.323000000011,"duration":74.07400000000052,"noteNumber":60,"velocity":85,"programNumber":50},{"time":10444.434000000012,"duration":74.07400000000052,"noteNumber":62,"velocity":85,"programNumber":50},{"time":10444.434000000012,"duration":74.07400000000052,"noteNumber":60,"velocity":85,"programNumber":50},{"time":10555.545000000013,"duration":74.07400000000052,"noteNumber":62,"velocity":85,"programNumber":50},{"time":10555.545000000013,"duration":74.07400000000052,"noteNumber":60,"velocity":85,"programNumber":50},{"time":10666.656000000014,"duration":74.07400000000052,"noteNumber":62,"velocity":85,"programNumber":50},{"time":10666.656000000014,"duration":74.07400000000052,"noteNumber":59,"velocity":85,"programNumber":50},{"time":10777.767000000014,"duration":74.07400000000052,"noteNumber":62,"velocity":85,"programNumber":50},{"time":10777.767000000014,"duration":74.07400000000052,"noteNumber":59,"velocity":85,"programNumber":50},{"time":10888.878000000015,"duration":74.07400000000052,"noteNumber":62,"velocity":85,"programNumber":50},{"time":10888.878000000015,"duration":74.07400000000052,"noteNumber":59,"velocity":85,"programNumber":50},{"time":10999.989000000016,"duration":74.07400000000052,"noteNumber":62,"velocity":85,"programNumber":50},{"time":10999.989000000016,"duration":74.07400000000052,"noteNumber":59,"velocity":85,"programNumber":50},{"time":11111.100000000017,"duration":74.07400000000052,"noteNumber":62,"velocity":85,"programNumber":50},{"time":11111.100000000017,"duration":74.07400000000052,"noteNumber":59,"velocity":85,"programNumber":50},{"time":11222.211000000018,"duration":74.07400000000052,"noteNumber":62,"velocity":85,"programNumber":50},{"time":11222.211000000018,"duration":74.07400000000052,"noteNumber":59,"velocity":85,"programNumber":50},{"time":11333.322000000018,"duration":74.07400000000052,"noteNumber":62,"velocity":85,"programNumber":50},{"time":11333.322000000018,"duration":74.07400000000052,"noteNumber":59,"velocity":85,"programNumber":50},{"time":11444.43300000002,"duration":74.07400000000052,"noteNumber":62,"velocity":85,"programNumber":50},{"time":11444.43300000002,"duration":74.07400000000052,"noteNumber":59,"velocity":85,"programNumber":50},{"time":11555.54400000002,"duration":74.07400000000052,"noteNumber":62,"velocity":85,"programNumber":50},{"time":11555.54400000002,"duration":74.07400000000052,"noteNumber":59,"velocity":85,"programNumber":50},{"time":11666.65500000002,"duration":74.07400000000052,"noteNumber":62,"velocity":85,"programNumber":50},{"time":11666.65500000002,"duration":74.07400000000052,"noteNumber":59,"velocity":85,"programNumber":50},{"time":11777.766000000021,"duration":74.07400000000052,"noteNumber":62,"velocity":85,"programNumber":50},{"time":11777.766000000021,"duration":74.07400000000052,"noteNumber":59,"velocity":85,"programNumber":50},{"time":11888.877000000022,"duration":74.07400000000052,"noteNumber":62,"velocity":85,"programNumber":50},{"time":11888.877000000022,"duration":74.07400000000052,"noteNumber":59,"velocity":85,"programNumber":50},{"time":11999.988000000023,"duration":74.07400000000052,"noteNumber":62,"velocity":85,"programNumber":50},{"time":11999.988000000023,"duration":74.07400000000052,"noteNumber":59,"velocity":85,"programNumber":50},{"time":12111.099000000024,"duration":74.07400000000052,"noteNumber":62,"velocity":85,"programNumber":50},{"time":12111.099000000024,"duration":74.07400000000052,"noteNumber":59,"velocity":85,"programNumber":50},{"time":12222.210000000025,"duration":74.07400000000052,"noteNumber":62,"velocity":85,"programNumber":50},{"time":12222.210000000025,"duration":74.07400000000052,"noteNumber":59,"velocity":85,"programNumber":50},{"time":12333.321000000025,"duration":74.07400000000052,"noteNumber":62,"velocity":85,"programNumber":50},{"time":12333.321000000025,"duration":74.07400000000052,"noteNumber":59,"velocity":85,"programNumber":50},{"time":12444.432000000026,"duration":74.07400000000052,"noteNumber":62,"velocity":85,"programNumber":50},{"time":12444.432000000026,"duration":74.07400000000052,"noteNumber":60,"velocity":85,"programNumber":50},{"time":12555.543000000027,"duration":74.07400000000052,"noteNumber":62,"velocity":85,"programNumber":50},{"time":12555.543000000027,"duration":74.07400000000052,"noteNumber":60,"velocity":85,"programNumber":50},{"time":12666.654000000028,"duration":74.07400000000052,"noteNumber":62,"velocity":85,"programNumber":50},{"time":12666.654000000028,"duration":74.07400000000052,"noteNumber":60,"velocity":85,"programNumber":50},{"time":12777.765000000029,"duration":74.07400000000052,"noteNumber":62,"velocity":85,"programNumber":50},{"time":12777.765000000029,"duration":74.07400000000052,"noteNumber":60,"velocity":85,"programNumber":50},{"time":12888.87600000003,"duration":74.07400000000052,"noteNumber":62,"velocity":85,"programNumber":50},{"time":12888.87600000003,"duration":74.07400000000052,"noteNumber":60,"velocity":85,"programNumber":50},{"time":12999.98700000003,"duration":74.07400000000052,"noteNumber":62,"velocity":85,"programNumber":50},{"time":12999.98700000003,"duration":74.07400000000052,"noteNumber":60,"velocity":85,"programNumber":50},{"time":13111.09800000003,"duration":74.07400000000052,"noteNumber":62,"velocity":85,"programNumber":50},{"time":13111.09800000003,"duration":74.07400000000052,"noteNumber":60,"velocity":85,"programNumber":50},{"time":13222.209000000032,"duration":74.07400000000052,"noteNumber":62,"velocity":85,"programNumber":50},{"time":13222.209000000032,"duration":74.07400000000052,"noteNumber":60,"velocity":85,"programNumber":50},{"time":13333.320000000032,"duration":74.07400000000052,"noteNumber":62,"velocity":85,"programNumber":50},{"time":13333.320000000032,"duration":74.07400000000052,"noteNumber":60,"velocity":85,"programNumber":50},{"time":13444.431000000033,"duration":74.07400000000052,"noteNumber":62,"velocity":85,"programNumber":50},{"time":13444.431000000033,"duration":74.07400000000052,"noteNumber":60,"velocity":85,"programNumber":50},{"time":13555.542000000034,"duration":74.07400000000052,"noteNumber":62,"velocity":85,"programNumber":50},{"time":13555.542000000034,"duration":74.07400000000052,"noteNumber":60,"velocity":85,"programNumber":50},{"time":13666.653000000035,"duration":74.07400000000052,"noteNumber":62,"velocity":85,"programNumber":50},{"time":13666.653000000035,"duration":74.07400000000052,"noteNumber":60,"velocity":85,"programNumber":50},{"time":13777.764000000036,"duration":74.07400000000052,"noteNumber":62,"velocity":85,"programNumber":50},{"time":13777.764000000036,"duration":74.07400000000052,"noteNumber":60,"velocity":85,"programNumber":50},{"time":13888.875000000036,"duration":74.07400000000052,"noteNumber":62,"velocity":85,"programNumber":50},{"time":13888.875000000036,"duration":74.07400000000052,"noteNumber":60,"velocity":85,"programNumber":50},{"time":13999.986000000037,"duration":74.07400000000052,"noteNumber":62,"velocity":85,"programNumber":50},{"time":13999.986000000037,"duration":74.07400000000052,"noteNumber":60,"velocity":85,"programNumber":50},{"time":14111.097000000038,"duration":74.07400000000052,"noteNumber":62,"velocity":85,"programNumber":50},{"time":14111.097000000038,"duration":74.07400000000052,"noteNumber":60,"velocity":85,"programNumber":50},{"time":14222.208000000039,"duration":444.4439999999995,"noteNumber":62,"velocity":85,"programNumber":50},{"time":14222.208000000039,"duration":444.4439999999995,"noteNumber":59,"velocity":85,"programNumber":50},{"time":14666.652000000038,"duration":166.66649999999936,"noteNumber":72,"velocity":85,"programNumber":50},{"time":14888.874000000038,"duration":166.66649999999936,"noteNumber":72,"velocity":85,"programNumber":50},{"time":15111.096000000038,"duration":166.66649999999936,"noteNumber":74,"velocity":85,"programNumber":50},{"time":15333.318000000038,"duration":166.66649999999936,"noteNumber":74,"velocity":85,"programNumber":50},{"time":15555.540000000037,"duration":222.22199999999975,"noteNumber":72,"velocity":85,"programNumber":50},{"time":15777.762000000037,"duration":111.11100000000079,"noteNumber":71,"velocity":85,"programNumber":50},{"time":15888.873000000038,"duration":111.11100000000079,"noteNumber":69,"velocity":85,"programNumber":50},{"time":15999.984000000039,"duration":166.66649999999936,"noteNumber":67,"velocity":85,"programNumber":50},{"time":16222.206000000038,"duration":166.66649999999936,"noteNumber":67,"velocity":85,"programNumber":50},{"time":16444.428000000036,"duration":166.66649999999936,"noteNumber":66,"velocity":85,"programNumber":50},{"time":16666.650000000034,"duration":166.66649999999936,"noteNumber":66,"velocity":85,"programNumber":50},{"time":16888.872000000032,"duration":444.4439999999995,"noteNumber":67,"velocity":85,"programNumber":50},{"time":17777.76000000003,"duration":888.887999999999,"noteNumber":71,"velocity":47,"programNumber":50},{"time":18666.64800000003,"duration":888.887999999999,"noteNumber":72,"velocity":47,"programNumber":50},{"time":19555.53600000003,"duration":111.11100000000079,"noteNumber":71,"velocity":47,"programNumber":50},{"time":19666.64700000003,"duration":296.29599999999846,"noteNumber":69,"velocity":47,"programNumber":50},{"time":19999.98000000003,"duration":444.4439999999995,"noteNumber":69,"velocity":47,"programNumber":50},{"time":20444.424000000028,"duration":111.11100000000079,"noteNumber":69,"velocity":47,"programNumber":50},{"time":20555.53500000003,"duration":296.29599999999846,"noteNumber":67,"velocity":47,"programNumber":50},{"time":20888.868000000028,"duration":444.4439999999995,"noteNumber":67,"velocity":47,"programNumber":50},{"time":21333.312000000027,"duration":333.3329999999987,"noteNumber":64,"velocity":47,"programNumber":50},{"time":21777.756000000027,"duration":333.3329999999987,"noteNumber":64,"velocity":47,"programNumber":50},{"time":22222.200000000026,"duration":333.3329999999987,"noteNumber":60,"velocity":47,"programNumber":50},{"time":22666.644000000026,"duration":333.3329999999987,"noteNumber":57,"velocity":47,"programNumber":50},{"time":23111.088000000025,"duration":222.22200000000157,"noteNumber":62,"velocity":47,"programNumber":50},{"time":23555.53200000003,"duration":222.22200000000157,"noteNumber":66,"velocity":47,"programNumber":50},{"time":23999.97600000003,"duration":222.22200000000157,"noteNumber":67,"velocity":47,"programNumber":50},{"time":24888.864000000034,"duration":888.887999999999,"noteNumber":71,"velocity":47,"programNumber":50},{"time":25777.752000000033,"duration":888.887999999999,"noteNumber":72,"velocity":47,"programNumber":50},{"time":26666.640000000032,"duration":222.22200000000157,"noteNumber":71,"velocity":47,"programNumber":50},{"time":26888.862000000034,"duration":111.11100000000079,"noteNumber":69,"velocity":47,"programNumber":50},{"time":27111.084000000035,"duration":111.11100000000079,"noteNumber":69,"velocity":47,"programNumber":50},{"time":27333.306000000037,"duration":111.11100000000079,"noteNumber":69,"velocity":47,"programNumber":50},{"time":27555.52800000004,"duration":222.22200000000157,"noteNumber":69,"velocity":47,"programNumber":50},{"time":27777.75000000004,"duration":111.11100000000079,"noteNumber":67,"velocity":47,"programNumber":50},{"time":27999.97200000004,"duration":111.11100000000079,"noteNumber":67,"velocity":47,"programNumber":50},{"time":28222.194000000043,"duration":111.11100000000079,"noteNumber":67,"velocity":47,"programNumber":50},{"time":28444.416000000045,"duration":333.3329999999987,"noteNumber":64,"velocity":47,"programNumber":50},{"time":28888.860000000044,"duration":166.66649999999936,"noteNumber":64,"velocity":47,"programNumber":50},{"time":29111.082000000042,"duration":166.66649999999936,"noteNumber":64,"velocity":47,"programNumber":50},{"time":29333.30400000004,"duration":333.3329999999987,"noteNumber":60,"velocity":47,"programNumber":50},{"time":29777.74800000004,"duration":166.66649999999936,"noteNumber":60,"velocity":47,"programNumber":50},{"time":29999.970000000038,"duration":166.66649999999936,"noteNumber":60,"velocity":47,"programNumber":50},{"time":30222.192000000035,"duration":1111.1100000000006,"noteNumber":59,"velocity":85,"programNumber":50},{"time":31333.302000000036,"duration":55.555499999998574,"noteNumber":59,"velocity":61,"programNumber":50},{"time":31388.857500000035,"duration":55.555499999998574,"noteNumber":60,"velocity":61,"programNumber":50},{"time":31444.413000000033,"duration":55.555499999998574,"noteNumber":57,"velocity":61,"programNumber":50},{"time":31499.96850000003,"duration":55.555499999998574,"noteNumber":59,"velocity":61,"programNumber":50},{"time":31555.52400000003,"duration":222.22200000000157,"noteNumber":60,"velocity":61,"programNumber":50},{"time":31777.746000000032,"duration":222.22200000000157,"noteNumber":57,"velocity":61,"programNumber":50},{"time":31999.968000000033,"duration":1111.109999999997,"noteNumber":67,"velocity":85,"programNumber":50},{"time":33111.07800000003,"duration":55.55550000000221,"noteNumber":67,"velocity":61,"programNumber":50},{"time":33166.63350000003,"duration":55.55550000000221,"noteNumber":69,"velocity":61,"programNumber":50},{"time":33222.189000000035,"duration":55.55550000000221,"noteNumber":66,"velocity":61,"programNumber":50},{"time":33277.74450000004,"duration":55.55550000000221,"noteNumber":67,"velocity":61,"programNumber":50},{"time":33333.30000000004,"duration":222.22200000000157,"noteNumber":69,"velocity":61,"programNumber":50},{"time":33555.52200000004,"duration":222.22200000000157,"noteNumber":66,"velocity":61,"programNumber":50},{"time":33777.74400000004,"duration":74.07400000000052,"noteNumber":71,"velocity":53,"programNumber":50},{"time":33888.85500000004,"duration":74.07400000000052,"noteNumber":71,"velocity":53,"programNumber":50},{"time":33999.96600000004,"duration":74.07400000000052,"noteNumber":71,"velocity":55,"programNumber":50},{"time":34111.077000000034,"duration":74.07400000000052,"noteNumber":71,"velocity":55,"programNumber":50},{"time":34222.18800000003,"duration":74.07400000000052,"noteNumber":71,"velocity":55,"programNumber":50},{"time":34333.29900000003,"duration":74.07400000000052,"noteNumber":71,"velocity":56,"programNumber":50},{"time":34444.410000000025,"duration":74.07400000000052,"noteNumber":71,"velocity":56,"programNumber":50},{"time":34555.52100000002,"duration":74.07400000000052,"noteNumber":71,"velocity":58,"programNumber":50},{"time":34666.63200000002,"duration":74.07400000000052,"noteNumber":72,"velocity":58,"programNumber":50},{"time":34777.74300000002,"duration":74.07400000000052,"noteNumber":72,"velocity":59,"programNumber":50},{"time":34888.854000000014,"duration":74.07400000000052,"noteNumber":72,"velocity":59,"programNumber":50},{"time":34999.96500000001,"duration":74.07400000000052,"noteNumber":72,"velocity":61,"programNumber":50},{"time":35111.07600000001,"duration":74.07400000000052,"noteNumber":74,"velocity":61,"programNumber":50},{"time":35222.187000000005,"duration":74.07400000000052,"noteNumber":74,"velocity":62,"programNumber":50},{"time":35333.298,"duration":74.07400000000052,"noteNumber":74,"velocity":62,"programNumber":50},{"time":35444.409,"duration":74.07400000000052,"noteNumber":74,"velocity":64,"programNumber":50},{"time":35555.52,"duration":74.07400000000052,"noteNumber":71,"velocity":64,"programNumber":50},{"time":35666.630999999994,"duration":74.07400000000052,"noteNumber":71,"velocity":65,"programNumber":50},{"time":35777.74199999999,"duration":74.07400000000052,"noteNumber":71,"velocity":65,"programNumber":50},{"time":35888.85299999999,"duration":74.07400000000052,"noteNumber":71,"velocity":67,"programNumber":50},{"time":35999.963999999985,"duration":74.07400000000052,"noteNumber":74,"velocity":67,"programNumber":50},{"time":36111.07499999998,"duration":74.07400000000052,"noteNumber":74,"velocity":68,"programNumber":50},{"time":36222.18599999998,"duration":74.07400000000052,"noteNumber":74,"velocity":68,"programNumber":50},{"time":36333.29699999998,"duration":74.07400000000052,"noteNumber":74,"velocity":70,"programNumber":50},{"time":36444.407999999974,"duration":74.07400000000052,"noteNumber":74,"velocity":70,"programNumber":50},{"time":36555.51899999997,"duration":74.07400000000052,"noteNumber":74,"velocity":71,"programNumber":50},{"time":36666.62999999997,"duration":74.07400000000052,"noteNumber":74,"velocity":71,"programNumber":50},{"time":36777.740999999965,"duration":74.07400000000052,"noteNumber":74,"velocity":73,"programNumber":50},{"time":36888.85199999996,"duration":74.07400000000052,"noteNumber":79,"velocity":73,"programNumber":50},{"time":36999.96299999996,"duration":74.07400000000052,"noteNumber":79,"velocity":73,"programNumber":50},{"time":37111.07399999996,"duration":74.07400000000052,"noteNumber":79,"velocity":74,"programNumber":50},{"time":37222.184999999954,"duration":74.07400000000052,"noteNumber":79,"velocity":74,"programNumber":50},{"time":37333.29599999995,"duration":74.07400000000052,"noteNumber":78,"velocity":85,"programNumber":50},{"time":37444.40699999995,"duration":74.07400000000052,"noteNumber":78,"velocity":85,"programNumber":50},{"time":37555.517999999945,"duration":74.07400000000052,"noteNumber":78,"velocity":85,"programNumber":50},{"time":37666.62899999994,"duration":74.07400000000052,"noteNumber":78,"velocity":85,"programNumber":50},{"time":37777.73999999994,"duration":74.07400000000052,"noteNumber":78,"velocity":85,"programNumber":50},{"time":37888.85099999994,"duration":74.07400000000052,"noteNumber":78,"velocity":85,"programNumber":50},{"time":37999.961999999934,"duration":74.07400000000052,"noteNumber":78,"velocity":85,"programNumber":50},{"time":38111.07299999993,"duration":74.07400000000052,"noteNumber":78,"velocity":85,"programNumber":50},{"time":38222.18399999993,"duration":74.07400000000052,"noteNumber":79,"velocity":85,"programNumber":50},{"time":38333.294999999925,"duration":74.07400000000052,"noteNumber":79,"velocity":85,"programNumber":50},{"time":38444.40599999992,"duration":74.07400000000052,"noteNumber":79,"velocity":85,"programNumber":50},{"time":38555.51699999992,"duration":74.07400000000052,"noteNumber":79,"velocity":85,"programNumber":50},{"time":38666.62799999992,"duration":74.07400000000052,"noteNumber":79,"velocity":85,"programNumber":50},{"time":38777.738999999914,"duration":74.07400000000052,"noteNumber":79,"velocity":85,"programNumber":50},{"time":38888.84999999991,"duration":74.07400000000052,"noteNumber":79,"velocity":85,"programNumber":50},{"time":38999.96099999991,"duration":74.07400000000052,"noteNumber":79,"velocity":85,"programNumber":50},{"time":39111.071999999906,"duration":74.07400000000052,"noteNumber":78,"velocity":85,"programNumber":50},{"time":39222.1829999999,"duration":74.07400000000052,"noteNumber":78,"velocity":85,"programNumber":50},{"time":39333.2939999999,"duration":74.07400000000052,"noteNumber":78,"velocity":85,"programNumber":50},{"time":39444.4049999999,"duration":74.07400000000052,"noteNumber":78,"velocity":85,"programNumber":50},{"time":39555.515999999894,"duration":74.07400000000052,"noteNumber":78,"velocity":85,"programNumber":50},{"time":39666.62699999989,"duration":74.07400000000052,"noteNumber":78,"velocity":85,"programNumber":50},{"time":39777.73799999989,"duration":74.07400000000052,"noteNumber":78,"velocity":85,"programNumber":50},{"time":39888.848999999886,"duration":74.07400000000052,"noteNumber":78,"velocity":85,"programNumber":50},{"time":39999.95999999988,"duration":74.07400000000052,"noteNumber":79,"velocity":85,"programNumber":50},{"time":40111.07099999988,"duration":74.07400000000052,"noteNumber":79,"velocity":85,"programNumber":50},{"time":40222.18199999988,"duration":74.07400000000052,"noteNumber":79,"velocity":85,"programNumber":50},{"time":40333.292999999874,"duration":74.07400000000052,"noteNumber":79,"velocity":85,"programNumber":50},{"time":40444.40399999987,"duration":74.07400000000052,"noteNumber":79,"velocity":85,"programNumber":50},{"time":40555.51499999987,"duration":74.07400000000052,"noteNumber":79,"velocity":85,"programNumber":50},{"time":40666.625999999866,"duration":74.07400000000052,"noteNumber":79,"velocity":85,"programNumber":50},{"time":40777.73699999986,"duration":74.07400000000052,"noteNumber":79,"velocity":85,"programNumber":50},{"time":40888.84799999986,"duration":111.11099999999715,"noteNumber":74,"velocity":85,"programNumber":50},{"time":41111.069999999854,"duration":333.3329999999987,"noteNumber":74,"velocity":85,"programNumber":50},{"time":41555.51399999985,"duration":333.3329999999987,"noteNumber":74,"velocity":85,"programNumber":50},{"time":41999.957999999846,"duration":333.3329999999987,"noteNumber":74,"velocity":85,"programNumber":50},{"time":42444.40199999984,"duration":333.3329999999987,"noteNumber":74,"velocity":85,"programNumber":50},{"time":42888.84599999984,"duration":333.3329999999987,"noteNumber":74,"velocity":85,"programNumber":50},{"time":43333.28999999983,"duration":333.3329999999987,"noteNumber":74,"velocity":85,"programNumber":50},{"time":43777.73399999983,"duration":333.3329999999987,"noteNumber":74,"velocity":85,"programNumber":50},{"time":44222.177999999825,"duration":222.22200000000157,"noteNumber":74,"velocity":85,"programNumber":50},{"time":44444.39999999983,"duration":74.07400000000052,"noteNumber":73,"velocity":85,"programNumber":50},{"time":44555.510999999824,"duration":74.07400000000052,"noteNumber":73,"velocity":85,"programNumber":50},{"time":44555.510999999824,"duration":74.07400000000052,"noteNumber":76,"velocity":85,"programNumber":50},{"time":44666.62199999982,"duration":74.07400000000052,"noteNumber":73,"velocity":85,"programNumber":50},{"time":44666.62199999982,"duration":74.07400000000052,"noteNumber":76,"velocity":85,"programNumber":50},{"time":44777.73299999982,"duration":74.07400000000052,"noteNumber":73,"velocity":85,"programNumber":50},{"time":44777.73299999982,"duration":74.07400000000052,"noteNumber":76,"velocity":85,"programNumber":50},{"time":44888.843999999815,"duration":74.07400000000052,"noteNumber":74,"velocity":85,"programNumber":50},{"time":44888.843999999815,"duration":74.07400000000052,"noteNumber":78,"velocity":85,"programNumber":50},{"time":44999.95499999981,"duration":74.07400000000052,"noteNumber":74,"velocity":85,"programNumber":50},{"time":44999.95499999981,"duration":74.07400000000052,"noteNumber":78,"velocity":85,"programNumber":50},{"time":45111.06599999981,"duration":74.07400000000052,"noteNumber":74,"velocity":85,"programNumber":50},{"time":45111.06599999981,"duration":74.07400000000052,"noteNumber":78,"velocity":85,"programNumber":50},{"time":45222.17699999981,"duration":74.07400000000052,"noteNumber":74,"velocity":85,"programNumber":50},{"time":45222.17699999981,"duration":74.07400000000052,"noteNumber":78,"velocity":85,"programNumber":50},{"time":45333.287999999804,"duration":74.07400000000052,"noteNumber":76,"velocity":85,"programNumber":50},{"time":45333.287999999804,"duration":74.07400000000052,"noteNumber":73,"velocity":85,"programNumber":50},{"time":45444.3989999998,"duration":74.07400000000052,"noteNumber":76,"velocity":85,"programNumber":50},{"time":45444.3989999998,"duration":74.07400000000052,"noteNumber":73,"velocity":85,"programNumber":50},{"time":45555.5099999998,"duration":74.07400000000052,"noteNumber":76,"velocity":85,"programNumber":50},{"time":45555.5099999998,"duration":74.07400000000052,"noteNumber":73,"velocity":85,"programNumber":50},{"time":45666.620999999795,"duration":74.07400000000052,"noteNumber":76,"velocity":85,"programNumber":50},{"time":45666.620999999795,"duration":74.07400000000052,"noteNumber":73,"velocity":85,"programNumber":50},{"time":45777.73199999979,"duration":74.07400000000052,"noteNumber":74,"velocity":85,"programNumber":50},{"time":45777.73199999979,"duration":74.07400000000052,"noteNumber":78,"velocity":85,"programNumber":50},{"time":45888.84299999979,"duration":74.07400000000052,"noteNumber":74,"velocity":85,"programNumber":50},{"time":45888.84299999979,"duration":74.07400000000052,"noteNumber":78,"velocity":85,"programNumber":50},{"time":45999.95399999979,"duration":74.07400000000052,"noteNumber":74,"velocity":85,"programNumber":50},{"time":45999.95399999979,"duration":74.07400000000052,"noteNumber":78,"velocity":85,"programNumber":50},{"time":46111.064999999784,"duration":74.07400000000052,"noteNumber":74,"velocity":85,"programNumber":50},{"time":46111.064999999784,"duration":74.07400000000052,"noteNumber":78,"velocity":85,"programNumber":50},{"time":46222.17599999978,"duration":166.66649999999936,"noteNumber":73,"velocity":85,"programNumber":50},{"time":46222.17599999978,"duration":166.66649999999936,"noteNumber":76,"velocity":85,"programNumber":50},{"time":46444.39799999978,"duration":166.66649999999936,"noteNumber":69,"velocity":85,"programNumber":50},{"time":46666.619999999784,"duration":166.66649999999936,"noteNumber":69,"velocity":85,"programNumber":50},{"time":46888.841999999786,"duration":166.66649999999936,"noteNumber":69,"velocity":85,"programNumber":50},{"time":47111.06399999979,"duration":444.44400000000314,"noteNumber":69,"velocity":85,"programNumber":50},{"time":47999.951999999794,"duration":666.6659999999974,"noteNumber":69,"velocity":55,"programNumber":50},{"time":48666.61799999979,"duration":74.07400000000052,"noteNumber":67,"velocity":55,"programNumber":50},{"time":48740.69199999979,"duration":74.07400000000052,"noteNumber":66,"velocity":55,"programNumber":50},{"time":48814.76599999979,"duration":74.07400000000052,"noteNumber":64,"velocity":55,"programNumber":50},{"time":48888.83999999979,"duration":222.22200000000157,"noteNumber":62,"velocity":55,"programNumber":50},{"time":49333.283999999796,"duration":222.22200000000157,"noteNumber":71,"velocity":55,"programNumber":50},{"time":49777.7279999998,"duration":222.22200000000157,"noteNumber":67,"velocity":55,"programNumber":50},{"time":50222.1719999998,"duration":222.22200000000157,"noteNumber":64,"velocity":55,"programNumber":50},{"time":50666.615999999805,"duration":222.22200000000157,"noteNumber":69,"velocity":55,"programNumber":50},{"time":51555.503999999804,"duration":666.6659999999974,"noteNumber":66,"velocity":55,"programNumber":50},{"time":52222.1699999998,"duration":74.07400000000052,"noteNumber":64,"velocity":55,"programNumber":50},{"time":52296.2439999998,"duration":74.07400000000052,"noteNumber":62,"velocity":55,"programNumber":50},{"time":52370.3179999998,"duration":74.07400000000052,"noteNumber":61,"velocity":55,"programNumber":50},{"time":52444.3919999998,"duration":222.22200000000157,"noteNumber":59,"velocity":55,"programNumber":50},{"time":52888.83599999981,"duration":222.22200000000157,"noteNumber":67,"velocity":55,"programNumber":50},{"time":53333.27999999981,"duration":888.887999999999,"noteNumber":66,"velocity":55,"programNumber":50},{"time":54222.16799999981,"duration":444.44400000000314,"noteNumber":64,"velocity":55,"programNumber":50},{"time":55111.055999999815,"duration":666.6659999999974,"noteNumber":69,"velocity":55,"programNumber":50},{"time":55777.72199999981,"duration":74.07400000000052,"noteNumber":67,"velocity":55,"programNumber":50},{"time":55851.79599999981,"duration":74.07400000000052,"noteNumber":66,"velocity":55,"programNumber":50},{"time":55925.86999999981,"duration":74.07400000000052,"noteNumber":64,"velocity":55,"programNumber":50},{"time":55999.943999999814,"duration":222.22200000000157,"noteNumber":62,"velocity":55,"programNumber":50},{"time":56444.38799999982,"duration":222.22200000000157,"noteNumber":71,"velocity":55,"programNumber":50},{"time":56888.83199999982,"duration":222.22200000000157,"noteNumber":67,"velocity":55,"programNumber":50},{"time":57333.27599999982,"duration":222.22200000000157,"noteNumber":64,"velocity":55,"programNumber":50},{"time":57777.71999999983,"duration":222.22200000000157,"noteNumber":69,"velocity":55,"programNumber":50},{"time":58388.83049999983,"duration":166.66649999999936,"noteNumber":67,"velocity":55,"programNumber":50},{"time":58666.607999999826,"duration":222.22200000000157,"noteNumber":67,"velocity":55,"programNumber":50},{"time":58888.82999999983,"duration":222.22200000000157,"noteNumber":66,"velocity":55,"programNumber":50},{"time":59333.27399999983,"duration":111.11099999999715,"noteNumber":79,"velocity":55,"programNumber":50},{"time":59555.495999999825,"duration":222.22200000000157,"noteNumber":79,"velocity":55,"programNumber":50},{"time":59777.717999999826,"duration":222.22200000000157,"noteNumber":78,"velocity":55,"programNumber":50},{"time":60222.16199999983,"duration":166.66649999999936,"noteNumber":67,"velocity":55,"programNumber":50},{"time":60444.38399999983,"duration":166.66649999999936,"noteNumber":66,"velocity":55,"programNumber":50},{"time":60666.60599999983,"duration":166.66649999999936,"noteNumber":66,"velocity":55,"programNumber":50},{"time":60888.827999999834,"duration":166.66649999999936,"noteNumber":67,"velocity":55,"programNumber":50},{"time":61111.049999999836,"duration":166.66649999999936,"noteNumber":67,"velocity":55,"programNumber":50},{"time":61333.27199999984,"duration":166.66649999999936,"noteNumber":69,"velocity":55,"programNumber":50},{"time":61555.49399999984,"duration":166.66649999999936,"noteNumber":69,"velocity":55,"programNumber":50},{"time":61777.71599999984,"duration":166.66649999999936,"noteNumber":66,"velocity":55,"programNumber":50},{"time":61999.93799999984,"duration":166.66649999999936,"noteNumber":66,"velocity":55,"programNumber":50},{"time":62222.15999999984,"duration":166.66649999999936,"noteNumber":64,"velocity":55,"programNumber":50},{"time":62444.381999999845,"duration":166.66649999999936,"noteNumber":64,"velocity":55,"programNumber":50},{"time":62666.60399999985,"duration":166.66649999999936,"noteNumber":66,"velocity":55,"programNumber":50},{"time":62888.82599999985,"duration":166.66649999999936,"noteNumber":66,"velocity":55,"programNumber":50},{"time":63111.04799999985,"duration":166.66649999999936,"noteNumber":67,"velocity":55,"programNumber":50},{"time":63333.26999999985,"duration":166.66649999999936,"noteNumber":67,"velocity":55,"programNumber":50},{"time":63555.49199999985,"duration":166.66649999999936,"noteNumber":64,"velocity":55,"programNumber":50},{"time":63777.713999999854,"duration":166.66649999999936,"noteNumber":64,"velocity":55,"programNumber":50},{"time":63999.935999999856,"duration":166.66649999999936,"noteNumber":66,"velocity":55,"programNumber":50},{"time":64222.15799999986,"duration":166.66649999999936,"noteNumber":66,"velocity":55,"programNumber":50},{"time":64444.37999999986,"duration":166.66649999999936,"noteNumber":67,"velocity":55,"programNumber":50},{"time":64666.60199999986,"duration":166.66649999999936,"noteNumber":67,"velocity":55,"programNumber":50},{"time":64888.82399999986,"duration":166.66649999999936,"noteNumber":69,"velocity":55,"programNumber":50},{"time":65111.045999999864,"duration":166.66649999999936,"noteNumber":69,"velocity":55,"programNumber":50},{"time":65333.267999999865,"duration":166.66649999999936,"noteNumber":66,"velocity":55,"programNumber":50},{"time":65555.48999999986,"duration":166.66650000000664,"noteNumber":66,"velocity":55,"programNumber":50},{"time":65777.71199999987,"duration":166.66650000000664,"noteNumber":64,"velocity":55,"programNumber":50},{"time":65999.93399999988,"duration":166.66650000000664,"noteNumber":64,"velocity":55,"programNumber":50},{"time":66222.15599999989,"duration":166.66650000000664,"noteNumber":66,"velocity":55,"programNumber":50},{"time":66444.3779999999,"duration":166.66650000000664,"noteNumber":66,"velocity":55,"programNumber":50},{"time":66666.5999999999,"duration":166.66650000000664,"noteNumber":67,"velocity":55,"programNumber":50},{"time":66888.82199999991,"duration":166.66650000000664,"noteNumber":67,"velocity":55,"programNumber":50},{"time":67111.04399999992,"duration":166.66650000000664,"noteNumber":64,"velocity":55,"programNumber":50},{"time":67333.26599999993,"duration":166.66650000000664,"noteNumber":64,"velocity":55,"programNumber":50},{"time":67555.48799999994,"duration":444.44400000000314,"noteNumber":66,"velocity":55,"programNumber":50},{"time":68444.37599999995,"duration":888.8880000000063,"noteNumber":71,"velocity":85,"programNumber":50},{"time":68444.37599999995,"duration":888.8880000000063,"noteNumber":78,"velocity":85,"programNumber":50},{"time":69333.26399999995,"duration":444.44400000000314,"noteNumber":76,"velocity":85,"programNumber":50},{"time":70222.15199999996,"duration":888.8880000000063,"noteNumber":76,"velocity":85,"programNumber":50},{"time":70222.15199999996,"duration":888.8880000000063,"noteNumber":69,"velocity":85,"programNumber":50},{"time":71111.03999999996,"duration":166.66650000000664,"noteNumber":74,"velocity":85,"programNumber":50},{"time":71333.26199999997,"duration":111.11100000000442,"noteNumber":78,"velocity":85,"programNumber":50},{"time":71555.48399999998,"duration":111.11100000000442,"noteNumber":79,"velocity":85,"programNumber":50},{"time":71777.70599999999,"duration":111.11100000000442,"noteNumber":81,"velocity":85,"programNumber":50},{"time":71999.928,"duration":222.2219999999943,"noteNumber":79,"velocity":85,"programNumber":50},{"time":72222.15,"duration":111.11100000000442,"noteNumber":81,"velocity":85,"programNumber":50},{"time":72333.261,"duration":111.11100000000442,"noteNumber":83,"velocity":85,"programNumber":50},{"time":72444.372,"duration":166.66650000000664,"noteNumber":81,"velocity":85,"programNumber":50},{"time":72666.59400000001,"duration":111.11100000000442,"noteNumber":79,"velocity":85,"programNumber":50},{"time":72888.81600000002,"duration":222.2219999999943,"noteNumber":79,"velocity":85,"programNumber":50},{"time":73111.03800000002,"duration":166.66650000000664,"noteNumber":78,"velocity":85,"programNumber":50},{"time":73333.26000000002,"duration":111.11100000000442,"noteNumber":74,"velocity":85,"programNumber":50},{"time":73555.48200000003,"duration":111.11100000000442,"noteNumber":78,"velocity":85,"programNumber":50},{"time":73777.70400000004,"duration":222.2219999999943,"noteNumber":78,"velocity":85,"programNumber":50},{"time":73999.92600000004,"duration":166.66650000000664,"noteNumber":76,"velocity":85,"programNumber":50},{"time":74222.14800000004,"duration":111.11100000000442,"noteNumber":74,"velocity":85,"programNumber":50},{"time":74444.37000000005,"duration":111.11100000000442,"noteNumber":73,"velocity":85,"programNumber":50},{"time":74666.59200000006,"duration":166.66650000000664,"noteNumber":74,"velocity":85,"programNumber":50},{"time":74888.81400000007,"duration":166.66650000000664,"noteNumber":66,"velocity":53,"programNumber":50},{"time":75111.03600000008,"duration":166.66650000000664,"noteNumber":67,"velocity":53,"programNumber":50},{"time":75333.25800000009,"duration":166.66650000000664,"noteNumber":67,"velocity":53,"programNumber":50},{"time":75555.4800000001,"duration":166.66650000000664,"noteNumber":69,"velocity":53,"programNumber":50},{"time":75777.7020000001,"duration":166.66650000000664,"noteNumber":69,"velocity":53,"programNumber":50},{"time":75999.92400000012,"duration":166.66650000000664,"noteNumber":66,"velocity":53,"programNumber":50},{"time":76222.14600000012,"duration":166.66650000000664,"noteNumber":66,"velocity":53,"programNumber":50},{"time":76444.36800000013,"duration":166.66650000000664,"noteNumber":64,"velocity":55,"programNumber":50},{"time":76666.59000000014,"duration":166.66650000000664,"noteNumber":64,"velocity":55,"programNumber":50},{"time":76888.81200000015,"duration":166.66650000000664,"noteNumber":66,"velocity":55,"programNumber":50},{"time":77111.03400000016,"duration":166.66650000000664,"noteNumber":66,"velocity":55,"programNumber":50},{"time":77333.25600000017,"duration":166.66650000000664,"noteNumber":67,"velocity":55,"programNumber":50},{"time":77555.47800000018,"duration":166.66650000000664,"noteNumber":67,"velocity":55,"programNumber":50},{"time":77777.70000000019,"duration":166.66650000000664,"noteNumber":64,"velocity":55,"programNumber":50},{"time":77999.9220000002,"duration":166.66650000000664,"noteNumber":64,"velocity":55,"programNumber":50},{"time":78222.1440000002,"duration":166.66650000000664,"noteNumber":66,"velocity":55,"programNumber":50},{"time":78444.36600000021,"duration":166.66650000000664,"noteNumber":66,"velocity":55,"programNumber":50},{"time":78666.58800000022,"duration":166.66650000000664,"noteNumber":67,"velocity":55,"programNumber":50},{"time":78888.81000000023,"duration":166.66650000000664,"noteNumber":67,"velocity":55,"programNumber":50},{"time":79111.03200000024,"duration":166.66650000000664,"noteNumber":69,"velocity":55,"programNumber":50},{"time":79333.25400000025,"duration":166.66650000000664,"noteNumber":69,"velocity":55,"programNumber":50},{"time":79555.47600000026,"duration":166.66650000000664,"noteNumber":66,"velocity":55,"programNumber":50},{"time":79777.69800000027,"duration":166.66650000000664,"noteNumber":66,"velocity":55,"programNumber":50},{"time":79999.92000000027,"duration":166.66650000000664,"noteNumber":64,"velocity":55,"programNumber":50},{"time":80222.14200000028,"duration":166.66650000000664,"noteNumber":64,"velocity":55,"programNumber":50},{"time":80444.36400000029,"duration":166.66650000000664,"noteNumber":66,"velocity":55,"programNumber":50},{"time":80666.5860000003,"duration":166.66650000000664,"noteNumber":66,"velocity":55,"programNumber":50},{"time":80888.80800000031,"duration":166.66650000000664,"noteNumber":67,"velocity":55,"programNumber":50},{"time":81111.03000000032,"duration":166.66650000000664,"noteNumber":67,"velocity":55,"programNumber":50},{"time":81333.25200000033,"duration":166.66650000000664,"noteNumber":64,"velocity":55,"programNumber":50},{"time":81555.47400000034,"duration":166.66650000000664,"noteNumber":64,"velocity":55,"programNumber":50},{"time":81777.69600000035,"duration":444.44400000000314,"noteNumber":66,"velocity":58,"programNumber":50},{"time":82666.58400000035,"duration":888.8880000000063,"noteNumber":71,"velocity":85,"programNumber":50},{"time":82666.58400000035,"duration":888.8880000000063,"noteNumber":78,"velocity":85,"programNumber":50},{"time":83555.47200000036,"duration":444.44400000000314,"noteNumber":76,"velocity":85,"programNumber":50},{"time":84444.36000000036,"duration":888.8880000000063,"noteNumber":76,"velocity":85,"programNumber":50},{"time":84444.36000000036,"duration":888.8880000000063,"noteNumber":69,"velocity":85,"programNumber":50},{"time":85333.24800000037,"duration":166.66650000000664,"noteNumber":74,"velocity":85,"programNumber":50},{"time":85555.47000000038,"duration":111.11100000000442,"noteNumber":78,"velocity":85,"programNumber":50},{"time":85777.69200000039,"duration":111.11100000000442,"noteNumber":79,"velocity":85,"programNumber":50},{"time":85999.9140000004,"duration":111.11100000000442,"noteNumber":81,"velocity":85,"programNumber":50},{"time":86222.1360000004,"duration":222.2219999999943,"noteNumber":79,"velocity":85,"programNumber":50},{"time":86444.3580000004,"duration":111.11100000000442,"noteNumber":81,"velocity":85,"programNumber":50},{"time":86555.4690000004,"duration":111.11100000000442,"noteNumber":83,"velocity":85,"programNumber":50},{"time":86666.58000000041,"duration":166.66650000000664,"noteNumber":81,"velocity":85,"programNumber":50},{"time":86888.80200000042,"duration":111.11100000000442,"noteNumber":79,"velocity":85,"programNumber":50},{"time":87111.02400000043,"duration":222.2219999999943,"noteNumber":79,"velocity":85,"programNumber":50},{"time":87333.24600000042,"duration":166.66650000000664,"noteNumber":78,"velocity":85,"programNumber":50},{"time":87555.46800000043,"duration":111.11100000000442,"noteNumber":74,"velocity":85,"programNumber":50},{"time":87777.69000000044,"duration":111.11100000000442,"noteNumber":78,"velocity":85,"programNumber":50},{"time":87999.91200000045,"duration":222.2219999999943,"noteNumber":78,"velocity":85,"programNumber":50},{"time":88222.13400000044,"duration":166.66650000000664,"noteNumber":76,"velocity":85,"programNumber":50},{"time":88444.35600000045,"duration":111.11100000000442,"noteNumber":74,"velocity":85,"programNumber":50},{"time":88666.57800000046,"duration":111.11100000000442,"noteNumber":73,"velocity":85,"programNumber":50},{"time":88888.80000000047,"duration":166.66650000000664,"noteNumber":74,"velocity":85,"programNumber":50},{"time":89111.02200000048,"duration":166.66650000000664,"noteNumber":69,"velocity":85,"programNumber":50},{"time":89333.24400000049,"duration":166.66650000000664,"noteNumber":71,"velocity":85,"programNumber":50},{"time":89555.4660000005,"duration":166.66650000000664,"noteNumber":73,"velocity":85,"programNumber":50},{"time":89777.6880000005,"duration":111.11100000000442,"noteNumber":74,"velocity":85,"programNumber":50},{"time":89999.91000000051,"duration":111.11100000000442,"noteNumber":74,"velocity":85,"programNumber":50},{"time":90222.13200000052,"duration":55.55550000000221,"noteNumber":76,"velocity":85,"programNumber":50},{"time":90277.68750000052,"duration":55.55550000000221,"noteNumber":78,"velocity":85,"programNumber":50},{"time":90333.24300000053,"duration":55.55550000000221,"noteNumber":76,"velocity":85,"programNumber":50},{"time":90388.79850000053,"duration":55.55550000000221,"noteNumber":78,"velocity":85,"programNumber":50},{"time":90444.35400000053,"duration":111.11100000000442,"noteNumber":74,"velocity":85,"programNumber":50},{"time":90555.46500000053,"duration":111.11100000000442,"noteNumber":76,"velocity":85,"programNumber":50},{"time":90666.57600000054,"duration":222.2219999999943,"noteNumber":78,"velocity":85,"programNumber":50},{"time":90888.79800000053,"duration":166.66650000000664,"noteNumber":73,"velocity":85,"programNumber":50},{"time":91111.02000000054,"duration":166.66650000000664,"noteNumber":74,"velocity":85,"programNumber":50},{"time":91333.24200000055,"duration":166.66650000000664,"noteNumber":76,"velocity":85,"programNumber":50},{"time":91555.46400000056,"duration":166.66650000000664,"noteNumber":78,"velocity":85,"programNumber":50},{"time":91777.68600000057,"duration":166.66650000000664,"noteNumber":78,"velocity":85,"programNumber":50},{"time":91999.90800000058,"duration":55.55550000000221,"noteNumber":79,"velocity":85,"programNumber":50},{"time":92055.46350000058,"duration":55.55550000000221,"noteNumber":81,"velocity":85,"programNumber":50},{"time":92111.01900000058,"duration":55.55550000000221,"noteNumber":79,"velocity":85,"programNumber":50},{"time":92166.57450000058,"duration":55.55550000000221,"noteNumber":81,"velocity":85,"programNumber":50},{"time":92222.13000000059,"duration":111.11100000000442,"noteNumber":78,"velocity":85,"programNumber":50},{"time":92333.24100000059,"duration":111.11100000000442,"noteNumber":79,"velocity":85,"programNumber":50},{"time":92444.3520000006,"duration":166.66650000000664,"noteNumber":81,"velocity":85,"programNumber":50},{"time":92666.5740000006,"duration":166.66650000000664,"noteNumber":81,"velocity":85,"programNumber":50},{"time":92888.79600000061,"duration":55.55550000000221,"noteNumber":82,"velocity":85,"programNumber":50},{"time":92944.35150000062,"duration":55.55550000000221,"noteNumber":83,"velocity":85,"programNumber":50},{"time":92999.90700000062,"duration":55.55550000000221,"noteNumber":82,"velocity":85,"programNumber":50},{"time":93055.46250000062,"duration":55.55550000000221,"noteNumber":83,"velocity":85,"programNumber":50},{"time":93111.01800000062,"duration":111.11100000000442,"noteNumber":80,"velocity":85,"programNumber":50},{"time":93222.12900000063,"duration":111.11100000000442,"noteNumber":82,"velocity":85,"programNumber":50},{"time":93333.24000000063,"duration":444.44400000000314,"noteNumber":83,"velocity":85,"programNumber":50},{"time":94222.12800000064,"duration":1777.775999999998,"noteNumber":67,"velocity":55,"programNumber":50},{"time":95999.90400000064,"duration":222.2219999999943,"noteNumber":66,"velocity":55,"programNumber":50},{"time":96444.34800000062,"duration":222.2219999999943,"noteNumber":69,"velocity":55,"programNumber":50},{"time":96888.79200000061,"duration":222.2219999999943,"noteNumber":66,"velocity":55,"programNumber":50},{"time":97814.7170000006,"duration":444.44400000000314,"noteNumber":62,"velocity":85,"programNumber":50},{"time":97814.7170000006,"duration":444.44400000000314,"noteNumber":71,"velocity":85,"programNumber":50},{"time":97814.7170000006,"duration":444.44400000000314,"noteNumber":79,"velocity":85,"programNumber":50},{"time":98481.3830000006,"duration":111.11100000000442,"noteNumber":74,"velocity":85,"programNumber":50},{"time":98703.6050000006,"duration":444.44400000000314,"noteNumber":79,"velocity":85,"programNumber":50},{"time":99370.2710000006,"duration":111.11100000000442,"noteNumber":74,"velocity":85,"programNumber":50},{"time":99592.49300000061,"duration":111.11100000000442,"noteNumber":79,"velocity":85,"programNumber":50},{"time":99814.71500000062,"duration":111.11100000000442,"noteNumber":74,"velocity":85,"programNumber":50},{"time":100036.93700000063,"duration":111.11100000000442,"noteNumber":79,"velocity":85,"programNumber":50},{"time":100259.15900000064,"duration":111.11100000000442,"noteNumber":83,"velocity":85,"programNumber":50},{"time":100481.38100000065,"duration":444.44400000000314,"noteNumber":86,"velocity":85,"programNumber":50},{"time":101370.26900000066,"duration":444.44400000000314,"noteNumber":84,"velocity":85,"programNumber":50},{"time":102036.93500000065,"duration":111.11100000000442,"noteNumber":81,"velocity":85,"programNumber":50},{"time":102259.15700000066,"duration":444.44400000000314,"noteNumber":84,"velocity":85,"programNumber":50},{"time":102925.82300000066,"duration":111.11100000000442,"noteNumber":81,"velocity":85,"programNumber":50},{"time":103148.04500000067,"duration":111.11100000000442,"noteNumber":84,"velocity":85,"programNumber":50},{"time":103370.26700000068,"duration":111.11100000000442,"noteNumber":81,"velocity":85,"programNumber":50},{"time":103592.48900000069,"duration":111.11100000000442,"noteNumber":78,"velocity":85,"programNumber":50},{"time":103814.7110000007,"duration":111.11100000000442,"noteNumber":81,"velocity":85,"programNumber":50},{"time":104036.9330000007,"duration":444.44400000000314,"noteNumber":74,"velocity":85,"programNumber":50},{"time":104888.78400000071,"duration":74.07399999999325,"noteNumber":62,"velocity":85,"programNumber":50},{"time":104888.78400000071,"duration":74.07399999999325,"noteNumber":59,"velocity":85,"programNumber":50},{"time":104999.8950000007,"duration":74.07399999999325,"noteNumber":62,"velocity":85,"programNumber":50},{"time":104999.8950000007,"duration":74.07399999999325,"noteNumber":59,"velocity":85,"programNumber":50},{"time":105111.00600000069,"duration":74.07399999999325,"noteNumber":62,"velocity":85,"programNumber":50},{"time":105111.00600000069,"duration":74.07399999999325,"noteNumber":59,"velocity":85,"programNumber":50},{"time":105222.11700000068,"duration":74.07399999999325,"noteNumber":62,"velocity":85,"programNumber":50},{"time":105222.11700000068,"duration":74.07399999999325,"noteNumber":59,"velocity":85,"programNumber":50},{"time":105333.22800000067,"duration":74.07399999999325,"noteNumber":62,"velocity":85,"programNumber":50},{"time":105333.22800000067,"duration":74.07399999999325,"noteNumber":59,"velocity":85,"programNumber":50},{"time":105444.33900000066,"duration":74.07399999999325,"noteNumber":62,"velocity":85,"programNumber":50},{"time":105444.33900000066,"duration":74.07399999999325,"noteNumber":59,"velocity":85,"programNumber":50},{"time":105555.45000000065,"duration":74.07399999999325,"noteNumber":62,"velocity":85,"programNumber":50},{"time":105555.45000000065,"duration":74.07399999999325,"noteNumber":59,"velocity":85,"programNumber":50},{"time":105666.56100000064,"duration":74.07399999999325,"noteNumber":62,"velocity":85,"programNumber":50},{"time":105666.56100000064,"duration":74.07399999999325,"noteNumber":59,"velocity":85,"programNumber":50},{"time":105777.67200000063,"duration":74.07399999999325,"noteNumber":62,"velocity":85,"programNumber":50},{"time":105777.67200000063,"duration":74.07399999999325,"noteNumber":59,"velocity":85,"programNumber":50},{"time":105888.78300000062,"duration":74.07399999999325,"noteNumber":62,"velocity":85,"programNumber":50},{"time":105888.78300000062,"duration":74.07399999999325,"noteNumber":59,"velocity":85,"programNumber":50},{"time":105999.89400000061,"duration":74.07399999999325,"noteNumber":62,"velocity":85,"programNumber":50},{"time":105999.89400000061,"duration":74.07399999999325,"noteNumber":59,"velocity":85,"programNumber":50},{"time":106111.0050000006,"duration":74.07399999999325,"noteNumber":62,"velocity":85,"programNumber":50},{"time":106111.0050000006,"duration":74.07399999999325,"noteNumber":59,"velocity":85,"programNumber":50},{"time":106222.11600000059,"duration":74.07399999999325,"noteNumber":62,"velocity":85,"programNumber":50},{"time":106222.11600000059,"duration":74.07399999999325,"noteNumber":59,"velocity":85,"programNumber":50},{"time":106333.22700000058,"duration":74.07399999999325,"noteNumber":62,"velocity":85,"programNumber":50},{"time":106333.22700000058,"duration":74.07399999999325,"noteNumber":59,"velocity":85,"programNumber":50},{"time":106444.33800000057,"duration":74.07399999999325,"noteNumber":62,"velocity":85,"programNumber":50},{"time":106444.33800000057,"duration":74.07399999999325,"noteNumber":59,"velocity":85,"programNumber":50},{"time":106555.44900000056,"duration":74.07399999999325,"noteNumber":62,"velocity":85,"programNumber":50},{"time":106555.44900000056,"duration":74.07399999999325,"noteNumber":59,"velocity":85,"programNumber":50},{"time":106666.56000000055,"duration":74.07399999999325,"noteNumber":62,"velocity":85,"programNumber":50},{"time":106666.56000000055,"duration":74.07399999999325,"noteNumber":60,"velocity":85,"programNumber":50},{"time":106777.67100000054,"duration":74.07399999999325,"noteNumber":62,"velocity":85,"programNumber":50},{"time":106777.67100000054,"duration":74.07399999999325,"noteNumber":60,"velocity":85,"programNumber":50},{"time":106888.78200000053,"duration":74.07399999999325,"noteNumber":62,"velocity":85,"programNumber":50},{"time":106888.78200000053,"duration":74.07399999999325,"noteNumber":60,"velocity":85,"programNumber":50},{"time":106999.89300000052,"duration":74.07399999999325,"noteNumber":62,"velocity":85,"programNumber":50},{"time":106999.89300000052,"duration":74.07399999999325,"noteNumber":60,"velocity":85,"programNumber":50},{"time":107111.00400000051,"duration":74.07399999999325,"noteNumber":62,"velocity":85,"programNumber":50},{"time":107111.00400000051,"duration":74.07399999999325,"noteNumber":60,"velocity":85,"programNumber":50},{"time":107222.1150000005,"duration":74.07399999999325,"noteNumber":62,"velocity":85,"programNumber":50},{"time":107222.1150000005,"duration":74.07399999999325,"noteNumber":60,"velocity":85,"programNumber":50},{"time":107333.22600000049,"duration":74.07399999999325,"noteNumber":62,"velocity":85,"programNumber":50},{"time":107333.22600000049,"duration":74.07399999999325,"noteNumber":60,"velocity":85,"programNumber":50},{"time":107444.33700000048,"duration":74.07399999999325,"noteNumber":62,"velocity":85,"programNumber":50},{"time":107444.33700000048,"duration":74.07399999999325,"noteNumber":60,"velocity":85,"programNumber":50},{"time":107555.44800000047,"duration":74.07399999999325,"noteNumber":62,"velocity":85,"programNumber":50},{"time":107555.44800000047,"duration":74.07399999999325,"noteNumber":60,"velocity":85,"programNumber":50},{"time":107666.55900000046,"duration":74.07399999999325,"noteNumber":62,"velocity":85,"programNumber":50},{"time":107666.55900000046,"duration":74.07399999999325,"noteNumber":60,"velocity":85,"programNumber":50},{"time":107777.67000000045,"duration":74.07399999999325,"noteNumber":62,"velocity":85,"programNumber":50},{"time":107777.67000000045,"duration":74.07399999999325,"noteNumber":60,"velocity":85,"programNumber":50},{"time":107888.78100000044,"duration":74.07399999999325,"noteNumber":62,"velocity":85,"programNumber":50},{"time":107888.78100000044,"duration":74.07399999999325,"noteNumber":60,"velocity":85,"programNumber":50},{"time":107999.89200000043,"duration":74.07399999999325,"noteNumber":62,"velocity":85,"programNumber":50},{"time":107999.89200000043,"duration":74.07399999999325,"noteNumber":60,"velocity":85,"programNumber":50},{"time":108111.00300000042,"duration":74.07399999999325,"noteNumber":62,"velocity":85,"programNumber":50},{"time":108111.00300000042,"duration":74.07399999999325,"noteNumber":60,"velocity":85,"programNumber":50},{"time":108222.11400000041,"duration":74.07399999999325,"noteNumber":62,"velocity":85,"programNumber":50},{"time":108222.11400000041,"duration":74.07399999999325,"noteNumber":60,"velocity":85,"programNumber":50},{"time":108333.2250000004,"duration":74.07399999999325,"noteNumber":62,"velocity":85,"programNumber":50},{"time":108333.2250000004,"duration":74.07399999999325,"noteNumber":60,"velocity":85,"programNumber":50},{"time":108444.33600000039,"duration":74.07399999999325,"noteNumber":62,"velocity":85,"programNumber":50},{"time":108444.33600000039,"duration":74.07399999999325,"noteNumber":59,"velocity":85,"programNumber":50},{"time":108555.44700000038,"duration":74.07399999999325,"noteNumber":62,"velocity":85,"programNumber":50},{"time":108555.44700000038,"duration":74.07399999999325,"noteNumber":59,"velocity":85,"programNumber":50},{"time":108666.55800000037,"duration":74.07399999999325,"noteNumber":62,"velocity":85,"programNumber":50},{"time":108666.55800000037,"duration":74.07399999999325,"noteNumber":59,"velocity":85,"programNumber":50},{"time":108777.66900000036,"duration":74.07399999999325,"noteNumber":62,"velocity":85,"programNumber":50},{"time":108777.66900000036,"duration":74.07399999999325,"noteNumber":59,"velocity":85,"programNumber":50},{"time":108888.78000000035,"duration":74.07399999999325,"noteNumber":62,"velocity":85,"programNumber":50},{"time":108888.78000000035,"duration":74.07399999999325,"noteNumber":59,"velocity":85,"programNumber":50},{"time":108999.89100000034,"duration":74.07399999999325,"noteNumber":62,"velocity":85,"programNumber":50},{"time":108999.89100000034,"duration":74.07399999999325,"noteNumber":59,"velocity":85,"programNumber":50},{"time":109111.00200000033,"duration":74.07399999999325,"noteNumber":62,"velocity":85,"programNumber":50},{"time":109111.00200000033,"duration":74.07399999999325,"noteNumber":59,"velocity":85,"programNumber":50},{"time":109222.11300000032,"duration":74.07399999999325,"noteNumber":62,"velocity":85,"programNumber":50},{"time":109222.11300000032,"duration":74.07399999999325,"noteNumber":59,"velocity":85,"programNumber":50},{"time":109333.22400000031,"duration":74.07399999999325,"noteNumber":62,"velocity":85,"programNumber":50},{"time":109333.22400000031,"duration":74.07399999999325,"noteNumber":59,"velocity":85,"programNumber":50},{"time":109444.3350000003,"duration":74.07399999999325,"noteNumber":62,"velocity":85,"programNumber":50},{"time":109444.3350000003,"duration":74.07399999999325,"noteNumber":59,"velocity":85,"programNumber":50},{"time":109555.44600000029,"duration":74.07399999999325,"noteNumber":62,"velocity":85,"programNumber":50},{"time":109555.44600000029,"duration":74.07399999999325,"noteNumber":59,"velocity":85,"programNumber":50},{"time":109666.55700000028,"duration":74.07399999999325,"noteNumber":62,"velocity":85,"programNumber":50},{"time":109666.55700000028,"duration":74.07399999999325,"noteNumber":59,"velocity":85,"programNumber":50},{"time":109777.66800000027,"duration":74.07399999999325,"noteNumber":62,"velocity":85,"programNumber":50},{"time":109777.66800000027,"duration":74.07399999999325,"noteNumber":59,"velocity":85,"programNumber":50},{"time":109888.77900000026,"duration":74.07399999999325,"noteNumber":62,"velocity":85,"programNumber":50},{"time":109888.77900000026,"duration":74.07399999999325,"noteNumber":59,"velocity":85,"programNumber":50},{"time":109999.89000000025,"duration":74.07399999999325,"noteNumber":62,"velocity":85,"programNumber":50},{"time":109999.89000000025,"duration":74.07399999999325,"noteNumber":59,"velocity":85,"programNumber":50},{"time":110111.00100000024,"duration":74.07399999999325,"noteNumber":62,"velocity":85,"programNumber":50},{"time":110111.00100000024,"duration":74.07399999999325,"noteNumber":59,"velocity":85,"programNumber":50},{"time":110222.11200000023,"duration":74.07399999999325,"noteNumber":62,"velocity":85,"programNumber":50},{"time":110222.11200000023,"duration":74.07399999999325,"noteNumber":60,"velocity":85,"programNumber":50},{"time":110333.22300000022,"duration":74.07399999999325,"noteNumber":62,"velocity":85,"programNumber":50},{"time":110333.22300000022,"duration":74.07399999999325,"noteNumber":60,"velocity":85,"programNumber":50},{"time":110444.3340000002,"duration":74.07399999999325,"noteNumber":62,"velocity":85,"programNumber":50},{"time":110444.3340000002,"duration":74.07399999999325,"noteNumber":60,"velocity":85,"programNumber":50},{"time":110555.4450000002,"duration":74.07399999999325,"noteNumber":62,"velocity":85,"programNumber":50},{"time":110555.4450000002,"duration":74.07399999999325,"noteNumber":60,"velocity":85,"programNumber":50},{"time":110666.55600000019,"duration":74.07399999999325,"noteNumber":62,"velocity":85,"programNumber":50},{"time":110666.55600000019,"duration":74.07399999999325,"noteNumber":60,"velocity":85,"programNumber":50},{"time":110777.66700000018,"duration":74.07399999999325,"noteNumber":62,"velocity":85,"programNumber":50},{"time":110777.66700000018,"duration":74.07399999999325,"noteNumber":60,"velocity":85,"programNumber":50},{"time":110888.77800000017,"duration":74.07399999999325,"noteNumber":62,"velocity":85,"programNumber":50},{"time":110888.77800000017,"duration":74.07399999999325,"noteNumber":60,"velocity":85,"programNumber":50},{"time":110999.88900000016,"duration":74.07399999999325,"noteNumber":62,"velocity":85,"programNumber":50},{"time":110999.88900000016,"duration":74.07399999999325,"noteNumber":60,"velocity":85,"programNumber":50},{"time":111111.00000000015,"duration":74.07399999999325,"noteNumber":62,"velocity":85,"programNumber":50},{"time":111111.00000000015,"duration":74.07399999999325,"noteNumber":60,"velocity":85,"programNumber":50},{"time":111222.11100000014,"duration":74.07399999999325,"noteNumber":62,"velocity":85,"programNumber":50},{"time":111222.11100000014,"duration":74.07399999999325,"noteNumber":60,"velocity":85,"programNumber":50},{"time":111333.22200000013,"duration":74.07399999999325,"noteNumber":62,"velocity":85,"programNumber":50},{"time":111333.22200000013,"duration":74.07399999999325,"noteNumber":60,"velocity":85,"programNumber":50},{"time":111444.33300000012,"duration":74.07399999999325,"noteNumber":62,"velocity":85,"programNumber":50},{"time":111444.33300000012,"duration":74.07399999999325,"noteNumber":60,"velocity":85,"programNumber":50},{"time":111555.4440000001,"duration":74.07399999999325,"noteNumber":62,"velocity":85,"programNumber":50},{"time":111555.4440000001,"duration":74.07399999999325,"noteNumber":60,"velocity":85,"programNumber":50},{"time":111666.5550000001,"duration":74.07399999999325,"noteNumber":62,"velocity":85,"programNumber":50},{"time":111666.5550000001,"duration":74.07399999999325,"noteNumber":60,"velocity":85,"programNumber":50},{"time":111777.66600000008,"duration":74.07399999999325,"noteNumber":62,"velocity":85,"programNumber":50},{"time":111777.66600000008,"duration":74.07399999999325,"noteNumber":60,"velocity":85,"programNumber":50},{"time":111888.77700000007,"duration":74.07399999999325,"noteNumber":62,"velocity":85,"programNumber":50},{"time":111888.77700000007,"duration":74.07399999999325,"noteNumber":60,"velocity":85,"programNumber":50},{"time":111999.88800000006,"duration":444.44400000000314,"noteNumber":62,"velocity":85,"programNumber":50},{"time":111999.88800000006,"duration":444.44400000000314,"noteNumber":59,"velocity":85,"programNumber":50},{"time":112444.33200000007,"duration":166.66650000000664,"noteNumber":72,"velocity":85,"programNumber":50},{"time":112666.55400000008,"duration":166.66650000000664,"noteNumber":72,"velocity":85,"programNumber":50},{"time":112888.77600000009,"duration":166.66650000000664,"noteNumber":74,"velocity":85,"programNumber":50},{"time":113110.9980000001,"duration":166.66650000000664,"noteNumber":74,"velocity":85,"programNumber":50},{"time":113333.2200000001,"duration":222.2219999999943,"noteNumber":72,"velocity":85,"programNumber":50},{"time":113555.4420000001,"duration":111.11100000000442,"noteNumber":71,"velocity":85,"programNumber":50},{"time":113666.5530000001,"duration":111.11100000000442,"noteNumber":69,"velocity":85,"programNumber":50},{"time":113777.6640000001,"duration":166.66650000000664,"noteNumber":67,"velocity":85,"programNumber":50},{"time":113999.88600000012,"duration":166.66650000000664,"noteNumber":67,"velocity":85,"programNumber":50},{"time":114222.10800000012,"duration":166.66650000000664,"noteNumber":66,"velocity":85,"programNumber":50},{"time":114444.33000000013,"duration":166.66650000000664,"noteNumber":66,"velocity":85,"programNumber":50},{"time":114666.55200000014,"duration":444.44400000000314,"noteNumber":67,"velocity":85,"programNumber":50},{"time":115555.44000000015,"duration":888.8880000000063,"noteNumber":71,"velocity":47,"programNumber":50},{"time":116444.32800000015,"duration":888.8880000000063,"noteNumber":72,"velocity":47,"programNumber":50},{"time":117333.21600000016,"duration":111.11100000000442,"noteNumber":71,"velocity":47,"programNumber":50},{"time":117444.32700000016,"duration":296.2960000000021,"noteNumber":69,"velocity":47,"programNumber":50},{"time":117777.66000000016,"duration":444.44400000000314,"noteNumber":69,"velocity":47,"programNumber":50},{"time":118222.10400000017,"duration":111.11100000000442,"noteNumber":69,"velocity":47,"programNumber":50},{"time":118333.21500000017,"duration":296.2960000000021,"noteNumber":67,"velocity":47,"programNumber":50},{"time":118666.54800000017,"duration":444.44400000000314,"noteNumber":67,"velocity":47,"programNumber":50},{"time":119110.99200000017,"duration":333.3329999999987,"noteNumber":64,"velocity":47,"programNumber":50},{"time":119555.43600000018,"duration":333.3329999999987,"noteNumber":64,"velocity":47,"programNumber":50},{"time":119999.88000000018,"duration":333.3329999999987,"noteNumber":60,"velocity":47,"programNumber":50},{"time":120444.32400000018,"duration":333.3329999999987,"noteNumber":57,"velocity":47,"programNumber":50},{"time":120888.76800000019,"duration":222.2219999999943,"noteNumber":62,"velocity":47,"programNumber":50},{"time":121333.21200000017,"duration":222.2219999999943,"noteNumber":66,"velocity":47,"programNumber":50},{"time":121777.65600000016,"duration":222.2219999999943,"noteNumber":67,"velocity":47,"programNumber":50},{"time":122666.54400000015,"duration":888.8880000000063,"noteNumber":71,"velocity":47,"programNumber":50},{"time":123555.43200000016,"duration":888.8880000000063,"noteNumber":72,"velocity":47,"programNumber":50},{"time":124444.32000000017,"duration":222.2219999999943,"noteNumber":71,"velocity":47,"programNumber":50},{"time":124666.54200000016,"duration":111.11100000000442,"noteNumber":69,"velocity":47,"programNumber":50},{"time":124888.76400000017,"duration":111.11100000000442,"noteNumber":69,"velocity":47,"programNumber":50},{"time":125110.98600000018,"duration":111.11100000000442,"noteNumber":69,"velocity":47,"programNumber":50},{"time":125333.20800000019,"duration":222.2219999999943,"noteNumber":69,"velocity":47,"programNumber":50},{"time":125555.43000000018,"duration":111.11100000000442,"noteNumber":67,"velocity":47,"programNumber":50},{"time":125777.65200000019,"duration":111.11100000000442,"noteNumber":67,"velocity":47,"programNumber":50},{"time":125999.8740000002,"duration":111.11100000000442,"noteNumber":67,"velocity":47,"programNumber":50},{"time":126222.09600000021,"duration":333.3329999999987,"noteNumber":64,"velocity":47,"programNumber":50},{"time":126666.54000000021,"duration":166.66650000000664,"noteNumber":64,"velocity":47,"programNumber":50},{"time":126888.76200000022,"duration":166.66650000000664,"noteNumber":64,"velocity":47,"programNumber":50},{"time":127110.98400000023,"duration":333.3329999999987,"noteNumber":60,"velocity":47,"programNumber":50},{"time":127555.42800000023,"duration":166.66650000000664,"noteNumber":60,"velocity":47,"programNumber":50},{"time":127777.65000000024,"duration":166.66650000000664,"noteNumber":60,"velocity":47,"programNumber":50},{"time":127999.87200000025,"duration":1111.1100000000006,"noteNumber":59,"velocity":85,"programNumber":50},{"time":129110.98200000025,"duration":55.55550000000221,"noteNumber":59,"velocity":61,"programNumber":50},{"time":129166.53750000025,"duration":55.55550000000221,"noteNumber":60,"velocity":61,"programNumber":50},{"time":129222.09300000026,"duration":55.55550000000221,"noteNumber":57,"velocity":61,"programNumber":50},{"time":129277.64850000026,"duration":55.55550000000221,"noteNumber":59,"velocity":61,"programNumber":50},{"time":129333.20400000026,"duration":222.2219999999943,"noteNumber":60,"velocity":61,"programNumber":50},{"time":129555.42600000025,"duration":222.2219999999943,"noteNumber":57,"velocity":61,"programNumber":50},{"time":129777.64800000025,"duration":1111.1100000000006,"noteNumber":67,"velocity":85,"programNumber":50},{"time":130888.75800000025,"duration":55.55550000000221,"noteNumber":67,"velocity":61,"programNumber":50},{"time":130944.31350000025,"duration":55.55550000000221,"noteNumber":69,"velocity":61,"programNumber":50},{"time":130999.86900000025,"duration":55.55550000000221,"noteNumber":66,"velocity":61,"programNumber":50},{"time":131055.42450000026,"duration":55.55549999998766,"noteNumber":67,"velocity":61,"programNumber":50},{"time":131110.98000000024,"duration":222.22200000000885,"noteNumber":69,"velocity":61,"programNumber":50},{"time":131333.20200000025,"duration":222.22200000000885,"noteNumber":66,"velocity":61,"programNumber":50},{"time":131555.42400000026,"duration":74.07399999999325,"noteNumber":71,"velocity":53,"programNumber":50},{"time":131666.53500000027,"duration":74.07399999999325,"noteNumber":71,"velocity":53,"programNumber":50},{"time":131777.64600000027,"duration":74.07399999999325,"noteNumber":71,"velocity":55,"programNumber":50},{"time":131888.75700000027,"duration":74.07399999999325,"noteNumber":71,"velocity":55,"programNumber":50},{"time":131999.86800000028,"duration":74.07399999999325,"noteNumber":71,"velocity":55,"programNumber":50},{"time":132110.97900000028,"duration":74.07399999999325,"noteNumber":71,"velocity":56,"programNumber":50},{"time":132222.0900000003,"duration":74.07399999999325,"noteNumber":71,"velocity":56,"programNumber":50},{"time":132333.2010000003,"duration":74.07399999999325,"noteNumber":71,"velocity":58,"programNumber":50},{"time":132444.3120000003,"duration":74.07399999999325,"noteNumber":72,"velocity":58,"programNumber":50},{"time":132555.4230000003,"duration":74.07399999999325,"noteNumber":72,"velocity":59,"programNumber":50},{"time":132666.5340000003,"duration":74.07399999999325,"noteNumber":72,"velocity":59,"programNumber":50},{"time":132777.6450000003,"duration":74.07399999999325,"noteNumber":72,"velocity":61,"programNumber":50},{"time":132888.7560000003,"duration":74.07399999999325,"noteNumber":74,"velocity":61,"programNumber":50},{"time":132999.86700000032,"duration":74.07399999999325,"noteNumber":74,"velocity":62,"programNumber":50},{"time":133110.97800000032,"duration":74.07399999999325,"noteNumber":74,"velocity":62,"programNumber":50},{"time":133222.08900000033,"duration":74.07399999999325,"noteNumber":74,"velocity":64,"programNumber":50},{"time":133333.20000000033,"duration":74.07399999999325,"noteNumber":71,"velocity":64,"programNumber":50},{"time":133444.31100000034,"duration":74.07399999999325,"noteNumber":71,"velocity":65,"programNumber":50},{"time":133555.42200000034,"duration":74.07399999999325,"noteNumber":71,"velocity":65,"programNumber":50},{"time":133666.53300000035,"duration":74.07399999999325,"noteNumber":71,"velocity":67,"programNumber":50},{"time":133777.64400000035,"duration":74.07399999999325,"noteNumber":74,"velocity":67,"programNumber":50},{"time":133888.75500000035,"duration":74.07399999999325,"noteNumber":74,"velocity":68,"programNumber":50},{"time":133999.86600000036,"duration":74.07399999999325,"noteNumber":74,"velocity":68,"programNumber":50},{"time":134110.97700000036,"duration":74.07399999999325,"noteNumber":74,"velocity":70,"programNumber":50},{"time":134222.08800000037,"duration":74.07399999999325,"noteNumber":74,"velocity":70,"programNumber":50},{"time":134333.19900000037,"duration":74.07399999999325,"noteNumber":74,"velocity":71,"programNumber":50},{"time":134444.31000000038,"duration":74.07399999999325,"noteNumber":74,"velocity":71,"programNumber":50},{"time":134555.42100000038,"duration":74.07399999999325,"noteNumber":74,"velocity":73,"programNumber":50},{"time":134666.53200000038,"duration":74.07399999999325,"noteNumber":79,"velocity":73,"programNumber":50},{"time":134777.6430000004,"duration":74.07399999999325,"noteNumber":79,"velocity":73,"programNumber":50},{"time":134888.7540000004,"duration":74.07399999999325,"noteNumber":79,"velocity":74,"programNumber":50},{"time":134999.8650000004,"duration":74.07399999999325,"noteNumber":79,"velocity":74,"programNumber":50},{"time":135110.9760000004,"duration":74.07399999999325,"noteNumber":78,"velocity":85,"programNumber":50},{"time":135222.0870000004,"duration":74.07399999999325,"noteNumber":78,"velocity":85,"programNumber":50},{"time":135333.1980000004,"duration":74.07399999999325,"noteNumber":78,"velocity":85,"programNumber":50},{"time":135444.30900000042,"duration":74.07399999999325,"noteNumber":78,"velocity":85,"programNumber":50},{"time":135555.42000000042,"duration":74.07399999999325,"noteNumber":78,"velocity":85,"programNumber":50},{"time":135666.53100000042,"duration":74.07399999999325,"noteNumber":78,"velocity":85,"programNumber":50},{"time":135777.64200000043,"duration":74.07399999999325,"noteNumber":78,"velocity":85,"programNumber":50},{"time":135888.75300000043,"duration":74.07399999999325,"noteNumber":78,"velocity":85,"programNumber":50},{"time":135999.86400000044,"duration":74.07399999999325,"noteNumber":79,"velocity":85,"programNumber":50},{"time":136110.97500000044,"duration":74.07399999999325,"noteNumber":79,"velocity":85,"programNumber":50},{"time":136222.08600000045,"duration":74.07399999999325,"noteNumber":79,"velocity":85,"programNumber":50},{"time":136333.19700000045,"duration":74.07399999999325,"noteNumber":79,"velocity":85,"programNumber":50},{"time":136444.30800000046,"duration":74.07399999999325,"noteNumber":79,"velocity":85,"programNumber":50},{"time":136555.41900000046,"duration":74.07399999999325,"noteNumber":79,"velocity":85,"programNumber":50},{"time":136666.53000000046,"duration":74.07399999999325,"noteNumber":79,"velocity":85,"programNumber":50},{"time":136777.64100000047,"duration":74.07399999999325,"noteNumber":79,"velocity":85,"programNumber":50},{"time":136888.75200000047,"duration":74.07399999999325,"noteNumber":78,"velocity":85,"programNumber":50},{"time":136999.86300000048,"duration":74.07399999999325,"noteNumber":78,"velocity":85,"programNumber":50},{"time":137110.97400000048,"duration":74.07399999999325,"noteNumber":78,"velocity":85,"programNumber":50},{"time":137222.0850000005,"duration":74.07399999999325,"noteNumber":78,"velocity":85,"programNumber":50},{"time":137333.1960000005,"duration":74.07399999999325,"noteNumber":78,"velocity":85,"programNumber":50},{"time":137444.3070000005,"duration":74.07399999999325,"noteNumber":78,"velocity":85,"programNumber":50},{"time":137555.4180000005,"duration":74.07399999999325,"noteNumber":78,"velocity":85,"programNumber":50},{"time":137666.5290000005,"duration":74.07399999999325,"noteNumber":78,"velocity":85,"programNumber":50},{"time":137777.6400000005,"duration":74.07399999999325,"noteNumber":79,"velocity":85,"programNumber":50},{"time":137888.7510000005,"duration":74.07399999999325,"noteNumber":79,"velocity":85,"programNumber":50},{"time":137999.86200000052,"duration":74.07399999999325,"noteNumber":79,"velocity":85,"programNumber":50},{"time":138110.97300000052,"duration":74.07399999999325,"noteNumber":79,"velocity":85,"programNumber":50},{"time":138222.08400000053,"duration":74.07399999999325,"noteNumber":79,"velocity":85,"programNumber":50},{"time":138333.19500000053,"duration":74.07399999999325,"noteNumber":79,"velocity":85,"programNumber":50},{"time":138444.30600000054,"duration":74.07399999999325,"noteNumber":79,"velocity":85,"programNumber":50},{"time":138555.41700000054,"duration":74.07399999999325,"noteNumber":79,"velocity":85,"programNumber":50},{"time":138666.52800000054,"duration":111.11100000000442,"noteNumber":74,"velocity":85,"programNumber":50},{"time":138888.75000000055,"duration":333.33300000001327,"noteNumber":74,"velocity":85,"programNumber":50},{"time":139333.19400000057,"duration":333.33300000001327,"noteNumber":74,"velocity":85,"programNumber":50},{"time":139777.6380000006,"duration":333.33300000001327,"noteNumber":74,"velocity":85,"programNumber":50},{"time":140222.0820000006,"duration":333.33300000001327,"noteNumber":74,"velocity":85,"programNumber":50},{"time":140666.52600000062,"duration":333.33300000001327,"noteNumber":74,"velocity":85,"programNumber":50},{"time":141110.97000000064,"duration":333.33300000001327,"noteNumber":74,"velocity":85,"programNumber":50},{"time":141555.41400000066,"duration":333.33300000001327,"noteNumber":74,"velocity":85,"programNumber":50},{"time":141999.85800000068,"duration":222.22200000000885,"noteNumber":74,"velocity":85,"programNumber":50},{"time":142222.0800000007,"duration":74.07399999999325,"noteNumber":73,"velocity":85,"programNumber":50},{"time":142333.1910000007,"duration":74.07399999999325,"noteNumber":73,"velocity":85,"programNumber":50},{"time":142333.1910000007,"duration":74.07399999999325,"noteNumber":76,"velocity":85,"programNumber":50},{"time":142444.3020000007,"duration":74.07399999999325,"noteNumber":73,"velocity":85,"programNumber":50},{"time":142444.3020000007,"duration":74.07399999999325,"noteNumber":76,"velocity":85,"programNumber":50},{"time":142555.4130000007,"duration":74.07399999999325,"noteNumber":73,"velocity":85,"programNumber":50},{"time":142555.4130000007,"duration":74.07399999999325,"noteNumber":76,"velocity":85,"programNumber":50},{"time":142666.5240000007,"duration":74.07399999999325,"noteNumber":74,"velocity":85,"programNumber":50},{"time":142666.5240000007,"duration":74.07399999999325,"noteNumber":78,"velocity":85,"programNumber":50},{"time":142777.6350000007,"duration":74.07399999999325,"noteNumber":74,"velocity":85,"programNumber":50},{"time":142777.6350000007,"duration":74.07399999999325,"noteNumber":78,"velocity":85,"programNumber":50},{"time":142888.7460000007,"duration":74.07399999999325,"noteNumber":74,"velocity":85,"programNumber":50},{"time":142888.7460000007,"duration":74.07399999999325,"noteNumber":78,"velocity":85,"programNumber":50},{"time":142999.85700000072,"duration":74.07399999999325,"noteNumber":74,"velocity":85,"programNumber":50},{"time":142999.85700000072,"duration":74.07399999999325,"noteNumber":78,"velocity":85,"programNumber":50},{"time":143110.96800000072,"duration":74.07399999999325,"noteNumber":76,"velocity":85,"programNumber":50},{"time":143110.96800000072,"duration":74.07399999999325,"noteNumber":73,"velocity":85,"programNumber":50},{"time":143222.07900000073,"duration":74.07399999999325,"noteNumber":76,"velocity":85,"programNumber":50},{"time":143222.07900000073,"duration":74.07399999999325,"noteNumber":73,"velocity":85,"programNumber":50},{"time":143333.19000000073,"duration":74.07399999999325,"noteNumber":76,"velocity":85,"programNumber":50},{"time":143333.19000000073,"duration":74.07399999999325,"noteNumber":73,"velocity":85,"programNumber":50},{"time":143444.30100000073,"duration":74.07399999999325,"noteNumber":76,"velocity":85,"programNumber":50},{"time":143444.30100000073,"duration":74.07399999999325,"noteNumber":73,"velocity":85,"programNumber":50},{"time":143555.41200000074,"duration":74.07399999999325,"noteNumber":74,"velocity":85,"programNumber":50},{"time":143555.41200000074,"duration":74.07399999999325,"noteNumber":78,"velocity":85,"programNumber":50},{"time":143666.52300000074,"duration":74.07399999999325,"noteNumber":74,"velocity":85,"programNumber":50},{"time":143666.52300000074,"duration":74.07399999999325,"noteNumber":78,"velocity":85,"programNumber":50},{"time":143777.63400000075,"duration":74.07399999999325,"noteNumber":74,"velocity":85,"programNumber":50},{"time":143777.63400000075,"duration":74.07399999999325,"noteNumber":78,"velocity":85,"programNumber":50},{"time":143888.74500000075,"duration":74.07399999999325,"noteNumber":74,"velocity":85,"programNumber":50},{"time":143888.74500000075,"duration":74.07399999999325,"noteNumber":78,"velocity":85,"programNumber":50},{"time":144018.37450000073,"duration":166.66649999999208,"noteNumber":73,"velocity":85,"programNumber":50},{"time":144018.37450000073,"duration":166.66649999999208,"noteNumber":76,"velocity":85,"programNumber":50},{"time":144240.5965000007,"duration":166.66649999999208,"noteNumber":69,"velocity":85,"programNumber":50},{"time":144462.8185000007,"duration":166.66649999999208,"noteNumber":69,"velocity":85,"programNumber":50},{"time":144685.04050000067,"duration":166.66649999999208,"noteNumber":69,"velocity":85,"programNumber":50},{"time":144907.26250000065,"duration":444.4439999999886,"noteNumber":69,"velocity":85,"programNumber":50},{"time":145777.63200000065,"duration":666.6659999999974,"noteNumber":69,"velocity":55,"programNumber":50},{"time":146444.29800000065,"duration":74.07399999999325,"noteNumber":67,"velocity":55,"programNumber":50},{"time":146518.37200000064,"duration":74.07399999999325,"noteNumber":66,"velocity":55,"programNumber":50},{"time":146592.44600000064,"duration":74.07399999999325,"noteNumber":64,"velocity":55,"programNumber":50},{"time":146666.52000000063,"duration":222.22200000000885,"noteNumber":62,"velocity":55,"programNumber":50},{"time":147110.96400000065,"duration":222.22200000000885,"noteNumber":71,"velocity":55,"programNumber":50},{"time":147555.40800000067,"duration":222.22200000000885,"noteNumber":67,"velocity":55,"programNumber":50},{"time":147999.85200000068,"duration":222.22200000000885,"noteNumber":64,"velocity":55,"programNumber":50},{"time":148444.2960000007,"duration":222.22200000000885,"noteNumber":69,"velocity":55,"programNumber":50},{"time":149333.1840000007,"duration":666.6659999999974,"noteNumber":66,"velocity":55,"programNumber":50},{"time":149999.8500000007,"duration":74.07399999999325,"noteNumber":64,"velocity":55,"programNumber":50},{"time":150073.9240000007,"duration":74.07399999999325,"noteNumber":62,"velocity":55,"programNumber":50},{"time":150147.9980000007,"duration":74.07399999999325,"noteNumber":61,"velocity":55,"programNumber":50},{"time":150222.07200000068,"duration":222.22200000000885,"noteNumber":59,"velocity":55,"programNumber":50},{"time":150666.5160000007,"duration":222.22200000000885,"noteNumber":67,"velocity":55,"programNumber":50},{"time":151110.96000000072,"duration":888.8880000000063,"noteNumber":66,"velocity":55,"programNumber":50},{"time":151999.84800000073,"duration":444.4439999999886,"noteNumber":64,"velocity":55,"programNumber":50},{"time":152888.7360000007,"duration":666.6659999999974,"noteNumber":69,"velocity":55,"programNumber":50},{"time":153555.4020000007,"duration":74.07399999999325,"noteNumber":67,"velocity":55,"programNumber":50},{"time":153629.4760000007,"duration":74.07399999999325,"noteNumber":66,"velocity":55,"programNumber":50},{"time":153703.5500000007,"duration":74.07399999999325,"noteNumber":64,"velocity":55,"programNumber":50},{"time":153777.62400000068,"duration":222.22200000000885,"noteNumber":62,"velocity":55,"programNumber":50},{"time":154222.0680000007,"duration":222.22200000000885,"noteNumber":71,"velocity":55,"programNumber":50},{"time":154666.51200000072,"duration":222.22200000000885,"noteNumber":67,"velocity":55,"programNumber":50},{"time":155110.95600000073,"duration":222.22200000000885,"noteNumber":64,"velocity":55,"programNumber":50},{"time":155555.40000000075,"duration":222.22200000000885,"noteNumber":69,"velocity":55,"programNumber":50},{"time":156166.51050000076,"duration":166.66649999999208,"noteNumber":67,"velocity":55,"programNumber":50},{"time":156444.28800000076,"duration":222.22200000000885,"noteNumber":67,"velocity":55,"programNumber":50},{"time":156666.51000000077,"duration":222.22200000000885,"noteNumber":66,"velocity":55,"programNumber":50},{"time":157110.95400000078,"duration":111.11100000000442,"noteNumber":79,"velocity":55,"programNumber":50},{"time":157333.1760000008,"duration":222.22200000000885,"noteNumber":79,"velocity":55,"programNumber":50},{"time":157555.3980000008,"duration":222.22200000000885,"noteNumber":78,"velocity":55,"programNumber":50},{"time":157999.84200000082,"duration":166.66649999999208,"noteNumber":67,"velocity":55,"programNumber":50},{"time":158222.0640000008,"duration":166.66649999999208,"noteNumber":66,"velocity":55,"programNumber":50},{"time":158444.28600000078,"duration":166.66649999999208,"noteNumber":66,"velocity":55,"programNumber":50},{"time":158666.50800000076,"duration":166.66649999999208,"noteNumber":67,"velocity":55,"programNumber":50},{"time":158888.73000000074,"duration":166.66649999999208,"noteNumber":67,"velocity":55,"programNumber":50},{"time":159110.95200000072,"duration":166.66649999999208,"noteNumber":69,"velocity":55,"programNumber":50},{"time":159333.1740000007,"duration":166.66649999999208,"noteNumber":69,"velocity":55,"programNumber":50},{"time":159555.39600000068,"duration":166.66649999999208,"noteNumber":66,"velocity":55,"programNumber":50},{"time":159777.61800000066,"duration":166.66649999999208,"noteNumber":66,"velocity":55,"programNumber":50},{"time":159999.84000000064,"duration":166.66649999999208,"noteNumber":64,"velocity":55,"programNumber":50},{"time":160222.06200000062,"duration":166.66649999999208,"noteNumber":64,"velocity":55,"programNumber":50},{"time":160444.2840000006,"duration":166.66649999999208,"noteNumber":66,"velocity":55,"programNumber":50},{"time":160666.50600000058,"duration":166.66649999999208,"noteNumber":66,"velocity":55,"programNumber":50},{"time":160888.72800000056,"duration":166.66649999999208,"noteNumber":67,"velocity":55,"programNumber":50},{"time":161110.95000000054,"duration":166.66649999999208,"noteNumber":67,"velocity":55,"programNumber":50},{"time":161333.17200000052,"duration":166.66649999999208,"noteNumber":64,"velocity":55,"programNumber":50},{"time":161555.3940000005,"duration":166.66649999999208,"noteNumber":64,"velocity":55,"programNumber":50},{"time":161777.61600000047,"duration":166.66649999999208,"noteNumber":66,"velocity":55,"programNumber":50},{"time":161999.83800000045,"duration":166.66649999999208,"noteNumber":66,"velocity":55,"programNumber":50},{"time":162222.06000000043,"duration":166.66649999999208,"noteNumber":67,"velocity":55,"programNumber":50},{"time":162444.2820000004,"duration":166.66649999999208,"noteNumber":67,"velocity":55,"programNumber":50},{"time":162666.5040000004,"duration":166.66649999999208,"noteNumber":69,"velocity":55,"programNumber":50},{"time":162888.72600000037,"duration":166.66649999999208,"noteNumber":69,"velocity":55,"programNumber":50},{"time":163110.94800000035,"duration":166.66649999999208,"noteNumber":66,"velocity":55,"programNumber":50},{"time":163333.17000000033,"duration":166.66649999999208,"noteNumber":66,"velocity":55,"programNumber":50},{"time":163555.3920000003,"duration":166.66649999999208,"noteNumber":64,"velocity":55,"programNumber":50},{"time":163777.6140000003,"duration":166.66649999999208,"noteNumber":64,"velocity":55,"programNumber":50},{"time":163999.83600000027,"duration":166.66649999999208,"noteNumber":66,"velocity":55,"programNumber":50},{"time":164222.05800000025,"duration":166.66649999999208,"noteNumber":66,"velocity":55,"programNumber":50},{"time":164444.28000000023,"duration":166.66649999999208,"noteNumber":67,"velocity":55,"programNumber":50},{"time":164666.5020000002,"duration":166.66649999999208,"noteNumber":67,"velocity":55,"programNumber":50},{"time":164888.7240000002,"duration":166.66649999999208,"noteNumber":64,"velocity":55,"programNumber":50},{"time":165110.94600000017,"duration":166.66649999999208,"noteNumber":64,"velocity":55,"programNumber":50},{"time":165333.16800000015,"duration":444.4439999999886,"noteNumber":66,"velocity":55,"programNumber":50},{"time":166222.05600000013,"duration":888.8880000000063,"noteNumber":71,"velocity":85,"programNumber":50},{"time":166222.05600000013,"duration":888.8880000000063,"noteNumber":78,"velocity":85,"programNumber":50},{"time":167110.94400000013,"duration":444.4439999999886,"noteNumber":76,"velocity":85,"programNumber":50},{"time":167999.8320000001,"duration":888.8880000000063,"noteNumber":76,"velocity":85,"programNumber":50},{"time":167999.8320000001,"duration":888.8880000000063,"noteNumber":69,"velocity":85,"programNumber":50},{"time":168888.72000000012,"duration":166.66649999999208,"noteNumber":74,"velocity":85,"programNumber":50},{"time":169110.9420000001,"duration":111.11100000000442,"noteNumber":78,"velocity":85,"programNumber":50},{"time":169333.1640000001,"duration":111.11100000000442,"noteNumber":79,"velocity":85,"programNumber":50},{"time":169555.38600000012,"duration":111.11100000000442,"noteNumber":81,"velocity":85,"programNumber":50},{"time":169777.60800000012,"duration":222.22200000000885,"noteNumber":79,"velocity":85,"programNumber":50},{"time":169999.83000000013,"duration":111.11100000000442,"noteNumber":81,"velocity":85,"programNumber":50},{"time":170110.94100000014,"duration":111.11100000000442,"noteNumber":83,"velocity":85,"programNumber":50},{"time":170222.05200000014,"duration":166.66649999999208,"noteNumber":81,"velocity":85,"programNumber":50},{"time":170444.27400000012,"duration":111.11100000000442,"noteNumber":79,"velocity":85,"programNumber":50},{"time":170666.49600000013,"duration":222.22200000000885,"noteNumber":79,"velocity":85,"programNumber":50},{"time":170888.71800000014,"duration":166.66649999999208,"noteNumber":78,"velocity":85,"programNumber":50},{"time":171110.94000000012,"duration":111.11100000000442,"noteNumber":74,"velocity":85,"programNumber":50},{"time":171333.16200000013,"duration":111.11100000000442,"noteNumber":78,"velocity":85,"programNumber":50},{"time":171555.38400000014,"duration":222.22200000000885,"noteNumber":78,"velocity":85,"programNumber":50},{"time":171777.60600000015,"duration":166.66649999999208,"noteNumber":76,"velocity":85,"programNumber":50},{"time":171999.82800000013,"duration":111.11100000000442,"noteNumber":74,"velocity":85,"programNumber":50},{"time":172222.05000000013,"duration":111.11100000000442,"noteNumber":73,"velocity":85,"programNumber":50},{"time":172444.27200000014,"duration":166.66649999999208,"noteNumber":74,"velocity":85,"programNumber":50},{"time":172666.49400000012,"duration":166.66649999999208,"noteNumber":66,"velocity":53,"programNumber":50},{"time":172888.7160000001,"duration":166.66649999999208,"noteNumber":67,"velocity":53,"programNumber":50},{"time":173110.93800000008,"duration":166.66649999999208,"noteNumber":67,"velocity":53,"programNumber":50},{"time":173333.16000000006,"duration":166.66649999999208,"noteNumber":69,"velocity":53,"programNumber":50},{"time":173555.38200000004,"duration":166.66649999999208,"noteNumber":69,"velocity":53,"programNumber":50},{"time":173777.60400000002,"duration":166.66649999999208,"noteNumber":66,"velocity":53,"programNumber":50},{"time":173999.826,"duration":166.66649999999208,"noteNumber":66,"velocity":53,"programNumber":50},{"time":174222.04799999998,"duration":166.66649999999208,"noteNumber":64,"velocity":55,"programNumber":50},{"time":174444.26999999996,"duration":166.66649999999208,"noteNumber":64,"velocity":55,"programNumber":50},{"time":174666.49199999994,"duration":166.66649999999208,"noteNumber":66,"velocity":55,"programNumber":50},{"time":174888.71399999992,"duration":166.66649999999208,"noteNumber":66,"velocity":55,"programNumber":50},{"time":175110.9359999999,"duration":166.66649999999208,"noteNumber":67,"velocity":55,"programNumber":50},{"time":175333.15799999988,"duration":166.66649999999208,"noteNumber":67,"velocity":55,"programNumber":50},{"time":175555.37999999986,"duration":166.66649999999208,"noteNumber":64,"velocity":55,"programNumber":50},{"time":175777.60199999984,"duration":166.66649999999208,"noteNumber":64,"velocity":55,"programNumber":50},{"time":175999.82399999982,"duration":166.66649999999208,"noteNumber":66,"velocity":55,"programNumber":50},{"time":176222.0459999998,"duration":166.66649999999208,"noteNumber":66,"velocity":55,"programNumber":50},{"time":176444.26799999978,"duration":166.66649999999208,"noteNumber":67,"velocity":55,"programNumber":50},{"time":176666.48999999976,"duration":166.66649999999208,"noteNumber":67,"velocity":55,"programNumber":50},{"time":176888.71199999974,"duration":166.66649999999208,"noteNumber":69,"velocity":55,"programNumber":50},{"time":177110.93399999972,"duration":166.66649999999208,"noteNumber":69,"velocity":55,"programNumber":50},{"time":177333.1559999997,"duration":166.66649999999208,"noteNumber":66,"velocity":55,"programNumber":50},{"time":177555.37799999968,"duration":166.66649999999208,"noteNumber":66,"velocity":55,"programNumber":50},{"time":177777.59999999966,"duration":166.66649999999208,"noteNumber":64,"velocity":55,"programNumber":50},{"time":177999.82199999964,"duration":166.66649999999208,"noteNumber":64,"velocity":55,"programNumber":50},{"time":178222.04399999962,"duration":166.66649999999208,"noteNumber":66,"velocity":55,"programNumber":50},{"time":178444.2659999996,"duration":166.66649999999208,"noteNumber":66,"velocity":55,"programNumber":50},{"time":178666.48799999958,"duration":166.66649999999208,"noteNumber":67,"velocity":55,"programNumber":50},{"time":178888.70999999956,"duration":166.66649999999208,"noteNumber":67,"velocity":55,"programNumber":50},{"time":179110.93199999954,"duration":166.66649999999208,"noteNumber":64,"velocity":55,"programNumber":50},{"time":179333.15399999951,"duration":166.66649999999208,"noteNumber":64,"velocity":55,"programNumber":50},{"time":179555.3759999995,"duration":444.4439999999886,"noteNumber":66,"velocity":58,"programNumber":50},{"time":180444.26399999947,"duration":888.8880000000063,"noteNumber":71,"velocity":85,"programNumber":50},{"time":180444.26399999947,"duration":888.8880000000063,"noteNumber":78,"velocity":85,"programNumber":50},{"time":181333.15199999948,"duration":444.4439999999886,"noteNumber":76,"velocity":85,"programNumber":50},{"time":182222.03999999946,"duration":888.8880000000063,"noteNumber":76,"velocity":85,"programNumber":50},{"time":182222.03999999946,"duration":888.8880000000063,"noteNumber":69,"velocity":85,"programNumber":50},{"time":183110.92799999946,"duration":166.66649999999208,"noteNumber":74,"velocity":85,"programNumber":50},{"time":183333.14999999944,"duration":111.11100000000442,"noteNumber":78,"velocity":85,"programNumber":50},{"time":183555.37199999945,"duration":111.11100000000442,"noteNumber":79,"velocity":85,"programNumber":50},{"time":183777.59399999946,"duration":111.11100000000442,"noteNumber":81,"velocity":85,"programNumber":50},{"time":183999.81599999947,"duration":222.22200000000885,"noteNumber":79,"velocity":85,"programNumber":50},{"time":184222.03799999948,"duration":111.11100000000442,"noteNumber":81,"velocity":85,"programNumber":50},{"time":184333.14899999948,"duration":111.11100000000442,"noteNumber":83,"velocity":85,"programNumber":50},{"time":184444.25999999949,"duration":166.66649999999208,"noteNumber":81,"velocity":85,"programNumber":50},{"time":184666.48199999947,"duration":111.11100000000442,"noteNumber":79,"velocity":85,"programNumber":50},{"time":184888.70399999947,"duration":222.22200000000885,"noteNumber":79,"velocity":85,"programNumber":50},{"time":185110.92599999948,"duration":166.66649999999208,"noteNumber":78,"velocity":85,"programNumber":50},{"time":185333.14799999946,"duration":111.11100000000442,"noteNumber":74,"velocity":85,"programNumber":50},{"time":185555.36999999947,"duration":111.11100000000442,"noteNumber":78,"velocity":85,"programNumber":50},{"time":185777.59199999948,"duration":222.22200000000885,"noteNumber":78,"velocity":85,"programNumber":50},{"time":185999.8139999995,"duration":166.66649999999208,"noteNumber":76,"velocity":85,"programNumber":50},{"time":186222.03599999947,"duration":111.11100000000442,"noteNumber":74,"velocity":85,"programNumber":50},{"time":186444.25799999948,"duration":111.11100000000442,"noteNumber":73,"velocity":85,"programNumber":50},{"time":186666.4799999995,"duration":166.66649999999208,"noteNumber":74,"velocity":85,"programNumber":50},{"time":186888.70199999947,"duration":166.66649999999208,"noteNumber":69,"velocity":85,"programNumber":50},{"time":187110.92399999945,"duration":166.66649999999208,"noteNumber":71,"velocity":85,"programNumber":50},{"time":187333.14599999943,"duration":166.66649999999208,"noteNumber":73,"velocity":85,"programNumber":50},{"time":187555.3679999994,"duration":111.11100000000442,"noteNumber":74,"velocity":85,"programNumber":50},{"time":187777.5899999994,"duration":111.11100000000442,"noteNumber":74,"velocity":85,"programNumber":50},{"time":187999.81199999942,"duration":55.55549999998766,"noteNumber":76,"velocity":85,"programNumber":50},{"time":188055.3674999994,"duration":55.55549999998766,"noteNumber":78,"velocity":85,"programNumber":50},{"time":188110.9229999994,"duration":55.55549999998766,"noteNumber":76,"velocity":85,"programNumber":50},{"time":188166.4784999994,"duration":55.55549999998766,"noteNumber":78,"velocity":85,"programNumber":50},{"time":188222.03399999937,"duration":111.11100000000442,"noteNumber":74,"velocity":85,"programNumber":50},{"time":188333.14499999938,"duration":111.11100000000442,"noteNumber":76,"velocity":85,"programNumber":50},{"time":188444.25599999938,"duration":222.22200000000885,"noteNumber":78,"velocity":85,"programNumber":50},{"time":188666.4779999994,"duration":166.66649999999208,"noteNumber":73,"velocity":85,"programNumber":50},{"time":188888.69999999937,"duration":166.66649999999208,"noteNumber":74,"velocity":85,"programNumber":50},{"time":189110.92199999935,"duration":166.66649999999208,"noteNumber":76,"velocity":85,"programNumber":50},{"time":189333.14399999933,"duration":166.66649999999208,"noteNumber":78,"velocity":85,"programNumber":50},{"time":189555.3659999993,"duration":166.66649999999208,"noteNumber":78,"velocity":85,"programNumber":50},{"time":189777.5879999993,"duration":55.55549999998766,"noteNumber":79,"velocity":85,"programNumber":50},{"time":189833.14349999928,"duration":55.55549999998766,"noteNumber":81,"velocity":85,"programNumber":50},{"time":189888.69899999927,"duration":55.55549999998766,"noteNumber":79,"velocity":85,"programNumber":50},{"time":189944.25449999925,"duration":55.55549999998766,"noteNumber":81,"velocity":85,"programNumber":50},{"time":189999.80999999924,"duration":111.11100000000442,"noteNumber":78,"velocity":85,"programNumber":50},{"time":190110.92099999925,"duration":111.11100000000442,"noteNumber":79,"velocity":85,"programNumber":50},{"time":190222.03199999925,"duration":166.66649999999208,"noteNumber":81,"velocity":85,"programNumber":50},{"time":190444.25399999923,"duration":166.66649999999208,"noteNumber":81,"velocity":85,"programNumber":50},{"time":190666.4759999992,"duration":55.55549999998766,"noteNumber":82,"velocity":85,"programNumber":50},{"time":190722.0314999992,"duration":55.55549999998766,"noteNumber":83,"velocity":85,"programNumber":50},{"time":190777.58699999918,"duration":55.55549999998766,"noteNumber":82,"velocity":85,"programNumber":50},{"time":190833.14249999917,"duration":55.55549999998766,"noteNumber":83,"velocity":85,"programNumber":50},{"time":190888.69799999916,"duration":111.11100000000442,"noteNumber":80,"velocity":85,"programNumber":50},{"time":190999.80899999916,"duration":111.11100000000442,"noteNumber":82,"velocity":85,"programNumber":50},{"time":191110.91999999917,"duration":444.4439999999886,"noteNumber":83,"velocity":85,"programNumber":50},{"time":191999.80799999915,"duration":1777.7760000000126,"noteNumber":67,"velocity":55,"programNumber":50},{"time":193777.58399999916,"duration":222.22200000000885,"noteNumber":66,"velocity":55,"programNumber":50},{"time":194222.02799999918,"duration":222.22200000000885,"noteNumber":69,"velocity":55,"programNumber":50},{"time":194666.4719999992,"duration":222.22200000000885,"noteNumber":66,"velocity":55,"programNumber":50},{"time":195592.3969999992,"duration":444.4439999999886,"noteNumber":74,"velocity":89,"programNumber":50},{"time":195592.3969999992,"duration":444.4439999999886,"noteNumber":62,"velocity":89,"programNumber":50},{"time":196259.0629999992,"duration":166.66649999999208,"noteNumber":69,"velocity":89,"programNumber":50},{"time":196481.2849999992,"duration":444.4439999999886,"noteNumber":74,"velocity":89,"programNumber":50},{"time":197147.9509999992,"duration":166.66649999999208,"noteNumber":69,"velocity":89,"programNumber":50},{"time":197370.17299999917,"duration":166.66649999999208,"noteNumber":74,"velocity":89,"programNumber":50},{"time":197592.39499999915,"duration":166.66649999999208,"noteNumber":69,"velocity":89,"programNumber":50},{"time":197814.61699999913,"duration":166.66649999999208,"noteNumber":74,"velocity":89,"programNumber":50},{"time":198036.8389999991,"duration":166.66649999999208,"noteNumber":78,"velocity":89,"programNumber":50},{"time":198259.06099999908,"duration":444.4439999999886,"noteNumber":81,"velocity":89,"programNumber":50},{"time":199147.94899999906,"duration":444.4439999999886,"noteNumber":81,"velocity":89,"programNumber":50},{"time":199814.61499999906,"duration":166.66649999999208,"noteNumber":78,"velocity":89,"programNumber":50},{"time":200036.83699999904,"duration":444.4439999999886,"noteNumber":81,"velocity":89,"programNumber":50},{"time":200703.50299999904,"duration":166.66649999999208,"noteNumber":78,"velocity":89,"programNumber":50},{"time":200925.72499999902,"duration":166.66649999999208,"noteNumber":81,"velocity":89,"programNumber":50},{"time":201147.946999999,"duration":166.66649999999208,"noteNumber":78,"velocity":89,"programNumber":50},{"time":201370.16899999898,"duration":166.66649999999208,"noteNumber":75,"velocity":89,"programNumber":50},{"time":201592.39099999896,"duration":166.66649999999208,"noteNumber":78,"velocity":89,"programNumber":50},{"time":201814.61299999894,"duration":444.4439999999886,"noteNumber":71,"velocity":89,"programNumber":50},{"time":202666.46399999893,"duration":166.66649999999208,"noteNumber":64,"velocity":55,"programNumber":50},{"time":202888.6859999989,"duration":166.66649999999208,"noteNumber":64,"velocity":55,"programNumber":50},{"time":203110.9079999989,"duration":166.66649999999208,"noteNumber":65,"velocity":55,"programNumber":50},{"time":203333.12999999887,"duration":166.66649999999208,"noteNumber":65,"velocity":55,"programNumber":50},{"time":203555.35199999885,"duration":166.66649999999208,"noteNumber":67,"velocity":55,"programNumber":50},{"time":203777.57399999883,"duration":166.66649999999208,"noteNumber":67,"velocity":55,"programNumber":50},{"time":203999.7959999988,"duration":166.66649999999208,"noteNumber":64,"velocity":55,"programNumber":50},{"time":204222.0179999988,"duration":166.66649999999208,"noteNumber":64,"velocity":55,"programNumber":50},{"time":204444.23999999877,"duration":166.66649999999208,"noteNumber":62,"velocity":55,"programNumber":50},{"time":204666.46199999875,"duration":166.66649999999208,"noteNumber":62,"velocity":55,"programNumber":50},{"time":204888.68399999873,"duration":166.66649999999208,"noteNumber":64,"velocity":55,"programNumber":50},{"time":205110.9059999987,"duration":166.66649999999208,"noteNumber":64,"velocity":55,"programNumber":50},{"time":205333.1279999987,"duration":166.66649999999208,"noteNumber":65,"velocity":55,"programNumber":50},{"time":205555.34999999867,"duration":166.66649999999208,"noteNumber":65,"velocity":55,"programNumber":50},{"time":205777.57199999865,"duration":166.66649999999208,"noteNumber":62,"velocity":55,"programNumber":50},{"time":205999.79399999863,"duration":166.66649999999208,"noteNumber":62,"velocity":55,"programNumber":50},{"time":206222.0159999986,"duration":166.66649999999208,"noteNumber":64,"velocity":55,"programNumber":50},{"time":206444.2379999986,"duration":166.66649999999208,"noteNumber":64,"velocity":55,"programNumber":50},{"time":206666.45999999857,"duration":166.66649999999208,"noteNumber":65,"velocity":55,"programNumber":50},{"time":206888.68199999855,"duration":166.66649999999208,"noteNumber":65,"velocity":55,"programNumber":50},{"time":207110.90399999853,"duration":166.66649999999208,"noteNumber":67,"velocity":55,"programNumber":50},{"time":207333.1259999985,"duration":166.66649999999208,"noteNumber":67,"velocity":55,"programNumber":50},{"time":207555.34799999848,"duration":166.66649999999208,"noteNumber":64,"velocity":55,"programNumber":50},{"time":207777.56999999846,"duration":166.66649999999208,"noteNumber":64,"velocity":55,"programNumber":50},{"time":207999.79199999844,"duration":166.66649999999208,"noteNumber":62,"velocity":55,"programNumber":50},{"time":208222.01399999842,"duration":166.66649999999208,"noteNumber":62,"velocity":55,"programNumber":50},{"time":208444.2359999984,"duration":166.66649999999208,"noteNumber":64,"velocity":55,"programNumber":50},{"time":208666.45799999838,"duration":166.66649999999208,"noteNumber":64,"velocity":55,"programNumber":50},{"time":208888.67999999836,"duration":166.66649999999208,"noteNumber":65,"velocity":55,"programNumber":50},{"time":209110.90199999834,"duration":166.66649999999208,"noteNumber":65,"velocity":55,"programNumber":50},{"time":209333.12399999832,"duration":166.66649999999208,"noteNumber":62,"velocity":55,"programNumber":50},{"time":209555.3459999983,"duration":166.66649999999208,"noteNumber":62,"velocity":55,"programNumber":50},{"time":209777.56799999828,"duration":166.66649999999208,"noteNumber":64,"velocity":55,"programNumber":50},{"time":209999.78999999826,"duration":166.66649999999208,"noteNumber":64,"velocity":55,"programNumber":50},{"time":210222.01199999824,"duration":166.66649999999208,"noteNumber":65,"velocity":55,"programNumber":50},{"time":210444.23399999822,"duration":166.66649999999208,"noteNumber":65,"velocity":55,"programNumber":50},{"time":210666.4559999982,"duration":166.66649999999208,"noteNumber":67,"velocity":55,"programNumber":50},{"time":210888.67799999818,"duration":166.66649999999208,"noteNumber":67,"velocity":55,"programNumber":50},{"time":211110.89999999816,"duration":166.66649999999208,"noteNumber":64,"velocity":55,"programNumber":50},{"time":211333.12199999814,"duration":166.66649999999208,"noteNumber":64,"velocity":55,"programNumber":50},{"time":211555.34399999812,"duration":166.66649999999208,"noteNumber":62,"velocity":55,"programNumber":50},{"time":211777.5659999981,"duration":166.66649999999208,"noteNumber":62,"velocity":55,"programNumber":50},{"time":211999.78799999808,"duration":166.66649999999208,"noteNumber":64,"velocity":55,"programNumber":50},{"time":212222.00999999806,"duration":166.66649999999208,"noteNumber":64,"velocity":55,"programNumber":50},{"time":212444.23199999804,"duration":166.66649999999208,"noteNumber":65,"velocity":55,"programNumber":50},{"time":212666.45399999802,"duration":166.66649999999208,"noteNumber":65,"velocity":55,"programNumber":50},{"time":212888.675999998,"duration":166.66649999999208,"noteNumber":62,"velocity":55,"programNumber":50},{"time":213110.89799999798,"duration":166.66649999999208,"noteNumber":62,"velocity":55,"programNumber":50},{"time":213333.11999999796,"duration":166.66649999999208,"noteNumber":60,"velocity":55,"programNumber":50},{"time":213555.34199999794,"duration":166.66649999999208,"noteNumber":60,"velocity":55,"programNumber":50},{"time":213777.56399999792,"duration":166.66649999999208,"noteNumber":62,"velocity":55,"programNumber":50},{"time":213999.7859999979,"duration":166.66649999999208,"noteNumber":62,"velocity":55,"programNumber":50},{"time":214222.00799999788,"duration":166.66649999999208,"noteNumber":64,"velocity":55,"programNumber":50},{"time":214444.22999999786,"duration":166.66649999999208,"noteNumber":64,"velocity":55,"programNumber":50},{"time":214666.45199999784,"duration":166.66649999999208,"noteNumber":60,"velocity":55,"programNumber":50},{"time":214888.67399999782,"duration":166.66649999999208,"noteNumber":60,"velocity":55,"programNumber":50},{"time":215110.8959999978,"duration":166.66649999999208,"noteNumber":60,"velocity":55,"programNumber":50},{"time":215333.11799999778,"duration":166.66649999999208,"noteNumber":60,"velocity":55,"programNumber":50},{"time":215555.33999999776,"duration":166.66649999999208,"noteNumber":62,"velocity":55,"programNumber":50},{"time":215777.56199999774,"duration":166.66649999999208,"noteNumber":62,"velocity":55,"programNumber":50},{"time":215999.78399999772,"duration":166.66649999999208,"noteNumber":63,"velocity":55,"programNumber":50},{"time":216222.0059999977,"duration":166.66649999999208,"noteNumber":63,"velocity":55,"programNumber":50},{"time":216444.22799999767,"duration":166.66649999999208,"noteNumber":60,"velocity":55,"programNumber":50},{"time":216666.44999999765,"duration":166.66649999999208,"noteNumber":60,"velocity":55,"programNumber":50},{"time":216888.67199999763,"duration":166.66649999999208,"noteNumber":58,"velocity":55,"programNumber":50},{"time":217110.8939999976,"duration":166.66649999999208,"noteNumber":58,"velocity":55,"programNumber":50},{"time":217333.1159999976,"duration":166.66649999999208,"noteNumber":57,"velocity":55,"programNumber":50},{"time":217555.33799999757,"duration":166.66649999999208,"noteNumber":57,"velocity":55,"programNumber":50},{"time":217777.55999999755,"duration":166.66649999999208,"noteNumber":58,"velocity":55,"programNumber":50},{"time":217999.78199999753,"duration":166.66649999999208,"noteNumber":58,"velocity":55,"programNumber":50},{"time":218222.0039999975,"duration":166.66649999999208,"noteNumber":69,"velocity":55,"programNumber":50},{"time":218444.2259999975,"duration":166.66649999999208,"noteNumber":69,"velocity":55,"programNumber":50},{"time":218666.44799999747,"duration":166.66649999999208,"noteNumber":70,"velocity":55,"programNumber":50},{"time":218888.66999999745,"duration":166.66649999999208,"noteNumber":70,"velocity":55,"programNumber":50},{"time":219110.89199999743,"duration":166.66649999999208,"noteNumber":69,"velocity":55,"programNumber":50},{"time":219333.1139999974,"duration":166.66649999999208,"noteNumber":69,"velocity":55,"programNumber":50},{"time":219555.3359999974,"duration":166.66649999999208,"noteNumber":70,"velocity":55,"programNumber":50},{"time":219777.55799999737,"duration":166.66649999999208,"noteNumber":70,"velocity":55,"programNumber":50},{"time":219999.77999999735,"duration":166.66649999999208,"noteNumber":69,"velocity":55,"programNumber":50},{"time":220222.00199999733,"duration":166.66649999999208,"noteNumber":67,"velocity":55,"programNumber":50},{"time":220481.26099999732,"duration":444.4439999999886,"noteNumber":66,"velocity":53,"programNumber":50},{"time":221147.92699999732,"duration":222.22200000000885,"noteNumber":62,"velocity":91,"programNumber":50},{"time":221370.14899999733,"duration":222.22200000000885,"noteNumber":64,"velocity":91,"programNumber":50},{"time":221592.37099999734,"duration":222.22200000000885,"noteNumber":66,"velocity":91,"programNumber":50},{"time":221814.59299999735,"duration":222.22200000000885,"noteNumber":67,"velocity":91,"programNumber":50},{"time":222036.81499999735,"duration":222.22200000000885,"noteNumber":69,"velocity":91,"programNumber":50},{"time":222259.03699999736,"duration":222.22200000000885,"noteNumber":72,"velocity":91,"programNumber":50},{"time":222481.25899999737,"duration":222.22200000000885,"noteNumber":70,"velocity":91,"programNumber":50},{"time":222925.7029999974,"duration":222.22200000000885,"noteNumber":66,"velocity":91,"programNumber":50},{"time":223147.9249999974,"duration":222.22200000000885,"noteNumber":67,"velocity":91,"programNumber":50},{"time":223370.1469999974,"duration":222.22200000000885,"noteNumber":69,"velocity":91,"programNumber":50},{"time":223592.36899999742,"duration":222.22200000000885,"noteNumber":70,"velocity":91,"programNumber":50},{"time":223814.59099999742,"duration":222.22200000000885,"noteNumber":73,"velocity":91,"programNumber":50},{"time":224036.81299999743,"duration":222.22200000000885,"noteNumber":76,"velocity":91,"programNumber":50},{"time":224259.03499999744,"duration":222.22200000000885,"noteNumber":74,"velocity":91,"programNumber":50},{"time":224703.47899999746,"duration":222.22200000000885,"noteNumber":62,"velocity":53,"programNumber":50},{"time":224925.70099999747,"duration":222.22200000000885,"noteNumber":64,"velocity":53,"programNumber":50},{"time":225147.92299999748,"duration":222.22200000000885,"noteNumber":66,"velocity":53,"programNumber":50},{"time":225370.1449999975,"duration":222.22200000000885,"noteNumber":67,"velocity":53,"programNumber":50},{"time":225592.3669999975,"duration":222.22200000000885,"noteNumber":69,"velocity":53,"programNumber":50},{"time":225777.5519999975,"duration":444.4440000000177,"noteNumber":70,"velocity":53,"programNumber":50},{"time":226221.9959999975,"duration":444.4439999999886,"noteNumber":71,"velocity":53,"programNumber":50},{"time":226666.4399999975,"duration":444.4439999999886,"noteNumber":72,"velocity":53,"programNumber":50},{"time":227110.8839999975,"duration":444.4439999999886,"noteNumber":73,"velocity":53,"programNumber":50},{"time":227555.32799999748,"duration":111.11100000000442,"noteNumber":74,"velocity":68,"programNumber":50},{"time":227777.54999999749,"duration":111.11100000000442,"noteNumber":74,"velocity":68,"programNumber":50},{"time":227999.7719999975,"duration":222.22200000000885,"noteNumber":74,"velocity":68,"programNumber":50},{"time":228221.9939999975,"duration":166.66649999999208,"noteNumber":76,"velocity":68,"programNumber":50},{"time":228444.21599999748,"duration":111.11100000000442,"noteNumber":72,"velocity":68,"programNumber":50},{"time":228666.4379999975,"duration":111.11100000000442,"noteNumber":72,"velocity":68,"programNumber":50},{"time":228888.6599999975,"duration":222.22200000000885,"noteNumber":72,"velocity":68,"programNumber":50},{"time":229110.8819999975,"duration":166.66649999999208,"noteNumber":74,"velocity":68,"programNumber":50},{"time":229333.1039999975,"duration":111.11100000000442,"noteNumber":71,"velocity":68,"programNumber":50},{"time":229555.3259999975,"duration":111.11100000000442,"noteNumber":71,"velocity":68,"programNumber":50},{"time":229777.5479999975,"duration":222.22200000000885,"noteNumber":71,"velocity":68,"programNumber":50},{"time":229999.76999999752,"duration":166.66649999999208,"noteNumber":74,"velocity":68,"programNumber":50},{"time":230221.9919999975,"duration":222.22200000000885,"noteNumber":74,"velocity":68,"programNumber":50},{"time":230444.2139999975,"duration":166.66649999999208,"noteNumber":72,"velocity":68,"programNumber":50},{"time":230666.43599999748,"duration":111.11100000000442,"noteNumber":71,"velocity":68,"programNumber":50},{"time":230888.6579999975,"duration":111.11100000000442,"noteNumber":69,"velocity":68,"programNumber":50},{"time":231147.91699999748,"duration":444.4439999999886,"noteNumber":62,"velocity":93,"programNumber":50},{"time":231147.91699999748,"duration":444.4439999999886,"noteNumber":71,"velocity":93,"programNumber":50},{"time":231147.91699999748,"duration":444.4439999999886,"noteNumber":79,"velocity":93,"programNumber":50},{"time":231814.58299999748,"duration":111.11100000000442,"noteNumber":74,"velocity":92,"programNumber":50},{"time":232036.8049999975,"duration":444.4439999999886,"noteNumber":79,"velocity":92,"programNumber":50},{"time":232703.4709999975,"duration":111.11100000000442,"noteNumber":74,"velocity":91,"programNumber":50},{"time":232925.6929999975,"duration":111.11100000000442,"noteNumber":79,"velocity":90,"programNumber":50},{"time":233147.9149999975,"duration":111.11100000000442,"noteNumber":74,"velocity":90,"programNumber":50},{"time":233370.1369999975,"duration":111.11100000000442,"noteNumber":79,"velocity":90,"programNumber":50},{"time":233592.35899999752,"duration":111.11100000000442,"noteNumber":83,"velocity":90,"programNumber":50},{"time":233814.58099999753,"duration":444.4439999999886,"noteNumber":86,"velocity":89,"programNumber":50},{"time":234703.4689999975,"duration":444.4439999999886,"noteNumber":84,"velocity":88,"programNumber":50},{"time":235370.1349999975,"duration":111.11100000000442,"noteNumber":81,"velocity":87,"programNumber":50},{"time":235592.35699999752,"duration":444.4439999999886,"noteNumber":84,"velocity":86,"programNumber":50},{"time":236259.0229999975,"duration":111.11100000000442,"noteNumber":81,"velocity":85,"programNumber":50},{"time":236481.24499999752,"duration":111.11100000000442,"noteNumber":84,"velocity":85,"programNumber":50},{"time":236703.46699999753,"duration":111.11100000000442,"noteNumber":81,"velocity":85,"programNumber":50},{"time":236925.68899999754,"duration":111.11100000000442,"noteNumber":78,"velocity":85,"programNumber":50},{"time":237147.91099999755,"duration":111.11100000000442,"noteNumber":81,"velocity":85,"programNumber":50},{"time":237370.13299999756,"duration":444.4439999999886,"noteNumber":74,"velocity":85,"programNumber":50},{"time":238221.98399999755,"duration":74.07399999999325,"noteNumber":62,"velocity":85,"programNumber":50},{"time":238221.98399999755,"duration":74.07399999999325,"noteNumber":59,"velocity":85,"programNumber":50},{"time":238333.09499999756,"duration":74.07399999999325,"noteNumber":62,"velocity":85,"programNumber":50},{"time":238333.09499999756,"duration":74.07399999999325,"noteNumber":59,"velocity":85,"programNumber":50},{"time":238444.20599999756,"duration":74.07399999999325,"noteNumber":62,"velocity":85,"programNumber":50},{"time":238444.20599999756,"duration":74.07399999999325,"noteNumber":59,"velocity":85,"programNumber":50},{"time":238555.31699999757,"duration":74.07399999999325,"noteNumber":62,"velocity":85,"programNumber":50},{"time":238555.31699999757,"duration":74.07399999999325,"noteNumber":59,"velocity":85,"programNumber":50},{"time":238666.42799999757,"duration":74.07399999999325,"noteNumber":62,"velocity":85,"programNumber":50},{"time":238666.42799999757,"duration":74.07399999999325,"noteNumber":59,"velocity":85,"programNumber":50},{"time":238777.53899999757,"duration":74.07399999999325,"noteNumber":62,"velocity":85,"programNumber":50},{"time":238777.53899999757,"duration":74.07399999999325,"noteNumber":59,"velocity":85,"programNumber":50},{"time":238888.64999999758,"duration":74.07399999999325,"noteNumber":62,"velocity":85,"programNumber":50},{"time":238888.64999999758,"duration":74.07399999999325,"noteNumber":59,"velocity":85,"programNumber":50},{"time":238999.76099999758,"duration":74.07399999999325,"noteNumber":62,"velocity":85,"programNumber":50},{"time":238999.76099999758,"duration":74.07399999999325,"noteNumber":59,"velocity":85,"programNumber":50},{"time":239110.8719999976,"duration":74.07399999999325,"noteNumber":62,"velocity":85,"programNumber":50},{"time":239110.8719999976,"duration":74.07399999999325,"noteNumber":59,"velocity":85,"programNumber":50},{"time":239221.9829999976,"duration":74.07399999999325,"noteNumber":62,"velocity":85,"programNumber":50},{"time":239221.9829999976,"duration":74.07399999999325,"noteNumber":59,"velocity":85,"programNumber":50},{"time":239333.0939999976,"duration":74.07399999999325,"noteNumber":62,"velocity":85,"programNumber":50},{"time":239333.0939999976,"duration":74.07399999999325,"noteNumber":59,"velocity":85,"programNumber":50},{"time":239444.2049999976,"duration":74.07399999999325,"noteNumber":62,"velocity":85,"programNumber":50},{"time":239444.2049999976,"duration":74.07399999999325,"noteNumber":59,"velocity":85,"programNumber":50},{"time":239555.3159999976,"duration":74.07399999999325,"noteNumber":62,"velocity":85,"programNumber":50},{"time":239555.3159999976,"duration":74.07399999999325,"noteNumber":59,"velocity":85,"programNumber":50},{"time":239666.4269999976,"duration":74.07399999999325,"noteNumber":62,"velocity":85,"programNumber":50},{"time":239666.4269999976,"duration":74.07399999999325,"noteNumber":59,"velocity":85,"programNumber":50},{"time":239777.5379999976,"duration":74.07399999999325,"noteNumber":62,"velocity":85,"programNumber":50},{"time":239777.5379999976,"duration":74.07399999999325,"noteNumber":59,"velocity":85,"programNumber":50},{"time":239888.64899999762,"duration":74.07399999999325,"noteNumber":62,"velocity":85,"programNumber":50},{"time":239888.64899999762,"duration":74.07399999999325,"noteNumber":59,"velocity":85,"programNumber":50},{"time":239999.75999999762,"duration":74.07399999999325,"noteNumber":62,"velocity":85,"programNumber":50},{"time":239999.75999999762,"duration":74.07399999999325,"noteNumber":60,"velocity":85,"programNumber":50},{"time":240110.87099999763,"duration":74.07399999999325,"noteNumber":62,"velocity":85,"programNumber":50},{"time":240110.87099999763,"duration":74.07399999999325,"noteNumber":60,"velocity":85,"programNumber":50},{"time":240221.98199999763,"duration":74.07399999999325,"noteNumber":62,"velocity":85,"programNumber":50},{"time":240221.98199999763,"duration":74.07399999999325,"noteNumber":60,"velocity":85,"programNumber":50},{"time":240333.09299999764,"duration":74.07399999999325,"noteNumber":62,"velocity":85,"programNumber":50},{"time":240333.09299999764,"duration":74.07399999999325,"noteNumber":60,"velocity":85,"programNumber":50},{"time":240444.20399999764,"duration":74.07399999999325,"noteNumber":62,"velocity":85,"programNumber":50},{"time":240444.20399999764,"duration":74.07399999999325,"noteNumber":60,"velocity":85,"programNumber":50},{"time":240555.31499999764,"duration":74.07399999999325,"noteNumber":62,"velocity":85,"programNumber":50},{"time":240555.31499999764,"duration":74.07399999999325,"noteNumber":60,"velocity":85,"programNumber":50},{"time":240666.42599999765,"duration":74.07399999999325,"noteNumber":62,"velocity":85,"programNumber":50},{"time":240666.42599999765,"duration":74.07399999999325,"noteNumber":60,"velocity":85,"programNumber":50},{"time":240777.53699999765,"duration":74.07399999999325,"noteNumber":62,"velocity":85,"programNumber":50},{"time":240777.53699999765,"duration":74.07399999999325,"noteNumber":60,"velocity":85,"programNumber":50},{"time":240888.64799999766,"duration":74.07399999999325,"noteNumber":62,"velocity":85,"programNumber":50},{"time":240888.64799999766,"duration":74.07399999999325,"noteNumber":60,"velocity":85,"programNumber":50},{"time":240999.75899999766,"duration":74.07399999999325,"noteNumber":62,"velocity":85,"programNumber":50},{"time":240999.75899999766,"duration":74.07399999999325,"noteNumber":60,"velocity":85,"programNumber":50},{"time":241110.86999999767,"duration":74.07399999999325,"noteNumber":62,"velocity":85,"programNumber":50},{"time":241110.86999999767,"duration":74.07399999999325,"noteNumber":60,"velocity":85,"programNumber":50},{"time":241221.98099999767,"duration":74.07399999999325,"noteNumber":62,"velocity":85,"programNumber":50},{"time":241221.98099999767,"duration":74.07399999999325,"noteNumber":60,"velocity":85,"programNumber":50},{"time":241333.09199999768,"duration":74.07399999999325,"noteNumber":62,"velocity":85,"programNumber":50},{"time":241333.09199999768,"duration":74.07399999999325,"noteNumber":60,"velocity":85,"programNumber":50},{"time":241444.20299999768,"duration":74.07399999999325,"noteNumber":62,"velocity":85,"programNumber":50},{"time":241444.20299999768,"duration":74.07399999999325,"noteNumber":60,"velocity":85,"programNumber":50},{"time":241555.31399999768,"duration":74.07399999999325,"noteNumber":62,"velocity":85,"programNumber":50},{"time":241555.31399999768,"duration":74.07399999999325,"noteNumber":60,"velocity":85,"programNumber":50},{"time":241666.4249999977,"duration":74.07399999999325,"noteNumber":62,"velocity":85,"programNumber":50},{"time":241666.4249999977,"duration":74.07399999999325,"noteNumber":60,"velocity":85,"programNumber":50},{"time":241777.5359999977,"duration":74.07399999999325,"noteNumber":62,"velocity":85,"programNumber":50},{"time":241777.5359999977,"duration":74.07399999999325,"noteNumber":59,"velocity":85,"programNumber":50},{"time":241888.6469999977,"duration":74.07399999999325,"noteNumber":62,"velocity":85,"programNumber":50},{"time":241888.6469999977,"duration":74.07399999999325,"noteNumber":59,"velocity":85,"programNumber":50},{"time":241999.7579999977,"duration":74.07399999999325,"noteNumber":62,"velocity":85,"programNumber":50},{"time":241999.7579999977,"duration":74.07399999999325,"noteNumber":59,"velocity":85,"programNumber":50},{"time":242110.8689999977,"duration":74.07399999999325,"noteNumber":62,"velocity":85,"programNumber":50},{"time":242110.8689999977,"duration":74.07399999999325,"noteNumber":59,"velocity":85,"programNumber":50},{"time":242221.9799999977,"duration":74.07399999999325,"noteNumber":62,"velocity":85,"programNumber":50},{"time":242221.9799999977,"duration":74.07399999999325,"noteNumber":59,"velocity":85,"programNumber":50},{"time":242333.09099999772,"duration":74.07399999999325,"noteNumber":62,"velocity":85,"programNumber":50},{"time":242333.09099999772,"duration":74.07399999999325,"noteNumber":59,"velocity":85,"programNumber":50},{"time":242444.20199999772,"duration":74.07399999999325,"noteNumber":62,"velocity":85,"programNumber":50},{"time":242444.20199999772,"duration":74.07399999999325,"noteNumber":59,"velocity":85,"programNumber":50},{"time":242555.31299999772,"duration":74.07399999999325,"noteNumber":62,"velocity":85,"programNumber":50},{"time":242555.31299999772,"duration":74.07399999999325,"noteNumber":59,"velocity":85,"programNumber":50},{"time":242666.42399999773,"duration":74.07399999999325,"noteNumber":62,"velocity":85,"programNumber":50},{"time":242666.42399999773,"duration":74.07399999999325,"noteNumber":59,"velocity":85,"programNumber":50},{"time":242777.53499999773,"duration":74.07399999999325,"noteNumber":62,"velocity":85,"programNumber":50},{"time":242777.53499999773,"duration":74.07399999999325,"noteNumber":59,"velocity":85,"programNumber":50},{"time":242888.64599999774,"duration":74.07399999999325,"noteNumber":62,"velocity":85,"programNumber":50},{"time":242888.64599999774,"duration":74.07399999999325,"noteNumber":59,"velocity":85,"programNumber":50},{"time":242999.75699999774,"duration":74.07399999999325,"noteNumber":62,"velocity":85,"programNumber":50},{"time":242999.75699999774,"duration":74.07399999999325,"noteNumber":59,"velocity":85,"programNumber":50},{"time":243110.86799999775,"duration":74.07399999999325,"noteNumber":62,"velocity":85,"programNumber":50},{"time":243110.86799999775,"duration":74.07399999999325,"noteNumber":59,"velocity":85,"programNumber":50},{"time":243221.97899999775,"duration":74.07399999999325,"noteNumber":62,"velocity":85,"programNumber":50},{"time":243221.97899999775,"duration":74.07399999999325,"noteNumber":59,"velocity":85,"programNumber":50},{"time":243333.08999999776,"duration":74.07399999999325,"noteNumber":62,"velocity":85,"programNumber":50},{"time":243333.08999999776,"duration":74.07399999999325,"noteNumber":59,"velocity":85,"programNumber":50},{"time":243444.20099999776,"duration":74.07399999999325,"noteNumber":62,"velocity":85,"programNumber":50},{"time":243444.20099999776,"duration":74.07399999999325,"noteNumber":59,"velocity":85,"programNumber":50},{"time":243555.31199999776,"duration":74.07399999999325,"noteNumber":62,"velocity":85,"programNumber":50},{"time":243555.31199999776,"duration":74.07399999999325,"noteNumber":60,"velocity":85,"programNumber":50},{"time":243666.42299999777,"duration":74.07399999999325,"noteNumber":62,"velocity":85,"programNumber":50},{"time":243666.42299999777,"duration":74.07399999999325,"noteNumber":60,"velocity":85,"programNumber":50},{"time":243777.53399999777,"duration":74.07399999999325,"noteNumber":62,"velocity":85,"programNumber":50},{"time":243777.53399999777,"duration":74.07399999999325,"noteNumber":60,"velocity":85,"programNumber":50},{"time":243888.64499999778,"duration":74.07399999999325,"noteNumber":62,"velocity":85,"programNumber":50},{"time":243888.64499999778,"duration":74.07399999999325,"noteNumber":60,"velocity":85,"programNumber":50},{"time":243999.75599999778,"duration":74.07399999999325,"noteNumber":62,"velocity":85,"programNumber":50},{"time":243999.75599999778,"duration":74.07399999999325,"noteNumber":60,"velocity":85,"programNumber":50},{"time":244110.8669999978,"duration":74.07399999999325,"noteNumber":62,"velocity":85,"programNumber":50},{"time":244110.8669999978,"duration":74.07399999999325,"noteNumber":60,"velocity":85,"programNumber":50},{"time":244221.9779999978,"duration":74.07399999999325,"noteNumber":62,"velocity":85,"programNumber":50},{"time":244221.9779999978,"duration":74.07399999999325,"noteNumber":60,"velocity":85,"programNumber":50},{"time":244333.0889999978,"duration":74.07399999999325,"noteNumber":62,"velocity":85,"programNumber":50},{"time":244333.0889999978,"duration":74.07399999999325,"noteNumber":60,"velocity":85,"programNumber":50},{"time":244444.1999999978,"duration":74.07399999999325,"noteNumber":62,"velocity":85,"programNumber":50},{"time":244444.1999999978,"duration":74.07399999999325,"noteNumber":60,"velocity":85,"programNumber":50},{"time":244555.3109999978,"duration":74.07399999999325,"noteNumber":62,"velocity":85,"programNumber":50},{"time":244555.3109999978,"duration":74.07399999999325,"noteNumber":60,"velocity":85,"programNumber":50},{"time":244666.4219999978,"duration":74.07399999999325,"noteNumber":62,"velocity":85,"programNumber":50},{"time":244666.4219999978,"duration":74.07399999999325,"noteNumber":60,"velocity":85,"programNumber":50},{"time":244777.5329999978,"duration":74.07399999999325,"noteNumber":62,"velocity":85,"programNumber":50},{"time":244777.5329999978,"duration":74.07399999999325,"noteNumber":60,"velocity":85,"programNumber":50},{"time":244888.64399999782,"duration":74.07399999999325,"noteNumber":62,"velocity":85,"programNumber":50},{"time":244888.64399999782,"duration":74.07399999999325,"noteNumber":60,"velocity":85,"programNumber":50},{"time":244999.75499999782,"duration":74.07399999999325,"noteNumber":62,"velocity":85,"programNumber":50},{"time":244999.75499999782,"duration":74.07399999999325,"noteNumber":60,"velocity":85,"programNumber":50},{"time":245110.86599999783,"duration":74.07399999999325,"noteNumber":62,"velocity":85,"programNumber":50},{"time":245110.86599999783,"duration":74.07399999999325,"noteNumber":60,"velocity":85,"programNumber":50},{"time":245221.97699999783,"duration":74.07399999999325,"noteNumber":62,"velocity":85,"programNumber":50},{"time":245221.97699999783,"duration":74.07399999999325,"noteNumber":60,"velocity":85,"programNumber":50},{"time":245333.08799999784,"duration":444.4439999999886,"noteNumber":62,"velocity":85,"programNumber":50},{"time":245333.08799999784,"duration":444.4439999999886,"noteNumber":59,"velocity":85,"programNumber":50},{"time":245777.53199999782,"duration":166.66649999999208,"noteNumber":72,"velocity":85,"programNumber":50},{"time":245999.7539999978,"duration":166.66649999999208,"noteNumber":72,"velocity":85,"programNumber":50},{"time":246221.97599999778,"duration":166.66649999999208,"noteNumber":74,"velocity":85,"programNumber":50},{"time":246444.19799999776,"duration":166.66649999999208,"noteNumber":74,"velocity":85,"programNumber":50},{"time":246666.41999999774,"duration":222.22200000000885,"noteNumber":72,"velocity":85,"programNumber":50},{"time":246888.64199999775,"duration":111.11100000000442,"noteNumber":71,"velocity":85,"programNumber":50},{"time":246999.75299999776,"duration":111.11100000000442,"noteNumber":69,"velocity":85,"programNumber":50},{"time":247110.86399999776,"duration":166.66649999999208,"noteNumber":67,"velocity":85,"programNumber":50},{"time":247333.08599999774,"duration":166.66649999999208,"noteNumber":67,"velocity":85,"programNumber":50},{"time":247555.30799999772,"duration":166.66649999999208,"noteNumber":66,"velocity":85,"programNumber":50},{"time":247777.5299999977,"duration":166.66649999999208,"noteNumber":66,"velocity":85,"programNumber":50},{"time":247999.75199999768,"duration":444.4439999999886,"noteNumber":67,"velocity":85,"programNumber":50},{"time":248888.63999999766,"duration":888.8880000000063,"noteNumber":71,"velocity":47,"programNumber":50},{"time":249777.52799999766,"duration":888.8880000000063,"noteNumber":72,"velocity":47,"programNumber":50},{"time":250666.41599999767,"duration":111.11100000000442,"noteNumber":71,"velocity":47,"programNumber":50},{"time":250777.52699999767,"duration":296.2960000000021,"noteNumber":69,"velocity":47,"programNumber":50},{"time":251110.8599999977,"duration":444.4439999999886,"noteNumber":69,"velocity":47,"programNumber":50},{"time":251555.30399999768,"duration":111.11100000000442,"noteNumber":69,"velocity":47,"programNumber":50},{"time":251666.41499999768,"duration":296.2960000000021,"noteNumber":67,"velocity":47,"programNumber":50},{"time":251999.7479999977,"duration":444.4439999999886,"noteNumber":67,"velocity":47,"programNumber":50},{"time":252444.19199999768,"duration":333.33300000001327,"noteNumber":64,"velocity":47,"programNumber":50},{"time":252888.6359999977,"duration":333.33300000001327,"noteNumber":64,"velocity":47,"programNumber":50},{"time":253333.07999999772,"duration":333.33300000001327,"noteNumber":60,"velocity":47,"programNumber":50},{"time":253777.52399999773,"duration":333.33300000001327,"noteNumber":57,"velocity":47,"programNumber":50},{"time":254221.96799999775,"duration":222.22200000000885,"noteNumber":62,"velocity":47,"programNumber":50},{"time":254666.41199999777,"duration":222.22200000000885,"noteNumber":66,"velocity":47,"programNumber":50},{"time":255110.8559999978,"duration":222.22200000000885,"noteNumber":67,"velocity":47,"programNumber":50},{"time":255999.7439999978,"duration":888.8880000000063,"noteNumber":71,"velocity":47,"programNumber":50},{"time":256888.6319999978,"duration":888.8880000000063,"noteNumber":72,"velocity":47,"programNumber":50},{"time":257777.5199999978,"duration":222.22200000000885,"noteNumber":71,"velocity":47,"programNumber":50},{"time":257999.74199999782,"duration":111.11100000000442,"noteNumber":69,"velocity":47,"programNumber":50},{"time":258221.96399999782,"duration":111.11100000000442,"noteNumber":69,"velocity":47,"programNumber":50},{"time":258444.18599999783,"duration":111.11100000000442,"noteNumber":69,"velocity":47,"programNumber":50},{"time":258666.40799999784,"duration":222.22200000000885,"noteNumber":69,"velocity":47,"programNumber":50},{"time":258888.62999999785,"duration":111.11100000000442,"noteNumber":67,"velocity":47,"programNumber":50},{"time":259110.85199999786,"duration":111.11100000000442,"noteNumber":67,"velocity":47,"programNumber":50},{"time":259333.07399999787,"duration":111.11100000000442,"noteNumber":67,"velocity":47,"programNumber":50},{"time":259555.29599999788,"duration":333.33300000001327,"noteNumber":64,"velocity":47,"programNumber":50},{"time":259999.7399999979,"duration":166.66649999999208,"noteNumber":64,"velocity":47,"programNumber":50},{"time":260221.96199999787,"duration":166.66649999999208,"noteNumber":64,"velocity":47,"programNumber":50},{"time":260444.18399999785,"duration":333.33300000001327,"noteNumber":60,"velocity":47,"programNumber":50},{"time":260888.62799999787,"duration":166.66649999999208,"noteNumber":60,"velocity":47,"programNumber":50},{"time":261110.84999999785,"duration":166.66649999999208,"noteNumber":60,"velocity":47,"programNumber":50},{"time":261333.07199999783,"duration":1111.109999999986,"noteNumber":59,"velocity":85,"programNumber":50},{"time":262444.1819999978,"duration":55.555500000016764,"noteNumber":59,"velocity":61,"programNumber":50},{"time":262499.73749999783,"duration":55.555500000016764,"noteNumber":60,"velocity":61,"programNumber":50},{"time":262555.29299999785,"duration":55.555500000016764,"noteNumber":57,"velocity":61,"programNumber":50},{"time":262610.84849999787,"duration":55.555500000016764,"noteNumber":59,"velocity":61,"programNumber":50},{"time":262666.4039999979,"duration":222.22200000000885,"noteNumber":60,"velocity":61,"programNumber":50},{"time":262888.6259999979,"duration":222.22200000000885,"noteNumber":57,"velocity":61,"programNumber":50},{"time":263110.8479999979,"duration":1111.109999999986,"noteNumber":67,"velocity":85,"programNumber":50},{"time":264221.9579999979,"duration":55.555500000016764,"noteNumber":67,"velocity":61,"programNumber":50},{"time":264277.5134999979,"duration":55.555500000016764,"noteNumber":69,"velocity":61,"programNumber":50},{"time":264333.0689999979,"duration":55.555500000016764,"noteNumber":66,"velocity":61,"programNumber":50},{"time":264388.62449999794,"duration":55.555500000016764,"noteNumber":67,"velocity":61,"programNumber":50},{"time":264444.17999999796,"duration":222.22200000000885,"noteNumber":69,"velocity":61,"programNumber":50},{"time":264666.40199999796,"duration":222.22200000000885,"noteNumber":66,"velocity":61,"programNumber":50},{"time":264888.623999998,"duration":74.07400000002235,"noteNumber":71,"velocity":53,"programNumber":50},{"time":264999.734999998,"duration":74.07400000002235,"noteNumber":71,"velocity":53,"programNumber":50},{"time":265110.84599999804,"duration":74.07400000002235,"noteNumber":71,"velocity":55,"programNumber":50},{"time":265221.9569999981,"duration":74.07400000002235,"noteNumber":71,"velocity":55,"programNumber":50},{"time":265333.0679999981,"duration":74.07400000002235,"noteNumber":71,"velocity":55,"programNumber":50},{"time":265444.17899999814,"duration":74.07400000002235,"noteNumber":71,"velocity":56,"programNumber":50},{"time":265555.2899999982,"duration":74.07400000002235,"noteNumber":71,"velocity":56,"programNumber":50},{"time":265666.4009999982,"duration":74.07400000002235,"noteNumber":71,"velocity":58,"programNumber":50},{"time":265777.51199999824,"duration":74.07400000002235,"noteNumber":72,"velocity":58,"programNumber":50},{"time":265888.6229999983,"duration":74.07400000002235,"noteNumber":72,"velocity":59,"programNumber":50},{"time":265999.7339999983,"duration":74.07400000002235,"noteNumber":72,"velocity":59,"programNumber":50},{"time":266110.84499999834,"duration":74.07400000002235,"noteNumber":72,"velocity":61,"programNumber":50},{"time":266221.9559999984,"duration":74.07400000002235,"noteNumber":74,"velocity":61,"programNumber":50},{"time":266333.0669999984,"duration":74.07400000002235,"noteNumber":74,"velocity":62,"programNumber":50},{"time":266444.17799999844,"duration":74.07400000002235,"noteNumber":74,"velocity":62,"programNumber":50},{"time":266555.2889999985,"duration":74.07400000002235,"noteNumber":74,"velocity":64,"programNumber":50},{"time":266666.3999999985,"duration":74.07400000002235,"noteNumber":71,"velocity":64,"programNumber":50},{"time":266777.51099999854,"duration":74.07400000002235,"noteNumber":71,"velocity":65,"programNumber":50},{"time":266888.6219999986,"duration":74.07400000002235,"noteNumber":71,"velocity":65,"programNumber":50},{"time":266999.7329999986,"duration":74.07400000002235,"noteNumber":71,"velocity":67,"programNumber":50},{"time":267110.84399999864,"duration":74.07400000002235,"noteNumber":74,"velocity":67,"programNumber":50},{"time":267221.9549999987,"duration":74.07400000002235,"noteNumber":74,"velocity":68,"programNumber":50},{"time":267333.0659999987,"duration":74.07400000002235,"noteNumber":74,"velocity":68,"programNumber":50},{"time":267444.17699999874,"duration":74.07400000002235,"noteNumber":74,"velocity":70,"programNumber":50},{"time":267555.2879999988,"duration":74.07400000002235,"noteNumber":74,"velocity":70,"programNumber":50},{"time":267666.3989999988,"duration":74.07400000002235,"noteNumber":74,"velocity":71,"programNumber":50},{"time":267777.50999999885,"duration":74.07400000002235,"noteNumber":74,"velocity":71,"programNumber":50},{"time":267888.6209999989,"duration":74.07400000002235,"noteNumber":74,"velocity":73,"programNumber":50},{"time":267999.7319999989,"duration":74.07400000002235,"noteNumber":79,"velocity":73,"programNumber":50},{"time":268110.84299999895,"duration":74.07400000002235,"noteNumber":79,"velocity":73,"programNumber":50},{"time":268221.953999999,"duration":74.07400000002235,"noteNumber":79,"velocity":74,"programNumber":50},{"time":268333.064999999,"duration":74.07400000002235,"noteNumber":79,"velocity":74,"programNumber":50},{"time":268444.17599999905,"duration":74.07400000002235,"noteNumber":78,"velocity":85,"programNumber":50},{"time":268555.2869999991,"duration":74.07400000002235,"noteNumber":78,"velocity":85,"programNumber":50},{"time":268666.3979999991,"duration":74.07400000002235,"noteNumber":78,"velocity":85,"programNumber":50},{"time":268777.50899999915,"duration":74.07400000002235,"noteNumber":78,"velocity":85,"programNumber":50},{"time":268888.6199999992,"duration":74.07400000002235,"noteNumber":78,"velocity":85,"programNumber":50},{"time":268999.7309999992,"duration":74.07400000002235,"noteNumber":78,"velocity":85,"programNumber":50},{"time":269110.84199999925,"duration":74.07400000002235,"noteNumber":78,"velocity":85,"programNumber":50},{"time":269221.9529999993,"duration":74.07400000002235,"noteNumber":78,"velocity":85,"programNumber":50},{"time":269333.0639999993,"duration":74.07400000002235,"noteNumber":79,"velocity":85,"programNumber":50},{"time":269444.17499999935,"duration":74.07400000002235,"noteNumber":79,"velocity":85,"programNumber":50},{"time":269555.2859999994,"duration":74.07400000002235,"noteNumber":79,"velocity":85,"programNumber":50},{"time":269666.3969999994,"duration":74.07400000002235,"noteNumber":79,"velocity":85,"programNumber":50},{"time":269777.50799999945,"duration":74.07400000002235,"noteNumber":79,"velocity":85,"programNumber":50},{"time":269888.6189999995,"duration":74.07400000002235,"noteNumber":79,"velocity":85,"programNumber":50},{"time":269999.7299999995,"duration":74.07400000002235,"noteNumber":79,"velocity":85,"programNumber":50},{"time":270110.84099999955,"duration":74.07400000002235,"noteNumber":79,"velocity":85,"programNumber":50},{"time":270221.9519999996,"duration":74.07400000002235,"noteNumber":78,"velocity":85,"programNumber":50},{"time":270333.0629999996,"duration":74.07400000002235,"noteNumber":78,"velocity":85,"programNumber":50},{"time":270444.17399999965,"duration":74.07400000002235,"noteNumber":78,"velocity":85,"programNumber":50},{"time":270555.2849999997,"duration":74.07400000002235,"noteNumber":78,"velocity":85,"programNumber":50},{"time":270666.3959999997,"duration":74.07400000002235,"noteNumber":78,"velocity":85,"programNumber":50},{"time":270777.50699999975,"duration":74.07400000002235,"noteNumber":78,"velocity":85,"programNumber":50},{"time":270888.6179999998,"duration":74.07400000002235,"noteNumber":78,"velocity":85,"programNumber":50},{"time":270999.7289999998,"duration":74.07400000002235,"noteNumber":78,"velocity":85,"programNumber":50},{"time":271110.83999999985,"duration":74.07400000002235,"noteNumber":79,"velocity":85,"programNumber":50},{"time":271221.9509999999,"duration":74.07400000002235,"noteNumber":79,"velocity":85,"programNumber":50},{"time":271333.0619999999,"duration":74.07400000002235,"noteNumber":79,"velocity":85,"programNumber":50},{"time":271444.17299999995,"duration":74.07400000002235,"noteNumber":79,"velocity":85,"programNumber":50},{"time":271555.284,"duration":74.07400000002235,"noteNumber":79,"velocity":85,"programNumber":50},{"time":271666.395,"duration":74.07400000002235,"noteNumber":79,"velocity":85,"programNumber":50},{"time":271777.50600000005,"duration":74.07400000002235,"noteNumber":79,"velocity":85,"programNumber":50},{"time":271888.6170000001,"duration":74.07400000002235,"noteNumber":79,"velocity":85,"programNumber":50},{"time":271999.7280000001,"duration":74.07400000002235,"noteNumber":78,"velocity":85,"programNumber":50},{"time":272110.83900000015,"duration":74.07400000002235,"noteNumber":78,"velocity":85,"programNumber":50},{"time":272221.9500000002,"duration":74.07400000002235,"noteNumber":78,"velocity":85,"programNumber":50},{"time":272333.0610000002,"duration":74.07400000002235,"noteNumber":78,"velocity":85,"programNumber":50},{"time":272444.17200000025,"duration":74.07400000002235,"noteNumber":79,"velocity":85,"programNumber":50},{"time":272555.2830000003,"duration":74.07400000002235,"noteNumber":79,"velocity":85,"programNumber":50},{"time":272666.3940000003,"duration":74.07400000002235,"noteNumber":79,"velocity":85,"programNumber":50},{"time":272777.50500000035,"duration":74.07400000002235,"noteNumber":79,"velocity":85,"programNumber":50},{"time":272888.6160000004,"duration":74.07400000002235,"noteNumber":78,"velocity":85,"programNumber":50},{"time":272999.7270000004,"duration":74.07400000002235,"noteNumber":78,"velocity":85,"programNumber":50},{"time":273110.83800000045,"duration":74.07400000002235,"noteNumber":78,"velocity":85,"programNumber":50},{"time":273221.9490000005,"duration":74.07400000002235,"noteNumber":78,"velocity":85,"programNumber":50},{"time":273333.0600000005,"duration":74.07400000002235,"noteNumber":79,"velocity":85,"programNumber":50},{"time":273444.17100000056,"duration":74.07400000002235,"noteNumber":79,"velocity":85,"programNumber":50},{"time":273555.2820000006,"duration":74.07400000002235,"noteNumber":79,"velocity":85,"programNumber":50},{"time":273666.3930000006,"duration":74.07400000002235,"noteNumber":79,"velocity":85,"programNumber":50},{"time":273788.61510000064,"duration":166.66649999999208,"noteNumber":78,"velocity":85,"programNumber":50},{"time":274010.83710000064,"duration":166.66649999999208,"noteNumber":62,"velocity":85,"programNumber":50},{"time":274233.05910000065,"duration":166.66649999999208,"noteNumber":62,"velocity":85,"programNumber":50},{"time":274455.28110000066,"duration":166.66649999999208,"noteNumber":62,"velocity":85,"programNumber":50},{"time":274677.5031000007,"duration":444.4440000000177,"noteNumber":62,"velocity":85,"programNumber":50},{"time":275555.28000000067,"duration":666.6660000000265,"noteNumber":62,"velocity":55,"programNumber":50},{"time":276221.9460000007,"duration":74.07400000002235,"noteNumber":60,"velocity":55,"programNumber":50},{"time":276296.0200000007,"duration":74.07400000002235,"noteNumber":59,"velocity":55,"programNumber":50},{"time":276370.09400000074,"duration":74.07400000002235,"noteNumber":57,"velocity":55,"programNumber":50},{"time":276444.16800000076,"duration":222.22200000000885,"noteNumber":55,"velocity":55,"programNumber":50},{"time":276888.6120000008,"duration":222.22200000000885,"noteNumber":64,"velocity":55,"programNumber":50},{"time":277333.0560000008,"duration":222.22200000000885,"noteNumber":60,"velocity":55,"programNumber":50},{"time":277777.5000000008,"duration":222.22200000000885,"noteNumber":57,"velocity":55,"programNumber":50},{"time":278221.94400000083,"duration":222.22200000000885,"noteNumber":62,"velocity":55,"programNumber":50},{"time":279110.83200000087,"duration":666.6660000000265,"noteNumber":71,"velocity":55,"programNumber":50},{"time":279777.4980000009,"duration":74.07400000002235,"noteNumber":69,"velocity":55,"programNumber":50},{"time":279851.5720000009,"duration":74.07400000002235,"noteNumber":67,"velocity":55,"programNumber":50},{"time":279925.64600000094,"duration":74.07400000002235,"noteNumber":66,"velocity":55,"programNumber":50},{"time":279999.72000000096,"duration":222.22200000000885,"noteNumber":64,"velocity":55,"programNumber":50},{"time":280444.164000001,"duration":222.22200000000885,"noteNumber":72,"velocity":55,"programNumber":50},{"time":280888.608000001,"duration":888.8879999999772,"noteNumber":71,"velocity":55,"programNumber":50},{"time":281777.496000001,"duration":444.4440000000177,"noteNumber":69,"velocity":55,"programNumber":50},{"time":282666.384000001,"duration":666.6660000000265,"noteNumber":74,"velocity":55,"programNumber":50},{"time":283333.05000000104,"duration":74.07400000002235,"noteNumber":72,"velocity":55,"programNumber":50},{"time":283407.12400000106,"duration":74.07400000002235,"noteNumber":71,"velocity":55,"programNumber":50},{"time":283481.1980000011,"duration":74.07400000002235,"noteNumber":69,"velocity":55,"programNumber":50},{"time":283555.2720000011,"duration":222.22200000000885,"noteNumber":67,"velocity":55,"programNumber":50},{"time":283999.7160000011,"duration":222.22200000000885,"noteNumber":76,"velocity":55,"programNumber":50},{"time":284444.16000000114,"duration":222.22200000000885,"noteNumber":72,"velocity":55,"programNumber":50},{"time":284888.60400000116,"duration":222.22200000000885,"noteNumber":69,"velocity":55,"programNumber":50},{"time":285333.0480000012,"duration":222.22200000000885,"noteNumber":74,"velocity":55,"programNumber":50},{"time":285944.1585000012,"duration":166.66649999999208,"noteNumber":72,"velocity":55,"programNumber":50},{"time":286221.93600000115,"duration":222.22200000000885,"noteNumber":72,"velocity":55,"programNumber":50},{"time":286444.15800000116,"duration":222.22200000000885,"noteNumber":71,"velocity":55,"programNumber":50},{"time":286888.6020000012,"duration":111.11099999997532,"noteNumber":72,"velocity":55,"programNumber":50},{"time":287110.8240000011,"duration":222.22200000000885,"noteNumber":72,"velocity":55,"programNumber":50},{"time":287333.04600000114,"duration":222.22200000000885,"noteNumber":71,"velocity":55,"programNumber":50},{"time":287777.49000000115,"duration":166.66649999999208,"noteNumber":60,"velocity":55,"programNumber":50},{"time":287999.71200000116,"duration":166.66649999999208,"noteNumber":59,"velocity":55,"programNumber":50},{"time":288221.9340000012,"duration":166.66649999999208,"noteNumber":59,"velocity":55,"programNumber":50},{"time":288444.1560000012,"duration":166.66649999999208,"noteNumber":60,"velocity":55,"programNumber":50},{"time":288666.3780000012,"duration":166.66649999999208,"noteNumber":60,"velocity":55,"programNumber":50},{"time":288888.6000000012,"duration":166.66649999999208,"noteNumber":62,"velocity":55,"programNumber":50},{"time":289110.8220000012,"duration":166.66649999999208,"noteNumber":62,"velocity":55,"programNumber":50},{"time":289333.0440000012,"duration":166.66649999999208,"noteNumber":59,"velocity":55,"programNumber":50},{"time":289555.2660000012,"duration":166.66649999999208,"noteNumber":59,"velocity":55,"programNumber":50},{"time":289777.48800000123,"duration":166.66649999999208,"noteNumber":57,"velocity":55,"programNumber":50},{"time":289999.71000000124,"duration":166.66649999999208,"noteNumber":57,"velocity":55,"programNumber":50},{"time":290221.93200000125,"duration":166.66649999999208,"noteNumber":59,"velocity":55,"programNumber":50},{"time":290444.15400000126,"duration":166.66649999999208,"noteNumber":59,"velocity":55,"programNumber":50},{"time":290666.37600000127,"duration":166.66649999999208,"noteNumber":60,"velocity":55,"programNumber":50},{"time":290888.5980000013,"duration":166.66649999999208,"noteNumber":60,"velocity":55,"programNumber":50},{"time":291110.8200000013,"duration":166.66649999999208,"noteNumber":57,"velocity":55,"programNumber":50},{"time":291333.0420000013,"duration":166.66649999999208,"noteNumber":57,"velocity":55,"programNumber":50},{"time":291555.2640000013,"duration":166.66649999999208,"noteNumber":59,"velocity":55,"programNumber":50},{"time":291777.4860000013,"duration":166.66649999999208,"noteNumber":59,"velocity":55,"programNumber":50},{"time":291999.7080000013,"duration":166.66649999999208,"noteNumber":60,"velocity":55,"programNumber":50},{"time":292221.93000000133,"duration":166.66649999999208,"noteNumber":60,"velocity":55,"programNumber":50},{"time":292444.15200000134,"duration":166.66649999999208,"noteNumber":62,"velocity":55,"programNumber":50},{"time":292666.37400000135,"duration":166.66649999999208,"noteNumber":62,"velocity":55,"programNumber":50},{"time":292888.59600000136,"duration":166.66649999999208,"noteNumber":59,"velocity":55,"programNumber":50},{"time":293110.81800000137,"duration":166.66649999999208,"noteNumber":59,"velocity":55,"programNumber":50},{"time":293333.0400000014,"duration":166.66649999999208,"noteNumber":57,"velocity":55,"programNumber":50},{"time":293555.2620000014,"duration":166.66649999999208,"noteNumber":57,"velocity":55,"programNumber":50},{"time":293777.4840000014,"duration":166.66649999999208,"noteNumber":59,"velocity":55,"programNumber":50},{"time":293999.7060000014,"duration":166.66649999999208,"noteNumber":59,"velocity":55,"programNumber":50},{"time":294221.9280000014,"duration":166.66649999999208,"noteNumber":60,"velocity":55,"programNumber":50},{"time":294444.1500000014,"duration":166.66649999999208,"noteNumber":60,"velocity":55,"programNumber":50},{"time":294666.37200000143,"duration":166.66649999999208,"noteNumber":57,"velocity":55,"programNumber":50},{"time":294888.59400000144,"duration":166.66649999999208,"noteNumber":57,"velocity":55,"programNumber":50},{"time":295110.81600000145,"duration":444.4440000000177,"noteNumber":59,"velocity":55,"programNumber":50},{"time":295999.7040000015,"duration":888.8879999999772,"noteNumber":64,"velocity":85,"programNumber":50},{"time":295999.7040000015,"duration":888.8879999999772,"noteNumber":71,"velocity":85,"programNumber":50},{"time":296888.59200000146,"duration":444.4440000000177,"noteNumber":69,"velocity":85,"programNumber":50},{"time":297777.4800000015,"duration":888.8879999999772,"noteNumber":69,"velocity":85,"programNumber":50},{"time":297777.4800000015,"duration":888.8879999999772,"noteNumber":62,"velocity":85,"programNumber":50},{"time":298666.3680000015,"duration":166.66649999999208,"noteNumber":67,"velocity":85,"programNumber":50},{"time":298888.5900000015,"duration":111.11099999997532,"noteNumber":71,"velocity":85,"programNumber":50},{"time":299110.81200000143,"duration":111.11099999997532,"noteNumber":72,"velocity":85,"programNumber":50},{"time":299333.0340000014,"duration":111.11099999997532,"noteNumber":74,"velocity":85,"programNumber":50},{"time":299555.25600000133,"duration":222.22200000000885,"noteNumber":72,"velocity":85,"programNumber":50},{"time":299777.47800000134,"duration":111.11099999997532,"noteNumber":74,"velocity":85,"programNumber":50},{"time":299888.5890000013,"duration":111.11099999997532,"noteNumber":76,"velocity":85,"programNumber":50},{"time":299999.7000000013,"duration":166.66649999999208,"noteNumber":74,"velocity":85,"programNumber":50},{"time":300221.9220000013,"duration":111.11099999997532,"noteNumber":72,"velocity":85,"programNumber":50},{"time":300444.14400000125,"duration":222.22200000000885,"noteNumber":72,"velocity":85,"programNumber":50},{"time":300666.36600000126,"duration":166.66649999999208,"noteNumber":71,"velocity":85,"programNumber":50},{"time":300888.58800000127,"duration":111.11099999997532,"noteNumber":67,"velocity":85,"programNumber":50},{"time":301110.8100000012,"duration":111.11099999997532,"noteNumber":71,"velocity":85,"programNumber":50},{"time":301333.03200000117,"duration":222.22200000000885,"noteNumber":71,"velocity":85,"programNumber":50},{"time":301555.2540000012,"duration":166.66649999999208,"noteNumber":69,"velocity":85,"programNumber":50},{"time":301777.4760000012,"duration":111.11099999997532,"noteNumber":67,"velocity":85,"programNumber":50},{"time":301999.69800000114,"duration":111.11099999997532,"noteNumber":66,"velocity":85,"programNumber":50},{"time":302221.9200000011,"duration":166.66649999999208,"noteNumber":67,"velocity":85,"programNumber":50},{"time":302444.1420000011,"duration":166.66649999999208,"noteNumber":59,"velocity":53,"programNumber":50},{"time":302666.3640000011,"duration":166.66649999999208,"noteNumber":60,"velocity":53,"programNumber":50},{"time":302888.5860000011,"duration":166.66649999999208,"noteNumber":60,"velocity":53,"programNumber":50},{"time":303110.8080000011,"duration":166.66649999999208,"noteNumber":62,"velocity":53,"programNumber":50},{"time":303333.03000000113,"duration":166.66649999999208,"noteNumber":62,"velocity":53,"programNumber":50},{"time":303555.25200000114,"duration":166.66649999999208,"noteNumber":59,"velocity":53,"programNumber":50},{"time":303777.47400000115,"duration":166.66649999999208,"noteNumber":59,"velocity":53,"programNumber":50},{"time":303999.69600000116,"duration":166.66649999999208,"noteNumber":57,"velocity":55,"programNumber":50},{"time":304221.91800000117,"duration":166.66649999999208,"noteNumber":57,"velocity":55,"programNumber":50},{"time":304444.1400000012,"duration":166.66649999999208,"noteNumber":59,"velocity":55,"programNumber":50},{"time":304666.3620000012,"duration":166.66649999999208,"noteNumber":59,"velocity":55,"programNumber":50},{"time":304888.5840000012,"duration":166.66649999999208,"noteNumber":60,"velocity":55,"programNumber":50},{"time":305110.8060000012,"duration":166.66649999999208,"noteNumber":60,"velocity":55,"programNumber":50},{"time":305333.0280000012,"duration":166.66649999999208,"noteNumber":57,"velocity":55,"programNumber":50},{"time":305555.2500000012,"duration":166.66649999999208,"noteNumber":57,"velocity":55,"programNumber":50},{"time":305777.47200000123,"duration":166.66649999999208,"noteNumber":59,"velocity":55,"programNumber":50},{"time":305999.69400000124,"duration":166.66649999999208,"noteNumber":71,"velocity":55,"programNumber":50},{"time":306221.91600000125,"duration":166.66649999999208,"noteNumber":72,"velocity":55,"programNumber":50},{"time":306444.13800000126,"duration":166.66649999999208,"noteNumber":72,"velocity":55,"programNumber":50},{"time":306666.36000000127,"duration":166.66649999999208,"noteNumber":74,"velocity":55,"programNumber":50},{"time":306888.5820000013,"duration":166.66649999999208,"noteNumber":74,"velocity":55,"programNumber":50},{"time":307110.8040000013,"duration":166.66649999999208,"noteNumber":71,"velocity":55,"programNumber":50},{"time":307333.0260000013,"duration":166.66649999999208,"noteNumber":71,"velocity":55,"programNumber":50},{"time":307555.2480000013,"duration":166.66649999999208,"noteNumber":69,"velocity":55,"programNumber":50},{"time":307777.4700000013,"duration":166.66649999999208,"noteNumber":69,"velocity":55,"programNumber":50},{"time":307999.6920000013,"duration":166.66649999999208,"noteNumber":71,"velocity":55,"programNumber":50},{"time":308221.9140000013,"duration":166.66649999999208,"noteNumber":71,"velocity":55,"programNumber":50},{"time":308444.13600000134,"duration":166.66649999999208,"noteNumber":72,"velocity":55,"programNumber":50},{"time":308666.35800000135,"duration":166.66649999999208,"noteNumber":72,"velocity":55,"programNumber":50},{"time":308888.58000000136,"duration":166.66649999999208,"noteNumber":69,"velocity":55,"programNumber":50},{"time":309110.80200000136,"duration":166.66649999999208,"noteNumber":69,"velocity":55,"programNumber":50},{"time":309333.0240000014,"duration":444.4440000000177,"noteNumber":71,"velocity":58,"programNumber":50},{"time":310221.9120000014,"duration":888.8879999999772,"noteNumber":83,"velocity":85,"programNumber":50},{"time":311110.8000000014,"duration":444.4440000000177,"noteNumber":81,"velocity":85,"programNumber":50},{"time":311999.6880000014,"duration":888.8879999999772,"noteNumber":81,"velocity":85,"programNumber":50},{"time":312888.5760000014,"duration":166.66649999999208,"noteNumber":79,"velocity":85,"programNumber":50},{"time":313110.7980000014,"duration":111.11099999997532,"noteNumber":71,"velocity":85,"programNumber":50},{"time":313333.02000000136,"duration":111.11099999997532,"noteNumber":72,"velocity":85,"programNumber":50},{"time":313555.2420000013,"duration":111.11099999997532,"noteNumber":74,"velocity":85,"programNumber":50},{"time":313777.46400000126,"duration":222.22200000000885,"noteNumber":72,"velocity":85,"programNumber":50},{"time":313999.68600000127,"duration":111.11099999997532,"noteNumber":74,"velocity":85,"programNumber":50},{"time":314110.79700000124,"duration":111.11099999997532,"noteNumber":76,"velocity":85,"programNumber":50},{"time":314221.9080000012,"duration":166.66649999999208,"noteNumber":74,"velocity":85,"programNumber":50},{"time":314444.1300000012,"duration":111.11099999997532,"noteNumber":72,"velocity":85,"programNumber":50},{"time":314666.3520000012,"duration":111.11099999997532,"noteNumber":71,"velocity":85,"programNumber":50},{"time":314888.5740000011,"duration":111.11099999997532,"noteNumber":74,"velocity":85,"programNumber":50},{"time":315110.7960000011,"duration":111.11099999997532,"noteNumber":79,"velocity":85,"programNumber":50},{"time":315333.01800000103,"duration":111.11099999997532,"noteNumber":83,"velocity":85,"programNumber":50},{"time":315555.240000001,"duration":222.22200000000885,"noteNumber":83,"velocity":85,"programNumber":50},{"time":315777.462000001,"duration":166.66649999999208,"noteNumber":81,"velocity":85,"programNumber":50},{"time":315999.684000001,"duration":111.11099999997532,"noteNumber":79,"velocity":85,"programNumber":50},{"time":316221.90600000095,"duration":111.11099999997532,"noteNumber":78,"velocity":85,"programNumber":50},{"time":316451.5354000009,"duration":166.66649999999208,"noteNumber":79,"velocity":85,"programNumber":50},{"time":316673.75740000093,"duration":166.66649999999208,"noteNumber":62,"velocity":85,"programNumber":50},{"time":316895.97940000094,"duration":166.66649999999208,"noteNumber":64,"velocity":85,"programNumber":50},{"time":317118.20140000095,"duration":166.66649999999208,"noteNumber":66,"velocity":85,"programNumber":50},{"time":317340.42340000096,"duration":166.66649999999208,"noteNumber":67,"velocity":85,"programNumber":50},{"time":317562.64540000097,"duration":166.66649999999208,"noteNumber":67,"velocity":85,"programNumber":50},{"time":317784.867400001,"duration":55.555500000016764,"noteNumber":69,"velocity":85,"programNumber":50},{"time":317840.422900001,"duration":55.555500000016764,"noteNumber":71,"velocity":85,"programNumber":50},{"time":317895.978400001,"duration":55.555500000016764,"noteNumber":69,"velocity":85,"programNumber":50},{"time":317951.533900001,"duration":55.555500000016764,"noteNumber":71,"velocity":85,"programNumber":50},{"time":318007.08940000104,"duration":111.11099999997532,"noteNumber":67,"velocity":85,"programNumber":50},{"time":318118.200400001,"duration":111.11099999997532,"noteNumber":69,"velocity":85,"programNumber":50},{"time":318229.311400001,"duration":166.66649999999208,"noteNumber":71,"velocity":85,"programNumber":50},{"time":318451.533400001,"duration":166.66649999999208,"noteNumber":66,"velocity":85,"programNumber":50},{"time":318673.755400001,"duration":166.66649999999208,"noteNumber":67,"velocity":85,"programNumber":50},{"time":318895.977400001,"duration":166.66649999999208,"noteNumber":69,"velocity":85,"programNumber":50},{"time":319118.19940000103,"duration":166.66649999999208,"noteNumber":71,"velocity":85,"programNumber":50},{"time":319340.42140000104,"duration":166.66649999999208,"noteNumber":71,"velocity":85,"programNumber":50},{"time":319562.64340000105,"duration":55.555500000016764,"noteNumber":72,"velocity":85,"programNumber":50},{"time":319618.19890000107,"duration":55.555500000016764,"noteNumber":74,"velocity":85,"programNumber":50},{"time":319673.7544000011,"duration":55.555500000016764,"noteNumber":72,"velocity":85,"programNumber":50},{"time":319729.3099000011,"duration":55.555500000016764,"noteNumber":74,"velocity":85,"programNumber":50},{"time":319784.8654000011,"duration":111.11099999997532,"noteNumber":71,"velocity":85,"programNumber":50},{"time":319895.9764000011,"duration":111.11100000003353,"noteNumber":72,"velocity":85,"programNumber":50},{"time":319999.6800000011,"duration":166.6665000000503,"noteNumber":74,"velocity":85,"programNumber":50},{"time":320221.90200000117,"duration":166.66649999999208,"noteNumber":74,"velocity":85,"programNumber":50},{"time":320444.1240000012,"duration":55.555500000016764,"noteNumber":75,"velocity":85,"programNumber":50},{"time":320499.6795000012,"duration":55.555500000016764,"noteNumber":76,"velocity":85,"programNumber":50},{"time":320555.2350000012,"duration":55.555500000016764,"noteNumber":75,"velocity":85,"programNumber":50},{"time":320610.7905000012,"duration":55.555500000016764,"noteNumber":76,"velocity":85,"programNumber":50},{"time":320666.34600000124,"duration":111.11099999997532,"noteNumber":73,"velocity":85,"programNumber":50},{"time":320777.4570000012,"duration":111.11099999997532,"noteNumber":75,"velocity":85,"programNumber":50},{"time":320888.5680000012,"duration":444.4440000000177,"noteNumber":76,"velocity":85,"programNumber":50},{"time":321777.4560000012,"duration":1777.7760000000126,"noteNumber":60,"velocity":70,"programNumber":50},{"time":323555.23200000124,"duration":444.4440000000177,"noteNumber":59,"velocity":70,"programNumber":50},{"time":325333.00800000125,"duration":1777.7760000000126,"noteNumber":60,"velocity":70,"programNumber":50},{"time":327110.78400000127,"duration":444.4440000000177,"noteNumber":59,"velocity":70,"programNumber":50},{"time":327999.6720000013,"duration":444.4440000000177,"noteNumber":71,"velocity":70,"programNumber":50},{"time":328888.56000000134,"duration":444.4440000000177,"noteNumber":76,"velocity":92,"programNumber":50},{"time":329777.4480000014,"duration":444.4440000000177,"noteNumber":78,"velocity":106,"programNumber":50},{"time":329777.4480000014,"duration":444.4440000000177,"noteNumber":72,"velocity":106,"programNumber":50},{"time":330666.3360000014,"duration":74.07400000002235,"noteNumber":62,"velocity":95,"programNumber":50},{"time":330666.3360000014,"duration":74.07400000002235,"noteNumber":59,"velocity":95,"programNumber":50},{"time":330777.44700000144,"duration":74.07400000002235,"noteNumber":62,"velocity":95,"programNumber":50},{"time":330777.44700000144,"duration":74.07400000002235,"noteNumber":59,"velocity":95,"programNumber":50},{"time":330888.5580000015,"duration":74.07400000002235,"noteNumber":62,"velocity":95,"programNumber":50},{"time":330888.5580000015,"duration":74.07400000002235,"noteNumber":59,"velocity":95,"programNumber":50},{"time":330999.6690000015,"duration":74.07400000002235,"noteNumber":62,"velocity":95,"programNumber":50},{"time":330999.6690000015,"duration":74.07400000002235,"noteNumber":59,"velocity":95,"programNumber":50},{"time":331110.78000000154,"duration":74.07400000002235,"noteNumber":62,"velocity":95,"programNumber":50},{"time":331110.78000000154,"duration":74.07400000002235,"noteNumber":59,"velocity":95,"programNumber":50},{"time":331221.8910000016,"duration":74.07400000002235,"noteNumber":62,"velocity":94,"programNumber":50},{"time":331221.8910000016,"duration":74.07400000002235,"noteNumber":59,"velocity":94,"programNumber":50},{"time":331333.0020000016,"duration":74.07400000002235,"noteNumber":62,"velocity":94,"programNumber":50},{"time":331333.0020000016,"duration":74.07400000002235,"noteNumber":59,"velocity":94,"programNumber":50},{"time":331444.11300000164,"duration":74.07400000002235,"noteNumber":62,"velocity":94,"programNumber":50},{"time":331444.11300000164,"duration":74.07400000002235,"noteNumber":59,"velocity":94,"programNumber":50},{"time":331555.2240000017,"duration":74.07400000002235,"noteNumber":62,"velocity":94,"programNumber":50},{"time":331555.2240000017,"duration":74.07400000002235,"noteNumber":59,"velocity":94,"programNumber":50},{"time":331666.3350000017,"duration":74.07400000002235,"noteNumber":62,"velocity":94,"programNumber":50},{"time":331666.3350000017,"duration":74.07400000002235,"noteNumber":59,"velocity":94,"programNumber":50},{"time":331777.44600000174,"duration":74.07400000002235,"noteNumber":62,"velocity":94,"programNumber":50},{"time":331777.44600000174,"duration":74.07400000002235,"noteNumber":59,"velocity":94,"programNumber":50},{"time":331888.5570000018,"duration":74.07400000002235,"noteNumber":62,"velocity":94,"programNumber":50},{"time":331888.5570000018,"duration":74.07400000002235,"noteNumber":59,"velocity":94,"programNumber":50},{"time":331999.6680000018,"duration":74.07400000002235,"noteNumber":62,"velocity":94,"programNumber":50},{"time":331999.6680000018,"duration":74.07400000002235,"noteNumber":59,"velocity":94,"programNumber":50},{"time":332110.77900000184,"duration":74.07400000002235,"noteNumber":62,"velocity":94,"programNumber":50},{"time":332110.77900000184,"duration":74.07400000002235,"noteNumber":59,"velocity":94,"programNumber":50},{"time":332221.8900000019,"duration":74.07400000002235,"noteNumber":62,"velocity":94,"programNumber":50},{"time":332221.8900000019,"duration":74.07400000002235,"noteNumber":59,"velocity":94,"programNumber":50},{"time":332333.0010000019,"duration":74.07400000002235,"noteNumber":62,"velocity":94,"programNumber":50},{"time":332333.0010000019,"duration":74.07400000002235,"noteNumber":59,"velocity":94,"programNumber":50},{"time":332444.11200000194,"duration":74.07400000002235,"noteNumber":62,"velocity":94,"programNumber":50},{"time":332444.11200000194,"duration":74.07400000002235,"noteNumber":59,"velocity":94,"programNumber":50},{"time":332555.223000002,"duration":74.07400000002235,"noteNumber":62,"velocity":94,"programNumber":50},{"time":332555.223000002,"duration":74.07400000002235,"noteNumber":59,"velocity":94,"programNumber":50},{"time":332666.334000002,"duration":74.07400000002235,"noteNumber":62,"velocity":94,"programNumber":50},{"time":332666.334000002,"duration":74.07400000002235,"noteNumber":59,"velocity":94,"programNumber":50},{"time":332777.44500000204,"duration":74.07400000002235,"noteNumber":62,"velocity":94,"programNumber":50},{"time":332777.44500000204,"duration":74.07400000002235,"noteNumber":59,"velocity":94,"programNumber":50},{"time":332888.5560000021,"duration":74.07400000002235,"noteNumber":62,"velocity":94,"programNumber":50},{"time":332888.5560000021,"duration":74.07400000002235,"noteNumber":59,"velocity":94,"programNumber":50},{"time":332999.6670000021,"duration":74.07400000002235,"noteNumber":62,"velocity":93,"programNumber":50},{"time":332999.6670000021,"duration":74.07400000002235,"noteNumber":59,"velocity":93,"programNumber":50},{"time":333110.77800000214,"duration":74.07400000002235,"noteNumber":62,"velocity":93,"programNumber":50},{"time":333110.77800000214,"duration":74.07400000002235,"noteNumber":59,"velocity":93,"programNumber":50},{"time":333221.8890000022,"duration":74.07400000002235,"noteNumber":62,"velocity":91,"programNumber":50},{"time":333221.8890000022,"duration":74.07400000002235,"noteNumber":59,"velocity":91,"programNumber":50},{"time":333333.0000000022,"duration":74.07400000002235,"noteNumber":62,"velocity":90,"programNumber":50},{"time":333333.0000000022,"duration":74.07400000002235,"noteNumber":59,"velocity":90,"programNumber":50},{"time":333444.11100000225,"duration":74.07400000002235,"noteNumber":62,"velocity":90,"programNumber":50},{"time":333444.11100000225,"duration":74.07400000002235,"noteNumber":59,"velocity":90,"programNumber":50},{"time":333555.2220000023,"duration":74.07400000002235,"noteNumber":62,"velocity":90,"programNumber":50},{"time":333555.2220000023,"duration":74.07400000002235,"noteNumber":59,"velocity":90,"programNumber":50},{"time":333666.3330000023,"duration":74.07400000002235,"noteNumber":62,"velocity":90,"programNumber":50},{"time":333666.3330000023,"duration":74.07400000002235,"noteNumber":59,"velocity":90,"programNumber":50},{"time":333777.44400000235,"duration":74.07400000002235,"noteNumber":62,"velocity":90,"programNumber":50},{"time":333777.44400000235,"duration":74.07400000002235,"noteNumber":60,"velocity":90,"programNumber":50},{"time":333888.5550000024,"duration":74.07400000002235,"noteNumber":62,"velocity":89,"programNumber":50},{"time":333888.5550000024,"duration":74.07400000002235,"noteNumber":60,"velocity":89,"programNumber":50},{"time":333999.6660000024,"duration":74.07400000002235,"noteNumber":62,"velocity":89,"programNumber":50},{"time":333999.6660000024,"duration":74.07400000002235,"noteNumber":60,"velocity":89,"programNumber":50},{"time":334110.77700000245,"duration":74.07400000002235,"noteNumber":62,"velocity":89,"programNumber":50},{"time":334110.77700000245,"duration":74.07400000002235,"noteNumber":60,"velocity":89,"programNumber":50},{"time":334221.8880000025,"duration":74.07400000002235,"noteNumber":62,"velocity":89,"programNumber":50},{"time":334221.8880000025,"duration":74.07400000002235,"noteNumber":59,"velocity":89,"programNumber":50},{"time":334332.9990000025,"duration":74.07400000002235,"noteNumber":62,"velocity":89,"programNumber":50},{"time":334332.9990000025,"duration":74.07400000002235,"noteNumber":59,"velocity":89,"programNumber":50},{"time":334444.11000000255,"duration":74.07400000002235,"noteNumber":62,"velocity":89,"programNumber":50},{"time":334444.11000000255,"duration":74.07400000002235,"noteNumber":59,"velocity":89,"programNumber":50},{"time":334555.2210000026,"duration":74.07400000002235,"noteNumber":62,"velocity":90,"programNumber":50},{"time":334555.2210000026,"duration":74.07400000002235,"noteNumber":59,"velocity":90,"programNumber":50},{"time":334666.3320000026,"duration":74.07400000002235,"noteNumber":62,"velocity":90,"programNumber":50},{"time":334666.3320000026,"duration":74.07400000002235,"noteNumber":59,"velocity":90,"programNumber":50},{"time":334777.44300000265,"duration":74.07400000002235,"noteNumber":62,"velocity":90,"programNumber":50},{"time":334777.44300000265,"duration":74.07400000002235,"noteNumber":59,"velocity":90,"programNumber":50},{"time":334888.5540000027,"duration":74.07400000002235,"noteNumber":62,"velocity":92,"programNumber":50},{"time":334888.5540000027,"duration":74.07400000002235,"noteNumber":59,"velocity":92,"programNumber":50},{"time":334999.6650000027,"duration":74.07400000002235,"noteNumber":62,"velocity":93,"programNumber":50},{"time":334999.6650000027,"duration":74.07400000002235,"noteNumber":59,"velocity":93,"programNumber":50},{"time":335110.77600000275,"duration":74.07400000002235,"noteNumber":62,"velocity":94,"programNumber":50},{"time":335110.77600000275,"duration":74.07400000002235,"noteNumber":59,"velocity":94,"programNumber":50},{"time":335221.8870000028,"duration":74.07400000002235,"noteNumber":62,"velocity":95,"programNumber":50},{"time":335221.8870000028,"duration":74.07400000002235,"noteNumber":59,"velocity":95,"programNumber":50},{"time":335332.9980000028,"duration":74.07400000002235,"noteNumber":62,"velocity":96,"programNumber":50},{"time":335332.9980000028,"duration":74.07400000002235,"noteNumber":59,"velocity":96,"programNumber":50},{"time":335444.10900000285,"duration":74.07400000002235,"noteNumber":62,"velocity":96,"programNumber":50},{"time":335444.10900000285,"duration":74.07400000002235,"noteNumber":59,"velocity":96,"programNumber":50},{"time":335555.2200000029,"duration":74.07400000002235,"noteNumber":62,"velocity":96,"programNumber":50},{"time":335555.2200000029,"duration":74.07400000002235,"noteNumber":59,"velocity":96,"programNumber":50},{"time":335666.3310000029,"duration":74.07400000002235,"noteNumber":62,"velocity":96,"programNumber":50},{"time":335666.3310000029,"duration":74.07400000002235,"noteNumber":59,"velocity":96,"programNumber":50},{"time":335777.44200000295,"duration":74.07400000002235,"noteNumber":62,"velocity":95,"programNumber":50},{"time":335777.44200000295,"duration":74.07400000002235,"noteNumber":59,"velocity":95,"programNumber":50},{"time":335888.553000003,"duration":74.07400000002235,"noteNumber":62,"velocity":94,"programNumber":50},{"time":335888.553000003,"duration":74.07400000002235,"noteNumber":59,"velocity":94,"programNumber":50},{"time":335999.664000003,"duration":74.07400000002235,"noteNumber":62,"velocity":94,"programNumber":50},{"time":335999.664000003,"duration":74.07400000002235,"noteNumber":59,"velocity":94,"programNumber":50},{"time":336110.77500000305,"duration":74.07400000002235,"noteNumber":62,"velocity":93,"programNumber":50},{"time":336110.77500000305,"duration":74.07400000002235,"noteNumber":59,"velocity":93,"programNumber":50},{"time":336221.8860000031,"duration":74.07400000002235,"noteNumber":62,"velocity":93,"programNumber":50},{"time":336221.8860000031,"duration":74.07400000002235,"noteNumber":59,"velocity":93,"programNumber":50},{"time":336332.9970000031,"duration":74.07400000002235,"noteNumber":62,"velocity":93,"programNumber":50},{"time":336332.9970000031,"duration":74.07400000002235,"noteNumber":59,"velocity":93,"programNumber":50},{"time":336444.10800000315,"duration":74.07400000002235,"noteNumber":62,"velocity":92,"programNumber":50},{"time":336444.10800000315,"duration":74.07400000002235,"noteNumber":59,"velocity":92,"programNumber":50},{"time":336555.2190000032,"duration":74.07400000002235,"noteNumber":62,"velocity":91,"programNumber":50},{"time":336555.2190000032,"duration":74.07400000002235,"noteNumber":59,"velocity":91,"programNumber":50},{"time":336666.3300000032,"duration":74.07400000002235,"noteNumber":62,"velocity":90,"programNumber":50},{"time":336666.3300000032,"duration":74.07400000002235,"noteNumber":59,"velocity":90,"programNumber":50},{"time":336777.44100000325,"duration":74.07400000002235,"noteNumber":62,"velocity":90,"programNumber":50},{"time":336777.44100000325,"duration":74.07400000002235,"noteNumber":59,"velocity":90,"programNumber":50},{"time":336888.5520000033,"duration":74.07400000002235,"noteNumber":62,"velocity":90,"programNumber":50},{"time":336888.5520000033,"duration":74.07400000002235,"noteNumber":59,"velocity":90,"programNumber":50},{"time":336999.6630000033,"duration":74.07400000002235,"noteNumber":62,"velocity":90,"programNumber":50},{"time":336999.6630000033,"duration":74.07400000002235,"noteNumber":59,"velocity":90,"programNumber":50},{"time":337110.77400000335,"duration":74.07400000002235,"noteNumber":62,"velocity":90,"programNumber":50},{"time":337110.77400000335,"duration":74.07400000002235,"noteNumber":59,"velocity":90,"programNumber":50},{"time":337221.8850000034,"duration":74.07400000002235,"noteNumber":62,"velocity":90,"programNumber":50},{"time":337221.8850000034,"duration":74.07400000002235,"noteNumber":59,"velocity":90,"programNumber":50},{"time":337332.9960000034,"duration":74.07400000002235,"noteNumber":62,"velocity":91,"programNumber":50},{"time":337332.9960000034,"duration":74.07400000002235,"noteNumber":60,"velocity":91,"programNumber":50},{"time":337444.10700000345,"duration":74.07400000002235,"noteNumber":62,"velocity":94,"programNumber":50},{"time":337444.10700000345,"duration":74.07400000002235,"noteNumber":60,"velocity":94,"programNumber":50},{"time":337555.2180000035,"duration":74.07400000002235,"noteNumber":62,"velocity":95,"programNumber":50},{"time":337555.2180000035,"duration":74.07400000002235,"noteNumber":60,"velocity":95,"programNumber":50},{"time":337666.3290000035,"duration":74.07400000002235,"noteNumber":62,"velocity":98,"programNumber":50},{"time":337666.3290000035,"duration":74.07400000002235,"noteNumber":60,"velocity":98,"programNumber":50},{"time":337777.44000000355,"duration":444.4440000000177,"noteNumber":59,"velocity":98,"programNumber":50},{"time":337777.44000000355,"duration":444.4440000000177,"noteNumber":62,"velocity":98,"programNumber":50},{"time":338666.3280000036,"duration":444.4440000000177,"noteNumber":62,"velocity":103,"programNumber":50},{"time":338666.3280000036,"duration":444.4440000000177,"noteNumber":71,"velocity":103,"programNumber":50},{"time":338666.3280000036,"duration":444.4440000000177,"noteNumber":79,"velocity":103,"programNumber":50},{"time":339562.6234000036,"duration":370.36999999999534,"noteNumber":79,"velocity":103,"programNumber":50},{"time":339562.6234000036,"duration":370.36999999999534,"noteNumber":71,"velocity":103,"programNumber":50},{"time":339562.6234000036,"duration":370.36999999999534,"noteNumber":62,"velocity":103,"programNumber":50},{"time":340007.0674000036,"duration":222.22200000000885,"noteNumber":67,"velocity":103,"programNumber":50},{"time":340007.0674000036,"duration":222.22200000000885,"noteNumber":55,"velocity":103,"programNumber":50},{"time":340340.4004000036,"duration":55.555500000016764,"noteNumber":67,"velocity":103,"programNumber":50},{"time":340340.4004000036,"duration":55.555500000016764,"noteNumber":55,"velocity":103,"programNumber":50},{"time":340451.5114000036,"duration":444.4440000000177,"noteNumber":67,"velocity":103,"programNumber":50},{"time":340451.5114000036,"duration":444.4440000000177,"noteNumber":55,"velocity":103,"programNumber":50}],[{"time":0,"duration":444.444,"noteNumber":67,"velocity":85,"programNumber":44},{"time":666.666,"duration":111.11099999999999,"noteNumber":62,"velocity":85,"programNumber":44},{"time":888.888,"duration":444.4440000000001,"noteNumber":67,"velocity":85,"programNumber":44},{"time":1555.554,"duration":111.1110000000001,"noteNumber":62,"velocity":85,"programNumber":44},{"time":1777.7760000000003,"duration":111.1110000000001,"noteNumber":67,"velocity":85,"programNumber":44},{"time":1999.9980000000005,"duration":111.11099999999988,"noteNumber":62,"velocity":85,"programNumber":44},{"time":2222.2200000000003,"duration":111.11099999999988,"noteNumber":67,"velocity":85,"programNumber":44},{"time":2444.442,"duration":111.11099999999988,"noteNumber":71,"velocity":85,"programNumber":44},{"time":2666.6639999999998,"duration":444.44399999999996,"noteNumber":74,"velocity":85,"programNumber":44},{"time":3555.5519999999997,"duration":444.44399999999996,"noteNumber":72,"velocity":85,"programNumber":44},{"time":4222.218,"duration":111.11099999999988,"noteNumber":69,"velocity":85,"programNumber":44},{"time":4444.44,"duration":444.4440000000004,"noteNumber":72,"velocity":85,"programNumber":44},{"time":5111.106,"duration":111.11099999999988,"noteNumber":69,"velocity":85,"programNumber":44},{"time":5333.3279999999995,"duration":111.11099999999988,"noteNumber":72,"velocity":85,"programNumber":44},{"time":5555.549999999999,"duration":111.11099999999988,"noteNumber":69,"velocity":85,"programNumber":44},{"time":5777.771999999999,"duration":111.11099999999988,"noteNumber":66,"velocity":85,"programNumber":44},{"time":5999.993999999999,"duration":111.11099999999988,"noteNumber":69,"velocity":85,"programNumber":44},{"time":6222.2159999999985,"duration":444.4440000000004,"noteNumber":62,"velocity":85,"programNumber":44},{"time":7111.103999999999,"duration":166.66650000000027,"noteNumber":67,"velocity":85,"programNumber":44},{"time":7333.326,"duration":166.66650000000027,"noteNumber":67,"velocity":85,"programNumber":44},{"time":7555.548000000001,"duration":166.66650000000027,"noteNumber":67,"velocity":85,"programNumber":44},{"time":7777.770000000001,"duration":166.66650000000027,"noteNumber":67,"velocity":85,"programNumber":44},{"time":7999.992000000002,"duration":166.66650000000027,"noteNumber":67,"velocity":85,"programNumber":44},{"time":8222.214000000002,"duration":166.66649999999936,"noteNumber":67,"velocity":85,"programNumber":44},{"time":8444.436000000002,"duration":166.66649999999936,"noteNumber":67,"velocity":85,"programNumber":44},{"time":8666.658000000001,"duration":166.66649999999936,"noteNumber":67,"velocity":85,"programNumber":44},{"time":8888.880000000001,"duration":166.66649999999936,"noteNumber":69,"velocity":85,"programNumber":44},{"time":9111.102,"duration":166.66649999999936,"noteNumber":69,"velocity":85,"programNumber":44},{"time":9333.324,"duration":166.66649999999936,"noteNumber":69,"velocity":85,"programNumber":44},{"time":9555.546,"duration":166.66649999999936,"noteNumber":69,"velocity":85,"programNumber":44},{"time":9777.768,"duration":222.22199999999975,"noteNumber":69,"velocity":85,"programNumber":44},{"time":9999.99,"duration":166.66649999999936,"noteNumber":72,"velocity":85,"programNumber":44},{"time":10222.212,"duration":222.22199999999975,"noteNumber":66,"velocity":85,"programNumber":44},{"time":10444.434,"duration":166.66649999999936,"noteNumber":69,"velocity":85,"programNumber":44},{"time":10666.655999999999,"duration":166.66649999999936,"noteNumber":67,"velocity":85,"programNumber":44},{"time":10888.877999999999,"duration":166.66649999999936,"noteNumber":67,"velocity":85,"programNumber":44},{"time":11111.099999999999,"duration":166.66649999999936,"noteNumber":67,"velocity":85,"programNumber":44},{"time":11333.321999999998,"duration":166.66649999999936,"noteNumber":67,"velocity":85,"programNumber":44},{"time":11555.543999999998,"duration":166.66649999999936,"noteNumber":67,"velocity":85,"programNumber":44},{"time":11777.765999999998,"duration":166.66649999999936,"noteNumber":67,"velocity":85,"programNumber":44},{"time":11999.987999999998,"duration":166.66649999999936,"noteNumber":67,"velocity":85,"programNumber":44},{"time":12222.209999999997,"duration":166.66649999999936,"noteNumber":67,"velocity":85,"programNumber":44},{"time":12444.431999999997,"duration":166.66649999999936,"noteNumber":69,"velocity":85,"programNumber":44},{"time":12666.653999999997,"duration":166.66649999999936,"noteNumber":69,"velocity":85,"programNumber":44},{"time":12888.875999999997,"duration":166.66649999999936,"noteNumber":69,"velocity":85,"programNumber":44},{"time":13111.097999999996,"duration":166.66649999999936,"noteNumber":69,"velocity":85,"programNumber":44},{"time":13333.319999999996,"duration":222.22199999999975,"noteNumber":69,"velocity":85,"programNumber":44},{"time":13555.541999999996,"duration":166.66649999999936,"noteNumber":72,"velocity":85,"programNumber":44},{"time":13777.763999999996,"duration":222.22199999999975,"noteNumber":66,"velocity":85,"programNumber":44},{"time":13999.985999999995,"duration":166.66649999999936,"noteNumber":69,"velocity":85,"programNumber":44},{"time":14222.207999999995,"duration":74.07400000000052,"noteNumber":62,"velocity":85,"programNumber":44},{"time":14333.318999999996,"duration":74.07400000000052,"noteNumber":62,"velocity":85,"programNumber":44},{"time":14444.429999999997,"duration":74.07400000000052,"noteNumber":62,"velocity":85,"programNumber":44},{"time":14555.540999999997,"duration":74.07400000000052,"noteNumber":62,"velocity":85,"programNumber":44},{"time":14666.651999999998,"duration":74.07400000000052,"noteNumber":62,"velocity":85,"programNumber":44},{"time":14777.762999999999,"duration":74.07400000000052,"noteNumber":62,"velocity":85,"programNumber":44},{"time":14888.874,"duration":74.07400000000052,"noteNumber":62,"velocity":85,"programNumber":44},{"time":14999.985,"duration":74.07400000000052,"noteNumber":62,"velocity":85,"programNumber":44},{"time":15111.096000000001,"duration":74.07400000000052,"noteNumber":62,"velocity":85,"programNumber":44},{"time":15222.207000000002,"duration":74.07400000000052,"noteNumber":62,"velocity":85,"programNumber":44},{"time":15333.318000000003,"duration":74.07400000000052,"noteNumber":62,"velocity":85,"programNumber":44},{"time":15444.429000000004,"duration":74.07400000000052,"noteNumber":62,"velocity":85,"programNumber":44},{"time":15555.540000000005,"duration":74.07400000000052,"noteNumber":62,"velocity":85,"programNumber":44},{"time":15666.651000000005,"duration":74.07400000000052,"noteNumber":62,"velocity":85,"programNumber":44},{"time":15777.762000000006,"duration":74.07400000000052,"noteNumber":62,"velocity":85,"programNumber":44},{"time":15888.873000000007,"duration":74.07400000000052,"noteNumber":62,"velocity":85,"programNumber":44},{"time":15999.984000000008,"duration":74.07400000000052,"noteNumber":62,"velocity":85,"programNumber":44},{"time":16111.095000000008,"duration":74.07400000000052,"noteNumber":62,"velocity":85,"programNumber":44},{"time":16222.20600000001,"duration":74.07400000000052,"noteNumber":62,"velocity":85,"programNumber":44},{"time":16333.31700000001,"duration":74.07400000000052,"noteNumber":62,"velocity":85,"programNumber":44},{"time":16444.42800000001,"duration":74.07400000000052,"noteNumber":62,"velocity":85,"programNumber":44},{"time":16555.53900000001,"duration":74.07400000000052,"noteNumber":62,"velocity":85,"programNumber":44},{"time":16666.650000000012,"duration":74.07400000000052,"noteNumber":62,"velocity":85,"programNumber":44},{"time":16777.761000000013,"duration":74.07400000000052,"noteNumber":62,"velocity":85,"programNumber":44},{"time":16888.872000000014,"duration":444.4439999999995,"noteNumber":62,"velocity":85,"programNumber":44},{"time":19555.536000000015,"duration":888.887999999999,"noteNumber":54,"velocity":47,"programNumber":44},{"time":20444.424000000014,"duration":888.887999999999,"noteNumber":55,"velocity":47,"programNumber":44},{"time":21333.312000000013,"duration":333.3329999999987,"noteNumber":60,"velocity":47,"programNumber":44},{"time":21777.756000000012,"duration":333.3329999999987,"noteNumber":60,"velocity":47,"programNumber":44},{"time":22222.20000000001,"duration":333.3329999999987,"noteNumber":57,"velocity":47,"programNumber":44},{"time":22666.64400000001,"duration":333.3329999999987,"noteNumber":50,"velocity":47,"programNumber":44},{"time":23111.08800000001,"duration":222.22200000000157,"noteNumber":50,"velocity":47,"programNumber":44},{"time":23555.532000000014,"duration":222.22200000000157,"noteNumber":62,"velocity":47,"programNumber":44},{"time":23999.976000000017,"duration":444.4439999999995,"noteNumber":62,"velocity":47,"programNumber":44},{"time":26666.640000000018,"duration":888.887999999999,"noteNumber":66,"velocity":47,"programNumber":44},{"time":27555.528000000017,"duration":888.887999999999,"noteNumber":67,"velocity":47,"programNumber":44},{"time":28444.416000000016,"duration":333.3329999999987,"noteNumber":60,"velocity":47,"programNumber":44},{"time":28888.860000000015,"duration":166.66649999999936,"noteNumber":60,"velocity":47,"programNumber":44},{"time":29111.082000000013,"duration":166.66649999999936,"noteNumber":60,"velocity":47,"programNumber":44},{"time":29333.30400000001,"duration":333.3329999999987,"noteNumber":57,"velocity":47,"programNumber":44},{"time":29777.74800000001,"duration":166.66649999999936,"noteNumber":57,"velocity":47,"programNumber":44},{"time":29999.97000000001,"duration":166.66649999999936,"noteNumber":57,"velocity":47,"programNumber":44},{"time":30222.192000000006,"duration":166.66649999999936,"noteNumber":55,"velocity":92,"programNumber":44},{"time":30444.414000000004,"duration":166.66649999999936,"noteNumber":55,"velocity":71,"programNumber":44},{"time":30666.636000000002,"duration":166.66649999999936,"noteNumber":55,"velocity":71,"programNumber":44},{"time":30888.858,"duration":166.66649999999936,"noteNumber":55,"velocity":71,"programNumber":44},{"time":31111.079999999998,"duration":166.66649999999936,"noteNumber":55,"velocity":55,"programNumber":44},{"time":31333.301999999996,"duration":166.66649999999936,"noteNumber":55,"velocity":50,"programNumber":44},{"time":31555.523999999994,"duration":166.66649999999936,"noteNumber":55,"velocity":50,"programNumber":44},{"time":31777.745999999992,"duration":166.66649999999936,"noteNumber":55,"velocity":50,"programNumber":44},{"time":31999.96799999999,"duration":166.66649999999936,"noteNumber":55,"velocity":91,"programNumber":44},{"time":32222.189999999988,"duration":166.66649999999936,"noteNumber":55,"velocity":65,"programNumber":44},{"time":32444.411999999986,"duration":166.66649999999936,"noteNumber":55,"velocity":65,"programNumber":44},{"time":32666.633999999984,"duration":166.66649999999936,"noteNumber":55,"velocity":65,"programNumber":44},{"time":32888.855999999985,"duration":166.66649999999936,"noteNumber":55,"velocity":46,"programNumber":44},{"time":33111.07799999999,"duration":166.66649999999936,"noteNumber":55,"velocity":46,"programNumber":44},{"time":33333.29999999999,"duration":166.66649999999936,"noteNumber":55,"velocity":46,"programNumber":44},{"time":33555.52199999999,"duration":166.66649999999936,"noteNumber":55,"velocity":46,"programNumber":44},{"time":33777.74399999999,"duration":166.66649999999936,"noteNumber":55,"velocity":59,"programNumber":44},{"time":33999.96599999999,"duration":166.66649999999936,"noteNumber":67,"velocity":41,"programNumber":44},{"time":34222.187999999995,"duration":166.66649999999936,"noteNumber":67,"velocity":46,"programNumber":44},{"time":34444.409999999996,"duration":166.66649999999936,"noteNumber":67,"velocity":49,"programNumber":44},{"time":34666.632,"duration":166.66649999999936,"noteNumber":67,"velocity":53,"programNumber":44},{"time":34888.854,"duration":166.66649999999936,"noteNumber":67,"velocity":56,"programNumber":44},{"time":35111.076,"duration":166.66649999999936,"noteNumber":69,"velocity":61,"programNumber":44},{"time":35333.298,"duration":166.66649999999936,"noteNumber":69,"velocity":64,"programNumber":44},{"time":35555.520000000004,"duration":166.66649999999936,"noteNumber":67,"velocity":68,"programNumber":44},{"time":35777.742000000006,"duration":166.66649999999936,"noteNumber":67,"velocity":71,"programNumber":44},{"time":35999.96400000001,"duration":166.66649999999936,"noteNumber":66,"velocity":76,"programNumber":44},{"time":36222.18600000001,"duration":166.66649999999936,"noteNumber":66,"velocity":79,"programNumber":44},{"time":36444.40800000001,"duration":166.66649999999936,"noteNumber":67,"velocity":82,"programNumber":44},{"time":36666.63000000001,"duration":166.66649999999936,"noteNumber":67,"velocity":82,"programNumber":44},{"time":36888.85200000001,"duration":166.66649999999936,"noteNumber":64,"velocity":82,"programNumber":44},{"time":37111.074000000015,"duration":166.66649999999936,"noteNumber":64,"velocity":82,"programNumber":44},{"time":37333.29600000002,"duration":74.07400000000052,"noteNumber":62,"velocity":85,"programNumber":44},{"time":37333.29600000002,"duration":74.07400000000052,"noteNumber":69,"velocity":85,"programNumber":44},{"time":37444.407000000014,"duration":74.07400000000052,"noteNumber":62,"velocity":85,"programNumber":44},{"time":37444.407000000014,"duration":74.07400000000052,"noteNumber":69,"velocity":85,"programNumber":44},{"time":37555.51800000001,"duration":74.07400000000052,"noteNumber":62,"velocity":85,"programNumber":44},{"time":37555.51800000001,"duration":74.07400000000052,"noteNumber":69,"velocity":85,"programNumber":44},{"time":37666.62900000001,"duration":74.07400000000052,"noteNumber":62,"velocity":85,"programNumber":44},{"time":37666.62900000001,"duration":74.07400000000052,"noteNumber":69,"velocity":85,"programNumber":44},{"time":37777.740000000005,"duration":74.07400000000052,"noteNumber":62,"velocity":85,"programNumber":44},{"time":37777.740000000005,"duration":74.07400000000052,"noteNumber":69,"velocity":85,"programNumber":44},{"time":37888.851,"duration":74.07400000000052,"noteNumber":62,"velocity":85,"programNumber":44},{"time":37888.851,"duration":74.07400000000052,"noteNumber":69,"velocity":85,"programNumber":44},{"time":37999.962,"duration":74.07400000000052,"noteNumber":62,"velocity":85,"programNumber":44},{"time":37999.962,"duration":74.07400000000052,"noteNumber":69,"velocity":85,"programNumber":44},{"time":38111.073,"duration":74.07400000000052,"noteNumber":62,"velocity":85,"programNumber":44},{"time":38111.073,"duration":74.07400000000052,"noteNumber":69,"velocity":85,"programNumber":44},{"time":38222.183999999994,"duration":74.07400000000052,"noteNumber":64,"velocity":85,"programNumber":44},{"time":38222.183999999994,"duration":74.07400000000052,"noteNumber":69,"velocity":85,"programNumber":44},{"time":38333.29499999999,"duration":74.07400000000052,"noteNumber":64,"velocity":85,"programNumber":44},{"time":38333.29499999999,"duration":74.07400000000052,"noteNumber":69,"velocity":85,"programNumber":44},{"time":38444.40599999999,"duration":74.07400000000052,"noteNumber":64,"velocity":85,"programNumber":44},{"time":38444.40599999999,"duration":74.07400000000052,"noteNumber":69,"velocity":85,"programNumber":44},{"time":38555.516999999985,"duration":74.07400000000052,"noteNumber":64,"velocity":85,"programNumber":44},{"time":38555.516999999985,"duration":74.07400000000052,"noteNumber":69,"velocity":85,"programNumber":44},{"time":38666.62799999998,"duration":74.07400000000052,"noteNumber":64,"velocity":85,"programNumber":44},{"time":38666.62799999998,"duration":74.07400000000052,"noteNumber":69,"velocity":85,"programNumber":44},{"time":38777.73899999998,"duration":74.07400000000052,"noteNumber":64,"velocity":85,"programNumber":44},{"time":38777.73899999998,"duration":74.07400000000052,"noteNumber":69,"velocity":85,"programNumber":44},{"time":38888.84999999998,"duration":74.07400000000052,"noteNumber":64,"velocity":85,"programNumber":44},{"time":38888.84999999998,"duration":74.07400000000052,"noteNumber":69,"velocity":85,"programNumber":44},{"time":38999.960999999974,"duration":74.07400000000052,"noteNumber":64,"velocity":85,"programNumber":44},{"time":38999.960999999974,"duration":74.07400000000052,"noteNumber":69,"velocity":85,"programNumber":44},{"time":39111.07199999997,"duration":74.07400000000052,"noteNumber":62,"velocity":85,"programNumber":44},{"time":39111.07199999997,"duration":74.07400000000052,"noteNumber":69,"velocity":85,"programNumber":44},{"time":39222.18299999997,"duration":74.07400000000052,"noteNumber":62,"velocity":85,"programNumber":44},{"time":39222.18299999997,"duration":74.07400000000052,"noteNumber":69,"velocity":85,"programNumber":44},{"time":39333.293999999965,"duration":74.07400000000052,"noteNumber":62,"velocity":85,"programNumber":44},{"time":39333.293999999965,"duration":74.07400000000052,"noteNumber":69,"velocity":85,"programNumber":44},{"time":39444.40499999996,"duration":74.07400000000052,"noteNumber":62,"velocity":85,"programNumber":44},{"time":39444.40499999996,"duration":74.07400000000052,"noteNumber":69,"velocity":85,"programNumber":44},{"time":39555.51599999996,"duration":74.07400000000052,"noteNumber":62,"velocity":85,"programNumber":44},{"time":39555.51599999996,"duration":74.07400000000052,"noteNumber":69,"velocity":85,"programNumber":44},{"time":39666.62699999996,"duration":74.07400000000052,"noteNumber":62,"velocity":85,"programNumber":44},{"time":39666.62699999996,"duration":74.07400000000052,"noteNumber":69,"velocity":85,"programNumber":44},{"time":39777.737999999954,"duration":74.07400000000052,"noteNumber":62,"velocity":85,"programNumber":44},{"time":39777.737999999954,"duration":74.07400000000052,"noteNumber":69,"velocity":85,"programNumber":44},{"time":39888.84899999995,"duration":74.07400000000052,"noteNumber":62,"velocity":85,"programNumber":44},{"time":39888.84899999995,"duration":74.07400000000052,"noteNumber":69,"velocity":85,"programNumber":44},{"time":39999.95999999995,"duration":74.07400000000052,"noteNumber":64,"velocity":85,"programNumber":44},{"time":39999.95999999995,"duration":74.07400000000052,"noteNumber":69,"velocity":85,"programNumber":44},{"time":40111.070999999945,"duration":74.07400000000052,"noteNumber":64,"velocity":85,"programNumber":44},{"time":40111.070999999945,"duration":74.07400000000052,"noteNumber":69,"velocity":85,"programNumber":44},{"time":40222.18199999994,"duration":74.07400000000052,"noteNumber":64,"velocity":85,"programNumber":44},{"time":40222.18199999994,"duration":74.07400000000052,"noteNumber":69,"velocity":85,"programNumber":44},{"time":40333.29299999994,"duration":74.07400000000052,"noteNumber":64,"velocity":85,"programNumber":44},{"time":40333.29299999994,"duration":74.07400000000052,"noteNumber":69,"velocity":85,"programNumber":44},{"time":40444.40399999994,"duration":74.07400000000052,"noteNumber":64,"velocity":85,"programNumber":44},{"time":40444.40399999994,"duration":74.07400000000052,"noteNumber":69,"velocity":85,"programNumber":44},{"time":40555.514999999934,"duration":74.07400000000052,"noteNumber":64,"velocity":85,"programNumber":44},{"time":40555.514999999934,"duration":74.07400000000052,"noteNumber":69,"velocity":85,"programNumber":44},{"time":40666.62599999993,"duration":74.07400000000052,"noteNumber":64,"velocity":85,"programNumber":44},{"time":40666.62599999993,"duration":74.07400000000052,"noteNumber":69,"velocity":85,"programNumber":44},{"time":40777.73699999993,"duration":74.07400000000052,"noteNumber":64,"velocity":85,"programNumber":44},{"time":40777.73699999993,"duration":74.07400000000052,"noteNumber":69,"velocity":85,"programNumber":44},{"time":40888.847999999925,"duration":166.66649999999936,"noteNumber":62,"velocity":85,"programNumber":44},{"time":41111.06999999993,"duration":166.66649999999936,"noteNumber":64,"velocity":85,"programNumber":44},{"time":41333.29199999993,"duration":166.66649999999936,"noteNumber":66,"velocity":85,"programNumber":44},{"time":41555.51399999993,"duration":166.66649999999936,"noteNumber":64,"velocity":85,"programNumber":44},{"time":41777.73599999993,"duration":166.66649999999936,"noteNumber":62,"velocity":85,"programNumber":44},{"time":41999.95799999993,"duration":166.66649999999936,"noteNumber":64,"velocity":85,"programNumber":44},{"time":42222.179999999935,"duration":166.66649999999936,"noteNumber":66,"velocity":85,"programNumber":44},{"time":42444.40199999994,"duration":166.66649999999936,"noteNumber":62,"velocity":85,"programNumber":44},{"time":42666.62399999994,"duration":166.66649999999936,"noteNumber":71,"velocity":85,"programNumber":44},{"time":42888.84599999994,"duration":166.66649999999936,"noteNumber":69,"velocity":85,"programNumber":44},{"time":43111.06799999994,"duration":166.66649999999936,"noteNumber":67,"velocity":85,"programNumber":44},{"time":43333.28999999994,"duration":166.66649999999936,"noteNumber":69,"velocity":85,"programNumber":44},{"time":43555.511999999944,"duration":166.66649999999936,"noteNumber":71,"velocity":85,"programNumber":44},{"time":43777.733999999946,"duration":166.66649999999936,"noteNumber":69,"velocity":85,"programNumber":44},{"time":43999.95599999995,"duration":166.66649999999936,"noteNumber":68,"velocity":85,"programNumber":44},{"time":44222.17799999995,"duration":166.66649999999936,"noteNumber":71,"velocity":85,"programNumber":44},{"time":44444.39999999995,"duration":166.66649999999936,"noteNumber":69,"velocity":85,"programNumber":44},{"time":44666.62199999995,"duration":166.66649999999936,"noteNumber":69,"velocity":85,"programNumber":44},{"time":44888.843999999954,"duration":166.66649999999936,"noteNumber":69,"velocity":85,"programNumber":44},{"time":45111.065999999955,"duration":166.66649999999936,"noteNumber":69,"velocity":85,"programNumber":44},{"time":45333.28799999996,"duration":166.66649999999936,"noteNumber":69,"velocity":85,"programNumber":44},{"time":45555.50999999996,"duration":166.66649999999936,"noteNumber":69,"velocity":85,"programNumber":44},{"time":45777.73199999996,"duration":166.66649999999936,"noteNumber":69,"velocity":85,"programNumber":44},{"time":45999.95399999996,"duration":166.66649999999936,"noteNumber":69,"velocity":85,"programNumber":44},{"time":46222.17599999996,"duration":166.66649999999936,"noteNumber":69,"velocity":85,"programNumber":44},{"time":46444.397999999965,"duration":166.66649999999936,"noteNumber":57,"velocity":85,"programNumber":44},{"time":46666.619999999966,"duration":166.66649999999936,"noteNumber":57,"velocity":85,"programNumber":44},{"time":46888.84199999997,"duration":166.66649999999936,"noteNumber":57,"velocity":85,"programNumber":44},{"time":47111.06399999997,"duration":444.44400000000314,"noteNumber":57,"velocity":85,"programNumber":44},{"time":49333.28399999997,"duration":222.22200000000157,"noteNumber":66,"velocity":55,"programNumber":44},{"time":49777.727999999974,"duration":222.22200000000157,"noteNumber":59,"velocity":55,"programNumber":44},{"time":50222.17199999998,"duration":222.22200000000157,"noteNumber":67,"velocity":55,"programNumber":44},{"time":50666.61599999998,"duration":222.22200000000157,"noteNumber":64,"velocity":55,"programNumber":44},{"time":51111.05999999998,"duration":222.22200000000157,"noteNumber":61,"velocity":55,"programNumber":44},{"time":51999.94799999998,"duration":444.44400000000314,"noteNumber":64,"velocity":55,"programNumber":44},{"time":52444.391999999985,"duration":222.22200000000157,"noteNumber":62,"velocity":55,"programNumber":44},{"time":52888.83599999999,"duration":222.22200000000157,"noteNumber":64,"velocity":55,"programNumber":44},{"time":53333.27999999999,"duration":888.887999999999,"noteNumber":62,"velocity":55,"programNumber":44},{"time":54222.16799999999,"duration":444.44400000000314,"noteNumber":61,"velocity":55,"programNumber":44},{"time":55555.49999999999,"duration":444.44400000000314,"noteNumber":61,"velocity":55,"programNumber":44},{"time":55999.943999999996,"duration":222.22200000000157,"noteNumber":62,"velocity":55,"programNumber":44},{"time":56444.388,"duration":222.22200000000157,"noteNumber":66,"velocity":55,"programNumber":44},{"time":56888.832,"duration":222.22200000000157,"noteNumber":59,"velocity":55,"programNumber":44},{"time":57333.276000000005,"duration":222.22200000000157,"noteNumber":55,"velocity":55,"programNumber":44},{"time":57777.72000000001,"duration":444.44400000000314,"noteNumber":52,"velocity":55,"programNumber":44},{"time":58444.38600000001,"duration":166.66649999999936,"noteNumber":64,"velocity":55,"programNumber":44},{"time":58666.608000000015,"duration":222.22200000000157,"noteNumber":64,"velocity":55,"programNumber":44},{"time":58888.830000000016,"duration":222.22200000000157,"noteNumber":62,"velocity":55,"programNumber":44},{"time":60444.38400000002,"duration":166.66649999999936,"noteNumber":62,"velocity":55,"programNumber":44},{"time":60666.60600000002,"duration":166.66649999999936,"noteNumber":62,"velocity":55,"programNumber":44},{"time":60888.82800000002,"duration":166.66649999999936,"noteNumber":64,"velocity":55,"programNumber":44},{"time":61111.050000000025,"duration":166.66649999999936,"noteNumber":64,"velocity":55,"programNumber":44},{"time":61333.272000000026,"duration":166.66649999999936,"noteNumber":66,"velocity":55,"programNumber":44},{"time":61555.49400000003,"duration":166.66649999999936,"noteNumber":66,"velocity":55,"programNumber":44},{"time":61777.71600000003,"duration":166.66649999999936,"noteNumber":62,"velocity":55,"programNumber":44},{"time":61999.93800000003,"duration":166.66649999999936,"noteNumber":62,"velocity":55,"programNumber":44},{"time":62222.16000000003,"duration":166.66649999999936,"noteNumber":61,"velocity":55,"programNumber":44},{"time":62444.382000000034,"duration":166.66649999999936,"noteNumber":61,"velocity":55,"programNumber":44},{"time":62666.604000000036,"duration":166.66649999999936,"noteNumber":62,"velocity":55,"programNumber":44},{"time":62888.82600000004,"duration":166.66649999999936,"noteNumber":62,"velocity":55,"programNumber":44},{"time":63111.04800000004,"duration":166.66649999999936,"noteNumber":64,"velocity":55,"programNumber":44},{"time":63333.27000000004,"duration":166.66649999999936,"noteNumber":64,"velocity":55,"programNumber":44},{"time":63555.49200000004,"duration":166.66649999999936,"noteNumber":61,"velocity":55,"programNumber":44},{"time":63777.71400000004,"duration":166.66649999999936,"noteNumber":61,"velocity":55,"programNumber":44},{"time":63999.936000000045,"duration":166.66649999999936,"noteNumber":62,"velocity":55,"programNumber":44},{"time":64222.15800000005,"duration":166.66649999999936,"noteNumber":62,"velocity":55,"programNumber":44},{"time":64444.38000000005,"duration":166.66649999999936,"noteNumber":64,"velocity":55,"programNumber":44},{"time":64666.60200000005,"duration":166.66649999999936,"noteNumber":64,"velocity":55,"programNumber":44},{"time":64888.82400000005,"duration":166.66649999999936,"noteNumber":66,"velocity":55,"programNumber":44},{"time":65111.04600000005,"duration":166.66649999999936,"noteNumber":66,"velocity":55,"programNumber":44},{"time":65333.268000000055,"duration":166.66649999999936,"noteNumber":62,"velocity":55,"programNumber":44},{"time":65555.49000000005,"duration":166.66650000000664,"noteNumber":62,"velocity":55,"programNumber":44},{"time":65777.71200000006,"duration":166.66650000000664,"noteNumber":61,"velocity":55,"programNumber":44},{"time":65999.93400000007,"duration":166.66650000000664,"noteNumber":61,"velocity":55,"programNumber":44},{"time":66222.15600000008,"duration":166.66650000000664,"noteNumber":62,"velocity":55,"programNumber":44},{"time":66444.37800000008,"duration":166.66650000000664,"noteNumber":62,"velocity":55,"programNumber":44},{"time":66666.6000000001,"duration":166.66650000000664,"noteNumber":64,"velocity":55,"programNumber":44},{"time":66888.8220000001,"duration":166.66650000000664,"noteNumber":64,"velocity":55,"programNumber":44},{"time":67111.04400000011,"duration":166.66650000000664,"noteNumber":61,"velocity":55,"programNumber":44},{"time":67333.26600000012,"duration":166.66650000000664,"noteNumber":61,"velocity":55,"programNumber":44},{"time":67555.48800000013,"duration":166.66650000000664,"noteNumber":62,"velocity":55,"programNumber":44},{"time":67777.71000000014,"duration":166.66650000000664,"noteNumber":62,"velocity":55,"programNumber":44},{"time":67999.93200000015,"duration":166.66650000000664,"noteNumber":66,"velocity":55,"programNumber":44},{"time":68222.15400000016,"duration":166.66650000000664,"noteNumber":64,"velocity":55,"programNumber":44},{"time":68444.37600000016,"duration":166.66650000000664,"noteNumber":63,"velocity":55,"programNumber":44},{"time":68666.59800000017,"duration":166.66650000000664,"noteNumber":59,"velocity":55,"programNumber":44},{"time":68888.82000000018,"duration":166.66650000000664,"noteNumber":61,"velocity":55,"programNumber":44},{"time":69111.04200000019,"duration":166.66650000000664,"noteNumber":62,"velocity":55,"programNumber":44},{"time":69333.2640000002,"duration":166.66650000000664,"noteNumber":64,"velocity":85,"programNumber":44},{"time":69555.48600000021,"duration":166.66650000000664,"noteNumber":67,"velocity":85,"programNumber":44},{"time":69777.70800000022,"duration":166.66650000000664,"noteNumber":64,"velocity":85,"programNumber":44},{"time":69999.93000000023,"duration":166.66650000000664,"noteNumber":62,"velocity":85,"programNumber":44},{"time":70222.15200000023,"duration":166.66650000000664,"noteNumber":61,"velocity":85,"programNumber":44},{"time":70444.37400000024,"duration":166.66650000000664,"noteNumber":57,"velocity":55,"programNumber":44},{"time":70666.59600000025,"duration":166.66650000000664,"noteNumber":59,"velocity":85,"programNumber":44},{"time":70888.81800000026,"duration":166.66650000000664,"noteNumber":61,"velocity":85,"programNumber":44},{"time":71111.04000000027,"duration":166.66650000000664,"noteNumber":62,"velocity":85,"programNumber":44},{"time":71333.26200000028,"duration":166.66650000000664,"noteNumber":74,"velocity":85,"programNumber":44},{"time":71555.48400000029,"duration":166.66650000000664,"noteNumber":74,"velocity":85,"programNumber":44},{"time":71777.7060000003,"duration":166.66650000000664,"noteNumber":74,"velocity":85,"programNumber":44},{"time":71999.9280000003,"duration":166.66650000000664,"noteNumber":74,"velocity":85,"programNumber":44},{"time":72222.15000000031,"duration":166.66650000000664,"noteNumber":74,"velocity":85,"programNumber":44},{"time":72444.37200000032,"duration":166.66650000000664,"noteNumber":74,"velocity":85,"programNumber":44},{"time":72666.59400000033,"duration":166.66650000000664,"noteNumber":74,"velocity":85,"programNumber":44},{"time":72888.81600000034,"duration":222.2219999999943,"noteNumber":74,"velocity":85,"programNumber":44},{"time":73111.03800000034,"duration":166.66650000000664,"noteNumber":69,"velocity":85,"programNumber":44},{"time":73333.26000000034,"duration":111.11100000000442,"noteNumber":69,"velocity":85,"programNumber":44},{"time":73555.48200000035,"duration":111.11100000000442,"noteNumber":69,"velocity":85,"programNumber":44},{"time":73777.70400000036,"duration":166.66650000000664,"noteNumber":69,"velocity":85,"programNumber":44},{"time":73999.92600000037,"duration":166.66650000000664,"noteNumber":69,"velocity":85,"programNumber":44},{"time":74222.14800000038,"duration":166.66650000000664,"noteNumber":69,"velocity":85,"programNumber":44},{"time":74444.37000000039,"duration":166.66650000000664,"noteNumber":67,"velocity":85,"programNumber":44},{"time":74666.5920000004,"duration":166.66650000000664,"noteNumber":62,"velocity":85,"programNumber":44},{"time":74888.8140000004,"duration":166.66650000000664,"noteNumber":62,"velocity":53,"programNumber":44},{"time":75111.03600000041,"duration":166.66650000000664,"noteNumber":64,"velocity":53,"programNumber":44},{"time":75333.25800000042,"duration":166.66650000000664,"noteNumber":64,"velocity":53,"programNumber":44},{"time":75555.48000000043,"duration":166.66650000000664,"noteNumber":66,"velocity":53,"programNumber":44},{"time":75777.70200000044,"duration":166.66650000000664,"noteNumber":66,"velocity":53,"programNumber":44},{"time":75999.92400000045,"duration":166.66650000000664,"noteNumber":62,"velocity":53,"programNumber":44},{"time":76222.14600000046,"duration":166.66650000000664,"noteNumber":62,"velocity":53,"programNumber":44},{"time":76444.36800000047,"duration":166.66650000000664,"noteNumber":61,"velocity":55,"programNumber":44},{"time":76666.59000000048,"duration":166.66650000000664,"noteNumber":61,"velocity":55,"programNumber":44},{"time":76888.81200000049,"duration":166.66650000000664,"noteNumber":62,"velocity":55,"programNumber":44},{"time":77111.0340000005,"duration":166.66650000000664,"noteNumber":62,"velocity":55,"programNumber":44},{"time":77333.2560000005,"duration":166.66650000000664,"noteNumber":64,"velocity":55,"programNumber":44},{"time":77555.47800000051,"duration":166.66650000000664,"noteNumber":64,"velocity":55,"programNumber":44},{"time":77777.70000000052,"duration":166.66650000000664,"noteNumber":61,"velocity":55,"programNumber":44},{"time":77999.92200000053,"duration":166.66650000000664,"noteNumber":61,"velocity":55,"programNumber":44},{"time":78222.14400000054,"duration":166.66650000000664,"noteNumber":62,"velocity":55,"programNumber":44},{"time":78444.36600000055,"duration":166.66650000000664,"noteNumber":62,"velocity":55,"programNumber":44},{"time":78666.58800000056,"duration":166.66650000000664,"noteNumber":64,"velocity":55,"programNumber":44},{"time":78888.81000000057,"duration":166.66650000000664,"noteNumber":64,"velocity":55,"programNumber":44},{"time":79111.03200000057,"duration":166.66650000000664,"noteNumber":66,"velocity":55,"programNumber":44},{"time":79333.25400000058,"duration":166.66650000000664,"noteNumber":66,"velocity":55,"programNumber":44},{"time":79555.47600000059,"duration":166.66650000000664,"noteNumber":62,"velocity":55,"programNumber":44},{"time":79777.6980000006,"duration":166.66650000000664,"noteNumber":62,"velocity":55,"programNumber":44},{"time":79999.92000000061,"duration":166.66650000000664,"noteNumber":61,"velocity":55,"programNumber":44},{"time":80222.14200000062,"duration":166.66650000000664,"noteNumber":61,"velocity":55,"programNumber":44},{"time":80444.36400000063,"duration":166.66650000000664,"noteNumber":62,"velocity":55,"programNumber":44},{"time":80666.58600000064,"duration":166.66650000000664,"noteNumber":62,"velocity":55,"programNumber":44},{"time":80888.80800000064,"duration":166.66650000000664,"noteNumber":64,"velocity":55,"programNumber":44},{"time":81111.03000000065,"duration":166.66650000000664,"noteNumber":64,"velocity":55,"programNumber":44},{"time":81333.25200000066,"duration":166.66650000000664,"noteNumber":61,"velocity":55,"programNumber":44},{"time":81555.47400000067,"duration":166.66650000000664,"noteNumber":61,"velocity":55,"programNumber":44},{"time":81777.69600000068,"duration":166.66650000000664,"noteNumber":62,"velocity":55,"programNumber":44},{"time":81999.91800000069,"duration":166.66650000000664,"noteNumber":62,"velocity":85,"programNumber":44},{"time":82222.1400000007,"duration":166.66650000000664,"noteNumber":66,"velocity":85,"programNumber":44},{"time":82444.3620000007,"duration":166.66650000000664,"noteNumber":64,"velocity":85,"programNumber":44},{"time":82666.58400000072,"duration":166.66650000000664,"noteNumber":63,"velocity":85,"programNumber":44},{"time":82888.80600000072,"duration":166.66650000000664,"noteNumber":59,"velocity":85,"programNumber":44},{"time":83111.02800000073,"duration":166.66650000000664,"noteNumber":61,"velocity":85,"programNumber":44},{"time":83333.25000000074,"duration":166.66650000000664,"noteNumber":62,"velocity":85,"programNumber":44},{"time":83555.47200000075,"duration":166.66650000000664,"noteNumber":64,"velocity":85,"programNumber":44},{"time":83777.69400000076,"duration":166.66650000000664,"noteNumber":67,"velocity":85,"programNumber":44},{"time":83999.91600000077,"duration":166.66650000000664,"noteNumber":64,"velocity":85,"programNumber":44},{"time":84222.13800000078,"duration":166.66650000000664,"noteNumber":62,"velocity":85,"programNumber":44},{"time":84444.36000000079,"duration":166.66650000000664,"noteNumber":61,"velocity":85,"programNumber":44},{"time":84666.5820000008,"duration":166.66650000000664,"noteNumber":57,"velocity":85,"programNumber":44},{"time":84888.8040000008,"duration":166.66650000000664,"noteNumber":59,"velocity":85,"programNumber":44},{"time":85111.02600000081,"duration":166.66650000000664,"noteNumber":61,"velocity":85,"programNumber":44},{"time":85333.24800000082,"duration":166.66650000000664,"noteNumber":62,"velocity":85,"programNumber":44},{"time":85555.47000000083,"duration":166.66650000000664,"noteNumber":74,"velocity":85,"programNumber":44},{"time":85777.69200000084,"duration":166.66650000000664,"noteNumber":74,"velocity":85,"programNumber":44},{"time":85999.91400000085,"duration":166.66650000000664,"noteNumber":74,"velocity":85,"programNumber":44},{"time":86222.13600000086,"duration":166.66650000000664,"noteNumber":74,"velocity":85,"programNumber":44},{"time":86444.35800000087,"duration":166.66650000000664,"noteNumber":74,"velocity":85,"programNumber":44},{"time":86666.58000000087,"duration":166.66650000000664,"noteNumber":74,"velocity":85,"programNumber":44},{"time":86888.80200000088,"duration":166.66650000000664,"noteNumber":74,"velocity":85,"programNumber":44},{"time":87111.02400000089,"duration":222.2219999999943,"noteNumber":74,"velocity":85,"programNumber":44},{"time":87333.24600000089,"duration":166.66650000000664,"noteNumber":69,"velocity":85,"programNumber":44},{"time":87555.4680000009,"duration":111.11100000000442,"noteNumber":69,"velocity":85,"programNumber":44},{"time":87777.6900000009,"duration":111.11100000000442,"noteNumber":69,"velocity":85,"programNumber":44},{"time":87999.91200000091,"duration":166.66650000000664,"noteNumber":69,"velocity":85,"programNumber":44},{"time":88222.13400000092,"duration":166.66650000000664,"noteNumber":69,"velocity":85,"programNumber":44},{"time":88444.35600000093,"duration":166.66650000000664,"noteNumber":69,"velocity":85,"programNumber":44},{"time":88666.57800000094,"duration":166.66650000000664,"noteNumber":67,"velocity":85,"programNumber":44},{"time":88888.80000000095,"duration":166.66650000000664,"noteNumber":66,"velocity":85,"programNumber":44},{"time":89111.02200000096,"duration":166.66650000000664,"noteNumber":57,"velocity":85,"programNumber":44},{"time":89333.24400000097,"duration":166.66650000000664,"noteNumber":59,"velocity":85,"programNumber":44},{"time":89555.46600000098,"duration":166.66650000000664,"noteNumber":61,"velocity":85,"programNumber":44},{"time":89777.68800000098,"duration":166.66650000000664,"noteNumber":62,"velocity":85,"programNumber":44},{"time":89999.910000001,"duration":166.66650000000664,"noteNumber":62,"velocity":85,"programNumber":44},{"time":90222.132000001,"duration":166.66650000000664,"noteNumber":64,"velocity":85,"programNumber":44},{"time":90444.35400000101,"duration":166.66650000000664,"noteNumber":64,"velocity":85,"programNumber":44},{"time":90666.57600000102,"duration":166.66650000000664,"noteNumber":66,"velocity":85,"programNumber":44},{"time":90888.79800000103,"duration":166.66650000000664,"noteNumber":61,"velocity":85,"programNumber":44},{"time":91111.02000000104,"duration":166.66650000000664,"noteNumber":62,"velocity":85,"programNumber":44},{"time":91333.24200000105,"duration":166.66650000000664,"noteNumber":64,"velocity":85,"programNumber":44},{"time":91555.46400000105,"duration":166.66650000000664,"noteNumber":66,"velocity":85,"programNumber":44},{"time":91777.68600000106,"duration":166.66650000000664,"noteNumber":66,"velocity":85,"programNumber":44},{"time":91999.90800000107,"duration":166.66650000000664,"noteNumber":67,"velocity":85,"programNumber":44},{"time":92222.13000000108,"duration":166.66650000000664,"noteNumber":67,"velocity":85,"programNumber":44},{"time":92444.35200000109,"duration":166.66650000000664,"noteNumber":69,"velocity":85,"programNumber":44},{"time":92666.5740000011,"duration":166.66650000000664,"noteNumber":69,"velocity":85,"programNumber":44},{"time":92888.79600000111,"duration":166.66650000000664,"noteNumber":70,"velocity":85,"programNumber":44},{"time":93111.01800000112,"duration":166.66650000000664,"noteNumber":70,"velocity":85,"programNumber":44},{"time":93333.24000000113,"duration":444.44400000000314,"noteNumber":71,"velocity":85,"programNumber":44},{"time":94222.12800000113,"duration":1333.3319999999949,"noteNumber":64,"velocity":55,"programNumber":44},{"time":95555.46000000113,"duration":222.2219999999943,"noteNumber":62,"velocity":55,"programNumber":44},{"time":95777.68200000112,"duration":222.2219999999943,"noteNumber":61,"velocity":55,"programNumber":44},{"time":95999.90400000112,"duration":222.2219999999943,"noteNumber":62,"velocity":55,"programNumber":44},{"time":96444.3480000011,"duration":222.2219999999943,"noteNumber":62,"velocity":55,"programNumber":44},{"time":96888.79200000109,"duration":222.2219999999943,"noteNumber":62,"velocity":55,"programNumber":44},{"time":97777.68000000108,"duration":444.44400000000314,"noteNumber":67,"velocity":85,"programNumber":44},{"time":98444.34600000108,"duration":111.11100000000442,"noteNumber":62,"velocity":85,"programNumber":44},{"time":98666.56800000109,"duration":444.44400000000314,"noteNumber":67,"velocity":85,"programNumber":44},{"time":99333.23400000109,"duration":111.11100000000442,"noteNumber":62,"velocity":85,"programNumber":44},{"time":99555.4560000011,"duration":111.11100000000442,"noteNumber":67,"velocity":85,"programNumber":44},{"time":99777.6780000011,"duration":111.11100000000442,"noteNumber":62,"velocity":85,"programNumber":44},{"time":99999.90000000111,"duration":111.11100000000442,"noteNumber":67,"velocity":85,"programNumber":44},{"time":100222.12200000112,"duration":111.11100000000442,"noteNumber":71,"velocity":85,"programNumber":44},{"time":100444.34400000113,"duration":444.44400000000314,"noteNumber":74,"velocity":85,"programNumber":44},{"time":101333.23200000114,"duration":444.44400000000314,"noteNumber":72,"velocity":85,"programNumber":44},{"time":101999.89800000114,"duration":111.11100000000442,"noteNumber":69,"velocity":85,"programNumber":44},{"time":102222.12000000114,"duration":444.44400000000314,"noteNumber":72,"velocity":85,"programNumber":44},{"time":102888.78600000114,"duration":111.11100000000442,"noteNumber":69,"velocity":85,"programNumber":44},{"time":103111.00800000115,"duration":111.11100000000442,"noteNumber":72,"velocity":85,"programNumber":44},{"time":103333.23000000116,"duration":111.11100000000442,"noteNumber":69,"velocity":85,"programNumber":44},{"time":103555.45200000117,"duration":111.11100000000442,"noteNumber":66,"velocity":85,"programNumber":44},{"time":103777.67400000118,"duration":111.11100000000442,"noteNumber":69,"velocity":85,"programNumber":44},{"time":103999.89600000119,"duration":444.44400000000314,"noteNumber":62,"velocity":85,"programNumber":44},{"time":104888.7840000012,"duration":166.66650000000664,"noteNumber":67,"velocity":85,"programNumber":44},{"time":105111.0060000012,"duration":166.66650000000664,"noteNumber":67,"velocity":85,"programNumber":44},{"time":105333.22800000121,"duration":166.66650000000664,"noteNumber":67,"velocity":85,"programNumber":44},{"time":105555.45000000122,"duration":166.66650000000664,"noteNumber":67,"velocity":85,"programNumber":44},{"time":105777.67200000123,"duration":166.66650000000664,"noteNumber":67,"velocity":85,"programNumber":44},{"time":105999.89400000124,"duration":166.66650000000664,"noteNumber":67,"velocity":85,"programNumber":44},{"time":106222.11600000125,"duration":166.66650000000664,"noteNumber":67,"velocity":85,"programNumber":44},{"time":106444.33800000125,"duration":166.66650000000664,"noteNumber":67,"velocity":85,"programNumber":44},{"time":106666.56000000126,"duration":166.66650000000664,"noteNumber":69,"velocity":85,"programNumber":44},{"time":106888.78200000127,"duration":166.66650000000664,"noteNumber":69,"velocity":85,"programNumber":44},{"time":107111.00400000128,"duration":166.66650000000664,"noteNumber":69,"velocity":85,"programNumber":44},{"time":107333.22600000129,"duration":166.66650000000664,"noteNumber":69,"velocity":85,"programNumber":44},{"time":107555.4480000013,"duration":222.2219999999943,"noteNumber":69,"velocity":85,"programNumber":44},{"time":107777.6700000013,"duration":166.66650000000664,"noteNumber":72,"velocity":85,"programNumber":44},{"time":107999.8920000013,"duration":222.2219999999943,"noteNumber":66,"velocity":85,"programNumber":44},{"time":108222.1140000013,"duration":166.66650000000664,"noteNumber":69,"velocity":85,"programNumber":44},{"time":108444.3360000013,"duration":166.66650000000664,"noteNumber":67,"velocity":85,"programNumber":44},{"time":108666.55800000131,"duration":166.66650000000664,"noteNumber":67,"velocity":85,"programNumber":44},{"time":108888.78000000132,"duration":166.66650000000664,"noteNumber":67,"velocity":85,"programNumber":44},{"time":109111.00200000133,"duration":166.66650000000664,"noteNumber":67,"velocity":85,"programNumber":44},{"time":109333.22400000134,"duration":166.66650000000664,"noteNumber":67,"velocity":85,"programNumber":44},{"time":109555.44600000135,"duration":166.66650000000664,"noteNumber":67,"velocity":85,"programNumber":44},{"time":109777.66800000136,"duration":166.66650000000664,"noteNumber":67,"velocity":85,"programNumber":44},{"time":109999.89000000137,"duration":166.66650000000664,"noteNumber":67,"velocity":85,"programNumber":44},{"time":110222.11200000138,"duration":166.66650000000664,"noteNumber":69,"velocity":85,"programNumber":44},{"time":110444.33400000138,"duration":166.66650000000664,"noteNumber":69,"velocity":85,"programNumber":44},{"time":110666.5560000014,"duration":166.66650000000664,"noteNumber":69,"velocity":85,"programNumber":44},{"time":110888.7780000014,"duration":166.66650000000664,"noteNumber":69,"velocity":85,"programNumber":44},{"time":111111.00000000141,"duration":222.2219999999943,"noteNumber":69,"velocity":85,"programNumber":44},{"time":111333.2220000014,"duration":166.66650000000664,"noteNumber":72,"velocity":85,"programNumber":44},{"time":111555.44400000141,"duration":222.2219999999943,"noteNumber":66,"velocity":85,"programNumber":44},{"time":111777.66600000141,"duration":166.66650000000664,"noteNumber":69,"velocity":85,"programNumber":44},{"time":111999.88800000142,"duration":74.07399999999325,"noteNumber":62,"velocity":85,"programNumber":44},{"time":112110.99900000141,"duration":74.07399999999325,"noteNumber":62,"velocity":85,"programNumber":44},{"time":112222.1100000014,"duration":74.07399999999325,"noteNumber":62,"velocity":85,"programNumber":44},{"time":112333.22100000139,"duration":74.07399999999325,"noteNumber":62,"velocity":85,"programNumber":44},{"time":112444.33200000138,"duration":74.07399999999325,"noteNumber":62,"velocity":85,"programNumber":44},{"time":112555.44300000137,"duration":74.07399999999325,"noteNumber":62,"velocity":85,"programNumber":44},{"time":112666.55400000136,"duration":74.07399999999325,"noteNumber":62,"velocity":85,"programNumber":44},{"time":112777.66500000135,"duration":74.07399999999325,"noteNumber":62,"velocity":85,"programNumber":44},{"time":112888.77600000134,"duration":74.07399999999325,"noteNumber":62,"velocity":85,"programNumber":44},{"time":112999.88700000133,"duration":74.07399999999325,"noteNumber":62,"velocity":85,"programNumber":44},{"time":113110.99800000132,"duration":74.07399999999325,"noteNumber":62,"velocity":85,"programNumber":44},{"time":113222.1090000013,"duration":74.07399999999325,"noteNumber":62,"velocity":85,"programNumber":44},{"time":113333.2200000013,"duration":74.07399999999325,"noteNumber":62,"velocity":85,"programNumber":44},{"time":113444.33100000129,"duration":74.07399999999325,"noteNumber":62,"velocity":85,"programNumber":44},{"time":113555.44200000128,"duration":74.07399999999325,"noteNumber":62,"velocity":85,"programNumber":44},{"time":113666.55300000127,"duration":74.07399999999325,"noteNumber":62,"velocity":85,"programNumber":44},{"time":113777.66400000126,"duration":74.07399999999325,"noteNumber":62,"velocity":85,"programNumber":44},{"time":113888.77500000125,"duration":74.07399999999325,"noteNumber":62,"velocity":85,"programNumber":44},{"time":113999.88600000124,"duration":74.07399999999325,"noteNumber":62,"velocity":85,"programNumber":44},{"time":114110.99700000123,"duration":74.07399999999325,"noteNumber":62,"velocity":85,"programNumber":44},{"time":114222.10800000122,"duration":74.07399999999325,"noteNumber":62,"velocity":85,"programNumber":44},{"time":114333.2190000012,"duration":74.07399999999325,"noteNumber":62,"velocity":85,"programNumber":44},{"time":114444.3300000012,"duration":74.07399999999325,"noteNumber":62,"velocity":85,"programNumber":44},{"time":114555.44100000118,"duration":74.07399999999325,"noteNumber":62,"velocity":85,"programNumber":44},{"time":114666.55200000117,"duration":444.44400000000314,"noteNumber":62,"velocity":85,"programNumber":44},{"time":117333.21600000118,"duration":888.8880000000063,"noteNumber":54,"velocity":47,"programNumber":44},{"time":118222.10400000119,"duration":888.8880000000063,"noteNumber":55,"velocity":47,"programNumber":44},{"time":119110.99200000119,"duration":333.3329999999987,"noteNumber":60,"velocity":47,"programNumber":44},{"time":119555.4360000012,"duration":333.3329999999987,"noteNumber":60,"velocity":47,"programNumber":44},{"time":119999.8800000012,"duration":333.3329999999987,"noteNumber":57,"velocity":47,"programNumber":44},{"time":120444.3240000012,"duration":333.3329999999987,"noteNumber":50,"velocity":47,"programNumber":44},{"time":120888.7680000012,"duration":222.2219999999943,"noteNumber":50,"velocity":47,"programNumber":44},{"time":121333.2120000012,"duration":222.2219999999943,"noteNumber":62,"velocity":47,"programNumber":44},{"time":121777.65600000118,"duration":444.44400000000314,"noteNumber":62,"velocity":47,"programNumber":44},{"time":124444.32000000119,"duration":888.8880000000063,"noteNumber":66,"velocity":47,"programNumber":44},{"time":125333.20800000119,"duration":888.8880000000063,"noteNumber":67,"velocity":47,"programNumber":44},{"time":126222.0960000012,"duration":333.3329999999987,"noteNumber":60,"velocity":47,"programNumber":44},{"time":126666.5400000012,"duration":166.66650000000664,"noteNumber":60,"velocity":47,"programNumber":44},{"time":126888.76200000121,"duration":166.66650000000664,"noteNumber":60,"velocity":47,"programNumber":44},{"time":127110.98400000122,"duration":333.3329999999987,"noteNumber":57,"velocity":47,"programNumber":44},{"time":127555.42800000122,"duration":166.66650000000664,"noteNumber":57,"velocity":47,"programNumber":44},{"time":127777.65000000123,"duration":166.66650000000664,"noteNumber":57,"velocity":47,"programNumber":44},{"time":127999.87200000124,"duration":166.66650000000664,"noteNumber":55,"velocity":92,"programNumber":44},{"time":128222.09400000125,"duration":166.66650000000664,"noteNumber":55,"velocity":71,"programNumber":44},{"time":128444.31600000126,"duration":166.66650000000664,"noteNumber":55,"velocity":71,"programNumber":44},{"time":128666.53800000127,"duration":166.66650000000664,"noteNumber":55,"velocity":71,"programNumber":44},{"time":128888.76000000128,"duration":166.66650000000664,"noteNumber":55,"velocity":55,"programNumber":44},{"time":129110.98200000128,"duration":166.66650000000664,"noteNumber":55,"velocity":50,"programNumber":44},{"time":129333.2040000013,"duration":166.66650000000664,"noteNumber":55,"velocity":50,"programNumber":44},{"time":129555.4260000013,"duration":166.66650000000664,"noteNumber":55,"velocity":50,"programNumber":44},{"time":129777.64800000131,"duration":166.66650000000664,"noteNumber":55,"velocity":91,"programNumber":44},{"time":129999.87000000132,"duration":166.66650000000664,"noteNumber":55,"velocity":65,"programNumber":44},{"time":130222.09200000133,"duration":166.66650000000664,"noteNumber":55,"velocity":65,"programNumber":44},{"time":130444.31400000134,"duration":166.66650000000664,"noteNumber":55,"velocity":65,"programNumber":44},{"time":130666.53600000135,"duration":166.66650000000664,"noteNumber":55,"velocity":46,"programNumber":44},{"time":130888.75800000135,"duration":166.66650000000664,"noteNumber":55,"velocity":46,"programNumber":44},{"time":131110.98000000135,"duration":166.66649999999208,"noteNumber":55,"velocity":46,"programNumber":44},{"time":131333.20200000133,"duration":166.66649999999208,"noteNumber":55,"velocity":46,"programNumber":44},{"time":131555.4240000013,"duration":166.66649999999208,"noteNumber":55,"velocity":59,"programNumber":44},{"time":131777.6460000013,"duration":166.66649999999208,"noteNumber":67,"velocity":41,"programNumber":44},{"time":131999.86800000127,"duration":166.66649999999208,"noteNumber":67,"velocity":46,"programNumber":44},{"time":132222.09000000125,"duration":166.66649999999208,"noteNumber":67,"velocity":49,"programNumber":44},{"time":132444.31200000123,"duration":166.66649999999208,"noteNumber":67,"velocity":53,"programNumber":44},{"time":132666.5340000012,"duration":166.66649999999208,"noteNumber":67,"velocity":56,"programNumber":44},{"time":132888.7560000012,"duration":166.66649999999208,"noteNumber":69,"velocity":61,"programNumber":44},{"time":133110.97800000117,"duration":166.66649999999208,"noteNumber":69,"velocity":64,"programNumber":44},{"time":133333.20000000115,"duration":166.66649999999208,"noteNumber":67,"velocity":68,"programNumber":44},{"time":133555.42200000113,"duration":166.66649999999208,"noteNumber":67,"velocity":71,"programNumber":44},{"time":133777.6440000011,"duration":166.66649999999208,"noteNumber":66,"velocity":76,"programNumber":44},{"time":133999.8660000011,"duration":166.66649999999208,"noteNumber":66,"velocity":79,"programNumber":44},{"time":134222.08800000107,"duration":166.66649999999208,"noteNumber":67,"velocity":82,"programNumber":44},{"time":134444.31000000105,"duration":166.66649999999208,"noteNumber":67,"velocity":82,"programNumber":44},{"time":134666.53200000103,"duration":166.66649999999208,"noteNumber":64,"velocity":82,"programNumber":44},{"time":134888.754000001,"duration":166.66649999999208,"noteNumber":64,"velocity":82,"programNumber":44},{"time":135110.97600000098,"duration":74.07399999999325,"noteNumber":62,"velocity":85,"programNumber":44},{"time":135110.97600000098,"duration":74.07399999999325,"noteNumber":69,"velocity":85,"programNumber":44},{"time":135222.087000001,"duration":74.07399999999325,"noteNumber":62,"velocity":85,"programNumber":44},{"time":135222.087000001,"duration":74.07399999999325,"noteNumber":69,"velocity":85,"programNumber":44},{"time":135333.198000001,"duration":74.07399999999325,"noteNumber":62,"velocity":85,"programNumber":44},{"time":135333.198000001,"duration":74.07399999999325,"noteNumber":69,"velocity":85,"programNumber":44},{"time":135444.309000001,"duration":74.07399999999325,"noteNumber":62,"velocity":85,"programNumber":44},{"time":135444.309000001,"duration":74.07399999999325,"noteNumber":69,"velocity":85,"programNumber":44},{"time":135555.420000001,"duration":74.07399999999325,"noteNumber":62,"velocity":85,"programNumber":44},{"time":135555.420000001,"duration":74.07399999999325,"noteNumber":69,"velocity":85,"programNumber":44},{"time":135666.531000001,"duration":74.07399999999325,"noteNumber":62,"velocity":85,"programNumber":44},{"time":135666.531000001,"duration":74.07399999999325,"noteNumber":69,"velocity":85,"programNumber":44},{"time":135777.642000001,"duration":74.07399999999325,"noteNumber":62,"velocity":85,"programNumber":44},{"time":135777.642000001,"duration":74.07399999999325,"noteNumber":69,"velocity":85,"programNumber":44},{"time":135888.75300000102,"duration":74.07399999999325,"noteNumber":62,"velocity":85,"programNumber":44},{"time":135888.75300000102,"duration":74.07399999999325,"noteNumber":69,"velocity":85,"programNumber":44},{"time":135999.86400000102,"duration":74.07399999999325,"noteNumber":64,"velocity":85,"programNumber":44},{"time":135999.86400000102,"duration":74.07399999999325,"noteNumber":69,"velocity":85,"programNumber":44},{"time":136110.97500000102,"duration":74.07399999999325,"noteNumber":64,"velocity":85,"programNumber":44},{"time":136110.97500000102,"duration":74.07399999999325,"noteNumber":69,"velocity":85,"programNumber":44},{"time":136222.08600000103,"duration":74.07399999999325,"noteNumber":64,"velocity":85,"programNumber":44},{"time":136222.08600000103,"duration":74.07399999999325,"noteNumber":69,"velocity":85,"programNumber":44},{"time":136333.19700000103,"duration":74.07399999999325,"noteNumber":64,"velocity":85,"programNumber":44},{"time":136333.19700000103,"duration":74.07399999999325,"noteNumber":69,"velocity":85,"programNumber":44},{"time":136444.30800000104,"duration":74.07399999999325,"noteNumber":64,"velocity":85,"programNumber":44},{"time":136444.30800000104,"duration":74.07399999999325,"noteNumber":69,"velocity":85,"programNumber":44},{"time":136555.41900000104,"duration":74.07399999999325,"noteNumber":64,"velocity":85,"programNumber":44},{"time":136555.41900000104,"duration":74.07399999999325,"noteNumber":69,"velocity":85,"programNumber":44},{"time":136666.53000000105,"duration":74.07399999999325,"noteNumber":64,"velocity":85,"programNumber":44},{"time":136666.53000000105,"duration":74.07399999999325,"noteNumber":69,"velocity":85,"programNumber":44},{"time":136777.64100000105,"duration":74.07399999999325,"noteNumber":64,"velocity":85,"programNumber":44},{"time":136777.64100000105,"duration":74.07399999999325,"noteNumber":69,"velocity":85,"programNumber":44},{"time":136888.75200000106,"duration":74.07399999999325,"noteNumber":62,"velocity":85,"programNumber":44},{"time":136888.75200000106,"duration":74.07399999999325,"noteNumber":69,"velocity":85,"programNumber":44},{"time":136999.86300000106,"duration":74.07399999999325,"noteNumber":62,"velocity":85,"programNumber":44},{"time":136999.86300000106,"duration":74.07399999999325,"noteNumber":69,"velocity":85,"programNumber":44},{"time":137110.97400000106,"duration":74.07399999999325,"noteNumber":62,"velocity":85,"programNumber":44},{"time":137110.97400000106,"duration":74.07399999999325,"noteNumber":69,"velocity":85,"programNumber":44},{"time":137222.08500000107,"duration":74.07399999999325,"noteNumber":62,"velocity":85,"programNumber":44},{"time":137222.08500000107,"duration":74.07399999999325,"noteNumber":69,"velocity":85,"programNumber":44},{"time":137333.19600000107,"duration":74.07399999999325,"noteNumber":62,"velocity":85,"programNumber":44},{"time":137333.19600000107,"duration":74.07399999999325,"noteNumber":69,"velocity":85,"programNumber":44},{"time":137444.30700000108,"duration":74.07399999999325,"noteNumber":62,"velocity":85,"programNumber":44},{"time":137444.30700000108,"duration":74.07399999999325,"noteNumber":69,"velocity":85,"programNumber":44},{"time":137555.41800000108,"duration":74.07399999999325,"noteNumber":62,"velocity":85,"programNumber":44},{"time":137555.41800000108,"duration":74.07399999999325,"noteNumber":69,"velocity":85,"programNumber":44},{"time":137666.5290000011,"duration":74.07399999999325,"noteNumber":62,"velocity":85,"programNumber":44},{"time":137666.5290000011,"duration":74.07399999999325,"noteNumber":69,"velocity":85,"programNumber":44},{"time":137777.6400000011,"duration":74.07399999999325,"noteNumber":64,"velocity":85,"programNumber":44},{"time":137777.6400000011,"duration":74.07399999999325,"noteNumber":69,"velocity":85,"programNumber":44},{"time":137888.7510000011,"duration":74.07399999999325,"noteNumber":64,"velocity":85,"programNumber":44},{"time":137888.7510000011,"duration":74.07399999999325,"noteNumber":69,"velocity":85,"programNumber":44},{"time":137999.8620000011,"duration":74.07399999999325,"noteNumber":64,"velocity":85,"programNumber":44},{"time":137999.8620000011,"duration":74.07399999999325,"noteNumber":69,"velocity":85,"programNumber":44},{"time":138110.9730000011,"duration":74.07399999999325,"noteNumber":64,"velocity":85,"programNumber":44},{"time":138110.9730000011,"duration":74.07399999999325,"noteNumber":69,"velocity":85,"programNumber":44},{"time":138222.0840000011,"duration":74.07399999999325,"noteNumber":64,"velocity":85,"programNumber":44},{"time":138222.0840000011,"duration":74.07399999999325,"noteNumber":69,"velocity":85,"programNumber":44},{"time":138333.1950000011,"duration":74.07399999999325,"noteNumber":64,"velocity":85,"programNumber":44},{"time":138333.1950000011,"duration":74.07399999999325,"noteNumber":69,"velocity":85,"programNumber":44},{"time":138444.30600000112,"duration":74.07399999999325,"noteNumber":64,"velocity":85,"programNumber":44},{"time":138444.30600000112,"duration":74.07399999999325,"noteNumber":69,"velocity":85,"programNumber":44},{"time":138555.41700000112,"duration":74.07399999999325,"noteNumber":64,"velocity":85,"programNumber":44},{"time":138555.41700000112,"duration":74.07399999999325,"noteNumber":69,"velocity":85,"programNumber":44},{"time":138666.52800000113,"duration":166.66649999999208,"noteNumber":62,"velocity":85,"programNumber":44},{"time":138888.7500000011,"duration":166.66649999999208,"noteNumber":64,"velocity":85,"programNumber":44},{"time":139110.9720000011,"duration":166.66649999999208,"noteNumber":66,"velocity":85,"programNumber":44},{"time":139333.19400000107,"duration":166.66649999999208,"noteNumber":64,"velocity":85,"programNumber":44},{"time":139555.41600000105,"duration":166.66649999999208,"noteNumber":62,"velocity":85,"programNumber":44},{"time":139777.63800000102,"duration":166.66649999999208,"noteNumber":64,"velocity":85,"programNumber":44},{"time":139999.860000001,"duration":166.66649999999208,"noteNumber":66,"velocity":85,"programNumber":44},{"time":140222.08200000098,"duration":166.66649999999208,"noteNumber":62,"velocity":85,"programNumber":44},{"time":140444.30400000096,"duration":166.66649999999208,"noteNumber":71,"velocity":85,"programNumber":44},{"time":140666.52600000094,"duration":166.66649999999208,"noteNumber":69,"velocity":85,"programNumber":44},{"time":140888.74800000092,"duration":166.66649999999208,"noteNumber":67,"velocity":85,"programNumber":44},{"time":141110.9700000009,"duration":166.66649999999208,"noteNumber":69,"velocity":85,"programNumber":44},{"time":141333.19200000088,"duration":166.66649999999208,"noteNumber":71,"velocity":85,"programNumber":44},{"time":141555.41400000086,"duration":166.66649999999208,"noteNumber":69,"velocity":85,"programNumber":44},{"time":141777.63600000084,"duration":166.66649999999208,"noteNumber":68,"velocity":85,"programNumber":44},{"time":141999.85800000082,"duration":166.66649999999208,"noteNumber":71,"velocity":85,"programNumber":44},{"time":142222.0800000008,"duration":166.66649999999208,"noteNumber":69,"velocity":85,"programNumber":44},{"time":142444.30200000078,"duration":166.66649999999208,"noteNumber":69,"velocity":85,"programNumber":44},{"time":142666.52400000076,"duration":166.66649999999208,"noteNumber":69,"velocity":85,"programNumber":44},{"time":142888.74600000074,"duration":166.66649999999208,"noteNumber":69,"velocity":85,"programNumber":44},{"time":143110.96800000072,"duration":166.66649999999208,"noteNumber":69,"velocity":85,"programNumber":44},{"time":143333.1900000007,"duration":166.66649999999208,"noteNumber":69,"velocity":85,"programNumber":44},{"time":143555.41200000068,"duration":166.66649999999208,"noteNumber":69,"velocity":85,"programNumber":44},{"time":143777.63400000066,"duration":166.66649999999208,"noteNumber":69,"velocity":85,"programNumber":44},{"time":143999.85600000064,"duration":166.66649999999208,"noteNumber":69,"velocity":85,"programNumber":44},{"time":144222.07800000062,"duration":166.66649999999208,"noteNumber":57,"velocity":85,"programNumber":44},{"time":144444.3000000006,"duration":166.66649999999208,"noteNumber":57,"velocity":85,"programNumber":44},{"time":144666.52200000058,"duration":166.66649999999208,"noteNumber":57,"velocity":85,"programNumber":44},{"time":144888.74400000056,"duration":444.4439999999886,"noteNumber":57,"velocity":85,"programNumber":44},{"time":147110.96400000056,"duration":222.22200000000885,"noteNumber":66,"velocity":55,"programNumber":44},{"time":147555.40800000058,"duration":222.22200000000885,"noteNumber":59,"velocity":55,"programNumber":44},{"time":147999.8520000006,"duration":222.22200000000885,"noteNumber":67,"velocity":55,"programNumber":44},{"time":148444.2960000006,"duration":222.22200000000885,"noteNumber":64,"velocity":55,"programNumber":44},{"time":148888.74000000063,"duration":222.22200000000885,"noteNumber":61,"velocity":55,"programNumber":44},{"time":149777.62800000064,"duration":444.4439999999886,"noteNumber":64,"velocity":55,"programNumber":44},{"time":150222.07200000063,"duration":222.22200000000885,"noteNumber":62,"velocity":55,"programNumber":44},{"time":150666.51600000064,"duration":222.22200000000885,"noteNumber":64,"velocity":55,"programNumber":44},{"time":151110.96000000066,"duration":888.8880000000063,"noteNumber":62,"velocity":55,"programNumber":44},{"time":151999.84800000067,"duration":444.4439999999886,"noteNumber":61,"velocity":55,"programNumber":44},{"time":153333.18000000066,"duration":444.4439999999886,"noteNumber":61,"velocity":55,"programNumber":44},{"time":153777.62400000065,"duration":222.22200000000885,"noteNumber":62,"velocity":55,"programNumber":44},{"time":154222.06800000067,"duration":222.22200000000885,"noteNumber":66,"velocity":55,"programNumber":44},{"time":154666.5120000007,"duration":222.22200000000885,"noteNumber":59,"velocity":55,"programNumber":44},{"time":155110.9560000007,"duration":222.22200000000885,"noteNumber":55,"velocity":55,"programNumber":44},{"time":155555.40000000072,"duration":444.4439999999886,"noteNumber":52,"velocity":55,"programNumber":44},{"time":156222.06600000072,"duration":166.66649999999208,"noteNumber":64,"velocity":55,"programNumber":44},{"time":156444.2880000007,"duration":222.22200000000885,"noteNumber":64,"velocity":55,"programNumber":44},{"time":156666.5100000007,"duration":222.22200000000885,"noteNumber":62,"velocity":55,"programNumber":44},{"time":158222.0640000007,"duration":166.66649999999208,"noteNumber":62,"velocity":55,"programNumber":44},{"time":158444.2860000007,"duration":166.66649999999208,"noteNumber":62,"velocity":55,"programNumber":44},{"time":158666.50800000067,"duration":166.66649999999208,"noteNumber":64,"velocity":55,"programNumber":44},{"time":158888.73000000065,"duration":166.66649999999208,"noteNumber":64,"velocity":55,"programNumber":44},{"time":159110.95200000063,"duration":166.66649999999208,"noteNumber":66,"velocity":55,"programNumber":44},{"time":159333.1740000006,"duration":166.66649999999208,"noteNumber":66,"velocity":55,"programNumber":44},{"time":159555.3960000006,"duration":166.66649999999208,"noteNumber":62,"velocity":55,"programNumber":44},{"time":159777.61800000057,"duration":166.66649999999208,"noteNumber":62,"velocity":55,"programNumber":44},{"time":159999.84000000055,"duration":166.66649999999208,"noteNumber":61,"velocity":55,"programNumber":44},{"time":160222.06200000053,"duration":166.66649999999208,"noteNumber":61,"velocity":55,"programNumber":44},{"time":160444.2840000005,"duration":166.66649999999208,"noteNumber":62,"velocity":55,"programNumber":44},{"time":160666.5060000005,"duration":166.66649999999208,"noteNumber":62,"velocity":55,"programNumber":44},{"time":160888.72800000047,"duration":166.66649999999208,"noteNumber":64,"velocity":55,"programNumber":44},{"time":161110.95000000045,"duration":166.66649999999208,"noteNumber":64,"velocity":55,"programNumber":44},{"time":161333.17200000043,"duration":166.66649999999208,"noteNumber":61,"velocity":55,"programNumber":44},{"time":161555.3940000004,"duration":166.66649999999208,"noteNumber":61,"velocity":55,"programNumber":44},{"time":161777.6160000004,"duration":166.66649999999208,"noteNumber":62,"velocity":55,"programNumber":44},{"time":161999.83800000037,"duration":166.66649999999208,"noteNumber":62,"velocity":55,"programNumber":44},{"time":162222.06000000035,"duration":166.66649999999208,"noteNumber":64,"velocity":55,"programNumber":44},{"time":162444.28200000033,"duration":166.66649999999208,"noteNumber":64,"velocity":55,"programNumber":44},{"time":162666.5040000003,"duration":166.66649999999208,"noteNumber":66,"velocity":55,"programNumber":44},{"time":162888.7260000003,"duration":166.66649999999208,"noteNumber":66,"velocity":55,"programNumber":44},{"time":163110.94800000027,"duration":166.66649999999208,"noteNumber":62,"velocity":55,"programNumber":44},{"time":163333.17000000025,"duration":166.66649999999208,"noteNumber":62,"velocity":55,"programNumber":44},{"time":163555.39200000023,"duration":166.66649999999208,"noteNumber":61,"velocity":55,"programNumber":44},{"time":163777.6140000002,"duration":166.66649999999208,"noteNumber":61,"velocity":55,"programNumber":44},{"time":163999.83600000018,"duration":166.66649999999208,"noteNumber":62,"velocity":55,"programNumber":44},{"time":164222.05800000016,"duration":166.66649999999208,"noteNumber":62,"velocity":55,"programNumber":44},{"time":164444.28000000014,"duration":166.66649999999208,"noteNumber":64,"velocity":55,"programNumber":44},{"time":164666.50200000012,"duration":166.66649999999208,"noteNumber":64,"velocity":55,"programNumber":44},{"time":164888.7240000001,"duration":166.66649999999208,"noteNumber":61,"velocity":55,"programNumber":44},{"time":165110.94600000008,"duration":166.66649999999208,"noteNumber":61,"velocity":55,"programNumber":44},{"time":165333.16800000006,"duration":166.66649999999208,"noteNumber":62,"velocity":55,"programNumber":44},{"time":165555.39000000004,"duration":166.66649999999208,"noteNumber":62,"velocity":55,"programNumber":44},{"time":165777.61200000002,"duration":166.66649999999208,"noteNumber":66,"velocity":55,"programNumber":44},{"time":165999.834,"duration":166.66649999999208,"noteNumber":64,"velocity":55,"programNumber":44},{"time":166222.05599999998,"duration":166.66649999999208,"noteNumber":63,"velocity":55,"programNumber":44},{"time":166444.27799999996,"duration":166.66649999999208,"noteNumber":59,"velocity":55,"programNumber":44},{"time":166666.49999999994,"duration":166.66649999999208,"noteNumber":61,"velocity":55,"programNumber":44},{"time":166888.72199999992,"duration":166.66649999999208,"noteNumber":62,"velocity":55,"programNumber":44},{"time":167110.9439999999,"duration":166.66649999999208,"noteNumber":64,"velocity":85,"programNumber":44},{"time":167333.16599999988,"duration":166.66649999999208,"noteNumber":67,"velocity":85,"programNumber":44},{"time":167555.38799999986,"duration":166.66649999999208,"noteNumber":64,"velocity":85,"programNumber":44},{"time":167777.60999999984,"duration":166.66649999999208,"noteNumber":62,"velocity":85,"programNumber":44},{"time":167999.83199999982,"duration":166.66649999999208,"noteNumber":61,"velocity":85,"programNumber":44},{"time":168222.0539999998,"duration":166.66649999999208,"noteNumber":57,"velocity":55,"programNumber":44},{"time":168444.27599999978,"duration":166.66649999999208,"noteNumber":59,"velocity":85,"programNumber":44},{"time":168666.49799999976,"duration":166.66649999999208,"noteNumber":61,"velocity":85,"programNumber":44},{"time":168888.71999999974,"duration":166.66649999999208,"noteNumber":62,"velocity":85,"programNumber":44},{"time":169110.94199999972,"duration":166.66649999999208,"noteNumber":74,"velocity":85,"programNumber":44},{"time":169333.1639999997,"duration":166.66649999999208,"noteNumber":74,"velocity":85,"programNumber":44},{"time":169555.38599999968,"duration":166.66649999999208,"noteNumber":74,"velocity":85,"programNumber":44},{"time":169777.60799999966,"duration":166.66649999999208,"noteNumber":74,"velocity":85,"programNumber":44},{"time":169999.82999999964,"duration":166.66649999999208,"noteNumber":74,"velocity":85,"programNumber":44},{"time":170222.05199999962,"duration":166.66649999999208,"noteNumber":74,"velocity":85,"programNumber":44},{"time":170444.2739999996,"duration":166.66649999999208,"noteNumber":74,"velocity":85,"programNumber":44},{"time":170666.49599999958,"duration":222.22200000000885,"noteNumber":74,"velocity":85,"programNumber":44},{"time":170888.7179999996,"duration":166.66649999999208,"noteNumber":69,"velocity":85,"programNumber":44},{"time":171110.93999999957,"duration":111.11100000000442,"noteNumber":69,"velocity":85,"programNumber":44},{"time":171333.16199999957,"duration":111.11100000000442,"noteNumber":69,"velocity":85,"programNumber":44},{"time":171555.38399999958,"duration":166.66649999999208,"noteNumber":69,"velocity":85,"programNumber":44},{"time":171777.60599999956,"duration":166.66649999999208,"noteNumber":69,"velocity":85,"programNumber":44},{"time":171999.82799999954,"duration":166.66649999999208,"noteNumber":69,"velocity":85,"programNumber":44},{"time":172222.04999999952,"duration":166.66649999999208,"noteNumber":67,"velocity":85,"programNumber":44},{"time":172444.2719999995,"duration":166.66649999999208,"noteNumber":62,"velocity":85,"programNumber":44},{"time":172666.49399999948,"duration":166.66649999999208,"noteNumber":62,"velocity":53,"programNumber":44},{"time":172888.71599999946,"duration":166.66649999999208,"noteNumber":64,"velocity":53,"programNumber":44},{"time":173110.93799999944,"duration":166.66649999999208,"noteNumber":64,"velocity":53,"programNumber":44},{"time":173333.15999999942,"duration":166.66649999999208,"noteNumber":66,"velocity":53,"programNumber":44},{"time":173555.3819999994,"duration":166.66649999999208,"noteNumber":66,"velocity":53,"programNumber":44},{"time":173777.60399999938,"duration":166.66649999999208,"noteNumber":62,"velocity":53,"programNumber":44},{"time":173999.82599999936,"duration":166.66649999999208,"noteNumber":62,"velocity":53,"programNumber":44},{"time":174222.04799999934,"duration":166.66649999999208,"noteNumber":61,"velocity":55,"programNumber":44},{"time":174444.26999999932,"duration":166.66649999999208,"noteNumber":61,"velocity":55,"programNumber":44},{"time":174666.4919999993,"duration":166.66649999999208,"noteNumber":62,"velocity":55,"programNumber":44},{"time":174888.71399999928,"duration":166.66649999999208,"noteNumber":62,"velocity":55,"programNumber":44},{"time":175110.93599999926,"duration":166.66649999999208,"noteNumber":64,"velocity":55,"programNumber":44},{"time":175333.15799999924,"duration":166.66649999999208,"noteNumber":64,"velocity":55,"programNumber":44},{"time":175555.37999999922,"duration":166.66649999999208,"noteNumber":61,"velocity":55,"programNumber":44},{"time":175777.6019999992,"duration":166.66649999999208,"noteNumber":61,"velocity":55,"programNumber":44},{"time":175999.82399999918,"duration":166.66649999999208,"noteNumber":62,"velocity":55,"programNumber":44},{"time":176222.04599999916,"duration":166.66649999999208,"noteNumber":62,"velocity":55,"programNumber":44},{"time":176444.26799999914,"duration":166.66649999999208,"noteNumber":64,"velocity":55,"programNumber":44},{"time":176666.48999999912,"duration":166.66649999999208,"noteNumber":64,"velocity":55,"programNumber":44},{"time":176888.7119999991,"duration":166.66649999999208,"noteNumber":66,"velocity":55,"programNumber":44},{"time":177110.93399999908,"duration":166.66649999999208,"noteNumber":66,"velocity":55,"programNumber":44},{"time":177333.15599999906,"duration":166.66649999999208,"noteNumber":62,"velocity":55,"programNumber":44},{"time":177555.37799999904,"duration":166.66649999999208,"noteNumber":62,"velocity":55,"programNumber":44},{"time":177777.59999999902,"duration":166.66649999999208,"noteNumber":61,"velocity":55,"programNumber":44},{"time":177999.821999999,"duration":166.66649999999208,"noteNumber":61,"velocity":55,"programNumber":44},{"time":178222.04399999898,"duration":166.66649999999208,"noteNumber":62,"velocity":55,"programNumber":44},{"time":178444.26599999896,"duration":166.66649999999208,"noteNumber":62,"velocity":55,"programNumber":44},{"time":178666.48799999894,"duration":166.66649999999208,"noteNumber":64,"velocity":55,"programNumber":44},{"time":178888.70999999892,"duration":166.66649999999208,"noteNumber":64,"velocity":55,"programNumber":44},{"time":179110.9319999989,"duration":166.66649999999208,"noteNumber":61,"velocity":55,"programNumber":44},{"time":179333.15399999887,"duration":166.66649999999208,"noteNumber":61,"velocity":55,"programNumber":44},{"time":179555.37599999885,"duration":166.66649999999208,"noteNumber":62,"velocity":55,"programNumber":44},{"time":179777.59799999883,"duration":166.66649999999208,"noteNumber":62,"velocity":85,"programNumber":44},{"time":179999.8199999988,"duration":166.66649999999208,"noteNumber":66,"velocity":85,"programNumber":44},{"time":180222.0419999988,"duration":166.66649999999208,"noteNumber":64,"velocity":85,"programNumber":44},{"time":180444.26399999877,"duration":166.66649999999208,"noteNumber":63,"velocity":85,"programNumber":44},{"time":180666.48599999875,"duration":166.66649999999208,"noteNumber":59,"velocity":85,"programNumber":44},{"time":180888.70799999873,"duration":166.66649999999208,"noteNumber":61,"velocity":85,"programNumber":44},{"time":181110.9299999987,"duration":166.66649999999208,"noteNumber":62,"velocity":85,"programNumber":44},{"time":181333.1519999987,"duration":166.66649999999208,"noteNumber":64,"velocity":85,"programNumber":44},{"time":181555.37399999867,"duration":166.66649999999208,"noteNumber":67,"velocity":85,"programNumber":44},{"time":181777.59599999865,"duration":166.66649999999208,"noteNumber":64,"velocity":85,"programNumber":44},{"time":181999.81799999863,"duration":166.66649999999208,"noteNumber":62,"velocity":85,"programNumber":44},{"time":182222.0399999986,"duration":166.66649999999208,"noteNumber":61,"velocity":85,"programNumber":44},{"time":182444.2619999986,"duration":166.66649999999208,"noteNumber":57,"velocity":85,"programNumber":44},{"time":182666.48399999857,"duration":166.66649999999208,"noteNumber":59,"velocity":85,"programNumber":44},{"time":182888.70599999855,"duration":166.66649999999208,"noteNumber":61,"velocity":85,"programNumber":44},{"time":183110.92799999853,"duration":166.66649999999208,"noteNumber":62,"velocity":85,"programNumber":44},{"time":183333.1499999985,"duration":166.66649999999208,"noteNumber":74,"velocity":85,"programNumber":44},{"time":183555.3719999985,"duration":166.66649999999208,"noteNumber":74,"velocity":85,"programNumber":44},{"time":183777.59399999847,"duration":166.66649999999208,"noteNumber":74,"velocity":85,"programNumber":44},{"time":183999.81599999845,"duration":166.66649999999208,"noteNumber":74,"velocity":85,"programNumber":44},{"time":184222.03799999843,"duration":166.66649999999208,"noteNumber":74,"velocity":85,"programNumber":44},{"time":184444.2599999984,"duration":166.66649999999208,"noteNumber":74,"velocity":85,"programNumber":44},{"time":184666.4819999984,"duration":166.66649999999208,"noteNumber":74,"velocity":85,"programNumber":44},{"time":184888.70399999837,"duration":222.22200000000885,"noteNumber":74,"velocity":85,"programNumber":44},{"time":185110.92599999838,"duration":166.66649999999208,"noteNumber":69,"velocity":85,"programNumber":44},{"time":185333.14799999836,"duration":111.11100000000442,"noteNumber":69,"velocity":85,"programNumber":44},{"time":185555.36999999837,"duration":111.11100000000442,"noteNumber":69,"velocity":85,"programNumber":44},{"time":185777.59199999837,"duration":166.66649999999208,"noteNumber":69,"velocity":85,"programNumber":44},{"time":185999.81399999835,"duration":166.66649999999208,"noteNumber":69,"velocity":85,"programNumber":44},{"time":186222.03599999833,"duration":166.66649999999208,"noteNumber":69,"velocity":85,"programNumber":44},{"time":186444.2579999983,"duration":166.66649999999208,"noteNumber":67,"velocity":85,"programNumber":44},{"time":186666.4799999983,"duration":166.66649999999208,"noteNumber":66,"velocity":85,"programNumber":44},{"time":186888.70199999827,"duration":166.66649999999208,"noteNumber":57,"velocity":85,"programNumber":44},{"time":187110.92399999825,"duration":166.66649999999208,"noteNumber":59,"velocity":85,"programNumber":44},{"time":187333.14599999823,"duration":166.66649999999208,"noteNumber":61,"velocity":85,"programNumber":44},{"time":187555.3679999982,"duration":166.66649999999208,"noteNumber":62,"velocity":85,"programNumber":44},{"time":187777.5899999982,"duration":166.66649999999208,"noteNumber":62,"velocity":85,"programNumber":44},{"time":187999.81199999817,"duration":166.66649999999208,"noteNumber":64,"velocity":85,"programNumber":44},{"time":188222.03399999815,"duration":166.66649999999208,"noteNumber":64,"velocity":85,"programNumber":44},{"time":188444.25599999813,"duration":166.66649999999208,"noteNumber":66,"velocity":85,"programNumber":44},{"time":188666.4779999981,"duration":166.66649999999208,"noteNumber":61,"velocity":85,"programNumber":44},{"time":188888.6999999981,"duration":166.66649999999208,"noteNumber":62,"velocity":85,"programNumber":44},{"time":189110.92199999807,"duration":166.66649999999208,"noteNumber":64,"velocity":85,"programNumber":44},{"time":189333.14399999805,"duration":166.66649999999208,"noteNumber":66,"velocity":85,"programNumber":44},{"time":189555.36599999803,"duration":166.66649999999208,"noteNumber":66,"velocity":85,"programNumber":44},{"time":189777.587999998,"duration":166.66649999999208,"noteNumber":67,"velocity":85,"programNumber":44},{"time":189999.809999998,"duration":166.66649999999208,"noteNumber":67,"velocity":85,"programNumber":44},{"time":190222.03199999797,"duration":166.66649999999208,"noteNumber":69,"velocity":85,"programNumber":44},{"time":190444.25399999795,"duration":166.66649999999208,"noteNumber":69,"velocity":85,"programNumber":44},{"time":190666.47599999793,"duration":166.66649999999208,"noteNumber":70,"velocity":85,"programNumber":44},{"time":190888.6979999979,"duration":166.66649999999208,"noteNumber":70,"velocity":85,"programNumber":44},{"time":191110.9199999979,"duration":444.4439999999886,"noteNumber":71,"velocity":85,"programNumber":44},{"time":191999.80799999787,"duration":1333.3319999999949,"noteNumber":64,"velocity":55,"programNumber":44},{"time":193333.13999999786,"duration":222.22200000000885,"noteNumber":62,"velocity":55,"programNumber":44},{"time":193555.36199999787,"duration":222.22200000000885,"noteNumber":61,"velocity":55,"programNumber":44},{"time":193777.58399999788,"duration":222.22200000000885,"noteNumber":62,"velocity":55,"programNumber":44},{"time":194222.0279999979,"duration":222.22200000000885,"noteNumber":62,"velocity":55,"programNumber":44},{"time":194666.4719999979,"duration":222.22200000000885,"noteNumber":62,"velocity":55,"programNumber":44},{"time":195555.35999999792,"duration":444.4439999999886,"noteNumber":62,"velocity":89,"programNumber":44},{"time":196222.02599999792,"duration":166.66649999999208,"noteNumber":57,"velocity":89,"programNumber":44},{"time":196444.2479999979,"duration":444.4439999999886,"noteNumber":62,"velocity":89,"programNumber":44},{"time":197110.9139999979,"duration":166.66649999999208,"noteNumber":57,"velocity":89,"programNumber":44},{"time":197333.13599999787,"duration":166.66649999999208,"noteNumber":62,"velocity":89,"programNumber":44},{"time":197555.35799999785,"duration":166.66649999999208,"noteNumber":57,"velocity":89,"programNumber":44},{"time":197777.57999999783,"duration":166.66649999999208,"noteNumber":62,"velocity":89,"programNumber":44},{"time":197999.8019999978,"duration":166.66649999999208,"noteNumber":66,"velocity":89,"programNumber":44},{"time":198222.0239999978,"duration":444.4439999999886,"noteNumber":69,"velocity":89,"programNumber":44},{"time":199110.91199999777,"duration":444.4439999999886,"noteNumber":69,"velocity":89,"programNumber":44},{"time":199777.57799999777,"duration":166.66649999999208,"noteNumber":66,"velocity":89,"programNumber":44},{"time":199999.79999999775,"duration":444.4439999999886,"noteNumber":69,"velocity":89,"programNumber":44},{"time":200666.46599999774,"duration":166.66649999999208,"noteNumber":66,"velocity":89,"programNumber":44},{"time":200888.68799999772,"duration":166.66649999999208,"noteNumber":69,"velocity":89,"programNumber":44},{"time":201110.9099999977,"duration":166.66649999999208,"noteNumber":66,"velocity":89,"programNumber":44},{"time":201333.13199999768,"duration":166.66649999999208,"noteNumber":63,"velocity":89,"programNumber":44},{"time":201555.35399999766,"duration":166.66649999999208,"noteNumber":66,"velocity":89,"programNumber":44},{"time":201777.57599999764,"duration":444.4439999999886,"noteNumber":59,"velocity":89,"programNumber":44},{"time":202666.46399999762,"duration":166.66649999999208,"noteNumber":60,"velocity":55,"programNumber":44},{"time":202888.6859999976,"duration":166.66649999999208,"noteNumber":60,"velocity":55,"programNumber":44},{"time":203110.90799999758,"duration":166.66649999999208,"noteNumber":62,"velocity":55,"programNumber":44},{"time":203333.12999999756,"duration":166.66649999999208,"noteNumber":62,"velocity":55,"programNumber":44},{"time":203555.35199999754,"duration":166.66649999999208,"noteNumber":64,"velocity":55,"programNumber":44},{"time":203777.57399999752,"duration":166.66649999999208,"noteNumber":64,"velocity":55,"programNumber":44},{"time":203999.7959999975,"duration":166.66649999999208,"noteNumber":60,"velocity":55,"programNumber":44},{"time":204222.01799999748,"duration":166.66649999999208,"noteNumber":60,"velocity":55,"programNumber":44},{"time":204444.23999999746,"duration":166.66649999999208,"noteNumber":59,"velocity":55,"programNumber":44},{"time":204666.46199999744,"duration":166.66649999999208,"noteNumber":59,"velocity":55,"programNumber":44},{"time":204888.68399999742,"duration":166.66649999999208,"noteNumber":60,"velocity":55,"programNumber":44},{"time":205110.9059999974,"duration":166.66649999999208,"noteNumber":60,"velocity":55,"programNumber":44},{"time":205333.12799999738,"duration":166.66649999999208,"noteNumber":62,"velocity":55,"programNumber":44},{"time":205555.34999999736,"duration":166.66649999999208,"noteNumber":62,"velocity":55,"programNumber":44},{"time":205777.57199999734,"duration":166.66649999999208,"noteNumber":59,"velocity":55,"programNumber":44},{"time":205999.79399999732,"duration":166.66649999999208,"noteNumber":59,"velocity":55,"programNumber":44},{"time":206222.0159999973,"duration":166.66649999999208,"noteNumber":60,"velocity":55,"programNumber":44},{"time":206444.23799999728,"duration":166.66649999999208,"noteNumber":60,"velocity":55,"programNumber":44},{"time":206666.45999999726,"duration":166.66649999999208,"noteNumber":62,"velocity":55,"programNumber":44},{"time":206888.68199999724,"duration":166.66649999999208,"noteNumber":62,"velocity":55,"programNumber":44},{"time":207110.90399999722,"duration":166.66649999999208,"noteNumber":64,"velocity":55,"programNumber":44},{"time":207333.1259999972,"duration":166.66649999999208,"noteNumber":64,"velocity":55,"programNumber":44},{"time":207555.34799999718,"duration":166.66649999999208,"noteNumber":60,"velocity":55,"programNumber":44},{"time":207777.56999999715,"duration":166.66649999999208,"noteNumber":60,"velocity":55,"programNumber":44},{"time":207999.79199999713,"duration":166.66649999999208,"noteNumber":59,"velocity":55,"programNumber":44},{"time":208222.0139999971,"duration":166.66649999999208,"noteNumber":59,"velocity":55,"programNumber":44},{"time":208444.2359999971,"duration":166.66649999999208,"noteNumber":60,"velocity":55,"programNumber":44},{"time":208666.45799999707,"duration":166.66649999999208,"noteNumber":60,"velocity":55,"programNumber":44},{"time":208888.67999999705,"duration":166.66649999999208,"noteNumber":62,"velocity":55,"programNumber":44},{"time":209110.90199999703,"duration":166.66649999999208,"noteNumber":62,"velocity":55,"programNumber":44},{"time":209333.123999997,"duration":166.66649999999208,"noteNumber":59,"velocity":55,"programNumber":44},{"time":209555.345999997,"duration":166.66649999999208,"noteNumber":59,"velocity":55,"programNumber":44},{"time":209777.56799999697,"duration":166.66649999999208,"noteNumber":60,"velocity":55,"programNumber":44},{"time":209999.78999999695,"duration":166.66649999999208,"noteNumber":60,"velocity":55,"programNumber":44},{"time":210222.01199999693,"duration":166.66649999999208,"noteNumber":62,"velocity":55,"programNumber":44},{"time":210444.2339999969,"duration":166.66649999999208,"noteNumber":62,"velocity":55,"programNumber":44},{"time":210666.4559999969,"duration":166.66649999999208,"noteNumber":64,"velocity":55,"programNumber":44},{"time":210888.67799999687,"duration":166.66649999999208,"noteNumber":64,"velocity":55,"programNumber":44},{"time":211110.89999999685,"duration":166.66649999999208,"noteNumber":60,"velocity":55,"programNumber":44},{"time":211333.12199999683,"duration":166.66649999999208,"noteNumber":60,"velocity":55,"programNumber":44},{"time":211555.3439999968,"duration":166.66649999999208,"noteNumber":59,"velocity":55,"programNumber":44},{"time":211777.5659999968,"duration":166.66649999999208,"noteNumber":59,"velocity":55,"programNumber":44},{"time":211999.78799999677,"duration":166.66649999999208,"noteNumber":60,"velocity":55,"programNumber":44},{"time":212222.00999999675,"duration":166.66649999999208,"noteNumber":60,"velocity":55,"programNumber":44},{"time":212444.23199999673,"duration":166.66649999999208,"noteNumber":62,"velocity":55,"programNumber":44},{"time":212666.4539999967,"duration":166.66649999999208,"noteNumber":62,"velocity":55,"programNumber":44},{"time":212888.6759999967,"duration":166.66649999999208,"noteNumber":59,"velocity":55,"programNumber":44},{"time":213110.89799999667,"duration":166.66649999999208,"noteNumber":59,"velocity":55,"programNumber":44},{"time":213333.11999999665,"duration":166.66649999999208,"noteNumber":57,"velocity":55,"programNumber":44},{"time":213555.34199999663,"duration":166.66649999999208,"noteNumber":57,"velocity":55,"programNumber":44},{"time":213777.5639999966,"duration":166.66649999999208,"noteNumber":59,"velocity":55,"programNumber":44},{"time":213999.7859999966,"duration":166.66649999999208,"noteNumber":59,"velocity":55,"programNumber":44},{"time":214222.00799999657,"duration":166.66649999999208,"noteNumber":60,"velocity":55,"programNumber":44},{"time":214444.22999999655,"duration":166.66649999999208,"noteNumber":60,"velocity":55,"programNumber":44},{"time":214666.45199999653,"duration":166.66649999999208,"noteNumber":57,"velocity":55,"programNumber":44},{"time":214888.6739999965,"duration":166.66649999999208,"noteNumber":57,"velocity":55,"programNumber":44},{"time":215110.8959999965,"duration":166.66649999999208,"noteNumber":57,"velocity":55,"programNumber":44},{"time":215333.11799999647,"duration":166.66649999999208,"noteNumber":57,"velocity":55,"programNumber":44},{"time":215555.33999999645,"duration":166.66649999999208,"noteNumber":58,"velocity":55,"programNumber":44},{"time":215777.56199999643,"duration":166.66649999999208,"noteNumber":58,"velocity":55,"programNumber":44},{"time":215999.7839999964,"duration":166.66649999999208,"noteNumber":60,"velocity":55,"programNumber":44},{"time":216222.00599999639,"duration":166.66649999999208,"noteNumber":60,"velocity":55,"programNumber":44},{"time":216444.22799999636,"duration":166.66649999999208,"noteNumber":57,"velocity":55,"programNumber":44},{"time":216666.44999999634,"duration":166.66649999999208,"noteNumber":57,"velocity":55,"programNumber":44},{"time":216888.67199999632,"duration":166.66649999999208,"noteNumber":55,"velocity":55,"programNumber":44},{"time":217110.8939999963,"duration":166.66649999999208,"noteNumber":55,"velocity":55,"programNumber":44},{"time":217333.11599999628,"duration":166.66649999999208,"noteNumber":54,"velocity":55,"programNumber":44},{"time":217555.33799999626,"duration":166.66649999999208,"noteNumber":54,"velocity":55,"programNumber":44},{"time":217777.55999999624,"duration":166.66649999999208,"noteNumber":55,"velocity":55,"programNumber":44},{"time":217999.78199999622,"duration":166.66649999999208,"noteNumber":55,"velocity":55,"programNumber":44},{"time":218222.0039999962,"duration":166.66649999999208,"noteNumber":66,"velocity":55,"programNumber":44},{"time":218444.22599999618,"duration":166.66649999999208,"noteNumber":66,"velocity":55,"programNumber":44},{"time":218666.44799999616,"duration":166.66649999999208,"noteNumber":67,"velocity":55,"programNumber":44},{"time":218888.66999999614,"duration":166.66649999999208,"noteNumber":67,"velocity":55,"programNumber":44},{"time":219110.89199999612,"duration":166.66649999999208,"noteNumber":66,"velocity":55,"programNumber":44},{"time":219333.1139999961,"duration":166.66649999999208,"noteNumber":66,"velocity":55,"programNumber":44},{"time":219555.33599999608,"duration":166.66649999999208,"noteNumber":67,"velocity":55,"programNumber":44},{"time":219777.55799999606,"duration":166.66649999999208,"noteNumber":55,"velocity":55,"programNumber":44},{"time":219999.77999999604,"duration":166.66649999999208,"noteNumber":53,"velocity":55,"programNumber":44},{"time":220222.00199999602,"duration":166.66649999999208,"noteNumber":55,"velocity":55,"programNumber":44},{"time":220481.260999996,"duration":444.4439999999886,"noteNumber":57,"velocity":53,"programNumber":44},{"time":221147.926999996,"duration":222.22200000000885,"noteNumber":50,"velocity":91,"programNumber":44},{"time":221370.14899999602,"duration":222.22200000000885,"noteNumber":52,"velocity":91,"programNumber":44},{"time":221592.37099999603,"duration":222.22200000000885,"noteNumber":54,"velocity":91,"programNumber":44},{"time":221814.59299999604,"duration":222.22200000000885,"noteNumber":55,"velocity":91,"programNumber":44},{"time":222036.81499999604,"duration":222.22200000000885,"noteNumber":57,"velocity":91,"programNumber":44},{"time":222259.03699999605,"duration":222.22200000000885,"noteNumber":60,"velocity":91,"programNumber":44},{"time":222481.25899999606,"duration":222.22200000000885,"noteNumber":58,"velocity":91,"programNumber":44},{"time":222925.70299999608,"duration":222.22200000000885,"noteNumber":54,"velocity":91,"programNumber":44},{"time":223147.9249999961,"duration":222.22200000000885,"noteNumber":55,"velocity":91,"programNumber":44},{"time":223370.1469999961,"duration":222.22200000000885,"noteNumber":57,"velocity":91,"programNumber":44},{"time":223592.3689999961,"duration":222.22200000000885,"noteNumber":58,"velocity":91,"programNumber":44},{"time":223814.59099999611,"duration":222.22200000000885,"noteNumber":61,"velocity":91,"programNumber":44},{"time":224036.81299999612,"duration":222.22200000000885,"noteNumber":64,"velocity":53,"programNumber":44},{"time":224259.03499999613,"duration":222.22200000000885,"noteNumber":62,"velocity":53,"programNumber":44},{"time":227555.32799999614,"duration":111.11100000000442,"noteNumber":71,"velocity":68,"programNumber":44},{"time":227777.54999999615,"duration":111.11100000000442,"noteNumber":71,"velocity":68,"programNumber":44},{"time":227999.77199999616,"duration":222.22200000000885,"noteNumber":71,"velocity":68,"programNumber":44},{"time":228221.99399999616,"duration":166.66649999999208,"noteNumber":72,"velocity":68,"programNumber":44},{"time":228444.21599999614,"duration":111.11100000000442,"noteNumber":69,"velocity":68,"programNumber":44},{"time":228666.43799999615,"duration":111.11100000000442,"noteNumber":69,"velocity":68,"programNumber":44},{"time":228888.65999999616,"duration":222.22200000000885,"noteNumber":69,"velocity":68,"programNumber":44},{"time":229110.88199999617,"duration":166.66649999999208,"noteNumber":71,"velocity":68,"programNumber":44},{"time":229333.10399999615,"duration":111.11100000000442,"noteNumber":67,"velocity":68,"programNumber":44},{"time":229555.32599999616,"duration":111.11100000000442,"noteNumber":67,"velocity":68,"programNumber":44},{"time":229777.54799999617,"duration":222.22200000000885,"noteNumber":67,"velocity":68,"programNumber":44},{"time":229999.76999999618,"duration":166.66649999999208,"noteNumber":71,"velocity":68,"programNumber":44},{"time":230221.99199999616,"duration":222.22200000000885,"noteNumber":71,"velocity":68,"programNumber":44},{"time":230444.21399999617,"duration":166.66649999999208,"noteNumber":69,"velocity":68,"programNumber":44},{"time":230666.43599999615,"duration":111.11100000000442,"noteNumber":67,"velocity":68,"programNumber":44},{"time":230888.65799999615,"duration":111.11100000000442,"noteNumber":62,"velocity":68,"programNumber":44},{"time":231129.39849999617,"duration":444.4439999999886,"noteNumber":59,"velocity":93,"programNumber":44},{"time":231796.06449999617,"duration":111.11100000000442,"noteNumber":62,"velocity":92,"programNumber":44},{"time":232018.28649999617,"duration":444.4439999999886,"noteNumber":67,"velocity":92,"programNumber":44},{"time":232684.95249999617,"duration":111.11100000000442,"noteNumber":62,"velocity":91,"programNumber":44},{"time":232907.17449999618,"duration":111.11100000000442,"noteNumber":67,"velocity":90,"programNumber":44},{"time":233129.3964999962,"duration":111.11100000000442,"noteNumber":62,"velocity":90,"programNumber":44},{"time":233351.6184999962,"duration":111.11100000000442,"noteNumber":67,"velocity":90,"programNumber":44},{"time":233573.8404999962,"duration":111.11100000000442,"noteNumber":71,"velocity":90,"programNumber":44},{"time":233796.06249999622,"duration":444.4439999999886,"noteNumber":74,"velocity":89,"programNumber":44},{"time":234684.9504999962,"duration":444.4439999999886,"noteNumber":72,"velocity":88,"programNumber":44},{"time":235351.6164999962,"duration":111.11100000000442,"noteNumber":69,"velocity":87,"programNumber":44},{"time":235573.8384999962,"duration":444.4439999999886,"noteNumber":72,"velocity":86,"programNumber":44},{"time":236240.5044999962,"duration":111.11100000000442,"noteNumber":69,"velocity":85,"programNumber":44},{"time":236462.7264999962,"duration":111.11100000000442,"noteNumber":72,"velocity":85,"programNumber":44},{"time":236684.94849999622,"duration":111.11100000000442,"noteNumber":69,"velocity":85,"programNumber":44},{"time":236907.17049999622,"duration":111.11100000000442,"noteNumber":66,"velocity":85,"programNumber":44},{"time":237129.39249999623,"duration":111.11100000000442,"noteNumber":69,"velocity":85,"programNumber":44},{"time":237351.61449999624,"duration":444.4439999999886,"noteNumber":62,"velocity":85,"programNumber":44},{"time":238221.98399999624,"duration":166.66649999999208,"noteNumber":67,"velocity":85,"programNumber":44},{"time":238444.20599999622,"duration":166.66649999999208,"noteNumber":67,"velocity":85,"programNumber":44},{"time":238666.4279999962,"duration":166.66649999999208,"noteNumber":67,"velocity":85,"programNumber":44},{"time":238888.64999999618,"duration":166.66649999999208,"noteNumber":67,"velocity":85,"programNumber":44},{"time":239110.87199999616,"duration":166.66649999999208,"noteNumber":67,"velocity":85,"programNumber":44},{"time":239333.09399999614,"duration":166.66649999999208,"noteNumber":67,"velocity":85,"programNumber":44},{"time":239555.31599999612,"duration":166.66649999999208,"noteNumber":67,"velocity":85,"programNumber":44},{"time":239777.5379999961,"duration":166.66649999999208,"noteNumber":67,"velocity":85,"programNumber":44},{"time":239999.75999999608,"duration":166.66649999999208,"noteNumber":69,"velocity":85,"programNumber":44},{"time":240221.98199999606,"duration":166.66649999999208,"noteNumber":69,"velocity":85,"programNumber":44},{"time":240444.20399999604,"duration":166.66649999999208,"noteNumber":69,"velocity":85,"programNumber":44},{"time":240666.42599999602,"duration":166.66649999999208,"noteNumber":69,"velocity":85,"programNumber":44},{"time":240888.647999996,"duration":222.22200000000885,"noteNumber":69,"velocity":85,"programNumber":44},{"time":241110.869999996,"duration":166.66649999999208,"noteNumber":72,"velocity":85,"programNumber":44},{"time":241333.091999996,"duration":222.22200000000885,"noteNumber":66,"velocity":85,"programNumber":44},{"time":241555.313999996,"duration":166.66649999999208,"noteNumber":69,"velocity":85,"programNumber":44},{"time":241777.53599999598,"duration":166.66649999999208,"noteNumber":67,"velocity":85,"programNumber":44},{"time":241999.75799999596,"duration":166.66649999999208,"noteNumber":67,"velocity":85,"programNumber":44},{"time":242221.97999999594,"duration":166.66649999999208,"noteNumber":67,"velocity":85,"programNumber":44},{"time":242444.20199999592,"duration":166.66649999999208,"noteNumber":67,"velocity":85,"programNumber":44},{"time":242666.4239999959,"duration":166.66649999999208,"noteNumber":67,"velocity":85,"programNumber":44},{"time":242888.64599999588,"duration":166.66649999999208,"noteNumber":67,"velocity":85,"programNumber":44},{"time":243110.86799999585,"duration":166.66649999999208,"noteNumber":67,"velocity":85,"programNumber":44},{"time":243333.08999999583,"duration":166.66649999999208,"noteNumber":67,"velocity":85,"programNumber":44},{"time":243555.3119999958,"duration":166.66649999999208,"noteNumber":69,"velocity":85,"programNumber":44},{"time":243777.5339999958,"duration":166.66649999999208,"noteNumber":69,"velocity":85,"programNumber":44},{"time":243999.75599999577,"duration":166.66649999999208,"noteNumber":69,"velocity":85,"programNumber":44},{"time":244221.97799999575,"duration":166.66649999999208,"noteNumber":69,"velocity":85,"programNumber":44},{"time":244444.19999999573,"duration":222.22200000000885,"noteNumber":69,"velocity":85,"programNumber":44},{"time":244666.42199999574,"duration":166.66649999999208,"noteNumber":72,"velocity":85,"programNumber":44},{"time":244888.64399999572,"duration":222.22200000000885,"noteNumber":66,"velocity":85,"programNumber":44},{"time":245110.86599999573,"duration":166.66649999999208,"noteNumber":69,"velocity":85,"programNumber":44},{"time":245333.0879999957,"duration":74.07399999999325,"noteNumber":62,"velocity":85,"programNumber":44},{"time":245444.19899999571,"duration":74.07399999999325,"noteNumber":62,"velocity":85,"programNumber":44},{"time":245555.30999999572,"duration":74.07399999999325,"noteNumber":62,"velocity":85,"programNumber":44},{"time":245666.42099999572,"duration":74.07399999999325,"noteNumber":62,"velocity":85,"programNumber":44},{"time":245777.53199999573,"duration":74.07399999999325,"noteNumber":62,"velocity":85,"programNumber":44},{"time":245888.64299999573,"duration":74.07399999999325,"noteNumber":62,"velocity":85,"programNumber":44},{"time":245999.75399999574,"duration":74.07399999999325,"noteNumber":62,"velocity":85,"programNumber":44},{"time":246110.86499999574,"duration":74.07399999999325,"noteNumber":62,"velocity":85,"programNumber":44},{"time":246221.97599999575,"duration":74.07399999999325,"noteNumber":62,"velocity":85,"programNumber":44},{"time":246333.08699999575,"duration":74.07399999999325,"noteNumber":62,"velocity":85,"programNumber":44},{"time":246444.19799999575,"duration":74.07399999999325,"noteNumber":62,"velocity":85,"programNumber":44},{"time":246555.30899999576,"duration":74.07399999999325,"noteNumber":62,"velocity":85,"programNumber":44},{"time":246666.41999999576,"duration":74.07399999999325,"noteNumber":62,"velocity":85,"programNumber":44},{"time":246777.53099999577,"duration":74.07399999999325,"noteNumber":62,"velocity":85,"programNumber":44},{"time":246888.64199999577,"duration":74.07399999999325,"noteNumber":62,"velocity":85,"programNumber":44},{"time":246999.75299999578,"duration":74.07399999999325,"noteNumber":62,"velocity":85,"programNumber":44},{"time":247110.86399999578,"duration":74.07399999999325,"noteNumber":62,"velocity":85,"programNumber":44},{"time":247221.9749999958,"duration":74.07399999999325,"noteNumber":62,"velocity":85,"programNumber":44},{"time":247333.0859999958,"duration":74.07399999999325,"noteNumber":62,"velocity":85,"programNumber":44},{"time":247444.1969999958,"duration":74.07399999999325,"noteNumber":62,"velocity":85,"programNumber":44},{"time":247555.3079999958,"duration":74.07399999999325,"noteNumber":62,"velocity":85,"programNumber":44},{"time":247666.4189999958,"duration":74.07399999999325,"noteNumber":62,"velocity":85,"programNumber":44},{"time":247777.5299999958,"duration":74.07399999999325,"noteNumber":62,"velocity":85,"programNumber":44},{"time":247888.6409999958,"duration":74.07399999999325,"noteNumber":62,"velocity":85,"programNumber":44},{"time":247999.75199999582,"duration":444.4439999999886,"noteNumber":62,"velocity":85,"programNumber":44},{"time":250666.4159999958,"duration":888.8880000000063,"noteNumber":54,"velocity":47,"programNumber":44},{"time":251555.3039999958,"duration":888.8880000000063,"noteNumber":55,"velocity":47,"programNumber":44},{"time":252444.19199999582,"duration":333.33300000001327,"noteNumber":60,"velocity":47,"programNumber":44},{"time":252888.63599999584,"duration":333.33300000001327,"noteNumber":60,"velocity":47,"programNumber":44},{"time":253333.07999999585,"duration":333.33300000001327,"noteNumber":57,"velocity":47,"programNumber":44},{"time":253777.52399999587,"duration":333.33300000001327,"noteNumber":50,"velocity":47,"programNumber":44},{"time":254221.9679999959,"duration":222.22200000000885,"noteNumber":50,"velocity":47,"programNumber":44},{"time":254666.4119999959,"duration":222.22200000000885,"noteNumber":62,"velocity":47,"programNumber":44},{"time":255110.85599999593,"duration":444.4439999999886,"noteNumber":62,"velocity":47,"programNumber":44},{"time":257777.51999999591,"duration":888.8880000000063,"noteNumber":66,"velocity":47,"programNumber":44},{"time":258666.40799999592,"duration":888.8880000000063,"noteNumber":67,"velocity":47,"programNumber":44},{"time":259555.29599999593,"duration":333.33300000001327,"noteNumber":60,"velocity":47,"programNumber":44},{"time":259999.73999999595,"duration":166.66649999999208,"noteNumber":60,"velocity":47,"programNumber":44},{"time":260221.96199999592,"duration":166.66649999999208,"noteNumber":60,"velocity":47,"programNumber":44},{"time":260444.1839999959,"duration":333.33300000001327,"noteNumber":57,"velocity":47,"programNumber":44},{"time":260888.62799999592,"duration":166.66649999999208,"noteNumber":57,"velocity":47,"programNumber":44},{"time":261110.8499999959,"duration":166.66649999999208,"noteNumber":57,"velocity":47,"programNumber":44},{"time":261333.07199999588,"duration":166.66649999999208,"noteNumber":55,"velocity":92,"programNumber":44},{"time":261555.29399999586,"duration":166.66649999999208,"noteNumber":55,"velocity":71,"programNumber":44},{"time":261777.51599999584,"duration":166.66649999999208,"noteNumber":55,"velocity":71,"programNumber":44},{"time":261999.73799999582,"duration":166.66649999999208,"noteNumber":55,"velocity":71,"programNumber":44},{"time":262221.95999999583,"duration":166.66649999999208,"noteNumber":55,"velocity":55,"programNumber":44},{"time":262444.18199999584,"duration":166.66649999999208,"noteNumber":55,"velocity":50,"programNumber":44},{"time":262666.40399999585,"duration":166.66649999999208,"noteNumber":55,"velocity":50,"programNumber":44},{"time":262888.62599999586,"duration":166.66649999999208,"noteNumber":55,"velocity":50,"programNumber":44},{"time":263110.84799999587,"duration":166.66649999999208,"noteNumber":55,"velocity":91,"programNumber":44},{"time":263333.0699999959,"duration":166.66649999999208,"noteNumber":55,"velocity":65,"programNumber":44},{"time":263555.2919999959,"duration":166.66649999999208,"noteNumber":55,"velocity":65,"programNumber":44},{"time":263777.5139999959,"duration":166.66649999999208,"noteNumber":55,"velocity":65,"programNumber":44},{"time":263999.7359999959,"duration":166.66649999999208,"noteNumber":55,"velocity":46,"programNumber":44},{"time":264221.9579999959,"duration":166.66649999999208,"noteNumber":55,"velocity":46,"programNumber":44},{"time":264444.1799999959,"duration":166.66649999999208,"noteNumber":55,"velocity":46,"programNumber":44},{"time":264666.4019999959,"duration":166.66649999999208,"noteNumber":55,"velocity":46,"programNumber":44},{"time":264888.62399999594,"duration":166.66649999999208,"noteNumber":55,"velocity":59,"programNumber":44},{"time":265110.84599999595,"duration":166.66649999999208,"noteNumber":67,"velocity":41,"programNumber":44},{"time":265333.06799999595,"duration":166.66649999999208,"noteNumber":67,"velocity":46,"programNumber":44},{"time":265555.28999999596,"duration":166.66649999999208,"noteNumber":67,"velocity":49,"programNumber":44},{"time":265777.511999996,"duration":166.66649999999208,"noteNumber":67,"velocity":53,"programNumber":44},{"time":265999.733999996,"duration":166.66649999999208,"noteNumber":67,"velocity":56,"programNumber":44},{"time":266221.955999996,"duration":166.66649999999208,"noteNumber":69,"velocity":61,"programNumber":44},{"time":266444.177999996,"duration":166.66649999999208,"noteNumber":69,"velocity":64,"programNumber":44},{"time":266666.399999996,"duration":166.66649999999208,"noteNumber":67,"velocity":68,"programNumber":44},{"time":266888.621999996,"duration":166.66649999999208,"noteNumber":67,"velocity":71,"programNumber":44},{"time":267110.843999996,"duration":166.66649999999208,"noteNumber":66,"velocity":76,"programNumber":44},{"time":267333.06599999603,"duration":166.66649999999208,"noteNumber":66,"velocity":79,"programNumber":44},{"time":267555.28799999604,"duration":166.66649999999208,"noteNumber":67,"velocity":82,"programNumber":44},{"time":267777.50999999605,"duration":166.66649999999208,"noteNumber":67,"velocity":82,"programNumber":44},{"time":267999.73199999606,"duration":166.66649999999208,"noteNumber":64,"velocity":82,"programNumber":44},{"time":268221.95399999607,"duration":166.66649999999208,"noteNumber":64,"velocity":82,"programNumber":44},{"time":268444.1759999961,"duration":74.07400000002235,"noteNumber":62,"velocity":85,"programNumber":44},{"time":268444.1759999961,"duration":74.07400000002235,"noteNumber":69,"velocity":85,"programNumber":44},{"time":268555.2869999961,"duration":74.07400000002235,"noteNumber":62,"velocity":85,"programNumber":44},{"time":268555.2869999961,"duration":74.07400000002235,"noteNumber":69,"velocity":85,"programNumber":44},{"time":268666.39799999614,"duration":74.07400000002235,"noteNumber":62,"velocity":85,"programNumber":44},{"time":268666.39799999614,"duration":74.07400000002235,"noteNumber":69,"velocity":85,"programNumber":44},{"time":268777.5089999962,"duration":74.07400000002235,"noteNumber":62,"velocity":85,"programNumber":44},{"time":268777.5089999962,"duration":74.07400000002235,"noteNumber":69,"velocity":85,"programNumber":44},{"time":268888.6199999962,"duration":74.07400000002235,"noteNumber":62,"velocity":85,"programNumber":44},{"time":268888.6199999962,"duration":74.07400000002235,"noteNumber":69,"velocity":85,"programNumber":44},{"time":268999.73099999625,"duration":74.07400000002235,"noteNumber":62,"velocity":85,"programNumber":44},{"time":268999.73099999625,"duration":74.07400000002235,"noteNumber":69,"velocity":85,"programNumber":44},{"time":269110.8419999963,"duration":74.07400000002235,"noteNumber":62,"velocity":85,"programNumber":44},{"time":269110.8419999963,"duration":74.07400000002235,"noteNumber":69,"velocity":85,"programNumber":44},{"time":269221.9529999963,"duration":74.07400000002235,"noteNumber":62,"velocity":85,"programNumber":44},{"time":269221.9529999963,"duration":74.07400000002235,"noteNumber":69,"velocity":85,"programNumber":44},{"time":269333.06399999635,"duration":74.07400000002235,"noteNumber":64,"velocity":85,"programNumber":44},{"time":269333.06399999635,"duration":74.07400000002235,"noteNumber":69,"velocity":85,"programNumber":44},{"time":269444.1749999964,"duration":74.07400000002235,"noteNumber":64,"velocity":85,"programNumber":44},{"time":269444.1749999964,"duration":74.07400000002235,"noteNumber":69,"velocity":85,"programNumber":44},{"time":269555.2859999964,"duration":74.07400000002235,"noteNumber":64,"velocity":85,"programNumber":44},{"time":269555.2859999964,"duration":74.07400000002235,"noteNumber":69,"velocity":85,"programNumber":44},{"time":269666.39699999645,"duration":74.07400000002235,"noteNumber":64,"velocity":85,"programNumber":44},{"time":269666.39699999645,"duration":74.07400000002235,"noteNumber":69,"velocity":85,"programNumber":44},{"time":269777.5079999965,"duration":74.07400000002235,"noteNumber":64,"velocity":85,"programNumber":44},{"time":269777.5079999965,"duration":74.07400000002235,"noteNumber":69,"velocity":85,"programNumber":44},{"time":269888.6189999965,"duration":74.07400000002235,"noteNumber":64,"velocity":85,"programNumber":44},{"time":269888.6189999965,"duration":74.07400000002235,"noteNumber":69,"velocity":85,"programNumber":44},{"time":269999.72999999655,"duration":74.07400000002235,"noteNumber":64,"velocity":85,"programNumber":44},{"time":269999.72999999655,"duration":74.07400000002235,"noteNumber":69,"velocity":85,"programNumber":44},{"time":270110.8409999966,"duration":74.07400000002235,"noteNumber":64,"velocity":85,"programNumber":44},{"time":270110.8409999966,"duration":74.07400000002235,"noteNumber":69,"velocity":85,"programNumber":44},{"time":270221.9519999966,"duration":74.07400000002235,"noteNumber":62,"velocity":85,"programNumber":44},{"time":270221.9519999966,"duration":74.07400000002235,"noteNumber":69,"velocity":85,"programNumber":44},{"time":270333.06299999665,"duration":74.07400000002235,"noteNumber":62,"velocity":85,"programNumber":44},{"time":270333.06299999665,"duration":74.07400000002235,"noteNumber":69,"velocity":85,"programNumber":44},{"time":270444.1739999967,"duration":74.07400000002235,"noteNumber":62,"velocity":85,"programNumber":44},{"time":270444.1739999967,"duration":74.07400000002235,"noteNumber":69,"velocity":85,"programNumber":44},{"time":270555.2849999967,"duration":74.07400000002235,"noteNumber":62,"velocity":85,"programNumber":44},{"time":270555.2849999967,"duration":74.07400000002235,"noteNumber":69,"velocity":85,"programNumber":44},{"time":270666.39599999675,"duration":74.07400000002235,"noteNumber":62,"velocity":85,"programNumber":44},{"time":270666.39599999675,"duration":74.07400000002235,"noteNumber":69,"velocity":85,"programNumber":44},{"time":270777.5069999968,"duration":74.07400000002235,"noteNumber":62,"velocity":85,"programNumber":44},{"time":270777.5069999968,"duration":74.07400000002235,"noteNumber":69,"velocity":85,"programNumber":44},{"time":270888.6179999968,"duration":74.07400000002235,"noteNumber":62,"velocity":85,"programNumber":44},{"time":270888.6179999968,"duration":74.07400000002235,"noteNumber":69,"velocity":85,"programNumber":44},{"time":270999.72899999685,"duration":74.07400000002235,"noteNumber":62,"velocity":85,"programNumber":44},{"time":270999.72899999685,"duration":74.07400000002235,"noteNumber":69,"velocity":85,"programNumber":44},{"time":271110.8399999969,"duration":74.07400000002235,"noteNumber":64,"velocity":85,"programNumber":44},{"time":271110.8399999969,"duration":74.07400000002235,"noteNumber":69,"velocity":85,"programNumber":44},{"time":271221.9509999969,"duration":74.07400000002235,"noteNumber":64,"velocity":85,"programNumber":44},{"time":271221.9509999969,"duration":74.07400000002235,"noteNumber":69,"velocity":85,"programNumber":44},{"time":271333.06199999695,"duration":74.07400000002235,"noteNumber":64,"velocity":85,"programNumber":44},{"time":271333.06199999695,"duration":74.07400000002235,"noteNumber":69,"velocity":85,"programNumber":44},{"time":271444.172999997,"duration":74.07400000002235,"noteNumber":64,"velocity":85,"programNumber":44},{"time":271444.172999997,"duration":74.07400000002235,"noteNumber":69,"velocity":85,"programNumber":44},{"time":271555.283999997,"duration":74.07400000002235,"noteNumber":64,"velocity":85,"programNumber":44},{"time":271555.283999997,"duration":74.07400000002235,"noteNumber":69,"velocity":85,"programNumber":44},{"time":271666.39499999705,"duration":74.07400000002235,"noteNumber":64,"velocity":85,"programNumber":44},{"time":271666.39499999705,"duration":74.07400000002235,"noteNumber":69,"velocity":85,"programNumber":44},{"time":271777.5059999971,"duration":74.07400000002235,"noteNumber":64,"velocity":85,"programNumber":44},{"time":271777.5059999971,"duration":74.07400000002235,"noteNumber":69,"velocity":85,"programNumber":44},{"time":271888.6169999971,"duration":74.07400000002235,"noteNumber":64,"velocity":85,"programNumber":44},{"time":271888.6169999971,"duration":74.07400000002235,"noteNumber":69,"velocity":85,"programNumber":44},{"time":271999.72799999715,"duration":74.07400000002235,"noteNumber":62,"velocity":85,"programNumber":44},{"time":271999.72799999715,"duration":74.07400000002235,"noteNumber":69,"velocity":85,"programNumber":44},{"time":272110.8389999972,"duration":74.07400000002235,"noteNumber":62,"velocity":85,"programNumber":44},{"time":272110.8389999972,"duration":74.07400000002235,"noteNumber":69,"velocity":85,"programNumber":44},{"time":272221.9499999972,"duration":74.07400000002235,"noteNumber":62,"velocity":85,"programNumber":44},{"time":272221.9499999972,"duration":74.07400000002235,"noteNumber":69,"velocity":85,"programNumber":44},{"time":272333.06099999725,"duration":74.07400000002235,"noteNumber":62,"velocity":85,"programNumber":44},{"time":272333.06099999725,"duration":74.07400000002235,"noteNumber":69,"velocity":85,"programNumber":44},{"time":272444.1719999973,"duration":74.07400000002235,"noteNumber":69,"velocity":85,"programNumber":44},{"time":272444.1719999973,"duration":74.07400000002235,"noteNumber":64,"velocity":85,"programNumber":44},{"time":272555.2829999973,"duration":74.07400000002235,"noteNumber":69,"velocity":85,"programNumber":44},{"time":272555.2829999973,"duration":74.07400000002235,"noteNumber":64,"velocity":85,"programNumber":44},{"time":272666.39399999735,"duration":74.07400000002235,"noteNumber":69,"velocity":85,"programNumber":44},{"time":272666.39399999735,"duration":74.07400000002235,"noteNumber":64,"velocity":85,"programNumber":44},{"time":272777.5049999974,"duration":74.07400000002235,"noteNumber":69,"velocity":85,"programNumber":44},{"time":272777.5049999974,"duration":74.07400000002235,"noteNumber":64,"velocity":85,"programNumber":44},{"time":272888.6159999974,"duration":74.07400000002235,"noteNumber":69,"velocity":85,"programNumber":44},{"time":272888.6159999974,"duration":74.07400000002235,"noteNumber":62,"velocity":85,"programNumber":44},{"time":272999.72699999745,"duration":74.07400000002235,"noteNumber":69,"velocity":85,"programNumber":44},{"time":272999.72699999745,"duration":74.07400000002235,"noteNumber":62,"velocity":85,"programNumber":44},{"time":273110.8379999975,"duration":74.07400000002235,"noteNumber":69,"velocity":85,"programNumber":44},{"time":273110.8379999975,"duration":74.07400000002235,"noteNumber":62,"velocity":85,"programNumber":44},{"time":273221.9489999975,"duration":74.07400000002235,"noteNumber":69,"velocity":85,"programNumber":44},{"time":273221.9489999975,"duration":74.07400000002235,"noteNumber":62,"velocity":85,"programNumber":44},{"time":273333.05999999755,"duration":74.07400000002235,"noteNumber":64,"velocity":85,"programNumber":44},{"time":273333.05999999755,"duration":74.07400000002235,"noteNumber":69,"velocity":85,"programNumber":44},{"time":273444.1709999976,"duration":74.07400000002235,"noteNumber":64,"velocity":85,"programNumber":44},{"time":273444.1709999976,"duration":74.07400000002235,"noteNumber":69,"velocity":85,"programNumber":44},{"time":273555.2819999976,"duration":74.07400000002235,"noteNumber":64,"velocity":85,"programNumber":44},{"time":273555.2819999976,"duration":74.07400000002235,"noteNumber":69,"velocity":85,"programNumber":44},{"time":273666.39299999765,"duration":74.07400000002235,"noteNumber":64,"velocity":85,"programNumber":44},{"time":273666.39299999765,"duration":74.07400000002235,"noteNumber":69,"velocity":85,"programNumber":44},{"time":273788.61509999767,"duration":166.66649999999208,"noteNumber":69,"velocity":85,"programNumber":44},{"time":273788.61509999767,"duration":166.66649999999208,"noteNumber":62,"velocity":85,"programNumber":44},{"time":274010.8370999977,"duration":166.66649999999208,"noteNumber":50,"velocity":85,"programNumber":44},{"time":274233.0590999977,"duration":166.66649999999208,"noteNumber":50,"velocity":85,"programNumber":44},{"time":274455.2810999977,"duration":166.66649999999208,"noteNumber":50,"velocity":85,"programNumber":44},{"time":274677.5030999977,"duration":444.4440000000177,"noteNumber":50,"velocity":85,"programNumber":44},{"time":276888.6119999977,"duration":222.22200000000885,"noteNumber":59,"velocity":55,"programNumber":44},{"time":277333.0559999977,"duration":222.22200000000885,"noteNumber":52,"velocity":55,"programNumber":44},{"time":277777.49999999773,"duration":222.22200000000885,"noteNumber":60,"velocity":55,"programNumber":44},{"time":278221.94399999775,"duration":222.22200000000885,"noteNumber":57,"velocity":55,"programNumber":44},{"time":278666.38799999777,"duration":222.22200000000885,"noteNumber":54,"velocity":55,"programNumber":44},{"time":279555.2759999978,"duration":444.4440000000177,"noteNumber":69,"velocity":55,"programNumber":44},{"time":279999.7199999978,"duration":222.22200000000885,"noteNumber":67,"velocity":55,"programNumber":44},{"time":280444.16399999784,"duration":222.22200000000885,"noteNumber":69,"velocity":55,"programNumber":44},{"time":280888.60799999785,"duration":888.8879999999772,"noteNumber":67,"velocity":55,"programNumber":44},{"time":281777.49599999783,"duration":444.4440000000177,"noteNumber":66,"velocity":55,"programNumber":44},{"time":283110.8279999978,"duration":444.4440000000177,"noteNumber":66,"velocity":55,"programNumber":44},{"time":283555.27199999784,"duration":222.22200000000885,"noteNumber":67,"velocity":55,"programNumber":44},{"time":283999.71599999786,"duration":222.22200000000885,"noteNumber":71,"velocity":55,"programNumber":44},{"time":284444.1599999979,"duration":222.22200000000885,"noteNumber":64,"velocity":55,"programNumber":44},{"time":284888.6039999979,"duration":222.22200000000885,"noteNumber":60,"velocity":55,"programNumber":44},{"time":285333.0479999979,"duration":444.4440000000177,"noteNumber":57,"velocity":55,"programNumber":44},{"time":285999.71399999794,"duration":166.66649999999208,"noteNumber":69,"velocity":55,"programNumber":44},{"time":286221.93599999795,"duration":222.22200000000885,"noteNumber":69,"velocity":55,"programNumber":44},{"time":286444.15799999796,"duration":222.22200000000885,"noteNumber":67,"velocity":55,"programNumber":44},{"time":287999.71199999796,"duration":166.66649999999208,"noteNumber":55,"velocity":55,"programNumber":44},{"time":288221.933999998,"duration":166.66649999999208,"noteNumber":55,"velocity":55,"programNumber":44},{"time":288444.155999998,"duration":166.66649999999208,"noteNumber":57,"velocity":55,"programNumber":44},{"time":288666.377999998,"duration":166.66649999999208,"noteNumber":57,"velocity":55,"programNumber":44},{"time":288888.599999998,"duration":166.66649999999208,"noteNumber":59,"velocity":55,"programNumber":44},{"time":289110.821999998,"duration":166.66649999999208,"noteNumber":59,"velocity":55,"programNumber":44},{"time":289333.043999998,"duration":166.66649999999208,"noteNumber":55,"velocity":55,"programNumber":44},{"time":289555.265999998,"duration":166.66649999999208,"noteNumber":55,"velocity":55,"programNumber":44},{"time":289777.48799999803,"duration":166.66649999999208,"noteNumber":54,"velocity":55,"programNumber":44},{"time":289999.70999999804,"duration":166.66649999999208,"noteNumber":54,"velocity":55,"programNumber":44},{"time":290221.93199999805,"duration":166.66649999999208,"noteNumber":55,"velocity":55,"programNumber":44},{"time":290444.15399999806,"duration":166.66649999999208,"noteNumber":55,"velocity":55,"programNumber":44},{"time":290666.37599999807,"duration":166.66649999999208,"noteNumber":57,"velocity":55,"programNumber":44},{"time":290888.5979999981,"duration":166.66649999999208,"noteNumber":57,"velocity":55,"programNumber":44},{"time":291110.8199999981,"duration":166.66649999999208,"noteNumber":54,"velocity":55,"programNumber":44},{"time":291333.0419999981,"duration":166.66649999999208,"noteNumber":54,"velocity":55,"programNumber":44},{"time":291555.2639999981,"duration":166.66649999999208,"noteNumber":55,"velocity":55,"programNumber":44},{"time":291777.4859999981,"duration":166.66649999999208,"noteNumber":55,"velocity":55,"programNumber":44},{"time":291999.7079999981,"duration":166.66649999999208,"noteNumber":57,"velocity":55,"programNumber":44},{"time":292221.92999999813,"duration":166.66649999999208,"noteNumber":57,"velocity":55,"programNumber":44},{"time":292444.15199999814,"duration":166.66649999999208,"noteNumber":59,"velocity":55,"programNumber":44},{"time":292666.37399999815,"duration":166.66649999999208,"noteNumber":59,"velocity":55,"programNumber":44},{"time":292888.59599999816,"duration":166.66649999999208,"noteNumber":55,"velocity":55,"programNumber":44},{"time":293110.81799999817,"duration":166.66649999999208,"noteNumber":55,"velocity":55,"programNumber":44},{"time":293333.0399999982,"duration":166.66649999999208,"noteNumber":54,"velocity":55,"programNumber":44},{"time":293555.2619999982,"duration":166.66649999999208,"noteNumber":54,"velocity":55,"programNumber":44},{"time":293777.4839999982,"duration":166.66649999999208,"noteNumber":55,"velocity":55,"programNumber":44},{"time":293999.7059999982,"duration":166.66649999999208,"noteNumber":55,"velocity":55,"programNumber":44},{"time":294221.9279999982,"duration":166.66649999999208,"noteNumber":57,"velocity":55,"programNumber":44},{"time":294444.1499999982,"duration":166.66649999999208,"noteNumber":57,"velocity":55,"programNumber":44},{"time":294666.3719999982,"duration":166.66649999999208,"noteNumber":54,"velocity":55,"programNumber":44},{"time":294888.59399999824,"duration":166.66649999999208,"noteNumber":54,"velocity":55,"programNumber":44},{"time":295110.81599999825,"duration":166.66649999999208,"noteNumber":55,"velocity":55,"programNumber":44},{"time":295333.03799999825,"duration":166.66649999999208,"noteNumber":67,"velocity":83,"programNumber":44},{"time":295555.25999999826,"duration":166.66649999999208,"noteNumber":71,"velocity":83,"programNumber":44},{"time":295777.4819999983,"duration":166.66649999999208,"noteNumber":69,"velocity":83,"programNumber":44},{"time":295999.7039999983,"duration":166.66649999999208,"noteNumber":68,"velocity":83,"programNumber":44},{"time":296221.9259999983,"duration":166.66649999999208,"noteNumber":64,"velocity":83,"programNumber":44},{"time":296444.1479999983,"duration":166.66649999999208,"noteNumber":66,"velocity":83,"programNumber":44},{"time":296666.3699999983,"duration":166.66649999999208,"noteNumber":67,"velocity":83,"programNumber":44},{"time":296888.5919999983,"duration":166.66649999999208,"noteNumber":69,"velocity":83,"programNumber":44},{"time":297110.8139999983,"duration":166.66649999999208,"noteNumber":72,"velocity":83,"programNumber":44},{"time":297333.03599999833,"duration":166.66649999999208,"noteNumber":69,"velocity":85,"programNumber":44},{"time":297555.25799999834,"duration":166.66649999999208,"noteNumber":67,"velocity":85,"programNumber":44},{"time":297777.47999999835,"duration":166.66649999999208,"noteNumber":66,"velocity":85,"programNumber":44},{"time":297999.70199999836,"duration":166.66649999999208,"noteNumber":62,"velocity":86,"programNumber":44},{"time":298221.92399999837,"duration":166.66649999999208,"noteNumber":64,"velocity":85,"programNumber":44},{"time":298444.1459999984,"duration":166.66649999999208,"noteNumber":66,"velocity":85,"programNumber":44},{"time":298666.3679999984,"duration":166.66649999999208,"noteNumber":67,"velocity":85,"programNumber":44},{"time":298888.5899999984,"duration":166.66649999999208,"noteNumber":67,"velocity":85,"programNumber":44},{"time":299110.8119999984,"duration":166.66649999999208,"noteNumber":67,"velocity":85,"programNumber":44},{"time":299333.0339999984,"duration":166.66649999999208,"noteNumber":67,"velocity":85,"programNumber":44},{"time":299555.2559999984,"duration":166.66649999999208,"noteNumber":67,"velocity":85,"programNumber":44},{"time":299777.47799999843,"duration":166.66649999999208,"noteNumber":67,"velocity":85,"programNumber":44},{"time":299999.69999999844,"duration":166.66649999999208,"noteNumber":67,"velocity":85,"programNumber":44},{"time":300221.92199999845,"duration":166.66649999999208,"noteNumber":67,"velocity":85,"programNumber":44},{"time":300444.14399999846,"duration":222.22200000000885,"noteNumber":67,"velocity":85,"programNumber":44},{"time":300666.36599999847,"duration":166.66649999999208,"noteNumber":62,"velocity":85,"programNumber":44},{"time":300888.5879999985,"duration":111.11099999997532,"noteNumber":62,"velocity":85,"programNumber":44},{"time":301110.8099999984,"duration":111.11099999997532,"noteNumber":62,"velocity":85,"programNumber":44},{"time":301333.0319999984,"duration":166.66649999999208,"noteNumber":62,"velocity":85,"programNumber":44},{"time":301555.2539999984,"duration":166.66649999999208,"noteNumber":62,"velocity":85,"programNumber":44},{"time":301777.4759999984,"duration":166.66649999999208,"noteNumber":62,"velocity":85,"programNumber":44},{"time":301999.6979999984,"duration":166.66649999999208,"noteNumber":60,"velocity":85,"programNumber":44},{"time":302221.9199999984,"duration":166.66649999999208,"noteNumber":55,"velocity":85,"programNumber":44},{"time":302444.1419999984,"duration":166.66649999999208,"noteNumber":55,"velocity":53,"programNumber":44},{"time":302666.36399999843,"duration":166.66649999999208,"noteNumber":57,"velocity":53,"programNumber":44},{"time":302888.58599999844,"duration":166.66649999999208,"noteNumber":57,"velocity":53,"programNumber":44},{"time":303110.80799999845,"duration":166.66649999999208,"noteNumber":59,"velocity":53,"programNumber":44},{"time":303333.02999999846,"duration":166.66649999999208,"noteNumber":59,"velocity":53,"programNumber":44},{"time":303555.25199999847,"duration":166.66649999999208,"noteNumber":55,"velocity":53,"programNumber":44},{"time":303777.4739999985,"duration":166.66649999999208,"noteNumber":55,"velocity":53,"programNumber":44},{"time":303999.6959999985,"duration":166.66649999999208,"noteNumber":54,"velocity":55,"programNumber":44},{"time":304221.9179999985,"duration":166.66649999999208,"noteNumber":54,"velocity":55,"programNumber":44},{"time":304444.1399999985,"duration":166.66649999999208,"noteNumber":55,"velocity":55,"programNumber":44},{"time":304666.3619999985,"duration":166.66649999999208,"noteNumber":55,"velocity":55,"programNumber":44},{"time":304888.5839999985,"duration":166.66649999999208,"noteNumber":57,"velocity":55,"programNumber":44},{"time":305110.8059999985,"duration":166.66649999999208,"noteNumber":57,"velocity":55,"programNumber":44},{"time":305333.02799999854,"duration":166.66649999999208,"noteNumber":54,"velocity":55,"programNumber":44},{"time":305555.24999999854,"duration":166.66649999999208,"noteNumber":54,"velocity":55,"programNumber":44},{"time":305777.47199999855,"duration":166.66649999999208,"noteNumber":55,"velocity":55,"programNumber":44},{"time":305999.69399999856,"duration":166.66649999999208,"noteNumber":67,"velocity":55,"programNumber":44},{"time":306221.9159999986,"duration":166.66649999999208,"noteNumber":69,"velocity":55,"programNumber":44},{"time":306444.1379999986,"duration":166.66649999999208,"noteNumber":69,"velocity":55,"programNumber":44},{"time":306666.3599999986,"duration":166.66649999999208,"noteNumber":71,"velocity":55,"programNumber":44},{"time":306888.5819999986,"duration":166.66649999999208,"noteNumber":71,"velocity":55,"programNumber":44},{"time":307110.8039999986,"duration":166.66649999999208,"noteNumber":67,"velocity":55,"programNumber":44},{"time":307333.0259999986,"duration":166.66649999999208,"noteNumber":67,"velocity":55,"programNumber":44},{"time":307555.2479999986,"duration":166.66649999999208,"noteNumber":66,"velocity":55,"programNumber":44},{"time":307777.46999999863,"duration":166.66649999999208,"noteNumber":66,"velocity":55,"programNumber":44},{"time":307999.69199999864,"duration":166.66649999999208,"noteNumber":67,"velocity":55,"programNumber":44},{"time":308221.91399999865,"duration":166.66649999999208,"noteNumber":67,"velocity":55,"programNumber":44},{"time":308444.13599999866,"duration":166.66649999999208,"noteNumber":69,"velocity":55,"programNumber":44},{"time":308666.35799999867,"duration":166.66649999999208,"noteNumber":69,"velocity":55,"programNumber":44},{"time":308888.5799999987,"duration":166.66649999999208,"noteNumber":66,"velocity":55,"programNumber":44},{"time":309110.8019999987,"duration":166.66649999999208,"noteNumber":66,"velocity":55,"programNumber":44},{"time":309333.0239999987,"duration":166.66649999999208,"noteNumber":67,"velocity":55,"programNumber":44},{"time":309555.2459999987,"duration":166.66649999999208,"noteNumber":67,"velocity":85,"programNumber":44},{"time":309777.4679999987,"duration":166.66649999999208,"noteNumber":71,"velocity":85,"programNumber":44},{"time":309999.6899999987,"duration":166.66649999999208,"noteNumber":69,"velocity":85,"programNumber":44},{"time":310221.91199999873,"duration":166.66649999999208,"noteNumber":68,"velocity":85,"programNumber":44},{"time":310444.13399999874,"duration":166.66649999999208,"noteNumber":64,"velocity":85,"programNumber":44},{"time":310666.35599999875,"duration":166.66649999999208,"noteNumber":66,"velocity":85,"programNumber":44},{"time":310888.57799999876,"duration":166.66649999999208,"noteNumber":67,"velocity":85,"programNumber":44},{"time":311110.79999999877,"duration":166.66649999999208,"noteNumber":69,"velocity":85,"programNumber":44},{"time":311333.0219999988,"duration":166.66649999999208,"noteNumber":72,"velocity":85,"programNumber":44},{"time":311555.2439999988,"duration":166.66649999999208,"noteNumber":69,"velocity":85,"programNumber":44},{"time":311777.4659999988,"duration":166.66649999999208,"noteNumber":67,"velocity":85,"programNumber":44},{"time":311999.6879999988,"duration":166.66649999999208,"noteNumber":66,"velocity":85,"programNumber":44},{"time":312221.9099999988,"duration":166.66649999999208,"noteNumber":62,"velocity":85,"programNumber":44},{"time":312444.1319999988,"duration":166.66649999999208,"noteNumber":64,"velocity":85,"programNumber":44},{"time":312666.3539999988,"duration":166.66649999999208,"noteNumber":66,"velocity":85,"programNumber":44},{"time":312888.57599999884,"duration":166.66649999999208,"noteNumber":67,"velocity":85,"programNumber":44},{"time":313110.79799999885,"duration":166.66649999999208,"noteNumber":67,"velocity":85,"programNumber":44},{"time":313333.01999999885,"duration":166.66649999999208,"noteNumber":67,"velocity":85,"programNumber":44},{"time":313555.24199999886,"duration":166.66649999999208,"noteNumber":67,"velocity":85,"programNumber":44},{"time":313777.4639999989,"duration":166.66649999999208,"noteNumber":67,"velocity":85,"programNumber":44},{"time":313999.6859999989,"duration":166.66649999999208,"noteNumber":67,"velocity":85,"programNumber":44},{"time":314221.9079999989,"duration":166.66649999999208,"noteNumber":67,"velocity":85,"programNumber":44},{"time":314444.1299999989,"duration":166.66649999999208,"noteNumber":67,"velocity":85,"programNumber":44},{"time":314666.3519999989,"duration":166.66649999999208,"noteNumber":67,"velocity":85,"programNumber":44},{"time":314888.5739999989,"duration":166.66649999999208,"noteNumber":71,"velocity":85,"programNumber":44},{"time":315110.7959999989,"duration":166.66649999999208,"noteNumber":74,"velocity":85,"programNumber":44},{"time":315333.01799999893,"duration":166.66649999999208,"noteNumber":74,"velocity":85,"programNumber":44},{"time":315555.23999999894,"duration":166.66649999999208,"noteNumber":74,"velocity":85,"programNumber":44},{"time":315777.46199999895,"duration":166.66649999999208,"noteNumber":74,"velocity":85,"programNumber":44},{"time":315999.68399999896,"duration":166.66649999999208,"noteNumber":74,"velocity":85,"programNumber":44},{"time":316221.90599999897,"duration":166.66649999999208,"noteNumber":72,"velocity":85,"programNumber":44},{"time":316451.53539999895,"duration":166.66649999999208,"noteNumber":71,"velocity":85,"programNumber":44},{"time":316673.75739999895,"duration":166.66649999999208,"noteNumber":62,"velocity":85,"programNumber":44},{"time":316895.97939999896,"duration":166.66649999999208,"noteNumber":64,"velocity":85,"programNumber":44},{"time":317118.201399999,"duration":166.66649999999208,"noteNumber":66,"velocity":85,"programNumber":44},{"time":317340.423399999,"duration":166.66649999999208,"noteNumber":67,"velocity":85,"programNumber":44},{"time":317562.645399999,"duration":166.66649999999208,"noteNumber":67,"velocity":85,"programNumber":44},{"time":317784.867399999,"duration":166.66649999999208,"noteNumber":69,"velocity":85,"programNumber":44},{"time":318007.089399999,"duration":166.66649999999208,"noteNumber":69,"velocity":85,"programNumber":44},{"time":318229.311399999,"duration":166.66649999999208,"noteNumber":71,"velocity":85,"programNumber":44},{"time":318451.533399999,"duration":166.66649999999208,"noteNumber":54,"velocity":85,"programNumber":44},{"time":318673.75539999903,"duration":166.66649999999208,"noteNumber":55,"velocity":85,"programNumber":44},{"time":318895.97739999904,"duration":166.66649999999208,"noteNumber":57,"velocity":85,"programNumber":44},{"time":319118.19939999905,"duration":166.66649999999208,"noteNumber":59,"velocity":85,"programNumber":44},{"time":319340.42139999906,"duration":166.66649999999208,"noteNumber":59,"velocity":85,"programNumber":44},{"time":319562.64339999907,"duration":166.66649999999208,"noteNumber":60,"velocity":85,"programNumber":44},{"time":319784.8653999991,"duration":166.66649999999208,"noteNumber":60,"velocity":85,"programNumber":44},{"time":319999.67999999906,"duration":166.66649999999208,"noteNumber":62,"velocity":85,"programNumber":44},{"time":320221.90199999907,"duration":166.66649999999208,"noteNumber":62,"velocity":85,"programNumber":44},{"time":320444.1239999991,"duration":166.66649999999208,"noteNumber":63,"velocity":85,"programNumber":44},{"time":320666.3459999991,"duration":166.66649999999208,"noteNumber":63,"velocity":85,"programNumber":44},{"time":320888.5679999991,"duration":444.4440000000177,"noteNumber":64,"velocity":85,"programNumber":44},{"time":321777.45599999913,"duration":1333.3319999999949,"noteNumber":57,"velocity":70,"programNumber":44},{"time":323110.7879999991,"duration":222.22200000000885,"noteNumber":55,"velocity":70,"programNumber":44},{"time":323333.00999999914,"duration":222.22200000000885,"noteNumber":54,"velocity":70,"programNumber":44},{"time":323555.23199999915,"duration":444.4440000000177,"noteNumber":55,"velocity":70,"programNumber":44},{"time":325333.00799999916,"duration":1333.3319999999949,"noteNumber":57,"velocity":70,"programNumber":44},{"time":326666.33999999915,"duration":222.22200000000885,"noteNumber":55,"velocity":70,"programNumber":44},{"time":326888.56199999916,"duration":222.22200000000885,"noteNumber":54,"velocity":70,"programNumber":44},{"time":327110.78399999917,"duration":444.4440000000177,"noteNumber":55,"velocity":70,"programNumber":44},{"time":327999.6719999992,"duration":444.4440000000177,"noteNumber":67,"velocity":70,"programNumber":44},{"time":328888.55999999924,"duration":444.4440000000177,"noteNumber":64,"velocity":92,"programNumber":44},{"time":329777.4479999993,"duration":444.4440000000177,"noteNumber":69,"velocity":111,"programNumber":44},{"time":329777.4479999993,"duration":444.4440000000177,"noteNumber":62,"velocity":111,"programNumber":44},{"time":330666.3359999993,"duration":74.07400000002235,"noteNumber":55,"velocity":97,"programNumber":44},{"time":330777.44699999935,"duration":74.07400000002235,"noteNumber":55,"velocity":94,"programNumber":44},{"time":330888.5579999994,"duration":74.07400000002235,"noteNumber":55,"velocity":93,"programNumber":44},{"time":330999.6689999994,"duration":74.07400000002235,"noteNumber":55,"velocity":92,"programNumber":44},{"time":331110.77999999945,"duration":74.07400000002235,"noteNumber":55,"velocity":90,"programNumber":44},{"time":331221.8909999995,"duration":74.07400000002235,"noteNumber":55,"velocity":90,"programNumber":44},{"time":331333.0019999995,"duration":74.07400000002235,"noteNumber":55,"velocity":90,"programNumber":44},{"time":331444.11299999955,"duration":74.07400000002235,"noteNumber":55,"velocity":90,"programNumber":44},{"time":331555.2239999996,"duration":74.07400000002235,"noteNumber":55,"velocity":88,"programNumber":44},{"time":331666.3349999996,"duration":74.07400000002235,"noteNumber":55,"velocity":88,"programNumber":44},{"time":331777.44599999965,"duration":74.07400000002235,"noteNumber":55,"velocity":90,"programNumber":44},{"time":331888.5569999997,"duration":74.07400000002235,"noteNumber":55,"velocity":90,"programNumber":44},{"time":331999.6679999997,"duration":74.07400000002235,"noteNumber":55,"velocity":88,"programNumber":44},{"time":332110.77899999975,"duration":74.07400000002235,"noteNumber":55,"velocity":87,"programNumber":44},{"time":332221.8899999998,"duration":74.07400000002235,"noteNumber":55,"velocity":87,"programNumber":44},{"time":332333.0009999998,"duration":74.07400000002235,"noteNumber":55,"velocity":86,"programNumber":44},{"time":332444.11199999985,"duration":74.07400000002235,"noteNumber":55,"velocity":86,"programNumber":44},{"time":332555.2229999999,"duration":74.07400000002235,"noteNumber":55,"velocity":86,"programNumber":44},{"time":332666.3339999999,"duration":74.07400000002235,"noteNumber":55,"velocity":87,"programNumber":44},{"time":332777.44499999995,"duration":74.07400000002235,"noteNumber":55,"velocity":89,"programNumber":44},{"time":332888.556,"duration":74.07400000002235,"noteNumber":55,"velocity":90,"programNumber":44},{"time":332999.667,"duration":74.07400000002235,"noteNumber":55,"velocity":90,"programNumber":44},{"time":333110.77800000005,"duration":74.07400000002235,"noteNumber":55,"velocity":90,"programNumber":44},{"time":333221.8890000001,"duration":74.07400000002235,"noteNumber":55,"velocity":89,"programNumber":44},{"time":333333.0000000001,"duration":74.07400000002235,"noteNumber":55,"velocity":85,"programNumber":44},{"time":333444.11100000015,"duration":74.07400000002235,"noteNumber":55,"velocity":87,"programNumber":44},{"time":333555.2220000002,"duration":74.07400000002235,"noteNumber":55,"velocity":87,"programNumber":44},{"time":333666.3330000002,"duration":74.07400000002235,"noteNumber":55,"velocity":88,"programNumber":44},{"time":333777.44400000025,"duration":74.07400000002235,"noteNumber":57,"velocity":89,"programNumber":44},{"time":333888.5550000003,"duration":74.07400000002235,"noteNumber":57,"velocity":90,"programNumber":44},{"time":333999.6660000003,"duration":74.07400000002235,"noteNumber":57,"velocity":90,"programNumber":44},{"time":334110.77700000035,"duration":74.07400000002235,"noteNumber":57,"velocity":90,"programNumber":44},{"time":334221.8880000004,"duration":74.07400000002235,"noteNumber":55,"velocity":90,"programNumber":44},{"time":334332.9990000004,"duration":74.07400000002235,"noteNumber":55,"velocity":90,"programNumber":44},{"time":334444.11000000045,"duration":74.07400000002235,"noteNumber":55,"velocity":90,"programNumber":44},{"time":334555.2210000005,"duration":74.07400000002235,"noteNumber":55,"velocity":90,"programNumber":44},{"time":334666.3320000005,"duration":74.07400000002235,"noteNumber":55,"velocity":90,"programNumber":44},{"time":334777.44300000055,"duration":74.07400000002235,"noteNumber":55,"velocity":90,"programNumber":44},{"time":334888.5540000006,"duration":74.07400000002235,"noteNumber":55,"velocity":90,"programNumber":44},{"time":334999.6650000006,"duration":74.07400000002235,"noteNumber":55,"velocity":90,"programNumber":44},{"time":335110.77600000065,"duration":74.07400000002235,"noteNumber":55,"velocity":89,"programNumber":44},{"time":335221.8870000007,"duration":74.07400000002235,"noteNumber":55,"velocity":89,"programNumber":44},{"time":335332.9980000007,"duration":74.07400000002235,"noteNumber":55,"velocity":89,"programNumber":44},{"time":335444.10900000075,"duration":74.07400000002235,"noteNumber":55,"velocity":89,"programNumber":44},{"time":335555.2200000008,"duration":74.07400000002235,"noteNumber":55,"velocity":89,"programNumber":44},{"time":335666.3310000008,"duration":74.07400000002235,"noteNumber":55,"velocity":90,"programNumber":44},{"time":335777.44200000085,"duration":74.07400000002235,"noteNumber":55,"velocity":95,"programNumber":44},{"time":335888.5530000009,"duration":74.07400000002235,"noteNumber":55,"velocity":96,"programNumber":44},{"time":335999.6640000009,"duration":74.07400000002235,"noteNumber":55,"velocity":97,"programNumber":44},{"time":336110.77500000095,"duration":74.07400000002235,"noteNumber":55,"velocity":98,"programNumber":44},{"time":336221.886000001,"duration":74.07400000002235,"noteNumber":55,"velocity":99,"programNumber":44},{"time":336332.997000001,"duration":74.07400000002235,"noteNumber":55,"velocity":99,"programNumber":44},{"time":336444.10800000106,"duration":74.07400000002235,"noteNumber":55,"velocity":99,"programNumber":44},{"time":336555.2190000011,"duration":74.07400000002235,"noteNumber":55,"velocity":99,"programNumber":44},{"time":336666.3300000011,"duration":74.07400000002235,"noteNumber":55,"velocity":99,"programNumber":44},{"time":336777.44100000116,"duration":74.07400000002235,"noteNumber":55,"velocity":99,"programNumber":44},{"time":336888.5520000012,"duration":74.07400000002235,"noteNumber":55,"velocity":97,"programNumber":44},{"time":336999.6630000012,"duration":74.07400000002235,"noteNumber":55,"velocity":97,"programNumber":44},{"time":337110.77400000126,"duration":74.07400000002235,"noteNumber":55,"velocity":96,"programNumber":44},{"time":337221.8850000013,"duration":74.07400000002235,"noteNumber":55,"velocity":94,"programNumber":44},{"time":337332.9960000013,"duration":74.07400000002235,"noteNumber":57,"velocity":94,"programNumber":44},{"time":337444.10700000136,"duration":74.07400000002235,"noteNumber":57,"velocity":94,"programNumber":44},{"time":337555.2180000014,"duration":74.07400000002235,"noteNumber":57,"velocity":95,"programNumber":44},{"time":337666.3290000014,"duration":74.07400000002235,"noteNumber":57,"velocity":95,"programNumber":44},{"time":337777.44000000146,"duration":166.66649999999208,"noteNumber":55,"velocity":96,"programNumber":44},{"time":337999.66200000147,"duration":166.66649999999208,"noteNumber":59,"velocity":103,"programNumber":44},{"time":338221.8840000015,"duration":166.66649999999208,"noteNumber":62,"velocity":103,"programNumber":44},{"time":338444.1060000015,"duration":166.66649999999208,"noteNumber":67,"velocity":103,"programNumber":44},{"time":338666.3280000015,"duration":166.66649999999208,"noteNumber":71,"velocity":103,"programNumber":44},{"time":338888.5500000015,"duration":166.66649999999208,"noteNumber":67,"velocity":103,"programNumber":44},{"time":339110.7720000015,"duration":166.66649999999208,"noteNumber":74,"velocity":103,"programNumber":44},{"time":339332.9940000015,"duration":166.66649999999208,"noteNumber":71,"velocity":103,"programNumber":44},{"time":339566.3271000015,"duration":370.36999999999534,"noteNumber":67,"velocity":103,"programNumber":44},{"time":340010.7711000015,"duration":222.22200000000885,"noteNumber":55,"velocity":103,"programNumber":44},{"time":340344.1041000015,"duration":55.555500000016764,"noteNumber":55,"velocity":103,"programNumber":44},{"time":340455.21510000154,"duration":444.4440000000177,"noteNumber":55,"velocity":103,"programNumber":44}],[{"time":0,"duration":444.444,"noteNumber":71,"velocity":85,"programNumber":40},{"time":0,"duration":444.444,"noteNumber":79,"velocity":85,"programNumber":40},{"time":0,"duration":444.444,"noteNumber":62,"velocity":85,"programNumber":40},{"time":666.666,"duration":111.11099999999999,"noteNumber":74,"velocity":85,"programNumber":40},{"time":888.888,"duration":444.4440000000001,"noteNumber":79,"velocity":85,"programNumber":40},{"time":1555.554,"duration":111.1110000000001,"noteNumber":74,"velocity":85,"programNumber":40},{"time":1777.7760000000003,"duration":111.1110000000001,"noteNumber":79,"velocity":85,"programNumber":40},{"time":1999.9980000000005,"duration":111.11099999999988,"noteNumber":74,"velocity":85,"programNumber":40},{"time":2222.2200000000003,"duration":111.11099999999988,"noteNumber":79,"velocity":85,"programNumber":40},{"time":2444.442,"duration":111.11099999999988,"noteNumber":83,"velocity":85,"programNumber":40},{"time":2666.6639999999998,"duration":444.44399999999996,"noteNumber":86,"velocity":85,"programNumber":40},{"time":3555.5519999999997,"duration":444.44399999999996,"noteNumber":84,"velocity":85,"programNumber":40},{"time":4222.218,"duration":111.11099999999988,"noteNumber":81,"velocity":82,"programNumber":40},{"time":4444.44,"duration":444.4440000000004,"noteNumber":84,"velocity":85,"programNumber":40},{"time":5111.106,"duration":111.11099999999988,"noteNumber":81,"velocity":79,"programNumber":40},{"time":5333.3279999999995,"duration":111.11099999999988,"noteNumber":84,"velocity":85,"programNumber":40},{"time":5555.549999999999,"duration":111.11099999999988,"noteNumber":81,"velocity":80,"programNumber":40},{"time":5777.771999999999,"duration":111.11099999999988,"noteNumber":78,"velocity":85,"programNumber":40},{"time":5999.993999999999,"duration":111.11099999999988,"noteNumber":81,"velocity":77,"programNumber":40},{"time":6222.2159999999985,"duration":444.4440000000004,"noteNumber":74,"velocity":85,"programNumber":40},{"time":7111.103999999999,"duration":222.22199999999975,"noteNumber":71,"velocity":85,"programNumber":40},{"time":7111.103999999999,"duration":222.22199999999975,"noteNumber":79,"velocity":85,"programNumber":40},{"time":7111.103999999999,"duration":222.22199999999975,"noteNumber":62,"velocity":85,"programNumber":40},{"time":7555.547999999999,"duration":666.6659999999993,"noteNumber":79,"velocity":85,"programNumber":40},{"time":8222.213999999998,"duration":222.22199999999975,"noteNumber":83,"velocity":89,"programNumber":40},{"time":8444.435999999998,"duration":111.11100000000079,"noteNumber":81,"velocity":94,"programNumber":40},{"time":8666.658,"duration":111.11100000000079,"noteNumber":79,"velocity":97,"programNumber":40},{"time":8888.880000000001,"duration":55.55550000000039,"noteNumber":79,"velocity":95,"programNumber":40},{"time":8944.435500000001,"duration":55.55550000000039,"noteNumber":81,"velocity":95,"programNumber":40},{"time":8999.991000000002,"duration":55.55550000000039,"noteNumber":79,"velocity":95,"programNumber":40},{"time":9055.546500000002,"duration":55.55550000000039,"noteNumber":81,"velocity":94,"programNumber":40},{"time":9111.102000000003,"duration":185.1849999999995,"noteNumber":78,"velocity":94,"programNumber":40},{"time":9333.324000000002,"duration":666.6659999999993,"noteNumber":78,"velocity":88,"programNumber":40},{"time":9999.990000000002,"duration":222.22199999999975,"noteNumber":81,"velocity":85,"programNumber":40},{"time":10222.212000000001,"duration":111.11100000000079,"noteNumber":84,"velocity":85,"programNumber":40},{"time":10444.434000000003,"duration":111.11100000000079,"noteNumber":78,"velocity":85,"programNumber":40},{"time":10666.656000000004,"duration":222.22199999999975,"noteNumber":81,"velocity":85,"programNumber":40},{"time":10888.878000000004,"duration":111.11100000000079,"noteNumber":79,"velocity":85,"programNumber":40},{"time":11111.100000000006,"duration":666.6659999999993,"noteNumber":79,"velocity":85,"programNumber":40},{"time":11777.766000000005,"duration":222.22199999999975,"noteNumber":83,"velocity":86,"programNumber":40},{"time":11999.988000000005,"duration":111.11100000000079,"noteNumber":81,"velocity":86,"programNumber":40},{"time":12222.210000000006,"duration":111.11100000000079,"noteNumber":79,"velocity":89,"programNumber":40},{"time":12444.432000000008,"duration":55.55550000000039,"noteNumber":79,"velocity":91,"programNumber":40},{"time":12499.987500000008,"duration":55.55550000000039,"noteNumber":81,"velocity":91,"programNumber":40},{"time":12555.543000000009,"duration":55.55550000000039,"noteNumber":79,"velocity":92,"programNumber":40},{"time":12611.09850000001,"duration":55.55550000000039,"noteNumber":81,"velocity":94,"programNumber":40},{"time":12666.65400000001,"duration":185.1849999999995,"noteNumber":78,"velocity":94,"programNumber":40},{"time":12888.87600000001,"duration":666.6659999999993,"noteNumber":78,"velocity":94,"programNumber":40},{"time":13555.542000000009,"duration":222.22199999999975,"noteNumber":81,"velocity":85,"programNumber":40},{"time":13777.764000000008,"duration":111.11100000000079,"noteNumber":84,"velocity":85,"programNumber":40},{"time":13999.98600000001,"duration":111.11100000000079,"noteNumber":78,"velocity":85,"programNumber":40},{"time":14222.208000000011,"duration":111.11100000000079,"noteNumber":79,"velocity":85,"programNumber":40},{"time":14444.430000000013,"duration":111.11100000000079,"noteNumber":79,"velocity":85,"programNumber":40},{"time":14666.652000000015,"duration":111.11100000000079,"noteNumber":79,"velocity":85,"programNumber":40},{"time":14777.763000000015,"duration":111.11100000000079,"noteNumber":78,"velocity":85,"programNumber":40},{"time":14888.874000000016,"duration":111.11100000000079,"noteNumber":76,"velocity":85,"programNumber":40},{"time":14999.985000000017,"duration":111.11100000000079,"noteNumber":78,"velocity":85,"programNumber":40},{"time":15111.096000000018,"duration":111.11100000000079,"noteNumber":79,"velocity":85,"programNumber":40},{"time":15333.31800000002,"duration":111.11100000000079,"noteNumber":79,"velocity":85,"programNumber":40},{"time":15555.54000000002,"duration":111.11100000000079,"noteNumber":83,"velocity":85,"programNumber":40},{"time":15666.651000000022,"duration":111.11100000000079,"noteNumber":81,"velocity":85,"programNumber":40},{"time":15777.762000000022,"duration":111.11100000000079,"noteNumber":79,"velocity":85,"programNumber":40},{"time":15888.873000000023,"duration":111.11100000000079,"noteNumber":81,"velocity":85,"programNumber":40},{"time":15999.984000000024,"duration":111.11100000000079,"noteNumber":83,"velocity":86,"programNumber":40},{"time":16222.206000000026,"duration":111.11100000000079,"noteNumber":83,"velocity":86,"programNumber":40},{"time":16444.428000000025,"duration":111.11100000000079,"noteNumber":86,"velocity":83,"programNumber":40},{"time":16555.539000000026,"duration":111.11100000000079,"noteNumber":84,"velocity":80,"programNumber":40},{"time":16666.650000000027,"duration":111.11100000000079,"noteNumber":83,"velocity":80,"programNumber":40},{"time":16777.761000000028,"duration":111.11100000000079,"noteNumber":84,"velocity":79,"programNumber":40},{"time":16888.87200000003,"duration":444.4439999999995,"noteNumber":86,"velocity":76,"programNumber":40},{"time":17777.760000000028,"duration":888.887999999999,"noteNumber":74,"velocity":41,"programNumber":40},{"time":18666.648000000027,"duration":888.887999999999,"noteNumber":76,"velocity":47,"programNumber":40},{"time":19555.536000000026,"duration":111.11100000000079,"noteNumber":74,"velocity":47,"programNumber":40},{"time":19666.647000000026,"duration":296.29599999999846,"noteNumber":72,"velocity":47,"programNumber":40},{"time":19999.980000000025,"duration":444.4439999999995,"noteNumber":72,"velocity":47,"programNumber":40},{"time":20444.424000000025,"duration":111.11100000000079,"noteNumber":72,"velocity":47,"programNumber":40},{"time":20555.535000000025,"duration":296.29599999999846,"noteNumber":71,"velocity":47,"programNumber":40},{"time":20888.868000000024,"duration":444.4439999999995,"noteNumber":71,"velocity":47,"programNumber":40},{"time":21333.312000000024,"duration":111.11100000000079,"noteNumber":71,"velocity":47,"programNumber":40},{"time":21444.423000000024,"duration":296.29599999999846,"noteNumber":69,"velocity":47,"programNumber":40},{"time":21777.756000000023,"duration":444.4439999999995,"noteNumber":69,"velocity":47,"programNumber":40},{"time":22222.200000000023,"duration":222.22200000000157,"noteNumber":67,"velocity":47,"programNumber":40},{"time":22444.422000000024,"duration":111.11100000000079,"noteNumber":66,"velocity":47,"programNumber":40},{"time":22666.644000000026,"duration":111.11100000000079,"noteNumber":64,"velocity":47,"programNumber":40},{"time":22888.866000000027,"duration":111.11100000000079,"noteNumber":66,"velocity":47,"programNumber":40},{"time":23111.08800000003,"duration":222.22200000000157,"noteNumber":67,"velocity":47,"programNumber":40},{"time":23555.532000000032,"duration":222.22200000000157,"noteNumber":69,"velocity":47,"programNumber":40},{"time":23999.976000000035,"duration":222.22200000000157,"noteNumber":71,"velocity":47,"programNumber":40},{"time":24888.864000000038,"duration":888.887999999999,"noteNumber":74,"velocity":47,"programNumber":40},{"time":25777.752000000037,"duration":888.887999999999,"noteNumber":76,"velocity":47,"programNumber":40},{"time":26666.640000000036,"duration":222.22200000000157,"noteNumber":74,"velocity":47,"programNumber":40},{"time":26888.862000000037,"duration":111.11100000000079,"noteNumber":72,"velocity":47,"programNumber":40},{"time":27111.08400000004,"duration":111.11100000000079,"noteNumber":72,"velocity":47,"programNumber":40},{"time":27333.30600000004,"duration":111.11100000000079,"noteNumber":72,"velocity":47,"programNumber":40},{"time":27555.528000000042,"duration":222.22200000000157,"noteNumber":72,"velocity":47,"programNumber":40},{"time":27777.750000000044,"duration":111.11100000000079,"noteNumber":71,"velocity":47,"programNumber":40},{"time":27999.972000000045,"duration":111.11100000000079,"noteNumber":71,"velocity":47,"programNumber":40},{"time":28222.194000000047,"duration":111.11100000000079,"noteNumber":71,"velocity":47,"programNumber":40},{"time":28444.41600000005,"duration":222.22200000000157,"noteNumber":71,"velocity":47,"programNumber":40},{"time":28666.63800000005,"duration":111.11100000000079,"noteNumber":69,"velocity":47,"programNumber":40},{"time":28888.86000000005,"duration":166.66649999999936,"noteNumber":69,"velocity":47,"programNumber":40},{"time":29111.08200000005,"duration":166.66649999999936,"noteNumber":69,"velocity":47,"programNumber":40},{"time":29333.304000000047,"duration":222.22200000000157,"noteNumber":67,"velocity":47,"programNumber":40},{"time":29555.52600000005,"duration":222.22200000000157,"noteNumber":66,"velocity":47,"programNumber":40},{"time":29777.74800000005,"duration":222.22200000000157,"noteNumber":64,"velocity":47,"programNumber":40},{"time":29999.970000000052,"duration":222.22200000000157,"noteNumber":66,"velocity":47,"programNumber":40},{"time":30222.192000000054,"duration":1111.1100000000006,"noteNumber":67,"velocity":85,"programNumber":40},{"time":30222.192000000054,"duration":1111.1100000000006,"noteNumber":55,"velocity":85,"programNumber":40},{"time":31333.302000000054,"duration":55.555499999998574,"noteNumber":67,"velocity":61,"programNumber":40},{"time":31388.857500000053,"duration":55.555499999998574,"noteNumber":69,"velocity":61,"programNumber":40},{"time":31444.41300000005,"duration":55.555499999998574,"noteNumber":66,"velocity":61,"programNumber":40},{"time":31499.96850000005,"duration":55.555499999998574,"noteNumber":67,"velocity":61,"programNumber":40},{"time":31555.52400000005,"duration":222.22200000000157,"noteNumber":69,"velocity":61,"programNumber":40},{"time":31777.74600000005,"duration":222.22200000000157,"noteNumber":66,"velocity":61,"programNumber":40},{"time":31999.96800000005,"duration":1111.1100000000006,"noteNumber":71,"velocity":85,"programNumber":40},{"time":33111.07800000005,"duration":55.55550000000221,"noteNumber":71,"velocity":61,"programNumber":40},{"time":33166.633500000054,"duration":55.55550000000221,"noteNumber":72,"velocity":61,"programNumber":40},{"time":33222.18900000006,"duration":55.55550000000221,"noteNumber":69,"velocity":61,"programNumber":40},{"time":33277.74450000006,"duration":55.55550000000221,"noteNumber":71,"velocity":61,"programNumber":40},{"time":33333.30000000006,"duration":222.22200000000157,"noteNumber":72,"velocity":61,"programNumber":40},{"time":33555.52200000006,"duration":222.22200000000157,"noteNumber":69,"velocity":61,"programNumber":40},{"time":33777.744000000064,"duration":74.07400000000052,"noteNumber":74,"velocity":46,"programNumber":40},{"time":33888.85500000006,"duration":74.07400000000052,"noteNumber":74,"velocity":46,"programNumber":40},{"time":33999.96600000006,"duration":74.07400000000052,"noteNumber":74,"velocity":47,"programNumber":40},{"time":34111.077000000056,"duration":74.07400000000052,"noteNumber":74,"velocity":47,"programNumber":40},{"time":34222.18800000005,"duration":74.07400000000052,"noteNumber":74,"velocity":49,"programNumber":40},{"time":34333.29900000005,"duration":74.07400000000052,"noteNumber":74,"velocity":50,"programNumber":40},{"time":34444.41000000005,"duration":74.07400000000052,"noteNumber":74,"velocity":50,"programNumber":40},{"time":34555.521000000044,"duration":74.07400000000052,"noteNumber":74,"velocity":52,"programNumber":40},{"time":34666.63200000004,"duration":74.07400000000052,"noteNumber":76,"velocity":53,"programNumber":40},{"time":34777.74300000004,"duration":74.07400000000052,"noteNumber":76,"velocity":53,"programNumber":40},{"time":34888.854000000036,"duration":74.07400000000052,"noteNumber":76,"velocity":55,"programNumber":40},{"time":34999.96500000003,"duration":74.07400000000052,"noteNumber":76,"velocity":56,"programNumber":40},{"time":35111.07600000003,"duration":74.07400000000052,"noteNumber":78,"velocity":56,"programNumber":40},{"time":35222.18700000003,"duration":74.07400000000052,"noteNumber":78,"velocity":58,"programNumber":40},{"time":35333.298000000024,"duration":74.07400000000052,"noteNumber":78,"velocity":58,"programNumber":40},{"time":35444.40900000002,"duration":74.07400000000052,"noteNumber":78,"velocity":59,"programNumber":40},{"time":35555.52000000002,"duration":74.07400000000052,"noteNumber":79,"velocity":61,"programNumber":40},{"time":35666.631000000016,"duration":74.07400000000052,"noteNumber":79,"velocity":61,"programNumber":40},{"time":35777.74200000001,"duration":74.07400000000052,"noteNumber":79,"velocity":62,"programNumber":40},{"time":35888.85300000001,"duration":74.07400000000052,"noteNumber":79,"velocity":64,"programNumber":40},{"time":35999.96400000001,"duration":74.07400000000052,"noteNumber":81,"velocity":64,"programNumber":40},{"time":36111.075000000004,"duration":74.07400000000052,"noteNumber":81,"velocity":65,"programNumber":40},{"time":36222.186,"duration":74.07400000000052,"noteNumber":81,"velocity":67,"programNumber":40},{"time":36333.297,"duration":74.07400000000052,"noteNumber":81,"velocity":67,"programNumber":40},{"time":36444.407999999996,"duration":74.07400000000052,"noteNumber":83,"velocity":68,"programNumber":40},{"time":36555.51899999999,"duration":74.07400000000052,"noteNumber":83,"velocity":68,"programNumber":40},{"time":36666.62999999999,"duration":74.07400000000052,"noteNumber":83,"velocity":70,"programNumber":40},{"time":36777.74099999999,"duration":74.07400000000052,"noteNumber":83,"velocity":71,"programNumber":40},{"time":36888.851999999984,"duration":74.07400000000052,"noteNumber":85,"velocity":71,"programNumber":40},{"time":36999.96299999998,"duration":74.07400000000052,"noteNumber":85,"velocity":73,"programNumber":40},{"time":37111.07399999998,"duration":74.07400000000052,"noteNumber":85,"velocity":74,"programNumber":40},{"time":37222.184999999976,"duration":74.07400000000052,"noteNumber":85,"velocity":74,"programNumber":40},{"time":37333.29599999997,"duration":666.6659999999974,"noteNumber":86,"velocity":85,"programNumber":40},{"time":37999.96199999997,"duration":222.22200000000157,"noteNumber":81,"velocity":85,"programNumber":40},{"time":38222.18399999997,"duration":333.3329999999987,"noteNumber":85,"velocity":94,"programNumber":40},{"time":38555.51699999997,"duration":111.11099999999715,"noteNumber":81,"velocity":85,"programNumber":40},{"time":38666.62799999997,"duration":333.3329999999987,"noteNumber":85,"velocity":85,"programNumber":40},{"time":38999.96099999997,"duration":111.11099999999715,"noteNumber":81,"velocity":85,"programNumber":40},{"time":39111.071999999964,"duration":666.6659999999974,"noteNumber":86,"velocity":85,"programNumber":40},{"time":39777.73799999996,"duration":222.22200000000157,"noteNumber":81,"velocity":85,"programNumber":40},{"time":39999.95999999996,"duration":333.3329999999987,"noteNumber":85,"velocity":85,"programNumber":40},{"time":40333.29299999996,"duration":111.11099999999715,"noteNumber":81,"velocity":85,"programNumber":40},{"time":40444.40399999996,"duration":333.3329999999987,"noteNumber":85,"velocity":85,"programNumber":40},{"time":40777.73699999996,"duration":111.11099999999715,"noteNumber":81,"velocity":85,"programNumber":40},{"time":40888.847999999954,"duration":111.11099999999715,"noteNumber":86,"velocity":85,"programNumber":40},{"time":41111.06999999995,"duration":333.3329999999987,"noteNumber":86,"velocity":85,"programNumber":40},{"time":41111.06999999995,"duration":333.3329999999987,"noteNumber":78,"velocity":85,"programNumber":40},{"time":41555.513999999945,"duration":333.3329999999987,"noteNumber":86,"velocity":85,"programNumber":40},{"time":41555.513999999945,"duration":333.3329999999987,"noteNumber":78,"velocity":85,"programNumber":40},{"time":41999.95799999994,"duration":333.3329999999987,"noteNumber":86,"velocity":85,"programNumber":40},{"time":41999.95799999994,"duration":333.3329999999987,"noteNumber":78,"velocity":85,"programNumber":40},{"time":42444.40199999994,"duration":222.22200000000157,"noteNumber":78,"velocity":85,"programNumber":40},{"time":42666.62399999994,"duration":111.11099999999715,"noteNumber":76,"velocity":85,"programNumber":40},{"time":42444.40199999994,"duration":333.3329999999987,"noteNumber":86,"velocity":85,"programNumber":40},{"time":42888.84599999993,"duration":333.3329999999987,"noteNumber":86,"velocity":85,"programNumber":40},{"time":42888.84599999993,"duration":333.3329999999987,"noteNumber":76,"velocity":85,"programNumber":40},{"time":43333.28999999993,"duration":333.3329999999987,"noteNumber":86,"velocity":85,"programNumber":40},{"time":43333.28999999993,"duration":333.3329999999987,"noteNumber":76,"velocity":85,"programNumber":40},{"time":43777.733999999924,"duration":333.3329999999987,"noteNumber":86,"velocity":85,"programNumber":40},{"time":43777.733999999924,"duration":333.3329999999987,"noteNumber":76,"velocity":85,"programNumber":40},{"time":44222.17799999992,"duration":222.22200000000157,"noteNumber":86,"velocity":85,"programNumber":40},{"time":44222.17799999992,"duration":222.22200000000157,"noteNumber":76,"velocity":85,"programNumber":40},{"time":44444.39999999992,"duration":166.66649999999936,"noteNumber":85,"velocity":92,"programNumber":40},{"time":44444.39999999992,"duration":166.66649999999936,"noteNumber":76,"velocity":92,"programNumber":40},{"time":44666.62199999992,"duration":166.66649999999936,"noteNumber":81,"velocity":85,"programNumber":40},{"time":44888.843999999925,"duration":166.66649999999936,"noteNumber":86,"velocity":85,"programNumber":40},{"time":45111.065999999926,"duration":166.66649999999936,"noteNumber":81,"velocity":85,"programNumber":40},{"time":45333.28799999993,"duration":166.66649999999936,"noteNumber":85,"velocity":85,"programNumber":40},{"time":45555.50999999993,"duration":166.66649999999936,"noteNumber":81,"velocity":85,"programNumber":40},{"time":45777.73199999993,"duration":166.66649999999936,"noteNumber":86,"velocity":85,"programNumber":40},{"time":45999.95399999993,"duration":166.66649999999936,"noteNumber":81,"velocity":85,"programNumber":40},{"time":46222.175999999934,"duration":166.66649999999936,"noteNumber":85,"velocity":94,"programNumber":40},{"time":46444.397999999936,"duration":166.66649999999936,"noteNumber":69,"velocity":85,"programNumber":40},{"time":46666.61999999994,"duration":166.66649999999936,"noteNumber":69,"velocity":85,"programNumber":40},{"time":46888.84199999994,"duration":166.66649999999936,"noteNumber":69,"velocity":85,"programNumber":40},{"time":47111.06399999994,"duration":444.44400000000314,"noteNumber":69,"velocity":85,"programNumber":40},{"time":47999.95199999994,"duration":666.6659999999902,"noteNumber":81,"velocity":55,"programNumber":40},{"time":48666.61799999993,"duration":74.07400000000052,"noteNumber":79,"velocity":55,"programNumber":40},{"time":48740.69199999993,"duration":74.07400000000052,"noteNumber":78,"velocity":55,"programNumber":40},{"time":48814.76599999993,"duration":74.07400000000052,"noteNumber":76,"velocity":55,"programNumber":40},{"time":48888.83999999993,"duration":222.22200000000157,"noteNumber":74,"velocity":55,"programNumber":40},{"time":49333.283999999934,"duration":222.22200000000157,"noteNumber":83,"velocity":55,"programNumber":40},{"time":49777.72799999994,"duration":222.22200000000157,"noteNumber":79,"velocity":55,"programNumber":40},{"time":50222.17199999994,"duration":222.22200000000157,"noteNumber":76,"velocity":55,"programNumber":40},{"time":50666.61599999994,"duration":222.22200000000157,"noteNumber":81,"velocity":55,"programNumber":40},{"time":51555.50399999994,"duration":666.6659999999974,"noteNumber":78,"velocity":55,"programNumber":40},{"time":52222.16999999994,"duration":74.07400000000052,"noteNumber":76,"velocity":55,"programNumber":40},{"time":52296.24399999994,"duration":74.07400000000052,"noteNumber":74,"velocity":55,"programNumber":40},{"time":52370.31799999994,"duration":74.07400000000052,"noteNumber":73,"velocity":55,"programNumber":40},{"time":52444.39199999994,"duration":222.22200000000157,"noteNumber":71,"velocity":55,"programNumber":40},{"time":52888.835999999945,"duration":222.22200000000157,"noteNumber":79,"velocity":55,"programNumber":40},{"time":53333.27999999995,"duration":888.887999999999,"noteNumber":78,"velocity":55,"programNumber":40},{"time":54222.16799999995,"duration":444.44400000000314,"noteNumber":76,"velocity":49,"programNumber":40},{"time":55333.27799999995,"duration":111.11099999999715,"noteNumber":81,"velocity":55,"programNumber":40},{"time":55555.49999999994,"duration":111.11099999999715,"noteNumber":81,"velocity":55,"programNumber":40},{"time":55777.721999999936,"duration":111.11099999999715,"noteNumber":81,"velocity":55,"programNumber":40},{"time":55999.94399999993,"duration":111.11099999999715,"noteNumber":81,"velocity":55,"programNumber":40},{"time":56222.165999999925,"duration":111.11099999999715,"noteNumber":81,"velocity":55,"programNumber":40},{"time":56444.38799999992,"duration":111.11099999999715,"noteNumber":81,"velocity":55,"programNumber":40},{"time":56666.60999999991,"duration":111.11099999999715,"noteNumber":81,"velocity":55,"programNumber":40},{"time":56888.83199999991,"duration":111.11099999999715,"noteNumber":81,"velocity":55,"programNumber":40},{"time":57111.0539999999,"duration":111.11099999999715,"noteNumber":81,"velocity":55,"programNumber":40},{"time":57333.275999999896,"duration":111.11099999999715,"noteNumber":81,"velocity":55,"programNumber":40},{"time":57555.49799999989,"duration":111.11099999999715,"noteNumber":81,"velocity":55,"programNumber":40},{"time":57777.719999999885,"duration":111.11099999999715,"noteNumber":81,"velocity":55,"programNumber":40},{"time":57999.94199999988,"duration":111.11099999999715,"noteNumber":81,"velocity":55,"programNumber":40},{"time":58222.16399999987,"duration":111.11099999999715,"noteNumber":83,"velocity":55,"programNumber":40},{"time":58444.38599999987,"duration":111.11099999999715,"noteNumber":85,"velocity":55,"programNumber":40},{"time":58666.60799999986,"duration":222.22200000000157,"noteNumber":85,"velocity":55,"programNumber":40},{"time":58888.82999999986,"duration":222.22200000000157,"noteNumber":86,"velocity":55,"programNumber":40},{"time":59333.27399999987,"duration":111.11099999999715,"noteNumber":83,"velocity":55,"programNumber":40},{"time":59555.49599999986,"duration":222.22200000000157,"noteNumber":83,"velocity":55,"programNumber":40},{"time":59777.71799999986,"duration":222.22200000000157,"noteNumber":81,"velocity":55,"programNumber":40},{"time":60222.161999999866,"duration":166.66649999999936,"noteNumber":73,"velocity":55,"programNumber":40},{"time":60444.38399999987,"duration":444.44400000000314,"noteNumber":74,"velocity":55,"programNumber":40},{"time":61111.04999999987,"duration":111.11099999999715,"noteNumber":81,"velocity":55,"programNumber":40},{"time":61333.271999999866,"duration":222.22200000000157,"noteNumber":86,"velocity":55,"programNumber":40},{"time":61555.49399999987,"duration":222.22200000000157,"noteNumber":85,"velocity":55,"programNumber":40},{"time":61777.71599999987,"duration":222.22200000000157,"noteNumber":83,"velocity":55,"programNumber":40},{"time":61999.93799999987,"duration":222.22200000000157,"noteNumber":81,"velocity":55,"programNumber":40},{"time":62222.15999999987,"duration":55.55550000000221,"noteNumber":83,"velocity":55,"programNumber":40},{"time":62277.715499999875,"duration":55.55550000000221,"noteNumber":85,"velocity":55,"programNumber":40},{"time":62333.27099999988,"duration":55.55550000000221,"noteNumber":83,"velocity":55,"programNumber":40},{"time":62388.82649999988,"duration":55.55550000000221,"noteNumber":85,"velocity":55,"programNumber":40},{"time":62444.38199999988,"duration":222.22200000000157,"noteNumber":81,"velocity":55,"programNumber":40},{"time":62888.825999999885,"duration":111.11099999999715,"noteNumber":81,"velocity":55,"programNumber":40},{"time":63111.04799999988,"duration":111.11099999999715,"noteNumber":81,"velocity":55,"programNumber":40},{"time":63333.26999999987,"duration":111.11099999999715,"noteNumber":81,"velocity":55,"programNumber":40},{"time":63555.49199999987,"duration":111.11099999999715,"noteNumber":81,"velocity":55,"programNumber":40},{"time":63777.71399999986,"duration":111.11099999999715,"noteNumber":81,"velocity":55,"programNumber":40},{"time":63999.935999999856,"duration":55.55550000000221,"noteNumber":83,"velocity":55,"programNumber":40},{"time":64055.49149999986,"duration":55.55550000000221,"noteNumber":85,"velocity":55,"programNumber":40},{"time":64111.04699999986,"duration":55.55550000000221,"noteNumber":83,"velocity":55,"programNumber":40},{"time":64166.60249999986,"duration":55.55550000000221,"noteNumber":85,"velocity":55,"programNumber":40},{"time":64222.157999999865,"duration":222.22200000000157,"noteNumber":81,"velocity":55,"programNumber":40},{"time":64666.60199999987,"duration":166.66649999999936,"noteNumber":81,"velocity":55,"programNumber":40},{"time":64888.82399999987,"duration":222.22200000000157,"noteNumber":86,"velocity":55,"programNumber":40},{"time":65111.04599999987,"duration":222.22200000000157,"noteNumber":85,"velocity":55,"programNumber":40},{"time":65333.26799999987,"duration":222.22200000000157,"noteNumber":83,"velocity":55,"programNumber":40},{"time":65555.48999999987,"duration":222.2219999999943,"noteNumber":81,"velocity":55,"programNumber":40},{"time":65777.71199999987,"duration":55.55550000000221,"noteNumber":83,"velocity":55,"programNumber":40},{"time":65833.26749999987,"duration":55.55550000000221,"noteNumber":85,"velocity":55,"programNumber":40},{"time":65888.82299999987,"duration":55.55550000000221,"noteNumber":83,"velocity":55,"programNumber":40},{"time":65944.37849999988,"duration":55.55550000000221,"noteNumber":85,"velocity":55,"programNumber":40},{"time":65999.93399999988,"duration":222.2219999999943,"noteNumber":81,"velocity":55,"programNumber":40},{"time":66444.37799999987,"duration":111.11100000000442,"noteNumber":81,"velocity":55,"programNumber":40},{"time":66666.59999999987,"duration":111.11100000000442,"noteNumber":81,"velocity":55,"programNumber":40},{"time":66888.82199999988,"duration":111.11100000000442,"noteNumber":81,"velocity":55,"programNumber":40},{"time":67111.04399999989,"duration":111.11100000000442,"noteNumber":81,"velocity":55,"programNumber":40},{"time":67333.2659999999,"duration":111.11100000000442,"noteNumber":81,"velocity":53,"programNumber":40},{"time":67555.48799999991,"duration":55.55550000000221,"noteNumber":83,"velocity":49,"programNumber":40},{"time":67611.04349999991,"duration":55.55550000000221,"noteNumber":85,"velocity":49,"programNumber":40},{"time":67666.59899999991,"duration":55.55550000000221,"noteNumber":83,"velocity":47,"programNumber":40},{"time":67722.15449999992,"duration":55.55550000000221,"noteNumber":85,"velocity":47,"programNumber":40},{"time":67777.70999999992,"duration":222.2219999999943,"noteNumber":81,"velocity":46,"programNumber":40},{"time":68444.37599999992,"duration":629.6290000000008,"noteNumber":83,"velocity":91,"programNumber":40},{"time":68444.37599999992,"duration":629.6290000000008,"noteNumber":71,"velocity":91,"programNumber":40},{"time":69111.04199999991,"duration":74.07399999999325,"noteNumber":81,"velocity":89,"programNumber":40},{"time":69185.1159999999,"duration":74.07399999999325,"noteNumber":79,"velocity":92,"programNumber":40},{"time":69259.1899999999,"duration":74.07399999999325,"noteNumber":78,"velocity":94,"programNumber":40},{"time":69333.2639999999,"duration":444.44400000000314,"noteNumber":79,"velocity":97,"programNumber":40},{"time":70222.1519999999,"duration":629.6290000000008,"noteNumber":69,"velocity":85,"programNumber":40},{"time":70222.1519999999,"duration":629.6290000000008,"noteNumber":81,"velocity":85,"programNumber":40},{"time":70888.8179999999,"duration":74.07399999999325,"noteNumber":79,"velocity":86,"programNumber":40},{"time":70962.89199999989,"duration":74.07399999999325,"noteNumber":78,"velocity":86,"programNumber":40},{"time":71036.96599999988,"duration":74.07399999999325,"noteNumber":76,"velocity":89,"programNumber":40},{"time":71111.03999999988,"duration":444.44400000000314,"noteNumber":78,"velocity":92,"programNumber":40},{"time":71999.92799999988,"duration":222.2219999999943,"noteNumber":83,"velocity":85,"programNumber":40},{"time":72222.14999999988,"duration":111.11100000000442,"noteNumber":85,"velocity":85,"programNumber":40},{"time":72333.26099999988,"duration":111.11100000000442,"noteNumber":86,"velocity":89,"programNumber":40},{"time":72444.37199999989,"duration":166.66650000000664,"noteNumber":85,"velocity":94,"programNumber":40},{"time":72666.5939999999,"duration":111.11100000000442,"noteNumber":83,"velocity":95,"programNumber":40},{"time":72888.8159999999,"duration":222.2219999999943,"noteNumber":83,"velocity":97,"programNumber":40},{"time":73111.0379999999,"duration":166.66650000000664,"noteNumber":81,"velocity":101,"programNumber":40},{"time":73333.25999999991,"duration":111.11100000000442,"noteNumber":78,"velocity":104,"programNumber":40},{"time":73555.48199999992,"duration":111.11100000000442,"noteNumber":81,"velocity":104,"programNumber":40},{"time":73777.70399999993,"duration":222.2219999999943,"noteNumber":81,"velocity":104,"programNumber":40},{"time":73999.92599999992,"duration":166.66650000000664,"noteNumber":79,"velocity":103,"programNumber":40},{"time":74222.14799999993,"duration":111.11100000000442,"noteNumber":78,"velocity":98,"programNumber":40},{"time":74444.36999999994,"duration":111.11100000000442,"noteNumber":76,"velocity":89,"programNumber":40},{"time":74666.59199999995,"duration":444.44400000000314,"noteNumber":74,"velocity":85,"programNumber":40},{"time":75333.25799999994,"duration":111.11100000000442,"noteNumber":81,"velocity":53,"programNumber":40},{"time":75555.47999999995,"duration":222.2219999999943,"noteNumber":86,"velocity":53,"programNumber":40},{"time":75777.70199999995,"duration":222.2219999999943,"noteNumber":85,"velocity":53,"programNumber":40},{"time":75999.92399999994,"duration":222.2219999999943,"noteNumber":83,"velocity":53,"programNumber":40},{"time":76222.14599999994,"duration":222.2219999999943,"noteNumber":81,"velocity":53,"programNumber":40},{"time":76444.36799999993,"duration":55.55550000000221,"noteNumber":83,"velocity":55,"programNumber":40},{"time":76499.92349999993,"duration":55.55550000000221,"noteNumber":85,"velocity":55,"programNumber":40},{"time":76555.47899999993,"duration":55.55550000000221,"noteNumber":83,"velocity":55,"programNumber":40},{"time":76611.03449999994,"duration":55.55550000000221,"noteNumber":85,"velocity":55,"programNumber":40},{"time":76666.58999999994,"duration":222.2219999999943,"noteNumber":81,"velocity":55,"programNumber":40},{"time":77111.03399999993,"duration":111.11100000000442,"noteNumber":81,"velocity":55,"programNumber":40},{"time":77333.25599999994,"duration":111.11100000000442,"noteNumber":81,"velocity":55,"programNumber":40},{"time":77555.47799999994,"duration":111.11100000000442,"noteNumber":81,"velocity":55,"programNumber":40},{"time":77777.69999999995,"duration":111.11100000000442,"noteNumber":81,"velocity":55,"programNumber":40},{"time":77999.92199999996,"duration":111.11100000000442,"noteNumber":81,"velocity":55,"programNumber":40},{"time":78222.14399999997,"duration":55.55550000000221,"noteNumber":83,"velocity":55,"programNumber":40},{"time":78277.69949999997,"duration":55.55550000000221,"noteNumber":85,"velocity":55,"programNumber":40},{"time":78333.25499999998,"duration":55.55550000000221,"noteNumber":83,"velocity":55,"programNumber":40},{"time":78388.81049999998,"duration":55.55550000000221,"noteNumber":85,"velocity":55,"programNumber":40},{"time":78444.36599999998,"duration":222.2219999999943,"noteNumber":81,"velocity":55,"programNumber":40},{"time":78888.80999999997,"duration":166.66650000000664,"noteNumber":81,"velocity":55,"programNumber":40},{"time":79111.03199999998,"duration":222.2219999999943,"noteNumber":86,"velocity":55,"programNumber":40},{"time":79333.25399999997,"duration":222.2219999999943,"noteNumber":85,"velocity":55,"programNumber":40},{"time":79555.47599999997,"duration":222.2219999999943,"noteNumber":83,"velocity":55,"programNumber":40},{"time":79777.69799999996,"duration":222.2219999999943,"noteNumber":81,"velocity":55,"programNumber":40},{"time":79999.91999999995,"duration":55.55550000000221,"noteNumber":83,"velocity":55,"programNumber":40},{"time":80055.47549999996,"duration":55.55550000000221,"noteNumber":85,"velocity":55,"programNumber":40},{"time":80111.03099999996,"duration":55.55550000000221,"noteNumber":83,"velocity":55,"programNumber":40},{"time":80166.58649999996,"duration":55.55550000000221,"noteNumber":85,"velocity":55,"programNumber":40},{"time":80222.14199999996,"duration":222.2219999999943,"noteNumber":81,"velocity":55,"programNumber":40},{"time":80666.58599999995,"duration":111.11100000000442,"noteNumber":81,"velocity":55,"programNumber":40},{"time":80888.80799999996,"duration":111.11100000000442,"noteNumber":81,"velocity":55,"programNumber":40},{"time":81111.02999999997,"duration":111.11100000000442,"noteNumber":81,"velocity":55,"programNumber":40},{"time":81333.25199999998,"duration":111.11100000000442,"noteNumber":81,"velocity":55,"programNumber":40},{"time":81555.47399999999,"duration":111.11100000000442,"noteNumber":81,"velocity":55,"programNumber":40},{"time":81777.696,"duration":55.55550000000221,"noteNumber":83,"velocity":59,"programNumber":40},{"time":81833.2515,"duration":55.55550000000221,"noteNumber":85,"velocity":59,"programNumber":40},{"time":81888.807,"duration":55.55550000000221,"noteNumber":83,"velocity":59,"programNumber":40},{"time":81944.3625,"duration":55.55550000000221,"noteNumber":85,"velocity":59,"programNumber":40},{"time":81999.918,"duration":222.2219999999943,"noteNumber":81,"velocity":59,"programNumber":40},{"time":82666.584,"duration":629.6290000000008,"noteNumber":83,"velocity":85,"programNumber":40},{"time":82666.584,"duration":629.6290000000008,"noteNumber":71,"velocity":85,"programNumber":40},{"time":83333.25,"duration":74.07399999999325,"noteNumber":81,"velocity":85,"programNumber":40},{"time":83407.324,"duration":74.07399999999325,"noteNumber":79,"velocity":85,"programNumber":40},{"time":83481.39799999999,"duration":74.07399999999325,"noteNumber":78,"velocity":85,"programNumber":40},{"time":83555.47199999998,"duration":444.44400000000314,"noteNumber":79,"velocity":85,"programNumber":40},{"time":84444.35999999999,"duration":629.6290000000008,"noteNumber":69,"velocity":85,"programNumber":40},{"time":84444.35999999999,"duration":629.6290000000008,"noteNumber":81,"velocity":85,"programNumber":40},{"time":85111.02599999998,"duration":74.07399999999325,"noteNumber":79,"velocity":85,"programNumber":40},{"time":85185.09999999998,"duration":74.07399999999325,"noteNumber":78,"velocity":85,"programNumber":40},{"time":85259.17399999997,"duration":74.07399999999325,"noteNumber":76,"velocity":85,"programNumber":40},{"time":85333.24799999996,"duration":444.44400000000314,"noteNumber":78,"velocity":85,"programNumber":40},{"time":86222.13599999997,"duration":222.2219999999943,"noteNumber":83,"velocity":80,"programNumber":40},{"time":86444.35799999996,"duration":111.11100000000442,"noteNumber":85,"velocity":82,"programNumber":40},{"time":86555.46899999997,"duration":111.11100000000442,"noteNumber":86,"velocity":83,"programNumber":40},{"time":86666.57999999997,"duration":166.66650000000664,"noteNumber":85,"velocity":83,"programNumber":40},{"time":86888.80199999998,"duration":111.11100000000442,"noteNumber":83,"velocity":85,"programNumber":40},{"time":87111.02399999999,"duration":222.2219999999943,"noteNumber":83,"velocity":86,"programNumber":40},{"time":87333.24599999998,"duration":166.66650000000664,"noteNumber":81,"velocity":88,"programNumber":40},{"time":87555.468,"duration":111.11100000000442,"noteNumber":78,"velocity":88,"programNumber":40},{"time":87777.69,"duration":111.11100000000442,"noteNumber":81,"velocity":88,"programNumber":40},{"time":87999.91200000001,"duration":222.2219999999943,"noteNumber":81,"velocity":88,"programNumber":40},{"time":88222.134,"duration":166.66650000000664,"noteNumber":79,"velocity":88,"programNumber":40},{"time":88444.35600000001,"duration":111.11100000000442,"noteNumber":78,"velocity":88,"programNumber":40},{"time":88666.57800000002,"duration":111.11100000000442,"noteNumber":76,"velocity":88,"programNumber":40},{"time":88888.80000000003,"duration":166.66650000000664,"noteNumber":74,"velocity":88,"programNumber":40},{"time":89111.02200000004,"duration":166.66650000000664,"noteNumber":69,"velocity":88,"programNumber":40},{"time":89333.24400000005,"duration":166.66650000000664,"noteNumber":71,"velocity":88,"programNumber":40},{"time":89555.46600000006,"duration":166.66650000000664,"noteNumber":73,"velocity":85,"programNumber":40},{"time":89777.68800000007,"duration":111.11100000000442,"noteNumber":74,"velocity":82,"programNumber":40},{"time":89999.91000000008,"duration":111.11100000000442,"noteNumber":74,"velocity":85,"programNumber":40},{"time":90222.13200000009,"duration":55.55550000000221,"noteNumber":76,"velocity":85,"programNumber":40},{"time":90277.68750000009,"duration":55.55550000000221,"noteNumber":78,"velocity":85,"programNumber":40},{"time":90333.24300000009,"duration":55.55550000000221,"noteNumber":76,"velocity":85,"programNumber":40},{"time":90388.79850000009,"duration":55.55550000000221,"noteNumber":78,"velocity":85,"programNumber":40},{"time":90444.3540000001,"duration":111.11100000000442,"noteNumber":74,"velocity":85,"programNumber":40},{"time":90555.4650000001,"duration":111.11100000000442,"noteNumber":76,"velocity":85,"programNumber":40},{"time":90666.5760000001,"duration":222.2219999999943,"noteNumber":78,"velocity":85,"programNumber":40},{"time":90888.7980000001,"duration":166.66650000000664,"noteNumber":73,"velocity":85,"programNumber":40},{"time":91111.0200000001,"duration":166.66650000000664,"noteNumber":74,"velocity":85,"programNumber":40},{"time":91333.24200000011,"duration":166.66650000000664,"noteNumber":76,"velocity":85,"programNumber":40},{"time":91555.46400000012,"duration":166.66650000000664,"noteNumber":78,"velocity":85,"programNumber":40},{"time":91777.68600000013,"duration":166.66650000000664,"noteNumber":78,"velocity":85,"programNumber":40},{"time":91999.90800000014,"duration":55.55550000000221,"noteNumber":79,"velocity":85,"programNumber":40},{"time":92055.46350000014,"duration":55.55550000000221,"noteNumber":81,"velocity":86,"programNumber":40},{"time":92111.01900000015,"duration":55.55550000000221,"noteNumber":79,"velocity":88,"programNumber":40},{"time":92166.57450000015,"duration":55.55550000000221,"noteNumber":81,"velocity":88,"programNumber":40},{"time":92222.13000000015,"duration":111.11100000000442,"noteNumber":78,"velocity":88,"programNumber":40},{"time":92333.24100000015,"duration":111.11100000000442,"noteNumber":79,"velocity":88,"programNumber":40},{"time":92444.35200000016,"duration":166.66650000000664,"noteNumber":81,"velocity":88,"programNumber":40},{"time":92666.57400000017,"duration":166.66650000000664,"noteNumber":81,"velocity":91,"programNumber":40},{"time":92888.79600000018,"duration":55.55550000000221,"noteNumber":82,"velocity":92,"programNumber":40},{"time":92944.35150000018,"duration":55.55550000000221,"noteNumber":83,"velocity":92,"programNumber":40},{"time":92999.90700000018,"duration":55.55550000000221,"noteNumber":82,"velocity":94,"programNumber":40},{"time":93055.46250000018,"duration":55.55550000000221,"noteNumber":83,"velocity":94,"programNumber":40},{"time":93111.01800000019,"duration":111.11100000000442,"noteNumber":80,"velocity":95,"programNumber":40},{"time":93222.12900000019,"duration":111.11100000000442,"noteNumber":82,"velocity":97,"programNumber":40},{"time":93333.2400000002,"duration":444.44400000000314,"noteNumber":83,"velocity":100,"programNumber":40},{"time":94222.1280000002,"duration":666.6659999999974,"noteNumber":71,"velocity":47,"programNumber":40},{"time":94888.7940000002,"duration":166.66650000000664,"noteNumber":76,"velocity":47,"programNumber":40},{"time":95111.0160000002,"duration":222.2219999999943,"noteNumber":74,"velocity":47,"programNumber":40},{"time":95333.2380000002,"duration":222.2219999999943,"noteNumber":73,"velocity":47,"programNumber":40},{"time":95555.4600000002,"duration":222.2219999999943,"noteNumber":71,"velocity":49,"programNumber":40},{"time":95777.68200000019,"duration":222.2219999999943,"noteNumber":69,"velocity":50,"programNumber":40},{"time":95999.90400000018,"duration":222.2219999999943,"noteNumber":74,"velocity":50,"programNumber":40},{"time":96444.34800000017,"duration":222.2219999999943,"noteNumber":78,"velocity":50,"programNumber":40},{"time":96888.79200000016,"duration":222.2219999999943,"noteNumber":74,"velocity":41,"programNumber":40},{"time":97777.68000000015,"duration":444.44400000000314,"noteNumber":71,"velocity":85,"programNumber":40},{"time":97777.68000000015,"duration":444.44400000000314,"noteNumber":79,"velocity":85,"programNumber":40},{"time":97777.68000000015,"duration":444.44400000000314,"noteNumber":62,"velocity":85,"programNumber":40},{"time":98444.34600000015,"duration":111.11100000000442,"noteNumber":74,"velocity":85,"programNumber":40},{"time":98666.56800000016,"duration":444.44400000000314,"noteNumber":79,"velocity":85,"programNumber":40},{"time":99333.23400000016,"duration":111.11100000000442,"noteNumber":74,"velocity":85,"programNumber":40},{"time":99555.45600000017,"duration":111.11100000000442,"noteNumber":79,"velocity":85,"programNumber":40},{"time":99777.67800000017,"duration":111.11100000000442,"noteNumber":74,"velocity":85,"programNumber":40},{"time":99999.90000000018,"duration":111.11100000000442,"noteNumber":79,"velocity":85,"programNumber":40},{"time":100222.12200000019,"duration":111.11100000000442,"noteNumber":83,"velocity":85,"programNumber":40},{"time":100444.3440000002,"duration":444.44400000000314,"noteNumber":86,"velocity":85,"programNumber":40},{"time":101333.23200000021,"duration":444.44400000000314,"noteNumber":84,"velocity":85,"programNumber":40},{"time":101999.8980000002,"duration":111.11100000000442,"noteNumber":81,"velocity":76,"programNumber":40},{"time":102222.12000000021,"duration":444.44400000000314,"noteNumber":84,"velocity":85,"programNumber":40},{"time":102888.78600000021,"duration":111.11100000000442,"noteNumber":81,"velocity":76,"programNumber":40},{"time":103111.00800000022,"duration":111.11100000000442,"noteNumber":84,"velocity":85,"programNumber":40},{"time":103333.23000000023,"duration":111.11100000000442,"noteNumber":81,"velocity":74,"programNumber":40},{"time":103555.45200000024,"duration":111.11100000000442,"noteNumber":78,"velocity":85,"programNumber":40},{"time":103777.67400000025,"duration":111.11100000000442,"noteNumber":81,"velocity":71,"programNumber":40},{"time":103999.89600000026,"duration":444.44400000000314,"noteNumber":74,"velocity":85,"programNumber":40},{"time":104888.78400000026,"duration":222.2219999999943,"noteNumber":71,"velocity":85,"programNumber":40},{"time":104888.78400000026,"duration":222.2219999999943,"noteNumber":79,"velocity":85,"programNumber":40},{"time":104888.78400000026,"duration":222.2219999999943,"noteNumber":62,"velocity":85,"programNumber":40},{"time":105333.22800000025,"duration":666.6659999999974,"noteNumber":79,"velocity":85,"programNumber":40},{"time":105999.89400000025,"duration":222.2219999999943,"noteNumber":83,"velocity":85,"programNumber":40},{"time":106222.11600000024,"duration":111.11100000000442,"noteNumber":81,"velocity":85,"programNumber":40},{"time":106444.33800000025,"duration":111.11100000000442,"noteNumber":79,"velocity":85,"programNumber":40},{"time":106666.56000000026,"duration":55.55550000000221,"noteNumber":79,"velocity":85,"programNumber":40},{"time":106722.11550000026,"duration":55.55550000000221,"noteNumber":81,"velocity":85,"programNumber":40},{"time":106777.67100000026,"duration":55.55550000000221,"noteNumber":79,"velocity":85,"programNumber":40},{"time":106833.22650000027,"duration":55.55550000000221,"noteNumber":81,"velocity":85,"programNumber":40},{"time":106888.78200000027,"duration":185.18499999999767,"noteNumber":78,"velocity":85,"programNumber":40},{"time":107111.00400000026,"duration":666.6659999999974,"noteNumber":78,"velocity":85,"programNumber":40},{"time":107777.67000000026,"duration":222.2219999999943,"noteNumber":81,"velocity":85,"programNumber":40},{"time":107999.89200000025,"duration":111.11100000000442,"noteNumber":84,"velocity":85,"programNumber":40},{"time":108222.11400000026,"duration":111.11100000000442,"noteNumber":78,"velocity":85,"programNumber":40},{"time":108444.33600000027,"duration":222.2219999999943,"noteNumber":81,"velocity":85,"programNumber":40},{"time":108666.55800000027,"duration":111.11100000000442,"noteNumber":79,"velocity":85,"programNumber":40},{"time":108888.78000000028,"duration":666.6659999999974,"noteNumber":79,"velocity":85,"programNumber":40},{"time":109555.44600000027,"duration":222.2219999999943,"noteNumber":83,"velocity":85,"programNumber":40},{"time":109777.66800000027,"duration":111.11100000000442,"noteNumber":81,"velocity":85,"programNumber":40},{"time":109999.89000000028,"duration":111.11100000000442,"noteNumber":79,"velocity":85,"programNumber":40},{"time":110222.11200000028,"duration":55.55550000000221,"noteNumber":79,"velocity":85,"programNumber":40},{"time":110277.66750000029,"duration":55.55550000000221,"noteNumber":81,"velocity":85,"programNumber":40},{"time":110333.22300000029,"duration":55.55550000000221,"noteNumber":79,"velocity":85,"programNumber":40},{"time":110388.77850000029,"duration":55.55550000000221,"noteNumber":81,"velocity":85,"programNumber":40},{"time":110444.3340000003,"duration":185.18499999999767,"noteNumber":78,"velocity":85,"programNumber":40},{"time":110666.55600000029,"duration":666.6659999999974,"noteNumber":78,"velocity":85,"programNumber":40},{"time":111333.22200000029,"duration":222.2219999999943,"noteNumber":81,"velocity":85,"programNumber":40},{"time":111555.44400000028,"duration":111.11100000000442,"noteNumber":84,"velocity":85,"programNumber":40},{"time":111777.66600000029,"duration":111.11100000000442,"noteNumber":78,"velocity":85,"programNumber":40},{"time":111999.8880000003,"duration":111.11100000000442,"noteNumber":79,"velocity":85,"programNumber":40},{"time":112222.1100000003,"duration":111.11100000000442,"noteNumber":79,"velocity":85,"programNumber":40},{"time":112444.33200000032,"duration":111.11100000000442,"noteNumber":79,"velocity":85,"programNumber":40},{"time":112555.44300000032,"duration":111.11100000000442,"noteNumber":78,"velocity":85,"programNumber":40},{"time":112666.55400000032,"duration":111.11100000000442,"noteNumber":76,"velocity":85,"programNumber":40},{"time":112777.66500000033,"duration":111.11100000000442,"noteNumber":78,"velocity":85,"programNumber":40},{"time":112888.77600000033,"duration":111.11100000000442,"noteNumber":79,"velocity":85,"programNumber":40},{"time":113110.99800000034,"duration":111.11100000000442,"noteNumber":79,"velocity":85,"programNumber":40},{"time":113333.22000000035,"duration":111.11100000000442,"noteNumber":83,"velocity":85,"programNumber":40},{"time":113444.33100000035,"duration":111.11100000000442,"noteNumber":81,"velocity":85,"programNumber":40},{"time":113555.44200000036,"duration":111.11100000000442,"noteNumber":79,"velocity":85,"programNumber":40},{"time":113666.55300000036,"duration":111.11100000000442,"noteNumber":81,"velocity":85,"programNumber":40},{"time":113777.66400000037,"duration":111.11100000000442,"noteNumber":83,"velocity":85,"programNumber":40},{"time":113999.88600000038,"duration":111.11100000000442,"noteNumber":83,"velocity":85,"programNumber":40},{"time":114222.10800000039,"duration":111.11100000000442,"noteNumber":86,"velocity":85,"programNumber":40},{"time":114333.21900000039,"duration":111.11100000000442,"noteNumber":84,"velocity":85,"programNumber":40},{"time":114444.3300000004,"duration":111.11100000000442,"noteNumber":83,"velocity":85,"programNumber":40},{"time":114555.4410000004,"duration":111.11100000000442,"noteNumber":84,"velocity":85,"programNumber":40},{"time":114666.5520000004,"duration":444.44400000000314,"noteNumber":86,"velocity":85,"programNumber":40},{"time":115555.44000000041,"duration":888.8880000000063,"noteNumber":74,"velocity":52,"programNumber":40},{"time":116444.32800000042,"duration":888.8880000000063,"noteNumber":76,"velocity":40,"programNumber":40},{"time":117333.21600000042,"duration":111.11100000000442,"noteNumber":74,"velocity":44,"programNumber":40},{"time":117444.32700000043,"duration":296.2960000000021,"noteNumber":72,"velocity":46,"programNumber":40},{"time":117777.66000000043,"duration":444.44400000000314,"noteNumber":72,"velocity":46,"programNumber":40},{"time":118222.10400000043,"duration":111.11100000000442,"noteNumber":72,"velocity":47,"programNumber":40},{"time":118333.21500000043,"duration":296.2960000000021,"noteNumber":71,"velocity":47,"programNumber":40},{"time":118666.54800000043,"duration":444.44400000000314,"noteNumber":71,"velocity":47,"programNumber":40},{"time":119110.99200000043,"duration":111.11100000000442,"noteNumber":71,"velocity":47,"programNumber":40},{"time":119222.10300000044,"duration":296.2960000000021,"noteNumber":69,"velocity":47,"programNumber":40},{"time":119555.43600000044,"duration":444.44400000000314,"noteNumber":69,"velocity":47,"programNumber":40},{"time":119999.88000000044,"duration":222.2219999999943,"noteNumber":67,"velocity":47,"programNumber":40},{"time":120222.10200000044,"duration":111.11100000000442,"noteNumber":66,"velocity":47,"programNumber":40},{"time":120444.32400000044,"duration":111.11100000000442,"noteNumber":64,"velocity":47,"programNumber":40},{"time":120666.54600000045,"duration":111.11100000000442,"noteNumber":66,"velocity":47,"programNumber":40},{"time":120888.76800000046,"duration":222.2219999999943,"noteNumber":67,"velocity":47,"programNumber":40},{"time":121333.21200000045,"duration":222.2219999999943,"noteNumber":69,"velocity":47,"programNumber":40},{"time":121777.65600000044,"duration":222.2219999999943,"noteNumber":71,"velocity":47,"programNumber":40},{"time":122666.54400000043,"duration":888.8880000000063,"noteNumber":74,"velocity":54,"programNumber":40},{"time":123555.43200000044,"duration":888.8880000000063,"noteNumber":76,"velocity":59,"programNumber":40},{"time":124444.32000000044,"duration":222.2219999999943,"noteNumber":74,"velocity":47,"programNumber":40},{"time":124666.54200000044,"duration":111.11100000000442,"noteNumber":72,"velocity":47,"programNumber":40},{"time":124888.76400000045,"duration":111.11100000000442,"noteNumber":72,"velocity":47,"programNumber":40},{"time":125110.98600000046,"duration":111.11100000000442,"noteNumber":72,"velocity":47,"programNumber":40},{"time":125333.20800000046,"duration":222.2219999999943,"noteNumber":72,"velocity":47,"programNumber":40},{"time":125555.43000000046,"duration":111.11100000000442,"noteNumber":71,"velocity":47,"programNumber":40},{"time":125777.65200000047,"duration":111.11100000000442,"noteNumber":71,"velocity":47,"programNumber":40},{"time":125999.87400000048,"duration":111.11100000000442,"noteNumber":71,"velocity":47,"programNumber":40},{"time":126222.09600000049,"duration":222.2219999999943,"noteNumber":71,"velocity":47,"programNumber":40},{"time":126444.31800000048,"duration":111.11100000000442,"noteNumber":69,"velocity":47,"programNumber":40},{"time":126666.54000000049,"duration":166.66650000000664,"noteNumber":69,"velocity":47,"programNumber":40},{"time":126888.7620000005,"duration":166.66650000000664,"noteNumber":69,"velocity":47,"programNumber":40},{"time":127110.9840000005,"duration":222.2219999999943,"noteNumber":67,"velocity":47,"programNumber":40},{"time":127333.2060000005,"duration":222.2219999999943,"noteNumber":66,"velocity":47,"programNumber":40},{"time":127555.4280000005,"duration":222.2219999999943,"noteNumber":64,"velocity":47,"programNumber":40},{"time":127777.65000000049,"duration":222.2219999999943,"noteNumber":66,"velocity":47,"programNumber":40},{"time":127999.87200000048,"duration":1111.1100000000006,"noteNumber":67,"velocity":95,"programNumber":40},{"time":127999.87200000048,"duration":1111.1100000000006,"noteNumber":55,"velocity":95,"programNumber":40},{"time":129110.98200000048,"duration":55.55550000000221,"noteNumber":67,"velocity":61,"programNumber":40},{"time":129166.53750000049,"duration":55.55550000000221,"noteNumber":69,"velocity":61,"programNumber":40},{"time":129222.09300000049,"duration":55.55550000000221,"noteNumber":66,"velocity":61,"programNumber":40},{"time":129277.64850000049,"duration":55.55550000000221,"noteNumber":67,"velocity":61,"programNumber":40},{"time":129333.20400000049,"duration":222.2219999999943,"noteNumber":69,"velocity":61,"programNumber":40},{"time":129555.42600000049,"duration":222.2219999999943,"noteNumber":66,"velocity":61,"programNumber":40},{"time":129777.64800000048,"duration":1111.1100000000006,"noteNumber":71,"velocity":85,"programNumber":40},{"time":130888.75800000048,"duration":55.55550000000221,"noteNumber":71,"velocity":61,"programNumber":40},{"time":130944.31350000048,"duration":55.55550000000221,"noteNumber":72,"velocity":61,"programNumber":40},{"time":130999.86900000049,"duration":55.55550000000221,"noteNumber":69,"velocity":61,"programNumber":40},{"time":131055.42450000049,"duration":55.55549999998766,"noteNumber":71,"velocity":61,"programNumber":40},{"time":131110.98000000048,"duration":222.22200000000885,"noteNumber":72,"velocity":61,"programNumber":40},{"time":131333.20200000048,"duration":222.22200000000885,"noteNumber":69,"velocity":61,"programNumber":40},{"time":131555.4240000005,"duration":74.07399999999325,"noteNumber":74,"velocity":46,"programNumber":40},{"time":131666.5350000005,"duration":74.07399999999325,"noteNumber":74,"velocity":46,"programNumber":40},{"time":131777.6460000005,"duration":74.07399999999325,"noteNumber":74,"velocity":47,"programNumber":40},{"time":131888.7570000005,"duration":74.07399999999325,"noteNumber":74,"velocity":47,"programNumber":40},{"time":131999.8680000005,"duration":74.07399999999325,"noteNumber":74,"velocity":49,"programNumber":40},{"time":132110.97900000052,"duration":74.07399999999325,"noteNumber":74,"velocity":50,"programNumber":40},{"time":132222.09000000052,"duration":74.07399999999325,"noteNumber":74,"velocity":50,"programNumber":40},{"time":132333.20100000052,"duration":74.07399999999325,"noteNumber":74,"velocity":52,"programNumber":40},{"time":132444.31200000053,"duration":74.07399999999325,"noteNumber":76,"velocity":53,"programNumber":40},{"time":132555.42300000053,"duration":74.07399999999325,"noteNumber":76,"velocity":53,"programNumber":40},{"time":132666.53400000054,"duration":74.07399999999325,"noteNumber":76,"velocity":55,"programNumber":40},{"time":132777.64500000054,"duration":74.07399999999325,"noteNumber":76,"velocity":56,"programNumber":40},{"time":132888.75600000055,"duration":74.07399999999325,"noteNumber":78,"velocity":56,"programNumber":40},{"time":132999.86700000055,"duration":74.07399999999325,"noteNumber":78,"velocity":58,"programNumber":40},{"time":133110.97800000056,"duration":74.07399999999325,"noteNumber":78,"velocity":58,"programNumber":40},{"time":133222.08900000056,"duration":74.07399999999325,"noteNumber":78,"velocity":59,"programNumber":40},{"time":133333.20000000056,"duration":74.07399999999325,"noteNumber":79,"velocity":61,"programNumber":40},{"time":133444.31100000057,"duration":74.07399999999325,"noteNumber":79,"velocity":61,"programNumber":40},{"time":133555.42200000057,"duration":74.07399999999325,"noteNumber":79,"velocity":62,"programNumber":40},{"time":133666.53300000058,"duration":74.07399999999325,"noteNumber":79,"velocity":64,"programNumber":40},{"time":133777.64400000058,"duration":74.07399999999325,"noteNumber":81,"velocity":64,"programNumber":40},{"time":133888.7550000006,"duration":74.07399999999325,"noteNumber":81,"velocity":65,"programNumber":40},{"time":133999.8660000006,"duration":74.07399999999325,"noteNumber":81,"velocity":67,"programNumber":40},{"time":134110.9770000006,"duration":74.07399999999325,"noteNumber":81,"velocity":67,"programNumber":40},{"time":134222.0880000006,"duration":74.07399999999325,"noteNumber":83,"velocity":68,"programNumber":40},{"time":134333.1990000006,"duration":74.07399999999325,"noteNumber":83,"velocity":68,"programNumber":40},{"time":134444.3100000006,"duration":74.07399999999325,"noteNumber":83,"velocity":70,"programNumber":40},{"time":134555.4210000006,"duration":74.07399999999325,"noteNumber":83,"velocity":71,"programNumber":40},{"time":134666.53200000062,"duration":74.07399999999325,"noteNumber":85,"velocity":71,"programNumber":40},{"time":134777.64300000062,"duration":74.07399999999325,"noteNumber":85,"velocity":73,"programNumber":40},{"time":134888.75400000063,"duration":74.07399999999325,"noteNumber":85,"velocity":74,"programNumber":40},{"time":134999.86500000063,"duration":74.07399999999325,"noteNumber":85,"velocity":74,"programNumber":40},{"time":135110.97600000064,"duration":666.6659999999974,"noteNumber":86,"velocity":92,"programNumber":40},{"time":135777.64200000063,"duration":222.22200000000885,"noteNumber":81,"velocity":85,"programNumber":40},{"time":135999.86400000064,"duration":333.33300000001327,"noteNumber":85,"velocity":85,"programNumber":40},{"time":136333.19700000065,"duration":111.11100000000442,"noteNumber":81,"velocity":85,"programNumber":40},{"time":136444.30800000066,"duration":333.33300000001327,"noteNumber":85,"velocity":85,"programNumber":40},{"time":136777.64100000067,"duration":111.11100000000442,"noteNumber":81,"velocity":85,"programNumber":40},{"time":136888.75200000068,"duration":666.6659999999974,"noteNumber":86,"velocity":98,"programNumber":40},{"time":137555.41800000067,"duration":222.22200000000885,"noteNumber":81,"velocity":85,"programNumber":40},{"time":137777.64000000068,"duration":333.33300000001327,"noteNumber":85,"velocity":85,"programNumber":40},{"time":138110.9730000007,"duration":111.11100000000442,"noteNumber":81,"velocity":85,"programNumber":40},{"time":138222.0840000007,"duration":333.33300000001327,"noteNumber":85,"velocity":85,"programNumber":40},{"time":138555.4170000007,"duration":111.11100000000442,"noteNumber":81,"velocity":85,"programNumber":40},{"time":138666.52800000072,"duration":111.11100000000442,"noteNumber":86,"velocity":85,"programNumber":40},{"time":138888.75000000073,"duration":333.33300000001327,"noteNumber":86,"velocity":98,"programNumber":40},{"time":138888.75000000073,"duration":333.33300000001327,"noteNumber":78,"velocity":98,"programNumber":40},{"time":139333.19400000075,"duration":333.33300000001327,"noteNumber":86,"velocity":85,"programNumber":40},{"time":139333.19400000075,"duration":333.33300000001327,"noteNumber":78,"velocity":85,"programNumber":40},{"time":139777.63800000076,"duration":333.33300000001327,"noteNumber":86,"velocity":85,"programNumber":40},{"time":139777.63800000076,"duration":333.33300000001327,"noteNumber":78,"velocity":85,"programNumber":40},{"time":140222.08200000078,"duration":222.22200000000885,"noteNumber":78,"velocity":85,"programNumber":40},{"time":140444.3040000008,"duration":111.11100000000442,"noteNumber":76,"velocity":85,"programNumber":40},{"time":140222.08200000078,"duration":333.33300000001327,"noteNumber":86,"velocity":85,"programNumber":40},{"time":140666.5260000008,"duration":333.33300000001327,"noteNumber":86,"velocity":85,"programNumber":40},{"time":140666.5260000008,"duration":333.33300000001327,"noteNumber":76,"velocity":85,"programNumber":40},{"time":141110.97000000082,"duration":333.33300000001327,"noteNumber":86,"velocity":85,"programNumber":40},{"time":141110.97000000082,"duration":333.33300000001327,"noteNumber":76,"velocity":85,"programNumber":40},{"time":141555.41400000083,"duration":333.33300000001327,"noteNumber":86,"velocity":85,"programNumber":40},{"time":141555.41400000083,"duration":333.33300000001327,"noteNumber":76,"velocity":85,"programNumber":40},{"time":141999.85800000085,"duration":222.22200000000885,"noteNumber":86,"velocity":85,"programNumber":40},{"time":141999.85800000085,"duration":222.22200000000885,"noteNumber":76,"velocity":85,"programNumber":40},{"time":142222.08000000086,"duration":166.66649999999208,"noteNumber":85,"velocity":97,"programNumber":40},{"time":142222.08000000086,"duration":166.66649999999208,"noteNumber":76,"velocity":97,"programNumber":40},{"time":142444.30200000084,"duration":166.66649999999208,"noteNumber":81,"velocity":85,"programNumber":40},{"time":142666.52400000082,"duration":166.66649999999208,"noteNumber":86,"velocity":85,"programNumber":40},{"time":142888.7460000008,"duration":166.66649999999208,"noteNumber":81,"velocity":85,"programNumber":40},{"time":143110.96800000078,"duration":166.66649999999208,"noteNumber":85,"velocity":85,"programNumber":40},{"time":143333.19000000076,"duration":166.66649999999208,"noteNumber":81,"velocity":85,"programNumber":40},{"time":143555.41200000074,"duration":166.66649999999208,"noteNumber":86,"velocity":85,"programNumber":40},{"time":143777.63400000072,"duration":166.66649999999208,"noteNumber":81,"velocity":85,"programNumber":40},{"time":143999.8560000007,"duration":166.66649999999208,"noteNumber":85,"velocity":97,"programNumber":40},{"time":144222.07800000068,"duration":166.66649999999208,"noteNumber":69,"velocity":85,"programNumber":40},{"time":144444.30000000066,"duration":166.66649999999208,"noteNumber":69,"velocity":85,"programNumber":40},{"time":144666.52200000064,"duration":166.66649999999208,"noteNumber":69,"velocity":85,"programNumber":40},{"time":144888.74400000062,"duration":444.4439999999886,"noteNumber":69,"velocity":85,"programNumber":40},{"time":145777.6320000006,"duration":666.6659999999974,"noteNumber":81,"velocity":55,"programNumber":40},{"time":146444.2980000006,"duration":74.07399999999325,"noteNumber":79,"velocity":55,"programNumber":40},{"time":146518.37200000059,"duration":74.07399999999325,"noteNumber":78,"velocity":55,"programNumber":40},{"time":146592.44600000058,"duration":74.07399999999325,"noteNumber":76,"velocity":55,"programNumber":40},{"time":146666.52000000057,"duration":222.22200000000885,"noteNumber":74,"velocity":55,"programNumber":40},{"time":147110.9640000006,"duration":222.22200000000885,"noteNumber":83,"velocity":55,"programNumber":40},{"time":147555.4080000006,"duration":222.22200000000885,"noteNumber":79,"velocity":55,"programNumber":40},{"time":147999.85200000062,"duration":222.22200000000885,"noteNumber":76,"velocity":55,"programNumber":40},{"time":148444.29600000064,"duration":222.22200000000885,"noteNumber":81,"velocity":55,"programNumber":40},{"time":149333.18400000065,"duration":666.6659999999974,"noteNumber":78,"velocity":55,"programNumber":40},{"time":149999.85000000065,"duration":74.07399999999325,"noteNumber":76,"velocity":55,"programNumber":40},{"time":150073.92400000064,"duration":74.07399999999325,"noteNumber":74,"velocity":55,"programNumber":40},{"time":150147.99800000063,"duration":74.07399999999325,"noteNumber":73,"velocity":55,"programNumber":40},{"time":150222.07200000063,"duration":222.22200000000885,"noteNumber":71,"velocity":55,"programNumber":40},{"time":150666.51600000064,"duration":222.22200000000885,"noteNumber":79,"velocity":55,"programNumber":40},{"time":151110.96000000066,"duration":888.8880000000063,"noteNumber":78,"velocity":55,"programNumber":40},{"time":151999.84800000067,"duration":444.4439999999886,"noteNumber":76,"velocity":43,"programNumber":40},{"time":153110.95800000065,"duration":111.11100000000442,"noteNumber":81,"velocity":55,"programNumber":40},{"time":153333.18000000066,"duration":111.11100000000442,"noteNumber":81,"velocity":55,"programNumber":40},{"time":153555.40200000067,"duration":111.11100000000442,"noteNumber":81,"velocity":55,"programNumber":40},{"time":153777.62400000068,"duration":111.11100000000442,"noteNumber":81,"velocity":55,"programNumber":40},{"time":153999.8460000007,"duration":111.11100000000442,"noteNumber":81,"velocity":55,"programNumber":40},{"time":154222.0680000007,"duration":111.11100000000442,"noteNumber":81,"velocity":55,"programNumber":40},{"time":154444.2900000007,"duration":111.11100000000442,"noteNumber":81,"velocity":55,"programNumber":40},{"time":154666.51200000072,"duration":111.11100000000442,"noteNumber":81,"velocity":55,"programNumber":40},{"time":154888.73400000072,"duration":111.11100000000442,"noteNumber":81,"velocity":55,"programNumber":40},{"time":155110.95600000073,"duration":111.11100000000442,"noteNumber":81,"velocity":55,"programNumber":40},{"time":155333.17800000074,"duration":111.11100000000442,"noteNumber":81,"velocity":55,"programNumber":40},{"time":155555.40000000075,"duration":111.11100000000442,"noteNumber":81,"velocity":55,"programNumber":40},{"time":155777.62200000076,"duration":111.11100000000442,"noteNumber":81,"velocity":55,"programNumber":40},{"time":155999.84400000077,"duration":111.11100000000442,"noteNumber":83,"velocity":55,"programNumber":40},{"time":156222.06600000078,"duration":111.11100000000442,"noteNumber":85,"velocity":55,"programNumber":40},{"time":156444.2880000008,"duration":222.22200000000885,"noteNumber":85,"velocity":55,"programNumber":40},{"time":156666.5100000008,"duration":222.22200000000885,"noteNumber":86,"velocity":55,"programNumber":40},{"time":157110.9540000008,"duration":111.11100000000442,"noteNumber":83,"velocity":55,"programNumber":40},{"time":157333.17600000082,"duration":222.22200000000885,"noteNumber":83,"velocity":55,"programNumber":40},{"time":157555.39800000083,"duration":222.22200000000885,"noteNumber":81,"velocity":55,"programNumber":40},{"time":157999.84200000085,"duration":166.66649999999208,"noteNumber":73,"velocity":55,"programNumber":40},{"time":158222.06400000083,"duration":444.4439999999886,"noteNumber":74,"velocity":55,"programNumber":40},{"time":158888.73000000083,"duration":111.11100000000442,"noteNumber":81,"velocity":55,"programNumber":40},{"time":159110.95200000083,"duration":222.22200000000885,"noteNumber":86,"velocity":55,"programNumber":40},{"time":159333.17400000084,"duration":222.22200000000885,"noteNumber":85,"velocity":55,"programNumber":40},{"time":159555.39600000085,"duration":222.22200000000885,"noteNumber":83,"velocity":55,"programNumber":40},{"time":159777.61800000086,"duration":222.22200000000885,"noteNumber":81,"velocity":55,"programNumber":40},{"time":159999.84000000087,"duration":55.55549999998766,"noteNumber":83,"velocity":55,"programNumber":40},{"time":160055.39550000086,"duration":55.55549999998766,"noteNumber":85,"velocity":55,"programNumber":40},{"time":160110.95100000084,"duration":55.55549999998766,"noteNumber":83,"velocity":55,"programNumber":40},{"time":160166.50650000083,"duration":55.55549999998766,"noteNumber":85,"velocity":55,"programNumber":40},{"time":160222.06200000082,"duration":222.22200000000885,"noteNumber":81,"velocity":55,"programNumber":40},{"time":160666.50600000084,"duration":111.11100000000442,"noteNumber":81,"velocity":55,"programNumber":40},{"time":160888.72800000085,"duration":111.11100000000442,"noteNumber":81,"velocity":55,"programNumber":40},{"time":161110.95000000086,"duration":111.11100000000442,"noteNumber":81,"velocity":55,"programNumber":40},{"time":161333.17200000086,"duration":111.11100000000442,"noteNumber":81,"velocity":55,"programNumber":40},{"time":161555.39400000087,"duration":111.11100000000442,"noteNumber":81,"velocity":55,"programNumber":40},{"time":161777.61600000088,"duration":55.55549999998766,"noteNumber":83,"velocity":55,"programNumber":40},{"time":161833.17150000087,"duration":55.55549999998766,"noteNumber":85,"velocity":55,"programNumber":40},{"time":161888.72700000086,"duration":55.55549999998766,"noteNumber":83,"velocity":55,"programNumber":40},{"time":161944.28250000085,"duration":55.55549999998766,"noteNumber":85,"velocity":55,"programNumber":40},{"time":161999.83800000083,"duration":222.22200000000885,"noteNumber":81,"velocity":55,"programNumber":40},{"time":162444.28200000085,"duration":166.66649999999208,"noteNumber":81,"velocity":55,"programNumber":40},{"time":162666.50400000083,"duration":222.22200000000885,"noteNumber":86,"velocity":55,"programNumber":40},{"time":162888.72600000084,"duration":222.22200000000885,"noteNumber":85,"velocity":55,"programNumber":40},{"time":163110.94800000085,"duration":222.22200000000885,"noteNumber":83,"velocity":55,"programNumber":40},{"time":163333.17000000086,"duration":222.22200000000885,"noteNumber":81,"velocity":55,"programNumber":40},{"time":163555.39200000087,"duration":55.55549999998766,"noteNumber":83,"velocity":55,"programNumber":40},{"time":163610.94750000085,"duration":55.55549999998766,"noteNumber":85,"velocity":55,"programNumber":40},{"time":163666.50300000084,"duration":55.55549999998766,"noteNumber":83,"velocity":55,"programNumber":40},{"time":163722.05850000083,"duration":55.55549999998766,"noteNumber":85,"velocity":55,"programNumber":40},{"time":163777.61400000082,"duration":222.22200000000885,"noteNumber":81,"velocity":55,"programNumber":40},{"time":164222.05800000083,"duration":111.11100000000442,"noteNumber":81,"velocity":55,"programNumber":40},{"time":164444.28000000084,"duration":111.11100000000442,"noteNumber":81,"velocity":55,"programNumber":40},{"time":164666.50200000085,"duration":111.11100000000442,"noteNumber":81,"velocity":55,"programNumber":40},{"time":164888.72400000086,"duration":111.11100000000442,"noteNumber":81,"velocity":55,"programNumber":40},{"time":165110.94600000087,"duration":111.11100000000442,"noteNumber":81,"velocity":55,"programNumber":40},{"time":165333.16800000088,"duration":55.55549999998766,"noteNumber":83,"velocity":55,"programNumber":40},{"time":165388.72350000087,"duration":55.55549999998766,"noteNumber":85,"velocity":55,"programNumber":40},{"time":165444.27900000085,"duration":55.55549999998766,"noteNumber":83,"velocity":55,"programNumber":40},{"time":165499.83450000084,"duration":55.55549999998766,"noteNumber":85,"velocity":55,"programNumber":40},{"time":165555.39000000083,"duration":222.22200000000885,"noteNumber":81,"velocity":55,"programNumber":40},{"time":166222.05600000083,"duration":629.6289999999863,"noteNumber":83,"velocity":94,"programNumber":40},{"time":166222.05600000083,"duration":629.6289999999863,"noteNumber":71,"velocity":94,"programNumber":40},{"time":166888.72200000082,"duration":74.07399999999325,"noteNumber":81,"velocity":83,"programNumber":40},{"time":166962.79600000082,"duration":74.07399999999325,"noteNumber":79,"velocity":83,"programNumber":40},{"time":167036.8700000008,"duration":74.07399999999325,"noteNumber":78,"velocity":83,"programNumber":40},{"time":167110.9440000008,"duration":444.4439999999886,"noteNumber":79,"velocity":83,"programNumber":40},{"time":167999.83200000078,"duration":629.6289999999863,"noteNumber":69,"velocity":85,"programNumber":40},{"time":167999.83200000078,"duration":629.6289999999863,"noteNumber":81,"velocity":85,"programNumber":40},{"time":168666.49800000078,"duration":74.07399999999325,"noteNumber":79,"velocity":85,"programNumber":40},{"time":168740.57200000077,"duration":74.07399999999325,"noteNumber":78,"velocity":85,"programNumber":40},{"time":168814.64600000076,"duration":74.07399999999325,"noteNumber":76,"velocity":85,"programNumber":40},{"time":168888.72000000076,"duration":444.4439999999886,"noteNumber":78,"velocity":85,"programNumber":40},{"time":169777.60800000074,"duration":222.22200000000885,"noteNumber":83,"velocity":79,"programNumber":40},{"time":169999.83000000074,"duration":111.11100000000442,"noteNumber":85,"velocity":80,"programNumber":40},{"time":170110.94100000075,"duration":111.11100000000442,"noteNumber":86,"velocity":82,"programNumber":40},{"time":170222.05200000075,"duration":166.66649999999208,"noteNumber":85,"velocity":82,"programNumber":40},{"time":170444.27400000073,"duration":111.11100000000442,"noteNumber":83,"velocity":82,"programNumber":40},{"time":170666.49600000074,"duration":222.22200000000885,"noteNumber":83,"velocity":83,"programNumber":40},{"time":170888.71800000075,"duration":166.66649999999208,"noteNumber":81,"velocity":86,"programNumber":40},{"time":171110.94000000073,"duration":111.11100000000442,"noteNumber":78,"velocity":86,"programNumber":40},{"time":171333.16200000074,"duration":111.11100000000442,"noteNumber":81,"velocity":88,"programNumber":40},{"time":171555.38400000075,"duration":222.22200000000885,"noteNumber":81,"velocity":88,"programNumber":40},{"time":171777.60600000076,"duration":166.66649999999208,"noteNumber":79,"velocity":83,"programNumber":40},{"time":171999.82800000074,"duration":111.11100000000442,"noteNumber":78,"velocity":79,"programNumber":40},{"time":172222.05000000075,"duration":111.11100000000442,"noteNumber":76,"velocity":76,"programNumber":40},{"time":172444.27200000075,"duration":444.4439999999886,"noteNumber":74,"velocity":85,"programNumber":40},{"time":173110.93800000075,"duration":111.11100000000442,"noteNumber":81,"velocity":53,"programNumber":40},{"time":173333.16000000076,"duration":222.22200000000885,"noteNumber":86,"velocity":53,"programNumber":40},{"time":173555.38200000077,"duration":222.22200000000885,"noteNumber":85,"velocity":53,"programNumber":40},{"time":173777.60400000078,"duration":222.22200000000885,"noteNumber":83,"velocity":53,"programNumber":40},{"time":173999.8260000008,"duration":222.22200000000885,"noteNumber":81,"velocity":53,"programNumber":40},{"time":174222.0480000008,"duration":55.55549999998766,"noteNumber":83,"velocity":55,"programNumber":40},{"time":174277.60350000078,"duration":55.55549999998766,"noteNumber":85,"velocity":55,"programNumber":40},{"time":174333.15900000077,"duration":55.55549999998766,"noteNumber":83,"velocity":55,"programNumber":40},{"time":174388.71450000076,"duration":55.55549999998766,"noteNumber":85,"velocity":55,"programNumber":40},{"time":174444.27000000075,"duration":222.22200000000885,"noteNumber":81,"velocity":55,"programNumber":40},{"time":174888.71400000076,"duration":111.11100000000442,"noteNumber":81,"velocity":55,"programNumber":40},{"time":175110.93600000077,"duration":111.11100000000442,"noteNumber":81,"velocity":55,"programNumber":40},{"time":175333.15800000078,"duration":111.11100000000442,"noteNumber":81,"velocity":55,"programNumber":40},{"time":175555.3800000008,"duration":111.11100000000442,"noteNumber":81,"velocity":55,"programNumber":40},{"time":175777.6020000008,"duration":111.11100000000442,"noteNumber":81,"velocity":55,"programNumber":40},{"time":175999.8240000008,"duration":55.55549999998766,"noteNumber":83,"velocity":55,"programNumber":40},{"time":176055.3795000008,"duration":55.55549999998766,"noteNumber":85,"velocity":55,"programNumber":40},{"time":176110.93500000078,"duration":55.55549999998766,"noteNumber":83,"velocity":55,"programNumber":40},{"time":176166.49050000077,"duration":55.55549999998766,"noteNumber":85,"velocity":55,"programNumber":40},{"time":176222.04600000076,"duration":222.22200000000885,"noteNumber":81,"velocity":55,"programNumber":40},{"time":176666.49000000078,"duration":166.66649999999208,"noteNumber":81,"velocity":55,"programNumber":40},{"time":176888.71200000076,"duration":222.22200000000885,"noteNumber":86,"velocity":55,"programNumber":40},{"time":177110.93400000077,"duration":222.22200000000885,"noteNumber":85,"velocity":55,"programNumber":40},{"time":177333.15600000077,"duration":222.22200000000885,"noteNumber":83,"velocity":55,"programNumber":40},{"time":177555.37800000078,"duration":222.22200000000885,"noteNumber":81,"velocity":55,"programNumber":40},{"time":177777.6000000008,"duration":55.55549999998766,"noteNumber":83,"velocity":55,"programNumber":40},{"time":177833.15550000078,"duration":55.55549999998766,"noteNumber":85,"velocity":55,"programNumber":40},{"time":177888.71100000077,"duration":55.55549999998766,"noteNumber":83,"velocity":55,"programNumber":40},{"time":177944.26650000075,"duration":55.55549999998766,"noteNumber":85,"velocity":55,"programNumber":40},{"time":177999.82200000074,"duration":222.22200000000885,"noteNumber":81,"velocity":55,"programNumber":40},{"time":178444.26600000076,"duration":111.11100000000442,"noteNumber":81,"velocity":55,"programNumber":40},{"time":178666.48800000077,"duration":111.11100000000442,"noteNumber":81,"velocity":55,"programNumber":40},{"time":178888.71000000078,"duration":111.11100000000442,"noteNumber":81,"velocity":55,"programNumber":40},{"time":179110.9320000008,"duration":111.11100000000442,"noteNumber":81,"velocity":55,"programNumber":40},{"time":179333.1540000008,"duration":111.11100000000442,"noteNumber":81,"velocity":55,"programNumber":40},{"time":179555.3760000008,"duration":55.55549999998766,"noteNumber":83,"velocity":59,"programNumber":40},{"time":179610.9315000008,"duration":55.55549999998766,"noteNumber":85,"velocity":59,"programNumber":40},{"time":179666.48700000078,"duration":55.55549999998766,"noteNumber":83,"velocity":59,"programNumber":40},{"time":179722.04250000077,"duration":55.55549999998766,"noteNumber":85,"velocity":59,"programNumber":40},{"time":179777.59800000075,"duration":222.22200000000885,"noteNumber":81,"velocity":59,"programNumber":40},{"time":180444.26400000075,"duration":629.6289999999863,"noteNumber":83,"velocity":85,"programNumber":40},{"time":180444.26400000075,"duration":629.6289999999863,"noteNumber":71,"velocity":85,"programNumber":40},{"time":181110.93000000075,"duration":74.07399999999325,"noteNumber":81,"velocity":85,"programNumber":40},{"time":181185.00400000074,"duration":74.07399999999325,"noteNumber":79,"velocity":85,"programNumber":40},{"time":181259.07800000074,"duration":74.07399999999325,"noteNumber":78,"velocity":85,"programNumber":40},{"time":181333.15200000073,"duration":444.4439999999886,"noteNumber":79,"velocity":85,"programNumber":40},{"time":182222.0400000007,"duration":629.6289999999863,"noteNumber":69,"velocity":85,"programNumber":40},{"time":182222.0400000007,"duration":629.6289999999863,"noteNumber":81,"velocity":85,"programNumber":40},{"time":182888.7060000007,"duration":74.07399999999325,"noteNumber":79,"velocity":85,"programNumber":40},{"time":182962.7800000007,"duration":74.07399999999325,"noteNumber":78,"velocity":85,"programNumber":40},{"time":183036.8540000007,"duration":74.07399999999325,"noteNumber":76,"velocity":85,"programNumber":40},{"time":183110.92800000068,"duration":444.4439999999886,"noteNumber":78,"velocity":85,"programNumber":40},{"time":183999.81600000066,"duration":222.22200000000885,"noteNumber":83,"velocity":85,"programNumber":40},{"time":184222.03800000067,"duration":111.11100000000442,"noteNumber":85,"velocity":85,"programNumber":40},{"time":184333.14900000067,"duration":111.11100000000442,"noteNumber":86,"velocity":85,"programNumber":40},{"time":184444.26000000068,"duration":166.66649999999208,"noteNumber":85,"velocity":85,"programNumber":40},{"time":184666.48200000066,"duration":111.11100000000442,"noteNumber":83,"velocity":85,"programNumber":40},{"time":184888.70400000067,"duration":222.22200000000885,"noteNumber":83,"velocity":95,"programNumber":40},{"time":185110.92600000068,"duration":166.66649999999208,"noteNumber":81,"velocity":85,"programNumber":40},{"time":185333.14800000066,"duration":111.11100000000442,"noteNumber":78,"velocity":85,"programNumber":40},{"time":185555.37000000066,"duration":111.11100000000442,"noteNumber":81,"velocity":85,"programNumber":40},{"time":185777.59200000067,"duration":222.22200000000885,"noteNumber":81,"velocity":85,"programNumber":40},{"time":185999.81400000068,"duration":166.66649999999208,"noteNumber":79,"velocity":85,"programNumber":40},{"time":186222.03600000066,"duration":111.11100000000442,"noteNumber":78,"velocity":85,"programNumber":40},{"time":186444.25800000067,"duration":111.11100000000442,"noteNumber":76,"velocity":85,"programNumber":40},{"time":186666.48000000068,"duration":166.66649999999208,"noteNumber":74,"velocity":85,"programNumber":40},{"time":186888.70200000066,"duration":166.66649999999208,"noteNumber":69,"velocity":85,"programNumber":40},{"time":187110.92400000064,"duration":166.66649999999208,"noteNumber":71,"velocity":85,"programNumber":40},{"time":187333.14600000062,"duration":166.66649999999208,"noteNumber":73,"velocity":85,"programNumber":40},{"time":187555.3680000006,"duration":111.11100000000442,"noteNumber":74,"velocity":85,"programNumber":40},{"time":187777.5900000006,"duration":111.11100000000442,"noteNumber":74,"velocity":85,"programNumber":40},{"time":187999.81200000062,"duration":55.55549999998766,"noteNumber":76,"velocity":85,"programNumber":40},{"time":188055.3675000006,"duration":55.55549999998766,"noteNumber":78,"velocity":85,"programNumber":40},{"time":188110.9230000006,"duration":55.55549999998766,"noteNumber":76,"velocity":85,"programNumber":40},{"time":188166.47850000058,"duration":55.55549999998766,"noteNumber":78,"velocity":85,"programNumber":40},{"time":188222.03400000057,"duration":111.11100000000442,"noteNumber":74,"velocity":85,"programNumber":40},{"time":188333.14500000057,"duration":111.11100000000442,"noteNumber":76,"velocity":85,"programNumber":40},{"time":188444.25600000058,"duration":222.22200000000885,"noteNumber":78,"velocity":85,"programNumber":40},{"time":188666.47800000058,"duration":166.66649999999208,"noteNumber":73,"velocity":85,"programNumber":40},{"time":188888.70000000056,"duration":166.66649999999208,"noteNumber":74,"velocity":85,"programNumber":40},{"time":189110.92200000054,"duration":166.66649999999208,"noteNumber":76,"velocity":85,"programNumber":40},{"time":189333.14400000052,"duration":166.66649999999208,"noteNumber":78,"velocity":85,"programNumber":40},{"time":189555.3660000005,"duration":166.66649999999208,"noteNumber":78,"velocity":85,"programNumber":40},{"time":189777.58800000048,"duration":55.55549999998766,"noteNumber":79,"velocity":85,"programNumber":40},{"time":189833.14350000047,"duration":55.55549999998766,"noteNumber":81,"velocity":86,"programNumber":40},{"time":189888.69900000046,"duration":55.55549999998766,"noteNumber":79,"velocity":86,"programNumber":40},{"time":189944.25450000045,"duration":55.55549999998766,"noteNumber":81,"velocity":86,"programNumber":40},{"time":189999.81000000043,"duration":111.11100000000442,"noteNumber":78,"velocity":86,"programNumber":40},{"time":190110.92100000044,"duration":111.11100000000442,"noteNumber":79,"velocity":88,"programNumber":40},{"time":190222.03200000044,"duration":166.66649999999208,"noteNumber":81,"velocity":88,"programNumber":40},{"time":190444.25400000042,"duration":166.66649999999208,"noteNumber":81,"velocity":88,"programNumber":40},{"time":190666.4760000004,"duration":55.55549999998766,"noteNumber":82,"velocity":89,"programNumber":40},{"time":190722.0315000004,"duration":55.55549999998766,"noteNumber":83,"velocity":91,"programNumber":40},{"time":190777.58700000038,"duration":55.55549999998766,"noteNumber":82,"velocity":91,"programNumber":40},{"time":190833.14250000037,"duration":55.55549999998766,"noteNumber":83,"velocity":91,"programNumber":40},{"time":190888.69800000035,"duration":111.11100000000442,"noteNumber":80,"velocity":92,"programNumber":40},{"time":190999.80900000036,"duration":111.11100000000442,"noteNumber":82,"velocity":94,"programNumber":40},{"time":191110.92000000036,"duration":444.4439999999886,"noteNumber":83,"velocity":98,"programNumber":40},{"time":191999.80800000034,"duration":666.6659999999974,"noteNumber":71,"velocity":40,"programNumber":40},{"time":192666.47400000034,"duration":166.66649999999208,"noteNumber":76,"velocity":47,"programNumber":40},{"time":192888.69600000032,"duration":222.22200000000885,"noteNumber":74,"velocity":49,"programNumber":40},{"time":193110.91800000033,"duration":222.22200000000885,"noteNumber":73,"velocity":49,"programNumber":40},{"time":193333.14000000033,"duration":222.22200000000885,"noteNumber":71,"velocity":43,"programNumber":40},{"time":193555.36200000034,"duration":222.22200000000885,"noteNumber":69,"velocity":41,"programNumber":40},{"time":193777.58400000035,"duration":222.22200000000885,"noteNumber":74,"velocity":40,"programNumber":40},{"time":194222.02800000037,"duration":222.22200000000885,"noteNumber":78,"velocity":59,"programNumber":40},{"time":194666.4720000004,"duration":222.22200000000885,"noteNumber":74,"velocity":57,"programNumber":40},{"time":195555.3600000004,"duration":444.4439999999886,"noteNumber":74,"velocity":100,"programNumber":40},{"time":195555.3600000004,"duration":444.4439999999886,"noteNumber":62,"velocity":100,"programNumber":40},{"time":196222.0260000004,"duration":166.66649999999208,"noteNumber":69,"velocity":91,"programNumber":40},{"time":196444.24800000037,"duration":444.4439999999886,"noteNumber":74,"velocity":91,"programNumber":40},{"time":197110.91400000037,"duration":166.66649999999208,"noteNumber":69,"velocity":91,"programNumber":40},{"time":197333.13600000035,"duration":166.66649999999208,"noteNumber":74,"velocity":91,"programNumber":40},{"time":197555.35800000033,"duration":166.66649999999208,"noteNumber":69,"velocity":91,"programNumber":40},{"time":197777.5800000003,"duration":166.66649999999208,"noteNumber":74,"velocity":91,"programNumber":40},{"time":197999.8020000003,"duration":166.66649999999208,"noteNumber":78,"velocity":91,"programNumber":40},{"time":198222.02400000027,"duration":444.4439999999886,"noteNumber":81,"velocity":91,"programNumber":40},{"time":199110.91200000024,"duration":444.4439999999886,"noteNumber":81,"velocity":91,"programNumber":40},{"time":199777.57800000024,"duration":166.66649999999208,"noteNumber":78,"velocity":91,"programNumber":40},{"time":199999.80000000022,"duration":444.4439999999886,"noteNumber":81,"velocity":91,"programNumber":40},{"time":200666.46600000022,"duration":166.66649999999208,"noteNumber":78,"velocity":91,"programNumber":40},{"time":200888.6880000002,"duration":166.66649999999208,"noteNumber":81,"velocity":91,"programNumber":40},{"time":201110.91000000018,"duration":166.66649999999208,"noteNumber":78,"velocity":91,"programNumber":40},{"time":201333.13200000016,"duration":166.66649999999208,"noteNumber":75,"velocity":91,"programNumber":40},{"time":201555.35400000014,"duration":166.66649999999208,"noteNumber":78,"velocity":91,"programNumber":40},{"time":201777.57600000012,"duration":444.4439999999886,"noteNumber":71,"velocity":91,"programNumber":40},{"time":203333.1300000001,"duration":166.66649999999208,"noteNumber":79,"velocity":55,"programNumber":40},{"time":203555.35200000007,"duration":222.22200000000885,"noteNumber":84,"velocity":55,"programNumber":40},{"time":203777.57400000008,"duration":222.22200000000885,"noteNumber":83,"velocity":55,"programNumber":40},{"time":203999.7960000001,"duration":222.22200000000885,"noteNumber":81,"velocity":55,"programNumber":40},{"time":204222.0180000001,"duration":222.22200000000885,"noteNumber":79,"velocity":55,"programNumber":40},{"time":204444.2400000001,"duration":55.55549999998766,"noteNumber":81,"velocity":55,"programNumber":40},{"time":204499.7955000001,"duration":55.55549999998766,"noteNumber":83,"velocity":55,"programNumber":40},{"time":204555.35100000008,"duration":55.55549999998766,"noteNumber":81,"velocity":55,"programNumber":40},{"time":204610.90650000007,"duration":55.55549999998766,"noteNumber":83,"velocity":55,"programNumber":40},{"time":204666.46200000006,"duration":222.22200000000885,"noteNumber":79,"velocity":55,"programNumber":40},{"time":205110.90600000008,"duration":111.11100000000442,"noteNumber":79,"velocity":55,"programNumber":40},{"time":205333.12800000008,"duration":111.11100000000442,"noteNumber":79,"velocity":55,"programNumber":40},{"time":205555.3500000001,"duration":111.11100000000442,"noteNumber":79,"velocity":55,"programNumber":40},{"time":205777.5720000001,"duration":111.11100000000442,"noteNumber":79,"velocity":55,"programNumber":40},{"time":205999.7940000001,"duration":111.11100000000442,"noteNumber":79,"velocity":55,"programNumber":40},{"time":206222.01600000012,"duration":55.55549999998766,"noteNumber":81,"velocity":55,"programNumber":40},{"time":206277.5715000001,"duration":55.55549999998766,"noteNumber":83,"velocity":55,"programNumber":40},{"time":206333.1270000001,"duration":55.55549999998766,"noteNumber":81,"velocity":55,"programNumber":40},{"time":206388.68250000008,"duration":55.55549999998766,"noteNumber":83,"velocity":55,"programNumber":40},{"time":206444.23800000007,"duration":222.22200000000885,"noteNumber":79,"velocity":55,"programNumber":40},{"time":206888.6820000001,"duration":166.66649999999208,"noteNumber":79,"velocity":55,"programNumber":40},{"time":207110.90400000007,"duration":222.22200000000885,"noteNumber":84,"velocity":55,"programNumber":40},{"time":207333.12600000008,"duration":222.22200000000885,"noteNumber":83,"velocity":55,"programNumber":40},{"time":207555.3480000001,"duration":222.22200000000885,"noteNumber":81,"velocity":55,"programNumber":40},{"time":207777.5700000001,"duration":222.22200000000885,"noteNumber":79,"velocity":55,"programNumber":40},{"time":207999.7920000001,"duration":55.55549999998766,"noteNumber":81,"velocity":55,"programNumber":40},{"time":208055.3475000001,"duration":55.55549999998766,"noteNumber":83,"velocity":55,"programNumber":40},{"time":208110.90300000008,"duration":55.55549999998766,"noteNumber":81,"velocity":55,"programNumber":40},{"time":208166.45850000007,"duration":55.55549999998766,"noteNumber":83,"velocity":55,"programNumber":40},{"time":208222.01400000005,"duration":222.22200000000885,"noteNumber":79,"velocity":55,"programNumber":40},{"time":208666.45800000007,"duration":111.11100000000442,"noteNumber":79,"velocity":55,"programNumber":40},{"time":208888.68000000008,"duration":111.11100000000442,"noteNumber":79,"velocity":55,"programNumber":40},{"time":209110.9020000001,"duration":111.11100000000442,"noteNumber":79,"velocity":55,"programNumber":40},{"time":209333.1240000001,"duration":111.11100000000442,"noteNumber":79,"velocity":55,"programNumber":40},{"time":209555.3460000001,"duration":111.11100000000442,"noteNumber":79,"velocity":55,"programNumber":40},{"time":209777.56800000012,"duration":55.55549999998766,"noteNumber":81,"velocity":55,"programNumber":40},{"time":209833.1235000001,"duration":55.55549999998766,"noteNumber":83,"velocity":55,"programNumber":40},{"time":209888.6790000001,"duration":55.55549999998766,"noteNumber":81,"velocity":55,"programNumber":40},{"time":209944.23450000008,"duration":55.55549999998766,"noteNumber":83,"velocity":55,"programNumber":40},{"time":209999.79000000007,"duration":222.22200000000885,"noteNumber":79,"velocity":55,"programNumber":40},{"time":210444.23400000008,"duration":166.66649999999208,"noteNumber":79,"velocity":55,"programNumber":40},{"time":210666.45600000006,"duration":222.22200000000885,"noteNumber":84,"velocity":55,"programNumber":40},{"time":210888.67800000007,"duration":222.22200000000885,"noteNumber":83,"velocity":55,"programNumber":40},{"time":211110.90000000008,"duration":222.22200000000885,"noteNumber":81,"velocity":55,"programNumber":40},{"time":211333.1220000001,"duration":222.22200000000885,"noteNumber":79,"velocity":55,"programNumber":40},{"time":211555.3440000001,"duration":55.55549999998766,"noteNumber":81,"velocity":55,"programNumber":40},{"time":211610.8995000001,"duration":55.55549999998766,"noteNumber":83,"velocity":55,"programNumber":40},{"time":211666.45500000007,"duration":55.55549999998766,"noteNumber":81,"velocity":55,"programNumber":40},{"time":211722.01050000006,"duration":55.55549999998766,"noteNumber":83,"velocity":55,"programNumber":40},{"time":211777.56600000005,"duration":222.22200000000885,"noteNumber":80,"velocity":55,"programNumber":40},{"time":212222.01000000007,"duration":111.11100000000442,"noteNumber":80,"velocity":55,"programNumber":40},{"time":212444.23200000008,"duration":111.11100000000442,"noteNumber":80,"velocity":55,"programNumber":40},{"time":212666.45400000009,"duration":111.11100000000442,"noteNumber":80,"velocity":55,"programNumber":40},{"time":212888.6760000001,"duration":111.11100000000442,"noteNumber":80,"velocity":55,"programNumber":40},{"time":213110.8980000001,"duration":111.11100000000442,"noteNumber":80,"velocity":55,"programNumber":40},{"time":213333.1200000001,"duration":55.55549999998766,"noteNumber":83,"velocity":55,"programNumber":40},{"time":213388.6755000001,"duration":55.55549999998766,"noteNumber":84,"velocity":55,"programNumber":40},{"time":213444.2310000001,"duration":55.55549999998766,"noteNumber":83,"velocity":55,"programNumber":40},{"time":213499.78650000007,"duration":55.55549999998766,"noteNumber":84,"velocity":55,"programNumber":40},{"time":213555.34200000006,"duration":222.22200000000885,"noteNumber":81,"velocity":55,"programNumber":40},{"time":213999.78600000008,"duration":166.66649999999208,"noteNumber":81,"velocity":55,"programNumber":40},{"time":214222.00800000006,"duration":222.22200000000885,"noteNumber":84,"velocity":55,"programNumber":40},{"time":214444.23000000007,"duration":222.22200000000885,"noteNumber":82,"velocity":55,"programNumber":40},{"time":214666.45200000008,"duration":222.22200000000885,"noteNumber":81,"velocity":55,"programNumber":40},{"time":214888.6740000001,"duration":222.22200000000885,"noteNumber":79,"velocity":55,"programNumber":40},{"time":215110.8960000001,"duration":55.55549999998766,"noteNumber":79,"velocity":55,"programNumber":40},{"time":215166.45150000008,"duration":55.55549999998766,"noteNumber":81,"velocity":55,"programNumber":40},{"time":215222.00700000007,"duration":55.55549999998766,"noteNumber":79,"velocity":55,"programNumber":40},{"time":215277.56250000006,"duration":55.55549999998766,"noteNumber":81,"velocity":55,"programNumber":40},{"time":215333.11800000005,"duration":222.22200000000885,"noteNumber":78,"velocity":55,"programNumber":40},{"time":215777.56200000006,"duration":111.11100000000442,"noteNumber":78,"velocity":55,"programNumber":40},{"time":215999.78400000007,"duration":111.11100000000442,"noteNumber":78,"velocity":55,"programNumber":40},{"time":216222.00600000008,"duration":111.11100000000442,"noteNumber":78,"velocity":55,"programNumber":40},{"time":216444.2280000001,"duration":111.11100000000442,"noteNumber":78,"velocity":55,"programNumber":40},{"time":216666.4500000001,"duration":111.11100000000442,"noteNumber":78,"velocity":55,"programNumber":40},{"time":216888.6720000001,"duration":55.55549999998766,"noteNumber":81,"velocity":55,"programNumber":40},{"time":216944.2275000001,"duration":55.55549999998766,"noteNumber":82,"velocity":55,"programNumber":40},{"time":216999.78300000008,"duration":55.55549999998766,"noteNumber":81,"velocity":55,"programNumber":40},{"time":217055.33850000007,"duration":55.55549999998766,"noteNumber":82,"velocity":55,"programNumber":40},{"time":217110.89400000006,"duration":222.22200000000885,"noteNumber":79,"velocity":55,"programNumber":40},{"time":217555.33800000008,"duration":166.66649999999208,"noteNumber":75,"velocity":55,"programNumber":40},{"time":217777.56000000006,"duration":222.22200000000885,"noteNumber":79,"velocity":55,"programNumber":40},{"time":217999.78200000006,"duration":222.22200000000885,"noteNumber":77,"velocity":55,"programNumber":40},{"time":218222.00400000007,"duration":222.22200000000885,"noteNumber":76,"velocity":55,"programNumber":40},{"time":218444.22600000008,"duration":222.22200000000885,"noteNumber":74,"velocity":55,"programNumber":40},{"time":218666.4480000001,"duration":55.55549999998766,"noteNumber":74,"velocity":55,"programNumber":40},{"time":218722.00350000008,"duration":55.55549999998766,"noteNumber":75,"velocity":55,"programNumber":40},{"time":218777.55900000007,"duration":55.55549999998766,"noteNumber":74,"velocity":55,"programNumber":40},{"time":218833.11450000005,"duration":55.55549999998766,"noteNumber":75,"velocity":55,"programNumber":40},{"time":218888.67000000004,"duration":222.22200000000885,"noteNumber":73,"velocity":55,"programNumber":40},{"time":219333.11400000006,"duration":111.11100000000442,"noteNumber":73,"velocity":55,"programNumber":40},{"time":219555.33600000007,"duration":111.11100000000442,"noteNumber":73,"velocity":55,"programNumber":40},{"time":219777.55800000008,"duration":111.11100000000442,"noteNumber":73,"velocity":55,"programNumber":40},{"time":219999.7800000001,"duration":111.11100000000442,"noteNumber":73,"velocity":55,"programNumber":40},{"time":220222.0020000001,"duration":111.11100000000442,"noteNumber":73,"velocity":55,"programNumber":40},{"time":220444.2240000001,"duration":55.55549999998766,"noteNumber":76,"velocity":53,"programNumber":40},{"time":220499.7795000001,"duration":55.55549999998766,"noteNumber":78,"velocity":53,"programNumber":40},{"time":220555.33500000008,"duration":55.55549999998766,"noteNumber":76,"velocity":53,"programNumber":40},{"time":220610.89050000007,"duration":55.55549999998766,"noteNumber":78,"velocity":53,"programNumber":40},{"time":220666.44600000005,"duration":222.22200000000885,"noteNumber":74,"velocity":53,"programNumber":40},{"time":221110.89000000007,"duration":222.22200000000885,"noteNumber":62,"velocity":91,"programNumber":40},{"time":221333.11200000008,"duration":222.22200000000885,"noteNumber":64,"velocity":91,"programNumber":40},{"time":221555.3340000001,"duration":222.22200000000885,"noteNumber":66,"velocity":91,"programNumber":40},{"time":221777.5560000001,"duration":222.22200000000885,"noteNumber":67,"velocity":91,"programNumber":40},{"time":221999.7780000001,"duration":222.22200000000885,"noteNumber":69,"velocity":91,"programNumber":40},{"time":222222.00000000012,"duration":222.22200000000885,"noteNumber":72,"velocity":91,"programNumber":40},{"time":222444.22200000013,"duration":222.22200000000885,"noteNumber":70,"velocity":91,"programNumber":40},{"time":222888.66600000014,"duration":222.22200000000885,"noteNumber":66,"velocity":91,"programNumber":40},{"time":223110.88800000015,"duration":222.22200000000885,"noteNumber":67,"velocity":91,"programNumber":40},{"time":223333.11000000016,"duration":222.22200000000885,"noteNumber":69,"velocity":91,"programNumber":40},{"time":223555.33200000017,"duration":222.22200000000885,"noteNumber":70,"velocity":91,"programNumber":40},{"time":223777.55400000018,"duration":222.22200000000885,"noteNumber":73,"velocity":91,"programNumber":40},{"time":223999.7760000002,"duration":222.22200000000885,"noteNumber":76,"velocity":91,"programNumber":40},{"time":224221.9980000002,"duration":222.22200000000885,"noteNumber":74,"velocity":91,"programNumber":40},{"time":224666.4420000002,"duration":222.22200000000885,"noteNumber":74,"velocity":53,"programNumber":40},{"time":224888.66400000022,"duration":222.22200000000885,"noteNumber":76,"velocity":53,"programNumber":40},{"time":225110.88600000023,"duration":222.22200000000885,"noteNumber":78,"velocity":53,"programNumber":40},{"time":225333.10800000024,"duration":222.22200000000885,"noteNumber":79,"velocity":53,"programNumber":40},{"time":225555.33000000025,"duration":222.22200000000885,"noteNumber":81,"velocity":52,"programNumber":40},{"time":225777.55200000026,"duration":444.4439999999886,"noteNumber":82,"velocity":50,"programNumber":40},{"time":226221.99600000025,"duration":444.4439999999886,"noteNumber":83,"velocity":46,"programNumber":40},{"time":226666.44000000024,"duration":444.4439999999886,"noteNumber":84,"velocity":43,"programNumber":40},{"time":227110.88400000022,"duration":444.4439999999886,"noteNumber":85,"velocity":40,"programNumber":40},{"time":227555.3280000002,"duration":2611.108500000002,"noteNumber":86,"velocity":59,"programNumber":40},{"time":230221.9920000002,"duration":55.55549999998766,"noteNumber":78,"velocity":52,"programNumber":40},{"time":230277.5475000002,"duration":55.55549999998766,"noteNumber":79,"velocity":53,"programNumber":40},{"time":230333.10300000018,"duration":55.55549999998766,"noteNumber":78,"velocity":55,"programNumber":40},{"time":230388.65850000017,"duration":55.55549999998766,"noteNumber":79,"velocity":58,"programNumber":40},{"time":230444.21400000015,"duration":55.55549999998766,"noteNumber":78,"velocity":59,"programNumber":40},{"time":230499.76950000014,"duration":55.55549999998766,"noteNumber":79,"velocity":61,"programNumber":40},{"time":230555.32500000013,"duration":55.55549999998766,"noteNumber":78,"velocity":62,"programNumber":40},{"time":230610.88050000012,"duration":55.55549999998766,"noteNumber":79,"velocity":65,"programNumber":40},{"time":230666.4360000001,"duration":55.55549999998766,"noteNumber":78,"velocity":67,"programNumber":40},{"time":230721.9915000001,"duration":55.55549999998766,"noteNumber":79,"velocity":68,"programNumber":40},{"time":230777.54700000008,"duration":55.55549999998766,"noteNumber":78,"velocity":70,"programNumber":40},{"time":230833.10250000007,"duration":55.55549999998766,"noteNumber":79,"velocity":71,"programNumber":40},{"time":230888.65800000005,"duration":111.11100000000442,"noteNumber":76,"velocity":74,"programNumber":40},{"time":230999.76900000006,"duration":111.11100000000442,"noteNumber":78,"velocity":77,"programNumber":40},{"time":231110.88000000006,"duration":444.4439999999886,"noteNumber":79,"velocity":93,"programNumber":40},{"time":231777.54600000006,"duration":111.11100000000442,"noteNumber":74,"velocity":92,"programNumber":40},{"time":231999.76800000007,"duration":444.4439999999886,"noteNumber":79,"velocity":92,"programNumber":40},{"time":232666.43400000007,"duration":111.11100000000442,"noteNumber":74,"velocity":91,"programNumber":40},{"time":232888.65600000008,"duration":111.11100000000442,"noteNumber":79,"velocity":90,"programNumber":40},{"time":233110.87800000008,"duration":111.11100000000442,"noteNumber":74,"velocity":90,"programNumber":40},{"time":233333.1000000001,"duration":111.11100000000442,"noteNumber":79,"velocity":90,"programNumber":40},{"time":233555.3220000001,"duration":111.11100000000442,"noteNumber":83,"velocity":90,"programNumber":40},{"time":233777.5440000001,"duration":444.4439999999886,"noteNumber":86,"velocity":89,"programNumber":40},{"time":234666.4320000001,"duration":444.4439999999886,"noteNumber":84,"velocity":104,"programNumber":40},{"time":235333.0980000001,"duration":111.11100000000442,"noteNumber":81,"velocity":87,"programNumber":40},{"time":235555.3200000001,"duration":444.4439999999886,"noteNumber":84,"velocity":86,"programNumber":40},{"time":236221.9860000001,"duration":111.11100000000442,"noteNumber":81,"velocity":85,"programNumber":40},{"time":236444.2080000001,"duration":111.11100000000442,"noteNumber":84,"velocity":92,"programNumber":40},{"time":236666.4300000001,"duration":111.11100000000442,"noteNumber":81,"velocity":85,"programNumber":40},{"time":236888.65200000012,"duration":111.11100000000442,"noteNumber":78,"velocity":92,"programNumber":40},{"time":237110.87400000013,"duration":111.11100000000442,"noteNumber":81,"velocity":85,"programNumber":40},{"time":237333.09600000014,"duration":444.4439999999886,"noteNumber":74,"velocity":94,"programNumber":40},{"time":238221.9840000001,"duration":222.22200000000885,"noteNumber":71,"velocity":92,"programNumber":40},{"time":238221.9840000001,"duration":222.22200000000885,"noteNumber":79,"velocity":92,"programNumber":40},{"time":238221.9840000001,"duration":222.22200000000885,"noteNumber":62,"velocity":92,"programNumber":40},{"time":238666.42800000013,"duration":666.6659999999974,"noteNumber":79,"velocity":85,"programNumber":40},{"time":239333.09400000013,"duration":222.22200000000885,"noteNumber":83,"velocity":74,"programNumber":40},{"time":239555.31600000014,"duration":111.11100000000442,"noteNumber":81,"velocity":74,"programNumber":40},{"time":239777.53800000015,"duration":111.11100000000442,"noteNumber":79,"velocity":80,"programNumber":40},{"time":239999.76000000015,"duration":55.55549999998766,"noteNumber":79,"velocity":86,"programNumber":40},{"time":240055.31550000014,"duration":55.55549999998766,"noteNumber":81,"velocity":86,"programNumber":40},{"time":240110.87100000013,"duration":55.55549999998766,"noteNumber":79,"velocity":86,"programNumber":40},{"time":240166.42650000012,"duration":55.55549999998766,"noteNumber":81,"velocity":86,"programNumber":40},{"time":240221.9820000001,"duration":185.18499999999767,"noteNumber":78,"velocity":83,"programNumber":40},{"time":240444.2040000001,"duration":666.6659999999974,"noteNumber":78,"velocity":77,"programNumber":40},{"time":241110.8700000001,"duration":222.22200000000885,"noteNumber":81,"velocity":85,"programNumber":40},{"time":241333.09200000012,"duration":111.11100000000442,"noteNumber":84,"velocity":85,"programNumber":40},{"time":241555.31400000013,"duration":111.11100000000442,"noteNumber":78,"velocity":85,"programNumber":40},{"time":241777.53600000014,"duration":222.22200000000885,"noteNumber":81,"velocity":85,"programNumber":40},{"time":241999.75800000015,"duration":111.11100000000442,"noteNumber":79,"velocity":85,"programNumber":40},{"time":242221.98000000016,"duration":666.6659999999974,"noteNumber":79,"velocity":85,"programNumber":40},{"time":242888.64600000015,"duration":222.22200000000885,"noteNumber":83,"velocity":85,"programNumber":40},{"time":243110.86800000016,"duration":111.11100000000442,"noteNumber":81,"velocity":85,"programNumber":40},{"time":243333.09000000017,"duration":111.11100000000442,"noteNumber":79,"velocity":85,"programNumber":40},{"time":243555.31200000018,"duration":55.55549999998766,"noteNumber":79,"velocity":85,"programNumber":40},{"time":243610.86750000017,"duration":55.55549999998766,"noteNumber":81,"velocity":85,"programNumber":40},{"time":243666.42300000016,"duration":55.55549999998766,"noteNumber":79,"velocity":85,"programNumber":40},{"time":243721.97850000014,"duration":55.55549999998766,"noteNumber":81,"velocity":85,"programNumber":40},{"time":243777.53400000013,"duration":185.18499999999767,"noteNumber":78,"velocity":85,"programNumber":40},{"time":243999.75600000014,"duration":666.6659999999974,"noteNumber":78,"velocity":85,"programNumber":40},{"time":244666.42200000014,"duration":222.22200000000885,"noteNumber":81,"velocity":85,"programNumber":40},{"time":244888.64400000015,"duration":111.11100000000442,"noteNumber":84,"velocity":85,"programNumber":40},{"time":245110.86600000015,"duration":111.11100000000442,"noteNumber":78,"velocity":85,"programNumber":40},{"time":245333.08800000016,"duration":111.11100000000442,"noteNumber":79,"velocity":85,"programNumber":40},{"time":245555.31000000017,"duration":111.11100000000442,"noteNumber":79,"velocity":85,"programNumber":40},{"time":245777.53200000018,"duration":111.11100000000442,"noteNumber":79,"velocity":85,"programNumber":40},{"time":245888.6430000002,"duration":111.11100000000442,"noteNumber":78,"velocity":85,"programNumber":40},{"time":245999.7540000002,"duration":111.11100000000442,"noteNumber":76,"velocity":85,"programNumber":40},{"time":246110.8650000002,"duration":111.11100000000442,"noteNumber":78,"velocity":85,"programNumber":40},{"time":246221.9760000002,"duration":111.11100000000442,"noteNumber":79,"velocity":85,"programNumber":40},{"time":246444.1980000002,"duration":111.11100000000442,"noteNumber":79,"velocity":85,"programNumber":40},{"time":246666.42000000022,"duration":111.11100000000442,"noteNumber":83,"velocity":85,"programNumber":40},{"time":246777.53100000022,"duration":111.11100000000442,"noteNumber":81,"velocity":85,"programNumber":40},{"time":246888.64200000023,"duration":111.11100000000442,"noteNumber":79,"velocity":85,"programNumber":40},{"time":246999.75300000023,"duration":111.11100000000442,"noteNumber":81,"velocity":83,"programNumber":40},{"time":247110.86400000023,"duration":111.11100000000442,"noteNumber":83,"velocity":83,"programNumber":40},{"time":247333.08600000024,"duration":111.11100000000442,"noteNumber":83,"velocity":83,"programNumber":40},{"time":247555.30800000025,"duration":111.11100000000442,"noteNumber":86,"velocity":83,"programNumber":40},{"time":247666.41900000026,"duration":111.11100000000442,"noteNumber":84,"velocity":80,"programNumber":40},{"time":247777.53000000026,"duration":111.11100000000442,"noteNumber":83,"velocity":79,"programNumber":40},{"time":247888.64100000027,"duration":111.11100000000442,"noteNumber":84,"velocity":76,"programNumber":40},{"time":247999.75200000027,"duration":444.4439999999886,"noteNumber":86,"velocity":71,"programNumber":40},{"time":248888.64000000025,"duration":888.8880000000063,"noteNumber":74,"velocity":56,"programNumber":40},{"time":249777.52800000025,"duration":888.8880000000063,"noteNumber":76,"velocity":55,"programNumber":40},{"time":250666.41600000026,"duration":111.11100000000442,"noteNumber":74,"velocity":57,"programNumber":40},{"time":250777.52700000026,"duration":296.2960000000021,"noteNumber":72,"velocity":59,"programNumber":40},{"time":251110.86000000028,"duration":444.4439999999886,"noteNumber":72,"velocity":58,"programNumber":40},{"time":251555.30400000027,"duration":111.11100000000442,"noteNumber":72,"velocity":57,"programNumber":40},{"time":251666.41500000027,"duration":296.2960000000021,"noteNumber":71,"velocity":55,"programNumber":40},{"time":251999.74800000028,"duration":444.4439999999886,"noteNumber":71,"velocity":53,"programNumber":40},{"time":252444.19200000027,"duration":111.11100000000442,"noteNumber":71,"velocity":57,"programNumber":40},{"time":252555.30300000028,"duration":296.2960000000021,"noteNumber":69,"velocity":56,"programNumber":40},{"time":252888.6360000003,"duration":444.4439999999886,"noteNumber":69,"velocity":55,"programNumber":40},{"time":253333.08000000028,"duration":222.22200000000885,"noteNumber":67,"velocity":54,"programNumber":40},{"time":253555.3020000003,"duration":111.11100000000442,"noteNumber":66,"velocity":55,"programNumber":40},{"time":253777.5240000003,"duration":111.11100000000442,"noteNumber":64,"velocity":55,"programNumber":40},{"time":253999.7460000003,"duration":111.11100000000442,"noteNumber":66,"velocity":55,"programNumber":40},{"time":254221.9680000003,"duration":222.22200000000885,"noteNumber":67,"velocity":56,"programNumber":40},{"time":254666.41200000033,"duration":222.22200000000885,"noteNumber":69,"velocity":57,"programNumber":40},{"time":255110.85600000035,"duration":222.22200000000885,"noteNumber":71,"velocity":57,"programNumber":40},{"time":255999.74400000036,"duration":888.8880000000063,"noteNumber":74,"velocity":56,"programNumber":40},{"time":256888.63200000036,"duration":888.8880000000063,"noteNumber":76,"velocity":59,"programNumber":40},{"time":257777.52000000037,"duration":222.22200000000885,"noteNumber":74,"velocity":46,"programNumber":40},{"time":257999.74200000038,"duration":111.11100000000442,"noteNumber":72,"velocity":51,"programNumber":40},{"time":258221.9640000004,"duration":111.11100000000442,"noteNumber":72,"velocity":51,"programNumber":40},{"time":258444.1860000004,"duration":111.11100000000442,"noteNumber":72,"velocity":51,"programNumber":40},{"time":258666.4080000004,"duration":222.22200000000885,"noteNumber":72,"velocity":51,"programNumber":40},{"time":258888.6300000004,"duration":111.11100000000442,"noteNumber":71,"velocity":50,"programNumber":40},{"time":259110.85200000042,"duration":111.11100000000442,"noteNumber":71,"velocity":49,"programNumber":40},{"time":259333.07400000043,"duration":111.11100000000442,"noteNumber":71,"velocity":49,"programNumber":40},{"time":259555.29600000044,"duration":222.22200000000885,"noteNumber":71,"velocity":49,"programNumber":40},{"time":259777.51800000045,"duration":111.11100000000442,"noteNumber":69,"velocity":50,"programNumber":40},{"time":259999.74000000046,"duration":166.66649999999208,"noteNumber":69,"velocity":52,"programNumber":40},{"time":260221.96200000044,"duration":166.66649999999208,"noteNumber":69,"velocity":52,"programNumber":40},{"time":260444.18400000042,"duration":222.22200000000885,"noteNumber":67,"velocity":52,"programNumber":40},{"time":260666.40600000042,"duration":222.22200000000885,"noteNumber":66,"velocity":54,"programNumber":40},{"time":260888.62800000043,"duration":222.22200000000885,"noteNumber":64,"velocity":55,"programNumber":40},{"time":261110.85000000044,"duration":222.22200000000885,"noteNumber":66,"velocity":55,"programNumber":40},{"time":261333.07200000045,"duration":1111.109999999986,"noteNumber":67,"velocity":85,"programNumber":40},{"time":261333.07200000045,"duration":1111.109999999986,"noteNumber":55,"velocity":85,"programNumber":40},{"time":262444.18200000044,"duration":55.555500000016764,"noteNumber":67,"velocity":61,"programNumber":40},{"time":262499.73750000045,"duration":55.555500000016764,"noteNumber":69,"velocity":61,"programNumber":40},{"time":262555.29300000047,"duration":55.555500000016764,"noteNumber":66,"velocity":61,"programNumber":40},{"time":262610.8485000005,"duration":55.555500000016764,"noteNumber":67,"velocity":61,"programNumber":40},{"time":262666.4040000005,"duration":222.22200000000885,"noteNumber":69,"velocity":61,"programNumber":40},{"time":262888.6260000005,"duration":222.22200000000885,"noteNumber":66,"velocity":61,"programNumber":40},{"time":263110.8480000005,"duration":1111.109999999986,"noteNumber":71,"velocity":91,"programNumber":40},{"time":264221.9580000005,"duration":55.555500000016764,"noteNumber":71,"velocity":61,"programNumber":40},{"time":264277.5135000005,"duration":55.555500000016764,"noteNumber":72,"velocity":61,"programNumber":40},{"time":264333.06900000054,"duration":55.555500000016764,"noteNumber":69,"velocity":61,"programNumber":40},{"time":264388.62450000056,"duration":55.555500000016764,"noteNumber":71,"velocity":61,"programNumber":40},{"time":264444.1800000006,"duration":222.22200000000885,"noteNumber":72,"velocity":61,"programNumber":40},{"time":264666.4020000006,"duration":222.22200000000885,"noteNumber":69,"velocity":61,"programNumber":40},{"time":264888.6240000006,"duration":74.07400000002235,"noteNumber":74,"velocity":51,"programNumber":40},{"time":264999.7350000006,"duration":74.07400000002235,"noteNumber":74,"velocity":56,"programNumber":40},{"time":265110.84600000066,"duration":74.07400000002235,"noteNumber":74,"velocity":59,"programNumber":40},{"time":265221.9570000007,"duration":74.07400000002235,"noteNumber":74,"velocity":56,"programNumber":40},{"time":265333.0680000007,"duration":74.07400000002235,"noteNumber":74,"velocity":56,"programNumber":40},{"time":265444.17900000076,"duration":74.07400000002235,"noteNumber":74,"velocity":56,"programNumber":40},{"time":265555.2900000008,"duration":74.07400000002235,"noteNumber":74,"velocity":56,"programNumber":40},{"time":265666.4010000008,"duration":74.07400000002235,"noteNumber":74,"velocity":56,"programNumber":40},{"time":265777.51200000086,"duration":74.07400000002235,"noteNumber":76,"velocity":56,"programNumber":40},{"time":265888.6230000009,"duration":74.07400000002235,"noteNumber":76,"velocity":56,"programNumber":40},{"time":265999.7340000009,"duration":74.07400000002235,"noteNumber":76,"velocity":56,"programNumber":40},{"time":266110.84500000096,"duration":74.07400000002235,"noteNumber":76,"velocity":56,"programNumber":40},{"time":266221.956000001,"duration":74.07400000002235,"noteNumber":78,"velocity":56,"programNumber":40},{"time":266333.067000001,"duration":74.07400000002235,"noteNumber":78,"velocity":56,"programNumber":40},{"time":266444.17800000106,"duration":74.07400000002235,"noteNumber":78,"velocity":57,"programNumber":40},{"time":266555.2890000011,"duration":74.07400000002235,"noteNumber":78,"velocity":59,"programNumber":40},{"time":266666.40000000113,"duration":74.07400000002235,"noteNumber":79,"velocity":62,"programNumber":40},{"time":266777.51100000116,"duration":74.07400000002235,"noteNumber":79,"velocity":65,"programNumber":40},{"time":266888.6220000012,"duration":74.07400000002235,"noteNumber":79,"velocity":66,"programNumber":40},{"time":266999.73300000123,"duration":74.07400000002235,"noteNumber":79,"velocity":66,"programNumber":40},{"time":267110.84400000126,"duration":74.07400000002235,"noteNumber":81,"velocity":66,"programNumber":40},{"time":267221.9550000013,"duration":74.07400000002235,"noteNumber":81,"velocity":66,"programNumber":40},{"time":267333.06600000133,"duration":74.07400000002235,"noteNumber":81,"velocity":66,"programNumber":40},{"time":267444.17700000136,"duration":74.07400000002235,"noteNumber":81,"velocity":68,"programNumber":40},{"time":267555.2880000014,"duration":74.07400000002235,"noteNumber":83,"velocity":68,"programNumber":40},{"time":267666.39900000143,"duration":74.07400000002235,"noteNumber":83,"velocity":70,"programNumber":40},{"time":267777.51000000146,"duration":74.07400000002235,"noteNumber":83,"velocity":70,"programNumber":40},{"time":267888.6210000015,"duration":74.07400000002235,"noteNumber":83,"velocity":71,"programNumber":40},{"time":267999.73200000153,"duration":74.07400000002235,"noteNumber":85,"velocity":71,"programNumber":40},{"time":268110.84300000157,"duration":74.07400000002235,"noteNumber":85,"velocity":73,"programNumber":40},{"time":268221.9540000016,"duration":74.07400000002235,"noteNumber":85,"velocity":74,"programNumber":40},{"time":268333.06500000163,"duration":74.07400000002235,"noteNumber":85,"velocity":74,"programNumber":40},{"time":268444.17600000167,"duration":666.6660000000265,"noteNumber":86,"velocity":85,"programNumber":40},{"time":269110.8420000017,"duration":222.22200000000885,"noteNumber":81,"velocity":85,"programNumber":40},{"time":269333.0640000017,"duration":333.33299999998417,"noteNumber":85,"velocity":85,"programNumber":40},{"time":269666.3970000017,"duration":111.11099999997532,"noteNumber":81,"velocity":85,"programNumber":40},{"time":269777.50800000166,"duration":333.33299999998417,"noteNumber":85,"velocity":85,"programNumber":40},{"time":270110.84100000164,"duration":111.11099999997532,"noteNumber":81,"velocity":85,"programNumber":40},{"time":270221.9520000016,"duration":666.6660000000265,"noteNumber":86,"velocity":85,"programNumber":40},{"time":270888.61800000165,"duration":222.22200000000885,"noteNumber":81,"velocity":85,"programNumber":40},{"time":271110.84000000166,"duration":333.33299999998417,"noteNumber":85,"velocity":85,"programNumber":40},{"time":271444.17300000164,"duration":111.11099999997532,"noteNumber":81,"velocity":85,"programNumber":40},{"time":271555.2840000016,"duration":333.33299999998417,"noteNumber":85,"velocity":85,"programNumber":40},{"time":271888.6170000016,"duration":111.11099999997532,"noteNumber":81,"velocity":85,"programNumber":40},{"time":271999.7280000016,"duration":111.11099999997532,"noteNumber":86,"velocity":100,"programNumber":40},{"time":272221.9500000015,"duration":111.11099999997532,"noteNumber":81,"velocity":100,"programNumber":40},{"time":272444.1720000015,"duration":111.11099999997532,"noteNumber":85,"velocity":100,"programNumber":40},{"time":272666.3940000014,"duration":111.11099999997532,"noteNumber":81,"velocity":100,"programNumber":40},{"time":272888.6160000014,"duration":111.11099999997532,"noteNumber":86,"velocity":100,"programNumber":40},{"time":273110.8380000013,"duration":111.11099999997532,"noteNumber":81,"velocity":100,"programNumber":40},{"time":273333.0600000013,"duration":111.11099999997532,"noteNumber":85,"velocity":100,"programNumber":40},{"time":273555.2820000012,"duration":111.11099999997532,"noteNumber":81,"velocity":100,"programNumber":40},{"time":273777.5040000012,"duration":166.66649999999208,"noteNumber":86,"velocity":85,"programNumber":40},{"time":273999.7260000012,"duration":166.66649999999208,"noteNumber":62,"velocity":85,"programNumber":40},{"time":274221.9480000012,"duration":166.66649999999208,"noteNumber":62,"velocity":85,"programNumber":40},{"time":274444.1700000012,"duration":166.66649999999208,"noteNumber":62,"velocity":85,"programNumber":40},{"time":274666.3920000012,"duration":444.4440000000177,"noteNumber":62,"velocity":85,"programNumber":40},{"time":275555.28000000125,"duration":666.6660000000265,"noteNumber":74,"velocity":46,"programNumber":40},{"time":276221.9460000013,"duration":74.07400000002235,"noteNumber":72,"velocity":47,"programNumber":40},{"time":276296.0200000013,"duration":74.07400000002235,"noteNumber":71,"velocity":47,"programNumber":40},{"time":276370.0940000013,"duration":74.07400000002235,"noteNumber":69,"velocity":47,"programNumber":40},{"time":276444.16800000134,"duration":222.22200000000885,"noteNumber":67,"velocity":47,"programNumber":40},{"time":276888.61200000136,"duration":222.22200000000885,"noteNumber":76,"velocity":47,"programNumber":40},{"time":277333.0560000014,"duration":222.22200000000885,"noteNumber":72,"velocity":46,"programNumber":40},{"time":277777.5000000014,"duration":222.22200000000885,"noteNumber":69,"velocity":43,"programNumber":40},{"time":278221.9440000014,"duration":222.22200000000885,"noteNumber":74,"velocity":59,"programNumber":40},{"time":279110.83200000145,"duration":666.6660000000265,"noteNumber":83,"velocity":55,"programNumber":40},{"time":279777.4980000015,"duration":74.07400000002235,"noteNumber":81,"velocity":55,"programNumber":40},{"time":279851.5720000015,"duration":74.07400000002235,"noteNumber":79,"velocity":55,"programNumber":40},{"time":279925.6460000015,"duration":74.07400000002235,"noteNumber":78,"velocity":55,"programNumber":40},{"time":279999.72000000154,"duration":222.22200000000885,"noteNumber":76,"velocity":55,"programNumber":40},{"time":280444.16400000156,"duration":222.22200000000885,"noteNumber":84,"velocity":55,"programNumber":40},{"time":280888.6080000016,"duration":888.8879999999772,"noteNumber":83,"velocity":55,"programNumber":40},{"time":281777.49600000156,"duration":444.4440000000177,"noteNumber":81,"velocity":47,"programNumber":40},{"time":282888.6060000016,"duration":111.11099999997532,"noteNumber":86,"velocity":55,"programNumber":40},{"time":283110.82800000155,"duration":111.11099999997532,"noteNumber":86,"velocity":55,"programNumber":40},{"time":283333.0500000015,"duration":111.11099999997532,"noteNumber":86,"velocity":55,"programNumber":40},{"time":283555.27200000145,"duration":111.11099999997532,"noteNumber":86,"velocity":55,"programNumber":40},{"time":283777.4940000014,"duration":111.11099999997532,"noteNumber":86,"velocity":55,"programNumber":40},{"time":283999.71600000135,"duration":111.11099999997532,"noteNumber":86,"velocity":55,"programNumber":40},{"time":284221.9380000013,"duration":111.11099999997532,"noteNumber":86,"velocity":55,"programNumber":40},{"time":284444.16000000125,"duration":111.11099999997532,"noteNumber":86,"velocity":55,"programNumber":40},{"time":284666.3820000012,"duration":111.11099999997532,"noteNumber":86,"velocity":55,"programNumber":40},{"time":284888.60400000116,"duration":111.11099999997532,"noteNumber":86,"velocity":55,"programNumber":40},{"time":285110.8260000011,"duration":111.11099999997532,"noteNumber":86,"velocity":55,"programNumber":40},{"time":285333.04800000106,"duration":222.22200000000885,"noteNumber":86,"velocity":55,"programNumber":40},{"time":285555.27000000107,"duration":222.22200000000885,"noteNumber":84,"velocity":55,"programNumber":40},{"time":285777.4920000011,"duration":222.22200000000885,"noteNumber":79,"velocity":55,"programNumber":40},{"time":285999.7140000011,"duration":222.22200000000885,"noteNumber":78,"velocity":55,"programNumber":40},{"time":286221.9360000011,"duration":222.22200000000885,"noteNumber":78,"velocity":55,"programNumber":40},{"time":286444.1580000011,"duration":222.22200000000885,"noteNumber":79,"velocity":65,"programNumber":40},{"time":286888.6020000011,"duration":111.11099999997532,"noteNumber":76,"velocity":55,"programNumber":40},{"time":287110.82400000107,"duration":222.22200000000885,"noteNumber":76,"velocity":55,"programNumber":40},{"time":287333.0460000011,"duration":222.22200000000885,"noteNumber":74,"velocity":55,"programNumber":40},{"time":287777.4900000011,"duration":166.66649999999208,"noteNumber":66,"velocity":55,"programNumber":40},{"time":287999.7120000011,"duration":444.4440000000177,"noteNumber":67,"velocity":67,"programNumber":40},{"time":288666.37800000113,"duration":111.11099999997532,"noteNumber":74,"velocity":55,"programNumber":40},{"time":288888.6000000011,"duration":222.22200000000885,"noteNumber":79,"velocity":55,"programNumber":40},{"time":289110.8220000011,"duration":222.22200000000885,"noteNumber":78,"velocity":55,"programNumber":40},{"time":289333.0440000011,"duration":222.22200000000885,"noteNumber":76,"velocity":55,"programNumber":40},{"time":289555.2660000011,"duration":222.22200000000885,"noteNumber":74,"velocity":55,"programNumber":40},{"time":289777.4880000011,"duration":55.555500000016764,"noteNumber":76,"velocity":55,"programNumber":40},{"time":289833.04350000113,"duration":55.555500000016764,"noteNumber":78,"velocity":55,"programNumber":40},{"time":289888.59900000115,"duration":55.555500000016764,"noteNumber":76,"velocity":55,"programNumber":40},{"time":289944.15450000117,"duration":55.555500000016764,"noteNumber":78,"velocity":55,"programNumber":40},{"time":289999.7100000012,"duration":222.22200000000885,"noteNumber":74,"velocity":55,"programNumber":40},{"time":290444.1540000012,"duration":111.11099999997532,"noteNumber":74,"velocity":55,"programNumber":40},{"time":290666.37600000115,"duration":111.11099999997532,"noteNumber":74,"velocity":55,"programNumber":40},{"time":290888.5980000011,"duration":111.11099999997532,"noteNumber":74,"velocity":55,"programNumber":40},{"time":291110.82000000105,"duration":111.11099999997532,"noteNumber":74,"velocity":55,"programNumber":40},{"time":291333.042000001,"duration":111.11099999997532,"noteNumber":74,"velocity":55,"programNumber":40},{"time":291555.26400000096,"duration":55.555500000016764,"noteNumber":76,"velocity":55,"programNumber":40},{"time":291610.819500001,"duration":55.555500000016764,"noteNumber":78,"velocity":55,"programNumber":40},{"time":291666.375000001,"duration":55.555500000016764,"noteNumber":76,"velocity":55,"programNumber":40},{"time":291721.930500001,"duration":55.555500000016764,"noteNumber":78,"velocity":55,"programNumber":40},{"time":291777.486000001,"duration":222.22200000000885,"noteNumber":74,"velocity":55,"programNumber":40},{"time":292221.93000000104,"duration":166.66649999999208,"noteNumber":74,"velocity":55,"programNumber":40},{"time":292444.15200000105,"duration":222.22200000000885,"noteNumber":79,"velocity":55,"programNumber":40},{"time":292666.37400000106,"duration":222.22200000000885,"noteNumber":78,"velocity":55,"programNumber":40},{"time":292888.59600000107,"duration":222.22200000000885,"noteNumber":76,"velocity":55,"programNumber":40},{"time":293110.8180000011,"duration":222.22200000000885,"noteNumber":74,"velocity":55,"programNumber":40},{"time":293333.0400000011,"duration":55.555500000016764,"noteNumber":76,"velocity":55,"programNumber":40},{"time":293388.5955000011,"duration":55.555500000016764,"noteNumber":78,"velocity":55,"programNumber":40},{"time":293444.1510000011,"duration":55.555500000016764,"noteNumber":76,"velocity":55,"programNumber":40},{"time":293499.70650000114,"duration":55.555500000016764,"noteNumber":78,"velocity":55,"programNumber":40},{"time":293555.26200000115,"duration":222.22200000000885,"noteNumber":74,"velocity":55,"programNumber":40},{"time":293999.70600000117,"duration":111.11099999997532,"noteNumber":74,"velocity":55,"programNumber":40},{"time":294221.9280000011,"duration":111.11099999997532,"noteNumber":74,"velocity":55,"programNumber":40},{"time":294444.1500000011,"duration":111.11099999997532,"noteNumber":74,"velocity":55,"programNumber":40},{"time":294666.372000001,"duration":111.11099999997532,"noteNumber":74,"velocity":55,"programNumber":40},{"time":294888.594000001,"duration":111.11099999997532,"noteNumber":74,"velocity":55,"programNumber":40},{"time":295110.8160000009,"duration":55.555500000016764,"noteNumber":76,"velocity":55,"programNumber":40},{"time":295166.37150000094,"duration":55.555500000016764,"noteNumber":78,"velocity":55,"programNumber":40},{"time":295221.92700000096,"duration":55.555500000016764,"noteNumber":76,"velocity":55,"programNumber":40},{"time":295277.482500001,"duration":55.555500000016764,"noteNumber":78,"velocity":55,"programNumber":40},{"time":295333.038000001,"duration":222.22200000000885,"noteNumber":74,"velocity":55,"programNumber":40},{"time":295999.704000001,"duration":629.6290000000154,"noteNumber":76,"velocity":83,"programNumber":40},{"time":295999.704000001,"duration":629.6290000000154,"noteNumber":64,"velocity":83,"programNumber":40},{"time":296666.37000000104,"duration":74.07400000002235,"noteNumber":74,"velocity":82,"programNumber":40},{"time":296740.44400000107,"duration":74.07400000002235,"noteNumber":72,"velocity":82,"programNumber":40},{"time":296814.5180000011,"duration":74.07400000002235,"noteNumber":71,"velocity":82,"programNumber":40},{"time":296888.5920000011,"duration":444.4440000000177,"noteNumber":72,"velocity":83,"programNumber":40},{"time":297777.48000000115,"duration":629.6290000000154,"noteNumber":62,"velocity":85,"programNumber":40},{"time":297777.48000000115,"duration":629.6290000000154,"noteNumber":74,"velocity":85,"programNumber":40},{"time":298444.1460000012,"duration":74.07400000002235,"noteNumber":72,"velocity":77,"programNumber":40},{"time":298518.2200000012,"duration":74.07400000002235,"noteNumber":71,"velocity":79,"programNumber":40},{"time":298592.2940000012,"duration":74.07400000002235,"noteNumber":69,"velocity":83,"programNumber":40},{"time":298666.36800000124,"duration":444.4440000000177,"noteNumber":71,"velocity":88,"programNumber":40},{"time":299555.2560000013,"duration":222.22200000000885,"noteNumber":76,"velocity":85,"programNumber":40},{"time":299777.4780000013,"duration":111.11099999997532,"noteNumber":78,"velocity":85,"programNumber":40},{"time":299888.58900000126,"duration":111.11099999997532,"noteNumber":79,"velocity":85,"programNumber":40},{"time":299999.70000000123,"duration":166.66649999999208,"noteNumber":78,"velocity":85,"programNumber":40},{"time":300221.92200000124,"duration":111.11099999997532,"noteNumber":76,"velocity":85,"programNumber":40},{"time":300444.1440000012,"duration":222.22200000000885,"noteNumber":76,"velocity":85,"programNumber":40},{"time":300666.3660000012,"duration":166.66649999999208,"noteNumber":74,"velocity":85,"programNumber":40},{"time":300888.5880000012,"duration":111.11099999997532,"noteNumber":71,"velocity":85,"programNumber":40},{"time":301110.81000000116,"duration":111.11099999997532,"noteNumber":74,"velocity":85,"programNumber":40},{"time":301333.0320000011,"duration":222.22200000000885,"noteNumber":74,"velocity":85,"programNumber":40},{"time":301555.2540000011,"duration":166.66649999999208,"noteNumber":72,"velocity":85,"programNumber":40},{"time":301777.47600000113,"duration":111.11099999997532,"noteNumber":71,"velocity":85,"programNumber":40},{"time":301999.6980000011,"duration":111.11099999997532,"noteNumber":69,"velocity":85,"programNumber":40},{"time":302221.92000000103,"duration":444.4440000000177,"noteNumber":67,"velocity":85,"programNumber":40},{"time":302888.58600000106,"duration":111.11099999997532,"noteNumber":74,"velocity":50,"programNumber":40},{"time":303110.808000001,"duration":222.22200000000885,"noteNumber":79,"velocity":50,"programNumber":40},{"time":303333.030000001,"duration":222.22200000000885,"noteNumber":78,"velocity":50,"programNumber":40},{"time":303555.252000001,"duration":222.22200000000885,"noteNumber":76,"velocity":53,"programNumber":40},{"time":303777.47400000104,"duration":222.22200000000885,"noteNumber":74,"velocity":56,"programNumber":40},{"time":303999.69600000104,"duration":55.555500000016764,"noteNumber":76,"velocity":58,"programNumber":40},{"time":304055.25150000106,"duration":55.555500000016764,"noteNumber":78,"velocity":58,"programNumber":40},{"time":304110.8070000011,"duration":55.555500000016764,"noteNumber":76,"velocity":59,"programNumber":40},{"time":304166.3625000011,"duration":55.555500000016764,"noteNumber":78,"velocity":59,"programNumber":40},{"time":304221.9180000011,"duration":222.22200000000885,"noteNumber":74,"velocity":61,"programNumber":40},{"time":304666.3620000011,"duration":111.11099999997532,"noteNumber":74,"velocity":56,"programNumber":40},{"time":304888.5840000011,"duration":111.11099999997532,"noteNumber":74,"velocity":55,"programNumber":40},{"time":305110.80600000103,"duration":111.11099999997532,"noteNumber":74,"velocity":55,"programNumber":40},{"time":305333.028000001,"duration":111.11099999997532,"noteNumber":74,"velocity":53,"programNumber":40},{"time":305555.25000000093,"duration":111.11099999997532,"noteNumber":74,"velocity":52,"programNumber":40},{"time":305777.4720000009,"duration":55.555500000016764,"noteNumber":76,"velocity":55,"programNumber":40},{"time":305833.0275000009,"duration":55.555500000016764,"noteNumber":78,"velocity":55,"programNumber":40},{"time":305888.5830000009,"duration":55.555500000016764,"noteNumber":76,"velocity":55,"programNumber":40},{"time":305944.13850000093,"duration":55.555500000016764,"noteNumber":78,"velocity":55,"programNumber":40},{"time":305999.69400000095,"duration":222.22200000000885,"noteNumber":74,"velocity":55,"programNumber":40},{"time":306444.13800000097,"duration":166.66649999999208,"noteNumber":74,"velocity":55,"programNumber":40},{"time":306666.360000001,"duration":222.22200000000885,"noteNumber":79,"velocity":55,"programNumber":40},{"time":306888.582000001,"duration":222.22200000000885,"noteNumber":78,"velocity":55,"programNumber":40},{"time":307110.804000001,"duration":222.22200000000885,"noteNumber":76,"velocity":55,"programNumber":40},{"time":307333.026000001,"duration":222.22200000000885,"noteNumber":74,"velocity":56,"programNumber":40},{"time":307555.248000001,"duration":55.555500000016764,"noteNumber":76,"velocity":65,"programNumber":40},{"time":307610.803500001,"duration":55.555500000016764,"noteNumber":78,"velocity":65,"programNumber":40},{"time":307666.35900000104,"duration":55.555500000016764,"noteNumber":76,"velocity":65,"programNumber":40},{"time":307721.91450000106,"duration":55.555500000016764,"noteNumber":78,"velocity":65,"programNumber":40},{"time":307777.4700000011,"duration":222.22200000000885,"noteNumber":74,"velocity":64,"programNumber":40},{"time":308221.9140000011,"duration":111.11099999997532,"noteNumber":74,"velocity":55,"programNumber":40},{"time":308444.13600000105,"duration":111.11099999997532,"noteNumber":74,"velocity":55,"programNumber":40},{"time":308666.358000001,"duration":111.11099999997532,"noteNumber":74,"velocity":55,"programNumber":40},{"time":308888.58000000095,"duration":111.11099999997532,"noteNumber":74,"velocity":55,"programNumber":40},{"time":309110.8020000009,"duration":111.11099999997532,"noteNumber":74,"velocity":55,"programNumber":40},{"time":309333.02400000085,"duration":55.555500000016764,"noteNumber":76,"velocity":59,"programNumber":40},{"time":309388.57950000087,"duration":55.555500000016764,"noteNumber":78,"velocity":59,"programNumber":40},{"time":309444.1350000009,"duration":55.555500000016764,"noteNumber":76,"velocity":59,"programNumber":40},{"time":309499.6905000009,"duration":55.555500000016764,"noteNumber":78,"velocity":59,"programNumber":40},{"time":309555.2460000009,"duration":222.22200000000885,"noteNumber":74,"velocity":59,"programNumber":40},{"time":310221.91200000094,"duration":629.6290000000154,"noteNumber":88,"velocity":85,"programNumber":40},{"time":310888.57800000097,"duration":74.07400000002235,"noteNumber":86,"velocity":85,"programNumber":40},{"time":310962.652000001,"duration":74.07400000002235,"noteNumber":84,"velocity":85,"programNumber":40},{"time":311036.726000001,"duration":74.07400000002235,"noteNumber":83,"velocity":85,"programNumber":40},{"time":311110.80000000104,"duration":444.4440000000177,"noteNumber":84,"velocity":85,"programNumber":40},{"time":311999.6880000011,"duration":629.6290000000154,"noteNumber":74,"velocity":85,"programNumber":40},{"time":311999.6880000011,"duration":629.6290000000154,"noteNumber":86,"velocity":85,"programNumber":40},{"time":312666.3540000011,"duration":74.07400000002235,"noteNumber":84,"velocity":82,"programNumber":40},{"time":312740.4280000011,"duration":74.07400000002235,"noteNumber":83,"velocity":83,"programNumber":40},{"time":312814.50200000114,"duration":74.07400000002235,"noteNumber":81,"velocity":83,"programNumber":40},{"time":312888.57600000117,"duration":444.4440000000177,"noteNumber":83,"velocity":86,"programNumber":40},{"time":313777.4640000012,"duration":222.22200000000885,"noteNumber":76,"velocity":85,"programNumber":40},{"time":313999.6860000012,"duration":111.11099999997532,"noteNumber":78,"velocity":85,"programNumber":40},{"time":314110.7970000012,"duration":111.11099999997532,"noteNumber":79,"velocity":85,"programNumber":40},{"time":314221.90800000116,"duration":166.66649999999208,"noteNumber":78,"velocity":85,"programNumber":40},{"time":314444.13000000117,"duration":111.11099999997532,"noteNumber":76,"velocity":85,"programNumber":40},{"time":314666.3520000011,"duration":111.11099999997532,"noteNumber":74,"velocity":85,"programNumber":40},{"time":314888.57400000107,"duration":111.11099999997532,"noteNumber":79,"velocity":85,"programNumber":40},{"time":315110.796000001,"duration":111.11099999997532,"noteNumber":83,"velocity":85,"programNumber":40},{"time":315333.018000001,"duration":111.11099999997532,"noteNumber":86,"velocity":85,"programNumber":40},{"time":315555.2400000009,"duration":222.22200000000885,"noteNumber":86,"velocity":85,"programNumber":40},{"time":315777.46200000093,"duration":166.66649999999208,"noteNumber":84,"velocity":85,"programNumber":40},{"time":315999.68400000094,"duration":111.11099999997532,"noteNumber":83,"velocity":85,"programNumber":40},{"time":316221.9060000009,"duration":111.11099999997532,"noteNumber":81,"velocity":85,"programNumber":40},{"time":316444.12800000084,"duration":166.66649999999208,"noteNumber":79,"velocity":94,"programNumber":40},{"time":316666.35000000085,"duration":166.66649999999208,"noteNumber":62,"velocity":85,"programNumber":40},{"time":316888.57200000086,"duration":166.66649999999208,"noteNumber":64,"velocity":85,"programNumber":40},{"time":317110.79400000087,"duration":166.66649999999208,"noteNumber":66,"velocity":85,"programNumber":40},{"time":317333.0160000009,"duration":166.66649999999208,"noteNumber":67,"velocity":85,"programNumber":40},{"time":317555.2380000009,"duration":166.66649999999208,"noteNumber":67,"velocity":85,"programNumber":40},{"time":317777.4600000009,"duration":55.555500000016764,"noteNumber":69,"velocity":85,"programNumber":40},{"time":317833.0155000009,"duration":55.555500000016764,"noteNumber":71,"velocity":85,"programNumber":40},{"time":317888.5710000009,"duration":55.555500000016764,"noteNumber":69,"velocity":85,"programNumber":40},{"time":317944.12650000094,"duration":55.555500000016764,"noteNumber":71,"velocity":85,"programNumber":40},{"time":317999.68200000096,"duration":111.11099999997532,"noteNumber":67,"velocity":85,"programNumber":40},{"time":318110.79300000094,"duration":111.11099999997532,"noteNumber":69,"velocity":85,"programNumber":40},{"time":318221.9040000009,"duration":166.66649999999208,"noteNumber":71,"velocity":85,"programNumber":40},{"time":318444.1260000009,"duration":166.66649999999208,"noteNumber":66,"velocity":85,"programNumber":40},{"time":318666.34800000093,"duration":166.66649999999208,"noteNumber":67,"velocity":85,"programNumber":40},{"time":318888.57000000094,"duration":166.66649999999208,"noteNumber":69,"velocity":85,"programNumber":40},{"time":319110.79200000095,"duration":166.66649999999208,"noteNumber":71,"velocity":85,"programNumber":40},{"time":319333.01400000096,"duration":166.66649999999208,"noteNumber":71,"velocity":85,"programNumber":40},{"time":319555.23600000096,"duration":55.555500000016764,"noteNumber":72,"velocity":86,"programNumber":40},{"time":319610.791500001,"duration":55.555500000016764,"noteNumber":74,"velocity":86,"programNumber":40},{"time":319666.347000001,"duration":55.555500000016764,"noteNumber":72,"velocity":86,"programNumber":40},{"time":319721.902500001,"duration":55.555500000016764,"noteNumber":74,"velocity":86,"programNumber":40},{"time":319777.45800000103,"duration":111.11099999997532,"noteNumber":71,"velocity":86,"programNumber":40},{"time":319888.569000001,"duration":111.11099999997532,"noteNumber":72,"velocity":89,"programNumber":40},{"time":319999.680000001,"duration":166.66649999999208,"noteNumber":74,"velocity":89,"programNumber":40},{"time":320221.902000001,"duration":166.66649999999208,"noteNumber":74,"velocity":91,"programNumber":40},{"time":320444.124000001,"duration":55.555500000016764,"noteNumber":75,"velocity":91,"programNumber":40},{"time":320499.679500001,"duration":55.555500000016764,"noteNumber":76,"velocity":91,"programNumber":40},{"time":320555.23500000103,"duration":55.555500000016764,"noteNumber":75,"velocity":91,"programNumber":40},{"time":320610.79050000105,"duration":55.555500000016764,"noteNumber":76,"velocity":92,"programNumber":40},{"time":320666.34600000107,"duration":111.11099999997532,"noteNumber":73,"velocity":94,"programNumber":40},{"time":320777.45700000104,"duration":111.11099999997532,"noteNumber":75,"velocity":97,"programNumber":40},{"time":320888.568000001,"duration":444.4440000000177,"noteNumber":76,"velocity":98,"programNumber":40},{"time":321777.45600000105,"duration":666.6660000000265,"noteNumber":64,"velocity":61,"programNumber":40},{"time":322444.1220000011,"duration":166.66649999999208,"noteNumber":69,"velocity":61,"programNumber":40},{"time":322666.3440000011,"duration":222.22200000000885,"noteNumber":67,"velocity":61,"programNumber":40},{"time":322888.5660000011,"duration":222.22200000000885,"noteNumber":66,"velocity":62,"programNumber":40},{"time":323110.7880000011,"duration":222.22200000000885,"noteNumber":64,"velocity":62,"programNumber":40},{"time":323333.0100000011,"duration":166.66649999999208,"noteNumber":62,"velocity":62,"programNumber":40},{"time":323555.2320000011,"duration":222.22200000000885,"noteNumber":74,"velocity":62,"programNumber":40},{"time":323777.45400000113,"duration":222.22200000000885,"noteNumber":73,"velocity":62,"programNumber":40},{"time":323999.67600000114,"duration":222.22200000000885,"noteNumber":72,"velocity":62,"programNumber":40},{"time":324221.89800000115,"duration":222.22200000000885,"noteNumber":71,"velocity":62,"programNumber":40},{"time":324444.12000000116,"duration":222.22200000000885,"noteNumber":74,"velocity":61,"programNumber":40},{"time":324666.34200000117,"duration":222.22200000000885,"noteNumber":73,"velocity":61,"programNumber":40},{"time":324888.5640000012,"duration":222.22200000000885,"noteNumber":72,"velocity":61,"programNumber":40},{"time":325110.7860000012,"duration":166.66649999999208,"noteNumber":71,"velocity":59,"programNumber":40},{"time":325333.0080000012,"duration":666.6660000000265,"noteNumber":64,"velocity":61,"programNumber":40},{"time":325999.6740000012,"duration":166.66649999999208,"noteNumber":69,"velocity":67,"programNumber":40},{"time":326221.89600000123,"duration":222.22200000000885,"noteNumber":67,"velocity":70,"programNumber":40},{"time":326444.11800000124,"duration":222.22200000000885,"noteNumber":66,"velocity":70,"programNumber":40},{"time":326666.34000000125,"duration":222.22200000000885,"noteNumber":64,"velocity":70,"programNumber":40},{"time":326888.56200000126,"duration":166.66649999999208,"noteNumber":62,"velocity":70,"programNumber":40},{"time":327110.78400000127,"duration":222.22200000000885,"noteNumber":74,"velocity":70,"programNumber":40},{"time":327333.0060000013,"duration":222.22200000000885,"noteNumber":76,"velocity":70,"programNumber":40},{"time":327555.2280000013,"duration":222.22200000000885,"noteNumber":78,"velocity":70,"programNumber":40},{"time":327777.4500000013,"duration":222.22200000000885,"noteNumber":79,"velocity":70,"programNumber":40},{"time":327999.6720000013,"duration":222.22200000000885,"noteNumber":74,"velocity":70,"programNumber":40},{"time":328221.8940000013,"duration":222.22200000000885,"noteNumber":76,"velocity":70,"programNumber":40},{"time":328444.1160000013,"duration":222.22200000000885,"noteNumber":78,"velocity":70,"programNumber":40},{"time":328666.3380000013,"duration":166.66649999999208,"noteNumber":79,"velocity":76,"programNumber":40},{"time":328888.56000000134,"duration":444.4440000000177,"noteNumber":81,"velocity":75,"programNumber":40},{"time":329777.4480000014,"duration":444.4440000000177,"noteNumber":86,"velocity":91,"programNumber":40},{"time":329777.4480000014,"duration":444.4440000000177,"noteNumber":74,"velocity":91,"programNumber":40},{"time":330666.3360000014,"duration":444.4440000000177,"noteNumber":79,"velocity":96,"programNumber":40},{"time":330666.3360000014,"duration":444.4440000000177,"noteNumber":71,"velocity":96,"programNumber":40},{"time":330666.3360000014,"duration":444.4440000000177,"noteNumber":62,"velocity":96,"programNumber":40},{"time":331333.00200000143,"duration":166.66649999999208,"noteNumber":74,"velocity":95,"programNumber":40},{"time":331555.22400000144,"duration":166.66649999999208,"noteNumber":71,"velocity":94,"programNumber":40},{"time":331777.44600000145,"duration":166.66649999999208,"noteNumber":67,"velocity":90,"programNumber":40},{"time":331999.66800000146,"duration":166.66649999999208,"noteNumber":71,"velocity":90,"programNumber":40},{"time":332221.89000000147,"duration":166.66649999999208,"noteNumber":74,"velocity":89,"programNumber":40},{"time":332444.1120000015,"duration":166.66649999999208,"noteNumber":79,"velocity":88,"programNumber":40},{"time":332666.3340000015,"duration":166.66649999999208,"noteNumber":74,"velocity":88,"programNumber":40},{"time":332888.5560000015,"duration":166.66649999999208,"noteNumber":79,"velocity":88,"programNumber":40},{"time":333110.7780000015,"duration":166.66649999999208,"noteNumber":83,"velocity":90,"programNumber":40},{"time":333333.0000000015,"duration":370.36999999999534,"noteNumber":86,"velocity":92,"programNumber":40},{"time":333777.44400000153,"duration":370.36999999999534,"noteNumber":78,"velocity":95,"programNumber":40},{"time":333777.44400000153,"duration":370.36999999999534,"noteNumber":69,"velocity":95,"programNumber":40},{"time":333777.44400000153,"duration":370.36999999999534,"noteNumber":62,"velocity":95,"programNumber":40},{"time":334221.88800000155,"duration":444.4440000000177,"noteNumber":79,"velocity":100,"programNumber":40},{"time":334221.88800000155,"duration":444.4440000000177,"noteNumber":71,"velocity":100,"programNumber":40},{"time":334221.88800000155,"duration":444.4440000000177,"noteNumber":62,"velocity":100,"programNumber":40},{"time":334888.5540000016,"duration":166.66649999999208,"noteNumber":74,"velocity":98,"programNumber":40},{"time":335110.7760000016,"duration":166.66649999999208,"noteNumber":71,"velocity":98,"programNumber":40},{"time":335332.9980000016,"duration":166.66649999999208,"noteNumber":67,"velocity":95,"programNumber":40},{"time":335555.2200000016,"duration":166.66649999999208,"noteNumber":71,"velocity":94,"programNumber":40},{"time":335777.4420000016,"duration":166.66649999999208,"noteNumber":74,"velocity":92,"programNumber":40},{"time":335999.6640000016,"duration":166.66649999999208,"noteNumber":79,"velocity":91,"programNumber":40},{"time":336221.8860000016,"duration":166.66649999999208,"noteNumber":74,"velocity":91,"programNumber":40},{"time":336444.10800000164,"duration":166.66649999999208,"noteNumber":79,"velocity":92,"programNumber":40},{"time":336666.33000000165,"duration":166.66649999999208,"noteNumber":83,"velocity":92,"programNumber":40},{"time":336888.55200000165,"duration":370.36999999999534,"noteNumber":86,"velocity":96,"programNumber":40},{"time":337332.9960000017,"duration":370.36999999999534,"noteNumber":78,"velocity":99,"programNumber":40},{"time":337332.9960000017,"duration":370.36999999999534,"noteNumber":69,"velocity":99,"programNumber":40},{"time":337332.9960000017,"duration":370.36999999999534,"noteNumber":62,"velocity":99,"programNumber":40},{"time":337777.4400000017,"duration":444.4440000000177,"noteNumber":79,"velocity":109,"programNumber":40},{"time":337777.4400000017,"duration":444.4440000000177,"noteNumber":71,"velocity":109,"programNumber":40},{"time":337777.4400000017,"duration":444.4440000000177,"noteNumber":62,"velocity":109,"programNumber":40},{"time":338666.3280000017,"duration":444.4440000000177,"noteNumber":79,"velocity":106,"programNumber":40},{"time":338666.3280000017,"duration":444.4440000000177,"noteNumber":71,"velocity":106,"programNumber":40},{"time":338666.3280000017,"duration":444.4440000000177,"noteNumber":62,"velocity":106,"programNumber":40},{"time":339555.21600000176,"duration":370.36999999999534,"noteNumber":79,"velocity":106,"programNumber":40},{"time":339555.21600000176,"duration":370.36999999999534,"noteNumber":71,"velocity":106,"programNumber":40},{"time":339555.21600000176,"duration":370.36999999999534,"noteNumber":62,"velocity":106,"programNumber":40},{"time":339999.6600000018,"duration":222.22200000000885,"noteNumber":67,"velocity":110,"programNumber":40},{"time":339999.6600000018,"duration":222.22200000000885,"noteNumber":55,"velocity":110,"programNumber":40},{"time":340332.99300000176,"duration":55.555500000016764,"noteNumber":67,"velocity":109,"programNumber":40},{"time":340332.99300000176,"duration":55.555500000016764,"noteNumber":55,"velocity":109,"programNumber":40},{"time":340444.1040000018,"duration":444.4440000000177,"noteNumber":67,"velocity":108,"programNumber":40},{"time":340444.1040000018,"duration":444.4440000000177,"noteNumber":55,"velocity":108,"programNumber":40}],[{"time":37.037,"duration":444.444,"noteNumber":62,"velocity":85,"programNumber":41},{"time":37.037,"duration":444.444,"noteNumber":71,"velocity":85,"programNumber":41},{"time":37.037,"duration":444.444,"noteNumber":79,"velocity":85,"programNumber":41},{"time":703.703,"duration":111.11099999999999,"noteNumber":74,"velocity":85,"programNumber":41},{"time":925.925,"duration":444.44399999999996,"noteNumber":79,"velocity":85,"programNumber":41},{"time":1592.591,"duration":111.1110000000001,"noteNumber":74,"velocity":85,"programNumber":41},{"time":1814.813,"duration":111.1110000000001,"noteNumber":79,"velocity":85,"programNumber":41},{"time":2037.0350000000003,"duration":111.11099999999988,"noteNumber":74,"velocity":85,"programNumber":41},{"time":2259.257,"duration":111.11099999999988,"noteNumber":79,"velocity":85,"programNumber":41},{"time":2481.479,"duration":111.11099999999988,"noteNumber":83,"velocity":85,"programNumber":41},{"time":2703.7009999999996,"duration":444.44399999999996,"noteNumber":86,"velocity":85,"programNumber":41},{"time":3592.5889999999995,"duration":444.44399999999996,"noteNumber":84,"velocity":85,"programNumber":41},{"time":4259.254999999999,"duration":111.11099999999988,"noteNumber":81,"velocity":85,"programNumber":41},{"time":4481.476999999999,"duration":444.4440000000004,"noteNumber":84,"velocity":85,"programNumber":41},{"time":5148.142999999999,"duration":111.11099999999988,"noteNumber":81,"velocity":85,"programNumber":41},{"time":5370.364999999999,"duration":111.11099999999988,"noteNumber":84,"velocity":85,"programNumber":41},{"time":5592.586999999999,"duration":111.11099999999988,"noteNumber":81,"velocity":85,"programNumber":41},{"time":5814.808999999998,"duration":111.11099999999988,"noteNumber":78,"velocity":85,"programNumber":41},{"time":6037.030999999998,"duration":111.11099999999988,"noteNumber":81,"velocity":85,"programNumber":41},{"time":6259.252999999998,"duration":444.4440000000004,"noteNumber":74,"velocity":85,"programNumber":41},{"time":7111.103999999998,"duration":74.07399999999961,"noteNumber":62,"velocity":85,"programNumber":41},{"time":7111.103999999998,"duration":74.07399999999961,"noteNumber":59,"velocity":85,"programNumber":41},{"time":7222.214999999998,"duration":74.07399999999961,"noteNumber":62,"velocity":85,"programNumber":41},{"time":7222.214999999998,"duration":74.07399999999961,"noteNumber":59,"velocity":85,"programNumber":41},{"time":7333.325999999998,"duration":74.07399999999961,"noteNumber":62,"velocity":85,"programNumber":41},{"time":7333.325999999998,"duration":74.07399999999961,"noteNumber":59,"velocity":85,"programNumber":41},{"time":7444.436999999998,"duration":74.07399999999961,"noteNumber":62,"velocity":85,"programNumber":41},{"time":7444.436999999998,"duration":74.07399999999961,"noteNumber":59,"velocity":85,"programNumber":41},{"time":7555.547999999998,"duration":74.07399999999961,"noteNumber":62,"velocity":85,"programNumber":41},{"time":7555.547999999998,"duration":74.07399999999961,"noteNumber":59,"velocity":85,"programNumber":41},{"time":7666.658999999998,"duration":74.07399999999961,"noteNumber":62,"velocity":85,"programNumber":41},{"time":7666.658999999998,"duration":74.07399999999961,"noteNumber":59,"velocity":85,"programNumber":41},{"time":7777.769999999998,"duration":74.07399999999961,"noteNumber":62,"velocity":85,"programNumber":41},{"time":7777.769999999998,"duration":74.07399999999961,"noteNumber":59,"velocity":85,"programNumber":41},{"time":7888.880999999998,"duration":74.07399999999961,"noteNumber":62,"velocity":85,"programNumber":41},{"time":7888.880999999998,"duration":74.07399999999961,"noteNumber":59,"velocity":85,"programNumber":41},{"time":7999.9919999999975,"duration":74.07399999999961,"noteNumber":62,"velocity":85,"programNumber":41},{"time":7999.9919999999975,"duration":74.07399999999961,"noteNumber":59,"velocity":85,"programNumber":41},{"time":8111.102999999997,"duration":74.07399999999961,"noteNumber":62,"velocity":85,"programNumber":41},{"time":8111.102999999997,"duration":74.07399999999961,"noteNumber":59,"velocity":85,"programNumber":41},{"time":8222.213999999996,"duration":74.07400000000052,"noteNumber":62,"velocity":85,"programNumber":41},{"time":8222.213999999996,"duration":74.07400000000052,"noteNumber":59,"velocity":85,"programNumber":41},{"time":8333.324999999997,"duration":74.07400000000052,"noteNumber":62,"velocity":85,"programNumber":41},{"time":8333.324999999997,"duration":74.07400000000052,"noteNumber":59,"velocity":85,"programNumber":41},{"time":8444.435999999998,"duration":74.07400000000052,"noteNumber":62,"velocity":85,"programNumber":41},{"time":8444.435999999998,"duration":74.07400000000052,"noteNumber":59,"velocity":85,"programNumber":41},{"time":8555.546999999999,"duration":74.07400000000052,"noteNumber":62,"velocity":85,"programNumber":41},{"time":8555.546999999999,"duration":74.07400000000052,"noteNumber":59,"velocity":85,"programNumber":41},{"time":8666.658,"duration":74.07400000000052,"noteNumber":62,"velocity":85,"programNumber":41},{"time":8666.658,"duration":74.07400000000052,"noteNumber":59,"velocity":85,"programNumber":41},{"time":8777.769,"duration":74.07400000000052,"noteNumber":62,"velocity":85,"programNumber":41},{"time":8777.769,"duration":74.07400000000052,"noteNumber":59,"velocity":85,"programNumber":41},{"time":8888.880000000001,"duration":74.07400000000052,"noteNumber":62,"velocity":85,"programNumber":41},{"time":8888.880000000001,"duration":74.07400000000052,"noteNumber":60,"velocity":85,"programNumber":41},{"time":8999.991000000002,"duration":74.07400000000052,"noteNumber":62,"velocity":85,"programNumber":41},{"time":8999.991000000002,"duration":74.07400000000052,"noteNumber":60,"velocity":85,"programNumber":41},{"time":9111.102000000003,"duration":74.07400000000052,"noteNumber":62,"velocity":85,"programNumber":41},{"time":9111.102000000003,"duration":74.07400000000052,"noteNumber":60,"velocity":85,"programNumber":41},{"time":9222.213000000003,"duration":74.07400000000052,"noteNumber":62,"velocity":85,"programNumber":41},{"time":9222.213000000003,"duration":74.07400000000052,"noteNumber":60,"velocity":85,"programNumber":41},{"time":9333.324000000004,"duration":74.07400000000052,"noteNumber":62,"velocity":85,"programNumber":41},{"time":9333.324000000004,"duration":74.07400000000052,"noteNumber":60,"velocity":85,"programNumber":41},{"time":9444.435000000005,"duration":74.07400000000052,"noteNumber":62,"velocity":85,"programNumber":41},{"time":9444.435000000005,"duration":74.07400000000052,"noteNumber":60,"velocity":85,"programNumber":41},{"time":9555.546000000006,"duration":74.07400000000052,"noteNumber":62,"velocity":85,"programNumber":41},{"time":9555.546000000006,"duration":74.07400000000052,"noteNumber":60,"velocity":85,"programNumber":41},{"time":9666.657000000007,"duration":74.07400000000052,"noteNumber":62,"velocity":85,"programNumber":41},{"time":9666.657000000007,"duration":74.07400000000052,"noteNumber":60,"velocity":85,"programNumber":41},{"time":9777.768000000007,"duration":74.07400000000052,"noteNumber":62,"velocity":85,"programNumber":41},{"time":9777.768000000007,"duration":74.07400000000052,"noteNumber":60,"velocity":85,"programNumber":41},{"time":9888.879000000008,"duration":74.07400000000052,"noteNumber":62,"velocity":85,"programNumber":41},{"time":9888.879000000008,"duration":74.07400000000052,"noteNumber":60,"velocity":85,"programNumber":41},{"time":9999.990000000009,"duration":74.07400000000052,"noteNumber":62,"velocity":85,"programNumber":41},{"time":9999.990000000009,"duration":74.07400000000052,"noteNumber":60,"velocity":85,"programNumber":41},{"time":10111.10100000001,"duration":74.07400000000052,"noteNumber":62,"velocity":85,"programNumber":41},{"time":10111.10100000001,"duration":74.07400000000052,"noteNumber":60,"velocity":85,"programNumber":41},{"time":10222.21200000001,"duration":74.07400000000052,"noteNumber":62,"velocity":85,"programNumber":41},{"time":10222.21200000001,"duration":74.07400000000052,"noteNumber":60,"velocity":85,"programNumber":41},{"time":10333.323000000011,"duration":74.07400000000052,"noteNumber":62,"velocity":85,"programNumber":41},{"time":10333.323000000011,"duration":74.07400000000052,"noteNumber":60,"velocity":85,"programNumber":41},{"time":10444.434000000012,"duration":74.07400000000052,"noteNumber":62,"velocity":85,"programNumber":41},{"time":10444.434000000012,"duration":74.07400000000052,"noteNumber":60,"velocity":85,"programNumber":41},{"time":10555.545000000013,"duration":74.07400000000052,"noteNumber":62,"velocity":85,"programNumber":41},{"time":10555.545000000013,"duration":74.07400000000052,"noteNumber":60,"velocity":85,"programNumber":41},{"time":10666.656000000014,"duration":74.07400000000052,"noteNumber":62,"velocity":85,"programNumber":41},{"time":10666.656000000014,"duration":74.07400000000052,"noteNumber":59,"velocity":85,"programNumber":41},{"time":10777.767000000014,"duration":74.07400000000052,"noteNumber":62,"velocity":85,"programNumber":41},{"time":10777.767000000014,"duration":74.07400000000052,"noteNumber":59,"velocity":85,"programNumber":41},{"time":10888.878000000015,"duration":74.07400000000052,"noteNumber":62,"velocity":85,"programNumber":41},{"time":10888.878000000015,"duration":74.07400000000052,"noteNumber":59,"velocity":85,"programNumber":41},{"time":10999.989000000016,"duration":74.07400000000052,"noteNumber":62,"velocity":85,"programNumber":41},{"time":10999.989000000016,"duration":74.07400000000052,"noteNumber":59,"velocity":85,"programNumber":41},{"time":11111.100000000017,"duration":74.07400000000052,"noteNumber":62,"velocity":85,"programNumber":41},{"time":11111.100000000017,"duration":74.07400000000052,"noteNumber":59,"velocity":85,"programNumber":41},{"time":11222.211000000018,"duration":74.07400000000052,"noteNumber":62,"velocity":85,"programNumber":41},{"time":11222.211000000018,"duration":74.07400000000052,"noteNumber":59,"velocity":85,"programNumber":41},{"time":11333.322000000018,"duration":74.07400000000052,"noteNumber":62,"velocity":85,"programNumber":41},{"time":11333.322000000018,"duration":74.07400000000052,"noteNumber":59,"velocity":85,"programNumber":41},{"time":11444.43300000002,"duration":74.07400000000052,"noteNumber":62,"velocity":85,"programNumber":41},{"time":11444.43300000002,"duration":74.07400000000052,"noteNumber":59,"velocity":85,"programNumber":41},{"time":11555.54400000002,"duration":74.07400000000052,"noteNumber":62,"velocity":85,"programNumber":41},{"time":11555.54400000002,"duration":74.07400000000052,"noteNumber":59,"velocity":85,"programNumber":41},{"time":11666.65500000002,"duration":74.07400000000052,"noteNumber":62,"velocity":85,"programNumber":41},{"time":11666.65500000002,"duration":74.07400000000052,"noteNumber":59,"velocity":85,"programNumber":41},{"time":11777.766000000021,"duration":74.07400000000052,"noteNumber":62,"velocity":85,"programNumber":41},{"time":11777.766000000021,"duration":74.07400000000052,"noteNumber":59,"velocity":85,"programNumber":41},{"time":11888.877000000022,"duration":74.07400000000052,"noteNumber":62,"velocity":85,"programNumber":41},{"time":11888.877000000022,"duration":74.07400000000052,"noteNumber":59,"velocity":85,"programNumber":41},{"time":11999.988000000023,"duration":74.07400000000052,"noteNumber":62,"velocity":85,"programNumber":41},{"time":11999.988000000023,"duration":74.07400000000052,"noteNumber":59,"velocity":85,"programNumber":41},{"time":12111.099000000024,"duration":74.07400000000052,"noteNumber":62,"velocity":85,"programNumber":41},{"time":12111.099000000024,"duration":74.07400000000052,"noteNumber":59,"velocity":85,"programNumber":41},{"time":12222.210000000025,"duration":74.07400000000052,"noteNumber":62,"velocity":85,"programNumber":41},{"time":12222.210000000025,"duration":74.07400000000052,"noteNumber":59,"velocity":85,"programNumber":41},{"time":12333.321000000025,"duration":74.07400000000052,"noteNumber":62,"velocity":85,"programNumber":41},{"time":12333.321000000025,"duration":74.07400000000052,"noteNumber":59,"velocity":85,"programNumber":41},{"time":12444.432000000026,"duration":74.07400000000052,"noteNumber":62,"velocity":85,"programNumber":41},{"time":12444.432000000026,"duration":74.07400000000052,"noteNumber":60,"velocity":85,"programNumber":41},{"time":12555.543000000027,"duration":74.07400000000052,"noteNumber":62,"velocity":85,"programNumber":41},{"time":12555.543000000027,"duration":74.07400000000052,"noteNumber":60,"velocity":85,"programNumber":41},{"time":12666.654000000028,"duration":74.07400000000052,"noteNumber":62,"velocity":85,"programNumber":41},{"time":12666.654000000028,"duration":74.07400000000052,"noteNumber":60,"velocity":85,"programNumber":41},{"time":12777.765000000029,"duration":74.07400000000052,"noteNumber":62,"velocity":85,"programNumber":41},{"time":12777.765000000029,"duration":74.07400000000052,"noteNumber":60,"velocity":85,"programNumber":41},{"time":12888.87600000003,"duration":74.07400000000052,"noteNumber":62,"velocity":85,"programNumber":41},{"time":12888.87600000003,"duration":74.07400000000052,"noteNumber":60,"velocity":85,"programNumber":41},{"time":12999.98700000003,"duration":74.07400000000052,"noteNumber":62,"velocity":85,"programNumber":41},{"time":12999.98700000003,"duration":74.07400000000052,"noteNumber":60,"velocity":85,"programNumber":41},{"time":13111.09800000003,"duration":74.07400000000052,"noteNumber":62,"velocity":85,"programNumber":41},{"time":13111.09800000003,"duration":74.07400000000052,"noteNumber":60,"velocity":85,"programNumber":41},{"time":13222.209000000032,"duration":74.07400000000052,"noteNumber":62,"velocity":85,"programNumber":41},{"time":13222.209000000032,"duration":74.07400000000052,"noteNumber":60,"velocity":85,"programNumber":41},{"time":13333.320000000032,"duration":74.07400000000052,"noteNumber":62,"velocity":85,"programNumber":41},{"time":13333.320000000032,"duration":74.07400000000052,"noteNumber":60,"velocity":85,"programNumber":41},{"time":13444.431000000033,"duration":74.07400000000052,"noteNumber":62,"velocity":85,"programNumber":41},{"time":13444.431000000033,"duration":74.07400000000052,"noteNumber":60,"velocity":85,"programNumber":41},{"time":13555.542000000034,"duration":74.07400000000052,"noteNumber":62,"velocity":85,"programNumber":41},{"time":13555.542000000034,"duration":74.07400000000052,"noteNumber":60,"velocity":85,"programNumber":41},{"time":13666.653000000035,"duration":74.07400000000052,"noteNumber":62,"velocity":85,"programNumber":41},{"time":13666.653000000035,"duration":74.07400000000052,"noteNumber":60,"velocity":85,"programNumber":41},{"time":13777.764000000036,"duration":74.07400000000052,"noteNumber":62,"velocity":85,"programNumber":41},{"time":13777.764000000036,"duration":74.07400000000052,"noteNumber":60,"velocity":85,"programNumber":41},{"time":13888.875000000036,"duration":74.07400000000052,"noteNumber":62,"velocity":85,"programNumber":41},{"time":13888.875000000036,"duration":74.07400000000052,"noteNumber":60,"velocity":85,"programNumber":41},{"time":13999.986000000037,"duration":74.07400000000052,"noteNumber":62,"velocity":85,"programNumber":41},{"time":13999.986000000037,"duration":74.07400000000052,"noteNumber":60,"velocity":85,"programNumber":41},{"time":14111.097000000038,"duration":74.07400000000052,"noteNumber":62,"velocity":85,"programNumber":41},{"time":14111.097000000038,"duration":74.07400000000052,"noteNumber":60,"velocity":85,"programNumber":41},{"time":14222.208000000039,"duration":444.4439999999995,"noteNumber":62,"velocity":85,"programNumber":41},{"time":14222.208000000039,"duration":444.4439999999995,"noteNumber":59,"velocity":85,"programNumber":41},{"time":14666.652000000038,"duration":166.66649999999936,"noteNumber":72,"velocity":85,"programNumber":41},{"time":14888.874000000038,"duration":166.66649999999936,"noteNumber":72,"velocity":85,"programNumber":41},{"time":15111.096000000038,"duration":166.66649999999936,"noteNumber":74,"velocity":85,"programNumber":41},{"time":15333.318000000038,"duration":166.66649999999936,"noteNumber":74,"velocity":85,"programNumber":41},{"time":15555.540000000037,"duration":222.22199999999975,"noteNumber":72,"velocity":85,"programNumber":41},{"time":15777.762000000037,"duration":111.11100000000079,"noteNumber":71,"velocity":85,"programNumber":41},{"time":15888.873000000038,"duration":111.11100000000079,"noteNumber":69,"velocity":85,"programNumber":41},{"time":15999.984000000039,"duration":166.66649999999936,"noteNumber":67,"velocity":85,"programNumber":41},{"time":16222.206000000038,"duration":166.66649999999936,"noteNumber":67,"velocity":85,"programNumber":41},{"time":16444.428000000036,"duration":166.66649999999936,"noteNumber":66,"velocity":85,"programNumber":41},{"time":16666.650000000034,"duration":166.66649999999936,"noteNumber":66,"velocity":85,"programNumber":41},{"time":16888.872000000032,"duration":444.4439999999995,"noteNumber":67,"velocity":85,"programNumber":41},{"time":17777.76000000003,"duration":888.887999999999,"noteNumber":71,"velocity":47,"programNumber":41},{"time":18666.64800000003,"duration":888.887999999999,"noteNumber":72,"velocity":47,"programNumber":41},{"time":19555.53600000003,"duration":111.11100000000079,"noteNumber":71,"velocity":47,"programNumber":41},{"time":19666.64700000003,"duration":296.29599999999846,"noteNumber":69,"velocity":47,"programNumber":41},{"time":19999.98000000003,"duration":444.4439999999995,"noteNumber":69,"velocity":47,"programNumber":41},{"time":20444.424000000028,"duration":111.11100000000079,"noteNumber":69,"velocity":47,"programNumber":41},{"time":20555.53500000003,"duration":296.29599999999846,"noteNumber":67,"velocity":47,"programNumber":41},{"time":20888.868000000028,"duration":444.4439999999995,"noteNumber":67,"velocity":47,"programNumber":41},{"time":21333.312000000027,"duration":333.3329999999987,"noteNumber":64,"velocity":47,"programNumber":41},{"time":21777.756000000027,"duration":333.3329999999987,"noteNumber":64,"velocity":47,"programNumber":41},{"time":22222.200000000026,"duration":333.3329999999987,"noteNumber":60,"velocity":47,"programNumber":41},{"time":22666.644000000026,"duration":333.3329999999987,"noteNumber":57,"velocity":47,"programNumber":41},{"time":23111.088000000025,"duration":222.22200000000157,"noteNumber":62,"velocity":47,"programNumber":41},{"time":23555.53200000003,"duration":222.22200000000157,"noteNumber":66,"velocity":47,"programNumber":41},{"time":23999.97600000003,"duration":222.22200000000157,"noteNumber":67,"velocity":47,"programNumber":41},{"time":24888.864000000034,"duration":888.887999999999,"noteNumber":71,"velocity":47,"programNumber":41},{"time":25777.752000000033,"duration":888.887999999999,"noteNumber":72,"velocity":47,"programNumber":41},{"time":26666.640000000032,"duration":222.22200000000157,"noteNumber":71,"velocity":47,"programNumber":41},{"time":26888.862000000034,"duration":111.11100000000079,"noteNumber":69,"velocity":47,"programNumber":41},{"time":27111.084000000035,"duration":111.11100000000079,"noteNumber":69,"velocity":47,"programNumber":41},{"time":27333.306000000037,"duration":111.11100000000079,"noteNumber":69,"velocity":47,"programNumber":41},{"time":27555.52800000004,"duration":222.22200000000157,"noteNumber":69,"velocity":47,"programNumber":41},{"time":27777.75000000004,"duration":111.11100000000079,"noteNumber":67,"velocity":47,"programNumber":41},{"time":27999.97200000004,"duration":111.11100000000079,"noteNumber":67,"velocity":47,"programNumber":41},{"time":28222.194000000043,"duration":111.11100000000079,"noteNumber":67,"velocity":47,"programNumber":41},{"time":28444.416000000045,"duration":333.3329999999987,"noteNumber":64,"velocity":47,"programNumber":41},{"time":28888.860000000044,"duration":166.66649999999936,"noteNumber":64,"velocity":47,"programNumber":41},{"time":29111.082000000042,"duration":166.66649999999936,"noteNumber":64,"velocity":47,"programNumber":41},{"time":29333.30400000004,"duration":333.3329999999987,"noteNumber":60,"velocity":47,"programNumber":41},{"time":29777.74800000004,"duration":166.66649999999936,"noteNumber":60,"velocity":47,"programNumber":41},{"time":29999.970000000038,"duration":166.66649999999936,"noteNumber":60,"velocity":47,"programNumber":41},{"time":30222.192000000035,"duration":1111.1100000000006,"noteNumber":59,"velocity":85,"programNumber":41},{"time":31333.302000000036,"duration":55.555499999998574,"noteNumber":59,"velocity":61,"programNumber":41},{"time":31388.857500000035,"duration":55.555499999998574,"noteNumber":60,"velocity":61,"programNumber":41},{"time":31444.413000000033,"duration":55.555499999998574,"noteNumber":57,"velocity":61,"programNumber":41},{"time":31499.96850000003,"duration":55.555499999998574,"noteNumber":59,"velocity":61,"programNumber":41},{"time":31555.52400000003,"duration":222.22200000000157,"noteNumber":60,"velocity":61,"programNumber":41},{"time":31777.746000000032,"duration":222.22200000000157,"noteNumber":57,"velocity":61,"programNumber":41},{"time":31999.968000000033,"duration":1111.109999999997,"noteNumber":67,"velocity":85,"programNumber":41},{"time":33111.07800000003,"duration":55.55550000000221,"noteNumber":67,"velocity":61,"programNumber":41},{"time":33166.63350000003,"duration":55.55550000000221,"noteNumber":69,"velocity":61,"programNumber":41},{"time":33222.189000000035,"duration":55.55550000000221,"noteNumber":66,"velocity":61,"programNumber":41},{"time":33277.74450000004,"duration":55.55550000000221,"noteNumber":67,"velocity":61,"programNumber":41},{"time":33333.30000000004,"duration":222.22200000000157,"noteNumber":69,"velocity":61,"programNumber":41},{"time":33555.52200000004,"duration":222.22200000000157,"noteNumber":66,"velocity":61,"programNumber":41},{"time":33777.74400000004,"duration":74.07400000000052,"noteNumber":71,"velocity":53,"programNumber":41},{"time":33888.85500000004,"duration":74.07400000000052,"noteNumber":71,"velocity":53,"programNumber":41},{"time":33999.96600000004,"duration":74.07400000000052,"noteNumber":71,"velocity":55,"programNumber":41},{"time":34111.077000000034,"duration":74.07400000000052,"noteNumber":71,"velocity":55,"programNumber":41},{"time":34222.18800000003,"duration":74.07400000000052,"noteNumber":71,"velocity":55,"programNumber":41},{"time":34333.29900000003,"duration":74.07400000000052,"noteNumber":71,"velocity":56,"programNumber":41},{"time":34444.410000000025,"duration":74.07400000000052,"noteNumber":71,"velocity":56,"programNumber":41},{"time":34555.52100000002,"duration":74.07400000000052,"noteNumber":71,"velocity":58,"programNumber":41},{"time":34666.63200000002,"duration":74.07400000000052,"noteNumber":72,"velocity":58,"programNumber":41},{"time":34777.74300000002,"duration":74.07400000000052,"noteNumber":72,"velocity":59,"programNumber":41},{"time":34888.854000000014,"duration":74.07400000000052,"noteNumber":72,"velocity":59,"programNumber":41},{"time":34999.96500000001,"duration":74.07400000000052,"noteNumber":72,"velocity":61,"programNumber":41},{"time":35111.07600000001,"duration":74.07400000000052,"noteNumber":74,"velocity":61,"programNumber":41},{"time":35222.187000000005,"duration":74.07400000000052,"noteNumber":74,"velocity":62,"programNumber":41},{"time":35333.298,"duration":74.07400000000052,"noteNumber":74,"velocity":62,"programNumber":41},{"time":35444.409,"duration":74.07400000000052,"noteNumber":74,"velocity":64,"programNumber":41},{"time":35555.52,"duration":74.07400000000052,"noteNumber":71,"velocity":64,"programNumber":41},{"time":35666.630999999994,"duration":74.07400000000052,"noteNumber":71,"velocity":65,"programNumber":41},{"time":35777.74199999999,"duration":74.07400000000052,"noteNumber":71,"velocity":65,"programNumber":41},{"time":35888.85299999999,"duration":74.07400000000052,"noteNumber":71,"velocity":67,"programNumber":41},{"time":35999.963999999985,"duration":74.07400000000052,"noteNumber":74,"velocity":67,"programNumber":41},{"time":36111.07499999998,"duration":74.07400000000052,"noteNumber":74,"velocity":68,"programNumber":41},{"time":36222.18599999998,"duration":74.07400000000052,"noteNumber":74,"velocity":68,"programNumber":41},{"time":36333.29699999998,"duration":74.07400000000052,"noteNumber":74,"velocity":70,"programNumber":41},{"time":36444.407999999974,"duration":74.07400000000052,"noteNumber":74,"velocity":70,"programNumber":41},{"time":36555.51899999997,"duration":74.07400000000052,"noteNumber":74,"velocity":71,"programNumber":41},{"time":36666.62999999997,"duration":74.07400000000052,"noteNumber":74,"velocity":71,"programNumber":41},{"time":36777.740999999965,"duration":74.07400000000052,"noteNumber":74,"velocity":73,"programNumber":41},{"time":36888.85199999996,"duration":74.07400000000052,"noteNumber":79,"velocity":73,"programNumber":41},{"time":36999.96299999996,"duration":74.07400000000052,"noteNumber":79,"velocity":73,"programNumber":41},{"time":37111.07399999996,"duration":74.07400000000052,"noteNumber":79,"velocity":74,"programNumber":41},{"time":37222.184999999954,"duration":74.07400000000052,"noteNumber":79,"velocity":74,"programNumber":41},{"time":37333.29599999995,"duration":74.07400000000052,"noteNumber":78,"velocity":85,"programNumber":41},{"time":37444.40699999995,"duration":74.07400000000052,"noteNumber":78,"velocity":85,"programNumber":41},{"time":37555.517999999945,"duration":74.07400000000052,"noteNumber":78,"velocity":85,"programNumber":41},{"time":37666.62899999994,"duration":74.07400000000052,"noteNumber":78,"velocity":85,"programNumber":41},{"time":37777.73999999994,"duration":74.07400000000052,"noteNumber":78,"velocity":85,"programNumber":41},{"time":37888.85099999994,"duration":74.07400000000052,"noteNumber":78,"velocity":85,"programNumber":41},{"time":37999.961999999934,"duration":74.07400000000052,"noteNumber":78,"velocity":85,"programNumber":41},{"time":38111.07299999993,"duration":74.07400000000052,"noteNumber":78,"velocity":85,"programNumber":41},{"time":38222.18399999993,"duration":74.07400000000052,"noteNumber":79,"velocity":85,"programNumber":41},{"time":38333.294999999925,"duration":74.07400000000052,"noteNumber":79,"velocity":85,"programNumber":41},{"time":38444.40599999992,"duration":74.07400000000052,"noteNumber":79,"velocity":85,"programNumber":41},{"time":38555.51699999992,"duration":74.07400000000052,"noteNumber":79,"velocity":85,"programNumber":41},{"time":38666.62799999992,"duration":74.07400000000052,"noteNumber":79,"velocity":85,"programNumber":41},{"time":38777.738999999914,"duration":74.07400000000052,"noteNumber":79,"velocity":85,"programNumber":41},{"time":38888.84999999991,"duration":74.07400000000052,"noteNumber":79,"velocity":85,"programNumber":41},{"time":38999.96099999991,"duration":74.07400000000052,"noteNumber":79,"velocity":85,"programNumber":41},{"time":39111.071999999906,"duration":74.07400000000052,"noteNumber":78,"velocity":85,"programNumber":41},{"time":39222.1829999999,"duration":74.07400000000052,"noteNumber":78,"velocity":85,"programNumber":41},{"time":39333.2939999999,"duration":74.07400000000052,"noteNumber":78,"velocity":85,"programNumber":41},{"time":39444.4049999999,"duration":74.07400000000052,"noteNumber":78,"velocity":85,"programNumber":41},{"time":39555.515999999894,"duration":74.07400000000052,"noteNumber":78,"velocity":85,"programNumber":41},{"time":39666.62699999989,"duration":74.07400000000052,"noteNumber":78,"velocity":85,"programNumber":41},{"time":39777.73799999989,"duration":74.07400000000052,"noteNumber":78,"velocity":85,"programNumber":41},{"time":39888.848999999886,"duration":74.07400000000052,"noteNumber":78,"velocity":85,"programNumber":41},{"time":39999.95999999988,"duration":74.07400000000052,"noteNumber":79,"velocity":85,"programNumber":41},{"time":40111.07099999988,"duration":74.07400000000052,"noteNumber":79,"velocity":85,"programNumber":41},{"time":40222.18199999988,"duration":74.07400000000052,"noteNumber":79,"velocity":85,"programNumber":41},{"time":40333.292999999874,"duration":74.07400000000052,"noteNumber":79,"velocity":85,"programNumber":41},{"time":40444.40399999987,"duration":74.07400000000052,"noteNumber":79,"velocity":85,"programNumber":41},{"time":40555.51499999987,"duration":74.07400000000052,"noteNumber":79,"velocity":85,"programNumber":41},{"time":40666.625999999866,"duration":74.07400000000052,"noteNumber":79,"velocity":85,"programNumber":41},{"time":40777.73699999986,"duration":74.07400000000052,"noteNumber":79,"velocity":85,"programNumber":41},{"time":40888.84799999986,"duration":111.11099999999715,"noteNumber":74,"velocity":85,"programNumber":41},{"time":41111.069999999854,"duration":333.3329999999987,"noteNumber":74,"velocity":85,"programNumber":41},{"time":41555.51399999985,"duration":333.3329999999987,"noteNumber":74,"velocity":85,"programNumber":41},{"time":41999.957999999846,"duration":333.3329999999987,"noteNumber":74,"velocity":85,"programNumber":41},{"time":42444.40199999984,"duration":333.3329999999987,"noteNumber":74,"velocity":85,"programNumber":41},{"time":42888.84599999984,"duration":333.3329999999987,"noteNumber":74,"velocity":85,"programNumber":41},{"time":43333.28999999983,"duration":333.3329999999987,"noteNumber":74,"velocity":85,"programNumber":41},{"time":43777.73399999983,"duration":333.3329999999987,"noteNumber":74,"velocity":85,"programNumber":41},{"time":44222.177999999825,"duration":222.22200000000157,"noteNumber":74,"velocity":85,"programNumber":41},{"time":44444.39999999983,"duration":74.07400000000052,"noteNumber":73,"velocity":85,"programNumber":41},{"time":44555.510999999824,"duration":74.07400000000052,"noteNumber":73,"velocity":85,"programNumber":41},{"time":44555.510999999824,"duration":74.07400000000052,"noteNumber":76,"velocity":85,"programNumber":41},{"time":44666.62199999982,"duration":74.07400000000052,"noteNumber":73,"velocity":85,"programNumber":41},{"time":44666.62199999982,"duration":74.07400000000052,"noteNumber":76,"velocity":85,"programNumber":41},{"time":44777.73299999982,"duration":74.07400000000052,"noteNumber":73,"velocity":85,"programNumber":41},{"time":44777.73299999982,"duration":74.07400000000052,"noteNumber":76,"velocity":85,"programNumber":41},{"time":44888.843999999815,"duration":74.07400000000052,"noteNumber":74,"velocity":85,"programNumber":41},{"time":44888.843999999815,"duration":74.07400000000052,"noteNumber":78,"velocity":85,"programNumber":41},{"time":44999.95499999981,"duration":74.07400000000052,"noteNumber":74,"velocity":85,"programNumber":41},{"time":44999.95499999981,"duration":74.07400000000052,"noteNumber":78,"velocity":85,"programNumber":41},{"time":45111.06599999981,"duration":74.07400000000052,"noteNumber":74,"velocity":85,"programNumber":41},{"time":45111.06599999981,"duration":74.07400000000052,"noteNumber":78,"velocity":85,"programNumber":41},{"time":45222.17699999981,"duration":74.07400000000052,"noteNumber":74,"velocity":85,"programNumber":41},{"time":45222.17699999981,"duration":74.07400000000052,"noteNumber":78,"velocity":85,"programNumber":41},{"time":45333.287999999804,"duration":74.07400000000052,"noteNumber":76,"velocity":85,"programNumber":41},{"time":45333.287999999804,"duration":74.07400000000052,"noteNumber":73,"velocity":85,"programNumber":41},{"time":45444.3989999998,"duration":74.07400000000052,"noteNumber":76,"velocity":85,"programNumber":41},{"time":45444.3989999998,"duration":74.07400000000052,"noteNumber":73,"velocity":85,"programNumber":41},{"time":45555.5099999998,"duration":74.07400000000052,"noteNumber":76,"velocity":85,"programNumber":41},{"time":45555.5099999998,"duration":74.07400000000052,"noteNumber":73,"velocity":85,"programNumber":41},{"time":45666.620999999795,"duration":74.07400000000052,"noteNumber":76,"velocity":85,"programNumber":41},{"time":45666.620999999795,"duration":74.07400000000052,"noteNumber":73,"velocity":85,"programNumber":41},{"time":45777.73199999979,"duration":74.07400000000052,"noteNumber":74,"velocity":85,"programNumber":41},{"time":45777.73199999979,"duration":74.07400000000052,"noteNumber":78,"velocity":85,"programNumber":41},{"time":45888.84299999979,"duration":74.07400000000052,"noteNumber":74,"velocity":85,"programNumber":41},{"time":45888.84299999979,"duration":74.07400000000052,"noteNumber":78,"velocity":85,"programNumber":41},{"time":45999.95399999979,"duration":74.07400000000052,"noteNumber":74,"velocity":85,"programNumber":41},{"time":45999.95399999979,"duration":74.07400000000052,"noteNumber":78,"velocity":85,"programNumber":41},{"time":46111.064999999784,"duration":74.07400000000052,"noteNumber":74,"velocity":85,"programNumber":41},{"time":46111.064999999784,"duration":74.07400000000052,"noteNumber":78,"velocity":85,"programNumber":41},{"time":46222.17599999978,"duration":166.66649999999936,"noteNumber":73,"velocity":85,"programNumber":41},{"time":46222.17599999978,"duration":166.66649999999936,"noteNumber":76,"velocity":85,"programNumber":41},{"time":46444.39799999978,"duration":166.66649999999936,"noteNumber":69,"velocity":85,"programNumber":41},{"time":46666.619999999784,"duration":166.66649999999936,"noteNumber":69,"velocity":85,"programNumber":41},{"time":46888.841999999786,"duration":166.66649999999936,"noteNumber":69,"velocity":85,"programNumber":41},{"time":47111.06399999979,"duration":444.44400000000314,"noteNumber":69,"velocity":85,"programNumber":41},{"time":47999.951999999794,"duration":666.6659999999974,"noteNumber":69,"velocity":55,"programNumber":41},{"time":48666.61799999979,"duration":74.07400000000052,"noteNumber":67,"velocity":55,"programNumber":41},{"time":48740.69199999979,"duration":74.07400000000052,"noteNumber":66,"velocity":55,"programNumber":41},{"time":48814.76599999979,"duration":74.07400000000052,"noteNumber":64,"velocity":55,"programNumber":41},{"time":48888.83999999979,"duration":222.22200000000157,"noteNumber":62,"velocity":55,"programNumber":41},{"time":49333.283999999796,"duration":222.22200000000157,"noteNumber":71,"velocity":55,"programNumber":41},{"time":49777.7279999998,"duration":222.22200000000157,"noteNumber":67,"velocity":55,"programNumber":41},{"time":50222.1719999998,"duration":222.22200000000157,"noteNumber":64,"velocity":55,"programNumber":41},{"time":50666.615999999805,"duration":222.22200000000157,"noteNumber":69,"velocity":55,"programNumber":41},{"time":51555.503999999804,"duration":666.6659999999974,"noteNumber":66,"velocity":55,"programNumber":41},{"time":52222.1699999998,"duration":74.07400000000052,"noteNumber":64,"velocity":55,"programNumber":41},{"time":52296.2439999998,"duration":74.07400000000052,"noteNumber":62,"velocity":55,"programNumber":41},{"time":52370.3179999998,"duration":74.07400000000052,"noteNumber":61,"velocity":55,"programNumber":41},{"time":52444.3919999998,"duration":222.22200000000157,"noteNumber":59,"velocity":55,"programNumber":41},{"time":52888.83599999981,"duration":222.22200000000157,"noteNumber":67,"velocity":55,"programNumber":41},{"time":53333.27999999981,"duration":888.887999999999,"noteNumber":66,"velocity":55,"programNumber":41},{"time":54222.16799999981,"duration":444.44400000000314,"noteNumber":64,"velocity":55,"programNumber":41},{"time":55111.055999999815,"duration":666.6659999999974,"noteNumber":69,"velocity":55,"programNumber":41},{"time":55777.72199999981,"duration":74.07400000000052,"noteNumber":67,"velocity":55,"programNumber":41},{"time":55851.79599999981,"duration":74.07400000000052,"noteNumber":66,"velocity":55,"programNumber":41},{"time":55925.86999999981,"duration":74.07400000000052,"noteNumber":64,"velocity":55,"programNumber":41},{"time":55999.943999999814,"duration":222.22200000000157,"noteNumber":62,"velocity":55,"programNumber":41},{"time":56444.38799999982,"duration":222.22200000000157,"noteNumber":71,"velocity":55,"programNumber":41},{"time":56888.83199999982,"duration":222.22200000000157,"noteNumber":67,"velocity":55,"programNumber":41},{"time":57333.27599999982,"duration":222.22200000000157,"noteNumber":64,"velocity":55,"programNumber":41},{"time":57777.71999999983,"duration":222.22200000000157,"noteNumber":69,"velocity":55,"programNumber":41},{"time":58388.83049999983,"duration":166.66649999999936,"noteNumber":67,"velocity":55,"programNumber":41},{"time":58666.607999999826,"duration":222.22200000000157,"noteNumber":67,"velocity":55,"programNumber":41},{"time":58888.82999999983,"duration":222.22200000000157,"noteNumber":66,"velocity":55,"programNumber":41},{"time":59333.27399999983,"duration":111.11099999999715,"noteNumber":79,"velocity":55,"programNumber":41},{"time":59555.495999999825,"duration":222.22200000000157,"noteNumber":79,"velocity":55,"programNumber":41},{"time":59777.717999999826,"duration":222.22200000000157,"noteNumber":78,"velocity":55,"programNumber":41},{"time":60222.16199999983,"duration":166.66649999999936,"noteNumber":67,"velocity":55,"programNumber":41},{"time":60444.38399999983,"duration":166.66649999999936,"noteNumber":66,"velocity":55,"programNumber":41},{"time":60666.60599999983,"duration":166.66649999999936,"noteNumber":66,"velocity":55,"programNumber":41},{"time":60888.827999999834,"duration":166.66649999999936,"noteNumber":67,"velocity":55,"programNumber":41},{"time":61111.049999999836,"duration":166.66649999999936,"noteNumber":67,"velocity":55,"programNumber":41},{"time":61333.27199999984,"duration":166.66649999999936,"noteNumber":69,"velocity":55,"programNumber":41},{"time":61555.49399999984,"duration":166.66649999999936,"noteNumber":69,"velocity":55,"programNumber":41},{"time":61777.71599999984,"duration":166.66649999999936,"noteNumber":66,"velocity":55,"programNumber":41},{"time":61999.93799999984,"duration":166.66649999999936,"noteNumber":66,"velocity":55,"programNumber":41},{"time":62222.15999999984,"duration":166.66649999999936,"noteNumber":64,"velocity":55,"programNumber":41},{"time":62444.381999999845,"duration":166.66649999999936,"noteNumber":64,"velocity":55,"programNumber":41},{"time":62666.60399999985,"duration":166.66649999999936,"noteNumber":66,"velocity":55,"programNumber":41},{"time":62888.82599999985,"duration":166.66649999999936,"noteNumber":66,"velocity":55,"programNumber":41},{"time":63111.04799999985,"duration":166.66649999999936,"noteNumber":67,"velocity":55,"programNumber":41},{"time":63333.26999999985,"duration":166.66649999999936,"noteNumber":67,"velocity":55,"programNumber":41},{"time":63555.49199999985,"duration":166.66649999999936,"noteNumber":64,"velocity":55,"programNumber":41},{"time":63777.713999999854,"duration":166.66649999999936,"noteNumber":64,"velocity":55,"programNumber":41},{"time":63999.935999999856,"duration":166.66649999999936,"noteNumber":66,"velocity":55,"programNumber":41},{"time":64222.15799999986,"duration":166.66649999999936,"noteNumber":66,"velocity":55,"programNumber":41},{"time":64444.37999999986,"duration":166.66649999999936,"noteNumber":67,"velocity":55,"programNumber":41},{"time":64666.60199999986,"duration":166.66649999999936,"noteNumber":67,"velocity":55,"programNumber":41},{"time":64888.82399999986,"duration":166.66649999999936,"noteNumber":69,"velocity":55,"programNumber":41},{"time":65111.045999999864,"duration":166.66649999999936,"noteNumber":69,"velocity":55,"programNumber":41},{"time":65333.267999999865,"duration":166.66649999999936,"noteNumber":66,"velocity":55,"programNumber":41},{"time":65555.48999999986,"duration":166.66650000000664,"noteNumber":66,"velocity":55,"programNumber":41},{"time":65777.71199999987,"duration":166.66650000000664,"noteNumber":64,"velocity":55,"programNumber":41},{"time":65999.93399999988,"duration":166.66650000000664,"noteNumber":64,"velocity":55,"programNumber":41},{"time":66222.15599999989,"duration":166.66650000000664,"noteNumber":66,"velocity":55,"programNumber":41},{"time":66444.3779999999,"duration":166.66650000000664,"noteNumber":66,"velocity":55,"programNumber":41},{"time":66666.5999999999,"duration":166.66650000000664,"noteNumber":67,"velocity":55,"programNumber":41},{"time":66888.82199999991,"duration":166.66650000000664,"noteNumber":67,"velocity":55,"programNumber":41},{"time":67111.04399999992,"duration":166.66650000000664,"noteNumber":64,"velocity":55,"programNumber":41},{"time":67333.26599999993,"duration":166.66650000000664,"noteNumber":64,"velocity":55,"programNumber":41},{"time":67555.48799999994,"duration":444.44400000000314,"noteNumber":66,"velocity":55,"programNumber":41},{"time":68444.37599999995,"duration":888.8880000000063,"noteNumber":71,"velocity":85,"programNumber":41},{"time":68444.37599999995,"duration":888.8880000000063,"noteNumber":78,"velocity":85,"programNumber":41},{"time":69333.26399999995,"duration":444.44400000000314,"noteNumber":76,"velocity":85,"programNumber":41},{"time":70222.15199999996,"duration":888.8880000000063,"noteNumber":76,"velocity":85,"programNumber":41},{"time":70222.15199999996,"duration":888.8880000000063,"noteNumber":69,"velocity":85,"programNumber":41},{"time":71111.03999999996,"duration":166.66650000000664,"noteNumber":74,"velocity":85,"programNumber":41},{"time":71333.26199999997,"duration":111.11100000000442,"noteNumber":78,"velocity":85,"programNumber":41},{"time":71555.48399999998,"duration":111.11100000000442,"noteNumber":79,"velocity":85,"programNumber":41},{"time":71777.70599999999,"duration":111.11100000000442,"noteNumber":81,"velocity":85,"programNumber":41},{"time":71999.928,"duration":222.2219999999943,"noteNumber":79,"velocity":85,"programNumber":41},{"time":72222.15,"duration":111.11100000000442,"noteNumber":81,"velocity":85,"programNumber":41},{"time":72333.261,"duration":111.11100000000442,"noteNumber":83,"velocity":85,"programNumber":41},{"time":72444.372,"duration":166.66650000000664,"noteNumber":81,"velocity":85,"programNumber":41},{"time":72666.59400000001,"duration":111.11100000000442,"noteNumber":79,"velocity":85,"programNumber":41},{"time":72888.81600000002,"duration":222.2219999999943,"noteNumber":79,"velocity":85,"programNumber":41},{"time":73111.03800000002,"duration":166.66650000000664,"noteNumber":78,"velocity":85,"programNumber":41},{"time":73333.26000000002,"duration":111.11100000000442,"noteNumber":74,"velocity":85,"programNumber":41},{"time":73555.48200000003,"duration":111.11100000000442,"noteNumber":78,"velocity":85,"programNumber":41},{"time":73777.70400000004,"duration":222.2219999999943,"noteNumber":78,"velocity":85,"programNumber":41},{"time":73999.92600000004,"duration":166.66650000000664,"noteNumber":76,"velocity":85,"programNumber":41},{"time":74222.14800000004,"duration":111.11100000000442,"noteNumber":74,"velocity":85,"programNumber":41},{"time":74444.37000000005,"duration":111.11100000000442,"noteNumber":73,"velocity":85,"programNumber":41},{"time":74666.59200000006,"duration":166.66650000000664,"noteNumber":74,"velocity":85,"programNumber":41},{"time":74888.81400000007,"duration":166.66650000000664,"noteNumber":66,"velocity":53,"programNumber":41},{"time":75111.03600000008,"duration":166.66650000000664,"noteNumber":67,"velocity":53,"programNumber":41},{"time":75333.25800000009,"duration":166.66650000000664,"noteNumber":67,"velocity":53,"programNumber":41},{"time":75555.4800000001,"duration":166.66650000000664,"noteNumber":69,"velocity":53,"programNumber":41},{"time":75777.7020000001,"duration":166.66650000000664,"noteNumber":69,"velocity":53,"programNumber":41},{"time":75999.92400000012,"duration":166.66650000000664,"noteNumber":66,"velocity":53,"programNumber":41},{"time":76222.14600000012,"duration":166.66650000000664,"noteNumber":66,"velocity":53,"programNumber":41},{"time":76444.36800000013,"duration":166.66650000000664,"noteNumber":64,"velocity":55,"programNumber":41},{"time":76666.59000000014,"duration":166.66650000000664,"noteNumber":64,"velocity":55,"programNumber":41},{"time":76888.81200000015,"duration":166.66650000000664,"noteNumber":66,"velocity":55,"programNumber":41},{"time":77111.03400000016,"duration":166.66650000000664,"noteNumber":66,"velocity":55,"programNumber":41},{"time":77333.25600000017,"duration":166.66650000000664,"noteNumber":67,"velocity":55,"programNumber":41},{"time":77555.47800000018,"duration":166.66650000000664,"noteNumber":67,"velocity":55,"programNumber":41},{"time":77777.70000000019,"duration":166.66650000000664,"noteNumber":64,"velocity":55,"programNumber":41},{"time":77999.9220000002,"duration":166.66650000000664,"noteNumber":64,"velocity":55,"programNumber":41},{"time":78222.1440000002,"duration":166.66650000000664,"noteNumber":66,"velocity":55,"programNumber":41},{"time":78444.36600000021,"duration":166.66650000000664,"noteNumber":66,"velocity":55,"programNumber":41},{"time":78666.58800000022,"duration":166.66650000000664,"noteNumber":67,"velocity":55,"programNumber":41},{"time":78888.81000000023,"duration":166.66650000000664,"noteNumber":67,"velocity":55,"programNumber":41},{"time":79111.03200000024,"duration":166.66650000000664,"noteNumber":69,"velocity":55,"programNumber":41},{"time":79333.25400000025,"duration":166.66650000000664,"noteNumber":69,"velocity":55,"programNumber":41},{"time":79555.47600000026,"duration":166.66650000000664,"noteNumber":66,"velocity":55,"programNumber":41},{"time":79777.69800000027,"duration":166.66650000000664,"noteNumber":66,"velocity":55,"programNumber":41},{"time":79999.92000000027,"duration":166.66650000000664,"noteNumber":64,"velocity":55,"programNumber":41},{"time":80222.14200000028,"duration":166.66650000000664,"noteNumber":64,"velocity":55,"programNumber":41},{"time":80444.36400000029,"duration":166.66650000000664,"noteNumber":66,"velocity":55,"programNumber":41},{"time":80666.5860000003,"duration":166.66650000000664,"noteNumber":66,"velocity":55,"programNumber":41},{"time":80888.80800000031,"duration":166.66650000000664,"noteNumber":67,"velocity":55,"programNumber":41},{"time":81111.03000000032,"duration":166.66650000000664,"noteNumber":67,"velocity":55,"programNumber":41},{"time":81333.25200000033,"duration":166.66650000000664,"noteNumber":64,"velocity":55,"programNumber":41},{"time":81555.47400000034,"duration":166.66650000000664,"noteNumber":64,"velocity":55,"programNumber":41},{"time":81777.69600000035,"duration":444.44400000000314,"noteNumber":66,"velocity":58,"programNumber":41},{"time":82666.58400000035,"duration":888.8880000000063,"noteNumber":71,"velocity":85,"programNumber":41},{"time":82666.58400000035,"duration":888.8880000000063,"noteNumber":78,"velocity":85,"programNumber":41},{"time":83555.47200000036,"duration":444.44400000000314,"noteNumber":76,"velocity":85,"programNumber":41},{"time":84444.36000000036,"duration":888.8880000000063,"noteNumber":76,"velocity":85,"programNumber":41},{"time":84444.36000000036,"duration":888.8880000000063,"noteNumber":69,"velocity":85,"programNumber":41},{"time":85333.24800000037,"duration":166.66650000000664,"noteNumber":74,"velocity":85,"programNumber":41},{"time":85555.47000000038,"duration":111.11100000000442,"noteNumber":78,"velocity":85,"programNumber":41},{"time":85777.69200000039,"duration":111.11100000000442,"noteNumber":79,"velocity":85,"programNumber":41},{"time":85999.9140000004,"duration":111.11100000000442,"noteNumber":81,"velocity":85,"programNumber":41},{"time":86222.1360000004,"duration":222.2219999999943,"noteNumber":79,"velocity":85,"programNumber":41},{"time":86444.3580000004,"duration":111.11100000000442,"noteNumber":81,"velocity":85,"programNumber":41},{"time":86555.4690000004,"duration":111.11100000000442,"noteNumber":83,"velocity":85,"programNumber":41},{"time":86666.58000000041,"duration":166.66650000000664,"noteNumber":81,"velocity":85,"programNumber":41},{"time":86888.80200000042,"duration":111.11100000000442,"noteNumber":79,"velocity":85,"programNumber":41},{"time":87111.02400000043,"duration":222.2219999999943,"noteNumber":79,"velocity":85,"programNumber":41},{"time":87333.24600000042,"duration":166.66650000000664,"noteNumber":78,"velocity":85,"programNumber":41},{"time":87555.46800000043,"duration":111.11100000000442,"noteNumber":74,"velocity":85,"programNumber":41},{"time":87777.69000000044,"duration":111.11100000000442,"noteNumber":78,"velocity":85,"programNumber":41},{"time":87999.91200000045,"duration":222.2219999999943,"noteNumber":78,"velocity":85,"programNumber":41},{"time":88222.13400000044,"duration":166.66650000000664,"noteNumber":76,"velocity":85,"programNumber":41},{"time":88444.35600000045,"duration":111.11100000000442,"noteNumber":74,"velocity":85,"programNumber":41},{"time":88666.57800000046,"duration":111.11100000000442,"noteNumber":73,"velocity":85,"programNumber":41},{"time":88888.80000000047,"duration":166.66650000000664,"noteNumber":74,"velocity":85,"programNumber":41},{"time":89111.02200000048,"duration":166.66650000000664,"noteNumber":69,"velocity":85,"programNumber":41},{"time":89333.24400000049,"duration":166.66650000000664,"noteNumber":71,"velocity":85,"programNumber":41},{"time":89555.4660000005,"duration":166.66650000000664,"noteNumber":73,"velocity":85,"programNumber":41},{"time":89777.6880000005,"duration":111.11100000000442,"noteNumber":74,"velocity":85,"programNumber":41},{"time":89999.91000000051,"duration":111.11100000000442,"noteNumber":74,"velocity":85,"programNumber":41},{"time":90222.13200000052,"duration":55.55550000000221,"noteNumber":76,"velocity":85,"programNumber":41},{"time":90277.68750000052,"duration":55.55550000000221,"noteNumber":78,"velocity":85,"programNumber":41},{"time":90333.24300000053,"duration":55.55550000000221,"noteNumber":76,"velocity":85,"programNumber":41},{"time":90388.79850000053,"duration":55.55550000000221,"noteNumber":78,"velocity":85,"programNumber":41},{"time":90444.35400000053,"duration":111.11100000000442,"noteNumber":74,"velocity":85,"programNumber":41},{"time":90555.46500000053,"duration":111.11100000000442,"noteNumber":76,"velocity":85,"programNumber":41},{"time":90666.57600000054,"duration":222.2219999999943,"noteNumber":78,"velocity":85,"programNumber":41},{"time":90888.79800000053,"duration":166.66650000000664,"noteNumber":73,"velocity":85,"programNumber":41},{"time":91111.02000000054,"duration":166.66650000000664,"noteNumber":74,"velocity":85,"programNumber":41},{"time":91333.24200000055,"duration":166.66650000000664,"noteNumber":76,"velocity":85,"programNumber":41},{"time":91555.46400000056,"duration":166.66650000000664,"noteNumber":78,"velocity":85,"programNumber":41},{"time":91777.68600000057,"duration":166.66650000000664,"noteNumber":78,"velocity":85,"programNumber":41},{"time":91999.90800000058,"duration":55.55550000000221,"noteNumber":79,"velocity":85,"programNumber":41},{"time":92055.46350000058,"duration":55.55550000000221,"noteNumber":81,"velocity":85,"programNumber":41},{"time":92111.01900000058,"duration":55.55550000000221,"noteNumber":79,"velocity":85,"programNumber":41},{"time":92166.57450000058,"duration":55.55550000000221,"noteNumber":81,"velocity":85,"programNumber":41},{"time":92222.13000000059,"duration":111.11100000000442,"noteNumber":78,"velocity":85,"programNumber":41},{"time":92333.24100000059,"duration":111.11100000000442,"noteNumber":79,"velocity":85,"programNumber":41},{"time":92444.3520000006,"duration":166.66650000000664,"noteNumber":81,"velocity":85,"programNumber":41},{"time":92666.5740000006,"duration":166.66650000000664,"noteNumber":81,"velocity":85,"programNumber":41},{"time":92888.79600000061,"duration":55.55550000000221,"noteNumber":82,"velocity":85,"programNumber":41},{"time":92944.35150000062,"duration":55.55550000000221,"noteNumber":83,"velocity":85,"programNumber":41},{"time":92999.90700000062,"duration":55.55550000000221,"noteNumber":82,"velocity":85,"programNumber":41},{"time":93055.46250000062,"duration":55.55550000000221,"noteNumber":83,"velocity":85,"programNumber":41},{"time":93111.01800000062,"duration":111.11100000000442,"noteNumber":80,"velocity":85,"programNumber":41},{"time":93222.12900000063,"duration":111.11100000000442,"noteNumber":82,"velocity":85,"programNumber":41},{"time":93333.24000000063,"duration":444.44400000000314,"noteNumber":83,"velocity":85,"programNumber":41},{"time":94222.12800000064,"duration":1777.775999999998,"noteNumber":67,"velocity":55,"programNumber":41},{"time":95999.90400000064,"duration":222.2219999999943,"noteNumber":66,"velocity":55,"programNumber":41},{"time":96444.34800000062,"duration":222.2219999999943,"noteNumber":69,"velocity":55,"programNumber":41},{"time":96888.79200000061,"duration":222.2219999999943,"noteNumber":66,"velocity":55,"programNumber":41},{"time":97814.7170000006,"duration":444.44400000000314,"noteNumber":62,"velocity":85,"programNumber":41},{"time":97814.7170000006,"duration":444.44400000000314,"noteNumber":71,"velocity":85,"programNumber":41},{"time":97814.7170000006,"duration":444.44400000000314,"noteNumber":79,"velocity":85,"programNumber":41},{"time":98481.3830000006,"duration":111.11100000000442,"noteNumber":74,"velocity":85,"programNumber":41},{"time":98703.6050000006,"duration":444.44400000000314,"noteNumber":79,"velocity":85,"programNumber":41},{"time":99370.2710000006,"duration":111.11100000000442,"noteNumber":74,"velocity":85,"programNumber":41},{"time":99592.49300000061,"duration":111.11100000000442,"noteNumber":79,"velocity":85,"programNumber":41},{"time":99814.71500000062,"duration":111.11100000000442,"noteNumber":74,"velocity":85,"programNumber":41},{"time":100036.93700000063,"duration":111.11100000000442,"noteNumber":79,"velocity":85,"programNumber":41},{"time":100259.15900000064,"duration":111.11100000000442,"noteNumber":83,"velocity":85,"programNumber":41},{"time":100481.38100000065,"duration":444.44400000000314,"noteNumber":86,"velocity":85,"programNumber":41},{"time":101370.26900000066,"duration":444.44400000000314,"noteNumber":84,"velocity":85,"programNumber":41},{"time":102036.93500000065,"duration":111.11100000000442,"noteNumber":81,"velocity":85,"programNumber":41},{"time":102259.15700000066,"duration":444.44400000000314,"noteNumber":84,"velocity":85,"programNumber":41},{"time":102925.82300000066,"duration":111.11100000000442,"noteNumber":81,"velocity":85,"programNumber":41},{"time":103148.04500000067,"duration":111.11100000000442,"noteNumber":84,"velocity":85,"programNumber":41},{"time":103370.26700000068,"duration":111.11100000000442,"noteNumber":81,"velocity":85,"programNumber":41},{"time":103592.48900000069,"duration":111.11100000000442,"noteNumber":78,"velocity":85,"programNumber":41},{"time":103814.7110000007,"duration":111.11100000000442,"noteNumber":81,"velocity":85,"programNumber":41},{"time":104036.9330000007,"duration":444.44400000000314,"noteNumber":74,"velocity":85,"programNumber":41},{"time":104888.78400000071,"duration":74.07399999999325,"noteNumber":62,"velocity":85,"programNumber":41},{"time":104888.78400000071,"duration":74.07399999999325,"noteNumber":59,"velocity":85,"programNumber":41},{"time":104999.8950000007,"duration":74.07399999999325,"noteNumber":62,"velocity":85,"programNumber":41},{"time":104999.8950000007,"duration":74.07399999999325,"noteNumber":59,"velocity":85,"programNumber":41},{"time":105111.00600000069,"duration":74.07399999999325,"noteNumber":62,"velocity":85,"programNumber":41},{"time":105111.00600000069,"duration":74.07399999999325,"noteNumber":59,"velocity":85,"programNumber":41},{"time":105222.11700000068,"duration":74.07399999999325,"noteNumber":62,"velocity":85,"programNumber":41},{"time":105222.11700000068,"duration":74.07399999999325,"noteNumber":59,"velocity":85,"programNumber":41},{"time":105333.22800000067,"duration":74.07399999999325,"noteNumber":62,"velocity":85,"programNumber":41},{"time":105333.22800000067,"duration":74.07399999999325,"noteNumber":59,"velocity":85,"programNumber":41},{"time":105444.33900000066,"duration":74.07399999999325,"noteNumber":62,"velocity":85,"programNumber":41},{"time":105444.33900000066,"duration":74.07399999999325,"noteNumber":59,"velocity":85,"programNumber":41},{"time":105555.45000000065,"duration":74.07399999999325,"noteNumber":62,"velocity":85,"programNumber":41},{"time":105555.45000000065,"duration":74.07399999999325,"noteNumber":59,"velocity":85,"programNumber":41},{"time":105666.56100000064,"duration":74.07399999999325,"noteNumber":62,"velocity":85,"programNumber":41},{"time":105666.56100000064,"duration":74.07399999999325,"noteNumber":59,"velocity":85,"programNumber":41},{"time":105777.67200000063,"duration":74.07399999999325,"noteNumber":62,"velocity":85,"programNumber":41},{"time":105777.67200000063,"duration":74.07399999999325,"noteNumber":59,"velocity":85,"programNumber":41},{"time":105888.78300000062,"duration":74.07399999999325,"noteNumber":62,"velocity":85,"programNumber":41},{"time":105888.78300000062,"duration":74.07399999999325,"noteNumber":59,"velocity":85,"programNumber":41},{"time":105999.89400000061,"duration":74.07399999999325,"noteNumber":62,"velocity":85,"programNumber":41},{"time":105999.89400000061,"duration":74.07399999999325,"noteNumber":59,"velocity":85,"programNumber":41},{"time":106111.0050000006,"duration":74.07399999999325,"noteNumber":62,"velocity":85,"programNumber":41},{"time":106111.0050000006,"duration":74.07399999999325,"noteNumber":59,"velocity":85,"programNumber":41},{"time":106222.11600000059,"duration":74.07399999999325,"noteNumber":62,"velocity":85,"programNumber":41},{"time":106222.11600000059,"duration":74.07399999999325,"noteNumber":59,"velocity":85,"programNumber":41},{"time":106333.22700000058,"duration":74.07399999999325,"noteNumber":62,"velocity":85,"programNumber":41},{"time":106333.22700000058,"duration":74.07399999999325,"noteNumber":59,"velocity":85,"programNumber":41},{"time":106444.33800000057,"duration":74.07399999999325,"noteNumber":62,"velocity":85,"programNumber":41},{"time":106444.33800000057,"duration":74.07399999999325,"noteNumber":59,"velocity":85,"programNumber":41},{"time":106555.44900000056,"duration":74.07399999999325,"noteNumber":62,"velocity":85,"programNumber":41},{"time":106555.44900000056,"duration":74.07399999999325,"noteNumber":59,"velocity":85,"programNumber":41},{"time":106666.56000000055,"duration":74.07399999999325,"noteNumber":62,"velocity":85,"programNumber":41},{"time":106666.56000000055,"duration":74.07399999999325,"noteNumber":60,"velocity":85,"programNumber":41},{"time":106777.67100000054,"duration":74.07399999999325,"noteNumber":62,"velocity":85,"programNumber":41},{"time":106777.67100000054,"duration":74.07399999999325,"noteNumber":60,"velocity":85,"programNumber":41},{"time":106888.78200000053,"duration":74.07399999999325,"noteNumber":62,"velocity":85,"programNumber":41},{"time":106888.78200000053,"duration":74.07399999999325,"noteNumber":60,"velocity":85,"programNumber":41},{"time":106999.89300000052,"duration":74.07399999999325,"noteNumber":62,"velocity":85,"programNumber":41},{"time":106999.89300000052,"duration":74.07399999999325,"noteNumber":60,"velocity":85,"programNumber":41},{"time":107111.00400000051,"duration":74.07399999999325,"noteNumber":62,"velocity":85,"programNumber":41},{"time":107111.00400000051,"duration":74.07399999999325,"noteNumber":60,"velocity":85,"programNumber":41},{"time":107222.1150000005,"duration":74.07399999999325,"noteNumber":62,"velocity":85,"programNumber":41},{"time":107222.1150000005,"duration":74.07399999999325,"noteNumber":60,"velocity":85,"programNumber":41},{"time":107333.22600000049,"duration":74.07399999999325,"noteNumber":62,"velocity":85,"programNumber":41},{"time":107333.22600000049,"duration":74.07399999999325,"noteNumber":60,"velocity":85,"programNumber":41},{"time":107444.33700000048,"duration":74.07399999999325,"noteNumber":62,"velocity":85,"programNumber":41},{"time":107444.33700000048,"duration":74.07399999999325,"noteNumber":60,"velocity":85,"programNumber":41},{"time":107555.44800000047,"duration":74.07399999999325,"noteNumber":62,"velocity":85,"programNumber":41},{"time":107555.44800000047,"duration":74.07399999999325,"noteNumber":60,"velocity":85,"programNumber":41},{"time":107666.55900000046,"duration":74.07399999999325,"noteNumber":62,"velocity":85,"programNumber":41},{"time":107666.55900000046,"duration":74.07399999999325,"noteNumber":60,"velocity":85,"programNumber":41},{"time":107777.67000000045,"duration":74.07399999999325,"noteNumber":62,"velocity":85,"programNumber":41},{"time":107777.67000000045,"duration":74.07399999999325,"noteNumber":60,"velocity":85,"programNumber":41},{"time":107888.78100000044,"duration":74.07399999999325,"noteNumber":62,"velocity":85,"programNumber":41},{"time":107888.78100000044,"duration":74.07399999999325,"noteNumber":60,"velocity":85,"programNumber":41},{"time":107999.89200000043,"duration":74.07399999999325,"noteNumber":62,"velocity":85,"programNumber":41},{"time":107999.89200000043,"duration":74.07399999999325,"noteNumber":60,"velocity":85,"programNumber":41},{"time":108111.00300000042,"duration":74.07399999999325,"noteNumber":62,"velocity":85,"programNumber":41},{"time":108111.00300000042,"duration":74.07399999999325,"noteNumber":60,"velocity":85,"programNumber":41},{"time":108222.11400000041,"duration":74.07399999999325,"noteNumber":62,"velocity":85,"programNumber":41},{"time":108222.11400000041,"duration":74.07399999999325,"noteNumber":60,"velocity":85,"programNumber":41},{"time":108333.2250000004,"duration":74.07399999999325,"noteNumber":62,"velocity":85,"programNumber":41},{"time":108333.2250000004,"duration":74.07399999999325,"noteNumber":60,"velocity":85,"programNumber":41},{"time":108444.33600000039,"duration":74.07399999999325,"noteNumber":62,"velocity":85,"programNumber":41},{"time":108444.33600000039,"duration":74.07399999999325,"noteNumber":59,"velocity":85,"programNumber":41},{"time":108555.44700000038,"duration":74.07399999999325,"noteNumber":62,"velocity":85,"programNumber":41},{"time":108555.44700000038,"duration":74.07399999999325,"noteNumber":59,"velocity":85,"programNumber":41},{"time":108666.55800000037,"duration":74.07399999999325,"noteNumber":62,"velocity":85,"programNumber":41},{"time":108666.55800000037,"duration":74.07399999999325,"noteNumber":59,"velocity":85,"programNumber":41},{"time":108777.66900000036,"duration":74.07399999999325,"noteNumber":62,"velocity":85,"programNumber":41},{"time":108777.66900000036,"duration":74.07399999999325,"noteNumber":59,"velocity":85,"programNumber":41},{"time":108888.78000000035,"duration":74.07399999999325,"noteNumber":62,"velocity":85,"programNumber":41},{"time":108888.78000000035,"duration":74.07399999999325,"noteNumber":59,"velocity":85,"programNumber":41},{"time":108999.89100000034,"duration":74.07399999999325,"noteNumber":62,"velocity":85,"programNumber":41},{"time":108999.89100000034,"duration":74.07399999999325,"noteNumber":59,"velocity":85,"programNumber":41},{"time":109111.00200000033,"duration":74.07399999999325,"noteNumber":62,"velocity":85,"programNumber":41},{"time":109111.00200000033,"duration":74.07399999999325,"noteNumber":59,"velocity":85,"programNumber":41},{"time":109222.11300000032,"duration":74.07399999999325,"noteNumber":62,"velocity":85,"programNumber":41},{"time":109222.11300000032,"duration":74.07399999999325,"noteNumber":59,"velocity":85,"programNumber":41},{"time":109333.22400000031,"duration":74.07399999999325,"noteNumber":62,"velocity":85,"programNumber":41},{"time":109333.22400000031,"duration":74.07399999999325,"noteNumber":59,"velocity":85,"programNumber":41},{"time":109444.3350000003,"duration":74.07399999999325,"noteNumber":62,"velocity":85,"programNumber":41},{"time":109444.3350000003,"duration":74.07399999999325,"noteNumber":59,"velocity":85,"programNumber":41},{"time":109555.44600000029,"duration":74.07399999999325,"noteNumber":62,"velocity":85,"programNumber":41},{"time":109555.44600000029,"duration":74.07399999999325,"noteNumber":59,"velocity":85,"programNumber":41},{"time":109666.55700000028,"duration":74.07399999999325,"noteNumber":62,"velocity":85,"programNumber":41},{"time":109666.55700000028,"duration":74.07399999999325,"noteNumber":59,"velocity":85,"programNumber":41},{"time":109777.66800000027,"duration":74.07399999999325,"noteNumber":62,"velocity":85,"programNumber":41},{"time":109777.66800000027,"duration":74.07399999999325,"noteNumber":59,"velocity":85,"programNumber":41},{"time":109888.77900000026,"duration":74.07399999999325,"noteNumber":62,"velocity":85,"programNumber":41},{"time":109888.77900000026,"duration":74.07399999999325,"noteNumber":59,"velocity":85,"programNumber":41},{"time":109999.89000000025,"duration":74.07399999999325,"noteNumber":62,"velocity":85,"programNumber":41},{"time":109999.89000000025,"duration":74.07399999999325,"noteNumber":59,"velocity":85,"programNumber":41},{"time":110111.00100000024,"duration":74.07399999999325,"noteNumber":62,"velocity":85,"programNumber":41},{"time":110111.00100000024,"duration":74.07399999999325,"noteNumber":59,"velocity":85,"programNumber":41},{"time":110222.11200000023,"duration":74.07399999999325,"noteNumber":62,"velocity":85,"programNumber":41},{"time":110222.11200000023,"duration":74.07399999999325,"noteNumber":60,"velocity":85,"programNumber":41},{"time":110333.22300000022,"duration":74.07399999999325,"noteNumber":62,"velocity":85,"programNumber":41},{"time":110333.22300000022,"duration":74.07399999999325,"noteNumber":60,"velocity":85,"programNumber":41},{"time":110444.3340000002,"duration":74.07399999999325,"noteNumber":62,"velocity":85,"programNumber":41},{"time":110444.3340000002,"duration":74.07399999999325,"noteNumber":60,"velocity":85,"programNumber":41},{"time":110555.4450000002,"duration":74.07399999999325,"noteNumber":62,"velocity":85,"programNumber":41},{"time":110555.4450000002,"duration":74.07399999999325,"noteNumber":60,"velocity":85,"programNumber":41},{"time":110666.55600000019,"duration":74.07399999999325,"noteNumber":62,"velocity":85,"programNumber":41},{"time":110666.55600000019,"duration":74.07399999999325,"noteNumber":60,"velocity":85,"programNumber":41},{"time":110777.66700000018,"duration":74.07399999999325,"noteNumber":62,"velocity":85,"programNumber":41},{"time":110777.66700000018,"duration":74.07399999999325,"noteNumber":60,"velocity":85,"programNumber":41},{"time":110888.77800000017,"duration":74.07399999999325,"noteNumber":62,"velocity":85,"programNumber":41},{"time":110888.77800000017,"duration":74.07399999999325,"noteNumber":60,"velocity":85,"programNumber":41},{"time":110999.88900000016,"duration":74.07399999999325,"noteNumber":62,"velocity":85,"programNumber":41},{"time":110999.88900000016,"duration":74.07399999999325,"noteNumber":60,"velocity":85,"programNumber":41},{"time":111111.00000000015,"duration":74.07399999999325,"noteNumber":62,"velocity":85,"programNumber":41},{"time":111111.00000000015,"duration":74.07399999999325,"noteNumber":60,"velocity":85,"programNumber":41},{"time":111222.11100000014,"duration":74.07399999999325,"noteNumber":62,"velocity":85,"programNumber":41},{"time":111222.11100000014,"duration":74.07399999999325,"noteNumber":60,"velocity":85,"programNumber":41},{"time":111333.22200000013,"duration":74.07399999999325,"noteNumber":62,"velocity":85,"programNumber":41},{"time":111333.22200000013,"duration":74.07399999999325,"noteNumber":60,"velocity":85,"programNumber":41},{"time":111444.33300000012,"duration":74.07399999999325,"noteNumber":62,"velocity":85,"programNumber":41},{"time":111444.33300000012,"duration":74.07399999999325,"noteNumber":60,"velocity":85,"programNumber":41},{"time":111555.4440000001,"duration":74.07399999999325,"noteNumber":62,"velocity":85,"programNumber":41},{"time":111555.4440000001,"duration":74.07399999999325,"noteNumber":60,"velocity":85,"programNumber":41},{"time":111666.5550000001,"duration":74.07399999999325,"noteNumber":62,"velocity":85,"programNumber":41},{"time":111666.5550000001,"duration":74.07399999999325,"noteNumber":60,"velocity":85,"programNumber":41},{"time":111777.66600000008,"duration":74.07399999999325,"noteNumber":62,"velocity":85,"programNumber":41},{"time":111777.66600000008,"duration":74.07399999999325,"noteNumber":60,"velocity":85,"programNumber":41},{"time":111888.77700000007,"duration":74.07399999999325,"noteNumber":62,"velocity":85,"programNumber":41},{"time":111888.77700000007,"duration":74.07399999999325,"noteNumber":60,"velocity":85,"programNumber":41},{"time":111999.88800000006,"duration":444.44400000000314,"noteNumber":62,"velocity":85,"programNumber":41},{"time":111999.88800000006,"duration":444.44400000000314,"noteNumber":59,"velocity":85,"programNumber":41},{"time":112444.33200000007,"duration":166.66650000000664,"noteNumber":72,"velocity":85,"programNumber":41},{"time":112666.55400000008,"duration":166.66650000000664,"noteNumber":72,"velocity":85,"programNumber":41},{"time":112888.77600000009,"duration":166.66650000000664,"noteNumber":74,"velocity":85,"programNumber":41},{"time":113110.9980000001,"duration":166.66650000000664,"noteNumber":74,"velocity":85,"programNumber":41},{"time":113333.2200000001,"duration":222.2219999999943,"noteNumber":72,"velocity":85,"programNumber":41},{"time":113555.4420000001,"duration":111.11100000000442,"noteNumber":71,"velocity":85,"programNumber":41},{"time":113666.5530000001,"duration":111.11100000000442,"noteNumber":69,"velocity":85,"programNumber":41},{"time":113777.6640000001,"duration":166.66650000000664,"noteNumber":67,"velocity":85,"programNumber":41},{"time":113999.88600000012,"duration":166.66650000000664,"noteNumber":67,"velocity":85,"programNumber":41},{"time":114222.10800000012,"duration":166.66650000000664,"noteNumber":66,"velocity":85,"programNumber":41},{"time":114444.33000000013,"duration":166.66650000000664,"noteNumber":66,"velocity":85,"programNumber":41},{"time":114666.55200000014,"duration":444.44400000000314,"noteNumber":67,"velocity":85,"programNumber":41},{"time":115555.44000000015,"duration":888.8880000000063,"noteNumber":71,"velocity":47,"programNumber":41},{"time":116444.32800000015,"duration":888.8880000000063,"noteNumber":72,"velocity":47,"programNumber":41},{"time":117333.21600000016,"duration":111.11100000000442,"noteNumber":71,"velocity":47,"programNumber":41},{"time":117444.32700000016,"duration":296.2960000000021,"noteNumber":69,"velocity":47,"programNumber":41},{"time":117777.66000000016,"duration":444.44400000000314,"noteNumber":69,"velocity":47,"programNumber":41},{"time":118222.10400000017,"duration":111.11100000000442,"noteNumber":69,"velocity":47,"programNumber":41},{"time":118333.21500000017,"duration":296.2960000000021,"noteNumber":67,"velocity":47,"programNumber":41},{"time":118666.54800000017,"duration":444.44400000000314,"noteNumber":67,"velocity":47,"programNumber":41},{"time":119110.99200000017,"duration":333.3329999999987,"noteNumber":64,"velocity":47,"programNumber":41},{"time":119555.43600000018,"duration":333.3329999999987,"noteNumber":64,"velocity":47,"programNumber":41},{"time":119999.88000000018,"duration":333.3329999999987,"noteNumber":60,"velocity":47,"programNumber":41},{"time":120444.32400000018,"duration":333.3329999999987,"noteNumber":57,"velocity":47,"programNumber":41},{"time":120888.76800000019,"duration":222.2219999999943,"noteNumber":62,"velocity":47,"programNumber":41},{"time":121333.21200000017,"duration":222.2219999999943,"noteNumber":66,"velocity":47,"programNumber":41},{"time":121777.65600000016,"duration":222.2219999999943,"noteNumber":67,"velocity":47,"programNumber":41},{"time":122666.54400000015,"duration":888.8880000000063,"noteNumber":71,"velocity":47,"programNumber":41},{"time":123555.43200000016,"duration":888.8880000000063,"noteNumber":72,"velocity":47,"programNumber":41},{"time":124444.32000000017,"duration":222.2219999999943,"noteNumber":71,"velocity":47,"programNumber":41},{"time":124666.54200000016,"duration":111.11100000000442,"noteNumber":69,"velocity":47,"programNumber":41},{"time":124888.76400000017,"duration":111.11100000000442,"noteNumber":69,"velocity":47,"programNumber":41},{"time":125110.98600000018,"duration":111.11100000000442,"noteNumber":69,"velocity":47,"programNumber":41},{"time":125333.20800000019,"duration":222.2219999999943,"noteNumber":69,"velocity":47,"programNumber":41},{"time":125555.43000000018,"duration":111.11100000000442,"noteNumber":67,"velocity":47,"programNumber":41},{"time":125777.65200000019,"duration":111.11100000000442,"noteNumber":67,"velocity":47,"programNumber":41},{"time":125999.8740000002,"duration":111.11100000000442,"noteNumber":67,"velocity":47,"programNumber":41},{"time":126222.09600000021,"duration":333.3329999999987,"noteNumber":64,"velocity":47,"programNumber":41},{"time":126666.54000000021,"duration":166.66650000000664,"noteNumber":64,"velocity":47,"programNumber":41},{"time":126888.76200000022,"duration":166.66650000000664,"noteNumber":64,"velocity":47,"programNumber":41},{"time":127110.98400000023,"duration":333.3329999999987,"noteNumber":60,"velocity":47,"programNumber":41},{"time":127555.42800000023,"duration":166.66650000000664,"noteNumber":60,"velocity":47,"programNumber":41},{"time":127777.65000000024,"duration":166.66650000000664,"noteNumber":60,"velocity":47,"programNumber":41},{"time":127999.87200000025,"duration":1111.1100000000006,"noteNumber":59,"velocity":85,"programNumber":41},{"time":129110.98200000025,"duration":55.55550000000221,"noteNumber":59,"velocity":61,"programNumber":41},{"time":129166.53750000025,"duration":55.55550000000221,"noteNumber":60,"velocity":61,"programNumber":41},{"time":129222.09300000026,"duration":55.55550000000221,"noteNumber":57,"velocity":61,"programNumber":41},{"time":129277.64850000026,"duration":55.55550000000221,"noteNumber":59,"velocity":61,"programNumber":41},{"time":129333.20400000026,"duration":222.2219999999943,"noteNumber":60,"velocity":61,"programNumber":41},{"time":129555.42600000025,"duration":222.2219999999943,"noteNumber":57,"velocity":61,"programNumber":41},{"time":129777.64800000025,"duration":1111.1100000000006,"noteNumber":67,"velocity":85,"programNumber":41},{"time":130888.75800000025,"duration":55.55550000000221,"noteNumber":67,"velocity":61,"programNumber":41},{"time":130944.31350000025,"duration":55.55550000000221,"noteNumber":69,"velocity":61,"programNumber":41},{"time":130999.86900000025,"duration":55.55550000000221,"noteNumber":66,"velocity":61,"programNumber":41},{"time":131055.42450000026,"duration":55.55549999998766,"noteNumber":67,"velocity":61,"programNumber":41},{"time":131110.98000000024,"duration":222.22200000000885,"noteNumber":69,"velocity":61,"programNumber":41},{"time":131333.20200000025,"duration":222.22200000000885,"noteNumber":66,"velocity":61,"programNumber":41},{"time":131555.42400000026,"duration":74.07399999999325,"noteNumber":71,"velocity":53,"programNumber":41},{"time":131666.53500000027,"duration":74.07399999999325,"noteNumber":71,"velocity":53,"programNumber":41},{"time":131777.64600000027,"duration":74.07399999999325,"noteNumber":71,"velocity":55,"programNumber":41},{"time":131888.75700000027,"duration":74.07399999999325,"noteNumber":71,"velocity":55,"programNumber":41},{"time":131999.86800000028,"duration":74.07399999999325,"noteNumber":71,"velocity":55,"programNumber":41},{"time":132110.97900000028,"duration":74.07399999999325,"noteNumber":71,"velocity":56,"programNumber":41},{"time":132222.0900000003,"duration":74.07399999999325,"noteNumber":71,"velocity":56,"programNumber":41},{"time":132333.2010000003,"duration":74.07399999999325,"noteNumber":71,"velocity":58,"programNumber":41},{"time":132444.3120000003,"duration":74.07399999999325,"noteNumber":72,"velocity":58,"programNumber":41},{"time":132555.4230000003,"duration":74.07399999999325,"noteNumber":72,"velocity":59,"programNumber":41},{"time":132666.5340000003,"duration":74.07399999999325,"noteNumber":72,"velocity":59,"programNumber":41},{"time":132777.6450000003,"duration":74.07399999999325,"noteNumber":72,"velocity":61,"programNumber":41},{"time":132888.7560000003,"duration":74.07399999999325,"noteNumber":74,"velocity":61,"programNumber":41},{"time":132999.86700000032,"duration":74.07399999999325,"noteNumber":74,"velocity":62,"programNumber":41},{"time":133110.97800000032,"duration":74.07399999999325,"noteNumber":74,"velocity":62,"programNumber":41},{"time":133222.08900000033,"duration":74.07399999999325,"noteNumber":74,"velocity":64,"programNumber":41},{"time":133333.20000000033,"duration":74.07399999999325,"noteNumber":71,"velocity":64,"programNumber":41},{"time":133444.31100000034,"duration":74.07399999999325,"noteNumber":71,"velocity":65,"programNumber":41},{"time":133555.42200000034,"duration":74.07399999999325,"noteNumber":71,"velocity":65,"programNumber":41},{"time":133666.53300000035,"duration":74.07399999999325,"noteNumber":71,"velocity":67,"programNumber":41},{"time":133777.64400000035,"duration":74.07399999999325,"noteNumber":74,"velocity":67,"programNumber":41},{"time":133888.75500000035,"duration":74.07399999999325,"noteNumber":74,"velocity":68,"programNumber":41},{"time":133999.86600000036,"duration":74.07399999999325,"noteNumber":74,"velocity":68,"programNumber":41},{"time":134110.97700000036,"duration":74.07399999999325,"noteNumber":74,"velocity":70,"programNumber":41},{"time":134222.08800000037,"duration":74.07399999999325,"noteNumber":74,"velocity":70,"programNumber":41},{"time":134333.19900000037,"duration":74.07399999999325,"noteNumber":74,"velocity":71,"programNumber":41},{"time":134444.31000000038,"duration":74.07399999999325,"noteNumber":74,"velocity":71,"programNumber":41},{"time":134555.42100000038,"duration":74.07399999999325,"noteNumber":74,"velocity":73,"programNumber":41},{"time":134666.53200000038,"duration":74.07399999999325,"noteNumber":79,"velocity":73,"programNumber":41},{"time":134777.6430000004,"duration":74.07399999999325,"noteNumber":79,"velocity":73,"programNumber":41},{"time":134888.7540000004,"duration":74.07399999999325,"noteNumber":79,"velocity":74,"programNumber":41},{"time":134999.8650000004,"duration":74.07399999999325,"noteNumber":79,"velocity":74,"programNumber":41},{"time":135110.9760000004,"duration":74.07399999999325,"noteNumber":78,"velocity":85,"programNumber":41},{"time":135222.0870000004,"duration":74.07399999999325,"noteNumber":78,"velocity":85,"programNumber":41},{"time":135333.1980000004,"duration":74.07399999999325,"noteNumber":78,"velocity":85,"programNumber":41},{"time":135444.30900000042,"duration":74.07399999999325,"noteNumber":78,"velocity":85,"programNumber":41},{"time":135555.42000000042,"duration":74.07399999999325,"noteNumber":78,"velocity":85,"programNumber":41},{"time":135666.53100000042,"duration":74.07399999999325,"noteNumber":78,"velocity":85,"programNumber":41},{"time":135777.64200000043,"duration":74.07399999999325,"noteNumber":78,"velocity":85,"programNumber":41},{"time":135888.75300000043,"duration":74.07399999999325,"noteNumber":78,"velocity":85,"programNumber":41},{"time":135999.86400000044,"duration":74.07399999999325,"noteNumber":79,"velocity":85,"programNumber":41},{"time":136110.97500000044,"duration":74.07399999999325,"noteNumber":79,"velocity":85,"programNumber":41},{"time":136222.08600000045,"duration":74.07399999999325,"noteNumber":79,"velocity":85,"programNumber":41},{"time":136333.19700000045,"duration":74.07399999999325,"noteNumber":79,"velocity":85,"programNumber":41},{"time":136444.30800000046,"duration":74.07399999999325,"noteNumber":79,"velocity":85,"programNumber":41},{"time":136555.41900000046,"duration":74.07399999999325,"noteNumber":79,"velocity":85,"programNumber":41},{"time":136666.53000000046,"duration":74.07399999999325,"noteNumber":79,"velocity":85,"programNumber":41},{"time":136777.64100000047,"duration":74.07399999999325,"noteNumber":79,"velocity":85,"programNumber":41},{"time":136888.75200000047,"duration":74.07399999999325,"noteNumber":78,"velocity":85,"programNumber":41},{"time":136999.86300000048,"duration":74.07399999999325,"noteNumber":78,"velocity":85,"programNumber":41},{"time":137110.97400000048,"duration":74.07399999999325,"noteNumber":78,"velocity":85,"programNumber":41},{"time":137222.0850000005,"duration":74.07399999999325,"noteNumber":78,"velocity":85,"programNumber":41},{"time":137333.1960000005,"duration":74.07399999999325,"noteNumber":78,"velocity":85,"programNumber":41},{"time":137444.3070000005,"duration":74.07399999999325,"noteNumber":78,"velocity":85,"programNumber":41},{"time":137555.4180000005,"duration":74.07399999999325,"noteNumber":78,"velocity":85,"programNumber":41},{"time":137666.5290000005,"duration":74.07399999999325,"noteNumber":78,"velocity":85,"programNumber":41},{"time":137777.6400000005,"duration":74.07399999999325,"noteNumber":79,"velocity":85,"programNumber":41},{"time":137888.7510000005,"duration":74.07399999999325,"noteNumber":79,"velocity":85,"programNumber":41},{"time":137999.86200000052,"duration":74.07399999999325,"noteNumber":79,"velocity":85,"programNumber":41},{"time":138110.97300000052,"duration":74.07399999999325,"noteNumber":79,"velocity":85,"programNumber":41},{"time":138222.08400000053,"duration":74.07399999999325,"noteNumber":79,"velocity":85,"programNumber":41},{"time":138333.19500000053,"duration":74.07399999999325,"noteNumber":79,"velocity":85,"programNumber":41},{"time":138444.30600000054,"duration":74.07399999999325,"noteNumber":79,"velocity":85,"programNumber":41},{"time":138555.41700000054,"duration":74.07399999999325,"noteNumber":79,"velocity":85,"programNumber":41},{"time":138666.52800000054,"duration":111.11100000000442,"noteNumber":74,"velocity":85,"programNumber":41},{"time":138888.75000000055,"duration":333.33300000001327,"noteNumber":74,"velocity":85,"programNumber":41},{"time":139333.19400000057,"duration":333.33300000001327,"noteNumber":74,"velocity":85,"programNumber":41},{"time":139777.6380000006,"duration":333.33300000001327,"noteNumber":74,"velocity":85,"programNumber":41},{"time":140222.0820000006,"duration":333.33300000001327,"noteNumber":74,"velocity":85,"programNumber":41},{"time":140666.52600000062,"duration":333.33300000001327,"noteNumber":74,"velocity":85,"programNumber":41},{"time":141110.97000000064,"duration":333.33300000001327,"noteNumber":74,"velocity":85,"programNumber":41},{"time":141555.41400000066,"duration":333.33300000001327,"noteNumber":74,"velocity":85,"programNumber":41},{"time":141999.85800000068,"duration":222.22200000000885,"noteNumber":74,"velocity":85,"programNumber":41},{"time":142222.0800000007,"duration":74.07399999999325,"noteNumber":73,"velocity":85,"programNumber":41},{"time":142333.1910000007,"duration":74.07399999999325,"noteNumber":73,"velocity":85,"programNumber":41},{"time":142333.1910000007,"duration":74.07399999999325,"noteNumber":76,"velocity":85,"programNumber":41},{"time":142444.3020000007,"duration":74.07399999999325,"noteNumber":73,"velocity":85,"programNumber":41},{"time":142444.3020000007,"duration":74.07399999999325,"noteNumber":76,"velocity":85,"programNumber":41},{"time":142555.4130000007,"duration":74.07399999999325,"noteNumber":73,"velocity":85,"programNumber":41},{"time":142555.4130000007,"duration":74.07399999999325,"noteNumber":76,"velocity":85,"programNumber":41},{"time":142666.5240000007,"duration":74.07399999999325,"noteNumber":74,"velocity":85,"programNumber":41},{"time":142666.5240000007,"duration":74.07399999999325,"noteNumber":78,"velocity":85,"programNumber":41},{"time":142777.6350000007,"duration":74.07399999999325,"noteNumber":74,"velocity":85,"programNumber":41},{"time":142777.6350000007,"duration":74.07399999999325,"noteNumber":78,"velocity":85,"programNumber":41},{"time":142888.7460000007,"duration":74.07399999999325,"noteNumber":74,"velocity":85,"programNumber":41},{"time":142888.7460000007,"duration":74.07399999999325,"noteNumber":78,"velocity":85,"programNumber":41},{"time":142999.85700000072,"duration":74.07399999999325,"noteNumber":74,"velocity":85,"programNumber":41},{"time":142999.85700000072,"duration":74.07399999999325,"noteNumber":78,"velocity":85,"programNumber":41},{"time":143110.96800000072,"duration":74.07399999999325,"noteNumber":76,"velocity":85,"programNumber":41},{"time":143110.96800000072,"duration":74.07399999999325,"noteNumber":73,"velocity":85,"programNumber":41},{"time":143222.07900000073,"duration":74.07399999999325,"noteNumber":76,"velocity":85,"programNumber":41},{"time":143222.07900000073,"duration":74.07399999999325,"noteNumber":73,"velocity":85,"programNumber":41},{"time":143333.19000000073,"duration":74.07399999999325,"noteNumber":76,"velocity":85,"programNumber":41},{"time":143333.19000000073,"duration":74.07399999999325,"noteNumber":73,"velocity":85,"programNumber":41},{"time":143444.30100000073,"duration":74.07399999999325,"noteNumber":76,"velocity":85,"programNumber":41},{"time":143444.30100000073,"duration":74.07399999999325,"noteNumber":73,"velocity":85,"programNumber":41},{"time":143555.41200000074,"duration":74.07399999999325,"noteNumber":74,"velocity":85,"programNumber":41},{"time":143555.41200000074,"duration":74.07399999999325,"noteNumber":78,"velocity":85,"programNumber":41},{"time":143666.52300000074,"duration":74.07399999999325,"noteNumber":74,"velocity":85,"programNumber":41},{"time":143666.52300000074,"duration":74.07399999999325,"noteNumber":78,"velocity":85,"programNumber":41},{"time":143777.63400000075,"duration":74.07399999999325,"noteNumber":74,"velocity":85,"programNumber":41},{"time":143777.63400000075,"duration":74.07399999999325,"noteNumber":78,"velocity":85,"programNumber":41},{"time":143888.74500000075,"duration":74.07399999999325,"noteNumber":74,"velocity":85,"programNumber":41},{"time":143888.74500000075,"duration":74.07399999999325,"noteNumber":78,"velocity":85,"programNumber":41},{"time":144018.37450000073,"duration":166.66649999999208,"noteNumber":73,"velocity":85,"programNumber":41},{"time":144018.37450000073,"duration":166.66649999999208,"noteNumber":76,"velocity":85,"programNumber":41},{"time":144240.5965000007,"duration":166.66649999999208,"noteNumber":69,"velocity":85,"programNumber":41},{"time":144462.8185000007,"duration":166.66649999999208,"noteNumber":69,"velocity":85,"programNumber":41},{"time":144685.04050000067,"duration":166.66649999999208,"noteNumber":69,"velocity":85,"programNumber":41},{"time":144907.26250000065,"duration":444.4439999999886,"noteNumber":69,"velocity":85,"programNumber":41},{"time":145777.63200000065,"duration":666.6659999999974,"noteNumber":69,"velocity":55,"programNumber":41},{"time":146444.29800000065,"duration":74.07399999999325,"noteNumber":67,"velocity":55,"programNumber":41},{"time":146518.37200000064,"duration":74.07399999999325,"noteNumber":66,"velocity":55,"programNumber":41},{"time":146592.44600000064,"duration":74.07399999999325,"noteNumber":64,"velocity":55,"programNumber":41},{"time":146666.52000000063,"duration":222.22200000000885,"noteNumber":62,"velocity":55,"programNumber":41},{"time":147110.96400000065,"duration":222.22200000000885,"noteNumber":71,"velocity":55,"programNumber":41},{"time":147555.40800000067,"duration":222.22200000000885,"noteNumber":67,"velocity":55,"programNumber":41},{"time":147999.85200000068,"duration":222.22200000000885,"noteNumber":64,"velocity":55,"programNumber":41},{"time":148444.2960000007,"duration":222.22200000000885,"noteNumber":69,"velocity":55,"programNumber":41},{"time":149333.1840000007,"duration":666.6659999999974,"noteNumber":66,"velocity":55,"programNumber":41},{"time":149999.8500000007,"duration":74.07399999999325,"noteNumber":64,"velocity":55,"programNumber":41},{"time":150073.9240000007,"duration":74.07399999999325,"noteNumber":62,"velocity":55,"programNumber":41},{"time":150147.9980000007,"duration":74.07399999999325,"noteNumber":61,"velocity":55,"programNumber":41},{"time":150222.07200000068,"duration":222.22200000000885,"noteNumber":59,"velocity":55,"programNumber":41},{"time":150666.5160000007,"duration":222.22200000000885,"noteNumber":67,"velocity":55,"programNumber":41},{"time":151110.96000000072,"duration":888.8880000000063,"noteNumber":66,"velocity":55,"programNumber":41},{"time":151999.84800000073,"duration":444.4439999999886,"noteNumber":64,"velocity":55,"programNumber":41},{"time":152888.7360000007,"duration":666.6659999999974,"noteNumber":69,"velocity":55,"programNumber":41},{"time":153555.4020000007,"duration":74.07399999999325,"noteNumber":67,"velocity":55,"programNumber":41},{"time":153629.4760000007,"duration":74.07399999999325,"noteNumber":66,"velocity":55,"programNumber":41},{"time":153703.5500000007,"duration":74.07399999999325,"noteNumber":64,"velocity":55,"programNumber":41},{"time":153777.62400000068,"duration":222.22200000000885,"noteNumber":62,"velocity":55,"programNumber":41},{"time":154222.0680000007,"duration":222.22200000000885,"noteNumber":71,"velocity":55,"programNumber":41},{"time":154666.51200000072,"duration":222.22200000000885,"noteNumber":67,"velocity":55,"programNumber":41},{"time":155110.95600000073,"duration":222.22200000000885,"noteNumber":64,"velocity":55,"programNumber":41},{"time":155555.40000000075,"duration":222.22200000000885,"noteNumber":69,"velocity":55,"programNumber":41},{"time":156166.51050000076,"duration":166.66649999999208,"noteNumber":67,"velocity":55,"programNumber":41},{"time":156444.28800000076,"duration":222.22200000000885,"noteNumber":67,"velocity":55,"programNumber":41},{"time":156666.51000000077,"duration":222.22200000000885,"noteNumber":66,"velocity":55,"programNumber":41},{"time":157110.95400000078,"duration":111.11100000000442,"noteNumber":79,"velocity":55,"programNumber":41},{"time":157333.1760000008,"duration":222.22200000000885,"noteNumber":79,"velocity":55,"programNumber":41},{"time":157555.3980000008,"duration":222.22200000000885,"noteNumber":78,"velocity":55,"programNumber":41},{"time":157999.84200000082,"duration":166.66649999999208,"noteNumber":67,"velocity":55,"programNumber":41},{"time":158222.0640000008,"duration":166.66649999999208,"noteNumber":66,"velocity":55,"programNumber":41},{"time":158444.28600000078,"duration":166.66649999999208,"noteNumber":66,"velocity":55,"programNumber":41},{"time":158666.50800000076,"duration":166.66649999999208,"noteNumber":67,"velocity":55,"programNumber":41},{"time":158888.73000000074,"duration":166.66649999999208,"noteNumber":67,"velocity":55,"programNumber":41},{"time":159110.95200000072,"duration":166.66649999999208,"noteNumber":69,"velocity":55,"programNumber":41},{"time":159333.1740000007,"duration":166.66649999999208,"noteNumber":69,"velocity":55,"programNumber":41},{"time":159555.39600000068,"duration":166.66649999999208,"noteNumber":66,"velocity":55,"programNumber":41},{"time":159777.61800000066,"duration":166.66649999999208,"noteNumber":66,"velocity":55,"programNumber":41},{"time":159999.84000000064,"duration":166.66649999999208,"noteNumber":64,"velocity":55,"programNumber":41},{"time":160222.06200000062,"duration":166.66649999999208,"noteNumber":64,"velocity":55,"programNumber":41},{"time":160444.2840000006,"duration":166.66649999999208,"noteNumber":66,"velocity":55,"programNumber":41},{"time":160666.50600000058,"duration":166.66649999999208,"noteNumber":66,"velocity":55,"programNumber":41},{"time":160888.72800000056,"duration":166.66649999999208,"noteNumber":67,"velocity":55,"programNumber":41},{"time":161110.95000000054,"duration":166.66649999999208,"noteNumber":67,"velocity":55,"programNumber":41},{"time":161333.17200000052,"duration":166.66649999999208,"noteNumber":64,"velocity":55,"programNumber":41},{"time":161555.3940000005,"duration":166.66649999999208,"noteNumber":64,"velocity":55,"programNumber":41},{"time":161777.61600000047,"duration":166.66649999999208,"noteNumber":66,"velocity":55,"programNumber":41},{"time":161999.83800000045,"duration":166.66649999999208,"noteNumber":66,"velocity":55,"programNumber":41},{"time":162222.06000000043,"duration":166.66649999999208,"noteNumber":67,"velocity":55,"programNumber":41},{"time":162444.2820000004,"duration":166.66649999999208,"noteNumber":67,"velocity":55,"programNumber":41},{"time":162666.5040000004,"duration":166.66649999999208,"noteNumber":69,"velocity":55,"programNumber":41},{"time":162888.72600000037,"duration":166.66649999999208,"noteNumber":69,"velocity":55,"programNumber":41},{"time":163110.94800000035,"duration":166.66649999999208,"noteNumber":66,"velocity":55,"programNumber":41},{"time":163333.17000000033,"duration":166.66649999999208,"noteNumber":66,"velocity":55,"programNumber":41},{"time":163555.3920000003,"duration":166.66649999999208,"noteNumber":64,"velocity":55,"programNumber":41},{"time":163777.6140000003,"duration":166.66649999999208,"noteNumber":64,"velocity":55,"programNumber":41},{"time":163999.83600000027,"duration":166.66649999999208,"noteNumber":66,"velocity":55,"programNumber":41},{"time":164222.05800000025,"duration":166.66649999999208,"noteNumber":66,"velocity":55,"programNumber":41},{"time":164444.28000000023,"duration":166.66649999999208,"noteNumber":67,"velocity":55,"programNumber":41},{"time":164666.5020000002,"duration":166.66649999999208,"noteNumber":67,"velocity":55,"programNumber":41},{"time":164888.7240000002,"duration":166.66649999999208,"noteNumber":64,"velocity":55,"programNumber":41},{"time":165110.94600000017,"duration":166.66649999999208,"noteNumber":64,"velocity":55,"programNumber":41},{"time":165333.16800000015,"duration":444.4439999999886,"noteNumber":66,"velocity":55,"programNumber":41},{"time":166222.05600000013,"duration":888.8880000000063,"noteNumber":71,"velocity":85,"programNumber":41},{"time":166222.05600000013,"duration":888.8880000000063,"noteNumber":78,"velocity":85,"programNumber":41},{"time":167110.94400000013,"duration":444.4439999999886,"noteNumber":76,"velocity":85,"programNumber":41},{"time":167999.8320000001,"duration":888.8880000000063,"noteNumber":76,"velocity":85,"programNumber":41},{"time":167999.8320000001,"duration":888.8880000000063,"noteNumber":69,"velocity":85,"programNumber":41},{"time":168888.72000000012,"duration":166.66649999999208,"noteNumber":74,"velocity":85,"programNumber":41},{"time":169110.9420000001,"duration":111.11100000000442,"noteNumber":78,"velocity":85,"programNumber":41},{"time":169333.1640000001,"duration":111.11100000000442,"noteNumber":79,"velocity":85,"programNumber":41},{"time":169555.38600000012,"duration":111.11100000000442,"noteNumber":81,"velocity":85,"programNumber":41},{"time":169777.60800000012,"duration":222.22200000000885,"noteNumber":79,"velocity":85,"programNumber":41},{"time":169999.83000000013,"duration":111.11100000000442,"noteNumber":81,"velocity":85,"programNumber":41},{"time":170110.94100000014,"duration":111.11100000000442,"noteNumber":83,"velocity":85,"programNumber":41},{"time":170222.05200000014,"duration":166.66649999999208,"noteNumber":81,"velocity":85,"programNumber":41},{"time":170444.27400000012,"duration":111.11100000000442,"noteNumber":79,"velocity":85,"programNumber":41},{"time":170666.49600000013,"duration":222.22200000000885,"noteNumber":79,"velocity":85,"programNumber":41},{"time":170888.71800000014,"duration":166.66649999999208,"noteNumber":78,"velocity":85,"programNumber":41},{"time":171110.94000000012,"duration":111.11100000000442,"noteNumber":74,"velocity":85,"programNumber":41},{"time":171333.16200000013,"duration":111.11100000000442,"noteNumber":78,"velocity":85,"programNumber":41},{"time":171555.38400000014,"duration":222.22200000000885,"noteNumber":78,"velocity":85,"programNumber":41},{"time":171777.60600000015,"duration":166.66649999999208,"noteNumber":76,"velocity":85,"programNumber":41},{"time":171999.82800000013,"duration":111.11100000000442,"noteNumber":74,"velocity":85,"programNumber":41},{"time":172222.05000000013,"duration":111.11100000000442,"noteNumber":73,"velocity":85,"programNumber":41},{"time":172444.27200000014,"duration":166.66649999999208,"noteNumber":74,"velocity":85,"programNumber":41},{"time":172666.49400000012,"duration":166.66649999999208,"noteNumber":66,"velocity":53,"programNumber":41},{"time":172888.7160000001,"duration":166.66649999999208,"noteNumber":67,"velocity":53,"programNumber":41},{"time":173110.93800000008,"duration":166.66649999999208,"noteNumber":67,"velocity":53,"programNumber":41},{"time":173333.16000000006,"duration":166.66649999999208,"noteNumber":69,"velocity":53,"programNumber":41},{"time":173555.38200000004,"duration":166.66649999999208,"noteNumber":69,"velocity":53,"programNumber":41},{"time":173777.60400000002,"duration":166.66649999999208,"noteNumber":66,"velocity":53,"programNumber":41},{"time":173999.826,"duration":166.66649999999208,"noteNumber":66,"velocity":53,"programNumber":41},{"time":174222.04799999998,"duration":166.66649999999208,"noteNumber":64,"velocity":55,"programNumber":41},{"time":174444.26999999996,"duration":166.66649999999208,"noteNumber":64,"velocity":55,"programNumber":41},{"time":174666.49199999994,"duration":166.66649999999208,"noteNumber":66,"velocity":55,"programNumber":41},{"time":174888.71399999992,"duration":166.66649999999208,"noteNumber":66,"velocity":55,"programNumber":41},{"time":175110.9359999999,"duration":166.66649999999208,"noteNumber":67,"velocity":55,"programNumber":41},{"time":175333.15799999988,"duration":166.66649999999208,"noteNumber":67,"velocity":55,"programNumber":41},{"time":175555.37999999986,"duration":166.66649999999208,"noteNumber":64,"velocity":55,"programNumber":41},{"time":175777.60199999984,"duration":166.66649999999208,"noteNumber":64,"velocity":55,"programNumber":41},{"time":175999.82399999982,"duration":166.66649999999208,"noteNumber":66,"velocity":55,"programNumber":41},{"time":176222.0459999998,"duration":166.66649999999208,"noteNumber":66,"velocity":55,"programNumber":41},{"time":176444.26799999978,"duration":166.66649999999208,"noteNumber":67,"velocity":55,"programNumber":41},{"time":176666.48999999976,"duration":166.66649999999208,"noteNumber":67,"velocity":55,"programNumber":41},{"time":176888.71199999974,"duration":166.66649999999208,"noteNumber":69,"velocity":55,"programNumber":41},{"time":177110.93399999972,"duration":166.66649999999208,"noteNumber":69,"velocity":55,"programNumber":41},{"time":177333.1559999997,"duration":166.66649999999208,"noteNumber":66,"velocity":55,"programNumber":41},{"time":177555.37799999968,"duration":166.66649999999208,"noteNumber":66,"velocity":55,"programNumber":41},{"time":177777.59999999966,"duration":166.66649999999208,"noteNumber":64,"velocity":55,"programNumber":41},{"time":177999.82199999964,"duration":166.66649999999208,"noteNumber":64,"velocity":55,"programNumber":41},{"time":178222.04399999962,"duration":166.66649999999208,"noteNumber":66,"velocity":55,"programNumber":41},{"time":178444.2659999996,"duration":166.66649999999208,"noteNumber":66,"velocity":55,"programNumber":41},{"time":178666.48799999958,"duration":166.66649999999208,"noteNumber":67,"velocity":55,"programNumber":41},{"time":178888.70999999956,"duration":166.66649999999208,"noteNumber":67,"velocity":55,"programNumber":41},{"time":179110.93199999954,"duration":166.66649999999208,"noteNumber":64,"velocity":55,"programNumber":41},{"time":179333.15399999951,"duration":166.66649999999208,"noteNumber":64,"velocity":55,"programNumber":41},{"time":179555.3759999995,"duration":444.4439999999886,"noteNumber":66,"velocity":58,"programNumber":41},{"time":180444.26399999947,"duration":888.8880000000063,"noteNumber":71,"velocity":85,"programNumber":41},{"time":180444.26399999947,"duration":888.8880000000063,"noteNumber":78,"velocity":85,"programNumber":41},{"time":181333.15199999948,"duration":444.4439999999886,"noteNumber":76,"velocity":85,"programNumber":41},{"time":182222.03999999946,"duration":888.8880000000063,"noteNumber":76,"velocity":85,"programNumber":41},{"time":182222.03999999946,"duration":888.8880000000063,"noteNumber":69,"velocity":85,"programNumber":41},{"time":183110.92799999946,"duration":166.66649999999208,"noteNumber":74,"velocity":85,"programNumber":41},{"time":183333.14999999944,"duration":111.11100000000442,"noteNumber":78,"velocity":85,"programNumber":41},{"time":183555.37199999945,"duration":111.11100000000442,"noteNumber":79,"velocity":85,"programNumber":41},{"time":183777.59399999946,"duration":111.11100000000442,"noteNumber":81,"velocity":85,"programNumber":41},{"time":183999.81599999947,"duration":222.22200000000885,"noteNumber":79,"velocity":85,"programNumber":41},{"time":184222.03799999948,"duration":111.11100000000442,"noteNumber":81,"velocity":85,"programNumber":41},{"time":184333.14899999948,"duration":111.11100000000442,"noteNumber":83,"velocity":85,"programNumber":41},{"time":184444.25999999949,"duration":166.66649999999208,"noteNumber":81,"velocity":85,"programNumber":41},{"time":184666.48199999947,"duration":111.11100000000442,"noteNumber":79,"velocity":85,"programNumber":41},{"time":184888.70399999947,"duration":222.22200000000885,"noteNumber":79,"velocity":85,"programNumber":41},{"time":185110.92599999948,"duration":166.66649999999208,"noteNumber":78,"velocity":85,"programNumber":41},{"time":185333.14799999946,"duration":111.11100000000442,"noteNumber":74,"velocity":85,"programNumber":41},{"time":185555.36999999947,"duration":111.11100000000442,"noteNumber":78,"velocity":85,"programNumber":41},{"time":185777.59199999948,"duration":222.22200000000885,"noteNumber":78,"velocity":85,"programNumber":41},{"time":185999.8139999995,"duration":166.66649999999208,"noteNumber":76,"velocity":85,"programNumber":41},{"time":186222.03599999947,"duration":111.11100000000442,"noteNumber":74,"velocity":85,"programNumber":41},{"time":186444.25799999948,"duration":111.11100000000442,"noteNumber":73,"velocity":85,"programNumber":41},{"time":186666.4799999995,"duration":166.66649999999208,"noteNumber":74,"velocity":85,"programNumber":41},{"time":186888.70199999947,"duration":166.66649999999208,"noteNumber":69,"velocity":85,"programNumber":41},{"time":187110.92399999945,"duration":166.66649999999208,"noteNumber":71,"velocity":85,"programNumber":41},{"time":187333.14599999943,"duration":166.66649999999208,"noteNumber":73,"velocity":85,"programNumber":41},{"time":187555.3679999994,"duration":111.11100000000442,"noteNumber":74,"velocity":85,"programNumber":41},{"time":187777.5899999994,"duration":111.11100000000442,"noteNumber":74,"velocity":85,"programNumber":41},{"time":187999.81199999942,"duration":55.55549999998766,"noteNumber":76,"velocity":85,"programNumber":41},{"time":188055.3674999994,"duration":55.55549999998766,"noteNumber":78,"velocity":85,"programNumber":41},{"time":188110.9229999994,"duration":55.55549999998766,"noteNumber":76,"velocity":85,"programNumber":41},{"time":188166.4784999994,"duration":55.55549999998766,"noteNumber":78,"velocity":85,"programNumber":41},{"time":188222.03399999937,"duration":111.11100000000442,"noteNumber":74,"velocity":85,"programNumber":41},{"time":188333.14499999938,"duration":111.11100000000442,"noteNumber":76,"velocity":85,"programNumber":41},{"time":188444.25599999938,"duration":222.22200000000885,"noteNumber":78,"velocity":85,"programNumber":41},{"time":188666.4779999994,"duration":166.66649999999208,"noteNumber":73,"velocity":85,"programNumber":41},{"time":188888.69999999937,"duration":166.66649999999208,"noteNumber":74,"velocity":85,"programNumber":41},{"time":189110.92199999935,"duration":166.66649999999208,"noteNumber":76,"velocity":85,"programNumber":41},{"time":189333.14399999933,"duration":166.66649999999208,"noteNumber":78,"velocity":85,"programNumber":41},{"time":189555.3659999993,"duration":166.66649999999208,"noteNumber":78,"velocity":85,"programNumber":41},{"time":189777.5879999993,"duration":55.55549999998766,"noteNumber":79,"velocity":85,"programNumber":41},{"time":189833.14349999928,"duration":55.55549999998766,"noteNumber":81,"velocity":85,"programNumber":41},{"time":189888.69899999927,"duration":55.55549999998766,"noteNumber":79,"velocity":85,"programNumber":41},{"time":189944.25449999925,"duration":55.55549999998766,"noteNumber":81,"velocity":85,"programNumber":41},{"time":189999.80999999924,"duration":111.11100000000442,"noteNumber":78,"velocity":85,"programNumber":41},{"time":190110.92099999925,"duration":111.11100000000442,"noteNumber":79,"velocity":85,"programNumber":41},{"time":190222.03199999925,"duration":166.66649999999208,"noteNumber":81,"velocity":85,"programNumber":41},{"time":190444.25399999923,"duration":166.66649999999208,"noteNumber":81,"velocity":85,"programNumber":41},{"time":190666.4759999992,"duration":55.55549999998766,"noteNumber":82,"velocity":85,"programNumber":41},{"time":190722.0314999992,"duration":55.55549999998766,"noteNumber":83,"velocity":85,"programNumber":41},{"time":190777.58699999918,"duration":55.55549999998766,"noteNumber":82,"velocity":85,"programNumber":41},{"time":190833.14249999917,"duration":55.55549999998766,"noteNumber":83,"velocity":85,"programNumber":41},{"time":190888.69799999916,"duration":111.11100000000442,"noteNumber":80,"velocity":85,"programNumber":41},{"time":190999.80899999916,"duration":111.11100000000442,"noteNumber":82,"velocity":85,"programNumber":41},{"time":191110.91999999917,"duration":444.4439999999886,"noteNumber":83,"velocity":85,"programNumber":41},{"time":191999.80799999915,"duration":1777.7760000000126,"noteNumber":67,"velocity":55,"programNumber":41},{"time":193777.58399999916,"duration":222.22200000000885,"noteNumber":66,"velocity":55,"programNumber":41},{"time":194222.02799999918,"duration":222.22200000000885,"noteNumber":69,"velocity":55,"programNumber":41},{"time":194666.4719999992,"duration":222.22200000000885,"noteNumber":66,"velocity":55,"programNumber":41},{"time":195592.3969999992,"duration":444.4439999999886,"noteNumber":74,"velocity":89,"programNumber":41},{"time":195592.3969999992,"duration":444.4439999999886,"noteNumber":62,"velocity":89,"programNumber":41},{"time":196259.0629999992,"duration":166.66649999999208,"noteNumber":69,"velocity":89,"programNumber":41},{"time":196481.2849999992,"duration":444.4439999999886,"noteNumber":74,"velocity":89,"programNumber":41},{"time":197147.9509999992,"duration":166.66649999999208,"noteNumber":69,"velocity":89,"programNumber":41},{"time":197370.17299999917,"duration":166.66649999999208,"noteNumber":74,"velocity":89,"programNumber":41},{"time":197592.39499999915,"duration":166.66649999999208,"noteNumber":69,"velocity":89,"programNumber":41},{"time":197814.61699999913,"duration":166.66649999999208,"noteNumber":74,"velocity":89,"programNumber":41},{"time":198036.8389999991,"duration":166.66649999999208,"noteNumber":78,"velocity":89,"programNumber":41},{"time":198259.06099999908,"duration":444.4439999999886,"noteNumber":81,"velocity":89,"programNumber":41},{"time":199147.94899999906,"duration":444.4439999999886,"noteNumber":81,"velocity":89,"programNumber":41},{"time":199814.61499999906,"duration":166.66649999999208,"noteNumber":78,"velocity":89,"programNumber":41},{"time":200036.83699999904,"duration":444.4439999999886,"noteNumber":81,"velocity":89,"programNumber":41},{"time":200703.50299999904,"duration":166.66649999999208,"noteNumber":78,"velocity":89,"programNumber":41},{"time":200925.72499999902,"duration":166.66649999999208,"noteNumber":81,"velocity":89,"programNumber":41},{"time":201147.946999999,"duration":166.66649999999208,"noteNumber":78,"velocity":89,"programNumber":41},{"time":201370.16899999898,"duration":166.66649999999208,"noteNumber":75,"velocity":89,"programNumber":41},{"time":201592.39099999896,"duration":166.66649999999208,"noteNumber":78,"velocity":89,"programNumber":41},{"time":201814.61299999894,"duration":444.4439999999886,"noteNumber":71,"velocity":89,"programNumber":41},{"time":202666.46399999893,"duration":166.66649999999208,"noteNumber":64,"velocity":55,"programNumber":41},{"time":202888.6859999989,"duration":166.66649999999208,"noteNumber":64,"velocity":55,"programNumber":41},{"time":203110.9079999989,"duration":166.66649999999208,"noteNumber":65,"velocity":55,"programNumber":41},{"time":203333.12999999887,"duration":166.66649999999208,"noteNumber":65,"velocity":55,"programNumber":41},{"time":203555.35199999885,"duration":166.66649999999208,"noteNumber":67,"velocity":55,"programNumber":41},{"time":203777.57399999883,"duration":166.66649999999208,"noteNumber":67,"velocity":55,"programNumber":41},{"time":203999.7959999988,"duration":166.66649999999208,"noteNumber":64,"velocity":55,"programNumber":41},{"time":204222.0179999988,"duration":166.66649999999208,"noteNumber":64,"velocity":55,"programNumber":41},{"time":204444.23999999877,"duration":166.66649999999208,"noteNumber":62,"velocity":55,"programNumber":41},{"time":204666.46199999875,"duration":166.66649999999208,"noteNumber":62,"velocity":55,"programNumber":41},{"time":204888.68399999873,"duration":166.66649999999208,"noteNumber":64,"velocity":55,"programNumber":41},{"time":205110.9059999987,"duration":166.66649999999208,"noteNumber":64,"velocity":55,"programNumber":41},{"time":205333.1279999987,"duration":166.66649999999208,"noteNumber":65,"velocity":55,"programNumber":41},{"time":205555.34999999867,"duration":166.66649999999208,"noteNumber":65,"velocity":55,"programNumber":41},{"time":205777.57199999865,"duration":166.66649999999208,"noteNumber":62,"velocity":55,"programNumber":41},{"time":205999.79399999863,"duration":166.66649999999208,"noteNumber":62,"velocity":55,"programNumber":41},{"time":206222.0159999986,"duration":166.66649999999208,"noteNumber":64,"velocity":55,"programNumber":41},{"time":206444.2379999986,"duration":166.66649999999208,"noteNumber":64,"velocity":55,"programNumber":41},{"time":206666.45999999857,"duration":166.66649999999208,"noteNumber":65,"velocity":55,"programNumber":41},{"time":206888.68199999855,"duration":166.66649999999208,"noteNumber":65,"velocity":55,"programNumber":41},{"time":207110.90399999853,"duration":166.66649999999208,"noteNumber":67,"velocity":55,"programNumber":41},{"time":207333.1259999985,"duration":166.66649999999208,"noteNumber":67,"velocity":55,"programNumber":41},{"time":207555.34799999848,"duration":166.66649999999208,"noteNumber":64,"velocity":55,"programNumber":41},{"time":207777.56999999846,"duration":166.66649999999208,"noteNumber":64,"velocity":55,"programNumber":41},{"time":207999.79199999844,"duration":166.66649999999208,"noteNumber":62,"velocity":55,"programNumber":41},{"time":208222.01399999842,"duration":166.66649999999208,"noteNumber":62,"velocity":55,"programNumber":41},{"time":208444.2359999984,"duration":166.66649999999208,"noteNumber":64,"velocity":55,"programNumber":41},{"time":208666.45799999838,"duration":166.66649999999208,"noteNumber":64,"velocity":55,"programNumber":41},{"time":208888.67999999836,"duration":166.66649999999208,"noteNumber":65,"velocity":55,"programNumber":41},{"time":209110.90199999834,"duration":166.66649999999208,"noteNumber":65,"velocity":55,"programNumber":41},{"time":209333.12399999832,"duration":166.66649999999208,"noteNumber":62,"velocity":55,"programNumber":41},{"time":209555.3459999983,"duration":166.66649999999208,"noteNumber":62,"velocity":55,"programNumber":41},{"time":209777.56799999828,"duration":166.66649999999208,"noteNumber":64,"velocity":55,"programNumber":41},{"time":209999.78999999826,"duration":166.66649999999208,"noteNumber":64,"velocity":55,"programNumber":41},{"time":210222.01199999824,"duration":166.66649999999208,"noteNumber":65,"velocity":55,"programNumber":41},{"time":210444.23399999822,"duration":166.66649999999208,"noteNumber":65,"velocity":55,"programNumber":41},{"time":210666.4559999982,"duration":166.66649999999208,"noteNumber":67,"velocity":55,"programNumber":41},{"time":210888.67799999818,"duration":166.66649999999208,"noteNumber":67,"velocity":55,"programNumber":41},{"time":211110.89999999816,"duration":166.66649999999208,"noteNumber":64,"velocity":55,"programNumber":41},{"time":211333.12199999814,"duration":166.66649999999208,"noteNumber":64,"velocity":55,"programNumber":41},{"time":211555.34399999812,"duration":166.66649999999208,"noteNumber":62,"velocity":55,"programNumber":41},{"time":211777.5659999981,"duration":166.66649999999208,"noteNumber":62,"velocity":55,"programNumber":41},{"time":211999.78799999808,"duration":166.66649999999208,"noteNumber":64,"velocity":55,"programNumber":41},{"time":212222.00999999806,"duration":166.66649999999208,"noteNumber":64,"velocity":55,"programNumber":41},{"time":212444.23199999804,"duration":166.66649999999208,"noteNumber":65,"velocity":55,"programNumber":41},{"time":212666.45399999802,"duration":166.66649999999208,"noteNumber":65,"velocity":55,"programNumber":41},{"time":212888.675999998,"duration":166.66649999999208,"noteNumber":62,"velocity":55,"programNumber":41},{"time":213110.89799999798,"duration":166.66649999999208,"noteNumber":62,"velocity":55,"programNumber":41},{"time":213333.11999999796,"duration":166.66649999999208,"noteNumber":60,"velocity":55,"programNumber":41},{"time":213555.34199999794,"duration":166.66649999999208,"noteNumber":60,"velocity":55,"programNumber":41},{"time":213777.56399999792,"duration":166.66649999999208,"noteNumber":62,"velocity":55,"programNumber":41},{"time":213999.7859999979,"duration":166.66649999999208,"noteNumber":62,"velocity":55,"programNumber":41},{"time":214222.00799999788,"duration":166.66649999999208,"noteNumber":64,"velocity":55,"programNumber":41},{"time":214444.22999999786,"duration":166.66649999999208,"noteNumber":64,"velocity":55,"programNumber":41},{"time":214666.45199999784,"duration":166.66649999999208,"noteNumber":60,"velocity":55,"programNumber":41},{"time":214888.67399999782,"duration":166.66649999999208,"noteNumber":60,"velocity":55,"programNumber":41},{"time":215110.8959999978,"duration":166.66649999999208,"noteNumber":60,"velocity":55,"programNumber":41},{"time":215333.11799999778,"duration":166.66649999999208,"noteNumber":60,"velocity":55,"programNumber":41},{"time":215555.33999999776,"duration":166.66649999999208,"noteNumber":62,"velocity":55,"programNumber":41},{"time":215777.56199999774,"duration":166.66649999999208,"noteNumber":62,"velocity":55,"programNumber":41},{"time":215999.78399999772,"duration":166.66649999999208,"noteNumber":63,"velocity":55,"programNumber":41},{"time":216222.0059999977,"duration":166.66649999999208,"noteNumber":63,"velocity":55,"programNumber":41},{"time":216444.22799999767,"duration":166.66649999999208,"noteNumber":60,"velocity":55,"programNumber":41},{"time":216666.44999999765,"duration":166.66649999999208,"noteNumber":60,"velocity":55,"programNumber":41},{"time":216888.67199999763,"duration":166.66649999999208,"noteNumber":58,"velocity":55,"programNumber":41},{"time":217110.8939999976,"duration":166.66649999999208,"noteNumber":58,"velocity":55,"programNumber":41},{"time":217333.1159999976,"duration":166.66649999999208,"noteNumber":57,"velocity":55,"programNumber":41},{"time":217555.33799999757,"duration":166.66649999999208,"noteNumber":57,"velocity":55,"programNumber":41},{"time":217777.55999999755,"duration":166.66649999999208,"noteNumber":58,"velocity":55,"programNumber":41},{"time":217999.78199999753,"duration":166.66649999999208,"noteNumber":58,"velocity":55,"programNumber":41},{"time":218222.0039999975,"duration":166.66649999999208,"noteNumber":69,"velocity":55,"programNumber":41},{"time":218444.2259999975,"duration":166.66649999999208,"noteNumber":69,"velocity":55,"programNumber":41},{"time":218666.44799999747,"duration":166.66649999999208,"noteNumber":70,"velocity":55,"programNumber":41},{"time":218888.66999999745,"duration":166.66649999999208,"noteNumber":70,"velocity":55,"programNumber":41},{"time":219110.89199999743,"duration":166.66649999999208,"noteNumber":69,"velocity":55,"programNumber":41},{"time":219333.1139999974,"duration":166.66649999999208,"noteNumber":69,"velocity":55,"programNumber":41},{"time":219555.3359999974,"duration":166.66649999999208,"noteNumber":70,"velocity":55,"programNumber":41},{"time":219777.55799999737,"duration":166.66649999999208,"noteNumber":70,"velocity":55,"programNumber":41},{"time":219999.77999999735,"duration":166.66649999999208,"noteNumber":69,"velocity":55,"programNumber":41},{"time":220222.00199999733,"duration":166.66649999999208,"noteNumber":67,"velocity":55,"programNumber":41},{"time":220481.26099999732,"duration":444.4439999999886,"noteNumber":66,"velocity":53,"programNumber":41},{"time":221147.92699999732,"duration":222.22200000000885,"noteNumber":62,"velocity":91,"programNumber":41},{"time":221370.14899999733,"duration":222.22200000000885,"noteNumber":64,"velocity":91,"programNumber":41},{"time":221592.37099999734,"duration":222.22200000000885,"noteNumber":66,"velocity":91,"programNumber":41},{"time":221814.59299999735,"duration":222.22200000000885,"noteNumber":67,"velocity":91,"programNumber":41},{"time":222036.81499999735,"duration":222.22200000000885,"noteNumber":69,"velocity":91,"programNumber":41},{"time":222259.03699999736,"duration":222.22200000000885,"noteNumber":72,"velocity":91,"programNumber":41},{"time":222481.25899999737,"duration":222.22200000000885,"noteNumber":70,"velocity":91,"programNumber":41},{"time":222925.7029999974,"duration":222.22200000000885,"noteNumber":66,"velocity":91,"programNumber":41},{"time":223147.9249999974,"duration":222.22200000000885,"noteNumber":67,"velocity":91,"programNumber":41},{"time":223370.1469999974,"duration":222.22200000000885,"noteNumber":69,"velocity":91,"programNumber":41},{"time":223592.36899999742,"duration":222.22200000000885,"noteNumber":70,"velocity":91,"programNumber":41},{"time":223814.59099999742,"duration":222.22200000000885,"noteNumber":73,"velocity":91,"programNumber":41},{"time":224036.81299999743,"duration":222.22200000000885,"noteNumber":76,"velocity":91,"programNumber":41},{"time":224259.03499999744,"duration":222.22200000000885,"noteNumber":74,"velocity":91,"programNumber":41},{"time":224703.47899999746,"duration":222.22200000000885,"noteNumber":62,"velocity":53,"programNumber":41},{"time":224925.70099999747,"duration":222.22200000000885,"noteNumber":64,"velocity":53,"programNumber":41},{"time":225147.92299999748,"duration":222.22200000000885,"noteNumber":66,"velocity":53,"programNumber":41},{"time":225370.1449999975,"duration":222.22200000000885,"noteNumber":67,"velocity":53,"programNumber":41},{"time":225592.3669999975,"duration":222.22200000000885,"noteNumber":69,"velocity":53,"programNumber":41},{"time":225777.5519999975,"duration":444.4440000000177,"noteNumber":70,"velocity":53,"programNumber":41},{"time":226221.9959999975,"duration":444.4439999999886,"noteNumber":71,"velocity":53,"programNumber":41},{"time":226666.4399999975,"duration":444.4439999999886,"noteNumber":72,"velocity":53,"programNumber":41},{"time":227110.8839999975,"duration":444.4439999999886,"noteNumber":73,"velocity":53,"programNumber":41},{"time":227555.32799999748,"duration":111.11100000000442,"noteNumber":74,"velocity":68,"programNumber":41},{"time":227777.54999999749,"duration":111.11100000000442,"noteNumber":74,"velocity":68,"programNumber":41},{"time":227999.7719999975,"duration":222.22200000000885,"noteNumber":74,"velocity":68,"programNumber":41},{"time":228221.9939999975,"duration":166.66649999999208,"noteNumber":76,"velocity":68,"programNumber":41},{"time":228444.21599999748,"duration":111.11100000000442,"noteNumber":72,"velocity":68,"programNumber":41},{"time":228666.4379999975,"duration":111.11100000000442,"noteNumber":72,"velocity":68,"programNumber":41},{"time":228888.6599999975,"duration":222.22200000000885,"noteNumber":72,"velocity":68,"programNumber":41},{"time":229110.8819999975,"duration":166.66649999999208,"noteNumber":74,"velocity":68,"programNumber":41},{"time":229333.1039999975,"duration":111.11100000000442,"noteNumber":71,"velocity":68,"programNumber":41},{"time":229555.3259999975,"duration":111.11100000000442,"noteNumber":71,"velocity":68,"programNumber":41},{"time":229777.5479999975,"duration":222.22200000000885,"noteNumber":71,"velocity":68,"programNumber":41},{"time":229999.76999999752,"duration":166.66649999999208,"noteNumber":74,"velocity":68,"programNumber":41},{"time":230221.9919999975,"duration":222.22200000000885,"noteNumber":74,"velocity":68,"programNumber":41},{"time":230444.2139999975,"duration":166.66649999999208,"noteNumber":72,"velocity":68,"programNumber":41},{"time":230666.43599999748,"duration":111.11100000000442,"noteNumber":71,"velocity":68,"programNumber":41},{"time":230888.6579999975,"duration":111.11100000000442,"noteNumber":69,"velocity":68,"programNumber":41},{"time":231147.91699999748,"duration":444.4439999999886,"noteNumber":62,"velocity":93,"programNumber":41},{"time":231147.91699999748,"duration":444.4439999999886,"noteNumber":71,"velocity":93,"programNumber":41},{"time":231147.91699999748,"duration":444.4439999999886,"noteNumber":79,"velocity":93,"programNumber":41},{"time":231814.58299999748,"duration":111.11100000000442,"noteNumber":74,"velocity":92,"programNumber":41},{"time":232036.8049999975,"duration":444.4439999999886,"noteNumber":79,"velocity":92,"programNumber":41},{"time":232703.4709999975,"duration":111.11100000000442,"noteNumber":74,"velocity":91,"programNumber":41},{"time":232925.6929999975,"duration":111.11100000000442,"noteNumber":79,"velocity":90,"programNumber":41},{"time":233147.9149999975,"duration":111.11100000000442,"noteNumber":74,"velocity":90,"programNumber":41},{"time":233370.1369999975,"duration":111.11100000000442,"noteNumber":79,"velocity":90,"programNumber":41},{"time":233592.35899999752,"duration":111.11100000000442,"noteNumber":83,"velocity":90,"programNumber":41},{"time":233814.58099999753,"duration":444.4439999999886,"noteNumber":86,"velocity":89,"programNumber":41},{"time":234703.4689999975,"duration":444.4439999999886,"noteNumber":84,"velocity":88,"programNumber":41},{"time":235370.1349999975,"duration":111.11100000000442,"noteNumber":81,"velocity":87,"programNumber":41},{"time":235592.35699999752,"duration":444.4439999999886,"noteNumber":84,"velocity":86,"programNumber":41},{"time":236259.0229999975,"duration":111.11100000000442,"noteNumber":81,"velocity":85,"programNumber":41},{"time":236481.24499999752,"duration":111.11100000000442,"noteNumber":84,"velocity":85,"programNumber":41},{"time":236703.46699999753,"duration":111.11100000000442,"noteNumber":81,"velocity":85,"programNumber":41},{"time":236925.68899999754,"duration":111.11100000000442,"noteNumber":78,"velocity":85,"programNumber":41},{"time":237147.91099999755,"duration":111.11100000000442,"noteNumber":81,"velocity":85,"programNumber":41},{"time":237370.13299999756,"duration":444.4439999999886,"noteNumber":74,"velocity":85,"programNumber":41},{"time":238221.98399999755,"duration":74.07399999999325,"noteNumber":62,"velocity":85,"programNumber":41},{"time":238221.98399999755,"duration":74.07399999999325,"noteNumber":59,"velocity":85,"programNumber":41},{"time":238333.09499999756,"duration":74.07399999999325,"noteNumber":62,"velocity":85,"programNumber":41},{"time":238333.09499999756,"duration":74.07399999999325,"noteNumber":59,"velocity":85,"programNumber":41},{"time":238444.20599999756,"duration":74.07399999999325,"noteNumber":62,"velocity":85,"programNumber":41},{"time":238444.20599999756,"duration":74.07399999999325,"noteNumber":59,"velocity":85,"programNumber":41},{"time":238555.31699999757,"duration":74.07399999999325,"noteNumber":62,"velocity":85,"programNumber":41},{"time":238555.31699999757,"duration":74.07399999999325,"noteNumber":59,"velocity":85,"programNumber":41},{"time":238666.42799999757,"duration":74.07399999999325,"noteNumber":62,"velocity":85,"programNumber":41},{"time":238666.42799999757,"duration":74.07399999999325,"noteNumber":59,"velocity":85,"programNumber":41},{"time":238777.53899999757,"duration":74.07399999999325,"noteNumber":62,"velocity":85,"programNumber":41},{"time":238777.53899999757,"duration":74.07399999999325,"noteNumber":59,"velocity":85,"programNumber":41},{"time":238888.64999999758,"duration":74.07399999999325,"noteNumber":62,"velocity":85,"programNumber":41},{"time":238888.64999999758,"duration":74.07399999999325,"noteNumber":59,"velocity":85,"programNumber":41},{"time":238999.76099999758,"duration":74.07399999999325,"noteNumber":62,"velocity":85,"programNumber":41},{"time":238999.76099999758,"duration":74.07399999999325,"noteNumber":59,"velocity":85,"programNumber":41},{"time":239110.8719999976,"duration":74.07399999999325,"noteNumber":62,"velocity":85,"programNumber":41},{"time":239110.8719999976,"duration":74.07399999999325,"noteNumber":59,"velocity":85,"programNumber":41},{"time":239221.9829999976,"duration":74.07399999999325,"noteNumber":62,"velocity":85,"programNumber":41},{"time":239221.9829999976,"duration":74.07399999999325,"noteNumber":59,"velocity":85,"programNumber":41},{"time":239333.0939999976,"duration":74.07399999999325,"noteNumber":62,"velocity":85,"programNumber":41},{"time":239333.0939999976,"duration":74.07399999999325,"noteNumber":59,"velocity":85,"programNumber":41},{"time":239444.2049999976,"duration":74.07399999999325,"noteNumber":62,"velocity":85,"programNumber":41},{"time":239444.2049999976,"duration":74.07399999999325,"noteNumber":59,"velocity":85,"programNumber":41},{"time":239555.3159999976,"duration":74.07399999999325,"noteNumber":62,"velocity":85,"programNumber":41},{"time":239555.3159999976,"duration":74.07399999999325,"noteNumber":59,"velocity":85,"programNumber":41},{"time":239666.4269999976,"duration":74.07399999999325,"noteNumber":62,"velocity":85,"programNumber":41},{"time":239666.4269999976,"duration":74.07399999999325,"noteNumber":59,"velocity":85,"programNumber":41},{"time":239777.5379999976,"duration":74.07399999999325,"noteNumber":62,"velocity":85,"programNumber":41},{"time":239777.5379999976,"duration":74.07399999999325,"noteNumber":59,"velocity":85,"programNumber":41},{"time":239888.64899999762,"duration":74.07399999999325,"noteNumber":62,"velocity":85,"programNumber":41},{"time":239888.64899999762,"duration":74.07399999999325,"noteNumber":59,"velocity":85,"programNumber":41},{"time":239999.75999999762,"duration":74.07399999999325,"noteNumber":62,"velocity":85,"programNumber":41},{"time":239999.75999999762,"duration":74.07399999999325,"noteNumber":60,"velocity":85,"programNumber":41},{"time":240110.87099999763,"duration":74.07399999999325,"noteNumber":62,"velocity":85,"programNumber":41},{"time":240110.87099999763,"duration":74.07399999999325,"noteNumber":60,"velocity":85,"programNumber":41},{"time":240221.98199999763,"duration":74.07399999999325,"noteNumber":62,"velocity":85,"programNumber":41},{"time":240221.98199999763,"duration":74.07399999999325,"noteNumber":60,"velocity":85,"programNumber":41},{"time":240333.09299999764,"duration":74.07399999999325,"noteNumber":62,"velocity":85,"programNumber":41},{"time":240333.09299999764,"duration":74.07399999999325,"noteNumber":60,"velocity":85,"programNumber":41},{"time":240444.20399999764,"duration":74.07399999999325,"noteNumber":62,"velocity":85,"programNumber":41},{"time":240444.20399999764,"duration":74.07399999999325,"noteNumber":60,"velocity":85,"programNumber":41},{"time":240555.31499999764,"duration":74.07399999999325,"noteNumber":62,"velocity":85,"programNumber":41},{"time":240555.31499999764,"duration":74.07399999999325,"noteNumber":60,"velocity":85,"programNumber":41},{"time":240666.42599999765,"duration":74.07399999999325,"noteNumber":62,"velocity":85,"programNumber":41},{"time":240666.42599999765,"duration":74.07399999999325,"noteNumber":60,"velocity":85,"programNumber":41},{"time":240777.53699999765,"duration":74.07399999999325,"noteNumber":62,"velocity":85,"programNumber":41},{"time":240777.53699999765,"duration":74.07399999999325,"noteNumber":60,"velocity":85,"programNumber":41},{"time":240888.64799999766,"duration":74.07399999999325,"noteNumber":62,"velocity":85,"programNumber":41},{"time":240888.64799999766,"duration":74.07399999999325,"noteNumber":60,"velocity":85,"programNumber":41},{"time":240999.75899999766,"duration":74.07399999999325,"noteNumber":62,"velocity":85,"programNumber":41},{"time":240999.75899999766,"duration":74.07399999999325,"noteNumber":60,"velocity":85,"programNumber":41},{"time":241110.86999999767,"duration":74.07399999999325,"noteNumber":62,"velocity":85,"programNumber":41},{"time":241110.86999999767,"duration":74.07399999999325,"noteNumber":60,"velocity":85,"programNumber":41},{"time":241221.98099999767,"duration":74.07399999999325,"noteNumber":62,"velocity":85,"programNumber":41},{"time":241221.98099999767,"duration":74.07399999999325,"noteNumber":60,"velocity":85,"programNumber":41},{"time":241333.09199999768,"duration":74.07399999999325,"noteNumber":62,"velocity":85,"programNumber":41},{"time":241333.09199999768,"duration":74.07399999999325,"noteNumber":60,"velocity":85,"programNumber":41},{"time":241444.20299999768,"duration":74.07399999999325,"noteNumber":62,"velocity":85,"programNumber":41},{"time":241444.20299999768,"duration":74.07399999999325,"noteNumber":60,"velocity":85,"programNumber":41},{"time":241555.31399999768,"duration":74.07399999999325,"noteNumber":62,"velocity":85,"programNumber":41},{"time":241555.31399999768,"duration":74.07399999999325,"noteNumber":60,"velocity":85,"programNumber":41},{"time":241666.4249999977,"duration":74.07399999999325,"noteNumber":62,"velocity":85,"programNumber":41},{"time":241666.4249999977,"duration":74.07399999999325,"noteNumber":60,"velocity":85,"programNumber":41},{"time":241777.5359999977,"duration":74.07399999999325,"noteNumber":62,"velocity":85,"programNumber":41},{"time":241777.5359999977,"duration":74.07399999999325,"noteNumber":59,"velocity":85,"programNumber":41},{"time":241888.6469999977,"duration":74.07399999999325,"noteNumber":62,"velocity":85,"programNumber":41},{"time":241888.6469999977,"duration":74.07399999999325,"noteNumber":59,"velocity":85,"programNumber":41},{"time":241999.7579999977,"duration":74.07399999999325,"noteNumber":62,"velocity":85,"programNumber":41},{"time":241999.7579999977,"duration":74.07399999999325,"noteNumber":59,"velocity":85,"programNumber":41},{"time":242110.8689999977,"duration":74.07399999999325,"noteNumber":62,"velocity":85,"programNumber":41},{"time":242110.8689999977,"duration":74.07399999999325,"noteNumber":59,"velocity":85,"programNumber":41},{"time":242221.9799999977,"duration":74.07399999999325,"noteNumber":62,"velocity":85,"programNumber":41},{"time":242221.9799999977,"duration":74.07399999999325,"noteNumber":59,"velocity":85,"programNumber":41},{"time":242333.09099999772,"duration":74.07399999999325,"noteNumber":62,"velocity":85,"programNumber":41},{"time":242333.09099999772,"duration":74.07399999999325,"noteNumber":59,"velocity":85,"programNumber":41},{"time":242444.20199999772,"duration":74.07399999999325,"noteNumber":62,"velocity":85,"programNumber":41},{"time":242444.20199999772,"duration":74.07399999999325,"noteNumber":59,"velocity":85,"programNumber":41},{"time":242555.31299999772,"duration":74.07399999999325,"noteNumber":62,"velocity":85,"programNumber":41},{"time":242555.31299999772,"duration":74.07399999999325,"noteNumber":59,"velocity":85,"programNumber":41},{"time":242666.42399999773,"duration":74.07399999999325,"noteNumber":62,"velocity":85,"programNumber":41},{"time":242666.42399999773,"duration":74.07399999999325,"noteNumber":59,"velocity":85,"programNumber":41},{"time":242777.53499999773,"duration":74.07399999999325,"noteNumber":62,"velocity":85,"programNumber":41},{"time":242777.53499999773,"duration":74.07399999999325,"noteNumber":59,"velocity":85,"programNumber":41},{"time":242888.64599999774,"duration":74.07399999999325,"noteNumber":62,"velocity":85,"programNumber":41},{"time":242888.64599999774,"duration":74.07399999999325,"noteNumber":59,"velocity":85,"programNumber":41},{"time":242999.75699999774,"duration":74.07399999999325,"noteNumber":62,"velocity":85,"programNumber":41},{"time":242999.75699999774,"duration":74.07399999999325,"noteNumber":59,"velocity":85,"programNumber":41},{"time":243110.86799999775,"duration":74.07399999999325,"noteNumber":62,"velocity":85,"programNumber":41},{"time":243110.86799999775,"duration":74.07399999999325,"noteNumber":59,"velocity":85,"programNumber":41},{"time":243221.97899999775,"duration":74.07399999999325,"noteNumber":62,"velocity":85,"programNumber":41},{"time":243221.97899999775,"duration":74.07399999999325,"noteNumber":59,"velocity":85,"programNumber":41},{"time":243333.08999999776,"duration":74.07399999999325,"noteNumber":62,"velocity":85,"programNumber":41},{"time":243333.08999999776,"duration":74.07399999999325,"noteNumber":59,"velocity":85,"programNumber":41},{"time":243444.20099999776,"duration":74.07399999999325,"noteNumber":62,"velocity":85,"programNumber":41},{"time":243444.20099999776,"duration":74.07399999999325,"noteNumber":59,"velocity":85,"programNumber":41},{"time":243555.31199999776,"duration":74.07399999999325,"noteNumber":62,"velocity":85,"programNumber":41},{"time":243555.31199999776,"duration":74.07399999999325,"noteNumber":60,"velocity":85,"programNumber":41},{"time":243666.42299999777,"duration":74.07399999999325,"noteNumber":62,"velocity":85,"programNumber":41},{"time":243666.42299999777,"duration":74.07399999999325,"noteNumber":60,"velocity":85,"programNumber":41},{"time":243777.53399999777,"duration":74.07399999999325,"noteNumber":62,"velocity":85,"programNumber":41},{"time":243777.53399999777,"duration":74.07399999999325,"noteNumber":60,"velocity":85,"programNumber":41},{"time":243888.64499999778,"duration":74.07399999999325,"noteNumber":62,"velocity":85,"programNumber":41},{"time":243888.64499999778,"duration":74.07399999999325,"noteNumber":60,"velocity":85,"programNumber":41},{"time":243999.75599999778,"duration":74.07399999999325,"noteNumber":62,"velocity":85,"programNumber":41},{"time":243999.75599999778,"duration":74.07399999999325,"noteNumber":60,"velocity":85,"programNumber":41},{"time":244110.8669999978,"duration":74.07399999999325,"noteNumber":62,"velocity":85,"programNumber":41},{"time":244110.8669999978,"duration":74.07399999999325,"noteNumber":60,"velocity":85,"programNumber":41},{"time":244221.9779999978,"duration":74.07399999999325,"noteNumber":62,"velocity":85,"programNumber":41},{"time":244221.9779999978,"duration":74.07399999999325,"noteNumber":60,"velocity":85,"programNumber":41},{"time":244333.0889999978,"duration":74.07399999999325,"noteNumber":62,"velocity":85,"programNumber":41},{"time":244333.0889999978,"duration":74.07399999999325,"noteNumber":60,"velocity":85,"programNumber":41},{"time":244444.1999999978,"duration":74.07399999999325,"noteNumber":62,"velocity":85,"programNumber":41},{"time":244444.1999999978,"duration":74.07399999999325,"noteNumber":60,"velocity":85,"programNumber":41},{"time":244555.3109999978,"duration":74.07399999999325,"noteNumber":62,"velocity":85,"programNumber":41},{"time":244555.3109999978,"duration":74.07399999999325,"noteNumber":60,"velocity":85,"programNumber":41},{"time":244666.4219999978,"duration":74.07399999999325,"noteNumber":62,"velocity":85,"programNumber":41},{"time":244666.4219999978,"duration":74.07399999999325,"noteNumber":60,"velocity":85,"programNumber":41},{"time":244777.5329999978,"duration":74.07399999999325,"noteNumber":62,"velocity":85,"programNumber":41},{"time":244777.5329999978,"duration":74.07399999999325,"noteNumber":60,"velocity":85,"programNumber":41},{"time":244888.64399999782,"duration":74.07399999999325,"noteNumber":62,"velocity":85,"programNumber":41},{"time":244888.64399999782,"duration":74.07399999999325,"noteNumber":60,"velocity":85,"programNumber":41},{"time":244999.75499999782,"duration":74.07399999999325,"noteNumber":62,"velocity":85,"programNumber":41},{"time":244999.75499999782,"duration":74.07399999999325,"noteNumber":60,"velocity":85,"programNumber":41},{"time":245110.86599999783,"duration":74.07399999999325,"noteNumber":62,"velocity":85,"programNumber":41},{"time":245110.86599999783,"duration":74.07399999999325,"noteNumber":60,"velocity":85,"programNumber":41},{"time":245221.97699999783,"duration":74.07399999999325,"noteNumber":62,"velocity":85,"programNumber":41},{"time":245221.97699999783,"duration":74.07399999999325,"noteNumber":60,"velocity":85,"programNumber":41},{"time":245333.08799999784,"duration":444.4439999999886,"noteNumber":62,"velocity":85,"programNumber":41},{"time":245333.08799999784,"duration":444.4439999999886,"noteNumber":59,"velocity":85,"programNumber":41},{"time":245777.53199999782,"duration":166.66649999999208,"noteNumber":72,"velocity":85,"programNumber":41},{"time":245999.7539999978,"duration":166.66649999999208,"noteNumber":72,"velocity":85,"programNumber":41},{"time":246221.97599999778,"duration":166.66649999999208,"noteNumber":74,"velocity":85,"programNumber":41},{"time":246444.19799999776,"duration":166.66649999999208,"noteNumber":74,"velocity":85,"programNumber":41},{"time":246666.41999999774,"duration":222.22200000000885,"noteNumber":72,"velocity":85,"programNumber":41},{"time":246888.64199999775,"duration":111.11100000000442,"noteNumber":71,"velocity":85,"programNumber":41},{"time":246999.75299999776,"duration":111.11100000000442,"noteNumber":69,"velocity":85,"programNumber":41},{"time":247110.86399999776,"duration":166.66649999999208,"noteNumber":67,"velocity":85,"programNumber":41},{"time":247333.08599999774,"duration":166.66649999999208,"noteNumber":67,"velocity":85,"programNumber":41},{"time":247555.30799999772,"duration":166.66649999999208,"noteNumber":66,"velocity":85,"programNumber":41},{"time":247777.5299999977,"duration":166.66649999999208,"noteNumber":66,"velocity":85,"programNumber":41},{"time":247999.75199999768,"duration":444.4439999999886,"noteNumber":67,"velocity":85,"programNumber":41},{"time":248888.63999999766,"duration":888.8880000000063,"noteNumber":71,"velocity":47,"programNumber":41},{"time":249777.52799999766,"duration":888.8880000000063,"noteNumber":72,"velocity":47,"programNumber":41},{"time":250666.41599999767,"duration":111.11100000000442,"noteNumber":71,"velocity":47,"programNumber":41},{"time":250777.52699999767,"duration":296.2960000000021,"noteNumber":69,"velocity":47,"programNumber":41},{"time":251110.8599999977,"duration":444.4439999999886,"noteNumber":69,"velocity":47,"programNumber":41},{"time":251555.30399999768,"duration":111.11100000000442,"noteNumber":69,"velocity":47,"programNumber":41},{"time":251666.41499999768,"duration":296.2960000000021,"noteNumber":67,"velocity":47,"programNumber":41},{"time":251999.7479999977,"duration":444.4439999999886,"noteNumber":67,"velocity":47,"programNumber":41},{"time":252444.19199999768,"duration":333.33300000001327,"noteNumber":64,"velocity":47,"programNumber":41},{"time":252888.6359999977,"duration":333.33300000001327,"noteNumber":64,"velocity":47,"programNumber":41},{"time":253333.07999999772,"duration":333.33300000001327,"noteNumber":60,"velocity":47,"programNumber":41},{"time":253777.52399999773,"duration":333.33300000001327,"noteNumber":57,"velocity":47,"programNumber":41},{"time":254221.96799999775,"duration":222.22200000000885,"noteNumber":62,"velocity":47,"programNumber":41},{"time":254666.41199999777,"duration":222.22200000000885,"noteNumber":66,"velocity":47,"programNumber":41},{"time":255110.8559999978,"duration":222.22200000000885,"noteNumber":67,"velocity":47,"programNumber":41},{"time":255999.7439999978,"duration":888.8880000000063,"noteNumber":71,"velocity":47,"programNumber":41},{"time":256888.6319999978,"duration":888.8880000000063,"noteNumber":72,"velocity":47,"programNumber":41},{"time":257777.5199999978,"duration":222.22200000000885,"noteNumber":71,"velocity":47,"programNumber":41},{"time":257999.74199999782,"duration":111.11100000000442,"noteNumber":69,"velocity":47,"programNumber":41},{"time":258221.96399999782,"duration":111.11100000000442,"noteNumber":69,"velocity":47,"programNumber":41},{"time":258444.18599999783,"duration":111.11100000000442,"noteNumber":69,"velocity":47,"programNumber":41},{"time":258666.40799999784,"duration":222.22200000000885,"noteNumber":69,"velocity":47,"programNumber":41},{"time":258888.62999999785,"duration":111.11100000000442,"noteNumber":67,"velocity":47,"programNumber":41},{"time":259110.85199999786,"duration":111.11100000000442,"noteNumber":67,"velocity":47,"programNumber":41},{"time":259333.07399999787,"duration":111.11100000000442,"noteNumber":67,"velocity":47,"programNumber":41},{"time":259555.29599999788,"duration":333.33300000001327,"noteNumber":64,"velocity":47,"programNumber":41},{"time":259999.7399999979,"duration":166.66649999999208,"noteNumber":64,"velocity":47,"programNumber":41},{"time":260221.96199999787,"duration":166.66649999999208,"noteNumber":64,"velocity":47,"programNumber":41},{"time":260444.18399999785,"duration":333.33300000001327,"noteNumber":60,"velocity":47,"programNumber":41},{"time":260888.62799999787,"duration":166.66649999999208,"noteNumber":60,"velocity":47,"programNumber":41},{"time":261110.84999999785,"duration":166.66649999999208,"noteNumber":60,"velocity":47,"programNumber":41},{"time":261333.07199999783,"duration":1111.109999999986,"noteNumber":59,"velocity":85,"programNumber":41},{"time":262444.1819999978,"duration":55.555500000016764,"noteNumber":59,"velocity":61,"programNumber":41},{"time":262499.73749999783,"duration":55.555500000016764,"noteNumber":60,"velocity":61,"programNumber":41},{"time":262555.29299999785,"duration":55.555500000016764,"noteNumber":57,"velocity":61,"programNumber":41},{"time":262610.84849999787,"duration":55.555500000016764,"noteNumber":59,"velocity":61,"programNumber":41},{"time":262666.4039999979,"duration":222.22200000000885,"noteNumber":60,"velocity":61,"programNumber":41},{"time":262888.6259999979,"duration":222.22200000000885,"noteNumber":57,"velocity":61,"programNumber":41},{"time":263110.8479999979,"duration":1111.109999999986,"noteNumber":67,"velocity":85,"programNumber":41},{"time":264221.9579999979,"duration":55.555500000016764,"noteNumber":67,"velocity":61,"programNumber":41},{"time":264277.5134999979,"duration":55.555500000016764,"noteNumber":69,"velocity":61,"programNumber":41},{"time":264333.0689999979,"duration":55.555500000016764,"noteNumber":66,"velocity":61,"programNumber":41},{"time":264388.62449999794,"duration":55.555500000016764,"noteNumber":67,"velocity":61,"programNumber":41},{"time":264444.17999999796,"duration":222.22200000000885,"noteNumber":69,"velocity":61,"programNumber":41},{"time":264666.40199999796,"duration":222.22200000000885,"noteNumber":66,"velocity":61,"programNumber":41},{"time":264888.623999998,"duration":74.07400000002235,"noteNumber":71,"velocity":53,"programNumber":41},{"time":264999.734999998,"duration":74.07400000002235,"noteNumber":71,"velocity":53,"programNumber":41},{"time":265110.84599999804,"duration":74.07400000002235,"noteNumber":71,"velocity":55,"programNumber":41},{"time":265221.9569999981,"duration":74.07400000002235,"noteNumber":71,"velocity":55,"programNumber":41},{"time":265333.0679999981,"duration":74.07400000002235,"noteNumber":71,"velocity":55,"programNumber":41},{"time":265444.17899999814,"duration":74.07400000002235,"noteNumber":71,"velocity":56,"programNumber":41},{"time":265555.2899999982,"duration":74.07400000002235,"noteNumber":71,"velocity":56,"programNumber":41},{"time":265666.4009999982,"duration":74.07400000002235,"noteNumber":71,"velocity":58,"programNumber":41},{"time":265777.51199999824,"duration":74.07400000002235,"noteNumber":72,"velocity":58,"programNumber":41},{"time":265888.6229999983,"duration":74.07400000002235,"noteNumber":72,"velocity":59,"programNumber":41},{"time":265999.7339999983,"duration":74.07400000002235,"noteNumber":72,"velocity":59,"programNumber":41},{"time":266110.84499999834,"duration":74.07400000002235,"noteNumber":72,"velocity":61,"programNumber":41},{"time":266221.9559999984,"duration":74.07400000002235,"noteNumber":74,"velocity":61,"programNumber":41},{"time":266333.0669999984,"duration":74.07400000002235,"noteNumber":74,"velocity":62,"programNumber":41},{"time":266444.17799999844,"duration":74.07400000002235,"noteNumber":74,"velocity":62,"programNumber":41},{"time":266555.2889999985,"duration":74.07400000002235,"noteNumber":74,"velocity":64,"programNumber":41},{"time":266666.3999999985,"duration":74.07400000002235,"noteNumber":71,"velocity":64,"programNumber":41},{"time":266777.51099999854,"duration":74.07400000002235,"noteNumber":71,"velocity":65,"programNumber":41},{"time":266888.6219999986,"duration":74.07400000002235,"noteNumber":71,"velocity":65,"programNumber":41},{"time":266999.7329999986,"duration":74.07400000002235,"noteNumber":71,"velocity":67,"programNumber":41},{"time":267110.84399999864,"duration":74.07400000002235,"noteNumber":74,"velocity":67,"programNumber":41},{"time":267221.9549999987,"duration":74.07400000002235,"noteNumber":74,"velocity":68,"programNumber":41},{"time":267333.0659999987,"duration":74.07400000002235,"noteNumber":74,"velocity":68,"programNumber":41},{"time":267444.17699999874,"duration":74.07400000002235,"noteNumber":74,"velocity":70,"programNumber":41},{"time":267555.2879999988,"duration":74.07400000002235,"noteNumber":74,"velocity":70,"programNumber":41},{"time":267666.3989999988,"duration":74.07400000002235,"noteNumber":74,"velocity":71,"programNumber":41},{"time":267777.50999999885,"duration":74.07400000002235,"noteNumber":74,"velocity":71,"programNumber":41},{"time":267888.6209999989,"duration":74.07400000002235,"noteNumber":74,"velocity":73,"programNumber":41},{"time":267999.7319999989,"duration":74.07400000002235,"noteNumber":79,"velocity":73,"programNumber":41},{"time":268110.84299999895,"duration":74.07400000002235,"noteNumber":79,"velocity":73,"programNumber":41},{"time":268221.953999999,"duration":74.07400000002235,"noteNumber":79,"velocity":74,"programNumber":41},{"time":268333.064999999,"duration":74.07400000002235,"noteNumber":79,"velocity":74,"programNumber":41},{"time":268444.17599999905,"duration":74.07400000002235,"noteNumber":78,"velocity":85,"programNumber":41},{"time":268555.2869999991,"duration":74.07400000002235,"noteNumber":78,"velocity":85,"programNumber":41},{"time":268666.3979999991,"duration":74.07400000002235,"noteNumber":78,"velocity":85,"programNumber":41},{"time":268777.50899999915,"duration":74.07400000002235,"noteNumber":78,"velocity":85,"programNumber":41},{"time":268888.6199999992,"duration":74.07400000002235,"noteNumber":78,"velocity":85,"programNumber":41},{"time":268999.7309999992,"duration":74.07400000002235,"noteNumber":78,"velocity":85,"programNumber":41},{"time":269110.84199999925,"duration":74.07400000002235,"noteNumber":78,"velocity":85,"programNumber":41},{"time":269221.9529999993,"duration":74.07400000002235,"noteNumber":78,"velocity":85,"programNumber":41},{"time":269333.0639999993,"duration":74.07400000002235,"noteNumber":79,"velocity":85,"programNumber":41},{"time":269444.17499999935,"duration":74.07400000002235,"noteNumber":79,"velocity":85,"programNumber":41},{"time":269555.2859999994,"duration":74.07400000002235,"noteNumber":79,"velocity":85,"programNumber":41},{"time":269666.3969999994,"duration":74.07400000002235,"noteNumber":79,"velocity":85,"programNumber":41},{"time":269777.50799999945,"duration":74.07400000002235,"noteNumber":79,"velocity":85,"programNumber":41},{"time":269888.6189999995,"duration":74.07400000002235,"noteNumber":79,"velocity":85,"programNumber":41},{"time":269999.7299999995,"duration":74.07400000002235,"noteNumber":79,"velocity":85,"programNumber":41},{"time":270110.84099999955,"duration":74.07400000002235,"noteNumber":79,"velocity":85,"programNumber":41},{"time":270221.9519999996,"duration":74.07400000002235,"noteNumber":78,"velocity":85,"programNumber":41},{"time":270333.0629999996,"duration":74.07400000002235,"noteNumber":78,"velocity":85,"programNumber":41},{"time":270444.17399999965,"duration":74.07400000002235,"noteNumber":78,"velocity":85,"programNumber":41},{"time":270555.2849999997,"duration":74.07400000002235,"noteNumber":78,"velocity":85,"programNumber":41},{"time":270666.3959999997,"duration":74.07400000002235,"noteNumber":78,"velocity":85,"programNumber":41},{"time":270777.50699999975,"duration":74.07400000002235,"noteNumber":78,"velocity":85,"programNumber":41},{"time":270888.6179999998,"duration":74.07400000002235,"noteNumber":78,"velocity":85,"programNumber":41},{"time":270999.7289999998,"duration":74.07400000002235,"noteNumber":78,"velocity":85,"programNumber":41},{"time":271110.83999999985,"duration":74.07400000002235,"noteNumber":79,"velocity":85,"programNumber":41},{"time":271221.9509999999,"duration":74.07400000002235,"noteNumber":79,"velocity":85,"programNumber":41},{"time":271333.0619999999,"duration":74.07400000002235,"noteNumber":79,"velocity":85,"programNumber":41},{"time":271444.17299999995,"duration":74.07400000002235,"noteNumber":79,"velocity":85,"programNumber":41},{"time":271555.284,"duration":74.07400000002235,"noteNumber":79,"velocity":85,"programNumber":41},{"time":271666.395,"duration":74.07400000002235,"noteNumber":79,"velocity":85,"programNumber":41},{"time":271777.50600000005,"duration":74.07400000002235,"noteNumber":79,"velocity":85,"programNumber":41},{"time":271888.6170000001,"duration":74.07400000002235,"noteNumber":79,"velocity":85,"programNumber":41},{"time":271999.7280000001,"duration":74.07400000002235,"noteNumber":78,"velocity":85,"programNumber":41},{"time":272110.83900000015,"duration":74.07400000002235,"noteNumber":78,"velocity":85,"programNumber":41},{"time":272221.9500000002,"duration":74.07400000002235,"noteNumber":78,"velocity":85,"programNumber":41},{"time":272333.0610000002,"duration":74.07400000002235,"noteNumber":78,"velocity":85,"programNumber":41},{"time":272444.17200000025,"duration":74.07400000002235,"noteNumber":79,"velocity":85,"programNumber":41},{"time":272555.2830000003,"duration":74.07400000002235,"noteNumber":79,"velocity":85,"programNumber":41},{"time":272666.3940000003,"duration":74.07400000002235,"noteNumber":79,"velocity":85,"programNumber":41},{"time":272777.50500000035,"duration":74.07400000002235,"noteNumber":79,"velocity":85,"programNumber":41},{"time":272888.6160000004,"duration":74.07400000002235,"noteNumber":78,"velocity":85,"programNumber":41},{"time":272999.7270000004,"duration":74.07400000002235,"noteNumber":78,"velocity":85,"programNumber":41},{"time":273110.83800000045,"duration":74.07400000002235,"noteNumber":78,"velocity":85,"programNumber":41},{"time":273221.9490000005,"duration":74.07400000002235,"noteNumber":78,"velocity":85,"programNumber":41},{"time":273333.0600000005,"duration":74.07400000002235,"noteNumber":79,"velocity":85,"programNumber":41},{"time":273444.17100000056,"duration":74.07400000002235,"noteNumber":79,"velocity":85,"programNumber":41},{"time":273555.2820000006,"duration":74.07400000002235,"noteNumber":79,"velocity":85,"programNumber":41},{"time":273666.3930000006,"duration":74.07400000002235,"noteNumber":79,"velocity":85,"programNumber":41},{"time":273788.61510000064,"duration":166.66649999999208,"noteNumber":78,"velocity":85,"programNumber":41},{"time":274010.83710000064,"duration":166.66649999999208,"noteNumber":62,"velocity":85,"programNumber":41},{"time":274233.05910000065,"duration":166.66649999999208,"noteNumber":62,"velocity":85,"programNumber":41},{"time":274455.28110000066,"duration":166.66649999999208,"noteNumber":62,"velocity":85,"programNumber":41},{"time":274677.5031000007,"duration":444.4440000000177,"noteNumber":62,"velocity":85,"programNumber":41},{"time":275555.28000000067,"duration":666.6660000000265,"noteNumber":62,"velocity":55,"programNumber":41},{"time":276221.9460000007,"duration":74.07400000002235,"noteNumber":60,"velocity":55,"programNumber":41},{"time":276296.0200000007,"duration":74.07400000002235,"noteNumber":59,"velocity":55,"programNumber":41},{"time":276370.09400000074,"duration":74.07400000002235,"noteNumber":57,"velocity":55,"programNumber":41},{"time":276444.16800000076,"duration":222.22200000000885,"noteNumber":55,"velocity":55,"programNumber":41},{"time":276888.6120000008,"duration":222.22200000000885,"noteNumber":64,"velocity":55,"programNumber":41},{"time":277333.0560000008,"duration":222.22200000000885,"noteNumber":60,"velocity":55,"programNumber":41},{"time":277777.5000000008,"duration":222.22200000000885,"noteNumber":57,"velocity":55,"programNumber":41},{"time":278221.94400000083,"duration":222.22200000000885,"noteNumber":62,"velocity":55,"programNumber":41},{"time":279110.83200000087,"duration":666.6660000000265,"noteNumber":71,"velocity":55,"programNumber":41},{"time":279777.4980000009,"duration":74.07400000002235,"noteNumber":69,"velocity":55,"programNumber":41},{"time":279851.5720000009,"duration":74.07400000002235,"noteNumber":67,"velocity":55,"programNumber":41},{"time":279925.64600000094,"duration":74.07400000002235,"noteNumber":66,"velocity":55,"programNumber":41},{"time":279999.72000000096,"duration":222.22200000000885,"noteNumber":64,"velocity":55,"programNumber":41},{"time":280444.164000001,"duration":222.22200000000885,"noteNumber":72,"velocity":55,"programNumber":41},{"time":280888.608000001,"duration":888.8879999999772,"noteNumber":71,"velocity":55,"programNumber":41},{"time":281777.496000001,"duration":444.4440000000177,"noteNumber":69,"velocity":55,"programNumber":41},{"time":282666.384000001,"duration":666.6660000000265,"noteNumber":74,"velocity":55,"programNumber":41},{"time":283333.05000000104,"duration":74.07400000002235,"noteNumber":72,"velocity":55,"programNumber":41},{"time":283407.12400000106,"duration":74.07400000002235,"noteNumber":71,"velocity":55,"programNumber":41},{"time":283481.1980000011,"duration":74.07400000002235,"noteNumber":69,"velocity":55,"programNumber":41},{"time":283555.2720000011,"duration":222.22200000000885,"noteNumber":67,"velocity":55,"programNumber":41},{"time":283999.7160000011,"duration":222.22200000000885,"noteNumber":76,"velocity":55,"programNumber":41},{"time":284444.16000000114,"duration":222.22200000000885,"noteNumber":72,"velocity":55,"programNumber":41},{"time":284888.60400000116,"duration":222.22200000000885,"noteNumber":69,"velocity":55,"programNumber":41},{"time":285333.0480000012,"duration":222.22200000000885,"noteNumber":74,"velocity":55,"programNumber":41},{"time":285944.1585000012,"duration":166.66649999999208,"noteNumber":72,"velocity":55,"programNumber":41},{"time":286221.93600000115,"duration":222.22200000000885,"noteNumber":72,"velocity":55,"programNumber":41},{"time":286444.15800000116,"duration":222.22200000000885,"noteNumber":71,"velocity":55,"programNumber":41},{"time":286888.6020000012,"duration":111.11099999997532,"noteNumber":72,"velocity":55,"programNumber":41},{"time":287110.8240000011,"duration":222.22200000000885,"noteNumber":72,"velocity":55,"programNumber":41},{"time":287333.04600000114,"duration":222.22200000000885,"noteNumber":71,"velocity":55,"programNumber":41},{"time":287777.49000000115,"duration":166.66649999999208,"noteNumber":60,"velocity":55,"programNumber":41},{"time":287999.71200000116,"duration":166.66649999999208,"noteNumber":59,"velocity":55,"programNumber":41},{"time":288221.9340000012,"duration":166.66649999999208,"noteNumber":59,"velocity":55,"programNumber":41},{"time":288444.1560000012,"duration":166.66649999999208,"noteNumber":60,"velocity":55,"programNumber":41},{"time":288666.3780000012,"duration":166.66649999999208,"noteNumber":60,"velocity":55,"programNumber":41},{"time":288888.6000000012,"duration":166.66649999999208,"noteNumber":62,"velocity":55,"programNumber":41},{"time":289110.8220000012,"duration":166.66649999999208,"noteNumber":62,"velocity":55,"programNumber":41},{"time":289333.0440000012,"duration":166.66649999999208,"noteNumber":59,"velocity":55,"programNumber":41},{"time":289555.2660000012,"duration":166.66649999999208,"noteNumber":59,"velocity":55,"programNumber":41},{"time":289777.48800000123,"duration":166.66649999999208,"noteNumber":57,"velocity":55,"programNumber":41},{"time":289999.71000000124,"duration":166.66649999999208,"noteNumber":57,"velocity":55,"programNumber":41},{"time":290221.93200000125,"duration":166.66649999999208,"noteNumber":59,"velocity":55,"programNumber":41},{"time":290444.15400000126,"duration":166.66649999999208,"noteNumber":59,"velocity":55,"programNumber":41},{"time":290666.37600000127,"duration":166.66649999999208,"noteNumber":60,"velocity":55,"programNumber":41},{"time":290888.5980000013,"duration":166.66649999999208,"noteNumber":60,"velocity":55,"programNumber":41},{"time":291110.8200000013,"duration":166.66649999999208,"noteNumber":57,"velocity":55,"programNumber":41},{"time":291333.0420000013,"duration":166.66649999999208,"noteNumber":57,"velocity":55,"programNumber":41},{"time":291555.2640000013,"duration":166.66649999999208,"noteNumber":59,"velocity":55,"programNumber":41},{"time":291777.4860000013,"duration":166.66649999999208,"noteNumber":59,"velocity":55,"programNumber":41},{"time":291999.7080000013,"duration":166.66649999999208,"noteNumber":60,"velocity":55,"programNumber":41},{"time":292221.93000000133,"duration":166.66649999999208,"noteNumber":60,"velocity":55,"programNumber":41},{"time":292444.15200000134,"duration":166.66649999999208,"noteNumber":62,"velocity":55,"programNumber":41},{"time":292666.37400000135,"duration":166.66649999999208,"noteNumber":62,"velocity":55,"programNumber":41},{"time":292888.59600000136,"duration":166.66649999999208,"noteNumber":59,"velocity":55,"programNumber":41},{"time":293110.81800000137,"duration":166.66649999999208,"noteNumber":59,"velocity":55,"programNumber":41},{"time":293333.0400000014,"duration":166.66649999999208,"noteNumber":57,"velocity":55,"programNumber":41},{"time":293555.2620000014,"duration":166.66649999999208,"noteNumber":57,"velocity":55,"programNumber":41},{"time":293777.4840000014,"duration":166.66649999999208,"noteNumber":59,"velocity":55,"programNumber":41},{"time":293999.7060000014,"duration":166.66649999999208,"noteNumber":59,"velocity":55,"programNumber":41},{"time":294221.9280000014,"duration":166.66649999999208,"noteNumber":60,"velocity":55,"programNumber":41},{"time":294444.1500000014,"duration":166.66649999999208,"noteNumber":60,"velocity":55,"programNumber":41},{"time":294666.37200000143,"duration":166.66649999999208,"noteNumber":57,"velocity":55,"programNumber":41},{"time":294888.59400000144,"duration":166.66649999999208,"noteNumber":57,"velocity":55,"programNumber":41},{"time":295110.81600000145,"duration":444.4440000000177,"noteNumber":59,"velocity":55,"programNumber":41},{"time":295999.7040000015,"duration":888.8879999999772,"noteNumber":64,"velocity":85,"programNumber":41},{"time":295999.7040000015,"duration":888.8879999999772,"noteNumber":71,"velocity":85,"programNumber":41},{"time":296888.59200000146,"duration":444.4440000000177,"noteNumber":69,"velocity":85,"programNumber":41},{"time":297777.4800000015,"duration":888.8879999999772,"noteNumber":69,"velocity":85,"programNumber":41},{"time":297777.4800000015,"duration":888.8879999999772,"noteNumber":62,"velocity":85,"programNumber":41},{"time":298666.3680000015,"duration":166.66649999999208,"noteNumber":67,"velocity":85,"programNumber":41},{"time":298888.5900000015,"duration":111.11099999997532,"noteNumber":71,"velocity":85,"programNumber":41},{"time":299110.81200000143,"duration":111.11099999997532,"noteNumber":72,"velocity":85,"programNumber":41},{"time":299333.0340000014,"duration":111.11099999997532,"noteNumber":74,"velocity":85,"programNumber":41},{"time":299555.25600000133,"duration":222.22200000000885,"noteNumber":72,"velocity":85,"programNumber":41},{"time":299777.47800000134,"duration":111.11099999997532,"noteNumber":74,"velocity":85,"programNumber":41},{"time":299888.5890000013,"duration":111.11099999997532,"noteNumber":76,"velocity":85,"programNumber":41},{"time":299999.7000000013,"duration":166.66649999999208,"noteNumber":74,"velocity":85,"programNumber":41},{"time":300221.9220000013,"duration":111.11099999997532,"noteNumber":72,"velocity":85,"programNumber":41},{"time":300444.14400000125,"duration":222.22200000000885,"noteNumber":72,"velocity":85,"programNumber":41},{"time":300666.36600000126,"duration":166.66649999999208,"noteNumber":71,"velocity":85,"programNumber":41},{"time":300888.58800000127,"duration":111.11099999997532,"noteNumber":67,"velocity":85,"programNumber":41},{"time":301110.8100000012,"duration":111.11099999997532,"noteNumber":71,"velocity":85,"programNumber":41},{"time":301333.03200000117,"duration":222.22200000000885,"noteNumber":71,"velocity":85,"programNumber":41},{"time":301555.2540000012,"duration":166.66649999999208,"noteNumber":69,"velocity":85,"programNumber":41},{"time":301777.4760000012,"duration":111.11099999997532,"noteNumber":67,"velocity":85,"programNumber":41},{"time":301999.69800000114,"duration":111.11099999997532,"noteNumber":66,"velocity":85,"programNumber":41},{"time":302221.9200000011,"duration":166.66649999999208,"noteNumber":67,"velocity":85,"programNumber":41},{"time":302444.1420000011,"duration":166.66649999999208,"noteNumber":59,"velocity":53,"programNumber":41},{"time":302666.3640000011,"duration":166.66649999999208,"noteNumber":60,"velocity":53,"programNumber":41},{"time":302888.5860000011,"duration":166.66649999999208,"noteNumber":60,"velocity":53,"programNumber":41},{"time":303110.8080000011,"duration":166.66649999999208,"noteNumber":62,"velocity":53,"programNumber":41},{"time":303333.03000000113,"duration":166.66649999999208,"noteNumber":62,"velocity":53,"programNumber":41},{"time":303555.25200000114,"duration":166.66649999999208,"noteNumber":59,"velocity":53,"programNumber":41},{"time":303777.47400000115,"duration":166.66649999999208,"noteNumber":59,"velocity":53,"programNumber":41},{"time":303999.69600000116,"duration":166.66649999999208,"noteNumber":57,"velocity":55,"programNumber":41},{"time":304221.91800000117,"duration":166.66649999999208,"noteNumber":57,"velocity":55,"programNumber":41},{"time":304444.1400000012,"duration":166.66649999999208,"noteNumber":59,"velocity":55,"programNumber":41},{"time":304666.3620000012,"duration":166.66649999999208,"noteNumber":59,"velocity":55,"programNumber":41},{"time":304888.5840000012,"duration":166.66649999999208,"noteNumber":60,"velocity":55,"programNumber":41},{"time":305110.8060000012,"duration":166.66649999999208,"noteNumber":60,"velocity":55,"programNumber":41},{"time":305333.0280000012,"duration":166.66649999999208,"noteNumber":57,"velocity":55,"programNumber":41},{"time":305555.2500000012,"duration":166.66649999999208,"noteNumber":57,"velocity":55,"programNumber":41},{"time":305777.47200000123,"duration":166.66649999999208,"noteNumber":59,"velocity":55,"programNumber":41},{"time":305999.69400000124,"duration":166.66649999999208,"noteNumber":71,"velocity":55,"programNumber":41},{"time":306221.91600000125,"duration":166.66649999999208,"noteNumber":72,"velocity":55,"programNumber":41},{"time":306444.13800000126,"duration":166.66649999999208,"noteNumber":72,"velocity":55,"programNumber":41},{"time":306666.36000000127,"duration":166.66649999999208,"noteNumber":74,"velocity":55,"programNumber":41},{"time":306888.5820000013,"duration":166.66649999999208,"noteNumber":74,"velocity":55,"programNumber":41},{"time":307110.8040000013,"duration":166.66649999999208,"noteNumber":71,"velocity":55,"programNumber":41},{"time":307333.0260000013,"duration":166.66649999999208,"noteNumber":71,"velocity":55,"programNumber":41},{"time":307555.2480000013,"duration":166.66649999999208,"noteNumber":69,"velocity":55,"programNumber":41},{"time":307777.4700000013,"duration":166.66649999999208,"noteNumber":69,"velocity":55,"programNumber":41},{"time":307999.6920000013,"duration":166.66649999999208,"noteNumber":71,"velocity":55,"programNumber":41},{"time":308221.9140000013,"duration":166.66649999999208,"noteNumber":71,"velocity":55,"programNumber":41},{"time":308444.13600000134,"duration":166.66649999999208,"noteNumber":72,"velocity":55,"programNumber":41},{"time":308666.35800000135,"duration":166.66649999999208,"noteNumber":72,"velocity":55,"programNumber":41},{"time":308888.58000000136,"duration":166.66649999999208,"noteNumber":69,"velocity":55,"programNumber":41},{"time":309110.80200000136,"duration":166.66649999999208,"noteNumber":69,"velocity":55,"programNumber":41},{"time":309333.0240000014,"duration":444.4440000000177,"noteNumber":71,"velocity":58,"programNumber":41},{"time":310221.9120000014,"duration":888.8879999999772,"noteNumber":83,"velocity":85,"programNumber":41},{"time":311110.8000000014,"duration":444.4440000000177,"noteNumber":81,"velocity":85,"programNumber":41},{"time":311999.6880000014,"duration":888.8879999999772,"noteNumber":81,"velocity":85,"programNumber":41},{"time":312888.5760000014,"duration":166.66649999999208,"noteNumber":79,"velocity":85,"programNumber":41},{"time":313110.7980000014,"duration":111.11099999997532,"noteNumber":71,"velocity":85,"programNumber":41},{"time":313333.02000000136,"duration":111.11099999997532,"noteNumber":72,"velocity":85,"programNumber":41},{"time":313555.2420000013,"duration":111.11099999997532,"noteNumber":74,"velocity":85,"programNumber":41},{"time":313777.46400000126,"duration":222.22200000000885,"noteNumber":72,"velocity":85,"programNumber":41},{"time":313999.68600000127,"duration":111.11099999997532,"noteNumber":74,"velocity":85,"programNumber":41},{"time":314110.79700000124,"duration":111.11099999997532,"noteNumber":76,"velocity":85,"programNumber":41},{"time":314221.9080000012,"duration":166.66649999999208,"noteNumber":74,"velocity":85,"programNumber":41},{"time":314444.1300000012,"duration":111.11099999997532,"noteNumber":72,"velocity":85,"programNumber":41},{"time":314666.3520000012,"duration":111.11099999997532,"noteNumber":71,"velocity":85,"programNumber":41},{"time":314888.5740000011,"duration":111.11099999997532,"noteNumber":74,"velocity":85,"programNumber":41},{"time":315110.7960000011,"duration":111.11099999997532,"noteNumber":79,"velocity":85,"programNumber":41},{"time":315333.01800000103,"duration":111.11099999997532,"noteNumber":83,"velocity":85,"programNumber":41},{"time":315555.240000001,"duration":222.22200000000885,"noteNumber":83,"velocity":85,"programNumber":41},{"time":315777.462000001,"duration":166.66649999999208,"noteNumber":81,"velocity":85,"programNumber":41},{"time":315999.684000001,"duration":111.11099999997532,"noteNumber":79,"velocity":85,"programNumber":41},{"time":316221.90600000095,"duration":111.11099999997532,"noteNumber":78,"velocity":85,"programNumber":41},{"time":316451.5354000009,"duration":166.66649999999208,"noteNumber":79,"velocity":85,"programNumber":41},{"time":316673.75740000093,"duration":166.66649999999208,"noteNumber":62,"velocity":85,"programNumber":41},{"time":316895.97940000094,"duration":166.66649999999208,"noteNumber":64,"velocity":85,"programNumber":41},{"time":317118.20140000095,"duration":166.66649999999208,"noteNumber":66,"velocity":85,"programNumber":41},{"time":317340.42340000096,"duration":166.66649999999208,"noteNumber":67,"velocity":85,"programNumber":41},{"time":317562.64540000097,"duration":166.66649999999208,"noteNumber":67,"velocity":85,"programNumber":41},{"time":317784.867400001,"duration":55.555500000016764,"noteNumber":69,"velocity":85,"programNumber":41},{"time":317840.422900001,"duration":55.555500000016764,"noteNumber":71,"velocity":85,"programNumber":41},{"time":317895.978400001,"duration":55.555500000016764,"noteNumber":69,"velocity":85,"programNumber":41},{"time":317951.533900001,"duration":55.555500000016764,"noteNumber":71,"velocity":85,"programNumber":41},{"time":318007.08940000104,"duration":111.11099999997532,"noteNumber":67,"velocity":85,"programNumber":41},{"time":318118.200400001,"duration":111.11099999997532,"noteNumber":69,"velocity":85,"programNumber":41},{"time":318229.311400001,"duration":166.66649999999208,"noteNumber":71,"velocity":85,"programNumber":41},{"time":318451.533400001,"duration":166.66649999999208,"noteNumber":66,"velocity":85,"programNumber":41},{"time":318673.755400001,"duration":166.66649999999208,"noteNumber":67,"velocity":85,"programNumber":41},{"time":318895.977400001,"duration":166.66649999999208,"noteNumber":69,"velocity":85,"programNumber":41},{"time":319118.19940000103,"duration":166.66649999999208,"noteNumber":71,"velocity":85,"programNumber":41},{"time":319340.42140000104,"duration":166.66649999999208,"noteNumber":71,"velocity":85,"programNumber":41},{"time":319562.64340000105,"duration":55.555500000016764,"noteNumber":72,"velocity":85,"programNumber":41},{"time":319618.19890000107,"duration":55.555500000016764,"noteNumber":74,"velocity":85,"programNumber":41},{"time":319673.7544000011,"duration":55.555500000016764,"noteNumber":72,"velocity":85,"programNumber":41},{"time":319729.3099000011,"duration":55.555500000016764,"noteNumber":74,"velocity":85,"programNumber":41},{"time":319784.8654000011,"duration":111.11099999997532,"noteNumber":71,"velocity":85,"programNumber":41},{"time":319895.9764000011,"duration":111.11100000003353,"noteNumber":72,"velocity":85,"programNumber":41},{"time":319999.6800000011,"duration":166.6665000000503,"noteNumber":74,"velocity":85,"programNumber":41},{"time":320221.90200000117,"duration":166.66649999999208,"noteNumber":74,"velocity":85,"programNumber":41},{"time":320444.1240000012,"duration":55.555500000016764,"noteNumber":75,"velocity":85,"programNumber":41},{"time":320499.6795000012,"duration":55.555500000016764,"noteNumber":76,"velocity":85,"programNumber":41},{"time":320555.2350000012,"duration":55.555500000016764,"noteNumber":75,"velocity":85,"programNumber":41},{"time":320610.7905000012,"duration":55.555500000016764,"noteNumber":76,"velocity":85,"programNumber":41},{"time":320666.34600000124,"duration":111.11099999997532,"noteNumber":73,"velocity":85,"programNumber":41},{"time":320777.4570000012,"duration":111.11099999997532,"noteNumber":75,"velocity":85,"programNumber":41},{"time":320888.5680000012,"duration":444.4440000000177,"noteNumber":76,"velocity":85,"programNumber":41},{"time":321777.4560000012,"duration":1777.7760000000126,"noteNumber":60,"velocity":70,"programNumber":41},{"time":323555.23200000124,"duration":444.4440000000177,"noteNumber":59,"velocity":70,"programNumber":41},{"time":325333.00800000125,"duration":1777.7760000000126,"noteNumber":60,"velocity":70,"programNumber":41},{"time":327110.78400000127,"duration":444.4440000000177,"noteNumber":59,"velocity":70,"programNumber":41},{"time":327999.6720000013,"duration":444.4440000000177,"noteNumber":71,"velocity":70,"programNumber":41},{"time":328888.56000000134,"duration":444.4440000000177,"noteNumber":76,"velocity":92,"programNumber":41},{"time":329777.4480000014,"duration":444.4440000000177,"noteNumber":78,"velocity":106,"programNumber":41},{"time":329777.4480000014,"duration":444.4440000000177,"noteNumber":72,"velocity":106,"programNumber":41},{"time":330666.3360000014,"duration":74.07400000002235,"noteNumber":62,"velocity":95,"programNumber":41},{"time":330666.3360000014,"duration":74.07400000002235,"noteNumber":59,"velocity":95,"programNumber":41},{"time":330777.44700000144,"duration":74.07400000002235,"noteNumber":62,"velocity":95,"programNumber":41},{"time":330777.44700000144,"duration":74.07400000002235,"noteNumber":59,"velocity":95,"programNumber":41},{"time":330888.5580000015,"duration":74.07400000002235,"noteNumber":62,"velocity":95,"programNumber":41},{"time":330888.5580000015,"duration":74.07400000002235,"noteNumber":59,"velocity":95,"programNumber":41},{"time":330999.6690000015,"duration":74.07400000002235,"noteNumber":62,"velocity":95,"programNumber":41},{"time":330999.6690000015,"duration":74.07400000002235,"noteNumber":59,"velocity":95,"programNumber":41},{"time":331110.78000000154,"duration":74.07400000002235,"noteNumber":62,"velocity":95,"programNumber":41},{"time":331110.78000000154,"duration":74.07400000002235,"noteNumber":59,"velocity":95,"programNumber":41},{"time":331221.8910000016,"duration":74.07400000002235,"noteNumber":62,"velocity":94,"programNumber":41},{"time":331221.8910000016,"duration":74.07400000002235,"noteNumber":59,"velocity":94,"programNumber":41},{"time":331333.0020000016,"duration":74.07400000002235,"noteNumber":62,"velocity":94,"programNumber":41},{"time":331333.0020000016,"duration":74.07400000002235,"noteNumber":59,"velocity":94,"programNumber":41},{"time":331444.11300000164,"duration":74.07400000002235,"noteNumber":62,"velocity":94,"programNumber":41},{"time":331444.11300000164,"duration":74.07400000002235,"noteNumber":59,"velocity":94,"programNumber":41},{"time":331555.2240000017,"duration":74.07400000002235,"noteNumber":62,"velocity":94,"programNumber":41},{"time":331555.2240000017,"duration":74.07400000002235,"noteNumber":59,"velocity":94,"programNumber":41},{"time":331666.3350000017,"duration":74.07400000002235,"noteNumber":62,"velocity":94,"programNumber":41},{"time":331666.3350000017,"duration":74.07400000002235,"noteNumber":59,"velocity":94,"programNumber":41},{"time":331777.44600000174,"duration":74.07400000002235,"noteNumber":62,"velocity":94,"programNumber":41},{"time":331777.44600000174,"duration":74.07400000002235,"noteNumber":59,"velocity":94,"programNumber":41},{"time":331888.5570000018,"duration":74.07400000002235,"noteNumber":62,"velocity":94,"programNumber":41},{"time":331888.5570000018,"duration":74.07400000002235,"noteNumber":59,"velocity":94,"programNumber":41},{"time":331999.6680000018,"duration":74.07400000002235,"noteNumber":62,"velocity":94,"programNumber":41},{"time":331999.6680000018,"duration":74.07400000002235,"noteNumber":59,"velocity":94,"programNumber":41},{"time":332110.77900000184,"duration":74.07400000002235,"noteNumber":62,"velocity":94,"programNumber":41},{"time":332110.77900000184,"duration":74.07400000002235,"noteNumber":59,"velocity":94,"programNumber":41},{"time":332221.8900000019,"duration":74.07400000002235,"noteNumber":62,"velocity":94,"programNumber":41},{"time":332221.8900000019,"duration":74.07400000002235,"noteNumber":59,"velocity":94,"programNumber":41},{"time":332333.0010000019,"duration":74.07400000002235,"noteNumber":62,"velocity":94,"programNumber":41},{"time":332333.0010000019,"duration":74.07400000002235,"noteNumber":59,"velocity":94,"programNumber":41},{"time":332444.11200000194,"duration":74.07400000002235,"noteNumber":62,"velocity":94,"programNumber":41},{"time":332444.11200000194,"duration":74.07400000002235,"noteNumber":59,"velocity":94,"programNumber":41},{"time":332555.223000002,"duration":74.07400000002235,"noteNumber":62,"velocity":94,"programNumber":41},{"time":332555.223000002,"duration":74.07400000002235,"noteNumber":59,"velocity":94,"programNumber":41},{"time":332666.334000002,"duration":74.07400000002235,"noteNumber":62,"velocity":94,"programNumber":41},{"time":332666.334000002,"duration":74.07400000002235,"noteNumber":59,"velocity":94,"programNumber":41},{"time":332777.44500000204,"duration":74.07400000002235,"noteNumber":62,"velocity":94,"programNumber":41},{"time":332777.44500000204,"duration":74.07400000002235,"noteNumber":59,"velocity":94,"programNumber":41},{"time":332888.5560000021,"duration":74.07400000002235,"noteNumber":62,"velocity":94,"programNumber":41},{"time":332888.5560000021,"duration":74.07400000002235,"noteNumber":59,"velocity":94,"programNumber":41},{"time":332999.6670000021,"duration":74.07400000002235,"noteNumber":62,"velocity":93,"programNumber":41},{"time":332999.6670000021,"duration":74.07400000002235,"noteNumber":59,"velocity":93,"programNumber":41},{"time":333110.77800000214,"duration":74.07400000002235,"noteNumber":62,"velocity":93,"programNumber":41},{"time":333110.77800000214,"duration":74.07400000002235,"noteNumber":59,"velocity":93,"programNumber":41},{"time":333221.8890000022,"duration":74.07400000002235,"noteNumber":62,"velocity":91,"programNumber":41},{"time":333221.8890000022,"duration":74.07400000002235,"noteNumber":59,"velocity":91,"programNumber":41},{"time":333333.0000000022,"duration":74.07400000002235,"noteNumber":62,"velocity":90,"programNumber":41},{"time":333333.0000000022,"duration":74.07400000002235,"noteNumber":59,"velocity":90,"programNumber":41},{"time":333444.11100000225,"duration":74.07400000002235,"noteNumber":62,"velocity":90,"programNumber":41},{"time":333444.11100000225,"duration":74.07400000002235,"noteNumber":59,"velocity":90,"programNumber":41},{"time":333555.2220000023,"duration":74.07400000002235,"noteNumber":62,"velocity":90,"programNumber":41},{"time":333555.2220000023,"duration":74.07400000002235,"noteNumber":59,"velocity":90,"programNumber":41},{"time":333666.3330000023,"duration":74.07400000002235,"noteNumber":62,"velocity":90,"programNumber":41},{"time":333666.3330000023,"duration":74.07400000002235,"noteNumber":59,"velocity":90,"programNumber":41},{"time":333777.44400000235,"duration":74.07400000002235,"noteNumber":62,"velocity":90,"programNumber":41},{"time":333777.44400000235,"duration":74.07400000002235,"noteNumber":60,"velocity":90,"programNumber":41},{"time":333888.5550000024,"duration":74.07400000002235,"noteNumber":62,"velocity":89,"programNumber":41},{"time":333888.5550000024,"duration":74.07400000002235,"noteNumber":60,"velocity":89,"programNumber":41},{"time":333999.6660000024,"duration":74.07400000002235,"noteNumber":62,"velocity":89,"programNumber":41},{"time":333999.6660000024,"duration":74.07400000002235,"noteNumber":60,"velocity":89,"programNumber":41},{"time":334110.77700000245,"duration":74.07400000002235,"noteNumber":62,"velocity":89,"programNumber":41},{"time":334110.77700000245,"duration":74.07400000002235,"noteNumber":60,"velocity":89,"programNumber":41},{"time":334221.8880000025,"duration":74.07400000002235,"noteNumber":62,"velocity":89,"programNumber":41},{"time":334221.8880000025,"duration":74.07400000002235,"noteNumber":59,"velocity":89,"programNumber":41},{"time":334332.9990000025,"duration":74.07400000002235,"noteNumber":62,"velocity":89,"programNumber":41},{"time":334332.9990000025,"duration":74.07400000002235,"noteNumber":59,"velocity":89,"programNumber":41},{"time":334444.11000000255,"duration":74.07400000002235,"noteNumber":62,"velocity":89,"programNumber":41},{"time":334444.11000000255,"duration":74.07400000002235,"noteNumber":59,"velocity":89,"programNumber":41},{"time":334555.2210000026,"duration":74.07400000002235,"noteNumber":62,"velocity":90,"programNumber":41},{"time":334555.2210000026,"duration":74.07400000002235,"noteNumber":59,"velocity":90,"programNumber":41},{"time":334666.3320000026,"duration":74.07400000002235,"noteNumber":62,"velocity":90,"programNumber":41},{"time":334666.3320000026,"duration":74.07400000002235,"noteNumber":59,"velocity":90,"programNumber":41},{"time":334777.44300000265,"duration":74.07400000002235,"noteNumber":62,"velocity":90,"programNumber":41},{"time":334777.44300000265,"duration":74.07400000002235,"noteNumber":59,"velocity":90,"programNumber":41},{"time":334888.5540000027,"duration":74.07400000002235,"noteNumber":62,"velocity":92,"programNumber":41},{"time":334888.5540000027,"duration":74.07400000002235,"noteNumber":59,"velocity":92,"programNumber":41},{"time":334999.6650000027,"duration":74.07400000002235,"noteNumber":62,"velocity":93,"programNumber":41},{"time":334999.6650000027,"duration":74.07400000002235,"noteNumber":59,"velocity":93,"programNumber":41},{"time":335110.77600000275,"duration":74.07400000002235,"noteNumber":62,"velocity":94,"programNumber":41},{"time":335110.77600000275,"duration":74.07400000002235,"noteNumber":59,"velocity":94,"programNumber":41},{"time":335221.8870000028,"duration":74.07400000002235,"noteNumber":62,"velocity":95,"programNumber":41},{"time":335221.8870000028,"duration":74.07400000002235,"noteNumber":59,"velocity":95,"programNumber":41},{"time":335332.9980000028,"duration":74.07400000002235,"noteNumber":62,"velocity":96,"programNumber":41},{"time":335332.9980000028,"duration":74.07400000002235,"noteNumber":59,"velocity":96,"programNumber":41},{"time":335444.10900000285,"duration":74.07400000002235,"noteNumber":62,"velocity":96,"programNumber":41},{"time":335444.10900000285,"duration":74.07400000002235,"noteNumber":59,"velocity":96,"programNumber":41},{"time":335555.2200000029,"duration":74.07400000002235,"noteNumber":62,"velocity":96,"programNumber":41},{"time":335555.2200000029,"duration":74.07400000002235,"noteNumber":59,"velocity":96,"programNumber":41},{"time":335666.3310000029,"duration":74.07400000002235,"noteNumber":62,"velocity":96,"programNumber":41},{"time":335666.3310000029,"duration":74.07400000002235,"noteNumber":59,"velocity":96,"programNumber":41},{"time":335777.44200000295,"duration":74.07400000002235,"noteNumber":62,"velocity":95,"programNumber":41},{"time":335777.44200000295,"duration":74.07400000002235,"noteNumber":59,"velocity":95,"programNumber":41},{"time":335888.553000003,"duration":74.07400000002235,"noteNumber":62,"velocity":94,"programNumber":41},{"time":335888.553000003,"duration":74.07400000002235,"noteNumber":59,"velocity":94,"programNumber":41},{"time":335999.664000003,"duration":74.07400000002235,"noteNumber":62,"velocity":94,"programNumber":41},{"time":335999.664000003,"duration":74.07400000002235,"noteNumber":59,"velocity":94,"programNumber":41},{"time":336110.77500000305,"duration":74.07400000002235,"noteNumber":62,"velocity":93,"programNumber":41},{"time":336110.77500000305,"duration":74.07400000002235,"noteNumber":59,"velocity":93,"programNumber":41},{"time":336221.8860000031,"duration":74.07400000002235,"noteNumber":62,"velocity":93,"programNumber":41},{"time":336221.8860000031,"duration":74.07400000002235,"noteNumber":59,"velocity":93,"programNumber":41},{"time":336332.9970000031,"duration":74.07400000002235,"noteNumber":62,"velocity":93,"programNumber":41},{"time":336332.9970000031,"duration":74.07400000002235,"noteNumber":59,"velocity":93,"programNumber":41},{"time":336444.10800000315,"duration":74.07400000002235,"noteNumber":62,"velocity":92,"programNumber":41},{"time":336444.10800000315,"duration":74.07400000002235,"noteNumber":59,"velocity":92,"programNumber":41},{"time":336555.2190000032,"duration":74.07400000002235,"noteNumber":62,"velocity":91,"programNumber":41},{"time":336555.2190000032,"duration":74.07400000002235,"noteNumber":59,"velocity":91,"programNumber":41},{"time":336666.3300000032,"duration":74.07400000002235,"noteNumber":62,"velocity":90,"programNumber":41},{"time":336666.3300000032,"duration":74.07400000002235,"noteNumber":59,"velocity":90,"programNumber":41},{"time":336777.44100000325,"duration":74.07400000002235,"noteNumber":62,"velocity":90,"programNumber":41},{"time":336777.44100000325,"duration":74.07400000002235,"noteNumber":59,"velocity":90,"programNumber":41},{"time":336888.5520000033,"duration":74.07400000002235,"noteNumber":62,"velocity":90,"programNumber":41},{"time":336888.5520000033,"duration":74.07400000002235,"noteNumber":59,"velocity":90,"programNumber":41},{"time":336999.6630000033,"duration":74.07400000002235,"noteNumber":62,"velocity":90,"programNumber":41},{"time":336999.6630000033,"duration":74.07400000002235,"noteNumber":59,"velocity":90,"programNumber":41},{"time":337110.77400000335,"duration":74.07400000002235,"noteNumber":62,"velocity":90,"programNumber":41},{"time":337110.77400000335,"duration":74.07400000002235,"noteNumber":59,"velocity":90,"programNumber":41},{"time":337221.8850000034,"duration":74.07400000002235,"noteNumber":62,"velocity":90,"programNumber":41},{"time":337221.8850000034,"duration":74.07400000002235,"noteNumber":59,"velocity":90,"programNumber":41},{"time":337332.9960000034,"duration":74.07400000002235,"noteNumber":62,"velocity":91,"programNumber":41},{"time":337332.9960000034,"duration":74.07400000002235,"noteNumber":60,"velocity":91,"programNumber":41},{"time":337444.10700000345,"duration":74.07400000002235,"noteNumber":62,"velocity":94,"programNumber":41},{"time":337444.10700000345,"duration":74.07400000002235,"noteNumber":60,"velocity":94,"programNumber":41},{"time":337555.2180000035,"duration":74.07400000002235,"noteNumber":62,"velocity":95,"programNumber":41},{"time":337555.2180000035,"duration":74.07400000002235,"noteNumber":60,"velocity":95,"programNumber":41},{"time":337666.3290000035,"duration":74.07400000002235,"noteNumber":62,"velocity":98,"programNumber":41},{"time":337666.3290000035,"duration":74.07400000002235,"noteNumber":60,"velocity":98,"programNumber":41},{"time":337777.44000000355,"duration":444.4440000000177,"noteNumber":59,"velocity":98,"programNumber":41},{"time":337777.44000000355,"duration":444.4440000000177,"noteNumber":62,"velocity":98,"programNumber":41},{"time":338666.3280000036,"duration":444.4440000000177,"noteNumber":62,"velocity":103,"programNumber":41},{"time":338666.3280000036,"duration":444.4440000000177,"noteNumber":71,"velocity":103,"programNumber":41},{"time":338666.3280000036,"duration":444.4440000000177,"noteNumber":79,"velocity":103,"programNumber":41},{"time":339562.6234000036,"duration":370.36999999999534,"noteNumber":79,"velocity":103,"programNumber":41},{"time":339562.6234000036,"duration":370.36999999999534,"noteNumber":71,"velocity":103,"programNumber":41},{"time":339562.6234000036,"duration":370.36999999999534,"noteNumber":62,"velocity":103,"programNumber":41},{"time":340007.0674000036,"duration":222.22200000000885,"noteNumber":67,"velocity":103,"programNumber":41},{"time":340007.0674000036,"duration":222.22200000000885,"noteNumber":55,"velocity":103,"programNumber":41},{"time":340340.4004000036,"duration":55.555500000016764,"noteNumber":67,"velocity":103,"programNumber":41},{"time":340340.4004000036,"duration":55.555500000016764,"noteNumber":55,"velocity":103,"programNumber":41},{"time":340451.5114000036,"duration":444.4440000000177,"noteNumber":67,"velocity":103,"programNumber":41},{"time":340451.5114000036,"duration":444.4440000000177,"noteNumber":55,"velocity":103,"programNumber":41}],[{"time":0,"duration":444.444,"noteNumber":55,"velocity":85,"programNumber":69},{"time":666.666,"duration":111.11099999999999,"noteNumber":50,"velocity":85,"programNumber":69},{"time":888.888,"duration":444.4440000000001,"noteNumber":55,"velocity":85,"programNumber":69},{"time":1555.554,"duration":111.1110000000001,"noteNumber":50,"velocity":85,"programNumber":69},{"time":1777.7760000000003,"duration":111.1110000000001,"noteNumber":55,"velocity":85,"programNumber":69},{"time":1999.9980000000005,"duration":111.11099999999988,"noteNumber":50,"velocity":85,"programNumber":69},{"time":2222.2200000000003,"duration":111.11099999999988,"noteNumber":55,"velocity":85,"programNumber":69},{"time":2444.442,"duration":111.11099999999988,"noteNumber":59,"velocity":85,"programNumber":69},{"time":2666.6639999999998,"duration":444.44399999999996,"noteNumber":62,"velocity":85,"programNumber":69},{"time":3555.5519999999997,"duration":444.44399999999996,"noteNumber":60,"velocity":85,"programNumber":69},{"time":4222.218,"duration":111.11099999999988,"noteNumber":57,"velocity":85,"programNumber":69},{"time":4444.44,"duration":444.4440000000004,"noteNumber":60,"velocity":85,"programNumber":69},{"time":5111.106,"duration":111.11099999999988,"noteNumber":57,"velocity":85,"programNumber":69},{"time":5333.3279999999995,"duration":111.11099999999988,"noteNumber":60,"velocity":85,"programNumber":69},{"time":5555.549999999999,"duration":111.11099999999988,"noteNumber":57,"velocity":85,"programNumber":69},{"time":5777.771999999999,"duration":111.11099999999988,"noteNumber":54,"velocity":85,"programNumber":69},{"time":5999.993999999999,"duration":111.11099999999988,"noteNumber":57,"velocity":85,"programNumber":69},{"time":6222.2159999999985,"duration":444.4440000000004,"noteNumber":50,"velocity":85,"programNumber":69},{"time":7111.103999999999,"duration":166.66650000000027,"noteNumber":55,"velocity":85,"programNumber":69},{"time":7333.326,"duration":166.66650000000027,"noteNumber":55,"velocity":85,"programNumber":69},{"time":7555.548000000001,"duration":166.66650000000027,"noteNumber":55,"velocity":85,"programNumber":69},{"time":7777.770000000001,"duration":166.66650000000027,"noteNumber":55,"velocity":85,"programNumber":69},{"time":7999.992000000002,"duration":166.66650000000027,"noteNumber":55,"velocity":85,"programNumber":69},{"time":8222.214000000002,"duration":166.66649999999936,"noteNumber":55,"velocity":85,"programNumber":69},{"time":8444.436000000002,"duration":166.66649999999936,"noteNumber":55,"velocity":85,"programNumber":69},{"time":8666.658000000001,"duration":166.66649999999936,"noteNumber":55,"velocity":85,"programNumber":69},{"time":8888.880000000001,"duration":166.66649999999936,"noteNumber":55,"velocity":85,"programNumber":69},{"time":9111.102,"duration":166.66649999999936,"noteNumber":55,"velocity":85,"programNumber":69},{"time":9333.324,"duration":166.66649999999936,"noteNumber":55,"velocity":85,"programNumber":69},{"time":9555.546,"duration":166.66649999999936,"noteNumber":55,"velocity":85,"programNumber":69},{"time":9777.768,"duration":166.66649999999936,"noteNumber":55,"velocity":85,"programNumber":69},{"time":9999.99,"duration":166.66649999999936,"noteNumber":55,"velocity":85,"programNumber":69},{"time":10222.212,"duration":166.66649999999936,"noteNumber":55,"velocity":85,"programNumber":69},{"time":10444.434,"duration":166.66649999999936,"noteNumber":55,"velocity":85,"programNumber":69},{"time":10666.655999999999,"duration":166.66649999999936,"noteNumber":55,"velocity":85,"programNumber":69},{"time":10888.877999999999,"duration":166.66649999999936,"noteNumber":55,"velocity":85,"programNumber":69},{"time":11111.099999999999,"duration":166.66649999999936,"noteNumber":55,"velocity":85,"programNumber":69},{"time":11333.321999999998,"duration":166.66649999999936,"noteNumber":55,"velocity":85,"programNumber":69},{"time":11555.543999999998,"duration":166.66649999999936,"noteNumber":55,"velocity":85,"programNumber":69},{"time":11777.765999999998,"duration":166.66649999999936,"noteNumber":55,"velocity":85,"programNumber":69},{"time":11999.987999999998,"duration":166.66649999999936,"noteNumber":55,"velocity":85,"programNumber":69},{"time":12222.209999999997,"duration":166.66649999999936,"noteNumber":55,"velocity":85,"programNumber":69},{"time":12444.431999999997,"duration":166.66649999999936,"noteNumber":55,"velocity":85,"programNumber":69},{"time":12666.653999999997,"duration":166.66649999999936,"noteNumber":55,"velocity":85,"programNumber":69},{"time":12888.875999999997,"duration":166.66649999999936,"noteNumber":55,"velocity":85,"programNumber":69},{"time":13111.097999999996,"duration":166.66649999999936,"noteNumber":55,"velocity":85,"programNumber":69},{"time":13333.319999999996,"duration":166.66649999999936,"noteNumber":55,"velocity":85,"programNumber":69},{"time":13555.541999999996,"duration":166.66649999999936,"noteNumber":55,"velocity":85,"programNumber":69},{"time":13777.763999999996,"duration":166.66649999999936,"noteNumber":55,"velocity":85,"programNumber":69},{"time":13999.985999999995,"duration":166.66649999999936,"noteNumber":55,"velocity":85,"programNumber":69},{"time":14222.207999999995,"duration":166.66649999999936,"noteNumber":55,"velocity":85,"programNumber":69},{"time":14444.429999999995,"duration":166.66649999999936,"noteNumber":55,"velocity":85,"programNumber":69},{"time":14666.651999999995,"duration":166.66649999999936,"noteNumber":57,"velocity":85,"programNumber":69},{"time":14888.873999999994,"duration":166.66649999999936,"noteNumber":57,"velocity":85,"programNumber":69},{"time":15111.095999999994,"duration":166.66649999999936,"noteNumber":59,"velocity":85,"programNumber":69},{"time":15333.317999999994,"duration":166.66649999999936,"noteNumber":59,"velocity":85,"programNumber":69},{"time":15555.539999999994,"duration":166.66649999999936,"noteNumber":54,"velocity":85,"programNumber":69},{"time":15777.761999999993,"duration":166.66649999999936,"noteNumber":54,"velocity":85,"programNumber":69},{"time":15999.983999999993,"duration":166.66649999999936,"noteNumber":55,"velocity":85,"programNumber":69},{"time":16222.205999999993,"duration":166.66650000000118,"noteNumber":55,"velocity":85,"programNumber":69},{"time":16444.427999999993,"duration":166.66649999999936,"noteNumber":57,"velocity":85,"programNumber":69},{"time":16666.64999999999,"duration":166.66649999999936,"noteNumber":57,"velocity":85,"programNumber":69},{"time":16888.87199999999,"duration":444.4439999999995,"noteNumber":59,"velocity":85,"programNumber":69},{"time":19555.53599999999,"duration":888.887999999999,"noteNumber":50,"velocity":47,"programNumber":69},{"time":20444.423999999988,"duration":888.887999999999,"noteNumber":52,"velocity":47,"programNumber":69},{"time":21333.311999999987,"duration":333.3329999999987,"noteNumber":48,"velocity":47,"programNumber":69},{"time":21777.755999999987,"duration":333.3329999999987,"noteNumber":48,"velocity":47,"programNumber":69},{"time":22222.199999999986,"duration":333.3329999999987,"noteNumber":50,"velocity":47,"programNumber":69},{"time":22666.643999999986,"duration":333.3329999999987,"noteNumber":50,"velocity":47,"programNumber":69},{"time":23111.087999999985,"duration":222.22200000000157,"noteNumber":47,"velocity":47,"programNumber":69},{"time":23555.53199999999,"duration":222.22200000000157,"noteNumber":50,"velocity":47,"programNumber":69},{"time":23999.97599999999,"duration":444.4439999999995,"noteNumber":55,"velocity":47,"programNumber":69},{"time":26666.639999999992,"duration":888.887999999999,"noteNumber":50,"velocity":47,"programNumber":69},{"time":27555.52799999999,"duration":888.887999999999,"noteNumber":52,"velocity":47,"programNumber":69},{"time":28444.41599999999,"duration":333.3329999999987,"noteNumber":48,"velocity":47,"programNumber":69},{"time":28888.85999999999,"duration":333.3329999999987,"noteNumber":48,"velocity":47,"programNumber":69},{"time":29333.30399999999,"duration":333.3329999999987,"noteNumber":50,"velocity":47,"programNumber":69},{"time":29777.74799999999,"duration":333.3329999999987,"noteNumber":50,"velocity":47,"programNumber":69},{"time":30222.19199999999,"duration":166.66649999999936,"noteNumber":55,"velocity":91,"programNumber":69},{"time":30444.413999999986,"duration":166.66649999999936,"noteNumber":55,"velocity":83,"programNumber":69},{"time":30666.635999999984,"duration":166.66649999999936,"noteNumber":55,"velocity":83,"programNumber":69},{"time":30888.857999999982,"duration":166.66649999999936,"noteNumber":55,"velocity":83,"programNumber":69},{"time":31111.07999999998,"duration":166.66649999999936,"noteNumber":55,"velocity":59,"programNumber":69},{"time":31333.301999999978,"duration":166.66649999999936,"noteNumber":55,"velocity":59,"programNumber":69},{"time":31555.523999999976,"duration":166.66649999999936,"noteNumber":55,"velocity":59,"programNumber":69},{"time":31777.745999999974,"duration":166.66649999999936,"noteNumber":55,"velocity":59,"programNumber":69},{"time":31999.96799999997,"duration":166.66649999999936,"noteNumber":55,"velocity":92,"programNumber":69},{"time":32222.18999999997,"duration":166.66649999999936,"noteNumber":55,"velocity":79,"programNumber":69},{"time":32444.411999999968,"duration":166.66649999999936,"noteNumber":55,"velocity":79,"programNumber":69},{"time":32666.633999999965,"duration":166.666500000003,"noteNumber":55,"velocity":79,"programNumber":69},{"time":32888.85599999997,"duration":166.66649999999936,"noteNumber":55,"velocity":59,"programNumber":69},{"time":33111.07799999997,"duration":166.66649999999936,"noteNumber":55,"velocity":59,"programNumber":69},{"time":33333.299999999974,"duration":166.66649999999936,"noteNumber":55,"velocity":59,"programNumber":69},{"time":33555.521999999975,"duration":166.66649999999936,"noteNumber":55,"velocity":59,"programNumber":69},{"time":33777.74399999998,"duration":166.66649999999936,"noteNumber":55,"velocity":59,"programNumber":69},{"time":33999.96599999998,"duration":166.66649999999936,"noteNumber":55,"velocity":40,"programNumber":69},{"time":34222.18799999998,"duration":166.66649999999936,"noteNumber":55,"velocity":43,"programNumber":69},{"time":34444.40999999998,"duration":166.66649999999936,"noteNumber":55,"velocity":46,"programNumber":69},{"time":34666.63199999998,"duration":166.66649999999936,"noteNumber":55,"velocity":49,"programNumber":69},{"time":34888.853999999985,"duration":166.66649999999936,"noteNumber":55,"velocity":52,"programNumber":69},{"time":35111.07599999999,"duration":166.66649999999936,"noteNumber":55,"velocity":55,"programNumber":69},{"time":35333.29799999999,"duration":166.66649999999936,"noteNumber":55,"velocity":58,"programNumber":69},{"time":35555.51999999999,"duration":166.66649999999936,"noteNumber":55,"velocity":61,"programNumber":69},{"time":35777.74199999999,"duration":166.66649999999936,"noteNumber":55,"velocity":64,"programNumber":69},{"time":35999.96399999999,"duration":166.66649999999936,"noteNumber":54,"velocity":67,"programNumber":69},{"time":36222.185999999994,"duration":166.66649999999936,"noteNumber":54,"velocity":70,"programNumber":69},{"time":36444.407999999996,"duration":166.66649999999936,"noteNumber":55,"velocity":73,"programNumber":69},{"time":36666.63,"duration":166.66649999999936,"noteNumber":55,"velocity":76,"programNumber":69},{"time":36888.852,"duration":166.66649999999936,"noteNumber":52,"velocity":79,"programNumber":69},{"time":37111.074,"duration":166.66649999999936,"noteNumber":52,"velocity":82,"programNumber":69},{"time":37333.296,"duration":166.66649999999936,"noteNumber":50,"velocity":85,"programNumber":69},{"time":37555.518000000004,"duration":166.66649999999936,"noteNumber":50,"velocity":85,"programNumber":69},{"time":37777.740000000005,"duration":166.66649999999936,"noteNumber":50,"velocity":85,"programNumber":69},{"time":37999.96200000001,"duration":166.66649999999936,"noteNumber":50,"velocity":85,"programNumber":69},{"time":38222.18400000001,"duration":166.66649999999936,"noteNumber":50,"velocity":85,"programNumber":69},{"time":38444.40600000001,"duration":166.66649999999936,"noteNumber":50,"velocity":85,"programNumber":69},{"time":38666.62800000001,"duration":166.66649999999936,"noteNumber":50,"velocity":85,"programNumber":69},{"time":38888.85000000001,"duration":166.66649999999936,"noteNumber":50,"velocity":85,"programNumber":69},{"time":39111.072000000015,"duration":166.66649999999936,"noteNumber":50,"velocity":85,"programNumber":69},{"time":39333.294000000016,"duration":166.66649999999936,"noteNumber":50,"velocity":85,"programNumber":69},{"time":39555.51600000002,"duration":166.66649999999936,"noteNumber":50,"velocity":85,"programNumber":69},{"time":39777.73800000002,"duration":166.66649999999936,"noteNumber":50,"velocity":85,"programNumber":69},{"time":39999.96000000002,"duration":166.66649999999936,"noteNumber":50,"velocity":85,"programNumber":69},{"time":40222.18200000002,"duration":166.66649999999936,"noteNumber":50,"velocity":85,"programNumber":69},{"time":40444.404000000024,"duration":166.66649999999936,"noteNumber":50,"velocity":85,"programNumber":69},{"time":40666.626000000026,"duration":166.66649999999936,"noteNumber":50,"velocity":85,"programNumber":69},{"time":40888.84800000003,"duration":166.66649999999936,"noteNumber":50,"velocity":85,"programNumber":69},{"time":41111.07000000003,"duration":166.66649999999936,"noteNumber":52,"velocity":85,"programNumber":69},{"time":41333.29200000003,"duration":166.66649999999936,"noteNumber":54,"velocity":85,"programNumber":69},{"time":41555.51400000003,"duration":166.66649999999936,"noteNumber":52,"velocity":85,"programNumber":69},{"time":41777.73600000003,"duration":166.66649999999936,"noteNumber":50,"velocity":85,"programNumber":69},{"time":41999.958000000035,"duration":166.66649999999936,"noteNumber":52,"velocity":85,"programNumber":69},{"time":42222.18000000004,"duration":166.66649999999936,"noteNumber":54,"velocity":85,"programNumber":69},{"time":42444.40200000004,"duration":166.66649999999936,"noteNumber":50,"velocity":85,"programNumber":69},{"time":42666.62400000004,"duration":166.66649999999936,"noteNumber":55,"velocity":85,"programNumber":69},{"time":42888.84600000004,"duration":166.66649999999936,"noteNumber":57,"velocity":85,"programNumber":69},{"time":43111.06800000004,"duration":166.66649999999936,"noteNumber":59,"velocity":85,"programNumber":69},{"time":43333.290000000045,"duration":166.66649999999936,"noteNumber":57,"velocity":85,"programNumber":69},{"time":43555.512000000046,"duration":166.66649999999936,"noteNumber":55,"velocity":85,"programNumber":69},{"time":43777.73400000005,"duration":166.66649999999936,"noteNumber":57,"velocity":85,"programNumber":69},{"time":43999.95600000005,"duration":166.66649999999936,"noteNumber":59,"velocity":85,"programNumber":69},{"time":44222.17800000005,"duration":166.66649999999936,"noteNumber":56,"velocity":85,"programNumber":69},{"time":44444.40000000005,"duration":166.66649999999936,"noteNumber":57,"velocity":85,"programNumber":69},{"time":44666.622000000054,"duration":166.66649999999936,"noteNumber":57,"velocity":85,"programNumber":69},{"time":44888.844000000056,"duration":166.66649999999936,"noteNumber":57,"velocity":85,"programNumber":69},{"time":45111.06600000006,"duration":166.66649999999936,"noteNumber":57,"velocity":85,"programNumber":69},{"time":45333.28800000006,"duration":166.66649999999936,"noteNumber":57,"velocity":85,"programNumber":69},{"time":45555.51000000006,"duration":166.66649999999936,"noteNumber":57,"velocity":85,"programNumber":69},{"time":45777.73200000006,"duration":166.66649999999936,"noteNumber":57,"velocity":85,"programNumber":69},{"time":45999.95400000006,"duration":166.66649999999936,"noteNumber":57,"velocity":85,"programNumber":69},{"time":46222.176000000065,"duration":166.66649999999936,"noteNumber":57,"velocity":85,"programNumber":69},{"time":46444.39800000007,"duration":166.66649999999936,"noteNumber":45,"velocity":85,"programNumber":69},{"time":46666.62000000007,"duration":166.66649999999936,"noteNumber":45,"velocity":85,"programNumber":69},{"time":46888.84200000007,"duration":166.66649999999936,"noteNumber":45,"velocity":85,"programNumber":69},{"time":47111.06400000007,"duration":444.44400000000314,"noteNumber":45,"velocity":85,"programNumber":69},{"time":49333.28400000007,"duration":222.22200000000157,"noteNumber":51,"velocity":55,"programNumber":69},{"time":49777.728000000076,"duration":222.22200000000157,"noteNumber":52,"velocity":55,"programNumber":69},{"time":50222.17200000008,"duration":222.22200000000157,"noteNumber":50,"velocity":55,"programNumber":69},{"time":50666.61600000008,"duration":222.22200000000157,"noteNumber":49,"velocity":55,"programNumber":69},{"time":51111.060000000085,"duration":222.22200000000157,"noteNumber":45,"velocity":55,"programNumber":69},{"time":51999.948000000084,"duration":444.44400000000314,"noteNumber":46,"velocity":55,"programNumber":69},{"time":52444.39200000009,"duration":222.22200000000157,"noteNumber":47,"velocity":55,"programNumber":69},{"time":52888.83600000009,"duration":222.22200000000157,"noteNumber":43,"velocity":55,"programNumber":69},{"time":53333.28000000009,"duration":333.3329999999987,"noteNumber":45,"velocity":55,"programNumber":69},{"time":53777.72400000009,"duration":666.6659999999974,"noteNumber":57,"velocity":55,"programNumber":69},{"time":54444.39000000009,"duration":222.22200000000157,"noteNumber":56,"velocity":55,"programNumber":69},{"time":54666.61200000009,"duration":222.22200000000157,"noteNumber":55,"velocity":55,"programNumber":69},{"time":54888.83400000009,"duration":222.22200000000157,"noteNumber":52,"velocity":55,"programNumber":69},{"time":55111.05600000009,"duration":222.22200000000157,"noteNumber":50,"velocity":55,"programNumber":69},{"time":55555.500000000095,"duration":222.22200000000157,"noteNumber":52,"velocity":55,"programNumber":69},{"time":55999.9440000001,"duration":222.22200000000157,"noteNumber":54,"velocity":55,"programNumber":69},{"time":56444.3880000001,"duration":222.22200000000157,"noteNumber":51,"velocity":55,"programNumber":69},{"time":56888.832000000104,"duration":222.22200000000157,"noteNumber":52,"velocity":55,"programNumber":69},{"time":57333.27600000011,"duration":222.22200000000157,"noteNumber":50,"velocity":55,"programNumber":69},{"time":57777.72000000011,"duration":222.22200000000157,"noteNumber":49,"velocity":55,"programNumber":69},{"time":58222.16400000011,"duration":222.22200000000157,"noteNumber":45,"velocity":55,"programNumber":69},{"time":58666.60800000012,"duration":222.22200000000157,"noteNumber":47,"velocity":55,"programNumber":69},{"time":59111.05200000012,"duration":222.22200000000157,"noteNumber":55,"velocity":55,"programNumber":69},{"time":59555.49600000012,"duration":222.22200000000157,"noteNumber":57,"velocity":55,"programNumber":69},{"time":59999.940000000126,"duration":222.22200000000157,"noteNumber":45,"velocity":55,"programNumber":69},{"time":60444.38400000013,"duration":444.44400000000314,"noteNumber":50,"velocity":55,"programNumber":69},{"time":62222.160000000134,"duration":444.44400000000314,"noteNumber":45,"velocity":55,"programNumber":69},{"time":63999.93600000014,"duration":444.44400000000314,"noteNumber":50,"velocity":55,"programNumber":69},{"time":65777.71200000015,"duration":444.44400000000314,"noteNumber":45,"velocity":55,"programNumber":69},{"time":67777.71000000015,"duration":166.66650000000664,"noteNumber":50,"velocity":55,"programNumber":69},{"time":67999.93200000016,"duration":166.66650000000664,"noteNumber":54,"velocity":55,"programNumber":69},{"time":68222.15400000017,"duration":166.66650000000664,"noteNumber":52,"velocity":55,"programNumber":69},{"time":68444.37600000018,"duration":166.66650000000664,"noteNumber":51,"velocity":55,"programNumber":69},{"time":68666.59800000019,"duration":166.66650000000664,"noteNumber":47,"velocity":55,"programNumber":69},{"time":68888.8200000002,"duration":166.66650000000664,"noteNumber":49,"velocity":55,"programNumber":69},{"time":69111.0420000002,"duration":166.66650000000664,"noteNumber":50,"velocity":55,"programNumber":69},{"time":69333.26400000021,"duration":166.66650000000664,"noteNumber":52,"velocity":85,"programNumber":69},{"time":69555.48600000022,"duration":166.66650000000664,"noteNumber":55,"velocity":85,"programNumber":69},{"time":69777.70800000023,"duration":166.66650000000664,"noteNumber":52,"velocity":85,"programNumber":69},{"time":69999.93000000024,"duration":166.66650000000664,"noteNumber":50,"velocity":85,"programNumber":69},{"time":70222.15200000025,"duration":166.66650000000664,"noteNumber":49,"velocity":85,"programNumber":69},{"time":70444.37400000026,"duration":166.66650000000664,"noteNumber":45,"velocity":85,"programNumber":69},{"time":70666.59600000027,"duration":166.66650000000664,"noteNumber":47,"velocity":85,"programNumber":69},{"time":70888.81800000028,"duration":166.66650000000664,"noteNumber":49,"velocity":85,"programNumber":69},{"time":71111.04000000028,"duration":166.66650000000664,"noteNumber":50,"velocity":85,"programNumber":69},{"time":71333.2620000003,"duration":166.66650000000664,"noteNumber":50,"velocity":85,"programNumber":69},{"time":71555.4840000003,"duration":166.66650000000664,"noteNumber":52,"velocity":85,"programNumber":69},{"time":71777.70600000031,"duration":166.66650000000664,"noteNumber":54,"velocity":85,"programNumber":69},{"time":71999.92800000032,"duration":166.66650000000664,"noteNumber":55,"velocity":85,"programNumber":69},{"time":72222.15000000033,"duration":166.66650000000664,"noteNumber":55,"velocity":85,"programNumber":69},{"time":72444.37200000034,"duration":166.66650000000664,"noteNumber":55,"velocity":85,"programNumber":69},{"time":72666.59400000035,"duration":166.66650000000664,"noteNumber":55,"velocity":85,"programNumber":69},{"time":72888.81600000036,"duration":166.66650000000664,"noteNumber":57,"velocity":85,"programNumber":69},{"time":73111.03800000036,"duration":166.66650000000664,"noteNumber":57,"velocity":85,"programNumber":69},{"time":73333.26000000037,"duration":166.66650000000664,"noteNumber":57,"velocity":85,"programNumber":69},{"time":73555.48200000038,"duration":166.66650000000664,"noteNumber":57,"velocity":85,"programNumber":69},{"time":73777.70400000039,"duration":166.66650000000664,"noteNumber":45,"velocity":85,"programNumber":69},{"time":73999.9260000004,"duration":166.66650000000664,"noteNumber":45,"velocity":85,"programNumber":69},{"time":74222.14800000041,"duration":166.66650000000664,"noteNumber":45,"velocity":85,"programNumber":69},{"time":74444.37000000042,"duration":166.66650000000664,"noteNumber":45,"velocity":85,"programNumber":69},{"time":74666.59200000043,"duration":444.44400000000314,"noteNumber":50,"velocity":85,"programNumber":69},{"time":76444.36800000042,"duration":444.44400000000314,"noteNumber":45,"velocity":55,"programNumber":69},{"time":78222.14400000042,"duration":444.44400000000314,"noteNumber":50,"velocity":55,"programNumber":69},{"time":79999.92000000042,"duration":444.44400000000314,"noteNumber":45,"velocity":55,"programNumber":69},{"time":81999.91800000043,"duration":166.66650000000664,"noteNumber":50,"velocity":85,"programNumber":69},{"time":82222.14000000044,"duration":166.66650000000664,"noteNumber":54,"velocity":85,"programNumber":69},{"time":82444.36200000044,"duration":166.66650000000664,"noteNumber":52,"velocity":85,"programNumber":69},{"time":82666.58400000045,"duration":166.66650000000664,"noteNumber":51,"velocity":85,"programNumber":69},{"time":82888.80600000046,"duration":166.66650000000664,"noteNumber":47,"velocity":85,"programNumber":69},{"time":83111.02800000047,"duration":166.66650000000664,"noteNumber":49,"velocity":85,"programNumber":69},{"time":83333.25000000048,"duration":166.66650000000664,"noteNumber":50,"velocity":85,"programNumber":69},{"time":83555.47200000049,"duration":166.66650000000664,"noteNumber":52,"velocity":85,"programNumber":69},{"time":83777.6940000005,"duration":166.66650000000664,"noteNumber":55,"velocity":85,"programNumber":69},{"time":83999.9160000005,"duration":166.66650000000664,"noteNumber":52,"velocity":85,"programNumber":69},{"time":84222.13800000052,"duration":166.66650000000664,"noteNumber":50,"velocity":85,"programNumber":69},{"time":84444.36000000052,"duration":166.66650000000664,"noteNumber":49,"velocity":85,"programNumber":69},{"time":84666.58200000053,"duration":166.66650000000664,"noteNumber":45,"velocity":85,"programNumber":69},{"time":84888.80400000054,"duration":166.66650000000664,"noteNumber":47,"velocity":85,"programNumber":69},{"time":85111.02600000055,"duration":166.66650000000664,"noteNumber":49,"velocity":85,"programNumber":69},{"time":85333.24800000056,"duration":166.66650000000664,"noteNumber":50,"velocity":85,"programNumber":69},{"time":85555.47000000057,"duration":166.66650000000664,"noteNumber":50,"velocity":85,"programNumber":69},{"time":85777.69200000058,"duration":166.66650000000664,"noteNumber":52,"velocity":85,"programNumber":69},{"time":85999.91400000059,"duration":166.66650000000664,"noteNumber":54,"velocity":85,"programNumber":69},{"time":86222.1360000006,"duration":166.66650000000664,"noteNumber":55,"velocity":85,"programNumber":69},{"time":86444.3580000006,"duration":166.66650000000664,"noteNumber":55,"velocity":85,"programNumber":69},{"time":86666.58000000061,"duration":166.66650000000664,"noteNumber":55,"velocity":85,"programNumber":69},{"time":86888.80200000062,"duration":166.66650000000664,"noteNumber":55,"velocity":85,"programNumber":69},{"time":87111.02400000063,"duration":166.66650000000664,"noteNumber":57,"velocity":85,"programNumber":69},{"time":87333.24600000064,"duration":166.66650000000664,"noteNumber":57,"velocity":85,"programNumber":69},{"time":87555.46800000065,"duration":166.66650000000664,"noteNumber":57,"velocity":85,"programNumber":69},{"time":87777.69000000066,"duration":166.66650000000664,"noteNumber":57,"velocity":85,"programNumber":69},{"time":87999.91200000067,"duration":166.66650000000664,"noteNumber":45,"velocity":85,"programNumber":69},{"time":88222.13400000067,"duration":166.66650000000664,"noteNumber":45,"velocity":85,"programNumber":69},{"time":88444.35600000068,"duration":166.66650000000664,"noteNumber":45,"velocity":85,"programNumber":69},{"time":88666.57800000069,"duration":166.66650000000664,"noteNumber":45,"velocity":85,"programNumber":69},{"time":88888.8000000007,"duration":166.66650000000664,"noteNumber":50,"velocity":85,"programNumber":69},{"time":89111.02200000071,"duration":166.66650000000664,"noteNumber":45,"velocity":85,"programNumber":69},{"time":89333.24400000072,"duration":166.66650000000664,"noteNumber":47,"velocity":85,"programNumber":69},{"time":89555.46600000073,"duration":166.66650000000664,"noteNumber":49,"velocity":85,"programNumber":69},{"time":89777.68800000074,"duration":166.66650000000664,"noteNumber":50,"velocity":85,"programNumber":69},{"time":89999.91000000075,"duration":166.66650000000664,"noteNumber":50,"velocity":85,"programNumber":69},{"time":90222.13200000075,"duration":166.66650000000664,"noteNumber":52,"velocity":85,"programNumber":69},{"time":90444.35400000076,"duration":166.66650000000664,"noteNumber":52,"velocity":85,"programNumber":69},{"time":90666.57600000077,"duration":166.66650000000664,"noteNumber":54,"velocity":85,"programNumber":69},{"time":90888.79800000078,"duration":166.66650000000664,"noteNumber":49,"velocity":85,"programNumber":69},{"time":91111.02000000079,"duration":166.66650000000664,"noteNumber":50,"velocity":85,"programNumber":69},{"time":91333.2420000008,"duration":166.66650000000664,"noteNumber":52,"velocity":85,"programNumber":69},{"time":91555.46400000081,"duration":166.66650000000664,"noteNumber":54,"velocity":85,"programNumber":69},{"time":91777.68600000082,"duration":166.66650000000664,"noteNumber":54,"velocity":85,"programNumber":69},{"time":91999.90800000083,"duration":166.66650000000664,"noteNumber":55,"velocity":85,"programNumber":69},{"time":92222.13000000083,"duration":166.66650000000664,"noteNumber":55,"velocity":85,"programNumber":69},{"time":92444.35200000084,"duration":166.66650000000664,"noteNumber":57,"velocity":85,"programNumber":69},{"time":92666.57400000085,"duration":166.66650000000664,"noteNumber":57,"velocity":85,"programNumber":69},{"time":92888.79600000086,"duration":166.66650000000664,"noteNumber":58,"velocity":85,"programNumber":69},{"time":93111.01800000087,"duration":166.66650000000664,"noteNumber":58,"velocity":85,"programNumber":69},{"time":93333.24000000088,"duration":444.44400000000314,"noteNumber":59,"velocity":85,"programNumber":69},{"time":94222.12800000088,"duration":888.8880000000063,"noteNumber":55,"velocity":55,"programNumber":69},{"time":95111.01600000089,"duration":888.8880000000063,"noteNumber":57,"velocity":55,"programNumber":69},{"time":95999.9040000009,"duration":222.2219999999943,"noteNumber":50,"velocity":55,"programNumber":69},{"time":96444.34800000089,"duration":222.2219999999943,"noteNumber":50,"velocity":55,"programNumber":69},{"time":96888.79200000087,"duration":222.2219999999943,"noteNumber":50,"velocity":55,"programNumber":69},{"time":97777.68000000087,"duration":444.44400000000314,"noteNumber":55,"velocity":85,"programNumber":69},{"time":98444.34600000086,"duration":111.11100000000442,"noteNumber":50,"velocity":85,"programNumber":69},{"time":98666.56800000087,"duration":444.44400000000314,"noteNumber":55,"velocity":85,"programNumber":69},{"time":99333.23400000087,"duration":111.11100000000442,"noteNumber":50,"velocity":85,"programNumber":69},{"time":99555.45600000088,"duration":111.11100000000442,"noteNumber":55,"velocity":85,"programNumber":69},{"time":99777.67800000089,"duration":111.11100000000442,"noteNumber":50,"velocity":85,"programNumber":69},{"time":99999.9000000009,"duration":111.11100000000442,"noteNumber":55,"velocity":85,"programNumber":69},{"time":100222.1220000009,"duration":111.11100000000442,"noteNumber":59,"velocity":85,"programNumber":69},{"time":100444.34400000091,"duration":444.44400000000314,"noteNumber":62,"velocity":85,"programNumber":69},{"time":101333.23200000092,"duration":444.44400000000314,"noteNumber":60,"velocity":85,"programNumber":69},{"time":101999.89800000092,"duration":111.11100000000442,"noteNumber":57,"velocity":85,"programNumber":69},{"time":102222.12000000093,"duration":444.44400000000314,"noteNumber":60,"velocity":85,"programNumber":69},{"time":102888.78600000092,"duration":111.11100000000442,"noteNumber":57,"velocity":85,"programNumber":69},{"time":103111.00800000093,"duration":111.11100000000442,"noteNumber":60,"velocity":85,"programNumber":69},{"time":103333.23000000094,"duration":111.11100000000442,"noteNumber":57,"velocity":85,"programNumber":69},{"time":103555.45200000095,"duration":111.11100000000442,"noteNumber":54,"velocity":85,"programNumber":69},{"time":103777.67400000096,"duration":111.11100000000442,"noteNumber":57,"velocity":85,"programNumber":69},{"time":103999.89600000097,"duration":444.44400000000314,"noteNumber":50,"velocity":85,"programNumber":69},{"time":104888.78400000097,"duration":166.66650000000664,"noteNumber":55,"velocity":85,"programNumber":69},{"time":105111.00600000098,"duration":166.66650000000664,"noteNumber":55,"velocity":85,"programNumber":69},{"time":105333.22800000099,"duration":166.66650000000664,"noteNumber":55,"velocity":85,"programNumber":69},{"time":105555.450000001,"duration":166.66650000000664,"noteNumber":55,"velocity":85,"programNumber":69},{"time":105777.67200000101,"duration":166.66650000000664,"noteNumber":55,"velocity":85,"programNumber":69},{"time":105999.89400000102,"duration":166.66650000000664,"noteNumber":55,"velocity":85,"programNumber":69},{"time":106222.11600000103,"duration":166.66650000000664,"noteNumber":55,"velocity":85,"programNumber":69},{"time":106444.33800000104,"duration":166.66650000000664,"noteNumber":55,"velocity":85,"programNumber":69},{"time":106666.56000000105,"duration":166.66650000000664,"noteNumber":55,"velocity":85,"programNumber":69},{"time":106888.78200000105,"duration":166.66650000000664,"noteNumber":55,"velocity":85,"programNumber":69},{"time":107111.00400000106,"duration":166.66650000000664,"noteNumber":55,"velocity":85,"programNumber":69},{"time":107333.22600000107,"duration":166.66650000000664,"noteNumber":55,"velocity":85,"programNumber":69},{"time":107555.44800000108,"duration":166.66650000000664,"noteNumber":55,"velocity":85,"programNumber":69},{"time":107777.67000000109,"duration":166.66650000000664,"noteNumber":55,"velocity":85,"programNumber":69},{"time":107999.8920000011,"duration":166.66650000000664,"noteNumber":55,"velocity":85,"programNumber":69},{"time":108222.11400000111,"duration":166.66650000000664,"noteNumber":55,"velocity":85,"programNumber":69},{"time":108444.33600000112,"duration":166.66650000000664,"noteNumber":55,"velocity":85,"programNumber":69},{"time":108666.55800000113,"duration":166.66650000000664,"noteNumber":55,"velocity":85,"programNumber":69},{"time":108888.78000000113,"duration":166.66650000000664,"noteNumber":55,"velocity":85,"programNumber":69},{"time":109111.00200000114,"duration":166.66650000000664,"noteNumber":55,"velocity":85,"programNumber":69},{"time":109333.22400000115,"duration":166.66650000000664,"noteNumber":55,"velocity":85,"programNumber":69},{"time":109555.44600000116,"duration":166.66650000000664,"noteNumber":55,"velocity":85,"programNumber":69},{"time":109777.66800000117,"duration":166.66650000000664,"noteNumber":55,"velocity":85,"programNumber":69},{"time":109999.89000000118,"duration":166.66650000000664,"noteNumber":55,"velocity":85,"programNumber":69},{"time":110222.11200000119,"duration":166.66650000000664,"noteNumber":55,"velocity":85,"programNumber":69},{"time":110444.3340000012,"duration":166.66650000000664,"noteNumber":55,"velocity":85,"programNumber":69},{"time":110666.5560000012,"duration":166.66650000000664,"noteNumber":55,"velocity":85,"programNumber":69},{"time":110888.77800000121,"duration":166.66650000000664,"noteNumber":55,"velocity":85,"programNumber":69},{"time":111111.00000000122,"duration":166.66650000000664,"noteNumber":55,"velocity":85,"programNumber":69},{"time":111333.22200000123,"duration":166.66650000000664,"noteNumber":55,"velocity":85,"programNumber":69},{"time":111555.44400000124,"duration":166.66650000000664,"noteNumber":55,"velocity":85,"programNumber":69},{"time":111777.66600000125,"duration":166.66650000000664,"noteNumber":55,"velocity":85,"programNumber":69},{"time":111999.88800000126,"duration":166.66650000000664,"noteNumber":55,"velocity":85,"programNumber":69},{"time":112222.11000000127,"duration":166.66650000000664,"noteNumber":55,"velocity":85,"programNumber":69},{"time":112444.33200000128,"duration":166.66650000000664,"noteNumber":57,"velocity":85,"programNumber":69},{"time":112666.55400000128,"duration":166.66650000000664,"noteNumber":57,"velocity":85,"programNumber":69},{"time":112888.7760000013,"duration":166.66650000000664,"noteNumber":59,"velocity":85,"programNumber":69},{"time":113110.9980000013,"duration":166.66650000000664,"noteNumber":59,"velocity":85,"programNumber":69},{"time":113333.22000000131,"duration":166.66650000000664,"noteNumber":54,"velocity":85,"programNumber":69},{"time":113555.44200000132,"duration":166.66650000000664,"noteNumber":54,"velocity":85,"programNumber":69},{"time":113777.66400000133,"duration":166.66650000000664,"noteNumber":55,"velocity":85,"programNumber":69},{"time":113999.88600000134,"duration":166.66650000000664,"noteNumber":55,"velocity":85,"programNumber":69},{"time":114222.10800000135,"duration":166.66650000000664,"noteNumber":57,"velocity":85,"programNumber":69},{"time":114444.33000000136,"duration":166.66650000000664,"noteNumber":57,"velocity":85,"programNumber":69},{"time":114666.55200000136,"duration":444.44400000000314,"noteNumber":59,"velocity":85,"programNumber":69},{"time":117333.21600000137,"duration":888.8880000000063,"noteNumber":50,"velocity":47,"programNumber":69},{"time":118222.10400000137,"duration":888.8880000000063,"noteNumber":52,"velocity":47,"programNumber":69},{"time":119110.99200000138,"duration":333.3329999999987,"noteNumber":48,"velocity":47,"programNumber":69},{"time":119555.43600000138,"duration":333.3329999999987,"noteNumber":48,"velocity":47,"programNumber":69},{"time":119999.88000000139,"duration":333.3329999999987,"noteNumber":50,"velocity":47,"programNumber":69},{"time":120444.32400000139,"duration":333.3329999999987,"noteNumber":50,"velocity":47,"programNumber":69},{"time":120888.7680000014,"duration":222.2219999999943,"noteNumber":47,"velocity":47,"programNumber":69},{"time":121333.21200000138,"duration":222.2219999999943,"noteNumber":50,"velocity":47,"programNumber":69},{"time":121777.65600000137,"duration":444.44400000000314,"noteNumber":55,"velocity":47,"programNumber":69},{"time":124444.32000000137,"duration":888.8880000000063,"noteNumber":50,"velocity":47,"programNumber":69},{"time":125333.20800000138,"duration":888.8880000000063,"noteNumber":52,"velocity":47,"programNumber":69},{"time":126222.09600000139,"duration":333.3329999999987,"noteNumber":48,"velocity":47,"programNumber":69},{"time":126666.54000000139,"duration":333.3329999999987,"noteNumber":48,"velocity":47,"programNumber":69},{"time":127110.9840000014,"duration":333.3329999999987,"noteNumber":50,"velocity":47,"programNumber":69},{"time":127555.4280000014,"duration":333.3329999999987,"noteNumber":50,"velocity":47,"programNumber":69},{"time":127999.8720000014,"duration":166.66650000000664,"noteNumber":55,"velocity":91,"programNumber":69},{"time":128222.09400000141,"duration":166.66650000000664,"noteNumber":55,"velocity":83,"programNumber":69},{"time":128444.31600000142,"duration":166.66650000000664,"noteNumber":55,"velocity":83,"programNumber":69},{"time":128666.53800000143,"duration":166.66650000000664,"noteNumber":55,"velocity":83,"programNumber":69},{"time":128888.76000000144,"duration":166.66650000000664,"noteNumber":55,"velocity":59,"programNumber":69},{"time":129110.98200000144,"duration":166.66650000000664,"noteNumber":55,"velocity":59,"programNumber":69},{"time":129333.20400000145,"duration":166.66650000000664,"noteNumber":55,"velocity":59,"programNumber":69},{"time":129555.42600000146,"duration":166.66650000000664,"noteNumber":55,"velocity":59,"programNumber":69},{"time":129777.64800000147,"duration":166.66650000000664,"noteNumber":55,"velocity":92,"programNumber":69},{"time":129999.87000000148,"duration":166.66650000000664,"noteNumber":55,"velocity":79,"programNumber":69},{"time":130222.09200000149,"duration":166.66650000000664,"noteNumber":55,"velocity":79,"programNumber":69},{"time":130444.3140000015,"duration":166.66650000000664,"noteNumber":55,"velocity":79,"programNumber":69},{"time":130666.5360000015,"duration":166.66650000000664,"noteNumber":55,"velocity":59,"programNumber":69},{"time":130888.75800000152,"duration":166.66650000000664,"noteNumber":55,"velocity":59,"programNumber":69},{"time":131110.98000000152,"duration":166.66649999999208,"noteNumber":55,"velocity":59,"programNumber":69},{"time":131333.2020000015,"duration":166.66649999999208,"noteNumber":55,"velocity":59,"programNumber":69},{"time":131555.42400000148,"duration":166.66649999999208,"noteNumber":55,"velocity":59,"programNumber":69},{"time":131777.64600000146,"duration":166.66649999999208,"noteNumber":55,"velocity":40,"programNumber":69},{"time":131999.86800000144,"duration":166.66649999999208,"noteNumber":55,"velocity":43,"programNumber":69},{"time":132222.09000000142,"duration":166.66649999999208,"noteNumber":55,"velocity":46,"programNumber":69},{"time":132444.3120000014,"duration":166.66649999999208,"noteNumber":55,"velocity":49,"programNumber":69},{"time":132666.53400000138,"duration":166.66649999999208,"noteNumber":55,"velocity":52,"programNumber":69},{"time":132888.75600000136,"duration":166.66649999999208,"noteNumber":55,"velocity":55,"programNumber":69},{"time":133110.97800000134,"duration":166.66649999999208,"noteNumber":55,"velocity":58,"programNumber":69},{"time":133333.20000000132,"duration":166.66649999999208,"noteNumber":55,"velocity":61,"programNumber":69},{"time":133555.4220000013,"duration":166.66649999999208,"noteNumber":55,"velocity":64,"programNumber":69},{"time":133777.64400000128,"duration":166.66649999999208,"noteNumber":54,"velocity":67,"programNumber":69},{"time":133999.86600000126,"duration":166.66649999999208,"noteNumber":54,"velocity":70,"programNumber":69},{"time":134222.08800000124,"duration":166.66649999999208,"noteNumber":55,"velocity":73,"programNumber":69},{"time":134444.31000000122,"duration":166.66649999999208,"noteNumber":55,"velocity":76,"programNumber":69},{"time":134666.5320000012,"duration":166.66649999999208,"noteNumber":52,"velocity":79,"programNumber":69},{"time":134888.75400000118,"duration":166.66649999999208,"noteNumber":52,"velocity":82,"programNumber":69},{"time":135110.97600000116,"duration":166.66649999999208,"noteNumber":50,"velocity":85,"programNumber":69},{"time":135333.19800000114,"duration":166.66649999999208,"noteNumber":50,"velocity":85,"programNumber":69},{"time":135555.42000000112,"duration":166.66649999999208,"noteNumber":50,"velocity":85,"programNumber":69},{"time":135777.6420000011,"duration":166.66649999999208,"noteNumber":50,"velocity":85,"programNumber":69},{"time":135999.86400000108,"duration":166.66649999999208,"noteNumber":50,"velocity":85,"programNumber":69},{"time":136222.08600000106,"duration":166.66649999999208,"noteNumber":50,"velocity":85,"programNumber":69},{"time":136444.30800000104,"duration":166.66649999999208,"noteNumber":50,"velocity":85,"programNumber":69},{"time":136666.53000000102,"duration":166.66649999999208,"noteNumber":50,"velocity":85,"programNumber":69},{"time":136888.752000001,"duration":166.66649999999208,"noteNumber":50,"velocity":85,"programNumber":69},{"time":137110.97400000098,"duration":166.66649999999208,"noteNumber":50,"velocity":85,"programNumber":69},{"time":137333.19600000096,"duration":166.66649999999208,"noteNumber":50,"velocity":85,"programNumber":69},{"time":137555.41800000094,"duration":166.66649999999208,"noteNumber":50,"velocity":85,"programNumber":69},{"time":137777.64000000092,"duration":166.66649999999208,"noteNumber":50,"velocity":85,"programNumber":69},{"time":137999.8620000009,"duration":166.66649999999208,"noteNumber":50,"velocity":85,"programNumber":69},{"time":138222.08400000088,"duration":166.66649999999208,"noteNumber":50,"velocity":85,"programNumber":69},{"time":138444.30600000086,"duration":166.66649999999208,"noteNumber":50,"velocity":85,"programNumber":69},{"time":138666.52800000084,"duration":166.66649999999208,"noteNumber":50,"velocity":85,"programNumber":69},{"time":138888.75000000081,"duration":166.66649999999208,"noteNumber":52,"velocity":85,"programNumber":69},{"time":139110.9720000008,"duration":166.66649999999208,"noteNumber":54,"velocity":85,"programNumber":69},{"time":139333.19400000077,"duration":166.66649999999208,"noteNumber":52,"velocity":85,"programNumber":69},{"time":139555.41600000075,"duration":166.66649999999208,"noteNumber":50,"velocity":85,"programNumber":69},{"time":139777.63800000073,"duration":166.66649999999208,"noteNumber":52,"velocity":85,"programNumber":69},{"time":139999.8600000007,"duration":166.66649999999208,"noteNumber":54,"velocity":85,"programNumber":69},{"time":140222.0820000007,"duration":166.66649999999208,"noteNumber":50,"velocity":85,"programNumber":69},{"time":140444.30400000067,"duration":166.66649999999208,"noteNumber":55,"velocity":85,"programNumber":69},{"time":140666.52600000065,"duration":166.66649999999208,"noteNumber":57,"velocity":85,"programNumber":69},{"time":140888.74800000063,"duration":166.66649999999208,"noteNumber":59,"velocity":85,"programNumber":69},{"time":141110.9700000006,"duration":166.66649999999208,"noteNumber":57,"velocity":85,"programNumber":69},{"time":141333.1920000006,"duration":166.66649999999208,"noteNumber":55,"velocity":85,"programNumber":69},{"time":141555.41400000057,"duration":166.66649999999208,"noteNumber":57,"velocity":85,"programNumber":69},{"time":141777.63600000055,"duration":166.66649999999208,"noteNumber":59,"velocity":85,"programNumber":69},{"time":141999.85800000053,"duration":166.66649999999208,"noteNumber":56,"velocity":85,"programNumber":69},{"time":142222.0800000005,"duration":166.66649999999208,"noteNumber":57,"velocity":85,"programNumber":69},{"time":142444.3020000005,"duration":166.66649999999208,"noteNumber":57,"velocity":85,"programNumber":69},{"time":142666.52400000047,"duration":166.66649999999208,"noteNumber":57,"velocity":85,"programNumber":69},{"time":142888.74600000045,"duration":166.66649999999208,"noteNumber":57,"velocity":85,"programNumber":69},{"time":143110.96800000043,"duration":166.66649999999208,"noteNumber":57,"velocity":85,"programNumber":69},{"time":143333.1900000004,"duration":166.66649999999208,"noteNumber":57,"velocity":85,"programNumber":69},{"time":143555.4120000004,"duration":166.66649999999208,"noteNumber":57,"velocity":85,"programNumber":69},{"time":143777.63400000037,"duration":166.66649999999208,"noteNumber":57,"velocity":85,"programNumber":69},{"time":143999.85600000035,"duration":166.66649999999208,"noteNumber":57,"velocity":85,"programNumber":69},{"time":144222.07800000033,"duration":166.66649999999208,"noteNumber":45,"velocity":85,"programNumber":69},{"time":144444.3000000003,"duration":166.66649999999208,"noteNumber":45,"velocity":85,"programNumber":69},{"time":144666.5220000003,"duration":166.66649999999208,"noteNumber":45,"velocity":85,"programNumber":69},{"time":144888.74400000027,"duration":444.4439999999886,"noteNumber":45,"velocity":85,"programNumber":69},{"time":147110.96400000027,"duration":222.22200000000885,"noteNumber":51,"velocity":55,"programNumber":69},{"time":147555.4080000003,"duration":222.22200000000885,"noteNumber":52,"velocity":55,"programNumber":69},{"time":147999.8520000003,"duration":222.22200000000885,"noteNumber":50,"velocity":55,"programNumber":69},{"time":148444.29600000032,"duration":222.22200000000885,"noteNumber":49,"velocity":55,"programNumber":69},{"time":148888.74000000034,"duration":222.22200000000885,"noteNumber":45,"velocity":55,"programNumber":69},{"time":149777.62800000035,"duration":444.4439999999886,"noteNumber":46,"velocity":55,"programNumber":69},{"time":150222.07200000033,"duration":222.22200000000885,"noteNumber":47,"velocity":55,"programNumber":69},{"time":150666.51600000035,"duration":222.22200000000885,"noteNumber":43,"velocity":55,"programNumber":69},{"time":151110.96000000037,"duration":333.33300000001327,"noteNumber":45,"velocity":55,"programNumber":69},{"time":151555.4040000004,"duration":666.6659999999974,"noteNumber":57,"velocity":55,"programNumber":69},{"time":152222.07000000039,"duration":222.22200000000885,"noteNumber":56,"velocity":55,"programNumber":69},{"time":152444.2920000004,"duration":222.22200000000885,"noteNumber":55,"velocity":55,"programNumber":69},{"time":152666.5140000004,"duration":222.22200000000885,"noteNumber":52,"velocity":55,"programNumber":69},{"time":152888.7360000004,"duration":222.22200000000885,"noteNumber":50,"velocity":55,"programNumber":69},{"time":153333.18000000043,"duration":222.22200000000885,"noteNumber":52,"velocity":55,"programNumber":69},{"time":153777.62400000045,"duration":222.22200000000885,"noteNumber":54,"velocity":55,"programNumber":69},{"time":154222.06800000046,"duration":222.22200000000885,"noteNumber":51,"velocity":55,"programNumber":69},{"time":154666.51200000048,"duration":222.22200000000885,"noteNumber":52,"velocity":55,"programNumber":69},{"time":155110.9560000005,"duration":222.22200000000885,"noteNumber":50,"velocity":55,"programNumber":69},{"time":155555.40000000052,"duration":222.22200000000885,"noteNumber":49,"velocity":55,"programNumber":69},{"time":155999.84400000054,"duration":222.22200000000885,"noteNumber":45,"velocity":55,"programNumber":69},{"time":156444.28800000055,"duration":222.22200000000885,"noteNumber":47,"velocity":55,"programNumber":69},{"time":156888.73200000057,"duration":222.22200000000885,"noteNumber":55,"velocity":55,"programNumber":69},{"time":157333.1760000006,"duration":222.22200000000885,"noteNumber":57,"velocity":55,"programNumber":69},{"time":157777.6200000006,"duration":222.22200000000885,"noteNumber":45,"velocity":55,"programNumber":69},{"time":158222.06400000062,"duration":444.4439999999886,"noteNumber":50,"velocity":55,"programNumber":69},{"time":159999.8400000006,"duration":444.4439999999886,"noteNumber":45,"velocity":55,"programNumber":69},{"time":161777.6160000006,"duration":444.4439999999886,"noteNumber":50,"velocity":55,"programNumber":69},{"time":163555.39200000057,"duration":444.4439999999886,"noteNumber":45,"velocity":55,"programNumber":69},{"time":165555.39000000057,"duration":166.66649999999208,"noteNumber":50,"velocity":55,"programNumber":69},{"time":165777.61200000055,"duration":166.66649999999208,"noteNumber":54,"velocity":55,"programNumber":69},{"time":165999.83400000053,"duration":166.66649999999208,"noteNumber":52,"velocity":55,"programNumber":69},{"time":166222.0560000005,"duration":166.66649999999208,"noteNumber":51,"velocity":55,"programNumber":69},{"time":166444.2780000005,"duration":166.66649999999208,"noteNumber":47,"velocity":55,"programNumber":69},{"time":166666.50000000047,"duration":166.66649999999208,"noteNumber":49,"velocity":55,"programNumber":69},{"time":166888.72200000045,"duration":166.66649999999208,"noteNumber":50,"velocity":55,"programNumber":69},{"time":167110.94400000043,"duration":166.66649999999208,"noteNumber":52,"velocity":85,"programNumber":69},{"time":167333.1660000004,"duration":166.66649999999208,"noteNumber":55,"velocity":85,"programNumber":69},{"time":167555.38800000038,"duration":166.66649999999208,"noteNumber":52,"velocity":85,"programNumber":69},{"time":167777.61000000036,"duration":166.66649999999208,"noteNumber":50,"velocity":85,"programNumber":69},{"time":167999.83200000034,"duration":166.66649999999208,"noteNumber":49,"velocity":85,"programNumber":69},{"time":168222.05400000032,"duration":166.66649999999208,"noteNumber":45,"velocity":85,"programNumber":69},{"time":168444.2760000003,"duration":166.66649999999208,"noteNumber":47,"velocity":85,"programNumber":69},{"time":168666.49800000028,"duration":166.66649999999208,"noteNumber":49,"velocity":85,"programNumber":69},{"time":168888.72000000026,"duration":166.66649999999208,"noteNumber":50,"velocity":85,"programNumber":69},{"time":169110.94200000024,"duration":166.66649999999208,"noteNumber":50,"velocity":85,"programNumber":69},{"time":169333.16400000022,"duration":166.66649999999208,"noteNumber":52,"velocity":85,"programNumber":69},{"time":169555.3860000002,"duration":166.66649999999208,"noteNumber":54,"velocity":85,"programNumber":69},{"time":169777.60800000018,"duration":166.66649999999208,"noteNumber":55,"velocity":85,"programNumber":69},{"time":169999.83000000016,"duration":166.66649999999208,"noteNumber":55,"velocity":85,"programNumber":69},{"time":170222.05200000014,"duration":166.66649999999208,"noteNumber":55,"velocity":85,"programNumber":69},{"time":170444.27400000012,"duration":166.66649999999208,"noteNumber":55,"velocity":85,"programNumber":69},{"time":170666.4960000001,"duration":166.66649999999208,"noteNumber":57,"velocity":85,"programNumber":69},{"time":170888.71800000008,"duration":166.66649999999208,"noteNumber":57,"velocity":85,"programNumber":69},{"time":171110.94000000006,"duration":166.66649999999208,"noteNumber":57,"velocity":85,"programNumber":69},{"time":171333.16200000004,"duration":166.66649999999208,"noteNumber":57,"velocity":85,"programNumber":69},{"time":171555.38400000002,"duration":166.66649999999208,"noteNumber":45,"velocity":85,"programNumber":69},{"time":171777.606,"duration":166.66649999999208,"noteNumber":45,"velocity":85,"programNumber":69},{"time":171999.82799999998,"duration":166.66649999999208,"noteNumber":45,"velocity":85,"programNumber":69},{"time":172222.04999999996,"duration":166.66649999999208,"noteNumber":45,"velocity":85,"programNumber":69},{"time":172444.27199999994,"duration":444.4439999999886,"noteNumber":50,"velocity":85,"programNumber":69},{"time":174222.04799999992,"duration":444.4439999999886,"noteNumber":45,"velocity":55,"programNumber":69},{"time":175999.8239999999,"duration":444.4439999999886,"noteNumber":50,"velocity":55,"programNumber":69},{"time":177777.5999999999,"duration":444.4439999999886,"noteNumber":45,"velocity":55,"programNumber":69},{"time":179777.59799999988,"duration":166.66649999999208,"noteNumber":50,"velocity":85,"programNumber":69},{"time":179999.81999999986,"duration":166.66649999999208,"noteNumber":54,"velocity":85,"programNumber":69},{"time":180222.04199999984,"duration":166.66649999999208,"noteNumber":52,"velocity":85,"programNumber":69},{"time":180444.26399999982,"duration":166.66649999999208,"noteNumber":51,"velocity":85,"programNumber":69},{"time":180666.4859999998,"duration":166.66649999999208,"noteNumber":47,"velocity":85,"programNumber":69},{"time":180888.70799999978,"duration":166.66649999999208,"noteNumber":49,"velocity":85,"programNumber":69},{"time":181110.92999999976,"duration":166.66649999999208,"noteNumber":50,"velocity":85,"programNumber":69},{"time":181333.15199999974,"duration":166.66649999999208,"noteNumber":52,"velocity":85,"programNumber":69},{"time":181555.37399999972,"duration":166.66649999999208,"noteNumber":55,"velocity":85,"programNumber":69},{"time":181777.5959999997,"duration":166.66649999999208,"noteNumber":52,"velocity":85,"programNumber":69},{"time":181999.81799999968,"duration":166.66649999999208,"noteNumber":50,"velocity":85,"programNumber":69},{"time":182222.03999999966,"duration":166.66649999999208,"noteNumber":49,"velocity":85,"programNumber":69},{"time":182444.26199999964,"duration":166.66649999999208,"noteNumber":45,"velocity":85,"programNumber":69},{"time":182666.48399999962,"duration":166.66649999999208,"noteNumber":47,"velocity":85,"programNumber":69},{"time":182888.7059999996,"duration":166.66649999999208,"noteNumber":49,"velocity":85,"programNumber":69},{"time":183110.92799999958,"duration":166.66649999999208,"noteNumber":50,"velocity":85,"programNumber":69},{"time":183333.14999999956,"duration":166.66649999999208,"noteNumber":50,"velocity":85,"programNumber":69},{"time":183555.37199999954,"duration":166.66649999999208,"noteNumber":52,"velocity":85,"programNumber":69},{"time":183777.59399999952,"duration":166.66649999999208,"noteNumber":54,"velocity":85,"programNumber":69},{"time":183999.8159999995,"duration":166.66649999999208,"noteNumber":55,"velocity":85,"programNumber":69},{"time":184222.03799999948,"duration":166.66649999999208,"noteNumber":55,"velocity":85,"programNumber":69},{"time":184444.25999999946,"duration":166.66649999999208,"noteNumber":55,"velocity":85,"programNumber":69},{"time":184666.48199999944,"duration":166.66649999999208,"noteNumber":55,"velocity":85,"programNumber":69},{"time":184888.70399999942,"duration":166.66649999999208,"noteNumber":57,"velocity":85,"programNumber":69},{"time":185110.9259999994,"duration":166.66649999999208,"noteNumber":57,"velocity":85,"programNumber":69},{"time":185333.14799999938,"duration":166.66649999999208,"noteNumber":57,"velocity":85,"programNumber":69},{"time":185555.36999999936,"duration":166.66649999999208,"noteNumber":57,"velocity":85,"programNumber":69},{"time":185777.59199999933,"duration":166.66649999999208,"noteNumber":45,"velocity":85,"programNumber":69},{"time":185999.8139999993,"duration":166.66649999999208,"noteNumber":45,"velocity":85,"programNumber":69},{"time":186222.0359999993,"duration":166.66649999999208,"noteNumber":45,"velocity":85,"programNumber":69},{"time":186444.25799999927,"duration":166.66649999999208,"noteNumber":45,"velocity":85,"programNumber":69},{"time":186666.47999999925,"duration":166.66649999999208,"noteNumber":50,"velocity":85,"programNumber":69},{"time":186888.70199999923,"duration":166.66649999999208,"noteNumber":45,"velocity":85,"programNumber":69},{"time":187110.9239999992,"duration":166.66649999999208,"noteNumber":47,"velocity":85,"programNumber":69},{"time":187333.1459999992,"duration":166.66649999999208,"noteNumber":49,"velocity":85,"programNumber":69},{"time":187555.36799999917,"duration":166.66649999999208,"noteNumber":50,"velocity":85,"programNumber":69},{"time":187777.58999999915,"duration":166.66649999999208,"noteNumber":50,"velocity":85,"programNumber":69},{"time":187999.81199999913,"duration":166.66649999999208,"noteNumber":52,"velocity":85,"programNumber":69},{"time":188222.0339999991,"duration":166.66649999999208,"noteNumber":52,"velocity":85,"programNumber":69},{"time":188444.2559999991,"duration":166.66649999999208,"noteNumber":54,"velocity":85,"programNumber":69},{"time":188666.47799999907,"duration":166.66649999999208,"noteNumber":49,"velocity":85,"programNumber":69},{"time":188888.69999999905,"duration":166.66649999999208,"noteNumber":50,"velocity":85,"programNumber":69},{"time":189110.92199999903,"duration":166.66649999999208,"noteNumber":52,"velocity":85,"programNumber":69},{"time":189333.143999999,"duration":166.66649999999208,"noteNumber":54,"velocity":85,"programNumber":69},{"time":189555.365999999,"duration":166.66649999999208,"noteNumber":54,"velocity":85,"programNumber":69},{"time":189777.58799999897,"duration":166.66649999999208,"noteNumber":55,"velocity":85,"programNumber":69},{"time":189999.80999999895,"duration":166.66649999999208,"noteNumber":55,"velocity":85,"programNumber":69},{"time":190222.03199999893,"duration":166.66649999999208,"noteNumber":57,"velocity":85,"programNumber":69},{"time":190444.2539999989,"duration":166.66649999999208,"noteNumber":57,"velocity":85,"programNumber":69},{"time":190666.4759999989,"duration":166.66649999999208,"noteNumber":58,"velocity":85,"programNumber":69},{"time":190888.69799999887,"duration":166.66649999999208,"noteNumber":58,"velocity":85,"programNumber":69},{"time":191110.91999999885,"duration":444.4439999999886,"noteNumber":59,"velocity":85,"programNumber":69},{"time":191999.80799999883,"duration":888.8880000000063,"noteNumber":55,"velocity":55,"programNumber":69},{"time":192888.69599999883,"duration":888.8880000000063,"noteNumber":57,"velocity":55,"programNumber":69},{"time":193777.58399999884,"duration":222.22200000000885,"noteNumber":50,"velocity":55,"programNumber":69},{"time":194222.02799999886,"duration":222.22200000000885,"noteNumber":50,"velocity":55,"programNumber":69},{"time":194666.47199999887,"duration":222.22200000000885,"noteNumber":50,"velocity":55,"programNumber":69},{"time":195555.35999999888,"duration":444.4439999999886,"noteNumber":50,"velocity":89,"programNumber":69},{"time":196222.02599999888,"duration":166.66649999999208,"noteNumber":45,"velocity":89,"programNumber":69},{"time":196444.24799999886,"duration":444.4439999999886,"noteNumber":50,"velocity":89,"programNumber":69},{"time":197110.91399999885,"duration":166.66649999999208,"noteNumber":45,"velocity":89,"programNumber":69},{"time":197333.13599999883,"duration":166.66649999999208,"noteNumber":50,"velocity":89,"programNumber":69},{"time":197555.3579999988,"duration":166.66649999999208,"noteNumber":45,"velocity":89,"programNumber":69},{"time":197777.5799999988,"duration":166.66649999999208,"noteNumber":50,"velocity":89,"programNumber":69},{"time":197999.80199999877,"duration":166.66649999999208,"noteNumber":54,"velocity":89,"programNumber":69},{"time":198222.02399999875,"duration":444.4439999999886,"noteNumber":57,"velocity":89,"programNumber":69},{"time":199110.91199999873,"duration":444.4439999999886,"noteNumber":57,"velocity":89,"programNumber":69},{"time":199777.57799999873,"duration":166.66649999999208,"noteNumber":54,"velocity":89,"programNumber":69},{"time":199999.7999999987,"duration":444.4439999999886,"noteNumber":57,"velocity":89,"programNumber":69},{"time":200666.4659999987,"duration":166.66649999999208,"noteNumber":54,"velocity":89,"programNumber":69},{"time":200888.68799999868,"duration":166.66649999999208,"noteNumber":57,"velocity":89,"programNumber":69},{"time":201110.90999999866,"duration":166.66649999999208,"noteNumber":54,"velocity":89,"programNumber":69},{"time":201333.13199999864,"duration":166.66649999999208,"noteNumber":51,"velocity":89,"programNumber":69},{"time":201555.35399999862,"duration":166.66649999999208,"noteNumber":54,"velocity":89,"programNumber":69},{"time":201777.5759999986,"duration":444.4439999999886,"noteNumber":47,"velocity":89,"programNumber":69},{"time":202666.46399999858,"duration":444.4439999999886,"noteNumber":48,"velocity":55,"programNumber":69},{"time":204444.23999999856,"duration":444.4439999999886,"noteNumber":43,"velocity":55,"programNumber":69},{"time":206222.01599999855,"duration":444.4439999999886,"noteNumber":48,"velocity":55,"programNumber":69},{"time":207999.79199999853,"duration":444.4439999999886,"noteNumber":43,"velocity":55,"programNumber":69},{"time":209777.56799999852,"duration":444.4439999999886,"noteNumber":48,"velocity":55,"programNumber":69},{"time":211555.3439999985,"duration":444.4439999999886,"noteNumber":52,"velocity":55,"programNumber":69},{"time":213333.11999999848,"duration":444.4439999999886,"noteNumber":45,"velocity":55,"programNumber":69},{"time":215110.89599999847,"duration":444.4439999999886,"noteNumber":50,"velocity":55,"programNumber":69},{"time":216888.67199999845,"duration":3499.9965000000084,"noteNumber":51,"velocity":55,"programNumber":69},{"time":220444.22399999844,"duration":444.4439999999886,"noteNumber":50,"velocity":53,"programNumber":69},{"time":221110.88999999844,"duration":222.22200000000885,"noteNumber":50,"velocity":91,"programNumber":69},{"time":221333.11199999845,"duration":222.22200000000885,"noteNumber":52,"velocity":91,"programNumber":69},{"time":221555.33399999846,"duration":222.22200000000885,"noteNumber":54,"velocity":91,"programNumber":69},{"time":221777.55599999847,"duration":222.22200000000885,"noteNumber":55,"velocity":91,"programNumber":69},{"time":221999.77799999848,"duration":222.22200000000885,"noteNumber":57,"velocity":91,"programNumber":69},{"time":222221.9999999985,"duration":222.22200000000885,"noteNumber":60,"velocity":91,"programNumber":69},{"time":222444.2219999985,"duration":222.22200000000885,"noteNumber":58,"velocity":91,"programNumber":69},{"time":222888.6659999985,"duration":222.22200000000885,"noteNumber":54,"velocity":91,"programNumber":69},{"time":223110.88799999852,"duration":222.22200000000885,"noteNumber":55,"velocity":91,"programNumber":69},{"time":223333.10999999853,"duration":222.22200000000885,"noteNumber":57,"velocity":91,"programNumber":69},{"time":223555.33199999854,"duration":222.22200000000885,"noteNumber":58,"velocity":91,"programNumber":69},{"time":223777.55399999855,"duration":222.22200000000885,"noteNumber":61,"velocity":91,"programNumber":69},{"time":223999.77599999856,"duration":222.22200000000885,"noteNumber":64,"velocity":91,"programNumber":69},{"time":224221.99799999857,"duration":222.22200000000885,"noteNumber":62,"velocity":91,"programNumber":69},{"time":229333.10399999857,"duration":1777.7760000000126,"noteNumber":50,"velocity":53,"programNumber":69},{"time":231110.87999999858,"duration":444.4439999999886,"noteNumber":55,"velocity":97,"programNumber":69},{"time":231777.54599999858,"duration":111.11100000000442,"noteNumber":50,"velocity":97,"programNumber":69},{"time":231999.76799999858,"duration":444.4439999999886,"noteNumber":55,"velocity":97,"programNumber":69},{"time":232666.43399999858,"duration":111.11100000000442,"noteNumber":50,"velocity":97,"programNumber":69},{"time":232888.6559999986,"duration":111.11100000000442,"noteNumber":55,"velocity":97,"programNumber":69},{"time":233110.8779999986,"duration":111.11100000000442,"noteNumber":50,"velocity":97,"programNumber":69},{"time":233333.0999999986,"duration":111.11100000000442,"noteNumber":55,"velocity":96,"programNumber":69},{"time":233555.32199999862,"duration":111.11100000000442,"noteNumber":59,"velocity":96,"programNumber":69},{"time":233777.54399999863,"duration":444.4439999999886,"noteNumber":62,"velocity":95,"programNumber":69},{"time":234666.4319999986,"duration":444.4439999999886,"noteNumber":60,"velocity":95,"programNumber":69},{"time":235333.0979999986,"duration":111.11100000000442,"noteNumber":57,"velocity":95,"programNumber":69},{"time":235555.3199999986,"duration":444.4439999999886,"noteNumber":60,"velocity":95,"programNumber":69},{"time":236221.9859999986,"duration":111.11100000000442,"noteNumber":57,"velocity":91,"programNumber":69},{"time":236444.20799999862,"duration":111.11100000000442,"noteNumber":60,"velocity":91,"programNumber":69},{"time":236666.42999999863,"duration":111.11100000000442,"noteNumber":57,"velocity":91,"programNumber":69},{"time":236888.65199999863,"duration":111.11100000000442,"noteNumber":54,"velocity":91,"programNumber":69},{"time":237110.87399999864,"duration":111.11100000000442,"noteNumber":57,"velocity":91,"programNumber":69},{"time":237333.09599999865,"duration":444.4439999999886,"noteNumber":50,"velocity":90,"programNumber":69},{"time":238221.98399999863,"duration":166.66649999999208,"noteNumber":55,"velocity":85,"programNumber":69},{"time":238444.2059999986,"duration":166.66649999999208,"noteNumber":55,"velocity":85,"programNumber":69},{"time":238666.4279999986,"duration":166.66649999999208,"noteNumber":55,"velocity":85,"programNumber":69},{"time":238888.64999999857,"duration":166.66649999999208,"noteNumber":55,"velocity":85,"programNumber":69},{"time":239110.87199999855,"duration":166.66649999999208,"noteNumber":55,"velocity":85,"programNumber":69},{"time":239333.09399999853,"duration":166.66649999999208,"noteNumber":55,"velocity":85,"programNumber":69},{"time":239555.3159999985,"duration":166.66649999999208,"noteNumber":55,"velocity":85,"programNumber":69},{"time":239777.5379999985,"duration":166.66649999999208,"noteNumber":55,"velocity":85,"programNumber":69},{"time":239999.75999999847,"duration":166.66649999999208,"noteNumber":55,"velocity":85,"programNumber":69},{"time":240221.98199999845,"duration":166.66649999999208,"noteNumber":55,"velocity":85,"programNumber":69},{"time":240444.20399999843,"duration":166.66649999999208,"noteNumber":55,"velocity":85,"programNumber":69},{"time":240666.4259999984,"duration":166.66649999999208,"noteNumber":55,"velocity":85,"programNumber":69},{"time":240888.6479999984,"duration":166.66649999999208,"noteNumber":55,"velocity":85,"programNumber":69},{"time":241110.86999999837,"duration":166.66649999999208,"noteNumber":55,"velocity":85,"programNumber":69},{"time":241333.09199999835,"duration":166.66649999999208,"noteNumber":55,"velocity":85,"programNumber":69},{"time":241555.31399999833,"duration":166.66649999999208,"noteNumber":55,"velocity":85,"programNumber":69},{"time":241777.5359999983,"duration":166.66649999999208,"noteNumber":55,"velocity":85,"programNumber":69},{"time":241999.75799999828,"duration":166.66649999999208,"noteNumber":55,"velocity":85,"programNumber":69},{"time":242221.97999999826,"duration":166.66649999999208,"noteNumber":55,"velocity":85,"programNumber":69},{"time":242444.20199999824,"duration":166.66649999999208,"noteNumber":55,"velocity":85,"programNumber":69},{"time":242666.42399999822,"duration":166.66649999999208,"noteNumber":55,"velocity":85,"programNumber":69},{"time":242888.6459999982,"duration":166.66649999999208,"noteNumber":55,"velocity":85,"programNumber":69},{"time":243110.86799999818,"duration":166.66649999999208,"noteNumber":55,"velocity":85,"programNumber":69},{"time":243333.08999999816,"duration":166.66649999999208,"noteNumber":55,"velocity":85,"programNumber":69},{"time":243555.31199999814,"duration":166.66649999999208,"noteNumber":55,"velocity":85,"programNumber":69},{"time":243777.53399999812,"duration":166.66649999999208,"noteNumber":55,"velocity":85,"programNumber":69},{"time":243999.7559999981,"duration":166.66649999999208,"noteNumber":55,"velocity":85,"programNumber":69},{"time":244221.97799999808,"duration":166.66649999999208,"noteNumber":55,"velocity":85,"programNumber":69},{"time":244444.19999999806,"duration":166.66649999999208,"noteNumber":55,"velocity":85,"programNumber":69},{"time":244666.42199999804,"duration":166.66649999999208,"noteNumber":55,"velocity":85,"programNumber":69},{"time":244888.64399999802,"duration":166.66649999999208,"noteNumber":55,"velocity":85,"programNumber":69},{"time":245110.865999998,"duration":166.66649999999208,"noteNumber":55,"velocity":85,"programNumber":69},{"time":245333.08799999798,"duration":166.66649999999208,"noteNumber":55,"velocity":85,"programNumber":69},{"time":245555.30999999796,"duration":166.66649999999208,"noteNumber":55,"velocity":85,"programNumber":69},{"time":245777.53199999794,"duration":166.66649999999208,"noteNumber":57,"velocity":85,"programNumber":69},{"time":245999.75399999792,"duration":166.66649999999208,"noteNumber":57,"velocity":85,"programNumber":69},{"time":246221.9759999979,"duration":166.66649999999208,"noteNumber":59,"velocity":85,"programNumber":69},{"time":246444.19799999788,"duration":166.66649999999208,"noteNumber":59,"velocity":85,"programNumber":69},{"time":246666.41999999786,"duration":166.66649999999208,"noteNumber":54,"velocity":85,"programNumber":69},{"time":246888.64199999784,"duration":166.66649999999208,"noteNumber":54,"velocity":85,"programNumber":69},{"time":247110.86399999782,"duration":166.66649999999208,"noteNumber":55,"velocity":85,"programNumber":69},{"time":247333.0859999978,"duration":166.66649999999208,"noteNumber":55,"velocity":85,"programNumber":69},{"time":247555.30799999778,"duration":166.66649999999208,"noteNumber":57,"velocity":85,"programNumber":69},{"time":247777.52999999776,"duration":166.66649999999208,"noteNumber":57,"velocity":85,"programNumber":69},{"time":247999.75199999774,"duration":444.4439999999886,"noteNumber":59,"velocity":85,"programNumber":69},{"time":250666.41599999773,"duration":888.8880000000063,"noteNumber":50,"velocity":47,"programNumber":69},{"time":251555.30399999773,"duration":888.8880000000063,"noteNumber":52,"velocity":47,"programNumber":69},{"time":252444.19199999774,"duration":333.33300000001327,"noteNumber":48,"velocity":47,"programNumber":69},{"time":252888.63599999776,"duration":333.33300000001327,"noteNumber":48,"velocity":47,"programNumber":69},{"time":253333.07999999778,"duration":333.33300000001327,"noteNumber":50,"velocity":47,"programNumber":69},{"time":253777.5239999978,"duration":333.33300000001327,"noteNumber":50,"velocity":47,"programNumber":69},{"time":254221.9679999978,"duration":222.22200000000885,"noteNumber":47,"velocity":47,"programNumber":69},{"time":254666.41199999783,"duration":222.22200000000885,"noteNumber":50,"velocity":47,"programNumber":69},{"time":255110.85599999785,"duration":444.4439999999886,"noteNumber":55,"velocity":47,"programNumber":69},{"time":257777.51999999784,"duration":888.8880000000063,"noteNumber":50,"velocity":47,"programNumber":69},{"time":258666.40799999784,"duration":888.8880000000063,"noteNumber":52,"velocity":47,"programNumber":69},{"time":259555.29599999785,"duration":333.33300000001327,"noteNumber":48,"velocity":47,"programNumber":69},{"time":259999.73999999787,"duration":333.33300000001327,"noteNumber":48,"velocity":47,"programNumber":69},{"time":260444.18399999788,"duration":333.33300000001327,"noteNumber":50,"velocity":47,"programNumber":69},{"time":260888.6279999979,"duration":333.33300000001327,"noteNumber":50,"velocity":47,"programNumber":69},{"time":261333.07199999792,"duration":166.66649999999208,"noteNumber":55,"velocity":91,"programNumber":69},{"time":261555.2939999979,"duration":166.66649999999208,"noteNumber":55,"velocity":83,"programNumber":69},{"time":261777.51599999788,"duration":166.66649999999208,"noteNumber":55,"velocity":83,"programNumber":69},{"time":261999.73799999786,"duration":166.66649999999208,"noteNumber":55,"velocity":83,"programNumber":69},{"time":262221.95999999787,"duration":166.66649999999208,"noteNumber":55,"velocity":59,"programNumber":69},{"time":262444.1819999979,"duration":166.66649999999208,"noteNumber":55,"velocity":59,"programNumber":69},{"time":262666.4039999979,"duration":166.66649999999208,"noteNumber":55,"velocity":59,"programNumber":69},{"time":262888.6259999979,"duration":166.66649999999208,"noteNumber":55,"velocity":59,"programNumber":69},{"time":263110.8479999979,"duration":166.66649999999208,"noteNumber":55,"velocity":92,"programNumber":69},{"time":263333.0699999979,"duration":166.66649999999208,"noteNumber":55,"velocity":79,"programNumber":69},{"time":263555.2919999979,"duration":166.66649999999208,"noteNumber":55,"velocity":79,"programNumber":69},{"time":263777.51399999793,"duration":166.66649999999208,"noteNumber":55,"velocity":79,"programNumber":69},{"time":263999.73599999794,"duration":166.66649999999208,"noteNumber":55,"velocity":59,"programNumber":69},{"time":264221.95799999795,"duration":166.66649999999208,"noteNumber":55,"velocity":59,"programNumber":69},{"time":264444.17999999796,"duration":166.66649999999208,"noteNumber":55,"velocity":59,"programNumber":69},{"time":264666.40199999796,"duration":166.66649999999208,"noteNumber":55,"velocity":59,"programNumber":69},{"time":264888.623999998,"duration":166.66649999999208,"noteNumber":55,"velocity":59,"programNumber":69},{"time":265110.845999998,"duration":166.66649999999208,"noteNumber":55,"velocity":40,"programNumber":69},{"time":265333.067999998,"duration":166.66649999999208,"noteNumber":55,"velocity":43,"programNumber":69},{"time":265555.289999998,"duration":166.66649999999208,"noteNumber":55,"velocity":46,"programNumber":69},{"time":265777.511999998,"duration":166.66649999999208,"noteNumber":55,"velocity":49,"programNumber":69},{"time":265999.733999998,"duration":166.66649999999208,"noteNumber":55,"velocity":52,"programNumber":69},{"time":266221.955999998,"duration":166.66649999999208,"noteNumber":55,"velocity":55,"programNumber":69},{"time":266444.17799999804,"duration":166.66649999999208,"noteNumber":55,"velocity":58,"programNumber":69},{"time":266666.39999999804,"duration":166.66649999999208,"noteNumber":55,"velocity":61,"programNumber":69},{"time":266888.62199999805,"duration":166.66649999999208,"noteNumber":55,"velocity":64,"programNumber":69},{"time":267110.84399999806,"duration":166.66649999999208,"noteNumber":54,"velocity":67,"programNumber":69},{"time":267333.06599999807,"duration":166.66649999999208,"noteNumber":54,"velocity":70,"programNumber":69},{"time":267555.2879999981,"duration":166.66649999999208,"noteNumber":55,"velocity":73,"programNumber":69},{"time":267777.5099999981,"duration":166.66649999999208,"noteNumber":55,"velocity":76,"programNumber":69},{"time":267999.7319999981,"duration":166.66649999999208,"noteNumber":52,"velocity":79,"programNumber":69},{"time":268221.9539999981,"duration":166.66649999999208,"noteNumber":52,"velocity":82,"programNumber":69},{"time":268444.1759999981,"duration":166.66649999999208,"noteNumber":50,"velocity":85,"programNumber":69},{"time":268666.3979999981,"duration":166.66649999999208,"noteNumber":50,"velocity":85,"programNumber":69},{"time":268888.61999999813,"duration":166.66649999999208,"noteNumber":50,"velocity":85,"programNumber":69},{"time":269110.84199999814,"duration":166.66649999999208,"noteNumber":50,"velocity":85,"programNumber":69},{"time":269333.06399999815,"duration":166.66649999999208,"noteNumber":50,"velocity":85,"programNumber":69},{"time":269555.28599999816,"duration":166.66649999999208,"noteNumber":50,"velocity":85,"programNumber":69},{"time":269777.50799999817,"duration":166.66649999999208,"noteNumber":50,"velocity":85,"programNumber":69},{"time":269999.7299999982,"duration":166.66649999999208,"noteNumber":50,"velocity":85,"programNumber":69},{"time":270221.9519999982,"duration":166.66649999999208,"noteNumber":50,"velocity":85,"programNumber":69},{"time":270444.1739999982,"duration":166.66649999999208,"noteNumber":50,"velocity":85,"programNumber":69},{"time":270666.3959999982,"duration":166.66649999999208,"noteNumber":50,"velocity":85,"programNumber":69},{"time":270888.6179999982,"duration":166.66649999999208,"noteNumber":50,"velocity":85,"programNumber":69},{"time":271110.8399999982,"duration":166.66649999999208,"noteNumber":50,"velocity":85,"programNumber":69},{"time":271333.06199999823,"duration":166.66649999999208,"noteNumber":50,"velocity":85,"programNumber":69},{"time":271555.28399999824,"duration":166.66649999999208,"noteNumber":50,"velocity":85,"programNumber":69},{"time":271777.50599999825,"duration":166.66649999999208,"noteNumber":50,"velocity":85,"programNumber":69},{"time":271999.72799999826,"duration":166.66649999999208,"noteNumber":50,"velocity":85,"programNumber":69},{"time":272221.94999999827,"duration":166.66649999999208,"noteNumber":50,"velocity":85,"programNumber":69},{"time":272444.1719999983,"duration":166.66649999999208,"noteNumber":50,"velocity":85,"programNumber":69},{"time":272666.3939999983,"duration":166.66649999999208,"noteNumber":50,"velocity":85,"programNumber":69},{"time":272888.6159999983,"duration":166.66649999999208,"noteNumber":50,"velocity":85,"programNumber":69},{"time":273110.8379999983,"duration":166.66649999999208,"noteNumber":50,"velocity":85,"programNumber":69},{"time":273333.0599999983,"duration":166.66649999999208,"noteNumber":50,"velocity":85,"programNumber":69},{"time":273555.2819999983,"duration":166.66649999999208,"noteNumber":50,"velocity":85,"programNumber":69},{"time":273777.5039999983,"duration":166.66649999999208,"noteNumber":50,"velocity":85,"programNumber":69},{"time":273999.72599999834,"duration":166.66649999999208,"noteNumber":50,"velocity":85,"programNumber":69},{"time":274221.94799999835,"duration":166.66649999999208,"noteNumber":50,"velocity":85,"programNumber":69},{"time":274444.16999999835,"duration":166.66649999999208,"noteNumber":50,"velocity":85,"programNumber":69},{"time":274666.39199999836,"duration":444.4440000000177,"noteNumber":50,"velocity":85,"programNumber":69},{"time":276888.6119999984,"duration":222.22200000000885,"noteNumber":56,"velocity":55,"programNumber":69},{"time":277333.0559999984,"duration":222.22200000000885,"noteNumber":57,"velocity":55,"programNumber":69},{"time":277777.4999999984,"duration":222.22200000000885,"noteNumber":55,"velocity":55,"programNumber":69},{"time":278221.94399999845,"duration":222.22200000000885,"noteNumber":54,"velocity":55,"programNumber":69},{"time":278666.38799999846,"duration":222.22200000000885,"noteNumber":50,"velocity":55,"programNumber":69},{"time":279555.2759999985,"duration":444.4440000000177,"noteNumber":51,"velocity":55,"programNumber":69},{"time":279999.7199999985,"duration":222.22200000000885,"noteNumber":52,"velocity":55,"programNumber":69},{"time":280444.16399999853,"duration":222.22200000000885,"noteNumber":48,"velocity":55,"programNumber":69},{"time":280888.60799999855,"duration":333.33299999998417,"noteNumber":50,"velocity":55,"programNumber":69},{"time":281333.0519999985,"duration":666.6660000000265,"noteNumber":62,"velocity":55,"programNumber":69},{"time":281999.71799999854,"duration":222.22200000000885,"noteNumber":61,"velocity":55,"programNumber":69},{"time":282221.93999999855,"duration":222.22200000000885,"noteNumber":60,"velocity":55,"programNumber":69},{"time":282444.16199999856,"duration":222.22200000000885,"noteNumber":57,"velocity":55,"programNumber":69},{"time":282666.38399999856,"duration":222.22200000000885,"noteNumber":55,"velocity":55,"programNumber":69},{"time":283110.8279999986,"duration":222.22200000000885,"noteNumber":57,"velocity":55,"programNumber":69},{"time":283555.2719999986,"duration":222.22200000000885,"noteNumber":59,"velocity":55,"programNumber":69},{"time":283999.7159999986,"duration":222.22200000000885,"noteNumber":56,"velocity":55,"programNumber":69},{"time":284444.15999999864,"duration":222.22200000000885,"noteNumber":57,"velocity":55,"programNumber":69},{"time":284888.60399999865,"duration":222.22200000000885,"noteNumber":55,"velocity":55,"programNumber":69},{"time":285333.0479999987,"duration":222.22200000000885,"noteNumber":54,"velocity":55,"programNumber":69},{"time":285777.4919999987,"duration":222.22200000000885,"noteNumber":50,"velocity":55,"programNumber":69},{"time":286221.9359999987,"duration":222.22200000000885,"noteNumber":52,"velocity":55,"programNumber":69},{"time":286666.3799999987,"duration":222.22200000000885,"noteNumber":60,"velocity":55,"programNumber":69},{"time":287110.82399999874,"duration":222.22200000000885,"noteNumber":62,"velocity":55,"programNumber":69},{"time":287555.26799999876,"duration":222.22200000000885,"noteNumber":50,"velocity":55,"programNumber":69},{"time":287999.7119999988,"duration":444.4440000000177,"noteNumber":43,"velocity":55,"programNumber":69},{"time":289777.4879999988,"duration":444.4440000000177,"noteNumber":50,"velocity":55,"programNumber":69},{"time":291555.2639999988,"duration":444.4440000000177,"noteNumber":43,"velocity":55,"programNumber":69},{"time":293333.0399999988,"duration":444.4440000000177,"noteNumber":50,"velocity":55,"programNumber":69},{"time":295333.03799999884,"duration":166.66649999999208,"noteNumber":55,"velocity":55,"programNumber":69},{"time":295555.25999999885,"duration":166.66649999999208,"noteNumber":59,"velocity":55,"programNumber":69},{"time":295777.48199999885,"duration":166.66649999999208,"noteNumber":57,"velocity":55,"programNumber":69},{"time":295999.70399999886,"duration":166.66649999999208,"noteNumber":56,"velocity":55,"programNumber":69},{"time":296221.9259999989,"duration":166.66649999999208,"noteNumber":52,"velocity":55,"programNumber":69},{"time":296444.1479999989,"duration":166.66649999999208,"noteNumber":54,"velocity":55,"programNumber":69},{"time":296666.3699999989,"duration":166.66649999999208,"noteNumber":55,"velocity":55,"programNumber":69},{"time":296888.5919999989,"duration":166.66649999999208,"noteNumber":57,"velocity":85,"programNumber":69},{"time":297110.8139999989,"duration":166.66649999999208,"noteNumber":60,"velocity":85,"programNumber":69},{"time":297333.0359999989,"duration":166.66649999999208,"noteNumber":57,"velocity":85,"programNumber":69},{"time":297555.2579999989,"duration":166.66649999999208,"noteNumber":55,"velocity":85,"programNumber":69},{"time":297777.47999999893,"duration":166.66649999999208,"noteNumber":54,"velocity":85,"programNumber":69},{"time":297999.70199999894,"duration":166.66649999999208,"noteNumber":50,"velocity":85,"programNumber":69},{"time":298221.92399999895,"duration":166.66649999999208,"noteNumber":52,"velocity":85,"programNumber":69},{"time":298444.14599999896,"duration":166.66649999999208,"noteNumber":54,"velocity":85,"programNumber":69},{"time":298666.36799999897,"duration":166.66649999999208,"noteNumber":55,"velocity":85,"programNumber":69},{"time":298888.589999999,"duration":166.66649999999208,"noteNumber":55,"velocity":85,"programNumber":69},{"time":299110.811999999,"duration":166.66649999999208,"noteNumber":57,"velocity":85,"programNumber":69},{"time":299333.033999999,"duration":166.66649999999208,"noteNumber":59,"velocity":85,"programNumber":69},{"time":299555.255999999,"duration":166.66649999999208,"noteNumber":60,"velocity":85,"programNumber":69},{"time":299777.477999999,"duration":166.66649999999208,"noteNumber":60,"velocity":85,"programNumber":69},{"time":299999.699999999,"duration":166.66649999999208,"noteNumber":60,"velocity":85,"programNumber":69},{"time":300221.92199999903,"duration":166.66649999999208,"noteNumber":60,"velocity":85,"programNumber":69},{"time":300444.14399999904,"duration":166.66649999999208,"noteNumber":62,"velocity":85,"programNumber":69},{"time":300666.36599999905,"duration":166.66649999999208,"noteNumber":62,"velocity":85,"programNumber":69},{"time":300888.58799999906,"duration":166.66649999999208,"noteNumber":62,"velocity":85,"programNumber":69},{"time":301110.80999999907,"duration":166.66649999999208,"noteNumber":62,"velocity":85,"programNumber":69},{"time":301333.0319999991,"duration":166.66649999999208,"noteNumber":50,"velocity":85,"programNumber":69},{"time":301555.2539999991,"duration":166.66649999999208,"noteNumber":50,"velocity":85,"programNumber":69},{"time":301777.4759999991,"duration":166.66649999999208,"noteNumber":50,"velocity":85,"programNumber":69},{"time":301999.6979999991,"duration":166.66649999999208,"noteNumber":50,"velocity":85,"programNumber":69},{"time":302221.9199999991,"duration":444.4440000000177,"noteNumber":55,"velocity":85,"programNumber":69},{"time":303999.6959999991,"duration":444.4440000000177,"noteNumber":50,"velocity":55,"programNumber":69},{"time":305777.47199999914,"duration":444.4440000000177,"noteNumber":55,"velocity":55,"programNumber":69},{"time":307555.24799999915,"duration":444.4440000000177,"noteNumber":50,"velocity":55,"programNumber":69},{"time":309555.24599999917,"duration":166.66649999999208,"noteNumber":55,"velocity":85,"programNumber":69},{"time":309777.4679999992,"duration":166.66649999999208,"noteNumber":59,"velocity":85,"programNumber":69},{"time":309999.6899999992,"duration":166.66649999999208,"noteNumber":57,"velocity":85,"programNumber":69},{"time":310221.9119999992,"duration":166.66649999999208,"noteNumber":56,"velocity":85,"programNumber":69},{"time":310444.1339999992,"duration":166.66649999999208,"noteNumber":52,"velocity":85,"programNumber":69},{"time":310666.3559999992,"duration":166.66649999999208,"noteNumber":54,"velocity":85,"programNumber":69},{"time":310888.5779999992,"duration":166.66649999999208,"noteNumber":55,"velocity":85,"programNumber":69},{"time":311110.79999999923,"duration":166.66649999999208,"noteNumber":57,"velocity":85,"programNumber":69},{"time":311333.02199999924,"duration":166.66649999999208,"noteNumber":60,"velocity":85,"programNumber":69},{"time":311555.24399999925,"duration":166.66649999999208,"noteNumber":57,"velocity":85,"programNumber":69},{"time":311777.46599999926,"duration":166.66649999999208,"noteNumber":55,"velocity":85,"programNumber":69},{"time":311999.68799999927,"duration":166.66649999999208,"noteNumber":54,"velocity":85,"programNumber":69},{"time":312221.9099999993,"duration":166.66649999999208,"noteNumber":50,"velocity":85,"programNumber":69},{"time":312444.1319999993,"duration":166.66649999999208,"noteNumber":52,"velocity":85,"programNumber":69},{"time":312666.3539999993,"duration":166.66649999999208,"noteNumber":54,"velocity":85,"programNumber":69},{"time":312888.5759999993,"duration":166.66649999999208,"noteNumber":55,"velocity":85,"programNumber":69},{"time":313110.7979999993,"duration":166.66649999999208,"noteNumber":55,"velocity":85,"programNumber":69},{"time":313333.0199999993,"duration":166.66649999999208,"noteNumber":57,"velocity":85,"programNumber":69},{"time":313555.2419999993,"duration":166.66649999999208,"noteNumber":59,"velocity":85,"programNumber":69},{"time":313777.46399999934,"duration":166.66649999999208,"noteNumber":60,"velocity":85,"programNumber":69},{"time":313999.68599999935,"duration":166.66649999999208,"noteNumber":60,"velocity":85,"programNumber":69},{"time":314221.90799999936,"duration":166.66649999999208,"noteNumber":60,"velocity":85,"programNumber":69},{"time":314444.12999999936,"duration":166.66649999999208,"noteNumber":60,"velocity":85,"programNumber":69},{"time":314666.3519999994,"duration":166.66649999999208,"noteNumber":62,"velocity":85,"programNumber":69},{"time":314888.5739999994,"duration":166.66649999999208,"noteNumber":62,"velocity":85,"programNumber":69},{"time":315110.7959999994,"duration":166.66649999999208,"noteNumber":62,"velocity":85,"programNumber":69},{"time":315333.0179999994,"duration":166.66649999999208,"noteNumber":62,"velocity":85,"programNumber":69},{"time":315555.2399999994,"duration":166.66649999999208,"noteNumber":50,"velocity":85,"programNumber":69},{"time":315777.4619999994,"duration":166.66649999999208,"noteNumber":50,"velocity":85,"programNumber":69},{"time":315999.6839999994,"duration":166.66649999999208,"noteNumber":50,"velocity":85,"programNumber":69},{"time":316221.90599999944,"duration":166.66649999999208,"noteNumber":50,"velocity":85,"programNumber":69},{"time":316444.12799999944,"duration":166.66649999999208,"noteNumber":55,"velocity":85,"programNumber":69},{"time":316666.34999999945,"duration":166.66649999999208,"noteNumber":50,"velocity":85,"programNumber":69},{"time":316888.57199999946,"duration":166.66649999999208,"noteNumber":52,"velocity":85,"programNumber":69},{"time":317110.79399999947,"duration":166.66649999999208,"noteNumber":54,"velocity":85,"programNumber":69},{"time":317333.0159999995,"duration":166.66649999999208,"noteNumber":55,"velocity":85,"programNumber":69},{"time":317555.2379999995,"duration":166.66649999999208,"noteNumber":55,"velocity":85,"programNumber":69},{"time":317777.4599999995,"duration":166.66649999999208,"noteNumber":57,"velocity":85,"programNumber":69},{"time":317999.6819999995,"duration":166.66649999999208,"noteNumber":57,"velocity":85,"programNumber":69},{"time":318221.9039999995,"duration":166.66649999999208,"noteNumber":59,"velocity":85,"programNumber":69},{"time":318444.1259999995,"duration":166.66649999999208,"noteNumber":54,"velocity":85,"programNumber":69},{"time":318666.34799999953,"duration":166.66649999999208,"noteNumber":55,"velocity":85,"programNumber":69},{"time":318888.56999999954,"duration":166.66649999999208,"noteNumber":57,"velocity":85,"programNumber":69},{"time":319110.79199999955,"duration":166.66649999999208,"noteNumber":59,"velocity":85,"programNumber":69},{"time":319333.01399999956,"duration":166.66649999999208,"noteNumber":59,"velocity":85,"programNumber":69},{"time":319555.23599999957,"duration":166.66649999999208,"noteNumber":60,"velocity":85,"programNumber":69},{"time":319777.4579999996,"duration":166.66649999999208,"noteNumber":60,"velocity":85,"programNumber":69},{"time":319999.6799999996,"duration":166.66649999999208,"noteNumber":62,"velocity":85,"programNumber":69},{"time":320221.9019999996,"duration":166.66649999999208,"noteNumber":62,"velocity":85,"programNumber":69},{"time":320444.1239999996,"duration":166.66649999999208,"noteNumber":63,"velocity":85,"programNumber":69},{"time":320666.3459999996,"duration":166.66649999999208,"noteNumber":63,"velocity":85,"programNumber":69},{"time":320888.5679999996,"duration":444.4440000000177,"noteNumber":64,"velocity":85,"programNumber":69},{"time":321777.45599999966,"duration":888.8879999999772,"noteNumber":48,"velocity":70,"programNumber":69},{"time":322666.34399999963,"duration":888.8879999999772,"noteNumber":50,"velocity":70,"programNumber":69},{"time":323555.2319999996,"duration":444.4440000000177,"noteNumber":43,"velocity":70,"programNumber":69},{"time":325333.0079999996,"duration":888.8879999999772,"noteNumber":48,"velocity":70,"programNumber":69},{"time":326221.8959999996,"duration":888.8879999999772,"noteNumber":50,"velocity":70,"programNumber":69},{"time":327110.7839999996,"duration":444.4440000000177,"noteNumber":43,"velocity":70,"programNumber":69},{"time":328888.5599999996,"duration":444.4440000000177,"noteNumber":48,"velocity":80,"programNumber":69},{"time":329777.4479999996,"duration":444.4440000000177,"noteNumber":50,"velocity":109,"programNumber":69},{"time":330666.33599999966,"duration":166.66649999999208,"noteNumber":43,"velocity":99,"programNumber":69},{"time":330888.55799999967,"duration":166.66649999999208,"noteNumber":43,"velocity":95,"programNumber":69},{"time":331110.7799999997,"duration":166.66649999999208,"noteNumber":43,"velocity":93,"programNumber":69},{"time":331333.0019999997,"duration":166.66649999999208,"noteNumber":43,"velocity":93,"programNumber":69},{"time":331555.2239999997,"duration":166.66649999999208,"noteNumber":43,"velocity":93,"programNumber":69},{"time":331777.4459999997,"duration":166.66649999999208,"noteNumber":43,"velocity":94,"programNumber":69},{"time":331999.6679999997,"duration":166.66649999999208,"noteNumber":43,"velocity":94,"programNumber":69},{"time":332221.8899999997,"duration":166.66649999999208,"noteNumber":43,"velocity":94,"programNumber":69},{"time":332444.11199999973,"duration":166.66649999999208,"noteNumber":43,"velocity":94,"programNumber":69},{"time":332666.33399999974,"duration":166.66649999999208,"noteNumber":43,"velocity":94,"programNumber":69},{"time":332888.55599999975,"duration":166.66649999999208,"noteNumber":43,"velocity":94,"programNumber":69},{"time":333110.77799999976,"duration":166.66649999999208,"noteNumber":43,"velocity":94,"programNumber":69},{"time":333332.99999999977,"duration":166.66649999999208,"noteNumber":43,"velocity":94,"programNumber":69},{"time":333555.2219999998,"duration":166.66649999999208,"noteNumber":43,"velocity":94,"programNumber":69},{"time":333777.4439999998,"duration":166.66649999999208,"noteNumber":43,"velocity":94,"programNumber":69},{"time":333999.6659999998,"duration":166.66649999999208,"noteNumber":43,"velocity":94,"programNumber":69},{"time":334221.8879999998,"duration":166.66649999999208,"noteNumber":43,"velocity":94,"programNumber":69},{"time":334444.1099999998,"duration":166.66649999999208,"noteNumber":43,"velocity":94,"programNumber":69},{"time":334666.3319999998,"duration":166.66649999999208,"noteNumber":43,"velocity":94,"programNumber":69},{"time":334888.5539999998,"duration":166.66649999999208,"noteNumber":43,"velocity":94,"programNumber":69},{"time":335110.77599999984,"duration":166.66649999999208,"noteNumber":43,"velocity":94,"programNumber":69},{"time":335332.99799999985,"duration":166.66649999999208,"noteNumber":43,"velocity":94,"programNumber":69},{"time":335555.21999999986,"duration":166.66649999999208,"noteNumber":43,"velocity":94,"programNumber":69},{"time":335777.44199999986,"duration":166.66649999999208,"noteNumber":43,"velocity":94,"programNumber":69},{"time":335999.6639999999,"duration":166.66649999999208,"noteNumber":43,"velocity":94,"programNumber":69},{"time":336221.8859999999,"duration":166.66649999999208,"noteNumber":43,"velocity":94,"programNumber":69},{"time":336444.1079999999,"duration":166.66649999999208,"noteNumber":43,"velocity":94,"programNumber":69},{"time":336666.3299999999,"duration":166.66649999999208,"noteNumber":43,"velocity":94,"programNumber":69},{"time":336888.5519999999,"duration":166.66649999999208,"noteNumber":43,"velocity":94,"programNumber":69},{"time":337110.7739999999,"duration":166.66649999999208,"noteNumber":43,"velocity":94,"programNumber":69},{"time":337332.9959999999,"duration":166.66649999999208,"noteNumber":43,"velocity":94,"programNumber":69},{"time":337555.21799999994,"duration":166.66649999999208,"noteNumber":43,"velocity":94,"programNumber":69},{"time":337777.43999999994,"duration":166.66649999999208,"noteNumber":43,"velocity":94,"programNumber":69},{"time":337999.66199999995,"duration":166.66649999999208,"noteNumber":47,"velocity":96,"programNumber":69},{"time":338221.88399999996,"duration":166.66649999999208,"noteNumber":50,"velocity":98,"programNumber":69},{"time":338444.10599999997,"duration":166.66649999999208,"noteNumber":55,"velocity":98,"programNumber":69},{"time":338666.328,"duration":166.66649999999208,"noteNumber":59,"velocity":97,"programNumber":69},{"time":338888.55,"duration":166.66649999999208,"noteNumber":55,"velocity":93,"programNumber":69},{"time":339110.772,"duration":166.66649999999208,"noteNumber":62,"velocity":92,"programNumber":69},{"time":339332.994,"duration":166.66649999999208,"noteNumber":59,"velocity":93,"programNumber":69},{"time":339555.216,"duration":370.36999999999534,"noteNumber":55,"velocity":94,"programNumber":69},{"time":339999.66000000003,"duration":222.22200000000885,"noteNumber":43,"velocity":94,"programNumber":69},{"time":340332.993,"duration":55.555500000016764,"noteNumber":43,"velocity":93,"programNumber":69},{"time":340444.10400000005,"duration":444.4440000000177,"noteNumber":43,"velocity":92,"programNumber":69}]]}