{"tracks":[[{"time":0,"duration":468.53000000000003,"noteNumber":74,"velocity":36,"programNumber":40},{"time":468.53000000000003,"duration":702.7950000000001,"noteNumber":74,"velocity":36,"programNumber":40},{"time":1171.325,"duration":234.2650000000001,"noteNumber":79,"velocity":36,"programNumber":40},{"time":1405.5900000000001,"duration":19.522083333333285,"noteNumber":81,"velocity":36,"programNumber":40},{"time":1425.1120833333334,"duration":39.04416666666657,"noteNumber":79,"velocity":36,"programNumber":40},{"time":1464.15625,"duration":19.522083333333285,"noteNumber":81,"velocity":36,"programNumber":40},{"time":1483.6783333333333,"duration":39.04416666666657,"noteNumber":79,"velocity":36,"programNumber":40},{"time":1522.7224999999999,"duration":19.522083333333285,"noteNumber":81,"velocity":36,"programNumber":40},{"time":1542.2445833333331,"duration":39.04416666666657,"noteNumber":79,"velocity":36,"programNumber":40},{"time":1581.2887499999997,"duration":19.522083333333285,"noteNumber":81,"velocity":36,"programNumber":40},{"time":1600.810833333333,"duration":39.04416666666657,"noteNumber":79,"velocity":36,"programNumber":40},{"time":1639.8549999999996,"duration":19.522083333333285,"noteNumber":81,"velocity":36,"programNumber":40},{"time":1659.3770833333328,"duration":39.04416666666657,"noteNumber":79,"velocity":36,"programNumber":40},{"time":1698.4212499999994,"duration":19.522083333333285,"noteNumber":81,"velocity":36,"programNumber":40},{"time":1717.9433333333327,"duration":39.04416666666657,"noteNumber":79,"velocity":36,"programNumber":40},{"time":1756.9874999999993,"duration":39.04416666666657,"noteNumber":81,"velocity":36,"programNumber":40},{"time":1796.0316666666658,"duration":78.08833333333337,"noteNumber":79,"velocity":36,"programNumber":40},{"time":1874.1199999999992,"duration":702.7949999999998,"noteNumber":78,"velocity":36,"programNumber":40},{"time":2576.914999999999,"duration":234.26499999999987,"noteNumber":79,"velocity":36,"programNumber":40},{"time":2811.179999999999,"duration":234.26499999999987,"noteNumber":81,"velocity":36,"programNumber":40},{"time":3045.444999999999,"duration":234.26499999999987,"noteNumber":78,"velocity":36,"programNumber":40},{"time":3279.7099999999987,"duration":702.7950000000001,"noteNumber":74,"velocity":36,"programNumber":40},{"time":3982.5049999999987,"duration":234.26499999999987,"noteNumber":72,"velocity":36,"programNumber":40},{"time":4216.769999999999,"duration":234.26500000000033,"noteNumber":74,"velocity":36,"programNumber":40},{"time":4451.034999999999,"duration":234.26500000000033,"noteNumber":72,"velocity":36,"programNumber":40},{"time":4685.299999999999,"duration":468.52999999999975,"noteNumber":71,"velocity":36,"programNumber":40},{"time":5622.359999999999,"duration":234.26500000000033,"noteNumber":84,"velocity":36,"programNumber":40},{"time":5856.624999999999,"duration":468.52999999999975,"noteNumber":72,"velocity":36,"programNumber":40},{"time":6325.154999999999,"duration":117.13249999999971,"noteNumber":76,"velocity":36,"programNumber":40},{"time":6442.2874999999985,"duration":117.13249999999971,"noteNumber":74,"velocity":36,"programNumber":40},{"time":6559.419999999998,"duration":117.13249999999971,"noteNumber":78,"velocity":36,"programNumber":40},{"time":6676.552499999998,"duration":117.13249999999971,"noteNumber":76,"velocity":36,"programNumber":40},{"time":6793.684999999998,"duration":117.13249999999971,"noteNumber":74,"velocity":36,"programNumber":40},{"time":6910.817499999997,"duration":117.13249999999971,"noteNumber":72,"velocity":36,"programNumber":40},{"time":7027.949999999997,"duration":117.13249999999971,"noteNumber":71,"velocity":36,"programNumber":40},{"time":7145.082499999997,"duration":117.13249999999971,"noteNumber":74,"velocity":36,"programNumber":40},{"time":7262.2149999999965,"duration":117.13249999999971,"noteNumber":76,"velocity":36,"programNumber":40},{"time":7379.347499999996,"duration":117.13249999999971,"noteNumber":78,"velocity":36,"programNumber":40},{"time":7496.479999999996,"duration":117.13249999999971,"noteNumber":79,"velocity":36,"programNumber":40},{"time":7613.612499999996,"duration":117.13249999999971,"noteNumber":81,"velocity":36,"programNumber":40},{"time":7730.744999999995,"duration":117.13249999999971,"noteNumber":83,"velocity":36,"programNumber":40},{"time":7847.877499999995,"duration":117.13249999999971,"noteNumber":84,"velocity":36,"programNumber":40},{"time":7965.009999999995,"duration":468.53000000000065,"noteNumber":86,"velocity":36,"programNumber":40},{"time":8433.539999999995,"duration":234.26499999999942,"noteNumber":86,"velocity":36,"programNumber":40},{"time":8667.804999999995,"duration":117.13249999999971,"noteNumber":88,"velocity":36,"programNumber":40},{"time":8784.937499999995,"duration":117.13249999999971,"noteNumber":86,"velocity":36,"programNumber":40},{"time":8902.069999999994,"duration":468.53000000000065,"noteNumber":84,"velocity":36,"programNumber":40},{"time":9370.599999999995,"duration":468.53000000000065,"noteNumber":83,"velocity":36,"programNumber":40},{"time":9839.129999999996,"duration":19.522083333333285,"noteNumber":84,"velocity":36,"programNumber":40},{"time":9858.652083333329,"duration":39.04416666666657,"noteNumber":83,"velocity":36,"programNumber":40},{"time":9897.696249999995,"duration":19.522083333333285,"noteNumber":84,"velocity":36,"programNumber":40},{"time":9917.218333333329,"duration":39.04416666666657,"noteNumber":83,"velocity":36,"programNumber":40},{"time":9956.262499999995,"duration":19.522083333333285,"noteNumber":84,"velocity":36,"programNumber":40},{"time":9975.784583333329,"duration":39.04416666666657,"noteNumber":83,"velocity":36,"programNumber":40},{"time":10014.828749999995,"duration":19.522083333333285,"noteNumber":84,"velocity":36,"programNumber":40},{"time":10034.350833333328,"duration":39.04416666666657,"noteNumber":83,"velocity":36,"programNumber":40},{"time":10073.394999999995,"duration":19.522083333333285,"noteNumber":84,"velocity":36,"programNumber":40},{"time":10092.917083333328,"duration":39.04416666666657,"noteNumber":83,"velocity":36,"programNumber":40},{"time":10131.961249999995,"duration":19.522083333333285,"noteNumber":84,"velocity":36,"programNumber":40},{"time":10151.483333333328,"duration":39.04416666666657,"noteNumber":83,"velocity":36,"programNumber":40},{"time":10190.527499999995,"duration":19.522083333333285,"noteNumber":84,"velocity":36,"programNumber":40},{"time":10210.049583333328,"duration":39.04416666666657,"noteNumber":83,"velocity":36,"programNumber":40},{"time":10249.093749999995,"duration":19.522083333333285,"noteNumber":84,"velocity":36,"programNumber":40},{"time":10268.615833333328,"duration":39.04416666666657,"noteNumber":83,"velocity":36,"programNumber":40},{"time":10307.659999999994,"duration":468.53000000000065,"noteNumber":81,"velocity":36,"programNumber":40},{"time":11244.719999999996,"duration":702.7950000000001,"noteNumber":81,"velocity":36,"programNumber":40},{"time":11947.514999999996,"duration":117.13249999999971,"noteNumber":83,"velocity":36,"programNumber":40},{"time":12064.647499999995,"duration":117.13249999999971,"noteNumber":81,"velocity":36,"programNumber":40},{"time":12181.779999999995,"duration":117.13249999999971,"noteNumber":86,"velocity":36,"programNumber":40},{"time":12298.912499999995,"duration":117.13249999999971,"noteNumber":85,"velocity":36,"programNumber":40},{"time":12416.044999999995,"duration":117.13249999999971,"noteNumber":83,"velocity":36,"programNumber":40},{"time":12533.177499999994,"duration":117.13249999999971,"noteNumber":81,"velocity":36,"programNumber":40},{"time":12650.309999999994,"duration":351.3974999999991,"noteNumber":81,"velocity":36,"programNumber":40},{"time":13001.707499999993,"duration":117.13249999999971,"noteNumber":83,"velocity":36,"programNumber":40},{"time":13118.839999999993,"duration":234.26499999999942,"noteNumber":81,"velocity":36,"programNumber":40},{"time":13353.104999999992,"duration":234.26499999999942,"noteNumber":81,"velocity":36,"programNumber":40},{"time":13587.369999999992,"duration":234.26499999999942,"noteNumber":81,"velocity":36,"programNumber":40},{"time":13821.634999999991,"duration":234.26499999999942,"noteNumber":81,"velocity":36,"programNumber":40},{"time":14055.89999999999,"duration":117.13249999999971,"noteNumber":81,"velocity":36,"programNumber":40},{"time":14173.03249999999,"duration":117.13249999999971,"noteNumber":78,"velocity":36,"programNumber":40},{"time":14290.16499999999,"duration":234.26499999999942,"noteNumber":79,"velocity":36,"programNumber":40},{"time":14758.694999999989,"duration":234.26499999999942,"noteNumber":79,"velocity":36,"programNumber":40},{"time":14992.959999999988,"duration":234.26499999999942,"noteNumber":79,"velocity":36,"programNumber":40},{"time":15227.224999999988,"duration":234.26499999999942,"noteNumber":79,"velocity":36,"programNumber":40},{"time":15461.489999999987,"duration":117.13249999999971,"noteNumber":79,"velocity":36,"programNumber":40},{"time":15578.622499999987,"duration":117.13249999999971,"noteNumber":76,"velocity":36,"programNumber":40},{"time":15695.754999999986,"duration":234.26499999999942,"noteNumber":78,"velocity":36,"programNumber":40},{"time":16164.284999999985,"duration":234.26499999999942,"noteNumber":78,"velocity":36,"programNumber":40},{"time":16398.549999999985,"duration":234.26499999999942,"noteNumber":78,"velocity":36,"programNumber":40},{"time":16632.814999999984,"duration":234.26499999999942,"noteNumber":78,"velocity":36,"programNumber":40},{"time":16867.079999999984,"duration":468.52999999999884,"noteNumber":76,"velocity":36,"programNumber":40},{"time":19678.259999999984,"duration":117.13249999999971,"noteNumber":78,"velocity":36,"programNumber":40},{"time":19795.392499999984,"duration":117.13249999999971,"noteNumber":76,"velocity":36,"programNumber":40},{"time":19912.524999999983,"duration":117.13249999999971,"noteNumber":78,"velocity":36,"programNumber":40},{"time":20029.657499999983,"duration":117.13249999999971,"noteNumber":79,"velocity":36,"programNumber":40},{"time":20146.789999999983,"duration":234.26499999999942,"noteNumber":81,"velocity":36,"programNumber":40},{"time":20381.054999999982,"duration":234.26499999999942,"noteNumber":74,"velocity":36,"programNumber":40},{"time":20615.31999999998,"duration":234.26499999999942,"noteNumber":74,"velocity":36,"programNumber":40},{"time":20849.58499999998,"duration":234.26499999999942,"noteNumber":74,"velocity":36,"programNumber":40},{"time":21083.84999999998,"duration":117.13249999999971,"noteNumber":79,"velocity":36,"programNumber":40},{"time":21200.98249999998,"duration":117.13249999999971,"noteNumber":76,"velocity":36,"programNumber":40},{"time":21318.11499999998,"duration":117.13249999999971,"noteNumber":78,"velocity":36,"programNumber":40},{"time":21435.24749999998,"duration":117.13249999999971,"noteNumber":74,"velocity":36,"programNumber":40},{"time":21552.37999999998,"duration":234.26499999999942,"noteNumber":73,"velocity":36,"programNumber":40},{"time":21786.64499999998,"duration":117.13249999999971,"noteNumber":76,"velocity":36,"programNumber":40},{"time":21903.77749999998,"duration":117.13249999999971,"noteNumber":73,"velocity":36,"programNumber":40},{"time":22020.909999999978,"duration":468.52999999999884,"noteNumber":69,"velocity":36,"programNumber":40},{"time":22489.439999999977,"duration":1405.5900000000001,"noteNumber":81,"velocity":36,"programNumber":40},{"time":23895.029999999977,"duration":1405.5900000000001,"noteNumber":81,"velocity":36,"programNumber":40},{"time":25417.752499999977,"duration":234.26499999999942,"noteNumber":74,"velocity":36,"programNumber":40},{"time":25652.017499999976,"duration":234.26499999999942,"noteNumber":78,"velocity":36,"programNumber":40},{"time":25886.282499999976,"duration":234.26499999999942,"noteNumber":81,"velocity":36,"programNumber":40},{"time":26120.547499999975,"duration":234.26499999999942,"noteNumber":86,"velocity":36,"programNumber":40},{"time":26354.812499999975,"duration":234.26499999999942,"noteNumber":84,"velocity":36,"programNumber":40},{"time":26589.077499999974,"duration":117.13249999999971,"noteNumber":81,"velocity":36,"programNumber":40},{"time":26706.209999999974,"duration":78.08833333333314,"noteNumber":83,"velocity":36,"programNumber":40},{"time":26784.298333333307,"duration":78.08833333333314,"noteNumber":86,"velocity":36,"programNumber":40},{"time":26862.38666666664,"duration":78.08833333333314,"noteNumber":83,"velocity":36,"programNumber":40},{"time":26940.474999999973,"duration":78.08833333333314,"noteNumber":79,"velocity":36,"programNumber":40},{"time":27018.563333333306,"duration":78.08833333333314,"noteNumber":74,"velocity":36,"programNumber":40},{"time":27096.65166666664,"duration":78.08833333333314,"noteNumber":71,"velocity":36,"programNumber":40},{"time":27174.739999999972,"duration":78.08833333333314,"noteNumber":67,"velocity":36,"programNumber":40},{"time":27252.828333333306,"duration":78.08833333333314,"noteNumber":74,"velocity":36,"programNumber":40},{"time":27330.91666666664,"duration":78.08833333333314,"noteNumber":71,"velocity":36,"programNumber":40},{"time":27409.004999999972,"duration":78.08833333333314,"noteNumber":67,"velocity":36,"programNumber":40},{"time":27487.093333333305,"duration":78.08833333333314,"noteNumber":62,"velocity":36,"programNumber":40},{"time":27565.18166666664,"duration":78.08833333333314,"noteNumber":59,"velocity":36,"programNumber":40},{"time":27643.26999999997,"duration":234.26499999999942,"noteNumber":55,"velocity":36,"programNumber":40},{"time":27877.53499999997,"duration":117.13249999999971,"noteNumber":83,"velocity":36,"programNumber":40},{"time":27994.66749999997,"duration":117.13249999999971,"noteNumber":79,"velocity":36,"programNumber":40},{"time":28111.79999999997,"duration":39.04416666666657,"noteNumber":78,"velocity":36,"programNumber":40},{"time":28150.844166666637,"duration":39.04416666666657,"noteNumber":81,"velocity":36,"programNumber":40},{"time":28189.888333333303,"duration":39.04416666666657,"noteNumber":79,"velocity":36,"programNumber":40},{"time":28228.93249999997,"duration":39.04416666666657,"noteNumber":78,"velocity":36,"programNumber":40},{"time":28267.976666666636,"duration":39.04416666666657,"noteNumber":79,"velocity":36,"programNumber":40},{"time":28307.020833333303,"duration":39.04416666666657,"noteNumber":81,"velocity":36,"programNumber":40},{"time":28346.06499999997,"duration":39.04416666666657,"noteNumber":83,"velocity":36,"programNumber":40},{"time":28385.109166666636,"duration":39.04416666666657,"noteNumber":85,"velocity":36,"programNumber":40},{"time":28424.153333333303,"duration":39.04416666666657,"noteNumber":86,"velocity":36,"programNumber":40},{"time":28463.19749999997,"duration":39.04416666666657,"noteNumber":85,"velocity":36,"programNumber":40},{"time":28502.241666666636,"duration":39.04416666666657,"noteNumber":86,"velocity":36,"programNumber":40},{"time":28541.285833333302,"duration":39.04416666666657,"noteNumber":85,"velocity":36,"programNumber":40},{"time":28580.32999999997,"duration":39.04416666666657,"noteNumber":86,"velocity":36,"programNumber":40},{"time":28619.374166666636,"duration":39.04416666666657,"noteNumber":81,"velocity":36,"programNumber":40},{"time":28658.418333333302,"duration":39.04416666666657,"noteNumber":78,"velocity":36,"programNumber":40},{"time":28697.46249999997,"duration":39.04416666666657,"noteNumber":74,"velocity":36,"programNumber":40},{"time":28736.506666666635,"duration":19.522083333333285,"noteNumber":78,"velocity":36,"programNumber":40},{"time":28756.02874999997,"duration":39.04416666666657,"noteNumber":76,"velocity":36,"programNumber":40},{"time":28795.072916666635,"duration":19.522083333333285,"noteNumber":78,"velocity":36,"programNumber":40},{"time":28814.59499999997,"duration":39.04416666666657,"noteNumber":76,"velocity":36,"programNumber":40},{"time":28853.639166666635,"duration":19.522083333333285,"noteNumber":78,"velocity":36,"programNumber":40},{"time":28873.16124999997,"duration":39.04416666666657,"noteNumber":76,"velocity":36,"programNumber":40},{"time":28912.205416666635,"duration":19.522083333333285,"noteNumber":78,"velocity":36,"programNumber":40},{"time":28931.727499999968,"duration":39.04416666666657,"noteNumber":76,"velocity":36,"programNumber":40},{"time":28970.771666666635,"duration":19.522083333333285,"noteNumber":78,"velocity":36,"programNumber":40},{"time":28990.293749999968,"duration":39.04416666666657,"noteNumber":76,"velocity":36,"programNumber":40},{"time":29029.337916666635,"duration":19.522083333333285,"noteNumber":78,"velocity":36,"programNumber":40},{"time":29048.859999999968,"duration":39.04416666666657,"noteNumber":76,"velocity":36,"programNumber":40},{"time":29087.904166666634,"duration":19.522083333333285,"noteNumber":78,"velocity":36,"programNumber":40},{"time":29107.426249999968,"duration":39.04416666666657,"noteNumber":76,"velocity":36,"programNumber":40},{"time":29146.470416666634,"duration":19.522083333333285,"noteNumber":78,"velocity":36,"programNumber":40},{"time":29165.992499999968,"duration":39.04416666666657,"noteNumber":76,"velocity":36,"programNumber":40},{"time":29205.036666666634,"duration":19.522083333333285,"noteNumber":78,"velocity":36,"programNumber":40},{"time":29224.558749999967,"duration":39.04416666666657,"noteNumber":76,"velocity":36,"programNumber":40},{"time":29263.602916666634,"duration":19.522083333333285,"noteNumber":78,"velocity":36,"programNumber":40},{"time":29283.124999999967,"duration":39.04416666666657,"noteNumber":76,"velocity":36,"programNumber":40},{"time":29322.169166666634,"duration":19.522083333333285,"noteNumber":78,"velocity":36,"programNumber":40},{"time":29341.691249999967,"duration":39.04416666666657,"noteNumber":76,"velocity":36,"programNumber":40},{"time":29380.735416666634,"duration":19.522083333333285,"noteNumber":78,"velocity":36,"programNumber":40},{"time":29400.257499999967,"duration":39.04416666666657,"noteNumber":76,"velocity":36,"programNumber":40},{"time":29439.301666666634,"duration":39.04416666666657,"noteNumber":74,"velocity":36,"programNumber":40},{"time":29478.3458333333,"duration":39.04416666666657,"noteNumber":76,"velocity":36,"programNumber":40},{"time":29517.389999999967,"duration":234.26499999999942,"noteNumber":74,"velocity":36,"programNumber":40},{"time":29751.654999999966,"duration":39.04416666666657,"noteNumber":76,"velocity":36,"programNumber":40},{"time":29790.699166666633,"duration":39.04416666666657,"noteNumber":78,"velocity":36,"programNumber":40},{"time":29829.7433333333,"duration":39.04416666666657,"noteNumber":79,"velocity":36,"programNumber":40},{"time":29868.787499999966,"duration":39.04416666666657,"noteNumber":81,"velocity":36,"programNumber":40},{"time":29907.831666666632,"duration":39.04416666666657,"noteNumber":83,"velocity":36,"programNumber":40},{"time":29946.8758333333,"duration":39.04416666666657,"noteNumber":85,"velocity":36,"programNumber":40},{"time":29985.919999999966,"duration":234.26499999999942,"noteNumber":86,"velocity":36,"programNumber":40},{"time":32328.569999999963,"duration":1405.5899999999965,"noteNumber":84,"velocity":34,"programNumber":40},{"time":33734.15999999996,"duration":117.13249999999971,"noteNumber":84,"velocity":34,"programNumber":40},{"time":33851.29249999996,"duration":117.13249999999971,"noteNumber":83,"velocity":34,"programNumber":40},{"time":33968.42499999996,"duration":117.13249999999971,"noteNumber":81,"velocity":34,"programNumber":40},{"time":34085.55749999996,"duration":117.13249999999971,"noteNumber":79,"velocity":34,"programNumber":40},{"time":34202.68999999996,"duration":468.52999999999884,"noteNumber":78,"velocity":34,"programNumber":40},{"time":34671.21999999996,"duration":19.522083333336923,"noteNumber":78,"velocity":34,"programNumber":40},{"time":34690.742083333294,"duration":19.522083333336923,"noteNumber":76,"velocity":34,"programNumber":40},{"time":34710.26416666663,"duration":39.04416666666657,"noteNumber":78,"velocity":34,"programNumber":40},{"time":34749.3083333333,"duration":19.522083333336923,"noteNumber":76,"velocity":34,"programNumber":40},{"time":34768.830416666635,"duration":19.522083333336923,"noteNumber":78,"velocity":34,"programNumber":40},{"time":34788.35249999997,"duration":19.522083333336923,"noteNumber":76,"velocity":34,"programNumber":40},{"time":34807.87458333331,"duration":19.522083333336923,"noteNumber":78,"velocity":34,"programNumber":40},{"time":34827.396666666646,"duration":19.522083333336923,"noteNumber":76,"velocity":34,"programNumber":40},{"time":34846.91874999998,"duration":39.04416666666657,"noteNumber":78,"velocity":34,"programNumber":40},{"time":34885.96291666665,"duration":19.522083333336923,"noteNumber":76,"velocity":34,"programNumber":40},{"time":34905.484999999986,"duration":19.522083333336923,"noteNumber":78,"velocity":34,"programNumber":40},{"time":34925.00708333332,"duration":19.522083333336923,"noteNumber":76,"velocity":34,"programNumber":40},{"time":34944.52916666666,"duration":19.522083333336923,"noteNumber":78,"velocity":34,"programNumber":40},{"time":34964.05125,"duration":19.522083333336923,"noteNumber":76,"velocity":34,"programNumber":40},{"time":34983.573333333334,"duration":39.04416666666657,"noteNumber":78,"velocity":34,"programNumber":40},{"time":35022.6175,"duration":19.522083333336923,"noteNumber":76,"velocity":34,"programNumber":40},{"time":35042.13958333334,"duration":19.522083333336923,"noteNumber":76,"velocity":34,"programNumber":40},{"time":35061.661666666674,"duration":39.04416666666657,"noteNumber":74,"velocity":34,"programNumber":40},{"time":35100.70583333334,"duration":39.04416666666657,"noteNumber":76,"velocity":34,"programNumber":40},{"time":35139.75000000001,"duration":175.6987500000032,"noteNumber":74,"velocity":34,"programNumber":40},{"time":35374.015000000014,"duration":234.26499999999942,"noteNumber":69,"velocity":34,"programNumber":40},{"time":35608.28000000001,"duration":234.26499999999942,"noteNumber":71,"velocity":34,"programNumber":40},{"time":35842.54500000001,"duration":234.26499999999942,"noteNumber":69,"velocity":34,"programNumber":40},{"time":36076.81000000001,"duration":234.26499999999942,"noteNumber":71,"velocity":34,"programNumber":40},{"time":36311.07500000001,"duration":234.26499999999942,"noteNumber":67,"velocity":34,"programNumber":40},{"time":36545.34000000001,"duration":468.52999999999884,"noteNumber":66,"velocity":34,"programNumber":40},{"time":37599.53250000001,"duration":58.56625000000349,"noteNumber":81,"velocity":34,"programNumber":40},{"time":37658.09875000001,"duration":58.56625000000349,"noteNumber":79,"velocity":34,"programNumber":40},{"time":37716.665000000015,"duration":58.56625000000349,"noteNumber":78,"velocity":34,"programNumber":40},{"time":37775.23125000002,"duration":58.56625000000349,"noteNumber":76,"velocity":34,"programNumber":40},{"time":37833.79750000002,"duration":58.56625000000349,"noteNumber":74,"velocity":34,"programNumber":40},{"time":37892.363750000026,"duration":58.56625000000349,"noteNumber":73,"velocity":34,"programNumber":40},{"time":37950.93000000003,"duration":937.0599999999977,"noteNumber":73,"velocity":34,"programNumber":40},{"time":38887.99000000003,"duration":234.26499999999942,"noteNumber":74,"velocity":34,"programNumber":40},{"time":42167.700000000026,"duration":1405.5899999999965,"noteNumber":86,"velocity":34,"programNumber":40},{"time":43573.29000000002,"duration":468.52999999999884,"noteNumber":86,"velocity":34,"programNumber":40},{"time":44041.82000000002,"duration":234.26499999999942,"noteNumber":91,"velocity":34,"programNumber":40},{"time":44276.08500000002,"duration":234.26499999999942,"noteNumber":86,"velocity":34,"programNumber":40},{"time":44510.35000000002,"duration":234.26499999999942,"noteNumber":84,"velocity":34,"programNumber":40},{"time":44744.61500000002,"duration":234.26499999999942,"noteNumber":83,"velocity":34,"programNumber":40},{"time":44978.88000000002,"duration":19.522083333336923,"noteNumber":84,"velocity":34,"programNumber":40},{"time":44998.402083333356,"duration":39.04416666666657,"noteNumber":83,"velocity":34,"programNumber":40},{"time":45037.44625000002,"duration":19.522083333336923,"noteNumber":84,"velocity":34,"programNumber":40},{"time":45056.96833333336,"duration":39.04416666666657,"noteNumber":83,"velocity":34,"programNumber":40},{"time":45096.012500000026,"duration":19.522083333336923,"noteNumber":84,"velocity":34,"programNumber":40},{"time":45115.53458333336,"duration":39.04416666666657,"noteNumber":83,"velocity":34,"programNumber":40},{"time":45154.57875000003,"duration":19.522083333336923,"noteNumber":84,"velocity":34,"programNumber":40},{"time":45174.10083333337,"duration":39.04416666666657,"noteNumber":83,"velocity":34,"programNumber":40},{"time":45213.14500000003,"duration":19.522083333336923,"noteNumber":84,"velocity":34,"programNumber":40},{"time":45232.66708333337,"duration":39.04416666666657,"noteNumber":83,"velocity":34,"programNumber":40},{"time":45271.71125000004,"duration":19.522083333336923,"noteNumber":84,"velocity":34,"programNumber":40},{"time":45291.23333333337,"duration":39.04416666666657,"noteNumber":83,"velocity":34,"programNumber":40},{"time":45330.27750000004,"duration":19.522083333336923,"noteNumber":84,"velocity":34,"programNumber":40},{"time":45349.79958333338,"duration":39.04416666666657,"noteNumber":83,"velocity":34,"programNumber":40},{"time":45388.843750000044,"duration":19.522083333336923,"noteNumber":84,"velocity":34,"programNumber":40},{"time":45408.36583333338,"duration":39.04416666666657,"noteNumber":83,"velocity":34,"programNumber":40},{"time":45447.41000000005,"duration":468.52999999999884,"noteNumber":81,"velocity":34,"programNumber":40},{"time":46384.470000000045,"duration":468.52999999999884,"noteNumber":76,"velocity":34,"programNumber":40},{"time":46853.000000000044,"duration":117.13249999999971,"noteNumber":76,"velocity":34,"programNumber":40},{"time":46970.13250000004,"duration":117.13249999999971,"noteNumber":78,"velocity":34,"programNumber":40},{"time":47087.26500000004,"duration":117.13249999999971,"noteNumber":80,"velocity":34,"programNumber":40},{"time":47204.39750000004,"duration":117.13249999999971,"noteNumber":81,"velocity":34,"programNumber":40},{"time":47321.53000000004,"duration":117.13249999999971,"noteNumber":83,"velocity":34,"programNumber":40},{"time":47438.66250000004,"duration":117.13249999999971,"noteNumber":84,"velocity":34,"programNumber":40},{"time":47555.79500000004,"duration":117.13249999999971,"noteNumber":86,"velocity":34,"programNumber":40},{"time":47672.92750000004,"duration":117.13249999999971,"noteNumber":83,"velocity":34,"programNumber":40},{"time":47790.06000000004,"duration":234.26499999999942,"noteNumber":86,"velocity":34,"programNumber":40},{"time":48024.32500000004,"duration":468.52999999999884,"noteNumber":84,"velocity":32,"programNumber":40},{"time":48492.85500000004,"duration":117.13249999999971,"noteNumber":86,"velocity":32,"programNumber":40},{"time":48609.98750000004,"duration":117.13249999999971,"noteNumber":84,"velocity":32,"programNumber":40},{"time":48727.12000000004,"duration":234.26499999999942,"noteNumber":88,"velocity":32,"programNumber":40},{"time":48961.38500000004,"duration":234.26499999999942,"noteNumber":79,"velocity":32,"programNumber":40},{"time":49195.65000000004,"duration":468.52999999999884,"noteNumber":78,"velocity":32,"programNumber":40},{"time":50601.240000000034,"duration":78.08833333333314,"noteNumber":67,"velocity":32,"programNumber":40},{"time":50679.32833333337,"duration":78.08833333333314,"noteNumber":74,"velocity":32,"programNumber":40},{"time":50757.4166666667,"duration":78.08833333333314,"noteNumber":71,"velocity":32,"programNumber":40},{"time":50835.505000000034,"duration":78.08833333333314,"noteNumber":67,"velocity":32,"programNumber":40},{"time":50913.59333333337,"duration":78.08833333333314,"noteNumber":62,"velocity":32,"programNumber":40},{"time":50991.6816666667,"duration":78.08833333333314,"noteNumber":59,"velocity":32,"programNumber":40},{"time":51069.77000000003,"duration":234.26499999999942,"noteNumber":55,"velocity":32,"programNumber":40},{"time":51772.56500000003,"duration":234.26499999999942,"noteNumber":77,"velocity":32,"programNumber":40},{"time":52006.83000000003,"duration":234.26499999999942,"noteNumber":76,"velocity":32,"programNumber":40},{"time":52241.09500000003,"duration":468.52999999999884,"noteNumber":88,"velocity":32,"programNumber":40},{"time":52709.62500000003,"duration":117.13249999999971,"noteNumber":86,"velocity":32,"programNumber":40},{"time":52826.75750000003,"duration":117.13249999999971,"noteNumber":84,"velocity":32,"programNumber":40},{"time":52943.89000000003,"duration":117.13249999999971,"noteNumber":83,"velocity":32,"programNumber":40},{"time":53061.02250000003,"duration":117.13249999999971,"noteNumber":81,"velocity":32,"programNumber":40},{"time":53178.15500000003,"duration":234.26499999999942,"noteNumber":79,"velocity":32,"programNumber":40},{"time":53412.42000000003,"duration":117.13249999999971,"noteNumber":78,"velocity":32,"programNumber":40},{"time":53529.55250000003,"duration":117.13249999999971,"noteNumber":76,"velocity":32,"programNumber":40},{"time":53646.68500000003,"duration":117.13249999999971,"noteNumber":74,"velocity":32,"programNumber":40},{"time":53763.81750000003,"duration":117.13249999999971,"noteNumber":76,"velocity":32,"programNumber":40},{"time":53880.950000000026,"duration":468.52999999999884,"noteNumber":74,"velocity":32,"programNumber":40},{"time":57629.190000000024,"duration":702.7949999999983,"noteNumber":84,"velocity":32,"programNumber":40},{"time":58331.98500000002,"duration":234.26499999999942,"noteNumber":81,"velocity":32,"programNumber":40},{"time":58566.25000000002,"duration":234.26499999999942,"noteNumber":78,"velocity":32,"programNumber":40},{"time":58800.51500000002,"duration":234.26499999999942,"noteNumber":72,"velocity":32,"programNumber":40},{"time":59034.78000000002,"duration":234.26499999999942,"noteNumber":74,"velocity":32,"programNumber":40},{"time":59269.04500000002,"duration":234.26499999999942,"noteNumber":72,"velocity":32,"programNumber":40},{"time":59503.31000000002,"duration":468.52999999999884,"noteNumber":71,"velocity":32,"programNumber":40},{"time":60440.37000000002,"duration":702.7949999999983,"noteNumber":76,"velocity":32,"programNumber":40},{"time":61143.165000000015,"duration":234.26499999999942,"noteNumber":79,"velocity":32,"programNumber":40},{"time":61377.430000000015,"duration":58.56625000000349,"noteNumber":81,"velocity":32,"programNumber":40},{"time":61435.99625000002,"duration":117.13249999999971,"noteNumber":79,"velocity":32,"programNumber":40},{"time":61553.12875000002,"duration":58.56625000000349,"noteNumber":79,"velocity":32,"programNumber":40},{"time":61611.69500000002,"duration":117.13249999999971,"noteNumber":78,"velocity":32,"programNumber":40},{"time":61728.82750000002,"duration":117.13249999999971,"noteNumber":76,"velocity":32,"programNumber":40},{"time":61845.96000000002,"duration":468.52999999999884,"noteNumber":74,"velocity":32,"programNumber":40},{"time":62314.49000000002,"duration":234.26499999999942,"noteNumber":78,"velocity":32,"programNumber":40},{"time":62548.75500000002,"duration":117.13249999999971,"noteNumber":76,"velocity":32,"programNumber":40},{"time":62665.88750000002,"duration":117.13249999999971,"noteNumber":78,"velocity":32,"programNumber":40},{"time":62783.02000000002,"duration":117.13249999999971,"noteNumber":79,"velocity":32,"programNumber":40},{"time":62900.15250000002,"duration":117.13249999999971,"noteNumber":81,"velocity":32,"programNumber":40},{"time":63017.28500000002,"duration":117.13249999999971,"noteNumber":83,"velocity":32,"programNumber":40},{"time":63134.41750000002,"duration":117.13249999999971,"noteNumber":84,"velocity":32,"programNumber":40},{"time":63251.55000000002,"duration":351.3974999999991,"noteNumber":86,"velocity":32,"programNumber":40},{"time":63602.94750000002,"duration":58.56625000000349,"noteNumber":88,"velocity":32,"programNumber":40},{"time":63661.51375000002,"duration":58.56625000000349,"noteNumber":86,"velocity":32,"programNumber":40},{"time":63720.08000000002,"duration":468.52999999999884,"noteNumber":84,"velocity":32,"programNumber":40},{"time":64188.61000000002,"duration":468.52999999999884,"noteNumber":83,"velocity":32,"programNumber":40},{"time":64657.14000000002,"duration":19.522083333336923,"noteNumber":84,"velocity":32,"programNumber":40},{"time":64676.66208333336,"duration":39.04416666666657,"noteNumber":83,"velocity":32,"programNumber":40},{"time":64715.706250000025,"duration":19.522083333336923,"noteNumber":84,"velocity":32,"programNumber":40},{"time":64735.22833333336,"duration":39.04416666666657,"noteNumber":83,"velocity":32,"programNumber":40},{"time":64774.27250000003,"duration":19.522083333336923,"noteNumber":84,"velocity":32,"programNumber":40},{"time":64793.794583333365,"duration":39.04416666666657,"noteNumber":83,"velocity":32,"programNumber":40},{"time":64832.83875000003,"duration":19.522083333336923,"noteNumber":84,"velocity":32,"programNumber":40},{"time":64852.36083333337,"duration":39.04416666666657,"noteNumber":83,"velocity":32,"programNumber":40},{"time":64891.405000000035,"duration":19.522083333336923,"noteNumber":84,"velocity":32,"programNumber":40},{"time":64910.92708333337,"duration":39.04416666666657,"noteNumber":83,"velocity":32,"programNumber":40},{"time":64949.97125000004,"duration":19.522083333336923,"noteNumber":84,"velocity":32,"programNumber":40},{"time":64969.493333333376,"duration":39.04416666666657,"noteNumber":83,"velocity":32,"programNumber":40},{"time":65008.53750000004,"duration":19.522083333336923,"noteNumber":84,"velocity":32,"programNumber":40},{"time":65028.05958333338,"duration":39.04416666666657,"noteNumber":83,"velocity":32,"programNumber":40},{"time":65067.103750000046,"duration":19.522083333336923,"noteNumber":84,"velocity":32,"programNumber":40},{"time":65086.62583333338,"duration":39.04416666666657,"noteNumber":83,"velocity":32,"programNumber":40},{"time":65125.67000000005,"duration":468.5300000000061,"noteNumber":81,"velocity":32,"programNumber":40},{"time":66062.73000000005,"duration":702.7949999999983,"noteNumber":74,"velocity":32,"programNumber":40},{"time":66765.52500000005,"duration":117.13250000000698,"noteNumber":76,"velocity":32,"programNumber":40},{"time":66882.65750000006,"duration":117.13250000000698,"noteNumber":74,"velocity":32,"programNumber":40},{"time":66999.79000000007,"duration":117.13250000000698,"noteNumber":79,"velocity":32,"programNumber":40},{"time":67116.92250000007,"duration":117.13250000000698,"noteNumber":78,"velocity":32,"programNumber":40},{"time":67234.05500000008,"duration":117.13250000000698,"noteNumber":76,"velocity":32,"programNumber":40},{"time":67351.18750000009,"duration":117.13250000000698,"noteNumber":74,"velocity":32,"programNumber":40},{"time":67468.3200000001,"duration":117.13250000000698,"noteNumber":74,"velocity":32,"programNumber":40},{"time":67585.4525000001,"duration":117.13250000000698,"noteNumber":76,"velocity":32,"programNumber":40},{"time":67702.58500000011,"duration":234.26499999999942,"noteNumber":74,"velocity":32,"programNumber":40},{"time":68171.1150000001,"duration":234.26499999999942,"noteNumber":86,"velocity":32,"programNumber":40},{"time":68405.3800000001,"duration":234.26499999999942,"noteNumber":86,"velocity":32,"programNumber":40},{"time":68639.6450000001,"duration":234.26499999999942,"noteNumber":86,"velocity":32,"programNumber":40},{"time":68873.9100000001,"duration":117.13250000000698,"noteNumber":86,"velocity":32,"programNumber":40},{"time":68991.04250000011,"duration":117.13250000000698,"noteNumber":83,"velocity":32,"programNumber":40},{"time":69108.17500000012,"duration":234.26499999999942,"noteNumber":84,"velocity":32,"programNumber":40},{"time":69576.70500000012,"duration":234.26499999999942,"noteNumber":84,"velocity":32,"programNumber":40},{"time":69810.97000000012,"duration":234.26499999999942,"noteNumber":84,"velocity":30,"programNumber":40},{"time":70045.23500000012,"duration":234.26499999999942,"noteNumber":84,"velocity":30,"programNumber":40},{"time":70279.50000000012,"duration":117.13250000000698,"noteNumber":84,"velocity":30,"programNumber":40},{"time":70396.63250000012,"duration":117.13250000000698,"noteNumber":81,"velocity":30,"programNumber":40},{"time":70513.76500000013,"duration":234.26499999999942,"noteNumber":83,"velocity":30,"programNumber":40},{"time":70982.29500000013,"duration":234.26499999999942,"noteNumber":83,"velocity":30,"programNumber":40},{"time":71216.56000000013,"duration":234.26499999999942,"noteNumber":83,"velocity":30,"programNumber":40},{"time":71450.82500000013,"duration":234.26499999999942,"noteNumber":83,"velocity":30,"programNumber":40},{"time":71685.09000000013,"duration":468.52999999999884,"noteNumber":81,"velocity":30,"programNumber":40},{"time":74496.27000000012,"duration":117.13250000000698,"noteNumber":83,"velocity":30,"programNumber":40},{"time":74613.40250000013,"duration":117.13250000000698,"noteNumber":81,"velocity":30,"programNumber":40},{"time":74730.53500000013,"duration":117.13250000000698,"noteNumber":83,"velocity":30,"programNumber":40},{"time":74847.66750000014,"duration":117.13250000000698,"noteNumber":84,"velocity":30,"programNumber":40},{"time":74964.80000000015,"duration":234.26499999999942,"noteNumber":86,"velocity":30,"programNumber":40},{"time":75199.06500000015,"duration":234.26499999999942,"noteNumber":79,"velocity":30,"programNumber":40},{"time":75433.33000000015,"duration":234.26499999999942,"noteNumber":79,"velocity":30,"programNumber":40},{"time":75667.59500000015,"duration":234.26499999999942,"noteNumber":79,"velocity":30,"programNumber":40},{"time":75901.86000000015,"duration":117.13250000000698,"noteNumber":84,"velocity":30,"programNumber":40},{"time":76018.99250000015,"duration":117.13250000000698,"noteNumber":81,"velocity":30,"programNumber":40},{"time":76136.12500000016,"duration":117.13250000000698,"noteNumber":83,"velocity":30,"programNumber":40},{"time":76253.25750000017,"duration":117.13250000000698,"noteNumber":79,"velocity":30,"programNumber":40},{"time":76370.39000000017,"duration":117.13250000000698,"noteNumber":79,"velocity":30,"programNumber":40},{"time":76487.52250000018,"duration":117.13250000000698,"noteNumber":78,"velocity":30,"programNumber":40},{"time":76604.65500000019,"duration":117.13250000000698,"noteNumber":81,"velocity":30,"programNumber":40},{"time":76721.7875000002,"duration":117.13250000000698,"noteNumber":78,"velocity":30,"programNumber":40},{"time":76838.9200000002,"duration":468.52999999999884,"noteNumber":74,"velocity":30,"programNumber":40},{"time":77307.4500000002,"duration":2830.702083333337,"noteNumber":86,"velocity":30,"programNumber":40},{"time":80235.7625000002,"duration":234.26499999999942,"noteNumber":67,"velocity":30,"programNumber":40},{"time":80470.0275000002,"duration":234.26499999999942,"noteNumber":71,"velocity":30,"programNumber":40},{"time":80704.2925000002,"duration":234.26499999999942,"noteNumber":74,"velocity":30,"programNumber":40},{"time":80938.5575000002,"duration":234.26499999999942,"noteNumber":79,"velocity":30,"programNumber":40},{"time":81172.8225000002,"duration":234.26499999999942,"noteNumber":86,"velocity":30,"programNumber":40},{"time":81407.0875000002,"duration":117.13250000000698,"noteNumber":77,"velocity":30,"programNumber":40},{"time":81524.2200000002,"duration":78.08833333333314,"noteNumber":76,"velocity":30,"programNumber":40},{"time":81602.30833333354,"duration":78.08833333333314,"noteNumber":79,"velocity":30,"programNumber":40},{"time":81680.39666666687,"duration":78.08833333333314,"noteNumber":76,"velocity":30,"programNumber":40},{"time":81758.4850000002,"duration":78.08833333333314,"noteNumber":72,"velocity":30,"programNumber":40},{"time":81836.57333333354,"duration":78.08833333333314,"noteNumber":76,"velocity":30,"programNumber":40},{"time":81914.66166666687,"duration":78.08833333333314,"noteNumber":72,"velocity":30,"programNumber":40},{"time":81992.7500000002,"duration":78.08833333333314,"noteNumber":67,"velocity":30,"programNumber":40},{"time":82070.83833333354,"duration":78.08833333333314,"noteNumber":72,"velocity":30,"programNumber":40},{"time":82148.92666666687,"duration":78.08833333333314,"noteNumber":67,"velocity":30,"programNumber":40},{"time":82227.0150000002,"duration":78.08833333333314,"noteNumber":64,"velocity":30,"programNumber":40},{"time":82305.10333333354,"duration":78.08833333333314,"noteNumber":67,"velocity":30,"programNumber":40},{"time":82383.19166666687,"duration":78.08833333333314,"noteNumber":64,"velocity":30,"programNumber":40},{"time":82461.2800000002,"duration":117.13250000000698,"noteNumber":60,"velocity":30,"programNumber":40},{"time":82578.41250000021,"duration":117.13250000000698,"noteNumber":79,"velocity":30,"programNumber":40},{"time":82695.54500000022,"duration":117.13250000000698,"noteNumber":76,"velocity":30,"programNumber":40},{"time":82812.67750000022,"duration":117.13250000000698,"noteNumber":72,"velocity":30,"programNumber":40},{"time":82929.81000000023,"duration":58.56625000000349,"noteNumber":71,"velocity":30,"programNumber":40},{"time":82988.37625000023,"duration":58.56625000000349,"noteNumber":74,"velocity":30,"programNumber":40},{"time":83046.94250000024,"duration":58.56625000000349,"noteNumber":72,"velocity":30,"programNumber":40},{"time":83105.50875000024,"duration":58.56625000000349,"noteNumber":71,"velocity":30,"programNumber":40},{"time":83164.07500000024,"duration":58.56625000000349,"noteNumber":72,"velocity":30,"programNumber":40},{"time":83222.64125000025,"duration":58.56625000000349,"noteNumber":74,"velocity":30,"programNumber":40},{"time":83281.20750000025,"duration":58.56625000000349,"noteNumber":76,"velocity":30,"programNumber":40},{"time":83339.77375000025,"duration":58.56625000000349,"noteNumber":77,"velocity":30,"programNumber":40},{"time":83398.34000000026,"duration":58.56625000000349,"noteNumber":79,"velocity":30,"programNumber":40},{"time":83456.90625000026,"duration":58.56625000000349,"noteNumber":81,"velocity":30,"programNumber":40},{"time":83515.47250000027,"duration":58.56625000000349,"noteNumber":83,"velocity":30,"programNumber":40},{"time":83574.03875000027,"duration":58.56625000000349,"noteNumber":84,"velocity":30,"programNumber":40},{"time":83632.60500000027,"duration":117.13250000000698,"noteNumber":86,"velocity":30,"programNumber":40},{"time":83749.73750000028,"duration":25.378708333329996,"noteNumber":83,"velocity":30,"programNumber":40},{"time":83780.97283333361,"duration":27.330916666673147,"noteNumber":81,"velocity":30,"programNumber":40},{"time":83812.20816666695,"duration":25.378708333329996,"noteNumber":83,"velocity":30,"programNumber":40},{"time":83839.53908333361,"duration":21.474291666672798,"noteNumber":81,"velocity":30,"programNumber":40},{"time":83868.82220833361,"duration":25.378708333329996,"noteNumber":83,"velocity":30,"programNumber":40},{"time":83900.05754166695,"duration":27.330916666673147,"noteNumber":81,"velocity":30,"programNumber":40},{"time":83931.29287500029,"duration":25.378708333329996,"noteNumber":83,"velocity":30,"programNumber":40},{"time":83958.62379166695,"duration":21.474291666672798,"noteNumber":81,"velocity":30,"programNumber":40},{"time":83987.90691666695,"duration":25.378708333329996,"noteNumber":83,"velocity":30,"programNumber":40},{"time":84019.14225000028,"duration":27.330916666673147,"noteNumber":81,"velocity":30,"programNumber":40},{"time":84050.37758333363,"duration":25.378708333329996,"noteNumber":83,"velocity":30,"programNumber":40},{"time":84077.70850000028,"duration":21.474291666672798,"noteNumber":81,"velocity":30,"programNumber":40},{"time":84105.03941666696,"duration":25.378708333329996,"noteNumber":83,"velocity":30,"programNumber":40},{"time":84136.27475000029,"duration":27.330916666673147,"noteNumber":81,"velocity":30,"programNumber":40},{"time":84167.51008333363,"duration":25.378708333329996,"noteNumber":83,"velocity":30,"programNumber":40},{"time":84194.84100000029,"duration":21.474291666672798,"noteNumber":81,"velocity":30,"programNumber":40},{"time":84220.21970833364,"duration":25.378708333329996,"noteNumber":83,"velocity":30,"programNumber":40},{"time":84251.45504166697,"duration":27.330916666673147,"noteNumber":81,"velocity":30,"programNumber":40},{"time":84282.69037500031,"duration":25.378708333329996,"noteNumber":83,"velocity":30,"programNumber":40},{"time":84310.02129166697,"duration":21.474291666672798,"noteNumber":81,"velocity":30,"programNumber":40},{"time":84335.40000000031,"duration":117.13250000000698,"noteNumber":79,"velocity":30,"programNumber":40},{"time":84452.53250000032,"duration":58.56625000000349,"noteNumber":81,"velocity":30,"programNumber":40},{"time":84511.09875000032,"duration":58.56625000000349,"noteNumber":83,"velocity":30,"programNumber":40},{"time":84569.66500000033,"duration":58.56625000000349,"noteNumber":84,"velocity":30,"programNumber":40},{"time":84628.23125000033,"duration":58.56625000000349,"noteNumber":86,"velocity":30,"programNumber":40},{"time":84686.79750000034,"duration":58.56625000000349,"noteNumber":88,"velocity":30,"programNumber":40},{"time":84745.36375000034,"duration":58.56625000000349,"noteNumber":90,"velocity":30,"programNumber":40},{"time":84803.93000000034,"duration":234.26499999999942,"noteNumber":91,"velocity":30,"programNumber":40},{"time":87146.58000000034,"duration":1405.5899999999965,"noteNumber":89,"velocity":30,"programNumber":40},{"time":88552.17000000033,"duration":117.13250000000698,"noteNumber":89,"velocity":30,"programNumber":40},{"time":88669.30250000034,"duration":117.13250000000698,"noteNumber":88,"velocity":30,"programNumber":40},{"time":88786.43500000035,"duration":117.13250000000698,"noteNumber":86,"velocity":30,"programNumber":40},{"time":88903.56750000035,"duration":117.13250000000698,"noteNumber":84,"velocity":30,"programNumber":40},{"time":89020.70000000036,"duration":468.52999999999884,"noteNumber":83,"velocity":30,"programNumber":40},{"time":89489.23000000036,"duration":19.522083333329647,"noteNumber":83,"velocity":30,"programNumber":40},{"time":89508.75208333369,"duration":39.044166666673846,"noteNumber":81,"velocity":30,"programNumber":40},{"time":89547.79625000036,"duration":19.522083333329647,"noteNumber":83,"velocity":30,"programNumber":40},{"time":89567.3183333337,"duration":39.044166666673846,"noteNumber":81,"velocity":30,"programNumber":40},{"time":89606.36250000037,"duration":19.522083333329647,"noteNumber":83,"velocity":30,"programNumber":40},{"time":89625.8845833337,"duration":39.044166666673846,"noteNumber":81,"velocity":30,"programNumber":40},{"time":89664.92875000037,"duration":19.522083333329647,"noteNumber":83,"velocity":30,"programNumber":40},{"time":89684.4508333337,"duration":39.044166666673846,"noteNumber":81,"velocity":30,"programNumber":40},{"time":89723.49500000037,"duration":19.522083333329647,"noteNumber":83,"velocity":30,"programNumber":40},{"time":89743.0170833337,"duration":39.044166666673846,"noteNumber":81,"velocity":30,"programNumber":40},{"time":89782.06125000038,"duration":19.522083333329647,"noteNumber":83,"velocity":30,"programNumber":40},{"time":89801.5833333337,"duration":39.044166666673846,"noteNumber":81,"velocity":30,"programNumber":40},{"time":89840.62750000038,"duration":39.044166666673846,"noteNumber":81,"velocity":30,"programNumber":40},{"time":89879.67166666705,"duration":39.044166666673846,"noteNumber":79,"velocity":30,"programNumber":40},{"time":89918.71583333373,"duration":39.044166666673846,"noteNumber":81,"velocity":30,"programNumber":40},{"time":89957.7600000004,"duration":234.26499999999942,"noteNumber":79,"velocity":30,"programNumber":40},{"time":90192.0250000004,"duration":234.26499999999942,"noteNumber":74,"velocity":29,"programNumber":40},{"time":90426.2900000004,"duration":234.26499999999942,"noteNumber":76,"velocity":29,"programNumber":40},{"time":90660.5550000004,"duration":234.26499999999942,"noteNumber":74,"velocity":29,"programNumber":40},{"time":90894.8200000004,"duration":234.26499999999942,"noteNumber":76,"velocity":29,"programNumber":40},{"time":91129.0850000004,"duration":234.26499999999942,"noteNumber":72,"velocity":29,"programNumber":40},{"time":91363.3500000004,"duration":468.52999999999884,"noteNumber":71,"velocity":29,"programNumber":40},{"time":92417.5425000004,"duration":58.56625000000349,"noteNumber":86,"velocity":29,"programNumber":40},{"time":92476.1087500004,"duration":58.56625000000349,"noteNumber":84,"velocity":29,"programNumber":40},{"time":92534.67500000041,"duration":58.56625000000349,"noteNumber":83,"velocity":29,"programNumber":40},{"time":92593.24125000041,"duration":58.56625000000349,"noteNumber":81,"velocity":29,"programNumber":40},{"time":92651.80750000042,"duration":58.56625000000349,"noteNumber":79,"velocity":29,"programNumber":40},{"time":92710.37375000042,"duration":58.56625000000349,"noteNumber":78,"velocity":29,"programNumber":40},{"time":92768.94000000042,"duration":937.0599999999977,"noteNumber":78,"velocity":29,"programNumber":40},{"time":93706.00000000042,"duration":234.26499999999942,"noteNumber":79,"velocity":29,"programNumber":40},{"time":94174.53000000042,"duration":468.52999999999884,"noteNumber":79,"velocity":94,"programNumber":40},{"time":94643.06000000042,"duration":58.56625000000349,"noteNumber":81,"velocity":79,"programNumber":40},{"time":94701.62625000042,"duration":58.56625000000349,"noteNumber":79,"velocity":79,"programNumber":40},{"time":94760.19250000043,"duration":117.13250000000698,"noteNumber":78,"velocity":79,"programNumber":40},{"time":94877.32500000043,"duration":117.13250000000698,"noteNumber":79,"velocity":79,"programNumber":40},{"time":94994.45750000044,"duration":117.13250000000698,"noteNumber":81,"velocity":79,"programNumber":40},{"time":95111.59000000045,"duration":234.26499999999942,"noteNumber":79,"velocity":79,"programNumber":40},{"time":95345.85500000045,"duration":234.26499999999942,"noteNumber":79,"velocity":79,"programNumber":40},{"time":95580.12000000045,"duration":234.26499999999942,"noteNumber":78,"velocity":79,"programNumber":40},{"time":95814.38500000045,"duration":234.26499999999942,"noteNumber":81,"velocity":79,"programNumber":40},{"time":96048.65000000045,"duration":234.26499999999942,"noteNumber":79,"velocity":79,"programNumber":40},{"time":96282.91500000044,"duration":234.26499999999942,"noteNumber":83,"velocity":79,"programNumber":40},{"time":96517.18000000044,"duration":234.26499999999942,"noteNumber":81,"velocity":79,"programNumber":40},{"time":96751.44500000044,"duration":234.26499999999942,"noteNumber":84,"velocity":79,"programNumber":40},{"time":96985.71000000044,"duration":234.26499999999942,"noteNumber":83,"velocity":79,"programNumber":40},{"time":97922.77000000044,"duration":937.0599999999977,"noteNumber":79,"velocity":79,"programNumber":40},{"time":98859.83000000044,"duration":937.0599999999977,"noteNumber":74,"velocity":79,"programNumber":40},{"time":99796.89000000044,"duration":234.26499999999942,"noteNumber":72,"velocity":79,"programNumber":40},{"time":100031.15500000044,"duration":234.26499999999942,"noteNumber":71,"velocity":79,"programNumber":40},{"time":100265.42000000043,"duration":234.26499999999942,"noteNumber":69,"velocity":79,"programNumber":40},{"time":100499.68500000043,"duration":234.26499999999942,"noteNumber":67,"velocity":79,"programNumber":40},{"time":100733.95000000043,"duration":468.52999999999884,"noteNumber":74,"velocity":79,"programNumber":40},{"time":101202.48000000043,"duration":468.52999999999884,"noteNumber":62,"velocity":79,"programNumber":40},{"time":101671.01000000043,"duration":468.52999999999884,"noteNumber":67,"velocity":79,"programNumber":40},{"time":102139.54000000043,"duration":58.56625000000349,"noteNumber":81,"velocity":79,"programNumber":40},{"time":102198.10625000043,"duration":58.56625000000349,"noteNumber":79,"velocity":79,"programNumber":40},{"time":102256.67250000044,"duration":117.13250000000698,"noteNumber":78,"velocity":79,"programNumber":40},{"time":102373.80500000044,"duration":117.13250000000698,"noteNumber":79,"velocity":79,"programNumber":40},{"time":102490.93750000045,"duration":117.13250000000698,"noteNumber":81,"velocity":79,"programNumber":40},{"time":102608.07000000046,"duration":234.26499999999942,"noteNumber":79,"velocity":79,"programNumber":40},{"time":102842.33500000046,"duration":234.26499999999942,"noteNumber":79,"velocity":79,"programNumber":40},{"time":103076.60000000046,"duration":234.26499999999942,"noteNumber":78,"velocity":79,"programNumber":40},{"time":103310.86500000046,"duration":234.26499999999942,"noteNumber":81,"velocity":79,"programNumber":40},{"time":103545.13000000046,"duration":234.26499999999942,"noteNumber":79,"velocity":79,"programNumber":40},{"time":103779.39500000046,"duration":234.26499999999942,"noteNumber":83,"velocity":79,"programNumber":40},{"time":104013.66000000045,"duration":234.26499999999942,"noteNumber":81,"velocity":79,"programNumber":40},{"time":104247.92500000045,"duration":234.26499999999942,"noteNumber":84,"velocity":79,"programNumber":40},{"time":104482.19000000045,"duration":234.26499999999942,"noteNumber":83,"velocity":79,"programNumber":40},{"time":105419.25000000045,"duration":937.0599999999977,"noteNumber":79,"velocity":79,"programNumber":40},{"time":106356.31000000045,"duration":937.0599999999977,"noteNumber":74,"velocity":79,"programNumber":40},{"time":107293.37000000045,"duration":234.26499999999942,"noteNumber":72,"velocity":79,"programNumber":40},{"time":107527.63500000045,"duration":234.26499999999942,"noteNumber":71,"velocity":79,"programNumber":40},{"time":107761.90000000045,"duration":234.26499999999942,"noteNumber":69,"velocity":79,"programNumber":40},{"time":107996.16500000044,"duration":234.26499999999942,"noteNumber":67,"velocity":79,"programNumber":40},{"time":108230.43000000044,"duration":468.52999999999884,"noteNumber":74,"velocity":79,"programNumber":40},{"time":108698.96000000044,"duration":468.52999999999884,"noteNumber":62,"velocity":79,"programNumber":40},{"time":109167.49000000044,"duration":468.52999999999884,"noteNumber":67,"velocity":79,"programNumber":40},{"time":110104.55000000044,"duration":702.7949999999983,"noteNumber":79,"velocity":79,"programNumber":40},{"time":110807.34500000044,"duration":117.13250000000698,"noteNumber":83,"velocity":79,"programNumber":40},{"time":110924.47750000044,"duration":117.13250000000698,"noteNumber":79,"velocity":79,"programNumber":40},{"time":111041.61000000045,"duration":468.52999999999884,"noteNumber":78,"velocity":79,"programNumber":40},{"time":111978.67000000045,"duration":702.7949999999983,"noteNumber":81,"velocity":79,"programNumber":40},{"time":112681.46500000045,"duration":117.13250000000698,"noteNumber":84,"velocity":79,"programNumber":40},{"time":112798.59750000045,"duration":117.13250000000698,"noteNumber":81,"velocity":79,"programNumber":40},{"time":112915.73000000046,"duration":468.52999999999884,"noteNumber":79,"velocity":79,"programNumber":40},{"time":113852.79000000046,"duration":702.7949999999983,"noteNumber":79,"velocity":79,"programNumber":40},{"time":114555.58500000046,"duration":117.13250000000698,"noteNumber":83,"velocity":79,"programNumber":40},{"time":114672.71750000046,"duration":117.13250000000698,"noteNumber":79,"velocity":79,"programNumber":40},{"time":114789.85000000047,"duration":468.52999999999884,"noteNumber":78,"velocity":79,"programNumber":40},{"time":115726.91000000047,"duration":702.7949999999983,"noteNumber":81,"velocity":79,"programNumber":40},{"time":116429.70500000047,"duration":117.13250000000698,"noteNumber":84,"velocity":79,"programNumber":40},{"time":116546.83750000047,"duration":117.13250000000698,"noteNumber":81,"velocity":79,"programNumber":40},{"time":116663.97000000048,"duration":234.26499999999942,"noteNumber":79,"velocity":79,"programNumber":40},{"time":116898.23500000048,"duration":234.26499999999942,"noteNumber":55,"velocity":79,"programNumber":40},{"time":117132.50000000048,"duration":234.26499999999942,"noteNumber":57,"velocity":79,"programNumber":40},{"time":117366.76500000048,"duration":234.26499999999942,"noteNumber":59,"velocity":79,"programNumber":40},{"time":117601.03000000048,"duration":234.26499999999942,"noteNumber":60,"velocity":79,"programNumber":40},{"time":117835.29500000048,"duration":234.26499999999942,"noteNumber":62,"velocity":79,"programNumber":40},{"time":118069.56000000048,"duration":234.26499999999942,"noteNumber":64,"velocity":79,"programNumber":40},{"time":118303.82500000048,"duration":234.26499999999942,"noteNumber":66,"velocity":79,"programNumber":40},{"time":118538.09000000048,"duration":234.26499999999942,"noteNumber":67,"velocity":79,"programNumber":40},{"time":118772.35500000048,"duration":234.26499999999942,"noteNumber":66,"velocity":79,"programNumber":40},{"time":119006.62000000048,"duration":234.26499999999942,"noteNumber":64,"velocity":79,"programNumber":40},{"time":119240.88500000047,"duration":234.26499999999942,"noteNumber":62,"velocity":79,"programNumber":40},{"time":119475.15000000047,"duration":234.26499999999942,"noteNumber":60,"velocity":79,"programNumber":40},{"time":119709.41500000047,"duration":234.26499999999942,"noteNumber":59,"velocity":79,"programNumber":40},{"time":119943.68000000047,"duration":234.26499999999942,"noteNumber":57,"velocity":79,"programNumber":40},{"time":120177.94500000047,"duration":234.26499999999942,"noteNumber":55,"velocity":79,"programNumber":40},{"time":120412.21000000047,"duration":468.52999999999884,"noteNumber":62,"velocity":79,"programNumber":40},{"time":120880.74000000047,"duration":468.52999999999884,"noteNumber":78,"velocity":79,"programNumber":40},{"time":121349.27000000047,"duration":468.52999999999884,"noteNumber":78,"velocity":79,"programNumber":40},{"time":122286.33000000047,"duration":937.0599999999977,"noteNumber":74,"velocity":79,"programNumber":40},{"time":123223.39000000047,"duration":468.52999999999884,"noteNumber":78,"velocity":79,"programNumber":40},{"time":123691.92000000046,"duration":468.52999999999884,"noteNumber":81,"velocity":79,"programNumber":40},{"time":124160.45000000046,"duration":1405.5899999999965,"noteNumber":86,"velocity":79,"programNumber":40},{"time":125566.04000000046,"duration":468.52999999999884,"noteNumber":88,"velocity":79,"programNumber":40},{"time":126034.57000000046,"duration":468.52999999999884,"noteNumber":90,"velocity":79,"programNumber":40},{"time":126503.10000000046,"duration":937.0599999999977,"noteNumber":90,"velocity":79,"programNumber":40},{"time":127440.16000000045,"duration":234.26499999999942,"noteNumber":91,"velocity":79,"programNumber":40},{"time":127674.42500000045,"duration":234.26499999999942,"noteNumber":88,"velocity":79,"programNumber":40},{"time":127908.69000000045,"duration":468.52999999999884,"noteNumber":90,"velocity":79,"programNumber":40},{"time":128377.22000000045,"duration":937.0599999999977,"noteNumber":78,"velocity":79,"programNumber":40},{"time":129314.28000000045,"duration":234.26499999999942,"noteNumber":79,"velocity":79,"programNumber":40},{"time":129548.54500000045,"duration":234.26499999999942,"noteNumber":76,"velocity":79,"programNumber":40},{"time":129782.81000000045,"duration":937.0599999999977,"noteNumber":74,"velocity":79,"programNumber":40},{"time":130719.87000000045,"duration":468.5300000000134,"noteNumber":78,"velocity":79,"programNumber":40},{"time":131188.40000000046,"duration":468.52999999999884,"noteNumber":81,"velocity":79,"programNumber":40},{"time":131656.93000000046,"duration":117.13250000000698,"noteNumber":86,"velocity":79,"programNumber":40},{"time":131774.06250000047,"duration":117.13250000000698,"noteNumber":81,"velocity":79,"programNumber":40},{"time":131891.19500000047,"duration":117.13250000000698,"noteNumber":83,"velocity":79,"programNumber":40},{"time":132008.32750000048,"duration":117.13250000000698,"noteNumber":81,"velocity":79,"programNumber":40},{"time":132125.4600000005,"duration":117.13250000000698,"noteNumber":86,"velocity":79,"programNumber":40},{"time":132242.5925000005,"duration":117.13250000000698,"noteNumber":81,"velocity":79,"programNumber":40},{"time":132359.7250000005,"duration":117.13250000000698,"noteNumber":83,"velocity":79,"programNumber":40},{"time":132476.8575000005,"duration":117.13250000000698,"noteNumber":81,"velocity":79,"programNumber":40},{"time":132593.99000000051,"duration":234.26500000001397,"noteNumber":86,"velocity":79,"programNumber":40},{"time":133531.05000000054,"duration":468.52999999999884,"noteNumber":91,"velocity":79,"programNumber":40},{"time":133999.58000000054,"duration":937.0599999999977,"noteNumber":90,"velocity":79,"programNumber":40},{"time":134936.64000000054,"duration":468.52999999999884,"noteNumber":88,"velocity":79,"programNumber":40},{"time":135405.17000000054,"duration":117.13250000000698,"noteNumber":86,"velocity":79,"programNumber":40},{"time":135522.30250000054,"duration":117.13250000000698,"noteNumber":81,"velocity":79,"programNumber":40},{"time":135639.43500000055,"duration":117.13250000000698,"noteNumber":83,"velocity":79,"programNumber":40},{"time":135756.56750000056,"duration":117.13250000000698,"noteNumber":81,"velocity":79,"programNumber":40},{"time":135873.70000000056,"duration":117.13250000000698,"noteNumber":86,"velocity":79,"programNumber":40},{"time":135990.83250000057,"duration":117.13250000000698,"noteNumber":81,"velocity":79,"programNumber":40},{"time":136107.96500000058,"duration":117.13250000000698,"noteNumber":83,"velocity":79,"programNumber":40},{"time":136225.0975000006,"duration":117.13250000000698,"noteNumber":81,"velocity":79,"programNumber":40},{"time":136342.2300000006,"duration":234.26500000001397,"noteNumber":86,"velocity":79,"programNumber":40},{"time":137279.29000000062,"duration":468.52999999999884,"noteNumber":91,"velocity":79,"programNumber":40},{"time":137747.82000000062,"duration":937.0599999999977,"noteNumber":90,"velocity":79,"programNumber":40},{"time":138684.88000000062,"duration":468.52999999999884,"noteNumber":88,"velocity":79,"programNumber":40},{"time":139153.41000000061,"duration":468.52999999999884,"noteNumber":86,"velocity":79,"programNumber":40},{"time":141144.66250000062,"duration":117.13250000000698,"noteNumber":67,"velocity":79,"programNumber":40},{"time":141261.79500000062,"duration":117.13250000000698,"noteNumber":69,"velocity":79,"programNumber":40},{"time":141378.92750000063,"duration":117.13250000000698,"noteNumber":71,"velocity":79,"programNumber":40},{"time":141496.06000000064,"duration":117.13250000000698,"noteNumber":72,"velocity":79,"programNumber":40},{"time":141613.19250000064,"duration":117.13250000000698,"noteNumber":74,"velocity":79,"programNumber":40},{"time":141730.32500000065,"duration":117.13250000000698,"noteNumber":76,"velocity":79,"programNumber":40},{"time":141847.45750000066,"duration":117.13250000000698,"noteNumber":78,"velocity":79,"programNumber":40},{"time":141964.59000000067,"duration":117.13250000000698,"noteNumber":79,"velocity":79,"programNumber":40},{"time":142081.72250000067,"duration":117.13250000000698,"noteNumber":74,"velocity":79,"programNumber":40},{"time":142198.85500000068,"duration":117.13250000000698,"noteNumber":76,"velocity":79,"programNumber":40},{"time":142315.9875000007,"duration":117.13250000000698,"noteNumber":78,"velocity":79,"programNumber":40},{"time":142433.1200000007,"duration":117.13250000000698,"noteNumber":79,"velocity":79,"programNumber":40},{"time":142550.2525000007,"duration":117.13250000000698,"noteNumber":81,"velocity":79,"programNumber":40},{"time":142667.3850000007,"duration":117.13250000000698,"noteNumber":83,"velocity":79,"programNumber":40},{"time":142784.51750000071,"duration":117.13250000000698,"noteNumber":84,"velocity":79,"programNumber":40},{"time":142901.65000000072,"duration":937.0599999999977,"noteNumber":86,"velocity":79,"programNumber":40},{"time":143838.71000000072,"duration":468.52999999999884,"noteNumber":85,"velocity":79,"programNumber":40},{"time":144307.24000000072,"duration":468.52999999999884,"noteNumber":83,"velocity":79,"programNumber":40},{"time":144775.77000000072,"duration":702.7950000000128,"noteNumber":81,"velocity":79,"programNumber":40},{"time":145478.56500000073,"duration":234.26500000001397,"noteNumber":83,"velocity":79,"programNumber":40},{"time":145712.83000000074,"duration":468.52999999999884,"noteNumber":74,"velocity":79,"programNumber":40},{"time":146181.36000000074,"duration":468.52999999999884,"noteNumber":73,"velocity":79,"programNumber":40},{"time":146649.89000000074,"duration":117.13250000000698,"noteNumber":62,"velocity":79,"programNumber":40},{"time":146767.02250000075,"duration":117.13250000000698,"noteNumber":74,"velocity":79,"programNumber":40},{"time":146884.15500000076,"duration":117.13250000000698,"noteNumber":73,"velocity":79,"programNumber":40},{"time":147001.28750000076,"duration":117.13250000000698,"noteNumber":74,"velocity":79,"programNumber":40},{"time":147118.42000000077,"duration":117.13250000000698,"noteNumber":72,"velocity":79,"programNumber":40},{"time":147235.55250000078,"duration":117.13250000000698,"noteNumber":74,"velocity":79,"programNumber":40},{"time":147352.68500000078,"duration":117.13250000000698,"noteNumber":71,"velocity":79,"programNumber":40},{"time":147469.8175000008,"duration":117.13250000000698,"noteNumber":74,"velocity":79,"programNumber":40},{"time":147586.9500000008,"duration":117.13250000000698,"noteNumber":69,"velocity":79,"programNumber":40},{"time":147704.0825000008,"duration":117.13250000000698,"noteNumber":74,"velocity":79,"programNumber":40},{"time":147821.2150000008,"duration":117.13250000000698,"noteNumber":71,"velocity":79,"programNumber":40},{"time":147938.34750000082,"duration":117.13250000000698,"noteNumber":74,"velocity":79,"programNumber":40},{"time":148055.48000000083,"duration":117.13250000000698,"noteNumber":72,"velocity":79,"programNumber":40},{"time":148172.61250000083,"duration":117.13250000000698,"noteNumber":74,"velocity":79,"programNumber":40},{"time":148289.74500000084,"duration":117.13250000000698,"noteNumber":69,"velocity":79,"programNumber":40},{"time":148406.87750000085,"duration":117.13250000000698,"noteNumber":74,"velocity":79,"programNumber":40},{"time":148524.01000000085,"duration":468.52999999999884,"noteNumber":71,"velocity":79,"programNumber":40},{"time":149578.20250000086,"duration":117.13250000000698,"noteNumber":71,"velocity":79,"programNumber":40},{"time":149695.33500000086,"duration":117.13250000000698,"noteNumber":72,"velocity":79,"programNumber":40},{"time":149812.46750000087,"duration":117.13250000000698,"noteNumber":74,"velocity":79,"programNumber":40},{"time":149929.60000000088,"duration":117.13250000000698,"noteNumber":76,"velocity":79,"programNumber":40},{"time":150046.7325000009,"duration":117.13250000000698,"noteNumber":78,"velocity":79,"programNumber":40},{"time":150163.8650000009,"duration":117.13250000000698,"noteNumber":79,"velocity":79,"programNumber":40},{"time":150280.9975000009,"duration":117.13250000000698,"noteNumber":81,"velocity":79,"programNumber":40},{"time":150398.1300000009,"duration":937.0599999999977,"noteNumber":83,"velocity":79,"programNumber":40},{"time":151335.1900000009,"duration":468.52999999999884,"noteNumber":81,"velocity":79,"programNumber":40},{"time":151803.7200000009,"duration":468.52999999999884,"noteNumber":79,"velocity":79,"programNumber":40},{"time":152272.2500000009,"duration":702.7950000000128,"noteNumber":78,"velocity":79,"programNumber":40},{"time":152975.04500000092,"duration":234.26500000001397,"noteNumber":79,"velocity":79,"programNumber":40},{"time":153209.31000000093,"duration":468.52999999999884,"noteNumber":78,"velocity":79,"programNumber":40},{"time":153677.84000000093,"duration":468.52999999999884,"noteNumber":76,"velocity":79,"programNumber":40},{"time":154146.37000000093,"duration":468.52999999999884,"noteNumber":74,"velocity":79,"programNumber":40},{"time":154614.90000000093,"duration":117.13250000000698,"noteNumber":81,"velocity":79,"programNumber":40},{"time":154732.03250000093,"duration":117.13250000000698,"noteNumber":79,"velocity":79,"programNumber":40},{"time":154849.16500000094,"duration":117.13250000000698,"noteNumber":78,"velocity":79,"programNumber":40},{"time":154966.29750000095,"duration":117.13250000000698,"noteNumber":76,"velocity":79,"programNumber":40},{"time":155083.43000000095,"duration":234.26500000001397,"noteNumber":78,"velocity":79,"programNumber":40},{"time":155317.69500000097,"duration":234.26500000001397,"noteNumber":81,"velocity":79,"programNumber":40},{"time":155786.225000001,"duration":234.26500000001397,"noteNumber":73,"velocity":79,"programNumber":40},{"time":156020.490000001,"duration":468.52999999999884,"noteNumber":74,"velocity":79,"programNumber":40},{"time":156489.020000001,"duration":117.13250000000698,"noteNumber":81,"velocity":79,"programNumber":40},{"time":156606.15250000102,"duration":117.13250000000698,"noteNumber":79,"velocity":79,"programNumber":40},{"time":156723.28500000102,"duration":117.13250000000698,"noteNumber":78,"velocity":79,"programNumber":40},{"time":156840.41750000103,"duration":117.13250000000698,"noteNumber":76,"velocity":79,"programNumber":40},{"time":156957.55000000104,"duration":234.26500000001397,"noteNumber":78,"velocity":79,"programNumber":40},{"time":157191.81500000105,"duration":234.26500000001397,"noteNumber":81,"velocity":79,"programNumber":40},{"time":157660.34500000108,"duration":234.26500000001397,"noteNumber":73,"velocity":79,"programNumber":40},{"time":157894.6100000011,"duration":468.52999999999884,"noteNumber":74,"velocity":79,"programNumber":40},{"time":158363.1400000011,"duration":468.52999999999884,"noteNumber":78,"velocity":79,"programNumber":40},{"time":158831.6700000011,"duration":468.52999999999884,"noteNumber":78,"velocity":79,"programNumber":40},{"time":159768.7300000011,"duration":468.52999999999884,"noteNumber":79,"velocity":79,"programNumber":40},{"time":160237.2600000011,"duration":58.56625000000349,"noteNumber":81,"velocity":79,"programNumber":40},{"time":160295.8262500011,"duration":58.56625000000349,"noteNumber":79,"velocity":79,"programNumber":40},{"time":160354.3925000011,"duration":117.13250000000698,"noteNumber":78,"velocity":79,"programNumber":40},{"time":160471.5250000011,"duration":117.13250000000698,"noteNumber":79,"velocity":79,"programNumber":40},{"time":160588.6575000011,"duration":117.13250000000698,"noteNumber":81,"velocity":79,"programNumber":40},{"time":160705.7900000011,"duration":234.26500000001397,"noteNumber":79,"velocity":79,"programNumber":40},{"time":160940.05500000113,"duration":234.26500000001397,"noteNumber":79,"velocity":79,"programNumber":40},{"time":161174.32000000114,"duration":234.26500000001397,"noteNumber":78,"velocity":79,"programNumber":40},{"time":161408.58500000116,"duration":234.26500000001397,"noteNumber":81,"velocity":79,"programNumber":40},{"time":161642.85000000117,"duration":234.26500000001397,"noteNumber":79,"velocity":79,"programNumber":40},{"time":161877.11500000118,"duration":234.26500000001397,"noteNumber":83,"velocity":79,"programNumber":40},{"time":162111.3800000012,"duration":234.26500000001397,"noteNumber":81,"velocity":79,"programNumber":40},{"time":162345.6450000012,"duration":234.26500000001397,"noteNumber":84,"velocity":79,"programNumber":40},{"time":162579.91000000123,"duration":234.26500000001397,"noteNumber":83,"velocity":79,"programNumber":40},{"time":163516.97000000125,"duration":937.0599999999977,"noteNumber":79,"velocity":79,"programNumber":40},{"time":164454.03000000125,"duration":937.0599999999977,"noteNumber":74,"velocity":79,"programNumber":40},{"time":165391.09000000125,"duration":234.26500000001397,"noteNumber":72,"velocity":79,"programNumber":40},{"time":165625.35500000126,"duration":234.26500000001397,"noteNumber":71,"velocity":79,"programNumber":40},{"time":165859.62000000128,"duration":234.26500000001397,"noteNumber":69,"velocity":79,"programNumber":40},{"time":166093.8850000013,"duration":234.26500000001397,"noteNumber":67,"velocity":79,"programNumber":40},{"time":166328.1500000013,"duration":468.52999999999884,"noteNumber":74,"velocity":79,"programNumber":40},{"time":166796.6800000013,"duration":468.52999999999884,"noteNumber":62,"velocity":79,"programNumber":40},{"time":167265.2100000013,"duration":468.52999999999884,"noteNumber":67,"velocity":79,"programNumber":40},{"time":167733.7400000013,"duration":58.56625000000349,"noteNumber":81,"velocity":79,"programNumber":40},{"time":167792.3062500013,"duration":58.56625000000349,"noteNumber":79,"velocity":79,"programNumber":40},{"time":167850.8725000013,"duration":117.13250000000698,"noteNumber":78,"velocity":79,"programNumber":40},{"time":167968.0050000013,"duration":117.13250000000698,"noteNumber":79,"velocity":79,"programNumber":40},{"time":168085.13750000132,"duration":117.13250000000698,"noteNumber":81,"velocity":79,"programNumber":40},{"time":168202.27000000133,"duration":234.26500000001397,"noteNumber":79,"velocity":79,"programNumber":40},{"time":168436.53500000134,"duration":234.26500000001397,"noteNumber":79,"velocity":79,"programNumber":40},{"time":168670.80000000136,"duration":234.26500000001397,"noteNumber":78,"velocity":79,"programNumber":40},{"time":168905.06500000137,"duration":234.26500000001397,"noteNumber":81,"velocity":79,"programNumber":40},{"time":169139.33000000138,"duration":234.26500000001397,"noteNumber":79,"velocity":79,"programNumber":40},{"time":169373.5950000014,"duration":234.26500000001397,"noteNumber":83,"velocity":79,"programNumber":40},{"time":169607.8600000014,"duration":234.26500000001397,"noteNumber":81,"velocity":79,"programNumber":40},{"time":169842.12500000143,"duration":234.26500000001397,"noteNumber":84,"velocity":79,"programNumber":40},{"time":170076.39000000144,"duration":234.26500000001397,"noteNumber":83,"velocity":79,"programNumber":40},{"time":171013.45000000147,"duration":937.0599999999977,"noteNumber":79,"velocity":79,"programNumber":40},{"time":171950.51000000146,"duration":937.0599999999977,"noteNumber":74,"velocity":79,"programNumber":40},{"time":172887.57000000146,"duration":234.26500000001397,"noteNumber":72,"velocity":79,"programNumber":40},{"time":173121.83500000148,"duration":234.26500000001397,"noteNumber":71,"velocity":79,"programNumber":40},{"time":173356.1000000015,"duration":234.26500000001397,"noteNumber":69,"velocity":79,"programNumber":40},{"time":173590.3650000015,"duration":234.26500000001397,"noteNumber":67,"velocity":79,"programNumber":40},{"time":173824.63000000152,"duration":468.52999999999884,"noteNumber":74,"velocity":79,"programNumber":40},{"time":174293.16000000152,"duration":468.52999999999884,"noteNumber":62,"velocity":79,"programNumber":40},{"time":174761.69000000152,"duration":468.52999999999884,"noteNumber":67,"velocity":79,"programNumber":40},{"time":175698.7500000015,"duration":702.7950000000128,"noteNumber":79,"velocity":79,"programNumber":40},{"time":176401.54500000153,"duration":117.13250000000698,"noteNumber":83,"velocity":79,"programNumber":40},{"time":176518.67750000153,"duration":117.13250000000698,"noteNumber":79,"velocity":79,"programNumber":40},{"time":176635.81000000154,"duration":468.52999999999884,"noteNumber":78,"velocity":79,"programNumber":40},{"time":177572.87000000154,"duration":702.7950000000128,"noteNumber":81,"velocity":79,"programNumber":40},{"time":178275.66500000155,"duration":117.13250000000698,"noteNumber":84,"velocity":79,"programNumber":40},{"time":178392.79750000156,"duration":117.13250000000698,"noteNumber":81,"velocity":79,"programNumber":40},{"time":178509.93000000156,"duration":468.52999999999884,"noteNumber":79,"velocity":79,"programNumber":40},{"time":179446.99000000156,"duration":702.7950000000128,"noteNumber":79,"velocity":79,"programNumber":40},{"time":180149.78500000158,"duration":117.13250000000698,"noteNumber":83,"velocity":79,"programNumber":40},{"time":180266.91750000158,"duration":117.13250000000698,"noteNumber":79,"velocity":79,"programNumber":40},{"time":180384.0500000016,"duration":468.52999999999884,"noteNumber":78,"velocity":79,"programNumber":40},{"time":181321.1100000016,"duration":702.7950000000128,"noteNumber":81,"velocity":79,"programNumber":40},{"time":182023.9050000016,"duration":117.13250000000698,"noteNumber":84,"velocity":79,"programNumber":40},{"time":182141.0375000016,"duration":117.13250000000698,"noteNumber":81,"velocity":79,"programNumber":40},{"time":182258.1700000016,"duration":234.26500000001397,"noteNumber":79,"velocity":79,"programNumber":40},{"time":182492.43500000163,"duration":234.26500000001397,"noteNumber":55,"velocity":79,"programNumber":40},{"time":182726.70000000164,"duration":234.26500000001397,"noteNumber":57,"velocity":79,"programNumber":40},{"time":182960.96500000166,"duration":234.26500000001397,"noteNumber":59,"velocity":79,"programNumber":40},{"time":183195.23000000167,"duration":234.26500000001397,"noteNumber":60,"velocity":79,"programNumber":40},{"time":183429.49500000168,"duration":234.26500000001397,"noteNumber":62,"velocity":79,"programNumber":40},{"time":183663.7600000017,"duration":234.26500000001397,"noteNumber":64,"velocity":79,"programNumber":40},{"time":183898.0250000017,"duration":234.26500000001397,"noteNumber":66,"velocity":79,"programNumber":40},{"time":184132.29000000173,"duration":234.26500000001397,"noteNumber":67,"velocity":79,"programNumber":40},{"time":184366.55500000174,"duration":234.26500000001397,"noteNumber":66,"velocity":79,"programNumber":40},{"time":184600.82000000175,"duration":234.26500000001397,"noteNumber":64,"velocity":79,"programNumber":40},{"time":184835.08500000177,"duration":234.26500000001397,"noteNumber":62,"velocity":79,"programNumber":40},{"time":185069.35000000178,"duration":234.26500000001397,"noteNumber":60,"velocity":79,"programNumber":40},{"time":185303.6150000018,"duration":234.26500000001397,"noteNumber":59,"velocity":79,"programNumber":40},{"time":185537.8800000018,"duration":234.26500000001397,"noteNumber":57,"velocity":79,"programNumber":40},{"time":185772.14500000182,"duration":234.26500000001397,"noteNumber":55,"velocity":79,"programNumber":40},{"time":186006.41000000184,"duration":468.52999999999884,"noteNumber":62,"velocity":79,"programNumber":40},{"time":186474.94000000184,"duration":468.52999999999884,"noteNumber":78,"velocity":79,"programNumber":40},{"time":186943.47000000183,"duration":468.52999999999884,"noteNumber":78,"velocity":79,"programNumber":40},{"time":187880.53000000183,"duration":937.0599999999977,"noteNumber":74,"velocity":79,"programNumber":40},{"time":188817.59000000183,"duration":468.52999999999884,"noteNumber":78,"velocity":79,"programNumber":40},{"time":189286.12000000183,"duration":468.52999999999884,"noteNumber":81,"velocity":79,"programNumber":40},{"time":189754.65000000183,"duration":1405.5899999999965,"noteNumber":86,"velocity":79,"programNumber":40},{"time":191160.24000000182,"duration":468.52999999999884,"noteNumber":88,"velocity":79,"programNumber":40},{"time":191628.77000000182,"duration":468.52999999999884,"noteNumber":90,"velocity":79,"programNumber":40},{"time":192097.30000000182,"duration":937.0599999999977,"noteNumber":90,"velocity":79,"programNumber":40},{"time":193034.36000000182,"duration":234.26500000001397,"noteNumber":91,"velocity":79,"programNumber":40},{"time":193268.62500000183,"duration":234.26500000001397,"noteNumber":88,"velocity":79,"programNumber":40},{"time":193502.89000000185,"duration":468.52999999999884,"noteNumber":90,"velocity":79,"programNumber":40},{"time":193971.42000000185,"duration":937.0599999999977,"noteNumber":78,"velocity":79,"programNumber":40},{"time":194908.48000000184,"duration":234.26500000001397,"noteNumber":79,"velocity":79,"programNumber":40},{"time":195142.74500000186,"duration":234.26500000001397,"noteNumber":76,"velocity":79,"programNumber":40},{"time":195377.01000000187,"duration":937.0599999999977,"noteNumber":74,"velocity":79,"programNumber":40},{"time":196314.07000000187,"duration":468.52999999999884,"noteNumber":78,"velocity":79,"programNumber":40},{"time":196782.60000000187,"duration":468.52999999999884,"noteNumber":81,"velocity":79,"programNumber":40},{"time":197251.13000000187,"duration":117.13250000000698,"noteNumber":86,"velocity":79,"programNumber":40},{"time":197368.26250000187,"duration":117.13250000000698,"noteNumber":81,"velocity":79,"programNumber":40},{"time":197485.39500000188,"duration":117.13250000000698,"noteNumber":83,"velocity":79,"programNumber":40},{"time":197602.5275000019,"duration":117.13250000000698,"noteNumber":81,"velocity":79,"programNumber":40},{"time":197719.6600000019,"duration":117.13250000000698,"noteNumber":86,"velocity":79,"programNumber":40},{"time":197836.7925000019,"duration":117.13250000000698,"noteNumber":81,"velocity":79,"programNumber":40},{"time":197953.9250000019,"duration":117.13250000000698,"noteNumber":83,"velocity":79,"programNumber":40},{"time":198071.05750000192,"duration":117.13250000000698,"noteNumber":81,"velocity":79,"programNumber":40},{"time":198188.19000000192,"duration":234.26500000001397,"noteNumber":86,"velocity":79,"programNumber":40},{"time":199125.25000000195,"duration":468.52999999999884,"noteNumber":91,"velocity":79,"programNumber":40},{"time":199593.78000000195,"duration":937.0599999999977,"noteNumber":90,"velocity":79,"programNumber":40},{"time":200530.84000000195,"duration":468.52999999999884,"noteNumber":88,"velocity":79,"programNumber":40},{"time":200999.37000000195,"duration":117.13250000000698,"noteNumber":86,"velocity":79,"programNumber":40},{"time":201116.50250000195,"duration":117.13250000000698,"noteNumber":81,"velocity":79,"programNumber":40},{"time":201233.63500000196,"duration":117.13250000000698,"noteNumber":83,"velocity":79,"programNumber":40},{"time":201350.76750000197,"duration":117.13250000000698,"noteNumber":81,"velocity":79,"programNumber":40},{"time":201467.90000000197,"duration":117.13250000000698,"noteNumber":86,"velocity":79,"programNumber":40},{"time":201585.03250000198,"duration":117.13250000000698,"noteNumber":81,"velocity":79,"programNumber":40},{"time":201702.165000002,"duration":117.13250000000698,"noteNumber":83,"velocity":79,"programNumber":40},{"time":201819.297500002,"duration":117.13250000000698,"noteNumber":81,"velocity":79,"programNumber":40},{"time":201936.430000002,"duration":234.26500000001397,"noteNumber":86,"velocity":79,"programNumber":40},{"time":202873.49000000203,"duration":468.52999999999884,"noteNumber":91,"velocity":79,"programNumber":40},{"time":203342.02000000203,"duration":937.0599999999977,"noteNumber":90,"velocity":79,"programNumber":40},{"time":204279.08000000202,"duration":468.52999999999884,"noteNumber":88,"velocity":79,"programNumber":40},{"time":204747.61000000202,"duration":468.52999999999884,"noteNumber":86,"velocity":79,"programNumber":40},{"time":206738.86250000203,"duration":117.13250000000698,"noteNumber":67,"velocity":79,"programNumber":40},{"time":206855.99500000203,"duration":117.13250000000698,"noteNumber":69,"velocity":79,"programNumber":40},{"time":206973.12750000204,"duration":117.13250000000698,"noteNumber":71,"velocity":79,"programNumber":40},{"time":207090.26000000205,"duration":117.13250000000698,"noteNumber":72,"velocity":79,"programNumber":40},{"time":207207.39250000205,"duration":117.13250000000698,"noteNumber":74,"velocity":79,"programNumber":40},{"time":207324.52500000206,"duration":117.13250000000698,"noteNumber":76,"velocity":79,"programNumber":40},{"time":207441.65750000207,"duration":117.13250000000698,"noteNumber":78,"velocity":79,"programNumber":40},{"time":207558.79000000207,"duration":117.13250000000698,"noteNumber":79,"velocity":79,"programNumber":40},{"time":207675.92250000208,"duration":117.13250000000698,"noteNumber":74,"velocity":79,"programNumber":40},{"time":207793.0550000021,"duration":117.13250000000698,"noteNumber":76,"velocity":79,"programNumber":40},{"time":207910.1875000021,"duration":117.13250000000698,"noteNumber":78,"velocity":79,"programNumber":40},{"time":208027.3200000021,"duration":117.13250000000698,"noteNumber":79,"velocity":79,"programNumber":40},{"time":208144.4525000021,"duration":117.13250000000698,"noteNumber":81,"velocity":79,"programNumber":40},{"time":208261.58500000212,"duration":117.13250000000698,"noteNumber":83,"velocity":79,"programNumber":40},{"time":208378.71750000212,"duration":117.13250000000698,"noteNumber":84,"velocity":79,"programNumber":40},{"time":208495.85000000213,"duration":937.0599999999977,"noteNumber":86,"velocity":79,"programNumber":40},{"time":209432.91000000213,"duration":468.52999999999884,"noteNumber":85,"velocity":79,"programNumber":40},{"time":209901.44000000213,"duration":468.52999999999884,"noteNumber":83,"velocity":79,"programNumber":40},{"time":210369.97000000213,"duration":702.7950000000128,"noteNumber":81,"velocity":79,"programNumber":40},{"time":211072.76500000214,"duration":234.26500000001397,"noteNumber":83,"velocity":79,"programNumber":40},{"time":211307.03000000215,"duration":468.52999999999884,"noteNumber":74,"velocity":79,"programNumber":40},{"time":211775.56000000215,"duration":468.52999999999884,"noteNumber":73,"velocity":79,"programNumber":40},{"time":212244.09000000215,"duration":117.13250000000698,"noteNumber":62,"velocity":79,"programNumber":40},{"time":212361.22250000216,"duration":117.13250000000698,"noteNumber":74,"velocity":79,"programNumber":40},{"time":212478.35500000216,"duration":117.13250000000698,"noteNumber":73,"velocity":79,"programNumber":40},{"time":212595.48750000217,"duration":117.13250000000698,"noteNumber":74,"velocity":79,"programNumber":40},{"time":212712.62000000218,"duration":117.13250000000698,"noteNumber":72,"velocity":79,"programNumber":40},{"time":212829.75250000219,"duration":117.13250000000698,"noteNumber":74,"velocity":79,"programNumber":40},{"time":212946.8850000022,"duration":117.13250000000698,"noteNumber":71,"velocity":79,"programNumber":40},{"time":213064.0175000022,"duration":117.13250000000698,"noteNumber":74,"velocity":79,"programNumber":40},{"time":213181.1500000022,"duration":117.13250000000698,"noteNumber":69,"velocity":79,"programNumber":40},{"time":213298.2825000022,"duration":117.13250000000698,"noteNumber":74,"velocity":79,"programNumber":40},{"time":213415.41500000222,"duration":117.13250000000698,"noteNumber":71,"velocity":79,"programNumber":40},{"time":213532.54750000223,"duration":117.13250000000698,"noteNumber":74,"velocity":79,"programNumber":40},{"time":213649.68000000223,"duration":117.13250000000698,"noteNumber":72,"velocity":79,"programNumber":40},{"time":213766.81250000224,"duration":117.13250000000698,"noteNumber":74,"velocity":79,"programNumber":40},{"time":213883.94500000225,"duration":117.13250000000698,"noteNumber":69,"velocity":79,"programNumber":40},{"time":214001.07750000225,"duration":117.13250000000698,"noteNumber":74,"velocity":79,"programNumber":40},{"time":214118.21000000226,"duration":468.52999999999884,"noteNumber":71,"velocity":79,"programNumber":40},{"time":215172.40250000227,"duration":117.13250000000698,"noteNumber":71,"velocity":79,"programNumber":40},{"time":215289.53500000227,"duration":117.13250000000698,"noteNumber":72,"velocity":79,"programNumber":40},{"time":215406.66750000228,"duration":117.13250000000698,"noteNumber":74,"velocity":79,"programNumber":40},{"time":215523.8000000023,"duration":117.13250000000698,"noteNumber":76,"velocity":79,"programNumber":40},{"time":215640.9325000023,"duration":117.13250000000698,"noteNumber":78,"velocity":79,"programNumber":40},{"time":215758.0650000023,"duration":117.13250000000698,"noteNumber":79,"velocity":79,"programNumber":40},{"time":215875.1975000023,"duration":117.13250000000698,"noteNumber":81,"velocity":79,"programNumber":40},{"time":215992.33000000232,"duration":937.0599999999977,"noteNumber":83,"velocity":79,"programNumber":40},{"time":216929.3900000023,"duration":468.52999999999884,"noteNumber":81,"velocity":79,"programNumber":40},{"time":217397.9200000023,"duration":468.52999999999884,"noteNumber":79,"velocity":79,"programNumber":40},{"time":217866.4500000023,"duration":702.7950000000128,"noteNumber":78,"velocity":79,"programNumber":40},{"time":218569.24500000232,"duration":234.26500000001397,"noteNumber":79,"velocity":79,"programNumber":40},{"time":218803.51000000234,"duration":468.52999999999884,"noteNumber":78,"velocity":79,"programNumber":40},{"time":219272.04000000234,"duration":468.52999999999884,"noteNumber":76,"velocity":79,"programNumber":40},{"time":219740.57000000234,"duration":468.52999999999884,"noteNumber":74,"velocity":79,"programNumber":40},{"time":220209.10000000233,"duration":117.13250000000698,"noteNumber":81,"velocity":79,"programNumber":40},{"time":220326.23250000234,"duration":117.13250000000698,"noteNumber":79,"velocity":79,"programNumber":40},{"time":220443.36500000235,"duration":117.13250000000698,"noteNumber":78,"velocity":79,"programNumber":40},{"time":220560.49750000236,"duration":117.13250000000698,"noteNumber":76,"velocity":79,"programNumber":40},{"time":220677.63000000236,"duration":234.26500000001397,"noteNumber":78,"velocity":79,"programNumber":40},{"time":220911.89500000238,"duration":234.26500000001397,"noteNumber":81,"velocity":79,"programNumber":40},{"time":221380.4250000024,"duration":234.26500000001397,"noteNumber":73,"velocity":79,"programNumber":40},{"time":221614.69000000242,"duration":468.52999999999884,"noteNumber":74,"velocity":79,"programNumber":40},{"time":222083.22000000242,"duration":117.13250000000698,"noteNumber":81,"velocity":79,"programNumber":40},{"time":222200.35250000242,"duration":117.13250000000698,"noteNumber":79,"velocity":79,"programNumber":40},{"time":222317.48500000243,"duration":117.13250000000698,"noteNumber":78,"velocity":79,"programNumber":40},{"time":222434.61750000244,"duration":117.13250000000698,"noteNumber":76,"velocity":79,"programNumber":40},{"time":222551.75000000244,"duration":234.26500000001397,"noteNumber":78,"velocity":79,"programNumber":40},{"time":222786.01500000246,"duration":234.26500000001397,"noteNumber":81,"velocity":79,"programNumber":40},{"time":223254.5450000025,"duration":234.26500000001397,"noteNumber":73,"velocity":79,"programNumber":40},{"time":223488.8100000025,"duration":468.52999999999884,"noteNumber":74,"velocity":79,"programNumber":40},{"time":223957.3400000025,"duration":468.52999999999884,"noteNumber":78,"velocity":79,"programNumber":40},{"time":224425.8700000025,"duration":468.52999999999884,"noteNumber":78,"velocity":79,"programNumber":40},{"time":225362.9300000025,"duration":1874.1199999999953,"noteNumber":74,"velocity":79,"programNumber":40},{"time":227237.0500000025,"duration":1874.1199999999953,"noteNumber":76,"velocity":79,"programNumber":40},{"time":229111.1700000025,"duration":1874.1199999999953,"noteNumber":78,"velocity":79,"programNumber":40},{"time":230985.29000000248,"duration":1874.1199999999953,"noteNumber":79,"velocity":79,"programNumber":40},{"time":232859.41000000248,"duration":1874.1199999999953,"noteNumber":78,"velocity":79,"programNumber":40},{"time":234733.53000000247,"duration":1874.1199999999953,"noteNumber":76,"velocity":79,"programNumber":40},{"time":236607.65000000247,"duration":234.26500000001397,"noteNumber":78,"velocity":79,"programNumber":40},{"time":236841.91500000248,"duration":234.26500000001397,"noteNumber":79,"velocity":79,"programNumber":40},{"time":237076.1800000025,"duration":234.26500000001397,"noteNumber":78,"velocity":79,"programNumber":40},{"time":237310.4450000025,"duration":234.26500000001397,"noteNumber":76,"velocity":79,"programNumber":40},{"time":237544.71000000252,"duration":234.26500000001397,"noteNumber":74,"velocity":79,"programNumber":40},{"time":237778.97500000254,"duration":234.26500000001397,"noteNumber":72,"velocity":79,"programNumber":40},{"time":238013.24000000255,"duration":234.26500000001397,"noteNumber":71,"velocity":79,"programNumber":40},{"time":238247.50500000257,"duration":234.26500000001397,"noteNumber":69,"velocity":79,"programNumber":40},{"time":238481.77000000258,"duration":234.26500000001397,"noteNumber":71,"velocity":79,"programNumber":40},{"time":238716.0350000026,"duration":234.26500000001397,"noteNumber":72,"velocity":79,"programNumber":40},{"time":238950.3000000026,"duration":234.26500000001397,"noteNumber":74,"velocity":79,"programNumber":40},{"time":239184.56500000262,"duration":234.26500000001397,"noteNumber":76,"velocity":79,"programNumber":40},{"time":239418.83000000264,"duration":234.26500000001397,"noteNumber":78,"velocity":79,"programNumber":40},{"time":239653.09500000265,"duration":234.26500000001397,"noteNumber":79,"velocity":79,"programNumber":40},{"time":239887.36000000266,"duration":234.26500000001397,"noteNumber":81,"velocity":79,"programNumber":40},{"time":240121.62500000268,"duration":234.26500000001397,"noteNumber":83,"velocity":79,"programNumber":40},{"time":240355.8900000027,"duration":937.0599999999977,"noteNumber":84,"velocity":79,"programNumber":40},{"time":241292.9500000027,"duration":234.26500000001397,"noteNumber":84,"velocity":79,"programNumber":40},{"time":241527.2150000027,"duration":234.26500000001397,"noteNumber":81,"velocity":79,"programNumber":40},{"time":241761.48000000272,"duration":234.26500000001397,"noteNumber":86,"velocity":79,"programNumber":40},{"time":241995.74500000273,"duration":234.26500000001397,"noteNumber":85,"velocity":79,"programNumber":40},{"time":242230.01000000275,"duration":234.26500000001397,"noteNumber":86,"velocity":79,"programNumber":40},{"time":242464.27500000276,"duration":234.26500000001397,"noteNumber":84,"velocity":79,"programNumber":40},{"time":242698.54000000277,"duration":234.26500000001397,"noteNumber":83,"velocity":79,"programNumber":40},{"time":242932.8050000028,"duration":234.26500000001397,"noteNumber":81,"velocity":79,"programNumber":40},{"time":243167.0700000028,"duration":234.26500000001397,"noteNumber":79,"velocity":79,"programNumber":40},{"time":243401.33500000281,"duration":234.26500000001397,"noteNumber":78,"velocity":79,"programNumber":40},{"time":243635.60000000283,"duration":234.26500000001397,"noteNumber":76,"velocity":79,"programNumber":40},{"time":243869.86500000284,"duration":234.26500000001397,"noteNumber":74,"velocity":79,"programNumber":40},{"time":244104.13000000286,"duration":702.7950000000128,"noteNumber":76,"velocity":79,"programNumber":40},{"time":244806.92500000287,"duration":234.26500000001397,"noteNumber":74,"velocity":79,"programNumber":40},{"time":245041.19000000288,"duration":234.26500000001397,"noteNumber":72,"velocity":79,"programNumber":40},{"time":245275.4550000029,"duration":234.26500000001397,"noteNumber":74,"velocity":79,"programNumber":40},{"time":245509.7200000029,"duration":234.26500000001397,"noteNumber":72,"velocity":79,"programNumber":40},{"time":245743.98500000293,"duration":234.26500000001397,"noteNumber":71,"velocity":79,"programNumber":40},{"time":245978.25000000294,"duration":468.52999999999884,"noteNumber":69,"velocity":79,"programNumber":40},{"time":246681.04500000295,"duration":234.26500000001397,"noteNumber":72,"velocity":79,"programNumber":40},{"time":246915.31000000297,"duration":234.26500000001397,"noteNumber":72,"velocity":79,"programNumber":40},{"time":247149.57500000298,"duration":234.26500000001397,"noteNumber":71,"velocity":79,"programNumber":40},{"time":247618.105000003,"duration":234.26500000001397,"noteNumber":79,"velocity":79,"programNumber":40},{"time":247852.37000000302,"duration":468.52999999999884,"noteNumber":78,"velocity":79,"programNumber":40},{"time":248555.16500000303,"duration":234.26500000001397,"noteNumber":72,"velocity":79,"programNumber":40},{"time":248789.43000000305,"duration":234.26500000001397,"noteNumber":72,"velocity":79,"programNumber":40},{"time":249023.69500000306,"duration":234.26500000001397,"noteNumber":71,"velocity":79,"programNumber":40},{"time":249492.2250000031,"duration":234.26500000001397,"noteNumber":79,"velocity":79,"programNumber":40},{"time":249726.4900000031,"duration":468.52999999999884,"noteNumber":78,"velocity":79,"programNumber":40},{"time":250195.0200000031,"duration":468.52999999999884,"noteNumber":78,"velocity":79,"programNumber":40},{"time":250663.5500000031,"duration":468.52999999999884,"noteNumber":78,"velocity":79,"programNumber":40},{"time":251600.6100000031,"duration":468.52999999999884,"noteNumber":79,"velocity":79,"programNumber":40},{"time":252069.1400000031,"duration":58.56625000000349,"noteNumber":81,"velocity":79,"programNumber":40},{"time":252127.7062500031,"duration":58.56625000000349,"noteNumber":79,"velocity":79,"programNumber":40},{"time":252186.2725000031,"duration":117.13250000000698,"noteNumber":78,"velocity":79,"programNumber":40},{"time":252303.4050000031,"duration":117.13250000000698,"noteNumber":79,"velocity":79,"programNumber":40},{"time":252420.53750000312,"duration":117.13250000000698,"noteNumber":81,"velocity":79,"programNumber":40},{"time":252537.67000000313,"duration":234.26500000001397,"noteNumber":79,"velocity":79,"programNumber":40},{"time":252771.93500000314,"duration":234.26500000001397,"noteNumber":79,"velocity":79,"programNumber":40},{"time":253006.20000000315,"duration":234.26500000001397,"noteNumber":78,"velocity":79,"programNumber":40},{"time":253240.46500000317,"duration":234.26500000001397,"noteNumber":81,"velocity":79,"programNumber":40},{"time":253474.73000000318,"duration":234.26500000001397,"noteNumber":79,"velocity":79,"programNumber":40},{"time":253708.9950000032,"duration":234.26500000001397,"noteNumber":83,"velocity":79,"programNumber":40},{"time":253943.2600000032,"duration":234.26500000001397,"noteNumber":81,"velocity":79,"programNumber":40},{"time":254177.52500000322,"duration":234.26500000001397,"noteNumber":84,"velocity":79,"programNumber":40},{"time":254411.79000000324,"duration":234.26500000001397,"noteNumber":83,"velocity":79,"programNumber":40},{"time":255348.85000000327,"duration":937.0599999999977,"noteNumber":79,"velocity":79,"programNumber":40},{"time":256285.91000000326,"duration":937.0599999999977,"noteNumber":74,"velocity":79,"programNumber":40},{"time":257222.97000000326,"duration":234.26500000001397,"noteNumber":76,"velocity":79,"programNumber":40},{"time":257457.23500000327,"duration":234.26500000001397,"noteNumber":74,"velocity":79,"programNumber":40},{"time":257691.5000000033,"duration":234.26500000001397,"noteNumber":69,"velocity":79,"programNumber":40},{"time":257925.7650000033,"duration":234.26500000001397,"noteNumber":67,"velocity":79,"programNumber":40},{"time":258160.03000000332,"duration":468.52999999999884,"noteNumber":74,"velocity":79,"programNumber":40},{"time":258628.56000000332,"duration":468.52999999999884,"noteNumber":62,"velocity":79,"programNumber":40},{"time":259097.0900000033,"duration":468.52999999999884,"noteNumber":67,"velocity":79,"programNumber":40},{"time":259565.6200000033,"duration":117.13250000000698,"noteNumber":79,"velocity":79,"programNumber":40},{"time":259682.75250000332,"duration":117.13250000000698,"noteNumber":78,"velocity":79,"programNumber":40},{"time":259799.88500000333,"duration":117.13250000000698,"noteNumber":79,"velocity":79,"programNumber":40},{"time":259917.01750000333,"duration":117.13250000000698,"noteNumber":81,"velocity":79,"programNumber":40},{"time":260034.15000000334,"duration":234.26500000001397,"noteNumber":79,"velocity":79,"programNumber":40},{"time":260268.41500000336,"duration":234.26500000001397,"noteNumber":79,"velocity":79,"programNumber":40},{"time":260502.68000000337,"duration":234.26500000001397,"noteNumber":78,"velocity":79,"programNumber":40},{"time":260736.94500000338,"duration":234.26500000001397,"noteNumber":81,"velocity":79,"programNumber":40},{"time":260971.2100000034,"duration":234.26500000001397,"noteNumber":79,"velocity":79,"programNumber":40},{"time":261205.4750000034,"duration":234.26500000001397,"noteNumber":83,"velocity":79,"programNumber":40},{"time":261439.74000000342,"duration":234.26500000001397,"noteNumber":81,"velocity":79,"programNumber":40},{"time":261674.00500000344,"duration":234.26500000001397,"noteNumber":84,"velocity":79,"programNumber":40},{"time":261908.27000000345,"duration":234.26500000001397,"noteNumber":83,"velocity":79,"programNumber":40},{"time":262845.33000000345,"duration":937.0599999999977,"noteNumber":79,"velocity":79,"programNumber":40},{"time":263782.39000000345,"duration":937.0599999999977,"noteNumber":74,"velocity":79,"programNumber":40},{"time":264719.45000000345,"duration":58.56624999997439,"noteNumber":72,"velocity":79,"programNumber":40},{"time":264778.0162500034,"duration":58.56624999997439,"noteNumber":71,"velocity":79,"programNumber":40},{"time":264836.5825000034,"duration":351.39750000002095,"noteNumber":71,"velocity":79,"programNumber":40},{"time":265187.9800000034,"duration":234.26500000001397,"noteNumber":69,"velocity":79,"programNumber":40},{"time":265422.24500000343,"duration":234.26500000001397,"noteNumber":67,"velocity":79,"programNumber":40},{"time":265656.51000000344,"duration":468.53000000002794,"noteNumber":74,"velocity":79,"programNumber":40},{"time":266125.0400000035,"duration":468.53000000002794,"noteNumber":62,"velocity":79,"programNumber":40},{"time":266593.5700000035,"duration":468.53000000002794,"noteNumber":67,"velocity":79,"programNumber":40},{"time":267530.63000000356,"duration":702.7949999999837,"noteNumber":79,"velocity":79,"programNumber":40},{"time":268233.42500000354,"duration":117.13250000000698,"noteNumber":83,"velocity":79,"programNumber":40},{"time":268350.55750000355,"duration":117.13250000000698,"noteNumber":79,"velocity":79,"programNumber":40},{"time":268467.69000000355,"duration":468.53000000002794,"noteNumber":78,"velocity":79,"programNumber":40},{"time":269404.7500000036,"duration":702.7949999999837,"noteNumber":81,"velocity":79,"programNumber":40},{"time":270107.5450000036,"duration":117.13250000000698,"noteNumber":84,"velocity":79,"programNumber":40},{"time":270224.6775000036,"duration":117.13250000000698,"noteNumber":81,"velocity":79,"programNumber":40},{"time":270341.8100000036,"duration":468.53000000002794,"noteNumber":79,"velocity":79,"programNumber":40},{"time":271278.87000000366,"duration":702.7949999999837,"noteNumber":79,"velocity":79,"programNumber":40},{"time":271981.66500000365,"duration":117.13250000000698,"noteNumber":83,"velocity":79,"programNumber":40},{"time":272098.79750000365,"duration":117.13250000000698,"noteNumber":79,"velocity":79,"programNumber":40},{"time":272215.93000000366,"duration":468.53000000002794,"noteNumber":78,"velocity":79,"programNumber":40},{"time":273152.9900000037,"duration":702.7949999999837,"noteNumber":81,"velocity":79,"programNumber":40},{"time":273855.7850000037,"duration":117.13250000000698,"noteNumber":84,"velocity":79,"programNumber":40},{"time":273972.9175000037,"duration":117.13250000000698,"noteNumber":81,"velocity":79,"programNumber":40},{"time":274090.0500000037,"duration":234.26500000001397,"noteNumber":79,"velocity":79,"programNumber":40},{"time":274324.3150000037,"duration":234.26500000001397,"noteNumber":55,"velocity":79,"programNumber":40},{"time":274558.58000000374,"duration":234.26500000001397,"noteNumber":57,"velocity":79,"programNumber":40},{"time":274792.84500000376,"duration":234.26500000001397,"noteNumber":59,"velocity":79,"programNumber":40},{"time":275027.11000000377,"duration":234.26500000001397,"noteNumber":60,"velocity":79,"programNumber":40},{"time":275261.3750000038,"duration":234.26500000001397,"noteNumber":62,"velocity":79,"programNumber":40},{"time":275495.6400000038,"duration":234.26500000001397,"noteNumber":64,"velocity":79,"programNumber":40},{"time":275729.9050000038,"duration":234.26500000001397,"noteNumber":66,"velocity":79,"programNumber":40},{"time":275964.1700000038,"duration":234.26500000001397,"noteNumber":67,"velocity":79,"programNumber":40},{"time":276198.43500000384,"duration":234.26500000001397,"noteNumber":66,"velocity":79,"programNumber":40},{"time":276432.70000000385,"duration":234.26500000001397,"noteNumber":64,"velocity":79,"programNumber":40},{"time":276666.96500000387,"duration":234.26500000001397,"noteNumber":62,"velocity":79,"programNumber":40},{"time":276901.2300000039,"duration":234.26500000001397,"noteNumber":60,"velocity":79,"programNumber":40},{"time":277135.4950000039,"duration":234.26500000001397,"noteNumber":59,"velocity":79,"programNumber":40},{"time":277369.7600000039,"duration":234.26500000001397,"noteNumber":57,"velocity":79,"programNumber":40},{"time":277604.0250000039,"duration":234.26500000001397,"noteNumber":55,"velocity":79,"programNumber":40},{"time":277838.29000000394,"duration":468.53000000002794,"noteNumber":62,"velocity":79,"programNumber":40},{"time":278306.82000000397,"duration":468.53000000002794,"noteNumber":78,"velocity":79,"programNumber":40},{"time":278775.350000004,"duration":468.53000000002794,"noteNumber":78,"velocity":79,"programNumber":40},{"time":279712.41000000405,"duration":937.0599999999977,"noteNumber":67,"velocity":79,"programNumber":40},{"time":280649.47000000405,"duration":468.53000000002794,"noteNumber":71,"velocity":79,"programNumber":40},{"time":281118.0000000041,"duration":468.53000000002794,"noteNumber":74,"velocity":79,"programNumber":40},{"time":281586.5300000041,"duration":468.53000000002794,"noteNumber":79,"velocity":79,"programNumber":40},{"time":282055.06000000413,"duration":937.0599999999977,"noteNumber":79,"velocity":79,"programNumber":40},{"time":282992.1200000041,"duration":468.53000000002794,"noteNumber":81,"velocity":79,"programNumber":40},{"time":283460.65000000416,"duration":468.53000000002794,"noteNumber":83,"velocity":79,"programNumber":40},{"time":283929.1800000042,"duration":937.0599999999977,"noteNumber":83,"velocity":79,"programNumber":40},{"time":284866.2400000042,"duration":234.26500000001397,"noteNumber":84,"velocity":79,"programNumber":40},{"time":285100.5050000042,"duration":234.26500000001397,"noteNumber":81,"velocity":79,"programNumber":40},{"time":285334.7700000042,"duration":468.53000000002794,"noteNumber":83,"velocity":79,"programNumber":40},{"time":285803.30000000424,"duration":937.0599999999977,"noteNumber":71,"velocity":79,"programNumber":40},{"time":286740.36000000424,"duration":234.26500000001397,"noteNumber":72,"velocity":79,"programNumber":40},{"time":286974.62500000425,"duration":234.26500000001397,"noteNumber":69,"velocity":79,"programNumber":40},{"time":287208.89000000426,"duration":937.0599999999977,"noteNumber":67,"velocity":79,"programNumber":40},{"time":288145.95000000426,"duration":468.53000000002794,"noteNumber":71,"velocity":79,"programNumber":40},{"time":288614.4800000043,"duration":468.53000000002794,"noteNumber":74,"velocity":79,"programNumber":40},{"time":289083.0100000043,"duration":117.13250000000698,"noteNumber":79,"velocity":79,"programNumber":40},{"time":289200.1425000043,"duration":117.13250000000698,"noteNumber":74,"velocity":79,"programNumber":40},{"time":289317.27500000433,"duration":117.13250000000698,"noteNumber":76,"velocity":79,"programNumber":40},{"time":289434.40750000434,"duration":117.13250000000698,"noteNumber":74,"velocity":79,"programNumber":40},{"time":289551.54000000434,"duration":117.13250000000698,"noteNumber":79,"velocity":79,"programNumber":40},{"time":289668.67250000435,"duration":117.13250000000698,"noteNumber":74,"velocity":79,"programNumber":40},{"time":289785.80500000436,"duration":117.13250000000698,"noteNumber":76,"velocity":79,"programNumber":40},{"time":289902.93750000437,"duration":117.13250000000698,"noteNumber":74,"velocity":79,"programNumber":40},{"time":290020.0700000044,"duration":234.26500000001397,"noteNumber":79,"velocity":79,"programNumber":40},{"time":290957.13000000437,"duration":468.53000000002794,"noteNumber":84,"velocity":79,"programNumber":40},{"time":291425.6600000044,"duration":937.0599999999977,"noteNumber":83,"velocity":79,"programNumber":40},{"time":292362.7200000044,"duration":468.53000000002794,"noteNumber":81,"velocity":79,"programNumber":40},{"time":292831.2500000044,"duration":117.13250000000698,"noteNumber":79,"velocity":79,"programNumber":40},{"time":292948.38250000443,"duration":117.13250000000698,"noteNumber":74,"velocity":79,"programNumber":40},{"time":293065.51500000444,"duration":117.13250000000698,"noteNumber":76,"velocity":79,"programNumber":40},{"time":293182.64750000444,"duration":117.13250000000698,"noteNumber":74,"velocity":79,"programNumber":40},{"time":293299.78000000445,"duration":117.13250000000698,"noteNumber":79,"velocity":79,"programNumber":40},{"time":293416.91250000446,"duration":117.13250000000698,"noteNumber":74,"velocity":79,"programNumber":40},{"time":293534.04500000447,"duration":117.13250000000698,"noteNumber":76,"velocity":79,"programNumber":40},{"time":293651.1775000045,"duration":117.13250000000698,"noteNumber":74,"velocity":79,"programNumber":40},{"time":293768.3100000045,"duration":468.53000000002794,"noteNumber":79,"velocity":79,"programNumber":40},{"time":294705.37000000454,"duration":468.53000000002794,"noteNumber":84,"velocity":79,"programNumber":40},{"time":295173.90000000456,"duration":937.0599999999977,"noteNumber":83,"velocity":79,"programNumber":40},{"time":296110.96000000456,"duration":468.53000000002794,"noteNumber":81,"velocity":79,"programNumber":40},{"time":296579.4900000046,"duration":468.53000000002794,"noteNumber":79,"velocity":79,"programNumber":40},{"time":298570.7425000046,"duration":117.13250000000698,"noteNumber":60,"velocity":79,"programNumber":40},{"time":298687.8750000046,"duration":117.13250000000698,"noteNumber":62,"velocity":79,"programNumber":40},{"time":298805.0075000046,"duration":117.13250000000698,"noteNumber":64,"velocity":79,"programNumber":40},{"time":298922.1400000046,"duration":117.13250000000698,"noteNumber":65,"velocity":79,"programNumber":40},{"time":299039.2725000046,"duration":117.13250000000698,"noteNumber":67,"velocity":79,"programNumber":40},{"time":299156.4050000046,"duration":117.13250000000698,"noteNumber":69,"velocity":79,"programNumber":40},{"time":299273.53750000463,"duration":117.13250000000698,"noteNumber":71,"velocity":79,"programNumber":40},{"time":299390.67000000464,"duration":117.13250000000698,"noteNumber":72,"velocity":79,"programNumber":40},{"time":299507.80250000465,"duration":117.13250000000698,"noteNumber":76,"velocity":79,"programNumber":40},{"time":299624.93500000465,"duration":117.13250000000698,"noteNumber":77,"velocity":79,"programNumber":40},{"time":299742.06750000466,"duration":117.13250000000698,"noteNumber":79,"velocity":79,"programNumber":40},{"time":299859.20000000467,"duration":117.13250000000698,"noteNumber":81,"velocity":79,"programNumber":40},{"time":299976.3325000047,"duration":117.13250000000698,"noteNumber":83,"velocity":79,"programNumber":40},{"time":300093.4650000047,"duration":117.13250000000698,"noteNumber":84,"velocity":79,"programNumber":40},{"time":300210.5975000047,"duration":117.13250000000698,"noteNumber":86,"velocity":79,"programNumber":40},{"time":300327.7300000047,"duration":937.0599999999977,"noteNumber":88,"velocity":79,"programNumber":40},{"time":301264.7900000047,"duration":468.53000000002794,"noteNumber":86,"velocity":79,"programNumber":40},{"time":301733.3200000047,"duration":468.53000000002794,"noteNumber":84,"velocity":79,"programNumber":40},{"time":302201.85000000475,"duration":702.7949999999837,"noteNumber":83,"velocity":79,"programNumber":40},{"time":302904.64500000473,"duration":117.13250000000698,"noteNumber":84,"velocity":79,"programNumber":40},{"time":303021.77750000474,"duration":117.13250000000698,"noteNumber":86,"velocity":79,"programNumber":40},{"time":303138.91000000475,"duration":468.53000000002794,"noteNumber":79,"velocity":79,"programNumber":40},{"time":303607.4400000048,"duration":468.53000000002794,"noteNumber":78,"velocity":79,"programNumber":40},{"time":304075.9700000048,"duration":117.13250000000698,"noteNumber":67,"velocity":79,"programNumber":40},{"time":304193.1025000048,"duration":117.13250000000698,"noteNumber":79,"velocity":79,"programNumber":40},{"time":304310.2350000048,"duration":117.13250000000698,"noteNumber":78,"velocity":79,"programNumber":40},{"time":304427.3675000048,"duration":117.13250000000698,"noteNumber":79,"velocity":79,"programNumber":40},{"time":304544.50000000483,"duration":117.13250000000698,"noteNumber":77,"velocity":79,"programNumber":40},{"time":304661.63250000484,"duration":117.13250000000698,"noteNumber":79,"velocity":79,"programNumber":40},{"time":304778.76500000485,"duration":117.13250000000698,"noteNumber":76,"velocity":79,"programNumber":40},{"time":304895.89750000485,"duration":117.13250000000698,"noteNumber":79,"velocity":79,"programNumber":40},{"time":305013.03000000486,"duration":117.13250000000698,"noteNumber":74,"velocity":79,"programNumber":40},{"time":305130.16250000487,"duration":117.13250000000698,"noteNumber":79,"velocity":79,"programNumber":40},{"time":305247.2950000049,"duration":117.13250000000698,"noteNumber":76,"velocity":79,"programNumber":40},{"time":305364.4275000049,"duration":117.13250000000698,"noteNumber":79,"velocity":79,"programNumber":40},{"time":305481.5600000049,"duration":117.13250000000698,"noteNumber":77,"velocity":79,"programNumber":40},{"time":305598.6925000049,"duration":117.13250000000698,"noteNumber":79,"velocity":79,"programNumber":40},{"time":305715.8250000049,"duration":117.13250000000698,"noteNumber":74,"velocity":79,"programNumber":40},{"time":305832.9575000049,"duration":117.13250000000698,"noteNumber":79,"velocity":79,"programNumber":40},{"time":305950.0900000049,"duration":468.53000000002794,"noteNumber":76,"velocity":79,"programNumber":40},{"time":307004.2825000049,"duration":117.13250000000698,"noteNumber":72,"velocity":79,"programNumber":40},{"time":307121.4150000049,"duration":117.13250000000698,"noteNumber":74,"velocity":79,"programNumber":40},{"time":307238.54750000493,"duration":117.13250000000698,"noteNumber":76,"velocity":79,"programNumber":40},{"time":307355.68000000494,"duration":117.13250000000698,"noteNumber":77,"velocity":79,"programNumber":40},{"time":307472.81250000495,"duration":117.13250000000698,"noteNumber":79,"velocity":79,"programNumber":40},{"time":307589.94500000495,"duration":117.13250000000698,"noteNumber":81,"velocity":79,"programNumber":40},{"time":307707.07750000496,"duration":117.13250000000698,"noteNumber":83,"velocity":79,"programNumber":40},{"time":307824.21000000497,"duration":937.0599999999977,"noteNumber":84,"velocity":79,"programNumber":40},{"time":308761.27000000497,"duration":468.53000000002794,"noteNumber":83,"velocity":79,"programNumber":40},{"time":309229.800000005,"duration":468.53000000002794,"noteNumber":81,"velocity":79,"programNumber":40},{"time":309698.330000005,"duration":702.7949999999837,"noteNumber":79,"velocity":79,"programNumber":40},{"time":310401.125000005,"duration":117.13250000000698,"noteNumber":81,"velocity":79,"programNumber":40},{"time":310518.257500005,"duration":117.13250000000698,"noteNumber":83,"velocity":79,"programNumber":40},{"time":310635.390000005,"duration":468.53000000002794,"noteNumber":79,"velocity":79,"programNumber":40},{"time":311103.92000000505,"duration":468.53000000002794,"noteNumber":78,"velocity":79,"programNumber":40},{"time":311572.4500000051,"duration":468.53000000002794,"noteNumber":79,"velocity":79,"programNumber":40},{"time":312040.9800000051,"duration":117.13250000000698,"noteNumber":86,"velocity":79,"programNumber":40},{"time":312158.1125000051,"duration":117.13250000000698,"noteNumber":84,"velocity":79,"programNumber":40},{"time":312275.2450000051,"duration":117.13250000000698,"noteNumber":83,"velocity":79,"programNumber":40},{"time":312392.3775000051,"duration":117.13250000000698,"noteNumber":81,"velocity":79,"programNumber":40},{"time":312509.51000000513,"duration":234.26500000001397,"noteNumber":83,"velocity":79,"programNumber":40},{"time":312743.77500000515,"duration":234.26500000001397,"noteNumber":86,"velocity":79,"programNumber":40},{"time":313212.3050000052,"duration":234.26500000001397,"noteNumber":78,"velocity":79,"programNumber":40},{"time":313446.5700000052,"duration":468.53000000002794,"noteNumber":79,"velocity":79,"programNumber":40},{"time":313915.1000000052,"duration":117.13250000000698,"noteNumber":86,"velocity":79,"programNumber":40},{"time":314032.2325000052,"duration":117.13250000000698,"noteNumber":84,"velocity":79,"programNumber":40},{"time":314149.36500000523,"duration":117.13250000000698,"noteNumber":83,"velocity":79,"programNumber":40},{"time":314266.49750000524,"duration":117.13250000000698,"noteNumber":81,"velocity":79,"programNumber":40},{"time":314383.63000000524,"duration":234.26500000001397,"noteNumber":83,"velocity":79,"programNumber":40},{"time":314617.89500000526,"duration":234.26500000001397,"noteNumber":86,"velocity":79,"programNumber":40},{"time":315086.4250000053,"duration":234.26500000001397,"noteNumber":78,"velocity":79,"programNumber":40},{"time":315320.6900000053,"duration":468.53000000002794,"noteNumber":79,"velocity":79,"programNumber":40},{"time":315789.2200000053,"duration":468.53000000002794,"noteNumber":79,"velocity":79,"programNumber":40},{"time":316257.75000000536,"duration":468.53000000002794,"noteNumber":79,"velocity":79,"programNumber":40},{"time":317194.8100000054,"duration":1405.5900000000256,"noteNumber":74,"velocity":79,"programNumber":40},{"time":318600.40000000544,"duration":1405.5900000000256,"noteNumber":84,"velocity":79,"programNumber":40},{"time":320005.99000000546,"duration":234.26500000001397,"noteNumber":83,"velocity":79,"programNumber":40},{"time":320474.5200000055,"duration":234.26500000001397,"noteNumber":86,"velocity":79,"programNumber":40},{"time":320708.7850000055,"duration":234.26500000001397,"noteNumber":84,"velocity":79,"programNumber":40},{"time":320943.0500000055,"duration":234.26500000001397,"noteNumber":83,"velocity":79,"programNumber":40},{"time":321177.31500000553,"duration":234.26500000001397,"noteNumber":81,"velocity":79,"programNumber":40},{"time":321411.58000000555,"duration":937.0599999999977,"noteNumber":79,"velocity":79,"programNumber":40},{"time":322348.64000000554,"duration":468.53000000002794,"noteNumber":78,"velocity":79,"programNumber":40},{"time":322817.1700000056,"duration":468.53000000002794,"noteNumber":79,"velocity":79,"programNumber":40},{"time":323285.7000000056,"duration":468.53000000002794,"noteNumber":81,"velocity":79,"programNumber":40},{"time":323754.2300000056,"duration":468.53000000002794,"noteNumber":83,"velocity":79,"programNumber":40},{"time":324222.76000000566,"duration":234.26500000001397,"noteNumber":84,"velocity":79,"programNumber":40},{"time":324691.2900000057,"duration":468.53000000002794,"noteNumber":72,"velocity":79,"programNumber":40},{"time":325159.8200000057,"duration":468.53000000002794,"noteNumber":71,"velocity":79,"programNumber":40},{"time":325628.35000000574,"duration":234.26500000001397,"noteNumber":69,"velocity":79,"programNumber":40},{"time":325862.61500000575,"duration":234.26500000001397,"noteNumber":71,"velocity":79,"programNumber":40},{"time":326096.88000000577,"duration":234.26500000001397,"noteNumber":67,"velocity":79,"programNumber":40},{"time":326565.4100000058,"duration":234.26500000001397,"noteNumber":66,"velocity":79,"programNumber":40},{"time":327033.9400000058,"duration":937.0599999999977,"noteNumber":67,"velocity":79,"programNumber":40},{"time":328439.53000000585,"duration":1405.5900000000256,"noteNumber":74,"velocity":79,"programNumber":40},{"time":329845.1200000059,"duration":1405.5900000000256,"noteNumber":84,"velocity":79,"programNumber":40},{"time":331250.7100000059,"duration":234.26500000001397,"noteNumber":83,"velocity":79,"programNumber":40},{"time":331719.2400000059,"duration":234.26500000001397,"noteNumber":86,"velocity":79,"programNumber":40},{"time":331953.50500000594,"duration":234.26500000001397,"noteNumber":84,"velocity":79,"programNumber":40},{"time":332187.77000000596,"duration":234.26500000001397,"noteNumber":83,"velocity":79,"programNumber":40},{"time":332422.03500000597,"duration":234.26500000001397,"noteNumber":81,"velocity":79,"programNumber":40},{"time":332656.300000006,"duration":937.0599999999977,"noteNumber":79,"velocity":79,"programNumber":40},{"time":333593.360000006,"duration":468.53000000002794,"noteNumber":78,"velocity":79,"programNumber":40},{"time":334061.890000006,"duration":468.53000000002794,"noteNumber":79,"velocity":79,"programNumber":40},{"time":334530.42000000604,"duration":468.53000000002794,"noteNumber":81,"velocity":79,"programNumber":40},{"time":334998.95000000607,"duration":468.53000000002794,"noteNumber":83,"velocity":79,"programNumber":40},{"time":335467.4800000061,"duration":234.26500000001397,"noteNumber":84,"velocity":79,"programNumber":40},{"time":335936.0100000061,"duration":468.53000000002794,"noteNumber":72,"velocity":79,"programNumber":40},{"time":336404.54000000615,"duration":468.53000000002794,"noteNumber":71,"velocity":79,"programNumber":40},{"time":336873.0700000062,"duration":234.26500000001397,"noteNumber":69,"velocity":79,"programNumber":40},{"time":337107.3350000062,"duration":234.26500000001397,"noteNumber":71,"velocity":79,"programNumber":40},{"time":337341.6000000062,"duration":234.26500000001397,"noteNumber":67,"velocity":79,"programNumber":40},{"time":337810.13000000623,"duration":234.26500000001397,"noteNumber":66,"velocity":79,"programNumber":40},{"time":338278.66000000626,"duration":937.0599999999977,"noteNumber":67,"velocity":79,"programNumber":40},{"time":339684.2500000063,"duration":234.26500000001397,"noteNumber":83,"velocity":79,"programNumber":40},{"time":339918.5150000063,"duration":234.26500000001397,"noteNumber":84,"velocity":79,"programNumber":40},{"time":340152.7800000063,"duration":468.53000000002794,"noteNumber":81,"velocity":79,"programNumber":40},{"time":341089.84000000637,"duration":234.26500000001397,"noteNumber":79,"velocity":79,"programNumber":40},{"time":341324.1050000064,"duration":234.26500000001397,"noteNumber":81,"velocity":79,"programNumber":40},{"time":341558.3700000064,"duration":468.53000000002794,"noteNumber":78,"velocity":79,"programNumber":40},{"time":342495.43000000645,"duration":468.53000000002794,"noteNumber":76,"velocity":79,"programNumber":40},{"time":342963.9600000065,"duration":468.53000000002794,"noteNumber":79,"velocity":79,"programNumber":40},{"time":343432.4900000065,"duration":468.52999999996973,"noteNumber":83,"velocity":79,"programNumber":40},{"time":343901.0200000065,"duration":937.0599999999977,"noteNumber":74,"velocity":79,"programNumber":40},{"time":344838.0800000065,"duration":468.53000000002794,"noteNumber":73,"velocity":79,"programNumber":40},{"time":345306.6100000065,"duration":468.53000000002794,"noteNumber":74,"velocity":79,"programNumber":40},{"time":345775.14000000653,"duration":468.53000000002794,"noteNumber":76,"velocity":79,"programNumber":40},{"time":346243.67000000656,"duration":468.53000000002794,"noteNumber":78,"velocity":79,"programNumber":40},{"time":346712.2000000066,"duration":468.53000000002794,"noteNumber":79,"velocity":79,"programNumber":40},{"time":347180.7300000066,"duration":468.53000000002794,"noteNumber":81,"velocity":79,"programNumber":40},{"time":347649.26000000664,"duration":468.53000000002794,"noteNumber":83,"velocity":79,"programNumber":40},{"time":348117.7900000067,"duration":234.26500000001397,"noteNumber":81,"velocity":79,"programNumber":40},{"time":348586.3200000067,"duration":234.26500000001397,"noteNumber":78,"velocity":79,"programNumber":40},{"time":348820.5850000067,"duration":234.26500000001397,"noteNumber":74,"velocity":79,"programNumber":40},{"time":349054.8500000067,"duration":234.26500000001397,"noteNumber":76,"velocity":79,"programNumber":40},{"time":349289.11500000674,"duration":234.26500000001397,"noteNumber":73,"velocity":79,"programNumber":40},{"time":349523.38000000676,"duration":1405.5900000000256,"noteNumber":74,"velocity":79,"programNumber":40},{"time":350928.9700000068,"duration":468.53000000002794,"noteNumber":74,"velocity":79,"programNumber":40},{"time":351397.5000000068,"duration":468.53000000002794,"noteNumber":78,"velocity":79,"programNumber":40},{"time":351866.03000000684,"duration":468.53000000002794,"noteNumber":79,"velocity":79,"programNumber":40},{"time":352334.56000000687,"duration":468.53000000002794,"noteNumber":81,"velocity":79,"programNumber":40},{"time":352803.0900000069,"duration":468.53000000002794,"noteNumber":84,"velocity":79,"programNumber":40},{"time":353271.6200000069,"duration":468.53000000002794,"noteNumber":83,"velocity":79,"programNumber":40},{"time":353740.15000000695,"duration":234.26500000001397,"noteNumber":88,"velocity":79,"programNumber":40},{"time":354208.680000007,"duration":234.26500000001397,"noteNumber":76,"velocity":79,"programNumber":40},{"time":354677.210000007,"duration":234.26500000001397,"noteNumber":81,"velocity":79,"programNumber":40},{"time":355145.74000000703,"duration":937.0599999999977,"noteNumber":79,"velocity":79,"programNumber":40},{"time":356082.80000000703,"duration":468.52999999996973,"noteNumber":78,"velocity":79,"programNumber":40},{"time":356551.330000007,"duration":1405.5900000000256,"noteNumber":74,"velocity":79,"programNumber":40},{"time":357956.920000007,"duration":1405.5900000000256,"noteNumber":84,"velocity":79,"programNumber":40},{"time":359362.51000000705,"duration":234.26500000001397,"noteNumber":83,"velocity":79,"programNumber":40},{"time":359831.0400000071,"duration":234.26500000001397,"noteNumber":86,"velocity":79,"programNumber":40},{"time":360065.3050000071,"duration":234.26500000001397,"noteNumber":84,"velocity":79,"programNumber":40},{"time":360299.5700000071,"duration":234.26500000001397,"noteNumber":83,"velocity":79,"programNumber":40},{"time":360533.8350000071,"duration":234.26500000001397,"noteNumber":81,"velocity":79,"programNumber":40},{"time":360768.10000000714,"duration":937.0599999999977,"noteNumber":79,"velocity":79,"programNumber":40},{"time":361705.16000000713,"duration":468.53000000002794,"noteNumber":78,"velocity":79,"programNumber":40},{"time":362173.69000000716,"duration":468.53000000002794,"noteNumber":79,"velocity":79,"programNumber":40},{"time":362642.2200000072,"duration":468.53000000002794,"noteNumber":81,"velocity":79,"programNumber":40},{"time":363110.7500000072,"duration":468.53000000002794,"noteNumber":83,"velocity":79,"programNumber":40},{"time":363579.28000000725,"duration":234.26500000001397,"noteNumber":84,"velocity":79,"programNumber":40},{"time":364047.8100000073,"duration":468.53000000002794,"noteNumber":72,"velocity":79,"programNumber":40},{"time":364516.3400000073,"duration":468.53000000002794,"noteNumber":71,"velocity":79,"programNumber":40},{"time":364984.87000000733,"duration":234.26500000001397,"noteNumber":69,"velocity":79,"programNumber":40},{"time":365219.13500000734,"duration":234.26500000001397,"noteNumber":71,"velocity":79,"programNumber":40},{"time":365453.40000000736,"duration":234.26500000001397,"noteNumber":67,"velocity":79,"programNumber":40},{"time":365921.9300000074,"duration":234.26500000001397,"noteNumber":66,"velocity":79,"programNumber":40},{"time":366390.4600000074,"duration":937.0599999999977,"noteNumber":67,"velocity":79,"programNumber":40},{"time":367796.05000000744,"duration":234.26500000001397,"noteNumber":83,"velocity":79,"programNumber":40},{"time":368030.31500000745,"duration":234.26500000001397,"noteNumber":84,"velocity":79,"programNumber":40},{"time":368264.58000000747,"duration":468.53000000002794,"noteNumber":81,"velocity":79,"programNumber":40},{"time":369201.64000000746,"duration":234.26500000001397,"noteNumber":79,"velocity":79,"programNumber":40},{"time":369435.9050000075,"duration":234.26500000001397,"noteNumber":81,"velocity":79,"programNumber":40},{"time":369670.1700000075,"duration":468.53000000002794,"noteNumber":78,"velocity":79,"programNumber":40},{"time":370607.2300000075,"duration":468.53000000002794,"noteNumber":76,"velocity":79,"programNumber":40},{"time":371075.7600000075,"duration":468.53000000002794,"noteNumber":79,"velocity":79,"programNumber":40},{"time":371544.29000000755,"duration":468.52999999996973,"noteNumber":83,"velocity":79,"programNumber":40},{"time":372012.8200000075,"duration":937.0599999999977,"noteNumber":74,"velocity":79,"programNumber":40},{"time":372949.8800000075,"duration":468.53000000002794,"noteNumber":73,"velocity":79,"programNumber":40},{"time":373418.41000000754,"duration":468.53000000002794,"noteNumber":74,"velocity":79,"programNumber":40},{"time":373886.94000000757,"duration":468.53000000002794,"noteNumber":76,"velocity":79,"programNumber":40},{"time":374355.4700000076,"duration":468.53000000002794,"noteNumber":78,"velocity":79,"programNumber":40},{"time":374824.0000000076,"duration":468.53000000002794,"noteNumber":79,"velocity":79,"programNumber":40},{"time":375292.53000000765,"duration":468.53000000002794,"noteNumber":81,"velocity":79,"programNumber":40},{"time":375761.0600000077,"duration":468.53000000002794,"noteNumber":83,"velocity":79,"programNumber":40},{"time":376229.5900000077,"duration":468.53000000002794,"noteNumber":81,"velocity":79,"programNumber":40},{"time":376698.12000000774,"duration":234.26500000001397,"noteNumber":78,"velocity":79,"programNumber":40},{"time":376932.38500000775,"duration":234.26500000001397,"noteNumber":74,"velocity":79,"programNumber":40},{"time":377166.65000000776,"duration":234.26500000001397,"noteNumber":76,"velocity":79,"programNumber":40},{"time":377400.9150000078,"duration":234.26500000001397,"noteNumber":73,"velocity":79,"programNumber":40},{"time":377635.1800000078,"duration":1405.5899999999674,"noteNumber":74,"velocity":79,"programNumber":40},{"time":379040.77000000776,"duration":468.53000000002794,"noteNumber":74,"velocity":79,"programNumber":40},{"time":379509.3000000078,"duration":468.53000000002794,"noteNumber":78,"velocity":79,"programNumber":40},{"time":379977.8300000078,"duration":468.53000000002794,"noteNumber":79,"velocity":79,"programNumber":40},{"time":380446.36000000784,"duration":468.53000000002794,"noteNumber":81,"velocity":79,"programNumber":40},{"time":380914.8900000079,"duration":468.53000000002794,"noteNumber":84,"velocity":79,"programNumber":40},{"time":381383.4200000079,"duration":468.53000000002794,"noteNumber":83,"velocity":79,"programNumber":40},{"time":381851.9500000079,"duration":468.53000000002794,"noteNumber":88,"velocity":79,"programNumber":40},{"time":382320.48000000796,"duration":468.53000000002794,"noteNumber":76,"velocity":79,"programNumber":40},{"time":382789.010000008,"duration":468.53000000002794,"noteNumber":81,"velocity":79,"programNumber":40},{"time":383257.540000008,"duration":937.0599999999977,"noteNumber":79,"velocity":79,"programNumber":40},{"time":384194.600000008,"duration":468.53000000002794,"noteNumber":78,"velocity":79,"programNumber":40},{"time":384663.13000000804,"duration":1405.5900000000256,"noteNumber":74,"velocity":79,"programNumber":40},{"time":386068.72000000806,"duration":1405.5900000000256,"noteNumber":84,"velocity":79,"programNumber":40},{"time":387474.3100000081,"duration":468.53000000002794,"noteNumber":83,"velocity":79,"programNumber":40},{"time":387942.8400000081,"duration":234.26500000001397,"noteNumber":86,"velocity":79,"programNumber":40},{"time":388177.10500000813,"duration":234.26500000001397,"noteNumber":84,"velocity":79,"programNumber":40},{"time":388411.37000000814,"duration":234.26500000001397,"noteNumber":83,"velocity":79,"programNumber":40},{"time":388645.63500000816,"duration":234.26500000001397,"noteNumber":81,"velocity":79,"programNumber":40},{"time":388879.9000000082,"duration":937.0599999999977,"noteNumber":79,"velocity":79,"programNumber":40},{"time":389816.96000000817,"duration":468.53000000002794,"noteNumber":78,"velocity":79,"programNumber":40},{"time":390285.4900000082,"duration":468.53000000002794,"noteNumber":79,"velocity":79,"programNumber":40},{"time":390754.0200000082,"duration":468.53000000002794,"noteNumber":81,"velocity":79,"programNumber":40},{"time":391222.55000000825,"duration":468.53000000002794,"noteNumber":83,"velocity":79,"programNumber":40},{"time":391691.0800000083,"duration":468.53000000002794,"noteNumber":84,"velocity":79,"programNumber":40},{"time":392159.6100000083,"duration":468.53000000002794,"noteNumber":72,"velocity":79,"programNumber":40},{"time":392628.14000000834,"duration":468.53000000002794,"noteNumber":71,"velocity":79,"programNumber":40},{"time":393096.67000000837,"duration":234.26500000001397,"noteNumber":69,"velocity":79,"programNumber":40},{"time":393330.9350000084,"duration":234.26500000001397,"noteNumber":71,"velocity":79,"programNumber":40},{"time":393565.2000000084,"duration":468.53000000002794,"noteNumber":67,"velocity":79,"programNumber":40},{"time":394033.7300000084,"duration":468.53000000002794,"noteNumber":66,"velocity":79,"programNumber":40},{"time":394502.26000000845,"duration":937.0599999999977,"noteNumber":67,"velocity":79,"programNumber":40},{"time":395907.8500000084,"duration":468.53000000002794,"noteNumber":67,"velocity":36,"programNumber":40},{"time":396376.38000000844,"duration":468.53000000002794,"noteNumber":72,"velocity":36,"programNumber":40},{"time":396844.9100000085,"duration":468.53000000002794,"noteNumber":76,"velocity":36,"programNumber":40},{"time":397313.4400000085,"duration":937.0599999999977,"noteNumber":79,"velocity":36,"programNumber":40},{"time":398250.5000000085,"duration":234.26500000001397,"noteNumber":74,"velocity":36,"programNumber":40},{"time":398719.0300000085,"duration":468.53000000002794,"noteNumber":64,"velocity":36,"programNumber":40},{"time":399187.56000000855,"duration":468.53000000002794,"noteNumber":69,"velocity":36,"programNumber":40},{"time":399656.0900000086,"duration":468.53000000002794,"noteNumber":72,"velocity":36,"programNumber":40},{"time":400124.6200000086,"duration":937.0599999999977,"noteNumber":76,"velocity":36,"programNumber":40},{"time":401061.6800000086,"duration":234.26500000001397,"noteNumber":71,"velocity":36,"programNumber":40},{"time":401530.21000000864,"duration":468.53000000002794,"noteNumber":60,"velocity":36,"programNumber":40},{"time":401998.74000000866,"duration":468.53000000002794,"noteNumber":65,"velocity":36,"programNumber":40},{"time":402467.2700000087,"duration":468.53000000002794,"noteNumber":69,"velocity":36,"programNumber":40},{"time":402935.8000000087,"duration":234.26500000001397,"noteNumber":67,"velocity":36,"programNumber":40},{"time":403170.06500000873,"duration":234.26500000001397,"noteNumber":72,"velocity":36,"programNumber":40},{"time":403404.33000000875,"duration":702.7949999999837,"noteNumber":72,"velocity":36,"programNumber":40},{"time":404107.12500000873,"duration":234.26500000001397,"noteNumber":76,"velocity":36,"programNumber":40},{"time":404341.39000000875,"duration":468.53000000002794,"noteNumber":69,"velocity":36,"programNumber":40},{"time":404809.9200000088,"duration":234.26500000001397,"noteNumber":77,"velocity":36,"programNumber":40},{"time":405044.1850000088,"duration":234.26500000001397,"noteNumber":74,"velocity":36,"programNumber":40},{"time":405278.4500000088,"duration":234.26500000001397,"noteNumber":72,"velocity":36,"programNumber":40},{"time":405512.7150000088,"duration":234.26500000001397,"noteNumber":71,"velocity":36,"programNumber":40},{"time":405746.9800000088,"duration":234.26500000001397,"noteNumber":71,"velocity":36,"programNumber":40},{"time":405981.24500000884,"duration":702.7949999999837,"noteNumber":72,"velocity":36,"programNumber":40},{"time":407152.57000000885,"duration":468.53000000002794,"noteNumber":67,"velocity":36,"programNumber":40},{"time":407621.1000000089,"duration":468.53000000002794,"noteNumber":72,"velocity":36,"programNumber":40},{"time":408089.6300000089,"duration":468.53000000002794,"noteNumber":76,"velocity":36,"programNumber":40},{"time":408558.16000000894,"duration":937.0599999999977,"noteNumber":79,"velocity":36,"programNumber":40},{"time":409495.22000000894,"duration":234.26500000001397,"noteNumber":74,"velocity":36,"programNumber":40},{"time":409963.75000000896,"duration":468.53000000002794,"noteNumber":64,"velocity":36,"programNumber":40},{"time":410432.280000009,"duration":468.53000000002794,"noteNumber":69,"velocity":36,"programNumber":40},{"time":410900.810000009,"duration":468.53000000002794,"noteNumber":72,"velocity":36,"programNumber":40},{"time":411369.34000000905,"duration":937.0599999999977,"noteNumber":76,"velocity":36,"programNumber":40},{"time":412306.40000000905,"duration":234.26500000001397,"noteNumber":71,"velocity":36,"programNumber":40},{"time":412774.9300000091,"duration":468.53000000002794,"noteNumber":60,"velocity":36,"programNumber":40},{"time":413243.4600000091,"duration":468.53000000002794,"noteNumber":65,"velocity":36,"programNumber":40},{"time":413711.99000000913,"duration":468.53000000002794,"noteNumber":69,"velocity":36,"programNumber":40},{"time":414180.52000000916,"duration":234.26500000001397,"noteNumber":67,"velocity":36,"programNumber":40},{"time":414414.7850000092,"duration":234.26500000001397,"noteNumber":72,"velocity":36,"programNumber":40},{"time":414649.0500000092,"duration":702.7949999999837,"noteNumber":72,"velocity":36,"programNumber":40},{"time":415351.84500000917,"duration":234.26500000001397,"noteNumber":76,"velocity":36,"programNumber":40},{"time":415586.1100000092,"duration":468.53000000002794,"noteNumber":69,"velocity":36,"programNumber":40},{"time":416054.6400000092,"duration":234.26500000001397,"noteNumber":77,"velocity":36,"programNumber":40},{"time":416288.9050000092,"duration":234.26500000001397,"noteNumber":74,"velocity":36,"programNumber":40},{"time":416523.17000000924,"duration":234.26500000001397,"noteNumber":72,"velocity":36,"programNumber":40},{"time":416757.43500000925,"duration":234.26500000001397,"noteNumber":71,"velocity":36,"programNumber":40},{"time":416991.70000000927,"duration":234.26500000001397,"noteNumber":71,"velocity":36,"programNumber":40},{"time":417225.9650000093,"duration":702.7949999999837,"noteNumber":72,"velocity":36,"programNumber":40},{"time":419802.88000000926,"duration":702.7949999999837,"noteNumber":79,"velocity":79,"programNumber":40},{"time":420505.67500000924,"duration":117.13250000000698,"noteNumber":78,"velocity":79,"programNumber":40},{"time":420622.80750000925,"duration":117.13250000000698,"noteNumber":76,"velocity":79,"programNumber":40},{"time":420739.94000000926,"duration":468.53000000002794,"noteNumber":74,"velocity":79,"programNumber":40},{"time":421208.4700000093,"duration":468.53000000002794,"noteNumber":71,"velocity":36,"programNumber":40},{"time":421677.0000000093,"duration":468.53000000002794,"noteNumber":71,"velocity":36,"programNumber":40},{"time":422145.53000000934,"duration":234.26500000001397,"noteNumber":72,"velocity":36,"programNumber":40},{"time":422379.79500000936,"duration":234.26500000001397,"noteNumber":69,"velocity":36,"programNumber":40},{"time":422614.06000000937,"duration":468.53000000002794,"noteNumber":71,"velocity":36,"programNumber":40},{"time":423082.5900000094,"duration":58.56624999997439,"noteNumber":74,"velocity":36,"programNumber":40},{"time":423141.1562500094,"duration":58.56624999997439,"noteNumber":72,"velocity":36,"programNumber":40},{"time":423199.72250000935,"duration":58.56624999997439,"noteNumber":74,"velocity":36,"programNumber":40},{"time":423258.2887500093,"duration":58.56624999997439,"noteNumber":72,"velocity":36,"programNumber":40},{"time":423316.8550000093,"duration":58.56624999997439,"noteNumber":74,"velocity":36,"programNumber":40},{"time":423375.42125000927,"duration":58.56624999997439,"noteNumber":72,"velocity":36,"programNumber":40},{"time":423433.98750000924,"duration":58.56624999997439,"noteNumber":74,"velocity":36,"programNumber":40},{"time":423492.5537500092,"duration":58.56624999997439,"noteNumber":72,"velocity":36,"programNumber":40},{"time":423551.1200000092,"duration":468.52999999996973,"noteNumber":74,"velocity":36,"programNumber":40},{"time":424019.65000000916,"duration":234.26500000001397,"noteNumber":55,"velocity":79,"programNumber":40},{"time":424253.9150000092,"duration":234.26500000001397,"noteNumber":79,"velocity":79,"programNumber":40},{"time":424488.1800000092,"duration":234.26500000001397,"noteNumber":78,"velocity":79,"programNumber":40},{"time":424722.4450000092,"duration":234.26500000001397,"noteNumber":76,"velocity":79,"programNumber":40},{"time":424956.7100000092,"duration":234.26500000001397,"noteNumber":74,"velocity":79,"programNumber":40},{"time":425190.97500000923,"duration":234.26500000001397,"noteNumber":72,"velocity":79,"programNumber":40},{"time":425425.24000000925,"duration":234.26500000001397,"noteNumber":71,"velocity":79,"programNumber":40},{"time":425659.50500000926,"duration":234.26500000001397,"noteNumber":76,"velocity":79,"programNumber":40},{"time":425893.7700000093,"duration":234.26500000001397,"noteNumber":74,"velocity":79,"programNumber":40},{"time":426128.0350000093,"duration":234.26500000001397,"noteNumber":72,"velocity":79,"programNumber":40},{"time":426362.3000000093,"duration":234.26500000001397,"noteNumber":71,"velocity":79,"programNumber":40},{"time":426596.5650000093,"duration":234.26500000001397,"noteNumber":69,"velocity":79,"programNumber":40},{"time":426830.83000000933,"duration":468.53000000002794,"noteNumber":67,"velocity":79,"programNumber":40},{"time":427299.36000000936,"duration":468.53000000002794,"noteNumber":57,"velocity":79,"programNumber":40},{"time":427767.8900000094,"duration":58.56624999997439,"noteNumber":79,"velocity":79,"programNumber":40},{"time":427826.45625000936,"duration":58.56624999997439,"noteNumber":78,"velocity":79,"programNumber":40},{"time":427885.02250000933,"duration":58.56624999997439,"noteNumber":79,"velocity":79,"programNumber":40},{"time":427943.5887500093,"duration":58.56624999997439,"noteNumber":78,"velocity":79,"programNumber":40},{"time":428002.1550000093,"duration":58.56624999997439,"noteNumber":79,"velocity":79,"programNumber":40},{"time":428060.72125000926,"duration":58.56624999997439,"noteNumber":78,"velocity":79,"programNumber":40},{"time":428119.28750000923,"duration":39.0441666666884,"noteNumber":78,"velocity":79,"programNumber":40},{"time":428158.3316666759,"duration":39.0441666666884,"noteNumber":76,"velocity":79,"programNumber":40},{"time":428197.3758333426,"duration":39.0441666666884,"noteNumber":78,"velocity":79,"programNumber":40},{"time":428236.4200000093,"duration":468.53000000002794,"noteNumber":79,"velocity":79,"programNumber":40},{"time":428704.9500000093,"duration":468.53000000002794,"noteNumber":67,"velocity":79,"programNumber":40},{"time":429642.0100000094,"duration":468.53000000002794,"noteNumber":67,"velocity":36,"programNumber":40},{"time":430110.5400000094,"duration":468.53000000002794,"noteNumber":69,"velocity":36,"programNumber":40},{"time":430579.07000000944,"duration":468.53000000002794,"noteNumber":76,"velocity":36,"programNumber":40},{"time":431047.60000000946,"duration":937.0599999999977,"noteNumber":79,"velocity":36,"programNumber":40},{"time":431984.66000000946,"duration":234.26500000001397,"noteNumber":74,"velocity":36,"programNumber":40},{"time":432453.1900000095,"duration":468.53000000002794,"noteNumber":64,"velocity":36,"programNumber":40},{"time":432921.7200000095,"duration":468.53000000002794,"noteNumber":69,"velocity":36,"programNumber":40},{"time":433390.25000000955,"duration":468.53000000002794,"noteNumber":72,"velocity":36,"programNumber":40},{"time":433858.7800000096,"duration":937.0599999999977,"noteNumber":76,"velocity":36,"programNumber":40},{"time":434795.8400000096,"duration":234.26500000001397,"noteNumber":71,"velocity":36,"programNumber":40},{"time":435264.3700000096,"duration":468.53000000002794,"noteNumber":60,"velocity":36,"programNumber":40},{"time":435732.9000000096,"duration":468.53000000002794,"noteNumber":65,"velocity":36,"programNumber":40},{"time":436201.43000000966,"duration":468.53000000002794,"noteNumber":69,"velocity":36,"programNumber":40},{"time":436669.9600000097,"duration":234.26500000001397,"noteNumber":67,"velocity":36,"programNumber":40},{"time":436904.2250000097,"duration":234.26500000001397,"noteNumber":72,"velocity":36,"programNumber":40},{"time":437138.4900000097,"duration":702.7949999999837,"noteNumber":72,"velocity":36,"programNumber":40},{"time":437841.2850000097,"duration":234.26500000001397,"noteNumber":76,"velocity":36,"programNumber":40},{"time":438075.5500000097,"duration":468.53000000002794,"noteNumber":69,"velocity":36,"programNumber":40},{"time":438544.08000000974,"duration":234.26500000001397,"noteNumber":77,"velocity":36,"programNumber":40},{"time":438778.34500000975,"duration":234.26500000001397,"noteNumber":74,"velocity":36,"programNumber":40},{"time":439012.61000000976,"duration":234.26500000001397,"noteNumber":72,"velocity":36,"programNumber":40},{"time":439246.8750000098,"duration":234.26500000001397,"noteNumber":71,"velocity":36,"programNumber":40},{"time":439481.1400000098,"duration":234.26500000001397,"noteNumber":71,"velocity":36,"programNumber":40},{"time":439715.4050000098,"duration":702.7949999999837,"noteNumber":72,"velocity":36,"programNumber":40},{"time":442292.3200000098,"duration":702.7949999999837,"noteNumber":79,"velocity":79,"programNumber":40},{"time":442995.11500000977,"duration":117.13250000000698,"noteNumber":78,"velocity":79,"programNumber":40},{"time":443112.2475000098,"duration":117.13250000000698,"noteNumber":76,"velocity":79,"programNumber":40},{"time":443229.3800000098,"duration":468.53000000002794,"noteNumber":74,"velocity":79,"programNumber":40},{"time":443697.9100000098,"duration":468.53000000002794,"noteNumber":71,"velocity":36,"programNumber":40},{"time":444166.44000000984,"duration":468.53000000002794,"noteNumber":71,"velocity":36,"programNumber":40},{"time":444634.97000000987,"duration":234.26500000001397,"noteNumber":72,"velocity":36,"programNumber":40},{"time":444869.2350000099,"duration":234.26500000001397,"noteNumber":69,"velocity":36,"programNumber":40},{"time":445103.5000000099,"duration":468.53000000002794,"noteNumber":71,"velocity":36,"programNumber":40},{"time":445572.0300000099,"duration":58.56624999997439,"noteNumber":74,"velocity":36,"programNumber":40},{"time":445630.5962500099,"duration":58.56624999997439,"noteNumber":72,"velocity":36,"programNumber":40},{"time":445689.1625000099,"duration":58.56624999997439,"noteNumber":74,"velocity":36,"programNumber":40},{"time":445747.72875000985,"duration":58.56624999997439,"noteNumber":72,"velocity":36,"programNumber":40},{"time":445806.2950000098,"duration":58.56624999997439,"noteNumber":74,"velocity":36,"programNumber":40},{"time":445864.8612500098,"duration":58.56624999997439,"noteNumber":72,"velocity":36,"programNumber":40},{"time":445923.42750000977,"duration":58.56624999997439,"noteNumber":74,"velocity":36,"programNumber":40},{"time":445981.99375000974,"duration":58.56624999997439,"noteNumber":72,"velocity":36,"programNumber":40},{"time":446040.5600000097,"duration":468.52999999996973,"noteNumber":74,"velocity":36,"programNumber":40},{"time":446509.0900000097,"duration":234.26500000001397,"noteNumber":55,"velocity":79,"programNumber":40},{"time":446743.3550000097,"duration":234.26500000001397,"noteNumber":79,"velocity":79,"programNumber":40},{"time":446977.6200000097,"duration":234.26500000001397,"noteNumber":78,"velocity":79,"programNumber":40},{"time":447211.88500000973,"duration":234.26500000001397,"noteNumber":76,"velocity":79,"programNumber":40},{"time":447446.15000000974,"duration":234.26500000001397,"noteNumber":74,"velocity":79,"programNumber":40},{"time":447680.41500000976,"duration":234.26500000001397,"noteNumber":72,"velocity":79,"programNumber":40},{"time":447914.6800000098,"duration":234.26500000001397,"noteNumber":71,"velocity":79,"programNumber":40},{"time":448148.9450000098,"duration":234.26500000001397,"noteNumber":76,"velocity":79,"programNumber":40},{"time":448383.2100000098,"duration":234.26500000001397,"noteNumber":74,"velocity":79,"programNumber":40},{"time":448617.4750000098,"duration":234.26500000001397,"noteNumber":72,"velocity":79,"programNumber":40},{"time":448851.7400000098,"duration":234.26500000001397,"noteNumber":71,"velocity":79,"programNumber":40},{"time":449086.00500000984,"duration":234.26500000001397,"noteNumber":69,"velocity":79,"programNumber":40},{"time":449320.27000000986,"duration":468.53000000002794,"noteNumber":67,"velocity":79,"programNumber":40},{"time":449788.8000000099,"duration":468.53000000002794,"noteNumber":57,"velocity":79,"programNumber":40},{"time":450257.3300000099,"duration":58.56624999997439,"noteNumber":79,"velocity":79,"programNumber":40},{"time":450315.8962500099,"duration":58.56624999997439,"noteNumber":78,"velocity":79,"programNumber":40},{"time":450374.46250000986,"duration":58.56624999997439,"noteNumber":79,"velocity":79,"programNumber":40},{"time":450433.02875000983,"duration":58.56624999997439,"noteNumber":78,"velocity":79,"programNumber":40},{"time":450491.5950000098,"duration":58.56624999997439,"noteNumber":79,"velocity":79,"programNumber":40},{"time":450550.1612500098,"duration":58.56624999997439,"noteNumber":78,"velocity":79,"programNumber":40},{"time":450608.72750000976,"duration":39.0441666666884,"noteNumber":78,"velocity":79,"programNumber":40},{"time":450647.77166667645,"duration":39.0441666666884,"noteNumber":76,"velocity":79,"programNumber":40},{"time":450686.81583334313,"duration":39.0441666666884,"noteNumber":78,"velocity":79,"programNumber":40},{"time":450725.8600000098,"duration":468.53000000002794,"noteNumber":79,"velocity":79,"programNumber":40},{"time":451194.39000000985,"duration":468.53000000002794,"noteNumber":67,"velocity":79,"programNumber":40},{"time":452131.4500000099,"duration":468.53000000002794,"noteNumber":67,"velocity":36,"programNumber":40},{"time":452599.98000000993,"duration":468.53000000002794,"noteNumber":69,"velocity":36,"programNumber":40},{"time":453068.51000000996,"duration":468.53000000002794,"noteNumber":76,"velocity":36,"programNumber":40},{"time":453537.04000001,"duration":937.0599999999977,"noteNumber":79,"velocity":36,"programNumber":40},{"time":454474.10000001,"duration":234.26500000001397,"noteNumber":74,"velocity":36,"programNumber":40},{"time":454942.63000001,"duration":468.53000000002794,"noteNumber":64,"velocity":36,"programNumber":40},{"time":455411.16000001004,"duration":468.52999999996973,"noteNumber":69,"velocity":36,"programNumber":40},{"time":455879.69000001,"duration":468.53000000002794,"noteNumber":72,"velocity":36,"programNumber":40},{"time":456348.22000001004,"duration":937.0599999999977,"noteNumber":76,"velocity":36,"programNumber":40},{"time":457285.28000001004,"duration":234.26500000001397,"noteNumber":71,"velocity":36,"programNumber":40},{"time":457753.81000001007,"duration":468.53000000002794,"noteNumber":60,"velocity":36,"programNumber":40},{"time":458222.3400000101,"duration":468.53000000002794,"noteNumber":65,"velocity":36,"programNumber":40},{"time":458690.8700000101,"duration":468.53000000002794,"noteNumber":69,"velocity":36,"programNumber":40},{"time":459159.40000001015,"duration":234.26500000001397,"noteNumber":67,"velocity":36,"programNumber":40},{"time":459393.66500001017,"duration":234.26500000001397,"noteNumber":72,"velocity":36,"programNumber":40},{"time":459627.9300000102,"duration":702.7949999999837,"noteNumber":72,"velocity":36,"programNumber":40},{"time":460330.72500001016,"duration":234.26500000001397,"noteNumber":76,"velocity":36,"programNumber":40},{"time":460564.9900000102,"duration":468.53000000002794,"noteNumber":69,"velocity":36,"programNumber":40},{"time":461033.5200000102,"duration":234.26500000001397,"noteNumber":77,"velocity":36,"programNumber":40},{"time":461267.7850000102,"duration":234.26500000001397,"noteNumber":74,"velocity":36,"programNumber":40},{"time":461502.05000001023,"duration":234.26500000001397,"noteNumber":72,"velocity":36,"programNumber":40},{"time":461736.31500001025,"duration":234.26500000001397,"noteNumber":71,"velocity":36,"programNumber":40},{"time":461970.58000001026,"duration":234.26500000001397,"noteNumber":71,"velocity":36,"programNumber":40},{"time":462204.8450000103,"duration":702.7949999999837,"noteNumber":72,"velocity":36,"programNumber":40},{"time":463376.1700000102,"duration":1405.5900000000256,"noteNumber":74,"velocity":36,"programNumber":40},{"time":464781.76000001025,"duration":1405.5900000000256,"noteNumber":84,"velocity":36,"programNumber":40},{"time":466187.3500000103,"duration":468.53000000002794,"noteNumber":83,"velocity":36,"programNumber":40},{"time":466655.8800000103,"duration":234.26500000001397,"noteNumber":86,"velocity":36,"programNumber":40},{"time":466890.1450000103,"duration":234.26500000001397,"noteNumber":84,"velocity":36,"programNumber":40},{"time":467124.41000001034,"duration":234.26500000001397,"noteNumber":83,"velocity":36,"programNumber":40},{"time":467358.67500001035,"duration":234.26500000001397,"noteNumber":81,"velocity":36,"programNumber":40},{"time":467592.94000001036,"duration":937.0599999999977,"noteNumber":79,"velocity":36,"programNumber":40},{"time":468530.00000001036,"duration":468.53000000002794,"noteNumber":78,"velocity":36,"programNumber":40},{"time":468998.5300000104,"duration":468.53000000002794,"noteNumber":79,"velocity":36,"programNumber":40},{"time":469467.0600000104,"duration":468.53000000002794,"noteNumber":81,"velocity":36,"programNumber":40},{"time":469935.59000001044,"duration":468.53000000002794,"noteNumber":83,"velocity":36,"programNumber":40},{"time":470404.1200000105,"duration":468.53000000002794,"noteNumber":84,"velocity":36,"programNumber":40},{"time":470872.6500000105,"duration":468.53000000002794,"noteNumber":72,"velocity":36,"programNumber":40},{"time":471341.1800000105,"duration":468.53000000002794,"noteNumber":71,"velocity":36,"programNumber":40},{"time":471809.71000001056,"duration":234.26500000001397,"noteNumber":69,"velocity":36,"programNumber":40},{"time":472043.97500001057,"duration":234.26500000001397,"noteNumber":71,"velocity":36,"programNumber":40},{"time":472278.2400000106,"duration":468.53000000002794,"noteNumber":67,"velocity":36,"programNumber":40},{"time":472746.7700000106,"duration":468.53000000002794,"noteNumber":66,"velocity":36,"programNumber":40},{"time":473215.30000001064,"duration":937.0599999999977,"noteNumber":67,"velocity":36,"programNumber":40},{"time":474620.89000001067,"duration":234.26500000001397,"noteNumber":83,"velocity":36,"programNumber":40},{"time":474855.1550000107,"duration":234.26500000001397,"noteNumber":84,"velocity":36,"programNumber":40},{"time":475089.4200000107,"duration":468.53000000002794,"noteNumber":81,"velocity":36,"programNumber":40},{"time":476026.48000001075,"duration":234.26500000001397,"noteNumber":79,"velocity":36,"programNumber":40},{"time":476260.74500001076,"duration":234.26500000001397,"noteNumber":81,"velocity":36,"programNumber":40},{"time":476495.0100000108,"duration":468.53000000002794,"noteNumber":78,"velocity":36,"programNumber":40},{"time":477432.07000001083,"duration":468.53000000002794,"noteNumber":76,"velocity":36,"programNumber":40},{"time":477900.60000001086,"duration":468.53000000002794,"noteNumber":79,"velocity":36,"programNumber":40},{"time":478369.1300000109,"duration":468.52999999996973,"noteNumber":83,"velocity":36,"programNumber":40},{"time":478837.66000001086,"duration":937.0599999999977,"noteNumber":74,"velocity":36,"programNumber":40},{"time":479774.72000001086,"duration":468.53000000002794,"noteNumber":73,"velocity":36,"programNumber":40},{"time":480243.2500000109,"duration":468.53000000002794,"noteNumber":74,"velocity":36,"programNumber":40},{"time":480711.7800000109,"duration":468.53000000002794,"noteNumber":76,"velocity":36,"programNumber":40},{"time":481180.31000001094,"duration":468.53000000002794,"noteNumber":78,"velocity":36,"programNumber":40},{"time":481648.84000001097,"duration":468.53000000002794,"noteNumber":79,"velocity":36,"programNumber":40},{"time":482117.370000011,"duration":468.53000000002794,"noteNumber":81,"velocity":36,"programNumber":40},{"time":482585.900000011,"duration":468.53000000002794,"noteNumber":83,"velocity":36,"programNumber":40},{"time":483054.43000001105,"duration":468.53000000002794,"noteNumber":81,"velocity":36,"programNumber":40},{"time":483522.9600000111,"duration":234.26500000001397,"noteNumber":78,"velocity":36,"programNumber":40},{"time":483757.2250000111,"duration":234.26500000001397,"noteNumber":74,"velocity":36,"programNumber":40},{"time":483991.4900000111,"duration":234.26500000001397,"noteNumber":76,"velocity":36,"programNumber":40},{"time":484225.7550000111,"duration":234.26500000001397,"noteNumber":73,"velocity":36,"programNumber":40},{"time":484460.02000001114,"duration":1405.5900000000256,"noteNumber":74,"velocity":36,"programNumber":40},{"time":485865.61000001116,"duration":468.53000000002794,"noteNumber":74,"velocity":36,"programNumber":40},{"time":486334.1400000112,"duration":468.53000000002794,"noteNumber":78,"velocity":36,"programNumber":40},{"time":486802.6700000112,"duration":468.53000000002794,"noteNumber":79,"velocity":36,"programNumber":40},{"time":487271.20000001125,"duration":468.53000000002794,"noteNumber":81,"velocity":36,"programNumber":40},{"time":487739.7300000113,"duration":468.53000000002794,"noteNumber":84,"velocity":36,"programNumber":40},{"time":488208.2600000113,"duration":468.53000000002794,"noteNumber":83,"velocity":36,"programNumber":40},{"time":488676.79000001133,"duration":468.53000000002794,"noteNumber":88,"velocity":36,"programNumber":40},{"time":489145.32000001136,"duration":468.53000000002794,"noteNumber":76,"velocity":36,"programNumber":40},{"time":489613.8500000114,"duration":468.53000000002794,"noteNumber":81,"velocity":36,"programNumber":40},{"time":490082.3800000114,"duration":937.0599999999977,"noteNumber":79,"velocity":36,"programNumber":40},{"time":491019.4400000114,"duration":468.52999999996973,"noteNumber":78,"velocity":36,"programNumber":40},{"time":491487.9700000114,"duration":1405.5900000000256,"noteNumber":74,"velocity":79,"programNumber":40},{"time":492893.5600000114,"duration":1405.5900000000256,"noteNumber":84,"velocity":79,"programNumber":40},{"time":494299.15000001143,"duration":468.53000000002794,"noteNumber":83,"velocity":79,"programNumber":40},{"time":494767.68000001146,"duration":234.26500000001397,"noteNumber":86,"velocity":79,"programNumber":40},{"time":495001.9450000115,"duration":234.26500000001397,"noteNumber":84,"velocity":79,"programNumber":40},{"time":495236.2100000115,"duration":234.26500000001397,"noteNumber":83,"velocity":79,"programNumber":40},{"time":495470.4750000115,"duration":234.26500000001397,"noteNumber":81,"velocity":79,"programNumber":40},{"time":495704.7400000115,"duration":937.0599999999977,"noteNumber":79,"velocity":79,"programNumber":40},{"time":496641.8000000115,"duration":468.53000000002794,"noteNumber":78,"velocity":79,"programNumber":40},{"time":497110.33000001154,"duration":468.53000000002794,"noteNumber":79,"velocity":79,"programNumber":40},{"time":497578.86000001157,"duration":468.53000000002794,"noteNumber":81,"velocity":79,"programNumber":40},{"time":498047.3900000116,"duration":468.53000000002794,"noteNumber":83,"velocity":79,"programNumber":40},{"time":498515.9200000116,"duration":468.53000000002794,"noteNumber":84,"velocity":79,"programNumber":40},{"time":498984.45000001165,"duration":468.53000000002794,"noteNumber":72,"velocity":79,"programNumber":40},{"time":499452.9800000117,"duration":468.53000000002794,"noteNumber":71,"velocity":79,"programNumber":40},{"time":499921.5100000117,"duration":234.26500000001397,"noteNumber":69,"velocity":79,"programNumber":40},{"time":500155.7750000117,"duration":234.26500000001397,"noteNumber":71,"velocity":79,"programNumber":40},{"time":500390.04000001174,"duration":468.53000000002794,"noteNumber":67,"velocity":79,"programNumber":40},{"time":500858.57000001176,"duration":468.53000000002794,"noteNumber":66,"velocity":79,"programNumber":40},{"time":501327.1000000118,"duration":1405.5900000000256,"noteNumber":67,"velocity":79,"programNumber":40},{"time":504138.28000001184,"duration":468.53000000002794,"noteNumber":74,"velocity":79,"programNumber":40},{"time":504606.8100000119,"duration":468.53000000002794,"noteNumber":74,"velocity":79,"programNumber":40},{"time":505075.3400000119,"duration":234.26500000001397,"noteNumber":76,"velocity":36,"programNumber":40},{"time":505309.6050000119,"duration":234.26500000001397,"noteNumber":74,"velocity":36,"programNumber":40},{"time":505543.8700000119,"duration":234.26500000001397,"noteNumber":72,"velocity":36,"programNumber":40},{"time":505778.13500001194,"duration":234.26500000001397,"noteNumber":71,"velocity":36,"programNumber":40},{"time":506012.40000001196,"duration":468.53000000002794,"noteNumber":76,"velocity":36,"programNumber":40},{"time":506480.930000012,"duration":468.53000000002794,"noteNumber":76,"velocity":36,"programNumber":40},{"time":506949.460000012,"duration":937.0599999999977,"noteNumber":76,"velocity":36,"programNumber":40},{"time":507886.520000012,"duration":468.53000000002794,"noteNumber":72,"velocity":36,"programNumber":40},{"time":508355.05000001204,"duration":468.53000000002794,"noteNumber":72,"velocity":36,"programNumber":40},{"time":508823.58000001207,"duration":234.26500000001397,"noteNumber":74,"velocity":36,"programNumber":40},{"time":509057.8450000121,"duration":234.26500000001397,"noteNumber":72,"velocity":36,"programNumber":40},{"time":509292.1100000121,"duration":234.26500000001397,"noteNumber":71,"velocity":36,"programNumber":40},{"time":509526.3750000121,"duration":234.26500000001397,"noteNumber":69,"velocity":36,"programNumber":40},{"time":509760.6400000121,"duration":468.53000000002794,"noteNumber":69,"velocity":36,"programNumber":40},{"time":510229.17000001215,"duration":468.53000000002794,"noteNumber":69,"velocity":36,"programNumber":40},{"time":510697.7000000122,"duration":234.26500000001397,"noteNumber":71,"velocity":36,"programNumber":40},{"time":510931.9650000122,"duration":234.26500000001397,"noteNumber":69,"velocity":36,"programNumber":40},{"time":511166.2300000122,"duration":234.26500000001397,"noteNumber":67,"velocity":36,"programNumber":40},{"time":511400.4950000122,"duration":234.26499999995576,"noteNumber":66,"velocity":36,"programNumber":40},{"time":511634.7600000122,"duration":468.53000000002794,"noteNumber":74,"velocity":79,"programNumber":40},{"time":512103.2900000122,"duration":468.53000000002794,"noteNumber":74,"velocity":79,"programNumber":40},{"time":512571.82000001223,"duration":234.26500000001397,"noteNumber":76,"velocity":79,"programNumber":40},{"time":512806.08500001224,"duration":234.26500000001397,"noteNumber":74,"velocity":79,"programNumber":40},{"time":513040.35000001226,"duration":234.26500000001397,"noteNumber":72,"velocity":79,"programNumber":40},{"time":513274.6150000123,"duration":234.26500000001397,"noteNumber":71,"velocity":79,"programNumber":40},{"time":513508.8800000123,"duration":234.26500000001397,"noteNumber":76,"velocity":79,"programNumber":40},{"time":513743.1450000123,"duration":234.26500000001397,"noteNumber":74,"velocity":79,"programNumber":40},{"time":513977.4100000123,"duration":234.26500000001397,"noteNumber":76,"velocity":79,"programNumber":40},{"time":514211.6750000123,"duration":234.26500000001397,"noteNumber":78,"velocity":79,"programNumber":40},{"time":514445.94000001234,"duration":234.26500000001397,"noteNumber":79,"velocity":79,"programNumber":40},{"time":514680.20500001236,"duration":234.26500000001397,"noteNumber":78,"velocity":79,"programNumber":40},{"time":514914.47000001237,"duration":234.26500000001397,"noteNumber":79,"velocity":79,"programNumber":40},{"time":515148.7350000124,"duration":234.26500000001397,"noteNumber":81,"velocity":79,"programNumber":40},{"time":515383.0000000124,"duration":234.26500000001397,"noteNumber":83,"velocity":79,"programNumber":40},{"time":515617.2650000124,"duration":234.26500000001397,"noteNumber":81,"velocity":79,"programNumber":40},{"time":515851.5300000124,"duration":234.26500000001397,"noteNumber":83,"velocity":79,"programNumber":40},{"time":516085.79500001244,"duration":234.26500000001397,"noteNumber":84,"velocity":79,"programNumber":40},{"time":516320.06000001245,"duration":468.53000000002794,"noteNumber":86,"velocity":79,"programNumber":40},{"time":517257.1200000125,"duration":58.56624999997439,"noteNumber":71,"velocity":79,"programNumber":40},{"time":517315.6862500125,"duration":58.56624999997439,"noteNumber":69,"velocity":79,"programNumber":40},{"time":517374.25250001246,"duration":58.56624999997439,"noteNumber":71,"velocity":79,"programNumber":40},{"time":517432.81875001243,"duration":58.56624999997439,"noteNumber":69,"velocity":79,"programNumber":40},{"time":517491.3850000124,"duration":58.56624999997439,"noteNumber":71,"velocity":79,"programNumber":40},{"time":517549.9512500124,"duration":58.56624999997439,"noteNumber":69,"velocity":79,"programNumber":40},{"time":517608.51750001236,"duration":58.56624999997439,"noteNumber":71,"velocity":79,"programNumber":40},{"time":517667.08375001233,"duration":58.56624999997439,"noteNumber":69,"velocity":79,"programNumber":40},{"time":517725.6500000123,"duration":58.56624999997439,"noteNumber":71,"velocity":79,"programNumber":40},{"time":517784.2162500123,"duration":58.56624999997439,"noteNumber":69,"velocity":79,"programNumber":40},{"time":517842.78250001225,"duration":58.56624999997439,"noteNumber":71,"velocity":79,"programNumber":40},{"time":517901.3487500122,"duration":58.56624999997439,"noteNumber":69,"velocity":79,"programNumber":40},{"time":517959.9150000122,"duration":58.56624999997439,"noteNumber":71,"velocity":79,"programNumber":40},{"time":518018.4812500122,"duration":58.56624999997439,"noteNumber":69,"velocity":79,"programNumber":40},{"time":518077.04750001215,"duration":58.56624999997439,"noteNumber":71,"velocity":79,"programNumber":40},{"time":518135.6137500121,"duration":58.56624999997439,"noteNumber":69,"velocity":79,"programNumber":40},{"time":518194.1800000121,"duration":468.53000000002794,"noteNumber":67,"velocity":79,"programNumber":40},{"time":519131.24000001216,"duration":468.53000000002794,"noteNumber":74,"velocity":79,"programNumber":40},{"time":519599.7700000122,"duration":468.53000000002794,"noteNumber":74,"velocity":79,"programNumber":40},{"time":520068.3000000122,"duration":234.26500000001397,"noteNumber":76,"velocity":36,"programNumber":40},{"time":520302.5650000122,"duration":234.26500000001397,"noteNumber":74,"velocity":36,"programNumber":40},{"time":520536.83000001224,"duration":234.26500000001397,"noteNumber":72,"velocity":36,"programNumber":40},{"time":520771.09500001225,"duration":234.26500000001397,"noteNumber":71,"velocity":36,"programNumber":40},{"time":521005.36000001227,"duration":468.53000000002794,"noteNumber":76,"velocity":36,"programNumber":40},{"time":521473.8900000123,"duration":468.53000000002794,"noteNumber":76,"velocity":36,"programNumber":40},{"time":521942.4200000123,"duration":937.0599999999977,"noteNumber":76,"velocity":36,"programNumber":40},{"time":522879.4800000123,"duration":468.53000000002794,"noteNumber":72,"velocity":36,"programNumber":40},{"time":523348.01000001235,"duration":468.53000000002794,"noteNumber":72,"velocity":36,"programNumber":40},{"time":523816.5400000124,"duration":234.26500000001397,"noteNumber":74,"velocity":36,"programNumber":40},{"time":524050.8050000124,"duration":234.26500000001397,"noteNumber":72,"velocity":36,"programNumber":40},{"time":524285.0700000124,"duration":234.26500000001397,"noteNumber":71,"velocity":36,"programNumber":40},{"time":524519.3350000124,"duration":234.26500000001397,"noteNumber":69,"velocity":36,"programNumber":40},{"time":524753.6000000124,"duration":468.53000000002794,"noteNumber":69,"velocity":36,"programNumber":40},{"time":525222.1300000125,"duration":468.53000000002794,"noteNumber":69,"velocity":36,"programNumber":40},{"time":525690.6600000125,"duration":234.26500000001397,"noteNumber":71,"velocity":36,"programNumber":40},{"time":525924.9250000125,"duration":234.26500000001397,"noteNumber":69,"velocity":36,"programNumber":40},{"time":526159.1900000125,"duration":234.26500000001397,"noteNumber":67,"velocity":36,"programNumber":40},{"time":526393.4550000125,"duration":234.26500000001397,"noteNumber":66,"velocity":36,"programNumber":40},{"time":526627.7200000125,"duration":468.53000000002794,"noteNumber":74,"velocity":79,"programNumber":40},{"time":527096.2500000126,"duration":468.53000000002794,"noteNumber":74,"velocity":79,"programNumber":40},{"time":527564.7800000126,"duration":234.26500000001397,"noteNumber":76,"velocity":79,"programNumber":40},{"time":527799.0450000126,"duration":234.26500000001397,"noteNumber":74,"velocity":79,"programNumber":40},{"time":528033.3100000126,"duration":234.26500000001397,"noteNumber":72,"velocity":79,"programNumber":40},{"time":528267.5750000126,"duration":234.26500000001397,"noteNumber":71,"velocity":79,"programNumber":40},{"time":528501.8400000127,"duration":234.26500000001397,"noteNumber":76,"velocity":79,"programNumber":40},{"time":528736.1050000127,"duration":234.26500000001397,"noteNumber":74,"velocity":79,"programNumber":40},{"time":528970.3700000127,"duration":234.26500000001397,"noteNumber":76,"velocity":79,"programNumber":40},{"time":529204.6350000127,"duration":234.26500000001397,"noteNumber":78,"velocity":79,"programNumber":40},{"time":529438.9000000127,"duration":234.26500000001397,"noteNumber":79,"velocity":79,"programNumber":40},{"time":529673.1650000127,"duration":234.26500000001397,"noteNumber":78,"velocity":79,"programNumber":40},{"time":529907.4300000127,"duration":234.26500000001397,"noteNumber":79,"velocity":79,"programNumber":40},{"time":530141.6950000128,"duration":234.26500000001397,"noteNumber":81,"velocity":79,"programNumber":40},{"time":530375.9600000128,"duration":234.26500000001397,"noteNumber":83,"velocity":79,"programNumber":40},{"time":530610.2250000128,"duration":234.26500000001397,"noteNumber":81,"velocity":79,"programNumber":40},{"time":530844.4900000128,"duration":234.26500000001397,"noteNumber":83,"velocity":79,"programNumber":40},{"time":531078.7550000128,"duration":234.26500000001397,"noteNumber":84,"velocity":79,"programNumber":40},{"time":531313.0200000128,"duration":468.53000000002794,"noteNumber":86,"velocity":79,"programNumber":40},{"time":532250.0800000129,"duration":58.566250000032596,"noteNumber":71,"velocity":79,"programNumber":40},{"time":532308.6462500129,"duration":58.566250000032596,"noteNumber":69,"velocity":79,"programNumber":40},{"time":532367.212500013,"duration":58.566250000032596,"noteNumber":71,"velocity":79,"programNumber":40},{"time":532425.778750013,"duration":58.566250000032596,"noteNumber":69,"velocity":79,"programNumber":40},{"time":532484.345000013,"duration":58.566250000032596,"noteNumber":71,"velocity":79,"programNumber":40},{"time":532542.911250013,"duration":58.566250000032596,"noteNumber":69,"velocity":79,"programNumber":40},{"time":532601.4775000131,"duration":58.566250000032596,"noteNumber":71,"velocity":79,"programNumber":40},{"time":532660.0437500131,"duration":58.566250000032596,"noteNumber":69,"velocity":79,"programNumber":40},{"time":532718.6100000131,"duration":58.566250000032596,"noteNumber":71,"velocity":79,"programNumber":40},{"time":532777.1762500132,"duration":58.566250000032596,"noteNumber":69,"velocity":79,"programNumber":40},{"time":532835.7425000132,"duration":58.566250000032596,"noteNumber":71,"velocity":79,"programNumber":40},{"time":532894.3087500132,"duration":58.566250000032596,"noteNumber":69,"velocity":79,"programNumber":40},{"time":532952.8750000133,"duration":58.566250000032596,"noteNumber":71,"velocity":79,"programNumber":40},{"time":533011.4412500133,"duration":58.566250000032596,"noteNumber":69,"velocity":79,"programNumber":40},{"time":533070.0075000133,"duration":58.566250000032596,"noteNumber":71,"velocity":79,"programNumber":40},{"time":533128.5737500134,"duration":58.566250000032596,"noteNumber":69,"velocity":79,"programNumber":40},{"time":533187.1400000134,"duration":468.53000000002794,"noteNumber":67,"velocity":79,"programNumber":40},{"time":534124.2000000135,"duration":468.53000000002794,"noteNumber":79,"velocity":79,"programNumber":40},{"time":534592.7300000135,"duration":234.26500000001397,"noteNumber":81,"velocity":79,"programNumber":40},{"time":534826.9950000135,"duration":234.26500000001397,"noteNumber":83,"velocity":79,"programNumber":40},{"time":535061.2600000135,"duration":234.26500000001397,"noteNumber":83,"velocity":79,"programNumber":40},{"time":535295.5250000135,"duration":234.26500000001397,"noteNumber":81,"velocity":79,"programNumber":40},{"time":535529.7900000135,"duration":234.26500000001397,"noteNumber":79,"velocity":79,"programNumber":40},{"time":535764.0550000136,"duration":234.26500000001397,"noteNumber":78,"velocity":79,"programNumber":40},{"time":535998.3200000136,"duration":234.26500000001397,"noteNumber":78,"velocity":79,"programNumber":40},{"time":536232.5850000136,"duration":234.26500000001397,"noteNumber":76,"velocity":79,"programNumber":40},{"time":536466.8500000136,"duration":234.26500000001397,"noteNumber":74,"velocity":79,"programNumber":40},{"time":536701.1150000136,"duration":234.26500000001397,"noteNumber":73,"velocity":79,"programNumber":40},{"time":536935.3800000136,"duration":234.26500000001397,"noteNumber":76,"velocity":79,"programNumber":40},{"time":537169.6450000136,"duration":234.26500000001397,"noteNumber":74,"velocity":79,"programNumber":40},{"time":537403.9100000137,"duration":234.26500000001397,"noteNumber":78,"velocity":79,"programNumber":40},{"time":537638.1750000137,"duration":234.26500000001397,"noteNumber":76,"velocity":79,"programNumber":40},{"time":537872.4400000137,"duration":234.26500000001397,"noteNumber":79,"velocity":79,"programNumber":40},{"time":538106.7050000137,"duration":234.26500000001397,"noteNumber":78,"velocity":79,"programNumber":40},{"time":538340.9700000137,"duration":234.26500000001397,"noteNumber":81,"velocity":79,"programNumber":40},{"time":538575.2350000137,"duration":234.26500000001397,"noteNumber":79,"velocity":79,"programNumber":40},{"time":538809.5000000137,"duration":234.26500000001397,"noteNumber":83,"velocity":79,"programNumber":40},{"time":539043.7650000138,"duration":234.26500000001397,"noteNumber":81,"velocity":79,"programNumber":40},{"time":539278.0300000138,"duration":234.26500000001397,"noteNumber":79,"velocity":79,"programNumber":40},{"time":539512.2950000138,"duration":234.26500000001397,"noteNumber":78,"velocity":79,"programNumber":40},{"time":539746.5600000138,"duration":234.26500000001397,"noteNumber":78,"velocity":79,"programNumber":40},{"time":539980.8250000138,"duration":234.26500000001397,"noteNumber":76,"velocity":79,"programNumber":40},{"time":540215.0900000138,"duration":234.26500000001397,"noteNumber":79,"velocity":79,"programNumber":40},{"time":540449.3550000138,"duration":234.26500000001397,"noteNumber":83,"velocity":79,"programNumber":40},{"time":540683.6200000138,"duration":468.53000000002794,"noteNumber":74,"velocity":79,"programNumber":40},{"time":541152.1500000139,"duration":468.53000000002794,"noteNumber":73,"velocity":79,"programNumber":40},{"time":541620.6800000139,"duration":468.53000000002794,"noteNumber":79,"velocity":79,"programNumber":40},{"time":542089.2100000139,"duration":234.26500000001397,"noteNumber":81,"velocity":79,"programNumber":40},{"time":542323.475000014,"duration":234.26500000001397,"noteNumber":83,"velocity":79,"programNumber":40},{"time":542557.740000014,"duration":234.26500000001397,"noteNumber":83,"velocity":79,"programNumber":40},{"time":542792.005000014,"duration":234.26500000001397,"noteNumber":81,"velocity":79,"programNumber":40},{"time":543026.270000014,"duration":234.26500000001397,"noteNumber":79,"velocity":79,"programNumber":40},{"time":543260.535000014,"duration":234.26500000001397,"noteNumber":78,"velocity":79,"programNumber":40},{"time":543494.800000014,"duration":58.566250000032596,"noteNumber":78,"velocity":79,"programNumber":40},{"time":543553.366250014,"duration":58.566250000032596,"noteNumber":76,"velocity":79,"programNumber":40},{"time":543611.9325000141,"duration":351.39749999996275,"noteNumber":76,"velocity":79,"programNumber":40},{"time":543963.330000014,"duration":234.26500000001397,"noteNumber":74,"velocity":79,"programNumber":40},{"time":544197.5950000141,"duration":234.26500000001397,"noteNumber":73,"velocity":79,"programNumber":40},{"time":544431.8600000141,"duration":234.26500000001397,"noteNumber":76,"velocity":79,"programNumber":40},{"time":544666.1250000141,"duration":234.26500000001397,"noteNumber":74,"velocity":79,"programNumber":40},{"time":544900.3900000141,"duration":234.26500000001397,"noteNumber":78,"velocity":79,"programNumber":40},{"time":545134.6550000141,"duration":234.26500000001397,"noteNumber":76,"velocity":79,"programNumber":40},{"time":545368.9200000141,"duration":234.26500000001397,"noteNumber":79,"velocity":79,"programNumber":40},{"time":545603.1850000141,"duration":234.26500000001397,"noteNumber":78,"velocity":79,"programNumber":40},{"time":545837.4500000142,"duration":234.26500000001397,"noteNumber":81,"velocity":79,"programNumber":40},{"time":546071.7150000142,"duration":234.26500000001397,"noteNumber":79,"velocity":79,"programNumber":40},{"time":546305.9800000142,"duration":234.26500000001397,"noteNumber":83,"velocity":79,"programNumber":40},{"time":546540.2450000142,"duration":234.26500000001397,"noteNumber":81,"velocity":79,"programNumber":40},{"time":546774.5100000142,"duration":234.26500000001397,"noteNumber":79,"velocity":79,"programNumber":40},{"time":547008.7750000142,"duration":234.26500000001397,"noteNumber":78,"velocity":79,"programNumber":40},{"time":547243.0400000142,"duration":234.26500000001397,"noteNumber":78,"velocity":79,"programNumber":40},{"time":547477.3050000143,"duration":234.26500000001397,"noteNumber":76,"velocity":79,"programNumber":40},{"time":547711.5700000143,"duration":234.26500000001397,"noteNumber":74,"velocity":79,"programNumber":40},{"time":547945.8350000143,"duration":234.26500000001397,"noteNumber":73,"velocity":79,"programNumber":40},{"time":548180.1000000143,"duration":937.0600000000559,"noteNumber":74,"velocity":79,"programNumber":40},{"time":549117.1600000144,"duration":468.53000000002794,"noteNumber":62,"velocity":36,"programNumber":40},{"time":549585.6900000144,"duration":234.26500000001397,"noteNumber":62,"velocity":36,"programNumber":40},{"time":549819.9550000144,"duration":234.26500000001397,"noteNumber":62,"velocity":36,"programNumber":40},{"time":550054.2200000144,"duration":468.53000000002794,"noteNumber":65,"velocity":36,"programNumber":40},{"time":550522.7500000144,"duration":468.53000000002794,"noteNumber":64,"velocity":36,"programNumber":40},{"time":550991.2800000145,"duration":468.53000000002794,"noteNumber":64,"velocity":36,"programNumber":40},{"time":551459.8100000145,"duration":234.26500000001397,"noteNumber":64,"velocity":36,"programNumber":40},{"time":551694.0750000145,"duration":234.26500000001397,"noteNumber":64,"velocity":36,"programNumber":40},{"time":551928.3400000145,"duration":468.53000000002794,"noteNumber":64,"velocity":36,"programNumber":40},{"time":552396.8700000145,"duration":468.53000000002794,"noteNumber":57,"velocity":36,"programNumber":40},{"time":552865.4000000146,"duration":468.53000000002794,"noteNumber":60,"velocity":36,"programNumber":40},{"time":553333.9300000146,"duration":234.26500000001397,"noteNumber":60,"velocity":36,"programNumber":40},{"time":553568.1950000146,"duration":234.26500000001397,"noteNumber":60,"velocity":36,"programNumber":40},{"time":553802.4600000146,"duration":468.53000000002794,"noteNumber":63,"velocity":36,"programNumber":40},{"time":554270.9900000147,"duration":468.53000000002794,"noteNumber":62,"velocity":36,"programNumber":40},{"time":554739.5200000147,"duration":468.53000000002794,"noteNumber":62,"velocity":36,"programNumber":40},{"time":555208.0500000147,"duration":234.26500000001397,"noteNumber":62,"velocity":36,"programNumber":40},{"time":555442.3150000147,"duration":234.26500000001397,"noteNumber":62,"velocity":36,"programNumber":40},{"time":555676.5800000147,"duration":468.53000000002794,"noteNumber":62,"velocity":36,"programNumber":40},{"time":556145.1100000148,"duration":468.53000000002794,"noteNumber":55,"velocity":36,"programNumber":40},{"time":556613.6400000148,"duration":234.26500000001397,"noteNumber":83,"velocity":79,"programNumber":40},{"time":556847.9050000148,"duration":234.26500000001397,"noteNumber":81,"velocity":79,"programNumber":40},{"time":557082.1700000148,"duration":234.26500000001397,"noteNumber":79,"velocity":79,"programNumber":40},{"time":557316.4350000148,"duration":234.26500000001397,"noteNumber":78,"velocity":79,"programNumber":40},{"time":557550.7000000149,"duration":234.26500000001397,"noteNumber":79,"velocity":79,"programNumber":40},{"time":557784.9650000149,"duration":234.26500000001397,"noteNumber":78,"velocity":79,"programNumber":40},{"time":558019.2300000149,"duration":234.26500000001397,"noteNumber":76,"velocity":79,"programNumber":40},{"time":558253.4950000149,"duration":234.26500000001397,"noteNumber":74,"velocity":79,"programNumber":40},{"time":558487.7600000149,"duration":234.26499999989755,"noteNumber":76,"velocity":79,"programNumber":40},{"time":558722.0250000148,"duration":234.26500000001397,"noteNumber":74,"velocity":79,"programNumber":40},{"time":558956.2900000148,"duration":234.26500000001397,"noteNumber":72,"velocity":79,"programNumber":40},{"time":559190.5550000148,"duration":234.26500000001397,"noteNumber":71,"velocity":79,"programNumber":40},{"time":559424.8200000148,"duration":234.26500000001397,"noteNumber":72,"velocity":79,"programNumber":40},{"time":559659.0850000149,"duration":234.26500000001397,"noteNumber":71,"velocity":79,"programNumber":40},{"time":559893.3500000149,"duration":234.26500000001397,"noteNumber":69,"velocity":79,"programNumber":40},{"time":560127.6150000149,"duration":234.26500000001397,"noteNumber":67,"velocity":79,"programNumber":40},{"time":560361.8800000149,"duration":234.26500000001397,"noteNumber":69,"velocity":79,"programNumber":40},{"time":560596.1450000149,"duration":234.26500000001397,"noteNumber":67,"velocity":79,"programNumber":40},{"time":560830.4100000149,"duration":234.26500000001397,"noteNumber":66,"velocity":79,"programNumber":40},{"time":561064.675000015,"duration":234.26500000001397,"noteNumber":64,"velocity":79,"programNumber":40},{"time":561298.940000015,"duration":468.53000000002794,"noteNumber":62,"velocity":79,"programNumber":40},{"time":561767.470000015,"duration":937.0600000000559,"noteNumber":72,"velocity":79,"programNumber":40},{"time":562704.530000015,"duration":58.566250000032596,"noteNumber":72,"velocity":79,"programNumber":40},{"time":562763.0962500151,"duration":58.566250000032596,"noteNumber":71,"velocity":79,"programNumber":40},{"time":562821.6625000151,"duration":58.566250000032596,"noteNumber":72,"velocity":79,"programNumber":40},{"time":562880.2287500151,"duration":58.566250000032596,"noteNumber":71,"velocity":79,"programNumber":40},{"time":562938.7950000152,"duration":58.566250000032596,"noteNumber":72,"velocity":79,"programNumber":40},{"time":562997.3612500152,"duration":58.566250000032596,"noteNumber":71,"velocity":79,"programNumber":40},{"time":563055.9275000152,"duration":58.566250000032596,"noteNumber":72,"velocity":79,"programNumber":40},{"time":563114.4937500153,"duration":58.566250000032596,"noteNumber":71,"velocity":79,"programNumber":40},{"time":563173.0600000153,"duration":468.53000000002794,"noteNumber":69,"velocity":79,"programNumber":40},{"time":564110.1200000154,"duration":468.53000000002794,"noteNumber":74,"velocity":36,"programNumber":40},{"time":564578.6500000154,"duration":468.53000000002794,"noteNumber":74,"velocity":36,"programNumber":40},{"time":565047.1800000154,"duration":234.26500000001397,"noteNumber":76,"velocity":36,"programNumber":40},{"time":565281.4450000154,"duration":234.26500000001397,"noteNumber":74,"velocity":36,"programNumber":40},{"time":565515.7100000154,"duration":234.26500000001397,"noteNumber":72,"velocity":36,"programNumber":40},{"time":565749.9750000155,"duration":234.26500000001397,"noteNumber":71,"velocity":36,"programNumber":40},{"time":565984.2400000155,"duration":468.53000000002794,"noteNumber":76,"velocity":36,"programNumber":40},{"time":566452.7700000155,"duration":468.53000000002794,"noteNumber":76,"velocity":36,"programNumber":40},{"time":566921.3000000155,"duration":937.0600000000559,"noteNumber":76,"velocity":36,"programNumber":40},{"time":567858.3600000156,"duration":468.53000000002794,"noteNumber":72,"velocity":36,"programNumber":40},{"time":568326.8900000156,"duration":468.53000000002794,"noteNumber":72,"velocity":36,"programNumber":40},{"time":568795.4200000156,"duration":234.26500000001397,"noteNumber":74,"velocity":36,"programNumber":40},{"time":569029.6850000157,"duration":234.26500000001397,"noteNumber":72,"velocity":36,"programNumber":40},{"time":569263.9500000157,"duration":234.26500000001397,"noteNumber":71,"velocity":36,"programNumber":40},{"time":569498.2150000157,"duration":234.26500000001397,"noteNumber":69,"velocity":36,"programNumber":40},{"time":569732.4800000157,"duration":468.53000000002794,"noteNumber":69,"velocity":36,"programNumber":40},{"time":570201.0100000157,"duration":468.53000000002794,"noteNumber":69,"velocity":36,"programNumber":40},{"time":570669.5400000158,"duration":234.26500000001397,"noteNumber":71,"velocity":36,"programNumber":40},{"time":570903.8050000158,"duration":234.26500000001397,"noteNumber":69,"velocity":36,"programNumber":40},{"time":571138.0700000158,"duration":234.26500000001397,"noteNumber":67,"velocity":36,"programNumber":40},{"time":571372.3350000158,"duration":234.26500000001397,"noteNumber":66,"velocity":36,"programNumber":40},{"time":571606.6000000158,"duration":468.53000000002794,"noteNumber":74,"velocity":79,"programNumber":40},{"time":572075.1300000158,"duration":468.53000000002794,"noteNumber":74,"velocity":79,"programNumber":40},{"time":572543.6600000159,"duration":234.26500000001397,"noteNumber":76,"velocity":79,"programNumber":40},{"time":572777.9250000159,"duration":234.26500000001397,"noteNumber":74,"velocity":79,"programNumber":40},{"time":573012.1900000159,"duration":234.26500000001397,"noteNumber":72,"velocity":79,"programNumber":40},{"time":573246.4550000159,"duration":234.26500000001397,"noteNumber":71,"velocity":79,"programNumber":40},{"time":573480.7200000159,"duration":234.26500000001397,"noteNumber":76,"velocity":79,"programNumber":40},{"time":573714.9850000159,"duration":234.26500000001397,"noteNumber":74,"velocity":79,"programNumber":40},{"time":573949.250000016,"duration":234.26500000001397,"noteNumber":76,"velocity":79,"programNumber":40},{"time":574183.515000016,"duration":234.26500000001397,"noteNumber":78,"velocity":79,"programNumber":40},{"time":574417.780000016,"duration":234.26500000001397,"noteNumber":79,"velocity":79,"programNumber":40},{"time":574652.045000016,"duration":234.26500000001397,"noteNumber":78,"velocity":79,"programNumber":40},{"time":574886.310000016,"duration":234.26500000001397,"noteNumber":79,"velocity":79,"programNumber":40},{"time":575120.575000016,"duration":234.26500000001397,"noteNumber":81,"velocity":79,"programNumber":40},{"time":575354.840000016,"duration":234.26500000001397,"noteNumber":83,"velocity":79,"programNumber":40},{"time":575589.105000016,"duration":234.26500000001397,"noteNumber":81,"velocity":79,"programNumber":40},{"time":575823.3700000161,"duration":234.26500000001397,"noteNumber":83,"velocity":79,"programNumber":40},{"time":576057.6350000161,"duration":234.26500000001397,"noteNumber":84,"velocity":79,"programNumber":40},{"time":576291.9000000161,"duration":468.53000000002794,"noteNumber":86,"velocity":79,"programNumber":40},{"time":577228.9600000161,"duration":58.566250000032596,"noteNumber":71,"velocity":79,"programNumber":40},{"time":577287.5262500162,"duration":58.566250000032596,"noteNumber":69,"velocity":79,"programNumber":40},{"time":577346.0925000162,"duration":58.566250000032596,"noteNumber":71,"velocity":79,"programNumber":40},{"time":577404.6587500162,"duration":58.566250000032596,"noteNumber":69,"velocity":79,"programNumber":40},{"time":577463.2250000163,"duration":58.566250000032596,"noteNumber":71,"velocity":79,"programNumber":40},{"time":577521.7912500163,"duration":58.566250000032596,"noteNumber":69,"velocity":79,"programNumber":40},{"time":577580.3575000163,"duration":58.566250000032596,"noteNumber":71,"velocity":79,"programNumber":40},{"time":577638.9237500164,"duration":58.566250000032596,"noteNumber":69,"velocity":79,"programNumber":40},{"time":577697.4900000164,"duration":58.566250000032596,"noteNumber":71,"velocity":79,"programNumber":40},{"time":577756.0562500164,"duration":58.566250000032596,"noteNumber":69,"velocity":79,"programNumber":40},{"time":577814.6225000165,"duration":58.566250000032596,"noteNumber":71,"velocity":79,"programNumber":40},{"time":577873.1887500165,"duration":58.566250000032596,"noteNumber":69,"velocity":79,"programNumber":40},{"time":577931.7550000165,"duration":58.566250000032596,"noteNumber":71,"velocity":79,"programNumber":40},{"time":577990.3212500166,"duration":58.566250000032596,"noteNumber":69,"velocity":79,"programNumber":40},{"time":578048.8875000166,"duration":58.566250000032596,"noteNumber":71,"velocity":79,"programNumber":40},{"time":578107.4537500166,"duration":58.566250000032596,"noteNumber":69,"velocity":79,"programNumber":40},{"time":578166.0200000167,"duration":468.53000000002794,"noteNumber":67,"velocity":79,"programNumber":40},{"time":579103.0800000167,"duration":468.53000000002794,"noteNumber":79,"velocity":79,"programNumber":40},{"time":579571.6100000167,"duration":234.26500000001397,"noteNumber":81,"velocity":79,"programNumber":40},{"time":579805.8750000168,"duration":234.26500000001397,"noteNumber":83,"velocity":79,"programNumber":40},{"time":580040.1400000168,"duration":234.26500000001397,"noteNumber":83,"velocity":79,"programNumber":40},{"time":580274.4050000168,"duration":234.26500000001397,"noteNumber":81,"velocity":79,"programNumber":40},{"time":580508.6700000168,"duration":234.26500000001397,"noteNumber":79,"velocity":79,"programNumber":40},{"time":580742.9350000168,"duration":234.26500000001397,"noteNumber":78,"velocity":79,"programNumber":40},{"time":580977.2000000168,"duration":234.26500000001397,"noteNumber":78,"velocity":79,"programNumber":40},{"time":581211.4650000168,"duration":234.26500000001397,"noteNumber":76,"velocity":79,"programNumber":40},{"time":581445.7300000169,"duration":234.26500000001397,"noteNumber":74,"velocity":79,"programNumber":40},{"time":581679.9950000169,"duration":234.26500000001397,"noteNumber":73,"velocity":79,"programNumber":40},{"time":581914.2600000169,"duration":234.26500000001397,"noteNumber":76,"velocity":79,"programNumber":40},{"time":582148.5250000169,"duration":234.26500000001397,"noteNumber":74,"velocity":79,"programNumber":40},{"time":582382.7900000169,"duration":234.26500000001397,"noteNumber":78,"velocity":79,"programNumber":40},{"time":582617.0550000169,"duration":234.26500000001397,"noteNumber":76,"velocity":79,"programNumber":40},{"time":582851.320000017,"duration":234.26500000001397,"noteNumber":79,"velocity":79,"programNumber":40},{"time":583085.585000017,"duration":234.26500000001397,"noteNumber":78,"velocity":79,"programNumber":40},{"time":583319.850000017,"duration":234.26500000001397,"noteNumber":81,"velocity":79,"programNumber":40},{"time":583554.115000017,"duration":234.26500000001397,"noteNumber":79,"velocity":79,"programNumber":40},{"time":583788.380000017,"duration":234.26500000001397,"noteNumber":83,"velocity":79,"programNumber":40},{"time":584022.645000017,"duration":234.26500000001397,"noteNumber":81,"velocity":79,"programNumber":40},{"time":584256.910000017,"duration":234.26500000001397,"noteNumber":79,"velocity":79,"programNumber":40},{"time":584491.175000017,"duration":234.26500000001397,"noteNumber":78,"velocity":79,"programNumber":40},{"time":584725.440000017,"duration":234.26500000001397,"noteNumber":78,"velocity":79,"programNumber":40},{"time":584959.7050000171,"duration":234.26500000001397,"noteNumber":76,"velocity":79,"programNumber":40},{"time":585193.9700000171,"duration":234.26500000001397,"noteNumber":79,"velocity":79,"programNumber":40},{"time":585428.2350000171,"duration":234.26500000001397,"noteNumber":83,"velocity":79,"programNumber":40},{"time":585662.5000000171,"duration":468.53000000002794,"noteNumber":74,"velocity":79,"programNumber":40},{"time":586131.0300000171,"duration":468.53000000002794,"noteNumber":73,"velocity":79,"programNumber":40},{"time":586599.5600000172,"duration":468.53000000002794,"noteNumber":79,"velocity":79,"programNumber":40},{"time":587068.0900000172,"duration":234.26500000001397,"noteNumber":81,"velocity":79,"programNumber":40},{"time":587302.3550000172,"duration":234.26500000001397,"noteNumber":83,"velocity":79,"programNumber":40},{"time":587536.6200000172,"duration":234.26500000001397,"noteNumber":83,"velocity":79,"programNumber":40},{"time":587770.8850000172,"duration":234.26500000001397,"noteNumber":81,"velocity":79,"programNumber":40},{"time":588005.1500000173,"duration":234.26500000001397,"noteNumber":79,"velocity":79,"programNumber":40},{"time":588239.4150000173,"duration":234.26500000001397,"noteNumber":78,"velocity":79,"programNumber":40},{"time":588473.6800000173,"duration":58.566250000032596,"noteNumber":78,"velocity":79,"programNumber":40},{"time":588532.2462500173,"duration":58.566250000032596,"noteNumber":76,"velocity":79,"programNumber":40},{"time":588590.8125000173,"duration":351.39749999996275,"noteNumber":76,"velocity":79,"programNumber":40},{"time":588942.2100000173,"duration":234.26500000001397,"noteNumber":74,"velocity":79,"programNumber":40},{"time":589176.4750000173,"duration":234.26500000001397,"noteNumber":73,"velocity":79,"programNumber":40},{"time":589410.7400000173,"duration":234.26500000001397,"noteNumber":76,"velocity":79,"programNumber":40},{"time":589645.0050000174,"duration":234.26500000001397,"noteNumber":74,"velocity":79,"programNumber":40},{"time":589879.2700000174,"duration":234.26500000001397,"noteNumber":78,"velocity":79,"programNumber":40},{"time":590113.5350000174,"duration":234.26500000001397,"noteNumber":76,"velocity":79,"programNumber":40},{"time":590347.8000000174,"duration":234.26500000001397,"noteNumber":79,"velocity":79,"programNumber":40},{"time":590582.0650000174,"duration":234.26500000001397,"noteNumber":78,"velocity":79,"programNumber":40},{"time":590816.3300000174,"duration":234.26500000001397,"noteNumber":81,"velocity":79,"programNumber":40},{"time":591050.5950000174,"duration":234.26500000001397,"noteNumber":79,"velocity":79,"programNumber":40},{"time":591284.8600000174,"duration":234.26500000001397,"noteNumber":83,"velocity":79,"programNumber":40},{"time":591519.1250000175,"duration":234.26500000001397,"noteNumber":81,"velocity":79,"programNumber":40},{"time":591753.3900000175,"duration":234.26500000001397,"noteNumber":79,"velocity":79,"programNumber":40},{"time":591987.6550000175,"duration":234.26500000001397,"noteNumber":78,"velocity":79,"programNumber":40},{"time":592221.9200000175,"duration":234.26500000001397,"noteNumber":78,"velocity":79,"programNumber":40},{"time":592456.1850000175,"duration":234.26500000001397,"noteNumber":76,"velocity":79,"programNumber":40},{"time":592690.4500000175,"duration":234.26500000001397,"noteNumber":74,"velocity":79,"programNumber":40},{"time":592924.7150000175,"duration":234.26500000001397,"noteNumber":73,"velocity":79,"programNumber":40},{"time":593158.9800000176,"duration":937.0600000000559,"noteNumber":74,"velocity":79,"programNumber":40},{"time":594096.0400000176,"duration":468.53000000002794,"noteNumber":62,"velocity":36,"programNumber":40},{"time":594564.5700000176,"duration":234.26500000001397,"noteNumber":62,"velocity":36,"programNumber":40},{"time":594798.8350000177,"duration":234.26500000001397,"noteNumber":62,"velocity":36,"programNumber":40},{"time":595033.1000000177,"duration":468.53000000002794,"noteNumber":65,"velocity":36,"programNumber":40},{"time":595501.6300000177,"duration":468.53000000002794,"noteNumber":64,"velocity":36,"programNumber":40},{"time":595970.1600000177,"duration":468.53000000002794,"noteNumber":64,"velocity":36,"programNumber":40},{"time":596438.6900000178,"duration":234.26500000001397,"noteNumber":64,"velocity":36,"programNumber":40},{"time":596672.9550000178,"duration":234.26500000001397,"noteNumber":64,"velocity":36,"programNumber":40},{"time":596907.2200000178,"duration":468.53000000002794,"noteNumber":64,"velocity":36,"programNumber":40},{"time":597375.7500000178,"duration":468.53000000002794,"noteNumber":57,"velocity":36,"programNumber":40},{"time":597844.2800000178,"duration":468.53000000002794,"noteNumber":60,"velocity":36,"programNumber":40},{"time":598312.8100000179,"duration":234.26500000001397,"noteNumber":60,"velocity":36,"programNumber":40},{"time":598547.0750000179,"duration":234.26500000001397,"noteNumber":60,"velocity":36,"programNumber":40},{"time":598781.3400000179,"duration":468.53000000002794,"noteNumber":63,"velocity":36,"programNumber":40},{"time":599249.8700000179,"duration":468.53000000002794,"noteNumber":62,"velocity":36,"programNumber":40},{"time":599718.400000018,"duration":468.53000000002794,"noteNumber":62,"velocity":36,"programNumber":40},{"time":600186.930000018,"duration":234.26500000001397,"noteNumber":62,"velocity":36,"programNumber":40},{"time":600421.195000018,"duration":234.26500000001397,"noteNumber":62,"velocity":36,"programNumber":40},{"time":600655.460000018,"duration":468.53000000002794,"noteNumber":62,"velocity":36,"programNumber":40},{"time":601123.990000018,"duration":468.53000000002794,"noteNumber":55,"velocity":36,"programNumber":40},{"time":601592.5200000181,"duration":234.26500000001397,"noteNumber":83,"velocity":79,"programNumber":40},{"time":601826.7850000181,"duration":234.26500000001397,"noteNumber":81,"velocity":79,"programNumber":40},{"time":602061.0500000181,"duration":234.26500000001397,"noteNumber":79,"velocity":79,"programNumber":40},{"time":602295.3150000181,"duration":234.26500000001397,"noteNumber":78,"velocity":79,"programNumber":40},{"time":602529.5800000181,"duration":234.26500000001397,"noteNumber":79,"velocity":79,"programNumber":40},{"time":602763.8450000181,"duration":234.26500000001397,"noteNumber":78,"velocity":79,"programNumber":40},{"time":602998.1100000181,"duration":234.26500000001397,"noteNumber":76,"velocity":79,"programNumber":40},{"time":603232.3750000182,"duration":234.26500000001397,"noteNumber":74,"velocity":79,"programNumber":40},{"time":603466.6400000182,"duration":234.26500000001397,"noteNumber":76,"velocity":79,"programNumber":40},{"time":603700.9050000182,"duration":234.26500000001397,"noteNumber":74,"velocity":79,"programNumber":40},{"time":603935.1700000182,"duration":234.26500000001397,"noteNumber":72,"velocity":79,"programNumber":40},{"time":604169.4350000182,"duration":234.26500000001397,"noteNumber":71,"velocity":79,"programNumber":40},{"time":604403.7000000182,"duration":234.26500000001397,"noteNumber":72,"velocity":79,"programNumber":40},{"time":604637.9650000182,"duration":234.26500000001397,"noteNumber":71,"velocity":79,"programNumber":40},{"time":604872.2300000183,"duration":234.26500000001397,"noteNumber":69,"velocity":79,"programNumber":40},{"time":605106.4950000183,"duration":234.26500000001397,"noteNumber":67,"velocity":79,"programNumber":40},{"time":605340.7600000183,"duration":234.26500000001397,"noteNumber":69,"velocity":79,"programNumber":40},{"time":605575.0250000183,"duration":234.26500000001397,"noteNumber":67,"velocity":79,"programNumber":40},{"time":605809.2900000183,"duration":234.26500000001397,"noteNumber":66,"velocity":79,"programNumber":40},{"time":606043.5550000183,"duration":234.26500000001397,"noteNumber":64,"velocity":79,"programNumber":40},{"time":606277.8200000183,"duration":468.53000000002794,"noteNumber":62,"velocity":79,"programNumber":40},{"time":606746.3500000184,"duration":937.0600000000559,"noteNumber":72,"velocity":79,"programNumber":40},{"time":607683.4100000184,"duration":58.566250000032596,"noteNumber":72,"velocity":79,"programNumber":40},{"time":607741.9762500185,"duration":58.566250000032596,"noteNumber":71,"velocity":79,"programNumber":40},{"time":607800.5425000185,"duration":58.566250000032596,"noteNumber":72,"velocity":79,"programNumber":40},{"time":607859.1087500185,"duration":58.566250000032596,"noteNumber":71,"velocity":79,"programNumber":40},{"time":607917.6750000186,"duration":58.566250000032596,"noteNumber":72,"velocity":79,"programNumber":40},{"time":607976.2412500186,"duration":58.566250000032596,"noteNumber":71,"velocity":79,"programNumber":40},{"time":608034.8075000186,"duration":58.566250000032596,"noteNumber":72,"velocity":79,"programNumber":40},{"time":608093.3737500187,"duration":58.566250000032596,"noteNumber":71,"velocity":79,"programNumber":40},{"time":608151.9400000187,"duration":468.53000000002794,"noteNumber":69,"velocity":79,"programNumber":40},{"time":609089.0000000187,"duration":468.53000000002794,"noteNumber":74,"velocity":36,"programNumber":40},{"time":609557.5300000188,"duration":468.53000000002794,"noteNumber":74,"velocity":36,"programNumber":40},{"time":610026.0600000188,"duration":234.26500000001397,"noteNumber":76,"velocity":36,"programNumber":40},{"time":610260.3250000188,"duration":234.26500000001397,"noteNumber":74,"velocity":36,"programNumber":40},{"time":610494.5900000188,"duration":234.26500000001397,"noteNumber":72,"velocity":36,"programNumber":40},{"time":610728.8550000188,"duration":234.26500000001397,"noteNumber":71,"velocity":36,"programNumber":40},{"time":610963.1200000189,"duration":468.5299999999115,"noteNumber":76,"velocity":36,"programNumber":40},{"time":611431.6500000188,"duration":468.53000000002794,"noteNumber":76,"velocity":36,"programNumber":40},{"time":611900.1800000188,"duration":937.0600000000559,"noteNumber":76,"velocity":36,"programNumber":40},{"time":612837.2400000188,"duration":468.53000000002794,"noteNumber":72,"velocity":36,"programNumber":40},{"time":613305.7700000189,"duration":468.53000000002794,"noteNumber":72,"velocity":36,"programNumber":40},{"time":613774.3000000189,"duration":234.26500000001397,"noteNumber":74,"velocity":36,"programNumber":40},{"time":614008.5650000189,"duration":234.26500000001397,"noteNumber":72,"velocity":36,"programNumber":40},{"time":614242.8300000189,"duration":234.26500000001397,"noteNumber":71,"velocity":36,"programNumber":40},{"time":614477.095000019,"duration":234.26500000001397,"noteNumber":69,"velocity":36,"programNumber":40},{"time":614711.360000019,"duration":468.5299999999115,"noteNumber":69,"velocity":36,"programNumber":40},{"time":615179.8900000189,"duration":468.53000000002794,"noteNumber":69,"velocity":36,"programNumber":40},{"time":615648.4200000189,"duration":234.26500000001397,"noteNumber":71,"velocity":36,"programNumber":40},{"time":615882.6850000189,"duration":234.26500000001397,"noteNumber":69,"velocity":36,"programNumber":40},{"time":616116.9500000189,"duration":234.26500000001397,"noteNumber":67,"velocity":36,"programNumber":40},{"time":616351.215000019,"duration":234.26500000001397,"noteNumber":66,"velocity":36,"programNumber":40},{"time":616585.480000019,"duration":468.5299999999115,"noteNumber":74,"velocity":79,"programNumber":40},{"time":617054.0100000189,"duration":468.53000000002794,"noteNumber":74,"velocity":79,"programNumber":40},{"time":617522.5400000189,"duration":234.26500000001397,"noteNumber":76,"velocity":79,"programNumber":40},{"time":617756.8050000189,"duration":234.26500000001397,"noteNumber":74,"velocity":79,"programNumber":40},{"time":617991.0700000189,"duration":234.26500000001397,"noteNumber":72,"velocity":79,"programNumber":40},{"time":618225.3350000189,"duration":234.26500000001397,"noteNumber":71,"velocity":79,"programNumber":40},{"time":618459.600000019,"duration":234.26500000001397,"noteNumber":76,"velocity":79,"programNumber":40},{"time":618693.865000019,"duration":234.26500000001397,"noteNumber":74,"velocity":79,"programNumber":40},{"time":618928.130000019,"duration":234.26500000001397,"noteNumber":76,"velocity":79,"programNumber":40},{"time":619162.395000019,"duration":234.26500000001397,"noteNumber":78,"velocity":79,"programNumber":40},{"time":619396.660000019,"duration":234.26500000001397,"noteNumber":79,"velocity":79,"programNumber":40},{"time":619630.925000019,"duration":234.26500000001397,"noteNumber":78,"velocity":79,"programNumber":40},{"time":619865.190000019,"duration":234.26500000001397,"noteNumber":79,"velocity":79,"programNumber":40},{"time":620099.455000019,"duration":234.26500000001397,"noteNumber":81,"velocity":79,"programNumber":40},{"time":620333.7200000191,"duration":234.26500000001397,"noteNumber":83,"velocity":79,"programNumber":40},{"time":620567.9850000191,"duration":234.26500000001397,"noteNumber":81,"velocity":79,"programNumber":40},{"time":620802.2500000191,"duration":234.26500000001397,"noteNumber":83,"velocity":79,"programNumber":40},{"time":621036.5150000191,"duration":234.26500000001397,"noteNumber":84,"velocity":79,"programNumber":40},{"time":621270.7800000191,"duration":468.53000000002794,"noteNumber":86,"velocity":79,"programNumber":40},{"time":622207.8400000192,"duration":58.566250000032596,"noteNumber":71,"velocity":79,"programNumber":40},{"time":622266.4062500192,"duration":58.566250000032596,"noteNumber":69,"velocity":79,"programNumber":40},{"time":622324.9725000192,"duration":58.566250000032596,"noteNumber":71,"velocity":79,"programNumber":40},{"time":622383.5387500193,"duration":58.566250000032596,"noteNumber":69,"velocity":79,"programNumber":40},{"time":622442.1050000193,"duration":58.566250000032596,"noteNumber":71,"velocity":79,"programNumber":40},{"time":622500.6712500193,"duration":58.566250000032596,"noteNumber":69,"velocity":79,"programNumber":40},{"time":622559.2375000194,"duration":58.566250000032596,"noteNumber":71,"velocity":79,"programNumber":40},{"time":622617.8037500194,"duration":58.566250000032596,"noteNumber":69,"velocity":79,"programNumber":40},{"time":622676.3700000194,"duration":58.566250000032596,"noteNumber":71,"velocity":79,"programNumber":40},{"time":622734.9362500195,"duration":58.566250000032596,"noteNumber":69,"velocity":79,"programNumber":40},{"time":622793.5025000195,"duration":58.566250000032596,"noteNumber":71,"velocity":79,"programNumber":40},{"time":622852.0687500195,"duration":58.566250000032596,"noteNumber":69,"velocity":79,"programNumber":40},{"time":622910.6350000196,"duration":58.566250000032596,"noteNumber":71,"velocity":79,"programNumber":40},{"time":622969.2012500196,"duration":58.566250000032596,"noteNumber":69,"velocity":79,"programNumber":40},{"time":623027.7675000196,"duration":58.566250000032596,"noteNumber":71,"velocity":79,"programNumber":40},{"time":623086.3337500197,"duration":58.566250000032596,"noteNumber":69,"velocity":79,"programNumber":40},{"time":623144.9000000197,"duration":468.53000000002794,"noteNumber":67,"velocity":79,"programNumber":40},{"time":624081.9600000198,"duration":468.53000000002794,"noteNumber":67,"velocity":36,"programNumber":40},{"time":624550.4900000198,"duration":234.26500000001397,"noteNumber":67,"velocity":36,"programNumber":40},{"time":624784.7550000198,"duration":234.26500000001397,"noteNumber":67,"velocity":36,"programNumber":40},{"time":625019.0200000198,"duration":468.53000000002794,"noteNumber":70,"velocity":36,"programNumber":40},{"time":625487.5500000198,"duration":468.53000000002794,"noteNumber":69,"velocity":36,"programNumber":40},{"time":625956.0800000199,"duration":468.53000000002794,"noteNumber":69,"velocity":36,"programNumber":40},{"time":626424.6100000199,"duration":234.26500000001397,"noteNumber":69,"velocity":36,"programNumber":40},{"time":626658.8750000199,"duration":234.26500000001397,"noteNumber":69,"velocity":36,"programNumber":40},{"time":626893.1400000199,"duration":468.53000000002794,"noteNumber":72,"velocity":36,"programNumber":40},{"time":627361.67000002,"duration":468.53000000002794,"noteNumber":70,"velocity":36,"programNumber":40},{"time":627830.20000002,"duration":468.53000000002794,"noteNumber":70,"velocity":36,"programNumber":40},{"time":628298.73000002,"duration":234.26500000001397,"noteNumber":70,"velocity":36,"programNumber":40},{"time":628532.99500002,"duration":234.26500000001397,"noteNumber":70,"velocity":36,"programNumber":40},{"time":628767.26000002,"duration":468.53000000002794,"noteNumber":74,"velocity":36,"programNumber":40},{"time":629235.7900000201,"duration":468.53000000002794,"noteNumber":72,"velocity":36,"programNumber":40},{"time":629704.3200000201,"duration":468.53000000002794,"noteNumber":72,"velocity":36,"programNumber":40},{"time":630172.8500000201,"duration":234.26500000001397,"noteNumber":72,"velocity":36,"programNumber":40},{"time":630407.1150000201,"duration":234.26500000001397,"noteNumber":72,"velocity":36,"programNumber":40},{"time":630641.3800000201,"duration":468.53000000002794,"noteNumber":75,"velocity":36,"programNumber":40},{"time":631109.9100000202,"duration":468.53000000002794,"noteNumber":74,"velocity":36,"programNumber":40},{"time":631578.4400000202,"duration":468.53000000002794,"noteNumber":74,"velocity":36,"programNumber":40},{"time":632046.9700000202,"duration":234.26500000001397,"noteNumber":74,"velocity":36,"programNumber":40},{"time":632281.2350000202,"duration":234.26500000001397,"noteNumber":74,"velocity":36,"programNumber":40},{"time":632515.5000000203,"duration":468.53000000002794,"noteNumber":77,"velocity":36,"programNumber":40},{"time":632984.0300000203,"duration":468.53000000002794,"noteNumber":76,"velocity":36,"programNumber":40},{"time":633452.5600000203,"duration":468.53000000002794,"noteNumber":76,"velocity":36,"programNumber":40},{"time":633921.0900000203,"duration":234.26500000001397,"noteNumber":76,"velocity":36,"programNumber":40},{"time":634155.3550000204,"duration":234.26500000001397,"noteNumber":76,"velocity":36,"programNumber":40},{"time":634389.6200000204,"duration":468.53000000002794,"noteNumber":79,"velocity":36,"programNumber":40},{"time":634858.1500000204,"duration":468.53000000002794,"noteNumber":77,"velocity":36,"programNumber":40},{"time":639074.9200000204,"duration":468.53000000002794,"noteNumber":67,"velocity":36,"programNumber":40},{"time":639543.4500000204,"duration":234.26500000001397,"noteNumber":67,"velocity":36,"programNumber":40},{"time":639777.7150000205,"duration":234.26500000001397,"noteNumber":67,"velocity":36,"programNumber":40},{"time":640011.9800000205,"duration":468.53000000002794,"noteNumber":70,"velocity":36,"programNumber":40},{"time":640480.5100000205,"duration":468.53000000002794,"noteNumber":69,"velocity":36,"programNumber":40},{"time":640949.0400000205,"duration":468.53000000002794,"noteNumber":69,"velocity":36,"programNumber":40},{"time":641417.5700000206,"duration":234.26500000001397,"noteNumber":69,"velocity":36,"programNumber":40},{"time":641651.8350000206,"duration":234.26500000001397,"noteNumber":69,"velocity":36,"programNumber":40},{"time":641886.1000000206,"duration":468.53000000002794,"noteNumber":72,"velocity":36,"programNumber":40},{"time":642354.6300000206,"duration":468.53000000002794,"noteNumber":70,"velocity":36,"programNumber":40},{"time":642823.1600000206,"duration":468.53000000002794,"noteNumber":70,"velocity":36,"programNumber":40},{"time":643291.6900000207,"duration":234.26500000001397,"noteNumber":70,"velocity":36,"programNumber":40},{"time":643525.9550000207,"duration":234.26500000001397,"noteNumber":70,"velocity":36,"programNumber":40},{"time":643760.2200000207,"duration":468.53000000002794,"noteNumber":74,"velocity":36,"programNumber":40},{"time":644228.7500000207,"duration":468.53000000002794,"noteNumber":72,"velocity":36,"programNumber":40},{"time":644697.2800000207,"duration":468.53000000002794,"noteNumber":72,"velocity":36,"programNumber":40},{"time":645165.8100000208,"duration":234.26500000001397,"noteNumber":72,"velocity":36,"programNumber":40},{"time":645400.0750000208,"duration":234.26500000001397,"noteNumber":72,"velocity":36,"programNumber":40},{"time":645634.3400000208,"duration":468.53000000002794,"noteNumber":75,"velocity":36,"programNumber":40},{"time":646102.8700000208,"duration":468.53000000002794,"noteNumber":74,"velocity":36,"programNumber":40},{"time":646571.4000000209,"duration":468.53000000002794,"noteNumber":74,"velocity":36,"programNumber":40},{"time":647039.9300000209,"duration":234.26500000001397,"noteNumber":74,"velocity":36,"programNumber":40},{"time":647274.1950000209,"duration":234.26500000001397,"noteNumber":74,"velocity":36,"programNumber":40},{"time":647508.4600000209,"duration":468.53000000002794,"noteNumber":77,"velocity":36,"programNumber":40},{"time":647976.990000021,"duration":468.53000000002794,"noteNumber":76,"velocity":36,"programNumber":40},{"time":648445.520000021,"duration":468.53000000002794,"noteNumber":76,"velocity":36,"programNumber":40},{"time":648914.050000021,"duration":234.26500000001397,"noteNumber":76,"velocity":36,"programNumber":40},{"time":649148.315000021,"duration":234.26500000001397,"noteNumber":76,"velocity":36,"programNumber":40},{"time":649382.580000021,"duration":468.53000000002794,"noteNumber":79,"velocity":36,"programNumber":40},{"time":649851.110000021,"duration":468.53000000002794,"noteNumber":77,"velocity":36,"programNumber":40},{"time":654067.8800000212,"duration":468.53000000002794,"noteNumber":74,"velocity":79,"programNumber":40},{"time":654536.4100000212,"duration":234.26500000001397,"noteNumber":74,"velocity":79,"programNumber":40},{"time":654770.6750000212,"duration":234.26500000001397,"noteNumber":74,"velocity":79,"programNumber":40},{"time":655004.9400000212,"duration":468.53000000002794,"noteNumber":77,"velocity":79,"programNumber":40},{"time":655473.4700000213,"duration":468.53000000002794,"noteNumber":71,"velocity":79,"programNumber":40},{"time":655942.0000000213,"duration":468.53000000002794,"noteNumber":71,"velocity":79,"programNumber":40},{"time":656410.5300000213,"duration":234.26500000001397,"noteNumber":71,"velocity":79,"programNumber":40},{"time":656644.7950000213,"duration":234.26500000001397,"noteNumber":71,"velocity":79,"programNumber":40},{"time":656879.0600000214,"duration":468.53000000002794,"noteNumber":74,"velocity":79,"programNumber":40},{"time":657347.5900000214,"duration":468.53000000002794,"noteNumber":72,"velocity":79,"programNumber":40},{"time":657816.1200000214,"duration":468.53000000002794,"noteNumber":72,"velocity":79,"programNumber":40},{"time":658284.6500000214,"duration":234.26500000001397,"noteNumber":72,"velocity":79,"programNumber":40},{"time":658518.9150000215,"duration":234.26500000001397,"noteNumber":72,"velocity":79,"programNumber":40},{"time":658753.1800000215,"duration":468.53000000002794,"noteNumber":75,"velocity":79,"programNumber":40},{"time":659221.7100000215,"duration":468.5299999999115,"noteNumber":69,"velocity":79,"programNumber":40},{"time":659690.2400000214,"duration":468.53000000002794,"noteNumber":69,"velocity":79,"programNumber":40},{"time":660158.7700000214,"duration":234.26500000001397,"noteNumber":69,"velocity":79,"programNumber":40},{"time":660393.0350000215,"duration":234.26500000001397,"noteNumber":69,"velocity":79,"programNumber":40},{"time":660627.3000000215,"duration":468.53000000002794,"noteNumber":72,"velocity":79,"programNumber":40},{"time":661095.8300000215,"duration":468.53000000002794,"noteNumber":70,"velocity":79,"programNumber":40},{"time":661564.3600000215,"duration":937.0600000000559,"noteNumber":67,"velocity":36,"programNumber":40},{"time":662501.4200000216,"duration":937.0600000000559,"noteNumber":67,"velocity":36,"programNumber":40},{"time":663438.4800000216,"duration":937.0600000000559,"noteNumber":66,"velocity":36,"programNumber":40},{"time":665312.6000000217,"duration":937.0600000000559,"noteNumber":70,"velocity":36,"programNumber":40},{"time":666249.6600000218,"duration":937.0600000000559,"noteNumber":71,"velocity":36,"programNumber":40},{"time":667186.7200000219,"duration":937.0600000000559,"noteNumber":69,"velocity":36,"programNumber":40},{"time":669060.840000022,"duration":468.53000000002794,"noteNumber":79,"velocity":36,"programNumber":40},{"time":669529.370000022,"duration":234.26500000001397,"noteNumber":79,"velocity":36,"programNumber":40},{"time":669763.635000022,"duration":234.26500000001397,"noteNumber":79,"velocity":36,"programNumber":40},{"time":669997.900000022,"duration":468.53000000002794,"noteNumber":79,"velocity":36,"programNumber":40},{"time":670466.430000022,"duration":468.53000000002794,"noteNumber":78,"velocity":36,"programNumber":40},{"time":670934.9600000221,"duration":468.53000000002794,"noteNumber":75,"velocity":36,"programNumber":40},{"time":671403.4900000221,"duration":234.26500000001397,"noteNumber":75,"velocity":36,"programNumber":40},{"time":671637.7550000221,"duration":234.26500000001397,"noteNumber":75,"velocity":36,"programNumber":40},{"time":671872.0200000221,"duration":468.53000000002794,"noteNumber":75,"velocity":36,"programNumber":40},{"time":672340.5500000222,"duration":468.53000000002794,"noteNumber":74,"velocity":36,"programNumber":40},{"time":672809.0800000222,"duration":468.53000000002794,"noteNumber":72,"velocity":79,"programNumber":40},{"time":673277.6100000222,"duration":234.26500000001397,"noteNumber":72,"velocity":79,"programNumber":40},{"time":673511.8750000222,"duration":234.26500000001397,"noteNumber":72,"velocity":79,"programNumber":40},{"time":673746.1400000222,"duration":234.26500000001397,"noteNumber":72,"velocity":79,"programNumber":40},{"time":673980.4050000223,"duration":234.26500000001397,"noteNumber":70,"velocity":79,"programNumber":40},{"time":674214.6700000223,"duration":234.26500000001397,"noteNumber":69,"velocity":79,"programNumber":40},{"time":674448.9350000223,"duration":234.26500000001397,"noteNumber":67,"velocity":79,"programNumber":40},{"time":674683.2000000223,"duration":234.26500000001397,"noteNumber":72,"velocity":79,"programNumber":40},{"time":674917.4650000223,"duration":234.26500000001397,"noteNumber":70,"velocity":79,"programNumber":40},{"time":675151.7300000223,"duration":234.26500000001397,"noteNumber":69,"velocity":79,"programNumber":40},{"time":675385.9950000223,"duration":234.26500000001397,"noteNumber":67,"velocity":79,"programNumber":40},{"time":675620.2600000224,"duration":468.53000000002794,"noteNumber":66,"velocity":79,"programNumber":40},{"time":676088.7900000224,"duration":937.0600000000559,"noteNumber":69,"velocity":79,"programNumber":40},{"time":677025.8500000224,"duration":468.53000000002794,"noteNumber":74,"velocity":79,"programNumber":40},{"time":677494.3800000225,"duration":58.566250000032596,"noteNumber":72,"velocity":79,"programNumber":40},{"time":677552.9462500225,"duration":58.566250000032596,"noteNumber":70,"velocity":79,"programNumber":40},{"time":677611.5125000225,"duration":58.566250000032596,"noteNumber":72,"velocity":79,"programNumber":40},{"time":677670.0787500226,"duration":58.566250000032596,"noteNumber":70,"velocity":79,"programNumber":40},{"time":677728.6450000226,"duration":58.566250000032596,"noteNumber":72,"velocity":79,"programNumber":40},{"time":677787.2112500226,"duration":58.566250000032596,"noteNumber":70,"velocity":79,"programNumber":40},{"time":677845.7775000227,"duration":58.566250000032596,"noteNumber":72,"velocity":79,"programNumber":40},{"time":677904.3437500227,"duration":58.566250000032596,"noteNumber":70,"velocity":79,"programNumber":40},{"time":677962.9100000227,"duration":58.566250000032596,"noteNumber":72,"velocity":79,"programNumber":40},{"time":678021.4762500228,"duration":58.566250000032596,"noteNumber":70,"velocity":79,"programNumber":40},{"time":678080.0425000228,"duration":58.566250000032596,"noteNumber":72,"velocity":79,"programNumber":40},{"time":678138.6087500228,"duration":58.566250000032596,"noteNumber":70,"velocity":79,"programNumber":40},{"time":678197.1750000229,"duration":58.566250000032596,"noteNumber":72,"velocity":79,"programNumber":40},{"time":678255.7412500229,"duration":58.566250000032596,"noteNumber":70,"velocity":79,"programNumber":40},{"time":678314.3075000229,"duration":58.566250000032596,"noteNumber":72,"velocity":79,"programNumber":40},{"time":678372.873750023,"duration":58.566250000032596,"noteNumber":72,"velocity":79,"programNumber":40},{"time":678431.440000023,"duration":58.566250000032596,"noteNumber":70,"velocity":79,"programNumber":40},{"time":678490.006250023,"duration":58.566250000032596,"noteNumber":72,"velocity":79,"programNumber":40},{"time":678548.5725000231,"duration":58.566250000032596,"noteNumber":70,"velocity":79,"programNumber":40},{"time":678607.1387500231,"duration":58.566250000032596,"noteNumber":72,"velocity":79,"programNumber":40},{"time":678665.7050000231,"duration":58.566250000032596,"noteNumber":70,"velocity":79,"programNumber":40},{"time":678724.2712500232,"duration":58.566250000032596,"noteNumber":72,"velocity":79,"programNumber":40},{"time":678782.8375000232,"duration":58.566250000032596,"noteNumber":70,"velocity":79,"programNumber":40},{"time":678841.4037500232,"duration":58.566250000032596,"noteNumber":72,"velocity":79,"programNumber":40},{"time":678899.9700000233,"duration":58.566250000032596,"noteNumber":70,"velocity":79,"programNumber":40},{"time":678958.5362500233,"duration":58.566250000032596,"noteNumber":72,"velocity":79,"programNumber":40},{"time":679017.1025000233,"duration":58.566250000032596,"noteNumber":70,"velocity":79,"programNumber":40},{"time":679075.6687500234,"duration":58.566250000032596,"noteNumber":72,"velocity":79,"programNumber":40},{"time":679134.2350000234,"duration":58.566250000032596,"noteNumber":70,"velocity":79,"programNumber":40},{"time":679192.8012500234,"duration":58.566250000032596,"noteNumber":72,"velocity":79,"programNumber":40},{"time":679251.3675000235,"duration":58.566250000032596,"noteNumber":70,"velocity":79,"programNumber":40},{"time":679309.9337500235,"duration":58.566250000032596,"noteNumber":72,"velocity":79,"programNumber":40},{"time":679368.5000000235,"duration":937.0600000000559,"noteNumber":69,"velocity":79,"programNumber":40},{"time":680305.5600000236,"duration":468.53000000002794,"noteNumber":74,"velocity":79,"programNumber":40},{"time":680774.0900000236,"duration":468.53000000002794,"noteNumber":74,"velocity":79,"programNumber":40},{"time":681242.6200000236,"duration":234.26500000001397,"noteNumber":76,"velocity":36,"programNumber":40},{"time":681476.8850000236,"duration":234.26500000001397,"noteNumber":74,"velocity":36,"programNumber":40},{"time":681711.1500000237,"duration":234.26500000001397,"noteNumber":72,"velocity":36,"programNumber":40},{"time":681945.4150000237,"duration":234.26500000001397,"noteNumber":71,"velocity":36,"programNumber":40},{"time":682179.6800000237,"duration":468.53000000002794,"noteNumber":76,"velocity":36,"programNumber":40},{"time":682648.2100000237,"duration":468.53000000002794,"noteNumber":76,"velocity":36,"programNumber":40},{"time":683116.7400000237,"duration":937.0600000000559,"noteNumber":76,"velocity":36,"programNumber":40},{"time":684053.8000000238,"duration":468.5299999999115,"noteNumber":72,"velocity":36,"programNumber":40},{"time":684522.3300000237,"duration":468.53000000002794,"noteNumber":72,"velocity":36,"programNumber":40},{"time":684990.8600000237,"duration":234.26500000001397,"noteNumber":74,"velocity":36,"programNumber":40},{"time":685225.1250000237,"duration":234.26500000001397,"noteNumber":72,"velocity":36,"programNumber":40},{"time":685459.3900000238,"duration":234.26500000001397,"noteNumber":71,"velocity":36,"programNumber":40},{"time":685693.6550000238,"duration":234.26500000001397,"noteNumber":69,"velocity":36,"programNumber":40},{"time":685927.9200000238,"duration":468.53000000002794,"noteNumber":69,"velocity":36,"programNumber":40},{"time":686396.4500000238,"duration":468.53000000002794,"noteNumber":69,"velocity":36,"programNumber":40},{"time":686864.9800000238,"duration":234.26500000001397,"noteNumber":71,"velocity":36,"programNumber":40},{"time":687099.2450000239,"duration":234.26500000001397,"noteNumber":69,"velocity":36,"programNumber":40},{"time":687333.5100000239,"duration":234.26500000001397,"noteNumber":67,"velocity":36,"programNumber":40},{"time":687567.7750000239,"duration":234.26500000001397,"noteNumber":66,"velocity":36,"programNumber":40},{"time":687802.0400000239,"duration":468.53000000002794,"noteNumber":74,"velocity":79,"programNumber":40},{"time":688270.5700000239,"duration":468.53000000002794,"noteNumber":74,"velocity":79,"programNumber":40},{"time":688739.100000024,"duration":234.26500000001397,"noteNumber":76,"velocity":79,"programNumber":40},{"time":688973.365000024,"duration":234.26500000001397,"noteNumber":74,"velocity":79,"programNumber":40},{"time":689207.630000024,"duration":234.26500000001397,"noteNumber":72,"velocity":79,"programNumber":40},{"time":689441.895000024,"duration":234.26500000001397,"noteNumber":71,"velocity":79,"programNumber":40},{"time":689676.160000024,"duration":234.26500000001397,"noteNumber":76,"velocity":79,"programNumber":40},{"time":689910.425000024,"duration":234.26500000001397,"noteNumber":74,"velocity":79,"programNumber":40},{"time":690144.690000024,"duration":234.26500000001397,"noteNumber":76,"velocity":79,"programNumber":40},{"time":690378.955000024,"duration":234.26500000001397,"noteNumber":78,"velocity":79,"programNumber":40},{"time":690613.2200000241,"duration":234.26500000001397,"noteNumber":79,"velocity":79,"programNumber":40},{"time":690847.4850000241,"duration":234.26500000001397,"noteNumber":78,"velocity":79,"programNumber":40},{"time":691081.7500000241,"duration":234.26500000001397,"noteNumber":79,"velocity":79,"programNumber":40},{"time":691316.0150000241,"duration":234.26500000001397,"noteNumber":81,"velocity":79,"programNumber":40},{"time":691550.2800000241,"duration":234.26500000001397,"noteNumber":83,"velocity":79,"programNumber":40},{"time":691784.5450000241,"duration":234.26500000001397,"noteNumber":81,"velocity":79,"programNumber":40},{"time":692018.8100000242,"duration":234.26500000001397,"noteNumber":83,"velocity":79,"programNumber":40},{"time":692253.0750000242,"duration":234.26500000001397,"noteNumber":84,"velocity":79,"programNumber":40},{"time":692487.3400000242,"duration":468.53000000002794,"noteNumber":86,"velocity":79,"programNumber":40},{"time":693424.4000000242,"duration":58.566250000032596,"noteNumber":71,"velocity":79,"programNumber":40},{"time":693482.9662500243,"duration":58.566250000032596,"noteNumber":69,"velocity":79,"programNumber":40},{"time":693541.5325000243,"duration":58.566250000032596,"noteNumber":71,"velocity":79,"programNumber":40},{"time":693600.0987500243,"duration":58.566250000032596,"noteNumber":69,"velocity":79,"programNumber":40},{"time":693658.6650000244,"duration":58.566250000032596,"noteNumber":71,"velocity":79,"programNumber":40},{"time":693717.2312500244,"duration":58.566250000032596,"noteNumber":69,"velocity":79,"programNumber":40},{"time":693775.7975000244,"duration":58.566250000032596,"noteNumber":71,"velocity":79,"programNumber":40},{"time":693834.3637500245,"duration":58.566250000032596,"noteNumber":69,"velocity":79,"programNumber":40},{"time":693892.9300000245,"duration":58.566250000032596,"noteNumber":71,"velocity":79,"programNumber":40},{"time":693951.4962500245,"duration":58.566250000032596,"noteNumber":69,"velocity":79,"programNumber":40},{"time":694010.0625000246,"duration":58.566250000032596,"noteNumber":71,"velocity":79,"programNumber":40},{"time":694068.6287500246,"duration":58.566250000032596,"noteNumber":69,"velocity":79,"programNumber":40},{"time":694127.1950000246,"duration":58.566250000032596,"noteNumber":71,"velocity":79,"programNumber":40},{"time":694185.7612500247,"duration":58.566250000032596,"noteNumber":69,"velocity":79,"programNumber":40},{"time":694244.3275000247,"duration":58.566250000032596,"noteNumber":71,"velocity":79,"programNumber":40},{"time":694302.8937500247,"duration":58.566250000032596,"noteNumber":69,"velocity":79,"programNumber":40},{"time":694361.4600000248,"duration":468.53000000002794,"noteNumber":67,"velocity":79,"programNumber":40},{"time":695298.5200000248,"duration":468.53000000002794,"noteNumber":79,"velocity":79,"programNumber":40},{"time":695767.0500000248,"duration":234.26500000001397,"noteNumber":81,"velocity":79,"programNumber":40},{"time":696001.3150000249,"duration":234.26500000001397,"noteNumber":83,"velocity":79,"programNumber":40},{"time":696235.5800000249,"duration":234.26500000001397,"noteNumber":83,"velocity":79,"programNumber":40},{"time":696469.8450000249,"duration":234.26500000001397,"noteNumber":81,"velocity":79,"programNumber":40},{"time":696704.1100000249,"duration":234.26500000001397,"noteNumber":79,"velocity":79,"programNumber":40},{"time":696938.3750000249,"duration":234.26500000001397,"noteNumber":78,"velocity":79,"programNumber":40},{"time":697172.6400000249,"duration":234.26500000001397,"noteNumber":78,"velocity":79,"programNumber":40},{"time":697406.9050000249,"duration":234.26500000001397,"noteNumber":76,"velocity":79,"programNumber":40},{"time":697641.170000025,"duration":234.26500000001397,"noteNumber":74,"velocity":79,"programNumber":40},{"time":697875.435000025,"duration":234.26500000001397,"noteNumber":73,"velocity":79,"programNumber":40},{"time":698109.700000025,"duration":234.26500000001397,"noteNumber":76,"velocity":79,"programNumber":40},{"time":698343.965000025,"duration":234.26500000001397,"noteNumber":74,"velocity":79,"programNumber":40},{"time":698578.230000025,"duration":234.26500000001397,"noteNumber":78,"velocity":79,"programNumber":40},{"time":698812.495000025,"duration":234.26500000001397,"noteNumber":76,"velocity":79,"programNumber":40},{"time":699046.760000025,"duration":234.26500000001397,"noteNumber":79,"velocity":79,"programNumber":40},{"time":699281.025000025,"duration":234.26500000001397,"noteNumber":78,"velocity":79,"programNumber":40},{"time":699515.2900000251,"duration":234.26500000001397,"noteNumber":81,"velocity":79,"programNumber":40},{"time":699749.5550000251,"duration":234.26500000001397,"noteNumber":79,"velocity":79,"programNumber":40},{"time":699983.8200000251,"duration":234.26500000001397,"noteNumber":83,"velocity":79,"programNumber":40},{"time":700218.0850000251,"duration":234.26500000001397,"noteNumber":81,"velocity":79,"programNumber":40},{"time":700452.3500000251,"duration":234.26500000001397,"noteNumber":79,"velocity":79,"programNumber":40},{"time":700686.6150000251,"duration":234.26500000001397,"noteNumber":78,"velocity":79,"programNumber":40},{"time":700920.8800000252,"duration":234.26500000001397,"noteNumber":78,"velocity":79,"programNumber":40},{"time":701155.1450000252,"duration":234.26500000001397,"noteNumber":76,"velocity":79,"programNumber":40},{"time":701389.4100000252,"duration":234.26500000001397,"noteNumber":79,"velocity":79,"programNumber":40},{"time":701623.6750000252,"duration":234.26500000001397,"noteNumber":83,"velocity":79,"programNumber":40},{"time":701857.9400000252,"duration":468.53000000002794,"noteNumber":74,"velocity":79,"programNumber":40},{"time":702326.4700000252,"duration":468.53000000002794,"noteNumber":73,"velocity":79,"programNumber":40},{"time":702795.0000000253,"duration":468.53000000002794,"noteNumber":79,"velocity":79,"programNumber":40},{"time":703263.5300000253,"duration":234.26500000001397,"noteNumber":81,"velocity":79,"programNumber":40},{"time":703497.7950000253,"duration":234.26500000001397,"noteNumber":83,"velocity":79,"programNumber":40},{"time":703732.0600000253,"duration":234.26500000001397,"noteNumber":83,"velocity":79,"programNumber":40},{"time":703966.3250000253,"duration":234.26500000001397,"noteNumber":81,"velocity":79,"programNumber":40},{"time":704200.5900000253,"duration":234.26500000001397,"noteNumber":79,"velocity":79,"programNumber":40},{"time":704434.8550000254,"duration":234.26500000001397,"noteNumber":78,"velocity":79,"programNumber":40},{"time":704669.1200000254,"duration":58.566250000032596,"noteNumber":78,"velocity":79,"programNumber":40},{"time":704727.6862500254,"duration":58.566250000032596,"noteNumber":76,"velocity":79,"programNumber":40},{"time":704786.2525000254,"duration":351.39749999996275,"noteNumber":76,"velocity":79,"programNumber":40},{"time":705137.6500000254,"duration":234.26500000001397,"noteNumber":74,"velocity":79,"programNumber":40},{"time":705371.9150000254,"duration":234.26500000001397,"noteNumber":73,"velocity":79,"programNumber":40},{"time":705606.1800000254,"duration":234.26500000001397,"noteNumber":76,"velocity":79,"programNumber":40},{"time":705840.4450000254,"duration":234.26500000001397,"noteNumber":74,"velocity":79,"programNumber":40},{"time":706074.7100000255,"duration":234.26500000001397,"noteNumber":78,"velocity":79,"programNumber":40},{"time":706308.9750000255,"duration":234.26500000001397,"noteNumber":76,"velocity":79,"programNumber":40},{"time":706543.2400000255,"duration":234.26500000001397,"noteNumber":79,"velocity":79,"programNumber":40},{"time":706777.5050000255,"duration":234.26500000001397,"noteNumber":78,"velocity":79,"programNumber":40},{"time":707011.7700000255,"duration":234.26500000001397,"noteNumber":81,"velocity":79,"programNumber":40},{"time":707246.0350000255,"duration":234.26500000001397,"noteNumber":79,"velocity":79,"programNumber":40},{"time":707480.3000000255,"duration":234.26500000001397,"noteNumber":83,"velocity":79,"programNumber":40},{"time":707714.5650000256,"duration":234.26500000001397,"noteNumber":81,"velocity":79,"programNumber":40},{"time":707948.8300000256,"duration":234.26500000001397,"noteNumber":79,"velocity":79,"programNumber":40},{"time":708183.0950000256,"duration":234.26500000001397,"noteNumber":78,"velocity":79,"programNumber":40},{"time":708417.3600000256,"duration":234.26500000001397,"noteNumber":78,"velocity":79,"programNumber":40},{"time":708651.6250000256,"duration":234.26500000001397,"noteNumber":76,"velocity":79,"programNumber":40},{"time":708885.8900000256,"duration":234.26500000001397,"noteNumber":74,"velocity":79,"programNumber":40},{"time":709120.1550000256,"duration":234.26500000001397,"noteNumber":73,"velocity":79,"programNumber":40},{"time":709354.4200000257,"duration":937.0600000000559,"noteNumber":74,"velocity":79,"programNumber":40},{"time":710291.4800000257,"duration":468.53000000002794,"noteNumber":62,"velocity":36,"programNumber":40},{"time":710760.0100000257,"duration":234.26500000001397,"noteNumber":62,"velocity":36,"programNumber":40},{"time":710994.2750000258,"duration":234.26500000001397,"noteNumber":62,"velocity":36,"programNumber":40},{"time":711228.5400000258,"duration":468.53000000002794,"noteNumber":65,"velocity":36,"programNumber":40},{"time":711697.0700000258,"duration":468.53000000002794,"noteNumber":64,"velocity":36,"programNumber":40},{"time":712165.6000000258,"duration":468.53000000002794,"noteNumber":64,"velocity":36,"programNumber":40},{"time":712634.1300000258,"duration":234.26500000001397,"noteNumber":64,"velocity":36,"programNumber":40},{"time":712868.3950000259,"duration":234.26500000001397,"noteNumber":64,"velocity":36,"programNumber":40},{"time":713102.6600000259,"duration":468.53000000002794,"noteNumber":64,"velocity":36,"programNumber":40},{"time":713571.1900000259,"duration":468.53000000002794,"noteNumber":57,"velocity":36,"programNumber":40},{"time":714039.7200000259,"duration":468.5299999999115,"noteNumber":60,"velocity":36,"programNumber":40},{"time":714508.2500000258,"duration":234.26500000001397,"noteNumber":60,"velocity":36,"programNumber":40},{"time":714742.5150000259,"duration":234.26500000001397,"noteNumber":60,"velocity":36,"programNumber":40},{"time":714976.7800000259,"duration":468.53000000002794,"noteNumber":63,"velocity":36,"programNumber":40},{"time":715445.3100000259,"duration":468.53000000002794,"noteNumber":62,"velocity":36,"programNumber":40},{"time":715913.8400000259,"duration":468.53000000002794,"noteNumber":62,"velocity":36,"programNumber":40},{"time":716382.370000026,"duration":234.26500000001397,"noteNumber":62,"velocity":36,"programNumber":40},{"time":716616.635000026,"duration":234.26500000001397,"noteNumber":62,"velocity":36,"programNumber":40},{"time":716850.900000026,"duration":468.53000000002794,"noteNumber":62,"velocity":36,"programNumber":40},{"time":717319.430000026,"duration":468.53000000002794,"noteNumber":55,"velocity":36,"programNumber":40},{"time":717787.960000026,"duration":234.26500000001397,"noteNumber":83,"velocity":79,"programNumber":40},{"time":718022.225000026,"duration":234.26500000001397,"noteNumber":81,"velocity":79,"programNumber":40},{"time":718256.4900000261,"duration":234.26500000001397,"noteNumber":79,"velocity":79,"programNumber":40},{"time":718490.7550000261,"duration":234.26500000001397,"noteNumber":78,"velocity":79,"programNumber":40},{"time":718725.0200000261,"duration":234.26500000001397,"noteNumber":79,"velocity":79,"programNumber":40},{"time":718959.2850000261,"duration":234.26500000001397,"noteNumber":78,"velocity":79,"programNumber":40},{"time":719193.5500000261,"duration":234.26500000001397,"noteNumber":76,"velocity":79,"programNumber":40},{"time":719427.8150000261,"duration":234.26500000001397,"noteNumber":74,"velocity":79,"programNumber":40},{"time":719662.0800000262,"duration":234.26500000001397,"noteNumber":76,"velocity":79,"programNumber":40},{"time":719896.3450000262,"duration":234.26500000001397,"noteNumber":74,"velocity":79,"programNumber":40},{"time":720130.6100000262,"duration":234.26500000001397,"noteNumber":72,"velocity":79,"programNumber":40},{"time":720364.8750000262,"duration":234.26500000001397,"noteNumber":71,"velocity":79,"programNumber":40},{"time":720599.1400000262,"duration":234.26500000001397,"noteNumber":72,"velocity":79,"programNumber":40},{"time":720833.4050000262,"duration":234.26500000001397,"noteNumber":71,"velocity":79,"programNumber":40},{"time":721067.6700000262,"duration":234.26500000001397,"noteNumber":69,"velocity":79,"programNumber":40},{"time":721301.9350000262,"duration":234.26500000001397,"noteNumber":67,"velocity":79,"programNumber":40},{"time":721536.2000000263,"duration":234.26500000001397,"noteNumber":69,"velocity":79,"programNumber":40},{"time":721770.4650000263,"duration":234.26500000001397,"noteNumber":67,"velocity":79,"programNumber":40},{"time":722004.7300000263,"duration":234.26500000001397,"noteNumber":66,"velocity":79,"programNumber":40},{"time":722238.9950000263,"duration":234.26500000001397,"noteNumber":64,"velocity":79,"programNumber":40},{"time":722473.2600000263,"duration":468.53000000002794,"noteNumber":62,"velocity":79,"programNumber":40},{"time":722941.7900000263,"duration":937.0600000000559,"noteNumber":72,"velocity":79,"programNumber":40},{"time":723878.8500000264,"duration":58.566250000032596,"noteNumber":72,"velocity":79,"programNumber":40},{"time":723937.4162500264,"duration":58.566250000032596,"noteNumber":71,"velocity":79,"programNumber":40},{"time":723995.9825000265,"duration":58.566250000032596,"noteNumber":72,"velocity":79,"programNumber":40},{"time":724054.5487500265,"duration":58.566250000032596,"noteNumber":71,"velocity":79,"programNumber":40},{"time":724113.1150000265,"duration":58.566250000032596,"noteNumber":72,"velocity":79,"programNumber":40},{"time":724171.6812500266,"duration":58.566250000032596,"noteNumber":71,"velocity":79,"programNumber":40},{"time":724230.2475000266,"duration":58.566250000032596,"noteNumber":72,"velocity":79,"programNumber":40},{"time":724288.8137500266,"duration":58.566250000032596,"noteNumber":71,"velocity":79,"programNumber":40},{"time":724347.3800000267,"duration":468.53000000002794,"noteNumber":69,"velocity":79,"programNumber":40},{"time":725284.4400000267,"duration":468.53000000002794,"noteNumber":74,"velocity":36,"programNumber":40},{"time":725752.9700000267,"duration":468.53000000002794,"noteNumber":74,"velocity":36,"programNumber":40},{"time":726221.5000000268,"duration":234.26500000001397,"noteNumber":76,"velocity":36,"programNumber":40},{"time":726455.7650000268,"duration":234.26500000001397,"noteNumber":74,"velocity":36,"programNumber":40},{"time":726690.0300000268,"duration":234.26500000001397,"noteNumber":72,"velocity":36,"programNumber":40},{"time":726924.2950000268,"duration":234.26500000001397,"noteNumber":71,"velocity":36,"programNumber":40},{"time":727158.5600000268,"duration":468.53000000002794,"noteNumber":76,"velocity":36,"programNumber":40},{"time":727627.0900000269,"duration":468.53000000002794,"noteNumber":76,"velocity":36,"programNumber":40},{"time":728095.6200000269,"duration":937.0600000000559,"noteNumber":76,"velocity":36,"programNumber":40},{"time":729032.680000027,"duration":468.53000000002794,"noteNumber":72,"velocity":36,"programNumber":40},{"time":729501.210000027,"duration":468.53000000002794,"noteNumber":72,"velocity":36,"programNumber":40},{"time":729969.740000027,"duration":234.26500000001397,"noteNumber":74,"velocity":36,"programNumber":40},{"time":730204.005000027,"duration":234.26500000001397,"noteNumber":72,"velocity":36,"programNumber":40},{"time":730438.270000027,"duration":234.26500000001397,"noteNumber":71,"velocity":36,"programNumber":40},{"time":730672.535000027,"duration":234.26500000001397,"noteNumber":69,"velocity":36,"programNumber":40},{"time":730906.800000027,"duration":468.53000000002794,"noteNumber":69,"velocity":36,"programNumber":40},{"time":731375.3300000271,"duration":468.53000000002794,"noteNumber":69,"velocity":36,"programNumber":40},{"time":731843.8600000271,"duration":234.26500000001397,"noteNumber":71,"velocity":36,"programNumber":40},{"time":732078.1250000271,"duration":234.26500000001397,"noteNumber":69,"velocity":36,"programNumber":40},{"time":732312.3900000271,"duration":234.26500000001397,"noteNumber":67,"velocity":36,"programNumber":40},{"time":732546.6550000272,"duration":234.26500000001397,"noteNumber":66,"velocity":36,"programNumber":40},{"time":732780.9200000272,"duration":468.53000000002794,"noteNumber":74,"velocity":79,"programNumber":40},{"time":733249.4500000272,"duration":468.53000000002794,"noteNumber":74,"velocity":79,"programNumber":40},{"time":733717.9800000272,"duration":234.26500000001397,"noteNumber":76,"velocity":79,"programNumber":40},{"time":733952.2450000272,"duration":234.26500000001397,"noteNumber":74,"velocity":79,"programNumber":40},{"time":734186.5100000273,"duration":234.26500000001397,"noteNumber":72,"velocity":79,"programNumber":40},{"time":734420.7750000273,"duration":234.26500000001397,"noteNumber":71,"velocity":79,"programNumber":40},{"time":734655.0400000273,"duration":234.26500000001397,"noteNumber":76,"velocity":79,"programNumber":40},{"time":734889.3050000273,"duration":234.26500000001397,"noteNumber":74,"velocity":79,"programNumber":40},{"time":735123.5700000273,"duration":234.26500000001397,"noteNumber":76,"velocity":79,"programNumber":40},{"time":735357.8350000273,"duration":234.26500000001397,"noteNumber":78,"velocity":79,"programNumber":40},{"time":735592.1000000273,"duration":234.26500000001397,"noteNumber":79,"velocity":79,"programNumber":40},{"time":735826.3650000273,"duration":234.26500000001397,"noteNumber":78,"velocity":79,"programNumber":40},{"time":736060.6300000274,"duration":234.26500000001397,"noteNumber":79,"velocity":79,"programNumber":40},{"time":736294.8950000274,"duration":234.26500000001397,"noteNumber":81,"velocity":79,"programNumber":40},{"time":736529.1600000274,"duration":234.26500000001397,"noteNumber":83,"velocity":79,"programNumber":40},{"time":736763.4250000274,"duration":234.26500000001397,"noteNumber":81,"velocity":79,"programNumber":40},{"time":736997.6900000274,"duration":234.26500000001397,"noteNumber":83,"velocity":79,"programNumber":40},{"time":737231.9550000274,"duration":234.26500000001397,"noteNumber":84,"velocity":79,"programNumber":40},{"time":737466.2200000274,"duration":468.5299999999115,"noteNumber":86,"velocity":79,"programNumber":40},{"time":738403.2800000274,"duration":58.566250000032596,"noteNumber":71,"velocity":79,"programNumber":40},{"time":738461.8462500274,"duration":58.566250000032596,"noteNumber":69,"velocity":79,"programNumber":40},{"time":738520.4125000275,"duration":58.566250000032596,"noteNumber":71,"velocity":79,"programNumber":40},{"time":738578.9787500275,"duration":58.566250000032596,"noteNumber":69,"velocity":79,"programNumber":40},{"time":738637.5450000275,"duration":58.566250000032596,"noteNumber":71,"velocity":79,"programNumber":40},{"time":738696.1112500275,"duration":58.566250000032596,"noteNumber":69,"velocity":79,"programNumber":40},{"time":738754.6775000276,"duration":58.566250000032596,"noteNumber":71,"velocity":79,"programNumber":40},{"time":738813.2437500276,"duration":58.566250000032596,"noteNumber":69,"velocity":79,"programNumber":40},{"time":738871.8100000276,"duration":58.566250000032596,"noteNumber":71,"velocity":79,"programNumber":40},{"time":738930.3762500277,"duration":58.566250000032596,"noteNumber":69,"velocity":79,"programNumber":40},{"time":738988.9425000277,"duration":58.566250000032596,"noteNumber":71,"velocity":79,"programNumber":40},{"time":739047.5087500277,"duration":58.566250000032596,"noteNumber":69,"velocity":79,"programNumber":40},{"time":739106.0750000278,"duration":58.566250000032596,"noteNumber":71,"velocity":79,"programNumber":40},{"time":739164.6412500278,"duration":58.566250000032596,"noteNumber":69,"velocity":79,"programNumber":40},{"time":739223.2075000278,"duration":58.566250000032596,"noteNumber":71,"velocity":79,"programNumber":40},{"time":739281.7737500279,"duration":58.566250000032596,"noteNumber":69,"velocity":79,"programNumber":40},{"time":739340.3400000279,"duration":468.53000000002794,"noteNumber":67,"velocity":79,"programNumber":40},{"time":741214.4600000279,"duration":468.53000000002794,"noteNumber":74,"velocity":79,"programNumber":40},{"time":741682.9900000279,"duration":468.53000000002794,"noteNumber":74,"velocity":79,"programNumber":40},{"time":742151.520000028,"duration":234.26500000001397,"noteNumber":76,"velocity":79,"programNumber":40},{"time":742385.785000028,"duration":234.26500000001397,"noteNumber":74,"velocity":79,"programNumber":40},{"time":742620.050000028,"duration":234.26500000001397,"noteNumber":72,"velocity":79,"programNumber":40},{"time":742854.315000028,"duration":234.26500000001397,"noteNumber":71,"velocity":79,"programNumber":40},{"time":743088.580000028,"duration":468.53000000002794,"noteNumber":76,"velocity":79,"programNumber":40},{"time":743557.110000028,"duration":468.53000000002794,"noteNumber":76,"velocity":79,"programNumber":40},{"time":744025.6400000281,"duration":937.0600000000559,"noteNumber":76,"velocity":79,"programNumber":40},{"time":744962.7000000281,"duration":468.53000000002794,"noteNumber":72,"velocity":79,"programNumber":40},{"time":745431.2300000282,"duration":468.53000000002794,"noteNumber":72,"velocity":79,"programNumber":40},{"time":745899.7600000282,"duration":234.26500000001397,"noteNumber":74,"velocity":79,"programNumber":40},{"time":746134.0250000282,"duration":234.26500000001397,"noteNumber":72,"velocity":79,"programNumber":40},{"time":746368.2900000282,"duration":234.26500000001397,"noteNumber":71,"velocity":79,"programNumber":40},{"time":746602.5550000282,"duration":234.26500000001397,"noteNumber":69,"velocity":79,"programNumber":40},{"time":746836.8200000282,"duration":468.53000000002794,"noteNumber":69,"velocity":79,"programNumber":40},{"time":747305.3500000283,"duration":468.53000000002794,"noteNumber":69,"velocity":79,"programNumber":40},{"time":747773.8800000283,"duration":234.26500000001397,"noteNumber":71,"velocity":79,"programNumber":40},{"time":748008.1450000283,"duration":234.26500000001397,"noteNumber":69,"velocity":79,"programNumber":40},{"time":748242.4100000283,"duration":234.26500000001397,"noteNumber":67,"velocity":79,"programNumber":40},{"time":748476.6750000283,"duration":234.26500000001397,"noteNumber":66,"velocity":79,"programNumber":40},{"time":748710.9400000283,"duration":468.53000000002794,"noteNumber":74,"velocity":79,"programNumber":40},{"time":749179.4700000284,"duration":468.53000000002794,"noteNumber":74,"velocity":79,"programNumber":40},{"time":749648.0000000284,"duration":234.26500000001397,"noteNumber":76,"velocity":79,"programNumber":40},{"time":749882.2650000284,"duration":234.26500000001397,"noteNumber":74,"velocity":79,"programNumber":40},{"time":750116.5300000284,"duration":234.26500000001397,"noteNumber":72,"velocity":79,"programNumber":40},{"time":750350.7950000284,"duration":234.26500000001397,"noteNumber":71,"velocity":79,"programNumber":40},{"time":750585.0600000285,"duration":234.26500000001397,"noteNumber":76,"velocity":79,"programNumber":40},{"time":750819.3250000285,"duration":234.26500000001397,"noteNumber":74,"velocity":79,"programNumber":40},{"time":751053.5900000285,"duration":234.26500000001397,"noteNumber":76,"velocity":79,"programNumber":40},{"time":751287.8550000285,"duration":234.26500000001397,"noteNumber":78,"velocity":79,"programNumber":40},{"time":751522.1200000285,"duration":234.26500000001397,"noteNumber":79,"velocity":79,"programNumber":40},{"time":751756.3850000285,"duration":234.26500000001397,"noteNumber":78,"velocity":79,"programNumber":40},{"time":751990.6500000285,"duration":234.26500000001397,"noteNumber":79,"velocity":79,"programNumber":40},{"time":752224.9150000286,"duration":234.26500000001397,"noteNumber":81,"velocity":79,"programNumber":40},{"time":752459.1800000286,"duration":234.26500000001397,"noteNumber":83,"velocity":79,"programNumber":40},{"time":752693.4450000286,"duration":234.26500000001397,"noteNumber":81,"velocity":79,"programNumber":40},{"time":752927.7100000286,"duration":234.26500000001397,"noteNumber":83,"velocity":79,"programNumber":40},{"time":753161.9750000286,"duration":234.26500000001397,"noteNumber":84,"velocity":79,"programNumber":40},{"time":753396.2400000286,"duration":468.53000000002794,"noteNumber":86,"velocity":79,"programNumber":40},{"time":758081.5400000286,"duration":234.26500000001397,"noteNumber":76,"velocity":79,"programNumber":40},{"time":758315.8050000286,"duration":234.26500000001397,"noteNumber":74,"velocity":79,"programNumber":40},{"time":758550.0700000286,"duration":234.26500000001397,"noteNumber":76,"velocity":79,"programNumber":40},{"time":758784.3350000286,"duration":234.26500000001397,"noteNumber":78,"velocity":79,"programNumber":40},{"time":759018.6000000286,"duration":234.26500000001397,"noteNumber":79,"velocity":79,"programNumber":40},{"time":759252.8650000286,"duration":234.26500000001397,"noteNumber":78,"velocity":79,"programNumber":40},{"time":759487.1300000286,"duration":234.26500000001397,"noteNumber":79,"velocity":79,"programNumber":40},{"time":759721.3950000287,"duration":234.26500000001397,"noteNumber":81,"velocity":79,"programNumber":40},{"time":759955.6600000287,"duration":234.26500000001397,"noteNumber":83,"velocity":79,"programNumber":40},{"time":760189.9250000287,"duration":234.26500000001397,"noteNumber":81,"velocity":79,"programNumber":40},{"time":760424.1900000287,"duration":234.26500000001397,"noteNumber":83,"velocity":79,"programNumber":40},{"time":760658.4550000287,"duration":234.26500000001397,"noteNumber":84,"velocity":79,"programNumber":40},{"time":760892.7200000287,"duration":468.53000000002794,"noteNumber":86,"velocity":79,"programNumber":40},{"time":762766.8400000287,"duration":117.13250000006519,"noteNumber":71,"velocity":36,"programNumber":40},{"time":762883.9725000288,"duration":117.13249999994878,"noteNumber":69,"velocity":36,"programNumber":40},{"time":763001.1050000287,"duration":117.13249999994878,"noteNumber":71,"velocity":36,"programNumber":40},{"time":763118.2375000287,"duration":117.13249999994878,"noteNumber":69,"velocity":36,"programNumber":40},{"time":763235.3700000286,"duration":117.13249999994878,"noteNumber":71,"velocity":36,"programNumber":40},{"time":763352.5025000286,"duration":117.13249999994878,"noteNumber":69,"velocity":36,"programNumber":40},{"time":763469.6350000285,"duration":117.13249999994878,"noteNumber":71,"velocity":36,"programNumber":40},{"time":763586.7675000285,"duration":117.13250000006519,"noteNumber":69,"velocity":36,"programNumber":40},{"time":763703.9000000285,"duration":117.13249999994878,"noteNumber":71,"velocity":36,"programNumber":40},{"time":763821.0325000285,"duration":117.13249999994878,"noteNumber":69,"velocity":36,"programNumber":40},{"time":763938.1650000284,"duration":117.13250000006519,"noteNumber":71,"velocity":36,"programNumber":40},{"time":764055.2975000285,"duration":117.13249999994878,"noteNumber":69,"velocity":36,"programNumber":40},{"time":764172.4300000285,"duration":117.13250000006519,"noteNumber":71,"velocity":36,"programNumber":40},{"time":764289.5625000285,"duration":117.13250000006519,"noteNumber":69,"velocity":36,"programNumber":40},{"time":764406.6950000286,"duration":117.13249999994878,"noteNumber":71,"velocity":36,"programNumber":40},{"time":764523.8275000285,"duration":117.13249999994878,"noteNumber":69,"velocity":36,"programNumber":40},{"time":764640.9600000285,"duration":468.53000000002794,"noteNumber":67,"velocity":36,"programNumber":40}],[{"time":2811.1800000000003,"duration":1405.5900000000001,"noteNumber":86,"velocity":36,"programNumber":40},{"time":4216.77,"duration":702.7950000000001,"noteNumber":86,"velocity":36,"programNumber":40},{"time":4919.5650000000005,"duration":117.13249999999971,"noteNumber":74,"velocity":36,"programNumber":40},{"time":5036.6975,"duration":117.13249999999971,"noteNumber":79,"velocity":36,"programNumber":40},{"time":5153.83,"duration":117.13249999999971,"noteNumber":79,"velocity":36,"programNumber":40},{"time":5270.9625,"duration":117.13249999999971,"noteNumber":83,"velocity":36,"programNumber":40},{"time":5388.094999999999,"duration":117.13249999999971,"noteNumber":84,"velocity":36,"programNumber":40},{"time":5505.227499999999,"duration":117.13249999999971,"noteNumber":86,"velocity":36,"programNumber":40},{"time":5622.359999999999,"duration":234.26500000000033,"noteNumber":88,"velocity":36,"programNumber":40},{"time":5856.624999999999,"duration":468.52999999999975,"noteNumber":76,"velocity":36,"programNumber":40},{"time":6325.154999999999,"duration":117.13249999999971,"noteNumber":79,"velocity":36,"programNumber":40},{"time":6442.2874999999985,"duration":117.13249999999971,"noteNumber":78,"velocity":36,"programNumber":40},{"time":6559.419999999998,"duration":117.13249999999971,"noteNumber":81,"velocity":36,"programNumber":40},{"time":6676.552499999998,"duration":117.13249999999971,"noteNumber":79,"velocity":36,"programNumber":40},{"time":6793.684999999998,"duration":117.13249999999971,"noteNumber":78,"velocity":36,"programNumber":40},{"time":6910.817499999997,"duration":117.13249999999971,"noteNumber":76,"velocity":36,"programNumber":40},{"time":7027.949999999997,"duration":117.13249999999971,"noteNumber":74,"velocity":36,"programNumber":40},{"time":7145.082499999997,"duration":117.13249999999971,"noteNumber":71,"velocity":36,"programNumber":40},{"time":7262.2149999999965,"duration":117.13249999999971,"noteNumber":72,"velocity":36,"programNumber":40},{"time":7379.347499999996,"duration":117.13249999999971,"noteNumber":74,"velocity":36,"programNumber":40},{"time":7496.479999999996,"duration":117.13249999999971,"noteNumber":76,"velocity":36,"programNumber":40},{"time":7613.612499999996,"duration":117.13249999999971,"noteNumber":78,"velocity":36,"programNumber":40},{"time":7730.744999999995,"duration":117.13249999999971,"noteNumber":79,"velocity":36,"programNumber":40},{"time":7847.877499999995,"duration":117.13249999999971,"noteNumber":81,"velocity":36,"programNumber":40},{"time":7965.009999999995,"duration":468.53000000000065,"noteNumber":83,"velocity":36,"programNumber":40},{"time":8433.539999999995,"duration":234.26499999999942,"noteNumber":83,"velocity":36,"programNumber":40},{"time":8667.804999999995,"duration":117.13249999999971,"noteNumber":84,"velocity":36,"programNumber":40},{"time":8784.937499999995,"duration":117.13249999999971,"noteNumber":83,"velocity":36,"programNumber":40},{"time":8902.069999999994,"duration":468.53000000000065,"noteNumber":81,"velocity":36,"programNumber":40},{"time":9370.599999999995,"duration":468.53000000000065,"noteNumber":79,"velocity":36,"programNumber":40},{"time":9839.129999999996,"duration":19.522083333333285,"noteNumber":81,"velocity":36,"programNumber":40},{"time":9858.652083333329,"duration":39.04416666666657,"noteNumber":79,"velocity":36,"programNumber":40},{"time":9897.696249999995,"duration":19.522083333333285,"noteNumber":81,"velocity":36,"programNumber":40},{"time":9917.218333333329,"duration":39.04416666666657,"noteNumber":79,"velocity":36,"programNumber":40},{"time":9956.262499999995,"duration":19.522083333333285,"noteNumber":81,"velocity":36,"programNumber":40},{"time":9975.784583333329,"duration":39.04416666666657,"noteNumber":79,"velocity":36,"programNumber":40},{"time":10014.828749999995,"duration":19.522083333333285,"noteNumber":81,"velocity":36,"programNumber":40},{"time":10034.350833333328,"duration":39.04416666666657,"noteNumber":79,"velocity":36,"programNumber":40},{"time":10073.394999999995,"duration":19.522083333333285,"noteNumber":81,"velocity":36,"programNumber":40},{"time":10092.917083333328,"duration":39.04416666666657,"noteNumber":79,"velocity":36,"programNumber":40},{"time":10131.961249999995,"duration":19.522083333333285,"noteNumber":81,"velocity":36,"programNumber":40},{"time":10151.483333333328,"duration":39.04416666666657,"noteNumber":79,"velocity":36,"programNumber":40},{"time":10190.527499999995,"duration":19.522083333333285,"noteNumber":81,"velocity":36,"programNumber":40},{"time":10210.049583333328,"duration":39.04416666666657,"noteNumber":79,"velocity":36,"programNumber":40},{"time":10249.093749999995,"duration":19.522083333333285,"noteNumber":81,"velocity":36,"programNumber":40},{"time":10268.615833333328,"duration":39.04416666666657,"noteNumber":79,"velocity":36,"programNumber":40},{"time":10307.659999999994,"duration":468.53000000000065,"noteNumber":78,"velocity":36,"programNumber":40},{"time":14055.899999999994,"duration":1405.5900000000001,"noteNumber":86,"velocity":36,"programNumber":40},{"time":15461.489999999994,"duration":1405.5900000000001,"noteNumber":86,"velocity":36,"programNumber":40},{"time":16867.079999999994,"duration":78.08833333333314,"noteNumber":86,"velocity":36,"programNumber":40},{"time":16945.168333333328,"duration":78.08833333333314,"noteNumber":83,"velocity":36,"programNumber":40},{"time":17023.25666666666,"duration":78.08833333333314,"noteNumber":81,"velocity":36,"programNumber":40},{"time":17101.344999999994,"duration":78.08833333333314,"noteNumber":80,"velocity":36,"programNumber":40},{"time":17179.433333333327,"duration":78.08833333333314,"noteNumber":78,"velocity":36,"programNumber":40},{"time":17257.52166666666,"duration":78.08833333333314,"noteNumber":76,"velocity":36,"programNumber":40},{"time":17335.609999999993,"duration":78.08833333333314,"noteNumber":74,"velocity":36,"programNumber":40},{"time":17413.698333333326,"duration":78.08833333333314,"noteNumber":71,"velocity":36,"programNumber":40},{"time":17491.78666666666,"duration":78.08833333333314,"noteNumber":69,"velocity":36,"programNumber":40},{"time":17569.874999999993,"duration":78.08833333333314,"noteNumber":68,"velocity":36,"programNumber":40},{"time":17647.963333333326,"duration":78.08833333333314,"noteNumber":66,"velocity":36,"programNumber":40},{"time":17726.05166666666,"duration":78.08833333333314,"noteNumber":64,"velocity":36,"programNumber":40},{"time":17804.139999999992,"duration":117.13249999999971,"noteNumber":74,"velocity":36,"programNumber":40},{"time":17921.272499999992,"duration":117.13249999999971,"noteNumber":71,"velocity":36,"programNumber":40},{"time":18038.40499999999,"duration":117.13249999999971,"noteNumber":83,"velocity":36,"programNumber":40},{"time":18155.53749999999,"duration":117.13249999999971,"noteNumber":74,"velocity":36,"programNumber":40},{"time":18272.66999999999,"duration":117.13249999999971,"noteNumber":73,"velocity":36,"programNumber":40},{"time":18389.80249999999,"duration":117.13249999999971,"noteNumber":71,"velocity":36,"programNumber":40},{"time":18506.93499999999,"duration":117.13249999999971,"noteNumber":69,"velocity":36,"programNumber":40},{"time":18624.06749999999,"duration":117.13249999999971,"noteNumber":71,"velocity":36,"programNumber":40},{"time":18741.19999999999,"duration":468.52999999999884,"noteNumber":69,"velocity":36,"programNumber":40},{"time":19678.259999999987,"duration":1405.5900000000001,"noteNumber":81,"velocity":36,"programNumber":40},{"time":21083.849999999988,"duration":1405.5900000000001,"noteNumber":81,"velocity":36,"programNumber":40},{"time":22489.439999999988,"duration":117.13249999999971,"noteNumber":78,"velocity":36,"programNumber":40},{"time":22606.572499999987,"duration":117.13249999999971,"noteNumber":76,"velocity":36,"programNumber":40},{"time":22723.704999999987,"duration":117.13249999999971,"noteNumber":78,"velocity":36,"programNumber":40},{"time":22840.837499999987,"duration":117.13249999999971,"noteNumber":79,"velocity":36,"programNumber":40},{"time":22957.969999999987,"duration":234.26499999999942,"noteNumber":81,"velocity":36,"programNumber":40},{"time":23192.234999999986,"duration":234.26499999999942,"noteNumber":74,"velocity":36,"programNumber":40},{"time":23426.499999999985,"duration":234.26499999999942,"noteNumber":74,"velocity":36,"programNumber":40},{"time":23660.764999999985,"duration":234.26499999999942,"noteNumber":74,"velocity":36,"programNumber":40},{"time":23895.029999999984,"duration":117.13249999999971,"noteNumber":79,"velocity":36,"programNumber":40},{"time":24012.162499999984,"duration":117.13249999999971,"noteNumber":76,"velocity":36,"programNumber":40},{"time":24129.294999999984,"duration":117.13249999999971,"noteNumber":78,"velocity":36,"programNumber":40},{"time":24246.427499999983,"duration":117.13249999999971,"noteNumber":74,"velocity":36,"programNumber":40},{"time":24363.559999999983,"duration":234.26499999999942,"noteNumber":73,"velocity":36,"programNumber":40},{"time":24597.824999999983,"duration":117.13249999999971,"noteNumber":76,"velocity":36,"programNumber":40},{"time":24714.957499999982,"duration":117.13249999999971,"noteNumber":73,"velocity":36,"programNumber":40},{"time":24832.089999999982,"duration":468.52999999999884,"noteNumber":69,"velocity":36,"programNumber":40},{"time":25300.61999999998,"duration":234.26499999999942,"noteNumber":66,"velocity":36,"programNumber":40},{"time":25534.88499999998,"duration":234.26499999999942,"noteNumber":66,"velocity":36,"programNumber":40},{"time":25769.14999999998,"duration":234.26499999999942,"noteNumber":69,"velocity":36,"programNumber":40},{"time":26003.41499999998,"duration":234.26499999999942,"noteNumber":69,"velocity":36,"programNumber":40},{"time":26237.67999999998,"duration":234.26499999999942,"noteNumber":69,"velocity":36,"programNumber":40},{"time":26471.944999999978,"duration":234.26499999999942,"noteNumber":69,"velocity":36,"programNumber":40},{"time":26706.209999999977,"duration":234.26499999999942,"noteNumber":67,"velocity":36,"programNumber":40},{"time":27877.534999999978,"duration":117.13249999999971,"noteNumber":74,"velocity":36,"programNumber":40},{"time":27994.667499999978,"duration":117.13249999999971,"noteNumber":76,"velocity":36,"programNumber":40},{"time":28111.799999999977,"duration":234.26499999999942,"noteNumber":74,"velocity":36,"programNumber":40},{"time":28346.064999999977,"duration":468.52999999999884,"noteNumber":74,"velocity":36,"programNumber":40},{"time":28814.594999999976,"duration":468.52999999999884,"noteNumber":74,"velocity":36,"programNumber":40},{"time":29283.124999999975,"duration":234.26499999999942,"noteNumber":73,"velocity":36,"programNumber":40},{"time":29517.389999999974,"duration":468.52999999999884,"noteNumber":74,"velocity":36,"programNumber":40},{"time":30922.979999999974,"duration":234.26499999999942,"noteNumber":74,"velocity":36,"programNumber":40},{"time":31157.244999999974,"duration":39.04416666666657,"noteNumber":76,"velocity":36,"programNumber":40},{"time":31196.28916666664,"duration":39.04416666666657,"noteNumber":78,"velocity":36,"programNumber":40},{"time":31235.333333333307,"duration":39.04416666666657,"noteNumber":79,"velocity":36,"programNumber":40},{"time":31274.377499999973,"duration":39.04416666666657,"noteNumber":81,"velocity":36,"programNumber":40},{"time":31313.42166666664,"duration":39.04416666666657,"noteNumber":83,"velocity":36,"programNumber":40},{"time":31352.465833333306,"duration":39.04416666666657,"noteNumber":85,"velocity":36,"programNumber":40},{"time":31391.509999999973,"duration":234.26499999999942,"noteNumber":86,"velocity":36,"programNumber":40},{"time":32328.56999999997,"duration":1405.5900000000038,"noteNumber":81,"velocity":36,"programNumber":40},{"time":33734.159999999974,"duration":117.13249999999971,"noteNumber":81,"velocity":36,"programNumber":40},{"time":33851.292499999974,"duration":117.13249999999971,"noteNumber":79,"velocity":36,"programNumber":40},{"time":33968.424999999974,"duration":117.13249999999971,"noteNumber":78,"velocity":36,"programNumber":40},{"time":34085.55749999997,"duration":117.13249999999971,"noteNumber":76,"velocity":36,"programNumber":40},{"time":34202.68999999997,"duration":468.52999999999884,"noteNumber":74,"velocity":36,"programNumber":40},{"time":34671.21999999997,"duration":19.522083333336923,"noteNumber":74,"velocity":36,"programNumber":40},{"time":34690.74208333331,"duration":39.04416666666657,"noteNumber":73,"velocity":36,"programNumber":40},{"time":34729.786249999976,"duration":19.522083333336923,"noteNumber":74,"velocity":36,"programNumber":40},{"time":34749.30833333331,"duration":39.04416666666657,"noteNumber":73,"velocity":36,"programNumber":40},{"time":34788.35249999998,"duration":19.522083333336923,"noteNumber":74,"velocity":36,"programNumber":40},{"time":34807.874583333316,"duration":39.04416666666657,"noteNumber":73,"velocity":36,"programNumber":40},{"time":34846.91874999998,"duration":19.522083333336923,"noteNumber":74,"velocity":36,"programNumber":40},{"time":34866.44083333332,"duration":39.04416666666657,"noteNumber":73,"velocity":36,"programNumber":40},{"time":34905.484999999986,"duration":19.522083333336923,"noteNumber":74,"velocity":36,"programNumber":40},{"time":34925.00708333332,"duration":39.04416666666657,"noteNumber":73,"velocity":36,"programNumber":40},{"time":34964.05124999999,"duration":19.522083333336923,"noteNumber":74,"velocity":36,"programNumber":40},{"time":34983.57333333333,"duration":39.04416666666657,"noteNumber":73,"velocity":36,"programNumber":40},{"time":35022.61749999999,"duration":19.522083333336923,"noteNumber":74,"velocity":36,"programNumber":40},{"time":35042.13958333333,"duration":19.522083333336923,"noteNumber":73,"velocity":36,"programNumber":40},{"time":35061.66166666667,"duration":39.04416666666657,"noteNumber":71,"velocity":36,"programNumber":40},{"time":35100.70583333333,"duration":39.04416666666657,"noteNumber":73,"velocity":36,"programNumber":40},{"time":35139.75,"duration":468.52999999999884,"noteNumber":74,"velocity":36,"programNumber":40},{"time":36193.9425,"duration":58.56625000000349,"noteNumber":81,"velocity":36,"programNumber":40},{"time":36252.50875,"duration":58.56625000000349,"noteNumber":79,"velocity":36,"programNumber":40},{"time":36311.075000000004,"duration":58.56625000000349,"noteNumber":78,"velocity":36,"programNumber":40},{"time":36369.64125000001,"duration":58.56625000000349,"noteNumber":76,"velocity":36,"programNumber":40},{"time":36428.20750000001,"duration":58.56625000000349,"noteNumber":74,"velocity":36,"programNumber":40},{"time":36486.773750000015,"duration":58.56625000000349,"noteNumber":73,"velocity":36,"programNumber":40},{"time":36545.34000000002,"duration":234.26499999999942,"noteNumber":74,"velocity":36,"programNumber":40},{"time":36779.60500000002,"duration":234.26499999999942,"noteNumber":69,"velocity":36,"programNumber":40},{"time":37013.87000000002,"duration":234.26499999999942,"noteNumber":71,"velocity":36,"programNumber":40},{"time":37248.13500000002,"duration":234.26499999999942,"noteNumber":69,"velocity":36,"programNumber":40},{"time":37482.400000000016,"duration":234.26499999999942,"noteNumber":71,"velocity":36,"programNumber":40},{"time":37716.665000000015,"duration":234.26499999999942,"noteNumber":67,"velocity":36,"programNumber":40},{"time":37950.930000000015,"duration":937.0599999999977,"noteNumber":67,"velocity":36,"programNumber":40},{"time":38887.99000000001,"duration":234.26499999999942,"noteNumber":66,"velocity":36,"programNumber":40},{"time":40762.110000000015,"duration":1405.5899999999965,"noteNumber":79,"velocity":36,"programNumber":40},{"time":42167.70000000001,"duration":468.52999999999884,"noteNumber":81,"velocity":36,"programNumber":40},{"time":42636.23000000001,"duration":468.52999999999884,"noteNumber":79,"velocity":36,"programNumber":40},{"time":43104.76000000001,"duration":468.52999999999884,"noteNumber":78,"velocity":36,"programNumber":40},{"time":43573.29000000001,"duration":702.7949999999983,"noteNumber":79,"velocity":36,"programNumber":40},{"time":44276.08500000001,"duration":234.26499999999942,"noteNumber":83,"velocity":36,"programNumber":40},{"time":44510.350000000006,"duration":234.26499999999942,"noteNumber":81,"velocity":36,"programNumber":40},{"time":44744.615000000005,"duration":234.26499999999942,"noteNumber":79,"velocity":36,"programNumber":40},{"time":44978.880000000005,"duration":19.522083333336923,"noteNumber":81,"velocity":36,"programNumber":40},{"time":44998.40208333334,"duration":39.04416666666657,"noteNumber":79,"velocity":36,"programNumber":40},{"time":45037.44625000001,"duration":19.522083333336923,"noteNumber":81,"velocity":36,"programNumber":40},{"time":45056.968333333345,"duration":39.04416666666657,"noteNumber":79,"velocity":36,"programNumber":40},{"time":45096.01250000001,"duration":19.522083333336923,"noteNumber":81,"velocity":36,"programNumber":40},{"time":45115.53458333335,"duration":39.04416666666657,"noteNumber":79,"velocity":36,"programNumber":40},{"time":45154.578750000015,"duration":19.522083333336923,"noteNumber":81,"velocity":36,"programNumber":40},{"time":45174.10083333335,"duration":39.04416666666657,"noteNumber":79,"velocity":36,"programNumber":40},{"time":45213.14500000002,"duration":19.522083333336923,"noteNumber":81,"velocity":36,"programNumber":40},{"time":45232.667083333356,"duration":39.04416666666657,"noteNumber":79,"velocity":36,"programNumber":40},{"time":45271.71125000002,"duration":19.522083333336923,"noteNumber":81,"velocity":36,"programNumber":40},{"time":45291.23333333336,"duration":39.04416666666657,"noteNumber":79,"velocity":36,"programNumber":40},{"time":45330.277500000026,"duration":19.522083333336923,"noteNumber":81,"velocity":36,"programNumber":40},{"time":45349.79958333336,"duration":39.04416666666657,"noteNumber":79,"velocity":36,"programNumber":40},{"time":45388.84375000003,"duration":19.522083333336923,"noteNumber":81,"velocity":36,"programNumber":40},{"time":45408.365833333366,"duration":39.04416666666657,"noteNumber":79,"velocity":36,"programNumber":40},{"time":45447.41000000003,"duration":468.52999999999884,"noteNumber":78,"velocity":36,"programNumber":40},{"time":47790.060000000034,"duration":78.08833333333314,"noteNumber":69,"velocity":36,"programNumber":40},{"time":47868.14833333337,"duration":78.08833333333314,"noteNumber":76,"velocity":36,"programNumber":40},{"time":47946.2366666667,"duration":78.08833333333314,"noteNumber":72,"velocity":36,"programNumber":40},{"time":48024.32500000003,"duration":78.08833333333314,"noteNumber":69,"velocity":36,"programNumber":40},{"time":48102.41333333337,"duration":78.08833333333314,"noteNumber":64,"velocity":36,"programNumber":40},{"time":48180.5016666667,"duration":78.08833333333314,"noteNumber":60,"velocity":36,"programNumber":40},{"time":48258.59000000003,"duration":234.26499999999942,"noteNumber":57,"velocity":36,"programNumber":40},{"time":48961.38500000003,"duration":234.26499999999942,"noteNumber":73,"velocity":36,"programNumber":40},{"time":49195.65000000003,"duration":468.52999999999884,"noteNumber":74,"velocity":36,"programNumber":40},{"time":49664.18000000003,"duration":117.13249999999971,"noteNumber":74,"velocity":36,"programNumber":40},{"time":49781.31250000003,"duration":117.13249999999971,"noteNumber":76,"velocity":36,"programNumber":40},{"time":49898.44500000003,"duration":117.13249999999971,"noteNumber":78,"velocity":36,"programNumber":40},{"time":50015.57750000003,"duration":117.13249999999971,"noteNumber":79,"velocity":36,"programNumber":40},{"time":50132.71000000003,"duration":117.13249999999971,"noteNumber":81,"velocity":36,"programNumber":40},{"time":50249.84250000003,"duration":117.13249999999971,"noteNumber":83,"velocity":36,"programNumber":40},{"time":50366.97500000003,"duration":117.13249999999971,"noteNumber":84,"velocity":36,"programNumber":40},{"time":50484.10750000003,"duration":117.13249999999971,"noteNumber":81,"velocity":36,"programNumber":40},{"time":50601.24000000003,"duration":234.26499999999942,"noteNumber":84,"velocity":36,"programNumber":40},{"time":50835.50500000003,"duration":468.52999999999884,"noteNumber":83,"velocity":36,"programNumber":40},{"time":51304.035000000025,"duration":117.13249999999971,"noteNumber":81,"velocity":36,"programNumber":40},{"time":51421.167500000025,"duration":117.13249999999971,"noteNumber":79,"velocity":36,"programNumber":40},{"time":51538.300000000025,"duration":234.26499999999942,"noteNumber":86,"velocity":36,"programNumber":40},{"time":51772.565000000024,"duration":234.26499999999942,"noteNumber":71,"velocity":36,"programNumber":40},{"time":52006.83000000002,"duration":468.52999999999884,"noteNumber":72,"velocity":36,"programNumber":40},{"time":54115.215000000026,"duration":234.26499999999942,"noteNumber":88,"velocity":36,"programNumber":40},{"time":54349.480000000025,"duration":234.26499999999942,"noteNumber":86,"velocity":36,"programNumber":40},{"time":54583.745000000024,"duration":234.26499999999942,"noteNumber":78,"velocity":36,"programNumber":40},{"time":54818.010000000024,"duration":234.26499999999942,"noteNumber":79,"velocity":36,"programNumber":40},{"time":55052.27500000002,"duration":234.26499999999942,"noteNumber":74,"velocity":36,"programNumber":40},{"time":55286.54000000002,"duration":468.52999999999884,"noteNumber":74,"velocity":36,"programNumber":40},{"time":55755.07000000002,"duration":117.13249999999971,"noteNumber":74,"velocity":36,"programNumber":40},{"time":55872.20250000002,"duration":117.13249999999971,"noteNumber":83,"velocity":36,"programNumber":40},{"time":55989.33500000002,"duration":117.13249999999971,"noteNumber":81,"velocity":36,"programNumber":40},{"time":56106.46750000002,"duration":117.13249999999971,"noteNumber":79,"velocity":36,"programNumber":40},{"time":56223.60000000002,"duration":234.26499999999942,"noteNumber":81,"velocity":36,"programNumber":40},{"time":56457.86500000002,"duration":234.26499999999942,"noteNumber":79,"velocity":36,"programNumber":40},{"time":56692.13000000002,"duration":702.7949999999983,"noteNumber":78,"velocity":36,"programNumber":40},{"time":57394.92500000002,"duration":234.26499999999942,"noteNumber":79,"velocity":36,"programNumber":40},{"time":57629.19000000002,"duration":468.52999999999884,"noteNumber":81,"velocity":36,"programNumber":40},{"time":60440.37000000002,"duration":702.7949999999983,"noteNumber":72,"velocity":36,"programNumber":40},{"time":61143.165000000015,"duration":234.26499999999942,"noteNumber":76,"velocity":36,"programNumber":40},{"time":61377.430000000015,"duration":234.26499999999942,"noteNumber":76,"velocity":36,"programNumber":40},{"time":61611.695000000014,"duration":117.13249999999971,"noteNumber":74,"velocity":36,"programNumber":40},{"time":61728.827500000014,"duration":117.13249999999971,"noteNumber":72,"velocity":36,"programNumber":40},{"time":61845.960000000014,"duration":702.7949999999983,"noteNumber":71,"velocity":36,"programNumber":40},{"time":62548.75500000001,"duration":117.13249999999971,"noteNumber":72,"velocity":36,"programNumber":40},{"time":62665.88750000001,"duration":117.13249999999971,"noteNumber":74,"velocity":36,"programNumber":40},{"time":62783.02000000001,"duration":117.13249999999971,"noteNumber":76,"velocity":36,"programNumber":40},{"time":62900.15250000001,"duration":117.13249999999971,"noteNumber":78,"velocity":36,"programNumber":40},{"time":63017.28500000001,"duration":117.13249999999971,"noteNumber":79,"velocity":36,"programNumber":40},{"time":63134.41750000001,"duration":117.13249999999971,"noteNumber":81,"velocity":36,"programNumber":40},{"time":63251.55000000001,"duration":351.3974999999991,"noteNumber":83,"velocity":36,"programNumber":40},{"time":63602.94750000001,"duration":58.56625000000349,"noteNumber":84,"velocity":36,"programNumber":40},{"time":63661.51375000001,"duration":58.56625000000349,"noteNumber":83,"velocity":36,"programNumber":40},{"time":63720.080000000016,"duration":468.52999999999884,"noteNumber":81,"velocity":36,"programNumber":40},{"time":64188.610000000015,"duration":468.52999999999884,"noteNumber":79,"velocity":36,"programNumber":40},{"time":64657.140000000014,"duration":19.522083333336923,"noteNumber":81,"velocity":36,"programNumber":40},{"time":64676.66208333335,"duration":39.04416666666657,"noteNumber":79,"velocity":36,"programNumber":40},{"time":64715.70625000002,"duration":19.522083333336923,"noteNumber":81,"velocity":36,"programNumber":40},{"time":64735.228333333354,"duration":39.04416666666657,"noteNumber":79,"velocity":36,"programNumber":40},{"time":64774.27250000002,"duration":19.522083333336923,"noteNumber":81,"velocity":36,"programNumber":40},{"time":64793.79458333336,"duration":39.04416666666657,"noteNumber":79,"velocity":36,"programNumber":40},{"time":64832.838750000024,"duration":19.522083333336923,"noteNumber":81,"velocity":36,"programNumber":40},{"time":64852.36083333336,"duration":39.04416666666657,"noteNumber":79,"velocity":36,"programNumber":40},{"time":64891.40500000003,"duration":19.522083333336923,"noteNumber":81,"velocity":36,"programNumber":40},{"time":64910.927083333365,"duration":39.04416666666657,"noteNumber":79,"velocity":36,"programNumber":40},{"time":64949.97125000003,"duration":19.522083333336923,"noteNumber":81,"velocity":36,"programNumber":40},{"time":64969.49333333337,"duration":39.04416666666657,"noteNumber":79,"velocity":36,"programNumber":40},{"time":65008.537500000035,"duration":19.522083333336923,"noteNumber":81,"velocity":36,"programNumber":40},{"time":65028.05958333337,"duration":39.04416666666657,"noteNumber":79,"velocity":36,"programNumber":40},{"time":65067.10375000004,"duration":19.522083333336923,"noteNumber":81,"velocity":36,"programNumber":40},{"time":65086.625833333375,"duration":39.04416666666657,"noteNumber":79,"velocity":36,"programNumber":40},{"time":65125.67000000004,"duration":468.52999999999884,"noteNumber":78,"velocity":36,"programNumber":40},{"time":68873.91000000005,"duration":1405.5899999999965,"noteNumber":79,"velocity":36,"programNumber":40},{"time":70279.50000000004,"duration":1405.5899999999965,"noteNumber":79,"velocity":36,"programNumber":40},{"time":71685.09000000004,"duration":78.08833333333314,"noteNumber":79,"velocity":36,"programNumber":40},{"time":71763.17833333337,"duration":78.08833333333314,"noteNumber":76,"velocity":36,"programNumber":40},{"time":71841.2666666667,"duration":78.08833333333314,"noteNumber":74,"velocity":36,"programNumber":40},{"time":71919.35500000004,"duration":78.08833333333314,"noteNumber":73,"velocity":36,"programNumber":40},{"time":71997.44333333337,"duration":78.08833333333314,"noteNumber":71,"velocity":36,"programNumber":40},{"time":72075.5316666667,"duration":78.08833333333314,"noteNumber":69,"velocity":36,"programNumber":40},{"time":72153.62000000004,"duration":78.08833333333314,"noteNumber":67,"velocity":36,"programNumber":40},{"time":72231.70833333337,"duration":78.08833333333314,"noteNumber":64,"velocity":36,"programNumber":40},{"time":72309.7966666667,"duration":78.08833333333314,"noteNumber":62,"velocity":36,"programNumber":40},{"time":72387.88500000004,"duration":78.08833333333314,"noteNumber":61,"velocity":36,"programNumber":40},{"time":72465.97333333337,"duration":78.08833333333314,"noteNumber":59,"velocity":36,"programNumber":40},{"time":72544.0616666667,"duration":78.08833333333314,"noteNumber":57,"velocity":36,"programNumber":40},{"time":72622.15000000004,"duration":117.13250000000698,"noteNumber":76,"velocity":36,"programNumber":40},{"time":72739.28250000004,"duration":117.13250000000698,"noteNumber":69,"velocity":36,"programNumber":40},{"time":72856.41500000005,"duration":117.13250000000698,"noteNumber":79,"velocity":36,"programNumber":40},{"time":72973.54750000006,"duration":117.13250000000698,"noteNumber":76,"velocity":36,"programNumber":40},{"time":73090.68000000007,"duration":117.13250000000698,"noteNumber":78,"velocity":36,"programNumber":40},{"time":73207.81250000007,"duration":117.13250000000698,"noteNumber":76,"velocity":36,"programNumber":40},{"time":73324.94500000008,"duration":117.13250000000698,"noteNumber":74,"velocity":36,"programNumber":40},{"time":73442.07750000009,"duration":117.13250000000698,"noteNumber":76,"velocity":36,"programNumber":40},{"time":73559.2100000001,"duration":468.52999999999884,"noteNumber":74,"velocity":36,"programNumber":40},{"time":74496.27000000009,"duration":1405.5899999999965,"noteNumber":74,"velocity":36,"programNumber":40},{"time":75901.86000000009,"duration":937.0599999999977,"noteNumber":74,"velocity":36,"programNumber":40},{"time":76838.92000000009,"duration":351.3975000000064,"noteNumber":74,"velocity":36,"programNumber":40},{"time":77190.31750000009,"duration":117.13250000000698,"noteNumber":66,"velocity":36,"programNumber":40},{"time":77307.4500000001,"duration":117.13250000000698,"noteNumber":67,"velocity":36,"programNumber":40},{"time":77424.5825000001,"duration":117.13250000000698,"noteNumber":69,"velocity":36,"programNumber":40},{"time":77541.71500000011,"duration":117.13250000000698,"noteNumber":71,"velocity":36,"programNumber":40},{"time":77658.84750000012,"duration":117.13250000000698,"noteNumber":72,"velocity":36,"programNumber":40},{"time":77775.98000000013,"duration":234.26499999999942,"noteNumber":74,"velocity":36,"programNumber":40},{"time":78010.24500000013,"duration":234.26499999999942,"noteNumber":67,"velocity":36,"programNumber":40},{"time":78244.51000000013,"duration":234.26499999999942,"noteNumber":67,"velocity":36,"programNumber":40},{"time":78478.77500000013,"duration":234.26499999999942,"noteNumber":67,"velocity":36,"programNumber":40},{"time":78713.04000000012,"duration":117.13250000000698,"noteNumber":72,"velocity":36,"programNumber":40},{"time":78830.17250000013,"duration":117.13250000000698,"noteNumber":69,"velocity":36,"programNumber":40},{"time":78947.30500000014,"duration":117.13250000000698,"noteNumber":71,"velocity":36,"programNumber":40},{"time":79064.43750000015,"duration":117.13250000000698,"noteNumber":67,"velocity":36,"programNumber":40},{"time":79181.57000000015,"duration":234.26499999999942,"noteNumber":66,"velocity":36,"programNumber":40},{"time":79415.83500000015,"duration":117.13250000000698,"noteNumber":69,"velocity":36,"programNumber":40},{"time":79532.96750000016,"duration":117.13250000000698,"noteNumber":66,"velocity":36,"programNumber":40},{"time":79650.10000000017,"duration":468.52999999999884,"noteNumber":62,"velocity":36,"programNumber":40},{"time":80118.63000000016,"duration":234.26499999999942,"noteNumber":62,"velocity":36,"programNumber":40},{"time":80352.89500000016,"duration":234.26499999999942,"noteNumber":62,"velocity":36,"programNumber":40},{"time":80587.16000000016,"duration":234.26499999999942,"noteNumber":67,"velocity":36,"programNumber":40},{"time":80821.42500000016,"duration":234.26499999999942,"noteNumber":67,"velocity":36,"programNumber":40},{"time":81055.69000000016,"duration":234.26499999999942,"noteNumber":67,"velocity":36,"programNumber":40},{"time":81289.95500000016,"duration":234.26499999999942,"noteNumber":67,"velocity":36,"programNumber":40},{"time":81524.22000000016,"duration":234.26499999999942,"noteNumber":67,"velocity":36,"programNumber":40},{"time":82695.54500000016,"duration":234.26499999999942,"noteNumber":67,"velocity":36,"programNumber":40},{"time":82929.81000000016,"duration":234.26499999999942,"noteNumber":67,"velocity":36,"programNumber":40},{"time":83164.07500000016,"duration":468.52999999999884,"noteNumber":67,"velocity":36,"programNumber":40},{"time":83632.60500000016,"duration":117.13250000000698,"noteNumber":83,"velocity":36,"programNumber":40},{"time":83866.87000000017,"duration":19.522083333329647,"noteNumber":79,"velocity":36,"programNumber":40},{"time":83886.3920833335,"duration":39.044166666673846,"noteNumber":78,"velocity":36,"programNumber":40},{"time":83925.43625000017,"duration":19.522083333329647,"noteNumber":79,"velocity":36,"programNumber":40},{"time":83944.9583333335,"duration":39.044166666673846,"noteNumber":78,"velocity":36,"programNumber":40},{"time":83984.00250000018,"duration":19.522083333329647,"noteNumber":79,"velocity":36,"programNumber":40},{"time":84003.5245833335,"duration":39.044166666673846,"noteNumber":78,"velocity":36,"programNumber":40},{"time":84042.56875000018,"duration":19.522083333329647,"noteNumber":79,"velocity":36,"programNumber":40},{"time":84062.09083333351,"duration":39.044166666673846,"noteNumber":78,"velocity":36,"programNumber":40},{"time":84101.13500000018,"duration":19.522083333329647,"noteNumber":79,"velocity":36,"programNumber":40},{"time":84120.65708333351,"duration":39.044166666673846,"noteNumber":78,"velocity":36,"programNumber":40},{"time":84159.70125000019,"duration":19.522083333329647,"noteNumber":79,"velocity":36,"programNumber":40},{"time":84179.22333333352,"duration":39.044166666673846,"noteNumber":78,"velocity":36,"programNumber":40},{"time":84218.26750000019,"duration":19.522083333329647,"noteNumber":79,"velocity":36,"programNumber":40},{"time":84237.78958333352,"duration":39.044166666673846,"noteNumber":78,"velocity":36,"programNumber":40},{"time":84276.8337500002,"duration":19.522083333329647,"noteNumber":79,"velocity":36,"programNumber":40},{"time":84296.35583333352,"duration":39.044166666673846,"noteNumber":78,"velocity":36,"programNumber":40},{"time":84335.4000000002,"duration":468.52999999999884,"noteNumber":79,"velocity":36,"programNumber":40},{"time":85740.9900000002,"duration":234.26499999999942,"noteNumber":79,"velocity":36,"programNumber":40},{"time":85975.2550000002,"duration":39.044166666673846,"noteNumber":81,"velocity":36,"programNumber":40},{"time":86014.29916666687,"duration":39.044166666673846,"noteNumber":83,"velocity":36,"programNumber":40},{"time":86053.34333333354,"duration":39.044166666673846,"noteNumber":84,"velocity":36,"programNumber":40},{"time":86092.38750000022,"duration":39.044166666673846,"noteNumber":86,"velocity":36,"programNumber":40},{"time":86131.43166666689,"duration":39.044166666673846,"noteNumber":88,"velocity":36,"programNumber":40},{"time":86170.47583333356,"duration":39.044166666673846,"noteNumber":90,"velocity":36,"programNumber":40},{"time":86209.52000000024,"duration":234.26499999999942,"noteNumber":91,"velocity":36,"programNumber":40},{"time":87146.58000000023,"duration":1405.5899999999965,"noteNumber":86,"velocity":36,"programNumber":40},{"time":88552.17000000023,"duration":58.56625000000349,"noteNumber":86,"velocity":36,"programNumber":40},{"time":88610.73625000023,"duration":58.56625000000349,"noteNumber":84,"velocity":36,"programNumber":40},{"time":88669.30250000024,"duration":117.13250000000698,"noteNumber":84,"velocity":36,"programNumber":40},{"time":88786.43500000025,"duration":117.13250000000698,"noteNumber":83,"velocity":36,"programNumber":40},{"time":88903.56750000025,"duration":117.13250000000698,"noteNumber":81,"velocity":36,"programNumber":40},{"time":89020.70000000026,"duration":468.52999999999884,"noteNumber":79,"velocity":36,"programNumber":40},{"time":89489.23000000026,"duration":19.522083333329647,"noteNumber":79,"velocity":36,"programNumber":40},{"time":89508.75208333359,"duration":39.044166666673846,"noteNumber":78,"velocity":36,"programNumber":40},{"time":89547.79625000026,"duration":19.522083333329647,"noteNumber":79,"velocity":36,"programNumber":40},{"time":89567.31833333359,"duration":39.044166666673846,"noteNumber":78,"velocity":36,"programNumber":40},{"time":89606.36250000026,"duration":19.522083333329647,"noteNumber":79,"velocity":36,"programNumber":40},{"time":89625.8845833336,"duration":39.044166666673846,"noteNumber":78,"velocity":36,"programNumber":40},{"time":89664.92875000027,"duration":19.522083333329647,"noteNumber":79,"velocity":36,"programNumber":40},{"time":89684.4508333336,"duration":39.044166666673846,"noteNumber":78,"velocity":36,"programNumber":40},{"time":89723.49500000027,"duration":19.522083333329647,"noteNumber":79,"velocity":36,"programNumber":40},{"time":89743.0170833336,"duration":39.044166666673846,"noteNumber":78,"velocity":36,"programNumber":40},{"time":89782.06125000028,"duration":19.522083333329647,"noteNumber":79,"velocity":36,"programNumber":40},{"time":89801.5833333336,"duration":39.044166666673846,"noteNumber":78,"velocity":36,"programNumber":40},{"time":89840.62750000028,"duration":39.044166666673846,"noteNumber":78,"velocity":36,"programNumber":40},{"time":89879.67166666695,"duration":39.044166666673846,"noteNumber":76,"velocity":36,"programNumber":40},{"time":89918.71583333363,"duration":39.044166666673846,"noteNumber":78,"velocity":36,"programNumber":40},{"time":89957.7600000003,"duration":468.52999999999884,"noteNumber":79,"velocity":36,"programNumber":40},{"time":91011.9525000003,"duration":58.56625000000349,"noteNumber":86,"velocity":36,"programNumber":40},{"time":91070.51875000031,"duration":58.56625000000349,"noteNumber":84,"velocity":36,"programNumber":40},{"time":91129.08500000031,"duration":58.56625000000349,"noteNumber":83,"velocity":36,"programNumber":40},{"time":91187.65125000032,"duration":58.56625000000349,"noteNumber":81,"velocity":36,"programNumber":40},{"time":91246.21750000032,"duration":58.56625000000349,"noteNumber":79,"velocity":36,"programNumber":40},{"time":91304.78375000032,"duration":58.56625000000349,"noteNumber":78,"velocity":36,"programNumber":40},{"time":91363.35000000033,"duration":234.26499999999942,"noteNumber":79,"velocity":36,"programNumber":40},{"time":91597.61500000033,"duration":234.26499999999942,"noteNumber":74,"velocity":36,"programNumber":40},{"time":91831.88000000032,"duration":234.26499999999942,"noteNumber":76,"velocity":36,"programNumber":40},{"time":92066.14500000032,"duration":234.26499999999942,"noteNumber":74,"velocity":36,"programNumber":40},{"time":92300.41000000032,"duration":234.26499999999942,"noteNumber":76,"velocity":36,"programNumber":40},{"time":92534.67500000032,"duration":234.26499999999942,"noteNumber":72,"velocity":36,"programNumber":40},{"time":92768.94000000032,"duration":937.0599999999977,"noteNumber":72,"velocity":36,"programNumber":40},{"time":93706.00000000032,"duration":234.26499999999942,"noteNumber":71,"velocity":36,"programNumber":40},{"time":94174.53000000032,"duration":468.52999999999884,"noteNumber":71,"velocity":94,"programNumber":40},{"time":94643.06000000032,"duration":58.56625000000349,"noteNumber":72,"velocity":79,"programNumber":40},{"time":94701.62625000032,"duration":58.56625000000349,"noteNumber":71,"velocity":79,"programNumber":40},{"time":94760.19250000032,"duration":117.13250000000698,"noteNumber":69,"velocity":79,"programNumber":40},{"time":94877.32500000033,"duration":117.13250000000698,"noteNumber":71,"velocity":79,"programNumber":40},{"time":94994.45750000034,"duration":117.13250000000698,"noteNumber":72,"velocity":79,"programNumber":40},{"time":95111.59000000035,"duration":234.26499999999942,"noteNumber":71,"velocity":79,"programNumber":40},{"time":95345.85500000035,"duration":234.26499999999942,"noteNumber":71,"velocity":79,"programNumber":40},{"time":95580.12000000034,"duration":234.26499999999942,"noteNumber":69,"velocity":79,"programNumber":40},{"time":95814.38500000034,"duration":234.26499999999942,"noteNumber":72,"velocity":79,"programNumber":40},{"time":96048.65000000034,"duration":234.26499999999942,"noteNumber":71,"velocity":79,"programNumber":40},{"time":96282.91500000034,"duration":234.26499999999942,"noteNumber":67,"velocity":79,"programNumber":40},{"time":96517.18000000034,"duration":234.26499999999942,"noteNumber":66,"velocity":79,"programNumber":40},{"time":96751.44500000034,"duration":234.26499999999942,"noteNumber":69,"velocity":79,"programNumber":40},{"time":96985.71000000034,"duration":234.26499999999942,"noteNumber":67,"velocity":79,"programNumber":40},{"time":97922.77000000034,"duration":937.0599999999977,"noteNumber":71,"velocity":79,"programNumber":40},{"time":98859.83000000034,"duration":937.0599999999977,"noteNumber":74,"velocity":79,"programNumber":40},{"time":99796.89000000033,"duration":234.26499999999942,"noteNumber":72,"velocity":79,"programNumber":40},{"time":100031.15500000033,"duration":234.26499999999942,"noteNumber":71,"velocity":79,"programNumber":40},{"time":100265.42000000033,"duration":234.26499999999942,"noteNumber":69,"velocity":79,"programNumber":40},{"time":100499.68500000033,"duration":234.26499999999942,"noteNumber":67,"velocity":79,"programNumber":40},{"time":100733.95000000033,"duration":468.52999999999884,"noteNumber":74,"velocity":79,"programNumber":40},{"time":101202.48000000033,"duration":468.52999999999884,"noteNumber":62,"velocity":79,"programNumber":40},{"time":101671.01000000033,"duration":468.52999999999884,"noteNumber":67,"velocity":79,"programNumber":40},{"time":102139.54000000033,"duration":58.56625000000349,"noteNumber":72,"velocity":79,"programNumber":40},{"time":102198.10625000033,"duration":58.56625000000349,"noteNumber":71,"velocity":79,"programNumber":40},{"time":102256.67250000034,"duration":117.13250000000698,"noteNumber":69,"velocity":79,"programNumber":40},{"time":102373.80500000034,"duration":117.13250000000698,"noteNumber":71,"velocity":79,"programNumber":40},{"time":102490.93750000035,"duration":117.13250000000698,"noteNumber":72,"velocity":79,"programNumber":40},{"time":102608.07000000036,"duration":234.26499999999942,"noteNumber":71,"velocity":79,"programNumber":40},{"time":102842.33500000036,"duration":234.26499999999942,"noteNumber":71,"velocity":79,"programNumber":40},{"time":103076.60000000036,"duration":234.26499999999942,"noteNumber":69,"velocity":79,"programNumber":40},{"time":103310.86500000035,"duration":234.26499999999942,"noteNumber":72,"velocity":79,"programNumber":40},{"time":103545.13000000035,"duration":234.26499999999942,"noteNumber":71,"velocity":79,"programNumber":40},{"time":103779.39500000035,"duration":234.26499999999942,"noteNumber":67,"velocity":79,"programNumber":40},{"time":104013.66000000035,"duration":234.26499999999942,"noteNumber":66,"velocity":79,"programNumber":40},{"time":104247.92500000035,"duration":234.26499999999942,"noteNumber":69,"velocity":79,"programNumber":40},{"time":104482.19000000035,"duration":234.26499999999942,"noteNumber":67,"velocity":79,"programNumber":40},{"time":105419.25000000035,"duration":937.0599999999977,"noteNumber":71,"velocity":79,"programNumber":40},{"time":106356.31000000035,"duration":937.0599999999977,"noteNumber":74,"velocity":79,"programNumber":40},{"time":107293.37000000034,"duration":234.26499999999942,"noteNumber":72,"velocity":79,"programNumber":40},{"time":107527.63500000034,"duration":234.26499999999942,"noteNumber":71,"velocity":79,"programNumber":40},{"time":107761.90000000034,"duration":234.26499999999942,"noteNumber":69,"velocity":79,"programNumber":40},{"time":107996.16500000034,"duration":234.26499999999942,"noteNumber":67,"velocity":79,"programNumber":40},{"time":108230.43000000034,"duration":468.52999999999884,"noteNumber":74,"velocity":79,"programNumber":40},{"time":108698.96000000034,"duration":468.52999999999884,"noteNumber":62,"velocity":79,"programNumber":40},{"time":109167.49000000034,"duration":117.13250000000698,"noteNumber":67,"velocity":79,"programNumber":40},{"time":109284.62250000035,"duration":117.13250000000698,"noteNumber":62,"velocity":79,"programNumber":40},{"time":109401.75500000035,"duration":117.13250000000698,"noteNumber":62,"velocity":79,"programNumber":40},{"time":109518.88750000036,"duration":117.13250000000698,"noteNumber":62,"velocity":79,"programNumber":40},{"time":109636.02000000037,"duration":117.13250000000698,"noteNumber":62,"velocity":79,"programNumber":40},{"time":109753.15250000037,"duration":117.13250000000698,"noteNumber":62,"velocity":79,"programNumber":40},{"time":109870.28500000038,"duration":117.13250000000698,"noteNumber":62,"velocity":79,"programNumber":40},{"time":109987.41750000039,"duration":117.13250000000698,"noteNumber":62,"velocity":79,"programNumber":40},{"time":110104.5500000004,"duration":937.0599999999977,"noteNumber":62,"velocity":79,"programNumber":4},{"time":111041.6100000004,"duration":937.0599999999977,"noteNumber":62,"velocity":79,"programNumber":4},{"time":111978.67000000039,"duration":937.0599999999977,"noteNumber":66,"velocity":79,"programNumber":4},{"time":112915.73000000039,"duration":117.13250000000698,"noteNumber":67,"velocity":79,"programNumber":1},{"time":113032.8625000004,"duration":117.13250000000698,"noteNumber":62,"velocity":79,"programNumber":1},{"time":113149.9950000004,"duration":117.13250000000698,"noteNumber":62,"velocity":79,"programNumber":1},{"time":113267.12750000041,"duration":117.13250000000698,"noteNumber":62,"velocity":79,"programNumber":1},{"time":113384.26000000042,"duration":117.13250000000698,"noteNumber":62,"velocity":79,"programNumber":1},{"time":113501.39250000042,"duration":117.13250000000698,"noteNumber":62,"velocity":79,"programNumber":1},{"time":113618.52500000043,"duration":117.13250000000698,"noteNumber":62,"velocity":79,"programNumber":1},{"time":113735.65750000044,"duration":117.13250000000698,"noteNumber":62,"velocity":79,"programNumber":1},{"time":113852.79000000044,"duration":937.0599999999977,"noteNumber":62,"velocity":79,"programNumber":4},{"time":114789.85000000044,"duration":937.0599999999977,"noteNumber":62,"velocity":79,"programNumber":4},{"time":115726.91000000044,"duration":937.0599999999977,"noteNumber":66,"velocity":79,"programNumber":4},{"time":116663.97000000044,"duration":234.26499999999942,"noteNumber":67,"velocity":79,"programNumber":1},{"time":116898.23500000044,"duration":234.26499999999942,"noteNumber":55,"velocity":79,"programNumber":1},{"time":117132.50000000044,"duration":234.26499999999942,"noteNumber":57,"velocity":79,"programNumber":1},{"time":117366.76500000044,"duration":234.26499999999942,"noteNumber":59,"velocity":79,"programNumber":1},{"time":117601.03000000044,"duration":234.26499999999942,"noteNumber":60,"velocity":79,"programNumber":1},{"time":117835.29500000043,"duration":234.26499999999942,"noteNumber":62,"velocity":79,"programNumber":1},{"time":118069.56000000043,"duration":234.26499999999942,"noteNumber":64,"velocity":79,"programNumber":1},{"time":118303.82500000043,"duration":234.26499999999942,"noteNumber":66,"velocity":79,"programNumber":1},{"time":118538.09000000043,"duration":234.26499999999942,"noteNumber":67,"velocity":79,"programNumber":1},{"time":118772.35500000043,"duration":234.26499999999942,"noteNumber":66,"velocity":79,"programNumber":1},{"time":119006.62000000043,"duration":234.26499999999942,"noteNumber":64,"velocity":79,"programNumber":1},{"time":119240.88500000043,"duration":234.26499999999942,"noteNumber":62,"velocity":79,"programNumber":1},{"time":119475.15000000043,"duration":234.26499999999942,"noteNumber":60,"velocity":79,"programNumber":1},{"time":119709.41500000043,"duration":234.26499999999942,"noteNumber":59,"velocity":79,"programNumber":1},{"time":119943.68000000043,"duration":234.26499999999942,"noteNumber":57,"velocity":79,"programNumber":1},{"time":120177.94500000043,"duration":234.26499999999942,"noteNumber":55,"velocity":79,"programNumber":1},{"time":120412.21000000043,"duration":468.52999999999884,"noteNumber":62,"velocity":79,"programNumber":1},{"time":120880.74000000043,"duration":468.52999999999884,"noteNumber":78,"velocity":79,"programNumber":1},{"time":121349.27000000043,"duration":468.52999999999884,"noteNumber":78,"velocity":79,"programNumber":1},{"time":124160.45000000042,"duration":937.0599999999977,"noteNumber":74,"velocity":79,"programNumber":1},{"time":125097.51000000042,"duration":468.52999999999884,"noteNumber":78,"velocity":79,"programNumber":1},{"time":125566.04000000042,"duration":468.52999999999884,"noteNumber":81,"velocity":79,"programNumber":1},{"time":126034.57000000041,"duration":468.52999999999884,"noteNumber":86,"velocity":79,"programNumber":1},{"time":126503.10000000041,"duration":937.0599999999977,"noteNumber":86,"velocity":79,"programNumber":1},{"time":127440.16000000041,"duration":234.26499999999942,"noteNumber":88,"velocity":79,"programNumber":1},{"time":127674.42500000041,"duration":234.26499999999942,"noteNumber":85,"velocity":79,"programNumber":1},{"time":127908.69000000041,"duration":468.52999999999884,"noteNumber":86,"velocity":79,"programNumber":1},{"time":128377.22000000041,"duration":937.0599999999977,"noteNumber":74,"velocity":79,"programNumber":1},{"time":129314.2800000004,"duration":234.26499999999942,"noteNumber":76,"velocity":79,"programNumber":1},{"time":129548.5450000004,"duration":234.26499999999942,"noteNumber":73,"velocity":79,"programNumber":1},{"time":129782.8100000004,"duration":468.52999999999884,"noteNumber":74,"velocity":79,"programNumber":1},{"time":132593.9900000004,"duration":117.13250000000698,"noteNumber":86,"velocity":79,"programNumber":1},{"time":132711.1225000004,"duration":117.13250000000698,"noteNumber":81,"velocity":79,"programNumber":1},{"time":132828.2550000004,"duration":117.13250000000698,"noteNumber":83,"velocity":79,"programNumber":1},{"time":132945.38750000042,"duration":117.13250000000698,"noteNumber":81,"velocity":79,"programNumber":1},{"time":133062.52000000043,"duration":117.13250000000698,"noteNumber":86,"velocity":79,"programNumber":1},{"time":133179.65250000043,"duration":117.13250000000698,"noteNumber":81,"velocity":79,"programNumber":1},{"time":133296.78500000044,"duration":117.13250000000698,"noteNumber":83,"velocity":79,"programNumber":1},{"time":133413.91750000045,"duration":117.13250000000698,"noteNumber":81,"velocity":79,"programNumber":1},{"time":133531.05000000045,"duration":1874.1199999999953,"noteNumber":81,"velocity":79,"programNumber":1},{"time":135405.17000000045,"duration":468.52999999999884,"noteNumber":81,"velocity":79,"programNumber":1},{"time":136342.23000000045,"duration":117.13250000000698,"noteNumber":86,"velocity":79,"programNumber":1},{"time":136459.36250000045,"duration":117.13250000000698,"noteNumber":81,"velocity":79,"programNumber":1},{"time":136576.49500000046,"duration":117.13250000000698,"noteNumber":83,"velocity":79,"programNumber":1},{"time":136693.62750000047,"duration":117.13250000000698,"noteNumber":81,"velocity":79,"programNumber":1},{"time":136810.76000000047,"duration":117.13250000000698,"noteNumber":86,"velocity":79,"programNumber":1},{"time":136927.89250000048,"duration":117.13250000000698,"noteNumber":81,"velocity":79,"programNumber":1},{"time":137045.0250000005,"duration":117.13250000000698,"noteNumber":83,"velocity":79,"programNumber":1},{"time":137162.1575000005,"duration":117.13250000000698,"noteNumber":81,"velocity":79,"programNumber":1},{"time":137279.2900000005,"duration":1874.1199999999953,"noteNumber":81,"velocity":79,"programNumber":1},{"time":139153.4100000005,"duration":117.13250000000698,"noteNumber":81,"velocity":79,"programNumber":1},{"time":139270.5425000005,"duration":117.13250000000698,"noteNumber":74,"velocity":79,"programNumber":1},{"time":139387.6750000005,"duration":117.13250000000698,"noteNumber":73,"velocity":79,"programNumber":1},{"time":139504.80750000052,"duration":117.13250000000698,"noteNumber":74,"velocity":79,"programNumber":1},{"time":139621.94000000053,"duration":117.13250000000698,"noteNumber":72,"velocity":79,"programNumber":1},{"time":139739.07250000053,"duration":117.13250000000698,"noteNumber":74,"velocity":79,"programNumber":1},{"time":139856.20500000054,"duration":117.13250000000698,"noteNumber":71,"velocity":79,"programNumber":1},{"time":139973.33750000055,"duration":117.13250000000698,"noteNumber":74,"velocity":79,"programNumber":1},{"time":140090.47000000055,"duration":117.13250000000698,"noteNumber":69,"velocity":79,"programNumber":1},{"time":140207.60250000056,"duration":117.13250000000698,"noteNumber":74,"velocity":79,"programNumber":1},{"time":140324.73500000057,"duration":117.13250000000698,"noteNumber":71,"velocity":79,"programNumber":1},{"time":140441.86750000058,"duration":117.13250000000698,"noteNumber":74,"velocity":79,"programNumber":1},{"time":140559.00000000058,"duration":117.13250000000698,"noteNumber":72,"velocity":79,"programNumber":1},{"time":140676.1325000006,"duration":117.13250000000698,"noteNumber":74,"velocity":79,"programNumber":1},{"time":140793.2650000006,"duration":117.13250000000698,"noteNumber":69,"velocity":79,"programNumber":1},{"time":140910.3975000006,"duration":117.13250000000698,"noteNumber":74,"velocity":79,"programNumber":1},{"time":141027.5300000006,"duration":468.52999999999884,"noteNumber":71,"velocity":79,"programNumber":1},{"time":142081.72250000061,"duration":117.13250000000698,"noteNumber":71,"velocity":79,"programNumber":1},{"time":142198.85500000062,"duration":117.13250000000698,"noteNumber":72,"velocity":79,"programNumber":1},{"time":142315.98750000063,"duration":117.13250000000698,"noteNumber":74,"velocity":79,"programNumber":1},{"time":142433.12000000064,"duration":117.13250000000698,"noteNumber":76,"velocity":79,"programNumber":1},{"time":142550.25250000064,"duration":117.13250000000698,"noteNumber":78,"velocity":79,"programNumber":1},{"time":142667.38500000065,"duration":117.13250000000698,"noteNumber":79,"velocity":79,"programNumber":1},{"time":142784.51750000066,"duration":117.13250000000698,"noteNumber":81,"velocity":79,"programNumber":1},{"time":142901.65000000066,"duration":937.0599999999977,"noteNumber":83,"velocity":79,"programNumber":1},{"time":143838.71000000066,"duration":468.52999999999884,"noteNumber":81,"velocity":79,"programNumber":1},{"time":144307.24000000066,"duration":468.52999999999884,"noteNumber":79,"velocity":79,"programNumber":1},{"time":144775.77000000066,"duration":702.7950000000128,"noteNumber":78,"velocity":79,"programNumber":1},{"time":145478.56500000067,"duration":234.26500000001397,"noteNumber":79,"velocity":79,"programNumber":1},{"time":145712.8300000007,"duration":468.52999999999884,"noteNumber":78,"velocity":79,"programNumber":1},{"time":146181.36000000068,"duration":468.52999999999884,"noteNumber":76,"velocity":79,"programNumber":1},{"time":146649.89000000068,"duration":468.52999999999884,"noteNumber":74,"velocity":79,"programNumber":1},{"time":148641.1425000007,"duration":117.13250000000698,"noteNumber":67,"velocity":79,"programNumber":1},{"time":148758.2750000007,"duration":117.13250000000698,"noteNumber":69,"velocity":79,"programNumber":1},{"time":148875.4075000007,"duration":117.13250000000698,"noteNumber":71,"velocity":79,"programNumber":1},{"time":148992.5400000007,"duration":117.13250000000698,"noteNumber":72,"velocity":79,"programNumber":1},{"time":149109.6725000007,"duration":117.13250000000698,"noteNumber":74,"velocity":79,"programNumber":1},{"time":149226.80500000072,"duration":117.13250000000698,"noteNumber":76,"velocity":79,"programNumber":1},{"time":149343.93750000073,"duration":117.13250000000698,"noteNumber":78,"velocity":79,"programNumber":1},{"time":149461.07000000073,"duration":117.13250000000698,"noteNumber":79,"velocity":79,"programNumber":1},{"time":149578.20250000074,"duration":117.13250000000698,"noteNumber":74,"velocity":79,"programNumber":1},{"time":149695.33500000075,"duration":117.13250000000698,"noteNumber":76,"velocity":79,"programNumber":1},{"time":149812.46750000076,"duration":117.13250000000698,"noteNumber":78,"velocity":79,"programNumber":1},{"time":149929.60000000076,"duration":117.13250000000698,"noteNumber":79,"velocity":79,"programNumber":1},{"time":150046.73250000077,"duration":117.13250000000698,"noteNumber":81,"velocity":79,"programNumber":1},{"time":150163.86500000078,"duration":117.13250000000698,"noteNumber":83,"velocity":79,"programNumber":1},{"time":150280.99750000078,"duration":117.13250000000698,"noteNumber":84,"velocity":79,"programNumber":1},{"time":150398.1300000008,"duration":937.0599999999977,"noteNumber":86,"velocity":79,"programNumber":1},{"time":151335.1900000008,"duration":468.52999999999884,"noteNumber":85,"velocity":79,"programNumber":1},{"time":151803.7200000008,"duration":468.52999999999884,"noteNumber":83,"velocity":79,"programNumber":1},{"time":152272.2500000008,"duration":702.7950000000128,"noteNumber":81,"velocity":79,"programNumber":1},{"time":152975.0450000008,"duration":234.26500000001397,"noteNumber":83,"velocity":79,"programNumber":1},{"time":153209.3100000008,"duration":468.52999999999884,"noteNumber":74,"velocity":79,"programNumber":1},{"time":153677.8400000008,"duration":468.52999999999884,"noteNumber":73,"velocity":79,"programNumber":1},{"time":154146.3700000008,"duration":468.52999999999884,"noteNumber":74,"velocity":79,"programNumber":1},{"time":154614.9000000008,"duration":937.0599999999977,"noteNumber":62,"velocity":79,"programNumber":1},{"time":155551.9600000008,"duration":468.52999999999884,"noteNumber":67,"velocity":79,"programNumber":1},{"time":156020.4900000008,"duration":468.52999999999884,"noteNumber":66,"velocity":79,"programNumber":1},{"time":156489.0200000008,"duration":117.13250000000698,"noteNumber":73,"velocity":79,"programNumber":1},{"time":156606.1525000008,"duration":117.13250000000698,"noteNumber":71,"velocity":79,"programNumber":1},{"time":156723.28500000082,"duration":117.13250000000698,"noteNumber":69,"velocity":79,"programNumber":1},{"time":156840.41750000083,"duration":117.13250000000698,"noteNumber":67,"velocity":79,"programNumber":1},{"time":156957.55000000083,"duration":234.26500000001397,"noteNumber":69,"velocity":79,"programNumber":1},{"time":157191.81500000085,"duration":234.26500000001397,"noteNumber":66,"velocity":79,"programNumber":1},{"time":157426.08000000086,"duration":468.52999999999884,"noteNumber":67,"velocity":79,"programNumber":1},{"time":157894.61000000086,"duration":468.52999999999884,"noteNumber":66,"velocity":79,"programNumber":1},{"time":158363.14000000086,"duration":468.52999999999884,"noteNumber":69,"velocity":79,"programNumber":1},{"time":158831.67000000086,"duration":468.52999999999884,"noteNumber":69,"velocity":79,"programNumber":1},{"time":159768.73000000085,"duration":468.52999999999884,"noteNumber":71,"velocity":79,"programNumber":1},{"time":160237.26000000085,"duration":58.56625000000349,"noteNumber":72,"velocity":79,"programNumber":1},{"time":160295.82625000086,"duration":58.56625000000349,"noteNumber":71,"velocity":79,"programNumber":1},{"time":160354.39250000086,"duration":117.13250000000698,"noteNumber":69,"velocity":79,"programNumber":1},{"time":160471.52500000087,"duration":117.13250000000698,"noteNumber":71,"velocity":79,"programNumber":1},{"time":160588.65750000087,"duration":117.13250000000698,"noteNumber":72,"velocity":79,"programNumber":1},{"time":160705.79000000088,"duration":234.26500000001397,"noteNumber":71,"velocity":79,"programNumber":1},{"time":160940.0550000009,"duration":234.26500000001397,"noteNumber":71,"velocity":79,"programNumber":1},{"time":161174.3200000009,"duration":234.26500000001397,"noteNumber":69,"velocity":79,"programNumber":1},{"time":161408.58500000092,"duration":234.26500000001397,"noteNumber":72,"velocity":79,"programNumber":1},{"time":161642.85000000094,"duration":234.26500000001397,"noteNumber":71,"velocity":79,"programNumber":1},{"time":161877.11500000095,"duration":234.26500000001397,"noteNumber":67,"velocity":79,"programNumber":1},{"time":162111.38000000097,"duration":234.26500000001397,"noteNumber":66,"velocity":79,"programNumber":1},{"time":162345.64500000098,"duration":234.26500000001397,"noteNumber":69,"velocity":79,"programNumber":1},{"time":162579.910000001,"duration":234.26500000001397,"noteNumber":67,"velocity":79,"programNumber":1},{"time":163516.97000000102,"duration":937.0599999999977,"noteNumber":71,"velocity":79,"programNumber":1},{"time":164454.03000000102,"duration":937.0599999999977,"noteNumber":74,"velocity":79,"programNumber":1},{"time":165391.09000000102,"duration":234.26500000001397,"noteNumber":72,"velocity":79,"programNumber":1},{"time":165625.35500000103,"duration":234.26500000001397,"noteNumber":71,"velocity":79,"programNumber":1},{"time":165859.62000000104,"duration":234.26500000001397,"noteNumber":69,"velocity":79,"programNumber":1},{"time":166093.88500000106,"duration":234.26500000001397,"noteNumber":67,"velocity":79,"programNumber":1},{"time":166328.15000000107,"duration":468.52999999999884,"noteNumber":74,"velocity":79,"programNumber":1},{"time":166796.68000000107,"duration":468.52999999999884,"noteNumber":62,"velocity":79,"programNumber":1},{"time":167265.21000000107,"duration":468.52999999999884,"noteNumber":67,"velocity":79,"programNumber":1},{"time":167733.74000000107,"duration":58.56625000000349,"noteNumber":72,"velocity":79,"programNumber":1},{"time":167792.30625000107,"duration":58.56625000000349,"noteNumber":71,"velocity":79,"programNumber":1},{"time":167850.87250000107,"duration":117.13250000000698,"noteNumber":69,"velocity":79,"programNumber":1},{"time":167968.00500000108,"duration":117.13250000000698,"noteNumber":71,"velocity":79,"programNumber":1},{"time":168085.1375000011,"duration":117.13250000000698,"noteNumber":72,"velocity":79,"programNumber":1},{"time":168202.2700000011,"duration":234.26500000001397,"noteNumber":71,"velocity":79,"programNumber":1},{"time":168436.5350000011,"duration":234.26500000001397,"noteNumber":71,"velocity":79,"programNumber":1},{"time":168670.80000000112,"duration":234.26500000001397,"noteNumber":69,"velocity":79,"programNumber":1},{"time":168905.06500000114,"duration":234.26500000001397,"noteNumber":72,"velocity":79,"programNumber":1},{"time":169139.33000000115,"duration":234.26500000001397,"noteNumber":71,"velocity":79,"programNumber":1},{"time":169373.59500000117,"duration":234.26500000001397,"noteNumber":67,"velocity":79,"programNumber":1},{"time":169607.86000000118,"duration":234.26500000001397,"noteNumber":66,"velocity":79,"programNumber":1},{"time":169842.1250000012,"duration":234.26500000001397,"noteNumber":69,"velocity":79,"programNumber":1},{"time":170076.3900000012,"duration":234.26500000001397,"noteNumber":67,"velocity":79,"programNumber":1},{"time":171013.45000000123,"duration":937.0599999999977,"noteNumber":71,"velocity":79,"programNumber":1},{"time":171950.51000000123,"duration":937.0599999999977,"noteNumber":74,"velocity":79,"programNumber":1},{"time":172887.57000000123,"duration":234.26500000001397,"noteNumber":72,"velocity":79,"programNumber":1},{"time":173121.83500000124,"duration":234.26500000001397,"noteNumber":71,"velocity":79,"programNumber":1},{"time":173356.10000000126,"duration":234.26500000001397,"noteNumber":69,"velocity":79,"programNumber":1},{"time":173590.36500000127,"duration":234.26500000001397,"noteNumber":67,"velocity":79,"programNumber":1},{"time":173824.63000000129,"duration":468.52999999999884,"noteNumber":74,"velocity":79,"programNumber":1},{"time":174293.16000000128,"duration":468.52999999999884,"noteNumber":62,"velocity":79,"programNumber":1},{"time":174761.69000000128,"duration":117.13250000000698,"noteNumber":67,"velocity":79,"programNumber":1},{"time":174878.8225000013,"duration":117.13250000000698,"noteNumber":62,"velocity":79,"programNumber":1},{"time":174995.9550000013,"duration":117.13250000000698,"noteNumber":62,"velocity":79,"programNumber":1},{"time":175113.0875000013,"duration":117.13250000000698,"noteNumber":62,"velocity":79,"programNumber":1},{"time":175230.2200000013,"duration":117.13250000000698,"noteNumber":62,"velocity":79,"programNumber":1},{"time":175347.35250000132,"duration":117.13250000000698,"noteNumber":62,"velocity":79,"programNumber":1},{"time":175464.48500000132,"duration":117.13250000000698,"noteNumber":62,"velocity":79,"programNumber":1},{"time":175581.61750000133,"duration":117.13250000000698,"noteNumber":62,"velocity":79,"programNumber":1},{"time":175698.75000000134,"duration":937.0599999999977,"noteNumber":62,"velocity":79,"programNumber":4},{"time":176635.81000000134,"duration":937.0599999999977,"noteNumber":62,"velocity":79,"programNumber":4},{"time":177572.87000000133,"duration":937.0599999999977,"noteNumber":66,"velocity":79,"programNumber":4},{"time":178509.93000000133,"duration":117.13250000000698,"noteNumber":67,"velocity":79,"programNumber":1},{"time":178627.06250000134,"duration":117.13250000000698,"noteNumber":62,"velocity":79,"programNumber":1},{"time":178744.19500000135,"duration":117.13250000000698,"noteNumber":62,"velocity":79,"programNumber":1},{"time":178861.32750000135,"duration":117.13250000000698,"noteNumber":62,"velocity":79,"programNumber":1},{"time":178978.46000000136,"duration":117.13250000000698,"noteNumber":62,"velocity":79,"programNumber":1},{"time":179095.59250000137,"duration":117.13250000000698,"noteNumber":62,"velocity":79,"programNumber":1},{"time":179212.72500000137,"duration":117.13250000000698,"noteNumber":62,"velocity":79,"programNumber":1},{"time":179329.85750000138,"duration":117.13250000000698,"noteNumber":62,"velocity":79,"programNumber":1},{"time":179446.9900000014,"duration":937.0599999999977,"noteNumber":62,"velocity":79,"programNumber":4},{"time":180384.05000000139,"duration":937.0599999999977,"noteNumber":62,"velocity":79,"programNumber":4},{"time":181321.11000000138,"duration":937.0599999999977,"noteNumber":66,"velocity":79,"programNumber":4},{"time":182258.17000000138,"duration":234.26500000001397,"noteNumber":67,"velocity":79,"programNumber":1},{"time":182492.4350000014,"duration":234.26500000001397,"noteNumber":55,"velocity":79,"programNumber":1},{"time":182726.7000000014,"duration":234.26500000001397,"noteNumber":57,"velocity":79,"programNumber":1},{"time":182960.96500000142,"duration":234.26500000001397,"noteNumber":59,"velocity":79,"programNumber":1},{"time":183195.23000000144,"duration":234.26500000001397,"noteNumber":60,"velocity":79,"programNumber":1},{"time":183429.49500000145,"duration":234.26500000001397,"noteNumber":62,"velocity":79,"programNumber":1},{"time":183663.76000000146,"duration":234.26500000001397,"noteNumber":64,"velocity":79,"programNumber":1},{"time":183898.02500000148,"duration":234.26500000001397,"noteNumber":66,"velocity":79,"programNumber":1},{"time":184132.2900000015,"duration":234.26500000001397,"noteNumber":67,"velocity":79,"programNumber":1},{"time":184366.5550000015,"duration":234.26500000001397,"noteNumber":66,"velocity":79,"programNumber":1},{"time":184600.82000000152,"duration":234.26500000001397,"noteNumber":64,"velocity":79,"programNumber":1},{"time":184835.08500000153,"duration":234.26500000001397,"noteNumber":62,"velocity":79,"programNumber":1},{"time":185069.35000000155,"duration":234.26500000001397,"noteNumber":60,"velocity":79,"programNumber":1},{"time":185303.61500000156,"duration":234.26500000001397,"noteNumber":59,"velocity":79,"programNumber":1},{"time":185537.88000000158,"duration":234.26500000001397,"noteNumber":57,"velocity":79,"programNumber":1},{"time":185772.1450000016,"duration":234.26500000001397,"noteNumber":55,"velocity":79,"programNumber":1},{"time":186006.4100000016,"duration":468.52999999999884,"noteNumber":62,"velocity":79,"programNumber":1},{"time":186474.9400000016,"duration":468.52999999999884,"noteNumber":78,"velocity":79,"programNumber":1},{"time":186943.4700000016,"duration":468.52999999999884,"noteNumber":78,"velocity":79,"programNumber":1},{"time":189754.6500000016,"duration":937.0599999999977,"noteNumber":74,"velocity":79,"programNumber":1},{"time":190691.7100000016,"duration":468.52999999999884,"noteNumber":78,"velocity":79,"programNumber":1},{"time":191160.2400000016,"duration":468.52999999999884,"noteNumber":81,"velocity":79,"programNumber":1},{"time":191628.7700000016,"duration":468.52999999999884,"noteNumber":86,"velocity":79,"programNumber":1},{"time":192097.3000000016,"duration":937.0599999999977,"noteNumber":86,"velocity":79,"programNumber":1},{"time":193034.3600000016,"duration":234.26500000001397,"noteNumber":88,"velocity":79,"programNumber":1},{"time":193268.6250000016,"duration":234.26500000001397,"noteNumber":85,"velocity":79,"programNumber":1},{"time":193502.89000000161,"duration":468.52999999999884,"noteNumber":86,"velocity":79,"programNumber":1},{"time":193971.4200000016,"duration":937.0599999999977,"noteNumber":74,"velocity":79,"programNumber":1},{"time":194908.4800000016,"duration":234.26500000001397,"noteNumber":76,"velocity":79,"programNumber":1},{"time":195142.74500000163,"duration":234.26500000001397,"noteNumber":73,"velocity":79,"programNumber":1},{"time":195377.01000000164,"duration":468.52999999999884,"noteNumber":74,"velocity":79,"programNumber":1},{"time":198188.19000000163,"duration":117.13250000000698,"noteNumber":86,"velocity":79,"programNumber":1},{"time":198305.32250000164,"duration":117.13250000000698,"noteNumber":81,"velocity":79,"programNumber":1},{"time":198422.45500000165,"duration":117.13250000000698,"noteNumber":83,"velocity":79,"programNumber":1},{"time":198539.58750000165,"duration":117.13250000000698,"noteNumber":81,"velocity":79,"programNumber":1},{"time":198656.72000000166,"duration":117.13250000000698,"noteNumber":86,"velocity":79,"programNumber":1},{"time":198773.85250000167,"duration":117.13250000000698,"noteNumber":81,"velocity":79,"programNumber":1},{"time":198890.98500000167,"duration":117.13250000000698,"noteNumber":83,"velocity":79,"programNumber":1},{"time":199008.11750000168,"duration":117.13250000000698,"noteNumber":81,"velocity":79,"programNumber":1},{"time":199125.2500000017,"duration":1874.1199999999953,"noteNumber":81,"velocity":79,"programNumber":1},{"time":200999.37000000168,"duration":468.52999999999884,"noteNumber":81,"velocity":79,"programNumber":1},{"time":201936.43000000168,"duration":117.13250000000698,"noteNumber":86,"velocity":79,"programNumber":1},{"time":202053.5625000017,"duration":117.13250000000698,"noteNumber":81,"velocity":79,"programNumber":1},{"time":202170.6950000017,"duration":117.13250000000698,"noteNumber":83,"velocity":79,"programNumber":1},{"time":202287.8275000017,"duration":117.13250000000698,"noteNumber":81,"velocity":79,"programNumber":1},{"time":202404.9600000017,"duration":117.13250000000698,"noteNumber":86,"velocity":79,"programNumber":1},{"time":202522.09250000172,"duration":117.13250000000698,"noteNumber":81,"velocity":79,"programNumber":1},{"time":202639.22500000172,"duration":117.13250000000698,"noteNumber":83,"velocity":79,"programNumber":1},{"time":202756.35750000173,"duration":117.13250000000698,"noteNumber":81,"velocity":79,"programNumber":1},{"time":202873.49000000174,"duration":1874.1199999999953,"noteNumber":81,"velocity":79,"programNumber":1},{"time":204747.61000000173,"duration":117.13250000000698,"noteNumber":81,"velocity":79,"programNumber":1},{"time":204864.74250000174,"duration":117.13250000000698,"noteNumber":74,"velocity":79,"programNumber":1},{"time":204981.87500000175,"duration":117.13250000000698,"noteNumber":73,"velocity":79,"programNumber":1},{"time":205099.00750000175,"duration":117.13250000000698,"noteNumber":74,"velocity":79,"programNumber":1},{"time":205216.14000000176,"duration":117.13250000000698,"noteNumber":72,"velocity":79,"programNumber":1},{"time":205333.27250000177,"duration":117.13250000000698,"noteNumber":74,"velocity":79,"programNumber":1},{"time":205450.40500000177,"duration":117.13250000000698,"noteNumber":71,"velocity":79,"programNumber":1},{"time":205567.53750000178,"duration":117.13250000000698,"noteNumber":74,"velocity":79,"programNumber":1},{"time":205684.6700000018,"duration":117.13250000000698,"noteNumber":69,"velocity":79,"programNumber":1},{"time":205801.8025000018,"duration":117.13250000000698,"noteNumber":74,"velocity":79,"programNumber":1},{"time":205918.9350000018,"duration":117.13250000000698,"noteNumber":71,"velocity":79,"programNumber":1},{"time":206036.0675000018,"duration":117.13250000000698,"noteNumber":74,"velocity":79,"programNumber":1},{"time":206153.20000000182,"duration":117.13250000000698,"noteNumber":72,"velocity":79,"programNumber":1},{"time":206270.33250000182,"duration":117.13250000000698,"noteNumber":74,"velocity":79,"programNumber":1},{"time":206387.46500000183,"duration":117.13250000000698,"noteNumber":69,"velocity":79,"programNumber":1},{"time":206504.59750000184,"duration":117.13250000000698,"noteNumber":74,"velocity":79,"programNumber":1},{"time":206621.73000000184,"duration":468.52999999999884,"noteNumber":71,"velocity":79,"programNumber":1},{"time":207675.92250000185,"duration":117.13250000000698,"noteNumber":71,"velocity":79,"programNumber":1},{"time":207793.05500000186,"duration":117.13250000000698,"noteNumber":72,"velocity":79,"programNumber":1},{"time":207910.18750000186,"duration":117.13250000000698,"noteNumber":74,"velocity":79,"programNumber":1},{"time":208027.32000000187,"duration":117.13250000000698,"noteNumber":76,"velocity":79,"programNumber":1},{"time":208144.45250000188,"duration":117.13250000000698,"noteNumber":78,"velocity":79,"programNumber":1},{"time":208261.58500000188,"duration":117.13250000000698,"noteNumber":79,"velocity":79,"programNumber":1},{"time":208378.7175000019,"duration":117.13250000000698,"noteNumber":81,"velocity":79,"programNumber":1},{"time":208495.8500000019,"duration":937.0599999999977,"noteNumber":83,"velocity":79,"programNumber":1},{"time":209432.9100000019,"duration":468.52999999999884,"noteNumber":81,"velocity":79,"programNumber":1},{"time":209901.4400000019,"duration":468.52999999999884,"noteNumber":79,"velocity":79,"programNumber":1},{"time":210369.9700000019,"duration":702.7950000000128,"noteNumber":78,"velocity":79,"programNumber":1},{"time":211072.7650000019,"duration":234.26500000001397,"noteNumber":79,"velocity":79,"programNumber":1},{"time":211307.03000000192,"duration":468.52999999999884,"noteNumber":78,"velocity":79,"programNumber":1},{"time":211775.56000000192,"duration":468.52999999999884,"noteNumber":76,"velocity":79,"programNumber":1},{"time":212244.09000000192,"duration":468.52999999999884,"noteNumber":74,"velocity":79,"programNumber":1},{"time":214235.34250000192,"duration":117.13250000000698,"noteNumber":67,"velocity":79,"programNumber":1},{"time":214352.47500000193,"duration":117.13250000000698,"noteNumber":69,"velocity":79,"programNumber":1},{"time":214469.60750000193,"duration":117.13250000000698,"noteNumber":71,"velocity":79,"programNumber":1},{"time":214586.74000000194,"duration":117.13250000000698,"noteNumber":72,"velocity":79,"programNumber":1},{"time":214703.87250000195,"duration":117.13250000000698,"noteNumber":74,"velocity":79,"programNumber":1},{"time":214821.00500000195,"duration":117.13250000000698,"noteNumber":76,"velocity":79,"programNumber":1},{"time":214938.13750000196,"duration":117.13250000000698,"noteNumber":78,"velocity":79,"programNumber":1},{"time":215055.27000000197,"duration":117.13250000000698,"noteNumber":79,"velocity":79,"programNumber":1},{"time":215172.40250000198,"duration":117.13250000000698,"noteNumber":74,"velocity":79,"programNumber":1},{"time":215289.53500000198,"duration":117.13250000000698,"noteNumber":76,"velocity":79,"programNumber":1},{"time":215406.667500002,"duration":117.13250000000698,"noteNumber":78,"velocity":79,"programNumber":1},{"time":215523.800000002,"duration":117.13250000000698,"noteNumber":79,"velocity":79,"programNumber":1},{"time":215640.932500002,"duration":117.13250000000698,"noteNumber":81,"velocity":79,"programNumber":1},{"time":215758.065000002,"duration":117.13250000000698,"noteNumber":83,"velocity":79,"programNumber":1},{"time":215875.19750000202,"duration":117.13250000000698,"noteNumber":84,"velocity":79,"programNumber":1},{"time":215992.33000000202,"duration":937.0599999999977,"noteNumber":86,"velocity":79,"programNumber":1},{"time":216929.39000000202,"duration":468.52999999999884,"noteNumber":85,"velocity":79,"programNumber":1},{"time":217397.92000000202,"duration":468.52999999999884,"noteNumber":83,"velocity":79,"programNumber":1},{"time":217866.45000000202,"duration":702.7950000000128,"noteNumber":81,"velocity":79,"programNumber":1},{"time":218569.24500000203,"duration":234.26500000001397,"noteNumber":83,"velocity":79,"programNumber":1},{"time":218803.51000000205,"duration":468.52999999999884,"noteNumber":74,"velocity":79,"programNumber":1},{"time":219272.04000000205,"duration":468.52999999999884,"noteNumber":73,"velocity":79,"programNumber":1},{"time":219740.57000000204,"duration":468.52999999999884,"noteNumber":74,"velocity":79,"programNumber":1},{"time":220209.10000000204,"duration":937.0599999999977,"noteNumber":62,"velocity":79,"programNumber":1},{"time":221146.16000000204,"duration":468.52999999999884,"noteNumber":67,"velocity":79,"programNumber":1},{"time":221614.69000000204,"duration":468.52999999999884,"noteNumber":66,"velocity":79,"programNumber":1},{"time":222083.22000000204,"duration":117.13250000000698,"noteNumber":73,"velocity":79,"programNumber":1},{"time":222200.35250000205,"duration":117.13250000000698,"noteNumber":71,"velocity":79,"programNumber":1},{"time":222317.48500000205,"duration":117.13250000000698,"noteNumber":69,"velocity":79,"programNumber":1},{"time":222434.61750000206,"duration":117.13250000000698,"noteNumber":67,"velocity":79,"programNumber":1},{"time":222551.75000000207,"duration":234.26500000001397,"noteNumber":69,"velocity":79,"programNumber":1},{"time":222786.01500000208,"duration":234.26500000001397,"noteNumber":66,"velocity":79,"programNumber":1},{"time":223020.2800000021,"duration":468.52999999999884,"noteNumber":67,"velocity":79,"programNumber":1},{"time":223488.8100000021,"duration":468.52999999999884,"noteNumber":66,"velocity":79,"programNumber":1},{"time":223957.3400000021,"duration":468.52999999999884,"noteNumber":69,"velocity":79,"programNumber":1},{"time":224425.8700000021,"duration":468.52999999999884,"noteNumber":69,"velocity":79,"programNumber":1},{"time":229111.17000000208,"duration":1874.1199999999953,"noteNumber":74,"velocity":79,"programNumber":1},{"time":230985.29000000207,"duration":1874.1199999999953,"noteNumber":76,"velocity":79,"programNumber":1},{"time":232859.41000000207,"duration":937.0599999999977,"noteNumber":76,"velocity":79,"programNumber":1},{"time":233796.47000000207,"duration":937.0599999999977,"noteNumber":74,"velocity":79,"programNumber":1},{"time":234733.53000000207,"duration":937.0599999999977,"noteNumber":74,"velocity":79,"programNumber":1},{"time":235670.59000000206,"duration":937.0599999999977,"noteNumber":73,"velocity":79,"programNumber":1},{"time":236607.65000000206,"duration":234.26500000001397,"noteNumber":74,"velocity":79,"programNumber":1},{"time":236841.91500000207,"duration":234.26500000001397,"noteNumber":76,"velocity":79,"programNumber":1},{"time":237076.1800000021,"duration":234.26500000001397,"noteNumber":74,"velocity":79,"programNumber":1},{"time":237310.4450000021,"duration":234.26500000001397,"noteNumber":72,"velocity":79,"programNumber":1},{"time":237544.71000000212,"duration":234.26500000001397,"noteNumber":71,"velocity":79,"programNumber":1},{"time":237778.97500000213,"duration":234.26500000001397,"noteNumber":69,"velocity":79,"programNumber":1},{"time":238013.24000000214,"duration":234.26500000001397,"noteNumber":67,"velocity":79,"programNumber":1},{"time":238247.50500000216,"duration":234.26500000001397,"noteNumber":66,"velocity":79,"programNumber":1},{"time":238481.77000000217,"duration":234.26500000001397,"noteNumber":67,"velocity":79,"programNumber":1},{"time":238716.0350000022,"duration":234.26500000001397,"noteNumber":69,"velocity":79,"programNumber":1},{"time":238950.3000000022,"duration":234.26500000001397,"noteNumber":71,"velocity":79,"programNumber":1},{"time":239184.5650000022,"duration":234.26500000001397,"noteNumber":72,"velocity":79,"programNumber":1},{"time":239418.83000000223,"duration":234.26500000001397,"noteNumber":74,"velocity":79,"programNumber":1},{"time":239653.09500000224,"duration":234.26500000001397,"noteNumber":76,"velocity":79,"programNumber":1},{"time":239887.36000000226,"duration":234.26500000001397,"noteNumber":78,"velocity":79,"programNumber":1},{"time":240121.62500000227,"duration":234.26500000001397,"noteNumber":79,"velocity":79,"programNumber":1},{"time":240355.89000000228,"duration":234.26500000001397,"noteNumber":79,"velocity":79,"programNumber":1},{"time":240590.1550000023,"duration":234.26500000001397,"noteNumber":76,"velocity":79,"programNumber":1},{"time":240824.4200000023,"duration":234.26500000001397,"noteNumber":81,"velocity":79,"programNumber":1},{"time":241058.68500000233,"duration":234.26500000001397,"noteNumber":79,"velocity":79,"programNumber":1},{"time":241292.95000000234,"duration":937.0599999999977,"noteNumber":78,"velocity":79,"programNumber":1},{"time":242230.01000000234,"duration":234.26500000001397,"noteNumber":78,"velocity":79,"programNumber":1},{"time":242464.27500000235,"duration":234.26500000001397,"noteNumber":74,"velocity":79,"programNumber":1},{"time":242698.54000000237,"duration":234.26500000001397,"noteNumber":79,"velocity":79,"programNumber":1},{"time":242932.80500000238,"duration":234.26500000001397,"noteNumber":78,"velocity":79,"programNumber":1},{"time":243167.0700000024,"duration":234.26500000001397,"noteNumber":76,"velocity":79,"programNumber":1},{"time":243401.3350000024,"duration":234.26500000001397,"noteNumber":74,"velocity":79,"programNumber":1},{"time":243635.60000000242,"duration":234.26500000001397,"noteNumber":72,"velocity":79,"programNumber":1},{"time":243869.86500000244,"duration":234.26500000001397,"noteNumber":71,"velocity":79,"programNumber":1},{"time":244104.13000000245,"duration":234.26500000001397,"noteNumber":71,"velocity":79,"programNumber":1},{"time":244338.39500000246,"duration":234.26500000001397,"noteNumber":67,"velocity":79,"programNumber":1},{"time":244572.66000000248,"duration":234.26500000001397,"noteNumber":72,"velocity":79,"programNumber":1},{"time":244806.9250000025,"duration":234.26500000001397,"noteNumber":71,"velocity":79,"programNumber":1},{"time":245041.1900000025,"duration":234.26500000001397,"noteNumber":69,"velocity":79,"programNumber":1},{"time":245275.45500000252,"duration":234.26500000001397,"noteNumber":71,"velocity":79,"programNumber":1},{"time":245509.72000000253,"duration":234.26500000001397,"noteNumber":69,"velocity":79,"programNumber":1},{"time":245743.98500000255,"duration":234.26500000001397,"noteNumber":67,"velocity":79,"programNumber":1},{"time":245978.25000000256,"duration":468.52999999999884,"noteNumber":66,"velocity":79,"programNumber":1},{"time":246681.04500000257,"duration":234.26500000001397,"noteNumber":69,"velocity":79,"programNumber":1},{"time":246915.3100000026,"duration":234.26500000001397,"noteNumber":69,"velocity":79,"programNumber":1},{"time":247149.5750000026,"duration":234.26500000001397,"noteNumber":67,"velocity":79,"programNumber":1},{"time":247618.10500000263,"duration":234.26500000001397,"noteNumber":71,"velocity":79,"programNumber":1},{"time":247852.37000000264,"duration":468.52999999999884,"noteNumber":69,"velocity":79,"programNumber":1},{"time":248555.16500000266,"duration":234.26500000001397,"noteNumber":69,"velocity":79,"programNumber":1},{"time":248789.43000000267,"duration":234.26500000001397,"noteNumber":69,"velocity":79,"programNumber":1},{"time":249023.69500000268,"duration":234.26500000001397,"noteNumber":67,"velocity":79,"programNumber":1},{"time":249492.2250000027,"duration":234.26500000001397,"noteNumber":71,"velocity":79,"programNumber":1},{"time":249726.49000000273,"duration":468.52999999999884,"noteNumber":69,"velocity":79,"programNumber":1},{"time":250195.02000000273,"duration":468.52999999999884,"noteNumber":69,"velocity":79,"programNumber":1},{"time":250663.55000000272,"duration":468.52999999999884,"noteNumber":69,"velocity":79,"programNumber":1},{"time":251600.61000000272,"duration":468.52999999999884,"noteNumber":71,"velocity":79,"programNumber":1},{"time":252069.14000000272,"duration":58.56625000000349,"noteNumber":72,"velocity":79,"programNumber":1},{"time":252127.70625000272,"duration":58.56625000000349,"noteNumber":71,"velocity":79,"programNumber":1},{"time":252186.27250000273,"duration":117.13250000000698,"noteNumber":69,"velocity":79,"programNumber":1},{"time":252303.40500000273,"duration":117.13250000000698,"noteNumber":71,"velocity":79,"programNumber":1},{"time":252420.53750000274,"duration":117.13250000000698,"noteNumber":72,"velocity":79,"programNumber":1},{"time":252537.67000000275,"duration":234.26500000001397,"noteNumber":71,"velocity":79,"programNumber":1},{"time":252771.93500000276,"duration":234.26500000001397,"noteNumber":71,"velocity":79,"programNumber":1},{"time":253006.20000000278,"duration":234.26500000001397,"noteNumber":69,"velocity":79,"programNumber":1},{"time":253240.4650000028,"duration":234.26500000001397,"noteNumber":72,"velocity":79,"programNumber":1},{"time":253474.7300000028,"duration":234.26500000001397,"noteNumber":71,"velocity":79,"programNumber":1},{"time":253708.99500000282,"duration":234.26500000001397,"noteNumber":67,"velocity":79,"programNumber":1},{"time":253943.26000000283,"duration":234.26500000001397,"noteNumber":66,"velocity":79,"programNumber":1},{"time":254177.52500000285,"duration":234.26500000001397,"noteNumber":69,"velocity":79,"programNumber":1},{"time":254411.79000000286,"duration":234.26500000001397,"noteNumber":67,"velocity":79,"programNumber":1},{"time":255348.8500000029,"duration":937.0599999999977,"noteNumber":71,"velocity":79,"programNumber":1},{"time":256285.91000000288,"duration":937.0599999999977,"noteNumber":74,"velocity":79,"programNumber":1},{"time":257222.97000000288,"duration":234.26500000001397,"noteNumber":72,"velocity":79,"programNumber":1},{"time":257457.2350000029,"duration":234.26500000001397,"noteNumber":71,"velocity":79,"programNumber":1},{"time":257691.5000000029,"duration":234.26500000001397,"noteNumber":69,"velocity":79,"programNumber":1},{"time":257925.76500000292,"duration":234.26500000001397,"noteNumber":67,"velocity":79,"programNumber":1},{"time":258160.03000000294,"duration":468.52999999999884,"noteNumber":74,"velocity":79,"programNumber":1},{"time":258628.56000000294,"duration":468.52999999999884,"noteNumber":62,"velocity":79,"programNumber":1},{"time":259097.09000000294,"duration":468.52999999999884,"noteNumber":55,"velocity":79,"programNumber":1},{"time":259565.62000000293,"duration":117.13250000000698,"noteNumber":71,"velocity":79,"programNumber":1},{"time":259682.75250000294,"duration":117.13250000000698,"noteNumber":69,"velocity":79,"programNumber":1},{"time":259799.88500000295,"duration":117.13250000000698,"noteNumber":71,"velocity":79,"programNumber":1},{"time":259917.01750000296,"duration":117.13250000000698,"noteNumber":72,"velocity":79,"programNumber":1},{"time":260034.15000000296,"duration":234.26500000001397,"noteNumber":71,"velocity":79,"programNumber":1},{"time":260268.41500000298,"duration":234.26500000001397,"noteNumber":71,"velocity":79,"programNumber":1},{"time":260502.680000003,"duration":234.26500000001397,"noteNumber":69,"velocity":79,"programNumber":1},{"time":260736.945000003,"duration":234.26500000001397,"noteNumber":72,"velocity":79,"programNumber":1},{"time":260971.21000000302,"duration":234.26500000001397,"noteNumber":71,"velocity":79,"programNumber":1},{"time":261205.47500000303,"duration":234.26500000001397,"noteNumber":67,"velocity":79,"programNumber":1},{"time":261439.74000000305,"duration":234.26500000001397,"noteNumber":66,"velocity":79,"programNumber":1},{"time":261674.00500000306,"duration":234.26500000001397,"noteNumber":69,"velocity":79,"programNumber":1},{"time":261908.27000000307,"duration":234.26500000001397,"noteNumber":67,"velocity":79,"programNumber":1},{"time":262845.3300000031,"duration":937.0599999999977,"noteNumber":71,"velocity":79,"programNumber":1},{"time":263782.3900000031,"duration":937.0599999999977,"noteNumber":74,"velocity":79,"programNumber":1},{"time":264719.4500000031,"duration":58.56624999997439,"noteNumber":72,"velocity":79,"programNumber":1},{"time":264778.0162500031,"duration":58.56624999997439,"noteNumber":71,"velocity":79,"programNumber":1},{"time":264836.58250000305,"duration":351.39750000002095,"noteNumber":71,"velocity":79,"programNumber":1},{"time":265187.98000000307,"duration":234.26500000001397,"noteNumber":69,"velocity":79,"programNumber":1},{"time":265422.2450000031,"duration":234.26500000001397,"noteNumber":67,"velocity":79,"programNumber":1},{"time":265656.5100000031,"duration":468.53000000002794,"noteNumber":74,"velocity":79,"programNumber":1},{"time":266125.0400000031,"duration":468.53000000002794,"noteNumber":62,"velocity":79,"programNumber":1},{"time":266593.57000000315,"duration":117.13250000000698,"noteNumber":67,"velocity":79,"programNumber":1},{"time":266710.70250000316,"duration":117.13250000000698,"noteNumber":62,"velocity":79,"programNumber":1},{"time":266827.83500000316,"duration":117.13250000000698,"noteNumber":62,"velocity":79,"programNumber":1},{"time":266944.9675000032,"duration":117.13250000000698,"noteNumber":62,"velocity":79,"programNumber":1},{"time":267062.1000000032,"duration":117.13250000000698,"noteNumber":62,"velocity":79,"programNumber":1},{"time":267179.2325000032,"duration":117.13250000000698,"noteNumber":62,"velocity":79,"programNumber":1},{"time":267296.3650000032,"duration":117.13250000000698,"noteNumber":62,"velocity":79,"programNumber":1},{"time":267413.4975000032,"duration":117.13250000000698,"noteNumber":62,"velocity":79,"programNumber":1},{"time":267530.6300000032,"duration":937.0599999999977,"noteNumber":62,"velocity":79,"programNumber":1},{"time":268467.6900000032,"duration":937.0599999999977,"noteNumber":62,"velocity":79,"programNumber":1},{"time":269404.7500000032,"duration":937.0599999999977,"noteNumber":66,"velocity":79,"programNumber":1},{"time":270341.8100000032,"duration":117.13250000000698,"noteNumber":67,"velocity":79,"programNumber":1},{"time":270458.9425000032,"duration":117.13250000000698,"noteNumber":62,"velocity":79,"programNumber":1},{"time":270576.0750000032,"duration":117.13250000000698,"noteNumber":62,"velocity":79,"programNumber":1},{"time":270693.2075000032,"duration":117.13250000000698,"noteNumber":62,"velocity":79,"programNumber":1},{"time":270810.3400000032,"duration":117.13250000000698,"noteNumber":62,"velocity":79,"programNumber":1},{"time":270927.47250000323,"duration":117.13250000000698,"noteNumber":62,"velocity":79,"programNumber":1},{"time":271044.60500000324,"duration":117.13250000000698,"noteNumber":62,"velocity":79,"programNumber":1},{"time":271161.73750000325,"duration":117.13250000000698,"noteNumber":62,"velocity":79,"programNumber":1},{"time":271278.87000000325,"duration":937.0599999999977,"noteNumber":62,"velocity":79,"programNumber":1},{"time":272215.93000000325,"duration":937.0599999999977,"noteNumber":62,"velocity":79,"programNumber":1},{"time":273152.99000000325,"duration":937.0599999999977,"noteNumber":66,"velocity":79,"programNumber":1},{"time":274090.05000000325,"duration":234.26500000001397,"noteNumber":67,"velocity":79,"programNumber":1},{"time":274324.31500000326,"duration":234.26500000001397,"noteNumber":55,"velocity":79,"programNumber":1},{"time":274558.5800000033,"duration":234.26500000001397,"noteNumber":57,"velocity":79,"programNumber":1},{"time":274792.8450000033,"duration":234.26500000001397,"noteNumber":59,"velocity":79,"programNumber":1},{"time":275027.1100000033,"duration":234.26500000001397,"noteNumber":60,"velocity":79,"programNumber":1},{"time":275261.3750000033,"duration":234.26500000001397,"noteNumber":62,"velocity":79,"programNumber":1},{"time":275495.64000000333,"duration":234.26500000001397,"noteNumber":64,"velocity":79,"programNumber":1},{"time":275729.90500000335,"duration":234.26500000001397,"noteNumber":66,"velocity":79,"programNumber":1},{"time":275964.17000000336,"duration":234.26500000001397,"noteNumber":67,"velocity":79,"programNumber":1},{"time":276198.4350000034,"duration":234.26500000001397,"noteNumber":66,"velocity":79,"programNumber":1},{"time":276432.7000000034,"duration":234.26500000001397,"noteNumber":64,"velocity":79,"programNumber":1},{"time":276666.9650000034,"duration":234.26500000001397,"noteNumber":62,"velocity":79,"programNumber":1},{"time":276901.2300000034,"duration":234.26500000001397,"noteNumber":60,"velocity":79,"programNumber":1},{"time":277135.49500000343,"duration":234.26500000001397,"noteNumber":59,"velocity":79,"programNumber":1},{"time":277369.76000000344,"duration":234.26500000001397,"noteNumber":57,"velocity":79,"programNumber":1},{"time":277604.02500000346,"duration":234.26500000001397,"noteNumber":55,"velocity":79,"programNumber":1},{"time":277838.2900000035,"duration":468.53000000002794,"noteNumber":62,"velocity":79,"programNumber":1},{"time":278306.8200000035,"duration":468.53000000002794,"noteNumber":69,"velocity":79,"programNumber":1},{"time":278775.3500000035,"duration":468.53000000002794,"noteNumber":69,"velocity":79,"programNumber":1},{"time":281586.5300000036,"duration":937.0599999999977,"noteNumber":67,"velocity":79,"programNumber":1},{"time":282523.5900000036,"duration":468.53000000002794,"noteNumber":71,"velocity":79,"programNumber":1},{"time":282992.1200000036,"duration":468.53000000002794,"noteNumber":74,"velocity":79,"programNumber":1},{"time":283460.65000000363,"duration":468.53000000002794,"noteNumber":79,"velocity":79,"programNumber":1},{"time":283929.18000000366,"duration":937.0599999999977,"noteNumber":79,"velocity":79,"programNumber":1},{"time":284866.24000000366,"duration":234.26500000001397,"noteNumber":81,"velocity":79,"programNumber":1},{"time":285100.5050000037,"duration":234.26500000001397,"noteNumber":78,"velocity":79,"programNumber":1},{"time":285334.7700000037,"duration":468.53000000002794,"noteNumber":79,"velocity":79,"programNumber":1},{"time":285803.3000000037,"duration":937.0599999999977,"noteNumber":67,"velocity":79,"programNumber":1},{"time":286740.3600000037,"duration":234.26500000001397,"noteNumber":69,"velocity":79,"programNumber":1},{"time":286974.6250000037,"duration":234.26500000001397,"noteNumber":66,"velocity":79,"programNumber":1},{"time":287208.89000000374,"duration":468.53000000002794,"noteNumber":67,"velocity":79,"programNumber":1},{"time":290020.0700000038,"duration":117.13250000000698,"noteNumber":79,"velocity":79,"programNumber":1},{"time":290137.2025000038,"duration":117.13250000000698,"noteNumber":74,"velocity":79,"programNumber":1},{"time":290254.3350000038,"duration":117.13250000000698,"noteNumber":76,"velocity":79,"programNumber":1},{"time":290371.4675000038,"duration":117.13250000000698,"noteNumber":74,"velocity":79,"programNumber":1},{"time":290488.6000000038,"duration":117.13250000000698,"noteNumber":79,"velocity":79,"programNumber":1},{"time":290605.7325000038,"duration":117.13250000000698,"noteNumber":74,"velocity":79,"programNumber":1},{"time":290722.86500000383,"duration":117.13250000000698,"noteNumber":76,"velocity":79,"programNumber":1},{"time":290839.99750000384,"duration":117.13250000000698,"noteNumber":74,"velocity":79,"programNumber":1},{"time":290957.13000000385,"duration":1874.1199999999953,"noteNumber":86,"velocity":79,"programNumber":1},{"time":292831.25000000384,"duration":234.26500000001397,"noteNumber":86,"velocity":79,"programNumber":1},{"time":293768.31000000384,"duration":117.13250000000698,"noteNumber":79,"velocity":79,"programNumber":1},{"time":293885.44250000385,"duration":117.13250000000698,"noteNumber":74,"velocity":79,"programNumber":1},{"time":294002.57500000385,"duration":117.13250000000698,"noteNumber":76,"velocity":79,"programNumber":1},{"time":294119.70750000386,"duration":117.13250000000698,"noteNumber":74,"velocity":79,"programNumber":1},{"time":294236.84000000387,"duration":117.13250000000698,"noteNumber":79,"velocity":79,"programNumber":1},{"time":294353.9725000039,"duration":117.13250000000698,"noteNumber":74,"velocity":79,"programNumber":1},{"time":294471.1050000039,"duration":117.13250000000698,"noteNumber":76,"velocity":79,"programNumber":1},{"time":294588.2375000039,"duration":117.13250000000698,"noteNumber":74,"velocity":79,"programNumber":1},{"time":294705.3700000039,"duration":1874.1199999999953,"noteNumber":86,"velocity":79,"programNumber":1},{"time":296579.4900000039,"duration":117.13250000000698,"noteNumber":86,"velocity":79,"programNumber":1},{"time":296696.6225000039,"duration":117.13250000000698,"noteNumber":79,"velocity":79,"programNumber":1},{"time":296813.7550000039,"duration":117.13250000000698,"noteNumber":78,"velocity":79,"programNumber":1},{"time":296930.8875000039,"duration":117.13250000000698,"noteNumber":79,"velocity":79,"programNumber":1},{"time":297048.0200000039,"duration":117.13250000000698,"noteNumber":77,"velocity":79,"programNumber":1},{"time":297165.1525000039,"duration":117.13250000000698,"noteNumber":79,"velocity":79,"programNumber":1},{"time":297282.28500000393,"duration":117.13250000000698,"noteNumber":76,"velocity":79,"programNumber":1},{"time":297399.41750000394,"duration":117.13250000000698,"noteNumber":79,"velocity":79,"programNumber":1},{"time":297516.55000000395,"duration":117.13250000000698,"noteNumber":74,"velocity":79,"programNumber":1},{"time":297633.68250000395,"duration":117.13250000000698,"noteNumber":79,"velocity":79,"programNumber":1},{"time":297750.81500000396,"duration":117.13250000000698,"noteNumber":77,"velocity":79,"programNumber":1},{"time":297867.94750000397,"duration":117.13250000000698,"noteNumber":79,"velocity":79,"programNumber":1},{"time":297985.080000004,"duration":117.13250000000698,"noteNumber":76,"velocity":79,"programNumber":1},{"time":298102.212500004,"duration":117.13250000000698,"noteNumber":79,"velocity":79,"programNumber":1},{"time":298219.345000004,"duration":117.13250000000698,"noteNumber":74,"velocity":79,"programNumber":1},{"time":298336.477500004,"duration":117.13250000000698,"noteNumber":79,"velocity":79,"programNumber":1},{"time":298453.610000004,"duration":468.53000000002794,"noteNumber":76,"velocity":79,"programNumber":1},{"time":299507.802500004,"duration":117.13250000000698,"noteNumber":72,"velocity":79,"programNumber":1},{"time":299624.935000004,"duration":117.13250000000698,"noteNumber":74,"velocity":79,"programNumber":1},{"time":299742.067500004,"duration":117.13250000000698,"noteNumber":76,"velocity":79,"programNumber":1},{"time":299859.200000004,"duration":117.13250000000698,"noteNumber":77,"velocity":79,"programNumber":1},{"time":299976.33250000403,"duration":117.13250000000698,"noteNumber":79,"velocity":79,"programNumber":1},{"time":300093.46500000404,"duration":117.13250000000698,"noteNumber":81,"velocity":79,"programNumber":1},{"time":300210.59750000405,"duration":117.13250000000698,"noteNumber":83,"velocity":79,"programNumber":1},{"time":300327.73000000406,"duration":937.0599999999977,"noteNumber":84,"velocity":79,"programNumber":1},{"time":301264.79000000405,"duration":468.53000000002794,"noteNumber":83,"velocity":79,"programNumber":1},{"time":301733.3200000041,"duration":468.53000000002794,"noteNumber":81,"velocity":79,"programNumber":1},{"time":302201.8500000041,"duration":702.7949999999837,"noteNumber":79,"velocity":79,"programNumber":1},{"time":302904.6450000041,"duration":117.13250000000698,"noteNumber":81,"velocity":79,"programNumber":1},{"time":303021.7775000041,"duration":117.13250000000698,"noteNumber":83,"velocity":79,"programNumber":1},{"time":303138.9100000041,"duration":468.53000000002794,"noteNumber":71,"velocity":79,"programNumber":1},{"time":303607.44000000414,"duration":468.53000000002794,"noteNumber":69,"velocity":79,"programNumber":1},{"time":304075.97000000416,"duration":468.53000000002794,"noteNumber":67,"velocity":79,"programNumber":1},{"time":306067.22250000417,"duration":117.13250000000698,"noteNumber":60,"velocity":79,"programNumber":1},{"time":306184.3550000042,"duration":117.13250000000698,"noteNumber":62,"velocity":79,"programNumber":1},{"time":306301.4875000042,"duration":117.13250000000698,"noteNumber":64,"velocity":79,"programNumber":1},{"time":306418.6200000042,"duration":117.13250000000698,"noteNumber":65,"velocity":79,"programNumber":1},{"time":306535.7525000042,"duration":117.13250000000698,"noteNumber":67,"velocity":79,"programNumber":1},{"time":306652.8850000042,"duration":117.13250000000698,"noteNumber":69,"velocity":79,"programNumber":1},{"time":306770.0175000042,"duration":117.13250000000698,"noteNumber":71,"velocity":79,"programNumber":1},{"time":306887.1500000042,"duration":117.13250000000698,"noteNumber":72,"velocity":79,"programNumber":1},{"time":307004.2825000042,"duration":117.13250000000698,"noteNumber":76,"velocity":79,"programNumber":1},{"time":307121.4150000042,"duration":117.13250000000698,"noteNumber":77,"velocity":79,"programNumber":1},{"time":307238.54750000424,"duration":117.13250000000698,"noteNumber":79,"velocity":79,"programNumber":1},{"time":307355.68000000424,"duration":117.13250000000698,"noteNumber":81,"velocity":79,"programNumber":1},{"time":307472.81250000425,"duration":117.13250000000698,"noteNumber":83,"velocity":79,"programNumber":1},{"time":307589.94500000426,"duration":117.13250000000698,"noteNumber":84,"velocity":79,"programNumber":1},{"time":307707.07750000426,"duration":117.13250000000698,"noteNumber":86,"velocity":79,"programNumber":1},{"time":307824.21000000427,"duration":937.0599999999977,"noteNumber":88,"velocity":79,"programNumber":1},{"time":308761.27000000427,"duration":468.53000000002794,"noteNumber":86,"velocity":79,"programNumber":1},{"time":309229.8000000043,"duration":468.53000000002794,"noteNumber":84,"velocity":79,"programNumber":1},{"time":309698.3300000043,"duration":702.7949999999837,"noteNumber":83,"velocity":79,"programNumber":1},{"time":310401.1250000043,"duration":117.13250000000698,"noteNumber":84,"velocity":79,"programNumber":1},{"time":310518.2575000043,"duration":117.13250000000698,"noteNumber":86,"velocity":79,"programNumber":1},{"time":310635.3900000043,"duration":468.53000000002794,"noteNumber":71,"velocity":79,"programNumber":1},{"time":311103.92000000435,"duration":468.53000000002794,"noteNumber":69,"velocity":79,"programNumber":1},{"time":311572.4500000044,"duration":468.53000000002794,"noteNumber":67,"velocity":79,"programNumber":1},{"time":312040.9800000044,"duration":937.0599999999977,"noteNumber":55,"velocity":79,"programNumber":1},{"time":312978.0400000044,"duration":468.53000000002794,"noteNumber":60,"velocity":79,"programNumber":1},{"time":313446.57000000443,"duration":468.53000000002794,"noteNumber":59,"velocity":79,"programNumber":1},{"time":313915.10000000446,"duration":117.13250000000698,"noteNumber":66,"velocity":79,"programNumber":1},{"time":314032.23250000447,"duration":117.13250000000698,"noteNumber":64,"velocity":79,"programNumber":1},{"time":314149.3650000045,"duration":117.13250000000698,"noteNumber":62,"velocity":79,"programNumber":1},{"time":314266.4975000045,"duration":117.13250000000698,"noteNumber":60,"velocity":79,"programNumber":1},{"time":314383.6300000045,"duration":234.26500000001397,"noteNumber":62,"velocity":79,"programNumber":1},{"time":314617.8950000045,"duration":234.26500000001397,"noteNumber":59,"velocity":79,"programNumber":1},{"time":314852.1600000045,"duration":468.53000000002794,"noteNumber":60,"velocity":79,"programNumber":1},{"time":315320.69000000454,"duration":468.53000000002794,"noteNumber":59,"velocity":79,"programNumber":1},{"time":315789.22000000457,"duration":468.53000000002794,"noteNumber":71,"velocity":79,"programNumber":1},{"time":316257.7500000046,"duration":468.53000000002794,"noteNumber":71,"velocity":79,"programNumber":1},{"time":317194.81000000465,"duration":234.26500000001397,"noteNumber":67,"velocity":79,"programNumber":1},{"time":317663.3400000047,"duration":234.26500000001397,"noteNumber":71,"velocity":79,"programNumber":1},{"time":318131.8700000047,"duration":234.26500000001397,"noteNumber":67,"velocity":79,"programNumber":1},{"time":318600.40000000474,"duration":234.26500000001397,"noteNumber":66,"velocity":79,"programNumber":1},{"time":319068.93000000477,"duration":234.26500000001397,"noteNumber":69,"velocity":79,"programNumber":1},{"time":319537.4600000048,"duration":234.26500000001397,"noteNumber":62,"velocity":79,"programNumber":1},{"time":320005.9900000048,"duration":234.26500000001397,"noteNumber":67,"velocity":79,"programNumber":1},{"time":320474.52000000485,"duration":234.26500000001397,"noteNumber":64,"velocity":79,"programNumber":1},{"time":320943.0500000049,"duration":234.26500000001397,"noteNumber":60,"velocity":79,"programNumber":1},{"time":321411.5800000049,"duration":1405.5900000000256,"noteNumber":62,"velocity":79,"programNumber":1},{"time":322817.17000000493,"duration":468.53000000002794,"noteNumber":67,"velocity":79,"programNumber":1},{"time":323285.70000000496,"duration":468.53000000002794,"noteNumber":69,"velocity":79,"programNumber":1},{"time":323754.230000005,"duration":468.53000000002794,"noteNumber":71,"velocity":79,"programNumber":1},{"time":324222.760000005,"duration":234.26500000001397,"noteNumber":72,"velocity":79,"programNumber":1},{"time":324691.29000000504,"duration":468.53000000002794,"noteNumber":69,"velocity":79,"programNumber":1},{"time":325159.8200000051,"duration":468.53000000002794,"noteNumber":67,"velocity":79,"programNumber":1},{"time":325628.3500000051,"duration":234.26500000001397,"noteNumber":64,"velocity":79,"programNumber":1},{"time":326096.8800000051,"duration":234.26500000001397,"noteNumber":62,"velocity":79,"programNumber":1},{"time":326565.41000000515,"duration":234.26500000001397,"noteNumber":60,"velocity":79,"programNumber":1},{"time":327033.9400000052,"duration":937.0599999999977,"noteNumber":59,"velocity":79,"programNumber":1},{"time":328439.5300000052,"duration":234.26500000001397,"noteNumber":67,"velocity":79,"programNumber":1},{"time":328908.06000000524,"duration":234.26500000001397,"noteNumber":71,"velocity":79,"programNumber":1},{"time":329376.59000000526,"duration":234.26500000001397,"noteNumber":67,"velocity":79,"programNumber":1},{"time":329845.1200000053,"duration":234.26500000001397,"noteNumber":66,"velocity":79,"programNumber":1},{"time":330313.6500000053,"duration":234.26500000001397,"noteNumber":69,"velocity":79,"programNumber":1},{"time":330782.18000000535,"duration":234.26500000001397,"noteNumber":62,"velocity":79,"programNumber":1},{"time":331250.7100000054,"duration":234.26500000001397,"noteNumber":67,"velocity":79,"programNumber":1},{"time":331719.2400000054,"duration":234.26500000001397,"noteNumber":64,"velocity":79,"programNumber":1},{"time":332187.77000000543,"duration":234.26500000001397,"noteNumber":60,"velocity":79,"programNumber":1},{"time":332656.30000000546,"duration":1405.5900000000256,"noteNumber":62,"velocity":79,"programNumber":1},{"time":334061.8900000055,"duration":468.53000000002794,"noteNumber":67,"velocity":79,"programNumber":1},{"time":334530.4200000055,"duration":468.53000000002794,"noteNumber":69,"velocity":79,"programNumber":1},{"time":334998.95000000554,"duration":468.53000000002794,"noteNumber":71,"velocity":79,"programNumber":1},{"time":335467.48000000557,"duration":234.26500000001397,"noteNumber":72,"velocity":79,"programNumber":1},{"time":335936.0100000056,"duration":468.53000000002794,"noteNumber":69,"velocity":79,"programNumber":1},{"time":336404.5400000056,"duration":468.53000000002794,"noteNumber":67,"velocity":79,"programNumber":1},{"time":336873.07000000565,"duration":234.26500000001397,"noteNumber":64,"velocity":79,"programNumber":1},{"time":337341.6000000057,"duration":234.26500000001397,"noteNumber":62,"velocity":79,"programNumber":1},{"time":337810.1300000057,"duration":234.26500000001397,"noteNumber":60,"velocity":79,"programNumber":1},{"time":338278.66000000574,"duration":937.0599999999977,"noteNumber":59,"velocity":79,"programNumber":1},{"time":339684.25000000576,"duration":234.26500000001397,"noteNumber":71,"velocity":79,"programNumber":1},{"time":339918.5150000058,"duration":234.26500000001397,"noteNumber":72,"velocity":79,"programNumber":1},{"time":340152.7800000058,"duration":468.53000000002794,"noteNumber":69,"velocity":79,"programNumber":1},{"time":341089.84000000585,"duration":234.26500000001397,"noteNumber":67,"velocity":79,"programNumber":1},{"time":341324.10500000586,"duration":234.26500000001397,"noteNumber":69,"velocity":79,"programNumber":1},{"time":341558.3700000059,"duration":468.53000000002794,"noteNumber":66,"velocity":79,"programNumber":1},{"time":342495.43000000593,"duration":468.53000000002794,"noteNumber":64,"velocity":79,"programNumber":1},{"time":342963.96000000596,"duration":468.53000000002794,"noteNumber":67,"velocity":79,"programNumber":1},{"time":343432.490000006,"duration":468.53000000002794,"noteNumber":71,"velocity":79,"programNumber":1},{"time":343901.020000006,"duration":937.0599999999977,"noteNumber":62,"velocity":79,"programNumber":1},{"time":344838.080000006,"duration":468.53000000002794,"noteNumber":61,"velocity":79,"programNumber":1},{"time":345306.61000000604,"duration":468.53000000002794,"noteNumber":62,"velocity":79,"programNumber":1},{"time":345775.14000000607,"duration":468.53000000002794,"noteNumber":64,"velocity":79,"programNumber":1},{"time":346243.6700000061,"duration":468.53000000002794,"noteNumber":66,"velocity":79,"programNumber":1},{"time":346712.2000000061,"duration":468.53000000002794,"noteNumber":67,"velocity":79,"programNumber":1},{"time":347180.73000000615,"duration":468.53000000002794,"noteNumber":69,"velocity":79,"programNumber":1},{"time":347649.2600000062,"duration":468.53000000002794,"noteNumber":71,"velocity":79,"programNumber":1},{"time":348117.7900000062,"duration":234.26500000001397,"noteNumber":69,"velocity":79,"programNumber":1},{"time":348586.32000000624,"duration":234.26500000001397,"noteNumber":66,"velocity":79,"programNumber":1},{"time":348820.58500000625,"duration":234.26500000001397,"noteNumber":62,"velocity":79,"programNumber":1},{"time":349054.85000000626,"duration":234.26500000001397,"noteNumber":64,"velocity":79,"programNumber":1},{"time":349289.1150000063,"duration":234.26500000001397,"noteNumber":61,"velocity":79,"programNumber":1},{"time":349523.3800000063,"duration":234.26500000001397,"noteNumber":62,"velocity":79,"programNumber":1},{"time":349991.9100000063,"duration":234.26500000001397,"noteNumber":66,"velocity":79,"programNumber":1},{"time":350460.44000000635,"duration":234.26500000001397,"noteNumber":69,"velocity":79,"programNumber":1},{"time":350928.9700000064,"duration":937.0599999999977,"noteNumber":72,"velocity":79,"programNumber":1},{"time":351866.0300000064,"duration":468.53000000002794,"noteNumber":71,"velocity":79,"programNumber":1},{"time":352334.5600000064,"duration":937.0599999999977,"noteNumber":66,"velocity":79,"programNumber":1},{"time":353271.6200000064,"duration":234.26500000001397,"noteNumber":67,"velocity":79,"programNumber":1},{"time":354208.6800000064,"duration":234.26500000001397,"noteNumber":69,"velocity":79,"programNumber":1},{"time":354677.2100000064,"duration":234.26500000001397,"noteNumber":69,"velocity":79,"programNumber":1},{"time":355145.74000000645,"duration":1405.5900000000256,"noteNumber":69,"velocity":79,"programNumber":1},{"time":356551.3300000065,"duration":234.26500000001397,"noteNumber":67,"velocity":79,"programNumber":1},{"time":357019.8600000065,"duration":234.26500000001397,"noteNumber":71,"velocity":79,"programNumber":1},{"time":357488.39000000653,"duration":234.26500000001397,"noteNumber":67,"velocity":79,"programNumber":1},{"time":357956.92000000656,"duration":234.26500000001397,"noteNumber":66,"velocity":79,"programNumber":1},{"time":358425.4500000066,"duration":234.26500000001397,"noteNumber":69,"velocity":79,"programNumber":1},{"time":358893.9800000066,"duration":234.26500000001397,"noteNumber":62,"velocity":79,"programNumber":1},{"time":359362.51000000664,"duration":234.26500000001397,"noteNumber":67,"velocity":79,"programNumber":1},{"time":359831.0400000067,"duration":234.26500000001397,"noteNumber":67,"velocity":79,"programNumber":1},{"time":360299.5700000067,"duration":234.26500000001397,"noteNumber":60,"velocity":79,"programNumber":1},{"time":360768.1000000067,"duration":1405.5900000000256,"noteNumber":62,"velocity":79,"programNumber":1},{"time":362173.69000000675,"duration":234.26500000001397,"noteNumber":67,"velocity":79,"programNumber":1},{"time":362642.2200000068,"duration":234.26500000001397,"noteNumber":69,"velocity":79,"programNumber":1},{"time":363110.7500000068,"duration":234.26500000001397,"noteNumber":71,"velocity":79,"programNumber":1},{"time":363579.28000000684,"duration":234.26500000001397,"noteNumber":72,"velocity":79,"programNumber":1},{"time":364047.81000000687,"duration":468.53000000002794,"noteNumber":69,"velocity":79,"programNumber":1},{"time":364516.3400000069,"duration":468.53000000002794,"noteNumber":67,"velocity":79,"programNumber":1},{"time":364984.8700000069,"duration":234.26500000001397,"noteNumber":64,"velocity":79,"programNumber":1},{"time":365453.40000000695,"duration":234.26500000001397,"noteNumber":59,"velocity":79,"programNumber":1},{"time":365921.930000007,"duration":234.26500000001397,"noteNumber":57,"velocity":79,"programNumber":1},{"time":366390.460000007,"duration":937.0599999999977,"noteNumber":59,"velocity":79,"programNumber":1},{"time":367796.05000000703,"duration":234.26500000001397,"noteNumber":71,"velocity":36,"programNumber":1},{"time":368030.31500000705,"duration":234.26500000001397,"noteNumber":72,"velocity":36,"programNumber":1},{"time":368264.58000000706,"duration":468.53000000002794,"noteNumber":69,"velocity":36,"programNumber":1},{"time":369201.64000000706,"duration":234.26500000001397,"noteNumber":67,"velocity":36,"programNumber":1},{"time":369435.9050000071,"duration":234.26500000001397,"noteNumber":69,"velocity":36,"programNumber":1},{"time":369670.1700000071,"duration":468.53000000002794,"noteNumber":66,"velocity":36,"programNumber":1},{"time":370607.2300000071,"duration":468.53000000002794,"noteNumber":64,"velocity":36,"programNumber":1},{"time":371075.7600000071,"duration":468.53000000002794,"noteNumber":67,"velocity":36,"programNumber":1},{"time":371544.29000000714,"duration":468.52999999996973,"noteNumber":71,"velocity":36,"programNumber":1},{"time":372012.8200000071,"duration":937.0599999999977,"noteNumber":62,"velocity":36,"programNumber":1},{"time":372949.8800000071,"duration":468.53000000002794,"noteNumber":61,"velocity":36,"programNumber":1},{"time":373418.41000000713,"duration":468.53000000002794,"noteNumber":62,"velocity":36,"programNumber":1},{"time":373886.94000000716,"duration":468.53000000002794,"noteNumber":64,"velocity":36,"programNumber":1},{"time":374355.4700000072,"duration":468.53000000002794,"noteNumber":66,"velocity":36,"programNumber":1},{"time":374824.0000000072,"duration":468.53000000002794,"noteNumber":67,"velocity":36,"programNumber":1},{"time":375292.53000000725,"duration":468.53000000002794,"noteNumber":69,"velocity":36,"programNumber":1},{"time":375761.0600000073,"duration":468.53000000002794,"noteNumber":71,"velocity":36,"programNumber":1},{"time":376229.5900000073,"duration":468.53000000002794,"noteNumber":69,"velocity":36,"programNumber":1},{"time":376698.12000000733,"duration":234.26500000001397,"noteNumber":66,"velocity":36,"programNumber":1},{"time":376932.38500000734,"duration":234.26500000001397,"noteNumber":62,"velocity":36,"programNumber":1},{"time":377166.65000000736,"duration":234.26500000001397,"noteNumber":64,"velocity":36,"programNumber":1},{"time":377400.9150000074,"duration":234.26500000001397,"noteNumber":61,"velocity":36,"programNumber":1},{"time":377635.1800000074,"duration":468.53000000002794,"noteNumber":62,"velocity":36,"programNumber":1},{"time":378103.7100000074,"duration":468.53000000002794,"noteNumber":66,"velocity":36,"programNumber":1},{"time":378572.24000000744,"duration":468.53000000002794,"noteNumber":69,"velocity":36,"programNumber":1},{"time":379040.77000000747,"duration":937.0599999999977,"noteNumber":72,"velocity":36,"programNumber":1},{"time":379977.83000000747,"duration":468.53000000002794,"noteNumber":71,"velocity":36,"programNumber":1},{"time":380446.3600000075,"duration":937.0599999999977,"noteNumber":66,"velocity":36,"programNumber":1},{"time":381383.4200000075,"duration":468.53000000002794,"noteNumber":67,"velocity":36,"programNumber":1},{"time":382320.48000000755,"duration":468.53000000002794,"noteNumber":69,"velocity":36,"programNumber":1},{"time":382789.0100000076,"duration":468.53000000002794,"noteNumber":69,"velocity":36,"programNumber":1},{"time":383257.5400000076,"duration":1405.5900000000256,"noteNumber":69,"velocity":36,"programNumber":1},{"time":384663.13000000763,"duration":468.53000000002794,"noteNumber":67,"velocity":79,"programNumber":1},{"time":385131.66000000766,"duration":468.53000000002794,"noteNumber":71,"velocity":79,"programNumber":1},{"time":385600.1900000077,"duration":468.53000000002794,"noteNumber":67,"velocity":79,"programNumber":1},{"time":386068.7200000077,"duration":468.53000000002794,"noteNumber":66,"velocity":79,"programNumber":1},{"time":386537.25000000774,"duration":468.53000000002794,"noteNumber":69,"velocity":79,"programNumber":1},{"time":387005.78000000777,"duration":468.53000000002794,"noteNumber":62,"velocity":79,"programNumber":1},{"time":387474.3100000078,"duration":468.53000000002794,"noteNumber":67,"velocity":79,"programNumber":1},{"time":387942.8400000078,"duration":468.53000000002794,"noteNumber":64,"velocity":79,"programNumber":1},{"time":388411.37000000785,"duration":468.53000000002794,"noteNumber":60,"velocity":79,"programNumber":1},{"time":388879.9000000079,"duration":1405.5900000000256,"noteNumber":62,"velocity":79,"programNumber":1},{"time":390285.4900000079,"duration":468.53000000002794,"noteNumber":67,"velocity":79,"programNumber":1},{"time":390754.02000000793,"duration":468.53000000002794,"noteNumber":69,"velocity":79,"programNumber":1},{"time":391222.55000000796,"duration":468.53000000002794,"noteNumber":71,"velocity":79,"programNumber":1},{"time":391691.080000008,"duration":468.53000000002794,"noteNumber":72,"velocity":79,"programNumber":1},{"time":392159.610000008,"duration":468.53000000002794,"noteNumber":69,"velocity":79,"programNumber":1},{"time":392628.14000000805,"duration":468.53000000002794,"noteNumber":67,"velocity":79,"programNumber":1},{"time":393096.6700000081,"duration":468.53000000002794,"noteNumber":64,"velocity":79,"programNumber":1},{"time":393565.2000000081,"duration":468.53000000002794,"noteNumber":59,"velocity":79,"programNumber":1},{"time":394033.73000000813,"duration":468.53000000002794,"noteNumber":57,"velocity":79,"programNumber":1},{"time":394502.26000000816,"duration":937.0599999999977,"noteNumber":59,"velocity":79,"programNumber":1},{"time":395907.8500000081,"duration":468.53000000002794,"noteNumber":67,"velocity":36,"programNumber":1},{"time":396376.38000000815,"duration":468.53000000002794,"noteNumber":67,"velocity":36,"programNumber":1},{"time":396844.9100000082,"duration":468.53000000002794,"noteNumber":67,"velocity":36,"programNumber":1},{"time":397313.4400000082,"duration":468.53000000002794,"noteNumber":67,"velocity":36,"programNumber":1},{"time":397781.97000000824,"duration":468.53000000002794,"noteNumber":67,"velocity":36,"programNumber":1},{"time":398250.50000000827,"duration":468.53000000002794,"noteNumber":67,"velocity":36,"programNumber":1},{"time":398719.0300000083,"duration":468.53000000002794,"noteNumber":64,"velocity":36,"programNumber":1},{"time":399187.5600000083,"duration":468.53000000002794,"noteNumber":64,"velocity":36,"programNumber":1},{"time":399656.09000000835,"duration":468.53000000002794,"noteNumber":64,"velocity":36,"programNumber":1},{"time":400124.6200000084,"duration":468.53000000002794,"noteNumber":64,"velocity":36,"programNumber":1},{"time":400593.1500000084,"duration":468.53000000002794,"noteNumber":64,"velocity":36,"programNumber":1},{"time":401061.68000000843,"duration":468.53000000002794,"noteNumber":64,"velocity":36,"programNumber":1},{"time":401530.21000000846,"duration":468.53000000002794,"noteNumber":60,"velocity":36,"programNumber":1},{"time":401998.7400000085,"duration":468.53000000002794,"noteNumber":60,"velocity":36,"programNumber":1},{"time":402467.2700000085,"duration":468.53000000002794,"noteNumber":60,"velocity":36,"programNumber":1},{"time":402935.80000000854,"duration":468.53000000002794,"noteNumber":60,"velocity":36,"programNumber":1},{"time":403404.3300000086,"duration":468.53000000002794,"noteNumber":60,"velocity":36,"programNumber":1},{"time":403872.8600000086,"duration":468.53000000002794,"noteNumber":60,"velocity":36,"programNumber":1},{"time":404341.3900000086,"duration":468.53000000002794,"noteNumber":60,"velocity":36,"programNumber":1},{"time":405044.18500000867,"duration":234.26500000001397,"noteNumber":69,"velocity":36,"programNumber":1},{"time":405278.4500000087,"duration":234.26500000001397,"noteNumber":67,"velocity":36,"programNumber":1},{"time":405512.7150000087,"duration":234.26500000001397,"noteNumber":65,"velocity":36,"programNumber":1},{"time":405746.9800000087,"duration":234.26500000001397,"noteNumber":65,"velocity":36,"programNumber":1},{"time":405981.2450000087,"duration":702.7949999999837,"noteNumber":64,"velocity":36,"programNumber":1},{"time":407152.57000000874,"duration":468.53000000002794,"noteNumber":67,"velocity":36,"programNumber":1},{"time":407621.10000000877,"duration":468.53000000002794,"noteNumber":67,"velocity":36,"programNumber":1},{"time":408089.6300000088,"duration":468.53000000002794,"noteNumber":67,"velocity":36,"programNumber":1},{"time":408558.1600000088,"duration":468.53000000002794,"noteNumber":67,"velocity":36,"programNumber":1},{"time":409026.69000000885,"duration":468.53000000002794,"noteNumber":67,"velocity":36,"programNumber":1},{"time":409495.2200000089,"duration":468.53000000002794,"noteNumber":67,"velocity":36,"programNumber":1},{"time":409963.7500000089,"duration":468.53000000002794,"noteNumber":64,"velocity":36,"programNumber":1},{"time":410432.28000000893,"duration":468.53000000002794,"noteNumber":64,"velocity":36,"programNumber":1},{"time":410900.81000000896,"duration":468.53000000002794,"noteNumber":64,"velocity":36,"programNumber":1},{"time":411369.340000009,"duration":468.53000000002794,"noteNumber":64,"velocity":36,"programNumber":1},{"time":411837.870000009,"duration":468.53000000002794,"noteNumber":64,"velocity":36,"programNumber":1},{"time":412306.40000000905,"duration":468.53000000002794,"noteNumber":64,"velocity":36,"programNumber":1},{"time":412774.9300000091,"duration":468.53000000002794,"noteNumber":60,"velocity":36,"programNumber":1},{"time":413243.4600000091,"duration":468.53000000002794,"noteNumber":60,"velocity":36,"programNumber":1},{"time":413711.99000000913,"duration":468.53000000002794,"noteNumber":60,"velocity":36,"programNumber":1},{"time":414180.52000000916,"duration":468.53000000002794,"noteNumber":60,"velocity":36,"programNumber":1},{"time":414649.0500000092,"duration":468.53000000002794,"noteNumber":60,"velocity":36,"programNumber":1},{"time":415117.5800000092,"duration":468.53000000002794,"noteNumber":60,"velocity":36,"programNumber":1},{"time":415586.11000000924,"duration":468.53000000002794,"noteNumber":60,"velocity":36,"programNumber":1},{"time":416288.9050000093,"duration":234.26500000001397,"noteNumber":69,"velocity":36,"programNumber":1},{"time":416523.1700000093,"duration":234.26500000001397,"noteNumber":67,"velocity":36,"programNumber":1},{"time":416757.4350000093,"duration":234.26500000001397,"noteNumber":65,"velocity":36,"programNumber":1},{"time":416991.7000000093,"duration":234.26500000001397,"noteNumber":65,"velocity":36,"programNumber":1},{"time":417225.96500000934,"duration":702.7949999999837,"noteNumber":64,"velocity":36,"programNumber":1},{"time":418397.29000000935,"duration":702.7949999999837,"noteNumber":79,"velocity":79,"programNumber":1},{"time":419100.08500000933,"duration":117.13250000000698,"noteNumber":78,"velocity":79,"programNumber":1},{"time":419217.21750000934,"duration":117.13250000000698,"noteNumber":76,"velocity":79,"programNumber":1},{"time":419334.35000000935,"duration":468.52999999996973,"noteNumber":74,"velocity":79,"programNumber":1},{"time":419802.8800000093,"duration":702.7950000000419,"noteNumber":76,"velocity":79,"programNumber":1},{"time":420505.67500000936,"duration":117.13250000000698,"noteNumber":74,"velocity":79,"programNumber":1},{"time":420622.80750000937,"duration":117.13250000000698,"noteNumber":72,"velocity":79,"programNumber":1},{"time":420739.9400000094,"duration":468.53000000002794,"noteNumber":71,"velocity":79,"programNumber":1},{"time":421208.4700000094,"duration":468.53000000002794,"noteNumber":67,"velocity":36,"programNumber":1},{"time":421677.00000000943,"duration":468.53000000002794,"noteNumber":67,"velocity":36,"programNumber":1},{"time":422145.53000000946,"duration":234.26500000001397,"noteNumber":69,"velocity":36,"programNumber":1},{"time":422379.7950000095,"duration":234.26500000001397,"noteNumber":66,"velocity":36,"programNumber":1},{"time":422614.0600000095,"duration":468.53000000002794,"noteNumber":67,"velocity":36,"programNumber":1},{"time":423082.5900000095,"duration":468.53000000002794,"noteNumber":69,"velocity":36,"programNumber":1},{"time":423551.12000000954,"duration":468.53000000002794,"noteNumber":71,"velocity":36,"programNumber":1},{"time":425425.2400000096,"duration":234.26500000001397,"noteNumber":55,"velocity":79,"programNumber":1},{"time":425659.5050000096,"duration":234.26500000001397,"noteNumber":79,"velocity":79,"programNumber":1},{"time":425893.7700000096,"duration":234.26500000001397,"noteNumber":78,"velocity":79,"programNumber":1},{"time":426128.03500000964,"duration":234.26500000001397,"noteNumber":76,"velocity":79,"programNumber":1},{"time":426362.30000000965,"duration":234.26500000001397,"noteNumber":74,"velocity":79,"programNumber":1},{"time":426596.56500000966,"duration":234.26500000001397,"noteNumber":72,"velocity":79,"programNumber":1},{"time":426830.8300000097,"duration":234.26500000001397,"noteNumber":71,"velocity":79,"programNumber":1},{"time":427065.0950000097,"duration":234.26500000001397,"noteNumber":67,"velocity":79,"programNumber":1},{"time":427299.3600000097,"duration":468.53000000002794,"noteNumber":76,"velocity":79,"programNumber":1},{"time":427767.89000000973,"duration":468.53000000002794,"noteNumber":72,"velocity":79,"programNumber":1},{"time":428236.42000000976,"duration":468.53000000002794,"noteNumber":71,"velocity":79,"programNumber":1},{"time":428704.9500000098,"duration":468.53000000002794,"noteNumber":55,"velocity":79,"programNumber":1},{"time":429173.4800000098,"duration":468.53000000002794,"noteNumber":67,"velocity":79,"programNumber":1},{"time":429642.01000000985,"duration":468.53000000002794,"noteNumber":67,"velocity":36,"programNumber":1},{"time":430110.5400000099,"duration":468.53000000002794,"noteNumber":67,"velocity":36,"programNumber":1},{"time":430579.0700000099,"duration":468.53000000002794,"noteNumber":67,"velocity":36,"programNumber":1},{"time":431047.60000000993,"duration":468.53000000002794,"noteNumber":67,"velocity":36,"programNumber":1},{"time":431516.13000000996,"duration":468.53000000002794,"noteNumber":67,"velocity":36,"programNumber":1},{"time":431984.66000001,"duration":468.53000000002794,"noteNumber":67,"velocity":36,"programNumber":1},{"time":432453.19000001,"duration":468.53000000002794,"noteNumber":64,"velocity":36,"programNumber":1},{"time":432921.72000001004,"duration":468.53000000002794,"noteNumber":64,"velocity":36,"programNumber":1},{"time":433390.25000001007,"duration":468.53000000002794,"noteNumber":64,"velocity":36,"programNumber":1},{"time":433858.7800000101,"duration":468.53000000002794,"noteNumber":64,"velocity":36,"programNumber":1},{"time":434327.3100000101,"duration":468.53000000002794,"noteNumber":64,"velocity":36,"programNumber":1},{"time":434795.84000001015,"duration":468.53000000002794,"noteNumber":64,"velocity":36,"programNumber":1},{"time":435264.3700000102,"duration":468.53000000002794,"noteNumber":60,"velocity":36,"programNumber":1},{"time":435732.9000000102,"duration":468.53000000002794,"noteNumber":60,"velocity":36,"programNumber":1},{"time":436201.43000001024,"duration":468.53000000002794,"noteNumber":60,"velocity":36,"programNumber":1},{"time":436669.96000001027,"duration":468.53000000002794,"noteNumber":60,"velocity":36,"programNumber":1},{"time":437138.4900000103,"duration":468.53000000002794,"noteNumber":60,"velocity":36,"programNumber":1},{"time":437607.0200000103,"duration":468.53000000002794,"noteNumber":60,"velocity":36,"programNumber":1},{"time":438075.55000001035,"duration":468.53000000002794,"noteNumber":60,"velocity":36,"programNumber":1},{"time":438778.3450000104,"duration":234.26500000001397,"noteNumber":69,"velocity":36,"programNumber":1},{"time":439012.6100000104,"duration":234.26500000001397,"noteNumber":67,"velocity":36,"programNumber":1},{"time":439246.8750000104,"duration":234.26500000001397,"noteNumber":65,"velocity":36,"programNumber":1},{"time":439481.14000001043,"duration":234.26500000001397,"noteNumber":65,"velocity":36,"programNumber":1},{"time":439715.40500001045,"duration":702.7949999999837,"noteNumber":64,"velocity":36,"programNumber":1},{"time":440886.73000001046,"duration":702.7949999999837,"noteNumber":79,"velocity":79,"programNumber":1},{"time":441589.52500001044,"duration":117.13250000000698,"noteNumber":78,"velocity":79,"programNumber":1},{"time":441706.65750001045,"duration":117.13250000000698,"noteNumber":76,"velocity":79,"programNumber":1},{"time":441823.79000001046,"duration":468.53000000002794,"noteNumber":74,"velocity":79,"programNumber":1},{"time":442292.3200000105,"duration":702.7949999999837,"noteNumber":76,"velocity":79,"programNumber":1},{"time":442995.11500001047,"duration":117.13250000000698,"noteNumber":74,"velocity":79,"programNumber":1},{"time":443112.2475000105,"duration":117.13250000000698,"noteNumber":72,"velocity":79,"programNumber":1},{"time":443229.3800000105,"duration":468.52999999996973,"noteNumber":71,"velocity":79,"programNumber":1},{"time":443697.91000001045,"duration":468.53000000002794,"noteNumber":67,"velocity":36,"programNumber":1},{"time":444166.4400000105,"duration":468.53000000002794,"noteNumber":67,"velocity":36,"programNumber":1},{"time":444634.9700000105,"duration":234.26500000001397,"noteNumber":69,"velocity":36,"programNumber":1},{"time":444869.2350000105,"duration":234.26500000001397,"noteNumber":66,"velocity":36,"programNumber":1},{"time":445103.50000001054,"duration":468.53000000002794,"noteNumber":67,"velocity":36,"programNumber":1},{"time":445572.03000001056,"duration":468.53000000002794,"noteNumber":69,"velocity":36,"programNumber":1},{"time":446040.5600000106,"duration":468.53000000002794,"noteNumber":71,"velocity":36,"programNumber":1},{"time":447914.68000001065,"duration":234.26500000001397,"noteNumber":55,"velocity":79,"programNumber":1},{"time":448148.94500001066,"duration":234.26500000001397,"noteNumber":79,"velocity":79,"programNumber":1},{"time":448383.2100000107,"duration":234.26500000001397,"noteNumber":78,"velocity":79,"programNumber":1},{"time":448617.4750000107,"duration":234.26500000001397,"noteNumber":76,"velocity":79,"programNumber":1},{"time":448851.7400000107,"duration":234.26500000001397,"noteNumber":74,"velocity":79,"programNumber":1},{"time":449086.0050000107,"duration":234.26500000001397,"noteNumber":72,"velocity":79,"programNumber":1},{"time":449320.2700000107,"duration":234.26500000001397,"noteNumber":71,"velocity":79,"programNumber":1},{"time":449554.53500001074,"duration":234.26500000001397,"noteNumber":67,"velocity":79,"programNumber":1},{"time":449788.80000001076,"duration":468.53000000002794,"noteNumber":76,"velocity":79,"programNumber":1},{"time":450257.3300000108,"duration":468.53000000002794,"noteNumber":72,"velocity":79,"programNumber":1},{"time":450725.8600000108,"duration":468.53000000002794,"noteNumber":71,"velocity":79,"programNumber":1},{"time":451194.39000001084,"duration":468.53000000002794,"noteNumber":55,"velocity":79,"programNumber":1},{"time":451662.92000001087,"duration":468.53000000002794,"noteNumber":67,"velocity":79,"programNumber":1},{"time":452131.4500000109,"duration":468.53000000002794,"noteNumber":67,"velocity":36,"programNumber":1},{"time":452599.9800000109,"duration":468.53000000002794,"noteNumber":67,"velocity":36,"programNumber":1},{"time":453068.51000001095,"duration":468.53000000002794,"noteNumber":67,"velocity":36,"programNumber":1},{"time":453537.040000011,"duration":468.53000000002794,"noteNumber":67,"velocity":36,"programNumber":1},{"time":454005.570000011,"duration":468.53000000002794,"noteNumber":67,"velocity":36,"programNumber":1},{"time":454474.10000001104,"duration":468.53000000002794,"noteNumber":67,"velocity":36,"programNumber":1},{"time":454942.63000001106,"duration":468.53000000002794,"noteNumber":64,"velocity":36,"programNumber":1},{"time":455411.1600000111,"duration":468.53000000002794,"noteNumber":64,"velocity":36,"programNumber":1},{"time":455879.6900000111,"duration":468.53000000002794,"noteNumber":64,"velocity":36,"programNumber":1},{"time":456348.22000001115,"duration":468.53000000002794,"noteNumber":64,"velocity":36,"programNumber":1},{"time":456816.7500000112,"duration":468.53000000002794,"noteNumber":64,"velocity":36,"programNumber":1},{"time":457285.2800000112,"duration":468.53000000002794,"noteNumber":64,"velocity":36,"programNumber":1},{"time":457753.81000001123,"duration":468.53000000002794,"noteNumber":60,"velocity":36,"programNumber":1},{"time":458222.34000001126,"duration":468.53000000002794,"noteNumber":60,"velocity":36,"programNumber":1},{"time":458690.8700000113,"duration":468.53000000002794,"noteNumber":60,"velocity":36,"programNumber":1},{"time":459159.4000000113,"duration":468.53000000002794,"noteNumber":60,"velocity":36,"programNumber":1},{"time":459627.93000001134,"duration":468.53000000002794,"noteNumber":60,"velocity":36,"programNumber":1},{"time":460096.4600000114,"duration":468.53000000002794,"noteNumber":60,"velocity":36,"programNumber":1},{"time":460564.9900000114,"duration":468.53000000002794,"noteNumber":60,"velocity":36,"programNumber":1},{"time":461267.78500001144,"duration":234.26500000001397,"noteNumber":69,"velocity":36,"programNumber":1},{"time":461502.05000001146,"duration":234.26500000001397,"noteNumber":67,"velocity":36,"programNumber":1},{"time":461736.31500001147,"duration":234.26500000001397,"noteNumber":65,"velocity":36,"programNumber":1},{"time":461970.5800000115,"duration":234.26500000001397,"noteNumber":65,"velocity":36,"programNumber":1},{"time":462204.8450000115,"duration":702.7949999999837,"noteNumber":64,"velocity":36,"programNumber":1},{"time":463376.1700000115,"duration":468.53000000002794,"noteNumber":67,"velocity":36,"programNumber":1},{"time":463844.70000001154,"duration":468.53000000002794,"noteNumber":71,"velocity":36,"programNumber":1},{"time":464313.23000001156,"duration":468.53000000002794,"noteNumber":67,"velocity":36,"programNumber":1},{"time":464781.7600000116,"duration":468.53000000002794,"noteNumber":66,"velocity":36,"programNumber":1},{"time":465250.2900000116,"duration":468.53000000002794,"noteNumber":69,"velocity":36,"programNumber":1},{"time":465718.82000001165,"duration":468.53000000002794,"noteNumber":62,"velocity":36,"programNumber":1},{"time":466187.3500000117,"duration":468.53000000002794,"noteNumber":67,"velocity":36,"programNumber":1},{"time":466655.8800000117,"duration":468.53000000002794,"noteNumber":64,"velocity":36,"programNumber":1},{"time":467124.41000001173,"duration":468.53000000002794,"noteNumber":60,"velocity":36,"programNumber":1},{"time":467592.94000001176,"duration":1405.5900000000256,"noteNumber":62,"velocity":36,"programNumber":1},{"time":468998.5300000118,"duration":468.53000000002794,"noteNumber":67,"velocity":36,"programNumber":1},{"time":469467.0600000118,"duration":468.53000000002794,"noteNumber":69,"velocity":36,"programNumber":1},{"time":469935.59000001184,"duration":468.53000000002794,"noteNumber":71,"velocity":36,"programNumber":1},{"time":470404.12000001187,"duration":468.53000000002794,"noteNumber":72,"velocity":36,"programNumber":1},{"time":470872.6500000119,"duration":468.53000000002794,"noteNumber":69,"velocity":36,"programNumber":1},{"time":471341.1800000119,"duration":468.53000000002794,"noteNumber":67,"velocity":36,"programNumber":1},{"time":471809.71000001195,"duration":468.53000000002794,"noteNumber":64,"velocity":36,"programNumber":1},{"time":472278.240000012,"duration":468.53000000002794,"noteNumber":62,"velocity":36,"programNumber":1},{"time":472746.770000012,"duration":468.53000000002794,"noteNumber":60,"velocity":36,"programNumber":1},{"time":473215.30000001204,"duration":937.0599999999977,"noteNumber":59,"velocity":36,"programNumber":1},{"time":474620.89000001206,"duration":234.26500000001397,"noteNumber":71,"velocity":36,"programNumber":1},{"time":474855.1550000121,"duration":234.26500000001397,"noteNumber":72,"velocity":36,"programNumber":1},{"time":475089.4200000121,"duration":468.53000000002794,"noteNumber":69,"velocity":36,"programNumber":1},{"time":476026.4800000121,"duration":234.26500000001397,"noteNumber":67,"velocity":36,"programNumber":1},{"time":476260.7450000121,"duration":234.26500000001397,"noteNumber":69,"velocity":36,"programNumber":1},{"time":476495.0100000121,"duration":468.53000000002794,"noteNumber":66,"velocity":36,"programNumber":1},{"time":477432.0700000122,"duration":468.53000000002794,"noteNumber":64,"velocity":36,"programNumber":1},{"time":477900.6000000122,"duration":468.53000000002794,"noteNumber":67,"velocity":36,"programNumber":1},{"time":478369.1300000122,"duration":468.53000000002794,"noteNumber":71,"velocity":36,"programNumber":1},{"time":478837.66000001226,"duration":937.0599999999977,"noteNumber":62,"velocity":36,"programNumber":1},{"time":479774.72000001225,"duration":468.53000000002794,"noteNumber":61,"velocity":36,"programNumber":1},{"time":480243.2500000123,"duration":468.53000000002794,"noteNumber":62,"velocity":36,"programNumber":1},{"time":480711.7800000123,"duration":468.53000000002794,"noteNumber":64,"velocity":36,"programNumber":1},{"time":481180.31000001234,"duration":468.53000000002794,"noteNumber":66,"velocity":36,"programNumber":1},{"time":481648.84000001237,"duration":468.53000000002794,"noteNumber":67,"velocity":36,"programNumber":1},{"time":482117.3700000124,"duration":468.53000000002794,"noteNumber":69,"velocity":36,"programNumber":1},{"time":482585.9000000124,"duration":468.53000000002794,"noteNumber":71,"velocity":36,"programNumber":1},{"time":483054.43000001245,"duration":468.53000000002794,"noteNumber":69,"velocity":36,"programNumber":1},{"time":483522.9600000125,"duration":234.26500000001397,"noteNumber":66,"velocity":36,"programNumber":1},{"time":483757.2250000125,"duration":234.26500000001397,"noteNumber":62,"velocity":36,"programNumber":1},{"time":483991.4900000125,"duration":234.26500000001397,"noteNumber":64,"velocity":36,"programNumber":1},{"time":484225.7550000125,"duration":234.26500000001397,"noteNumber":61,"velocity":36,"programNumber":1},{"time":484460.02000001253,"duration":468.53000000002794,"noteNumber":62,"velocity":36,"programNumber":1},{"time":484928.55000001256,"duration":468.53000000002794,"noteNumber":66,"velocity":36,"programNumber":1},{"time":485397.0800000126,"duration":468.53000000002794,"noteNumber":69,"velocity":36,"programNumber":1},{"time":485865.6100000126,"duration":937.0599999999977,"noteNumber":72,"velocity":36,"programNumber":1},{"time":486802.6700000126,"duration":468.53000000002794,"noteNumber":71,"velocity":36,"programNumber":1},{"time":487271.20000001264,"duration":937.0599999999977,"noteNumber":66,"velocity":36,"programNumber":1},{"time":488208.26000001264,"duration":468.53000000002794,"noteNumber":67,"velocity":36,"programNumber":1},{"time":489145.3200000127,"duration":468.53000000002794,"noteNumber":69,"velocity":36,"programNumber":1},{"time":489613.8500000127,"duration":468.53000000002794,"noteNumber":69,"velocity":36,"programNumber":1},{"time":490082.38000001275,"duration":1405.5900000000256,"noteNumber":69,"velocity":36,"programNumber":1},{"time":491487.9700000128,"duration":468.53000000002794,"noteNumber":67,"velocity":79,"programNumber":1},{"time":491956.5000000128,"duration":468.53000000002794,"noteNumber":71,"velocity":79,"programNumber":1},{"time":492425.03000001283,"duration":468.53000000002794,"noteNumber":67,"velocity":79,"programNumber":1},{"time":492893.56000001286,"duration":468.53000000002794,"noteNumber":66,"velocity":79,"programNumber":1},{"time":493362.0900000129,"duration":468.53000000002794,"noteNumber":69,"velocity":79,"programNumber":1},{"time":493830.6200000129,"duration":468.53000000002794,"noteNumber":62,"velocity":79,"programNumber":1},{"time":494299.15000001295,"duration":468.53000000002794,"noteNumber":67,"velocity":79,"programNumber":1},{"time":494767.680000013,"duration":468.53000000002794,"noteNumber":64,"velocity":79,"programNumber":1},{"time":495236.210000013,"duration":468.53000000002794,"noteNumber":60,"velocity":79,"programNumber":1},{"time":495704.74000001303,"duration":1405.5900000000256,"noteNumber":62,"velocity":79,"programNumber":1},{"time":497110.33000001305,"duration":468.53000000002794,"noteNumber":67,"velocity":79,"programNumber":1},{"time":497578.8600000131,"duration":468.53000000002794,"noteNumber":69,"velocity":79,"programNumber":1},{"time":498047.3900000131,"duration":468.53000000002794,"noteNumber":71,"velocity":79,"programNumber":1},{"time":498515.92000001314,"duration":468.53000000002794,"noteNumber":72,"velocity":79,"programNumber":1},{"time":498984.45000001317,"duration":468.53000000002794,"noteNumber":69,"velocity":79,"programNumber":1},{"time":499452.9800000132,"duration":468.53000000002794,"noteNumber":67,"velocity":79,"programNumber":1},{"time":499921.5100000132,"duration":468.53000000002794,"noteNumber":64,"velocity":79,"programNumber":1},{"time":500390.04000001325,"duration":468.53000000002794,"noteNumber":59,"velocity":79,"programNumber":1},{"time":500858.5700000133,"duration":468.53000000002794,"noteNumber":57,"velocity":79,"programNumber":1},{"time":501327.1000000133,"duration":1405.5900000000256,"noteNumber":59,"velocity":79,"programNumber":1},{"time":506012.40000001335,"duration":468.53000000002794,"noteNumber":67,"velocity":36,"programNumber":1},{"time":506480.9300000134,"duration":468.53000000002794,"noteNumber":67,"velocity":36,"programNumber":1},{"time":506949.4600000134,"duration":234.26500000001397,"noteNumber":69,"velocity":36,"programNumber":1},{"time":507183.7250000134,"duration":234.26500000001397,"noteNumber":67,"velocity":36,"programNumber":1},{"time":507417.99000001344,"duration":234.26500000001397,"noteNumber":64,"velocity":36,"programNumber":1},{"time":507652.25500001345,"duration":234.26500000001397,"noteNumber":66,"velocity":36,"programNumber":1},{"time":507886.52000001346,"duration":468.53000000002794,"noteNumber":69,"velocity":36,"programNumber":1},{"time":508355.0500000135,"duration":468.53000000002794,"noteNumber":69,"velocity":36,"programNumber":1},{"time":508823.5800000135,"duration":937.0599999999977,"noteNumber":69,"velocity":36,"programNumber":1},{"time":509760.6400000135,"duration":468.53000000002794,"noteNumber":60,"velocity":36,"programNumber":1},{"time":510229.17000001355,"duration":468.53000000002794,"noteNumber":60,"velocity":36,"programNumber":1},{"time":510697.7000000136,"duration":234.26500000001397,"noteNumber":62,"velocity":36,"programNumber":1},{"time":510931.9650000136,"duration":234.26500000001397,"noteNumber":60,"velocity":36,"programNumber":1},{"time":511166.2300000136,"duration":234.26500000001397,"noteNumber":59,"velocity":36,"programNumber":1},{"time":511400.4950000136,"duration":234.26500000001397,"noteNumber":57,"velocity":36,"programNumber":1},{"time":511634.76000001363,"duration":468.53000000002794,"noteNumber":55,"velocity":79,"programNumber":1},{"time":512103.29000001366,"duration":468.53000000002794,"noteNumber":55,"velocity":79,"programNumber":1},{"time":512571.8200000137,"duration":937.0599999999977,"noteNumber":55,"velocity":79,"programNumber":1},{"time":513508.8800000137,"duration":234.26500000001397,"noteNumber":72,"velocity":79,"programNumber":1},{"time":513743.1450000137,"duration":234.26500000001397,"noteNumber":71,"velocity":79,"programNumber":1},{"time":513977.4100000137,"duration":234.26500000001397,"noteNumber":72,"velocity":79,"programNumber":1},{"time":514211.6750000137,"duration":234.26500000001397,"noteNumber":69,"velocity":79,"programNumber":1},{"time":514445.94000001374,"duration":234.26500000001397,"noteNumber":71,"velocity":79,"programNumber":1},{"time":514680.20500001375,"duration":234.26500000001397,"noteNumber":69,"velocity":79,"programNumber":1},{"time":514914.47000001377,"duration":234.26500000001397,"noteNumber":71,"velocity":79,"programNumber":1},{"time":515148.7350000138,"duration":234.26500000001397,"noteNumber":66,"velocity":79,"programNumber":1},{"time":515383.0000000138,"duration":234.26500000001397,"noteNumber":67,"velocity":79,"programNumber":1},{"time":515617.2650000138,"duration":234.26500000001397,"noteNumber":66,"velocity":79,"programNumber":1},{"time":515851.5300000138,"duration":234.26500000001397,"noteNumber":67,"velocity":79,"programNumber":1},{"time":516085.79500001384,"duration":234.26500000001397,"noteNumber":69,"velocity":79,"programNumber":1},{"time":516320.06000001385,"duration":468.53000000002794,"noteNumber":71,"velocity":79,"programNumber":1},{"time":517257.1200000139,"duration":58.56624999997439,"noteNumber":67,"velocity":79,"programNumber":1},{"time":517315.6862500139,"duration":58.56624999997439,"noteNumber":66,"velocity":79,"programNumber":1},{"time":517374.25250001386,"duration":58.56624999997439,"noteNumber":67,"velocity":79,"programNumber":1},{"time":517432.81875001383,"duration":117.13250000000698,"noteNumber":66,"velocity":79,"programNumber":1},{"time":517549.95125001384,"duration":58.56624999997439,"noteNumber":67,"velocity":79,"programNumber":1},{"time":517608.5175000138,"duration":58.56624999997439,"noteNumber":66,"velocity":79,"programNumber":1},{"time":517667.0837500138,"duration":58.56624999997439,"noteNumber":67,"velocity":79,"programNumber":1},{"time":517725.65000001376,"duration":58.56624999997439,"noteNumber":66,"velocity":79,"programNumber":1},{"time":517784.21625001373,"duration":58.56624999997439,"noteNumber":67,"velocity":79,"programNumber":1},{"time":517842.7825000137,"duration":58.56624999997439,"noteNumber":66,"velocity":79,"programNumber":1},{"time":517901.3487500137,"duration":58.56624999997439,"noteNumber":67,"velocity":79,"programNumber":1},{"time":517959.91500001366,"duration":58.56624999997439,"noteNumber":66,"velocity":79,"programNumber":1},{"time":518018.48125001363,"duration":58.56624999997439,"noteNumber":67,"velocity":79,"programNumber":1},{"time":518077.0475000136,"duration":117.13250000000698,"noteNumber":66,"velocity":79,"programNumber":1},{"time":518194.1800000136,"duration":468.53000000002794,"noteNumber":67,"velocity":79,"programNumber":1},{"time":521005.3600000136,"duration":468.53000000002794,"noteNumber":67,"velocity":79,"programNumber":1},{"time":521473.89000001363,"duration":468.53000000002794,"noteNumber":67,"velocity":79,"programNumber":1},{"time":521942.42000001366,"duration":234.26500000001397,"noteNumber":69,"velocity":79,"programNumber":1},{"time":522176.6850000137,"duration":234.26500000001397,"noteNumber":67,"velocity":79,"programNumber":1},{"time":522410.9500000137,"duration":234.26500000001397,"noteNumber":64,"velocity":79,"programNumber":1},{"time":522645.2150000137,"duration":234.26500000001397,"noteNumber":66,"velocity":79,"programNumber":1},{"time":522879.4800000137,"duration":468.53000000002794,"noteNumber":69,"velocity":79,"programNumber":1},{"time":523348.01000001375,"duration":468.53000000002794,"noteNumber":69,"velocity":79,"programNumber":1},{"time":523816.5400000138,"duration":937.0600000000559,"noteNumber":69,"velocity":79,"programNumber":1},{"time":524753.6000000138,"duration":468.53000000002794,"noteNumber":60,"velocity":79,"programNumber":1},{"time":525222.1300000139,"duration":468.53000000002794,"noteNumber":60,"velocity":79,"programNumber":1},{"time":525690.6600000139,"duration":234.26500000001397,"noteNumber":62,"velocity":79,"programNumber":1},{"time":525924.9250000139,"duration":234.26500000001397,"noteNumber":60,"velocity":79,"programNumber":1},{"time":526159.1900000139,"duration":234.26500000001397,"noteNumber":59,"velocity":79,"programNumber":1},{"time":526393.4550000139,"duration":234.26500000001397,"noteNumber":57,"velocity":79,"programNumber":1},{"time":526627.720000014,"duration":468.53000000002794,"noteNumber":55,"velocity":79,"programNumber":1},{"time":527096.250000014,"duration":468.53000000002794,"noteNumber":55,"velocity":79,"programNumber":1},{"time":527564.780000014,"duration":937.0600000000559,"noteNumber":55,"velocity":79,"programNumber":1},{"time":528501.840000014,"duration":234.26500000001397,"noteNumber":72,"velocity":79,"programNumber":1},{"time":528736.1050000141,"duration":234.26500000001397,"noteNumber":71,"velocity":79,"programNumber":1},{"time":528970.3700000141,"duration":234.26500000001397,"noteNumber":72,"velocity":79,"programNumber":1},{"time":529204.6350000141,"duration":234.26500000001397,"noteNumber":69,"velocity":79,"programNumber":1},{"time":529438.9000000141,"duration":234.26500000001397,"noteNumber":71,"velocity":79,"programNumber":1},{"time":529673.1650000141,"duration":234.26500000001397,"noteNumber":69,"velocity":79,"programNumber":1},{"time":529907.4300000141,"duration":234.26500000001397,"noteNumber":71,"velocity":79,"programNumber":1},{"time":530141.6950000142,"duration":234.26500000001397,"noteNumber":66,"velocity":79,"programNumber":1},{"time":530375.9600000142,"duration":234.26500000001397,"noteNumber":67,"velocity":79,"programNumber":1},{"time":530610.2250000142,"duration":234.26500000001397,"noteNumber":66,"velocity":79,"programNumber":1},{"time":530844.4900000142,"duration":234.26500000001397,"noteNumber":67,"velocity":79,"programNumber":1},{"time":531078.7550000142,"duration":234.26500000001397,"noteNumber":69,"velocity":79,"programNumber":1},{"time":531313.0200000142,"duration":468.53000000002794,"noteNumber":71,"velocity":79,"programNumber":1},{"time":532250.0800000143,"duration":58.566250000032596,"noteNumber":68,"velocity":79,"programNumber":1},{"time":532308.6462500143,"duration":58.566250000032596,"noteNumber":66,"velocity":79,"programNumber":1},{"time":532367.2125000143,"duration":58.566250000032596,"noteNumber":68,"velocity":79,"programNumber":1},{"time":532425.7787500144,"duration":117.13249999994878,"noteNumber":66,"velocity":79,"programNumber":1},{"time":532542.9112500143,"duration":58.566250000032596,"noteNumber":68,"velocity":79,"programNumber":1},{"time":532601.4775000144,"duration":58.566250000032596,"noteNumber":66,"velocity":79,"programNumber":1},{"time":532660.0437500144,"duration":58.566250000032596,"noteNumber":68,"velocity":79,"programNumber":1},{"time":532718.6100000144,"duration":58.566250000032596,"noteNumber":66,"velocity":79,"programNumber":1},{"time":532777.1762500145,"duration":58.566250000032596,"noteNumber":68,"velocity":79,"programNumber":1},{"time":532835.7425000145,"duration":58.566250000032596,"noteNumber":66,"velocity":79,"programNumber":1},{"time":532894.3087500145,"duration":58.566250000032596,"noteNumber":68,"velocity":79,"programNumber":1},{"time":532952.8750000146,"duration":58.566250000032596,"noteNumber":66,"velocity":79,"programNumber":1},{"time":533011.4412500146,"duration":58.566250000032596,"noteNumber":68,"velocity":79,"programNumber":1},{"time":533070.0075000146,"duration":117.13249999994878,"noteNumber":66,"velocity":79,"programNumber":1},{"time":533187.1400000146,"duration":468.53000000002794,"noteNumber":67,"velocity":79,"programNumber":1},{"time":534124.2000000146,"duration":468.53000000002794,"noteNumber":64,"velocity":79,"programNumber":1},{"time":534592.7300000146,"duration":234.26500000001397,"noteNumber":66,"velocity":79,"programNumber":1},{"time":534826.9950000147,"duration":234.26500000001397,"noteNumber":67,"velocity":79,"programNumber":1},{"time":535061.2600000147,"duration":234.26500000001397,"noteNumber":67,"velocity":79,"programNumber":1},{"time":535295.5250000147,"duration":234.26500000001397,"noteNumber":66,"velocity":79,"programNumber":1},{"time":535529.7900000147,"duration":234.26500000001397,"noteNumber":71,"velocity":79,"programNumber":1},{"time":535764.0550000147,"duration":234.26500000001397,"noteNumber":69,"velocity":79,"programNumber":1},{"time":535998.3200000147,"duration":234.26500000001397,"noteNumber":69,"velocity":79,"programNumber":1},{"time":536232.5850000147,"duration":234.26500000001397,"noteNumber":67,"velocity":79,"programNumber":1},{"time":536466.8500000148,"duration":234.26500000001397,"noteNumber":66,"velocity":79,"programNumber":1},{"time":536701.1150000148,"duration":234.26500000001397,"noteNumber":64,"velocity":79,"programNumber":1},{"time":536935.3800000148,"duration":234.26500000001397,"noteNumber":67,"velocity":79,"programNumber":1},{"time":537169.6450000148,"duration":234.26500000001397,"noteNumber":66,"velocity":79,"programNumber":1},{"time":537403.9100000148,"duration":234.26500000001397,"noteNumber":62,"velocity":79,"programNumber":1},{"time":537638.1750000148,"duration":234.26500000001397,"noteNumber":61,"velocity":79,"programNumber":1},{"time":537872.4400000148,"duration":234.26500000001397,"noteNumber":64,"velocity":79,"programNumber":1},{"time":538106.7050000149,"duration":234.26500000001397,"noteNumber":62,"velocity":79,"programNumber":1},{"time":538340.9700000149,"duration":234.26500000001397,"noteNumber":66,"velocity":79,"programNumber":1},{"time":538575.2350000149,"duration":234.26500000001397,"noteNumber":64,"velocity":79,"programNumber":1},{"time":538809.5000000149,"duration":234.26500000001397,"noteNumber":67,"velocity":79,"programNumber":1},{"time":539043.7650000149,"duration":234.26500000001397,"noteNumber":66,"velocity":79,"programNumber":1},{"time":539278.0300000149,"duration":234.26500000001397,"noteNumber":64,"velocity":79,"programNumber":1},{"time":539512.295000015,"duration":234.26500000001397,"noteNumber":62,"velocity":79,"programNumber":1},{"time":539746.560000015,"duration":468.53000000002794,"noteNumber":71,"velocity":79,"programNumber":1},{"time":540215.090000015,"duration":468.53000000002794,"noteNumber":67,"velocity":79,"programNumber":1},{"time":540683.620000015,"duration":468.53000000002794,"noteNumber":66,"velocity":79,"programNumber":1},{"time":541152.150000015,"duration":468.53000000002794,"noteNumber":64,"velocity":79,"programNumber":1},{"time":541620.6800000151,"duration":468.53000000002794,"noteNumber":64,"velocity":79,"programNumber":1},{"time":542089.2100000151,"duration":234.26500000001397,"noteNumber":66,"velocity":79,"programNumber":1},{"time":542323.4750000151,"duration":234.26500000001397,"noteNumber":67,"velocity":79,"programNumber":1},{"time":542557.7400000151,"duration":234.26500000001397,"noteNumber":67,"velocity":79,"programNumber":1},{"time":542792.0050000151,"duration":234.26500000001397,"noteNumber":66,"velocity":79,"programNumber":1},{"time":543026.2700000152,"duration":234.26500000001397,"noteNumber":71,"velocity":79,"programNumber":1},{"time":543260.5350000152,"duration":234.26500000001397,"noteNumber":69,"velocity":79,"programNumber":1},{"time":543494.8000000152,"duration":234.26500000001397,"noteNumber":69,"velocity":79,"programNumber":1},{"time":543729.0650000152,"duration":234.26500000001397,"noteNumber":67,"velocity":79,"programNumber":1},{"time":543963.3300000152,"duration":234.26500000001397,"noteNumber":66,"velocity":79,"programNumber":1},{"time":544197.5950000152,"duration":234.26500000001397,"noteNumber":64,"velocity":79,"programNumber":1},{"time":544431.8600000152,"duration":234.26500000001397,"noteNumber":67,"velocity":79,"programNumber":1},{"time":544666.1250000153,"duration":234.26500000001397,"noteNumber":66,"velocity":79,"programNumber":1},{"time":544900.3900000153,"duration":234.26500000001397,"noteNumber":62,"velocity":79,"programNumber":1},{"time":545134.6550000153,"duration":234.26500000001397,"noteNumber":61,"velocity":79,"programNumber":1},{"time":545368.9200000153,"duration":234.26500000001397,"noteNumber":64,"velocity":79,"programNumber":1},{"time":545603.1850000153,"duration":234.26500000001397,"noteNumber":62,"velocity":79,"programNumber":1},{"time":545837.4500000153,"duration":234.26500000001397,"noteNumber":66,"velocity":79,"programNumber":1},{"time":546071.7150000153,"duration":234.26500000001397,"noteNumber":64,"velocity":79,"programNumber":1},{"time":546305.9800000153,"duration":234.26500000001397,"noteNumber":67,"velocity":79,"programNumber":1},{"time":546540.2450000154,"duration":234.26500000001397,"noteNumber":66,"velocity":79,"programNumber":1},{"time":546774.5100000154,"duration":234.26500000001397,"noteNumber":71,"velocity":79,"programNumber":1},{"time":547008.7750000154,"duration":234.26500000001397,"noteNumber":69,"velocity":79,"programNumber":1},{"time":547243.0400000154,"duration":234.26500000001397,"noteNumber":69,"velocity":79,"programNumber":1},{"time":547477.3050000154,"duration":234.26500000001397,"noteNumber":67,"velocity":79,"programNumber":1},{"time":547711.5700000154,"duration":234.26500000001397,"noteNumber":66,"velocity":79,"programNumber":1},{"time":547945.8350000154,"duration":234.26500000001397,"noteNumber":64,"velocity":79,"programNumber":1},{"time":548180.1000000155,"duration":937.0600000000559,"noteNumber":66,"velocity":79,"programNumber":1},{"time":550522.7500000155,"duration":468.53000000002794,"noteNumber":62,"velocity":36,"programNumber":1},{"time":551459.8100000155,"duration":468.53000000002794,"noteNumber":62,"velocity":36,"programNumber":1},{"time":552396.8700000156,"duration":468.53000000002794,"noteNumber":60,"velocity":36,"programNumber":1},{"time":553333.9300000157,"duration":468.53000000002794,"noteNumber":64,"velocity":36,"programNumber":1},{"time":554270.9900000157,"duration":468.53000000002794,"noteNumber":60,"velocity":36,"programNumber":1},{"time":555208.0500000158,"duration":468.53000000002794,"noteNumber":60,"velocity":36,"programNumber":1},{"time":556145.1100000158,"duration":468.53000000002794,"noteNumber":59,"velocity":36,"programNumber":1},{"time":556613.6400000158,"duration":234.26500000001397,"noteNumber":79,"velocity":79,"programNumber":1},{"time":556847.9050000159,"duration":234.26500000001397,"noteNumber":78,"velocity":79,"programNumber":1},{"time":557082.1700000159,"duration":234.26500000001397,"noteNumber":76,"velocity":79,"programNumber":1},{"time":557316.4350000159,"duration":234.26500000001397,"noteNumber":74,"velocity":79,"programNumber":1},{"time":557550.7000000159,"duration":234.26500000001397,"noteNumber":76,"velocity":79,"programNumber":1},{"time":557784.9650000159,"duration":234.26500000001397,"noteNumber":74,"velocity":79,"programNumber":1},{"time":558019.2300000159,"duration":234.26500000001397,"noteNumber":72,"velocity":79,"programNumber":1},{"time":558253.495000016,"duration":234.26500000001397,"noteNumber":71,"velocity":79,"programNumber":1},{"time":558487.760000016,"duration":234.26499999989755,"noteNumber":72,"velocity":79,"programNumber":1},{"time":558722.0250000159,"duration":234.26500000001397,"noteNumber":71,"velocity":79,"programNumber":1},{"time":558956.2900000159,"duration":234.26500000001397,"noteNumber":69,"velocity":79,"programNumber":1},{"time":559190.5550000159,"duration":234.26500000001397,"noteNumber":67,"velocity":79,"programNumber":1},{"time":559424.8200000159,"duration":234.26500000001397,"noteNumber":69,"velocity":79,"programNumber":1},{"time":559659.0850000159,"duration":234.26500000001397,"noteNumber":67,"velocity":79,"programNumber":1},{"time":559893.3500000159,"duration":234.26500000001397,"noteNumber":66,"velocity":79,"programNumber":1},{"time":560127.6150000159,"duration":234.26500000001397,"noteNumber":64,"velocity":79,"programNumber":1},{"time":560361.880000016,"duration":234.26500000001397,"noteNumber":66,"velocity":79,"programNumber":1},{"time":560596.145000016,"duration":234.26500000001397,"noteNumber":64,"velocity":79,"programNumber":1},{"time":560830.410000016,"duration":234.26500000001397,"noteNumber":62,"velocity":79,"programNumber":1},{"time":561064.675000016,"duration":234.26500000001397,"noteNumber":61,"velocity":79,"programNumber":1},{"time":561298.940000016,"duration":468.53000000002794,"noteNumber":62,"velocity":79,"programNumber":1},{"time":561767.470000016,"duration":937.0600000000559,"noteNumber":69,"velocity":79,"programNumber":1},{"time":562704.5300000161,"duration":58.566250000032596,"noteNumber":69,"velocity":79,"programNumber":1},{"time":562763.0962500161,"duration":58.566250000032596,"noteNumber":67,"velocity":79,"programNumber":1},{"time":562821.6625000162,"duration":58.566250000032596,"noteNumber":69,"velocity":79,"programNumber":1},{"time":562880.2287500162,"duration":58.566250000032596,"noteNumber":67,"velocity":79,"programNumber":1},{"time":562938.7950000162,"duration":58.566250000032596,"noteNumber":69,"velocity":79,"programNumber":1},{"time":562997.3612500163,"duration":58.566250000032596,"noteNumber":67,"velocity":79,"programNumber":1},{"time":563055.9275000163,"duration":58.566250000032596,"noteNumber":69,"velocity":79,"programNumber":1},{"time":563114.4937500163,"duration":58.566250000032596,"noteNumber":67,"velocity":79,"programNumber":1},{"time":563173.0600000164,"duration":468.53000000002794,"noteNumber":66,"velocity":79,"programNumber":1},{"time":565984.2400000164,"duration":468.53000000002794,"noteNumber":67,"velocity":79,"programNumber":1},{"time":566452.7700000164,"duration":468.53000000002794,"noteNumber":67,"velocity":79,"programNumber":1},{"time":566921.3000000165,"duration":58.566250000032596,"noteNumber":69,"velocity":79,"programNumber":1},{"time":566979.8662500165,"duration":58.566250000032596,"noteNumber":67,"velocity":79,"programNumber":1},{"time":567038.4325000165,"duration":351.39749999996275,"noteNumber":67,"velocity":79,"programNumber":1},{"time":567389.8300000165,"duration":234.26500000001397,"noteNumber":66,"velocity":79,"programNumber":1},{"time":567624.0950000165,"duration":234.26500000001397,"noteNumber":64,"velocity":79,"programNumber":1},{"time":567858.3600000165,"duration":468.53000000002794,"noteNumber":69,"velocity":79,"programNumber":1},{"time":568326.8900000165,"duration":468.53000000002794,"noteNumber":69,"velocity":79,"programNumber":1},{"time":568795.4200000166,"duration":937.0600000000559,"noteNumber":69,"velocity":79,"programNumber":1},{"time":569732.4800000166,"duration":468.53000000002794,"noteNumber":60,"velocity":79,"programNumber":1},{"time":570201.0100000167,"duration":468.53000000002794,"noteNumber":60,"velocity":79,"programNumber":1},{"time":570669.5400000167,"duration":234.26500000001397,"noteNumber":62,"velocity":79,"programNumber":1},{"time":570903.8050000167,"duration":234.26500000001397,"noteNumber":60,"velocity":79,"programNumber":1},{"time":571138.0700000167,"duration":234.26500000001397,"noteNumber":59,"velocity":79,"programNumber":1},{"time":571372.3350000167,"duration":234.26500000001397,"noteNumber":57,"velocity":79,"programNumber":1},{"time":571606.6000000167,"duration":468.53000000002794,"noteNumber":55,"velocity":79,"programNumber":1},{"time":572075.1300000168,"duration":468.53000000002794,"noteNumber":55,"velocity":79,"programNumber":1},{"time":572543.6600000168,"duration":937.0600000000559,"noteNumber":55,"velocity":79,"programNumber":1},{"time":573480.7200000169,"duration":234.26500000001397,"noteNumber":72,"velocity":79,"programNumber":1},{"time":573714.9850000169,"duration":234.26500000001397,"noteNumber":71,"velocity":79,"programNumber":1},{"time":573949.2500000169,"duration":234.26500000001397,"noteNumber":72,"velocity":79,"programNumber":1},{"time":574183.5150000169,"duration":234.26500000001397,"noteNumber":69,"velocity":79,"programNumber":1},{"time":574417.7800000169,"duration":234.26500000001397,"noteNumber":71,"velocity":79,"programNumber":1},{"time":574652.0450000169,"duration":234.26500000001397,"noteNumber":69,"velocity":79,"programNumber":1},{"time":574886.3100000169,"duration":234.26500000001397,"noteNumber":71,"velocity":79,"programNumber":1},{"time":575120.575000017,"duration":234.26500000001397,"noteNumber":66,"velocity":79,"programNumber":1},{"time":575354.840000017,"duration":234.26500000001397,"noteNumber":67,"velocity":79,"programNumber":1},{"time":575589.105000017,"duration":234.26500000001397,"noteNumber":66,"velocity":79,"programNumber":1},{"time":575823.370000017,"duration":234.26500000001397,"noteNumber":67,"velocity":79,"programNumber":1},{"time":576057.635000017,"duration":234.26500000001397,"noteNumber":69,"velocity":79,"programNumber":1},{"time":576291.900000017,"duration":468.53000000002794,"noteNumber":71,"velocity":79,"programNumber":1},{"time":577228.9600000171,"duration":58.566250000032596,"noteNumber":69,"velocity":79,"programNumber":1},{"time":577287.5262500171,"duration":58.566250000032596,"noteNumber":66,"velocity":79,"programNumber":1},{"time":577346.0925000171,"duration":58.566250000032596,"noteNumber":69,"velocity":79,"programNumber":1},{"time":577404.6587500172,"duration":117.13249999994878,"noteNumber":66,"velocity":79,"programNumber":1},{"time":577521.7912500171,"duration":58.566250000032596,"noteNumber":69,"velocity":79,"programNumber":1},{"time":577580.3575000172,"duration":58.566250000032596,"noteNumber":66,"velocity":79,"programNumber":1},{"time":577638.9237500172,"duration":58.566250000032596,"noteNumber":69,"velocity":79,"programNumber":1},{"time":577697.4900000172,"duration":58.566250000032596,"noteNumber":66,"velocity":79,"programNumber":1},{"time":577756.0562500173,"duration":58.566250000032596,"noteNumber":69,"velocity":79,"programNumber":1},{"time":577814.6225000173,"duration":58.566250000032596,"noteNumber":66,"velocity":79,"programNumber":1},{"time":577873.1887500173,"duration":58.566250000032596,"noteNumber":69,"velocity":79,"programNumber":1},{"time":577931.7550000174,"duration":117.13249999994878,"noteNumber":66,"velocity":79,"programNumber":1},{"time":578048.8875000173,"duration":58.566250000032596,"noteNumber":69,"velocity":79,"programNumber":1},{"time":578107.4537500173,"duration":58.566250000032596,"noteNumber":66,"velocity":79,"programNumber":1},{"time":578166.0200000174,"duration":468.53000000002794,"noteNumber":67,"velocity":79,"programNumber":1},{"time":579103.0800000174,"duration":468.53000000002794,"noteNumber":64,"velocity":79,"programNumber":1},{"time":579571.6100000174,"duration":234.26500000001397,"noteNumber":66,"velocity":79,"programNumber":1},{"time":579805.8750000175,"duration":234.26500000001397,"noteNumber":67,"velocity":79,"programNumber":1},{"time":580040.1400000175,"duration":234.26500000001397,"noteNumber":67,"velocity":79,"programNumber":1},{"time":580274.4050000175,"duration":234.26500000001397,"noteNumber":66,"velocity":79,"programNumber":1},{"time":580508.6700000175,"duration":234.26500000001397,"noteNumber":71,"velocity":79,"programNumber":1},{"time":580742.9350000175,"duration":234.26500000001397,"noteNumber":69,"velocity":79,"programNumber":1},{"time":580977.2000000175,"duration":234.26500000001397,"noteNumber":69,"velocity":79,"programNumber":1},{"time":581211.4650000175,"duration":234.26500000001397,"noteNumber":67,"velocity":79,"programNumber":1},{"time":581445.7300000176,"duration":234.26500000001397,"noteNumber":66,"velocity":79,"programNumber":1},{"time":581679.9950000176,"duration":234.26500000001397,"noteNumber":64,"velocity":79,"programNumber":1},{"time":581914.2600000176,"duration":234.26500000001397,"noteNumber":67,"velocity":79,"programNumber":1},{"time":582148.5250000176,"duration":234.26500000001397,"noteNumber":66,"velocity":79,"programNumber":1},{"time":582382.7900000176,"duration":234.26500000001397,"noteNumber":62,"velocity":79,"programNumber":1},{"time":582617.0550000176,"duration":234.26500000001397,"noteNumber":61,"velocity":79,"programNumber":1},{"time":582851.3200000176,"duration":234.26500000001397,"noteNumber":64,"velocity":79,"programNumber":1},{"time":583085.5850000177,"duration":234.26500000001397,"noteNumber":62,"velocity":79,"programNumber":1},{"time":583319.8500000177,"duration":234.26500000001397,"noteNumber":66,"velocity":79,"programNumber":1},{"time":583554.1150000177,"duration":234.26500000001397,"noteNumber":64,"velocity":79,"programNumber":1},{"time":583788.3800000177,"duration":234.26500000001397,"noteNumber":67,"velocity":79,"programNumber":1},{"time":584022.6450000177,"duration":234.26500000001397,"noteNumber":66,"velocity":79,"programNumber":1},{"time":584256.9100000177,"duration":234.26500000001397,"noteNumber":64,"velocity":79,"programNumber":1},{"time":584491.1750000177,"duration":234.26500000001397,"noteNumber":62,"velocity":79,"programNumber":1},{"time":584725.4400000178,"duration":468.53000000002794,"noteNumber":71,"velocity":79,"programNumber":1},{"time":585193.9700000178,"duration":468.53000000002794,"noteNumber":67,"velocity":79,"programNumber":1},{"time":585662.5000000178,"duration":468.53000000002794,"noteNumber":66,"velocity":79,"programNumber":1},{"time":586131.0300000178,"duration":468.53000000002794,"noteNumber":64,"velocity":79,"programNumber":1},{"time":586599.5600000179,"duration":468.53000000002794,"noteNumber":64,"velocity":79,"programNumber":1},{"time":587068.0900000179,"duration":234.26500000001397,"noteNumber":66,"velocity":79,"programNumber":1},{"time":587302.3550000179,"duration":234.26500000001397,"noteNumber":67,"velocity":79,"programNumber":1},{"time":587536.6200000179,"duration":234.26500000001397,"noteNumber":67,"velocity":79,"programNumber":1},{"time":587770.8850000179,"duration":234.26500000001397,"noteNumber":66,"velocity":79,"programNumber":1},{"time":588005.150000018,"duration":234.26500000001397,"noteNumber":71,"velocity":79,"programNumber":1},{"time":588239.415000018,"duration":234.26500000001397,"noteNumber":69,"velocity":79,"programNumber":1},{"time":588473.680000018,"duration":234.26500000001397,"noteNumber":69,"velocity":79,"programNumber":1},{"time":588707.945000018,"duration":234.26500000001397,"noteNumber":67,"velocity":79,"programNumber":1},{"time":588942.210000018,"duration":234.26500000001397,"noteNumber":66,"velocity":79,"programNumber":1},{"time":589176.475000018,"duration":234.26500000001397,"noteNumber":64,"velocity":79,"programNumber":1},{"time":589410.740000018,"duration":234.26500000001397,"noteNumber":67,"velocity":79,"programNumber":1},{"time":589645.005000018,"duration":234.26500000001397,"noteNumber":66,"velocity":79,"programNumber":1},{"time":589879.2700000181,"duration":234.26500000001397,"noteNumber":62,"velocity":79,"programNumber":1},{"time":590113.5350000181,"duration":234.26500000001397,"noteNumber":61,"velocity":79,"programNumber":1},{"time":590347.8000000181,"duration":234.26500000001397,"noteNumber":64,"velocity":79,"programNumber":1},{"time":590582.0650000181,"duration":234.26500000001397,"noteNumber":62,"velocity":79,"programNumber":1},{"time":590816.3300000181,"duration":234.26500000001397,"noteNumber":66,"velocity":79,"programNumber":1},{"time":591050.5950000181,"duration":234.26500000001397,"noteNumber":64,"velocity":79,"programNumber":1},{"time":591284.8600000181,"duration":234.26500000001397,"noteNumber":67,"velocity":79,"programNumber":1},{"time":591519.1250000182,"duration":234.26500000001397,"noteNumber":66,"velocity":79,"programNumber":1},{"time":591753.3900000182,"duration":234.26500000001397,"noteNumber":71,"velocity":79,"programNumber":1},{"time":591987.6550000182,"duration":234.26500000001397,"noteNumber":69,"velocity":79,"programNumber":1},{"time":592221.9200000182,"duration":234.26500000001397,"noteNumber":69,"velocity":79,"programNumber":1},{"time":592456.1850000182,"duration":234.26500000001397,"noteNumber":67,"velocity":79,"programNumber":1},{"time":592690.4500000182,"duration":234.26500000001397,"noteNumber":66,"velocity":79,"programNumber":1},{"time":592924.7150000182,"duration":234.26500000001397,"noteNumber":64,"velocity":79,"programNumber":1},{"time":593158.9800000183,"duration":937.0600000000559,"noteNumber":66,"velocity":79,"programNumber":1},{"time":595501.6300000183,"duration":468.53000000002794,"noteNumber":62,"velocity":36,"programNumber":1},{"time":596438.6900000183,"duration":468.53000000002794,"noteNumber":62,"velocity":36,"programNumber":1},{"time":597375.7500000184,"duration":468.53000000002794,"noteNumber":60,"velocity":36,"programNumber":1},{"time":598312.8100000184,"duration":468.53000000002794,"noteNumber":64,"velocity":36,"programNumber":1},{"time":599249.8700000185,"duration":468.53000000002794,"noteNumber":60,"velocity":36,"programNumber":1},{"time":600186.9300000186,"duration":468.53000000002794,"noteNumber":60,"velocity":36,"programNumber":1},{"time":601123.9900000186,"duration":468.53000000002794,"noteNumber":59,"velocity":36,"programNumber":1},{"time":601592.5200000186,"duration":234.26500000001397,"noteNumber":79,"velocity":79,"programNumber":1},{"time":601826.7850000187,"duration":234.26500000001397,"noteNumber":78,"velocity":79,"programNumber":1},{"time":602061.0500000187,"duration":234.26500000001397,"noteNumber":76,"velocity":79,"programNumber":1},{"time":602295.3150000187,"duration":234.26500000001397,"noteNumber":74,"velocity":79,"programNumber":1},{"time":602529.5800000187,"duration":234.26500000001397,"noteNumber":76,"velocity":79,"programNumber":1},{"time":602763.8450000187,"duration":234.26500000001397,"noteNumber":74,"velocity":79,"programNumber":1},{"time":602998.1100000187,"duration":234.26500000001397,"noteNumber":72,"velocity":79,"programNumber":1},{"time":603232.3750000187,"duration":234.26500000001397,"noteNumber":71,"velocity":79,"programNumber":1},{"time":603466.6400000188,"duration":234.26500000001397,"noteNumber":72,"velocity":79,"programNumber":1},{"time":603700.9050000188,"duration":234.26500000001397,"noteNumber":71,"velocity":79,"programNumber":1},{"time":603935.1700000188,"duration":234.26500000001397,"noteNumber":69,"velocity":79,"programNumber":1},{"time":604169.4350000188,"duration":234.26500000001397,"noteNumber":67,"velocity":79,"programNumber":1},{"time":604403.7000000188,"duration":234.26500000001397,"noteNumber":69,"velocity":79,"programNumber":1},{"time":604637.9650000188,"duration":234.26500000001397,"noteNumber":67,"velocity":79,"programNumber":1},{"time":604872.2300000188,"duration":234.26500000001397,"noteNumber":66,"velocity":79,"programNumber":1},{"time":605106.4950000189,"duration":234.26500000001397,"noteNumber":64,"velocity":79,"programNumber":1},{"time":605340.7600000189,"duration":234.26500000001397,"noteNumber":66,"velocity":79,"programNumber":1},{"time":605575.0250000189,"duration":234.26500000001397,"noteNumber":64,"velocity":79,"programNumber":1},{"time":605809.2900000189,"duration":234.26500000001397,"noteNumber":62,"velocity":79,"programNumber":1},{"time":606043.5550000189,"duration":234.26500000001397,"noteNumber":61,"velocity":79,"programNumber":1},{"time":606277.8200000189,"duration":468.53000000002794,"noteNumber":62,"velocity":79,"programNumber":1},{"time":606746.350000019,"duration":937.0600000000559,"noteNumber":69,"velocity":79,"programNumber":1},{"time":607683.410000019,"duration":58.566250000032596,"noteNumber":69,"velocity":79,"programNumber":1},{"time":607741.976250019,"duration":58.566250000032596,"noteNumber":67,"velocity":79,"programNumber":1},{"time":607800.5425000191,"duration":58.566250000032596,"noteNumber":69,"velocity":79,"programNumber":1},{"time":607859.1087500191,"duration":58.566250000032596,"noteNumber":67,"velocity":79,"programNumber":1},{"time":607917.6750000191,"duration":58.566250000032596,"noteNumber":69,"velocity":79,"programNumber":1},{"time":607976.2412500192,"duration":58.566250000032596,"noteNumber":67,"velocity":79,"programNumber":1},{"time":608034.8075000192,"duration":58.566250000032596,"noteNumber":69,"velocity":79,"programNumber":1},{"time":608093.3737500192,"duration":58.566250000032596,"noteNumber":67,"velocity":79,"programNumber":1},{"time":608151.9400000193,"duration":468.53000000002794,"noteNumber":66,"velocity":79,"programNumber":1},{"time":610963.1200000193,"duration":468.53000000002794,"noteNumber":67,"velocity":79,"programNumber":1},{"time":611431.6500000193,"duration":468.53000000002794,"noteNumber":67,"velocity":79,"programNumber":1},{"time":611900.1800000194,"duration":58.566250000032596,"noteNumber":69,"velocity":79,"programNumber":1},{"time":611958.7462500194,"duration":58.566250000032596,"noteNumber":67,"velocity":79,"programNumber":1},{"time":612017.3125000194,"duration":351.39749999996275,"noteNumber":67,"velocity":79,"programNumber":1},{"time":612368.7100000194,"duration":234.26500000001397,"noteNumber":66,"velocity":79,"programNumber":1},{"time":612602.9750000194,"duration":234.26500000001397,"noteNumber":64,"velocity":79,"programNumber":1},{"time":612837.2400000194,"duration":468.53000000002794,"noteNumber":69,"velocity":79,"programNumber":1},{"time":613305.7700000195,"duration":468.53000000002794,"noteNumber":69,"velocity":79,"programNumber":1},{"time":613774.3000000195,"duration":937.0600000000559,"noteNumber":69,"velocity":79,"programNumber":1},{"time":614711.3600000195,"duration":468.53000000002794,"noteNumber":60,"velocity":79,"programNumber":1},{"time":615179.8900000196,"duration":468.53000000002794,"noteNumber":60,"velocity":79,"programNumber":1},{"time":615648.4200000196,"duration":234.26500000001397,"noteNumber":62,"velocity":79,"programNumber":1},{"time":615882.6850000196,"duration":234.26500000001397,"noteNumber":60,"velocity":79,"programNumber":1},{"time":616116.9500000196,"duration":234.26500000001397,"noteNumber":59,"velocity":79,"programNumber":1},{"time":616351.2150000196,"duration":234.26500000001397,"noteNumber":57,"velocity":79,"programNumber":1},{"time":616585.4800000197,"duration":468.53000000002794,"noteNumber":55,"velocity":79,"programNumber":1},{"time":617054.0100000197,"duration":468.53000000002794,"noteNumber":55,"velocity":79,"programNumber":1},{"time":617522.5400000197,"duration":937.0600000000559,"noteNumber":55,"velocity":79,"programNumber":1},{"time":618459.6000000198,"duration":234.26500000001397,"noteNumber":72,"velocity":79,"programNumber":1},{"time":618693.8650000198,"duration":234.26500000001397,"noteNumber":71,"velocity":79,"programNumber":1},{"time":618928.1300000198,"duration":234.26500000001397,"noteNumber":72,"velocity":79,"programNumber":1},{"time":619162.3950000198,"duration":234.26500000001397,"noteNumber":69,"velocity":79,"programNumber":1},{"time":619396.6600000198,"duration":234.26500000001397,"noteNumber":71,"velocity":79,"programNumber":1},{"time":619630.9250000198,"duration":234.26500000001397,"noteNumber":69,"velocity":79,"programNumber":1},{"time":619865.1900000199,"duration":234.26500000001397,"noteNumber":71,"velocity":79,"programNumber":1},{"time":620099.4550000199,"duration":234.26500000001397,"noteNumber":66,"velocity":79,"programNumber":1},{"time":620333.7200000199,"duration":234.26500000001397,"noteNumber":67,"velocity":79,"programNumber":1},{"time":620567.9850000199,"duration":234.26500000001397,"noteNumber":66,"velocity":79,"programNumber":1},{"time":620802.2500000199,"duration":234.26500000001397,"noteNumber":67,"velocity":79,"programNumber":1},{"time":621036.5150000199,"duration":234.26500000001397,"noteNumber":69,"velocity":79,"programNumber":1},{"time":621270.7800000199,"duration":468.53000000002794,"noteNumber":71,"velocity":79,"programNumber":1},{"time":622207.84000002,"duration":58.566250000032596,"noteNumber":69,"velocity":79,"programNumber":1},{"time":622266.40625002,"duration":58.566250000032596,"noteNumber":66,"velocity":79,"programNumber":1},{"time":622324.97250002,"duration":58.566250000032596,"noteNumber":69,"velocity":79,"programNumber":1},{"time":622383.5387500201,"duration":117.13249999994878,"noteNumber":66,"velocity":79,"programNumber":1},{"time":622500.67125002,"duration":58.566250000032596,"noteNumber":69,"velocity":79,"programNumber":1},{"time":622559.2375000201,"duration":58.566250000032596,"noteNumber":66,"velocity":79,"programNumber":1},{"time":622617.8037500201,"duration":58.566250000032596,"noteNumber":69,"velocity":79,"programNumber":1},{"time":622676.3700000201,"duration":58.566250000032596,"noteNumber":66,"velocity":79,"programNumber":1},{"time":622734.9362500202,"duration":58.566250000032596,"noteNumber":69,"velocity":79,"programNumber":1},{"time":622793.5025000202,"duration":58.566250000032596,"noteNumber":66,"velocity":79,"programNumber":1},{"time":622852.0687500202,"duration":58.566250000032596,"noteNumber":69,"velocity":79,"programNumber":1},{"time":622910.6350000203,"duration":117.13249999994878,"noteNumber":66,"velocity":79,"programNumber":1},{"time":623027.7675000202,"duration":58.566250000032596,"noteNumber":69,"velocity":79,"programNumber":1},{"time":623086.3337500202,"duration":58.566250000032596,"noteNumber":66,"velocity":79,"programNumber":1},{"time":623144.9000000203,"duration":468.53000000002794,"noteNumber":67,"velocity":79,"programNumber":1},{"time":624081.9600000203,"duration":937.0600000000559,"noteNumber":67,"velocity":36,"programNumber":1},{"time":625019.0200000204,"duration":937.0600000000559,"noteNumber":67,"velocity":36,"programNumber":1},{"time":625956.0800000204,"duration":937.0600000000559,"noteNumber":66,"velocity":36,"programNumber":1},{"time":626893.1400000205,"duration":937.0600000000559,"noteNumber":67,"velocity":36,"programNumber":1},{"time":630641.3800000206,"duration":937.0600000000559,"noteNumber":65,"velocity":36,"programNumber":1},{"time":631578.4400000207,"duration":937.0600000000559,"noteNumber":74,"velocity":36,"programNumber":1},{"time":632515.5000000207,"duration":937.0600000000559,"noteNumber":74,"velocity":36,"programNumber":1},{"time":633452.5600000208,"duration":937.0600000000559,"noteNumber":73,"velocity":36,"programNumber":1},{"time":634389.6200000208,"duration":937.0600000000559,"noteNumber":74,"velocity":36,"programNumber":1},{"time":635326.6800000209,"duration":468.53000000002794,"noteNumber":65,"velocity":36,"programNumber":1},{"time":635795.2100000209,"duration":468.53000000002794,"noteNumber":65,"velocity":36,"programNumber":1},{"time":636263.740000021,"duration":234.26500000001397,"noteNumber":65,"velocity":36,"programNumber":1},{"time":636498.005000021,"duration":234.26500000001397,"noteNumber":64,"velocity":36,"programNumber":1},{"time":636732.270000021,"duration":937.0600000000559,"noteNumber":62,"velocity":36,"programNumber":1},{"time":637669.330000021,"duration":468.53000000002794,"noteNumber":61,"velocity":36,"programNumber":1},{"time":638137.860000021,"duration":937.0600000000559,"noteNumber":62,"velocity":36,"programNumber":1},{"time":639074.9200000211,"duration":937.0600000000559,"noteNumber":67,"velocity":36,"programNumber":1},{"time":640011.9800000212,"duration":937.0600000000559,"noteNumber":67,"velocity":36,"programNumber":1},{"time":640949.0400000212,"duration":937.0600000000559,"noteNumber":66,"velocity":36,"programNumber":1},{"time":641886.1000000213,"duration":937.0600000000559,"noteNumber":67,"velocity":36,"programNumber":1},{"time":645634.3400000214,"duration":937.0600000000559,"noteNumber":65,"velocity":36,"programNumber":1},{"time":646571.4000000214,"duration":937.0600000000559,"noteNumber":74,"velocity":36,"programNumber":1},{"time":647508.4600000215,"duration":937.0600000000559,"noteNumber":74,"velocity":36,"programNumber":1},{"time":648445.5200000216,"duration":937.0600000000559,"noteNumber":73,"velocity":36,"programNumber":1},{"time":649382.5800000216,"duration":937.0600000000559,"noteNumber":74,"velocity":36,"programNumber":1},{"time":650319.6400000217,"duration":468.53000000002794,"noteNumber":65,"velocity":36,"programNumber":1},{"time":650788.1700000217,"duration":468.53000000002794,"noteNumber":65,"velocity":36,"programNumber":1},{"time":651256.7000000217,"duration":234.26500000001397,"noteNumber":65,"velocity":36,"programNumber":1},{"time":651490.9650000217,"duration":234.26500000001397,"noteNumber":64,"velocity":36,"programNumber":1},{"time":651725.2300000218,"duration":937.0600000000559,"noteNumber":62,"velocity":36,"programNumber":1},{"time":652662.2900000218,"duration":468.53000000002794,"noteNumber":61,"velocity":36,"programNumber":1},{"time":653130.8200000218,"duration":937.0600000000559,"noteNumber":62,"velocity":36,"programNumber":1},{"time":654067.8800000219,"duration":468.53000000002794,"noteNumber":74,"velocity":79,"programNumber":1},{"time":654536.4100000219,"duration":234.26500000001397,"noteNumber":74,"velocity":79,"programNumber":1},{"time":654770.6750000219,"duration":234.26500000001397,"noteNumber":74,"velocity":79,"programNumber":1},{"time":655004.940000022,"duration":468.53000000002794,"noteNumber":77,"velocity":79,"programNumber":1},{"time":655473.470000022,"duration":468.53000000002794,"noteNumber":71,"velocity":79,"programNumber":1},{"time":655942.000000022,"duration":468.53000000002794,"noteNumber":71,"velocity":79,"programNumber":1},{"time":656410.530000022,"duration":234.26500000001397,"noteNumber":71,"velocity":79,"programNumber":1},{"time":656644.795000022,"duration":234.26499999989755,"noteNumber":71,"velocity":79,"programNumber":1},{"time":656879.060000022,"duration":468.53000000002794,"noteNumber":74,"velocity":79,"programNumber":1},{"time":657347.590000022,"duration":468.53000000002794,"noteNumber":72,"velocity":79,"programNumber":1},{"time":657816.120000022,"duration":468.53000000002794,"noteNumber":72,"velocity":79,"programNumber":1},{"time":658284.650000022,"duration":234.26500000001397,"noteNumber":72,"velocity":79,"programNumber":1},{"time":658518.915000022,"duration":234.26500000001397,"noteNumber":72,"velocity":79,"programNumber":1},{"time":658753.180000022,"duration":468.53000000002794,"noteNumber":75,"velocity":79,"programNumber":1},{"time":659221.7100000221,"duration":468.53000000002794,"noteNumber":69,"velocity":79,"programNumber":1},{"time":659690.2400000221,"duration":468.53000000002794,"noteNumber":69,"velocity":79,"programNumber":1},{"time":660158.7700000221,"duration":234.26500000001397,"noteNumber":69,"velocity":79,"programNumber":1},{"time":660393.0350000222,"duration":234.26500000001397,"noteNumber":69,"velocity":79,"programNumber":1},{"time":660627.3000000222,"duration":468.53000000002794,"noteNumber":72,"velocity":79,"programNumber":1},{"time":661095.8300000222,"duration":468.53000000002794,"noteNumber":70,"velocity":79,"programNumber":1},{"time":661564.3600000222,"duration":468.53000000002794,"noteNumber":55,"velocity":36,"programNumber":1},{"time":662032.8900000222,"duration":234.26500000001397,"noteNumber":55,"velocity":36,"programNumber":1},{"time":662267.1550000223,"duration":234.26500000001397,"noteNumber":55,"velocity":36,"programNumber":1},{"time":662501.4200000223,"duration":468.53000000002794,"noteNumber":58,"velocity":36,"programNumber":1},{"time":662969.9500000223,"duration":468.53000000002794,"noteNumber":57,"velocity":36,"programNumber":1},{"time":663438.4800000223,"duration":468.53000000002794,"noteNumber":57,"velocity":36,"programNumber":1},{"time":663907.0100000224,"duration":234.26500000001397,"noteNumber":57,"velocity":36,"programNumber":1},{"time":664141.2750000224,"duration":234.26500000001397,"noteNumber":57,"velocity":36,"programNumber":1},{"time":664375.5400000224,"duration":468.53000000002794,"noteNumber":60,"velocity":36,"programNumber":1},{"time":664844.0700000224,"duration":468.53000000002794,"noteNumber":58,"velocity":36,"programNumber":1},{"time":665312.6000000224,"duration":468.53000000002794,"noteNumber":58,"velocity":36,"programNumber":1},{"time":665781.1300000225,"duration":234.26500000001397,"noteNumber":58,"velocity":36,"programNumber":1},{"time":666015.3950000225,"duration":234.26500000001397,"noteNumber":58,"velocity":36,"programNumber":1},{"time":666249.6600000225,"duration":468.53000000002794,"noteNumber":62,"velocity":36,"programNumber":1},{"time":666718.1900000225,"duration":468.53000000002794,"noteNumber":60,"velocity":36,"programNumber":1},{"time":667186.7200000226,"duration":468.53000000002794,"noteNumber":60,"velocity":36,"programNumber":1},{"time":667655.2500000226,"duration":234.26500000001397,"noteNumber":60,"velocity":36,"programNumber":1},{"time":667889.5150000226,"duration":234.26500000001397,"noteNumber":60,"velocity":36,"programNumber":1},{"time":668123.7800000226,"duration":468.53000000002794,"noteNumber":63,"velocity":36,"programNumber":1},{"time":668592.3100000226,"duration":468.53000000002794,"noteNumber":62,"velocity":36,"programNumber":1},{"time":669060.8400000227,"duration":468.53000000002794,"noteNumber":74,"velocity":36,"programNumber":1},{"time":669529.3700000227,"duration":234.26500000001397,"noteNumber":74,"velocity":36,"programNumber":1},{"time":669763.6350000227,"duration":234.26500000001397,"noteNumber":74,"velocity":36,"programNumber":1},{"time":669997.9000000227,"duration":937.0600000000559,"noteNumber":72,"velocity":36,"programNumber":1},{"time":670934.9600000228,"duration":468.53000000002794,"noteNumber":70,"velocity":36,"programNumber":1},{"time":671403.4900000228,"duration":234.26500000001397,"noteNumber":70,"velocity":36,"programNumber":1},{"time":671637.7550000228,"duration":234.26500000001397,"noteNumber":70,"velocity":36,"programNumber":1},{"time":671872.0200000228,"duration":937.0600000000559,"noteNumber":69,"velocity":36,"programNumber":1},{"time":672809.0800000229,"duration":468.53000000002794,"noteNumber":69,"velocity":79,"programNumber":1},{"time":673277.6100000229,"duration":234.26500000001397,"noteNumber":69,"velocity":79,"programNumber":1},{"time":673511.8750000229,"duration":234.26500000001397,"noteNumber":69,"velocity":79,"programNumber":1},{"time":673746.140000023,"duration":937.0600000000559,"noteNumber":67,"velocity":79,"programNumber":1},{"time":674683.200000023,"duration":937.0599999999395,"noteNumber":61,"velocity":79,"programNumber":1},{"time":675620.260000023,"duration":468.53000000002794,"noteNumber":62,"velocity":79,"programNumber":1},{"time":676088.790000023,"duration":937.0600000000559,"noteNumber":66,"velocity":79,"programNumber":1},{"time":677025.850000023,"duration":468.53000000002794,"noteNumber":69,"velocity":79,"programNumber":1},{"time":677494.380000023,"duration":58.566250000032596,"noteNumber":67,"velocity":79,"programNumber":1},{"time":677552.9462500231,"duration":58.566250000032596,"noteNumber":66,"velocity":79,"programNumber":1},{"time":677611.5125000231,"duration":58.566250000032596,"noteNumber":67,"velocity":79,"programNumber":1},{"time":677670.0787500232,"duration":58.566250000032596,"noteNumber":66,"velocity":79,"programNumber":1},{"time":677728.6450000232,"duration":58.566250000032596,"noteNumber":67,"velocity":79,"programNumber":1},{"time":677787.2112500232,"duration":58.566250000032596,"noteNumber":66,"velocity":79,"programNumber":1},{"time":677845.7775000233,"duration":58.566250000032596,"noteNumber":67,"velocity":79,"programNumber":1},{"time":677904.3437500233,"duration":58.566250000032596,"noteNumber":66,"velocity":79,"programNumber":1},{"time":677962.9100000233,"duration":58.566250000032596,"noteNumber":67,"velocity":79,"programNumber":1},{"time":678021.4762500233,"duration":58.566250000032596,"noteNumber":66,"velocity":79,"programNumber":1},{"time":678080.0425000234,"duration":58.566250000032596,"noteNumber":67,"velocity":79,"programNumber":1},{"time":678138.6087500234,"duration":58.566250000032596,"noteNumber":66,"velocity":79,"programNumber":1},{"time":678197.1750000234,"duration":58.566250000032596,"noteNumber":67,"velocity":79,"programNumber":1},{"time":678255.7412500235,"duration":58.566250000032596,"noteNumber":66,"velocity":79,"programNumber":1},{"time":678314.3075000235,"duration":58.566250000032596,"noteNumber":67,"velocity":79,"programNumber":1},{"time":678372.8737500235,"duration":58.566250000032596,"noteNumber":66,"velocity":79,"programNumber":1},{"time":678431.4400000236,"duration":58.566250000032596,"noteNumber":67,"velocity":79,"programNumber":1},{"time":678490.0062500236,"duration":58.566250000032596,"noteNumber":66,"velocity":79,"programNumber":1},{"time":678548.5725000236,"duration":58.566250000032596,"noteNumber":67,"velocity":79,"programNumber":1},{"time":678607.1387500237,"duration":58.566250000032596,"noteNumber":66,"velocity":79,"programNumber":1},{"time":678665.7050000237,"duration":58.566250000032596,"noteNumber":67,"velocity":79,"programNumber":1},{"time":678724.2712500237,"duration":58.566250000032596,"noteNumber":66,"velocity":79,"programNumber":1},{"time":678782.8375000238,"duration":58.566250000032596,"noteNumber":67,"velocity":79,"programNumber":1},{"time":678841.4037500238,"duration":58.566250000032596,"noteNumber":66,"velocity":79,"programNumber":1},{"time":678899.9700000238,"duration":58.566250000032596,"noteNumber":67,"velocity":79,"programNumber":1},{"time":678958.5362500239,"duration":58.566250000032596,"noteNumber":66,"velocity":79,"programNumber":1},{"time":679017.1025000239,"duration":58.566250000032596,"noteNumber":67,"velocity":79,"programNumber":1},{"time":679075.6687500239,"duration":58.566250000032596,"noteNumber":66,"velocity":79,"programNumber":1},{"time":679134.235000024,"duration":58.566250000032596,"noteNumber":67,"velocity":79,"programNumber":1},{"time":679192.801250024,"duration":58.566250000032596,"noteNumber":66,"velocity":79,"programNumber":1},{"time":679251.367500024,"duration":58.566250000032596,"noteNumber":67,"velocity":79,"programNumber":1},{"time":679309.9337500241,"duration":58.566250000032596,"noteNumber":66,"velocity":79,"programNumber":1},{"time":679368.5000000241,"duration":937.0600000000559,"noteNumber":66,"velocity":79,"programNumber":1},{"time":682179.6800000241,"duration":468.53000000002794,"noteNumber":67,"velocity":79,"programNumber":1},{"time":682648.2100000242,"duration":468.53000000002794,"noteNumber":67,"velocity":79,"programNumber":1},{"time":683116.7400000242,"duration":234.26500000001397,"noteNumber":69,"velocity":79,"programNumber":1},{"time":683351.0050000242,"duration":234.26500000001397,"noteNumber":67,"velocity":79,"programNumber":1},{"time":683585.2700000242,"duration":234.26500000001397,"noteNumber":64,"velocity":79,"programNumber":1},{"time":683819.5350000242,"duration":234.26500000001397,"noteNumber":66,"velocity":79,"programNumber":1},{"time":684053.8000000243,"duration":468.53000000002794,"noteNumber":69,"velocity":79,"programNumber":1},{"time":684522.3300000243,"duration":468.53000000002794,"noteNumber":69,"velocity":79,"programNumber":1},{"time":684990.8600000243,"duration":937.0600000000559,"noteNumber":69,"velocity":79,"programNumber":1},{"time":685927.9200000244,"duration":468.53000000002794,"noteNumber":60,"velocity":79,"programNumber":1},{"time":686396.4500000244,"duration":468.53000000002794,"noteNumber":60,"velocity":79,"programNumber":1},{"time":686864.9800000244,"duration":234.26500000001397,"noteNumber":62,"velocity":79,"programNumber":1},{"time":687099.2450000244,"duration":234.26500000001397,"noteNumber":60,"velocity":79,"programNumber":1},{"time":687333.5100000245,"duration":234.26500000001397,"noteNumber":59,"velocity":79,"programNumber":1},{"time":687567.7750000245,"duration":234.26500000001397,"noteNumber":57,"velocity":79,"programNumber":1},{"time":687802.0400000245,"duration":468.53000000002794,"noteNumber":55,"velocity":79,"programNumber":1},{"time":688270.5700000245,"duration":468.53000000002794,"noteNumber":55,"velocity":79,"programNumber":1},{"time":688739.1000000245,"duration":937.0600000000559,"noteNumber":55,"velocity":79,"programNumber":1},{"time":689676.1600000246,"duration":234.26500000001397,"noteNumber":72,"velocity":79,"programNumber":1},{"time":689910.4250000246,"duration":234.26500000001397,"noteNumber":71,"velocity":79,"programNumber":1},{"time":690144.6900000246,"duration":234.26500000001397,"noteNumber":72,"velocity":79,"programNumber":1},{"time":690378.9550000246,"duration":234.26500000001397,"noteNumber":69,"velocity":79,"programNumber":1},{"time":690613.2200000247,"duration":234.26500000001397,"noteNumber":71,"velocity":79,"programNumber":1},{"time":690847.4850000247,"duration":234.26500000001397,"noteNumber":69,"velocity":79,"programNumber":1},{"time":691081.7500000247,"duration":234.26500000001397,"noteNumber":71,"velocity":79,"programNumber":1},{"time":691316.0150000247,"duration":234.26500000001397,"noteNumber":66,"velocity":79,"programNumber":1},{"time":691550.2800000247,"duration":234.26500000001397,"noteNumber":67,"velocity":79,"programNumber":1},{"time":691784.5450000247,"duration":234.26500000001397,"noteNumber":66,"velocity":79,"programNumber":1},{"time":692018.8100000247,"duration":234.26500000001397,"noteNumber":67,"velocity":79,"programNumber":1},{"time":692253.0750000247,"duration":234.26500000001397,"noteNumber":69,"velocity":79,"programNumber":1},{"time":692487.3400000248,"duration":468.53000000002794,"noteNumber":71,"velocity":79,"programNumber":1},{"time":693424.4000000248,"duration":58.566250000032596,"noteNumber":68,"velocity":79,"programNumber":1},{"time":693482.9662500249,"duration":58.566250000032596,"noteNumber":66,"velocity":79,"programNumber":1},{"time":693541.5325000249,"duration":58.566250000032596,"noteNumber":68,"velocity":79,"programNumber":1},{"time":693600.0987500249,"duration":117.13249999994878,"noteNumber":66,"velocity":79,"programNumber":1},{"time":693717.2312500249,"duration":58.566250000032596,"noteNumber":68,"velocity":79,"programNumber":1},{"time":693775.7975000249,"duration":58.566250000032596,"noteNumber":66,"velocity":79,"programNumber":1},{"time":693834.3637500249,"duration":58.566250000032596,"noteNumber":68,"velocity":79,"programNumber":1},{"time":693892.930000025,"duration":58.566250000032596,"noteNumber":66,"velocity":79,"programNumber":1},{"time":693951.496250025,"duration":58.566250000032596,"noteNumber":68,"velocity":79,"programNumber":1},{"time":694010.062500025,"duration":58.566250000032596,"noteNumber":66,"velocity":79,"programNumber":1},{"time":694068.6287500251,"duration":58.566250000032596,"noteNumber":68,"velocity":79,"programNumber":1},{"time":694127.1950000251,"duration":58.566250000032596,"noteNumber":66,"velocity":79,"programNumber":1},{"time":694185.7612500251,"duration":58.566250000032596,"noteNumber":68,"velocity":79,"programNumber":1},{"time":694244.3275000252,"duration":117.13249999994878,"noteNumber":66,"velocity":79,"programNumber":1},{"time":694361.4600000251,"duration":468.53000000002794,"noteNumber":67,"velocity":79,"programNumber":1},{"time":695298.5200000252,"duration":468.53000000002794,"noteNumber":64,"velocity":79,"programNumber":1},{"time":695767.0500000252,"duration":234.26500000001397,"noteNumber":66,"velocity":79,"programNumber":1},{"time":696001.3150000252,"duration":234.26500000001397,"noteNumber":67,"velocity":79,"programNumber":1},{"time":696235.5800000252,"duration":234.26500000001397,"noteNumber":67,"velocity":79,"programNumber":1},{"time":696469.8450000252,"duration":234.26500000001397,"noteNumber":66,"velocity":79,"programNumber":1},{"time":696704.1100000252,"duration":234.26500000001397,"noteNumber":71,"velocity":79,"programNumber":1},{"time":696938.3750000253,"duration":234.26500000001397,"noteNumber":69,"velocity":79,"programNumber":1},{"time":697172.6400000253,"duration":234.26500000001397,"noteNumber":69,"velocity":79,"programNumber":1},{"time":697406.9050000253,"duration":234.26500000001397,"noteNumber":67,"velocity":79,"programNumber":1},{"time":697641.1700000253,"duration":234.26500000001397,"noteNumber":66,"velocity":79,"programNumber":1},{"time":697875.4350000253,"duration":234.26500000001397,"noteNumber":64,"velocity":79,"programNumber":1},{"time":698109.7000000253,"duration":234.26500000001397,"noteNumber":67,"velocity":79,"programNumber":1},{"time":698343.9650000253,"duration":234.26500000001397,"noteNumber":66,"velocity":79,"programNumber":1},{"time":698578.2300000254,"duration":234.26500000001397,"noteNumber":62,"velocity":79,"programNumber":1},{"time":698812.4950000254,"duration":234.26500000001397,"noteNumber":61,"velocity":79,"programNumber":1},{"time":699046.7600000254,"duration":234.26500000001397,"noteNumber":64,"velocity":79,"programNumber":1},{"time":699281.0250000254,"duration":234.26500000001397,"noteNumber":62,"velocity":79,"programNumber":1},{"time":699515.2900000254,"duration":234.26500000001397,"noteNumber":66,"velocity":79,"programNumber":1},{"time":699749.5550000254,"duration":234.26500000001397,"noteNumber":64,"velocity":79,"programNumber":1},{"time":699983.8200000254,"duration":234.26500000001397,"noteNumber":67,"velocity":79,"programNumber":1},{"time":700218.0850000255,"duration":234.26500000001397,"noteNumber":66,"velocity":79,"programNumber":1},{"time":700452.3500000255,"duration":234.26500000001397,"noteNumber":64,"velocity":79,"programNumber":1},{"time":700686.6150000255,"duration":234.26500000001397,"noteNumber":62,"velocity":79,"programNumber":1},{"time":700920.8800000255,"duration":468.53000000002794,"noteNumber":71,"velocity":79,"programNumber":1},{"time":701389.4100000255,"duration":468.53000000002794,"noteNumber":67,"velocity":79,"programNumber":1},{"time":701857.9400000256,"duration":468.53000000002794,"noteNumber":66,"velocity":79,"programNumber":1},{"time":702326.4700000256,"duration":468.53000000002794,"noteNumber":64,"velocity":79,"programNumber":1},{"time":702795.0000000256,"duration":468.53000000002794,"noteNumber":64,"velocity":79,"programNumber":1},{"time":703263.5300000256,"duration":234.26500000001397,"noteNumber":66,"velocity":79,"programNumber":1},{"time":703497.7950000257,"duration":234.26500000001397,"noteNumber":67,"velocity":79,"programNumber":1},{"time":703732.0600000257,"duration":234.26500000001397,"noteNumber":67,"velocity":79,"programNumber":1},{"time":703966.3250000257,"duration":234.26500000001397,"noteNumber":66,"velocity":79,"programNumber":1},{"time":704200.5900000257,"duration":234.26500000001397,"noteNumber":71,"velocity":79,"programNumber":1},{"time":704434.8550000257,"duration":234.26500000001397,"noteNumber":69,"velocity":79,"programNumber":1},{"time":704669.1200000257,"duration":234.26500000001397,"noteNumber":69,"velocity":79,"programNumber":1},{"time":704903.3850000257,"duration":234.26500000001397,"noteNumber":67,"velocity":79,"programNumber":1},{"time":705137.6500000258,"duration":234.26500000001397,"noteNumber":66,"velocity":79,"programNumber":1},{"time":705371.9150000258,"duration":234.26500000001397,"noteNumber":64,"velocity":79,"programNumber":1},{"time":705606.1800000258,"duration":234.26500000001397,"noteNumber":67,"velocity":79,"programNumber":1},{"time":705840.4450000258,"duration":234.26500000001397,"noteNumber":66,"velocity":79,"programNumber":1},{"time":706074.7100000258,"duration":234.26500000001397,"noteNumber":62,"velocity":79,"programNumber":1},{"time":706308.9750000258,"duration":234.26500000001397,"noteNumber":61,"velocity":79,"programNumber":1},{"time":706543.2400000258,"duration":234.26500000001397,"noteNumber":64,"velocity":79,"programNumber":1},{"time":706777.5050000258,"duration":234.26500000001397,"noteNumber":62,"velocity":79,"programNumber":1},{"time":707011.7700000259,"duration":234.26500000001397,"noteNumber":66,"velocity":79,"programNumber":1},{"time":707246.0350000259,"duration":234.26500000001397,"noteNumber":64,"velocity":79,"programNumber":1},{"time":707480.3000000259,"duration":234.26500000001397,"noteNumber":67,"velocity":79,"programNumber":1},{"time":707714.5650000259,"duration":234.26500000001397,"noteNumber":66,"velocity":79,"programNumber":1},{"time":707948.8300000259,"duration":234.26500000001397,"noteNumber":71,"velocity":79,"programNumber":1},{"time":708183.0950000259,"duration":234.26500000001397,"noteNumber":69,"velocity":79,"programNumber":1},{"time":708417.360000026,"duration":234.26500000001397,"noteNumber":69,"velocity":79,"programNumber":1},{"time":708651.625000026,"duration":234.26500000001397,"noteNumber":67,"velocity":79,"programNumber":1},{"time":708885.890000026,"duration":234.26500000001397,"noteNumber":66,"velocity":79,"programNumber":1},{"time":709120.155000026,"duration":234.26500000001397,"noteNumber":64,"velocity":79,"programNumber":1},{"time":709354.420000026,"duration":937.0600000000559,"noteNumber":66,"velocity":79,"programNumber":1},{"time":711697.070000026,"duration":468.53000000002794,"noteNumber":62,"velocity":36,"programNumber":1},{"time":712634.1300000261,"duration":468.53000000002794,"noteNumber":62,"velocity":36,"programNumber":1},{"time":713571.1900000261,"duration":468.53000000002794,"noteNumber":60,"velocity":36,"programNumber":1},{"time":714508.2500000262,"duration":468.53000000002794,"noteNumber":64,"velocity":36,"programNumber":1},{"time":715445.3100000262,"duration":468.53000000002794,"noteNumber":60,"velocity":36,"programNumber":1},{"time":716382.3700000263,"duration":468.53000000002794,"noteNumber":60,"velocity":36,"programNumber":1},{"time":717319.4300000264,"duration":468.53000000002794,"noteNumber":59,"velocity":36,"programNumber":1},{"time":717787.9600000264,"duration":234.26500000001397,"noteNumber":79,"velocity":79,"programNumber":1},{"time":718022.2250000264,"duration":234.26500000001397,"noteNumber":78,"velocity":79,"programNumber":1},{"time":718256.4900000264,"duration":234.26500000001397,"noteNumber":76,"velocity":79,"programNumber":1},{"time":718490.7550000264,"duration":234.26500000001397,"noteNumber":74,"velocity":79,"programNumber":1},{"time":718725.0200000264,"duration":234.26500000001397,"noteNumber":76,"velocity":79,"programNumber":1},{"time":718959.2850000265,"duration":234.26500000001397,"noteNumber":74,"velocity":79,"programNumber":1},{"time":719193.5500000265,"duration":234.26500000001397,"noteNumber":72,"velocity":79,"programNumber":1},{"time":719427.8150000265,"duration":234.26500000001397,"noteNumber":71,"velocity":79,"programNumber":1},{"time":719662.0800000265,"duration":234.26500000001397,"noteNumber":72,"velocity":79,"programNumber":1},{"time":719896.3450000265,"duration":234.26500000001397,"noteNumber":71,"velocity":79,"programNumber":1},{"time":720130.6100000265,"duration":234.26500000001397,"noteNumber":69,"velocity":79,"programNumber":1},{"time":720364.8750000265,"duration":234.26500000001397,"noteNumber":67,"velocity":79,"programNumber":1},{"time":720599.1400000266,"duration":234.26500000001397,"noteNumber":69,"velocity":79,"programNumber":1},{"time":720833.4050000266,"duration":234.26500000001397,"noteNumber":67,"velocity":79,"programNumber":1},{"time":721067.6700000266,"duration":234.26500000001397,"noteNumber":66,"velocity":79,"programNumber":1},{"time":721301.9350000266,"duration":234.26500000001397,"noteNumber":64,"velocity":79,"programNumber":1},{"time":721536.2000000266,"duration":234.26500000001397,"noteNumber":66,"velocity":79,"programNumber":1},{"time":721770.4650000266,"duration":234.26500000001397,"noteNumber":64,"velocity":79,"programNumber":1},{"time":722004.7300000266,"duration":234.26500000001397,"noteNumber":62,"velocity":79,"programNumber":1},{"time":722238.9950000267,"duration":234.26500000001397,"noteNumber":61,"velocity":79,"programNumber":1},{"time":722473.2600000267,"duration":468.53000000002794,"noteNumber":62,"velocity":79,"programNumber":1},{"time":722941.7900000267,"duration":937.0600000000559,"noteNumber":69,"velocity":79,"programNumber":1},{"time":723878.8500000268,"duration":58.566250000032596,"noteNumber":69,"velocity":79,"programNumber":1},{"time":723937.4162500268,"duration":58.566250000032596,"noteNumber":67,"velocity":79,"programNumber":1},{"time":723995.9825000268,"duration":58.566250000032596,"noteNumber":69,"velocity":79,"programNumber":1},{"time":724054.5487500269,"duration":58.566250000032596,"noteNumber":67,"velocity":79,"programNumber":1},{"time":724113.1150000269,"duration":58.566250000032596,"noteNumber":69,"velocity":79,"programNumber":1},{"time":724171.6812500269,"duration":58.566250000032596,"noteNumber":67,"velocity":79,"programNumber":1},{"time":724230.247500027,"duration":58.566250000032596,"noteNumber":69,"velocity":79,"programNumber":1},{"time":724288.813750027,"duration":58.566250000032596,"noteNumber":67,"velocity":79,"programNumber":1},{"time":724347.380000027,"duration":468.53000000002794,"noteNumber":66,"velocity":79,"programNumber":1},{"time":727158.5600000271,"duration":468.53000000002794,"noteNumber":67,"velocity":79,"programNumber":1},{"time":727627.0900000271,"duration":468.53000000002794,"noteNumber":67,"velocity":79,"programNumber":1},{"time":728095.6200000271,"duration":234.26500000001397,"noteNumber":69,"velocity":79,"programNumber":1},{"time":728329.8850000271,"duration":234.26500000001397,"noteNumber":67,"velocity":79,"programNumber":1},{"time":728564.1500000271,"duration":234.26500000001397,"noteNumber":66,"velocity":79,"programNumber":1},{"time":728798.4150000272,"duration":234.26500000001397,"noteNumber":64,"velocity":79,"programNumber":1},{"time":729032.6800000272,"duration":468.53000000002794,"noteNumber":69,"velocity":79,"programNumber":1},{"time":729501.2100000272,"duration":468.53000000002794,"noteNumber":69,"velocity":79,"programNumber":1},{"time":729969.7400000272,"duration":937.0600000000559,"noteNumber":69,"velocity":79,"programNumber":1},{"time":730906.8000000273,"duration":468.53000000002794,"noteNumber":60,"velocity":79,"programNumber":1},{"time":731375.3300000273,"duration":468.53000000002794,"noteNumber":60,"velocity":79,"programNumber":1},{"time":731843.8600000273,"duration":234.26500000001397,"noteNumber":62,"velocity":79,"programNumber":1},{"time":732078.1250000274,"duration":234.26500000001397,"noteNumber":60,"velocity":79,"programNumber":1},{"time":732312.3900000274,"duration":234.26500000001397,"noteNumber":59,"velocity":79,"programNumber":1},{"time":732546.6550000274,"duration":234.26500000001397,"noteNumber":57,"velocity":79,"programNumber":1},{"time":732780.9200000274,"duration":468.53000000002794,"noteNumber":55,"velocity":79,"programNumber":1},{"time":733249.4500000274,"duration":468.53000000002794,"noteNumber":55,"velocity":79,"programNumber":1},{"time":733717.9800000275,"duration":937.0600000000559,"noteNumber":55,"velocity":79,"programNumber":1},{"time":734655.0400000275,"duration":234.26500000001397,"noteNumber":72,"velocity":79,"programNumber":1},{"time":734889.3050000275,"duration":234.26500000001397,"noteNumber":71,"velocity":79,"programNumber":1},{"time":735123.5700000275,"duration":234.26500000001397,"noteNumber":72,"velocity":79,"programNumber":1},{"time":735357.8350000276,"duration":234.26500000001397,"noteNumber":69,"velocity":79,"programNumber":1},{"time":735592.1000000276,"duration":234.26500000001397,"noteNumber":71,"velocity":79,"programNumber":1},{"time":735826.3650000276,"duration":234.26500000001397,"noteNumber":69,"velocity":79,"programNumber":1},{"time":736060.6300000276,"duration":234.26500000001397,"noteNumber":71,"velocity":79,"programNumber":1},{"time":736294.8950000276,"duration":234.26500000001397,"noteNumber":66,"velocity":79,"programNumber":1},{"time":736529.1600000276,"duration":234.26500000001397,"noteNumber":67,"velocity":79,"programNumber":1},{"time":736763.4250000276,"duration":234.26500000001397,"noteNumber":66,"velocity":79,"programNumber":1},{"time":736997.6900000277,"duration":234.26500000001397,"noteNumber":67,"velocity":79,"programNumber":1},{"time":737231.9550000277,"duration":234.26500000001397,"noteNumber":69,"velocity":79,"programNumber":1},{"time":737466.2200000277,"duration":468.53000000002794,"noteNumber":71,"velocity":79,"programNumber":1},{"time":738403.2800000277,"duration":58.566250000032596,"noteNumber":69,"velocity":79,"programNumber":1},{"time":738461.8462500278,"duration":58.566250000032596,"noteNumber":66,"velocity":79,"programNumber":1},{"time":738520.4125000278,"duration":58.566250000032596,"noteNumber":69,"velocity":79,"programNumber":1},{"time":738578.9787500278,"duration":117.13249999994878,"noteNumber":66,"velocity":79,"programNumber":1},{"time":738696.1112500278,"duration":58.566250000032596,"noteNumber":69,"velocity":79,"programNumber":1},{"time":738754.6775000278,"duration":58.566250000032596,"noteNumber":66,"velocity":79,"programNumber":1},{"time":738813.2437500278,"duration":58.566250000032596,"noteNumber":69,"velocity":79,"programNumber":1},{"time":738871.8100000279,"duration":58.566250000032596,"noteNumber":66,"velocity":79,"programNumber":1},{"time":738930.3762500279,"duration":58.566250000032596,"noteNumber":69,"velocity":79,"programNumber":1},{"time":738988.942500028,"duration":58.566250000032596,"noteNumber":66,"velocity":79,"programNumber":1},{"time":739047.508750028,"duration":58.566250000032596,"noteNumber":69,"velocity":79,"programNumber":1},{"time":739106.075000028,"duration":117.13249999994878,"noteNumber":66,"velocity":79,"programNumber":1},{"time":739223.207500028,"duration":58.566250000032596,"noteNumber":69,"velocity":79,"programNumber":1},{"time":739281.773750028,"duration":58.566250000032596,"noteNumber":66,"velocity":79,"programNumber":1},{"time":739340.340000028,"duration":468.53000000002794,"noteNumber":67,"velocity":79,"programNumber":1},{"time":743088.5800000281,"duration":468.53000000002794,"noteNumber":67,"velocity":79,"programNumber":1},{"time":743557.1100000282,"duration":468.53000000002794,"noteNumber":67,"velocity":79,"programNumber":1},{"time":744025.6400000282,"duration":234.26500000001397,"noteNumber":69,"velocity":79,"programNumber":1},{"time":744259.9050000282,"duration":234.26500000001397,"noteNumber":67,"velocity":79,"programNumber":1},{"time":744494.1700000282,"duration":234.26500000001397,"noteNumber":66,"velocity":79,"programNumber":1},{"time":744728.4350000282,"duration":234.26500000001397,"noteNumber":64,"velocity":79,"programNumber":1},{"time":744962.7000000282,"duration":468.53000000002794,"noteNumber":69,"velocity":79,"programNumber":1},{"time":745431.2300000283,"duration":468.53000000002794,"noteNumber":69,"velocity":79,"programNumber":1},{"time":745899.7600000283,"duration":937.0600000000559,"noteNumber":69,"velocity":79,"programNumber":1},{"time":746836.8200000284,"duration":468.53000000002794,"noteNumber":60,"velocity":79,"programNumber":1},{"time":747305.3500000284,"duration":468.53000000002794,"noteNumber":60,"velocity":79,"programNumber":1},{"time":747773.8800000284,"duration":234.26500000001397,"noteNumber":62,"velocity":79,"programNumber":1},{"time":748008.1450000284,"duration":234.26500000001397,"noteNumber":60,"velocity":79,"programNumber":1},{"time":748242.4100000284,"duration":234.26500000001397,"noteNumber":59,"velocity":79,"programNumber":1},{"time":748476.6750000285,"duration":234.26500000001397,"noteNumber":57,"velocity":79,"programNumber":1},{"time":748710.9400000285,"duration":468.53000000002794,"noteNumber":55,"velocity":79,"programNumber":1},{"time":749179.4700000285,"duration":468.53000000002794,"noteNumber":55,"velocity":79,"programNumber":1},{"time":749648.0000000285,"duration":937.0600000000559,"noteNumber":55,"velocity":79,"programNumber":1},{"time":750585.0600000286,"duration":234.26500000001397,"noteNumber":72,"velocity":79,"programNumber":1},{"time":750819.3250000286,"duration":234.26500000001397,"noteNumber":71,"velocity":79,"programNumber":1},{"time":751053.5900000286,"duration":234.26500000001397,"noteNumber":72,"velocity":79,"programNumber":1},{"time":751287.8550000286,"duration":234.26500000001397,"noteNumber":69,"velocity":79,"programNumber":1},{"time":751522.1200000286,"duration":234.26500000001397,"noteNumber":71,"velocity":79,"programNumber":1},{"time":751756.3850000286,"duration":234.26500000001397,"noteNumber":69,"velocity":79,"programNumber":1},{"time":751990.6500000287,"duration":234.26500000001397,"noteNumber":71,"velocity":79,"programNumber":1},{"time":752224.9150000287,"duration":234.26500000001397,"noteNumber":66,"velocity":79,"programNumber":1},{"time":752459.1800000287,"duration":234.26500000001397,"noteNumber":67,"velocity":79,"programNumber":1},{"time":752693.4450000287,"duration":234.26500000001397,"noteNumber":66,"velocity":79,"programNumber":1},{"time":752927.7100000287,"duration":234.26500000001397,"noteNumber":67,"velocity":79,"programNumber":1},{"time":753161.9750000287,"duration":234.26500000001397,"noteNumber":69,"velocity":79,"programNumber":1},{"time":753396.2400000287,"duration":468.53000000002794,"noteNumber":71,"velocity":79,"programNumber":1},{"time":758081.5400000287,"duration":234.26500000001397,"noteNumber":64,"velocity":79,"programNumber":1},{"time":758315.8050000287,"duration":234.26500000001397,"noteNumber":62,"velocity":79,"programNumber":1},{"time":758550.0700000287,"duration":234.26500000001397,"noteNumber":64,"velocity":79,"programNumber":1},{"time":758784.3350000287,"duration":234.26500000001397,"noteNumber":66,"velocity":79,"programNumber":1},{"time":759018.6000000287,"duration":234.26500000001397,"noteNumber":67,"velocity":79,"programNumber":1},{"time":759252.8650000287,"duration":234.26500000001397,"noteNumber":66,"velocity":79,"programNumber":1},{"time":759487.1300000288,"duration":234.26500000001397,"noteNumber":67,"velocity":79,"programNumber":1},{"time":759721.3950000288,"duration":234.26500000001397,"noteNumber":69,"velocity":79,"programNumber":1},{"time":759955.6600000288,"duration":234.26500000001397,"noteNumber":71,"velocity":79,"programNumber":1},{"time":760189.9250000288,"duration":234.26500000001397,"noteNumber":69,"velocity":79,"programNumber":1},{"time":760424.1900000288,"duration":234.26500000001397,"noteNumber":71,"velocity":79,"programNumber":1},{"time":760658.4550000288,"duration":234.26500000001397,"noteNumber":72,"velocity":79,"programNumber":1},{"time":760892.7200000288,"duration":468.53000000002794,"noteNumber":74,"velocity":79,"programNumber":1},{"time":762766.8400000288,"duration":117.13249999994878,"noteNumber":68,"velocity":36,"programNumber":1},{"time":762883.9725000288,"duration":117.13249999994878,"noteNumber":66,"velocity":36,"programNumber":1},{"time":763001.1050000287,"duration":117.13249999994878,"noteNumber":68,"velocity":36,"programNumber":1},{"time":763118.2375000287,"duration":117.13250000006519,"noteNumber":66,"velocity":36,"programNumber":1},{"time":763235.3700000287,"duration":117.13250000006519,"noteNumber":68,"velocity":36,"programNumber":1},{"time":763352.5025000288,"duration":117.13249999994878,"noteNumber":66,"velocity":36,"programNumber":1},{"time":763469.6350000288,"duration":117.13249999994878,"noteNumber":68,"velocity":36,"programNumber":1},{"time":763586.7675000287,"duration":117.13249999994878,"noteNumber":66,"velocity":36,"programNumber":1},{"time":763703.9000000287,"duration":117.13249999994878,"noteNumber":68,"velocity":36,"programNumber":1},{"time":763821.0325000286,"duration":117.13249999994878,"noteNumber":66,"velocity":36,"programNumber":1},{"time":763938.1650000286,"duration":117.13250000006519,"noteNumber":68,"velocity":36,"programNumber":1},{"time":764055.2975000286,"duration":117.13250000006519,"noteNumber":66,"velocity":36,"programNumber":1},{"time":764172.4300000287,"duration":117.13250000006519,"noteNumber":68,"velocity":36,"programNumber":1},{"time":764289.5625000288,"duration":117.13249999994878,"noteNumber":66,"velocity":36,"programNumber":1},{"time":764406.6950000287,"duration":117.13249999994878,"noteNumber":68,"velocity":36,"programNumber":1},{"time":764523.8275000287,"duration":117.13249999994878,"noteNumber":66,"velocity":36,"programNumber":1},{"time":764660.482083362,"duration":234.26500000001397,"noteNumber":67,"velocity":58,"programNumber":1}],[{"time":0,"duration":234.26500000000001,"noteNumber":59,"velocity":36,"programNumber":41},{"time":234.26500000000001,"duration":234.26499999999996,"noteNumber":59,"velocity":36,"programNumber":41},{"time":468.53,"duration":234.265,"noteNumber":59,"velocity":36,"programNumber":41},{"time":702.795,"duration":234.265,"noteNumber":59,"velocity":36,"programNumber":41},{"time":937.06,"duration":234.26499999999987,"noteNumber":59,"velocity":36,"programNumber":41},{"time":1171.3249999999998,"duration":234.26499999999987,"noteNumber":59,"velocity":36,"programNumber":41},{"time":1405.5899999999997,"duration":234.26499999999987,"noteNumber":60,"velocity":36,"programNumber":41},{"time":1639.8549999999996,"duration":234.26499999999987,"noteNumber":60,"velocity":36,"programNumber":41},{"time":1874.1199999999994,"duration":234.26499999999987,"noteNumber":60,"velocity":36,"programNumber":41},{"time":2108.3849999999993,"duration":234.26499999999987,"noteNumber":60,"velocity":36,"programNumber":41},{"time":2342.649999999999,"duration":234.26499999999987,"noteNumber":60,"velocity":36,"programNumber":41},{"time":2576.914999999999,"duration":234.26499999999987,"noteNumber":59,"velocity":36,"programNumber":41},{"time":2811.179999999999,"duration":234.26499999999987,"noteNumber":57,"velocity":36,"programNumber":41},{"time":3045.444999999999,"duration":234.26499999999987,"noteNumber":57,"velocity":36,"programNumber":41},{"time":3279.7099999999987,"duration":234.26499999999987,"noteNumber":57,"velocity":36,"programNumber":41},{"time":3513.9749999999985,"duration":234.26499999999987,"noteNumber":57,"velocity":36,"programNumber":41},{"time":3748.2399999999984,"duration":234.26499999999987,"noteNumber":57,"velocity":36,"programNumber":41},{"time":3982.5049999999983,"duration":234.26500000000033,"noteNumber":57,"velocity":36,"programNumber":41},{"time":4216.769999999999,"duration":234.26500000000033,"noteNumber":59,"velocity":36,"programNumber":41},{"time":4451.034999999999,"duration":234.26500000000033,"noteNumber":55,"velocity":36,"programNumber":41},{"time":4685.299999999999,"duration":468.52999999999975,"noteNumber":55,"velocity":36,"programNumber":41},{"time":7027.949999999999,"duration":234.26500000000033,"noteNumber":67,"velocity":36,"programNumber":41},{"time":7262.214999999999,"duration":468.52999999999975,"noteNumber":55,"velocity":36,"programNumber":41},{"time":7730.744999999999,"duration":234.26500000000033,"noteNumber":55,"velocity":36,"programNumber":41},{"time":8082.142499999999,"duration":117.13250000000062,"noteNumber":59,"velocity":36,"programNumber":41},{"time":8199.275,"duration":117.13249999999971,"noteNumber":60,"velocity":36,"programNumber":41},{"time":8316.4075,"duration":117.13249999999971,"noteNumber":62,"velocity":36,"programNumber":41},{"time":8433.539999999999,"duration":234.26499999999942,"noteNumber":64,"velocity":36,"programNumber":41},{"time":8667.804999999998,"duration":234.26499999999942,"noteNumber":64,"velocity":36,"programNumber":41},{"time":8902.069999999998,"duration":234.26499999999942,"noteNumber":64,"velocity":36,"programNumber":41},{"time":9136.334999999997,"duration":234.26499999999942,"noteNumber":64,"velocity":36,"programNumber":41},{"time":9370.599999999997,"duration":234.26499999999942,"noteNumber":64,"velocity":36,"programNumber":41},{"time":9604.864999999996,"duration":234.26499999999942,"noteNumber":64,"velocity":36,"programNumber":41},{"time":9839.129999999996,"duration":468.53000000000065,"noteNumber":62,"velocity":36,"programNumber":41},{"time":11244.719999999996,"duration":234.26499999999942,"noteNumber":66,"velocity":36,"programNumber":41},{"time":11478.984999999995,"duration":234.26499999999942,"noteNumber":66,"velocity":36,"programNumber":41},{"time":11713.249999999995,"duration":234.26499999999942,"noteNumber":66,"velocity":36,"programNumber":41},{"time":11947.514999999994,"duration":234.26499999999942,"noteNumber":66,"velocity":36,"programNumber":41},{"time":12181.779999999993,"duration":234.26499999999942,"noteNumber":66,"velocity":36,"programNumber":41},{"time":12416.044999999993,"duration":234.26499999999942,"noteNumber":66,"velocity":36,"programNumber":41},{"time":12650.309999999992,"duration":234.26499999999942,"noteNumber":64,"velocity":36,"programNumber":41},{"time":12884.574999999992,"duration":234.26499999999942,"noteNumber":64,"velocity":36,"programNumber":41},{"time":13118.839999999991,"duration":234.26499999999942,"noteNumber":64,"velocity":36,"programNumber":41},{"time":13353.10499999999,"duration":234.26499999999942,"noteNumber":64,"velocity":36,"programNumber":41},{"time":13587.36999999999,"duration":234.26499999999942,"noteNumber":64,"velocity":36,"programNumber":41},{"time":13821.63499999999,"duration":234.26499999999942,"noteNumber":64,"velocity":36,"programNumber":41},{"time":14055.899999999989,"duration":468.53000000000065,"noteNumber":62,"velocity":36,"programNumber":41},{"time":16867.079999999987,"duration":234.26499999999942,"noteNumber":64,"velocity":36,"programNumber":41},{"time":17101.344999999987,"duration":468.52999999999884,"noteNumber":64,"velocity":36,"programNumber":41},{"time":17569.874999999985,"duration":468.52999999999884,"noteNumber":64,"velocity":36,"programNumber":41},{"time":18038.404999999984,"duration":234.26499999999942,"noteNumber":64,"velocity":36,"programNumber":41},{"time":18272.669999999984,"duration":117.13249999999971,"noteNumber":64,"velocity":36,"programNumber":41},{"time":18389.802499999983,"duration":117.13249999999971,"noteNumber":62,"velocity":36,"programNumber":41},{"time":18506.934999999983,"duration":117.13249999999971,"noteNumber":61,"velocity":36,"programNumber":41},{"time":18624.067499999983,"duration":117.13249999999971,"noteNumber":62,"velocity":36,"programNumber":41},{"time":18741.199999999983,"duration":234.26499999999942,"noteNumber":61,"velocity":36,"programNumber":41},{"time":18975.464999999982,"duration":234.26499999999942,"noteNumber":71,"velocity":36,"programNumber":41},{"time":19209.72999999998,"duration":234.26499999999942,"noteNumber":69,"velocity":36,"programNumber":41},{"time":19443.99499999998,"duration":234.26499999999942,"noteNumber":61,"velocity":36,"programNumber":41},{"time":19678.25999999998,"duration":117.13249999999971,"noteNumber":62,"velocity":36,"programNumber":41},{"time":19795.39249999998,"duration":117.13249999999971,"noteNumber":61,"velocity":36,"programNumber":41},{"time":19912.52499999998,"duration":117.13249999999971,"noteNumber":62,"velocity":36,"programNumber":41},{"time":20029.65749999998,"duration":117.13249999999971,"noteNumber":64,"velocity":36,"programNumber":41},{"time":20146.78999999998,"duration":234.26499999999942,"noteNumber":66,"velocity":36,"programNumber":41},{"time":20381.05499999998,"duration":234.26499999999942,"noteNumber":66,"velocity":36,"programNumber":41},{"time":20615.319999999978,"duration":234.26499999999942,"noteNumber":66,"velocity":36,"programNumber":41},{"time":20849.584999999977,"duration":234.26499999999942,"noteNumber":66,"velocity":36,"programNumber":41},{"time":21083.849999999977,"duration":117.13249999999971,"noteNumber":67,"velocity":36,"programNumber":41},{"time":21200.982499999976,"duration":117.13249999999971,"noteNumber":64,"velocity":36,"programNumber":41},{"time":21318.114999999976,"duration":117.13249999999971,"noteNumber":66,"velocity":36,"programNumber":41},{"time":21435.247499999976,"duration":117.13249999999971,"noteNumber":62,"velocity":36,"programNumber":41},{"time":21552.379999999976,"duration":234.26499999999942,"noteNumber":61,"velocity":36,"programNumber":41},{"time":21786.644999999975,"duration":117.13249999999971,"noteNumber":64,"velocity":36,"programNumber":41},{"time":21903.777499999975,"duration":117.13249999999971,"noteNumber":62,"velocity":36,"programNumber":41},{"time":22020.909999999974,"duration":117.13249999999971,"noteNumber":57,"velocity":36,"programNumber":41},{"time":22138.042499999974,"duration":117.13249999999971,"noteNumber":71,"velocity":36,"programNumber":41},{"time":22255.174999999974,"duration":117.13249999999971,"noteNumber":69,"velocity":36,"programNumber":41},{"time":22372.307499999974,"duration":117.13249999999971,"noteNumber":61,"velocity":36,"programNumber":41},{"time":22489.439999999973,"duration":117.13249999999971,"noteNumber":62,"velocity":36,"programNumber":41},{"time":22606.572499999973,"duration":117.13249999999971,"noteNumber":61,"velocity":36,"programNumber":41},{"time":22723.704999999973,"duration":117.13249999999971,"noteNumber":62,"velocity":36,"programNumber":41},{"time":22840.837499999972,"duration":117.13249999999971,"noteNumber":64,"velocity":36,"programNumber":41},{"time":22957.969999999972,"duration":234.26499999999942,"noteNumber":66,"velocity":36,"programNumber":41},{"time":23192.23499999997,"duration":234.26499999999942,"noteNumber":66,"velocity":36,"programNumber":41},{"time":23426.49999999997,"duration":234.26499999999942,"noteNumber":66,"velocity":36,"programNumber":41},{"time":23660.76499999997,"duration":234.26499999999942,"noteNumber":66,"velocity":36,"programNumber":41},{"time":23895.02999999997,"duration":117.13249999999971,"noteNumber":67,"velocity":36,"programNumber":41},{"time":24012.16249999997,"duration":117.13249999999971,"noteNumber":64,"velocity":36,"programNumber":41},{"time":24129.29499999997,"duration":117.13249999999971,"noteNumber":66,"velocity":36,"programNumber":41},{"time":24246.42749999997,"duration":117.13249999999971,"noteNumber":62,"velocity":36,"programNumber":41},{"time":24363.55999999997,"duration":234.26499999999942,"noteNumber":61,"velocity":36,"programNumber":41},{"time":24597.824999999968,"duration":117.13249999999971,"noteNumber":64,"velocity":36,"programNumber":41},{"time":24714.957499999968,"duration":117.13249999999971,"noteNumber":61,"velocity":36,"programNumber":41},{"time":24832.089999999967,"duration":117.13249999999971,"noteNumber":57,"velocity":36,"programNumber":41},{"time":24949.222499999967,"duration":117.13249999999971,"noteNumber":71,"velocity":36,"programNumber":41},{"time":25066.354999999967,"duration":117.13249999999971,"noteNumber":69,"velocity":36,"programNumber":41},{"time":25183.487499999967,"duration":117.13249999999971,"noteNumber":61,"velocity":36,"programNumber":41},{"time":25300.619999999966,"duration":234.26499999999942,"noteNumber":62,"velocity":36,"programNumber":41},{"time":25534.884999999966,"duration":234.26499999999942,"noteNumber":62,"velocity":36,"programNumber":41},{"time":25769.149999999965,"duration":234.26499999999942,"noteNumber":62,"velocity":36,"programNumber":41},{"time":26003.414999999964,"duration":234.26499999999942,"noteNumber":62,"velocity":36,"programNumber":41},{"time":26237.679999999964,"duration":234.26499999999942,"noteNumber":62,"velocity":36,"programNumber":41},{"time":26471.944999999963,"duration":234.26499999999942,"noteNumber":62,"velocity":36,"programNumber":41},{"time":26706.209999999963,"duration":234.26499999999942,"noteNumber":62,"velocity":36,"programNumber":41},{"time":27877.534999999963,"duration":234.26499999999942,"noteNumber":67,"velocity":36,"programNumber":41},{"time":28111.799999999963,"duration":234.26499999999942,"noteNumber":69,"velocity":36,"programNumber":41},{"time":28346.064999999962,"duration":234.26499999999942,"noteNumber":69,"velocity":36,"programNumber":41},{"time":28580.32999999996,"duration":234.26499999999942,"noteNumber":69,"velocity":36,"programNumber":41},{"time":28814.59499999996,"duration":234.26499999999942,"noteNumber":69,"velocity":36,"programNumber":41},{"time":29048.85999999996,"duration":234.26499999999942,"noteNumber":69,"velocity":36,"programNumber":41},{"time":29283.12499999996,"duration":234.26499999999942,"noteNumber":69,"velocity":36,"programNumber":41},{"time":29517.38999999996,"duration":468.52999999999884,"noteNumber":66,"velocity":36,"programNumber":41},{"time":30103.052499999958,"duration":117.13249999999971,"noteNumber":66,"velocity":36,"programNumber":41},{"time":30220.184999999958,"duration":117.13249999999971,"noteNumber":64,"velocity":36,"programNumber":41},{"time":30337.317499999957,"duration":117.13249999999971,"noteNumber":66,"velocity":36,"programNumber":41},{"time":30454.449999999957,"duration":117.13249999999971,"noteNumber":67,"velocity":36,"programNumber":41},{"time":30571.582499999957,"duration":117.13249999999971,"noteNumber":66,"velocity":36,"programNumber":41},{"time":30688.714999999956,"duration":117.13249999999971,"noteNumber":64,"velocity":36,"programNumber":41},{"time":30805.847499999956,"duration":117.13249999999971,"noteNumber":66,"velocity":36,"programNumber":41},{"time":30922.979999999956,"duration":468.52999999999884,"noteNumber":66,"velocity":36,"programNumber":41},{"time":31508.642499999954,"duration":117.13249999999971,"noteNumber":62,"velocity":36,"programNumber":41},{"time":31625.774999999954,"duration":117.13249999999971,"noteNumber":61,"velocity":36,"programNumber":41},{"time":31742.907499999954,"duration":117.13249999999971,"noteNumber":62,"velocity":36,"programNumber":41},{"time":31860.039999999954,"duration":117.13249999999971,"noteNumber":64,"velocity":36,"programNumber":41},{"time":31977.172499999953,"duration":117.13249999999971,"noteNumber":62,"velocity":36,"programNumber":41},{"time":32094.304999999953,"duration":117.13249999999971,"noteNumber":61,"velocity":36,"programNumber":41},{"time":32211.437499999953,"duration":117.13249999999971,"noteNumber":62,"velocity":36,"programNumber":41},{"time":32328.569999999952,"duration":234.26499999999942,"noteNumber":62,"velocity":36,"programNumber":41},{"time":32562.834999999952,"duration":39.04416666666657,"noteNumber":64,"velocity":36,"programNumber":41},{"time":32601.87916666662,"duration":39.04416666666657,"noteNumber":66,"velocity":36,"programNumber":41},{"time":32640.923333333285,"duration":39.04416666666657,"noteNumber":67,"velocity":36,"programNumber":41},{"time":32679.96749999995,"duration":39.04416666666657,"noteNumber":69,"velocity":36,"programNumber":41},{"time":32719.011666666618,"duration":39.04416666666657,"noteNumber":71,"velocity":36,"programNumber":41},{"time":32758.055833333285,"duration":39.04416666667021,"noteNumber":73,"velocity":36,"programNumber":41},{"time":32797.099999999955,"duration":234.26499999999942,"noteNumber":74,"velocity":36,"programNumber":41},{"time":33031.364999999954,"duration":234.26499999999942,"noteNumber":62,"velocity":36,"programNumber":41},{"time":33265.629999999954,"duration":234.26499999999942,"noteNumber":62,"velocity":36,"programNumber":41},{"time":33499.89499999995,"duration":234.26499999999942,"noteNumber":62,"velocity":36,"programNumber":41},{"time":33734.15999999995,"duration":234.26499999999942,"noteNumber":62,"velocity":36,"programNumber":41},{"time":33968.42499999995,"duration":234.26499999999942,"noteNumber":59,"velocity":36,"programNumber":41},{"time":34202.68999999995,"duration":234.26499999999942,"noteNumber":57,"velocity":36,"programNumber":41},{"time":34436.95499999995,"duration":234.26499999999942,"noteNumber":57,"velocity":36,"programNumber":41},{"time":34671.21999999995,"duration":234.26499999999942,"noteNumber":57,"velocity":36,"programNumber":41},{"time":34905.48499999995,"duration":234.26499999999942,"noteNumber":55,"velocity":36,"programNumber":41},{"time":35139.74999999995,"duration":175.6987500000032,"noteNumber":54,"velocity":36,"programNumber":41},{"time":35374.014999999956,"duration":234.26499999999942,"noteNumber":66,"velocity":36,"programNumber":41},{"time":35608.279999999955,"duration":234.26499999999942,"noteNumber":67,"velocity":36,"programNumber":41},{"time":35842.544999999955,"duration":234.26499999999942,"noteNumber":66,"velocity":36,"programNumber":41},{"time":36076.809999999954,"duration":234.26499999999942,"noteNumber":67,"velocity":36,"programNumber":41},{"time":36311.07499999995,"duration":234.26499999999942,"noteNumber":64,"velocity":36,"programNumber":41},{"time":36545.33999999995,"duration":937.0599999999977,"noteNumber":62,"velocity":36,"programNumber":41},{"time":37716.66499999995,"duration":234.26499999999942,"noteNumber":64,"velocity":36,"programNumber":41},{"time":37950.92999999995,"duration":937.0599999999977,"noteNumber":64,"velocity":36,"programNumber":41},{"time":38887.98999999995,"duration":234.26499999999942,"noteNumber":62,"velocity":36,"programNumber":41},{"time":39356.519999999946,"duration":1405.5899999999965,"noteNumber":74,"velocity":36,"programNumber":41},{"time":40762.10999999994,"duration":468.52999999999884,"noteNumber":74,"velocity":36,"programNumber":41},{"time":41230.63999999994,"duration":937.0599999999977,"noteNumber":73,"velocity":36,"programNumber":41},{"time":42167.69999999994,"duration":468.52999999999884,"noteNumber":72,"velocity":36,"programNumber":41},{"time":42636.22999999994,"duration":468.52999999999884,"noteNumber":71,"velocity":36,"programNumber":41},{"time":43104.75999999994,"duration":468.52999999999884,"noteNumber":72,"velocity":36,"programNumber":41},{"time":43573.289999999935,"duration":468.52999999999884,"noteNumber":71,"velocity":36,"programNumber":41},{"time":44276.084999999934,"duration":234.26499999999942,"noteNumber":62,"velocity":36,"programNumber":41},{"time":44510.34999999993,"duration":234.26499999999942,"noteNumber":64,"velocity":36,"programNumber":41},{"time":44744.61499999993,"duration":234.26499999999942,"noteNumber":64,"velocity":36,"programNumber":41},{"time":44978.87999999993,"duration":468.52999999999884,"noteNumber":62,"velocity":36,"programNumber":41},{"time":46384.46999999993,"duration":234.26499999999942,"noteNumber":71,"velocity":36,"programNumber":41},{"time":46618.73499999993,"duration":234.26499999999942,"noteNumber":71,"velocity":36,"programNumber":41},{"time":46852.99999999993,"duration":234.26499999999942,"noteNumber":71,"velocity":36,"programNumber":41},{"time":47087.26499999993,"duration":234.26499999999942,"noteNumber":71,"velocity":36,"programNumber":41},{"time":47321.529999999926,"duration":234.26499999999942,"noteNumber":71,"velocity":36,"programNumber":41},{"time":47555.794999999925,"duration":234.26499999999942,"noteNumber":71,"velocity":36,"programNumber":41},{"time":47790.059999999925,"duration":468.52999999999884,"noteNumber":64,"velocity":36,"programNumber":41},{"time":48336.67833333326,"duration":78.08833333333314,"noteNumber":57,"velocity":36,"programNumber":41},{"time":48414.76666666659,"duration":78.08833333333314,"noteNumber":60,"velocity":36,"programNumber":41},{"time":48492.85499999992,"duration":78.08833333333314,"noteNumber":64,"velocity":36,"programNumber":41},{"time":48570.943333333256,"duration":78.08833333333314,"noteNumber":60,"velocity":36,"programNumber":41},{"time":48649.03166666659,"duration":78.08833333333314,"noteNumber":64,"velocity":36,"programNumber":41},{"time":48727.11999999992,"duration":234.26499999999942,"noteNumber":69,"velocity":36,"programNumber":41},{"time":48961.38499999992,"duration":234.26499999999942,"noteNumber":64,"velocity":36,"programNumber":41},{"time":49195.64999999992,"duration":234.26499999999942,"noteNumber":66,"velocity":36,"programNumber":41},{"time":49429.91499999992,"duration":234.26499999999942,"noteNumber":66,"velocity":36,"programNumber":41},{"time":49664.17999999992,"duration":234.26499999999942,"noteNumber":66,"velocity":36,"programNumber":41},{"time":49898.44499999992,"duration":234.26499999999942,"noteNumber":66,"velocity":36,"programNumber":41},{"time":50132.70999999992,"duration":234.26499999999942,"noteNumber":66,"velocity":36,"programNumber":41},{"time":50366.97499999992,"duration":234.26499999999942,"noteNumber":66,"velocity":36,"programNumber":41},{"time":50601.23999999992,"duration":468.52999999999884,"noteNumber":67,"velocity":36,"programNumber":41},{"time":51147.85833333325,"duration":78.08833333333314,"noteNumber":55,"velocity":36,"programNumber":41},{"time":51225.94666666658,"duration":78.08833333333314,"noteNumber":59,"velocity":36,"programNumber":41},{"time":51304.034999999916,"duration":78.08833333333314,"noteNumber":62,"velocity":36,"programNumber":41},{"time":51382.12333333325,"duration":78.08833333333314,"noteNumber":59,"velocity":36,"programNumber":41},{"time":51460.21166666658,"duration":78.08833333333314,"noteNumber":62,"velocity":36,"programNumber":41},{"time":51538.299999999916,"duration":234.26499999999942,"noteNumber":67,"velocity":36,"programNumber":41},{"time":51772.564999999915,"duration":234.26499999999942,"noteNumber":62,"velocity":36,"programNumber":41},{"time":52006.829999999914,"duration":234.26499999999942,"noteNumber":60,"velocity":36,"programNumber":41},{"time":52241.094999999914,"duration":234.26499999999942,"noteNumber":60,"velocity":36,"programNumber":41},{"time":52475.35999999991,"duration":234.26499999999942,"noteNumber":60,"velocity":36,"programNumber":41},{"time":52709.62499999991,"duration":234.26499999999942,"noteNumber":64,"velocity":36,"programNumber":41},{"time":52943.88999999991,"duration":234.26499999999942,"noteNumber":64,"velocity":36,"programNumber":41},{"time":53178.15499999991,"duration":234.26499999999942,"noteNumber":64,"velocity":36,"programNumber":41},{"time":53412.41999999991,"duration":117.13249999999971,"noteNumber":57,"velocity":36,"programNumber":41},{"time":53529.55249999991,"duration":117.13249999999971,"noteNumber":55,"velocity":36,"programNumber":41},{"time":53646.68499999991,"duration":117.13249999999971,"noteNumber":54,"velocity":36,"programNumber":41},{"time":53763.81749999991,"duration":117.13249999999971,"noteNumber":55,"velocity":36,"programNumber":41},{"time":53880.94999999991,"duration":468.52999999999884,"noteNumber":54,"velocity":36,"programNumber":41},{"time":54818.00999999991,"duration":234.26499999999942,"noteNumber":59,"velocity":36,"programNumber":41},{"time":55052.27499999991,"duration":234.26499999999942,"noteNumber":59,"velocity":36,"programNumber":41},{"time":55286.539999999906,"duration":234.26499999999942,"noteNumber":59,"velocity":36,"programNumber":41},{"time":55520.804999999906,"duration":234.26499999999942,"noteNumber":59,"velocity":36,"programNumber":41},{"time":55755.069999999905,"duration":234.26499999999942,"noteNumber":59,"velocity":36,"programNumber":41},{"time":55989.334999999905,"duration":234.26499999999942,"noteNumber":59,"velocity":36,"programNumber":41},{"time":56223.599999999904,"duration":234.26499999999942,"noteNumber":60,"velocity":36,"programNumber":41},{"time":56457.8649999999,"duration":234.26499999999942,"noteNumber":60,"velocity":36,"programNumber":41},{"time":56692.1299999999,"duration":234.26499999999942,"noteNumber":60,"velocity":36,"programNumber":41},{"time":56926.3949999999,"duration":234.26499999999942,"noteNumber":60,"velocity":36,"programNumber":41},{"time":57160.6599999999,"duration":234.26499999999942,"noteNumber":60,"velocity":36,"programNumber":41},{"time":57394.9249999999,"duration":117.13249999999971,"noteNumber":59,"velocity":36,"programNumber":41},{"time":57512.0574999999,"duration":117.13249999999971,"noteNumber":60,"velocity":36,"programNumber":41},{"time":57629.1899999999,"duration":234.26499999999942,"noteNumber":62,"velocity":36,"programNumber":41},{"time":57863.4549999999,"duration":234.26499999999942,"noteNumber":62,"velocity":36,"programNumber":41},{"time":58097.7199999999,"duration":234.26499999999942,"noteNumber":57,"velocity":36,"programNumber":41},{"time":58331.9849999999,"duration":234.26499999999942,"noteNumber":57,"velocity":36,"programNumber":41},{"time":58566.2499999999,"duration":234.26499999999942,"noteNumber":57,"velocity":36,"programNumber":41},{"time":58800.5149999999,"duration":234.26499999999942,"noteNumber":57,"velocity":36,"programNumber":41},{"time":59034.7799999999,"duration":234.26499999999942,"noteNumber":59,"velocity":36,"programNumber":41},{"time":59269.0449999999,"duration":234.26499999999942,"noteNumber":57,"velocity":36,"programNumber":41},{"time":59503.309999999896,"duration":234.26499999999942,"noteNumber":55,"velocity":36,"programNumber":41},{"time":59737.574999999895,"duration":234.26499999999942,"noteNumber":67,"velocity":36,"programNumber":41},{"time":59971.839999999895,"duration":234.26499999999942,"noteNumber":66,"velocity":36,"programNumber":41},{"time":60206.104999999894,"duration":234.26499999999942,"noteNumber":67,"velocity":36,"programNumber":41},{"time":60440.36999999989,"duration":234.26499999999942,"noteNumber":67,"velocity":36,"programNumber":41},{"time":60674.63499999989,"duration":234.26499999999942,"noteNumber":67,"velocity":36,"programNumber":41},{"time":60908.89999999989,"duration":234.26499999999942,"noteNumber":67,"velocity":36,"programNumber":41},{"time":61143.16499999989,"duration":234.26499999999942,"noteNumber":67,"velocity":36,"programNumber":41},{"time":61377.42999999989,"duration":234.26499999999942,"noteNumber":67,"velocity":36,"programNumber":41},{"time":61611.69499999989,"duration":234.26499999999942,"noteNumber":67,"velocity":36,"programNumber":41},{"time":61845.95999999989,"duration":234.26499999999942,"noteNumber":67,"velocity":36,"programNumber":41},{"time":62080.22499999989,"duration":234.26499999999942,"noteNumber":67,"velocity":36,"programNumber":41},{"time":62314.48999999989,"duration":468.52999999999884,"noteNumber":55,"velocity":36,"programNumber":41},{"time":63485.814999999886,"duration":234.26499999999942,"noteNumber":62,"velocity":36,"programNumber":41},{"time":63720.079999999885,"duration":234.26499999999942,"noteNumber":64,"velocity":36,"programNumber":41},{"time":63954.344999999885,"duration":234.26499999999942,"noteNumber":64,"velocity":36,"programNumber":41},{"time":64188.609999999884,"duration":234.26499999999942,"noteNumber":64,"velocity":36,"programNumber":41},{"time":64422.87499999988,"duration":234.26499999999942,"noteNumber":64,"velocity":36,"programNumber":41},{"time":64657.13999999988,"duration":468.52999999999884,"noteNumber":62,"velocity":36,"programNumber":41},{"time":66062.72999999988,"duration":234.26499999999942,"noteNumber":71,"velocity":36,"programNumber":41},{"time":66296.99499999988,"duration":234.26499999999942,"noteNumber":71,"velocity":36,"programNumber":41},{"time":66531.25999999988,"duration":234.26499999999942,"noteNumber":71,"velocity":36,"programNumber":41},{"time":66765.52499999988,"duration":234.26499999999942,"noteNumber":71,"velocity":36,"programNumber":41},{"time":66999.78999999988,"duration":234.26499999999942,"noteNumber":71,"velocity":36,"programNumber":41},{"time":67234.05499999988,"duration":234.26499999999942,"noteNumber":71,"velocity":36,"programNumber":41},{"time":67468.31999999988,"duration":234.26499999999942,"noteNumber":69,"velocity":36,"programNumber":41},{"time":67702.58499999988,"duration":234.26499999999942,"noteNumber":69,"velocity":36,"programNumber":41},{"time":67936.84999999987,"duration":234.26499999999942,"noteNumber":69,"velocity":36,"programNumber":41},{"time":68171.11499999987,"duration":234.26499999999942,"noteNumber":69,"velocity":36,"programNumber":41},{"time":68405.37999999987,"duration":234.26499999999942,"noteNumber":69,"velocity":36,"programNumber":41},{"time":68639.64499999987,"duration":234.26499999999942,"noteNumber":69,"velocity":36,"programNumber":41},{"time":68873.90999999987,"duration":468.52999999999884,"noteNumber":67,"velocity":36,"programNumber":41},{"time":71919.35499999986,"duration":468.52999999999884,"noteNumber":69,"velocity":36,"programNumber":41},{"time":72387.88499999986,"duration":468.52999999999884,"noteNumber":69,"velocity":36,"programNumber":41},{"time":72856.41499999986,"duration":234.26499999999942,"noteNumber":69,"velocity":36,"programNumber":41},{"time":73090.67999999986,"duration":117.13250000000698,"noteNumber":69,"velocity":36,"programNumber":41},{"time":73207.81249999987,"duration":117.13250000000698,"noteNumber":67,"velocity":36,"programNumber":41},{"time":73324.94499999988,"duration":117.13250000000698,"noteNumber":66,"velocity":36,"programNumber":41},{"time":73442.07749999988,"duration":117.13250000000698,"noteNumber":67,"velocity":36,"programNumber":41},{"time":73559.20999999989,"duration":234.26499999999942,"noteNumber":66,"velocity":36,"programNumber":41},{"time":73793.47499999989,"duration":234.26499999999942,"noteNumber":76,"velocity":36,"programNumber":41},{"time":74027.73999999989,"duration":234.26499999999942,"noteNumber":74,"velocity":36,"programNumber":41},{"time":74262.00499999989,"duration":234.26499999999942,"noteNumber":66,"velocity":36,"programNumber":41},{"time":74496.26999999989,"duration":117.13250000000698,"noteNumber":67,"velocity":36,"programNumber":41},{"time":74613.4024999999,"duration":117.13250000000698,"noteNumber":66,"velocity":36,"programNumber":41},{"time":74730.5349999999,"duration":117.13250000000698,"noteNumber":67,"velocity":36,"programNumber":41},{"time":74847.66749999991,"duration":117.13250000000698,"noteNumber":69,"velocity":36,"programNumber":41},{"time":74964.79999999992,"duration":234.26499999999942,"noteNumber":71,"velocity":36,"programNumber":41},{"time":75199.06499999992,"duration":234.26499999999942,"noteNumber":71,"velocity":36,"programNumber":41},{"time":75433.32999999991,"duration":234.26499999999942,"noteNumber":71,"velocity":36,"programNumber":41},{"time":75667.59499999991,"duration":234.26499999999942,"noteNumber":71,"velocity":36,"programNumber":41},{"time":75901.85999999991,"duration":117.13250000000698,"noteNumber":72,"velocity":36,"programNumber":41},{"time":76018.99249999992,"duration":117.13250000000698,"noteNumber":69,"velocity":36,"programNumber":41},{"time":76136.12499999993,"duration":117.13250000000698,"noteNumber":71,"velocity":36,"programNumber":41},{"time":76253.25749999993,"duration":117.13250000000698,"noteNumber":67,"velocity":36,"programNumber":41},{"time":76370.38999999994,"duration":234.26499999999942,"noteNumber":66,"velocity":36,"programNumber":41},{"time":76604.65499999994,"duration":117.13250000000698,"noteNumber":69,"velocity":36,"programNumber":41},{"time":76721.78749999995,"duration":117.13250000000698,"noteNumber":66,"velocity":36,"programNumber":41},{"time":76838.91999999995,"duration":117.13250000000698,"noteNumber":62,"velocity":36,"programNumber":41},{"time":76956.05249999996,"duration":117.13250000000698,"noteNumber":64,"velocity":36,"programNumber":41},{"time":77073.18499999997,"duration":117.13250000000698,"noteNumber":62,"velocity":36,"programNumber":41},{"time":77190.31749999998,"duration":117.13250000000698,"noteNumber":60,"velocity":36,"programNumber":41},{"time":77307.44999999998,"duration":117.13250000000698,"noteNumber":59,"velocity":36,"programNumber":41},{"time":77424.58249999999,"duration":117.13250000000698,"noteNumber":57,"velocity":36,"programNumber":41},{"time":77541.715,"duration":117.13250000000698,"noteNumber":55,"velocity":36,"programNumber":41},{"time":77658.8475,"duration":117.13250000000698,"noteNumber":57,"velocity":36,"programNumber":41},{"time":77775.98000000001,"duration":234.26499999999942,"noteNumber":59,"velocity":36,"programNumber":41},{"time":78010.24500000001,"duration":234.26499999999942,"noteNumber":59,"velocity":36,"programNumber":41},{"time":78244.51000000001,"duration":234.26499999999942,"noteNumber":59,"velocity":36,"programNumber":41},{"time":78478.77500000001,"duration":234.26499999999942,"noteNumber":59,"velocity":36,"programNumber":41},{"time":78713.04000000001,"duration":117.13250000000698,"noteNumber":60,"velocity":36,"programNumber":41},{"time":78830.17250000002,"duration":117.13250000000698,"noteNumber":57,"velocity":36,"programNumber":41},{"time":78947.30500000002,"duration":117.13250000000698,"noteNumber":59,"velocity":36,"programNumber":41},{"time":79064.43750000003,"duration":117.13250000000698,"noteNumber":55,"velocity":36,"programNumber":41},{"time":79181.57000000004,"duration":234.26499999999942,"noteNumber":54,"velocity":36,"programNumber":41},{"time":79415.83500000004,"duration":117.13250000000698,"noteNumber":57,"velocity":36,"programNumber":41},{"time":79532.96750000004,"duration":117.13250000000698,"noteNumber":54,"velocity":36,"programNumber":41},{"time":79650.10000000005,"duration":117.13250000000698,"noteNumber":50,"velocity":36,"programNumber":41},{"time":79767.23250000006,"duration":117.13250000000698,"noteNumber":64,"velocity":36,"programNumber":41},{"time":79884.36500000006,"duration":117.13250000000698,"noteNumber":62,"velocity":36,"programNumber":41},{"time":80001.49750000007,"duration":117.13250000000698,"noteNumber":54,"velocity":36,"programNumber":41},{"time":80118.63000000008,"duration":234.26499999999942,"noteNumber":55,"velocity":36,"programNumber":41},{"time":80352.89500000008,"duration":234.26499999999942,"noteNumber":55,"velocity":36,"programNumber":41},{"time":80587.16000000008,"duration":234.26499999999942,"noteNumber":62,"velocity":36,"programNumber":41},{"time":80821.42500000008,"duration":234.26499999999942,"noteNumber":62,"velocity":36,"programNumber":41},{"time":81055.69000000008,"duration":234.26499999999942,"noteNumber":62,"velocity":36,"programNumber":41},{"time":81289.95500000007,"duration":234.26499999999942,"noteNumber":62,"velocity":36,"programNumber":41},{"time":81524.22000000007,"duration":234.26499999999942,"noteNumber":60,"velocity":36,"programNumber":41},{"time":82695.54500000007,"duration":234.26499999999942,"noteNumber":64,"velocity":36,"programNumber":41},{"time":82929.81000000007,"duration":234.26499999999942,"noteNumber":62,"velocity":36,"programNumber":41},{"time":83164.07500000007,"duration":234.26499999999942,"noteNumber":62,"velocity":36,"programNumber":41},{"time":83398.34000000007,"duration":234.26499999999942,"noteNumber":62,"velocity":36,"programNumber":41},{"time":83632.60500000007,"duration":234.26499999999942,"noteNumber":62,"velocity":36,"programNumber":41},{"time":83866.87000000007,"duration":234.26499999999942,"noteNumber":62,"velocity":36,"programNumber":41},{"time":84101.13500000007,"duration":234.26499999999942,"noteNumber":62,"velocity":36,"programNumber":41},{"time":84335.40000000007,"duration":468.52999999999884,"noteNumber":62,"velocity":36,"programNumber":41},{"time":84921.06250000007,"duration":117.13250000000698,"noteNumber":71,"velocity":36,"programNumber":41},{"time":85038.19500000008,"duration":117.13250000000698,"noteNumber":69,"velocity":36,"programNumber":41},{"time":85155.32750000009,"duration":117.13250000000698,"noteNumber":71,"velocity":36,"programNumber":41},{"time":85272.4600000001,"duration":117.13250000000698,"noteNumber":72,"velocity":36,"programNumber":41},{"time":85389.5925000001,"duration":117.13250000000698,"noteNumber":71,"velocity":36,"programNumber":41},{"time":85506.72500000011,"duration":117.13250000000698,"noteNumber":69,"velocity":36,"programNumber":41},{"time":85623.85750000011,"duration":117.13250000000698,"noteNumber":71,"velocity":36,"programNumber":41},{"time":85740.99000000012,"duration":468.52999999999884,"noteNumber":71,"velocity":36,"programNumber":41},{"time":86326.65250000013,"duration":117.13250000000698,"noteNumber":67,"velocity":36,"programNumber":41},{"time":86443.78500000013,"duration":117.13250000000698,"noteNumber":66,"velocity":36,"programNumber":41},{"time":86560.91750000014,"duration":117.13250000000698,"noteNumber":67,"velocity":36,"programNumber":41},{"time":86678.05000000015,"duration":117.13250000000698,"noteNumber":69,"velocity":36,"programNumber":41},{"time":86795.18250000016,"duration":117.13250000000698,"noteNumber":67,"velocity":36,"programNumber":41},{"time":86912.31500000016,"duration":117.13250000000698,"noteNumber":66,"velocity":36,"programNumber":41},{"time":87029.44750000017,"duration":117.13250000000698,"noteNumber":67,"velocity":36,"programNumber":41},{"time":87146.58000000018,"duration":234.26499999999942,"noteNumber":55,"velocity":36,"programNumber":41},{"time":87380.84500000018,"duration":39.044166666673846,"noteNumber":57,"velocity":36,"programNumber":41},{"time":87419.88916666685,"duration":39.044166666673846,"noteNumber":59,"velocity":36,"programNumber":41},{"time":87458.93333333352,"duration":39.044166666673846,"noteNumber":60,"velocity":36,"programNumber":41},{"time":87497.9775000002,"duration":39.044166666673846,"noteNumber":62,"velocity":36,"programNumber":41},{"time":87537.02166666687,"duration":39.044166666673846,"noteNumber":64,"velocity":36,"programNumber":41},{"time":87576.06583333355,"duration":39.044166666673846,"noteNumber":66,"velocity":36,"programNumber":41},{"time":87615.11000000022,"duration":234.26499999999942,"noteNumber":67,"velocity":36,"programNumber":41},{"time":87849.37500000022,"duration":234.26499999999942,"noteNumber":55,"velocity":36,"programNumber":41},{"time":88083.64000000022,"duration":234.26499999999942,"noteNumber":55,"velocity":36,"programNumber":41},{"time":88317.90500000022,"duration":234.26499999999942,"noteNumber":55,"velocity":36,"programNumber":41},{"time":88552.17000000022,"duration":234.26499999999942,"noteNumber":55,"velocity":36,"programNumber":41},{"time":88786.43500000022,"duration":234.26499999999942,"noteNumber":64,"velocity":36,"programNumber":41},{"time":89020.70000000022,"duration":234.26499999999942,"noteNumber":62,"velocity":36,"programNumber":41},{"time":89254.96500000021,"duration":234.26499999999942,"noteNumber":62,"velocity":36,"programNumber":41},{"time":89489.23000000021,"duration":234.26499999999942,"noteNumber":62,"velocity":36,"programNumber":41},{"time":89723.49500000021,"duration":234.26499999999942,"noteNumber":62,"velocity":36,"programNumber":41},{"time":89957.76000000021,"duration":234.26499999999942,"noteNumber":62,"velocity":36,"programNumber":41},{"time":90192.02500000021,"duration":234.26499999999942,"noteNumber":71,"velocity":36,"programNumber":41},{"time":90426.29000000021,"duration":234.26499999999942,"noteNumber":72,"velocity":36,"programNumber":41},{"time":90660.55500000021,"duration":234.26499999999942,"noteNumber":71,"velocity":36,"programNumber":41},{"time":90894.82000000021,"duration":234.26499999999942,"noteNumber":72,"velocity":36,"programNumber":41},{"time":91129.08500000021,"duration":234.26499999999942,"noteNumber":69,"velocity":36,"programNumber":41},{"time":91363.35000000021,"duration":234.26499999999942,"noteNumber":67,"velocity":36,"programNumber":41},{"time":91597.61500000021,"duration":234.26499999999942,"noteNumber":71,"velocity":36,"programNumber":41},{"time":91831.88000000021,"duration":234.26499999999942,"noteNumber":72,"velocity":36,"programNumber":41},{"time":92066.14500000021,"duration":234.26499999999942,"noteNumber":71,"velocity":36,"programNumber":41},{"time":92300.4100000002,"duration":234.26499999999942,"noteNumber":72,"velocity":36,"programNumber":41},{"time":92534.6750000002,"duration":234.26499999999942,"noteNumber":69,"velocity":36,"programNumber":41},{"time":92768.9400000002,"duration":937.0599999999977,"noteNumber":69,"velocity":36,"programNumber":41},{"time":93706.0000000002,"duration":234.26499999999942,"noteNumber":67,"velocity":36,"programNumber":41},{"time":94174.5300000002,"duration":234.26499999999942,"noteNumber":55,"velocity":79,"programNumber":41},{"time":94408.7950000002,"duration":234.26499999999942,"noteNumber":55,"velocity":79,"programNumber":41},{"time":94643.0600000002,"duration":234.26499999999942,"noteNumber":55,"velocity":79,"programNumber":41},{"time":94877.3250000002,"duration":234.26499999999942,"noteNumber":55,"velocity":79,"programNumber":41},{"time":95111.5900000002,"duration":234.26499999999942,"noteNumber":55,"velocity":79,"programNumber":41},{"time":95345.8550000002,"duration":234.26499999999942,"noteNumber":55,"velocity":79,"programNumber":41},{"time":95580.1200000002,"duration":234.26499999999942,"noteNumber":55,"velocity":79,"programNumber":41},{"time":95814.3850000002,"duration":234.26499999999942,"noteNumber":55,"velocity":79,"programNumber":41},{"time":96048.6500000002,"duration":234.26499999999942,"noteNumber":55,"velocity":79,"programNumber":41},{"time":96282.9150000002,"duration":234.26499999999942,"noteNumber":55,"velocity":79,"programNumber":41},{"time":96517.1800000002,"duration":234.26499999999942,"noteNumber":55,"velocity":79,"programNumber":41},{"time":96751.4450000002,"duration":234.26499999999942,"noteNumber":55,"velocity":79,"programNumber":41},{"time":96985.7100000002,"duration":468.52999999999884,"noteNumber":55,"velocity":79,"programNumber":41},{"time":97922.7700000002,"duration":937.0599999999977,"noteNumber":67,"velocity":79,"programNumber":41},{"time":98859.83000000019,"duration":937.0599999999977,"noteNumber":62,"velocity":79,"programNumber":41},{"time":99796.89000000019,"duration":234.26499999999942,"noteNumber":60,"velocity":79,"programNumber":41},{"time":100031.15500000019,"duration":234.26499999999942,"noteNumber":59,"velocity":79,"programNumber":41},{"time":100265.42000000019,"duration":234.26499999999942,"noteNumber":57,"velocity":79,"programNumber":41},{"time":100499.68500000019,"duration":234.26499999999942,"noteNumber":55,"velocity":79,"programNumber":41},{"time":100733.95000000019,"duration":468.52999999999884,"noteNumber":62,"velocity":79,"programNumber":41},{"time":101202.48000000019,"duration":468.52999999999884,"noteNumber":50,"velocity":79,"programNumber":41},{"time":101671.01000000018,"duration":234.26499999999942,"noteNumber":55,"velocity":79,"programNumber":41},{"time":101905.27500000018,"duration":234.26499999999942,"noteNumber":55,"velocity":79,"programNumber":41},{"time":102139.54000000018,"duration":234.26499999999942,"noteNumber":55,"velocity":79,"programNumber":41},{"time":102373.80500000018,"duration":234.26499999999942,"noteNumber":55,"velocity":79,"programNumber":41},{"time":102608.07000000018,"duration":234.26499999999942,"noteNumber":55,"velocity":79,"programNumber":41},{"time":102842.33500000018,"duration":234.26499999999942,"noteNumber":55,"velocity":79,"programNumber":41},{"time":103076.60000000018,"duration":234.26499999999942,"noteNumber":55,"velocity":79,"programNumber":41},{"time":103310.86500000018,"duration":234.26499999999942,"noteNumber":55,"velocity":79,"programNumber":41},{"time":103545.13000000018,"duration":234.26499999999942,"noteNumber":55,"velocity":79,"programNumber":41},{"time":103779.39500000018,"duration":234.26499999999942,"noteNumber":55,"velocity":79,"programNumber":41},{"time":104013.66000000018,"duration":234.26499999999942,"noteNumber":55,"velocity":79,"programNumber":41},{"time":104247.92500000018,"duration":234.26499999999942,"noteNumber":55,"velocity":79,"programNumber":41},{"time":104482.19000000018,"duration":468.52999999999884,"noteNumber":55,"velocity":79,"programNumber":41},{"time":105419.25000000017,"duration":937.0599999999977,"noteNumber":67,"velocity":79,"programNumber":41},{"time":106356.31000000017,"duration":937.0599999999977,"noteNumber":62,"velocity":79,"programNumber":41},{"time":107293.37000000017,"duration":234.26499999999942,"noteNumber":60,"velocity":79,"programNumber":41},{"time":107527.63500000017,"duration":234.26499999999942,"noteNumber":59,"velocity":79,"programNumber":41},{"time":107761.90000000017,"duration":234.26499999999942,"noteNumber":57,"velocity":79,"programNumber":41},{"time":107996.16500000017,"duration":234.26499999999942,"noteNumber":55,"velocity":79,"programNumber":41},{"time":108230.43000000017,"duration":468.52999999999884,"noteNumber":62,"velocity":79,"programNumber":41},{"time":108698.96000000017,"duration":468.52999999999884,"noteNumber":50,"velocity":79,"programNumber":41},{"time":109167.49000000017,"duration":117.13250000000698,"noteNumber":55,"velocity":79,"programNumber":41},{"time":109284.62250000017,"duration":117.13250000000698,"noteNumber":59,"velocity":79,"programNumber":41},{"time":109401.75500000018,"duration":117.13250000000698,"noteNumber":59,"velocity":79,"programNumber":41},{"time":109518.88750000019,"duration":117.13250000000698,"noteNumber":59,"velocity":79,"programNumber":41},{"time":109636.0200000002,"duration":117.13250000000698,"noteNumber":59,"velocity":79,"programNumber":41},{"time":109753.1525000002,"duration":117.13250000000698,"noteNumber":59,"velocity":79,"programNumber":41},{"time":109870.2850000002,"duration":117.13250000000698,"noteNumber":59,"velocity":79,"programNumber":41},{"time":109987.41750000021,"duration":117.13250000000698,"noteNumber":59,"velocity":79,"programNumber":41},{"time":110104.55000000022,"duration":937.0599999999977,"noteNumber":59,"velocity":79,"programNumber":5},{"time":111041.61000000022,"duration":937.0599999999977,"noteNumber":60,"velocity":79,"programNumber":5},{"time":111978.67000000022,"duration":937.0599999999977,"noteNumber":60,"velocity":79,"programNumber":5},{"time":112915.73000000021,"duration":937.0599999999977,"noteNumber":59,"velocity":79,"programNumber":5},{"time":113852.79000000021,"duration":937.0599999999977,"noteNumber":59,"velocity":79,"programNumber":5},{"time":114789.85000000021,"duration":937.0599999999977,"noteNumber":60,"velocity":79,"programNumber":5},{"time":115726.9100000002,"duration":937.0599999999977,"noteNumber":60,"velocity":79,"programNumber":5},{"time":116663.9700000002,"duration":234.26499999999942,"noteNumber":59,"velocity":79,"programNumber":2},{"time":116898.2350000002,"duration":234.26499999999942,"noteNumber":55,"velocity":79,"programNumber":2},{"time":117132.5000000002,"duration":234.26499999999942,"noteNumber":57,"velocity":79,"programNumber":2},{"time":117366.7650000002,"duration":234.26499999999942,"noteNumber":59,"velocity":79,"programNumber":2},{"time":117601.0300000002,"duration":234.26499999999942,"noteNumber":60,"velocity":79,"programNumber":2},{"time":117835.2950000002,"duration":234.26499999999942,"noteNumber":62,"velocity":79,"programNumber":2},{"time":118069.5600000002,"duration":234.26499999999942,"noteNumber":64,"velocity":79,"programNumber":2},{"time":118303.8250000002,"duration":234.26499999999942,"noteNumber":66,"velocity":79,"programNumber":2},{"time":118538.0900000002,"duration":234.26499999999942,"noteNumber":67,"velocity":79,"programNumber":2},{"time":118772.3550000002,"duration":234.26499999999942,"noteNumber":66,"velocity":79,"programNumber":2},{"time":119006.6200000002,"duration":234.26499999999942,"noteNumber":64,"velocity":79,"programNumber":2},{"time":119240.8850000002,"duration":234.26499999999942,"noteNumber":62,"velocity":79,"programNumber":2},{"time":119475.1500000002,"duration":234.26499999999942,"noteNumber":60,"velocity":79,"programNumber":2},{"time":119709.4150000002,"duration":234.26499999999942,"noteNumber":59,"velocity":79,"programNumber":2},{"time":119943.6800000002,"duration":234.26499999999942,"noteNumber":57,"velocity":79,"programNumber":2},{"time":120177.9450000002,"duration":234.26499999999942,"noteNumber":55,"velocity":79,"programNumber":2},{"time":120412.2100000002,"duration":468.52999999999884,"noteNumber":62,"velocity":79,"programNumber":2},{"time":120880.7400000002,"duration":468.52999999999884,"noteNumber":74,"velocity":79,"programNumber":2},{"time":121349.2700000002,"duration":468.52999999999884,"noteNumber":62,"velocity":79,"programNumber":2},{"time":126034.5700000002,"duration":937.0599999999977,"noteNumber":62,"velocity":79,"programNumber":2},{"time":126971.6300000002,"duration":468.52999999999884,"noteNumber":66,"velocity":79,"programNumber":2},{"time":127440.16000000019,"duration":468.52999999999884,"noteNumber":69,"velocity":79,"programNumber":2},{"time":127908.69000000019,"duration":468.52999999999884,"noteNumber":74,"velocity":79,"programNumber":2},{"time":128377.22000000019,"duration":937.0599999999977,"noteNumber":69,"velocity":79,"programNumber":2},{"time":129314.28000000019,"duration":468.52999999999884,"noteNumber":69,"velocity":79,"programNumber":2},{"time":129782.81000000019,"duration":468.52999999999884,"noteNumber":69,"velocity":79,"programNumber":2},{"time":131656.9300000002,"duration":234.26500000001397,"noteNumber":62,"velocity":79,"programNumber":2},{"time":131891.1950000002,"duration":234.26500000001397,"noteNumber":66,"velocity":79,"programNumber":2},{"time":132125.46000000022,"duration":234.26500000001397,"noteNumber":62,"velocity":79,"programNumber":2},{"time":132359.72500000024,"duration":234.26500000001397,"noteNumber":66,"velocity":79,"programNumber":2},{"time":132593.99000000025,"duration":468.52999999999884,"noteNumber":62,"velocity":79,"programNumber":2},{"time":133531.05000000025,"duration":468.52999999999884,"noteNumber":61,"velocity":79,"programNumber":2},{"time":133999.58000000025,"duration":937.0599999999977,"noteNumber":62,"velocity":79,"programNumber":2},{"time":134936.64000000025,"duration":468.52999999999884,"noteNumber":62,"velocity":79,"programNumber":2},{"time":135405.17000000025,"duration":234.26500000001397,"noteNumber":62,"velocity":79,"programNumber":2},{"time":135639.43500000026,"duration":234.26500000001397,"noteNumber":66,"velocity":79,"programNumber":2},{"time":135873.70000000027,"duration":234.26500000001397,"noteNumber":62,"velocity":79,"programNumber":2},{"time":136107.9650000003,"duration":234.26500000001397,"noteNumber":66,"velocity":79,"programNumber":2},{"time":136342.2300000003,"duration":468.52999999999884,"noteNumber":62,"velocity":79,"programNumber":2},{"time":137279.2900000003,"duration":468.52999999999884,"noteNumber":61,"velocity":79,"programNumber":2},{"time":137747.8200000003,"duration":937.0599999999977,"noteNumber":62,"velocity":79,"programNumber":2},{"time":138684.8800000003,"duration":468.52999999999884,"noteNumber":61,"velocity":79,"programNumber":2},{"time":139153.4100000003,"duration":468.52999999999884,"noteNumber":62,"velocity":79,"programNumber":2},{"time":139621.9400000003,"duration":937.0599999999977,"noteNumber":62,"velocity":79,"programNumber":2},{"time":140559.0000000003,"duration":468.52999999999884,"noteNumber":62,"velocity":79,"programNumber":2},{"time":141027.5300000003,"duration":468.52999999999884,"noteNumber":62,"velocity":79,"programNumber":2},{"time":144775.77000000028,"duration":1405.5899999999965,"noteNumber":69,"velocity":79,"programNumber":2},{"time":146181.36000000028,"duration":468.52999999999884,"noteNumber":67,"velocity":79,"programNumber":2},{"time":146649.89000000028,"duration":468.52999999999884,"noteNumber":66,"velocity":79,"programNumber":2},{"time":147118.42000000027,"duration":937.0599999999977,"noteNumber":62,"velocity":79,"programNumber":2},{"time":148055.48000000027,"duration":468.52999999999884,"noteNumber":62,"velocity":79,"programNumber":2},{"time":148524.01000000027,"duration":468.52999999999884,"noteNumber":62,"velocity":79,"programNumber":2},{"time":152272.25000000026,"duration":1405.5899999999965,"noteNumber":69,"velocity":79,"programNumber":2},{"time":153677.84000000026,"duration":468.52999999999884,"noteNumber":67,"velocity":79,"programNumber":2},{"time":154146.37000000026,"duration":468.52999999999884,"noteNumber":66,"velocity":79,"programNumber":2},{"time":154614.90000000026,"duration":117.13250000000698,"noteNumber":72,"velocity":79,"programNumber":2},{"time":154732.03250000026,"duration":117.13250000000698,"noteNumber":71,"velocity":79,"programNumber":2},{"time":154849.16500000027,"duration":117.13250000000698,"noteNumber":69,"velocity":79,"programNumber":2},{"time":154966.29750000028,"duration":117.13250000000698,"noteNumber":67,"velocity":79,"programNumber":2},{"time":155083.43000000028,"duration":234.26500000001397,"noteNumber":69,"velocity":79,"programNumber":2},{"time":155317.6950000003,"duration":234.26500000001397,"noteNumber":66,"velocity":79,"programNumber":2},{"time":155551.9600000003,"duration":468.52999999999884,"noteNumber":64,"velocity":79,"programNumber":2},{"time":156020.4900000003,"duration":1405.5899999999965,"noteNumber":62,"velocity":79,"programNumber":2},{"time":157426.0800000003,"duration":468.52999999999884,"noteNumber":64,"velocity":79,"programNumber":2},{"time":157894.6100000003,"duration":468.52999999999884,"noteNumber":62,"velocity":79,"programNumber":2},{"time":158363.1400000003,"duration":468.52999999999884,"noteNumber":62,"velocity":79,"programNumber":2},{"time":158831.6700000003,"duration":468.52999999999884,"noteNumber":62,"velocity":79,"programNumber":2},{"time":159768.7300000003,"duration":234.26500000001397,"noteNumber":55,"velocity":79,"programNumber":2},{"time":160002.99500000032,"duration":234.26500000001397,"noteNumber":55,"velocity":79,"programNumber":2},{"time":160237.26000000033,"duration":234.26500000001397,"noteNumber":55,"velocity":79,"programNumber":2},{"time":160471.52500000034,"duration":234.26500000001397,"noteNumber":55,"velocity":79,"programNumber":2},{"time":160705.79000000036,"duration":234.26500000001397,"noteNumber":55,"velocity":79,"programNumber":2},{"time":160940.05500000037,"duration":234.26500000001397,"noteNumber":55,"velocity":79,"programNumber":2},{"time":161174.32000000039,"duration":234.26500000001397,"noteNumber":55,"velocity":79,"programNumber":2},{"time":161408.5850000004,"duration":234.26500000001397,"noteNumber":55,"velocity":79,"programNumber":2},{"time":161642.8500000004,"duration":234.26500000001397,"noteNumber":55,"velocity":79,"programNumber":2},{"time":161877.11500000043,"duration":234.26500000001397,"noteNumber":55,"velocity":79,"programNumber":2},{"time":162111.38000000044,"duration":234.26500000001397,"noteNumber":55,"velocity":79,"programNumber":2},{"time":162345.64500000046,"duration":234.26500000001397,"noteNumber":55,"velocity":79,"programNumber":2},{"time":162579.91000000047,"duration":468.52999999999884,"noteNumber":55,"velocity":79,"programNumber":2},{"time":163516.97000000047,"duration":937.0599999999977,"noteNumber":67,"velocity":79,"programNumber":2},{"time":164454.03000000046,"duration":937.0599999999977,"noteNumber":62,"velocity":79,"programNumber":2},{"time":165391.09000000046,"duration":234.26500000001397,"noteNumber":60,"velocity":79,"programNumber":2},{"time":165625.35500000048,"duration":234.26500000001397,"noteNumber":59,"velocity":79,"programNumber":2},{"time":165859.6200000005,"duration":234.26500000001397,"noteNumber":57,"velocity":79,"programNumber":2},{"time":166093.8850000005,"duration":234.26500000001397,"noteNumber":55,"velocity":79,"programNumber":2},{"time":166328.15000000052,"duration":468.52999999999884,"noteNumber":62,"velocity":79,"programNumber":2},{"time":166796.68000000052,"duration":468.52999999999884,"noteNumber":50,"velocity":79,"programNumber":2},{"time":167265.21000000052,"duration":234.26500000001397,"noteNumber":55,"velocity":79,"programNumber":2},{"time":167499.47500000053,"duration":234.26500000001397,"noteNumber":55,"velocity":79,"programNumber":2},{"time":167733.74000000054,"duration":234.26500000001397,"noteNumber":55,"velocity":79,"programNumber":2},{"time":167968.00500000056,"duration":234.26500000001397,"noteNumber":55,"velocity":79,"programNumber":2},{"time":168202.27000000057,"duration":234.26500000001397,"noteNumber":55,"velocity":79,"programNumber":2},{"time":168436.5350000006,"duration":234.26500000001397,"noteNumber":55,"velocity":79,"programNumber":2},{"time":168670.8000000006,"duration":234.26500000001397,"noteNumber":55,"velocity":79,"programNumber":2},{"time":168905.0650000006,"duration":234.26500000001397,"noteNumber":55,"velocity":79,"programNumber":2},{"time":169139.33000000063,"duration":234.26500000001397,"noteNumber":55,"velocity":79,"programNumber":2},{"time":169373.59500000064,"duration":234.26500000001397,"noteNumber":55,"velocity":79,"programNumber":2},{"time":169607.86000000066,"duration":234.26500000001397,"noteNumber":55,"velocity":79,"programNumber":2},{"time":169842.12500000067,"duration":234.26500000001397,"noteNumber":55,"velocity":79,"programNumber":2},{"time":170076.39000000068,"duration":468.52999999999884,"noteNumber":55,"velocity":79,"programNumber":2},{"time":171013.45000000068,"duration":937.0599999999977,"noteNumber":67,"velocity":79,"programNumber":2},{"time":171950.51000000068,"duration":937.0599999999977,"noteNumber":62,"velocity":79,"programNumber":2},{"time":172887.57000000068,"duration":234.26500000001397,"noteNumber":60,"velocity":79,"programNumber":2},{"time":173121.8350000007,"duration":234.26500000001397,"noteNumber":59,"velocity":79,"programNumber":2},{"time":173356.1000000007,"duration":234.26500000001397,"noteNumber":57,"velocity":79,"programNumber":2},{"time":173590.36500000072,"duration":234.26500000001397,"noteNumber":55,"velocity":79,"programNumber":2},{"time":173824.63000000073,"duration":468.52999999999884,"noteNumber":62,"velocity":79,"programNumber":2},{"time":174293.16000000073,"duration":468.52999999999884,"noteNumber":50,"velocity":79,"programNumber":2},{"time":174761.69000000073,"duration":117.13250000000698,"noteNumber":55,"velocity":79,"programNumber":2},{"time":174878.82250000074,"duration":117.13250000000698,"noteNumber":59,"velocity":79,"programNumber":2},{"time":174995.95500000074,"duration":117.13250000000698,"noteNumber":59,"velocity":79,"programNumber":2},{"time":175113.08750000075,"duration":117.13250000000698,"noteNumber":59,"velocity":79,"programNumber":2},{"time":175230.22000000076,"duration":117.13250000000698,"noteNumber":59,"velocity":79,"programNumber":2},{"time":175347.35250000076,"duration":117.13250000000698,"noteNumber":59,"velocity":79,"programNumber":2},{"time":175464.48500000077,"duration":117.13250000000698,"noteNumber":59,"velocity":79,"programNumber":2},{"time":175581.61750000078,"duration":117.13250000000698,"noteNumber":59,"velocity":79,"programNumber":2},{"time":175698.7500000008,"duration":937.0599999999977,"noteNumber":59,"velocity":79,"programNumber":5},{"time":176635.81000000078,"duration":937.0599999999977,"noteNumber":60,"velocity":79,"programNumber":5},{"time":177572.87000000078,"duration":937.0599999999977,"noteNumber":60,"velocity":79,"programNumber":5},{"time":178509.93000000078,"duration":937.0599999999977,"noteNumber":59,"velocity":79,"programNumber":5},{"time":179446.99000000078,"duration":937.0599999999977,"noteNumber":59,"velocity":79,"programNumber":5},{"time":180384.05000000077,"duration":937.0599999999977,"noteNumber":60,"velocity":79,"programNumber":5},{"time":181321.11000000077,"duration":937.0599999999977,"noteNumber":60,"velocity":79,"programNumber":5},{"time":182258.17000000077,"duration":234.26500000001397,"noteNumber":59,"velocity":79,"programNumber":2},{"time":182492.43500000078,"duration":234.26500000001397,"noteNumber":55,"velocity":79,"programNumber":2},{"time":182726.7000000008,"duration":234.26500000001397,"noteNumber":57,"velocity":79,"programNumber":2},{"time":182960.9650000008,"duration":234.26500000001397,"noteNumber":59,"velocity":79,"programNumber":2},{"time":183195.23000000083,"duration":234.26500000001397,"noteNumber":60,"velocity":79,"programNumber":2},{"time":183429.49500000084,"duration":234.26500000001397,"noteNumber":62,"velocity":79,"programNumber":2},{"time":183663.76000000085,"duration":234.26500000001397,"noteNumber":64,"velocity":79,"programNumber":2},{"time":183898.02500000087,"duration":234.26500000001397,"noteNumber":66,"velocity":79,"programNumber":2},{"time":184132.29000000088,"duration":234.26500000001397,"noteNumber":67,"velocity":79,"programNumber":2},{"time":184366.5550000009,"duration":234.26500000001397,"noteNumber":66,"velocity":79,"programNumber":2},{"time":184600.8200000009,"duration":234.26500000001397,"noteNumber":64,"velocity":79,"programNumber":2},{"time":184835.08500000092,"duration":234.26500000001397,"noteNumber":62,"velocity":79,"programNumber":2},{"time":185069.35000000094,"duration":234.26500000001397,"noteNumber":60,"velocity":79,"programNumber":2},{"time":185303.61500000095,"duration":234.26500000001397,"noteNumber":59,"velocity":79,"programNumber":2},{"time":185537.88000000097,"duration":234.26500000001397,"noteNumber":57,"velocity":79,"programNumber":2},{"time":185772.14500000098,"duration":234.26500000001397,"noteNumber":55,"velocity":79,"programNumber":2},{"time":186006.410000001,"duration":468.52999999999884,"noteNumber":62,"velocity":79,"programNumber":2},{"time":186474.940000001,"duration":468.52999999999884,"noteNumber":74,"velocity":79,"programNumber":2},{"time":186943.470000001,"duration":468.52999999999884,"noteNumber":62,"velocity":79,"programNumber":2},{"time":191628.77000000098,"duration":937.0599999999977,"noteNumber":62,"velocity":79,"programNumber":2},{"time":192565.83000000098,"duration":468.52999999999884,"noteNumber":66,"velocity":79,"programNumber":2},{"time":193034.36000000098,"duration":468.52999999999884,"noteNumber":69,"velocity":79,"programNumber":2},{"time":193502.89000000097,"duration":468.52999999999884,"noteNumber":74,"velocity":79,"programNumber":2},{"time":193971.42000000097,"duration":937.0599999999977,"noteNumber":69,"velocity":79,"programNumber":2},{"time":194908.48000000097,"duration":468.52999999999884,"noteNumber":69,"velocity":79,"programNumber":2},{"time":195377.01000000097,"duration":468.52999999999884,"noteNumber":69,"velocity":79,"programNumber":2},{"time":197251.13000000097,"duration":234.26500000001397,"noteNumber":62,"velocity":79,"programNumber":2},{"time":197485.39500000098,"duration":234.26500000001397,"noteNumber":66,"velocity":79,"programNumber":2},{"time":197719.660000001,"duration":234.26500000001397,"noteNumber":62,"velocity":79,"programNumber":2},{"time":197953.925000001,"duration":234.26500000001397,"noteNumber":66,"velocity":79,"programNumber":2},{"time":198188.19000000102,"duration":468.52999999999884,"noteNumber":62,"velocity":79,"programNumber":2},{"time":199125.25000000102,"duration":468.52999999999884,"noteNumber":61,"velocity":79,"programNumber":2},{"time":199593.78000000102,"duration":937.0599999999977,"noteNumber":62,"velocity":79,"programNumber":2},{"time":200530.84000000102,"duration":468.52999999999884,"noteNumber":62,"velocity":79,"programNumber":2},{"time":200999.370000001,"duration":234.26500000001397,"noteNumber":62,"velocity":79,"programNumber":2},{"time":201233.63500000103,"duration":234.26500000001397,"noteNumber":66,"velocity":79,"programNumber":2},{"time":201467.90000000104,"duration":234.26500000001397,"noteNumber":62,"velocity":79,"programNumber":2},{"time":201702.16500000106,"duration":234.26500000001397,"noteNumber":66,"velocity":79,"programNumber":2},{"time":201936.43000000107,"duration":468.52999999999884,"noteNumber":62,"velocity":79,"programNumber":2},{"time":202873.49000000107,"duration":468.52999999999884,"noteNumber":61,"velocity":79,"programNumber":2},{"time":203342.02000000107,"duration":937.0599999999977,"noteNumber":62,"velocity":79,"programNumber":2},{"time":204279.08000000106,"duration":468.52999999999884,"noteNumber":61,"velocity":79,"programNumber":2},{"time":204747.61000000106,"duration":468.52999999999884,"noteNumber":62,"velocity":79,"programNumber":2},{"time":205216.14000000106,"duration":937.0599999999977,"noteNumber":62,"velocity":79,"programNumber":2},{"time":206153.20000000106,"duration":468.52999999999884,"noteNumber":62,"velocity":79,"programNumber":2},{"time":206621.73000000106,"duration":468.52999999999884,"noteNumber":62,"velocity":79,"programNumber":2},{"time":210369.97000000105,"duration":1405.5899999999965,"noteNumber":69,"velocity":79,"programNumber":2},{"time":211775.56000000105,"duration":468.52999999999884,"noteNumber":67,"velocity":79,"programNumber":2},{"time":212244.09000000104,"duration":468.52999999999884,"noteNumber":66,"velocity":79,"programNumber":2},{"time":212712.62000000104,"duration":937.0599999999977,"noteNumber":62,"velocity":79,"programNumber":2},{"time":213649.68000000104,"duration":468.52999999999884,"noteNumber":62,"velocity":79,"programNumber":2},{"time":214118.21000000104,"duration":468.52999999999884,"noteNumber":62,"velocity":79,"programNumber":2},{"time":217866.45000000103,"duration":1405.5899999999965,"noteNumber":69,"velocity":79,"programNumber":2},{"time":219272.04000000103,"duration":468.52999999999884,"noteNumber":67,"velocity":79,"programNumber":2},{"time":219740.57000000103,"duration":468.52999999999884,"noteNumber":66,"velocity":79,"programNumber":2},{"time":220209.10000000102,"duration":117.13250000000698,"noteNumber":72,"velocity":79,"programNumber":2},{"time":220326.23250000103,"duration":117.13250000000698,"noteNumber":71,"velocity":79,"programNumber":2},{"time":220443.36500000104,"duration":117.13250000000698,"noteNumber":69,"velocity":79,"programNumber":2},{"time":220560.49750000105,"duration":117.13250000000698,"noteNumber":67,"velocity":79,"programNumber":2},{"time":220677.63000000105,"duration":234.26500000001397,"noteNumber":69,"velocity":79,"programNumber":2},{"time":220911.89500000107,"duration":234.26500000001397,"noteNumber":66,"velocity":79,"programNumber":2},{"time":221146.16000000108,"duration":468.52999999999884,"noteNumber":64,"velocity":79,"programNumber":2},{"time":221614.69000000108,"duration":1405.5899999999965,"noteNumber":62,"velocity":79,"programNumber":2},{"time":223020.28000000108,"duration":468.52999999999884,"noteNumber":64,"velocity":79,"programNumber":2},{"time":223488.81000000107,"duration":468.52999999999884,"noteNumber":62,"velocity":79,"programNumber":2},{"time":223957.34000000107,"duration":468.52999999999884,"noteNumber":62,"velocity":79,"programNumber":2},{"time":224425.87000000107,"duration":468.52999999999884,"noteNumber":62,"velocity":79,"programNumber":2},{"time":225362.93000000107,"duration":234.26500000001397,"noteNumber":74,"velocity":79,"programNumber":2},{"time":225597.19500000108,"duration":234.26500000001397,"noteNumber":73,"velocity":79,"programNumber":2},{"time":225831.4600000011,"duration":234.26500000001397,"noteNumber":71,"velocity":79,"programNumber":2},{"time":226065.7250000011,"duration":234.26500000001397,"noteNumber":69,"velocity":79,"programNumber":2},{"time":226299.99000000113,"duration":234.26500000001397,"noteNumber":71,"velocity":79,"programNumber":2},{"time":226534.25500000114,"duration":234.26500000001397,"noteNumber":69,"velocity":79,"programNumber":2},{"time":226768.52000000115,"duration":234.26500000001397,"noteNumber":67,"velocity":79,"programNumber":2},{"time":227002.78500000117,"duration":234.26500000001397,"noteNumber":66,"velocity":79,"programNumber":2},{"time":227237.05000000118,"duration":234.26500000001397,"noteNumber":67,"velocity":79,"programNumber":2},{"time":227471.3150000012,"duration":234.26500000001397,"noteNumber":66,"velocity":79,"programNumber":2},{"time":227705.5800000012,"duration":234.26500000001397,"noteNumber":67,"velocity":79,"programNumber":2},{"time":227939.84500000122,"duration":234.26500000001397,"noteNumber":64,"velocity":79,"programNumber":2},{"time":228174.11000000124,"duration":234.26500000001397,"noteNumber":69,"velocity":79,"programNumber":2},{"time":228408.37500000125,"duration":234.26500000001397,"noteNumber":67,"velocity":79,"programNumber":2},{"time":228642.64000000127,"duration":234.26500000001397,"noteNumber":69,"velocity":79,"programNumber":2},{"time":228876.90500000128,"duration":234.26500000001397,"noteNumber":57,"velocity":79,"programNumber":2},{"time":229111.1700000013,"duration":234.26500000001397,"noteNumber":62,"velocity":79,"programNumber":2},{"time":229345.4350000013,"duration":234.26500000001397,"noteNumber":61,"velocity":79,"programNumber":2},{"time":229579.70000000132,"duration":234.26500000001397,"noteNumber":62,"velocity":79,"programNumber":2},{"time":229813.96500000134,"duration":234.26500000001397,"noteNumber":64,"velocity":79,"programNumber":2},{"time":230048.23000000135,"duration":234.26500000001397,"noteNumber":66,"velocity":79,"programNumber":2},{"time":230282.49500000136,"duration":234.26500000001397,"noteNumber":64,"velocity":79,"programNumber":2},{"time":230516.76000000138,"duration":234.26500000001397,"noteNumber":66,"velocity":79,"programNumber":2},{"time":230751.0250000014,"duration":234.26500000001397,"noteNumber":62,"velocity":79,"programNumber":2},{"time":230985.2900000014,"duration":234.26500000001397,"noteNumber":61,"velocity":79,"programNumber":2},{"time":231219.55500000142,"duration":234.26500000001397,"noteNumber":62,"velocity":79,"programNumber":2},{"time":231453.82000000143,"duration":234.26500000001397,"noteNumber":64,"velocity":79,"programNumber":2},{"time":231688.08500000145,"duration":234.26500000001397,"noteNumber":62,"velocity":79,"programNumber":2},{"time":231922.35000000146,"duration":234.26500000001397,"noteNumber":61,"velocity":79,"programNumber":2},{"time":232156.61500000147,"duration":234.26500000001397,"noteNumber":57,"velocity":79,"programNumber":2},{"time":232390.8800000015,"duration":234.26500000001397,"noteNumber":59,"velocity":79,"programNumber":2},{"time":232625.1450000015,"duration":234.26500000001397,"noteNumber":61,"velocity":79,"programNumber":2},{"time":232859.41000000152,"duration":234.26500000001397,"noteNumber":62,"velocity":79,"programNumber":2},{"time":233093.67500000153,"duration":234.26500000001397,"noteNumber":61,"velocity":79,"programNumber":2},{"time":233327.94000000154,"duration":234.26500000001397,"noteNumber":59,"velocity":79,"programNumber":2},{"time":233562.20500000156,"duration":234.26500000001397,"noteNumber":57,"velocity":79,"programNumber":2},{"time":233796.47000000157,"duration":234.26500000001397,"noteNumber":59,"velocity":79,"programNumber":2},{"time":234030.7350000016,"duration":234.26500000001397,"noteNumber":57,"velocity":79,"programNumber":2},{"time":234265.0000000016,"duration":234.26500000001397,"noteNumber":55,"velocity":79,"programNumber":2},{"time":234499.26500000161,"duration":234.26500000001397,"noteNumber":54,"velocity":79,"programNumber":2},{"time":234733.53000000163,"duration":234.26500000001397,"noteNumber":55,"velocity":79,"programNumber":2},{"time":234967.79500000164,"duration":234.26500000001397,"noteNumber":54,"velocity":79,"programNumber":2},{"time":235202.06000000166,"duration":234.26500000001397,"noteNumber":55,"velocity":79,"programNumber":2},{"time":235436.32500000167,"duration":234.26500000001397,"noteNumber":52,"velocity":79,"programNumber":2},{"time":235670.59000000168,"duration":234.26500000001397,"noteNumber":57,"velocity":79,"programNumber":2},{"time":235904.8550000017,"duration":234.26500000001397,"noteNumber":55,"velocity":79,"programNumber":2},{"time":236139.1200000017,"duration":234.26500000001397,"noteNumber":54,"velocity":79,"programNumber":2},{"time":236373.38500000173,"duration":234.26500000001397,"noteNumber":52,"velocity":79,"programNumber":2},{"time":236607.65000000174,"duration":1874.1199999999953,"noteNumber":50,"velocity":79,"programNumber":2},{"time":238481.77000000174,"duration":468.52999999999884,"noteNumber":50,"velocity":79,"programNumber":2},{"time":242230.01000000173,"duration":1874.1199999999953,"noteNumber":55,"velocity":79,"programNumber":2},{"time":244104.13000000172,"duration":1874.1199999999953,"noteNumber":57,"velocity":79,"programNumber":2},{"time":245978.25000000172,"duration":468.52999999999884,"noteNumber":62,"velocity":79,"programNumber":2},{"time":247852.3700000017,"duration":468.52999999999884,"noteNumber":62,"velocity":79,"programNumber":2},{"time":249726.4900000017,"duration":468.52999999999884,"noteNumber":62,"velocity":79,"programNumber":2},{"time":250195.0200000017,"duration":468.52999999999884,"noteNumber":62,"velocity":79,"programNumber":2},{"time":250663.5500000017,"duration":468.52999999999884,"noteNumber":62,"velocity":79,"programNumber":2},{"time":251600.6100000017,"duration":234.26500000001397,"noteNumber":55,"velocity":79,"programNumber":2},{"time":251834.87500000172,"duration":234.26500000001397,"noteNumber":55,"velocity":79,"programNumber":2},{"time":252069.14000000173,"duration":234.26500000001397,"noteNumber":55,"velocity":79,"programNumber":2},{"time":252303.40500000175,"duration":234.26500000001397,"noteNumber":55,"velocity":79,"programNumber":2},{"time":252537.67000000176,"duration":234.26500000001397,"noteNumber":55,"velocity":79,"programNumber":2},{"time":252771.93500000177,"duration":234.26500000001397,"noteNumber":55,"velocity":79,"programNumber":2},{"time":253006.2000000018,"duration":234.26500000001397,"noteNumber":55,"velocity":79,"programNumber":2},{"time":253240.4650000018,"duration":234.26500000001397,"noteNumber":55,"velocity":79,"programNumber":2},{"time":253474.73000000181,"duration":234.26500000001397,"noteNumber":55,"velocity":79,"programNumber":2},{"time":253708.99500000183,"duration":234.26500000001397,"noteNumber":55,"velocity":79,"programNumber":2},{"time":253943.26000000184,"duration":234.26500000001397,"noteNumber":55,"velocity":79,"programNumber":2},{"time":254177.52500000186,"duration":234.26500000001397,"noteNumber":55,"velocity":79,"programNumber":2},{"time":254411.79000000187,"duration":468.52999999999884,"noteNumber":55,"velocity":79,"programNumber":2},{"time":255348.85000000187,"duration":937.0599999999977,"noteNumber":67,"velocity":79,"programNumber":2},{"time":256285.91000000187,"duration":937.0599999999977,"noteNumber":62,"velocity":79,"programNumber":2},{"time":257222.97000000186,"duration":234.26500000001397,"noteNumber":60,"velocity":79,"programNumber":2},{"time":257457.23500000188,"duration":234.26500000001397,"noteNumber":59,"velocity":79,"programNumber":2},{"time":257691.5000000019,"duration":234.26500000001397,"noteNumber":57,"velocity":79,"programNumber":2},{"time":257925.7650000019,"duration":234.26500000001397,"noteNumber":55,"velocity":79,"programNumber":2},{"time":258160.03000000192,"duration":468.52999999999884,"noteNumber":62,"velocity":79,"programNumber":2},{"time":258628.56000000192,"duration":468.52999999999884,"noteNumber":50,"velocity":79,"programNumber":2},{"time":259097.09000000192,"duration":234.26500000001397,"noteNumber":55,"velocity":79,"programNumber":2},{"time":259331.35500000193,"duration":234.26500000001397,"noteNumber":55,"velocity":79,"programNumber":2},{"time":259565.62000000195,"duration":234.26500000001397,"noteNumber":55,"velocity":79,"programNumber":2},{"time":259799.88500000196,"duration":234.26500000001397,"noteNumber":55,"velocity":79,"programNumber":2},{"time":260034.15000000197,"duration":234.26500000001397,"noteNumber":55,"velocity":79,"programNumber":2},{"time":260268.415000002,"duration":234.26500000001397,"noteNumber":55,"velocity":79,"programNumber":2},{"time":260502.680000002,"duration":234.26500000001397,"noteNumber":55,"velocity":79,"programNumber":2},{"time":260736.94500000202,"duration":234.26500000001397,"noteNumber":55,"velocity":79,"programNumber":2},{"time":260971.21000000203,"duration":234.26500000001397,"noteNumber":55,"velocity":79,"programNumber":2},{"time":261205.47500000204,"duration":234.26500000001397,"noteNumber":55,"velocity":79,"programNumber":2},{"time":261439.74000000206,"duration":234.26500000001397,"noteNumber":55,"velocity":79,"programNumber":2},{"time":261674.00500000207,"duration":234.26500000001397,"noteNumber":55,"velocity":79,"programNumber":2},{"time":261908.27000000208,"duration":234.26500000001397,"noteNumber":55,"velocity":79,"programNumber":2},{"time":262845.3300000021,"duration":937.0599999999977,"noteNumber":67,"velocity":79,"programNumber":2},{"time":263782.3900000021,"duration":937.0599999999977,"noteNumber":62,"velocity":79,"programNumber":2},{"time":264719.4500000021,"duration":58.56624999997439,"noteNumber":60,"velocity":79,"programNumber":2},{"time":264778.0162500021,"duration":58.56624999997439,"noteNumber":59,"velocity":79,"programNumber":2},{"time":264836.58250000206,"duration":351.39750000002095,"noteNumber":59,"velocity":79,"programNumber":2},{"time":265187.9800000021,"duration":234.26500000001397,"noteNumber":57,"velocity":79,"programNumber":2},{"time":265422.2450000021,"duration":234.26500000001397,"noteNumber":55,"velocity":79,"programNumber":2},{"time":265656.5100000021,"duration":468.53000000002794,"noteNumber":62,"velocity":79,"programNumber":2},{"time":266125.04000000213,"duration":468.53000000002794,"noteNumber":50,"velocity":79,"programNumber":2},{"time":266593.57000000216,"duration":117.13250000000698,"noteNumber":55,"velocity":79,"programNumber":2},{"time":266710.70250000217,"duration":117.13250000000698,"noteNumber":59,"velocity":79,"programNumber":2},{"time":266827.8350000022,"duration":117.13250000000698,"noteNumber":59,"velocity":79,"programNumber":2},{"time":266944.9675000022,"duration":117.13250000000698,"noteNumber":59,"velocity":79,"programNumber":2},{"time":267062.1000000022,"duration":117.13250000000698,"noteNumber":59,"velocity":79,"programNumber":2},{"time":267179.2325000022,"duration":117.13250000000698,"noteNumber":59,"velocity":79,"programNumber":2},{"time":267296.3650000022,"duration":117.13250000000698,"noteNumber":59,"velocity":79,"programNumber":2},{"time":267413.4975000022,"duration":117.13250000000698,"noteNumber":59,"velocity":79,"programNumber":2},{"time":267530.6300000022,"duration":937.0599999999977,"noteNumber":59,"velocity":79,"programNumber":2},{"time":268467.6900000022,"duration":937.0599999999977,"noteNumber":60,"velocity":79,"programNumber":2},{"time":269404.7500000022,"duration":937.0599999999977,"noteNumber":60,"velocity":79,"programNumber":2},{"time":270341.8100000022,"duration":937.0599999999977,"noteNumber":59,"velocity":79,"programNumber":2},{"time":271278.8700000022,"duration":937.0599999999977,"noteNumber":59,"velocity":79,"programNumber":2},{"time":272215.9300000022,"duration":937.0599999999977,"noteNumber":60,"velocity":79,"programNumber":2},{"time":273152.9900000022,"duration":937.0599999999977,"noteNumber":60,"velocity":79,"programNumber":2},{"time":274090.0500000022,"duration":234.26500000001397,"noteNumber":59,"velocity":79,"programNumber":2},{"time":274324.3150000022,"duration":234.26500000001397,"noteNumber":55,"velocity":79,"programNumber":2},{"time":274558.5800000022,"duration":234.26500000001397,"noteNumber":57,"velocity":79,"programNumber":2},{"time":274792.84500000224,"duration":234.26500000001397,"noteNumber":59,"velocity":79,"programNumber":2},{"time":275027.11000000226,"duration":234.26500000001397,"noteNumber":60,"velocity":79,"programNumber":2},{"time":275261.37500000227,"duration":234.26500000001397,"noteNumber":62,"velocity":79,"programNumber":2},{"time":275495.6400000023,"duration":234.26500000001397,"noteNumber":64,"velocity":79,"programNumber":2},{"time":275729.9050000023,"duration":234.26500000001397,"noteNumber":66,"velocity":79,"programNumber":2},{"time":275964.1700000023,"duration":234.26500000001397,"noteNumber":67,"velocity":79,"programNumber":2},{"time":276198.4350000023,"duration":234.26500000001397,"noteNumber":66,"velocity":79,"programNumber":2},{"time":276432.70000000234,"duration":234.26500000001397,"noteNumber":64,"velocity":79,"programNumber":2},{"time":276666.96500000235,"duration":234.26500000001397,"noteNumber":62,"velocity":79,"programNumber":2},{"time":276901.23000000237,"duration":234.26500000001397,"noteNumber":60,"velocity":79,"programNumber":2},{"time":277135.4950000024,"duration":234.26500000001397,"noteNumber":59,"velocity":79,"programNumber":2},{"time":277369.7600000024,"duration":234.26500000001397,"noteNumber":57,"velocity":79,"programNumber":2},{"time":277604.0250000024,"duration":234.26500000001397,"noteNumber":55,"velocity":79,"programNumber":2},{"time":277838.2900000024,"duration":468.53000000002794,"noteNumber":62,"velocity":79,"programNumber":2},{"time":278306.82000000245,"duration":468.53000000002794,"noteNumber":74,"velocity":79,"programNumber":2},{"time":278775.3500000025,"duration":468.53000000002794,"noteNumber":62,"velocity":79,"programNumber":2},{"time":283460.6500000025,"duration":937.0599999999977,"noteNumber":55,"velocity":79,"programNumber":2},{"time":284397.7100000025,"duration":468.53000000002794,"noteNumber":59,"velocity":79,"programNumber":2},{"time":284866.24000000255,"duration":468.53000000002794,"noteNumber":62,"velocity":79,"programNumber":2},{"time":285334.7700000026,"duration":468.53000000002794,"noteNumber":62,"velocity":79,"programNumber":2},{"time":285803.3000000026,"duration":937.0599999999977,"noteNumber":62,"velocity":79,"programNumber":2},{"time":286740.3600000026,"duration":468.53000000002794,"noteNumber":62,"velocity":79,"programNumber":2},{"time":287208.89000000263,"duration":468.53000000002794,"noteNumber":62,"velocity":79,"programNumber":2},{"time":289083.0100000027,"duration":234.26500000001397,"noteNumber":55,"velocity":79,"programNumber":2},{"time":289317.2750000027,"duration":234.26500000001397,"noteNumber":59,"velocity":79,"programNumber":2},{"time":289551.5400000027,"duration":234.26500000001397,"noteNumber":55,"velocity":79,"programNumber":2},{"time":289785.8050000027,"duration":234.26500000001397,"noteNumber":59,"velocity":79,"programNumber":2},{"time":290020.07000000274,"duration":468.53000000002794,"noteNumber":55,"velocity":79,"programNumber":2},{"time":290957.1300000028,"duration":468.53000000002794,"noteNumber":54,"velocity":79,"programNumber":2},{"time":291425.6600000028,"duration":937.0599999999977,"noteNumber":55,"velocity":79,"programNumber":2},{"time":292362.7200000028,"duration":468.53000000002794,"noteNumber":54,"velocity":79,"programNumber":2},{"time":292831.25000000285,"duration":234.26500000001397,"noteNumber":55,"velocity":79,"programNumber":2},{"time":293065.51500000287,"duration":234.26500000001397,"noteNumber":59,"velocity":79,"programNumber":2},{"time":293299.7800000029,"duration":234.26500000001397,"noteNumber":55,"velocity":79,"programNumber":2},{"time":293534.0450000029,"duration":234.26500000001397,"noteNumber":59,"velocity":79,"programNumber":2},{"time":293768.3100000029,"duration":468.53000000002794,"noteNumber":55,"velocity":79,"programNumber":2},{"time":294705.37000000296,"duration":468.53000000002794,"noteNumber":54,"velocity":79,"programNumber":2},{"time":295173.900000003,"duration":937.0599999999977,"noteNumber":55,"velocity":79,"programNumber":2},{"time":296110.960000003,"duration":468.53000000002794,"noteNumber":54,"velocity":79,"programNumber":2},{"time":296579.490000003,"duration":468.53000000002794,"noteNumber":55,"velocity":79,"programNumber":2},{"time":297048.02000000305,"duration":937.0599999999977,"noteNumber":67,"velocity":79,"programNumber":2},{"time":297985.08000000304,"duration":468.53000000002794,"noteNumber":67,"velocity":79,"programNumber":2},{"time":298453.6100000031,"duration":468.53000000002794,"noteNumber":67,"velocity":79,"programNumber":2},{"time":302201.8500000031,"duration":1405.5900000000256,"noteNumber":62,"velocity":79,"programNumber":2},{"time":303607.44000000315,"duration":468.53000000002794,"noteNumber":60,"velocity":79,"programNumber":2},{"time":304075.9700000032,"duration":468.53000000002794,"noteNumber":59,"velocity":79,"programNumber":2},{"time":304544.5000000032,"duration":937.0599999999977,"noteNumber":55,"velocity":79,"programNumber":2},{"time":305481.5600000032,"duration":468.53000000002794,"noteNumber":67,"velocity":79,"programNumber":2},{"time":305950.0900000032,"duration":468.53000000002794,"noteNumber":67,"velocity":79,"programNumber":2},{"time":309698.3300000033,"duration":1405.5900000000256,"noteNumber":62,"velocity":79,"programNumber":2},{"time":311103.9200000033,"duration":468.53000000002794,"noteNumber":60,"velocity":79,"programNumber":2},{"time":311572.45000000333,"duration":468.53000000002794,"noteNumber":59,"velocity":79,"programNumber":2},{"time":312040.98000000336,"duration":117.13250000000698,"noteNumber":66,"velocity":79,"programNumber":2},{"time":312158.11250000336,"duration":117.13250000000698,"noteNumber":64,"velocity":79,"programNumber":2},{"time":312275.2450000034,"duration":117.13250000000698,"noteNumber":62,"velocity":79,"programNumber":2},{"time":312392.3775000034,"duration":117.13250000000698,"noteNumber":60,"velocity":79,"programNumber":2},{"time":312509.5100000034,"duration":234.26500000001397,"noteNumber":62,"velocity":79,"programNumber":2},{"time":312743.7750000034,"duration":234.26500000001397,"noteNumber":59,"velocity":79,"programNumber":2},{"time":312978.0400000034,"duration":468.53000000002794,"noteNumber":57,"velocity":79,"programNumber":2},{"time":313446.57000000344,"duration":468.53000000002794,"noteNumber":55,"velocity":79,"programNumber":2},{"time":313915.10000000347,"duration":937.0599999999977,"noteNumber":55,"velocity":79,"programNumber":2},{"time":314852.16000000347,"duration":468.53000000002794,"noteNumber":57,"velocity":79,"programNumber":2},{"time":315320.6900000035,"duration":468.53000000002794,"noteNumber":55,"velocity":79,"programNumber":2},{"time":315789.2200000035,"duration":468.53000000002794,"noteNumber":55,"velocity":79,"programNumber":2},{"time":316257.75000000355,"duration":468.53000000002794,"noteNumber":55,"velocity":79,"programNumber":2},{"time":320943.0500000036,"duration":234.26500000001397,"noteNumber":64,"velocity":79,"programNumber":2},{"time":321411.5800000036,"duration":937.0599999999977,"noteNumber":59,"velocity":79,"programNumber":2},{"time":322348.6400000036,"duration":468.53000000002794,"noteNumber":57,"velocity":79,"programNumber":2},{"time":322817.17000000365,"duration":468.53000000002794,"noteNumber":62,"velocity":79,"programNumber":2},{"time":323285.7000000037,"duration":468.53000000002794,"noteNumber":66,"velocity":79,"programNumber":2},{"time":323754.2300000037,"duration":468.53000000002794,"noteNumber":67,"velocity":79,"programNumber":2},{"time":324222.76000000373,"duration":234.26500000001397,"noteNumber":69,"velocity":79,"programNumber":2},{"time":324691.29000000376,"duration":937.0599999999977,"noteNumber":62,"velocity":79,"programNumber":2},{"time":325628.35000000376,"duration":234.26500000001397,"noteNumber":60,"velocity":79,"programNumber":2},{"time":326096.8800000038,"duration":234.26500000001397,"noteNumber":59,"velocity":79,"programNumber":2},{"time":326565.4100000038,"duration":234.26500000001397,"noteNumber":57,"velocity":79,"programNumber":2},{"time":327033.94000000384,"duration":937.0599999999977,"noteNumber":55,"velocity":79,"programNumber":2},{"time":332187.77000000386,"duration":234.26500000001397,"noteNumber":64,"velocity":79,"programNumber":2},{"time":332656.3000000039,"duration":937.0599999999977,"noteNumber":59,"velocity":79,"programNumber":2},{"time":333593.3600000039,"duration":468.53000000002794,"noteNumber":57,"velocity":79,"programNumber":2},{"time":334061.8900000039,"duration":468.53000000002794,"noteNumber":62,"velocity":79,"programNumber":2},{"time":334530.42000000394,"duration":468.53000000002794,"noteNumber":66,"velocity":79,"programNumber":2},{"time":334998.95000000397,"duration":468.53000000002794,"noteNumber":67,"velocity":79,"programNumber":2},{"time":335467.480000004,"duration":234.26500000001397,"noteNumber":69,"velocity":79,"programNumber":2},{"time":335936.010000004,"duration":937.0599999999977,"noteNumber":62,"velocity":79,"programNumber":2},{"time":336873.070000004,"duration":234.26500000001397,"noteNumber":60,"velocity":79,"programNumber":2},{"time":337341.60000000405,"duration":234.26500000001397,"noteNumber":59,"velocity":79,"programNumber":2},{"time":337810.1300000041,"duration":234.26500000001397,"noteNumber":57,"velocity":79,"programNumber":2},{"time":338278.6600000041,"duration":937.0599999999977,"noteNumber":55,"velocity":79,"programNumber":2},{"time":340152.7800000041,"duration":234.26500000001397,"noteNumber":62,"velocity":36,"programNumber":2},{"time":340387.0450000041,"duration":234.26500000001397,"noteNumber":66,"velocity":36,"programNumber":2},{"time":340621.31000000413,"duration":234.26500000001397,"noteNumber":69,"velocity":36,"programNumber":2},{"time":341558.3700000041,"duration":234.26500000001397,"noteNumber":57,"velocity":36,"programNumber":2},{"time":341792.63500000414,"duration":234.26500000001397,"noteNumber":62,"velocity":36,"programNumber":2},{"time":342026.90000000416,"duration":234.26500000001397,"noteNumber":66,"velocity":36,"programNumber":2},{"time":343432.4900000042,"duration":234.26500000001397,"noteNumber":67,"velocity":36,"programNumber":2},{"time":343901.0200000042,"duration":937.0599999999977,"noteNumber":66,"velocity":36,"programNumber":2},{"time":344838.0800000042,"duration":468.53000000002794,"noteNumber":64,"velocity":36,"programNumber":2},{"time":345775.14000000426,"duration":468.53000000002794,"noteNumber":61,"velocity":36,"programNumber":2},{"time":346243.6700000043,"duration":468.53000000002794,"noteNumber":62,"velocity":36,"programNumber":2},{"time":346712.2000000043,"duration":468.53000000002794,"noteNumber":62,"velocity":36,"programNumber":2},{"time":347180.73000000435,"duration":468.53000000002794,"noteNumber":66,"velocity":36,"programNumber":2},{"time":347649.2600000044,"duration":468.53000000002794,"noteNumber":67,"velocity":36,"programNumber":2},{"time":348117.7900000044,"duration":234.26500000001397,"noteNumber":66,"velocity":36,"programNumber":2},{"time":348586.32000000443,"duration":234.26500000001397,"noteNumber":69,"velocity":36,"programNumber":2},{"time":348820.58500000444,"duration":234.26500000001397,"noteNumber":66,"velocity":36,"programNumber":2},{"time":349054.85000000446,"duration":234.26500000001397,"noteNumber":67,"velocity":36,"programNumber":2},{"time":349289.1150000045,"duration":234.26500000001397,"noteNumber":64,"velocity":36,"programNumber":2},{"time":349523.3800000045,"duration":468.53000000002794,"noteNumber":62,"velocity":36,"programNumber":2},{"time":353740.15000000456,"duration":234.26500000001397,"noteNumber":48,"velocity":36,"programNumber":2},{"time":354208.6800000046,"duration":234.26500000001397,"noteNumber":60,"velocity":36,"programNumber":2},{"time":354677.2100000046,"duration":234.26500000001397,"noteNumber":61,"velocity":36,"programNumber":2},{"time":355145.74000000465,"duration":234.26500000001397,"noteNumber":62,"velocity":36,"programNumber":2},{"time":355614.2700000047,"duration":234.26500000001397,"noteNumber":57,"velocity":36,"programNumber":2},{"time":356082.8000000047,"duration":234.26500000001397,"noteNumber":50,"velocity":36,"programNumber":2},{"time":360299.5700000047,"duration":234.26500000001397,"noteNumber":64,"velocity":36,"programNumber":2},{"time":360768.10000000475,"duration":937.0599999999977,"noteNumber":59,"velocity":36,"programNumber":2},{"time":361705.16000000475,"duration":468.53000000002794,"noteNumber":57,"velocity":36,"programNumber":2},{"time":362173.6900000048,"duration":468.53000000002794,"noteNumber":62,"velocity":36,"programNumber":2},{"time":362642.2200000048,"duration":468.53000000002794,"noteNumber":66,"velocity":36,"programNumber":2},{"time":363110.75000000483,"duration":468.53000000002794,"noteNumber":67,"velocity":36,"programNumber":2},{"time":363579.28000000486,"duration":234.26500000001397,"noteNumber":69,"velocity":36,"programNumber":2},{"time":364047.8100000049,"duration":937.0599999999977,"noteNumber":62,"velocity":36,"programNumber":2},{"time":365453.4000000049,"duration":234.26500000001397,"noteNumber":62,"velocity":36,"programNumber":2},{"time":365921.93000000494,"duration":234.26500000001397,"noteNumber":62,"velocity":36,"programNumber":2},{"time":366390.46000000497,"duration":937.0599999999977,"noteNumber":62,"velocity":36,"programNumber":2},{"time":368264.580000005,"duration":234.26500000001397,"noteNumber":62,"velocity":36,"programNumber":2},{"time":368498.84500000504,"duration":234.26500000001397,"noteNumber":66,"velocity":36,"programNumber":2},{"time":368733.11000000505,"duration":468.52999999996973,"noteNumber":69,"velocity":36,"programNumber":2},{"time":369670.17000000505,"duration":234.26500000001397,"noteNumber":57,"velocity":36,"programNumber":2},{"time":369904.43500000506,"duration":234.26500000001397,"noteNumber":62,"velocity":36,"programNumber":2},{"time":370138.7000000051,"duration":468.52999999996973,"noteNumber":66,"velocity":36,"programNumber":2},{"time":371544.29000000504,"duration":468.52999999996973,"noteNumber":67,"velocity":36,"programNumber":2},{"time":372012.820000005,"duration":937.0599999999977,"noteNumber":66,"velocity":36,"programNumber":2},{"time":372949.880000005,"duration":468.53000000002794,"noteNumber":64,"velocity":36,"programNumber":2},{"time":373886.94000000507,"duration":468.53000000002794,"noteNumber":61,"velocity":36,"programNumber":2},{"time":374355.4700000051,"duration":468.53000000002794,"noteNumber":62,"velocity":36,"programNumber":2},{"time":374824.0000000051,"duration":468.53000000002794,"noteNumber":62,"velocity":36,"programNumber":2},{"time":375292.53000000515,"duration":468.53000000002794,"noteNumber":66,"velocity":36,"programNumber":2},{"time":375761.0600000052,"duration":468.53000000002794,"noteNumber":67,"velocity":36,"programNumber":2},{"time":376229.5900000052,"duration":468.53000000002794,"noteNumber":66,"velocity":36,"programNumber":2},{"time":376698.12000000523,"duration":234.26500000001397,"noteNumber":69,"velocity":36,"programNumber":2},{"time":376932.38500000525,"duration":234.26500000001397,"noteNumber":66,"velocity":36,"programNumber":2},{"time":377166.65000000526,"duration":234.26500000001397,"noteNumber":67,"velocity":36,"programNumber":2},{"time":377400.9150000053,"duration":234.26500000001397,"noteNumber":64,"velocity":36,"programNumber":2},{"time":377635.1800000053,"duration":468.53000000002794,"noteNumber":62,"velocity":36,"programNumber":2},{"time":381851.9500000053,"duration":468.53000000002794,"noteNumber":48,"velocity":36,"programNumber":2},{"time":382320.48000000534,"duration":468.53000000002794,"noteNumber":60,"velocity":36,"programNumber":2},{"time":382789.01000000536,"duration":468.53000000002794,"noteNumber":61,"velocity":36,"programNumber":2},{"time":383257.5400000054,"duration":468.53000000002794,"noteNumber":62,"velocity":36,"programNumber":2},{"time":383726.0700000054,"duration":468.53000000002794,"noteNumber":57,"velocity":36,"programNumber":2},{"time":384194.60000000545,"duration":468.53000000002794,"noteNumber":50,"velocity":36,"programNumber":2},{"time":388411.37000000547,"duration":468.53000000002794,"noteNumber":64,"velocity":36,"programNumber":2},{"time":388879.9000000055,"duration":937.0599999999977,"noteNumber":59,"velocity":36,"programNumber":2},{"time":389816.9600000055,"duration":468.53000000002794,"noteNumber":57,"velocity":36,"programNumber":2},{"time":390285.4900000055,"duration":468.53000000002794,"noteNumber":62,"velocity":36,"programNumber":2},{"time":390754.02000000555,"duration":468.53000000002794,"noteNumber":66,"velocity":36,"programNumber":2},{"time":391222.5500000056,"duration":468.53000000002794,"noteNumber":67,"velocity":36,"programNumber":2},{"time":391691.0800000056,"duration":468.53000000002794,"noteNumber":69,"velocity":36,"programNumber":2},{"time":392159.61000000563,"duration":937.0599999999977,"noteNumber":62,"velocity":36,"programNumber":2},{"time":393565.20000000566,"duration":468.53000000002794,"noteNumber":62,"velocity":36,"programNumber":2},{"time":394033.7300000057,"duration":468.53000000002794,"noteNumber":62,"velocity":36,"programNumber":2},{"time":394502.2600000057,"duration":937.0599999999977,"noteNumber":62,"velocity":36,"programNumber":2},{"time":395907.8500000057,"duration":468.53000000002794,"noteNumber":64,"velocity":36,"programNumber":2},{"time":396376.3800000057,"duration":468.53000000002794,"noteNumber":64,"velocity":36,"programNumber":2},{"time":396844.91000000574,"duration":468.53000000002794,"noteNumber":64,"velocity":36,"programNumber":2},{"time":397313.44000000576,"duration":468.53000000002794,"noteNumber":62,"velocity":36,"programNumber":2},{"time":397781.9700000058,"duration":468.53000000002794,"noteNumber":62,"velocity":36,"programNumber":2},{"time":398250.5000000058,"duration":468.53000000002794,"noteNumber":62,"velocity":36,"programNumber":2},{"time":398719.03000000585,"duration":468.53000000002794,"noteNumber":60,"velocity":36,"programNumber":2},{"time":399187.5600000059,"duration":468.53000000002794,"noteNumber":60,"velocity":36,"programNumber":2},{"time":399656.0900000059,"duration":468.53000000002794,"noteNumber":60,"velocity":36,"programNumber":2},{"time":400124.62000000593,"duration":468.53000000002794,"noteNumber":59,"velocity":36,"programNumber":2},{"time":400593.15000000596,"duration":468.53000000002794,"noteNumber":59,"velocity":36,"programNumber":2},{"time":401061.680000006,"duration":468.53000000002794,"noteNumber":59,"velocity":36,"programNumber":2},{"time":401530.210000006,"duration":468.53000000002794,"noteNumber":57,"velocity":36,"programNumber":2},{"time":401998.74000000604,"duration":468.53000000002794,"noteNumber":57,"velocity":36,"programNumber":2},{"time":402467.2700000061,"duration":468.53000000002794,"noteNumber":57,"velocity":36,"programNumber":2},{"time":402935.8000000061,"duration":468.53000000002794,"noteNumber":55,"velocity":36,"programNumber":2},{"time":403404.3300000061,"duration":468.53000000002794,"noteNumber":55,"velocity":36,"programNumber":2},{"time":403872.86000000616,"duration":468.53000000002794,"noteNumber":55,"velocity":36,"programNumber":2},{"time":404341.3900000062,"duration":468.53000000002794,"noteNumber":53,"velocity":36,"programNumber":2},{"time":404809.9200000062,"duration":234.26500000001397,"noteNumber":69,"velocity":36,"programNumber":2},{"time":405044.1850000062,"duration":234.26500000001397,"noteNumber":65,"velocity":36,"programNumber":2},{"time":405278.45000000624,"duration":234.26500000001397,"noteNumber":64,"velocity":36,"programNumber":2},{"time":405512.71500000625,"duration":234.26500000001397,"noteNumber":62,"velocity":36,"programNumber":2},{"time":405746.98000000627,"duration":234.26500000001397,"noteNumber":62,"velocity":36,"programNumber":2},{"time":405981.2450000063,"duration":702.7949999999837,"noteNumber":64,"velocity":36,"programNumber":2},{"time":407152.5700000063,"duration":468.53000000002794,"noteNumber":64,"velocity":36,"programNumber":2},{"time":407621.1000000063,"duration":468.53000000002794,"noteNumber":64,"velocity":36,"programNumber":2},{"time":408089.63000000635,"duration":468.53000000002794,"noteNumber":64,"velocity":36,"programNumber":2},{"time":408558.1600000064,"duration":468.53000000002794,"noteNumber":62,"velocity":36,"programNumber":2},{"time":409026.6900000064,"duration":468.53000000002794,"noteNumber":62,"velocity":36,"programNumber":2},{"time":409495.22000000643,"duration":468.53000000002794,"noteNumber":62,"velocity":36,"programNumber":2},{"time":409963.75000000646,"duration":468.53000000002794,"noteNumber":60,"velocity":36,"programNumber":2},{"time":410432.2800000065,"duration":468.53000000002794,"noteNumber":60,"velocity":36,"programNumber":2},{"time":410900.8100000065,"duration":468.53000000002794,"noteNumber":60,"velocity":36,"programNumber":2},{"time":411369.34000000654,"duration":468.53000000002794,"noteNumber":59,"velocity":36,"programNumber":2},{"time":411837.8700000066,"duration":468.53000000002794,"noteNumber":59,"velocity":36,"programNumber":2},{"time":412306.4000000066,"duration":468.53000000002794,"noteNumber":59,"velocity":36,"programNumber":2},{"time":412774.9300000066,"duration":468.53000000002794,"noteNumber":57,"velocity":36,"programNumber":2},{"time":413243.46000000666,"duration":468.53000000002794,"noteNumber":57,"velocity":36,"programNumber":2},{"time":413711.9900000067,"duration":468.53000000002794,"noteNumber":57,"velocity":36,"programNumber":2},{"time":414180.5200000067,"duration":468.53000000002794,"noteNumber":55,"velocity":36,"programNumber":2},{"time":414649.05000000674,"duration":468.53000000002794,"noteNumber":55,"velocity":36,"programNumber":2},{"time":415117.58000000677,"duration":468.53000000002794,"noteNumber":55,"velocity":36,"programNumber":2},{"time":415586.1100000068,"duration":468.53000000002794,"noteNumber":53,"velocity":36,"programNumber":2},{"time":416054.6400000068,"duration":234.26500000001397,"noteNumber":69,"velocity":36,"programNumber":2},{"time":416288.90500000684,"duration":234.26500000001397,"noteNumber":65,"velocity":36,"programNumber":2},{"time":416523.17000000685,"duration":234.26500000001397,"noteNumber":64,"velocity":36,"programNumber":2},{"time":416757.43500000687,"duration":234.26500000001397,"noteNumber":62,"velocity":36,"programNumber":2},{"time":416991.7000000069,"duration":234.26500000001397,"noteNumber":62,"velocity":36,"programNumber":2},{"time":417225.9650000069,"duration":702.7949999999837,"noteNumber":64,"velocity":36,"programNumber":2},{"time":418397.2900000069,"duration":468.53000000002794,"noteNumber":67,"velocity":79,"programNumber":2},{"time":418865.82000000693,"duration":468.53000000002794,"noteNumber":67,"velocity":79,"programNumber":2},{"time":419334.35000000696,"duration":468.53000000002794,"noteNumber":67,"velocity":79,"programNumber":2},{"time":419802.880000007,"duration":468.53000000002794,"noteNumber":67,"velocity":79,"programNumber":2},{"time":420271.410000007,"duration":468.53000000002794,"noteNumber":67,"velocity":79,"programNumber":2},{"time":420739.94000000705,"duration":468.52999999996973,"noteNumber":67,"velocity":79,"programNumber":2},{"time":421208.470000007,"duration":468.53000000002794,"noteNumber":55,"velocity":79,"programNumber":2},{"time":421677.00000000704,"duration":468.53000000002794,"noteNumber":55,"velocity":79,"programNumber":2},{"time":422145.5300000071,"duration":468.53000000002794,"noteNumber":55,"velocity":79,"programNumber":2},{"time":422614.0600000071,"duration":468.53000000002794,"noteNumber":55,"velocity":79,"programNumber":2},{"time":423082.5900000071,"duration":468.53000000002794,"noteNumber":55,"velocity":79,"programNumber":2},{"time":423551.12000000715,"duration":468.53000000002794,"noteNumber":55,"velocity":79,"programNumber":2},{"time":424019.6500000072,"duration":468.53000000002794,"noteNumber":55,"velocity":79,"programNumber":2},{"time":425425.2400000072,"duration":468.53000000002794,"noteNumber":55,"velocity":79,"programNumber":2},{"time":426830.83000000723,"duration":468.53000000002794,"noteNumber":62,"velocity":79,"programNumber":2},{"time":427299.36000000726,"duration":468.53000000002794,"noteNumber":60,"velocity":79,"programNumber":2},{"time":427767.8900000073,"duration":468.53000000002794,"noteNumber":57,"velocity":79,"programNumber":2},{"time":428236.4200000073,"duration":468.53000000002794,"noteNumber":55,"velocity":79,"programNumber":2},{"time":428704.95000000735,"duration":234.26500000001397,"noteNumber":59,"velocity":79,"programNumber":2},{"time":428939.21500000736,"duration":234.26500000001397,"noteNumber":62,"velocity":79,"programNumber":2},{"time":429173.4800000074,"duration":234.26500000001397,"noteNumber":62,"velocity":79,"programNumber":2},{"time":429407.7450000074,"duration":234.26500000001397,"noteNumber":65,"velocity":79,"programNumber":2},{"time":429642.0100000074,"duration":468.53000000002794,"noteNumber":64,"velocity":36,"programNumber":2},{"time":430110.54000000743,"duration":468.53000000002794,"noteNumber":64,"velocity":36,"programNumber":2},{"time":430579.07000000746,"duration":468.53000000002794,"noteNumber":64,"velocity":36,"programNumber":2},{"time":431047.6000000075,"duration":468.53000000002794,"noteNumber":62,"velocity":36,"programNumber":2},{"time":431516.1300000075,"duration":468.53000000002794,"noteNumber":62,"velocity":36,"programNumber":2},{"time":431984.66000000754,"duration":468.53000000002794,"noteNumber":62,"velocity":36,"programNumber":2},{"time":432453.19000000757,"duration":468.53000000002794,"noteNumber":60,"velocity":36,"programNumber":2},{"time":432921.7200000076,"duration":468.53000000002794,"noteNumber":60,"velocity":36,"programNumber":2},{"time":433390.2500000076,"duration":468.53000000002794,"noteNumber":60,"velocity":36,"programNumber":2},{"time":433858.78000000765,"duration":468.53000000002794,"noteNumber":59,"velocity":36,"programNumber":2},{"time":434327.3100000077,"duration":468.53000000002794,"noteNumber":59,"velocity":36,"programNumber":2},{"time":434795.8400000077,"duration":468.53000000002794,"noteNumber":59,"velocity":36,"programNumber":2},{"time":435264.37000000774,"duration":468.53000000002794,"noteNumber":57,"velocity":36,"programNumber":2},{"time":435732.90000000776,"duration":468.53000000002794,"noteNumber":57,"velocity":36,"programNumber":2},{"time":436201.4300000078,"duration":468.53000000002794,"noteNumber":57,"velocity":36,"programNumber":2},{"time":436669.9600000078,"duration":468.53000000002794,"noteNumber":55,"velocity":36,"programNumber":2},{"time":437138.49000000785,"duration":468.53000000002794,"noteNumber":55,"velocity":36,"programNumber":2},{"time":437607.0200000079,"duration":468.53000000002794,"noteNumber":55,"velocity":36,"programNumber":2},{"time":438075.5500000079,"duration":468.53000000002794,"noteNumber":53,"velocity":36,"programNumber":2},{"time":438544.08000000793,"duration":234.26500000001397,"noteNumber":69,"velocity":36,"programNumber":2},{"time":438778.34500000795,"duration":234.26500000001397,"noteNumber":65,"velocity":36,"programNumber":2},{"time":439012.61000000796,"duration":234.26500000001397,"noteNumber":64,"velocity":36,"programNumber":2},{"time":439246.875000008,"duration":234.26500000001397,"noteNumber":62,"velocity":36,"programNumber":2},{"time":439481.140000008,"duration":234.26500000001397,"noteNumber":62,"velocity":36,"programNumber":2},{"time":439715.405000008,"duration":702.7949999999837,"noteNumber":64,"velocity":36,"programNumber":2},{"time":440886.730000008,"duration":468.53000000002794,"noteNumber":67,"velocity":79,"programNumber":2},{"time":441355.26000000804,"duration":468.53000000002794,"noteNumber":67,"velocity":79,"programNumber":2},{"time":441823.79000000807,"duration":468.53000000002794,"noteNumber":67,"velocity":79,"programNumber":2},{"time":442292.3200000081,"duration":468.53000000002794,"noteNumber":67,"velocity":79,"programNumber":2},{"time":442760.8500000081,"duration":468.53000000002794,"noteNumber":67,"velocity":79,"programNumber":2},{"time":443229.38000000815,"duration":468.52999999996973,"noteNumber":67,"velocity":79,"programNumber":2},{"time":443697.9100000081,"duration":468.53000000002794,"noteNumber":55,"velocity":79,"programNumber":2},{"time":444166.44000000815,"duration":468.53000000002794,"noteNumber":55,"velocity":79,"programNumber":2},{"time":444634.9700000082,"duration":468.53000000002794,"noteNumber":55,"velocity":79,"programNumber":2},{"time":445103.5000000082,"duration":468.53000000002794,"noteNumber":55,"velocity":79,"programNumber":2},{"time":445572.03000000824,"duration":468.53000000002794,"noteNumber":55,"velocity":79,"programNumber":2},{"time":446040.56000000826,"duration":468.53000000002794,"noteNumber":55,"velocity":79,"programNumber":2},{"time":446509.0900000083,"duration":468.53000000002794,"noteNumber":55,"velocity":79,"programNumber":2},{"time":447914.6800000083,"duration":468.53000000002794,"noteNumber":55,"velocity":79,"programNumber":2},{"time":449320.27000000834,"duration":468.53000000002794,"noteNumber":62,"velocity":79,"programNumber":2},{"time":449788.80000000837,"duration":468.53000000002794,"noteNumber":60,"velocity":79,"programNumber":2},{"time":450257.3300000084,"duration":468.53000000002794,"noteNumber":57,"velocity":79,"programNumber":2},{"time":450725.8600000084,"duration":468.53000000002794,"noteNumber":55,"velocity":79,"programNumber":2},{"time":451194.39000000845,"duration":234.26500000001397,"noteNumber":59,"velocity":79,"programNumber":2},{"time":451428.65500000847,"duration":234.26500000001397,"noteNumber":62,"velocity":79,"programNumber":2},{"time":451662.9200000085,"duration":234.26500000001397,"noteNumber":62,"velocity":79,"programNumber":2},{"time":451897.1850000085,"duration":234.26500000001397,"noteNumber":65,"velocity":79,"programNumber":2},{"time":452131.4500000085,"duration":468.53000000002794,"noteNumber":64,"velocity":36,"programNumber":2},{"time":452599.98000000854,"duration":468.53000000002794,"noteNumber":64,"velocity":36,"programNumber":2},{"time":453068.51000000857,"duration":468.53000000002794,"noteNumber":64,"velocity":36,"programNumber":2},{"time":453537.0400000086,"duration":468.53000000002794,"noteNumber":62,"velocity":36,"programNumber":2},{"time":454005.5700000086,"duration":468.53000000002794,"noteNumber":62,"velocity":36,"programNumber":2},{"time":454474.10000000865,"duration":468.53000000002794,"noteNumber":62,"velocity":36,"programNumber":2},{"time":454942.6300000087,"duration":468.53000000002794,"noteNumber":60,"velocity":36,"programNumber":2},{"time":455411.1600000087,"duration":468.53000000002794,"noteNumber":60,"velocity":36,"programNumber":2},{"time":455879.69000000873,"duration":468.53000000002794,"noteNumber":60,"velocity":36,"programNumber":2},{"time":456348.22000000876,"duration":468.53000000002794,"noteNumber":59,"velocity":36,"programNumber":2},{"time":456816.7500000088,"duration":468.53000000002794,"noteNumber":59,"velocity":36,"programNumber":2},{"time":457285.2800000088,"duration":468.53000000002794,"noteNumber":59,"velocity":36,"programNumber":2},{"time":457753.81000000885,"duration":468.53000000002794,"noteNumber":57,"velocity":36,"programNumber":2},{"time":458222.3400000089,"duration":468.53000000002794,"noteNumber":57,"velocity":36,"programNumber":2},{"time":458690.8700000089,"duration":468.53000000002794,"noteNumber":57,"velocity":36,"programNumber":2},{"time":459159.4000000089,"duration":468.53000000002794,"noteNumber":55,"velocity":36,"programNumber":2},{"time":459627.93000000896,"duration":468.53000000002794,"noteNumber":55,"velocity":36,"programNumber":2},{"time":460096.460000009,"duration":468.53000000002794,"noteNumber":55,"velocity":36,"programNumber":2},{"time":460564.990000009,"duration":468.53000000002794,"noteNumber":53,"velocity":36,"programNumber":2},{"time":461033.52000000904,"duration":234.26500000001397,"noteNumber":69,"velocity":36,"programNumber":2},{"time":461267.78500000905,"duration":234.26500000001397,"noteNumber":65,"velocity":36,"programNumber":2},{"time":461502.05000000907,"duration":234.26500000001397,"noteNumber":64,"velocity":36,"programNumber":2},{"time":461736.3150000091,"duration":234.26500000001397,"noteNumber":62,"velocity":36,"programNumber":2},{"time":461970.5800000091,"duration":234.26500000001397,"noteNumber":62,"velocity":36,"programNumber":2},{"time":462204.8450000091,"duration":702.7949999999837,"noteNumber":64,"velocity":36,"programNumber":2},{"time":467124.4100000091,"duration":468.53000000002794,"noteNumber":64,"velocity":36,"programNumber":2},{"time":467592.94000000914,"duration":937.0599999999977,"noteNumber":59,"velocity":36,"programNumber":2},{"time":468530.00000000914,"duration":468.53000000002794,"noteNumber":57,"velocity":36,"programNumber":2},{"time":468998.53000000917,"duration":468.53000000002794,"noteNumber":62,"velocity":36,"programNumber":2},{"time":469467.0600000092,"duration":468.53000000002794,"noteNumber":66,"velocity":36,"programNumber":2},{"time":469935.5900000092,"duration":468.53000000002794,"noteNumber":67,"velocity":36,"programNumber":2},{"time":470404.12000000925,"duration":468.53000000002794,"noteNumber":69,"velocity":36,"programNumber":2},{"time":470872.6500000093,"duration":937.0599999999977,"noteNumber":62,"velocity":36,"programNumber":2},{"time":471809.7100000093,"duration":468.53000000002794,"noteNumber":60,"velocity":36,"programNumber":2},{"time":472278.2400000093,"duration":468.53000000002794,"noteNumber":59,"velocity":36,"programNumber":2},{"time":472746.77000000933,"duration":468.53000000002794,"noteNumber":57,"velocity":36,"programNumber":2},{"time":473215.30000000936,"duration":937.0599999999977,"noteNumber":55,"velocity":36,"programNumber":2},{"time":475089.42000000936,"duration":234.26500000001397,"noteNumber":62,"velocity":36,"programNumber":2},{"time":475323.68500000937,"duration":234.26500000001397,"noteNumber":66,"velocity":36,"programNumber":2},{"time":475557.9500000094,"duration":468.52999999996973,"noteNumber":69,"velocity":36,"programNumber":2},{"time":476495.0100000094,"duration":234.26500000001397,"noteNumber":57,"velocity":36,"programNumber":2},{"time":476729.2750000094,"duration":234.26500000001397,"noteNumber":62,"velocity":36,"programNumber":2},{"time":476963.5400000094,"duration":468.53000000002794,"noteNumber":66,"velocity":36,"programNumber":2},{"time":478369.13000000943,"duration":468.52999999996973,"noteNumber":67,"velocity":36,"programNumber":2},{"time":478837.6600000094,"duration":937.0599999999977,"noteNumber":66,"velocity":36,"programNumber":2},{"time":479774.7200000094,"duration":468.53000000002794,"noteNumber":64,"velocity":36,"programNumber":2},{"time":480711.78000000946,"duration":468.53000000002794,"noteNumber":61,"velocity":36,"programNumber":2},{"time":481180.3100000095,"duration":468.53000000002794,"noteNumber":62,"velocity":36,"programNumber":2},{"time":481648.8400000095,"duration":468.53000000002794,"noteNumber":62,"velocity":36,"programNumber":2},{"time":482117.37000000954,"duration":468.53000000002794,"noteNumber":66,"velocity":36,"programNumber":2},{"time":482585.90000000957,"duration":468.53000000002794,"noteNumber":67,"velocity":36,"programNumber":2},{"time":483054.4300000096,"duration":468.53000000002794,"noteNumber":66,"velocity":36,"programNumber":2},{"time":483522.9600000096,"duration":234.26500000001397,"noteNumber":69,"velocity":36,"programNumber":2},{"time":483757.22500000964,"duration":234.26500000001397,"noteNumber":66,"velocity":36,"programNumber":2},{"time":483991.49000000965,"duration":234.26500000001397,"noteNumber":67,"velocity":36,"programNumber":2},{"time":484225.75500000967,"duration":234.26500000001397,"noteNumber":64,"velocity":36,"programNumber":2},{"time":484460.0200000097,"duration":468.53000000002794,"noteNumber":62,"velocity":36,"programNumber":2},{"time":488676.7900000097,"duration":468.53000000002794,"noteNumber":48,"velocity":36,"programNumber":2},{"time":489145.3200000097,"duration":468.53000000002794,"noteNumber":60,"velocity":36,"programNumber":2},{"time":489613.85000000976,"duration":468.53000000002794,"noteNumber":61,"velocity":36,"programNumber":2},{"time":490082.3800000098,"duration":468.53000000002794,"noteNumber":62,"velocity":36,"programNumber":2},{"time":490550.9100000098,"duration":468.53000000002794,"noteNumber":57,"velocity":36,"programNumber":2},{"time":491019.44000000984,"duration":468.53000000002794,"noteNumber":50,"velocity":36,"programNumber":2},{"time":495236.21000000986,"duration":468.53000000002794,"noteNumber":64,"velocity":36,"programNumber":2},{"time":495704.7400000099,"duration":937.0599999999977,"noteNumber":59,"velocity":36,"programNumber":2},{"time":496641.8000000099,"duration":468.53000000002794,"noteNumber":57,"velocity":36,"programNumber":2},{"time":497110.3300000099,"duration":468.53000000002794,"noteNumber":62,"velocity":36,"programNumber":2},{"time":497578.86000000994,"duration":468.53000000002794,"noteNumber":66,"velocity":36,"programNumber":2},{"time":498047.39000000997,"duration":468.53000000002794,"noteNumber":67,"velocity":36,"programNumber":2},{"time":498515.92000001,"duration":468.53000000002794,"noteNumber":69,"velocity":36,"programNumber":2},{"time":498984.45000001,"duration":937.0599999999977,"noteNumber":62,"velocity":36,"programNumber":2},{"time":500390.04000001005,"duration":468.53000000002794,"noteNumber":62,"velocity":36,"programNumber":2},{"time":500858.5700000101,"duration":468.53000000002794,"noteNumber":62,"velocity":36,"programNumber":2},{"time":501327.1000000101,"duration":1405.5900000000256,"noteNumber":62,"velocity":36,"programNumber":2},{"time":504138.28000001016,"duration":468.53000000002794,"noteNumber":59,"velocity":36,"programNumber":2},{"time":504606.8100000102,"duration":468.53000000002794,"noteNumber":59,"velocity":36,"programNumber":2},{"time":505075.3400000102,"duration":234.26500000001397,"noteNumber":60,"velocity":36,"programNumber":2},{"time":505309.6050000102,"duration":234.26500000001397,"noteNumber":59,"velocity":36,"programNumber":2},{"time":505543.87000001024,"duration":234.26500000001397,"noteNumber":57,"velocity":36,"programNumber":2},{"time":505778.13500001025,"duration":234.26500000001397,"noteNumber":55,"velocity":36,"programNumber":2},{"time":506012.40000001027,"duration":468.53000000002794,"noteNumber":60,"velocity":36,"programNumber":2},{"time":506480.9300000103,"duration":468.53000000002794,"noteNumber":60,"velocity":36,"programNumber":2},{"time":506949.4600000103,"duration":937.0599999999977,"noteNumber":60,"velocity":36,"programNumber":2},{"time":507886.5200000103,"duration":468.53000000002794,"noteNumber":64,"velocity":36,"programNumber":2},{"time":508355.05000001035,"duration":468.53000000002794,"noteNumber":64,"velocity":36,"programNumber":2},{"time":508823.5800000104,"duration":234.26500000001397,"noteNumber":66,"velocity":36,"programNumber":2},{"time":509057.8450000104,"duration":234.26500000001397,"noteNumber":64,"velocity":36,"programNumber":2},{"time":509292.1100000104,"duration":234.26500000001397,"noteNumber":62,"velocity":36,"programNumber":2},{"time":509526.3750000104,"duration":234.26500000001397,"noteNumber":60,"velocity":36,"programNumber":2},{"time":509760.64000001043,"duration":468.53000000002794,"noteNumber":54,"velocity":36,"programNumber":2},{"time":510229.17000001046,"duration":468.53000000002794,"noteNumber":54,"velocity":36,"programNumber":2},{"time":510697.7000000105,"duration":937.0599999999977,"noteNumber":54,"velocity":36,"programNumber":2},{"time":511634.7600000105,"duration":468.53000000002794,"noteNumber":59,"velocity":79,"programNumber":2},{"time":512103.2900000105,"duration":468.53000000002794,"noteNumber":59,"velocity":79,"programNumber":2},{"time":512571.82000001054,"duration":234.26500000001397,"noteNumber":60,"velocity":79,"programNumber":2},{"time":512806.08500001056,"duration":234.26500000001397,"noteNumber":59,"velocity":79,"programNumber":2},{"time":513040.35000001057,"duration":234.26500000001397,"noteNumber":57,"velocity":79,"programNumber":2},{"time":513274.6150000106,"duration":234.26500000001397,"noteNumber":55,"velocity":79,"programNumber":2},{"time":513508.8800000106,"duration":468.53000000002794,"noteNumber":67,"velocity":79,"programNumber":2},{"time":517257.12000001065,"duration":58.56624999997439,"noteNumber":62,"velocity":79,"programNumber":2},{"time":517315.6862500106,"duration":117.13250000000698,"noteNumber":60,"velocity":79,"programNumber":2},{"time":517432.8187500106,"duration":58.56624999997439,"noteNumber":62,"velocity":79,"programNumber":2},{"time":517491.3850000106,"duration":58.56624999997439,"noteNumber":60,"velocity":79,"programNumber":2},{"time":517549.9512500106,"duration":58.56624999997439,"noteNumber":62,"velocity":79,"programNumber":2},{"time":517608.51750001055,"duration":58.56624999997439,"noteNumber":60,"velocity":79,"programNumber":2},{"time":517667.0837500105,"duration":58.56624999997439,"noteNumber":62,"velocity":79,"programNumber":2},{"time":517725.6500000105,"duration":58.56624999997439,"noteNumber":60,"velocity":79,"programNumber":2},{"time":517784.2162500105,"duration":58.56624999997439,"noteNumber":62,"velocity":79,"programNumber":2},{"time":517842.78250001045,"duration":58.56624999997439,"noteNumber":60,"velocity":79,"programNumber":2},{"time":517901.3487500104,"duration":58.56624999997439,"noteNumber":62,"velocity":79,"programNumber":2},{"time":517959.9150000104,"duration":58.56624999997439,"noteNumber":60,"velocity":79,"programNumber":2},{"time":518018.4812500104,"duration":58.56624999997439,"noteNumber":62,"velocity":79,"programNumber":2},{"time":518077.04750001035,"duration":117.13250000000698,"noteNumber":60,"velocity":79,"programNumber":2},{"time":518194.18000001035,"duration":468.53000000002794,"noteNumber":59,"velocity":79,"programNumber":2},{"time":519131.2400000104,"duration":468.53000000002794,"noteNumber":59,"velocity":79,"programNumber":2},{"time":519599.77000001044,"duration":468.53000000002794,"noteNumber":59,"velocity":79,"programNumber":2},{"time":520068.30000001047,"duration":234.26500000001397,"noteNumber":60,"velocity":79,"programNumber":2},{"time":520302.5650000105,"duration":234.26500000001397,"noteNumber":59,"velocity":79,"programNumber":2},{"time":520536.8300000105,"duration":234.26500000001397,"noteNumber":57,"velocity":79,"programNumber":2},{"time":520771.0950000105,"duration":234.26500000001397,"noteNumber":55,"velocity":79,"programNumber":2},{"time":521005.3600000105,"duration":468.53000000002794,"noteNumber":60,"velocity":79,"programNumber":2},{"time":521473.89000001055,"duration":468.53000000002794,"noteNumber":60,"velocity":79,"programNumber":2},{"time":521942.4200000106,"duration":937.0599999999977,"noteNumber":60,"velocity":79,"programNumber":2},{"time":522879.4800000106,"duration":468.53000000002794,"noteNumber":64,"velocity":79,"programNumber":2},{"time":523348.0100000106,"duration":468.53000000002794,"noteNumber":64,"velocity":79,"programNumber":2},{"time":523816.54000001063,"duration":234.26500000001397,"noteNumber":66,"velocity":79,"programNumber":2},{"time":524050.80500001065,"duration":234.26500000001397,"noteNumber":64,"velocity":79,"programNumber":2},{"time":524285.07000001066,"duration":234.26500000001397,"noteNumber":62,"velocity":79,"programNumber":2},{"time":524519.3350000107,"duration":234.26500000001397,"noteNumber":60,"velocity":79,"programNumber":2},{"time":524753.6000000107,"duration":468.53000000002794,"noteNumber":54,"velocity":79,"programNumber":2},{"time":525222.1300000107,"duration":468.53000000002794,"noteNumber":54,"velocity":79,"programNumber":2},{"time":525690.6600000107,"duration":937.0600000000559,"noteNumber":54,"velocity":79,"programNumber":2},{"time":526627.7200000108,"duration":468.53000000002794,"noteNumber":59,"velocity":79,"programNumber":2},{"time":527096.2500000108,"duration":468.53000000002794,"noteNumber":59,"velocity":79,"programNumber":2},{"time":527564.7800000109,"duration":234.26500000001397,"noteNumber":60,"velocity":79,"programNumber":2},{"time":527799.0450000109,"duration":234.26500000001397,"noteNumber":59,"velocity":79,"programNumber":2},{"time":528033.3100000109,"duration":234.26500000001397,"noteNumber":57,"velocity":79,"programNumber":2},{"time":528267.5750000109,"duration":234.26500000001397,"noteNumber":55,"velocity":79,"programNumber":2},{"time":528501.8400000109,"duration":468.53000000002794,"noteNumber":67,"velocity":79,"programNumber":2},{"time":532250.0800000109,"duration":58.566250000032596,"noteNumber":62,"velocity":79,"programNumber":2},{"time":532308.6462500109,"duration":117.13249999994878,"noteNumber":60,"velocity":79,"programNumber":2},{"time":532425.7787500109,"duration":58.566250000032596,"noteNumber":62,"velocity":79,"programNumber":2},{"time":532484.3450000109,"duration":58.566250000032596,"noteNumber":60,"velocity":79,"programNumber":2},{"time":532542.911250011,"duration":58.566250000032596,"noteNumber":62,"velocity":79,"programNumber":2},{"time":532601.477500011,"duration":58.566250000032596,"noteNumber":60,"velocity":79,"programNumber":2},{"time":532660.043750011,"duration":58.566250000032596,"noteNumber":62,"velocity":79,"programNumber":2},{"time":532718.610000011,"duration":58.566250000032596,"noteNumber":60,"velocity":79,"programNumber":2},{"time":532777.1762500111,"duration":58.566250000032596,"noteNumber":62,"velocity":79,"programNumber":2},{"time":532835.7425000111,"duration":58.566250000032596,"noteNumber":60,"velocity":79,"programNumber":2},{"time":532894.3087500111,"duration":58.566250000032596,"noteNumber":62,"velocity":79,"programNumber":2},{"time":532952.8750000112,"duration":58.566250000032596,"noteNumber":60,"velocity":79,"programNumber":2},{"time":533011.4412500112,"duration":58.566250000032596,"noteNumber":62,"velocity":79,"programNumber":2},{"time":533070.0075000112,"duration":117.13249999994878,"noteNumber":60,"velocity":79,"programNumber":2},{"time":533187.1400000112,"duration":468.53000000002794,"noteNumber":59,"velocity":79,"programNumber":2},{"time":535061.2600000112,"duration":937.0600000000559,"noteNumber":57,"velocity":79,"programNumber":2},{"time":535998.3200000112,"duration":937.0600000000559,"noteNumber":57,"velocity":79,"programNumber":2},{"time":536935.3800000113,"duration":468.53000000002794,"noteNumber":57,"velocity":79,"programNumber":2},{"time":538809.5000000113,"duration":1405.5899999999674,"noteNumber":62,"velocity":79,"programNumber":2},{"time":540215.0900000113,"duration":468.53000000002794,"noteNumber":71,"velocity":79,"programNumber":2},{"time":540683.6200000113,"duration":937.0600000000559,"noteNumber":69,"velocity":79,"programNumber":2},{"time":542557.7400000114,"duration":937.0600000000559,"noteNumber":57,"velocity":79,"programNumber":2},{"time":543494.8000000115,"duration":937.0600000000559,"noteNumber":57,"velocity":79,"programNumber":2},{"time":544431.8600000115,"duration":937.0600000000559,"noteNumber":57,"velocity":79,"programNumber":2},{"time":546774.5100000115,"duration":468.53000000002794,"noteNumber":62,"velocity":79,"programNumber":2},{"time":547243.0400000116,"duration":468.53000000002794,"noteNumber":69,"velocity":79,"programNumber":2},{"time":547711.5700000116,"duration":468.53000000002794,"noteNumber":57,"velocity":79,"programNumber":2},{"time":548180.1000000116,"duration":937.0600000000559,"noteNumber":57,"velocity":79,"programNumber":2},{"time":550522.7500000116,"duration":468.53000000002794,"noteNumber":59,"velocity":36,"programNumber":2},{"time":551459.8100000117,"duration":468.53000000002794,"noteNumber":56,"velocity":36,"programNumber":2},{"time":552396.8700000118,"duration":468.53000000002794,"noteNumber":57,"velocity":36,"programNumber":2},{"time":553333.9300000118,"duration":468.53000000002794,"noteNumber":57,"velocity":36,"programNumber":2},{"time":554270.9900000119,"duration":468.53000000002794,"noteNumber":57,"velocity":36,"programNumber":2},{"time":555208.0500000119,"duration":468.53000000002794,"noteNumber":54,"velocity":36,"programNumber":2},{"time":556145.110000012,"duration":468.53000000002794,"noteNumber":55,"velocity":36,"programNumber":2},{"time":561298.940000012,"duration":1874.1199999999953,"noteNumber":62,"velocity":79,"programNumber":2},{"time":563173.060000012,"duration":468.53000000002794,"noteNumber":62,"velocity":79,"programNumber":2},{"time":564110.1200000121,"duration":468.53000000002794,"noteNumber":59,"velocity":79,"programNumber":2},{"time":564578.6500000121,"duration":468.53000000002794,"noteNumber":59,"velocity":79,"programNumber":2},{"time":565047.1800000122,"duration":234.26500000001397,"noteNumber":60,"velocity":79,"programNumber":2},{"time":565281.4450000122,"duration":234.26500000001397,"noteNumber":59,"velocity":79,"programNumber":2},{"time":565515.7100000122,"duration":234.26500000001397,"noteNumber":57,"velocity":79,"programNumber":2},{"time":565749.9750000122,"duration":234.26500000001397,"noteNumber":55,"velocity":79,"programNumber":2},{"time":565984.2400000122,"duration":468.53000000002794,"noteNumber":60,"velocity":79,"programNumber":2},{"time":566452.7700000122,"duration":468.53000000002794,"noteNumber":60,"velocity":79,"programNumber":2},{"time":566921.3000000123,"duration":937.0600000000559,"noteNumber":60,"velocity":79,"programNumber":2},{"time":567858.3600000123,"duration":468.53000000002794,"noteNumber":64,"velocity":79,"programNumber":2},{"time":568326.8900000124,"duration":468.53000000002794,"noteNumber":64,"velocity":79,"programNumber":2},{"time":568795.4200000124,"duration":234.26500000001397,"noteNumber":66,"velocity":79,"programNumber":2},{"time":569029.6850000124,"duration":234.26500000001397,"noteNumber":64,"velocity":79,"programNumber":2},{"time":569263.9500000124,"duration":234.26500000001397,"noteNumber":62,"velocity":79,"programNumber":2},{"time":569498.2150000124,"duration":234.26500000001397,"noteNumber":60,"velocity":79,"programNumber":2},{"time":569732.4800000124,"duration":468.53000000002794,"noteNumber":54,"velocity":79,"programNumber":2},{"time":570201.0100000125,"duration":468.53000000002794,"noteNumber":54,"velocity":79,"programNumber":2},{"time":570669.5400000125,"duration":937.0600000000559,"noteNumber":54,"velocity":79,"programNumber":2},{"time":571606.6000000125,"duration":468.53000000002794,"noteNumber":59,"velocity":79,"programNumber":2},{"time":572075.1300000126,"duration":468.53000000002794,"noteNumber":59,"velocity":79,"programNumber":2},{"time":572543.6600000126,"duration":234.26500000001397,"noteNumber":60,"velocity":79,"programNumber":2},{"time":572777.9250000126,"duration":234.26500000001397,"noteNumber":59,"velocity":79,"programNumber":2},{"time":573012.1900000126,"duration":234.26500000001397,"noteNumber":57,"velocity":79,"programNumber":2},{"time":573246.4550000126,"duration":234.26500000001397,"noteNumber":55,"velocity":79,"programNumber":2},{"time":573480.7200000127,"duration":468.53000000002794,"noteNumber":67,"velocity":79,"programNumber":2},{"time":577228.9600000127,"duration":58.566250000032596,"noteNumber":64,"velocity":79,"programNumber":2},{"time":577287.5262500127,"duration":58.566250000032596,"noteNumber":60,"velocity":79,"programNumber":2},{"time":577346.0925000127,"duration":58.566250000032596,"noteNumber":64,"velocity":79,"programNumber":2},{"time":577404.6587500127,"duration":117.13249999994878,"noteNumber":60,"velocity":79,"programNumber":2},{"time":577521.7912500127,"duration":58.566250000032596,"noteNumber":64,"velocity":79,"programNumber":2},{"time":577580.3575000127,"duration":58.566250000032596,"noteNumber":60,"velocity":79,"programNumber":2},{"time":577638.9237500128,"duration":58.566250000032596,"noteNumber":64,"velocity":79,"programNumber":2},{"time":577697.4900000128,"duration":58.566250000032596,"noteNumber":60,"velocity":79,"programNumber":2},{"time":577756.0562500128,"duration":58.566250000032596,"noteNumber":64,"velocity":79,"programNumber":2},{"time":577814.6225000129,"duration":58.566250000032596,"noteNumber":60,"velocity":79,"programNumber":2},{"time":577873.1887500129,"duration":58.566250000032596,"noteNumber":64,"velocity":79,"programNumber":2},{"time":577931.7550000129,"duration":58.566250000032596,"noteNumber":60,"velocity":79,"programNumber":2},{"time":577990.321250013,"duration":58.566250000032596,"noteNumber":64,"velocity":79,"programNumber":2},{"time":578048.887500013,"duration":58.566250000032596,"noteNumber":60,"velocity":79,"programNumber":2},{"time":578107.453750013,"duration":58.566250000032596,"noteNumber":64,"velocity":79,"programNumber":2},{"time":578166.020000013,"duration":468.53000000002794,"noteNumber":59,"velocity":79,"programNumber":2},{"time":580040.140000013,"duration":937.0600000000559,"noteNumber":57,"velocity":79,"programNumber":2},{"time":580977.2000000131,"duration":937.0600000000559,"noteNumber":57,"velocity":79,"programNumber":2},{"time":581914.2600000132,"duration":468.53000000002794,"noteNumber":57,"velocity":79,"programNumber":2},{"time":583788.3800000132,"duration":1405.5899999999674,"noteNumber":62,"velocity":79,"programNumber":2},{"time":585193.9700000131,"duration":468.53000000002794,"noteNumber":71,"velocity":79,"programNumber":2},{"time":585662.5000000132,"duration":937.0600000000559,"noteNumber":69,"velocity":79,"programNumber":2},{"time":587536.6200000133,"duration":937.0600000000559,"noteNumber":57,"velocity":79,"programNumber":2},{"time":588473.6800000133,"duration":937.0600000000559,"noteNumber":57,"velocity":79,"programNumber":2},{"time":589410.7400000134,"duration":937.0600000000559,"noteNumber":57,"velocity":79,"programNumber":2},{"time":591753.3900000134,"duration":468.53000000002794,"noteNumber":62,"velocity":79,"programNumber":2},{"time":592221.9200000134,"duration":468.53000000002794,"noteNumber":69,"velocity":79,"programNumber":2},{"time":592690.4500000135,"duration":468.53000000002794,"noteNumber":57,"velocity":79,"programNumber":2},{"time":593158.9800000135,"duration":937.0600000000559,"noteNumber":57,"velocity":79,"programNumber":2},{"time":595501.6300000135,"duration":468.53000000002794,"noteNumber":59,"velocity":36,"programNumber":2},{"time":596438.6900000136,"duration":468.53000000002794,"noteNumber":56,"velocity":36,"programNumber":2},{"time":597375.7500000136,"duration":468.53000000002794,"noteNumber":57,"velocity":36,"programNumber":2},{"time":598312.8100000137,"duration":468.53000000002794,"noteNumber":57,"velocity":36,"programNumber":2},{"time":599249.8700000137,"duration":468.53000000002794,"noteNumber":57,"velocity":36,"programNumber":2},{"time":600186.9300000138,"duration":468.53000000002794,"noteNumber":54,"velocity":36,"programNumber":2},{"time":601123.9900000138,"duration":468.53000000002794,"noteNumber":55,"velocity":36,"programNumber":2},{"time":606277.8200000139,"duration":1874.1199999999953,"noteNumber":62,"velocity":79,"programNumber":2},{"time":608151.9400000139,"duration":468.53000000002794,"noteNumber":62,"velocity":79,"programNumber":2},{"time":609089.000000014,"duration":468.53000000002794,"noteNumber":59,"velocity":79,"programNumber":2},{"time":609557.530000014,"duration":468.53000000002794,"noteNumber":59,"velocity":79,"programNumber":2},{"time":610026.060000014,"duration":234.26500000001397,"noteNumber":60,"velocity":79,"programNumber":2},{"time":610260.325000014,"duration":234.26500000001397,"noteNumber":59,"velocity":79,"programNumber":2},{"time":610494.590000014,"duration":234.26500000001397,"noteNumber":57,"velocity":79,"programNumber":2},{"time":610728.8550000141,"duration":234.26500000001397,"noteNumber":55,"velocity":79,"programNumber":2},{"time":610963.1200000141,"duration":468.53000000002794,"noteNumber":60,"velocity":79,"programNumber":2},{"time":611431.6500000141,"duration":468.53000000002794,"noteNumber":60,"velocity":79,"programNumber":2},{"time":611900.1800000141,"duration":937.0600000000559,"noteNumber":60,"velocity":79,"programNumber":2},{"time":612837.2400000142,"duration":468.53000000002794,"noteNumber":64,"velocity":79,"programNumber":2},{"time":613305.7700000142,"duration":468.53000000002794,"noteNumber":64,"velocity":79,"programNumber":2},{"time":613774.3000000142,"duration":234.26500000001397,"noteNumber":66,"velocity":79,"programNumber":2},{"time":614008.5650000143,"duration":234.26500000001397,"noteNumber":64,"velocity":79,"programNumber":2},{"time":614242.8300000143,"duration":234.26500000001397,"noteNumber":62,"velocity":79,"programNumber":2},{"time":614477.0950000143,"duration":234.26500000001397,"noteNumber":60,"velocity":79,"programNumber":2},{"time":614711.3600000143,"duration":468.53000000002794,"noteNumber":54,"velocity":79,"programNumber":2},{"time":615179.8900000143,"duration":468.53000000002794,"noteNumber":54,"velocity":79,"programNumber":2},{"time":615648.4200000144,"duration":937.0600000000559,"noteNumber":54,"velocity":79,"programNumber":2},{"time":616585.4800000144,"duration":468.53000000002794,"noteNumber":59,"velocity":79,"programNumber":2},{"time":617054.0100000144,"duration":468.53000000002794,"noteNumber":59,"velocity":79,"programNumber":2},{"time":617522.5400000145,"duration":234.26500000001397,"noteNumber":60,"velocity":79,"programNumber":2},{"time":617756.8050000145,"duration":234.26500000001397,"noteNumber":59,"velocity":79,"programNumber":2},{"time":617991.0700000145,"duration":234.26500000001397,"noteNumber":57,"velocity":79,"programNumber":2},{"time":618225.3350000145,"duration":234.26500000001397,"noteNumber":55,"velocity":79,"programNumber":2},{"time":618459.6000000145,"duration":468.53000000002794,"noteNumber":67,"velocity":79,"programNumber":2},{"time":622207.8400000145,"duration":58.566250000032596,"noteNumber":64,"velocity":79,"programNumber":2},{"time":622266.4062500146,"duration":58.566250000032596,"noteNumber":60,"velocity":79,"programNumber":2},{"time":622324.9725000146,"duration":58.566250000032596,"noteNumber":64,"velocity":79,"programNumber":2},{"time":622383.5387500146,"duration":117.13249999994878,"noteNumber":60,"velocity":79,"programNumber":2},{"time":622500.6712500146,"duration":58.566250000032596,"noteNumber":64,"velocity":79,"programNumber":2},{"time":622559.2375000146,"duration":58.566250000032596,"noteNumber":60,"velocity":79,"programNumber":2},{"time":622617.8037500146,"duration":58.566250000032596,"noteNumber":64,"velocity":79,"programNumber":2},{"time":622676.3700000147,"duration":58.566250000032596,"noteNumber":60,"velocity":79,"programNumber":2},{"time":622734.9362500147,"duration":58.566250000032596,"noteNumber":64,"velocity":79,"programNumber":2},{"time":622793.5025000147,"duration":58.566250000032596,"noteNumber":60,"velocity":79,"programNumber":2},{"time":622852.0687500148,"duration":58.566250000032596,"noteNumber":64,"velocity":79,"programNumber":2},{"time":622910.6350000148,"duration":58.566250000032596,"noteNumber":60,"velocity":79,"programNumber":2},{"time":622969.2012500148,"duration":58.566250000032596,"noteNumber":64,"velocity":79,"programNumber":2},{"time":623027.7675000149,"duration":58.566250000032596,"noteNumber":60,"velocity":79,"programNumber":2},{"time":623086.3337500149,"duration":58.566250000032596,"noteNumber":64,"velocity":79,"programNumber":2},{"time":623144.9000000149,"duration":468.53000000002794,"noteNumber":59,"velocity":79,"programNumber":2},{"time":626893.140000015,"duration":937.0600000000559,"noteNumber":62,"velocity":36,"programNumber":2},{"time":627830.2000000151,"duration":937.0600000000559,"noteNumber":70,"velocity":36,"programNumber":2},{"time":628767.2600000151,"duration":937.0600000000559,"noteNumber":70,"velocity":36,"programNumber":2},{"time":629704.3200000152,"duration":937.0600000000559,"noteNumber":69,"velocity":36,"programNumber":2},{"time":630641.3800000153,"duration":937.0600000000559,"noteNumber":70,"velocity":36,"programNumber":2},{"time":634389.6200000154,"duration":937.0600000000559,"noteNumber":69,"velocity":36,"programNumber":2},{"time":635326.6800000154,"duration":468.53000000002794,"noteNumber":57,"velocity":36,"programNumber":2},{"time":635795.2100000154,"duration":468.53000000002794,"noteNumber":57,"velocity":36,"programNumber":2},{"time":636263.7400000155,"duration":234.26500000001397,"noteNumber":57,"velocity":36,"programNumber":2},{"time":636498.0050000155,"duration":234.26500000001397,"noteNumber":55,"velocity":36,"programNumber":2},{"time":636732.2700000155,"duration":937.0600000000559,"noteNumber":53,"velocity":36,"programNumber":2},{"time":637669.3300000156,"duration":468.53000000002794,"noteNumber":52,"velocity":36,"programNumber":2},{"time":638137.8600000156,"duration":937.0600000000559,"noteNumber":50,"velocity":36,"programNumber":2},{"time":641886.1000000157,"duration":937.0600000000559,"noteNumber":62,"velocity":36,"programNumber":2},{"time":642823.1600000157,"duration":937.0600000000559,"noteNumber":70,"velocity":36,"programNumber":2},{"time":643760.2200000158,"duration":937.0600000000559,"noteNumber":70,"velocity":36,"programNumber":2},{"time":644697.2800000159,"duration":937.0600000000559,"noteNumber":69,"velocity":36,"programNumber":2},{"time":645634.3400000159,"duration":937.0600000000559,"noteNumber":70,"velocity":36,"programNumber":2},{"time":649382.580000016,"duration":937.0600000000559,"noteNumber":69,"velocity":36,"programNumber":2},{"time":650319.6400000161,"duration":468.53000000002794,"noteNumber":57,"velocity":36,"programNumber":2},{"time":650788.1700000161,"duration":468.53000000002794,"noteNumber":57,"velocity":36,"programNumber":2},{"time":651256.7000000161,"duration":234.26500000001397,"noteNumber":57,"velocity":36,"programNumber":2},{"time":651490.9650000161,"duration":234.26500000001397,"noteNumber":55,"velocity":36,"programNumber":2},{"time":651725.2300000162,"duration":937.0600000000559,"noteNumber":53,"velocity":36,"programNumber":2},{"time":652662.2900000162,"duration":468.53000000002794,"noteNumber":52,"velocity":36,"programNumber":2},{"time":653130.8200000162,"duration":937.0600000000559,"noteNumber":50,"velocity":36,"programNumber":2},{"time":654067.8800000163,"duration":468.53000000014435,"noteNumber":62,"velocity":79,"programNumber":2},{"time":654536.4100000164,"duration":234.26500000001397,"noteNumber":62,"velocity":79,"programNumber":2},{"time":654770.6750000165,"duration":234.26500000001397,"noteNumber":62,"velocity":79,"programNumber":2},{"time":655004.9400000165,"duration":468.53000000002794,"noteNumber":65,"velocity":79,"programNumber":2},{"time":655473.4700000165,"duration":468.5299999999115,"noteNumber":59,"velocity":79,"programNumber":2},{"time":655942.0000000164,"duration":468.53000000002794,"noteNumber":59,"velocity":79,"programNumber":2},{"time":656410.5300000164,"duration":234.26500000001397,"noteNumber":59,"velocity":79,"programNumber":2},{"time":656644.7950000165,"duration":234.26500000001397,"noteNumber":59,"velocity":79,"programNumber":2},{"time":656879.0600000165,"duration":468.53000000002794,"noteNumber":62,"velocity":79,"programNumber":2},{"time":657347.5900000165,"duration":468.53000000002794,"noteNumber":60,"velocity":79,"programNumber":2},{"time":657816.1200000165,"duration":468.5299999999115,"noteNumber":60,"velocity":79,"programNumber":2},{"time":658284.6500000164,"duration":234.26500000001397,"noteNumber":60,"velocity":79,"programNumber":2},{"time":658518.9150000165,"duration":234.26500000001397,"noteNumber":60,"velocity":79,"programNumber":2},{"time":658753.1800000165,"duration":468.53000000002794,"noteNumber":63,"velocity":79,"programNumber":2},{"time":659221.7100000165,"duration":468.53000000002794,"noteNumber":57,"velocity":79,"programNumber":2},{"time":659690.2400000165,"duration":468.53000000002794,"noteNumber":57,"velocity":79,"programNumber":2},{"time":660158.7700000165,"duration":234.26500000001397,"noteNumber":57,"velocity":79,"programNumber":2},{"time":660393.0350000166,"duration":234.26500000001397,"noteNumber":57,"velocity":79,"programNumber":2},{"time":660627.3000000166,"duration":468.53000000002794,"noteNumber":60,"velocity":79,"programNumber":2},{"time":661095.8300000166,"duration":468.53000000002794,"noteNumber":58,"velocity":79,"programNumber":2},{"time":663438.4800000166,"duration":937.0600000000559,"noteNumber":69,"velocity":36,"programNumber":2},{"time":664375.5400000167,"duration":937.0600000000559,"noteNumber":69,"velocity":36,"programNumber":2},{"time":665312.6000000167,"duration":937.0600000000559,"noteNumber":67,"velocity":36,"programNumber":2},{"time":667186.7200000169,"duration":937.0600000000559,"noteNumber":72,"velocity":36,"programNumber":2},{"time":668123.7800000169,"duration":937.0600000000559,"noteNumber":72,"velocity":36,"programNumber":2},{"time":669060.840000017,"duration":468.53000000002794,"noteNumber":70,"velocity":36,"programNumber":2},{"time":669529.370000017,"duration":234.26500000001397,"noteNumber":70,"velocity":36,"programNumber":2},{"time":669763.635000017,"duration":234.26500000001397,"noteNumber":70,"velocity":36,"programNumber":2},{"time":669997.900000017,"duration":937.0600000000559,"noteNumber":69,"velocity":36,"programNumber":2},{"time":670934.9600000171,"duration":468.53000000002794,"noteNumber":67,"velocity":36,"programNumber":2},{"time":671403.4900000171,"duration":234.26500000001397,"noteNumber":67,"velocity":36,"programNumber":2},{"time":671637.7550000171,"duration":234.26500000001397,"noteNumber":67,"velocity":36,"programNumber":2},{"time":671872.0200000171,"duration":937.0600000000559,"noteNumber":66,"velocity":36,"programNumber":2},{"time":672809.0800000172,"duration":468.53000000002794,"noteNumber":62,"velocity":79,"programNumber":2},{"time":673277.6100000172,"duration":234.26500000001397,"noteNumber":62,"velocity":79,"programNumber":2},{"time":673511.8750000172,"duration":234.26500000001397,"noteNumber":62,"velocity":79,"programNumber":2},{"time":673746.1400000172,"duration":937.0600000000559,"noteNumber":62,"velocity":79,"programNumber":2},{"time":674683.2000000173,"duration":937.0599999999395,"noteNumber":55,"velocity":79,"programNumber":2},{"time":675620.2600000172,"duration":468.53000000002794,"noteNumber":57,"velocity":79,"programNumber":2},{"time":676088.7900000173,"duration":937.0600000000559,"noteNumber":62,"velocity":79,"programNumber":2},{"time":677025.8500000173,"duration":468.53000000002794,"noteNumber":66,"velocity":79,"programNumber":2},{"time":677494.3800000174,"duration":1874.1199999999953,"noteNumber":62,"velocity":79,"programNumber":2},{"time":679368.5000000173,"duration":937.0600000000559,"noteNumber":62,"velocity":79,"programNumber":2},{"time":680305.5600000174,"duration":468.53000000002794,"noteNumber":59,"velocity":79,"programNumber":2},{"time":680774.0900000174,"duration":468.53000000002794,"noteNumber":59,"velocity":79,"programNumber":2},{"time":681242.6200000175,"duration":234.26500000001397,"noteNumber":60,"velocity":79,"programNumber":2},{"time":681476.8850000175,"duration":234.26500000001397,"noteNumber":59,"velocity":79,"programNumber":2},{"time":681711.1500000175,"duration":234.26500000001397,"noteNumber":57,"velocity":79,"programNumber":2},{"time":681945.4150000175,"duration":234.26500000001397,"noteNumber":55,"velocity":79,"programNumber":2},{"time":682179.6800000175,"duration":468.53000000002794,"noteNumber":60,"velocity":79,"programNumber":2},{"time":682648.2100000175,"duration":468.53000000002794,"noteNumber":60,"velocity":79,"programNumber":2},{"time":683116.7400000176,"duration":937.0600000000559,"noteNumber":60,"velocity":79,"programNumber":2},{"time":684053.8000000176,"duration":468.53000000002794,"noteNumber":64,"velocity":79,"programNumber":2},{"time":684522.3300000177,"duration":468.53000000002794,"noteNumber":64,"velocity":79,"programNumber":2},{"time":684990.8600000177,"duration":234.26500000001397,"noteNumber":66,"velocity":79,"programNumber":2},{"time":685225.1250000177,"duration":234.26500000001397,"noteNumber":64,"velocity":79,"programNumber":2},{"time":685459.3900000177,"duration":234.26500000001397,"noteNumber":62,"velocity":79,"programNumber":2},{"time":685693.6550000177,"duration":234.26500000001397,"noteNumber":60,"velocity":79,"programNumber":2},{"time":685927.9200000177,"duration":468.53000000002794,"noteNumber":54,"velocity":79,"programNumber":2},{"time":686396.4500000178,"duration":468.53000000002794,"noteNumber":54,"velocity":79,"programNumber":2},{"time":686864.9800000178,"duration":937.0600000000559,"noteNumber":54,"velocity":79,"programNumber":2},{"time":687802.0400000178,"duration":468.53000000002794,"noteNumber":59,"velocity":79,"programNumber":2},{"time":688270.5700000179,"duration":468.53000000002794,"noteNumber":59,"velocity":79,"programNumber":2},{"time":688739.1000000179,"duration":234.26500000001397,"noteNumber":60,"velocity":79,"programNumber":2},{"time":688973.3650000179,"duration":234.26500000001397,"noteNumber":59,"velocity":79,"programNumber":2},{"time":689207.6300000179,"duration":234.26500000001397,"noteNumber":57,"velocity":79,"programNumber":2},{"time":689441.895000018,"duration":234.26500000001397,"noteNumber":55,"velocity":79,"programNumber":2},{"time":689676.160000018,"duration":468.53000000002794,"noteNumber":67,"velocity":79,"programNumber":2},{"time":693424.400000018,"duration":58.566250000032596,"noteNumber":62,"velocity":79,"programNumber":2},{"time":693482.966250018,"duration":117.13249999994878,"noteNumber":60,"velocity":79,"programNumber":2},{"time":693600.0987500179,"duration":58.566250000032596,"noteNumber":62,"velocity":79,"programNumber":2},{"time":693658.665000018,"duration":58.566250000032596,"noteNumber":60,"velocity":79,"programNumber":2},{"time":693717.231250018,"duration":58.566250000032596,"noteNumber":62,"velocity":79,"programNumber":2},{"time":693775.797500018,"duration":58.566250000032596,"noteNumber":60,"velocity":79,"programNumber":2},{"time":693834.3637500181,"duration":58.566250000032596,"noteNumber":62,"velocity":79,"programNumber":2},{"time":693892.9300000181,"duration":58.566250000032596,"noteNumber":60,"velocity":79,"programNumber":2},{"time":693951.4962500181,"duration":58.566250000032596,"noteNumber":62,"velocity":79,"programNumber":2},{"time":694010.0625000182,"duration":58.566250000032596,"noteNumber":60,"velocity":79,"programNumber":2},{"time":694068.6287500182,"duration":58.566250000032596,"noteNumber":62,"velocity":79,"programNumber":2},{"time":694127.1950000182,"duration":58.566250000032596,"noteNumber":60,"velocity":79,"programNumber":2},{"time":694185.7612500183,"duration":58.566250000032596,"noteNumber":62,"velocity":79,"programNumber":2},{"time":694244.3275000183,"duration":117.13249999994878,"noteNumber":60,"velocity":79,"programNumber":2},{"time":694361.4600000182,"duration":468.53000000002794,"noteNumber":59,"velocity":79,"programNumber":2},{"time":696235.5800000182,"duration":937.0600000000559,"noteNumber":57,"velocity":79,"programNumber":2},{"time":697172.6400000183,"duration":937.0600000000559,"noteNumber":57,"velocity":79,"programNumber":2},{"time":698109.7000000183,"duration":468.53000000002794,"noteNumber":57,"velocity":79,"programNumber":2},{"time":699983.8200000183,"duration":1405.5899999999674,"noteNumber":62,"velocity":79,"programNumber":2},{"time":701389.4100000183,"duration":468.53000000002794,"noteNumber":71,"velocity":79,"programNumber":2},{"time":701857.9400000183,"duration":937.0600000000559,"noteNumber":69,"velocity":79,"programNumber":2},{"time":703732.0600000184,"duration":937.0600000000559,"noteNumber":57,"velocity":79,"programNumber":2},{"time":704669.1200000185,"duration":937.0600000000559,"noteNumber":57,"velocity":79,"programNumber":2},{"time":705606.1800000186,"duration":937.0600000000559,"noteNumber":57,"velocity":79,"programNumber":2},{"time":707948.8300000186,"duration":468.53000000002794,"noteNumber":62,"velocity":79,"programNumber":2},{"time":708417.3600000186,"duration":468.53000000002794,"noteNumber":69,"velocity":79,"programNumber":2},{"time":708885.8900000186,"duration":468.53000000002794,"noteNumber":57,"velocity":79,"programNumber":2},{"time":709354.4200000187,"duration":937.0600000000559,"noteNumber":57,"velocity":79,"programNumber":2},{"time":711697.0700000187,"duration":468.53000000002794,"noteNumber":59,"velocity":36,"programNumber":2},{"time":712634.1300000187,"duration":468.53000000002794,"noteNumber":56,"velocity":36,"programNumber":2},{"time":713571.1900000188,"duration":468.53000000002794,"noteNumber":57,"velocity":36,"programNumber":2},{"time":714508.2500000189,"duration":468.53000000002794,"noteNumber":57,"velocity":36,"programNumber":2},{"time":715445.3100000189,"duration":468.53000000002794,"noteNumber":57,"velocity":36,"programNumber":2},{"time":716382.370000019,"duration":468.53000000002794,"noteNumber":54,"velocity":36,"programNumber":2},{"time":717319.430000019,"duration":468.53000000002794,"noteNumber":55,"velocity":36,"programNumber":2},{"time":722473.2600000191,"duration":1874.1199999999953,"noteNumber":62,"velocity":79,"programNumber":2},{"time":724347.3800000191,"duration":468.53000000002794,"noteNumber":62,"velocity":79,"programNumber":2},{"time":725284.4400000192,"duration":468.53000000002794,"noteNumber":59,"velocity":79,"programNumber":2},{"time":725752.9700000192,"duration":468.53000000002794,"noteNumber":59,"velocity":79,"programNumber":2},{"time":726221.5000000192,"duration":234.26500000001397,"noteNumber":60,"velocity":79,"programNumber":2},{"time":726455.7650000192,"duration":234.26500000001397,"noteNumber":59,"velocity":79,"programNumber":2},{"time":726690.0300000192,"duration":234.26500000001397,"noteNumber":57,"velocity":79,"programNumber":2},{"time":726924.2950000193,"duration":234.26500000001397,"noteNumber":55,"velocity":79,"programNumber":2},{"time":727158.5600000193,"duration":468.53000000002794,"noteNumber":60,"velocity":79,"programNumber":2},{"time":727627.0900000193,"duration":468.53000000002794,"noteNumber":60,"velocity":79,"programNumber":2},{"time":728095.6200000193,"duration":937.0600000000559,"noteNumber":60,"velocity":79,"programNumber":2},{"time":729032.6800000194,"duration":468.53000000002794,"noteNumber":64,"velocity":79,"programNumber":2},{"time":729501.2100000194,"duration":468.53000000002794,"noteNumber":64,"velocity":79,"programNumber":2},{"time":729969.7400000194,"duration":234.26500000001397,"noteNumber":66,"velocity":79,"programNumber":2},{"time":730204.0050000194,"duration":234.26500000001397,"noteNumber":64,"velocity":79,"programNumber":2},{"time":730438.2700000195,"duration":234.26500000001397,"noteNumber":62,"velocity":79,"programNumber":2},{"time":730672.5350000195,"duration":234.26500000001397,"noteNumber":60,"velocity":79,"programNumber":2},{"time":730906.8000000195,"duration":468.53000000002794,"noteNumber":54,"velocity":79,"programNumber":2},{"time":731375.3300000195,"duration":468.53000000002794,"noteNumber":54,"velocity":79,"programNumber":2},{"time":731843.8600000195,"duration":937.0600000000559,"noteNumber":54,"velocity":79,"programNumber":2},{"time":732780.9200000196,"duration":468.53000000002794,"noteNumber":59,"velocity":79,"programNumber":2},{"time":733249.4500000196,"duration":468.53000000002794,"noteNumber":59,"velocity":79,"programNumber":2},{"time":733717.9800000197,"duration":234.26500000001397,"noteNumber":60,"velocity":79,"programNumber":2},{"time":733952.2450000197,"duration":234.26500000001397,"noteNumber":59,"velocity":79,"programNumber":2},{"time":734186.5100000197,"duration":234.26500000001397,"noteNumber":57,"velocity":79,"programNumber":2},{"time":734420.7750000197,"duration":234.26500000001397,"noteNumber":55,"velocity":79,"programNumber":2},{"time":734655.0400000197,"duration":468.53000000002794,"noteNumber":67,"velocity":79,"programNumber":2},{"time":738403.2800000197,"duration":58.566250000032596,"noteNumber":64,"velocity":79,"programNumber":2},{"time":738461.8462500197,"duration":58.566250000032596,"noteNumber":60,"velocity":79,"programNumber":2},{"time":738520.4125000198,"duration":58.566250000032596,"noteNumber":64,"velocity":79,"programNumber":2},{"time":738578.9787500198,"duration":117.13249999994878,"noteNumber":60,"velocity":79,"programNumber":2},{"time":738696.1112500197,"duration":58.566250000032596,"noteNumber":64,"velocity":79,"programNumber":2},{"time":738754.6775000198,"duration":58.566250000032596,"noteNumber":60,"velocity":79,"programNumber":2},{"time":738813.2437500198,"duration":58.566250000032596,"noteNumber":64,"velocity":79,"programNumber":2},{"time":738871.8100000198,"duration":58.566250000032596,"noteNumber":60,"velocity":79,"programNumber":2},{"time":738930.3762500199,"duration":58.566250000032596,"noteNumber":64,"velocity":79,"programNumber":2},{"time":738988.9425000199,"duration":58.566250000032596,"noteNumber":60,"velocity":79,"programNumber":2},{"time":739047.50875002,"duration":58.566250000032596,"noteNumber":64,"velocity":79,"programNumber":2},{"time":739106.07500002,"duration":58.566250000032596,"noteNumber":60,"velocity":79,"programNumber":2},{"time":739164.64125002,"duration":58.566250000032596,"noteNumber":64,"velocity":79,"programNumber":2},{"time":739223.20750002,"duration":58.566250000032596,"noteNumber":60,"velocity":79,"programNumber":2},{"time":739281.7737500201,"duration":58.566250000032596,"noteNumber":64,"velocity":79,"programNumber":2},{"time":739340.3400000201,"duration":468.53000000002794,"noteNumber":59,"velocity":79,"programNumber":2},{"time":741214.4600000201,"duration":468.53000000002794,"noteNumber":59,"velocity":79,"programNumber":2},{"time":741682.9900000201,"duration":468.53000000002794,"noteNumber":59,"velocity":79,"programNumber":2},{"time":742151.5200000202,"duration":234.26500000001397,"noteNumber":60,"velocity":79,"programNumber":2},{"time":742385.7850000202,"duration":234.26500000001397,"noteNumber":59,"velocity":79,"programNumber":2},{"time":742620.0500000202,"duration":234.26500000001397,"noteNumber":57,"velocity":79,"programNumber":2},{"time":742854.3150000202,"duration":234.26500000001397,"noteNumber":55,"velocity":79,"programNumber":2},{"time":743088.5800000202,"duration":468.53000000002794,"noteNumber":60,"velocity":79,"programNumber":2},{"time":743557.1100000202,"duration":468.53000000002794,"noteNumber":60,"velocity":79,"programNumber":2},{"time":744025.6400000203,"duration":937.0600000000559,"noteNumber":60,"velocity":79,"programNumber":2},{"time":744962.7000000203,"duration":468.53000000002794,"noteNumber":64,"velocity":79,"programNumber":2},{"time":745431.2300000204,"duration":468.53000000002794,"noteNumber":64,"velocity":79,"programNumber":2},{"time":745899.7600000204,"duration":234.26500000001397,"noteNumber":66,"velocity":79,"programNumber":2},{"time":746134.0250000204,"duration":234.26500000001397,"noteNumber":64,"velocity":79,"programNumber":2},{"time":746368.2900000204,"duration":234.26500000001397,"noteNumber":62,"velocity":79,"programNumber":2},{"time":746602.5550000204,"duration":234.26500000001397,"noteNumber":60,"velocity":79,"programNumber":2},{"time":746836.8200000204,"duration":468.53000000002794,"noteNumber":54,"velocity":79,"programNumber":2},{"time":747305.3500000205,"duration":468.53000000002794,"noteNumber":54,"velocity":79,"programNumber":2},{"time":747773.8800000205,"duration":937.0600000000559,"noteNumber":54,"velocity":79,"programNumber":2},{"time":748710.9400000205,"duration":468.53000000002794,"noteNumber":59,"velocity":79,"programNumber":2},{"time":749179.4700000206,"duration":468.53000000002794,"noteNumber":59,"velocity":79,"programNumber":2},{"time":749648.0000000206,"duration":234.26500000001397,"noteNumber":60,"velocity":79,"programNumber":2},{"time":749882.2650000206,"duration":234.26500000001397,"noteNumber":59,"velocity":79,"programNumber":2},{"time":750116.5300000206,"duration":234.26500000001397,"noteNumber":57,"velocity":79,"programNumber":2},{"time":750350.7950000206,"duration":234.26500000001397,"noteNumber":55,"velocity":79,"programNumber":2},{"time":750585.0600000207,"duration":468.53000000002794,"noteNumber":67,"velocity":79,"programNumber":2},{"time":754333.3000000208,"duration":234.26500000001397,"noteNumber":64,"velocity":79,"programNumber":2},{"time":754567.5650000208,"duration":234.26500000001397,"noteNumber":62,"velocity":79,"programNumber":2},{"time":754801.8300000208,"duration":234.26500000001397,"noteNumber":64,"velocity":79,"programNumber":2},{"time":755036.0950000208,"duration":234.26500000001397,"noteNumber":66,"velocity":79,"programNumber":2},{"time":755270.3600000208,"duration":234.26500000001397,"noteNumber":67,"velocity":79,"programNumber":2},{"time":755504.6250000208,"duration":234.26500000001397,"noteNumber":66,"velocity":79,"programNumber":2},{"time":755738.8900000209,"duration":234.26499999989755,"noteNumber":67,"velocity":79,"programNumber":2},{"time":755973.1550000207,"duration":234.26500000001397,"noteNumber":69,"velocity":79,"programNumber":2},{"time":756207.4200000208,"duration":234.26500000001397,"noteNumber":71,"velocity":79,"programNumber":2},{"time":756441.6850000208,"duration":234.26500000001397,"noteNumber":69,"velocity":79,"programNumber":2},{"time":756675.9500000208,"duration":234.26500000001397,"noteNumber":71,"velocity":79,"programNumber":2},{"time":756910.2150000208,"duration":234.26500000001397,"noteNumber":72,"velocity":79,"programNumber":2},{"time":757144.4800000208,"duration":468.53000000002794,"noteNumber":74,"velocity":79,"programNumber":2},{"time":758081.5400000208,"duration":234.26500000001397,"noteNumber":72,"velocity":79,"programNumber":2},{"time":758315.8050000208,"duration":234.26500000001397,"noteNumber":71,"velocity":79,"programNumber":2},{"time":758550.0700000208,"duration":234.26500000001397,"noteNumber":72,"velocity":79,"programNumber":2},{"time":758784.3350000208,"duration":234.26500000001397,"noteNumber":69,"velocity":79,"programNumber":2},{"time":759018.6000000208,"duration":234.26500000001397,"noteNumber":71,"velocity":79,"programNumber":2},{"time":759252.8650000208,"duration":234.26500000001397,"noteNumber":69,"velocity":79,"programNumber":2},{"time":759487.1300000208,"duration":234.26500000001397,"noteNumber":71,"velocity":79,"programNumber":2},{"time":759721.3950000209,"duration":234.26500000001397,"noteNumber":66,"velocity":79,"programNumber":2},{"time":759955.6600000209,"duration":234.26500000001397,"noteNumber":67,"velocity":79,"programNumber":2},{"time":760189.9250000209,"duration":234.26500000001397,"noteNumber":66,"velocity":79,"programNumber":2},{"time":760424.1900000209,"duration":234.26500000001397,"noteNumber":67,"velocity":79,"programNumber":2},{"time":760658.4550000209,"duration":234.26500000001397,"noteNumber":69,"velocity":79,"programNumber":2},{"time":760892.7200000209,"duration":468.53000000002794,"noteNumber":71,"velocity":79,"programNumber":2},{"time":762766.8400000209,"duration":117.13249999994878,"noteNumber":62,"velocity":36,"programNumber":2},{"time":762883.9725000209,"duration":117.13249999994878,"noteNumber":60,"velocity":36,"programNumber":2},{"time":763001.1050000208,"duration":117.13249999994878,"noteNumber":62,"velocity":36,"programNumber":2},{"time":763118.2375000208,"duration":117.13249999994878,"noteNumber":60,"velocity":36,"programNumber":2},{"time":763235.3700000207,"duration":117.13249999994878,"noteNumber":62,"velocity":36,"programNumber":2},{"time":763352.5025000207,"duration":117.13249999994878,"noteNumber":60,"velocity":36,"programNumber":2},{"time":763469.6350000206,"duration":117.13249999994878,"noteNumber":62,"velocity":36,"programNumber":2},{"time":763586.7675000206,"duration":117.13249999994878,"noteNumber":60,"velocity":36,"programNumber":2},{"time":763703.9000000205,"duration":117.13249999994878,"noteNumber":62,"velocity":36,"programNumber":2},{"time":763821.0325000205,"duration":117.13249999994878,"noteNumber":60,"velocity":36,"programNumber":2},{"time":763938.1650000204,"duration":117.13249999994878,"noteNumber":62,"velocity":36,"programNumber":2},{"time":764055.2975000204,"duration":117.13249999994878,"noteNumber":60,"velocity":36,"programNumber":2},{"time":764172.4300000203,"duration":117.13249999994878,"noteNumber":62,"velocity":36,"programNumber":2},{"time":764289.5625000203,"duration":117.13249999994878,"noteNumber":60,"velocity":36,"programNumber":2},{"time":764406.6950000202,"duration":117.13249999994878,"noteNumber":62,"velocity":36,"programNumber":2},{"time":764523.8275000202,"duration":117.13249999994878,"noteNumber":60,"velocity":36,"programNumber":2},{"time":764640.9600000201,"duration":468.5299999999115,"noteNumber":59,"velocity":36,"programNumber":2}],[{"time":0,"duration":234.26500000000001,"noteNumber":55,"velocity":36,"programNumber":42},{"time":234.26500000000001,"duration":234.26499999999996,"noteNumber":55,"velocity":36,"programNumber":42},{"time":468.53,"duration":234.265,"noteNumber":55,"velocity":36,"programNumber":42},{"time":702.795,"duration":234.265,"noteNumber":55,"velocity":36,"programNumber":42},{"time":937.06,"duration":234.26499999999987,"noteNumber":55,"velocity":36,"programNumber":42},{"time":1171.3249999999998,"duration":234.26499999999987,"noteNumber":55,"velocity":36,"programNumber":42},{"time":1405.5899999999997,"duration":234.26499999999987,"noteNumber":57,"velocity":36,"programNumber":42},{"time":1639.8549999999996,"duration":234.26499999999987,"noteNumber":57,"velocity":36,"programNumber":42},{"time":1874.1199999999994,"duration":234.26499999999987,"noteNumber":57,"velocity":36,"programNumber":42},{"time":2108.3849999999993,"duration":234.26499999999987,"noteNumber":57,"velocity":36,"programNumber":42},{"time":2342.649999999999,"duration":234.26499999999987,"noteNumber":57,"velocity":36,"programNumber":42},{"time":2576.914999999999,"duration":234.26499999999987,"noteNumber":55,"velocity":36,"programNumber":42},{"time":2811.179999999999,"duration":234.26499999999987,"noteNumber":54,"velocity":36,"programNumber":42},{"time":3045.444999999999,"duration":234.26499999999987,"noteNumber":54,"velocity":36,"programNumber":42},{"time":3279.7099999999987,"duration":234.26499999999987,"noteNumber":54,"velocity":36,"programNumber":42},{"time":3513.9749999999985,"duration":234.26499999999987,"noteNumber":54,"velocity":36,"programNumber":42},{"time":3748.2399999999984,"duration":234.26499999999987,"noteNumber":54,"velocity":36,"programNumber":42},{"time":3982.5049999999983,"duration":234.26500000000033,"noteNumber":54,"velocity":36,"programNumber":42},{"time":4216.769999999999,"duration":234.26500000000033,"noteNumber":55,"velocity":36,"programNumber":42},{"time":4451.034999999999,"duration":234.26500000000033,"noteNumber":55,"velocity":36,"programNumber":42},{"time":4685.299999999999,"duration":234.26500000000033,"noteNumber":55,"velocity":36,"programNumber":42},{"time":4919.565,"duration":234.26500000000033,"noteNumber":55,"velocity":36,"programNumber":42},{"time":5153.83,"duration":234.26500000000033,"noteNumber":55,"velocity":36,"programNumber":42},{"time":5388.095,"duration":234.26500000000033,"noteNumber":55,"velocity":36,"programNumber":42},{"time":5622.360000000001,"duration":234.26500000000033,"noteNumber":55,"velocity":36,"programNumber":42},{"time":5856.625000000001,"duration":234.26500000000033,"noteNumber":55,"velocity":36,"programNumber":42},{"time":6090.890000000001,"duration":234.26500000000033,"noteNumber":55,"velocity":36,"programNumber":42},{"time":6325.155000000002,"duration":234.26500000000033,"noteNumber":55,"velocity":36,"programNumber":42},{"time":6559.420000000002,"duration":234.26500000000033,"noteNumber":55,"velocity":36,"programNumber":42},{"time":6793.685000000002,"duration":234.26500000000033,"noteNumber":55,"velocity":36,"programNumber":42},{"time":7027.950000000003,"duration":234.26500000000033,"noteNumber":55,"velocity":36,"programNumber":42},{"time":7262.215000000003,"duration":234.26500000000033,"noteNumber":55,"velocity":36,"programNumber":42},{"time":7496.480000000003,"duration":234.26500000000033,"noteNumber":55,"velocity":36,"programNumber":42},{"time":7730.7450000000035,"duration":234.26500000000033,"noteNumber":55,"velocity":36,"programNumber":42},{"time":7965.010000000004,"duration":117.13249999999971,"noteNumber":55,"velocity":36,"programNumber":42},{"time":8082.142500000004,"duration":117.13249999999971,"noteNumber":55,"velocity":36,"programNumber":42},{"time":8199.275000000003,"duration":117.13249999999971,"noteNumber":57,"velocity":36,"programNumber":42},{"time":8316.407500000003,"duration":117.13249999999971,"noteNumber":59,"velocity":36,"programNumber":42},{"time":8433.540000000003,"duration":234.26499999999942,"noteNumber":60,"velocity":36,"programNumber":42},{"time":8667.805000000002,"duration":234.26499999999942,"noteNumber":48,"velocity":36,"programNumber":42},{"time":8902.070000000002,"duration":234.26499999999942,"noteNumber":48,"velocity":36,"programNumber":42},{"time":9136.335000000001,"duration":234.26499999999942,"noteNumber":48,"velocity":36,"programNumber":42},{"time":9370.6,"duration":234.26499999999942,"noteNumber":49,"velocity":36,"programNumber":42},{"time":9604.865,"duration":234.26499999999942,"noteNumber":49,"velocity":36,"programNumber":42},{"time":9839.13,"duration":468.53000000000065,"noteNumber":50,"velocity":36,"programNumber":42},{"time":10541.925,"duration":234.26499999999942,"noteNumber":50,"velocity":36,"programNumber":42},{"time":10776.189999999999,"duration":234.26499999999942,"noteNumber":54,"velocity":36,"programNumber":42},{"time":11010.454999999998,"duration":234.26499999999942,"noteNumber":57,"velocity":36,"programNumber":42},{"time":11244.719999999998,"duration":234.26499999999942,"noteNumber":62,"velocity":36,"programNumber":42},{"time":11478.984999999997,"duration":234.26499999999942,"noteNumber":62,"velocity":36,"programNumber":42},{"time":11713.249999999996,"duration":234.26499999999942,"noteNumber":62,"velocity":36,"programNumber":42},{"time":11947.514999999996,"duration":234.26499999999942,"noteNumber":62,"velocity":36,"programNumber":42},{"time":12181.779999999995,"duration":234.26499999999942,"noteNumber":62,"velocity":36,"programNumber":42},{"time":12416.044999999995,"duration":234.26499999999942,"noteNumber":62,"velocity":36,"programNumber":42},{"time":12650.309999999994,"duration":234.26499999999942,"noteNumber":61,"velocity":36,"programNumber":42},{"time":12884.574999999993,"duration":234.26499999999942,"noteNumber":61,"velocity":36,"programNumber":42},{"time":13118.839999999993,"duration":234.26499999999942,"noteNumber":61,"velocity":36,"programNumber":42},{"time":13353.104999999992,"duration":234.26499999999942,"noteNumber":61,"velocity":36,"programNumber":42},{"time":13587.369999999992,"duration":234.26499999999942,"noteNumber":61,"velocity":36,"programNumber":42},{"time":13821.634999999991,"duration":234.26499999999942,"noteNumber":61,"velocity":36,"programNumber":42},{"time":14055.89999999999,"duration":234.26499999999942,"noteNumber":59,"velocity":36,"programNumber":42},{"time":14290.16499999999,"duration":234.26499999999942,"noteNumber":59,"velocity":36,"programNumber":42},{"time":14524.42999999999,"duration":234.26499999999942,"noteNumber":59,"velocity":36,"programNumber":42},{"time":14758.694999999989,"duration":234.26499999999942,"noteNumber":59,"velocity":36,"programNumber":42},{"time":14992.959999999988,"duration":234.26499999999942,"noteNumber":59,"velocity":36,"programNumber":42},{"time":15227.224999999988,"duration":234.26499999999942,"noteNumber":59,"velocity":36,"programNumber":42},{"time":15461.489999999987,"duration":234.26499999999942,"noteNumber":57,"velocity":36,"programNumber":42},{"time":15695.754999999986,"duration":234.26499999999942,"noteNumber":57,"velocity":36,"programNumber":42},{"time":15930.019999999986,"duration":234.26499999999942,"noteNumber":57,"velocity":36,"programNumber":42},{"time":16164.284999999985,"duration":234.26499999999942,"noteNumber":57,"velocity":36,"programNumber":42},{"time":16398.549999999985,"duration":234.26499999999942,"noteNumber":57,"velocity":36,"programNumber":42},{"time":16632.814999999984,"duration":234.26499999999942,"noteNumber":57,"velocity":36,"programNumber":42},{"time":16867.079999999984,"duration":468.52999999999884,"noteNumber":56,"velocity":36,"programNumber":42},{"time":18038.40499999998,"duration":234.26499999999942,"noteNumber":56,"velocity":36,"programNumber":42},{"time":18272.66999999998,"duration":702.7949999999983,"noteNumber":57,"velocity":36,"programNumber":42},{"time":18975.46499999998,"duration":234.26499999999942,"noteNumber":55,"velocity":36,"programNumber":42},{"time":19209.729999999978,"duration":234.26499999999942,"noteNumber":54,"velocity":36,"programNumber":42},{"time":19443.994999999977,"duration":234.26499999999942,"noteNumber":52,"velocity":36,"programNumber":42},{"time":19678.259999999977,"duration":702.7949999999983,"noteNumber":50,"velocity":36,"programNumber":42},{"time":20381.054999999975,"duration":234.26499999999942,"noteNumber":62,"velocity":36,"programNumber":42},{"time":20615.319999999974,"duration":234.26499999999942,"noteNumber":62,"velocity":36,"programNumber":42},{"time":20849.584999999974,"duration":234.26499999999942,"noteNumber":62,"velocity":36,"programNumber":42},{"time":21083.849999999973,"duration":234.26499999999942,"noteNumber":61,"velocity":36,"programNumber":42},{"time":21318.114999999972,"duration":234.26499999999942,"noteNumber":62,"velocity":36,"programNumber":42},{"time":21552.379999999972,"duration":468.52999999999884,"noteNumber":57,"velocity":36,"programNumber":42},{"time":22020.90999999997,"duration":117.13249999999971,"noteNumber":57,"velocity":36,"programNumber":42},{"time":22138.04249999997,"duration":117.13249999999971,"noteNumber":55,"velocity":36,"programNumber":42},{"time":22255.17499999997,"duration":117.13249999999971,"noteNumber":54,"velocity":36,"programNumber":42},{"time":22372.30749999997,"duration":117.13249999999971,"noteNumber":52,"velocity":36,"programNumber":42},{"time":22489.43999999997,"duration":702.7949999999983,"noteNumber":50,"velocity":36,"programNumber":42},{"time":23192.234999999968,"duration":234.26499999999942,"noteNumber":62,"velocity":36,"programNumber":42},{"time":23426.499999999967,"duration":234.26499999999942,"noteNumber":62,"velocity":36,"programNumber":42},{"time":23660.764999999967,"duration":234.26499999999942,"noteNumber":62,"velocity":36,"programNumber":42},{"time":23895.029999999966,"duration":234.26499999999942,"noteNumber":61,"velocity":36,"programNumber":42},{"time":24129.294999999966,"duration":234.26499999999942,"noteNumber":62,"velocity":36,"programNumber":42},{"time":24363.559999999965,"duration":468.52999999999884,"noteNumber":57,"velocity":36,"programNumber":42},{"time":24832.089999999964,"duration":117.13249999999971,"noteNumber":57,"velocity":36,"programNumber":42},{"time":24949.222499999963,"duration":117.13249999999971,"noteNumber":55,"velocity":36,"programNumber":42},{"time":25066.354999999963,"duration":117.13249999999971,"noteNumber":54,"velocity":36,"programNumber":42},{"time":25183.487499999963,"duration":117.13249999999971,"noteNumber":52,"velocity":36,"programNumber":42},{"time":25300.619999999963,"duration":234.26499999999942,"noteNumber":50,"velocity":36,"programNumber":42},{"time":25534.884999999962,"duration":234.26499999999942,"noteNumber":50,"velocity":36,"programNumber":42},{"time":25769.14999999996,"duration":234.26499999999942,"noteNumber":54,"velocity":36,"programNumber":42},{"time":26003.41499999996,"duration":234.26499999999942,"noteNumber":54,"velocity":36,"programNumber":42},{"time":26237.67999999996,"duration":234.26499999999942,"noteNumber":54,"velocity":36,"programNumber":42},{"time":26471.94499999996,"duration":234.26499999999942,"noteNumber":54,"velocity":36,"programNumber":42},{"time":26706.20999999996,"duration":234.26499999999942,"noteNumber":55,"velocity":36,"programNumber":42},{"time":27877.53499999996,"duration":234.26499999999942,"noteNumber":55,"velocity":36,"programNumber":42},{"time":28111.79999999996,"duration":234.26499999999942,"noteNumber":57,"velocity":36,"programNumber":42},{"time":28346.06499999996,"duration":234.26499999999942,"noteNumber":57,"velocity":36,"programNumber":42},{"time":28580.329999999958,"duration":234.26499999999942,"noteNumber":57,"velocity":36,"programNumber":42},{"time":28814.594999999958,"duration":234.26499999999942,"noteNumber":57,"velocity":36,"programNumber":42},{"time":29048.859999999957,"duration":234.26499999999942,"noteNumber":45,"velocity":36,"programNumber":42},{"time":29283.124999999956,"duration":234.26499999999942,"noteNumber":45,"velocity":36,"programNumber":42},{"time":29517.389999999956,"duration":468.52999999999884,"noteNumber":50,"velocity":36,"programNumber":42},{"time":30103.052499999954,"duration":117.13249999999971,"noteNumber":50,"velocity":36,"programNumber":42},{"time":30220.184999999954,"duration":117.13249999999971,"noteNumber":49,"velocity":36,"programNumber":42},{"time":30337.317499999954,"duration":117.13249999999971,"noteNumber":50,"velocity":36,"programNumber":42},{"time":30454.449999999953,"duration":117.13249999999971,"noteNumber":52,"velocity":36,"programNumber":42},{"time":30571.582499999953,"duration":117.13249999999971,"noteNumber":50,"velocity":36,"programNumber":42},{"time":30688.714999999953,"duration":117.13249999999971,"noteNumber":49,"velocity":36,"programNumber":42},{"time":30805.847499999953,"duration":117.13249999999971,"noteNumber":50,"velocity":36,"programNumber":42},{"time":30922.979999999952,"duration":468.52999999999884,"noteNumber":47,"velocity":36,"programNumber":42},{"time":31508.64249999995,"duration":117.13249999999971,"noteNumber":59,"velocity":36,"programNumber":42},{"time":31625.77499999995,"duration":117.13249999999971,"noteNumber":57,"velocity":36,"programNumber":42},{"time":31742.90749999995,"duration":117.13249999999971,"noteNumber":59,"velocity":36,"programNumber":42},{"time":31860.03999999995,"duration":117.13249999999971,"noteNumber":61,"velocity":36,"programNumber":42},{"time":31977.17249999995,"duration":117.13249999999971,"noteNumber":59,"velocity":36,"programNumber":42},{"time":32094.30499999995,"duration":117.13249999999971,"noteNumber":57,"velocity":36,"programNumber":42},{"time":32211.43749999995,"duration":117.13249999999971,"noteNumber":59,"velocity":36,"programNumber":42},{"time":32328.56999999995,"duration":468.52999999999884,"noteNumber":54,"velocity":36,"programNumber":42},{"time":33031.36499999995,"duration":234.26499999999942,"noteNumber":54,"velocity":36,"programNumber":42},{"time":33265.62999999995,"duration":234.26499999999942,"noteNumber":54,"velocity":36,"programNumber":42},{"time":33499.894999999946,"duration":234.26499999999942,"noteNumber":54,"velocity":36,"programNumber":42},{"time":33734.159999999945,"duration":234.26499999999942,"noteNumber":55,"velocity":36,"programNumber":42},{"time":33968.424999999945,"duration":234.26499999999942,"noteNumber":55,"velocity":36,"programNumber":42},{"time":34202.689999999944,"duration":234.26499999999942,"noteNumber":57,"velocity":36,"programNumber":42},{"time":34436.95499999994,"duration":234.26499999999942,"noteNumber":57,"velocity":36,"programNumber":42},{"time":34671.21999999994,"duration":234.26499999999942,"noteNumber":45,"velocity":36,"programNumber":42},{"time":34905.48499999994,"duration":234.26499999999942,"noteNumber":45,"velocity":36,"programNumber":42},{"time":35139.74999999994,"duration":1405.5899999999965,"noteNumber":50,"velocity":36,"programNumber":42},{"time":36545.33999999994,"duration":234.26499999999942,"noteNumber":50,"velocity":36,"programNumber":42},{"time":36779.60499999994,"duration":234.26499999999942,"noteNumber":54,"velocity":36,"programNumber":42},{"time":37013.86999999994,"duration":234.26499999999942,"noteNumber":55,"velocity":36,"programNumber":42},{"time":37248.13499999994,"duration":234.26499999999942,"noteNumber":54,"velocity":36,"programNumber":42},{"time":37482.399999999936,"duration":234.26499999999942,"noteNumber":55,"velocity":36,"programNumber":42},{"time":37716.664999999935,"duration":234.26499999999942,"noteNumber":57,"velocity":36,"programNumber":42},{"time":37950.929999999935,"duration":937.0599999999977,"noteNumber":50,"velocity":36,"programNumber":42},{"time":38887.98999999993,"duration":234.26499999999942,"noteNumber":50,"velocity":36,"programNumber":42},{"time":39356.51999999993,"duration":234.26499999999942,"noteNumber":50,"velocity":36,"programNumber":42},{"time":39590.78499999993,"duration":234.26499999999942,"noteNumber":54,"velocity":36,"programNumber":42},{"time":39825.04999999993,"duration":234.26499999999942,"noteNumber":50,"velocity":36,"programNumber":42},{"time":40059.31499999993,"duration":234.26499999999942,"noteNumber":54,"velocity":36,"programNumber":42},{"time":40293.57999999993,"duration":234.26499999999942,"noteNumber":50,"velocity":36,"programNumber":42},{"time":40527.84499999993,"duration":234.26499999999942,"noteNumber":54,"velocity":36,"programNumber":42},{"time":40762.10999999993,"duration":234.26499999999942,"noteNumber":52,"velocity":36,"programNumber":42},{"time":40996.37499999993,"duration":234.26499999999942,"noteNumber":55,"velocity":36,"programNumber":42},{"time":41230.63999999993,"duration":234.26499999999942,"noteNumber":52,"velocity":36,"programNumber":42},{"time":41464.904999999926,"duration":234.26499999999942,"noteNumber":55,"velocity":36,"programNumber":42},{"time":41699.169999999925,"duration":234.26499999999942,"noteNumber":52,"velocity":36,"programNumber":42},{"time":41933.434999999925,"duration":234.26499999999942,"noteNumber":55,"velocity":36,"programNumber":42},{"time":42167.699999999924,"duration":234.26499999999942,"noteNumber":54,"velocity":36,"programNumber":42},{"time":42401.964999999924,"duration":234.26499999999942,"noteNumber":50,"velocity":36,"programNumber":42},{"time":42636.22999999992,"duration":234.26499999999942,"noteNumber":55,"velocity":36,"programNumber":42},{"time":42870.49499999992,"duration":234.26499999999942,"noteNumber":54,"velocity":36,"programNumber":42},{"time":43104.75999999992,"duration":234.26499999999942,"noteNumber":57,"velocity":36,"programNumber":42},{"time":43339.02499999992,"duration":234.26499999999942,"noteNumber":50,"velocity":36,"programNumber":42},{"time":43573.28999999992,"duration":234.26499999999942,"noteNumber":55,"velocity":36,"programNumber":42},{"time":43807.55499999992,"duration":234.26499999999942,"noteNumber":59,"velocity":36,"programNumber":42},{"time":44041.81999999992,"duration":234.26499999999942,"noteNumber":55,"velocity":36,"programNumber":42},{"time":44276.08499999992,"duration":234.26499999999942,"noteNumber":43,"velocity":36,"programNumber":42},{"time":44510.34999999992,"duration":234.26499999999942,"noteNumber":48,"velocity":36,"programNumber":42},{"time":44744.61499999992,"duration":234.26499999999942,"noteNumber":49,"velocity":36,"programNumber":42},{"time":44978.87999999992,"duration":468.52999999999884,"noteNumber":50,"velocity":36,"programNumber":42},{"time":45681.674999999916,"duration":234.26499999999942,"noteNumber":62,"velocity":36,"programNumber":42},{"time":45915.939999999915,"duration":234.26499999999942,"noteNumber":59,"velocity":36,"programNumber":42},{"time":46150.204999999914,"duration":234.26499999999942,"noteNumber":57,"velocity":36,"programNumber":42},{"time":46384.469999999914,"duration":234.26499999999942,"noteNumber":56,"velocity":36,"programNumber":42},{"time":46618.73499999991,"duration":234.26499999999942,"noteNumber":56,"velocity":36,"programNumber":42},{"time":46852.99999999991,"duration":234.26499999999942,"noteNumber":56,"velocity":36,"programNumber":42},{"time":47087.26499999991,"duration":234.26499999999942,"noteNumber":56,"velocity":36,"programNumber":42},{"time":47321.52999999991,"duration":234.26499999999942,"noteNumber":56,"velocity":36,"programNumber":42},{"time":47555.79499999991,"duration":234.26499999999942,"noteNumber":56,"velocity":36,"programNumber":42},{"time":47790.05999999991,"duration":234.26499999999942,"noteNumber":57,"velocity":36,"programNumber":42},{"time":48024.32499999991,"duration":234.26499999999942,"noteNumber":45,"velocity":36,"programNumber":42},{"time":48258.58999999991,"duration":234.26499999999942,"noteNumber":45,"velocity":36,"programNumber":42},{"time":48492.85499999991,"duration":234.26499999999942,"noteNumber":45,"velocity":36,"programNumber":42},{"time":48727.11999999991,"duration":234.26499999999942,"noteNumber":45,"velocity":36,"programNumber":42},{"time":48961.38499999991,"duration":234.26499999999942,"noteNumber":45,"velocity":36,"programNumber":42},{"time":49195.64999999991,"duration":234.26499999999942,"noteNumber":50,"velocity":36,"programNumber":42},{"time":49429.914999999906,"duration":234.26499999999942,"noteNumber":50,"velocity":36,"programNumber":42},{"time":49664.179999999906,"duration":234.26499999999942,"noteNumber":50,"velocity":36,"programNumber":42},{"time":49898.444999999905,"duration":234.26499999999942,"noteNumber":50,"velocity":36,"programNumber":42},{"time":50132.709999999905,"duration":234.26499999999942,"noteNumber":50,"velocity":36,"programNumber":42},{"time":50366.974999999904,"duration":234.26499999999942,"noteNumber":50,"velocity":36,"programNumber":42},{"time":50601.2399999999,"duration":234.26499999999942,"noteNumber":55,"velocity":36,"programNumber":42},{"time":50835.5049999999,"duration":234.26499999999942,"noteNumber":43,"velocity":36,"programNumber":42},{"time":51069.7699999999,"duration":234.26499999999942,"noteNumber":43,"velocity":36,"programNumber":42},{"time":51304.0349999999,"duration":234.26499999999942,"noteNumber":43,"velocity":36,"programNumber":42},{"time":51538.2999999999,"duration":234.26499999999942,"noteNumber":43,"velocity":36,"programNumber":42},{"time":51772.5649999999,"duration":234.26499999999942,"noteNumber":43,"velocity":36,"programNumber":42},{"time":52006.8299999999,"duration":234.26499999999942,"noteNumber":48,"velocity":36,"programNumber":42},{"time":52241.0949999999,"duration":234.26499999999942,"noteNumber":48,"velocity":36,"programNumber":42},{"time":52475.3599999999,"duration":234.26499999999942,"noteNumber":48,"velocity":36,"programNumber":42},{"time":52709.6249999999,"duration":234.26499999999942,"noteNumber":48,"velocity":36,"programNumber":42},{"time":52943.8899999999,"duration":234.26499999999942,"noteNumber":48,"velocity":36,"programNumber":42},{"time":53178.1549999999,"duration":234.26499999999942,"noteNumber":49,"velocity":36,"programNumber":42},{"time":53412.4199999999,"duration":702.7949999999983,"noteNumber":50,"velocity":36,"programNumber":42},{"time":54115.214999999895,"duration":234.26499999999942,"noteNumber":60,"velocity":36,"programNumber":42},{"time":54349.479999999894,"duration":234.26499999999942,"noteNumber":59,"velocity":36,"programNumber":42},{"time":54583.74499999989,"duration":234.26499999999942,"noteNumber":57,"velocity":36,"programNumber":42},{"time":54818.00999999989,"duration":234.26499999999942,"noteNumber":55,"velocity":36,"programNumber":42},{"time":55052.27499999989,"duration":234.26499999999942,"noteNumber":55,"velocity":36,"programNumber":42},{"time":55286.53999999989,"duration":234.26499999999942,"noteNumber":55,"velocity":36,"programNumber":42},{"time":55520.80499999989,"duration":234.26499999999942,"noteNumber":55,"velocity":36,"programNumber":42},{"time":55755.06999999989,"duration":234.26499999999942,"noteNumber":55,"velocity":36,"programNumber":42},{"time":55989.33499999989,"duration":234.26499999999942,"noteNumber":55,"velocity":36,"programNumber":42},{"time":56223.59999999989,"duration":234.26499999999942,"noteNumber":57,"velocity":36,"programNumber":42},{"time":56457.86499999989,"duration":234.26499999999942,"noteNumber":57,"velocity":36,"programNumber":42},{"time":56692.12999999989,"duration":234.26499999999942,"noteNumber":57,"velocity":36,"programNumber":42},{"time":56926.39499999989,"duration":234.26499999999942,"noteNumber":57,"velocity":36,"programNumber":42},{"time":57160.65999999989,"duration":234.26499999999942,"noteNumber":57,"velocity":36,"programNumber":42},{"time":57394.92499999989,"duration":234.26499999999942,"noteNumber":55,"velocity":36,"programNumber":42},{"time":57629.189999999886,"duration":234.26499999999942,"noteNumber":54,"velocity":36,"programNumber":42},{"time":57863.454999999885,"duration":234.26499999999942,"noteNumber":54,"velocity":36,"programNumber":42},{"time":58097.719999999885,"duration":234.26499999999942,"noteNumber":54,"velocity":36,"programNumber":42},{"time":58331.984999999884,"duration":234.26499999999942,"noteNumber":54,"velocity":36,"programNumber":42},{"time":58566.24999999988,"duration":234.26499999999942,"noteNumber":54,"velocity":36,"programNumber":42},{"time":58800.51499999988,"duration":234.26499999999942,"noteNumber":54,"velocity":36,"programNumber":42},{"time":59034.77999999988,"duration":234.26499999999942,"noteNumber":55,"velocity":36,"programNumber":42},{"time":59269.04499999988,"duration":234.26499999999942,"noteNumber":55,"velocity":36,"programNumber":42},{"time":59503.30999999988,"duration":234.26499999999942,"noteNumber":55,"velocity":36,"programNumber":42},{"time":59737.57499999988,"duration":234.26499999999942,"noteNumber":55,"velocity":36,"programNumber":42},{"time":59971.83999999988,"duration":234.26499999999942,"noteNumber":57,"velocity":36,"programNumber":42},{"time":60206.10499999988,"duration":234.26499999999942,"noteNumber":59,"velocity":36,"programNumber":42},{"time":60440.36999999988,"duration":234.26499999999942,"noteNumber":60,"velocity":36,"programNumber":42},{"time":60674.63499999988,"duration":234.26499999999942,"noteNumber":60,"velocity":36,"programNumber":42},{"time":60908.89999999988,"duration":234.26499999999942,"noteNumber":60,"velocity":36,"programNumber":42},{"time":61143.16499999988,"duration":234.26499999999942,"noteNumber":60,"velocity":36,"programNumber":42},{"time":61377.42999999988,"duration":234.26499999999942,"noteNumber":60,"velocity":36,"programNumber":42},{"time":61611.694999999876,"duration":234.26499999999942,"noteNumber":60,"velocity":36,"programNumber":42},{"time":61845.959999999875,"duration":234.26499999999942,"noteNumber":55,"velocity":36,"programNumber":42},{"time":62080.224999999875,"duration":234.26499999999942,"noteNumber":55,"velocity":36,"programNumber":42},{"time":62314.489999999874,"duration":468.52999999999884,"noteNumber":43,"velocity":36,"programNumber":42},{"time":63485.81499999987,"duration":234.26499999999942,"noteNumber":55,"velocity":36,"programNumber":42},{"time":63720.07999999987,"duration":234.26499999999942,"noteNumber":48,"velocity":36,"programNumber":42},{"time":63954.34499999987,"duration":234.26499999999942,"noteNumber":48,"velocity":36,"programNumber":42},{"time":64188.60999999987,"duration":234.26499999999942,"noteNumber":49,"velocity":36,"programNumber":42},{"time":64422.87499999987,"duration":234.26499999999942,"noteNumber":49,"velocity":36,"programNumber":42},{"time":64657.13999999987,"duration":702.7949999999983,"noteNumber":50,"velocity":36,"programNumber":42},{"time":65359.93499999987,"duration":234.26499999999942,"noteNumber":60,"velocity":36,"programNumber":42},{"time":65594.19999999987,"duration":234.26499999999942,"noteNumber":59,"velocity":36,"programNumber":42},{"time":65828.46499999987,"duration":234.26499999999942,"noteNumber":57,"velocity":36,"programNumber":42},{"time":66062.72999999986,"duration":234.26499999999942,"noteNumber":55,"velocity":36,"programNumber":42},{"time":66296.99499999986,"duration":234.26499999999942,"noteNumber":55,"velocity":36,"programNumber":42},{"time":66531.25999999986,"duration":234.26499999999942,"noteNumber":55,"velocity":36,"programNumber":42},{"time":66765.52499999986,"duration":234.26499999999942,"noteNumber":55,"velocity":36,"programNumber":42},{"time":66999.78999999986,"duration":234.26499999999942,"noteNumber":55,"velocity":36,"programNumber":42},{"time":67234.05499999986,"duration":234.26499999999942,"noteNumber":55,"velocity":36,"programNumber":42},{"time":67468.31999999986,"duration":234.26499999999942,"noteNumber":54,"velocity":36,"programNumber":42},{"time":67702.58499999986,"duration":234.26499999999942,"noteNumber":54,"velocity":36,"programNumber":42},{"time":67936.84999999986,"duration":234.26499999999942,"noteNumber":54,"velocity":36,"programNumber":42},{"time":68171.11499999986,"duration":234.26499999999942,"noteNumber":54,"velocity":36,"programNumber":42},{"time":68405.37999999986,"duration":234.26499999999942,"noteNumber":54,"velocity":36,"programNumber":42},{"time":68639.64499999986,"duration":234.26499999999942,"noteNumber":54,"velocity":36,"programNumber":42},{"time":68873.90999999986,"duration":234.26499999999942,"noteNumber":52,"velocity":36,"programNumber":42},{"time":69108.17499999986,"duration":234.26499999999942,"noteNumber":52,"velocity":36,"programNumber":42},{"time":69342.43999999986,"duration":234.26499999999942,"noteNumber":52,"velocity":36,"programNumber":42},{"time":69576.70499999986,"duration":234.26499999999942,"noteNumber":52,"velocity":36,"programNumber":42},{"time":69810.96999999986,"duration":234.26499999999942,"noteNumber":52,"velocity":36,"programNumber":42},{"time":70045.23499999986,"duration":234.26499999999942,"noteNumber":52,"velocity":36,"programNumber":42},{"time":70279.49999999985,"duration":234.26499999999942,"noteNumber":50,"velocity":36,"programNumber":42},{"time":70513.76499999985,"duration":234.26499999999942,"noteNumber":50,"velocity":36,"programNumber":42},{"time":70748.02999999985,"duration":234.26499999999942,"noteNumber":50,"velocity":36,"programNumber":42},{"time":70982.29499999985,"duration":234.26499999999942,"noteNumber":50,"velocity":36,"programNumber":42},{"time":71216.55999999985,"duration":234.26499999999942,"noteNumber":50,"velocity":36,"programNumber":42},{"time":71450.82499999985,"duration":234.26499999999942,"noteNumber":50,"velocity":36,"programNumber":42},{"time":71685.08999999985,"duration":234.26499999999942,"noteNumber":49,"velocity":36,"programNumber":42},{"time":71919.35499999985,"duration":234.26499999999942,"noteNumber":49,"velocity":36,"programNumber":42},{"time":72153.61999999985,"duration":234.26499999999942,"noteNumber":49,"velocity":36,"programNumber":42},{"time":72387.88499999985,"duration":234.26499999999942,"noteNumber":49,"velocity":36,"programNumber":42},{"time":72622.14999999985,"duration":234.26499999999942,"noteNumber":49,"velocity":36,"programNumber":42},{"time":72856.41499999985,"duration":234.26499999999942,"noteNumber":49,"velocity":36,"programNumber":42},{"time":73090.67999999985,"duration":702.7949999999983,"noteNumber":50,"velocity":36,"programNumber":42},{"time":73793.47499999985,"duration":234.26499999999942,"noteNumber":60,"velocity":36,"programNumber":42},{"time":74027.73999999985,"duration":234.26499999999942,"noteNumber":59,"velocity":36,"programNumber":42},{"time":74262.00499999984,"duration":234.26499999999942,"noteNumber":57,"velocity":36,"programNumber":42},{"time":74496.26999999984,"duration":702.7949999999983,"noteNumber":55,"velocity":36,"programNumber":42},{"time":75199.06499999984,"duration":234.26499999999942,"noteNumber":55,"velocity":36,"programNumber":42},{"time":75433.32999999984,"duration":234.26499999999942,"noteNumber":55,"velocity":36,"programNumber":42},{"time":75667.59499999984,"duration":234.26499999999942,"noteNumber":55,"velocity":36,"programNumber":42},{"time":75901.85999999984,"duration":234.26499999999942,"noteNumber":54,"velocity":36,"programNumber":42},{"time":76136.12499999984,"duration":234.26499999999942,"noteNumber":55,"velocity":36,"programNumber":42},{"time":76370.38999999984,"duration":468.52999999999884,"noteNumber":62,"velocity":36,"programNumber":42},{"time":76838.91999999984,"duration":117.13250000000698,"noteNumber":50,"velocity":36,"programNumber":42},{"time":76956.05249999985,"duration":117.13250000000698,"noteNumber":48,"velocity":36,"programNumber":42},{"time":77073.18499999985,"duration":117.13250000000698,"noteNumber":47,"velocity":36,"programNumber":42},{"time":77190.31749999986,"duration":117.13250000000698,"noteNumber":45,"velocity":36,"programNumber":42},{"time":77307.44999999987,"duration":702.7949999999983,"noteNumber":43,"velocity":36,"programNumber":42},{"time":78010.24499999986,"duration":234.26499999999942,"noteNumber":55,"velocity":36,"programNumber":42},{"time":78244.50999999986,"duration":234.26499999999942,"noteNumber":55,"velocity":36,"programNumber":42},{"time":78478.77499999986,"duration":234.26499999999942,"noteNumber":55,"velocity":36,"programNumber":42},{"time":78713.03999999986,"duration":234.26499999999942,"noteNumber":54,"velocity":36,"programNumber":42},{"time":78947.30499999986,"duration":234.26499999999942,"noteNumber":55,"velocity":36,"programNumber":42},{"time":79181.56999999986,"duration":468.52999999999884,"noteNumber":50,"velocity":36,"programNumber":42},{"time":79650.09999999986,"duration":117.13250000000698,"noteNumber":50,"velocity":36,"programNumber":42},{"time":79767.23249999987,"duration":117.13250000000698,"noteNumber":48,"velocity":36,"programNumber":42},{"time":79884.36499999987,"duration":117.13250000000698,"noteNumber":47,"velocity":36,"programNumber":42},{"time":80001.49749999988,"duration":117.13250000000698,"noteNumber":45,"velocity":36,"programNumber":42},{"time":80118.62999999989,"duration":234.26499999999942,"noteNumber":47,"velocity":36,"programNumber":42},{"time":80352.89499999989,"duration":234.26499999999942,"noteNumber":47,"velocity":36,"programNumber":42},{"time":80587.15999999989,"duration":234.26499999999942,"noteNumber":47,"velocity":36,"programNumber":42},{"time":80821.42499999989,"duration":234.26499999999942,"noteNumber":47,"velocity":36,"programNumber":42},{"time":81055.68999999989,"duration":234.26499999999942,"noteNumber":47,"velocity":36,"programNumber":42},{"time":81289.95499999989,"duration":234.26499999999942,"noteNumber":47,"velocity":36,"programNumber":42},{"time":81524.21999999988,"duration":234.26499999999942,"noteNumber":48,"velocity":36,"programNumber":42},{"time":82695.54499999988,"duration":234.26499999999942,"noteNumber":48,"velocity":36,"programNumber":42},{"time":82929.80999999988,"duration":234.26499999999942,"noteNumber":50,"velocity":36,"programNumber":42},{"time":83164.07499999988,"duration":234.26499999999942,"noteNumber":50,"velocity":36,"programNumber":42},{"time":83398.33999999988,"duration":234.26499999999942,"noteNumber":50,"velocity":36,"programNumber":42},{"time":83632.60499999988,"duration":234.26499999999942,"noteNumber":50,"velocity":36,"programNumber":42},{"time":83866.86999999988,"duration":234.26499999999942,"noteNumber":50,"velocity":36,"programNumber":42},{"time":84101.13499999988,"duration":234.26499999999942,"noteNumber":50,"velocity":36,"programNumber":42},{"time":84335.39999999988,"duration":468.52999999999884,"noteNumber":43,"velocity":36,"programNumber":42},{"time":84921.06249999988,"duration":117.13250000000698,"noteNumber":55,"velocity":36,"programNumber":42},{"time":85038.19499999989,"duration":117.13250000000698,"noteNumber":54,"velocity":36,"programNumber":42},{"time":85155.3274999999,"duration":117.13250000000698,"noteNumber":55,"velocity":36,"programNumber":42},{"time":85272.4599999999,"duration":117.13250000000698,"noteNumber":57,"velocity":36,"programNumber":42},{"time":85389.59249999991,"duration":117.13250000000698,"noteNumber":55,"velocity":36,"programNumber":42},{"time":85506.72499999992,"duration":117.13250000000698,"noteNumber":54,"velocity":36,"programNumber":42},{"time":85623.85749999993,"duration":117.13250000000698,"noteNumber":55,"velocity":36,"programNumber":42},{"time":85740.98999999993,"duration":468.52999999999884,"noteNumber":52,"velocity":36,"programNumber":42},{"time":86326.65249999994,"duration":117.13250000000698,"noteNumber":52,"velocity":36,"programNumber":42},{"time":86443.78499999995,"duration":117.13250000000698,"noteNumber":51,"velocity":36,"programNumber":42},{"time":86560.91749999995,"duration":117.13250000000698,"noteNumber":52,"velocity":36,"programNumber":42},{"time":86678.04999999996,"duration":117.13250000000698,"noteNumber":54,"velocity":36,"programNumber":42},{"time":86795.18249999997,"duration":117.13250000000698,"noteNumber":52,"velocity":36,"programNumber":42},{"time":86912.31499999997,"duration":117.13250000000698,"noteNumber":51,"velocity":36,"programNumber":42},{"time":87029.44749999998,"duration":117.13250000000698,"noteNumber":52,"velocity":36,"programNumber":42},{"time":87146.57999999999,"duration":468.52999999999884,"noteNumber":47,"velocity":36,"programNumber":42},{"time":87849.37499999999,"duration":234.26499999999942,"noteNumber":47,"velocity":36,"programNumber":42},{"time":88083.63999999998,"duration":234.26499999999942,"noteNumber":47,"velocity":36,"programNumber":42},{"time":88317.90499999998,"duration":234.26499999999942,"noteNumber":47,"velocity":36,"programNumber":42},{"time":88552.16999999998,"duration":234.26499999999942,"noteNumber":48,"velocity":36,"programNumber":42},{"time":88786.43499999998,"duration":234.26499999999942,"noteNumber":48,"velocity":36,"programNumber":42},{"time":89020.69999999998,"duration":234.26499999999942,"noteNumber":50,"velocity":36,"programNumber":42},{"time":89254.96499999998,"duration":234.26499999999942,"noteNumber":50,"velocity":36,"programNumber":42},{"time":89489.22999999998,"duration":234.26499999999942,"noteNumber":50,"velocity":36,"programNumber":42},{"time":89723.49499999998,"duration":234.26499999999942,"noteNumber":50,"velocity":36,"programNumber":42},{"time":89957.75999999998,"duration":1405.5899999999965,"noteNumber":55,"velocity":36,"programNumber":42},{"time":91363.34999999998,"duration":1405.5899999999965,"noteNumber":55,"velocity":36,"programNumber":42},{"time":92768.93999999997,"duration":937.0599999999977,"noteNumber":55,"velocity":36,"programNumber":42},{"time":93705.99999999997,"duration":234.26499999999942,"noteNumber":43,"velocity":36,"programNumber":42},{"time":94174.52999999997,"duration":468.52999999999884,"noteNumber":55,"velocity":79,"programNumber":42},{"time":97922.76999999997,"duration":937.0599999999977,"noteNumber":55,"velocity":79,"programNumber":42},{"time":98859.82999999997,"duration":937.0599999999977,"noteNumber":50,"velocity":79,"programNumber":42},{"time":99796.88999999997,"duration":234.26499999999942,"noteNumber":48,"velocity":79,"programNumber":42},{"time":100031.15499999997,"duration":234.26499999999942,"noteNumber":47,"velocity":79,"programNumber":42},{"time":100265.41999999997,"duration":234.26499999999942,"noteNumber":45,"velocity":79,"programNumber":42},{"time":100499.68499999997,"duration":234.26499999999942,"noteNumber":43,"velocity":79,"programNumber":42},{"time":100733.94999999997,"duration":468.52999999999884,"noteNumber":50,"velocity":79,"programNumber":42},{"time":101671.00999999997,"duration":468.52999999999884,"noteNumber":55,"velocity":79,"programNumber":42},{"time":105419.24999999997,"duration":937.0599999999977,"noteNumber":55,"velocity":79,"programNumber":42},{"time":106356.30999999997,"duration":937.0599999999977,"noteNumber":50,"velocity":79,"programNumber":42},{"time":107293.36999999997,"duration":234.26499999999942,"noteNumber":48,"velocity":79,"programNumber":42},{"time":107527.63499999997,"duration":234.26499999999942,"noteNumber":47,"velocity":79,"programNumber":42},{"time":107761.89999999997,"duration":234.26499999999942,"noteNumber":45,"velocity":79,"programNumber":42},{"time":107996.16499999996,"duration":234.26499999999942,"noteNumber":43,"velocity":79,"programNumber":42},{"time":108230.42999999996,"duration":468.52999999999884,"noteNumber":50,"velocity":79,"programNumber":42},{"time":109167.48999999996,"duration":234.26499999999942,"noteNumber":55,"velocity":79,"programNumber":42},{"time":109401.75499999996,"duration":234.26499999999942,"noteNumber":55,"velocity":79,"programNumber":42},{"time":109636.01999999996,"duration":234.26499999999942,"noteNumber":55,"velocity":79,"programNumber":42},{"time":109870.28499999996,"duration":234.26499999999942,"noteNumber":55,"velocity":79,"programNumber":42},{"time":110104.54999999996,"duration":234.26499999999942,"noteNumber":55,"velocity":79,"programNumber":42},{"time":110338.81499999996,"duration":234.26499999999942,"noteNumber":55,"velocity":79,"programNumber":42},{"time":110573.07999999996,"duration":234.26499999999942,"noteNumber":55,"velocity":79,"programNumber":42},{"time":110807.34499999996,"duration":234.26499999999942,"noteNumber":55,"velocity":79,"programNumber":42},{"time":111041.60999999996,"duration":234.26499999999942,"noteNumber":57,"velocity":79,"programNumber":42},{"time":111275.87499999996,"duration":234.26499999999942,"noteNumber":57,"velocity":79,"programNumber":42},{"time":111510.13999999996,"duration":234.26499999999942,"noteNumber":57,"velocity":79,"programNumber":42},{"time":111744.40499999996,"duration":234.26499999999942,"noteNumber":57,"velocity":79,"programNumber":42},{"time":111978.66999999995,"duration":234.26499999999942,"noteNumber":50,"velocity":79,"programNumber":42},{"time":112212.93499999995,"duration":234.26499999999942,"noteNumber":50,"velocity":79,"programNumber":42},{"time":112447.19999999995,"duration":234.26499999999942,"noteNumber":50,"velocity":79,"programNumber":42},{"time":112681.46499999995,"duration":234.26499999999942,"noteNumber":50,"velocity":79,"programNumber":42},{"time":112915.72999999995,"duration":234.26499999999942,"noteNumber":43,"velocity":79,"programNumber":42},{"time":113149.99499999995,"duration":234.26499999999942,"noteNumber":43,"velocity":79,"programNumber":42},{"time":113384.25999999995,"duration":234.26499999999942,"noteNumber":43,"velocity":79,"programNumber":42},{"time":113618.52499999995,"duration":234.26499999999942,"noteNumber":43,"velocity":79,"programNumber":42},{"time":113852.78999999995,"duration":234.26499999999942,"noteNumber":55,"velocity":79,"programNumber":42},{"time":114087.05499999995,"duration":234.26499999999942,"noteNumber":55,"velocity":79,"programNumber":42},{"time":114321.31999999995,"duration":234.26499999999942,"noteNumber":55,"velocity":79,"programNumber":42},{"time":114555.58499999995,"duration":234.26499999999942,"noteNumber":55,"velocity":79,"programNumber":42},{"time":114789.84999999995,"duration":234.26499999999942,"noteNumber":57,"velocity":79,"programNumber":42},{"time":115024.11499999995,"duration":234.26499999999942,"noteNumber":57,"velocity":79,"programNumber":42},{"time":115258.37999999995,"duration":234.26499999999942,"noteNumber":57,"velocity":79,"programNumber":42},{"time":115492.64499999995,"duration":234.26499999999942,"noteNumber":57,"velocity":79,"programNumber":42},{"time":115726.90999999995,"duration":234.26499999999942,"noteNumber":50,"velocity":79,"programNumber":42},{"time":115961.17499999994,"duration":234.26499999999942,"noteNumber":50,"velocity":79,"programNumber":42},{"time":116195.43999999994,"duration":234.26499999999942,"noteNumber":50,"velocity":79,"programNumber":42},{"time":116429.70499999994,"duration":234.26499999999942,"noteNumber":50,"velocity":79,"programNumber":42},{"time":116663.96999999994,"duration":234.26499999999942,"noteNumber":55,"velocity":79,"programNumber":42},{"time":116898.23499999994,"duration":234.26499999999942,"noteNumber":43,"velocity":79,"programNumber":42},{"time":117132.49999999994,"duration":234.26499999999942,"noteNumber":45,"velocity":79,"programNumber":42},{"time":117366.76499999994,"duration":234.26499999999942,"noteNumber":47,"velocity":79,"programNumber":42},{"time":117601.02999999994,"duration":234.26499999999942,"noteNumber":48,"velocity":79,"programNumber":42},{"time":117835.29499999994,"duration":234.26499999999942,"noteNumber":50,"velocity":79,"programNumber":42},{"time":118069.55999999994,"duration":234.26499999999942,"noteNumber":52,"velocity":79,"programNumber":42},{"time":118303.82499999994,"duration":234.26499999999942,"noteNumber":54,"velocity":79,"programNumber":42},{"time":118538.08999999994,"duration":234.26499999999942,"noteNumber":55,"velocity":79,"programNumber":42},{"time":118772.35499999994,"duration":234.26499999999942,"noteNumber":54,"velocity":79,"programNumber":42},{"time":119006.61999999994,"duration":234.26499999999942,"noteNumber":52,"velocity":79,"programNumber":42},{"time":119240.88499999994,"duration":234.26499999999942,"noteNumber":50,"velocity":79,"programNumber":42},{"time":119475.14999999994,"duration":234.26499999999942,"noteNumber":48,"velocity":79,"programNumber":42},{"time":119709.41499999994,"duration":234.26499999999942,"noteNumber":47,"velocity":79,"programNumber":42},{"time":119943.67999999993,"duration":234.26499999999942,"noteNumber":45,"velocity":79,"programNumber":42},{"time":120177.94499999993,"duration":234.26499999999942,"noteNumber":43,"velocity":79,"programNumber":42},{"time":120412.20999999993,"duration":468.52999999999884,"noteNumber":50,"velocity":79,"programNumber":42},{"time":120880.73999999993,"duration":468.52999999999884,"noteNumber":62,"velocity":79,"programNumber":42},{"time":121349.26999999993,"duration":468.52999999999884,"noteNumber":50,"velocity":79,"programNumber":42},{"time":127908.68999999993,"duration":937.0599999999977,"noteNumber":50,"velocity":79,"programNumber":42},{"time":128845.74999999993,"duration":468.52999999999884,"noteNumber":54,"velocity":79,"programNumber":42},{"time":129314.27999999993,"duration":468.52999999999884,"noteNumber":57,"velocity":79,"programNumber":42},{"time":129782.80999999992,"duration":937.0599999999977,"noteNumber":50,"velocity":79,"programNumber":42},{"time":130719.86999999992,"duration":468.5300000000134,"noteNumber":54,"velocity":79,"programNumber":42},{"time":131188.39999999994,"duration":468.52999999999884,"noteNumber":57,"velocity":79,"programNumber":42},{"time":131656.92999999993,"duration":468.52999999999884,"noteNumber":62,"velocity":79,"programNumber":42},{"time":133531.04999999993,"duration":234.26500000001397,"noteNumber":57,"velocity":79,"programNumber":42},{"time":133765.31499999994,"duration":234.26500000001397,"noteNumber":57,"velocity":79,"programNumber":42},{"time":133999.57999999996,"duration":234.26500000001397,"noteNumber":57,"velocity":79,"programNumber":42},{"time":134233.84499999997,"duration":234.26500000001397,"noteNumber":57,"velocity":79,"programNumber":42},{"time":134468.11,"duration":234.26500000001397,"noteNumber":57,"velocity":79,"programNumber":42},{"time":134702.375,"duration":234.26500000001397,"noteNumber":57,"velocity":79,"programNumber":42},{"time":134936.64,"duration":234.26500000001397,"noteNumber":57,"velocity":79,"programNumber":42},{"time":135170.90500000003,"duration":234.26500000001397,"noteNumber":57,"velocity":79,"programNumber":42},{"time":135405.17000000004,"duration":468.52999999999884,"noteNumber":50,"velocity":79,"programNumber":42},{"time":137279.29000000004,"duration":234.26500000001397,"noteNumber":57,"velocity":79,"programNumber":42},{"time":137513.55500000005,"duration":234.26500000001397,"noteNumber":57,"velocity":79,"programNumber":42},{"time":137747.82000000007,"duration":234.26500000001397,"noteNumber":57,"velocity":79,"programNumber":42},{"time":137982.08500000008,"duration":234.26500000001397,"noteNumber":57,"velocity":79,"programNumber":42},{"time":138216.3500000001,"duration":234.26500000001397,"noteNumber":57,"velocity":79,"programNumber":42},{"time":138450.6150000001,"duration":234.26500000001397,"noteNumber":57,"velocity":79,"programNumber":42},{"time":138684.88000000012,"duration":234.26500000001397,"noteNumber":57,"velocity":79,"programNumber":42},{"time":138919.14500000014,"duration":234.26500000001397,"noteNumber":57,"velocity":79,"programNumber":42},{"time":139153.41000000015,"duration":234.26500000001397,"noteNumber":50,"velocity":79,"programNumber":42},{"time":139387.67500000016,"duration":234.26500000001397,"noteNumber":50,"velocity":79,"programNumber":42},{"time":139621.94000000018,"duration":234.26500000001397,"noteNumber":54,"velocity":79,"programNumber":42},{"time":139856.2050000002,"duration":234.26500000001397,"noteNumber":55,"velocity":79,"programNumber":42},{"time":140090.4700000002,"duration":234.26500000001397,"noteNumber":54,"velocity":79,"programNumber":42},{"time":140324.73500000022,"duration":234.26500000001397,"noteNumber":55,"velocity":79,"programNumber":42},{"time":140559.00000000023,"duration":234.26500000001397,"noteNumber":57,"velocity":79,"programNumber":42},{"time":140793.26500000025,"duration":234.26500000001397,"noteNumber":54,"velocity":79,"programNumber":42},{"time":141027.53000000026,"duration":468.52999999999884,"noteNumber":55,"velocity":79,"programNumber":42},{"time":142901.65000000026,"duration":234.26500000001397,"noteNumber":55,"velocity":79,"programNumber":42},{"time":143135.91500000027,"duration":234.26500000001397,"noteNumber":55,"velocity":79,"programNumber":42},{"time":143370.18000000028,"duration":234.26500000001397,"noteNumber":55,"velocity":79,"programNumber":42},{"time":143604.4450000003,"duration":234.26500000001397,"noteNumber":55,"velocity":79,"programNumber":42},{"time":143838.7100000003,"duration":234.26500000001397,"noteNumber":55,"velocity":79,"programNumber":42},{"time":144072.97500000033,"duration":234.26500000001397,"noteNumber":55,"velocity":79,"programNumber":42},{"time":144307.24000000034,"duration":234.26500000001397,"noteNumber":55,"velocity":79,"programNumber":42},{"time":144541.50500000035,"duration":234.26500000001397,"noteNumber":55,"velocity":79,"programNumber":42},{"time":144775.77000000037,"duration":234.26500000001397,"noteNumber":57,"velocity":79,"programNumber":42},{"time":145010.03500000038,"duration":234.26500000001397,"noteNumber":57,"velocity":79,"programNumber":42},{"time":145244.3000000004,"duration":234.26500000001397,"noteNumber":57,"velocity":79,"programNumber":42},{"time":145478.5650000004,"duration":234.26500000001397,"noteNumber":57,"velocity":79,"programNumber":42},{"time":145712.83000000042,"duration":234.26500000001397,"noteNumber":45,"velocity":79,"programNumber":42},{"time":145947.09500000044,"duration":234.26500000001397,"noteNumber":45,"velocity":79,"programNumber":42},{"time":146181.36000000045,"duration":234.26500000001397,"noteNumber":45,"velocity":79,"programNumber":42},{"time":146415.62500000047,"duration":234.26500000001397,"noteNumber":45,"velocity":79,"programNumber":42},{"time":146649.89000000048,"duration":468.52999999999884,"noteNumber":50,"velocity":79,"programNumber":42},{"time":147118.42000000048,"duration":234.26500000001397,"noteNumber":57,"velocity":79,"programNumber":42},{"time":147352.6850000005,"duration":234.26500000001397,"noteNumber":55,"velocity":79,"programNumber":42},{"time":147586.9500000005,"duration":234.26500000001397,"noteNumber":54,"velocity":79,"programNumber":42},{"time":147821.21500000052,"duration":234.26500000001397,"noteNumber":55,"velocity":79,"programNumber":42},{"time":148055.48000000053,"duration":234.26500000001397,"noteNumber":57,"velocity":79,"programNumber":42},{"time":148289.74500000055,"duration":234.26500000001397,"noteNumber":54,"velocity":79,"programNumber":42},{"time":148524.01000000056,"duration":468.52999999999884,"noteNumber":55,"velocity":79,"programNumber":42},{"time":150398.13000000056,"duration":234.26500000001397,"noteNumber":55,"velocity":79,"programNumber":42},{"time":150632.39500000057,"duration":234.26500000001397,"noteNumber":55,"velocity":79,"programNumber":42},{"time":150866.6600000006,"duration":234.26500000001397,"noteNumber":55,"velocity":79,"programNumber":42},{"time":151100.9250000006,"duration":234.26500000001397,"noteNumber":55,"velocity":79,"programNumber":42},{"time":151335.1900000006,"duration":234.26500000001397,"noteNumber":55,"velocity":79,"programNumber":42},{"time":151569.45500000063,"duration":234.26500000001397,"noteNumber":55,"velocity":79,"programNumber":42},{"time":151803.72000000064,"duration":234.26500000001397,"noteNumber":55,"velocity":79,"programNumber":42},{"time":152037.98500000066,"duration":234.26500000001397,"noteNumber":55,"velocity":79,"programNumber":42},{"time":152272.25000000067,"duration":234.26500000001397,"noteNumber":57,"velocity":79,"programNumber":42},{"time":152506.51500000068,"duration":234.26500000001397,"noteNumber":57,"velocity":79,"programNumber":42},{"time":152740.7800000007,"duration":234.26500000001397,"noteNumber":57,"velocity":79,"programNumber":42},{"time":152975.0450000007,"duration":234.26500000001397,"noteNumber":57,"velocity":79,"programNumber":42},{"time":153209.31000000073,"duration":234.26500000001397,"noteNumber":45,"velocity":79,"programNumber":42},{"time":153443.57500000074,"duration":234.26500000001397,"noteNumber":45,"velocity":79,"programNumber":42},{"time":153677.84000000075,"duration":234.26500000001397,"noteNumber":45,"velocity":79,"programNumber":42},{"time":153912.10500000077,"duration":234.26500000001397,"noteNumber":45,"velocity":79,"programNumber":42},{"time":154146.37000000078,"duration":1874.1199999999953,"noteNumber":50,"velocity":79,"programNumber":42},{"time":156020.49000000078,"duration":1874.1199999999953,"noteNumber":50,"velocity":79,"programNumber":42},{"time":157894.61000000077,"duration":468.52999999999884,"noteNumber":50,"velocity":79,"programNumber":42},{"time":158363.14000000077,"duration":468.52999999999884,"noteNumber":50,"velocity":79,"programNumber":42},{"time":158831.67000000077,"duration":468.52999999999884,"noteNumber":50,"velocity":79,"programNumber":42},{"time":159768.73000000077,"duration":468.52999999999884,"noteNumber":55,"velocity":79,"programNumber":42},{"time":163516.97000000076,"duration":937.0599999999977,"noteNumber":55,"velocity":79,"programNumber":42},{"time":164454.03000000076,"duration":937.0599999999977,"noteNumber":50,"velocity":79,"programNumber":42},{"time":165391.09000000075,"duration":234.26500000001397,"noteNumber":48,"velocity":79,"programNumber":42},{"time":165625.35500000077,"duration":234.26500000001397,"noteNumber":47,"velocity":79,"programNumber":42},{"time":165859.62000000078,"duration":234.26500000001397,"noteNumber":45,"velocity":79,"programNumber":42},{"time":166093.8850000008,"duration":234.26500000001397,"noteNumber":43,"velocity":79,"programNumber":42},{"time":166328.1500000008,"duration":468.52999999999884,"noteNumber":50,"velocity":79,"programNumber":42},{"time":167265.2100000008,"duration":468.52999999999884,"noteNumber":55,"velocity":79,"programNumber":42},{"time":171013.4500000008,"duration":937.0599999999977,"noteNumber":55,"velocity":79,"programNumber":42},{"time":171950.5100000008,"duration":937.0599999999977,"noteNumber":50,"velocity":79,"programNumber":42},{"time":172887.5700000008,"duration":234.26500000001397,"noteNumber":48,"velocity":79,"programNumber":42},{"time":173121.8350000008,"duration":234.26500000001397,"noteNumber":47,"velocity":79,"programNumber":42},{"time":173356.10000000082,"duration":234.26500000001397,"noteNumber":45,"velocity":79,"programNumber":42},{"time":173590.36500000083,"duration":234.26500000001397,"noteNumber":43,"velocity":79,"programNumber":42},{"time":173824.63000000085,"duration":468.52999999999884,"noteNumber":50,"velocity":79,"programNumber":42},{"time":174761.69000000085,"duration":234.26500000001397,"noteNumber":55,"velocity":79,"programNumber":42},{"time":174995.95500000086,"duration":234.26500000001397,"noteNumber":55,"velocity":79,"programNumber":42},{"time":175230.22000000087,"duration":234.26500000001397,"noteNumber":55,"velocity":79,"programNumber":42},{"time":175464.4850000009,"duration":234.26500000001397,"noteNumber":55,"velocity":79,"programNumber":42},{"time":175698.7500000009,"duration":234.26500000001397,"noteNumber":55,"velocity":79,"programNumber":42},{"time":175933.01500000092,"duration":234.26500000001397,"noteNumber":55,"velocity":79,"programNumber":42},{"time":176167.28000000093,"duration":234.26500000001397,"noteNumber":55,"velocity":79,"programNumber":42},{"time":176401.54500000094,"duration":234.26500000001397,"noteNumber":55,"velocity":79,"programNumber":42},{"time":176635.81000000096,"duration":234.26500000001397,"noteNumber":57,"velocity":79,"programNumber":42},{"time":176870.07500000097,"duration":234.26500000001397,"noteNumber":57,"velocity":79,"programNumber":42},{"time":177104.340000001,"duration":234.26500000001397,"noteNumber":57,"velocity":79,"programNumber":42},{"time":177338.605000001,"duration":234.26500000001397,"noteNumber":57,"velocity":79,"programNumber":42},{"time":177572.870000001,"duration":234.26500000001397,"noteNumber":50,"velocity":79,"programNumber":42},{"time":177807.13500000103,"duration":234.26500000001397,"noteNumber":50,"velocity":79,"programNumber":42},{"time":178041.40000000104,"duration":234.26500000001397,"noteNumber":50,"velocity":79,"programNumber":42},{"time":178275.66500000106,"duration":234.26500000001397,"noteNumber":50,"velocity":79,"programNumber":42},{"time":178509.93000000107,"duration":234.26500000001397,"noteNumber":43,"velocity":79,"programNumber":42},{"time":178744.19500000108,"duration":234.26500000001397,"noteNumber":43,"velocity":79,"programNumber":42},{"time":178978.4600000011,"duration":234.26500000001397,"noteNumber":43,"velocity":79,"programNumber":42},{"time":179212.7250000011,"duration":234.26500000001397,"noteNumber":43,"velocity":79,"programNumber":42},{"time":179446.99000000113,"duration":234.26500000001397,"noteNumber":55,"velocity":79,"programNumber":42},{"time":179681.25500000114,"duration":234.26500000001397,"noteNumber":55,"velocity":79,"programNumber":42},{"time":179915.52000000115,"duration":234.26500000001397,"noteNumber":55,"velocity":79,"programNumber":42},{"time":180149.78500000117,"duration":234.26500000001397,"noteNumber":55,"velocity":79,"programNumber":42},{"time":180384.05000000118,"duration":234.26500000001397,"noteNumber":57,"velocity":79,"programNumber":42},{"time":180618.3150000012,"duration":234.26500000001397,"noteNumber":57,"velocity":79,"programNumber":42},{"time":180852.5800000012,"duration":234.26500000001397,"noteNumber":57,"velocity":79,"programNumber":42},{"time":181086.84500000122,"duration":234.26500000001397,"noteNumber":57,"velocity":79,"programNumber":42},{"time":181321.11000000124,"duration":234.26500000001397,"noteNumber":50,"velocity":79,"programNumber":42},{"time":181555.37500000125,"duration":234.26500000001397,"noteNumber":50,"velocity":79,"programNumber":42},{"time":181789.64000000127,"duration":234.26500000001397,"noteNumber":50,"velocity":79,"programNumber":42},{"time":182023.90500000128,"duration":234.26500000001397,"noteNumber":50,"velocity":79,"programNumber":42},{"time":182258.1700000013,"duration":234.26500000001397,"noteNumber":55,"velocity":79,"programNumber":42},{"time":182492.4350000013,"duration":234.26500000001397,"noteNumber":43,"velocity":79,"programNumber":42},{"time":182726.70000000132,"duration":234.26500000001397,"noteNumber":45,"velocity":79,"programNumber":42},{"time":182960.96500000134,"duration":234.26500000001397,"noteNumber":47,"velocity":79,"programNumber":42},{"time":183195.23000000135,"duration":234.26500000001397,"noteNumber":48,"velocity":79,"programNumber":42},{"time":183429.49500000136,"duration":234.26500000001397,"noteNumber":50,"velocity":79,"programNumber":42},{"time":183663.76000000138,"duration":234.26500000001397,"noteNumber":52,"velocity":79,"programNumber":42},{"time":183898.0250000014,"duration":234.26500000001397,"noteNumber":54,"velocity":79,"programNumber":42},{"time":184132.2900000014,"duration":234.26500000001397,"noteNumber":55,"velocity":79,"programNumber":42},{"time":184366.55500000142,"duration":234.26500000001397,"noteNumber":54,"velocity":79,"programNumber":42},{"time":184600.82000000143,"duration":234.26500000001397,"noteNumber":52,"velocity":79,"programNumber":42},{"time":184835.08500000145,"duration":234.26500000001397,"noteNumber":50,"velocity":79,"programNumber":42},{"time":185069.35000000146,"duration":234.26500000001397,"noteNumber":48,"velocity":79,"programNumber":42},{"time":185303.61500000147,"duration":234.26500000001397,"noteNumber":47,"velocity":79,"programNumber":42},{"time":185537.8800000015,"duration":234.26500000001397,"noteNumber":45,"velocity":79,"programNumber":42},{"time":185772.1450000015,"duration":234.26500000001397,"noteNumber":43,"velocity":79,"programNumber":42},{"time":186006.41000000152,"duration":468.52999999999884,"noteNumber":50,"velocity":79,"programNumber":42},{"time":186474.94000000152,"duration":468.52999999999884,"noteNumber":62,"velocity":79,"programNumber":42},{"time":186943.47000000151,"duration":468.52999999999884,"noteNumber":50,"velocity":79,"programNumber":42},{"time":193502.89000000153,"duration":937.0599999999977,"noteNumber":50,"velocity":79,"programNumber":42},{"time":194439.95000000153,"duration":468.52999999999884,"noteNumber":54,"velocity":79,"programNumber":42},{"time":194908.48000000152,"duration":468.52999999999884,"noteNumber":57,"velocity":79,"programNumber":42},{"time":195377.01000000152,"duration":937.0599999999977,"noteNumber":50,"velocity":79,"programNumber":42},{"time":196314.07000000152,"duration":468.52999999999884,"noteNumber":54,"velocity":79,"programNumber":42},{"time":196782.60000000152,"duration":468.52999999999884,"noteNumber":57,"velocity":79,"programNumber":42},{"time":197251.13000000152,"duration":468.52999999999884,"noteNumber":62,"velocity":79,"programNumber":42},{"time":199125.2500000015,"duration":234.26500000001397,"noteNumber":57,"velocity":79,"programNumber":42},{"time":199359.51500000153,"duration":234.26500000001397,"noteNumber":57,"velocity":79,"programNumber":42},{"time":199593.78000000154,"duration":234.26500000001397,"noteNumber":57,"velocity":79,"programNumber":42},{"time":199828.04500000156,"duration":234.26500000001397,"noteNumber":57,"velocity":79,"programNumber":42},{"time":200062.31000000157,"duration":234.26500000001397,"noteNumber":57,"velocity":79,"programNumber":42},{"time":200296.57500000158,"duration":234.26500000001397,"noteNumber":57,"velocity":79,"programNumber":42},{"time":200530.8400000016,"duration":234.26500000001397,"noteNumber":57,"velocity":79,"programNumber":42},{"time":200765.1050000016,"duration":234.26500000001397,"noteNumber":57,"velocity":79,"programNumber":42},{"time":200999.37000000163,"duration":468.52999999999884,"noteNumber":50,"velocity":79,"programNumber":42},{"time":202873.49000000162,"duration":234.26500000001397,"noteNumber":57,"velocity":79,"programNumber":42},{"time":203107.75500000163,"duration":234.26500000001397,"noteNumber":57,"velocity":79,"programNumber":42},{"time":203342.02000000165,"duration":234.26500000001397,"noteNumber":57,"velocity":79,"programNumber":42},{"time":203576.28500000166,"duration":234.26500000001397,"noteNumber":57,"velocity":79,"programNumber":42},{"time":203810.55000000168,"duration":234.26500000001397,"noteNumber":57,"velocity":79,"programNumber":42},{"time":204044.8150000017,"duration":234.26500000001397,"noteNumber":57,"velocity":79,"programNumber":42},{"time":204279.0800000017,"duration":234.26500000001397,"noteNumber":57,"velocity":79,"programNumber":42},{"time":204513.34500000172,"duration":234.26500000001397,"noteNumber":57,"velocity":79,"programNumber":42},{"time":204747.61000000173,"duration":234.26500000001397,"noteNumber":50,"velocity":79,"programNumber":42},{"time":204981.87500000175,"duration":234.26500000001397,"noteNumber":50,"velocity":79,"programNumber":42},{"time":205216.14000000176,"duration":234.26500000001397,"noteNumber":54,"velocity":79,"programNumber":42},{"time":205450.40500000177,"duration":234.26500000001397,"noteNumber":55,"velocity":79,"programNumber":42},{"time":205684.6700000018,"duration":234.26500000001397,"noteNumber":54,"velocity":79,"programNumber":42},{"time":205918.9350000018,"duration":234.26500000001397,"noteNumber":55,"velocity":79,"programNumber":42},{"time":206153.20000000182,"duration":234.26500000001397,"noteNumber":57,"velocity":79,"programNumber":42},{"time":206387.46500000183,"duration":234.26500000001397,"noteNumber":54,"velocity":79,"programNumber":42},{"time":206621.73000000184,"duration":468.52999999999884,"noteNumber":55,"velocity":79,"programNumber":42},{"time":208495.85000000184,"duration":234.26500000001397,"noteNumber":55,"velocity":79,"programNumber":42},{"time":208730.11500000185,"duration":234.26500000001397,"noteNumber":55,"velocity":79,"programNumber":42},{"time":208964.38000000187,"duration":234.26500000001397,"noteNumber":55,"velocity":79,"programNumber":42},{"time":209198.64500000188,"duration":234.26500000001397,"noteNumber":55,"velocity":79,"programNumber":42},{"time":209432.9100000019,"duration":234.26500000001397,"noteNumber":55,"velocity":79,"programNumber":42},{"time":209667.1750000019,"duration":234.26500000001397,"noteNumber":55,"velocity":79,"programNumber":42},{"time":209901.44000000192,"duration":234.26500000001397,"noteNumber":55,"velocity":79,"programNumber":42},{"time":210135.70500000194,"duration":234.26500000001397,"noteNumber":55,"velocity":79,"programNumber":42},{"time":210369.97000000195,"duration":234.26500000001397,"noteNumber":57,"velocity":79,"programNumber":42},{"time":210604.23500000197,"duration":234.26500000001397,"noteNumber":57,"velocity":79,"programNumber":42},{"time":210838.50000000198,"duration":234.26500000001397,"noteNumber":57,"velocity":79,"programNumber":42},{"time":211072.765000002,"duration":234.26500000001397,"noteNumber":57,"velocity":79,"programNumber":42},{"time":211307.030000002,"duration":234.26500000001397,"noteNumber":45,"velocity":79,"programNumber":42},{"time":211541.29500000202,"duration":234.26500000001397,"noteNumber":45,"velocity":79,"programNumber":42},{"time":211775.56000000203,"duration":234.26500000001397,"noteNumber":45,"velocity":79,"programNumber":42},{"time":212009.82500000205,"duration":234.26500000001397,"noteNumber":45,"velocity":79,"programNumber":42},{"time":212244.09000000206,"duration":468.52999999999884,"noteNumber":50,"velocity":79,"programNumber":42},{"time":212712.62000000206,"duration":234.26500000001397,"noteNumber":57,"velocity":79,"programNumber":42},{"time":212946.88500000208,"duration":234.26500000001397,"noteNumber":55,"velocity":79,"programNumber":42},{"time":213181.1500000021,"duration":234.26500000001397,"noteNumber":54,"velocity":79,"programNumber":42},{"time":213415.4150000021,"duration":234.26500000001397,"noteNumber":55,"velocity":79,"programNumber":42},{"time":213649.68000000212,"duration":234.26500000001397,"noteNumber":57,"velocity":79,"programNumber":42},{"time":213883.94500000213,"duration":234.26500000001397,"noteNumber":54,"velocity":79,"programNumber":42},{"time":214118.21000000215,"duration":468.52999999999884,"noteNumber":55,"velocity":79,"programNumber":42},{"time":215992.33000000214,"duration":234.26500000001397,"noteNumber":55,"velocity":79,"programNumber":42},{"time":216226.59500000215,"duration":234.26500000001397,"noteNumber":55,"velocity":79,"programNumber":42},{"time":216460.86000000217,"duration":234.26500000001397,"noteNumber":55,"velocity":79,"programNumber":42},{"time":216695.12500000218,"duration":234.26500000001397,"noteNumber":55,"velocity":79,"programNumber":42},{"time":216929.3900000022,"duration":234.26500000001397,"noteNumber":55,"velocity":79,"programNumber":42},{"time":217163.6550000022,"duration":234.26500000001397,"noteNumber":55,"velocity":79,"programNumber":42},{"time":217397.92000000222,"duration":234.26500000001397,"noteNumber":55,"velocity":79,"programNumber":42},{"time":217632.18500000224,"duration":234.26500000001397,"noteNumber":55,"velocity":79,"programNumber":42},{"time":217866.45000000225,"duration":234.26500000001397,"noteNumber":57,"velocity":79,"programNumber":42},{"time":218100.71500000227,"duration":234.26500000001397,"noteNumber":57,"velocity":79,"programNumber":42},{"time":218334.98000000228,"duration":234.26500000001397,"noteNumber":57,"velocity":79,"programNumber":42},{"time":218569.2450000023,"duration":234.26500000001397,"noteNumber":57,"velocity":79,"programNumber":42},{"time":218803.5100000023,"duration":234.26500000001397,"noteNumber":45,"velocity":79,"programNumber":42},{"time":219037.77500000232,"duration":234.26500000001397,"noteNumber":45,"velocity":79,"programNumber":42},{"time":219272.04000000234,"duration":234.26500000001397,"noteNumber":45,"velocity":79,"programNumber":42},{"time":219506.30500000235,"duration":234.26500000001397,"noteNumber":45,"velocity":79,"programNumber":42},{"time":219740.57000000236,"duration":1874.1199999999953,"noteNumber":50,"velocity":79,"programNumber":42},{"time":221614.69000000236,"duration":1874.1199999999953,"noteNumber":50,"velocity":79,"programNumber":42},{"time":223488.81000000236,"duration":468.52999999999884,"noteNumber":50,"velocity":79,"programNumber":42},{"time":223957.34000000235,"duration":468.52999999999884,"noteNumber":50,"velocity":79,"programNumber":42},{"time":224425.87000000235,"duration":468.52999999999884,"noteNumber":50,"velocity":79,"programNumber":42},{"time":238481.77000000235,"duration":1874.1199999999953,"noteNumber":43,"velocity":79,"programNumber":42},{"time":240355.89000000234,"duration":1874.1199999999953,"noteNumber":45,"velocity":79,"programNumber":42},{"time":242230.01000000234,"duration":1874.1199999999953,"noteNumber":47,"velocity":79,"programNumber":42},{"time":244104.13000000233,"duration":1874.1199999999953,"noteNumber":48,"velocity":79,"programNumber":42},{"time":245978.25000000233,"duration":468.52999999999884,"noteNumber":50,"velocity":79,"programNumber":42},{"time":246446.78000000233,"duration":468.52999999999884,"noteNumber":54,"velocity":79,"programNumber":42},{"time":246915.31000000233,"duration":468.52999999999884,"noteNumber":55,"velocity":79,"programNumber":42},{"time":247383.84000000232,"duration":468.52999999999884,"noteNumber":59,"velocity":79,"programNumber":42},{"time":247852.37000000232,"duration":468.52999999999884,"noteNumber":50,"velocity":79,"programNumber":42},{"time":248320.90000000232,"duration":468.52999999999884,"noteNumber":54,"velocity":79,"programNumber":42},{"time":248789.43000000232,"duration":468.52999999999884,"noteNumber":55,"velocity":79,"programNumber":42},{"time":249257.96000000232,"duration":468.52999999999884,"noteNumber":59,"velocity":79,"programNumber":42},{"time":249726.49000000232,"duration":468.52999999999884,"noteNumber":50,"velocity":79,"programNumber":42},{"time":250195.02000000232,"duration":468.52999999999884,"noteNumber":62,"velocity":79,"programNumber":42},{"time":250663.55000000232,"duration":234.26500000001397,"noteNumber":50,"velocity":79,"programNumber":42},{"time":250897.81500000233,"duration":234.26500000001397,"noteNumber":60,"velocity":79,"programNumber":42},{"time":251132.08000000234,"duration":234.26500000001397,"noteNumber":59,"velocity":79,"programNumber":42},{"time":251366.34500000236,"duration":234.26500000001397,"noteNumber":57,"velocity":79,"programNumber":42},{"time":251600.61000000237,"duration":468.52999999999884,"noteNumber":55,"velocity":79,"programNumber":42},{"time":255348.85000000236,"duration":937.0599999999977,"noteNumber":55,"velocity":79,"programNumber":42},{"time":256285.91000000236,"duration":937.0599999999977,"noteNumber":50,"velocity":79,"programNumber":42},{"time":257222.97000000236,"duration":234.26500000001397,"noteNumber":48,"velocity":79,"programNumber":42},{"time":257457.23500000237,"duration":234.26500000001397,"noteNumber":47,"velocity":79,"programNumber":42},{"time":257691.5000000024,"duration":234.26500000001397,"noteNumber":45,"velocity":79,"programNumber":42},{"time":257925.7650000024,"duration":234.26500000001397,"noteNumber":43,"velocity":79,"programNumber":42},{"time":258160.0300000024,"duration":468.52999999999884,"noteNumber":50,"velocity":79,"programNumber":42},{"time":259097.0900000024,"duration":468.52999999999884,"noteNumber":55,"velocity":79,"programNumber":42},{"time":262845.3300000024,"duration":937.0599999999977,"noteNumber":55,"velocity":79,"programNumber":42},{"time":263782.3900000024,"duration":937.0599999999977,"noteNumber":50,"velocity":79,"programNumber":42},{"time":264719.4500000024,"duration":58.56624999997439,"noteNumber":48,"velocity":79,"programNumber":42},{"time":264778.0162500024,"duration":58.56624999997439,"noteNumber":47,"velocity":79,"programNumber":42},{"time":264836.58250000235,"duration":351.39750000002095,"noteNumber":47,"velocity":79,"programNumber":42},{"time":265187.98000000237,"duration":234.26500000001397,"noteNumber":45,"velocity":79,"programNumber":42},{"time":265422.2450000024,"duration":234.26500000001397,"noteNumber":43,"velocity":79,"programNumber":42},{"time":265656.5100000024,"duration":468.53000000002794,"noteNumber":50,"velocity":79,"programNumber":42},{"time":266593.57000000245,"duration":234.26500000001397,"noteNumber":55,"velocity":79,"programNumber":42},{"time":266827.83500000247,"duration":234.26500000001397,"noteNumber":55,"velocity":79,"programNumber":42},{"time":267062.1000000025,"duration":234.26500000001397,"noteNumber":55,"velocity":79,"programNumber":42},{"time":267296.3650000025,"duration":234.26500000001397,"noteNumber":55,"velocity":79,"programNumber":42},{"time":267530.6300000025,"duration":234.26500000001397,"noteNumber":55,"velocity":79,"programNumber":42},{"time":267764.8950000025,"duration":234.26500000001397,"noteNumber":55,"velocity":79,"programNumber":42},{"time":267999.16000000254,"duration":234.26500000001397,"noteNumber":55,"velocity":79,"programNumber":42},{"time":268233.42500000255,"duration":234.26500000001397,"noteNumber":55,"velocity":79,"programNumber":42},{"time":268467.69000000256,"duration":234.26500000001397,"noteNumber":57,"velocity":79,"programNumber":42},{"time":268701.9550000026,"duration":234.26500000001397,"noteNumber":57,"velocity":79,"programNumber":42},{"time":268936.2200000026,"duration":234.26500000001397,"noteNumber":57,"velocity":79,"programNumber":42},{"time":269170.4850000026,"duration":234.26500000001397,"noteNumber":57,"velocity":79,"programNumber":42},{"time":269404.7500000026,"duration":234.26500000001397,"noteNumber":50,"velocity":79,"programNumber":42},{"time":269639.01500000263,"duration":234.26500000001397,"noteNumber":50,"velocity":79,"programNumber":42},{"time":269873.28000000265,"duration":234.26500000001397,"noteNumber":50,"velocity":79,"programNumber":42},{"time":270107.54500000266,"duration":234.26500000001397,"noteNumber":50,"velocity":79,"programNumber":42},{"time":270341.8100000027,"duration":234.26500000001397,"noteNumber":43,"velocity":79,"programNumber":42},{"time":270576.0750000027,"duration":234.26500000001397,"noteNumber":43,"velocity":79,"programNumber":42},{"time":270810.3400000027,"duration":234.26500000001397,"noteNumber":43,"velocity":79,"programNumber":42},{"time":271044.6050000027,"duration":234.26500000001397,"noteNumber":43,"velocity":79,"programNumber":42},{"time":271278.87000000273,"duration":234.26500000001397,"noteNumber":55,"velocity":79,"programNumber":42},{"time":271513.13500000275,"duration":234.26500000001397,"noteNumber":55,"velocity":79,"programNumber":42},{"time":271747.40000000276,"duration":234.26500000001397,"noteNumber":55,"velocity":79,"programNumber":42},{"time":271981.6650000028,"duration":234.26500000001397,"noteNumber":55,"velocity":79,"programNumber":42},{"time":272215.9300000028,"duration":234.26500000001397,"noteNumber":57,"velocity":79,"programNumber":42},{"time":272450.1950000028,"duration":234.26500000001397,"noteNumber":57,"velocity":79,"programNumber":42},{"time":272684.4600000028,"duration":234.26500000001397,"noteNumber":57,"velocity":79,"programNumber":42},{"time":272918.7250000028,"duration":234.26500000001397,"noteNumber":57,"velocity":79,"programNumber":42},{"time":273152.99000000284,"duration":234.26500000001397,"noteNumber":50,"velocity":79,"programNumber":42},{"time":273387.25500000286,"duration":234.26500000001397,"noteNumber":50,"velocity":79,"programNumber":42},{"time":273621.52000000287,"duration":234.26500000001397,"noteNumber":50,"velocity":79,"programNumber":42},{"time":273855.7850000029,"duration":234.26500000001397,"noteNumber":50,"velocity":79,"programNumber":42},{"time":274090.0500000029,"duration":234.26500000001397,"noteNumber":55,"velocity":79,"programNumber":42},{"time":274324.3150000029,"duration":234.26500000001397,"noteNumber":43,"velocity":79,"programNumber":42},{"time":274558.5800000029,"duration":234.26500000001397,"noteNumber":45,"velocity":79,"programNumber":42},{"time":274792.84500000294,"duration":234.26500000001397,"noteNumber":47,"velocity":79,"programNumber":42},{"time":275027.11000000295,"duration":234.26500000001397,"noteNumber":48,"velocity":79,"programNumber":42},{"time":275261.37500000297,"duration":234.26500000001397,"noteNumber":50,"velocity":79,"programNumber":42},{"time":275495.640000003,"duration":234.26500000001397,"noteNumber":52,"velocity":79,"programNumber":42},{"time":275729.905000003,"duration":234.26500000001397,"noteNumber":54,"velocity":79,"programNumber":42},{"time":275964.170000003,"duration":234.26500000001397,"noteNumber":55,"velocity":79,"programNumber":42},{"time":276198.435000003,"duration":234.26500000001397,"noteNumber":54,"velocity":79,"programNumber":42},{"time":276432.70000000304,"duration":234.26500000001397,"noteNumber":52,"velocity":79,"programNumber":42},{"time":276666.96500000305,"duration":234.26500000001397,"noteNumber":50,"velocity":79,"programNumber":42},{"time":276901.23000000307,"duration":234.26500000001397,"noteNumber":48,"velocity":79,"programNumber":42},{"time":277135.4950000031,"duration":234.26500000001397,"noteNumber":47,"velocity":79,"programNumber":42},{"time":277369.7600000031,"duration":234.26500000001397,"noteNumber":45,"velocity":79,"programNumber":42},{"time":277604.0250000031,"duration":234.26500000001397,"noteNumber":43,"velocity":79,"programNumber":42},{"time":277838.2900000031,"duration":468.53000000002794,"noteNumber":50,"velocity":79,"programNumber":42},{"time":278306.82000000315,"duration":468.53000000002794,"noteNumber":62,"velocity":79,"programNumber":42},{"time":278775.3500000032,"duration":468.53000000002794,"noteNumber":50,"velocity":79,"programNumber":42},{"time":285334.7700000032,"duration":937.0599999999977,"noteNumber":43,"velocity":79,"programNumber":42},{"time":286271.8300000032,"duration":468.53000000002794,"noteNumber":47,"velocity":79,"programNumber":42},{"time":286740.36000000325,"duration":468.53000000002794,"noteNumber":50,"velocity":79,"programNumber":42},{"time":287208.8900000033,"duration":937.0599999999977,"noteNumber":55,"velocity":79,"programNumber":42},{"time":288145.9500000033,"duration":468.53000000002794,"noteNumber":59,"velocity":79,"programNumber":42},{"time":288614.4800000033,"duration":468.53000000002794,"noteNumber":62,"velocity":79,"programNumber":42},{"time":289083.0100000033,"duration":468.53000000002794,"noteNumber":55,"velocity":79,"programNumber":42},{"time":290957.1300000034,"duration":234.26500000001397,"noteNumber":50,"velocity":79,"programNumber":42},{"time":291191.3950000034,"duration":234.26500000001397,"noteNumber":50,"velocity":79,"programNumber":42},{"time":291425.6600000034,"duration":234.26500000001397,"noteNumber":50,"velocity":79,"programNumber":42},{"time":291659.9250000034,"duration":234.26500000001397,"noteNumber":50,"velocity":79,"programNumber":42},{"time":291894.19000000344,"duration":234.26500000001397,"noteNumber":50,"velocity":79,"programNumber":42},{"time":292128.45500000345,"duration":234.26500000001397,"noteNumber":50,"velocity":79,"programNumber":42},{"time":292362.72000000346,"duration":234.26500000001397,"noteNumber":50,"velocity":79,"programNumber":42},{"time":292596.9850000035,"duration":234.26500000001397,"noteNumber":50,"velocity":79,"programNumber":42},{"time":292831.2500000035,"duration":468.53000000002794,"noteNumber":43,"velocity":79,"programNumber":42},{"time":294705.37000000355,"duration":234.26500000001397,"noteNumber":50,"velocity":79,"programNumber":42},{"time":294939.63500000356,"duration":234.26500000001397,"noteNumber":50,"velocity":79,"programNumber":42},{"time":295173.9000000036,"duration":234.26500000001397,"noteNumber":50,"velocity":79,"programNumber":42},{"time":295408.1650000036,"duration":234.26500000001397,"noteNumber":50,"velocity":79,"programNumber":42},{"time":295642.4300000036,"duration":234.26500000001397,"noteNumber":50,"velocity":79,"programNumber":42},{"time":295876.6950000036,"duration":234.26500000001397,"noteNumber":50,"velocity":79,"programNumber":42},{"time":296110.96000000363,"duration":234.26500000001397,"noteNumber":50,"velocity":79,"programNumber":42},{"time":296345.22500000364,"duration":234.26500000001397,"noteNumber":50,"velocity":79,"programNumber":42},{"time":296579.49000000366,"duration":234.26500000001397,"noteNumber":43,"velocity":79,"programNumber":42},{"time":296813.7550000037,"duration":234.26500000001397,"noteNumber":55,"velocity":79,"programNumber":42},{"time":297048.0200000037,"duration":234.26500000001397,"noteNumber":59,"velocity":79,"programNumber":42},{"time":297282.2850000037,"duration":234.26500000001397,"noteNumber":60,"velocity":79,"programNumber":42},{"time":297516.5500000037,"duration":234.26500000001397,"noteNumber":59,"velocity":79,"programNumber":42},{"time":297750.8150000037,"duration":234.26500000001397,"noteNumber":62,"velocity":79,"programNumber":42},{"time":297985.08000000374,"duration":234.26500000001397,"noteNumber":60,"velocity":79,"programNumber":42},{"time":298219.34500000376,"duration":234.26500000001397,"noteNumber":59,"velocity":79,"programNumber":42},{"time":298453.61000000377,"duration":468.53000000002794,"noteNumber":60,"velocity":79,"programNumber":42},{"time":300327.7300000038,"duration":234.26500000001397,"noteNumber":60,"velocity":79,"programNumber":42},{"time":300561.99500000384,"duration":234.26500000001397,"noteNumber":60,"velocity":79,"programNumber":42},{"time":300796.26000000385,"duration":234.26500000001397,"noteNumber":60,"velocity":79,"programNumber":42},{"time":301030.52500000386,"duration":234.26500000001397,"noteNumber":60,"velocity":79,"programNumber":42},{"time":301264.7900000039,"duration":234.26500000001397,"noteNumber":60,"velocity":79,"programNumber":42},{"time":301499.0550000039,"duration":234.26500000001397,"noteNumber":60,"velocity":79,"programNumber":42},{"time":301733.3200000039,"duration":234.26500000001397,"noteNumber":60,"velocity":79,"programNumber":42},{"time":301967.5850000039,"duration":234.26500000001397,"noteNumber":60,"velocity":79,"programNumber":42},{"time":302201.85000000393,"duration":234.26500000001397,"noteNumber":62,"velocity":79,"programNumber":42},{"time":302436.11500000395,"duration":234.26500000001397,"noteNumber":62,"velocity":79,"programNumber":42},{"time":302670.38000000396,"duration":234.26500000001397,"noteNumber":62,"velocity":79,"programNumber":42},{"time":302904.645000004,"duration":234.26500000001397,"noteNumber":62,"velocity":79,"programNumber":42},{"time":303138.910000004,"duration":234.26500000001397,"noteNumber":50,"velocity":79,"programNumber":42},{"time":303373.175000004,"duration":234.26500000001397,"noteNumber":50,"velocity":79,"programNumber":42},{"time":303607.440000004,"duration":234.26500000001397,"noteNumber":50,"velocity":79,"programNumber":42},{"time":303841.70500000403,"duration":234.26500000001397,"noteNumber":50,"velocity":79,"programNumber":42},{"time":304075.97000000405,"duration":468.53000000002794,"noteNumber":55,"velocity":79,"programNumber":42},{"time":304544.5000000041,"duration":234.26500000001397,"noteNumber":62,"velocity":79,"programNumber":42},{"time":304778.7650000041,"duration":234.26500000001397,"noteNumber":60,"velocity":79,"programNumber":42},{"time":305013.0300000041,"duration":234.26500000001397,"noteNumber":59,"velocity":79,"programNumber":42},{"time":305247.2950000041,"duration":234.26500000001397,"noteNumber":60,"velocity":79,"programNumber":42},{"time":305481.56000000413,"duration":234.26500000001397,"noteNumber":62,"velocity":79,"programNumber":42},{"time":305715.82500000414,"duration":234.26500000001397,"noteNumber":59,"velocity":79,"programNumber":42},{"time":305950.09000000416,"duration":468.53000000002794,"noteNumber":60,"velocity":79,"programNumber":42},{"time":307824.2100000042,"duration":234.26500000001397,"noteNumber":60,"velocity":79,"programNumber":42},{"time":308058.4750000042,"duration":234.26500000001397,"noteNumber":60,"velocity":79,"programNumber":42},{"time":308292.74000000424,"duration":234.26500000001397,"noteNumber":60,"velocity":79,"programNumber":42},{"time":308527.00500000425,"duration":234.26500000001397,"noteNumber":60,"velocity":79,"programNumber":42},{"time":308761.27000000427,"duration":234.26500000001397,"noteNumber":60,"velocity":79,"programNumber":42},{"time":308995.5350000043,"duration":234.26500000001397,"noteNumber":60,"velocity":79,"programNumber":42},{"time":309229.8000000043,"duration":234.26500000001397,"noteNumber":60,"velocity":79,"programNumber":42},{"time":309464.0650000043,"duration":234.26500000001397,"noteNumber":60,"velocity":79,"programNumber":42},{"time":309698.3300000043,"duration":234.26500000001397,"noteNumber":62,"velocity":79,"programNumber":42},{"time":309932.59500000434,"duration":234.26500000001397,"noteNumber":62,"velocity":79,"programNumber":42},{"time":310166.86000000435,"duration":234.26500000001397,"noteNumber":62,"velocity":79,"programNumber":42},{"time":310401.12500000437,"duration":234.26500000001397,"noteNumber":62,"velocity":79,"programNumber":42},{"time":310635.3900000044,"duration":234.26500000001397,"noteNumber":50,"velocity":79,"programNumber":42},{"time":310869.6550000044,"duration":234.26500000001397,"noteNumber":50,"velocity":79,"programNumber":42},{"time":311103.9200000044,"duration":234.26500000001397,"noteNumber":50,"velocity":79,"programNumber":42},{"time":311338.1850000044,"duration":234.26500000001397,"noteNumber":50,"velocity":79,"programNumber":42},{"time":311572.45000000444,"duration":1874.1199999999953,"noteNumber":55,"velocity":79,"programNumber":42},{"time":315320.6900000044,"duration":117.13250000000698,"noteNumber":55,"velocity":79,"programNumber":42},{"time":315812.64650000446,"duration":468.53000000002794,"noteNumber":43,"velocity":79,"programNumber":42},{"time":316281.1765000045,"duration":468.53000000002794,"noteNumber":43,"velocity":79,"programNumber":42},{"time":317194.81000000454,"duration":351.39750000002095,"noteNumber":43,"velocity":79,"programNumber":42},{"time":321411.58000000456,"duration":234.26500000001397,"noteNumber":50,"velocity":79,"programNumber":42},{"time":321880.1100000046,"duration":468.53000000002794,"noteNumber":50,"velocity":79,"programNumber":42},{"time":322348.6400000046,"duration":468.53000000002794,"noteNumber":48,"velocity":79,"programNumber":42},{"time":322817.17000000464,"duration":468.53000000002794,"noteNumber":47,"velocity":79,"programNumber":42},{"time":323285.70000000467,"duration":468.53000000002794,"noteNumber":45,"velocity":79,"programNumber":42},{"time":323754.2300000047,"duration":468.53000000002794,"noteNumber":43,"velocity":79,"programNumber":42},{"time":324222.7600000047,"duration":234.26500000001397,"noteNumber":42,"velocity":79,"programNumber":42},{"time":324691.29000000475,"duration":468.53000000002794,"noteNumber":54,"velocity":79,"programNumber":42},{"time":325159.8200000048,"duration":468.53000000002794,"noteNumber":55,"velocity":79,"programNumber":42},{"time":325628.3500000048,"duration":234.26500000001397,"noteNumber":48,"velocity":79,"programNumber":42},{"time":326096.88000000484,"duration":234.26500000001397,"noteNumber":50,"velocity":79,"programNumber":42},{"time":326565.41000000486,"duration":234.26500000001397,"noteNumber":50,"velocity":79,"programNumber":42},{"time":327033.9400000049,"duration":234.26500000001397,"noteNumber":43,"velocity":79,"programNumber":42},{"time":327502.4700000049,"duration":234.26500000001397,"noteNumber":47,"velocity":79,"programNumber":42},{"time":327971.00000000495,"duration":234.26500000001397,"noteNumber":50,"velocity":79,"programNumber":42},{"time":328439.530000005,"duration":468.53000000002794,"noteNumber":55,"velocity":79,"programNumber":42},{"time":332656.300000005,"duration":234.26500000001397,"noteNumber":50,"velocity":79,"programNumber":42},{"time":333124.830000005,"duration":468.53000000002794,"noteNumber":50,"velocity":79,"programNumber":42},{"time":333593.36000000505,"duration":468.53000000002794,"noteNumber":48,"velocity":79,"programNumber":42},{"time":334061.8900000051,"duration":468.53000000002794,"noteNumber":47,"velocity":79,"programNumber":42},{"time":334530.4200000051,"duration":468.53000000002794,"noteNumber":45,"velocity":79,"programNumber":42},{"time":334998.95000000513,"duration":468.53000000002794,"noteNumber":43,"velocity":79,"programNumber":42},{"time":335467.48000000516,"duration":234.26500000001397,"noteNumber":42,"velocity":79,"programNumber":42},{"time":335936.0100000052,"duration":468.53000000002794,"noteNumber":54,"velocity":79,"programNumber":42},{"time":336404.5400000052,"duration":468.53000000002794,"noteNumber":55,"velocity":79,"programNumber":42},{"time":336873.07000000525,"duration":234.26500000001397,"noteNumber":48,"velocity":79,"programNumber":42},{"time":337341.6000000053,"duration":234.26500000001397,"noteNumber":50,"velocity":79,"programNumber":42},{"time":337810.1300000053,"duration":234.26500000001397,"noteNumber":50,"velocity":79,"programNumber":42},{"time":338278.66000000533,"duration":234.26500000001397,"noteNumber":43,"velocity":79,"programNumber":42},{"time":338747.19000000536,"duration":234.26500000001397,"noteNumber":47,"velocity":79,"programNumber":42},{"time":339215.7200000054,"duration":234.26500000001397,"noteNumber":50,"velocity":79,"programNumber":42},{"time":339684.25000000536,"duration":468.53000000002794,"noteNumber":55,"velocity":79,"programNumber":42},{"time":340152.7800000054,"duration":468.53000000002794,"noteNumber":54,"velocity":79,"programNumber":42},{"time":340621.3100000054,"duration":234.26500000001397,"noteNumber":54,"velocity":79,"programNumber":42},{"time":341089.84000000544,"duration":468.53000000002794,"noteNumber":52,"velocity":79,"programNumber":42},{"time":341558.37000000547,"duration":468.53000000002794,"noteNumber":50,"velocity":79,"programNumber":42},{"time":342026.9000000055,"duration":234.26500000001397,"noteNumber":50,"velocity":79,"programNumber":42},{"time":342495.4300000055,"duration":1405.5899999999674,"noteNumber":43,"velocity":79,"programNumber":42},{"time":343901.0200000055,"duration":234.26500000001397,"noteNumber":45,"velocity":79,"programNumber":42},{"time":344369.5500000055,"duration":468.53000000002794,"noteNumber":57,"velocity":79,"programNumber":42},{"time":344838.08000000555,"duration":468.53000000002794,"noteNumber":55,"velocity":79,"programNumber":42},{"time":345306.6100000056,"duration":468.53000000002794,"noteNumber":54,"velocity":79,"programNumber":42},{"time":345775.1400000056,"duration":468.53000000002794,"noteNumber":52,"velocity":79,"programNumber":42},{"time":346243.67000000563,"duration":468.53000000002794,"noteNumber":50,"velocity":79,"programNumber":42},{"time":346712.20000000566,"duration":468.53000000002794,"noteNumber":59,"velocity":79,"programNumber":42},{"time":347180.7300000057,"duration":468.53000000002794,"noteNumber":57,"velocity":79,"programNumber":42},{"time":347649.2600000057,"duration":468.53000000002794,"noteNumber":55,"velocity":79,"programNumber":42},{"time":348117.79000000574,"duration":234.26500000001397,"noteNumber":54,"velocity":79,"programNumber":42},{"time":348586.32000000577,"duration":234.26500000001397,"noteNumber":55,"velocity":79,"programNumber":42},{"time":349054.8500000058,"duration":234.26500000001397,"noteNumber":57,"velocity":79,"programNumber":42},{"time":349523.3800000058,"duration":234.26500000001397,"noteNumber":50,"velocity":79,"programNumber":42},{"time":360768.10000000586,"duration":234.26500000001397,"noteNumber":50,"velocity":79,"programNumber":42},{"time":361236.6300000059,"duration":468.53000000002794,"noteNumber":50,"velocity":79,"programNumber":42},{"time":361705.1600000059,"duration":468.53000000002794,"noteNumber":48,"velocity":79,"programNumber":42},{"time":362173.69000000594,"duration":468.53000000002794,"noteNumber":47,"velocity":79,"programNumber":42},{"time":362642.22000000597,"duration":468.53000000002794,"noteNumber":45,"velocity":79,"programNumber":42},{"time":363110.750000006,"duration":468.53000000002794,"noteNumber":43,"velocity":79,"programNumber":42},{"time":363579.280000006,"duration":234.26500000001397,"noteNumber":42,"velocity":79,"programNumber":42},{"time":364047.81000000605,"duration":468.53000000002794,"noteNumber":54,"velocity":79,"programNumber":42},{"time":364516.3400000061,"duration":468.53000000002794,"noteNumber":55,"velocity":79,"programNumber":42},{"time":364984.8700000061,"duration":234.26500000001397,"noteNumber":48,"velocity":79,"programNumber":42},{"time":365453.40000000614,"duration":234.26500000001397,"noteNumber":50,"velocity":79,"programNumber":42},{"time":365921.93000000616,"duration":234.26500000001397,"noteNumber":50,"velocity":79,"programNumber":42},{"time":366390.4600000062,"duration":234.26500000001397,"noteNumber":43,"velocity":79,"programNumber":42},{"time":366858.9900000062,"duration":234.26500000001397,"noteNumber":47,"velocity":79,"programNumber":42},{"time":367327.52000000625,"duration":234.26500000001397,"noteNumber":50,"velocity":79,"programNumber":42},{"time":368264.5800000063,"duration":468.53000000002794,"noteNumber":54,"velocity":36,"programNumber":42},{"time":368733.11000000633,"duration":468.52999999996973,"noteNumber":54,"velocity":36,"programNumber":42},{"time":369201.6400000063,"duration":468.53000000002794,"noteNumber":52,"velocity":36,"programNumber":42},{"time":369670.1700000063,"duration":468.53000000002794,"noteNumber":50,"velocity":36,"programNumber":42},{"time":370138.70000000636,"duration":468.52999999996973,"noteNumber":50,"velocity":36,"programNumber":42},{"time":370607.2300000063,"duration":1405.5899999999674,"noteNumber":43,"velocity":36,"programNumber":42},{"time":372012.8200000063,"duration":468.53000000002794,"noteNumber":45,"velocity":36,"programNumber":42},{"time":372481.3500000063,"duration":468.53000000002794,"noteNumber":57,"velocity":36,"programNumber":42},{"time":372949.88000000635,"duration":468.53000000002794,"noteNumber":55,"velocity":36,"programNumber":42},{"time":373418.4100000064,"duration":468.53000000002794,"noteNumber":54,"velocity":36,"programNumber":42},{"time":373886.9400000064,"duration":468.53000000002794,"noteNumber":52,"velocity":36,"programNumber":42},{"time":374355.47000000643,"duration":468.53000000002794,"noteNumber":50,"velocity":36,"programNumber":42},{"time":374824.00000000646,"duration":468.53000000002794,"noteNumber":59,"velocity":36,"programNumber":42},{"time":375292.5300000065,"duration":468.53000000002794,"noteNumber":57,"velocity":36,"programNumber":42},{"time":375761.0600000065,"duration":468.53000000002794,"noteNumber":55,"velocity":36,"programNumber":42},{"time":376229.59000000654,"duration":468.53000000002794,"noteNumber":54,"velocity":36,"programNumber":42},{"time":376698.1200000066,"duration":468.53000000002794,"noteNumber":55,"velocity":36,"programNumber":42},{"time":377166.6500000066,"duration":468.53000000002794,"noteNumber":57,"velocity":36,"programNumber":42},{"time":377635.1800000066,"duration":468.53000000002794,"noteNumber":50,"velocity":36,"programNumber":42},{"time":388879.90000000666,"duration":468.53000000002794,"noteNumber":50,"velocity":79,"programNumber":42},{"time":389348.4300000067,"duration":468.53000000002794,"noteNumber":50,"velocity":79,"programNumber":42},{"time":389816.9600000067,"duration":468.53000000002794,"noteNumber":48,"velocity":79,"programNumber":42},{"time":390285.49000000674,"duration":468.53000000002794,"noteNumber":47,"velocity":79,"programNumber":42},{"time":390754.02000000677,"duration":468.53000000002794,"noteNumber":45,"velocity":79,"programNumber":42},{"time":391222.5500000068,"duration":468.53000000002794,"noteNumber":43,"velocity":79,"programNumber":42},{"time":391691.0800000068,"duration":468.53000000002794,"noteNumber":42,"velocity":79,"programNumber":42},{"time":392159.61000000685,"duration":468.53000000002794,"noteNumber":54,"velocity":79,"programNumber":42},{"time":392628.1400000069,"duration":468.53000000002794,"noteNumber":55,"velocity":79,"programNumber":42},{"time":393096.6700000069,"duration":468.53000000002794,"noteNumber":48,"velocity":79,"programNumber":42},{"time":393565.20000000694,"duration":468.53000000002794,"noteNumber":50,"velocity":79,"programNumber":42},{"time":394033.73000000697,"duration":468.53000000002794,"noteNumber":50,"velocity":79,"programNumber":42},{"time":394502.260000007,"duration":468.53000000002794,"noteNumber":43,"velocity":79,"programNumber":42},{"time":394970.790000007,"duration":468.53000000002794,"noteNumber":47,"velocity":79,"programNumber":42},{"time":395439.32000000705,"duration":468.52999999996973,"noteNumber":50,"velocity":79,"programNumber":42},{"time":395907.850000007,"duration":468.53000000002794,"noteNumber":60,"velocity":36,"programNumber":42},{"time":396376.38000000705,"duration":468.53000000002794,"noteNumber":60,"velocity":36,"programNumber":42},{"time":396844.9100000071,"duration":468.53000000002794,"noteNumber":60,"velocity":36,"programNumber":42},{"time":397313.4400000071,"duration":468.53000000002794,"noteNumber":59,"velocity":36,"programNumber":42},{"time":397781.97000000713,"duration":468.53000000002794,"noteNumber":59,"velocity":36,"programNumber":42},{"time":398250.50000000716,"duration":468.53000000002794,"noteNumber":59,"velocity":36,"programNumber":42},{"time":398719.0300000072,"duration":468.53000000002794,"noteNumber":57,"velocity":36,"programNumber":42},{"time":399187.5600000072,"duration":468.53000000002794,"noteNumber":57,"velocity":36,"programNumber":42},{"time":399656.09000000724,"duration":468.53000000002794,"noteNumber":57,"velocity":36,"programNumber":42},{"time":400124.6200000073,"duration":468.53000000002794,"noteNumber":55,"velocity":36,"programNumber":42},{"time":400593.1500000073,"duration":468.53000000002794,"noteNumber":55,"velocity":36,"programNumber":42},{"time":401061.6800000073,"duration":468.53000000002794,"noteNumber":55,"velocity":36,"programNumber":42},{"time":401530.21000000736,"duration":468.53000000002794,"noteNumber":53,"velocity":36,"programNumber":42},{"time":401998.7400000074,"duration":468.53000000002794,"noteNumber":53,"velocity":36,"programNumber":42},{"time":402467.2700000074,"duration":468.53000000002794,"noteNumber":53,"velocity":36,"programNumber":42},{"time":402935.80000000744,"duration":468.53000000002794,"noteNumber":52,"velocity":36,"programNumber":42},{"time":403404.33000000747,"duration":468.53000000002794,"noteNumber":52,"velocity":36,"programNumber":42},{"time":403872.8600000075,"duration":468.53000000002794,"noteNumber":52,"velocity":36,"programNumber":42},{"time":404341.3900000075,"duration":468.53000000002794,"noteNumber":53,"velocity":36,"programNumber":42},{"time":404809.92000000755,"duration":468.53000000002794,"noteNumber":50,"velocity":36,"programNumber":42},{"time":405278.4500000076,"duration":468.53000000002794,"noteNumber":55,"velocity":36,"programNumber":42},{"time":405746.9800000076,"duration":468.53000000002794,"noteNumber":48,"velocity":36,"programNumber":42},{"time":406215.51000000763,"duration":468.53000000002794,"noteNumber":43,"velocity":36,"programNumber":42},{"time":406684.04000000766,"duration":468.53000000002794,"noteNumber":36,"velocity":36,"programNumber":42},{"time":407152.5700000077,"duration":468.53000000002794,"noteNumber":60,"velocity":36,"programNumber":42},{"time":407621.1000000077,"duration":468.53000000002794,"noteNumber":60,"velocity":36,"programNumber":42},{"time":408089.63000000775,"duration":468.53000000002794,"noteNumber":60,"velocity":36,"programNumber":42},{"time":408558.1600000078,"duration":468.53000000002794,"noteNumber":59,"velocity":36,"programNumber":42},{"time":409026.6900000078,"duration":468.53000000002794,"noteNumber":59,"velocity":36,"programNumber":42},{"time":409495.22000000783,"duration":468.53000000002794,"noteNumber":59,"velocity":36,"programNumber":42},{"time":409963.75000000786,"duration":468.53000000002794,"noteNumber":57,"velocity":36,"programNumber":42},{"time":410432.2800000079,"duration":468.53000000002794,"noteNumber":57,"velocity":36,"programNumber":42},{"time":410900.8100000079,"duration":468.53000000002794,"noteNumber":57,"velocity":36,"programNumber":42},{"time":411369.34000000794,"duration":468.53000000002794,"noteNumber":55,"velocity":36,"programNumber":42},{"time":411837.87000000797,"duration":468.53000000002794,"noteNumber":55,"velocity":36,"programNumber":42},{"time":412306.400000008,"duration":468.53000000002794,"noteNumber":55,"velocity":36,"programNumber":42},{"time":412774.930000008,"duration":468.53000000002794,"noteNumber":53,"velocity":36,"programNumber":42},{"time":413243.46000000805,"duration":468.53000000002794,"noteNumber":53,"velocity":36,"programNumber":42},{"time":413711.9900000081,"duration":468.53000000002794,"noteNumber":53,"velocity":36,"programNumber":42},{"time":414180.5200000081,"duration":468.53000000002794,"noteNumber":52,"velocity":36,"programNumber":42},{"time":414649.05000000814,"duration":468.53000000002794,"noteNumber":52,"velocity":36,"programNumber":42},{"time":415117.58000000817,"duration":468.53000000002794,"noteNumber":52,"velocity":36,"programNumber":42},{"time":415586.1100000082,"duration":468.53000000002794,"noteNumber":53,"velocity":36,"programNumber":42},{"time":416054.6400000082,"duration":468.53000000002794,"noteNumber":50,"velocity":36,"programNumber":42},{"time":416523.17000000825,"duration":468.53000000002794,"noteNumber":55,"velocity":36,"programNumber":42},{"time":416991.7000000083,"duration":468.53000000002794,"noteNumber":48,"velocity":36,"programNumber":42},{"time":417460.2300000083,"duration":468.53000000002794,"noteNumber":43,"velocity":36,"programNumber":42},{"time":417928.76000000833,"duration":468.53000000002794,"noteNumber":36,"velocity":36,"programNumber":42},{"time":424019.6500000084,"duration":468.53000000002794,"noteNumber":43,"velocity":79,"programNumber":42},{"time":425425.24000000843,"duration":468.53000000002794,"noteNumber":43,"velocity":79,"programNumber":42},{"time":425893.77000000846,"duration":468.53000000002794,"noteNumber":55,"velocity":79,"programNumber":42},{"time":426362.3000000085,"duration":468.53000000002794,"noteNumber":48,"velocity":79,"programNumber":42},{"time":426830.8300000085,"duration":468.53000000002794,"noteNumber":55,"velocity":79,"programNumber":42},{"time":427299.36000000854,"duration":468.53000000002794,"noteNumber":48,"velocity":79,"programNumber":42},{"time":427767.89000000857,"duration":468.53000000002794,"noteNumber":50,"velocity":79,"programNumber":42},{"time":428236.4200000086,"duration":468.53000000002794,"noteNumber":43,"velocity":79,"programNumber":42},{"time":428704.9500000086,"duration":468.53000000002794,"noteNumber":43,"velocity":79,"programNumber":42},{"time":429173.48000000865,"duration":58.56624999997439,"noteNumber":60,"velocity":79,"programNumber":42},{"time":429232.0462500086,"duration":58.56624999997439,"noteNumber":59,"velocity":79,"programNumber":42},{"time":429290.6125000086,"duration":58.56624999997439,"noteNumber":60,"velocity":79,"programNumber":42},{"time":429349.1787500086,"duration":58.56624999997439,"noteNumber":59,"velocity":79,"programNumber":42},{"time":429407.74500000855,"duration":58.56624999997439,"noteNumber":60,"velocity":79,"programNumber":42},{"time":429466.3112500085,"duration":58.56624999997439,"noteNumber":59,"velocity":79,"programNumber":42},{"time":429524.8775000085,"duration":39.0441666666884,"noteNumber":59,"velocity":79,"programNumber":42},{"time":429563.9216666752,"duration":39.0441666666884,"noteNumber":57,"velocity":79,"programNumber":42},{"time":429602.9658333419,"duration":39.0441666666884,"noteNumber":59,"velocity":79,"programNumber":42},{"time":429642.01000000857,"duration":468.53000000002794,"noteNumber":60,"velocity":36,"programNumber":42},{"time":430110.5400000086,"duration":468.53000000002794,"noteNumber":60,"velocity":36,"programNumber":42},{"time":430579.0700000086,"duration":468.53000000002794,"noteNumber":60,"velocity":36,"programNumber":42},{"time":431047.60000000865,"duration":468.53000000002794,"noteNumber":59,"velocity":36,"programNumber":42},{"time":431516.1300000087,"duration":468.53000000002794,"noteNumber":59,"velocity":36,"programNumber":42},{"time":431984.6600000087,"duration":468.53000000002794,"noteNumber":59,"velocity":36,"programNumber":42},{"time":432453.19000000873,"duration":468.53000000002794,"noteNumber":57,"velocity":36,"programNumber":42},{"time":432921.72000000876,"duration":468.53000000002794,"noteNumber":57,"velocity":36,"programNumber":42},{"time":433390.2500000088,"duration":468.53000000002794,"noteNumber":57,"velocity":36,"programNumber":42},{"time":433858.7800000088,"duration":468.53000000002794,"noteNumber":55,"velocity":36,"programNumber":42},{"time":434327.31000000885,"duration":468.53000000002794,"noteNumber":55,"velocity":36,"programNumber":42},{"time":434795.8400000089,"duration":468.53000000002794,"noteNumber":55,"velocity":36,"programNumber":42},{"time":435264.3700000089,"duration":468.53000000002794,"noteNumber":53,"velocity":36,"programNumber":42},{"time":435732.9000000089,"duration":468.53000000002794,"noteNumber":53,"velocity":36,"programNumber":42},{"time":436201.43000000896,"duration":468.53000000002794,"noteNumber":53,"velocity":36,"programNumber":42},{"time":436669.960000009,"duration":468.53000000002794,"noteNumber":52,"velocity":36,"programNumber":42},{"time":437138.490000009,"duration":468.53000000002794,"noteNumber":52,"velocity":36,"programNumber":42},{"time":437607.02000000904,"duration":468.53000000002794,"noteNumber":52,"velocity":36,"programNumber":42},{"time":438075.55000000907,"duration":468.53000000002794,"noteNumber":53,"velocity":36,"programNumber":42},{"time":438544.0800000091,"duration":468.53000000002794,"noteNumber":50,"velocity":36,"programNumber":42},{"time":439012.6100000091,"duration":468.53000000002794,"noteNumber":55,"velocity":36,"programNumber":42},{"time":439481.14000000915,"duration":468.53000000002794,"noteNumber":48,"velocity":36,"programNumber":42},{"time":439949.6700000092,"duration":468.53000000002794,"noteNumber":36,"velocity":36,"programNumber":42},{"time":446509.0900000092,"duration":468.53000000002794,"noteNumber":43,"velocity":79,"programNumber":42},{"time":447914.68000000925,"duration":468.53000000002794,"noteNumber":43,"velocity":79,"programNumber":42},{"time":448383.2100000093,"duration":468.53000000002794,"noteNumber":55,"velocity":79,"programNumber":42},{"time":448851.7400000093,"duration":468.53000000002794,"noteNumber":48,"velocity":79,"programNumber":42},{"time":449320.27000000933,"duration":468.53000000002794,"noteNumber":55,"velocity":79,"programNumber":42},{"time":449788.80000000936,"duration":468.53000000002794,"noteNumber":48,"velocity":79,"programNumber":42},{"time":450257.3300000094,"duration":468.53000000002794,"noteNumber":50,"velocity":79,"programNumber":42},{"time":450725.8600000094,"duration":468.53000000002794,"noteNumber":43,"velocity":79,"programNumber":42},{"time":451194.39000000944,"duration":468.53000000002794,"noteNumber":43,"velocity":79,"programNumber":42},{"time":451662.9200000095,"duration":58.56624999997439,"noteNumber":60,"velocity":79,"programNumber":42},{"time":451721.48625000945,"duration":58.56624999997439,"noteNumber":59,"velocity":79,"programNumber":42},{"time":451780.0525000094,"duration":58.56624999997439,"noteNumber":60,"velocity":79,"programNumber":42},{"time":451838.6187500094,"duration":58.56624999997439,"noteNumber":59,"velocity":79,"programNumber":42},{"time":451897.18500000937,"duration":58.56624999997439,"noteNumber":60,"velocity":79,"programNumber":42},{"time":451955.75125000934,"duration":58.56624999997439,"noteNumber":59,"velocity":79,"programNumber":42},{"time":452014.3175000093,"duration":39.0441666666884,"noteNumber":59,"velocity":79,"programNumber":42},{"time":452053.361666676,"duration":39.0441666666884,"noteNumber":57,"velocity":79,"programNumber":42},{"time":452092.4058333427,"duration":39.0441666666884,"noteNumber":59,"velocity":79,"programNumber":42},{"time":452131.4500000094,"duration":468.53000000002794,"noteNumber":60,"velocity":36,"programNumber":42},{"time":452599.9800000094,"duration":468.53000000002794,"noteNumber":60,"velocity":36,"programNumber":42},{"time":453068.51000000944,"duration":468.53000000002794,"noteNumber":60,"velocity":36,"programNumber":42},{"time":453537.04000000947,"duration":468.53000000002794,"noteNumber":59,"velocity":36,"programNumber":42},{"time":454005.5700000095,"duration":468.53000000002794,"noteNumber":59,"velocity":36,"programNumber":42},{"time":454474.1000000095,"duration":468.53000000002794,"noteNumber":59,"velocity":36,"programNumber":42},{"time":454942.63000000955,"duration":468.53000000002794,"noteNumber":57,"velocity":36,"programNumber":42},{"time":455411.1600000096,"duration":468.53000000002794,"noteNumber":57,"velocity":36,"programNumber":42},{"time":455879.6900000096,"duration":468.53000000002794,"noteNumber":57,"velocity":36,"programNumber":42},{"time":456348.22000000963,"duration":468.53000000002794,"noteNumber":55,"velocity":36,"programNumber":42},{"time":456816.75000000966,"duration":468.53000000002794,"noteNumber":55,"velocity":36,"programNumber":42},{"time":457285.2800000097,"duration":468.53000000002794,"noteNumber":55,"velocity":36,"programNumber":42},{"time":457753.8100000097,"duration":468.53000000002794,"noteNumber":53,"velocity":36,"programNumber":42},{"time":458222.34000000975,"duration":468.53000000002794,"noteNumber":53,"velocity":36,"programNumber":42},{"time":458690.8700000098,"duration":468.53000000002794,"noteNumber":53,"velocity":36,"programNumber":42},{"time":459159.4000000098,"duration":468.53000000002794,"noteNumber":52,"velocity":36,"programNumber":42},{"time":459627.93000000983,"duration":468.53000000002794,"noteNumber":52,"velocity":36,"programNumber":42},{"time":460096.46000000986,"duration":468.53000000002794,"noteNumber":52,"velocity":36,"programNumber":42},{"time":460564.9900000099,"duration":468.53000000002794,"noteNumber":53,"velocity":36,"programNumber":42},{"time":461033.5200000099,"duration":468.53000000002794,"noteNumber":50,"velocity":36,"programNumber":42},{"time":461502.05000000994,"duration":468.53000000002794,"noteNumber":55,"velocity":36,"programNumber":42},{"time":461970.58000000997,"duration":468.53000000002794,"noteNumber":48,"velocity":36,"programNumber":42},{"time":462439.11000001,"duration":468.53000000002794,"noteNumber":36,"velocity":36,"programNumber":42},{"time":463376.17000001005,"duration":468.53000000002794,"noteNumber":55,"velocity":36,"programNumber":42},{"time":467592.9400000101,"duration":468.53000000002794,"noteNumber":50,"velocity":36,"programNumber":42},{"time":468061.4700000101,"duration":468.53000000002794,"noteNumber":50,"velocity":36,"programNumber":42},{"time":468530.0000000101,"duration":468.53000000002794,"noteNumber":48,"velocity":36,"programNumber":42},{"time":468998.53000001016,"duration":468.53000000002794,"noteNumber":47,"velocity":36,"programNumber":42},{"time":469467.0600000102,"duration":468.53000000002794,"noteNumber":45,"velocity":36,"programNumber":42},{"time":469935.5900000102,"duration":468.53000000002794,"noteNumber":43,"velocity":36,"programNumber":42},{"time":470404.12000001024,"duration":468.53000000002794,"noteNumber":42,"velocity":36,"programNumber":42},{"time":470872.65000001027,"duration":468.53000000002794,"noteNumber":54,"velocity":36,"programNumber":42},{"time":471341.1800000103,"duration":468.53000000002794,"noteNumber":55,"velocity":36,"programNumber":42},{"time":471809.7100000103,"duration":468.53000000002794,"noteNumber":48,"velocity":36,"programNumber":42},{"time":472278.24000001035,"duration":468.53000000002794,"noteNumber":50,"velocity":36,"programNumber":42},{"time":472746.7700000104,"duration":468.53000000002794,"noteNumber":50,"velocity":36,"programNumber":42},{"time":473215.3000000104,"duration":468.53000000002794,"noteNumber":43,"velocity":36,"programNumber":42},{"time":473683.83000001044,"duration":468.53000000002794,"noteNumber":47,"velocity":36,"programNumber":42},{"time":474152.36000001046,"duration":468.53000000002794,"noteNumber":50,"velocity":36,"programNumber":42},{"time":474620.8900000105,"duration":468.53000000002794,"noteNumber":55,"velocity":36,"programNumber":42},{"time":475089.4200000105,"duration":468.53000000002794,"noteNumber":54,"velocity":36,"programNumber":42},{"time":475557.95000001055,"duration":468.52999999996973,"noteNumber":54,"velocity":36,"programNumber":42},{"time":476026.4800000105,"duration":468.53000000002794,"noteNumber":52,"velocity":36,"programNumber":42},{"time":476495.01000001054,"duration":468.53000000002794,"noteNumber":50,"velocity":36,"programNumber":42},{"time":476963.5400000106,"duration":468.53000000002794,"noteNumber":50,"velocity":36,"programNumber":42},{"time":477432.0700000106,"duration":1405.5899999999674,"noteNumber":43,"velocity":36,"programNumber":42},{"time":478837.66000001057,"duration":468.53000000002794,"noteNumber":45,"velocity":36,"programNumber":42},{"time":479306.1900000106,"duration":468.53000000002794,"noteNumber":57,"velocity":36,"programNumber":42},{"time":479774.7200000106,"duration":468.53000000002794,"noteNumber":55,"velocity":36,"programNumber":42},{"time":480243.25000001065,"duration":468.53000000002794,"noteNumber":54,"velocity":36,"programNumber":42},{"time":480711.7800000107,"duration":468.53000000002794,"noteNumber":52,"velocity":36,"programNumber":42},{"time":481180.3100000107,"duration":468.53000000002794,"noteNumber":50,"velocity":36,"programNumber":42},{"time":481648.84000001074,"duration":468.53000000002794,"noteNumber":59,"velocity":36,"programNumber":42},{"time":482117.37000001076,"duration":468.53000000002794,"noteNumber":57,"velocity":36,"programNumber":42},{"time":482585.9000000108,"duration":468.53000000002794,"noteNumber":55,"velocity":36,"programNumber":42},{"time":483054.4300000108,"duration":468.53000000002794,"noteNumber":54,"velocity":36,"programNumber":42},{"time":483522.96000001085,"duration":468.53000000002794,"noteNumber":55,"velocity":36,"programNumber":42},{"time":483991.4900000109,"duration":468.53000000002794,"noteNumber":57,"velocity":36,"programNumber":42},{"time":484460.0200000109,"duration":468.53000000002794,"noteNumber":50,"velocity":36,"programNumber":42},{"time":495704.74000001093,"duration":468.53000000002794,"noteNumber":50,"velocity":79,"programNumber":42},{"time":496173.27000001096,"duration":468.53000000002794,"noteNumber":50,"velocity":79,"programNumber":42},{"time":496641.800000011,"duration":468.53000000002794,"noteNumber":48,"velocity":79,"programNumber":42},{"time":497110.330000011,"duration":468.53000000002794,"noteNumber":47,"velocity":79,"programNumber":42},{"time":497578.86000001105,"duration":468.53000000002794,"noteNumber":45,"velocity":79,"programNumber":42},{"time":498047.3900000111,"duration":468.53000000002794,"noteNumber":43,"velocity":79,"programNumber":42},{"time":498515.9200000111,"duration":468.53000000002794,"noteNumber":42,"velocity":79,"programNumber":42},{"time":498984.45000001113,"duration":468.53000000002794,"noteNumber":54,"velocity":79,"programNumber":42},{"time":499452.98000001116,"duration":468.53000000002794,"noteNumber":55,"velocity":79,"programNumber":42},{"time":499921.5100000112,"duration":468.53000000002794,"noteNumber":48,"velocity":79,"programNumber":42},{"time":500390.0400000112,"duration":468.53000000002794,"noteNumber":50,"velocity":79,"programNumber":42},{"time":500858.57000001124,"duration":468.53000000002794,"noteNumber":50,"velocity":79,"programNumber":42},{"time":501327.10000001127,"duration":468.53000000002794,"noteNumber":43,"velocity":79,"programNumber":42},{"time":504138.2800000113,"duration":468.53000000002794,"noteNumber":55,"velocity":36,"programNumber":42},{"time":504606.81000001135,"duration":468.53000000002794,"noteNumber":55,"velocity":36,"programNumber":42},{"time":505075.3400000114,"duration":937.0599999999977,"noteNumber":55,"velocity":36,"programNumber":42},{"time":506012.4000000114,"duration":468.53000000002794,"noteNumber":48,"velocity":36,"programNumber":42},{"time":506480.9300000114,"duration":468.53000000002794,"noteNumber":48,"velocity":36,"programNumber":42},{"time":506949.46000001143,"duration":937.0599999999977,"noteNumber":48,"velocity":36,"programNumber":42},{"time":507886.5200000114,"duration":468.53000000002794,"noteNumber":45,"velocity":36,"programNumber":42},{"time":508355.05000001146,"duration":468.53000000002794,"noteNumber":45,"velocity":36,"programNumber":42},{"time":508823.5800000115,"duration":937.0599999999977,"noteNumber":45,"velocity":36,"programNumber":42},{"time":509760.6400000115,"duration":468.53000000002794,"noteNumber":50,"velocity":36,"programNumber":42},{"time":510229.1700000115,"duration":468.53000000002794,"noteNumber":50,"velocity":36,"programNumber":42},{"time":510697.70000001154,"duration":937.0599999999977,"noteNumber":50,"velocity":36,"programNumber":42},{"time":511634.76000001153,"duration":468.53000000002794,"noteNumber":55,"velocity":79,"programNumber":42},{"time":512103.29000001156,"duration":468.53000000002794,"noteNumber":55,"velocity":79,"programNumber":42},{"time":512571.8200000116,"duration":937.0599999999977,"noteNumber":55,"velocity":79,"programNumber":42},{"time":517257.1200000116,"duration":937.0599999999977,"noteNumber":50,"velocity":79,"programNumber":42},{"time":518194.1800000116,"duration":468.53000000002794,"noteNumber":43,"velocity":79,"programNumber":42},{"time":519131.24000001163,"duration":468.53000000002794,"noteNumber":55,"velocity":79,"programNumber":42},{"time":519599.77000001166,"duration":468.53000000002794,"noteNumber":55,"velocity":79,"programNumber":42},{"time":520068.3000000117,"duration":937.0599999999977,"noteNumber":55,"velocity":79,"programNumber":42},{"time":521005.3600000117,"duration":468.53000000002794,"noteNumber":48,"velocity":79,"programNumber":42},{"time":521473.8900000117,"duration":468.53000000002794,"noteNumber":48,"velocity":79,"programNumber":42},{"time":521942.42000001174,"duration":937.0599999999977,"noteNumber":48,"velocity":79,"programNumber":42},{"time":522879.48000001174,"duration":468.53000000002794,"noteNumber":45,"velocity":79,"programNumber":42},{"time":523348.01000001177,"duration":468.53000000002794,"noteNumber":45,"velocity":79,"programNumber":42},{"time":523816.5400000118,"duration":937.0600000000559,"noteNumber":45,"velocity":79,"programNumber":42},{"time":524753.6000000119,"duration":468.53000000002794,"noteNumber":50,"velocity":79,"programNumber":42},{"time":525222.1300000119,"duration":468.53000000002794,"noteNumber":50,"velocity":79,"programNumber":42},{"time":525690.6600000119,"duration":937.0600000000559,"noteNumber":50,"velocity":79,"programNumber":42},{"time":526627.720000012,"duration":468.53000000002794,"noteNumber":55,"velocity":79,"programNumber":42},{"time":527096.250000012,"duration":468.53000000002794,"noteNumber":55,"velocity":79,"programNumber":42},{"time":527564.780000012,"duration":937.0600000000559,"noteNumber":55,"velocity":79,"programNumber":42},{"time":532250.0800000121,"duration":937.0600000000559,"noteNumber":50,"velocity":79,"programNumber":42},{"time":533187.1400000121,"duration":468.53000000002794,"noteNumber":43,"velocity":79,"programNumber":42},{"time":535061.2600000121,"duration":937.0600000000559,"noteNumber":57,"velocity":79,"programNumber":42},{"time":535998.3200000122,"duration":937.0600000000559,"noteNumber":45,"velocity":79,"programNumber":42},{"time":536935.3800000122,"duration":468.53000000002794,"noteNumber":50,"velocity":79,"programNumber":42},{"time":538809.5000000122,"duration":937.0600000000559,"noteNumber":50,"velocity":79,"programNumber":42},{"time":539746.5600000123,"duration":937.0600000000559,"noteNumber":43,"velocity":79,"programNumber":42},{"time":540683.6200000123,"duration":937.0600000000559,"noteNumber":45,"velocity":79,"programNumber":42},{"time":542557.7400000124,"duration":937.0600000000559,"noteNumber":57,"velocity":79,"programNumber":42},{"time":543494.8000000125,"duration":937.0600000000559,"noteNumber":45,"velocity":79,"programNumber":42},{"time":544431.8600000126,"duration":937.0600000000559,"noteNumber":50,"velocity":79,"programNumber":42},{"time":546305.9800000127,"duration":937.0600000000559,"noteNumber":62,"velocity":79,"programNumber":42},{"time":547243.0400000127,"duration":937.0600000000559,"noteNumber":57,"velocity":79,"programNumber":42},{"time":548180.1000000128,"duration":937.0600000000559,"noteNumber":50,"velocity":79,"programNumber":42},{"time":550054.2200000129,"duration":468.53000000002794,"noteNumber":56,"velocity":36,"programNumber":42},{"time":550991.280000013,"duration":468.53000000002794,"noteNumber":52,"velocity":36,"programNumber":42},{"time":551928.340000013,"duration":468.53000000002794,"noteNumber":57,"velocity":36,"programNumber":42},{"time":552865.4000000131,"duration":468.53000000002794,"noteNumber":55,"velocity":36,"programNumber":42},{"time":553802.4600000131,"duration":468.53000000002794,"noteNumber":54,"velocity":36,"programNumber":42},{"time":554739.5200000132,"duration":468.53000000002794,"noteNumber":50,"velocity":36,"programNumber":42},{"time":555676.5800000132,"duration":468.53000000002794,"noteNumber":55,"velocity":36,"programNumber":42},{"time":561298.9400000133,"duration":937.0600000000559,"noteNumber":54,"velocity":79,"programNumber":42},{"time":562236.0000000134,"duration":937.0600000000559,"noteNumber":55,"velocity":79,"programNumber":42},{"time":563173.0600000134,"duration":468.53000000002794,"noteNumber":50,"velocity":79,"programNumber":42},{"time":564110.1200000135,"duration":468.53000000002794,"noteNumber":55,"velocity":79,"programNumber":42},{"time":564578.6500000135,"duration":468.53000000002794,"noteNumber":55,"velocity":79,"programNumber":42},{"time":565047.1800000136,"duration":937.0600000000559,"noteNumber":55,"velocity":79,"programNumber":42},{"time":565984.2400000136,"duration":468.53000000002794,"noteNumber":48,"velocity":79,"programNumber":42},{"time":566452.7700000136,"duration":468.53000000002794,"noteNumber":48,"velocity":79,"programNumber":42},{"time":566921.3000000137,"duration":937.0600000000559,"noteNumber":48,"velocity":79,"programNumber":42},{"time":567858.3600000137,"duration":468.53000000002794,"noteNumber":45,"velocity":79,"programNumber":42},{"time":568326.8900000138,"duration":468.53000000002794,"noteNumber":45,"velocity":79,"programNumber":42},{"time":568795.4200000138,"duration":937.0600000000559,"noteNumber":45,"velocity":79,"programNumber":42},{"time":569732.4800000138,"duration":468.53000000002794,"noteNumber":50,"velocity":79,"programNumber":42},{"time":570201.0100000139,"duration":468.53000000002794,"noteNumber":50,"velocity":79,"programNumber":42},{"time":570669.5400000139,"duration":937.0600000000559,"noteNumber":50,"velocity":79,"programNumber":42},{"time":571606.600000014,"duration":468.53000000002794,"noteNumber":55,"velocity":79,"programNumber":42},{"time":572075.130000014,"duration":468.53000000002794,"noteNumber":55,"velocity":79,"programNumber":42},{"time":572543.660000014,"duration":937.0600000000559,"noteNumber":55,"velocity":79,"programNumber":42},{"time":577228.960000014,"duration":937.0600000000559,"noteNumber":50,"velocity":79,"programNumber":42},{"time":578166.0200000141,"duration":468.53000000002794,"noteNumber":43,"velocity":79,"programNumber":42},{"time":580040.1400000141,"duration":937.0600000000559,"noteNumber":57,"velocity":79,"programNumber":42},{"time":580977.2000000142,"duration":937.0600000000559,"noteNumber":45,"velocity":79,"programNumber":42},{"time":581914.2600000142,"duration":468.53000000002794,"noteNumber":50,"velocity":79,"programNumber":42},{"time":583788.3800000142,"duration":937.0600000000559,"noteNumber":50,"velocity":79,"programNumber":42},{"time":584725.4400000143,"duration":937.0600000000559,"noteNumber":43,"velocity":79,"programNumber":42},{"time":585662.5000000143,"duration":937.0600000000559,"noteNumber":45,"velocity":79,"programNumber":42},{"time":587536.6200000144,"duration":937.0600000000559,"noteNumber":57,"velocity":79,"programNumber":42},{"time":588473.6800000145,"duration":937.0600000000559,"noteNumber":45,"velocity":79,"programNumber":42},{"time":589410.7400000145,"duration":937.0600000000559,"noteNumber":50,"velocity":79,"programNumber":42},{"time":591284.8600000147,"duration":937.0600000000559,"noteNumber":62,"velocity":79,"programNumber":42},{"time":592221.9200000147,"duration":937.0600000000559,"noteNumber":57,"velocity":79,"programNumber":42},{"time":593158.9800000148,"duration":937.0600000000559,"noteNumber":50,"velocity":79,"programNumber":42},{"time":595033.1000000149,"duration":468.53000000002794,"noteNumber":56,"velocity":36,"programNumber":42},{"time":595970.1600000149,"duration":468.53000000002794,"noteNumber":52,"velocity":36,"programNumber":42},{"time":596907.220000015,"duration":468.53000000002794,"noteNumber":57,"velocity":36,"programNumber":42},{"time":597844.280000015,"duration":468.53000000002794,"noteNumber":55,"velocity":36,"programNumber":42},{"time":598781.3400000151,"duration":468.53000000002794,"noteNumber":54,"velocity":36,"programNumber":42},{"time":599718.4000000152,"duration":468.53000000002794,"noteNumber":50,"velocity":36,"programNumber":42},{"time":600655.4600000152,"duration":468.53000000002794,"noteNumber":55,"velocity":36,"programNumber":42},{"time":606277.8200000153,"duration":937.0600000000559,"noteNumber":54,"velocity":79,"programNumber":42},{"time":607214.8800000154,"duration":937.0600000000559,"noteNumber":55,"velocity":79,"programNumber":42},{"time":608151.9400000154,"duration":468.53000000002794,"noteNumber":50,"velocity":79,"programNumber":42},{"time":609089.0000000155,"duration":468.53000000002794,"noteNumber":55,"velocity":79,"programNumber":42},{"time":609557.5300000155,"duration":468.53000000002794,"noteNumber":55,"velocity":79,"programNumber":42},{"time":610026.0600000155,"duration":937.0600000000559,"noteNumber":55,"velocity":79,"programNumber":42},{"time":610963.1200000156,"duration":468.53000000002794,"noteNumber":48,"velocity":79,"programNumber":42},{"time":611431.6500000156,"duration":468.53000000002794,"noteNumber":48,"velocity":79,"programNumber":42},{"time":611900.1800000157,"duration":937.0600000000559,"noteNumber":48,"velocity":79,"programNumber":42},{"time":612837.2400000157,"duration":468.53000000002794,"noteNumber":45,"velocity":79,"programNumber":42},{"time":613305.7700000157,"duration":468.53000000002794,"noteNumber":45,"velocity":79,"programNumber":42},{"time":613774.3000000158,"duration":937.0600000000559,"noteNumber":45,"velocity":79,"programNumber":42},{"time":614711.3600000158,"duration":468.53000000002794,"noteNumber":50,"velocity":79,"programNumber":42},{"time":615179.8900000158,"duration":468.53000000002794,"noteNumber":50,"velocity":79,"programNumber":42},{"time":615648.4200000159,"duration":937.0600000000559,"noteNumber":50,"velocity":79,"programNumber":42},{"time":616585.4800000159,"duration":468.53000000002794,"noteNumber":55,"velocity":79,"programNumber":42},{"time":617054.010000016,"duration":468.53000000002794,"noteNumber":55,"velocity":79,"programNumber":42},{"time":617522.540000016,"duration":937.0600000000559,"noteNumber":55,"velocity":79,"programNumber":42},{"time":622207.840000016,"duration":937.0600000000559,"noteNumber":50,"velocity":79,"programNumber":42},{"time":623144.9000000161,"duration":468.53000000002794,"noteNumber":43,"velocity":79,"programNumber":42},{"time":625956.0800000161,"duration":937.0600000000559,"noteNumber":50,"velocity":36,"programNumber":42},{"time":626893.1400000162,"duration":937.0600000000559,"noteNumber":43,"velocity":36,"programNumber":42},{"time":629704.3200000162,"duration":937.0600000000559,"noteNumber":53,"velocity":36,"programNumber":42},{"time":630641.3800000163,"duration":937.0600000000559,"noteNumber":46,"velocity":36,"programNumber":42},{"time":633452.5600000164,"duration":937.0600000000559,"noteNumber":57,"velocity":36,"programNumber":42},{"time":634389.6200000164,"duration":937.0600000000559,"noteNumber":50,"velocity":36,"programNumber":42},{"time":635326.6800000165,"duration":937.0600000000559,"noteNumber":50,"velocity":36,"programNumber":42},{"time":636263.7400000165,"duration":937.0600000000559,"noteNumber":43,"velocity":36,"programNumber":42},{"time":637200.8000000166,"duration":937.0600000000559,"noteNumber":45,"velocity":36,"programNumber":42},{"time":638137.8600000166,"duration":937.0600000000559,"noteNumber":38,"velocity":36,"programNumber":42},{"time":640949.0400000167,"duration":937.0600000000559,"noteNumber":50,"velocity":36,"programNumber":42},{"time":641886.1000000167,"duration":937.0600000000559,"noteNumber":43,"velocity":36,"programNumber":42},{"time":644697.2800000168,"duration":937.0600000000559,"noteNumber":53,"velocity":36,"programNumber":42},{"time":645634.3400000168,"duration":937.0600000000559,"noteNumber":46,"velocity":36,"programNumber":42},{"time":648445.5200000169,"duration":937.0600000000559,"noteNumber":57,"velocity":36,"programNumber":42},{"time":649382.580000017,"duration":937.0600000000559,"noteNumber":50,"velocity":36,"programNumber":42},{"time":650319.640000017,"duration":937.0600000000559,"noteNumber":50,"velocity":36,"programNumber":42},{"time":651256.7000000171,"duration":937.0600000000559,"noteNumber":43,"velocity":36,"programNumber":42},{"time":652193.7600000171,"duration":937.0600000000559,"noteNumber":45,"velocity":36,"programNumber":42},{"time":653130.8200000172,"duration":937.0600000000559,"noteNumber":38,"velocity":36,"programNumber":42},{"time":654067.8800000172,"duration":468.53000000002794,"noteNumber":62,"velocity":79,"programNumber":42},{"time":654536.4100000173,"duration":234.26500000001397,"noteNumber":62,"velocity":79,"programNumber":42},{"time":654770.6750000173,"duration":234.26500000001397,"noteNumber":62,"velocity":79,"programNumber":42},{"time":655004.9400000173,"duration":468.53000000002794,"noteNumber":65,"velocity":79,"programNumber":42},{"time":655473.4700000173,"duration":468.53000000002794,"noteNumber":59,"velocity":79,"programNumber":42},{"time":655942.0000000173,"duration":468.53000000002794,"noteNumber":59,"velocity":79,"programNumber":42},{"time":656410.5300000174,"duration":234.26500000001397,"noteNumber":59,"velocity":79,"programNumber":42},{"time":656644.7950000174,"duration":234.26500000001397,"noteNumber":59,"velocity":79,"programNumber":42},{"time":656879.0600000174,"duration":468.53000000002794,"noteNumber":62,"velocity":79,"programNumber":42},{"time":657347.5900000174,"duration":468.53000000002794,"noteNumber":60,"velocity":79,"programNumber":42},{"time":657816.1200000175,"duration":468.53000000002794,"noteNumber":60,"velocity":79,"programNumber":42},{"time":658284.6500000175,"duration":234.26500000001397,"noteNumber":60,"velocity":79,"programNumber":42},{"time":658518.9150000175,"duration":234.26500000001397,"noteNumber":60,"velocity":79,"programNumber":42},{"time":658753.1800000175,"duration":468.53000000002794,"noteNumber":63,"velocity":79,"programNumber":42},{"time":659221.7100000175,"duration":468.53000000002794,"noteNumber":57,"velocity":79,"programNumber":42},{"time":659690.2400000176,"duration":468.53000000002794,"noteNumber":57,"velocity":79,"programNumber":42},{"time":660158.7700000176,"duration":234.26500000001397,"noteNumber":57,"velocity":79,"programNumber":42},{"time":660393.0350000176,"duration":234.26500000001397,"noteNumber":57,"velocity":79,"programNumber":42},{"time":660627.3000000176,"duration":468.53000000002794,"noteNumber":60,"velocity":79,"programNumber":42},{"time":661095.8300000177,"duration":468.5299999999115,"noteNumber":58,"velocity":79,"programNumber":42},{"time":661564.3600000176,"duration":937.0599999999395,"noteNumber":51,"velocity":36,"programNumber":42},{"time":662501.4200000175,"duration":937.0600000000559,"noteNumber":48,"velocity":36,"programNumber":42},{"time":663438.4800000176,"duration":937.0600000000559,"noteNumber":50,"velocity":36,"programNumber":42},{"time":664375.5400000176,"duration":937.0600000000559,"noteNumber":43,"velocity":36,"programNumber":42},{"time":665312.6000000177,"duration":937.0600000000559,"noteNumber":55,"velocity":36,"programNumber":42},{"time":666249.6600000177,"duration":937.0600000000559,"noteNumber":51,"velocity":36,"programNumber":42},{"time":667186.7200000178,"duration":937.0600000000559,"noteNumber":53,"velocity":36,"programNumber":42},{"time":668123.7800000178,"duration":937.0600000000559,"noteNumber":46,"velocity":36,"programNumber":42},{"time":672809.0800000179,"duration":468.53000000002794,"noteNumber":54,"velocity":79,"programNumber":42},{"time":673277.6100000179,"duration":234.26500000001397,"noteNumber":54,"velocity":79,"programNumber":42},{"time":673511.8750000179,"duration":234.26500000001397,"noteNumber":54,"velocity":79,"programNumber":42},{"time":673746.140000018,"duration":937.0600000000559,"noteNumber":55,"velocity":79,"programNumber":42},{"time":674683.200000018,"duration":937.0599999999395,"noteNumber":51,"velocity":79,"programNumber":42},{"time":675620.2600000179,"duration":937.0600000000559,"noteNumber":50,"velocity":79,"programNumber":42},{"time":676557.320000018,"duration":937.0600000000559,"noteNumber":38,"velocity":79,"programNumber":42},{"time":677494.380000018,"duration":1874.1199999999953,"noteNumber":43,"velocity":79,"programNumber":42},{"time":679368.500000018,"duration":937.0600000000559,"noteNumber":38,"velocity":79,"programNumber":42},{"time":680305.5600000181,"duration":468.53000000002794,"noteNumber":55,"velocity":79,"programNumber":42},{"time":680774.0900000181,"duration":468.53000000002794,"noteNumber":55,"velocity":79,"programNumber":42},{"time":681242.6200000182,"duration":937.0600000000559,"noteNumber":55,"velocity":79,"programNumber":42},{"time":682179.6800000182,"duration":468.53000000002794,"noteNumber":48,"velocity":79,"programNumber":42},{"time":682648.2100000182,"duration":468.53000000002794,"noteNumber":48,"velocity":79,"programNumber":42},{"time":683116.7400000183,"duration":937.0600000000559,"noteNumber":48,"velocity":79,"programNumber":42},{"time":684053.8000000183,"duration":468.53000000002794,"noteNumber":45,"velocity":79,"programNumber":42},{"time":684522.3300000184,"duration":468.53000000002794,"noteNumber":45,"velocity":79,"programNumber":42},{"time":684990.8600000184,"duration":937.0600000000559,"noteNumber":45,"velocity":79,"programNumber":42},{"time":685927.9200000184,"duration":468.53000000002794,"noteNumber":50,"velocity":79,"programNumber":42},{"time":686396.4500000185,"duration":468.53000000002794,"noteNumber":50,"velocity":79,"programNumber":42},{"time":686864.9800000185,"duration":937.0600000000559,"noteNumber":50,"velocity":79,"programNumber":42},{"time":687802.0400000185,"duration":468.53000000002794,"noteNumber":55,"velocity":79,"programNumber":42},{"time":688270.5700000186,"duration":468.53000000002794,"noteNumber":55,"velocity":79,"programNumber":42},{"time":688739.1000000186,"duration":937.0600000000559,"noteNumber":55,"velocity":79,"programNumber":42},{"time":693424.4000000188,"duration":937.0599999999395,"noteNumber":50,"velocity":79,"programNumber":42},{"time":694361.4600000187,"duration":468.53000000002794,"noteNumber":43,"velocity":79,"programNumber":42},{"time":696235.5800000188,"duration":937.0600000000559,"noteNumber":57,"velocity":79,"programNumber":42},{"time":697172.6400000189,"duration":937.0600000000559,"noteNumber":45,"velocity":79,"programNumber":42},{"time":698109.7000000189,"duration":468.53000000002794,"noteNumber":50,"velocity":79,"programNumber":42},{"time":699983.8200000189,"duration":937.0600000000559,"noteNumber":50,"velocity":79,"programNumber":42},{"time":700920.880000019,"duration":937.0600000000559,"noteNumber":43,"velocity":79,"programNumber":42},{"time":701857.940000019,"duration":937.0600000000559,"noteNumber":45,"velocity":79,"programNumber":42},{"time":703732.0600000191,"duration":937.0600000000559,"noteNumber":57,"velocity":79,"programNumber":42},{"time":704669.1200000192,"duration":937.0599999999395,"noteNumber":45,"velocity":79,"programNumber":42},{"time":705606.1800000191,"duration":937.0600000000559,"noteNumber":50,"velocity":79,"programNumber":42},{"time":707480.3000000191,"duration":937.0600000000559,"noteNumber":62,"velocity":79,"programNumber":42},{"time":708417.3600000192,"duration":937.0600000000559,"noteNumber":57,"velocity":79,"programNumber":42},{"time":709354.4200000193,"duration":937.0600000000559,"noteNumber":50,"velocity":79,"programNumber":42},{"time":711228.5400000192,"duration":468.53000000002794,"noteNumber":56,"velocity":36,"programNumber":42},{"time":712165.6000000193,"duration":468.53000000002794,"noteNumber":52,"velocity":36,"programNumber":42},{"time":713102.6600000194,"duration":468.53000000002794,"noteNumber":57,"velocity":36,"programNumber":42},{"time":714039.7200000194,"duration":468.53000000002794,"noteNumber":55,"velocity":36,"programNumber":42},{"time":714976.7800000195,"duration":468.53000000002794,"noteNumber":54,"velocity":36,"programNumber":42},{"time":715913.8400000195,"duration":468.53000000002794,"noteNumber":50,"velocity":36,"programNumber":42},{"time":716850.9000000196,"duration":468.53000000002794,"noteNumber":55,"velocity":36,"programNumber":42},{"time":722473.2600000197,"duration":937.0600000000559,"noteNumber":54,"velocity":79,"programNumber":42},{"time":723410.3200000197,"duration":937.0600000000559,"noteNumber":55,"velocity":79,"programNumber":42},{"time":724347.3800000198,"duration":468.53000000002794,"noteNumber":50,"velocity":79,"programNumber":42},{"time":725284.4400000199,"duration":468.53000000002794,"noteNumber":55,"velocity":79,"programNumber":42},{"time":725752.9700000199,"duration":468.53000000002794,"noteNumber":55,"velocity":79,"programNumber":42},{"time":726221.5000000199,"duration":937.0600000000559,"noteNumber":55,"velocity":79,"programNumber":42},{"time":727158.56000002,"duration":468.53000000002794,"noteNumber":48,"velocity":79,"programNumber":42},{"time":727627.09000002,"duration":468.53000000002794,"noteNumber":48,"velocity":79,"programNumber":42},{"time":728095.62000002,"duration":937.0600000000559,"noteNumber":48,"velocity":79,"programNumber":42},{"time":729032.6800000201,"duration":468.53000000002794,"noteNumber":45,"velocity":79,"programNumber":42},{"time":729501.2100000201,"duration":468.53000000002794,"noteNumber":45,"velocity":79,"programNumber":42},{"time":729969.7400000201,"duration":937.0600000000559,"noteNumber":45,"velocity":79,"programNumber":42},{"time":730906.8000000202,"duration":468.53000000002794,"noteNumber":50,"velocity":79,"programNumber":42},{"time":731375.3300000202,"duration":468.53000000002794,"noteNumber":50,"velocity":79,"programNumber":42},{"time":731843.8600000202,"duration":937.0600000000559,"noteNumber":50,"velocity":79,"programNumber":42},{"time":732780.9200000203,"duration":468.53000000002794,"noteNumber":55,"velocity":79,"programNumber":42},{"time":733249.4500000203,"duration":468.53000000002794,"noteNumber":55,"velocity":79,"programNumber":42},{"time":733717.9800000204,"duration":937.0600000000559,"noteNumber":55,"velocity":79,"programNumber":42},{"time":738403.2800000204,"duration":937.0600000000559,"noteNumber":50,"velocity":79,"programNumber":42},{"time":739340.3400000205,"duration":468.53000000002794,"noteNumber":43,"velocity":79,"programNumber":42},{"time":741214.4600000205,"duration":468.53000000002794,"noteNumber":55,"velocity":79,"programNumber":42},{"time":741682.9900000205,"duration":468.53000000002794,"noteNumber":55,"velocity":79,"programNumber":42},{"time":742151.5200000205,"duration":937.0600000000559,"noteNumber":55,"velocity":79,"programNumber":42},{"time":743088.5800000206,"duration":468.53000000002794,"noteNumber":48,"velocity":79,"programNumber":42},{"time":743557.1100000206,"duration":468.53000000002794,"noteNumber":48,"velocity":79,"programNumber":42},{"time":744025.6400000206,"duration":937.0600000000559,"noteNumber":48,"velocity":79,"programNumber":42},{"time":744962.7000000207,"duration":468.53000000002794,"noteNumber":45,"velocity":79,"programNumber":42},{"time":745431.2300000207,"duration":468.53000000002794,"noteNumber":45,"velocity":79,"programNumber":42},{"time":745899.7600000207,"duration":937.0600000000559,"noteNumber":45,"velocity":79,"programNumber":42},{"time":746836.8200000208,"duration":468.53000000002794,"noteNumber":50,"velocity":79,"programNumber":42},{"time":747305.3500000208,"duration":468.53000000002794,"noteNumber":50,"velocity":79,"programNumber":42},{"time":747773.8800000208,"duration":937.0600000000559,"noteNumber":50,"velocity":79,"programNumber":42},{"time":748710.9400000209,"duration":468.53000000002794,"noteNumber":55,"velocity":79,"programNumber":42},{"time":749179.4700000209,"duration":468.53000000002794,"noteNumber":55,"velocity":79,"programNumber":42},{"time":749648.000000021,"duration":937.0600000000559,"noteNumber":55,"velocity":79,"programNumber":42},{"time":754333.300000021,"duration":234.26500000001397,"noteNumber":60,"velocity":79,"programNumber":42},{"time":754567.565000021,"duration":234.26500000001397,"noteNumber":59,"velocity":79,"programNumber":42},{"time":754801.830000021,"duration":234.26500000001397,"noteNumber":60,"velocity":79,"programNumber":42},{"time":755036.095000021,"duration":234.26500000001397,"noteNumber":57,"velocity":79,"programNumber":42},{"time":755270.360000021,"duration":234.26500000001397,"noteNumber":59,"velocity":79,"programNumber":42},{"time":755504.6250000211,"duration":234.26500000001397,"noteNumber":57,"velocity":79,"programNumber":42},{"time":755738.8900000211,"duration":234.26499999989755,"noteNumber":59,"velocity":79,"programNumber":42},{"time":755973.155000021,"duration":234.26500000001397,"noteNumber":54,"velocity":79,"programNumber":42},{"time":756207.420000021,"duration":234.26500000001397,"noteNumber":55,"velocity":79,"programNumber":42},{"time":756441.685000021,"duration":234.26500000001397,"noteNumber":54,"velocity":79,"programNumber":42},{"time":756675.950000021,"duration":234.26500000001397,"noteNumber":55,"velocity":79,"programNumber":42},{"time":756910.215000021,"duration":234.26500000001397,"noteNumber":57,"velocity":79,"programNumber":42},{"time":757144.480000021,"duration":468.53000000002794,"noteNumber":59,"velocity":79,"programNumber":42},{"time":758081.540000021,"duration":234.26500000001397,"noteNumber":60,"velocity":79,"programNumber":42},{"time":758315.805000021,"duration":234.26500000001397,"noteNumber":59,"velocity":79,"programNumber":42},{"time":758550.070000021,"duration":234.26500000001397,"noteNumber":60,"velocity":79,"programNumber":42},{"time":758784.335000021,"duration":234.26500000001397,"noteNumber":57,"velocity":79,"programNumber":42},{"time":759018.600000021,"duration":234.26500000001397,"noteNumber":59,"velocity":79,"programNumber":42},{"time":759252.8650000211,"duration":234.26500000001397,"noteNumber":57,"velocity":79,"programNumber":42},{"time":759487.1300000211,"duration":234.26500000001397,"noteNumber":59,"velocity":79,"programNumber":42},{"time":759721.3950000211,"duration":234.26500000001397,"noteNumber":54,"velocity":79,"programNumber":42},{"time":759955.6600000211,"duration":234.26500000001397,"noteNumber":55,"velocity":79,"programNumber":42},{"time":760189.9250000211,"duration":234.26500000001397,"noteNumber":54,"velocity":79,"programNumber":42},{"time":760424.1900000211,"duration":234.26500000001397,"noteNumber":55,"velocity":79,"programNumber":42},{"time":760658.4550000211,"duration":234.26500000001397,"noteNumber":57,"velocity":79,"programNumber":42},{"time":760892.7200000212,"duration":468.53000000002794,"noteNumber":59,"velocity":79,"programNumber":42},{"time":762766.8400000212,"duration":1874.1199999999953,"noteNumber":50,"velocity":36,"programNumber":42},{"time":764640.9600000212,"duration":468.53000000002794,"noteNumber":43,"velocity":36,"programNumber":42}]]}