{"tracks":[[{"time":0,"duration":103.44825,"noteNumber":71,"velocity":100,"programNumber":1},{"time":103.44825,"duration":103.44825,"noteNumber":69,"velocity":100,"programNumber":1},{"time":206.8965,"duration":103.44824999999997,"noteNumber":68,"velocity":100,"programNumber":1},{"time":310.34475,"duration":103.44825000000003,"noteNumber":69,"velocity":100,"programNumber":1},{"time":413.793,"duration":206.89649999999995,"noteNumber":72,"velocity":100,"programNumber":1},{"time":827.586,"duration":103.44825000000003,"noteNumber":74,"velocity":100,"programNumber":1},{"time":931.03425,"duration":103.44825000000003,"noteNumber":72,"velocity":100,"programNumber":1},{"time":1034.4825,"duration":103.44824999999992,"noteNumber":71,"velocity":100,"programNumber":1},{"time":1137.93075,"duration":103.44824999999992,"noteNumber":72,"velocity":100,"programNumber":1},{"time":1241.379,"duration":206.89650000000006,"noteNumber":76,"velocity":100,"programNumber":1},{"time":1655.172,"duration":103.44824999999992,"noteNumber":77,"velocity":100,"programNumber":1},{"time":1758.62025,"duration":103.44824999999992,"noteNumber":76,"velocity":100,"programNumber":1},{"time":1862.0684999999999,"duration":103.44824999999992,"noteNumber":75,"velocity":100,"programNumber":1},{"time":1965.5167499999998,"duration":103.44824999999992,"noteNumber":76,"velocity":100,"programNumber":1},{"time":2068.9649999999997,"duration":103.44824999999992,"noteNumber":83,"velocity":100,"programNumber":1},{"time":2172.4132499999996,"duration":103.44824999999992,"noteNumber":81,"velocity":100,"programNumber":1},{"time":2275.8614999999995,"duration":103.44824999999992,"noteNumber":80,"velocity":100,"programNumber":1},{"time":2379.3097499999994,"duration":103.44824999999992,"noteNumber":81,"velocity":100,"programNumber":1},{"time":2482.7579999999994,"duration":103.44824999999992,"noteNumber":83,"velocity":100,"programNumber":1},{"time":2586.2062499999993,"duration":103.44824999999992,"noteNumber":81,"velocity":100,"programNumber":1},{"time":2689.654499999999,"duration":103.44824999999992,"noteNumber":80,"velocity":100,"programNumber":1},{"time":2793.102749999999,"duration":103.44824999999992,"noteNumber":81,"velocity":100,"programNumber":1},{"time":2896.550999999999,"duration":413.7930000000001,"noteNumber":84,"velocity":100,"programNumber":1},{"time":3310.343999999999,"duration":206.89649999999983,"noteNumber":81,"velocity":100,"programNumber":1},{"time":3517.240499999999,"duration":206.89649999999983,"noteNumber":84,"velocity":100,"programNumber":1},{"time":3724.136999999999,"duration":51.724125000000186,"noteNumber":79,"velocity":100,"programNumber":1},{"time":3775.861124999999,"duration":51.724125000000186,"noteNumber":81,"velocity":100,"programNumber":1},{"time":3827.585249999999,"duration":103.44824999999992,"noteNumber":83,"velocity":100,"programNumber":1},{"time":3931.033499999999,"duration":206.8965000000003,"noteNumber":81,"velocity":100,"programNumber":1},{"time":3931.033499999999,"duration":206.8965000000003,"noteNumber":78,"velocity":100,"programNumber":1},{"time":4137.929999999999,"duration":206.89649999999983,"noteNumber":76,"velocity":100,"programNumber":1},{"time":4137.929999999999,"duration":206.89649999999983,"noteNumber":79,"velocity":100,"programNumber":1},{"time":4344.826499999999,"duration":206.89649999999983,"noteNumber":78,"velocity":100,"programNumber":1},{"time":4344.826499999999,"duration":206.89649999999983,"noteNumber":81,"velocity":100,"programNumber":1},{"time":4551.722999999999,"duration":51.72412499999973,"noteNumber":79,"velocity":100,"programNumber":1},{"time":4603.447124999999,"duration":51.72412499999973,"noteNumber":81,"velocity":100,"programNumber":1},{"time":4655.1712499999985,"duration":103.44825000000037,"noteNumber":83,"velocity":100,"programNumber":1},{"time":4758.619499999999,"duration":206.89649999999983,"noteNumber":81,"velocity":100,"programNumber":1},{"time":4758.619499999999,"duration":206.89649999999983,"noteNumber":78,"velocity":100,"programNumber":1},{"time":4965.515999999999,"duration":206.89649999999983,"noteNumber":76,"velocity":100,"programNumber":1},{"time":4965.515999999999,"duration":206.89649999999983,"noteNumber":79,"velocity":100,"programNumber":1},{"time":5172.4124999999985,"duration":206.89649999999983,"noteNumber":81,"velocity":100,"programNumber":1},{"time":5172.4124999999985,"duration":206.89649999999983,"noteNumber":78,"velocity":100,"programNumber":1},{"time":5379.308999999998,"duration":51.72412499999973,"noteNumber":79,"velocity":100,"programNumber":1},{"time":5431.033124999998,"duration":51.72412499999973,"noteNumber":81,"velocity":100,"programNumber":1},{"time":5482.757249999998,"duration":103.44825000000037,"noteNumber":83,"velocity":100,"programNumber":1},{"time":5586.205499999998,"duration":206.89649999999983,"noteNumber":81,"velocity":100,"programNumber":1},{"time":5586.205499999998,"duration":206.89649999999983,"noteNumber":78,"velocity":100,"programNumber":1},{"time":5793.101999999998,"duration":206.89649999999983,"noteNumber":76,"velocity":100,"programNumber":1},{"time":5793.101999999998,"duration":206.89649999999983,"noteNumber":79,"velocity":100,"programNumber":1},{"time":5999.998499999998,"duration":206.89649999999983,"noteNumber":75,"velocity":100,"programNumber":1},{"time":5999.998499999998,"duration":206.89649999999983,"noteNumber":78,"velocity":100,"programNumber":1},{"time":6206.894999999998,"duration":413.79299999999967,"noteNumber":76,"velocity":100,"programNumber":1},{"time":19862.064,"duration":103.44825000000128,"noteNumber":71,"velocity":100,"programNumber":1},{"time":19965.51225,"duration":103.44825000000128,"noteNumber":69,"velocity":100,"programNumber":1},{"time":20068.9605,"duration":103.44825000000128,"noteNumber":68,"velocity":100,"programNumber":1},{"time":20172.408750000002,"duration":103.44825000000128,"noteNumber":69,"velocity":100,"programNumber":1},{"time":20275.857000000004,"duration":206.89649999999892,"noteNumber":72,"velocity":100,"programNumber":1},{"time":20689.65,"duration":103.44825000000128,"noteNumber":74,"velocity":100,"programNumber":1},{"time":20793.098250000003,"duration":103.44825000000128,"noteNumber":72,"velocity":100,"programNumber":1},{"time":20896.546500000004,"duration":103.44825000000128,"noteNumber":71,"velocity":100,"programNumber":1},{"time":20999.994750000005,"duration":103.44825000000128,"noteNumber":72,"velocity":100,"programNumber":1},{"time":21103.443000000007,"duration":206.89649999999892,"noteNumber":76,"velocity":100,"programNumber":1},{"time":21517.236000000004,"duration":103.44825000000128,"noteNumber":77,"velocity":100,"programNumber":1},{"time":21620.684250000006,"duration":103.44825000000128,"noteNumber":76,"velocity":100,"programNumber":1},{"time":21724.132500000007,"duration":103.44825000000128,"noteNumber":75,"velocity":100,"programNumber":1},{"time":21827.58075000001,"duration":103.44825000000128,"noteNumber":76,"velocity":100,"programNumber":1},{"time":21931.02900000001,"duration":103.44825000000128,"noteNumber":83,"velocity":100,"programNumber":1},{"time":22034.47725000001,"duration":103.44825000000128,"noteNumber":81,"velocity":100,"programNumber":1},{"time":22137.925500000012,"duration":103.44825000000128,"noteNumber":80,"velocity":100,"programNumber":1},{"time":22241.373750000013,"duration":103.44825000000128,"noteNumber":81,"velocity":100,"programNumber":1},{"time":22344.822000000015,"duration":103.44825000000128,"noteNumber":83,"velocity":100,"programNumber":1},{"time":22448.270250000016,"duration":103.44825000000128,"noteNumber":81,"velocity":100,"programNumber":1},{"time":22551.718500000017,"duration":103.44825000000128,"noteNumber":80,"velocity":100,"programNumber":1},{"time":22655.16675000002,"duration":103.44825000000128,"noteNumber":81,"velocity":100,"programNumber":1},{"time":22758.61500000002,"duration":413.7930000000015,"noteNumber":84,"velocity":100,"programNumber":1},{"time":23172.40800000002,"duration":206.89649999999892,"noteNumber":81,"velocity":100,"programNumber":1},{"time":23379.30450000002,"duration":206.89649999999892,"noteNumber":83,"velocity":100,"programNumber":1},{"time":23586.20100000002,"duration":206.89649999999892,"noteNumber":84,"velocity":100,"programNumber":1},{"time":23793.097500000018,"duration":206.89649999999892,"noteNumber":83,"velocity":100,"programNumber":1},{"time":23999.994000000017,"duration":206.89649999999892,"noteNumber":81,"velocity":100,"programNumber":1},{"time":24206.890500000016,"duration":206.89649999999892,"noteNumber":80,"velocity":100,"programNumber":1},{"time":24413.787000000015,"duration":206.89649999999892,"noteNumber":81,"velocity":100,"programNumber":1},{"time":24620.683500000014,"duration":206.89649999999892,"noteNumber":76,"velocity":100,"programNumber":1},{"time":24827.580000000013,"duration":206.89649999999892,"noteNumber":77,"velocity":100,"programNumber":1},{"time":25034.47650000001,"duration":206.89649999999892,"noteNumber":74,"velocity":100,"programNumber":1},{"time":25241.37300000001,"duration":413.7930000000015,"noteNumber":72,"velocity":100,"programNumber":1},{"time":25655.166000000012,"duration":51.72412500000064,"noteNumber":72,"velocity":100,"programNumber":1},{"time":25706.890125000013,"duration":51.72412500000064,"noteNumber":71,"velocity":100,"programNumber":1},{"time":25758.614250000013,"duration":51.72412500000064,"noteNumber":72,"velocity":100,"programNumber":1},{"time":25810.338375000014,"duration":51.72412500000064,"noteNumber":71,"velocity":100,"programNumber":1},{"time":25862.062500000015,"duration":51.72412500000064,"noteNumber":72,"velocity":100,"programNumber":1},{"time":25913.786625000015,"duration":51.72412500000064,"noteNumber":71,"velocity":100,"programNumber":1},{"time":25965.510750000016,"duration":51.72412500000064,"noteNumber":69,"velocity":100,"programNumber":1},{"time":26017.234875000016,"duration":51.72412500000064,"noteNumber":71,"velocity":100,"programNumber":1},{"time":26068.959000000017,"duration":413.7930000000015,"noteNumber":69,"velocity":100,"programNumber":1},{"time":66206.88000000002,"duration":103.44825000000128,"noteNumber":76,"velocity":100,"programNumber":1},{"time":66310.32825000002,"duration":103.44825000000128,"noteNumber":74,"velocity":100,"programNumber":1},{"time":66413.77650000002,"duration":103.44825000000128,"noteNumber":73,"velocity":100,"programNumber":1},{"time":66517.22475000002,"duration":103.44825000000128,"noteNumber":71,"velocity":100,"programNumber":1},{"time":66620.67300000002,"duration":103.44825000000128,"noteNumber":69,"velocity":100,"programNumber":1},{"time":66724.12125000003,"duration":103.44825000000128,"noteNumber":71,"velocity":100,"programNumber":1},{"time":66827.56950000003,"duration":103.44825000000128,"noteNumber":73,"velocity":100,"programNumber":1},{"time":66931.01775000003,"duration":103.44825000000128,"noteNumber":74,"velocity":100,"programNumber":1},{"time":67034.46600000003,"duration":103.44825000000128,"noteNumber":76,"velocity":100,"programNumber":1},{"time":67137.91425000003,"duration":103.44825000000128,"noteNumber":78,"velocity":100,"programNumber":1},{"time":67241.36250000003,"duration":103.44825000000128,"noteNumber":80,"velocity":100,"programNumber":1},{"time":67344.81075000003,"duration":103.44825000000128,"noteNumber":81,"velocity":100,"programNumber":1},{"time":67448.25900000003,"duration":103.44825000000128,"noteNumber":81,"velocity":100,"programNumber":1},{"time":67551.70725000004,"duration":103.44825000000128,"noteNumber":80,"velocity":100,"programNumber":1},{"time":67655.15550000004,"duration":103.44825000000128,"noteNumber":78,"velocity":100,"programNumber":1},{"time":67758.60375000004,"duration":103.44825000000128,"noteNumber":76,"velocity":100,"programNumber":1},{"time":67862.05200000004,"duration":103.44825000000128,"noteNumber":76,"velocity":100,"programNumber":1},{"time":67965.50025000004,"duration":103.44825000000128,"noteNumber":74,"velocity":100,"programNumber":1},{"time":68068.94850000004,"duration":103.44825000000128,"noteNumber":73,"velocity":100,"programNumber":1},{"time":68172.39675000004,"duration":103.44825000000128,"noteNumber":71,"velocity":100,"programNumber":1},{"time":68275.84500000004,"duration":103.44825000000128,"noteNumber":69,"velocity":100,"programNumber":1},{"time":68379.29325000005,"duration":103.44825000000128,"noteNumber":71,"velocity":100,"programNumber":1},{"time":68482.74150000005,"duration":103.44825000000128,"noteNumber":73,"velocity":100,"programNumber":1},{"time":68586.18975000005,"duration":103.44825000000128,"noteNumber":74,"velocity":100,"programNumber":1},{"time":68689.63800000005,"duration":103.44825000000128,"noteNumber":76,"velocity":100,"programNumber":1},{"time":68793.08625000005,"duration":103.44825000000128,"noteNumber":78,"velocity":100,"programNumber":1},{"time":68896.53450000005,"duration":103.44825000000128,"noteNumber":80,"velocity":100,"programNumber":1},{"time":68999.98275000005,"duration":103.44825000000128,"noteNumber":81,"velocity":100,"programNumber":1},{"time":69103.43100000006,"duration":206.89650000000256,"noteNumber":82,"velocity":100,"programNumber":1},{"time":69310.32750000006,"duration":206.89650000000256,"noteNumber":83,"velocity":100,"programNumber":1},{"time":69517.22400000006,"duration":103.44825000000128,"noteNumber":76,"velocity":100,"programNumber":1},{"time":69620.67225000006,"duration":103.44825000000128,"noteNumber":74,"velocity":100,"programNumber":1},{"time":69724.12050000006,"duration":103.44825000000128,"noteNumber":73,"velocity":100,"programNumber":1},{"time":69827.56875000006,"duration":103.44825000000128,"noteNumber":71,"velocity":100,"programNumber":1},{"time":69931.01700000007,"duration":103.44825000000128,"noteNumber":69,"velocity":100,"programNumber":1},{"time":70034.46525000007,"duration":103.44825000000128,"noteNumber":71,"velocity":100,"programNumber":1},{"time":70137.91350000007,"duration":103.44825000000128,"noteNumber":73,"velocity":100,"programNumber":1},{"time":70241.36175000007,"duration":103.44825000000128,"noteNumber":74,"velocity":100,"programNumber":1},{"time":70344.81000000007,"duration":103.44825000000128,"noteNumber":76,"velocity":100,"programNumber":1},{"time":70448.25825000007,"duration":103.44825000000128,"noteNumber":78,"velocity":100,"programNumber":1},{"time":70551.70650000007,"duration":103.44825000000128,"noteNumber":80,"velocity":100,"programNumber":1},{"time":70655.15475000007,"duration":103.44825000000128,"noteNumber":81,"velocity":100,"programNumber":1},{"time":70758.60300000008,"duration":103.44825000000128,"noteNumber":81,"velocity":100,"programNumber":1},{"time":70862.05125000008,"duration":103.44825000000128,"noteNumber":80,"velocity":100,"programNumber":1},{"time":70965.49950000008,"duration":103.44825000000128,"noteNumber":78,"velocity":100,"programNumber":1},{"time":71068.94775000008,"duration":103.44825000000128,"noteNumber":76,"velocity":100,"programNumber":1},{"time":71172.39600000008,"duration":103.44825000000128,"noteNumber":76,"velocity":100,"programNumber":1},{"time":71275.84425000008,"duration":103.44825000000128,"noteNumber":74,"velocity":100,"programNumber":1},{"time":71379.29250000008,"duration":103.44825000000128,"noteNumber":73,"velocity":100,"programNumber":1},{"time":71482.74075000008,"duration":103.44825000000128,"noteNumber":71,"velocity":100,"programNumber":1},{"time":71586.18900000009,"duration":103.44825000000128,"noteNumber":73,"velocity":100,"programNumber":1},{"time":71689.63725000009,"duration":103.44825000000128,"noteNumber":76,"velocity":100,"programNumber":1},{"time":71793.08550000009,"duration":103.44825000000128,"noteNumber":69,"velocity":100,"programNumber":1},{"time":71896.53375000009,"duration":103.44825000000128,"noteNumber":73,"velocity":100,"programNumber":1},{"time":71999.98200000009,"duration":103.44825000000128,"noteNumber":71,"velocity":100,"programNumber":1},{"time":72103.43025000009,"duration":103.44825000000128,"noteNumber":74,"velocity":100,"programNumber":1},{"time":72206.8785000001,"duration":103.44825000000128,"noteNumber":68,"velocity":100,"programNumber":1},{"time":72310.3267500001,"duration":103.44825000000128,"noteNumber":71,"velocity":100,"programNumber":1},{"time":72413.7750000001,"duration":413.7930000000051,"noteNumber":69,"velocity":100,"programNumber":1},{"time":105931.0080000001,"duration":103.44825000000128,"noteNumber":71,"velocity":100,"programNumber":1},{"time":106034.4562500001,"duration":103.44825000000128,"noteNumber":69,"velocity":100,"programNumber":1},{"time":106137.9045000001,"duration":103.44825000000128,"noteNumber":68,"velocity":100,"programNumber":1},{"time":106241.35275000011,"duration":103.44825000000128,"noteNumber":69,"velocity":100,"programNumber":1},{"time":106344.80100000011,"duration":206.89650000000256,"noteNumber":72,"velocity":100,"programNumber":1},{"time":106758.59400000011,"duration":103.44825000000128,"noteNumber":74,"velocity":100,"programNumber":1},{"time":106862.04225000012,"duration":103.44825000000128,"noteNumber":72,"velocity":100,"programNumber":1},{"time":106965.49050000012,"duration":103.44825000000128,"noteNumber":71,"velocity":100,"programNumber":1},{"time":107068.93875000012,"duration":103.44825000000128,"noteNumber":72,"velocity":100,"programNumber":1},{"time":107172.38700000012,"duration":206.89650000000256,"noteNumber":76,"velocity":100,"programNumber":1},{"time":107586.18000000012,"duration":103.44825000000128,"noteNumber":77,"velocity":100,"programNumber":1},{"time":107689.62825000013,"duration":103.44825000000128,"noteNumber":76,"velocity":100,"programNumber":1},{"time":107793.07650000013,"duration":103.44825000000128,"noteNumber":75,"velocity":100,"programNumber":1},{"time":107896.52475000013,"duration":103.44825000000128,"noteNumber":76,"velocity":100,"programNumber":1},{"time":107999.97300000013,"duration":103.44825000000128,"noteNumber":83,"velocity":100,"programNumber":1},{"time":108103.42125000013,"duration":103.44825000000128,"noteNumber":81,"velocity":100,"programNumber":1},{"time":108206.86950000013,"duration":103.44825000000128,"noteNumber":80,"velocity":100,"programNumber":1},{"time":108310.31775000013,"duration":103.44825000000128,"noteNumber":81,"velocity":100,"programNumber":1},{"time":108413.76600000013,"duration":103.44825000000128,"noteNumber":83,"velocity":100,"programNumber":1},{"time":108517.21425000014,"duration":103.44825000000128,"noteNumber":81,"velocity":100,"programNumber":1},{"time":108620.66250000014,"duration":103.44825000000128,"noteNumber":80,"velocity":100,"programNumber":1},{"time":108724.11075000014,"duration":103.44825000000128,"noteNumber":81,"velocity":100,"programNumber":1},{"time":108827.55900000014,"duration":413.7930000000051,"noteNumber":84,"velocity":100,"programNumber":1},{"time":109241.35200000014,"duration":206.89650000000256,"noteNumber":81,"velocity":100,"programNumber":1},{"time":109448.24850000015,"duration":206.89650000000256,"noteNumber":84,"velocity":100,"programNumber":1},{"time":109655.14500000015,"duration":51.724124999993364,"noteNumber":79,"velocity":100,"programNumber":1},{"time":109706.86912500014,"duration":51.724124999993364,"noteNumber":81,"velocity":100,"programNumber":1},{"time":109758.59325000014,"duration":103.44825000000128,"noteNumber":83,"velocity":100,"programNumber":1},{"time":109862.04150000014,"duration":206.89650000000256,"noteNumber":81,"velocity":100,"programNumber":1},{"time":109862.04150000014,"duration":206.89650000000256,"noteNumber":78,"velocity":100,"programNumber":1},{"time":110068.93800000014,"duration":206.89650000000256,"noteNumber":76,"velocity":100,"programNumber":1},{"time":110068.93800000014,"duration":206.89650000000256,"noteNumber":79,"velocity":100,"programNumber":1},{"time":110275.83450000014,"duration":206.89650000000256,"noteNumber":78,"velocity":100,"programNumber":1},{"time":110275.83450000014,"duration":206.89650000000256,"noteNumber":81,"velocity":100,"programNumber":1},{"time":110482.73100000015,"duration":51.724124999993364,"noteNumber":79,"velocity":100,"programNumber":1},{"time":110534.45512500014,"duration":51.724124999993364,"noteNumber":81,"velocity":100,"programNumber":1},{"time":110586.17925000013,"duration":103.44825000000128,"noteNumber":83,"velocity":100,"programNumber":1},{"time":110689.62750000013,"duration":206.89650000000256,"noteNumber":81,"velocity":100,"programNumber":1},{"time":110689.62750000013,"duration":206.89650000000256,"noteNumber":78,"velocity":100,"programNumber":1},{"time":110896.52400000014,"duration":206.89650000000256,"noteNumber":76,"velocity":100,"programNumber":1},{"time":110896.52400000014,"duration":206.89650000000256,"noteNumber":79,"velocity":100,"programNumber":1},{"time":111103.42050000014,"duration":206.89650000000256,"noteNumber":81,"velocity":100,"programNumber":1},{"time":111103.42050000014,"duration":206.89650000000256,"noteNumber":78,"velocity":100,"programNumber":1},{"time":111310.31700000014,"duration":51.724124999993364,"noteNumber":79,"velocity":100,"programNumber":1},{"time":111362.04112500013,"duration":51.724124999993364,"noteNumber":81,"velocity":100,"programNumber":1},{"time":111413.76525000013,"duration":103.44825000000128,"noteNumber":83,"velocity":100,"programNumber":1},{"time":111517.21350000013,"duration":206.89650000000256,"noteNumber":81,"velocity":100,"programNumber":1},{"time":111517.21350000013,"duration":206.89650000000256,"noteNumber":78,"velocity":100,"programNumber":1},{"time":111724.11000000013,"duration":206.89650000000256,"noteNumber":76,"velocity":100,"programNumber":1},{"time":111724.11000000013,"duration":206.89650000000256,"noteNumber":79,"velocity":100,"programNumber":1},{"time":111931.00650000013,"duration":206.89650000000256,"noteNumber":75,"velocity":100,"programNumber":1},{"time":111931.00650000013,"duration":206.89650000000256,"noteNumber":78,"velocity":100,"programNumber":1},{"time":112137.90300000014,"duration":413.7930000000051,"noteNumber":76,"velocity":100,"programNumber":1},{"time":125793.07200000015,"duration":103.44825000000128,"noteNumber":71,"velocity":100,"programNumber":1},{"time":125896.52025000015,"duration":103.44825000000128,"noteNumber":69,"velocity":100,"programNumber":1},{"time":125999.96850000015,"duration":103.44825000000128,"noteNumber":68,"velocity":100,"programNumber":1},{"time":126103.41675000015,"duration":103.44825000000128,"noteNumber":69,"velocity":100,"programNumber":1},{"time":126206.86500000015,"duration":206.89650000000256,"noteNumber":72,"velocity":100,"programNumber":1},{"time":126620.65800000016,"duration":103.44825000000128,"noteNumber":74,"velocity":100,"programNumber":1},{"time":126724.10625000016,"duration":103.44825000000128,"noteNumber":72,"velocity":100,"programNumber":1},{"time":126827.55450000016,"duration":103.44825000000128,"noteNumber":71,"velocity":100,"programNumber":1},{"time":126931.00275000016,"duration":103.44825000000128,"noteNumber":72,"velocity":100,"programNumber":1},{"time":127034.45100000016,"duration":206.89650000000256,"noteNumber":76,"velocity":100,"programNumber":1},{"time":127448.24400000017,"duration":103.44825000000128,"noteNumber":77,"velocity":100,"programNumber":1},{"time":127551.69225000017,"duration":103.44825000000128,"noteNumber":76,"velocity":100,"programNumber":1},{"time":127655.14050000017,"duration":103.44825000000128,"noteNumber":75,"velocity":100,"programNumber":1},{"time":127758.58875000017,"duration":103.44825000000128,"noteNumber":76,"velocity":100,"programNumber":1},{"time":127862.03700000017,"duration":103.44825000000128,"noteNumber":83,"velocity":100,"programNumber":1},{"time":127965.48525000017,"duration":103.44825000000128,"noteNumber":81,"velocity":100,"programNumber":1},{"time":128068.93350000017,"duration":103.44825000000128,"noteNumber":80,"velocity":100,"programNumber":1},{"time":128172.38175000018,"duration":103.44825000000128,"noteNumber":81,"velocity":100,"programNumber":1},{"time":128275.83000000018,"duration":103.44825000000128,"noteNumber":83,"velocity":100,"programNumber":1},{"time":128379.27825000018,"duration":103.44825000000128,"noteNumber":81,"velocity":100,"programNumber":1},{"time":128482.72650000018,"duration":103.44825000000128,"noteNumber":80,"velocity":100,"programNumber":1},{"time":128586.17475000018,"duration":103.44825000000128,"noteNumber":81,"velocity":100,"programNumber":1},{"time":128689.62300000018,"duration":413.7930000000051,"noteNumber":84,"velocity":100,"programNumber":1},{"time":129103.41600000019,"duration":206.89650000000256,"noteNumber":81,"velocity":100,"programNumber":1},{"time":129310.31250000019,"duration":206.89650000000256,"noteNumber":83,"velocity":100,"programNumber":1},{"time":129517.20900000019,"duration":206.89650000000256,"noteNumber":84,"velocity":100,"programNumber":1},{"time":129724.1055000002,"duration":206.89650000000256,"noteNumber":83,"velocity":100,"programNumber":1},{"time":129931.0020000002,"duration":206.89650000000256,"noteNumber":81,"velocity":100,"programNumber":1},{"time":130137.8985000002,"duration":206.89650000000256,"noteNumber":80,"velocity":100,"programNumber":1},{"time":130344.7950000002,"duration":206.89650000000256,"noteNumber":81,"velocity":100,"programNumber":1},{"time":130551.6915000002,"duration":206.89650000000256,"noteNumber":76,"velocity":100,"programNumber":1},{"time":130758.5880000002,"duration":206.89650000000256,"noteNumber":77,"velocity":100,"programNumber":1},{"time":130965.48450000021,"duration":206.896499999988,"noteNumber":74,"velocity":100,"programNumber":1},{"time":131172.3810000002,"duration":413.7930000000051,"noteNumber":72,"velocity":100,"programNumber":1},{"time":131586.1740000002,"duration":51.724125000007916,"noteNumber":72,"velocity":100,"programNumber":1},{"time":131637.8981250002,"duration":51.724125000007916,"noteNumber":71,"velocity":100,"programNumber":1},{"time":131689.62225000022,"duration":51.724125000007916,"noteNumber":72,"velocity":100,"programNumber":1},{"time":131741.34637500023,"duration":51.724125000007916,"noteNumber":71,"velocity":100,"programNumber":1},{"time":131793.07050000023,"duration":51.724125000007916,"noteNumber":72,"velocity":100,"programNumber":1},{"time":131844.79462500024,"duration":51.724125000007916,"noteNumber":71,"velocity":100,"programNumber":1},{"time":131896.51875000025,"duration":51.724125000007916,"noteNumber":69,"velocity":100,"programNumber":1},{"time":131948.24287500026,"duration":51.724125000007916,"noteNumber":71,"velocity":100,"programNumber":1},{"time":131999.96700000027,"duration":413.7930000000051,"noteNumber":69,"velocity":100,"programNumber":1}],[{"time":413.793,"duration":206.89649999999995,"noteNumber":57,"velocity":100,"programNumber":1},{"time":620.6895,"duration":206.89650000000006,"noteNumber":60,"velocity":100,"programNumber":1},{"time":620.6895,"duration":206.89650000000006,"noteNumber":64,"velocity":100,"programNumber":1},{"time":827.586,"duration":206.89650000000006,"noteNumber":60,"velocity":100,"programNumber":1},{"time":827.586,"duration":206.89650000000006,"noteNumber":64,"velocity":100,"programNumber":1},{"time":1034.4825,"duration":206.89650000000006,"noteNumber":60,"velocity":100,"programNumber":1},{"time":1034.4825,"duration":206.89650000000006,"noteNumber":64,"velocity":100,"programNumber":1},{"time":1241.3790000000001,"duration":206.89650000000006,"noteNumber":57,"velocity":100,"programNumber":1},{"time":1448.2755000000002,"duration":206.89650000000006,"noteNumber":60,"velocity":100,"programNumber":1},{"time":1448.2755000000002,"duration":206.89650000000006,"noteNumber":64,"velocity":100,"programNumber":1},{"time":1655.1720000000003,"duration":206.89650000000006,"noteNumber":60,"velocity":100,"programNumber":1},{"time":1655.1720000000003,"duration":206.89650000000006,"noteNumber":64,"velocity":100,"programNumber":1},{"time":1862.0685000000003,"duration":206.89649999999983,"noteNumber":60,"velocity":100,"programNumber":1},{"time":1862.0685000000003,"duration":206.89649999999983,"noteNumber":64,"velocity":100,"programNumber":1},{"time":2068.965,"duration":206.89649999999983,"noteNumber":57,"velocity":100,"programNumber":1},{"time":2275.8615,"duration":206.89649999999983,"noteNumber":60,"velocity":100,"programNumber":1},{"time":2275.8615,"duration":206.89649999999983,"noteNumber":64,"velocity":100,"programNumber":1},{"time":2482.758,"duration":206.89649999999983,"noteNumber":57,"velocity":100,"programNumber":1},{"time":2689.6544999999996,"duration":206.89649999999983,"noteNumber":60,"velocity":100,"programNumber":1},{"time":2689.6544999999996,"duration":206.89649999999983,"noteNumber":64,"velocity":100,"programNumber":1},{"time":2896.5509999999995,"duration":206.89649999999983,"noteNumber":57,"velocity":100,"programNumber":1},{"time":3103.4474999999993,"duration":206.89649999999983,"noteNumber":60,"velocity":100,"programNumber":1},{"time":3103.4474999999993,"duration":206.89649999999983,"noteNumber":64,"velocity":100,"programNumber":1},{"time":3310.343999999999,"duration":206.89649999999983,"noteNumber":60,"velocity":100,"programNumber":1},{"time":3310.343999999999,"duration":206.89649999999983,"noteNumber":64,"velocity":100,"programNumber":1},{"time":3517.240499999999,"duration":206.89649999999983,"noteNumber":60,"velocity":100,"programNumber":1},{"time":3517.240499999999,"duration":206.89649999999983,"noteNumber":64,"velocity":100,"programNumber":1},{"time":3724.136999999999,"duration":206.89649999999983,"noteNumber":52,"velocity":100,"programNumber":1},{"time":3931.0334999999986,"duration":206.89649999999983,"noteNumber":59,"velocity":100,"programNumber":1},{"time":3931.0334999999986,"duration":206.89649999999983,"noteNumber":64,"velocity":100,"programNumber":1},{"time":4137.9299999999985,"duration":206.89649999999983,"noteNumber":59,"velocity":100,"programNumber":1},{"time":4137.9299999999985,"duration":206.89649999999983,"noteNumber":64,"velocity":100,"programNumber":1},{"time":4344.826499999998,"duration":206.89649999999983,"noteNumber":59,"velocity":100,"programNumber":1},{"time":4344.826499999998,"duration":206.89649999999983,"noteNumber":64,"velocity":100,"programNumber":1},{"time":4551.722999999998,"duration":206.89649999999983,"noteNumber":52,"velocity":100,"programNumber":1},{"time":4758.619499999998,"duration":206.89649999999983,"noteNumber":59,"velocity":100,"programNumber":1},{"time":4758.619499999998,"duration":206.89649999999983,"noteNumber":64,"velocity":100,"programNumber":1},{"time":4965.515999999998,"duration":206.89649999999983,"noteNumber":59,"velocity":100,"programNumber":1},{"time":4965.515999999998,"duration":206.89649999999983,"noteNumber":64,"velocity":100,"programNumber":1},{"time":5172.412499999998,"duration":206.89649999999983,"noteNumber":59,"velocity":100,"programNumber":1},{"time":5172.412499999998,"duration":206.89649999999983,"noteNumber":64,"velocity":100,"programNumber":1},{"time":5379.3089999999975,"duration":206.89649999999983,"noteNumber":52,"velocity":100,"programNumber":1},{"time":5586.205499999997,"duration":206.89649999999983,"noteNumber":59,"velocity":100,"programNumber":1},{"time":5586.205499999997,"duration":206.89649999999983,"noteNumber":64,"velocity":100,"programNumber":1},{"time":5793.101999999997,"duration":206.89649999999983,"noteNumber":47,"velocity":100,"programNumber":1},{"time":5999.998499999997,"duration":206.89649999999983,"noteNumber":59,"velocity":100,"programNumber":1},{"time":6206.894999999997,"duration":413.79299999999967,"noteNumber":52,"velocity":100,"programNumber":1},{"time":20275.856999999996,"duration":206.89649999999892,"noteNumber":57,"velocity":100,"programNumber":1},{"time":20482.753499999995,"duration":206.89649999999892,"noteNumber":60,"velocity":100,"programNumber":1},{"time":20482.753499999995,"duration":206.89649999999892,"noteNumber":64,"velocity":100,"programNumber":1},{"time":20689.649999999994,"duration":206.89649999999892,"noteNumber":60,"velocity":100,"programNumber":1},{"time":20689.649999999994,"duration":206.89649999999892,"noteNumber":64,"velocity":100,"programNumber":1},{"time":20896.546499999993,"duration":206.89649999999892,"noteNumber":60,"velocity":100,"programNumber":1},{"time":20896.546499999993,"duration":206.89649999999892,"noteNumber":64,"velocity":100,"programNumber":1},{"time":21103.442999999992,"duration":206.89649999999892,"noteNumber":57,"velocity":100,"programNumber":1},{"time":21310.33949999999,"duration":206.89649999999892,"noteNumber":60,"velocity":100,"programNumber":1},{"time":21310.33949999999,"duration":206.89649999999892,"noteNumber":64,"velocity":100,"programNumber":1},{"time":21517.23599999999,"duration":206.89649999999892,"noteNumber":60,"velocity":100,"programNumber":1},{"time":21517.23599999999,"duration":206.89649999999892,"noteNumber":64,"velocity":100,"programNumber":1},{"time":21724.13249999999,"duration":206.89649999999892,"noteNumber":60,"velocity":100,"programNumber":1},{"time":21724.13249999999,"duration":206.89649999999892,"noteNumber":64,"velocity":100,"programNumber":1},{"time":21931.028999999988,"duration":206.89649999999892,"noteNumber":57,"velocity":100,"programNumber":1},{"time":22137.925499999987,"duration":206.89649999999892,"noteNumber":60,"velocity":100,"programNumber":1},{"time":22137.925499999987,"duration":206.89649999999892,"noteNumber":64,"velocity":100,"programNumber":1},{"time":22344.821999999986,"duration":206.89649999999892,"noteNumber":57,"velocity":100,"programNumber":1},{"time":22551.718499999984,"duration":206.89649999999892,"noteNumber":60,"velocity":100,"programNumber":1},{"time":22551.718499999984,"duration":206.89649999999892,"noteNumber":64,"velocity":100,"programNumber":1},{"time":22758.614999999983,"duration":206.89649999999892,"noteNumber":53,"velocity":100,"programNumber":1},{"time":22965.511499999982,"duration":206.89649999999892,"noteNumber":57,"velocity":100,"programNumber":1},{"time":22965.511499999982,"duration":206.89649999999892,"noteNumber":63,"velocity":100,"programNumber":1},{"time":23172.40799999998,"duration":206.89649999999892,"noteNumber":57,"velocity":100,"programNumber":1},{"time":23172.40799999998,"duration":206.89649999999892,"noteNumber":63,"velocity":100,"programNumber":1},{"time":23379.30449999998,"duration":206.89649999999892,"noteNumber":57,"velocity":100,"programNumber":1},{"time":23379.30449999998,"duration":206.89649999999892,"noteNumber":63,"velocity":100,"programNumber":1},{"time":23586.20099999998,"duration":206.89649999999892,"noteNumber":52,"velocity":100,"programNumber":1},{"time":23793.097499999978,"duration":206.89649999999892,"noteNumber":57,"velocity":100,"programNumber":1},{"time":23793.097499999978,"duration":206.89649999999892,"noteNumber":64,"velocity":100,"programNumber":1},{"time":23999.993999999977,"duration":206.89649999999892,"noteNumber":50,"velocity":100,"programNumber":1},{"time":24206.890499999976,"duration":206.89649999999892,"noteNumber":53,"velocity":100,"programNumber":1},{"time":24206.890499999976,"duration":206.89649999999892,"noteNumber":59,"velocity":100,"programNumber":1},{"time":24413.786999999975,"duration":206.89649999999892,"noteNumber":48,"velocity":100,"programNumber":1},{"time":24620.683499999974,"duration":206.89649999999892,"noteNumber":52,"velocity":100,"programNumber":1},{"time":24620.683499999974,"duration":206.89649999999892,"noteNumber":57,"velocity":100,"programNumber":1},{"time":24827.579999999973,"duration":206.89649999999892,"noteNumber":50,"velocity":100,"programNumber":1},{"time":25034.47649999997,"duration":206.89649999999892,"noteNumber":53,"velocity":100,"programNumber":1},{"time":25034.47649999997,"duration":206.89649999999892,"noteNumber":59,"velocity":100,"programNumber":1},{"time":25241.37299999997,"duration":206.89649999999892,"noteNumber":57,"velocity":100,"programNumber":1},{"time":25241.37299999997,"duration":206.89649999999892,"noteNumber":52,"velocity":100,"programNumber":1},{"time":25448.26949999997,"duration":206.89649999999892,"noteNumber":57,"velocity":100,"programNumber":1},{"time":25448.26949999997,"duration":206.89649999999892,"noteNumber":52,"velocity":100,"programNumber":1},{"time":25655.16599999997,"duration":206.89649999999892,"noteNumber":56,"velocity":100,"programNumber":1},{"time":25655.16599999997,"duration":206.89649999999892,"noteNumber":52,"velocity":100,"programNumber":1},{"time":25862.062499999967,"duration":206.89649999999892,"noteNumber":56,"velocity":100,"programNumber":1},{"time":25862.062499999967,"duration":206.89649999999892,"noteNumber":52,"velocity":100,"programNumber":1},{"time":26068.958999999966,"duration":413.7930000000015,"noteNumber":57,"velocity":100,"programNumber":1},{"time":26068.958999999966,"duration":413.7930000000015,"noteNumber":45,"velocity":100,"programNumber":1},{"time":66620.67299999997,"duration":206.89650000000256,"noteNumber":57,"velocity":100,"programNumber":1},{"time":66827.56949999997,"duration":206.89650000000256,"noteNumber":61,"velocity":100,"programNumber":1},{"time":66827.56949999997,"duration":206.89650000000256,"noteNumber":64,"velocity":100,"programNumber":1},{"time":67034.46599999997,"duration":206.89650000000256,"noteNumber":61,"velocity":100,"programNumber":1},{"time":67034.46599999997,"duration":206.89650000000256,"noteNumber":64,"velocity":100,"programNumber":1},{"time":67241.36249999997,"duration":206.89650000000256,"noteNumber":61,"velocity":100,"programNumber":1},{"time":67241.36249999997,"duration":206.89650000000256,"noteNumber":64,"velocity":100,"programNumber":1},{"time":67448.25899999998,"duration":206.89650000000256,"noteNumber":59,"velocity":100,"programNumber":1},{"time":67655.15549999998,"duration":206.89650000000256,"noteNumber":62,"velocity":100,"programNumber":1},{"time":67655.15549999998,"duration":206.89650000000256,"noteNumber":64,"velocity":100,"programNumber":1},{"time":67862.05199999998,"duration":206.89650000000256,"noteNumber":56,"velocity":100,"programNumber":1},{"time":68068.94849999998,"duration":206.89650000000256,"noteNumber":62,"velocity":100,"programNumber":1},{"time":68068.94849999998,"duration":206.89650000000256,"noteNumber":64,"velocity":100,"programNumber":1},{"time":68275.84499999999,"duration":206.89650000000256,"noteNumber":57,"velocity":100,"programNumber":1},{"time":68482.74149999999,"duration":206.89650000000256,"noteNumber":61,"velocity":100,"programNumber":1},{"time":68482.74149999999,"duration":206.89650000000256,"noteNumber":64,"velocity":100,"programNumber":1},{"time":68689.63799999999,"duration":206.89650000000256,"noteNumber":61,"velocity":100,"programNumber":1},{"time":68689.63799999999,"duration":206.89650000000256,"noteNumber":64,"velocity":100,"programNumber":1},{"time":68896.5345,"duration":206.89650000000256,"noteNumber":61,"velocity":100,"programNumber":1},{"time":68896.5345,"duration":206.89650000000256,"noteNumber":64,"velocity":100,"programNumber":1},{"time":69103.431,"duration":206.89650000000256,"noteNumber":52,"velocity":100,"programNumber":1},{"time":69310.3275,"duration":206.89650000000256,"noteNumber":56,"velocity":100,"programNumber":1},{"time":69310.3275,"duration":206.89650000000256,"noteNumber":62,"velocity":100,"programNumber":1},{"time":69517.224,"duration":206.89650000000256,"noteNumber":56,"velocity":100,"programNumber":1},{"time":69517.224,"duration":206.89650000000256,"noteNumber":62,"velocity":100,"programNumber":1},{"time":69724.1205,"duration":206.89650000000256,"noteNumber":56,"velocity":100,"programNumber":1},{"time":69724.1205,"duration":206.89650000000256,"noteNumber":62,"velocity":100,"programNumber":1},{"time":69931.017,"duration":206.89650000000256,"noteNumber":57,"velocity":100,"programNumber":1},{"time":70137.91350000001,"duration":206.89650000000256,"noteNumber":61,"velocity":100,"programNumber":1},{"time":70137.91350000001,"duration":206.89650000000256,"noteNumber":64,"velocity":100,"programNumber":1},{"time":70344.81000000001,"duration":206.89650000000256,"noteNumber":61,"velocity":100,"programNumber":1},{"time":70344.81000000001,"duration":206.89650000000256,"noteNumber":64,"velocity":100,"programNumber":1},{"time":70551.70650000001,"duration":206.89650000000256,"noteNumber":61,"velocity":100,"programNumber":1},{"time":70551.70650000001,"duration":206.89650000000256,"noteNumber":64,"velocity":100,"programNumber":1},{"time":70758.60300000002,"duration":206.89650000000256,"noteNumber":59,"velocity":100,"programNumber":1},{"time":70965.49950000002,"duration":206.89650000000256,"noteNumber":62,"velocity":100,"programNumber":1},{"time":70965.49950000002,"duration":206.89650000000256,"noteNumber":64,"velocity":100,"programNumber":1},{"time":71172.39600000002,"duration":206.89650000000256,"noteNumber":56,"velocity":100,"programNumber":1},{"time":71379.29250000003,"duration":206.89650000000256,"noteNumber":62,"velocity":100,"programNumber":1},{"time":71379.29250000003,"duration":206.89650000000256,"noteNumber":64,"velocity":100,"programNumber":1},{"time":71586.18900000003,"duration":206.89650000000256,"noteNumber":57,"velocity":100,"programNumber":1},{"time":71793.08550000003,"duration":206.89650000000256,"noteNumber":54,"velocity":100,"programNumber":1},{"time":71999.98200000003,"duration":206.89650000000256,"noteNumber":50,"velocity":100,"programNumber":1},{"time":72206.87850000004,"duration":206.89650000000256,"noteNumber":52,"velocity":100,"programNumber":1},{"time":72413.77500000004,"duration":206.89650000000256,"noteNumber":45,"velocity":100,"programNumber":1},{"time":72620.67150000004,"duration":206.89650000000256,"noteNumber":57,"velocity":100,"programNumber":1},{"time":106344.80100000004,"duration":206.89650000000256,"noteNumber":57,"velocity":100,"programNumber":1},{"time":106551.69750000004,"duration":206.89650000000256,"noteNumber":60,"velocity":100,"programNumber":1},{"time":106551.69750000004,"duration":206.89650000000256,"noteNumber":64,"velocity":100,"programNumber":1},{"time":106758.59400000004,"duration":206.89650000000256,"noteNumber":60,"velocity":100,"programNumber":1},{"time":106758.59400000004,"duration":206.89650000000256,"noteNumber":64,"velocity":100,"programNumber":1},{"time":106965.49050000004,"duration":206.89650000000256,"noteNumber":60,"velocity":100,"programNumber":1},{"time":106965.49050000004,"duration":206.89650000000256,"noteNumber":64,"velocity":100,"programNumber":1},{"time":107172.38700000005,"duration":206.89650000000256,"noteNumber":57,"velocity":100,"programNumber":1},{"time":107379.28350000005,"duration":206.89650000000256,"noteNumber":60,"velocity":100,"programNumber":1},{"time":107379.28350000005,"duration":206.89650000000256,"noteNumber":64,"velocity":100,"programNumber":1},{"time":107586.18000000005,"duration":206.89650000000256,"noteNumber":60,"velocity":100,"programNumber":1},{"time":107586.18000000005,"duration":206.89650000000256,"noteNumber":64,"velocity":100,"programNumber":1},{"time":107793.07650000005,"duration":206.89650000000256,"noteNumber":60,"velocity":100,"programNumber":1},{"time":107793.07650000005,"duration":206.89650000000256,"noteNumber":64,"velocity":100,"programNumber":1},{"time":107999.97300000006,"duration":206.89650000000256,"noteNumber":57,"velocity":100,"programNumber":1},{"time":108206.86950000006,"duration":206.89650000000256,"noteNumber":60,"velocity":100,"programNumber":1},{"time":108206.86950000006,"duration":206.89650000000256,"noteNumber":64,"velocity":100,"programNumber":1},{"time":108413.76600000006,"duration":206.89650000000256,"noteNumber":57,"velocity":100,"programNumber":1},{"time":108620.66250000006,"duration":206.89650000000256,"noteNumber":60,"velocity":100,"programNumber":1},{"time":108620.66250000006,"duration":206.89650000000256,"noteNumber":64,"velocity":100,"programNumber":1},{"time":108827.55900000007,"duration":206.89650000000256,"noteNumber":57,"velocity":100,"programNumber":1},{"time":109034.45550000007,"duration":206.89650000000256,"noteNumber":60,"velocity":100,"programNumber":1},{"time":109034.45550000007,"duration":206.89650000000256,"noteNumber":64,"velocity":100,"programNumber":1},{"time":109241.35200000007,"duration":206.89650000000256,"noteNumber":60,"velocity":100,"programNumber":1},{"time":109241.35200000007,"duration":206.89650000000256,"noteNumber":64,"velocity":100,"programNumber":1},{"time":109448.24850000007,"duration":206.89650000000256,"noteNumber":60,"velocity":100,"programNumber":1},{"time":109448.24850000007,"duration":206.89650000000256,"noteNumber":64,"velocity":100,"programNumber":1},{"time":109655.14500000008,"duration":206.89650000000256,"noteNumber":52,"velocity":100,"programNumber":1},{"time":109862.04150000008,"duration":206.89650000000256,"noteNumber":59,"velocity":100,"programNumber":1},{"time":109862.04150000008,"duration":206.89650000000256,"noteNumber":64,"velocity":100,"programNumber":1},{"time":110068.93800000008,"duration":206.89650000000256,"noteNumber":59,"velocity":100,"programNumber":1},{"time":110068.93800000008,"duration":206.89650000000256,"noteNumber":64,"velocity":100,"programNumber":1},{"time":110275.83450000008,"duration":206.89650000000256,"noteNumber":59,"velocity":100,"programNumber":1},{"time":110275.83450000008,"duration":206.89650000000256,"noteNumber":64,"velocity":100,"programNumber":1},{"time":110482.73100000009,"duration":206.89650000000256,"noteNumber":52,"velocity":100,"programNumber":1},{"time":110689.62750000009,"duration":206.89650000000256,"noteNumber":59,"velocity":100,"programNumber":1},{"time":110689.62750000009,"duration":206.89650000000256,"noteNumber":64,"velocity":100,"programNumber":1},{"time":110896.52400000009,"duration":206.89650000000256,"noteNumber":59,"velocity":100,"programNumber":1},{"time":110896.52400000009,"duration":206.89650000000256,"noteNumber":64,"velocity":100,"programNumber":1},{"time":111103.4205000001,"duration":206.89650000000256,"noteNumber":59,"velocity":100,"programNumber":1},{"time":111103.4205000001,"duration":206.89650000000256,"noteNumber":64,"velocity":100,"programNumber":1},{"time":111310.3170000001,"duration":206.89650000000256,"noteNumber":52,"velocity":100,"programNumber":1},{"time":111517.2135000001,"duration":206.89650000000256,"noteNumber":59,"velocity":100,"programNumber":1},{"time":111517.2135000001,"duration":206.89650000000256,"noteNumber":64,"velocity":100,"programNumber":1},{"time":111724.1100000001,"duration":206.89650000000256,"noteNumber":47,"velocity":100,"programNumber":1},{"time":111931.0065000001,"duration":206.89650000000256,"noteNumber":59,"velocity":100,"programNumber":1},{"time":112137.90300000011,"duration":413.7930000000051,"noteNumber":52,"velocity":100,"programNumber":1},{"time":126206.8650000001,"duration":206.89650000000256,"noteNumber":57,"velocity":100,"programNumber":1},{"time":126413.76150000011,"duration":206.89650000000256,"noteNumber":60,"velocity":100,"programNumber":1},{"time":126413.76150000011,"duration":206.89650000000256,"noteNumber":64,"velocity":100,"programNumber":1},{"time":126620.65800000011,"duration":206.89650000000256,"noteNumber":60,"velocity":100,"programNumber":1},{"time":126620.65800000011,"duration":206.89650000000256,"noteNumber":64,"velocity":100,"programNumber":1},{"time":126827.55450000011,"duration":206.89650000000256,"noteNumber":60,"velocity":100,"programNumber":1},{"time":126827.55450000011,"duration":206.89650000000256,"noteNumber":64,"velocity":100,"programNumber":1},{"time":127034.45100000012,"duration":206.89650000000256,"noteNumber":57,"velocity":100,"programNumber":1},{"time":127241.34750000012,"duration":206.89650000000256,"noteNumber":60,"velocity":100,"programNumber":1},{"time":127241.34750000012,"duration":206.89650000000256,"noteNumber":64,"velocity":100,"programNumber":1},{"time":127448.24400000012,"duration":206.89650000000256,"noteNumber":60,"velocity":100,"programNumber":1},{"time":127448.24400000012,"duration":206.89650000000256,"noteNumber":64,"velocity":100,"programNumber":1},{"time":127655.14050000013,"duration":206.89650000000256,"noteNumber":60,"velocity":100,"programNumber":1},{"time":127655.14050000013,"duration":206.89650000000256,"noteNumber":64,"velocity":100,"programNumber":1},{"time":127862.03700000013,"duration":206.89650000000256,"noteNumber":57,"velocity":100,"programNumber":1},{"time":128068.93350000013,"duration":206.89650000000256,"noteNumber":60,"velocity":100,"programNumber":1},{"time":128068.93350000013,"duration":206.89650000000256,"noteNumber":64,"velocity":100,"programNumber":1},{"time":128275.83000000013,"duration":206.89650000000256,"noteNumber":57,"velocity":100,"programNumber":1},{"time":128482.72650000014,"duration":206.89650000000256,"noteNumber":60,"velocity":100,"programNumber":1},{"time":128482.72650000014,"duration":206.89650000000256,"noteNumber":64,"velocity":100,"programNumber":1},{"time":128689.62300000014,"duration":206.89650000000256,"noteNumber":53,"velocity":100,"programNumber":1},{"time":128896.51950000014,"duration":206.89650000000256,"noteNumber":57,"velocity":100,"programNumber":1},{"time":128896.51950000014,"duration":206.89650000000256,"noteNumber":63,"velocity":100,"programNumber":1},{"time":129103.41600000014,"duration":206.89650000000256,"noteNumber":57,"velocity":100,"programNumber":1},{"time":129103.41600000014,"duration":206.89650000000256,"noteNumber":63,"velocity":100,"programNumber":1},{"time":129310.31250000015,"duration":206.89650000000256,"noteNumber":57,"velocity":100,"programNumber":1},{"time":129310.31250000015,"duration":206.89650000000256,"noteNumber":63,"velocity":100,"programNumber":1},{"time":129517.20900000015,"duration":206.89650000000256,"noteNumber":52,"velocity":100,"programNumber":1},{"time":129724.10550000015,"duration":206.89650000000256,"noteNumber":57,"velocity":100,"programNumber":1},{"time":129724.10550000015,"duration":206.89650000000256,"noteNumber":64,"velocity":100,"programNumber":1},{"time":129931.00200000015,"duration":206.89650000000256,"noteNumber":50,"velocity":100,"programNumber":1},{"time":130137.89850000016,"duration":206.89650000000256,"noteNumber":53,"velocity":100,"programNumber":1},{"time":130137.89850000016,"duration":206.89650000000256,"noteNumber":59,"velocity":100,"programNumber":1},{"time":130344.79500000016,"duration":206.89650000000256,"noteNumber":48,"velocity":100,"programNumber":1},{"time":130551.69150000016,"duration":206.89650000000256,"noteNumber":52,"velocity":100,"programNumber":1},{"time":130551.69150000016,"duration":206.89650000000256,"noteNumber":57,"velocity":100,"programNumber":1},{"time":130758.58800000016,"duration":206.89650000000256,"noteNumber":50,"velocity":100,"programNumber":1},{"time":130965.48450000017,"duration":206.89650000000256,"noteNumber":53,"velocity":100,"programNumber":1},{"time":130965.48450000017,"duration":206.89650000000256,"noteNumber":59,"velocity":100,"programNumber":1},{"time":131172.38100000017,"duration":206.89650000000256,"noteNumber":57,"velocity":100,"programNumber":1},{"time":131172.38100000017,"duration":206.89650000000256,"noteNumber":52,"velocity":100,"programNumber":1},{"time":131379.27750000017,"duration":206.89650000000256,"noteNumber":57,"velocity":100,"programNumber":1},{"time":131379.27750000017,"duration":206.89650000000256,"noteNumber":52,"velocity":100,"programNumber":1},{"time":131586.17400000017,"duration":206.89650000000256,"noteNumber":56,"velocity":100,"programNumber":1},{"time":131586.17400000017,"duration":206.89650000000256,"noteNumber":52,"velocity":100,"programNumber":1},{"time":131793.07050000018,"duration":206.89650000000256,"noteNumber":56,"velocity":100,"programNumber":1},{"time":131793.07050000018,"duration":206.89650000000256,"noteNumber":52,"velocity":100,"programNumber":1},{"time":131999.96700000018,"duration":413.7930000000051,"noteNumber":57,"velocity":100,"programNumber":1},{"time":131999.96700000018,"duration":413.7930000000051,"noteNumber":45,"velocity":100,"programNumber":1}],[{"time":6620.688,"duration":103.44825000000037,"noteNumber":71,"velocity":100,"programNumber":1},{"time":6724.1362500000005,"duration":103.44825000000037,"noteNumber":69,"velocity":100,"programNumber":1},{"time":6827.584500000001,"duration":103.44825000000037,"noteNumber":68,"velocity":100,"programNumber":1},{"time":6931.032750000001,"duration":103.44825000000037,"noteNumber":69,"velocity":100,"programNumber":1},{"time":7034.481000000002,"duration":206.89649999999983,"noteNumber":72,"velocity":100,"programNumber":1},{"time":7448.274000000001,"duration":103.44825000000037,"noteNumber":74,"velocity":100,"programNumber":1},{"time":7551.722250000002,"duration":103.44825000000037,"noteNumber":72,"velocity":100,"programNumber":1},{"time":7655.170500000002,"duration":103.44825000000037,"noteNumber":71,"velocity":100,"programNumber":1},{"time":7758.618750000002,"duration":103.44825000000037,"noteNumber":72,"velocity":100,"programNumber":1},{"time":7862.067000000003,"duration":206.89649999999983,"noteNumber":76,"velocity":100,"programNumber":1},{"time":8275.860000000002,"duration":103.44824999999946,"noteNumber":77,"velocity":100,"programNumber":1},{"time":8379.308250000002,"duration":103.44824999999946,"noteNumber":76,"velocity":100,"programNumber":1},{"time":8482.756500000001,"duration":103.44824999999946,"noteNumber":75,"velocity":100,"programNumber":1},{"time":8586.20475,"duration":103.44824999999946,"noteNumber":76,"velocity":100,"programNumber":1},{"time":8689.653,"duration":103.44824999999946,"noteNumber":83,"velocity":100,"programNumber":1},{"time":8793.10125,"duration":103.44824999999946,"noteNumber":81,"velocity":100,"programNumber":1},{"time":8896.5495,"duration":103.44824999999946,"noteNumber":80,"velocity":100,"programNumber":1},{"time":8999.997749999999,"duration":103.44824999999946,"noteNumber":81,"velocity":100,"programNumber":1},{"time":9103.445999999998,"duration":103.44824999999946,"noteNumber":83,"velocity":100,"programNumber":1},{"time":9206.894249999998,"duration":103.44824999999946,"noteNumber":81,"velocity":100,"programNumber":1},{"time":9310.342499999997,"duration":103.44824999999946,"noteNumber":80,"velocity":100,"programNumber":1},{"time":9413.790749999996,"duration":103.44824999999946,"noteNumber":81,"velocity":100,"programNumber":1},{"time":9517.238999999996,"duration":413.79299999999967,"noteNumber":84,"velocity":100,"programNumber":1},{"time":9931.031999999996,"duration":206.89650000000074,"noteNumber":81,"velocity":100,"programNumber":1},{"time":10137.928499999996,"duration":206.89650000000074,"noteNumber":84,"velocity":100,"programNumber":1},{"time":10344.824999999997,"duration":51.72412500000064,"noteNumber":79,"velocity":100,"programNumber":1},{"time":10396.549124999998,"duration":51.72412500000064,"noteNumber":81,"velocity":100,"programNumber":1},{"time":10448.273249999998,"duration":103.44824999999946,"noteNumber":83,"velocity":100,"programNumber":1},{"time":10551.721499999998,"duration":206.89650000000074,"noteNumber":81,"velocity":100,"programNumber":1},{"time":10551.721499999998,"duration":206.89650000000074,"noteNumber":78,"velocity":100,"programNumber":1},{"time":10758.617999999999,"duration":206.89650000000074,"noteNumber":76,"velocity":100,"programNumber":1},{"time":10758.617999999999,"duration":206.89650000000074,"noteNumber":79,"velocity":100,"programNumber":1},{"time":10965.5145,"duration":206.89650000000074,"noteNumber":78,"velocity":100,"programNumber":1},{"time":10965.5145,"duration":206.89650000000074,"noteNumber":81,"velocity":100,"programNumber":1},{"time":11172.411,"duration":51.72412500000064,"noteNumber":79,"velocity":100,"programNumber":1},{"time":11224.135125,"duration":51.72412500000064,"noteNumber":81,"velocity":100,"programNumber":1},{"time":11275.859250000001,"duration":103.44824999999946,"noteNumber":83,"velocity":100,"programNumber":1},{"time":11379.3075,"duration":206.89650000000074,"noteNumber":81,"velocity":100,"programNumber":1},{"time":11379.3075,"duration":206.89650000000074,"noteNumber":78,"velocity":100,"programNumber":1},{"time":11586.204000000002,"duration":206.89650000000074,"noteNumber":76,"velocity":100,"programNumber":1},{"time":11586.204000000002,"duration":206.89650000000074,"noteNumber":79,"velocity":100,"programNumber":1},{"time":11793.100500000002,"duration":206.89650000000074,"noteNumber":81,"velocity":100,"programNumber":1},{"time":11793.100500000002,"duration":206.89650000000074,"noteNumber":78,"velocity":100,"programNumber":1},{"time":11999.997000000003,"duration":51.72412500000064,"noteNumber":79,"velocity":100,"programNumber":1},{"time":12051.721125000004,"duration":51.72412500000064,"noteNumber":81,"velocity":100,"programNumber":1},{"time":12103.445250000004,"duration":103.44824999999946,"noteNumber":83,"velocity":100,"programNumber":1},{"time":12206.893500000004,"duration":206.89650000000074,"noteNumber":81,"velocity":100,"programNumber":1},{"time":12206.893500000004,"duration":206.89650000000074,"noteNumber":78,"velocity":100,"programNumber":1},{"time":12413.790000000005,"duration":206.89650000000074,"noteNumber":76,"velocity":100,"programNumber":1},{"time":12413.790000000005,"duration":206.89650000000074,"noteNumber":79,"velocity":100,"programNumber":1},{"time":12620.686500000005,"duration":206.89650000000074,"noteNumber":75,"velocity":100,"programNumber":1},{"time":12620.686500000005,"duration":206.89650000000074,"noteNumber":78,"velocity":100,"programNumber":1},{"time":12827.583000000006,"duration":413.79299999999967,"noteNumber":76,"velocity":100,"programNumber":1},{"time":33103.44,"duration":103.44825000000128,"noteNumber":71,"velocity":100,"programNumber":1},{"time":33206.88825,"duration":103.44825000000128,"noteNumber":69,"velocity":100,"programNumber":1},{"time":33310.336500000005,"duration":103.44825000000128,"noteNumber":68,"velocity":100,"programNumber":1},{"time":33413.784750000006,"duration":103.44825000000128,"noteNumber":69,"velocity":100,"programNumber":1},{"time":33517.23300000001,"duration":206.89650000000256,"noteNumber":72,"velocity":100,"programNumber":1},{"time":33931.02600000001,"duration":103.44825000000128,"noteNumber":74,"velocity":100,"programNumber":1},{"time":34034.474250000014,"duration":103.44825000000128,"noteNumber":72,"velocity":100,"programNumber":1},{"time":34137.922500000015,"duration":103.44825000000128,"noteNumber":71,"velocity":100,"programNumber":1},{"time":34241.37075000002,"duration":103.44825000000128,"noteNumber":72,"velocity":100,"programNumber":1},{"time":34344.81900000002,"duration":206.89650000000256,"noteNumber":76,"velocity":100,"programNumber":1},{"time":34758.61200000002,"duration":103.44825000000128,"noteNumber":77,"velocity":100,"programNumber":1},{"time":34862.060250000024,"duration":103.44825000000128,"noteNumber":76,"velocity":100,"programNumber":1},{"time":34965.508500000025,"duration":103.44825000000128,"noteNumber":75,"velocity":100,"programNumber":1},{"time":35068.95675000003,"duration":103.44825000000128,"noteNumber":76,"velocity":100,"programNumber":1},{"time":35172.40500000003,"duration":103.44825000000128,"noteNumber":83,"velocity":100,"programNumber":1},{"time":35275.85325000003,"duration":103.44825000000128,"noteNumber":81,"velocity":100,"programNumber":1},{"time":35379.30150000003,"duration":103.44825000000128,"noteNumber":80,"velocity":100,"programNumber":1},{"time":35482.74975000003,"duration":103.44825000000128,"noteNumber":81,"velocity":100,"programNumber":1},{"time":35586.19800000003,"duration":103.44825000000128,"noteNumber":83,"velocity":100,"programNumber":1},{"time":35689.646250000034,"duration":103.44825000000128,"noteNumber":81,"velocity":100,"programNumber":1},{"time":35793.094500000036,"duration":103.44825000000128,"noteNumber":80,"velocity":100,"programNumber":1},{"time":35896.54275000004,"duration":103.44825000000128,"noteNumber":81,"velocity":100,"programNumber":1},{"time":35999.99100000004,"duration":413.79299999999785,"noteNumber":84,"velocity":100,"programNumber":1},{"time":36413.784000000036,"duration":206.89650000000256,"noteNumber":81,"velocity":100,"programNumber":1},{"time":36620.68050000004,"duration":206.89650000000256,"noteNumber":83,"velocity":100,"programNumber":1},{"time":36827.57700000004,"duration":206.89650000000256,"noteNumber":84,"velocity":100,"programNumber":1},{"time":37034.473500000044,"duration":206.89650000000256,"noteNumber":83,"velocity":100,"programNumber":1},{"time":37241.370000000046,"duration":206.89650000000256,"noteNumber":81,"velocity":100,"programNumber":1},{"time":37448.26650000005,"duration":206.89650000000256,"noteNumber":80,"velocity":100,"programNumber":1},{"time":37655.16300000005,"duration":206.89650000000256,"noteNumber":81,"velocity":100,"programNumber":1},{"time":37862.059500000054,"duration":206.89650000000256,"noteNumber":76,"velocity":100,"programNumber":1},{"time":38068.95600000006,"duration":206.89650000000256,"noteNumber":77,"velocity":100,"programNumber":1},{"time":38275.85250000006,"duration":206.89650000000256,"noteNumber":74,"velocity":100,"programNumber":1},{"time":38482.74900000006,"duration":413.79299999999785,"noteNumber":72,"velocity":100,"programNumber":1},{"time":38896.54200000006,"duration":51.72412500000064,"noteNumber":72,"velocity":100,"programNumber":1},{"time":38948.26612500006,"duration":51.72412500000064,"noteNumber":71,"velocity":100,"programNumber":1},{"time":38999.99025000006,"duration":51.72412500000064,"noteNumber":72,"velocity":100,"programNumber":1},{"time":39051.71437500006,"duration":51.72412500000064,"noteNumber":71,"velocity":100,"programNumber":1},{"time":39103.43850000006,"duration":51.72412500000064,"noteNumber":72,"velocity":100,"programNumber":1},{"time":39155.16262500006,"duration":51.72412500000064,"noteNumber":71,"velocity":100,"programNumber":1},{"time":39206.88675000006,"duration":51.72412500000064,"noteNumber":69,"velocity":100,"programNumber":1},{"time":39258.610875000064,"duration":51.72412500000064,"noteNumber":71,"velocity":100,"programNumber":1},{"time":39310.335000000065,"duration":413.79299999999785,"noteNumber":69,"velocity":100,"programNumber":1},{"time":79448.25600000005,"duration":103.44825000000128,"noteNumber":76,"velocity":100,"programNumber":1},{"time":79551.70425000005,"duration":103.44825000000128,"noteNumber":74,"velocity":100,"programNumber":1},{"time":79655.15250000005,"duration":103.44825000000128,"noteNumber":73,"velocity":100,"programNumber":1},{"time":79758.60075000006,"duration":103.44825000000128,"noteNumber":71,"velocity":100,"programNumber":1},{"time":79862.04900000006,"duration":103.44825000000128,"noteNumber":69,"velocity":100,"programNumber":1},{"time":79965.49725000006,"duration":103.44825000000128,"noteNumber":71,"velocity":100,"programNumber":1},{"time":80068.94550000006,"duration":103.44825000000128,"noteNumber":73,"velocity":100,"programNumber":1},{"time":80172.39375000006,"duration":103.44825000000128,"noteNumber":74,"velocity":100,"programNumber":1},{"time":80275.84200000006,"duration":103.44825000000128,"noteNumber":76,"velocity":100,"programNumber":1},{"time":80379.29025000006,"duration":103.44825000000128,"noteNumber":78,"velocity":100,"programNumber":1},{"time":80482.73850000006,"duration":103.44825000000128,"noteNumber":80,"velocity":100,"programNumber":1},{"time":80586.18675000007,"duration":103.44825000000128,"noteNumber":81,"velocity":100,"programNumber":1},{"time":80689.63500000007,"duration":103.44825000000128,"noteNumber":81,"velocity":100,"programNumber":1},{"time":80793.08325000007,"duration":103.44825000000128,"noteNumber":80,"velocity":100,"programNumber":1},{"time":80896.53150000007,"duration":103.44825000000128,"noteNumber":78,"velocity":100,"programNumber":1},{"time":80999.97975000007,"duration":103.44825000000128,"noteNumber":76,"velocity":100,"programNumber":1},{"time":81103.42800000007,"duration":103.44825000000128,"noteNumber":76,"velocity":100,"programNumber":1},{"time":81206.87625000007,"duration":103.44825000000128,"noteNumber":74,"velocity":100,"programNumber":1},{"time":81310.32450000008,"duration":103.44825000000128,"noteNumber":73,"velocity":100,"programNumber":1},{"time":81413.77275000008,"duration":103.44825000000128,"noteNumber":71,"velocity":100,"programNumber":1},{"time":81517.22100000008,"duration":103.44825000000128,"noteNumber":69,"velocity":100,"programNumber":1},{"time":81620.66925000008,"duration":103.44825000000128,"noteNumber":71,"velocity":100,"programNumber":1},{"time":81724.11750000008,"duration":103.44825000000128,"noteNumber":73,"velocity":100,"programNumber":1},{"time":81827.56575000008,"duration":103.44825000000128,"noteNumber":74,"velocity":100,"programNumber":1},{"time":81931.01400000008,"duration":103.44825000000128,"noteNumber":76,"velocity":100,"programNumber":1},{"time":82034.46225000008,"duration":103.44825000000128,"noteNumber":78,"velocity":100,"programNumber":1},{"time":82137.91050000009,"duration":103.44825000000128,"noteNumber":80,"velocity":100,"programNumber":1},{"time":82241.35875000009,"duration":103.44825000000128,"noteNumber":81,"velocity":100,"programNumber":1},{"time":82344.80700000009,"duration":206.89650000000256,"noteNumber":82,"velocity":100,"programNumber":1},{"time":82551.70350000009,"duration":206.89650000000256,"noteNumber":83,"velocity":100,"programNumber":1},{"time":82758.6000000001,"duration":103.44825000000128,"noteNumber":76,"velocity":100,"programNumber":1},{"time":82862.0482500001,"duration":103.44825000000128,"noteNumber":74,"velocity":100,"programNumber":1},{"time":82965.4965000001,"duration":103.44825000000128,"noteNumber":73,"velocity":100,"programNumber":1},{"time":83068.9447500001,"duration":103.44825000000128,"noteNumber":71,"velocity":100,"programNumber":1},{"time":83172.3930000001,"duration":103.44825000000128,"noteNumber":69,"velocity":100,"programNumber":1},{"time":83275.8412500001,"duration":103.44825000000128,"noteNumber":71,"velocity":100,"programNumber":1},{"time":83379.2895000001,"duration":103.44825000000128,"noteNumber":73,"velocity":100,"programNumber":1},{"time":83482.7377500001,"duration":103.44825000000128,"noteNumber":74,"velocity":100,"programNumber":1},{"time":83586.1860000001,"duration":103.44825000000128,"noteNumber":76,"velocity":100,"programNumber":1},{"time":83689.6342500001,"duration":103.44825000000128,"noteNumber":78,"velocity":100,"programNumber":1},{"time":83793.0825000001,"duration":103.44825000000128,"noteNumber":80,"velocity":100,"programNumber":1},{"time":83896.5307500001,"duration":103.44825000000128,"noteNumber":81,"velocity":100,"programNumber":1},{"time":83999.97900000011,"duration":103.44825000000128,"noteNumber":81,"velocity":100,"programNumber":1},{"time":84103.42725000011,"duration":103.44825000000128,"noteNumber":80,"velocity":100,"programNumber":1},{"time":84206.87550000011,"duration":103.44825000000128,"noteNumber":78,"velocity":100,"programNumber":1},{"time":84310.32375000011,"duration":103.44825000000128,"noteNumber":76,"velocity":100,"programNumber":1},{"time":84413.77200000011,"duration":103.44825000000128,"noteNumber":76,"velocity":100,"programNumber":1},{"time":84517.22025000011,"duration":103.44825000000128,"noteNumber":74,"velocity":100,"programNumber":1},{"time":84620.66850000012,"duration":103.44825000000128,"noteNumber":73,"velocity":100,"programNumber":1},{"time":84724.11675000012,"duration":103.44825000000128,"noteNumber":71,"velocity":100,"programNumber":1},{"time":84827.56500000012,"duration":103.44825000000128,"noteNumber":73,"velocity":100,"programNumber":1},{"time":84931.01325000012,"duration":103.44825000000128,"noteNumber":76,"velocity":100,"programNumber":1},{"time":85034.46150000012,"duration":103.44825000000128,"noteNumber":69,"velocity":100,"programNumber":1},{"time":85137.90975000012,"duration":103.44825000000128,"noteNumber":73,"velocity":100,"programNumber":1},{"time":85241.35800000012,"duration":103.44825000000128,"noteNumber":71,"velocity":100,"programNumber":1},{"time":85344.80625000013,"duration":103.44825000000128,"noteNumber":74,"velocity":100,"programNumber":1},{"time":85448.25450000013,"duration":103.44825000000128,"noteNumber":68,"velocity":100,"programNumber":1},{"time":85551.70275000013,"duration":103.44825000000128,"noteNumber":71,"velocity":100,"programNumber":1},{"time":85655.15100000013,"duration":413.7930000000051,"noteNumber":69,"velocity":100,"programNumber":1},{"time":112551.69600000014,"duration":103.44825000000128,"noteNumber":71,"velocity":100,"programNumber":1},{"time":112655.14425000014,"duration":103.44825000000128,"noteNumber":69,"velocity":100,"programNumber":1},{"time":112758.59250000014,"duration":103.44825000000128,"noteNumber":68,"velocity":100,"programNumber":1},{"time":112862.04075000015,"duration":103.44825000000128,"noteNumber":69,"velocity":100,"programNumber":1},{"time":112965.48900000015,"duration":206.89650000000256,"noteNumber":72,"velocity":100,"programNumber":1},{"time":113379.28200000015,"duration":103.44825000000128,"noteNumber":74,"velocity":100,"programNumber":1},{"time":113482.73025000015,"duration":103.44825000000128,"noteNumber":72,"velocity":100,"programNumber":1},{"time":113586.17850000015,"duration":103.44825000000128,"noteNumber":71,"velocity":100,"programNumber":1},{"time":113689.62675000016,"duration":103.44825000000128,"noteNumber":72,"velocity":100,"programNumber":1},{"time":113793.07500000016,"duration":206.89650000000256,"noteNumber":76,"velocity":100,"programNumber":1},{"time":114206.86800000016,"duration":103.44825000000128,"noteNumber":77,"velocity":100,"programNumber":1},{"time":114310.31625000016,"duration":103.44825000000128,"noteNumber":76,"velocity":100,"programNumber":1},{"time":114413.76450000016,"duration":103.44825000000128,"noteNumber":75,"velocity":100,"programNumber":1},{"time":114517.21275000017,"duration":103.44825000000128,"noteNumber":76,"velocity":100,"programNumber":1},{"time":114620.66100000017,"duration":103.44825000000128,"noteNumber":83,"velocity":100,"programNumber":1},{"time":114724.10925000017,"duration":103.44825000000128,"noteNumber":81,"velocity":100,"programNumber":1},{"time":114827.55750000017,"duration":103.44825000000128,"noteNumber":80,"velocity":100,"programNumber":1},{"time":114931.00575000017,"duration":103.44825000000128,"noteNumber":81,"velocity":100,"programNumber":1},{"time":115034.45400000017,"duration":103.44825000000128,"noteNumber":83,"velocity":100,"programNumber":1},{"time":115137.90225000017,"duration":103.44825000000128,"noteNumber":81,"velocity":100,"programNumber":1},{"time":115241.35050000018,"duration":103.44825000000128,"noteNumber":80,"velocity":100,"programNumber":1},{"time":115344.79875000018,"duration":103.44825000000128,"noteNumber":81,"velocity":100,"programNumber":1},{"time":115448.24700000018,"duration":413.7930000000051,"noteNumber":84,"velocity":100,"programNumber":1},{"time":115862.04000000018,"duration":206.89650000000256,"noteNumber":81,"velocity":100,"programNumber":1},{"time":116068.93650000019,"duration":206.89650000000256,"noteNumber":84,"velocity":100,"programNumber":1},{"time":116275.83300000019,"duration":51.724124999993364,"noteNumber":79,"velocity":100,"programNumber":1},{"time":116327.55712500018,"duration":51.724124999993364,"noteNumber":81,"velocity":100,"programNumber":1},{"time":116379.28125000017,"duration":103.44825000000128,"noteNumber":83,"velocity":100,"programNumber":1},{"time":116482.72950000018,"duration":206.89650000000256,"noteNumber":81,"velocity":100,"programNumber":1},{"time":116482.72950000018,"duration":206.89650000000256,"noteNumber":78,"velocity":100,"programNumber":1},{"time":116689.62600000018,"duration":206.89650000000256,"noteNumber":76,"velocity":100,"programNumber":1},{"time":116689.62600000018,"duration":206.89650000000256,"noteNumber":79,"velocity":100,"programNumber":1},{"time":116896.52250000018,"duration":206.89650000000256,"noteNumber":78,"velocity":100,"programNumber":1},{"time":116896.52250000018,"duration":206.89650000000256,"noteNumber":81,"velocity":100,"programNumber":1},{"time":117103.41900000018,"duration":51.724124999993364,"noteNumber":79,"velocity":100,"programNumber":1},{"time":117155.14312500018,"duration":51.724124999993364,"noteNumber":81,"velocity":100,"programNumber":1},{"time":117206.86725000017,"duration":103.44825000000128,"noteNumber":83,"velocity":100,"programNumber":1},{"time":117310.31550000017,"duration":206.89650000000256,"noteNumber":81,"velocity":100,"programNumber":1},{"time":117310.31550000017,"duration":206.89650000000256,"noteNumber":78,"velocity":100,"programNumber":1},{"time":117517.21200000017,"duration":206.89650000000256,"noteNumber":76,"velocity":100,"programNumber":1},{"time":117517.21200000017,"duration":206.89650000000256,"noteNumber":79,"velocity":100,"programNumber":1},{"time":117724.10850000018,"duration":206.89650000000256,"noteNumber":81,"velocity":100,"programNumber":1},{"time":117724.10850000018,"duration":206.89650000000256,"noteNumber":78,"velocity":100,"programNumber":1},{"time":117931.00500000018,"duration":51.724124999993364,"noteNumber":79,"velocity":100,"programNumber":1},{"time":117982.72912500017,"duration":51.724124999993364,"noteNumber":81,"velocity":100,"programNumber":1},{"time":118034.45325000017,"duration":103.44825000000128,"noteNumber":83,"velocity":100,"programNumber":1},{"time":118137.90150000017,"duration":206.89650000000256,"noteNumber":81,"velocity":100,"programNumber":1},{"time":118137.90150000017,"duration":206.89650000000256,"noteNumber":78,"velocity":100,"programNumber":1},{"time":118344.79800000017,"duration":206.89650000000256,"noteNumber":76,"velocity":100,"programNumber":1},{"time":118344.79800000017,"duration":206.89650000000256,"noteNumber":79,"velocity":100,"programNumber":1},{"time":118551.69450000017,"duration":206.89650000000256,"noteNumber":75,"velocity":100,"programNumber":1},{"time":118551.69450000017,"duration":206.89650000000256,"noteNumber":78,"velocity":100,"programNumber":1},{"time":118758.59100000017,"duration":413.7930000000051,"noteNumber":76,"velocity":100,"programNumber":1},{"time":139034.44800000018,"duration":103.44824999998673,"noteNumber":71,"velocity":100,"programNumber":1},{"time":139137.89625000017,"duration":103.44824999998673,"noteNumber":69,"velocity":100,"programNumber":1},{"time":139241.34450000015,"duration":103.44824999998673,"noteNumber":68,"velocity":100,"programNumber":1},{"time":139344.79275000014,"duration":103.44824999998673,"noteNumber":69,"velocity":100,"programNumber":1},{"time":139448.24100000013,"duration":206.89650000000256,"noteNumber":72,"velocity":100,"programNumber":1},{"time":139862.03400000013,"duration":103.44824999998673,"noteNumber":74,"velocity":100,"programNumber":1},{"time":139965.48225000012,"duration":103.44824999998673,"noteNumber":72,"velocity":100,"programNumber":1},{"time":140068.9305000001,"duration":103.44824999998673,"noteNumber":71,"velocity":100,"programNumber":1},{"time":140172.3787500001,"duration":103.44824999998673,"noteNumber":72,"velocity":100,"programNumber":1},{"time":140275.82700000008,"duration":206.89650000000256,"noteNumber":76,"velocity":100,"programNumber":1},{"time":140689.62000000008,"duration":103.44824999998673,"noteNumber":77,"velocity":100,"programNumber":1},{"time":140793.06825000007,"duration":103.44824999998673,"noteNumber":76,"velocity":100,"programNumber":1},{"time":140896.51650000006,"duration":103.44824999998673,"noteNumber":75,"velocity":100,"programNumber":1},{"time":140999.96475000004,"duration":103.44824999998673,"noteNumber":76,"velocity":100,"programNumber":1},{"time":141103.41300000003,"duration":103.44824999998673,"noteNumber":83,"velocity":100,"programNumber":1},{"time":141206.86125000002,"duration":103.44824999998673,"noteNumber":81,"velocity":100,"programNumber":1},{"time":141310.3095,"duration":103.44824999998673,"noteNumber":80,"velocity":100,"programNumber":1},{"time":141413.75775,"duration":103.44824999998673,"noteNumber":81,"velocity":100,"programNumber":1},{"time":141517.20599999998,"duration":103.44824999998673,"noteNumber":83,"velocity":100,"programNumber":1},{"time":141620.65424999996,"duration":103.44824999998673,"noteNumber":81,"velocity":100,"programNumber":1},{"time":141724.10249999995,"duration":103.44824999998673,"noteNumber":80,"velocity":100,"programNumber":1},{"time":141827.55074999994,"duration":103.44824999998673,"noteNumber":81,"velocity":100,"programNumber":1},{"time":141930.99899999992,"duration":413.7930000000051,"noteNumber":84,"velocity":100,"programNumber":1},{"time":142344.79199999993,"duration":206.89650000000256,"noteNumber":81,"velocity":100,"programNumber":1},{"time":142551.68849999993,"duration":206.89650000000256,"noteNumber":83,"velocity":100,"programNumber":1},{"time":142758.58499999993,"duration":206.89650000000256,"noteNumber":84,"velocity":100,"programNumber":1},{"time":142965.48149999994,"duration":206.89650000000256,"noteNumber":83,"velocity":100,"programNumber":1},{"time":143172.37799999994,"duration":206.89650000000256,"noteNumber":81,"velocity":100,"programNumber":1},{"time":143379.27449999994,"duration":206.89650000000256,"noteNumber":80,"velocity":100,"programNumber":1},{"time":143586.17099999994,"duration":206.89650000000256,"noteNumber":81,"velocity":100,"programNumber":1},{"time":143793.06749999995,"duration":206.89650000000256,"noteNumber":76,"velocity":100,"programNumber":1},{"time":143999.96399999995,"duration":206.89650000000256,"noteNumber":77,"velocity":100,"programNumber":1},{"time":144206.86049999995,"duration":206.89650000000256,"noteNumber":74,"velocity":100,"programNumber":1},{"time":144413.75699999995,"duration":413.7930000000051,"noteNumber":72,"velocity":100,"programNumber":1},{"time":144827.54999999996,"duration":51.724125000007916,"noteNumber":72,"velocity":100,"programNumber":1},{"time":144879.27412499997,"duration":51.724125000007916,"noteNumber":71,"velocity":100,"programNumber":1},{"time":144930.99824999998,"duration":51.724125000007916,"noteNumber":72,"velocity":100,"programNumber":1},{"time":144982.72237499998,"duration":51.724125000007916,"noteNumber":71,"velocity":100,"programNumber":1},{"time":145034.4465,"duration":51.724125000007916,"noteNumber":72,"velocity":100,"programNumber":1},{"time":145086.170625,"duration":51.724125000007916,"noteNumber":71,"velocity":100,"programNumber":1},{"time":145137.89475,"duration":51.724125000007916,"noteNumber":69,"velocity":100,"programNumber":1},{"time":145189.61887500001,"duration":51.724125000007916,"noteNumber":71,"velocity":100,"programNumber":1},{"time":145241.34300000002,"duration":413.7930000000051,"noteNumber":69,"velocity":100,"programNumber":1}],[{"time":7034.481,"duration":206.89649999999983,"noteNumber":57,"velocity":100,"programNumber":1},{"time":7241.3775,"duration":206.89649999999983,"noteNumber":60,"velocity":100,"programNumber":1},{"time":7241.3775,"duration":206.89649999999983,"noteNumber":64,"velocity":100,"programNumber":1},{"time":7448.273999999999,"duration":206.89649999999983,"noteNumber":60,"velocity":100,"programNumber":1},{"time":7448.273999999999,"duration":206.89649999999983,"noteNumber":64,"velocity":100,"programNumber":1},{"time":7655.170499999999,"duration":206.89649999999983,"noteNumber":60,"velocity":100,"programNumber":1},{"time":7655.170499999999,"duration":206.89649999999983,"noteNumber":64,"velocity":100,"programNumber":1},{"time":7862.066999999999,"duration":206.89649999999983,"noteNumber":57,"velocity":100,"programNumber":1},{"time":8068.963499999999,"duration":206.89649999999983,"noteNumber":60,"velocity":100,"programNumber":1},{"time":8068.963499999999,"duration":206.89649999999983,"noteNumber":64,"velocity":100,"programNumber":1},{"time":8275.859999999999,"duration":206.89650000000074,"noteNumber":60,"velocity":100,"programNumber":1},{"time":8275.859999999999,"duration":206.89650000000074,"noteNumber":64,"velocity":100,"programNumber":1},{"time":8482.7565,"duration":206.89650000000074,"noteNumber":60,"velocity":100,"programNumber":1},{"time":8482.7565,"duration":206.89650000000074,"noteNumber":64,"velocity":100,"programNumber":1},{"time":8689.653,"duration":206.89650000000074,"noteNumber":57,"velocity":100,"programNumber":1},{"time":8896.549500000001,"duration":206.89650000000074,"noteNumber":60,"velocity":100,"programNumber":1},{"time":8896.549500000001,"duration":206.89650000000074,"noteNumber":64,"velocity":100,"programNumber":1},{"time":9103.446000000002,"duration":206.89650000000074,"noteNumber":57,"velocity":100,"programNumber":1},{"time":9310.342500000002,"duration":206.89650000000074,"noteNumber":60,"velocity":100,"programNumber":1},{"time":9310.342500000002,"duration":206.89650000000074,"noteNumber":64,"velocity":100,"programNumber":1},{"time":9517.239000000003,"duration":206.89650000000074,"noteNumber":57,"velocity":100,"programNumber":1},{"time":9724.135500000004,"duration":206.89650000000074,"noteNumber":60,"velocity":100,"programNumber":1},{"time":9724.135500000004,"duration":206.89650000000074,"noteNumber":64,"velocity":100,"programNumber":1},{"time":9931.032000000005,"duration":206.89650000000074,"noteNumber":60,"velocity":100,"programNumber":1},{"time":9931.032000000005,"duration":206.89650000000074,"noteNumber":64,"velocity":100,"programNumber":1},{"time":10137.928500000005,"duration":206.89650000000074,"noteNumber":60,"velocity":100,"programNumber":1},{"time":10137.928500000005,"duration":206.89650000000074,"noteNumber":64,"velocity":100,"programNumber":1},{"time":10344.825000000006,"duration":206.89650000000074,"noteNumber":52,"velocity":100,"programNumber":1},{"time":10551.721500000007,"duration":206.89650000000074,"noteNumber":59,"velocity":100,"programNumber":1},{"time":10551.721500000007,"duration":206.89650000000074,"noteNumber":64,"velocity":100,"programNumber":1},{"time":10758.618000000008,"duration":206.89650000000074,"noteNumber":59,"velocity":100,"programNumber":1},{"time":10758.618000000008,"duration":206.89650000000074,"noteNumber":64,"velocity":100,"programNumber":1},{"time":10965.514500000008,"duration":206.89650000000074,"noteNumber":59,"velocity":100,"programNumber":1},{"time":10965.514500000008,"duration":206.89650000000074,"noteNumber":64,"velocity":100,"programNumber":1},{"time":11172.41100000001,"duration":206.89650000000074,"noteNumber":52,"velocity":100,"programNumber":1},{"time":11379.30750000001,"duration":206.89650000000074,"noteNumber":59,"velocity":100,"programNumber":1},{"time":11379.30750000001,"duration":206.89650000000074,"noteNumber":64,"velocity":100,"programNumber":1},{"time":11586.20400000001,"duration":206.89650000000074,"noteNumber":59,"velocity":100,"programNumber":1},{"time":11586.20400000001,"duration":206.89650000000074,"noteNumber":64,"velocity":100,"programNumber":1},{"time":11793.100500000011,"duration":206.89650000000074,"noteNumber":59,"velocity":100,"programNumber":1},{"time":11793.100500000011,"duration":206.89650000000074,"noteNumber":64,"velocity":100,"programNumber":1},{"time":11999.997000000012,"duration":206.89650000000074,"noteNumber":52,"velocity":100,"programNumber":1},{"time":12206.893500000013,"duration":206.89650000000074,"noteNumber":59,"velocity":100,"programNumber":1},{"time":12206.893500000013,"duration":206.89650000000074,"noteNumber":64,"velocity":100,"programNumber":1},{"time":12413.790000000014,"duration":206.89650000000074,"noteNumber":47,"velocity":100,"programNumber":1},{"time":12620.686500000014,"duration":206.89650000000074,"noteNumber":59,"velocity":100,"programNumber":1},{"time":12827.583000000015,"duration":413.79299999999967,"noteNumber":52,"velocity":100,"programNumber":1},{"time":33517.233000000015,"duration":206.89650000000256,"noteNumber":57,"velocity":100,"programNumber":1},{"time":33724.12950000002,"duration":206.89650000000256,"noteNumber":60,"velocity":100,"programNumber":1},{"time":33724.12950000002,"duration":206.89650000000256,"noteNumber":64,"velocity":100,"programNumber":1},{"time":33931.02600000002,"duration":206.89650000000256,"noteNumber":60,"velocity":100,"programNumber":1},{"time":33931.02600000002,"duration":206.89650000000256,"noteNumber":64,"velocity":100,"programNumber":1},{"time":34137.92250000002,"duration":206.89650000000256,"noteNumber":60,"velocity":100,"programNumber":1},{"time":34137.92250000002,"duration":206.89650000000256,"noteNumber":64,"velocity":100,"programNumber":1},{"time":34344.819000000025,"duration":206.89650000000256,"noteNumber":57,"velocity":100,"programNumber":1},{"time":34551.71550000003,"duration":206.89650000000256,"noteNumber":60,"velocity":100,"programNumber":1},{"time":34551.71550000003,"duration":206.89650000000256,"noteNumber":64,"velocity":100,"programNumber":1},{"time":34758.61200000003,"duration":206.89650000000256,"noteNumber":60,"velocity":100,"programNumber":1},{"time":34758.61200000003,"duration":206.89650000000256,"noteNumber":64,"velocity":100,"programNumber":1},{"time":34965.50850000003,"duration":206.89650000000256,"noteNumber":60,"velocity":100,"programNumber":1},{"time":34965.50850000003,"duration":206.89650000000256,"noteNumber":64,"velocity":100,"programNumber":1},{"time":35172.405000000035,"duration":206.89650000000256,"noteNumber":57,"velocity":100,"programNumber":1},{"time":35379.30150000004,"duration":206.89650000000256,"noteNumber":60,"velocity":100,"programNumber":1},{"time":35379.30150000004,"duration":206.89650000000256,"noteNumber":64,"velocity":100,"programNumber":1},{"time":35586.19800000004,"duration":206.89650000000256,"noteNumber":57,"velocity":100,"programNumber":1},{"time":35793.09450000004,"duration":206.89650000000256,"noteNumber":60,"velocity":100,"programNumber":1},{"time":35793.09450000004,"duration":206.89650000000256,"noteNumber":64,"velocity":100,"programNumber":1},{"time":35999.991000000045,"duration":206.89650000000256,"noteNumber":53,"velocity":100,"programNumber":1},{"time":36206.88750000005,"duration":206.89650000000256,"noteNumber":57,"velocity":100,"programNumber":1},{"time":36206.88750000005,"duration":206.89650000000256,"noteNumber":63,"velocity":100,"programNumber":1},{"time":36413.78400000005,"duration":206.89650000000256,"noteNumber":57,"velocity":100,"programNumber":1},{"time":36413.78400000005,"duration":206.89650000000256,"noteNumber":63,"velocity":100,"programNumber":1},{"time":36620.68050000005,"duration":206.89650000000256,"noteNumber":57,"velocity":100,"programNumber":1},{"time":36620.68050000005,"duration":206.89650000000256,"noteNumber":63,"velocity":100,"programNumber":1},{"time":36827.577000000056,"duration":206.89650000000256,"noteNumber":52,"velocity":100,"programNumber":1},{"time":37034.47350000006,"duration":206.89650000000256,"noteNumber":57,"velocity":100,"programNumber":1},{"time":37034.47350000006,"duration":206.89650000000256,"noteNumber":64,"velocity":100,"programNumber":1},{"time":37241.37000000006,"duration":206.89650000000256,"noteNumber":50,"velocity":100,"programNumber":1},{"time":37448.26650000006,"duration":206.89650000000256,"noteNumber":53,"velocity":100,"programNumber":1},{"time":37448.26650000006,"duration":206.89650000000256,"noteNumber":59,"velocity":100,"programNumber":1},{"time":37655.163000000066,"duration":206.89650000000256,"noteNumber":48,"velocity":100,"programNumber":1},{"time":37862.05950000007,"duration":206.89650000000256,"noteNumber":52,"velocity":100,"programNumber":1},{"time":37862.05950000007,"duration":206.89650000000256,"noteNumber":57,"velocity":100,"programNumber":1},{"time":38068.95600000007,"duration":206.89650000000256,"noteNumber":50,"velocity":100,"programNumber":1},{"time":38275.85250000007,"duration":206.89650000000256,"noteNumber":53,"velocity":100,"programNumber":1},{"time":38275.85250000007,"duration":206.89650000000256,"noteNumber":59,"velocity":100,"programNumber":1},{"time":38482.749000000076,"duration":206.89650000000256,"noteNumber":57,"velocity":100,"programNumber":1},{"time":38482.749000000076,"duration":206.89650000000256,"noteNumber":52,"velocity":100,"programNumber":1},{"time":38689.64550000008,"duration":206.89650000000256,"noteNumber":57,"velocity":100,"programNumber":1},{"time":38689.64550000008,"duration":206.89650000000256,"noteNumber":52,"velocity":100,"programNumber":1},{"time":38896.54200000008,"duration":206.89650000000256,"noteNumber":56,"velocity":100,"programNumber":1},{"time":38896.54200000008,"duration":206.89650000000256,"noteNumber":52,"velocity":100,"programNumber":1},{"time":39103.438500000084,"duration":206.89650000000256,"noteNumber":56,"velocity":100,"programNumber":1},{"time":39103.438500000084,"duration":206.89650000000256,"noteNumber":52,"velocity":100,"programNumber":1},{"time":39310.33500000009,"duration":413.79299999999785,"noteNumber":57,"velocity":100,"programNumber":1},{"time":39310.33500000009,"duration":413.79299999999785,"noteNumber":45,"velocity":100,"programNumber":1},{"time":79862.04900000009,"duration":206.89650000000256,"noteNumber":57,"velocity":100,"programNumber":1},{"time":80068.94550000009,"duration":206.89650000000256,"noteNumber":61,"velocity":100,"programNumber":1},{"time":80068.94550000009,"duration":206.89650000000256,"noteNumber":64,"velocity":100,"programNumber":1},{"time":80275.84200000009,"duration":206.89650000000256,"noteNumber":61,"velocity":100,"programNumber":1},{"time":80275.84200000009,"duration":206.89650000000256,"noteNumber":64,"velocity":100,"programNumber":1},{"time":80482.7385000001,"duration":206.89650000000256,"noteNumber":61,"velocity":100,"programNumber":1},{"time":80482.7385000001,"duration":206.89650000000256,"noteNumber":64,"velocity":100,"programNumber":1},{"time":80689.6350000001,"duration":206.89650000000256,"noteNumber":59,"velocity":100,"programNumber":1},{"time":80896.5315000001,"duration":206.89650000000256,"noteNumber":62,"velocity":100,"programNumber":1},{"time":80896.5315000001,"duration":206.89650000000256,"noteNumber":64,"velocity":100,"programNumber":1},{"time":81103.4280000001,"duration":206.89650000000256,"noteNumber":56,"velocity":100,"programNumber":1},{"time":81310.3245000001,"duration":206.89650000000256,"noteNumber":62,"velocity":100,"programNumber":1},{"time":81310.3245000001,"duration":206.89650000000256,"noteNumber":64,"velocity":100,"programNumber":1},{"time":81517.2210000001,"duration":206.89650000000256,"noteNumber":57,"velocity":100,"programNumber":1},{"time":81724.11750000011,"duration":206.89650000000256,"noteNumber":61,"velocity":100,"programNumber":1},{"time":81724.11750000011,"duration":206.89650000000256,"noteNumber":64,"velocity":100,"programNumber":1},{"time":81931.01400000011,"duration":206.89650000000256,"noteNumber":61,"velocity":100,"programNumber":1},{"time":81931.01400000011,"duration":206.89650000000256,"noteNumber":64,"velocity":100,"programNumber":1},{"time":82137.91050000011,"duration":206.89650000000256,"noteNumber":61,"velocity":100,"programNumber":1},{"time":82137.91050000011,"duration":206.89650000000256,"noteNumber":64,"velocity":100,"programNumber":1},{"time":82344.80700000012,"duration":206.89650000000256,"noteNumber":52,"velocity":100,"programNumber":1},{"time":82551.70350000012,"duration":206.89650000000256,"noteNumber":56,"velocity":100,"programNumber":1},{"time":82551.70350000012,"duration":206.89650000000256,"noteNumber":62,"velocity":100,"programNumber":1},{"time":82758.60000000012,"duration":206.89650000000256,"noteNumber":56,"velocity":100,"programNumber":1},{"time":82758.60000000012,"duration":206.89650000000256,"noteNumber":62,"velocity":100,"programNumber":1},{"time":82965.49650000012,"duration":206.89650000000256,"noteNumber":56,"velocity":100,"programNumber":1},{"time":82965.49650000012,"duration":206.89650000000256,"noteNumber":62,"velocity":100,"programNumber":1},{"time":83172.39300000013,"duration":206.89650000000256,"noteNumber":57,"velocity":100,"programNumber":1},{"time":83379.28950000013,"duration":206.89650000000256,"noteNumber":61,"velocity":100,"programNumber":1},{"time":83379.28950000013,"duration":206.89650000000256,"noteNumber":64,"velocity":100,"programNumber":1},{"time":83586.18600000013,"duration":206.89650000000256,"noteNumber":61,"velocity":100,"programNumber":1},{"time":83586.18600000013,"duration":206.89650000000256,"noteNumber":64,"velocity":100,"programNumber":1},{"time":83793.08250000014,"duration":206.89650000000256,"noteNumber":61,"velocity":100,"programNumber":1},{"time":83793.08250000014,"duration":206.89650000000256,"noteNumber":64,"velocity":100,"programNumber":1},{"time":83999.97900000014,"duration":206.89650000000256,"noteNumber":59,"velocity":100,"programNumber":1},{"time":84206.87550000014,"duration":206.89650000000256,"noteNumber":62,"velocity":100,"programNumber":1},{"time":84206.87550000014,"duration":206.89650000000256,"noteNumber":64,"velocity":100,"programNumber":1},{"time":84413.77200000014,"duration":206.89650000000256,"noteNumber":56,"velocity":100,"programNumber":1},{"time":84620.66850000015,"duration":206.89650000000256,"noteNumber":62,"velocity":100,"programNumber":1},{"time":84620.66850000015,"duration":206.89650000000256,"noteNumber":64,"velocity":100,"programNumber":1},{"time":84827.56500000015,"duration":206.89650000000256,"noteNumber":57,"velocity":100,"programNumber":1},{"time":85034.46150000015,"duration":206.89650000000256,"noteNumber":54,"velocity":100,"programNumber":1},{"time":85241.35800000015,"duration":206.89650000000256,"noteNumber":50,"velocity":100,"programNumber":1},{"time":85448.25450000016,"duration":206.89650000000256,"noteNumber":52,"velocity":100,"programNumber":1},{"time":85655.15100000016,"duration":206.89650000000256,"noteNumber":45,"velocity":100,"programNumber":1},{"time":85862.04750000016,"duration":206.89650000000256,"noteNumber":57,"velocity":100,"programNumber":1},{"time":112965.48900000016,"duration":206.89650000000256,"noteNumber":57,"velocity":100,"programNumber":1},{"time":113172.38550000016,"duration":206.89650000000256,"noteNumber":60,"velocity":100,"programNumber":1},{"time":113172.38550000016,"duration":206.89650000000256,"noteNumber":64,"velocity":100,"programNumber":1},{"time":113379.28200000017,"duration":206.89650000000256,"noteNumber":60,"velocity":100,"programNumber":1},{"time":113379.28200000017,"duration":206.89650000000256,"noteNumber":64,"velocity":100,"programNumber":1},{"time":113586.17850000017,"duration":206.89650000000256,"noteNumber":60,"velocity":100,"programNumber":1},{"time":113586.17850000017,"duration":206.89650000000256,"noteNumber":64,"velocity":100,"programNumber":1},{"time":113793.07500000017,"duration":206.89650000000256,"noteNumber":57,"velocity":100,"programNumber":1},{"time":113999.97150000017,"duration":206.89650000000256,"noteNumber":60,"velocity":100,"programNumber":1},{"time":113999.97150000017,"duration":206.89650000000256,"noteNumber":64,"velocity":100,"programNumber":1},{"time":114206.86800000018,"duration":206.89650000000256,"noteNumber":60,"velocity":100,"programNumber":1},{"time":114206.86800000018,"duration":206.89650000000256,"noteNumber":64,"velocity":100,"programNumber":1},{"time":114413.76450000018,"duration":206.89650000000256,"noteNumber":60,"velocity":100,"programNumber":1},{"time":114413.76450000018,"duration":206.89650000000256,"noteNumber":64,"velocity":100,"programNumber":1},{"time":114620.66100000018,"duration":206.89650000000256,"noteNumber":57,"velocity":100,"programNumber":1},{"time":114827.55750000018,"duration":206.89650000000256,"noteNumber":60,"velocity":100,"programNumber":1},{"time":114827.55750000018,"duration":206.89650000000256,"noteNumber":64,"velocity":100,"programNumber":1},{"time":115034.45400000019,"duration":206.89650000000256,"noteNumber":57,"velocity":100,"programNumber":1},{"time":115241.35050000019,"duration":206.89650000000256,"noteNumber":60,"velocity":100,"programNumber":1},{"time":115241.35050000019,"duration":206.89650000000256,"noteNumber":64,"velocity":100,"programNumber":1},{"time":115448.24700000019,"duration":206.89650000000256,"noteNumber":57,"velocity":100,"programNumber":1},{"time":115655.1435000002,"duration":206.89650000000256,"noteNumber":60,"velocity":100,"programNumber":1},{"time":115655.1435000002,"duration":206.89650000000256,"noteNumber":64,"velocity":100,"programNumber":1},{"time":115862.0400000002,"duration":206.89650000000256,"noteNumber":60,"velocity":100,"programNumber":1},{"time":115862.0400000002,"duration":206.89650000000256,"noteNumber":64,"velocity":100,"programNumber":1},{"time":116068.9365000002,"duration":206.89650000000256,"noteNumber":60,"velocity":100,"programNumber":1},{"time":116068.9365000002,"duration":206.89650000000256,"noteNumber":64,"velocity":100,"programNumber":1},{"time":116275.8330000002,"duration":206.89650000000256,"noteNumber":52,"velocity":100,"programNumber":1},{"time":116482.7295000002,"duration":206.89650000000256,"noteNumber":59,"velocity":100,"programNumber":1},{"time":116482.7295000002,"duration":206.89650000000256,"noteNumber":64,"velocity":100,"programNumber":1},{"time":116689.62600000021,"duration":206.89650000000256,"noteNumber":59,"velocity":100,"programNumber":1},{"time":116689.62600000021,"duration":206.89650000000256,"noteNumber":64,"velocity":100,"programNumber":1},{"time":116896.52250000021,"duration":206.89650000000256,"noteNumber":59,"velocity":100,"programNumber":1},{"time":116896.52250000021,"duration":206.89650000000256,"noteNumber":64,"velocity":100,"programNumber":1},{"time":117103.41900000021,"duration":206.89650000000256,"noteNumber":52,"velocity":100,"programNumber":1},{"time":117310.31550000022,"duration":206.89650000000256,"noteNumber":59,"velocity":100,"programNumber":1},{"time":117310.31550000022,"duration":206.89650000000256,"noteNumber":64,"velocity":100,"programNumber":1},{"time":117517.21200000022,"duration":206.89650000000256,"noteNumber":59,"velocity":100,"programNumber":1},{"time":117517.21200000022,"duration":206.89650000000256,"noteNumber":64,"velocity":100,"programNumber":1},{"time":117724.10850000022,"duration":206.89650000000256,"noteNumber":59,"velocity":100,"programNumber":1},{"time":117724.10850000022,"duration":206.89650000000256,"noteNumber":64,"velocity":100,"programNumber":1},{"time":117931.00500000022,"duration":206.89650000000256,"noteNumber":52,"velocity":100,"programNumber":1},{"time":118137.90150000023,"duration":206.89650000000256,"noteNumber":59,"velocity":100,"programNumber":1},{"time":118137.90150000023,"duration":206.89650000000256,"noteNumber":64,"velocity":100,"programNumber":1},{"time":118344.79800000023,"duration":206.89650000000256,"noteNumber":47,"velocity":100,"programNumber":1},{"time":118551.69450000023,"duration":206.89650000000256,"noteNumber":59,"velocity":100,"programNumber":1},{"time":118758.59100000023,"duration":413.7930000000051,"noteNumber":52,"velocity":100,"programNumber":1},{"time":139448.24100000024,"duration":206.89650000000256,"noteNumber":57,"velocity":100,"programNumber":1},{"time":139655.13750000024,"duration":206.89650000000256,"noteNumber":60,"velocity":100,"programNumber":1},{"time":139655.13750000024,"duration":206.89650000000256,"noteNumber":64,"velocity":100,"programNumber":1},{"time":139862.03400000025,"duration":206.89650000000256,"noteNumber":60,"velocity":100,"programNumber":1},{"time":139862.03400000025,"duration":206.89650000000256,"noteNumber":64,"velocity":100,"programNumber":1},{"time":140068.93050000025,"duration":206.89650000000256,"noteNumber":60,"velocity":100,"programNumber":1},{"time":140068.93050000025,"duration":206.89650000000256,"noteNumber":64,"velocity":100,"programNumber":1},{"time":140275.82700000025,"duration":206.89650000000256,"noteNumber":57,"velocity":100,"programNumber":1},{"time":140482.72350000025,"duration":206.89650000000256,"noteNumber":60,"velocity":100,"programNumber":1},{"time":140482.72350000025,"duration":206.89650000000256,"noteNumber":64,"velocity":100,"programNumber":1},{"time":140689.62000000026,"duration":206.89650000000256,"noteNumber":60,"velocity":100,"programNumber":1},{"time":140689.62000000026,"duration":206.89650000000256,"noteNumber":64,"velocity":100,"programNumber":1},{"time":140896.51650000026,"duration":206.89650000000256,"noteNumber":60,"velocity":100,"programNumber":1},{"time":140896.51650000026,"duration":206.89650000000256,"noteNumber":64,"velocity":100,"programNumber":1},{"time":141103.41300000026,"duration":206.89650000000256,"noteNumber":57,"velocity":100,"programNumber":1},{"time":141310.30950000026,"duration":206.89650000000256,"noteNumber":60,"velocity":100,"programNumber":1},{"time":141310.30950000026,"duration":206.89650000000256,"noteNumber":64,"velocity":100,"programNumber":1},{"time":141517.20600000027,"duration":206.89650000000256,"noteNumber":57,"velocity":100,"programNumber":1},{"time":141724.10250000027,"duration":206.89650000000256,"noteNumber":60,"velocity":100,"programNumber":1},{"time":141724.10250000027,"duration":206.89650000000256,"noteNumber":64,"velocity":100,"programNumber":1},{"time":141930.99900000027,"duration":206.89650000000256,"noteNumber":53,"velocity":100,"programNumber":1},{"time":142137.89550000028,"duration":206.89650000000256,"noteNumber":57,"velocity":100,"programNumber":1},{"time":142137.89550000028,"duration":206.89650000000256,"noteNumber":63,"velocity":100,"programNumber":1},{"time":142344.79200000028,"duration":206.89650000000256,"noteNumber":57,"velocity":100,"programNumber":1},{"time":142344.79200000028,"duration":206.89650000000256,"noteNumber":63,"velocity":100,"programNumber":1},{"time":142551.68850000028,"duration":206.89650000000256,"noteNumber":57,"velocity":100,"programNumber":1},{"time":142551.68850000028,"duration":206.89650000000256,"noteNumber":63,"velocity":100,"programNumber":1},{"time":142758.58500000028,"duration":206.89650000000256,"noteNumber":52,"velocity":100,"programNumber":1},{"time":142965.4815000003,"duration":206.89650000000256,"noteNumber":57,"velocity":100,"programNumber":1},{"time":142965.4815000003,"duration":206.89650000000256,"noteNumber":64,"velocity":100,"programNumber":1},{"time":143172.3780000003,"duration":206.89650000000256,"noteNumber":50,"velocity":100,"programNumber":1},{"time":143379.2745000003,"duration":206.89650000000256,"noteNumber":53,"velocity":100,"programNumber":1},{"time":143379.2745000003,"duration":206.89650000000256,"noteNumber":59,"velocity":100,"programNumber":1},{"time":143586.1710000003,"duration":206.89650000000256,"noteNumber":48,"velocity":100,"programNumber":1},{"time":143793.0675000003,"duration":206.89650000000256,"noteNumber":52,"velocity":100,"programNumber":1},{"time":143793.0675000003,"duration":206.89650000000256,"noteNumber":57,"velocity":100,"programNumber":1},{"time":143999.9640000003,"duration":206.89650000000256,"noteNumber":50,"velocity":100,"programNumber":1},{"time":144206.8605000003,"duration":206.89650000000256,"noteNumber":53,"velocity":100,"programNumber":1},{"time":144206.8605000003,"duration":206.89650000000256,"noteNumber":59,"velocity":100,"programNumber":1},{"time":144413.7570000003,"duration":206.89650000000256,"noteNumber":57,"velocity":100,"programNumber":1},{"time":144413.7570000003,"duration":206.89650000000256,"noteNumber":52,"velocity":100,"programNumber":1},{"time":144620.6535000003,"duration":206.89650000000256,"noteNumber":57,"velocity":100,"programNumber":1},{"time":144620.6535000003,"duration":206.89650000000256,"noteNumber":52,"velocity":100,"programNumber":1},{"time":144827.5500000003,"duration":206.89650000000256,"noteNumber":56,"velocity":100,"programNumber":1},{"time":144827.5500000003,"duration":206.89650000000256,"noteNumber":52,"velocity":100,"programNumber":1},{"time":145034.4465000003,"duration":206.89650000000256,"noteNumber":56,"velocity":100,"programNumber":1},{"time":145034.4465000003,"duration":206.89650000000256,"noteNumber":52,"velocity":100,"programNumber":1},{"time":145241.3430000003,"duration":413.7930000000051,"noteNumber":57,"velocity":100,"programNumber":1},{"time":145241.3430000003,"duration":413.7930000000051,"noteNumber":45,"velocity":100,"programNumber":1}],[{"time":13241.376,"duration":206.89650000000074,"noteNumber":76,"velocity":100,"programNumber":0},{"time":13241.376,"duration":206.89650000000074,"noteNumber":72,"velocity":100,"programNumber":0},{"time":13448.272500000001,"duration":206.89650000000074,"noteNumber":77,"velocity":100,"programNumber":0},{"time":13448.272500000001,"duration":206.89650000000074,"noteNumber":74,"velocity":100,"programNumber":0},{"time":13655.169000000002,"duration":206.89650000000074,"noteNumber":76,"velocity":100,"programNumber":0},{"time":13655.169000000002,"duration":206.89650000000074,"noteNumber":79,"velocity":100,"programNumber":0},{"time":13862.065500000002,"duration":206.89650000000074,"noteNumber":76,"velocity":100,"programNumber":0},{"time":13862.065500000002,"duration":206.89650000000074,"noteNumber":79,"velocity":100,"programNumber":0},{"time":14068.962000000003,"duration":103.44824999999946,"noteNumber":81,"velocity":100,"programNumber":0},{"time":14172.410250000003,"duration":103.44824999999946,"noteNumber":79,"velocity":100,"programNumber":0},{"time":14275.858500000002,"duration":103.44824999999946,"noteNumber":77,"velocity":100,"programNumber":0},{"time":14379.306750000002,"duration":103.44824999999946,"noteNumber":76,"velocity":100,"programNumber":0},{"time":14482.755000000001,"duration":206.89650000000074,"noteNumber":71,"velocity":100,"programNumber":0},{"time":14689.651500000002,"duration":206.89650000000074,"noteNumber":67,"velocity":100,"programNumber":0},{"time":14482.755000000001,"duration":413.7930000000015,"noteNumber":74,"velocity":100,"programNumber":0},{"time":14896.548000000003,"duration":206.89650000000074,"noteNumber":72,"velocity":100,"programNumber":0},{"time":14896.548000000003,"duration":206.89650000000074,"noteNumber":76,"velocity":100,"programNumber":0},{"time":15103.444500000003,"duration":206.89650000000074,"noteNumber":74,"velocity":100,"programNumber":0},{"time":15103.444500000003,"duration":206.89650000000074,"noteNumber":77,"velocity":100,"programNumber":0},{"time":15310.341000000004,"duration":206.89650000000074,"noteNumber":76,"velocity":100,"programNumber":0},{"time":15310.341000000004,"duration":206.89650000000074,"noteNumber":79,"velocity":100,"programNumber":0},{"time":15517.237500000005,"duration":206.89650000000074,"noteNumber":76,"velocity":100,"programNumber":0},{"time":15517.237500000005,"duration":206.89650000000074,"noteNumber":79,"velocity":100,"programNumber":0},{"time":15724.134000000005,"duration":103.44824999999946,"noteNumber":81,"velocity":100,"programNumber":0},{"time":15827.582250000005,"duration":103.44824999999946,"noteNumber":79,"velocity":100,"programNumber":0},{"time":15931.030500000004,"duration":103.44824999999946,"noteNumber":77,"velocity":100,"programNumber":0},{"time":16034.478750000004,"duration":103.44824999999946,"noteNumber":76,"velocity":100,"programNumber":0},{"time":16137.927000000003,"duration":413.7930000000015,"noteNumber":74,"velocity":100,"programNumber":0},{"time":16137.927000000003,"duration":413.7930000000015,"noteNumber":71,"velocity":100,"programNumber":0},{"time":16551.720000000005,"duration":206.89649999999892,"noteNumber":72,"velocity":100,"programNumber":0},{"time":16551.720000000005,"duration":206.89649999999892,"noteNumber":69,"velocity":100,"programNumber":0},{"time":16758.616500000004,"duration":206.89649999999892,"noteNumber":74,"velocity":100,"programNumber":0},{"time":16758.616500000004,"duration":206.89649999999892,"noteNumber":71,"velocity":100,"programNumber":0},{"time":16965.513000000003,"duration":206.89649999999892,"noteNumber":76,"velocity":100,"programNumber":0},{"time":16965.513000000003,"duration":206.89649999999892,"noteNumber":72,"velocity":100,"programNumber":0},{"time":17172.4095,"duration":206.89649999999892,"noteNumber":76,"velocity":100,"programNumber":0},{"time":17172.4095,"duration":206.89649999999892,"noteNumber":72,"velocity":100,"programNumber":0},{"time":17379.306,"duration":103.44825000000128,"noteNumber":77,"velocity":100,"programNumber":0},{"time":17482.75425,"duration":103.44825000000128,"noteNumber":76,"velocity":100,"programNumber":0},{"time":17586.202500000003,"duration":103.44825000000128,"noteNumber":74,"velocity":100,"programNumber":0},{"time":17689.650750000004,"duration":103.44825000000128,"noteNumber":72,"velocity":100,"programNumber":0},{"time":17793.099000000006,"duration":206.89649999999892,"noteNumber":68,"velocity":100,"programNumber":0},{"time":17999.995500000005,"duration":206.89649999999892,"noteNumber":64,"velocity":100,"programNumber":0},{"time":17793.099000000006,"duration":413.79299999999785,"noteNumber":71,"velocity":100,"programNumber":0},{"time":18206.892000000003,"duration":206.89649999999892,"noteNumber":69,"velocity":100,"programNumber":0},{"time":18206.892000000003,"duration":206.89649999999892,"noteNumber":72,"velocity":100,"programNumber":0},{"time":18413.788500000002,"duration":206.89649999999892,"noteNumber":71,"velocity":100,"programNumber":0},{"time":18413.788500000002,"duration":206.89649999999892,"noteNumber":74,"velocity":100,"programNumber":0},{"time":18620.685,"duration":206.89649999999892,"noteNumber":76,"velocity":100,"programNumber":0},{"time":18620.685,"duration":206.89649999999892,"noteNumber":72,"velocity":100,"programNumber":0},{"time":18827.5815,"duration":206.89649999999892,"noteNumber":76,"velocity":100,"programNumber":0},{"time":18827.5815,"duration":206.89649999999892,"noteNumber":72,"velocity":100,"programNumber":0},{"time":19034.478,"duration":103.44825000000128,"noteNumber":77,"velocity":100,"programNumber":0},{"time":19137.92625,"duration":103.44825000000128,"noteNumber":76,"velocity":100,"programNumber":0},{"time":19241.3745,"duration":103.44825000000128,"noteNumber":74,"velocity":100,"programNumber":0},{"time":19344.822750000003,"duration":103.44825000000128,"noteNumber":72,"velocity":100,"programNumber":0},{"time":19448.271000000004,"duration":413.7930000000015,"noteNumber":71,"velocity":100,"programNumber":0},{"time":19448.271000000004,"duration":413.7930000000015,"noteNumber":68,"velocity":100,"programNumber":0},{"time":39724.128000000004,"duration":206.89650000000256,"noteNumber":69,"velocity":100,"programNumber":0},{"time":39724.128000000004,"duration":206.89650000000256,"noteNumber":81,"velocity":100,"programNumber":0},{"time":39931.02450000001,"duration":206.89650000000256,"noteNumber":71,"velocity":100,"programNumber":0},{"time":39931.02450000001,"duration":206.89650000000256,"noteNumber":83,"velocity":100,"programNumber":0},{"time":40137.92100000001,"duration":413.79299999999785,"noteNumber":85,"velocity":100,"programNumber":0},{"time":40137.92100000001,"duration":413.79299999999785,"noteNumber":73,"velocity":100,"programNumber":0},{"time":40551.71400000001,"duration":206.89650000000256,"noteNumber":81,"velocity":100,"programNumber":0},{"time":40551.71400000001,"duration":206.89650000000256,"noteNumber":69,"velocity":100,"programNumber":0},{"time":40758.61050000001,"duration":206.89650000000256,"noteNumber":83,"velocity":100,"programNumber":0},{"time":40758.61050000001,"duration":206.89650000000256,"noteNumber":71,"velocity":100,"programNumber":0},{"time":40965.50700000001,"duration":206.89650000000256,"noteNumber":85,"velocity":100,"programNumber":0},{"time":40965.50700000001,"duration":206.89650000000256,"noteNumber":73,"velocity":100,"programNumber":0},{"time":41172.403500000015,"duration":206.89650000000256,"noteNumber":83,"velocity":100,"programNumber":0},{"time":41172.403500000015,"duration":206.89650000000256,"noteNumber":71,"velocity":100,"programNumber":0},{"time":41379.30000000002,"duration":206.89650000000256,"noteNumber":81,"velocity":100,"programNumber":0},{"time":41379.30000000002,"duration":206.89650000000256,"noteNumber":69,"velocity":100,"programNumber":0},{"time":41586.19650000002,"duration":206.89650000000256,"noteNumber":80,"velocity":100,"programNumber":0},{"time":41586.19650000002,"duration":206.89650000000256,"noteNumber":68,"velocity":100,"programNumber":0},{"time":41793.09300000002,"duration":206.89650000000256,"noteNumber":66,"velocity":100,"programNumber":0},{"time":41793.09300000002,"duration":206.89650000000256,"noteNumber":78,"velocity":100,"programNumber":0},{"time":41999.989500000025,"duration":206.89650000000256,"noteNumber":68,"velocity":100,"programNumber":0},{"time":41999.989500000025,"duration":206.89650000000256,"noteNumber":80,"velocity":100,"programNumber":0},{"time":42206.88600000003,"duration":206.89650000000256,"noteNumber":69,"velocity":100,"programNumber":0},{"time":42206.88600000003,"duration":206.89650000000256,"noteNumber":81,"velocity":100,"programNumber":0},{"time":42413.78250000003,"duration":206.89650000000256,"noteNumber":71,"velocity":100,"programNumber":0},{"time":42413.78250000003,"duration":206.89650000000256,"noteNumber":83,"velocity":100,"programNumber":0},{"time":42620.67900000003,"duration":206.89650000000256,"noteNumber":68,"velocity":100,"programNumber":0},{"time":42620.67900000003,"duration":206.89650000000256,"noteNumber":80,"velocity":100,"programNumber":0},{"time":42827.575500000035,"duration":206.89650000000256,"noteNumber":64,"velocity":100,"programNumber":0},{"time":42827.575500000035,"duration":206.89650000000256,"noteNumber":76,"velocity":100,"programNumber":0},{"time":43034.47200000004,"duration":206.89650000000256,"noteNumber":69,"velocity":100,"programNumber":0},{"time":43034.47200000004,"duration":206.89650000000256,"noteNumber":81,"velocity":100,"programNumber":0},{"time":43241.36850000004,"duration":206.89650000000256,"noteNumber":71,"velocity":100,"programNumber":0},{"time":43241.36850000004,"duration":206.89650000000256,"noteNumber":83,"velocity":100,"programNumber":0},{"time":43448.26500000004,"duration":413.79299999999785,"noteNumber":85,"velocity":100,"programNumber":0},{"time":43448.26500000004,"duration":413.79299999999785,"noteNumber":73,"velocity":100,"programNumber":0},{"time":43862.05800000004,"duration":206.89650000000256,"noteNumber":69,"velocity":100,"programNumber":0},{"time":43862.05800000004,"duration":206.89650000000256,"noteNumber":81,"velocity":100,"programNumber":0},{"time":44068.95450000004,"duration":206.89650000000256,"noteNumber":71,"velocity":100,"programNumber":0},{"time":44068.95450000004,"duration":206.89650000000256,"noteNumber":83,"velocity":100,"programNumber":0},{"time":44275.851000000046,"duration":206.89650000000256,"noteNumber":85,"velocity":100,"programNumber":0},{"time":44275.851000000046,"duration":206.89650000000256,"noteNumber":73,"velocity":100,"programNumber":0},{"time":44482.74750000005,"duration":206.89650000000256,"noteNumber":83,"velocity":100,"programNumber":0},{"time":44482.74750000005,"duration":206.89650000000256,"noteNumber":71,"velocity":100,"programNumber":0},{"time":44689.64400000005,"duration":206.89650000000256,"noteNumber":81,"velocity":100,"programNumber":0},{"time":44689.64400000005,"duration":206.89650000000256,"noteNumber":69,"velocity":100,"programNumber":0},{"time":44896.540500000054,"duration":206.89650000000256,"noteNumber":80,"velocity":100,"programNumber":0},{"time":44896.540500000054,"duration":206.89650000000256,"noteNumber":68,"velocity":100,"programNumber":0},{"time":45103.437000000056,"duration":206.89650000000256,"noteNumber":66,"velocity":100,"programNumber":0},{"time":45103.437000000056,"duration":206.89650000000256,"noteNumber":78,"velocity":100,"programNumber":0},{"time":45310.33350000006,"duration":206.89650000000256,"noteNumber":71,"velocity":100,"programNumber":0},{"time":45310.33350000006,"duration":206.89650000000256,"noteNumber":83,"velocity":100,"programNumber":0},{"time":45517.23000000006,"duration":206.89650000000256,"noteNumber":68,"velocity":100,"programNumber":0},{"time":45517.23000000006,"duration":206.89650000000256,"noteNumber":80,"velocity":100,"programNumber":0},{"time":45724.126500000064,"duration":206.89650000000256,"noteNumber":64,"velocity":100,"programNumber":0},{"time":45724.126500000064,"duration":206.89650000000256,"noteNumber":76,"velocity":100,"programNumber":0},{"time":45931.02300000007,"duration":413.79299999999785,"noteNumber":81,"velocity":100,"programNumber":0},{"time":45931.02300000007,"duration":413.79299999999785,"noteNumber":69,"velocity":100,"programNumber":0},{"time":92689.63200000007,"duration":206.89650000000256,"noteNumber":81,"velocity":100,"programNumber":0},{"time":92689.63200000007,"duration":206.89650000000256,"noteNumber":69,"velocity":100,"programNumber":0},{"time":92896.52850000007,"duration":206.89650000000256,"noteNumber":83,"velocity":100,"programNumber":0},{"time":92896.52850000007,"duration":206.89650000000256,"noteNumber":71,"velocity":100,"programNumber":0},{"time":93103.42500000008,"duration":413.7930000000051,"noteNumber":85,"velocity":100,"programNumber":0},{"time":93103.42500000008,"duration":413.7930000000051,"noteNumber":73,"velocity":100,"programNumber":0},{"time":93517.21800000008,"duration":206.89650000000256,"noteNumber":81,"velocity":100,"programNumber":0},{"time":93517.21800000008,"duration":206.89650000000256,"noteNumber":69,"velocity":100,"programNumber":0},{"time":93724.11450000008,"duration":206.89650000000256,"noteNumber":83,"velocity":100,"programNumber":0},{"time":93724.11450000008,"duration":206.89650000000256,"noteNumber":71,"velocity":100,"programNumber":0},{"time":93931.01100000009,"duration":206.89650000000256,"noteNumber":85,"velocity":100,"programNumber":0},{"time":93931.01100000009,"duration":206.89650000000256,"noteNumber":73,"velocity":100,"programNumber":0},{"time":94137.90750000009,"duration":206.89650000000256,"noteNumber":83,"velocity":100,"programNumber":0},{"time":94137.90750000009,"duration":206.89650000000256,"noteNumber":71,"velocity":100,"programNumber":0},{"time":94344.80400000009,"duration":206.89650000000256,"noteNumber":81,"velocity":100,"programNumber":0},{"time":94344.80400000009,"duration":206.89650000000256,"noteNumber":69,"velocity":100,"programNumber":0},{"time":94551.7005000001,"duration":206.89650000000256,"noteNumber":80,"velocity":100,"programNumber":0},{"time":94551.7005000001,"duration":206.89650000000256,"noteNumber":68,"velocity":100,"programNumber":0},{"time":94758.5970000001,"duration":206.89650000000256,"noteNumber":66,"velocity":100,"programNumber":0},{"time":94758.5970000001,"duration":206.89650000000256,"noteNumber":78,"velocity":100,"programNumber":0},{"time":94965.4935000001,"duration":206.89650000000256,"noteNumber":68,"velocity":100,"programNumber":0},{"time":94965.4935000001,"duration":206.89650000000256,"noteNumber":80,"velocity":100,"programNumber":0},{"time":95172.3900000001,"duration":206.89650000000256,"noteNumber":69,"velocity":100,"programNumber":0},{"time":95172.3900000001,"duration":206.89650000000256,"noteNumber":81,"velocity":100,"programNumber":0},{"time":95379.2865000001,"duration":206.89650000000256,"noteNumber":71,"velocity":100,"programNumber":0},{"time":95379.2865000001,"duration":206.89650000000256,"noteNumber":83,"velocity":100,"programNumber":0},{"time":95586.1830000001,"duration":206.89650000000256,"noteNumber":68,"velocity":100,"programNumber":0},{"time":95586.1830000001,"duration":206.89650000000256,"noteNumber":80,"velocity":100,"programNumber":0},{"time":95793.07950000011,"duration":206.89650000000256,"noteNumber":64,"velocity":100,"programNumber":0},{"time":95793.07950000011,"duration":206.89650000000256,"noteNumber":76,"velocity":100,"programNumber":0},{"time":95999.97600000011,"duration":206.89650000000256,"noteNumber":69,"velocity":100,"programNumber":0},{"time":95999.97600000011,"duration":206.89650000000256,"noteNumber":81,"velocity":100,"programNumber":0},{"time":96206.87250000011,"duration":206.89650000000256,"noteNumber":71,"velocity":100,"programNumber":0},{"time":96206.87250000011,"duration":206.89650000000256,"noteNumber":83,"velocity":100,"programNumber":0},{"time":96413.76900000012,"duration":413.7930000000051,"noteNumber":85,"velocity":100,"programNumber":0},{"time":96413.76900000012,"duration":413.7930000000051,"noteNumber":73,"velocity":100,"programNumber":0},{"time":96827.56200000012,"duration":206.89650000000256,"noteNumber":69,"velocity":100,"programNumber":0},{"time":96827.56200000012,"duration":206.89650000000256,"noteNumber":81,"velocity":100,"programNumber":0},{"time":97034.45850000012,"duration":206.89650000000256,"noteNumber":71,"velocity":100,"programNumber":0},{"time":97034.45850000012,"duration":206.89650000000256,"noteNumber":83,"velocity":100,"programNumber":0},{"time":97241.35500000013,"duration":206.89650000000256,"noteNumber":85,"velocity":100,"programNumber":0},{"time":97241.35500000013,"duration":206.89650000000256,"noteNumber":73,"velocity":100,"programNumber":0},{"time":97448.25150000013,"duration":206.89650000000256,"noteNumber":83,"velocity":100,"programNumber":0},{"time":97448.25150000013,"duration":206.89650000000256,"noteNumber":71,"velocity":100,"programNumber":0},{"time":97655.14800000013,"duration":206.89650000000256,"noteNumber":81,"velocity":100,"programNumber":0},{"time":97655.14800000013,"duration":206.89650000000256,"noteNumber":69,"velocity":100,"programNumber":0},{"time":97862.04450000013,"duration":206.89650000000256,"noteNumber":80,"velocity":100,"programNumber":0},{"time":97862.04450000013,"duration":206.89650000000256,"noteNumber":68,"velocity":100,"programNumber":0},{"time":98068.94100000014,"duration":206.89650000000256,"noteNumber":66,"velocity":100,"programNumber":0},{"time":98068.94100000014,"duration":206.89650000000256,"noteNumber":78,"velocity":100,"programNumber":0},{"time":98275.83750000014,"duration":206.89650000000256,"noteNumber":71,"velocity":100,"programNumber":0},{"time":98275.83750000014,"duration":206.89650000000256,"noteNumber":83,"velocity":100,"programNumber":0},{"time":98482.73400000014,"duration":206.89650000000256,"noteNumber":68,"velocity":100,"programNumber":0},{"time":98482.73400000014,"duration":206.89650000000256,"noteNumber":80,"velocity":100,"programNumber":0},{"time":98689.63050000014,"duration":206.89650000000256,"noteNumber":64,"velocity":100,"programNumber":0},{"time":98689.63050000014,"duration":206.89650000000256,"noteNumber":76,"velocity":100,"programNumber":0},{"time":98896.52700000015,"duration":413.7930000000051,"noteNumber":81,"velocity":100,"programNumber":0},{"time":98896.52700000015,"duration":413.7930000000051,"noteNumber":69,"velocity":100,"programNumber":0},{"time":119172.38400000015,"duration":206.89650000000256,"noteNumber":76,"velocity":100,"programNumber":0},{"time":119172.38400000015,"duration":206.89650000000256,"noteNumber":72,"velocity":100,"programNumber":0},{"time":119379.28050000015,"duration":206.89650000000256,"noteNumber":77,"velocity":100,"programNumber":0},{"time":119379.28050000015,"duration":206.89650000000256,"noteNumber":74,"velocity":100,"programNumber":0},{"time":119586.17700000016,"duration":206.89650000000256,"noteNumber":76,"velocity":100,"programNumber":0},{"time":119586.17700000016,"duration":206.89650000000256,"noteNumber":79,"velocity":100,"programNumber":0},{"time":119793.07350000016,"duration":206.89650000000256,"noteNumber":76,"velocity":100,"programNumber":0},{"time":119793.07350000016,"duration":206.89650000000256,"noteNumber":79,"velocity":100,"programNumber":0},{"time":119999.97000000016,"duration":103.44825000000128,"noteNumber":81,"velocity":100,"programNumber":0},{"time":120103.41825000016,"duration":103.44825000000128,"noteNumber":79,"velocity":100,"programNumber":0},{"time":120206.86650000016,"duration":103.44825000000128,"noteNumber":77,"velocity":100,"programNumber":0},{"time":120310.31475000017,"duration":103.44825000000128,"noteNumber":76,"velocity":100,"programNumber":0},{"time":120413.76300000017,"duration":206.89650000000256,"noteNumber":71,"velocity":100,"programNumber":0},{"time":120620.65950000017,"duration":206.89650000000256,"noteNumber":67,"velocity":100,"programNumber":0},{"time":120413.76300000017,"duration":413.7930000000051,"noteNumber":74,"velocity":100,"programNumber":0},{"time":120827.55600000017,"duration":206.89650000000256,"noteNumber":72,"velocity":100,"programNumber":0},{"time":120827.55600000017,"duration":206.89650000000256,"noteNumber":76,"velocity":100,"programNumber":0},{"time":121034.45250000017,"duration":206.89650000000256,"noteNumber":74,"velocity":100,"programNumber":0},{"time":121034.45250000017,"duration":206.89650000000256,"noteNumber":77,"velocity":100,"programNumber":0},{"time":121241.34900000018,"duration":206.89650000000256,"noteNumber":76,"velocity":100,"programNumber":0},{"time":121241.34900000018,"duration":206.89650000000256,"noteNumber":79,"velocity":100,"programNumber":0},{"time":121448.24550000018,"duration":206.89650000000256,"noteNumber":76,"velocity":100,"programNumber":0},{"time":121448.24550000018,"duration":206.89650000000256,"noteNumber":79,"velocity":100,"programNumber":0},{"time":121655.14200000018,"duration":103.44825000000128,"noteNumber":81,"velocity":100,"programNumber":0},{"time":121758.59025000018,"duration":103.44825000000128,"noteNumber":79,"velocity":100,"programNumber":0},{"time":121862.03850000018,"duration":103.44825000000128,"noteNumber":77,"velocity":100,"programNumber":0},{"time":121965.48675000019,"duration":103.44825000000128,"noteNumber":76,"velocity":100,"programNumber":0},{"time":122068.93500000019,"duration":413.7930000000051,"noteNumber":74,"velocity":100,"programNumber":0},{"time":122068.93500000019,"duration":413.7930000000051,"noteNumber":71,"velocity":100,"programNumber":0},{"time":122482.72800000019,"duration":206.89650000000256,"noteNumber":72,"velocity":100,"programNumber":0},{"time":122482.72800000019,"duration":206.89650000000256,"noteNumber":69,"velocity":100,"programNumber":0},{"time":122689.6245000002,"duration":206.89650000000256,"noteNumber":74,"velocity":100,"programNumber":0},{"time":122689.6245000002,"duration":206.89650000000256,"noteNumber":71,"velocity":100,"programNumber":0},{"time":122896.5210000002,"duration":206.89650000000256,"noteNumber":76,"velocity":100,"programNumber":0},{"time":122896.5210000002,"duration":206.89650000000256,"noteNumber":72,"velocity":100,"programNumber":0},{"time":123103.4175000002,"duration":206.89650000000256,"noteNumber":76,"velocity":100,"programNumber":0},{"time":123103.4175000002,"duration":206.89650000000256,"noteNumber":72,"velocity":100,"programNumber":0},{"time":123310.3140000002,"duration":103.44825000000128,"noteNumber":77,"velocity":100,"programNumber":0},{"time":123413.7622500002,"duration":103.44825000000128,"noteNumber":76,"velocity":100,"programNumber":0},{"time":123517.2105000002,"duration":103.44825000000128,"noteNumber":74,"velocity":100,"programNumber":0},{"time":123620.6587500002,"duration":103.44825000000128,"noteNumber":72,"velocity":100,"programNumber":0},{"time":123724.10700000021,"duration":206.89650000000256,"noteNumber":68,"velocity":100,"programNumber":0},{"time":123931.00350000021,"duration":206.89650000000256,"noteNumber":64,"velocity":100,"programNumber":0},{"time":123724.10700000021,"duration":413.7930000000051,"noteNumber":71,"velocity":100,"programNumber":0},{"time":124137.90000000021,"duration":206.89650000000256,"noteNumber":69,"velocity":100,"programNumber":0},{"time":124137.90000000021,"duration":206.89650000000256,"noteNumber":72,"velocity":100,"programNumber":0},{"time":124344.79650000022,"duration":206.89650000000256,"noteNumber":71,"velocity":100,"programNumber":0},{"time":124344.79650000022,"duration":206.89650000000256,"noteNumber":74,"velocity":100,"programNumber":0},{"time":124551.69300000022,"duration":206.89650000000256,"noteNumber":76,"velocity":100,"programNumber":0},{"time":124551.69300000022,"duration":206.89650000000256,"noteNumber":72,"velocity":100,"programNumber":0},{"time":124758.58950000022,"duration":206.89650000000256,"noteNumber":76,"velocity":100,"programNumber":0},{"time":124758.58950000022,"duration":206.89650000000256,"noteNumber":72,"velocity":100,"programNumber":0},{"time":124965.48600000022,"duration":103.44825000000128,"noteNumber":77,"velocity":100,"programNumber":0},{"time":125068.93425000022,"duration":103.44825000000128,"noteNumber":76,"velocity":100,"programNumber":0},{"time":125172.38250000023,"duration":103.44825000000128,"noteNumber":74,"velocity":100,"programNumber":0},{"time":125275.83075000023,"duration":103.44825000000128,"noteNumber":72,"velocity":100,"programNumber":0},{"time":125379.27900000023,"duration":413.7930000000051,"noteNumber":71,"velocity":100,"programNumber":0},{"time":125379.27900000023,"duration":413.7930000000051,"noteNumber":68,"velocity":100,"programNumber":0}],[{"time":13655.169,"duration":206.89650000000074,"noteNumber":48,"velocity":100,"programNumber":0},{"time":13862.0655,"duration":206.89650000000074,"noteNumber":60,"velocity":100,"programNumber":0},{"time":14068.962000000001,"duration":206.89650000000074,"noteNumber":52,"velocity":100,"programNumber":0},{"time":14275.858500000002,"duration":206.89650000000074,"noteNumber":64,"velocity":100,"programNumber":0},{"time":14482.755000000003,"duration":413.79299999999967,"noteNumber":55,"velocity":100,"programNumber":0},{"time":15310.341000000002,"duration":206.89650000000074,"noteNumber":48,"velocity":100,"programNumber":0},{"time":15517.237500000003,"duration":206.89650000000074,"noteNumber":60,"velocity":100,"programNumber":0},{"time":15724.134000000004,"duration":206.89650000000074,"noteNumber":52,"velocity":100,"programNumber":0},{"time":15931.030500000004,"duration":206.89650000000074,"noteNumber":64,"velocity":100,"programNumber":0},{"time":16137.927000000005,"duration":413.79299999999967,"noteNumber":55,"velocity":100,"programNumber":0},{"time":16965.513000000006,"duration":206.89649999999892,"noteNumber":45,"velocity":100,"programNumber":0},{"time":17172.409500000005,"duration":206.89649999999892,"noteNumber":57,"velocity":100,"programNumber":0},{"time":17379.306000000004,"duration":206.89649999999892,"noteNumber":48,"velocity":100,"programNumber":0},{"time":17586.202500000003,"duration":206.89649999999892,"noteNumber":60,"velocity":100,"programNumber":0},{"time":17793.099000000002,"duration":413.7930000000015,"noteNumber":52,"velocity":100,"programNumber":0},{"time":18620.685000000005,"duration":206.89649999999892,"noteNumber":45,"velocity":100,"programNumber":0},{"time":18827.581500000004,"duration":206.89649999999892,"noteNumber":57,"velocity":100,"programNumber":0},{"time":19034.478000000003,"duration":206.89649999999892,"noteNumber":48,"velocity":100,"programNumber":0},{"time":19241.3745,"duration":206.89649999999892,"noteNumber":60,"velocity":100,"programNumber":0},{"time":19448.271,"duration":413.7930000000015,"noteNumber":52,"velocity":100,"programNumber":0},{"time":40137.921,"duration":206.89650000000256,"noteNumber":57,"velocity":100,"programNumber":0},{"time":40344.817500000005,"duration":206.89650000000256,"noteNumber":57,"velocity":100,"programNumber":0},{"time":40551.71400000001,"duration":206.89650000000256,"noteNumber":57,"velocity":100,"programNumber":0},{"time":40758.61050000001,"duration":206.89650000000256,"noteNumber":57,"velocity":100,"programNumber":0},{"time":40965.50700000001,"duration":206.89650000000256,"noteNumber":57,"velocity":100,"programNumber":0},{"time":41172.403500000015,"duration":206.89650000000256,"noteNumber":57,"velocity":100,"programNumber":0},{"time":41379.30000000002,"duration":206.89650000000256,"noteNumber":57,"velocity":100,"programNumber":0},{"time":41586.19650000002,"duration":206.89650000000256,"noteNumber":57,"velocity":100,"programNumber":0},{"time":41793.09300000002,"duration":206.89650000000256,"noteNumber":50,"velocity":100,"programNumber":0},{"time":41999.989500000025,"duration":206.89650000000256,"noteNumber":50,"velocity":100,"programNumber":0},{"time":42206.88600000003,"duration":206.89650000000256,"noteNumber":51,"velocity":100,"programNumber":0},{"time":42413.78250000003,"duration":206.89650000000256,"noteNumber":51,"velocity":100,"programNumber":0},{"time":42620.67900000003,"duration":206.89650000000256,"noteNumber":52,"velocity":100,"programNumber":0},{"time":42827.575500000035,"duration":206.89650000000256,"noteNumber":52,"velocity":100,"programNumber":0},{"time":43034.47200000004,"duration":206.89650000000256,"noteNumber":52,"velocity":100,"programNumber":0},{"time":43241.36850000004,"duration":206.89650000000256,"noteNumber":52,"velocity":100,"programNumber":0},{"time":43448.26500000004,"duration":206.89650000000256,"noteNumber":57,"velocity":100,"programNumber":0},{"time":43655.161500000046,"duration":206.89650000000256,"noteNumber":57,"velocity":100,"programNumber":0},{"time":43862.05800000005,"duration":206.89650000000256,"noteNumber":57,"velocity":100,"programNumber":0},{"time":44068.95450000005,"duration":206.89650000000256,"noteNumber":57,"velocity":100,"programNumber":0},{"time":44275.85100000005,"duration":206.89650000000256,"noteNumber":57,"velocity":100,"programNumber":0},{"time":44482.747500000056,"duration":206.89650000000256,"noteNumber":57,"velocity":100,"programNumber":0},{"time":44689.64400000006,"duration":206.89650000000256,"noteNumber":57,"velocity":100,"programNumber":0},{"time":44896.54050000006,"duration":206.89650000000256,"noteNumber":57,"velocity":100,"programNumber":0},{"time":45103.43700000006,"duration":206.89650000000256,"noteNumber":50,"velocity":100,"programNumber":0},{"time":45310.333500000066,"duration":206.89650000000256,"noteNumber":50,"velocity":100,"programNumber":0},{"time":45517.23000000007,"duration":206.89650000000256,"noteNumber":52,"velocity":100,"programNumber":0},{"time":45724.12650000007,"duration":206.89650000000256,"noteNumber":52,"velocity":100,"programNumber":0},{"time":45931.023000000074,"duration":413.79299999999785,"noteNumber":45,"velocity":100,"programNumber":0},{"time":93103.42500000008,"duration":206.89650000000256,"noteNumber":57,"velocity":100,"programNumber":0},{"time":93310.32150000008,"duration":206.89650000000256,"noteNumber":57,"velocity":100,"programNumber":0},{"time":93517.21800000008,"duration":206.89650000000256,"noteNumber":57,"velocity":100,"programNumber":0},{"time":93724.11450000008,"duration":206.89650000000256,"noteNumber":57,"velocity":100,"programNumber":0},{"time":93931.01100000009,"duration":206.89650000000256,"noteNumber":57,"velocity":100,"programNumber":0},{"time":94137.90750000009,"duration":206.89650000000256,"noteNumber":57,"velocity":100,"programNumber":0},{"time":94344.80400000009,"duration":206.89650000000256,"noteNumber":57,"velocity":100,"programNumber":0},{"time":94551.7005000001,"duration":206.89650000000256,"noteNumber":57,"velocity":100,"programNumber":0},{"time":94758.5970000001,"duration":206.89650000000256,"noteNumber":50,"velocity":100,"programNumber":0},{"time":94965.4935000001,"duration":206.89650000000256,"noteNumber":50,"velocity":100,"programNumber":0},{"time":95172.3900000001,"duration":206.89650000000256,"noteNumber":51,"velocity":100,"programNumber":0},{"time":95379.2865000001,"duration":206.89650000000256,"noteNumber":51,"velocity":100,"programNumber":0},{"time":95586.1830000001,"duration":206.89650000000256,"noteNumber":52,"velocity":100,"programNumber":0},{"time":95793.07950000011,"duration":206.89650000000256,"noteNumber":52,"velocity":100,"programNumber":0},{"time":95999.97600000011,"duration":206.89650000000256,"noteNumber":52,"velocity":100,"programNumber":0},{"time":96206.87250000011,"duration":206.89650000000256,"noteNumber":52,"velocity":100,"programNumber":0},{"time":96413.76900000012,"duration":206.89650000000256,"noteNumber":57,"velocity":100,"programNumber":0},{"time":96620.66550000012,"duration":206.89650000000256,"noteNumber":57,"velocity":100,"programNumber":0},{"time":96827.56200000012,"duration":206.89650000000256,"noteNumber":57,"velocity":100,"programNumber":0},{"time":97034.45850000012,"duration":206.89650000000256,"noteNumber":57,"velocity":100,"programNumber":0},{"time":97241.35500000013,"duration":206.89650000000256,"noteNumber":57,"velocity":100,"programNumber":0},{"time":97448.25150000013,"duration":206.89650000000256,"noteNumber":57,"velocity":100,"programNumber":0},{"time":97655.14800000013,"duration":206.89650000000256,"noteNumber":57,"velocity":100,"programNumber":0},{"time":97862.04450000013,"duration":206.89650000000256,"noteNumber":57,"velocity":100,"programNumber":0},{"time":98068.94100000014,"duration":206.89650000000256,"noteNumber":50,"velocity":100,"programNumber":0},{"time":98275.83750000014,"duration":206.89650000000256,"noteNumber":50,"velocity":100,"programNumber":0},{"time":98482.73400000014,"duration":206.89650000000256,"noteNumber":52,"velocity":100,"programNumber":0},{"time":98689.63050000014,"duration":206.89650000000256,"noteNumber":52,"velocity":100,"programNumber":0},{"time":98896.52700000015,"duration":413.7930000000051,"noteNumber":45,"velocity":100,"programNumber":0},{"time":119586.17700000016,"duration":206.89650000000256,"noteNumber":48,"velocity":100,"programNumber":0},{"time":119793.07350000016,"duration":206.89650000000256,"noteNumber":60,"velocity":100,"programNumber":0},{"time":119999.97000000016,"duration":206.89650000000256,"noteNumber":52,"velocity":100,"programNumber":0},{"time":120206.86650000016,"duration":206.89650000000256,"noteNumber":64,"velocity":100,"programNumber":0},{"time":120413.76300000017,"duration":413.7930000000051,"noteNumber":55,"velocity":100,"programNumber":0},{"time":121241.34900000018,"duration":206.89650000000256,"noteNumber":48,"velocity":100,"programNumber":0},{"time":121448.24550000018,"duration":206.89650000000256,"noteNumber":60,"velocity":100,"programNumber":0},{"time":121655.14200000018,"duration":206.89650000000256,"noteNumber":52,"velocity":100,"programNumber":0},{"time":121862.03850000018,"duration":206.89650000000256,"noteNumber":64,"velocity":100,"programNumber":0},{"time":122068.93500000019,"duration":413.7930000000051,"noteNumber":55,"velocity":100,"programNumber":0},{"time":122896.5210000002,"duration":206.89650000000256,"noteNumber":45,"velocity":100,"programNumber":0},{"time":123103.4175000002,"duration":206.89650000000256,"noteNumber":57,"velocity":100,"programNumber":0},{"time":123310.3140000002,"duration":206.89650000000256,"noteNumber":48,"velocity":100,"programNumber":0},{"time":123517.2105000002,"duration":206.89650000000256,"noteNumber":60,"velocity":100,"programNumber":0},{"time":123724.10700000021,"duration":413.7930000000051,"noteNumber":52,"velocity":100,"programNumber":0},{"time":124551.69300000022,"duration":206.89650000000256,"noteNumber":45,"velocity":100,"programNumber":0},{"time":124758.58950000022,"duration":206.89650000000256,"noteNumber":57,"velocity":100,"programNumber":0},{"time":124965.48600000022,"duration":206.89650000000256,"noteNumber":48,"velocity":100,"programNumber":0},{"time":125172.38250000023,"duration":206.89650000000256,"noteNumber":60,"velocity":100,"programNumber":0},{"time":125379.27900000023,"duration":413.7930000000051,"noteNumber":52,"velocity":100,"programNumber":0}],[{"time":26482.752,"duration":206.89649999999892,"noteNumber":76,"velocity":100,"programNumber":0},{"time":26482.752,"duration":206.89649999999892,"noteNumber":72,"velocity":100,"programNumber":0},{"time":26689.6485,"duration":206.89649999999892,"noteNumber":77,"velocity":100,"programNumber":0},{"time":26689.6485,"duration":206.89649999999892,"noteNumber":74,"velocity":100,"programNumber":0},{"time":26896.545,"duration":206.89649999999892,"noteNumber":76,"velocity":100,"programNumber":0},{"time":26896.545,"duration":206.89649999999892,"noteNumber":79,"velocity":100,"programNumber":0},{"time":27103.441499999997,"duration":206.89649999999892,"noteNumber":76,"velocity":100,"programNumber":0},{"time":27103.441499999997,"duration":206.89649999999892,"noteNumber":79,"velocity":100,"programNumber":0},{"time":27310.337999999996,"duration":103.44825000000128,"noteNumber":81,"velocity":100,"programNumber":0},{"time":27413.786249999997,"duration":103.44825000000128,"noteNumber":79,"velocity":100,"programNumber":0},{"time":27517.2345,"duration":103.44825000000128,"noteNumber":77,"velocity":100,"programNumber":0},{"time":27620.68275,"duration":103.44825000000128,"noteNumber":76,"velocity":100,"programNumber":0},{"time":27724.131,"duration":206.89649999999892,"noteNumber":71,"velocity":100,"programNumber":0},{"time":27931.0275,"duration":206.89649999999892,"noteNumber":67,"velocity":100,"programNumber":0},{"time":27724.131,"duration":413.79299999999785,"noteNumber":74,"velocity":100,"programNumber":0},{"time":28137.924,"duration":206.89649999999892,"noteNumber":72,"velocity":100,"programNumber":0},{"time":28137.924,"duration":206.89649999999892,"noteNumber":76,"velocity":100,"programNumber":0},{"time":28344.820499999998,"duration":206.89649999999892,"noteNumber":74,"velocity":100,"programNumber":0},{"time":28344.820499999998,"duration":206.89649999999892,"noteNumber":77,"velocity":100,"programNumber":0},{"time":28551.716999999997,"duration":206.89649999999892,"noteNumber":76,"velocity":100,"programNumber":0},{"time":28551.716999999997,"duration":206.89649999999892,"noteNumber":79,"velocity":100,"programNumber":0},{"time":28758.613499999996,"duration":206.89649999999892,"noteNumber":76,"velocity":100,"programNumber":0},{"time":28758.613499999996,"duration":206.89649999999892,"noteNumber":79,"velocity":100,"programNumber":0},{"time":28965.509999999995,"duration":103.44825000000128,"noteNumber":81,"velocity":100,"programNumber":0},{"time":29068.958249999996,"duration":103.44825000000128,"noteNumber":79,"velocity":100,"programNumber":0},{"time":29172.406499999997,"duration":103.44825000000128,"noteNumber":77,"velocity":100,"programNumber":0},{"time":29275.85475,"duration":103.44825000000128,"noteNumber":76,"velocity":100,"programNumber":0},{"time":29379.303,"duration":413.7930000000015,"noteNumber":74,"velocity":100,"programNumber":0},{"time":29379.303,"duration":413.7930000000015,"noteNumber":71,"velocity":100,"programNumber":0},{"time":29793.096,"duration":206.89649999999892,"noteNumber":72,"velocity":100,"programNumber":0},{"time":29793.096,"duration":206.89649999999892,"noteNumber":69,"velocity":100,"programNumber":0},{"time":29999.9925,"duration":206.89649999999892,"noteNumber":74,"velocity":100,"programNumber":0},{"time":29999.9925,"duration":206.89649999999892,"noteNumber":71,"velocity":100,"programNumber":0},{"time":30206.889,"duration":206.89649999999892,"noteNumber":76,"velocity":100,"programNumber":0},{"time":30206.889,"duration":206.89649999999892,"noteNumber":72,"velocity":100,"programNumber":0},{"time":30413.785499999998,"duration":206.89649999999892,"noteNumber":76,"velocity":100,"programNumber":0},{"time":30413.785499999998,"duration":206.89649999999892,"noteNumber":72,"velocity":100,"programNumber":0},{"time":30620.681999999997,"duration":103.44825000000128,"noteNumber":77,"velocity":100,"programNumber":0},{"time":30724.13025,"duration":103.44825000000128,"noteNumber":76,"velocity":100,"programNumber":0},{"time":30827.5785,"duration":103.44825000000128,"noteNumber":74,"velocity":100,"programNumber":0},{"time":30931.02675,"duration":103.44825000000128,"noteNumber":72,"velocity":100,"programNumber":0},{"time":31034.475000000002,"duration":206.89649999999892,"noteNumber":68,"velocity":100,"programNumber":0},{"time":31241.3715,"duration":206.89649999999892,"noteNumber":64,"velocity":100,"programNumber":0},{"time":31034.475000000002,"duration":413.79299999999785,"noteNumber":71,"velocity":100,"programNumber":0},{"time":31448.268,"duration":206.89649999999892,"noteNumber":69,"velocity":100,"programNumber":0},{"time":31448.268,"duration":206.89649999999892,"noteNumber":72,"velocity":100,"programNumber":0},{"time":31655.1645,"duration":206.89649999999892,"noteNumber":71,"velocity":100,"programNumber":0},{"time":31655.1645,"duration":206.89649999999892,"noteNumber":74,"velocity":100,"programNumber":0},{"time":31862.060999999998,"duration":206.89649999999892,"noteNumber":76,"velocity":100,"programNumber":0},{"time":31862.060999999998,"duration":206.89649999999892,"noteNumber":72,"velocity":100,"programNumber":0},{"time":32068.957499999997,"duration":206.89649999999892,"noteNumber":76,"velocity":100,"programNumber":0},{"time":32068.957499999997,"duration":206.89649999999892,"noteNumber":72,"velocity":100,"programNumber":0},{"time":32275.853999999996,"duration":103.44825000000128,"noteNumber":77,"velocity":100,"programNumber":0},{"time":32379.302249999997,"duration":103.44825000000128,"noteNumber":76,"velocity":100,"programNumber":0},{"time":32482.7505,"duration":103.44825000000128,"noteNumber":74,"velocity":100,"programNumber":0},{"time":32586.19875,"duration":103.44825000000128,"noteNumber":72,"velocity":100,"programNumber":0},{"time":32689.647,"duration":413.7930000000015,"noteNumber":71,"velocity":100,"programNumber":0},{"time":32689.647,"duration":413.7930000000015,"noteNumber":68,"velocity":100,"programNumber":0},{"time":46344.816000000006,"duration":206.89650000000256,"noteNumber":69,"velocity":100,"programNumber":0},{"time":46344.816000000006,"duration":206.89650000000256,"noteNumber":81,"velocity":100,"programNumber":0},{"time":46551.71250000001,"duration":206.89650000000256,"noteNumber":71,"velocity":100,"programNumber":0},{"time":46551.71250000001,"duration":206.89650000000256,"noteNumber":83,"velocity":100,"programNumber":0},{"time":46758.60900000001,"duration":413.79299999999785,"noteNumber":85,"velocity":100,"programNumber":0},{"time":46758.60900000001,"duration":413.79299999999785,"noteNumber":73,"velocity":100,"programNumber":0},{"time":47172.40200000001,"duration":206.89650000000256,"noteNumber":81,"velocity":100,"programNumber":0},{"time":47172.40200000001,"duration":206.89650000000256,"noteNumber":69,"velocity":100,"programNumber":0},{"time":47379.29850000001,"duration":206.89650000000256,"noteNumber":83,"velocity":100,"programNumber":0},{"time":47379.29850000001,"duration":206.89650000000256,"noteNumber":71,"velocity":100,"programNumber":0},{"time":47586.195000000014,"duration":206.89650000000256,"noteNumber":85,"velocity":100,"programNumber":0},{"time":47586.195000000014,"duration":206.89650000000256,"noteNumber":73,"velocity":100,"programNumber":0},{"time":47793.09150000002,"duration":206.89650000000256,"noteNumber":83,"velocity":100,"programNumber":0},{"time":47793.09150000002,"duration":206.89650000000256,"noteNumber":71,"velocity":100,"programNumber":0},{"time":47999.98800000002,"duration":206.89650000000256,"noteNumber":81,"velocity":100,"programNumber":0},{"time":47999.98800000002,"duration":206.89650000000256,"noteNumber":69,"velocity":100,"programNumber":0},{"time":48206.88450000002,"duration":206.89650000000256,"noteNumber":80,"velocity":100,"programNumber":0},{"time":48206.88450000002,"duration":206.89650000000256,"noteNumber":68,"velocity":100,"programNumber":0},{"time":48413.781000000025,"duration":206.89650000000256,"noteNumber":66,"velocity":100,"programNumber":0},{"time":48413.781000000025,"duration":206.89650000000256,"noteNumber":78,"velocity":100,"programNumber":0},{"time":48620.67750000003,"duration":206.89650000000256,"noteNumber":68,"velocity":100,"programNumber":0},{"time":48620.67750000003,"duration":206.89650000000256,"noteNumber":80,"velocity":100,"programNumber":0},{"time":48827.57400000003,"duration":206.89650000000256,"noteNumber":69,"velocity":100,"programNumber":0},{"time":48827.57400000003,"duration":206.89650000000256,"noteNumber":81,"velocity":100,"programNumber":0},{"time":49034.47050000003,"duration":206.89650000000256,"noteNumber":71,"velocity":100,"programNumber":0},{"time":49034.47050000003,"duration":206.89650000000256,"noteNumber":83,"velocity":100,"programNumber":0},{"time":49241.367000000035,"duration":206.89650000000256,"noteNumber":68,"velocity":100,"programNumber":0},{"time":49241.367000000035,"duration":206.89650000000256,"noteNumber":80,"velocity":100,"programNumber":0},{"time":49448.26350000004,"duration":206.89650000000256,"noteNumber":64,"velocity":100,"programNumber":0},{"time":49448.26350000004,"duration":206.89650000000256,"noteNumber":76,"velocity":100,"programNumber":0},{"time":49655.16000000004,"duration":206.89650000000256,"noteNumber":69,"velocity":100,"programNumber":0},{"time":49655.16000000004,"duration":206.89650000000256,"noteNumber":81,"velocity":100,"programNumber":0},{"time":49862.05650000004,"duration":206.89650000000256,"noteNumber":71,"velocity":100,"programNumber":0},{"time":49862.05650000004,"duration":206.89650000000256,"noteNumber":83,"velocity":100,"programNumber":0},{"time":50068.953000000045,"duration":413.79299999999785,"noteNumber":85,"velocity":100,"programNumber":0},{"time":50068.953000000045,"duration":413.79299999999785,"noteNumber":73,"velocity":100,"programNumber":0},{"time":50482.74600000004,"duration":206.89650000000256,"noteNumber":69,"velocity":100,"programNumber":0},{"time":50482.74600000004,"duration":206.89650000000256,"noteNumber":81,"velocity":100,"programNumber":0},{"time":50689.642500000045,"duration":206.89650000000256,"noteNumber":71,"velocity":100,"programNumber":0},{"time":50689.642500000045,"duration":206.89650000000256,"noteNumber":83,"velocity":100,"programNumber":0},{"time":50896.53900000005,"duration":206.89650000000256,"noteNumber":85,"velocity":100,"programNumber":0},{"time":50896.53900000005,"duration":206.89650000000256,"noteNumber":73,"velocity":100,"programNumber":0},{"time":51103.43550000005,"duration":206.89650000000256,"noteNumber":83,"velocity":100,"programNumber":0},{"time":51103.43550000005,"duration":206.89650000000256,"noteNumber":71,"velocity":100,"programNumber":0},{"time":51310.33200000005,"duration":206.89650000000256,"noteNumber":81,"velocity":100,"programNumber":0},{"time":51310.33200000005,"duration":206.89650000000256,"noteNumber":69,"velocity":100,"programNumber":0},{"time":51517.228500000056,"duration":206.89650000000256,"noteNumber":80,"velocity":100,"programNumber":0},{"time":51517.228500000056,"duration":206.89650000000256,"noteNumber":68,"velocity":100,"programNumber":0},{"time":51724.12500000006,"duration":206.89650000000256,"noteNumber":66,"velocity":100,"programNumber":0},{"time":51724.12500000006,"duration":206.89650000000256,"noteNumber":78,"velocity":100,"programNumber":0},{"time":51931.02150000006,"duration":206.89650000000256,"noteNumber":71,"velocity":100,"programNumber":0},{"time":51931.02150000006,"duration":206.89650000000256,"noteNumber":83,"velocity":100,"programNumber":0},{"time":52137.91800000006,"duration":206.89650000000256,"noteNumber":68,"velocity":100,"programNumber":0},{"time":52137.91800000006,"duration":206.89650000000256,"noteNumber":80,"velocity":100,"programNumber":0},{"time":52344.814500000066,"duration":206.89650000000256,"noteNumber":64,"velocity":100,"programNumber":0},{"time":52344.814500000066,"duration":206.89650000000256,"noteNumber":76,"velocity":100,"programNumber":0},{"time":52551.71100000007,"duration":413.79299999999785,"noteNumber":81,"velocity":100,"programNumber":0},{"time":52551.71100000007,"duration":413.79299999999785,"noteNumber":69,"velocity":100,"programNumber":0},{"time":99310.32000000007,"duration":206.89650000000256,"noteNumber":69,"velocity":100,"programNumber":0},{"time":99310.32000000007,"duration":206.89650000000256,"noteNumber":81,"velocity":100,"programNumber":0},{"time":99517.21650000007,"duration":206.89650000000256,"noteNumber":71,"velocity":100,"programNumber":0},{"time":99517.21650000007,"duration":206.89650000000256,"noteNumber":83,"velocity":100,"programNumber":0},{"time":99724.11300000007,"duration":413.7930000000051,"noteNumber":85,"velocity":100,"programNumber":0},{"time":99724.11300000007,"duration":413.7930000000051,"noteNumber":73,"velocity":100,"programNumber":0},{"time":100137.90600000008,"duration":206.89650000000256,"noteNumber":81,"velocity":100,"programNumber":0},{"time":100137.90600000008,"duration":206.89650000000256,"noteNumber":69,"velocity":100,"programNumber":0},{"time":100344.80250000008,"duration":206.89650000000256,"noteNumber":83,"velocity":100,"programNumber":0},{"time":100344.80250000008,"duration":206.89650000000256,"noteNumber":71,"velocity":100,"programNumber":0},{"time":100551.69900000008,"duration":206.89650000000256,"noteNumber":85,"velocity":100,"programNumber":0},{"time":100551.69900000008,"duration":206.89650000000256,"noteNumber":73,"velocity":100,"programNumber":0},{"time":100758.59550000008,"duration":206.89650000000256,"noteNumber":83,"velocity":100,"programNumber":0},{"time":100758.59550000008,"duration":206.89650000000256,"noteNumber":71,"velocity":100,"programNumber":0},{"time":100965.49200000009,"duration":206.89650000000256,"noteNumber":81,"velocity":100,"programNumber":0},{"time":100965.49200000009,"duration":206.89650000000256,"noteNumber":69,"velocity":100,"programNumber":0},{"time":101172.38850000009,"duration":206.89650000000256,"noteNumber":80,"velocity":100,"programNumber":0},{"time":101172.38850000009,"duration":206.89650000000256,"noteNumber":68,"velocity":100,"programNumber":0},{"time":101379.28500000009,"duration":206.89650000000256,"noteNumber":66,"velocity":100,"programNumber":0},{"time":101379.28500000009,"duration":206.89650000000256,"noteNumber":78,"velocity":100,"programNumber":0},{"time":101586.1815000001,"duration":206.89650000000256,"noteNumber":68,"velocity":100,"programNumber":0},{"time":101586.1815000001,"duration":206.89650000000256,"noteNumber":80,"velocity":100,"programNumber":0},{"time":101793.0780000001,"duration":206.89650000000256,"noteNumber":69,"velocity":100,"programNumber":0},{"time":101793.0780000001,"duration":206.89650000000256,"noteNumber":81,"velocity":100,"programNumber":0},{"time":101999.9745000001,"duration":206.89650000000256,"noteNumber":71,"velocity":100,"programNumber":0},{"time":101999.9745000001,"duration":206.89650000000256,"noteNumber":83,"velocity":100,"programNumber":0},{"time":102206.8710000001,"duration":206.89650000000256,"noteNumber":68,"velocity":100,"programNumber":0},{"time":102206.8710000001,"duration":206.89650000000256,"noteNumber":80,"velocity":100,"programNumber":0},{"time":102413.7675000001,"duration":206.89650000000256,"noteNumber":64,"velocity":100,"programNumber":0},{"time":102413.7675000001,"duration":206.89650000000256,"noteNumber":76,"velocity":100,"programNumber":0},{"time":102620.6640000001,"duration":206.89650000000256,"noteNumber":69,"velocity":100,"programNumber":0},{"time":102620.6640000001,"duration":206.89650000000256,"noteNumber":81,"velocity":100,"programNumber":0},{"time":102827.56050000011,"duration":206.89650000000256,"noteNumber":71,"velocity":100,"programNumber":0},{"time":102827.56050000011,"duration":206.89650000000256,"noteNumber":83,"velocity":100,"programNumber":0},{"time":103034.45700000011,"duration":413.7930000000051,"noteNumber":85,"velocity":100,"programNumber":0},{"time":103034.45700000011,"duration":413.7930000000051,"noteNumber":73,"velocity":100,"programNumber":0},{"time":103448.25000000012,"duration":206.89650000000256,"noteNumber":69,"velocity":100,"programNumber":0},{"time":103448.25000000012,"duration":206.89650000000256,"noteNumber":81,"velocity":100,"programNumber":0},{"time":103655.14650000012,"duration":206.89650000000256,"noteNumber":71,"velocity":100,"programNumber":0},{"time":103655.14650000012,"duration":206.89650000000256,"noteNumber":83,"velocity":100,"programNumber":0},{"time":103862.04300000012,"duration":206.89650000000256,"noteNumber":85,"velocity":100,"programNumber":0},{"time":103862.04300000012,"duration":206.89650000000256,"noteNumber":73,"velocity":100,"programNumber":0},{"time":104068.93950000012,"duration":206.89650000000256,"noteNumber":83,"velocity":100,"programNumber":0},{"time":104068.93950000012,"duration":206.89650000000256,"noteNumber":71,"velocity":100,"programNumber":0},{"time":104275.83600000013,"duration":206.89650000000256,"noteNumber":81,"velocity":100,"programNumber":0},{"time":104275.83600000013,"duration":206.89650000000256,"noteNumber":69,"velocity":100,"programNumber":0},{"time":104482.73250000013,"duration":206.89650000000256,"noteNumber":80,"velocity":100,"programNumber":0},{"time":104482.73250000013,"duration":206.89650000000256,"noteNumber":68,"velocity":100,"programNumber":0},{"time":104689.62900000013,"duration":206.89650000000256,"noteNumber":66,"velocity":100,"programNumber":0},{"time":104689.62900000013,"duration":206.89650000000256,"noteNumber":78,"velocity":100,"programNumber":0},{"time":104896.52550000013,"duration":206.89650000000256,"noteNumber":71,"velocity":100,"programNumber":0},{"time":104896.52550000013,"duration":206.89650000000256,"noteNumber":83,"velocity":100,"programNumber":0},{"time":105103.42200000014,"duration":206.89650000000256,"noteNumber":68,"velocity":100,"programNumber":0},{"time":105103.42200000014,"duration":206.89650000000256,"noteNumber":80,"velocity":100,"programNumber":0},{"time":105310.31850000014,"duration":206.89650000000256,"noteNumber":64,"velocity":100,"programNumber":0},{"time":105310.31850000014,"duration":206.89650000000256,"noteNumber":76,"velocity":100,"programNumber":0},{"time":105517.21500000014,"duration":413.7930000000051,"noteNumber":81,"velocity":100,"programNumber":0},{"time":105517.21500000014,"duration":413.7930000000051,"noteNumber":69,"velocity":100,"programNumber":0},{"time":132413.76000000015,"duration":206.89650000000256,"noteNumber":76,"velocity":100,"programNumber":0},{"time":132413.76000000015,"duration":206.89650000000256,"noteNumber":72,"velocity":100,"programNumber":0},{"time":132620.65650000016,"duration":206.89650000000256,"noteNumber":77,"velocity":100,"programNumber":0},{"time":132620.65650000016,"duration":206.89650000000256,"noteNumber":74,"velocity":100,"programNumber":0},{"time":132827.55300000016,"duration":206.89650000000256,"noteNumber":76,"velocity":100,"programNumber":0},{"time":132827.55300000016,"duration":206.89650000000256,"noteNumber":79,"velocity":100,"programNumber":0},{"time":133034.44950000016,"duration":206.89650000000256,"noteNumber":76,"velocity":100,"programNumber":0},{"time":133034.44950000016,"duration":206.89650000000256,"noteNumber":79,"velocity":100,"programNumber":0},{"time":133241.34600000017,"duration":103.44824999998673,"noteNumber":81,"velocity":100,"programNumber":0},{"time":133344.79425000015,"duration":103.44824999998673,"noteNumber":79,"velocity":100,"programNumber":0},{"time":133448.24250000014,"duration":103.44824999998673,"noteNumber":77,"velocity":100,"programNumber":0},{"time":133551.69075000013,"duration":103.44824999998673,"noteNumber":76,"velocity":100,"programNumber":0},{"time":133655.1390000001,"duration":206.89650000000256,"noteNumber":71,"velocity":100,"programNumber":0},{"time":133862.03550000011,"duration":206.89650000000256,"noteNumber":67,"velocity":100,"programNumber":0},{"time":133655.1390000001,"duration":413.7930000000051,"noteNumber":74,"velocity":100,"programNumber":0},{"time":134068.93200000012,"duration":206.89650000000256,"noteNumber":72,"velocity":100,"programNumber":0},{"time":134068.93200000012,"duration":206.89650000000256,"noteNumber":76,"velocity":100,"programNumber":0},{"time":134275.82850000012,"duration":206.89650000000256,"noteNumber":74,"velocity":100,"programNumber":0},{"time":134275.82850000012,"duration":206.89650000000256,"noteNumber":77,"velocity":100,"programNumber":0},{"time":134482.72500000012,"duration":206.89650000000256,"noteNumber":76,"velocity":100,"programNumber":0},{"time":134482.72500000012,"duration":206.89650000000256,"noteNumber":79,"velocity":100,"programNumber":0},{"time":134689.62150000012,"duration":206.89650000000256,"noteNumber":76,"velocity":100,"programNumber":0},{"time":134689.62150000012,"duration":206.89650000000256,"noteNumber":79,"velocity":100,"programNumber":0},{"time":134896.51800000013,"duration":103.44824999998673,"noteNumber":81,"velocity":100,"programNumber":0},{"time":134999.9662500001,"duration":103.44824999998673,"noteNumber":79,"velocity":100,"programNumber":0},{"time":135103.4145000001,"duration":103.44824999998673,"noteNumber":77,"velocity":100,"programNumber":0},{"time":135206.8627500001,"duration":103.44824999998673,"noteNumber":76,"velocity":100,"programNumber":0},{"time":135310.31100000007,"duration":413.7930000000051,"noteNumber":74,"velocity":100,"programNumber":0},{"time":135310.31100000007,"duration":413.7930000000051,"noteNumber":71,"velocity":100,"programNumber":0},{"time":135724.10400000008,"duration":206.89650000000256,"noteNumber":72,"velocity":100,"programNumber":0},{"time":135724.10400000008,"duration":206.89650000000256,"noteNumber":69,"velocity":100,"programNumber":0},{"time":135931.00050000008,"duration":206.89650000000256,"noteNumber":74,"velocity":100,"programNumber":0},{"time":135931.00050000008,"duration":206.89650000000256,"noteNumber":71,"velocity":100,"programNumber":0},{"time":136137.89700000008,"duration":206.89650000000256,"noteNumber":76,"velocity":100,"programNumber":0},{"time":136137.89700000008,"duration":206.89650000000256,"noteNumber":72,"velocity":100,"programNumber":0},{"time":136344.7935000001,"duration":206.89650000000256,"noteNumber":76,"velocity":100,"programNumber":0},{"time":136344.7935000001,"duration":206.89650000000256,"noteNumber":72,"velocity":100,"programNumber":0},{"time":136551.6900000001,"duration":103.44824999998673,"noteNumber":77,"velocity":100,"programNumber":0},{"time":136655.13825000008,"duration":103.44824999998673,"noteNumber":76,"velocity":100,"programNumber":0},{"time":136758.58650000006,"duration":103.44824999998673,"noteNumber":74,"velocity":100,"programNumber":0},{"time":136862.03475000005,"duration":103.44824999998673,"noteNumber":72,"velocity":100,"programNumber":0},{"time":136965.48300000004,"duration":206.89650000000256,"noteNumber":68,"velocity":100,"programNumber":0},{"time":137172.37950000004,"duration":206.89650000000256,"noteNumber":64,"velocity":100,"programNumber":0},{"time":136965.48300000004,"duration":413.7930000000051,"noteNumber":71,"velocity":100,"programNumber":0},{"time":137379.27600000004,"duration":206.89650000000256,"noteNumber":69,"velocity":100,"programNumber":0},{"time":137379.27600000004,"duration":206.89650000000256,"noteNumber":72,"velocity":100,"programNumber":0},{"time":137586.17250000004,"duration":206.89650000000256,"noteNumber":71,"velocity":100,"programNumber":0},{"time":137586.17250000004,"duration":206.89650000000256,"noteNumber":74,"velocity":100,"programNumber":0},{"time":137793.06900000005,"duration":206.89650000000256,"noteNumber":76,"velocity":100,"programNumber":0},{"time":137793.06900000005,"duration":206.89650000000256,"noteNumber":72,"velocity":100,"programNumber":0},{"time":137999.96550000005,"duration":206.89650000000256,"noteNumber":76,"velocity":100,"programNumber":0},{"time":137999.96550000005,"duration":206.89650000000256,"noteNumber":72,"velocity":100,"programNumber":0},{"time":138206.86200000005,"duration":103.44824999998673,"noteNumber":77,"velocity":100,"programNumber":0},{"time":138310.31025000004,"duration":103.44824999998673,"noteNumber":76,"velocity":100,"programNumber":0},{"time":138413.75850000003,"duration":103.44824999998673,"noteNumber":74,"velocity":100,"programNumber":0},{"time":138517.20675,"duration":103.44824999998673,"noteNumber":72,"velocity":100,"programNumber":0},{"time":138620.655,"duration":413.7930000000051,"noteNumber":71,"velocity":100,"programNumber":0},{"time":138620.655,"duration":413.7930000000051,"noteNumber":68,"velocity":100,"programNumber":0}],[{"time":26896.545,"duration":206.89649999999892,"noteNumber":48,"velocity":100,"programNumber":0},{"time":27103.441499999997,"duration":206.89649999999892,"noteNumber":60,"velocity":100,"programNumber":0},{"time":27310.337999999996,"duration":206.89649999999892,"noteNumber":52,"velocity":100,"programNumber":0},{"time":27517.234499999995,"duration":206.89649999999892,"noteNumber":64,"velocity":100,"programNumber":0},{"time":27724.130999999994,"duration":413.7930000000015,"noteNumber":55,"velocity":100,"programNumber":0},{"time":28551.716999999997,"duration":206.89649999999892,"noteNumber":48,"velocity":100,"programNumber":0},{"time":28758.613499999996,"duration":206.89649999999892,"noteNumber":60,"velocity":100,"programNumber":0},{"time":28965.509999999995,"duration":206.89649999999892,"noteNumber":52,"velocity":100,"programNumber":0},{"time":29172.406499999994,"duration":206.89649999999892,"noteNumber":64,"velocity":100,"programNumber":0},{"time":29379.302999999993,"duration":413.7930000000015,"noteNumber":55,"velocity":100,"programNumber":0},{"time":30206.888999999996,"duration":206.89649999999892,"noteNumber":45,"velocity":100,"programNumber":0},{"time":30413.785499999994,"duration":206.89649999999892,"noteNumber":57,"velocity":100,"programNumber":0},{"time":30620.681999999993,"duration":206.89649999999892,"noteNumber":48,"velocity":100,"programNumber":0},{"time":30827.578499999992,"duration":206.89649999999892,"noteNumber":60,"velocity":100,"programNumber":0},{"time":31034.47499999999,"duration":413.7930000000015,"noteNumber":52,"velocity":100,"programNumber":0},{"time":31862.060999999994,"duration":206.89649999999892,"noteNumber":45,"velocity":100,"programNumber":0},{"time":32068.957499999993,"duration":206.89649999999892,"noteNumber":57,"velocity":100,"programNumber":0},{"time":32275.853999999992,"duration":206.89649999999892,"noteNumber":48,"velocity":100,"programNumber":0},{"time":32482.75049999999,"duration":206.89649999999892,"noteNumber":60,"velocity":100,"programNumber":0},{"time":32689.64699999999,"duration":413.79299999999785,"noteNumber":52,"velocity":100,"programNumber":0},{"time":46758.60899999999,"duration":206.89650000000256,"noteNumber":57,"velocity":100,"programNumber":0},{"time":46965.50549999999,"duration":206.89650000000256,"noteNumber":57,"velocity":100,"programNumber":0},{"time":47172.401999999995,"duration":206.89650000000256,"noteNumber":57,"velocity":100,"programNumber":0},{"time":47379.2985,"duration":206.89650000000256,"noteNumber":57,"velocity":100,"programNumber":0},{"time":47586.195,"duration":206.89650000000256,"noteNumber":57,"velocity":100,"programNumber":0},{"time":47793.0915,"duration":206.89650000000256,"noteNumber":57,"velocity":100,"programNumber":0},{"time":47999.988000000005,"duration":206.89650000000256,"noteNumber":57,"velocity":100,"programNumber":0},{"time":48206.88450000001,"duration":206.89650000000256,"noteNumber":57,"velocity":100,"programNumber":0},{"time":48413.78100000001,"duration":206.89650000000256,"noteNumber":50,"velocity":100,"programNumber":0},{"time":48620.67750000001,"duration":206.89650000000256,"noteNumber":50,"velocity":100,"programNumber":0},{"time":48827.574000000015,"duration":206.89650000000256,"noteNumber":51,"velocity":100,"programNumber":0},{"time":49034.47050000002,"duration":206.89650000000256,"noteNumber":51,"velocity":100,"programNumber":0},{"time":49241.36700000002,"duration":206.89650000000256,"noteNumber":52,"velocity":100,"programNumber":0},{"time":49448.26350000002,"duration":206.89650000000256,"noteNumber":52,"velocity":100,"programNumber":0},{"time":49655.160000000025,"duration":206.89650000000256,"noteNumber":52,"velocity":100,"programNumber":0},{"time":49862.05650000003,"duration":206.89650000000256,"noteNumber":52,"velocity":100,"programNumber":0},{"time":50068.95300000003,"duration":206.89650000000256,"noteNumber":57,"velocity":100,"programNumber":0},{"time":50275.84950000003,"duration":206.89650000000256,"noteNumber":57,"velocity":100,"programNumber":0},{"time":50482.746000000036,"duration":206.89650000000256,"noteNumber":57,"velocity":100,"programNumber":0},{"time":50689.64250000004,"duration":206.89650000000256,"noteNumber":57,"velocity":100,"programNumber":0},{"time":50896.53900000004,"duration":206.89650000000256,"noteNumber":57,"velocity":100,"programNumber":0},{"time":51103.43550000004,"duration":206.89650000000256,"noteNumber":57,"velocity":100,"programNumber":0},{"time":51310.332000000046,"duration":206.89650000000256,"noteNumber":57,"velocity":100,"programNumber":0},{"time":51517.22850000005,"duration":206.89650000000256,"noteNumber":57,"velocity":100,"programNumber":0},{"time":51724.12500000005,"duration":206.89650000000256,"noteNumber":50,"velocity":100,"programNumber":0},{"time":51931.02150000005,"duration":206.89650000000256,"noteNumber":50,"velocity":100,"programNumber":0},{"time":52137.918000000056,"duration":206.89650000000256,"noteNumber":52,"velocity":100,"programNumber":0},{"time":52344.81450000006,"duration":206.89650000000256,"noteNumber":52,"velocity":100,"programNumber":0},{"time":52551.71100000006,"duration":413.79299999999785,"noteNumber":45,"velocity":100,"programNumber":0},{"time":99724.11300000006,"duration":206.89650000000256,"noteNumber":57,"velocity":100,"programNumber":0},{"time":99931.00950000006,"duration":206.89650000000256,"noteNumber":57,"velocity":100,"programNumber":0},{"time":100137.90600000006,"duration":206.89650000000256,"noteNumber":57,"velocity":100,"programNumber":0},{"time":100344.80250000006,"duration":206.89650000000256,"noteNumber":57,"velocity":100,"programNumber":0},{"time":100551.69900000007,"duration":206.89650000000256,"noteNumber":57,"velocity":100,"programNumber":0},{"time":100758.59550000007,"duration":206.89650000000256,"noteNumber":57,"velocity":100,"programNumber":0},{"time":100965.49200000007,"duration":206.89650000000256,"noteNumber":57,"velocity":100,"programNumber":0},{"time":101172.38850000007,"duration":206.89650000000256,"noteNumber":57,"velocity":100,"programNumber":0},{"time":101379.28500000008,"duration":206.89650000000256,"noteNumber":50,"velocity":100,"programNumber":0},{"time":101586.18150000008,"duration":206.89650000000256,"noteNumber":50,"velocity":100,"programNumber":0},{"time":101793.07800000008,"duration":206.89650000000256,"noteNumber":51,"velocity":100,"programNumber":0},{"time":101999.97450000008,"duration":206.89650000000256,"noteNumber":51,"velocity":100,"programNumber":0},{"time":102206.87100000009,"duration":206.89650000000256,"noteNumber":52,"velocity":100,"programNumber":0},{"time":102413.76750000009,"duration":206.89650000000256,"noteNumber":52,"velocity":100,"programNumber":0},{"time":102620.66400000009,"duration":206.89650000000256,"noteNumber":52,"velocity":100,"programNumber":0},{"time":102827.5605000001,"duration":206.89650000000256,"noteNumber":52,"velocity":100,"programNumber":0},{"time":103034.4570000001,"duration":206.89650000000256,"noteNumber":57,"velocity":100,"programNumber":0},{"time":103241.3535000001,"duration":206.89650000000256,"noteNumber":57,"velocity":100,"programNumber":0},{"time":103448.2500000001,"duration":206.89650000000256,"noteNumber":57,"velocity":100,"programNumber":0},{"time":103655.1465000001,"duration":206.89650000000256,"noteNumber":57,"velocity":100,"programNumber":0},{"time":103862.0430000001,"duration":206.89650000000256,"noteNumber":57,"velocity":100,"programNumber":0},{"time":104068.93950000011,"duration":206.89650000000256,"noteNumber":57,"velocity":100,"programNumber":0},{"time":104275.83600000011,"duration":206.89650000000256,"noteNumber":57,"velocity":100,"programNumber":0},{"time":104482.73250000011,"duration":206.89650000000256,"noteNumber":57,"velocity":100,"programNumber":0},{"time":104689.62900000012,"duration":206.89650000000256,"noteNumber":50,"velocity":100,"programNumber":0},{"time":104896.52550000012,"duration":206.89650000000256,"noteNumber":50,"velocity":100,"programNumber":0},{"time":105103.42200000012,"duration":206.89650000000256,"noteNumber":52,"velocity":100,"programNumber":0},{"time":105310.31850000012,"duration":206.89650000000256,"noteNumber":52,"velocity":100,"programNumber":0},{"time":105517.21500000013,"duration":413.7930000000051,"noteNumber":45,"velocity":100,"programNumber":0},{"time":132827.55300000013,"duration":206.89650000000256,"noteNumber":48,"velocity":100,"programNumber":0},{"time":133034.44950000013,"duration":206.89650000000256,"noteNumber":60,"velocity":100,"programNumber":0},{"time":133241.34600000014,"duration":206.89650000000256,"noteNumber":52,"velocity":100,"programNumber":0},{"time":133448.24250000014,"duration":206.89650000000256,"noteNumber":64,"velocity":100,"programNumber":0},{"time":133655.13900000014,"duration":413.7930000000051,"noteNumber":55,"velocity":100,"programNumber":0},{"time":134482.72500000015,"duration":206.89650000000256,"noteNumber":48,"velocity":100,"programNumber":0},{"time":134689.62150000015,"duration":206.89650000000256,"noteNumber":60,"velocity":100,"programNumber":0},{"time":134896.51800000016,"duration":206.89650000000256,"noteNumber":52,"velocity":100,"programNumber":0},{"time":135103.41450000016,"duration":206.89650000000256,"noteNumber":64,"velocity":100,"programNumber":0},{"time":135310.31100000016,"duration":413.7930000000051,"noteNumber":55,"velocity":100,"programNumber":0},{"time":136137.89700000017,"duration":206.89650000000256,"noteNumber":45,"velocity":100,"programNumber":0},{"time":136344.79350000017,"duration":206.89650000000256,"noteNumber":57,"velocity":100,"programNumber":0},{"time":136551.69000000018,"duration":206.89650000000256,"noteNumber":48,"velocity":100,"programNumber":0},{"time":136758.58650000018,"duration":206.89650000000256,"noteNumber":60,"velocity":100,"programNumber":0},{"time":136965.48300000018,"duration":413.7930000000051,"noteNumber":52,"velocity":100,"programNumber":0},{"time":137793.0690000002,"duration":206.89650000000256,"noteNumber":45,"velocity":100,"programNumber":0},{"time":137999.9655000002,"duration":206.89650000000256,"noteNumber":57,"velocity":100,"programNumber":0},{"time":138206.8620000002,"duration":206.89650000000256,"noteNumber":48,"velocity":100,"programNumber":0},{"time":138413.7585000002,"duration":206.89650000000256,"noteNumber":60,"velocity":100,"programNumber":0},{"time":138620.6550000002,"duration":413.7930000000051,"noteNumber":52,"velocity":100,"programNumber":0}],[{"time":52965.504,"duration":103.44825000000128,"noteNumber":85,"velocity":100,"programNumber":1},{"time":53068.95225,"duration":103.44825000000128,"noteNumber":86,"velocity":100,"programNumber":1},{"time":53172.4005,"duration":103.44825000000128,"noteNumber":85,"velocity":100,"programNumber":1},{"time":53275.848750000005,"duration":103.44825000000128,"noteNumber":83,"velocity":100,"programNumber":1},{"time":53379.297000000006,"duration":103.44825000000128,"noteNumber":81,"velocity":100,"programNumber":1},{"time":53482.74525000001,"duration":103.44825000000128,"noteNumber":83,"velocity":100,"programNumber":1},{"time":53586.19350000001,"duration":103.44825000000128,"noteNumber":81,"velocity":100,"programNumber":1},{"time":53689.64175000001,"duration":103.44825000000128,"noteNumber":80,"velocity":100,"programNumber":1},{"time":53793.09000000001,"duration":103.44825000000128,"noteNumber":78,"velocity":100,"programNumber":1},{"time":53896.53825000001,"duration":103.44825000000128,"noteNumber":81,"velocity":100,"programNumber":1},{"time":53999.98650000001,"duration":103.44825000000128,"noteNumber":80,"velocity":100,"programNumber":1},{"time":54103.434750000015,"duration":103.44825000000128,"noteNumber":78,"velocity":100,"programNumber":1},{"time":54206.883000000016,"duration":103.44825000000128,"noteNumber":77,"velocity":100,"programNumber":1},{"time":54310.33125000002,"duration":103.44825000000128,"noteNumber":78,"velocity":100,"programNumber":1},{"time":54413.77950000002,"duration":103.44825000000128,"noteNumber":80,"velocity":100,"programNumber":1},{"time":54517.22775000002,"duration":103.44825000000128,"noteNumber":77,"velocity":100,"programNumber":1},{"time":54620.67600000002,"duration":103.44825000000128,"noteNumber":73,"velocity":100,"programNumber":1},{"time":54724.12425000002,"duration":103.44825000000128,"noteNumber":75,"velocity":100,"programNumber":1},{"time":54827.572500000024,"duration":103.44825000000128,"noteNumber":77,"velocity":100,"programNumber":1},{"time":54931.020750000025,"duration":103.44825000000128,"noteNumber":73,"velocity":100,"programNumber":1},{"time":55034.46900000003,"duration":103.44825000000128,"noteNumber":78,"velocity":100,"programNumber":1},{"time":55137.91725000003,"duration":103.44825000000128,"noteNumber":77,"velocity":100,"programNumber":1},{"time":55241.36550000003,"duration":103.44825000000128,"noteNumber":78,"velocity":100,"programNumber":1},{"time":55344.81375000003,"duration":103.44825000000128,"noteNumber":80,"velocity":100,"programNumber":1},{"time":55448.26200000003,"duration":103.44825000000128,"noteNumber":81,"velocity":100,"programNumber":1},{"time":55551.71025000003,"duration":103.44825000000128,"noteNumber":80,"velocity":100,"programNumber":1},{"time":55655.158500000034,"duration":103.44825000000128,"noteNumber":81,"velocity":100,"programNumber":1},{"time":55758.606750000035,"duration":103.44825000000128,"noteNumber":83,"velocity":100,"programNumber":1},{"time":55862.05500000004,"duration":103.44825000000128,"noteNumber":85,"velocity":100,"programNumber":1},{"time":55965.50325000004,"duration":103.44825000000128,"noteNumber":84,"velocity":100,"programNumber":1},{"time":56068.95150000004,"duration":103.44825000000128,"noteNumber":85,"velocity":100,"programNumber":1},{"time":56172.39975000004,"duration":103.44825000000128,"noteNumber":84,"velocity":100,"programNumber":1},{"time":56275.84800000004,"duration":103.44825000000128,"noteNumber":85,"velocity":100,"programNumber":1},{"time":56379.29625000004,"duration":103.44825000000128,"noteNumber":86,"velocity":100,"programNumber":1},{"time":56482.744500000044,"duration":103.44825000000128,"noteNumber":85,"velocity":100,"programNumber":1},{"time":56586.192750000046,"duration":103.44825000000128,"noteNumber":83,"velocity":100,"programNumber":1},{"time":56689.64100000005,"duration":103.44825000000128,"noteNumber":81,"velocity":100,"programNumber":1},{"time":56793.08925000005,"duration":103.44825000000128,"noteNumber":83,"velocity":100,"programNumber":1},{"time":56896.53750000005,"duration":103.44825000000128,"noteNumber":81,"velocity":100,"programNumber":1},{"time":56999.98575000005,"duration":103.44825000000128,"noteNumber":80,"velocity":100,"programNumber":1},{"time":57103.43400000005,"duration":103.44825000000128,"noteNumber":78,"velocity":100,"programNumber":1},{"time":57206.88225000005,"duration":103.44825000000128,"noteNumber":81,"velocity":100,"programNumber":1},{"time":57310.330500000055,"duration":103.44825000000128,"noteNumber":80,"velocity":100,"programNumber":1},{"time":57413.778750000056,"duration":103.44825000000128,"noteNumber":78,"velocity":100,"programNumber":1},{"time":57517.22700000006,"duration":103.44825000000128,"noteNumber":76,"velocity":100,"programNumber":1},{"time":57620.67525000006,"duration":103.44825000000128,"noteNumber":78,"velocity":100,"programNumber":1},{"time":57724.12350000006,"duration":103.44825000000128,"noteNumber":80,"velocity":100,"programNumber":1},{"time":57827.57175000006,"duration":103.44825000000128,"noteNumber":76,"velocity":100,"programNumber":1},{"time":57931.02000000006,"duration":103.44825000000128,"noteNumber":73,"velocity":100,"programNumber":1},{"time":58034.46825000006,"duration":103.44825000000128,"noteNumber":75,"velocity":100,"programNumber":1},{"time":58137.916500000065,"duration":103.44825000000128,"noteNumber":76,"velocity":100,"programNumber":1},{"time":58241.364750000066,"duration":103.44825000000128,"noteNumber":73,"velocity":100,"programNumber":1},{"time":58344.81300000007,"duration":103.44825000000128,"noteNumber":75,"velocity":100,"programNumber":1},{"time":58448.26125000007,"duration":103.44825000000128,"noteNumber":76,"velocity":100,"programNumber":1},{"time":58551.70950000007,"duration":103.44825000000128,"noteNumber":78,"velocity":100,"programNumber":1},{"time":58655.15775000007,"duration":103.44825000000128,"noteNumber":75,"velocity":100,"programNumber":1},{"time":58758.60600000007,"duration":103.44825000000128,"noteNumber":72,"velocity":100,"programNumber":1},{"time":58862.054250000074,"duration":103.44825000000128,"noteNumber":73,"velocity":100,"programNumber":1},{"time":58965.502500000075,"duration":103.44825000000128,"noteNumber":75,"velocity":100,"programNumber":1},{"time":59068.95075000008,"duration":103.44825000000128,"noteNumber":72,"velocity":100,"programNumber":1},{"time":59172.39900000008,"duration":413.79299999999785,"noteNumber":73,"velocity":100,"programNumber":1},{"time":72827.56800000007,"duration":103.44825000000128,"noteNumber":85,"velocity":100,"programNumber":1},{"time":72931.01625000007,"duration":103.44825000000128,"noteNumber":86,"velocity":100,"programNumber":1},{"time":73034.46450000007,"duration":103.44825000000128,"noteNumber":85,"velocity":100,"programNumber":1},{"time":73137.91275000008,"duration":103.44825000000128,"noteNumber":83,"velocity":100,"programNumber":1},{"time":73241.36100000008,"duration":103.44825000000128,"noteNumber":81,"velocity":100,"programNumber":1},{"time":73344.80925000008,"duration":103.44825000000128,"noteNumber":83,"velocity":100,"programNumber":1},{"time":73448.25750000008,"duration":103.44825000000128,"noteNumber":81,"velocity":100,"programNumber":1},{"time":73551.70575000008,"duration":103.44825000000128,"noteNumber":80,"velocity":100,"programNumber":1},{"time":73655.15400000008,"duration":103.44825000000128,"noteNumber":78,"velocity":100,"programNumber":1},{"time":73758.60225000008,"duration":103.44825000000128,"noteNumber":81,"velocity":100,"programNumber":1},{"time":73862.05050000008,"duration":103.44825000000128,"noteNumber":80,"velocity":100,"programNumber":1},{"time":73965.49875000009,"duration":103.44825000000128,"noteNumber":78,"velocity":100,"programNumber":1},{"time":74068.94700000009,"duration":103.44825000000128,"noteNumber":77,"velocity":100,"programNumber":1},{"time":74172.39525000009,"duration":103.44825000000128,"noteNumber":78,"velocity":100,"programNumber":1},{"time":74275.84350000009,"duration":103.44825000000128,"noteNumber":80,"velocity":100,"programNumber":1},{"time":74379.29175000009,"duration":103.44825000000128,"noteNumber":77,"velocity":100,"programNumber":1},{"time":74482.74000000009,"duration":103.44825000000128,"noteNumber":73,"velocity":100,"programNumber":1},{"time":74586.1882500001,"duration":103.44825000000128,"noteNumber":75,"velocity":100,"programNumber":1},{"time":74689.6365000001,"duration":103.44825000000128,"noteNumber":77,"velocity":100,"programNumber":1},{"time":74793.0847500001,"duration":103.44825000000128,"noteNumber":73,"velocity":100,"programNumber":1},{"time":74896.5330000001,"duration":103.44825000000128,"noteNumber":78,"velocity":100,"programNumber":1},{"time":74999.9812500001,"duration":103.44825000000128,"noteNumber":77,"velocity":100,"programNumber":1},{"time":75103.4295000001,"duration":103.44825000000128,"noteNumber":78,"velocity":100,"programNumber":1},{"time":75206.8777500001,"duration":103.44825000000128,"noteNumber":80,"velocity":100,"programNumber":1},{"time":75310.3260000001,"duration":103.44825000000128,"noteNumber":81,"velocity":100,"programNumber":1},{"time":75413.7742500001,"duration":103.44825000000128,"noteNumber":80,"velocity":100,"programNumber":1},{"time":75517.2225000001,"duration":103.44825000000128,"noteNumber":81,"velocity":100,"programNumber":1},{"time":75620.6707500001,"duration":103.44825000000128,"noteNumber":83,"velocity":100,"programNumber":1},{"time":75724.11900000011,"duration":103.44825000000128,"noteNumber":85,"velocity":100,"programNumber":1},{"time":75827.56725000011,"duration":103.44825000000128,"noteNumber":84,"velocity":100,"programNumber":1},{"time":75931.01550000011,"duration":103.44825000000128,"noteNumber":85,"velocity":100,"programNumber":1},{"time":76034.46375000011,"duration":103.44825000000128,"noteNumber":84,"velocity":100,"programNumber":1},{"time":76137.91200000011,"duration":103.44825000000128,"noteNumber":85,"velocity":100,"programNumber":1},{"time":76241.36025000011,"duration":103.44825000000128,"noteNumber":83,"velocity":100,"programNumber":1},{"time":76344.80850000012,"duration":103.44825000000128,"noteNumber":85,"velocity":100,"programNumber":1},{"time":76448.25675000012,"duration":103.44825000000128,"noteNumber":82,"velocity":100,"programNumber":1},{"time":76551.70500000012,"duration":103.44825000000128,"noteNumber":86,"velocity":100,"programNumber":1},{"time":76655.15325000012,"duration":103.44825000000128,"noteNumber":85,"velocity":100,"programNumber":1},{"time":76758.60150000012,"duration":103.44825000000128,"noteNumber":86,"velocity":100,"programNumber":1},{"time":76862.04975000012,"duration":103.44825000000128,"noteNumber":85,"velocity":100,"programNumber":1},{"time":76965.49800000012,"duration":103.44825000000128,"noteNumber":86,"velocity":100,"programNumber":1},{"time":77068.94625000012,"duration":103.44825000000128,"noteNumber":85,"velocity":100,"programNumber":1},{"time":77172.39450000013,"duration":103.44825000000128,"noteNumber":86,"velocity":100,"programNumber":1},{"time":77275.84275000013,"duration":103.44825000000128,"noteNumber":85,"velocity":100,"programNumber":1},{"time":77379.29100000013,"duration":103.44825000000128,"noteNumber":86,"velocity":100,"programNumber":1},{"time":77482.73925000013,"duration":103.44825000000128,"noteNumber":85,"velocity":100,"programNumber":1},{"time":77586.18750000013,"duration":103.44825000000128,"noteNumber":83,"velocity":100,"programNumber":1},{"time":77689.63575000013,"duration":103.44825000000128,"noteNumber":81,"velocity":100,"programNumber":1},{"time":77793.08400000013,"duration":103.44825000000128,"noteNumber":80,"velocity":100,"programNumber":1},{"time":77896.53225000013,"duration":103.44825000000128,"noteNumber":81,"velocity":100,"programNumber":1},{"time":77999.98050000014,"duration":103.44825000000128,"noteNumber":83,"velocity":100,"programNumber":1},{"time":78103.42875000014,"duration":103.44825000000128,"noteNumber":80,"velocity":100,"programNumber":1},{"time":78206.87700000014,"duration":103.44825000000128,"noteNumber":81,"velocity":100,"programNumber":1},{"time":78310.32525000014,"duration":103.44825000000128,"noteNumber":83,"velocity":100,"programNumber":1},{"time":78413.77350000014,"duration":103.44825000000128,"noteNumber":85,"velocity":100,"programNumber":1},{"time":78517.22175000014,"duration":103.44825000000128,"noteNumber":78,"velocity":100,"programNumber":1},{"time":78620.67000000014,"duration":103.44825000000128,"noteNumber":77,"velocity":100,"programNumber":1},{"time":78724.11825000015,"duration":103.44825000000128,"noteNumber":78,"velocity":100,"programNumber":1},{"time":78827.56650000015,"duration":103.44825000000128,"noteNumber":80,"velocity":100,"programNumber":1},{"time":78931.01475000015,"duration":103.44825000000128,"noteNumber":77,"velocity":100,"programNumber":1},{"time":79034.46300000015,"duration":413.7930000000051,"noteNumber":78,"velocity":100,"programNumber":1}],[{"time":53379.297,"duration":206.89650000000256,"noteNumber":54,"velocity":100,"programNumber":1},{"time":53586.1935,"duration":206.89650000000256,"noteNumber":57,"velocity":100,"programNumber":1},{"time":53586.1935,"duration":206.89650000000256,"noteNumber":61,"velocity":100,"programNumber":1},{"time":53793.090000000004,"duration":206.89650000000256,"noteNumber":57,"velocity":100,"programNumber":1},{"time":53793.090000000004,"duration":206.89650000000256,"noteNumber":61,"velocity":100,"programNumber":1},{"time":53999.986500000006,"duration":206.89650000000256,"noteNumber":57,"velocity":100,"programNumber":1},{"time":53999.986500000006,"duration":206.89650000000256,"noteNumber":61,"velocity":100,"programNumber":1},{"time":54206.88300000001,"duration":206.89650000000256,"noteNumber":56,"velocity":100,"programNumber":1},{"time":54413.77950000001,"duration":206.89650000000256,"noteNumber":59,"velocity":100,"programNumber":1},{"time":54413.77950000001,"duration":206.89650000000256,"noteNumber":61,"velocity":100,"programNumber":1},{"time":54620.676000000014,"duration":206.89650000000256,"noteNumber":59,"velocity":100,"programNumber":1},{"time":54620.676000000014,"duration":206.89650000000256,"noteNumber":61,"velocity":100,"programNumber":1},{"time":54827.57250000002,"duration":206.89650000000256,"noteNumber":59,"velocity":100,"programNumber":1},{"time":54827.57250000002,"duration":206.89650000000256,"noteNumber":61,"velocity":100,"programNumber":1},{"time":55034.46900000002,"duration":206.89650000000256,"noteNumber":54,"velocity":100,"programNumber":1},{"time":55241.36550000002,"duration":206.89650000000256,"noteNumber":57,"velocity":100,"programNumber":1},{"time":55241.36550000002,"duration":206.89650000000256,"noteNumber":61,"velocity":100,"programNumber":1},{"time":55448.262000000024,"duration":206.89650000000256,"noteNumber":57,"velocity":100,"programNumber":1},{"time":55448.262000000024,"duration":206.89650000000256,"noteNumber":61,"velocity":100,"programNumber":1},{"time":55655.15850000003,"duration":206.89650000000256,"noteNumber":57,"velocity":100,"programNumber":1},{"time":55655.15850000003,"duration":206.89650000000256,"noteNumber":61,"velocity":100,"programNumber":1},{"time":55862.05500000003,"duration":206.89650000000256,"noteNumber":53,"velocity":100,"programNumber":1},{"time":56068.95150000003,"duration":206.89650000000256,"noteNumber":56,"velocity":100,"programNumber":1},{"time":56068.95150000003,"duration":206.89650000000256,"noteNumber":61,"velocity":100,"programNumber":1},{"time":56275.848000000035,"duration":206.89650000000256,"noteNumber":56,"velocity":100,"programNumber":1},{"time":56275.848000000035,"duration":206.89650000000256,"noteNumber":61,"velocity":100,"programNumber":1},{"time":56482.74450000004,"duration":206.89650000000256,"noteNumber":56,"velocity":100,"programNumber":1},{"time":56482.74450000004,"duration":206.89650000000256,"noteNumber":61,"velocity":100,"programNumber":1},{"time":56689.64100000004,"duration":206.89650000000256,"noteNumber":54,"velocity":100,"programNumber":1},{"time":56896.53750000004,"duration":206.89650000000256,"noteNumber":57,"velocity":100,"programNumber":1},{"time":56896.53750000004,"duration":206.89650000000256,"noteNumber":61,"velocity":100,"programNumber":1},{"time":57103.434000000045,"duration":206.89650000000256,"noteNumber":57,"velocity":100,"programNumber":1},{"time":57103.434000000045,"duration":206.89650000000256,"noteNumber":61,"velocity":100,"programNumber":1},{"time":57310.33050000005,"duration":206.89650000000256,"noteNumber":57,"velocity":100,"programNumber":1},{"time":57310.33050000005,"duration":206.89650000000256,"noteNumber":61,"velocity":100,"programNumber":1},{"time":57517.22700000005,"duration":206.89650000000256,"noteNumber":56,"velocity":100,"programNumber":1},{"time":57724.12350000005,"duration":206.89650000000256,"noteNumber":61,"velocity":100,"programNumber":1},{"time":57724.12350000005,"duration":206.89650000000256,"noteNumber":64,"velocity":100,"programNumber":1},{"time":57931.020000000055,"duration":206.89650000000256,"noteNumber":61,"velocity":100,"programNumber":1},{"time":57931.020000000055,"duration":206.89650000000256,"noteNumber":64,"velocity":100,"programNumber":1},{"time":58137.91650000006,"duration":206.89650000000256,"noteNumber":61,"velocity":100,"programNumber":1},{"time":58137.91650000006,"duration":206.89650000000256,"noteNumber":64,"velocity":100,"programNumber":1},{"time":58344.81300000006,"duration":206.89650000000256,"noteNumber":56,"velocity":100,"programNumber":1},{"time":58551.70950000006,"duration":206.89650000000256,"noteNumber":63,"velocity":100,"programNumber":1},{"time":58551.70950000006,"duration":206.89650000000256,"noteNumber":66,"velocity":100,"programNumber":1},{"time":58758.606000000065,"duration":206.89650000000256,"noteNumber":63,"velocity":100,"programNumber":1},{"time":58758.606000000065,"duration":206.89650000000256,"noteNumber":66,"velocity":100,"programNumber":1},{"time":58965.50250000007,"duration":206.89650000000256,"noteNumber":63,"velocity":100,"programNumber":1},{"time":58965.50250000007,"duration":206.89650000000256,"noteNumber":66,"velocity":100,"programNumber":1},{"time":59172.39900000007,"duration":413.79299999999785,"noteNumber":61,"velocity":100,"programNumber":1},{"time":59172.39900000007,"duration":413.79299999999785,"noteNumber":64,"velocity":100,"programNumber":1},{"time":73241.36100000006,"duration":206.89650000000256,"noteNumber":54,"velocity":100,"programNumber":1},{"time":73448.25750000007,"duration":206.89650000000256,"noteNumber":57,"velocity":100,"programNumber":1},{"time":73448.25750000007,"duration":206.89650000000256,"noteNumber":61,"velocity":100,"programNumber":1},{"time":73655.15400000007,"duration":206.89650000000256,"noteNumber":57,"velocity":100,"programNumber":1},{"time":73655.15400000007,"duration":206.89650000000256,"noteNumber":61,"velocity":100,"programNumber":1},{"time":73862.05050000007,"duration":206.89650000000256,"noteNumber":57,"velocity":100,"programNumber":1},{"time":73862.05050000007,"duration":206.89650000000256,"noteNumber":61,"velocity":100,"programNumber":1},{"time":74068.94700000007,"duration":206.89650000000256,"noteNumber":56,"velocity":100,"programNumber":1},{"time":74275.84350000008,"duration":206.89650000000256,"noteNumber":59,"velocity":100,"programNumber":1},{"time":74275.84350000008,"duration":206.89650000000256,"noteNumber":61,"velocity":100,"programNumber":1},{"time":74482.74000000008,"duration":206.89650000000256,"noteNumber":59,"velocity":100,"programNumber":1},{"time":74482.74000000008,"duration":206.89650000000256,"noteNumber":61,"velocity":100,"programNumber":1},{"time":74689.63650000008,"duration":206.89650000000256,"noteNumber":59,"velocity":100,"programNumber":1},{"time":74689.63650000008,"duration":206.89650000000256,"noteNumber":61,"velocity":100,"programNumber":1},{"time":74896.53300000008,"duration":206.89650000000256,"noteNumber":54,"velocity":100,"programNumber":1},{"time":75103.42950000009,"duration":206.89650000000256,"noteNumber":57,"velocity":100,"programNumber":1},{"time":75103.42950000009,"duration":206.89650000000256,"noteNumber":61,"velocity":100,"programNumber":1},{"time":75310.32600000009,"duration":206.89650000000256,"noteNumber":57,"velocity":100,"programNumber":1},{"time":75310.32600000009,"duration":206.89650000000256,"noteNumber":61,"velocity":100,"programNumber":1},{"time":75517.22250000009,"duration":206.89650000000256,"noteNumber":57,"velocity":100,"programNumber":1},{"time":75517.22250000009,"duration":206.89650000000256,"noteNumber":61,"velocity":100,"programNumber":1},{"time":75724.1190000001,"duration":206.89650000000256,"noteNumber":53,"velocity":100,"programNumber":1},{"time":75931.0155000001,"duration":206.89650000000256,"noteNumber":56,"velocity":100,"programNumber":1},{"time":75931.0155000001,"duration":206.89650000000256,"noteNumber":61,"velocity":100,"programNumber":1},{"time":76137.9120000001,"duration":206.89650000000256,"noteNumber":61,"velocity":100,"programNumber":1},{"time":76137.9120000001,"duration":206.89650000000256,"noteNumber":55,"velocity":100,"programNumber":1},{"time":76344.8085000001,"duration":206.89650000000256,"noteNumber":61,"velocity":100,"programNumber":1},{"time":76344.8085000001,"duration":206.89650000000256,"noteNumber":54,"velocity":100,"programNumber":1},{"time":76551.7050000001,"duration":206.89650000000256,"noteNumber":47,"velocity":100,"programNumber":1},{"time":76758.6015000001,"duration":206.89650000000256,"noteNumber":54,"velocity":100,"programNumber":1},{"time":76758.6015000001,"duration":206.89650000000256,"noteNumber":59,"velocity":100,"programNumber":1},{"time":76965.49800000011,"duration":206.89650000000256,"noteNumber":54,"velocity":100,"programNumber":1},{"time":76965.49800000011,"duration":206.89650000000256,"noteNumber":59,"velocity":100,"programNumber":1},{"time":77172.39450000011,"duration":206.89650000000256,"noteNumber":54,"velocity":100,"programNumber":1},{"time":77172.39450000011,"duration":206.89650000000256,"noteNumber":59,"velocity":100,"programNumber":1},{"time":77379.29100000011,"duration":206.89650000000256,"noteNumber":47,"velocity":100,"programNumber":1},{"time":77586.18750000012,"duration":206.89650000000256,"noteNumber":56,"velocity":100,"programNumber":1},{"time":77586.18750000012,"duration":206.89650000000256,"noteNumber":59,"velocity":100,"programNumber":1},{"time":77793.08400000012,"duration":206.89650000000256,"noteNumber":56,"velocity":100,"programNumber":1},{"time":77793.08400000012,"duration":206.89650000000256,"noteNumber":59,"velocity":100,"programNumber":1},{"time":77999.98050000012,"duration":206.89650000000256,"noteNumber":56,"velocity":100,"programNumber":1},{"time":77999.98050000012,"duration":206.89650000000256,"noteNumber":59,"velocity":100,"programNumber":1},{"time":78206.87700000012,"duration":206.89650000000256,"noteNumber":49,"velocity":100,"programNumber":1},{"time":78413.77350000013,"duration":206.89650000000256,"noteNumber":54,"velocity":100,"programNumber":1},{"time":78413.77350000013,"duration":206.89650000000256,"noteNumber":57,"velocity":100,"programNumber":1},{"time":78620.67000000013,"duration":206.89650000000256,"noteNumber":49,"velocity":100,"programNumber":1},{"time":78827.56650000013,"duration":206.89650000000256,"noteNumber":56,"velocity":100,"programNumber":1},{"time":78827.56650000013,"duration":206.89650000000256,"noteNumber":59,"velocity":100,"programNumber":1},{"time":79034.46300000013,"duration":413.7930000000051,"noteNumber":54,"velocity":100,"programNumber":1},{"time":79034.46300000013,"duration":413.7930000000051,"noteNumber":57,"velocity":100,"programNumber":1}],[{"time":59586.192,"duration":103.44825000000128,"noteNumber":85,"velocity":100,"programNumber":1},{"time":59689.640250000004,"duration":103.44825000000128,"noteNumber":86,"velocity":100,"programNumber":1},{"time":59793.088500000005,"duration":103.44825000000128,"noteNumber":85,"velocity":100,"programNumber":1},{"time":59896.53675000001,"duration":103.44825000000128,"noteNumber":83,"velocity":100,"programNumber":1},{"time":59999.98500000001,"duration":103.44825000000128,"noteNumber":81,"velocity":100,"programNumber":1},{"time":60103.43325000001,"duration":103.44825000000128,"noteNumber":83,"velocity":100,"programNumber":1},{"time":60206.88150000001,"duration":103.44825000000128,"noteNumber":81,"velocity":100,"programNumber":1},{"time":60310.32975000001,"duration":103.44825000000128,"noteNumber":80,"velocity":100,"programNumber":1},{"time":60413.77800000001,"duration":103.44825000000128,"noteNumber":78,"velocity":100,"programNumber":1},{"time":60517.226250000014,"duration":103.44825000000128,"noteNumber":81,"velocity":100,"programNumber":1},{"time":60620.674500000016,"duration":103.44825000000128,"noteNumber":80,"velocity":100,"programNumber":1},{"time":60724.12275000002,"duration":103.44825000000128,"noteNumber":78,"velocity":100,"programNumber":1},{"time":60827.57100000002,"duration":103.44825000000128,"noteNumber":77,"velocity":100,"programNumber":1},{"time":60931.01925000002,"duration":103.44825000000128,"noteNumber":78,"velocity":100,"programNumber":1},{"time":61034.46750000002,"duration":103.44825000000128,"noteNumber":80,"velocity":100,"programNumber":1},{"time":61137.91575000002,"duration":103.44825000000128,"noteNumber":77,"velocity":100,"programNumber":1},{"time":61241.36400000002,"duration":103.44825000000128,"noteNumber":73,"velocity":100,"programNumber":1},{"time":61344.812250000025,"duration":103.44825000000128,"noteNumber":75,"velocity":100,"programNumber":1},{"time":61448.260500000026,"duration":103.44825000000128,"noteNumber":77,"velocity":100,"programNumber":1},{"time":61551.70875000003,"duration":103.44825000000128,"noteNumber":73,"velocity":100,"programNumber":1},{"time":61655.15700000003,"duration":103.44825000000128,"noteNumber":78,"velocity":100,"programNumber":1},{"time":61758.60525000003,"duration":103.44825000000128,"noteNumber":77,"velocity":100,"programNumber":1},{"time":61862.05350000003,"duration":103.44825000000128,"noteNumber":78,"velocity":100,"programNumber":1},{"time":61965.50175000003,"duration":103.44825000000128,"noteNumber":80,"velocity":100,"programNumber":1},{"time":62068.95000000003,"duration":103.44825000000128,"noteNumber":81,"velocity":100,"programNumber":1},{"time":62172.398250000035,"duration":103.44825000000128,"noteNumber":80,"velocity":100,"programNumber":1},{"time":62275.846500000036,"duration":103.44825000000128,"noteNumber":81,"velocity":100,"programNumber":1},{"time":62379.29475000004,"duration":103.44825000000128,"noteNumber":83,"velocity":100,"programNumber":1},{"time":62482.74300000004,"duration":103.44825000000128,"noteNumber":85,"velocity":100,"programNumber":1},{"time":62586.19125000004,"duration":103.44825000000128,"noteNumber":84,"velocity":100,"programNumber":1},{"time":62689.63950000004,"duration":103.44825000000128,"noteNumber":85,"velocity":100,"programNumber":1},{"time":62793.08775000004,"duration":103.44825000000128,"noteNumber":84,"velocity":100,"programNumber":1},{"time":62896.536000000044,"duration":103.44825000000128,"noteNumber":85,"velocity":100,"programNumber":1},{"time":62999.984250000045,"duration":103.44825000000128,"noteNumber":86,"velocity":100,"programNumber":1},{"time":63103.432500000046,"duration":103.44825000000128,"noteNumber":85,"velocity":100,"programNumber":1},{"time":63206.88075000005,"duration":103.44825000000128,"noteNumber":83,"velocity":100,"programNumber":1},{"time":63310.32900000005,"duration":103.44825000000128,"noteNumber":81,"velocity":100,"programNumber":1},{"time":63413.77725000005,"duration":103.44825000000128,"noteNumber":83,"velocity":100,"programNumber":1},{"time":63517.22550000005,"duration":103.44825000000128,"noteNumber":81,"velocity":100,"programNumber":1},{"time":63620.67375000005,"duration":103.44825000000128,"noteNumber":80,"velocity":100,"programNumber":1},{"time":63724.122000000054,"duration":103.44825000000128,"noteNumber":78,"velocity":100,"programNumber":1},{"time":63827.570250000055,"duration":103.44825000000128,"noteNumber":81,"velocity":100,"programNumber":1},{"time":63931.01850000006,"duration":103.44825000000128,"noteNumber":80,"velocity":100,"programNumber":1},{"time":64034.46675000006,"duration":103.44825000000128,"noteNumber":78,"velocity":100,"programNumber":1},{"time":64137.91500000006,"duration":103.44825000000128,"noteNumber":76,"velocity":100,"programNumber":1},{"time":64241.36325000006,"duration":103.44825000000128,"noteNumber":78,"velocity":100,"programNumber":1},{"time":64344.81150000006,"duration":103.44825000000128,"noteNumber":80,"velocity":100,"programNumber":1},{"time":64448.25975000006,"duration":103.44825000000128,"noteNumber":76,"velocity":100,"programNumber":1},{"time":64551.708000000064,"duration":103.44825000000128,"noteNumber":73,"velocity":100,"programNumber":1},{"time":64655.156250000065,"duration":103.44825000000128,"noteNumber":75,"velocity":100,"programNumber":1},{"time":64758.60450000007,"duration":103.44825000000128,"noteNumber":76,"velocity":100,"programNumber":1},{"time":64862.05275000007,"duration":103.44825000000128,"noteNumber":73,"velocity":100,"programNumber":1},{"time":64965.50100000007,"duration":103.44825000000128,"noteNumber":75,"velocity":100,"programNumber":1},{"time":65068.94925000007,"duration":103.44825000000128,"noteNumber":76,"velocity":100,"programNumber":1},{"time":65172.39750000007,"duration":103.44825000000128,"noteNumber":78,"velocity":100,"programNumber":1},{"time":65275.84575000007,"duration":103.44825000000128,"noteNumber":75,"velocity":100,"programNumber":1},{"time":65379.294000000074,"duration":103.44825000000128,"noteNumber":72,"velocity":100,"programNumber":1},{"time":65482.742250000076,"duration":103.448249999994,"noteNumber":73,"velocity":100,"programNumber":1},{"time":65586.19050000007,"duration":103.44825000000128,"noteNumber":75,"velocity":100,"programNumber":1},{"time":65689.63875000007,"duration":103.44825000000128,"noteNumber":72,"velocity":100,"programNumber":1},{"time":65793.08700000007,"duration":413.7930000000051,"noteNumber":73,"velocity":100,"programNumber":1},{"time":86068.94400000008,"duration":103.44825000000128,"noteNumber":85,"velocity":100,"programNumber":1},{"time":86172.39225000008,"duration":103.44825000000128,"noteNumber":86,"velocity":100,"programNumber":1},{"time":86275.84050000008,"duration":103.44825000000128,"noteNumber":85,"velocity":100,"programNumber":1},{"time":86379.28875000008,"duration":103.44825000000128,"noteNumber":83,"velocity":100,"programNumber":1},{"time":86482.73700000008,"duration":103.44825000000128,"noteNumber":81,"velocity":100,"programNumber":1},{"time":86586.18525000008,"duration":103.44825000000128,"noteNumber":83,"velocity":100,"programNumber":1},{"time":86689.63350000008,"duration":103.44825000000128,"noteNumber":81,"velocity":100,"programNumber":1},{"time":86793.08175000008,"duration":103.44825000000128,"noteNumber":80,"velocity":100,"programNumber":1},{"time":86896.53000000009,"duration":103.44825000000128,"noteNumber":78,"velocity":100,"programNumber":1},{"time":86999.97825000009,"duration":103.44825000000128,"noteNumber":81,"velocity":100,"programNumber":1},{"time":87103.42650000009,"duration":103.44825000000128,"noteNumber":80,"velocity":100,"programNumber":1},{"time":87206.87475000009,"duration":103.44825000000128,"noteNumber":78,"velocity":100,"programNumber":1},{"time":87310.32300000009,"duration":103.44825000000128,"noteNumber":77,"velocity":100,"programNumber":1},{"time":87413.77125000009,"duration":103.44825000000128,"noteNumber":78,"velocity":100,"programNumber":1},{"time":87517.2195000001,"duration":103.44825000000128,"noteNumber":80,"velocity":100,"programNumber":1},{"time":87620.6677500001,"duration":103.44825000000128,"noteNumber":77,"velocity":100,"programNumber":1},{"time":87724.1160000001,"duration":103.44825000000128,"noteNumber":73,"velocity":100,"programNumber":1},{"time":87827.5642500001,"duration":103.44825000000128,"noteNumber":75,"velocity":100,"programNumber":1},{"time":87931.0125000001,"duration":103.44825000000128,"noteNumber":77,"velocity":100,"programNumber":1},{"time":88034.4607500001,"duration":103.44825000000128,"noteNumber":73,"velocity":100,"programNumber":1},{"time":88137.9090000001,"duration":103.44825000000128,"noteNumber":78,"velocity":100,"programNumber":1},{"time":88241.3572500001,"duration":103.44825000000128,"noteNumber":77,"velocity":100,"programNumber":1},{"time":88344.8055000001,"duration":103.44825000000128,"noteNumber":78,"velocity":100,"programNumber":1},{"time":88448.2537500001,"duration":103.44825000000128,"noteNumber":80,"velocity":100,"programNumber":1},{"time":88551.7020000001,"duration":103.44825000000128,"noteNumber":81,"velocity":100,"programNumber":1},{"time":88655.15025000011,"duration":103.44825000000128,"noteNumber":80,"velocity":100,"programNumber":1},{"time":88758.59850000011,"duration":103.44825000000128,"noteNumber":81,"velocity":100,"programNumber":1},{"time":88862.04675000011,"duration":103.44825000000128,"noteNumber":83,"velocity":100,"programNumber":1},{"time":88965.49500000011,"duration":103.44825000000128,"noteNumber":85,"velocity":100,"programNumber":1},{"time":89068.94325000011,"duration":103.44825000000128,"noteNumber":84,"velocity":100,"programNumber":1},{"time":89172.39150000011,"duration":103.44825000000128,"noteNumber":85,"velocity":100,"programNumber":1},{"time":89275.83975000012,"duration":103.44825000000128,"noteNumber":84,"velocity":100,"programNumber":1},{"time":89379.28800000012,"duration":103.44825000000128,"noteNumber":85,"velocity":100,"programNumber":1},{"time":89482.73625000012,"duration":103.44825000000128,"noteNumber":83,"velocity":100,"programNumber":1},{"time":89586.18450000012,"duration":103.44825000000128,"noteNumber":85,"velocity":100,"programNumber":1},{"time":89689.63275000012,"duration":103.44825000000128,"noteNumber":82,"velocity":100,"programNumber":1},{"time":89793.08100000012,"duration":103.44825000000128,"noteNumber":86,"velocity":100,"programNumber":1},{"time":89896.52925000012,"duration":103.44825000000128,"noteNumber":85,"velocity":100,"programNumber":1},{"time":89999.97750000012,"duration":103.44825000000128,"noteNumber":86,"velocity":100,"programNumber":1},{"time":90103.42575000013,"duration":103.44825000000128,"noteNumber":85,"velocity":100,"programNumber":1},{"time":90206.87400000013,"duration":103.44825000000128,"noteNumber":86,"velocity":100,"programNumber":1},{"time":90310.32225000013,"duration":103.44825000000128,"noteNumber":85,"velocity":100,"programNumber":1},{"time":90413.77050000013,"duration":103.44825000000128,"noteNumber":86,"velocity":100,"programNumber":1},{"time":90517.21875000013,"duration":103.44825000000128,"noteNumber":85,"velocity":100,"programNumber":1},{"time":90620.66700000013,"duration":103.44825000000128,"noteNumber":86,"velocity":100,"programNumber":1},{"time":90724.11525000013,"duration":103.44825000000128,"noteNumber":85,"velocity":100,"programNumber":1},{"time":90827.56350000013,"duration":103.44825000000128,"noteNumber":83,"velocity":100,"programNumber":1},{"time":90931.01175000014,"duration":103.44825000000128,"noteNumber":81,"velocity":100,"programNumber":1},{"time":91034.46000000014,"duration":103.44825000000128,"noteNumber":80,"velocity":100,"programNumber":1},{"time":91137.90825000014,"duration":103.44825000000128,"noteNumber":81,"velocity":100,"programNumber":1},{"time":91241.35650000014,"duration":103.44825000000128,"noteNumber":83,"velocity":100,"programNumber":1},{"time":91344.80475000014,"duration":103.44825000000128,"noteNumber":80,"velocity":100,"programNumber":1},{"time":91448.25300000014,"duration":103.44825000000128,"noteNumber":81,"velocity":100,"programNumber":1},{"time":91551.70125000014,"duration":103.44825000000128,"noteNumber":83,"velocity":100,"programNumber":1},{"time":91655.14950000015,"duration":103.44825000000128,"noteNumber":85,"velocity":100,"programNumber":1},{"time":91758.59775000015,"duration":103.44825000000128,"noteNumber":78,"velocity":100,"programNumber":1},{"time":91862.04600000015,"duration":103.44825000000128,"noteNumber":77,"velocity":100,"programNumber":1},{"time":91965.49425000015,"duration":103.44825000000128,"noteNumber":78,"velocity":100,"programNumber":1},{"time":92068.94250000015,"duration":103.44825000000128,"noteNumber":80,"velocity":100,"programNumber":1},{"time":92172.39075000015,"duration":103.44825000000128,"noteNumber":77,"velocity":100,"programNumber":1},{"time":92275.83900000015,"duration":413.7930000000051,"noteNumber":78,"velocity":100,"programNumber":1}],[{"time":59999.985,"duration":206.89650000000256,"noteNumber":54,"velocity":100,"programNumber":1},{"time":60206.8815,"duration":206.89650000000256,"noteNumber":57,"velocity":100,"programNumber":1},{"time":60206.8815,"duration":206.89650000000256,"noteNumber":61,"velocity":100,"programNumber":1},{"time":60413.778000000006,"duration":206.89650000000256,"noteNumber":57,"velocity":100,"programNumber":1},{"time":60413.778000000006,"duration":206.89650000000256,"noteNumber":61,"velocity":100,"programNumber":1},{"time":60620.67450000001,"duration":206.89650000000256,"noteNumber":57,"velocity":100,"programNumber":1},{"time":60620.67450000001,"duration":206.89650000000256,"noteNumber":61,"velocity":100,"programNumber":1},{"time":60827.57100000001,"duration":206.89650000000256,"noteNumber":56,"velocity":100,"programNumber":1},{"time":61034.46750000001,"duration":206.89650000000256,"noteNumber":59,"velocity":100,"programNumber":1},{"time":61034.46750000001,"duration":206.89650000000256,"noteNumber":61,"velocity":100,"programNumber":1},{"time":61241.364000000016,"duration":206.89650000000256,"noteNumber":59,"velocity":100,"programNumber":1},{"time":61241.364000000016,"duration":206.89650000000256,"noteNumber":61,"velocity":100,"programNumber":1},{"time":61448.26050000002,"duration":206.89650000000256,"noteNumber":59,"velocity":100,"programNumber":1},{"time":61448.26050000002,"duration":206.89650000000256,"noteNumber":61,"velocity":100,"programNumber":1},{"time":61655.15700000002,"duration":206.89650000000256,"noteNumber":54,"velocity":100,"programNumber":1},{"time":61862.05350000002,"duration":206.89650000000256,"noteNumber":57,"velocity":100,"programNumber":1},{"time":61862.05350000002,"duration":206.89650000000256,"noteNumber":61,"velocity":100,"programNumber":1},{"time":62068.950000000026,"duration":206.89650000000256,"noteNumber":57,"velocity":100,"programNumber":1},{"time":62068.950000000026,"duration":206.89650000000256,"noteNumber":61,"velocity":100,"programNumber":1},{"time":62275.84650000003,"duration":206.89650000000256,"noteNumber":57,"velocity":100,"programNumber":1},{"time":62275.84650000003,"duration":206.89650000000256,"noteNumber":61,"velocity":100,"programNumber":1},{"time":62482.74300000003,"duration":206.89650000000256,"noteNumber":53,"velocity":100,"programNumber":1},{"time":62689.639500000034,"duration":206.89650000000256,"noteNumber":56,"velocity":100,"programNumber":1},{"time":62689.639500000034,"duration":206.89650000000256,"noteNumber":61,"velocity":100,"programNumber":1},{"time":62896.53600000004,"duration":206.89650000000256,"noteNumber":56,"velocity":100,"programNumber":1},{"time":62896.53600000004,"duration":206.89650000000256,"noteNumber":61,"velocity":100,"programNumber":1},{"time":63103.43250000004,"duration":206.89650000000256,"noteNumber":56,"velocity":100,"programNumber":1},{"time":63103.43250000004,"duration":206.89650000000256,"noteNumber":61,"velocity":100,"programNumber":1},{"time":63310.32900000004,"duration":206.89650000000256,"noteNumber":54,"velocity":100,"programNumber":1},{"time":63517.225500000044,"duration":206.89650000000256,"noteNumber":57,"velocity":100,"programNumber":1},{"time":63517.225500000044,"duration":206.89650000000256,"noteNumber":61,"velocity":100,"programNumber":1},{"time":63724.12200000005,"duration":206.89650000000256,"noteNumber":57,"velocity":100,"programNumber":1},{"time":63724.12200000005,"duration":206.89650000000256,"noteNumber":61,"velocity":100,"programNumber":1},{"time":63931.01850000005,"duration":206.89650000000256,"noteNumber":57,"velocity":100,"programNumber":1},{"time":63931.01850000005,"duration":206.89650000000256,"noteNumber":61,"velocity":100,"programNumber":1},{"time":64137.91500000005,"duration":206.89650000000256,"noteNumber":56,"velocity":100,"programNumber":1},{"time":64344.811500000054,"duration":206.89650000000256,"noteNumber":61,"velocity":100,"programNumber":1},{"time":64344.811500000054,"duration":206.89650000000256,"noteNumber":64,"velocity":100,"programNumber":1},{"time":64551.70800000006,"duration":206.89650000000256,"noteNumber":61,"velocity":100,"programNumber":1},{"time":64551.70800000006,"duration":206.89650000000256,"noteNumber":64,"velocity":100,"programNumber":1},{"time":64758.60450000006,"duration":206.89650000000256,"noteNumber":61,"velocity":100,"programNumber":1},{"time":64758.60450000006,"duration":206.89650000000256,"noteNumber":64,"velocity":100,"programNumber":1},{"time":64965.50100000006,"duration":206.89650000000256,"noteNumber":56,"velocity":100,"programNumber":1},{"time":65172.397500000065,"duration":206.89650000000256,"noteNumber":63,"velocity":100,"programNumber":1},{"time":65172.397500000065,"duration":206.89650000000256,"noteNumber":66,"velocity":100,"programNumber":1},{"time":65379.29400000007,"duration":206.89650000000256,"noteNumber":63,"velocity":100,"programNumber":1},{"time":65379.29400000007,"duration":206.89650000000256,"noteNumber":66,"velocity":100,"programNumber":1},{"time":65586.19050000007,"duration":206.89650000000256,"noteNumber":63,"velocity":100,"programNumber":1},{"time":65586.19050000007,"duration":206.89650000000256,"noteNumber":66,"velocity":100,"programNumber":1},{"time":65793.08700000007,"duration":413.7930000000051,"noteNumber":61,"velocity":100,"programNumber":1},{"time":65793.08700000007,"duration":413.7930000000051,"noteNumber":64,"velocity":100,"programNumber":1},{"time":86482.73700000008,"duration":206.89650000000256,"noteNumber":54,"velocity":100,"programNumber":1},{"time":86689.63350000008,"duration":206.89650000000256,"noteNumber":57,"velocity":100,"programNumber":1},{"time":86689.63350000008,"duration":206.89650000000256,"noteNumber":61,"velocity":100,"programNumber":1},{"time":86896.53000000009,"duration":206.89650000000256,"noteNumber":57,"velocity":100,"programNumber":1},{"time":86896.53000000009,"duration":206.89650000000256,"noteNumber":61,"velocity":100,"programNumber":1},{"time":87103.42650000009,"duration":206.89650000000256,"noteNumber":57,"velocity":100,"programNumber":1},{"time":87103.42650000009,"duration":206.89650000000256,"noteNumber":61,"velocity":100,"programNumber":1},{"time":87310.32300000009,"duration":206.89650000000256,"noteNumber":56,"velocity":100,"programNumber":1},{"time":87517.2195000001,"duration":206.89650000000256,"noteNumber":59,"velocity":100,"programNumber":1},{"time":87517.2195000001,"duration":206.89650000000256,"noteNumber":61,"velocity":100,"programNumber":1},{"time":87724.1160000001,"duration":206.89650000000256,"noteNumber":59,"velocity":100,"programNumber":1},{"time":87724.1160000001,"duration":206.89650000000256,"noteNumber":61,"velocity":100,"programNumber":1},{"time":87931.0125000001,"duration":206.89650000000256,"noteNumber":59,"velocity":100,"programNumber":1},{"time":87931.0125000001,"duration":206.89650000000256,"noteNumber":61,"velocity":100,"programNumber":1},{"time":88137.9090000001,"duration":206.89650000000256,"noteNumber":54,"velocity":100,"programNumber":1},{"time":88344.8055000001,"duration":206.89650000000256,"noteNumber":57,"velocity":100,"programNumber":1},{"time":88344.8055000001,"duration":206.89650000000256,"noteNumber":61,"velocity":100,"programNumber":1},{"time":88551.7020000001,"duration":206.89650000000256,"noteNumber":57,"velocity":100,"programNumber":1},{"time":88551.7020000001,"duration":206.89650000000256,"noteNumber":61,"velocity":100,"programNumber":1},{"time":88758.59850000011,"duration":206.89650000000256,"noteNumber":57,"velocity":100,"programNumber":1},{"time":88758.59850000011,"duration":206.89650000000256,"noteNumber":61,"velocity":100,"programNumber":1},{"time":88965.49500000011,"duration":206.89650000000256,"noteNumber":53,"velocity":100,"programNumber":1},{"time":89172.39150000011,"duration":206.89650000000256,"noteNumber":56,"velocity":100,"programNumber":1},{"time":89172.39150000011,"duration":206.89650000000256,"noteNumber":61,"velocity":100,"programNumber":1},{"time":89379.28800000012,"duration":206.89650000000256,"noteNumber":61,"velocity":100,"programNumber":1},{"time":89379.28800000012,"duration":206.89650000000256,"noteNumber":55,"velocity":100,"programNumber":1},{"time":89586.18450000012,"duration":206.89650000000256,"noteNumber":61,"velocity":100,"programNumber":1},{"time":89586.18450000012,"duration":206.89650000000256,"noteNumber":54,"velocity":100,"programNumber":1},{"time":89793.08100000012,"duration":206.89650000000256,"noteNumber":47,"velocity":100,"programNumber":1},{"time":89999.97750000012,"duration":206.89650000000256,"noteNumber":54,"velocity":100,"programNumber":1},{"time":89999.97750000012,"duration":206.89650000000256,"noteNumber":59,"velocity":100,"programNumber":1},{"time":90206.87400000013,"duration":206.89650000000256,"noteNumber":54,"velocity":100,"programNumber":1},{"time":90206.87400000013,"duration":206.89650000000256,"noteNumber":59,"velocity":100,"programNumber":1},{"time":90413.77050000013,"duration":206.89650000000256,"noteNumber":54,"velocity":100,"programNumber":1},{"time":90413.77050000013,"duration":206.89650000000256,"noteNumber":59,"velocity":100,"programNumber":1},{"time":90620.66700000013,"duration":206.89650000000256,"noteNumber":47,"velocity":100,"programNumber":1},{"time":90827.56350000013,"duration":206.89650000000256,"noteNumber":56,"velocity":100,"programNumber":1},{"time":90827.56350000013,"duration":206.89650000000256,"noteNumber":59,"velocity":100,"programNumber":1},{"time":91034.46000000014,"duration":206.89650000000256,"noteNumber":56,"velocity":100,"programNumber":1},{"time":91034.46000000014,"duration":206.89650000000256,"noteNumber":59,"velocity":100,"programNumber":1},{"time":91241.35650000014,"duration":206.89650000000256,"noteNumber":56,"velocity":100,"programNumber":1},{"time":91241.35650000014,"duration":206.89650000000256,"noteNumber":59,"velocity":100,"programNumber":1},{"time":91448.25300000014,"duration":206.89650000000256,"noteNumber":49,"velocity":100,"programNumber":1},{"time":91655.14950000015,"duration":206.89650000000256,"noteNumber":54,"velocity":100,"programNumber":1},{"time":91655.14950000015,"duration":206.89650000000256,"noteNumber":57,"velocity":100,"programNumber":1},{"time":91862.04600000015,"duration":206.89650000000256,"noteNumber":49,"velocity":100,"programNumber":1},{"time":92068.94250000015,"duration":206.89650000000256,"noteNumber":56,"velocity":100,"programNumber":1},{"time":92068.94250000015,"duration":206.89650000000256,"noteNumber":59,"velocity":100,"programNumber":1},{"time":92275.83900000015,"duration":413.7930000000051,"noteNumber":54,"velocity":100,"programNumber":1},{"time":92275.83900000015,"duration":413.7930000000051,"noteNumber":57,"velocity":100,"programNumber":1}],[{"time":145655.136,"duration":103.44824999998673,"noteNumber":69,"velocity":100,"programNumber":0},{"time":145758.58424999999,"duration":103.44824999998673,"noteNumber":81,"velocity":100,"programNumber":0},{"time":145862.03249999997,"duration":103.44824999998673,"noteNumber":71,"velocity":100,"programNumber":0},{"time":145965.48074999996,"duration":103.44824999998673,"noteNumber":83,"velocity":100,"programNumber":0},{"time":146068.92899999995,"duration":103.44824999998673,"noteNumber":73,"velocity":100,"programNumber":0},{"time":146172.37724999993,"duration":103.44824999998673,"noteNumber":85,"velocity":100,"programNumber":0},{"time":146482.72199999992,"duration":103.44824999998673,"noteNumber":69,"velocity":100,"programNumber":0},{"time":146586.1702499999,"duration":103.44824999998673,"noteNumber":81,"velocity":100,"programNumber":0},{"time":146689.6184999999,"duration":103.44824999998673,"noteNumber":71,"velocity":100,"programNumber":0},{"time":146793.06674999988,"duration":103.44824999998673,"noteNumber":83,"velocity":100,"programNumber":0},{"time":146896.51499999987,"duration":103.44824999998673,"noteNumber":73,"velocity":100,"programNumber":0},{"time":146999.96324999986,"duration":103.44824999998673,"noteNumber":85,"velocity":100,"programNumber":0},{"time":147103.41149999984,"duration":103.44824999998673,"noteNumber":71,"velocity":100,"programNumber":0},{"time":147206.85974999983,"duration":103.44824999998673,"noteNumber":83,"velocity":100,"programNumber":0},{"time":147310.30799999982,"duration":103.44824999998673,"noteNumber":69,"velocity":100,"programNumber":0},{"time":147413.7562499998,"duration":103.44824999998673,"noteNumber":81,"velocity":100,"programNumber":0},{"time":147517.2044999998,"duration":103.44824999998673,"noteNumber":68,"velocity":100,"programNumber":0},{"time":147620.65274999978,"duration":103.44824999998673,"noteNumber":80,"velocity":100,"programNumber":0},{"time":147724.10099999976,"duration":103.44824999998673,"noteNumber":66,"velocity":100,"programNumber":0},{"time":147827.54924999975,"duration":103.44824999998673,"noteNumber":78,"velocity":100,"programNumber":0},{"time":147930.99749999974,"duration":103.44824999998673,"noteNumber":68,"velocity":100,"programNumber":0},{"time":148034.44574999972,"duration":103.44824999998673,"noteNumber":80,"velocity":100,"programNumber":0},{"time":148137.8939999997,"duration":103.44824999998673,"noteNumber":69,"velocity":100,"programNumber":0},{"time":148241.3422499997,"duration":103.44824999998673,"noteNumber":81,"velocity":100,"programNumber":0},{"time":148344.79049999968,"duration":103.44824999998673,"noteNumber":71,"velocity":100,"programNumber":0},{"time":148448.23874999967,"duration":103.44824999998673,"noteNumber":83,"velocity":100,"programNumber":0},{"time":148551.68699999966,"duration":103.44824999998673,"noteNumber":68,"velocity":100,"programNumber":0},{"time":148655.13524999964,"duration":103.44824999998673,"noteNumber":80,"velocity":100,"programNumber":0},{"time":148758.58349999963,"duration":103.44824999998673,"noteNumber":64,"velocity":100,"programNumber":0},{"time":148862.03174999962,"duration":103.44824999998673,"noteNumber":76,"velocity":100,"programNumber":0},{"time":148965.4799999996,"duration":103.44824999998673,"noteNumber":69,"velocity":100,"programNumber":0},{"time":149068.9282499996,"duration":103.44824999998673,"noteNumber":81,"velocity":100,"programNumber":0},{"time":149172.37649999958,"duration":103.44824999998673,"noteNumber":71,"velocity":100,"programNumber":0},{"time":149275.82474999956,"duration":103.44824999998673,"noteNumber":83,"velocity":100,"programNumber":0},{"time":149379.27299999955,"duration":103.44824999998673,"noteNumber":73,"velocity":100,"programNumber":0},{"time":149482.72124999954,"duration":103.44824999998673,"noteNumber":85,"velocity":100,"programNumber":0},{"time":149793.06599999953,"duration":103.44824999998673,"noteNumber":69,"velocity":100,"programNumber":0},{"time":149896.5142499995,"duration":103.44824999998673,"noteNumber":81,"velocity":100,"programNumber":0},{"time":149999.9624999995,"duration":103.44824999998673,"noteNumber":71,"velocity":100,"programNumber":0},{"time":150103.4107499995,"duration":103.44824999998673,"noteNumber":83,"velocity":100,"programNumber":0},{"time":150206.85899999947,"duration":103.44824999998673,"noteNumber":73,"velocity":100,"programNumber":0},{"time":150310.30724999946,"duration":103.44824999998673,"noteNumber":85,"velocity":100,"programNumber":0},{"time":150413.75549999945,"duration":103.44824999998673,"noteNumber":71,"velocity":100,"programNumber":0},{"time":150517.20374999943,"duration":103.44824999998673,"noteNumber":83,"velocity":100,"programNumber":0},{"time":150620.65199999942,"duration":103.44824999998673,"noteNumber":69,"velocity":100,"programNumber":0},{"time":150724.1002499994,"duration":103.44824999998673,"noteNumber":81,"velocity":100,"programNumber":0},{"time":150827.5484999994,"duration":103.44824999998673,"noteNumber":68,"velocity":100,"programNumber":0},{"time":150930.99674999938,"duration":103.44824999998673,"noteNumber":80,"velocity":100,"programNumber":0},{"time":151034.44499999937,"duration":103.44824999998673,"noteNumber":66,"velocity":100,"programNumber":0},{"time":151137.89324999935,"duration":103.44824999998673,"noteNumber":78,"velocity":100,"programNumber":0},{"time":151241.34149999934,"duration":103.44824999998673,"noteNumber":71,"velocity":100,"programNumber":0},{"time":151344.78974999933,"duration":103.44824999998673,"noteNumber":83,"velocity":100,"programNumber":0},{"time":151448.2379999993,"duration":103.44824999998673,"noteNumber":68,"velocity":100,"programNumber":0},{"time":151551.6862499993,"duration":103.44824999998673,"noteNumber":80,"velocity":100,"programNumber":0},{"time":151655.1344999993,"duration":103.44824999998673,"noteNumber":64,"velocity":100,"programNumber":0},{"time":151758.58274999927,"duration":103.44824999998673,"noteNumber":76,"velocity":100,"programNumber":0},{"time":151862.03099999926,"duration":413.7930000000051,"noteNumber":69,"velocity":100,"programNumber":0},{"time":151862.03099999926,"duration":413.7930000000051,"noteNumber":81,"velocity":100,"programNumber":0},{"time":152275.82399999927,"duration":103.44824999998673,"noteNumber":69,"velocity":100,"programNumber":0},{"time":152379.27224999925,"duration":103.44824999998673,"noteNumber":81,"velocity":100,"programNumber":0},{"time":152482.72049999924,"duration":103.44824999998673,"noteNumber":71,"velocity":100,"programNumber":0},{"time":152586.16874999923,"duration":103.44824999998673,"noteNumber":83,"velocity":100,"programNumber":0},{"time":152689.6169999992,"duration":103.44824999998673,"noteNumber":73,"velocity":100,"programNumber":0},{"time":152793.0652499992,"duration":103.44824999998673,"noteNumber":85,"velocity":100,"programNumber":0},{"time":153103.4099999992,"duration":103.44824999998673,"noteNumber":69,"velocity":100,"programNumber":0},{"time":153206.85824999918,"duration":103.44824999998673,"noteNumber":81,"velocity":100,"programNumber":0},{"time":153310.30649999916,"duration":103.44824999998673,"noteNumber":71,"velocity":100,"programNumber":0},{"time":153413.75474999915,"duration":103.44824999998673,"noteNumber":83,"velocity":100,"programNumber":0},{"time":153517.20299999914,"duration":103.44824999998673,"noteNumber":73,"velocity":100,"programNumber":0},{"time":153620.65124999912,"duration":103.44824999998673,"noteNumber":85,"velocity":100,"programNumber":0},{"time":153724.0994999991,"duration":103.44824999998673,"noteNumber":71,"velocity":100,"programNumber":0},{"time":153827.5477499991,"duration":103.44824999998673,"noteNumber":83,"velocity":100,"programNumber":0},{"time":153930.99599999908,"duration":103.44824999998673,"noteNumber":69,"velocity":100,"programNumber":0},{"time":154034.44424999907,"duration":103.44824999998673,"noteNumber":81,"velocity":100,"programNumber":0},{"time":154137.89249999906,"duration":103.44824999998673,"noteNumber":68,"velocity":100,"programNumber":0},{"time":154241.34074999904,"duration":103.44824999998673,"noteNumber":80,"velocity":100,"programNumber":0},{"time":154344.78899999903,"duration":103.44824999998673,"noteNumber":66,"velocity":100,"programNumber":0},{"time":154448.23724999902,"duration":103.44824999998673,"noteNumber":78,"velocity":100,"programNumber":0},{"time":154551.685499999,"duration":103.44824999998673,"noteNumber":68,"velocity":100,"programNumber":0},{"time":154655.133749999,"duration":103.44824999998673,"noteNumber":80,"velocity":100,"programNumber":0},{"time":154758.58199999898,"duration":103.44824999998673,"noteNumber":69,"velocity":100,"programNumber":0},{"time":154862.03024999896,"duration":103.44824999998673,"noteNumber":81,"velocity":100,"programNumber":0},{"time":154965.47849999895,"duration":103.44824999998673,"noteNumber":71,"velocity":100,"programNumber":0},{"time":155068.92674999894,"duration":103.44824999998673,"noteNumber":83,"velocity":100,"programNumber":0},{"time":155172.37499999892,"duration":103.44824999998673,"noteNumber":68,"velocity":100,"programNumber":0},{"time":155275.8232499989,"duration":103.44824999998673,"noteNumber":80,"velocity":100,"programNumber":0},{"time":155379.2714999989,"duration":103.44824999998673,"noteNumber":64,"velocity":100,"programNumber":0},{"time":155482.71974999888,"duration":103.44824999998673,"noteNumber":76,"velocity":100,"programNumber":0},{"time":155586.16799999887,"duration":103.44824999998673,"noteNumber":69,"velocity":100,"programNumber":0},{"time":155689.61624999886,"duration":103.44824999998673,"noteNumber":81,"velocity":100,"programNumber":0},{"time":155793.06449999884,"duration":103.44824999998673,"noteNumber":71,"velocity":100,"programNumber":0},{"time":155896.51274999883,"duration":103.44824999998673,"noteNumber":83,"velocity":100,"programNumber":0},{"time":155999.96099999882,"duration":103.44824999998673,"noteNumber":73,"velocity":100,"programNumber":0},{"time":156103.4092499988,"duration":103.44824999998673,"noteNumber":85,"velocity":100,"programNumber":0},{"time":156413.7539999988,"duration":103.44824999998673,"noteNumber":69,"velocity":100,"programNumber":0},{"time":156517.20224999878,"duration":103.44824999998673,"noteNumber":81,"velocity":100,"programNumber":0},{"time":156620.65049999877,"duration":103.44824999998673,"noteNumber":71,"velocity":100,"programNumber":0},{"time":156724.09874999875,"duration":103.44824999998673,"noteNumber":83,"velocity":100,"programNumber":0},{"time":156827.54699999874,"duration":103.44824999998673,"noteNumber":73,"velocity":100,"programNumber":0},{"time":156930.99524999873,"duration":103.44824999998673,"noteNumber":85,"velocity":100,"programNumber":0},{"time":157034.4434999987,"duration":103.44824999998673,"noteNumber":71,"velocity":100,"programNumber":0},{"time":157137.8917499987,"duration":103.44824999998673,"noteNumber":83,"velocity":100,"programNumber":0},{"time":157241.3399999987,"duration":103.44824999998673,"noteNumber":69,"velocity":100,"programNumber":0},{"time":157344.78824999867,"duration":103.44824999998673,"noteNumber":81,"velocity":100,"programNumber":0},{"time":157448.23649999866,"duration":103.44824999998673,"noteNumber":68,"velocity":100,"programNumber":0},{"time":157551.68474999865,"duration":103.44824999998673,"noteNumber":80,"velocity":100,"programNumber":0},{"time":157655.13299999863,"duration":103.44824999998673,"noteNumber":66,"velocity":100,"programNumber":0},{"time":157758.58124999862,"duration":103.44824999998673,"noteNumber":78,"velocity":100,"programNumber":0},{"time":157862.0294999986,"duration":103.44824999998673,"noteNumber":71,"velocity":100,"programNumber":0},{"time":157965.4777499986,"duration":103.44824999998673,"noteNumber":83,"velocity":100,"programNumber":0},{"time":158068.92599999858,"duration":103.44824999998673,"noteNumber":68,"velocity":100,"programNumber":0},{"time":158172.37424999857,"duration":103.44824999998673,"noteNumber":80,"velocity":100,"programNumber":0},{"time":158275.82249999855,"duration":103.44824999998673,"noteNumber":64,"velocity":100,"programNumber":0},{"time":158379.27074999854,"duration":103.44824999998673,"noteNumber":76,"velocity":100,"programNumber":0},{"time":158482.71899999853,"duration":413.7930000000051,"noteNumber":69,"velocity":100,"programNumber":0},{"time":158482.71899999853,"duration":413.7930000000051,"noteNumber":81,"velocity":100,"programNumber":0},{"time":158896.51199999853,"duration":310.3447499999893,"noteNumber":85,"velocity":100,"programNumber":0},{"time":159206.85674999852,"duration":103.44824999998673,"noteNumber":85,"velocity":100,"programNumber":0},{"time":158896.51199999853,"duration":413.792999999976,"noteNumber":73,"velocity":100,"programNumber":0},{"time":159379.2704999985,"duration":344.82749999998487,"noteNumber":81,"velocity":100,"programNumber":0},{"time":159310.3049999985,"duration":413.792999999976,"noteNumber":73,"velocity":100,"programNumber":0},{"time":159344.7877499985,"duration":379.31024999998044,"noteNumber":76,"velocity":100,"programNumber":0},{"time":159413.7532499985,"duration":724.1377499999944,"noteNumber":85,"velocity":100,"programNumber":0},{"time":160206.85649999848,"duration":344.82749999998487,"noteNumber":81,"velocity":100,"programNumber":0},{"time":160137.8909999985,"duration":413.792999999976,"noteNumber":73,"velocity":100,"programNumber":0},{"time":160172.37374999849,"duration":379.31024999998044,"noteNumber":76,"velocity":100,"programNumber":0},{"time":160241.33924999848,"duration":724.1377499999944,"noteNumber":85,"velocity":100,"programNumber":0},{"time":160965.47699999847,"duration":103.44824999998673,"noteNumber":86,"velocity":100,"programNumber":0},{"time":161068.92524999846,"duration":103.44824999998673,"noteNumber":85,"velocity":100,"programNumber":0},{"time":161172.37349999844,"duration":103.44824999998673,"noteNumber":83,"velocity":100,"programNumber":0},{"time":161275.82174999843,"duration":103.44824999998673,"noteNumber":85,"velocity":100,"programNumber":0},{"time":161379.26999999842,"duration":103.44824999998673,"noteNumber":86,"velocity":100,"programNumber":0},{"time":161482.7182499984,"duration":103.44824999998673,"noteNumber":85,"velocity":100,"programNumber":0},{"time":161586.1664999984,"duration":103.44824999998673,"noteNumber":83,"velocity":100,"programNumber":0},{"time":161689.61474999838,"duration":103.44824999998673,"noteNumber":85,"velocity":100,"programNumber":0},{"time":161793.06299999836,"duration":775.8618750000023,"noteNumber":86,"velocity":100,"programNumber":0},{"time":161793.06299999836,"duration":775.8618750000023,"noteNumber":81,"velocity":100,"programNumber":0},{"time":161793.06299999836,"duration":775.8618750000023,"noteNumber":78,"velocity":100,"programNumber":0},{"time":162568.92487499837,"duration":51.724125000007916,"noteNumber":86,"velocity":100,"programNumber":0},{"time":162620.64899999838,"duration":155.17237499999464,"noteNumber":76,"velocity":100,"programNumber":0},{"time":162620.64899999838,"duration":155.17237499999464,"noteNumber":81,"velocity":100,"programNumber":0},{"time":162620.64899999838,"duration":155.17237499999464,"noteNumber":85,"velocity":100,"programNumber":0},{"time":162775.82137499837,"duration":51.724125000007916,"noteNumber":86,"velocity":100,"programNumber":0},{"time":162827.54549999838,"duration":155.17237499999464,"noteNumber":76,"velocity":100,"programNumber":0},{"time":162827.54549999838,"duration":155.17237499999464,"noteNumber":81,"velocity":100,"programNumber":0},{"time":162827.54549999838,"duration":155.17237499999464,"noteNumber":85,"velocity":100,"programNumber":0},{"time":162982.71787499837,"duration":51.724125000007916,"noteNumber":86,"velocity":100,"programNumber":0},{"time":163034.44199999838,"duration":155.17237499999464,"noteNumber":76,"velocity":100,"programNumber":0},{"time":163034.44199999838,"duration":155.17237499999464,"noteNumber":81,"velocity":100,"programNumber":0},{"time":163034.44199999838,"duration":155.17237499999464,"noteNumber":85,"velocity":100,"programNumber":0},{"time":163189.61437499837,"duration":51.724125000007916,"noteNumber":86,"velocity":100,"programNumber":0},{"time":163241.33849999838,"duration":206.89650000000256,"noteNumber":85,"velocity":100,"programNumber":0},{"time":163241.33849999838,"duration":206.89650000000256,"noteNumber":81,"velocity":100,"programNumber":0},{"time":163241.33849999838,"duration":206.89650000000256,"noteNumber":76,"velocity":100,"programNumber":0},{"time":163448.23499999839,"duration":620.6895000000077,"noteNumber":83,"velocity":100,"programNumber":0},{"time":164068.9244999984,"duration":206.89650000000256,"noteNumber":88,"velocity":100,"programNumber":0},{"time":163448.23499999839,"duration":827.5860000000102,"noteNumber":76,"velocity":100,"programNumber":0},{"time":163448.23499999839,"duration":827.5860000000102,"noteNumber":80,"velocity":100,"programNumber":0},{"time":164344.7864999984,"duration":344.82749999998487,"noteNumber":81,"velocity":100,"programNumber":0},{"time":164275.8209999984,"duration":413.792999999976,"noteNumber":73,"velocity":100,"programNumber":0},{"time":164310.3037499984,"duration":379.31024999998044,"noteNumber":76,"velocity":100,"programNumber":0},{"time":164379.26924999838,"duration":724.1377499999944,"noteNumber":85,"velocity":100,"programNumber":0},{"time":165172.37249999837,"duration":344.82749999998487,"noteNumber":81,"velocity":100,"programNumber":0},{"time":165103.40699999838,"duration":413.792999999976,"noteNumber":73,"velocity":100,"programNumber":0},{"time":165137.88974999837,"duration":379.31024999998044,"noteNumber":76,"velocity":100,"programNumber":0},{"time":165206.85524999836,"duration":724.1377499999944,"noteNumber":85,"velocity":100,"programNumber":0},{"time":165930.99299999836,"duration":103.44824999998673,"noteNumber":86,"velocity":100,"programNumber":0},{"time":166034.44124999834,"duration":103.44824999998673,"noteNumber":85,"velocity":100,"programNumber":0},{"time":166137.88949999833,"duration":103.44824999998673,"noteNumber":83,"velocity":100,"programNumber":0},{"time":166241.33774999832,"duration":103.44824999998673,"noteNumber":85,"velocity":100,"programNumber":0},{"time":166344.7859999983,"duration":103.44824999998673,"noteNumber":86,"velocity":100,"programNumber":0},{"time":166448.2342499983,"duration":103.44824999998673,"noteNumber":85,"velocity":100,"programNumber":0},{"time":166551.68249999828,"duration":103.44824999998673,"noteNumber":83,"velocity":100,"programNumber":0},{"time":166655.13074999826,"duration":103.44824999998673,"noteNumber":85,"velocity":100,"programNumber":0},{"time":166758.57899999825,"duration":775.8618750000023,"noteNumber":86,"velocity":100,"programNumber":0},{"time":166758.57899999825,"duration":775.8618750000023,"noteNumber":81,"velocity":100,"programNumber":0},{"time":166758.57899999825,"duration":775.8618750000023,"noteNumber":78,"velocity":100,"programNumber":0},{"time":167534.44087499825,"duration":51.724125000007916,"noteNumber":86,"velocity":100,"programNumber":0},{"time":167586.16499999826,"duration":775.8618750000023,"noteNumber":76,"velocity":100,"programNumber":0},{"time":167586.16499999826,"duration":775.8618750000023,"noteNumber":81,"velocity":100,"programNumber":0},{"time":167586.16499999826,"duration":775.8618750000023,"noteNumber":85,"velocity":100,"programNumber":0},{"time":168362.02687499826,"duration":51.724125000007916,"noteNumber":85,"velocity":100,"programNumber":0},{"time":168413.75099999827,"duration":155.17237499999464,"noteNumber":83,"velocity":100,"programNumber":0},{"time":168413.75099999827,"duration":155.17237499999464,"noteNumber":80,"velocity":100,"programNumber":0},{"time":168413.75099999827,"duration":155.17237499999464,"noteNumber":76,"velocity":100,"programNumber":0},{"time":168568.92337499827,"duration":51.724125000007916,"noteNumber":85,"velocity":100,"programNumber":0},{"time":168620.64749999827,"duration":155.17237499999464,"noteNumber":83,"velocity":100,"programNumber":0},{"time":168620.64749999827,"duration":155.17237499999464,"noteNumber":80,"velocity":100,"programNumber":0},{"time":168620.64749999827,"duration":155.17237499999464,"noteNumber":76,"velocity":100,"programNumber":0},{"time":168775.81987499827,"duration":51.724125000007916,"noteNumber":85,"velocity":100,"programNumber":0},{"time":168827.54399999828,"duration":155.17237499999464,"noteNumber":83,"velocity":100,"programNumber":0},{"time":168827.54399999828,"duration":155.17237499999464,"noteNumber":80,"velocity":100,"programNumber":0},{"time":168827.54399999828,"duration":155.17237499999464,"noteNumber":76,"velocity":100,"programNumber":0},{"time":168982.71637499827,"duration":51.724125000007916,"noteNumber":85,"velocity":100,"programNumber":0},{"time":169034.44049999828,"duration":206.89650000000256,"noteNumber":83,"velocity":100,"programNumber":0},{"time":169034.44049999828,"duration":206.89650000000256,"noteNumber":80,"velocity":100,"programNumber":0},{"time":169034.44049999828,"duration":206.89650000000256,"noteNumber":76,"velocity":100,"programNumber":0},{"time":169241.33699999828,"duration":413.7930000000051,"noteNumber":81,"velocity":100,"programNumber":0},{"time":169655.1299999983,"duration":103.44824999998673,"noteNumber":76,"velocity":100,"programNumber":0},{"time":169758.57824999827,"duration":103.44824999998673,"noteNumber":81,"velocity":100,"programNumber":0},{"time":169862.02649999826,"duration":103.44824999998673,"noteNumber":85,"velocity":100,"programNumber":0},{"time":169965.47474999825,"duration":103.44824999998673,"noteNumber":85,"velocity":100,"programNumber":0},{"time":170068.92299999823,"duration":103.44824999998673,"noteNumber":76,"velocity":100,"programNumber":0},{"time":170172.37124999822,"duration":103.44824999998673,"noteNumber":81,"velocity":100,"programNumber":0},{"time":170275.8194999982,"duration":620.6895000000077,"noteNumber":85,"velocity":100,"programNumber":0},{"time":170896.50899999822,"duration":103.44824999998673,"noteNumber":76,"velocity":100,"programNumber":0},{"time":170999.9572499982,"duration":103.44824999998673,"noteNumber":81,"velocity":100,"programNumber":0},{"time":171103.4054999982,"duration":620.6895000000077,"noteNumber":85,"velocity":100,"programNumber":0},{"time":171724.0949999982,"duration":103.44824999998673,"noteNumber":86,"velocity":100,"programNumber":0},{"time":171827.54324999818,"duration":103.44824999998673,"noteNumber":85,"velocity":100,"programNumber":0},{"time":171930.99149999817,"duration":103.44824999998673,"noteNumber":83,"velocity":100,"programNumber":0},{"time":172034.43974999816,"duration":103.44824999998673,"noteNumber":85,"velocity":100,"programNumber":0},{"time":172137.88799999814,"duration":103.44824999998673,"noteNumber":86,"velocity":100,"programNumber":0},{"time":172241.33624999813,"duration":103.44824999998673,"noteNumber":85,"velocity":100,"programNumber":0},{"time":172344.78449999812,"duration":103.44824999998673,"noteNumber":83,"velocity":100,"programNumber":0},{"time":172448.2327499981,"duration":103.44824999998673,"noteNumber":85,"velocity":100,"programNumber":0},{"time":172551.6809999981,"duration":775.8618750000023,"noteNumber":86,"velocity":100,"programNumber":0},{"time":173327.5428749981,"duration":51.724125000007916,"noteNumber":86,"velocity":100,"programNumber":0},{"time":173379.2669999981,"duration":155.17237499999464,"noteNumber":85,"velocity":100,"programNumber":0},{"time":173534.4393749981,"duration":51.724125000007916,"noteNumber":86,"velocity":100,"programNumber":0},{"time":173586.1634999981,"duration":155.17237499999464,"noteNumber":85,"velocity":100,"programNumber":0},{"time":173741.3358749981,"duration":51.724125000007916,"noteNumber":86,"velocity":100,"programNumber":0},{"time":173793.0599999981,"duration":155.17237499999464,"noteNumber":85,"velocity":100,"programNumber":0},{"time":173948.2323749981,"duration":51.724125000007916,"noteNumber":86,"velocity":100,"programNumber":0},{"time":173999.9564999981,"duration":206.89650000000256,"noteNumber":85,"velocity":100,"programNumber":0},{"time":174206.8529999981,"duration":620.6895000000077,"noteNumber":83,"velocity":100,"programNumber":0},{"time":174827.54249999812,"duration":206.89650000000256,"noteNumber":88,"velocity":100,"programNumber":0},{"time":175103.4044999981,"duration":344.82749999998487,"noteNumber":81,"velocity":100,"programNumber":0},{"time":175034.43899999812,"duration":413.792999999976,"noteNumber":73,"velocity":100,"programNumber":0},{"time":175068.92174999812,"duration":379.31024999998044,"noteNumber":76,"velocity":100,"programNumber":0},{"time":175137.8872499981,"duration":724.1377499999944,"noteNumber":85,"velocity":100,"programNumber":0},{"time":175930.9904999981,"duration":344.82749999998487,"noteNumber":81,"velocity":100,"programNumber":0},{"time":175862.0249999981,"duration":413.792999999976,"noteNumber":73,"velocity":100,"programNumber":0},{"time":175896.5077499981,"duration":379.31024999998044,"noteNumber":76,"velocity":100,"programNumber":0},{"time":175965.4732499981,"duration":724.1377499999944,"noteNumber":85,"velocity":100,"programNumber":0},{"time":176689.61099999808,"duration":103.44824999998673,"noteNumber":86,"velocity":100,"programNumber":0},{"time":176793.05924999807,"duration":103.44824999998673,"noteNumber":85,"velocity":100,"programNumber":0},{"time":176896.50749999806,"duration":103.44824999998673,"noteNumber":83,"velocity":100,"programNumber":0},{"time":176999.95574999804,"duration":103.44824999998673,"noteNumber":85,"velocity":100,"programNumber":0},{"time":177103.40399999803,"duration":103.44824999998673,"noteNumber":86,"velocity":100,"programNumber":0},{"time":177206.85224999802,"duration":103.44824999998673,"noteNumber":85,"velocity":100,"programNumber":0},{"time":177310.300499998,"duration":103.44824999998673,"noteNumber":83,"velocity":100,"programNumber":0},{"time":177413.748749998,"duration":103.44824999998673,"noteNumber":85,"velocity":100,"programNumber":0},{"time":177517.19699999798,"duration":775.8618750000023,"noteNumber":86,"velocity":100,"programNumber":0},{"time":177517.19699999798,"duration":775.8618750000023,"noteNumber":81,"velocity":100,"programNumber":0},{"time":177517.19699999798,"duration":775.8618750000023,"noteNumber":78,"velocity":100,"programNumber":0},{"time":178293.05887499798,"duration":51.724125000007916,"noteNumber":86,"velocity":100,"programNumber":0},{"time":178344.782999998,"duration":775.8618750000023,"noteNumber":76,"velocity":100,"programNumber":0},{"time":178344.782999998,"duration":775.8618750000023,"noteNumber":81,"velocity":100,"programNumber":0},{"time":178344.782999998,"duration":775.8618750000023,"noteNumber":85,"velocity":100,"programNumber":0},{"time":179120.644874998,"duration":51.724125000007916,"noteNumber":85,"velocity":100,"programNumber":0},{"time":179172.368999998,"duration":155.17237499999464,"noteNumber":83,"velocity":100,"programNumber":0},{"time":179172.368999998,"duration":155.17237499999464,"noteNumber":80,"velocity":100,"programNumber":0},{"time":179172.368999998,"duration":155.17237499999464,"noteNumber":76,"velocity":100,"programNumber":0},{"time":179327.541374998,"duration":51.724125000007916,"noteNumber":85,"velocity":100,"programNumber":0},{"time":179379.265499998,"duration":155.17237499999464,"noteNumber":83,"velocity":100,"programNumber":0},{"time":179379.265499998,"duration":155.17237499999464,"noteNumber":80,"velocity":100,"programNumber":0},{"time":179379.265499998,"duration":155.17237499999464,"noteNumber":76,"velocity":100,"programNumber":0},{"time":179534.437874998,"duration":51.724125000007916,"noteNumber":85,"velocity":100,"programNumber":0},{"time":179586.161999998,"duration":155.17237499999464,"noteNumber":83,"velocity":100,"programNumber":0},{"time":179586.161999998,"duration":155.17237499999464,"noteNumber":80,"velocity":100,"programNumber":0},{"time":179586.161999998,"duration":155.17237499999464,"noteNumber":76,"velocity":100,"programNumber":0},{"time":179741.334374998,"duration":51.724125000007916,"noteNumber":85,"velocity":100,"programNumber":0},{"time":179793.058499998,"duration":206.89650000000256,"noteNumber":83,"velocity":100,"programNumber":0},{"time":179793.058499998,"duration":206.89650000000256,"noteNumber":80,"velocity":100,"programNumber":0},{"time":179793.058499998,"duration":206.89650000000256,"noteNumber":76,"velocity":100,"programNumber":0},{"time":179999.954999998,"duration":620.6895000000077,"noteNumber":69,"velocity":100,"programNumber":0},{"time":179999.954999998,"duration":620.6895000000077,"noteNumber":81,"velocity":100,"programNumber":0},{"time":179999.954999998,"duration":620.6895000000077,"noteNumber":76,"velocity":100,"programNumber":0},{"time":179999.954999998,"duration":620.6895000000077,"noteNumber":73,"velocity":100,"programNumber":0},{"time":180620.64449999802,"duration":206.89650000000256,"noteNumber":73,"velocity":100,"programNumber":0},{"time":180620.64449999802,"duration":206.89650000000256,"noteNumber":85,"velocity":100,"programNumber":0},{"time":180827.54099999802,"duration":620.6895000000077,"noteNumber":69,"velocity":100,"programNumber":0},{"time":180827.54099999802,"duration":620.6895000000077,"noteNumber":81,"velocity":100,"programNumber":0},{"time":181448.23049999803,"duration":206.89650000000256,"noteNumber":76,"velocity":100,"programNumber":0},{"time":181448.23049999803,"duration":206.89650000000256,"noteNumber":88,"velocity":100,"programNumber":0},{"time":181655.12699999803,"duration":620.6895000000077,"noteNumber":69,"velocity":100,"programNumber":0},{"time":181655.12699999803,"duration":620.6895000000077,"noteNumber":81,"velocity":100,"programNumber":0},{"time":182275.81649999804,"duration":206.89650000000256,"noteNumber":73,"velocity":100,"programNumber":0},{"time":182275.81649999804,"duration":206.89650000000256,"noteNumber":85,"velocity":100,"programNumber":0},{"time":182482.71299999804,"duration":206.89650000000256,"noteNumber":69,"velocity":100,"programNumber":0},{"time":182482.71299999804,"duration":206.89650000000256,"noteNumber":81,"velocity":100,"programNumber":0},{"time":182689.60949999804,"duration":206.89650000000256,"noteNumber":73,"velocity":100,"programNumber":0},{"time":182689.60949999804,"duration":206.89650000000256,"noteNumber":85,"velocity":100,"programNumber":0},{"time":182896.50599999804,"duration":206.89650000000256,"noteNumber":69,"velocity":100,"programNumber":0},{"time":182896.50599999804,"duration":206.89650000000256,"noteNumber":81,"velocity":100,"programNumber":0},{"time":183103.40249999805,"duration":206.89650000000256,"noteNumber":76,"velocity":100,"programNumber":0},{"time":183103.40249999805,"duration":206.89650000000256,"noteNumber":88,"velocity":100,"programNumber":0},{"time":183310.29899999805,"duration":413.7930000000051,"noteNumber":69,"velocity":100,"programNumber":0},{"time":183310.29899999805,"duration":413.7930000000051,"noteNumber":81,"velocity":100,"programNumber":0},{"time":183724.09199999805,"duration":413.7930000000051,"noteNumber":69,"velocity":100,"programNumber":0},{"time":183724.09199999805,"duration":413.7930000000051,"noteNumber":81,"velocity":100,"programNumber":0},{"time":183724.09199999805,"duration":413.7930000000051,"noteNumber":76,"velocity":100,"programNumber":0},{"time":183724.09199999805,"duration":413.7930000000051,"noteNumber":73,"velocity":100,"programNumber":0},{"time":184137.88499999806,"duration":413.7930000000051,"noteNumber":69,"velocity":100,"programNumber":0},{"time":184137.88499999806,"duration":413.7930000000051,"noteNumber":81,"velocity":100,"programNumber":0},{"time":184137.88499999806,"duration":413.7930000000051,"noteNumber":76,"velocity":100,"programNumber":0},{"time":184137.88499999806,"duration":413.7930000000051,"noteNumber":73,"velocity":100,"programNumber":0}],[{"time":146068.929,"duration":206.89650000000256,"noteNumber":57,"velocity":100,"programNumber":0},{"time":146275.8255,"duration":206.89650000000256,"noteNumber":57,"velocity":100,"programNumber":0},{"time":146482.722,"duration":206.89650000000256,"noteNumber":57,"velocity":100,"programNumber":0},{"time":146689.6185,"duration":206.89650000000256,"noteNumber":57,"velocity":100,"programNumber":0},{"time":146896.515,"duration":206.89650000000256,"noteNumber":57,"velocity":100,"programNumber":0},{"time":147103.41150000002,"duration":206.89650000000256,"noteNumber":57,"velocity":100,"programNumber":0},{"time":147310.30800000002,"duration":206.89650000000256,"noteNumber":57,"velocity":100,"programNumber":0},{"time":147517.20450000002,"duration":206.89650000000256,"noteNumber":57,"velocity":100,"programNumber":0},{"time":147724.10100000002,"duration":206.89650000000256,"noteNumber":50,"velocity":100,"programNumber":0},{"time":147930.99750000003,"duration":206.89650000000256,"noteNumber":50,"velocity":100,"programNumber":0},{"time":148137.89400000003,"duration":206.89650000000256,"noteNumber":51,"velocity":100,"programNumber":0},{"time":148344.79050000003,"duration":206.89650000000256,"noteNumber":51,"velocity":100,"programNumber":0},{"time":148551.68700000003,"duration":206.89650000000256,"noteNumber":52,"velocity":100,"programNumber":0},{"time":148758.58350000004,"duration":206.89650000000256,"noteNumber":52,"velocity":100,"programNumber":0},{"time":148965.48000000004,"duration":206.89650000000256,"noteNumber":52,"velocity":100,"programNumber":0},{"time":149172.37650000004,"duration":206.89650000000256,"noteNumber":52,"velocity":100,"programNumber":0},{"time":149379.27300000004,"duration":206.89650000000256,"noteNumber":57,"velocity":100,"programNumber":0},{"time":149586.16950000005,"duration":206.89650000000256,"noteNumber":57,"velocity":100,"programNumber":0},{"time":149793.06600000005,"duration":206.89650000000256,"noteNumber":57,"velocity":100,"programNumber":0},{"time":149999.96250000005,"duration":206.89650000000256,"noteNumber":57,"velocity":100,"programNumber":0},{"time":150206.85900000005,"duration":206.89650000000256,"noteNumber":57,"velocity":100,"programNumber":0},{"time":150413.75550000006,"duration":206.89650000000256,"noteNumber":57,"velocity":100,"programNumber":0},{"time":150620.65200000006,"duration":206.89650000000256,"noteNumber":57,"velocity":100,"programNumber":0},{"time":150827.54850000006,"duration":206.89650000000256,"noteNumber":57,"velocity":100,"programNumber":0},{"time":151034.44500000007,"duration":206.89650000000256,"noteNumber":50,"velocity":100,"programNumber":0},{"time":151241.34150000007,"duration":206.89650000000256,"noteNumber":50,"velocity":100,"programNumber":0},{"time":151448.23800000007,"duration":206.89650000000256,"noteNumber":52,"velocity":100,"programNumber":0},{"time":151655.13450000007,"duration":206.89650000000256,"noteNumber":52,"velocity":100,"programNumber":0},{"time":151862.03100000008,"duration":413.7930000000051,"noteNumber":45,"velocity":100,"programNumber":0},{"time":152689.6170000001,"duration":206.89650000000256,"noteNumber":57,"velocity":100,"programNumber":0},{"time":152896.5135000001,"duration":206.89650000000256,"noteNumber":57,"velocity":100,"programNumber":0},{"time":153103.4100000001,"duration":206.89650000000256,"noteNumber":57,"velocity":100,"programNumber":0},{"time":153310.3065000001,"duration":206.89650000000256,"noteNumber":57,"velocity":100,"programNumber":0},{"time":153517.2030000001,"duration":206.89650000000256,"noteNumber":57,"velocity":100,"programNumber":0},{"time":153724.0995000001,"duration":206.89650000000256,"noteNumber":57,"velocity":100,"programNumber":0},{"time":153930.9960000001,"duration":206.89650000000256,"noteNumber":57,"velocity":100,"programNumber":0},{"time":154137.8925000001,"duration":206.89650000000256,"noteNumber":57,"velocity":100,"programNumber":0},{"time":154344.7890000001,"duration":206.89650000000256,"noteNumber":50,"velocity":100,"programNumber":0},{"time":154551.6855000001,"duration":206.89650000000256,"noteNumber":50,"velocity":100,"programNumber":0},{"time":154758.5820000001,"duration":206.89650000000256,"noteNumber":51,"velocity":100,"programNumber":0},{"time":154965.4785000001,"duration":206.89650000000256,"noteNumber":51,"velocity":100,"programNumber":0},{"time":155172.37500000012,"duration":206.89650000000256,"noteNumber":52,"velocity":100,"programNumber":0},{"time":155379.27150000012,"duration":206.89650000000256,"noteNumber":52,"velocity":100,"programNumber":0},{"time":155586.16800000012,"duration":206.89650000000256,"noteNumber":52,"velocity":100,"programNumber":0},{"time":155793.06450000012,"duration":206.89650000000256,"noteNumber":52,"velocity":100,"programNumber":0},{"time":155999.96100000013,"duration":206.89650000000256,"noteNumber":57,"velocity":100,"programNumber":0},{"time":156206.85750000013,"duration":206.89650000000256,"noteNumber":57,"velocity":100,"programNumber":0},{"time":156413.75400000013,"duration":206.89650000000256,"noteNumber":57,"velocity":100,"programNumber":0},{"time":156620.65050000013,"duration":206.89650000000256,"noteNumber":57,"velocity":100,"programNumber":0},{"time":156827.54700000014,"duration":206.89650000000256,"noteNumber":57,"velocity":100,"programNumber":0},{"time":157034.44350000014,"duration":206.89650000000256,"noteNumber":57,"velocity":100,"programNumber":0},{"time":157241.34000000014,"duration":206.89650000000256,"noteNumber":57,"velocity":100,"programNumber":0},{"time":157448.23650000014,"duration":206.89650000000256,"noteNumber":57,"velocity":100,"programNumber":0},{"time":157655.13300000015,"duration":206.89650000000256,"noteNumber":50,"velocity":100,"programNumber":0},{"time":157862.02950000015,"duration":206.89650000000256,"noteNumber":50,"velocity":100,"programNumber":0},{"time":158068.92600000015,"duration":206.89650000000256,"noteNumber":52,"velocity":100,"programNumber":0},{"time":158275.82250000015,"duration":206.89650000000256,"noteNumber":52,"velocity":100,"programNumber":0},{"time":158482.71900000016,"duration":206.89650000000256,"noteNumber":57,"velocity":100,"programNumber":0},{"time":158689.61550000016,"duration":206.89650000000256,"noteNumber":57,"velocity":100,"programNumber":0},{"time":158896.51200000016,"duration":206.89650000000256,"noteNumber":57,"velocity":100,"programNumber":0},{"time":159103.40850000017,"duration":206.89650000000256,"noteNumber":57,"velocity":100,"programNumber":0},{"time":159310.30500000017,"duration":206.89650000000256,"noteNumber":57,"velocity":100,"programNumber":0},{"time":159517.20150000017,"duration":206.89650000000256,"noteNumber":57,"velocity":100,"programNumber":0},{"time":159724.09800000017,"duration":206.89650000000256,"noteNumber":57,"velocity":100,"programNumber":0},{"time":159930.99450000018,"duration":206.89650000000256,"noteNumber":57,"velocity":100,"programNumber":0},{"time":160137.89100000018,"duration":206.89650000000256,"noteNumber":57,"velocity":100,"programNumber":0},{"time":160344.78750000018,"duration":206.89650000000256,"noteNumber":57,"velocity":100,"programNumber":0},{"time":160551.68400000018,"duration":206.89650000000256,"noteNumber":57,"velocity":100,"programNumber":0},{"time":160758.5805000002,"duration":206.89650000000256,"noteNumber":57,"velocity":100,"programNumber":0},{"time":160965.4770000002,"duration":206.89650000000256,"noteNumber":57,"velocity":100,"programNumber":0},{"time":161172.3735000002,"duration":206.89650000000256,"noteNumber":57,"velocity":100,"programNumber":0},{"time":161379.2700000002,"duration":206.89650000000256,"noteNumber":57,"velocity":100,"programNumber":0},{"time":161586.1665000002,"duration":206.89650000000256,"noteNumber":57,"velocity":100,"programNumber":0},{"time":161793.0630000002,"duration":206.89650000000256,"noteNumber":50,"velocity":100,"programNumber":0},{"time":161999.9595000002,"duration":206.89650000000256,"noteNumber":50,"velocity":100,"programNumber":0},{"time":162206.8560000002,"duration":206.89650000000256,"noteNumber":50,"velocity":100,"programNumber":0},{"time":162413.7525000002,"duration":206.89650000000256,"noteNumber":50,"velocity":100,"programNumber":0},{"time":162620.6490000002,"duration":206.89650000000256,"noteNumber":57,"velocity":100,"programNumber":0},{"time":162827.5455000002,"duration":206.89650000000256,"noteNumber":57,"velocity":100,"programNumber":0},{"time":163034.4420000002,"duration":206.89650000000256,"noteNumber":57,"velocity":100,"programNumber":0},{"time":163241.33850000022,"duration":206.89650000000256,"noteNumber":57,"velocity":100,"programNumber":0},{"time":163448.23500000022,"duration":206.89650000000256,"noteNumber":52,"velocity":100,"programNumber":0},{"time":163655.13150000022,"duration":206.89650000000256,"noteNumber":52,"velocity":100,"programNumber":0},{"time":163862.02800000022,"duration":206.89650000000256,"noteNumber":52,"velocity":100,"programNumber":0},{"time":164068.92450000023,"duration":206.89650000000256,"noteNumber":52,"velocity":100,"programNumber":0},{"time":164275.82100000023,"duration":206.89650000000256,"noteNumber":57,"velocity":100,"programNumber":0},{"time":164482.71750000023,"duration":206.89650000000256,"noteNumber":57,"velocity":100,"programNumber":0},{"time":164689.61400000023,"duration":206.89650000000256,"noteNumber":57,"velocity":100,"programNumber":0},{"time":164896.51050000024,"duration":206.89650000000256,"noteNumber":57,"velocity":100,"programNumber":0},{"time":165103.40700000024,"duration":206.89650000000256,"noteNumber":57,"velocity":100,"programNumber":0},{"time":165310.30350000024,"duration":206.89650000000256,"noteNumber":57,"velocity":100,"programNumber":0},{"time":165517.20000000024,"duration":206.89650000000256,"noteNumber":57,"velocity":100,"programNumber":0},{"time":165724.09650000025,"duration":206.89650000000256,"noteNumber":57,"velocity":100,"programNumber":0},{"time":165930.99300000025,"duration":206.89650000000256,"noteNumber":57,"velocity":100,"programNumber":0},{"time":166137.88950000025,"duration":206.89650000000256,"noteNumber":57,"velocity":100,"programNumber":0},{"time":166344.78600000025,"duration":206.89650000000256,"noteNumber":57,"velocity":100,"programNumber":0},{"time":166551.68250000026,"duration":206.89650000000256,"noteNumber":57,"velocity":100,"programNumber":0},{"time":166758.57900000026,"duration":206.89650000000256,"noteNumber":50,"velocity":100,"programNumber":0},{"time":166965.47550000026,"duration":206.89650000000256,"noteNumber":50,"velocity":100,"programNumber":0},{"time":167172.37200000026,"duration":206.89650000000256,"noteNumber":50,"velocity":100,"programNumber":0},{"time":167379.26850000027,"duration":206.89650000000256,"noteNumber":50,"velocity":100,"programNumber":0},{"time":167586.16500000027,"duration":206.89650000000256,"noteNumber":57,"velocity":100,"programNumber":0},{"time":167793.06150000027,"duration":206.89650000000256,"noteNumber":57,"velocity":100,"programNumber":0},{"time":167999.95800000028,"duration":206.89650000000256,"noteNumber":57,"velocity":100,"programNumber":0},{"time":168206.85450000028,"duration":206.89650000000256,"noteNumber":57,"velocity":100,"programNumber":0},{"time":168413.75100000028,"duration":206.89650000000256,"noteNumber":52,"velocity":100,"programNumber":0},{"time":168620.64750000028,"duration":206.89650000000256,"noteNumber":52,"velocity":100,"programNumber":0},{"time":168827.5440000003,"duration":206.89650000000256,"noteNumber":52,"velocity":100,"programNumber":0},{"time":169034.4405000003,"duration":206.89650000000256,"noteNumber":52,"velocity":100,"programNumber":0},{"time":169241.3370000003,"duration":103.44824999998673,"noteNumber":57,"velocity":100,"programNumber":0},{"time":169344.78525000028,"duration":103.44824999998673,"noteNumber":64,"velocity":100,"programNumber":0},{"time":169448.23350000026,"duration":103.44824999998673,"noteNumber":61,"velocity":100,"programNumber":0},{"time":169551.68175000025,"duration":103.44824999998673,"noteNumber":64,"velocity":100,"programNumber":0},{"time":169655.13000000024,"duration":103.44824999998673,"noteNumber":57,"velocity":100,"programNumber":0},{"time":169758.57825000022,"duration":103.44824999998673,"noteNumber":64,"velocity":100,"programNumber":0},{"time":169862.0265000002,"duration":103.44824999998673,"noteNumber":61,"velocity":100,"programNumber":0},{"time":169965.4747500002,"duration":103.44824999998673,"noteNumber":64,"velocity":100,"programNumber":0},{"time":170068.92300000018,"duration":103.44824999998673,"noteNumber":57,"velocity":100,"programNumber":0},{"time":170172.37125000017,"duration":103.44824999998673,"noteNumber":64,"velocity":100,"programNumber":0},{"time":170275.81950000016,"duration":103.44824999998673,"noteNumber":61,"velocity":100,"programNumber":0},{"time":170379.26775000014,"duration":103.44824999998673,"noteNumber":64,"velocity":100,"programNumber":0},{"time":170482.71600000013,"duration":103.44824999998673,"noteNumber":57,"velocity":100,"programNumber":0},{"time":170586.16425000012,"duration":103.44824999998673,"noteNumber":64,"velocity":100,"programNumber":0},{"time":170689.6125000001,"duration":103.44824999998673,"noteNumber":61,"velocity":100,"programNumber":0},{"time":170793.0607500001,"duration":103.44824999998673,"noteNumber":64,"velocity":100,"programNumber":0},{"time":170896.50900000008,"duration":103.44824999998673,"noteNumber":57,"velocity":100,"programNumber":0},{"time":170999.95725000006,"duration":103.44824999998673,"noteNumber":64,"velocity":100,"programNumber":0},{"time":171103.40550000005,"duration":103.44824999998673,"noteNumber":61,"velocity":100,"programNumber":0},{"time":171206.85375000004,"duration":103.44824999998673,"noteNumber":64,"velocity":100,"programNumber":0},{"time":171310.30200000003,"duration":103.44824999998673,"noteNumber":57,"velocity":100,"programNumber":0},{"time":171413.75025,"duration":103.44824999998673,"noteNumber":64,"velocity":100,"programNumber":0},{"time":171517.1985,"duration":103.44824999998673,"noteNumber":61,"velocity":100,"programNumber":0},{"time":171620.64674999999,"duration":103.44824999998673,"noteNumber":64,"velocity":100,"programNumber":0},{"time":171724.09499999997,"duration":103.44824999998673,"noteNumber":57,"velocity":100,"programNumber":0},{"time":171827.54324999996,"duration":103.44824999998673,"noteNumber":64,"velocity":100,"programNumber":0},{"time":171930.99149999995,"duration":103.44824999998673,"noteNumber":61,"velocity":100,"programNumber":0},{"time":172034.43974999993,"duration":103.44824999998673,"noteNumber":64,"velocity":100,"programNumber":0},{"time":172137.88799999992,"duration":103.44824999998673,"noteNumber":57,"velocity":100,"programNumber":0},{"time":172241.3362499999,"duration":103.44824999998673,"noteNumber":64,"velocity":100,"programNumber":0},{"time":172344.7844999999,"duration":103.44824999998673,"noteNumber":61,"velocity":100,"programNumber":0},{"time":172448.23274999988,"duration":103.44824999998673,"noteNumber":64,"velocity":100,"programNumber":0},{"time":172551.68099999987,"duration":103.44824999998673,"noteNumber":57,"velocity":100,"programNumber":0},{"time":172655.12924999985,"duration":103.44824999998673,"noteNumber":66,"velocity":100,"programNumber":0},{"time":172758.57749999984,"duration":103.44824999998673,"noteNumber":62,"velocity":100,"programNumber":0},{"time":172862.02574999983,"duration":103.44824999998673,"noteNumber":66,"velocity":100,"programNumber":0},{"time":172965.4739999998,"duration":103.44824999998673,"noteNumber":57,"velocity":100,"programNumber":0},{"time":173068.9222499998,"duration":103.44824999998673,"noteNumber":66,"velocity":100,"programNumber":0},{"time":173172.3704999998,"duration":103.44824999998673,"noteNumber":62,"velocity":100,"programNumber":0},{"time":173275.81874999977,"duration":103.44824999998673,"noteNumber":66,"velocity":100,"programNumber":0},{"time":173379.26699999976,"duration":103.44824999998673,"noteNumber":57,"velocity":100,"programNumber":0},{"time":173482.71524999975,"duration":103.44824999998673,"noteNumber":64,"velocity":100,"programNumber":0},{"time":173586.16349999973,"duration":103.44824999998673,"noteNumber":61,"velocity":100,"programNumber":0},{"time":173689.61174999972,"duration":103.44824999998673,"noteNumber":64,"velocity":100,"programNumber":0},{"time":173793.0599999997,"duration":103.44824999998673,"noteNumber":57,"velocity":100,"programNumber":0},{"time":173896.5082499997,"duration":103.44824999998673,"noteNumber":64,"velocity":100,"programNumber":0},{"time":173999.95649999968,"duration":103.44824999998673,"noteNumber":61,"velocity":100,"programNumber":0},{"time":174103.40474999967,"duration":103.44824999998673,"noteNumber":64,"velocity":100,"programNumber":0},{"time":174206.85299999965,"duration":103.44824999998673,"noteNumber":52,"velocity":100,"programNumber":0},{"time":174310.30124999964,"duration":103.44824999998673,"noteNumber":64,"velocity":100,"programNumber":0},{"time":174413.74949999963,"duration":103.44824999998673,"noteNumber":59,"velocity":100,"programNumber":0},{"time":174517.1977499996,"duration":103.44824999998673,"noteNumber":64,"velocity":100,"programNumber":0},{"time":174620.6459999996,"duration":103.44824999998673,"noteNumber":52,"velocity":100,"programNumber":0},{"time":174724.0942499996,"duration":103.44824999998673,"noteNumber":64,"velocity":100,"programNumber":0},{"time":174827.54249999957,"duration":103.44824999998673,"noteNumber":59,"velocity":100,"programNumber":0},{"time":174930.99074999956,"duration":103.44824999998673,"noteNumber":64,"velocity":100,"programNumber":0},{"time":175034.43899999955,"duration":206.89650000000256,"noteNumber":57,"velocity":100,"programNumber":0},{"time":175241.33549999955,"duration":206.89650000000256,"noteNumber":57,"velocity":100,"programNumber":0},{"time":175448.23199999955,"duration":206.89650000000256,"noteNumber":57,"velocity":100,"programNumber":0},{"time":175655.12849999956,"duration":206.89650000000256,"noteNumber":57,"velocity":100,"programNumber":0},{"time":175862.02499999956,"duration":206.89650000000256,"noteNumber":57,"velocity":100,"programNumber":0},{"time":176068.92149999956,"duration":206.89650000000256,"noteNumber":57,"velocity":100,"programNumber":0},{"time":176275.81799999956,"duration":206.89650000000256,"noteNumber":57,"velocity":100,"programNumber":0},{"time":176482.71449999957,"duration":206.89650000000256,"noteNumber":57,"velocity":100,"programNumber":0},{"time":176689.61099999957,"duration":206.89650000000256,"noteNumber":57,"velocity":100,"programNumber":0},{"time":176896.50749999957,"duration":206.89650000000256,"noteNumber":57,"velocity":100,"programNumber":0},{"time":177103.40399999957,"duration":206.89650000000256,"noteNumber":57,"velocity":100,"programNumber":0},{"time":177310.30049999958,"duration":206.89650000000256,"noteNumber":57,"velocity":100,"programNumber":0},{"time":177517.19699999958,"duration":206.89650000000256,"noteNumber":50,"velocity":100,"programNumber":0},{"time":177724.09349999958,"duration":206.89650000000256,"noteNumber":50,"velocity":100,"programNumber":0},{"time":177930.98999999958,"duration":206.89650000000256,"noteNumber":50,"velocity":100,"programNumber":0},{"time":178137.8864999996,"duration":206.89650000000256,"noteNumber":50,"velocity":100,"programNumber":0},{"time":178344.7829999996,"duration":206.89650000000256,"noteNumber":57,"velocity":100,"programNumber":0},{"time":178551.6794999996,"duration":206.89650000000256,"noteNumber":57,"velocity":100,"programNumber":0},{"time":178758.5759999996,"duration":206.89650000000256,"noteNumber":57,"velocity":100,"programNumber":0},{"time":178965.4724999996,"duration":206.89650000000256,"noteNumber":57,"velocity":100,"programNumber":0},{"time":179172.3689999996,"duration":206.89650000000256,"noteNumber":52,"velocity":100,"programNumber":0},{"time":179379.2654999996,"duration":206.89650000000256,"noteNumber":52,"velocity":100,"programNumber":0},{"time":179586.1619999996,"duration":206.89650000000256,"noteNumber":52,"velocity":100,"programNumber":0},{"time":179793.0584999996,"duration":206.89650000000256,"noteNumber":52,"velocity":100,"programNumber":0},{"time":179999.9549999996,"duration":206.89650000000256,"noteNumber":57,"velocity":100,"programNumber":0},{"time":180206.8514999996,"duration":206.89650000000256,"noteNumber":57,"velocity":100,"programNumber":0},{"time":180413.7479999996,"duration":206.89650000000256,"noteNumber":57,"velocity":100,"programNumber":0},{"time":180620.64449999962,"duration":206.89650000000256,"noteNumber":57,"velocity":100,"programNumber":0},{"time":180827.54099999962,"duration":206.89650000000256,"noteNumber":57,"velocity":100,"programNumber":0},{"time":181034.43749999962,"duration":206.89650000000256,"noteNumber":57,"velocity":100,"programNumber":0},{"time":181241.33399999962,"duration":206.89650000000256,"noteNumber":57,"velocity":100,"programNumber":0},{"time":181448.23049999963,"duration":206.89650000000256,"noteNumber":57,"velocity":100,"programNumber":0},{"time":181655.12699999963,"duration":206.89650000000256,"noteNumber":57,"velocity":100,"programNumber":0},{"time":181862.02349999963,"duration":206.89650000000256,"noteNumber":57,"velocity":100,"programNumber":0},{"time":182068.91999999963,"duration":206.89650000000256,"noteNumber":57,"velocity":100,"programNumber":0},{"time":182275.81649999964,"duration":206.89650000000256,"noteNumber":57,"velocity":100,"programNumber":0},{"time":182482.71299999964,"duration":206.89650000000256,"noteNumber":57,"velocity":100,"programNumber":0},{"time":182689.60949999964,"duration":206.89650000000256,"noteNumber":57,"velocity":100,"programNumber":0},{"time":182896.50599999964,"duration":206.89650000000256,"noteNumber":57,"velocity":100,"programNumber":0},{"time":183103.40249999965,"duration":206.89650000000256,"noteNumber":57,"velocity":100,"programNumber":0},{"time":183310.29899999965,"duration":413.7930000000051,"noteNumber":45,"velocity":100,"programNumber":0},{"time":183724.09199999965,"duration":413.7930000000051,"noteNumber":45,"velocity":100,"programNumber":0},{"time":183724.09199999965,"duration":413.7930000000051,"noteNumber":57,"velocity":100,"programNumber":0},{"time":183724.09199999965,"duration":413.7930000000051,"noteNumber":52,"velocity":100,"programNumber":0},{"time":183724.09199999965,"duration":413.7930000000051,"noteNumber":49,"velocity":100,"programNumber":0},{"time":184137.88499999966,"duration":413.7930000000051,"noteNumber":45,"velocity":100,"programNumber":0},{"time":184137.88499999966,"duration":413.7930000000051,"noteNumber":57,"velocity":100,"programNumber":0},{"time":184137.88499999966,"duration":413.7930000000051,"noteNumber":52,"velocity":100,"programNumber":0},{"time":184137.88499999966,"duration":413.7930000000051,"noteNumber":49,"velocity":100,"programNumber":0}]]}