{"tracks":[[{"time":0,"duration":245.9015,"noteNumber":50,"velocity":100,"programNumber":75},{"time":245.9015,"duration":245.9015,"noteNumber":43,"velocity":100,"programNumber":75},{"time":491.803,"duration":245.90150000000006,"noteNumber":46,"velocity":100,"programNumber":75},{"time":737.7045,"duration":245.90149999999994,"noteNumber":48,"velocity":100,"programNumber":75},{"time":983.606,"duration":491.8030000000001,"noteNumber":49,"velocity":100,"programNumber":75},{"time":1475.409,"duration":245.90149999999994,"noteNumber":48,"velocity":100,"programNumber":75},{"time":3934.424,"duration":245.90149999999994,"noteNumber":50,"velocity":100,"programNumber":75},{"time":4180.3255,"duration":245.90149999999994,"noteNumber":43,"velocity":100,"programNumber":75},{"time":4426.227,"duration":245.90149999999994,"noteNumber":46,"velocity":100,"programNumber":75},{"time":4672.1285,"duration":245.90149999999994,"noteNumber":48,"velocity":100,"programNumber":75},{"time":4918.03,"duration":491.8029999999999,"noteNumber":49,"velocity":100,"programNumber":75},{"time":5409.833,"duration":245.90149999999994,"noteNumber":48,"velocity":100,"programNumber":75},{"time":7868.848,"duration":245.90149999999994,"noteNumber":50,"velocity":100,"programNumber":75},{"time":8114.7495,"duration":245.90149999999994,"noteNumber":43,"velocity":100,"programNumber":75},{"time":8360.651,"duration":245.90149999999994,"noteNumber":46,"velocity":100,"programNumber":75},{"time":8606.5525,"duration":245.90149999999994,"noteNumber":48,"velocity":100,"programNumber":75},{"time":8852.454,"duration":491.8029999999999,"noteNumber":49,"velocity":100,"programNumber":75},{"time":9344.257,"duration":245.90149999999994,"noteNumber":48,"velocity":100,"programNumber":75},{"time":9836.06,"duration":737.7044999999998,"noteNumber":49,"velocity":100,"programNumber":75},{"time":10573.7645,"duration":245.90149999999994,"noteNumber":49,"velocity":100,"programNumber":75},{"time":10819.666,"duration":983.6059999999998,"noteNumber":49,"velocity":100,"programNumber":75},{"time":12049.173499999999,"duration":245.90149999999994,"noteNumber":51,"velocity":100,"programNumber":75},{"time":12295.074999999999,"duration":245.90149999999994,"noteNumber":51,"velocity":100,"programNumber":75},{"time":12786.877999999999,"duration":983.6059999999998,"noteNumber":51,"velocity":100,"programNumber":75},{"time":13770.483999999999,"duration":737.7044999999998,"noteNumber":53,"velocity":100,"programNumber":75},{"time":14508.188499999998,"duration":245.90149999999994,"noteNumber":53,"velocity":100,"programNumber":75},{"time":14754.089999999998,"duration":491.8029999999999,"noteNumber":53,"velocity":100,"programNumber":75},{"time":15245.892999999998,"duration":245.90149999999994,"noteNumber":51,"velocity":100,"programNumber":75},{"time":15491.794499999998,"duration":245.90149999999994,"noteNumber":53,"velocity":100,"programNumber":75},{"time":15737.695999999998,"duration":245.90149999999994,"noteNumber":51,"velocity":100,"programNumber":75},{"time":15983.597499999998,"duration":245.90149999999994,"noteNumber":53,"velocity":100,"programNumber":75},{"time":16229.498999999998,"duration":245.90150000000176,"noteNumber":54,"velocity":100,"programNumber":75},{"time":16721.302,"duration":983.6059999999998,"noteNumber":49,"velocity":100,"programNumber":75},{"time":17950.8095,"duration":245.90149999999994,"noteNumber":51,"velocity":100,"programNumber":75},{"time":18196.711,"duration":245.90149999999994,"noteNumber":51,"velocity":100,"programNumber":75},{"time":18442.6125,"duration":245.90149999999994,"noteNumber":51,"velocity":100,"programNumber":75},{"time":18688.514,"duration":245.90149999999994,"noteNumber":51,"velocity":100,"programNumber":75},{"time":18934.4155,"duration":245.90149999999994,"noteNumber":49,"velocity":100,"programNumber":75},{"time":19180.317,"duration":245.90149999999994,"noteNumber":54,"velocity":100,"programNumber":75},{"time":19672.12,"duration":245.90149999999994,"noteNumber":54,"velocity":100,"programNumber":75},{"time":19918.0215,"duration":245.90149999999994,"noteNumber":52,"velocity":100,"programNumber":75},{"time":20163.923,"duration":245.90149999999994,"noteNumber":47,"velocity":100,"programNumber":75},{"time":20655.726,"duration":983.6059999999998,"noteNumber":50,"velocity":100,"programNumber":75},{"time":21639.332,"duration":245.90149999999994,"noteNumber":50,"velocity":100,"programNumber":75},{"time":21885.2335,"duration":245.90149999999994,"noteNumber":43,"velocity":100,"programNumber":75},{"time":22131.135,"duration":245.90149999999994,"noteNumber":46,"velocity":100,"programNumber":75},{"time":22377.0365,"duration":245.90149999999994,"noteNumber":48,"velocity":100,"programNumber":75},{"time":22622.938,"duration":491.8029999999999,"noteNumber":49,"velocity":100,"programNumber":75},{"time":23114.740999999998,"duration":245.90149999999994,"noteNumber":48,"velocity":100,"programNumber":75},{"time":23606.543999999998,"duration":737.7044999999998,"noteNumber":49,"velocity":100,"programNumber":75},{"time":24344.248499999998,"duration":245.90149999999994,"noteNumber":49,"velocity":100,"programNumber":75},{"time":24590.149999999998,"duration":983.6059999999998,"noteNumber":49,"velocity":100,"programNumber":75},{"time":25819.657499999998,"duration":245.90149999999994,"noteNumber":51,"velocity":100,"programNumber":75},{"time":26065.558999999997,"duration":245.90149999999994,"noteNumber":51,"velocity":100,"programNumber":75},{"time":26557.361999999997,"duration":983.6059999999998,"noteNumber":51,"velocity":100,"programNumber":75},{"time":27540.967999999997,"duration":737.7044999999998,"noteNumber":53,"velocity":100,"programNumber":75},{"time":28278.672499999997,"duration":245.90149999999994,"noteNumber":53,"velocity":100,"programNumber":75},{"time":28524.573999999997,"duration":491.8029999999999,"noteNumber":53,"velocity":100,"programNumber":75},{"time":29016.376999999997,"duration":245.90149999999994,"noteNumber":51,"velocity":100,"programNumber":75},{"time":29262.278499999997,"duration":245.90149999999994,"noteNumber":53,"velocity":100,"programNumber":75},{"time":29508.179999999997,"duration":245.90149999999994,"noteNumber":51,"velocity":100,"programNumber":75},{"time":29754.081499999997,"duration":245.90149999999994,"noteNumber":53,"velocity":100,"programNumber":75},{"time":29999.982999999997,"duration":245.90149999999994,"noteNumber":54,"velocity":100,"programNumber":75},{"time":30491.785999999996,"duration":983.6059999999998,"noteNumber":49,"velocity":100,"programNumber":75},{"time":31721.293499999996,"duration":245.90149999999994,"noteNumber":51,"velocity":100,"programNumber":75},{"time":31967.194999999996,"duration":245.90149999999994,"noteNumber":51,"velocity":100,"programNumber":75},{"time":32213.096499999996,"duration":245.90149999999994,"noteNumber":51,"velocity":100,"programNumber":75},{"time":32458.997999999996,"duration":245.90149999999994,"noteNumber":51,"velocity":100,"programNumber":75},{"time":32704.899499999996,"duration":245.90150000000358,"noteNumber":49,"velocity":100,"programNumber":75},{"time":32950.801,"duration":245.90149999999994,"noteNumber":54,"velocity":100,"programNumber":75},{"time":33442.604,"duration":245.90149999999994,"noteNumber":54,"velocity":100,"programNumber":75},{"time":33688.5055,"duration":245.90149999999994,"noteNumber":52,"velocity":100,"programNumber":75},{"time":33934.407,"duration":245.90149999999994,"noteNumber":47,"velocity":100,"programNumber":75},{"time":34426.21,"duration":983.6059999999998,"noteNumber":50,"velocity":100,"programNumber":75},{"time":35409.816,"duration":245.90149999999994,"noteNumber":50,"velocity":100,"programNumber":75},{"time":35655.7175,"duration":245.90149999999994,"noteNumber":43,"velocity":100,"programNumber":75},{"time":35901.619,"duration":245.90149999999994,"noteNumber":46,"velocity":100,"programNumber":75},{"time":36147.5205,"duration":245.90149999999994,"noteNumber":48,"velocity":100,"programNumber":75},{"time":36393.422,"duration":491.8029999999999,"noteNumber":49,"velocity":100,"programNumber":75},{"time":36885.225,"duration":245.90149999999994,"noteNumber":48,"velocity":100,"programNumber":75},{"time":37377.028,"duration":737.7044999999998,"noteNumber":49,"velocity":100,"programNumber":75},{"time":38114.7325,"duration":245.90149999999994,"noteNumber":49,"velocity":100,"programNumber":75},{"time":38360.634,"duration":983.6059999999998,"noteNumber":49,"velocity":100,"programNumber":75},{"time":39590.1415,"duration":245.90149999999994,"noteNumber":51,"velocity":100,"programNumber":75},{"time":39836.043,"duration":245.90149999999994,"noteNumber":51,"velocity":100,"programNumber":75},{"time":40327.846,"duration":983.6059999999998,"noteNumber":51,"velocity":100,"programNumber":75},{"time":41311.452,"duration":737.7044999999998,"noteNumber":53,"velocity":100,"programNumber":75},{"time":42049.1565,"duration":245.90149999999994,"noteNumber":53,"velocity":100,"programNumber":75},{"time":42295.058,"duration":491.8029999999999,"noteNumber":53,"velocity":100,"programNumber":75},{"time":42786.861,"duration":245.90149999999994,"noteNumber":51,"velocity":100,"programNumber":75},{"time":43032.7625,"duration":245.90149999999994,"noteNumber":53,"velocity":100,"programNumber":75},{"time":43278.664,"duration":245.90149999999994,"noteNumber":51,"velocity":100,"programNumber":75},{"time":43524.5655,"duration":245.90149999999994,"noteNumber":53,"velocity":100,"programNumber":75},{"time":43770.467,"duration":245.90149999999994,"noteNumber":54,"velocity":100,"programNumber":75},{"time":44262.27,"duration":983.6059999999998,"noteNumber":49,"velocity":100,"programNumber":75},{"time":45491.7775,"duration":245.90149999999994,"noteNumber":51,"velocity":100,"programNumber":75},{"time":45737.679,"duration":245.90149999999994,"noteNumber":51,"velocity":100,"programNumber":75},{"time":45983.5805,"duration":245.90149999999994,"noteNumber":51,"velocity":100,"programNumber":75},{"time":46229.481999999996,"duration":245.90149999999994,"noteNumber":51,"velocity":100,"programNumber":75},{"time":46475.383499999996,"duration":245.90149999999994,"noteNumber":49,"velocity":100,"programNumber":75},{"time":46721.284999999996,"duration":245.90149999999994,"noteNumber":54,"velocity":100,"programNumber":75},{"time":47213.087999999996,"duration":245.90149999999994,"noteNumber":54,"velocity":100,"programNumber":75},{"time":47458.989499999996,"duration":245.90149999999994,"noteNumber":52,"velocity":100,"programNumber":75},{"time":47704.890999999996,"duration":491.8029999999999,"noteNumber":47,"velocity":100,"programNumber":75},{"time":48196.693999999996,"duration":983.6059999999998,"noteNumber":50,"velocity":100,"programNumber":75},{"time":49180.299999999996,"duration":245.90149999999994,"noteNumber":50,"velocity":100,"programNumber":75},{"time":49426.201499999996,"duration":245.90149999999994,"noteNumber":43,"velocity":100,"programNumber":75},{"time":49672.102999999996,"duration":245.90149999999994,"noteNumber":46,"velocity":100,"programNumber":75},{"time":49918.004499999995,"duration":245.90149999999994,"noteNumber":48,"velocity":100,"programNumber":75},{"time":50163.905999999995,"duration":491.8029999999999,"noteNumber":49,"velocity":100,"programNumber":75},{"time":50655.708999999995,"duration":245.90149999999994,"noteNumber":48,"velocity":100,"programNumber":75},{"time":51147.511999999995,"duration":737.7044999999998,"noteNumber":49,"velocity":100,"programNumber":75},{"time":51885.216499999995,"duration":245.90149999999994,"noteNumber":49,"velocity":100,"programNumber":75},{"time":52131.117999999995,"duration":983.6059999999998,"noteNumber":49,"velocity":100,"programNumber":75},{"time":53360.625499999995,"duration":245.90149999999994,"noteNumber":51,"velocity":100,"programNumber":75},{"time":53606.526999999995,"duration":245.90149999999994,"noteNumber":51,"velocity":100,"programNumber":75},{"time":54098.329999999994,"duration":983.6059999999998,"noteNumber":51,"velocity":100,"programNumber":75},{"time":55081.935999999994,"duration":737.7044999999998,"noteNumber":53,"velocity":100,"programNumber":75},{"time":55819.640499999994,"duration":245.90149999999994,"noteNumber":53,"velocity":100,"programNumber":75},{"time":56065.541999999994,"duration":491.8029999999999,"noteNumber":53,"velocity":100,"programNumber":75},{"time":56557.344999999994,"duration":245.90149999999994,"noteNumber":51,"velocity":100,"programNumber":75},{"time":56803.246499999994,"duration":245.90149999999994,"noteNumber":53,"velocity":100,"programNumber":75},{"time":57049.147999999994,"duration":245.90149999999994,"noteNumber":51,"velocity":100,"programNumber":75},{"time":57295.049499999994,"duration":245.90149999999994,"noteNumber":53,"velocity":100,"programNumber":75},{"time":57540.950999999994,"duration":245.90149999999994,"noteNumber":54,"velocity":100,"programNumber":75},{"time":58032.75399999999,"duration":983.6059999999998,"noteNumber":49,"velocity":100,"programNumber":75},{"time":59262.26149999999,"duration":245.90149999999994,"noteNumber":51,"velocity":100,"programNumber":75},{"time":59508.16299999999,"duration":245.90149999999994,"noteNumber":51,"velocity":100,"programNumber":75},{"time":59754.06449999999,"duration":245.90149999999994,"noteNumber":51,"velocity":100,"programNumber":75},{"time":59999.96599999999,"duration":245.90149999999994,"noteNumber":51,"velocity":100,"programNumber":75},{"time":60245.86749999999,"duration":245.90149999999994,"noteNumber":49,"velocity":100,"programNumber":75},{"time":60491.76899999999,"duration":245.90149999999994,"noteNumber":54,"velocity":100,"programNumber":75},{"time":60983.57199999999,"duration":245.90149999999994,"noteNumber":54,"velocity":100,"programNumber":75},{"time":61229.47349999999,"duration":245.90149999999994,"noteNumber":52,"velocity":100,"programNumber":75},{"time":61475.37499999999,"duration":491.8029999999999,"noteNumber":47,"velocity":100,"programNumber":75},{"time":61967.17799999999,"duration":983.6059999999998,"noteNumber":50,"velocity":100,"programNumber":75},{"time":63688.48849999999,"duration":737.7044999999998,"noteNumber":74,"velocity":108,"programNumber":75},{"time":64426.19299999999,"duration":245.90149999999994,"noteNumber":72,"velocity":108,"programNumber":75},{"time":64672.09449999999,"duration":245.90149999999994,"noteNumber":70,"velocity":108,"programNumber":75},{"time":64917.99599999999,"duration":245.90149999999994,"noteNumber":72,"velocity":108,"programNumber":75},{"time":65163.89749999999,"duration":737.7045000000071,"noteNumber":70,"velocity":108,"programNumber":75},{"time":66639.3065,"duration":122.95075000000361,"noteNumber":70,"velocity":108,"programNumber":75},{"time":66762.25725000001,"duration":614.7537500000035,"noteNumber":72,"velocity":108,"programNumber":75},{"time":67377.01100000001,"duration":491.8029999999999,"noteNumber":70,"velocity":108,"programNumber":75},{"time":67868.81400000001,"duration":491.8029999999999,"noteNumber":74,"velocity":108,"programNumber":75},{"time":68360.61700000001,"duration":491.8029999999999,"noteNumber":72,"velocity":108,"programNumber":75},{"time":68852.42000000001,"duration":245.90150000000722,"noteNumber":70,"velocity":108,"programNumber":75},{"time":69098.32150000002,"duration":737.7045000000071,"noteNumber":67,"velocity":108,"programNumber":75},{"time":71188.48425000002,"duration":122.95075000000361,"noteNumber":70,"velocity":108,"programNumber":75},{"time":71311.43500000003,"duration":368.8522499999963,"noteNumber":70,"velocity":108,"programNumber":75},{"time":71680.28725000002,"duration":122.95075000000361,"noteNumber":70,"velocity":108,"programNumber":75},{"time":71803.23800000003,"duration":737.7045000000071,"noteNumber":72,"velocity":108,"programNumber":75},{"time":72540.94250000003,"duration":245.90150000000722,"noteNumber":70,"velocity":108,"programNumber":75},{"time":72786.84400000004,"duration":491.8029999999999,"noteNumber":69,"velocity":108,"programNumber":75},{"time":73278.64700000004,"duration":245.90150000000722,"noteNumber":67,"velocity":108,"programNumber":75},{"time":73524.54850000005,"duration":737.7045000000071,"noteNumber":67,"velocity":108,"programNumber":75},{"time":74262.25300000006,"duration":245.90150000000722,"noteNumber":62,"velocity":108,"programNumber":75},{"time":74508.15450000006,"duration":737.7045000000071,"noteNumber":65,"velocity":108,"programNumber":75},{"time":79426.18450000008,"duration":245.90150000000722,"noteNumber":72,"velocity":108,"programNumber":75},{"time":79672.08600000008,"duration":491.8029999999999,"noteNumber":74,"velocity":108,"programNumber":75},{"time":80163.88900000008,"duration":245.90150000000722,"noteNumber":72,"velocity":108,"programNumber":75},{"time":80409.79050000009,"duration":245.90150000000722,"noteNumber":70,"velocity":108,"programNumber":75},{"time":80655.6920000001,"duration":245.90150000000722,"noteNumber":72,"velocity":108,"programNumber":75},{"time":80901.5935000001,"duration":737.7045000000071,"noteNumber":70,"velocity":108,"programNumber":75},{"time":82131.10100000011,"duration":245.90150000000722,"noteNumber":72,"velocity":108,"programNumber":75},{"time":82377.00250000012,"duration":245.90150000000722,"noteNumber":70,"velocity":108,"programNumber":75},{"time":82622.90400000013,"duration":737.7045000000071,"noteNumber":72,"velocity":108,"programNumber":75},{"time":83360.60850000013,"duration":245.90150000000722,"noteNumber":72,"velocity":108,"programNumber":75},{"time":83606.51000000014,"duration":737.7045000000071,"noteNumber":74,"velocity":108,"programNumber":75},{"time":84344.21450000015,"duration":245.90150000000722,"noteNumber":72,"velocity":108,"programNumber":75},{"time":84590.11600000015,"duration":245.90150000000722,"noteNumber":70,"velocity":108,"programNumber":75},{"time":84836.01750000016,"duration":737.7045000000071,"noteNumber":67,"velocity":108,"programNumber":75},{"time":86311.42650000018,"duration":245.90150000000722,"noteNumber":69,"velocity":108,"programNumber":75},{"time":86557.32800000018,"duration":245.90150000000722,"noteNumber":70,"velocity":108,"programNumber":75},{"time":86803.22950000019,"duration":491.8029999999999,"noteNumber":70,"velocity":108,"programNumber":75},{"time":87786.83550000019,"duration":245.90150000000722,"noteNumber":72,"velocity":108,"programNumber":75},{"time":88032.7370000002,"duration":245.90150000000722,"noteNumber":70,"velocity":108,"programNumber":75},{"time":88278.6385000002,"duration":245.90150000000722,"noteNumber":69,"velocity":108,"programNumber":75},{"time":88524.54000000021,"duration":491.8029999999999,"noteNumber":67,"velocity":108,"programNumber":75},{"time":89262.24450000022,"duration":491.8029999999999,"noteNumber":67,"velocity":108,"programNumber":75},{"time":89754.04750000022,"duration":491.8029999999999,"noteNumber":67,"velocity":108,"programNumber":75},{"time":90245.85050000022,"duration":491.8029999999999,"noteNumber":62,"velocity":108,"programNumber":75},{"time":90737.65350000022,"duration":491.8029999999999,"noteNumber":65,"velocity":108,"programNumber":75},{"time":99098.30450000022,"duration":737.7045000000071,"noteNumber":74,"velocity":121,"programNumber":75},{"time":99836.00900000022,"duration":245.90150000000722,"noteNumber":72,"velocity":121,"programNumber":75},{"time":100081.91050000023,"duration":245.90150000000722,"noteNumber":70,"velocity":121,"programNumber":75},{"time":100327.81200000024,"duration":245.90150000000722,"noteNumber":72,"velocity":121,"programNumber":75},{"time":100573.71350000025,"duration":737.7045000000071,"noteNumber":70,"velocity":121,"programNumber":75},{"time":102049.12250000026,"duration":122.95075000000361,"noteNumber":70,"velocity":121,"programNumber":75},{"time":102172.07325000026,"duration":614.7537500000035,"noteNumber":72,"velocity":121,"programNumber":75},{"time":102786.82700000027,"duration":491.8029999999999,"noteNumber":70,"velocity":121,"programNumber":75},{"time":103278.63000000027,"duration":491.8029999999999,"noteNumber":74,"velocity":121,"programNumber":75},{"time":103770.43300000027,"duration":491.8029999999999,"noteNumber":72,"velocity":121,"programNumber":75},{"time":104262.23600000027,"duration":245.90150000000722,"noteNumber":70,"velocity":121,"programNumber":75},{"time":104508.13750000027,"duration":737.7045000000071,"noteNumber":67,"velocity":121,"programNumber":75},{"time":106229.44800000028,"duration":245.90150000000722,"noteNumber":70,"velocity":121,"programNumber":75},{"time":106475.34950000029,"duration":245.90150000000722,"noteNumber":70,"velocity":121,"programNumber":75},{"time":106721.2510000003,"duration":245.90150000000722,"noteNumber":70,"velocity":121,"programNumber":75},{"time":106967.1525000003,"duration":245.90150000000722,"noteNumber":70,"velocity":121,"programNumber":75},{"time":107213.05400000031,"duration":491.8029999999999,"noteNumber":72,"velocity":121,"programNumber":75},{"time":107704.85700000031,"duration":245.90150000000722,"noteNumber":70,"velocity":121,"programNumber":75},{"time":107950.75850000032,"duration":245.90150000000722,"noteNumber":69,"velocity":121,"programNumber":75},{"time":108196.66000000032,"duration":491.8029999999999,"noteNumber":67,"velocity":121,"programNumber":75},{"time":108934.36450000033,"duration":122.95075000000361,"noteNumber":67,"velocity":121,"programNumber":75},{"time":109057.31525000033,"duration":122.95075000000361,"noteNumber":67,"velocity":121,"programNumber":75},{"time":109180.26600000034,"duration":245.90150000000722,"noteNumber":67,"velocity":121,"programNumber":75},{"time":109426.16750000035,"duration":491.8029999999999,"noteNumber":62,"velocity":121,"programNumber":75},{"time":110163.87200000035,"duration":491.8029999999999,"noteNumber":65,"velocity":121,"programNumber":75},{"time":114590.09900000035,"duration":245.90150000000722,"noteNumber":74,"velocity":121,"programNumber":75},{"time":114836.00050000036,"duration":245.90150000000722,"noteNumber":74,"velocity":121,"programNumber":75},{"time":115081.90200000037,"duration":491.8029999999999,"noteNumber":72,"velocity":121,"programNumber":75},{"time":115573.70500000037,"duration":491.8029999999999,"noteNumber":70,"velocity":121,"programNumber":75},{"time":116065.50800000037,"duration":245.90150000000722,"noteNumber":72,"velocity":121,"programNumber":75},{"time":116311.40950000037,"duration":245.90150000000722,"noteNumber":70,"velocity":121,"programNumber":75},{"time":117540.91700000038,"duration":245.90150000000722,"noteNumber":72,"velocity":121,"programNumber":75},{"time":117786.81850000039,"duration":245.90150000000722,"noteNumber":70,"velocity":121,"programNumber":75},{"time":118032.7200000004,"duration":491.8029999999999,"noteNumber":72,"velocity":121,"programNumber":75},{"time":118524.5230000004,"duration":245.90150000000722,"noteNumber":70,"velocity":121,"programNumber":75},{"time":118770.4245000004,"duration":491.8029999999999,"noteNumber":74,"velocity":121,"programNumber":75},{"time":119262.2275000004,"duration":491.8029999999999,"noteNumber":72,"velocity":121,"programNumber":75},{"time":119754.0305000004,"duration":245.90150000000722,"noteNumber":70,"velocity":121,"programNumber":75},{"time":119999.93200000041,"duration":491.8029999999999,"noteNumber":67,"velocity":121,"programNumber":75},{"time":121721.24250000042,"duration":245.90150000000722,"noteNumber":70,"velocity":121,"programNumber":75},{"time":121967.14400000042,"duration":245.90150000000722,"noteNumber":70,"velocity":121,"programNumber":75},{"time":122213.04550000043,"duration":491.8029999999999,"noteNumber":70,"velocity":121,"programNumber":75},{"time":122704.84850000043,"duration":737.7045000000071,"noteNumber":72,"velocity":121,"programNumber":75},{"time":123442.55300000044,"duration":245.90150000000722,"noteNumber":70,"velocity":121,"programNumber":75},{"time":123934.35600000045,"duration":245.90150000000722,"noteNumber":69,"velocity":121,"programNumber":75},{"time":124180.25750000046,"duration":491.8029999999999,"noteNumber":67,"velocity":121,"programNumber":75},{"time":124672.06050000046,"duration":491.8029999999999,"noteNumber":67,"velocity":121,"programNumber":75},{"time":125163.86350000046,"duration":491.8029999999999,"noteNumber":62,"velocity":121,"programNumber":75},{"time":125901.56800000046,"duration":491.8029999999999,"noteNumber":65,"velocity":121,"programNumber":75},{"time":134262.21900000048,"duration":187.5,"noteNumber":67,"velocity":121,"programNumber":75},{"time":134449.71900000048,"duration":187.5,"noteNumber":67,"velocity":121,"programNumber":75},{"time":134637.21900000048,"duration":375,"noteNumber":70,"velocity":121,"programNumber":75},{"time":135012.21900000048,"duration":375,"noteNumber":74,"velocity":121,"programNumber":75},{"time":135387.21900000048,"duration":375,"noteNumber":74,"velocity":121,"programNumber":75},{"time":135762.21900000048,"duration":750,"noteNumber":72,"velocity":121,"programNumber":75},{"time":136512.21900000048,"duration":375,"noteNumber":70,"velocity":121,"programNumber":75},{"time":136887.21900000048,"duration":375,"noteNumber":72,"velocity":121,"programNumber":75},{"time":137262.21900000048,"duration":375,"noteNumber":70,"velocity":121,"programNumber":75},{"time":137637.21900000048,"duration":187.5,"noteNumber":72,"velocity":121,"programNumber":75},{"time":137824.71900000048,"duration":562.5,"noteNumber":70,"velocity":121,"programNumber":75},{"time":138387.21900000048,"duration":750,"noteNumber":74,"velocity":121,"programNumber":75},{"time":139512.21900000048,"duration":187.5,"noteNumber":67,"velocity":121,"programNumber":75},{"time":139699.71900000048,"duration":187.5,"noteNumber":67,"velocity":121,"programNumber":75},{"time":139887.21900000048,"duration":375,"noteNumber":67,"velocity":121,"programNumber":75},{"time":140262.21900000048,"duration":187.5,"noteNumber":67,"velocity":121,"programNumber":75},{"time":140449.71900000048,"duration":375,"noteNumber":70,"velocity":121,"programNumber":75},{"time":140824.71900000048,"duration":562.5,"noteNumber":74,"velocity":121,"programNumber":75},{"time":141387.21900000048,"duration":187.5,"noteNumber":74,"velocity":121,"programNumber":75},{"time":141574.71900000048,"duration":375,"noteNumber":72,"velocity":121,"programNumber":75},{"time":141949.71900000048,"duration":562.5,"noteNumber":72,"velocity":121,"programNumber":75},{"time":142512.21900000048,"duration":375,"noteNumber":70,"velocity":121,"programNumber":75},{"time":142887.21900000048,"duration":187.5,"noteNumber":72,"velocity":121,"programNumber":75},{"time":143074.71900000048,"duration":375,"noteNumber":70,"velocity":121,"programNumber":75},{"time":143449.71900000048,"duration":562.5,"noteNumber":74,"velocity":121,"programNumber":75},{"time":144012.21900000048,"duration":375,"noteNumber":70,"velocity":121,"programNumber":75},{"time":144387.21900000048,"duration":375,"noteNumber":67,"velocity":121,"programNumber":75},{"time":145137.21900000048,"duration":187.5,"noteNumber":74,"velocity":127,"programNumber":75},{"time":214887.21900000048,"duration":227.27249999999185,"noteNumber":67,"velocity":99,"programNumber":75},{"time":215114.49150000047,"duration":436.3640000000014,"noteNumber":67,"velocity":99,"programNumber":75},{"time":215550.85550000047,"duration":2750,"noteNumber":69,"velocity":99,"programNumber":75},{"time":218800.85550000047,"duration":333.33333333334303,"noteNumber":58,"velocity":99,"programNumber":75},{"time":219134.1888333338,"duration":333.33333333334303,"noteNumber":57,"velocity":99,"programNumber":75},{"time":219467.52216666716,"duration":333.33333333334303,"noteNumber":53,"velocity":99,"programNumber":75},{"time":219800.8555000005,"duration":2500,"noteNumber":48,"velocity":99,"programNumber":75},{"time":222800.8555000005,"duration":250,"noteNumber":48,"velocity":99,"programNumber":75},{"time":223050.8555000005,"duration":250,"noteNumber":50,"velocity":99,"programNumber":75},{"time":223300.8555000005,"duration":250,"noteNumber":53,"velocity":99,"programNumber":75},{"time":223550.8555000005,"duration":250,"noteNumber":55,"velocity":99,"programNumber":75},{"time":223800.8555000005,"duration":2500,"noteNumber":57,"velocity":99,"programNumber":75},{"time":226800.8555000005,"duration":750,"noteNumber":48,"velocity":99,"programNumber":75},{"time":227550.8555000005,"duration":250,"noteNumber":48,"velocity":99,"programNumber":75},{"time":227800.8555000005,"duration":83.33333333334303,"noteNumber":50,"velocity":99,"programNumber":75},{"time":227884.18883333384,"duration":83.33333333334303,"noteNumber":51,"velocity":99,"programNumber":75},{"time":227967.5221666672,"duration":83.33333333334303,"noteNumber":52,"velocity":99,"programNumber":75},{"time":228050.85550000053,"duration":250,"noteNumber":55,"velocity":99,"programNumber":75},{"time":228300.85550000053,"duration":250,"noteNumber":60,"velocity":99,"programNumber":75},{"time":228800.85550000053,"duration":2000,"noteNumber":58,"velocity":99,"programNumber":75},{"time":230800.85550000053,"duration":250,"noteNumber":67,"velocity":99,"programNumber":75},{"time":231050.85550000053,"duration":250,"noteNumber":63,"velocity":99,"programNumber":75},{"time":231300.85550000053,"duration":3500,"noteNumber":60,"velocity":99,"programNumber":75},{"time":234800.85550000053,"duration":250,"noteNumber":67,"velocity":99,"programNumber":75},{"time":235050.85550000053,"duration":250,"noteNumber":62,"velocity":99,"programNumber":75},{"time":235300.85550000053,"duration":3500,"noteNumber":58,"velocity":99,"programNumber":75},{"time":238800.85550000053,"duration":250,"noteNumber":48,"velocity":99,"programNumber":75},{"time":239050.85550000053,"duration":250,"noteNumber":50,"velocity":99,"programNumber":75},{"time":239300.85550000053,"duration":250,"noteNumber":53,"velocity":99,"programNumber":75},{"time":239550.85550000053,"duration":250,"noteNumber":55,"velocity":99,"programNumber":75},{"time":239800.85550000053,"duration":250,"noteNumber":57,"velocity":99,"programNumber":75},{"time":240050.85550000053,"duration":250,"noteNumber":60,"velocity":99,"programNumber":75},{"time":240300.85550000053,"duration":250,"noteNumber":60,"velocity":99,"programNumber":75},{"time":240550.85550000053,"duration":250,"noteNumber":60,"velocity":99,"programNumber":75},{"time":240800.85550000053,"duration":500,"noteNumber":60,"velocity":99,"programNumber":75},{"time":241300.85550000053,"duration":500,"noteNumber":57,"velocity":99,"programNumber":75},{"time":241800.85550000053,"duration":250,"noteNumber":60,"velocity":99,"programNumber":75},{"time":242050.85550000053,"duration":250,"noteNumber":57,"velocity":99,"programNumber":75},{"time":242300.85550000053,"duration":250,"noteNumber":60,"velocity":99,"programNumber":75},{"time":242550.85550000053,"duration":250,"noteNumber":60,"velocity":99,"programNumber":75},{"time":242800.85550000053,"duration":166.66666666665697,"noteNumber":62,"velocity":99,"programNumber":75},{"time":242967.5221666672,"duration":166.66666666665697,"noteNumber":60,"velocity":99,"programNumber":75},{"time":243134.18883333384,"duration":166.66666666665697,"noteNumber":55,"velocity":99,"programNumber":75},{"time":243300.8555000005,"duration":250,"noteNumber":60,"velocity":99,"programNumber":75},{"time":243550.8555000005,"duration":250,"noteNumber":57,"velocity":99,"programNumber":75},{"time":243800.8555000005,"duration":250,"noteNumber":60,"velocity":99,"programNumber":75},{"time":244050.8555000005,"duration":250,"noteNumber":62,"velocity":99,"programNumber":75},{"time":244300.8555000005,"duration":250,"noteNumber":65,"velocity":99,"programNumber":75},{"time":244550.8555000005,"duration":250,"noteNumber":69,"velocity":99,"programNumber":75},{"time":244800.8555000005,"duration":500,"noteNumber":67,"velocity":99,"programNumber":75},{"time":245300.8555000005,"duration":500,"noteNumber":65,"velocity":99,"programNumber":75},{"time":245800.8555000005,"duration":500,"noteNumber":60,"velocity":99,"programNumber":75},{"time":246300.8555000005,"duration":500,"noteNumber":62,"velocity":99,"programNumber":75},{"time":246800.8555000005,"duration":750,"noteNumber":55,"velocity":99,"programNumber":75},{"time":247550.8555000005,"duration":750,"noteNumber":58,"velocity":99,"programNumber":75},{"time":248300.8555000005,"duration":750,"noteNumber":60,"velocity":99,"programNumber":75},{"time":249050.8555000005,"duration":750,"noteNumber":53,"velocity":99,"programNumber":75},{"time":249800.8555000005,"duration":500,"noteNumber":50,"velocity":99,"programNumber":75},{"time":250300.8555000005,"duration":250,"noteNumber":50,"velocity":99,"programNumber":75},{"time":250550.8555000005,"duration":500,"noteNumber":53,"velocity":99,"programNumber":75},{"time":251050.8555000005,"duration":250,"noteNumber":55,"velocity":99,"programNumber":75},{"time":251300.8555000005,"duration":250,"noteNumber":58,"velocity":99,"programNumber":75},{"time":251550.8555000005,"duration":250,"noteNumber":60,"velocity":99,"programNumber":75},{"time":251800.8555000005,"duration":250,"noteNumber":58,"velocity":99,"programNumber":75},{"time":252050.8555000005,"duration":250,"noteNumber":55,"velocity":99,"programNumber":75},{"time":252300.8555000005,"duration":250,"noteNumber":58,"velocity":99,"programNumber":75},{"time":252550.8555000005,"duration":1375,"noteNumber":55,"velocity":99,"programNumber":75},{"time":254134.18883333384,"duration":208.33333333334303,"noteNumber":55,"velocity":99,"programNumber":75},{"time":254467.5221666672,"duration":208.33333333334303,"noteNumber":55,"velocity":99,"programNumber":75},{"time":254800.85550000053,"duration":2000,"noteNumber":62,"velocity":99,"programNumber":75},{"time":256800.85550000053,"duration":250,"noteNumber":60,"velocity":99,"programNumber":75},{"time":257050.85550000053,"duration":1000,"noteNumber":58,"velocity":99,"programNumber":75},{"time":258050.85550000053,"duration":1250,"noteNumber":55,"velocity":99,"programNumber":75},{"time":259300.85550000053,"duration":250,"noteNumber":53,"velocity":99,"programNumber":75},{"time":259550.85550000053,"duration":250,"noteNumber":50,"velocity":99,"programNumber":75},{"time":259800.85550000053,"duration":250,"noteNumber":48,"velocity":99,"programNumber":75},{"time":260050.85550000053,"duration":250,"noteNumber":46,"velocity":99,"programNumber":75},{"time":260300.85550000053,"duration":250,"noteNumber":46,"velocity":99,"programNumber":75},{"time":260550.85550000053,"duration":250,"noteNumber":43,"velocity":99,"programNumber":75},{"time":260800.85550000053,"duration":250,"noteNumber":46,"velocity":99,"programNumber":75},{"time":261050.85550000053,"duration":250,"noteNumber":48,"velocity":99,"programNumber":75},{"time":261300.85550000053,"duration":250,"noteNumber":50,"velocity":99,"programNumber":75},{"time":261550.85550000053,"duration":250,"noteNumber":53,"velocity":99,"programNumber":75},{"time":261800.85550000053,"duration":250,"noteNumber":53,"velocity":99,"programNumber":75},{"time":262050.85550000053,"duration":250,"noteNumber":55,"velocity":99,"programNumber":75},{"time":262300.8555000005,"duration":250,"noteNumber":58,"velocity":99,"programNumber":75},{"time":262550.8555000005,"duration":250,"noteNumber":55,"velocity":99,"programNumber":75},{"time":262800.8555000005,"duration":250,"noteNumber":58,"velocity":99,"programNumber":75},{"time":263050.8555000005,"duration":125,"noteNumber":58,"velocity":99,"programNumber":75},{"time":263175.8555000005,"duration":125,"noteNumber":58,"velocity":99,"programNumber":75},{"time":263300.8555000005,"duration":250,"noteNumber":58,"velocity":99,"programNumber":75},{"time":263550.8555000005,"duration":250,"noteNumber":55,"velocity":99,"programNumber":75},{"time":263800.8555000005,"duration":250,"noteNumber":58,"velocity":99,"programNumber":75},{"time":264050.8555000005,"duration":250,"noteNumber":55,"velocity":99,"programNumber":75},{"time":264300.8555000005,"duration":375,"noteNumber":60,"velocity":99,"programNumber":75},{"time":264675.8555000005,"duration":875,"noteNumber":62,"velocity":99,"programNumber":75},{"time":265550.8555000005,"duration":500,"noteNumber":60,"velocity":99,"programNumber":75},{"time":266050.8555000005,"duration":250,"noteNumber":58,"velocity":99,"programNumber":75},{"time":266300.8555000005,"duration":125,"noteNumber":60,"velocity":99,"programNumber":75},{"time":266425.8555000005,"duration":125,"noteNumber":58,"velocity":99,"programNumber":75},{"time":266550.8555000005,"duration":250,"noteNumber":55,"velocity":99,"programNumber":75},{"time":266800.8555000005,"duration":250,"noteNumber":58,"velocity":99,"programNumber":75},{"time":267050.8555000005,"duration":750,"noteNumber":50,"velocity":99,"programNumber":75},{"time":267800.8555000005,"duration":250,"noteNumber":53,"velocity":99,"programNumber":75},{"time":268050.8555000005,"duration":250,"noteNumber":55,"velocity":99,"programNumber":75},{"time":268300.8555000005,"duration":250,"noteNumber":58,"velocity":99,"programNumber":75},{"time":268550.8555000005,"duration":250,"noteNumber":58,"velocity":99,"programNumber":75},{"time":268800.8555000005,"duration":250,"noteNumber":60,"velocity":99,"programNumber":75},{"time":269050.8555000005,"duration":250,"noteNumber":58,"velocity":99,"programNumber":75},{"time":269300.8555000005,"duration":500,"noteNumber":53,"velocity":99,"programNumber":75},{"time":269800.8555000005,"duration":500,"noteNumber":50,"velocity":99,"programNumber":75},{"time":270300.8555000005,"duration":250,"noteNumber":53,"velocity":99,"programNumber":75},{"time":270550.8555000005,"duration":250,"noteNumber":55,"velocity":99,"programNumber":75},{"time":270800.8555000005,"duration":250,"noteNumber":58,"velocity":99,"programNumber":75},{"time":271050.8555000005,"duration":250,"noteNumber":60,"velocity":99,"programNumber":75},{"time":271300.8555000005,"duration":500,"noteNumber":62,"velocity":99,"programNumber":75},{"time":271800.8555000005,"duration":750,"noteNumber":65,"velocity":99,"programNumber":75},{"time":273300.8555000005,"duration":750,"noteNumber":67,"velocity":99,"programNumber":75},{"time":272550.8555000005,"duration":1500,"noteNumber":60,"velocity":99,"programNumber":75},{"time":274050.8555000005,"duration":750,"noteNumber":62,"velocity":99,"programNumber":75},{"time":274800.8555000005,"duration":250,"noteNumber":48,"velocity":99,"programNumber":75},{"time":275050.8555000005,"duration":250,"noteNumber":50,"velocity":99,"programNumber":75},{"time":275300.8555000005,"duration":250,"noteNumber":53,"velocity":99,"programNumber":75},{"time":275550.8555000005,"duration":250,"noteNumber":55,"velocity":99,"programNumber":75},{"time":275800.8555000005,"duration":250,"noteNumber":57,"velocity":99,"programNumber":75},{"time":276050.8555000005,"duration":250,"noteNumber":60,"velocity":99,"programNumber":75},{"time":276300.8555000005,"duration":250,"noteNumber":60,"velocity":99,"programNumber":75},{"time":276550.8555000005,"duration":250,"noteNumber":60,"velocity":99,"programNumber":75},{"time":276800.8555000005,"duration":250,"noteNumber":60,"velocity":99,"programNumber":75},{"time":277050.8555000005,"duration":250,"noteNumber":62,"velocity":99,"programNumber":75},{"time":277300.8555000005,"duration":250,"noteNumber":65,"velocity":99,"programNumber":75},{"time":277550.8555000005,"duration":250,"noteNumber":65,"velocity":99,"programNumber":75},{"time":277800.8555000005,"duration":250,"noteNumber":65,"velocity":99,"programNumber":75},{"time":278050.8555000005,"duration":125,"noteNumber":67,"velocity":99,"programNumber":75},{"time":278175.8555000005,"duration":125,"noteNumber":65,"velocity":99,"programNumber":75},{"time":278300.8555000005,"duration":500,"noteNumber":65,"velocity":99,"programNumber":75},{"time":278800.8555000005,"duration":500,"noteNumber":62,"velocity":99,"programNumber":75},{"time":279300.8555000005,"duration":500,"noteNumber":60,"velocity":99,"programNumber":75},{"time":279800.8555000005,"duration":125,"noteNumber":62,"velocity":99,"programNumber":75},{"time":279925.8555000005,"duration":125,"noteNumber":60,"velocity":99,"programNumber":75},{"time":280050.8555000005,"duration":250,"noteNumber":57,"velocity":99,"programNumber":75},{"time":280300.8555000005,"duration":250,"noteNumber":60,"velocity":99,"programNumber":75},{"time":280550.8555000005,"duration":250,"noteNumber":62,"velocity":99,"programNumber":75},{"time":280800.8555000005,"duration":125,"noteNumber":67,"velocity":99,"programNumber":75},{"time":280925.8555000005,"duration":125,"noteNumber":65,"velocity":99,"programNumber":75},{"time":281050.8555000005,"duration":125,"noteNumber":62,"velocity":99,"programNumber":75},{"time":281175.8555000005,"duration":125,"noteNumber":60,"velocity":99,"programNumber":75},{"time":281300.8555000005,"duration":500,"noteNumber":57,"velocity":99,"programNumber":75},{"time":281800.8555000005,"duration":250,"noteNumber":60,"velocity":99,"programNumber":75},{"time":282050.8555000005,"duration":250,"noteNumber":57,"velocity":99,"programNumber":75},{"time":282300.8555000005,"duration":125,"noteNumber":60,"velocity":99,"programNumber":75},{"time":282425.8555000005,"duration":125,"noteNumber":62,"velocity":99,"programNumber":75},{"time":282550.8555000005,"duration":250,"noteNumber":62,"velocity":99,"programNumber":75},{"time":282800.8555000005,"duration":750,"noteNumber":55,"velocity":99,"programNumber":75},{"time":283550.8555000005,"duration":750,"noteNumber":58,"velocity":99,"programNumber":75},{"time":284300.8555000005,"duration":500,"noteNumber":62,"velocity":99,"programNumber":75},{"time":284800.8555000005,"duration":1500,"noteNumber":60,"velocity":99,"programNumber":75},{"time":286300.8555000005,"duration":250,"noteNumber":58,"velocity":99,"programNumber":75},{"time":286550.8555000005,"duration":250,"noteNumber":62,"velocity":99,"programNumber":75},{"time":286800.8555000005,"duration":250,"noteNumber":60,"velocity":99,"programNumber":75},{"time":287050.8555000005,"duration":250,"noteNumber":58,"velocity":99,"programNumber":75},{"time":287300.8555000005,"duration":250,"noteNumber":53,"velocity":99,"programNumber":75},{"time":287550.8555000005,"duration":250,"noteNumber":53,"velocity":99,"programNumber":75},{"time":287800.8555000005,"duration":250,"noteNumber":55,"velocity":99,"programNumber":75},{"time":288050.8555000005,"duration":500,"noteNumber":53,"velocity":99,"programNumber":75},{"time":288550.8555000005,"duration":1250,"noteNumber":50,"velocity":99,"programNumber":75},{"time":289800.8555000005,"duration":250,"noteNumber":43,"velocity":99,"programNumber":75},{"time":290050.8555000005,"duration":500,"noteNumber":50,"velocity":99,"programNumber":75},{"time":290550.8555000005,"duration":250,"noteNumber":55,"velocity":99,"programNumber":75},{"time":290800.8555000005,"duration":500,"noteNumber":58,"velocity":99,"programNumber":75},{"time":291300.8555000005,"duration":1250,"noteNumber":55,"velocity":99,"programNumber":75},{"time":292550.8555000005,"duration":500,"noteNumber":58,"velocity":100,"programNumber":75},{"time":293050.8555000005,"duration":250,"noteNumber":60,"velocity":100,"programNumber":75},{"time":293300.8555000005,"duration":1250,"noteNumber":62,"velocity":100,"programNumber":75},{"time":294550.8555000005,"duration":500,"noteNumber":65,"velocity":100,"programNumber":75},{"time":295050.8555000005,"duration":500,"noteNumber":67,"velocity":100,"programNumber":75},{"time":295550.8555000005,"duration":1250,"noteNumber":62,"velocity":100,"programNumber":75},{"time":296800.8555000005,"duration":750,"noteNumber":65,"velocity":100,"programNumber":75},{"time":297550.8555000005,"duration":1000,"noteNumber":67,"velocity":100,"programNumber":75},{"time":298550.8555000005,"duration":250,"noteNumber":65,"velocity":100,"programNumber":75},{"time":298800.8555000005,"duration":750,"noteNumber":74,"velocity":100,"programNumber":75},{"time":299550.8555000005,"duration":1500,"noteNumber":67,"velocity":100,"programNumber":75},{"time":301050.8555000005,"duration":500,"noteNumber":72,"velocity":101,"programNumber":75},{"time":301550.8555000005,"duration":250,"noteNumber":65,"velocity":101,"programNumber":75},{"time":301800.8555000005,"duration":1250,"noteNumber":67,"velocity":101,"programNumber":75},{"time":303050.8555000005,"duration":250,"noteNumber":65,"velocity":101,"programNumber":75},{"time":303300.8555000005,"duration":166.66666666668607,"noteNumber":72,"velocity":101,"programNumber":75},{"time":303467.5221666672,"duration":166.66666666668607,"noteNumber":70,"velocity":101,"programNumber":75},{"time":303634.1888333339,"duration":166.66666666668607,"noteNumber":65,"velocity":101,"programNumber":75},{"time":303800.8555000006,"duration":166.66666666668607,"noteNumber":72,"velocity":101,"programNumber":75},{"time":303967.5221666673,"duration":166.66666666668607,"noteNumber":70,"velocity":101,"programNumber":75},{"time":304134.18883333396,"duration":166.66666666668607,"noteNumber":65,"velocity":101,"programNumber":75},{"time":304300.85550000065,"duration":250,"noteNumber":70,"velocity":101,"programNumber":75},{"time":304550.85550000065,"duration":750,"noteNumber":67,"velocity":101,"programNumber":75},{"time":305300.85550000065,"duration":250,"noteNumber":65,"velocity":101,"programNumber":75},{"time":305550.85550000065,"duration":250,"noteNumber":62,"velocity":101,"programNumber":75},{"time":305800.85550000065,"duration":250,"noteNumber":60,"velocity":101,"programNumber":75},{"time":306050.85550000065,"duration":250,"noteNumber":58,"velocity":101,"programNumber":75},{"time":306300.85550000065,"duration":250,"noteNumber":60,"velocity":101,"programNumber":75},{"time":306550.85550000065,"duration":250,"noteNumber":58,"velocity":101,"programNumber":75},{"time":306800.85550000065,"duration":166.66666666668607,"noteNumber":60,"velocity":101,"programNumber":75},{"time":306967.52216666733,"duration":166.66666666668607,"noteNumber":58,"velocity":101,"programNumber":75},{"time":307134.188833334,"duration":166.66666666668607,"noteNumber":55,"velocity":101,"programNumber":75},{"time":307300.8555000007,"duration":250,"noteNumber":58,"velocity":101,"programNumber":75},{"time":307550.8555000007,"duration":250,"noteNumber":50,"velocity":101,"programNumber":75},{"time":307800.8555000007,"duration":250,"noteNumber":53,"velocity":101,"programNumber":75},{"time":308050.8555000007,"duration":250,"noteNumber":50,"velocity":101,"programNumber":75},{"time":308300.8555000007,"duration":250,"noteNumber":53,"velocity":101,"programNumber":75},{"time":308550.8555000007,"duration":250,"noteNumber":55,"velocity":101,"programNumber":75},{"time":308800.8555000007,"duration":250,"noteNumber":58,"velocity":101,"programNumber":75},{"time":309050.8555000007,"duration":250,"noteNumber":60,"velocity":101,"programNumber":75},{"time":309300.8555000007,"duration":1500,"noteNumber":50,"velocity":101,"programNumber":75},{"time":310800.8555000007,"duration":250,"noteNumber":48,"velocity":102,"programNumber":75},{"time":311050.8555000007,"duration":250,"noteNumber":50,"velocity":102,"programNumber":75},{"time":311300.8555000007,"duration":250,"noteNumber":53,"velocity":102,"programNumber":75},{"time":311550.8555000007,"duration":250,"noteNumber":55,"velocity":102,"programNumber":75},{"time":311800.8555000007,"duration":250,"noteNumber":57,"velocity":102,"programNumber":75},{"time":312050.8555000007,"duration":250,"noteNumber":60,"velocity":102,"programNumber":75},{"time":312300.8555000007,"duration":250,"noteNumber":60,"velocity":102,"programNumber":75},{"time":312550.8555000007,"duration":250,"noteNumber":60,"velocity":102,"programNumber":75},{"time":312800.8555000007,"duration":250,"noteNumber":60,"velocity":102,"programNumber":75},{"time":313050.8555000007,"duration":250,"noteNumber":62,"velocity":102,"programNumber":75},{"time":313300.8555000007,"duration":250,"noteNumber":62,"velocity":102,"programNumber":75},{"time":313550.8555000007,"duration":250,"noteNumber":62,"velocity":102,"programNumber":75},{"time":313800.8555000007,"duration":250,"noteNumber":65,"velocity":102,"programNumber":75},{"time":314050.8555000007,"duration":500,"noteNumber":67,"velocity":102,"programNumber":75},{"time":314550.8555000007,"duration":250,"noteNumber":67,"velocity":102,"programNumber":75},{"time":314800.8555000007,"duration":250,"noteNumber":69,"velocity":102,"programNumber":75},{"time":315050.8555000007,"duration":250,"noteNumber":70,"velocity":102,"programNumber":75},{"time":315300.8555000007,"duration":250,"noteNumber":72,"velocity":102,"programNumber":75},{"time":315550.8555000007,"duration":250,"noteNumber":74,"velocity":102,"programNumber":75},{"time":315800.8555000007,"duration":250,"noteNumber":77,"velocity":102,"programNumber":75},{"time":316050.8555000007,"duration":250,"noteNumber":72,"velocity":102,"programNumber":75},{"time":316300.8555000007,"duration":250,"noteNumber":74,"velocity":102,"programNumber":75},{"time":316550.8555000007,"duration":250,"noteNumber":77,"velocity":102,"programNumber":75},{"time":316800.8555000007,"duration":250,"noteNumber":72,"velocity":102,"programNumber":75},{"time":317050.8555000007,"duration":250,"noteNumber":74,"velocity":102,"programNumber":75},{"time":317300.8555000007,"duration":250,"noteNumber":77,"velocity":102,"programNumber":75},{"time":317550.8555000007,"duration":1250,"noteNumber":74,"velocity":102,"programNumber":75},{"time":319675.8555000007,"duration":375,"noteNumber":74,"velocity":121,"programNumber":75},{"time":320050.8555000007,"duration":250,"noteNumber":72,"velocity":121,"programNumber":75},{"time":320300.8555000007,"duration":250,"noteNumber":70,"velocity":121,"programNumber":75},{"time":320550.8555000007,"duration":1250,"noteNumber":72,"velocity":121,"programNumber":75},{"time":322550.8555000007,"duration":250,"noteNumber":70,"velocity":121,"programNumber":75},{"time":322800.8555000007,"duration":500,"noteNumber":72,"velocity":121,"programNumber":75},{"time":323300.8555000007,"duration":250,"noteNumber":70,"velocity":121,"programNumber":75},{"time":323550.8555000007,"duration":750,"noteNumber":74,"velocity":121,"programNumber":75},{"time":324300.8555000007,"duration":250,"noteNumber":72,"velocity":121,"programNumber":75},{"time":324550.8555000007,"duration":250,"noteNumber":70,"velocity":121,"programNumber":75},{"time":324800.8555000007,"duration":1000,"noteNumber":67,"velocity":121,"programNumber":75},{"time":327300.8555000007,"duration":250,"noteNumber":70,"velocity":121,"programNumber":75},{"time":327550.8555000007,"duration":250,"noteNumber":70,"velocity":121,"programNumber":75},{"time":327800.8555000007,"duration":250,"noteNumber":70,"velocity":121,"programNumber":75},{"time":328050.8555000007,"duration":250,"noteNumber":72,"velocity":121,"programNumber":75},{"time":328300.8555000007,"duration":250,"noteNumber":70,"velocity":121,"programNumber":75},{"time":328550.8555000007,"duration":250,"noteNumber":69,"velocity":121,"programNumber":75},{"time":328800.8555000007,"duration":500,"noteNumber":67,"velocity":121,"programNumber":75},{"time":329550.8555000007,"duration":250,"noteNumber":67,"velocity":121,"programNumber":75},{"time":329800.8555000007,"duration":500,"noteNumber":67,"velocity":121,"programNumber":75},{"time":330300.8555000007,"duration":250,"noteNumber":62,"velocity":121,"programNumber":75},{"time":330550.8555000007,"duration":750,"noteNumber":65,"velocity":121,"programNumber":75},{"time":335300.8555000007,"duration":250,"noteNumber":74,"velocity":121,"programNumber":75},{"time":335550.8555000007,"duration":250,"noteNumber":74,"velocity":121,"programNumber":75},{"time":335800.8555000007,"duration":500,"noteNumber":72,"velocity":121,"programNumber":75},{"time":336300.8555000007,"duration":500,"noteNumber":70,"velocity":121,"programNumber":75},{"time":336800.8555000007,"duration":250,"noteNumber":72,"velocity":121,"programNumber":75},{"time":337050.8555000007,"duration":250,"noteNumber":70,"velocity":121,"programNumber":75},{"time":338300.8555000007,"duration":250,"noteNumber":72,"velocity":121,"programNumber":75},{"time":338550.8555000007,"duration":250,"noteNumber":70,"velocity":121,"programNumber":75},{"time":338800.8555000007,"duration":500,"noteNumber":72,"velocity":121,"programNumber":75},{"time":339300.8555000007,"duration":250,"noteNumber":70,"velocity":121,"programNumber":75},{"time":339550.8555000007,"duration":500,"noteNumber":74,"velocity":121,"programNumber":75},{"time":340050.8555000007,"duration":500,"noteNumber":72,"velocity":121,"programNumber":75},{"time":340550.8555000007,"duration":250,"noteNumber":70,"velocity":121,"programNumber":75},{"time":340800.8555000007,"duration":500,"noteNumber":67,"velocity":121,"programNumber":75},{"time":342550.8555000007,"duration":250,"noteNumber":70,"velocity":121,"programNumber":75},{"time":342800.8555000007,"duration":250,"noteNumber":70,"velocity":121,"programNumber":75},{"time":343050.8555000007,"duration":500,"noteNumber":70,"velocity":121,"programNumber":75},{"time":343550.8555000007,"duration":250,"noteNumber":70,"velocity":121,"programNumber":75},{"time":343800.8555000007,"duration":500,"noteNumber":72,"velocity":121,"programNumber":75},{"time":344550.8555000007,"duration":250,"noteNumber":70,"velocity":121,"programNumber":75},{"time":344800.8555000007,"duration":250,"noteNumber":69,"velocity":121,"programNumber":75},{"time":345050.8555000007,"duration":500,"noteNumber":67,"velocity":121,"programNumber":75},{"time":345550.8555000007,"duration":500,"noteNumber":67,"velocity":121,"programNumber":75},{"time":346050.8555000007,"duration":500,"noteNumber":62,"velocity":121,"programNumber":75},{"time":346800.8555000007,"duration":497.39583333331393,"noteNumber":65,"velocity":121,"programNumber":75},{"time":354800.8555000007,"duration":250,"noteNumber":50,"velocity":100,"programNumber":75},{"time":355050.8555000007,"duration":250,"noteNumber":43,"velocity":100,"programNumber":75},{"time":355300.8555000007,"duration":250,"noteNumber":46,"velocity":100,"programNumber":75},{"time":355550.8555000007,"duration":250,"noteNumber":48,"velocity":100,"programNumber":75},{"time":355800.8555000007,"duration":500,"noteNumber":49,"velocity":100,"programNumber":75},{"time":356300.8555000007,"duration":250,"noteNumber":48,"velocity":100,"programNumber":75},{"time":358800.8555000007,"duration":250,"noteNumber":50,"velocity":100,"programNumber":75},{"time":359050.8555000007,"duration":250,"noteNumber":43,"velocity":100,"programNumber":75},{"time":359300.8555000007,"duration":250,"noteNumber":46,"velocity":100,"programNumber":75},{"time":359550.8555000007,"duration":250,"noteNumber":48,"velocity":100,"programNumber":75},{"time":359800.8555000007,"duration":500,"noteNumber":49,"velocity":100,"programNumber":75},{"time":360300.8555000007,"duration":250,"noteNumber":48,"velocity":100,"programNumber":75},{"time":362800.8555000007,"duration":250,"noteNumber":50,"velocity":100,"programNumber":75},{"time":363050.8555000007,"duration":250,"noteNumber":43,"velocity":100,"programNumber":75},{"time":363300.8555000007,"duration":250,"noteNumber":46,"velocity":100,"programNumber":75},{"time":363550.8555000007,"duration":250,"noteNumber":48,"velocity":100,"programNumber":75},{"time":363800.8555000007,"duration":500,"noteNumber":49,"velocity":100,"programNumber":75},{"time":364300.8555000007,"duration":250,"noteNumber":48,"velocity":100,"programNumber":75},{"time":364800.8555000007,"duration":750,"noteNumber":49,"velocity":100,"programNumber":75},{"time":365550.8555000007,"duration":250,"noteNumber":49,"velocity":100,"programNumber":75},{"time":365800.8555000007,"duration":1000,"noteNumber":49,"velocity":100,"programNumber":75},{"time":367050.8555000007,"duration":250,"noteNumber":51,"velocity":100,"programNumber":75},{"time":367300.8555000007,"duration":250,"noteNumber":51,"velocity":100,"programNumber":75},{"time":367800.8555000007,"duration":1000,"noteNumber":51,"velocity":100,"programNumber":75},{"time":368800.8555000007,"duration":750,"noteNumber":53,"velocity":100,"programNumber":75},{"time":369550.8555000007,"duration":250,"noteNumber":53,"velocity":100,"programNumber":75},{"time":369800.8555000007,"duration":500,"noteNumber":53,"velocity":100,"programNumber":75},{"time":370300.8555000007,"duration":250,"noteNumber":51,"velocity":100,"programNumber":75},{"time":370550.8555000007,"duration":250,"noteNumber":53,"velocity":100,"programNumber":75},{"time":370800.8555000007,"duration":250,"noteNumber":51,"velocity":100,"programNumber":75},{"time":371050.8555000007,"duration":250,"noteNumber":53,"velocity":100,"programNumber":75},{"time":371300.8555000007,"duration":250,"noteNumber":54,"velocity":100,"programNumber":75},{"time":371800.8555000007,"duration":1000,"noteNumber":49,"velocity":100,"programNumber":75},{"time":373050.8555000007,"duration":250,"noteNumber":51,"velocity":100,"programNumber":75},{"time":373300.8555000007,"duration":250,"noteNumber":51,"velocity":100,"programNumber":75},{"time":373550.8555000007,"duration":250,"noteNumber":51,"velocity":100,"programNumber":75},{"time":373800.8555000007,"duration":250,"noteNumber":51,"velocity":100,"programNumber":75},{"time":374050.8555000007,"duration":250,"noteNumber":49,"velocity":100,"programNumber":75},{"time":374300.8555000007,"duration":250,"noteNumber":54,"velocity":100,"programNumber":75},{"time":374800.8555000007,"duration":250,"noteNumber":54,"velocity":100,"programNumber":75},{"time":375050.8555000007,"duration":250,"noteNumber":52,"velocity":100,"programNumber":75},{"time":375300.8555000007,"duration":250,"noteNumber":47,"velocity":100,"programNumber":75},{"time":375800.8555000007,"duration":1000,"noteNumber":50,"velocity":100,"programNumber":75},{"time":376800.8555000007,"duration":250,"noteNumber":50,"velocity":100,"programNumber":75},{"time":377050.8555000007,"duration":250,"noteNumber":43,"velocity":100,"programNumber":75},{"time":377300.8555000007,"duration":250,"noteNumber":46,"velocity":100,"programNumber":75},{"time":377550.8555000007,"duration":250,"noteNumber":48,"velocity":100,"programNumber":75},{"time":377800.8555000007,"duration":500,"noteNumber":49,"velocity":100,"programNumber":75},{"time":378300.8555000007,"duration":250,"noteNumber":48,"velocity":100,"programNumber":75},{"time":378800.8555000007,"duration":750,"noteNumber":49,"velocity":100,"programNumber":75},{"time":379550.8555000007,"duration":250,"noteNumber":49,"velocity":100,"programNumber":75},{"time":379800.8555000007,"duration":1000,"noteNumber":49,"velocity":100,"programNumber":75},{"time":381050.8555000007,"duration":250,"noteNumber":51,"velocity":100,"programNumber":75},{"time":381300.8555000007,"duration":250,"noteNumber":51,"velocity":100,"programNumber":75},{"time":381800.8555000007,"duration":1000,"noteNumber":51,"velocity":100,"programNumber":75},{"time":382800.8555000007,"duration":750,"noteNumber":53,"velocity":100,"programNumber":75},{"time":383550.8555000007,"duration":250,"noteNumber":53,"velocity":100,"programNumber":75},{"time":383800.8555000007,"duration":500,"noteNumber":53,"velocity":100,"programNumber":75},{"time":384300.8555000007,"duration":250,"noteNumber":51,"velocity":100,"programNumber":75},{"time":384550.8555000007,"duration":250,"noteNumber":53,"velocity":100,"programNumber":75},{"time":384800.8555000007,"duration":250,"noteNumber":51,"velocity":100,"programNumber":75},{"time":385050.8555000007,"duration":250,"noteNumber":53,"velocity":100,"programNumber":75},{"time":385300.8555000007,"duration":250,"noteNumber":54,"velocity":100,"programNumber":75},{"time":385800.8555000007,"duration":1000,"noteNumber":49,"velocity":100,"programNumber":75},{"time":387050.8555000007,"duration":250,"noteNumber":51,"velocity":100,"programNumber":75},{"time":387300.8555000007,"duration":250,"noteNumber":51,"velocity":100,"programNumber":75},{"time":387550.8555000007,"duration":250,"noteNumber":51,"velocity":100,"programNumber":75},{"time":387800.8555000007,"duration":250,"noteNumber":51,"velocity":100,"programNumber":75},{"time":388050.8555000007,"duration":250,"noteNumber":49,"velocity":100,"programNumber":75},{"time":388300.8555000007,"duration":250,"noteNumber":54,"velocity":100,"programNumber":75},{"time":388800.8555000007,"duration":250,"noteNumber":54,"velocity":100,"programNumber":75},{"time":389050.8555000007,"duration":250,"noteNumber":52,"velocity":100,"programNumber":75},{"time":389300.8555000007,"duration":250,"noteNumber":47,"velocity":100,"programNumber":75},{"time":389800.8555000007,"duration":1000,"noteNumber":50,"velocity":100,"programNumber":75},{"time":390800.8555000007,"duration":250,"noteNumber":50,"velocity":100,"programNumber":75},{"time":391050.8555000007,"duration":250,"noteNumber":43,"velocity":100,"programNumber":75},{"time":391300.8555000007,"duration":250,"noteNumber":46,"velocity":100,"programNumber":75},{"time":391550.8555000007,"duration":250,"noteNumber":48,"velocity":100,"programNumber":75},{"time":391800.8555000007,"duration":500,"noteNumber":49,"velocity":100,"programNumber":75},{"time":392300.8555000007,"duration":250,"noteNumber":48,"velocity":100,"programNumber":75},{"time":392800.8555000007,"duration":750,"noteNumber":49,"velocity":100,"programNumber":75},{"time":393550.8555000007,"duration":250,"noteNumber":49,"velocity":100,"programNumber":75},{"time":393800.8555000007,"duration":1000,"noteNumber":49,"velocity":100,"programNumber":75},{"time":395050.8555000007,"duration":250,"noteNumber":51,"velocity":100,"programNumber":75},{"time":395300.8555000007,"duration":250,"noteNumber":51,"velocity":100,"programNumber":75},{"time":395800.8555000007,"duration":1000,"noteNumber":51,"velocity":100,"programNumber":75},{"time":396800.8555000007,"duration":750,"noteNumber":53,"velocity":100,"programNumber":75},{"time":397550.8555000007,"duration":250,"noteNumber":53,"velocity":100,"programNumber":75},{"time":397800.8555000007,"duration":500,"noteNumber":53,"velocity":100,"programNumber":75},{"time":398300.8555000007,"duration":250,"noteNumber":51,"velocity":100,"programNumber":75},{"time":398550.8555000007,"duration":250,"noteNumber":53,"velocity":100,"programNumber":75},{"time":398800.8555000007,"duration":250,"noteNumber":51,"velocity":100,"programNumber":75},{"time":399050.8555000007,"duration":250,"noteNumber":53,"velocity":100,"programNumber":75},{"time":399300.8555000007,"duration":250,"noteNumber":54,"velocity":100,"programNumber":75},{"time":399800.8555000007,"duration":1000,"noteNumber":49,"velocity":100,"programNumber":75},{"time":401050.8555000007,"duration":250,"noteNumber":51,"velocity":100,"programNumber":75},{"time":401300.8555000007,"duration":250,"noteNumber":51,"velocity":100,"programNumber":75},{"time":401550.8555000007,"duration":250,"noteNumber":51,"velocity":100,"programNumber":75},{"time":401800.8555000007,"duration":250,"noteNumber":51,"velocity":100,"programNumber":75},{"time":402050.8555000007,"duration":250,"noteNumber":49,"velocity":100,"programNumber":75},{"time":402300.8555000007,"duration":250,"noteNumber":54,"velocity":100,"programNumber":75},{"time":402800.8555000007,"duration":250,"noteNumber":54,"velocity":100,"programNumber":75},{"time":403050.8555000007,"duration":250,"noteNumber":52,"velocity":100,"programNumber":75},{"time":403300.8555000007,"duration":500,"noteNumber":47,"velocity":100,"programNumber":75},{"time":403800.8555000007,"duration":1000,"noteNumber":50,"velocity":100,"programNumber":75},{"time":404800.8555000007,"duration":250,"noteNumber":50,"velocity":100,"programNumber":75},{"time":405050.8555000007,"duration":250,"noteNumber":43,"velocity":100,"programNumber":75},{"time":405300.8555000007,"duration":250,"noteNumber":46,"velocity":100,"programNumber":75},{"time":405550.8555000007,"duration":250,"noteNumber":48,"velocity":100,"programNumber":75},{"time":405800.8555000007,"duration":500,"noteNumber":49,"velocity":100,"programNumber":75},{"time":406300.8555000007,"duration":250,"noteNumber":48,"velocity":100,"programNumber":75},{"time":406800.8555000007,"duration":750,"noteNumber":49,"velocity":100,"programNumber":75},{"time":407550.8555000007,"duration":250,"noteNumber":49,"velocity":100,"programNumber":75},{"time":407800.8555000007,"duration":1000,"noteNumber":49,"velocity":100,"programNumber":75},{"time":409050.8555000007,"duration":250,"noteNumber":51,"velocity":100,"programNumber":75},{"time":409300.8555000007,"duration":250,"noteNumber":51,"velocity":100,"programNumber":75},{"time":409800.8555000007,"duration":1000,"noteNumber":51,"velocity":100,"programNumber":75},{"time":410800.8555000007,"duration":750,"noteNumber":53,"velocity":100,"programNumber":75},{"time":411550.8555000007,"duration":250,"noteNumber":53,"velocity":100,"programNumber":75},{"time":411800.8555000007,"duration":500,"noteNumber":53,"velocity":100,"programNumber":75},{"time":412300.8555000007,"duration":250,"noteNumber":51,"velocity":100,"programNumber":75},{"time":412550.8555000007,"duration":250,"noteNumber":53,"velocity":100,"programNumber":75},{"time":412800.8555000007,"duration":250,"noteNumber":51,"velocity":100,"programNumber":75},{"time":413050.8555000007,"duration":250,"noteNumber":53,"velocity":100,"programNumber":75},{"time":413300.8555000007,"duration":250,"noteNumber":54,"velocity":100,"programNumber":75},{"time":413800.8555000007,"duration":1000,"noteNumber":49,"velocity":100,"programNumber":75},{"time":415050.8555000007,"duration":250,"noteNumber":51,"velocity":100,"programNumber":75},{"time":415300.8555000007,"duration":250,"noteNumber":51,"velocity":100,"programNumber":75},{"time":415550.8555000007,"duration":250,"noteNumber":51,"velocity":100,"programNumber":75},{"time":415800.8555000007,"duration":250,"noteNumber":51,"velocity":100,"programNumber":75},{"time":416050.8555000007,"duration":250,"noteNumber":49,"velocity":100,"programNumber":75},{"time":416300.8555000007,"duration":250,"noteNumber":54,"velocity":100,"programNumber":75},{"time":416800.8555000007,"duration":250,"noteNumber":54,"velocity":100,"programNumber":75},{"time":417050.8555000007,"duration":250,"noteNumber":52,"velocity":100,"programNumber":75},{"time":417300.8555000007,"duration":500,"noteNumber":47,"velocity":100,"programNumber":75},{"time":417800.8555000007,"duration":1000,"noteNumber":50,"velocity":100,"programNumber":75},{"time":418800.8555000007,"duration":250,"noteNumber":50,"velocity":100,"programNumber":75},{"time":419050.8555000007,"duration":250,"noteNumber":43,"velocity":100,"programNumber":75},{"time":419300.8555000007,"duration":250,"noteNumber":46,"velocity":100,"programNumber":75},{"time":419550.8555000007,"duration":250,"noteNumber":48,"velocity":100,"programNumber":75},{"time":419800.8555000007,"duration":500,"noteNumber":49,"velocity":100,"programNumber":75},{"time":420300.8555000007,"duration":250,"noteNumber":48,"velocity":100,"programNumber":75},{"time":422800.8555000007,"duration":250,"noteNumber":50,"velocity":100,"programNumber":75},{"time":423050.8555000007,"duration":250,"noteNumber":43,"velocity":100,"programNumber":75},{"time":423300.8555000007,"duration":250,"noteNumber":46,"velocity":100,"programNumber":75},{"time":423550.8555000007,"duration":250,"noteNumber":48,"velocity":100,"programNumber":75},{"time":423800.8555000007,"duration":500,"noteNumber":49,"velocity":100,"programNumber":75},{"time":424300.8555000007,"duration":250,"noteNumber":48,"velocity":100,"programNumber":75},{"time":426800.8555000007,"duration":250,"noteNumber":50,"velocity":100,"programNumber":75},{"time":427050.8555000007,"duration":250,"noteNumber":43,"velocity":100,"programNumber":75},{"time":427300.8555000007,"duration":250,"noteNumber":46,"velocity":100,"programNumber":75},{"time":427550.8555000007,"duration":250,"noteNumber":48,"velocity":100,"programNumber":75},{"time":427800.8555000007,"duration":500,"noteNumber":49,"velocity":100,"programNumber":75},{"time":428300.8555000007,"duration":250,"noteNumber":48,"velocity":100,"programNumber":75},{"time":428800.8555000007,"duration":3000,"noteNumber":56,"velocity":120,"programNumber":75},{"time":428800.8555000007,"duration":3000,"noteNumber":49,"velocity":120,"programNumber":75},{"time":431800.8555000007,"duration":2979.166666666686,"noteNumber":58,"velocity":120,"programNumber":75},{"time":431800.8555000007,"duration":2979.166666666686,"noteNumber":51,"velocity":120,"programNumber":75},{"time":438800.8555000007,"duration":500.0000000000582,"noteNumber":58,"velocity":110,"programNumber":75},{"time":438800.8555000007,"duration":500.0000000000582,"noteNumber":51,"velocity":110,"programNumber":75}]]}