{"tracks":[[{"time":5142.852,"duration":214.28549999999996,"noteNumber":66,"velocity":100,"programNumber":5},{"time":5571.423,"duration":214.28549999999996,"noteNumber":68,"velocity":100,"programNumber":5},{"time":5785.7085,"duration":214.28549999999996,"noteNumber":64,"velocity":100,"programNumber":5},{"time":6214.2795,"duration":428.5709999999999,"noteNumber":68,"velocity":100,"programNumber":5},{"time":6857.1359999999995,"duration":214.28549999999996,"noteNumber":66,"velocity":100,"programNumber":5},{"time":7285.706999999999,"duration":214.28549999999996,"noteNumber":64,"velocity":100,"programNumber":5},{"time":7499.992499999999,"duration":428.5709999999999,"noteNumber":61,"velocity":100,"programNumber":5},{"time":8357.1345,"duration":214.28549999999996,"noteNumber":61,"velocity":100,"programNumber":5},{"time":8571.42,"duration":214.28549999999996,"noteNumber":69,"velocity":100,"programNumber":5},{"time":8785.7055,"duration":428.5709999999999,"noteNumber":69,"velocity":100,"programNumber":5},{"time":9428.562,"duration":642.8564999999999,"noteNumber":69,"velocity":100,"programNumber":5},{"time":10285.704,"duration":214.28549999999996,"noteNumber":69,"velocity":100,"programNumber":5},{"time":10714.275,"duration":214.28549999999996,"noteNumber":68,"velocity":100,"programNumber":5},{"time":10928.5605,"duration":428.5709999999999,"noteNumber":66,"velocity":100,"programNumber":5},{"time":11357.1315,"duration":428.5709999999999,"noteNumber":64,"velocity":100,"programNumber":5},{"time":11999.988,"duration":428.5709999999999,"noteNumber":66,"velocity":100,"programNumber":5},{"time":12428.559,"duration":214.28549999999996,"noteNumber":68,"velocity":100,"programNumber":5},{"time":12642.8445,"duration":642.8564999999999,"noteNumber":64,"velocity":100,"programNumber":5},{"time":13285.701,"duration":214.28549999999996,"noteNumber":68,"velocity":100,"programNumber":5},{"time":13714.271999999999,"duration":214.28549999999996,"noteNumber":66,"velocity":100,"programNumber":5},{"time":14142.842999999999,"duration":214.28549999999996,"noteNumber":64,"velocity":100,"programNumber":5},{"time":14357.128499999999,"duration":642.8564999999999,"noteNumber":61,"velocity":100,"programNumber":5},{"time":15214.270499999999,"duration":214.28549999999996,"noteNumber":61,"velocity":100,"programNumber":5},{"time":15428.555999999999,"duration":214.28549999999996,"noteNumber":64,"velocity":100,"programNumber":5},{"time":15642.841499999999,"duration":428.5709999999999,"noteNumber":61,"velocity":100,"programNumber":5},{"time":16071.412499999999,"duration":428.5709999999999,"noteNumber":64,"velocity":100,"programNumber":5},{"time":16714.269,"duration":214.28550000000178,"noteNumber":61,"velocity":100,"programNumber":5},{"time":17142.840000000004,"duration":214.28550000000178,"noteNumber":64,"velocity":100,"programNumber":5},{"time":17357.125500000006,"duration":428.5709999999999,"noteNumber":61,"velocity":100,"programNumber":5},{"time":17785.696500000005,"duration":428.5709999999999,"noteNumber":64,"velocity":100,"programNumber":5},{"time":18857.124000000007,"duration":214.28550000000178,"noteNumber":66,"velocity":100,"programNumber":5},{"time":19285.69500000001,"duration":214.28550000000178,"noteNumber":66,"velocity":100,"programNumber":5},{"time":19499.980500000012,"duration":214.28550000000178,"noteNumber":68,"velocity":100,"programNumber":5},{"time":19714.266000000014,"duration":642.8565000000017,"noteNumber":64,"velocity":100,"programNumber":5},{"time":20571.408000000018,"duration":428.5709999999999,"noteNumber":66,"velocity":100,"programNumber":5},{"time":20999.979000000018,"duration":214.28550000000178,"noteNumber":64,"velocity":100,"programNumber":5},{"time":21214.26450000002,"duration":642.8565000000017,"noteNumber":61,"velocity":100,"programNumber":5},{"time":22071.406500000023,"duration":214.28550000000178,"noteNumber":61,"velocity":100,"programNumber":5},{"time":22285.692000000025,"duration":214.28550000000178,"noteNumber":69,"velocity":100,"programNumber":5},{"time":22499.977500000026,"duration":428.5709999999999,"noteNumber":69,"velocity":100,"programNumber":5},{"time":22928.548500000026,"duration":642.8565000000017,"noteNumber":69,"velocity":100,"programNumber":5},{"time":23999.976000000028,"duration":214.28550000000178,"noteNumber":69,"velocity":100,"programNumber":5},{"time":24428.54700000003,"duration":214.28550000000178,"noteNumber":68,"velocity":100,"programNumber":5},{"time":24642.832500000033,"duration":428.5709999999999,"noteNumber":66,"velocity":100,"programNumber":5},{"time":25071.403500000033,"duration":428.5709999999999,"noteNumber":64,"velocity":100,"programNumber":5},{"time":25714.260000000035,"duration":428.5709999999999,"noteNumber":66,"velocity":100,"programNumber":5},{"time":26142.831000000035,"duration":214.28550000000178,"noteNumber":68,"velocity":100,"programNumber":5},{"time":26357.116500000036,"duration":642.8565000000017,"noteNumber":64,"velocity":100,"programNumber":5},{"time":26999.973000000038,"duration":214.28550000000178,"noteNumber":68,"velocity":100,"programNumber":5},{"time":27428.54400000004,"duration":214.28550000000178,"noteNumber":66,"velocity":100,"programNumber":5},{"time":27857.115000000045,"duration":214.28550000000178,"noteNumber":64,"velocity":100,"programNumber":5},{"time":28071.400500000047,"duration":642.8565000000017,"noteNumber":61,"velocity":100,"programNumber":5},{"time":29142.82800000005,"duration":214.28550000000178,"noteNumber":64,"velocity":100,"programNumber":5},{"time":29571.399000000052,"duration":214.28550000000178,"noteNumber":61,"velocity":100,"programNumber":5},{"time":29785.684500000054,"duration":214.28550000000178,"noteNumber":64,"velocity":100,"programNumber":5},{"time":30214.255500000058,"duration":428.5709999999999,"noteNumber":61,"velocity":100,"programNumber":5},{"time":30857.11200000006,"duration":428.5709999999999,"noteNumber":66,"velocity":100,"programNumber":5},{"time":31285.68300000006,"duration":312.5,"noteNumber":66,"velocity":100,"programNumber":5},{"time":33316.93300000006,"duration":156.25,"noteNumber":40,"velocity":100,"programNumber":5},{"time":31910.68300000006,"duration":1562.5000000000036,"noteNumber":66,"velocity":100,"programNumber":5},{"time":33629.43300000006,"duration":156.25,"noteNumber":40,"velocity":100,"programNumber":5},{"time":33785.68300000006,"duration":156.25,"noteNumber":37,"velocity":100,"programNumber":5},{"time":34098.18300000006,"duration":156.25,"noteNumber":40,"velocity":100,"programNumber":5},{"time":34410.68300000006,"duration":156.25,"noteNumber":37,"velocity":100,"programNumber":5},{"time":35816.93300000006,"duration":156.25,"noteNumber":40,"velocity":100,"programNumber":5},{"time":36129.43300000006,"duration":156.25,"noteNumber":40,"velocity":100,"programNumber":5},{"time":36285.68300000006,"duration":156.25,"noteNumber":37,"velocity":100,"programNumber":5},{"time":36598.18300000006,"duration":156.25,"noteNumber":40,"velocity":100,"programNumber":5},{"time":36910.68300000006,"duration":156.25,"noteNumber":37,"velocity":100,"programNumber":5},{"time":37066.93300000006,"duration":1250,"noteNumber":28,"velocity":100,"programNumber":5},{"time":38316.93300000006,"duration":156.25,"noteNumber":40,"velocity":100,"programNumber":5},{"time":38629.43300000006,"duration":156.25,"noteNumber":40,"velocity":100,"programNumber":5},{"time":38785.68300000006,"duration":156.25,"noteNumber":37,"velocity":100,"programNumber":5},{"time":39098.18300000006,"duration":156.25,"noteNumber":40,"velocity":100,"programNumber":5},{"time":39410.68300000006,"duration":156.25,"noteNumber":37,"velocity":100,"programNumber":5},{"time":40816.93300000006,"duration":156.25,"noteNumber":40,"velocity":100,"programNumber":5},{"time":41129.43300000006,"duration":156.25,"noteNumber":40,"velocity":100,"programNumber":5},{"time":41285.68300000006,"duration":156.25,"noteNumber":37,"velocity":100,"programNumber":5},{"time":41598.18300000006,"duration":156.25,"noteNumber":40,"velocity":100,"programNumber":5},{"time":41910.68300000006,"duration":156.25,"noteNumber":37,"velocity":100,"programNumber":5},{"time":42066.93300000006,"duration":1250,"noteNumber":28,"velocity":100,"programNumber":5},{"time":43316.93300000006,"duration":156.25,"noteNumber":40,"velocity":100,"programNumber":5},{"time":43629.43300000006,"duration":156.25,"noteNumber":40,"velocity":100,"programNumber":5},{"time":43785.68300000006,"duration":156.25,"noteNumber":37,"velocity":100,"programNumber":5},{"time":44098.18300000006,"duration":156.25,"noteNumber":40,"velocity":100,"programNumber":5},{"time":44410.68300000006,"duration":156.25,"noteNumber":37,"velocity":100,"programNumber":5},{"time":45816.93300000006,"duration":156.25,"noteNumber":40,"velocity":100,"programNumber":5},{"time":46129.43300000006,"duration":156.25,"noteNumber":40,"velocity":100,"programNumber":5},{"time":46285.68300000006,"duration":156.25,"noteNumber":37,"velocity":100,"programNumber":5},{"time":46598.18300000006,"duration":156.25,"noteNumber":40,"velocity":100,"programNumber":5},{"time":46910.68300000006,"duration":156.25,"noteNumber":37,"velocity":100,"programNumber":5},{"time":47066.93300000006,"duration":1250,"noteNumber":28,"velocity":100,"programNumber":5},{"time":48316.93300000006,"duration":156.25,"noteNumber":40,"velocity":100,"programNumber":5},{"time":48629.43300000006,"duration":156.25,"noteNumber":40,"velocity":100,"programNumber":5},{"time":48785.68300000006,"duration":156.25,"noteNumber":37,"velocity":100,"programNumber":5},{"time":49098.18300000006,"duration":156.25,"noteNumber":40,"velocity":100,"programNumber":5},{"time":49410.68300000006,"duration":156.25,"noteNumber":37,"velocity":100,"programNumber":5},{"time":50816.93300000006,"duration":156.25,"noteNumber":40,"velocity":100,"programNumber":5},{"time":51129.43300000006,"duration":156.25,"noteNumber":40,"velocity":100,"programNumber":5},{"time":51285.68300000006,"duration":156.25,"noteNumber":37,"velocity":100,"programNumber":5},{"time":51598.18300000006,"duration":156.25,"noteNumber":40,"velocity":100,"programNumber":5},{"time":51910.68300000006,"duration":156.25,"noteNumber":37,"velocity":100,"programNumber":5},{"time":52066.93300000006,"duration":1250,"noteNumber":28,"velocity":100,"programNumber":5},{"time":53316.93300000006,"duration":156.25,"noteNumber":40,"velocity":100,"programNumber":5},{"time":55816.93300000006,"duration":625,"noteNumber":28,"velocity":100,"programNumber":5},{"time":58004.43300000006,"duration":234.375,"noteNumber":47,"velocity":127,"programNumber":5},{"time":58316.93300000006,"duration":312.5,"noteNumber":52,"velocity":127,"programNumber":5},{"time":60816.93300000006,"duration":625,"noteNumber":28,"velocity":100,"programNumber":5},{"time":63004.43300000006,"duration":234.375,"noteNumber":47,"velocity":127,"programNumber":5},{"time":63316.93300000006,"duration":312.5,"noteNumber":52,"velocity":127,"programNumber":5},{"time":65816.93300000006,"duration":625,"noteNumber":28,"velocity":100,"programNumber":5},{"time":68004.43300000006,"duration":234.375,"noteNumber":47,"velocity":127,"programNumber":5},{"time":68316.93300000006,"duration":312.5,"noteNumber":52,"velocity":127,"programNumber":5},{"time":70816.93300000006,"duration":625,"noteNumber":28,"velocity":100,"programNumber":5},{"time":72379.43300000006,"duration":156.25,"noteNumber":35,"velocity":100,"programNumber":5},{"time":72535.68300000006,"duration":156.25,"noteNumber":35,"velocity":100,"programNumber":5},{"time":72691.93300000006,"duration":156.25,"noteNumber":35,"velocity":100,"programNumber":5},{"time":72848.18300000006,"duration":156.25,"noteNumber":35,"velocity":100,"programNumber":5},{"time":73004.43300000006,"duration":156.25,"noteNumber":35,"velocity":100,"programNumber":5},{"time":73160.68300000006,"duration":156.25,"noteNumber":35,"velocity":100,"programNumber":5},{"time":73473.18300000006,"duration":156.25,"noteNumber":28,"velocity":100,"programNumber":5},{"time":73473.18300000006,"duration":312.5,"noteNumber":66,"velocity":100,"programNumber":5},{"time":73785.68300000006,"duration":156.25,"noteNumber":28,"velocity":100,"programNumber":5},{"time":73785.68300000006,"duration":156.25,"noteNumber":68,"velocity":100,"programNumber":5},{"time":74098.18300000006,"duration":156.25,"noteNumber":28,"velocity":100,"programNumber":5},{"time":73941.93300000006,"duration":468.75,"noteNumber":64,"velocity":100,"programNumber":5},{"time":74410.68300000006,"duration":156.25,"noteNumber":28,"velocity":100,"programNumber":5},{"time":74410.68300000006,"duration":156.25,"noteNumber":68,"velocity":100,"programNumber":5},{"time":74723.18300000006,"duration":156.25,"noteNumber":30,"velocity":100,"programNumber":5},{"time":74723.18300000006,"duration":156.25,"noteNumber":66,"velocity":100,"programNumber":5},{"time":75035.68300000006,"duration":156.25,"noteNumber":30,"velocity":100,"programNumber":5},{"time":75035.68300000006,"duration":156.25,"noteNumber":64,"velocity":100,"programNumber":5},{"time":75348.18300000006,"duration":156.25,"noteNumber":30,"velocity":100,"programNumber":5},{"time":75191.93300000006,"duration":312.5,"noteNumber":61,"velocity":100,"programNumber":5},{"time":75660.68300000006,"duration":156.25,"noteNumber":30,"velocity":100,"programNumber":5},{"time":75973.18300000006,"duration":156.25,"noteNumber":33,"velocity":100,"programNumber":5},{"time":75973.18300000006,"duration":156.25,"noteNumber":69,"velocity":100,"programNumber":5},{"time":76129.43300000006,"duration":156.25,"noteNumber":69,"velocity":100,"programNumber":5},{"time":76285.68300000006,"duration":156.25,"noteNumber":33,"velocity":100,"programNumber":5},{"time":76598.18300000006,"duration":156.25,"noteNumber":33,"velocity":100,"programNumber":5},{"time":76441.93300000006,"duration":312.5,"noteNumber":69,"velocity":100,"programNumber":5},{"time":76910.68300000006,"duration":156.25,"noteNumber":33,"velocity":100,"programNumber":5},{"time":76910.68300000006,"duration":156.25,"noteNumber":69,"velocity":100,"programNumber":5},{"time":77223.18300000006,"duration":156.25,"noteNumber":35,"velocity":100,"programNumber":5},{"time":77223.18300000006,"duration":156.25,"noteNumber":69,"velocity":100,"programNumber":5},{"time":77379.43300000006,"duration":156.25,"noteNumber":68,"velocity":100,"programNumber":5},{"time":77535.68300000006,"duration":156.25,"noteNumber":35,"velocity":100,"programNumber":5},{"time":77848.18300000006,"duration":156.25,"noteNumber":35,"velocity":100,"programNumber":5},{"time":77691.93300000006,"duration":468.75,"noteNumber":64,"velocity":100,"programNumber":5},{"time":78160.68300000006,"duration":156.25,"noteNumber":35,"velocity":100,"programNumber":5},{"time":78160.68300000006,"duration":156.25,"noteNumber":64,"velocity":100,"programNumber":5},{"time":78473.18300000006,"duration":156.25,"noteNumber":28,"velocity":100,"programNumber":5},{"time":78473.18300000006,"duration":312.5,"noteNumber":66,"velocity":100,"programNumber":5},{"time":78785.68300000006,"duration":156.25,"noteNumber":28,"velocity":100,"programNumber":5},{"time":78785.68300000006,"duration":156.25,"noteNumber":68,"velocity":100,"programNumber":5},{"time":79098.18300000006,"duration":156.25,"noteNumber":28,"velocity":100,"programNumber":5},{"time":78941.93300000006,"duration":312.5,"noteNumber":64,"velocity":100,"programNumber":5},{"time":79410.68300000006,"duration":156.25,"noteNumber":28,"velocity":100,"programNumber":5},{"time":79254.43300000006,"duration":312.5,"noteNumber":68,"velocity":100,"programNumber":5},{"time":79723.18300000006,"duration":156.25,"noteNumber":30,"velocity":100,"programNumber":5},{"time":79723.18300000006,"duration":156.25,"noteNumber":66,"velocity":100,"programNumber":5},{"time":80035.68300000006,"duration":156.25,"noteNumber":30,"velocity":100,"programNumber":5},{"time":80035.68300000006,"duration":156.25,"noteNumber":64,"velocity":100,"programNumber":5},{"time":80348.18300000006,"duration":156.25,"noteNumber":30,"velocity":100,"programNumber":5},{"time":80191.93300000006,"duration":312.5,"noteNumber":61,"velocity":100,"programNumber":5},{"time":80660.68300000006,"duration":156.25,"noteNumber":30,"velocity":100,"programNumber":5},{"time":80816.93300000006,"duration":156.25,"noteNumber":59,"velocity":100,"programNumber":5},{"time":80973.18300000006,"duration":156.25,"noteNumber":33,"velocity":100,"programNumber":5},{"time":80973.18300000006,"duration":156.25,"noteNumber":69,"velocity":100,"programNumber":5},{"time":81285.68300000006,"duration":156.25,"noteNumber":33,"velocity":100,"programNumber":5},{"time":81285.68300000006,"duration":156.25,"noteNumber":69,"velocity":100,"programNumber":5},{"time":81598.18300000006,"duration":156.25,"noteNumber":33,"velocity":100,"programNumber":5},{"time":81598.18300000006,"duration":156.25,"noteNumber":69,"velocity":100,"programNumber":5},{"time":81910.68300000006,"duration":156.25,"noteNumber":33,"velocity":100,"programNumber":5},{"time":81910.68300000006,"duration":156.25,"noteNumber":69,"velocity":100,"programNumber":5},{"time":82223.18300000006,"duration":156.25,"noteNumber":35,"velocity":100,"programNumber":5},{"time":82223.18300000006,"duration":156.25,"noteNumber":69,"velocity":100,"programNumber":5},{"time":82379.43300000006,"duration":156.25,"noteNumber":68,"velocity":100,"programNumber":5},{"time":82535.68300000006,"duration":156.25,"noteNumber":35,"velocity":100,"programNumber":5},{"time":82848.18300000006,"duration":156.25,"noteNumber":35,"velocity":100,"programNumber":5},{"time":82691.93300000006,"duration":468.75,"noteNumber":64,"velocity":100,"programNumber":5},{"time":83160.68300000006,"duration":156.25,"noteNumber":35,"velocity":100,"programNumber":5},{"time":83473.18300000006,"duration":156.25,"noteNumber":28,"velocity":100,"programNumber":5},{"time":83473.18300000006,"duration":312.5,"noteNumber":66,"velocity":100,"programNumber":5},{"time":83785.68300000006,"duration":156.25,"noteNumber":28,"velocity":100,"programNumber":5},{"time":83785.68300000006,"duration":156.25,"noteNumber":68,"velocity":100,"programNumber":5},{"time":84098.18300000006,"duration":156.25,"noteNumber":28,"velocity":100,"programNumber":5},{"time":84098.18300000006,"duration":312.5,"noteNumber":64,"velocity":100,"programNumber":5},{"time":84410.68300000006,"duration":156.25,"noteNumber":28,"velocity":100,"programNumber":5},{"time":84410.68300000006,"duration":312.5,"noteNumber":68,"velocity":100,"programNumber":5},{"time":84723.18300000006,"duration":156.25,"noteNumber":30,"velocity":100,"programNumber":5},{"time":84723.18300000006,"duration":156.25,"noteNumber":66,"velocity":100,"programNumber":5},{"time":85035.68300000006,"duration":156.25,"noteNumber":30,"velocity":100,"programNumber":5},{"time":85035.68300000006,"duration":156.25,"noteNumber":64,"velocity":100,"programNumber":5},{"time":85348.18300000006,"duration":156.25,"noteNumber":30,"velocity":100,"programNumber":5},{"time":85191.93300000006,"duration":312.5,"noteNumber":61,"velocity":100,"programNumber":5},{"time":85660.68300000006,"duration":156.25,"noteNumber":30,"velocity":100,"programNumber":5},{"time":85816.93300000006,"duration":156.25,"noteNumber":61,"velocity":100,"programNumber":5},{"time":85973.18300000006,"duration":156.25,"noteNumber":33,"velocity":100,"programNumber":5},{"time":85973.18300000006,"duration":156.25,"noteNumber":64,"velocity":100,"programNumber":5},{"time":86285.68300000006,"duration":156.25,"noteNumber":33,"velocity":100,"programNumber":5},{"time":86285.68300000006,"duration":156.25,"noteNumber":61,"velocity":100,"programNumber":5},{"time":86598.18300000006,"duration":156.25,"noteNumber":33,"velocity":100,"programNumber":5},{"time":86441.93300000006,"duration":312.5,"noteNumber":64,"velocity":100,"programNumber":5},{"time":86910.68300000006,"duration":156.25,"noteNumber":33,"velocity":100,"programNumber":5},{"time":86754.43300000006,"duration":312.5,"noteNumber":69,"velocity":100,"programNumber":5},{"time":87066.93300000006,"duration":156.25,"noteNumber":69,"velocity":100,"programNumber":5},{"time":87223.18300000006,"duration":156.25,"noteNumber":35,"velocity":100,"programNumber":5},{"time":87379.43300000006,"duration":156.25,"noteNumber":68,"velocity":100,"programNumber":5},{"time":87535.68300000006,"duration":156.25,"noteNumber":35,"velocity":100,"programNumber":5},{"time":87848.18300000006,"duration":156.25,"noteNumber":35,"velocity":100,"programNumber":5},{"time":87691.93300000006,"duration":468.75,"noteNumber":64,"velocity":100,"programNumber":5},{"time":88160.68300000006,"duration":156.25,"noteNumber":35,"velocity":100,"programNumber":5},{"time":88160.68300000006,"duration":312.5,"noteNumber":64,"velocity":100,"programNumber":5},{"time":88473.18300000006,"duration":156.25,"noteNumber":28,"velocity":100,"programNumber":5},{"time":88473.18300000006,"duration":312.5,"noteNumber":66,"velocity":100,"programNumber":5},{"time":88785.68300000006,"duration":156.25,"noteNumber":28,"velocity":100,"programNumber":5},{"time":88785.68300000006,"duration":312.5,"noteNumber":68,"velocity":100,"programNumber":5},{"time":89098.18300000006,"duration":156.25,"noteNumber":28,"velocity":100,"programNumber":5},{"time":89098.18300000006,"duration":312.5,"noteNumber":64,"velocity":100,"programNumber":5},{"time":89410.68300000006,"duration":156.25,"noteNumber":28,"velocity":100,"programNumber":5},{"time":89410.68300000006,"duration":312.5,"noteNumber":68,"velocity":100,"programNumber":5},{"time":89723.18300000006,"duration":156.25,"noteNumber":30,"velocity":100,"programNumber":5},{"time":89723.18300000006,"duration":156.25,"noteNumber":66,"velocity":100,"programNumber":5},{"time":89879.43300000006,"duration":156.25,"noteNumber":64,"velocity":100,"programNumber":5},{"time":90035.68300000006,"duration":156.25,"noteNumber":30,"velocity":100,"programNumber":5},{"time":90348.18300000006,"duration":156.25,"noteNumber":30,"velocity":100,"programNumber":5},{"time":90191.93300000006,"duration":312.5,"noteNumber":61,"velocity":100,"programNumber":5},{"time":90660.68300000006,"duration":156.25,"noteNumber":30,"velocity":100,"programNumber":5},{"time":90816.93300000006,"duration":156.25,"noteNumber":69,"velocity":100,"programNumber":5},{"time":90973.18300000006,"duration":156.25,"noteNumber":33,"velocity":100,"programNumber":5},{"time":90973.18300000006,"duration":312.5,"noteNumber":69,"velocity":100,"programNumber":5},{"time":91285.68300000006,"duration":156.25,"noteNumber":33,"velocity":100,"programNumber":5},{"time":91285.68300000006,"duration":156.25,"noteNumber":69,"velocity":100,"programNumber":5},{"time":91598.18300000006,"duration":156.25,"noteNumber":33,"velocity":100,"programNumber":5},{"time":91441.93300000006,"duration":312.5,"noteNumber":69,"velocity":100,"programNumber":5},{"time":91910.68300000006,"duration":156.25,"noteNumber":33,"velocity":100,"programNumber":5},{"time":91754.43300000006,"duration":312.5,"noteNumber":69,"velocity":100,"programNumber":5},{"time":92066.93300000006,"duration":156.25,"noteNumber":69,"velocity":100,"programNumber":5},{"time":92223.18300000006,"duration":156.25,"noteNumber":34,"velocity":100,"programNumber":5},{"time":92379.43300000006,"duration":156.25,"noteNumber":35,"velocity":100,"programNumber":5},{"time":92379.43300000006,"duration":156.25,"noteNumber":68,"velocity":100,"programNumber":5},{"time":92535.68300000006,"duration":156.25,"noteNumber":35,"velocity":100,"programNumber":5},{"time":92691.93300000006,"duration":156.25,"noteNumber":35,"velocity":100,"programNumber":5},{"time":92848.18300000006,"duration":156.25,"noteNumber":34,"velocity":100,"programNumber":5},{"time":92691.93300000006,"duration":312.5,"noteNumber":66,"velocity":100,"programNumber":5},{"time":93004.43300000006,"duration":156.25,"noteNumber":35,"velocity":100,"programNumber":5},{"time":93160.68300000006,"duration":156.25,"noteNumber":35,"velocity":100,"programNumber":5},{"time":93316.93300000006,"duration":156.25,"noteNumber":35,"velocity":100,"programNumber":5},{"time":93473.18300000006,"duration":156.25,"noteNumber":28,"velocity":100,"programNumber":5},{"time":93629.43300000006,"duration":156.25,"noteNumber":28,"velocity":100,"programNumber":5},{"time":93785.68300000006,"duration":156.25,"noteNumber":28,"velocity":100,"programNumber":5},{"time":93941.93300000006,"duration":156.25,"noteNumber":28,"velocity":100,"programNumber":5},{"time":94098.18300000006,"duration":156.25,"noteNumber":28,"velocity":100,"programNumber":5},{"time":94254.43300000006,"duration":156.25,"noteNumber":28,"velocity":100,"programNumber":5},{"time":94410.68300000006,"duration":156.25,"noteNumber":28,"velocity":100,"programNumber":5},{"time":94566.93300000006,"duration":156.25,"noteNumber":28,"velocity":100,"programNumber":5},{"time":94723.18300000006,"duration":156.25,"noteNumber":30,"velocity":100,"programNumber":5},{"time":94879.43300000006,"duration":156.25,"noteNumber":30,"velocity":100,"programNumber":5},{"time":95035.68300000006,"duration":156.25,"noteNumber":30,"velocity":100,"programNumber":5},{"time":95191.93300000006,"duration":156.25,"noteNumber":30,"velocity":100,"programNumber":5},{"time":95348.18300000006,"duration":156.25,"noteNumber":30,"velocity":100,"programNumber":5},{"time":95504.43300000006,"duration":156.25,"noteNumber":30,"velocity":100,"programNumber":5},{"time":95660.68300000006,"duration":156.25,"noteNumber":30,"velocity":100,"programNumber":5},{"time":95816.93300000006,"duration":156.25,"noteNumber":30,"velocity":100,"programNumber":5},{"time":95973.18300000006,"duration":156.25,"noteNumber":33,"velocity":100,"programNumber":5},{"time":96129.43300000006,"duration":156.25,"noteNumber":33,"velocity":100,"programNumber":5},{"time":96285.68300000006,"duration":156.25,"noteNumber":33,"velocity":100,"programNumber":5},{"time":96441.93300000006,"duration":156.25,"noteNumber":33,"velocity":100,"programNumber":5},{"time":96598.18300000006,"duration":156.25,"noteNumber":33,"velocity":100,"programNumber":5},{"time":96754.43300000006,"duration":156.25,"noteNumber":33,"velocity":100,"programNumber":5},{"time":96910.68300000006,"duration":156.25,"noteNumber":33,"velocity":100,"programNumber":5},{"time":97066.93300000006,"duration":156.25,"noteNumber":33,"velocity":100,"programNumber":5},{"time":97223.18300000006,"duration":156.25,"noteNumber":35,"velocity":100,"programNumber":5},{"time":97379.43300000006,"duration":156.25,"noteNumber":35,"velocity":100,"programNumber":5},{"time":97535.68300000006,"duration":156.25,"noteNumber":35,"velocity":100,"programNumber":5},{"time":97691.93300000006,"duration":156.25,"noteNumber":35,"velocity":100,"programNumber":5},{"time":97848.18300000006,"duration":156.25,"noteNumber":35,"velocity":100,"programNumber":5},{"time":98004.43300000006,"duration":156.25,"noteNumber":35,"velocity":100,"programNumber":5},{"time":98160.68300000006,"duration":156.25,"noteNumber":35,"velocity":100,"programNumber":5},{"time":98316.93300000006,"duration":156.25,"noteNumber":35,"velocity":100,"programNumber":5},{"time":98473.18300000006,"duration":156.25,"noteNumber":28,"velocity":100,"programNumber":5},{"time":98629.43300000006,"duration":156.25,"noteNumber":28,"velocity":100,"programNumber":5},{"time":98785.68300000006,"duration":156.25,"noteNumber":28,"velocity":100,"programNumber":5},{"time":98941.93300000006,"duration":156.25,"noteNumber":28,"velocity":100,"programNumber":5},{"time":99098.18300000006,"duration":156.25,"noteNumber":28,"velocity":100,"programNumber":5},{"time":99254.43300000006,"duration":156.25,"noteNumber":28,"velocity":100,"programNumber":5},{"time":99410.68300000006,"duration":156.25,"noteNumber":28,"velocity":100,"programNumber":5},{"time":99566.93300000006,"duration":156.25,"noteNumber":28,"velocity":100,"programNumber":5},{"time":99723.18300000006,"duration":156.25,"noteNumber":30,"velocity":100,"programNumber":5},{"time":99879.43300000006,"duration":156.25,"noteNumber":30,"velocity":100,"programNumber":5},{"time":100035.68300000006,"duration":156.25,"noteNumber":30,"velocity":100,"programNumber":5},{"time":100191.93300000006,"duration":156.25,"noteNumber":30,"velocity":100,"programNumber":5},{"time":100348.18300000006,"duration":156.25,"noteNumber":30,"velocity":100,"programNumber":5},{"time":100504.43300000006,"duration":156.25,"noteNumber":30,"velocity":100,"programNumber":5},{"time":100660.68300000006,"duration":156.25,"noteNumber":30,"velocity":100,"programNumber":5},{"time":100816.93300000006,"duration":156.25,"noteNumber":30,"velocity":100,"programNumber":5},{"time":100973.18300000006,"duration":156.25,"noteNumber":33,"velocity":100,"programNumber":5},{"time":101129.43300000006,"duration":156.25,"noteNumber":33,"velocity":100,"programNumber":5},{"time":101285.68300000006,"duration":156.25,"noteNumber":33,"velocity":100,"programNumber":5},{"time":101441.93300000006,"duration":156.25,"noteNumber":33,"velocity":100,"programNumber":5},{"time":101598.18300000006,"duration":156.25,"noteNumber":33,"velocity":100,"programNumber":5},{"time":101754.43300000006,"duration":156.25,"noteNumber":33,"velocity":100,"programNumber":5},{"time":101910.68300000006,"duration":156.25,"noteNumber":33,"velocity":100,"programNumber":5},{"time":102066.93300000006,"duration":156.25,"noteNumber":33,"velocity":100,"programNumber":5},{"time":102223.18300000006,"duration":156.25,"noteNumber":35,"velocity":100,"programNumber":5},{"time":102379.43300000006,"duration":156.25,"noteNumber":35,"velocity":100,"programNumber":5},{"time":102535.68300000006,"duration":156.25,"noteNumber":35,"velocity":100,"programNumber":5},{"time":102691.93300000006,"duration":156.25,"noteNumber":35,"velocity":100,"programNumber":5},{"time":102848.18300000006,"duration":156.25,"noteNumber":35,"velocity":100,"programNumber":5},{"time":103004.43300000006,"duration":156.25,"noteNumber":35,"velocity":100,"programNumber":5},{"time":103160.68300000006,"duration":156.25,"noteNumber":35,"velocity":100,"programNumber":5},{"time":103316.93300000006,"duration":156.25,"noteNumber":35,"velocity":100,"programNumber":5},{"time":103473.18300000006,"duration":156.25,"noteNumber":28,"velocity":100,"programNumber":5},{"time":103473.18300000006,"duration":312.5,"noteNumber":66,"velocity":100,"programNumber":5},{"time":103785.68300000006,"duration":156.25,"noteNumber":28,"velocity":100,"programNumber":5},{"time":103785.68300000006,"duration":156.25,"noteNumber":68,"velocity":100,"programNumber":5},{"time":104098.18300000006,"duration":156.25,"noteNumber":28,"velocity":100,"programNumber":5},{"time":103941.93300000006,"duration":468.75,"noteNumber":64,"velocity":100,"programNumber":5},{"time":104410.68300000006,"duration":156.25,"noteNumber":28,"velocity":100,"programNumber":5},{"time":104410.68300000006,"duration":156.25,"noteNumber":68,"velocity":100,"programNumber":5},{"time":104723.18300000006,"duration":156.25,"noteNumber":30,"velocity":100,"programNumber":5},{"time":104723.18300000006,"duration":312.5,"noteNumber":66,"velocity":100,"programNumber":5},{"time":105035.68300000006,"duration":156.25,"noteNumber":30,"velocity":100,"programNumber":5},{"time":105035.68300000006,"duration":156.25,"noteNumber":64,"velocity":100,"programNumber":5},{"time":105348.18300000006,"duration":156.25,"noteNumber":30,"velocity":100,"programNumber":5},{"time":105191.93300000006,"duration":468.75,"noteNumber":61,"velocity":100,"programNumber":5},{"time":105660.68300000006,"duration":156.25,"noteNumber":30,"velocity":100,"programNumber":5},{"time":105660.68300000006,"duration":312.5,"noteNumber":61,"velocity":100,"programNumber":5},{"time":105973.18300000006,"duration":156.25,"noteNumber":33,"velocity":100,"programNumber":5},{"time":105973.18300000006,"duration":312.5,"noteNumber":64,"velocity":100,"programNumber":5},{"time":106285.68300000006,"duration":156.25,"noteNumber":33,"velocity":100,"programNumber":5},{"time":106285.68300000006,"duration":312.5,"noteNumber":61,"velocity":100,"programNumber":5},{"time":106598.18300000006,"duration":156.25,"noteNumber":33,"velocity":100,"programNumber":5},{"time":106598.18300000006,"duration":312.5,"noteNumber":64,"velocity":100,"programNumber":5},{"time":106910.68300000006,"duration":156.25,"noteNumber":33,"velocity":100,"programNumber":5},{"time":106910.68300000006,"duration":312.5,"noteNumber":61,"velocity":100,"programNumber":5},{"time":107223.18300000006,"duration":156.25,"noteNumber":35,"velocity":100,"programNumber":5},{"time":107223.18300000006,"duration":312.5,"noteNumber":64,"velocity":100,"programNumber":5},{"time":107535.68300000006,"duration":156.25,"noteNumber":35,"velocity":100,"programNumber":5},{"time":107535.68300000006,"duration":156.25,"noteNumber":61,"velocity":100,"programNumber":5},{"time":107848.18300000006,"duration":156.25,"noteNumber":35,"velocity":100,"programNumber":5},{"time":107691.93300000006,"duration":312.5,"noteNumber":64,"velocity":100,"programNumber":5},{"time":108160.68300000006,"duration":156.25,"noteNumber":35,"velocity":100,"programNumber":5},{"time":108004.43300000006,"duration":312.5,"noteNumber":66,"velocity":100,"programNumber":5},{"time":108473.18300000006,"duration":156.25,"noteNumber":28,"velocity":100,"programNumber":5},{"time":108473.18300000006,"duration":312.5,"noteNumber":66,"velocity":100,"programNumber":5},{"time":108785.68300000006,"duration":156.25,"noteNumber":28,"velocity":100,"programNumber":5},{"time":108785.68300000006,"duration":156.25,"noteNumber":68,"velocity":100,"programNumber":5},{"time":109098.18300000006,"duration":156.25,"noteNumber":28,"velocity":100,"programNumber":5},{"time":108941.93300000006,"duration":312.5,"noteNumber":64,"velocity":100,"programNumber":5},{"time":109410.68300000006,"duration":156.25,"noteNumber":28,"velocity":100,"programNumber":5},{"time":109254.43300000006,"duration":312.5,"noteNumber":68,"velocity":100,"programNumber":5},{"time":109723.18300000006,"duration":156.25,"noteNumber":30,"velocity":100,"programNumber":5},{"time":109723.18300000006,"duration":312.5,"noteNumber":66,"velocity":100,"programNumber":5},{"time":110035.68300000006,"duration":156.25,"noteNumber":30,"velocity":100,"programNumber":5},{"time":110035.68300000006,"duration":156.25,"noteNumber":64,"velocity":100,"programNumber":5},{"time":110348.18300000006,"duration":156.25,"noteNumber":30,"velocity":100,"programNumber":5},{"time":110191.93300000006,"duration":312.5,"noteNumber":61,"velocity":100,"programNumber":5},{"time":110660.68300000006,"duration":156.25,"noteNumber":30,"velocity":100,"programNumber":5},{"time":110816.93300000006,"duration":156.25,"noteNumber":59,"velocity":100,"programNumber":5},{"time":110973.18300000006,"duration":156.25,"noteNumber":33,"velocity":100,"programNumber":5},{"time":110973.18300000006,"duration":312.5,"noteNumber":69,"velocity":100,"programNumber":5},{"time":111285.68300000006,"duration":156.25,"noteNumber":33,"velocity":100,"programNumber":5},{"time":111285.68300000006,"duration":312.5,"noteNumber":69,"velocity":100,"programNumber":5},{"time":111598.18300000006,"duration":156.25,"noteNumber":33,"velocity":100,"programNumber":5},{"time":111598.18300000006,"duration":312.5,"noteNumber":69,"velocity":100,"programNumber":5},{"time":111910.68300000006,"duration":156.25,"noteNumber":33,"velocity":100,"programNumber":5},{"time":111910.68300000006,"duration":156.25,"noteNumber":69,"velocity":100,"programNumber":5},{"time":112223.18300000006,"duration":156.25,"noteNumber":35,"velocity":100,"programNumber":5},{"time":112223.18300000006,"duration":156.25,"noteNumber":69,"velocity":100,"programNumber":5},{"time":112379.43300000006,"duration":156.25,"noteNumber":68,"velocity":100,"programNumber":5},{"time":112535.68300000006,"duration":156.25,"noteNumber":35,"velocity":100,"programNumber":5},{"time":112848.18300000006,"duration":156.25,"noteNumber":35,"velocity":100,"programNumber":5},{"time":112691.93300000006,"duration":468.75,"noteNumber":64,"velocity":100,"programNumber":5},{"time":113160.68300000006,"duration":156.25,"noteNumber":35,"velocity":100,"programNumber":5},{"time":113316.93300000006,"duration":156.25,"noteNumber":64,"velocity":100,"programNumber":5},{"time":113473.18300000006,"duration":156.25,"noteNumber":28,"velocity":100,"programNumber":5},{"time":113473.18300000006,"duration":156.25,"noteNumber":64,"velocity":100,"programNumber":5},{"time":113785.68300000006,"duration":156.25,"noteNumber":28,"velocity":100,"programNumber":5},{"time":113629.43300000006,"duration":312.5,"noteNumber":64,"velocity":100,"programNumber":5},{"time":114098.18300000006,"duration":156.25,"noteNumber":28,"velocity":100,"programNumber":5},{"time":114098.18300000006,"duration":312.5,"noteNumber":64,"velocity":100,"programNumber":5},{"time":114410.68300000006,"duration":156.25,"noteNumber":28,"velocity":100,"programNumber":5},{"time":114410.68300000006,"duration":312.5,"noteNumber":64,"velocity":100,"programNumber":5},{"time":114723.18300000006,"duration":156.25,"noteNumber":30,"velocity":100,"programNumber":5},{"time":114723.18300000006,"duration":156.25,"noteNumber":64,"velocity":100,"programNumber":5},{"time":114879.43300000006,"duration":156.25,"noteNumber":61,"velocity":100,"programNumber":5},{"time":115035.68300000006,"duration":156.25,"noteNumber":30,"velocity":100,"programNumber":5},{"time":115035.68300000006,"duration":156.25,"noteNumber":61,"velocity":100,"programNumber":5},{"time":115348.18300000006,"duration":156.25,"noteNumber":30,"velocity":100,"programNumber":5},{"time":115191.93300000006,"duration":312.5,"noteNumber":61,"velocity":100,"programNumber":5},{"time":115660.68300000006,"duration":156.25,"noteNumber":30,"velocity":100,"programNumber":5},{"time":115816.93300000006,"duration":156.25,"noteNumber":61,"velocity":100,"programNumber":5},{"time":115973.18300000006,"duration":156.25,"noteNumber":33,"velocity":100,"programNumber":5},{"time":115973.18300000006,"duration":312.5,"noteNumber":64,"velocity":100,"programNumber":5},{"time":116285.68300000006,"duration":156.25,"noteNumber":33,"velocity":100,"programNumber":5},{"time":116285.68300000006,"duration":156.25,"noteNumber":64,"velocity":100,"programNumber":5},{"time":116598.18300000006,"duration":156.25,"noteNumber":33,"velocity":100,"programNumber":5},{"time":116441.93300000006,"duration":312.5,"noteNumber":64,"velocity":100,"programNumber":5},{"time":116910.68300000006,"duration":156.25,"noteNumber":33,"velocity":100,"programNumber":5},{"time":116910.68300000006,"duration":312.5,"noteNumber":64,"velocity":100,"programNumber":5},{"time":117223.18300000006,"duration":156.25,"noteNumber":35,"velocity":100,"programNumber":5},{"time":117223.18300000006,"duration":312.5,"noteNumber":64,"velocity":100,"programNumber":5},{"time":117535.68300000006,"duration":156.25,"noteNumber":35,"velocity":100,"programNumber":5},{"time":117535.68300000006,"duration":312.5,"noteNumber":64,"velocity":100,"programNumber":5},{"time":117848.18300000006,"duration":156.25,"noteNumber":35,"velocity":100,"programNumber":5},{"time":117848.18300000006,"duration":156.25,"noteNumber":66,"velocity":100,"programNumber":5},{"time":118160.68300000006,"duration":156.25,"noteNumber":35,"velocity":100,"programNumber":5},{"time":118160.68300000006,"duration":156.25,"noteNumber":64,"velocity":100,"programNumber":5},{"time":118473.18300000006,"duration":156.25,"noteNumber":28,"velocity":100,"programNumber":5},{"time":118316.93300000006,"duration":312.5,"noteNumber":66,"velocity":100,"programNumber":5},{"time":118785.68300000006,"duration":156.25,"noteNumber":28,"velocity":100,"programNumber":5},{"time":118629.43300000006,"duration":312.5,"noteNumber":68,"velocity":100,"programNumber":5},{"time":119098.18300000006,"duration":156.25,"noteNumber":28,"velocity":100,"programNumber":5},{"time":118941.93300000006,"duration":468.75,"noteNumber":64,"velocity":100,"programNumber":5},{"time":119410.68300000006,"duration":156.25,"noteNumber":28,"velocity":100,"programNumber":5},{"time":119410.68300000006,"duration":312.5,"noteNumber":68,"velocity":100,"programNumber":5},{"time":119723.18300000006,"duration":156.25,"noteNumber":30,"velocity":100,"programNumber":5},{"time":119723.18300000006,"duration":156.25,"noteNumber":66,"velocity":100,"programNumber":5},{"time":119879.43300000006,"duration":156.25,"noteNumber":64,"velocity":100,"programNumber":5},{"time":120035.68300000006,"duration":156.25,"noteNumber":30,"velocity":100,"programNumber":5},{"time":120348.18300000006,"duration":156.25,"noteNumber":30,"velocity":100,"programNumber":5},{"time":120191.93300000006,"duration":312.5,"noteNumber":61,"velocity":100,"programNumber":5},{"time":120660.68300000006,"duration":156.25,"noteNumber":30,"velocity":100,"programNumber":5},{"time":120816.93300000006,"duration":156.25,"noteNumber":69,"velocity":100,"programNumber":5},{"time":120973.18300000006,"duration":156.25,"noteNumber":33,"velocity":100,"programNumber":5},{"time":120973.18300000006,"duration":312.5,"noteNumber":69,"velocity":100,"programNumber":5},{"time":121285.68300000006,"duration":156.25,"noteNumber":33,"velocity":100,"programNumber":5},{"time":121285.68300000006,"duration":156.25,"noteNumber":69,"velocity":100,"programNumber":5},{"time":121598.18300000006,"duration":156.25,"noteNumber":33,"velocity":100,"programNumber":5},{"time":121441.93300000006,"duration":312.5,"noteNumber":69,"velocity":100,"programNumber":5},{"time":121910.68300000006,"duration":156.25,"noteNumber":33,"velocity":100,"programNumber":5},{"time":121754.43300000006,"duration":312.5,"noteNumber":69,"velocity":100,"programNumber":5},{"time":122066.93300000006,"duration":156.25,"noteNumber":69,"velocity":100,"programNumber":5},{"time":122223.18300000006,"duration":156.25,"noteNumber":35,"velocity":100,"programNumber":5},{"time":122379.43300000006,"duration":156.25,"noteNumber":68,"velocity":100,"programNumber":5},{"time":122535.68300000006,"duration":156.25,"noteNumber":35,"velocity":100,"programNumber":5},{"time":122691.93300000006,"duration":312.5,"noteNumber":35,"velocity":100,"programNumber":5},{"time":122691.93300000006,"duration":312.5,"noteNumber":66,"velocity":100,"programNumber":5},{"time":123004.43300000006,"duration":156.25,"noteNumber":35,"velocity":100,"programNumber":5},{"time":123160.68300000006,"duration":156.25,"noteNumber":35,"velocity":100,"programNumber":5},{"time":123316.93300000006,"duration":156.25,"noteNumber":28,"velocity":100,"programNumber":5},{"time":123629.43300000006,"duration":156.25,"noteNumber":40,"velocity":100,"programNumber":5},{"time":123785.68300000006,"duration":156.25,"noteNumber":37,"velocity":100,"programNumber":5},{"time":124098.18300000006,"duration":156.25,"noteNumber":40,"velocity":100,"programNumber":5},{"time":124410.68300000006,"duration":156.25,"noteNumber":37,"velocity":100,"programNumber":5},{"time":125816.93300000006,"duration":156.25,"noteNumber":40,"velocity":100,"programNumber":5},{"time":126129.43300000006,"duration":156.25,"noteNumber":40,"velocity":100,"programNumber":5},{"time":126285.68300000006,"duration":156.25,"noteNumber":37,"velocity":100,"programNumber":5},{"time":126598.18300000006,"duration":156.25,"noteNumber":40,"velocity":100,"programNumber":5},{"time":126910.68300000006,"duration":156.25,"noteNumber":37,"velocity":100,"programNumber":5},{"time":127066.93300000006,"duration":1250,"noteNumber":28,"velocity":100,"programNumber":5},{"time":128316.93300000006,"duration":156.25,"noteNumber":40,"velocity":100,"programNumber":5},{"time":128629.43300000006,"duration":156.25,"noteNumber":40,"velocity":100,"programNumber":5},{"time":128785.68300000006,"duration":156.25,"noteNumber":37,"velocity":100,"programNumber":5},{"time":129098.18300000006,"duration":156.25,"noteNumber":40,"velocity":100,"programNumber":5},{"time":129410.68300000006,"duration":156.25,"noteNumber":37,"velocity":100,"programNumber":5},{"time":130816.93300000006,"duration":156.25,"noteNumber":40,"velocity":100,"programNumber":5},{"time":131129.43300000008,"duration":156.25,"noteNumber":40,"velocity":100,"programNumber":5},{"time":131285.68300000008,"duration":156.25,"noteNumber":37,"velocity":100,"programNumber":5},{"time":131598.18300000008,"duration":156.25,"noteNumber":40,"velocity":100,"programNumber":5},{"time":131910.68300000008,"duration":156.25,"noteNumber":37,"velocity":100,"programNumber":5},{"time":132066.93300000008,"duration":1250,"noteNumber":28,"velocity":100,"programNumber":5},{"time":133316.93300000008,"duration":156.25,"noteNumber":40,"velocity":100,"programNumber":5},{"time":135816.93300000008,"duration":625,"noteNumber":28,"velocity":100,"programNumber":5},{"time":138004.43300000008,"duration":234.375,"noteNumber":47,"velocity":127,"programNumber":5},{"time":138316.93300000008,"duration":312.5,"noteNumber":52,"velocity":127,"programNumber":5},{"time":140816.93300000008,"duration":625,"noteNumber":28,"velocity":100,"programNumber":5},{"time":143004.43300000008,"duration":234.375,"noteNumber":47,"velocity":127,"programNumber":5},{"time":143316.93300000008,"duration":312.5,"noteNumber":52,"velocity":127,"programNumber":5},{"time":145816.93300000008,"duration":625,"noteNumber":28,"velocity":100,"programNumber":5},{"time":148004.43300000008,"duration":234.375,"noteNumber":47,"velocity":127,"programNumber":5},{"time":148316.93300000008,"duration":312.5,"noteNumber":52,"velocity":127,"programNumber":5},{"time":150816.93300000008,"duration":625,"noteNumber":28,"velocity":100,"programNumber":5},{"time":152379.43300000008,"duration":156.25,"noteNumber":35,"velocity":100,"programNumber":5},{"time":152535.68300000008,"duration":156.25,"noteNumber":35,"velocity":100,"programNumber":5},{"time":152691.93300000008,"duration":156.25,"noteNumber":35,"velocity":100,"programNumber":5},{"time":152848.18300000008,"duration":156.25,"noteNumber":35,"velocity":100,"programNumber":5},{"time":153004.43300000008,"duration":156.25,"noteNumber":35,"velocity":100,"programNumber":5},{"time":153160.68300000008,"duration":156.25,"noteNumber":35,"velocity":100,"programNumber":5},{"time":153473.18300000008,"duration":156.25,"noteNumber":28,"velocity":100,"programNumber":5},{"time":153473.18300000008,"duration":312.5,"noteNumber":66,"velocity":100,"programNumber":5},{"time":153785.68300000008,"duration":156.25,"noteNumber":28,"velocity":100,"programNumber":5},{"time":153785.68300000008,"duration":156.25,"noteNumber":68,"velocity":100,"programNumber":5},{"time":154098.18300000008,"duration":156.25,"noteNumber":28,"velocity":100,"programNumber":5},{"time":153941.93300000008,"duration":468.75,"noteNumber":64,"velocity":100,"programNumber":5},{"time":154410.68300000008,"duration":156.25,"noteNumber":28,"velocity":100,"programNumber":5},{"time":154410.68300000008,"duration":156.25,"noteNumber":68,"velocity":100,"programNumber":5},{"time":154723.18300000008,"duration":156.25,"noteNumber":30,"velocity":100,"programNumber":5},{"time":154723.18300000008,"duration":156.25,"noteNumber":66,"velocity":100,"programNumber":5},{"time":155035.68300000008,"duration":156.25,"noteNumber":30,"velocity":100,"programNumber":5},{"time":155035.68300000008,"duration":156.25,"noteNumber":64,"velocity":100,"programNumber":5},{"time":155191.93300000008,"duration":156.25,"noteNumber":61,"velocity":100,"programNumber":5},{"time":155348.18300000008,"duration":156.25,"noteNumber":30,"velocity":100,"programNumber":5},{"time":155660.68300000008,"duration":156.25,"noteNumber":30,"velocity":100,"programNumber":5},{"time":155504.43300000008,"duration":312.5,"noteNumber":61,"velocity":100,"programNumber":5},{"time":155973.18300000008,"duration":156.25,"noteNumber":33,"velocity":100,"programNumber":5},{"time":155973.18300000008,"duration":312.5,"noteNumber":64,"velocity":100,"programNumber":5},{"time":156285.68300000008,"duration":156.25,"noteNumber":33,"velocity":100,"programNumber":5},{"time":156285.68300000008,"duration":312.5,"noteNumber":61,"velocity":100,"programNumber":5},{"time":156598.18300000008,"duration":156.25,"noteNumber":33,"velocity":100,"programNumber":5},{"time":156598.18300000008,"duration":312.5,"noteNumber":64,"velocity":100,"programNumber":5},{"time":156910.68300000008,"duration":156.25,"noteNumber":33,"velocity":100,"programNumber":5},{"time":156910.68300000008,"duration":312.5,"noteNumber":69,"velocity":100,"programNumber":5},{"time":157223.18300000008,"duration":156.25,"noteNumber":35,"velocity":100,"programNumber":5},{"time":157223.18300000008,"duration":156.25,"noteNumber":69,"velocity":100,"programNumber":5},{"time":157535.68300000008,"duration":156.25,"noteNumber":35,"velocity":100,"programNumber":5},{"time":157535.68300000008,"duration":156.25,"noteNumber":68,"velocity":100,"programNumber":5},{"time":157848.18300000008,"duration":156.25,"noteNumber":35,"velocity":100,"programNumber":5},{"time":157691.93300000008,"duration":312.5,"noteNumber":64,"velocity":100,"programNumber":5},{"time":158004.43300000008,"duration":156.25,"noteNumber":64,"velocity":100,"programNumber":5},{"time":158160.68300000008,"duration":156.25,"noteNumber":35,"velocity":100,"programNumber":5},{"time":158473.18300000008,"duration":156.25,"noteNumber":28,"velocity":100,"programNumber":5},{"time":158473.18300000008,"duration":312.5,"noteNumber":66,"velocity":100,"programNumber":5},{"time":158785.68300000008,"duration":156.25,"noteNumber":28,"velocity":100,"programNumber":5},{"time":158785.68300000008,"duration":156.25,"noteNumber":68,"velocity":100,"programNumber":5},{"time":159098.18300000008,"duration":156.25,"noteNumber":28,"velocity":100,"programNumber":5},{"time":158941.93300000008,"duration":312.5,"noteNumber":64,"velocity":100,"programNumber":5},{"time":159410.68300000008,"duration":156.25,"noteNumber":28,"velocity":100,"programNumber":5},{"time":159254.43300000008,"duration":312.5,"noteNumber":68,"velocity":100,"programNumber":5},{"time":159723.18300000008,"duration":156.25,"noteNumber":30,"velocity":100,"programNumber":5},{"time":159723.18300000008,"duration":156.25,"noteNumber":66,"velocity":100,"programNumber":5},{"time":159879.43300000008,"duration":156.25,"noteNumber":64,"velocity":100,"programNumber":5},{"time":160035.68300000008,"duration":156.25,"noteNumber":30,"velocity":100,"programNumber":5},{"time":160348.18300000008,"duration":156.25,"noteNumber":30,"velocity":100,"programNumber":5},{"time":160191.93300000008,"duration":312.5,"noteNumber":61,"velocity":100,"programNumber":5},{"time":160660.68300000008,"duration":156.25,"noteNumber":30,"velocity":100,"programNumber":5},{"time":160660.68300000008,"duration":156.25,"noteNumber":61,"velocity":100,"programNumber":5},{"time":160973.18300000008,"duration":156.25,"noteNumber":33,"velocity":100,"programNumber":5},{"time":160973.18300000008,"duration":156.25,"noteNumber":69,"velocity":100,"programNumber":5},{"time":161285.68300000008,"duration":156.25,"noteNumber":33,"velocity":100,"programNumber":5},{"time":161129.43300000008,"duration":312.5,"noteNumber":69,"velocity":100,"programNumber":5},{"time":161598.18300000008,"duration":156.25,"noteNumber":33,"velocity":100,"programNumber":5},{"time":161598.18300000008,"duration":312.5,"noteNumber":69,"velocity":100,"programNumber":5},{"time":161910.68300000008,"duration":156.25,"noteNumber":33,"velocity":100,"programNumber":5},{"time":161910.68300000008,"duration":312.5,"noteNumber":69,"velocity":100,"programNumber":5},{"time":162223.18300000008,"duration":156.25,"noteNumber":35,"velocity":100,"programNumber":5},{"time":162223.18300000008,"duration":156.25,"noteNumber":69,"velocity":100,"programNumber":5},{"time":162535.68300000008,"duration":156.25,"noteNumber":35,"velocity":100,"programNumber":5},{"time":162379.43300000008,"duration":312.5,"noteNumber":68,"velocity":100,"programNumber":5},{"time":162868.16997604174,"duration":250,"noteNumber":35,"velocity":100,"programNumber":5},{"time":162691.93300000008,"duration":676.2369760416623,"noteNumber":64,"velocity":100,"programNumber":5},{"time":163368.16997604174,"duration":250,"noteNumber":35,"velocity":100,"programNumber":5},{"time":163368.16997604174,"duration":250,"noteNumber":64,"velocity":100,"programNumber":5},{"time":163868.16997604174,"duration":250,"noteNumber":28,"velocity":100,"programNumber":5},{"time":163868.16997604174,"duration":500,"noteNumber":66,"velocity":100,"programNumber":5},{"time":164368.16997604174,"duration":250,"noteNumber":28,"velocity":100,"programNumber":5},{"time":164368.16997604174,"duration":250,"noteNumber":68,"velocity":100,"programNumber":5},{"time":164868.16997604174,"duration":250,"noteNumber":28,"velocity":100,"programNumber":5},{"time":164868.16997604174,"duration":500,"noteNumber":64,"velocity":100,"programNumber":5},{"time":165368.16997604174,"duration":250,"noteNumber":28,"velocity":100,"programNumber":5},{"time":165368.16997604174,"duration":500,"noteNumber":68,"velocity":100,"programNumber":5},{"time":165868.16997604174,"duration":250,"noteNumber":30,"velocity":100,"programNumber":5},{"time":165868.16997604174,"duration":250,"noteNumber":66,"velocity":100,"programNumber":5},{"time":166368.16997604174,"duration":250,"noteNumber":30,"velocity":100,"programNumber":5},{"time":166368.16997604174,"duration":250,"noteNumber":64,"velocity":100,"programNumber":5},{"time":166868.16997604174,"duration":250,"noteNumber":30,"velocity":100,"programNumber":5},{"time":166618.16997604174,"duration":500,"noteNumber":61,"velocity":100,"programNumber":5},{"time":167368.16997604174,"duration":250,"noteNumber":30,"velocity":100,"programNumber":5},{"time":167618.16997604174,"duration":250,"noteNumber":61,"velocity":100,"programNumber":5},{"time":167868.16997604174,"duration":250,"noteNumber":33,"velocity":100,"programNumber":5},{"time":167868.16997604174,"duration":500,"noteNumber":69,"velocity":100,"programNumber":5},{"time":168368.16997604174,"duration":250,"noteNumber":33,"velocity":100,"programNumber":5},{"time":168868.16997604174,"duration":250,"noteNumber":33,"velocity":100,"programNumber":5},{"time":168368.16997604174,"duration":750,"noteNumber":69,"velocity":100,"programNumber":5},{"time":169118.16997604174,"duration":250,"noteNumber":69,"velocity":100,"programNumber":5},{"time":169368.16997604174,"duration":250,"noteNumber":33,"velocity":100,"programNumber":5},{"time":169618.16997604174,"duration":250,"noteNumber":69,"velocity":100,"programNumber":5},{"time":169868.16997604174,"duration":250,"noteNumber":35,"velocity":100,"programNumber":5},{"time":170118.16997604174,"duration":250,"noteNumber":68,"velocity":100,"programNumber":5},{"time":170368.16997604174,"duration":250,"noteNumber":35,"velocity":100,"programNumber":5},{"time":170868.16997604174,"duration":250,"noteNumber":35,"velocity":100,"programNumber":5},{"time":170618.16997604174,"duration":750,"noteNumber":64,"velocity":100,"programNumber":5},{"time":171368.16997604174,"duration":250,"noteNumber":35,"velocity":100,"programNumber":5},{"time":171868.16997604174,"duration":250,"noteNumber":28,"velocity":100,"programNumber":5},{"time":171868.16997604174,"duration":250,"noteNumber":66,"velocity":100,"programNumber":5},{"time":172118.16997604174,"duration":250,"noteNumber":68,"velocity":100,"programNumber":5},{"time":172368.16997604174,"duration":250,"noteNumber":28,"velocity":100,"programNumber":5},{"time":172868.16997604174,"duration":250,"noteNumber":28,"velocity":100,"programNumber":5},{"time":172618.16997604174,"duration":750,"noteNumber":64,"velocity":100,"programNumber":5},{"time":173368.16997604174,"duration":250,"noteNumber":28,"velocity":100,"programNumber":5},{"time":173368.16997604174,"duration":250,"noteNumber":68,"velocity":100,"programNumber":5},{"time":173868.16997604174,"duration":250,"noteNumber":30,"velocity":100,"programNumber":5},{"time":173868.16997604174,"duration":250,"noteNumber":66,"velocity":100,"programNumber":5},{"time":174118.16997604174,"duration":250,"noteNumber":64,"velocity":100,"programNumber":5},{"time":174368.16997604174,"duration":250,"noteNumber":30,"velocity":100,"programNumber":5},{"time":174868.16997604174,"duration":250,"noteNumber":30,"velocity":100,"programNumber":5},{"time":174618.16997604174,"duration":500,"noteNumber":61,"velocity":100,"programNumber":5},{"time":175368.16997604174,"duration":250,"noteNumber":30,"velocity":100,"programNumber":5},{"time":175368.16997604174,"duration":500,"noteNumber":69,"velocity":100,"programNumber":5},{"time":175868.16997604174,"duration":250,"noteNumber":33,"velocity":100,"programNumber":5},{"time":175868.16997604174,"duration":500,"noteNumber":69,"velocity":100,"programNumber":5},{"time":176368.16997604174,"duration":250,"noteNumber":33,"velocity":100,"programNumber":5},{"time":176368.16997604174,"duration":250,"noteNumber":69,"velocity":100,"programNumber":5},{"time":176868.16997604174,"duration":250,"noteNumber":33,"velocity":100,"programNumber":5},{"time":176618.16997604174,"duration":500,"noteNumber":69,"velocity":100,"programNumber":5},{"time":177368.16997604174,"duration":250,"noteNumber":33,"velocity":100,"programNumber":5},{"time":177118.16997604174,"duration":500,"noteNumber":69,"velocity":100,"programNumber":5},{"time":177618.16997604174,"duration":250,"noteNumber":69,"velocity":100,"programNumber":5},{"time":177868.16997604174,"duration":250,"noteNumber":34,"velocity":100,"programNumber":5},{"time":178118.16997604174,"duration":250,"noteNumber":35,"velocity":100,"programNumber":5},{"time":178118.16997604174,"duration":250,"noteNumber":68,"velocity":100,"programNumber":5},{"time":178368.16997604174,"duration":250,"noteNumber":35,"velocity":100,"programNumber":5},{"time":178618.16997604174,"duration":250,"noteNumber":35,"velocity":100,"programNumber":5},{"time":178868.16997604174,"duration":250,"noteNumber":34,"velocity":100,"programNumber":5},{"time":178618.16997604174,"duration":500,"noteNumber":66,"velocity":100,"programNumber":5},{"time":179118.16997604174,"duration":250,"noteNumber":35,"velocity":100,"programNumber":5},{"time":179368.16997604174,"duration":250,"noteNumber":35,"velocity":100,"programNumber":5},{"time":179618.16997604174,"duration":250,"noteNumber":35,"velocity":100,"programNumber":5},{"time":179868.16997604174,"duration":250,"noteNumber":28,"velocity":100,"programNumber":5},{"time":180118.16997604174,"duration":250,"noteNumber":28,"velocity":100,"programNumber":5},{"time":180368.16997604174,"duration":250,"noteNumber":28,"velocity":100,"programNumber":5},{"time":180618.16997604174,"duration":250,"noteNumber":28,"velocity":100,"programNumber":5},{"time":180868.16997604174,"duration":250,"noteNumber":28,"velocity":100,"programNumber":5},{"time":181118.16997604174,"duration":250,"noteNumber":28,"velocity":100,"programNumber":5},{"time":181368.16997604174,"duration":250,"noteNumber":28,"velocity":100,"programNumber":5},{"time":181618.16997604174,"duration":250,"noteNumber":28,"velocity":100,"programNumber":5},{"time":181868.16997604174,"duration":250,"noteNumber":30,"velocity":100,"programNumber":5},{"time":182118.16997604174,"duration":250,"noteNumber":30,"velocity":100,"programNumber":5},{"time":182368.16997604174,"duration":250,"noteNumber":30,"velocity":100,"programNumber":5},{"time":182618.16997604174,"duration":250,"noteNumber":30,"velocity":100,"programNumber":5},{"time":182868.16997604174,"duration":250,"noteNumber":30,"velocity":100,"programNumber":5},{"time":183118.16997604174,"duration":250,"noteNumber":30,"velocity":100,"programNumber":5},{"time":183368.16997604174,"duration":250,"noteNumber":30,"velocity":100,"programNumber":5},{"time":183618.16997604174,"duration":250,"noteNumber":30,"velocity":100,"programNumber":5},{"time":183368.16997604174,"duration":500,"noteNumber":69,"velocity":100,"programNumber":5},{"time":183868.16997604174,"duration":250,"noteNumber":33,"velocity":100,"programNumber":5},{"time":184118.16997604174,"duration":250,"noteNumber":33,"velocity":100,"programNumber":5},{"time":183868.16997604174,"duration":500,"noteNumber":69,"velocity":100,"programNumber":5},{"time":184368.16997604174,"duration":250,"noteNumber":33,"velocity":100,"programNumber":5},{"time":184368.16997604174,"duration":250,"noteNumber":69,"velocity":100,"programNumber":5},{"time":184618.16997604174,"duration":250,"noteNumber":33,"velocity":100,"programNumber":5},{"time":184868.16997604174,"duration":250,"noteNumber":33,"velocity":100,"programNumber":5},{"time":184618.16997604174,"duration":500,"noteNumber":69,"velocity":100,"programNumber":5},{"time":185118.16997604174,"duration":250,"noteNumber":33,"velocity":100,"programNumber":5},{"time":185368.16997604174,"duration":250,"noteNumber":33,"velocity":100,"programNumber":5},{"time":185118.16997604174,"duration":500,"noteNumber":69,"velocity":100,"programNumber":5},{"time":185618.16997604174,"duration":250,"noteNumber":33,"velocity":100,"programNumber":5},{"time":185618.16997604174,"duration":250,"noteNumber":69,"velocity":100,"programNumber":5},{"time":185868.16997604174,"duration":250,"noteNumber":35,"velocity":100,"programNumber":5},{"time":186118.16997604174,"duration":250,"noteNumber":35,"velocity":100,"programNumber":5},{"time":186118.16997604174,"duration":250,"noteNumber":68,"velocity":100,"programNumber":5},{"time":186368.16997604174,"duration":250,"noteNumber":35,"velocity":100,"programNumber":5},{"time":186618.16997604174,"duration":250,"noteNumber":35,"velocity":100,"programNumber":5},{"time":186868.16997604174,"duration":250,"noteNumber":35,"velocity":100,"programNumber":5},{"time":187118.16997604174,"duration":250,"noteNumber":35,"velocity":100,"programNumber":5},{"time":186618.16997604174,"duration":750,"noteNumber":64,"velocity":100,"programNumber":5},{"time":187368.16997604174,"duration":250,"noteNumber":35,"velocity":100,"programNumber":5},{"time":187618.16997604174,"duration":250,"noteNumber":35,"velocity":100,"programNumber":5},{"time":187868.16997604174,"duration":250,"noteNumber":51,"velocity":100,"programNumber":5},{"time":188118.16997604174,"duration":250,"noteNumber":52,"velocity":100,"programNumber":5},{"time":188368.16997604174,"duration":250,"noteNumber":52,"velocity":100,"programNumber":5},{"time":188618.16997604174,"duration":250,"noteNumber":51,"velocity":100,"programNumber":5},{"time":188868.16997604174,"duration":250,"noteNumber":52,"velocity":100,"programNumber":5},{"time":189118.16997604174,"duration":250,"noteNumber":52,"velocity":100,"programNumber":5},{"time":189368.16997604174,"duration":250,"noteNumber":51,"velocity":100,"programNumber":5},{"time":189618.16997604174,"duration":250,"noteNumber":52,"velocity":100,"programNumber":5},{"time":189868.16997604174,"duration":250,"noteNumber":52,"velocity":100,"programNumber":5},{"time":190118.16997604174,"duration":250,"noteNumber":51,"velocity":100,"programNumber":5},{"time":190368.16997604174,"duration":250,"noteNumber":52,"velocity":100,"programNumber":5},{"time":190618.16997604174,"duration":250,"noteNumber":52,"velocity":100,"programNumber":5},{"time":190868.16997604174,"duration":250,"noteNumber":51,"velocity":100,"programNumber":5},{"time":191118.16997604174,"duration":250,"noteNumber":52,"velocity":100,"programNumber":5},{"time":191368.16997604174,"duration":250,"noteNumber":52,"velocity":100,"programNumber":5},{"time":191618.16997604174,"duration":250,"noteNumber":51,"velocity":100,"programNumber":5},{"time":191868.16997604174,"duration":250,"noteNumber":52,"velocity":100,"programNumber":5},{"time":192118.16997604174,"duration":250,"noteNumber":52,"velocity":100,"programNumber":5},{"time":192368.16997604174,"duration":250,"noteNumber":51,"velocity":100,"programNumber":5},{"time":192618.16997604174,"duration":250,"noteNumber":52,"velocity":100,"programNumber":5},{"time":192868.16997604174,"duration":250,"noteNumber":52,"velocity":100,"programNumber":5},{"time":193118.16997604174,"duration":250,"noteNumber":51,"velocity":100,"programNumber":5},{"time":193368.16997604174,"duration":250,"noteNumber":52,"velocity":100,"programNumber":5},{"time":193618.16997604174,"duration":250,"noteNumber":52,"velocity":100,"programNumber":5},{"time":193868.16997604174,"duration":250,"noteNumber":52,"velocity":100,"programNumber":5},{"time":194118.16997604174,"duration":250,"noteNumber":50,"velocity":100,"programNumber":5},{"time":194368.16997604174,"duration":250,"noteNumber":47,"velocity":100,"programNumber":5},{"time":194618.16997604174,"duration":250,"noteNumber":45,"velocity":100,"programNumber":5},{"time":194868.16997604174,"duration":250,"noteNumber":43,"velocity":100,"programNumber":5},{"time":195118.16997604174,"duration":250,"noteNumber":40,"velocity":100,"programNumber":5},{"time":195368.16997604174,"duration":250,"noteNumber":38,"velocity":100,"programNumber":5},{"time":195618.16997604174,"duration":250,"noteNumber":35,"velocity":100,"programNumber":5},{"time":195868.16997604174,"duration":250,"noteNumber":28,"velocity":100,"programNumber":5},{"time":196118.16997604174,"duration":250,"noteNumber":28,"velocity":100,"programNumber":5},{"time":196368.16997604174,"duration":500,"noteNumber":40,"velocity":100,"programNumber":5},{"time":196868.16997604174,"duration":250,"noteNumber":28,"velocity":100,"programNumber":5},{"time":197118.16997604174,"duration":250,"noteNumber":28,"velocity":100,"programNumber":5},{"time":197368.16997604174,"duration":500,"noteNumber":40,"velocity":100,"programNumber":5},{"time":197868.16997604174,"duration":250,"noteNumber":28,"velocity":100,"programNumber":5},{"time":198118.16997604174,"duration":250,"noteNumber":28,"velocity":100,"programNumber":5},{"time":198368.16997604174,"duration":500,"noteNumber":40,"velocity":100,"programNumber":5},{"time":198868.16997604174,"duration":250,"noteNumber":28,"velocity":100,"programNumber":5},{"time":199118.16997604174,"duration":250,"noteNumber":28,"velocity":100,"programNumber":5},{"time":199368.16997604174,"duration":500,"noteNumber":40,"velocity":100,"programNumber":5},{"time":199868.16997604174,"duration":250,"noteNumber":28,"velocity":100,"programNumber":5},{"time":200118.16997604174,"duration":250,"noteNumber":28,"velocity":100,"programNumber":5},{"time":199868.16997604174,"duration":500,"noteNumber":71,"velocity":100,"programNumber":5},{"time":200368.16997604174,"duration":250,"noteNumber":71,"velocity":100,"programNumber":5},{"time":200368.16997604174,"duration":500,"noteNumber":40,"velocity":100,"programNumber":5},{"time":200868.16997604174,"duration":250,"noteNumber":28,"velocity":100,"programNumber":5},{"time":200618.16997604174,"duration":500,"noteNumber":71,"velocity":100,"programNumber":5},{"time":201118.16997604174,"duration":250,"noteNumber":28,"velocity":100,"programNumber":5},{"time":201118.16997604174,"duration":500,"noteNumber":71,"velocity":100,"programNumber":5},{"time":201368.16997604174,"duration":500,"noteNumber":40,"velocity":100,"programNumber":5},{"time":201618.16997604174,"duration":250,"noteNumber":71,"velocity":100,"programNumber":5},{"time":201868.16997604174,"duration":250,"noteNumber":28,"velocity":100,"programNumber":5},{"time":202118.16997604174,"duration":250,"noteNumber":28,"velocity":100,"programNumber":5},{"time":202118.16997604174,"duration":250,"noteNumber":68,"velocity":100,"programNumber":5},{"time":202368.16997604174,"duration":500,"noteNumber":40,"velocity":100,"programNumber":5},{"time":202868.16997604174,"duration":250,"noteNumber":28,"velocity":100,"programNumber":5},{"time":203118.16997604174,"duration":250,"noteNumber":28,"velocity":100,"programNumber":5},{"time":202618.16997604174,"duration":750,"noteNumber":64,"velocity":100,"programNumber":5},{"time":203368.16997604174,"duration":500,"noteNumber":40,"velocity":100,"programNumber":5},{"time":203868.16997604174,"duration":250,"noteNumber":28,"velocity":100,"programNumber":5},{"time":204118.16997604174,"duration":250,"noteNumber":28,"velocity":100,"programNumber":5},{"time":204368.16997604174,"duration":500,"noteNumber":40,"velocity":100,"programNumber":5},{"time":204868.16997604174,"duration":250,"noteNumber":28,"velocity":100,"programNumber":5},{"time":205118.16997604174,"duration":250,"noteNumber":28,"velocity":100,"programNumber":5},{"time":205368.16997604174,"duration":500,"noteNumber":40,"velocity":100,"programNumber":5},{"time":205868.16997604174,"duration":250,"noteNumber":28,"velocity":100,"programNumber":5},{"time":206118.16997604174,"duration":250,"noteNumber":28,"velocity":100,"programNumber":5},{"time":206368.16997604174,"duration":500,"noteNumber":40,"velocity":100,"programNumber":5},{"time":206868.16997604174,"duration":250,"noteNumber":28,"velocity":100,"programNumber":5},{"time":207118.16997604174,"duration":250,"noteNumber":28,"velocity":100,"programNumber":5},{"time":207368.16997604174,"duration":500,"noteNumber":40,"velocity":100,"programNumber":5},{"time":207868.16997604174,"duration":250,"noteNumber":28,"velocity":100,"programNumber":5},{"time":208118.16997604174,"duration":250,"noteNumber":28,"velocity":100,"programNumber":5},{"time":208368.16997604174,"duration":500,"noteNumber":40,"velocity":100,"programNumber":5},{"time":208868.16997604174,"duration":250,"noteNumber":28,"velocity":100,"programNumber":5},{"time":209118.16997604174,"duration":250,"noteNumber":28,"velocity":100,"programNumber":5},{"time":209368.16997604174,"duration":500,"noteNumber":40,"velocity":100,"programNumber":5},{"time":209868.16997604174,"duration":437.5,"noteNumber":35,"velocity":100,"programNumber":5},{"time":210368.16997604174,"duration":187.5,"noteNumber":35,"velocity":100,"programNumber":5},{"time":210618.16997604174,"duration":437.5,"noteNumber":35,"velocity":100,"programNumber":5},{"time":211118.16997604174,"duration":187.5,"noteNumber":35,"velocity":100,"programNumber":5},{"time":211368.16997604174,"duration":187.5,"noteNumber":35,"velocity":100,"programNumber":5},{"time":211618.16997604174,"duration":500,"noteNumber":28,"velocity":100,"programNumber":5},{"time":215868.16997604174,"duration":500,"noteNumber":66,"velocity":100,"programNumber":5},{"time":216368.16997604174,"duration":250,"noteNumber":68,"velocity":100,"programNumber":5},{"time":216618.16997604174,"duration":500,"noteNumber":64,"velocity":100,"programNumber":5},{"time":217118.16997604174,"duration":750,"noteNumber":68,"velocity":100,"programNumber":5},{"time":217868.16997604174,"duration":500,"noteNumber":66,"velocity":100,"programNumber":5},{"time":218368.16997604174,"duration":250,"noteNumber":64,"velocity":100,"programNumber":5},{"time":218618.16997604174,"duration":750,"noteNumber":61,"velocity":100,"programNumber":5},{"time":219868.16997604174,"duration":250,"noteNumber":64,"velocity":100,"programNumber":5},{"time":220368.16997604174,"duration":500,"noteNumber":61,"velocity":100,"programNumber":5},{"time":220868.16997604174,"duration":250,"noteNumber":64,"velocity":100,"programNumber":5},{"time":221368.16997604174,"duration":500,"noteNumber":61,"velocity":100,"programNumber":5},{"time":221868.16997604174,"duration":250,"noteNumber":64,"velocity":100,"programNumber":5},{"time":222368.16997604174,"duration":250,"noteNumber":61,"velocity":100,"programNumber":5},{"time":222618.16997604174,"duration":500,"noteNumber":64,"velocity":100,"programNumber":5},{"time":223118.16997604174,"duration":750,"noteNumber":66,"velocity":100,"programNumber":5},{"time":223868.16997604174,"duration":500,"noteNumber":66,"velocity":100,"programNumber":5},{"time":224368.16997604174,"duration":250,"noteNumber":68,"velocity":100,"programNumber":5},{"time":224618.16997604174,"duration":500,"noteNumber":64,"velocity":100,"programNumber":5},{"time":225118.16997604174,"duration":500,"noteNumber":68,"velocity":100,"programNumber":5},{"time":225868.16997604174,"duration":250,"noteNumber":66,"velocity":100,"programNumber":5},{"time":226368.16997604174,"duration":250,"noteNumber":64,"velocity":100,"programNumber":5},{"time":226618.16997604174,"duration":500,"noteNumber":61,"velocity":100,"programNumber":5},{"time":227118.16997604174,"duration":500,"noteNumber":61,"velocity":100,"programNumber":5},{"time":227868.16997604174,"duration":500,"noteNumber":69,"velocity":100,"programNumber":5},{"time":228368.16997604174,"duration":500,"noteNumber":69,"velocity":100,"programNumber":5},{"time":228868.16997604174,"duration":500,"noteNumber":69,"velocity":100,"programNumber":5},{"time":229368.16997604174,"duration":250,"noteNumber":69,"velocity":100,"programNumber":5},{"time":229618.16997604174,"duration":500,"noteNumber":69,"velocity":100,"programNumber":5},{"time":230118.16997604174,"duration":500,"noteNumber":68,"velocity":100,"programNumber":5},{"time":230618.16997604174,"duration":500,"noteNumber":66,"velocity":100,"programNumber":5},{"time":231118.16997604174,"duration":750,"noteNumber":64,"velocity":100,"programNumber":5},{"time":231868.16997604174,"duration":500,"noteNumber":66,"velocity":100,"programNumber":5},{"time":232368.16997604174,"duration":250,"noteNumber":68,"velocity":100,"programNumber":5},{"time":232618.16997604174,"duration":500,"noteNumber":64,"velocity":100,"programNumber":5},{"time":233118.16997604174,"duration":750,"noteNumber":68,"velocity":100,"programNumber":5},{"time":233868.16997604174,"duration":500,"noteNumber":66,"velocity":100,"programNumber":5},{"time":234368.16997604174,"duration":250,"noteNumber":64,"velocity":100,"programNumber":5},{"time":234618.16997604174,"duration":500,"noteNumber":61,"velocity":100,"programNumber":5},{"time":235118.16997604174,"duration":500,"noteNumber":61,"velocity":100,"programNumber":5},{"time":235868.16997604174,"duration":500,"noteNumber":64,"velocity":100,"programNumber":5},{"time":236368.16997604174,"duration":250,"noteNumber":61,"velocity":100,"programNumber":5},{"time":236618.16997604174,"duration":500,"noteNumber":64,"velocity":100,"programNumber":5},{"time":237118.16997604174,"duration":500,"noteNumber":61,"velocity":100,"programNumber":5},{"time":237868.16997604174,"duration":250,"noteNumber":64,"velocity":100,"programNumber":5},{"time":238118.16997604174,"duration":500,"noteNumber":61,"velocity":100,"programNumber":5},{"time":238618.16997604174,"duration":500,"noteNumber":64,"velocity":100,"programNumber":5},{"time":239118.16997604174,"duration":500,"noteNumber":66,"velocity":100,"programNumber":5},{"time":239868.16997604174,"duration":500,"noteNumber":66,"velocity":100,"programNumber":5},{"time":240368.16997604174,"duration":250,"noteNumber":68,"velocity":100,"programNumber":5},{"time":240618.16997604174,"duration":500,"noteNumber":64,"velocity":100,"programNumber":5},{"time":241118.16997604174,"duration":250,"noteNumber":68,"velocity":100,"programNumber":5},{"time":241368.16997604174,"duration":500,"noteNumber":66,"velocity":100,"programNumber":5},{"time":241868.16997604174,"duration":250,"noteNumber":64,"velocity":100,"programNumber":5},{"time":242118.16997604174,"duration":1000,"noteNumber":61,"velocity":100,"programNumber":5},{"time":243868.16997604174,"duration":500,"noteNumber":64,"velocity":100,"programNumber":5},{"time":244368.16997604174,"duration":500,"noteNumber":61,"velocity":100,"programNumber":5},{"time":244868.16997604174,"duration":250,"noteNumber":64,"velocity":100,"programNumber":5},{"time":245118.16997604174,"duration":750,"noteNumber":61,"velocity":100,"programNumber":5},{"time":245868.16997604174,"duration":250,"noteNumber":66,"velocity":100,"programNumber":5},{"time":246118.16997604174,"duration":750,"noteNumber":66,"velocity":100,"programNumber":5},{"time":246868.16997604174,"duration":500,"noteNumber":66,"velocity":100,"programNumber":5},{"time":247368.16997604174,"duration":4499.479166666657,"noteNumber":64,"velocity":100,"programNumber":5}]]}