{"tracks":[[{"time":18750.015,"duration":389.6100000000006,"noteNumber":40,"velocity":117,"programNumber":27},{"time":19139.625,"duration":389.6100000000006,"noteNumber":42,"velocity":117,"programNumber":27},{"time":19529.235,"duration":389.6100000000006,"noteNumber":43,"velocity":117,"programNumber":27},{"time":19918.845,"duration":389.6100000000006,"noteNumber":45,"velocity":117,"programNumber":27},{"time":20308.455,"duration":389.6100000000006,"noteNumber":43,"velocity":117,"programNumber":27},{"time":20698.065000000002,"duration":389.6100000000006,"noteNumber":42,"velocity":89,"programNumber":27},{"time":21087.675000000003,"duration":389.6100000000006,"noteNumber":40,"velocity":115,"programNumber":27},{"time":21477.285000000003,"duration":389.6100000000006,"noteNumber":40,"velocity":110,"programNumber":27},{"time":21866.895000000004,"duration":389.6100000000006,"noteNumber":39,"velocity":101,"programNumber":27},{"time":22256.505000000005,"duration":389.6100000000006,"noteNumber":40,"velocity":110,"programNumber":27},{"time":22646.115000000005,"duration":389.6100000000006,"noteNumber":42,"velocity":115,"programNumber":27},{"time":23035.725000000006,"duration":202.921875,"noteNumber":40,"velocity":115,"programNumber":27},{"time":23230.530000000006,"duration":929.3821874999994,"noteNumber":39,"velocity":101,"programNumber":27},{"time":24983.775000000005,"duration":389.6100000000006,"noteNumber":40,"velocity":117,"programNumber":27},{"time":25373.385000000006,"duration":389.6100000000006,"noteNumber":42,"velocity":117,"programNumber":27},{"time":25762.995000000006,"duration":389.6100000000006,"noteNumber":43,"velocity":117,"programNumber":27},{"time":26152.605000000007,"duration":194.8050000000003,"noteNumber":45,"velocity":101,"programNumber":27},{"time":26347.410000000007,"duration":389.6100000000006,"noteNumber":43,"velocity":117,"programNumber":27},{"time":26737.020000000008,"duration":389.6100000000006,"noteNumber":42,"velocity":110,"programNumber":27},{"time":27126.63000000001,"duration":320.6165624999994,"noteNumber":40,"velocity":117,"programNumber":27},{"time":27516.24000000001,"duration":389.6100000000006,"noteNumber":40,"velocity":110,"programNumber":27},{"time":27905.85000000001,"duration":389.6100000000006,"noteNumber":39,"velocity":97,"programNumber":27},{"time":28295.46000000001,"duration":389.6100000000006,"noteNumber":40,"velocity":115,"programNumber":27},{"time":28685.07000000001,"duration":389.6100000000006,"noteNumber":42,"velocity":115,"programNumber":27},{"time":29074.68000000001,"duration":389.6100000000006,"noteNumber":40,"velocity":110,"programNumber":27},{"time":29464.29000000001,"duration":1099.8365625000006,"noteNumber":39,"velocity":84,"programNumber":27},{"time":31217.53500000001,"duration":267.8568750000013,"noteNumber":52,"velocity":117,"programNumber":27},{"time":31607.14500000001,"duration":344.96718749999854,"noteNumber":50,"velocity":117,"programNumber":27},{"time":31996.75500000001,"duration":129.86999999999898,"noteNumber":50,"velocity":117,"programNumber":27},{"time":32386.36500000001,"duration":324.6749999999993,"noteNumber":43,"velocity":105,"programNumber":27},{"time":32775.975000000006,"duration":194.8050000000003,"noteNumber":43,"velocity":105,"programNumber":27},{"time":32970.780000000006,"duration":194.8050000000003,"noteNumber":45,"velocity":111,"programNumber":27},{"time":33360.39000000001,"duration":129.87000000000262,"noteNumber":45,"velocity":117,"programNumber":27},{"time":33750.00000000001,"duration":446.42812499999854,"noteNumber":47,"velocity":117,"programNumber":27},{"time":34334.41500000001,"duration":235.38937499999884,"noteNumber":47,"velocity":117,"programNumber":27},{"time":34724.02500000001,"duration":194.8050000000003,"noteNumber":47,"velocity":117,"programNumber":27},{"time":34918.83000000001,"duration":194.8050000000003,"noteNumber":45,"velocity":86,"programNumber":27},{"time":35113.63500000001,"duration":129.87000000000262,"noteNumber":43,"velocity":101,"programNumber":27},{"time":35308.44000000001,"duration":1331.1675000000032,"noteNumber":47,"velocity":117,"programNumber":27},{"time":37451.29500000001,"duration":267.8568749999977,"noteNumber":52,"velocity":117,"programNumber":27},{"time":37840.90500000001,"duration":344.96718749999854,"noteNumber":50,"velocity":117,"programNumber":27},{"time":38230.515000000014,"duration":129.87000000000262,"noteNumber":50,"velocity":117,"programNumber":27},{"time":38620.125000000015,"duration":324.6750000000029,"noteNumber":43,"velocity":117,"programNumber":27},{"time":39009.735000000015,"duration":121.75312500000291,"noteNumber":43,"velocity":101,"programNumber":27},{"time":39204.540000000015,"duration":324.6750000000029,"noteNumber":45,"velocity":111,"programNumber":27},{"time":39594.150000000016,"duration":194.8050000000003,"noteNumber":45,"velocity":117,"programNumber":27},{"time":39983.76000000002,"duration":223.2140625000029,"noteNumber":47,"velocity":117,"programNumber":27},{"time":40373.37000000002,"duration":385.5515624999971,"noteNumber":47,"velocity":117,"programNumber":27},{"time":40957.78500000001,"duration":194.8050000000003,"noteNumber":47,"velocity":117,"programNumber":27},{"time":41152.59000000001,"duration":194.8050000000003,"noteNumber":45,"velocity":78,"programNumber":27},{"time":41347.39500000001,"duration":133.92843749999884,"noteNumber":43,"velocity":101,"programNumber":27},{"time":41542.20000000001,"duration":1517.8556249999965,"noteNumber":47,"velocity":117,"programNumber":27},{"time":43685.05500000001,"duration":389.6100000000006,"noteNumber":40,"velocity":115,"programNumber":27},{"time":44074.66500000001,"duration":389.6100000000006,"noteNumber":42,"velocity":94,"programNumber":27},{"time":44464.27500000001,"duration":389.6100000000006,"noteNumber":43,"velocity":105,"programNumber":27},{"time":44853.88500000001,"duration":194.8050000000003,"noteNumber":45,"velocity":97,"programNumber":27},{"time":45048.69000000001,"duration":389.6100000000006,"noteNumber":43,"velocity":93,"programNumber":27},{"time":45438.30000000001,"duration":409.9021875000035,"noteNumber":42,"velocity":92,"programNumber":27},{"time":45827.91000000001,"duration":292.2075000000041,"noteNumber":40,"velocity":97,"programNumber":27},{"time":46217.52000000001,"duration":389.6100000000006,"noteNumber":40,"velocity":115,"programNumber":27},{"time":46607.13000000001,"duration":263.79843750000146,"noteNumber":39,"velocity":110,"programNumber":27},{"time":46996.74000000001,"duration":263.79843750000146,"noteNumber":40,"velocity":110,"programNumber":27},{"time":47386.35000000001,"duration":353.08406249999825,"noteNumber":42,"velocity":115,"programNumber":27},{"time":47970.765000000014,"duration":194.8050000000003,"noteNumber":40,"velocity":117,"programNumber":27},{"time":48165.570000000014,"duration":1083.6028125000012,"noteNumber":39,"velocity":79,"programNumber":27},{"time":49918.81500000002,"duration":389.6100000000006,"noteNumber":40,"velocity":115,"programNumber":27},{"time":50308.42500000002,"duration":389.6100000000006,"noteNumber":42,"velocity":101,"programNumber":27},{"time":50698.03500000002,"duration":194.8050000000003,"noteNumber":43,"velocity":101,"programNumber":27},{"time":51087.64500000002,"duration":194.8050000000003,"noteNumber":45,"velocity":105,"programNumber":27},{"time":51282.45000000002,"duration":389.6100000000006,"noteNumber":43,"velocity":83,"programNumber":27},{"time":51672.06000000002,"duration":389.6100000000006,"noteNumber":42,"velocity":94,"programNumber":27},{"time":52061.67000000002,"duration":194.8050000000003,"noteNumber":40,"velocity":105,"programNumber":27},{"time":52451.28000000002,"duration":409.9021875000035,"noteNumber":40,"velocity":110,"programNumber":27},{"time":52840.89000000002,"duration":332.7918750000026,"noteNumber":39,"velocity":110,"programNumber":27},{"time":53230.50000000002,"duration":389.6100000000006,"noteNumber":40,"velocity":115,"programNumber":27},{"time":53620.11000000002,"duration":292.2074999999968,"noteNumber":42,"velocity":115,"programNumber":27},{"time":54009.720000000016,"duration":198.86343750000378,"noteNumber":40,"velocity":117,"programNumber":27},{"time":54204.525000000016,"duration":1306.816875000004,"noteNumber":39,"velocity":97,"programNumber":27},{"time":56152.57500000002,"duration":194.8050000000003,"noteNumber":52,"velocity":117,"programNumber":27},{"time":56542.18500000002,"duration":344.96718749999854,"noteNumber":50,"velocity":117,"programNumber":27},{"time":56931.79500000002,"duration":101.4609375,"noteNumber":50,"velocity":111,"programNumber":27},{"time":57126.60000000002,"duration":105.51937500000349,"noteNumber":50,"velocity":80,"programNumber":27},{"time":57321.40500000002,"duration":288.1490625000006,"noteNumber":43,"velocity":111,"programNumber":27},{"time":57711.01500000002,"duration":89.2856249999968,"noteNumber":43,"velocity":101,"programNumber":27},{"time":57905.82000000002,"duration":235.38937499999884,"noteNumber":45,"velocity":117,"programNumber":27},{"time":58295.43000000002,"duration":194.8050000000003,"noteNumber":45,"velocity":117,"programNumber":27},{"time":58685.04000000002,"duration":482.9540625000009,"noteNumber":47,"velocity":117,"programNumber":27},{"time":59269.45500000002,"duration":198.8634374999965,"noteNumber":47,"velocity":117,"programNumber":27},{"time":59659.06500000002,"duration":194.8050000000003,"noteNumber":47,"velocity":117,"programNumber":27},{"time":59853.87000000002,"duration":194.8050000000003,"noteNumber":45,"velocity":90,"programNumber":27},{"time":60048.67500000002,"duration":105.51937500000349,"noteNumber":43,"velocity":97,"programNumber":27},{"time":60243.48000000002,"duration":1408.2778124999968,"noteNumber":47,"velocity":117,"programNumber":27},{"time":62386.335000000014,"duration":109.57781249999971,"noteNumber":52,"velocity":117,"programNumber":27},{"time":62581.140000000014,"duration":133.92843749999884,"noteNumber":52,"velocity":101,"programNumber":27},{"time":62775.945000000014,"duration":332.7918750000026,"noteNumber":50,"velocity":117,"programNumber":27},{"time":63165.555000000015,"duration":146.10375000000204,"noteNumber":50,"velocity":117,"programNumber":27},{"time":63360.360000000015,"duration":263.79843750000146,"noteNumber":43,"velocity":111,"programNumber":27},{"time":63749.970000000016,"duration":519.4800000000032,"noteNumber":43,"velocity":105,"programNumber":27},{"time":64334.38500000002,"duration":239.44781250000233,"noteNumber":45,"velocity":117,"programNumber":27},{"time":64723.99500000002,"duration":206.9803125000035,"noteNumber":45,"velocity":117,"programNumber":27},{"time":65113.60500000002,"duration":292.2074999999968,"noteNumber":47,"velocity":117,"programNumber":27},{"time":65503.21500000001,"duration":97.40249999999651,"noteNumber":47,"velocity":115,"programNumber":27},{"time":65892.82500000001,"duration":194.80499999999302,"noteNumber":47,"velocity":117,"programNumber":27},{"time":66087.63,"duration":194.80499999999302,"noteNumber":45,"velocity":88,"programNumber":27},{"time":66282.435,"duration":105.51937500000349,"noteNumber":43,"velocity":117,"programNumber":27},{"time":66477.24,"duration":1501.621874999997,"noteNumber":47,"velocity":117,"programNumber":27},{"time":68620.095,"duration":389.6100000000006,"noteNumber":40,"velocity":115,"programNumber":27},{"time":69009.705,"duration":389.6100000000006,"noteNumber":42,"velocity":110,"programNumber":27},{"time":69399.315,"duration":389.6100000000006,"noteNumber":43,"velocity":111,"programNumber":27},{"time":69788.925,"duration":389.6100000000006,"noteNumber":45,"velocity":111,"programNumber":27},{"time":70178.535,"duration":389.6100000000006,"noteNumber":43,"velocity":97,"programNumber":27},{"time":70568.145,"duration":389.6100000000006,"noteNumber":42,"velocity":92,"programNumber":27},{"time":70957.755,"duration":292.2075000000041,"noteNumber":40,"velocity":110,"programNumber":27},{"time":71347.365,"duration":389.6100000000006,"noteNumber":40,"velocity":115,"programNumber":27},{"time":71736.975,"duration":292.2075000000041,"noteNumber":39,"velocity":97,"programNumber":27},{"time":72126.585,"duration":389.6100000000006,"noteNumber":40,"velocity":105,"programNumber":27},{"time":72516.195,"duration":275.97375000000466,"noteNumber":42,"velocity":97,"programNumber":27},{"time":72905.80500000001,"duration":235.38937499999884,"noteNumber":40,"velocity":117,"programNumber":27},{"time":73100.61,"duration":1140.4209375000064,"noteNumber":39,"velocity":89,"programNumber":27},{"time":74853.85500000001,"duration":389.6100000000006,"noteNumber":40,"velocity":115,"programNumber":27},{"time":75243.46500000001,"duration":389.6100000000006,"noteNumber":42,"velocity":110,"programNumber":27},{"time":75633.07500000001,"duration":292.2075000000041,"noteNumber":43,"velocity":111,"programNumber":27},{"time":76022.68500000001,"duration":389.6100000000006,"noteNumber":45,"velocity":105,"programNumber":27},{"time":76412.29500000001,"duration":389.6100000000006,"noteNumber":43,"velocity":117,"programNumber":27},{"time":76801.90500000001,"duration":389.6100000000006,"noteNumber":42,"velocity":97,"programNumber":27},{"time":77191.51500000001,"duration":389.6100000000006,"noteNumber":40,"velocity":92,"programNumber":27},{"time":77581.12500000001,"duration":198.8634374999965,"noteNumber":40,"velocity":110,"programNumber":27},{"time":77775.93000000001,"duration":620.9409375000105,"noteNumber":39,"velocity":101,"programNumber":27},{"time":78360.34500000002,"duration":194.80500000000757,"noteNumber":40,"velocity":110,"programNumber":27},{"time":78749.95500000002,"duration":263.7984374999942,"noteNumber":42,"velocity":117,"programNumber":27},{"time":79139.56500000002,"duration":239.44781249998778,"noteNumber":40,"velocity":117,"programNumber":27},{"time":79334.37000000001,"duration":1140.4209374999919,"noteNumber":39,"velocity":105,"programNumber":27},{"time":81087.615,"duration":105.51937500000349,"noteNumber":52,"velocity":117,"programNumber":27},{"time":81282.42000000001,"duration":129.86999999999534,"noteNumber":52,"velocity":101,"programNumber":27},{"time":81477.225,"duration":275.97375000000466,"noteNumber":50,"velocity":117,"programNumber":27},{"time":81866.835,"duration":97.40249999999651,"noteNumber":50,"velocity":117,"programNumber":27},{"time":82256.445,"duration":316.5581249999959,"noteNumber":43,"velocity":101,"programNumber":27},{"time":82646.05500000001,"duration":117.69468749999942,"noteNumber":43,"velocity":101,"programNumber":27},{"time":82840.86,"duration":478.89562500000466,"noteNumber":45,"velocity":105,"programNumber":27},{"time":83425.27500000001,"duration":194.80499999999302,"noteNumber":45,"velocity":117,"programNumber":27},{"time":83620.08,"duration":198.8634374999965,"noteNumber":47,"velocity":115,"programNumber":27},{"time":84009.69,"duration":227.2725000000064,"noteNumber":47,"velocity":117,"programNumber":27},{"time":84399.3,"duration":48.701249999998254,"noteNumber":47,"velocity":117,"programNumber":27},{"time":84594.105,"duration":194.80499999999302,"noteNumber":47,"velocity":115,"programNumber":27},{"time":84788.90999999999,"duration":211.03874999999243,"noteNumber":45,"velocity":82,"programNumber":27},{"time":84983.71499999998,"duration":117.69468749999942,"noteNumber":43,"velocity":93,"programNumber":27},{"time":85178.51999999997,"duration":1018.6678125000035,"noteNumber":47,"velocity":101,"programNumber":27},{"time":87126.56999999998,"duration":48.701249999998254,"noteNumber":52,"velocity":115,"programNumber":27},{"time":87321.37499999997,"duration":300.3243749999965,"noteNumber":52,"velocity":115,"programNumber":27},{"time":87710.98499999997,"duration":304.3828125,"noteNumber":50,"velocity":117,"programNumber":27},{"time":88100.59499999997,"duration":170.45437500000116,"noteNumber":50,"velocity":117,"programNumber":27},{"time":88490.20499999997,"duration":267.8568749999977,"noteNumber":43,"velocity":105,"programNumber":27},{"time":88879.81499999997,"duration":105.51937500000349,"noteNumber":43,"velocity":111,"programNumber":27},{"time":89074.61999999998,"duration":170.45437500000116,"noteNumber":45,"velocity":117,"programNumber":27},{"time":89464.22999999998,"duration":223.2140625000029,"noteNumber":45,"velocity":117,"programNumber":27},{"time":89853.83999999998,"duration":438.31124999999884,"noteNumber":47,"velocity":117,"programNumber":27},{"time":90438.25499999998,"duration":223.2140625000029,"noteNumber":47,"velocity":117,"programNumber":27},{"time":90827.86499999998,"duration":194.80499999999302,"noteNumber":47,"velocity":117,"programNumber":27},{"time":91022.66999999997,"duration":194.80499999999302,"noteNumber":45,"velocity":97,"programNumber":27},{"time":91217.47499999996,"duration":105.51937500000349,"noteNumber":43,"velocity":105,"programNumber":27},{"time":91412.27999999997,"duration":1493.5050000000047,"noteNumber":47,"velocity":117,"programNumber":27},{"time":93555.13499999998,"duration":389.6100000000006,"noteNumber":40,"velocity":105,"programNumber":27},{"time":93944.74499999998,"duration":389.6100000000006,"noteNumber":42,"velocity":101,"programNumber":27},{"time":94334.35499999998,"duration":243.50625000000582,"noteNumber":43,"velocity":97,"programNumber":27},{"time":94723.96499999998,"duration":223.21406249998836,"noteNumber":45,"velocity":101,"programNumber":27},{"time":94918.76999999997,"duration":487.0124999999971,"noteNumber":43,"velocity":101,"programNumber":27},{"time":95503.18499999997,"duration":389.6100000000006,"noteNumber":42,"velocity":85,"programNumber":27},{"time":95892.79499999997,"duration":389.6100000000006,"noteNumber":40,"velocity":97,"programNumber":27},{"time":96282.40499999997,"duration":389.6100000000006,"noteNumber":40,"velocity":92,"programNumber":27},{"time":96672.01499999997,"duration":389.6100000000006,"noteNumber":39,"velocity":85,"programNumber":27},{"time":97061.62499999997,"duration":389.6100000000006,"noteNumber":40,"velocity":97,"programNumber":27},{"time":97451.23499999997,"duration":194.80499999999302,"noteNumber":42,"velocity":87,"programNumber":27},{"time":97840.84499999996,"duration":227.27249999999185,"noteNumber":40,"velocity":105,"programNumber":27},{"time":98035.64999999995,"duration":1270.2909375000017,"noteNumber":39,"velocity":87,"programNumber":27},{"time":99788.89499999995,"duration":389.6100000000006,"noteNumber":40,"velocity":105,"programNumber":27},{"time":100178.50499999995,"duration":389.6100000000006,"noteNumber":42,"velocity":105,"programNumber":27},{"time":100568.11499999995,"duration":389.6100000000006,"noteNumber":43,"velocity":97,"programNumber":27},{"time":100957.72499999995,"duration":194.80499999999302,"noteNumber":45,"velocity":88,"programNumber":27},{"time":101152.52999999994,"duration":600.648749999993,"noteNumber":43,"velocity":97,"programNumber":27},{"time":101736.94499999993,"duration":389.6100000000006,"noteNumber":42,"velocity":89,"programNumber":27},{"time":102126.55499999993,"duration":316.5581249999959,"noteNumber":40,"velocity":94,"programNumber":27},{"time":102516.16499999994,"duration":389.6100000000006,"noteNumber":40,"velocity":105,"programNumber":27},{"time":102905.77499999994,"duration":422.0774999999994,"noteNumber":39,"velocity":87,"programNumber":27},{"time":103295.38499999994,"duration":292.2075000000041,"noteNumber":40,"velocity":97,"programNumber":27},{"time":103684.99499999994,"duration":328.7334375000064,"noteNumber":42,"velocity":101,"programNumber":27},{"time":104074.60499999994,"duration":194.80499999999302,"noteNumber":40,"velocity":110,"programNumber":27},{"time":104269.40999999993,"duration":1193.1806249999936,"noteNumber":39,"velocity":105,"programNumber":27},{"time":106022.65499999993,"duration":267.8568749999977,"noteNumber":52,"velocity":117,"programNumber":27},{"time":106412.26499999993,"duration":304.3828125,"noteNumber":50,"velocity":117,"programNumber":27},{"time":106801.87499999993,"duration":194.80499999999302,"noteNumber":50,"velocity":117,"programNumber":27},{"time":107191.48499999991,"duration":304.3828125,"noteNumber":43,"velocity":105,"programNumber":27},{"time":107581.09499999991,"duration":133.92843749999884,"noteNumber":43,"velocity":111,"programNumber":27},{"time":107775.8999999999,"duration":206.9803125000035,"noteNumber":45,"velocity":105,"programNumber":27},{"time":108165.50999999991,"duration":239.44781250000233,"noteNumber":45,"velocity":117,"programNumber":27},{"time":108555.11999999991,"duration":470.7787499999977,"noteNumber":47,"velocity":117,"programNumber":27},{"time":109139.5349999999,"duration":194.80499999999302,"noteNumber":47,"velocity":105,"programNumber":27},{"time":109529.14499999989,"duration":194.80499999999302,"noteNumber":47,"velocity":117,"programNumber":27},{"time":109723.94999999988,"duration":194.80499999999302,"noteNumber":45,"velocity":88,"programNumber":27},{"time":109918.75499999987,"duration":105.51937500000349,"noteNumber":43,"velocity":105,"programNumber":27},{"time":110113.55999999988,"duration":1274.3493750000052,"noteNumber":47,"velocity":117,"programNumber":27},{"time":112256.41499999989,"duration":231.33093749999534,"noteNumber":52,"velocity":117,"programNumber":27},{"time":112646.02499999989,"duration":336.85031249999884,"noteNumber":50,"velocity":117,"programNumber":27},{"time":113035.6349999999,"duration":215.09718749999593,"noteNumber":50,"velocity":117,"programNumber":27},{"time":113425.2449999999,"duration":316.5581249999959,"noteNumber":43,"velocity":117,"programNumber":27},{"time":113814.8549999999,"duration":121.75312500000291,"noteNumber":43,"velocity":101,"programNumber":27},{"time":114009.6599999999,"duration":275.97375000000466,"noteNumber":45,"velocity":111,"programNumber":27},{"time":114399.2699999999,"duration":519.4799999999959,"noteNumber":45,"velocity":117,"programNumber":27},{"time":114983.6849999999,"duration":239.44781250000233,"noteNumber":47,"velocity":117,"programNumber":27},{"time":115373.2949999999,"duration":198.8634374999965,"noteNumber":47,"velocity":117,"programNumber":27},{"time":115762.9049999999,"duration":194.80499999999302,"noteNumber":47,"velocity":117,"programNumber":27},{"time":115957.70999999989,"duration":194.80499999999302,"noteNumber":45,"velocity":101,"programNumber":27},{"time":116152.51499999988,"duration":117.69468749999942,"noteNumber":43,"velocity":111,"programNumber":27},{"time":116347.31999999988,"duration":1493.5050000000047,"noteNumber":47,"velocity":117,"programNumber":27},{"time":118490.17499999989,"duration":389.6100000000006,"noteNumber":40,"velocity":117,"programNumber":27},{"time":118879.78499999989,"duration":389.6100000000006,"noteNumber":42,"velocity":117,"programNumber":27},{"time":119269.39499999989,"duration":389.6100000000006,"noteNumber":43,"velocity":117,"programNumber":27},{"time":119659.00499999989,"duration":389.6100000000006,"noteNumber":45,"velocity":117,"programNumber":27},{"time":120048.61499999989,"duration":389.6100000000006,"noteNumber":43,"velocity":117,"programNumber":27},{"time":120438.22499999989,"duration":389.6100000000006,"noteNumber":42,"velocity":89,"programNumber":27},{"time":120827.83499999989,"duration":389.6100000000006,"noteNumber":40,"velocity":115,"programNumber":27},{"time":121217.44499999989,"duration":389.6100000000006,"noteNumber":40,"velocity":110,"programNumber":27},{"time":121607.05499999989,"duration":389.6100000000006,"noteNumber":39,"velocity":101,"programNumber":27},{"time":121996.66499999989,"duration":389.6100000000006,"noteNumber":40,"velocity":110,"programNumber":27},{"time":122386.27499999989,"duration":389.6100000000006,"noteNumber":42,"velocity":115,"programNumber":27},{"time":122775.8849999999,"duration":202.921875,"noteNumber":40,"velocity":115,"programNumber":27},{"time":122970.68999999989,"duration":929.382187500014,"noteNumber":39,"velocity":101,"programNumber":27},{"time":124723.9349999999,"duration":389.6100000000006,"noteNumber":40,"velocity":117,"programNumber":27},{"time":125113.5449999999,"duration":389.6100000000006,"noteNumber":42,"velocity":117,"programNumber":27},{"time":125503.1549999999,"duration":389.6100000000006,"noteNumber":43,"velocity":117,"programNumber":27},{"time":125892.7649999999,"duration":194.80499999999302,"noteNumber":45,"velocity":101,"programNumber":27},{"time":126087.56999999989,"duration":389.6100000000006,"noteNumber":43,"velocity":117,"programNumber":27},{"time":126477.17999999989,"duration":389.6100000000006,"noteNumber":42,"velocity":110,"programNumber":27},{"time":126866.78999999989,"duration":320.6165624999994,"noteNumber":40,"velocity":117,"programNumber":27},{"time":127256.39999999989,"duration":389.6100000000006,"noteNumber":40,"velocity":110,"programNumber":27},{"time":127646.0099999999,"duration":389.6100000000006,"noteNumber":39,"velocity":97,"programNumber":27},{"time":128035.6199999999,"duration":389.6100000000006,"noteNumber":40,"velocity":115,"programNumber":27},{"time":128425.2299999999,"duration":389.6100000000006,"noteNumber":42,"velocity":115,"programNumber":27},{"time":128814.8399999999,"duration":389.6100000000006,"noteNumber":40,"velocity":110,"programNumber":27},{"time":129204.4499999999,"duration":1099.8365625000006,"noteNumber":39,"velocity":84,"programNumber":27},{"time":130957.69499999989,"duration":267.8568749999977,"noteNumber":52,"velocity":117,"programNumber":27},{"time":131347.30499999988,"duration":344.9671875000058,"noteNumber":50,"velocity":117,"programNumber":27},{"time":131736.9149999999,"duration":129.86999999999534,"noteNumber":50,"velocity":117,"programNumber":27},{"time":132126.52499999988,"duration":324.67499999998836,"noteNumber":43,"velocity":105,"programNumber":27},{"time":132516.13499999986,"duration":194.80499999999302,"noteNumber":43,"velocity":105,"programNumber":27},{"time":132710.93999999986,"duration":194.80499999999302,"noteNumber":45,"velocity":111,"programNumber":27},{"time":133100.54999999984,"duration":129.86999999999534,"noteNumber":45,"velocity":117,"programNumber":27},{"time":133490.15999999983,"duration":446.4281250000058,"noteNumber":47,"velocity":117,"programNumber":27},{"time":134074.57499999984,"duration":235.38937499999884,"noteNumber":47,"velocity":117,"programNumber":27},{"time":134464.18499999982,"duration":194.80499999999302,"noteNumber":47,"velocity":117,"programNumber":27},{"time":134658.98999999982,"duration":194.80499999999302,"noteNumber":45,"velocity":86,"programNumber":27},{"time":134853.7949999998,"duration":129.86999999999534,"noteNumber":43,"velocity":101,"programNumber":27},{"time":135048.5999999998,"duration":1331.1675000000105,"noteNumber":47,"velocity":117,"programNumber":27},{"time":137191.4549999998,"duration":267.8568749999977,"noteNumber":52,"velocity":117,"programNumber":27},{"time":137581.0649999998,"duration":344.9671875000058,"noteNumber":50,"velocity":117,"programNumber":27},{"time":137970.6749999998,"duration":129.86999999999534,"noteNumber":50,"velocity":117,"programNumber":27},{"time":138360.2849999998,"duration":324.67499999998836,"noteNumber":43,"velocity":117,"programNumber":27},{"time":138749.8949999998,"duration":121.75312499998836,"noteNumber":43,"velocity":101,"programNumber":27},{"time":138944.69999999978,"duration":324.67499999998836,"noteNumber":45,"velocity":111,"programNumber":27},{"time":139334.30999999976,"duration":194.80499999999302,"noteNumber":45,"velocity":117,"programNumber":27},{"time":139723.91999999975,"duration":223.21406249998836,"noteNumber":47,"velocity":117,"programNumber":27},{"time":140113.52999999974,"duration":385.55156250001164,"noteNumber":47,"velocity":117,"programNumber":27},{"time":140697.94499999975,"duration":194.80499999999302,"noteNumber":47,"velocity":117,"programNumber":27},{"time":140892.74999999974,"duration":194.80499999999302,"noteNumber":45,"velocity":78,"programNumber":27},{"time":141087.55499999973,"duration":133.92843749999884,"noteNumber":43,"velocity":101,"programNumber":27},{"time":141282.35999999972,"duration":1517.8556249999965,"noteNumber":47,"velocity":117,"programNumber":27}]]}