{"tracks":[[{"time":110833.289,"duration":187.5,"noteNumber":66,"velocity":77,"programNumber":22},{"time":111083.289,"duration":187.5,"noteNumber":66,"velocity":77,"programNumber":22},{"time":111333.289,"duration":468.75,"noteNumber":66,"velocity":80,"programNumber":22},{"time":111833.289,"duration":156.25,"noteNumber":64,"velocity":77,"programNumber":22},{"time":112083.289,"duration":156.25,"noteNumber":64,"velocity":77,"programNumber":22},{"time":112333.289,"duration":468.75,"noteNumber":64,"velocity":75,"programNumber":22},{"time":112833.289,"duration":1000,"noteNumber":66,"velocity":79,"programNumber":22},{"time":114833.289,"duration":416.6666666666715,"noteNumber":66,"velocity":75,"programNumber":22},{"time":115333.289,"duration":250,"noteNumber":66,"velocity":79,"programNumber":22},{"time":115666.62233333333,"duration":250,"noteNumber":64,"velocity":77,"programNumber":22},{"time":115999.95566666666,"duration":250,"noteNumber":64,"velocity":77,"programNumber":22},{"time":116333.28899999999,"duration":1000,"noteNumber":64,"velocity":68,"programNumber":22},{"time":118833.28899999999,"duration":208.33333333332848,"noteNumber":64,"velocity":75,"programNumber":22},{"time":119083.28899999999,"duration":208.33333333334303,"noteNumber":66,"velocity":80,"programNumber":22},{"time":119333.289,"duration":416.6666666666715,"noteNumber":66,"velocity":77,"programNumber":22},{"time":119833.289,"duration":156.25,"noteNumber":64,"velocity":75,"programNumber":22},{"time":120083.289,"duration":156.25,"noteNumber":64,"velocity":75,"programNumber":22},{"time":120333.289,"duration":468.75,"noteNumber":64,"velocity":77,"programNumber":22},{"time":120833.289,"duration":208.33333333332848,"noteNumber":64,"velocity":75,"programNumber":22},{"time":121083.289,"duration":416.6666666666715,"noteNumber":66,"velocity":69,"programNumber":22},{"time":122666.62233333335,"duration":208.33333333334303,"noteNumber":66,"velocity":84,"programNumber":22},{"time":122999.95566666669,"duration":208.33333333334303,"noteNumber":66,"velocity":75,"programNumber":22},{"time":123333.28900000003,"duration":468.75,"noteNumber":66,"velocity":78,"programNumber":22},{"time":123833.28900000003,"duration":125,"noteNumber":64,"velocity":75,"programNumber":22},{"time":124083.28900000003,"duration":125,"noteNumber":64,"velocity":75,"programNumber":22},{"time":124333.28900000003,"duration":239.58333333332848,"noteNumber":64,"velocity":78,"programNumber":22},{"time":124583.28900000003,"duration":260.4166666666715,"noteNumber":62,"velocity":63,"programNumber":22},{"time":124833.28900000003,"duration":1000,"noteNumber":59,"velocity":72,"programNumber":22},{"time":126833.28900000003,"duration":208.33333333334303,"noteNumber":66,"velocity":84,"programNumber":22},{"time":127083.28900000005,"duration":208.33333333332848,"noteNumber":66,"velocity":75,"programNumber":22},{"time":127333.28900000005,"duration":416.6666666666715,"noteNumber":66,"velocity":78,"programNumber":22},{"time":127833.28900000005,"duration":208.33333333332848,"noteNumber":64,"velocity":75,"programNumber":22},{"time":128083.28900000006,"duration":125,"noteNumber":62,"velocity":63,"programNumber":22},{"time":128333.28900000006,"duration":416.6666666666715,"noteNumber":62,"velocity":77,"programNumber":22},{"time":128833.28900000006,"duration":208.3333333333576,"noteNumber":64,"velocity":63,"programNumber":22},{"time":129083.28900000009,"duration":500,"noteNumber":66,"velocity":78,"programNumber":22},{"time":130583.28900000009,"duration":125,"noteNumber":62,"velocity":75,"programNumber":22},{"time":130833.28900000009,"duration":125,"noteNumber":66,"velocity":75,"programNumber":22},{"time":131083.2890000001,"duration":208.33333333331393,"noteNumber":66,"velocity":77,"programNumber":22},{"time":131333.28900000008,"duration":312.5,"noteNumber":66,"velocity":79,"programNumber":22},{"time":131666.62233333342,"duration":312.5,"noteNumber":64,"velocity":75,"programNumber":22},{"time":131999.95566666676,"duration":312.4999999999709,"noteNumber":62,"velocity":74,"programNumber":22},{"time":132333.28900000008,"duration":1000,"noteNumber":62,"velocity":72,"programNumber":22},{"time":134583.28900000008,"duration":125,"noteNumber":62,"velocity":75,"programNumber":22},{"time":134833.28900000008,"duration":124.9999999999709,"noteNumber":64,"velocity":75,"programNumber":22},{"time":135083.28900000005,"duration":208.33333333334303,"noteNumber":64,"velocity":75,"programNumber":22},{"time":135333.28900000005,"duration":208.33333333331393,"noteNumber":64,"velocity":78,"programNumber":22},{"time":135583.28900000002,"duration":208.33333333334303,"noteNumber":64,"velocity":77,"programNumber":22},{"time":135833.28900000002,"duration":208.33333333334303,"noteNumber":64,"velocity":75,"programNumber":22},{"time":136083.28900000002,"duration":208.33333333334303,"noteNumber":62,"velocity":74,"programNumber":22},{"time":136333.28900000002,"duration":468.75,"noteNumber":64,"velocity":75,"programNumber":22},{"time":136833.28900000002,"duration":187.5,"noteNumber":62,"velocity":70,"programNumber":22},{"time":137083.289,"duration":260.41666666665697,"noteNumber":64,"velocity":63,"programNumber":22},{"time":137333.289,"duration":500,"noteNumber":66,"velocity":78,"programNumber":22},{"time":138583.289,"duration":125,"noteNumber":64,"velocity":75,"programNumber":22},{"time":138833.289,"duration":124.9999999999709,"noteNumber":66,"velocity":75,"programNumber":22},{"time":139083.28899999996,"duration":208.33333333334303,"noteNumber":66,"velocity":75,"programNumber":22},{"time":139333.28899999996,"duration":302.08333333334303,"noteNumber":66,"velocity":78,"programNumber":22},{"time":139666.6223333333,"duration":302.08333333334303,"noteNumber":64,"velocity":75,"programNumber":22},{"time":139999.95566666665,"duration":302.08333333334303,"noteNumber":64,"velocity":74,"programNumber":22},{"time":140333.289,"duration":125,"noteNumber":64,"velocity":56,"programNumber":22},{"time":140583.289,"duration":625,"noteNumber":66,"velocity":75,"programNumber":22},{"time":142833.289,"duration":124.9999999999709,"noteNumber":66,"velocity":75,"programNumber":22},{"time":143083.28899999996,"duration":208.33333333334303,"noteNumber":66,"velocity":75,"programNumber":22},{"time":143333.28899999996,"duration":416.66666666665697,"noteNumber":67,"velocity":77,"programNumber":22},{"time":143833.28899999996,"duration":125,"noteNumber":66,"velocity":75,"programNumber":22},{"time":144083.28899999996,"duration":125,"noteNumber":66,"velocity":75,"programNumber":22},{"time":144333.28899999996,"duration":416.66666666665697,"noteNumber":67,"velocity":78,"programNumber":22},{"time":144833.28899999996,"duration":125,"noteNumber":64,"velocity":77,"programNumber":22},{"time":145083.28899999996,"duration":520.833333333343,"noteNumber":66,"velocity":75,"programNumber":22},{"time":146583.28899999996,"duration":125,"noteNumber":64,"velocity":75,"programNumber":22},{"time":146833.28899999996,"duration":124.9999999999709,"noteNumber":66,"velocity":75,"programNumber":22},{"time":147083.28899999993,"duration":208.33333333334303,"noteNumber":66,"velocity":77,"programNumber":22},{"time":147333.28899999993,"duration":291.66666666662786,"noteNumber":66,"velocity":78,"programNumber":22},{"time":147666.62233333322,"duration":291.66666666665697,"noteNumber":64,"velocity":75,"programNumber":22},{"time":147999.95566666653,"duration":291.66666666665697,"noteNumber":64,"velocity":74,"programNumber":22},{"time":148333.28899999984,"duration":1000,"noteNumber":64,"velocity":72,"programNumber":22},{"time":151083.28899999984,"duration":125,"noteNumber":62,"velocity":75,"programNumber":22},{"time":151333.28899999984,"duration":125,"noteNumber":64,"velocity":77,"programNumber":22},{"time":151583.28899999984,"duration":208.33333333334303,"noteNumber":64,"velocity":75,"programNumber":22},{"time":151833.28899999984,"duration":125,"noteNumber":64,"velocity":74,"programNumber":22},{"time":152083.28899999984,"duration":125,"noteNumber":62,"velocity":74,"programNumber":22},{"time":152333.28899999984,"duration":250,"noteNumber":64,"velocity":78,"programNumber":22},{"time":152666.6223333332,"duration":249.9999999999709,"noteNumber":64,"velocity":77,"programNumber":22},{"time":152999.9556666665,"duration":250,"noteNumber":64,"velocity":75,"programNumber":22},{"time":153333.28899999984,"duration":124.9999999999709,"noteNumber":66,"velocity":84,"programNumber":22},{"time":153583.28899999982,"duration":187.5,"noteNumber":66,"velocity":74,"programNumber":22},{"time":153833.28899999982,"duration":156.25,"noteNumber":66,"velocity":69,"programNumber":22},{"time":154083.28899999982,"duration":156.25,"noteNumber":66,"velocity":74,"programNumber":22},{"time":154333.28899999982,"duration":249.9999999999709,"noteNumber":66,"velocity":84,"programNumber":22},{"time":154666.62233333313,"duration":250,"noteNumber":66,"velocity":77,"programNumber":22},{"time":154999.95566666647,"duration":250,"noteNumber":66,"velocity":84,"programNumber":22},{"time":155333.28899999982,"duration":249.9999999999709,"noteNumber":66,"velocity":79,"programNumber":22},{"time":155666.62233333313,"duration":250,"noteNumber":64,"velocity":77,"programNumber":22},{"time":155999.95566666647,"duration":250,"noteNumber":64,"velocity":77,"programNumber":22},{"time":156333.28899999982,"duration":208.33333333331393,"noteNumber":64,"velocity":78,"programNumber":22},{"time":156583.2889999998,"duration":208.33333333334303,"noteNumber":62,"velocity":56,"programNumber":22},{"time":156833.2889999998,"duration":1000,"noteNumber":59,"velocity":75,"programNumber":22},{"time":158833.2889999998,"duration":208.33333333331393,"noteNumber":66,"velocity":75,"programNumber":22},{"time":159083.28899999976,"duration":208.33333333334303,"noteNumber":66,"velocity":75,"programNumber":22},{"time":159333.28899999976,"duration":291.66666666665697,"noteNumber":66,"velocity":78,"programNumber":22},{"time":159666.62233333307,"duration":291.66666666665697,"noteNumber":64,"velocity":74,"programNumber":22},{"time":159999.95566666638,"duration":291.66666666665697,"noteNumber":62,"velocity":72,"programNumber":22},{"time":160333.2889999997,"duration":375,"noteNumber":62,"velocity":75,"programNumber":22},{"time":160833.2889999997,"duration":124.9999999999709,"noteNumber":64,"velocity":74,"programNumber":22},{"time":161083.28899999967,"duration":500,"noteNumber":66,"velocity":78,"programNumber":22},{"time":162833.28899999967,"duration":125,"noteNumber":57,"velocity":75,"programNumber":22},{"time":163083.28899999967,"duration":125,"noteNumber":57,"velocity":75,"programNumber":22},{"time":163333.28899999967,"duration":375,"noteNumber":66,"velocity":78,"programNumber":22},{"time":163833.28899999967,"duration":125,"noteNumber":64,"velocity":75,"programNumber":22},{"time":164083.28899999967,"duration":125,"noteNumber":62,"velocity":74,"programNumber":22},{"time":164333.28899999967,"duration":1000,"noteNumber":62,"velocity":72,"programNumber":22},{"time":166833.28899999967,"duration":124.9999999999709,"noteNumber":64,"velocity":75,"programNumber":22},{"time":167083.28899999964,"duration":125,"noteNumber":64,"velocity":75,"programNumber":22},{"time":167333.28899999964,"duration":125,"noteNumber":64,"velocity":77,"programNumber":22},{"time":167583.28899999964,"duration":208.33333333334303,"noteNumber":64,"velocity":75,"programNumber":22},{"time":167833.28899999964,"duration":125,"noteNumber":64,"velocity":74,"programNumber":22},{"time":168083.28899999964,"duration":125,"noteNumber":62,"velocity":74,"programNumber":22},{"time":168333.28899999964,"duration":468.75,"noteNumber":64,"velocity":77,"programNumber":22},{"time":168833.28899999964,"duration":260.41666666665697,"noteNumber":62,"velocity":56,"programNumber":22},{"time":169083.28899999964,"duration":500,"noteNumber":66,"velocity":74,"programNumber":22},{"time":170583.28899999964,"duration":156.2499999999709,"noteNumber":64,"velocity":75,"programNumber":22},{"time":170833.2889999996,"duration":125,"noteNumber":66,"velocity":75,"programNumber":22},{"time":171083.2889999996,"duration":125,"noteNumber":64,"velocity":75,"programNumber":22},{"time":171333.2889999996,"duration":416.66666666665697,"noteNumber":66,"velocity":78,"programNumber":22},{"time":171833.2889999996,"duration":468.75,"noteNumber":69,"velocity":79,"programNumber":22},{"time":172333.2889999996,"duration":260.41666666662786,"noteNumber":66,"velocity":80,"programNumber":22},{"time":172583.28899999958,"duration":729.166666666657,"noteNumber":64,"velocity":70,"programNumber":22},{"time":174833.28899999958,"duration":156.2499999999709,"noteNumber":67,"velocity":87,"programNumber":22},{"time":175083.28899999955,"duration":416.66666666665697,"noteNumber":67,"velocity":75,"programNumber":22},{"time":175583.28899999955,"duration":125,"noteNumber":67,"velocity":80,"programNumber":22},{"time":175833.28899999955,"duration":125,"noteNumber":67,"velocity":75,"programNumber":22},{"time":176083.28899999955,"duration":125,"noteNumber":67,"velocity":77,"programNumber":22},{"time":176333.28899999955,"duration":125,"noteNumber":67,"velocity":77,"programNumber":22},{"time":176583.28899999955,"duration":708.333333333343,"noteNumber":67,"velocity":79,"programNumber":22},{"time":177333.28899999955,"duration":416.66666666665697,"noteNumber":69,"velocity":84,"programNumber":22},{"time":177833.28899999955,"duration":125,"noteNumber":67,"velocity":77,"programNumber":22},{"time":178083.28899999955,"duration":125,"noteNumber":67,"velocity":75,"programNumber":22},{"time":178333.28899999955,"duration":125,"noteNumber":66,"velocity":77,"programNumber":22},{"time":178583.28899999955,"duration":187.5,"noteNumber":66,"velocity":74,"programNumber":22},{"time":181833.28899999955,"duration":124.9999999999709,"noteNumber":66,"velocity":80,"programNumber":22},{"time":182083.28899999952,"duration":125,"noteNumber":66,"velocity":75,"programNumber":22},{"time":182333.28899999952,"duration":260.41666666662786,"noteNumber":66,"velocity":77,"programNumber":22},{"time":182583.2889999995,"duration":125,"noteNumber":64,"velocity":75,"programNumber":22},{"time":182833.2889999995,"duration":125,"noteNumber":64,"velocity":75,"programNumber":22},{"time":183083.2889999995,"duration":500,"noteNumber":64,"velocity":74,"programNumber":22},{"time":185833.2889999995,"duration":132.53189583329367,"noteNumber":64,"velocity":75,"programNumber":22},{"time":186107.3301458328,"duration":144.2307499999879,"noteNumber":64,"velocity":75,"programNumber":22},{"time":186398.61964583278,"duration":356.2864791666507,"noteNumber":64,"velocity":77,"programNumber":22},{"time":186740.0251874994,"duration":182.56379166667466,"noteNumber":62,"velocity":75,"programNumber":22},{"time":187110.0889791661,"duration":192.30749999999534,"noteNumber":62,"velocity":74,"programNumber":22},{"time":187499.76472916608,"duration":1666.6659999999974,"noteNumber":62,"velocity":72,"programNumber":22},{"time":192452.1417291661,"duration":242.09983333334094,"noteNumber":67,"velocity":88,"programNumber":22},{"time":192831.43662499942,"duration":187.5,"noteNumber":67,"velocity":75,"programNumber":22},{"time":193211.24412499942,"duration":197.36824999999953,"noteNumber":67,"velocity":75,"programNumber":22},{"time":193611.31487499943,"duration":624.9997499999881,"noteNumber":67,"velocity":84,"programNumber":22},{"time":194450.60012499942,"duration":535.7137499999953,"noteNumber":67,"velocity":77,"programNumber":22},{"time":195169.24062499942,"duration":187.5,"noteNumber":67,"velocity":77,"programNumber":22},{"time":195549.04812499942,"duration":493.42062499999884,"noteNumber":67,"velocity":77,"programNumber":22},{"time":196346.5224999994,"duration":520.8331250000047,"noteNumber":67,"velocity":78,"programNumber":22},{"time":197188.7838749994,"duration":595.2374999999884,"noteNumber":69,"velocity":84,"programNumber":22},{"time":197905.97254166607,"duration":187.5,"noteNumber":67,"velocity":77,"programNumber":22},{"time":198285.78004166606,"duration":197.36824999999953,"noteNumber":67,"velocity":75,"programNumber":22},{"time":198685.85079166607,"duration":208.33324999999604,"noteNumber":66,"velocity":74,"programNumber":22},{"time":199108.46954166607,"duration":857.1419999999925,"noteNumber":66,"velocity":72,"programNumber":22},{"time":204679.89254166608,"duration":214.28550000002724,"noteNumber":66,"velocity":75,"programNumber":22},{"time":205108.4635416661,"duration":214.28549999999814,"noteNumber":66,"velocity":75,"programNumber":22},{"time":205537.0345416661,"duration":446.4281250000349,"noteNumber":66,"velocity":77,"programNumber":22},{"time":205965.60554166613,"duration":214.28549999999814,"noteNumber":64,"velocity":75,"programNumber":22},{"time":206394.17654166612,"duration":214.28549999999814,"noteNumber":64,"velocity":74,"programNumber":22},{"time":206822.74754166612,"duration":1714.2840000000142,"noteNumber":64,"velocity":72,"programNumber":22},{"time":211537.02854166614,"duration":214.28550000002724,"noteNumber":66,"velocity":75,"programNumber":22},{"time":211965.59954166616,"duration":214.28549999999814,"noteNumber":67,"velocity":75,"programNumber":22},{"time":212394.17054166616,"duration":446.4281250000058,"noteNumber":67,"velocity":84,"programNumber":22},{"time":212822.74154166615,"duration":214.28549999999814,"noteNumber":66,"velocity":75,"programNumber":22},{"time":213251.31254166615,"duration":214.28549999999814,"noteNumber":66,"velocity":75,"programNumber":22},{"time":213679.88354166615,"duration":1714.2840000000142,"noteNumber":66,"velocity":74,"programNumber":22},{"time":220108.44854166615,"duration":214.28549999999814,"noteNumber":66,"velocity":84,"programNumber":22},{"time":220537.01954166614,"duration":214.28549999999814,"noteNumber":66,"velocity":75,"programNumber":22},{"time":220965.59054166614,"duration":642.8564999999944,"noteNumber":66,"velocity":84,"programNumber":22},{"time":221822.73254166613,"duration":214.28549999999814,"noteNumber":64,"velocity":75,"programNumber":22},{"time":222251.30354166613,"duration":214.28549999999814,"noteNumber":64,"velocity":74,"programNumber":22},{"time":222679.87454166613,"duration":642.8564999999944,"noteNumber":64,"velocity":75,"programNumber":22},{"time":223537.01654166612,"duration":1714.283999999985,"noteNumber":66,"velocity":74,"programNumber":22},{"time":226965.5845416661,"duration":642.8564999999944,"noteNumber":66,"velocity":75,"programNumber":22},{"time":227822.72654166608,"duration":535.7137500000244,"noteNumber":66,"velocity":77,"programNumber":22},{"time":228394.1545416661,"duration":428.5709999999963,"noteNumber":64,"velocity":75,"programNumber":22},{"time":228965.58254166608,"duration":428.5709999999963,"noteNumber":64,"velocity":74,"programNumber":22},{"time":229537.01054166607,"duration":1714.2840000000433,"noteNumber":64,"velocity":72,"programNumber":22},{"time":233822.72054166612,"duration":446.4281250000349,"noteNumber":64,"velocity":75,"programNumber":22},{"time":234251.29154166614,"duration":214.28550000002724,"noteNumber":66,"velocity":75,"programNumber":22},{"time":234679.86254166617,"duration":803.570624999993,"noteNumber":66,"velocity":77,"programNumber":22},{"time":235537.00454166616,"duration":214.28549999999814,"noteNumber":64,"velocity":75,"programNumber":22},{"time":235965.57554166616,"duration":214.28549999999814,"noteNumber":64,"velocity":74,"programNumber":22},{"time":236394.14654166615,"duration":803.570624999993,"noteNumber":64,"velocity":75,"programNumber":22},{"time":237251.28854166614,"duration":357.1424999999872,"noteNumber":64,"velocity":74,"programNumber":22},{"time":237679.85954166614,"duration":857.1420000000217,"noteNumber":66,"velocity":72,"programNumber":22},{"time":240965.57054166615,"duration":214.28550000002724,"noteNumber":66,"velocity":75,"programNumber":22},{"time":241536.99854166617,"duration":803.5706250000221,"noteNumber":66,"velocity":77,"programNumber":22},{"time":242394.1405416662,"duration":642.8565000000235,"noteNumber":64,"velocity":75,"programNumber":22},{"time":243251.2825416662,"duration":428.5710000000254,"noteNumber":64,"velocity":77,"programNumber":22},{"time":243679.85354166623,"duration":446.4281250000058,"noteNumber":62,"velocity":56,"programNumber":22},{"time":244108.42454166623,"duration":1071.4275000000198,"noteNumber":59,"velocity":74,"programNumber":22},{"time":247536.99254166626,"duration":214.28550000002724,"noteNumber":66,"velocity":75,"programNumber":22},{"time":247965.56354166628,"duration":392.8567500000063,"noteNumber":66,"velocity":75,"programNumber":22},{"time":248394.13454166628,"duration":803.570624999993,"noteNumber":66,"velocity":77,"programNumber":22},{"time":249251.27654166627,"duration":214.28549999999814,"noteNumber":64,"velocity":75,"programNumber":22},{"time":249679.84754166627,"duration":214.28549999999814,"noteNumber":62,"velocity":74,"programNumber":22},{"time":250108.41854166627,"duration":803.570624999993,"noteNumber":62,"velocity":75,"programNumber":22},{"time":250965.56054166626,"duration":392.8567500000354,"noteNumber":64,"velocity":74,"programNumber":22},{"time":251394.13154166628,"duration":857.1419999999925,"noteNumber":66,"velocity":74,"programNumber":22},{"time":254394.1285416663,"duration":821.4277500000026,"noteNumber":66,"velocity":75,"programNumber":22},{"time":255251.27054166628,"duration":428.5710000000254,"noteNumber":66,"velocity":84,"programNumber":22},{"time":255822.6985416663,"duration":357.1425000000163,"noteNumber":64,"velocity":75,"programNumber":22},{"time":256394.1265416663,"duration":357.1424999999872,"noteNumber":62,"velocity":69,"programNumber":22},{"time":256965.5545416663,"duration":1714.283999999985,"noteNumber":62,"velocity":74,"programNumber":22},{"time":261251.26454166629,"duration":214.28550000005635,"noteNumber":64,"velocity":75,"programNumber":22},{"time":261679.83554166634,"duration":357.1424999999872,"noteNumber":64,"velocity":75,"programNumber":22},{"time":262108.40654166634,"duration":357.1424999999872,"noteNumber":64,"velocity":77,"programNumber":22},{"time":262536.9775416663,"duration":357.1425000000163,"noteNumber":64,"velocity":75,"programNumber":22},{"time":262965.5485416663,"duration":214.28549999999814,"noteNumber":64,"velocity":74,"programNumber":22},{"time":263394.1195416663,"duration":214.28549999999814,"noteNumber":62,"velocity":74,"programNumber":22},{"time":263822.6905416663,"duration":803.570624999993,"noteNumber":64,"velocity":75,"programNumber":22},{"time":264679.8325416663,"duration":410.71387500001583,"noteNumber":62,"velocity":63,"programNumber":22},{"time":265108.4035416663,"duration":321.428249999939,"noteNumber":64,"velocity":76,"programNumber":22},{"time":265536.9745416662,"duration":857.1419999999925,"noteNumber":66,"velocity":74,"programNumber":22},{"time":268108.4005416662,"duration":214.28549999993993,"noteNumber":66,"velocity":75,"programNumber":22},{"time":268536.97154166613,"duration":357.1425000000163,"noteNumber":66,"velocity":75,"programNumber":22},{"time":268965.54254166613,"duration":571.4280000000144,"noteNumber":66,"velocity":77,"programNumber":22},{"time":269536.97054166615,"duration":428.5709999999963,"noteNumber":64,"velocity":75,"programNumber":22},{"time":270108.39854166616,"duration":428.5709999999963,"noteNumber":64,"velocity":74,"programNumber":22},{"time":270679.8265416662,"duration":214.28549999999814,"noteNumber":64,"velocity":56,"programNumber":22},{"time":271108.39754166617,"duration":1285.7129999999888,"noteNumber":66,"velocity":73,"programNumber":22},{"time":274965.53654166614,"duration":214.28549999999814,"noteNumber":66,"velocity":84,"programNumber":22},{"time":275394.10754166613,"duration":392.8567499999772,"noteNumber":66,"velocity":75,"programNumber":22},{"time":275822.67854166613,"duration":803.5706249999348,"noteNumber":67,"velocity":77,"programNumber":22},{"time":276679.82054166606,"duration":214.28549999999814,"noteNumber":66,"velocity":75,"programNumber":22},{"time":277108.39154166606,"duration":214.28549999999814,"noteNumber":66,"velocity":74,"programNumber":22},{"time":277536.96254166606,"duration":803.570624999993,"noteNumber":67,"velocity":75,"programNumber":22},{"time":278394.10454166605,"duration":446.4281249999767,"noteNumber":64,"velocity":74,"programNumber":22},{"time":278822.67554166605,"duration":1714.283999999985,"noteNumber":66,"velocity":74,"programNumber":22},{"time":281822.672541666,"duration":624.9993749999558,"noteNumber":66,"velocity":75,"programNumber":22},{"time":282679.81454166595,"duration":571.4280000000144,"noteNumber":66,"velocity":77,"programNumber":22},{"time":283251.24254166597,"duration":428.5709999999963,"noteNumber":64,"velocity":75,"programNumber":22},{"time":283822.670541666,"duration":428.5709999999963,"noteNumber":64,"velocity":74,"programNumber":22},{"time":284394.098541666,"duration":1714.283999999985,"noteNumber":66,"velocity":72,"programNumber":22},{"time":289108.37954166596,"duration":446.4281249999767,"noteNumber":62,"velocity":75,"programNumber":22},{"time":289536.95054166595,"duration":357.1424999998999,"noteNumber":64,"velocity":77,"programNumber":22},{"time":289965.52154166583,"duration":357.1425000000163,"noteNumber":64,"velocity":75,"programNumber":22},{"time":290394.0925416658,"duration":214.28549999999814,"noteNumber":64,"velocity":74,"programNumber":22},{"time":290822.6635416658,"duration":214.28549999999814,"noteNumber":62,"velocity":74,"programNumber":22},{"time":291251.2345416658,"duration":571.4279999999562,"noteNumber":64,"velocity":77,"programNumber":22},{"time":291822.6625416658,"duration":0,"noteNumber":64,"velocity":75,"programNumber":22},{"time":291822.6625416658,"duration":571.4279999999562,"noteNumber":64,"velocity":75,"programNumber":22},{"time":292394.09054166573,"duration":571.4280000000144,"noteNumber":64,"velocity":75,"programNumber":22},{"time":292965.51854166575,"duration":357.1424999999581,"noteNumber":66,"velocity":77,"programNumber":22},{"time":293394.0895416657,"duration":357.1425000000163,"noteNumber":66,"velocity":75,"programNumber":22},{"time":293822.6605416657,"duration":357.1425000000163,"noteNumber":66,"velocity":74,"programNumber":22},{"time":294251.2315416657,"duration":357.1425000000163,"noteNumber":66,"velocity":74,"programNumber":22},{"time":294679.8025416657,"duration":535.7137499999953,"noteNumber":66,"velocity":84,"programNumber":22},{"time":295251.2305416657,"duration":321.4282499999972,"noteNumber":66,"velocity":75,"programNumber":22},{"time":295822.6585416657,"duration":321.4282499999972,"noteNumber":66,"velocity":75,"programNumber":22},{"time":296394.0865416657,"duration":571.4279999999562,"noteNumber":66,"velocity":84,"programNumber":22},{"time":296965.5145416657,"duration":428.5709999999963,"noteNumber":64,"velocity":75,"programNumber":22},{"time":297536.9425416657,"duration":428.5709999999963,"noteNumber":64,"velocity":75,"programNumber":22},{"time":298108.3705416657,"duration":446.4281249999185,"noteNumber":64,"velocity":77,"programNumber":22},{"time":298536.94154166564,"duration":446.4281249999767,"noteNumber":62,"velocity":56,"programNumber":22},{"time":298965.51254166564,"duration":1714.283999999985,"noteNumber":59,"velocity":74,"programNumber":22},{"time":302394.0805416656,"duration":624.9993749999558,"noteNumber":66,"velocity":75,"programNumber":22},{"time":303251.22254166554,"duration":214.28549999999814,"noteNumber":66,"velocity":77,"programNumber":22},{"time":303679.79354166554,"duration":214.28549999999814,"noteNumber":66,"velocity":75,"programNumber":22},{"time":304108.36454166553,"duration":214.28549999993993,"noteNumber":66,"velocity":75,"programNumber":22},{"time":304536.9355416655,"duration":392.8567499999772,"noteNumber":62,"velocity":74,"programNumber":22},{"time":304965.50654166547,"duration":267.85687499993946,"noteNumber":66,"velocity":77,"programNumber":22},{"time":305394.0775416654,"duration":392.8567499999772,"noteNumber":64,"velocity":75,"programNumber":22},{"time":305822.6485416654,"duration":214.28549999999814,"noteNumber":62,"velocity":74,"programNumber":22},{"time":306251.2195416654,"duration":821.4277499999735,"noteNumber":62,"velocity":75,"programNumber":22},{"time":307108.3615416654,"duration":321.428249999939,"noteNumber":64,"velocity":74,"programNumber":22},{"time":307536.93254166533,"duration":624.999375000014,"noteNumber":66,"velocity":74,"programNumber":22},{"time":308394.0745416653,"duration":2535.7117499999003,"noteNumber":66,"velocity":77,"programNumber":22},{"time":310965.50054166524,"duration":267.8568749999977,"noteNumber":64,"velocity":75,"programNumber":22},{"time":311394.07154166524,"duration":267.8568749999977,"noteNumber":62,"velocity":74,"programNumber":22},{"time":311822.64254166523,"duration":1714.283999999927,"noteNumber":62,"velocity":72,"programNumber":22},{"time":316108.35254166514,"duration":267.8568749999977,"noteNumber":64,"velocity":75,"programNumber":22},{"time":316536.92354166514,"duration":357.1425000000163,"noteNumber":64,"velocity":75,"programNumber":22},{"time":316965.49454166513,"duration":357.1424999999581,"noteNumber":64,"velocity":77,"programNumber":22},{"time":317394.06554166507,"duration":357.1425000000163,"noteNumber":64,"velocity":75,"programNumber":22},{"time":317822.63654166507,"duration":214.28549999999814,"noteNumber":64,"velocity":74,"programNumber":22},{"time":318251.20754166506,"duration":214.28549999999814,"noteNumber":62,"velocity":74,"programNumber":22},{"time":318679.77854166506,"duration":803.5706249999348,"noteNumber":64,"velocity":75,"programNumber":22},{"time":319536.920541665,"duration":446.4281249999767,"noteNumber":62,"velocity":74,"programNumber":22},{"time":319965.491541665,"duration":1714.283999999985,"noteNumber":66,"velocity":74,"programNumber":22},{"time":322965.48854166496,"duration":392.856749999919,"noteNumber":66,"velocity":75,"programNumber":22},{"time":323394.0595416649,"duration":392.8567499999772,"noteNumber":64,"velocity":75,"programNumber":22},{"time":323822.6305416649,"duration":874.1062687499798,"noteNumber":66,"velocity":77,"programNumber":22},{"time":324767.27245416486,"duration":1049.106093749986,"noteNumber":69,"velocity":78,"programNumber":22},{"time":325886.02133541484,"duration":218.74978125002235,"noteNumber":66,"velocity":87,"programNumber":22},{"time":326177.985329165,"duration":1501.7842124999734,"noteNumber":64,"velocity":70,"programNumber":22},{"time":329822.62454166496,"duration":267.85687499993946,"noteNumber":67,"velocity":87,"programNumber":22},{"time":330251.1955416649,"duration":714.2849999999744,"noteNumber":67,"velocity":75,"programNumber":22},{"time":331108.3375416649,"duration":214.28549999999814,"noteNumber":67,"velocity":80,"programNumber":22},{"time":331536.9085416649,"duration":214.28549999999814,"noteNumber":67,"velocity":75,"programNumber":22},{"time":331965.4795416649,"duration":214.28549999999814,"noteNumber":67,"velocity":77,"programNumber":22},{"time":332394.0505416649,"duration":214.28549999999814,"noteNumber":67,"velocity":77,"programNumber":22},{"time":332822.6215416649,"duration":1214.2845000000088,"noteNumber":67,"velocity":79,"programNumber":22},{"time":334108.33454166487,"duration":714.2849999999744,"noteNumber":69,"velocity":84,"programNumber":22},{"time":334965.47654166486,"duration":214.28549999999814,"noteNumber":67,"velocity":77,"programNumber":22},{"time":335394.04754166486,"duration":214.28549999999814,"noteNumber":67,"velocity":75,"programNumber":22},{"time":335822.61854166485,"duration":214.28549999999814,"noteNumber":66,"velocity":77,"programNumber":22},{"time":336251.18954166485,"duration":321.4282499999972,"noteNumber":66,"velocity":74,"programNumber":22},{"time":341822.61254166486,"duration":214.28549999993993,"noteNumber":66,"velocity":80,"programNumber":22},{"time":342251.1835416648,"duration":214.28549999999814,"noteNumber":66,"velocity":75,"programNumber":22},{"time":342679.7545416648,"duration":446.4281249999185,"noteNumber":66,"velocity":77,"programNumber":22},{"time":343108.32554166473,"duration":214.28549999999814,"noteNumber":64,"velocity":75,"programNumber":22},{"time":343536.8965416647,"duration":214.28549999999814,"noteNumber":64,"velocity":75,"programNumber":22},{"time":343965.4675416647,"duration":857.1419999999925,"noteNumber":64,"velocity":74,"programNumber":22},{"time":348679.74854166474,"duration":214.28549999993993,"noteNumber":64,"velocity":75,"programNumber":22},{"time":349108.3195416647,"duration":214.28549999999814,"noteNumber":64,"velocity":75,"programNumber":22},{"time":349536.8905416647,"duration":446.4281249999185,"noteNumber":64,"velocity":77,"programNumber":22},{"time":349965.4615416646,"duration":214.28549999999814,"noteNumber":62,"velocity":75,"programNumber":22},{"time":350394.0325416646,"duration":214.28549999999814,"noteNumber":62,"velocity":74,"programNumber":22},{"time":350822.6035416646,"duration":1714.283999999985,"noteNumber":62,"velocity":72,"programNumber":22},{"time":356394.0265416646,"duration":267.85687499993946,"noteNumber":67,"velocity":88,"programNumber":22},{"time":356822.59754166455,"duration":214.28549999999814,"noteNumber":67,"velocity":75,"programNumber":22},{"time":357251.16854166455,"duration":214.28549999999814,"noteNumber":67,"velocity":75,"programNumber":22},{"time":357679.73954166454,"duration":642.8564999999944,"noteNumber":67,"velocity":84,"programNumber":22},{"time":358536.88154166454,"duration":642.8564999999944,"noteNumber":67,"velocity":77,"programNumber":22},{"time":359394.02354166453,"duration":214.28549999999814,"noteNumber":67,"velocity":77,"programNumber":22},{"time":359822.5945416645,"duration":535.7137499999953,"noteNumber":67,"velocity":77,"programNumber":22},{"time":360679.7365416645,"duration":535.7137499999953,"noteNumber":67,"velocity":78,"programNumber":22},{"time":361536.8785416645,"duration":714.2849999999744,"noteNumber":69,"velocity":84,"programNumber":22},{"time":362394.0205416645,"duration":214.28549999999814,"noteNumber":67,"velocity":77,"programNumber":22},{"time":362822.5915416645,"duration":214.28549999999814,"noteNumber":67,"velocity":75,"programNumber":22},{"time":363251.1625416645,"duration":214.28549999999814,"noteNumber":66,"velocity":74,"programNumber":22},{"time":363679.7335416645,"duration":857.1419999999925,"noteNumber":66,"velocity":72,"programNumber":22},{"time":369251.15654166444,"duration":214.28549999993993,"noteNumber":66,"velocity":75,"programNumber":22},{"time":369679.7275416644,"duration":214.28549999999814,"noteNumber":66,"velocity":75,"programNumber":22},{"time":370108.2985416644,"duration":446.4281249999185,"noteNumber":66,"velocity":77,"programNumber":22},{"time":370536.8695416643,"duration":214.28549999999814,"noteNumber":64,"velocity":75,"programNumber":22},{"time":370965.4405416643,"duration":214.28549999999814,"noteNumber":64,"velocity":74,"programNumber":22},{"time":371394.0115416643,"duration":1714.283999999985,"noteNumber":64,"velocity":72,"programNumber":22},{"time":376108.29254166427,"duration":214.28549999993993,"noteNumber":66,"velocity":75,"programNumber":22},{"time":376536.8635416642,"duration":214.28549999999814,"noteNumber":67,"velocity":75,"programNumber":22},{"time":376965.4345416642,"duration":446.4281249999767,"noteNumber":67,"velocity":84,"programNumber":22},{"time":377394.0055416642,"duration":214.28549999999814,"noteNumber":66,"velocity":70,"programNumber":22},{"time":377822.5765416642,"duration":214.28549999999814,"noteNumber":66,"velocity":80,"programNumber":22},{"time":378251.1475416642,"duration":2142.8549999999814,"noteNumber":66,"velocity":63,"programNumber":22},{"time":384679.7125416642,"duration":392.8567499999772,"noteNumber":66,"velocity":75,"programNumber":22},{"time":385108.2835416642,"duration":803.570624999993,"noteNumber":66,"velocity":77,"programNumber":22},{"time":385965.4255416642,"duration":803.5706249999348,"noteNumber":67,"velocity":77,"programNumber":22},{"time":386822.5675416641,"duration":392.8567499999772,"noteNumber":66,"velocity":75,"programNumber":22},{"time":387251.1385416641,"duration":803.5706249999348,"noteNumber":67,"velocity":77,"programNumber":22},{"time":388108.28054166405,"duration":392.8567499999772,"noteNumber":64,"velocity":59,"programNumber":22},{"time":388536.85154166404,"duration":1714.283999999985,"noteNumber":66,"velocity":74,"programNumber":22},{"time":391108.277541664,"duration":392.8567499999772,"noteNumber":58,"velocity":75,"programNumber":22},{"time":391536.848541664,"duration":803.570624999993,"noteNumber":66,"velocity":77,"programNumber":22},{"time":392393.990541664,"duration":535.7137499999371,"noteNumber":66,"velocity":78,"programNumber":22},{"time":392965.41854166397,"duration":535.7137499999953,"noteNumber":66,"velocity":77,"programNumber":22},{"time":393536.846541664,"duration":535.7137499999953,"noteNumber":66,"velocity":77,"programNumber":22},{"time":394108.274541664,"duration":446.4281249999767,"noteNumber":64,"velocity":75,"programNumber":22},{"time":394536.845541664,"duration":1714.283999999985,"noteNumber":66,"velocity":74,"programNumber":22},{"time":397965.41354166396,"duration":392.8567499999772,"noteNumber":66,"velocity":75,"programNumber":22},{"time":398393.98454166396,"duration":803.570624999993,"noteNumber":64,"velocity":77,"programNumber":22},{"time":399251.12654166395,"duration":803.5706249999348,"noteNumber":64,"velocity":75,"programNumber":22},{"time":400108.2685416639,"duration":803.570624999993,"noteNumber":64,"velocity":74,"programNumber":22},{"time":400965.4105416639,"duration":535.7137499999371,"noteNumber":66,"velocity":77,"programNumber":22},{"time":401536.83854166383,"duration":428.5709999999963,"noteNumber":64,"velocity":75,"programNumber":22},{"time":402108.26654166385,"duration":428.5709999999963,"noteNumber":64,"velocity":75,"programNumber":22},{"time":402679.69454166386,"duration":321.4282499999972,"noteNumber":64,"velocity":75,"programNumber":22},{"time":403108.26554166386,"duration":857.1419999999343,"noteNumber":66,"velocity":74,"programNumber":22},{"time":405251.1205416638,"duration":392.8567499999772,"noteNumber":66,"velocity":84,"programNumber":22},{"time":405679.6915416638,"duration":267.8568749999977,"noteNumber":66,"velocity":74,"programNumber":22},{"time":406108.2625416638,"duration":267.8568749999977,"noteNumber":66,"velocity":75,"programNumber":22},{"time":406536.8335416638,"duration":803.570624999993,"noteNumber":64,"velocity":77,"programNumber":22},{"time":407393.97554166376,"duration":392.8567499999772,"noteNumber":62,"velocity":75,"programNumber":22},{"time":407822.54654166376,"duration":1714.283999999985,"noteNumber":62,"velocity":74,"programNumber":22},{"time":411679.6855416637,"duration":267.85687499993946,"noteNumber":62,"velocity":75,"programNumber":22},{"time":412108.25654166366,"duration":392.8567499999772,"noteNumber":66,"velocity":84,"programNumber":22},{"time":412536.82754166366,"duration":214.28549999999814,"noteNumber":66,"velocity":75,"programNumber":22},{"time":412965.39854166366,"duration":803.5706249999348,"noteNumber":66,"velocity":77,"programNumber":22},{"time":413822.5405416636,"duration":214.28549999999814,"noteNumber":64,"velocity":75,"programNumber":22},{"time":414251.1115416636,"duration":214.28549999999814,"noteNumber":62,"velocity":74,"programNumber":22},{"time":414679.6825416636,"duration":214.28549999999814,"noteNumber":62,"velocity":70,"programNumber":22},{"time":415108.2535416636,"duration":446.4281249999185,"noteNumber":64,"velocity":70,"programNumber":22},{"time":415536.8245416635,"duration":1714.283999999985,"noteNumber":66,"velocity":70,"programNumber":22},{"time":418536.8215416635,"duration":803.570624999993,"noteNumber":57,"velocity":75,"programNumber":22},{"time":419393.9635416635,"duration":392.856749999919,"noteNumber":66,"velocity":84,"programNumber":22},{"time":419822.5345416634,"duration":428.5709999999963,"noteNumber":66,"velocity":77,"programNumber":22},{"time":420393.96254166344,"duration":357.1424999999581,"noteNumber":64,"velocity":75,"programNumber":22},{"time":420965.3905416634,"duration":357.1425000000163,"noteNumber":64,"velocity":75,"programNumber":22},{"time":421536.8185416634,"duration":214.28549999999814,"noteNumber":62,"velocity":75,"programNumber":22},{"time":421965.3895416634,"duration":1285.7129999999888,"noteNumber":62,"velocity":74,"programNumber":22},{"time":425393.9575416634,"duration":214.28549999999814,"noteNumber":59,"velocity":75,"programNumber":22},{"time":425822.52854166337,"duration":392.8567499999772,"noteNumber":64,"velocity":84,"programNumber":22},{"time":426251.09954166337,"duration":642.8564999999944,"noteNumber":64,"velocity":77,"programNumber":22},{"time":427108.24154166336,"duration":214.28549999993993,"noteNumber":64,"velocity":80,"programNumber":22},{"time":427536.8125416633,"duration":803.570624999993,"noteNumber":62,"velocity":74,"programNumber":22},{"time":428393.9545416633,"duration":214.28549999993993,"noteNumber":64,"velocity":80,"programNumber":22},{"time":428822.5255416632,"duration":803.570624999993,"noteNumber":62,"velocity":77,"programNumber":22},{"time":429679.6675416632,"duration":321.428249999939,"noteNumber":64,"velocity":75,"programNumber":22},{"time":430108.23854166316,"duration":803.570624999993,"noteNumber":66,"velocity":77,"programNumber":22},{"time":430965.38054166315,"duration":214.28549999999814,"noteNumber":64,"velocity":75,"programNumber":22},{"time":431393.95154166315,"duration":214.28549999999814,"noteNumber":62,"velocity":63,"programNumber":22},{"time":431822.52254166314,"duration":803.570624999993,"noteNumber":66,"velocity":75,"programNumber":22},{"time":432679.66454166314,"duration":803.570624999993,"noteNumber":66,"velocity":77,"programNumber":22},{"time":433965.3775416631,"duration":321.4282499999972,"noteNumber":66,"velocity":84,"programNumber":22},{"time":434393.9485416631,"duration":214.28549999999814,"noteNumber":64,"velocity":74,"programNumber":22},{"time":434822.5195416631,"duration":214.28549999999814,"noteNumber":64,"velocity":74,"programNumber":22},{"time":435251.0905416631,"duration":214.28549999999814,"noteNumber":64,"velocity":75,"programNumber":22},{"time":435679.6615416631,"duration":1714.283999999927,"noteNumber":66,"velocity":74,"programNumber":22},{"time":439536.800541663,"duration":821.4277499999735,"noteNumber":66,"velocity":77,"programNumber":22},{"time":440393.942541663,"duration":803.5706249999348,"noteNumber":67,"velocity":77,"programNumber":22},{"time":441251.08454166295,"duration":214.28549999999814,"noteNumber":66,"velocity":75,"programNumber":22},{"time":441679.65554166294,"duration":214.28549999999814,"noteNumber":66,"velocity":74,"programNumber":22},{"time":442108.22654166294,"duration":803.5706249999348,"noteNumber":67,"velocity":84,"programNumber":22},{"time":442965.3685416629,"duration":446.4281249999767,"noteNumber":64,"velocity":74,"programNumber":22},{"time":443393.93954166287,"duration":1214.2845000000088,"noteNumber":66,"velocity":74,"programNumber":22},{"time":444679.65254166286,"duration":214.28549999993993,"noteNumber":54,"velocity":63,"programNumber":22},{"time":445108.2235416628,"duration":214.28549999999814,"noteNumber":54,"velocity":63,"programNumber":22},{"time":446393.9365416628,"duration":821.4277499999735,"noteNumber":66,"velocity":74,"programNumber":22},{"time":447251.0785416628,"duration":428.5709999999963,"noteNumber":66,"velocity":84,"programNumber":22},{"time":447822.5065416628,"duration":428.5709999999963,"noteNumber":64,"velocity":75,"programNumber":22},{"time":448393.9345416628,"duration":428.5709999999963,"noteNumber":64,"velocity":75,"programNumber":22},{"time":448965.3625416628,"duration":1714.2840000000433,"noteNumber":66,"velocity":74,"programNumber":22},{"time":453679.64354166284,"duration":214.28549999999814,"noteNumber":62,"velocity":75,"programNumber":22},{"time":454108.21454166283,"duration":357.1424999999581,"noteNumber":64,"velocity":84,"programNumber":22},{"time":454536.7855416628,"duration":267.8568749999977,"noteNumber":64,"velocity":75,"programNumber":22},{"time":454965.35654166277,"duration":267.8568749999977,"noteNumber":64,"velocity":80,"programNumber":22},{"time":455393.92754166276,"duration":267.8568749999977,"noteNumber":62,"velocity":74,"programNumber":22},{"time":455822.49854166276,"duration":535.7137499999371,"noteNumber":64,"velocity":84,"programNumber":22},{"time":456393.9265416627,"duration":428.57099999993807,"noteNumber":64,"velocity":75,"programNumber":22},{"time":456965.3545416627,"duration":428.57099999993807,"noteNumber":64,"velocity":75,"programNumber":22},{"time":458393.9245416626,"duration":214.28549999993993,"noteNumber":66,"velocity":84,"programNumber":22},{"time":458822.49554166256,"duration":214.28549999999814,"noteNumber":66,"velocity":75,"programNumber":22},{"time":459251.06654166256,"duration":571.4279999999562,"noteNumber":66,"velocity":84,"programNumber":22},{"time":459822.4945416625,"duration":428.5709999999963,"noteNumber":66,"velocity":75,"programNumber":22},{"time":460393.9225416625,"duration":428.5709999999963,"noteNumber":66,"velocity":75,"programNumber":22},{"time":460965.35054166254,"duration":571.4279999999562,"noteNumber":66,"velocity":84,"programNumber":22},{"time":461536.7785416625,"duration":428.5709999999963,"noteNumber":64,"velocity":75,"programNumber":22},{"time":462108.2065416625,"duration":428.5709999999963,"noteNumber":64,"velocity":75,"programNumber":22},{"time":462679.6345416625,"duration":446.4281249999185,"noteNumber":64,"velocity":77,"programNumber":22},{"time":463108.20554166246,"duration":321.4282499999972,"noteNumber":62,"velocity":63,"programNumber":22},{"time":463536.7765416624,"duration":1714.283999999985,"noteNumber":59,"velocity":70,"programNumber":22},{"time":466965.3445416624,"duration":321.4282499999972,"noteNumber":66,"velocity":75,"programNumber":22},{"time":467393.91554166237,"duration":803.570624999993,"noteNumber":66,"velocity":75,"programNumber":22},{"time":468393.9145416624,"duration":428.5709999999963,"noteNumber":64,"velocity":75,"programNumber":22},{"time":468965.3425416624,"duration":428.5709999999963,"noteNumber":62,"velocity":74,"programNumber":22},{"time":469536.7705416624,"duration":803.570624999993,"noteNumber":62,"velocity":75,"programNumber":22},{"time":470393.9125416624,"duration":267.8568749999977,"noteNumber":64,"velocity":74,"programNumber":22},{"time":470822.4835416624,"duration":1714.283999999985,"noteNumber":66,"velocity":72,"programNumber":22},{"time":474251.05154166237,"duration":214.28549999999814,"noteNumber":57,"velocity":75,"programNumber":22},{"time":474679.62254166236,"duration":803.5706249999348,"noteNumber":66,"velocity":77,"programNumber":22},{"time":475536.7645416623,"duration":392.8567499999772,"noteNumber":64,"velocity":75,"programNumber":22},{"time":475965.3355416623,"duration":392.8567499999772,"noteNumber":62,"velocity":74,"programNumber":22},{"time":476393.9065416623,"duration":1714.283999999985,"noteNumber":62,"velocity":72,"programNumber":22},{"time":480679.61654166225,"duration":357.1424999999581,"noteNumber":64,"velocity":84,"programNumber":22},{"time":481108.1875416622,"duration":214.28549999999814,"noteNumber":64,"velocity":75,"programNumber":22},{"time":481536.7585416622,"duration":357.1425000000163,"noteNumber":64,"velocity":84,"programNumber":22},{"time":481965.3295416622,"duration":214.28549999993993,"noteNumber":64,"velocity":75,"programNumber":22},{"time":482393.9005416621,"duration":357.1425000000163,"noteNumber":64,"velocity":75,"programNumber":22},{"time":482822.4715416621,"duration":214.28549999999814,"noteNumber":62,"velocity":74,"programNumber":22},{"time":483251.0425416621,"duration":803.5706249999348,"noteNumber":64,"velocity":75,"programNumber":22},{"time":484108.18454166205,"duration":446.4281249999767,"noteNumber":62,"velocity":63,"programNumber":22},{"time":484536.75554166205,"duration":1714.283999999985,"noteNumber":66,"velocity":72,"programNumber":22},{"time":487108.181541662,"duration":214.28549999999814,"noteNumber":66,"velocity":84,"programNumber":22},{"time":487536.752541662,"duration":803.570624999993,"noteNumber":66,"velocity":77,"programNumber":22},{"time":488393.894541662,"duration":392.8567499999772,"noteNumber":69,"velocity":84,"programNumber":22},{"time":488822.465541662,"duration":1214.2845000000088,"noteNumber":66,"velocity":77,"programNumber":22},{"time":490108.178541662,"duration":214.28549999999814,"noteNumber":64,"velocity":84,"programNumber":22},{"time":490536.749541662,"duration":857.1419999999925,"noteNumber":66,"velocity":84,"programNumber":22}]]}