{"tracks":[[{"time":1250,"duration":250,"noteNumber":40,"velocity":127,"programNumber":27},{"time":1750,"duration":250,"noteNumber":41,"velocity":127,"programNumber":27},{"time":1500,"duration":500,"noteNumber":40,"velocity":127,"programNumber":27},{"time":2000,"duration":750,"noteNumber":42,"velocity":127,"programNumber":27},{"time":2500,"duration":500,"noteNumber":45,"velocity":127,"programNumber":27},{"time":2750,"duration":500,"noteNumber":42,"velocity":127,"programNumber":27},{"time":3250,"duration":250,"noteNumber":42,"velocity":127,"programNumber":27},{"time":3500,"duration":250,"noteNumber":42,"velocity":127,"programNumber":27},{"time":3750,"duration":250,"noteNumber":41,"velocity":127,"programNumber":27},{"time":3000,"duration":1250,"noteNumber":45,"velocity":127,"programNumber":27},{"time":4000,"duration":500,"noteNumber":40,"velocity":127,"programNumber":27},{"time":4500,"duration":250,"noteNumber":40,"velocity":127,"programNumber":27},{"time":4250,"duration":1000,"noteNumber":47,"velocity":127,"programNumber":27},{"time":4750,"duration":750,"noteNumber":40,"velocity":127,"programNumber":27},{"time":5500,"duration":250,"noteNumber":40,"velocity":127,"programNumber":27},{"time":5750,"duration":250,"noteNumber":41,"velocity":127,"programNumber":27},{"time":5250,"duration":1250,"noteNumber":47,"velocity":127,"programNumber":27},{"time":6000,"duration":750,"noteNumber":42,"velocity":127,"programNumber":27},{"time":6500,"duration":500,"noteNumber":45,"velocity":127,"programNumber":27},{"time":6750,"duration":500,"noteNumber":42,"velocity":127,"programNumber":27},{"time":7250,"duration":250,"noteNumber":42,"velocity":127,"programNumber":27},{"time":7500,"duration":250,"noteNumber":42,"velocity":127,"programNumber":27},{"time":7750,"duration":250,"noteNumber":41,"velocity":127,"programNumber":27},{"time":7000,"duration":1250,"noteNumber":45,"velocity":127,"programNumber":27},{"time":8000,"duration":500,"noteNumber":40,"velocity":127,"programNumber":27},{"time":8500,"duration":250,"noteNumber":40,"velocity":127,"programNumber":27},{"time":8250,"duration":1000,"noteNumber":47,"velocity":127,"programNumber":27},{"time":8750,"duration":750,"noteNumber":40,"velocity":127,"programNumber":27},{"time":9500,"duration":250,"noteNumber":40,"velocity":127,"programNumber":27},{"time":9750,"duration":250,"noteNumber":41,"velocity":127,"programNumber":27},{"time":9250,"duration":1250,"noteNumber":47,"velocity":127,"programNumber":27},{"time":10000,"duration":750,"noteNumber":42,"velocity":127,"programNumber":27},{"time":10500,"duration":500,"noteNumber":45,"velocity":127,"programNumber":27},{"time":10750,"duration":500,"noteNumber":42,"velocity":127,"programNumber":27},{"time":11250,"duration":250,"noteNumber":42,"velocity":127,"programNumber":27},{"time":11500,"duration":250,"noteNumber":42,"velocity":127,"programNumber":27},{"time":11750,"duration":250,"noteNumber":41,"velocity":127,"programNumber":27},{"time":11000,"duration":1250,"noteNumber":45,"velocity":127,"programNumber":27},{"time":12000,"duration":500,"noteNumber":40,"velocity":127,"programNumber":27},{"time":12500,"duration":250,"noteNumber":40,"velocity":127,"programNumber":27},{"time":12250,"duration":1000,"noteNumber":47,"velocity":127,"programNumber":27},{"time":12750,"duration":750,"noteNumber":40,"velocity":127,"programNumber":27},{"time":13500,"duration":250,"noteNumber":40,"velocity":127,"programNumber":27},{"time":13750,"duration":250,"noteNumber":41,"velocity":127,"programNumber":27},{"time":13250,"duration":1250,"noteNumber":47,"velocity":127,"programNumber":27},{"time":14000,"duration":750,"noteNumber":42,"velocity":127,"programNumber":27},{"time":14500,"duration":500,"noteNumber":45,"velocity":127,"programNumber":27},{"time":14750,"duration":500,"noteNumber":42,"velocity":127,"programNumber":27},{"time":15250,"duration":250,"noteNumber":42,"velocity":127,"programNumber":27},{"time":15500,"duration":250,"noteNumber":42,"velocity":127,"programNumber":27},{"time":15750,"duration":250,"noteNumber":41,"velocity":127,"programNumber":27},{"time":15000,"duration":1250,"noteNumber":45,"velocity":127,"programNumber":27},{"time":16000,"duration":500,"noteNumber":40,"velocity":127,"programNumber":27},{"time":16500,"duration":250,"noteNumber":40,"velocity":127,"programNumber":27},{"time":16250,"duration":1000,"noteNumber":47,"velocity":127,"programNumber":27},{"time":16750,"duration":772.726999999999,"noteNumber":40,"velocity":127,"programNumber":27},{"time":17522.727,"duration":272.72699999999895,"noteNumber":40,"velocity":127,"programNumber":27},{"time":17795.453999999998,"duration":272.72699999999895,"noteNumber":41,"velocity":127,"programNumber":27},{"time":17250,"duration":1363.6349999999984,"noteNumber":47,"velocity":127,"programNumber":27},{"time":18068.180999999997,"duration":818.1810000000005,"noteNumber":42,"velocity":127,"programNumber":27},{"time":18613.635,"duration":545.4539999999979,"noteNumber":45,"velocity":127,"programNumber":27},{"time":18886.361999999997,"duration":545.4539999999979,"noteNumber":42,"velocity":127,"programNumber":27},{"time":19431.815999999995,"duration":272.72699999999895,"noteNumber":42,"velocity":127,"programNumber":27},{"time":19704.542999999994,"duration":272.72699999999895,"noteNumber":42,"velocity":127,"programNumber":27},{"time":19977.269999999993,"duration":272.72699999999895,"noteNumber":41,"velocity":127,"programNumber":27},{"time":19159.088999999996,"duration":1363.6349999999948,"noteNumber":45,"velocity":127,"programNumber":27},{"time":20249.996999999992,"duration":545.4539999999979,"noteNumber":40,"velocity":127,"programNumber":27},{"time":20795.45099999999,"duration":272.72699999999895,"noteNumber":40,"velocity":127,"programNumber":27},{"time":20522.72399999999,"duration":1090.9079999999994,"noteNumber":47,"velocity":127,"programNumber":27},{"time":21068.17799999999,"duration":818.1810000000005,"noteNumber":40,"velocity":127,"programNumber":27},{"time":21886.35899999999,"duration":272.72699999999895,"noteNumber":40,"velocity":127,"programNumber":27},{"time":22159.08599999999,"duration":272.72699999999895,"noteNumber":41,"velocity":127,"programNumber":27},{"time":21613.63199999999,"duration":1363.6349999999984,"noteNumber":47,"velocity":127,"programNumber":27},{"time":22431.812999999987,"duration":818.1810000000005,"noteNumber":42,"velocity":127,"programNumber":27},{"time":22977.26699999999,"duration":545.4539999999979,"noteNumber":45,"velocity":127,"programNumber":27},{"time":23249.993999999988,"duration":545.4539999999979,"noteNumber":42,"velocity":127,"programNumber":27},{"time":23795.447999999986,"duration":272.72699999999895,"noteNumber":42,"velocity":127,"programNumber":27},{"time":24068.174999999985,"duration":272.72699999999895,"noteNumber":42,"velocity":127,"programNumber":27},{"time":24340.901999999984,"duration":272.72699999999895,"noteNumber":41,"velocity":127,"programNumber":27},{"time":23522.720999999987,"duration":1363.6349999999948,"noteNumber":45,"velocity":127,"programNumber":27},{"time":24613.628999999983,"duration":545.4539999999979,"noteNumber":40,"velocity":127,"programNumber":27},{"time":25159.08299999998,"duration":272.72699999999895,"noteNumber":40,"velocity":127,"programNumber":27},{"time":24886.35599999998,"duration":1090.9079999999994,"noteNumber":47,"velocity":127,"programNumber":27},{"time":25431.80999999998,"duration":818.1810000000005,"noteNumber":40,"velocity":127,"programNumber":27},{"time":26249.99099999998,"duration":272.72699999999895,"noteNumber":40,"velocity":127,"programNumber":27},{"time":26522.71799999998,"duration":272.72699999999895,"noteNumber":41,"velocity":127,"programNumber":27},{"time":25977.26399999998,"duration":1363.6349999999984,"noteNumber":47,"velocity":127,"programNumber":27},{"time":26795.444999999978,"duration":818.1810000000005,"noteNumber":42,"velocity":127,"programNumber":27},{"time":27340.89899999998,"duration":545.4539999999979,"noteNumber":45,"velocity":127,"programNumber":27},{"time":27613.62599999998,"duration":545.4539999999979,"noteNumber":42,"velocity":127,"programNumber":27},{"time":28159.079999999976,"duration":272.72699999999895,"noteNumber":42,"velocity":127,"programNumber":27},{"time":28431.806999999975,"duration":272.72699999999895,"noteNumber":42,"velocity":127,"programNumber":27},{"time":28704.533999999974,"duration":272.72699999999895,"noteNumber":41,"velocity":127,"programNumber":27},{"time":27886.352999999977,"duration":1363.6349999999948,"noteNumber":45,"velocity":127,"programNumber":27},{"time":28977.260999999973,"duration":545.4539999999979,"noteNumber":40,"velocity":127,"programNumber":27},{"time":29522.71499999997,"duration":272.72699999999895,"noteNumber":40,"velocity":127,"programNumber":27},{"time":29249.987999999972,"duration":1090.9079999999994,"noteNumber":47,"velocity":127,"programNumber":27},{"time":29795.44199999997,"duration":818.1810000000005,"noteNumber":40,"velocity":127,"programNumber":27},{"time":30613.62299999997,"duration":272.72699999999895,"noteNumber":40,"velocity":127,"programNumber":27},{"time":30886.34999999997,"duration":272.72699999999895,"noteNumber":41,"velocity":127,"programNumber":27},{"time":30340.89599999997,"duration":1363.6349999999984,"noteNumber":47,"velocity":127,"programNumber":27},{"time":31159.07699999997,"duration":818.1810000000005,"noteNumber":42,"velocity":127,"programNumber":27},{"time":31704.53099999997,"duration":545.4539999999979,"noteNumber":45,"velocity":127,"programNumber":27},{"time":31977.25799999997,"duration":545.4539999999979,"noteNumber":42,"velocity":127,"programNumber":27},{"time":32522.711999999967,"duration":272.7270000000026,"noteNumber":42,"velocity":127,"programNumber":27},{"time":32795.43899999997,"duration":272.72699999999895,"noteNumber":42,"velocity":127,"programNumber":27},{"time":33068.16599999997,"duration":272.72699999999895,"noteNumber":41,"velocity":127,"programNumber":27},{"time":32249.984999999968,"duration":1363.6349999999984,"noteNumber":45,"velocity":127,"programNumber":27},{"time":33340.89299999997,"duration":545.4539999999979,"noteNumber":40,"velocity":127,"programNumber":27},{"time":33886.346999999965,"duration":272.72699999999895,"noteNumber":40,"velocity":127,"programNumber":27},{"time":33613.619999999966,"duration":1090.9079999999958,"noteNumber":47,"velocity":127,"programNumber":27},{"time":34159.073999999964,"duration":818.1809999999969,"noteNumber":40,"velocity":127,"programNumber":27},{"time":34977.25499999996,"duration":272.72699999999895,"noteNumber":40,"velocity":127,"programNumber":27},{"time":35249.98199999996,"duration":272.72699999999895,"noteNumber":41,"velocity":127,"programNumber":27},{"time":34704.52799999996,"duration":1363.6349999999948,"noteNumber":47,"velocity":127,"programNumber":27},{"time":35522.70899999996,"duration":818.1809999999969,"noteNumber":42,"velocity":127,"programNumber":27},{"time":36068.16299999996,"duration":545.4539999999979,"noteNumber":45,"velocity":127,"programNumber":27},{"time":36340.889999999956,"duration":545.4539999999979,"noteNumber":42,"velocity":127,"programNumber":27},{"time":36886.343999999954,"duration":272.72699999999895,"noteNumber":42,"velocity":127,"programNumber":27},{"time":37159.07099999995,"duration":272.72699999999895,"noteNumber":42,"velocity":127,"programNumber":27},{"time":37431.79799999995,"duration":272.72699999999895,"noteNumber":41,"velocity":127,"programNumber":27},{"time":36613.616999999955,"duration":1363.6349999999948,"noteNumber":45,"velocity":127,"programNumber":27},{"time":37704.52499999995,"duration":545.4539999999979,"noteNumber":40,"velocity":127,"programNumber":27},{"time":38249.97899999995,"duration":272.72699999999895,"noteNumber":40,"velocity":127,"programNumber":27},{"time":37977.25199999995,"duration":1090.9079999999958,"noteNumber":47,"velocity":127,"programNumber":27},{"time":38522.70599999995,"duration":818.1809999999969,"noteNumber":40,"velocity":127,"programNumber":27},{"time":39340.886999999944,"duration":272.72699999999895,"noteNumber":40,"velocity":127,"programNumber":27},{"time":39613.61399999994,"duration":272.72699999999895,"noteNumber":41,"velocity":127,"programNumber":27},{"time":39068.159999999945,"duration":1363.6349999999948,"noteNumber":47,"velocity":127,"programNumber":27},{"time":39886.34099999994,"duration":818.1809999999969,"noteNumber":42,"velocity":127,"programNumber":27},{"time":40431.79499999994,"duration":545.4539999999979,"noteNumber":45,"velocity":127,"programNumber":27},{"time":40704.52199999994,"duration":545.4539999999979,"noteNumber":42,"velocity":127,"programNumber":27},{"time":41249.97599999994,"duration":272.72699999999895,"noteNumber":42,"velocity":127,"programNumber":27},{"time":41522.702999999936,"duration":272.72699999999895,"noteNumber":42,"velocity":127,"programNumber":27},{"time":41795.429999999935,"duration":272.72699999999895,"noteNumber":41,"velocity":127,"programNumber":27},{"time":40977.24899999994,"duration":1363.6349999999948,"noteNumber":45,"velocity":127,"programNumber":27},{"time":42068.156999999934,"duration":545.4539999999979,"noteNumber":40,"velocity":127,"programNumber":27},{"time":42613.61099999993,"duration":272.72699999999895,"noteNumber":40,"velocity":127,"programNumber":27},{"time":42340.88399999993,"duration":1090.9079999999958,"noteNumber":47,"velocity":127,"programNumber":27},{"time":42886.33799999993,"duration":818.1809999999969,"noteNumber":40,"velocity":127,"programNumber":27},{"time":43704.51899999993,"duration":272.72699999999895,"noteNumber":40,"velocity":127,"programNumber":27},{"time":43977.24599999993,"duration":272.72699999999895,"noteNumber":41,"velocity":127,"programNumber":27},{"time":43431.79199999993,"duration":1363.6349999999948,"noteNumber":47,"velocity":127,"programNumber":27},{"time":44249.972999999925,"duration":818.1809999999969,"noteNumber":42,"velocity":127,"programNumber":27},{"time":44795.42699999992,"duration":545.4539999999979,"noteNumber":45,"velocity":127,"programNumber":27},{"time":45068.15399999992,"duration":545.4539999999979,"noteNumber":42,"velocity":127,"programNumber":27},{"time":45613.60799999992,"duration":272.72699999999895,"noteNumber":42,"velocity":127,"programNumber":27},{"time":45886.33499999992,"duration":272.72699999999895,"noteNumber":42,"velocity":127,"programNumber":27},{"time":46159.06199999992,"duration":272.72699999999895,"noteNumber":41,"velocity":127,"programNumber":27},{"time":45340.88099999992,"duration":1363.6349999999948,"noteNumber":45,"velocity":127,"programNumber":27},{"time":46431.78899999992,"duration":545.4539999999979,"noteNumber":40,"velocity":127,"programNumber":27},{"time":46977.242999999915,"duration":272.72699999999895,"noteNumber":40,"velocity":127,"programNumber":27},{"time":46704.515999999916,"duration":1090.9079999999958,"noteNumber":47,"velocity":127,"programNumber":27},{"time":47249.969999999914,"duration":818.1809999999969,"noteNumber":40,"velocity":127,"programNumber":27},{"time":48068.15099999991,"duration":272.72699999999895,"noteNumber":40,"velocity":127,"programNumber":27},{"time":48340.87799999991,"duration":272.72699999999895,"noteNumber":41,"velocity":127,"programNumber":27},{"time":47795.42399999991,"duration":1363.6349999999948,"noteNumber":47,"velocity":127,"programNumber":27},{"time":48613.60499999991,"duration":818.1809999999969,"noteNumber":42,"velocity":127,"programNumber":27},{"time":49159.05899999991,"duration":545.4539999999979,"noteNumber":45,"velocity":127,"programNumber":27},{"time":49431.785999999905,"duration":545.4539999999979,"noteNumber":42,"velocity":127,"programNumber":27},{"time":49977.2399999999,"duration":272.72699999999895,"noteNumber":42,"velocity":127,"programNumber":27},{"time":50249.9669999999,"duration":272.72699999999895,"noteNumber":42,"velocity":127,"programNumber":27},{"time":50522.6939999999,"duration":272.72699999999895,"noteNumber":41,"velocity":127,"programNumber":27},{"time":49704.512999999904,"duration":1363.6349999999948,"noteNumber":45,"velocity":127,"programNumber":27},{"time":51340.8749999999,"duration":272.72699999999895,"noteNumber":40,"velocity":127,"programNumber":27},{"time":51068.1479999999,"duration":545.4539999999979,"noteNumber":47,"velocity":127,"programNumber":27},{"time":51613.6019999999,"duration":545.4539999999979,"noteNumber":52,"velocity":127,"programNumber":27},{"time":51613.6019999999,"duration":545.4539999999979,"noteNumber":56,"velocity":127,"programNumber":27},{"time":51613.6019999999,"duration":545.4539999999979,"noteNumber":59,"velocity":127,"programNumber":27},{"time":52159.055999999895,"duration":272.72699999999895,"noteNumber":56,"velocity":127,"programNumber":27},{"time":52159.055999999895,"duration":272.72699999999895,"noteNumber":59,"velocity":127,"programNumber":27},{"time":52159.055999999895,"duration":272.72699999999895,"noteNumber":64,"velocity":127,"programNumber":27},{"time":52431.782999999894,"duration":272.72699999999895,"noteNumber":52,"velocity":127,"programNumber":27},{"time":52431.782999999894,"duration":272.72699999999895,"noteNumber":56,"velocity":127,"programNumber":27},{"time":52431.782999999894,"duration":272.72699999999895,"noteNumber":59,"velocity":127,"programNumber":27},{"time":52704.50999999989,"duration":272.72699999999895,"noteNumber":52,"velocity":127,"programNumber":27},{"time":52704.50999999989,"duration":272.72699999999895,"noteNumber":56,"velocity":127,"programNumber":27},{"time":52704.50999999989,"duration":272.72699999999895,"noteNumber":59,"velocity":127,"programNumber":27},{"time":52977.23699999989,"duration":818.1809999999969,"noteNumber":42,"velocity":127,"programNumber":27},{"time":52977.23699999989,"duration":818.1809999999969,"noteNumber":54,"velocity":127,"programNumber":27},{"time":53795.41799999989,"duration":818.1809999999969,"noteNumber":59,"velocity":127,"programNumber":27},{"time":53795.41799999989,"duration":818.1809999999969,"noteNumber":61,"velocity":127,"programNumber":27},{"time":53795.41799999989,"duration":818.1809999999969,"noteNumber":66,"velocity":127,"programNumber":27},{"time":54613.598999999886,"duration":272.72699999999895,"noteNumber":54,"velocity":127,"programNumber":27},{"time":54613.598999999886,"duration":272.72699999999895,"noteNumber":59,"velocity":127,"programNumber":27},{"time":54613.598999999886,"duration":272.72699999999895,"noteNumber":61,"velocity":127,"programNumber":27},{"time":54886.325999999885,"duration":272.72699999999895,"noteNumber":50,"velocity":127,"programNumber":27},{"time":54886.325999999885,"duration":272.72699999999895,"noteNumber":55,"velocity":127,"programNumber":27},{"time":55159.05299999988,"duration":272.72699999999895,"noteNumber":45,"velocity":127,"programNumber":27},{"time":55159.05299999988,"duration":272.72699999999895,"noteNumber":52,"velocity":127,"programNumber":27},{"time":55159.05299999988,"duration":272.72699999999895,"noteNumber":57,"velocity":127,"programNumber":27},{"time":55431.77999999988,"duration":272.72699999999895,"noteNumber":57,"velocity":127,"programNumber":27},{"time":55704.50699999988,"duration":272.72699999999895,"noteNumber":45,"velocity":127,"programNumber":27},{"time":55704.50699999988,"duration":272.72699999999895,"noteNumber":52,"velocity":127,"programNumber":27},{"time":55704.50699999988,"duration":272.72699999999895,"noteNumber":57,"velocity":127,"programNumber":27},{"time":55977.23399999988,"duration":272.72699999999895,"noteNumber":57,"velocity":127,"programNumber":27},{"time":56249.96099999988,"duration":272.72699999999895,"noteNumber":45,"velocity":127,"programNumber":27},{"time":56249.96099999988,"duration":272.72699999999895,"noteNumber":52,"velocity":127,"programNumber":27},{"time":56249.96099999988,"duration":272.72699999999895,"noteNumber":57,"velocity":127,"programNumber":27},{"time":56522.68799999988,"duration":272.72699999999895,"noteNumber":57,"velocity":127,"programNumber":27},{"time":56795.41499999988,"duration":272.72699999999895,"noteNumber":45,"velocity":127,"programNumber":27},{"time":56795.41499999988,"duration":272.72699999999895,"noteNumber":52,"velocity":127,"programNumber":27},{"time":56795.41499999988,"duration":272.72699999999895,"noteNumber":57,"velocity":127,"programNumber":27},{"time":57068.141999999876,"duration":272.72699999999895,"noteNumber":57,"velocity":127,"programNumber":27},{"time":57340.868999999875,"duration":818.1809999999969,"noteNumber":42,"velocity":127,"programNumber":27},{"time":57340.868999999875,"duration":818.1809999999969,"noteNumber":54,"velocity":127,"programNumber":27},{"time":58159.04999999987,"duration":818.1809999999969,"noteNumber":59,"velocity":127,"programNumber":27},{"time":58159.04999999987,"duration":818.1809999999969,"noteNumber":61,"velocity":127,"programNumber":27},{"time":58159.04999999987,"duration":818.1809999999969,"noteNumber":66,"velocity":127,"programNumber":27},{"time":58977.23099999987,"duration":272.72699999999895,"noteNumber":54,"velocity":127,"programNumber":27},{"time":58977.23099999987,"duration":272.72699999999895,"noteNumber":59,"velocity":127,"programNumber":27},{"time":58977.23099999987,"duration":272.72699999999895,"noteNumber":61,"velocity":127,"programNumber":27},{"time":59249.95799999987,"duration":272.72699999999895,"noteNumber":50,"velocity":127,"programNumber":27},{"time":59249.95799999987,"duration":272.72699999999895,"noteNumber":55,"velocity":127,"programNumber":27},{"time":59522.68499999987,"duration":272.72699999999895,"noteNumber":45,"velocity":127,"programNumber":27},{"time":59522.68499999987,"duration":272.72699999999895,"noteNumber":52,"velocity":127,"programNumber":27},{"time":59522.68499999987,"duration":272.72699999999895,"noteNumber":57,"velocity":127,"programNumber":27},{"time":59795.411999999866,"duration":272.72699999999895,"noteNumber":57,"velocity":127,"programNumber":27},{"time":60068.138999999865,"duration":272.72699999999895,"noteNumber":45,"velocity":127,"programNumber":27},{"time":60068.138999999865,"duration":272.72699999999895,"noteNumber":52,"velocity":127,"programNumber":27},{"time":60068.138999999865,"duration":272.72699999999895,"noteNumber":57,"velocity":127,"programNumber":27},{"time":60340.86599999986,"duration":272.72699999999895,"noteNumber":57,"velocity":127,"programNumber":27},{"time":60613.59299999986,"duration":545.4539999999979,"noteNumber":45,"velocity":127,"programNumber":27},{"time":60613.59299999986,"duration":545.4539999999979,"noteNumber":52,"velocity":127,"programNumber":27},{"time":60613.59299999986,"duration":545.4539999999979,"noteNumber":57,"velocity":127,"programNumber":27},{"time":61159.04699999986,"duration":272.72699999999895,"noteNumber":45,"velocity":127,"programNumber":27},{"time":61159.04699999986,"duration":272.72699999999895,"noteNumber":52,"velocity":127,"programNumber":27},{"time":61159.04699999986,"duration":272.72699999999895,"noteNumber":57,"velocity":127,"programNumber":27},{"time":61431.77399999986,"duration":272.72699999999895,"noteNumber":50,"velocity":127,"programNumber":27},{"time":61431.77399999986,"duration":272.72699999999895,"noteNumber":55,"velocity":127,"programNumber":27},{"time":61704.50099999986,"duration":818.1809999999969,"noteNumber":42,"velocity":127,"programNumber":27},{"time":61704.50099999986,"duration":818.1809999999969,"noteNumber":54,"velocity":127,"programNumber":27},{"time":62522.681999999855,"duration":818.1809999999969,"noteNumber":59,"velocity":127,"programNumber":27},{"time":62522.681999999855,"duration":818.1809999999969,"noteNumber":61,"velocity":127,"programNumber":27},{"time":62522.681999999855,"duration":818.1809999999969,"noteNumber":66,"velocity":127,"programNumber":27},{"time":63340.86299999985,"duration":272.72699999999895,"noteNumber":54,"velocity":127,"programNumber":27},{"time":63340.86299999985,"duration":272.72699999999895,"noteNumber":59,"velocity":127,"programNumber":27},{"time":63340.86299999985,"duration":272.72699999999895,"noteNumber":61,"velocity":127,"programNumber":27},{"time":63613.58999999985,"duration":272.72699999999895,"noteNumber":50,"velocity":127,"programNumber":27},{"time":63613.58999999985,"duration":272.72699999999895,"noteNumber":55,"velocity":127,"programNumber":27},{"time":63886.31699999985,"duration":272.72699999999895,"noteNumber":45,"velocity":127,"programNumber":27},{"time":63886.31699999985,"duration":272.72699999999895,"noteNumber":52,"velocity":127,"programNumber":27},{"time":63886.31699999985,"duration":272.72699999999895,"noteNumber":57,"velocity":127,"programNumber":27},{"time":64159.04399999985,"duration":272.72699999999895,"noteNumber":57,"velocity":127,"programNumber":27},{"time":64431.77099999985,"duration":272.72699999999895,"noteNumber":45,"velocity":127,"programNumber":27},{"time":64431.77099999985,"duration":272.72699999999895,"noteNumber":52,"velocity":127,"programNumber":27},{"time":64431.77099999985,"duration":272.72699999999895,"noteNumber":57,"velocity":127,"programNumber":27},{"time":64704.49799999985,"duration":272.72699999999895,"noteNumber":57,"velocity":127,"programNumber":27},{"time":64977.224999999846,"duration":272.72699999999895,"noteNumber":45,"velocity":127,"programNumber":27},{"time":64977.224999999846,"duration":272.72699999999895,"noteNumber":52,"velocity":127,"programNumber":27},{"time":64977.224999999846,"duration":272.72699999999895,"noteNumber":57,"velocity":127,"programNumber":27},{"time":65249.951999999845,"duration":272.72699999999895,"noteNumber":57,"velocity":127,"programNumber":27},{"time":65522.678999999844,"duration":272.72699999999895,"noteNumber":45,"velocity":127,"programNumber":27},{"time":65522.678999999844,"duration":272.72699999999895,"noteNumber":52,"velocity":127,"programNumber":27},{"time":65522.678999999844,"duration":272.72699999999895,"noteNumber":57,"velocity":127,"programNumber":27},{"time":65795.40599999984,"duration":272.72699999999895,"noteNumber":57,"velocity":127,"programNumber":27},{"time":66068.13299999984,"duration":818.1809999999969,"noteNumber":42,"velocity":127,"programNumber":27},{"time":66068.13299999984,"duration":818.1809999999969,"noteNumber":54,"velocity":127,"programNumber":27},{"time":66886.31399999984,"duration":818.1809999999969,"noteNumber":59,"velocity":127,"programNumber":27},{"time":66886.31399999984,"duration":818.1809999999969,"noteNumber":61,"velocity":127,"programNumber":27},{"time":66886.31399999984,"duration":818.1809999999969,"noteNumber":66,"velocity":127,"programNumber":27},{"time":67704.49499999984,"duration":272.72699999999895,"noteNumber":54,"velocity":127,"programNumber":27},{"time":67704.49499999984,"duration":272.72699999999895,"noteNumber":59,"velocity":127,"programNumber":27},{"time":67704.49499999984,"duration":272.72699999999895,"noteNumber":61,"velocity":127,"programNumber":27},{"time":67977.22199999983,"duration":272.72699999999895,"noteNumber":50,"velocity":127,"programNumber":27},{"time":67977.22199999983,"duration":272.72699999999895,"noteNumber":55,"velocity":127,"programNumber":27},{"time":68249.94899999983,"duration":272.72699999999895,"noteNumber":45,"velocity":127,"programNumber":27},{"time":68249.94899999983,"duration":272.72699999999895,"noteNumber":52,"velocity":127,"programNumber":27},{"time":68249.94899999983,"duration":272.72699999999895,"noteNumber":57,"velocity":127,"programNumber":27},{"time":68522.67599999983,"duration":272.72699999999895,"noteNumber":57,"velocity":127,"programNumber":27},{"time":68795.40299999983,"duration":272.72699999999895,"noteNumber":45,"velocity":127,"programNumber":27},{"time":68795.40299999983,"duration":272.72699999999895,"noteNumber":52,"velocity":127,"programNumber":27},{"time":68795.40299999983,"duration":272.72699999999895,"noteNumber":57,"velocity":127,"programNumber":27},{"time":69068.12999999983,"duration":272.72699999999895,"noteNumber":57,"velocity":127,"programNumber":27},{"time":69340.85699999983,"duration":545.4539999999979,"noteNumber":45,"velocity":127,"programNumber":27},{"time":69340.85699999983,"duration":545.4539999999979,"noteNumber":52,"velocity":127,"programNumber":27},{"time":69340.85699999983,"duration":545.4539999999979,"noteNumber":57,"velocity":127,"programNumber":27},{"time":69886.31099999983,"duration":272.72699999999895,"noteNumber":45,"velocity":127,"programNumber":27},{"time":69886.31099999983,"duration":272.72699999999895,"noteNumber":52,"velocity":127,"programNumber":27},{"time":69886.31099999983,"duration":272.72699999999895,"noteNumber":57,"velocity":127,"programNumber":27},{"time":70159.03799999983,"duration":272.72699999999895,"noteNumber":50,"velocity":127,"programNumber":27},{"time":70159.03799999983,"duration":272.72699999999895,"noteNumber":55,"velocity":127,"programNumber":27},{"time":70431.76499999982,"duration":545.4539999999979,"noteNumber":42,"velocity":127,"programNumber":27},{"time":70977.21899999982,"duration":272.72699999999895,"noteNumber":45,"velocity":127,"programNumber":27},{"time":71249.94599999982,"duration":272.72699999999895,"noteNumber":42,"velocity":127,"programNumber":27},{"time":71522.67299999982,"duration":272.72699999999895,"noteNumber":45,"velocity":127,"programNumber":27},{"time":71795.39999999982,"duration":272.72699999999895,"noteNumber":42,"velocity":127,"programNumber":27},{"time":72068.12699999982,"duration":272.72699999999895,"noteNumber":42,"velocity":127,"programNumber":27},{"time":72340.85399999982,"duration":272.72699999999895,"noteNumber":41,"velocity":127,"programNumber":27},{"time":72613.58099999982,"duration":272.72699999999895,"noteNumber":40,"velocity":127,"programNumber":27},{"time":72886.30799999982,"duration":272.72699999999895,"noteNumber":47,"velocity":127,"programNumber":27},{"time":73159.03499999981,"duration":272.72699999999895,"noteNumber":40,"velocity":127,"programNumber":27},{"time":73431.76199999981,"duration":545.4539999999979,"noteNumber":40,"velocity":127,"programNumber":27},{"time":73977.21599999981,"duration":272.72699999999895,"noteNumber":47,"velocity":127,"programNumber":27},{"time":74249.94299999981,"duration":272.72699999999895,"noteNumber":40,"velocity":127,"programNumber":27},{"time":74522.66999999981,"duration":272.72699999999895,"noteNumber":41,"velocity":127,"programNumber":27},{"time":74795.39699999981,"duration":545.4539999999979,"noteNumber":42,"velocity":127,"programNumber":27},{"time":75340.8509999998,"duration":272.72699999999895,"noteNumber":45,"velocity":127,"programNumber":27},{"time":75613.5779999998,"duration":272.72699999999895,"noteNumber":42,"velocity":127,"programNumber":27},{"time":75886.3049999998,"duration":272.72699999999895,"noteNumber":45,"velocity":127,"programNumber":27},{"time":76159.0319999998,"duration":272.72699999999895,"noteNumber":42,"velocity":127,"programNumber":27},{"time":76431.7589999998,"duration":272.72699999999895,"noteNumber":42,"velocity":127,"programNumber":27},{"time":76704.4859999998,"duration":272.72699999999895,"noteNumber":41,"velocity":127,"programNumber":27},{"time":76977.2129999998,"duration":272.72699999999895,"noteNumber":40,"velocity":127,"programNumber":27},{"time":77249.9399999998,"duration":272.72699999999895,"noteNumber":47,"velocity":127,"programNumber":27},{"time":77522.6669999998,"duration":272.72699999999895,"noteNumber":40,"velocity":127,"programNumber":27},{"time":77795.3939999998,"duration":545.4539999999979,"noteNumber":40,"velocity":127,"programNumber":27},{"time":78340.8479999998,"duration":272.72699999999895,"noteNumber":47,"velocity":127,"programNumber":27},{"time":78613.5749999998,"duration":272.72699999999895,"noteNumber":40,"velocity":127,"programNumber":27},{"time":78886.30199999979,"duration":272.72699999999895,"noteNumber":41,"velocity":127,"programNumber":27},{"time":79159.02899999979,"duration":545.4539999999979,"noteNumber":42,"velocity":127,"programNumber":27},{"time":79704.48299999979,"duration":272.72699999999895,"noteNumber":45,"velocity":127,"programNumber":27},{"time":79977.20999999979,"duration":272.72699999999895,"noteNumber":42,"velocity":127,"programNumber":27},{"time":80249.93699999979,"duration":272.72699999999895,"noteNumber":45,"velocity":127,"programNumber":27},{"time":80522.66399999979,"duration":272.72699999999895,"noteNumber":42,"velocity":127,"programNumber":27},{"time":80795.39099999978,"duration":272.72699999999895,"noteNumber":42,"velocity":127,"programNumber":27},{"time":81068.11799999978,"duration":272.72699999999895,"noteNumber":41,"velocity":127,"programNumber":27},{"time":81340.84499999978,"duration":272.72699999999895,"noteNumber":40,"velocity":127,"programNumber":27},{"time":81613.57199999978,"duration":272.72699999999895,"noteNumber":47,"velocity":127,"programNumber":27},{"time":81886.29899999978,"duration":272.72699999999895,"noteNumber":40,"velocity":127,"programNumber":27},{"time":82159.02599999978,"duration":545.4539999999979,"noteNumber":40,"velocity":127,"programNumber":27},{"time":82704.47999999978,"duration":272.72699999999895,"noteNumber":47,"velocity":127,"programNumber":27},{"time":82977.20699999978,"duration":272.72699999999895,"noteNumber":40,"velocity":127,"programNumber":27},{"time":83249.93399999978,"duration":272.72699999999895,"noteNumber":41,"velocity":127,"programNumber":27},{"time":83522.66099999977,"duration":545.4539999999979,"noteNumber":42,"velocity":127,"programNumber":27},{"time":84068.11499999977,"duration":272.72699999999895,"noteNumber":45,"velocity":127,"programNumber":27},{"time":84340.84199999977,"duration":272.72699999999895,"noteNumber":42,"velocity":127,"programNumber":27},{"time":84613.56899999977,"duration":272.72699999999895,"noteNumber":45,"velocity":127,"programNumber":27},{"time":84886.29599999977,"duration":272.72699999999895,"noteNumber":42,"velocity":127,"programNumber":27},{"time":85159.02299999977,"duration":272.72699999999895,"noteNumber":42,"velocity":127,"programNumber":27},{"time":85431.74999999977,"duration":272.72699999999895,"noteNumber":41,"velocity":127,"programNumber":27},{"time":85704.47699999977,"duration":272.72699999999895,"noteNumber":40,"velocity":127,"programNumber":27},{"time":85977.20399999977,"duration":272.72699999999895,"noteNumber":47,"velocity":127,"programNumber":27},{"time":86249.93099999976,"duration":272.72699999999895,"noteNumber":40,"velocity":127,"programNumber":27},{"time":86522.65799999976,"duration":545.4539999999979,"noteNumber":52,"velocity":127,"programNumber":27},{"time":86522.65799999976,"duration":545.4539999999979,"noteNumber":56,"velocity":127,"programNumber":27},{"time":86522.65799999976,"duration":545.4539999999979,"noteNumber":59,"velocity":127,"programNumber":27},{"time":87068.11199999976,"duration":272.72699999999895,"noteNumber":56,"velocity":127,"programNumber":27},{"time":87068.11199999976,"duration":272.72699999999895,"noteNumber":59,"velocity":127,"programNumber":27},{"time":87068.11199999976,"duration":272.72699999999895,"noteNumber":64,"velocity":127,"programNumber":27},{"time":87340.83899999976,"duration":272.72699999999895,"noteNumber":52,"velocity":127,"programNumber":27},{"time":87340.83899999976,"duration":272.72699999999895,"noteNumber":56,"velocity":127,"programNumber":27},{"time":87340.83899999976,"duration":272.72699999999895,"noteNumber":59,"velocity":127,"programNumber":27},{"time":87613.56599999976,"duration":272.72699999999895,"noteNumber":52,"velocity":127,"programNumber":27},{"time":87613.56599999976,"duration":272.72699999999895,"noteNumber":56,"velocity":127,"programNumber":27},{"time":87613.56599999976,"duration":272.72699999999895,"noteNumber":59,"velocity":127,"programNumber":27},{"time":87886.29299999976,"duration":818.1809999999969,"noteNumber":42,"velocity":127,"programNumber":27},{"time":87886.29299999976,"duration":818.1809999999969,"noteNumber":54,"velocity":127,"programNumber":27},{"time":88704.47399999975,"duration":818.1809999999969,"noteNumber":59,"velocity":127,"programNumber":27},{"time":88704.47399999975,"duration":818.1809999999969,"noteNumber":61,"velocity":127,"programNumber":27},{"time":88704.47399999975,"duration":818.1809999999969,"noteNumber":66,"velocity":127,"programNumber":27},{"time":89522.65499999975,"duration":272.72699999999895,"noteNumber":54,"velocity":127,"programNumber":27},{"time":89522.65499999975,"duration":272.72699999999895,"noteNumber":59,"velocity":127,"programNumber":27},{"time":89522.65499999975,"duration":272.72699999999895,"noteNumber":61,"velocity":127,"programNumber":27},{"time":89795.38199999975,"duration":272.72699999999895,"noteNumber":50,"velocity":127,"programNumber":27},{"time":89795.38199999975,"duration":272.72699999999895,"noteNumber":55,"velocity":127,"programNumber":27},{"time":90068.10899999975,"duration":272.72699999999895,"noteNumber":45,"velocity":127,"programNumber":27},{"time":90068.10899999975,"duration":272.72699999999895,"noteNumber":52,"velocity":127,"programNumber":27},{"time":90068.10899999975,"duration":272.72699999999895,"noteNumber":57,"velocity":127,"programNumber":27},{"time":90340.83599999975,"duration":272.72699999999895,"noteNumber":57,"velocity":127,"programNumber":27},{"time":90613.56299999975,"duration":272.72699999999895,"noteNumber":45,"velocity":127,"programNumber":27},{"time":90613.56299999975,"duration":272.72699999999895,"noteNumber":52,"velocity":127,"programNumber":27},{"time":90613.56299999975,"duration":272.72699999999895,"noteNumber":57,"velocity":127,"programNumber":27},{"time":90886.28999999975,"duration":272.72699999999895,"noteNumber":57,"velocity":127,"programNumber":27},{"time":91159.01699999975,"duration":272.72699999999895,"noteNumber":45,"velocity":127,"programNumber":27},{"time":91159.01699999975,"duration":272.72699999999895,"noteNumber":52,"velocity":127,"programNumber":27},{"time":91159.01699999975,"duration":272.72699999999895,"noteNumber":57,"velocity":127,"programNumber":27},{"time":91431.74399999974,"duration":272.72699999999895,"noteNumber":57,"velocity":127,"programNumber":27},{"time":91704.47099999974,"duration":272.72699999999895,"noteNumber":45,"velocity":127,"programNumber":27},{"time":91704.47099999974,"duration":272.72699999999895,"noteNumber":52,"velocity":127,"programNumber":27},{"time":91704.47099999974,"duration":272.72699999999895,"noteNumber":57,"velocity":127,"programNumber":27},{"time":91977.19799999974,"duration":272.72699999999895,"noteNumber":57,"velocity":127,"programNumber":27},{"time":92249.92499999974,"duration":818.1809999999969,"noteNumber":42,"velocity":127,"programNumber":27},{"time":92249.92499999974,"duration":818.1809999999969,"noteNumber":54,"velocity":127,"programNumber":27},{"time":93068.10599999974,"duration":818.1809999999969,"noteNumber":59,"velocity":127,"programNumber":27},{"time":93068.10599999974,"duration":818.1809999999969,"noteNumber":61,"velocity":127,"programNumber":27},{"time":93068.10599999974,"duration":818.1809999999969,"noteNumber":66,"velocity":127,"programNumber":27},{"time":93886.28699999973,"duration":272.72699999999895,"noteNumber":54,"velocity":127,"programNumber":27},{"time":93886.28699999973,"duration":272.72699999999895,"noteNumber":59,"velocity":127,"programNumber":27},{"time":93886.28699999973,"duration":272.72699999999895,"noteNumber":61,"velocity":127,"programNumber":27},{"time":94159.01399999973,"duration":272.72699999999895,"noteNumber":50,"velocity":127,"programNumber":27},{"time":94159.01399999973,"duration":272.72699999999895,"noteNumber":55,"velocity":127,"programNumber":27},{"time":94431.74099999973,"duration":272.72699999999895,"noteNumber":45,"velocity":127,"programNumber":27},{"time":94431.74099999973,"duration":272.72699999999895,"noteNumber":52,"velocity":127,"programNumber":27},{"time":94431.74099999973,"duration":272.72699999999895,"noteNumber":57,"velocity":127,"programNumber":27},{"time":94704.46799999973,"duration":272.72699999999895,"noteNumber":57,"velocity":127,"programNumber":27},{"time":94977.19499999973,"duration":272.72699999999895,"noteNumber":45,"velocity":127,"programNumber":27},{"time":94977.19499999973,"duration":272.72699999999895,"noteNumber":52,"velocity":127,"programNumber":27},{"time":94977.19499999973,"duration":272.72699999999895,"noteNumber":57,"velocity":127,"programNumber":27},{"time":95249.92199999973,"duration":275.22900000000664,"noteNumber":57,"velocity":127,"programNumber":27},{"time":95525.15099999974,"duration":625,"noteNumber":45,"velocity":127,"programNumber":27},{"time":95525.15099999974,"duration":625,"noteNumber":52,"velocity":127,"programNumber":27},{"time":95525.15099999974,"duration":625,"noteNumber":57,"velocity":127,"programNumber":27},{"time":96150.15099999974,"duration":322.5804999999964,"noteNumber":45,"velocity":127,"programNumber":27},{"time":96150.15099999974,"duration":322.5804999999964,"noteNumber":52,"velocity":127,"programNumber":27},{"time":96150.15099999974,"duration":322.5804999999964,"noteNumber":57,"velocity":127,"programNumber":27},{"time":96472.73149999973,"duration":322.5804999999964,"noteNumber":50,"velocity":127,"programNumber":27},{"time":96472.73149999973,"duration":322.5804999999964,"noteNumber":55,"velocity":127,"programNumber":27},{"time":96795.31199999973,"duration":967.7415000000037,"noteNumber":42,"velocity":127,"programNumber":27},{"time":96795.31199999973,"duration":967.7415000000037,"noteNumber":54,"velocity":127,"programNumber":27},{"time":97763.05349999973,"duration":967.7415000000037,"noteNumber":59,"velocity":127,"programNumber":27},{"time":97763.05349999973,"duration":967.7415000000037,"noteNumber":61,"velocity":127,"programNumber":27},{"time":97763.05349999973,"duration":967.7415000000037,"noteNumber":66,"velocity":127,"programNumber":27},{"time":98730.79499999974,"duration":322.5804999999964,"noteNumber":54,"velocity":127,"programNumber":27},{"time":98730.79499999974,"duration":322.5804999999964,"noteNumber":59,"velocity":127,"programNumber":27},{"time":98730.79499999974,"duration":322.5804999999964,"noteNumber":61,"velocity":127,"programNumber":27},{"time":99053.37549999973,"duration":322.5804999999964,"noteNumber":50,"velocity":127,"programNumber":27},{"time":99053.37549999973,"duration":322.5804999999964,"noteNumber":55,"velocity":127,"programNumber":27},{"time":99375.95599999973,"duration":322.5804999999964,"noteNumber":45,"velocity":127,"programNumber":27},{"time":99375.95599999973,"duration":322.5804999999964,"noteNumber":52,"velocity":127,"programNumber":27},{"time":99375.95599999973,"duration":322.5804999999964,"noteNumber":57,"velocity":127,"programNumber":27},{"time":99698.53649999973,"duration":258.62050000000454,"noteNumber":57,"velocity":127,"programNumber":27},{"time":99957.15699999973,"duration":277.7774999999965,"noteNumber":45,"velocity":127,"programNumber":27},{"time":99957.15699999973,"duration":277.7774999999965,"noteNumber":52,"velocity":127,"programNumber":27},{"time":99957.15699999973,"duration":277.7774999999965,"noteNumber":57,"velocity":127,"programNumber":27},{"time":100234.93449999973,"duration":300,"noteNumber":57,"velocity":127,"programNumber":27},{"time":100534.93449999973,"duration":326.0865000000049,"noteNumber":45,"velocity":127,"programNumber":27},{"time":100534.93449999973,"duration":326.0865000000049,"noteNumber":52,"velocity":127,"programNumber":27},{"time":100534.93449999973,"duration":326.0865000000049,"noteNumber":57,"velocity":127,"programNumber":27},{"time":100861.02099999973,"duration":357.14250000000175,"noteNumber":57,"velocity":127,"programNumber":27},{"time":101218.16349999973,"duration":394.73649999999907,"noteNumber":45,"velocity":127,"programNumber":27},{"time":101218.16349999973,"duration":394.73649999999907,"noteNumber":52,"velocity":127,"programNumber":27},{"time":101218.16349999973,"duration":394.73649999999907,"noteNumber":57,"velocity":127,"programNumber":27},{"time":101612.89999999973,"duration":357.14250000000175,"noteNumber":57,"velocity":127,"programNumber":27},{"time":101970.04249999973,"duration":1153.8450000000012,"noteNumber":42,"velocity":127,"programNumber":27},{"time":101970.04249999973,"duration":1153.8450000000012,"noteNumber":54,"velocity":127,"programNumber":27},{"time":103123.88749999974,"duration":1071.4275000000052,"noteNumber":59,"velocity":127,"programNumber":27},{"time":103123.88749999974,"duration":1071.4275000000052,"noteNumber":61,"velocity":127,"programNumber":27},{"time":103123.88749999974,"duration":1071.4275000000052,"noteNumber":66,"velocity":127,"programNumber":27},{"time":104195.31499999974,"duration":416.66650000000664,"noteNumber":54,"velocity":127,"programNumber":27},{"time":104195.31499999974,"duration":416.66650000000664,"noteNumber":59,"velocity":127,"programNumber":27},{"time":104195.31499999974,"duration":416.66650000000664,"noteNumber":61,"velocity":127,"programNumber":27},{"time":104611.98149999975,"duration":384.61500000000524,"noteNumber":50,"velocity":127,"programNumber":27},{"time":104611.98149999975,"duration":384.61500000000524,"noteNumber":55,"velocity":127,"programNumber":27},{"time":104996.59649999975,"duration":357.14250000000175,"noteNumber":57,"velocity":127,"programNumber":27},{"time":104996.59649999975,"duration":357.14250000000175,"noteNumber":52,"velocity":127,"programNumber":27},{"time":104996.59649999975,"duration":357.14250000000175,"noteNumber":45,"velocity":127,"programNumber":27},{"time":105353.73899999975,"duration":416.66650000000664,"noteNumber":45,"velocity":127,"programNumber":27},{"time":105353.73899999975,"duration":416.66650000000664,"noteNumber":52,"velocity":127,"programNumber":27},{"time":105353.73899999975,"duration":416.66650000000664,"noteNumber":57,"velocity":127,"programNumber":27},{"time":105770.40549999976,"duration":428.5709999999963,"noteNumber":45,"velocity":127,"programNumber":27},{"time":105770.40549999976,"duration":428.5709999999963,"noteNumber":52,"velocity":127,"programNumber":27},{"time":105770.40549999976,"duration":428.5709999999963,"noteNumber":57,"velocity":127,"programNumber":27},{"time":106198.97649999976,"duration":428.5709999999963,"noteNumber":45,"velocity":127,"programNumber":27},{"time":106198.97649999976,"duration":428.5709999999963,"noteNumber":52,"velocity":127,"programNumber":27},{"time":106198.97649999976,"duration":428.5709999999963,"noteNumber":57,"velocity":127,"programNumber":27},{"time":106627.54749999975,"duration":428.5709999999963,"noteNumber":45,"velocity":127,"programNumber":27},{"time":106627.54749999975,"duration":428.5709999999963,"noteNumber":52,"velocity":127,"programNumber":27},{"time":106627.54749999975,"duration":428.5709999999963,"noteNumber":57,"velocity":127,"programNumber":27},{"time":107056.11849999975,"duration":428.5709999999963,"noteNumber":45,"velocity":127,"programNumber":27},{"time":107056.11849999975,"duration":428.5709999999963,"noteNumber":52,"velocity":127,"programNumber":27},{"time":107056.11849999975,"duration":428.5709999999963,"noteNumber":57,"velocity":127,"programNumber":27},{"time":107484.68949999975,"duration":428.5709999999963,"noteNumber":57,"velocity":127,"programNumber":27},{"time":107484.68949999975,"duration":428.5709999999963,"noteNumber":52,"velocity":127,"programNumber":27},{"time":107484.68949999975,"duration":428.5709999999963,"noteNumber":45,"velocity":127,"programNumber":27},{"time":107913.26049999974,"duration":428.5709999999963,"noteNumber":45,"velocity":127,"programNumber":27},{"time":107913.26049999974,"duration":428.5709999999963,"noteNumber":52,"velocity":127,"programNumber":27},{"time":107913.26049999974,"duration":428.5709999999963,"noteNumber":57,"velocity":127,"programNumber":27},{"time":108341.83149999974,"duration":857.1420000000071,"noteNumber":47,"velocity":127,"programNumber":27},{"time":108341.83149999974,"duration":857.1420000000071,"noteNumber":52,"velocity":127,"programNumber":27},{"time":108341.83149999974,"duration":857.1420000000071,"noteNumber":59,"velocity":127,"programNumber":27},{"time":109198.97349999975,"duration":428.5709999999963,"noteNumber":47,"velocity":100,"programNumber":27},{"time":109198.97349999975,"duration":428.5709999999963,"noteNumber":52,"velocity":100,"programNumber":27},{"time":109198.97349999975,"duration":428.5709999999963,"noteNumber":59,"velocity":127,"programNumber":27},{"time":109627.54449999974,"duration":857.1420000000071,"noteNumber":47,"velocity":100,"programNumber":27},{"time":109627.54449999974,"duration":857.1420000000071,"noteNumber":52,"velocity":100,"programNumber":27},{"time":109627.54449999974,"duration":857.1420000000071,"noteNumber":59,"velocity":127,"programNumber":27},{"time":110484.68649999975,"duration":1285.7130000000034,"noteNumber":66,"velocity":127,"programNumber":27},{"time":110484.68649999975,"duration":1285.7130000000034,"noteNumber":71,"velocity":127,"programNumber":27},{"time":111770.39949999975,"duration":857.1420000000071,"noteNumber":62,"velocity":127,"programNumber":27},{"time":111770.39949999975,"duration":857.1420000000071,"noteNumber":50,"velocity":127,"programNumber":27},{"time":111770.39949999975,"duration":857.1420000000071,"noteNumber":57,"velocity":127,"programNumber":27},{"time":112627.54149999976,"duration":428.5709999999963,"noteNumber":50,"velocity":127,"programNumber":27},{"time":112627.54149999976,"duration":428.5709999999963,"noteNumber":57,"velocity":127,"programNumber":27},{"time":112627.54149999976,"duration":428.5709999999963,"noteNumber":62,"velocity":127,"programNumber":27},{"time":113056.11249999976,"duration":857.1420000000071,"noteNumber":50,"velocity":127,"programNumber":27},{"time":113056.11249999976,"duration":857.1420000000071,"noteNumber":57,"velocity":127,"programNumber":27},{"time":113056.11249999976,"duration":857.1420000000071,"noteNumber":62,"velocity":127,"programNumber":27},{"time":113913.25449999976,"duration":428.5709999999963,"noteNumber":50,"velocity":127,"programNumber":27},{"time":113913.25449999976,"duration":428.5709999999963,"noteNumber":57,"velocity":127,"programNumber":27},{"time":113913.25449999976,"duration":428.5709999999963,"noteNumber":62,"velocity":127,"programNumber":27},{"time":114341.82549999976,"duration":857.1420000000071,"noteNumber":50,"velocity":127,"programNumber":27},{"time":114341.82549999976,"duration":857.1420000000071,"noteNumber":57,"velocity":127,"programNumber":27},{"time":114341.82549999976,"duration":857.1420000000071,"noteNumber":62,"velocity":127,"programNumber":27},{"time":115198.96749999977,"duration":857.1420000000071,"noteNumber":59,"velocity":127,"programNumber":27},{"time":115198.96749999977,"duration":857.1420000000071,"noteNumber":52,"velocity":127,"programNumber":27},{"time":115198.96749999977,"duration":857.1420000000071,"noteNumber":47,"velocity":127,"programNumber":27},{"time":116056.10949999977,"duration":428.5709999999963,"noteNumber":47,"velocity":100,"programNumber":27},{"time":116056.10949999977,"duration":428.5709999999963,"noteNumber":52,"velocity":100,"programNumber":27},{"time":116056.10949999977,"duration":428.5709999999963,"noteNumber":59,"velocity":127,"programNumber":27},{"time":116484.68049999977,"duration":857.1420000000071,"noteNumber":47,"velocity":100,"programNumber":27},{"time":116484.68049999977,"duration":857.1420000000071,"noteNumber":52,"velocity":100,"programNumber":27},{"time":116484.68049999977,"duration":857.1420000000071,"noteNumber":59,"velocity":127,"programNumber":27},{"time":117341.82249999978,"duration":1285.7130000000034,"noteNumber":66,"velocity":127,"programNumber":27},{"time":117341.82249999978,"duration":1285.7130000000034,"noteNumber":71,"velocity":127,"programNumber":27},{"time":118627.53549999978,"duration":428.5709999999963,"noteNumber":50,"velocity":127,"programNumber":27},{"time":118627.53549999978,"duration":428.5709999999963,"noteNumber":57,"velocity":127,"programNumber":27},{"time":118627.53549999978,"duration":428.5709999999963,"noteNumber":62,"velocity":127,"programNumber":27},{"time":119056.10649999978,"duration":428.5709999999963,"noteNumber":50,"velocity":127,"programNumber":27},{"time":119056.10649999978,"duration":428.5709999999963,"noteNumber":57,"velocity":127,"programNumber":27},{"time":119056.10649999978,"duration":428.5709999999963,"noteNumber":62,"velocity":127,"programNumber":27},{"time":119484.67749999977,"duration":857.1420000000071,"noteNumber":50,"velocity":127,"programNumber":27},{"time":119484.67749999977,"duration":857.1420000000071,"noteNumber":57,"velocity":127,"programNumber":27},{"time":119484.67749999977,"duration":857.1420000000071,"noteNumber":62,"velocity":127,"programNumber":27},{"time":120341.81949999978,"duration":428.5709999999963,"noteNumber":50,"velocity":127,"programNumber":27},{"time":120341.81949999978,"duration":428.5709999999963,"noteNumber":57,"velocity":127,"programNumber":27},{"time":120341.81949999978,"duration":428.5709999999963,"noteNumber":62,"velocity":127,"programNumber":27},{"time":120770.39049999978,"duration":428.5709999999963,"noteNumber":50,"velocity":127,"programNumber":27},{"time":120770.39049999978,"duration":428.5709999999963,"noteNumber":57,"velocity":127,"programNumber":27},{"time":120770.39049999978,"duration":428.5709999999963,"noteNumber":62,"velocity":127,"programNumber":27},{"time":121198.96149999977,"duration":428.5709999999963,"noteNumber":50,"velocity":127,"programNumber":27},{"time":121198.96149999977,"duration":428.5709999999963,"noteNumber":57,"velocity":127,"programNumber":27},{"time":121198.96149999977,"duration":428.5709999999963,"noteNumber":62,"velocity":127,"programNumber":27},{"time":121627.53249999977,"duration":428.5709999999963,"noteNumber":50,"velocity":127,"programNumber":27},{"time":121627.53249999977,"duration":428.5709999999963,"noteNumber":57,"velocity":127,"programNumber":27},{"time":121627.53249999977,"duration":428.5709999999963,"noteNumber":62,"velocity":127,"programNumber":27},{"time":122056.10349999976,"duration":857.1420000000071,"noteNumber":47,"velocity":127,"programNumber":27},{"time":122056.10349999976,"duration":857.1420000000071,"noteNumber":52,"velocity":127,"programNumber":27},{"time":122056.10349999976,"duration":857.1420000000071,"noteNumber":59,"velocity":127,"programNumber":27},{"time":122913.24549999977,"duration":428.5709999999963,"noteNumber":47,"velocity":100,"programNumber":27},{"time":122913.24549999977,"duration":428.5709999999963,"noteNumber":52,"velocity":100,"programNumber":27},{"time":122913.24549999977,"duration":428.5709999999963,"noteNumber":59,"velocity":127,"programNumber":27},{"time":123341.81649999977,"duration":857.1420000000071,"noteNumber":47,"velocity":100,"programNumber":27},{"time":123341.81649999977,"duration":857.1420000000071,"noteNumber":52,"velocity":100,"programNumber":27},{"time":123341.81649999977,"duration":857.1420000000071,"noteNumber":59,"velocity":127,"programNumber":27},{"time":124198.95849999978,"duration":1285.7130000000034,"noteNumber":66,"velocity":127,"programNumber":27},{"time":124198.95849999978,"duration":1285.7130000000034,"noteNumber":71,"velocity":127,"programNumber":27},{"time":125484.67149999978,"duration":428.5709999999963,"noteNumber":50,"velocity":127,"programNumber":27},{"time":125484.67149999978,"duration":428.5709999999963,"noteNumber":57,"velocity":127,"programNumber":27},{"time":125484.67149999978,"duration":428.5709999999963,"noteNumber":62,"velocity":127,"programNumber":27},{"time":125913.24249999977,"duration":428.5709999999963,"noteNumber":50,"velocity":127,"programNumber":27},{"time":125913.24249999977,"duration":428.5709999999963,"noteNumber":57,"velocity":127,"programNumber":27},{"time":125913.24249999977,"duration":428.5709999999963,"noteNumber":62,"velocity":127,"programNumber":27},{"time":126341.81349999977,"duration":857.1420000000071,"noteNumber":50,"velocity":127,"programNumber":27},{"time":126341.81349999977,"duration":857.1420000000071,"noteNumber":57,"velocity":127,"programNumber":27},{"time":126341.81349999977,"duration":857.1420000000071,"noteNumber":62,"velocity":127,"programNumber":27},{"time":127198.95549999978,"duration":428.5709999999963,"noteNumber":50,"velocity":127,"programNumber":27},{"time":127198.95549999978,"duration":428.5709999999963,"noteNumber":57,"velocity":127,"programNumber":27},{"time":127198.95549999978,"duration":428.5709999999963,"noteNumber":62,"velocity":127,"programNumber":27},{"time":127627.52649999977,"duration":428.5709999999963,"noteNumber":50,"velocity":127,"programNumber":27},{"time":127627.52649999977,"duration":428.5709999999963,"noteNumber":57,"velocity":127,"programNumber":27},{"time":127627.52649999977,"duration":428.5709999999963,"noteNumber":62,"velocity":127,"programNumber":27},{"time":128056.09749999977,"duration":428.5709999999963,"noteNumber":50,"velocity":127,"programNumber":27},{"time":128056.09749999977,"duration":428.5709999999963,"noteNumber":57,"velocity":127,"programNumber":27},{"time":128056.09749999977,"duration":428.5709999999963,"noteNumber":62,"velocity":127,"programNumber":27},{"time":128484.66849999977,"duration":428.5709999999963,"noteNumber":50,"velocity":127,"programNumber":27},{"time":128484.66849999977,"duration":428.5709999999963,"noteNumber":57,"velocity":127,"programNumber":27},{"time":128484.66849999977,"duration":428.5709999999963,"noteNumber":62,"velocity":127,"programNumber":27},{"time":128913.23949999976,"duration":857.1420000000071,"noteNumber":47,"velocity":127,"programNumber":27},{"time":128913.23949999976,"duration":857.1420000000071,"noteNumber":52,"velocity":127,"programNumber":27},{"time":128913.23949999976,"duration":857.1420000000071,"noteNumber":59,"velocity":127,"programNumber":27},{"time":129770.38149999977,"duration":428.5709999999963,"noteNumber":47,"velocity":100,"programNumber":27},{"time":129770.38149999977,"duration":428.5709999999963,"noteNumber":52,"velocity":100,"programNumber":27},{"time":129770.38149999977,"duration":428.5709999999963,"noteNumber":59,"velocity":127,"programNumber":27},{"time":130198.95249999977,"duration":857.1420000000071,"noteNumber":47,"velocity":100,"programNumber":27},{"time":130198.95249999977,"duration":857.1420000000071,"noteNumber":52,"velocity":100,"programNumber":27},{"time":130198.95249999977,"duration":857.1420000000071,"noteNumber":59,"velocity":127,"programNumber":27},{"time":131056.09449999977,"duration":1285.7129999999888,"noteNumber":66,"velocity":127,"programNumber":27},{"time":131056.09449999977,"duration":1285.7129999999888,"noteNumber":71,"velocity":127,"programNumber":27},{"time":132341.80749999976,"duration":428.5709999999963,"noteNumber":50,"velocity":127,"programNumber":27},{"time":132341.80749999976,"duration":428.5709999999963,"noteNumber":57,"velocity":127,"programNumber":27},{"time":132341.80749999976,"duration":428.5709999999963,"noteNumber":62,"velocity":127,"programNumber":27},{"time":132770.37849999976,"duration":428.5709999999963,"noteNumber":50,"velocity":127,"programNumber":27},{"time":132770.37849999976,"duration":428.5709999999963,"noteNumber":57,"velocity":127,"programNumber":27},{"time":132770.37849999976,"duration":428.5709999999963,"noteNumber":62,"velocity":127,"programNumber":27},{"time":133198.94949999976,"duration":428.5709999999963,"noteNumber":50,"velocity":127,"programNumber":27},{"time":133198.94949999976,"duration":428.5709999999963,"noteNumber":57,"velocity":127,"programNumber":27},{"time":133198.94949999976,"duration":428.5709999999963,"noteNumber":62,"velocity":127,"programNumber":27},{"time":133627.52049999975,"duration":857.1419999999925,"noteNumber":50,"velocity":127,"programNumber":27},{"time":133627.52049999975,"duration":857.1419999999925,"noteNumber":57,"velocity":127,"programNumber":27},{"time":133627.52049999975,"duration":857.1419999999925,"noteNumber":62,"velocity":127,"programNumber":27},{"time":134484.66249999974,"duration":428.5709999999963,"noteNumber":40,"velocity":127,"programNumber":27},{"time":134913.23349999974,"duration":428.5709999999963,"noteNumber":40,"velocity":127,"programNumber":27},{"time":135341.80449999974,"duration":428.5709999999963,"noteNumber":41,"velocity":127,"programNumber":27},{"time":135770.37549999973,"duration":1285.7129999999888,"noteNumber":42,"velocity":127,"programNumber":27},{"time":136627.51749999973,"duration":857.1419999999925,"noteNumber":45,"velocity":127,"programNumber":27},{"time":137056.08849999972,"duration":857.1419999999925,"noteNumber":42,"velocity":127,"programNumber":27},{"time":137913.2304999997,"duration":428.5709999999963,"noteNumber":42,"velocity":127,"programNumber":27},{"time":138341.8014999997,"duration":428.5709999999963,"noteNumber":42,"velocity":127,"programNumber":27},{"time":138770.3724999997,"duration":428.5709999999963,"noteNumber":41,"velocity":127,"programNumber":27},{"time":137484.65949999972,"duration":2142.8549999999814,"noteNumber":45,"velocity":127,"programNumber":27},{"time":139198.9434999997,"duration":857.1419999999925,"noteNumber":40,"velocity":127,"programNumber":27},{"time":140056.0854999997,"duration":428.5709999999963,"noteNumber":40,"velocity":127,"programNumber":27},{"time":139627.5144999997,"duration":1714.283999999985,"noteNumber":47,"velocity":127,"programNumber":27},{"time":140484.6564999997,"duration":1285.7129999999888,"noteNumber":40,"velocity":127,"programNumber":27},{"time":141770.36949999968,"duration":428.5709999999963,"noteNumber":40,"velocity":127,"programNumber":27},{"time":142198.94049999968,"duration":428.5709999999963,"noteNumber":41,"velocity":127,"programNumber":27},{"time":141341.79849999968,"duration":2142.8549999999814,"noteNumber":47,"velocity":127,"programNumber":27},{"time":142627.51149999967,"duration":1285.7129999999888,"noteNumber":42,"velocity":127,"programNumber":27},{"time":143484.65349999967,"duration":857.1419999999925,"noteNumber":45,"velocity":127,"programNumber":27},{"time":143913.22449999966,"duration":857.1419999999925,"noteNumber":42,"velocity":127,"programNumber":27},{"time":144770.36649999965,"duration":428.5709999999963,"noteNumber":42,"velocity":127,"programNumber":27},{"time":145198.93749999965,"duration":428.5709999999963,"noteNumber":42,"velocity":127,"programNumber":27},{"time":145627.50849999965,"duration":428.5709999999963,"noteNumber":41,"velocity":127,"programNumber":27},{"time":144341.79549999966,"duration":2142.8549999999814,"noteNumber":45,"velocity":127,"programNumber":27},{"time":146056.07949999964,"duration":857.1419999999925,"noteNumber":40,"velocity":127,"programNumber":27},{"time":146913.22149999964,"duration":428.5709999999963,"noteNumber":40,"velocity":127,"programNumber":27},{"time":146484.65049999964,"duration":1714.283999999985,"noteNumber":47,"velocity":127,"programNumber":27},{"time":147341.79249999963,"duration":1285.7129999999888,"noteNumber":40,"velocity":127,"programNumber":27},{"time":148627.50549999962,"duration":428.5709999999963,"noteNumber":40,"velocity":127,"programNumber":27},{"time":149056.07649999962,"duration":428.5709999999963,"noteNumber":41,"velocity":127,"programNumber":27},{"time":148198.93449999962,"duration":2142.8549999999814,"noteNumber":47,"velocity":127,"programNumber":27},{"time":149484.6474999996,"duration":1285.7129999999888,"noteNumber":42,"velocity":127,"programNumber":27},{"time":150341.7894999996,"duration":857.1419999999925,"noteNumber":45,"velocity":127,"programNumber":27},{"time":150770.3604999996,"duration":857.1419999999925,"noteNumber":42,"velocity":127,"programNumber":27},{"time":151627.5024999996,"duration":428.5709999999963,"noteNumber":42,"velocity":127,"programNumber":27},{"time":152056.0734999996,"duration":428.5709999999963,"noteNumber":42,"velocity":127,"programNumber":27},{"time":152484.6444999996,"duration":428.5709999999963,"noteNumber":41,"velocity":127,"programNumber":27},{"time":151198.9314999996,"duration":2142.8549999999814,"noteNumber":45,"velocity":127,"programNumber":27},{"time":152913.21549999958,"duration":857.1419999999925,"noteNumber":40,"velocity":127,"programNumber":27},{"time":153770.35749999958,"duration":428.5709999999963,"noteNumber":40,"velocity":127,"programNumber":27},{"time":153341.78649999958,"duration":1714.283999999985,"noteNumber":47,"velocity":127,"programNumber":27},{"time":154198.92849999957,"duration":1285.7129999999888,"noteNumber":40,"velocity":127,"programNumber":27},{"time":155484.64149999956,"duration":428.5709999999963,"noteNumber":40,"velocity":127,"programNumber":27},{"time":155913.21249999956,"duration":428.5709999999963,"noteNumber":41,"velocity":127,"programNumber":27},{"time":155056.07049999957,"duration":2142.8549999999814,"noteNumber":47,"velocity":127,"programNumber":27},{"time":156341.78349999955,"duration":1285.7129999999888,"noteNumber":42,"velocity":127,"programNumber":27},{"time":157198.92549999955,"duration":857.1419999999925,"noteNumber":45,"velocity":127,"programNumber":27},{"time":157627.49649999954,"duration":857.1419999999925,"noteNumber":42,"velocity":127,"programNumber":27},{"time":158484.63849999954,"duration":428.5709999999963,"noteNumber":42,"velocity":127,"programNumber":27},{"time":158913.20949999953,"duration":428.5709999999963,"noteNumber":42,"velocity":127,"programNumber":27},{"time":159341.78049999953,"duration":428.5709999999963,"noteNumber":41,"velocity":127,"programNumber":27},{"time":158056.06749999954,"duration":2142.8549999999814,"noteNumber":45,"velocity":127,"programNumber":27},{"time":159770.35149999952,"duration":857.1419999999925,"noteNumber":40,"velocity":127,"programNumber":27},{"time":160627.49349999952,"duration":428.5709999999963,"noteNumber":40,"velocity":127,"programNumber":27},{"time":160198.92249999952,"duration":1714.283999999985,"noteNumber":47,"velocity":127,"programNumber":27},{"time":161056.0644999995,"duration":1285.7129999999888,"noteNumber":40,"velocity":127,"programNumber":27},{"time":162341.7774999995,"duration":428.5709999999963,"noteNumber":40,"velocity":127,"programNumber":27},{"time":162770.3484999995,"duration":428.5709999999963,"noteNumber":41,"velocity":127,"programNumber":27},{"time":161913.2064999995,"duration":2142.8549999999814,"noteNumber":47,"velocity":127,"programNumber":27},{"time":163198.9194999995,"duration":1285.7129999999888,"noteNumber":42,"velocity":127,"programNumber":27},{"time":164056.0614999995,"duration":857.1419999999925,"noteNumber":45,"velocity":127,"programNumber":27},{"time":164484.63249999948,"duration":857.1419999999925,"noteNumber":42,"velocity":127,"programNumber":27},{"time":165341.77449999948,"duration":428.5709999999963,"noteNumber":42,"velocity":127,"programNumber":27},{"time":165770.34549999947,"duration":428.5709999999963,"noteNumber":42,"velocity":127,"programNumber":27},{"time":166198.91649999947,"duration":428.5709999999963,"noteNumber":41,"velocity":127,"programNumber":27},{"time":164913.20349999948,"duration":2142.8549999999814,"noteNumber":45,"velocity":127,"programNumber":27},{"time":166627.48749999946,"duration":857.1419999999925,"noteNumber":40,"velocity":127,"programNumber":27},{"time":167484.62949999946,"duration":428.5709999999963,"noteNumber":40,"velocity":127,"programNumber":27},{"time":167056.05849999946,"duration":1714.283999999985,"noteNumber":47,"velocity":127,"programNumber":27},{"time":167913.20049999945,"duration":1285.7129999999888,"noteNumber":40,"velocity":127,"programNumber":27},{"time":169198.91349999944,"duration":428.5709999999963,"noteNumber":40,"velocity":127,"programNumber":27},{"time":169627.48449999944,"duration":428.5709999999963,"noteNumber":41,"velocity":127,"programNumber":27},{"time":168770.34249999945,"duration":2142.8549999999814,"noteNumber":47,"velocity":127,"programNumber":27},{"time":170056.05549999943,"duration":1285.7129999999888,"noteNumber":42,"velocity":127,"programNumber":27},{"time":170913.19749999943,"duration":857.1419999999925,"noteNumber":45,"velocity":127,"programNumber":27},{"time":171341.76849999942,"duration":857.1419999999925,"noteNumber":42,"velocity":127,"programNumber":27},{"time":172198.91049999942,"duration":428.5709999999963,"noteNumber":42,"velocity":127,"programNumber":27},{"time":172627.4814999994,"duration":428.5709999999963,"noteNumber":42,"velocity":127,"programNumber":27},{"time":173056.0524999994,"duration":428.5709999999963,"noteNumber":41,"velocity":127,"programNumber":27},{"time":171770.33949999942,"duration":2142.8549999999814,"noteNumber":45,"velocity":127,"programNumber":27},{"time":173484.6234999994,"duration":857.1419999999925,"noteNumber":40,"velocity":127,"programNumber":27},{"time":174341.7654999994,"duration":428.5709999999963,"noteNumber":40,"velocity":127,"programNumber":27},{"time":173913.1944999994,"duration":1714.283999999985,"noteNumber":47,"velocity":127,"programNumber":27},{"time":174770.3364999994,"duration":1285.7129999999888,"noteNumber":40,"velocity":127,"programNumber":27},{"time":176056.04949999938,"duration":428.5709999999963,"noteNumber":40,"velocity":127,"programNumber":27},{"time":176484.62049999938,"duration":428.5709999999963,"noteNumber":41,"velocity":127,"programNumber":27},{"time":175627.4784999994,"duration":2142.8549999999814,"noteNumber":47,"velocity":127,"programNumber":27},{"time":176913.19149999938,"duration":1285.7129999999888,"noteNumber":42,"velocity":127,"programNumber":27},{"time":177770.33349999937,"duration":857.1419999999925,"noteNumber":45,"velocity":127,"programNumber":27},{"time":178198.90449999936,"duration":857.1419999999925,"noteNumber":42,"velocity":127,"programNumber":27},{"time":179056.04649999936,"duration":428.5709999999963,"noteNumber":42,"velocity":127,"programNumber":27},{"time":179484.61749999935,"duration":428.5709999999963,"noteNumber":42,"velocity":127,"programNumber":27},{"time":179913.18849999935,"duration":428.5709999999963,"noteNumber":41,"velocity":127,"programNumber":27},{"time":178627.47549999936,"duration":2142.8549999999814,"noteNumber":45,"velocity":127,"programNumber":27},{"time":180341.75949999935,"duration":857.1419999999925,"noteNumber":40,"velocity":127,"programNumber":27},{"time":181198.90149999934,"duration":428.5709999999963,"noteNumber":40,"velocity":127,"programNumber":27},{"time":180770.33049999934,"duration":1714.283999999985,"noteNumber":47,"velocity":127,"programNumber":27},{"time":181627.47249999933,"duration":1285.7129999999888,"noteNumber":40,"velocity":127,"programNumber":27},{"time":182913.18549999932,"duration":428.5709999999963,"noteNumber":40,"velocity":127,"programNumber":27},{"time":183341.75649999932,"duration":428.5709999999963,"noteNumber":41,"velocity":127,"programNumber":27},{"time":182484.61449999933,"duration":2142.8549999999814,"noteNumber":47,"velocity":127,"programNumber":27},{"time":183770.32749999932,"duration":1285.7129999999888,"noteNumber":42,"velocity":127,"programNumber":27},{"time":184627.4694999993,"duration":857.1419999999925,"noteNumber":45,"velocity":127,"programNumber":27},{"time":185056.0404999993,"duration":857.1419999999925,"noteNumber":42,"velocity":127,"programNumber":27},{"time":185913.1824999993,"duration":428.5709999999963,"noteNumber":42,"velocity":127,"programNumber":27},{"time":186341.7534999993,"duration":428.5709999999963,"noteNumber":42,"velocity":127,"programNumber":27},{"time":186770.3244999993,"duration":428.5709999999963,"noteNumber":41,"velocity":127,"programNumber":27},{"time":185484.6114999993,"duration":2142.8549999999814,"noteNumber":45,"velocity":127,"programNumber":27},{"time":187198.8954999993,"duration":857.1419999999925,"noteNumber":40,"velocity":127,"programNumber":27},{"time":188056.03749999928,"duration":428.5709999999963,"noteNumber":40,"velocity":127,"programNumber":27},{"time":187627.46649999928,"duration":1714.283999999985,"noteNumber":47,"velocity":127,"programNumber":27},{"time":188484.60849999927,"duration":1285.7129999999888,"noteNumber":40,"velocity":127,"programNumber":27},{"time":189770.32149999926,"duration":428.5709999999963,"noteNumber":40,"velocity":127,"programNumber":27},{"time":190198.89249999926,"duration":428.5709999999963,"noteNumber":41,"velocity":127,"programNumber":27},{"time":189341.75049999927,"duration":2142.8549999999814,"noteNumber":47,"velocity":127,"programNumber":27},{"time":190627.46349999926,"duration":1285.7129999999888,"noteNumber":42,"velocity":127,"programNumber":27},{"time":191484.60549999925,"duration":857.1419999999925,"noteNumber":45,"velocity":127,"programNumber":27},{"time":191913.17649999924,"duration":857.1419999999925,"noteNumber":42,"velocity":127,"programNumber":27},{"time":192770.31849999924,"duration":428.5709999999963,"noteNumber":42,"velocity":127,"programNumber":27},{"time":193198.88949999923,"duration":428.5709999999963,"noteNumber":42,"velocity":127,"programNumber":27},{"time":193627.46049999923,"duration":428.5709999999963,"noteNumber":41,"velocity":127,"programNumber":27},{"time":192341.74749999924,"duration":2142.8549999999814,"noteNumber":45,"velocity":127,"programNumber":27},{"time":194056.03149999923,"duration":857.1419999999925,"noteNumber":40,"velocity":127,"programNumber":27},{"time":194913.17349999922,"duration":428.5709999999963,"noteNumber":40,"velocity":127,"programNumber":27},{"time":194484.60249999922,"duration":1714.283999999985,"noteNumber":47,"velocity":127,"programNumber":27},{"time":195341.74449999921,"duration":1285.7129999999888,"noteNumber":40,"velocity":127,"programNumber":27},{"time":196627.4574999992,"duration":428.5709999999963,"noteNumber":40,"velocity":127,"programNumber":27},{"time":197056.0284999992,"duration":428.5709999999963,"noteNumber":41,"velocity":127,"programNumber":27},{"time":196198.8864999992,"duration":2142.8549999999814,"noteNumber":47,"velocity":127,"programNumber":27},{"time":197484.5994999992,"duration":1285.7129999999888,"noteNumber":42,"velocity":127,"programNumber":27},{"time":198341.7414999992,"duration":857.1419999999925,"noteNumber":45,"velocity":127,"programNumber":27},{"time":198770.31249999919,"duration":857.1419999999925,"noteNumber":42,"velocity":127,"programNumber":27},{"time":199627.45449999918,"duration":428.5709999999963,"noteNumber":42,"velocity":127,"programNumber":27},{"time":200056.02549999917,"duration":428.5709999999963,"noteNumber":42,"velocity":127,"programNumber":27},{"time":200484.59649999917,"duration":428.5709999999963,"noteNumber":41,"velocity":127,"programNumber":27},{"time":199198.88349999918,"duration":2142.8549999999814,"noteNumber":45,"velocity":127,"programNumber":27},{"time":200913.16749999917,"duration":428.5709999999963,"noteNumber":40,"velocity":127,"programNumber":27},{"time":201341.73849999916,"duration":428.5709999999963,"noteNumber":47,"velocity":127,"programNumber":27},{"time":201770.30949999916,"duration":428.5709999999963,"noteNumber":40,"velocity":127,"programNumber":27},{"time":202198.88049999916,"duration":857.1419999999925,"noteNumber":52,"velocity":127,"programNumber":27},{"time":202198.88049999916,"duration":857.1419999999925,"noteNumber":56,"velocity":127,"programNumber":27},{"time":202198.88049999916,"duration":857.1419999999925,"noteNumber":59,"velocity":127,"programNumber":27},{"time":203056.02249999915,"duration":428.5709999999963,"noteNumber":56,"velocity":127,"programNumber":27},{"time":203056.02249999915,"duration":428.5709999999963,"noteNumber":59,"velocity":127,"programNumber":27},{"time":203056.02249999915,"duration":428.5709999999963,"noteNumber":64,"velocity":127,"programNumber":27},{"time":203484.59349999914,"duration":428.5709999999963,"noteNumber":59,"velocity":127,"programNumber":27},{"time":203484.59349999914,"duration":428.5709999999963,"noteNumber":56,"velocity":127,"programNumber":27},{"time":203484.59349999914,"duration":428.5709999999963,"noteNumber":52,"velocity":127,"programNumber":27},{"time":203913.16449999914,"duration":428.5709999999963,"noteNumber":52,"velocity":127,"programNumber":27},{"time":203913.16449999914,"duration":428.5709999999963,"noteNumber":56,"velocity":127,"programNumber":27},{"time":203913.16449999914,"duration":428.5709999999963,"noteNumber":59,"velocity":127,"programNumber":27},{"time":204341.73549999914,"duration":1285.7129999999888,"noteNumber":42,"velocity":127,"programNumber":27},{"time":204341.73549999914,"duration":1285.7129999999888,"noteNumber":54,"velocity":127,"programNumber":27},{"time":205627.44849999913,"duration":1285.7129999999888,"noteNumber":59,"velocity":127,"programNumber":27},{"time":205627.44849999913,"duration":1285.7129999999888,"noteNumber":61,"velocity":127,"programNumber":27},{"time":205627.44849999913,"duration":1285.7129999999888,"noteNumber":66,"velocity":127,"programNumber":27},{"time":206913.1614999991,"duration":428.5709999999963,"noteNumber":54,"velocity":127,"programNumber":27},{"time":206913.1614999991,"duration":428.5709999999963,"noteNumber":59,"velocity":127,"programNumber":27},{"time":206913.1614999991,"duration":428.5709999999963,"noteNumber":61,"velocity":127,"programNumber":27},{"time":207341.7324999991,"duration":428.5709999999963,"noteNumber":50,"velocity":127,"programNumber":27},{"time":207341.7324999991,"duration":428.5709999999963,"noteNumber":55,"velocity":127,"programNumber":27},{"time":207770.3034999991,"duration":428.5709999999963,"noteNumber":45,"velocity":127,"programNumber":27},{"time":207770.3034999991,"duration":428.5709999999963,"noteNumber":52,"velocity":127,"programNumber":27},{"time":207770.3034999991,"duration":428.5709999999963,"noteNumber":57,"velocity":127,"programNumber":27},{"time":208198.8744999991,"duration":428.5709999999963,"noteNumber":57,"velocity":127,"programNumber":27},{"time":208627.4454999991,"duration":428.5709999999963,"noteNumber":45,"velocity":127,"programNumber":27},{"time":208627.4454999991,"duration":428.5709999999963,"noteNumber":52,"velocity":127,"programNumber":27},{"time":208627.4454999991,"duration":428.5709999999963,"noteNumber":57,"velocity":127,"programNumber":27},{"time":209056.0164999991,"duration":428.5709999999963,"noteNumber":57,"velocity":127,"programNumber":27},{"time":209484.5874999991,"duration":428.5709999999963,"noteNumber":45,"velocity":127,"programNumber":27},{"time":209484.5874999991,"duration":428.5709999999963,"noteNumber":52,"velocity":127,"programNumber":27},{"time":209484.5874999991,"duration":428.5709999999963,"noteNumber":57,"velocity":127,"programNumber":27},{"time":209913.1584999991,"duration":428.5709999999963,"noteNumber":57,"velocity":127,"programNumber":27},{"time":210341.72949999908,"duration":428.5709999999963,"noteNumber":45,"velocity":127,"programNumber":27},{"time":210341.72949999908,"duration":428.5709999999963,"noteNumber":52,"velocity":127,"programNumber":27},{"time":210341.72949999908,"duration":428.5709999999963,"noteNumber":57,"velocity":127,"programNumber":27},{"time":210770.30049999908,"duration":428.5709999999963,"noteNumber":57,"velocity":127,"programNumber":27},{"time":211198.87149999908,"duration":1285.7129999999888,"noteNumber":42,"velocity":127,"programNumber":27},{"time":211198.87149999908,"duration":1285.7129999999888,"noteNumber":54,"velocity":127,"programNumber":27},{"time":212484.58449999907,"duration":1285.7129999999888,"noteNumber":59,"velocity":127,"programNumber":27},{"time":212484.58449999907,"duration":1285.7129999999888,"noteNumber":61,"velocity":127,"programNumber":27},{"time":212484.58449999907,"duration":1285.7129999999888,"noteNumber":66,"velocity":127,"programNumber":27},{"time":213770.29749999905,"duration":428.5709999999963,"noteNumber":54,"velocity":127,"programNumber":27},{"time":213770.29749999905,"duration":428.5709999999963,"noteNumber":59,"velocity":127,"programNumber":27},{"time":213770.29749999905,"duration":428.5709999999963,"noteNumber":61,"velocity":127,"programNumber":27},{"time":214198.86849999905,"duration":428.5709999999963,"noteNumber":50,"velocity":127,"programNumber":27},{"time":214198.86849999905,"duration":428.5709999999963,"noteNumber":55,"velocity":127,"programNumber":27},{"time":214627.43949999905,"duration":428.5709999999963,"noteNumber":45,"velocity":127,"programNumber":27},{"time":214627.43949999905,"duration":428.5709999999963,"noteNumber":52,"velocity":127,"programNumber":27},{"time":214627.43949999905,"duration":428.5709999999963,"noteNumber":57,"velocity":127,"programNumber":27},{"time":215056.01049999904,"duration":428.5709999999963,"noteNumber":57,"velocity":127,"programNumber":27},{"time":215484.58149999904,"duration":428.5709999999963,"noteNumber":45,"velocity":127,"programNumber":27},{"time":215484.58149999904,"duration":428.5709999999963,"noteNumber":52,"velocity":127,"programNumber":27},{"time":215484.58149999904,"duration":428.5709999999963,"noteNumber":57,"velocity":127,"programNumber":27},{"time":215913.15249999904,"duration":428.5709999999963,"noteNumber":57,"velocity":127,"programNumber":27},{"time":216341.72349999903,"duration":857.1419999999925,"noteNumber":45,"velocity":127,"programNumber":27},{"time":216341.72349999903,"duration":857.1419999999925,"noteNumber":52,"velocity":127,"programNumber":27},{"time":216341.72349999903,"duration":857.1419999999925,"noteNumber":57,"velocity":127,"programNumber":27},{"time":217198.86549999902,"duration":428.5709999999963,"noteNumber":45,"velocity":127,"programNumber":27},{"time":217198.86549999902,"duration":428.5709999999963,"noteNumber":52,"velocity":127,"programNumber":27},{"time":217198.86549999902,"duration":428.5709999999963,"noteNumber":57,"velocity":127,"programNumber":27},{"time":217627.43649999902,"duration":428.5709999999963,"noteNumber":50,"velocity":127,"programNumber":27},{"time":217627.43649999902,"duration":428.5709999999963,"noteNumber":55,"velocity":127,"programNumber":27},{"time":218056.00749999902,"duration":1285.7129999999888,"noteNumber":42,"velocity":127,"programNumber":27},{"time":218056.00749999902,"duration":1285.7129999999888,"noteNumber":54,"velocity":127,"programNumber":27},{"time":219341.720499999,"duration":1285.7129999999888,"noteNumber":59,"velocity":127,"programNumber":27},{"time":219341.720499999,"duration":1285.7129999999888,"noteNumber":61,"velocity":127,"programNumber":27},{"time":219341.720499999,"duration":1285.7129999999888,"noteNumber":66,"velocity":127,"programNumber":27},{"time":220627.433499999,"duration":428.5709999999963,"noteNumber":54,"velocity":127,"programNumber":27},{"time":220627.433499999,"duration":428.5709999999963,"noteNumber":59,"velocity":127,"programNumber":27},{"time":220627.433499999,"duration":428.5709999999963,"noteNumber":61,"velocity":127,"programNumber":27},{"time":221056.004499999,"duration":428.5709999999963,"noteNumber":50,"velocity":127,"programNumber":27},{"time":221056.004499999,"duration":428.5709999999963,"noteNumber":55,"velocity":127,"programNumber":27},{"time":221484.575499999,"duration":428.5709999999963,"noteNumber":45,"velocity":127,"programNumber":27},{"time":221484.575499999,"duration":428.5709999999963,"noteNumber":52,"velocity":127,"programNumber":27},{"time":221484.575499999,"duration":428.5709999999963,"noteNumber":57,"velocity":127,"programNumber":27},{"time":221913.14649999898,"duration":428.5709999999963,"noteNumber":57,"velocity":127,"programNumber":27},{"time":222341.71749999898,"duration":428.5709999999963,"noteNumber":45,"velocity":127,"programNumber":27},{"time":222341.71749999898,"duration":428.5709999999963,"noteNumber":52,"velocity":127,"programNumber":27},{"time":222341.71749999898,"duration":428.5709999999963,"noteNumber":57,"velocity":127,"programNumber":27},{"time":222770.28849999898,"duration":428.5709999999963,"noteNumber":57,"velocity":127,"programNumber":27},{"time":223198.85949999897,"duration":428.5709999999963,"noteNumber":45,"velocity":127,"programNumber":27},{"time":223198.85949999897,"duration":428.5709999999963,"noteNumber":52,"velocity":127,"programNumber":27},{"time":223198.85949999897,"duration":428.5709999999963,"noteNumber":57,"velocity":127,"programNumber":27},{"time":223627.43049999897,"duration":428.5709999999963,"noteNumber":57,"velocity":127,"programNumber":27},{"time":224056.00149999897,"duration":428.5709999999963,"noteNumber":45,"velocity":127,"programNumber":27},{"time":224056.00149999897,"duration":428.5709999999963,"noteNumber":52,"velocity":127,"programNumber":27},{"time":224056.00149999897,"duration":428.5709999999963,"noteNumber":57,"velocity":127,"programNumber":27},{"time":224484.57249999896,"duration":428.5709999999963,"noteNumber":57,"velocity":127,"programNumber":27},{"time":224913.14349999896,"duration":1285.7129999999888,"noteNumber":42,"velocity":127,"programNumber":27},{"time":224913.14349999896,"duration":1285.7129999999888,"noteNumber":54,"velocity":127,"programNumber":27},{"time":226198.85649999895,"duration":1285.7129999999888,"noteNumber":59,"velocity":127,"programNumber":27},{"time":226198.85649999895,"duration":1285.7129999999888,"noteNumber":61,"velocity":127,"programNumber":27},{"time":226198.85649999895,"duration":1285.7129999999888,"noteNumber":66,"velocity":127,"programNumber":27},{"time":227484.56949999894,"duration":428.5709999999963,"noteNumber":54,"velocity":127,"programNumber":27},{"time":227484.56949999894,"duration":428.5709999999963,"noteNumber":59,"velocity":127,"programNumber":27},{"time":227484.56949999894,"duration":428.5709999999963,"noteNumber":61,"velocity":127,"programNumber":27},{"time":227913.14049999893,"duration":428.5709999999963,"noteNumber":50,"velocity":127,"programNumber":27},{"time":227913.14049999893,"duration":428.5709999999963,"noteNumber":55,"velocity":127,"programNumber":27},{"time":228341.71149999893,"duration":428.5709999999963,"noteNumber":57,"velocity":127,"programNumber":27},{"time":228341.71149999893,"duration":428.5709999999963,"noteNumber":52,"velocity":127,"programNumber":27},{"time":228341.71149999893,"duration":428.5709999999963,"noteNumber":45,"velocity":127,"programNumber":27},{"time":228770.28249999892,"duration":428.5709999999963,"noteNumber":45,"velocity":127,"programNumber":27},{"time":228770.28249999892,"duration":428.5709999999963,"noteNumber":52,"velocity":127,"programNumber":27},{"time":228770.28249999892,"duration":428.5709999999963,"noteNumber":57,"velocity":127,"programNumber":27},{"time":229198.85349999892,"duration":428.5709999999963,"noteNumber":45,"velocity":127,"programNumber":27},{"time":229198.85349999892,"duration":428.5709999999963,"noteNumber":52,"velocity":127,"programNumber":27},{"time":229198.85349999892,"duration":428.5709999999963,"noteNumber":57,"velocity":127,"programNumber":27},{"time":229627.42449999892,"duration":428.5709999999963,"noteNumber":45,"velocity":127,"programNumber":27},{"time":229627.42449999892,"duration":428.5709999999963,"noteNumber":52,"velocity":127,"programNumber":27},{"time":229627.42449999892,"duration":428.5709999999963,"noteNumber":57,"velocity":127,"programNumber":27},{"time":230055.9954999989,"duration":428.5709999999963,"noteNumber":45,"velocity":127,"programNumber":27},{"time":230055.9954999989,"duration":428.5709999999963,"noteNumber":52,"velocity":127,"programNumber":27},{"time":230055.9954999989,"duration":428.5709999999963,"noteNumber":57,"velocity":127,"programNumber":27},{"time":230484.5664999989,"duration":428.5709999999963,"noteNumber":45,"velocity":127,"programNumber":27},{"time":230484.5664999989,"duration":428.5709999999963,"noteNumber":52,"velocity":127,"programNumber":27},{"time":230484.5664999989,"duration":428.5709999999963,"noteNumber":57,"velocity":127,"programNumber":27},{"time":230913.1374999989,"duration":428.5709999999963,"noteNumber":57,"velocity":127,"programNumber":27},{"time":230913.1374999989,"duration":428.5709999999963,"noteNumber":52,"velocity":127,"programNumber":27},{"time":230913.1374999989,"duration":428.5709999999963,"noteNumber":45,"velocity":127,"programNumber":27},{"time":231341.7084999989,"duration":428.5709999999963,"noteNumber":45,"velocity":127,"programNumber":27},{"time":231341.7084999989,"duration":428.5709999999963,"noteNumber":52,"velocity":127,"programNumber":27},{"time":231341.7084999989,"duration":428.5709999999963,"noteNumber":57,"velocity":127,"programNumber":27},{"time":231770.2794999989,"duration":857.1419999999925,"noteNumber":47,"velocity":127,"programNumber":27},{"time":231770.2794999989,"duration":857.1419999999925,"noteNumber":52,"velocity":127,"programNumber":27},{"time":231770.2794999989,"duration":857.1419999999925,"noteNumber":59,"velocity":127,"programNumber":27},{"time":232627.4214999989,"duration":428.5709999999963,"noteNumber":66,"velocity":127,"programNumber":27},{"time":233055.9924999989,"duration":857.1419999999925,"noteNumber":64,"velocity":127,"programNumber":27},{"time":233913.13449999888,"duration":1285.7129999999888,"noteNumber":66,"velocity":127,"programNumber":27},{"time":233913.13449999888,"duration":1285.7129999999888,"noteNumber":71,"velocity":127,"programNumber":27},{"time":235198.84749999887,"duration":857.1419999999925,"noteNumber":50,"velocity":127,"programNumber":27},{"time":235198.84749999887,"duration":857.1419999999925,"noteNumber":57,"velocity":127,"programNumber":27},{"time":235198.84749999887,"duration":857.1419999999925,"noteNumber":64,"velocity":127,"programNumber":27},{"time":235198.84749999887,"duration":857.1419999999925,"noteNumber":69,"velocity":127,"programNumber":27},{"time":235198.84749999887,"duration":857.1419999999925,"noteNumber":62,"velocity":127,"programNumber":27},{"time":236055.98949999886,"duration":428.5709999999963,"noteNumber":50,"velocity":127,"programNumber":27},{"time":236055.98949999886,"duration":428.5709999999963,"noteNumber":57,"velocity":127,"programNumber":27},{"time":236055.98949999886,"duration":428.5709999999963,"noteNumber":64,"velocity":127,"programNumber":27},{"time":236055.98949999886,"duration":428.5709999999963,"noteNumber":69,"velocity":127,"programNumber":27},{"time":236055.98949999886,"duration":428.5709999999963,"noteNumber":62,"velocity":127,"programNumber":27},{"time":236484.56049999886,"duration":857.1419999999925,"noteNumber":50,"velocity":127,"programNumber":27},{"time":236484.56049999886,"duration":857.1419999999925,"noteNumber":57,"velocity":127,"programNumber":27},{"time":236484.56049999886,"duration":857.1419999999925,"noteNumber":64,"velocity":127,"programNumber":27},{"time":236484.56049999886,"duration":857.1419999999925,"noteNumber":69,"velocity":127,"programNumber":27},{"time":236484.56049999886,"duration":857.1419999999925,"noteNumber":62,"velocity":127,"programNumber":27},{"time":237341.70249999885,"duration":428.5709999999963,"noteNumber":50,"velocity":127,"programNumber":27},{"time":237341.70249999885,"duration":428.5709999999963,"noteNumber":57,"velocity":127,"programNumber":27},{"time":237341.70249999885,"duration":428.5709999999963,"noteNumber":64,"velocity":127,"programNumber":27},{"time":237341.70249999885,"duration":428.5709999999963,"noteNumber":69,"velocity":127,"programNumber":27},{"time":237341.70249999885,"duration":428.5709999999963,"noteNumber":62,"velocity":127,"programNumber":27},{"time":237770.27349999885,"duration":857.1419999999925,"noteNumber":50,"velocity":127,"programNumber":27},{"time":237770.27349999885,"duration":857.1419999999925,"noteNumber":57,"velocity":127,"programNumber":27},{"time":237770.27349999885,"duration":857.1419999999925,"noteNumber":64,"velocity":127,"programNumber":27},{"time":237770.27349999885,"duration":857.1419999999925,"noteNumber":69,"velocity":127,"programNumber":27},{"time":237770.27349999885,"duration":857.1419999999925,"noteNumber":62,"velocity":127,"programNumber":27},{"time":238627.41549999884,"duration":857.1419999999925,"noteNumber":47,"velocity":127,"programNumber":27},{"time":238627.41549999884,"duration":857.1419999999925,"noteNumber":54,"velocity":127,"programNumber":27},{"time":238627.41549999884,"duration":857.1419999999925,"noteNumber":59,"velocity":127,"programNumber":27},{"time":239484.55749999883,"duration":428.5709999999963,"noteNumber":62,"velocity":127,"programNumber":27},{"time":239913.12849999883,"duration":857.1419999999925,"noteNumber":66,"velocity":127,"programNumber":27},{"time":239913.12849999883,"duration":857.1419999999925,"noteNumber":71,"velocity":127,"programNumber":27},{"time":240770.27049999882,"duration":428.5709999999963,"noteNumber":64,"velocity":127,"programNumber":27},{"time":240770.27049999882,"duration":428.5709999999963,"noteNumber":68,"velocity":127,"programNumber":27},{"time":241198.84149999882,"duration":857.1419999999925,"noteNumber":62,"velocity":127,"programNumber":27},{"time":241198.84149999882,"duration":857.1419999999925,"noteNumber":66,"velocity":127,"programNumber":27},{"time":242055.9834999988,"duration":428.5709999999963,"noteNumber":50,"velocity":127,"programNumber":27},{"time":242055.9834999988,"duration":428.5709999999963,"noteNumber":57,"velocity":127,"programNumber":27},{"time":242055.9834999988,"duration":428.5709999999963,"noteNumber":64,"velocity":127,"programNumber":27},{"time":242055.9834999988,"duration":428.5709999999963,"noteNumber":69,"velocity":127,"programNumber":27},{"time":242055.9834999988,"duration":428.5709999999963,"noteNumber":62,"velocity":127,"programNumber":27},{"time":242484.5544999988,"duration":428.5709999999963,"noteNumber":50,"velocity":127,"programNumber":27},{"time":242484.5544999988,"duration":428.5709999999963,"noteNumber":57,"velocity":127,"programNumber":27},{"time":242484.5544999988,"duration":428.5709999999963,"noteNumber":64,"velocity":127,"programNumber":27},{"time":242484.5544999988,"duration":428.5709999999963,"noteNumber":69,"velocity":127,"programNumber":27},{"time":242484.5544999988,"duration":428.5709999999963,"noteNumber":62,"velocity":127,"programNumber":27},{"time":242913.1254999988,"duration":857.1419999999925,"noteNumber":50,"velocity":127,"programNumber":27},{"time":242913.1254999988,"duration":857.1419999999925,"noteNumber":57,"velocity":127,"programNumber":27},{"time":242913.1254999988,"duration":857.1419999999925,"noteNumber":64,"velocity":127,"programNumber":27},{"time":242913.1254999988,"duration":857.1419999999925,"noteNumber":69,"velocity":127,"programNumber":27},{"time":242913.1254999988,"duration":857.1419999999925,"noteNumber":62,"velocity":127,"programNumber":27},{"time":243770.2674999988,"duration":428.5709999999963,"noteNumber":50,"velocity":127,"programNumber":27},{"time":243770.2674999988,"duration":428.5709999999963,"noteNumber":57,"velocity":127,"programNumber":27},{"time":243770.2674999988,"duration":428.5709999999963,"noteNumber":64,"velocity":127,"programNumber":27},{"time":243770.2674999988,"duration":428.5709999999963,"noteNumber":69,"velocity":127,"programNumber":27},{"time":243770.2674999988,"duration":428.5709999999963,"noteNumber":62,"velocity":127,"programNumber":27},{"time":244198.8384999988,"duration":428.5709999999963,"noteNumber":50,"velocity":127,"programNumber":27},{"time":244198.8384999988,"duration":428.5709999999963,"noteNumber":57,"velocity":127,"programNumber":27},{"time":244198.8384999988,"duration":428.5709999999963,"noteNumber":64,"velocity":127,"programNumber":27},{"time":244198.8384999988,"duration":428.5709999999963,"noteNumber":69,"velocity":127,"programNumber":27},{"time":244198.8384999988,"duration":428.5709999999963,"noteNumber":62,"velocity":127,"programNumber":27},{"time":244627.4094999988,"duration":428.5709999999963,"noteNumber":50,"velocity":127,"programNumber":27},{"time":244627.4094999988,"duration":428.5709999999963,"noteNumber":57,"velocity":127,"programNumber":27},{"time":244627.4094999988,"duration":428.5709999999963,"noteNumber":64,"velocity":127,"programNumber":27},{"time":244627.4094999988,"duration":428.5709999999963,"noteNumber":69,"velocity":127,"programNumber":27},{"time":244627.4094999988,"duration":428.5709999999963,"noteNumber":62,"velocity":127,"programNumber":27},{"time":245055.98049999878,"duration":428.5709999999963,"noteNumber":50,"velocity":127,"programNumber":27},{"time":245055.98049999878,"duration":428.5709999999963,"noteNumber":57,"velocity":127,"programNumber":27},{"time":245055.98049999878,"duration":428.5709999999963,"noteNumber":64,"velocity":127,"programNumber":27},{"time":245055.98049999878,"duration":428.5709999999963,"noteNumber":69,"velocity":127,"programNumber":27},{"time":245055.98049999878,"duration":428.5709999999963,"noteNumber":62,"velocity":127,"programNumber":27},{"time":245484.55149999878,"duration":857.1419999999925,"noteNumber":47,"velocity":127,"programNumber":27},{"time":245484.55149999878,"duration":857.1419999999925,"noteNumber":54,"velocity":127,"programNumber":27},{"time":245484.55149999878,"duration":857.1419999999925,"noteNumber":59,"velocity":127,"programNumber":27},{"time":246341.69349999877,"duration":428.5709999999963,"noteNumber":59,"velocity":127,"programNumber":27},{"time":246341.69349999877,"duration":428.5709999999963,"noteNumber":62,"velocity":127,"programNumber":27},{"time":246341.69349999877,"duration":428.5709999999963,"noteNumber":66,"velocity":127,"programNumber":27},{"time":246770.26449999877,"duration":1285.7129999999888,"noteNumber":66,"velocity":127,"programNumber":27},{"time":246770.26449999877,"duration":1285.7129999999888,"noteNumber":71,"velocity":127,"programNumber":27},{"time":248055.97749999876,"duration":428.5709999999963,"noteNumber":62,"velocity":127,"programNumber":27},{"time":248055.97749999876,"duration":428.5709999999963,"noteNumber":66,"velocity":127,"programNumber":27},{"time":248055.97749999876,"duration":428.5709999999963,"noteNumber":59,"velocity":127,"programNumber":27},{"time":248055.97749999876,"duration":428.5709999999963,"noteNumber":71,"velocity":127,"programNumber":27},{"time":248484.54849999875,"duration":428.5709999999963,"noteNumber":59,"velocity":127,"programNumber":27},{"time":248484.54849999875,"duration":428.5709999999963,"noteNumber":62,"velocity":127,"programNumber":27},{"time":248484.54849999875,"duration":428.5709999999963,"noteNumber":66,"velocity":127,"programNumber":27},{"time":248913.11949999875,"duration":428.5709999999963,"noteNumber":50,"velocity":127,"programNumber":27},{"time":248913.11949999875,"duration":428.5709999999963,"noteNumber":57,"velocity":127,"programNumber":27},{"time":248913.11949999875,"duration":428.5709999999963,"noteNumber":64,"velocity":127,"programNumber":27},{"time":248913.11949999875,"duration":428.5709999999963,"noteNumber":69,"velocity":127,"programNumber":27},{"time":248913.11949999875,"duration":428.5709999999963,"noteNumber":62,"velocity":127,"programNumber":27},{"time":249341.69049999875,"duration":428.5709999999963,"noteNumber":50,"velocity":127,"programNumber":27},{"time":249341.69049999875,"duration":428.5709999999963,"noteNumber":57,"velocity":127,"programNumber":27},{"time":249341.69049999875,"duration":428.5709999999963,"noteNumber":64,"velocity":127,"programNumber":27},{"time":249341.69049999875,"duration":428.5709999999963,"noteNumber":69,"velocity":127,"programNumber":27},{"time":249341.69049999875,"duration":428.5709999999963,"noteNumber":62,"velocity":127,"programNumber":27},{"time":249770.26149999874,"duration":857.1419999999925,"noteNumber":50,"velocity":127,"programNumber":27},{"time":249770.26149999874,"duration":857.1419999999925,"noteNumber":57,"velocity":127,"programNumber":27},{"time":249770.26149999874,"duration":857.1419999999925,"noteNumber":64,"velocity":127,"programNumber":27},{"time":249770.26149999874,"duration":857.1419999999925,"noteNumber":69,"velocity":127,"programNumber":27},{"time":249770.26149999874,"duration":857.1419999999925,"noteNumber":62,"velocity":127,"programNumber":27},{"time":250627.40349999873,"duration":428.5709999999963,"noteNumber":50,"velocity":127,"programNumber":27},{"time":250627.40349999873,"duration":428.5709999999963,"noteNumber":57,"velocity":127,"programNumber":27},{"time":250627.40349999873,"duration":428.5709999999963,"noteNumber":64,"velocity":127,"programNumber":27},{"time":250627.40349999873,"duration":428.5709999999963,"noteNumber":69,"velocity":127,"programNumber":27},{"time":250627.40349999873,"duration":428.5709999999963,"noteNumber":62,"velocity":127,"programNumber":27},{"time":251055.97449999873,"duration":428.5709999999963,"noteNumber":50,"velocity":127,"programNumber":27},{"time":251055.97449999873,"duration":428.5709999999963,"noteNumber":57,"velocity":127,"programNumber":27},{"time":251055.97449999873,"duration":428.5709999999963,"noteNumber":64,"velocity":127,"programNumber":27},{"time":251055.97449999873,"duration":428.5709999999963,"noteNumber":69,"velocity":127,"programNumber":27},{"time":251055.97449999873,"duration":428.5709999999963,"noteNumber":62,"velocity":127,"programNumber":27},{"time":251484.54549999873,"duration":428.5709999999963,"noteNumber":50,"velocity":127,"programNumber":27},{"time":251484.54549999873,"duration":428.5709999999963,"noteNumber":57,"velocity":127,"programNumber":27},{"time":251484.54549999873,"duration":428.5709999999963,"noteNumber":64,"velocity":127,"programNumber":27},{"time":251484.54549999873,"duration":428.5709999999963,"noteNumber":69,"velocity":127,"programNumber":27},{"time":251484.54549999873,"duration":428.5709999999963,"noteNumber":62,"velocity":127,"programNumber":27},{"time":251913.11649999872,"duration":428.5709999999963,"noteNumber":50,"velocity":127,"programNumber":27},{"time":251913.11649999872,"duration":428.5709999999963,"noteNumber":57,"velocity":127,"programNumber":27},{"time":251913.11649999872,"duration":428.5709999999963,"noteNumber":64,"velocity":127,"programNumber":27},{"time":251913.11649999872,"duration":428.5709999999963,"noteNumber":69,"velocity":127,"programNumber":27},{"time":251913.11649999872,"duration":428.5709999999963,"noteNumber":62,"velocity":127,"programNumber":27},{"time":252341.68749999872,"duration":857.1419999999925,"noteNumber":47,"velocity":127,"programNumber":27},{"time":252341.68749999872,"duration":857.1419999999925,"noteNumber":54,"velocity":127,"programNumber":27},{"time":252341.68749999872,"duration":857.1419999999925,"noteNumber":59,"velocity":127,"programNumber":27},{"time":253198.8294999987,"duration":428.5709999999963,"noteNumber":59,"velocity":127,"programNumber":27},{"time":253198.8294999987,"duration":428.5709999999963,"noteNumber":62,"velocity":127,"programNumber":27},{"time":253198.8294999987,"duration":428.5709999999963,"noteNumber":66,"velocity":127,"programNumber":27},{"time":253627.4004999987,"duration":1285.7129999999888,"noteNumber":66,"velocity":127,"programNumber":27},{"time":253627.4004999987,"duration":1285.7129999999888,"noteNumber":71,"velocity":127,"programNumber":27},{"time":254913.1134999987,"duration":428.5709999999963,"noteNumber":62,"velocity":127,"programNumber":27},{"time":254913.1134999987,"duration":428.5709999999963,"noteNumber":66,"velocity":127,"programNumber":27},{"time":254913.1134999987,"duration":428.5709999999963,"noteNumber":59,"velocity":127,"programNumber":27},{"time":254913.1134999987,"duration":428.5709999999963,"noteNumber":71,"velocity":127,"programNumber":27},{"time":255341.6844999987,"duration":428.5709999999963,"noteNumber":59,"velocity":127,"programNumber":27},{"time":255341.6844999987,"duration":428.5709999999963,"noteNumber":62,"velocity":127,"programNumber":27},{"time":255341.6844999987,"duration":428.5709999999963,"noteNumber":66,"velocity":127,"programNumber":27},{"time":255770.2554999987,"duration":428.5709999999963,"noteNumber":50,"velocity":127,"programNumber":27},{"time":255770.2554999987,"duration":428.5709999999963,"noteNumber":57,"velocity":127,"programNumber":27},{"time":255770.2554999987,"duration":428.5709999999963,"noteNumber":64,"velocity":127,"programNumber":27},{"time":255770.2554999987,"duration":428.5709999999963,"noteNumber":69,"velocity":127,"programNumber":27},{"time":255770.2554999987,"duration":428.5709999999963,"noteNumber":62,"velocity":127,"programNumber":27},{"time":256198.8264999987,"duration":428.5709999999963,"noteNumber":50,"velocity":127,"programNumber":27},{"time":256198.8264999987,"duration":428.5709999999963,"noteNumber":57,"velocity":127,"programNumber":27},{"time":256198.8264999987,"duration":428.5709999999963,"noteNumber":64,"velocity":127,"programNumber":27},{"time":256198.8264999987,"duration":428.5709999999963,"noteNumber":69,"velocity":127,"programNumber":27},{"time":256198.8264999987,"duration":428.5709999999963,"noteNumber":62,"velocity":127,"programNumber":27},{"time":256627.39749999868,"duration":857.1419999999925,"noteNumber":50,"velocity":127,"programNumber":27},{"time":256627.39749999868,"duration":857.1419999999925,"noteNumber":57,"velocity":127,"programNumber":27},{"time":256627.39749999868,"duration":857.1419999999925,"noteNumber":64,"velocity":127,"programNumber":27},{"time":256627.39749999868,"duration":857.1419999999925,"noteNumber":69,"velocity":127,"programNumber":27},{"time":256627.39749999868,"duration":857.1419999999925,"noteNumber":62,"velocity":127,"programNumber":27},{"time":257484.53949999867,"duration":428.5709999999963,"noteNumber":50,"velocity":127,"programNumber":27},{"time":257484.53949999867,"duration":428.5709999999963,"noteNumber":57,"velocity":127,"programNumber":27},{"time":257484.53949999867,"duration":428.5709999999963,"noteNumber":64,"velocity":127,"programNumber":27},{"time":257484.53949999867,"duration":428.5709999999963,"noteNumber":69,"velocity":127,"programNumber":27},{"time":257484.53949999867,"duration":428.5709999999963,"noteNumber":62,"velocity":127,"programNumber":27},{"time":257913.11049999867,"duration":428.5709999999963,"noteNumber":50,"velocity":127,"programNumber":27},{"time":257913.11049999867,"duration":428.5709999999963,"noteNumber":57,"velocity":127,"programNumber":27},{"time":257913.11049999867,"duration":428.5709999999963,"noteNumber":64,"velocity":127,"programNumber":27},{"time":257913.11049999867,"duration":428.5709999999963,"noteNumber":69,"velocity":127,"programNumber":27},{"time":257913.11049999867,"duration":428.5709999999963,"noteNumber":62,"velocity":127,"programNumber":27},{"time":258341.68149999867,"duration":428.5709999999963,"noteNumber":50,"velocity":127,"programNumber":27},{"time":258341.68149999867,"duration":428.5709999999963,"noteNumber":57,"velocity":127,"programNumber":27},{"time":258341.68149999867,"duration":428.5709999999963,"noteNumber":64,"velocity":127,"programNumber":27},{"time":258341.68149999867,"duration":428.5709999999963,"noteNumber":69,"velocity":127,"programNumber":27},{"time":258341.68149999867,"duration":428.5709999999963,"noteNumber":62,"velocity":127,"programNumber":27},{"time":258770.25249999866,"duration":428.5709999999963,"noteNumber":50,"velocity":127,"programNumber":27},{"time":258770.25249999866,"duration":428.5709999999963,"noteNumber":57,"velocity":127,"programNumber":27},{"time":258770.25249999866,"duration":428.5709999999963,"noteNumber":64,"velocity":127,"programNumber":27},{"time":258770.25249999866,"duration":428.5709999999963,"noteNumber":69,"velocity":127,"programNumber":27},{"time":258770.25249999866,"duration":428.5709999999963,"noteNumber":62,"velocity":127,"programNumber":27},{"time":259198.82349999866,"duration":857.1419999999925,"noteNumber":47,"velocity":127,"programNumber":27},{"time":259198.82349999866,"duration":857.1419999999925,"noteNumber":54,"velocity":127,"programNumber":27},{"time":259198.82349999866,"duration":857.1419999999925,"noteNumber":59,"velocity":127,"programNumber":27},{"time":260055.96549999865,"duration":428.5709999999963,"noteNumber":59,"velocity":127,"programNumber":27},{"time":260055.96549999865,"duration":428.5709999999963,"noteNumber":62,"velocity":127,"programNumber":27},{"time":260055.96549999865,"duration":428.5709999999963,"noteNumber":66,"velocity":127,"programNumber":27},{"time":260484.53649999865,"duration":1285.7129999999888,"noteNumber":66,"velocity":127,"programNumber":27},{"time":260484.53649999865,"duration":1285.7129999999888,"noteNumber":71,"velocity":127,"programNumber":27},{"time":261770.24949999864,"duration":428.5709999999963,"noteNumber":62,"velocity":127,"programNumber":27},{"time":261770.24949999864,"duration":428.5709999999963,"noteNumber":66,"velocity":127,"programNumber":27},{"time":261770.24949999864,"duration":428.5709999999963,"noteNumber":59,"velocity":127,"programNumber":27},{"time":261770.24949999864,"duration":428.5709999999963,"noteNumber":71,"velocity":127,"programNumber":27},{"time":262198.82049999863,"duration":428.5709999999963,"noteNumber":59,"velocity":127,"programNumber":27},{"time":262198.82049999863,"duration":428.5709999999963,"noteNumber":62,"velocity":127,"programNumber":27},{"time":262198.82049999863,"duration":428.5709999999963,"noteNumber":66,"velocity":127,"programNumber":27},{"time":262627.39149999863,"duration":428.5709999999963,"noteNumber":50,"velocity":127,"programNumber":27},{"time":262627.39149999863,"duration":428.5709999999963,"noteNumber":57,"velocity":127,"programNumber":27},{"time":262627.39149999863,"duration":428.5709999999963,"noteNumber":64,"velocity":127,"programNumber":27},{"time":262627.39149999863,"duration":428.5709999999963,"noteNumber":69,"velocity":127,"programNumber":27},{"time":262627.39149999863,"duration":428.5709999999963,"noteNumber":62,"velocity":127,"programNumber":27},{"time":263055.9624999986,"duration":428.5709999999963,"noteNumber":50,"velocity":127,"programNumber":27},{"time":263055.9624999986,"duration":428.5709999999963,"noteNumber":57,"velocity":127,"programNumber":27},{"time":263055.9624999986,"duration":428.5709999999963,"noteNumber":64,"velocity":127,"programNumber":27},{"time":263055.9624999986,"duration":428.5709999999963,"noteNumber":69,"velocity":127,"programNumber":27},{"time":263055.9624999986,"duration":428.5709999999963,"noteNumber":62,"velocity":127,"programNumber":27},{"time":263484.5334999986,"duration":857.1419999999925,"noteNumber":50,"velocity":127,"programNumber":27},{"time":263484.5334999986,"duration":857.1419999999925,"noteNumber":57,"velocity":127,"programNumber":27},{"time":263484.5334999986,"duration":857.1419999999925,"noteNumber":64,"velocity":127,"programNumber":27},{"time":263484.5334999986,"duration":857.1419999999925,"noteNumber":69,"velocity":127,"programNumber":27},{"time":263484.5334999986,"duration":857.1419999999925,"noteNumber":62,"velocity":127,"programNumber":27},{"time":264341.6754999986,"duration":428.5709999999963,"noteNumber":50,"velocity":127,"programNumber":27},{"time":264341.6754999986,"duration":428.5709999999963,"noteNumber":57,"velocity":127,"programNumber":27},{"time":264341.6754999986,"duration":428.5709999999963,"noteNumber":64,"velocity":127,"programNumber":27},{"time":264341.6754999986,"duration":428.5709999999963,"noteNumber":69,"velocity":127,"programNumber":27},{"time":264341.6754999986,"duration":428.5709999999963,"noteNumber":62,"velocity":127,"programNumber":27},{"time":264770.2464999986,"duration":428.5709999999963,"noteNumber":50,"velocity":127,"programNumber":27},{"time":264770.2464999986,"duration":428.5709999999963,"noteNumber":57,"velocity":127,"programNumber":27},{"time":264770.2464999986,"duration":428.5709999999963,"noteNumber":64,"velocity":127,"programNumber":27},{"time":264770.2464999986,"duration":428.5709999999963,"noteNumber":69,"velocity":127,"programNumber":27},{"time":264770.2464999986,"duration":428.5709999999963,"noteNumber":62,"velocity":127,"programNumber":27},{"time":265198.8174999986,"duration":428.5709999999963,"noteNumber":50,"velocity":127,"programNumber":27},{"time":265198.8174999986,"duration":428.5709999999963,"noteNumber":57,"velocity":127,"programNumber":27},{"time":265198.8174999986,"duration":428.5709999999963,"noteNumber":64,"velocity":127,"programNumber":27},{"time":265198.8174999986,"duration":428.5709999999963,"noteNumber":69,"velocity":127,"programNumber":27},{"time":265198.8174999986,"duration":428.5709999999963,"noteNumber":62,"velocity":127,"programNumber":27},{"time":265627.3884999986,"duration":428.5709999999963,"noteNumber":50,"velocity":127,"programNumber":27},{"time":265627.3884999986,"duration":428.5709999999963,"noteNumber":57,"velocity":127,"programNumber":27},{"time":265627.3884999986,"duration":428.5709999999963,"noteNumber":64,"velocity":127,"programNumber":27},{"time":265627.3884999986,"duration":428.5709999999963,"noteNumber":69,"velocity":127,"programNumber":27},{"time":265627.3884999986,"duration":428.5709999999963,"noteNumber":62,"velocity":127,"programNumber":27},{"time":266055.9594999986,"duration":857.1419999999925,"noteNumber":47,"velocity":127,"programNumber":27},{"time":266055.9594999986,"duration":857.1419999999925,"noteNumber":54,"velocity":127,"programNumber":27},{"time":266055.9594999986,"duration":857.1419999999925,"noteNumber":59,"velocity":127,"programNumber":27},{"time":266913.1014999986,"duration":428.5709999999963,"noteNumber":59,"velocity":127,"programNumber":27},{"time":266913.1014999986,"duration":428.5709999999963,"noteNumber":62,"velocity":127,"programNumber":27},{"time":266913.1014999986,"duration":428.5709999999963,"noteNumber":66,"velocity":127,"programNumber":27},{"time":267341.6724999986,"duration":1285.7129999999888,"noteNumber":66,"velocity":127,"programNumber":27},{"time":267341.6724999986,"duration":1285.7129999999888,"noteNumber":71,"velocity":127,"programNumber":27},{"time":268627.3854999986,"duration":428.5709999999963,"noteNumber":62,"velocity":127,"programNumber":27},{"time":268627.3854999986,"duration":428.5709999999963,"noteNumber":66,"velocity":127,"programNumber":27},{"time":268627.3854999986,"duration":428.5709999999963,"noteNumber":59,"velocity":127,"programNumber":27},{"time":268627.3854999986,"duration":428.5709999999963,"noteNumber":71,"velocity":127,"programNumber":27},{"time":269055.9564999986,"duration":428.5709999999963,"noteNumber":59,"velocity":127,"programNumber":27},{"time":269055.9564999986,"duration":428.5709999999963,"noteNumber":62,"velocity":127,"programNumber":27},{"time":269055.9564999986,"duration":428.5709999999963,"noteNumber":66,"velocity":127,"programNumber":27},{"time":269484.52749999857,"duration":428.5709999999963,"noteNumber":50,"velocity":127,"programNumber":27},{"time":269484.52749999857,"duration":428.5709999999963,"noteNumber":57,"velocity":127,"programNumber":27},{"time":269484.52749999857,"duration":428.5709999999963,"noteNumber":64,"velocity":127,"programNumber":27},{"time":269484.52749999857,"duration":428.5709999999963,"noteNumber":69,"velocity":127,"programNumber":27},{"time":269484.52749999857,"duration":428.5709999999963,"noteNumber":62,"velocity":127,"programNumber":27},{"time":269913.09849999857,"duration":428.5709999999963,"noteNumber":50,"velocity":127,"programNumber":27},{"time":269913.09849999857,"duration":428.5709999999963,"noteNumber":57,"velocity":127,"programNumber":27},{"time":269913.09849999857,"duration":428.5709999999963,"noteNumber":62,"velocity":127,"programNumber":27},{"time":269913.09849999857,"duration":428.5709999999963,"noteNumber":64,"velocity":127,"programNumber":27},{"time":269913.09849999857,"duration":428.5709999999963,"noteNumber":69,"velocity":127,"programNumber":27},{"time":270341.66949999856,"duration":428.5709999999963,"noteNumber":50,"velocity":127,"programNumber":27},{"time":270341.66949999856,"duration":428.5709999999963,"noteNumber":57,"velocity":127,"programNumber":27},{"time":270341.66949999856,"duration":428.5709999999963,"noteNumber":62,"velocity":127,"programNumber":27},{"time":270341.66949999856,"duration":428.5709999999963,"noteNumber":64,"velocity":127,"programNumber":27},{"time":270341.66949999856,"duration":428.5709999999963,"noteNumber":69,"velocity":127,"programNumber":27},{"time":270770.24049999856,"duration":857.1419999999925,"noteNumber":50,"velocity":127,"programNumber":27},{"time":270770.24049999856,"duration":857.1419999999925,"noteNumber":57,"velocity":127,"programNumber":27},{"time":270770.24049999856,"duration":857.1419999999925,"noteNumber":62,"velocity":127,"programNumber":27},{"time":270770.24049999856,"duration":857.1419999999925,"noteNumber":64,"velocity":127,"programNumber":27},{"time":270770.24049999856,"duration":857.1419999999925,"noteNumber":69,"velocity":127,"programNumber":27},{"time":271627.38249999855,"duration":428.5709999999963,"noteNumber":40,"velocity":127,"programNumber":27},{"time":272055.95349999855,"duration":428.5709999999963,"noteNumber":40,"velocity":127,"programNumber":27},{"time":272484.52449999854,"duration":428.5709999999963,"noteNumber":41,"velocity":127,"programNumber":27},{"time":272913.09549999854,"duration":1285.7129999999888,"noteNumber":42,"velocity":127,"programNumber":27},{"time":273770.23749999853,"duration":857.1419999999925,"noteNumber":45,"velocity":127,"programNumber":27},{"time":274198.80849999853,"duration":857.1419999999925,"noteNumber":42,"velocity":127,"programNumber":27},{"time":275055.9504999985,"duration":428.5709999999963,"noteNumber":42,"velocity":127,"programNumber":27},{"time":275484.5214999985,"duration":428.5709999999963,"noteNumber":42,"velocity":127,"programNumber":27},{"time":275913.0924999985,"duration":428.5709999999963,"noteNumber":41,"velocity":127,"programNumber":27},{"time":274627.3794999985,"duration":2142.8549999999814,"noteNumber":45,"velocity":127,"programNumber":27},{"time":276341.6634999985,"duration":857.1419999999925,"noteNumber":40,"velocity":127,"programNumber":27},{"time":277198.8054999985,"duration":428.5709999999963,"noteNumber":40,"velocity":127,"programNumber":27},{"time":276770.2344999985,"duration":1714.283999999985,"noteNumber":47,"velocity":127,"programNumber":27},{"time":277627.3764999985,"duration":1285.7129999999888,"noteNumber":40,"velocity":127,"programNumber":27},{"time":278913.0894999985,"duration":428.5709999999963,"noteNumber":40,"velocity":127,"programNumber":27},{"time":279341.6604999985,"duration":428.5709999999963,"noteNumber":41,"velocity":127,"programNumber":27},{"time":278484.5184999985,"duration":2142.8549999999814,"noteNumber":47,"velocity":127,"programNumber":27},{"time":279770.2314999985,"duration":1285.7129999999888,"noteNumber":42,"velocity":127,"programNumber":27},{"time":280627.3734999985,"duration":857.1419999999925,"noteNumber":45,"velocity":127,"programNumber":27},{"time":281055.94449999847,"duration":857.1419999999925,"noteNumber":42,"velocity":127,"programNumber":27},{"time":281913.08649999846,"duration":428.5709999999963,"noteNumber":42,"velocity":127,"programNumber":27},{"time":282341.65749999846,"duration":428.5709999999963,"noteNumber":42,"velocity":127,"programNumber":27},{"time":282770.22849999845,"duration":428.5709999999963,"noteNumber":41,"velocity":127,"programNumber":27},{"time":281484.51549999847,"duration":2142.8549999999814,"noteNumber":45,"velocity":127,"programNumber":27},{"time":283198.79949999845,"duration":857.1419999999925,"noteNumber":40,"velocity":127,"programNumber":27},{"time":284055.94149999844,"duration":428.5709999999963,"noteNumber":40,"velocity":127,"programNumber":27},{"time":283627.37049999845,"duration":1714.283999999985,"noteNumber":47,"velocity":127,"programNumber":27},{"time":284484.51249999844,"duration":1285.7129999999888,"noteNumber":40,"velocity":127,"programNumber":27},{"time":285770.2254999984,"duration":428.5709999999963,"noteNumber":40,"velocity":127,"programNumber":27},{"time":286198.7964999984,"duration":428.5709999999963,"noteNumber":41,"velocity":127,"programNumber":27},{"time":285341.65449999843,"duration":2142.8549999999814,"noteNumber":47,"velocity":127,"programNumber":27},{"time":286627.3674999984,"duration":1285.7129999999888,"noteNumber":42,"velocity":127,"programNumber":27},{"time":287484.5094999984,"duration":857.1419999999925,"noteNumber":45,"velocity":127,"programNumber":27},{"time":287913.0804999984,"duration":857.1419999999925,"noteNumber":42,"velocity":127,"programNumber":27},{"time":288770.2224999984,"duration":428.5709999999963,"noteNumber":42,"velocity":127,"programNumber":27},{"time":289198.7934999984,"duration":428.5709999999963,"noteNumber":42,"velocity":127,"programNumber":27},{"time":289627.3644999984,"duration":428.5709999999963,"noteNumber":41,"velocity":127,"programNumber":27},{"time":288341.6514999984,"duration":2142.8549999999814,"noteNumber":45,"velocity":127,"programNumber":27},{"time":290055.9354999984,"duration":857.1419999999925,"noteNumber":40,"velocity":127,"programNumber":27},{"time":290913.0774999984,"duration":428.5709999999963,"noteNumber":40,"velocity":127,"programNumber":27},{"time":290484.5064999984,"duration":1714.283999999985,"noteNumber":47,"velocity":127,"programNumber":27},{"time":291341.6484999984,"duration":1285.7129999999888,"noteNumber":40,"velocity":127,"programNumber":27},{"time":292627.36149999837,"duration":428.5709999999963,"noteNumber":40,"velocity":127,"programNumber":27},{"time":293055.93249999837,"duration":428.5709999999963,"noteNumber":41,"velocity":127,"programNumber":27},{"time":292198.7904999984,"duration":2142.8549999999814,"noteNumber":47,"velocity":127,"programNumber":27},{"time":293484.50349999836,"duration":1285.7129999999888,"noteNumber":42,"velocity":127,"programNumber":27},{"time":294341.64549999835,"duration":857.1419999999925,"noteNumber":45,"velocity":127,"programNumber":27},{"time":294770.21649999835,"duration":857.1419999999925,"noteNumber":42,"velocity":127,"programNumber":27},{"time":295627.35849999834,"duration":428.5709999999963,"noteNumber":42,"velocity":127,"programNumber":27},{"time":296055.92949999834,"duration":428.5709999999963,"noteNumber":42,"velocity":127,"programNumber":27},{"time":296484.50049999834,"duration":428.5709999999963,"noteNumber":41,"velocity":127,"programNumber":27},{"time":295198.78749999835,"duration":2142.8549999999814,"noteNumber":45,"velocity":127,"programNumber":27},{"time":296913.07149999833,"duration":857.1419999999925,"noteNumber":40,"velocity":127,"programNumber":27},{"time":297770.2134999983,"duration":428.5709999999963,"noteNumber":40,"velocity":127,"programNumber":27},{"time":297341.6424999983,"duration":1714.283999999985,"noteNumber":47,"velocity":127,"programNumber":27},{"time":298198.7844999983,"duration":1285.7129999999888,"noteNumber":40,"velocity":127,"programNumber":27},{"time":299484.4974999983,"duration":428.5709999999963,"noteNumber":40,"velocity":127,"programNumber":27},{"time":299913.0684999983,"duration":428.5709999999963,"noteNumber":41,"velocity":127,"programNumber":27},{"time":299055.9264999983,"duration":2142.8549999999814,"noteNumber":47,"velocity":127,"programNumber":27},{"time":300341.6394999983,"duration":1285.7129999999888,"noteNumber":42,"velocity":127,"programNumber":27},{"time":300341.6394999983,"duration":3426.782287499984,"noteNumber":59,"velocity":127,"programNumber":27},{"time":300341.6394999983,"duration":3426.782287499984,"noteNumber":54,"velocity":127,"programNumber":27},{"time":300341.6394999983,"duration":3426.782287499984,"noteNumber":49,"velocity":127,"programNumber":27}]]}