{"tracks":[[{"time":0,"duration":223.8805,"noteNumber":45,"velocity":127,"programNumber":16},{"time":223.8805,"duration":208.95513333333335,"noteNumber":45,"velocity":104,"programNumber":16},{"time":447.761,"duration":880.5966333333333,"noteNumber":42,"velocity":127,"programNumber":16},{"time":1791.0439999999999,"duration":223.88049999999998,"noteNumber":45,"velocity":127,"programNumber":16},{"time":2014.9244999999999,"duration":208.95513333333315,"noteNumber":45,"velocity":104,"programNumber":16},{"time":1343.283,"duration":880.5966333333331,"noteNumber":42,"velocity":119,"programNumber":16},{"time":2686.566,"duration":223.8805000000002,"noteNumber":45,"velocity":127,"programNumber":16},{"time":2910.4465,"duration":208.95513333333338,"noteNumber":45,"velocity":106,"programNumber":16},{"time":2238.805,"duration":880.5966333333336,"noteNumber":42,"velocity":121,"programNumber":16},{"time":3582.088,"duration":223.8805000000002,"noteNumber":45,"velocity":127,"programNumber":16},{"time":3805.9685000000004,"duration":208.95513333333338,"noteNumber":45,"velocity":98,"programNumber":16},{"time":3134.327,"duration":880.5966333333336,"noteNumber":42,"velocity":122,"programNumber":16},{"time":4029.8490000000006,"duration":880.5966333333331,"noteNumber":42,"velocity":115,"programNumber":16},{"time":5373.1320000000005,"duration":223.8805000000002,"noteNumber":45,"velocity":127,"programNumber":16},{"time":5597.012500000001,"duration":208.95513333333292,"noteNumber":45,"velocity":103,"programNumber":16},{"time":4925.371,"duration":880.5966333333336,"noteNumber":42,"velocity":127,"programNumber":16},{"time":6268.654,"duration":223.8805000000002,"noteNumber":45,"velocity":127,"programNumber":16},{"time":6492.534500000001,"duration":208.95513333333292,"noteNumber":45,"velocity":100,"programNumber":16},{"time":5820.893,"duration":880.5966333333336,"noteNumber":42,"velocity":126,"programNumber":16},{"time":7164.176,"duration":223.8805000000002,"noteNumber":45,"velocity":127,"programNumber":16},{"time":7388.056500000001,"duration":208.95513333333292,"noteNumber":45,"velocity":104,"programNumber":16},{"time":6716.415,"duration":880.5966333333336,"noteNumber":42,"velocity":118,"programNumber":16},{"time":7611.937,"duration":880.5966333333326,"noteNumber":42,"velocity":127,"programNumber":16},{"time":8955.22,"duration":223.8804999999993,"noteNumber":45,"velocity":127,"programNumber":16},{"time":9179.100499999999,"duration":208.95513333333292,"noteNumber":45,"velocity":104,"programNumber":16},{"time":8507.458999999999,"duration":880.5966333333326,"noteNumber":42,"velocity":119,"programNumber":16},{"time":9850.741999999998,"duration":223.8804999999993,"noteNumber":45,"velocity":127,"programNumber":16},{"time":10074.622499999998,"duration":208.95513333333292,"noteNumber":45,"velocity":106,"programNumber":16},{"time":9402.980999999998,"duration":880.5966333333326,"noteNumber":42,"velocity":121,"programNumber":16},{"time":10753.274649999998,"duration":227.2727500000001,"noteNumber":45,"velocity":127,"programNumber":16},{"time":10980.547399999998,"duration":212.1212333333333,"noteNumber":45,"velocity":98,"programNumber":16},{"time":10298.729149999997,"duration":893.9394833333336,"noteNumber":42,"velocity":122,"programNumber":16},{"time":11207.820149999998,"duration":893.9394833333336,"noteNumber":42,"velocity":115,"programNumber":16},{"time":12571.456649999998,"duration":227.2727500000001,"noteNumber":45,"velocity":127,"programNumber":16},{"time":12798.729399999998,"duration":212.1212333333333,"noteNumber":45,"velocity":103,"programNumber":16},{"time":12116.911149999998,"duration":893.9394833333336,"noteNumber":42,"velocity":127,"programNumber":16},{"time":13480.547649999999,"duration":227.2727500000001,"noteNumber":45,"velocity":127,"programNumber":16},{"time":13707.820399999999,"duration":212.1212333333333,"noteNumber":45,"velocity":100,"programNumber":16},{"time":13026.002149999998,"duration":893.9394833333336,"noteNumber":42,"velocity":126,"programNumber":16},{"time":14389.638649999999,"duration":227.2727500000001,"noteNumber":36,"velocity":127,"programNumber":16},{"time":14389.638649999999,"duration":227.2727500000001,"noteNumber":45,"velocity":127,"programNumber":16},{"time":14389.638649999999,"duration":227.2727500000001,"noteNumber":49,"velocity":127,"programNumber":16},{"time":14389.638649999999,"duration":227.2727500000001,"noteNumber":38,"velocity":127,"programNumber":16},{"time":14616.911399999999,"duration":212.1212333333333,"noteNumber":36,"velocity":104,"programNumber":16},{"time":14616.911399999999,"duration":212.1212333333333,"noteNumber":45,"velocity":104,"programNumber":16},{"time":13935.093149999999,"duration":893.9394833333336,"noteNumber":42,"velocity":118,"programNumber":16},{"time":14616.911399999999,"duration":212.1212333333333,"noteNumber":49,"velocity":104,"programNumber":16},{"time":14616.911399999999,"duration":212.1212333333333,"noteNumber":38,"velocity":104,"programNumber":16},{"time":14844.18415,"duration":212.1212333333333,"noteNumber":36,"velocity":127,"programNumber":16},{"time":15298.72965,"duration":439.3939833333334,"noteNumber":36,"velocity":127,"programNumber":16},{"time":15753.27515,"duration":439.3939833333334,"noteNumber":36,"velocity":119,"programNumber":16},{"time":16207.82065,"duration":227.27274999999827,"noteNumber":45,"velocity":127,"programNumber":16},{"time":16435.093399999998,"duration":212.1212333333351,"noteNumber":45,"velocity":104,"programNumber":16},{"time":16207.82065,"duration":454.54549999999836,"noteNumber":36,"velocity":127,"programNumber":16},{"time":16662.366149999998,"duration":439.39398333333156,"noteNumber":36,"velocity":121,"programNumber":16},{"time":17116.911649999995,"duration":227.2727500000001,"noteNumber":45,"velocity":127,"programNumber":16},{"time":17344.184399999995,"duration":212.1212333333351,"noteNumber":45,"velocity":106,"programNumber":16},{"time":17116.911649999995,"duration":439.3939833333352,"noteNumber":36,"velocity":127,"programNumber":16},{"time":17571.457149999995,"duration":439.39398333333156,"noteNumber":36,"velocity":122,"programNumber":16},{"time":18026.00264999999,"duration":227.2727500000001,"noteNumber":36,"velocity":127,"programNumber":16},{"time":18026.00264999999,"duration":227.2727500000001,"noteNumber":45,"velocity":127,"programNumber":16},{"time":18026.00264999999,"duration":227.2727500000001,"noteNumber":49,"velocity":127,"programNumber":16},{"time":18026.00264999999,"duration":227.2727500000001,"noteNumber":38,"velocity":127,"programNumber":16},{"time":18253.27539999999,"duration":212.1212333333351,"noteNumber":45,"velocity":98,"programNumber":16},{"time":18253.27539999999,"duration":212.1212333333351,"noteNumber":49,"velocity":98,"programNumber":16},{"time":18253.27539999999,"duration":212.1212333333351,"noteNumber":36,"velocity":98,"programNumber":16},{"time":18253.27539999999,"duration":212.1212333333351,"noteNumber":38,"velocity":98,"programNumber":16},{"time":18480.54814999999,"duration":212.1212333333351,"noteNumber":36,"velocity":115,"programNumber":16},{"time":18935.09364999999,"duration":439.39398333333156,"noteNumber":36,"velocity":127,"programNumber":16},{"time":19389.639149999988,"duration":439.39398333333156,"noteNumber":36,"velocity":127,"programNumber":16},{"time":19844.184649999985,"duration":227.2727500000001,"noteNumber":45,"velocity":127,"programNumber":16},{"time":20071.457399999985,"duration":212.1212333333351,"noteNumber":45,"velocity":103,"programNumber":16},{"time":19844.184649999985,"duration":439.3939833333352,"noteNumber":36,"velocity":127,"programNumber":16},{"time":20298.730149999985,"duration":439.39398333333156,"noteNumber":36,"velocity":126,"programNumber":16},{"time":20753.27564999998,"duration":227.2727500000001,"noteNumber":45,"velocity":127,"programNumber":16},{"time":20980.54839999998,"duration":212.1212333333351,"noteNumber":45,"velocity":100,"programNumber":16},{"time":20753.27564999998,"duration":439.3939833333352,"noteNumber":36,"velocity":127,"programNumber":16},{"time":21207.82114999998,"duration":439.39398333333156,"noteNumber":36,"velocity":118,"programNumber":16},{"time":21662.366649999978,"duration":227.2727500000001,"noteNumber":36,"velocity":127,"programNumber":16},{"time":21662.366649999978,"duration":227.2727500000001,"noteNumber":45,"velocity":127,"programNumber":16},{"time":21662.366649999978,"duration":227.2727500000001,"noteNumber":49,"velocity":127,"programNumber":16},{"time":21662.366649999978,"duration":227.2727500000001,"noteNumber":38,"velocity":127,"programNumber":16},{"time":21889.63939999998,"duration":212.1212333333351,"noteNumber":45,"velocity":104,"programNumber":16},{"time":21889.63939999998,"duration":212.1212333333351,"noteNumber":38,"velocity":104,"programNumber":16},{"time":21889.63939999998,"duration":212.1212333333351,"noteNumber":36,"velocity":104,"programNumber":16},{"time":21889.63939999998,"duration":212.1212333333351,"noteNumber":49,"velocity":104,"programNumber":16},{"time":22116.91214999998,"duration":212.1212333333351,"noteNumber":36,"velocity":127,"programNumber":16},{"time":22571.45764999998,"duration":439.39398333333156,"noteNumber":36,"velocity":127,"programNumber":16},{"time":23026.003149999975,"duration":439.39398333333156,"noteNumber":36,"velocity":119,"programNumber":16},{"time":23480.54864999997,"duration":227.2727500000001,"noteNumber":45,"velocity":127,"programNumber":16},{"time":23707.82139999997,"duration":212.1212333333351,"noteNumber":45,"velocity":104,"programNumber":16},{"time":23480.54864999997,"duration":439.3939833333352,"noteNumber":36,"velocity":127,"programNumber":16},{"time":23935.09414999997,"duration":439.39398333333156,"noteNumber":36,"velocity":121,"programNumber":16},{"time":24389.63964999997,"duration":227.2727500000001,"noteNumber":45,"velocity":127,"programNumber":16},{"time":24616.91239999997,"duration":212.1212333333351,"noteNumber":45,"velocity":106,"programNumber":16},{"time":24389.63964999997,"duration":439.3939833333352,"noteNumber":36,"velocity":127,"programNumber":16},{"time":24844.18514999997,"duration":439.39398333333156,"noteNumber":36,"velocity":122,"programNumber":16},{"time":25298.730649999965,"duration":227.2727500000001,"noteNumber":36,"velocity":127,"programNumber":16},{"time":25298.730649999965,"duration":227.2727500000001,"noteNumber":45,"velocity":127,"programNumber":16},{"time":25298.730649999965,"duration":227.2727500000001,"noteNumber":49,"velocity":127,"programNumber":16},{"time":25298.730649999965,"duration":227.2727500000001,"noteNumber":38,"velocity":127,"programNumber":16},{"time":25526.003399999965,"duration":212.1212333333351,"noteNumber":45,"velocity":98,"programNumber":16},{"time":25526.003399999965,"duration":212.1212333333351,"noteNumber":38,"velocity":98,"programNumber":16},{"time":25526.003399999965,"duration":212.1212333333351,"noteNumber":36,"velocity":98,"programNumber":16},{"time":25526.003399999965,"duration":212.1212333333351,"noteNumber":49,"velocity":98,"programNumber":16},{"time":25753.276149999965,"duration":212.1212333333351,"noteNumber":36,"velocity":115,"programNumber":16},{"time":26207.821649999965,"duration":439.39398333333156,"noteNumber":36,"velocity":127,"programNumber":16},{"time":26662.367149999962,"duration":439.39398333333156,"noteNumber":36,"velocity":127,"programNumber":16},{"time":27116.91264999996,"duration":212.12123333333147,"noteNumber":47,"velocity":127,"programNumber":16},{"time":27230.549024999957,"duration":212.12123333333147,"noteNumber":45,"velocity":127,"programNumber":16},{"time":27116.91264999996,"duration":439.3939833333279,"noteNumber":38,"velocity":127,"programNumber":16},{"time":27457.821774999953,"duration":113.63637499999822,"noteNumber":43,"velocity":127,"programNumber":16},{"time":27571.45814999995,"duration":98.48485833333325,"noteNumber":43,"velocity":126,"programNumber":16},{"time":27798.73089999995,"duration":212.1212333333351,"noteNumber":43,"velocity":123,"programNumber":16},{"time":27571.45814999995,"duration":439.3939833333352,"noteNumber":38,"velocity":126,"programNumber":16},{"time":27571.45814999995,"duration":439.3939833333352,"noteNumber":36,"velocity":126,"programNumber":16},{"time":28026.00364999995,"duration":113.63637499999822,"noteNumber":43,"velocity":127,"programNumber":16},{"time":28139.64002499995,"duration":98.48485833333325,"noteNumber":43,"velocity":127,"programNumber":16},{"time":28026.00364999995,"duration":439.39398333333156,"noteNumber":38,"velocity":127,"programNumber":16},{"time":27571.45814999995,"duration":893.9394833333317,"noteNumber":42,"velocity":126,"programNumber":16},{"time":28366.91277499995,"duration":212.12123333333147,"noteNumber":43,"velocity":127,"programNumber":16},{"time":28480.549149999948,"duration":212.12123333333147,"noteNumber":41,"velocity":118,"programNumber":16},{"time":28594.185524999946,"duration":113.63637499999822,"noteNumber":43,"velocity":127,"programNumber":16},{"time":28707.821899999944,"duration":98.48485833333325,"noteNumber":43,"velocity":112,"programNumber":16},{"time":28480.549149999948,"duration":439.3939833333279,"noteNumber":38,"velocity":118,"programNumber":16},{"time":28480.549149999948,"duration":439.3939833333279,"noteNumber":36,"velocity":118,"programNumber":16},{"time":28821.458274999943,"duration":212.12123333333147,"noteNumber":41,"velocity":127,"programNumber":16},{"time":28480.549149999948,"duration":568.1818749999911,"noteNumber":42,"velocity":118,"programNumber":16},{"time":29048.73102499994,"duration":113.63637499999822,"noteNumber":42,"velocity":127,"programNumber":16},{"time":29162.367399999937,"duration":98.48485833333325,"noteNumber":42,"velocity":104,"programNumber":16},{"time":29276.003774999936,"duration":98.48485833333325,"noteNumber":42,"velocity":127,"programNumber":16},{"time":28935.09464999994,"duration":439.3939833333279,"noteNumber":38,"velocity":127,"programNumber":16},{"time":29389.640149999934,"duration":98.48485833333325,"noteNumber":42,"velocity":127,"programNumber":16},{"time":29389.640149999934,"duration":212.12123333333147,"noteNumber":38,"velocity":127,"programNumber":16},{"time":29616.91289999993,"duration":113.63637499999822,"noteNumber":42,"velocity":107,"programNumber":16},{"time":29730.54927499993,"duration":98.48485833333325,"noteNumber":42,"velocity":127,"programNumber":16},{"time":28935.09464999994,"duration":893.9394833333208,"noteNumber":49,"velocity":127,"programNumber":16},{"time":29844.185649999927,"duration":212.1212333333351,"noteNumber":36,"velocity":127,"programNumber":16},{"time":30071.458399999927,"duration":113.63637499999822,"noteNumber":42,"velocity":97,"programNumber":16},{"time":30185.094774999925,"duration":98.48485833333325,"noteNumber":42,"velocity":127,"programNumber":16},{"time":30298.731149999923,"duration":212.1212333333351,"noteNumber":38,"velocity":119,"programNumber":16},{"time":30526.003899999923,"duration":113.63637499999822,"noteNumber":42,"velocity":127,"programNumber":16},{"time":30639.64027499992,"duration":98.48485833333325,"noteNumber":42,"velocity":127,"programNumber":16},{"time":30753.27664999992,"duration":212.12123333333147,"noteNumber":36,"velocity":127,"programNumber":16},{"time":30866.913024999918,"duration":113.63637499999822,"noteNumber":42,"velocity":127,"programNumber":16},{"time":30980.549399999916,"duration":98.48485833333325,"noteNumber":42,"velocity":104,"programNumber":16},{"time":31094.185774999914,"duration":98.48485833333325,"noteNumber":42,"velocity":127,"programNumber":16},{"time":31207.822149999913,"duration":98.48485833333325,"noteNumber":42,"velocity":121,"programNumber":16},{"time":31207.822149999913,"duration":212.12123333333147,"noteNumber":38,"velocity":121,"programNumber":16},{"time":31435.09489999991,"duration":113.63637499999822,"noteNumber":42,"velocity":124,"programNumber":16},{"time":31548.731274999907,"duration":98.48485833333325,"noteNumber":42,"velocity":127,"programNumber":16},{"time":31662.367649999906,"duration":212.1212333333351,"noteNumber":36,"velocity":127,"programNumber":16},{"time":31889.640399999906,"duration":113.63637499999822,"noteNumber":42,"velocity":106,"programNumber":16},{"time":32003.276774999904,"duration":98.48485833333325,"noteNumber":42,"velocity":127,"programNumber":16},{"time":32116.913149999902,"duration":212.1212333333351,"noteNumber":38,"velocity":122,"programNumber":16},{"time":32344.185899999902,"duration":113.63637499999822,"noteNumber":42,"velocity":127,"programNumber":16},{"time":32457.8222749999,"duration":98.48485833333325,"noteNumber":42,"velocity":127,"programNumber":16},{"time":32571.4586499999,"duration":212.12123333333147,"noteNumber":36,"velocity":127,"programNumber":16},{"time":32685.095024999897,"duration":113.63637499999822,"noteNumber":42,"velocity":127,"programNumber":16},{"time":32798.731399999895,"duration":98.48485833333689,"noteNumber":42,"velocity":98,"programNumber":16},{"time":32912.3677749999,"duration":98.48485833333689,"noteNumber":42,"velocity":127,"programNumber":16},{"time":32571.4586499999,"duration":439.3939833333352,"noteNumber":49,"velocity":127,"programNumber":16},{"time":33026.0041499999,"duration":98.48485833333689,"noteNumber":42,"velocity":115,"programNumber":16},{"time":33026.0041499999,"duration":212.12123333333875,"noteNumber":38,"velocity":115,"programNumber":16},{"time":33253.2768999999,"duration":113.63637500000186,"noteNumber":42,"velocity":114,"programNumber":16},{"time":33366.913274999904,"duration":98.48485833333689,"noteNumber":42,"velocity":127,"programNumber":16},{"time":33480.549649999906,"duration":212.12123333333147,"noteNumber":36,"velocity":127,"programNumber":16},{"time":33707.8223999999,"duration":113.63637500000186,"noteNumber":42,"velocity":97,"programNumber":16},{"time":33821.458774999905,"duration":98.48485833333689,"noteNumber":42,"velocity":127,"programNumber":16},{"time":33935.09514999991,"duration":212.12123333333147,"noteNumber":38,"velocity":127,"programNumber":16},{"time":34162.3678999999,"duration":113.63637500000186,"noteNumber":42,"velocity":127,"programNumber":16},{"time":34276.004274999905,"duration":98.48485833333689,"noteNumber":42,"velocity":127,"programNumber":16},{"time":34389.64064999991,"duration":212.12123333333875,"noteNumber":36,"velocity":127,"programNumber":16},{"time":34503.27702499991,"duration":113.63637500000186,"noteNumber":42,"velocity":127,"programNumber":16},{"time":34616.91339999991,"duration":98.48485833333689,"noteNumber":42,"velocity":103,"programNumber":16},{"time":34730.54977499991,"duration":98.48485833333689,"noteNumber":42,"velocity":127,"programNumber":16},{"time":34844.186149999914,"duration":98.48485833333689,"noteNumber":42,"velocity":126,"programNumber":16},{"time":34844.186149999914,"duration":212.12123333333875,"noteNumber":38,"velocity":126,"programNumber":16},{"time":35071.45889999992,"duration":113.63637500000186,"noteNumber":42,"velocity":123,"programNumber":16},{"time":35185.09527499992,"duration":98.48485833333689,"noteNumber":42,"velocity":127,"programNumber":16},{"time":35298.73164999992,"duration":212.12123333333147,"noteNumber":36,"velocity":127,"programNumber":16},{"time":35526.00439999992,"duration":113.63637500000186,"noteNumber":42,"velocity":100,"programNumber":16},{"time":35639.64077499992,"duration":98.48485833333689,"noteNumber":42,"velocity":127,"programNumber":16},{"time":35639.64077499992,"duration":113.63637500000186,"noteNumber":38,"velocity":127,"programNumber":16},{"time":35753.27714999992,"duration":98.48485833333689,"noteNumber":38,"velocity":118,"programNumber":16},{"time":35866.91352499992,"duration":98.48485833333689,"noteNumber":38,"velocity":127,"programNumber":16},{"time":35980.549899999925,"duration":98.48485833333689,"noteNumber":38,"velocity":112,"programNumber":16},{"time":36094.18627499993,"duration":98.48485833333689,"noteNumber":38,"velocity":127,"programNumber":16},{"time":35753.27714999992,"duration":454.54550000000745,"noteNumber":36,"velocity":118,"programNumber":16},{"time":36207.82264999993,"duration":212.12123333333875,"noteNumber":36,"velocity":127,"programNumber":16},{"time":36321.45902499993,"duration":113.63637500000186,"noteNumber":42,"velocity":127,"programNumber":16},{"time":36435.09539999993,"duration":98.48485833333689,"noteNumber":42,"velocity":104,"programNumber":16},{"time":36207.82264999993,"duration":439.3939833333425,"noteNumber":49,"velocity":127,"programNumber":16},{"time":36548.731774999935,"duration":98.48485833333689,"noteNumber":42,"velocity":127,"programNumber":16},{"time":36662.36814999994,"duration":98.48485833333689,"noteNumber":42,"velocity":127,"programNumber":16},{"time":36662.36814999994,"duration":212.12123333333875,"noteNumber":38,"velocity":127,"programNumber":16},{"time":36889.64089999994,"duration":113.63637500000186,"noteNumber":42,"velocity":107,"programNumber":16},{"time":37003.27727499994,"duration":98.48485833333689,"noteNumber":42,"velocity":127,"programNumber":16},{"time":37116.913649999944,"duration":212.12123333333147,"noteNumber":36,"velocity":127,"programNumber":16},{"time":37344.18639999994,"duration":113.63637500000186,"noteNumber":42,"velocity":97,"programNumber":16},{"time":37457.82277499994,"duration":98.48485833333689,"noteNumber":42,"velocity":127,"programNumber":16},{"time":37571.459149999944,"duration":212.12123333333147,"noteNumber":38,"velocity":119,"programNumber":16},{"time":37798.73189999994,"duration":113.63637500000186,"noteNumber":42,"velocity":127,"programNumber":16},{"time":37912.36827499994,"duration":98.48485833333689,"noteNumber":42,"velocity":127,"programNumber":16},{"time":38026.004649999944,"duration":212.12123333333875,"noteNumber":36,"velocity":127,"programNumber":16},{"time":38139.641024999946,"duration":113.63637500000186,"noteNumber":42,"velocity":127,"programNumber":16},{"time":38253.27739999995,"duration":98.48485833333689,"noteNumber":42,"velocity":104,"programNumber":16},{"time":38366.91377499995,"duration":98.48485833333689,"noteNumber":42,"velocity":127,"programNumber":16},{"time":38480.55014999995,"duration":98.48485833333689,"noteNumber":42,"velocity":121,"programNumber":16},{"time":38480.55014999995,"duration":212.12123333333875,"noteNumber":38,"velocity":121,"programNumber":16},{"time":38707.822899999956,"duration":113.63637500000186,"noteNumber":42,"velocity":124,"programNumber":16},{"time":38821.45927499996,"duration":98.48485833333689,"noteNumber":42,"velocity":127,"programNumber":16},{"time":38935.09564999996,"duration":212.12123333333147,"noteNumber":36,"velocity":127,"programNumber":16},{"time":39162.368399999956,"duration":113.63637500000186,"noteNumber":42,"velocity":106,"programNumber":16},{"time":39276.00477499996,"duration":98.48485833333689,"noteNumber":42,"velocity":127,"programNumber":16},{"time":39389.64114999996,"duration":212.12123333333147,"noteNumber":38,"velocity":122,"programNumber":16},{"time":39616.913899999956,"duration":113.63637500000186,"noteNumber":42,"velocity":127,"programNumber":16},{"time":39730.55027499996,"duration":98.48485833333689,"noteNumber":42,"velocity":127,"programNumber":16},{"time":39844.18664999996,"duration":212.12123333333875,"noteNumber":36,"velocity":127,"programNumber":16},{"time":39957.82302499996,"duration":113.63637500000186,"noteNumber":42,"velocity":127,"programNumber":16},{"time":40071.45939999996,"duration":98.48485833333689,"noteNumber":42,"velocity":98,"programNumber":16},{"time":40185.095774999965,"duration":98.48485833333689,"noteNumber":42,"velocity":127,"programNumber":16},{"time":40298.73214999997,"duration":98.48485833333689,"noteNumber":42,"velocity":115,"programNumber":16},{"time":40298.73214999997,"duration":212.12123333333875,"noteNumber":38,"velocity":115,"programNumber":16},{"time":40526.00489999997,"duration":113.63637500000186,"noteNumber":42,"velocity":114,"programNumber":16},{"time":40639.64127499997,"duration":98.48485833333689,"noteNumber":42,"velocity":127,"programNumber":16},{"time":40753.277649999975,"duration":212.12123333333147,"noteNumber":36,"velocity":127,"programNumber":16},{"time":40980.55039999997,"duration":113.63637500000186,"noteNumber":42,"velocity":97,"programNumber":16},{"time":41094.18677499997,"duration":98.48485833333689,"noteNumber":42,"velocity":127,"programNumber":16},{"time":41207.823149999975,"duration":212.12123333333147,"noteNumber":38,"velocity":127,"programNumber":16},{"time":41435.09589999997,"duration":113.63637500000186,"noteNumber":42,"velocity":127,"programNumber":16},{"time":41548.73227499997,"duration":98.48485833333689,"noteNumber":42,"velocity":127,"programNumber":16},{"time":41662.368649999975,"duration":212.12123333333875,"noteNumber":36,"velocity":127,"programNumber":16},{"time":41776.00502499998,"duration":113.63637500000186,"noteNumber":42,"velocity":127,"programNumber":16},{"time":41889.64139999998,"duration":98.48485833333689,"noteNumber":42,"velocity":103,"programNumber":16},{"time":42003.27777499998,"duration":98.48485833333689,"noteNumber":42,"velocity":127,"programNumber":16},{"time":42116.91414999998,"duration":98.48485833333689,"noteNumber":42,"velocity":126,"programNumber":16},{"time":42116.91414999998,"duration":212.12123333333875,"noteNumber":38,"velocity":126,"programNumber":16},{"time":42344.186899999986,"duration":113.63637500000186,"noteNumber":42,"velocity":123,"programNumber":16},{"time":42457.82327499999,"duration":98.48485833333689,"noteNumber":42,"velocity":127,"programNumber":16},{"time":42571.45964999999,"duration":212.12123333333147,"noteNumber":36,"velocity":127,"programNumber":16},{"time":42798.732399999986,"duration":113.63637500000186,"noteNumber":42,"velocity":100,"programNumber":16},{"time":42912.36877499999,"duration":98.48485833333689,"noteNumber":42,"velocity":127,"programNumber":16},{"time":42912.36877499999,"duration":113.63637500000186,"noteNumber":38,"velocity":127,"programNumber":16},{"time":43026.00514999999,"duration":98.48485833333689,"noteNumber":38,"velocity":118,"programNumber":16},{"time":43139.64152499999,"duration":98.48485833333689,"noteNumber":38,"velocity":127,"programNumber":16},{"time":43253.277899999994,"duration":98.48485833333689,"noteNumber":38,"velocity":112,"programNumber":16},{"time":43366.914274999996,"duration":98.48485833333689,"noteNumber":38,"velocity":127,"programNumber":16},{"time":43480.55065,"duration":212.12123333333875,"noteNumber":36,"velocity":127,"programNumber":16},{"time":43594.187025,"duration":113.63637500000186,"noteNumber":42,"velocity":127,"programNumber":16},{"time":43707.8234,"duration":98.48485833333689,"noteNumber":42,"velocity":104,"programNumber":16},{"time":43821.459775,"duration":98.48485833333689,"noteNumber":42,"velocity":127,"programNumber":16},{"time":43935.096150000005,"duration":98.48485833333689,"noteNumber":42,"velocity":127,"programNumber":16},{"time":43935.096150000005,"duration":212.12123333333875,"noteNumber":38,"velocity":127,"programNumber":16},{"time":44162.36890000001,"duration":113.63637500000186,"noteNumber":42,"velocity":107,"programNumber":16},{"time":44276.00527500001,"duration":98.48485833333689,"noteNumber":42,"velocity":127,"programNumber":16},{"time":43480.55065,"duration":893.9394833333499,"noteNumber":49,"velocity":127,"programNumber":16},{"time":44389.64165000001,"duration":212.12123333333147,"noteNumber":36,"velocity":127,"programNumber":16},{"time":44616.91440000001,"duration":113.63637500000186,"noteNumber":42,"velocity":97,"programNumber":16},{"time":44730.55077500001,"duration":98.48485833333689,"noteNumber":42,"velocity":127,"programNumber":16},{"time":44844.18715000001,"duration":212.12123333333147,"noteNumber":38,"velocity":119,"programNumber":16},{"time":45071.45990000001,"duration":113.63637500000186,"noteNumber":42,"velocity":127,"programNumber":16},{"time":45185.09627500001,"duration":98.48485833333689,"noteNumber":42,"velocity":127,"programNumber":16},{"time":45298.73265000001,"duration":212.12123333333875,"noteNumber":36,"velocity":127,"programNumber":16},{"time":45412.369025000015,"duration":113.63637500000186,"noteNumber":42,"velocity":127,"programNumber":16},{"time":45526.00540000002,"duration":98.48485833333689,"noteNumber":42,"velocity":104,"programNumber":16},{"time":45639.64177500002,"duration":98.48485833333689,"noteNumber":42,"velocity":127,"programNumber":16},{"time":45753.27815000002,"duration":98.48485833333689,"noteNumber":42,"velocity":121,"programNumber":16},{"time":45753.27815000002,"duration":212.12123333333875,"noteNumber":38,"velocity":121,"programNumber":16},{"time":45980.550900000024,"duration":113.63637500000186,"noteNumber":42,"velocity":124,"programNumber":16},{"time":46094.187275000026,"duration":98.48485833333689,"noteNumber":42,"velocity":127,"programNumber":16},{"time":46207.82365000003,"duration":212.12123333333147,"noteNumber":36,"velocity":127,"programNumber":16},{"time":46435.096400000024,"duration":113.63637500000186,"noteNumber":42,"velocity":106,"programNumber":16},{"time":46548.732775000026,"duration":98.48485833333689,"noteNumber":42,"velocity":127,"programNumber":16},{"time":46662.36915000003,"duration":212.12123333333147,"noteNumber":38,"velocity":122,"programNumber":16},{"time":46889.641900000024,"duration":113.63637500000186,"noteNumber":42,"velocity":127,"programNumber":16},{"time":47003.278275000026,"duration":98.48485833333689,"noteNumber":42,"velocity":127,"programNumber":16},{"time":47116.91465000003,"duration":212.12123333333875,"noteNumber":36,"velocity":127,"programNumber":16},{"time":47230.55102500003,"duration":113.63637500000186,"noteNumber":42,"velocity":127,"programNumber":16},{"time":47344.18740000003,"duration":98.48485833333689,"noteNumber":42,"velocity":98,"programNumber":16},{"time":47457.82377500003,"duration":98.48485833333689,"noteNumber":42,"velocity":127,"programNumber":16},{"time":47571.460150000035,"duration":98.48485833333689,"noteNumber":42,"velocity":115,"programNumber":16},{"time":47571.460150000035,"duration":212.12123333333875,"noteNumber":38,"velocity":115,"programNumber":16},{"time":47798.73290000004,"duration":113.63637500000186,"noteNumber":42,"velocity":114,"programNumber":16},{"time":47912.36927500004,"duration":98.48485833333689,"noteNumber":42,"velocity":127,"programNumber":16},{"time":48026.00565000004,"duration":212.12123333333147,"noteNumber":36,"velocity":127,"programNumber":16},{"time":48253.27840000004,"duration":113.63637500000186,"noteNumber":42,"velocity":97,"programNumber":16},{"time":48366.91477500004,"duration":98.48485833333689,"noteNumber":42,"velocity":127,"programNumber":16},{"time":48480.55115000004,"duration":212.12123333333147,"noteNumber":38,"velocity":127,"programNumber":16},{"time":48707.82390000004,"duration":113.63637500000186,"noteNumber":42,"velocity":127,"programNumber":16},{"time":48821.46027500004,"duration":98.48485833333689,"noteNumber":42,"velocity":127,"programNumber":16},{"time":48935.09665000004,"duration":212.12123333333875,"noteNumber":36,"velocity":127,"programNumber":16},{"time":49048.733025000045,"duration":113.63637500000186,"noteNumber":42,"velocity":127,"programNumber":16},{"time":49162.36940000005,"duration":98.48485833333689,"noteNumber":42,"velocity":103,"programNumber":16},{"time":49276.00577500005,"duration":98.48485833333689,"noteNumber":42,"velocity":127,"programNumber":16},{"time":49389.64215000005,"duration":98.48485833333689,"noteNumber":42,"velocity":126,"programNumber":16},{"time":49389.64215000005,"duration":212.12123333333875,"noteNumber":38,"velocity":126,"programNumber":16},{"time":49616.914900000054,"duration":113.63637500000186,"noteNumber":42,"velocity":123,"programNumber":16},{"time":49730.551275000056,"duration":98.48485833333689,"noteNumber":42,"velocity":127,"programNumber":16},{"time":49844.18765000006,"duration":212.12123333333147,"noteNumber":36,"velocity":127,"programNumber":16},{"time":50071.460400000055,"duration":212.12123333333875,"noteNumber":42,"velocity":100,"programNumber":16},{"time":50185.09677500006,"duration":113.63637500000186,"noteNumber":38,"velocity":127,"programNumber":16},{"time":50298.73315000006,"duration":98.48485833333689,"noteNumber":38,"velocity":118,"programNumber":16},{"time":50412.36952500006,"duration":98.48485833333689,"noteNumber":38,"velocity":127,"programNumber":16},{"time":50526.00590000006,"duration":98.48485833333689,"noteNumber":38,"velocity":112,"programNumber":16},{"time":50639.642275000064,"duration":98.48485833333689,"noteNumber":38,"velocity":127,"programNumber":16},{"time":50753.278650000066,"duration":212.12123333333875,"noteNumber":36,"velocity":127,"programNumber":16},{"time":50866.91502500007,"duration":113.63637500000186,"noteNumber":42,"velocity":127,"programNumber":16},{"time":50980.55140000007,"duration":98.48485833333689,"noteNumber":42,"velocity":104,"programNumber":16},{"time":51094.18777500007,"duration":98.48485833333689,"noteNumber":42,"velocity":127,"programNumber":16},{"time":51207.82415000007,"duration":98.48485833333689,"noteNumber":42,"velocity":127,"programNumber":16},{"time":51207.82415000007,"duration":212.12123333333875,"noteNumber":38,"velocity":127,"programNumber":16},{"time":51435.09690000008,"duration":113.63637500000186,"noteNumber":42,"velocity":107,"programNumber":16},{"time":51548.73327500008,"duration":98.48485833333689,"noteNumber":42,"velocity":127,"programNumber":16},{"time":50753.278650000066,"duration":893.9394833333499,"noteNumber":49,"velocity":127,"programNumber":16},{"time":51662.36965000008,"duration":212.12123333333147,"noteNumber":36,"velocity":127,"programNumber":16},{"time":51889.64240000008,"duration":113.63637500000186,"noteNumber":42,"velocity":97,"programNumber":16},{"time":52003.27877500008,"duration":98.48485833333689,"noteNumber":42,"velocity":127,"programNumber":16},{"time":52116.91515000008,"duration":212.12123333333147,"noteNumber":38,"velocity":119,"programNumber":16},{"time":52344.18790000008,"duration":113.63637500000186,"noteNumber":42,"velocity":127,"programNumber":16},{"time":52457.82427500008,"duration":98.48485833333689,"noteNumber":42,"velocity":127,"programNumber":16},{"time":52571.46065000008,"duration":212.12123333333875,"noteNumber":36,"velocity":127,"programNumber":16},{"time":52685.09702500008,"duration":113.63637500000186,"noteNumber":42,"velocity":127,"programNumber":16},{"time":52798.733400000085,"duration":98.48485833333689,"noteNumber":42,"velocity":104,"programNumber":16},{"time":52912.36977500009,"duration":98.48485833333689,"noteNumber":42,"velocity":127,"programNumber":16},{"time":53026.00615000009,"duration":98.48485833333689,"noteNumber":42,"velocity":121,"programNumber":16},{"time":53026.00615000009,"duration":212.12123333333875,"noteNumber":38,"velocity":121,"programNumber":16},{"time":53253.27890000009,"duration":113.63637500000186,"noteNumber":42,"velocity":124,"programNumber":16},{"time":53366.915275000094,"duration":98.48485833333689,"noteNumber":42,"velocity":127,"programNumber":16},{"time":53480.551650000096,"duration":212.12123333333147,"noteNumber":36,"velocity":127,"programNumber":16},{"time":53707.82440000009,"duration":113.63637500000186,"noteNumber":42,"velocity":106,"programNumber":16},{"time":53821.460775000094,"duration":98.48485833333689,"noteNumber":42,"velocity":127,"programNumber":16},{"time":53935.097150000096,"duration":212.12123333333147,"noteNumber":38,"velocity":122,"programNumber":16},{"time":54162.36990000009,"duration":113.63637500000186,"noteNumber":42,"velocity":127,"programNumber":16},{"time":54276.006275000094,"duration":98.48485833333689,"noteNumber":42,"velocity":127,"programNumber":16},{"time":54389.642650000096,"duration":212.12123333333875,"noteNumber":36,"velocity":127,"programNumber":16},{"time":54503.2790250001,"duration":113.63637500000186,"noteNumber":42,"velocity":127,"programNumber":16},{"time":54616.9154000001,"duration":98.48485833333689,"noteNumber":42,"velocity":98,"programNumber":16},{"time":54730.5517750001,"duration":98.48485833333689,"noteNumber":42,"velocity":127,"programNumber":16},{"time":54844.1881500001,"duration":98.48485833333689,"noteNumber":42,"velocity":115,"programNumber":16},{"time":54844.1881500001,"duration":212.12123333333875,"noteNumber":38,"velocity":115,"programNumber":16},{"time":55071.46090000011,"duration":113.63637500000186,"noteNumber":42,"velocity":114,"programNumber":16},{"time":55185.09727500011,"duration":98.48485833333689,"noteNumber":42,"velocity":127,"programNumber":16},{"time":55298.73365000011,"duration":212.12123333333147,"noteNumber":36,"velocity":127,"programNumber":16},{"time":55526.00640000011,"duration":113.63637500000186,"noteNumber":42,"velocity":97,"programNumber":16},{"time":55639.64277500011,"duration":98.48485833333689,"noteNumber":42,"velocity":127,"programNumber":16},{"time":55753.27915000011,"duration":212.12123333333147,"noteNumber":38,"velocity":127,"programNumber":16},{"time":55980.55190000011,"duration":113.63637500000186,"noteNumber":42,"velocity":127,"programNumber":16},{"time":56094.18827500011,"duration":98.48485833333689,"noteNumber":42,"velocity":127,"programNumber":16},{"time":56207.82465000011,"duration":212.12123333333875,"noteNumber":36,"velocity":127,"programNumber":16},{"time":56321.46102500011,"duration":113.63637500000186,"noteNumber":42,"velocity":127,"programNumber":16},{"time":56435.097400000115,"duration":98.48485833333689,"noteNumber":42,"velocity":103,"programNumber":16},{"time":56548.73377500012,"duration":98.48485833333689,"noteNumber":42,"velocity":127,"programNumber":16},{"time":56662.37015000012,"duration":98.48485833333689,"noteNumber":42,"velocity":126,"programNumber":16},{"time":56662.37015000012,"duration":212.12123333333875,"noteNumber":38,"velocity":126,"programNumber":16},{"time":56889.64290000012,"duration":113.63637500000186,"noteNumber":42,"velocity":123,"programNumber":16},{"time":57003.279275000124,"duration":98.48485833333689,"noteNumber":42,"velocity":127,"programNumber":16},{"time":57116.915650000126,"duration":212.12123333333147,"noteNumber":36,"velocity":127,"programNumber":16},{"time":57344.18840000012,"duration":113.63637500000186,"noteNumber":42,"velocity":100,"programNumber":16},{"time":57457.824775000125,"duration":98.48485833333689,"noteNumber":42,"velocity":127,"programNumber":16},{"time":57457.824775000125,"duration":113.63637500000186,"noteNumber":38,"velocity":127,"programNumber":16},{"time":57571.46115000013,"duration":98.48485833333689,"noteNumber":38,"velocity":118,"programNumber":16},{"time":57685.09752500013,"duration":98.48485833333689,"noteNumber":38,"velocity":127,"programNumber":16},{"time":57798.73390000013,"duration":98.48485833333689,"noteNumber":38,"velocity":112,"programNumber":16},{"time":57912.37027500013,"duration":98.48485833333689,"noteNumber":38,"velocity":127,"programNumber":16},{"time":57912.37027500013,"duration":212.12123333333875,"noteNumber":42,"velocity":127,"programNumber":16},{"time":57798.73390000013,"duration":439.3939833333425,"noteNumber":57,"velocity":112,"programNumber":16},{"time":58026.006650000134,"duration":212.12123333333875,"noteNumber":36,"velocity":127,"programNumber":16},{"time":58139.643025000136,"duration":113.63637500000186,"noteNumber":42,"velocity":127,"programNumber":16},{"time":58253.27940000014,"duration":98.48485833333689,"noteNumber":42,"velocity":104,"programNumber":16},{"time":58366.91577500014,"duration":98.48485833333689,"noteNumber":42,"velocity":127,"programNumber":16},{"time":58026.006650000134,"duration":439.3939833333425,"noteNumber":49,"velocity":127,"programNumber":16},{"time":58480.55215000014,"duration":98.48485833333689,"noteNumber":42,"velocity":127,"programNumber":16},{"time":58480.55215000014,"duration":212.12123333333875,"noteNumber":38,"velocity":127,"programNumber":16},{"time":58707.824900000145,"duration":113.63637500000186,"noteNumber":42,"velocity":107,"programNumber":16},{"time":58821.46127500015,"duration":98.48485833333689,"noteNumber":42,"velocity":127,"programNumber":16},{"time":58935.09765000015,"duration":212.12123333333147,"noteNumber":36,"velocity":127,"programNumber":16},{"time":59162.370400000145,"duration":113.63637500000186,"noteNumber":42,"velocity":97,"programNumber":16},{"time":59276.00677500015,"duration":98.48485833333689,"noteNumber":42,"velocity":127,"programNumber":16},{"time":59389.64315000015,"duration":212.12123333333147,"noteNumber":38,"velocity":119,"programNumber":16},{"time":59616.915900000145,"duration":113.63637500000186,"noteNumber":42,"velocity":127,"programNumber":16},{"time":59730.55227500015,"duration":98.48485833333689,"noteNumber":42,"velocity":127,"programNumber":16},{"time":59844.18865000015,"duration":212.12123333333875,"noteNumber":36,"velocity":127,"programNumber":16},{"time":59957.82502500015,"duration":113.63637500000186,"noteNumber":42,"velocity":127,"programNumber":16},{"time":60071.46140000015,"duration":98.48485833333689,"noteNumber":42,"velocity":104,"programNumber":16},{"time":60185.097775000155,"duration":98.48485833333689,"noteNumber":42,"velocity":127,"programNumber":16},{"time":60298.73415000016,"duration":98.48485833333689,"noteNumber":42,"velocity":121,"programNumber":16},{"time":60298.73415000016,"duration":212.12123333333875,"noteNumber":38,"velocity":121,"programNumber":16},{"time":60526.00690000016,"duration":113.63637500000186,"noteNumber":42,"velocity":124,"programNumber":16},{"time":60639.64327500016,"duration":98.48485833333689,"noteNumber":42,"velocity":127,"programNumber":16},{"time":60753.279650000164,"duration":212.12123333333147,"noteNumber":36,"velocity":127,"programNumber":16},{"time":60980.55240000016,"duration":113.63637500000186,"noteNumber":42,"velocity":106,"programNumber":16},{"time":61094.18877500016,"duration":98.48485833333689,"noteNumber":42,"velocity":127,"programNumber":16},{"time":61207.825150000164,"duration":212.12123333333147,"noteNumber":38,"velocity":122,"programNumber":16},{"time":61435.09790000016,"duration":113.63637500000186,"noteNumber":42,"velocity":127,"programNumber":16},{"time":61548.73427500016,"duration":98.48485833333689,"noteNumber":42,"velocity":127,"programNumber":16},{"time":61662.370650000164,"duration":212.12123333333875,"noteNumber":36,"velocity":127,"programNumber":16},{"time":61776.007025000166,"duration":113.63637500000186,"noteNumber":42,"velocity":127,"programNumber":16},{"time":61889.64340000017,"duration":98.48485833333689,"noteNumber":42,"velocity":98,"programNumber":16},{"time":62003.27977500017,"duration":98.48485833333689,"noteNumber":42,"velocity":127,"programNumber":16},{"time":62116.91615000017,"duration":98.48485833333689,"noteNumber":42,"velocity":115,"programNumber":16},{"time":62116.91615000017,"duration":212.12123333333875,"noteNumber":38,"velocity":115,"programNumber":16},{"time":62344.188900000176,"duration":113.63637500000186,"noteNumber":42,"velocity":114,"programNumber":16},{"time":62457.82527500018,"duration":98.48485833333689,"noteNumber":42,"velocity":127,"programNumber":16},{"time":62571.46165000018,"duration":212.12123333333147,"noteNumber":36,"velocity":127,"programNumber":16},{"time":62798.734400000176,"duration":113.63637500000186,"noteNumber":42,"velocity":97,"programNumber":16},{"time":62912.37077500018,"duration":98.48485833333689,"noteNumber":42,"velocity":127,"programNumber":16},{"time":63026.00715000018,"duration":212.12123333333147,"noteNumber":38,"velocity":127,"programNumber":16},{"time":63253.279900000176,"duration":113.63637500000186,"noteNumber":42,"velocity":127,"programNumber":16},{"time":63366.91627500018,"duration":98.48485833333689,"noteNumber":42,"velocity":127,"programNumber":16},{"time":63480.55265000018,"duration":212.12123333333875,"noteNumber":36,"velocity":127,"programNumber":16},{"time":63594.18902500018,"duration":113.63637500000186,"noteNumber":42,"velocity":127,"programNumber":16},{"time":63707.82540000018,"duration":98.48485833333689,"noteNumber":42,"velocity":103,"programNumber":16},{"time":63821.461775000185,"duration":98.48485833333689,"noteNumber":42,"velocity":127,"programNumber":16},{"time":63935.09815000019,"duration":98.48485833333689,"noteNumber":42,"velocity":126,"programNumber":16},{"time":63935.09815000019,"duration":212.12123333333875,"noteNumber":38,"velocity":126,"programNumber":16},{"time":64162.37090000019,"duration":113.63637500000186,"noteNumber":42,"velocity":123,"programNumber":16},{"time":64276.00727500019,"duration":98.48485833333689,"noteNumber":42,"velocity":127,"programNumber":16},{"time":64389.643650000195,"duration":212.12123333333147,"noteNumber":36,"velocity":127,"programNumber":16},{"time":64616.91640000019,"duration":113.63637500000186,"noteNumber":42,"velocity":100,"programNumber":16},{"time":64730.55277500019,"duration":98.48485833333689,"noteNumber":42,"velocity":127,"programNumber":16},{"time":64844.189150000195,"duration":113.63637500000186,"noteNumber":38,"velocity":118,"programNumber":16},{"time":64957.8255250002,"duration":98.48485833333689,"noteNumber":38,"velocity":127,"programNumber":16},{"time":65071.4619000002,"duration":98.48485833333689,"noteNumber":38,"velocity":112,"programNumber":16},{"time":65185.0982750002,"duration":98.48485833333689,"noteNumber":38,"velocity":127,"programNumber":16},{"time":65298.7346500002,"duration":212.12123333333147,"noteNumber":49,"velocity":127,"programNumber":16},{"time":65298.7346500002,"duration":227.27274999999645,"noteNumber":36,"velocity":127,"programNumber":16},{"time":65298.7346500002,"duration":227.27274999999645,"noteNumber":42,"velocity":127,"programNumber":16},{"time":65526.0074000002,"duration":212.12123333333147,"noteNumber":36,"velocity":104,"programNumber":16},{"time":65526.0074000002,"duration":212.12123333333147,"noteNumber":42,"velocity":104,"programNumber":16},{"time":65753.2801500002,"duration":212.12123333333875,"noteNumber":42,"velocity":127,"programNumber":16},{"time":65753.2801500002,"duration":439.3939833333425,"noteNumber":38,"velocity":127,"programNumber":16},{"time":65980.5529000002,"duration":212.12123333333875,"noteNumber":42,"velocity":107,"programNumber":16},{"time":66207.8256500002,"duration":212.12123333333875,"noteNumber":42,"velocity":127,"programNumber":16},{"time":66435.0984000002,"duration":212.12123333333875,"noteNumber":42,"velocity":97,"programNumber":16},{"time":66207.8256500002,"duration":439.3939833333425,"noteNumber":36,"velocity":127,"programNumber":16},{"time":66662.37115000021,"duration":212.12123333333875,"noteNumber":42,"velocity":119,"programNumber":16},{"time":66889.64390000021,"duration":212.12123333333875,"noteNumber":42,"velocity":127,"programNumber":16},{"time":66662.37115000021,"duration":439.3939833333425,"noteNumber":38,"velocity":119,"programNumber":16},{"time":67116.91665000022,"duration":212.12123333333875,"noteNumber":42,"velocity":127,"programNumber":16},{"time":67344.18940000022,"duration":227.27275000000373,"noteNumber":42,"velocity":104,"programNumber":16},{"time":67571.46215000022,"duration":227.27275000000373,"noteNumber":42,"velocity":121,"programNumber":16},{"time":67798.73490000023,"duration":212.12123333333875,"noteNumber":42,"velocity":124,"programNumber":16},{"time":67116.91665000022,"duration":893.9394833333499,"noteNumber":36,"velocity":127,"programNumber":16},{"time":68026.00765000023,"duration":212.12123333333875,"noteNumber":42,"velocity":127,"programNumber":16},{"time":67571.46215000022,"duration":893.9394833333499,"noteNumber":38,"velocity":121,"programNumber":16},{"time":68253.28040000024,"duration":212.12123333333875,"noteNumber":42,"velocity":106,"programNumber":16},{"time":68480.55315000024,"duration":212.12123333333875,"noteNumber":42,"velocity":122,"programNumber":16},{"time":68707.82590000024,"duration":212.12123333333875,"noteNumber":42,"velocity":127,"programNumber":16},{"time":68026.00765000023,"duration":893.9394833333499,"noteNumber":36,"velocity":127,"programNumber":16},{"time":68935.09865000025,"duration":212.12123333333875,"noteNumber":42,"velocity":127,"programNumber":16},{"time":68480.55315000024,"duration":893.9394833333499,"noteNumber":38,"velocity":122,"programNumber":16},{"time":69162.37140000025,"duration":212.12123333333875,"noteNumber":42,"velocity":98,"programNumber":16},{"time":69389.64415000025,"duration":212.12123333333875,"noteNumber":42,"velocity":115,"programNumber":16},{"time":68935.09865000025,"duration":893.9394833333499,"noteNumber":49,"velocity":127,"programNumber":16},{"time":68935.09865000025,"duration":893.9394833333499,"noteNumber":36,"velocity":127,"programNumber":16},{"time":69616.91690000026,"duration":212.12123333333875,"noteNumber":42,"velocity":114,"programNumber":16},{"time":69844.18965000026,"duration":212.12123333333875,"noteNumber":42,"velocity":127,"programNumber":16},{"time":70071.46240000027,"duration":212.12123333333875,"noteNumber":42,"velocity":97,"programNumber":16},{"time":69389.64415000025,"duration":893.9394833333499,"noteNumber":38,"velocity":115,"programNumber":16},{"time":70298.73515000027,"duration":212.12123333333875,"noteNumber":42,"velocity":127,"programNumber":16},{"time":70526.00790000027,"duration":212.12123333333875,"noteNumber":42,"velocity":127,"programNumber":16},{"time":69844.18965000026,"duration":893.9394833333499,"noteNumber":36,"velocity":127,"programNumber":16},{"time":70753.28065000028,"duration":212.12123333333875,"noteNumber":42,"velocity":127,"programNumber":16},{"time":70298.73515000027,"duration":893.9394833333499,"noteNumber":38,"velocity":127,"programNumber":16},{"time":70980.55340000028,"duration":212.12123333333875,"noteNumber":42,"velocity":103,"programNumber":16},{"time":71207.82615000028,"duration":212.12123333333875,"noteNumber":42,"velocity":126,"programNumber":16},{"time":70753.28065000028,"duration":893.9394833333499,"noteNumber":36,"velocity":127,"programNumber":16},{"time":71435.09890000029,"duration":212.12123333333875,"noteNumber":42,"velocity":123,"programNumber":16},{"time":71662.37165000029,"duration":212.12123333333875,"noteNumber":42,"velocity":127,"programNumber":16},{"time":71889.6444000003,"duration":212.12123333333875,"noteNumber":42,"velocity":100,"programNumber":16},{"time":71207.82615000028,"duration":893.9394833333499,"noteNumber":38,"velocity":126,"programNumber":16},{"time":72116.9171500003,"duration":212.12123333333875,"noteNumber":42,"velocity":118,"programNumber":16},{"time":72344.1899000003,"duration":212.12123333333875,"noteNumber":42,"velocity":112,"programNumber":16},{"time":71662.37165000029,"duration":893.9394833333499,"noteNumber":36,"velocity":127,"programNumber":16},{"time":72571.4626500003,"duration":212.12123333333875,"noteNumber":49,"velocity":127,"programNumber":16},{"time":72571.4626500003,"duration":212.12123333333875,"noteNumber":42,"velocity":127,"programNumber":16},{"time":72116.9171500003,"duration":893.9394833333499,"noteNumber":38,"velocity":118,"programNumber":16},{"time":72798.73540000031,"duration":212.12123333333875,"noteNumber":42,"velocity":104,"programNumber":16},{"time":73026.00815000031,"duration":212.12123333333875,"noteNumber":42,"velocity":127,"programNumber":16},{"time":72571.4626500003,"duration":893.9394833333499,"noteNumber":36,"velocity":127,"programNumber":16},{"time":73253.28090000032,"duration":212.12123333333875,"noteNumber":42,"velocity":107,"programNumber":16},{"time":73480.55365000032,"duration":212.12123333333875,"noteNumber":42,"velocity":127,"programNumber":16},{"time":73707.82640000033,"duration":212.12123333333875,"noteNumber":42,"velocity":97,"programNumber":16},{"time":73026.00815000031,"duration":893.9394833333499,"noteNumber":38,"velocity":127,"programNumber":16},{"time":73935.09915000033,"duration":212.12123333333875,"noteNumber":42,"velocity":119,"programNumber":16},{"time":74162.37190000033,"duration":212.12123333333875,"noteNumber":42,"velocity":127,"programNumber":16},{"time":73480.55365000032,"duration":893.9394833333499,"noteNumber":36,"velocity":127,"programNumber":16},{"time":74389.64465000034,"duration":212.12123333333875,"noteNumber":42,"velocity":127,"programNumber":16},{"time":74616.91740000034,"duration":212.12123333333875,"noteNumber":42,"velocity":104,"programNumber":16},{"time":73935.09915000033,"duration":893.9394833333499,"noteNumber":38,"velocity":119,"programNumber":16},{"time":74844.19015000034,"duration":212.12123333333875,"noteNumber":42,"velocity":121,"programNumber":16},{"time":75071.46290000035,"duration":212.12123333333875,"noteNumber":42,"velocity":124,"programNumber":16},{"time":74389.64465000034,"duration":893.9394833333499,"noteNumber":36,"velocity":127,"programNumber":16},{"time":75298.73565000035,"duration":212.12123333333875,"noteNumber":42,"velocity":127,"programNumber":16},{"time":74844.19015000034,"duration":893.9394833333499,"noteNumber":38,"velocity":121,"programNumber":16},{"time":75526.00840000036,"duration":212.12123333333875,"noteNumber":42,"velocity":106,"programNumber":16},{"time":75753.28115000036,"duration":212.12123333333875,"noteNumber":42,"velocity":122,"programNumber":16},{"time":75298.73565000035,"duration":893.9394833333499,"noteNumber":36,"velocity":127,"programNumber":16},{"time":75980.55390000036,"duration":212.12123333333875,"noteNumber":42,"velocity":127,"programNumber":16},{"time":76207.82665000037,"duration":212.12123333333875,"noteNumber":42,"velocity":127,"programNumber":16},{"time":76435.09940000037,"duration":212.12123333333875,"noteNumber":42,"velocity":98,"programNumber":16},{"time":75753.28115000036,"duration":893.9394833333499,"noteNumber":38,"velocity":122,"programNumber":16},{"time":76662.37215000037,"duration":212.12123333333875,"noteNumber":42,"velocity":115,"programNumber":16},{"time":76207.82665000037,"duration":893.9394833333499,"noteNumber":36,"velocity":127,"programNumber":16},{"time":76889.64490000038,"duration":212.12123333333875,"noteNumber":42,"velocity":114,"programNumber":16},{"time":77116.91765000038,"duration":212.12123333333875,"noteNumber":42,"velocity":127,"programNumber":16},{"time":77344.19040000039,"duration":212.12123333333875,"noteNumber":42,"velocity":97,"programNumber":16},{"time":76662.37215000037,"duration":893.9394833333499,"noteNumber":38,"velocity":115,"programNumber":16},{"time":77571.46315000039,"duration":212.12123333333875,"noteNumber":42,"velocity":127,"programNumber":16},{"time":77798.73590000039,"duration":212.12123333333875,"noteNumber":42,"velocity":127,"programNumber":16},{"time":77116.91765000038,"duration":893.9394833333499,"noteNumber":36,"velocity":127,"programNumber":16},{"time":78026.0086500004,"duration":212.12123333333875,"noteNumber":42,"velocity":127,"programNumber":16},{"time":78253.2814000004,"duration":212.12123333333875,"noteNumber":42,"velocity":103,"programNumber":16},{"time":77571.46315000039,"duration":893.9394833333499,"noteNumber":38,"velocity":127,"programNumber":16},{"time":78480.5541500004,"duration":212.12123333333875,"noteNumber":42,"velocity":126,"programNumber":16},{"time":78707.82690000041,"duration":212.12123333333875,"noteNumber":42,"velocity":123,"programNumber":16},{"time":78026.0086500004,"duration":893.9394833333499,"noteNumber":36,"velocity":127,"programNumber":16},{"time":78480.5541500004,"duration":454.54550000000745,"noteNumber":38,"velocity":126,"programNumber":16},{"time":78935.09965000041,"duration":212.12123333333875,"noteNumber":42,"velocity":127,"programNumber":16},{"time":78935.09965000041,"duration":227.27275000000373,"noteNumber":36,"velocity":127,"programNumber":16},{"time":78935.09965000041,"duration":439.3939833333425,"noteNumber":38,"velocity":127,"programNumber":16},{"time":79162.37240000041,"duration":212.12123333333875,"noteNumber":42,"velocity":100,"programNumber":16},{"time":79389.64515000042,"duration":212.12123333333875,"noteNumber":42,"velocity":118,"programNumber":16},{"time":79389.64515000042,"duration":227.27275000000373,"noteNumber":38,"velocity":118,"programNumber":16},{"time":79616.91790000042,"duration":212.12123333333875,"noteNumber":38,"velocity":112,"programNumber":16},{"time":79616.91790000042,"duration":212.12123333333875,"noteNumber":42,"velocity":112,"programNumber":16},{"time":79162.37240000041,"duration":666.6667333333462,"noteNumber":36,"velocity":100,"programNumber":16},{"time":79844.19065000043,"duration":212.12123333333875,"noteNumber":36,"velocity":127,"programNumber":16},{"time":79844.19065000043,"duration":212.12123333333875,"noteNumber":42,"velocity":127,"programNumber":16},{"time":80071.46340000043,"duration":212.12123333333875,"noteNumber":42,"velocity":104,"programNumber":16},{"time":80298.73615000043,"duration":212.12123333333875,"noteNumber":38,"velocity":127,"programNumber":16},{"time":80298.73615000043,"duration":212.12123333333875,"noteNumber":42,"velocity":127,"programNumber":16},{"time":79844.19065000043,"duration":893.9394833333499,"noteNumber":49,"velocity":127,"programNumber":16},{"time":80526.00890000044,"duration":212.12123333333875,"noteNumber":42,"velocity":107,"programNumber":16},{"time":80753.28165000044,"duration":212.12123333333875,"noteNumber":42,"velocity":127,"programNumber":16},{"time":80980.55440000044,"duration":212.12123333333875,"noteNumber":42,"velocity":97,"programNumber":16},{"time":81207.82715000045,"duration":212.12123333333875,"noteNumber":42,"velocity":119,"programNumber":16},{"time":81435.09990000045,"duration":212.12123333333875,"noteNumber":42,"velocity":127,"programNumber":16},{"time":80753.28165000044,"duration":893.9394833333499,"noteNumber":36,"velocity":127,"programNumber":16},{"time":81662.37265000046,"duration":212.12123333333875,"noteNumber":42,"velocity":127,"programNumber":16},{"time":81889.64540000046,"duration":212.12123333333875,"noteNumber":42,"velocity":104,"programNumber":16},{"time":81207.82715000045,"duration":893.9394833333499,"noteNumber":38,"velocity":119,"programNumber":16},{"time":82116.91815000046,"duration":212.12123333333875,"noteNumber":42,"velocity":121,"programNumber":16},{"time":82344.19090000047,"duration":212.12123333333875,"noteNumber":42,"velocity":124,"programNumber":16},{"time":81662.37265000046,"duration":893.9394833333499,"noteNumber":36,"velocity":127,"programNumber":16},{"time":82571.46365000047,"duration":212.12123333333875,"noteNumber":42,"velocity":127,"programNumber":16},{"time":82116.91815000046,"duration":893.9394833333499,"noteNumber":38,"velocity":121,"programNumber":16},{"time":82798.73640000047,"duration":212.12123333333875,"noteNumber":42,"velocity":106,"programNumber":16},{"time":83026.00915000048,"duration":212.12123333333875,"noteNumber":42,"velocity":122,"programNumber":16},{"time":82571.46365000047,"duration":893.9394833333499,"noteNumber":36,"velocity":127,"programNumber":16},{"time":83253.28190000048,"duration":212.12123333333875,"noteNumber":42,"velocity":127,"programNumber":16},{"time":83480.55465000049,"duration":212.12123333333875,"noteNumber":42,"velocity":127,"programNumber":16},{"time":83707.82740000049,"duration":212.12123333333875,"noteNumber":42,"velocity":98,"programNumber":16},{"time":83026.00915000048,"duration":893.9394833333499,"noteNumber":38,"velocity":122,"programNumber":16},{"time":83935.1001500005,"duration":212.12123333333875,"noteNumber":42,"velocity":115,"programNumber":16},{"time":83480.55465000049,"duration":893.9394833333499,"noteNumber":36,"velocity":127,"programNumber":16},{"time":84162.3729000005,"duration":212.12123333333875,"noteNumber":42,"velocity":114,"programNumber":16},{"time":84389.6456500005,"duration":212.12123333333875,"noteNumber":42,"velocity":127,"programNumber":16},{"time":84616.9184000005,"duration":212.12123333333875,"noteNumber":42,"velocity":97,"programNumber":16},{"time":83935.1001500005,"duration":893.9394833333499,"noteNumber":38,"velocity":115,"programNumber":16},{"time":84844.19115000051,"duration":212.12123333333875,"noteNumber":42,"velocity":127,"programNumber":16},{"time":85071.46390000051,"duration":212.12123333333875,"noteNumber":42,"velocity":127,"programNumber":16},{"time":84389.6456500005,"duration":893.9394833333499,"noteNumber":36,"velocity":127,"programNumber":16},{"time":85298.73665000052,"duration":212.12123333333875,"noteNumber":42,"velocity":127,"programNumber":16},{"time":85071.46390000051,"duration":439.3939833333425,"noteNumber":49,"velocity":127,"programNumber":16},{"time":85526.00940000052,"duration":212.12123333333875,"noteNumber":42,"velocity":103,"programNumber":16},{"time":84844.19115000051,"duration":893.9394833333499,"noteNumber":38,"velocity":127,"programNumber":16},{"time":85753.28215000052,"duration":212.12123333333875,"noteNumber":42,"velocity":126,"programNumber":16},{"time":85298.73665000052,"duration":893.9394833333499,"noteNumber":36,"velocity":127,"programNumber":16},{"time":85980.55490000053,"duration":212.12123333333875,"noteNumber":42,"velocity":123,"programNumber":16},{"time":86207.82765000053,"duration":212.12123333333875,"noteNumber":42,"velocity":127,"programNumber":16},{"time":85980.55490000053,"duration":439.3939833333425,"noteNumber":49,"velocity":123,"programNumber":16},{"time":86435.10040000053,"duration":212.12123333333875,"noteNumber":42,"velocity":100,"programNumber":16},{"time":85753.28215000052,"duration":893.9394833333499,"noteNumber":38,"velocity":126,"programNumber":16},{"time":86662.37315000054,"duration":212.12123333333875,"noteNumber":42,"velocity":118,"programNumber":16},{"time":86889.64590000054,"duration":212.12123333333875,"noteNumber":42,"velocity":112,"programNumber":16},{"time":86207.82765000053,"duration":893.9394833333499,"noteNumber":36,"velocity":127,"programNumber":16},{"time":87116.91865000055,"duration":212.12123333333875,"noteNumber":49,"velocity":127,"programNumber":16},{"time":87116.91865000055,"duration":212.12123333333875,"noteNumber":42,"velocity":127,"programNumber":16},{"time":86662.37315000054,"duration":893.9394833333499,"noteNumber":38,"velocity":118,"programNumber":16},{"time":87344.19140000055,"duration":212.12123333333875,"noteNumber":42,"velocity":104,"programNumber":16},{"time":87571.46415000055,"duration":212.12123333333875,"noteNumber":42,"velocity":127,"programNumber":16},{"time":87116.91865000055,"duration":893.9394833333499,"noteNumber":36,"velocity":127,"programNumber":16},{"time":87798.73690000056,"duration":212.12123333333875,"noteNumber":42,"velocity":107,"programNumber":16},{"time":88026.00965000056,"duration":212.12123333333875,"noteNumber":42,"velocity":127,"programNumber":16},{"time":88253.28240000056,"duration":212.12123333333875,"noteNumber":42,"velocity":97,"programNumber":16},{"time":87571.46415000055,"duration":893.9394833333499,"noteNumber":38,"velocity":127,"programNumber":16},{"time":88480.55515000057,"duration":212.12123333333875,"noteNumber":42,"velocity":119,"programNumber":16},{"time":88707.82790000057,"duration":212.12123333333875,"noteNumber":42,"velocity":127,"programNumber":16},{"time":88026.00965000056,"duration":893.9394833333499,"noteNumber":36,"velocity":127,"programNumber":16},{"time":88480.55515000057,"duration":454.54550000000745,"noteNumber":38,"velocity":119,"programNumber":16},{"time":88935.10065000058,"duration":212.12123333333875,"noteNumber":47,"velocity":127,"programNumber":16},{"time":89048.73702500058,"duration":212.12123333333875,"noteNumber":45,"velocity":127,"programNumber":16},{"time":88935.10065000058,"duration":439.3939833333425,"noteNumber":38,"velocity":127,"programNumber":16},{"time":89276.00977500058,"duration":113.63637500000186,"noteNumber":43,"velocity":127,"programNumber":16},{"time":89389.64615000058,"duration":98.48485833333689,"noteNumber":43,"velocity":121,"programNumber":16},{"time":89389.64615000058,"duration":212.12123333333875,"noteNumber":42,"velocity":121,"programNumber":16},{"time":89616.91890000059,"duration":212.12123333333875,"noteNumber":43,"velocity":124,"programNumber":16},{"time":89389.64615000058,"duration":439.3939833333425,"noteNumber":38,"velocity":121,"programNumber":16},{"time":89389.64615000058,"duration":439.3939833333425,"noteNumber":36,"velocity":121,"programNumber":16},{"time":89844.19165000059,"duration":113.63637500000186,"noteNumber":43,"velocity":127,"programNumber":16},{"time":89957.82802500059,"duration":98.48485833333689,"noteNumber":43,"velocity":127,"programNumber":16},{"time":89844.19165000059,"duration":439.3939833333425,"noteNumber":38,"velocity":127,"programNumber":16},{"time":90185.1007750006,"duration":212.12123333333875,"noteNumber":43,"velocity":127,"programNumber":16},{"time":90298.7371500006,"duration":212.12123333333875,"noteNumber":41,"velocity":122,"programNumber":16},{"time":90412.3735250006,"duration":113.63637500000186,"noteNumber":43,"velocity":127,"programNumber":16},{"time":90526.0099000006,"duration":98.48485833333689,"noteNumber":43,"velocity":127,"programNumber":16},{"time":90298.7371500006,"duration":439.3939833333425,"noteNumber":38,"velocity":122,"programNumber":16},{"time":90298.7371500006,"duration":439.3939833333425,"noteNumber":36,"velocity":122,"programNumber":16},{"time":90639.6462750006,"duration":212.12123333333875,"noteNumber":41,"velocity":127,"programNumber":16},{"time":90298.7371500006,"duration":568.1818750000093,"noteNumber":42,"velocity":122,"programNumber":16},{"time":90866.9190250006,"duration":113.63637500000186,"noteNumber":42,"velocity":127,"programNumber":16},{"time":90980.55540000061,"duration":98.48485833333689,"noteNumber":42,"velocity":98,"programNumber":16},{"time":91094.19177500061,"duration":98.48485833333689,"noteNumber":42,"velocity":127,"programNumber":16},{"time":90753.2826500006,"duration":439.3939833333425,"noteNumber":38,"velocity":127,"programNumber":16},{"time":91207.82815000061,"duration":98.48485833333689,"noteNumber":42,"velocity":115,"programNumber":16},{"time":91207.82815000061,"duration":212.12123333333875,"noteNumber":38,"velocity":115,"programNumber":16},{"time":91435.10090000062,"duration":113.63637500000186,"noteNumber":42,"velocity":114,"programNumber":16},{"time":91548.73727500062,"duration":98.48485833333689,"noteNumber":42,"velocity":127,"programNumber":16},{"time":90753.2826500006,"duration":893.9394833333499,"noteNumber":49,"velocity":127,"programNumber":16},{"time":91662.37365000062,"duration":212.12123333333875,"noteNumber":36,"velocity":127,"programNumber":16},{"time":91889.64640000062,"duration":113.63637500000186,"noteNumber":42,"velocity":97,"programNumber":16},{"time":92003.28277500063,"duration":98.48485833333689,"noteNumber":42,"velocity":127,"programNumber":16},{"time":92116.91915000063,"duration":212.12123333333875,"noteNumber":38,"velocity":127,"programNumber":16},{"time":92344.19190000063,"duration":113.63637500000186,"noteNumber":42,"velocity":127,"programNumber":16},{"time":92457.82827500063,"duration":98.48485833333689,"noteNumber":42,"velocity":127,"programNumber":16},{"time":92571.46465000063,"duration":212.12123333333875,"noteNumber":36,"velocity":127,"programNumber":16},{"time":92685.10102500064,"duration":113.63637500000186,"noteNumber":42,"velocity":127,"programNumber":16},{"time":92798.73740000064,"duration":98.48485833333689,"noteNumber":42,"velocity":103,"programNumber":16},{"time":92912.37377500064,"duration":98.48485833333689,"noteNumber":42,"velocity":127,"programNumber":16},{"time":93026.01015000064,"duration":98.48485833333689,"noteNumber":42,"velocity":126,"programNumber":16},{"time":93026.01015000064,"duration":212.12123333333875,"noteNumber":38,"velocity":126,"programNumber":16},{"time":93253.28290000065,"duration":113.63637500000186,"noteNumber":42,"velocity":123,"programNumber":16},{"time":93366.91927500065,"duration":98.48485833333689,"noteNumber":42,"velocity":127,"programNumber":16},{"time":93480.55565000065,"duration":212.12123333333875,"noteNumber":36,"velocity":127,"programNumber":16},{"time":93707.82840000065,"duration":113.63637500000186,"noteNumber":42,"velocity":100,"programNumber":16},{"time":93821.46477500066,"duration":98.48485833333689,"noteNumber":42,"velocity":127,"programNumber":16},{"time":93935.10115000066,"duration":212.12123333333875,"noteNumber":38,"velocity":118,"programNumber":16},{"time":94162.37390000066,"duration":113.63637500000186,"noteNumber":42,"velocity":112,"programNumber":16},{"time":94276.01027500066,"duration":98.48485833333689,"noteNumber":42,"velocity":127,"programNumber":16},{"time":94389.64665000066,"duration":212.12123333333875,"noteNumber":36,"velocity":127,"programNumber":16},{"time":94503.28302500067,"duration":113.63637500000186,"noteNumber":42,"velocity":127,"programNumber":16},{"time":94616.91940000067,"duration":98.48485833333689,"noteNumber":42,"velocity":104,"programNumber":16},{"time":94730.55577500067,"duration":98.48485833333689,"noteNumber":42,"velocity":127,"programNumber":16},{"time":94389.64665000066,"duration":439.3939833333425,"noteNumber":49,"velocity":127,"programNumber":16},{"time":94844.19215000067,"duration":98.48485833333689,"noteNumber":42,"velocity":127,"programNumber":16},{"time":94844.19215000067,"duration":212.12123333333875,"noteNumber":38,"velocity":127,"programNumber":16},{"time":95071.46490000068,"duration":113.63637500000186,"noteNumber":42,"velocity":107,"programNumber":16},{"time":95185.10127500068,"duration":98.48485833333689,"noteNumber":42,"velocity":127,"programNumber":16},{"time":95298.73765000068,"duration":212.12123333333875,"noteNumber":36,"velocity":127,"programNumber":16},{"time":95526.01040000068,"duration":113.63637500000186,"noteNumber":42,"velocity":97,"programNumber":16},{"time":95639.64677500069,"duration":98.48485833333689,"noteNumber":42,"velocity":127,"programNumber":16},{"time":95753.28315000069,"duration":212.12123333333875,"noteNumber":38,"velocity":119,"programNumber":16},{"time":95980.55590000069,"duration":113.63637500000186,"noteNumber":42,"velocity":127,"programNumber":16},{"time":96094.19227500069,"duration":98.48485833333689,"noteNumber":42,"velocity":127,"programNumber":16},{"time":96207.8286500007,"duration":212.12123333333875,"noteNumber":36,"velocity":127,"programNumber":16},{"time":96321.4650250007,"duration":113.63637500000186,"noteNumber":42,"velocity":127,"programNumber":16},{"time":96435.1014000007,"duration":98.48485833333689,"noteNumber":42,"velocity":104,"programNumber":16},{"time":96548.7377750007,"duration":98.48485833333689,"noteNumber":42,"velocity":127,"programNumber":16},{"time":96662.3741500007,"duration":98.48485833333689,"noteNumber":42,"velocity":121,"programNumber":16},{"time":96662.3741500007,"duration":212.12123333333875,"noteNumber":38,"velocity":121,"programNumber":16},{"time":96889.6469000007,"duration":113.63637500000186,"noteNumber":42,"velocity":124,"programNumber":16},{"time":97003.28327500071,"duration":98.48485833333689,"noteNumber":42,"velocity":127,"programNumber":16},{"time":97116.91965000071,"duration":212.12123333333875,"noteNumber":36,"velocity":127,"programNumber":16},{"time":97344.19240000071,"duration":113.63637500000186,"noteNumber":42,"velocity":106,"programNumber":16},{"time":97457.82877500071,"duration":98.48485833333689,"noteNumber":42,"velocity":127,"programNumber":16},{"time":97457.82877500071,"duration":113.63637500000186,"noteNumber":38,"velocity":127,"programNumber":16},{"time":97571.46515000072,"duration":98.48485833333689,"noteNumber":38,"velocity":122,"programNumber":16},{"time":97685.10152500072,"duration":98.48485833333689,"noteNumber":38,"velocity":127,"programNumber":16},{"time":97798.73790000072,"duration":98.48485833333689,"noteNumber":38,"velocity":127,"programNumber":16},{"time":97912.37427500072,"duration":98.48485833333689,"noteNumber":38,"velocity":127,"programNumber":16},{"time":98026.01065000072,"duration":212.12123333333875,"noteNumber":36,"velocity":127,"programNumber":16},{"time":98139.64702500073,"duration":113.63637500000186,"noteNumber":42,"velocity":127,"programNumber":16},{"time":98253.28340000073,"duration":98.48485833333689,"noteNumber":42,"velocity":98,"programNumber":16},{"time":98366.91977500073,"duration":98.48485833333689,"noteNumber":42,"velocity":127,"programNumber":16},{"time":98026.01065000072,"duration":439.3939833333425,"noteNumber":49,"velocity":127,"programNumber":16},{"time":98480.55615000073,"duration":98.48485833333689,"noteNumber":42,"velocity":115,"programNumber":16},{"time":98480.55615000073,"duration":212.12123333333875,"noteNumber":38,"velocity":115,"programNumber":16},{"time":98707.82890000074,"duration":113.63637500000186,"noteNumber":42,"velocity":114,"programNumber":16},{"time":98821.46527500074,"duration":98.48485833333689,"noteNumber":42,"velocity":127,"programNumber":16},{"time":98935.10165000074,"duration":212.12123333333875,"noteNumber":36,"velocity":127,"programNumber":16},{"time":99162.37440000074,"duration":113.63637500000186,"noteNumber":42,"velocity":97,"programNumber":16},{"time":99276.01077500074,"duration":98.48485833333689,"noteNumber":42,"velocity":127,"programNumber":16},{"time":99389.64715000075,"duration":212.12123333333875,"noteNumber":38,"velocity":127,"programNumber":16},{"time":99616.91990000075,"duration":113.63637500000186,"noteNumber":42,"velocity":127,"programNumber":16},{"time":99730.55627500075,"duration":98.48485833333689,"noteNumber":42,"velocity":127,"programNumber":16},{"time":99844.19265000075,"duration":212.12123333333875,"noteNumber":36,"velocity":127,"programNumber":16},{"time":99957.82902500076,"duration":113.63637500000186,"noteNumber":42,"velocity":127,"programNumber":16},{"time":100071.46540000076,"duration":98.48485833333689,"noteNumber":42,"velocity":103,"programNumber":16},{"time":100185.10177500076,"duration":98.48485833333689,"noteNumber":42,"velocity":127,"programNumber":16},{"time":100298.73815000076,"duration":98.48485833333689,"noteNumber":42,"velocity":126,"programNumber":16},{"time":100298.73815000076,"duration":212.12123333333875,"noteNumber":38,"velocity":126,"programNumber":16},{"time":100526.01090000077,"duration":113.63637500000186,"noteNumber":42,"velocity":123,"programNumber":16},{"time":100639.64727500077,"duration":98.48485833333689,"noteNumber":42,"velocity":127,"programNumber":16},{"time":100753.28365000077,"duration":212.12123333333875,"noteNumber":36,"velocity":127,"programNumber":16},{"time":100980.55640000077,"duration":113.63637500000186,"noteNumber":42,"velocity":100,"programNumber":16},{"time":101094.19277500077,"duration":98.48485833333689,"noteNumber":42,"velocity":127,"programNumber":16},{"time":101207.82915000078,"duration":212.12123333333875,"noteNumber":38,"velocity":118,"programNumber":16},{"time":101435.10190000078,"duration":113.63637500000186,"noteNumber":42,"velocity":112,"programNumber":16},{"time":101548.73827500078,"duration":98.48485833333689,"noteNumber":42,"velocity":127,"programNumber":16},{"time":101662.37465000078,"duration":212.12123333333875,"noteNumber":36,"velocity":127,"programNumber":16},{"time":101776.01102500079,"duration":113.63637500000186,"noteNumber":42,"velocity":127,"programNumber":16},{"time":101889.64740000079,"duration":98.48485833333689,"noteNumber":42,"velocity":104,"programNumber":16},{"time":102003.28377500079,"duration":98.48485833333689,"noteNumber":42,"velocity":127,"programNumber":16},{"time":102116.92015000079,"duration":98.48485833333689,"noteNumber":42,"velocity":127,"programNumber":16},{"time":102116.92015000079,"duration":212.12123333333875,"noteNumber":38,"velocity":127,"programNumber":16},{"time":102344.1929000008,"duration":113.63637500000186,"noteNumber":42,"velocity":107,"programNumber":16},{"time":102457.8292750008,"duration":98.48485833333689,"noteNumber":42,"velocity":127,"programNumber":16},{"time":102571.4656500008,"duration":212.12123333333875,"noteNumber":36,"velocity":127,"programNumber":16},{"time":102798.7384000008,"duration":113.63637500000186,"noteNumber":42,"velocity":97,"programNumber":16},{"time":102912.3747750008,"duration":98.48485833333689,"noteNumber":42,"velocity":127,"programNumber":16},{"time":103026.0111500008,"duration":212.12123333333875,"noteNumber":38,"velocity":119,"programNumber":16},{"time":103253.28390000081,"duration":113.63637500000186,"noteNumber":42,"velocity":127,"programNumber":16},{"time":103366.92027500081,"duration":98.48485833333689,"noteNumber":42,"velocity":127,"programNumber":16},{"time":103480.55665000081,"duration":212.12123333333875,"noteNumber":36,"velocity":127,"programNumber":16},{"time":103594.19302500082,"duration":113.63637500000186,"noteNumber":42,"velocity":127,"programNumber":16},{"time":103707.82940000082,"duration":98.48485833333689,"noteNumber":42,"velocity":104,"programNumber":16},{"time":103821.46577500082,"duration":98.48485833333689,"noteNumber":42,"velocity":127,"programNumber":16},{"time":103935.10215000082,"duration":98.48485833333689,"noteNumber":42,"velocity":121,"programNumber":16},{"time":103935.10215000082,"duration":212.12123333333875,"noteNumber":38,"velocity":121,"programNumber":16},{"time":104162.37490000082,"duration":113.63637500000186,"noteNumber":42,"velocity":124,"programNumber":16},{"time":104276.01127500083,"duration":98.48485833333689,"noteNumber":42,"velocity":127,"programNumber":16},{"time":104389.64765000083,"duration":212.12123333333875,"noteNumber":36,"velocity":127,"programNumber":16},{"time":104616.92040000083,"duration":113.63637500000186,"noteNumber":42,"velocity":106,"programNumber":16},{"time":104730.55677500083,"duration":98.48485833333689,"noteNumber":42,"velocity":127,"programNumber":16},{"time":104730.55677500083,"duration":113.63637500000186,"noteNumber":38,"velocity":127,"programNumber":16},{"time":104844.19315000084,"duration":98.48485833333689,"noteNumber":38,"velocity":122,"programNumber":16},{"time":104957.82952500084,"duration":98.48485833333689,"noteNumber":38,"velocity":127,"programNumber":16},{"time":105071.46590000084,"duration":98.48485833333689,"noteNumber":38,"velocity":127,"programNumber":16},{"time":105185.10227500084,"duration":98.48485833333689,"noteNumber":38,"velocity":127,"programNumber":16},{"time":105298.73865000084,"duration":212.12123333333875,"noteNumber":36,"velocity":127,"programNumber":16},{"time":105412.37502500085,"duration":113.63637500000186,"noteNumber":42,"velocity":127,"programNumber":16},{"time":105526.01140000085,"duration":98.48485833333689,"noteNumber":42,"velocity":98,"programNumber":16},{"time":105639.64777500085,"duration":98.48485833333689,"noteNumber":42,"velocity":127,"programNumber":16},{"time":105753.28415000085,"duration":98.48485833333689,"noteNumber":42,"velocity":115,"programNumber":16},{"time":105753.28415000085,"duration":212.12123333333875,"noteNumber":38,"velocity":115,"programNumber":16},{"time":105980.55690000085,"duration":113.63637500000186,"noteNumber":42,"velocity":114,"programNumber":16},{"time":106094.19327500086,"duration":98.48485833333689,"noteNumber":42,"velocity":127,"programNumber":16},{"time":105298.73865000084,"duration":893.9394833333499,"noteNumber":49,"velocity":127,"programNumber":16},{"time":106207.82965000086,"duration":212.12123333333875,"noteNumber":36,"velocity":127,"programNumber":16},{"time":106435.10240000086,"duration":113.63637500000186,"noteNumber":42,"velocity":97,"programNumber":16},{"time":106548.73877500086,"duration":98.48485833333689,"noteNumber":42,"velocity":127,"programNumber":16},{"time":106662.37515000087,"duration":212.12123333333875,"noteNumber":38,"velocity":127,"programNumber":16},{"time":106889.64790000087,"duration":113.63637500000186,"noteNumber":42,"velocity":127,"programNumber":16},{"time":107003.28427500087,"duration":98.48485833333689,"noteNumber":42,"velocity":127,"programNumber":16},{"time":107116.92065000087,"duration":212.12123333333875,"noteNumber":36,"velocity":127,"programNumber":16},{"time":107230.55702500088,"duration":113.63637500000186,"noteNumber":42,"velocity":127,"programNumber":16},{"time":107344.19340000088,"duration":98.48485833333689,"noteNumber":42,"velocity":103,"programNumber":16},{"time":107457.82977500088,"duration":98.48485833333689,"noteNumber":42,"velocity":127,"programNumber":16},{"time":107571.46615000088,"duration":98.48485833333689,"noteNumber":42,"velocity":126,"programNumber":16},{"time":107571.46615000088,"duration":212.12123333333875,"noteNumber":38,"velocity":126,"programNumber":16},{"time":107798.73890000088,"duration":113.63637500000186,"noteNumber":42,"velocity":123,"programNumber":16},{"time":107912.37527500089,"duration":98.48485833333689,"noteNumber":42,"velocity":127,"programNumber":16},{"time":108026.01165000089,"duration":212.12123333333875,"noteNumber":36,"velocity":127,"programNumber":16},{"time":108253.28440000089,"duration":113.63637500000186,"noteNumber":42,"velocity":100,"programNumber":16},{"time":108366.9207750009,"duration":98.48485833333689,"noteNumber":42,"velocity":127,"programNumber":16},{"time":108480.5571500009,"duration":212.12123333333875,"noteNumber":38,"velocity":118,"programNumber":16},{"time":108707.8299000009,"duration":113.63637500000186,"noteNumber":42,"velocity":112,"programNumber":16},{"time":108821.4662750009,"duration":98.48485833333689,"noteNumber":42,"velocity":127,"programNumber":16},{"time":108935.1026500009,"duration":212.12123333333875,"noteNumber":36,"velocity":127,"programNumber":16},{"time":109048.7390250009,"duration":113.63637500000186,"noteNumber":42,"velocity":127,"programNumber":16},{"time":109162.3754000009,"duration":98.48485833333689,"noteNumber":42,"velocity":104,"programNumber":16},{"time":109276.01177500091,"duration":98.48485833333689,"noteNumber":42,"velocity":127,"programNumber":16},{"time":109389.64815000091,"duration":98.48485833333689,"noteNumber":42,"velocity":127,"programNumber":16},{"time":109389.64815000091,"duration":212.12123333333875,"noteNumber":38,"velocity":127,"programNumber":16},{"time":109616.92090000091,"duration":113.63637500000186,"noteNumber":42,"velocity":107,"programNumber":16},{"time":109730.55727500092,"duration":98.48485833333689,"noteNumber":42,"velocity":127,"programNumber":16},{"time":109844.19365000092,"duration":212.12123333333875,"noteNumber":36,"velocity":127,"programNumber":16},{"time":110071.46640000092,"duration":113.63637500000186,"noteNumber":42,"velocity":97,"programNumber":16},{"time":110185.10277500092,"duration":98.48485833333689,"noteNumber":42,"velocity":127,"programNumber":16},{"time":110298.73915000093,"duration":212.12123333333875,"noteNumber":38,"velocity":119,"programNumber":16},{"time":110526.01190000093,"duration":113.63637500000186,"noteNumber":42,"velocity":127,"programNumber":16},{"time":110639.64827500093,"duration":98.48485833333689,"noteNumber":42,"velocity":127,"programNumber":16},{"time":110753.28465000093,"duration":212.12123333333875,"noteNumber":36,"velocity":127,"programNumber":16},{"time":110866.92102500093,"duration":113.63637500000186,"noteNumber":42,"velocity":127,"programNumber":16},{"time":110980.55740000094,"duration":98.48485833333689,"noteNumber":42,"velocity":104,"programNumber":16},{"time":111094.19377500094,"duration":98.48485833333689,"noteNumber":42,"velocity":127,"programNumber":16},{"time":111207.83015000094,"duration":98.48485833333689,"noteNumber":42,"velocity":121,"programNumber":16},{"time":111207.83015000094,"duration":212.12123333333875,"noteNumber":38,"velocity":121,"programNumber":16},{"time":111435.10290000094,"duration":113.63637500000186,"noteNumber":42,"velocity":124,"programNumber":16},{"time":111548.73927500095,"duration":98.48485833333689,"noteNumber":42,"velocity":127,"programNumber":16},{"time":111662.37565000095,"duration":212.12123333333875,"noteNumber":36,"velocity":127,"programNumber":16},{"time":111889.64840000095,"duration":212.12123333333875,"noteNumber":42,"velocity":106,"programNumber":16},{"time":112003.28477500095,"duration":113.63637500000186,"noteNumber":38,"velocity":127,"programNumber":16},{"time":112116.92115000096,"duration":98.48485833333689,"noteNumber":38,"velocity":122,"programNumber":16},{"time":112230.55752500096,"duration":98.48485833333689,"noteNumber":38,"velocity":127,"programNumber":16},{"time":112344.19390000096,"duration":98.48485833333689,"noteNumber":38,"velocity":127,"programNumber":16},{"time":112457.83027500096,"duration":98.48485833333689,"noteNumber":38,"velocity":127,"programNumber":16},{"time":112571.46665000096,"duration":212.12123333333875,"noteNumber":36,"velocity":127,"programNumber":16},{"time":112685.10302500096,"duration":113.63637500000186,"noteNumber":42,"velocity":127,"programNumber":16},{"time":112798.73940000097,"duration":98.48485833333689,"noteNumber":42,"velocity":98,"programNumber":16},{"time":112912.37577500097,"duration":98.48485833333689,"noteNumber":42,"velocity":127,"programNumber":16},{"time":113026.01215000097,"duration":98.48485833333689,"noteNumber":42,"velocity":115,"programNumber":16},{"time":113026.01215000097,"duration":212.12123333333875,"noteNumber":38,"velocity":115,"programNumber":16},{"time":113253.28490000097,"duration":113.63637500000186,"noteNumber":42,"velocity":114,"programNumber":16},{"time":113366.92127500098,"duration":98.48485833333689,"noteNumber":42,"velocity":127,"programNumber":16},{"time":112571.46665000096,"duration":893.9394833333499,"noteNumber":49,"velocity":127,"programNumber":16},{"time":113480.55765000098,"duration":212.12123333333875,"noteNumber":36,"velocity":127,"programNumber":16},{"time":113707.83040000098,"duration":113.63637500000186,"noteNumber":42,"velocity":97,"programNumber":16},{"time":113821.46677500098,"duration":98.48485833333689,"noteNumber":42,"velocity":127,"programNumber":16},{"time":113935.10315000098,"duration":212.12123333333875,"noteNumber":38,"velocity":127,"programNumber":16},{"time":114162.37590000099,"duration":113.63637500000186,"noteNumber":42,"velocity":127,"programNumber":16},{"time":114276.01227500099,"duration":98.48485833333689,"noteNumber":42,"velocity":127,"programNumber":16},{"time":114389.64865000099,"duration":212.12123333333875,"noteNumber":36,"velocity":127,"programNumber":16},{"time":114503.285025001,"duration":113.63637500000186,"noteNumber":42,"velocity":127,"programNumber":16},{"time":114616.921400001,"duration":98.48485833333689,"noteNumber":42,"velocity":103,"programNumber":16},{"time":114730.557775001,"duration":98.48485833333689,"noteNumber":42,"velocity":127,"programNumber":16},{"time":114844.194150001,"duration":98.48485833333689,"noteNumber":42,"velocity":126,"programNumber":16},{"time":114844.194150001,"duration":212.12123333333875,"noteNumber":38,"velocity":126,"programNumber":16},{"time":115071.466900001,"duration":113.63637500000186,"noteNumber":42,"velocity":123,"programNumber":16},{"time":115185.103275001,"duration":98.48485833333689,"noteNumber":42,"velocity":127,"programNumber":16},{"time":115298.739650001,"duration":212.12123333333875,"noteNumber":36,"velocity":127,"programNumber":16},{"time":115526.01240000101,"duration":113.63637500000186,"noteNumber":42,"velocity":100,"programNumber":16},{"time":115639.64877500101,"duration":98.48485833333689,"noteNumber":42,"velocity":127,"programNumber":16},{"time":115753.28515000101,"duration":212.12123333333875,"noteNumber":38,"velocity":118,"programNumber":16},{"time":115980.55790000102,"duration":113.63637500000186,"noteNumber":42,"velocity":112,"programNumber":16},{"time":116094.19427500102,"duration":98.48485833333689,"noteNumber":42,"velocity":127,"programNumber":16},{"time":116207.83065000102,"duration":212.12123333333875,"noteNumber":36,"velocity":127,"programNumber":16},{"time":116321.46702500102,"duration":113.63637500000186,"noteNumber":42,"velocity":127,"programNumber":16},{"time":116435.10340000103,"duration":98.48485833333689,"noteNumber":42,"velocity":104,"programNumber":16},{"time":116548.73977500103,"duration":98.48485833333689,"noteNumber":42,"velocity":127,"programNumber":16},{"time":116662.37615000103,"duration":98.48485833333689,"noteNumber":42,"velocity":127,"programNumber":16},{"time":116662.37615000103,"duration":212.12123333333875,"noteNumber":38,"velocity":127,"programNumber":16},{"time":116889.64890000103,"duration":113.63637500000186,"noteNumber":42,"velocity":107,"programNumber":16},{"time":117003.28527500104,"duration":98.48485833333689,"noteNumber":42,"velocity":127,"programNumber":16},{"time":117116.92165000104,"duration":212.12123333333875,"noteNumber":36,"velocity":127,"programNumber":16},{"time":117344.19440000104,"duration":113.63637500000186,"noteNumber":42,"velocity":97,"programNumber":16},{"time":117457.83077500104,"duration":98.48485833333689,"noteNumber":42,"velocity":127,"programNumber":16},{"time":117571.46715000104,"duration":212.12123333333875,"noteNumber":38,"velocity":119,"programNumber":16},{"time":117798.73990000105,"duration":113.63637500000186,"noteNumber":42,"velocity":127,"programNumber":16},{"time":117912.37627500105,"duration":98.48485833333689,"noteNumber":42,"velocity":127,"programNumber":16},{"time":118026.01265000105,"duration":212.12123333333875,"noteNumber":36,"velocity":127,"programNumber":16},{"time":118139.64902500105,"duration":113.63637500000186,"noteNumber":42,"velocity":127,"programNumber":16},{"time":118253.28540000106,"duration":98.48485833333689,"noteNumber":42,"velocity":104,"programNumber":16},{"time":118366.92177500106,"duration":98.48485833333689,"noteNumber":42,"velocity":127,"programNumber":16},{"time":118480.55815000106,"duration":98.48485833333689,"noteNumber":42,"velocity":121,"programNumber":16},{"time":118480.55815000106,"duration":212.12123333333875,"noteNumber":38,"velocity":121,"programNumber":16},{"time":118707.83090000106,"duration":113.63637500000186,"noteNumber":42,"velocity":124,"programNumber":16},{"time":118821.46727500106,"duration":98.48485833333689,"noteNumber":42,"velocity":127,"programNumber":16},{"time":118935.10365000107,"duration":212.12123333333875,"noteNumber":36,"velocity":127,"programNumber":16},{"time":119162.37640000107,"duration":113.63637500000186,"noteNumber":42,"velocity":106,"programNumber":16},{"time":119276.01277500107,"duration":98.48485833333689,"noteNumber":42,"velocity":127,"programNumber":16},{"time":119276.01277500107,"duration":113.63637500000186,"noteNumber":38,"velocity":127,"programNumber":16},{"time":119389.64915000107,"duration":98.48485833333689,"noteNumber":38,"velocity":122,"programNumber":16},{"time":119503.28552500108,"duration":98.48485833333689,"noteNumber":38,"velocity":127,"programNumber":16},{"time":119616.92190000108,"duration":98.48485833333689,"noteNumber":38,"velocity":127,"programNumber":16},{"time":119730.55827500108,"duration":98.48485833333689,"noteNumber":38,"velocity":127,"programNumber":16},{"time":119730.55827500108,"duration":212.12123333333875,"noteNumber":42,"velocity":127,"programNumber":16},{"time":119616.92190000108,"duration":439.3939833333425,"noteNumber":57,"velocity":127,"programNumber":16},{"time":119844.19465000108,"duration":212.12123333333875,"noteNumber":36,"velocity":127,"programNumber":16},{"time":119957.83102500108,"duration":113.63637500000186,"noteNumber":42,"velocity":127,"programNumber":16},{"time":120071.46740000109,"duration":98.48485833333689,"noteNumber":42,"velocity":98,"programNumber":16},{"time":120185.10377500109,"duration":98.48485833333689,"noteNumber":42,"velocity":127,"programNumber":16},{"time":119844.19465000108,"duration":439.3939833333425,"noteNumber":49,"velocity":127,"programNumber":16},{"time":120298.74015000109,"duration":98.48485833333689,"noteNumber":42,"velocity":115,"programNumber":16},{"time":120298.74015000109,"duration":212.12123333333875,"noteNumber":38,"velocity":115,"programNumber":16},{"time":120526.0129000011,"duration":113.63637500000186,"noteNumber":42,"velocity":114,"programNumber":16},{"time":120639.6492750011,"duration":98.48485833333689,"noteNumber":42,"velocity":127,"programNumber":16},{"time":120753.2856500011,"duration":212.12123333333875,"noteNumber":36,"velocity":127,"programNumber":16},{"time":120980.5584000011,"duration":113.63637500000186,"noteNumber":42,"velocity":97,"programNumber":16},{"time":121094.1947750011,"duration":98.48485833333689,"noteNumber":42,"velocity":127,"programNumber":16},{"time":121207.8311500011,"duration":212.12123333333875,"noteNumber":38,"velocity":127,"programNumber":16},{"time":121435.10390000111,"duration":113.63637500000186,"noteNumber":42,"velocity":127,"programNumber":16},{"time":121548.74027500111,"duration":98.48485833333689,"noteNumber":42,"velocity":127,"programNumber":16},{"time":121662.37665000111,"duration":212.12123333333875,"noteNumber":36,"velocity":127,"programNumber":16},{"time":121776.01302500111,"duration":113.63637500000186,"noteNumber":42,"velocity":127,"programNumber":16},{"time":121889.64940000112,"duration":98.48485833333689,"noteNumber":42,"velocity":103,"programNumber":16},{"time":122003.28577500112,"duration":98.48485833333689,"noteNumber":42,"velocity":127,"programNumber":16},{"time":122116.92215000112,"duration":98.48485833333689,"noteNumber":42,"velocity":126,"programNumber":16},{"time":122116.92215000112,"duration":212.12123333333875,"noteNumber":38,"velocity":126,"programNumber":16},{"time":122344.19490000112,"duration":113.63637500000186,"noteNumber":42,"velocity":123,"programNumber":16},{"time":122457.83127500112,"duration":98.48485833333689,"noteNumber":42,"velocity":127,"programNumber":16},{"time":122571.46765000113,"duration":212.12123333333875,"noteNumber":36,"velocity":127,"programNumber":16},{"time":122798.74040000113,"duration":113.63637500000186,"noteNumber":42,"velocity":100,"programNumber":16},{"time":122912.37677500113,"duration":98.48485833333689,"noteNumber":42,"velocity":127,"programNumber":16},{"time":123026.01315000113,"duration":212.12123333333875,"noteNumber":38,"velocity":118,"programNumber":16},{"time":123253.28590000114,"duration":113.63637500000186,"noteNumber":42,"velocity":112,"programNumber":16},{"time":123366.92227500114,"duration":98.48485833333689,"noteNumber":42,"velocity":127,"programNumber":16},{"time":123480.55865000114,"duration":212.12123333333875,"noteNumber":36,"velocity":127,"programNumber":16},{"time":123594.19502500114,"duration":113.63637500000186,"noteNumber":42,"velocity":127,"programNumber":16},{"time":123707.83140000115,"duration":98.48485833333689,"noteNumber":42,"velocity":104,"programNumber":16},{"time":123821.46777500115,"duration":98.48485833333689,"noteNumber":42,"velocity":127,"programNumber":16},{"time":123935.10415000115,"duration":98.48485833333689,"noteNumber":42,"velocity":127,"programNumber":16},{"time":123935.10415000115,"duration":212.12123333333875,"noteNumber":38,"velocity":127,"programNumber":16},{"time":124162.37690000115,"duration":113.63637500000186,"noteNumber":42,"velocity":107,"programNumber":16},{"time":124276.01327500115,"duration":98.48485833333689,"noteNumber":42,"velocity":127,"programNumber":16},{"time":124389.64965000116,"duration":212.12123333333875,"noteNumber":36,"velocity":127,"programNumber":16},{"time":124616.92240000116,"duration":113.63637500000186,"noteNumber":42,"velocity":97,"programNumber":16},{"time":124730.55877500116,"duration":98.48485833333689,"noteNumber":42,"velocity":127,"programNumber":16},{"time":124844.19515000116,"duration":212.12123333333875,"noteNumber":38,"velocity":119,"programNumber":16},{"time":125071.46790000117,"duration":113.63637500000186,"noteNumber":42,"velocity":127,"programNumber":16},{"time":125185.10427500117,"duration":98.48485833333689,"noteNumber":42,"velocity":127,"programNumber":16},{"time":125298.74065000117,"duration":212.12123333333875,"noteNumber":36,"velocity":127,"programNumber":16},{"time":125412.37702500117,"duration":113.63637500000186,"noteNumber":42,"velocity":127,"programNumber":16},{"time":125526.01340000117,"duration":98.48485833333689,"noteNumber":42,"velocity":104,"programNumber":16},{"time":125639.64977500118,"duration":98.48485833333689,"noteNumber":42,"velocity":127,"programNumber":16},{"time":125753.28615000118,"duration":98.48485833333689,"noteNumber":42,"velocity":121,"programNumber":16},{"time":125753.28615000118,"duration":212.12123333333875,"noteNumber":38,"velocity":121,"programNumber":16},{"time":125980.55890000118,"duration":113.63637500000186,"noteNumber":42,"velocity":124,"programNumber":16},{"time":126094.19527500118,"duration":98.48485833333689,"noteNumber":42,"velocity":127,"programNumber":16},{"time":126207.83165000119,"duration":212.12123333333875,"noteNumber":36,"velocity":127,"programNumber":16},{"time":126435.10440000119,"duration":113.63637500000186,"noteNumber":42,"velocity":106,"programNumber":16},{"time":126548.74077500119,"duration":98.48485833333689,"noteNumber":42,"velocity":127,"programNumber":16},{"time":126662.3771500012,"duration":113.63637500000186,"noteNumber":38,"velocity":122,"programNumber":16},{"time":126776.0135250012,"duration":98.48485833333689,"noteNumber":38,"velocity":127,"programNumber":16},{"time":126889.6499000012,"duration":98.48485833333689,"noteNumber":38,"velocity":127,"programNumber":16},{"time":127003.2862750012,"duration":98.48485833333689,"noteNumber":38,"velocity":127,"programNumber":16},{"time":127116.9226500012,"duration":212.12123333333875,"noteNumber":49,"velocity":127,"programNumber":16},{"time":127116.9226500012,"duration":227.27275000000373,"noteNumber":36,"velocity":127,"programNumber":16},{"time":127116.9226500012,"duration":227.27275000000373,"noteNumber":42,"velocity":127,"programNumber":16},{"time":127344.1954000012,"duration":212.12123333333875,"noteNumber":36,"velocity":98,"programNumber":16},{"time":127344.1954000012,"duration":212.12123333333875,"noteNumber":42,"velocity":98,"programNumber":16},{"time":127571.46815000121,"duration":212.12123333333875,"noteNumber":42,"velocity":115,"programNumber":16},{"time":127571.46815000121,"duration":439.3939833333425,"noteNumber":38,"velocity":115,"programNumber":16},{"time":127798.74090000121,"duration":212.12123333333875,"noteNumber":42,"velocity":114,"programNumber":16},{"time":128026.01365000122,"duration":212.12123333333875,"noteNumber":42,"velocity":127,"programNumber":16},{"time":128253.28640000122,"duration":212.12123333333875,"noteNumber":42,"velocity":97,"programNumber":16},{"time":128026.01365000122,"duration":439.3939833333425,"noteNumber":36,"velocity":127,"programNumber":16},{"time":128480.55915000122,"duration":212.12123333333875,"noteNumber":42,"velocity":127,"programNumber":16},{"time":128707.83190000123,"duration":212.12123333333875,"noteNumber":42,"velocity":127,"programNumber":16},{"time":128480.55915000122,"duration":439.3939833333425,"noteNumber":38,"velocity":127,"programNumber":16},{"time":128935.10465000123,"duration":212.12123333333875,"noteNumber":42,"velocity":127,"programNumber":16},{"time":129162.37740000123,"duration":227.27275000000373,"noteNumber":42,"velocity":103,"programNumber":16},{"time":129389.65015000124,"duration":227.27275000000373,"noteNumber":42,"velocity":126,"programNumber":16},{"time":129616.92290000124,"duration":212.12123333333875,"noteNumber":42,"velocity":123,"programNumber":16},{"time":128935.10465000123,"duration":893.9394833333499,"noteNumber":36,"velocity":127,"programNumber":16},{"time":129844.19565000125,"duration":212.12123333333875,"noteNumber":42,"velocity":127,"programNumber":16},{"time":129389.65015000124,"duration":893.9394833333499,"noteNumber":38,"velocity":126,"programNumber":16},{"time":130071.46840000125,"duration":212.12123333333875,"noteNumber":42,"velocity":100,"programNumber":16},{"time":130298.74115000125,"duration":212.12123333333875,"noteNumber":42,"velocity":118,"programNumber":16},{"time":130526.01390000126,"duration":212.12123333333875,"noteNumber":42,"velocity":112,"programNumber":16},{"time":129844.19565000125,"duration":893.9394833333499,"noteNumber":36,"velocity":127,"programNumber":16},{"time":130753.28665000126,"duration":212.12123333333875,"noteNumber":42,"velocity":127,"programNumber":16},{"time":130298.74115000125,"duration":893.9394833333354,"noteNumber":38,"velocity":118,"programNumber":16},{"time":130980.55940000126,"duration":212.1212333333242,"noteNumber":42,"velocity":104,"programNumber":16},{"time":131207.83215000125,"duration":212.12123333333875,"noteNumber":42,"velocity":127,"programNumber":16},{"time":130753.28665000126,"duration":893.9394833333354,"noteNumber":49,"velocity":127,"programNumber":16},{"time":130753.28665000126,"duration":893.9394833333354,"noteNumber":36,"velocity":127,"programNumber":16},{"time":131435.10490000126,"duration":212.12123333333875,"noteNumber":42,"velocity":107,"programNumber":16},{"time":131662.37765000126,"duration":212.12123333333875,"noteNumber":42,"velocity":127,"programNumber":16},{"time":131889.65040000126,"duration":212.12123333333875,"noteNumber":42,"velocity":97,"programNumber":16},{"time":131207.83215000125,"duration":893.9394833333499,"noteNumber":38,"velocity":127,"programNumber":16},{"time":132116.92315000127,"duration":212.12123333333875,"noteNumber":42,"velocity":119,"programNumber":16},{"time":132344.19590000127,"duration":212.12123333333875,"noteNumber":42,"velocity":127,"programNumber":16},{"time":131662.37765000126,"duration":893.9394833333499,"noteNumber":36,"velocity":127,"programNumber":16},{"time":132571.46865000128,"duration":212.12123333333875,"noteNumber":42,"velocity":127,"programNumber":16},{"time":132798.74140000128,"duration":212.12123333333875,"noteNumber":42,"velocity":104,"programNumber":16},{"time":132116.92315000127,"duration":893.9394833333499,"noteNumber":38,"velocity":119,"programNumber":16},{"time":133026.01415000128,"duration":212.12123333333875,"noteNumber":42,"velocity":121,"programNumber":16},{"time":133253.2869000013,"duration":212.12123333333875,"noteNumber":42,"velocity":124,"programNumber":16},{"time":132571.46865000128,"duration":893.9394833333499,"noteNumber":36,"velocity":127,"programNumber":16},{"time":133480.5596500013,"duration":212.12123333333875,"noteNumber":42,"velocity":127,"programNumber":16},{"time":133026.01415000128,"duration":893.9394833333499,"noteNumber":38,"velocity":121,"programNumber":16},{"time":133707.8324000013,"duration":212.12123333333875,"noteNumber":42,"velocity":106,"programNumber":16},{"time":133935.1051500013,"duration":212.12123333333875,"noteNumber":42,"velocity":122,"programNumber":16},{"time":133480.5596500013,"duration":893.9394833333499,"noteNumber":36,"velocity":127,"programNumber":16},{"time":134162.3779000013,"duration":212.12123333333875,"noteNumber":42,"velocity":127,"programNumber":16},{"time":134389.6506500013,"duration":212.12123333333875,"noteNumber":42,"velocity":127,"programNumber":16},{"time":134616.9234000013,"duration":212.12123333333875,"noteNumber":42,"velocity":98,"programNumber":16},{"time":133935.1051500013,"duration":893.9394833333499,"noteNumber":38,"velocity":122,"programNumber":16},{"time":134844.1961500013,"duration":212.12123333333875,"noteNumber":42,"velocity":115,"programNumber":16},{"time":134389.6506500013,"duration":893.9394833333499,"noteNumber":36,"velocity":127,"programNumber":16},{"time":135071.46890000132,"duration":212.12123333333875,"noteNumber":42,"velocity":114,"programNumber":16},{"time":135298.74165000132,"duration":212.12123333333875,"noteNumber":42,"velocity":127,"programNumber":16},{"time":135526.01440000132,"duration":212.12123333333875,"noteNumber":42,"velocity":97,"programNumber":16},{"time":134844.1961500013,"duration":893.9394833333499,"noteNumber":38,"velocity":115,"programNumber":16},{"time":135753.28715000133,"duration":212.12123333333875,"noteNumber":42,"velocity":127,"programNumber":16},{"time":135980.55990000133,"duration":212.12123333333875,"noteNumber":42,"velocity":127,"programNumber":16},{"time":135298.74165000132,"duration":893.9394833333499,"noteNumber":36,"velocity":127,"programNumber":16},{"time":136207.83265000134,"duration":212.12123333333875,"noteNumber":49,"velocity":127,"programNumber":16},{"time":136207.83265000134,"duration":212.12123333333875,"noteNumber":42,"velocity":127,"programNumber":16},{"time":135753.28715000133,"duration":893.9394833333499,"noteNumber":38,"velocity":127,"programNumber":16},{"time":136435.10540000134,"duration":212.12123333333875,"noteNumber":42,"velocity":103,"programNumber":16},{"time":136662.37815000134,"duration":212.12123333333875,"noteNumber":42,"velocity":126,"programNumber":16},{"time":136207.83265000134,"duration":893.9394833333499,"noteNumber":36,"velocity":127,"programNumber":16},{"time":136889.65090000135,"duration":212.12123333333875,"noteNumber":42,"velocity":123,"programNumber":16},{"time":137116.92365000135,"duration":212.12123333333875,"noteNumber":42,"velocity":127,"programNumber":16},{"time":137344.19640000135,"duration":212.12123333333875,"noteNumber":42,"velocity":100,"programNumber":16},{"time":136662.37815000134,"duration":893.9394833333499,"noteNumber":38,"velocity":126,"programNumber":16},{"time":137571.46915000136,"duration":212.12123333333875,"noteNumber":42,"velocity":118,"programNumber":16},{"time":137798.74190000136,"duration":212.12123333333875,"noteNumber":42,"velocity":112,"programNumber":16},{"time":137116.92365000135,"duration":893.9394833333499,"noteNumber":36,"velocity":127,"programNumber":16},{"time":137571.46915000136,"duration":454.54550000000745,"noteNumber":38,"velocity":118,"programNumber":16},{"time":138026.01465000137,"duration":212.12123333333875,"noteNumber":42,"velocity":127,"programNumber":16},{"time":138253.28740000137,"duration":212.12123333333875,"noteNumber":42,"velocity":104,"programNumber":16},{"time":138026.01465000137,"duration":439.3939833333425,"noteNumber":38,"velocity":127,"programNumber":16},{"time":138253.28740000137,"duration":439.3939833333425,"noteNumber":36,"velocity":104,"programNumber":16},{"time":138480.56015000137,"duration":212.12123333333875,"noteNumber":42,"velocity":127,"programNumber":16},{"time":138026.01465000137,"duration":893.9394833333499,"noteNumber":49,"velocity":127,"programNumber":16},{"time":138480.56015000137,"duration":439.3939833333425,"noteNumber":38,"velocity":127,"programNumber":16},{"time":138707.83290000138,"duration":212.12123333333875,"noteNumber":42,"velocity":107,"programNumber":16},{"time":138707.83290000138,"duration":227.27275000000373,"noteNumber":36,"velocity":107,"programNumber":16},{"time":138935.10565000138,"duration":212.12123333333875,"noteNumber":36,"velocity":127,"programNumber":16},{"time":138935.10565000138,"duration":212.12123333333875,"noteNumber":42,"velocity":127,"programNumber":16},{"time":138935.10565000138,"duration":439.3939833333425,"noteNumber":38,"velocity":127,"programNumber":16},{"time":139162.37840000138,"duration":212.12123333333875,"noteNumber":42,"velocity":97,"programNumber":16},{"time":139389.6511500014,"duration":212.12123333333875,"noteNumber":42,"velocity":119,"programNumber":16},{"time":139162.37840000138,"duration":439.3939833333425,"noteNumber":36,"velocity":97,"programNumber":16},{"time":139616.9239000014,"duration":212.12123333333875,"noteNumber":42,"velocity":127,"programNumber":16},{"time":139389.6511500014,"duration":454.54550000000745,"noteNumber":38,"velocity":119,"programNumber":16},{"time":139844.1966500014,"duration":212.12123333333875,"noteNumber":42,"velocity":127,"programNumber":16},{"time":139844.1966500014,"duration":227.27275000000373,"noteNumber":36,"velocity":127,"programNumber":16},{"time":140071.4694000014,"duration":212.12123333333875,"noteNumber":42,"velocity":104,"programNumber":16},{"time":139844.1966500014,"duration":439.3939833333425,"noteNumber":38,"velocity":127,"programNumber":16},{"time":140071.4694000014,"duration":439.3939833333425,"noteNumber":36,"velocity":104,"programNumber":16},{"time":140298.7421500014,"duration":212.12123333333875,"noteNumber":42,"velocity":121,"programNumber":16},{"time":140526.0149000014,"duration":212.12123333333875,"noteNumber":42,"velocity":124,"programNumber":16},{"time":140526.0149000014,"duration":212.12123333333875,"noteNumber":36,"velocity":124,"programNumber":16},{"time":140298.7421500014,"duration":454.54550000000745,"noteNumber":38,"velocity":121,"programNumber":16},{"time":140753.2876500014,"duration":113.63637500000186,"noteNumber":38,"velocity":127,"programNumber":16},{"time":140753.2876500014,"duration":212.12123333333875,"noteNumber":42,"velocity":127,"programNumber":16},{"time":140753.2876500014,"duration":212.12123333333875,"noteNumber":36,"velocity":127,"programNumber":16},{"time":140866.9240250014,"duration":212.12123333333875,"noteNumber":38,"velocity":127,"programNumber":16},{"time":140980.5604000014,"duration":212.12123333333875,"noteNumber":42,"velocity":106,"programNumber":16},{"time":140980.5604000014,"duration":439.3939833333425,"noteNumber":36,"velocity":106,"programNumber":16},{"time":141207.83315000142,"duration":212.12123333333875,"noteNumber":42,"velocity":122,"programNumber":16},{"time":141435.10590000142,"duration":212.12123333333875,"noteNumber":42,"velocity":127,"programNumber":16},{"time":141435.10590000142,"duration":212.12123333333875,"noteNumber":36,"velocity":127,"programNumber":16},{"time":141662.37865000142,"duration":212.12123333333875,"noteNumber":42,"velocity":127,"programNumber":16},{"time":141207.83315000142,"duration":666.6667333333462,"noteNumber":38,"velocity":122,"programNumber":16},{"time":141662.37865000142,"duration":212.12123333333875,"noteNumber":36,"velocity":127,"programNumber":16},{"time":141889.65140000143,"duration":212.12123333333875,"noteNumber":42,"velocity":98,"programNumber":16},{"time":141662.37865000142,"duration":439.3939833333425,"noteNumber":49,"velocity":127,"programNumber":16},{"time":142116.92415000143,"duration":212.12123333333875,"noteNumber":42,"velocity":115,"programNumber":16},{"time":142344.19690000144,"duration":212.12123333333875,"noteNumber":42,"velocity":114,"programNumber":16},{"time":142571.46965000144,"duration":212.12123333333875,"noteNumber":42,"velocity":127,"programNumber":16},{"time":142116.92415000143,"duration":893.9394833333499,"noteNumber":38,"velocity":115,"programNumber":16},{"time":142798.74240000144,"duration":212.12123333333875,"noteNumber":42,"velocity":97,"programNumber":16},{"time":143026.01515000145,"duration":212.12123333333875,"noteNumber":42,"velocity":127,"programNumber":16},{"time":142571.46965000144,"duration":893.9394833333499,"noteNumber":36,"velocity":127,"programNumber":16},{"time":143253.28790000145,"duration":212.12123333333875,"noteNumber":42,"velocity":127,"programNumber":16},{"time":143480.56065000145,"duration":212.12123333333875,"noteNumber":42,"velocity":127,"programNumber":16},{"time":143707.83340000146,"duration":212.12123333333875,"noteNumber":42,"velocity":103,"programNumber":16},{"time":143026.01515000145,"duration":893.9394833333499,"noteNumber":38,"velocity":127,"programNumber":16},{"time":143935.10615000146,"duration":212.12123333333875,"noteNumber":42,"velocity":126,"programNumber":16},{"time":143480.56065000145,"duration":893.9394833333499,"noteNumber":36,"velocity":127,"programNumber":16},{"time":144162.37890000147,"duration":212.12123333333875,"noteNumber":42,"velocity":123,"programNumber":16},{"time":144389.65165000147,"duration":212.12123333333875,"noteNumber":42,"velocity":127,"programNumber":16},{"time":144616.92440000147,"duration":212.12123333333875,"noteNumber":42,"velocity":100,"programNumber":16},{"time":143935.10615000146,"duration":893.9394833333499,"noteNumber":38,"velocity":126,"programNumber":16},{"time":144844.19715000148,"duration":212.12123333333875,"noteNumber":42,"velocity":118,"programNumber":16},{"time":145071.46990000148,"duration":212.12123333333875,"noteNumber":42,"velocity":112,"programNumber":16},{"time":144389.65165000147,"duration":893.9394833333499,"noteNumber":36,"velocity":127,"programNumber":16},{"time":145298.74265000148,"duration":212.12123333333875,"noteNumber":42,"velocity":127,"programNumber":16},{"time":145526.0154000015,"duration":212.12123333333875,"noteNumber":42,"velocity":104,"programNumber":16},{"time":144844.19715000148,"duration":893.9394833333499,"noteNumber":38,"velocity":118,"programNumber":16},{"time":145753.2881500015,"duration":212.12123333333875,"noteNumber":42,"velocity":127,"programNumber":16},{"time":145980.5609000015,"duration":212.12123333333875,"noteNumber":42,"velocity":107,"programNumber":16},{"time":145298.74265000148,"duration":893.9394833333499,"noteNumber":36,"velocity":127,"programNumber":16},{"time":146207.8336500015,"duration":212.12123333333875,"noteNumber":42,"velocity":127,"programNumber":16},{"time":145753.2881500015,"duration":893.9394833333499,"noteNumber":38,"velocity":127,"programNumber":16},{"time":146435.1064000015,"duration":212.12123333333875,"noteNumber":42,"velocity":97,"programNumber":16},{"time":146662.3791500015,"duration":212.12123333333875,"noteNumber":42,"velocity":119,"programNumber":16},{"time":146207.8336500015,"duration":893.9394833333499,"noteNumber":36,"velocity":127,"programNumber":16},{"time":146889.6519000015,"duration":212.12123333333875,"noteNumber":42,"velocity":127,"programNumber":16},{"time":147116.9246500015,"duration":212.12123333333875,"noteNumber":42,"velocity":127,"programNumber":16},{"time":147344.19740000152,"duration":212.12123333333875,"noteNumber":42,"velocity":104,"programNumber":16},{"time":146662.3791500015,"duration":893.9394833333499,"noteNumber":38,"velocity":119,"programNumber":16},{"time":147571.47015000152,"duration":212.12123333333875,"noteNumber":42,"velocity":121,"programNumber":16},{"time":147116.9246500015,"duration":893.9394833333499,"noteNumber":36,"velocity":127,"programNumber":16},{"time":147798.74290000153,"duration":212.12123333333875,"noteNumber":42,"velocity":124,"programNumber":16},{"time":148026.01565000153,"duration":212.12123333333875,"noteNumber":42,"velocity":127,"programNumber":16},{"time":148253.28840000153,"duration":212.12123333333875,"noteNumber":42,"velocity":106,"programNumber":16},{"time":147571.47015000152,"duration":893.9394833333499,"noteNumber":38,"velocity":121,"programNumber":16},{"time":148480.56115000154,"duration":212.12123333333875,"noteNumber":42,"velocity":122,"programNumber":16},{"time":148707.83390000154,"duration":212.12123333333875,"noteNumber":42,"velocity":127,"programNumber":16},{"time":148026.01565000153,"duration":893.9394833333499,"noteNumber":36,"velocity":127,"programNumber":16},{"time":148935.10665000154,"duration":212.12123333333875,"noteNumber":42,"velocity":127,"programNumber":16},{"time":149162.37940000155,"duration":212.12123333333875,"noteNumber":42,"velocity":98,"programNumber":16},{"time":148480.56115000154,"duration":893.9394833333499,"noteNumber":38,"velocity":122,"programNumber":16},{"time":149389.65215000155,"duration":212.12123333333875,"noteNumber":42,"velocity":115,"programNumber":16},{"time":149616.92490000156,"duration":212.12123333333875,"noteNumber":42,"velocity":114,"programNumber":16},{"time":148935.10665000154,"duration":893.9394833333499,"noteNumber":36,"velocity":127,"programNumber":16},{"time":149844.19765000156,"duration":212.12123333333875,"noteNumber":42,"velocity":127,"programNumber":16},{"time":149389.65215000155,"duration":893.9394833333499,"noteNumber":38,"velocity":115,"programNumber":16},{"time":150071.47040000156,"duration":212.12123333333875,"noteNumber":42,"velocity":97,"programNumber":16},{"time":150298.74315000157,"duration":212.12123333333875,"noteNumber":42,"velocity":127,"programNumber":16},{"time":149844.19765000156,"duration":893.9394833333499,"noteNumber":36,"velocity":127,"programNumber":16},{"time":150526.01590000157,"duration":212.12123333333875,"noteNumber":42,"velocity":127,"programNumber":16},{"time":150753.28865000157,"duration":212.12123333333875,"noteNumber":42,"velocity":127,"programNumber":16},{"time":150980.56140000158,"duration":212.12123333333875,"noteNumber":42,"velocity":103,"programNumber":16},{"time":150298.74315000157,"duration":893.9394833333499,"noteNumber":38,"velocity":127,"programNumber":16},{"time":151207.83415000158,"duration":212.12123333333875,"noteNumber":42,"velocity":126,"programNumber":16},{"time":150753.28865000157,"duration":893.9394833333499,"noteNumber":36,"velocity":127,"programNumber":16},{"time":151435.10690000159,"duration":212.12123333333875,"noteNumber":42,"velocity":123,"programNumber":16},{"time":151662.3796500016,"duration":212.12123333333875,"noteNumber":42,"velocity":127,"programNumber":16},{"time":151889.6524000016,"duration":212.12123333333875,"noteNumber":42,"velocity":100,"programNumber":16},{"time":151207.83415000158,"duration":893.9394833333499,"noteNumber":38,"velocity":126,"programNumber":16},{"time":152116.9251500016,"duration":212.12123333333875,"noteNumber":42,"velocity":118,"programNumber":16},{"time":151662.3796500016,"duration":681.8182500000112,"noteNumber":36,"velocity":127,"programNumber":16},{"time":152344.1979000016,"duration":212.12123333333875,"noteNumber":42,"velocity":112,"programNumber":16},{"time":152344.1979000016,"duration":212.12123333333875,"noteNumber":36,"velocity":112,"programNumber":16},{"time":152116.9251500016,"duration":454.54550000000745,"noteNumber":38,"velocity":118,"programNumber":16},{"time":152571.4706500016,"duration":113.63637500000186,"noteNumber":45,"velocity":127,"programNumber":16},{"time":152571.4706500016,"duration":212.12123333333875,"noteNumber":36,"velocity":127,"programNumber":16},{"time":152685.1070250016,"duration":113.63637500000186,"noteNumber":45,"velocity":127,"programNumber":16},{"time":152571.4706500016,"duration":227.27275000000373,"noteNumber":49,"velocity":127,"programNumber":16},{"time":152571.4706500016,"duration":227.27275000000373,"noteNumber":38,"velocity":127,"programNumber":16},{"time":152798.7434000016,"duration":98.48485833333689,"noteNumber":45,"velocity":104,"programNumber":16},{"time":152798.7434000016,"duration":212.12123333333875,"noteNumber":43,"velocity":104,"programNumber":16},{"time":152798.7434000016,"duration":212.12123333333875,"noteNumber":38,"velocity":104,"programNumber":16},{"time":152798.7434000016,"duration":212.12123333333875,"noteNumber":49,"velocity":104,"programNumber":16},{"time":153026.0161500016,"duration":212.12123333333875,"noteNumber":47,"velocity":127,"programNumber":16},{"time":153139.6525250016,"duration":98.48485833333689,"noteNumber":45,"velocity":127,"programNumber":16},{"time":153026.0161500016,"duration":439.3939833333425,"noteNumber":36,"velocity":127,"programNumber":16},{"time":153253.28890000161,"duration":212.12123333333875,"noteNumber":41,"velocity":107,"programNumber":16},{"time":153480.56165000162,"duration":212.12123333333875,"noteNumber":47,"velocity":127,"programNumber":16},{"time":153594.19802500162,"duration":212.12123333333875,"noteNumber":45,"velocity":127,"programNumber":16},{"time":153480.56165000162,"duration":439.3939833333425,"noteNumber":36,"velocity":127,"programNumber":16},{"time":153026.0161500016,"duration":893.9394833333499,"noteNumber":42,"velocity":127,"programNumber":16},{"time":153707.83440000162,"duration":212.12123333333875,"noteNumber":43,"velocity":97,"programNumber":16},{"time":153935.10715000163,"duration":212.12123333333875,"noteNumber":47,"velocity":119,"programNumber":16},{"time":154048.74352500163,"duration":212.12123333333875,"noteNumber":45,"velocity":127,"programNumber":16},{"time":153935.10715000163,"duration":439.3939833333425,"noteNumber":36,"velocity":119,"programNumber":16},{"time":154162.37990000163,"duration":212.12123333333875,"noteNumber":43,"velocity":127,"programNumber":16},{"time":154503.28902500164,"duration":113.63637500000186,"noteNumber":45,"velocity":127,"programNumber":16},{"time":154616.92540000164,"duration":98.48485833333689,"noteNumber":45,"velocity":104,"programNumber":16},{"time":154389.65265000163,"duration":439.3939833333425,"noteNumber":47,"velocity":127,"programNumber":16},{"time":153935.10715000163,"duration":893.9394833333499,"noteNumber":42,"velocity":119,"programNumber":16},{"time":154389.65265000163,"duration":439.3939833333425,"noteNumber":36,"velocity":127,"programNumber":16},{"time":154616.92540000164,"duration":212.12123333333875,"noteNumber":43,"velocity":104,"programNumber":16},{"time":154844.19815000164,"duration":212.12123333333875,"noteNumber":47,"velocity":121,"programNumber":16},{"time":154957.83452500164,"duration":98.48485833333689,"noteNumber":45,"velocity":127,"programNumber":16},{"time":154844.19815000164,"duration":439.3939833333425,"noteNumber":36,"velocity":121,"programNumber":16},{"time":155071.47090000164,"duration":212.12123333333875,"noteNumber":43,"velocity":124,"programNumber":16},{"time":155412.38002500165,"duration":113.63637500000186,"noteNumber":45,"velocity":127,"programNumber":16},{"time":155526.01640000165,"duration":98.48485833333689,"noteNumber":45,"velocity":106,"programNumber":16},{"time":155298.74365000165,"duration":439.3939833333425,"noteNumber":47,"velocity":127,"programNumber":16},{"time":155298.74365000165,"duration":439.3939833333425,"noteNumber":36,"velocity":127,"programNumber":16},{"time":154844.19815000164,"duration":893.9394833333499,"noteNumber":42,"velocity":121,"programNumber":16},{"time":155526.01640000165,"duration":212.12123333333875,"noteNumber":43,"velocity":106,"programNumber":16},{"time":155753.28915000166,"duration":212.12123333333875,"noteNumber":47,"velocity":122,"programNumber":16},{"time":155866.92552500166,"duration":98.48485833333689,"noteNumber":45,"velocity":127,"programNumber":16},{"time":155753.28915000166,"duration":439.3939833333425,"noteNumber":36,"velocity":122,"programNumber":16},{"time":155980.56190000166,"duration":212.12123333333875,"noteNumber":43,"velocity":127,"programNumber":16},{"time":156321.47102500167,"duration":113.63637500000186,"noteNumber":45,"velocity":127,"programNumber":16},{"time":156435.10740000167,"duration":98.48485833333689,"noteNumber":45,"velocity":98,"programNumber":16},{"time":156207.83465000166,"duration":439.3939833333425,"noteNumber":47,"velocity":127,"programNumber":16},{"time":156207.83465000166,"duration":439.3939833333425,"noteNumber":36,"velocity":127,"programNumber":16},{"time":155753.28915000166,"duration":893.9394833333499,"noteNumber":42,"velocity":122,"programNumber":16},{"time":156435.10740000167,"duration":212.12123333333875,"noteNumber":43,"velocity":98,"programNumber":16},{"time":156662.38015000167,"duration":212.12123333333875,"noteNumber":47,"velocity":115,"programNumber":16},{"time":156776.01652500167,"duration":98.48485833333689,"noteNumber":45,"velocity":127,"programNumber":16},{"time":156662.38015000167,"duration":439.3939833333425,"noteNumber":36,"velocity":115,"programNumber":16},{"time":156889.65290000167,"duration":212.12123333333875,"noteNumber":43,"velocity":114,"programNumber":16},{"time":157116.92565000168,"duration":212.12123333333875,"noteNumber":47,"velocity":127,"programNumber":16},{"time":157230.56202500168,"duration":212.12123333333875,"noteNumber":45,"velocity":127,"programNumber":16},{"time":156662.38015000167,"duration":893.9394833333499,"noteNumber":42,"velocity":115,"programNumber":16},{"time":157116.92565000168,"duration":439.3939833333425,"noteNumber":36,"velocity":127,"programNumber":16},{"time":157344.19840000168,"duration":212.12123333333875,"noteNumber":43,"velocity":97,"programNumber":16},{"time":157571.4711500017,"duration":212.12123333333875,"noteNumber":47,"velocity":127,"programNumber":16},{"time":157685.1075250017,"duration":212.12123333333875,"noteNumber":45,"velocity":127,"programNumber":16},{"time":157571.4711500017,"duration":439.3939833333425,"noteNumber":36,"velocity":127,"programNumber":16},{"time":157798.7439000017,"duration":212.12123333333875,"noteNumber":43,"velocity":127,"programNumber":16},{"time":158139.6530250017,"duration":113.63637500000186,"noteNumber":45,"velocity":127,"programNumber":16},{"time":158253.2894000017,"duration":98.48485833333689,"noteNumber":45,"velocity":103,"programNumber":16},{"time":158026.0166500017,"duration":439.3939833333425,"noteNumber":47,"velocity":127,"programNumber":16},{"time":157571.4711500017,"duration":893.9394833333499,"noteNumber":42,"velocity":127,"programNumber":16},{"time":158026.0166500017,"duration":439.3939833333425,"noteNumber":36,"velocity":127,"programNumber":16},{"time":158253.2894000017,"duration":212.12123333333875,"noteNumber":43,"velocity":103,"programNumber":16},{"time":158480.5621500017,"duration":212.12123333333875,"noteNumber":47,"velocity":126,"programNumber":16},{"time":158594.1985250017,"duration":98.48485833333689,"noteNumber":45,"velocity":127,"programNumber":16},{"time":158480.5621500017,"duration":439.3939833333425,"noteNumber":36,"velocity":126,"programNumber":16},{"time":158707.8349000017,"duration":212.12123333333875,"noteNumber":43,"velocity":123,"programNumber":16},{"time":159048.7440250017,"duration":113.63637500000186,"noteNumber":45,"velocity":127,"programNumber":16},{"time":159162.3804000017,"duration":98.48485833333689,"noteNumber":45,"velocity":100,"programNumber":16},{"time":158935.1076500017,"duration":439.3939833333425,"noteNumber":47,"velocity":127,"programNumber":16},{"time":158935.1076500017,"duration":439.3939833333425,"noteNumber":36,"velocity":127,"programNumber":16},{"time":158480.5621500017,"duration":893.9394833333499,"noteNumber":42,"velocity":126,"programNumber":16},{"time":159162.3804000017,"duration":212.12123333333875,"noteNumber":43,"velocity":100,"programNumber":16},{"time":159389.65315000172,"duration":212.12123333333875,"noteNumber":47,"velocity":118,"programNumber":16},{"time":159503.28952500172,"duration":98.48485833333689,"noteNumber":45,"velocity":127,"programNumber":16},{"time":159389.65315000172,"duration":439.3939833333425,"noteNumber":36,"velocity":118,"programNumber":16},{"time":159616.92590000172,"duration":212.12123333333875,"noteNumber":43,"velocity":112,"programNumber":16},{"time":159844.19865000172,"duration":113.63637500000186,"noteNumber":45,"velocity":127,"programNumber":16},{"time":159957.83502500172,"duration":113.63637500000186,"noteNumber":45,"velocity":127,"programNumber":16},{"time":159844.19865000172,"duration":227.27275000000373,"noteNumber":49,"velocity":127,"programNumber":16},{"time":159844.19865000172,"duration":227.27275000000373,"noteNumber":38,"velocity":127,"programNumber":16},{"time":160071.47140000173,"duration":98.48485833333689,"noteNumber":45,"velocity":104,"programNumber":16},{"time":160071.47140000173,"duration":212.12123333333875,"noteNumber":38,"velocity":104,"programNumber":16},{"time":160071.47140000173,"duration":212.12123333333875,"noteNumber":43,"velocity":104,"programNumber":16},{"time":159844.19865000172,"duration":439.3939833333425,"noteNumber":36,"velocity":127,"programNumber":16},{"time":160071.47140000173,"duration":212.12123333333875,"noteNumber":49,"velocity":104,"programNumber":16},{"time":159389.65315000172,"duration":893.9394833333499,"noteNumber":42,"velocity":118,"programNumber":16},{"time":160298.74415000173,"duration":212.12123333333875,"noteNumber":47,"velocity":127,"programNumber":16},{"time":160412.38052500173,"duration":98.48485833333689,"noteNumber":45,"velocity":127,"programNumber":16},{"time":160298.74415000173,"duration":439.3939833333425,"noteNumber":36,"velocity":127,"programNumber":16},{"time":160526.01690000173,"duration":212.12123333333875,"noteNumber":41,"velocity":107,"programNumber":16},{"time":160753.28965000174,"duration":212.12123333333875,"noteNumber":47,"velocity":127,"programNumber":16},{"time":160866.92602500174,"duration":212.12123333333875,"noteNumber":45,"velocity":127,"programNumber":16},{"time":160753.28965000174,"duration":439.3939833333425,"noteNumber":36,"velocity":127,"programNumber":16},{"time":160298.74415000173,"duration":893.9394833333499,"noteNumber":42,"velocity":127,"programNumber":16},{"time":160980.56240000174,"duration":212.12123333333875,"noteNumber":43,"velocity":97,"programNumber":16},{"time":161207.83515000175,"duration":212.12123333333875,"noteNumber":47,"velocity":119,"programNumber":16},{"time":161321.47152500175,"duration":212.12123333333875,"noteNumber":45,"velocity":127,"programNumber":16},{"time":161207.83515000175,"duration":439.3939833333425,"noteNumber":36,"velocity":119,"programNumber":16},{"time":161435.10790000175,"duration":212.12123333333875,"noteNumber":43,"velocity":127,"programNumber":16},{"time":161776.01702500175,"duration":113.63637500000186,"noteNumber":45,"velocity":127,"programNumber":16},{"time":161889.65340000176,"duration":98.48485833333689,"noteNumber":45,"velocity":104,"programNumber":16},{"time":161662.38065000175,"duration":439.3939833333425,"noteNumber":47,"velocity":127,"programNumber":16},{"time":161207.83515000175,"duration":893.9394833333499,"noteNumber":42,"velocity":119,"programNumber":16},{"time":161662.38065000175,"duration":439.3939833333425,"noteNumber":36,"velocity":127,"programNumber":16},{"time":161889.65340000176,"duration":212.12123333333875,"noteNumber":43,"velocity":104,"programNumber":16},{"time":162116.92615000176,"duration":212.12123333333875,"noteNumber":47,"velocity":121,"programNumber":16},{"time":162230.56252500176,"duration":98.48485833333689,"noteNumber":45,"velocity":127,"programNumber":16},{"time":162116.92615000176,"duration":439.3939833333425,"noteNumber":36,"velocity":121,"programNumber":16},{"time":162344.19890000176,"duration":212.12123333333875,"noteNumber":43,"velocity":124,"programNumber":16},{"time":162685.10802500177,"duration":113.63637500000186,"noteNumber":45,"velocity":127,"programNumber":16},{"time":162798.74440000177,"duration":98.48485833333689,"noteNumber":45,"velocity":106,"programNumber":16},{"time":162571.47165000177,"duration":439.3939833333425,"noteNumber":47,"velocity":127,"programNumber":16},{"time":162571.47165000177,"duration":439.3939833333425,"noteNumber":36,"velocity":127,"programNumber":16},{"time":162116.92615000176,"duration":893.9394833333499,"noteNumber":42,"velocity":121,"programNumber":16},{"time":162798.74440000177,"duration":212.12123333333875,"noteNumber":43,"velocity":106,"programNumber":16},{"time":163026.01715000178,"duration":212.12123333333875,"noteNumber":47,"velocity":122,"programNumber":16},{"time":163139.65352500178,"duration":98.48485833333689,"noteNumber":45,"velocity":127,"programNumber":16},{"time":163026.01715000178,"duration":439.3939833333425,"noteNumber":36,"velocity":122,"programNumber":16},{"time":163253.28990000178,"duration":212.12123333333875,"noteNumber":43,"velocity":127,"programNumber":16},{"time":163594.19902500178,"duration":113.63637500000186,"noteNumber":45,"velocity":127,"programNumber":16},{"time":163707.8354000018,"duration":98.48485833333689,"noteNumber":45,"velocity":98,"programNumber":16},{"time":163480.56265000178,"duration":439.3939833333425,"noteNumber":47,"velocity":127,"programNumber":16},{"time":163480.56265000178,"duration":439.3939833333425,"noteNumber":36,"velocity":127,"programNumber":16},{"time":163026.01715000178,"duration":893.9394833333499,"noteNumber":42,"velocity":122,"programNumber":16},{"time":163707.8354000018,"duration":212.12123333333875,"noteNumber":43,"velocity":98,"programNumber":16},{"time":163935.1081500018,"duration":212.12123333333875,"noteNumber":47,"velocity":115,"programNumber":16},{"time":164048.7445250018,"duration":98.48485833333689,"noteNumber":45,"velocity":127,"programNumber":16},{"time":163935.1081500018,"duration":439.3939833333425,"noteNumber":36,"velocity":115,"programNumber":16},{"time":164162.3809000018,"duration":212.12123333333875,"noteNumber":43,"velocity":114,"programNumber":16},{"time":164389.6536500018,"duration":212.12123333333875,"noteNumber":47,"velocity":127,"programNumber":16},{"time":164503.2900250018,"duration":212.12123333333875,"noteNumber":45,"velocity":127,"programNumber":16},{"time":163935.1081500018,"duration":893.9394833333499,"noteNumber":42,"velocity":115,"programNumber":16},{"time":164389.6536500018,"duration":439.3939833333425,"noteNumber":36,"velocity":127,"programNumber":16},{"time":164616.9264000018,"duration":212.12123333333875,"noteNumber":43,"velocity":97,"programNumber":16},{"time":164844.1991500018,"duration":212.12123333333875,"noteNumber":47,"velocity":127,"programNumber":16},{"time":164957.8355250018,"duration":212.12123333333875,"noteNumber":45,"velocity":127,"programNumber":16},{"time":164844.1991500018,"duration":439.3939833333425,"noteNumber":36,"velocity":127,"programNumber":16},{"time":165071.4719000018,"duration":212.12123333333875,"noteNumber":43,"velocity":127,"programNumber":16},{"time":165298.7446500018,"duration":212.12123333333875,"noteNumber":47,"velocity":127,"programNumber":16},{"time":165412.3810250018,"duration":212.12123333333875,"noteNumber":45,"velocity":127,"programNumber":16},{"time":165298.7446500018,"duration":439.3939833333425,"noteNumber":38,"velocity":127,"programNumber":16},{"time":164844.1991500018,"duration":893.9394833333499,"noteNumber":42,"velocity":127,"programNumber":16},{"time":165298.7446500018,"duration":439.3939833333425,"noteNumber":36,"velocity":127,"programNumber":16},{"time":165639.65377500182,"duration":113.63637500000186,"noteNumber":43,"velocity":127,"programNumber":16},{"time":165753.29015000182,"duration":98.48485833333689,"noteNumber":43,"velocity":126,"programNumber":16},{"time":165980.56290000182,"duration":212.12123333333875,"noteNumber":43,"velocity":123,"programNumber":16},{"time":165753.29015000182,"duration":439.3939833333425,"noteNumber":36,"velocity":126,"programNumber":16},{"time":165753.29015000182,"duration":439.3939833333425,"noteNumber":38,"velocity":126,"programNumber":16},{"time":166207.83565000183,"duration":113.63637500000186,"noteNumber":43,"velocity":127,"programNumber":16},{"time":166321.47202500183,"duration":98.48485833333689,"noteNumber":43,"velocity":127,"programNumber":16},{"time":166207.83565000183,"duration":439.3939833333425,"noteNumber":38,"velocity":127,"programNumber":16},{"time":165753.29015000182,"duration":893.9394833333499,"noteNumber":42,"velocity":126,"programNumber":16},{"time":166548.74477500183,"duration":212.12123333333875,"noteNumber":43,"velocity":127,"programNumber":16},{"time":166662.38115000183,"duration":212.12123333333875,"noteNumber":41,"velocity":118,"programNumber":16},{"time":166776.01752500184,"duration":113.63637500000186,"noteNumber":43,"velocity":127,"programNumber":16},{"time":166889.65390000184,"duration":98.48485833333689,"noteNumber":43,"velocity":112,"programNumber":16},{"time":166662.38115000183,"duration":439.3939833333425,"noteNumber":38,"velocity":118,"programNumber":16},{"time":166662.38115000183,"duration":439.3939833333425,"noteNumber":36,"velocity":118,"programNumber":16},{"time":167003.29027500184,"duration":212.12123333333875,"noteNumber":41,"velocity":127,"programNumber":16},{"time":166662.38115000183,"duration":893.9394833333499,"noteNumber":42,"velocity":118,"programNumber":16},{"time":167116.92665000184,"duration":454.54550000000745,"noteNumber":36,"velocity":127,"programNumber":16},{"time":167571.47215000185,"duration":439.3939833333425,"noteNumber":36,"velocity":127,"programNumber":16},{"time":167116.92665000184,"duration":893.9394833333499,"noteNumber":49,"velocity":127,"programNumber":16},{"time":167571.47215000185,"duration":454.54550000000745,"noteNumber":46,"velocity":127,"programNumber":16},{"time":168026.01765000186,"duration":439.3939833333425,"noteNumber":46,"velocity":127,"programNumber":16},{"time":168480.56315000186,"duration":439.3939833333425,"noteNumber":36,"velocity":119,"programNumber":16},{"time":168026.01765000186,"duration":893.9394833333499,"noteNumber":38,"velocity":127,"programNumber":16},{"time":168480.56315000186,"duration":439.3939833333425,"noteNumber":46,"velocity":119,"programNumber":16},{"time":168935.10865000187,"duration":439.3939833333425,"noteNumber":46,"velocity":127,"programNumber":16},{"time":168935.10865000187,"duration":454.54550000000745,"noteNumber":36,"velocity":127,"programNumber":16},{"time":169389.65415000188,"duration":439.3939833333425,"noteNumber":36,"velocity":121,"programNumber":16},{"time":169389.65415000188,"duration":439.3939833333425,"noteNumber":46,"velocity":121,"programNumber":16},{"time":169844.1996500019,"duration":439.3939833333425,"noteNumber":46,"velocity":127,"programNumber":16},{"time":169844.1996500019,"duration":454.54550000000745,"noteNumber":38,"velocity":127,"programNumber":16},{"time":170298.7451500019,"duration":439.3939833333425,"noteNumber":38,"velocity":122,"programNumber":16},{"time":170298.7451500019,"duration":439.3939833333425,"noteNumber":46,"velocity":122,"programNumber":16},{"time":170753.2906500019,"duration":454.54550000000745,"noteNumber":36,"velocity":127,"programNumber":16},{"time":171207.8361500019,"duration":439.3939833333425,"noteNumber":36,"velocity":115,"programNumber":16},{"time":170753.2906500019,"duration":893.9394833333499,"noteNumber":49,"velocity":127,"programNumber":16},{"time":171207.8361500019,"duration":454.54550000000745,"noteNumber":46,"velocity":115,"programNumber":16},{"time":171662.38165000192,"duration":439.3939833333425,"noteNumber":46,"velocity":127,"programNumber":16},{"time":172116.92715000192,"duration":439.3939833333425,"noteNumber":36,"velocity":127,"programNumber":16},{"time":171662.38165000192,"duration":893.9394833333499,"noteNumber":38,"velocity":127,"programNumber":16},{"time":172116.92715000192,"duration":439.3939833333425,"noteNumber":46,"velocity":127,"programNumber":16},{"time":172571.47265000193,"duration":439.3939833333425,"noteNumber":46,"velocity":127,"programNumber":16},{"time":172571.47265000193,"duration":454.54550000000745,"noteNumber":36,"velocity":127,"programNumber":16},{"time":173026.01815000194,"duration":439.3939833333425,"noteNumber":36,"velocity":126,"programNumber":16},{"time":173026.01815000194,"duration":439.3939833333425,"noteNumber":46,"velocity":126,"programNumber":16},{"time":173480.56365000195,"duration":439.3939833333425,"noteNumber":46,"velocity":127,"programNumber":16},{"time":173480.56365000195,"duration":454.54550000000745,"noteNumber":38,"velocity":127,"programNumber":16},{"time":173935.10915000195,"duration":439.3939833333425,"noteNumber":38,"velocity":118,"programNumber":16},{"time":173935.10915000195,"duration":439.3939833333425,"noteNumber":46,"velocity":118,"programNumber":16},{"time":174389.65465000196,"duration":439.3939833333425,"noteNumber":49,"velocity":127,"programNumber":16},{"time":174389.65465000196,"duration":454.54550000000745,"noteNumber":36,"velocity":127,"programNumber":16},{"time":174844.20015000197,"duration":439.3939833333425,"noteNumber":36,"velocity":127,"programNumber":16},{"time":174844.20015000197,"duration":454.54550000000745,"noteNumber":46,"velocity":127,"programNumber":16},{"time":175298.74565000198,"duration":439.3939833333425,"noteNumber":46,"velocity":127,"programNumber":16},{"time":175753.29115000198,"duration":439.3939833333425,"noteNumber":36,"velocity":119,"programNumber":16},{"time":175298.74565000198,"duration":893.9394833333499,"noteNumber":38,"velocity":127,"programNumber":16},{"time":175753.29115000198,"duration":439.3939833333425,"noteNumber":46,"velocity":119,"programNumber":16},{"time":176207.836650002,"duration":439.3939833333425,"noteNumber":46,"velocity":127,"programNumber":16},{"time":176207.836650002,"duration":454.54550000000745,"noteNumber":36,"velocity":127,"programNumber":16},{"time":176662.382150002,"duration":439.3939833333425,"noteNumber":36,"velocity":121,"programNumber":16},{"time":176662.382150002,"duration":439.3939833333425,"noteNumber":46,"velocity":121,"programNumber":16},{"time":177116.927650002,"duration":439.3939833333425,"noteNumber":46,"velocity":127,"programNumber":16},{"time":177571.473150002,"duration":439.3939833333425,"noteNumber":36,"velocity":122,"programNumber":16},{"time":177116.927650002,"duration":893.9394833333499,"noteNumber":38,"velocity":127,"programNumber":16},{"time":177571.473150002,"duration":439.3939833333425,"noteNumber":46,"velocity":122,"programNumber":16},{"time":178026.01865000202,"duration":227.27275000000373,"noteNumber":36,"velocity":127,"programNumber":16},{"time":178253.29140000202,"duration":212.12123333333875,"noteNumber":36,"velocity":98,"programNumber":16},{"time":178026.01865000202,"duration":893.9394833333499,"noteNumber":49,"velocity":127,"programNumber":16},{"time":178480.56415000203,"duration":439.3939833333425,"noteNumber":46,"velocity":115,"programNumber":16},{"time":178480.56415000203,"duration":439.3939833333425,"noteNumber":38,"velocity":115,"programNumber":16},{"time":178707.83690000203,"duration":227.27275000000373,"noteNumber":36,"velocity":114,"programNumber":16},{"time":178935.10965000204,"duration":212.12123333333875,"noteNumber":36,"velocity":127,"programNumber":16},{"time":178935.10965000204,"duration":439.3939833333425,"noteNumber":46,"velocity":127,"programNumber":16},{"time":179162.38240000204,"duration":439.3939833333425,"noteNumber":38,"velocity":97,"programNumber":16},{"time":179389.65515000204,"duration":227.27275000000373,"noteNumber":36,"velocity":127,"programNumber":16},{"time":179389.65515000204,"duration":439.3939833333425,"noteNumber":46,"velocity":127,"programNumber":16},{"time":179616.92790000205,"duration":212.12123333333875,"noteNumber":36,"velocity":127,"programNumber":16},{"time":179844.20065000205,"duration":212.12123333333875,"noteNumber":36,"velocity":127,"programNumber":16},{"time":179844.20065000205,"duration":439.3939833333425,"noteNumber":46,"velocity":127,"programNumber":16},{"time":180298.74615000206,"duration":439.3939833333425,"noteNumber":46,"velocity":126,"programNumber":16},{"time":180298.74615000206,"duration":439.3939833333425,"noteNumber":38,"velocity":126,"programNumber":16},{"time":180753.29165000207,"duration":439.3939833333425,"noteNumber":46,"velocity":127,"programNumber":16},{"time":180753.29165000207,"duration":439.3939833333425,"noteNumber":36,"velocity":127,"programNumber":16},{"time":181207.83715000207,"duration":439.3939833333425,"noteNumber":46,"velocity":118,"programNumber":16},{"time":181207.83715000207,"duration":439.3939833333425,"noteNumber":38,"velocity":118,"programNumber":16},{"time":181662.38265000208,"duration":439.3939833333425,"noteNumber":36,"velocity":127,"programNumber":16},{"time":182116.9281500021,"duration":439.3939833333425,"noteNumber":46,"velocity":127,"programNumber":16},{"time":182116.9281500021,"duration":439.3939833333425,"noteNumber":38,"velocity":127,"programNumber":16},{"time":181662.38265000208,"duration":893.9394833333499,"noteNumber":49,"velocity":127,"programNumber":16},{"time":182571.4736500021,"duration":439.3939833333425,"noteNumber":46,"velocity":127,"programNumber":16},{"time":182571.4736500021,"duration":439.3939833333425,"noteNumber":36,"velocity":127,"programNumber":16},{"time":183026.0191500021,"duration":439.3939833333425,"noteNumber":46,"velocity":119,"programNumber":16},{"time":183026.0191500021,"duration":439.3939833333425,"noteNumber":38,"velocity":119,"programNumber":16},{"time":183480.5646500021,"duration":439.3939833333425,"noteNumber":49,"velocity":127,"programNumber":16},{"time":183480.5646500021,"duration":439.3939833333425,"noteNumber":36,"velocity":127,"programNumber":16},{"time":183935.11015000212,"duration":439.3939833333425,"noteNumber":46,"velocity":121,"programNumber":16},{"time":183935.11015000212,"duration":439.3939833333425,"noteNumber":38,"velocity":121,"programNumber":16},{"time":184389.65565000213,"duration":439.3939833333425,"noteNumber":46,"velocity":127,"programNumber":16},{"time":184389.65565000213,"duration":439.3939833333425,"noteNumber":36,"velocity":127,"programNumber":16},{"time":184844.20115000213,"duration":439.3939833333425,"noteNumber":46,"velocity":122,"programNumber":16},{"time":184844.20115000213,"duration":439.3939833333425,"noteNumber":38,"velocity":122,"programNumber":16},{"time":185298.74665000214,"duration":439.3939833333425,"noteNumber":49,"velocity":127,"programNumber":16},{"time":185298.74665000214,"duration":439.3939833333425,"noteNumber":36,"velocity":127,"programNumber":16},{"time":185753.29215000215,"duration":439.3939833333425,"noteNumber":46,"velocity":115,"programNumber":16},{"time":185753.29215000215,"duration":439.3939833333425,"noteNumber":38,"velocity":115,"programNumber":16},{"time":186207.83765000215,"duration":439.3939833333425,"noteNumber":46,"velocity":127,"programNumber":16},{"time":186207.83765000215,"duration":439.3939833333425,"noteNumber":36,"velocity":127,"programNumber":16},{"time":186662.38315000216,"duration":439.3939833333425,"noteNumber":46,"velocity":127,"programNumber":16},{"time":186662.38315000216,"duration":439.3939833333425,"noteNumber":38,"velocity":127,"programNumber":16},{"time":187116.92865000217,"duration":454.54550000000745,"noteNumber":36,"velocity":127,"programNumber":16},{"time":187571.47415000218,"duration":439.3939833333425,"noteNumber":36,"velocity":126,"programNumber":16},{"time":187116.92865000217,"duration":893.9394833333499,"noteNumber":49,"velocity":127,"programNumber":16},{"time":187571.47415000218,"duration":454.54550000000745,"noteNumber":46,"velocity":126,"programNumber":16},{"time":188026.01965000218,"duration":439.3939833333425,"noteNumber":46,"velocity":127,"programNumber":16},{"time":188480.5651500022,"duration":439.3939833333425,"noteNumber":36,"velocity":118,"programNumber":16},{"time":188026.01965000218,"duration":893.9394833333499,"noteNumber":38,"velocity":127,"programNumber":16},{"time":188480.5651500022,"duration":439.3939833333425,"noteNumber":46,"velocity":118,"programNumber":16},{"time":188935.1106500022,"duration":439.3939833333425,"noteNumber":46,"velocity":127,"programNumber":16},{"time":188935.1106500022,"duration":454.54550000000745,"noteNumber":36,"velocity":127,"programNumber":16},{"time":189389.6561500022,"duration":439.3939833333425,"noteNumber":36,"velocity":127,"programNumber":16},{"time":189389.6561500022,"duration":439.3939833333425,"noteNumber":46,"velocity":127,"programNumber":16},{"time":189844.20165000221,"duration":439.3939833333425,"noteNumber":46,"velocity":127,"programNumber":16},{"time":189844.20165000221,"duration":454.54550000000745,"noteNumber":38,"velocity":127,"programNumber":16},{"time":190298.74715000222,"duration":439.3939833333425,"noteNumber":38,"velocity":119,"programNumber":16},{"time":190298.74715000222,"duration":439.3939833333425,"noteNumber":46,"velocity":119,"programNumber":16},{"time":190753.29265000223,"duration":454.54550000000745,"noteNumber":36,"velocity":127,"programNumber":16},{"time":191207.83815000224,"duration":439.3939833333425,"noteNumber":36,"velocity":121,"programNumber":16},{"time":190753.29265000223,"duration":893.9394833333499,"noteNumber":49,"velocity":127,"programNumber":16},{"time":191207.83815000224,"duration":454.54550000000745,"noteNumber":46,"velocity":121,"programNumber":16},{"time":191662.38365000224,"duration":439.3939833333425,"noteNumber":46,"velocity":127,"programNumber":16},{"time":192116.92915000225,"duration":439.3939833333425,"noteNumber":36,"velocity":122,"programNumber":16},{"time":191662.38365000224,"duration":893.9394833333499,"noteNumber":38,"velocity":127,"programNumber":16},{"time":192116.92915000225,"duration":439.3939833333425,"noteNumber":46,"velocity":122,"programNumber":16},{"time":192571.47465000226,"duration":439.3939833333425,"noteNumber":46,"velocity":127,"programNumber":16},{"time":192571.47465000226,"duration":454.54550000000745,"noteNumber":36,"velocity":127,"programNumber":16},{"time":193026.02015000227,"duration":439.3939833333425,"noteNumber":36,"velocity":115,"programNumber":16},{"time":193026.02015000227,"duration":439.3939833333425,"noteNumber":46,"velocity":115,"programNumber":16},{"time":193480.56565000227,"duration":439.3939833333425,"noteNumber":46,"velocity":127,"programNumber":16},{"time":193480.56565000227,"duration":454.54550000000745,"noteNumber":38,"velocity":127,"programNumber":16},{"time":193935.11115000228,"duration":439.3939833333425,"noteNumber":38,"velocity":127,"programNumber":16},{"time":193935.11115000228,"duration":439.3939833333425,"noteNumber":46,"velocity":127,"programNumber":16},{"time":194389.6566500023,"duration":454.54550000000745,"noteNumber":36,"velocity":127,"programNumber":16},{"time":194844.2021500023,"duration":439.3939833333425,"noteNumber":36,"velocity":126,"programNumber":16},{"time":194389.6566500023,"duration":893.9394833333499,"noteNumber":49,"velocity":127,"programNumber":16},{"time":194844.2021500023,"duration":454.54550000000745,"noteNumber":46,"velocity":126,"programNumber":16},{"time":195298.7476500023,"duration":439.3939833333425,"noteNumber":46,"velocity":127,"programNumber":16},{"time":195753.2931500023,"duration":439.3939833333425,"noteNumber":36,"velocity":118,"programNumber":16},{"time":195298.7476500023,"duration":893.9394833333499,"noteNumber":38,"velocity":127,"programNumber":16},{"time":195753.2931500023,"duration":439.3939833333425,"noteNumber":46,"velocity":118,"programNumber":16},{"time":196207.83865000232,"duration":439.3939833333425,"noteNumber":46,"velocity":127,"programNumber":16},{"time":196207.83865000232,"duration":454.54550000000745,"noteNumber":36,"velocity":127,"programNumber":16},{"time":196662.38415000233,"duration":439.3939833333425,"noteNumber":36,"velocity":127,"programNumber":16},{"time":196662.38415000233,"duration":439.3939833333425,"noteNumber":46,"velocity":127,"programNumber":16},{"time":197116.92965000233,"duration":439.3939833333425,"noteNumber":46,"velocity":127,"programNumber":16},{"time":197116.92965000233,"duration":454.54550000000745,"noteNumber":38,"velocity":127,"programNumber":16},{"time":197571.47515000234,"duration":439.3939833333425,"noteNumber":38,"velocity":119,"programNumber":16},{"time":197571.47515000234,"duration":439.3939833333425,"noteNumber":46,"velocity":119,"programNumber":16},{"time":198026.02065000235,"duration":227.27275000000373,"noteNumber":36,"velocity":127,"programNumber":16},{"time":198253.29340000235,"duration":212.12123333333875,"noteNumber":36,"velocity":104,"programNumber":16},{"time":198253.29340000235,"duration":212.12123333333875,"noteNumber":46,"velocity":104,"programNumber":16},{"time":198026.02065000235,"duration":439.3939833333425,"noteNumber":49,"velocity":127,"programNumber":16},{"time":198480.56615000236,"duration":212.12123333333875,"noteNumber":46,"velocity":121,"programNumber":16},{"time":198707.83890000236,"duration":212.12123333333875,"noteNumber":36,"velocity":124,"programNumber":16},{"time":198480.56615000236,"duration":439.3939833333425,"noteNumber":38,"velocity":121,"programNumber":16},{"time":198707.83890000236,"duration":212.12123333333875,"noteNumber":46,"velocity":124,"programNumber":16},{"time":198935.11165000236,"duration":212.12123333333875,"noteNumber":46,"velocity":127,"programNumber":16},{"time":198935.11165000236,"duration":227.27275000000373,"noteNumber":36,"velocity":127,"programNumber":16},{"time":199162.38440000237,"duration":212.12123333333875,"noteNumber":36,"velocity":106,"programNumber":16},{"time":199162.38440000237,"duration":212.12123333333875,"noteNumber":46,"velocity":106,"programNumber":16},{"time":199389.65715000237,"duration":212.12123333333875,"noteNumber":46,"velocity":122,"programNumber":16},{"time":199389.65715000237,"duration":227.27275000000373,"noteNumber":38,"velocity":122,"programNumber":16},{"time":199616.92990000237,"duration":212.12123333333875,"noteNumber":38,"velocity":127,"programNumber":16},{"time":199616.92990000237,"duration":212.12123333333875,"noteNumber":46,"velocity":127,"programNumber":16},{"time":199844.20265000238,"duration":227.27275000000373,"noteNumber":36,"velocity":127,"programNumber":16},{"time":199844.20265000238,"duration":439.3939833333425,"noteNumber":49,"velocity":127,"programNumber":16},{"time":200071.47540000238,"duration":212.12123333333875,"noteNumber":36,"velocity":98,"programNumber":16},{"time":200071.47540000238,"duration":227.27275000000373,"noteNumber":46,"velocity":98,"programNumber":16},{"time":200298.7481500024,"duration":212.12123333333875,"noteNumber":46,"velocity":115,"programNumber":16},{"time":200298.7481500024,"duration":439.3939833333425,"noteNumber":38,"velocity":115,"programNumber":16},{"time":200526.0209000024,"duration":212.12123333333875,"noteNumber":46,"velocity":114,"programNumber":16},{"time":200526.0209000024,"duration":227.27275000000373,"noteNumber":36,"velocity":114,"programNumber":16},{"time":200753.2936500024,"duration":212.12123333333875,"noteNumber":36,"velocity":127,"programNumber":16},{"time":200753.2936500024,"duration":212.12123333333875,"noteNumber":46,"velocity":127,"programNumber":16},{"time":200980.5664000024,"duration":212.12123333333875,"noteNumber":36,"velocity":97,"programNumber":16},{"time":200980.5664000024,"duration":212.12123333333875,"noteNumber":46,"velocity":97,"programNumber":16},{"time":201207.8391500024,"duration":212.12123333333875,"noteNumber":46,"velocity":127,"programNumber":16},{"time":201207.8391500024,"duration":439.3939833333425,"noteNumber":38,"velocity":127,"programNumber":16},{"time":201435.1119000024,"duration":212.12123333333875,"noteNumber":46,"velocity":127,"programNumber":16},{"time":201435.1119000024,"duration":227.27275000000373,"noteNumber":36,"velocity":127,"programNumber":16},{"time":201662.3846500024,"duration":212.12123333333875,"noteNumber":36,"velocity":127,"programNumber":16},{"time":201889.6574000024,"duration":212.12123333333875,"noteNumber":36,"velocity":103,"programNumber":16},{"time":201662.3846500024,"duration":439.3939833333425,"noteNumber":49,"velocity":127,"programNumber":16},{"time":201889.6574000024,"duration":227.27275000000373,"noteNumber":46,"velocity":103,"programNumber":16},{"time":202116.93015000242,"duration":212.12123333333875,"noteNumber":46,"velocity":126,"programNumber":16},{"time":202116.93015000242,"duration":439.3939833333425,"noteNumber":38,"velocity":126,"programNumber":16},{"time":202344.20290000242,"duration":212.12123333333875,"noteNumber":46,"velocity":123,"programNumber":16},{"time":202344.20290000242,"duration":227.27275000000373,"noteNumber":36,"velocity":123,"programNumber":16},{"time":202571.47565000242,"duration":212.12123333333875,"noteNumber":36,"velocity":127,"programNumber":16},{"time":202571.47565000242,"duration":212.12123333333875,"noteNumber":46,"velocity":127,"programNumber":16},{"time":202798.74840000243,"duration":212.12123333333875,"noteNumber":36,"velocity":100,"programNumber":16},{"time":202798.74840000243,"duration":212.12123333333875,"noteNumber":46,"velocity":100,"programNumber":16},{"time":203026.02115000243,"duration":212.12123333333875,"noteNumber":46,"velocity":118,"programNumber":16},{"time":203026.02115000243,"duration":439.3939833333425,"noteNumber":38,"velocity":118,"programNumber":16},{"time":203253.29390000243,"duration":212.12123333333875,"noteNumber":46,"velocity":112,"programNumber":16},{"time":203253.29390000243,"duration":227.27275000000373,"noteNumber":36,"velocity":112,"programNumber":16},{"time":203480.56665000244,"duration":212.12123333333875,"noteNumber":36,"velocity":127,"programNumber":16},{"time":203707.83940000244,"duration":212.12123333333875,"noteNumber":36,"velocity":104,"programNumber":16},{"time":203480.56665000244,"duration":439.3939833333425,"noteNumber":49,"velocity":127,"programNumber":16},{"time":203707.83940000244,"duration":227.27275000000373,"noteNumber":46,"velocity":104,"programNumber":16},{"time":203935.11215000245,"duration":212.12123333333875,"noteNumber":46,"velocity":127,"programNumber":16},{"time":203935.11215000245,"duration":439.3939833333425,"noteNumber":38,"velocity":127,"programNumber":16},{"time":204162.38490000245,"duration":212.12123333333875,"noteNumber":46,"velocity":107,"programNumber":16},{"time":204162.38490000245,"duration":227.27275000000373,"noteNumber":36,"velocity":107,"programNumber":16},{"time":204389.65765000245,"duration":212.12123333333875,"noteNumber":36,"velocity":127,"programNumber":16},{"time":204389.65765000245,"duration":212.12123333333875,"noteNumber":46,"velocity":127,"programNumber":16},{"time":204616.93040000246,"duration":212.12123333333875,"noteNumber":36,"velocity":97,"programNumber":16},{"time":204616.93040000246,"duration":212.12123333333875,"noteNumber":46,"velocity":97,"programNumber":16},{"time":204844.20315000246,"duration":212.12123333333875,"noteNumber":46,"velocity":119,"programNumber":16},{"time":204844.20315000246,"duration":439.3939833333425,"noteNumber":38,"velocity":119,"programNumber":16},{"time":205071.47590000246,"duration":212.12123333333875,"noteNumber":46,"velocity":127,"programNumber":16},{"time":205071.47590000246,"duration":227.27275000000373,"noteNumber":36,"velocity":127,"programNumber":16},{"time":205298.74865000247,"duration":212.12123333333875,"noteNumber":36,"velocity":127,"programNumber":16},{"time":205526.02140000247,"duration":212.12123333333875,"noteNumber":36,"velocity":104,"programNumber":16},{"time":205298.74865000247,"duration":439.3939833333425,"noteNumber":49,"velocity":127,"programNumber":16},{"time":205526.02140000247,"duration":227.27275000000373,"noteNumber":46,"velocity":104,"programNumber":16},{"time":205753.29415000248,"duration":212.12123333333875,"noteNumber":46,"velocity":121,"programNumber":16},{"time":205753.29415000248,"duration":439.3939833333425,"noteNumber":38,"velocity":121,"programNumber":16},{"time":205980.56690000248,"duration":212.12123333333875,"noteNumber":46,"velocity":124,"programNumber":16},{"time":205980.56690000248,"duration":227.27275000000373,"noteNumber":36,"velocity":124,"programNumber":16},{"time":206207.83965000248,"duration":212.12123333333875,"noteNumber":36,"velocity":127,"programNumber":16},{"time":206207.83965000248,"duration":212.12123333333875,"noteNumber":46,"velocity":127,"programNumber":16},{"time":206435.1124000025,"duration":212.12123333333875,"noteNumber":36,"velocity":106,"programNumber":16},{"time":206435.1124000025,"duration":212.12123333333875,"noteNumber":46,"velocity":106,"programNumber":16},{"time":206662.3851500025,"duration":212.12123333333875,"noteNumber":46,"velocity":122,"programNumber":16},{"time":206662.3851500025,"duration":439.3939833333425,"noteNumber":38,"velocity":122,"programNumber":16},{"time":206889.6579000025,"duration":212.12123333333875,"noteNumber":46,"velocity":127,"programNumber":16},{"time":206889.6579000025,"duration":439.3939833333425,"noteNumber":36,"velocity":127,"programNumber":16},{"time":207116.9306500025,"duration":227.27275000000373,"noteNumber":45,"velocity":127,"programNumber":16},{"time":207344.2034000025,"duration":212.12123333333875,"noteNumber":45,"velocity":98,"programNumber":16},{"time":207571.4761500025,"duration":893.9394833333208,"noteNumber":42,"velocity":115,"programNumber":16},{"time":208935.1126500025,"duration":227.27275000000373,"noteNumber":45,"velocity":127,"programNumber":16},{"time":209162.3854000025,"duration":212.12123333333875,"noteNumber":45,"velocity":103,"programNumber":16},{"time":208480.5671500025,"duration":893.9394833333499,"noteNumber":42,"velocity":127,"programNumber":16},{"time":209844.2036500025,"duration":227.27275000000373,"noteNumber":45,"velocity":127,"programNumber":16},{"time":210071.47640000252,"duration":212.12123333333875,"noteNumber":45,"velocity":100,"programNumber":16},{"time":209389.6581500025,"duration":893.9394833333499,"noteNumber":42,"velocity":126,"programNumber":16},{"time":210753.29465000253,"duration":227.27275000000373,"noteNumber":45,"velocity":127,"programNumber":16},{"time":210980.56740000253,"duration":212.12123333333875,"noteNumber":45,"velocity":104,"programNumber":16},{"time":210298.74915000252,"duration":893.9394833333499,"noteNumber":42,"velocity":118,"programNumber":16},{"time":211207.84015000254,"duration":893.9394833333208,"noteNumber":42,"velocity":127,"programNumber":16},{"time":212571.47665000253,"duration":227.27275000000373,"noteNumber":45,"velocity":127,"programNumber":16},{"time":212798.74940000253,"duration":212.12123333333875,"noteNumber":45,"velocity":104,"programNumber":16},{"time":212116.93115000252,"duration":893.9394833333499,"noteNumber":42,"velocity":119,"programNumber":16},{"time":213480.56765000254,"duration":227.27275000000373,"noteNumber":45,"velocity":127,"programNumber":16},{"time":213707.84040000255,"duration":212.12123333333875,"noteNumber":45,"velocity":106,"programNumber":16},{"time":213026.02215000254,"duration":893.9394833333499,"noteNumber":42,"velocity":121,"programNumber":16},{"time":214389.65865000256,"duration":227.27275000000373,"noteNumber":45,"velocity":127,"programNumber":16},{"time":214616.93140000256,"duration":212.12123333333875,"noteNumber":45,"velocity":98,"programNumber":16},{"time":213935.11315000255,"duration":893.9394833333499,"noteNumber":42,"velocity":122,"programNumber":16},{"time":214844.20415000257,"duration":893.9394833333208,"noteNumber":42,"velocity":115,"programNumber":16},{"time":216207.84065000256,"duration":227.27275000000373,"noteNumber":45,"velocity":127,"programNumber":16},{"time":216435.11340000256,"duration":212.12123333333875,"noteNumber":45,"velocity":103,"programNumber":16},{"time":215753.29515000255,"duration":893.9394833333499,"noteNumber":42,"velocity":127,"programNumber":16},{"time":217116.93165000257,"duration":227.27275000000373,"noteNumber":45,"velocity":127,"programNumber":16},{"time":217344.20440000258,"duration":212.12123333333875,"noteNumber":45,"velocity":100,"programNumber":16},{"time":216662.38615000257,"duration":893.9394833333499,"noteNumber":42,"velocity":126,"programNumber":16},{"time":218026.0226500026,"duration":227.27275000000373,"noteNumber":45,"velocity":127,"programNumber":16},{"time":218253.2954000026,"duration":212.12123333333875,"noteNumber":45,"velocity":104,"programNumber":16},{"time":217571.47715000258,"duration":893.9394833333499,"noteNumber":42,"velocity":118,"programNumber":16},{"time":218480.5681500026,"duration":454.54550000000745,"noteNumber":42,"velocity":127,"programNumber":16},{"time":218935.1136500026,"duration":439.3939833333425,"noteNumber":42,"velocity":127,"programNumber":16},{"time":219389.6591500026,"duration":439.3939833333425,"noteNumber":42,"velocity":119,"programNumber":16},{"time":219844.20465000262,"duration":212.12123333333875,"noteNumber":47,"velocity":127,"programNumber":16},{"time":219957.84102500262,"duration":212.12123333333875,"noteNumber":45,"velocity":127,"programNumber":16},{"time":219844.20465000262,"duration":439.3939833333425,"noteNumber":38,"velocity":127,"programNumber":16},{"time":220185.11377500262,"duration":113.63637500000186,"noteNumber":43,"velocity":127,"programNumber":16},{"time":220298.75015000263,"duration":98.48485833333689,"noteNumber":43,"velocity":121,"programNumber":16},{"time":220526.02290000263,"duration":212.12123333333875,"noteNumber":43,"velocity":124,"programNumber":16},{"time":220298.75015000263,"duration":439.3939833333425,"noteNumber":38,"velocity":121,"programNumber":16},{"time":220298.75015000263,"duration":439.3939833333425,"noteNumber":36,"velocity":121,"programNumber":16},{"time":220753.29565000263,"duration":113.63637500000186,"noteNumber":43,"velocity":127,"programNumber":16},{"time":220866.93202500264,"duration":98.48485833333689,"noteNumber":43,"velocity":127,"programNumber":16},{"time":220753.29565000263,"duration":439.3939833333425,"noteNumber":38,"velocity":127,"programNumber":16},{"time":220298.75015000263,"duration":893.9394833333499,"noteNumber":42,"velocity":121,"programNumber":16},{"time":221094.20477500264,"duration":212.12123333333875,"noteNumber":43,"velocity":127,"programNumber":16},{"time":221207.84115000264,"duration":212.12123333333875,"noteNumber":41,"velocity":122,"programNumber":16},{"time":221321.47752500264,"duration":113.63637500000186,"noteNumber":43,"velocity":127,"programNumber":16},{"time":221435.11390000265,"duration":98.48485833333689,"noteNumber":43,"velocity":127,"programNumber":16},{"time":221207.84115000264,"duration":439.3939833333425,"noteNumber":38,"velocity":122,"programNumber":16},{"time":221207.84115000264,"duration":439.3939833333425,"noteNumber":36,"velocity":122,"programNumber":16},{"time":221548.75027500265,"duration":212.12123333333875,"noteNumber":41,"velocity":127,"programNumber":16},{"time":221207.84115000264,"duration":568.1818750000093,"noteNumber":42,"velocity":122,"programNumber":16},{"time":221776.02302500265,"duration":113.63637500000186,"noteNumber":42,"velocity":127,"programNumber":16},{"time":221889.65940000265,"duration":98.48485833333689,"noteNumber":42,"velocity":98,"programNumber":16},{"time":222003.29577500265,"duration":98.48485833333689,"noteNumber":42,"velocity":127,"programNumber":16},{"time":221662.38665000265,"duration":439.3939833333425,"noteNumber":38,"velocity":127,"programNumber":16},{"time":222116.93215000266,"duration":98.48485833333689,"noteNumber":42,"velocity":115,"programNumber":16},{"time":222116.93215000266,"duration":212.12123333333875,"noteNumber":38,"velocity":115,"programNumber":16},{"time":222344.20490000266,"duration":113.63637500000186,"noteNumber":42,"velocity":114,"programNumber":16},{"time":222457.84127500266,"duration":98.48485833333689,"noteNumber":42,"velocity":127,"programNumber":16},{"time":221662.38665000265,"duration":893.9394833333499,"noteNumber":57,"velocity":127,"programNumber":16},{"time":222571.47765000266,"duration":212.12123333333875,"noteNumber":36,"velocity":127,"programNumber":16},{"time":222798.75040000267,"duration":113.63637500000186,"noteNumber":42,"velocity":97,"programNumber":16},{"time":222912.38677500267,"duration":98.48485833333689,"noteNumber":42,"velocity":127,"programNumber":16},{"time":222116.93215000266,"duration":893.9394833333499,"noteNumber":49,"velocity":115,"programNumber":16},{"time":223026.02315000267,"duration":212.12123333333875,"noteNumber":38,"velocity":127,"programNumber":16},{"time":223253.29590000267,"duration":113.63637500000186,"noteNumber":42,"velocity":127,"programNumber":16},{"time":223366.93227500268,"duration":98.48485833333689,"noteNumber":42,"velocity":127,"programNumber":16},{"time":223480.56865000268,"duration":212.12123333333875,"noteNumber":36,"velocity":127,"programNumber":16},{"time":223594.20502500268,"duration":113.63637500000186,"noteNumber":42,"velocity":127,"programNumber":16},{"time":223707.84140000268,"duration":98.48485833333689,"noteNumber":42,"velocity":103,"programNumber":16},{"time":223821.47777500268,"duration":98.48485833333689,"noteNumber":42,"velocity":127,"programNumber":16},{"time":223935.1141500027,"duration":98.48485833333689,"noteNumber":42,"velocity":126,"programNumber":16},{"time":223935.1141500027,"duration":212.12123333333875,"noteNumber":38,"velocity":126,"programNumber":16},{"time":224162.3869000027,"duration":113.63637500000186,"noteNumber":42,"velocity":123,"programNumber":16},{"time":224276.0232750027,"duration":98.48485833333689,"noteNumber":42,"velocity":127,"programNumber":16},{"time":224389.6596500027,"duration":212.12123333333875,"noteNumber":36,"velocity":127,"programNumber":16},{"time":224616.9324000027,"duration":113.63637500000186,"noteNumber":42,"velocity":100,"programNumber":16},{"time":224730.5687750027,"duration":98.48485833333689,"noteNumber":42,"velocity":127,"programNumber":16},{"time":224844.2051500027,"duration":212.12123333333875,"noteNumber":38,"velocity":118,"programNumber":16},{"time":225071.4779000027,"duration":113.63637500000186,"noteNumber":38,"velocity":112,"programNumber":16},{"time":225071.4779000027,"duration":113.63637500000186,"noteNumber":42,"velocity":112,"programNumber":16},{"time":225185.1142750027,"duration":98.48485833333689,"noteNumber":38,"velocity":127,"programNumber":16},{"time":225185.1142750027,"duration":98.48485833333689,"noteNumber":42,"velocity":127,"programNumber":16},{"time":225298.7506500027,"duration":212.12123333333875,"noteNumber":36,"velocity":127,"programNumber":16},{"time":225412.3870250027,"duration":113.63637500000186,"noteNumber":42,"velocity":127,"programNumber":16},{"time":225526.0234000027,"duration":98.48485833333689,"noteNumber":42,"velocity":104,"programNumber":16},{"time":225639.6597750027,"duration":98.48485833333689,"noteNumber":42,"velocity":127,"programNumber":16},{"time":225298.7506500027,"duration":439.3939833333425,"noteNumber":49,"velocity":127,"programNumber":16},{"time":225753.29615000272,"duration":98.48485833333689,"noteNumber":42,"velocity":127,"programNumber":16},{"time":225753.29615000272,"duration":212.12123333333875,"noteNumber":38,"velocity":127,"programNumber":16},{"time":225980.56890000272,"duration":113.63637500000186,"noteNumber":42,"velocity":107,"programNumber":16},{"time":226094.20527500272,"duration":98.48485833333689,"noteNumber":42,"velocity":127,"programNumber":16},{"time":226207.84165000272,"duration":212.12123333333875,"noteNumber":36,"velocity":127,"programNumber":16},{"time":226435.11440000273,"duration":113.63637500000186,"noteNumber":42,"velocity":97,"programNumber":16},{"time":226548.75077500273,"duration":98.48485833333689,"noteNumber":42,"velocity":127,"programNumber":16},{"time":226662.38715000273,"duration":212.12123333333875,"noteNumber":38,"velocity":119,"programNumber":16},{"time":226889.65990000273,"duration":113.63637500000186,"noteNumber":42,"velocity":127,"programNumber":16},{"time":227003.29627500274,"duration":98.48485833333689,"noteNumber":42,"velocity":127,"programNumber":16},{"time":227116.93265000274,"duration":212.12123333333875,"noteNumber":36,"velocity":127,"programNumber":16},{"time":227230.56902500274,"duration":113.63637500000186,"noteNumber":42,"velocity":127,"programNumber":16},{"time":227344.20540000274,"duration":98.48485833333689,"noteNumber":42,"velocity":104,"programNumber":16},{"time":227457.84177500274,"duration":98.48485833333689,"noteNumber":42,"velocity":127,"programNumber":16},{"time":227571.47815000275,"duration":98.48485833333689,"noteNumber":42,"velocity":121,"programNumber":16},{"time":227571.47815000275,"duration":212.12123333333875,"noteNumber":38,"velocity":121,"programNumber":16},{"time":227798.75090000275,"duration":113.63637500000186,"noteNumber":42,"velocity":124,"programNumber":16},{"time":227912.38727500275,"duration":98.48485833333689,"noteNumber":42,"velocity":127,"programNumber":16},{"time":228026.02365000275,"duration":212.12123333333875,"noteNumber":36,"velocity":127,"programNumber":16},{"time":228253.29640000276,"duration":113.63637500000186,"noteNumber":42,"velocity":106,"programNumber":16},{"time":228366.93277500276,"duration":98.48485833333689,"noteNumber":42,"velocity":127,"programNumber":16},{"time":228366.93277500276,"duration":113.63637500000186,"noteNumber":38,"velocity":127,"programNumber":16},{"time":228480.56915000276,"duration":98.48485833333689,"noteNumber":38,"velocity":122,"programNumber":16},{"time":228594.20552500276,"duration":98.48485833333689,"noteNumber":38,"velocity":127,"programNumber":16},{"time":228707.84190000276,"duration":98.48485833333689,"noteNumber":38,"velocity":127,"programNumber":16},{"time":228821.47827500277,"duration":98.48485833333689,"noteNumber":38,"velocity":127,"programNumber":16},{"time":228480.56915000276,"duration":454.54550000000745,"noteNumber":36,"velocity":122,"programNumber":16},{"time":228935.11465000277,"duration":212.12123333333875,"noteNumber":36,"velocity":127,"programNumber":16},{"time":229048.75102500277,"duration":113.63637500000186,"noteNumber":42,"velocity":127,"programNumber":16},{"time":229162.38740000277,"duration":98.48485833333689,"noteNumber":42,"velocity":98,"programNumber":16},{"time":228935.11465000277,"duration":439.3939833333425,"noteNumber":49,"velocity":127,"programNumber":16},{"time":229276.02377500277,"duration":98.48485833333689,"noteNumber":42,"velocity":127,"programNumber":16},{"time":229389.66015000278,"duration":98.48485833333689,"noteNumber":42,"velocity":115,"programNumber":16},{"time":229389.66015000278,"duration":212.12123333333875,"noteNumber":38,"velocity":115,"programNumber":16},{"time":229616.93290000278,"duration":113.63637500000186,"noteNumber":42,"velocity":114,"programNumber":16},{"time":229730.56927500278,"duration":98.48485833333689,"noteNumber":42,"velocity":127,"programNumber":16},{"time":229844.20565000278,"duration":212.12123333333875,"noteNumber":36,"velocity":127,"programNumber":16},{"time":230071.4784000028,"duration":113.63637500000186,"noteNumber":42,"velocity":97,"programNumber":16},{"time":230185.1147750028,"duration":98.48485833333689,"noteNumber":42,"velocity":127,"programNumber":16},{"time":230298.7511500028,"duration":212.12123333333875,"noteNumber":38,"velocity":127,"programNumber":16},{"time":230526.0239000028,"duration":113.63637500000186,"noteNumber":42,"velocity":127,"programNumber":16},{"time":230639.6602750028,"duration":98.48485833333689,"noteNumber":42,"velocity":127,"programNumber":16},{"time":230753.2966500028,"duration":212.12123333333875,"noteNumber":36,"velocity":127,"programNumber":16},{"time":230866.9330250028,"duration":113.63637500000186,"noteNumber":42,"velocity":127,"programNumber":16},{"time":230980.5694000028,"duration":98.48485833333689,"noteNumber":42,"velocity":103,"programNumber":16},{"time":231094.2057750028,"duration":98.48485833333689,"noteNumber":42,"velocity":127,"programNumber":16},{"time":231207.8421500028,"duration":98.48485833333689,"noteNumber":42,"velocity":126,"programNumber":16},{"time":231207.8421500028,"duration":212.12123333333875,"noteNumber":38,"velocity":126,"programNumber":16},{"time":231435.1149000028,"duration":113.63637500000186,"noteNumber":42,"velocity":123,"programNumber":16},{"time":231548.7512750028,"duration":98.48485833333689,"noteNumber":42,"velocity":127,"programNumber":16},{"time":231662.3876500028,"duration":212.12123333333875,"noteNumber":36,"velocity":127,"programNumber":16},{"time":231889.66040000282,"duration":113.63637500000186,"noteNumber":42,"velocity":100,"programNumber":16},{"time":232003.29677500282,"duration":98.48485833333689,"noteNumber":42,"velocity":127,"programNumber":16},{"time":232116.93315000282,"duration":212.12123333333875,"noteNumber":38,"velocity":118,"programNumber":16},{"time":232344.20590000282,"duration":113.63637500000186,"noteNumber":42,"velocity":112,"programNumber":16},{"time":232457.84227500283,"duration":98.48485833333689,"noteNumber":42,"velocity":127,"programNumber":16},{"time":232571.47865000283,"duration":212.12123333333875,"noteNumber":36,"velocity":127,"programNumber":16},{"time":232685.11502500283,"duration":113.63637500000186,"noteNumber":42,"velocity":127,"programNumber":16},{"time":232798.75140000283,"duration":98.48485833333689,"noteNumber":42,"velocity":104,"programNumber":16},{"time":232912.38777500283,"duration":98.48485833333689,"noteNumber":42,"velocity":127,"programNumber":16},{"time":233026.02415000284,"duration":98.48485833333689,"noteNumber":42,"velocity":127,"programNumber":16},{"time":233026.02415000284,"duration":212.12123333333875,"noteNumber":38,"velocity":127,"programNumber":16},{"time":233253.29690000284,"duration":113.63637500000186,"noteNumber":42,"velocity":107,"programNumber":16},{"time":233366.93327500284,"duration":98.48485833333689,"noteNumber":42,"velocity":127,"programNumber":16},{"time":233480.56965000284,"duration":212.12123333333875,"noteNumber":36,"velocity":127,"programNumber":16},{"time":233707.84240000285,"duration":113.63637500000186,"noteNumber":42,"velocity":97,"programNumber":16},{"time":233821.47877500285,"duration":98.48485833333689,"noteNumber":42,"velocity":127,"programNumber":16},{"time":233935.11515000285,"duration":212.12123333333875,"noteNumber":38,"velocity":119,"programNumber":16},{"time":234162.38790000285,"duration":113.63637500000186,"noteNumber":42,"velocity":127,"programNumber":16},{"time":234276.02427500286,"duration":98.48485833333689,"noteNumber":42,"velocity":127,"programNumber":16},{"time":234389.66065000286,"duration":212.12123333333875,"noteNumber":36,"velocity":127,"programNumber":16},{"time":234503.29702500286,"duration":113.63637500000186,"noteNumber":42,"velocity":127,"programNumber":16},{"time":234616.93340000286,"duration":98.48485833333689,"noteNumber":42,"velocity":104,"programNumber":16},{"time":234730.56977500286,"duration":98.48485833333689,"noteNumber":42,"velocity":127,"programNumber":16},{"time":234844.20615000286,"duration":98.48485833333689,"noteNumber":42,"velocity":121,"programNumber":16},{"time":234844.20615000286,"duration":212.12123333333875,"noteNumber":38,"velocity":121,"programNumber":16},{"time":235071.47890000287,"duration":113.63637500000186,"noteNumber":42,"velocity":124,"programNumber":16},{"time":235185.11527500287,"duration":98.48485833333689,"noteNumber":42,"velocity":127,"programNumber":16},{"time":235298.75165000287,"duration":212.12123333333875,"noteNumber":36,"velocity":127,"programNumber":16},{"time":235526.02440000288,"duration":113.63637500000186,"noteNumber":42,"velocity":106,"programNumber":16},{"time":235639.66077500288,"duration":98.48485833333689,"noteNumber":42,"velocity":127,"programNumber":16},{"time":235639.66077500288,"duration":113.63637500000186,"noteNumber":38,"velocity":127,"programNumber":16},{"time":235753.29715000288,"duration":98.48485833333689,"noteNumber":38,"velocity":122,"programNumber":16},{"time":235866.93352500288,"duration":98.48485833333689,"noteNumber":38,"velocity":127,"programNumber":16},{"time":235980.56990000288,"duration":98.48485833333689,"noteNumber":38,"velocity":127,"programNumber":16},{"time":236094.20627500289,"duration":98.48485833333689,"noteNumber":38,"velocity":127,"programNumber":16},{"time":236207.8426500029,"duration":212.12123333333875,"noteNumber":36,"velocity":127,"programNumber":16},{"time":236321.4790250029,"duration":113.63637500000186,"noteNumber":42,"velocity":127,"programNumber":16},{"time":236435.1154000029,"duration":98.48485833333689,"noteNumber":42,"velocity":98,"programNumber":16},{"time":236548.7517750029,"duration":98.48485833333689,"noteNumber":42,"velocity":127,"programNumber":16},{"time":236662.3881500029,"duration":98.48485833333689,"noteNumber":42,"velocity":115,"programNumber":16},{"time":236662.3881500029,"duration":212.12123333333875,"noteNumber":38,"velocity":115,"programNumber":16},{"time":236889.6609000029,"duration":113.63637500000186,"noteNumber":42,"velocity":114,"programNumber":16},{"time":237003.2972750029,"duration":98.48485833333689,"noteNumber":42,"velocity":127,"programNumber":16},{"time":236207.8426500029,"duration":893.9394833333499,"noteNumber":49,"velocity":127,"programNumber":16},{"time":237116.9336500029,"duration":212.12123333333875,"noteNumber":36,"velocity":127,"programNumber":16},{"time":237344.2064000029,"duration":113.63637500000186,"noteNumber":42,"velocity":97,"programNumber":16},{"time":237457.8427750029,"duration":98.48485833333689,"noteNumber":42,"velocity":127,"programNumber":16},{"time":237571.4791500029,"duration":212.12123333333875,"noteNumber":38,"velocity":127,"programNumber":16},{"time":237798.7519000029,"duration":113.63637500000186,"noteNumber":42,"velocity":127,"programNumber":16},{"time":237912.38827500292,"duration":98.48485833333689,"noteNumber":42,"velocity":127,"programNumber":16},{"time":238026.02465000292,"duration":212.12123333333875,"noteNumber":36,"velocity":127,"programNumber":16},{"time":238139.66102500292,"duration":113.63637500000186,"noteNumber":42,"velocity":127,"programNumber":16},{"time":238253.29740000292,"duration":98.48485833333689,"noteNumber":42,"velocity":103,"programNumber":16},{"time":238366.93377500292,"duration":98.48485833333689,"noteNumber":42,"velocity":127,"programNumber":16},{"time":238480.57015000292,"duration":98.48485833333689,"noteNumber":42,"velocity":126,"programNumber":16},{"time":238480.57015000292,"duration":212.12123333333875,"noteNumber":38,"velocity":126,"programNumber":16},{"time":238707.84290000293,"duration":113.63637500000186,"noteNumber":42,"velocity":123,"programNumber":16},{"time":238821.47927500293,"duration":98.48485833333689,"noteNumber":42,"velocity":127,"programNumber":16},{"time":238935.11565000293,"duration":212.12123333333875,"noteNumber":36,"velocity":127,"programNumber":16},{"time":239162.38840000294,"duration":113.63637500000186,"noteNumber":42,"velocity":100,"programNumber":16},{"time":239276.02477500294,"duration":98.48485833333689,"noteNumber":42,"velocity":127,"programNumber":16},{"time":239389.66115000294,"duration":212.12123333333875,"noteNumber":38,"velocity":118,"programNumber":16},{"time":239616.93390000294,"duration":113.63637500000186,"noteNumber":42,"velocity":112,"programNumber":16},{"time":239730.57027500294,"duration":98.48485833333689,"noteNumber":42,"velocity":127,"programNumber":16},{"time":239844.20665000295,"duration":212.12123333333875,"noteNumber":36,"velocity":127,"programNumber":16},{"time":239957.84302500295,"duration":113.63637500000186,"noteNumber":42,"velocity":127,"programNumber":16},{"time":240071.47940000295,"duration":98.48485833333689,"noteNumber":42,"velocity":104,"programNumber":16},{"time":240185.11577500295,"duration":98.48485833333689,"noteNumber":42,"velocity":127,"programNumber":16},{"time":240298.75215000295,"duration":98.48485833333689,"noteNumber":42,"velocity":127,"programNumber":16},{"time":240298.75215000295,"duration":212.12123333333875,"noteNumber":38,"velocity":127,"programNumber":16},{"time":240526.02490000296,"duration":113.63637500000186,"noteNumber":42,"velocity":107,"programNumber":16},{"time":240639.66127500296,"duration":98.48485833333689,"noteNumber":42,"velocity":127,"programNumber":16},{"time":240753.29765000296,"duration":212.12123333333875,"noteNumber":36,"velocity":127,"programNumber":16},{"time":240980.57040000297,"duration":113.63637500000186,"noteNumber":42,"velocity":97,"programNumber":16},{"time":241094.20677500297,"duration":98.48485833333689,"noteNumber":42,"velocity":127,"programNumber":16},{"time":241207.84315000297,"duration":212.12123333333875,"noteNumber":38,"velocity":119,"programNumber":16},{"time":241435.11590000297,"duration":113.63637500000186,"noteNumber":42,"velocity":127,"programNumber":16},{"time":241548.75227500297,"duration":98.48485833333689,"noteNumber":42,"velocity":127,"programNumber":16},{"time":241662.38865000298,"duration":212.12123333333875,"noteNumber":36,"velocity":127,"programNumber":16},{"time":241776.02502500298,"duration":113.63637500000186,"noteNumber":42,"velocity":127,"programNumber":16},{"time":241889.66140000298,"duration":98.48485833333689,"noteNumber":42,"velocity":104,"programNumber":16},{"time":242003.29777500298,"duration":98.48485833333689,"noteNumber":42,"velocity":127,"programNumber":16},{"time":242116.93415000298,"duration":98.48485833333689,"noteNumber":42,"velocity":121,"programNumber":16},{"time":242116.93415000298,"duration":212.12123333333875,"noteNumber":38,"velocity":121,"programNumber":16},{"time":242344.206900003,"duration":113.63637500000186,"noteNumber":42,"velocity":124,"programNumber":16},{"time":242457.843275003,"duration":98.48485833333689,"noteNumber":42,"velocity":127,"programNumber":16},{"time":242571.479650003,"duration":212.12123333333875,"noteNumber":36,"velocity":127,"programNumber":16},{"time":242798.752400003,"duration":212.12123333333875,"noteNumber":42,"velocity":106,"programNumber":16},{"time":242912.388775003,"duration":113.63637500000186,"noteNumber":38,"velocity":127,"programNumber":16},{"time":243026.025150003,"duration":98.48485833333689,"noteNumber":38,"velocity":122,"programNumber":16},{"time":243139.661525003,"duration":98.48485833333689,"noteNumber":38,"velocity":127,"programNumber":16},{"time":243253.297900003,"duration":98.48485833333689,"noteNumber":38,"velocity":127,"programNumber":16},{"time":243366.934275003,"duration":98.48485833333689,"noteNumber":38,"velocity":127,"programNumber":16},{"time":243480.570650003,"duration":212.12123333333875,"noteNumber":36,"velocity":127,"programNumber":16},{"time":243594.207025003,"duration":113.63637500000186,"noteNumber":42,"velocity":127,"programNumber":16},{"time":243707.843400003,"duration":98.48485833333689,"noteNumber":42,"velocity":98,"programNumber":16},{"time":243821.479775003,"duration":98.48485833333689,"noteNumber":42,"velocity":127,"programNumber":16},{"time":243935.116150003,"duration":98.48485833333689,"noteNumber":42,"velocity":115,"programNumber":16},{"time":243935.116150003,"duration":212.12123333333875,"noteNumber":38,"velocity":115,"programNumber":16},{"time":244162.38890000302,"duration":113.63637500000186,"noteNumber":42,"velocity":114,"programNumber":16},{"time":244276.02527500302,"duration":98.48485833333689,"noteNumber":42,"velocity":127,"programNumber":16},{"time":243480.570650003,"duration":893.9394833333499,"noteNumber":49,"velocity":127,"programNumber":16},{"time":244389.66165000302,"duration":212.12123333333875,"noteNumber":36,"velocity":127,"programNumber":16},{"time":244616.93440000303,"duration":113.63637500000186,"noteNumber":42,"velocity":97,"programNumber":16},{"time":244730.57077500303,"duration":98.48485833333689,"noteNumber":42,"velocity":127,"programNumber":16},{"time":244844.20715000303,"duration":212.12123333333875,"noteNumber":38,"velocity":127,"programNumber":16},{"time":245071.47990000303,"duration":113.63637500000186,"noteNumber":42,"velocity":127,"programNumber":16},{"time":245185.11627500303,"duration":98.48485833333689,"noteNumber":42,"velocity":127,"programNumber":16},{"time":245298.75265000304,"duration":212.12123333333875,"noteNumber":36,"velocity":127,"programNumber":16},{"time":245412.38902500304,"duration":113.63637500000186,"noteNumber":42,"velocity":127,"programNumber":16},{"time":245526.02540000304,"duration":98.48485833333689,"noteNumber":42,"velocity":103,"programNumber":16},{"time":245639.66177500304,"duration":98.48485833333689,"noteNumber":42,"velocity":127,"programNumber":16},{"time":245753.29815000304,"duration":98.48485833333689,"noteNumber":42,"velocity":126,"programNumber":16},{"time":245753.29815000304,"duration":212.12123333333875,"noteNumber":38,"velocity":126,"programNumber":16},{"time":245980.57090000305,"duration":113.63637500000186,"noteNumber":42,"velocity":123,"programNumber":16},{"time":246094.20727500305,"duration":98.48485833333689,"noteNumber":42,"velocity":127,"programNumber":16},{"time":246207.84365000305,"duration":212.12123333333875,"noteNumber":36,"velocity":127,"programNumber":16},{"time":246435.11640000305,"duration":113.63637500000186,"noteNumber":42,"velocity":100,"programNumber":16},{"time":246548.75277500306,"duration":98.48485833333689,"noteNumber":42,"velocity":127,"programNumber":16},{"time":246662.38915000306,"duration":212.12123333333875,"noteNumber":38,"velocity":118,"programNumber":16},{"time":246889.66190000306,"duration":113.63637500000186,"noteNumber":42,"velocity":112,"programNumber":16},{"time":247003.29827500306,"duration":98.48485833333689,"noteNumber":42,"velocity":127,"programNumber":16},{"time":247116.93465000307,"duration":212.12123333333875,"noteNumber":36,"velocity":127,"programNumber":16},{"time":247230.57102500307,"duration":113.63637500000186,"noteNumber":42,"velocity":127,"programNumber":16},{"time":247344.20740000307,"duration":98.48485833333689,"noteNumber":42,"velocity":104,"programNumber":16},{"time":247457.84377500307,"duration":98.48485833333689,"noteNumber":42,"velocity":127,"programNumber":16},{"time":247571.48015000307,"duration":98.48485833333689,"noteNumber":42,"velocity":127,"programNumber":16},{"time":247571.48015000307,"duration":212.12123333333875,"noteNumber":38,"velocity":127,"programNumber":16},{"time":247798.75290000308,"duration":113.63637500000186,"noteNumber":42,"velocity":107,"programNumber":16},{"time":247912.38927500308,"duration":98.48485833333689,"noteNumber":42,"velocity":127,"programNumber":16},{"time":248026.02565000308,"duration":212.12123333333875,"noteNumber":36,"velocity":127,"programNumber":16},{"time":248253.29840000308,"duration":113.63637500000186,"noteNumber":42,"velocity":97,"programNumber":16},{"time":248366.9347750031,"duration":98.48485833333689,"noteNumber":42,"velocity":127,"programNumber":16},{"time":248480.5711500031,"duration":212.12123333333875,"noteNumber":38,"velocity":119,"programNumber":16},{"time":248707.8439000031,"duration":113.63637500000186,"noteNumber":42,"velocity":127,"programNumber":16},{"time":248821.4802750031,"duration":98.48485833333689,"noteNumber":42,"velocity":127,"programNumber":16},{"time":248935.1166500031,"duration":212.12123333333875,"noteNumber":36,"velocity":127,"programNumber":16},{"time":249048.7530250031,"duration":113.63637500000186,"noteNumber":42,"velocity":127,"programNumber":16},{"time":249162.3894000031,"duration":98.48485833333689,"noteNumber":42,"velocity":104,"programNumber":16},{"time":249276.0257750031,"duration":98.48485833333689,"noteNumber":42,"velocity":127,"programNumber":16},{"time":249389.6621500031,"duration":98.48485833333689,"noteNumber":42,"velocity":121,"programNumber":16},{"time":249389.6621500031,"duration":212.12123333333875,"noteNumber":38,"velocity":121,"programNumber":16},{"time":249616.9349000031,"duration":113.63637500000186,"noteNumber":42,"velocity":124,"programNumber":16},{"time":249730.5712750031,"duration":98.48485833333689,"noteNumber":42,"velocity":127,"programNumber":16},{"time":249844.2076500031,"duration":212.12123333333875,"noteNumber":36,"velocity":127,"programNumber":16},{"time":250071.4804000031,"duration":113.63637500000186,"noteNumber":42,"velocity":106,"programNumber":16},{"time":250185.11677500312,"duration":98.48485833333689,"noteNumber":42,"velocity":127,"programNumber":16},{"time":250185.11677500312,"duration":113.63637500000186,"noteNumber":38,"velocity":127,"programNumber":16},{"time":250298.75315000312,"duration":98.48485833333689,"noteNumber":38,"velocity":122,"programNumber":16},{"time":250412.38952500312,"duration":98.48485833333689,"noteNumber":38,"velocity":127,"programNumber":16},{"time":250526.02590000312,"duration":98.48485833333689,"noteNumber":38,"velocity":127,"programNumber":16},{"time":250639.66227500312,"duration":98.48485833333689,"noteNumber":38,"velocity":127,"programNumber":16},{"time":250639.66227500312,"duration":212.12123333333875,"noteNumber":42,"velocity":127,"programNumber":16},{"time":250526.02590000312,"duration":439.3939833333425,"noteNumber":57,"velocity":127,"programNumber":16},{"time":250753.29865000313,"duration":212.12123333333875,"noteNumber":36,"velocity":127,"programNumber":16},{"time":250866.93502500313,"duration":113.63637500000186,"noteNumber":42,"velocity":127,"programNumber":16},{"time":250980.57140000313,"duration":98.48485833333689,"noteNumber":42,"velocity":98,"programNumber":16},{"time":251094.20777500313,"duration":98.48485833333689,"noteNumber":42,"velocity":127,"programNumber":16},{"time":250753.29865000313,"duration":439.3939833333425,"noteNumber":49,"velocity":127,"programNumber":16},{"time":251207.84415000313,"duration":98.48485833333689,"noteNumber":42,"velocity":115,"programNumber":16},{"time":251207.84415000313,"duration":212.12123333333875,"noteNumber":38,"velocity":115,"programNumber":16},{"time":251435.11690000314,"duration":113.63637500000186,"noteNumber":42,"velocity":114,"programNumber":16},{"time":251548.75327500314,"duration":98.48485833333689,"noteNumber":42,"velocity":127,"programNumber":16},{"time":251662.38965000314,"duration":212.12123333333875,"noteNumber":36,"velocity":127,"programNumber":16},{"time":251889.66240000314,"duration":113.63637500000186,"noteNumber":42,"velocity":97,"programNumber":16},{"time":252003.29877500315,"duration":98.48485833333689,"noteNumber":42,"velocity":127,"programNumber":16},{"time":252116.93515000315,"duration":212.12123333333875,"noteNumber":38,"velocity":127,"programNumber":16},{"time":252344.20790000315,"duration":113.63637500000186,"noteNumber":42,"velocity":127,"programNumber":16},{"time":252457.84427500315,"duration":98.48485833333689,"noteNumber":42,"velocity":127,"programNumber":16},{"time":252571.48065000316,"duration":212.12123333333875,"noteNumber":36,"velocity":127,"programNumber":16},{"time":252685.11702500316,"duration":113.63637500000186,"noteNumber":42,"velocity":127,"programNumber":16},{"time":252798.75340000316,"duration":98.48485833333689,"noteNumber":42,"velocity":103,"programNumber":16},{"time":252912.38977500316,"duration":98.48485833333689,"noteNumber":42,"velocity":127,"programNumber":16},{"time":253026.02615000316,"duration":98.48485833333689,"noteNumber":42,"velocity":126,"programNumber":16},{"time":253026.02615000316,"duration":212.12123333333875,"noteNumber":38,"velocity":126,"programNumber":16},{"time":253253.29890000317,"duration":113.63637500000186,"noteNumber":42,"velocity":123,"programNumber":16},{"time":253366.93527500317,"duration":98.48485833333689,"noteNumber":42,"velocity":127,"programNumber":16},{"time":253480.57165000317,"duration":212.12123333333875,"noteNumber":36,"velocity":127,"programNumber":16},{"time":253707.84440000317,"duration":113.63637500000186,"noteNumber":42,"velocity":100,"programNumber":16},{"time":253821.48077500318,"duration":98.48485833333689,"noteNumber":42,"velocity":127,"programNumber":16},{"time":253935.11715000318,"duration":212.12123333333875,"noteNumber":38,"velocity":118,"programNumber":16},{"time":254162.38990000318,"duration":113.63637500000186,"noteNumber":42,"velocity":112,"programNumber":16},{"time":254276.02627500318,"duration":98.48485833333689,"noteNumber":42,"velocity":127,"programNumber":16},{"time":254389.66265000319,"duration":212.12123333333875,"noteNumber":36,"velocity":127,"programNumber":16},{"time":254503.2990250032,"duration":113.63637500000186,"noteNumber":42,"velocity":127,"programNumber":16},{"time":254616.9354000032,"duration":98.48485833333689,"noteNumber":42,"velocity":104,"programNumber":16},{"time":254730.5717750032,"duration":98.48485833333689,"noteNumber":42,"velocity":127,"programNumber":16},{"time":254844.2081500032,"duration":98.48485833333689,"noteNumber":42,"velocity":127,"programNumber":16},{"time":254844.2081500032,"duration":212.12123333333875,"noteNumber":38,"velocity":127,"programNumber":16},{"time":255071.4809000032,"duration":113.63637500000186,"noteNumber":42,"velocity":107,"programNumber":16},{"time":255185.1172750032,"duration":98.48485833333689,"noteNumber":42,"velocity":127,"programNumber":16},{"time":255298.7536500032,"duration":212.12123333333875,"noteNumber":36,"velocity":127,"programNumber":16},{"time":255526.0264000032,"duration":113.63637500000186,"noteNumber":42,"velocity":97,"programNumber":16},{"time":255639.6627750032,"duration":98.48485833333689,"noteNumber":42,"velocity":127,"programNumber":16},{"time":255753.2991500032,"duration":212.12123333333875,"noteNumber":38,"velocity":119,"programNumber":16},{"time":255980.5719000032,"duration":113.63637500000186,"noteNumber":42,"velocity":127,"programNumber":16},{"time":256094.2082750032,"duration":98.48485833333689,"noteNumber":42,"velocity":127,"programNumber":16},{"time":256207.84465000322,"duration":212.12123333333875,"noteNumber":36,"velocity":127,"programNumber":16},{"time":256321.48102500322,"duration":113.63637500000186,"noteNumber":42,"velocity":127,"programNumber":16},{"time":256435.11740000322,"duration":98.48485833333689,"noteNumber":42,"velocity":104,"programNumber":16},{"time":256548.75377500322,"duration":98.48485833333689,"noteNumber":42,"velocity":127,"programNumber":16},{"time":256662.39015000322,"duration":98.48485833333689,"noteNumber":42,"velocity":121,"programNumber":16},{"time":256662.39015000322,"duration":212.12123333333875,"noteNumber":38,"velocity":121,"programNumber":16},{"time":256889.66290000323,"duration":113.63637500000186,"noteNumber":42,"velocity":124,"programNumber":16},{"time":257003.29927500323,"duration":98.48485833333689,"noteNumber":42,"velocity":127,"programNumber":16},{"time":257116.93565000323,"duration":212.12123333333875,"noteNumber":36,"velocity":127,"programNumber":16},{"time":257344.20840000323,"duration":113.63637500000186,"noteNumber":42,"velocity":106,"programNumber":16},{"time":257457.84477500324,"duration":98.48485833333689,"noteNumber":42,"velocity":127,"programNumber":16},{"time":257571.48115000324,"duration":113.63637500000186,"noteNumber":38,"velocity":122,"programNumber":16},{"time":257685.11752500324,"duration":98.48485833333689,"noteNumber":38,"velocity":127,"programNumber":16},{"time":257798.75390000324,"duration":98.48485833333689,"noteNumber":38,"velocity":127,"programNumber":16},{"time":257912.39027500324,"duration":98.48485833333689,"noteNumber":38,"velocity":127,"programNumber":16},{"time":258026.02665000324,"duration":212.12123333333875,"noteNumber":49,"velocity":127,"programNumber":16},{"time":258026.02665000324,"duration":227.27275000000373,"noteNumber":36,"velocity":127,"programNumber":16},{"time":258026.02665000324,"duration":227.27275000000373,"noteNumber":42,"velocity":127,"programNumber":16},{"time":258253.29940000325,"duration":212.12123333333875,"noteNumber":36,"velocity":98,"programNumber":16},{"time":258253.29940000325,"duration":212.12123333333875,"noteNumber":42,"velocity":98,"programNumber":16},{"time":258480.57215000325,"duration":212.12123333333875,"noteNumber":42,"velocity":115,"programNumber":16},{"time":258480.57215000325,"duration":439.3939833333425,"noteNumber":38,"velocity":115,"programNumber":16},{"time":258707.84490000326,"duration":212.12123333333875,"noteNumber":42,"velocity":114,"programNumber":16},{"time":258935.11765000326,"duration":212.12123333333875,"noteNumber":42,"velocity":127,"programNumber":16},{"time":259162.39040000326,"duration":212.12123333333875,"noteNumber":42,"velocity":97,"programNumber":16},{"time":258935.11765000326,"duration":439.3939833333425,"noteNumber":36,"velocity":127,"programNumber":16},{"time":259389.66315000327,"duration":212.12123333333875,"noteNumber":42,"velocity":127,"programNumber":16},{"time":259616.93590000327,"duration":212.12123333333875,"noteNumber":42,"velocity":127,"programNumber":16},{"time":259389.66315000327,"duration":439.3939833333425,"noteNumber":38,"velocity":127,"programNumber":16},{"time":259844.20865000327,"duration":212.12123333333875,"noteNumber":42,"velocity":127,"programNumber":16},{"time":260071.48140000328,"duration":227.27275000000373,"noteNumber":42,"velocity":103,"programNumber":16},{"time":260298.75415000328,"duration":227.27275000000373,"noteNumber":42,"velocity":126,"programNumber":16},{"time":260526.0269000033,"duration":212.12123333333875,"noteNumber":42,"velocity":123,"programNumber":16},{"time":259844.20865000327,"duration":893.9394833333499,"noteNumber":36,"velocity":127,"programNumber":16},{"time":260753.2996500033,"duration":212.12123333333875,"noteNumber":42,"velocity":127,"programNumber":16},{"time":260298.75415000328,"duration":893.9394833333499,"noteNumber":38,"velocity":126,"programNumber":16},{"time":260980.5724000033,"duration":212.12123333333875,"noteNumber":42,"velocity":100,"programNumber":16},{"time":261207.8451500033,"duration":212.12123333333875,"noteNumber":42,"velocity":118,"programNumber":16},{"time":261435.1179000033,"duration":212.12123333333875,"noteNumber":42,"velocity":112,"programNumber":16},{"time":260753.2996500033,"duration":893.9394833333499,"noteNumber":36,"velocity":127,"programNumber":16},{"time":261662.3906500033,"duration":212.12123333333875,"noteNumber":42,"velocity":127,"programNumber":16},{"time":261207.8451500033,"duration":893.9394833333499,"noteNumber":38,"velocity":118,"programNumber":16},{"time":261889.6634000033,"duration":212.12123333333875,"noteNumber":42,"velocity":104,"programNumber":16},{"time":262116.9361500033,"duration":212.12123333333875,"noteNumber":42,"velocity":127,"programNumber":16},{"time":261662.3906500033,"duration":893.9394833333499,"noteNumber":49,"velocity":127,"programNumber":16},{"time":261662.3906500033,"duration":893.9394833333499,"noteNumber":36,"velocity":127,"programNumber":16},{"time":262344.20890000334,"duration":212.12123333330965,"noteNumber":42,"velocity":107,"programNumber":16},{"time":262571.48165000335,"duration":212.12123333330965,"noteNumber":42,"velocity":127,"programNumber":16},{"time":262798.75440000335,"duration":212.12123333330965,"noteNumber":42,"velocity":97,"programNumber":16},{"time":262116.9361500033,"duration":893.9394833333499,"noteNumber":38,"velocity":127,"programNumber":16},{"time":263026.02715000336,"duration":212.12123333330965,"noteNumber":42,"velocity":119,"programNumber":16},{"time":263253.29990000336,"duration":212.12123333330965,"noteNumber":42,"velocity":127,"programNumber":16},{"time":262571.48165000335,"duration":893.9394833333208,"noteNumber":36,"velocity":127,"programNumber":16},{"time":263480.57265000336,"duration":212.12123333330965,"noteNumber":42,"velocity":127,"programNumber":16},{"time":263026.02715000336,"duration":893.9394833333208,"noteNumber":38,"velocity":119,"programNumber":16},{"time":263707.84540000337,"duration":212.12123333330965,"noteNumber":42,"velocity":104,"programNumber":16},{"time":263935.11815000337,"duration":212.12123333330965,"noteNumber":42,"velocity":121,"programNumber":16},{"time":263480.57265000336,"duration":893.9394833333208,"noteNumber":36,"velocity":127,"programNumber":16},{"time":264162.3909000034,"duration":212.12123333330965,"noteNumber":42,"velocity":124,"programNumber":16},{"time":264389.6636500034,"duration":212.12123333330965,"noteNumber":42,"velocity":127,"programNumber":16},{"time":264616.9364000034,"duration":212.12123333330965,"noteNumber":42,"velocity":106,"programNumber":16},{"time":263935.11815000337,"duration":893.9394833333208,"noteNumber":38,"velocity":121,"programNumber":16},{"time":264844.2091500034,"duration":212.12123333330965,"noteNumber":42,"velocity":122,"programNumber":16},{"time":265071.4819000034,"duration":212.12123333330965,"noteNumber":42,"velocity":127,"programNumber":16},{"time":264389.6636500034,"duration":893.9394833333208,"noteNumber":36,"velocity":127,"programNumber":16},{"time":265298.7546500034,"duration":212.12123333330965,"noteNumber":42,"velocity":127,"programNumber":16},{"time":265526.0274000034,"duration":212.12123333330965,"noteNumber":42,"velocity":98,"programNumber":16},{"time":264844.2091500034,"duration":893.9394833333208,"noteNumber":38,"velocity":122,"programNumber":16},{"time":265753.3001500034,"duration":212.12123333330965,"noteNumber":42,"velocity":115,"programNumber":16},{"time":265980.5729000034,"duration":212.12123333330965,"noteNumber":42,"velocity":114,"programNumber":16},{"time":265298.7546500034,"duration":893.9394833333208,"noteNumber":36,"velocity":127,"programNumber":16},{"time":266207.8456500034,"duration":212.12123333330965,"noteNumber":42,"velocity":127,"programNumber":16},{"time":265753.3001500034,"duration":893.9394833333208,"noteNumber":38,"velocity":115,"programNumber":16},{"time":266435.1184000034,"duration":212.12123333330965,"noteNumber":42,"velocity":97,"programNumber":16},{"time":266662.3911500034,"duration":212.12123333330965,"noteNumber":42,"velocity":127,"programNumber":16},{"time":266207.8456500034,"duration":893.9394833333208,"noteNumber":36,"velocity":127,"programNumber":16},{"time":266889.6639000034,"duration":212.12123333330965,"noteNumber":42,"velocity":127,"programNumber":16},{"time":267116.9366500034,"duration":212.12123333330965,"noteNumber":42,"velocity":127,"programNumber":16},{"time":267344.2094000034,"duration":212.12123333330965,"noteNumber":42,"velocity":103,"programNumber":16},{"time":266662.3911500034,"duration":893.9394833333208,"noteNumber":38,"velocity":127,"programNumber":16},{"time":267571.48215000343,"duration":212.12123333330965,"noteNumber":42,"velocity":126,"programNumber":16},{"time":267116.9366500034,"duration":893.9394833333208,"noteNumber":36,"velocity":127,"programNumber":16},{"time":267798.75490000343,"duration":212.12123333330965,"noteNumber":42,"velocity":123,"programNumber":16},{"time":268026.02765000344,"duration":212.12123333330965,"noteNumber":42,"velocity":127,"programNumber":16},{"time":268253.30040000344,"duration":212.12123333330965,"noteNumber":42,"velocity":100,"programNumber":16},{"time":267571.48215000343,"duration":893.9394833333208,"noteNumber":38,"velocity":126,"programNumber":16},{"time":268480.57315000345,"duration":212.12123333330965,"noteNumber":42,"velocity":118,"programNumber":16},{"time":268707.84590000345,"duration":212.12123333330965,"noteNumber":42,"velocity":112,"programNumber":16},{"time":268026.02765000344,"duration":893.9394833333208,"noteNumber":36,"velocity":127,"programNumber":16},{"time":268480.57315000345,"duration":454.54550000000745,"noteNumber":38,"velocity":118,"programNumber":16},{"time":268935.11865000345,"duration":212.12123333330965,"noteNumber":38,"velocity":127,"programNumber":16},{"time":268935.11865000345,"duration":212.12123333330965,"noteNumber":42,"velocity":127,"programNumber":16},{"time":269048.75502500345,"duration":212.12123333330965,"noteNumber":36,"velocity":127,"programNumber":16},{"time":269162.39140000346,"duration":212.12123333330965,"noteNumber":38,"velocity":104,"programNumber":16},{"time":269162.39140000346,"duration":212.12123333330965,"noteNumber":42,"velocity":104,"programNumber":16},{"time":269276.02777500346,"duration":212.12123333330965,"noteNumber":36,"velocity":127,"programNumber":16},{"time":269389.66415000346,"duration":212.12123333330965,"noteNumber":42,"velocity":127,"programNumber":16},{"time":269389.66415000346,"duration":212.12123333330965,"noteNumber":38,"velocity":127,"programNumber":16},{"time":269503.30052500346,"duration":212.12123333330965,"noteNumber":36,"velocity":127,"programNumber":16},{"time":269616.93690000346,"duration":212.12123333330965,"noteNumber":42,"velocity":107,"programNumber":16},{"time":268935.11865000345,"duration":893.9394833333208,"noteNumber":49,"velocity":127,"programNumber":16},{"time":269616.93690000346,"duration":212.12123333330965,"noteNumber":38,"velocity":107,"programNumber":16},{"time":269730.57327500347,"duration":212.12123333330965,"noteNumber":36,"velocity":127,"programNumber":16},{"time":269844.20965000347,"duration":212.12123333330965,"noteNumber":42,"velocity":127,"programNumber":16},{"time":269844.20965000347,"duration":212.12123333330965,"noteNumber":38,"velocity":127,"programNumber":16},{"time":269957.84602500347,"duration":212.12123333330965,"noteNumber":36,"velocity":127,"programNumber":16},{"time":270071.4824000035,"duration":212.12123333330965,"noteNumber":42,"velocity":97,"programNumber":16},{"time":270071.4824000035,"duration":212.12123333330965,"noteNumber":38,"velocity":97,"programNumber":16},{"time":270185.1187750035,"duration":212.12123333330965,"noteNumber":36,"velocity":127,"programNumber":16},{"time":270298.7551500035,"duration":212.12123333330965,"noteNumber":42,"velocity":119,"programNumber":16},{"time":270298.7551500035,"duration":212.12123333330965,"noteNumber":38,"velocity":119,"programNumber":16},{"time":270412.3915250035,"duration":212.12123333330965,"noteNumber":36,"velocity":127,"programNumber":16},{"time":270526.0279000035,"duration":212.12123333330965,"noteNumber":42,"velocity":127,"programNumber":16},{"time":270526.0279000035,"duration":212.12123333330965,"noteNumber":38,"velocity":127,"programNumber":16},{"time":270639.6642750035,"duration":113.63637500000186,"noteNumber":36,"velocity":127,"programNumber":16},{"time":270753.3006500035,"duration":98.48485833330778,"noteNumber":36,"velocity":127,"programNumber":16},{"time":270753.3006500035,"duration":113.63637500000186,"noteNumber":43,"velocity":127,"programNumber":16},{"time":270866.9370250035,"duration":98.48485833330778,"noteNumber":43,"velocity":127,"programNumber":16},{"time":270753.3006500035,"duration":212.12123333330965,"noteNumber":42,"velocity":127,"programNumber":16},{"time":270753.3006500035,"duration":340.9091250000056,"noteNumber":38,"velocity":127,"programNumber":16},{"time":270980.5734000035,"duration":212.12123333330965,"noteNumber":42,"velocity":104,"programNumber":16},{"time":270980.5734000035,"duration":212.12123333330965,"noteNumber":41,"velocity":104,"programNumber":16},{"time":271094.2097750035,"duration":98.48485833330778,"noteNumber":38,"velocity":127,"programNumber":16},{"time":271207.8461500035,"duration":98.48485833330778,"noteNumber":38,"velocity":121,"programNumber":16},{"time":270980.5734000035,"duration":439.3939833333134,"noteNumber":36,"velocity":104,"programNumber":16},{"time":271207.8461500035,"duration":212.12123333330965,"noteNumber":42,"velocity":121,"programNumber":16},{"time":271321.4825250035,"duration":113.63637500000186,"noteNumber":38,"velocity":127,"programNumber":16},{"time":271435.1189000035,"duration":113.63637500000186,"noteNumber":38,"velocity":124,"programNumber":16},{"time":271435.1189000035,"duration":212.12123333330965,"noteNumber":43,"velocity":124,"programNumber":16},{"time":271435.1189000035,"duration":212.12123333330965,"noteNumber":42,"velocity":124,"programNumber":16},{"time":271435.1189000035,"duration":212.12123333330965,"noteNumber":36,"velocity":124,"programNumber":16},{"time":271548.7552750035,"duration":98.48485833330778,"noteNumber":38,"velocity":127,"programNumber":16},{"time":271662.3916500035,"duration":98.48485833330778,"noteNumber":38,"velocity":127,"programNumber":16},{"time":271548.7552750035,"duration":212.12123333330965,"noteNumber":41,"velocity":127,"programNumber":16},{"time":271776.0280250035,"duration":98.48485833330778,"noteNumber":38,"velocity":127,"programNumber":16},{"time":271662.3916500035,"duration":212.12123333330965,"noteNumber":36,"velocity":127,"programNumber":16},{"time":271662.3916500035,"duration":212.12123333330965,"noteNumber":42,"velocity":127,"programNumber":16},{"time":271776.0280250035,"duration":212.12123333330965,"noteNumber":41,"velocity":127,"programNumber":16},{"time":272003.3007750035,"duration":98.48485833330778,"noteNumber":38,"velocity":127,"programNumber":16},{"time":271889.6644000035,"duration":212.12123333330965,"noteNumber":43,"velocity":106,"programNumber":16},{"time":271889.6644000035,"duration":212.12123333330965,"noteNumber":42,"velocity":106,"programNumber":16},{"time":272003.3007750035,"duration":212.12123333330965,"noteNumber":41,"velocity":127,"programNumber":16},{"time":272116.9371500035,"duration":98.48485833330778,"noteNumber":38,"velocity":122,"programNumber":16},{"time":271889.6644000035,"duration":439.3939833333134,"noteNumber":36,"velocity":106,"programNumber":16},{"time":272116.9371500035,"duration":212.12123333330965,"noteNumber":42,"velocity":122,"programNumber":16},{"time":272344.2099000035,"duration":212.12123333330965,"noteNumber":42,"velocity":127,"programNumber":16},{"time":272230.5735250035,"duration":325.7576083333115,"noteNumber":38,"velocity":127,"programNumber":16},{"time":272344.2099000035,"duration":212.12123333330965,"noteNumber":36,"velocity":127,"programNumber":16},{"time":272571.4826500035,"duration":212.12123333330965,"noteNumber":36,"velocity":127,"programNumber":16},{"time":272571.4826500035,"duration":212.12123333330965,"noteNumber":42,"velocity":127,"programNumber":16},{"time":272571.4826500035,"duration":439.3939833333134,"noteNumber":49,"velocity":127,"programNumber":16},{"time":272798.7554000035,"duration":212.12123333330965,"noteNumber":42,"velocity":98,"programNumber":16},{"time":273026.0281500035,"duration":212.12123333330965,"noteNumber":42,"velocity":115,"programNumber":16},{"time":273253.3009000035,"duration":212.12123333330965,"noteNumber":42,"velocity":114,"programNumber":16},{"time":273480.5736500035,"duration":212.12123333330965,"noteNumber":42,"velocity":127,"programNumber":16},{"time":273707.84640000353,"duration":212.12123333330965,"noteNumber":42,"velocity":97,"programNumber":16},{"time":273026.0281500035,"duration":893.9394833333208,"noteNumber":38,"velocity":115,"programNumber":16},{"time":273935.11915000353,"duration":212.12123333330965,"noteNumber":42,"velocity":127,"programNumber":16},{"time":274162.39190000354,"duration":212.12123333330965,"noteNumber":42,"velocity":127,"programNumber":16},{"time":273480.5736500035,"duration":893.9394833333208,"noteNumber":36,"velocity":127,"programNumber":16},{"time":274389.66465000354,"duration":212.12123333330965,"noteNumber":42,"velocity":127,"programNumber":16},{"time":274616.93740000355,"duration":212.12123333330965,"noteNumber":42,"velocity":103,"programNumber":16},{"time":273935.11915000353,"duration":893.9394833333208,"noteNumber":38,"velocity":127,"programNumber":16},{"time":274844.21015000355,"duration":212.12123333330965,"noteNumber":42,"velocity":126,"programNumber":16},{"time":275071.48290000355,"duration":212.12123333330965,"noteNumber":42,"velocity":123,"programNumber":16},{"time":274389.66465000354,"duration":893.9394833333208,"noteNumber":36,"velocity":127,"programNumber":16},{"time":275298.75565000356,"duration":212.12123333330965,"noteNumber":42,"velocity":127,"programNumber":16},{"time":274844.21015000355,"duration":893.9394833333208,"noteNumber":38,"velocity":126,"programNumber":16},{"time":275526.02840000356,"duration":212.12123333330965,"noteNumber":42,"velocity":100,"programNumber":16},{"time":275753.30115000356,"duration":212.12123333330965,"noteNumber":42,"velocity":118,"programNumber":16},{"time":275298.75565000356,"duration":893.9394833333208,"noteNumber":36,"velocity":127,"programNumber":16},{"time":275980.57390000357,"duration":212.12123333330965,"noteNumber":42,"velocity":112,"programNumber":16},{"time":276207.8466500036,"duration":212.12123333330965,"noteNumber":42,"velocity":127,"programNumber":16},{"time":276435.1194000036,"duration":212.12123333330965,"noteNumber":42,"velocity":104,"programNumber":16},{"time":275753.30115000356,"duration":893.9394833333208,"noteNumber":38,"velocity":118,"programNumber":16},{"time":276662.3921500036,"duration":212.12123333330965,"noteNumber":42,"velocity":127,"programNumber":16},{"time":276207.8466500036,"duration":893.9394833333208,"noteNumber":36,"velocity":127,"programNumber":16},{"time":276889.6649000036,"duration":212.12123333330965,"noteNumber":42,"velocity":107,"programNumber":16},{"time":277116.9376500036,"duration":212.12123333330965,"noteNumber":42,"velocity":127,"programNumber":16},{"time":277344.2104000036,"duration":212.12123333330965,"noteNumber":42,"velocity":97,"programNumber":16},{"time":276662.3921500036,"duration":893.9394833333208,"noteNumber":38,"velocity":127,"programNumber":16},{"time":277571.4831500036,"duration":212.12123333330965,"noteNumber":42,"velocity":119,"programNumber":16},{"time":277798.7559000036,"duration":212.12123333330965,"noteNumber":42,"velocity":127,"programNumber":16},{"time":277116.9376500036,"duration":893.9394833333208,"noteNumber":36,"velocity":127,"programNumber":16},{"time":278026.0286500036,"duration":212.12123333330965,"noteNumber":42,"velocity":127,"programNumber":16},{"time":278253.3014000036,"duration":212.12123333330965,"noteNumber":42,"velocity":104,"programNumber":16},{"time":277571.4831500036,"duration":893.9394833333208,"noteNumber":38,"velocity":119,"programNumber":16},{"time":278480.5741500036,"duration":212.12123333330965,"noteNumber":42,"velocity":121,"programNumber":16},{"time":278707.8469000036,"duration":212.12123333330965,"noteNumber":42,"velocity":124,"programNumber":16},{"time":278026.0286500036,"duration":893.9394833333208,"noteNumber":36,"velocity":127,"programNumber":16},{"time":278935.1196500036,"duration":212.12123333330965,"noteNumber":42,"velocity":127,"programNumber":16},{"time":279162.3924000036,"duration":212.12123333330965,"noteNumber":42,"velocity":106,"programNumber":16},{"time":278480.5741500036,"duration":893.9394833333208,"noteNumber":38,"velocity":121,"programNumber":16},{"time":279389.6651500036,"duration":212.12123333330965,"noteNumber":42,"velocity":122,"programNumber":16},{"time":279616.9379000036,"duration":212.12123333330965,"noteNumber":42,"velocity":127,"programNumber":16},{"time":278935.1196500036,"duration":893.9394833333208,"noteNumber":36,"velocity":127,"programNumber":16},{"time":279844.21065000363,"duration":212.12123333330965,"noteNumber":42,"velocity":127,"programNumber":16},{"time":280071.48340000364,"duration":212.12123333330965,"noteNumber":42,"velocity":98,"programNumber":16},{"time":279389.6651500036,"duration":893.9394833333208,"noteNumber":38,"velocity":122,"programNumber":16},{"time":280298.75615000364,"duration":212.12123333330965,"noteNumber":42,"velocity":115,"programNumber":16},{"time":280526.02890000364,"duration":212.12123333330965,"noteNumber":42,"velocity":114,"programNumber":16},{"time":279844.21065000363,"duration":893.9394833333208,"noteNumber":36,"velocity":127,"programNumber":16},{"time":280753.30165000365,"duration":212.12123333330965,"noteNumber":42,"velocity":127,"programNumber":16},{"time":280298.75615000364,"duration":893.9394833333208,"noteNumber":38,"velocity":115,"programNumber":16},{"time":280980.57440000365,"duration":212.12123333330965,"noteNumber":42,"velocity":97,"programNumber":16},{"time":281207.84715000365,"duration":212.12123333330965,"noteNumber":42,"velocity":127,"programNumber":16},{"time":280753.30165000365,"duration":893.9394833333208,"noteNumber":36,"velocity":127,"programNumber":16},{"time":281435.11990000366,"duration":212.12123333330965,"noteNumber":42,"velocity":127,"programNumber":16},{"time":281662.39265000366,"duration":212.12123333330965,"noteNumber":42,"velocity":127,"programNumber":16},{"time":281889.66540000367,"duration":212.12123333330965,"noteNumber":42,"velocity":103,"programNumber":16},{"time":281207.84715000365,"duration":893.9394833333208,"noteNumber":38,"velocity":127,"programNumber":16},{"time":282116.93815000367,"duration":212.12123333330965,"noteNumber":42,"velocity":126,"programNumber":16},{"time":281662.39265000366,"duration":893.9394833333208,"noteNumber":36,"velocity":127,"programNumber":16},{"time":282344.2109000037,"duration":212.12123333330965,"noteNumber":42,"velocity":123,"programNumber":16},{"time":282571.4836500037,"duration":212.12123333330965,"noteNumber":42,"velocity":127,"programNumber":16},{"time":282798.7564000037,"duration":212.12123333330965,"noteNumber":42,"velocity":100,"programNumber":16},{"time":282116.93815000367,"duration":893.9394833333208,"noteNumber":38,"velocity":126,"programNumber":16},{"time":283026.0291500037,"duration":212.12123333330965,"noteNumber":42,"velocity":118,"programNumber":16},{"time":283253.3019000037,"duration":212.12123333330965,"noteNumber":42,"velocity":112,"programNumber":16},{"time":282571.4836500037,"duration":893.9394833333208,"noteNumber":36,"velocity":127,"programNumber":16},{"time":283480.5746500037,"duration":113.63637500000186,"noteNumber":45,"velocity":127,"programNumber":16},{"time":283594.2110250037,"duration":113.63637500000186,"noteNumber":45,"velocity":127,"programNumber":16},{"time":283707.8474000037,"duration":98.48485833330778,"noteNumber":45,"velocity":104,"programNumber":16},{"time":283026.0291500037,"duration":893.9394833333208,"noteNumber":38,"velocity":118,"programNumber":16},{"time":283707.8474000037,"duration":212.12123333330965,"noteNumber":43,"velocity":104,"programNumber":16},{"time":283480.5746500037,"duration":454.54550000000745,"noteNumber":36,"velocity":127,"programNumber":16},{"time":283935.1201500037,"duration":113.63637500000186,"noteNumber":45,"velocity":127,"programNumber":16},{"time":284048.7565250037,"duration":98.48485833330778,"noteNumber":45,"velocity":127,"programNumber":16},{"time":283935.1201500037,"duration":439.3939833333134,"noteNumber":36,"velocity":127,"programNumber":16},{"time":284162.3929000037,"duration":212.12123333330965,"noteNumber":41,"velocity":107,"programNumber":16},{"time":284389.6656500037,"duration":113.63637500000186,"noteNumber":45,"velocity":127,"programNumber":16},{"time":284503.3020250037,"duration":98.48485833330778,"noteNumber":45,"velocity":127,"programNumber":16},{"time":283935.1201500037,"duration":893.9394833333208,"noteNumber":42,"velocity":127,"programNumber":16},{"time":284616.9384000037,"duration":212.12123333330965,"noteNumber":43,"velocity":97,"programNumber":16},{"time":284389.6656500037,"duration":439.3939833333134,"noteNumber":36,"velocity":127,"programNumber":16},{"time":284844.2111500037,"duration":113.63637500000186,"noteNumber":45,"velocity":119,"programNumber":16},{"time":284957.8475250037,"duration":98.48485833330778,"noteNumber":45,"velocity":127,"programNumber":16},{"time":285071.4839000037,"duration":212.12123333330965,"noteNumber":43,"velocity":127,"programNumber":16},{"time":284844.2111500037,"duration":439.3939833333134,"noteNumber":36,"velocity":119,"programNumber":16},{"time":285298.7566500037,"duration":113.63637500000186,"noteNumber":45,"velocity":127,"programNumber":16},{"time":285412.3930250037,"duration":113.63637500000186,"noteNumber":45,"velocity":127,"programNumber":16},{"time":285526.0294000037,"duration":98.48485833330778,"noteNumber":45,"velocity":104,"programNumber":16},{"time":284844.2111500037,"duration":893.9394833333208,"noteNumber":42,"velocity":119,"programNumber":16},{"time":285298.7566500037,"duration":439.3939833333134,"noteNumber":36,"velocity":127,"programNumber":16},{"time":285526.0294000037,"duration":212.12123333330965,"noteNumber":43,"velocity":104,"programNumber":16},{"time":285753.3021500037,"duration":113.63637500000186,"noteNumber":45,"velocity":121,"programNumber":16},{"time":285866.93852500373,"duration":98.48485833330778,"noteNumber":45,"velocity":127,"programNumber":16},{"time":285753.3021500037,"duration":439.3939833333134,"noteNumber":36,"velocity":121,"programNumber":16},{"time":285980.57490000373,"duration":212.12123333330965,"noteNumber":43,"velocity":124,"programNumber":16},{"time":286207.84765000374,"duration":113.63637500000186,"noteNumber":45,"velocity":127,"programNumber":16},{"time":286321.48402500374,"duration":113.63637500000186,"noteNumber":45,"velocity":127,"programNumber":16},{"time":286435.12040000374,"duration":98.48485833330778,"noteNumber":45,"velocity":106,"programNumber":16},{"time":286207.84765000374,"duration":439.3939833333134,"noteNumber":36,"velocity":127,"programNumber":16},{"time":285753.3021500037,"duration":893.9394833333208,"noteNumber":42,"velocity":121,"programNumber":16},{"time":286435.12040000374,"duration":212.12123333330965,"noteNumber":43,"velocity":106,"programNumber":16},{"time":286662.39315000374,"duration":113.63637500000186,"noteNumber":45,"velocity":122,"programNumber":16},{"time":286776.02952500375,"duration":98.48485833330778,"noteNumber":45,"velocity":127,"programNumber":16},{"time":286662.39315000374,"duration":439.3939833333134,"noteNumber":36,"velocity":122,"programNumber":16},{"time":286889.66590000375,"duration":212.12123333330965,"noteNumber":43,"velocity":127,"programNumber":16},{"time":287116.93865000375,"duration":113.63637500000186,"noteNumber":45,"velocity":127,"programNumber":16},{"time":287230.57502500375,"duration":113.63637500000186,"noteNumber":45,"velocity":127,"programNumber":16},{"time":287344.21140000375,"duration":98.48485833330778,"noteNumber":45,"velocity":98,"programNumber":16},{"time":287116.93865000375,"duration":439.3939833333134,"noteNumber":36,"velocity":127,"programNumber":16},{"time":286662.39315000374,"duration":893.9394833333208,"noteNumber":42,"velocity":122,"programNumber":16},{"time":287344.21140000375,"duration":212.12123333330965,"noteNumber":43,"velocity":98,"programNumber":16},{"time":287571.48415000376,"duration":113.63637500000186,"noteNumber":45,"velocity":115,"programNumber":16},{"time":287685.12052500376,"duration":98.48485833330778,"noteNumber":45,"velocity":127,"programNumber":16},{"time":287571.48415000376,"duration":439.3939833333134,"noteNumber":36,"velocity":115,"programNumber":16},{"time":287798.75690000376,"duration":212.12123333330965,"noteNumber":43,"velocity":114,"programNumber":16},{"time":288026.02965000377,"duration":113.63637500000186,"noteNumber":45,"velocity":127,"programNumber":16},{"time":288139.66602500377,"duration":98.48485833330778,"noteNumber":45,"velocity":127,"programNumber":16},{"time":287571.48415000376,"duration":893.9394833333208,"noteNumber":42,"velocity":115,"programNumber":16},{"time":288253.30240000377,"duration":212.12123333330965,"noteNumber":43,"velocity":97,"programNumber":16},{"time":288026.02965000377,"duration":439.3939833333134,"noteNumber":36,"velocity":127,"programNumber":16},{"time":288480.5751500038,"duration":113.63637500000186,"noteNumber":45,"velocity":127,"programNumber":16},{"time":288594.2115250038,"duration":98.48485833330778,"noteNumber":45,"velocity":127,"programNumber":16},{"time":288707.8479000038,"duration":212.12123333330965,"noteNumber":43,"velocity":127,"programNumber":16},{"time":288480.5751500038,"duration":439.3939833333134,"noteNumber":36,"velocity":127,"programNumber":16},{"time":288935.1206500038,"duration":113.63637500000186,"noteNumber":45,"velocity":127,"programNumber":16},{"time":289048.7570250038,"duration":113.63637500000186,"noteNumber":45,"velocity":127,"programNumber":16},{"time":289162.3934000038,"duration":98.48485833330778,"noteNumber":45,"velocity":103,"programNumber":16},{"time":288480.5751500038,"duration":893.9394833333208,"noteNumber":42,"velocity":127,"programNumber":16},{"time":288935.1206500038,"duration":439.3939833333134,"noteNumber":36,"velocity":127,"programNumber":16},{"time":289162.3934000038,"duration":212.12123333330965,"noteNumber":43,"velocity":103,"programNumber":16},{"time":289389.6661500038,"duration":113.63637500000186,"noteNumber":45,"velocity":126,"programNumber":16},{"time":289503.3025250038,"duration":98.48485833330778,"noteNumber":45,"velocity":127,"programNumber":16},{"time":289389.6661500038,"duration":439.3939833333134,"noteNumber":36,"velocity":126,"programNumber":16},{"time":289616.9389000038,"duration":212.12123333330965,"noteNumber":43,"velocity":123,"programNumber":16},{"time":289844.2116500038,"duration":113.63637500000186,"noteNumber":45,"velocity":127,"programNumber":16},{"time":289957.8480250038,"duration":113.63637500000186,"noteNumber":45,"velocity":127,"programNumber":16},{"time":290071.4844000038,"duration":98.48485833330778,"noteNumber":45,"velocity":100,"programNumber":16},{"time":289844.2116500038,"duration":439.3939833333134,"noteNumber":36,"velocity":127,"programNumber":16},{"time":289389.6661500038,"duration":893.9394833333208,"noteNumber":42,"velocity":126,"programNumber":16},{"time":290071.4844000038,"duration":212.12123333330965,"noteNumber":43,"velocity":100,"programNumber":16},{"time":290298.7571500038,"duration":113.63637500000186,"noteNumber":45,"velocity":118,"programNumber":16},{"time":290412.3935250038,"duration":98.48485833330778,"noteNumber":45,"velocity":127,"programNumber":16},{"time":290298.7571500038,"duration":439.3939833333134,"noteNumber":36,"velocity":118,"programNumber":16},{"time":290526.0299000038,"duration":212.12123333330965,"noteNumber":43,"velocity":112,"programNumber":16},{"time":290753.3026500038,"duration":113.63637500000186,"noteNumber":45,"velocity":127,"programNumber":16},{"time":290866.9390250038,"duration":113.63637500000186,"noteNumber":45,"velocity":127,"programNumber":16},{"time":290980.5754000038,"duration":98.48485833330778,"noteNumber":45,"velocity":104,"programNumber":16},{"time":290753.3026500038,"duration":439.3939833333134,"noteNumber":36,"velocity":127,"programNumber":16},{"time":290298.7571500038,"duration":893.9394833333208,"noteNumber":42,"velocity":118,"programNumber":16},{"time":290980.5754000038,"duration":212.12123333330965,"noteNumber":43,"velocity":104,"programNumber":16},{"time":291207.8481500038,"duration":113.63637500000186,"noteNumber":45,"velocity":127,"programNumber":16},{"time":291321.4845250038,"duration":98.48485833330778,"noteNumber":45,"velocity":127,"programNumber":16},{"time":291207.8481500038,"duration":439.3939833333134,"noteNumber":36,"velocity":127,"programNumber":16},{"time":291435.1209000038,"duration":212.12123333330965,"noteNumber":41,"velocity":107,"programNumber":16},{"time":291662.3936500038,"duration":113.63637500000186,"noteNumber":45,"velocity":127,"programNumber":16},{"time":291776.0300250038,"duration":98.48485833330778,"noteNumber":45,"velocity":127,"programNumber":16},{"time":291207.8481500038,"duration":893.9394833333208,"noteNumber":42,"velocity":127,"programNumber":16},{"time":291889.6664000038,"duration":212.12123333330965,"noteNumber":43,"velocity":97,"programNumber":16},{"time":291662.3936500038,"duration":439.3939833333134,"noteNumber":36,"velocity":127,"programNumber":16},{"time":292116.93915000383,"duration":113.63637500000186,"noteNumber":45,"velocity":119,"programNumber":16},{"time":292230.57552500383,"duration":98.48485833330778,"noteNumber":45,"velocity":127,"programNumber":16},{"time":292344.21190000384,"duration":212.12123333330965,"noteNumber":43,"velocity":127,"programNumber":16},{"time":292116.93915000383,"duration":439.3939833333134,"noteNumber":36,"velocity":119,"programNumber":16},{"time":292571.48465000384,"duration":113.63637500000186,"noteNumber":45,"velocity":127,"programNumber":16},{"time":292685.12102500384,"duration":113.63637500000186,"noteNumber":45,"velocity":127,"programNumber":16},{"time":292798.75740000384,"duration":98.48485833330778,"noteNumber":45,"velocity":104,"programNumber":16},{"time":292116.93915000383,"duration":893.9394833333208,"noteNumber":42,"velocity":119,"programNumber":16},{"time":292571.48465000384,"duration":439.3939833333134,"noteNumber":36,"velocity":127,"programNumber":16},{"time":292798.75740000384,"duration":212.12123333330965,"noteNumber":43,"velocity":104,"programNumber":16},{"time":293026.03015000385,"duration":113.63637500000186,"noteNumber":45,"velocity":121,"programNumber":16},{"time":293139.66652500385,"duration":98.48485833330778,"noteNumber":45,"velocity":127,"programNumber":16},{"time":293026.03015000385,"duration":439.3939833333134,"noteNumber":36,"velocity":121,"programNumber":16},{"time":293253.30290000385,"duration":212.12123333330965,"noteNumber":43,"velocity":124,"programNumber":16},{"time":293480.57565000386,"duration":113.63637500000186,"noteNumber":45,"velocity":127,"programNumber":16},{"time":293594.21202500386,"duration":113.63637500000186,"noteNumber":45,"velocity":127,"programNumber":16},{"time":293707.84840000386,"duration":98.48485833330778,"noteNumber":45,"velocity":106,"programNumber":16},{"time":293480.57565000386,"duration":439.3939833333134,"noteNumber":36,"velocity":127,"programNumber":16},{"time":293026.03015000385,"duration":893.9394833333208,"noteNumber":42,"velocity":121,"programNumber":16},{"time":293707.84840000386,"duration":212.12123333330965,"noteNumber":43,"velocity":106,"programNumber":16},{"time":293935.12115000386,"duration":113.63637500000186,"noteNumber":45,"velocity":122,"programNumber":16},{"time":294048.75752500386,"duration":98.48485833330778,"noteNumber":45,"velocity":127,"programNumber":16},{"time":293935.12115000386,"duration":439.3939833333134,"noteNumber":36,"velocity":122,"programNumber":16},{"time":294162.39390000387,"duration":212.12123333330965,"noteNumber":43,"velocity":127,"programNumber":16},{"time":294389.66665000387,"duration":113.63637500000186,"noteNumber":45,"velocity":127,"programNumber":16},{"time":294503.3030250039,"duration":113.63637500000186,"noteNumber":45,"velocity":127,"programNumber":16},{"time":294616.9394000039,"duration":98.48485833330778,"noteNumber":45,"velocity":98,"programNumber":16},{"time":294389.66665000387,"duration":439.3939833333134,"noteNumber":36,"velocity":127,"programNumber":16},{"time":293935.12115000386,"duration":893.9394833333208,"noteNumber":42,"velocity":122,"programNumber":16},{"time":294616.9394000039,"duration":212.12123333330965,"noteNumber":43,"velocity":98,"programNumber":16},{"time":294844.2121500039,"duration":113.63637500000186,"noteNumber":45,"velocity":115,"programNumber":16},{"time":294957.8485250039,"duration":98.48485833330778,"noteNumber":45,"velocity":127,"programNumber":16},{"time":294844.2121500039,"duration":439.3939833333134,"noteNumber":36,"velocity":115,"programNumber":16},{"time":295071.4849000039,"duration":212.12123333330965,"noteNumber":43,"velocity":114,"programNumber":16},{"time":295298.7576500039,"duration":113.63637500000186,"noteNumber":45,"velocity":127,"programNumber":16},{"time":295412.3940250039,"duration":98.48485833330778,"noteNumber":45,"velocity":127,"programNumber":16},{"time":294844.2121500039,"duration":893.9394833333208,"noteNumber":42,"velocity":115,"programNumber":16},{"time":295526.0304000039,"duration":212.12123333330965,"noteNumber":43,"velocity":97,"programNumber":16},{"time":295298.7576500039,"duration":439.3939833333134,"noteNumber":36,"velocity":127,"programNumber":16},{"time":295753.3031500039,"duration":113.63637500000186,"noteNumber":45,"velocity":127,"programNumber":16},{"time":295866.9395250039,"duration":98.48485833330778,"noteNumber":45,"velocity":127,"programNumber":16},{"time":295980.5759000039,"duration":212.12123333330965,"noteNumber":43,"velocity":127,"programNumber":16},{"time":295753.3031500039,"duration":439.3939833333134,"noteNumber":36,"velocity":127,"programNumber":16},{"time":296207.8486500039,"duration":113.63637500000186,"noteNumber":45,"velocity":127,"programNumber":16},{"time":296321.4850250039,"duration":113.63637500000186,"noteNumber":45,"velocity":127,"programNumber":16},{"time":296435.1214000039,"duration":98.48485833330778,"noteNumber":45,"velocity":103,"programNumber":16},{"time":295753.3031500039,"duration":893.9394833333208,"noteNumber":42,"velocity":127,"programNumber":16},{"time":296207.8486500039,"duration":439.3939833333134,"noteNumber":36,"velocity":127,"programNumber":16},{"time":296435.1214000039,"duration":212.12123333330965,"noteNumber":43,"velocity":103,"programNumber":16},{"time":296662.3941500039,"duration":113.63637500000186,"noteNumber":45,"velocity":126,"programNumber":16},{"time":296776.0305250039,"duration":98.48485833330778,"noteNumber":45,"velocity":127,"programNumber":16},{"time":296662.3941500039,"duration":439.3939833333134,"noteNumber":36,"velocity":126,"programNumber":16},{"time":296889.6669000039,"duration":212.12123333330965,"noteNumber":43,"velocity":123,"programNumber":16},{"time":297116.9396500039,"duration":113.63637500000186,"noteNumber":45,"velocity":127,"programNumber":16},{"time":297230.5760250039,"duration":98.48485833330778,"noteNumber":45,"velocity":127,"programNumber":16},{"time":296662.3941500039,"duration":893.9394833333208,"noteNumber":42,"velocity":126,"programNumber":16},{"time":297344.2124000039,"duration":212.12123333330965,"noteNumber":43,"velocity":100,"programNumber":16},{"time":297116.9396500039,"duration":439.3939833333134,"noteNumber":36,"velocity":127,"programNumber":16},{"time":297571.4851500039,"duration":113.63637500000186,"noteNumber":45,"velocity":118,"programNumber":16},{"time":297685.1215250039,"duration":98.48485833330778,"noteNumber":45,"velocity":127,"programNumber":16},{"time":297798.7579000039,"duration":212.12123333330965,"noteNumber":43,"velocity":112,"programNumber":16},{"time":297571.4851500039,"duration":439.3939833333134,"noteNumber":36,"velocity":118,"programNumber":16},{"time":298026.03065000393,"duration":113.63637500000186,"noteNumber":45,"velocity":127,"programNumber":16},{"time":298139.66702500393,"duration":113.63637500000186,"noteNumber":45,"velocity":127,"programNumber":16},{"time":298253.30340000393,"duration":98.48485833330778,"noteNumber":45,"velocity":104,"programNumber":16},{"time":297571.4851500039,"duration":893.9394833333208,"noteNumber":42,"velocity":118,"programNumber":16},{"time":298026.03065000393,"duration":439.3939833333134,"noteNumber":36,"velocity":127,"programNumber":16},{"time":298253.30340000393,"duration":212.12123333330965,"noteNumber":43,"velocity":104,"programNumber":16},{"time":298480.57615000394,"duration":113.63637500000186,"noteNumber":45,"velocity":127,"programNumber":16},{"time":298594.21252500394,"duration":98.48485833330778,"noteNumber":45,"velocity":127,"programNumber":16},{"time":298480.57615000394,"duration":439.3939833333134,"noteNumber":36,"velocity":127,"programNumber":16},{"time":298707.84890000394,"duration":212.12123333330965,"noteNumber":41,"velocity":107,"programNumber":16},{"time":298935.12165000394,"duration":113.63637500000186,"noteNumber":45,"velocity":127,"programNumber":16},{"time":299048.75802500395,"duration":98.48485833330778,"noteNumber":45,"velocity":127,"programNumber":16},{"time":298480.57615000394,"duration":893.9394833333208,"noteNumber":42,"velocity":127,"programNumber":16},{"time":299162.39440000395,"duration":212.12123333330965,"noteNumber":43,"velocity":97,"programNumber":16},{"time":298935.12165000394,"duration":439.3939833333134,"noteNumber":36,"velocity":127,"programNumber":16},{"time":299389.66715000395,"duration":113.63637500000186,"noteNumber":45,"velocity":119,"programNumber":16},{"time":299503.30352500395,"duration":98.48485833330778,"noteNumber":45,"velocity":127,"programNumber":16},{"time":299616.93990000396,"duration":212.12123333330965,"noteNumber":43,"velocity":127,"programNumber":16},{"time":299389.66715000395,"duration":439.3939833333134,"noteNumber":36,"velocity":119,"programNumber":16},{"time":299844.21265000396,"duration":113.63637500000186,"noteNumber":45,"velocity":127,"programNumber":16},{"time":299957.84902500396,"duration":113.63637500000186,"noteNumber":45,"velocity":127,"programNumber":16},{"time":300071.48540000396,"duration":98.48485833330778,"noteNumber":45,"velocity":104,"programNumber":16},{"time":299389.66715000395,"duration":893.9394833333208,"noteNumber":42,"velocity":119,"programNumber":16},{"time":299844.21265000396,"duration":439.3939833333134,"noteNumber":36,"velocity":127,"programNumber":16},{"time":300071.48540000396,"duration":212.12123333330965,"noteNumber":43,"velocity":104,"programNumber":16},{"time":300298.75815000397,"duration":113.63637500000186,"noteNumber":45,"velocity":121,"programNumber":16},{"time":300412.39452500397,"duration":98.48485833330778,"noteNumber":45,"velocity":127,"programNumber":16},{"time":300298.75815000397,"duration":439.3939833333134,"noteNumber":36,"velocity":121,"programNumber":16},{"time":300526.03090000397,"duration":212.12123333330965,"noteNumber":43,"velocity":124,"programNumber":16},{"time":300753.303650004,"duration":113.63637500000186,"noteNumber":45,"velocity":127,"programNumber":16},{"time":300866.940025004,"duration":113.63637500000186,"noteNumber":45,"velocity":127,"programNumber":16},{"time":300980.576400004,"duration":98.48485833330778,"noteNumber":45,"velocity":106,"programNumber":16},{"time":300753.303650004,"duration":439.3939833333134,"noteNumber":36,"velocity":127,"programNumber":16},{"time":300298.75815000397,"duration":893.9394833333208,"noteNumber":42,"velocity":121,"programNumber":16},{"time":300980.576400004,"duration":212.12123333330965,"noteNumber":43,"velocity":106,"programNumber":16},{"time":301207.849150004,"duration":113.63637500000186,"noteNumber":45,"velocity":122,"programNumber":16},{"time":301321.485525004,"duration":98.48485833330778,"noteNumber":45,"velocity":127,"programNumber":16},{"time":301207.849150004,"duration":439.3939833333134,"noteNumber":36,"velocity":122,"programNumber":16},{"time":301435.121900004,"duration":212.12123333330965,"noteNumber":43,"velocity":127,"programNumber":16},{"time":301662.394650004,"duration":113.63637500000186,"noteNumber":45,"velocity":127,"programNumber":16},{"time":301776.031025004,"duration":113.63637500000186,"noteNumber":45,"velocity":127,"programNumber":16},{"time":301889.667400004,"duration":98.48485833330778,"noteNumber":45,"velocity":98,"programNumber":16},{"time":301662.394650004,"duration":439.3939833333134,"noteNumber":36,"velocity":127,"programNumber":16},{"time":301207.849150004,"duration":893.9394833333208,"noteNumber":42,"velocity":122,"programNumber":16},{"time":301889.667400004,"duration":212.12123333330965,"noteNumber":43,"velocity":98,"programNumber":16},{"time":302116.940150004,"duration":113.63637500000186,"noteNumber":45,"velocity":115,"programNumber":16},{"time":302230.576525004,"duration":98.48485833330778,"noteNumber":45,"velocity":127,"programNumber":16},{"time":302116.940150004,"duration":439.3939833333134,"noteNumber":36,"velocity":115,"programNumber":16},{"time":302344.212900004,"duration":212.12123333330965,"noteNumber":43,"velocity":114,"programNumber":16},{"time":302571.485650004,"duration":113.63637500000186,"noteNumber":45,"velocity":127,"programNumber":16},{"time":302685.122025004,"duration":98.48485833330778,"noteNumber":45,"velocity":125,"programNumber":16},{"time":302116.940150004,"duration":893.9394833333208,"noteNumber":42,"velocity":115,"programNumber":16},{"time":302798.758400004,"duration":212.12123333330965,"noteNumber":43,"velocity":97,"programNumber":16},{"time":302571.485650004,"duration":439.3939833333134,"noteNumber":36,"velocity":127,"programNumber":16},{"time":303026.031150004,"duration":113.63637500000186,"noteNumber":45,"velocity":127,"programNumber":16},{"time":303139.667525004,"duration":98.48485833330778,"noteNumber":45,"velocity":122,"programNumber":16},{"time":303253.303900004,"duration":212.12123333330965,"noteNumber":43,"velocity":127,"programNumber":16},{"time":303026.031150004,"duration":439.3939833333134,"noteNumber":36,"velocity":127,"programNumber":16},{"time":303480.576650004,"duration":113.63637500000186,"noteNumber":45,"velocity":127,"programNumber":16},{"time":303594.213025004,"duration":113.63637500000186,"noteNumber":45,"velocity":120,"programNumber":16},{"time":303707.849400004,"duration":98.48485833330778,"noteNumber":45,"velocity":103,"programNumber":16},{"time":303026.031150004,"duration":893.9394833333208,"noteNumber":42,"velocity":127,"programNumber":16},{"time":303480.576650004,"duration":439.3939833333134,"noteNumber":36,"velocity":127,"programNumber":16},{"time":303707.849400004,"duration":212.12123333330965,"noteNumber":43,"velocity":103,"programNumber":16},{"time":303935.122150004,"duration":113.63637500000186,"noteNumber":45,"velocity":126,"programNumber":16},{"time":304048.758525004,"duration":98.48485833330778,"noteNumber":45,"velocity":117,"programNumber":16},{"time":303935.122150004,"duration":439.3939833333134,"noteNumber":36,"velocity":126,"programNumber":16},{"time":304162.39490000403,"duration":212.12123333330965,"noteNumber":43,"velocity":123,"programNumber":16},{"time":304389.66765000403,"duration":113.63637500000186,"noteNumber":45,"velocity":127,"programNumber":16},{"time":304503.30402500404,"duration":113.63637500000186,"noteNumber":45,"velocity":114,"programNumber":16},{"time":304616.94040000404,"duration":98.48485833330778,"noteNumber":45,"velocity":100,"programNumber":16},{"time":304389.66765000403,"duration":439.3939833333134,"noteNumber":36,"velocity":127,"programNumber":16},{"time":303935.122150004,"duration":893.9394833333208,"noteNumber":42,"velocity":126,"programNumber":16},{"time":304616.94040000404,"duration":212.12123333330965,"noteNumber":43,"velocity":100,"programNumber":16},{"time":304844.21315000404,"duration":113.63637500000186,"noteNumber":45,"velocity":118,"programNumber":16},{"time":304957.84952500404,"duration":98.48485833330778,"noteNumber":45,"velocity":113,"programNumber":16},{"time":304844.21315000404,"duration":439.3939833333134,"noteNumber":36,"velocity":118,"programNumber":16},{"time":305071.48590000405,"duration":212.12123333330965,"noteNumber":43,"velocity":112,"programNumber":16},{"time":305298.75865000405,"duration":113.63637500000186,"noteNumber":45,"velocity":127,"programNumber":16},{"time":305412.39502500405,"duration":113.63637500000186,"noteNumber":45,"velocity":110,"programNumber":16},{"time":305526.03140000405,"duration":98.48485833330778,"noteNumber":45,"velocity":104,"programNumber":16},{"time":305298.75865000405,"duration":439.3939833333134,"noteNumber":36,"velocity":127,"programNumber":16},{"time":304844.21315000404,"duration":893.9394833333208,"noteNumber":42,"velocity":118,"programNumber":16},{"time":305526.03140000405,"duration":212.12123333330965,"noteNumber":43,"velocity":104,"programNumber":16},{"time":305753.30415000406,"duration":113.63637500000186,"noteNumber":45,"velocity":108,"programNumber":16},{"time":305866.94052500406,"duration":98.48485833330778,"noteNumber":45,"velocity":107,"programNumber":16},{"time":305753.30415000406,"duration":439.3939833333134,"noteNumber":36,"velocity":108,"programNumber":16},{"time":305980.57690000406,"duration":212.12123333330965,"noteNumber":41,"velocity":107,"programNumber":16},{"time":306207.84965000406,"duration":113.63637500000186,"noteNumber":45,"velocity":127,"programNumber":16},{"time":306321.48602500407,"duration":98.48485833330778,"noteNumber":45,"velocity":104,"programNumber":16},{"time":305753.30415000406,"duration":893.9394833333208,"noteNumber":42,"velocity":108,"programNumber":16},{"time":306435.12240000407,"duration":212.12123333330965,"noteNumber":43,"velocity":97,"programNumber":16},{"time":306207.84965000406,"duration":439.3939833333134,"noteNumber":36,"velocity":127,"programNumber":16},{"time":306662.3951500041,"duration":113.63637500000186,"noteNumber":45,"velocity":119,"programNumber":16},{"time":306776.0315250041,"duration":98.48485833330778,"noteNumber":45,"velocity":103,"programNumber":16},{"time":306889.6679000041,"duration":212.12123333330965,"noteNumber":43,"velocity":127,"programNumber":16},{"time":306662.3951500041,"duration":439.3939833333134,"noteNumber":36,"velocity":119,"programNumber":16},{"time":307116.9406500041,"duration":113.63637500000186,"noteNumber":45,"velocity":127,"programNumber":16},{"time":307230.5770250041,"duration":113.63637500000186,"noteNumber":45,"velocity":100,"programNumber":16},{"time":307344.2134000041,"duration":98.48485833330778,"noteNumber":45,"velocity":104,"programNumber":16},{"time":306662.3951500041,"duration":893.9394833333208,"noteNumber":42,"velocity":119,"programNumber":16},{"time":307116.9406500041,"duration":439.3939833333134,"noteNumber":36,"velocity":127,"programNumber":16},{"time":307344.2134000041,"duration":212.12123333330965,"noteNumber":43,"velocity":104,"programNumber":16},{"time":307571.4861500041,"duration":113.63637500000186,"noteNumber":45,"velocity":121,"programNumber":16},{"time":307685.1225250041,"duration":98.48485833330778,"noteNumber":45,"velocity":97,"programNumber":16},{"time":307571.4861500041,"duration":439.3939833333134,"noteNumber":36,"velocity":121,"programNumber":16},{"time":307798.7589000041,"duration":212.12123333330965,"noteNumber":43,"velocity":124,"programNumber":16},{"time":308026.0316500041,"duration":113.63637500000186,"noteNumber":45,"velocity":127,"programNumber":16},{"time":308139.6680250041,"duration":113.63637500000186,"noteNumber":45,"velocity":94,"programNumber":16},{"time":308253.3044000041,"duration":98.48485833330778,"noteNumber":45,"velocity":106,"programNumber":16},{"time":308026.0316500041,"duration":439.3939833333134,"noteNumber":36,"velocity":127,"programNumber":16},{"time":307571.4861500041,"duration":893.9394833333208,"noteNumber":42,"velocity":121,"programNumber":16},{"time":308253.3044000041,"duration":212.12123333330965,"noteNumber":43,"velocity":106,"programNumber":16},{"time":308480.5771500041,"duration":113.63637500000186,"noteNumber":45,"velocity":122,"programNumber":16},{"time":308594.2135250041,"duration":98.48485833330778,"noteNumber":45,"velocity":92,"programNumber":16},{"time":308480.5771500041,"duration":439.3939833333134,"noteNumber":36,"velocity":122,"programNumber":16},{"time":308707.8499000041,"duration":212.12123333330965,"noteNumber":43,"velocity":127,"programNumber":16},{"time":308935.1226500041,"duration":113.63637500000186,"noteNumber":45,"velocity":127,"programNumber":16},{"time":309048.7590250041,"duration":113.63637500000186,"noteNumber":45,"velocity":90,"programNumber":16},{"time":309162.3954000041,"duration":98.48485833330778,"noteNumber":45,"velocity":98,"programNumber":16},{"time":308935.1226500041,"duration":439.3939833333134,"noteNumber":36,"velocity":127,"programNumber":16},{"time":308480.5771500041,"duration":893.9394833333208,"noteNumber":42,"velocity":122,"programNumber":16},{"time":309162.3954000041,"duration":212.12123333330965,"noteNumber":43,"velocity":98,"programNumber":16},{"time":309389.6681500041,"duration":113.63637500000186,"noteNumber":45,"velocity":115,"programNumber":16},{"time":309503.3045250041,"duration":98.48485833330778,"noteNumber":45,"velocity":87,"programNumber":16},{"time":309389.6681500041,"duration":439.3939833333134,"noteNumber":36,"velocity":115,"programNumber":16},{"time":309616.9409000041,"duration":212.12123333330965,"noteNumber":43,"velocity":114,"programNumber":16},{"time":309844.2136500041,"duration":113.63637500000186,"noteNumber":45,"velocity":127,"programNumber":16},{"time":309957.8500250041,"duration":98.48485833330778,"noteNumber":45,"velocity":85,"programNumber":16},{"time":309389.6681500041,"duration":893.9394833333208,"noteNumber":42,"velocity":115,"programNumber":16},{"time":310071.4864000041,"duration":212.12123333330965,"noteNumber":43,"velocity":97,"programNumber":16},{"time":309844.2136500041,"duration":439.3939833333134,"noteNumber":36,"velocity":127,"programNumber":16},{"time":310298.75915000413,"duration":113.63637500000186,"noteNumber":45,"velocity":127,"programNumber":16},{"time":310412.39552500413,"duration":98.48485833330778,"noteNumber":45,"velocity":82,"programNumber":16},{"time":310526.03190000413,"duration":212.12123333330965,"noteNumber":43,"velocity":127,"programNumber":16},{"time":310298.75915000413,"duration":439.3939833333134,"noteNumber":36,"velocity":127,"programNumber":16},{"time":310753.30465000414,"duration":113.63637500000186,"noteNumber":45,"velocity":127,"programNumber":16},{"time":310866.94102500414,"duration":113.63637500000186,"noteNumber":45,"velocity":79,"programNumber":16},{"time":310980.57740000414,"duration":98.48485833330778,"noteNumber":45,"velocity":103,"programNumber":16},{"time":310298.75915000413,"duration":893.9394833333208,"noteNumber":42,"velocity":127,"programNumber":16},{"time":310753.30465000414,"duration":439.3939833333134,"noteNumber":36,"velocity":127,"programNumber":16},{"time":310980.57740000414,"duration":212.12123333330965,"noteNumber":43,"velocity":103,"programNumber":16},{"time":311207.85015000415,"duration":113.63637500000186,"noteNumber":45,"velocity":126,"programNumber":16},{"time":311321.48652500415,"duration":98.48485833330778,"noteNumber":45,"velocity":78,"programNumber":16},{"time":311207.85015000415,"duration":439.3939833333134,"noteNumber":36,"velocity":126,"programNumber":16},{"time":311435.12290000415,"duration":212.12123333330965,"noteNumber":43,"velocity":123,"programNumber":16},{"time":311662.39565000415,"duration":113.63637500000186,"noteNumber":45,"velocity":127,"programNumber":16},{"time":311776.03202500416,"duration":98.48485833330778,"noteNumber":45,"velocity":75,"programNumber":16},{"time":311207.85015000415,"duration":893.9394833333208,"noteNumber":42,"velocity":126,"programNumber":16},{"time":311889.66840000416,"duration":212.12123333330965,"noteNumber":43,"velocity":100,"programNumber":16},{"time":311662.39565000415,"duration":439.3939833333134,"noteNumber":36,"velocity":127,"programNumber":16},{"time":312116.94115000416,"duration":113.63637500000186,"noteNumber":45,"velocity":118,"programNumber":16},{"time":312230.57752500416,"duration":98.48485833330778,"noteNumber":45,"velocity":72,"programNumber":16},{"time":312344.21390000416,"duration":212.12123333330965,"noteNumber":43,"velocity":112,"programNumber":16},{"time":312116.94115000416,"duration":439.3939833333134,"noteNumber":36,"velocity":118,"programNumber":16},{"time":312116.94115000416,"duration":893.9394833333208,"noteNumber":42,"velocity":118,"programNumber":16}],[{"time":0,"duration":216.41781666666668,"noteNumber":30,"velocity":127,"programNumber":34},{"time":223.8805,"duration":216.41781666666665,"noteNumber":30,"velocity":127,"programNumber":34},{"time":1791.0439999999999,"duration":216.41781666666657,"noteNumber":33,"velocity":127,"programNumber":34},{"time":2014.9244999999999,"duration":216.4178166666668,"noteNumber":33,"velocity":127,"programNumber":34},{"time":2686.566,"duration":216.41781666666657,"noteNumber":28,"velocity":127,"programNumber":34},{"time":2910.4464999999996,"duration":216.41781666666657,"noteNumber":28,"velocity":127,"programNumber":34},{"time":3582.0879999999993,"duration":216.41781666666657,"noteNumber":30,"velocity":127,"programNumber":34},{"time":3805.968499999999,"duration":216.41781666666657,"noteNumber":30,"velocity":127,"programNumber":34},{"time":5373.131999999999,"duration":216.41781666666702,"noteNumber":38,"velocity":127,"programNumber":34},{"time":5597.012499999999,"duration":216.41781666666702,"noteNumber":38,"velocity":127,"programNumber":34},{"time":6268.6539999999995,"duration":216.41781666666702,"noteNumber":37,"velocity":127,"programNumber":34},{"time":6492.5345,"duration":216.41781666666702,"noteNumber":37,"velocity":127,"programNumber":34},{"time":7164.176,"duration":216.41781666666702,"noteNumber":30,"velocity":127,"programNumber":34},{"time":7388.056500000001,"duration":216.41781666666702,"noteNumber":30,"velocity":127,"programNumber":34},{"time":8955.220000000001,"duration":216.4178166666661,"noteNumber":33,"velocity":127,"programNumber":34},{"time":9179.1005,"duration":216.4178166666661,"noteNumber":33,"velocity":127,"programNumber":34},{"time":9850.742,"duration":216.4178166666661,"noteNumber":28,"velocity":127,"programNumber":34},{"time":10074.6225,"duration":216.4178166666661,"noteNumber":28,"velocity":127,"programNumber":34},{"time":10753.161574999998,"duration":219.69699166666578,"noteNumber":30,"velocity":127,"programNumber":34},{"time":10980.434324999997,"duration":219.69699166666578,"noteNumber":30,"velocity":127,"programNumber":34},{"time":12571.343574999995,"duration":219.69699166666578,"noteNumber":38,"velocity":127,"programNumber":34},{"time":12798.616324999994,"duration":219.69699166666578,"noteNumber":38,"velocity":127,"programNumber":34},{"time":13480.434574999992,"duration":219.69699166666578,"noteNumber":37,"velocity":127,"programNumber":34},{"time":13707.70732499999,"duration":219.69699166666578,"noteNumber":37,"velocity":127,"programNumber":34},{"time":14389.525574999989,"duration":219.69699166666578,"noteNumber":30,"velocity":127,"programNumber":34},{"time":14616.798324999987,"duration":219.69699166666578,"noteNumber":30,"velocity":127,"programNumber":34},{"time":16207.707574999986,"duration":219.6969916666676,"noteNumber":33,"velocity":127,"programNumber":34},{"time":16434.980324999986,"duration":219.6969916666676,"noteNumber":33,"velocity":127,"programNumber":34},{"time":17116.798574999986,"duration":219.6969916666676,"noteNumber":28,"velocity":127,"programNumber":34},{"time":17344.071324999986,"duration":219.6969916666676,"noteNumber":28,"velocity":127,"programNumber":34},{"time":18025.889574999987,"duration":219.6969916666676,"noteNumber":30,"velocity":127,"programNumber":34},{"time":18253.162324999987,"duration":219.6969916666676,"noteNumber":30,"velocity":127,"programNumber":34},{"time":19844.071574999987,"duration":219.6969916666676,"noteNumber":38,"velocity":127,"programNumber":34},{"time":20071.344324999987,"duration":219.6969916666676,"noteNumber":38,"velocity":127,"programNumber":34},{"time":20753.162574999988,"duration":219.6969916666676,"noteNumber":37,"velocity":127,"programNumber":34},{"time":20980.435324999988,"duration":219.6969916666676,"noteNumber":37,"velocity":127,"programNumber":34},{"time":21662.253574999988,"duration":219.6969916666676,"noteNumber":30,"velocity":127,"programNumber":34},{"time":21889.526324999988,"duration":219.6969916666676,"noteNumber":30,"velocity":127,"programNumber":34},{"time":23480.43557499999,"duration":219.6969916666676,"noteNumber":33,"velocity":127,"programNumber":34},{"time":23707.70832499999,"duration":219.6969916666676,"noteNumber":33,"velocity":127,"programNumber":34},{"time":24389.52657499999,"duration":219.6969916666676,"noteNumber":28,"velocity":127,"programNumber":34},{"time":24616.79932499999,"duration":219.6969916666676,"noteNumber":28,"velocity":127,"programNumber":34},{"time":25298.61757499999,"duration":219.6969916666676,"noteNumber":30,"velocity":127,"programNumber":34},{"time":25525.89032499999,"duration":219.6969916666676,"noteNumber":30,"velocity":127,"programNumber":34},{"time":27116.79957499999,"duration":219.6969916666676,"noteNumber":38,"velocity":127,"programNumber":34},{"time":27344.07232499999,"duration":219.6969916666676,"noteNumber":38,"velocity":127,"programNumber":34},{"time":28025.89057499999,"duration":219.6969916666676,"noteNumber":40,"velocity":127,"programNumber":34},{"time":28253.16332499999,"duration":219.6969916666676,"noteNumber":40,"velocity":127,"programNumber":34},{"time":28934.98157499999,"duration":219.6969916666676,"noteNumber":33,"velocity":127,"programNumber":34},{"time":29162.25432499999,"duration":219.6969916666676,"noteNumber":45,"velocity":127,"programNumber":34},{"time":29389.52707499999,"duration":219.6969916666676,"noteNumber":33,"velocity":127,"programNumber":34},{"time":29616.79982499999,"duration":219.6969916666676,"noteNumber":45,"velocity":127,"programNumber":34},{"time":29844.07257499999,"duration":219.6969916666676,"noteNumber":33,"velocity":127,"programNumber":34},{"time":30071.34532499999,"duration":219.6969916666676,"noteNumber":45,"velocity":127,"programNumber":34},{"time":30298.61807499999,"duration":219.6969916666676,"noteNumber":33,"velocity":127,"programNumber":34},{"time":30525.89082499999,"duration":219.6969916666676,"noteNumber":45,"velocity":127,"programNumber":34},{"time":30753.16357499999,"duration":219.6969916666676,"noteNumber":33,"velocity":127,"programNumber":34},{"time":30980.43632499999,"duration":219.6969916666676,"noteNumber":45,"velocity":127,"programNumber":34},{"time":31207.70907499999,"duration":219.6969916666676,"noteNumber":33,"velocity":127,"programNumber":34},{"time":31434.98182499999,"duration":219.6969916666676,"noteNumber":44,"velocity":127,"programNumber":34},{"time":31662.25457499999,"duration":219.6969916666676,"noteNumber":33,"velocity":127,"programNumber":34},{"time":31889.527324999992,"duration":219.6969916666676,"noteNumber":42,"velocity":127,"programNumber":34},{"time":32116.800074999992,"duration":219.6969916666676,"noteNumber":33,"velocity":127,"programNumber":34},{"time":32344.072824999992,"duration":219.6969916666676,"noteNumber":40,"velocity":127,"programNumber":34},{"time":32571.345574999992,"duration":219.69699166666396,"noteNumber":33,"velocity":127,"programNumber":34},{"time":32798.61832499999,"duration":219.69699166666396,"noteNumber":45,"velocity":127,"programNumber":34},{"time":33025.891074999985,"duration":219.69699166666396,"noteNumber":33,"velocity":127,"programNumber":34},{"time":33253.16382499998,"duration":219.69699166666396,"noteNumber":45,"velocity":127,"programNumber":34},{"time":33480.43657499998,"duration":219.69699166666396,"noteNumber":33,"velocity":127,"programNumber":34},{"time":33707.709324999974,"duration":219.69699166666396,"noteNumber":45,"velocity":127,"programNumber":34},{"time":33934.98207499997,"duration":219.69699166666396,"noteNumber":33,"velocity":127,"programNumber":34},{"time":34162.25482499997,"duration":219.69699166666396,"noteNumber":45,"velocity":127,"programNumber":34},{"time":34389.527574999964,"duration":219.69699166666396,"noteNumber":33,"velocity":127,"programNumber":34},{"time":34616.80032499996,"duration":219.69699166666396,"noteNumber":45,"velocity":127,"programNumber":34},{"time":34844.07307499996,"duration":219.69699166666396,"noteNumber":33,"velocity":127,"programNumber":34},{"time":35071.34582499995,"duration":219.69699166666396,"noteNumber":44,"velocity":127,"programNumber":34},{"time":35298.61857499995,"duration":219.69699166666396,"noteNumber":33,"velocity":127,"programNumber":34},{"time":35525.891324999946,"duration":219.69699166666396,"noteNumber":42,"velocity":127,"programNumber":34},{"time":35753.16407499994,"duration":219.69699166666396,"noteNumber":33,"velocity":127,"programNumber":34},{"time":35980.43682499994,"duration":219.69699166666396,"noteNumber":40,"velocity":127,"programNumber":34},{"time":36207.709574999935,"duration":219.69699166666396,"noteNumber":33,"velocity":127,"programNumber":34},{"time":36434.98232499993,"duration":219.69699166666396,"noteNumber":45,"velocity":127,"programNumber":34},{"time":36662.25507499993,"duration":219.69699166666396,"noteNumber":33,"velocity":127,"programNumber":34},{"time":36889.527824999925,"duration":219.69699166666396,"noteNumber":45,"velocity":127,"programNumber":34},{"time":37116.80057499992,"duration":219.69699166666396,"noteNumber":33,"velocity":127,"programNumber":34},{"time":37344.07332499992,"duration":219.69699166666396,"noteNumber":45,"velocity":127,"programNumber":34},{"time":37571.346074999914,"duration":219.69699166666396,"noteNumber":33,"velocity":127,"programNumber":34},{"time":37798.61882499991,"duration":219.69699166666396,"noteNumber":45,"velocity":127,"programNumber":34},{"time":38025.89157499991,"duration":219.69699166666396,"noteNumber":33,"velocity":127,"programNumber":34},{"time":38253.1643249999,"duration":219.69699166666396,"noteNumber":45,"velocity":127,"programNumber":34},{"time":38480.4370749999,"duration":219.69699166666396,"noteNumber":33,"velocity":127,"programNumber":34},{"time":38707.709824999896,"duration":219.69699166666396,"noteNumber":44,"velocity":127,"programNumber":34},{"time":38934.98257499989,"duration":219.69699166666396,"noteNumber":33,"velocity":127,"programNumber":34},{"time":39162.25532499989,"duration":219.69699166666396,"noteNumber":42,"velocity":127,"programNumber":34},{"time":39389.528074999886,"duration":219.69699166666396,"noteNumber":33,"velocity":127,"programNumber":34},{"time":39616.80082499988,"duration":219.69699166666396,"noteNumber":40,"velocity":127,"programNumber":34},{"time":39844.07357499988,"duration":219.69699166666396,"noteNumber":33,"velocity":127,"programNumber":34},{"time":40071.346324999875,"duration":219.69699166666396,"noteNumber":45,"velocity":127,"programNumber":34},{"time":40298.61907499987,"duration":219.69699166666396,"noteNumber":33,"velocity":127,"programNumber":34},{"time":40525.89182499987,"duration":219.69699166666396,"noteNumber":45,"velocity":127,"programNumber":34},{"time":40753.164574999864,"duration":219.69699166666396,"noteNumber":33,"velocity":127,"programNumber":34},{"time":40980.43732499986,"duration":219.69699166666396,"noteNumber":45,"velocity":127,"programNumber":34},{"time":41207.71007499986,"duration":219.69699166666396,"noteNumber":33,"velocity":127,"programNumber":34},{"time":41434.98282499985,"duration":219.69699166666396,"noteNumber":45,"velocity":127,"programNumber":34},{"time":41662.25557499985,"duration":219.69699166666396,"noteNumber":33,"velocity":127,"programNumber":34},{"time":41889.52832499985,"duration":219.69699166666396,"noteNumber":45,"velocity":127,"programNumber":34},{"time":42116.80107499984,"duration":219.69699166666396,"noteNumber":33,"velocity":127,"programNumber":34},{"time":42344.07382499984,"duration":219.69699166666396,"noteNumber":44,"velocity":127,"programNumber":34},{"time":42571.346574999836,"duration":219.69699166666396,"noteNumber":33,"velocity":127,"programNumber":34},{"time":42798.61932499983,"duration":219.69699166666396,"noteNumber":42,"velocity":127,"programNumber":34},{"time":43025.89207499983,"duration":219.69699166666396,"noteNumber":33,"velocity":127,"programNumber":34},{"time":43253.164824999825,"duration":219.69699166666396,"noteNumber":40,"velocity":127,"programNumber":34},{"time":43480.43757499982,"duration":219.69699166666396,"noteNumber":33,"velocity":127,"programNumber":34},{"time":43707.71032499982,"duration":219.69699166666396,"noteNumber":45,"velocity":127,"programNumber":34},{"time":43934.983074999815,"duration":219.69699166666396,"noteNumber":33,"velocity":127,"programNumber":34},{"time":44162.25582499981,"duration":219.69699166666396,"noteNumber":45,"velocity":127,"programNumber":34},{"time":44389.52857499981,"duration":219.69699166666396,"noteNumber":33,"velocity":127,"programNumber":34},{"time":44616.801324999804,"duration":219.69699166666396,"noteNumber":45,"velocity":127,"programNumber":34},{"time":44844.0740749998,"duration":219.69699166666396,"noteNumber":33,"velocity":127,"programNumber":34},{"time":45071.3468249998,"duration":219.69699166666396,"noteNumber":45,"velocity":127,"programNumber":34},{"time":45298.61957499979,"duration":219.69699166666396,"noteNumber":33,"velocity":127,"programNumber":34},{"time":45525.89232499979,"duration":219.69699166666396,"noteNumber":45,"velocity":127,"programNumber":34},{"time":45753.165074999786,"duration":219.69699166666396,"noteNumber":33,"velocity":127,"programNumber":34},{"time":45980.43782499978,"duration":219.69699166666396,"noteNumber":44,"velocity":127,"programNumber":34},{"time":46207.71057499978,"duration":219.69699166666396,"noteNumber":33,"velocity":127,"programNumber":34},{"time":46434.983324999776,"duration":219.69699166666396,"noteNumber":42,"velocity":127,"programNumber":34},{"time":46662.25607499977,"duration":219.69699166666396,"noteNumber":33,"velocity":127,"programNumber":34},{"time":46889.52882499977,"duration":219.69699166666396,"noteNumber":40,"velocity":127,"programNumber":34},{"time":47116.801574999765,"duration":219.69699166666396,"noteNumber":33,"velocity":127,"programNumber":34},{"time":47344.07432499976,"duration":219.69699166666396,"noteNumber":45,"velocity":127,"programNumber":34},{"time":47571.34707499976,"duration":219.69699166666396,"noteNumber":33,"velocity":127,"programNumber":34},{"time":47798.619824999754,"duration":219.69699166666396,"noteNumber":45,"velocity":127,"programNumber":34},{"time":48025.89257499975,"duration":219.69699166666396,"noteNumber":33,"velocity":127,"programNumber":34},{"time":48253.16532499975,"duration":219.69699166666396,"noteNumber":45,"velocity":127,"programNumber":34},{"time":48480.43807499974,"duration":219.69699166666396,"noteNumber":33,"velocity":127,"programNumber":34},{"time":48707.71082499974,"duration":219.69699166666396,"noteNumber":45,"velocity":127,"programNumber":34},{"time":48934.98357499974,"duration":219.69699166666396,"noteNumber":33,"velocity":127,"programNumber":34},{"time":49162.25632499973,"duration":219.69699166666396,"noteNumber":45,"velocity":127,"programNumber":34},{"time":49389.52907499973,"duration":219.69699166666396,"noteNumber":33,"velocity":127,"programNumber":34},{"time":49616.801824999726,"duration":219.69699166666396,"noteNumber":44,"velocity":127,"programNumber":34},{"time":49844.07457499972,"duration":219.69699166666396,"noteNumber":33,"velocity":127,"programNumber":34},{"time":50071.34732499972,"duration":219.69699166666396,"noteNumber":42,"velocity":127,"programNumber":34},{"time":50298.620074999715,"duration":219.69699166666396,"noteNumber":33,"velocity":127,"programNumber":34},{"time":50525.89282499971,"duration":219.69699166666396,"noteNumber":40,"velocity":127,"programNumber":34},{"time":50753.16557499971,"duration":219.69699166666396,"noteNumber":33,"velocity":127,"programNumber":34},{"time":50980.438324999704,"duration":219.69699166666396,"noteNumber":45,"velocity":127,"programNumber":34},{"time":51207.7110749997,"duration":219.69699166666396,"noteNumber":33,"velocity":127,"programNumber":34},{"time":51434.9838249997,"duration":219.69699166666396,"noteNumber":45,"velocity":127,"programNumber":34},{"time":51662.256574999694,"duration":219.69699166666396,"noteNumber":33,"velocity":127,"programNumber":34},{"time":51889.52932499969,"duration":219.69699166666396,"noteNumber":45,"velocity":127,"programNumber":34},{"time":52116.80207499969,"duration":219.69699166666396,"noteNumber":33,"velocity":127,"programNumber":34},{"time":52344.07482499968,"duration":219.69699166666396,"noteNumber":45,"velocity":127,"programNumber":34},{"time":52571.34757499968,"duration":219.69699166666396,"noteNumber":33,"velocity":127,"programNumber":34},{"time":52798.620324999676,"duration":219.69699166666396,"noteNumber":45,"velocity":127,"programNumber":34},{"time":53025.89307499967,"duration":219.69699166666396,"noteNumber":33,"velocity":127,"programNumber":34},{"time":53253.16582499967,"duration":219.69699166666396,"noteNumber":44,"velocity":127,"programNumber":34},{"time":53480.438574999665,"duration":219.69699166666396,"noteNumber":33,"velocity":127,"programNumber":34},{"time":53707.71132499966,"duration":219.69699166666396,"noteNumber":42,"velocity":127,"programNumber":34},{"time":53934.98407499966,"duration":219.69699166666396,"noteNumber":33,"velocity":127,"programNumber":34},{"time":54162.256824999655,"duration":219.69699166666396,"noteNumber":40,"velocity":127,"programNumber":34},{"time":54389.52957499965,"duration":219.69699166666396,"noteNumber":33,"velocity":127,"programNumber":34},{"time":54616.80232499965,"duration":219.69699166666396,"noteNumber":45,"velocity":127,"programNumber":34},{"time":54844.075074999644,"duration":219.69699166666396,"noteNumber":33,"velocity":127,"programNumber":34},{"time":55071.34782499964,"duration":219.69699166666396,"noteNumber":45,"velocity":127,"programNumber":34},{"time":55298.62057499964,"duration":219.69699166666396,"noteNumber":33,"velocity":127,"programNumber":34},{"time":55525.89332499963,"duration":219.69699166666396,"noteNumber":45,"velocity":127,"programNumber":34},{"time":55753.16607499963,"duration":219.69699166666396,"noteNumber":33,"velocity":127,"programNumber":34},{"time":55980.43882499963,"duration":219.69699166666396,"noteNumber":45,"velocity":127,"programNumber":34},{"time":56207.71157499962,"duration":219.69699166666396,"noteNumber":33,"velocity":127,"programNumber":34},{"time":56434.98432499962,"duration":219.69699166666396,"noteNumber":45,"velocity":127,"programNumber":34},{"time":56662.257074999616,"duration":219.69699166666396,"noteNumber":33,"velocity":127,"programNumber":34},{"time":56889.52982499961,"duration":219.69699166666396,"noteNumber":44,"velocity":127,"programNumber":34},{"time":57116.80257499961,"duration":219.69699166666396,"noteNumber":33,"velocity":127,"programNumber":34},{"time":57344.075324999605,"duration":219.69699166666396,"noteNumber":42,"velocity":127,"programNumber":34},{"time":57571.3480749996,"duration":219.69699166666396,"noteNumber":33,"velocity":127,"programNumber":34},{"time":57798.6208249996,"duration":219.69699166666396,"noteNumber":40,"velocity":127,"programNumber":34},{"time":58025.893574999594,"duration":219.69699166666396,"noteNumber":33,"velocity":127,"programNumber":34},{"time":58253.16632499959,"duration":219.69699166666396,"noteNumber":45,"velocity":127,"programNumber":34},{"time":58480.43907499959,"duration":219.69699166666396,"noteNumber":33,"velocity":127,"programNumber":34},{"time":58707.711824999584,"duration":219.69699166666396,"noteNumber":45,"velocity":127,"programNumber":34},{"time":58934.98457499958,"duration":219.69699166666396,"noteNumber":33,"velocity":127,"programNumber":34},{"time":59162.25732499958,"duration":219.69699166666396,"noteNumber":45,"velocity":127,"programNumber":34},{"time":59389.53007499957,"duration":219.69699166666396,"noteNumber":33,"velocity":127,"programNumber":34},{"time":59616.80282499957,"duration":219.69699166666396,"noteNumber":45,"velocity":127,"programNumber":34},{"time":59844.075574999566,"duration":219.69699166666396,"noteNumber":33,"velocity":127,"programNumber":34},{"time":60071.34832499956,"duration":219.69699166666396,"noteNumber":45,"velocity":127,"programNumber":34},{"time":60298.62107499956,"duration":219.69699166666396,"noteNumber":33,"velocity":127,"programNumber":34},{"time":60525.893824999555,"duration":219.69699166666396,"noteNumber":44,"velocity":127,"programNumber":34},{"time":60753.16657499955,"duration":219.69699166666396,"noteNumber":33,"velocity":127,"programNumber":34},{"time":60980.43932499955,"duration":219.69699166666396,"noteNumber":42,"velocity":127,"programNumber":34},{"time":61207.712074999545,"duration":219.69699166666396,"noteNumber":33,"velocity":127,"programNumber":34},{"time":61434.98482499954,"duration":219.69699166666396,"noteNumber":40,"velocity":127,"programNumber":34},{"time":61662.25757499954,"duration":219.69699166666396,"noteNumber":33,"velocity":127,"programNumber":34},{"time":61889.530324999534,"duration":219.69699166666396,"noteNumber":45,"velocity":127,"programNumber":34},{"time":62116.80307499953,"duration":219.69699166666396,"noteNumber":33,"velocity":127,"programNumber":34},{"time":62344.07582499953,"duration":219.69699166666396,"noteNumber":45,"velocity":127,"programNumber":34},{"time":62571.34857499952,"duration":219.69699166666396,"noteNumber":33,"velocity":127,"programNumber":34},{"time":62798.62132499952,"duration":219.69699166666396,"noteNumber":45,"velocity":127,"programNumber":34},{"time":63025.894074999516,"duration":219.69699166666396,"noteNumber":33,"velocity":127,"programNumber":34},{"time":63253.16682499951,"duration":219.69699166666396,"noteNumber":45,"velocity":127,"programNumber":34},{"time":63480.43957499951,"duration":219.69699166666396,"noteNumber":33,"velocity":127,"programNumber":34},{"time":63707.712324999506,"duration":219.69699166666396,"noteNumber":45,"velocity":127,"programNumber":34},{"time":63934.9850749995,"duration":219.69699166666396,"noteNumber":33,"velocity":127,"programNumber":34},{"time":64162.2578249995,"duration":219.69699166666396,"noteNumber":44,"velocity":127,"programNumber":34},{"time":64389.530574999495,"duration":219.69699166666396,"noteNumber":33,"velocity":127,"programNumber":34},{"time":64616.80332499949,"duration":219.69699166666396,"noteNumber":42,"velocity":127,"programNumber":34},{"time":64844.07607499949,"duration":219.69699166666396,"noteNumber":33,"velocity":127,"programNumber":34},{"time":65071.348824999484,"duration":219.69699166666396,"noteNumber":40,"velocity":127,"programNumber":34},{"time":65298.62157499948,"duration":446.9697416666677,"noteNumber":30,"velocity":127,"programNumber":34},{"time":65298.62157499948,"duration":446.9697416666677,"noteNumber":42,"velocity":127,"programNumber":34},{"time":65753.16707499948,"duration":446.9697416666604,"noteNumber":30,"velocity":127,"programNumber":34},{"time":65753.16707499948,"duration":446.9697416666604,"noteNumber":42,"velocity":127,"programNumber":34},{"time":66207.71257499947,"duration":446.9697416666604,"noteNumber":28,"velocity":127,"programNumber":34},{"time":66207.71257499947,"duration":446.9697416666604,"noteNumber":40,"velocity":127,"programNumber":34},{"time":66662.25807499947,"duration":446.9697416666604,"noteNumber":28,"velocity":127,"programNumber":34},{"time":66662.25807499947,"duration":446.9697416666604,"noteNumber":40,"velocity":127,"programNumber":34},{"time":67116.80357499946,"duration":901.5152416666679,"noteNumber":26,"velocity":127,"programNumber":34},{"time":67116.80357499946,"duration":901.5152416666679,"noteNumber":38,"velocity":127,"programNumber":34},{"time":68934.98557499946,"duration":446.9697416666604,"noteNumber":30,"velocity":127,"programNumber":34},{"time":68934.98557499946,"duration":446.9697416666604,"noteNumber":42,"velocity":127,"programNumber":34},{"time":69389.53107499945,"duration":446.9697416666604,"noteNumber":30,"velocity":127,"programNumber":34},{"time":69389.53107499945,"duration":446.9697416666604,"noteNumber":42,"velocity":127,"programNumber":34},{"time":69844.07657499945,"duration":446.9697416666604,"noteNumber":28,"velocity":127,"programNumber":34},{"time":69844.07657499945,"duration":446.9697416666604,"noteNumber":40,"velocity":127,"programNumber":34},{"time":70298.62207499944,"duration":446.9697416666604,"noteNumber":28,"velocity":127,"programNumber":34},{"time":70298.62207499944,"duration":446.9697416666604,"noteNumber":40,"velocity":127,"programNumber":34},{"time":70753.16757499943,"duration":901.5152416666679,"noteNumber":26,"velocity":127,"programNumber":34},{"time":70753.16757499943,"duration":901.5152416666679,"noteNumber":38,"velocity":127,"programNumber":34},{"time":72571.34957499943,"duration":446.9697416666604,"noteNumber":33,"velocity":127,"programNumber":34},{"time":72571.34957499943,"duration":446.9697416666604,"noteNumber":45,"velocity":127,"programNumber":34},{"time":73025.89507499943,"duration":446.9697416666604,"noteNumber":33,"velocity":127,"programNumber":34},{"time":73025.89507499943,"duration":446.9697416666604,"noteNumber":45,"velocity":127,"programNumber":34},{"time":73480.44057499942,"duration":446.9697416666604,"noteNumber":33,"velocity":127,"programNumber":34},{"time":73480.44057499942,"duration":446.9697416666604,"noteNumber":45,"velocity":127,"programNumber":34},{"time":73934.98607499941,"duration":446.9697416666604,"noteNumber":33,"velocity":127,"programNumber":34},{"time":73934.98607499941,"duration":446.9697416666604,"noteNumber":45,"velocity":127,"programNumber":34},{"time":74389.5315749994,"duration":446.9697416666604,"noteNumber":28,"velocity":127,"programNumber":34},{"time":74389.5315749994,"duration":446.9697416666604,"noteNumber":40,"velocity":127,"programNumber":34},{"time":74844.0770749994,"duration":446.9697416666604,"noteNumber":28,"velocity":127,"programNumber":34},{"time":74844.0770749994,"duration":446.9697416666604,"noteNumber":40,"velocity":127,"programNumber":34},{"time":75298.62257499939,"duration":446.9697416666604,"noteNumber":40,"velocity":127,"programNumber":34},{"time":75298.62257499939,"duration":446.9697416666604,"noteNumber":28,"velocity":127,"programNumber":34},{"time":75753.16807499938,"duration":446.9697416666604,"noteNumber":28,"velocity":127,"programNumber":34},{"time":75753.16807499938,"duration":446.9697416666604,"noteNumber":40,"velocity":127,"programNumber":34},{"time":76207.71357499938,"duration":446.9697416666604,"noteNumber":30,"velocity":127,"programNumber":34},{"time":76207.71357499938,"duration":446.9697416666604,"noteNumber":42,"velocity":127,"programNumber":34},{"time":76662.25907499937,"duration":446.9697416666604,"noteNumber":30,"velocity":127,"programNumber":34},{"time":76662.25907499937,"duration":446.9697416666604,"noteNumber":42,"velocity":127,"programNumber":34},{"time":77116.80457499936,"duration":446.9697416666604,"noteNumber":30,"velocity":127,"programNumber":34},{"time":77116.80457499936,"duration":446.9697416666604,"noteNumber":42,"velocity":127,"programNumber":34},{"time":77571.35007499935,"duration":446.9697416666604,"noteNumber":30,"velocity":127,"programNumber":34},{"time":77571.35007499935,"duration":446.9697416666604,"noteNumber":42,"velocity":127,"programNumber":34},{"time":78025.89557499935,"duration":446.9697416666604,"noteNumber":30,"velocity":127,"programNumber":34},{"time":78025.89557499935,"duration":446.9697416666604,"noteNumber":42,"velocity":127,"programNumber":34},{"time":78480.44107499934,"duration":446.9697416666604,"noteNumber":30,"velocity":127,"programNumber":34},{"time":78480.44107499934,"duration":446.9697416666604,"noteNumber":42,"velocity":127,"programNumber":34},{"time":78934.98657499933,"duration":446.9697416666604,"noteNumber":30,"velocity":127,"programNumber":34},{"time":78934.98657499933,"duration":446.9697416666604,"noteNumber":42,"velocity":127,"programNumber":34},{"time":79389.53207499933,"duration":446.9697416666604,"noteNumber":30,"velocity":127,"programNumber":34},{"time":79389.53207499933,"duration":446.9697416666604,"noteNumber":42,"velocity":127,"programNumber":34},{"time":79844.07757499932,"duration":446.9697416666604,"noteNumber":33,"velocity":127,"programNumber":34},{"time":79844.07757499932,"duration":446.9697416666604,"noteNumber":45,"velocity":127,"programNumber":34},{"time":80298.62307499931,"duration":446.9697416666604,"noteNumber":33,"velocity":127,"programNumber":34},{"time":80298.62307499931,"duration":446.9697416666604,"noteNumber":45,"velocity":127,"programNumber":34},{"time":80753.1685749993,"duration":446.9697416666604,"noteNumber":33,"velocity":127,"programNumber":34},{"time":80753.1685749993,"duration":446.9697416666604,"noteNumber":45,"velocity":127,"programNumber":34},{"time":81207.7140749993,"duration":446.9697416666604,"noteNumber":33,"velocity":127,"programNumber":34},{"time":81207.7140749993,"duration":446.9697416666604,"noteNumber":45,"velocity":127,"programNumber":34},{"time":81662.25957499929,"duration":446.9697416666604,"noteNumber":28,"velocity":127,"programNumber":34},{"time":81662.25957499929,"duration":446.9697416666604,"noteNumber":40,"velocity":127,"programNumber":34},{"time":82116.80507499928,"duration":446.9697416666604,"noteNumber":28,"velocity":127,"programNumber":34},{"time":82116.80507499928,"duration":446.9697416666604,"noteNumber":40,"velocity":127,"programNumber":34},{"time":82571.35057499928,"duration":446.9697416666604,"noteNumber":40,"velocity":127,"programNumber":34},{"time":82571.35057499928,"duration":446.9697416666604,"noteNumber":28,"velocity":127,"programNumber":34},{"time":83025.89607499927,"duration":446.9697416666604,"noteNumber":28,"velocity":127,"programNumber":34},{"time":83025.89607499927,"duration":446.9697416666604,"noteNumber":40,"velocity":127,"programNumber":34},{"time":83480.44157499926,"duration":446.9697416666604,"noteNumber":42,"velocity":127,"programNumber":34},{"time":83934.98707499926,"duration":446.9697416666604,"noteNumber":42,"velocity":127,"programNumber":34},{"time":84389.53257499925,"duration":227.27275000000373,"noteNumber":42,"velocity":127,"programNumber":34},{"time":84616.80532499925,"duration":219.69699166667124,"noteNumber":42,"velocity":127,"programNumber":34},{"time":84844.07807499926,"duration":219.69699166667124,"noteNumber":40,"velocity":127,"programNumber":34},{"time":85071.35082499926,"duration":219.69699166667124,"noteNumber":38,"velocity":127,"programNumber":34},{"time":85298.62357499926,"duration":219.69699166667124,"noteNumber":38,"velocity":127,"programNumber":34},{"time":85525.89632499927,"duration":219.69699166667124,"noteNumber":38,"velocity":127,"programNumber":34},{"time":85753.16907499927,"duration":219.69699166667124,"noteNumber":38,"velocity":127,"programNumber":34},{"time":85980.44182499927,"duration":219.69699166667124,"noteNumber":40,"velocity":127,"programNumber":34},{"time":86207.71457499928,"duration":219.69699166667124,"noteNumber":40,"velocity":127,"programNumber":34},{"time":86434.98732499928,"duration":219.69699166667124,"noteNumber":40,"velocity":127,"programNumber":34},{"time":86662.26007499929,"duration":219.69699166667124,"noteNumber":40,"velocity":127,"programNumber":34},{"time":86889.53282499929,"duration":219.69699166667124,"noteNumber":40,"velocity":127,"programNumber":34},{"time":87116.8055749993,"duration":446.9697416666604,"noteNumber":42,"velocity":127,"programNumber":34},{"time":87571.35107499929,"duration":446.9697416666604,"noteNumber":42,"velocity":127,"programNumber":34},{"time":88025.89657499928,"duration":227.27275000000373,"noteNumber":42,"velocity":127,"programNumber":34},{"time":88253.16932499928,"duration":219.69699166667124,"noteNumber":42,"velocity":127,"programNumber":34},{"time":88480.44207499929,"duration":219.69699166667124,"noteNumber":40,"velocity":127,"programNumber":34},{"time":88707.71482499929,"duration":219.69699166667124,"noteNumber":38,"velocity":127,"programNumber":34},{"time":88934.9875749993,"duration":219.69699166667124,"noteNumber":38,"velocity":127,"programNumber":34},{"time":89162.2603249993,"duration":219.69699166667124,"noteNumber":38,"velocity":127,"programNumber":34},{"time":89389.5330749993,"duration":219.69699166667124,"noteNumber":38,"velocity":127,"programNumber":34},{"time":89616.8058249993,"duration":219.69699166667124,"noteNumber":40,"velocity":127,"programNumber":34},{"time":89844.07857499931,"duration":219.69699166667124,"noteNumber":40,"velocity":127,"programNumber":34},{"time":90071.35132499931,"duration":219.69699166667124,"noteNumber":40,"velocity":127,"programNumber":34},{"time":90298.62407499932,"duration":219.69699166667124,"noteNumber":40,"velocity":127,"programNumber":34},{"time":90525.89682499932,"duration":219.69699166667124,"noteNumber":40,"velocity":127,"programNumber":34},{"time":90753.16957499932,"duration":219.69699166667124,"noteNumber":33,"velocity":127,"programNumber":34},{"time":90980.44232499933,"duration":219.69699166667124,"noteNumber":45,"velocity":127,"programNumber":34},{"time":91207.71507499933,"duration":219.69699166667124,"noteNumber":33,"velocity":127,"programNumber":34},{"time":91434.98782499933,"duration":219.69699166667124,"noteNumber":45,"velocity":127,"programNumber":34},{"time":91662.26057499934,"duration":219.69699166667124,"noteNumber":33,"velocity":127,"programNumber":34},{"time":91889.53332499934,"duration":219.69699166667124,"noteNumber":45,"velocity":127,"programNumber":34},{"time":92116.80607499935,"duration":219.69699166667124,"noteNumber":33,"velocity":127,"programNumber":34},{"time":92344.07882499935,"duration":219.69699166667124,"noteNumber":45,"velocity":127,"programNumber":34},{"time":92571.35157499935,"duration":219.69699166667124,"noteNumber":33,"velocity":127,"programNumber":34},{"time":92798.62432499936,"duration":219.69699166667124,"noteNumber":45,"velocity":127,"programNumber":34},{"time":93025.89707499936,"duration":219.69699166667124,"noteNumber":33,"velocity":127,"programNumber":34},{"time":93253.16982499936,"duration":219.69699166667124,"noteNumber":44,"velocity":127,"programNumber":34},{"time":93480.44257499937,"duration":219.69699166667124,"noteNumber":33,"velocity":127,"programNumber":34},{"time":93707.71532499937,"duration":219.69699166667124,"noteNumber":42,"velocity":127,"programNumber":34},{"time":93934.98807499938,"duration":219.69699166667124,"noteNumber":33,"velocity":127,"programNumber":34},{"time":94162.26082499938,"duration":219.69699166667124,"noteNumber":40,"velocity":127,"programNumber":34},{"time":94389.53357499938,"duration":219.69699166667124,"noteNumber":33,"velocity":127,"programNumber":34},{"time":94616.80632499939,"duration":219.69699166667124,"noteNumber":45,"velocity":127,"programNumber":34},{"time":94844.07907499939,"duration":219.69699166667124,"noteNumber":33,"velocity":127,"programNumber":34},{"time":95071.3518249994,"duration":219.69699166667124,"noteNumber":45,"velocity":127,"programNumber":34},{"time":95298.6245749994,"duration":219.69699166667124,"noteNumber":33,"velocity":127,"programNumber":34},{"time":95525.8973249994,"duration":219.69699166667124,"noteNumber":45,"velocity":127,"programNumber":34},{"time":95753.1700749994,"duration":219.69699166667124,"noteNumber":33,"velocity":127,"programNumber":34},{"time":95980.44282499941,"duration":219.69699166667124,"noteNumber":45,"velocity":127,"programNumber":34},{"time":96207.71557499941,"duration":219.69699166667124,"noteNumber":33,"velocity":127,"programNumber":34},{"time":96434.98832499942,"duration":219.69699166667124,"noteNumber":45,"velocity":127,"programNumber":34},{"time":96662.26107499942,"duration":219.69699166667124,"noteNumber":33,"velocity":127,"programNumber":34},{"time":96889.53382499942,"duration":219.69699166667124,"noteNumber":44,"velocity":127,"programNumber":34},{"time":97116.80657499943,"duration":219.69699166667124,"noteNumber":33,"velocity":127,"programNumber":34},{"time":97344.07932499943,"duration":219.69699166667124,"noteNumber":42,"velocity":127,"programNumber":34},{"time":97571.35207499943,"duration":219.69699166667124,"noteNumber":33,"velocity":127,"programNumber":34},{"time":97798.62482499944,"duration":219.69699166667124,"noteNumber":40,"velocity":127,"programNumber":34},{"time":98025.89757499944,"duration":219.69699166667124,"noteNumber":33,"velocity":127,"programNumber":34},{"time":98253.17032499945,"duration":219.69699166667124,"noteNumber":45,"velocity":127,"programNumber":34},{"time":98480.44307499945,"duration":219.69699166667124,"noteNumber":33,"velocity":127,"programNumber":34},{"time":98707.71582499945,"duration":219.69699166667124,"noteNumber":45,"velocity":127,"programNumber":34},{"time":98934.98857499946,"duration":219.69699166667124,"noteNumber":33,"velocity":127,"programNumber":34},{"time":99162.26132499946,"duration":219.69699166667124,"noteNumber":45,"velocity":127,"programNumber":34},{"time":99389.53407499946,"duration":219.69699166667124,"noteNumber":33,"velocity":127,"programNumber":34},{"time":99616.80682499947,"duration":219.69699166667124,"noteNumber":45,"velocity":127,"programNumber":34},{"time":99844.07957499947,"duration":219.69699166667124,"noteNumber":33,"velocity":127,"programNumber":34},{"time":100071.35232499948,"duration":219.69699166667124,"noteNumber":45,"velocity":127,"programNumber":34},{"time":100298.62507499948,"duration":219.69699166667124,"noteNumber":33,"velocity":127,"programNumber":34},{"time":100525.89782499948,"duration":219.69699166667124,"noteNumber":44,"velocity":127,"programNumber":34},{"time":100753.17057499949,"duration":219.69699166667124,"noteNumber":33,"velocity":127,"programNumber":34},{"time":100980.44332499949,"duration":219.69699166667124,"noteNumber":42,"velocity":127,"programNumber":34},{"time":101207.7160749995,"duration":219.69699166667124,"noteNumber":33,"velocity":127,"programNumber":34},{"time":101434.9888249995,"duration":219.69699166667124,"noteNumber":40,"velocity":127,"programNumber":34},{"time":101662.2615749995,"duration":219.69699166667124,"noteNumber":33,"velocity":127,"programNumber":34},{"time":101889.5343249995,"duration":219.69699166667124,"noteNumber":45,"velocity":127,"programNumber":34},{"time":102116.80707499951,"duration":219.69699166667124,"noteNumber":33,"velocity":127,"programNumber":34},{"time":102344.07982499951,"duration":219.69699166667124,"noteNumber":45,"velocity":127,"programNumber":34},{"time":102571.35257499952,"duration":219.69699166667124,"noteNumber":33,"velocity":127,"programNumber":34},{"time":102798.62532499952,"duration":219.69699166667124,"noteNumber":45,"velocity":127,"programNumber":34},{"time":103025.89807499952,"duration":219.69699166667124,"noteNumber":33,"velocity":127,"programNumber":34},{"time":103253.17082499953,"duration":219.69699166667124,"noteNumber":45,"velocity":127,"programNumber":34},{"time":103480.44357499953,"duration":219.69699166667124,"noteNumber":33,"velocity":127,"programNumber":34},{"time":103707.71632499954,"duration":219.69699166667124,"noteNumber":45,"velocity":127,"programNumber":34},{"time":103934.98907499954,"duration":219.69699166667124,"noteNumber":33,"velocity":127,"programNumber":34},{"time":104162.26182499954,"duration":219.69699166667124,"noteNumber":44,"velocity":127,"programNumber":34},{"time":104389.53457499955,"duration":219.69699166667124,"noteNumber":33,"velocity":127,"programNumber":34},{"time":104616.80732499955,"duration":219.69699166667124,"noteNumber":42,"velocity":127,"programNumber":34},{"time":104844.08007499955,"duration":219.69699166667124,"noteNumber":33,"velocity":127,"programNumber":34},{"time":105071.35282499956,"duration":219.69699166667124,"noteNumber":40,"velocity":127,"programNumber":34},{"time":105298.62557499956,"duration":219.69699166667124,"noteNumber":33,"velocity":127,"programNumber":34},{"time":105525.89832499957,"duration":219.69699166667124,"noteNumber":45,"velocity":127,"programNumber":34},{"time":105753.17107499957,"duration":219.69699166667124,"noteNumber":33,"velocity":127,"programNumber":34},{"time":105980.44382499957,"duration":219.69699166667124,"noteNumber":45,"velocity":127,"programNumber":34},{"time":106207.71657499958,"duration":219.69699166667124,"noteNumber":33,"velocity":127,"programNumber":34},{"time":106434.98932499958,"duration":219.69699166667124,"noteNumber":45,"velocity":127,"programNumber":34},{"time":106662.26207499958,"duration":219.69699166667124,"noteNumber":33,"velocity":127,"programNumber":34},{"time":106889.53482499959,"duration":219.69699166667124,"noteNumber":45,"velocity":127,"programNumber":34},{"time":107116.80757499959,"duration":219.69699166667124,"noteNumber":33,"velocity":127,"programNumber":34},{"time":107344.0803249996,"duration":219.69699166667124,"noteNumber":45,"velocity":127,"programNumber":34},{"time":107571.3530749996,"duration":219.69699166667124,"noteNumber":33,"velocity":127,"programNumber":34},{"time":107798.6258249996,"duration":219.69699166667124,"noteNumber":44,"velocity":127,"programNumber":34},{"time":108025.8985749996,"duration":219.69699166667124,"noteNumber":33,"velocity":127,"programNumber":34},{"time":108253.17132499961,"duration":219.69699166667124,"noteNumber":42,"velocity":127,"programNumber":34},{"time":108480.44407499961,"duration":219.69699166667124,"noteNumber":33,"velocity":127,"programNumber":34},{"time":108707.71682499962,"duration":219.69699166667124,"noteNumber":40,"velocity":127,"programNumber":34},{"time":108934.98957499962,"duration":219.69699166667124,"noteNumber":33,"velocity":127,"programNumber":34},{"time":109162.26232499962,"duration":219.69699166667124,"noteNumber":45,"velocity":127,"programNumber":34},{"time":109389.53507499963,"duration":219.69699166667124,"noteNumber":33,"velocity":127,"programNumber":34},{"time":109616.80782499963,"duration":219.69699166667124,"noteNumber":45,"velocity":127,"programNumber":34},{"time":109844.08057499964,"duration":219.69699166667124,"noteNumber":33,"velocity":127,"programNumber":34},{"time":110071.35332499964,"duration":219.69699166667124,"noteNumber":45,"velocity":127,"programNumber":34},{"time":110298.62607499964,"duration":219.69699166667124,"noteNumber":33,"velocity":127,"programNumber":34},{"time":110525.89882499965,"duration":219.69699166667124,"noteNumber":45,"velocity":127,"programNumber":34},{"time":110753.17157499965,"duration":219.69699166667124,"noteNumber":33,"velocity":127,"programNumber":34},{"time":110980.44432499965,"duration":219.69699166667124,"noteNumber":45,"velocity":127,"programNumber":34},{"time":111207.71707499966,"duration":219.69699166667124,"noteNumber":33,"velocity":127,"programNumber":34},{"time":111434.98982499966,"duration":219.69699166667124,"noteNumber":44,"velocity":127,"programNumber":34},{"time":111662.26257499967,"duration":219.69699166667124,"noteNumber":33,"velocity":127,"programNumber":34},{"time":111889.53532499967,"duration":219.69699166667124,"noteNumber":42,"velocity":127,"programNumber":34},{"time":112116.80807499967,"duration":219.69699166667124,"noteNumber":33,"velocity":127,"programNumber":34},{"time":112344.08082499968,"duration":219.69699166667124,"noteNumber":40,"velocity":127,"programNumber":34},{"time":112571.35357499968,"duration":219.69699166667124,"noteNumber":33,"velocity":127,"programNumber":34},{"time":112798.62632499968,"duration":219.69699166667124,"noteNumber":45,"velocity":127,"programNumber":34},{"time":113025.89907499969,"duration":219.69699166667124,"noteNumber":33,"velocity":127,"programNumber":34},{"time":113253.17182499969,"duration":219.69699166667124,"noteNumber":45,"velocity":127,"programNumber":34},{"time":113480.4445749997,"duration":219.69699166667124,"noteNumber":33,"velocity":127,"programNumber":34},{"time":113707.7173249997,"duration":219.69699166667124,"noteNumber":45,"velocity":127,"programNumber":34},{"time":113934.9900749997,"duration":219.69699166667124,"noteNumber":33,"velocity":127,"programNumber":34},{"time":114162.2628249997,"duration":219.69699166667124,"noteNumber":45,"velocity":127,"programNumber":34},{"time":114389.53557499971,"duration":219.69699166667124,"noteNumber":33,"velocity":127,"programNumber":34},{"time":114616.80832499971,"duration":219.69699166667124,"noteNumber":45,"velocity":127,"programNumber":34},{"time":114844.08107499972,"duration":219.69699166667124,"noteNumber":33,"velocity":127,"programNumber":34},{"time":115071.35382499972,"duration":219.69699166667124,"noteNumber":44,"velocity":127,"programNumber":34},{"time":115298.62657499973,"duration":219.69699166667124,"noteNumber":33,"velocity":127,"programNumber":34},{"time":115525.89932499973,"duration":219.69699166667124,"noteNumber":42,"velocity":127,"programNumber":34},{"time":115753.17207499973,"duration":219.69699166667124,"noteNumber":33,"velocity":127,"programNumber":34},{"time":115980.44482499974,"duration":219.69699166667124,"noteNumber":40,"velocity":127,"programNumber":34},{"time":116207.71757499974,"duration":219.69699166667124,"noteNumber":33,"velocity":127,"programNumber":34},{"time":116434.99032499974,"duration":219.69699166667124,"noteNumber":45,"velocity":127,"programNumber":34},{"time":116662.26307499975,"duration":219.69699166667124,"noteNumber":33,"velocity":127,"programNumber":34},{"time":116889.53582499975,"duration":219.69699166667124,"noteNumber":45,"velocity":127,"programNumber":34},{"time":117116.80857499976,"duration":219.69699166667124,"noteNumber":33,"velocity":127,"programNumber":34},{"time":117344.08132499976,"duration":219.69699166667124,"noteNumber":45,"velocity":127,"programNumber":34},{"time":117571.35407499976,"duration":219.69699166667124,"noteNumber":33,"velocity":127,"programNumber":34},{"time":117798.62682499977,"duration":219.69699166667124,"noteNumber":45,"velocity":127,"programNumber":34},{"time":118025.89957499977,"duration":219.69699166667124,"noteNumber":33,"velocity":127,"programNumber":34},{"time":118253.17232499977,"duration":219.69699166667124,"noteNumber":45,"velocity":127,"programNumber":34},{"time":118480.44507499978,"duration":219.69699166667124,"noteNumber":33,"velocity":127,"programNumber":34},{"time":118707.71782499978,"duration":219.69699166667124,"noteNumber":44,"velocity":127,"programNumber":34},{"time":118934.99057499979,"duration":219.69699166667124,"noteNumber":33,"velocity":127,"programNumber":34},{"time":119162.26332499979,"duration":219.69699166667124,"noteNumber":42,"velocity":127,"programNumber":34},{"time":119389.53607499979,"duration":219.69699166667124,"noteNumber":33,"velocity":127,"programNumber":34},{"time":119616.8088249998,"duration":219.69699166667124,"noteNumber":40,"velocity":127,"programNumber":34},{"time":119844.0815749998,"duration":219.69699166667124,"noteNumber":33,"velocity":127,"programNumber":34},{"time":120071.3543249998,"duration":219.69699166667124,"noteNumber":45,"velocity":127,"programNumber":34},{"time":120298.62707499981,"duration":219.69699166667124,"noteNumber":33,"velocity":127,"programNumber":34},{"time":120525.89982499981,"duration":219.69699166667124,"noteNumber":45,"velocity":127,"programNumber":34},{"time":120753.17257499981,"duration":219.69699166667124,"noteNumber":33,"velocity":127,"programNumber":34},{"time":120980.44532499982,"duration":219.69699166667124,"noteNumber":45,"velocity":127,"programNumber":34},{"time":121207.71807499982,"duration":219.69699166667124,"noteNumber":33,"velocity":127,"programNumber":34},{"time":121434.99082499983,"duration":219.69699166667124,"noteNumber":45,"velocity":127,"programNumber":34},{"time":121662.26357499983,"duration":219.69699166667124,"noteNumber":33,"velocity":127,"programNumber":34},{"time":121889.53632499983,"duration":219.69699166667124,"noteNumber":45,"velocity":127,"programNumber":34},{"time":122116.80907499984,"duration":219.69699166667124,"noteNumber":33,"velocity":127,"programNumber":34},{"time":122344.08182499984,"duration":219.69699166667124,"noteNumber":44,"velocity":127,"programNumber":34},{"time":122571.35457499984,"duration":219.69699166667124,"noteNumber":33,"velocity":127,"programNumber":34},{"time":122798.62732499985,"duration":219.69699166667124,"noteNumber":42,"velocity":127,"programNumber":34},{"time":123025.90007499985,"duration":219.69699166667124,"noteNumber":33,"velocity":127,"programNumber":34},{"time":123253.17282499986,"duration":219.69699166667124,"noteNumber":40,"velocity":127,"programNumber":34},{"time":123480.44557499986,"duration":219.69699166667124,"noteNumber":33,"velocity":127,"programNumber":34},{"time":123707.71832499986,"duration":219.69699166667124,"noteNumber":45,"velocity":127,"programNumber":34},{"time":123934.99107499987,"duration":219.69699166667124,"noteNumber":33,"velocity":127,"programNumber":34},{"time":124162.26382499987,"duration":219.69699166667124,"noteNumber":45,"velocity":127,"programNumber":34},{"time":124389.53657499987,"duration":219.69699166667124,"noteNumber":33,"velocity":127,"programNumber":34},{"time":124616.80932499988,"duration":219.69699166667124,"noteNumber":45,"velocity":127,"programNumber":34},{"time":124844.08207499988,"duration":219.69699166667124,"noteNumber":33,"velocity":127,"programNumber":34},{"time":125071.35482499989,"duration":219.69699166667124,"noteNumber":45,"velocity":127,"programNumber":34},{"time":125298.62757499989,"duration":219.69699166667124,"noteNumber":33,"velocity":127,"programNumber":34},{"time":125525.9003249999,"duration":219.69699166667124,"noteNumber":45,"velocity":127,"programNumber":34},{"time":125753.1730749999,"duration":219.69699166667124,"noteNumber":33,"velocity":127,"programNumber":34},{"time":125980.4458249999,"duration":219.69699166667124,"noteNumber":44,"velocity":127,"programNumber":34},{"time":126207.7185749999,"duration":219.69699166667124,"noteNumber":33,"velocity":127,"programNumber":34},{"time":126434.99132499991,"duration":219.69699166667124,"noteNumber":42,"velocity":127,"programNumber":34},{"time":126662.26407499991,"duration":219.69699166667124,"noteNumber":33,"velocity":127,"programNumber":34},{"time":126889.53682499992,"duration":219.69699166667124,"noteNumber":40,"velocity":127,"programNumber":34},{"time":127116.80957499992,"duration":446.9697416666604,"noteNumber":30,"velocity":127,"programNumber":34},{"time":127116.80957499992,"duration":446.9697416666604,"noteNumber":42,"velocity":127,"programNumber":34},{"time":127571.35507499991,"duration":446.9697416666604,"noteNumber":30,"velocity":127,"programNumber":34},{"time":127571.35507499991,"duration":446.9697416666604,"noteNumber":42,"velocity":127,"programNumber":34},{"time":128025.9005749999,"duration":446.9697416666604,"noteNumber":28,"velocity":127,"programNumber":34},{"time":128025.9005749999,"duration":446.9697416666604,"noteNumber":40,"velocity":127,"programNumber":34},{"time":128480.4460749999,"duration":446.9697416666604,"noteNumber":28,"velocity":127,"programNumber":34},{"time":128480.4460749999,"duration":446.9697416666604,"noteNumber":40,"velocity":127,"programNumber":34},{"time":128934.99157499989,"duration":901.5152416666679,"noteNumber":26,"velocity":127,"programNumber":34},{"time":128934.99157499989,"duration":901.5152416666679,"noteNumber":38,"velocity":127,"programNumber":34},{"time":130753.17357499989,"duration":446.96974166667496,"noteNumber":30,"velocity":127,"programNumber":34},{"time":130753.17357499989,"duration":446.96974166667496,"noteNumber":42,"velocity":127,"programNumber":34},{"time":131207.7190749999,"duration":446.9697416666604,"noteNumber":30,"velocity":127,"programNumber":34},{"time":131207.7190749999,"duration":446.9697416666604,"noteNumber":42,"velocity":127,"programNumber":34},{"time":131662.26457499992,"duration":446.9697416666604,"noteNumber":28,"velocity":127,"programNumber":34},{"time":131662.26457499992,"duration":446.9697416666604,"noteNumber":40,"velocity":127,"programNumber":34},{"time":132116.81007499993,"duration":446.9697416666604,"noteNumber":28,"velocity":127,"programNumber":34},{"time":132116.81007499993,"duration":446.9697416666604,"noteNumber":40,"velocity":127,"programNumber":34},{"time":132571.35557499994,"duration":901.5152416666679,"noteNumber":26,"velocity":127,"programNumber":34},{"time":132571.35557499994,"duration":901.5152416666679,"noteNumber":38,"velocity":127,"programNumber":34},{"time":134389.53757499994,"duration":446.9697416666604,"noteNumber":33,"velocity":127,"programNumber":34},{"time":134389.53757499994,"duration":446.9697416666604,"noteNumber":45,"velocity":127,"programNumber":34},{"time":134844.08307499994,"duration":446.9697416666604,"noteNumber":33,"velocity":127,"programNumber":34},{"time":134844.08307499994,"duration":446.9697416666604,"noteNumber":45,"velocity":127,"programNumber":34},{"time":135298.62857499995,"duration":446.9697416666604,"noteNumber":33,"velocity":127,"programNumber":34},{"time":135298.62857499995,"duration":446.9697416666604,"noteNumber":45,"velocity":127,"programNumber":34},{"time":135753.17407499996,"duration":446.9697416666604,"noteNumber":33,"velocity":127,"programNumber":34},{"time":135753.17407499996,"duration":446.9697416666604,"noteNumber":45,"velocity":127,"programNumber":34},{"time":136207.71957499997,"duration":446.9697416666604,"noteNumber":28,"velocity":127,"programNumber":34},{"time":136207.71957499997,"duration":446.9697416666604,"noteNumber":40,"velocity":127,"programNumber":34},{"time":136662.26507499997,"duration":446.9697416666604,"noteNumber":28,"velocity":127,"programNumber":34},{"time":136662.26507499997,"duration":446.9697416666604,"noteNumber":40,"velocity":127,"programNumber":34},{"time":137116.81057499998,"duration":446.9697416666604,"noteNumber":40,"velocity":127,"programNumber":34},{"time":137116.81057499998,"duration":446.9697416666604,"noteNumber":28,"velocity":127,"programNumber":34},{"time":137571.356075,"duration":446.9697416666604,"noteNumber":28,"velocity":127,"programNumber":34},{"time":137571.356075,"duration":446.9697416666604,"noteNumber":40,"velocity":127,"programNumber":34},{"time":138025.901575,"duration":446.9697416666604,"noteNumber":30,"velocity":127,"programNumber":34},{"time":138025.901575,"duration":446.9697416666604,"noteNumber":42,"velocity":127,"programNumber":34},{"time":138480.447075,"duration":446.9697416666604,"noteNumber":30,"velocity":127,"programNumber":34},{"time":138480.447075,"duration":446.9697416666604,"noteNumber":42,"velocity":127,"programNumber":34},{"time":138934.992575,"duration":446.9697416666604,"noteNumber":30,"velocity":127,"programNumber":34},{"time":138934.992575,"duration":446.9697416666604,"noteNumber":42,"velocity":127,"programNumber":34},{"time":139389.53807500002,"duration":446.9697416666604,"noteNumber":30,"velocity":127,"programNumber":34},{"time":139389.53807500002,"duration":446.9697416666604,"noteNumber":42,"velocity":127,"programNumber":34},{"time":139844.08357500003,"duration":446.9697416666604,"noteNumber":30,"velocity":127,"programNumber":34},{"time":139844.08357500003,"duration":446.9697416666604,"noteNumber":42,"velocity":127,"programNumber":34},{"time":140298.62907500003,"duration":446.9697416666604,"noteNumber":30,"velocity":127,"programNumber":34},{"time":140298.62907500003,"duration":446.9697416666604,"noteNumber":42,"velocity":127,"programNumber":34},{"time":140753.17457500004,"duration":446.9697416666604,"noteNumber":30,"velocity":127,"programNumber":34},{"time":140753.17457500004,"duration":446.9697416666604,"noteNumber":42,"velocity":127,"programNumber":34},{"time":141207.72007500005,"duration":446.9697416666604,"noteNumber":30,"velocity":127,"programNumber":34},{"time":141207.72007500005,"duration":446.9697416666604,"noteNumber":42,"velocity":127,"programNumber":34},{"time":141662.26557500006,"duration":446.9697416666604,"noteNumber":33,"velocity":127,"programNumber":34},{"time":141662.26557500006,"duration":446.9697416666604,"noteNumber":45,"velocity":127,"programNumber":34},{"time":142116.81107500006,"duration":446.9697416666604,"noteNumber":33,"velocity":127,"programNumber":34},{"time":142116.81107500006,"duration":446.9697416666604,"noteNumber":45,"velocity":127,"programNumber":34},{"time":142571.35657500007,"duration":446.9697416666604,"noteNumber":33,"velocity":127,"programNumber":34},{"time":142571.35657500007,"duration":446.9697416666604,"noteNumber":45,"velocity":127,"programNumber":34},{"time":143025.90207500008,"duration":446.9697416666604,"noteNumber":33,"velocity":127,"programNumber":34},{"time":143025.90207500008,"duration":446.9697416666604,"noteNumber":45,"velocity":127,"programNumber":34},{"time":143480.4475750001,"duration":446.9697416666604,"noteNumber":28,"velocity":127,"programNumber":34},{"time":143480.4475750001,"duration":446.9697416666604,"noteNumber":40,"velocity":127,"programNumber":34},{"time":143934.9930750001,"duration":446.9697416666604,"noteNumber":28,"velocity":127,"programNumber":34},{"time":143934.9930750001,"duration":446.9697416666604,"noteNumber":40,"velocity":127,"programNumber":34},{"time":144389.5385750001,"duration":446.9697416666604,"noteNumber":40,"velocity":127,"programNumber":34},{"time":144389.5385750001,"duration":446.9697416666604,"noteNumber":28,"velocity":127,"programNumber":34},{"time":144844.0840750001,"duration":446.9697416666604,"noteNumber":28,"velocity":127,"programNumber":34},{"time":144844.0840750001,"duration":446.9697416666604,"noteNumber":40,"velocity":127,"programNumber":34},{"time":145298.62957500012,"duration":446.9697416666604,"noteNumber":42,"velocity":127,"programNumber":34},{"time":145753.17507500012,"duration":446.9697416666604,"noteNumber":42,"velocity":127,"programNumber":34},{"time":146207.72057500013,"duration":227.27275000000373,"noteNumber":42,"velocity":127,"programNumber":34},{"time":146434.99332500013,"duration":219.6969916666567,"noteNumber":42,"velocity":127,"programNumber":34},{"time":146662.26607500014,"duration":219.6969916666567,"noteNumber":40,"velocity":127,"programNumber":34},{"time":146889.53882500014,"duration":219.6969916666567,"noteNumber":38,"velocity":127,"programNumber":34},{"time":147116.81157500015,"duration":219.6969916666567,"noteNumber":38,"velocity":127,"programNumber":34},{"time":147344.08432500015,"duration":219.6969916666567,"noteNumber":38,"velocity":127,"programNumber":34},{"time":147571.35707500015,"duration":219.6969916666567,"noteNumber":38,"velocity":127,"programNumber":34},{"time":147798.62982500016,"duration":219.6969916666567,"noteNumber":40,"velocity":127,"programNumber":34},{"time":148025.90257500016,"duration":219.6969916666567,"noteNumber":40,"velocity":127,"programNumber":34},{"time":148253.17532500016,"duration":219.6969916666567,"noteNumber":40,"velocity":127,"programNumber":34},{"time":148480.44807500017,"duration":219.6969916666567,"noteNumber":40,"velocity":127,"programNumber":34},{"time":148707.72082500017,"duration":219.6969916666567,"noteNumber":40,"velocity":127,"programNumber":34},{"time":148934.99357500018,"duration":446.9697416666604,"noteNumber":42,"velocity":127,"programNumber":34},{"time":149389.53907500018,"duration":446.9697416666604,"noteNumber":42,"velocity":127,"programNumber":34},{"time":149844.0845750002,"duration":227.27275000000373,"noteNumber":42,"velocity":127,"programNumber":34},{"time":150071.3573250002,"duration":219.6969916666567,"noteNumber":42,"velocity":127,"programNumber":34},{"time":150298.6300750002,"duration":219.6969916666567,"noteNumber":40,"velocity":127,"programNumber":34},{"time":150525.9028250002,"duration":219.6969916666567,"noteNumber":38,"velocity":127,"programNumber":34},{"time":150753.1755750002,"duration":219.6969916666567,"noteNumber":38,"velocity":127,"programNumber":34},{"time":150980.4483250002,"duration":219.6969916666567,"noteNumber":38,"velocity":127,"programNumber":34},{"time":151207.7210750002,"duration":219.6969916666567,"noteNumber":38,"velocity":127,"programNumber":34},{"time":151434.99382500022,"duration":219.6969916666567,"noteNumber":40,"velocity":127,"programNumber":34},{"time":151662.26657500022,"duration":219.6969916666567,"noteNumber":40,"velocity":127,"programNumber":34},{"time":151889.53932500022,"duration":219.6969916666567,"noteNumber":40,"velocity":127,"programNumber":34},{"time":152116.81207500023,"duration":219.6969916666567,"noteNumber":40,"velocity":127,"programNumber":34},{"time":152344.08482500023,"duration":219.6969916666567,"noteNumber":40,"velocity":127,"programNumber":34},{"time":152571.35757500023,"duration":219.6969916666567,"noteNumber":30,"velocity":127,"programNumber":34},{"time":152798.63032500024,"duration":219.6969916666567,"noteNumber":30,"velocity":127,"programNumber":34},{"time":154389.53957500024,"duration":219.6969916666567,"noteNumber":33,"velocity":127,"programNumber":34},{"time":154616.81232500024,"duration":219.6969916666567,"noteNumber":33,"velocity":127,"programNumber":34},{"time":155298.63057500022,"duration":219.6969916666567,"noteNumber":28,"velocity":127,"programNumber":34},{"time":155525.90332500022,"duration":219.6969916666567,"noteNumber":28,"velocity":127,"programNumber":34},{"time":156207.7215750002,"duration":219.6969916666567,"noteNumber":30,"velocity":127,"programNumber":34},{"time":156434.9943250002,"duration":219.6969916666567,"noteNumber":30,"velocity":127,"programNumber":34},{"time":157340.29669166688,"duration":219.6969916666567,"noteNumber":38,"velocity":127,"programNumber":34},{"time":157563.78155833355,"duration":219.6969916666567,"noteNumber":38,"velocity":127,"programNumber":34},{"time":158245.59980833353,"duration":227.27275000000373,"noteNumber":40,"velocity":127,"programNumber":34},{"time":158472.87255833353,"duration":227.27275000000373,"noteNumber":40,"velocity":127,"programNumber":34},{"time":159154.69080833354,"duration":219.6969916666567,"noteNumber":30,"velocity":127,"programNumber":34},{"time":159381.96355833355,"duration":219.6969916666567,"noteNumber":30,"velocity":127,"programNumber":34},{"time":160972.87280833354,"duration":219.6969916666567,"noteNumber":33,"velocity":127,"programNumber":34},{"time":161200.14555833355,"duration":219.6969916666567,"noteNumber":33,"velocity":127,"programNumber":34},{"time":161881.96380833353,"duration":219.6969916666567,"noteNumber":28,"velocity":127,"programNumber":34},{"time":162109.23655833353,"duration":219.6969916666567,"noteNumber":28,"velocity":127,"programNumber":34},{"time":162791.05480833352,"duration":219.6969916666567,"noteNumber":30,"velocity":127,"programNumber":34},{"time":163018.32755833352,"duration":219.6969916666567,"noteNumber":30,"velocity":127,"programNumber":34},{"time":164609.23680833352,"duration":901.5152416666679,"noteNumber":38,"velocity":127,"programNumber":34},{"time":165518.32780833353,"duration":901.5152416666679,"noteNumber":40,"velocity":127,"programNumber":34},{"time":166427.41880833355,"duration":446.9697416666604,"noteNumber":30,"velocity":127,"programNumber":34},{"time":166881.96430833355,"duration":446.9697416666604,"noteNumber":30,"velocity":127,"programNumber":34},{"time":167336.50980833356,"duration":446.9697416666604,"noteNumber":30,"velocity":127,"programNumber":34},{"time":167791.05530833357,"duration":446.9697416666604,"noteNumber":30,"velocity":127,"programNumber":34},{"time":168245.60080833358,"duration":446.9697416666604,"noteNumber":30,"velocity":127,"programNumber":34},{"time":168700.14630833358,"duration":446.9697416666604,"noteNumber":30,"velocity":127,"programNumber":34},{"time":169154.6918083336,"duration":446.9697416666604,"noteNumber":28,"velocity":127,"programNumber":34},{"time":169609.2373083336,"duration":446.9697416666604,"noteNumber":28,"velocity":127,"programNumber":34},{"time":170063.7828083336,"duration":446.9697416666604,"noteNumber":26,"velocity":127,"programNumber":34},{"time":170518.3283083336,"duration":446.9697416666604,"noteNumber":26,"velocity":127,"programNumber":34},{"time":170972.87380833362,"duration":446.9697416666604,"noteNumber":26,"velocity":127,"programNumber":34},{"time":171427.41930833363,"duration":446.9697416666604,"noteNumber":26,"velocity":127,"programNumber":34},{"time":171881.96480833364,"duration":446.9697416666604,"noteNumber":26,"velocity":127,"programNumber":34},{"time":172336.51030833364,"duration":446.9697416666604,"noteNumber":26,"velocity":127,"programNumber":34},{"time":172791.05580833365,"duration":446.9697416666604,"noteNumber":25,"velocity":127,"programNumber":34},{"time":173245.60130833366,"duration":446.9697416666604,"noteNumber":25,"velocity":127,"programNumber":34},{"time":173700.14680833367,"duration":446.9697416666604,"noteNumber":35,"velocity":127,"programNumber":34},{"time":173700.14680833367,"duration":446.9697416666604,"noteNumber":23,"velocity":127,"programNumber":34},{"time":174154.69230833367,"duration":446.9697416666604,"noteNumber":23,"velocity":127,"programNumber":34},{"time":174154.69230833367,"duration":446.9697416666604,"noteNumber":35,"velocity":127,"programNumber":34},{"time":174609.23780833368,"duration":446.9697416666604,"noteNumber":35,"velocity":127,"programNumber":34},{"time":174609.23780833368,"duration":446.9697416666604,"noteNumber":23,"velocity":127,"programNumber":34},{"time":175063.7833083337,"duration":446.9697416666604,"noteNumber":23,"velocity":127,"programNumber":34},{"time":175063.7833083337,"duration":446.9697416666604,"noteNumber":35,"velocity":127,"programNumber":34},{"time":175518.3288083337,"duration":446.9697416666604,"noteNumber":35,"velocity":127,"programNumber":34},{"time":175518.3288083337,"duration":446.9697416666604,"noteNumber":23,"velocity":127,"programNumber":34},{"time":175972.8743083337,"duration":446.9697416666604,"noteNumber":23,"velocity":127,"programNumber":34},{"time":175972.8743083337,"duration":446.9697416666604,"noteNumber":35,"velocity":127,"programNumber":34},{"time":176427.4198083337,"duration":446.9697416666604,"noteNumber":35,"velocity":127,"programNumber":34},{"time":176427.4198083337,"duration":446.9697416666604,"noteNumber":23,"velocity":127,"programNumber":34},{"time":176881.96530833372,"duration":446.9697416666604,"noteNumber":23,"velocity":127,"programNumber":34},{"time":176881.96530833372,"duration":446.9697416666604,"noteNumber":35,"velocity":127,"programNumber":34},{"time":177336.51080833373,"duration":219.6969916666567,"noteNumber":30,"velocity":127,"programNumber":34},{"time":177563.78355833373,"duration":219.6969916666567,"noteNumber":30,"velocity":127,"programNumber":34},{"time":177791.05630833373,"duration":219.6969916666567,"noteNumber":30,"velocity":127,"programNumber":34},{"time":178018.32905833374,"duration":219.6969916666567,"noteNumber":30,"velocity":127,"programNumber":34},{"time":178245.60180833374,"duration":219.6969916666567,"noteNumber":30,"velocity":127,"programNumber":34},{"time":178472.87455833374,"duration":219.6969916666567,"noteNumber":30,"velocity":127,"programNumber":34},{"time":178700.14730833375,"duration":219.6969916666567,"noteNumber":30,"velocity":127,"programNumber":34},{"time":178927.42005833375,"duration":219.6969916666567,"noteNumber":30,"velocity":127,"programNumber":34},{"time":179154.69280833376,"duration":219.6969916666567,"noteNumber":30,"velocity":127,"programNumber":34},{"time":179381.96555833376,"duration":219.6969916666567,"noteNumber":30,"velocity":127,"programNumber":34},{"time":179609.23830833376,"duration":219.6969916666567,"noteNumber":30,"velocity":127,"programNumber":34},{"time":179836.51105833377,"duration":219.6969916666567,"noteNumber":30,"velocity":127,"programNumber":34},{"time":180063.78380833377,"duration":219.6969916666567,"noteNumber":30,"velocity":127,"programNumber":34},{"time":180291.05655833377,"duration":219.6969916666567,"noteNumber":30,"velocity":127,"programNumber":34},{"time":180518.32930833378,"duration":219.6969916666567,"noteNumber":28,"velocity":127,"programNumber":34},{"time":180745.60205833378,"duration":219.6969916666567,"noteNumber":28,"velocity":127,"programNumber":34},{"time":180972.87480833379,"duration":219.6969916666567,"noteNumber":26,"velocity":127,"programNumber":34},{"time":181200.1475583338,"duration":219.6969916666567,"noteNumber":26,"velocity":127,"programNumber":34},{"time":181427.4203083338,"duration":219.6969916666567,"noteNumber":26,"velocity":127,"programNumber":34},{"time":181654.6930583338,"duration":219.6969916666567,"noteNumber":26,"velocity":127,"programNumber":34},{"time":181881.9658083338,"duration":219.6969916666567,"noteNumber":26,"velocity":127,"programNumber":34},{"time":182109.2385583338,"duration":219.6969916666567,"noteNumber":26,"velocity":127,"programNumber":34},{"time":182336.5113083338,"duration":219.6969916666567,"noteNumber":25,"velocity":127,"programNumber":34},{"time":182563.7840583338,"duration":219.6969916666567,"noteNumber":25,"velocity":127,"programNumber":34},{"time":182791.05680833381,"duration":219.6969916666567,"noteNumber":35,"velocity":127,"programNumber":34},{"time":182791.05680833381,"duration":219.6969916666567,"noteNumber":23,"velocity":127,"programNumber":34},{"time":183018.32955833382,"duration":219.6969916666567,"noteNumber":23,"velocity":127,"programNumber":34},{"time":183018.32955833382,"duration":219.6969916666567,"noteNumber":35,"velocity":127,"programNumber":34},{"time":183245.60230833382,"duration":219.6969916666567,"noteNumber":35,"velocity":127,"programNumber":34},{"time":183245.60230833382,"duration":219.6969916666567,"noteNumber":23,"velocity":127,"programNumber":34},{"time":183472.87505833383,"duration":219.6969916666567,"noteNumber":23,"velocity":127,"programNumber":34},{"time":183472.87505833383,"duration":219.6969916666567,"noteNumber":35,"velocity":127,"programNumber":34},{"time":183700.14780833383,"duration":219.6969916666567,"noteNumber":35,"velocity":127,"programNumber":34},{"time":183700.14780833383,"duration":219.6969916666567,"noteNumber":23,"velocity":127,"programNumber":34},{"time":183927.42055833383,"duration":219.6969916666567,"noteNumber":23,"velocity":127,"programNumber":34},{"time":183927.42055833383,"duration":219.6969916666567,"noteNumber":35,"velocity":127,"programNumber":34},{"time":184154.69330833384,"duration":219.6969916666567,"noteNumber":35,"velocity":127,"programNumber":34},{"time":184154.69330833384,"duration":219.6969916666567,"noteNumber":23,"velocity":127,"programNumber":34},{"time":184381.96605833384,"duration":219.6969916666567,"noteNumber":23,"velocity":127,"programNumber":34},{"time":184381.96605833384,"duration":219.6969916666567,"noteNumber":35,"velocity":127,"programNumber":34},{"time":184609.23880833384,"duration":219.6969916666567,"noteNumber":30,"velocity":127,"programNumber":34},{"time":184836.51155833385,"duration":219.6969916666567,"noteNumber":30,"velocity":127,"programNumber":34},{"time":185063.78430833385,"duration":219.6969916666567,"noteNumber":30,"velocity":127,"programNumber":34},{"time":185291.05705833386,"duration":219.6969916666567,"noteNumber":30,"velocity":127,"programNumber":34},{"time":185518.32980833386,"duration":219.6969916666567,"noteNumber":30,"velocity":127,"programNumber":34},{"time":185745.60255833386,"duration":219.6969916666567,"noteNumber":30,"velocity":127,"programNumber":34},{"time":185972.87530833387,"duration":219.6969916666567,"noteNumber":30,"velocity":127,"programNumber":34},{"time":186200.14805833387,"duration":219.6969916666567,"noteNumber":30,"velocity":127,"programNumber":34},{"time":186427.42080833387,"duration":446.9697416666604,"noteNumber":30,"velocity":127,"programNumber":34},{"time":186881.96630833388,"duration":446.9697416666604,"noteNumber":30,"velocity":127,"programNumber":34},{"time":187336.5118083339,"duration":446.9697416666604,"noteNumber":30,"velocity":127,"programNumber":34},{"time":187791.0573083339,"duration":446.9697416666604,"noteNumber":30,"velocity":127,"programNumber":34},{"time":188245.6028083339,"duration":446.9697416666604,"noteNumber":30,"velocity":127,"programNumber":34},{"time":188700.1483083339,"duration":446.9697416666604,"noteNumber":30,"velocity":127,"programNumber":34},{"time":189154.69380833392,"duration":446.9697416666604,"noteNumber":28,"velocity":127,"programNumber":34},{"time":189609.23930833393,"duration":446.9697416666604,"noteNumber":28,"velocity":127,"programNumber":34},{"time":190063.78480833393,"duration":446.9697416666604,"noteNumber":26,"velocity":127,"programNumber":34},{"time":190518.33030833394,"duration":446.9697416666604,"noteNumber":26,"velocity":127,"programNumber":34},{"time":190972.87580833395,"duration":446.9697416666604,"noteNumber":26,"velocity":127,"programNumber":34},{"time":191427.42130833396,"duration":446.9697416666604,"noteNumber":26,"velocity":127,"programNumber":34},{"time":191881.96680833396,"duration":446.9697416666604,"noteNumber":26,"velocity":127,"programNumber":34},{"time":192336.51230833397,"duration":446.9697416666604,"noteNumber":26,"velocity":127,"programNumber":34},{"time":192791.05780833398,"duration":446.9697416666604,"noteNumber":25,"velocity":127,"programNumber":34},{"time":193245.603308334,"duration":446.9697416666604,"noteNumber":25,"velocity":127,"programNumber":34},{"time":193700.148808334,"duration":446.9697416666604,"noteNumber":35,"velocity":127,"programNumber":34},{"time":193700.148808334,"duration":446.9697416666604,"noteNumber":23,"velocity":127,"programNumber":34},{"time":194154.694308334,"duration":446.9697416666604,"noteNumber":23,"velocity":127,"programNumber":34},{"time":194154.694308334,"duration":446.9697416666604,"noteNumber":35,"velocity":127,"programNumber":34},{"time":194609.239808334,"duration":446.9697416666604,"noteNumber":35,"velocity":127,"programNumber":34},{"time":194609.239808334,"duration":446.9697416666604,"noteNumber":23,"velocity":127,"programNumber":34},{"time":195063.78530833402,"duration":446.9697416666604,"noteNumber":23,"velocity":127,"programNumber":34},{"time":195063.78530833402,"duration":446.9697416666604,"noteNumber":35,"velocity":127,"programNumber":34},{"time":195518.33080833402,"duration":446.9697416666604,"noteNumber":35,"velocity":127,"programNumber":34},{"time":195518.33080833402,"duration":446.9697416666604,"noteNumber":23,"velocity":127,"programNumber":34},{"time":195972.87630833403,"duration":446.9697416666604,"noteNumber":23,"velocity":127,"programNumber":34},{"time":195972.87630833403,"duration":446.9697416666604,"noteNumber":35,"velocity":127,"programNumber":34},{"time":196427.42180833404,"duration":446.9697416666604,"noteNumber":35,"velocity":127,"programNumber":34},{"time":196427.42180833404,"duration":446.9697416666604,"noteNumber":23,"velocity":127,"programNumber":34},{"time":196881.96730833405,"duration":446.9697416666604,"noteNumber":23,"velocity":127,"programNumber":34},{"time":196881.96730833405,"duration":446.9697416666604,"noteNumber":35,"velocity":127,"programNumber":34},{"time":197336.51280833405,"duration":219.6969916666567,"noteNumber":30,"velocity":127,"programNumber":34},{"time":197563.78555833406,"duration":219.6969916666567,"noteNumber":30,"velocity":127,"programNumber":34},{"time":197791.05830833406,"duration":219.6969916666567,"noteNumber":30,"velocity":127,"programNumber":34},{"time":198018.33105833406,"duration":219.6969916666567,"noteNumber":30,"velocity":127,"programNumber":34},{"time":198245.60380833407,"duration":219.6969916666567,"noteNumber":30,"velocity":127,"programNumber":34},{"time":198472.87655833407,"duration":219.6969916666567,"noteNumber":30,"velocity":127,"programNumber":34},{"time":198700.14930833408,"duration":219.6969916666567,"noteNumber":30,"velocity":127,"programNumber":34},{"time":198927.42205833408,"duration":219.6969916666567,"noteNumber":30,"velocity":127,"programNumber":34},{"time":199154.69480833408,"duration":219.6969916666567,"noteNumber":30,"velocity":127,"programNumber":34},{"time":199381.9675583341,"duration":219.6969916666567,"noteNumber":30,"velocity":127,"programNumber":34},{"time":199609.2403083341,"duration":219.6969916666567,"noteNumber":30,"velocity":127,"programNumber":34},{"time":199836.5130583341,"duration":219.6969916666567,"noteNumber":30,"velocity":127,"programNumber":34},{"time":200063.7858083341,"duration":219.6969916666567,"noteNumber":30,"velocity":127,"programNumber":34},{"time":200291.0585583341,"duration":219.6969916666567,"noteNumber":30,"velocity":127,"programNumber":34},{"time":200518.3313083341,"duration":219.6969916666567,"noteNumber":28,"velocity":127,"programNumber":34},{"time":200745.6040583341,"duration":219.6969916666567,"noteNumber":28,"velocity":127,"programNumber":34},{"time":200972.8768083341,"duration":219.6969916666567,"noteNumber":26,"velocity":127,"programNumber":34},{"time":201200.14955833412,"duration":219.6969916666567,"noteNumber":26,"velocity":127,"programNumber":34},{"time":201427.42230833412,"duration":219.6969916666567,"noteNumber":26,"velocity":127,"programNumber":34},{"time":201654.69505833412,"duration":219.6969916666567,"noteNumber":26,"velocity":127,"programNumber":34},{"time":201881.96780833413,"duration":219.6969916666567,"noteNumber":26,"velocity":127,"programNumber":34},{"time":202109.24055833413,"duration":219.6969916666567,"noteNumber":26,"velocity":127,"programNumber":34},{"time":202336.51330833414,"duration":219.6969916666567,"noteNumber":25,"velocity":127,"programNumber":34},{"time":202563.78605833414,"duration":219.6969916666567,"noteNumber":25,"velocity":127,"programNumber":34},{"time":202791.05880833414,"duration":219.6969916666567,"noteNumber":35,"velocity":127,"programNumber":34},{"time":202791.05880833414,"duration":219.6969916666567,"noteNumber":23,"velocity":127,"programNumber":34},{"time":203018.33155833415,"duration":219.6969916666567,"noteNumber":23,"velocity":127,"programNumber":34},{"time":203018.33155833415,"duration":219.6969916666567,"noteNumber":35,"velocity":127,"programNumber":34},{"time":203245.60430833415,"duration":219.6969916666567,"noteNumber":35,"velocity":127,"programNumber":34},{"time":203245.60430833415,"duration":219.6969916666567,"noteNumber":23,"velocity":127,"programNumber":34},{"time":203472.87705833415,"duration":219.6969916666567,"noteNumber":23,"velocity":127,"programNumber":34},{"time":203472.87705833415,"duration":219.6969916666567,"noteNumber":35,"velocity":127,"programNumber":34},{"time":203700.14980833416,"duration":219.6969916666567,"noteNumber":35,"velocity":127,"programNumber":34},{"time":203700.14980833416,"duration":219.6969916666567,"noteNumber":23,"velocity":127,"programNumber":34},{"time":203927.42255833416,"duration":219.6969916666567,"noteNumber":23,"velocity":127,"programNumber":34},{"time":203927.42255833416,"duration":219.6969916666567,"noteNumber":35,"velocity":127,"programNumber":34},{"time":204154.69530833417,"duration":219.6969916666567,"noteNumber":35,"velocity":127,"programNumber":34},{"time":204154.69530833417,"duration":219.6969916666567,"noteNumber":23,"velocity":127,"programNumber":34},{"time":204381.96805833417,"duration":219.6969916666567,"noteNumber":23,"velocity":127,"programNumber":34},{"time":204381.96805833417,"duration":219.6969916666567,"noteNumber":35,"velocity":127,"programNumber":34},{"time":204609.24080833417,"duration":219.6969916666567,"noteNumber":37,"velocity":127,"programNumber":34},{"time":204609.24080833417,"duration":219.6969916666567,"noteNumber":25,"velocity":127,"programNumber":34},{"time":204836.51355833418,"duration":219.6969916666567,"noteNumber":25,"velocity":127,"programNumber":34},{"time":204836.51355833418,"duration":219.6969916666567,"noteNumber":37,"velocity":127,"programNumber":34},{"time":205063.78630833418,"duration":219.6969916666567,"noteNumber":37,"velocity":127,"programNumber":34},{"time":205063.78630833418,"duration":219.6969916666567,"noteNumber":25,"velocity":127,"programNumber":34},{"time":205291.05905833418,"duration":219.6969916666567,"noteNumber":25,"velocity":127,"programNumber":34},{"time":205291.05905833418,"duration":219.6969916666567,"noteNumber":37,"velocity":127,"programNumber":34},{"time":205518.3318083342,"duration":219.6969916666567,"noteNumber":37,"velocity":127,"programNumber":34},{"time":205518.3318083342,"duration":219.6969916666567,"noteNumber":25,"velocity":127,"programNumber":34},{"time":205745.6045583342,"duration":219.6969916666567,"noteNumber":25,"velocity":127,"programNumber":34},{"time":205745.6045583342,"duration":219.6969916666567,"noteNumber":37,"velocity":127,"programNumber":34},{"time":205972.8773083342,"duration":219.6969916666567,"noteNumber":37,"velocity":127,"programNumber":34},{"time":205972.8773083342,"duration":219.6969916666567,"noteNumber":25,"velocity":127,"programNumber":34},{"time":206200.1500583342,"duration":219.6969916666567,"noteNumber":25,"velocity":127,"programNumber":34},{"time":206200.1500583342,"duration":219.6969916666567,"noteNumber":37,"velocity":127,"programNumber":34},{"time":206427.4228083342,"duration":219.6969916666567,"noteNumber":30,"velocity":127,"programNumber":34},{"time":206654.6955583342,"duration":219.6969916666567,"noteNumber":30,"velocity":127,"programNumber":34},{"time":208245.6048083342,"duration":219.6969916666567,"noteNumber":33,"velocity":127,"programNumber":34},{"time":208472.8775583342,"duration":219.6969916666567,"noteNumber":33,"velocity":127,"programNumber":34},{"time":209154.6958083342,"duration":219.6969916666567,"noteNumber":28,"velocity":127,"programNumber":34},{"time":209381.9685583342,"duration":219.6969916666567,"noteNumber":28,"velocity":127,"programNumber":34},{"time":210063.78680833417,"duration":219.6969916666567,"noteNumber":30,"velocity":127,"programNumber":34},{"time":210291.05955833418,"duration":219.6969916666567,"noteNumber":30,"velocity":127,"programNumber":34},{"time":211881.96880833418,"duration":219.6969916666567,"noteNumber":38,"velocity":127,"programNumber":34},{"time":212109.24155833418,"duration":219.6969916666567,"noteNumber":38,"velocity":127,"programNumber":34},{"time":212791.05980833416,"duration":219.6969916666567,"noteNumber":37,"velocity":127,"programNumber":34},{"time":213018.33255833416,"duration":219.6969916666567,"noteNumber":37,"velocity":127,"programNumber":34},{"time":213700.15080833415,"duration":219.6969916666567,"noteNumber":30,"velocity":127,"programNumber":34},{"time":213927.42355833415,"duration":219.6969916666567,"noteNumber":30,"velocity":127,"programNumber":34},{"time":215518.33280833415,"duration":219.6969916666567,"noteNumber":33,"velocity":127,"programNumber":34},{"time":215745.60555833415,"duration":219.6969916666567,"noteNumber":33,"velocity":127,"programNumber":34},{"time":216427.42380833413,"duration":219.6969916666567,"noteNumber":28,"velocity":127,"programNumber":34},{"time":216654.69655833414,"duration":219.6969916666567,"noteNumber":28,"velocity":127,"programNumber":34},{"time":217336.51480833412,"duration":219.6969916666567,"noteNumber":30,"velocity":127,"programNumber":34},{"time":217563.78755833412,"duration":219.6969916666567,"noteNumber":30,"velocity":127,"programNumber":34},{"time":219154.69680833412,"duration":901.5152416666679,"noteNumber":38,"velocity":127,"programNumber":34},{"time":220063.78780833413,"duration":901.5152416666679,"noteNumber":40,"velocity":127,"programNumber":34},{"time":220972.87880833415,"duration":219.6969916666567,"noteNumber":33,"velocity":127,"programNumber":34},{"time":221200.15155833415,"duration":219.6969916666567,"noteNumber":45,"velocity":127,"programNumber":34},{"time":221427.42430833416,"duration":219.6969916666567,"noteNumber":33,"velocity":127,"programNumber":34},{"time":221654.69705833416,"duration":219.6969916666567,"noteNumber":45,"velocity":127,"programNumber":34},{"time":221881.96980833416,"duration":219.6969916666567,"noteNumber":33,"velocity":127,"programNumber":34},{"time":222109.24255833417,"duration":219.6969916666567,"noteNumber":45,"velocity":127,"programNumber":34},{"time":222336.51530833417,"duration":219.6969916666567,"noteNumber":33,"velocity":127,"programNumber":34},{"time":222563.78805833418,"duration":219.6969916666567,"noteNumber":45,"velocity":127,"programNumber":34},{"time":222791.06080833418,"duration":219.6969916666567,"noteNumber":33,"velocity":127,"programNumber":34},{"time":223018.33355833418,"duration":219.6969916666567,"noteNumber":45,"velocity":127,"programNumber":34},{"time":223245.6063083342,"duration":219.6969916666567,"noteNumber":33,"velocity":127,"programNumber":34},{"time":223472.8790583342,"duration":219.6969916666567,"noteNumber":44,"velocity":127,"programNumber":34},{"time":223700.1518083342,"duration":219.6969916666567,"noteNumber":33,"velocity":127,"programNumber":34},{"time":223927.4245583342,"duration":219.6969916666567,"noteNumber":42,"velocity":127,"programNumber":34},{"time":224154.6973083342,"duration":219.6969916666567,"noteNumber":33,"velocity":127,"programNumber":34},{"time":224381.9700583342,"duration":219.6969916666567,"noteNumber":40,"velocity":127,"programNumber":34},{"time":224609.2428083342,"duration":219.6969916666567,"noteNumber":33,"velocity":127,"programNumber":34},{"time":224836.5155583342,"duration":219.6969916666567,"noteNumber":45,"velocity":127,"programNumber":34},{"time":225063.78830833422,"duration":219.6969916666567,"noteNumber":33,"velocity":127,"programNumber":34},{"time":225291.06105833422,"duration":219.6969916666567,"noteNumber":45,"velocity":127,"programNumber":34},{"time":225518.33380833422,"duration":219.6969916666567,"noteNumber":33,"velocity":127,"programNumber":34},{"time":225745.60655833423,"duration":219.6969916666567,"noteNumber":45,"velocity":127,"programNumber":34},{"time":225972.87930833423,"duration":219.6969916666567,"noteNumber":33,"velocity":127,"programNumber":34},{"time":226200.15205833424,"duration":219.6969916666567,"noteNumber":45,"velocity":127,"programNumber":34},{"time":226427.42480833424,"duration":219.6969916666567,"noteNumber":33,"velocity":127,"programNumber":34},{"time":226654.69755833424,"duration":219.6969916666567,"noteNumber":45,"velocity":127,"programNumber":34},{"time":226881.97030833425,"duration":219.6969916666567,"noteNumber":33,"velocity":127,"programNumber":34},{"time":227109.24305833425,"duration":219.6969916666567,"noteNumber":44,"velocity":127,"programNumber":34},{"time":227336.51580833425,"duration":219.6969916666567,"noteNumber":33,"velocity":127,"programNumber":34},{"time":227563.78855833426,"duration":219.6969916666567,"noteNumber":42,"velocity":127,"programNumber":34},{"time":227791.06130833426,"duration":219.6969916666567,"noteNumber":33,"velocity":127,"programNumber":34},{"time":228018.33405833427,"duration":219.6969916666567,"noteNumber":40,"velocity":127,"programNumber":34},{"time":228245.60680833427,"duration":219.6969916666567,"noteNumber":33,"velocity":127,"programNumber":34},{"time":228472.87955833427,"duration":219.6969916666567,"noteNumber":45,"velocity":127,"programNumber":34},{"time":228700.15230833428,"duration":219.6969916666567,"noteNumber":33,"velocity":127,"programNumber":34},{"time":228927.42505833428,"duration":219.6969916666567,"noteNumber":45,"velocity":127,"programNumber":34},{"time":229154.69780833428,"duration":219.6969916666567,"noteNumber":33,"velocity":127,"programNumber":34},{"time":229381.9705583343,"duration":219.6969916666567,"noteNumber":45,"velocity":127,"programNumber":34},{"time":229609.2433083343,"duration":219.6969916666567,"noteNumber":33,"velocity":127,"programNumber":34},{"time":229836.5160583343,"duration":219.6969916666567,"noteNumber":45,"velocity":127,"programNumber":34},{"time":230063.7888083343,"duration":219.6969916666567,"noteNumber":33,"velocity":127,"programNumber":34},{"time":230291.0615583343,"duration":219.6969916666567,"noteNumber":45,"velocity":127,"programNumber":34},{"time":230518.3343083343,"duration":219.6969916666567,"noteNumber":33,"velocity":127,"programNumber":34},{"time":230745.6070583343,"duration":219.6969916666567,"noteNumber":44,"velocity":127,"programNumber":34},{"time":230972.8798083343,"duration":219.6969916666567,"noteNumber":33,"velocity":127,"programNumber":34},{"time":231200.15255833432,"duration":219.6969916666567,"noteNumber":42,"velocity":127,"programNumber":34},{"time":231427.42530833432,"duration":219.6969916666567,"noteNumber":33,"velocity":127,"programNumber":34},{"time":231654.69805833432,"duration":219.6969916666567,"noteNumber":40,"velocity":127,"programNumber":34},{"time":231881.97080833433,"duration":219.6969916666567,"noteNumber":33,"velocity":127,"programNumber":34},{"time":232109.24355833433,"duration":219.6969916666567,"noteNumber":45,"velocity":127,"programNumber":34},{"time":232336.51630833434,"duration":219.6969916666567,"noteNumber":33,"velocity":127,"programNumber":34},{"time":232563.78905833434,"duration":219.6969916666567,"noteNumber":45,"velocity":127,"programNumber":34},{"time":232791.06180833434,"duration":219.6969916666567,"noteNumber":33,"velocity":127,"programNumber":34},{"time":233018.33455833435,"duration":219.6969916666567,"noteNumber":45,"velocity":127,"programNumber":34},{"time":233245.60730833435,"duration":219.6969916666567,"noteNumber":33,"velocity":127,"programNumber":34},{"time":233472.88005833435,"duration":219.6969916666567,"noteNumber":45,"velocity":127,"programNumber":34},{"time":233700.15280833436,"duration":219.6969916666567,"noteNumber":33,"velocity":127,"programNumber":34},{"time":233927.42555833436,"duration":219.6969916666567,"noteNumber":45,"velocity":127,"programNumber":34},{"time":234154.69830833437,"duration":219.6969916666567,"noteNumber":33,"velocity":127,"programNumber":34},{"time":234381.97105833437,"duration":219.6969916666567,"noteNumber":44,"velocity":127,"programNumber":34},{"time":234609.24380833437,"duration":219.6969916666567,"noteNumber":33,"velocity":127,"programNumber":34},{"time":234836.51655833438,"duration":219.6969916666567,"noteNumber":42,"velocity":127,"programNumber":34},{"time":235063.78930833438,"duration":219.6969916666567,"noteNumber":33,"velocity":127,"programNumber":34},{"time":235291.06205833438,"duration":219.6969916666567,"noteNumber":40,"velocity":127,"programNumber":34},{"time":235518.3348083344,"duration":219.6969916666567,"noteNumber":33,"velocity":127,"programNumber":34},{"time":235745.6075583344,"duration":219.6969916666567,"noteNumber":45,"velocity":127,"programNumber":34},{"time":235972.8803083344,"duration":219.6969916666567,"noteNumber":33,"velocity":127,"programNumber":34},{"time":236200.1530583344,"duration":219.6969916666567,"noteNumber":45,"velocity":127,"programNumber":34},{"time":236427.4258083344,"duration":219.6969916666567,"noteNumber":33,"velocity":127,"programNumber":34},{"time":236654.6985583344,"duration":219.6969916666567,"noteNumber":45,"velocity":127,"programNumber":34},{"time":236881.9713083344,"duration":219.6969916666567,"noteNumber":33,"velocity":127,"programNumber":34},{"time":237109.2440583344,"duration":219.6969916666567,"noteNumber":45,"velocity":127,"programNumber":34},{"time":237336.51680833442,"duration":219.6969916666567,"noteNumber":33,"velocity":127,"programNumber":34},{"time":237563.78955833442,"duration":219.6969916666567,"noteNumber":45,"velocity":127,"programNumber":34},{"time":237791.06230833443,"duration":219.6969916666567,"noteNumber":33,"velocity":127,"programNumber":34},{"time":238018.33505833443,"duration":219.6969916666567,"noteNumber":44,"velocity":127,"programNumber":34},{"time":238245.60780833443,"duration":219.6969916666567,"noteNumber":33,"velocity":127,"programNumber":34},{"time":238472.88055833444,"duration":219.6969916666567,"noteNumber":42,"velocity":127,"programNumber":34},{"time":238700.15330833444,"duration":219.6969916666567,"noteNumber":33,"velocity":127,"programNumber":34},{"time":238927.42605833444,"duration":219.6969916666567,"noteNumber":40,"velocity":127,"programNumber":34},{"time":239154.69880833445,"duration":219.6969916666567,"noteNumber":33,"velocity":127,"programNumber":34},{"time":239381.97155833445,"duration":219.6969916666567,"noteNumber":45,"velocity":127,"programNumber":34},{"time":239609.24430833446,"duration":219.6969916666567,"noteNumber":33,"velocity":127,"programNumber":34},{"time":239836.51705833446,"duration":219.6969916666567,"noteNumber":45,"velocity":127,"programNumber":34},{"time":240063.78980833446,"duration":219.6969916666567,"noteNumber":33,"velocity":127,"programNumber":34},{"time":240291.06255833447,"duration":219.6969916666567,"noteNumber":45,"velocity":127,"programNumber":34},{"time":240518.33530833447,"duration":219.6969916666567,"noteNumber":33,"velocity":127,"programNumber":34},{"time":240745.60805833447,"duration":219.6969916666567,"noteNumber":45,"velocity":127,"programNumber":34},{"time":240972.88080833448,"duration":219.6969916666567,"noteNumber":33,"velocity":127,"programNumber":34},{"time":241200.15355833448,"duration":219.6969916666567,"noteNumber":45,"velocity":127,"programNumber":34},{"time":241427.42630833448,"duration":219.6969916666567,"noteNumber":33,"velocity":127,"programNumber":34},{"time":241654.6990583345,"duration":219.6969916666567,"noteNumber":44,"velocity":127,"programNumber":34},{"time":241881.9718083345,"duration":219.6969916666567,"noteNumber":33,"velocity":127,"programNumber":34},{"time":242109.2445583345,"duration":219.6969916666567,"noteNumber":42,"velocity":127,"programNumber":34},{"time":242336.5173083345,"duration":219.6969916666567,"noteNumber":33,"velocity":127,"programNumber":34},{"time":242563.7900583345,"duration":219.6969916666567,"noteNumber":40,"velocity":127,"programNumber":34},{"time":242791.0628083345,"duration":219.6969916666567,"noteNumber":33,"velocity":127,"programNumber":34},{"time":243018.3355583345,"duration":219.6969916666567,"noteNumber":45,"velocity":127,"programNumber":34},{"time":243245.60830833451,"duration":219.6969916666567,"noteNumber":33,"velocity":127,"programNumber":34},{"time":243472.88105833452,"duration":219.6969916666567,"noteNumber":45,"velocity":127,"programNumber":34},{"time":243700.15380833452,"duration":219.6969916666567,"noteNumber":33,"velocity":127,"programNumber":34},{"time":243927.42655833453,"duration":219.6969916666567,"noteNumber":45,"velocity":127,"programNumber":34},{"time":244154.69930833453,"duration":219.6969916666567,"noteNumber":33,"velocity":127,"programNumber":34},{"time":244381.97205833453,"duration":219.6969916666567,"noteNumber":45,"velocity":127,"programNumber":34},{"time":244609.24480833454,"duration":219.6969916666567,"noteNumber":33,"velocity":127,"programNumber":34},{"time":244836.51755833454,"duration":219.6969916666567,"noteNumber":45,"velocity":127,"programNumber":34},{"time":245063.79030833454,"duration":219.6969916666567,"noteNumber":33,"velocity":127,"programNumber":34},{"time":245291.06305833455,"duration":219.6969916666567,"noteNumber":44,"velocity":127,"programNumber":34},{"time":245518.33580833455,"duration":219.6969916666567,"noteNumber":33,"velocity":127,"programNumber":34},{"time":245745.60855833456,"duration":219.6969916666567,"noteNumber":42,"velocity":127,"programNumber":34},{"time":245972.88130833456,"duration":219.6969916666567,"noteNumber":33,"velocity":127,"programNumber":34},{"time":246200.15405833456,"duration":219.6969916666567,"noteNumber":40,"velocity":127,"programNumber":34},{"time":246427.42680833457,"duration":219.6969916666567,"noteNumber":33,"velocity":127,"programNumber":34},{"time":246654.69955833457,"duration":219.6969916666567,"noteNumber":45,"velocity":127,"programNumber":34},{"time":246881.97230833457,"duration":219.6969916666567,"noteNumber":33,"velocity":127,"programNumber":34},{"time":247109.24505833458,"duration":219.6969916666567,"noteNumber":45,"velocity":127,"programNumber":34},{"time":247336.51780833458,"duration":219.6969916666567,"noteNumber":33,"velocity":127,"programNumber":34},{"time":247563.7905583346,"duration":219.6969916666567,"noteNumber":45,"velocity":127,"programNumber":34},{"time":247791.0633083346,"duration":219.6969916666567,"noteNumber":33,"velocity":127,"programNumber":34},{"time":248018.3360583346,"duration":219.6969916666567,"noteNumber":45,"velocity":127,"programNumber":34},{"time":248245.6088083346,"duration":219.6969916666567,"noteNumber":33,"velocity":127,"programNumber":34},{"time":248472.8815583346,"duration":219.6969916666567,"noteNumber":45,"velocity":127,"programNumber":34},{"time":248700.1543083346,"duration":219.6969916666567,"noteNumber":33,"velocity":127,"programNumber":34},{"time":248927.4270583346,"duration":219.6969916666567,"noteNumber":44,"velocity":127,"programNumber":34},{"time":249154.6998083346,"duration":219.6969916666567,"noteNumber":33,"velocity":127,"programNumber":34},{"time":249381.97255833462,"duration":219.6969916666567,"noteNumber":42,"velocity":127,"programNumber":34},{"time":249609.24530833462,"duration":219.6969916666567,"noteNumber":33,"velocity":127,"programNumber":34},{"time":249836.51805833462,"duration":219.6969916666567,"noteNumber":40,"velocity":127,"programNumber":34},{"time":250063.79080833463,"duration":219.6969916666567,"noteNumber":33,"velocity":127,"programNumber":34},{"time":250291.06355833463,"duration":219.6969916666567,"noteNumber":45,"velocity":127,"programNumber":34},{"time":250518.33630833463,"duration":219.6969916666567,"noteNumber":33,"velocity":127,"programNumber":34},{"time":250745.60905833464,"duration":219.6969916666567,"noteNumber":45,"velocity":127,"programNumber":34},{"time":250972.88180833464,"duration":219.6969916666567,"noteNumber":33,"velocity":127,"programNumber":34},{"time":251200.15455833465,"duration":219.6969916666567,"noteNumber":45,"velocity":127,"programNumber":34},{"time":251427.42730833465,"duration":219.6969916666567,"noteNumber":33,"velocity":127,"programNumber":34},{"time":251654.70005833465,"duration":219.6969916666567,"noteNumber":45,"velocity":127,"programNumber":34},{"time":251881.97280833466,"duration":219.6969916666567,"noteNumber":33,"velocity":127,"programNumber":34},{"time":252109.24555833466,"duration":219.6969916666567,"noteNumber":45,"velocity":127,"programNumber":34},{"time":252336.51830833466,"duration":219.6969916666567,"noteNumber":33,"velocity":127,"programNumber":34},{"time":252563.79105833467,"duration":219.6969916666567,"noteNumber":44,"velocity":127,"programNumber":34},{"time":252791.06380833467,"duration":219.6969916666567,"noteNumber":33,"velocity":127,"programNumber":34},{"time":253018.33655833467,"duration":219.6969916666567,"noteNumber":42,"velocity":127,"programNumber":34},{"time":253245.60930833468,"duration":219.6969916666567,"noteNumber":33,"velocity":127,"programNumber":34},{"time":253472.88205833468,"duration":219.6969916666567,"noteNumber":40,"velocity":127,"programNumber":34},{"time":253700.1548083347,"duration":219.6969916666567,"noteNumber":33,"velocity":127,"programNumber":34},{"time":253927.4275583347,"duration":219.6969916666567,"noteNumber":45,"velocity":127,"programNumber":34},{"time":254154.7003083347,"duration":219.6969916666567,"noteNumber":33,"velocity":127,"programNumber":34},{"time":254381.9730583347,"duration":219.6969916666567,"noteNumber":45,"velocity":127,"programNumber":34},{"time":254609.2458083347,"duration":219.6969916666567,"noteNumber":33,"velocity":127,"programNumber":34},{"time":254836.5185583347,"duration":219.6969916666567,"noteNumber":45,"velocity":127,"programNumber":34},{"time":255063.7913083347,"duration":219.6969916666567,"noteNumber":33,"velocity":127,"programNumber":34},{"time":255291.0640583347,"duration":219.6969916666567,"noteNumber":45,"velocity":127,"programNumber":34},{"time":255518.33680833472,"duration":219.6969916666567,"noteNumber":33,"velocity":127,"programNumber":34},{"time":255745.60955833472,"duration":219.6969916666567,"noteNumber":45,"velocity":127,"programNumber":34},{"time":255972.88230833472,"duration":219.6969916666567,"noteNumber":33,"velocity":127,"programNumber":34},{"time":256200.15505833473,"duration":219.6969916666567,"noteNumber":44,"velocity":127,"programNumber":34},{"time":256427.42780833473,"duration":219.6969916666567,"noteNumber":33,"velocity":127,"programNumber":34},{"time":256654.70055833473,"duration":219.6969916666567,"noteNumber":42,"velocity":127,"programNumber":34},{"time":256881.97330833474,"duration":219.6969916666567,"noteNumber":33,"velocity":127,"programNumber":34},{"time":257109.24605833474,"duration":219.6969916666567,"noteNumber":40,"velocity":127,"programNumber":34},{"time":257336.51880833475,"duration":446.9697416666604,"noteNumber":30,"velocity":127,"programNumber":34},{"time":257336.51880833475,"duration":446.9697416666604,"noteNumber":42,"velocity":127,"programNumber":34},{"time":257791.06430833475,"duration":446.9697416666604,"noteNumber":30,"velocity":127,"programNumber":34},{"time":257791.06430833475,"duration":446.9697416666604,"noteNumber":42,"velocity":127,"programNumber":34},{"time":258245.60980833476,"duration":446.9697416666604,"noteNumber":28,"velocity":127,"programNumber":34},{"time":258245.60980833476,"duration":446.9697416666604,"noteNumber":40,"velocity":127,"programNumber":34},{"time":258700.15530833477,"duration":446.9697416666604,"noteNumber":28,"velocity":127,"programNumber":34},{"time":258700.15530833477,"duration":446.9697416666604,"noteNumber":40,"velocity":127,"programNumber":34},{"time":259154.70080833478,"duration":901.5152416666679,"noteNumber":26,"velocity":127,"programNumber":34},{"time":259154.70080833478,"duration":901.5152416666679,"noteNumber":38,"velocity":127,"programNumber":34},{"time":260972.88280833478,"duration":446.9697416666604,"noteNumber":30,"velocity":127,"programNumber":34},{"time":260972.88280833478,"duration":446.9697416666604,"noteNumber":42,"velocity":127,"programNumber":34},{"time":261427.42830833478,"duration":446.9697416666604,"noteNumber":30,"velocity":127,"programNumber":34},{"time":261427.42830833478,"duration":446.9697416666604,"noteNumber":42,"velocity":127,"programNumber":34},{"time":261881.9738083348,"duration":446.9697416666895,"noteNumber":28,"velocity":127,"programNumber":34},{"time":261881.9738083348,"duration":446.9697416666895,"noteNumber":40,"velocity":127,"programNumber":34},{"time":262336.5193083348,"duration":446.9697416666895,"noteNumber":28,"velocity":127,"programNumber":34},{"time":262336.5193083348,"duration":446.9697416666895,"noteNumber":40,"velocity":127,"programNumber":34},{"time":262791.0648083348,"duration":901.5152416666388,"noteNumber":26,"velocity":127,"programNumber":34},{"time":262791.0648083348,"duration":901.5152416666388,"noteNumber":38,"velocity":127,"programNumber":34},{"time":264609.2468083348,"duration":446.9697416666895,"noteNumber":33,"velocity":127,"programNumber":34},{"time":264609.2468083348,"duration":446.9697416666895,"noteNumber":45,"velocity":127,"programNumber":34},{"time":265063.7923083348,"duration":446.9697416666895,"noteNumber":33,"velocity":127,"programNumber":34},{"time":265063.7923083348,"duration":446.9697416666895,"noteNumber":45,"velocity":127,"programNumber":34},{"time":265518.3378083348,"duration":446.9697416666895,"noteNumber":33,"velocity":127,"programNumber":34},{"time":265518.3378083348,"duration":446.9697416666895,"noteNumber":45,"velocity":127,"programNumber":34},{"time":265972.8833083348,"duration":446.9697416666895,"noteNumber":33,"velocity":127,"programNumber":34},{"time":265972.8833083348,"duration":446.9697416666895,"noteNumber":45,"velocity":127,"programNumber":34},{"time":266427.4288083348,"duration":446.9697416666895,"noteNumber":28,"velocity":127,"programNumber":34},{"time":266427.4288083348,"duration":446.9697416666895,"noteNumber":40,"velocity":127,"programNumber":34},{"time":266881.9743083348,"duration":446.9697416666895,"noteNumber":28,"velocity":127,"programNumber":34},{"time":266881.9743083348,"duration":446.9697416666895,"noteNumber":40,"velocity":127,"programNumber":34},{"time":267336.5198083348,"duration":446.9697416666895,"noteNumber":40,"velocity":127,"programNumber":34},{"time":267336.5198083348,"duration":446.9697416666895,"noteNumber":28,"velocity":127,"programNumber":34},{"time":267791.06530833483,"duration":446.9697416666895,"noteNumber":28,"velocity":127,"programNumber":34},{"time":267791.06530833483,"duration":446.9697416666895,"noteNumber":40,"velocity":127,"programNumber":34},{"time":268245.61080833484,"duration":446.9697416666895,"noteNumber":30,"velocity":127,"programNumber":34},{"time":268245.61080833484,"duration":446.9697416666895,"noteNumber":42,"velocity":127,"programNumber":34},{"time":268700.15630833484,"duration":446.9697416666895,"noteNumber":30,"velocity":127,"programNumber":34},{"time":268700.15630833484,"duration":446.9697416666895,"noteNumber":42,"velocity":127,"programNumber":34},{"time":269154.70180833485,"duration":446.9697416666895,"noteNumber":30,"velocity":127,"programNumber":34},{"time":269154.70180833485,"duration":446.9697416666895,"noteNumber":42,"velocity":127,"programNumber":34},{"time":269609.24730833486,"duration":446.9697416666895,"noteNumber":30,"velocity":127,"programNumber":34},{"time":269609.24730833486,"duration":446.9697416666895,"noteNumber":42,"velocity":127,"programNumber":34},{"time":270063.79280833487,"duration":446.9697416666895,"noteNumber":30,"velocity":127,"programNumber":34},{"time":270063.79280833487,"duration":446.9697416666895,"noteNumber":42,"velocity":127,"programNumber":34},{"time":270518.3383083349,"duration":446.9697416666895,"noteNumber":30,"velocity":127,"programNumber":34},{"time":270518.3383083349,"duration":446.9697416666895,"noteNumber":42,"velocity":127,"programNumber":34},{"time":270972.8838083349,"duration":446.9697416666895,"noteNumber":30,"velocity":127,"programNumber":34},{"time":270972.8838083349,"duration":446.9697416666895,"noteNumber":42,"velocity":127,"programNumber":34},{"time":271427.4293083349,"duration":446.9697416666895,"noteNumber":30,"velocity":127,"programNumber":34},{"time":271427.4293083349,"duration":446.9697416666895,"noteNumber":42,"velocity":127,"programNumber":34},{"time":271881.9748083349,"duration":446.9697416666895,"noteNumber":33,"velocity":127,"programNumber":34},{"time":271881.9748083349,"duration":446.9697416666895,"noteNumber":45,"velocity":127,"programNumber":34},{"time":272336.5203083349,"duration":446.9697416666895,"noteNumber":33,"velocity":127,"programNumber":34},{"time":272336.5203083349,"duration":446.9697416666895,"noteNumber":45,"velocity":127,"programNumber":34},{"time":272791.0658083349,"duration":446.9697416666895,"noteNumber":33,"velocity":127,"programNumber":34},{"time":272791.0658083349,"duration":446.9697416666895,"noteNumber":45,"velocity":127,"programNumber":34},{"time":273245.6113083349,"duration":446.9697416666895,"noteNumber":33,"velocity":127,"programNumber":34},{"time":273245.6113083349,"duration":446.9697416666895,"noteNumber":45,"velocity":127,"programNumber":34},{"time":273700.1568083349,"duration":446.9697416666895,"noteNumber":28,"velocity":127,"programNumber":34},{"time":273700.1568083349,"duration":446.9697416666895,"noteNumber":40,"velocity":127,"programNumber":34},{"time":274154.70230833493,"duration":446.9697416666895,"noteNumber":28,"velocity":127,"programNumber":34},{"time":274154.70230833493,"duration":446.9697416666895,"noteNumber":40,"velocity":127,"programNumber":34},{"time":274609.24780833494,"duration":446.9697416666895,"noteNumber":40,"velocity":127,"programNumber":34},{"time":274609.24780833494,"duration":446.9697416666895,"noteNumber":28,"velocity":127,"programNumber":34},{"time":275063.79330833495,"duration":446.9697416666895,"noteNumber":28,"velocity":127,"programNumber":34},{"time":275063.79330833495,"duration":446.9697416666895,"noteNumber":40,"velocity":127,"programNumber":34},{"time":275518.33880833496,"duration":446.9697416666895,"noteNumber":42,"velocity":127,"programNumber":34},{"time":275972.88430833496,"duration":446.9697416666895,"noteNumber":42,"velocity":127,"programNumber":34},{"time":276427.429808335,"duration":227.27275000000373,"noteNumber":42,"velocity":127,"programNumber":34},{"time":276654.702558335,"duration":219.6969916666858,"noteNumber":42,"velocity":127,"programNumber":34},{"time":276881.975308335,"duration":219.6969916666858,"noteNumber":40,"velocity":127,"programNumber":34},{"time":277109.248058335,"duration":219.6969916666858,"noteNumber":38,"velocity":127,"programNumber":34},{"time":277336.520808335,"duration":219.6969916666858,"noteNumber":38,"velocity":127,"programNumber":34},{"time":277563.793558335,"duration":219.6969916666858,"noteNumber":38,"velocity":127,"programNumber":34},{"time":277791.066308335,"duration":219.6969916666858,"noteNumber":38,"velocity":127,"programNumber":34},{"time":278018.339058335,"duration":219.6969916666858,"noteNumber":40,"velocity":127,"programNumber":34},{"time":278245.611808335,"duration":219.6969916666858,"noteNumber":40,"velocity":127,"programNumber":34},{"time":278472.884558335,"duration":219.6969916666858,"noteNumber":40,"velocity":127,"programNumber":34},{"time":278700.157308335,"duration":219.6969916666858,"noteNumber":40,"velocity":127,"programNumber":34},{"time":278927.430058335,"duration":219.6969916666858,"noteNumber":40,"velocity":127,"programNumber":34},{"time":279154.702808335,"duration":446.9697416666895,"noteNumber":42,"velocity":127,"programNumber":34},{"time":279609.248308335,"duration":446.9697416666895,"noteNumber":42,"velocity":127,"programNumber":34},{"time":280063.79380833503,"duration":227.27275000000373,"noteNumber":42,"velocity":127,"programNumber":34},{"time":280291.06655833503,"duration":219.6969916666858,"noteNumber":42,"velocity":127,"programNumber":34},{"time":280518.33930833504,"duration":219.6969916666858,"noteNumber":40,"velocity":127,"programNumber":34},{"time":280745.61205833504,"duration":219.6969916666858,"noteNumber":38,"velocity":127,"programNumber":34},{"time":280972.88480833505,"duration":219.6969916666858,"noteNumber":38,"velocity":127,"programNumber":34},{"time":281200.15755833505,"duration":219.6969916666858,"noteNumber":38,"velocity":127,"programNumber":34},{"time":281427.43030833505,"duration":219.6969916666858,"noteNumber":38,"velocity":127,"programNumber":34},{"time":281654.70305833506,"duration":219.6969916666858,"noteNumber":40,"velocity":127,"programNumber":34},{"time":281881.97580833506,"duration":219.6969916666858,"noteNumber":40,"velocity":127,"programNumber":34},{"time":282109.24855833506,"duration":219.6969916666858,"noteNumber":40,"velocity":127,"programNumber":34},{"time":282336.52130833507,"duration":219.6969916666858,"noteNumber":40,"velocity":127,"programNumber":34},{"time":282563.7940583351,"duration":219.6969916666858,"noteNumber":40,"velocity":127,"programNumber":34},{"time":282791.0668083351,"duration":219.6969916666858,"noteNumber":30,"velocity":127,"programNumber":34},{"time":283018.3395583351,"duration":219.6969916666858,"noteNumber":30,"velocity":127,"programNumber":34},{"time":284609.2488083351,"duration":219.6969916666858,"noteNumber":33,"velocity":127,"programNumber":34},{"time":284836.5215583351,"duration":219.6969916666858,"noteNumber":33,"velocity":127,"programNumber":34},{"time":285518.3398083351,"duration":219.6969916666858,"noteNumber":28,"velocity":127,"programNumber":34},{"time":285745.6125583351,"duration":219.6969916666858,"noteNumber":28,"velocity":127,"programNumber":34},{"time":286427.43080833514,"duration":219.6969916666858,"noteNumber":30,"velocity":127,"programNumber":34},{"time":286654.70355833514,"duration":219.6969916666858,"noteNumber":30,"velocity":127,"programNumber":34},{"time":288245.61280833517,"duration":219.6969916666858,"noteNumber":38,"velocity":127,"programNumber":34},{"time":288472.88555833517,"duration":219.6969916666858,"noteNumber":38,"velocity":127,"programNumber":34},{"time":289154.7038083352,"duration":219.6969916666858,"noteNumber":40,"velocity":127,"programNumber":34},{"time":289381.9765583352,"duration":219.6969916666858,"noteNumber":40,"velocity":127,"programNumber":34},{"time":290063.7948083352,"duration":219.6969916666858,"noteNumber":30,"velocity":127,"programNumber":34},{"time":290291.0675583352,"duration":219.6969916666858,"noteNumber":30,"velocity":127,"programNumber":34},{"time":291881.9768083352,"duration":219.6969916666858,"noteNumber":33,"velocity":127,"programNumber":34},{"time":292109.2495583352,"duration":219.6969916666858,"noteNumber":33,"velocity":127,"programNumber":34},{"time":292791.06780833524,"duration":219.6969916666858,"noteNumber":28,"velocity":127,"programNumber":34},{"time":293018.34055833524,"duration":219.6969916666858,"noteNumber":28,"velocity":127,"programNumber":34},{"time":293700.15880833525,"duration":219.6969916666858,"noteNumber":30,"velocity":127,"programNumber":34},{"time":293927.43155833526,"duration":219.6969916666858,"noteNumber":30,"velocity":127,"programNumber":34},{"time":295518.3408083353,"duration":219.6969916666858,"noteNumber":38,"velocity":127,"programNumber":34},{"time":295745.6135583353,"duration":219.6969916666858,"noteNumber":38,"velocity":127,"programNumber":34},{"time":296427.4318083353,"duration":219.6969916666858,"noteNumber":40,"velocity":127,"programNumber":34},{"time":296654.7045583353,"duration":219.6969916666858,"noteNumber":40,"velocity":127,"programNumber":34},{"time":297336.5228083353,"duration":219.6969916666858,"noteNumber":30,"velocity":127,"programNumber":34},{"time":297563.7955583353,"duration":219.6969916666858,"noteNumber":30,"velocity":127,"programNumber":34},{"time":299154.70480833534,"duration":219.6969916666858,"noteNumber":33,"velocity":127,"programNumber":34},{"time":299381.97755833535,"duration":219.6969916666858,"noteNumber":33,"velocity":127,"programNumber":34},{"time":300063.79580833536,"duration":219.6969916666858,"noteNumber":28,"velocity":127,"programNumber":34},{"time":300291.06855833536,"duration":219.6969916666858,"noteNumber":28,"velocity":127,"programNumber":34},{"time":300972.8868083354,"duration":219.6969916666858,"noteNumber":30,"velocity":127,"programNumber":34},{"time":301200.1595583354,"duration":219.6969916666858,"noteNumber":30,"velocity":127,"programNumber":34},{"time":302791.0688083354,"duration":219.6969916666858,"noteNumber":38,"velocity":127,"programNumber":34},{"time":303018.3415583354,"duration":219.6969916666858,"noteNumber":38,"velocity":127,"programNumber":34},{"time":303700.1598083354,"duration":219.6969916666858,"noteNumber":40,"velocity":127,"programNumber":34},{"time":303927.4325583354,"duration":219.6969916666858,"noteNumber":40,"velocity":127,"programNumber":34},{"time":304609.25080833543,"duration":219.6969916666858,"noteNumber":30,"velocity":127,"programNumber":34},{"time":304836.52355833544,"duration":219.6969916666858,"noteNumber":30,"velocity":127,"programNumber":34},{"time":306427.43280833546,"duration":219.6969916666858,"noteNumber":33,"velocity":127,"programNumber":34},{"time":306654.70555833547,"duration":219.6969916666858,"noteNumber":33,"velocity":127,"programNumber":34},{"time":307336.5238083355,"duration":219.6969916666858,"noteNumber":28,"velocity":127,"programNumber":34},{"time":307563.7965583355,"duration":219.6969916666858,"noteNumber":28,"velocity":127,"programNumber":34},{"time":308245.6148083355,"duration":219.6969916666858,"noteNumber":30,"velocity":127,"programNumber":34},{"time":308472.8875583355,"duration":219.6969916666858,"noteNumber":30,"velocity":127,"programNumber":34},{"time":310063.7968083355,"duration":219.6969916666858,"noteNumber":38,"velocity":127,"programNumber":34},{"time":310291.0695583355,"duration":219.6969916666858,"noteNumber":38,"velocity":127,"programNumber":34},{"time":310972.88780833554,"duration":219.6969916666858,"noteNumber":40,"velocity":127,"programNumber":34},{"time":311200.16055833554,"duration":219.6969916666858,"noteNumber":40,"velocity":127,"programNumber":34}],[{"time":35820.88,"duration":261.1939166666634,"noteNumber":64,"velocity":113,"programNumber":80},{"time":36022.372449999995,"duration":328.3580666666676,"noteNumber":61,"velocity":113,"programNumber":80},{"time":38312.851924999995,"duration":257.5757833333337,"noteNumber":61,"velocity":113,"programNumber":80},{"time":38517.397399999994,"duration":204.545474999999,"noteNumber":59,"velocity":113,"programNumber":80},{"time":38706.79135833333,"duration":257.5757833333337,"noteNumber":57,"velocity":113,"programNumber":80},{"time":38956.79138333333,"duration":265.1515416666589,"noteNumber":56,"velocity":113,"programNumber":80},{"time":39191.63989166666,"duration":333.3333666666658,"noteNumber":57,"velocity":113,"programNumber":80},{"time":39532.54901666666,"duration":128.78789166666684,"noteNumber":59,"velocity":113,"programNumber":80},{"time":39623.458116666654,"duration":515.1515666666673,"noteNumber":61,"velocity":113,"programNumber":80},{"time":43055.276641666656,"duration":174.24244166666904,"noteNumber":69,"velocity":113,"programNumber":80},{"time":43290.12514999999,"duration":143.9394083333318,"noteNumber":69,"velocity":113,"programNumber":80},{"time":43524.97365833332,"duration":174.24244166666904,"noteNumber":69,"velocity":113,"programNumber":80},{"time":43752.246408333325,"duration":151.5151666666643,"noteNumber":64,"velocity":113,"programNumber":80},{"time":43843.15550833332,"duration":356.0606416666633,"noteNumber":66,"velocity":113,"programNumber":80},{"time":44184.06463333332,"duration":924.2425166666653,"noteNumber":64,"velocity":113,"programNumber":80},{"time":45562.852649999986,"duration":484.8485333333301,"noteNumber":66,"velocity":113,"programNumber":80},{"time":46047.701183333316,"duration":113.63637500000186,"noteNumber":64,"velocity":113,"programNumber":80},{"time":46274.97393333332,"duration":128.78789166666684,"noteNumber":64,"velocity":113,"programNumber":80},{"time":46502.246683333324,"duration":454.5455000000002,"noteNumber":62,"velocity":113,"programNumber":80},{"time":46934.06490833333,"duration":257.5757833333264,"noteNumber":64,"velocity":113,"programNumber":80},{"time":47176.48917499999,"duration":250.0000250000012,"noteNumber":62,"velocity":113,"programNumber":80},{"time":47381.03464999999,"duration":250.0000250000012,"noteNumber":61,"velocity":113,"programNumber":80},{"time":47615.88315833332,"duration":719.6970416666663,"noteNumber":57,"velocity":113,"programNumber":80},{"time":50320.42888333332,"duration":295.4545750000034,"noteNumber":64,"velocity":113,"programNumber":80},{"time":50562.85314999999,"duration":363.63640000000305,"noteNumber":61,"velocity":113,"programNumber":80},{"time":52828.00489166666,"duration":257.5757833333264,"noteNumber":61,"velocity":113,"programNumber":80},{"time":53055.27764166665,"duration":257.5757833333264,"noteNumber":59,"velocity":113,"programNumber":80},{"time":53297.701908333314,"duration":257.5757833333264,"noteNumber":57,"velocity":113,"programNumber":80},{"time":53524.97465833331,"duration":250.0000250000012,"noteNumber":56,"velocity":113,"programNumber":80},{"time":53729.52013333331,"duration":378.787916666668,"noteNumber":57,"velocity":113,"programNumber":80},{"time":54123.45956666664,"duration":128.78789166666684,"noteNumber":59,"velocity":113,"programNumber":80},{"time":54221.94442499998,"duration":393.939433333333,"noteNumber":61,"velocity":113,"programNumber":80},{"time":57403.76292499998,"duration":136.36364999999932,"noteNumber":69,"velocity":113,"programNumber":80},{"time":57631.03567499998,"duration":136.36364999999932,"noteNumber":69,"velocity":113,"programNumber":80},{"time":57858.308424999974,"duration":106.06061666666938,"noteNumber":69,"velocity":113,"programNumber":80},{"time":58062.85389999998,"duration":219.69699166666396,"noteNumber":69,"velocity":113,"programNumber":80},{"time":58290.12664999998,"duration":143.9394083333391,"noteNumber":64,"velocity":113,"programNumber":80},{"time":58388.61150833331,"duration":363.63640000000305,"noteNumber":66,"velocity":113,"programNumber":80},{"time":58729.52063333332,"duration":696.9697666666616,"noteNumber":64,"velocity":113,"programNumber":80},{"time":59843.15710833331,"duration":204.545474999999,"noteNumber":64,"velocity":113,"programNumber":80},{"time":60100.732891666645,"duration":204.545474999999,"noteNumber":64,"velocity":113,"programNumber":80},{"time":60328.00564166664,"duration":280.3030583333384,"noteNumber":66,"velocity":113,"programNumber":80},{"time":60570.42990833331,"duration":128.78789166666684,"noteNumber":64,"velocity":113,"programNumber":80},{"time":60812.85417499998,"duration":113.63637500000186,"noteNumber":65,"velocity":113,"programNumber":80},{"time":60812.85417499998,"duration":227.27275000000373,"noteNumber":64,"velocity":113,"programNumber":80},{"time":61040.12692499998,"duration":477.2727750000049,"noteNumber":62,"velocity":113,"programNumber":80},{"time":61471.945149999985,"duration":265.15154166666616,"noteNumber":64,"velocity":113,"programNumber":80},{"time":61721.945174999986,"duration":219.69699166666396,"noteNumber":62,"velocity":113,"programNumber":80},{"time":61926.490649999985,"duration":250.0000250000012,"noteNumber":61,"velocity":113,"programNumber":80},{"time":62176.49067499999,"duration":606.0606666666645,"noteNumber":57,"velocity":113,"programNumber":80},{"time":64903.76367499999,"duration":265.15154166666616,"noteNumber":66,"velocity":113,"programNumber":80},{"time":65138.61218333332,"duration":250.0000249999939,"noteNumber":64,"velocity":113,"programNumber":80},{"time":65358.30917499999,"duration":674.2424916666641,"noteNumber":66,"velocity":113,"programNumber":80},{"time":66017.40014999999,"duration":378.787916666668,"noteNumber":68,"velocity":113,"programNumber":80},{"time":66456.79413333331,"duration":181.81819999999425,"noteNumber":68,"velocity":113,"programNumber":80},{"time":66585.58202499998,"duration":1053.0304083333176,"noteNumber":69,"velocity":113,"programNumber":80},{"time":67593.1578833333,"duration":825.7576583333284,"noteNumber":66,"velocity":113,"programNumber":80},{"time":68524.9761583333,"duration":212.12123333333875,"noteNumber":66,"velocity":113,"programNumber":80},{"time":68729.52163333331,"duration":280.30305833333114,"noteNumber":64,"velocity":113,"programNumber":80},{"time":68971.94589999998,"duration":757.5758333333215,"noteNumber":66,"velocity":113,"programNumber":80},{"time":69691.64294166664,"duration":325.75760833332606,"noteNumber":68,"velocity":113,"programNumber":80},{"time":70093.1581333333,"duration":181.81819999999425,"noteNumber":68,"velocity":113,"programNumber":80},{"time":70252.2490583333,"duration":1696.9698666666663,"noteNumber":69,"velocity":113,"programNumber":80},{"time":71926.49164999997,"duration":250.00002499998664,"noteNumber":64,"velocity":113,"programNumber":80},{"time":72138.61288333329,"duration":212.1212333333242,"noteNumber":69,"velocity":113,"programNumber":80},{"time":72176.49167499995,"duration":219.6969916666567,"noteNumber":73,"velocity":127,"programNumber":80},{"time":72403.76442499994,"duration":219.69699166667124,"noteNumber":73,"velocity":127,"programNumber":80},{"time":72373.46139166661,"duration":378.787916666668,"noteNumber":69,"velocity":113,"programNumber":80},{"time":72858.30992499995,"duration":219.69699166667124,"noteNumber":73,"velocity":127,"programNumber":80},{"time":72873.46144166662,"duration":318.1818500000081,"noteNumber":69,"velocity":113,"programNumber":80},{"time":73312.85542499996,"duration":219.69699166667124,"noteNumber":73,"velocity":127,"programNumber":80},{"time":73297.7039083333,"duration":515.1515666666673,"noteNumber":69,"velocity":113,"programNumber":80},{"time":73767.40092499997,"duration":136.36364999998477,"noteNumber":66,"velocity":113,"programNumber":80},{"time":73850.73426666662,"duration":545.4545999999973,"noteNumber":68,"velocity":113,"programNumber":80},{"time":73767.40092499997,"duration":681.8182499999821,"noteNumber":71,"velocity":127,"programNumber":80},{"time":74456.79493333328,"duration":174.24244166666176,"noteNumber":68,"velocity":113,"programNumber":80},{"time":74449.21917499995,"duration":219.6969916666567,"noteNumber":71,"velocity":127,"programNumber":80},{"time":74684.06768333327,"duration":143.9394083333318,"noteNumber":68,"velocity":113,"programNumber":80},{"time":74676.49192499994,"duration":219.6969916666567,"noteNumber":71,"velocity":127,"programNumber":80},{"time":74881.03739999993,"duration":174.24244166666176,"noteNumber":68,"velocity":113,"programNumber":80},{"time":74903.76467499993,"duration":219.6969916666567,"noteNumber":71,"velocity":127,"programNumber":80},{"time":75131.03742499991,"duration":219.69699166667124,"noteNumber":71,"velocity":127,"programNumber":80},{"time":75115.88590833325,"duration":363.63640000000305,"noteNumber":68,"velocity":113,"programNumber":80},{"time":75494.67382499992,"duration":136.36364999999932,"noteNumber":66,"velocity":113,"programNumber":80},{"time":75631.03747499992,"duration":219.6969916666567,"noteNumber":68,"velocity":113,"programNumber":80},{"time":75812.85567499991,"duration":1378.7880166666582,"noteNumber":66,"velocity":113,"programNumber":80},{"time":75585.58292499992,"duration":1810.6062416666537,"noteNumber":69,"velocity":127,"programNumber":80},{"time":79199.21964999991,"duration":265.15154166666616,"noteNumber":64,"velocity":113,"programNumber":80},{"time":79426.49239999992,"duration":174.24244166666176,"noteNumber":69,"velocity":113,"programNumber":80},{"time":79449.21967499991,"duration":219.6969916666567,"noteNumber":73,"velocity":127,"programNumber":80},{"time":79676.4924249999,"duration":219.69699166667124,"noteNumber":73,"velocity":127,"programNumber":80},{"time":79661.34090833324,"duration":318.1818500000081,"noteNumber":69,"velocity":113,"programNumber":80},{"time":80131.03792499991,"duration":219.69699166667124,"noteNumber":73,"velocity":127,"programNumber":80},{"time":80146.18944166657,"duration":325.7576083333406,"noteNumber":69,"velocity":113,"programNumber":80},{"time":80585.58342499992,"duration":219.69699166667124,"noteNumber":73,"velocity":127,"programNumber":80},{"time":80593.15918333325,"duration":416.666708333345,"noteNumber":69,"velocity":113,"programNumber":80},{"time":81024.97740833326,"duration":143.9394083333318,"noteNumber":66,"velocity":113,"programNumber":80},{"time":81123.4622666666,"duration":507.57580833333486,"noteNumber":68,"velocity":113,"programNumber":80},{"time":81040.12892499992,"duration":681.8182499999966,"noteNumber":71,"velocity":127,"programNumber":80},{"time":81691.64414166659,"duration":151.5151666666643,"noteNumber":68,"velocity":113,"programNumber":80},{"time":81721.94717499992,"duration":219.69699166667124,"noteNumber":71,"velocity":127,"programNumber":80},{"time":81934.06840833326,"duration":143.9394083333318,"noteNumber":68,"velocity":113,"programNumber":80},{"time":81949.21992499992,"duration":219.69699166667124,"noteNumber":71,"velocity":127,"programNumber":80},{"time":82153.76539999993,"duration":174.24244166666176,"noteNumber":68,"velocity":113,"programNumber":80},{"time":82176.49267499993,"duration":219.69699166667124,"noteNumber":71,"velocity":127,"programNumber":80},{"time":82403.76542499993,"duration":219.69699166667124,"noteNumber":71,"velocity":127,"programNumber":80},{"time":82403.76542499993,"duration":393.939433333333,"noteNumber":68,"velocity":113,"programNumber":80},{"time":82790.12909999993,"duration":143.93940833331726,"noteNumber":66,"velocity":113,"programNumber":80},{"time":82911.34123333325,"duration":242.42426666665415,"noteNumber":68,"velocity":113,"programNumber":80},{"time":83100.73519166658,"duration":1234.8486083333264,"noteNumber":66,"velocity":113,"programNumber":80},{"time":82858.31092499993,"duration":1810.6062416666537,"noteNumber":69,"velocity":127,"programNumber":80},{"time":97411.34268333325,"duration":151.5151666666643,"noteNumber":69,"velocity":113,"programNumber":80},{"time":97638.61543333325,"duration":143.9394083333318,"noteNumber":69,"velocity":113,"programNumber":80},{"time":97858.31242499992,"duration":136.36364999999932,"noteNumber":69,"velocity":113,"programNumber":80},{"time":98055.28214166658,"duration":204.54547500000626,"noteNumber":69,"velocity":113,"programNumber":80},{"time":98259.82761666659,"duration":174.2424416666763,"noteNumber":64,"velocity":113,"programNumber":80},{"time":98358.31247499993,"duration":439.3939833333425,"noteNumber":66,"velocity":113,"programNumber":80},{"time":98767.40342499994,"duration":681.8182499999966,"noteNumber":64,"velocity":113,"programNumber":80},{"time":100055.2823416666,"duration":295.4545749999961,"noteNumber":64,"velocity":113,"programNumber":80},{"time":100305.28236666661,"duration":287.8788166666636,"noteNumber":66,"velocity":113,"programNumber":80},{"time":100562.85814999994,"duration":136.36364999999932,"noteNumber":64,"velocity":113,"programNumber":80},{"time":100797.70665833328,"duration":227.27275000000373,"noteNumber":64,"velocity":113,"programNumber":80},{"time":101024.97940833328,"duration":477.27277499999036,"noteNumber":62,"velocity":113,"programNumber":80},{"time":101464.37339166661,"duration":454.5454999999929,"noteNumber":64,"velocity":113,"programNumber":80},{"time":104676.49492499993,"duration":143.9394083333318,"noteNumber":69,"velocity":113,"programNumber":80},{"time":104903.76767499994,"duration":151.5151666666643,"noteNumber":69,"velocity":113,"programNumber":80},{"time":105131.04042499994,"duration":143.9394083333318,"noteNumber":69,"velocity":113,"programNumber":80},{"time":105335.58589999993,"duration":242.4242666666687,"noteNumber":69,"velocity":113,"programNumber":80},{"time":105570.43440833327,"duration":166.66668333334383,"noteNumber":64,"velocity":113,"programNumber":80},{"time":105661.34350833327,"duration":363.63640000000305,"noteNumber":66,"velocity":113,"programNumber":80},{"time":106002.25263333328,"duration":863.6364499999909,"noteNumber":64,"velocity":113,"programNumber":80},{"time":107403.76792499993,"duration":250.0000250000012,"noteNumber":64,"velocity":113,"programNumber":80},{"time":107615.88915833327,"duration":265.1515416666516,"noteNumber":66,"velocity":113,"programNumber":80},{"time":107843.16190833326,"duration":113.63637500000186,"noteNumber":64,"velocity":113,"programNumber":80},{"time":108062.85889999993,"duration":166.66668333332927,"noteNumber":64,"velocity":113,"programNumber":80},{"time":108290.13164999992,"duration":484.8485333333374,"noteNumber":62,"velocity":113,"programNumber":80},{"time":108752.25290833326,"duration":174.24244166666176,"noteNumber":64,"velocity":113,"programNumber":80},{"time":109002.25293333326,"duration":265.15154166666616,"noteNumber":62,"velocity":113,"programNumber":80},{"time":109237.1014416666,"duration":250.00002499998664,"noteNumber":61,"velocity":113,"programNumber":80},{"time":109434.07115833326,"duration":704.5455249999941,"noteNumber":57,"velocity":113,"programNumber":80},{"time":111956.79868333325,"duration":113.63637500000186,"noteNumber":69,"velocity":113,"programNumber":80},{"time":112153.76839999993,"duration":143.9394083333318,"noteNumber":69,"velocity":113,"programNumber":80},{"time":112373.4653916666,"duration":151.5151666666643,"noteNumber":69,"velocity":113,"programNumber":80},{"time":112600.7381416666,"duration":219.69699166667124,"noteNumber":69,"velocity":113,"programNumber":80},{"time":112835.58664999994,"duration":212.12123333333875,"noteNumber":64,"velocity":113,"programNumber":80},{"time":112956.79878333327,"duration":325.7576083333406,"noteNumber":66,"velocity":113,"programNumber":80},{"time":113274.98063333328,"duration":886.3637250000029,"noteNumber":64,"velocity":113,"programNumber":80},{"time":114676.49592499995,"duration":250.0000250000012,"noteNumber":64,"velocity":113,"programNumber":80},{"time":114888.61715833329,"duration":250.00002499998664,"noteNumber":66,"velocity":113,"programNumber":80},{"time":115100.73839166661,"duration":136.36364999999932,"noteNumber":64,"velocity":113,"programNumber":80},{"time":115335.58689999995,"duration":219.69699166667124,"noteNumber":64,"velocity":113,"programNumber":80},{"time":115555.28389166662,"duration":507.57580833333486,"noteNumber":62,"velocity":113,"programNumber":80},{"time":116024.9809083333,"duration":333.33336666665855,"noteNumber":64,"velocity":113,"programNumber":80},{"time":119191.64789166662,"duration":151.5151666666643,"noteNumber":69,"velocity":113,"programNumber":80},{"time":119434.07215833329,"duration":151.5151666666643,"noteNumber":69,"velocity":113,"programNumber":80},{"time":119661.3449083333,"duration":143.9394083333318,"noteNumber":69,"velocity":113,"programNumber":80},{"time":119888.6176583333,"duration":242.4242666666687,"noteNumber":69,"velocity":113,"programNumber":80},{"time":120131.04192499997,"duration":189.39395833332674,"noteNumber":64,"velocity":113,"programNumber":80},{"time":120259.82981666664,"duration":325.75760833332606,"noteNumber":66,"velocity":113,"programNumber":80},{"time":120570.4359083333,"duration":1022.7273750000022,"noteNumber":64,"velocity":113,"programNumber":80},{"time":121934.0724083333,"duration":250.0000250000012,"noteNumber":64,"velocity":113,"programNumber":80},{"time":122161.34515833331,"duration":242.42426666665415,"noteNumber":66,"velocity":113,"programNumber":80},{"time":122373.46639166663,"duration":128.78789166666684,"noteNumber":64,"velocity":113,"programNumber":80},{"time":122600.73914166664,"duration":212.12123333333875,"noteNumber":64,"velocity":113,"programNumber":80},{"time":122828.01189166664,"duration":477.2727750000049,"noteNumber":62,"velocity":113,"programNumber":80},{"time":123297.70890833331,"duration":151.5151666666643,"noteNumber":64,"velocity":113,"programNumber":80},{"time":123524.98165833332,"duration":257.5757833333337,"noteNumber":62,"velocity":113,"programNumber":80},{"time":123744.67864999999,"duration":250.0000250000012,"noteNumber":61,"velocity":113,"programNumber":80},{"time":123979.52715833332,"duration":719.6970416666591,"noteNumber":57,"velocity":113,"programNumber":80},{"time":126691.64864166664,"duration":257.5757833333337,"noteNumber":66,"velocity":113,"programNumber":80},{"time":126926.49714999998,"duration":265.15154166666616,"noteNumber":64,"velocity":113,"programNumber":80},{"time":127176.49717499998,"duration":583.3333916666597,"noteNumber":66,"velocity":113,"programNumber":80},{"time":127865.89118333331,"duration":325.75760833332606,"noteNumber":68,"velocity":113,"programNumber":80},{"time":128282.55789166664,"duration":136.36364999999932,"noteNumber":68,"velocity":113,"programNumber":80},{"time":128396.19426666664,"duration":1083.333441666662,"noteNumber":69,"velocity":113,"programNumber":80},{"time":129426.49739999998,"duration":871.2122083333234,"noteNumber":66,"velocity":113,"programNumber":80},{"time":130358.31567499996,"duration":250.0000250000012,"noteNumber":66,"velocity":113,"programNumber":80},{"time":130570.4369083333,"duration":265.15154166666616,"noteNumber":64,"velocity":113,"programNumber":80},{"time":130812.86117499997,"duration":719.6970416666882,"noteNumber":66,"velocity":113,"programNumber":80},{"time":131509.83094166665,"duration":378.7879166666826,"noteNumber":68,"velocity":113,"programNumber":80},{"time":131949.224925,"duration":128.78789166666684,"noteNumber":68,"velocity":113,"programNumber":80},{"time":132040.13402499998,"duration":1742.424416666705,"noteNumber":69,"velocity":113,"programNumber":80},{"time":133774.98268333334,"duration":250.00002500001574,"noteNumber":64,"velocity":113,"programNumber":80},{"time":133971.9524,"duration":204.54547500002082,"noteNumber":69,"velocity":113,"programNumber":80},{"time":133994.67967500002,"duration":219.6969916666858,"noteNumber":73,"velocity":127,"programNumber":80},{"time":134221.95242500005,"duration":219.6969916666858,"noteNumber":73,"velocity":127,"programNumber":80},{"time":134229.5281833334,"duration":333.33336666665855,"noteNumber":69,"velocity":113,"programNumber":80},{"time":134676.49792500006,"duration":219.6969916666858,"noteNumber":73,"velocity":127,"programNumber":80},{"time":134684.0736833334,"duration":356.06064166667056,"noteNumber":69,"velocity":113,"programNumber":80},{"time":135131.04342500007,"duration":219.6969916666567,"noteNumber":73,"velocity":127,"programNumber":80},{"time":135131.04342500007,"duration":492.42429166668444,"noteNumber":69,"velocity":113,"programNumber":80},{"time":135562.86165000006,"duration":128.78789166669594,"noteNumber":66,"velocity":113,"programNumber":80},{"time":135646.19499166677,"duration":545.4545999999973,"noteNumber":68,"velocity":113,"programNumber":80},{"time":135585.58892500008,"duration":681.8182500000112,"noteNumber":71,"velocity":127,"programNumber":80},{"time":136252.25565833342,"duration":174.24244166666176,"noteNumber":68,"velocity":113,"programNumber":80},{"time":136267.4071750001,"duration":219.6969916666858,"noteNumber":71,"velocity":127,"programNumber":80},{"time":136479.52840833343,"duration":166.66668333337293,"noteNumber":68,"velocity":113,"programNumber":80},{"time":136494.67992500012,"duration":219.6969916666858,"noteNumber":71,"velocity":127,"programNumber":80},{"time":136691.6496416668,"duration":174.24244166669087,"noteNumber":68,"velocity":113,"programNumber":80},{"time":136721.95267500015,"duration":219.6969916666567,"noteNumber":71,"velocity":127,"programNumber":80},{"time":136949.22542500016,"duration":219.6969916666567,"noteNumber":71,"velocity":127,"programNumber":80},{"time":136911.34663333348,"duration":416.66670833333046,"noteNumber":68,"velocity":113,"programNumber":80},{"time":137343.16485833348,"duration":113.63637500000186,"noteNumber":66,"velocity":113,"programNumber":80},{"time":137426.49820000015,"duration":189.39395833335584,"noteNumber":68,"velocity":113,"programNumber":80},{"time":137403.77092500014,"duration":1810.6062416667119,"noteNumber":69,"velocity":127,"programNumber":80},{"time":137593.1648833335,"duration":1810.6062416666828,"noteNumber":66,"velocity":113,"programNumber":80},{"time":141024.9834083335,"duration":280.3030583333457,"noteNumber":64,"velocity":113,"programNumber":80},{"time":141244.68040000016,"duration":181.8182000000088,"noteNumber":69,"velocity":113,"programNumber":80},{"time":141267.40767500017,"duration":219.6969916666567,"noteNumber":73,"velocity":127,"programNumber":80},{"time":141494.68042500017,"duration":219.6969916666567,"noteNumber":73,"velocity":127,"programNumber":80},{"time":141471.95315000016,"duration":333.33336666665855,"noteNumber":69,"velocity":113,"programNumber":80},{"time":141949.22592500015,"duration":219.6969916666567,"noteNumber":73,"velocity":127,"programNumber":80},{"time":141934.0744083335,"duration":356.06064166664146,"noteNumber":69,"velocity":113,"programNumber":80},{"time":142403.77142500013,"duration":219.6969916666567,"noteNumber":73,"velocity":127,"programNumber":80},{"time":142418.9229416668,"duration":363.6363999999885,"noteNumber":69,"velocity":113,"programNumber":80},{"time":142828.01389166678,"duration":128.78789166666684,"noteNumber":66,"velocity":113,"programNumber":80},{"time":142896.19571666679,"duration":583.3333916666743,"noteNumber":68,"velocity":113,"programNumber":80},{"time":142858.3169250001,"duration":681.8182500000112,"noteNumber":71,"velocity":127,"programNumber":80},{"time":143524.98365833345,"duration":151.51516666667885,"noteNumber":68,"velocity":113,"programNumber":80},{"time":143540.13517500012,"duration":219.6969916666858,"noteNumber":71,"velocity":127,"programNumber":80},{"time":143744.68065000014,"duration":151.51516666667885,"noteNumber":68,"velocity":113,"programNumber":80},{"time":143767.40792500015,"duration":219.6969916666567,"noteNumber":71,"velocity":127,"programNumber":80},{"time":143956.80188333348,"duration":189.39395833335584,"noteNumber":68,"velocity":113,"programNumber":80},{"time":143994.68067500016,"duration":219.6969916666858,"noteNumber":71,"velocity":127,"programNumber":80},{"time":144221.9534250002,"duration":219.6969916666567,"noteNumber":71,"velocity":127,"programNumber":80},{"time":144199.22615000018,"duration":363.6363999999885,"noteNumber":68,"velocity":113,"programNumber":80},{"time":144600.74134166684,"duration":106.06061666668393,"noteNumber":66,"velocity":113,"programNumber":80},{"time":144684.0746833335,"duration":227.27275000000373,"noteNumber":68,"velocity":113,"programNumber":80},{"time":144881.0444000002,"duration":1280.3031583333213,"noteNumber":66,"velocity":113,"programNumber":80},{"time":144676.49892500017,"duration":1810.6062416666828,"noteNumber":69,"velocity":127,"programNumber":80},{"time":152615.89365833352,"duration":454.54550000000745,"noteNumber":66,"velocity":113,"programNumber":80},{"time":153055.28764166686,"duration":484.8485333333374,"noteNumber":64,"velocity":113,"programNumber":80},{"time":153502.25738333352,"duration":477.27277500001946,"noteNumber":62,"velocity":113,"programNumber":80},{"time":153971.9544000002,"duration":469.69701666670153,"noteNumber":61,"velocity":113,"programNumber":80},{"time":154434.07565833355,"duration":477.27277500001946,"noteNumber":59,"velocity":113,"programNumber":80},{"time":154888.62115833355,"duration":484.8485333333374,"noteNumber":57,"velocity":113,"programNumber":80},{"time":155358.31817500023,"duration":257.5757833333337,"noteNumber":59,"velocity":113,"programNumber":80},{"time":155593.16668333355,"duration":257.5757833333628,"noteNumber":57,"velocity":113,"programNumber":80},{"time":155812.86367500023,"duration":484.8485333333374,"noteNumber":61,"velocity":113,"programNumber":80},{"time":156252.25765833358,"duration":265.1515416666516,"noteNumber":64,"velocity":113,"programNumber":80},{"time":156471.95465000023,"duration":681.8182499999821,"noteNumber":61,"velocity":113,"programNumber":80},{"time":158536.3472750002,"duration":356.06064166667056,"noteNumber":66,"velocity":113,"programNumber":80},{"time":158937.86241666687,"duration":378.7879166666535,"noteNumber":66,"velocity":113,"programNumber":80},{"time":159384.83215833353,"duration":454.54550000000745,"noteNumber":66,"velocity":113,"programNumber":80},{"time":159809.0746250002,"duration":507.5758083333203,"noteNumber":69,"velocity":113,"programNumber":80},{"time":160271.19588333354,"duration":446.9697416666604,"noteNumber":68,"velocity":113,"programNumber":80},{"time":160695.4383500002,"duration":484.8485333333374,"noteNumber":66,"velocity":113,"programNumber":80},{"time":161165.13536666686,"duration":363.6363999999885,"noteNumber":68,"velocity":113,"programNumber":80},{"time":161589.3778333335,"duration":128.78789166666684,"noteNumber":68,"velocity":113,"programNumber":80},{"time":161680.2869333335,"duration":659.0909750000283,"noteNumber":69,"velocity":113,"programNumber":80},{"time":162286.34760000018,"duration":287.8788166666927,"noteNumber":68,"velocity":113,"programNumber":80},{"time":162536.3476250002,"duration":787.878866666666,"noteNumber":66,"velocity":113,"programNumber":80},{"time":163415.13559166685,"duration":946.9697916666919,"noteNumber":66,"velocity":113,"programNumber":80},{"time":164354.5296250002,"duration":780.3031083333481,"noteNumber":68,"velocity":113,"programNumber":80},{"time":165195.4388000002,"duration":151.51516666664975,"noteNumber":68,"velocity":113,"programNumber":80},{"time":165271.19638333353,"duration":2984.84878333332,"noteNumber":69,"velocity":113,"programNumber":80},{"time":227119.68741666686,"duration":189.39395833332674,"noteNumber":69,"velocity":113,"programNumber":80},{"time":227346.96016666686,"duration":174.24244166666176,"noteNumber":69,"velocity":113,"programNumber":80},{"time":227551.50564166685,"duration":227.27275000000373,"noteNumber":69,"velocity":113,"programNumber":80},{"time":227793.92990833352,"duration":106.06061666668393,"noteNumber":64,"velocity":113,"programNumber":80},{"time":227831.8087000002,"duration":378.7879166666826,"noteNumber":66,"velocity":113,"programNumber":80},{"time":228195.44510000022,"duration":977.2728249999927,"noteNumber":64,"velocity":113,"programNumber":80},{"time":229574.23311666687,"duration":280.3030583333166,"noteNumber":64,"velocity":113,"programNumber":80},{"time":229809.0816250002,"duration":257.5757833333337,"noteNumber":66,"velocity":113,"programNumber":80},{"time":230013.6271000002,"duration":113.63637500000186,"noteNumber":64,"velocity":113,"programNumber":80},{"time":230271.20288333352,"duration":227.27275000000373,"noteNumber":64,"velocity":113,"programNumber":80},{"time":230498.47563333352,"duration":484.8485333333374,"noteNumber":62,"velocity":113,"programNumber":80},{"time":230937.86961666687,"duration":318.1818499999936,"noteNumber":64,"velocity":113,"programNumber":80},{"time":234134.83963333353,"duration":181.8182000000088,"noteNumber":69,"velocity":113,"programNumber":80},{"time":234384.83965833354,"duration":151.51516666667885,"noteNumber":69,"velocity":113,"programNumber":80},{"time":234612.11240833355,"duration":151.51516666667885,"noteNumber":69,"velocity":113,"programNumber":80},{"time":234839.38515833355,"duration":181.8182000000088,"noteNumber":69,"velocity":113,"programNumber":80},{"time":235074.2336666669,"duration":151.51516666664975,"noteNumber":64,"velocity":113,"programNumber":80},{"time":235165.1427666669,"duration":295.45457499998156,"noteNumber":66,"velocity":113,"programNumber":80},{"time":235445.4458250002,"duration":901.5152416666679,"noteNumber":64,"velocity":113,"programNumber":80},{"time":236862.11263333354,"duration":250.00002500001574,"noteNumber":64,"velocity":113,"programNumber":80},{"time":237059.08235000022,"duration":280.3030583333457,"noteNumber":66,"velocity":113,"programNumber":80},{"time":237286.35510000022,"duration":136.36365000001388,"noteNumber":64,"velocity":113,"programNumber":80},{"time":237513.62785000022,"duration":287.8788166666636,"noteNumber":64,"velocity":113,"programNumber":80},{"time":237763.6278750002,"duration":507.5758083333494,"noteNumber":62,"velocity":113,"programNumber":80},{"time":238233.32489166688,"duration":287.8788166666636,"noteNumber":64,"velocity":113,"programNumber":80},{"time":238475.74915833355,"duration":250.00002499998664,"noteNumber":62,"velocity":113,"programNumber":80},{"time":238680.29463333354,"duration":250.00002499998664,"noteNumber":61,"velocity":113,"programNumber":80},{"time":238930.29465833353,"duration":719.6970416666591,"noteNumber":57,"velocity":113,"programNumber":80},{"time":241657.56765833352,"duration":280.3030583333457,"noteNumber":64,"velocity":113,"programNumber":80},{"time":241869.68889166685,"duration":515.1515666666673,"noteNumber":61,"velocity":113,"programNumber":80},{"time":244119.68911666685,"duration":287.8788166666636,"noteNumber":61,"velocity":113,"programNumber":80},{"time":244346.96186666685,"duration":151.51516666664975,"noteNumber":64,"velocity":113,"programNumber":80},{"time":244581.81037500018,"duration":128.78789166666684,"noteNumber":64,"velocity":113,"programNumber":80},{"time":244809.08312500018,"duration":181.8182000000088,"noteNumber":64,"velocity":113,"programNumber":80},{"time":245081.81042500018,"duration":340.9091250000056,"noteNumber":61,"velocity":113,"programNumber":80},{"time":245460.59834166686,"duration":128.78789166666684,"noteNumber":59,"velocity":113,"programNumber":80},{"time":245559.0832000002,"duration":439.3939833333425,"noteNumber":57,"velocity":113,"programNumber":80},{"time":248710.59866666686,"duration":174.24244166666176,"noteNumber":69,"velocity":113,"programNumber":80},{"time":248937.87141666687,"duration":166.66668333334383,"noteNumber":69,"velocity":113,"programNumber":80},{"time":249157.56840833355,"duration":143.9394083333318,"noteNumber":69,"velocity":113,"programNumber":80},{"time":249369.6896416669,"duration":136.36365000001388,"noteNumber":69,"velocity":113,"programNumber":80},{"time":249596.9623916669,"duration":439.3939833333425,"noteNumber":69,"velocity":113,"programNumber":80},{"time":250036.35637500024,"duration":113.63637500000186,"noteNumber":66,"velocity":113,"programNumber":80},{"time":250119.6897166669,"duration":515.1515666666673,"noteNumber":64,"velocity":113,"programNumber":80},{"time":251377.26560000025,"duration":303.0303333333286,"noteNumber":64,"velocity":113,"programNumber":80},{"time":251634.84138333358,"duration":265.1515416666807,"noteNumber":66,"velocity":113,"programNumber":80},{"time":251862.11413333358,"duration":189.39395833335584,"noteNumber":69,"velocity":113,"programNumber":80},{"time":252074.23536666695,"duration":90.90909999998985,"noteNumber":66,"velocity":113,"programNumber":80},{"time":252316.65963333362,"duration":363.6363999999885,"noteNumber":69,"velocity":113,"programNumber":80},{"time":256187.87214166694,"duration":257.5757833333337,"noteNumber":66,"velocity":113,"programNumber":80},{"time":256430.2964083336,"duration":242.4242666666687,"noteNumber":64,"velocity":113,"programNumber":80},{"time":256634.8418833336,"duration":704.5455250000232,"noteNumber":66,"velocity":113,"programNumber":80},{"time":257316.66013333361,"duration":363.6364000000176,"noteNumber":68,"velocity":113,"programNumber":80},{"time":257756.05411666696,"duration":166.66668333334383,"noteNumber":68,"velocity":113,"programNumber":80},{"time":257892.41776666697,"duration":1060.6061666666646,"noteNumber":69,"velocity":113,"programNumber":80},{"time":258907.56938333364,"duration":825.7576583333139,"noteNumber":66,"velocity":113,"programNumber":80},{"time":259801.50886666696,"duration":265.1515416666516,"noteNumber":66,"velocity":113,"programNumber":80},{"time":260036.35737500028,"duration":242.4242666666687,"noteNumber":64,"velocity":113,"programNumber":80},{"time":260263.6301250003,"duration":734.8485583333531,"noteNumber":66,"velocity":113,"programNumber":80},{"time":260960.59989166696,"duration":393.93943333334755,"noteNumber":68,"velocity":113,"programNumber":80},{"time":261415.14539166697,"duration":166.66668333334383,"noteNumber":68,"velocity":113,"programNumber":80},{"time":261543.93328333364,"duration":1719.697141666693,"noteNumber":69,"velocity":113,"programNumber":80},{"time":263248.47890833364,"duration":257.5757833333919,"noteNumber":64,"velocity":113,"programNumber":80},{"time":263453.0243833337,"duration":189.39395833335584,"noteNumber":69,"velocity":113,"programNumber":80},{"time":263475.7516583337,"duration":219.6969916666858,"noteNumber":73,"velocity":127,"programNumber":80},{"time":263703.0244083337,"duration":219.6969916666858,"noteNumber":73,"velocity":127,"programNumber":80},{"time":263680.2971333337,"duration":371.21215833333554,"noteNumber":69,"velocity":113,"programNumber":80},{"time":264157.5699083337,"duration":219.6969916666858,"noteNumber":73,"velocity":127,"programNumber":80},{"time":264142.418391667,"duration":371.21215833339375,"noteNumber":69,"velocity":113,"programNumber":80},{"time":264612.1154083338,"duration":219.6969916666858,"noteNumber":73,"velocity":127,"programNumber":80},{"time":264589.38813333376,"duration":484.8485333333956,"noteNumber":69,"velocity":113,"programNumber":80},{"time":265051.50939166715,"duration":128.78789166663773,"noteNumber":66,"velocity":113,"programNumber":80},{"time":265142.41849166714,"duration":545.4545999999973,"noteNumber":68,"velocity":113,"programNumber":80},{"time":265066.66090833384,"duration":681.818249999953,"noteNumber":71,"velocity":127,"programNumber":80},{"time":265748.4791583338,"duration":166.66668333334383,"noteNumber":68,"velocity":113,"programNumber":80},{"time":265748.4791583338,"duration":219.6969916666858,"noteNumber":71,"velocity":127,"programNumber":80},{"time":265953.0246333338,"duration":189.39395833335584,"noteNumber":68,"velocity":113,"programNumber":80},{"time":265975.7519083338,"duration":219.6969916666858,"noteNumber":71,"velocity":127,"programNumber":80},{"time":266180.2973833338,"duration":166.66668333334383,"noteNumber":68,"velocity":113,"programNumber":80},{"time":266203.0246583338,"duration":219.6969916666858,"noteNumber":71,"velocity":127,"programNumber":80},{"time":266430.2974083338,"duration":219.6969916666858,"noteNumber":71,"velocity":127,"programNumber":80},{"time":266399.9943750005,"duration":409.09095000004163,"noteNumber":68,"velocity":113,"programNumber":80},{"time":266846.96411666716,"duration":75.75758333335398,"noteNumber":66,"velocity":113,"programNumber":80},{"time":266899.9944250005,"duration":227.27275000000373,"noteNumber":68,"velocity":113,"programNumber":80},{"time":266884.8429083338,"duration":1810.6062416667119,"noteNumber":69,"velocity":127,"programNumber":80},{"time":267096.9641416672,"duration":1742.4244166666758,"noteNumber":66,"velocity":113,"programNumber":80},{"time":270498.47963333386,"duration":280.3030583332875,"noteNumber":64,"velocity":113,"programNumber":80},{"time":270710.60086666717,"duration":181.8181999999797,"noteNumber":69,"velocity":113,"programNumber":80},{"time":270748.4796583338,"duration":219.6969916666858,"noteNumber":73,"velocity":127,"programNumber":80},{"time":270975.7524083338,"duration":219.6969916666858,"noteNumber":73,"velocity":127,"programNumber":80},{"time":270945.4493750005,"duration":363.6364000000176,"noteNumber":69,"velocity":113,"programNumber":80},{"time":271430.2979083339,"duration":219.6969916666858,"noteNumber":73,"velocity":127,"programNumber":80},{"time":271415.1463916672,"duration":356.06064166669967,"noteNumber":69,"velocity":113,"programNumber":80},{"time":271884.8434083339,"duration":219.6969916666858,"noteNumber":73,"velocity":127,"programNumber":80},{"time":271884.8434083339,"duration":469.69701666670153,"noteNumber":69,"velocity":113,"programNumber":80},{"time":272278.78284166724,"duration":151.51516666670796,"noteNumber":66,"velocity":113,"programNumber":80},{"time":272384.8434583339,"duration":530.3030833333614,"noteNumber":68,"velocity":113,"programNumber":80},{"time":272339.3889083339,"duration":681.8182500000112,"noteNumber":71,"velocity":127,"programNumber":80},{"time":272983.32836666727,"duration":166.66668333328562,"noteNumber":68,"velocity":113,"programNumber":80},{"time":273021.2071583339,"duration":219.69699166662758,"noteNumber":71,"velocity":127,"programNumber":80},{"time":273210.6011166672,"duration":166.66668333328562,"noteNumber":68,"velocity":113,"programNumber":80},{"time":273248.47990833386,"duration":219.6969916666858,"noteNumber":71,"velocity":127,"programNumber":80},{"time":273422.7223500005,"duration":166.66668333334383,"noteNumber":68,"velocity":113,"programNumber":80},{"time":273475.75265833386,"duration":219.6969916666858,"noteNumber":71,"velocity":127,"programNumber":80},{"time":273703.02540833387,"duration":219.6969916666858,"noteNumber":71,"velocity":127,"programNumber":80},{"time":273649.9951000005,"duration":446.9697416666895,"noteNumber":68,"velocity":113,"programNumber":80},{"time":274089.3890833339,"duration":128.78789166663773,"noteNumber":66,"velocity":113,"programNumber":80},{"time":274180.2981833339,"duration":219.69699166662758,"noteNumber":68,"velocity":113,"programNumber":80},{"time":274369.6921416672,"duration":1492.42439166666,"noteNumber":66,"velocity":113,"programNumber":80},{"time":274157.5709083339,"duration":1810.6062416666537,"noteNumber":69,"velocity":127,"programNumber":80}],[{"time":0,"duration":216.41781666666668,"noteNumber":30,"velocity":127,"programNumber":35},{"time":223.8805,"duration":216.41781666666665,"noteNumber":30,"velocity":127,"programNumber":35},{"time":1791.0439999999999,"duration":216.41781666666657,"noteNumber":33,"velocity":127,"programNumber":35},{"time":2014.9244999999999,"duration":216.4178166666668,"noteNumber":33,"velocity":127,"programNumber":35},{"time":2686.566,"duration":216.41781666666657,"noteNumber":28,"velocity":127,"programNumber":35},{"time":2910.4464999999996,"duration":216.41781666666657,"noteNumber":28,"velocity":127,"programNumber":35},{"time":3582.0879999999993,"duration":216.41781666666657,"noteNumber":30,"velocity":127,"programNumber":35},{"time":3805.968499999999,"duration":216.41781666666657,"noteNumber":30,"velocity":127,"programNumber":35},{"time":5373.131999999999,"duration":216.41781666666702,"noteNumber":38,"velocity":127,"programNumber":35},{"time":5597.012499999999,"duration":216.41781666666702,"noteNumber":38,"velocity":127,"programNumber":35},{"time":6268.6539999999995,"duration":216.41781666666702,"noteNumber":37,"velocity":127,"programNumber":35},{"time":6492.5345,"duration":216.41781666666702,"noteNumber":37,"velocity":127,"programNumber":35},{"time":7164.176,"duration":216.41781666666702,"noteNumber":30,"velocity":127,"programNumber":35},{"time":7388.056500000001,"duration":216.41781666666702,"noteNumber":30,"velocity":127,"programNumber":35},{"time":8955.220000000001,"duration":216.4178166666661,"noteNumber":33,"velocity":127,"programNumber":35},{"time":9179.1005,"duration":216.4178166666661,"noteNumber":33,"velocity":127,"programNumber":35},{"time":9850.742,"duration":216.4178166666661,"noteNumber":28,"velocity":127,"programNumber":35},{"time":10074.6225,"duration":216.4178166666661,"noteNumber":28,"velocity":127,"programNumber":35},{"time":10753.161574999998,"duration":219.69699166666578,"noteNumber":30,"velocity":127,"programNumber":35},{"time":10980.434324999997,"duration":219.69699166666578,"noteNumber":30,"velocity":127,"programNumber":35},{"time":12571.343574999995,"duration":219.69699166666578,"noteNumber":38,"velocity":127,"programNumber":35},{"time":12798.616324999994,"duration":219.69699166666578,"noteNumber":38,"velocity":127,"programNumber":35},{"time":13480.434574999992,"duration":219.69699166666578,"noteNumber":37,"velocity":127,"programNumber":35},{"time":13707.70732499999,"duration":219.69699166666578,"noteNumber":37,"velocity":127,"programNumber":35},{"time":14389.525574999989,"duration":219.69699166666578,"noteNumber":30,"velocity":127,"programNumber":35},{"time":14616.798324999987,"duration":219.69699166666578,"noteNumber":30,"velocity":127,"programNumber":35},{"time":16207.707574999986,"duration":219.6969916666676,"noteNumber":33,"velocity":127,"programNumber":35},{"time":16434.980324999986,"duration":219.6969916666676,"noteNumber":33,"velocity":127,"programNumber":35},{"time":17116.798574999986,"duration":219.6969916666676,"noteNumber":28,"velocity":127,"programNumber":35},{"time":17344.071324999986,"duration":219.6969916666676,"noteNumber":28,"velocity":127,"programNumber":35},{"time":18025.889574999987,"duration":219.6969916666676,"noteNumber":30,"velocity":127,"programNumber":35},{"time":18253.162324999987,"duration":219.6969916666676,"noteNumber":30,"velocity":127,"programNumber":35},{"time":19844.071574999987,"duration":219.6969916666676,"noteNumber":38,"velocity":127,"programNumber":35},{"time":20071.344324999987,"duration":219.6969916666676,"noteNumber":38,"velocity":127,"programNumber":35},{"time":20753.162574999988,"duration":219.6969916666676,"noteNumber":37,"velocity":127,"programNumber":35},{"time":20980.435324999988,"duration":219.6969916666676,"noteNumber":37,"velocity":127,"programNumber":35},{"time":21662.253574999988,"duration":219.6969916666676,"noteNumber":30,"velocity":127,"programNumber":35},{"time":21889.526324999988,"duration":219.6969916666676,"noteNumber":30,"velocity":127,"programNumber":35},{"time":23480.43557499999,"duration":219.6969916666676,"noteNumber":33,"velocity":127,"programNumber":35},{"time":23707.70832499999,"duration":219.6969916666676,"noteNumber":33,"velocity":127,"programNumber":35},{"time":24389.52657499999,"duration":219.6969916666676,"noteNumber":28,"velocity":127,"programNumber":35},{"time":24616.79932499999,"duration":219.6969916666676,"noteNumber":28,"velocity":127,"programNumber":35},{"time":25298.61757499999,"duration":219.6969916666676,"noteNumber":30,"velocity":127,"programNumber":35},{"time":25525.89032499999,"duration":219.6969916666676,"noteNumber":30,"velocity":127,"programNumber":35},{"time":27116.79957499999,"duration":219.6969916666676,"noteNumber":38,"velocity":127,"programNumber":35},{"time":27344.07232499999,"duration":219.6969916666676,"noteNumber":38,"velocity":127,"programNumber":35},{"time":28025.89057499999,"duration":219.6969916666676,"noteNumber":40,"velocity":127,"programNumber":35},{"time":28253.16332499999,"duration":219.6969916666676,"noteNumber":40,"velocity":127,"programNumber":35},{"time":28934.98157499999,"duration":219.6969916666676,"noteNumber":33,"velocity":127,"programNumber":35},{"time":29162.25432499999,"duration":219.6969916666676,"noteNumber":45,"velocity":127,"programNumber":35},{"time":29389.52707499999,"duration":219.6969916666676,"noteNumber":33,"velocity":127,"programNumber":35},{"time":29616.79982499999,"duration":219.6969916666676,"noteNumber":45,"velocity":127,"programNumber":35},{"time":29844.07257499999,"duration":219.6969916666676,"noteNumber":33,"velocity":127,"programNumber":35},{"time":30071.34532499999,"duration":219.6969916666676,"noteNumber":45,"velocity":127,"programNumber":35},{"time":30298.61807499999,"duration":219.6969916666676,"noteNumber":33,"velocity":127,"programNumber":35},{"time":30525.89082499999,"duration":219.6969916666676,"noteNumber":45,"velocity":127,"programNumber":35},{"time":30753.16357499999,"duration":219.6969916666676,"noteNumber":33,"velocity":127,"programNumber":35},{"time":30980.43632499999,"duration":219.6969916666676,"noteNumber":45,"velocity":127,"programNumber":35},{"time":31207.70907499999,"duration":219.6969916666676,"noteNumber":33,"velocity":127,"programNumber":35},{"time":31434.98182499999,"duration":219.6969916666676,"noteNumber":44,"velocity":127,"programNumber":35},{"time":31662.25457499999,"duration":219.6969916666676,"noteNumber":33,"velocity":127,"programNumber":35},{"time":31889.527324999992,"duration":219.6969916666676,"noteNumber":42,"velocity":127,"programNumber":35},{"time":32116.800074999992,"duration":219.6969916666676,"noteNumber":33,"velocity":127,"programNumber":35},{"time":32344.072824999992,"duration":219.6969916666676,"noteNumber":40,"velocity":127,"programNumber":35},{"time":32571.345574999992,"duration":219.69699166666396,"noteNumber":33,"velocity":127,"programNumber":35},{"time":32798.61832499999,"duration":219.69699166666396,"noteNumber":45,"velocity":127,"programNumber":35},{"time":33025.891074999985,"duration":219.69699166666396,"noteNumber":33,"velocity":127,"programNumber":35},{"time":33253.16382499998,"duration":219.69699166666396,"noteNumber":45,"velocity":127,"programNumber":35},{"time":33480.43657499998,"duration":219.69699166666396,"noteNumber":33,"velocity":127,"programNumber":35},{"time":33707.709324999974,"duration":219.69699166666396,"noteNumber":45,"velocity":127,"programNumber":35},{"time":33934.98207499997,"duration":219.69699166666396,"noteNumber":33,"velocity":127,"programNumber":35},{"time":34162.25482499997,"duration":219.69699166666396,"noteNumber":45,"velocity":127,"programNumber":35},{"time":34389.527574999964,"duration":219.69699166666396,"noteNumber":33,"velocity":127,"programNumber":35},{"time":34616.80032499996,"duration":219.69699166666396,"noteNumber":45,"velocity":127,"programNumber":35},{"time":34844.07307499996,"duration":219.69699166666396,"noteNumber":33,"velocity":127,"programNumber":35},{"time":35071.34582499995,"duration":219.69699166666396,"noteNumber":44,"velocity":127,"programNumber":35},{"time":35298.61857499995,"duration":219.69699166666396,"noteNumber":33,"velocity":127,"programNumber":35},{"time":35525.891324999946,"duration":219.69699166666396,"noteNumber":42,"velocity":127,"programNumber":35},{"time":35753.16407499994,"duration":219.69699166666396,"noteNumber":33,"velocity":127,"programNumber":35},{"time":35980.43682499994,"duration":219.69699166666396,"noteNumber":40,"velocity":127,"programNumber":35},{"time":36207.709574999935,"duration":219.69699166666396,"noteNumber":33,"velocity":127,"programNumber":35},{"time":36434.98232499993,"duration":219.69699166666396,"noteNumber":45,"velocity":127,"programNumber":35},{"time":36662.25507499993,"duration":219.69699166666396,"noteNumber":33,"velocity":127,"programNumber":35},{"time":36889.527824999925,"duration":219.69699166666396,"noteNumber":45,"velocity":127,"programNumber":35},{"time":37116.80057499992,"duration":219.69699166666396,"noteNumber":33,"velocity":127,"programNumber":35},{"time":37344.07332499992,"duration":219.69699166666396,"noteNumber":45,"velocity":127,"programNumber":35},{"time":37571.346074999914,"duration":219.69699166666396,"noteNumber":33,"velocity":127,"programNumber":35},{"time":37798.61882499991,"duration":219.69699166666396,"noteNumber":45,"velocity":127,"programNumber":35},{"time":38025.89157499991,"duration":219.69699166666396,"noteNumber":33,"velocity":127,"programNumber":35},{"time":38253.1643249999,"duration":219.69699166666396,"noteNumber":45,"velocity":127,"programNumber":35},{"time":38480.4370749999,"duration":219.69699166666396,"noteNumber":33,"velocity":127,"programNumber":35},{"time":38707.709824999896,"duration":219.69699166666396,"noteNumber":44,"velocity":127,"programNumber":35},{"time":38934.98257499989,"duration":219.69699166666396,"noteNumber":33,"velocity":127,"programNumber":35},{"time":39162.25532499989,"duration":219.69699166666396,"noteNumber":42,"velocity":127,"programNumber":35},{"time":39389.528074999886,"duration":219.69699166666396,"noteNumber":33,"velocity":127,"programNumber":35},{"time":39616.80082499988,"duration":219.69699166666396,"noteNumber":40,"velocity":127,"programNumber":35},{"time":39844.07357499988,"duration":219.69699166666396,"noteNumber":33,"velocity":127,"programNumber":35},{"time":40071.346324999875,"duration":219.69699166666396,"noteNumber":45,"velocity":127,"programNumber":35},{"time":40298.61907499987,"duration":219.69699166666396,"noteNumber":33,"velocity":127,"programNumber":35},{"time":40525.89182499987,"duration":219.69699166666396,"noteNumber":45,"velocity":127,"programNumber":35},{"time":40753.164574999864,"duration":219.69699166666396,"noteNumber":33,"velocity":127,"programNumber":35},{"time":40980.43732499986,"duration":219.69699166666396,"noteNumber":45,"velocity":127,"programNumber":35},{"time":41207.71007499986,"duration":219.69699166666396,"noteNumber":33,"velocity":127,"programNumber":35},{"time":41434.98282499985,"duration":219.69699166666396,"noteNumber":45,"velocity":127,"programNumber":35},{"time":41662.25557499985,"duration":219.69699166666396,"noteNumber":33,"velocity":127,"programNumber":35},{"time":41889.52832499985,"duration":219.69699166666396,"noteNumber":45,"velocity":127,"programNumber":35},{"time":42116.80107499984,"duration":219.69699166666396,"noteNumber":33,"velocity":127,"programNumber":35},{"time":42344.07382499984,"duration":219.69699166666396,"noteNumber":44,"velocity":127,"programNumber":35},{"time":42571.346574999836,"duration":219.69699166666396,"noteNumber":33,"velocity":127,"programNumber":35},{"time":42798.61932499983,"duration":219.69699166666396,"noteNumber":42,"velocity":127,"programNumber":35},{"time":43025.89207499983,"duration":219.69699166666396,"noteNumber":33,"velocity":127,"programNumber":35},{"time":43253.164824999825,"duration":219.69699166666396,"noteNumber":40,"velocity":127,"programNumber":35},{"time":43480.43757499982,"duration":219.69699166666396,"noteNumber":33,"velocity":127,"programNumber":35},{"time":43707.71032499982,"duration":219.69699166666396,"noteNumber":45,"velocity":127,"programNumber":35},{"time":43934.983074999815,"duration":219.69699166666396,"noteNumber":33,"velocity":127,"programNumber":35},{"time":44162.25582499981,"duration":219.69699166666396,"noteNumber":45,"velocity":127,"programNumber":35},{"time":44389.52857499981,"duration":219.69699166666396,"noteNumber":33,"velocity":127,"programNumber":35},{"time":44616.801324999804,"duration":219.69699166666396,"noteNumber":45,"velocity":127,"programNumber":35},{"time":44844.0740749998,"duration":219.69699166666396,"noteNumber":33,"velocity":127,"programNumber":35},{"time":45071.3468249998,"duration":219.69699166666396,"noteNumber":45,"velocity":127,"programNumber":35},{"time":45298.61957499979,"duration":219.69699166666396,"noteNumber":33,"velocity":127,"programNumber":35},{"time":45525.89232499979,"duration":219.69699166666396,"noteNumber":45,"velocity":127,"programNumber":35},{"time":45753.165074999786,"duration":219.69699166666396,"noteNumber":33,"velocity":127,"programNumber":35},{"time":45980.43782499978,"duration":219.69699166666396,"noteNumber":44,"velocity":127,"programNumber":35},{"time":46207.71057499978,"duration":219.69699166666396,"noteNumber":33,"velocity":127,"programNumber":35},{"time":46434.983324999776,"duration":219.69699166666396,"noteNumber":42,"velocity":127,"programNumber":35},{"time":46662.25607499977,"duration":219.69699166666396,"noteNumber":33,"velocity":127,"programNumber":35},{"time":46889.52882499977,"duration":219.69699166666396,"noteNumber":40,"velocity":127,"programNumber":35},{"time":47116.801574999765,"duration":219.69699166666396,"noteNumber":33,"velocity":127,"programNumber":35},{"time":47344.07432499976,"duration":219.69699166666396,"noteNumber":45,"velocity":127,"programNumber":35},{"time":47571.34707499976,"duration":219.69699166666396,"noteNumber":33,"velocity":127,"programNumber":35},{"time":47798.619824999754,"duration":219.69699166666396,"noteNumber":45,"velocity":127,"programNumber":35},{"time":48025.89257499975,"duration":219.69699166666396,"noteNumber":33,"velocity":127,"programNumber":35},{"time":48253.16532499975,"duration":219.69699166666396,"noteNumber":45,"velocity":127,"programNumber":35},{"time":48480.43807499974,"duration":219.69699166666396,"noteNumber":33,"velocity":127,"programNumber":35},{"time":48707.71082499974,"duration":219.69699166666396,"noteNumber":45,"velocity":127,"programNumber":35},{"time":48934.98357499974,"duration":219.69699166666396,"noteNumber":33,"velocity":127,"programNumber":35},{"time":49162.25632499973,"duration":219.69699166666396,"noteNumber":45,"velocity":127,"programNumber":35},{"time":49389.52907499973,"duration":219.69699166666396,"noteNumber":33,"velocity":127,"programNumber":35},{"time":49616.801824999726,"duration":219.69699166666396,"noteNumber":44,"velocity":127,"programNumber":35},{"time":49844.07457499972,"duration":219.69699166666396,"noteNumber":33,"velocity":127,"programNumber":35},{"time":50071.34732499972,"duration":219.69699166666396,"noteNumber":42,"velocity":127,"programNumber":35},{"time":50298.620074999715,"duration":219.69699166666396,"noteNumber":33,"velocity":127,"programNumber":35},{"time":50525.89282499971,"duration":219.69699166666396,"noteNumber":40,"velocity":127,"programNumber":35},{"time":50753.16557499971,"duration":219.69699166666396,"noteNumber":33,"velocity":127,"programNumber":35},{"time":50980.438324999704,"duration":219.69699166666396,"noteNumber":45,"velocity":127,"programNumber":35},{"time":51207.7110749997,"duration":219.69699166666396,"noteNumber":33,"velocity":127,"programNumber":35},{"time":51434.9838249997,"duration":219.69699166666396,"noteNumber":45,"velocity":127,"programNumber":35},{"time":51662.256574999694,"duration":219.69699166666396,"noteNumber":33,"velocity":127,"programNumber":35},{"time":51889.52932499969,"duration":219.69699166666396,"noteNumber":45,"velocity":127,"programNumber":35},{"time":52116.80207499969,"duration":219.69699166666396,"noteNumber":33,"velocity":127,"programNumber":35},{"time":52344.07482499968,"duration":219.69699166666396,"noteNumber":45,"velocity":127,"programNumber":35},{"time":52571.34757499968,"duration":219.69699166666396,"noteNumber":33,"velocity":127,"programNumber":35},{"time":52798.620324999676,"duration":219.69699166666396,"noteNumber":45,"velocity":127,"programNumber":35},{"time":53025.89307499967,"duration":219.69699166666396,"noteNumber":33,"velocity":127,"programNumber":35},{"time":53253.16582499967,"duration":219.69699166666396,"noteNumber":44,"velocity":127,"programNumber":35},{"time":53480.438574999665,"duration":219.69699166666396,"noteNumber":33,"velocity":127,"programNumber":35},{"time":53707.71132499966,"duration":219.69699166666396,"noteNumber":42,"velocity":127,"programNumber":35},{"time":53934.98407499966,"duration":219.69699166666396,"noteNumber":33,"velocity":127,"programNumber":35},{"time":54162.256824999655,"duration":219.69699166666396,"noteNumber":40,"velocity":127,"programNumber":35},{"time":54389.52957499965,"duration":219.69699166666396,"noteNumber":33,"velocity":127,"programNumber":35},{"time":54616.80232499965,"duration":219.69699166666396,"noteNumber":45,"velocity":127,"programNumber":35},{"time":54844.075074999644,"duration":219.69699166666396,"noteNumber":33,"velocity":127,"programNumber":35},{"time":55071.34782499964,"duration":219.69699166666396,"noteNumber":45,"velocity":127,"programNumber":35},{"time":55298.62057499964,"duration":219.69699166666396,"noteNumber":33,"velocity":127,"programNumber":35},{"time":55525.89332499963,"duration":219.69699166666396,"noteNumber":45,"velocity":127,"programNumber":35},{"time":55753.16607499963,"duration":219.69699166666396,"noteNumber":33,"velocity":127,"programNumber":35},{"time":55980.43882499963,"duration":219.69699166666396,"noteNumber":45,"velocity":127,"programNumber":35},{"time":56207.71157499962,"duration":219.69699166666396,"noteNumber":33,"velocity":127,"programNumber":35},{"time":56434.98432499962,"duration":219.69699166666396,"noteNumber":45,"velocity":127,"programNumber":35},{"time":56662.257074999616,"duration":219.69699166666396,"noteNumber":33,"velocity":127,"programNumber":35},{"time":56889.52982499961,"duration":219.69699166666396,"noteNumber":44,"velocity":127,"programNumber":35},{"time":57116.80257499961,"duration":219.69699166666396,"noteNumber":33,"velocity":127,"programNumber":35},{"time":57344.075324999605,"duration":219.69699166666396,"noteNumber":42,"velocity":127,"programNumber":35},{"time":57571.3480749996,"duration":219.69699166666396,"noteNumber":33,"velocity":127,"programNumber":35},{"time":57798.6208249996,"duration":219.69699166666396,"noteNumber":40,"velocity":127,"programNumber":35},{"time":58025.893574999594,"duration":219.69699166666396,"noteNumber":33,"velocity":127,"programNumber":35},{"time":58253.16632499959,"duration":219.69699166666396,"noteNumber":45,"velocity":127,"programNumber":35},{"time":58480.43907499959,"duration":219.69699166666396,"noteNumber":33,"velocity":127,"programNumber":35},{"time":58707.711824999584,"duration":219.69699166666396,"noteNumber":45,"velocity":127,"programNumber":35},{"time":58934.98457499958,"duration":219.69699166666396,"noteNumber":33,"velocity":127,"programNumber":35},{"time":59162.25732499958,"duration":219.69699166666396,"noteNumber":45,"velocity":127,"programNumber":35},{"time":59389.53007499957,"duration":219.69699166666396,"noteNumber":33,"velocity":127,"programNumber":35},{"time":59616.80282499957,"duration":219.69699166666396,"noteNumber":45,"velocity":127,"programNumber":35},{"time":59844.075574999566,"duration":219.69699166666396,"noteNumber":33,"velocity":127,"programNumber":35},{"time":60071.34832499956,"duration":219.69699166666396,"noteNumber":45,"velocity":127,"programNumber":35},{"time":60298.62107499956,"duration":219.69699166666396,"noteNumber":33,"velocity":127,"programNumber":35},{"time":60525.893824999555,"duration":219.69699166666396,"noteNumber":44,"velocity":127,"programNumber":35},{"time":60753.16657499955,"duration":219.69699166666396,"noteNumber":33,"velocity":127,"programNumber":35},{"time":60980.43932499955,"duration":219.69699166666396,"noteNumber":42,"velocity":127,"programNumber":35},{"time":61207.712074999545,"duration":219.69699166666396,"noteNumber":33,"velocity":127,"programNumber":35},{"time":61434.98482499954,"duration":219.69699166666396,"noteNumber":40,"velocity":127,"programNumber":35},{"time":61662.25757499954,"duration":219.69699166666396,"noteNumber":33,"velocity":127,"programNumber":35},{"time":61889.530324999534,"duration":219.69699166666396,"noteNumber":45,"velocity":127,"programNumber":35},{"time":62116.80307499953,"duration":219.69699166666396,"noteNumber":33,"velocity":127,"programNumber":35},{"time":62344.07582499953,"duration":219.69699166666396,"noteNumber":45,"velocity":127,"programNumber":35},{"time":62571.34857499952,"duration":219.69699166666396,"noteNumber":33,"velocity":127,"programNumber":35},{"time":62798.62132499952,"duration":219.69699166666396,"noteNumber":45,"velocity":127,"programNumber":35},{"time":63025.894074999516,"duration":219.69699166666396,"noteNumber":33,"velocity":127,"programNumber":35},{"time":63253.16682499951,"duration":219.69699166666396,"noteNumber":45,"velocity":127,"programNumber":35},{"time":63480.43957499951,"duration":219.69699166666396,"noteNumber":33,"velocity":127,"programNumber":35},{"time":63707.712324999506,"duration":219.69699166666396,"noteNumber":45,"velocity":127,"programNumber":35},{"time":63934.9850749995,"duration":219.69699166666396,"noteNumber":33,"velocity":127,"programNumber":35},{"time":64162.2578249995,"duration":219.69699166666396,"noteNumber":44,"velocity":127,"programNumber":35},{"time":64389.530574999495,"duration":219.69699166666396,"noteNumber":33,"velocity":127,"programNumber":35},{"time":64616.80332499949,"duration":219.69699166666396,"noteNumber":42,"velocity":127,"programNumber":35},{"time":64844.07607499949,"duration":219.69699166666396,"noteNumber":33,"velocity":127,"programNumber":35},{"time":65071.348824999484,"duration":219.69699166666396,"noteNumber":40,"velocity":127,"programNumber":35},{"time":65298.62157499948,"duration":446.9697416666677,"noteNumber":30,"velocity":127,"programNumber":35},{"time":65298.62157499948,"duration":446.9697416666677,"noteNumber":42,"velocity":127,"programNumber":35},{"time":65753.16707499948,"duration":446.9697416666604,"noteNumber":30,"velocity":127,"programNumber":35},{"time":65753.16707499948,"duration":446.9697416666604,"noteNumber":42,"velocity":127,"programNumber":35},{"time":66207.71257499947,"duration":446.9697416666604,"noteNumber":28,"velocity":127,"programNumber":35},{"time":66207.71257499947,"duration":446.9697416666604,"noteNumber":40,"velocity":127,"programNumber":35},{"time":66662.25807499947,"duration":446.9697416666604,"noteNumber":28,"velocity":127,"programNumber":35},{"time":66662.25807499947,"duration":446.9697416666604,"noteNumber":40,"velocity":127,"programNumber":35},{"time":67116.80357499946,"duration":901.5152416666679,"noteNumber":26,"velocity":127,"programNumber":35},{"time":67116.80357499946,"duration":901.5152416666679,"noteNumber":38,"velocity":127,"programNumber":35},{"time":68934.98557499946,"duration":446.9697416666604,"noteNumber":30,"velocity":127,"programNumber":35},{"time":68934.98557499946,"duration":446.9697416666604,"noteNumber":42,"velocity":127,"programNumber":35},{"time":69389.53107499945,"duration":446.9697416666604,"noteNumber":30,"velocity":127,"programNumber":35},{"time":69389.53107499945,"duration":446.9697416666604,"noteNumber":42,"velocity":127,"programNumber":35},{"time":69844.07657499945,"duration":446.9697416666604,"noteNumber":28,"velocity":127,"programNumber":35},{"time":69844.07657499945,"duration":446.9697416666604,"noteNumber":40,"velocity":127,"programNumber":35},{"time":70298.62207499944,"duration":446.9697416666604,"noteNumber":28,"velocity":127,"programNumber":35},{"time":70298.62207499944,"duration":446.9697416666604,"noteNumber":40,"velocity":127,"programNumber":35},{"time":70753.16757499943,"duration":901.5152416666679,"noteNumber":26,"velocity":127,"programNumber":35},{"time":70753.16757499943,"duration":901.5152416666679,"noteNumber":38,"velocity":127,"programNumber":35},{"time":72571.34957499943,"duration":446.9697416666604,"noteNumber":33,"velocity":127,"programNumber":35},{"time":72571.34957499943,"duration":446.9697416666604,"noteNumber":45,"velocity":127,"programNumber":35},{"time":73025.89507499943,"duration":446.9697416666604,"noteNumber":33,"velocity":127,"programNumber":35},{"time":73025.89507499943,"duration":446.9697416666604,"noteNumber":45,"velocity":127,"programNumber":35},{"time":73480.44057499942,"duration":446.9697416666604,"noteNumber":33,"velocity":127,"programNumber":35},{"time":73480.44057499942,"duration":446.9697416666604,"noteNumber":45,"velocity":127,"programNumber":35},{"time":73934.98607499941,"duration":446.9697416666604,"noteNumber":33,"velocity":127,"programNumber":35},{"time":73934.98607499941,"duration":446.9697416666604,"noteNumber":45,"velocity":127,"programNumber":35},{"time":74389.5315749994,"duration":446.9697416666604,"noteNumber":28,"velocity":127,"programNumber":35},{"time":74389.5315749994,"duration":446.9697416666604,"noteNumber":40,"velocity":127,"programNumber":35},{"time":74844.0770749994,"duration":446.9697416666604,"noteNumber":28,"velocity":127,"programNumber":35},{"time":74844.0770749994,"duration":446.9697416666604,"noteNumber":40,"velocity":127,"programNumber":35},{"time":75298.62257499939,"duration":446.9697416666604,"noteNumber":40,"velocity":127,"programNumber":35},{"time":75298.62257499939,"duration":446.9697416666604,"noteNumber":28,"velocity":127,"programNumber":35},{"time":75753.16807499938,"duration":446.9697416666604,"noteNumber":28,"velocity":127,"programNumber":35},{"time":75753.16807499938,"duration":446.9697416666604,"noteNumber":40,"velocity":127,"programNumber":35},{"time":76207.71357499938,"duration":446.9697416666604,"noteNumber":30,"velocity":127,"programNumber":35},{"time":76207.71357499938,"duration":446.9697416666604,"noteNumber":42,"velocity":127,"programNumber":35},{"time":76662.25907499937,"duration":446.9697416666604,"noteNumber":30,"velocity":127,"programNumber":35},{"time":76662.25907499937,"duration":446.9697416666604,"noteNumber":42,"velocity":127,"programNumber":35},{"time":77116.80457499936,"duration":446.9697416666604,"noteNumber":30,"velocity":127,"programNumber":35},{"time":77116.80457499936,"duration":446.9697416666604,"noteNumber":42,"velocity":127,"programNumber":35},{"time":77571.35007499935,"duration":446.9697416666604,"noteNumber":30,"velocity":127,"programNumber":35},{"time":77571.35007499935,"duration":446.9697416666604,"noteNumber":42,"velocity":127,"programNumber":35},{"time":78025.89557499935,"duration":446.9697416666604,"noteNumber":30,"velocity":127,"programNumber":35},{"time":78025.89557499935,"duration":446.9697416666604,"noteNumber":42,"velocity":127,"programNumber":35},{"time":78480.44107499934,"duration":446.9697416666604,"noteNumber":30,"velocity":127,"programNumber":35},{"time":78480.44107499934,"duration":446.9697416666604,"noteNumber":42,"velocity":127,"programNumber":35},{"time":78934.98657499933,"duration":446.9697416666604,"noteNumber":30,"velocity":127,"programNumber":35},{"time":78934.98657499933,"duration":446.9697416666604,"noteNumber":42,"velocity":127,"programNumber":35},{"time":79389.53207499933,"duration":446.9697416666604,"noteNumber":30,"velocity":127,"programNumber":35},{"time":79389.53207499933,"duration":446.9697416666604,"noteNumber":42,"velocity":127,"programNumber":35},{"time":79844.07757499932,"duration":446.9697416666604,"noteNumber":33,"velocity":127,"programNumber":35},{"time":79844.07757499932,"duration":446.9697416666604,"noteNumber":45,"velocity":127,"programNumber":35},{"time":80298.62307499931,"duration":446.9697416666604,"noteNumber":33,"velocity":127,"programNumber":35},{"time":80298.62307499931,"duration":446.9697416666604,"noteNumber":45,"velocity":127,"programNumber":35},{"time":80753.1685749993,"duration":446.9697416666604,"noteNumber":33,"velocity":127,"programNumber":35},{"time":80753.1685749993,"duration":446.9697416666604,"noteNumber":45,"velocity":127,"programNumber":35},{"time":81207.7140749993,"duration":446.9697416666604,"noteNumber":33,"velocity":127,"programNumber":35},{"time":81207.7140749993,"duration":446.9697416666604,"noteNumber":45,"velocity":127,"programNumber":35},{"time":81662.25957499929,"duration":446.9697416666604,"noteNumber":28,"velocity":127,"programNumber":35},{"time":81662.25957499929,"duration":446.9697416666604,"noteNumber":40,"velocity":127,"programNumber":35},{"time":82116.80507499928,"duration":446.9697416666604,"noteNumber":28,"velocity":127,"programNumber":35},{"time":82116.80507499928,"duration":446.9697416666604,"noteNumber":40,"velocity":127,"programNumber":35},{"time":82571.35057499928,"duration":446.9697416666604,"noteNumber":40,"velocity":127,"programNumber":35},{"time":82571.35057499928,"duration":446.9697416666604,"noteNumber":28,"velocity":127,"programNumber":35},{"time":83025.89607499927,"duration":446.9697416666604,"noteNumber":28,"velocity":127,"programNumber":35},{"time":83025.89607499927,"duration":446.9697416666604,"noteNumber":40,"velocity":127,"programNumber":35},{"time":83480.44157499926,"duration":446.9697416666604,"noteNumber":42,"velocity":127,"programNumber":35},{"time":83934.98707499926,"duration":446.9697416666604,"noteNumber":42,"velocity":127,"programNumber":35},{"time":84389.53257499925,"duration":227.27275000000373,"noteNumber":42,"velocity":127,"programNumber":35},{"time":84616.80532499925,"duration":219.69699166667124,"noteNumber":42,"velocity":127,"programNumber":35},{"time":84844.07807499926,"duration":219.69699166667124,"noteNumber":40,"velocity":127,"programNumber":35},{"time":85071.35082499926,"duration":219.69699166667124,"noteNumber":38,"velocity":127,"programNumber":35},{"time":85298.62357499926,"duration":219.69699166667124,"noteNumber":38,"velocity":127,"programNumber":35},{"time":85525.89632499927,"duration":219.69699166667124,"noteNumber":38,"velocity":127,"programNumber":35},{"time":85753.16907499927,"duration":219.69699166667124,"noteNumber":38,"velocity":127,"programNumber":35},{"time":85980.44182499927,"duration":219.69699166667124,"noteNumber":40,"velocity":127,"programNumber":35},{"time":86207.71457499928,"duration":219.69699166667124,"noteNumber":40,"velocity":127,"programNumber":35},{"time":86434.98732499928,"duration":219.69699166667124,"noteNumber":40,"velocity":127,"programNumber":35},{"time":86662.26007499929,"duration":219.69699166667124,"noteNumber":40,"velocity":127,"programNumber":35},{"time":86889.53282499929,"duration":219.69699166667124,"noteNumber":40,"velocity":127,"programNumber":35},{"time":87116.8055749993,"duration":446.9697416666604,"noteNumber":42,"velocity":127,"programNumber":35},{"time":87571.35107499929,"duration":446.9697416666604,"noteNumber":42,"velocity":127,"programNumber":35},{"time":88025.89657499928,"duration":227.27275000000373,"noteNumber":42,"velocity":127,"programNumber":35},{"time":88253.16932499928,"duration":219.69699166667124,"noteNumber":42,"velocity":127,"programNumber":35},{"time":88480.44207499929,"duration":219.69699166667124,"noteNumber":40,"velocity":127,"programNumber":35},{"time":88707.71482499929,"duration":219.69699166667124,"noteNumber":38,"velocity":127,"programNumber":35},{"time":88934.9875749993,"duration":219.69699166667124,"noteNumber":38,"velocity":127,"programNumber":35},{"time":89162.2603249993,"duration":219.69699166667124,"noteNumber":38,"velocity":127,"programNumber":35},{"time":89389.5330749993,"duration":219.69699166667124,"noteNumber":38,"velocity":127,"programNumber":35},{"time":89616.8058249993,"duration":219.69699166667124,"noteNumber":40,"velocity":127,"programNumber":35},{"time":89844.07857499931,"duration":219.69699166667124,"noteNumber":40,"velocity":127,"programNumber":35},{"time":90071.35132499931,"duration":219.69699166667124,"noteNumber":40,"velocity":127,"programNumber":35},{"time":90298.62407499932,"duration":219.69699166667124,"noteNumber":40,"velocity":127,"programNumber":35},{"time":90525.89682499932,"duration":219.69699166667124,"noteNumber":40,"velocity":127,"programNumber":35},{"time":90753.16957499932,"duration":219.69699166667124,"noteNumber":33,"velocity":127,"programNumber":35},{"time":90980.44232499933,"duration":219.69699166667124,"noteNumber":45,"velocity":127,"programNumber":35},{"time":91207.71507499933,"duration":219.69699166667124,"noteNumber":33,"velocity":127,"programNumber":35},{"time":91434.98782499933,"duration":219.69699166667124,"noteNumber":45,"velocity":127,"programNumber":35},{"time":91662.26057499934,"duration":219.69699166667124,"noteNumber":33,"velocity":127,"programNumber":35},{"time":91889.53332499934,"duration":219.69699166667124,"noteNumber":45,"velocity":127,"programNumber":35},{"time":92116.80607499935,"duration":219.69699166667124,"noteNumber":33,"velocity":127,"programNumber":35},{"time":92344.07882499935,"duration":219.69699166667124,"noteNumber":45,"velocity":127,"programNumber":35},{"time":92571.35157499935,"duration":219.69699166667124,"noteNumber":33,"velocity":127,"programNumber":35},{"time":92798.62432499936,"duration":219.69699166667124,"noteNumber":45,"velocity":127,"programNumber":35},{"time":93025.89707499936,"duration":219.69699166667124,"noteNumber":33,"velocity":127,"programNumber":35},{"time":93253.16982499936,"duration":219.69699166667124,"noteNumber":44,"velocity":127,"programNumber":35},{"time":93480.44257499937,"duration":219.69699166667124,"noteNumber":33,"velocity":127,"programNumber":35},{"time":93707.71532499937,"duration":219.69699166667124,"noteNumber":42,"velocity":127,"programNumber":35},{"time":93934.98807499938,"duration":219.69699166667124,"noteNumber":33,"velocity":127,"programNumber":35},{"time":94162.26082499938,"duration":219.69699166667124,"noteNumber":40,"velocity":127,"programNumber":35},{"time":94389.53357499938,"duration":219.69699166667124,"noteNumber":33,"velocity":127,"programNumber":35},{"time":94616.80632499939,"duration":219.69699166667124,"noteNumber":45,"velocity":127,"programNumber":35},{"time":94844.07907499939,"duration":219.69699166667124,"noteNumber":33,"velocity":127,"programNumber":35},{"time":95071.3518249994,"duration":219.69699166667124,"noteNumber":45,"velocity":127,"programNumber":35},{"time":95298.6245749994,"duration":219.69699166667124,"noteNumber":33,"velocity":127,"programNumber":35},{"time":95525.8973249994,"duration":219.69699166667124,"noteNumber":45,"velocity":127,"programNumber":35},{"time":95753.1700749994,"duration":219.69699166667124,"noteNumber":33,"velocity":127,"programNumber":35},{"time":95980.44282499941,"duration":219.69699166667124,"noteNumber":45,"velocity":127,"programNumber":35},{"time":96207.71557499941,"duration":219.69699166667124,"noteNumber":33,"velocity":127,"programNumber":35},{"time":96434.98832499942,"duration":219.69699166667124,"noteNumber":45,"velocity":127,"programNumber":35},{"time":96662.26107499942,"duration":219.69699166667124,"noteNumber":33,"velocity":127,"programNumber":35},{"time":96889.53382499942,"duration":219.69699166667124,"noteNumber":44,"velocity":127,"programNumber":35},{"time":97116.80657499943,"duration":219.69699166667124,"noteNumber":33,"velocity":127,"programNumber":35},{"time":97344.07932499943,"duration":219.69699166667124,"noteNumber":42,"velocity":127,"programNumber":35},{"time":97571.35207499943,"duration":219.69699166667124,"noteNumber":33,"velocity":127,"programNumber":35},{"time":97798.62482499944,"duration":219.69699166667124,"noteNumber":40,"velocity":127,"programNumber":35},{"time":98025.89757499944,"duration":219.69699166667124,"noteNumber":33,"velocity":127,"programNumber":35},{"time":98253.17032499945,"duration":219.69699166667124,"noteNumber":45,"velocity":127,"programNumber":35},{"time":98480.44307499945,"duration":219.69699166667124,"noteNumber":33,"velocity":127,"programNumber":35},{"time":98707.71582499945,"duration":219.69699166667124,"noteNumber":45,"velocity":127,"programNumber":35},{"time":98934.98857499946,"duration":219.69699166667124,"noteNumber":33,"velocity":127,"programNumber":35},{"time":99162.26132499946,"duration":219.69699166667124,"noteNumber":45,"velocity":127,"programNumber":35},{"time":99389.53407499946,"duration":219.69699166667124,"noteNumber":33,"velocity":127,"programNumber":35},{"time":99616.80682499947,"duration":219.69699166667124,"noteNumber":45,"velocity":127,"programNumber":35},{"time":99844.07957499947,"duration":219.69699166667124,"noteNumber":33,"velocity":127,"programNumber":35},{"time":100071.35232499948,"duration":219.69699166667124,"noteNumber":45,"velocity":127,"programNumber":35},{"time":100298.62507499948,"duration":219.69699166667124,"noteNumber":33,"velocity":127,"programNumber":35},{"time":100525.89782499948,"duration":219.69699166667124,"noteNumber":44,"velocity":127,"programNumber":35},{"time":100753.17057499949,"duration":219.69699166667124,"noteNumber":33,"velocity":127,"programNumber":35},{"time":100980.44332499949,"duration":219.69699166667124,"noteNumber":42,"velocity":127,"programNumber":35},{"time":101207.7160749995,"duration":219.69699166667124,"noteNumber":33,"velocity":127,"programNumber":35},{"time":101434.9888249995,"duration":219.69699166667124,"noteNumber":40,"velocity":127,"programNumber":35},{"time":101662.2615749995,"duration":219.69699166667124,"noteNumber":33,"velocity":127,"programNumber":35},{"time":101889.5343249995,"duration":219.69699166667124,"noteNumber":45,"velocity":127,"programNumber":35},{"time":102116.80707499951,"duration":219.69699166667124,"noteNumber":33,"velocity":127,"programNumber":35},{"time":102344.07982499951,"duration":219.69699166667124,"noteNumber":45,"velocity":127,"programNumber":35},{"time":102571.35257499952,"duration":219.69699166667124,"noteNumber":33,"velocity":127,"programNumber":35},{"time":102798.62532499952,"duration":219.69699166667124,"noteNumber":45,"velocity":127,"programNumber":35},{"time":103025.89807499952,"duration":219.69699166667124,"noteNumber":33,"velocity":127,"programNumber":35},{"time":103253.17082499953,"duration":219.69699166667124,"noteNumber":45,"velocity":127,"programNumber":35},{"time":103480.44357499953,"duration":219.69699166667124,"noteNumber":33,"velocity":127,"programNumber":35},{"time":103707.71632499954,"duration":219.69699166667124,"noteNumber":45,"velocity":127,"programNumber":35},{"time":103934.98907499954,"duration":219.69699166667124,"noteNumber":33,"velocity":127,"programNumber":35},{"time":104162.26182499954,"duration":219.69699166667124,"noteNumber":44,"velocity":127,"programNumber":35},{"time":104389.53457499955,"duration":219.69699166667124,"noteNumber":33,"velocity":127,"programNumber":35},{"time":104616.80732499955,"duration":219.69699166667124,"noteNumber":42,"velocity":127,"programNumber":35},{"time":104844.08007499955,"duration":219.69699166667124,"noteNumber":33,"velocity":127,"programNumber":35},{"time":105071.35282499956,"duration":219.69699166667124,"noteNumber":40,"velocity":127,"programNumber":35},{"time":105298.62557499956,"duration":219.69699166667124,"noteNumber":33,"velocity":127,"programNumber":35},{"time":105525.89832499957,"duration":219.69699166667124,"noteNumber":45,"velocity":127,"programNumber":35},{"time":105753.17107499957,"duration":219.69699166667124,"noteNumber":33,"velocity":127,"programNumber":35},{"time":105980.44382499957,"duration":219.69699166667124,"noteNumber":45,"velocity":127,"programNumber":35},{"time":106207.71657499958,"duration":219.69699166667124,"noteNumber":33,"velocity":127,"programNumber":35},{"time":106434.98932499958,"duration":219.69699166667124,"noteNumber":45,"velocity":127,"programNumber":35},{"time":106662.26207499958,"duration":219.69699166667124,"noteNumber":33,"velocity":127,"programNumber":35},{"time":106889.53482499959,"duration":219.69699166667124,"noteNumber":45,"velocity":127,"programNumber":35},{"time":107116.80757499959,"duration":219.69699166667124,"noteNumber":33,"velocity":127,"programNumber":35},{"time":107344.0803249996,"duration":219.69699166667124,"noteNumber":45,"velocity":127,"programNumber":35},{"time":107571.3530749996,"duration":219.69699166667124,"noteNumber":33,"velocity":127,"programNumber":35},{"time":107798.6258249996,"duration":219.69699166667124,"noteNumber":44,"velocity":127,"programNumber":35},{"time":108025.8985749996,"duration":219.69699166667124,"noteNumber":33,"velocity":127,"programNumber":35},{"time":108253.17132499961,"duration":219.69699166667124,"noteNumber":42,"velocity":127,"programNumber":35},{"time":108480.44407499961,"duration":219.69699166667124,"noteNumber":33,"velocity":127,"programNumber":35},{"time":108707.71682499962,"duration":219.69699166667124,"noteNumber":40,"velocity":127,"programNumber":35},{"time":108934.98957499962,"duration":219.69699166667124,"noteNumber":33,"velocity":127,"programNumber":35},{"time":109162.26232499962,"duration":219.69699166667124,"noteNumber":45,"velocity":127,"programNumber":35},{"time":109389.53507499963,"duration":219.69699166667124,"noteNumber":33,"velocity":127,"programNumber":35},{"time":109616.80782499963,"duration":219.69699166667124,"noteNumber":45,"velocity":127,"programNumber":35},{"time":109844.08057499964,"duration":219.69699166667124,"noteNumber":33,"velocity":127,"programNumber":35},{"time":110071.35332499964,"duration":219.69699166667124,"noteNumber":45,"velocity":127,"programNumber":35},{"time":110298.62607499964,"duration":219.69699166667124,"noteNumber":33,"velocity":127,"programNumber":35},{"time":110525.89882499965,"duration":219.69699166667124,"noteNumber":45,"velocity":127,"programNumber":35},{"time":110753.17157499965,"duration":219.69699166667124,"noteNumber":33,"velocity":127,"programNumber":35},{"time":110980.44432499965,"duration":219.69699166667124,"noteNumber":45,"velocity":127,"programNumber":35},{"time":111207.71707499966,"duration":219.69699166667124,"noteNumber":33,"velocity":127,"programNumber":35},{"time":111434.98982499966,"duration":219.69699166667124,"noteNumber":44,"velocity":127,"programNumber":35},{"time":111662.26257499967,"duration":219.69699166667124,"noteNumber":33,"velocity":127,"programNumber":35},{"time":111889.53532499967,"duration":219.69699166667124,"noteNumber":42,"velocity":127,"programNumber":35},{"time":112116.80807499967,"duration":219.69699166667124,"noteNumber":33,"velocity":127,"programNumber":35},{"time":112344.08082499968,"duration":219.69699166667124,"noteNumber":40,"velocity":127,"programNumber":35},{"time":112571.35357499968,"duration":219.69699166667124,"noteNumber":33,"velocity":127,"programNumber":35},{"time":112798.62632499968,"duration":219.69699166667124,"noteNumber":45,"velocity":127,"programNumber":35},{"time":113025.89907499969,"duration":219.69699166667124,"noteNumber":33,"velocity":127,"programNumber":35},{"time":113253.17182499969,"duration":219.69699166667124,"noteNumber":45,"velocity":127,"programNumber":35},{"time":113480.4445749997,"duration":219.69699166667124,"noteNumber":33,"velocity":127,"programNumber":35},{"time":113707.7173249997,"duration":219.69699166667124,"noteNumber":45,"velocity":127,"programNumber":35},{"time":113934.9900749997,"duration":219.69699166667124,"noteNumber":33,"velocity":127,"programNumber":35},{"time":114162.2628249997,"duration":219.69699166667124,"noteNumber":45,"velocity":127,"programNumber":35},{"time":114389.53557499971,"duration":219.69699166667124,"noteNumber":33,"velocity":127,"programNumber":35},{"time":114616.80832499971,"duration":219.69699166667124,"noteNumber":45,"velocity":127,"programNumber":35},{"time":114844.08107499972,"duration":219.69699166667124,"noteNumber":33,"velocity":127,"programNumber":35},{"time":115071.35382499972,"duration":219.69699166667124,"noteNumber":44,"velocity":127,"programNumber":35},{"time":115298.62657499973,"duration":219.69699166667124,"noteNumber":33,"velocity":127,"programNumber":35},{"time":115525.89932499973,"duration":219.69699166667124,"noteNumber":42,"velocity":127,"programNumber":35},{"time":115753.17207499973,"duration":219.69699166667124,"noteNumber":33,"velocity":127,"programNumber":35},{"time":115980.44482499974,"duration":219.69699166667124,"noteNumber":40,"velocity":127,"programNumber":35},{"time":116207.71757499974,"duration":219.69699166667124,"noteNumber":33,"velocity":127,"programNumber":35},{"time":116434.99032499974,"duration":219.69699166667124,"noteNumber":45,"velocity":127,"programNumber":35},{"time":116662.26307499975,"duration":219.69699166667124,"noteNumber":33,"velocity":127,"programNumber":35},{"time":116889.53582499975,"duration":219.69699166667124,"noteNumber":45,"velocity":127,"programNumber":35},{"time":117116.80857499976,"duration":219.69699166667124,"noteNumber":33,"velocity":127,"programNumber":35},{"time":117344.08132499976,"duration":219.69699166667124,"noteNumber":45,"velocity":127,"programNumber":35},{"time":117571.35407499976,"duration":219.69699166667124,"noteNumber":33,"velocity":127,"programNumber":35},{"time":117798.62682499977,"duration":219.69699166667124,"noteNumber":45,"velocity":127,"programNumber":35},{"time":118025.89957499977,"duration":219.69699166667124,"noteNumber":33,"velocity":127,"programNumber":35},{"time":118253.17232499977,"duration":219.69699166667124,"noteNumber":45,"velocity":127,"programNumber":35},{"time":118480.44507499978,"duration":219.69699166667124,"noteNumber":33,"velocity":127,"programNumber":35},{"time":118707.71782499978,"duration":219.69699166667124,"noteNumber":44,"velocity":127,"programNumber":35},{"time":118934.99057499979,"duration":219.69699166667124,"noteNumber":33,"velocity":127,"programNumber":35},{"time":119162.26332499979,"duration":219.69699166667124,"noteNumber":42,"velocity":127,"programNumber":35},{"time":119389.53607499979,"duration":219.69699166667124,"noteNumber":33,"velocity":127,"programNumber":35},{"time":119616.8088249998,"duration":219.69699166667124,"noteNumber":40,"velocity":127,"programNumber":35},{"time":119844.0815749998,"duration":219.69699166667124,"noteNumber":33,"velocity":127,"programNumber":35},{"time":120071.3543249998,"duration":219.69699166667124,"noteNumber":45,"velocity":127,"programNumber":35},{"time":120298.62707499981,"duration":219.69699166667124,"noteNumber":33,"velocity":127,"programNumber":35},{"time":120525.89982499981,"duration":219.69699166667124,"noteNumber":45,"velocity":127,"programNumber":35},{"time":120753.17257499981,"duration":219.69699166667124,"noteNumber":33,"velocity":127,"programNumber":35},{"time":120980.44532499982,"duration":219.69699166667124,"noteNumber":45,"velocity":127,"programNumber":35},{"time":121207.71807499982,"duration":219.69699166667124,"noteNumber":33,"velocity":127,"programNumber":35},{"time":121434.99082499983,"duration":219.69699166667124,"noteNumber":45,"velocity":127,"programNumber":35},{"time":121662.26357499983,"duration":219.69699166667124,"noteNumber":33,"velocity":127,"programNumber":35},{"time":121889.53632499983,"duration":219.69699166667124,"noteNumber":45,"velocity":127,"programNumber":35},{"time":122116.80907499984,"duration":219.69699166667124,"noteNumber":33,"velocity":127,"programNumber":35},{"time":122344.08182499984,"duration":219.69699166667124,"noteNumber":44,"velocity":127,"programNumber":35},{"time":122571.35457499984,"duration":219.69699166667124,"noteNumber":33,"velocity":127,"programNumber":35},{"time":122798.62732499985,"duration":219.69699166667124,"noteNumber":42,"velocity":127,"programNumber":35},{"time":123025.90007499985,"duration":219.69699166667124,"noteNumber":33,"velocity":127,"programNumber":35},{"time":123253.17282499986,"duration":219.69699166667124,"noteNumber":40,"velocity":127,"programNumber":35},{"time":123480.44557499986,"duration":219.69699166667124,"noteNumber":33,"velocity":127,"programNumber":35},{"time":123707.71832499986,"duration":219.69699166667124,"noteNumber":45,"velocity":127,"programNumber":35},{"time":123934.99107499987,"duration":219.69699166667124,"noteNumber":33,"velocity":127,"programNumber":35},{"time":124162.26382499987,"duration":219.69699166667124,"noteNumber":45,"velocity":127,"programNumber":35},{"time":124389.53657499987,"duration":219.69699166667124,"noteNumber":33,"velocity":127,"programNumber":35},{"time":124616.80932499988,"duration":219.69699166667124,"noteNumber":45,"velocity":127,"programNumber":35},{"time":124844.08207499988,"duration":219.69699166667124,"noteNumber":33,"velocity":127,"programNumber":35},{"time":125071.35482499989,"duration":219.69699166667124,"noteNumber":45,"velocity":127,"programNumber":35},{"time":125298.62757499989,"duration":219.69699166667124,"noteNumber":33,"velocity":127,"programNumber":35},{"time":125525.9003249999,"duration":219.69699166667124,"noteNumber":45,"velocity":127,"programNumber":35},{"time":125753.1730749999,"duration":219.69699166667124,"noteNumber":33,"velocity":127,"programNumber":35},{"time":125980.4458249999,"duration":219.69699166667124,"noteNumber":44,"velocity":127,"programNumber":35},{"time":126207.7185749999,"duration":219.69699166667124,"noteNumber":33,"velocity":127,"programNumber":35},{"time":126434.99132499991,"duration":219.69699166667124,"noteNumber":42,"velocity":127,"programNumber":35},{"time":126662.26407499991,"duration":219.69699166667124,"noteNumber":33,"velocity":127,"programNumber":35},{"time":126889.53682499992,"duration":219.69699166667124,"noteNumber":40,"velocity":127,"programNumber":35},{"time":127116.80957499992,"duration":446.9697416666604,"noteNumber":30,"velocity":127,"programNumber":35},{"time":127116.80957499992,"duration":446.9697416666604,"noteNumber":42,"velocity":127,"programNumber":35},{"time":127571.35507499991,"duration":446.9697416666604,"noteNumber":30,"velocity":127,"programNumber":35},{"time":127571.35507499991,"duration":446.9697416666604,"noteNumber":42,"velocity":127,"programNumber":35},{"time":128025.9005749999,"duration":446.9697416666604,"noteNumber":28,"velocity":127,"programNumber":35},{"time":128025.9005749999,"duration":446.9697416666604,"noteNumber":40,"velocity":127,"programNumber":35},{"time":128480.4460749999,"duration":446.9697416666604,"noteNumber":28,"velocity":127,"programNumber":35},{"time":128480.4460749999,"duration":446.9697416666604,"noteNumber":40,"velocity":127,"programNumber":35},{"time":128934.99157499989,"duration":901.5152416666679,"noteNumber":26,"velocity":127,"programNumber":35},{"time":128934.99157499989,"duration":901.5152416666679,"noteNumber":38,"velocity":127,"programNumber":35},{"time":130753.17357499989,"duration":446.96974166667496,"noteNumber":30,"velocity":127,"programNumber":35},{"time":130753.17357499989,"duration":446.96974166667496,"noteNumber":42,"velocity":127,"programNumber":35},{"time":131207.7190749999,"duration":446.9697416666604,"noteNumber":30,"velocity":127,"programNumber":35},{"time":131207.7190749999,"duration":446.9697416666604,"noteNumber":42,"velocity":127,"programNumber":35},{"time":131662.26457499992,"duration":446.9697416666604,"noteNumber":28,"velocity":127,"programNumber":35},{"time":131662.26457499992,"duration":446.9697416666604,"noteNumber":40,"velocity":127,"programNumber":35},{"time":132116.81007499993,"duration":446.9697416666604,"noteNumber":28,"velocity":127,"programNumber":35},{"time":132116.81007499993,"duration":446.9697416666604,"noteNumber":40,"velocity":127,"programNumber":35},{"time":132571.35557499994,"duration":901.5152416666679,"noteNumber":26,"velocity":127,"programNumber":35},{"time":132571.35557499994,"duration":901.5152416666679,"noteNumber":38,"velocity":127,"programNumber":35},{"time":134389.53757499994,"duration":446.9697416666604,"noteNumber":33,"velocity":127,"programNumber":35},{"time":134389.53757499994,"duration":446.9697416666604,"noteNumber":45,"velocity":127,"programNumber":35},{"time":134844.08307499994,"duration":446.9697416666604,"noteNumber":33,"velocity":127,"programNumber":35},{"time":134844.08307499994,"duration":446.9697416666604,"noteNumber":45,"velocity":127,"programNumber":35},{"time":135298.62857499995,"duration":446.9697416666604,"noteNumber":33,"velocity":127,"programNumber":35},{"time":135298.62857499995,"duration":446.9697416666604,"noteNumber":45,"velocity":127,"programNumber":35},{"time":135753.17407499996,"duration":446.9697416666604,"noteNumber":33,"velocity":127,"programNumber":35},{"time":135753.17407499996,"duration":446.9697416666604,"noteNumber":45,"velocity":127,"programNumber":35},{"time":136207.71957499997,"duration":446.9697416666604,"noteNumber":28,"velocity":127,"programNumber":35},{"time":136207.71957499997,"duration":446.9697416666604,"noteNumber":40,"velocity":127,"programNumber":35},{"time":136662.26507499997,"duration":446.9697416666604,"noteNumber":28,"velocity":127,"programNumber":35},{"time":136662.26507499997,"duration":446.9697416666604,"noteNumber":40,"velocity":127,"programNumber":35},{"time":137116.81057499998,"duration":446.9697416666604,"noteNumber":40,"velocity":127,"programNumber":35},{"time":137116.81057499998,"duration":446.9697416666604,"noteNumber":28,"velocity":127,"programNumber":35},{"time":137571.356075,"duration":446.9697416666604,"noteNumber":28,"velocity":127,"programNumber":35},{"time":137571.356075,"duration":446.9697416666604,"noteNumber":40,"velocity":127,"programNumber":35},{"time":138025.901575,"duration":446.9697416666604,"noteNumber":30,"velocity":127,"programNumber":35},{"time":138025.901575,"duration":446.9697416666604,"noteNumber":42,"velocity":127,"programNumber":35},{"time":138480.447075,"duration":446.9697416666604,"noteNumber":30,"velocity":127,"programNumber":35},{"time":138480.447075,"duration":446.9697416666604,"noteNumber":42,"velocity":127,"programNumber":35},{"time":138934.992575,"duration":446.9697416666604,"noteNumber":30,"velocity":127,"programNumber":35},{"time":138934.992575,"duration":446.9697416666604,"noteNumber":42,"velocity":127,"programNumber":35},{"time":139389.53807500002,"duration":446.9697416666604,"noteNumber":30,"velocity":127,"programNumber":35},{"time":139389.53807500002,"duration":446.9697416666604,"noteNumber":42,"velocity":127,"programNumber":35},{"time":139844.08357500003,"duration":446.9697416666604,"noteNumber":30,"velocity":127,"programNumber":35},{"time":139844.08357500003,"duration":446.9697416666604,"noteNumber":42,"velocity":127,"programNumber":35},{"time":140298.62907500003,"duration":446.9697416666604,"noteNumber":30,"velocity":127,"programNumber":35},{"time":140298.62907500003,"duration":446.9697416666604,"noteNumber":42,"velocity":127,"programNumber":35},{"time":140753.17457500004,"duration":446.9697416666604,"noteNumber":30,"velocity":127,"programNumber":35},{"time":140753.17457500004,"duration":446.9697416666604,"noteNumber":42,"velocity":127,"programNumber":35},{"time":141207.72007500005,"duration":446.9697416666604,"noteNumber":30,"velocity":127,"programNumber":35},{"time":141207.72007500005,"duration":446.9697416666604,"noteNumber":42,"velocity":127,"programNumber":35},{"time":141662.26557500006,"duration":446.9697416666604,"noteNumber":33,"velocity":127,"programNumber":35},{"time":141662.26557500006,"duration":446.9697416666604,"noteNumber":45,"velocity":127,"programNumber":35},{"time":142116.81107500006,"duration":446.9697416666604,"noteNumber":33,"velocity":127,"programNumber":35},{"time":142116.81107500006,"duration":446.9697416666604,"noteNumber":45,"velocity":127,"programNumber":35},{"time":142571.35657500007,"duration":446.9697416666604,"noteNumber":33,"velocity":127,"programNumber":35},{"time":142571.35657500007,"duration":446.9697416666604,"noteNumber":45,"velocity":127,"programNumber":35},{"time":143025.90207500008,"duration":446.9697416666604,"noteNumber":33,"velocity":127,"programNumber":35},{"time":143025.90207500008,"duration":446.9697416666604,"noteNumber":45,"velocity":127,"programNumber":35},{"time":143480.4475750001,"duration":446.9697416666604,"noteNumber":28,"velocity":127,"programNumber":35},{"time":143480.4475750001,"duration":446.9697416666604,"noteNumber":40,"velocity":127,"programNumber":35},{"time":143934.9930750001,"duration":446.9697416666604,"noteNumber":28,"velocity":127,"programNumber":35},{"time":143934.9930750001,"duration":446.9697416666604,"noteNumber":40,"velocity":127,"programNumber":35},{"time":144389.5385750001,"duration":446.9697416666604,"noteNumber":40,"velocity":127,"programNumber":35},{"time":144389.5385750001,"duration":446.9697416666604,"noteNumber":28,"velocity":127,"programNumber":35},{"time":144844.0840750001,"duration":446.9697416666604,"noteNumber":28,"velocity":127,"programNumber":35},{"time":144844.0840750001,"duration":446.9697416666604,"noteNumber":40,"velocity":127,"programNumber":35},{"time":145298.62957500012,"duration":446.9697416666604,"noteNumber":42,"velocity":127,"programNumber":35},{"time":145753.17507500012,"duration":446.9697416666604,"noteNumber":42,"velocity":127,"programNumber":35},{"time":146207.72057500013,"duration":227.27275000000373,"noteNumber":42,"velocity":127,"programNumber":35},{"time":146434.99332500013,"duration":219.6969916666567,"noteNumber":42,"velocity":127,"programNumber":35},{"time":146662.26607500014,"duration":219.6969916666567,"noteNumber":40,"velocity":127,"programNumber":35},{"time":146889.53882500014,"duration":219.6969916666567,"noteNumber":38,"velocity":127,"programNumber":35},{"time":147116.81157500015,"duration":219.6969916666567,"noteNumber":38,"velocity":127,"programNumber":35},{"time":147344.08432500015,"duration":219.6969916666567,"noteNumber":38,"velocity":127,"programNumber":35},{"time":147571.35707500015,"duration":219.6969916666567,"noteNumber":38,"velocity":127,"programNumber":35},{"time":147798.62982500016,"duration":219.6969916666567,"noteNumber":40,"velocity":127,"programNumber":35},{"time":148025.90257500016,"duration":219.6969916666567,"noteNumber":40,"velocity":127,"programNumber":35},{"time":148253.17532500016,"duration":219.6969916666567,"noteNumber":40,"velocity":127,"programNumber":35},{"time":148480.44807500017,"duration":219.6969916666567,"noteNumber":40,"velocity":127,"programNumber":35},{"time":148707.72082500017,"duration":219.6969916666567,"noteNumber":40,"velocity":127,"programNumber":35},{"time":148934.99357500018,"duration":446.9697416666604,"noteNumber":42,"velocity":127,"programNumber":35},{"time":149389.53907500018,"duration":446.9697416666604,"noteNumber":42,"velocity":127,"programNumber":35},{"time":149844.0845750002,"duration":227.27275000000373,"noteNumber":42,"velocity":127,"programNumber":35},{"time":150071.3573250002,"duration":219.6969916666567,"noteNumber":42,"velocity":127,"programNumber":35},{"time":150298.6300750002,"duration":219.6969916666567,"noteNumber":40,"velocity":127,"programNumber":35},{"time":150525.9028250002,"duration":219.6969916666567,"noteNumber":38,"velocity":127,"programNumber":35},{"time":150753.1755750002,"duration":219.6969916666567,"noteNumber":38,"velocity":127,"programNumber":35},{"time":150980.4483250002,"duration":219.6969916666567,"noteNumber":38,"velocity":127,"programNumber":35},{"time":151207.7210750002,"duration":219.6969916666567,"noteNumber":38,"velocity":127,"programNumber":35},{"time":151434.99382500022,"duration":219.6969916666567,"noteNumber":40,"velocity":127,"programNumber":35},{"time":151662.26657500022,"duration":219.6969916666567,"noteNumber":40,"velocity":127,"programNumber":35},{"time":151889.53932500022,"duration":219.6969916666567,"noteNumber":40,"velocity":127,"programNumber":35},{"time":152116.81207500023,"duration":219.6969916666567,"noteNumber":40,"velocity":127,"programNumber":35},{"time":152344.08482500023,"duration":219.6969916666567,"noteNumber":40,"velocity":127,"programNumber":35},{"time":152571.35757500023,"duration":219.6969916666567,"noteNumber":30,"velocity":127,"programNumber":35},{"time":152798.63032500024,"duration":219.6969916666567,"noteNumber":30,"velocity":127,"programNumber":35},{"time":154389.53957500024,"duration":219.6969916666567,"noteNumber":33,"velocity":127,"programNumber":35},{"time":154616.81232500024,"duration":219.6969916666567,"noteNumber":33,"velocity":127,"programNumber":35},{"time":155298.63057500022,"duration":219.6969916666567,"noteNumber":28,"velocity":127,"programNumber":35},{"time":155525.90332500022,"duration":219.6969916666567,"noteNumber":28,"velocity":127,"programNumber":35},{"time":156207.7215750002,"duration":219.6969916666567,"noteNumber":30,"velocity":127,"programNumber":35},{"time":156434.9943250002,"duration":219.6969916666567,"noteNumber":30,"velocity":127,"programNumber":35},{"time":157340.29669166688,"duration":219.6969916666567,"noteNumber":38,"velocity":127,"programNumber":35},{"time":157563.78155833355,"duration":219.6969916666567,"noteNumber":38,"velocity":127,"programNumber":35},{"time":158245.59980833353,"duration":227.27275000000373,"noteNumber":40,"velocity":127,"programNumber":35},{"time":158472.87255833353,"duration":227.27275000000373,"noteNumber":40,"velocity":127,"programNumber":35},{"time":159154.69080833354,"duration":219.6969916666567,"noteNumber":30,"velocity":127,"programNumber":35},{"time":159381.96355833355,"duration":219.6969916666567,"noteNumber":30,"velocity":127,"programNumber":35},{"time":160972.87280833354,"duration":219.6969916666567,"noteNumber":33,"velocity":127,"programNumber":35},{"time":161200.14555833355,"duration":219.6969916666567,"noteNumber":33,"velocity":127,"programNumber":35},{"time":161881.96380833353,"duration":219.6969916666567,"noteNumber":28,"velocity":127,"programNumber":35},{"time":162109.23655833353,"duration":219.6969916666567,"noteNumber":28,"velocity":127,"programNumber":35},{"time":162791.05480833352,"duration":219.6969916666567,"noteNumber":30,"velocity":127,"programNumber":35},{"time":163018.32755833352,"duration":219.6969916666567,"noteNumber":30,"velocity":127,"programNumber":35},{"time":164609.23680833352,"duration":901.5152416666679,"noteNumber":38,"velocity":127,"programNumber":35},{"time":165518.32780833353,"duration":901.5152416666679,"noteNumber":40,"velocity":127,"programNumber":35},{"time":166427.41880833355,"duration":446.9697416666604,"noteNumber":30,"velocity":127,"programNumber":35},{"time":166881.96430833355,"duration":446.9697416666604,"noteNumber":30,"velocity":127,"programNumber":35},{"time":167336.50980833356,"duration":446.9697416666604,"noteNumber":30,"velocity":127,"programNumber":35},{"time":167791.05530833357,"duration":446.9697416666604,"noteNumber":30,"velocity":127,"programNumber":35},{"time":168245.60080833358,"duration":446.9697416666604,"noteNumber":30,"velocity":127,"programNumber":35},{"time":168700.14630833358,"duration":446.9697416666604,"noteNumber":30,"velocity":127,"programNumber":35},{"time":169154.6918083336,"duration":446.9697416666604,"noteNumber":28,"velocity":127,"programNumber":35},{"time":169609.2373083336,"duration":446.9697416666604,"noteNumber":28,"velocity":127,"programNumber":35},{"time":170063.7828083336,"duration":446.9697416666604,"noteNumber":26,"velocity":127,"programNumber":35},{"time":170518.3283083336,"duration":446.9697416666604,"noteNumber":26,"velocity":127,"programNumber":35},{"time":170972.87380833362,"duration":446.9697416666604,"noteNumber":26,"velocity":127,"programNumber":35},{"time":171427.41930833363,"duration":446.9697416666604,"noteNumber":26,"velocity":127,"programNumber":35},{"time":171881.96480833364,"duration":446.9697416666604,"noteNumber":26,"velocity":127,"programNumber":35},{"time":172336.51030833364,"duration":446.9697416666604,"noteNumber":26,"velocity":127,"programNumber":35},{"time":172791.05580833365,"duration":446.9697416666604,"noteNumber":25,"velocity":127,"programNumber":35},{"time":173245.60130833366,"duration":446.9697416666604,"noteNumber":25,"velocity":127,"programNumber":35},{"time":173700.14680833367,"duration":446.9697416666604,"noteNumber":35,"velocity":127,"programNumber":35},{"time":173700.14680833367,"duration":446.9697416666604,"noteNumber":23,"velocity":127,"programNumber":35},{"time":174154.69230833367,"duration":446.9697416666604,"noteNumber":23,"velocity":127,"programNumber":35},{"time":174154.69230833367,"duration":446.9697416666604,"noteNumber":35,"velocity":127,"programNumber":35},{"time":174609.23780833368,"duration":446.9697416666604,"noteNumber":35,"velocity":127,"programNumber":35},{"time":174609.23780833368,"duration":446.9697416666604,"noteNumber":23,"velocity":127,"programNumber":35},{"time":175063.7833083337,"duration":446.9697416666604,"noteNumber":23,"velocity":127,"programNumber":35},{"time":175063.7833083337,"duration":446.9697416666604,"noteNumber":35,"velocity":127,"programNumber":35},{"time":175518.3288083337,"duration":446.9697416666604,"noteNumber":35,"velocity":127,"programNumber":35},{"time":175518.3288083337,"duration":446.9697416666604,"noteNumber":23,"velocity":127,"programNumber":35},{"time":175972.8743083337,"duration":446.9697416666604,"noteNumber":23,"velocity":127,"programNumber":35},{"time":175972.8743083337,"duration":446.9697416666604,"noteNumber":35,"velocity":127,"programNumber":35},{"time":176427.4198083337,"duration":446.9697416666604,"noteNumber":35,"velocity":127,"programNumber":35},{"time":176427.4198083337,"duration":446.9697416666604,"noteNumber":23,"velocity":127,"programNumber":35},{"time":176881.96530833372,"duration":446.9697416666604,"noteNumber":23,"velocity":127,"programNumber":35},{"time":176881.96530833372,"duration":446.9697416666604,"noteNumber":35,"velocity":127,"programNumber":35},{"time":177336.51080833373,"duration":219.6969916666567,"noteNumber":30,"velocity":127,"programNumber":35},{"time":177563.78355833373,"duration":219.6969916666567,"noteNumber":30,"velocity":127,"programNumber":35},{"time":177791.05630833373,"duration":219.6969916666567,"noteNumber":30,"velocity":127,"programNumber":35},{"time":178018.32905833374,"duration":219.6969916666567,"noteNumber":30,"velocity":127,"programNumber":35},{"time":178245.60180833374,"duration":219.6969916666567,"noteNumber":30,"velocity":127,"programNumber":35},{"time":178472.87455833374,"duration":219.6969916666567,"noteNumber":30,"velocity":127,"programNumber":35},{"time":178700.14730833375,"duration":219.6969916666567,"noteNumber":30,"velocity":127,"programNumber":35},{"time":178927.42005833375,"duration":219.6969916666567,"noteNumber":30,"velocity":127,"programNumber":35},{"time":179154.69280833376,"duration":219.6969916666567,"noteNumber":30,"velocity":127,"programNumber":35},{"time":179381.96555833376,"duration":219.6969916666567,"noteNumber":30,"velocity":127,"programNumber":35},{"time":179609.23830833376,"duration":219.6969916666567,"noteNumber":30,"velocity":127,"programNumber":35},{"time":179836.51105833377,"duration":219.6969916666567,"noteNumber":30,"velocity":127,"programNumber":35},{"time":180063.78380833377,"duration":219.6969916666567,"noteNumber":30,"velocity":127,"programNumber":35},{"time":180291.05655833377,"duration":219.6969916666567,"noteNumber":30,"velocity":127,"programNumber":35},{"time":180518.32930833378,"duration":219.6969916666567,"noteNumber":28,"velocity":127,"programNumber":35},{"time":180745.60205833378,"duration":219.6969916666567,"noteNumber":28,"velocity":127,"programNumber":35},{"time":180972.87480833379,"duration":219.6969916666567,"noteNumber":26,"velocity":127,"programNumber":35},{"time":181200.1475583338,"duration":219.6969916666567,"noteNumber":26,"velocity":127,"programNumber":35},{"time":181427.4203083338,"duration":219.6969916666567,"noteNumber":26,"velocity":127,"programNumber":35},{"time":181654.6930583338,"duration":219.6969916666567,"noteNumber":26,"velocity":127,"programNumber":35},{"time":181881.9658083338,"duration":219.6969916666567,"noteNumber":26,"velocity":127,"programNumber":35},{"time":182109.2385583338,"duration":219.6969916666567,"noteNumber":26,"velocity":127,"programNumber":35},{"time":182336.5113083338,"duration":219.6969916666567,"noteNumber":25,"velocity":127,"programNumber":35},{"time":182563.7840583338,"duration":219.6969916666567,"noteNumber":25,"velocity":127,"programNumber":35},{"time":182791.05680833381,"duration":219.6969916666567,"noteNumber":35,"velocity":127,"programNumber":35},{"time":182791.05680833381,"duration":219.6969916666567,"noteNumber":23,"velocity":127,"programNumber":35},{"time":183018.32955833382,"duration":219.6969916666567,"noteNumber":23,"velocity":127,"programNumber":35},{"time":183018.32955833382,"duration":219.6969916666567,"noteNumber":35,"velocity":127,"programNumber":35},{"time":183245.60230833382,"duration":219.6969916666567,"noteNumber":35,"velocity":127,"programNumber":35},{"time":183245.60230833382,"duration":219.6969916666567,"noteNumber":23,"velocity":127,"programNumber":35},{"time":183472.87505833383,"duration":219.6969916666567,"noteNumber":23,"velocity":127,"programNumber":35},{"time":183472.87505833383,"duration":219.6969916666567,"noteNumber":35,"velocity":127,"programNumber":35},{"time":183700.14780833383,"duration":219.6969916666567,"noteNumber":35,"velocity":127,"programNumber":35},{"time":183700.14780833383,"duration":219.6969916666567,"noteNumber":23,"velocity":127,"programNumber":35},{"time":183927.42055833383,"duration":219.6969916666567,"noteNumber":23,"velocity":127,"programNumber":35},{"time":183927.42055833383,"duration":219.6969916666567,"noteNumber":35,"velocity":127,"programNumber":35},{"time":184154.69330833384,"duration":219.6969916666567,"noteNumber":35,"velocity":127,"programNumber":35},{"time":184154.69330833384,"duration":219.6969916666567,"noteNumber":23,"velocity":127,"programNumber":35},{"time":184381.96605833384,"duration":219.6969916666567,"noteNumber":23,"velocity":127,"programNumber":35},{"time":184381.96605833384,"duration":219.6969916666567,"noteNumber":35,"velocity":127,"programNumber":35},{"time":184609.23880833384,"duration":219.6969916666567,"noteNumber":30,"velocity":127,"programNumber":35},{"time":184836.51155833385,"duration":219.6969916666567,"noteNumber":30,"velocity":127,"programNumber":35},{"time":185063.78430833385,"duration":219.6969916666567,"noteNumber":30,"velocity":127,"programNumber":35},{"time":185291.05705833386,"duration":219.6969916666567,"noteNumber":30,"velocity":127,"programNumber":35},{"time":185518.32980833386,"duration":219.6969916666567,"noteNumber":30,"velocity":127,"programNumber":35},{"time":185745.60255833386,"duration":219.6969916666567,"noteNumber":30,"velocity":127,"programNumber":35},{"time":185972.87530833387,"duration":219.6969916666567,"noteNumber":30,"velocity":127,"programNumber":35},{"time":186200.14805833387,"duration":219.6969916666567,"noteNumber":30,"velocity":127,"programNumber":35},{"time":186427.42080833387,"duration":446.9697416666604,"noteNumber":30,"velocity":127,"programNumber":35},{"time":186881.96630833388,"duration":446.9697416666604,"noteNumber":30,"velocity":127,"programNumber":35},{"time":187336.5118083339,"duration":446.9697416666604,"noteNumber":30,"velocity":127,"programNumber":35},{"time":187791.0573083339,"duration":446.9697416666604,"noteNumber":30,"velocity":127,"programNumber":35},{"time":188245.6028083339,"duration":446.9697416666604,"noteNumber":30,"velocity":127,"programNumber":35},{"time":188700.1483083339,"duration":446.9697416666604,"noteNumber":30,"velocity":127,"programNumber":35},{"time":189154.69380833392,"duration":446.9697416666604,"noteNumber":28,"velocity":127,"programNumber":35},{"time":189609.23930833393,"duration":446.9697416666604,"noteNumber":28,"velocity":127,"programNumber":35},{"time":190063.78480833393,"duration":446.9697416666604,"noteNumber":26,"velocity":127,"programNumber":35},{"time":190518.33030833394,"duration":446.9697416666604,"noteNumber":26,"velocity":127,"programNumber":35},{"time":190972.87580833395,"duration":446.9697416666604,"noteNumber":26,"velocity":127,"programNumber":35},{"time":191427.42130833396,"duration":446.9697416666604,"noteNumber":26,"velocity":127,"programNumber":35},{"time":191881.96680833396,"duration":446.9697416666604,"noteNumber":26,"velocity":127,"programNumber":35},{"time":192336.51230833397,"duration":446.9697416666604,"noteNumber":26,"velocity":127,"programNumber":35},{"time":192791.05780833398,"duration":446.9697416666604,"noteNumber":25,"velocity":127,"programNumber":35},{"time":193245.603308334,"duration":446.9697416666604,"noteNumber":25,"velocity":127,"programNumber":35},{"time":193700.148808334,"duration":446.9697416666604,"noteNumber":35,"velocity":127,"programNumber":35},{"time":193700.148808334,"duration":446.9697416666604,"noteNumber":23,"velocity":127,"programNumber":35},{"time":194154.694308334,"duration":446.9697416666604,"noteNumber":23,"velocity":127,"programNumber":35},{"time":194154.694308334,"duration":446.9697416666604,"noteNumber":35,"velocity":127,"programNumber":35},{"time":194609.239808334,"duration":446.9697416666604,"noteNumber":35,"velocity":127,"programNumber":35},{"time":194609.239808334,"duration":446.9697416666604,"noteNumber":23,"velocity":127,"programNumber":35},{"time":195063.78530833402,"duration":446.9697416666604,"noteNumber":23,"velocity":127,"programNumber":35},{"time":195063.78530833402,"duration":446.9697416666604,"noteNumber":35,"velocity":127,"programNumber":35},{"time":195518.33080833402,"duration":446.9697416666604,"noteNumber":35,"velocity":127,"programNumber":35},{"time":195518.33080833402,"duration":446.9697416666604,"noteNumber":23,"velocity":127,"programNumber":35},{"time":195972.87630833403,"duration":446.9697416666604,"noteNumber":23,"velocity":127,"programNumber":35},{"time":195972.87630833403,"duration":446.9697416666604,"noteNumber":35,"velocity":127,"programNumber":35},{"time":196427.42180833404,"duration":446.9697416666604,"noteNumber":35,"velocity":127,"programNumber":35},{"time":196427.42180833404,"duration":446.9697416666604,"noteNumber":23,"velocity":127,"programNumber":35},{"time":196881.96730833405,"duration":446.9697416666604,"noteNumber":23,"velocity":127,"programNumber":35},{"time":196881.96730833405,"duration":446.9697416666604,"noteNumber":35,"velocity":127,"programNumber":35},{"time":197336.51280833405,"duration":219.6969916666567,"noteNumber":30,"velocity":127,"programNumber":35},{"time":197563.78555833406,"duration":219.6969916666567,"noteNumber":30,"velocity":127,"programNumber":35},{"time":197791.05830833406,"duration":219.6969916666567,"noteNumber":30,"velocity":127,"programNumber":35},{"time":198018.33105833406,"duration":219.6969916666567,"noteNumber":30,"velocity":127,"programNumber":35},{"time":198245.60380833407,"duration":219.6969916666567,"noteNumber":30,"velocity":127,"programNumber":35},{"time":198472.87655833407,"duration":219.6969916666567,"noteNumber":30,"velocity":127,"programNumber":35},{"time":198700.14930833408,"duration":219.6969916666567,"noteNumber":30,"velocity":127,"programNumber":35},{"time":198927.42205833408,"duration":219.6969916666567,"noteNumber":30,"velocity":127,"programNumber":35},{"time":199154.69480833408,"duration":219.6969916666567,"noteNumber":30,"velocity":127,"programNumber":35},{"time":199381.9675583341,"duration":219.6969916666567,"noteNumber":30,"velocity":127,"programNumber":35},{"time":199609.2403083341,"duration":219.6969916666567,"noteNumber":30,"velocity":127,"programNumber":35},{"time":199836.5130583341,"duration":219.6969916666567,"noteNumber":30,"velocity":127,"programNumber":35},{"time":200063.7858083341,"duration":219.6969916666567,"noteNumber":30,"velocity":127,"programNumber":35},{"time":200291.0585583341,"duration":219.6969916666567,"noteNumber":30,"velocity":127,"programNumber":35},{"time":200518.3313083341,"duration":219.6969916666567,"noteNumber":28,"velocity":127,"programNumber":35},{"time":200745.6040583341,"duration":219.6969916666567,"noteNumber":28,"velocity":127,"programNumber":35},{"time":200972.8768083341,"duration":219.6969916666567,"noteNumber":26,"velocity":127,"programNumber":35},{"time":201200.14955833412,"duration":219.6969916666567,"noteNumber":26,"velocity":127,"programNumber":35},{"time":201427.42230833412,"duration":219.6969916666567,"noteNumber":26,"velocity":127,"programNumber":35},{"time":201654.69505833412,"duration":219.6969916666567,"noteNumber":26,"velocity":127,"programNumber":35},{"time":201881.96780833413,"duration":219.6969916666567,"noteNumber":26,"velocity":127,"programNumber":35},{"time":202109.24055833413,"duration":219.6969916666567,"noteNumber":26,"velocity":127,"programNumber":35},{"time":202336.51330833414,"duration":219.6969916666567,"noteNumber":25,"velocity":127,"programNumber":35},{"time":202563.78605833414,"duration":219.6969916666567,"noteNumber":25,"velocity":127,"programNumber":35},{"time":202791.05880833414,"duration":219.6969916666567,"noteNumber":35,"velocity":127,"programNumber":35},{"time":202791.05880833414,"duration":219.6969916666567,"noteNumber":23,"velocity":127,"programNumber":35},{"time":203018.33155833415,"duration":219.6969916666567,"noteNumber":23,"velocity":127,"programNumber":35},{"time":203018.33155833415,"duration":219.6969916666567,"noteNumber":35,"velocity":127,"programNumber":35},{"time":203245.60430833415,"duration":219.6969916666567,"noteNumber":35,"velocity":127,"programNumber":35},{"time":203245.60430833415,"duration":219.6969916666567,"noteNumber":23,"velocity":127,"programNumber":35},{"time":203472.87705833415,"duration":219.6969916666567,"noteNumber":23,"velocity":127,"programNumber":35},{"time":203472.87705833415,"duration":219.6969916666567,"noteNumber":35,"velocity":127,"programNumber":35},{"time":203700.14980833416,"duration":219.6969916666567,"noteNumber":35,"velocity":127,"programNumber":35},{"time":203700.14980833416,"duration":219.6969916666567,"noteNumber":23,"velocity":127,"programNumber":35},{"time":203927.42255833416,"duration":219.6969916666567,"noteNumber":23,"velocity":127,"programNumber":35},{"time":203927.42255833416,"duration":219.6969916666567,"noteNumber":35,"velocity":127,"programNumber":35},{"time":204154.69530833417,"duration":219.6969916666567,"noteNumber":35,"velocity":127,"programNumber":35},{"time":204154.69530833417,"duration":219.6969916666567,"noteNumber":23,"velocity":127,"programNumber":35},{"time":204381.96805833417,"duration":219.6969916666567,"noteNumber":23,"velocity":127,"programNumber":35},{"time":204381.96805833417,"duration":219.6969916666567,"noteNumber":35,"velocity":127,"programNumber":35},{"time":204609.24080833417,"duration":219.6969916666567,"noteNumber":37,"velocity":127,"programNumber":35},{"time":204609.24080833417,"duration":219.6969916666567,"noteNumber":25,"velocity":127,"programNumber":35},{"time":204836.51355833418,"duration":219.6969916666567,"noteNumber":25,"velocity":127,"programNumber":35},{"time":204836.51355833418,"duration":219.6969916666567,"noteNumber":37,"velocity":127,"programNumber":35},{"time":205063.78630833418,"duration":219.6969916666567,"noteNumber":37,"velocity":127,"programNumber":35},{"time":205063.78630833418,"duration":219.6969916666567,"noteNumber":25,"velocity":127,"programNumber":35},{"time":205291.05905833418,"duration":219.6969916666567,"noteNumber":25,"velocity":127,"programNumber":35},{"time":205291.05905833418,"duration":219.6969916666567,"noteNumber":37,"velocity":127,"programNumber":35},{"time":205518.3318083342,"duration":219.6969916666567,"noteNumber":37,"velocity":127,"programNumber":35},{"time":205518.3318083342,"duration":219.6969916666567,"noteNumber":25,"velocity":127,"programNumber":35},{"time":205745.6045583342,"duration":219.6969916666567,"noteNumber":25,"velocity":127,"programNumber":35},{"time":205745.6045583342,"duration":219.6969916666567,"noteNumber":37,"velocity":127,"programNumber":35},{"time":205972.8773083342,"duration":219.6969916666567,"noteNumber":37,"velocity":127,"programNumber":35},{"time":205972.8773083342,"duration":219.6969916666567,"noteNumber":25,"velocity":127,"programNumber":35},{"time":206200.1500583342,"duration":219.6969916666567,"noteNumber":25,"velocity":127,"programNumber":35},{"time":206200.1500583342,"duration":219.6969916666567,"noteNumber":37,"velocity":127,"programNumber":35},{"time":206427.4228083342,"duration":219.6969916666567,"noteNumber":30,"velocity":127,"programNumber":35},{"time":206654.6955583342,"duration":219.6969916666567,"noteNumber":30,"velocity":127,"programNumber":35},{"time":208245.6048083342,"duration":219.6969916666567,"noteNumber":33,"velocity":127,"programNumber":35},{"time":208472.8775583342,"duration":219.6969916666567,"noteNumber":33,"velocity":127,"programNumber":35},{"time":209154.6958083342,"duration":219.6969916666567,"noteNumber":28,"velocity":127,"programNumber":35},{"time":209381.9685583342,"duration":219.6969916666567,"noteNumber":28,"velocity":127,"programNumber":35},{"time":210063.78680833417,"duration":219.6969916666567,"noteNumber":30,"velocity":127,"programNumber":35},{"time":210291.05955833418,"duration":219.6969916666567,"noteNumber":30,"velocity":127,"programNumber":35},{"time":211881.96880833418,"duration":219.6969916666567,"noteNumber":38,"velocity":127,"programNumber":35},{"time":212109.24155833418,"duration":219.6969916666567,"noteNumber":38,"velocity":127,"programNumber":35},{"time":212791.05980833416,"duration":219.6969916666567,"noteNumber":37,"velocity":127,"programNumber":35},{"time":213018.33255833416,"duration":219.6969916666567,"noteNumber":37,"velocity":127,"programNumber":35},{"time":213700.15080833415,"duration":219.6969916666567,"noteNumber":30,"velocity":127,"programNumber":35},{"time":213927.42355833415,"duration":219.6969916666567,"noteNumber":30,"velocity":127,"programNumber":35},{"time":215518.33280833415,"duration":219.6969916666567,"noteNumber":33,"velocity":127,"programNumber":35},{"time":215745.60555833415,"duration":219.6969916666567,"noteNumber":33,"velocity":127,"programNumber":35},{"time":216427.42380833413,"duration":219.6969916666567,"noteNumber":28,"velocity":127,"programNumber":35},{"time":216654.69655833414,"duration":219.6969916666567,"noteNumber":28,"velocity":127,"programNumber":35},{"time":217336.51480833412,"duration":219.6969916666567,"noteNumber":30,"velocity":127,"programNumber":35},{"time":217563.78755833412,"duration":219.6969916666567,"noteNumber":30,"velocity":127,"programNumber":35},{"time":219154.69680833412,"duration":901.5152416666679,"noteNumber":38,"velocity":127,"programNumber":35},{"time":220063.78780833413,"duration":901.5152416666679,"noteNumber":40,"velocity":127,"programNumber":35},{"time":220972.87880833415,"duration":219.6969916666567,"noteNumber":33,"velocity":127,"programNumber":35},{"time":221200.15155833415,"duration":219.6969916666567,"noteNumber":45,"velocity":127,"programNumber":35},{"time":221427.42430833416,"duration":219.6969916666567,"noteNumber":33,"velocity":127,"programNumber":35},{"time":221654.69705833416,"duration":219.6969916666567,"noteNumber":45,"velocity":127,"programNumber":35},{"time":221881.96980833416,"duration":219.6969916666567,"noteNumber":33,"velocity":127,"programNumber":35},{"time":222109.24255833417,"duration":219.6969916666567,"noteNumber":45,"velocity":127,"programNumber":35},{"time":222336.51530833417,"duration":219.6969916666567,"noteNumber":33,"velocity":127,"programNumber":35},{"time":222563.78805833418,"duration":219.6969916666567,"noteNumber":45,"velocity":127,"programNumber":35},{"time":222791.06080833418,"duration":219.6969916666567,"noteNumber":33,"velocity":127,"programNumber":35},{"time":223018.33355833418,"duration":219.6969916666567,"noteNumber":45,"velocity":127,"programNumber":35},{"time":223245.6063083342,"duration":219.6969916666567,"noteNumber":33,"velocity":127,"programNumber":35},{"time":223472.8790583342,"duration":219.6969916666567,"noteNumber":44,"velocity":127,"programNumber":35},{"time":223700.1518083342,"duration":219.6969916666567,"noteNumber":33,"velocity":127,"programNumber":35},{"time":223927.4245583342,"duration":219.6969916666567,"noteNumber":42,"velocity":127,"programNumber":35},{"time":224154.6973083342,"duration":219.6969916666567,"noteNumber":33,"velocity":127,"programNumber":35},{"time":224381.9700583342,"duration":219.6969916666567,"noteNumber":40,"velocity":127,"programNumber":35},{"time":224609.2428083342,"duration":219.6969916666567,"noteNumber":33,"velocity":127,"programNumber":35},{"time":224836.5155583342,"duration":219.6969916666567,"noteNumber":45,"velocity":127,"programNumber":35},{"time":225063.78830833422,"duration":219.6969916666567,"noteNumber":33,"velocity":127,"programNumber":35},{"time":225291.06105833422,"duration":219.6969916666567,"noteNumber":45,"velocity":127,"programNumber":35},{"time":225518.33380833422,"duration":219.6969916666567,"noteNumber":33,"velocity":127,"programNumber":35},{"time":225745.60655833423,"duration":219.6969916666567,"noteNumber":45,"velocity":127,"programNumber":35},{"time":225972.87930833423,"duration":219.6969916666567,"noteNumber":33,"velocity":127,"programNumber":35},{"time":226200.15205833424,"duration":219.6969916666567,"noteNumber":45,"velocity":127,"programNumber":35},{"time":226427.42480833424,"duration":219.6969916666567,"noteNumber":33,"velocity":127,"programNumber":35},{"time":226654.69755833424,"duration":219.6969916666567,"noteNumber":45,"velocity":127,"programNumber":35},{"time":226881.97030833425,"duration":219.6969916666567,"noteNumber":33,"velocity":127,"programNumber":35},{"time":227109.24305833425,"duration":219.6969916666567,"noteNumber":44,"velocity":127,"programNumber":35},{"time":227336.51580833425,"duration":219.6969916666567,"noteNumber":33,"velocity":127,"programNumber":35},{"time":227563.78855833426,"duration":219.6969916666567,"noteNumber":42,"velocity":127,"programNumber":35},{"time":227791.06130833426,"duration":219.6969916666567,"noteNumber":33,"velocity":127,"programNumber":35},{"time":228018.33405833427,"duration":219.6969916666567,"noteNumber":40,"velocity":127,"programNumber":35},{"time":228245.60680833427,"duration":219.6969916666567,"noteNumber":33,"velocity":127,"programNumber":35},{"time":228472.87955833427,"duration":219.6969916666567,"noteNumber":45,"velocity":127,"programNumber":35},{"time":228700.15230833428,"duration":219.6969916666567,"noteNumber":33,"velocity":127,"programNumber":35},{"time":228927.42505833428,"duration":219.6969916666567,"noteNumber":45,"velocity":127,"programNumber":35},{"time":229154.69780833428,"duration":219.6969916666567,"noteNumber":33,"velocity":127,"programNumber":35},{"time":229381.9705583343,"duration":219.6969916666567,"noteNumber":45,"velocity":127,"programNumber":35},{"time":229609.2433083343,"duration":219.6969916666567,"noteNumber":33,"velocity":127,"programNumber":35},{"time":229836.5160583343,"duration":219.6969916666567,"noteNumber":45,"velocity":127,"programNumber":35},{"time":230063.7888083343,"duration":219.6969916666567,"noteNumber":33,"velocity":127,"programNumber":35},{"time":230291.0615583343,"duration":219.6969916666567,"noteNumber":45,"velocity":127,"programNumber":35},{"time":230518.3343083343,"duration":219.6969916666567,"noteNumber":33,"velocity":127,"programNumber":35},{"time":230745.6070583343,"duration":219.6969916666567,"noteNumber":44,"velocity":127,"programNumber":35},{"time":230972.8798083343,"duration":219.6969916666567,"noteNumber":33,"velocity":127,"programNumber":35},{"time":231200.15255833432,"duration":219.6969916666567,"noteNumber":42,"velocity":127,"programNumber":35},{"time":231427.42530833432,"duration":219.6969916666567,"noteNumber":33,"velocity":127,"programNumber":35},{"time":231654.69805833432,"duration":219.6969916666567,"noteNumber":40,"velocity":127,"programNumber":35},{"time":231881.97080833433,"duration":219.6969916666567,"noteNumber":33,"velocity":127,"programNumber":35},{"time":232109.24355833433,"duration":219.6969916666567,"noteNumber":45,"velocity":127,"programNumber":35},{"time":232336.51630833434,"duration":219.6969916666567,"noteNumber":33,"velocity":127,"programNumber":35},{"time":232563.78905833434,"duration":219.6969916666567,"noteNumber":45,"velocity":127,"programNumber":35},{"time":232791.06180833434,"duration":219.6969916666567,"noteNumber":33,"velocity":127,"programNumber":35},{"time":233018.33455833435,"duration":219.6969916666567,"noteNumber":45,"velocity":127,"programNumber":35},{"time":233245.60730833435,"duration":219.6969916666567,"noteNumber":33,"velocity":127,"programNumber":35},{"time":233472.88005833435,"duration":219.6969916666567,"noteNumber":45,"velocity":127,"programNumber":35},{"time":233700.15280833436,"duration":219.6969916666567,"noteNumber":33,"velocity":127,"programNumber":35},{"time":233927.42555833436,"duration":219.6969916666567,"noteNumber":45,"velocity":127,"programNumber":35},{"time":234154.69830833437,"duration":219.6969916666567,"noteNumber":33,"velocity":127,"programNumber":35},{"time":234381.97105833437,"duration":219.6969916666567,"noteNumber":44,"velocity":127,"programNumber":35},{"time":234609.24380833437,"duration":219.6969916666567,"noteNumber":33,"velocity":127,"programNumber":35},{"time":234836.51655833438,"duration":219.6969916666567,"noteNumber":42,"velocity":127,"programNumber":35},{"time":235063.78930833438,"duration":219.6969916666567,"noteNumber":33,"velocity":127,"programNumber":35},{"time":235291.06205833438,"duration":219.6969916666567,"noteNumber":40,"velocity":127,"programNumber":35},{"time":235518.3348083344,"duration":219.6969916666567,"noteNumber":33,"velocity":127,"programNumber":35},{"time":235745.6075583344,"duration":219.6969916666567,"noteNumber":45,"velocity":127,"programNumber":35},{"time":235972.8803083344,"duration":219.6969916666567,"noteNumber":33,"velocity":127,"programNumber":35},{"time":236200.1530583344,"duration":219.6969916666567,"noteNumber":45,"velocity":127,"programNumber":35},{"time":236427.4258083344,"duration":219.6969916666567,"noteNumber":33,"velocity":127,"programNumber":35},{"time":236654.6985583344,"duration":219.6969916666567,"noteNumber":45,"velocity":127,"programNumber":35},{"time":236881.9713083344,"duration":219.6969916666567,"noteNumber":33,"velocity":127,"programNumber":35},{"time":237109.2440583344,"duration":219.6969916666567,"noteNumber":45,"velocity":127,"programNumber":35},{"time":237336.51680833442,"duration":219.6969916666567,"noteNumber":33,"velocity":127,"programNumber":35},{"time":237563.78955833442,"duration":219.6969916666567,"noteNumber":45,"velocity":127,"programNumber":35},{"time":237791.06230833443,"duration":219.6969916666567,"noteNumber":33,"velocity":127,"programNumber":35},{"time":238018.33505833443,"duration":219.6969916666567,"noteNumber":44,"velocity":127,"programNumber":35},{"time":238245.60780833443,"duration":219.6969916666567,"noteNumber":33,"velocity":127,"programNumber":35},{"time":238472.88055833444,"duration":219.6969916666567,"noteNumber":42,"velocity":127,"programNumber":35},{"time":238700.15330833444,"duration":219.6969916666567,"noteNumber":33,"velocity":127,"programNumber":35},{"time":238927.42605833444,"duration":219.6969916666567,"noteNumber":40,"velocity":127,"programNumber":35},{"time":239154.69880833445,"duration":219.6969916666567,"noteNumber":33,"velocity":127,"programNumber":35},{"time":239381.97155833445,"duration":219.6969916666567,"noteNumber":45,"velocity":127,"programNumber":35},{"time":239609.24430833446,"duration":219.6969916666567,"noteNumber":33,"velocity":127,"programNumber":35},{"time":239836.51705833446,"duration":219.6969916666567,"noteNumber":45,"velocity":127,"programNumber":35},{"time":240063.78980833446,"duration":219.6969916666567,"noteNumber":33,"velocity":127,"programNumber":35},{"time":240291.06255833447,"duration":219.6969916666567,"noteNumber":45,"velocity":127,"programNumber":35},{"time":240518.33530833447,"duration":219.6969916666567,"noteNumber":33,"velocity":127,"programNumber":35},{"time":240745.60805833447,"duration":219.6969916666567,"noteNumber":45,"velocity":127,"programNumber":35},{"time":240972.88080833448,"duration":219.6969916666567,"noteNumber":33,"velocity":127,"programNumber":35},{"time":241200.15355833448,"duration":219.6969916666567,"noteNumber":45,"velocity":127,"programNumber":35},{"time":241427.42630833448,"duration":219.6969916666567,"noteNumber":33,"velocity":127,"programNumber":35},{"time":241654.6990583345,"duration":219.6969916666567,"noteNumber":44,"velocity":127,"programNumber":35},{"time":241881.9718083345,"duration":219.6969916666567,"noteNumber":33,"velocity":127,"programNumber":35},{"time":242109.2445583345,"duration":219.6969916666567,"noteNumber":42,"velocity":127,"programNumber":35},{"time":242336.5173083345,"duration":219.6969916666567,"noteNumber":33,"velocity":127,"programNumber":35},{"time":242563.7900583345,"duration":219.6969916666567,"noteNumber":40,"velocity":127,"programNumber":35},{"time":242791.0628083345,"duration":219.6969916666567,"noteNumber":33,"velocity":127,"programNumber":35},{"time":243018.3355583345,"duration":219.6969916666567,"noteNumber":45,"velocity":127,"programNumber":35},{"time":243245.60830833451,"duration":219.6969916666567,"noteNumber":33,"velocity":127,"programNumber":35},{"time":243472.88105833452,"duration":219.6969916666567,"noteNumber":45,"velocity":127,"programNumber":35},{"time":243700.15380833452,"duration":219.6969916666567,"noteNumber":33,"velocity":127,"programNumber":35},{"time":243927.42655833453,"duration":219.6969916666567,"noteNumber":45,"velocity":127,"programNumber":35},{"time":244154.69930833453,"duration":219.6969916666567,"noteNumber":33,"velocity":127,"programNumber":35},{"time":244381.97205833453,"duration":219.6969916666567,"noteNumber":45,"velocity":127,"programNumber":35},{"time":244609.24480833454,"duration":219.6969916666567,"noteNumber":33,"velocity":127,"programNumber":35},{"time":244836.51755833454,"duration":219.6969916666567,"noteNumber":45,"velocity":127,"programNumber":35},{"time":245063.79030833454,"duration":219.6969916666567,"noteNumber":33,"velocity":127,"programNumber":35},{"time":245291.06305833455,"duration":219.6969916666567,"noteNumber":44,"velocity":127,"programNumber":35},{"time":245518.33580833455,"duration":219.6969916666567,"noteNumber":33,"velocity":127,"programNumber":35},{"time":245745.60855833456,"duration":219.6969916666567,"noteNumber":42,"velocity":127,"programNumber":35},{"time":245972.88130833456,"duration":219.6969916666567,"noteNumber":33,"velocity":127,"programNumber":35},{"time":246200.15405833456,"duration":219.6969916666567,"noteNumber":40,"velocity":127,"programNumber":35},{"time":246427.42680833457,"duration":219.6969916666567,"noteNumber":33,"velocity":127,"programNumber":35},{"time":246654.69955833457,"duration":219.6969916666567,"noteNumber":45,"velocity":127,"programNumber":35},{"time":246881.97230833457,"duration":219.6969916666567,"noteNumber":33,"velocity":127,"programNumber":35},{"time":247109.24505833458,"duration":219.6969916666567,"noteNumber":45,"velocity":127,"programNumber":35},{"time":247336.51780833458,"duration":219.6969916666567,"noteNumber":33,"velocity":127,"programNumber":35},{"time":247563.7905583346,"duration":219.6969916666567,"noteNumber":45,"velocity":127,"programNumber":35},{"time":247791.0633083346,"duration":219.6969916666567,"noteNumber":33,"velocity":127,"programNumber":35},{"time":248018.3360583346,"duration":219.6969916666567,"noteNumber":45,"velocity":127,"programNumber":35},{"time":248245.6088083346,"duration":219.6969916666567,"noteNumber":33,"velocity":127,"programNumber":35},{"time":248472.8815583346,"duration":219.6969916666567,"noteNumber":45,"velocity":127,"programNumber":35},{"time":248700.1543083346,"duration":219.6969916666567,"noteNumber":33,"velocity":127,"programNumber":35},{"time":248927.4270583346,"duration":219.6969916666567,"noteNumber":44,"velocity":127,"programNumber":35},{"time":249154.6998083346,"duration":219.6969916666567,"noteNumber":33,"velocity":127,"programNumber":35},{"time":249381.97255833462,"duration":219.6969916666567,"noteNumber":42,"velocity":127,"programNumber":35},{"time":249609.24530833462,"duration":219.6969916666567,"noteNumber":33,"velocity":127,"programNumber":35},{"time":249836.51805833462,"duration":219.6969916666567,"noteNumber":40,"velocity":127,"programNumber":35},{"time":250063.79080833463,"duration":219.6969916666567,"noteNumber":33,"velocity":127,"programNumber":35},{"time":250291.06355833463,"duration":219.6969916666567,"noteNumber":45,"velocity":127,"programNumber":35},{"time":250518.33630833463,"duration":219.6969916666567,"noteNumber":33,"velocity":127,"programNumber":35},{"time":250745.60905833464,"duration":219.6969916666567,"noteNumber":45,"velocity":127,"programNumber":35},{"time":250972.88180833464,"duration":219.6969916666567,"noteNumber":33,"velocity":127,"programNumber":35},{"time":251200.15455833465,"duration":219.6969916666567,"noteNumber":45,"velocity":127,"programNumber":35},{"time":251427.42730833465,"duration":219.6969916666567,"noteNumber":33,"velocity":127,"programNumber":35},{"time":251654.70005833465,"duration":219.6969916666567,"noteNumber":45,"velocity":127,"programNumber":35},{"time":251881.97280833466,"duration":219.6969916666567,"noteNumber":33,"velocity":127,"programNumber":35},{"time":252109.24555833466,"duration":219.6969916666567,"noteNumber":45,"velocity":127,"programNumber":35},{"time":252336.51830833466,"duration":219.6969916666567,"noteNumber":33,"velocity":127,"programNumber":35},{"time":252563.79105833467,"duration":219.6969916666567,"noteNumber":44,"velocity":127,"programNumber":35},{"time":252791.06380833467,"duration":219.6969916666567,"noteNumber":33,"velocity":127,"programNumber":35},{"time":253018.33655833467,"duration":219.6969916666567,"noteNumber":42,"velocity":127,"programNumber":35},{"time":253245.60930833468,"duration":219.6969916666567,"noteNumber":33,"velocity":127,"programNumber":35},{"time":253472.88205833468,"duration":219.6969916666567,"noteNumber":40,"velocity":127,"programNumber":35},{"time":253700.1548083347,"duration":219.6969916666567,"noteNumber":33,"velocity":127,"programNumber":35},{"time":253927.4275583347,"duration":219.6969916666567,"noteNumber":45,"velocity":127,"programNumber":35},{"time":254154.7003083347,"duration":219.6969916666567,"noteNumber":33,"velocity":127,"programNumber":35},{"time":254381.9730583347,"duration":219.6969916666567,"noteNumber":45,"velocity":127,"programNumber":35},{"time":254609.2458083347,"duration":219.6969916666567,"noteNumber":33,"velocity":127,"programNumber":35},{"time":254836.5185583347,"duration":219.6969916666567,"noteNumber":45,"velocity":127,"programNumber":35},{"time":255063.7913083347,"duration":219.6969916666567,"noteNumber":33,"velocity":127,"programNumber":35},{"time":255291.0640583347,"duration":219.6969916666567,"noteNumber":45,"velocity":127,"programNumber":35},{"time":255518.33680833472,"duration":219.6969916666567,"noteNumber":33,"velocity":127,"programNumber":35},{"time":255745.60955833472,"duration":219.6969916666567,"noteNumber":45,"velocity":127,"programNumber":35},{"time":255972.88230833472,"duration":219.6969916666567,"noteNumber":33,"velocity":127,"programNumber":35},{"time":256200.15505833473,"duration":219.6969916666567,"noteNumber":44,"velocity":127,"programNumber":35},{"time":256427.42780833473,"duration":219.6969916666567,"noteNumber":33,"velocity":127,"programNumber":35},{"time":256654.70055833473,"duration":219.6969916666567,"noteNumber":42,"velocity":127,"programNumber":35},{"time":256881.97330833474,"duration":219.6969916666567,"noteNumber":33,"velocity":127,"programNumber":35},{"time":257109.24605833474,"duration":219.6969916666567,"noteNumber":40,"velocity":127,"programNumber":35},{"time":257336.51880833475,"duration":446.9697416666604,"noteNumber":30,"velocity":127,"programNumber":35},{"time":257336.51880833475,"duration":446.9697416666604,"noteNumber":42,"velocity":127,"programNumber":35},{"time":257791.06430833475,"duration":446.9697416666604,"noteNumber":30,"velocity":127,"programNumber":35},{"time":257791.06430833475,"duration":446.9697416666604,"noteNumber":42,"velocity":127,"programNumber":35},{"time":258245.60980833476,"duration":446.9697416666604,"noteNumber":28,"velocity":127,"programNumber":35},{"time":258245.60980833476,"duration":446.9697416666604,"noteNumber":40,"velocity":127,"programNumber":35},{"time":258700.15530833477,"duration":446.9697416666604,"noteNumber":28,"velocity":127,"programNumber":35},{"time":258700.15530833477,"duration":446.9697416666604,"noteNumber":40,"velocity":127,"programNumber":35},{"time":259154.70080833478,"duration":901.5152416666679,"noteNumber":26,"velocity":127,"programNumber":35},{"time":259154.70080833478,"duration":901.5152416666679,"noteNumber":38,"velocity":127,"programNumber":35},{"time":260972.88280833478,"duration":446.9697416666604,"noteNumber":30,"velocity":127,"programNumber":35},{"time":260972.88280833478,"duration":446.9697416666604,"noteNumber":42,"velocity":127,"programNumber":35},{"time":261427.42830833478,"duration":446.9697416666604,"noteNumber":30,"velocity":127,"programNumber":35},{"time":261427.42830833478,"duration":446.9697416666604,"noteNumber":42,"velocity":127,"programNumber":35},{"time":261881.9738083348,"duration":446.9697416666895,"noteNumber":28,"velocity":127,"programNumber":35},{"time":261881.9738083348,"duration":446.9697416666895,"noteNumber":40,"velocity":127,"programNumber":35},{"time":262336.5193083348,"duration":446.9697416666895,"noteNumber":28,"velocity":127,"programNumber":35},{"time":262336.5193083348,"duration":446.9697416666895,"noteNumber":40,"velocity":127,"programNumber":35},{"time":262791.0648083348,"duration":901.5152416666388,"noteNumber":26,"velocity":127,"programNumber":35},{"time":262791.0648083348,"duration":901.5152416666388,"noteNumber":38,"velocity":127,"programNumber":35},{"time":264609.2468083348,"duration":446.9697416666895,"noteNumber":33,"velocity":127,"programNumber":35},{"time":264609.2468083348,"duration":446.9697416666895,"noteNumber":45,"velocity":127,"programNumber":35},{"time":265063.7923083348,"duration":446.9697416666895,"noteNumber":33,"velocity":127,"programNumber":35},{"time":265063.7923083348,"duration":446.9697416666895,"noteNumber":45,"velocity":127,"programNumber":35},{"time":265518.3378083348,"duration":446.9697416666895,"noteNumber":33,"velocity":127,"programNumber":35},{"time":265518.3378083348,"duration":446.9697416666895,"noteNumber":45,"velocity":127,"programNumber":35},{"time":265972.8833083348,"duration":446.9697416666895,"noteNumber":33,"velocity":127,"programNumber":35},{"time":265972.8833083348,"duration":446.9697416666895,"noteNumber":45,"velocity":127,"programNumber":35},{"time":266427.4288083348,"duration":446.9697416666895,"noteNumber":28,"velocity":127,"programNumber":35},{"time":266427.4288083348,"duration":446.9697416666895,"noteNumber":40,"velocity":127,"programNumber":35},{"time":266881.9743083348,"duration":446.9697416666895,"noteNumber":28,"velocity":127,"programNumber":35},{"time":266881.9743083348,"duration":446.9697416666895,"noteNumber":40,"velocity":127,"programNumber":35},{"time":267336.5198083348,"duration":446.9697416666895,"noteNumber":40,"velocity":127,"programNumber":35},{"time":267336.5198083348,"duration":446.9697416666895,"noteNumber":28,"velocity":127,"programNumber":35},{"time":267791.06530833483,"duration":446.9697416666895,"noteNumber":28,"velocity":127,"programNumber":35},{"time":267791.06530833483,"duration":446.9697416666895,"noteNumber":40,"velocity":127,"programNumber":35},{"time":268245.61080833484,"duration":446.9697416666895,"noteNumber":30,"velocity":127,"programNumber":35},{"time":268245.61080833484,"duration":446.9697416666895,"noteNumber":42,"velocity":127,"programNumber":35},{"time":268700.15630833484,"duration":446.9697416666895,"noteNumber":30,"velocity":127,"programNumber":35},{"time":268700.15630833484,"duration":446.9697416666895,"noteNumber":42,"velocity":127,"programNumber":35},{"time":269154.70180833485,"duration":446.9697416666895,"noteNumber":30,"velocity":127,"programNumber":35},{"time":269154.70180833485,"duration":446.9697416666895,"noteNumber":42,"velocity":127,"programNumber":35},{"time":269609.24730833486,"duration":446.9697416666895,"noteNumber":30,"velocity":127,"programNumber":35},{"time":269609.24730833486,"duration":446.9697416666895,"noteNumber":42,"velocity":127,"programNumber":35},{"time":270063.79280833487,"duration":446.9697416666895,"noteNumber":30,"velocity":127,"programNumber":35},{"time":270063.79280833487,"duration":446.9697416666895,"noteNumber":42,"velocity":127,"programNumber":35},{"time":270518.3383083349,"duration":446.9697416666895,"noteNumber":30,"velocity":127,"programNumber":35},{"time":270518.3383083349,"duration":446.9697416666895,"noteNumber":42,"velocity":127,"programNumber":35},{"time":270972.8838083349,"duration":446.9697416666895,"noteNumber":30,"velocity":127,"programNumber":35},{"time":270972.8838083349,"duration":446.9697416666895,"noteNumber":42,"velocity":127,"programNumber":35},{"time":271427.4293083349,"duration":446.9697416666895,"noteNumber":30,"velocity":127,"programNumber":35},{"time":271427.4293083349,"duration":446.9697416666895,"noteNumber":42,"velocity":127,"programNumber":35},{"time":271881.9748083349,"duration":446.9697416666895,"noteNumber":33,"velocity":127,"programNumber":35},{"time":271881.9748083349,"duration":446.9697416666895,"noteNumber":45,"velocity":127,"programNumber":35},{"time":272336.5203083349,"duration":446.9697416666895,"noteNumber":33,"velocity":127,"programNumber":35},{"time":272336.5203083349,"duration":446.9697416666895,"noteNumber":45,"velocity":127,"programNumber":35},{"time":272791.0658083349,"duration":446.9697416666895,"noteNumber":33,"velocity":127,"programNumber":35},{"time":272791.0658083349,"duration":446.9697416666895,"noteNumber":45,"velocity":127,"programNumber":35},{"time":273245.6113083349,"duration":446.9697416666895,"noteNumber":33,"velocity":127,"programNumber":35},{"time":273245.6113083349,"duration":446.9697416666895,"noteNumber":45,"velocity":127,"programNumber":35},{"time":273700.1568083349,"duration":446.9697416666895,"noteNumber":28,"velocity":127,"programNumber":35},{"time":273700.1568083349,"duration":446.9697416666895,"noteNumber":40,"velocity":127,"programNumber":35},{"time":274154.70230833493,"duration":446.9697416666895,"noteNumber":28,"velocity":127,"programNumber":35},{"time":274154.70230833493,"duration":446.9697416666895,"noteNumber":40,"velocity":127,"programNumber":35},{"time":274609.24780833494,"duration":446.9697416666895,"noteNumber":40,"velocity":127,"programNumber":35},{"time":274609.24780833494,"duration":446.9697416666895,"noteNumber":28,"velocity":127,"programNumber":35},{"time":275063.79330833495,"duration":446.9697416666895,"noteNumber":28,"velocity":127,"programNumber":35},{"time":275063.79330833495,"duration":446.9697416666895,"noteNumber":40,"velocity":127,"programNumber":35},{"time":275518.33880833496,"duration":446.9697416666895,"noteNumber":42,"velocity":127,"programNumber":35},{"time":275972.88430833496,"duration":446.9697416666895,"noteNumber":42,"velocity":127,"programNumber":35},{"time":276427.429808335,"duration":227.27275000000373,"noteNumber":42,"velocity":127,"programNumber":35},{"time":276654.702558335,"duration":219.6969916666858,"noteNumber":42,"velocity":127,"programNumber":35},{"time":276881.975308335,"duration":219.6969916666858,"noteNumber":40,"velocity":127,"programNumber":35},{"time":277109.248058335,"duration":219.6969916666858,"noteNumber":38,"velocity":127,"programNumber":35},{"time":277336.520808335,"duration":219.6969916666858,"noteNumber":38,"velocity":127,"programNumber":35},{"time":277563.793558335,"duration":219.6969916666858,"noteNumber":38,"velocity":127,"programNumber":35},{"time":277791.066308335,"duration":219.6969916666858,"noteNumber":38,"velocity":127,"programNumber":35},{"time":278018.339058335,"duration":219.6969916666858,"noteNumber":40,"velocity":127,"programNumber":35},{"time":278245.611808335,"duration":219.6969916666858,"noteNumber":40,"velocity":127,"programNumber":35},{"time":278472.884558335,"duration":219.6969916666858,"noteNumber":40,"velocity":127,"programNumber":35},{"time":278700.157308335,"duration":219.6969916666858,"noteNumber":40,"velocity":127,"programNumber":35},{"time":278927.430058335,"duration":219.6969916666858,"noteNumber":40,"velocity":127,"programNumber":35},{"time":279154.702808335,"duration":446.9697416666895,"noteNumber":42,"velocity":127,"programNumber":35},{"time":279609.248308335,"duration":446.9697416666895,"noteNumber":42,"velocity":127,"programNumber":35},{"time":280063.79380833503,"duration":227.27275000000373,"noteNumber":42,"velocity":127,"programNumber":35},{"time":280291.06655833503,"duration":219.6969916666858,"noteNumber":42,"velocity":127,"programNumber":35},{"time":280518.33930833504,"duration":219.6969916666858,"noteNumber":40,"velocity":127,"programNumber":35},{"time":280745.61205833504,"duration":219.6969916666858,"noteNumber":38,"velocity":127,"programNumber":35},{"time":280972.88480833505,"duration":219.6969916666858,"noteNumber":38,"velocity":127,"programNumber":35},{"time":281200.15755833505,"duration":219.6969916666858,"noteNumber":38,"velocity":127,"programNumber":35},{"time":281427.43030833505,"duration":219.6969916666858,"noteNumber":38,"velocity":127,"programNumber":35},{"time":281654.70305833506,"duration":219.6969916666858,"noteNumber":40,"velocity":127,"programNumber":35},{"time":281881.97580833506,"duration":219.6969916666858,"noteNumber":40,"velocity":127,"programNumber":35},{"time":282109.24855833506,"duration":219.6969916666858,"noteNumber":40,"velocity":127,"programNumber":35},{"time":282336.52130833507,"duration":219.6969916666858,"noteNumber":40,"velocity":127,"programNumber":35},{"time":282563.7940583351,"duration":219.6969916666858,"noteNumber":40,"velocity":127,"programNumber":35},{"time":282791.0668083351,"duration":219.6969916666858,"noteNumber":30,"velocity":127,"programNumber":35},{"time":283018.3395583351,"duration":219.6969916666858,"noteNumber":30,"velocity":127,"programNumber":35},{"time":284609.2488083351,"duration":219.6969916666858,"noteNumber":33,"velocity":127,"programNumber":35},{"time":284836.5215583351,"duration":219.6969916666858,"noteNumber":33,"velocity":127,"programNumber":35},{"time":285518.3398083351,"duration":219.6969916666858,"noteNumber":28,"velocity":127,"programNumber":35},{"time":285745.6125583351,"duration":219.6969916666858,"noteNumber":28,"velocity":127,"programNumber":35},{"time":286427.43080833514,"duration":219.6969916666858,"noteNumber":30,"velocity":127,"programNumber":35},{"time":286654.70355833514,"duration":219.6969916666858,"noteNumber":30,"velocity":127,"programNumber":35},{"time":288245.61280833517,"duration":219.6969916666858,"noteNumber":38,"velocity":127,"programNumber":35},{"time":288472.88555833517,"duration":219.6969916666858,"noteNumber":38,"velocity":127,"programNumber":35},{"time":289154.7038083352,"duration":219.6969916666858,"noteNumber":40,"velocity":127,"programNumber":35},{"time":289381.9765583352,"duration":219.6969916666858,"noteNumber":40,"velocity":127,"programNumber":35},{"time":290063.7948083352,"duration":219.6969916666858,"noteNumber":30,"velocity":127,"programNumber":35},{"time":290291.0675583352,"duration":219.6969916666858,"noteNumber":30,"velocity":127,"programNumber":35},{"time":291881.9768083352,"duration":219.6969916666858,"noteNumber":33,"velocity":127,"programNumber":35},{"time":292109.2495583352,"duration":219.6969916666858,"noteNumber":33,"velocity":127,"programNumber":35},{"time":292791.06780833524,"duration":219.6969916666858,"noteNumber":28,"velocity":127,"programNumber":35},{"time":293018.34055833524,"duration":219.6969916666858,"noteNumber":28,"velocity":127,"programNumber":35},{"time":293700.15880833525,"duration":219.6969916666858,"noteNumber":30,"velocity":127,"programNumber":35},{"time":293927.43155833526,"duration":219.6969916666858,"noteNumber":30,"velocity":127,"programNumber":35},{"time":295518.3408083353,"duration":219.6969916666858,"noteNumber":38,"velocity":127,"programNumber":35},{"time":295745.6135583353,"duration":219.6969916666858,"noteNumber":38,"velocity":127,"programNumber":35},{"time":296427.4318083353,"duration":219.6969916666858,"noteNumber":40,"velocity":127,"programNumber":35},{"time":296654.7045583353,"duration":219.6969916666858,"noteNumber":40,"velocity":127,"programNumber":35},{"time":297336.5228083353,"duration":219.6969916666858,"noteNumber":30,"velocity":127,"programNumber":35},{"time":297563.7955583353,"duration":219.6969916666858,"noteNumber":30,"velocity":127,"programNumber":35},{"time":299154.70480833534,"duration":219.6969916666858,"noteNumber":33,"velocity":127,"programNumber":35},{"time":299381.97755833535,"duration":219.6969916666858,"noteNumber":33,"velocity":127,"programNumber":35},{"time":300063.79580833536,"duration":219.6969916666858,"noteNumber":28,"velocity":127,"programNumber":35},{"time":300291.06855833536,"duration":219.6969916666858,"noteNumber":28,"velocity":127,"programNumber":35},{"time":300972.8868083354,"duration":219.6969916666858,"noteNumber":30,"velocity":127,"programNumber":35},{"time":301200.1595583354,"duration":219.6969916666858,"noteNumber":30,"velocity":127,"programNumber":35},{"time":302791.0688083354,"duration":219.6969916666858,"noteNumber":38,"velocity":127,"programNumber":35},{"time":303018.3415583354,"duration":219.6969916666858,"noteNumber":38,"velocity":127,"programNumber":35},{"time":303700.1598083354,"duration":219.6969916666858,"noteNumber":40,"velocity":127,"programNumber":35},{"time":303927.4325583354,"duration":219.6969916666858,"noteNumber":40,"velocity":127,"programNumber":35},{"time":304609.25080833543,"duration":219.6969916666858,"noteNumber":30,"velocity":127,"programNumber":35},{"time":304836.52355833544,"duration":219.6969916666858,"noteNumber":30,"velocity":127,"programNumber":35},{"time":306427.43280833546,"duration":219.6969916666858,"noteNumber":33,"velocity":127,"programNumber":35},{"time":306654.70555833547,"duration":219.6969916666858,"noteNumber":33,"velocity":127,"programNumber":35},{"time":307336.5238083355,"duration":219.6969916666858,"noteNumber":28,"velocity":127,"programNumber":35},{"time":307563.7965583355,"duration":219.6969916666858,"noteNumber":28,"velocity":127,"programNumber":35},{"time":308245.6148083355,"duration":219.6969916666858,"noteNumber":30,"velocity":127,"programNumber":35},{"time":308472.8875583355,"duration":219.6969916666858,"noteNumber":30,"velocity":127,"programNumber":35},{"time":310063.7968083355,"duration":219.6969916666858,"noteNumber":38,"velocity":127,"programNumber":35},{"time":310291.0695583355,"duration":219.6969916666858,"noteNumber":38,"velocity":127,"programNumber":35},{"time":310972.88780833554,"duration":219.6969916666858,"noteNumber":40,"velocity":127,"programNumber":35},{"time":311200.16055833554,"duration":219.6969916666858,"noteNumber":40,"velocity":127,"programNumber":35}]]}