{"tracks":[[{"time":22.388050000000003,"duration":126.86561666666667,"noteNumber":42,"velocity":93,"programNumber":30},{"time":223.88049999999998,"duration":1597.0142333333333,"noteNumber":42,"velocity":93,"programNumber":30},{"time":1783.5813166666667,"duration":156.71634999999992,"noteNumber":45,"velocity":93,"programNumber":30},{"time":2014.9244999999999,"duration":671.6415,"noteNumber":45,"velocity":93,"programNumber":30},{"time":2649.252583333333,"duration":194.029766666667,"noteNumber":40,"velocity":93,"programNumber":30},{"time":2902.983816666667,"duration":686.5668666666666,"noteNumber":40,"velocity":93,"programNumber":30},{"time":3529.8492166666665,"duration":194.029766666667,"noteNumber":42,"velocity":93,"programNumber":30},{"time":3768.6550833333336,"duration":1664.1783833333334,"noteNumber":42,"velocity":93,"programNumber":30},{"time":5358.206633333333,"duration":208.95513333333383,"noteNumber":50,"velocity":93,"programNumber":30},{"time":5611.937866666667,"duration":694.0295500000002,"noteNumber":50,"velocity":93,"programNumber":30},{"time":6276.116683333334,"duration":156.7163500000006,"noteNumber":52,"velocity":93,"programNumber":30},{"time":6522.385233333334,"duration":656.7161333333333,"noteNumber":52,"velocity":93,"programNumber":30},{"time":7156.713316666668,"duration":201.49244999999974,"noteNumber":42,"velocity":93,"programNumber":30},{"time":7410.444550000001,"duration":1589.551550000001,"noteNumber":42,"velocity":93,"programNumber":30},{"time":8925.369266666668,"duration":194.02976666666655,"noteNumber":45,"velocity":93,"programNumber":30},{"time":9171.63781666667,"duration":679.1041833333329,"noteNumber":45,"velocity":93,"programNumber":30},{"time":9835.816633333336,"duration":194.02976666666655,"noteNumber":40,"velocity":93,"programNumber":30},{"time":10067.159816666668,"duration":694.4818500000001,"noteNumber":40,"velocity":93,"programNumber":30},{"time":10731.338633333335,"duration":166.6666833333329,"noteNumber":42,"velocity":93,"programNumber":30},{"time":10951.035625,"duration":1606.0607666666674,"noteNumber":42,"velocity":93,"programNumber":30},{"time":12526.793358333334,"duration":159.09092500000042,"noteNumber":50,"velocity":93,"programNumber":30},{"time":12738.914591666668,"duration":734.8485583333331,"noteNumber":50,"velocity":93,"programNumber":30},{"time":13428.3086,"duration":174.24244166666722,"noteNumber":52,"velocity":93,"programNumber":30},{"time":13663.157108333335,"duration":666.6667333333335,"noteNumber":52,"velocity":93,"programNumber":30},{"time":14382.854150000001,"duration":219.69699166666578,"noteNumber":42,"velocity":127,"programNumber":30},{"time":14610.1269,"duration":219.69699166666578,"noteNumber":42,"velocity":127,"programNumber":30},{"time":14837.399649999998,"duration":219.69699166666578,"noteNumber":49,"velocity":127,"programNumber":30},{"time":15064.672399999996,"duration":219.69699166666578,"noteNumber":42,"velocity":127,"programNumber":30},{"time":15291.945149999994,"duration":219.69699166666578,"noteNumber":50,"velocity":127,"programNumber":30},{"time":15519.217899999992,"duration":219.69699166666578,"noteNumber":42,"velocity":127,"programNumber":30},{"time":15746.49064999999,"duration":219.69699166666578,"noteNumber":49,"velocity":127,"programNumber":30},{"time":15973.763399999989,"duration":219.69699166666578,"noteNumber":42,"velocity":127,"programNumber":30},{"time":16201.036149999987,"duration":219.69699166666578,"noteNumber":47,"velocity":127,"programNumber":30},{"time":16428.308899999985,"duration":219.6969916666676,"noteNumber":45,"velocity":127,"programNumber":30},{"time":16655.581649999986,"duration":219.6969916666676,"noteNumber":44,"velocity":127,"programNumber":30},{"time":16882.854399999986,"duration":219.6969916666676,"noteNumber":45,"velocity":127,"programNumber":30},{"time":17110.127149999986,"duration":219.6969916666676,"noteNumber":47,"velocity":127,"programNumber":30},{"time":17337.399899999986,"duration":219.6969916666676,"noteNumber":45,"velocity":127,"programNumber":30},{"time":17564.672649999986,"duration":219.6969916666676,"noteNumber":44,"velocity":127,"programNumber":30},{"time":17791.945399999986,"duration":219.6969916666676,"noteNumber":40,"velocity":127,"programNumber":30},{"time":18019.218149999986,"duration":219.6969916666676,"noteNumber":42,"velocity":127,"programNumber":30},{"time":18246.490899999986,"duration":219.6969916666676,"noteNumber":42,"velocity":127,"programNumber":30},{"time":18473.763649999986,"duration":219.6969916666676,"noteNumber":49,"velocity":127,"programNumber":30},{"time":18701.036399999986,"duration":219.6969916666676,"noteNumber":42,"velocity":127,"programNumber":30},{"time":18928.309149999986,"duration":219.6969916666676,"noteNumber":50,"velocity":127,"programNumber":30},{"time":19155.581899999986,"duration":219.6969916666676,"noteNumber":42,"velocity":127,"programNumber":30},{"time":19382.854649999987,"duration":219.6969916666676,"noteNumber":49,"velocity":127,"programNumber":30},{"time":19610.127399999987,"duration":219.6969916666676,"noteNumber":42,"velocity":127,"programNumber":30},{"time":19837.400149999987,"duration":219.6969916666676,"noteNumber":47,"velocity":127,"programNumber":30},{"time":20064.672899999987,"duration":219.6969916666676,"noteNumber":45,"velocity":127,"programNumber":30},{"time":20291.945649999987,"duration":219.6969916666676,"noteNumber":44,"velocity":127,"programNumber":30},{"time":20519.218399999987,"duration":219.6969916666676,"noteNumber":45,"velocity":127,"programNumber":30},{"time":20746.491149999987,"duration":219.6969916666676,"noteNumber":47,"velocity":127,"programNumber":30},{"time":20973.763899999987,"duration":219.6969916666676,"noteNumber":45,"velocity":127,"programNumber":30},{"time":21201.036649999987,"duration":219.6969916666676,"noteNumber":44,"velocity":127,"programNumber":30},{"time":21428.309399999987,"duration":219.6969916666676,"noteNumber":40,"velocity":127,"programNumber":30},{"time":21655.582149999987,"duration":219.6969916666676,"noteNumber":42,"velocity":127,"programNumber":30},{"time":21882.854899999988,"duration":219.6969916666676,"noteNumber":42,"velocity":127,"programNumber":30},{"time":22110.127649999988,"duration":219.6969916666676,"noteNumber":49,"velocity":127,"programNumber":30},{"time":22337.400399999988,"duration":219.6969916666676,"noteNumber":42,"velocity":127,"programNumber":30},{"time":22564.673149999988,"duration":219.6969916666676,"noteNumber":50,"velocity":127,"programNumber":30},{"time":22791.945899999988,"duration":219.6969916666676,"noteNumber":42,"velocity":127,"programNumber":30},{"time":23019.218649999988,"duration":219.6969916666676,"noteNumber":49,"velocity":127,"programNumber":30},{"time":23246.491399999988,"duration":219.6969916666676,"noteNumber":42,"velocity":127,"programNumber":30},{"time":23473.764149999988,"duration":219.6969916666676,"noteNumber":47,"velocity":127,"programNumber":30},{"time":23701.03689999999,"duration":219.6969916666676,"noteNumber":45,"velocity":127,"programNumber":30},{"time":23928.30964999999,"duration":219.6969916666676,"noteNumber":44,"velocity":127,"programNumber":30},{"time":24155.58239999999,"duration":219.6969916666676,"noteNumber":45,"velocity":127,"programNumber":30},{"time":24382.85514999999,"duration":219.6969916666676,"noteNumber":47,"velocity":127,"programNumber":30},{"time":24610.12789999999,"duration":219.6969916666676,"noteNumber":45,"velocity":127,"programNumber":30},{"time":24837.40064999999,"duration":219.6969916666676,"noteNumber":44,"velocity":127,"programNumber":30},{"time":25064.67339999999,"duration":219.6969916666676,"noteNumber":40,"velocity":127,"programNumber":30},{"time":25291.94614999999,"duration":219.6969916666676,"noteNumber":42,"velocity":127,"programNumber":30},{"time":25519.21889999999,"duration":219.6969916666676,"noteNumber":42,"velocity":127,"programNumber":30},{"time":25746.49164999999,"duration":219.6969916666676,"noteNumber":49,"velocity":127,"programNumber":30},{"time":25973.76439999999,"duration":219.6969916666676,"noteNumber":42,"velocity":127,"programNumber":30},{"time":26201.03714999999,"duration":219.6969916666676,"noteNumber":50,"velocity":127,"programNumber":30},{"time":26428.30989999999,"duration":219.6969916666676,"noteNumber":42,"velocity":127,"programNumber":30},{"time":26655.58264999999,"duration":219.6969916666676,"noteNumber":49,"velocity":127,"programNumber":30},{"time":26882.85539999999,"duration":219.6969916666676,"noteNumber":42,"velocity":127,"programNumber":30},{"time":27110.12814999999,"duration":901.5152416666679,"noteNumber":50,"velocity":127,"programNumber":30},{"time":28019.21914999999,"duration":901.5152416666679,"noteNumber":52,"velocity":127,"programNumber":30},{"time":28928.31014999999,"duration":106.06061666666574,"noteNumber":57,"velocity":127,"programNumber":30},{"time":29155.58289999999,"duration":106.06061666666574,"noteNumber":57,"velocity":127,"programNumber":30},{"time":29269.21927499999,"duration":106.06061666666574,"noteNumber":57,"velocity":127,"programNumber":30},{"time":29382.855649999987,"duration":106.06061666666574,"noteNumber":61,"velocity":127,"programNumber":30},{"time":29382.855649999987,"duration":227.2727500000001,"noteNumber":57,"velocity":127,"programNumber":30},{"time":29610.128399999987,"duration":106.06061666666574,"noteNumber":57,"velocity":127,"programNumber":30},{"time":29723.764774999985,"duration":106.06061666666574,"noteNumber":57,"velocity":127,"programNumber":30},{"time":29837.401149999983,"duration":106.06061666666574,"noteNumber":57,"velocity":127,"programNumber":30},{"time":29951.03752499998,"duration":106.06061666666574,"noteNumber":57,"velocity":127,"programNumber":30},{"time":30064.67389999998,"duration":106.06061666666574,"noteNumber":64,"velocity":127,"programNumber":30},{"time":30291.94664999998,"duration":106.06061666666574,"noteNumber":57,"velocity":127,"programNumber":30},{"time":30405.583024999978,"duration":106.06061666666574,"noteNumber":57,"velocity":127,"programNumber":30},{"time":30064.67389999998,"duration":446.96974166666405,"noteNumber":56,"velocity":127,"programNumber":30},{"time":30519.219399999976,"duration":106.06061666666574,"noteNumber":57,"velocity":127,"programNumber":30},{"time":30746.492149999976,"duration":106.06061666666574,"noteNumber":62,"velocity":127,"programNumber":30},{"time":30973.764899999976,"duration":106.06061666666574,"noteNumber":57,"velocity":127,"programNumber":30},{"time":31087.401274999975,"duration":106.06061666666574,"noteNumber":57,"velocity":127,"programNumber":30},{"time":30746.492149999976,"duration":446.96974166666405,"noteNumber":54,"velocity":127,"programNumber":30},{"time":31201.037649999973,"duration":106.06061666666574,"noteNumber":57,"velocity":127,"programNumber":30},{"time":31428.310399999973,"duration":446.9697416666677,"noteNumber":52,"velocity":127,"programNumber":30},{"time":32110.128649999973,"duration":219.6969916666676,"noteNumber":55,"velocity":127,"programNumber":30},{"time":31428.310399999973,"duration":901.5152416666679,"noteNumber":57,"velocity":127,"programNumber":30},{"time":31428.310399999973,"duration":901.5152416666679,"noteNumber":61,"velocity":127,"programNumber":30},{"time":32337.401399999973,"duration":219.6969916666676,"noteNumber":57,"velocity":127,"programNumber":30},{"time":32564.674149999973,"duration":106.06061666666574,"noteNumber":57,"velocity":127,"programNumber":30},{"time":32791.94689999997,"duration":106.06061666666938,"noteNumber":57,"velocity":127,"programNumber":30},{"time":32905.583274999975,"duration":106.06061666666938,"noteNumber":57,"velocity":127,"programNumber":30},{"time":33019.21964999998,"duration":106.06061666666938,"noteNumber":61,"velocity":127,"programNumber":30},{"time":33019.21964999998,"duration":227.27275000000373,"noteNumber":57,"velocity":127,"programNumber":30},{"time":33246.49239999998,"duration":106.06061666666938,"noteNumber":57,"velocity":127,"programNumber":30},{"time":33360.12877499998,"duration":106.06061666666938,"noteNumber":57,"velocity":127,"programNumber":30},{"time":33473.765149999985,"duration":106.06061666666938,"noteNumber":57,"velocity":127,"programNumber":30},{"time":33587.40152499999,"duration":106.06061666666938,"noteNumber":57,"velocity":127,"programNumber":30},{"time":33701.03789999999,"duration":106.06061666666938,"noteNumber":64,"velocity":127,"programNumber":30},{"time":33928.31064999999,"duration":106.06061666666938,"noteNumber":57,"velocity":127,"programNumber":30},{"time":34041.947024999994,"duration":106.06061666666938,"noteNumber":57,"velocity":127,"programNumber":30},{"time":33701.03789999999,"duration":446.96974166667496,"noteNumber":56,"velocity":127,"programNumber":30},{"time":34155.583399999996,"duration":106.06061666666938,"noteNumber":57,"velocity":127,"programNumber":30},{"time":34382.85615,"duration":106.06061666666938,"noteNumber":62,"velocity":127,"programNumber":30},{"time":34610.1289,"duration":106.06061666666938,"noteNumber":57,"velocity":127,"programNumber":30},{"time":34723.765275000005,"duration":106.06061666666938,"noteNumber":57,"velocity":127,"programNumber":30},{"time":34382.85615,"duration":446.96974166667496,"noteNumber":54,"velocity":127,"programNumber":30},{"time":34837.40165000001,"duration":106.06061666666938,"noteNumber":57,"velocity":127,"programNumber":30},{"time":35064.67440000001,"duration":446.9697416666677,"noteNumber":52,"velocity":127,"programNumber":30},{"time":35746.492650000015,"duration":219.69699166666396,"noteNumber":55,"velocity":127,"programNumber":30},{"time":35064.67440000001,"duration":901.5152416666679,"noteNumber":57,"velocity":127,"programNumber":30},{"time":35064.67440000001,"duration":901.5152416666679,"noteNumber":61,"velocity":127,"programNumber":30},{"time":35973.76540000001,"duration":219.69699166666396,"noteNumber":57,"velocity":127,"programNumber":30},{"time":36201.03815000001,"duration":106.06061666666938,"noteNumber":57,"velocity":127,"programNumber":30},{"time":36428.31090000001,"duration":106.06061666666938,"noteNumber":57,"velocity":127,"programNumber":30},{"time":36541.94727500001,"duration":106.06061666666938,"noteNumber":57,"velocity":127,"programNumber":30},{"time":36655.583650000015,"duration":106.06061666666938,"noteNumber":61,"velocity":127,"programNumber":30},{"time":36655.583650000015,"duration":227.27275000000373,"noteNumber":57,"velocity":127,"programNumber":30},{"time":36882.85640000002,"duration":106.06061666666938,"noteNumber":57,"velocity":127,"programNumber":30},{"time":36996.49277500002,"duration":106.06061666666938,"noteNumber":57,"velocity":127,"programNumber":30},{"time":37110.12915000002,"duration":106.06061666666938,"noteNumber":57,"velocity":127,"programNumber":30},{"time":37223.765525000024,"duration":106.06061666666938,"noteNumber":57,"velocity":127,"programNumber":30},{"time":37337.401900000026,"duration":106.06061666666938,"noteNumber":64,"velocity":127,"programNumber":30},{"time":37564.67465000003,"duration":106.06061666666938,"noteNumber":57,"velocity":127,"programNumber":30},{"time":37678.31102500003,"duration":106.06061666666938,"noteNumber":57,"velocity":127,"programNumber":30},{"time":37337.401900000026,"duration":446.96974166667496,"noteNumber":56,"velocity":127,"programNumber":30},{"time":37791.947400000034,"duration":106.06061666666938,"noteNumber":57,"velocity":127,"programNumber":30},{"time":38019.22015000004,"duration":106.06061666666938,"noteNumber":62,"velocity":127,"programNumber":30},{"time":38246.49290000004,"duration":106.06061666666938,"noteNumber":57,"velocity":127,"programNumber":30},{"time":38360.12927500004,"duration":106.06061666666938,"noteNumber":57,"velocity":127,"programNumber":30},{"time":38019.22015000004,"duration":446.96974166667496,"noteNumber":54,"velocity":127,"programNumber":30},{"time":38473.765650000045,"duration":106.06061666666938,"noteNumber":57,"velocity":127,"programNumber":30},{"time":38701.03840000005,"duration":446.9697416666677,"noteNumber":52,"velocity":127,"programNumber":30},{"time":39382.85665000005,"duration":219.69699166666396,"noteNumber":55,"velocity":127,"programNumber":30},{"time":38701.03840000005,"duration":901.5152416666679,"noteNumber":57,"velocity":127,"programNumber":30},{"time":38701.03840000005,"duration":901.5152416666679,"noteNumber":61,"velocity":127,"programNumber":30},{"time":39610.12940000005,"duration":219.69699166666396,"noteNumber":57,"velocity":127,"programNumber":30},{"time":39837.402150000045,"duration":106.06061666666938,"noteNumber":57,"velocity":127,"programNumber":30},{"time":40064.67490000005,"duration":106.06061666666938,"noteNumber":57,"velocity":127,"programNumber":30},{"time":40178.31127500005,"duration":106.06061666666938,"noteNumber":57,"velocity":127,"programNumber":30},{"time":40291.94765000005,"duration":106.06061666666938,"noteNumber":61,"velocity":127,"programNumber":30},{"time":40291.94765000005,"duration":227.27275000000373,"noteNumber":57,"velocity":127,"programNumber":30},{"time":40519.22040000006,"duration":106.06061666666938,"noteNumber":57,"velocity":127,"programNumber":30},{"time":40632.85677500006,"duration":106.06061666666938,"noteNumber":57,"velocity":127,"programNumber":30},{"time":40746.49315000006,"duration":106.06061666666938,"noteNumber":57,"velocity":127,"programNumber":30},{"time":40860.12952500006,"duration":106.06061666666938,"noteNumber":57,"velocity":127,"programNumber":30},{"time":40973.765900000064,"duration":106.06061666666938,"noteNumber":64,"velocity":127,"programNumber":30},{"time":41201.03865000007,"duration":106.06061666666938,"noteNumber":57,"velocity":127,"programNumber":30},{"time":41314.67502500007,"duration":106.06061666666938,"noteNumber":57,"velocity":127,"programNumber":30},{"time":40973.765900000064,"duration":446.96974166667496,"noteNumber":56,"velocity":127,"programNumber":30},{"time":41428.31140000007,"duration":106.06061666666938,"noteNumber":57,"velocity":127,"programNumber":30},{"time":41655.584150000075,"duration":106.06061666666938,"noteNumber":62,"velocity":127,"programNumber":30},{"time":41882.85690000008,"duration":106.06061666666938,"noteNumber":57,"velocity":127,"programNumber":30},{"time":41996.49327500008,"duration":106.06061666666938,"noteNumber":57,"velocity":127,"programNumber":30},{"time":41655.584150000075,"duration":446.96974166667496,"noteNumber":54,"velocity":127,"programNumber":30},{"time":42110.12965000008,"duration":106.06061666666938,"noteNumber":57,"velocity":127,"programNumber":30},{"time":42337.402400000086,"duration":446.9697416666677,"noteNumber":52,"velocity":127,"programNumber":30},{"time":43019.22065000009,"duration":219.69699166666396,"noteNumber":55,"velocity":127,"programNumber":30},{"time":42337.402400000086,"duration":901.5152416666679,"noteNumber":57,"velocity":127,"programNumber":30},{"time":42337.402400000086,"duration":901.5152416666679,"noteNumber":61,"velocity":127,"programNumber":30},{"time":43246.49340000009,"duration":219.69699166666396,"noteNumber":57,"velocity":127,"programNumber":30},{"time":43473.76615000008,"duration":106.06061666666938,"noteNumber":57,"velocity":127,"programNumber":30},{"time":43701.03890000009,"duration":106.06061666666938,"noteNumber":57,"velocity":127,"programNumber":30},{"time":43814.67527500009,"duration":106.06061666666938,"noteNumber":57,"velocity":127,"programNumber":30},{"time":43928.31165000009,"duration":106.06061666666938,"noteNumber":61,"velocity":127,"programNumber":30},{"time":43928.31165000009,"duration":227.27275000000373,"noteNumber":57,"velocity":127,"programNumber":30},{"time":44155.584400000094,"duration":106.06061666666938,"noteNumber":57,"velocity":127,"programNumber":30},{"time":44269.220775000096,"duration":106.06061666666938,"noteNumber":57,"velocity":127,"programNumber":30},{"time":44382.8571500001,"duration":106.06061666666938,"noteNumber":57,"velocity":127,"programNumber":30},{"time":44496.4935250001,"duration":106.06061666666938,"noteNumber":57,"velocity":127,"programNumber":30},{"time":44610.1299000001,"duration":106.06061666666938,"noteNumber":64,"velocity":127,"programNumber":30},{"time":44837.402650000105,"duration":106.06061666666938,"noteNumber":57,"velocity":127,"programNumber":30},{"time":44951.03902500011,"duration":106.06061666666938,"noteNumber":57,"velocity":127,"programNumber":30},{"time":44610.1299000001,"duration":446.96974166667496,"noteNumber":56,"velocity":127,"programNumber":30},{"time":45064.67540000011,"duration":106.06061666666938,"noteNumber":57,"velocity":127,"programNumber":30},{"time":45291.94815000011,"duration":106.06061666666938,"noteNumber":62,"velocity":127,"programNumber":30},{"time":45519.22090000012,"duration":106.06061666666938,"noteNumber":57,"velocity":127,"programNumber":30},{"time":45632.85727500012,"duration":106.06061666666938,"noteNumber":57,"velocity":127,"programNumber":30},{"time":45291.94815000011,"duration":446.96974166667496,"noteNumber":54,"velocity":127,"programNumber":30},{"time":45746.49365000012,"duration":106.06061666666938,"noteNumber":57,"velocity":127,"programNumber":30},{"time":45973.766400000124,"duration":446.9697416666677,"noteNumber":52,"velocity":127,"programNumber":30},{"time":46655.58465000013,"duration":219.69699166666396,"noteNumber":55,"velocity":127,"programNumber":30},{"time":45973.766400000124,"duration":901.5152416666679,"noteNumber":57,"velocity":127,"programNumber":30},{"time":45973.766400000124,"duration":901.5152416666679,"noteNumber":61,"velocity":127,"programNumber":30},{"time":46882.857400000124,"duration":219.69699166666396,"noteNumber":57,"velocity":127,"programNumber":30},{"time":47110.13015000012,"duration":106.06061666666938,"noteNumber":57,"velocity":127,"programNumber":30},{"time":47337.402900000125,"duration":106.06061666666938,"noteNumber":57,"velocity":127,"programNumber":30},{"time":47451.03927500013,"duration":106.06061666666938,"noteNumber":57,"velocity":127,"programNumber":30},{"time":47564.67565000013,"duration":106.06061666666938,"noteNumber":61,"velocity":127,"programNumber":30},{"time":47564.67565000013,"duration":227.27275000000373,"noteNumber":57,"velocity":127,"programNumber":30},{"time":47791.94840000013,"duration":106.06061666666938,"noteNumber":57,"velocity":127,"programNumber":30},{"time":47905.584775000134,"duration":106.06061666666938,"noteNumber":57,"velocity":127,"programNumber":30},{"time":48019.221150000136,"duration":106.06061666666938,"noteNumber":57,"velocity":127,"programNumber":30},{"time":48132.85752500014,"duration":106.06061666666938,"noteNumber":57,"velocity":127,"programNumber":30},{"time":48246.49390000014,"duration":106.06061666666938,"noteNumber":64,"velocity":127,"programNumber":30},{"time":48473.76665000014,"duration":106.06061666666938,"noteNumber":57,"velocity":127,"programNumber":30},{"time":48587.403025000145,"duration":106.06061666666938,"noteNumber":57,"velocity":127,"programNumber":30},{"time":48246.49390000014,"duration":446.96974166667496,"noteNumber":56,"velocity":127,"programNumber":30},{"time":48701.03940000015,"duration":106.06061666666938,"noteNumber":57,"velocity":127,"programNumber":30},{"time":48928.31215000015,"duration":106.06061666666938,"noteNumber":62,"velocity":127,"programNumber":30},{"time":49155.584900000154,"duration":106.06061666666938,"noteNumber":57,"velocity":127,"programNumber":30},{"time":49269.221275000156,"duration":106.06061666666938,"noteNumber":57,"velocity":127,"programNumber":30},{"time":48928.31215000015,"duration":446.96974166667496,"noteNumber":54,"velocity":127,"programNumber":30},{"time":49382.85765000016,"duration":106.06061666666938,"noteNumber":57,"velocity":127,"programNumber":30},{"time":49610.13040000016,"duration":446.9697416666677,"noteNumber":52,"velocity":127,"programNumber":30},{"time":50291.948650000166,"duration":219.69699166666396,"noteNumber":55,"velocity":127,"programNumber":30},{"time":49610.13040000016,"duration":901.5152416666679,"noteNumber":57,"velocity":127,"programNumber":30},{"time":49610.13040000016,"duration":901.5152416666679,"noteNumber":61,"velocity":127,"programNumber":30},{"time":50519.22140000016,"duration":219.69699166666396,"noteNumber":57,"velocity":127,"programNumber":30},{"time":50746.49415000016,"duration":106.06061666666938,"noteNumber":57,"velocity":127,"programNumber":30},{"time":50973.76690000016,"duration":106.06061666666938,"noteNumber":57,"velocity":127,"programNumber":30},{"time":51087.403275000164,"duration":106.06061666666938,"noteNumber":57,"velocity":127,"programNumber":30},{"time":51201.039650000166,"duration":106.06061666666938,"noteNumber":61,"velocity":127,"programNumber":30},{"time":51201.039650000166,"duration":227.27275000000373,"noteNumber":57,"velocity":127,"programNumber":30},{"time":51428.31240000017,"duration":106.06061666666938,"noteNumber":57,"velocity":127,"programNumber":30},{"time":51541.94877500017,"duration":106.06061666666938,"noteNumber":57,"velocity":127,"programNumber":30},{"time":51655.58515000017,"duration":106.06061666666938,"noteNumber":57,"velocity":127,"programNumber":30},{"time":51769.221525000175,"duration":106.06061666666938,"noteNumber":57,"velocity":127,"programNumber":30},{"time":51882.85790000018,"duration":106.06061666666938,"noteNumber":64,"velocity":127,"programNumber":30},{"time":52110.13065000018,"duration":106.06061666666938,"noteNumber":57,"velocity":127,"programNumber":30},{"time":52223.76702500018,"duration":106.06061666666938,"noteNumber":57,"velocity":127,"programNumber":30},{"time":51882.85790000018,"duration":446.96974166667496,"noteNumber":56,"velocity":127,"programNumber":30},{"time":52337.403400000185,"duration":106.06061666666938,"noteNumber":57,"velocity":127,"programNumber":30},{"time":52564.67615000019,"duration":106.06061666666938,"noteNumber":62,"velocity":127,"programNumber":30},{"time":52791.94890000019,"duration":106.06061666666938,"noteNumber":57,"velocity":127,"programNumber":30},{"time":52905.585275000194,"duration":106.06061666666938,"noteNumber":57,"velocity":127,"programNumber":30},{"time":52564.67615000019,"duration":446.96974166667496,"noteNumber":54,"velocity":127,"programNumber":30},{"time":53019.221650000196,"duration":106.06061666666938,"noteNumber":57,"velocity":127,"programNumber":30},{"time":53246.4944000002,"duration":446.9697416666677,"noteNumber":52,"velocity":127,"programNumber":30},{"time":53928.3126500002,"duration":219.69699166666396,"noteNumber":55,"velocity":127,"programNumber":30},{"time":53246.4944000002,"duration":901.5152416666679,"noteNumber":57,"velocity":127,"programNumber":30},{"time":53246.4944000002,"duration":901.5152416666679,"noteNumber":61,"velocity":127,"programNumber":30},{"time":54155.5854000002,"duration":219.69699166666396,"noteNumber":57,"velocity":127,"programNumber":30},{"time":54382.8581500002,"duration":106.06061666666938,"noteNumber":57,"velocity":127,"programNumber":30},{"time":54610.1309000002,"duration":106.06061666666938,"noteNumber":57,"velocity":127,"programNumber":30},{"time":54723.7672750002,"duration":106.06061666666938,"noteNumber":57,"velocity":127,"programNumber":30},{"time":54837.403650000204,"duration":106.06061666666938,"noteNumber":61,"velocity":127,"programNumber":30},{"time":54837.403650000204,"duration":227.27275000000373,"noteNumber":57,"velocity":127,"programNumber":30},{"time":55064.67640000021,"duration":106.06061666666938,"noteNumber":57,"velocity":127,"programNumber":30},{"time":55178.31277500021,"duration":106.06061666666938,"noteNumber":57,"velocity":127,"programNumber":30},{"time":55291.94915000021,"duration":106.06061666666938,"noteNumber":57,"velocity":127,"programNumber":30},{"time":55405.58552500021,"duration":106.06061666666938,"noteNumber":57,"velocity":127,"programNumber":30},{"time":55519.221900000215,"duration":106.06061666666938,"noteNumber":64,"velocity":127,"programNumber":30},{"time":55746.49465000022,"duration":106.06061666666938,"noteNumber":57,"velocity":127,"programNumber":30},{"time":55860.13102500022,"duration":106.06061666666938,"noteNumber":57,"velocity":127,"programNumber":30},{"time":55519.221900000215,"duration":446.96974166667496,"noteNumber":56,"velocity":127,"programNumber":30},{"time":55973.76740000022,"duration":106.06061666666938,"noteNumber":57,"velocity":127,"programNumber":30},{"time":56201.040150000226,"duration":106.06061666666938,"noteNumber":62,"velocity":127,"programNumber":30},{"time":56428.31290000023,"duration":106.06061666666938,"noteNumber":57,"velocity":127,"programNumber":30},{"time":56541.94927500023,"duration":106.06061666666938,"noteNumber":57,"velocity":127,"programNumber":30},{"time":56201.040150000226,"duration":446.96974166667496,"noteNumber":54,"velocity":127,"programNumber":30},{"time":56655.585650000234,"duration":106.06061666666938,"noteNumber":57,"velocity":127,"programNumber":30},{"time":56882.85840000024,"duration":446.9697416666677,"noteNumber":52,"velocity":127,"programNumber":30},{"time":57564.67665000024,"duration":219.69699166666396,"noteNumber":55,"velocity":127,"programNumber":30},{"time":56882.85840000024,"duration":901.5152416666679,"noteNumber":57,"velocity":127,"programNumber":30},{"time":56882.85840000024,"duration":901.5152416666679,"noteNumber":61,"velocity":127,"programNumber":30},{"time":57791.94940000024,"duration":219.69699166666396,"noteNumber":57,"velocity":127,"programNumber":30},{"time":58019.222150000234,"duration":106.06061666666938,"noteNumber":57,"velocity":127,"programNumber":30},{"time":58246.49490000024,"duration":106.06061666666938,"noteNumber":57,"velocity":127,"programNumber":30},{"time":58360.13127500024,"duration":106.06061666666938,"noteNumber":57,"velocity":127,"programNumber":30},{"time":58473.76765000024,"duration":106.06061666666938,"noteNumber":61,"velocity":127,"programNumber":30},{"time":58473.76765000024,"duration":227.27275000000373,"noteNumber":57,"velocity":127,"programNumber":30},{"time":58701.040400000245,"duration":106.06061666666938,"noteNumber":57,"velocity":127,"programNumber":30},{"time":58814.67677500025,"duration":106.06061666666938,"noteNumber":57,"velocity":127,"programNumber":30},{"time":58928.31315000025,"duration":106.06061666666938,"noteNumber":57,"velocity":127,"programNumber":30},{"time":59041.94952500025,"duration":106.06061666666938,"noteNumber":57,"velocity":127,"programNumber":30},{"time":59155.58590000025,"duration":106.06061666666938,"noteNumber":64,"velocity":127,"programNumber":30},{"time":59382.85865000026,"duration":106.06061666666938,"noteNumber":57,"velocity":127,"programNumber":30},{"time":59496.49502500026,"duration":106.06061666666938,"noteNumber":57,"velocity":127,"programNumber":30},{"time":59155.58590000025,"duration":446.96974166667496,"noteNumber":56,"velocity":127,"programNumber":30},{"time":59610.13140000026,"duration":106.06061666666938,"noteNumber":57,"velocity":127,"programNumber":30},{"time":59837.404150000264,"duration":106.06061666666938,"noteNumber":62,"velocity":127,"programNumber":30},{"time":60064.67690000027,"duration":106.06061666666938,"noteNumber":57,"velocity":127,"programNumber":30},{"time":60178.31327500027,"duration":106.06061666666938,"noteNumber":57,"velocity":127,"programNumber":30},{"time":59837.404150000264,"duration":446.96974166667496,"noteNumber":54,"velocity":127,"programNumber":30},{"time":60291.94965000027,"duration":106.06061666666938,"noteNumber":57,"velocity":127,"programNumber":30},{"time":60519.222400000275,"duration":446.9697416666677,"noteNumber":52,"velocity":127,"programNumber":30},{"time":61201.04065000028,"duration":219.69699166666396,"noteNumber":55,"velocity":127,"programNumber":30},{"time":60519.222400000275,"duration":901.5152416666679,"noteNumber":57,"velocity":127,"programNumber":30},{"time":60519.222400000275,"duration":901.5152416666679,"noteNumber":61,"velocity":127,"programNumber":30},{"time":61428.313400000276,"duration":219.69699166666396,"noteNumber":57,"velocity":127,"programNumber":30},{"time":61655.58615000027,"duration":106.06061666666938,"noteNumber":57,"velocity":127,"programNumber":30},{"time":61882.858900000276,"duration":106.06061666666938,"noteNumber":57,"velocity":127,"programNumber":30},{"time":61996.49527500028,"duration":106.06061666666938,"noteNumber":57,"velocity":127,"programNumber":30},{"time":62110.13165000028,"duration":106.06061666666938,"noteNumber":61,"velocity":127,"programNumber":30},{"time":62110.13165000028,"duration":227.27275000000373,"noteNumber":57,"velocity":127,"programNumber":30},{"time":62337.40440000028,"duration":106.06061666666938,"noteNumber":57,"velocity":127,"programNumber":30},{"time":62451.040775000285,"duration":106.06061666666938,"noteNumber":57,"velocity":127,"programNumber":30},{"time":62564.67715000029,"duration":106.06061666666938,"noteNumber":57,"velocity":127,"programNumber":30},{"time":62678.31352500029,"duration":106.06061666666938,"noteNumber":57,"velocity":127,"programNumber":30},{"time":62791.94990000029,"duration":106.06061666666938,"noteNumber":64,"velocity":127,"programNumber":30},{"time":63019.222650000294,"duration":106.06061666666938,"noteNumber":57,"velocity":127,"programNumber":30},{"time":63132.859025000296,"duration":106.06061666666938,"noteNumber":57,"velocity":127,"programNumber":30},{"time":62791.94990000029,"duration":446.96974166667496,"noteNumber":56,"velocity":127,"programNumber":30},{"time":63246.4954000003,"duration":106.06061666666938,"noteNumber":57,"velocity":127,"programNumber":30},{"time":63473.7681500003,"duration":106.06061666666938,"noteNumber":62,"velocity":127,"programNumber":30},{"time":63701.040900000306,"duration":106.06061666666938,"noteNumber":57,"velocity":127,"programNumber":30},{"time":63814.67727500031,"duration":106.06061666666938,"noteNumber":57,"velocity":127,"programNumber":30},{"time":63473.7681500003,"duration":446.96974166667496,"noteNumber":54,"velocity":127,"programNumber":30},{"time":63928.31365000031,"duration":106.06061666666938,"noteNumber":57,"velocity":127,"programNumber":30},{"time":64155.58640000031,"duration":446.9697416666677,"noteNumber":52,"velocity":127,"programNumber":30},{"time":64837.40465000032,"duration":219.69699166666396,"noteNumber":55,"velocity":127,"programNumber":30},{"time":64155.58640000031,"duration":901.5152416666679,"noteNumber":57,"velocity":127,"programNumber":30},{"time":64155.58640000031,"duration":901.5152416666679,"noteNumber":61,"velocity":127,"programNumber":30},{"time":65064.67740000031,"duration":219.69699166666396,"noteNumber":57,"velocity":127,"programNumber":30},{"time":65291.95015000031,"duration":219.69699166666396,"noteNumber":54,"velocity":127,"programNumber":30},{"time":65519.222900000306,"duration":219.69699166666396,"noteNumber":52,"velocity":127,"programNumber":30},{"time":65746.4956500003,"duration":219.69699166667124,"noteNumber":54,"velocity":127,"programNumber":30},{"time":66428.31390000031,"duration":219.69699166667124,"noteNumber":56,"velocity":127,"programNumber":30},{"time":66428.31390000031,"duration":446.96974166667496,"noteNumber":52,"velocity":127,"programNumber":30},{"time":66882.85940000032,"duration":1810.6062416666682,"noteNumber":50,"velocity":127,"programNumber":30},{"time":66882.85940000032,"duration":1810.6062416666682,"noteNumber":57,"velocity":127,"programNumber":30},{"time":68928.31415000033,"duration":219.69699166667124,"noteNumber":54,"velocity":127,"programNumber":30},{"time":69155.58690000033,"duration":219.69699166667124,"noteNumber":52,"velocity":127,"programNumber":30},{"time":69382.85965000033,"duration":219.69699166667124,"noteNumber":54,"velocity":127,"programNumber":30},{"time":70064.67790000034,"duration":219.69699166667124,"noteNumber":56,"velocity":127,"programNumber":30},{"time":70064.67790000034,"duration":446.96974166667496,"noteNumber":52,"velocity":127,"programNumber":30},{"time":70519.22340000035,"duration":227.27275000000373,"noteNumber":50,"velocity":127,"programNumber":30},{"time":70746.49615000036,"duration":446.9697416666604,"noteNumber":50,"velocity":127,"programNumber":30},{"time":71428.31440000035,"duration":219.69699166667124,"noteNumber":50,"velocity":127,"programNumber":30},{"time":71655.58715000036,"duration":219.69699166667124,"noteNumber":50,"velocity":127,"programNumber":30},{"time":71882.85990000036,"duration":219.69699166667124,"noteNumber":50,"velocity":127,"programNumber":30},{"time":72110.13265000036,"duration":219.69699166667124,"noteNumber":49,"velocity":127,"programNumber":30},{"time":70519.22340000035,"duration":1810.6062416666828,"noteNumber":57,"velocity":127,"programNumber":30},{"time":72337.40540000037,"duration":219.69699166667124,"noteNumber":48,"velocity":127,"programNumber":30},{"time":72564.67815000037,"duration":227.27275000000373,"noteNumber":57,"velocity":127,"programNumber":30},{"time":72791.95090000037,"duration":219.69699166667124,"noteNumber":57,"velocity":127,"programNumber":30},{"time":73019.22365000038,"duration":227.27275000000373,"noteNumber":57,"velocity":127,"programNumber":30},{"time":73246.49640000038,"duration":219.69699166667124,"noteNumber":57,"velocity":127,"programNumber":30},{"time":73701.04190000039,"duration":227.27275000000373,"noteNumber":57,"velocity":127,"programNumber":30},{"time":73928.3146500004,"duration":219.69699166667124,"noteNumber":57,"velocity":127,"programNumber":30},{"time":74155.5874000004,"duration":219.69699166667124,"noteNumber":52,"velocity":127,"programNumber":30},{"time":74382.8601500004,"duration":446.9697416666604,"noteNumber":52,"velocity":127,"programNumber":30},{"time":74837.4056500004,"duration":446.9697416666604,"noteNumber":52,"velocity":127,"programNumber":30},{"time":75291.95115000039,"duration":227.27275000000373,"noteNumber":52,"velocity":127,"programNumber":30},{"time":75519.22390000039,"duration":219.69699166667124,"noteNumber":52,"velocity":127,"programNumber":30},{"time":75746.4966500004,"duration":446.96974166667496,"noteNumber":52,"velocity":127,"programNumber":30},{"time":75973.7694000004,"duration":1810.6062416666682,"noteNumber":54,"velocity":127,"programNumber":30},{"time":79610.1334000004,"duration":219.69699166667124,"noteNumber":52,"velocity":127,"programNumber":30},{"time":79837.4061500004,"duration":227.27275000000373,"noteNumber":57,"velocity":127,"programNumber":30},{"time":80064.6789000004,"duration":219.69699166667124,"noteNumber":57,"velocity":127,"programNumber":30},{"time":80291.95165000041,"duration":227.27275000000373,"noteNumber":57,"velocity":127,"programNumber":30},{"time":80519.22440000041,"duration":219.69699166667124,"noteNumber":57,"velocity":127,"programNumber":30},{"time":80973.76990000042,"duration":227.27275000000373,"noteNumber":57,"velocity":127,"programNumber":30},{"time":81201.04265000043,"duration":219.69699166667124,"noteNumber":57,"velocity":127,"programNumber":30},{"time":81428.31540000043,"duration":219.69699166667124,"noteNumber":52,"velocity":127,"programNumber":30},{"time":81655.58815000043,"duration":446.9697416666604,"noteNumber":52,"velocity":127,"programNumber":30},{"time":82110.13365000043,"duration":446.9697416666604,"noteNumber":52,"velocity":127,"programNumber":30},{"time":82564.67915000042,"duration":227.27275000000373,"noteNumber":52,"velocity":127,"programNumber":30},{"time":82791.95190000042,"duration":219.69699166667124,"noteNumber":52,"velocity":127,"programNumber":30},{"time":83019.22465000043,"duration":446.9697416666604,"noteNumber":52,"velocity":127,"programNumber":30},{"time":83473.77015000042,"duration":219.69699166667124,"noteNumber":54,"velocity":127,"programNumber":30},{"time":83473.77015000042,"duration":219.69699166667124,"noteNumber":42,"velocity":127,"programNumber":30},{"time":83701.04290000042,"duration":219.69699166667124,"noteNumber":40,"velocity":127,"programNumber":30},{"time":83701.04290000042,"duration":219.69699166667124,"noteNumber":52,"velocity":127,"programNumber":30},{"time":83928.31565000043,"duration":219.69699166667124,"noteNumber":42,"velocity":127,"programNumber":30},{"time":83928.31565000043,"duration":219.69699166667124,"noteNumber":54,"velocity":127,"programNumber":30},{"time":84610.13390000044,"duration":219.69699166667124,"noteNumber":54,"velocity":127,"programNumber":30},{"time":84610.13390000044,"duration":219.69699166667124,"noteNumber":42,"velocity":127,"programNumber":30},{"time":84837.40665000044,"duration":219.69699166667124,"noteNumber":40,"velocity":127,"programNumber":30},{"time":84837.40665000044,"duration":219.69699166667124,"noteNumber":56,"velocity":127,"programNumber":30},{"time":85064.67940000044,"duration":446.9697416666604,"noteNumber":57,"velocity":127,"programNumber":30},{"time":85064.67940000044,"duration":446.9697416666604,"noteNumber":38,"velocity":127,"programNumber":30},{"time":85519.22490000044,"duration":219.69699166667124,"noteNumber":44,"velocity":127,"programNumber":30},{"time":85519.22490000044,"duration":219.69699166667124,"noteNumber":56,"velocity":127,"programNumber":30},{"time":85746.49765000044,"duration":219.69699166667124,"noteNumber":42,"velocity":127,"programNumber":30},{"time":85746.49765000044,"duration":219.69699166667124,"noteNumber":54,"velocity":127,"programNumber":30},{"time":85973.77040000045,"duration":446.9697416666604,"noteNumber":52,"velocity":127,"programNumber":30},{"time":85973.77040000045,"duration":446.9697416666604,"noteNumber":40,"velocity":127,"programNumber":30},{"time":86428.31590000044,"duration":219.69699166667124,"noteNumber":54,"velocity":127,"programNumber":30},{"time":86428.31590000044,"duration":219.69699166667124,"noteNumber":42,"velocity":127,"programNumber":30},{"time":86655.58865000044,"duration":219.69699166667124,"noteNumber":44,"velocity":127,"programNumber":30},{"time":86655.58865000044,"duration":219.69699166667124,"noteNumber":56,"velocity":127,"programNumber":30},{"time":87110.13415000045,"duration":219.69699166667124,"noteNumber":42,"velocity":127,"programNumber":30},{"time":87110.13415000045,"duration":219.69699166667124,"noteNumber":54,"velocity":127,"programNumber":30},{"time":87337.40690000045,"duration":219.69699166667124,"noteNumber":40,"velocity":127,"programNumber":30},{"time":87337.40690000045,"duration":219.69699166667124,"noteNumber":52,"velocity":127,"programNumber":30},{"time":87564.67965000046,"duration":219.69699166667124,"noteNumber":42,"velocity":127,"programNumber":30},{"time":87564.67965000046,"duration":219.69699166667124,"noteNumber":54,"velocity":127,"programNumber":30},{"time":88246.49790000047,"duration":219.69699166667124,"noteNumber":42,"velocity":127,"programNumber":30},{"time":88246.49790000047,"duration":219.69699166667124,"noteNumber":54,"velocity":127,"programNumber":30},{"time":88473.77065000047,"duration":219.69699166667124,"noteNumber":42,"velocity":127,"programNumber":30},{"time":88473.77065000047,"duration":219.69699166667124,"noteNumber":54,"velocity":127,"programNumber":30},{"time":88701.04340000048,"duration":901.5152416666679,"noteNumber":62,"velocity":127,"programNumber":30},{"time":88701.04340000048,"duration":901.5152416666679,"noteNumber":50,"velocity":127,"programNumber":30},{"time":89837.40715000048,"duration":901.5152416666679,"noteNumber":64,"velocity":127,"programNumber":30},{"time":89837.40715000048,"duration":901.5152416666679,"noteNumber":52,"velocity":127,"programNumber":30},{"time":90746.49815000048,"duration":106.06061666666938,"noteNumber":57,"velocity":127,"programNumber":30},{"time":90973.77090000048,"duration":106.06061666666938,"noteNumber":57,"velocity":127,"programNumber":30},{"time":91087.40727500049,"duration":106.06061666666938,"noteNumber":57,"velocity":127,"programNumber":30},{"time":91201.04365000049,"duration":106.06061666666938,"noteNumber":61,"velocity":127,"programNumber":30},{"time":91201.04365000049,"duration":227.27275000000373,"noteNumber":57,"velocity":127,"programNumber":30},{"time":91428.31640000049,"duration":106.06061666666938,"noteNumber":57,"velocity":127,"programNumber":30},{"time":91541.95277500049,"duration":106.06061666666938,"noteNumber":57,"velocity":127,"programNumber":30},{"time":91655.5891500005,"duration":106.06061666666938,"noteNumber":57,"velocity":127,"programNumber":30},{"time":91769.2255250005,"duration":106.06061666666938,"noteNumber":57,"velocity":127,"programNumber":30},{"time":91882.8619000005,"duration":106.06061666666938,"noteNumber":64,"velocity":127,"programNumber":30},{"time":92110.1346500005,"duration":106.06061666666938,"noteNumber":57,"velocity":127,"programNumber":30},{"time":92223.7710250005,"duration":106.06061666666938,"noteNumber":57,"velocity":127,"programNumber":30},{"time":91882.8619000005,"duration":446.96974166667496,"noteNumber":56,"velocity":127,"programNumber":30},{"time":92337.4074000005,"duration":106.06061666666938,"noteNumber":57,"velocity":127,"programNumber":30},{"time":92564.68015000051,"duration":106.06061666666938,"noteNumber":62,"velocity":127,"programNumber":30},{"time":92791.95290000051,"duration":106.06061666666938,"noteNumber":57,"velocity":127,"programNumber":30},{"time":92905.58927500052,"duration":106.06061666666938,"noteNumber":57,"velocity":127,"programNumber":30},{"time":92564.68015000051,"duration":446.96974166667496,"noteNumber":54,"velocity":127,"programNumber":30},{"time":93019.22565000052,"duration":106.06061666666938,"noteNumber":57,"velocity":127,"programNumber":30},{"time":93246.49840000052,"duration":446.9697416666604,"noteNumber":52,"velocity":127,"programNumber":30},{"time":93928.31665000052,"duration":219.69699166667124,"noteNumber":55,"velocity":127,"programNumber":30},{"time":93246.49840000052,"duration":901.5152416666679,"noteNumber":61,"velocity":127,"programNumber":30},{"time":93246.49840000052,"duration":901.5152416666679,"noteNumber":57,"velocity":127,"programNumber":30},{"time":94155.58940000052,"duration":219.69699166667124,"noteNumber":57,"velocity":127,"programNumber":30},{"time":94382.86215000052,"duration":106.06061666666938,"noteNumber":57,"velocity":127,"programNumber":30},{"time":94610.13490000053,"duration":106.06061666666938,"noteNumber":57,"velocity":127,"programNumber":30},{"time":94723.77127500053,"duration":106.06061666666938,"noteNumber":57,"velocity":127,"programNumber":30},{"time":94837.40765000053,"duration":106.06061666666938,"noteNumber":61,"velocity":127,"programNumber":30},{"time":94837.40765000053,"duration":227.27275000000373,"noteNumber":57,"velocity":127,"programNumber":30},{"time":95064.68040000054,"duration":106.06061666666938,"noteNumber":57,"velocity":127,"programNumber":30},{"time":95178.31677500054,"duration":106.06061666666938,"noteNumber":57,"velocity":127,"programNumber":30},{"time":95291.95315000054,"duration":106.06061666666938,"noteNumber":57,"velocity":127,"programNumber":30},{"time":95405.58952500054,"duration":106.06061666666938,"noteNumber":57,"velocity":127,"programNumber":30},{"time":95519.22590000054,"duration":106.06061666666938,"noteNumber":64,"velocity":127,"programNumber":30},{"time":95746.49865000055,"duration":106.06061666666938,"noteNumber":57,"velocity":127,"programNumber":30},{"time":95860.13502500055,"duration":106.06061666666938,"noteNumber":57,"velocity":127,"programNumber":30},{"time":95519.22590000054,"duration":446.96974166667496,"noteNumber":56,"velocity":127,"programNumber":30},{"time":95973.77140000055,"duration":106.06061666666938,"noteNumber":57,"velocity":127,"programNumber":30},{"time":96201.04415000055,"duration":106.06061666666938,"noteNumber":62,"velocity":127,"programNumber":30},{"time":96428.31690000056,"duration":106.06061666666938,"noteNumber":57,"velocity":127,"programNumber":30},{"time":96541.95327500056,"duration":106.06061666666938,"noteNumber":57,"velocity":127,"programNumber":30},{"time":96201.04415000055,"duration":446.96974166667496,"noteNumber":54,"velocity":127,"programNumber":30},{"time":96655.58965000056,"duration":106.06061666666938,"noteNumber":57,"velocity":127,"programNumber":30},{"time":96882.86240000057,"duration":446.9697416666604,"noteNumber":52,"velocity":127,"programNumber":30},{"time":97564.68065000056,"duration":219.69699166667124,"noteNumber":55,"velocity":127,"programNumber":30},{"time":96882.86240000057,"duration":901.5152416666679,"noteNumber":61,"velocity":127,"programNumber":30},{"time":96882.86240000057,"duration":901.5152416666679,"noteNumber":57,"velocity":127,"programNumber":30},{"time":97791.95340000057,"duration":219.69699166667124,"noteNumber":57,"velocity":127,"programNumber":30},{"time":98019.22615000057,"duration":106.06061666666938,"noteNumber":57,"velocity":127,"programNumber":30},{"time":98246.49890000057,"duration":106.06061666666938,"noteNumber":57,"velocity":127,"programNumber":30},{"time":98360.13527500058,"duration":106.06061666666938,"noteNumber":57,"velocity":127,"programNumber":30},{"time":98473.77165000058,"duration":106.06061666666938,"noteNumber":61,"velocity":127,"programNumber":30},{"time":98473.77165000058,"duration":227.27275000000373,"noteNumber":57,"velocity":127,"programNumber":30},{"time":98701.04440000058,"duration":106.06061666666938,"noteNumber":57,"velocity":127,"programNumber":30},{"time":98814.68077500058,"duration":106.06061666666938,"noteNumber":57,"velocity":127,"programNumber":30},{"time":98928.31715000058,"duration":106.06061666666938,"noteNumber":57,"velocity":127,"programNumber":30},{"time":99041.95352500059,"duration":106.06061666666938,"noteNumber":57,"velocity":127,"programNumber":30},{"time":99155.58990000059,"duration":106.06061666666938,"noteNumber":64,"velocity":127,"programNumber":30},{"time":99382.86265000059,"duration":106.06061666666938,"noteNumber":57,"velocity":127,"programNumber":30},{"time":99496.4990250006,"duration":106.06061666666938,"noteNumber":57,"velocity":127,"programNumber":30},{"time":99155.58990000059,"duration":446.96974166667496,"noteNumber":56,"velocity":127,"programNumber":30},{"time":99610.1354000006,"duration":106.06061666666938,"noteNumber":57,"velocity":127,"programNumber":30},{"time":99837.4081500006,"duration":106.06061666666938,"noteNumber":62,"velocity":127,"programNumber":30},{"time":100064.6809000006,"duration":106.06061666666938,"noteNumber":57,"velocity":127,"programNumber":30},{"time":100178.3172750006,"duration":106.06061666666938,"noteNumber":57,"velocity":127,"programNumber":30},{"time":99837.4081500006,"duration":446.96974166667496,"noteNumber":54,"velocity":127,"programNumber":30},{"time":100291.9536500006,"duration":106.06061666666938,"noteNumber":57,"velocity":127,"programNumber":30},{"time":100519.22640000061,"duration":446.9697416666604,"noteNumber":52,"velocity":127,"programNumber":30},{"time":101201.04465000061,"duration":219.69699166667124,"noteNumber":55,"velocity":127,"programNumber":30},{"time":100519.22640000061,"duration":901.5152416666679,"noteNumber":61,"velocity":127,"programNumber":30},{"time":100519.22640000061,"duration":901.5152416666679,"noteNumber":57,"velocity":127,"programNumber":30},{"time":101428.31740000061,"duration":219.69699166667124,"noteNumber":57,"velocity":127,"programNumber":30},{"time":101655.59015000061,"duration":106.06061666666938,"noteNumber":57,"velocity":127,"programNumber":30},{"time":101882.86290000062,"duration":106.06061666666938,"noteNumber":57,"velocity":127,"programNumber":30},{"time":101996.49927500062,"duration":106.06061666666938,"noteNumber":57,"velocity":127,"programNumber":30},{"time":102110.13565000062,"duration":106.06061666666938,"noteNumber":61,"velocity":127,"programNumber":30},{"time":102110.13565000062,"duration":227.27275000000373,"noteNumber":57,"velocity":127,"programNumber":30},{"time":102337.40840000063,"duration":106.06061666666938,"noteNumber":57,"velocity":127,"programNumber":30},{"time":102451.04477500063,"duration":106.06061666666938,"noteNumber":57,"velocity":127,"programNumber":30},{"time":102564.68115000063,"duration":106.06061666666938,"noteNumber":57,"velocity":127,"programNumber":30},{"time":102678.31752500063,"duration":106.06061666666938,"noteNumber":57,"velocity":127,"programNumber":30},{"time":102791.95390000063,"duration":106.06061666666938,"noteNumber":64,"velocity":127,"programNumber":30},{"time":103019.22665000064,"duration":106.06061666666938,"noteNumber":57,"velocity":127,"programNumber":30},{"time":103132.86302500064,"duration":106.06061666666938,"noteNumber":57,"velocity":127,"programNumber":30},{"time":102791.95390000063,"duration":446.96974166667496,"noteNumber":56,"velocity":127,"programNumber":30},{"time":103246.49940000064,"duration":106.06061666666938,"noteNumber":57,"velocity":127,"programNumber":30},{"time":103473.77215000064,"duration":106.06061666666938,"noteNumber":62,"velocity":127,"programNumber":30},{"time":103701.04490000065,"duration":106.06061666666938,"noteNumber":57,"velocity":127,"programNumber":30},{"time":103814.68127500065,"duration":106.06061666666938,"noteNumber":57,"velocity":127,"programNumber":30},{"time":103473.77215000064,"duration":446.96974166667496,"noteNumber":54,"velocity":127,"programNumber":30},{"time":103928.31765000065,"duration":106.06061666666938,"noteNumber":57,"velocity":127,"programNumber":30},{"time":104155.59040000066,"duration":446.9697416666604,"noteNumber":52,"velocity":127,"programNumber":30},{"time":104837.40865000065,"duration":219.69699166667124,"noteNumber":55,"velocity":127,"programNumber":30},{"time":104155.59040000066,"duration":901.5152416666679,"noteNumber":61,"velocity":127,"programNumber":30},{"time":104155.59040000066,"duration":901.5152416666679,"noteNumber":57,"velocity":127,"programNumber":30},{"time":105064.68140000066,"duration":219.69699166667124,"noteNumber":57,"velocity":127,"programNumber":30},{"time":105291.95415000066,"duration":106.06061666666938,"noteNumber":57,"velocity":127,"programNumber":30},{"time":105519.22690000066,"duration":106.06061666666938,"noteNumber":57,"velocity":127,"programNumber":30},{"time":105632.86327500067,"duration":106.06061666666938,"noteNumber":57,"velocity":127,"programNumber":30},{"time":105746.49965000067,"duration":106.06061666666938,"noteNumber":61,"velocity":127,"programNumber":30},{"time":105746.49965000067,"duration":227.27275000000373,"noteNumber":57,"velocity":127,"programNumber":30},{"time":105973.77240000067,"duration":106.06061666666938,"noteNumber":57,"velocity":127,"programNumber":30},{"time":106087.40877500067,"duration":106.06061666666938,"noteNumber":57,"velocity":127,"programNumber":30},{"time":106201.04515000067,"duration":106.06061666666938,"noteNumber":57,"velocity":127,"programNumber":30},{"time":106314.68152500068,"duration":106.06061666666938,"noteNumber":57,"velocity":127,"programNumber":30},{"time":106428.31790000068,"duration":106.06061666666938,"noteNumber":64,"velocity":127,"programNumber":30},{"time":106655.59065000068,"duration":106.06061666666938,"noteNumber":57,"velocity":127,"programNumber":30},{"time":106769.22702500068,"duration":106.06061666666938,"noteNumber":57,"velocity":127,"programNumber":30},{"time":106428.31790000068,"duration":446.96974166667496,"noteNumber":56,"velocity":127,"programNumber":30},{"time":106882.86340000069,"duration":106.06061666666938,"noteNumber":57,"velocity":127,"programNumber":30},{"time":107110.13615000069,"duration":106.06061666666938,"noteNumber":62,"velocity":127,"programNumber":30},{"time":107337.4089000007,"duration":106.06061666666938,"noteNumber":57,"velocity":127,"programNumber":30},{"time":107451.0452750007,"duration":106.06061666666938,"noteNumber":57,"velocity":127,"programNumber":30},{"time":107110.13615000069,"duration":446.96974166667496,"noteNumber":54,"velocity":127,"programNumber":30},{"time":107564.6816500007,"duration":106.06061666666938,"noteNumber":57,"velocity":127,"programNumber":30},{"time":107791.9544000007,"duration":446.9697416666604,"noteNumber":52,"velocity":127,"programNumber":30},{"time":108473.7726500007,"duration":219.69699166667124,"noteNumber":55,"velocity":127,"programNumber":30},{"time":107791.9544000007,"duration":901.5152416666679,"noteNumber":61,"velocity":127,"programNumber":30},{"time":107791.9544000007,"duration":901.5152416666679,"noteNumber":57,"velocity":127,"programNumber":30},{"time":108701.0454000007,"duration":219.69699166667124,"noteNumber":57,"velocity":127,"programNumber":30},{"time":108928.3181500007,"duration":106.06061666666938,"noteNumber":57,"velocity":127,"programNumber":30},{"time":109155.59090000071,"duration":106.06061666666938,"noteNumber":57,"velocity":127,"programNumber":30},{"time":109269.22727500071,"duration":106.06061666666938,"noteNumber":57,"velocity":127,"programNumber":30},{"time":109382.86365000071,"duration":106.06061666666938,"noteNumber":61,"velocity":127,"programNumber":30},{"time":109382.86365000071,"duration":227.27275000000373,"noteNumber":57,"velocity":127,"programNumber":30},{"time":109610.13640000072,"duration":106.06061666666938,"noteNumber":57,"velocity":127,"programNumber":30},{"time":109723.77277500072,"duration":106.06061666666938,"noteNumber":57,"velocity":127,"programNumber":30},{"time":109837.40915000072,"duration":106.06061666666938,"noteNumber":57,"velocity":127,"programNumber":30},{"time":109951.04552500072,"duration":106.06061666666938,"noteNumber":57,"velocity":127,"programNumber":30},{"time":110064.68190000072,"duration":106.06061666666938,"noteNumber":64,"velocity":127,"programNumber":30},{"time":110291.95465000073,"duration":106.06061666666938,"noteNumber":57,"velocity":127,"programNumber":30},{"time":110405.59102500073,"duration":106.06061666666938,"noteNumber":57,"velocity":127,"programNumber":30},{"time":110064.68190000072,"duration":446.96974166667496,"noteNumber":56,"velocity":127,"programNumber":30},{"time":110519.22740000073,"duration":106.06061666666938,"noteNumber":57,"velocity":127,"programNumber":30},{"time":110746.50015000073,"duration":106.06061666666938,"noteNumber":62,"velocity":127,"programNumber":30},{"time":110973.77290000074,"duration":106.06061666666938,"noteNumber":57,"velocity":127,"programNumber":30},{"time":111087.40927500074,"duration":106.06061666666938,"noteNumber":57,"velocity":127,"programNumber":30},{"time":110746.50015000073,"duration":446.96974166667496,"noteNumber":54,"velocity":127,"programNumber":30},{"time":111201.04565000074,"duration":106.06061666666938,"noteNumber":57,"velocity":127,"programNumber":30},{"time":111428.31840000075,"duration":446.9697416666604,"noteNumber":52,"velocity":127,"programNumber":30},{"time":112110.13665000074,"duration":219.69699166667124,"noteNumber":55,"velocity":127,"programNumber":30},{"time":111428.31840000075,"duration":901.5152416666679,"noteNumber":57,"velocity":127,"programNumber":30},{"time":111428.31840000075,"duration":901.5152416666679,"noteNumber":61,"velocity":127,"programNumber":30},{"time":112337.40940000075,"duration":219.69699166667124,"noteNumber":57,"velocity":127,"programNumber":30},{"time":112564.68215000075,"duration":106.06061666666938,"noteNumber":57,"velocity":127,"programNumber":30},{"time":112791.95490000075,"duration":106.06061666666938,"noteNumber":57,"velocity":127,"programNumber":30},{"time":112905.59127500076,"duration":106.06061666666938,"noteNumber":57,"velocity":127,"programNumber":30},{"time":113019.22765000076,"duration":106.06061666666938,"noteNumber":61,"velocity":127,"programNumber":30},{"time":113019.22765000076,"duration":227.27275000000373,"noteNumber":57,"velocity":127,"programNumber":30},{"time":113246.50040000076,"duration":106.06061666666938,"noteNumber":57,"velocity":127,"programNumber":30},{"time":113360.13677500076,"duration":106.06061666666938,"noteNumber":57,"velocity":127,"programNumber":30},{"time":113473.77315000076,"duration":106.06061666666938,"noteNumber":57,"velocity":127,"programNumber":30},{"time":113587.40952500077,"duration":106.06061666666938,"noteNumber":57,"velocity":127,"programNumber":30},{"time":113701.04590000077,"duration":106.06061666666938,"noteNumber":64,"velocity":127,"programNumber":30},{"time":113928.31865000077,"duration":106.06061666666938,"noteNumber":57,"velocity":127,"programNumber":30},{"time":114041.95502500077,"duration":106.06061666666938,"noteNumber":57,"velocity":127,"programNumber":30},{"time":113701.04590000077,"duration":446.96974166667496,"noteNumber":56,"velocity":127,"programNumber":30},{"time":114155.59140000078,"duration":106.06061666666938,"noteNumber":57,"velocity":127,"programNumber":30},{"time":114382.86415000078,"duration":106.06061666666938,"noteNumber":62,"velocity":127,"programNumber":30},{"time":114610.13690000078,"duration":106.06061666666938,"noteNumber":57,"velocity":127,"programNumber":30},{"time":114723.77327500079,"duration":106.06061666666938,"noteNumber":57,"velocity":127,"programNumber":30},{"time":114382.86415000078,"duration":446.96974166667496,"noteNumber":54,"velocity":127,"programNumber":30},{"time":114837.40965000079,"duration":106.06061666666938,"noteNumber":57,"velocity":127,"programNumber":30},{"time":115064.68240000079,"duration":446.9697416666604,"noteNumber":52,"velocity":127,"programNumber":30},{"time":115746.50065000079,"duration":219.69699166667124,"noteNumber":55,"velocity":127,"programNumber":30},{"time":115064.68240000079,"duration":901.5152416666679,"noteNumber":61,"velocity":127,"programNumber":30},{"time":115064.68240000079,"duration":901.5152416666679,"noteNumber":57,"velocity":127,"programNumber":30},{"time":115973.77340000079,"duration":219.69699166667124,"noteNumber":57,"velocity":127,"programNumber":30},{"time":116201.0461500008,"duration":106.06061666666938,"noteNumber":57,"velocity":127,"programNumber":30},{"time":116428.3189000008,"duration":106.06061666666938,"noteNumber":57,"velocity":127,"programNumber":30},{"time":116541.9552750008,"duration":106.06061666666938,"noteNumber":57,"velocity":127,"programNumber":30},{"time":116655.5916500008,"duration":106.06061666666938,"noteNumber":61,"velocity":127,"programNumber":30},{"time":116655.5916500008,"duration":227.27275000000373,"noteNumber":57,"velocity":127,"programNumber":30},{"time":116882.8644000008,"duration":106.06061666666938,"noteNumber":57,"velocity":127,"programNumber":30},{"time":116996.50077500081,"duration":106.06061666666938,"noteNumber":57,"velocity":127,"programNumber":30},{"time":117110.13715000081,"duration":106.06061666666938,"noteNumber":57,"velocity":127,"programNumber":30},{"time":117223.77352500081,"duration":106.06061666666938,"noteNumber":57,"velocity":127,"programNumber":30},{"time":117337.40990000081,"duration":106.06061666666938,"noteNumber":64,"velocity":127,"programNumber":30},{"time":117564.68265000082,"duration":106.06061666666938,"noteNumber":57,"velocity":127,"programNumber":30},{"time":117678.31902500082,"duration":106.06061666666938,"noteNumber":57,"velocity":127,"programNumber":30},{"time":117337.40990000081,"duration":446.96974166667496,"noteNumber":56,"velocity":127,"programNumber":30},{"time":117791.95540000082,"duration":106.06061666666938,"noteNumber":57,"velocity":127,"programNumber":30},{"time":118019.22815000082,"duration":106.06061666666938,"noteNumber":62,"velocity":127,"programNumber":30},{"time":118246.50090000083,"duration":106.06061666666938,"noteNumber":57,"velocity":127,"programNumber":30},{"time":118360.13727500083,"duration":106.06061666666938,"noteNumber":57,"velocity":127,"programNumber":30},{"time":118019.22815000082,"duration":446.96974166667496,"noteNumber":54,"velocity":127,"programNumber":30},{"time":118473.77365000083,"duration":106.06061666666938,"noteNumber":57,"velocity":127,"programNumber":30},{"time":118701.04640000084,"duration":446.9697416666604,"noteNumber":52,"velocity":127,"programNumber":30},{"time":119382.86465000083,"duration":219.69699166667124,"noteNumber":55,"velocity":127,"programNumber":30},{"time":118701.04640000084,"duration":901.5152416666679,"noteNumber":61,"velocity":127,"programNumber":30},{"time":118701.04640000084,"duration":901.5152416666679,"noteNumber":57,"velocity":127,"programNumber":30},{"time":119610.13740000084,"duration":219.69699166667124,"noteNumber":57,"velocity":127,"programNumber":30},{"time":119837.41015000084,"duration":106.06061666666938,"noteNumber":57,"velocity":127,"programNumber":30},{"time":120064.68290000084,"duration":106.06061666666938,"noteNumber":57,"velocity":127,"programNumber":30},{"time":120178.31927500085,"duration":106.06061666666938,"noteNumber":57,"velocity":127,"programNumber":30},{"time":120291.95565000085,"duration":106.06061666666938,"noteNumber":61,"velocity":127,"programNumber":30},{"time":120291.95565000085,"duration":227.27275000000373,"noteNumber":57,"velocity":127,"programNumber":30},{"time":120519.22840000085,"duration":106.06061666666938,"noteNumber":57,"velocity":127,"programNumber":30},{"time":120632.86477500085,"duration":106.06061666666938,"noteNumber":57,"velocity":127,"programNumber":30},{"time":120746.50115000085,"duration":106.06061666666938,"noteNumber":57,"velocity":127,"programNumber":30},{"time":120860.13752500086,"duration":106.06061666666938,"noteNumber":57,"velocity":127,"programNumber":30},{"time":120973.77390000086,"duration":106.06061666666938,"noteNumber":64,"velocity":127,"programNumber":30},{"time":121201.04665000086,"duration":106.06061666666938,"noteNumber":57,"velocity":127,"programNumber":30},{"time":121314.68302500086,"duration":106.06061666666938,"noteNumber":57,"velocity":127,"programNumber":30},{"time":120973.77390000086,"duration":446.96974166667496,"noteNumber":56,"velocity":127,"programNumber":30},{"time":121428.31940000087,"duration":106.06061666666938,"noteNumber":57,"velocity":127,"programNumber":30},{"time":121655.59215000087,"duration":106.06061666666938,"noteNumber":62,"velocity":127,"programNumber":30},{"time":121882.86490000087,"duration":106.06061666666938,"noteNumber":57,"velocity":127,"programNumber":30},{"time":121996.50127500088,"duration":106.06061666666938,"noteNumber":57,"velocity":127,"programNumber":30},{"time":121655.59215000087,"duration":446.96974166667496,"noteNumber":54,"velocity":127,"programNumber":30},{"time":122110.13765000088,"duration":106.06061666666938,"noteNumber":57,"velocity":127,"programNumber":30},{"time":122337.41040000088,"duration":446.9697416666604,"noteNumber":52,"velocity":127,"programNumber":30},{"time":123019.22865000088,"duration":219.69699166667124,"noteNumber":55,"velocity":127,"programNumber":30},{"time":122337.41040000088,"duration":901.5152416666679,"noteNumber":61,"velocity":127,"programNumber":30},{"time":122337.41040000088,"duration":901.5152416666679,"noteNumber":57,"velocity":127,"programNumber":30},{"time":123246.50140000088,"duration":219.69699166667124,"noteNumber":57,"velocity":127,"programNumber":30},{"time":123473.77415000089,"duration":106.06061666666938,"noteNumber":57,"velocity":127,"programNumber":30},{"time":123701.04690000089,"duration":106.06061666666938,"noteNumber":57,"velocity":127,"programNumber":30},{"time":123814.68327500089,"duration":106.06061666666938,"noteNumber":57,"velocity":127,"programNumber":30},{"time":123928.31965000089,"duration":106.06061666666938,"noteNumber":61,"velocity":127,"programNumber":30},{"time":123928.31965000089,"duration":227.27275000000373,"noteNumber":57,"velocity":127,"programNumber":30},{"time":124155.5924000009,"duration":106.06061666666938,"noteNumber":57,"velocity":127,"programNumber":30},{"time":124269.2287750009,"duration":106.06061666666938,"noteNumber":57,"velocity":127,"programNumber":30},{"time":124382.8651500009,"duration":106.06061666666938,"noteNumber":57,"velocity":127,"programNumber":30},{"time":124496.5015250009,"duration":106.06061666666938,"noteNumber":57,"velocity":127,"programNumber":30},{"time":124610.1379000009,"duration":106.06061666666938,"noteNumber":64,"velocity":127,"programNumber":30},{"time":124837.41065000091,"duration":106.06061666666938,"noteNumber":57,"velocity":127,"programNumber":30},{"time":124951.04702500091,"duration":106.06061666666938,"noteNumber":57,"velocity":127,"programNumber":30},{"time":124610.1379000009,"duration":446.96974166667496,"noteNumber":56,"velocity":127,"programNumber":30},{"time":125064.68340000091,"duration":106.06061666666938,"noteNumber":57,"velocity":127,"programNumber":30},{"time":125291.95615000091,"duration":106.06061666666938,"noteNumber":62,"velocity":127,"programNumber":30},{"time":125519.22890000092,"duration":106.06061666666938,"noteNumber":57,"velocity":127,"programNumber":30},{"time":125632.86527500092,"duration":106.06061666666938,"noteNumber":57,"velocity":127,"programNumber":30},{"time":125291.95615000091,"duration":446.96974166667496,"noteNumber":54,"velocity":127,"programNumber":30},{"time":125746.50165000092,"duration":106.06061666666938,"noteNumber":57,"velocity":127,"programNumber":30},{"time":125973.77440000093,"duration":446.9697416666604,"noteNumber":52,"velocity":127,"programNumber":30},{"time":126655.59265000092,"duration":219.69699166667124,"noteNumber":55,"velocity":127,"programNumber":30},{"time":125973.77440000093,"duration":901.5152416666679,"noteNumber":61,"velocity":127,"programNumber":30},{"time":125973.77440000093,"duration":901.5152416666679,"noteNumber":57,"velocity":127,"programNumber":30},{"time":126882.86540000093,"duration":219.69699166667124,"noteNumber":57,"velocity":127,"programNumber":30},{"time":127110.13815000093,"duration":219.69699166667124,"noteNumber":54,"velocity":127,"programNumber":30},{"time":127337.41090000093,"duration":219.69699166667124,"noteNumber":52,"velocity":127,"programNumber":30},{"time":127564.68365000094,"duration":219.69699166667124,"noteNumber":54,"velocity":127,"programNumber":30},{"time":128246.50190000095,"duration":219.69699166667124,"noteNumber":56,"velocity":127,"programNumber":30},{"time":128246.50190000095,"duration":446.96974166667496,"noteNumber":52,"velocity":127,"programNumber":30},{"time":128701.04740000096,"duration":1810.6062416666682,"noteNumber":57,"velocity":127,"programNumber":30},{"time":128701.04740000096,"duration":1810.6062416666682,"noteNumber":50,"velocity":127,"programNumber":30},{"time":130746.50215000096,"duration":219.69699166667124,"noteNumber":54,"velocity":127,"programNumber":30},{"time":130973.77490000096,"duration":219.69699166667124,"noteNumber":52,"velocity":127,"programNumber":30},{"time":131201.04765000098,"duration":219.6969916666567,"noteNumber":54,"velocity":127,"programNumber":30},{"time":131882.86590000096,"duration":219.6969916666567,"noteNumber":56,"velocity":127,"programNumber":30},{"time":131882.86590000096,"duration":446.9697416666604,"noteNumber":52,"velocity":127,"programNumber":30},{"time":132337.41140000097,"duration":227.27275000000373,"noteNumber":50,"velocity":127,"programNumber":30},{"time":132564.68415000098,"duration":446.9697416666604,"noteNumber":50,"velocity":127,"programNumber":30},{"time":133246.50240000096,"duration":219.6969916666567,"noteNumber":50,"velocity":127,"programNumber":30},{"time":133473.77515000096,"duration":219.6969916666567,"noteNumber":50,"velocity":127,"programNumber":30},{"time":133701.04790000097,"duration":219.6969916666567,"noteNumber":50,"velocity":127,"programNumber":30},{"time":133928.32065000097,"duration":219.6969916666567,"noteNumber":49,"velocity":127,"programNumber":30},{"time":132337.41140000097,"duration":1810.6062416666537,"noteNumber":57,"velocity":127,"programNumber":30},{"time":134155.59340000097,"duration":219.6969916666567,"noteNumber":47,"velocity":127,"programNumber":30},{"time":134382.86615000098,"duration":227.27275000000373,"noteNumber":57,"velocity":127,"programNumber":30},{"time":134610.13890000098,"duration":219.6969916666567,"noteNumber":57,"velocity":127,"programNumber":30},{"time":134837.41165000098,"duration":227.27275000000373,"noteNumber":57,"velocity":127,"programNumber":30},{"time":135064.684400001,"duration":219.6969916666567,"noteNumber":57,"velocity":127,"programNumber":30},{"time":135519.22990000097,"duration":227.27275000000373,"noteNumber":57,"velocity":127,"programNumber":30},{"time":135746.50265000097,"duration":219.6969916666567,"noteNumber":57,"velocity":127,"programNumber":30},{"time":135973.77540000097,"duration":219.6969916666567,"noteNumber":52,"velocity":127,"programNumber":30},{"time":136201.04815000098,"duration":446.9697416666604,"noteNumber":52,"velocity":127,"programNumber":30},{"time":136655.59365000098,"duration":446.9697416666604,"noteNumber":52,"velocity":127,"programNumber":30},{"time":137110.139150001,"duration":227.27275000000373,"noteNumber":52,"velocity":127,"programNumber":30},{"time":137337.411900001,"duration":219.6969916666567,"noteNumber":52,"velocity":127,"programNumber":30},{"time":137564.684650001,"duration":446.9697416666604,"noteNumber":52,"velocity":127,"programNumber":30},{"time":137791.957400001,"duration":1810.6062416666537,"noteNumber":54,"velocity":127,"programNumber":30},{"time":141428.321400001,"duration":219.6969916666567,"noteNumber":52,"velocity":127,"programNumber":30},{"time":141655.594150001,"duration":227.27275000000373,"noteNumber":57,"velocity":127,"programNumber":30},{"time":141882.866900001,"duration":219.6969916666567,"noteNumber":57,"velocity":127,"programNumber":30},{"time":142110.13965000102,"duration":227.27275000000373,"noteNumber":57,"velocity":127,"programNumber":30},{"time":142337.41240000102,"duration":219.6969916666567,"noteNumber":57,"velocity":127,"programNumber":30},{"time":142791.957900001,"duration":227.27275000000373,"noteNumber":57,"velocity":127,"programNumber":30},{"time":143019.230650001,"duration":219.6969916666567,"noteNumber":57,"velocity":127,"programNumber":30},{"time":143246.503400001,"duration":219.6969916666567,"noteNumber":52,"velocity":127,"programNumber":30},{"time":143473.776150001,"duration":446.9697416666604,"noteNumber":52,"velocity":127,"programNumber":30},{"time":143928.32165000102,"duration":446.9697416666604,"noteNumber":52,"velocity":127,"programNumber":30},{"time":144382.86715000102,"duration":227.27275000000373,"noteNumber":52,"velocity":127,"programNumber":30},{"time":144610.13990000103,"duration":219.6969916666567,"noteNumber":52,"velocity":127,"programNumber":30},{"time":144837.41265000103,"duration":446.9697416666604,"noteNumber":52,"velocity":127,"programNumber":30},{"time":145291.95815000104,"duration":219.6969916666567,"noteNumber":42,"velocity":127,"programNumber":30},{"time":145291.95815000104,"duration":219.6969916666567,"noteNumber":54,"velocity":127,"programNumber":30},{"time":145519.23090000104,"duration":219.6969916666567,"noteNumber":40,"velocity":127,"programNumber":30},{"time":145519.23090000104,"duration":219.6969916666567,"noteNumber":52,"velocity":127,"programNumber":30},{"time":145746.50365000105,"duration":219.6969916666567,"noteNumber":42,"velocity":127,"programNumber":30},{"time":145746.50365000105,"duration":219.6969916666567,"noteNumber":54,"velocity":127,"programNumber":30},{"time":146428.32190000103,"duration":219.6969916666567,"noteNumber":42,"velocity":127,"programNumber":30},{"time":146428.32190000103,"duration":219.6969916666567,"noteNumber":54,"velocity":127,"programNumber":30},{"time":146655.59465000103,"duration":219.6969916666567,"noteNumber":44,"velocity":127,"programNumber":30},{"time":146655.59465000103,"duration":219.6969916666567,"noteNumber":56,"velocity":127,"programNumber":30},{"time":146882.86740000104,"duration":446.9697416666604,"noteNumber":57,"velocity":127,"programNumber":30},{"time":146882.86740000104,"duration":446.9697416666604,"noteNumber":45,"velocity":127,"programNumber":30},{"time":147337.41290000104,"duration":219.6969916666567,"noteNumber":56,"velocity":127,"programNumber":30},{"time":147337.41290000104,"duration":219.6969916666567,"noteNumber":44,"velocity":127,"programNumber":30},{"time":147564.68565000105,"duration":219.6969916666567,"noteNumber":42,"velocity":127,"programNumber":30},{"time":147564.68565000105,"duration":219.6969916666567,"noteNumber":54,"velocity":127,"programNumber":30},{"time":147791.95840000105,"duration":446.9697416666604,"noteNumber":40,"velocity":127,"programNumber":30},{"time":147791.95840000105,"duration":446.9697416666604,"noteNumber":52,"velocity":127,"programNumber":30},{"time":148246.50390000106,"duration":219.6969916666567,"noteNumber":42,"velocity":127,"programNumber":30},{"time":148246.50390000106,"duration":219.6969916666567,"noteNumber":54,"velocity":127,"programNumber":30},{"time":148473.77665000106,"duration":219.6969916666567,"noteNumber":56,"velocity":127,"programNumber":30},{"time":148473.77665000106,"duration":219.6969916666567,"noteNumber":44,"velocity":127,"programNumber":30},{"time":148928.32215000104,"duration":219.6969916666567,"noteNumber":54,"velocity":127,"programNumber":30},{"time":148928.32215000104,"duration":219.6969916666567,"noteNumber":42,"velocity":127,"programNumber":30},{"time":149155.59490000104,"duration":219.6969916666567,"noteNumber":40,"velocity":127,"programNumber":30},{"time":149155.59490000104,"duration":219.6969916666567,"noteNumber":52,"velocity":127,"programNumber":30},{"time":149382.86765000105,"duration":219.6969916666567,"noteNumber":42,"velocity":127,"programNumber":30},{"time":149382.86765000105,"duration":219.6969916666567,"noteNumber":54,"velocity":127,"programNumber":30},{"time":150064.68590000103,"duration":219.6969916666567,"noteNumber":42,"velocity":127,"programNumber":30},{"time":150064.68590000103,"duration":219.6969916666567,"noteNumber":54,"velocity":127,"programNumber":30},{"time":150291.95865000103,"duration":219.6969916666567,"noteNumber":42,"velocity":127,"programNumber":30},{"time":150291.95865000103,"duration":219.6969916666567,"noteNumber":54,"velocity":127,"programNumber":30},{"time":150519.23140000104,"duration":901.5152416666679,"noteNumber":50,"velocity":127,"programNumber":30},{"time":150519.23140000104,"duration":901.5152416666679,"noteNumber":62,"velocity":127,"programNumber":30},{"time":151655.59515000103,"duration":901.5152416666679,"noteNumber":64,"velocity":127,"programNumber":30},{"time":151655.59515000103,"duration":901.5152416666679,"noteNumber":52,"velocity":127,"programNumber":30},{"time":167110.14215000102,"duration":53.03025000001071,"noteNumber":73,"velocity":127,"programNumber":30},{"time":167170.74815833438,"duration":53.03025000001071,"noteNumber":69,"velocity":127,"programNumber":30},{"time":167231.35416666773,"duration":106.06061666665482,"noteNumber":66,"velocity":127,"programNumber":30},{"time":167458.6269166677,"duration":106.06061666665482,"noteNumber":73,"velocity":127,"programNumber":30},{"time":167572.2632916677,"duration":106.06061666665482,"noteNumber":69,"velocity":127,"programNumber":30},{"time":167685.8996666677,"duration":106.06061666665482,"noteNumber":66,"velocity":127,"programNumber":30},{"time":167913.1724166677,"duration":106.06061666665482,"noteNumber":73,"velocity":127,"programNumber":30},{"time":168026.8087916677,"duration":106.06061666665482,"noteNumber":69,"velocity":127,"programNumber":30},{"time":168140.4451666677,"duration":106.06061666665482,"noteNumber":66,"velocity":127,"programNumber":30},{"time":168367.71791666767,"duration":106.06061666665482,"noteNumber":73,"velocity":127,"programNumber":30},{"time":168481.35429166767,"duration":106.06061666665482,"noteNumber":69,"velocity":127,"programNumber":30},{"time":168594.99066666767,"duration":106.06061666665482,"noteNumber":66,"velocity":127,"programNumber":30},{"time":168822.26341666764,"duration":106.06061666665482,"noteNumber":73,"velocity":127,"programNumber":30},{"time":168935.89979166765,"duration":106.06061666665482,"noteNumber":69,"velocity":127,"programNumber":30},{"time":169049.53616666765,"duration":106.06061666665482,"noteNumber":66,"velocity":127,"programNumber":30},{"time":169276.80891666762,"duration":106.06061666665482,"noteNumber":73,"velocity":127,"programNumber":30},{"time":169390.44529166762,"duration":106.06061666665482,"noteNumber":69,"velocity":127,"programNumber":30},{"time":169504.08166666763,"duration":106.06061666665482,"noteNumber":66,"velocity":127,"programNumber":30},{"time":169731.3544166676,"duration":106.06061666665482,"noteNumber":73,"velocity":127,"programNumber":30},{"time":169844.9907916676,"duration":106.06061666665482,"noteNumber":69,"velocity":127,"programNumber":30},{"time":169958.6271666676,"duration":106.06061666665482,"noteNumber":66,"velocity":127,"programNumber":30},{"time":170185.89991666758,"duration":106.06061666665482,"noteNumber":73,"velocity":127,"programNumber":30},{"time":170299.53629166758,"duration":106.06061666665482,"noteNumber":69,"velocity":127,"programNumber":30},{"time":170413.17266666758,"duration":106.06061666665482,"noteNumber":66,"velocity":127,"programNumber":30},{"time":170640.44541666756,"duration":106.06061666665482,"noteNumber":74,"velocity":127,"programNumber":30},{"time":170754.08179166756,"duration":106.06061666665482,"noteNumber":69,"velocity":127,"programNumber":30},{"time":170867.71816666756,"duration":106.06061666665482,"noteNumber":66,"velocity":127,"programNumber":30},{"time":171094.99091666754,"duration":106.06061666665482,"noteNumber":74,"velocity":127,"programNumber":30},{"time":171208.62729166754,"duration":106.06061666665482,"noteNumber":69,"velocity":127,"programNumber":30},{"time":171322.26366666754,"duration":106.06061666665482,"noteNumber":66,"velocity":127,"programNumber":30},{"time":171549.5364166675,"duration":106.06061666665482,"noteNumber":74,"velocity":127,"programNumber":30},{"time":171663.17279166752,"duration":106.06061666665482,"noteNumber":69,"velocity":127,"programNumber":30},{"time":171776.80916666752,"duration":106.06061666665482,"noteNumber":66,"velocity":127,"programNumber":30},{"time":172004.0819166675,"duration":106.06061666665482,"noteNumber":74,"velocity":127,"programNumber":30},{"time":172117.7182916675,"duration":106.06061666665482,"noteNumber":69,"velocity":127,"programNumber":30},{"time":172231.3546666675,"duration":106.06061666665482,"noteNumber":66,"velocity":127,"programNumber":30},{"time":172458.62741666747,"duration":106.06061666665482,"noteNumber":74,"velocity":127,"programNumber":30},{"time":172572.26379166747,"duration":106.06061666665482,"noteNumber":69,"velocity":127,"programNumber":30},{"time":172685.90016666747,"duration":106.06061666665482,"noteNumber":66,"velocity":127,"programNumber":30},{"time":172913.17291666745,"duration":106.06061666665482,"noteNumber":74,"velocity":127,"programNumber":30},{"time":173026.80929166745,"duration":106.06061666665482,"noteNumber":69,"velocity":127,"programNumber":30},{"time":173140.44566666745,"duration":106.06061666665482,"noteNumber":66,"velocity":127,"programNumber":30},{"time":173367.71841666743,"duration":106.06061666665482,"noteNumber":74,"velocity":127,"programNumber":30},{"time":173481.35479166743,"duration":106.06061666665482,"noteNumber":69,"velocity":127,"programNumber":30},{"time":173594.99116666743,"duration":106.06061666665482,"noteNumber":66,"velocity":127,"programNumber":30},{"time":173822.2639166674,"duration":106.06061666665482,"noteNumber":74,"velocity":127,"programNumber":30},{"time":173935.9002916674,"duration":106.06061666665482,"noteNumber":69,"velocity":127,"programNumber":30},{"time":174049.5366666674,"duration":106.06061666665482,"noteNumber":66,"velocity":127,"programNumber":30},{"time":174276.80941666738,"duration":106.06061666665482,"noteNumber":71,"velocity":127,"programNumber":30},{"time":174390.4457916674,"duration":106.06061666665482,"noteNumber":68,"velocity":127,"programNumber":30},{"time":174504.0821666674,"duration":106.06061666665482,"noteNumber":64,"velocity":127,"programNumber":30},{"time":174731.35491666736,"duration":106.06061666665482,"noteNumber":71,"velocity":127,"programNumber":30},{"time":174844.99129166736,"duration":106.06061666665482,"noteNumber":68,"velocity":127,"programNumber":30},{"time":174958.62766666737,"duration":106.06061666665482,"noteNumber":64,"velocity":127,"programNumber":30},{"time":175185.90041666734,"duration":106.06061666665482,"noteNumber":71,"velocity":127,"programNumber":30},{"time":175299.53679166734,"duration":106.06061666665482,"noteNumber":68,"velocity":127,"programNumber":30},{"time":175413.17316666734,"duration":106.06061666665482,"noteNumber":64,"velocity":127,"programNumber":30},{"time":175640.44591666732,"duration":106.06061666665482,"noteNumber":71,"velocity":127,"programNumber":30},{"time":175754.08229166732,"duration":106.06061666665482,"noteNumber":68,"velocity":127,"programNumber":30},{"time":175867.71866666732,"duration":106.06061666665482,"noteNumber":64,"velocity":127,"programNumber":30},{"time":176094.9914166673,"duration":106.06061666665482,"noteNumber":71,"velocity":127,"programNumber":30},{"time":176208.6277916673,"duration":106.06061666665482,"noteNumber":68,"velocity":127,"programNumber":30},{"time":176322.2641666673,"duration":106.06061666665482,"noteNumber":64,"velocity":127,"programNumber":30},{"time":176549.53691666728,"duration":106.06061666665482,"noteNumber":71,"velocity":127,"programNumber":30},{"time":176663.17329166728,"duration":106.06061666665482,"noteNumber":68,"velocity":127,"programNumber":30},{"time":176776.80966666728,"duration":106.06061666665482,"noteNumber":64,"velocity":127,"programNumber":30},{"time":177004.08241666725,"duration":106.06061666665482,"noteNumber":71,"velocity":127,"programNumber":30},{"time":177117.71879166726,"duration":106.06061666665482,"noteNumber":68,"velocity":127,"programNumber":30},{"time":177231.35516666726,"duration":106.06061666665482,"noteNumber":64,"velocity":127,"programNumber":30},{"time":177458.62791666723,"duration":106.06061666665482,"noteNumber":71,"velocity":127,"programNumber":30},{"time":177572.26429166723,"duration":106.06061666665482,"noteNumber":68,"velocity":127,"programNumber":30},{"time":177685.90066666724,"duration":106.06061666665482,"noteNumber":64,"velocity":127,"programNumber":30},{"time":177913.1734166672,"duration":446.96974166703876,"noteNumber":66,"velocity":127,"programNumber":30},{"time":178367.7189166676,"duration":219.6969916666567,"noteNumber":69,"velocity":127,"programNumber":30},{"time":178594.9916666676,"duration":901.5152416666679,"noteNumber":66,"velocity":127,"programNumber":30},{"time":179731.3554166676,"duration":446.9697416666604,"noteNumber":81,"velocity":127,"programNumber":30},{"time":180072.2645416676,"duration":446.9697416666313,"noteNumber":80,"velocity":127,"programNumber":30},{"time":180413.17366666757,"duration":280.3030583333166,"noteNumber":78,"velocity":127,"programNumber":30},{"time":180693.4767250009,"duration":166.66668333351845,"noteNumber":78,"velocity":127,"programNumber":30},{"time":181549.53741666794,"duration":219.6969916666567,"noteNumber":78,"velocity":127,"programNumber":30},{"time":181890.44654166792,"duration":219.6969916666567,"noteNumber":80,"velocity":127,"programNumber":30},{"time":182231.3556666679,"duration":219.6969916666567,"noteNumber":81,"velocity":127,"programNumber":30},{"time":182458.6284166679,"duration":901.5152416666679,"noteNumber":83,"velocity":127,"programNumber":30},{"time":183367.7194166679,"duration":106.06061666665482,"noteNumber":78,"velocity":127,"programNumber":30},{"time":183481.3557916679,"duration":106.06061666665482,"noteNumber":81,"velocity":127,"programNumber":30},{"time":183594.99216666791,"duration":106.06061666665482,"noteNumber":78,"velocity":127,"programNumber":30},{"time":183708.62854166792,"duration":106.06061666665482,"noteNumber":76,"velocity":127,"programNumber":30},{"time":183822.26491666792,"duration":106.06061666665482,"noteNumber":78,"velocity":127,"programNumber":30},{"time":183935.90129166792,"duration":106.06061666665482,"noteNumber":76,"velocity":127,"programNumber":30},{"time":184049.53766666792,"duration":106.06061666665482,"noteNumber":74,"velocity":127,"programNumber":30},{"time":184163.17404166792,"duration":106.06061666665482,"noteNumber":73,"velocity":127,"programNumber":30},{"time":184276.81041666793,"duration":106.06061666665482,"noteNumber":74,"velocity":127,"programNumber":30},{"time":184390.44679166793,"duration":106.06061666665482,"noteNumber":73,"velocity":127,"programNumber":30},{"time":184504.08316666793,"duration":106.06061666665482,"noteNumber":71,"velocity":127,"programNumber":30},{"time":184617.71954166793,"duration":106.06061666665482,"noteNumber":69,"velocity":127,"programNumber":30},{"time":184731.35591666793,"duration":106.06061666665482,"noteNumber":71,"velocity":127,"programNumber":30},{"time":184844.99229166794,"duration":106.06061666668393,"noteNumber":69,"velocity":127,"programNumber":30},{"time":184935.90139166793,"duration":674.2424916672753,"noteNumber":73,"velocity":127,"programNumber":30},{"time":185640.44691666853,"duration":219.6969916666567,"noteNumber":76,"velocity":127,"programNumber":30},{"time":185867.71966666853,"duration":446.9697416666604,"noteNumber":69,"velocity":127,"programNumber":30},{"time":186549.53791666852,"duration":219.6969916666567,"noteNumber":76,"velocity":127,"programNumber":30},{"time":186776.81066666852,"duration":219.6969916666567,"noteNumber":78,"velocity":127,"programNumber":30},{"time":187004.08341666852,"duration":106.06061666665482,"noteNumber":81,"velocity":127,"programNumber":30},{"time":187117.71979166853,"duration":106.06061666665482,"noteNumber":78,"velocity":127,"programNumber":30},{"time":187231.35616666853,"duration":106.06061666665482,"noteNumber":81,"velocity":127,"programNumber":30},{"time":187344.99254166853,"duration":106.06061666665482,"noteNumber":78,"velocity":127,"programNumber":30},{"time":187458.62891666853,"duration":106.06061666665482,"noteNumber":81,"velocity":127,"programNumber":30},{"time":187572.26529166853,"duration":106.06061666665482,"noteNumber":78,"velocity":127,"programNumber":30},{"time":187685.90166666853,"duration":106.06061666665482,"noteNumber":81,"velocity":127,"programNumber":30},{"time":187799.53804166854,"duration":106.06061666665482,"noteNumber":78,"velocity":127,"programNumber":30},{"time":187913.17441666854,"duration":106.06061666665482,"noteNumber":81,"velocity":127,"programNumber":30},{"time":188026.81079166854,"duration":106.06061666665482,"noteNumber":78,"velocity":127,"programNumber":30},{"time":188140.44716666854,"duration":106.06061666665482,"noteNumber":81,"velocity":127,"programNumber":30},{"time":188254.08354166854,"duration":106.06061666665482,"noteNumber":78,"velocity":127,"programNumber":30},{"time":188367.71991666855,"duration":106.06061666665482,"noteNumber":81,"velocity":127,"programNumber":30},{"time":188481.35629166855,"duration":106.06061666665482,"noteNumber":78,"velocity":127,"programNumber":30},{"time":188594.99266666855,"duration":106.06061666665482,"noteNumber":81,"velocity":127,"programNumber":30},{"time":188708.62904166855,"duration":106.06061666665482,"noteNumber":78,"velocity":127,"programNumber":30},{"time":188822.26541666855,"duration":106.06061666665482,"noteNumber":81,"velocity":127,"programNumber":30},{"time":188935.90179166856,"duration":106.06061666665482,"noteNumber":78,"velocity":127,"programNumber":30},{"time":189049.53816666856,"duration":106.06061666665482,"noteNumber":81,"velocity":127,"programNumber":30},{"time":189163.17454166856,"duration":106.06061666665482,"noteNumber":78,"velocity":127,"programNumber":30},{"time":189276.81091666856,"duration":106.06061666665482,"noteNumber":81,"velocity":127,"programNumber":30},{"time":189390.44729166856,"duration":106.06061666665482,"noteNumber":78,"velocity":127,"programNumber":30},{"time":189504.08366666856,"duration":106.06061666665482,"noteNumber":81,"velocity":127,"programNumber":30},{"time":189617.72004166857,"duration":106.06061666665482,"noteNumber":78,"velocity":127,"programNumber":30},{"time":189731.35641666857,"duration":106.06061666665482,"noteNumber":81,"velocity":127,"programNumber":30},{"time":189844.99279166857,"duration":106.06061666665482,"noteNumber":78,"velocity":127,"programNumber":30},{"time":189958.62916666857,"duration":106.06061666665482,"noteNumber":82,"velocity":127,"programNumber":30},{"time":190072.26554166857,"duration":106.06061666665482,"noteNumber":78,"velocity":127,"programNumber":30},{"time":190185.90191666858,"duration":106.06061666665482,"noteNumber":83,"velocity":127,"programNumber":30},{"time":190299.53829166858,"duration":106.06061666665482,"noteNumber":78,"velocity":127,"programNumber":30},{"time":190413.17466666858,"duration":106.06061666665482,"noteNumber":84,"velocity":127,"programNumber":30},{"time":190526.81104166858,"duration":106.06061666665482,"noteNumber":78,"velocity":127,"programNumber":30},{"time":190640.44741666858,"duration":106.06061666665482,"noteNumber":85,"velocity":127,"programNumber":30},{"time":190754.08379166859,"duration":106.06061666665482,"noteNumber":81,"velocity":127,"programNumber":30},{"time":190867.7201666686,"duration":106.06061666665482,"noteNumber":85,"velocity":127,"programNumber":30},{"time":190981.3565416686,"duration":106.06061666665482,"noteNumber":81,"velocity":127,"programNumber":30},{"time":191094.9929166686,"duration":106.06061666665482,"noteNumber":85,"velocity":127,"programNumber":30},{"time":191208.6292916686,"duration":106.06061666665482,"noteNumber":81,"velocity":127,"programNumber":30},{"time":191322.2656666686,"duration":106.06061666665482,"noteNumber":85,"velocity":127,"programNumber":30},{"time":191435.9020416686,"duration":106.06061666665482,"noteNumber":81,"velocity":127,"programNumber":30},{"time":191549.5384166686,"duration":106.06061666665482,"noteNumber":85,"velocity":127,"programNumber":30},{"time":191663.1747916686,"duration":106.06061666665482,"noteNumber":81,"velocity":127,"programNumber":30},{"time":191776.8111666686,"duration":106.06061666665482,"noteNumber":85,"velocity":127,"programNumber":30},{"time":191890.4475416686,"duration":106.06061666665482,"noteNumber":81,"velocity":127,"programNumber":30},{"time":192004.0839166686,"duration":106.06061666665482,"noteNumber":85,"velocity":127,"programNumber":30},{"time":192117.7202916686,"duration":106.06061666665482,"noteNumber":81,"velocity":127,"programNumber":30},{"time":192231.3566666686,"duration":106.06061666665482,"noteNumber":85,"velocity":127,"programNumber":30},{"time":192344.9930416686,"duration":106.06061666665482,"noteNumber":81,"velocity":127,"programNumber":30},{"time":192458.6294166686,"duration":106.06061666665482,"noteNumber":85,"velocity":127,"programNumber":30},{"time":192572.26579166861,"duration":106.06061666665482,"noteNumber":81,"velocity":127,"programNumber":30},{"time":192685.90216666862,"duration":106.06061666665482,"noteNumber":85,"velocity":127,"programNumber":30},{"time":192799.53854166862,"duration":106.06061666665482,"noteNumber":81,"velocity":127,"programNumber":30},{"time":192913.17491666862,"duration":106.06061666665482,"noteNumber":85,"velocity":127,"programNumber":30},{"time":193026.81129166862,"duration":106.06061666665482,"noteNumber":81,"velocity":127,"programNumber":30},{"time":193140.44766666862,"duration":106.06061666665482,"noteNumber":85,"velocity":127,"programNumber":30},{"time":193254.08404166863,"duration":106.06061666665482,"noteNumber":81,"velocity":127,"programNumber":30},{"time":193367.72041666863,"duration":106.06061666665482,"noteNumber":85,"velocity":127,"programNumber":30},{"time":193481.35679166863,"duration":106.06061666665482,"noteNumber":81,"velocity":127,"programNumber":30},{"time":193594.99316666863,"duration":106.06061666665482,"noteNumber":85,"velocity":127,"programNumber":30},{"time":193708.62954166863,"duration":106.06061666665482,"noteNumber":81,"velocity":127,"programNumber":30},{"time":193822.26591666864,"duration":106.06061666665482,"noteNumber":84,"velocity":127,"programNumber":30},{"time":193935.90229166864,"duration":106.06061666665482,"noteNumber":81,"velocity":127,"programNumber":30},{"time":194049.53866666864,"duration":106.06061666665482,"noteNumber":83,"velocity":127,"programNumber":30},{"time":194163.17504166864,"duration":106.06061666665482,"noteNumber":81,"velocity":127,"programNumber":30},{"time":194276.81141666864,"duration":106.06061666665482,"noteNumber":83,"velocity":127,"programNumber":30},{"time":194390.44779166864,"duration":106.06061666665482,"noteNumber":80,"velocity":127,"programNumber":30},{"time":194504.08416666865,"duration":106.06061666665482,"noteNumber":83,"velocity":127,"programNumber":30},{"time":194617.72054166865,"duration":106.06061666665482,"noteNumber":80,"velocity":127,"programNumber":30},{"time":194731.35691666865,"duration":106.06061666665482,"noteNumber":83,"velocity":127,"programNumber":30},{"time":194844.99329166865,"duration":106.06061666665482,"noteNumber":80,"velocity":127,"programNumber":30},{"time":194958.62966666865,"duration":106.06061666665482,"noteNumber":83,"velocity":127,"programNumber":30},{"time":195072.26604166866,"duration":106.06061666665482,"noteNumber":80,"velocity":127,"programNumber":30},{"time":195185.90241666866,"duration":106.06061666665482,"noteNumber":83,"velocity":127,"programNumber":30},{"time":195299.53879166866,"duration":106.06061666665482,"noteNumber":80,"velocity":127,"programNumber":30},{"time":195413.17516666866,"duration":106.06061666665482,"noteNumber":83,"velocity":127,"programNumber":30},{"time":195526.81154166866,"duration":106.06061666665482,"noteNumber":80,"velocity":127,"programNumber":30},{"time":195640.44791666867,"duration":106.06061666665482,"noteNumber":83,"velocity":127,"programNumber":30},{"time":195754.08429166867,"duration":106.06061666665482,"noteNumber":80,"velocity":127,"programNumber":30},{"time":195867.72066666867,"duration":106.06061666665482,"noteNumber":83,"velocity":127,"programNumber":30},{"time":195981.35704166867,"duration":106.06061666665482,"noteNumber":80,"velocity":127,"programNumber":30},{"time":196094.99341666867,"duration":106.06061666665482,"noteNumber":83,"velocity":127,"programNumber":30},{"time":196208.62979166867,"duration":106.06061666665482,"noteNumber":80,"velocity":127,"programNumber":30},{"time":196322.26616666868,"duration":106.06061666665482,"noteNumber":83,"velocity":127,"programNumber":30},{"time":196435.90254166868,"duration":106.06061666665482,"noteNumber":80,"velocity":127,"programNumber":30},{"time":196549.53891666868,"duration":106.06061666665482,"noteNumber":83,"velocity":127,"programNumber":30},{"time":196663.17529166868,"duration":106.06061666665482,"noteNumber":80,"velocity":127,"programNumber":30},{"time":196776.81166666868,"duration":106.06061666665482,"noteNumber":83,"velocity":127,"programNumber":30},{"time":196890.4480416687,"duration":106.06061666665482,"noteNumber":80,"velocity":127,"programNumber":30},{"time":197004.0844166687,"duration":106.06061666665482,"noteNumber":83,"velocity":127,"programNumber":30},{"time":197117.7207916687,"duration":106.06061666665482,"noteNumber":80,"velocity":127,"programNumber":30},{"time":197231.3571666687,"duration":106.06061666665482,"noteNumber":83,"velocity":127,"programNumber":30},{"time":197344.9935416687,"duration":106.06061666665482,"noteNumber":80,"velocity":127,"programNumber":30},{"time":197458.6299166687,"duration":106.06061666665482,"noteNumber":83,"velocity":127,"programNumber":30},{"time":197572.2662916687,"duration":106.06061666665482,"noteNumber":80,"velocity":127,"programNumber":30},{"time":197685.9026666687,"duration":106.06061666665482,"noteNumber":83,"velocity":127,"programNumber":30},{"time":197799.5390416687,"duration":106.06061666665482,"noteNumber":80,"velocity":127,"programNumber":30},{"time":197913.1754166687,"duration":484.84853333365754,"noteNumber":78,"velocity":127,"programNumber":30},{"time":198367.72091666903,"duration":219.6969916666567,"noteNumber":81,"velocity":127,"programNumber":30},{"time":198594.99366666903,"duration":219.6969916666567,"noteNumber":78,"velocity":127,"programNumber":30},{"time":199049.539166669,"duration":219.6969916666567,"noteNumber":74,"velocity":127,"programNumber":30},{"time":199276.81191666902,"duration":219.6969916666567,"noteNumber":73,"velocity":127,"programNumber":30},{"time":199504.08466666902,"duration":219.6969916666567,"noteNumber":71,"velocity":127,"programNumber":30},{"time":199731.35741666902,"duration":219.6969916666567,"noteNumber":69,"velocity":127,"programNumber":30},{"time":199958.63016666903,"duration":106.06061666665482,"noteNumber":66,"velocity":127,"programNumber":30},{"time":200072.26654166903,"duration":106.06061666665482,"noteNumber":64,"velocity":127,"programNumber":30},{"time":200185.90291666903,"duration":219.6969916666567,"noteNumber":69,"velocity":127,"programNumber":30},{"time":200413.17566666903,"duration":106.06061666665482,"noteNumber":66,"velocity":127,"programNumber":30},{"time":200526.81204166904,"duration":106.06061666665482,"noteNumber":64,"velocity":127,"programNumber":30},{"time":200640.44841666904,"duration":219.6969916666567,"noteNumber":69,"velocity":127,"programNumber":30},{"time":200867.72116666904,"duration":106.06061666665482,"noteNumber":66,"velocity":127,"programNumber":30},{"time":200981.35754166904,"duration":106.06061666665482,"noteNumber":64,"velocity":127,"programNumber":30},{"time":201094.99391666905,"duration":219.6969916666567,"noteNumber":69,"velocity":127,"programNumber":30},{"time":201322.26666666905,"duration":106.06061666665482,"noteNumber":66,"velocity":127,"programNumber":30},{"time":201435.90304166905,"duration":106.06061666665482,"noteNumber":64,"velocity":127,"programNumber":30},{"time":201549.53941666905,"duration":219.6969916666567,"noteNumber":68,"velocity":127,"programNumber":30},{"time":201776.81216666906,"duration":106.06061666665482,"noteNumber":68,"velocity":127,"programNumber":30},{"time":201663.17579166905,"duration":219.6969916666567,"noteNumber":69,"velocity":127,"programNumber":30},{"time":201890.44854166906,"duration":106.06061666665482,"noteNumber":69,"velocity":127,"programNumber":30},{"time":202004.08491666906,"duration":106.06061666665482,"noteNumber":68,"velocity":127,"programNumber":30},{"time":202117.72129166906,"duration":106.06061666665482,"noteNumber":69,"velocity":127,"programNumber":30},{"time":202231.35766666906,"duration":106.06061666665482,"noteNumber":68,"velocity":127,"programNumber":30},{"time":202344.99404166907,"duration":106.06061666665482,"noteNumber":69,"velocity":127,"programNumber":30},{"time":202458.63041666907,"duration":446.9697416666604,"noteNumber":71,"velocity":127,"programNumber":30},{"time":203140.44866666905,"duration":219.6969916666567,"noteNumber":64,"velocity":127,"programNumber":30},{"time":203367.72141666905,"duration":219.6969916666567,"noteNumber":54,"velocity":127,"programNumber":30},{"time":203481.35779166906,"duration":219.6969916666567,"noteNumber":56,"velocity":127,"programNumber":30},{"time":203594.99416666906,"duration":219.6969916666567,"noteNumber":57,"velocity":127,"programNumber":30},{"time":203708.63054166906,"duration":219.6969916666567,"noteNumber":59,"velocity":127,"programNumber":30},{"time":203822.26691666906,"duration":219.6969916666567,"noteNumber":61,"velocity":127,"programNumber":30},{"time":203935.90329166906,"duration":219.6969916666567,"noteNumber":62,"velocity":127,"programNumber":30},{"time":204049.53966666906,"duration":219.6969916666567,"noteNumber":64,"velocity":127,"programNumber":30},{"time":204163.17604166907,"duration":219.6969916666567,"noteNumber":66,"velocity":127,"programNumber":30},{"time":204276.81241666907,"duration":219.6969916666567,"noteNumber":68,"velocity":127,"programNumber":30},{"time":204390.44879166907,"duration":219.6969916666567,"noteNumber":69,"velocity":127,"programNumber":30},{"time":204504.08516666907,"duration":219.6969916666567,"noteNumber":71,"velocity":127,"programNumber":30},{"time":204617.72154166907,"duration":219.6969916666567,"noteNumber":73,"velocity":127,"programNumber":30},{"time":204731.35791666908,"duration":219.6969916666567,"noteNumber":74,"velocity":127,"programNumber":30},{"time":204958.63066666908,"duration":219.6969916666567,"noteNumber":76,"velocity":127,"programNumber":30},{"time":205185.90341666908,"duration":446.9697416666604,"noteNumber":85,"velocity":127,"programNumber":30},{"time":205640.4489166691,"duration":219.6969916666567,"noteNumber":85,"velocity":127,"programNumber":30},{"time":205867.7216666691,"duration":901.5152416666679,"noteNumber":83,"velocity":127,"programNumber":30},{"time":207004.08541666908,"duration":219.6969916666567,"noteNumber":42,"velocity":127,"programNumber":30},{"time":207231.3581666691,"duration":219.6969916666567,"noteNumber":42,"velocity":127,"programNumber":30},{"time":207458.6309166691,"duration":219.6969916666567,"noteNumber":49,"velocity":127,"programNumber":30},{"time":207685.9036666691,"duration":219.6969916666567,"noteNumber":42,"velocity":127,"programNumber":30},{"time":207913.1764166691,"duration":219.6969916666567,"noteNumber":50,"velocity":127,"programNumber":30},{"time":208140.4491666691,"duration":219.6969916666567,"noteNumber":42,"velocity":127,"programNumber":30},{"time":208367.7219166691,"duration":219.6969916666567,"noteNumber":49,"velocity":127,"programNumber":30},{"time":208594.9946666691,"duration":219.6969916666567,"noteNumber":42,"velocity":127,"programNumber":30},{"time":208822.2674166691,"duration":219.6969916666567,"noteNumber":47,"velocity":127,"programNumber":30},{"time":209049.54016666912,"duration":219.6969916666567,"noteNumber":45,"velocity":127,"programNumber":30},{"time":209276.81291666912,"duration":219.6969916666567,"noteNumber":44,"velocity":127,"programNumber":30},{"time":209504.08566666913,"duration":219.6969916666567,"noteNumber":45,"velocity":127,"programNumber":30},{"time":209731.35841666913,"duration":219.6969916666567,"noteNumber":47,"velocity":127,"programNumber":30},{"time":209958.63116666913,"duration":219.6969916666567,"noteNumber":45,"velocity":127,"programNumber":30},{"time":210185.90391666914,"duration":219.6969916666567,"noteNumber":44,"velocity":127,"programNumber":30},{"time":210413.17666666914,"duration":219.6969916666567,"noteNumber":40,"velocity":127,"programNumber":30},{"time":210640.44941666914,"duration":219.6969916666567,"noteNumber":42,"velocity":127,"programNumber":30},{"time":210867.72216666915,"duration":219.6969916666567,"noteNumber":42,"velocity":127,"programNumber":30},{"time":211094.99491666915,"duration":219.6969916666567,"noteNumber":49,"velocity":127,"programNumber":30},{"time":211322.26766666916,"duration":219.6969916666567,"noteNumber":42,"velocity":127,"programNumber":30},{"time":211549.54041666916,"duration":219.6969916666567,"noteNumber":50,"velocity":127,"programNumber":30},{"time":211776.81316666916,"duration":219.6969916666567,"noteNumber":42,"velocity":127,"programNumber":30},{"time":212004.08591666917,"duration":219.6969916666567,"noteNumber":49,"velocity":127,"programNumber":30},{"time":212231.35866666917,"duration":219.6969916666567,"noteNumber":42,"velocity":127,"programNumber":30},{"time":212458.63141666917,"duration":219.6969916666567,"noteNumber":47,"velocity":127,"programNumber":30},{"time":212685.90416666918,"duration":219.6969916666567,"noteNumber":45,"velocity":127,"programNumber":30},{"time":212913.17691666918,"duration":219.6969916666567,"noteNumber":44,"velocity":127,"programNumber":30},{"time":213140.44966666918,"duration":219.6969916666567,"noteNumber":45,"velocity":127,"programNumber":30},{"time":213367.7224166692,"duration":219.6969916666567,"noteNumber":47,"velocity":127,"programNumber":30},{"time":213594.9951666692,"duration":219.6969916666567,"noteNumber":45,"velocity":127,"programNumber":30},{"time":213822.2679166692,"duration":219.6969916666567,"noteNumber":44,"velocity":127,"programNumber":30},{"time":214049.5406666692,"duration":219.6969916666567,"noteNumber":40,"velocity":127,"programNumber":30},{"time":214276.8134166692,"duration":219.6969916666567,"noteNumber":42,"velocity":127,"programNumber":30},{"time":214504.0861666692,"duration":219.6969916666567,"noteNumber":42,"velocity":127,"programNumber":30},{"time":214731.3589166692,"duration":219.6969916666567,"noteNumber":49,"velocity":127,"programNumber":30},{"time":214958.63166666921,"duration":219.6969916666567,"noteNumber":42,"velocity":127,"programNumber":30},{"time":215185.90441666922,"duration":219.6969916666567,"noteNumber":50,"velocity":127,"programNumber":30},{"time":215413.17716666922,"duration":219.6969916666567,"noteNumber":42,"velocity":127,"programNumber":30},{"time":215640.44991666923,"duration":219.6969916666567,"noteNumber":49,"velocity":127,"programNumber":30},{"time":215867.72266666923,"duration":219.6969916666567,"noteNumber":42,"velocity":127,"programNumber":30},{"time":216094.99541666923,"duration":219.6969916666567,"noteNumber":47,"velocity":127,"programNumber":30},{"time":216322.26816666924,"duration":219.6969916666567,"noteNumber":45,"velocity":127,"programNumber":30},{"time":216549.54091666924,"duration":219.6969916666567,"noteNumber":44,"velocity":127,"programNumber":30},{"time":216776.81366666924,"duration":219.6969916666567,"noteNumber":45,"velocity":127,"programNumber":30},{"time":217004.08641666925,"duration":219.6969916666567,"noteNumber":47,"velocity":127,"programNumber":30},{"time":217231.35916666925,"duration":219.6969916666567,"noteNumber":45,"velocity":127,"programNumber":30},{"time":217458.63191666926,"duration":219.6969916666567,"noteNumber":44,"velocity":127,"programNumber":30},{"time":217685.90466666926,"duration":219.6969916666567,"noteNumber":40,"velocity":127,"programNumber":30},{"time":217913.17741666926,"duration":219.6969916666567,"noteNumber":42,"velocity":127,"programNumber":30},{"time":218140.45016666927,"duration":219.6969916666567,"noteNumber":42,"velocity":127,"programNumber":30},{"time":218367.72291666927,"duration":219.6969916666567,"noteNumber":49,"velocity":127,"programNumber":30},{"time":218594.99566666927,"duration":219.6969916666567,"noteNumber":42,"velocity":127,"programNumber":30},{"time":218822.26841666928,"duration":219.6969916666567,"noteNumber":50,"velocity":127,"programNumber":30},{"time":219049.54116666928,"duration":219.6969916666567,"noteNumber":42,"velocity":127,"programNumber":30},{"time":219276.81391666929,"duration":219.6969916666567,"noteNumber":49,"velocity":127,"programNumber":30},{"time":219504.0866666693,"duration":219.6969916666567,"noteNumber":42,"velocity":127,"programNumber":30},{"time":219731.3594166693,"duration":901.5152416666679,"noteNumber":50,"velocity":127,"programNumber":30},{"time":220640.4504166693,"duration":901.5152416666679,"noteNumber":52,"velocity":127,"programNumber":30},{"time":221549.54141666932,"duration":106.06061666665482,"noteNumber":57,"velocity":127,"programNumber":30},{"time":221776.8141666693,"duration":106.06061666665482,"noteNumber":57,"velocity":127,"programNumber":30},{"time":221890.4505416693,"duration":106.06061666665482,"noteNumber":57,"velocity":127,"programNumber":30},{"time":222004.0869166693,"duration":106.06061666665482,"noteNumber":61,"velocity":127,"programNumber":30},{"time":222004.0869166693,"duration":227.27274999997462,"noteNumber":57,"velocity":127,"programNumber":30},{"time":222231.35966666928,"duration":106.06061666665482,"noteNumber":57,"velocity":127,"programNumber":30},{"time":222344.99604166928,"duration":106.06061666665482,"noteNumber":57,"velocity":127,"programNumber":30},{"time":222458.63241666928,"duration":106.06061666665482,"noteNumber":57,"velocity":127,"programNumber":30},{"time":222572.26879166928,"duration":106.06061666665482,"noteNumber":57,"velocity":127,"programNumber":30},{"time":222685.90516666928,"duration":106.06061666665482,"noteNumber":64,"velocity":127,"programNumber":30},{"time":222913.17791666926,"duration":106.06061666665482,"noteNumber":57,"velocity":127,"programNumber":30},{"time":223026.81429166926,"duration":106.06061666665482,"noteNumber":57,"velocity":127,"programNumber":30},{"time":222685.90516666928,"duration":446.9697416666313,"noteNumber":56,"velocity":127,"programNumber":30},{"time":223140.45066666926,"duration":106.06061666665482,"noteNumber":57,"velocity":127,"programNumber":30},{"time":223367.72341666924,"duration":106.06061666665482,"noteNumber":62,"velocity":127,"programNumber":30},{"time":223594.9961666692,"duration":106.06061666665482,"noteNumber":57,"velocity":127,"programNumber":30},{"time":223708.6325416692,"duration":106.06061666665482,"noteNumber":57,"velocity":127,"programNumber":30},{"time":223367.72341666924,"duration":446.9697416666313,"noteNumber":54,"velocity":127,"programNumber":30},{"time":223822.2689166692,"duration":106.06061666665482,"noteNumber":57,"velocity":127,"programNumber":30},{"time":224049.5416666692,"duration":446.9697416666604,"noteNumber":52,"velocity":127,"programNumber":30},{"time":224731.35991666917,"duration":219.6969916666567,"noteNumber":55,"velocity":127,"programNumber":30},{"time":224049.5416666692,"duration":901.5152416666388,"noteNumber":61,"velocity":127,"programNumber":30},{"time":224049.5416666692,"duration":901.5152416666388,"noteNumber":57,"velocity":127,"programNumber":30},{"time":224958.63266666917,"duration":219.6969916666567,"noteNumber":57,"velocity":127,"programNumber":30},{"time":225185.90541666918,"duration":106.06061666665482,"noteNumber":57,"velocity":127,"programNumber":30},{"time":225413.17816666915,"duration":106.06061666665482,"noteNumber":57,"velocity":127,"programNumber":30},{"time":225526.81454166916,"duration":106.06061666665482,"noteNumber":57,"velocity":127,"programNumber":30},{"time":225640.45091666916,"duration":106.06061666665482,"noteNumber":61,"velocity":127,"programNumber":30},{"time":225640.45091666916,"duration":227.27274999997462,"noteNumber":57,"velocity":127,"programNumber":30},{"time":225867.72366666913,"duration":106.06061666665482,"noteNumber":57,"velocity":127,"programNumber":30},{"time":225981.36004166913,"duration":106.06061666665482,"noteNumber":57,"velocity":127,"programNumber":30},{"time":226094.99641666914,"duration":106.06061666665482,"noteNumber":57,"velocity":127,"programNumber":30},{"time":226208.63279166914,"duration":106.06061666665482,"noteNumber":57,"velocity":127,"programNumber":30},{"time":226322.26916666914,"duration":106.06061666665482,"noteNumber":64,"velocity":127,"programNumber":30},{"time":226549.5419166691,"duration":106.06061666665482,"noteNumber":57,"velocity":127,"programNumber":30},{"time":226663.17829166912,"duration":106.06061666665482,"noteNumber":57,"velocity":127,"programNumber":30},{"time":226322.26916666914,"duration":446.9697416666313,"noteNumber":56,"velocity":127,"programNumber":30},{"time":226776.81466666912,"duration":106.06061666665482,"noteNumber":57,"velocity":127,"programNumber":30},{"time":227004.0874166691,"duration":106.06061666665482,"noteNumber":62,"velocity":127,"programNumber":30},{"time":227231.36016666907,"duration":106.06061666665482,"noteNumber":57,"velocity":127,"programNumber":30},{"time":227344.99654166907,"duration":106.06061666665482,"noteNumber":57,"velocity":127,"programNumber":30},{"time":227004.0874166691,"duration":446.9697416666313,"noteNumber":54,"velocity":127,"programNumber":30},{"time":227458.63291666907,"duration":106.06061666665482,"noteNumber":57,"velocity":127,"programNumber":30},{"time":227685.90566666904,"duration":446.9697416666604,"noteNumber":52,"velocity":127,"programNumber":30},{"time":228367.72391666903,"duration":219.6969916666567,"noteNumber":55,"velocity":127,"programNumber":30},{"time":227685.90566666904,"duration":901.5152416666388,"noteNumber":61,"velocity":127,"programNumber":30},{"time":227685.90566666904,"duration":901.5152416666388,"noteNumber":57,"velocity":127,"programNumber":30},{"time":228594.99666666903,"duration":219.6969916666567,"noteNumber":57,"velocity":127,"programNumber":30},{"time":228822.26941666903,"duration":106.06061666665482,"noteNumber":57,"velocity":127,"programNumber":30},{"time":229049.542166669,"duration":106.06061666665482,"noteNumber":57,"velocity":127,"programNumber":30},{"time":229163.178541669,"duration":106.06061666665482,"noteNumber":57,"velocity":127,"programNumber":30},{"time":229276.814916669,"duration":106.06061666665482,"noteNumber":61,"velocity":127,"programNumber":30},{"time":229276.814916669,"duration":227.27274999997462,"noteNumber":57,"velocity":127,"programNumber":30},{"time":229504.087666669,"duration":106.06061666665482,"noteNumber":57,"velocity":127,"programNumber":30},{"time":229617.724041669,"duration":106.06061666665482,"noteNumber":57,"velocity":127,"programNumber":30},{"time":229731.360416669,"duration":106.06061666665482,"noteNumber":57,"velocity":127,"programNumber":30},{"time":229844.996791669,"duration":106.06061666665482,"noteNumber":57,"velocity":127,"programNumber":30},{"time":229958.633166669,"duration":106.06061666665482,"noteNumber":64,"velocity":127,"programNumber":30},{"time":230185.90591666897,"duration":106.06061666665482,"noteNumber":57,"velocity":127,"programNumber":30},{"time":230299.54229166897,"duration":106.06061666665482,"noteNumber":57,"velocity":127,"programNumber":30},{"time":229958.633166669,"duration":446.9697416666313,"noteNumber":56,"velocity":127,"programNumber":30},{"time":230413.17866666897,"duration":106.06061666665482,"noteNumber":57,"velocity":127,"programNumber":30},{"time":230640.45141666895,"duration":106.06061666665482,"noteNumber":62,"velocity":127,"programNumber":30},{"time":230867.72416666892,"duration":106.06061666665482,"noteNumber":57,"velocity":127,"programNumber":30},{"time":230981.36054166892,"duration":106.06061666665482,"noteNumber":57,"velocity":127,"programNumber":30},{"time":230640.45141666895,"duration":446.9697416666313,"noteNumber":54,"velocity":127,"programNumber":30},{"time":231094.99691666893,"duration":106.06061666665482,"noteNumber":57,"velocity":127,"programNumber":30},{"time":231322.2696666689,"duration":446.9697416666604,"noteNumber":52,"velocity":127,"programNumber":30},{"time":232004.08791666888,"duration":219.6969916666567,"noteNumber":55,"velocity":127,"programNumber":30},{"time":231322.2696666689,"duration":901.5152416666388,"noteNumber":57,"velocity":127,"programNumber":30},{"time":231322.2696666689,"duration":901.5152416666388,"noteNumber":61,"velocity":127,"programNumber":30},{"time":232231.3606666689,"duration":219.6969916666567,"noteNumber":57,"velocity":127,"programNumber":30},{"time":232458.6334166689,"duration":106.06061666665482,"noteNumber":57,"velocity":127,"programNumber":30},{"time":232685.90616666886,"duration":106.06061666665482,"noteNumber":57,"velocity":127,"programNumber":30},{"time":232799.54254166887,"duration":106.06061666665482,"noteNumber":57,"velocity":127,"programNumber":30},{"time":232913.17891666887,"duration":106.06061666665482,"noteNumber":61,"velocity":127,"programNumber":30},{"time":232913.17891666887,"duration":227.27274999997462,"noteNumber":57,"velocity":127,"programNumber":30},{"time":233140.45166666884,"duration":106.06061666665482,"noteNumber":57,"velocity":127,"programNumber":30},{"time":233254.08804166885,"duration":106.06061666665482,"noteNumber":57,"velocity":127,"programNumber":30},{"time":233367.72441666885,"duration":106.06061666665482,"noteNumber":57,"velocity":127,"programNumber":30},{"time":233481.36079166885,"duration":106.06061666665482,"noteNumber":57,"velocity":127,"programNumber":30},{"time":233594.99716666885,"duration":106.06061666665482,"noteNumber":64,"velocity":127,"programNumber":30},{"time":233822.26991666883,"duration":106.06061666665482,"noteNumber":57,"velocity":127,"programNumber":30},{"time":233935.90629166883,"duration":106.06061666665482,"noteNumber":57,"velocity":127,"programNumber":30},{"time":233594.99716666885,"duration":446.9697416666313,"noteNumber":56,"velocity":127,"programNumber":30},{"time":234049.54266666883,"duration":106.06061666665482,"noteNumber":57,"velocity":127,"programNumber":30},{"time":234276.8154166688,"duration":106.06061666665482,"noteNumber":62,"velocity":127,"programNumber":30},{"time":234504.08816666878,"duration":106.06061666665482,"noteNumber":57,"velocity":127,"programNumber":30},{"time":234617.72454166878,"duration":106.06061666665482,"noteNumber":57,"velocity":127,"programNumber":30},{"time":234276.8154166688,"duration":446.9697416666313,"noteNumber":54,"velocity":127,"programNumber":30},{"time":234731.36091666878,"duration":106.06061666665482,"noteNumber":57,"velocity":127,"programNumber":30},{"time":234958.63366666876,"duration":446.9697416666604,"noteNumber":52,"velocity":127,"programNumber":30},{"time":235640.45191666874,"duration":219.6969916666567,"noteNumber":55,"velocity":127,"programNumber":30},{"time":234958.63366666876,"duration":901.5152416666388,"noteNumber":61,"velocity":127,"programNumber":30},{"time":234958.63366666876,"duration":901.5152416666388,"noteNumber":57,"velocity":127,"programNumber":30},{"time":235867.72466666874,"duration":219.6969916666567,"noteNumber":57,"velocity":127,"programNumber":30},{"time":236094.99741666875,"duration":106.06061666665482,"noteNumber":57,"velocity":127,"programNumber":30},{"time":236322.27016666872,"duration":106.06061666665482,"noteNumber":57,"velocity":127,"programNumber":30},{"time":236435.90654166872,"duration":106.06061666665482,"noteNumber":57,"velocity":127,"programNumber":30},{"time":236549.54291666872,"duration":106.06061666665482,"noteNumber":61,"velocity":127,"programNumber":30},{"time":236549.54291666872,"duration":227.27274999997462,"noteNumber":57,"velocity":127,"programNumber":30},{"time":236776.8156666687,"duration":106.06061666665482,"noteNumber":57,"velocity":127,"programNumber":30},{"time":236890.4520416687,"duration":106.06061666665482,"noteNumber":57,"velocity":127,"programNumber":30},{"time":237004.0884166687,"duration":106.06061666665482,"noteNumber":57,"velocity":127,"programNumber":30},{"time":237117.7247916687,"duration":106.06061666665482,"noteNumber":57,"velocity":127,"programNumber":30},{"time":237231.3611666687,"duration":106.06061666665482,"noteNumber":64,"velocity":127,"programNumber":30},{"time":237458.63391666868,"duration":106.06061666665482,"noteNumber":57,"velocity":127,"programNumber":30},{"time":237572.27029166868,"duration":106.06061666665482,"noteNumber":57,"velocity":127,"programNumber":30},{"time":237231.3611666687,"duration":446.9697416666313,"noteNumber":56,"velocity":127,"programNumber":30},{"time":237685.90666666868,"duration":106.06061666665482,"noteNumber":57,"velocity":127,"programNumber":30},{"time":237913.17941666866,"duration":106.06061666665482,"noteNumber":62,"velocity":127,"programNumber":30},{"time":238140.45216666863,"duration":106.06061666665482,"noteNumber":57,"velocity":127,"programNumber":30},{"time":238254.08854166864,"duration":106.06061666665482,"noteNumber":57,"velocity":127,"programNumber":30},{"time":237913.17941666866,"duration":446.9697416666313,"noteNumber":54,"velocity":127,"programNumber":30},{"time":238367.72491666864,"duration":106.06061666665482,"noteNumber":57,"velocity":127,"programNumber":30},{"time":238594.9976666686,"duration":446.9697416666604,"noteNumber":52,"velocity":127,"programNumber":30},{"time":239276.8159166686,"duration":219.6969916666567,"noteNumber":55,"velocity":127,"programNumber":30},{"time":238594.9976666686,"duration":901.5152416666388,"noteNumber":57,"velocity":127,"programNumber":30},{"time":238594.9976666686,"duration":901.5152416666388,"noteNumber":61,"velocity":127,"programNumber":30},{"time":239504.0886666686,"duration":219.6969916666567,"noteNumber":57,"velocity":127,"programNumber":30},{"time":239731.3614166686,"duration":106.06061666665482,"noteNumber":57,"velocity":127,"programNumber":30},{"time":239958.63416666858,"duration":106.06061666665482,"noteNumber":57,"velocity":127,"programNumber":30},{"time":240072.27054166858,"duration":106.06061666665482,"noteNumber":57,"velocity":127,"programNumber":30},{"time":240185.90691666858,"duration":106.06061666665482,"noteNumber":61,"velocity":127,"programNumber":30},{"time":240185.90691666858,"duration":227.27274999997462,"noteNumber":57,"velocity":127,"programNumber":30},{"time":240413.17966666856,"duration":106.06061666665482,"noteNumber":57,"velocity":127,"programNumber":30},{"time":240526.81604166856,"duration":106.06061666665482,"noteNumber":57,"velocity":127,"programNumber":30},{"time":240640.45241666856,"duration":106.06061666665482,"noteNumber":57,"velocity":127,"programNumber":30},{"time":240754.08879166856,"duration":106.06061666665482,"noteNumber":57,"velocity":127,"programNumber":30},{"time":240867.72516666856,"duration":106.06061666665482,"noteNumber":64,"velocity":127,"programNumber":30},{"time":241094.99791666854,"duration":106.06061666665482,"noteNumber":57,"velocity":127,"programNumber":30},{"time":241208.63429166854,"duration":106.06061666665482,"noteNumber":57,"velocity":127,"programNumber":30},{"time":240867.72516666856,"duration":446.9697416666313,"noteNumber":56,"velocity":127,"programNumber":30},{"time":241322.27066666854,"duration":106.06061666665482,"noteNumber":57,"velocity":127,"programNumber":30},{"time":241549.54341666852,"duration":106.06061666665482,"noteNumber":62,"velocity":127,"programNumber":30},{"time":241776.8161666685,"duration":106.06061666665482,"noteNumber":57,"velocity":127,"programNumber":30},{"time":241890.4525416685,"duration":106.06061666665482,"noteNumber":57,"velocity":127,"programNumber":30},{"time":241549.54341666852,"duration":446.9697416666313,"noteNumber":54,"velocity":127,"programNumber":30},{"time":242004.0889166685,"duration":106.06061666665482,"noteNumber":57,"velocity":127,"programNumber":30},{"time":242231.36166666847,"duration":446.9697416666604,"noteNumber":52,"velocity":127,"programNumber":30},{"time":242913.17991666845,"duration":219.6969916666567,"noteNumber":55,"velocity":127,"programNumber":30},{"time":242231.36166666847,"duration":901.5152416666388,"noteNumber":61,"velocity":127,"programNumber":30},{"time":242231.36166666847,"duration":901.5152416666388,"noteNumber":57,"velocity":127,"programNumber":30},{"time":243140.45266666845,"duration":219.6969916666567,"noteNumber":57,"velocity":127,"programNumber":30},{"time":243367.72541666846,"duration":106.06061666665482,"noteNumber":57,"velocity":127,"programNumber":30},{"time":243594.99816666843,"duration":106.06061666665482,"noteNumber":57,"velocity":127,"programNumber":30},{"time":243708.63454166843,"duration":106.06061666665482,"noteNumber":57,"velocity":127,"programNumber":30},{"time":243822.27091666844,"duration":106.06061666665482,"noteNumber":61,"velocity":127,"programNumber":30},{"time":243822.27091666844,"duration":227.27274999997462,"noteNumber":57,"velocity":127,"programNumber":30},{"time":244049.5436666684,"duration":106.06061666665482,"noteNumber":57,"velocity":127,"programNumber":30},{"time":244163.1800416684,"duration":106.06061666665482,"noteNumber":57,"velocity":127,"programNumber":30},{"time":244276.81641666841,"duration":106.06061666665482,"noteNumber":57,"velocity":127,"programNumber":30},{"time":244390.45279166842,"duration":106.06061666665482,"noteNumber":57,"velocity":127,"programNumber":30},{"time":244504.08916666842,"duration":106.06061666665482,"noteNumber":64,"velocity":127,"programNumber":30},{"time":244731.3619166684,"duration":106.06061666665482,"noteNumber":57,"velocity":127,"programNumber":30},{"time":244844.9982916684,"duration":106.06061666665482,"noteNumber":57,"velocity":127,"programNumber":30},{"time":244504.08916666842,"duration":446.9697416666313,"noteNumber":56,"velocity":127,"programNumber":30},{"time":244958.6346666684,"duration":106.06061666665482,"noteNumber":57,"velocity":127,"programNumber":30},{"time":245185.90741666837,"duration":106.06061666665482,"noteNumber":62,"velocity":127,"programNumber":30},{"time":245413.18016666835,"duration":106.06061666665482,"noteNumber":57,"velocity":127,"programNumber":30},{"time":245526.81654166835,"duration":106.06061666665482,"noteNumber":57,"velocity":127,"programNumber":30},{"time":245185.90741666837,"duration":446.9697416666313,"noteNumber":54,"velocity":127,"programNumber":30},{"time":245640.45291666835,"duration":106.06061666665482,"noteNumber":57,"velocity":127,"programNumber":30},{"time":245867.72566666832,"duration":446.9697416666604,"noteNumber":52,"velocity":127,"programNumber":30},{"time":246549.5439166683,"duration":219.6969916666567,"noteNumber":55,"velocity":127,"programNumber":30},{"time":245867.72566666832,"duration":901.5152416666388,"noteNumber":61,"velocity":127,"programNumber":30},{"time":245867.72566666832,"duration":901.5152416666388,"noteNumber":57,"velocity":127,"programNumber":30},{"time":246776.8166666683,"duration":219.6969916666567,"noteNumber":57,"velocity":127,"programNumber":30},{"time":247004.0894166683,"duration":106.06061666665482,"noteNumber":57,"velocity":127,"programNumber":30},{"time":247231.3621666683,"duration":106.06061666665482,"noteNumber":57,"velocity":127,"programNumber":30},{"time":247344.9985416683,"duration":106.06061666665482,"noteNumber":57,"velocity":127,"programNumber":30},{"time":247458.6349166683,"duration":106.06061666665482,"noteNumber":61,"velocity":127,"programNumber":30},{"time":247458.6349166683,"duration":227.27274999997462,"noteNumber":57,"velocity":127,"programNumber":30},{"time":247685.90766666827,"duration":106.06061666665482,"noteNumber":57,"velocity":127,"programNumber":30},{"time":247799.54404166827,"duration":106.06061666665482,"noteNumber":57,"velocity":127,"programNumber":30},{"time":247913.18041666827,"duration":106.06061666665482,"noteNumber":57,"velocity":127,"programNumber":30},{"time":248026.81679166827,"duration":106.06061666665482,"noteNumber":57,"velocity":127,"programNumber":30},{"time":248140.45316666827,"duration":106.06061666665482,"noteNumber":64,"velocity":127,"programNumber":30},{"time":248367.72591666825,"duration":106.06061666665482,"noteNumber":57,"velocity":127,"programNumber":30},{"time":248481.36229166825,"duration":106.06061666665482,"noteNumber":57,"velocity":127,"programNumber":30},{"time":248140.45316666827,"duration":446.9697416666313,"noteNumber":56,"velocity":127,"programNumber":30},{"time":248594.99866666825,"duration":106.06061666665482,"noteNumber":57,"velocity":127,"programNumber":30},{"time":248822.27141666823,"duration":106.06061666665482,"noteNumber":62,"velocity":127,"programNumber":30},{"time":249049.5441666682,"duration":106.06061666665482,"noteNumber":57,"velocity":127,"programNumber":30},{"time":249163.1805416682,"duration":106.06061666665482,"noteNumber":57,"velocity":127,"programNumber":30},{"time":248822.27141666823,"duration":446.9697416666313,"noteNumber":54,"velocity":127,"programNumber":30},{"time":249276.8169166682,"duration":106.06061666665482,"noteNumber":57,"velocity":127,"programNumber":30},{"time":249504.08966666818,"duration":446.9697416666604,"noteNumber":52,"velocity":127,"programNumber":30},{"time":250185.90791666816,"duration":219.6969916666567,"noteNumber":55,"velocity":127,"programNumber":30},{"time":249504.08966666818,"duration":901.5152416666388,"noteNumber":61,"velocity":127,"programNumber":30},{"time":249504.08966666818,"duration":901.5152416666388,"noteNumber":57,"velocity":127,"programNumber":30},{"time":250413.18066666817,"duration":219.6969916666567,"noteNumber":57,"velocity":127,"programNumber":30},{"time":250640.45341666817,"duration":106.06061666665482,"noteNumber":57,"velocity":127,"programNumber":30},{"time":250867.72616666814,"duration":106.06061666665482,"noteNumber":57,"velocity":127,"programNumber":30},{"time":250981.36254166815,"duration":106.06061666665482,"noteNumber":57,"velocity":127,"programNumber":30},{"time":251094.99891666815,"duration":106.06061666665482,"noteNumber":61,"velocity":127,"programNumber":30},{"time":251094.99891666815,"duration":227.27274999997462,"noteNumber":57,"velocity":127,"programNumber":30},{"time":251322.27166666812,"duration":106.06061666665482,"noteNumber":57,"velocity":127,"programNumber":30},{"time":251435.90804166812,"duration":106.06061666665482,"noteNumber":57,"velocity":127,"programNumber":30},{"time":251549.54441666813,"duration":106.06061666665482,"noteNumber":57,"velocity":127,"programNumber":30},{"time":251663.18079166813,"duration":106.06061666665482,"noteNumber":57,"velocity":127,"programNumber":30},{"time":251776.81716666813,"duration":106.06061666665482,"noteNumber":64,"velocity":127,"programNumber":30},{"time":252004.0899166681,"duration":106.06061666665482,"noteNumber":57,"velocity":127,"programNumber":30},{"time":252117.7262916681,"duration":106.06061666665482,"noteNumber":57,"velocity":127,"programNumber":30},{"time":251776.81716666813,"duration":446.9697416666313,"noteNumber":56,"velocity":127,"programNumber":30},{"time":252231.3626666681,"duration":106.06061666665482,"noteNumber":57,"velocity":127,"programNumber":30},{"time":252458.63541666808,"duration":106.06061666665482,"noteNumber":62,"velocity":127,"programNumber":30},{"time":252685.90816666806,"duration":106.06061666665482,"noteNumber":57,"velocity":127,"programNumber":30},{"time":252799.54454166806,"duration":106.06061666665482,"noteNumber":57,"velocity":127,"programNumber":30},{"time":252458.63541666808,"duration":446.9697416666313,"noteNumber":54,"velocity":127,"programNumber":30},{"time":252913.18091666806,"duration":106.06061666665482,"noteNumber":57,"velocity":127,"programNumber":30},{"time":253140.45366666804,"duration":446.9697416666604,"noteNumber":52,"velocity":127,"programNumber":30},{"time":253822.27191666802,"duration":219.6969916666567,"noteNumber":55,"velocity":127,"programNumber":30},{"time":253140.45366666804,"duration":901.5152416666388,"noteNumber":61,"velocity":127,"programNumber":30},{"time":253140.45366666804,"duration":901.5152416666388,"noteNumber":57,"velocity":127,"programNumber":30},{"time":254049.54466666802,"duration":219.6969916666567,"noteNumber":57,"velocity":127,"programNumber":30},{"time":254276.81741666803,"duration":106.06061666665482,"noteNumber":57,"velocity":127,"programNumber":30},{"time":254504.090166668,"duration":106.06061666665482,"noteNumber":57,"velocity":127,"programNumber":30},{"time":254617.726541668,"duration":106.06061666665482,"noteNumber":57,"velocity":127,"programNumber":30},{"time":254731.362916668,"duration":106.06061666665482,"noteNumber":61,"velocity":127,"programNumber":30},{"time":254731.362916668,"duration":227.27274999997462,"noteNumber":57,"velocity":127,"programNumber":30},{"time":254958.63566666798,"duration":106.06061666665482,"noteNumber":57,"velocity":127,"programNumber":30},{"time":255072.27204166798,"duration":106.06061666665482,"noteNumber":57,"velocity":127,"programNumber":30},{"time":255185.90841666798,"duration":106.06061666665482,"noteNumber":57,"velocity":127,"programNumber":30},{"time":255299.54479166798,"duration":106.06061666665482,"noteNumber":57,"velocity":127,"programNumber":30},{"time":255413.181166668,"duration":106.06061666665482,"noteNumber":64,"velocity":127,"programNumber":30},{"time":255640.45391666796,"duration":106.06061666665482,"noteNumber":57,"velocity":127,"programNumber":30},{"time":255754.09029166796,"duration":106.06061666665482,"noteNumber":57,"velocity":127,"programNumber":30},{"time":255413.181166668,"duration":446.9697416666313,"noteNumber":56,"velocity":127,"programNumber":30},{"time":255867.72666666796,"duration":106.06061666665482,"noteNumber":57,"velocity":127,"programNumber":30},{"time":256094.99941666794,"duration":106.06061666665482,"noteNumber":62,"velocity":127,"programNumber":30},{"time":256322.2721666679,"duration":106.06061666665482,"noteNumber":57,"velocity":127,"programNumber":30},{"time":256435.90854166792,"duration":106.06061666665482,"noteNumber":57,"velocity":127,"programNumber":30},{"time":256094.99941666794,"duration":446.9697416666313,"noteNumber":54,"velocity":127,"programNumber":30},{"time":256549.54491666792,"duration":106.06061666665482,"noteNumber":57,"velocity":127,"programNumber":30},{"time":256776.8176666679,"duration":446.9697416666604,"noteNumber":52,"velocity":127,"programNumber":30},{"time":257458.63591666787,"duration":219.6969916666567,"noteNumber":55,"velocity":127,"programNumber":30},{"time":256776.8176666679,"duration":901.5152416666388,"noteNumber":57,"velocity":127,"programNumber":30},{"time":256776.8176666679,"duration":901.5152416666388,"noteNumber":61,"velocity":127,"programNumber":30},{"time":257685.90866666788,"duration":219.6969916666567,"noteNumber":57,"velocity":127,"programNumber":30},{"time":257913.18141666788,"duration":219.6969916666567,"noteNumber":54,"velocity":127,"programNumber":30},{"time":258140.45416666789,"duration":219.6969916666567,"noteNumber":52,"velocity":127,"programNumber":30},{"time":258367.7269166679,"duration":219.6969916666567,"noteNumber":54,"velocity":127,"programNumber":30},{"time":259049.54516666787,"duration":219.6969916666567,"noteNumber":56,"velocity":127,"programNumber":30},{"time":259049.54516666787,"duration":446.9697416666604,"noteNumber":52,"velocity":127,"programNumber":30},{"time":259504.09066666788,"duration":1810.6062416666537,"noteNumber":50,"velocity":127,"programNumber":30},{"time":259504.09066666788,"duration":1810.6062416666537,"noteNumber":57,"velocity":127,"programNumber":30},{"time":261549.54541666785,"duration":219.6969916666567,"noteNumber":54,"velocity":127,"programNumber":30},{"time":261776.81816666786,"duration":219.6969916666567,"noteNumber":52,"velocity":127,"programNumber":30},{"time":262004.09091666786,"duration":219.6969916666567,"noteNumber":54,"velocity":127,"programNumber":30},{"time":262685.90916666784,"duration":219.6969916666858,"noteNumber":56,"velocity":127,"programNumber":30},{"time":262685.90916666784,"duration":446.9697416666895,"noteNumber":52,"velocity":127,"programNumber":30},{"time":263140.45466666785,"duration":227.27275000000373,"noteNumber":50,"velocity":127,"programNumber":30},{"time":263367.72741666785,"duration":446.9697416666895,"noteNumber":50,"velocity":127,"programNumber":30},{"time":264049.54566666787,"duration":219.6969916666858,"noteNumber":50,"velocity":127,"programNumber":30},{"time":264276.81841666787,"duration":219.6969916666858,"noteNumber":50,"velocity":127,"programNumber":30},{"time":264504.0911666679,"duration":219.6969916666858,"noteNumber":50,"velocity":127,"programNumber":30},{"time":264731.3639166679,"duration":219.6969916666858,"noteNumber":49,"velocity":127,"programNumber":30},{"time":263140.45466666785,"duration":1810.6062416667119,"noteNumber":57,"velocity":127,"programNumber":30},{"time":264958.6366666679,"duration":219.6969916666858,"noteNumber":47,"velocity":127,"programNumber":30},{"time":264958.6366666679,"duration":219.6969916666858,"noteNumber":52,"velocity":127,"programNumber":30},{"time":265185.9094166679,"duration":227.27275000000373,"noteNumber":57,"velocity":127,"programNumber":30},{"time":265413.1821666679,"duration":219.6969916666858,"noteNumber":57,"velocity":127,"programNumber":30},{"time":265640.4549166679,"duration":227.27275000000373,"noteNumber":57,"velocity":127,"programNumber":30},{"time":265867.7276666679,"duration":219.6969916666858,"noteNumber":57,"velocity":127,"programNumber":30},{"time":266322.2731666679,"duration":227.27275000000373,"noteNumber":57,"velocity":127,"programNumber":30},{"time":266549.5459166679,"duration":219.6969916666858,"noteNumber":57,"velocity":127,"programNumber":30},{"time":266776.8186666679,"duration":219.6969916666858,"noteNumber":52,"velocity":127,"programNumber":30},{"time":267004.0914166679,"duration":446.9697416666895,"noteNumber":52,"velocity":127,"programNumber":30},{"time":267458.6369166679,"duration":446.9697416666895,"noteNumber":52,"velocity":127,"programNumber":30},{"time":267913.1824166679,"duration":227.27275000000373,"noteNumber":52,"velocity":127,"programNumber":30},{"time":268140.45516666793,"duration":219.6969916666858,"noteNumber":52,"velocity":127,"programNumber":30},{"time":268367.72791666794,"duration":446.9697416666895,"noteNumber":52,"velocity":127,"programNumber":30},{"time":268595.00066666794,"duration":1810.6062416667119,"noteNumber":54,"velocity":127,"programNumber":30},{"time":272231.364666668,"duration":219.6969916666858,"noteNumber":52,"velocity":127,"programNumber":30},{"time":272458.637416668,"duration":227.27275000000373,"noteNumber":57,"velocity":127,"programNumber":30},{"time":272685.910166668,"duration":219.6969916666858,"noteNumber":57,"velocity":127,"programNumber":30},{"time":272913.182916668,"duration":227.27275000000373,"noteNumber":57,"velocity":127,"programNumber":30},{"time":273140.455666668,"duration":219.6969916666858,"noteNumber":57,"velocity":127,"programNumber":30},{"time":273595.001166668,"duration":227.27275000000373,"noteNumber":57,"velocity":127,"programNumber":30},{"time":273822.273916668,"duration":219.6969916666858,"noteNumber":57,"velocity":127,"programNumber":30},{"time":274049.54666666803,"duration":219.6969916666858,"noteNumber":52,"velocity":127,"programNumber":30},{"time":274276.81941666803,"duration":446.9697416666895,"noteNumber":52,"velocity":127,"programNumber":30},{"time":274731.36491666804,"duration":446.9697416666895,"noteNumber":52,"velocity":127,"programNumber":30},{"time":275185.91041666805,"duration":227.27275000000373,"noteNumber":52,"velocity":127,"programNumber":30},{"time":275413.18316666805,"duration":219.6969916666858,"noteNumber":52,"velocity":127,"programNumber":30},{"time":275640.45591666806,"duration":446.9697416666895,"noteNumber":52,"velocity":127,"programNumber":30},{"time":276095.00141666806,"duration":219.6969916666858,"noteNumber":42,"velocity":127,"programNumber":30},{"time":276095.00141666806,"duration":219.6969916666858,"noteNumber":54,"velocity":127,"programNumber":30},{"time":276322.27416666807,"duration":219.6969916666858,"noteNumber":52,"velocity":127,"programNumber":30},{"time":276322.27416666807,"duration":219.6969916666858,"noteNumber":40,"velocity":127,"programNumber":30},{"time":276549.54691666807,"duration":219.6969916666858,"noteNumber":42,"velocity":127,"programNumber":30},{"time":276549.54691666807,"duration":219.6969916666858,"noteNumber":54,"velocity":127,"programNumber":30},{"time":277231.3651666681,"duration":219.6969916666858,"noteNumber":42,"velocity":127,"programNumber":30},{"time":277231.3651666681,"duration":219.6969916666858,"noteNumber":54,"velocity":127,"programNumber":30},{"time":277458.6379166681,"duration":219.6969916666858,"noteNumber":40,"velocity":127,"programNumber":30},{"time":277458.6379166681,"duration":219.6969916666858,"noteNumber":56,"velocity":127,"programNumber":30},{"time":277685.9106666681,"duration":446.9697416666895,"noteNumber":57,"velocity":127,"programNumber":30},{"time":277685.9106666681,"duration":446.9697416666895,"noteNumber":38,"velocity":127,"programNumber":30},{"time":278140.4561666681,"duration":219.6969916666858,"noteNumber":44,"velocity":127,"programNumber":30},{"time":278140.4561666681,"duration":219.6969916666858,"noteNumber":56,"velocity":127,"programNumber":30},{"time":278367.7289166681,"duration":219.6969916666858,"noteNumber":54,"velocity":127,"programNumber":30},{"time":278367.7289166681,"duration":219.6969916666858,"noteNumber":42,"velocity":127,"programNumber":30},{"time":278595.0016666681,"duration":446.9697416666895,"noteNumber":52,"velocity":127,"programNumber":30},{"time":278595.0016666681,"duration":446.9697416666895,"noteNumber":40,"velocity":127,"programNumber":30},{"time":279049.5471666681,"duration":219.6969916666858,"noteNumber":54,"velocity":127,"programNumber":30},{"time":279049.5471666681,"duration":219.6969916666858,"noteNumber":42,"velocity":127,"programNumber":30},{"time":279276.8199166681,"duration":219.6969916666858,"noteNumber":56,"velocity":127,"programNumber":30},{"time":279276.8199166681,"duration":219.6969916666858,"noteNumber":44,"velocity":127,"programNumber":30},{"time":279731.3654166681,"duration":219.6969916666858,"noteNumber":42,"velocity":127,"programNumber":30},{"time":279731.3654166681,"duration":219.6969916666858,"noteNumber":54,"velocity":127,"programNumber":30},{"time":279958.6381666681,"duration":219.6969916666858,"noteNumber":40,"velocity":127,"programNumber":30},{"time":279958.6381666681,"duration":219.6969916666858,"noteNumber":52,"velocity":127,"programNumber":30},{"time":280185.91091666813,"duration":219.6969916666858,"noteNumber":54,"velocity":127,"programNumber":30},{"time":280185.91091666813,"duration":219.6969916666858,"noteNumber":42,"velocity":127,"programNumber":30},{"time":280867.72916666814,"duration":219.6969916666858,"noteNumber":42,"velocity":127,"programNumber":30},{"time":280867.72916666814,"duration":219.6969916666858,"noteNumber":54,"velocity":127,"programNumber":30},{"time":281095.00191666814,"duration":219.6969916666858,"noteNumber":54,"velocity":127,"programNumber":30},{"time":281095.00191666814,"duration":219.6969916666858,"noteNumber":42,"velocity":127,"programNumber":30},{"time":281322.27466666815,"duration":901.5152416666388,"noteNumber":62,"velocity":127,"programNumber":30},{"time":281322.27466666815,"duration":901.5152416666388,"noteNumber":50,"velocity":127,"programNumber":30},{"time":282458.6384166681,"duration":901.5152416666388,"noteNumber":64,"velocity":127,"programNumber":30},{"time":282458.6384166681,"duration":901.5152416666388,"noteNumber":52,"velocity":127,"programNumber":30},{"time":283367.72941666807,"duration":219.6969916666858,"noteNumber":42,"velocity":127,"programNumber":30},{"time":285185.9114166681,"duration":219.6969916666858,"noteNumber":45,"velocity":127,"programNumber":30},{"time":283595.00216666807,"duration":1810.6062416667119,"noteNumber":42,"velocity":127,"programNumber":30},{"time":286095.0024166681,"duration":219.6969916666858,"noteNumber":40,"velocity":127,"programNumber":30},{"time":285413.1841666681,"duration":901.515241666697,"noteNumber":45,"velocity":127,"programNumber":30},{"time":287004.0934166681,"duration":219.6969916666858,"noteNumber":42,"velocity":127,"programNumber":30},{"time":286322.2751666681,"duration":901.515241666697,"noteNumber":40,"velocity":127,"programNumber":30},{"time":288822.27541666816,"duration":219.6969916666858,"noteNumber":50,"velocity":127,"programNumber":30},{"time":287231.36616666813,"duration":1810.6062416667119,"noteNumber":42,"velocity":127,"programNumber":30},{"time":289731.36641666817,"duration":219.6969916666858,"noteNumber":52,"velocity":127,"programNumber":30},{"time":289049.54816666816,"duration":901.515241666697,"noteNumber":50,"velocity":127,"programNumber":30},{"time":290640.4574166682,"duration":219.6969916666858,"noteNumber":42,"velocity":127,"programNumber":30},{"time":289958.6391666682,"duration":901.515241666697,"noteNumber":52,"velocity":127,"programNumber":30},{"time":292458.6394166682,"duration":219.6969916666858,"noteNumber":45,"velocity":127,"programNumber":30},{"time":290867.7301666682,"duration":1810.6062416667119,"noteNumber":42,"velocity":127,"programNumber":30},{"time":293367.73041666823,"duration":219.6969916666858,"noteNumber":40,"velocity":123,"programNumber":30},{"time":292685.9121666682,"duration":901.515241666697,"noteNumber":45,"velocity":126,"programNumber":30},{"time":294276.82141666824,"duration":219.6969916666858,"noteNumber":42,"velocity":119,"programNumber":30},{"time":293595.00316666823,"duration":901.515241666697,"noteNumber":40,"velocity":122,"programNumber":30},{"time":296095.0034166683,"duration":219.6969916666858,"noteNumber":50,"velocity":111,"programNumber":30},{"time":294504.09416666825,"duration":1810.6062416667119,"noteNumber":42,"velocity":118,"programNumber":30},{"time":297004.0944166683,"duration":219.6969916666858,"noteNumber":52,"velocity":108,"programNumber":30},{"time":296322.2761666683,"duration":901.515241666697,"noteNumber":50,"velocity":110,"programNumber":30},{"time":297913.1854166683,"duration":219.6969916666858,"noteNumber":42,"velocity":104,"programNumber":30},{"time":297231.3671666683,"duration":901.515241666697,"noteNumber":52,"velocity":107,"programNumber":30},{"time":299731.36741666833,"duration":219.6969916666858,"noteNumber":45,"velocity":94,"programNumber":30},{"time":298140.4581666683,"duration":1810.6062416667119,"noteNumber":42,"velocity":103,"programNumber":30},{"time":300640.45841666835,"duration":219.6969916666858,"noteNumber":40,"velocity":90,"programNumber":30},{"time":299958.64016666834,"duration":901.515241666697,"noteNumber":45,"velocity":93,"programNumber":30},{"time":301549.54941666836,"duration":219.6969916666858,"noteNumber":42,"velocity":86,"programNumber":30},{"time":300867.73116666835,"duration":901.515241666697,"noteNumber":40,"velocity":89,"programNumber":30},{"time":303367.7314166684,"duration":219.6969916666858,"noteNumber":50,"velocity":79,"programNumber":30},{"time":301776.82216666837,"duration":1810.6062416667119,"noteNumber":42,"velocity":85,"programNumber":30},{"time":304276.8224166684,"duration":219.6969916666858,"noteNumber":52,"velocity":75,"programNumber":30},{"time":303595.0041666684,"duration":901.515241666697,"noteNumber":50,"velocity":78,"programNumber":30},{"time":305185.9134166684,"duration":219.6969916666858,"noteNumber":42,"velocity":71,"programNumber":30},{"time":304504.0951666684,"duration":901.515241666697,"noteNumber":52,"velocity":74,"programNumber":30},{"time":307004.09541666845,"duration":219.6969916666858,"noteNumber":45,"velocity":61,"programNumber":30},{"time":305413.1861666684,"duration":1810.6062416667119,"noteNumber":42,"velocity":70,"programNumber":30},{"time":307913.18641666847,"duration":219.6969916666858,"noteNumber":40,"velocity":57,"programNumber":30},{"time":307231.36816666846,"duration":901.515241666697,"noteNumber":45,"velocity":60,"programNumber":30},{"time":308822.2774166685,"duration":219.6969916666858,"noteNumber":42,"velocity":54,"programNumber":30},{"time":308140.4591666685,"duration":901.515241666697,"noteNumber":40,"velocity":56,"programNumber":30},{"time":310640.4594166685,"duration":219.6969916666858,"noteNumber":50,"velocity":46,"programNumber":30},{"time":309049.5501666685,"duration":1810.6062416667119,"noteNumber":42,"velocity":53,"programNumber":30},{"time":311549.5504166685,"duration":219.6969916666858,"noteNumber":52,"velocity":42,"programNumber":30},{"time":310867.7321666685,"duration":901.515241666697,"noteNumber":50,"velocity":45,"programNumber":30},{"time":311776.82316666853,"duration":901.5152416666388,"noteNumber":52,"velocity":41,"programNumber":30}]]}