{"tracks":[[{"time":9173.684974999998,"duration":121.05264166666711,"noteNumber":54,"velocity":83,"programNumber":68},{"time":9489.474474999999,"duration":184.21054166666545,"noteNumber":54,"velocity":85,"programNumber":68},{"time":9642.106066666665,"duration":400.0000333333319,"noteNumber":57,"velocity":103,"programNumber":68},{"time":10115.790316666664,"duration":184.21054166666545,"noteNumber":57,"velocity":101,"programNumber":68},{"time":10273.685066666663,"duration":578.947416666666,"noteNumber":59,"velocity":78,"programNumber":68},{"time":12010.527316666663,"duration":321.05265833333397,"noteNumber":54,"velocity":83,"programNumber":68},{"time":12331.579974999997,"duration":163.15790833333267,"noteNumber":57,"velocity":93,"programNumber":68},{"time":12642.106316666663,"duration":168.42106666666587,"noteNumber":57,"velocity":90,"programNumber":68},{"time":12800.001066666662,"duration":489.47372499999983,"noteNumber":59,"velocity":93,"programNumber":68},{"time":14536.843316666662,"duration":305.26318333333256,"noteNumber":54,"velocity":75,"programNumber":68},{"time":14847.369658333328,"duration":136.8421166666667,"noteNumber":57,"velocity":103,"programNumber":68},{"time":15173.685474999995,"duration":157.89474999999948,"noteNumber":57,"velocity":91,"programNumber":68},{"time":15326.317066666661,"duration":1031.5790333333334,"noteNumber":59,"velocity":90,"programNumber":68},{"time":16436.843474999994,"duration":663.1579500000007,"noteNumber":61,"velocity":88,"programNumber":68},{"time":17063.15931666666,"duration":115.78948333333392,"noteNumber":57,"velocity":92,"programNumber":68},{"time":17378.94881666666,"duration":326.31581666666534,"noteNumber":57,"velocity":94,"programNumber":68},{"time":17694.73831666666,"duration":952.6316583333319,"noteNumber":54,"velocity":101,"programNumber":68},{"time":19594.73847499999,"duration":321.05265833333397,"noteNumber":61,"velocity":100,"programNumber":68},{"time":19905.26481666666,"duration":221.05265000000145,"noteNumber":62,"velocity":87,"programNumber":68},{"time":20226.317474999993,"duration":142.1052750000017,"noteNumber":64,"velocity":101,"programNumber":68},{"time":20531.58065833333,"duration":168.42106666666587,"noteNumber":62,"velocity":93,"programNumber":68},{"time":20852.633316666663,"duration":168.42106666666587,"noteNumber":62,"velocity":102,"programNumber":68},{"time":21168.42281666666,"duration":515.7895166666676,"noteNumber":62,"velocity":100,"programNumber":68},{"time":21800.001816666663,"duration":294.7368666666662,"noteNumber":62,"velocity":117,"programNumber":68},{"time":22115.791316666662,"duration":326.31581666666534,"noteNumber":61,"velocity":100,"programNumber":68},{"time":22431.58081666666,"duration":342.10529166666674,"noteNumber":62,"velocity":92,"programNumber":68},{"time":22763.15979166666,"duration":578.947416666666,"noteNumber":64,"velocity":104,"programNumber":68},{"time":23378.94931666666,"duration":147.3684333333331,"noteNumber":62,"velocity":94,"programNumber":68},{"time":23700.001974999996,"duration":621.0526833333315,"noteNumber":62,"velocity":122,"programNumber":68},{"time":24642.10731666666,"duration":305.26318333333256,"noteNumber":61,"velocity":113,"programNumber":68},{"time":24957.89681666666,"duration":315.78949999999895,"noteNumber":62,"velocity":104,"programNumber":68},{"time":25278.949474999994,"duration":210.52633333333506,"noteNumber":64,"velocity":104,"programNumber":68},{"time":26221.054816666663,"duration":300.0000250000012,"noteNumber":62,"velocity":91,"programNumber":68},{"time":26531.58115833333,"duration":663.1579500000007,"noteNumber":59,"velocity":92,"programNumber":68},{"time":27163.160158333332,"duration":315.78949999999895,"noteNumber":55,"velocity":93,"programNumber":68},{"time":27478.94965833333,"duration":1642.1054000000004,"noteNumber":52,"velocity":86,"programNumber":68},{"time":29694.739316666666,"duration":221.05265000000145,"noteNumber":59,"velocity":118,"programNumber":68},{"time":30015.791975,"duration":189.47369999999864,"noteNumber":59,"velocity":103,"programNumber":68},{"time":30342.107791666665,"duration":289.4737083333348,"noteNumber":59,"velocity":99,"programNumber":68},{"time":30636.844658333335,"duration":305.26318333333256,"noteNumber":57,"velocity":94,"programNumber":68},{"time":31273.686816666668,"duration":931.5790249999991,"noteNumber":57,"velocity":103,"programNumber":68},{"time":32221.05531666667,"duration":700.0000583333349,"noteNumber":57,"velocity":99,"programNumber":68},{"time":33189.47645,"duration":315.78949999999895,"noteNumber":59,"velocity":111,"programNumber":68},{"time":33484.21331666667,"duration":342.10529166666674,"noteNumber":61,"velocity":100,"programNumber":68},{"time":33805.265975,"duration":305.2631833333362,"noteNumber":59,"velocity":99,"programNumber":68},{"time":34121.05547500001,"duration":1831.5791000000027,"noteNumber":57,"velocity":100,"programNumber":68},{"time":36326.31881666668,"duration":157.89474999999948,"noteNumber":57,"velocity":101,"programNumber":68},{"time":36642.10831666668,"duration":610.5263666666651,"noteNumber":59,"velocity":102,"programNumber":68},{"time":37273.68731666668,"duration":589.4737333333323,"noteNumber":61,"velocity":103,"programNumber":68},{"time":37905.266316666675,"duration":305.2631833333362,"noteNumber":62,"velocity":104,"programNumber":68},{"time":38215.79265833335,"duration":331.578975000004,"noteNumber":57,"velocity":103,"programNumber":68},{"time":38542.108475000015,"duration":368.42108333333454,"noteNumber":59,"velocity":99,"programNumber":68},{"time":38857.897975000014,"duration":305.2631833333362,"noteNumber":54,"velocity":99,"programNumber":68},{"time":39173.68747500002,"duration":957.8948166666669,"noteNumber":57,"velocity":103,"programNumber":68},{"time":40431.58231666669,"duration":384.2105583333323,"noteNumber":57,"velocity":112,"programNumber":68},{"time":40752.63497500002,"duration":647.3684749999957,"noteNumber":66,"velocity":99,"programNumber":68},{"time":41384.21397500002,"duration":1273.6843166666658,"noteNumber":61,"velocity":104,"programNumber":68},{"time":42963.16147500002,"duration":289.47370833333116,"noteNumber":62,"velocity":122,"programNumber":68},{"time":43273.68781666669,"duration":326.315816666669,"noteNumber":57,"velocity":90,"programNumber":68},{"time":43589.477316666686,"duration":357.8947666666645,"noteNumber":59,"velocity":95,"programNumber":68},{"time":43910.52997500002,"duration":347.36845000000176,"noteNumber":54,"velocity":100,"programNumber":68},{"time":44226.31947500002,"duration":1010.5264000000025,"noteNumber":57,"velocity":102,"programNumber":68},{"time":45484.21431666669,"duration":305.2631833333362,"noteNumber":57,"velocity":103,"programNumber":68},{"time":45800.00381666669,"duration":563.1579416666646,"noteNumber":66,"velocity":113,"programNumber":68},{"time":46431.58281666669,"duration":1247.368524999998,"noteNumber":61,"velocity":95,"programNumber":68},{"time":47700.00397500002,"duration":289.47370833333116,"noteNumber":57,"velocity":94,"programNumber":68},{"time":48015.79347500002,"duration":1315.7895833333314,"noteNumber":55,"velocity":109,"programNumber":68},{"time":49921.056791666684,"duration":294.7368666666662,"noteNumber":54,"velocity":101,"programNumber":68},{"time":50215.79365833335,"duration":321.05265833333397,"noteNumber":55,"velocity":91,"programNumber":68},{"time":50536.846316666684,"duration":1384.2106416666647,"noteNumber":54,"velocity":93,"programNumber":68},{"time":52431.583316666685,"duration":121.05264166666893,"noteNumber":52,"velocity":118,"programNumber":68},{"time":52747.372816666684,"duration":157.89474999999948,"noteNumber":52,"velocity":104,"programNumber":68},{"time":53063.16231666668,"duration":278.9473916666684,"noteNumber":52,"velocity":103,"programNumber":68},{"time":53378.95181666668,"duration":1605.2632916666698,"noteNumber":50,"velocity":100,"programNumber":68},{"time":55273.68881666668,"duration":136.8421166666667,"noteNumber":49,"velocity":87,"programNumber":68},{"time":55431.58356666668,"duration":226.31580833333282,"noteNumber":50,"velocity":85,"programNumber":68},{"time":55605.26779166668,"duration":763.1579583333369,"noteNumber":49,"velocity":103,"programNumber":68},{"time":56542.109975000014,"duration":321.05265833333397,"noteNumber":49,"velocity":102,"programNumber":68},{"time":56857.89947500001,"duration":636.8421583333402,"noteNumber":50,"velocity":90,"programNumber":68},{"time":57489.47847500002,"duration":431.57898333333287,"noteNumber":52,"velocity":104,"programNumber":68},{"time":58115.79431666668,"duration":315.78949999999895,"noteNumber":52,"velocity":104,"programNumber":68},{"time":58426.320658333345,"duration":1531.5790750000015,"noteNumber":50,"velocity":87,"programNumber":68},{"time":60647.373475000015,"duration":352.6316083333295,"noteNumber":52,"velocity":119,"programNumber":68},{"time":60957.89981666668,"duration":1584.2106583333298,"noteNumber":50,"velocity":104,"programNumber":68},{"time":63173.68947500001,"duration":331.5789749999967,"noteNumber":52,"velocity":102,"programNumber":68},{"time":63484.21581666667,"duration":1742.1054083333365,"noteNumber":50,"velocity":100,"programNumber":68},{"time":65700.00547500001,"duration":847.368491666668,"noteNumber":54,"velocity":104,"programNumber":68},{"time":66657.90029166668,"duration":142.10527499999444,"noteNumber":55,"velocity":84,"programNumber":68},{"time":66805.268725,"duration":200.0000166666723,"noteNumber":54,"velocity":110,"programNumber":68},{"time":66963.16347500001,"duration":300.0000250000012,"noteNumber":52,"velocity":103,"programNumber":68},{"time":67273.68981666668,"duration":131.57895833333896,"noteNumber":50,"velocity":109,"programNumber":68},{"time":67594.74247500002,"duration":147.36843333333672,"noteNumber":50,"velocity":101,"programNumber":68},{"time":67910.53197500002,"duration":247.3684416666656,"noteNumber":50,"velocity":101,"programNumber":68},{"time":68226.32147500002,"duration":2121.052808333334,"noteNumber":57,"velocity":101,"programNumber":68},{"time":70436.84797500003,"duration":168.42106666666223,"noteNumber":50,"velocity":92,"programNumber":68},{"time":70752.63747500003,"duration":1510.5264416666614,"noteNumber":50,"velocity":84,"programNumber":68},{"time":72642.11131666669,"duration":294.73686666667345,"noteNumber":49,"velocity":93,"programNumber":68},{"time":72952.63765833336,"duration":168.42106666666223,"noteNumber":50,"velocity":92,"programNumber":68},{"time":73289.47979166669,"duration":1710.5264583333337,"noteNumber":57,"velocity":104,"programNumber":68},{"time":75173.69047500002,"duration":194.73685833333002,"noteNumber":50,"velocity":102,"programNumber":68},{"time":75484.21681666668,"duration":200.0000166666723,"noteNumber":50,"velocity":99,"programNumber":68},{"time":75800.00631666668,"duration":1247.368524999998,"noteNumber":49,"velocity":103,"programNumber":68},{"time":77378.95381666668,"duration":210.52633333332778,"noteNumber":49,"velocity":101,"programNumber":68},{"time":77700.006475,"duration":194.73685833333002,"noteNumber":50,"velocity":111,"programNumber":68},{"time":78010.53281666666,"duration":189.47370000000228,"noteNumber":52,"velocity":102,"programNumber":68},{"time":78331.585475,"duration":268.42107500000566,"noteNumber":52,"velocity":112,"programNumber":68},{"time":78647.374975,"duration":1594.7369749999925,"noteNumber":50,"velocity":94,"programNumber":68},{"time":82431.58581666666,"duration":131.57895833333896,"noteNumber":54,"velocity":63,"programNumber":68},{"time":82747.37531666666,"duration":184.21054166666,"noteNumber":54,"velocity":84,"programNumber":68},{"time":83063.16481666666,"duration":131.57895833333896,"noteNumber":57,"velocity":99,"programNumber":68},{"time":83378.95431666666,"duration":173.68422500000452,"noteNumber":57,"velocity":86,"programNumber":68},{"time":83536.84906666666,"duration":1136.8421999999991,"noteNumber":59,"velocity":85,"programNumber":68},{"time":84957.90181666666,"duration":300.0000250000012,"noteNumber":50,"velocity":90,"programNumber":68},{"time":85273.69131666666,"duration":289.47370833333116,"noteNumber":54,"velocity":79,"programNumber":68},{"time":85594.74397499999,"duration":168.42106666666223,"noteNumber":57,"velocity":79,"programNumber":68},{"time":85905.27031666665,"duration":189.47370000000228,"noteNumber":57,"velocity":87,"programNumber":68},{"time":86063.16506666665,"duration":1321.0527416666591,"noteNumber":59,"velocity":95,"programNumber":68},{"time":87800.00731666664,"duration":326.315816666669,"noteNumber":54,"velocity":90,"programNumber":68},{"time":88115.79681666664,"duration":342.1052916666813,"noteNumber":57,"velocity":90,"programNumber":68},{"time":88436.84947499998,"duration":1273.6843166666804,"noteNumber":59,"velocity":91,"programNumber":68},{"time":89700.00747499999,"duration":926.3158666666714,"noteNumber":61,"velocity":103,"programNumber":68},{"time":90636.84965833333,"duration":131.57895833333896,"noteNumber":57,"velocity":92,"programNumber":68},{"time":90963.165475,"duration":352.63160833333677,"noteNumber":57,"velocity":103,"programNumber":68},{"time":91273.69181666667,"duration":978.9474499999924,"noteNumber":54,"velocity":100,"programNumber":68},{"time":92536.84981666667,"duration":300.0000250000012,"noteNumber":62,"velocity":111,"programNumber":68},{"time":92857.90247500001,"duration":321.05265833334124,"noteNumber":61,"velocity":112,"programNumber":68},{"time":93168.42881666668,"duration":342.10529166666674,"noteNumber":62,"velocity":99,"programNumber":68},{"time":93484.21831666668,"duration":342.1052916666813,"noteNumber":64,"velocity":109,"programNumber":68},{"time":93805.27097500002,"duration":410.5263500000001,"noteNumber":62,"velocity":109,"programNumber":68},{"time":94436.84997500002,"duration":821.0527000000002,"noteNumber":62,"velocity":127,"programNumber":68},{"time":95378.95531666669,"duration":294.73686666667345,"noteNumber":61,"velocity":109,"programNumber":68},{"time":95700.00797500003,"duration":294.73686666667345,"noteNumber":62,"velocity":99,"programNumber":68},{"time":96010.5343166667,"duration":589.4737333333323,"noteNumber":64,"velocity":113,"programNumber":68},{"time":96657.9027916667,"duration":136.8421166666667,"noteNumber":62,"velocity":101,"programNumber":68},{"time":96963.16597500003,"duration":878.9474416666635,"noteNumber":62,"velocity":120,"programNumber":68},{"time":98221.0608166667,"duration":115.78948333332664,"noteNumber":62,"velocity":92,"programNumber":68},{"time":98536.85031666669,"duration":115.78948333332664,"noteNumber":62,"velocity":101,"programNumber":68},{"time":98542.11347500002,"duration":873.6842833333358,"noteNumber":64,"velocity":111,"programNumber":68},{"time":99484.21881666669,"duration":136.8421166666667,"noteNumber":62,"velocity":100,"programNumber":68},{"time":99800.00831666669,"duration":452.63161666666565,"noteNumber":62,"velocity":101,"programNumber":68},{"time":100273.6925666667,"duration":426.31582499999786,"noteNumber":59,"velocity":95,"programNumber":68},{"time":100747.37681666669,"duration":357.8947666666645,"noteNumber":62,"velocity":108,"programNumber":68},{"time":101063.16631666668,"duration":1010.5264000000025,"noteNumber":66,"velocity":100,"programNumber":68},{"time":102010.53481666668,"duration":173.68422500001907,"noteNumber":67,"velocity":93,"programNumber":68},{"time":102163.16640833336,"duration":194.73685833333002,"noteNumber":66,"velocity":108,"programNumber":68},{"time":102326.3243166667,"duration":578.9474166666623,"noteNumber":64,"velocity":99,"programNumber":68},{"time":102963.16647500002,"duration":136.8421166666667,"noteNumber":62,"velocity":100,"programNumber":68},{"time":103268.42965833335,"duration":357.89476666667906,"noteNumber":62,"velocity":104,"programNumber":68},{"time":103605.27179166669,"duration":1773.6843583333393,"noteNumber":69,"velocity":108,"programNumber":68},{"time":105484.2193166667,"duration":242.10528333333787,"noteNumber":62,"velocity":92,"programNumber":68},{"time":105957.9035666667,"duration":1426.3159083333303,"noteNumber":62,"velocity":90,"programNumber":68},{"time":108010.5353166667,"duration":263.15791666666337,"noteNumber":61,"velocity":91,"programNumber":68},{"time":108326.3248166667,"duration":373.6842416666623,"noteNumber":62,"velocity":95,"programNumber":68},{"time":108657.9037916667,"duration":1668.4211916666682,"noteNumber":69,"velocity":111,"programNumber":68},{"time":110542.11447500004,"duration":515.7895166666713,"noteNumber":61,"velocity":86,"programNumber":68},{"time":111173.69347500004,"duration":1236.842208333328,"noteNumber":61,"velocity":102,"programNumber":68},{"time":113700.00947500003,"duration":326.315816666669,"noteNumber":74,"velocity":110,"programNumber":68},{"time":114010.5358166667,"duration":305.2631833333289,"noteNumber":69,"velocity":83,"programNumber":68},{"time":114331.58847500003,"duration":347.3684499999945,"noteNumber":71,"velocity":85,"programNumber":68},{"time":114647.37797500002,"duration":342.1052916666522,"noteNumber":66,"velocity":92,"programNumber":68},{"time":114957.90431666668,"duration":931.5790249999991,"noteNumber":69,"velocity":93,"programNumber":68},{"time":116221.06231666668,"duration":378.94740000000456,"noteNumber":61,"velocity":104,"programNumber":68},{"time":116536.85181666668,"duration":563.1579416666791,"noteNumber":66,"velocity":85,"programNumber":68},{"time":117173.69397500002,"duration":1121.0527250000014,"noteNumber":61,"velocity":104,"programNumber":68},{"time":118747.37831666668,"duration":315.78949999999895,"noteNumber":74,"velocity":102,"programNumber":68},{"time":119063.16781666668,"duration":315.78949999999895,"noteNumber":69,"velocity":92,"programNumber":68},{"time":119373.69415833335,"duration":357.8947666666645,"noteNumber":71,"velocity":101,"programNumber":68},{"time":119710.53629166668,"duration":278.9473916666757,"noteNumber":66,"velocity":103,"programNumber":68},{"time":120010.5363166667,"duration":1000.0000833333324,"noteNumber":69,"velocity":86,"programNumber":68},{"time":121289.48379166669,"duration":347.3684499999945,"noteNumber":61,"velocity":113,"programNumber":68},{"time":121589.48381666669,"duration":563.1579416666646,"noteNumber":66,"velocity":102,"programNumber":68},{"time":122221.06281666669,"duration":1068.4211416666658,"noteNumber":61,"velocity":104,"programNumber":68},{"time":123800.01031666668,"duration":1684.210666666666,"noteNumber":62,"velocity":91,"programNumber":68},{"time":125700.01047500002,"duration":400.0000333333446,"noteNumber":62,"velocity":101,"programNumber":68},{"time":126010.53681666669,"duration":605.2632083333447,"noteNumber":66,"velocity":94,"programNumber":68},{"time":126647.37897500003,"duration":1210.5264166666602,"noteNumber":61,"velocity":95,"programNumber":68},{"time":128542.11597500002,"duration":163.1579083333345,"noteNumber":59,"velocity":104,"programNumber":68},{"time":128852.6423166667,"duration":1410.5264333333325,"noteNumber":62,"velocity":109,"programNumber":68},{"time":130426.32665833336,"duration":484.2105666666612,"noteNumber":62,"velocity":92,"programNumber":68},{"time":130905.2740666667,"duration":252.63159999999334,"noteNumber":61,"velocity":90,"programNumber":68},{"time":131221.06356666668,"duration":221.0526499999978,"noteNumber":62,"velocity":91,"programNumber":68},{"time":131378.95831666669,"duration":1352.6316916666692,"noteNumber":61,"velocity":108,"programNumber":68},{"time":132957.9058166667,"duration":268.4210749999911,"noteNumber":61,"velocity":113,"programNumber":68},{"time":133273.69531666668,"duration":194.73685833334457,"noteNumber":62,"velocity":103,"programNumber":68},{"time":133589.4848166667,"duration":194.73685833334457,"noteNumber":64,"velocity":122,"programNumber":68},{"time":133905.2743166667,"duration":300.00002499998664,"noteNumber":64,"velocity":120,"programNumber":68},{"time":134226.32697500003,"duration":3826.3161083333544,"noteNumber":62,"velocity":88,"programNumber":68},{"time":138010.5378166667,"duration":121.05264166666893,"noteNumber":54,"velocity":63,"programNumber":68},{"time":138331.59047500003,"duration":189.47370000000228,"noteNumber":54,"velocity":83,"programNumber":68},{"time":138642.1168166667,"duration":121.05264166666893,"noteNumber":57,"velocity":100,"programNumber":68},{"time":138963.16947500003,"duration":168.42106666666223,"noteNumber":57,"velocity":87,"programNumber":68},{"time":139115.8010666667,"duration":1131.5790416666714,"noteNumber":59,"velocity":82,"programNumber":68},{"time":140552.6432916667,"duration":289.47370833333116,"noteNumber":50,"velocity":95,"programNumber":68},{"time":140857.90647500003,"duration":278.9473916666757,"noteNumber":54,"velocity":82,"programNumber":68},{"time":141173.69597500004,"duration":168.42106666666223,"noteNumber":57,"velocity":78,"programNumber":68},{"time":141484.2223166667,"duration":173.68422500000452,"noteNumber":57,"velocity":87,"programNumber":68},{"time":141636.85390833337,"duration":1342.1053750000137,"noteNumber":59,"velocity":90,"programNumber":68},{"time":143378.95931666673,"duration":321.0526583333558,"noteNumber":54,"velocity":94,"programNumber":68},{"time":143694.74881666675,"duration":342.10529166666674,"noteNumber":57,"velocity":91,"programNumber":68},{"time":144010.53831666676,"duration":1278.9474749999936,"noteNumber":59,"velocity":92,"programNumber":68},{"time":145273.69631666676,"duration":931.5790249999845,"noteNumber":61,"velocity":102,"programNumber":68},{"time":146226.32797500008,"duration":142.105275000009,"noteNumber":57,"velocity":89,"programNumber":68},{"time":146552.64379166675,"duration":342.10529166666674,"noteNumber":57,"velocity":102,"programNumber":68},{"time":146857.90697500008,"duration":973.6842916666646,"noteNumber":54,"velocity":103,"programNumber":68},{"time":148115.80181666673,"duration":315.7895000000135,"noteNumber":62,"velocity":110,"programNumber":68},{"time":148431.59131666675,"duration":326.315816666669,"noteNumber":61,"velocity":108,"programNumber":68},{"time":148747.38081666676,"duration":331.57897499998217,"noteNumber":62,"velocity":104,"programNumber":68},{"time":149063.17031666674,"duration":357.8947666666645,"noteNumber":64,"velocity":112,"programNumber":68},{"time":149378.95981666673,"duration":426.31582500002696,"noteNumber":62,"velocity":111,"programNumber":68},{"time":150026.32829166675,"duration":815.7895416666579,"noteNumber":62,"velocity":127,"programNumber":68},{"time":150957.90731666674,"duration":294.73686666667345,"noteNumber":61,"velocity":111,"programNumber":68},{"time":151278.95997500006,"duration":289.47370833333116,"noteNumber":62,"velocity":101,"programNumber":68},{"time":151589.48631666673,"duration":589.4737333333469,"noteNumber":64,"velocity":109,"programNumber":68},{"time":152221.06531666676,"duration":136.8421166666667,"noteNumber":62,"velocity":100,"programNumber":68},{"time":152536.85481666678,"duration":884.2105999999912,"noteNumber":62,"velocity":120,"programNumber":68},{"time":153805.2759750001,"duration":110.52632500001346,"noteNumber":62,"velocity":93,"programNumber":68},{"time":154115.80231666678,"duration":89.4736916666734,"noteNumber":62,"velocity":104,"programNumber":68},{"time":154121.06547500013,"duration":873.6842833333358,"noteNumber":64,"velocity":113,"programNumber":68},{"time":155063.1708166668,"duration":142.105275000009,"noteNumber":62,"velocity":101,"programNumber":68},{"time":155378.9603166668,"duration":452.6316166666802,"noteNumber":62,"velocity":100,"programNumber":68},{"time":155847.3814083335,"duration":431.57898333334015,"noteNumber":59,"velocity":95,"programNumber":68},{"time":156321.0656583335,"duration":373.6842416666623,"noteNumber":62,"velocity":112,"programNumber":68},{"time":156642.11831666683,"duration":1005.2632416666893,"noteNumber":66,"velocity":99,"programNumber":68},{"time":157589.48681666685,"duration":194.73685833334457,"noteNumber":67,"velocity":95,"programNumber":68},{"time":157747.38156666685,"duration":200.00001666668686,"noteNumber":66,"velocity":108,"programNumber":68},{"time":157905.27631666686,"duration":584.2105750000046,"noteNumber":64,"velocity":104,"programNumber":68},{"time":158542.1184750002,"duration":142.105275000009,"noteNumber":62,"velocity":104,"programNumber":68},{"time":158852.64481666687,"duration":347.36844999997993,"noteNumber":62,"velocity":103,"programNumber":68},{"time":159173.6974750002,"duration":1778.947516666667,"noteNumber":69,"velocity":111,"programNumber":68},{"time":161063.17131666688,"duration":236.84212499999558,"noteNumber":62,"velocity":92,"programNumber":68},{"time":161536.85556666687,"duration":1426.3159083333449,"noteNumber":62,"velocity":95,"programNumber":68},{"time":163589.48731666687,"duration":273.6842333333334,"noteNumber":61,"velocity":92,"programNumber":68},{"time":163910.5399750002,"duration":378.94740000000456,"noteNumber":62,"velocity":95,"programNumber":68},{"time":164226.3294750002,"duration":1684.2106666666514,"noteNumber":69,"velocity":111,"programNumber":68},{"time":166115.80331666686,"duration":515.7895166666713,"noteNumber":61,"velocity":90,"programNumber":68},{"time":166747.38231666686,"duration":1247.368524999998,"noteNumber":61,"velocity":104,"programNumber":68},{"time":169273.69831666685,"duration":326.315816666669,"noteNumber":74,"velocity":111,"programNumber":68},{"time":169589.48781666686,"duration":300.00002499998664,"noteNumber":69,"velocity":83,"programNumber":68},{"time":169900.0141583335,"duration":347.36844999997993,"noteNumber":71,"velocity":82,"programNumber":68},{"time":170221.06681666683,"duration":347.36844999997993,"noteNumber":66,"velocity":94,"programNumber":68},{"time":170542.11947500016,"duration":936.8421833333268,"noteNumber":69,"velocity":91,"programNumber":68},{"time":171800.0143166668,"duration":373.6842416666623,"noteNumber":61,"velocity":102,"programNumber":68},{"time":172121.06697500014,"duration":563.1579416666646,"noteNumber":66,"velocity":85,"programNumber":68},{"time":172747.3828166668,"duration":1136.8422000000137,"noteNumber":61,"velocity":100,"programNumber":68},{"time":174326.3303166668,"duration":315.7895000000135,"noteNumber":74,"velocity":99,"programNumber":68},{"time":174642.11981666682,"duration":315.7895000000135,"noteNumber":69,"velocity":93,"programNumber":68},{"time":174952.6461583335,"duration":357.8947666666936,"noteNumber":71,"velocity":100,"programNumber":68},{"time":175273.69881666685,"duration":315.7895000000135,"noteNumber":66,"velocity":104,"programNumber":68},{"time":175594.7514750002,"duration":10.526316666655475,"noteNumber":70,"velocity":45,"programNumber":68},{"time":175594.7514750002,"duration":1000.0000833333179,"noteNumber":69,"velocity":90,"programNumber":68},{"time":176857.9094750002,"duration":342.10529166666674,"noteNumber":61,"velocity":110,"programNumber":68},{"time":177168.43581666687,"duration":563.1579416666646,"noteNumber":66,"velocity":102,"programNumber":68},{"time":177800.01481666687,"duration":1068.4211416666803,"noteNumber":61,"velocity":102,"programNumber":68},{"time":179384.22547500022,"duration":1673.684349999996,"noteNumber":62,"velocity":92,"programNumber":68},{"time":181273.69931666687,"duration":405.2631916666869,"noteNumber":62,"velocity":99,"programNumber":68},{"time":181589.48881666688,"duration":589.4737333333469,"noteNumber":66,"velocity":91,"programNumber":68},{"time":182215.80465833357,"duration":1226.315891666658,"noteNumber":61,"velocity":90,"programNumber":68},{"time":184110.54165833356,"duration":157.89475000000675,"noteNumber":59,"velocity":102,"programNumber":68},{"time":184436.85747500023,"duration":1394.7369583333202,"noteNumber":62,"velocity":113,"programNumber":68},{"time":186005.27865833355,"duration":489.473725000018,"noteNumber":62,"velocity":94,"programNumber":68},{"time":186489.48922500023,"duration":242.10528333333787,"noteNumber":61,"velocity":94,"programNumber":68},{"time":186800.0155666669,"duration":226.3158083333401,"noteNumber":62,"velocity":93,"programNumber":68},{"time":186957.9103166669,"duration":1347.368533333327,"noteNumber":61,"velocity":111,"programNumber":68},{"time":188852.6473166669,"duration":215.78949166665552,"noteNumber":62,"velocity":104,"programNumber":68},{"time":189163.17365833354,"duration":210.52633333334234,"noteNumber":64,"velocity":118,"programNumber":68},{"time":189500.0157916669,"duration":289.47370833333116,"noteNumber":64,"velocity":117,"programNumber":68},{"time":189800.01581666688,"duration":1957.8949000000139,"noteNumber":62,"velocity":89,"programNumber":68},{"time":192010.5423166669,"duration":373.6842416666623,"noteNumber":64,"velocity":120,"programNumber":68},{"time":192484.22656666688,"duration":1610.5264500000048,"noteNumber":62,"velocity":93,"programNumber":68},{"time":194542.12147500023,"duration":352.6316083333513,"noteNumber":64,"velocity":127,"programNumber":68},{"time":194852.6478166669,"duration":1536.8422333333583,"noteNumber":62,"velocity":86,"programNumber":68},{"time":197063.17431666693,"duration":926.3158666666714,"noteNumber":66,"velocity":100,"programNumber":68},{"time":198026.33229166694,"duration":184.2105416666891,"noteNumber":67,"velocity":112,"programNumber":68},{"time":198168.43756666695,"duration":189.47370000000228,"noteNumber":66,"velocity":112,"programNumber":68},{"time":198331.5954750003,"duration":557.8947833333223,"noteNumber":64,"velocity":111,"programNumber":68},{"time":198957.91131666696,"duration":684.2105833333335,"noteNumber":62,"velocity":110,"programNumber":68},{"time":199589.49031666695,"duration":2484.2107333333406,"noteNumber":66,"velocity":112,"programNumber":68},{"time":202121.0694750003,"duration":2531.579158333334,"noteNumber":62,"velocity":119,"programNumber":68},{"time":204647.38547500028,"duration":2473.684416666685,"noteNumber":69,"velocity":121,"programNumber":68},{"time":207173.7014750003,"duration":2563.1581083333585,"noteNumber":62,"velocity":119,"programNumber":68},{"time":209694.75431666698,"duration":1657.8948750000272,"noteNumber":67,"velocity":110,"programNumber":68},{"time":211431.596566667,"duration":557.8947833333223,"noteNumber":66,"velocity":121,"programNumber":68},{"time":211905.280816667,"duration":352.6316083333513,"noteNumber":67,"velocity":109,"programNumber":68},{"time":212236.859791667,"duration":1747.3685666666715,"noteNumber":69,"velocity":110,"programNumber":68},{"time":214110.54415833368,"duration":252.63159999999334,"noteNumber":69,"velocity":122,"programNumber":68},{"time":214431.596816667,"duration":368.4210833333491,"noteNumber":68,"velocity":69,"programNumber":68},{"time":214747.38631666702,"duration":5089.474108333321,"noteNumber":69,"velocity":117,"programNumber":68}]]}