{"tracks":[[{"time":0,"duration":319.44436458333337,"noteNumber":62,"velocity":110,"programNumber":25},{"time":333.33325,"duration":319.44436458333337,"noteNumber":62,"velocity":110,"programNumber":25},{"time":666.6665,"duration":319.44436458333337,"noteNumber":57,"velocity":110,"programNumber":25},{"time":999.9997500000001,"duration":319.44436458333337,"noteNumber":57,"velocity":110,"programNumber":25},{"time":1333.333,"duration":319.4443645833335,"noteNumber":62,"velocity":110,"programNumber":25},{"time":1666.6662500000002,"duration":319.4443645833335,"noteNumber":62,"velocity":110,"programNumber":25},{"time":1999.9995000000004,"duration":319.4443645833335,"noteNumber":64,"velocity":110,"programNumber":25},{"time":2333.3327500000005,"duration":319.4443645833335,"noteNumber":64,"velocity":110,"programNumber":25},{"time":2666.6660000000006,"duration":319.4443645833335,"noteNumber":65,"velocity":110,"programNumber":25},{"time":2999.9992500000008,"duration":319.4443645833335,"noteNumber":65,"velocity":110,"programNumber":25},{"time":3333.332500000001,"duration":319.4443645833335,"noteNumber":64,"velocity":110,"programNumber":25},{"time":3666.665750000001,"duration":319.4443645833335,"noteNumber":64,"velocity":110,"programNumber":25},{"time":3999.999000000001,"duration":319.444364583333,"noteNumber":62,"velocity":110,"programNumber":25},{"time":4333.332250000001,"duration":319.4443645833335,"noteNumber":62,"velocity":110,"programNumber":25},{"time":4666.665500000002,"duration":319.4443645833335,"noteNumber":64,"velocity":110,"programNumber":25},{"time":4999.9987500000025,"duration":319.4443645833335,"noteNumber":57,"velocity":110,"programNumber":25},{"time":5333.332000000003,"duration":319.4443645833335,"noteNumber":60,"velocity":110,"programNumber":25},{"time":5666.665250000004,"duration":319.4443645833335,"noteNumber":60,"velocity":110,"programNumber":25},{"time":5999.998500000004,"duration":319.4443645833335,"noteNumber":55,"velocity":110,"programNumber":25},{"time":6333.331750000005,"duration":319.4443645833335,"noteNumber":55,"velocity":110,"programNumber":25},{"time":6666.665000000005,"duration":319.4443645833335,"noteNumber":60,"velocity":110,"programNumber":25},{"time":6999.998250000006,"duration":319.4443645833335,"noteNumber":60,"velocity":110,"programNumber":25},{"time":7333.331500000007,"duration":319.4443645833335,"noteNumber":62,"velocity":110,"programNumber":25},{"time":7666.664750000007,"duration":319.4443645833335,"noteNumber":62,"velocity":110,"programNumber":25},{"time":7999.998000000008,"duration":319.4443645833335,"noteNumber":64,"velocity":110,"programNumber":25},{"time":8333.331250000008,"duration":319.4443645833326,"noteNumber":64,"velocity":110,"programNumber":25},{"time":8666.664500000008,"duration":319.4443645833326,"noteNumber":62,"velocity":110,"programNumber":25},{"time":8999.997750000008,"duration":319.4443645833326,"noteNumber":62,"velocity":110,"programNumber":25},{"time":9333.331000000007,"duration":319.4443645833326,"noteNumber":60,"velocity":110,"programNumber":25},{"time":9666.664250000007,"duration":319.4443645833326,"noteNumber":60,"velocity":110,"programNumber":25},{"time":9999.997500000007,"duration":319.4443645833326,"noteNumber":64,"velocity":110,"programNumber":25},{"time":10333.330750000006,"duration":319.4443645833326,"noteNumber":60,"velocity":110,"programNumber":25},{"time":10666.664000000006,"duration":319.4443645833326,"noteNumber":62,"velocity":110,"programNumber":25},{"time":10999.997250000006,"duration":319.4443645833326,"noteNumber":62,"velocity":110,"programNumber":25},{"time":11333.330500000005,"duration":319.4443645833326,"noteNumber":57,"velocity":110,"programNumber":25},{"time":11666.663750000005,"duration":319.4443645833326,"noteNumber":57,"velocity":110,"programNumber":25},{"time":11999.997000000005,"duration":319.4443645833326,"noteNumber":62,"velocity":110,"programNumber":25},{"time":12333.330250000005,"duration":319.4443645833326,"noteNumber":62,"velocity":110,"programNumber":25},{"time":12666.663500000004,"duration":319.4443645833326,"noteNumber":64,"velocity":110,"programNumber":25},{"time":12999.996750000004,"duration":319.4443645833326,"noteNumber":64,"velocity":110,"programNumber":25},{"time":13333.330000000004,"duration":319.4443645833326,"noteNumber":65,"velocity":110,"programNumber":25},{"time":13666.663250000003,"duration":319.4443645833326,"noteNumber":65,"velocity":110,"programNumber":25},{"time":13999.996500000003,"duration":319.4443645833326,"noteNumber":64,"velocity":110,"programNumber":25},{"time":14333.329750000003,"duration":319.4443645833326,"noteNumber":64,"velocity":110,"programNumber":25},{"time":14666.663000000002,"duration":319.4443645833326,"noteNumber":62,"velocity":110,"programNumber":25},{"time":14999.996250000002,"duration":319.4443645833326,"noteNumber":62,"velocity":110,"programNumber":25},{"time":15333.329500000002,"duration":319.4443645833326,"noteNumber":64,"velocity":110,"programNumber":25},{"time":15666.662750000001,"duration":319.4443645833326,"noteNumber":57,"velocity":110,"programNumber":25},{"time":15999.996000000001,"duration":319.4443645833326,"noteNumber":60,"velocity":110,"programNumber":25},{"time":16333.32925,"duration":319.4443645833326,"noteNumber":60,"velocity":110,"programNumber":25},{"time":16666.6625,"duration":319.4443645833344,"noteNumber":55,"velocity":110,"programNumber":25},{"time":16999.99575,"duration":319.4443645833344,"noteNumber":55,"velocity":110,"programNumber":25},{"time":17333.328999999998,"duration":319.4443645833344,"noteNumber":60,"velocity":110,"programNumber":25},{"time":17666.662249999998,"duration":319.4443645833344,"noteNumber":60,"velocity":110,"programNumber":25},{"time":17999.995499999997,"duration":319.4443645833344,"noteNumber":62,"velocity":110,"programNumber":25},{"time":18333.328749999997,"duration":319.4443645833344,"noteNumber":62,"velocity":110,"programNumber":25},{"time":18666.661999999997,"duration":319.4443645833344,"noteNumber":64,"velocity":110,"programNumber":25},{"time":18999.995249999996,"duration":319.4443645833344,"noteNumber":64,"velocity":110,"programNumber":25},{"time":19333.328499999996,"duration":319.4443645833344,"noteNumber":62,"velocity":110,"programNumber":25},{"time":19666.661749999996,"duration":319.4443645833344,"noteNumber":62,"velocity":110,"programNumber":25},{"time":19999.994999999995,"duration":319.4443645833344,"noteNumber":60,"velocity":110,"programNumber":25},{"time":20333.328249999995,"duration":319.4443645833344,"noteNumber":60,"velocity":110,"programNumber":25},{"time":20666.661499999995,"duration":319.4443645833344,"noteNumber":64,"velocity":110,"programNumber":25},{"time":20999.994749999994,"duration":319.4443645833344,"noteNumber":60,"velocity":110,"programNumber":25},{"time":21333.327999999994,"duration":319.4443645833344,"noteNumber":57,"velocity":110,"programNumber":25},{"time":21666.661249999994,"duration":319.4443645833344,"noteNumber":57,"velocity":110,"programNumber":25},{"time":21999.994499999993,"duration":319.4443645833344,"noteNumber":52,"velocity":110,"programNumber":25},{"time":22333.327749999993,"duration":319.4443645833344,"noteNumber":52,"velocity":110,"programNumber":25},{"time":22666.660999999993,"duration":319.4443645833344,"noteNumber":57,"velocity":110,"programNumber":25},{"time":22999.994249999992,"duration":319.4443645833344,"noteNumber":57,"velocity":110,"programNumber":25},{"time":23333.327499999992,"duration":319.4443645833344,"noteNumber":59,"velocity":110,"programNumber":25},{"time":23666.660749999992,"duration":319.4443645833344,"noteNumber":59,"velocity":110,"programNumber":25},{"time":23999.99399999999,"duration":319.4443645833344,"noteNumber":60,"velocity":110,"programNumber":25},{"time":24333.32724999999,"duration":319.4443645833344,"noteNumber":60,"velocity":110,"programNumber":25},{"time":24666.66049999999,"duration":319.4443645833344,"noteNumber":59,"velocity":110,"programNumber":25},{"time":24999.99374999999,"duration":319.4443645833344,"noteNumber":59,"velocity":110,"programNumber":25},{"time":25333.32699999999,"duration":319.4443645833344,"noteNumber":57,"velocity":110,"programNumber":25},{"time":25666.66024999999,"duration":319.4443645833344,"noteNumber":57,"velocity":110,"programNumber":25},{"time":25999.99349999999,"duration":319.4443645833344,"noteNumber":59,"velocity":110,"programNumber":25},{"time":26333.32674999999,"duration":319.4443645833344,"noteNumber":57,"velocity":110,"programNumber":25},{"time":26666.65999999999,"duration":319.4443645833344,"noteNumber":55,"velocity":110,"programNumber":25},{"time":26999.99324999999,"duration":319.4443645833344,"noteNumber":55,"velocity":110,"programNumber":25},{"time":27333.32649999999,"duration":319.4443645833344,"noteNumber":50,"velocity":110,"programNumber":25},{"time":27666.659749999988,"duration":319.4443645833344,"noteNumber":50,"velocity":110,"programNumber":25},{"time":27999.992999999988,"duration":319.4443645833344,"noteNumber":55,"velocity":110,"programNumber":25},{"time":28333.326249999987,"duration":319.4443645833344,"noteNumber":55,"velocity":110,"programNumber":25},{"time":28666.659499999987,"duration":319.4443645833344,"noteNumber":57,"velocity":110,"programNumber":25},{"time":28999.992749999987,"duration":319.4443645833344,"noteNumber":57,"velocity":110,"programNumber":25},{"time":29333.325999999986,"duration":319.4443645833344,"noteNumber":59,"velocity":110,"programNumber":25},{"time":29666.659249999986,"duration":319.4443645833344,"noteNumber":59,"velocity":110,"programNumber":25},{"time":29999.992499999986,"duration":319.4443645833344,"noteNumber":57,"velocity":110,"programNumber":25},{"time":30333.325749999985,"duration":319.4443645833344,"noteNumber":57,"velocity":110,"programNumber":25},{"time":30666.658999999985,"duration":319.4443645833344,"noteNumber":55,"velocity":110,"programNumber":25},{"time":30999.992249999985,"duration":319.4443645833344,"noteNumber":55,"velocity":110,"programNumber":25},{"time":31333.325499999984,"duration":319.4443645833344,"noteNumber":59,"velocity":110,"programNumber":25},{"time":31666.658749999984,"duration":319.4443645833344,"noteNumber":55,"velocity":110,"programNumber":25},{"time":31999.991999999984,"duration":319.4443645833344,"noteNumber":57,"velocity":110,"programNumber":25},{"time":32333.325249999983,"duration":319.4443645833344,"noteNumber":57,"velocity":110,"programNumber":25},{"time":32666.658499999983,"duration":319.44436458333075,"noteNumber":52,"velocity":110,"programNumber":25},{"time":32999.99174999998,"duration":319.44436458333075,"noteNumber":52,"velocity":110,"programNumber":25},{"time":33333.324999999975,"duration":319.44436458333075,"noteNumber":57,"velocity":110,"programNumber":25},{"time":33666.65824999997,"duration":319.44436458333075,"noteNumber":57,"velocity":110,"programNumber":25},{"time":33999.99149999997,"duration":319.44436458333075,"noteNumber":59,"velocity":110,"programNumber":25},{"time":34333.32474999996,"duration":319.44436458333075,"noteNumber":59,"velocity":110,"programNumber":25},{"time":34666.65799999996,"duration":319.44436458333075,"noteNumber":60,"velocity":110,"programNumber":25},{"time":34999.991249999955,"duration":319.44436458333075,"noteNumber":60,"velocity":110,"programNumber":25},{"time":35333.32449999995,"duration":319.44436458333075,"noteNumber":59,"velocity":110,"programNumber":25},{"time":35666.65774999995,"duration":319.44436458333075,"noteNumber":59,"velocity":110,"programNumber":25},{"time":35999.99099999994,"duration":319.44436458333075,"noteNumber":57,"velocity":110,"programNumber":25},{"time":36333.32424999994,"duration":319.44436458333075,"noteNumber":57,"velocity":110,"programNumber":25},{"time":36666.657499999936,"duration":319.44436458333075,"noteNumber":59,"velocity":110,"programNumber":25},{"time":36999.99074999993,"duration":319.44436458333075,"noteNumber":57,"velocity":110,"programNumber":25},{"time":37333.32399999993,"duration":319.44436458333075,"noteNumber":53,"velocity":110,"programNumber":25},{"time":37666.657249999924,"duration":319.44436458333075,"noteNumber":53,"velocity":110,"programNumber":25},{"time":37999.99049999992,"duration":319.44436458333075,"noteNumber":48,"velocity":110,"programNumber":25},{"time":38333.323749999916,"duration":319.44436458333075,"noteNumber":48,"velocity":110,"programNumber":25},{"time":38666.65699999991,"duration":319.44436458333075,"noteNumber":53,"velocity":110,"programNumber":25},{"time":38999.99024999991,"duration":319.44436458333075,"noteNumber":53,"velocity":110,"programNumber":25},{"time":39333.323499999904,"duration":319.44436458333075,"noteNumber":55,"velocity":110,"programNumber":25},{"time":39666.6567499999,"duration":319.44436458333075,"noteNumber":55,"velocity":110,"programNumber":25},{"time":39999.989999999896,"duration":319.44436458333075,"noteNumber":57,"velocity":110,"programNumber":25},{"time":40333.32324999989,"duration":319.44436458333075,"noteNumber":57,"velocity":110,"programNumber":25},{"time":40666.65649999989,"duration":319.44436458333075,"noteNumber":55,"velocity":110,"programNumber":25},{"time":40999.989749999884,"duration":319.44436458333075,"noteNumber":55,"velocity":110,"programNumber":25},{"time":41333.32299999988,"duration":319.44436458333075,"noteNumber":53,"velocity":110,"programNumber":25},{"time":41666.656249999876,"duration":319.44436458333075,"noteNumber":53,"velocity":110,"programNumber":25},{"time":41999.98949999987,"duration":319.44436458333075,"noteNumber":57,"velocity":110,"programNumber":25},{"time":42333.32274999987,"duration":2666.6659999999974,"noteNumber":53,"velocity":110,"programNumber":25},{"time":45999.98849999987,"duration":319.44436458333075,"noteNumber":57,"velocity":110,"programNumber":25},{"time":46333.321749999865,"duration":1208.3330312499966,"noteNumber":62,"velocity":110,"programNumber":25},{"time":47555.54366666653,"duration":430.5554479166676,"noteNumber":64,"velocity":110,"programNumber":25},{"time":47999.98799999986,"duration":874.9997812500005,"noteNumber":65,"velocity":110,"programNumber":25},{"time":48888.876666666525,"duration":430.5554479166676,"noteNumber":67,"velocity":110,"programNumber":25},{"time":49333.32099999986,"duration":652.7776145833341,"noteNumber":65,"velocity":110,"programNumber":25},{"time":49999.98749999986,"duration":319.44436458333075,"noteNumber":64,"velocity":110,"programNumber":25},{"time":50333.32074999985,"duration":1319.4441145833334,"noteNumber":60,"velocity":110,"programNumber":25},{"time":51666.65374999985,"duration":319.44436458333075,"noteNumber":55,"velocity":110,"programNumber":25},{"time":51999.98699999985,"duration":1111.1108333333323,"noteNumber":60,"velocity":110,"programNumber":25},{"time":53333.31999999985,"duration":652.7776145833341,"noteNumber":58,"velocity":110,"programNumber":25},{"time":53999.986499999846,"duration":652.7776145833341,"noteNumber":60,"velocity":110,"programNumber":25},{"time":54666.652999999846,"duration":652.7776145833341,"noteNumber":60,"velocity":110,"programNumber":25},{"time":55333.319499999845,"duration":319.44436458333075,"noteNumber":65,"velocity":110,"programNumber":25},{"time":55666.65274999984,"duration":1208.3330312499966,"noteNumber":62,"velocity":110,"programNumber":25},{"time":56888.8746666665,"duration":430.5554479166676,"noteNumber":57,"velocity":110,"programNumber":25},{"time":57333.318999999836,"duration":652.7776145833341,"noteNumber":62,"velocity":110,"programNumber":25},{"time":57999.985499999835,"duration":319.44436458333075,"noteNumber":64,"velocity":110,"programNumber":25},{"time":58333.31874999983,"duration":1208.3330312499966,"noteNumber":65,"velocity":110,"programNumber":25},{"time":59555.54066666649,"duration":430.5554479166676,"noteNumber":67,"velocity":110,"programNumber":25},{"time":59999.984999999826,"duration":652.7776145833341,"noteNumber":65,"velocity":110,"programNumber":25},{"time":60666.651499999825,"duration":319.44436458333075,"noteNumber":64,"velocity":110,"programNumber":25},{"time":60999.98474999982,"duration":5333.332000000002,"noteNumber":60,"velocity":110,"programNumber":25},{"time":67555.53866666649,"duration":430.55544791666034,"noteNumber":57,"velocity":110,"programNumber":25},{"time":67999.98299999982,"duration":652.7776145833341,"noteNumber":62,"velocity":110,"programNumber":25},{"time":68666.64949999982,"duration":319.44436458333803,"noteNumber":64,"velocity":110,"programNumber":25},{"time":68999.98274999984,"duration":1208.3330312500038,"noteNumber":65,"velocity":110,"programNumber":25},{"time":70222.20466666651,"duration":430.55544791666034,"noteNumber":67,"velocity":110,"programNumber":25},{"time":70666.64899999984,"duration":652.7776145833341,"noteNumber":65,"velocity":110,"programNumber":25},{"time":71333.31549999985,"duration":319.44436458333803,"noteNumber":64,"velocity":110,"programNumber":25},{"time":71666.64874999986,"duration":1319.4441145833262,"noteNumber":60,"velocity":110,"programNumber":25},{"time":72999.98174999986,"duration":319.44436458333803,"noteNumber":55,"velocity":110,"programNumber":25},{"time":73333.31499999987,"duration":652.7776145833341,"noteNumber":60,"velocity":110,"programNumber":25},{"time":73999.98149999988,"duration":319.44436458333803,"noteNumber":55,"velocity":110,"programNumber":25},{"time":74333.31474999989,"duration":319.44436458333803,"noteNumber":58,"velocity":110,"programNumber":25},{"time":74666.6479999999,"duration":986.1108645833301,"noteNumber":58,"velocity":110,"programNumber":25},{"time":75666.6477499999,"duration":319.44436458333803,"noteNumber":60,"velocity":110,"programNumber":25},{"time":75999.98099999991,"duration":652.7776145833341,"noteNumber":60,"velocity":110,"programNumber":25},{"time":76666.64749999992,"duration":319.44436458333803,"noteNumber":65,"velocity":110,"programNumber":25},{"time":76999.98074999993,"duration":1208.3330312500038,"noteNumber":62,"velocity":110,"programNumber":25},{"time":78222.2026666666,"duration":430.55544791666034,"noteNumber":57,"velocity":110,"programNumber":25},{"time":78666.64699999994,"duration":652.7776145833341,"noteNumber":62,"velocity":110,"programNumber":25},{"time":79333.31349999995,"duration":319.44436458333803,"noteNumber":64,"velocity":110,"programNumber":25},{"time":79666.64674999996,"duration":986.1108645833301,"noteNumber":65,"velocity":110,"programNumber":25},{"time":80666.64649999996,"duration":319.44436458333803,"noteNumber":67,"velocity":110,"programNumber":25},{"time":80999.97974999997,"duration":986.1108645833301,"noteNumber":65,"velocity":110,"programNumber":25},{"time":81999.97949999997,"duration":319.44436458333803,"noteNumber":64,"velocity":110,"programNumber":25},{"time":82333.31274999998,"duration":2652.7771145833394,"noteNumber":60,"velocity":110,"programNumber":25},{"time":84999.97875,"duration":2666.6659999999974,"noteNumber":79,"velocity":110,"programNumber":25},{"time":87999.97799999999,"duration":319.44436458333803,"noteNumber":50,"velocity":110,"programNumber":25},{"time":88333.31125,"duration":319.44436458333803,"noteNumber":57,"velocity":110,"programNumber":25},{"time":88666.64450000001,"duration":319.44436458333803,"noteNumber":50,"velocity":110,"programNumber":25},{"time":88999.97775000002,"duration":319.44436458333803,"noteNumber":57,"velocity":110,"programNumber":25},{"time":89333.31100000003,"duration":319.44436458333803,"noteNumber":50,"velocity":110,"programNumber":25},{"time":89666.64425000004,"duration":319.44436458333803,"noteNumber":57,"velocity":110,"programNumber":25},{"time":89993.90111458338,"duration":181.96186458333977,"noteNumber":50,"velocity":110,"programNumber":25},{"time":90183.87579166672,"duration":186.68812500000058,"noteNumber":57,"velocity":110,"programNumber":25},{"time":90378.78759375006,"duration":191.66666666667152,"noteNumber":46,"velocity":110,"programNumber":25},{"time":90578.90019791674,"duration":196.9176145833335,"noteNumber":53,"velocity":110,"programNumber":25},{"time":90784.4983645834,"duration":202.4646875000035,"noteNumber":46,"velocity":110,"programNumber":25},{"time":90995.89161458341,"duration":208.33328125000116,"noteNumber":53,"velocity":110,"programNumber":25},{"time":91213.41606250008,"duration":214.55214583333873,"noteNumber":46,"velocity":110,"programNumber":25},{"time":91437.43789583341,"duration":221.1536250000063,"noteNumber":53,"velocity":110,"programNumber":25},{"time":91668.35714583342,"duration":228.17437500000233,"noteNumber":46,"velocity":110,"programNumber":25},{"time":91906.61215625009,"duration":235.65560416666267,"noteNumber":53,"velocity":110,"programNumber":25},{"time":92152.68442708343,"duration":243.64403125000536,"noteNumber":48,"velocity":110,"programNumber":25},{"time":92407.1043125001,"duration":252.1928437500028,"noteNumber":55,"velocity":110,"programNumber":25},{"time":92670.45786458344,"duration":261.36361458332976,"noteNumber":48,"velocity":110,"programNumber":25},{"time":92943.39555208344,"duration":271.2263020833343,"noteNumber":55,"velocity":110,"programNumber":25},{"time":93226.64108333344,"duration":281.8626041666721,"noteNumber":48,"velocity":110,"programNumber":25},{"time":93521.00368750011,"duration":293.3671562499949,"noteNumber":55,"velocity":110,"programNumber":25},{"time":93827.39167708343,"duration":305.8508854166721,"noteNumber":48,"velocity":110,"programNumber":25},{"time":94146.82951041678,"duration":319.44436458333803,"noteNumber":55,"velocity":110,"programNumber":25},{"time":94480.16276041679,"duration":319.44436458333803,"noteNumber":46,"velocity":110,"programNumber":25},{"time":94813.4960104168,"duration":319.44436458333803,"noteNumber":53,"velocity":110,"programNumber":25},{"time":95146.82926041681,"duration":319.44436458333803,"noteNumber":46,"velocity":110,"programNumber":25},{"time":95480.16251041682,"duration":319.44436458333803,"noteNumber":53,"velocity":110,"programNumber":25},{"time":95813.49576041683,"duration":319.44436458333803,"noteNumber":48,"velocity":110,"programNumber":25},{"time":96146.82901041684,"duration":319.44436458333803,"noteNumber":55,"velocity":110,"programNumber":25},{"time":96480.16226041685,"duration":319.44436458333803,"noteNumber":48,"velocity":110,"programNumber":25},{"time":96813.49551041686,"duration":319.44436458333803,"noteNumber":55,"velocity":110,"programNumber":25},{"time":97146.82876041687,"duration":319.44436458333803,"noteNumber":50,"velocity":110,"programNumber":25},{"time":97480.16201041688,"duration":319.44436458333803,"noteNumber":57,"velocity":110,"programNumber":25},{"time":97813.4952604169,"duration":319.44436458333803,"noteNumber":50,"velocity":110,"programNumber":25},{"time":98146.8285104169,"duration":319.44436458333803,"noteNumber":57,"velocity":110,"programNumber":25},{"time":98480.16176041692,"duration":319.44436458333803,"noteNumber":50,"velocity":110,"programNumber":25},{"time":98813.49501041693,"duration":319.44436458333803,"noteNumber":57,"velocity":110,"programNumber":25},{"time":99146.82826041694,"duration":319.44436458333803,"noteNumber":50,"velocity":110,"programNumber":25},{"time":99480.16151041695,"duration":319.44436458333803,"noteNumber":57,"velocity":110,"programNumber":25},{"time":99813.49476041696,"duration":319.44436458333803,"noteNumber":46,"velocity":110,"programNumber":25},{"time":100146.82801041697,"duration":319.44436458333803,"noteNumber":53,"velocity":110,"programNumber":25},{"time":100480.16126041698,"duration":319.44436458333803,"noteNumber":46,"velocity":110,"programNumber":25},{"time":100813.49451041699,"duration":319.44436458333803,"noteNumber":53,"velocity":110,"programNumber":25},{"time":101146.827760417,"duration":319.44436458333803,"noteNumber":46,"velocity":110,"programNumber":25},{"time":101480.16101041701,"duration":319.44436458333803,"noteNumber":53,"velocity":110,"programNumber":25},{"time":101813.49426041702,"duration":319.44436458333803,"noteNumber":46,"velocity":110,"programNumber":25},{"time":102146.82751041703,"duration":319.44436458333803,"noteNumber":53,"velocity":110,"programNumber":25},{"time":102480.16076041704,"duration":319.44436458333803,"noteNumber":48,"velocity":110,"programNumber":25},{"time":102813.49401041705,"duration":319.44436458333803,"noteNumber":55,"velocity":110,"programNumber":25},{"time":103146.82726041706,"duration":319.44436458333803,"noteNumber":48,"velocity":110,"programNumber":25},{"time":103480.16051041707,"duration":319.44436458333803,"noteNumber":55,"velocity":110,"programNumber":25},{"time":103813.49376041708,"duration":319.44436458333803,"noteNumber":48,"velocity":110,"programNumber":25},{"time":104146.8270104171,"duration":319.44436458333803,"noteNumber":55,"velocity":110,"programNumber":25},{"time":104480.1602604171,"duration":319.44436458333803,"noteNumber":48,"velocity":110,"programNumber":25},{"time":104813.49351041712,"duration":319.44436458333803,"noteNumber":55,"velocity":110,"programNumber":25},{"time":105146.82676041713,"duration":319.44436458333803,"noteNumber":46,"velocity":110,"programNumber":25},{"time":105480.16001041714,"duration":319.44436458333803,"noteNumber":53,"velocity":110,"programNumber":25},{"time":105813.49326041715,"duration":319.44436458333803,"noteNumber":46,"velocity":110,"programNumber":25},{"time":106146.82651041716,"duration":319.44436458333803,"noteNumber":53,"velocity":110,"programNumber":25},{"time":106480.15976041717,"duration":319.44436458333803,"noteNumber":48,"velocity":110,"programNumber":25},{"time":106813.49301041718,"duration":319.44436458333803,"noteNumber":55,"velocity":110,"programNumber":25},{"time":107146.82626041719,"duration":319.44436458333803,"noteNumber":48,"velocity":110,"programNumber":25},{"time":107480.1595104172,"duration":319.44436458333803,"noteNumber":55,"velocity":110,"programNumber":25},{"time":107813.49276041721,"duration":319.44436458333803,"noteNumber":50,"velocity":110,"programNumber":25},{"time":108146.82601041722,"duration":319.44436458333803,"noteNumber":57,"velocity":110,"programNumber":25},{"time":108480.15926041723,"duration":319.44436458333803,"noteNumber":50,"velocity":110,"programNumber":25},{"time":108813.49251041724,"duration":319.44436458333803,"noteNumber":57,"velocity":110,"programNumber":25},{"time":109146.82576041725,"duration":319.44436458333803,"noteNumber":50,"velocity":110,"programNumber":25},{"time":109480.15901041726,"duration":319.44436458333803,"noteNumber":57,"velocity":110,"programNumber":25},{"time":109813.49226041728,"duration":319.44436458333803,"noteNumber":50,"velocity":110,"programNumber":25},{"time":110146.82551041729,"duration":319.44436458333803,"noteNumber":57,"velocity":110,"programNumber":25},{"time":110480.1587604173,"duration":319.44436458333803,"noteNumber":46,"velocity":110,"programNumber":25},{"time":110813.4920104173,"duration":319.44436458333803,"noteNumber":53,"velocity":110,"programNumber":25},{"time":111146.82526041732,"duration":319.44436458333803,"noteNumber":46,"velocity":110,"programNumber":25},{"time":111480.15851041733,"duration":319.44436458333803,"noteNumber":53,"velocity":110,"programNumber":25},{"time":111813.49176041734,"duration":319.44436458333803,"noteNumber":46,"velocity":110,"programNumber":25},{"time":112146.82501041735,"duration":319.44436458333803,"noteNumber":53,"velocity":110,"programNumber":25},{"time":112480.15826041736,"duration":319.44436458333803,"noteNumber":46,"velocity":110,"programNumber":25},{"time":112813.49151041737,"duration":319.44436458333803,"noteNumber":53,"velocity":110,"programNumber":25},{"time":113146.82476041738,"duration":319.44436458333803,"noteNumber":48,"velocity":110,"programNumber":25},{"time":113480.15801041739,"duration":319.44436458333803,"noteNumber":55,"velocity":110,"programNumber":25},{"time":113813.4912604174,"duration":319.44436458333803,"noteNumber":48,"velocity":110,"programNumber":25},{"time":114146.82451041741,"duration":319.44436458333803,"noteNumber":55,"velocity":110,"programNumber":25},{"time":114480.15776041742,"duration":319.44436458333803,"noteNumber":48,"velocity":110,"programNumber":25},{"time":114813.49101041743,"duration":319.44436458333803,"noteNumber":55,"velocity":110,"programNumber":25},{"time":115146.82426041744,"duration":319.44436458333803,"noteNumber":48,"velocity":110,"programNumber":25},{"time":115480.15751041746,"duration":319.44436458333803,"noteNumber":55,"velocity":110,"programNumber":25},{"time":115813.49076041747,"duration":319.44436458333803,"noteNumber":53,"velocity":110,"programNumber":25},{"time":116146.82401041748,"duration":319.44436458333803,"noteNumber":60,"velocity":110,"programNumber":25},{"time":116480.15726041749,"duration":319.44436458333803,"noteNumber":53,"velocity":110,"programNumber":25},{"time":116813.4905104175,"duration":319.44436458333803,"noteNumber":60,"velocity":110,"programNumber":25},{"time":117146.82376041751,"duration":319.44436458333803,"noteNumber":55,"velocity":110,"programNumber":25},{"time":117480.15701041752,"duration":319.44436458333803,"noteNumber":62,"velocity":110,"programNumber":25},{"time":117813.49026041753,"duration":319.44436458333803,"noteNumber":55,"velocity":110,"programNumber":25},{"time":118146.82351041754,"duration":319.44436458333803,"noteNumber":62,"velocity":110,"programNumber":25},{"time":118480.15676041755,"duration":319.44436458333803,"noteNumber":50,"velocity":110,"programNumber":25},{"time":118813.49001041756,"duration":319.44436458333803,"noteNumber":57,"velocity":110,"programNumber":25},{"time":119146.82326041757,"duration":319.44436458333803,"noteNumber":50,"velocity":110,"programNumber":25},{"time":119480.15651041758,"duration":319.44436458333803,"noteNumber":57,"velocity":110,"programNumber":25},{"time":119813.4897604176,"duration":319.44436458333803,"noteNumber":50,"velocity":110,"programNumber":25},{"time":120146.8230104176,"duration":319.44436458333803,"noteNumber":57,"velocity":110,"programNumber":25},{"time":120480.15626041761,"duration":319.44436458333803,"noteNumber":50,"velocity":110,"programNumber":25},{"time":120813.48951041762,"duration":319.44436458333803,"noteNumber":57,"velocity":110,"programNumber":25},{"time":121146.82276041764,"duration":319.44436458333803,"noteNumber":46,"velocity":110,"programNumber":25},{"time":121480.15601041765,"duration":319.44436458333803,"noteNumber":53,"velocity":110,"programNumber":25},{"time":121813.48926041766,"duration":319.44436458333803,"noteNumber":46,"velocity":110,"programNumber":25},{"time":122146.82251041767,"duration":319.44436458333803,"noteNumber":53,"velocity":110,"programNumber":25},{"time":122480.15576041768,"duration":319.44436458333803,"noteNumber":46,"velocity":110,"programNumber":25},{"time":122813.48901041769,"duration":319.44436458333803,"noteNumber":53,"velocity":110,"programNumber":25},{"time":123146.8222604177,"duration":319.44436458333803,"noteNumber":46,"velocity":110,"programNumber":25},{"time":123480.15551041771,"duration":319.44436458333803,"noteNumber":53,"velocity":110,"programNumber":25},{"time":123813.48876041772,"duration":319.44436458333803,"noteNumber":48,"velocity":110,"programNumber":25},{"time":124146.82201041773,"duration":319.44436458333803,"noteNumber":55,"velocity":110,"programNumber":25},{"time":124480.15526041774,"duration":319.44436458333803,"noteNumber":48,"velocity":110,"programNumber":25},{"time":124813.48851041775,"duration":319.44436458333803,"noteNumber":55,"velocity":110,"programNumber":25},{"time":125146.82176041776,"duration":319.44436458333803,"noteNumber":48,"velocity":110,"programNumber":25},{"time":125480.15501041777,"duration":319.44436458333803,"noteNumber":55,"velocity":110,"programNumber":25},{"time":125813.48826041778,"duration":319.44436458333803,"noteNumber":48,"velocity":110,"programNumber":25},{"time":126146.8215104178,"duration":319.44436458333803,"noteNumber":55,"velocity":110,"programNumber":25},{"time":126480.1547604178,"duration":319.44436458333803,"noteNumber":48,"velocity":110,"programNumber":25},{"time":126813.48801041782,"duration":319.44436458333803,"noteNumber":55,"velocity":110,"programNumber":25},{"time":127146.82126041783,"duration":319.44436458333803,"noteNumber":48,"velocity":110,"programNumber":25},{"time":127480.15451041784,"duration":319.44436458333803,"noteNumber":55,"velocity":110,"programNumber":25},{"time":127813.48776041785,"duration":319.44436458333803,"noteNumber":48,"velocity":110,"programNumber":25},{"time":128146.82101041786,"duration":319.44436458333803,"noteNumber":55,"velocity":110,"programNumber":25},{"time":128480.15426041787,"duration":319.44436458333803,"noteNumber":48,"velocity":110,"programNumber":25},{"time":128813.48751041788,"duration":319.44436458333803,"noteNumber":55,"velocity":110,"programNumber":25},{"time":129146.82076041789,"duration":319.44436458333803,"noteNumber":46,"velocity":110,"programNumber":25},{"time":129480.1540104179,"duration":319.44436458333803,"noteNumber":53,"velocity":110,"programNumber":25},{"time":129813.48726041791,"duration":319.44436458333803,"noteNumber":46,"velocity":110,"programNumber":25},{"time":130146.82051041792,"duration":319.44436458333803,"noteNumber":53,"velocity":110,"programNumber":25},{"time":130480.15376041793,"duration":319.44436458333803,"noteNumber":46,"velocity":110,"programNumber":25},{"time":130813.48701041794,"duration":319.4443645833235,"noteNumber":53,"velocity":110,"programNumber":25},{"time":131146.82026041794,"duration":319.4443645833235,"noteNumber":46,"velocity":110,"programNumber":25},{"time":131480.15351041793,"duration":319.4443645833235,"noteNumber":53,"velocity":110,"programNumber":25},{"time":131813.48676041793,"duration":319.4443645833235,"noteNumber":48,"velocity":110,"programNumber":25},{"time":132146.82001041793,"duration":319.4443645833235,"noteNumber":55,"velocity":110,"programNumber":25},{"time":132480.15326041792,"duration":319.4443645833235,"noteNumber":48,"velocity":110,"programNumber":25},{"time":132813.48651041792,"duration":319.4443645833235,"noteNumber":55,"velocity":110,"programNumber":25},{"time":133146.81976041791,"duration":319.4443645833235,"noteNumber":48,"velocity":110,"programNumber":25},{"time":133480.1530104179,"duration":319.4443645833235,"noteNumber":55,"velocity":110,"programNumber":25},{"time":133813.4862604179,"duration":319.4443645833235,"noteNumber":48,"velocity":110,"programNumber":25},{"time":134146.8195104179,"duration":319.4443645833235,"noteNumber":55,"velocity":110,"programNumber":25},{"time":134480.1527604179,"duration":319.4443645833235,"noteNumber":50,"velocity":110,"programNumber":25},{"time":134813.4860104179,"duration":319.4443645833235,"noteNumber":57,"velocity":110,"programNumber":25},{"time":135146.8192604179,"duration":319.4443645833235,"noteNumber":50,"velocity":110,"programNumber":25},{"time":135480.1525104179,"duration":319.4443645833235,"noteNumber":57,"velocity":110,"programNumber":25},{"time":135813.48576041788,"duration":319.4443645833235,"noteNumber":50,"velocity":110,"programNumber":25},{"time":136146.81901041788,"duration":319.4443645833235,"noteNumber":57,"velocity":110,"programNumber":25},{"time":136480.15226041788,"duration":319.4443645833235,"noteNumber":50,"velocity":110,"programNumber":25},{"time":136813.48551041787,"duration":319.4443645833235,"noteNumber":57,"velocity":110,"programNumber":25},{"time":137146.81876041787,"duration":319.4443645833235,"noteNumber":48,"velocity":110,"programNumber":25},{"time":137480.15201041786,"duration":319.4443645833235,"noteNumber":55,"velocity":110,"programNumber":25},{"time":137813.48526041786,"duration":319.4443645833235,"noteNumber":48,"velocity":110,"programNumber":25},{"time":138146.81851041786,"duration":319.4443645833235,"noteNumber":55,"velocity":110,"programNumber":25},{"time":138480.15176041785,"duration":319.4443645833235,"noteNumber":48,"velocity":110,"programNumber":25},{"time":138813.48501041785,"duration":319.4443645833235,"noteNumber":55,"velocity":110,"programNumber":25},{"time":139146.81826041784,"duration":319.4443645833235,"noteNumber":48,"velocity":110,"programNumber":25},{"time":139480.15151041784,"duration":319.4443645833235,"noteNumber":55,"velocity":110,"programNumber":25},{"time":139813.48476041784,"duration":319.4443645833235,"noteNumber":46,"velocity":110,"programNumber":25},{"time":140146.81801041783,"duration":319.4443645833235,"noteNumber":53,"velocity":110,"programNumber":25},{"time":140480.15126041783,"duration":319.4443645833235,"noteNumber":46,"velocity":110,"programNumber":25},{"time":140813.48451041782,"duration":319.4443645833235,"noteNumber":53,"velocity":110,"programNumber":25},{"time":141146.81776041782,"duration":319.4443645833235,"noteNumber":46,"velocity":110,"programNumber":25},{"time":141480.15101041782,"duration":319.4443645833235,"noteNumber":53,"velocity":110,"programNumber":25},{"time":141813.4842604178,"duration":319.4443645833235,"noteNumber":46,"velocity":110,"programNumber":25},{"time":142146.8175104178,"duration":319.4443645833235,"noteNumber":53,"velocity":110,"programNumber":25},{"time":142480.1507604178,"duration":319.4443645833235,"noteNumber":53,"velocity":110,"programNumber":25},{"time":142813.4840104178,"duration":319.4443645833235,"noteNumber":60,"velocity":110,"programNumber":25},{"time":143146.8172604178,"duration":319.4443645833235,"noteNumber":53,"velocity":110,"programNumber":25},{"time":143480.1505104178,"duration":319.4443645833235,"noteNumber":60,"velocity":110,"programNumber":25},{"time":143813.4837604178,"duration":319.4443645833235,"noteNumber":55,"velocity":110,"programNumber":25},{"time":144146.81701041778,"duration":319.4443645833235,"noteNumber":62,"velocity":110,"programNumber":25},{"time":144480.15026041778,"duration":319.4443645833235,"noteNumber":55,"velocity":110,"programNumber":25},{"time":144813.48351041778,"duration":319.4443645833235,"noteNumber":62,"velocity":110,"programNumber":25},{"time":145146.81676041777,"duration":319.4443645833235,"noteNumber":50,"velocity":110,"programNumber":25},{"time":145480.15001041777,"duration":319.4443645833235,"noteNumber":57,"velocity":110,"programNumber":25},{"time":145813.48326041776,"duration":319.4443645833235,"noteNumber":50,"velocity":110,"programNumber":25},{"time":146146.81651041776,"duration":319.4443645833235,"noteNumber":57,"velocity":110,"programNumber":25},{"time":146480.14976041776,"duration":319.4443645833235,"noteNumber":50,"velocity":110,"programNumber":25},{"time":146813.48301041775,"duration":319.4443645833235,"noteNumber":57,"velocity":110,"programNumber":25},{"time":147146.81626041775,"duration":319.4443645833235,"noteNumber":50,"velocity":110,"programNumber":25},{"time":147480.14951041774,"duration":319.4443645833235,"noteNumber":57,"velocity":110,"programNumber":25},{"time":147813.48276041774,"duration":319.4443645833235,"noteNumber":50,"velocity":110,"programNumber":25},{"time":148146.81601041774,"duration":319.4443645833235,"noteNumber":57,"velocity":110,"programNumber":25},{"time":148480.14926041773,"duration":319.4443645833235,"noteNumber":50,"velocity":110,"programNumber":25},{"time":148813.48251041773,"duration":319.4443645833235,"noteNumber":57,"velocity":110,"programNumber":25},{"time":149146.81576041772,"duration":319.4443645833235,"noteNumber":50,"velocity":110,"programNumber":25},{"time":149480.14901041772,"duration":319.4443645833235,"noteNumber":57,"velocity":110,"programNumber":25},{"time":149813.48226041772,"duration":319.4443645833235,"noteNumber":50,"velocity":110,"programNumber":25},{"time":150146.8155104177,"duration":319.4443645833235,"noteNumber":57,"velocity":110,"programNumber":25},{"time":150480.1487604177,"duration":319.4443645833235,"noteNumber":46,"velocity":110,"programNumber":25},{"time":150813.4820104177,"duration":319.4443645833235,"noteNumber":53,"velocity":110,"programNumber":25},{"time":151146.8152604177,"duration":319.4443645833235,"noteNumber":46,"velocity":110,"programNumber":25},{"time":151480.1485104177,"duration":319.4443645833235,"noteNumber":53,"velocity":110,"programNumber":25},{"time":151813.4817604177,"duration":319.4443645833235,"noteNumber":46,"velocity":110,"programNumber":25},{"time":152146.8150104177,"duration":319.4443645833235,"noteNumber":53,"velocity":110,"programNumber":25},{"time":152480.14826041769,"duration":319.4443645833235,"noteNumber":46,"velocity":110,"programNumber":25},{"time":152813.48151041768,"duration":319.4443645833235,"noteNumber":53,"velocity":110,"programNumber":25},{"time":153146.81476041768,"duration":319.4443645833235,"noteNumber":48,"velocity":110,"programNumber":25},{"time":153480.14801041767,"duration":319.4443645833235,"noteNumber":55,"velocity":110,"programNumber":25},{"time":153813.48126041767,"duration":319.4443645833235,"noteNumber":48,"velocity":110,"programNumber":25},{"time":154146.81451041767,"duration":319.4443645833235,"noteNumber":55,"velocity":110,"programNumber":25},{"time":154480.14776041766,"duration":319.4443645833235,"noteNumber":48,"velocity":110,"programNumber":25},{"time":154813.48101041766,"duration":319.4443645833235,"noteNumber":55,"velocity":110,"programNumber":25},{"time":155146.81426041765,"duration":319.4443645833235,"noteNumber":48,"velocity":110,"programNumber":25},{"time":155480.14751041765,"duration":319.4443645833235,"noteNumber":55,"velocity":110,"programNumber":25},{"time":155813.48076041765,"duration":319.4443645833235,"noteNumber":50,"velocity":110,"programNumber":25},{"time":156146.81401041764,"duration":319.4443645833235,"noteNumber":57,"velocity":110,"programNumber":25},{"time":156480.14726041764,"duration":319.4443645833235,"noteNumber":50,"velocity":110,"programNumber":25},{"time":156813.48051041763,"duration":319.4443645833235,"noteNumber":57,"velocity":110,"programNumber":25},{"time":157146.81376041763,"duration":319.4443645833235,"noteNumber":50,"velocity":110,"programNumber":25},{"time":157480.14701041763,"duration":319.4443645833235,"noteNumber":57,"velocity":110,"programNumber":25},{"time":157813.48026041762,"duration":319.4443645833235,"noteNumber":50,"velocity":110,"programNumber":25},{"time":158146.81351041762,"duration":319.4443645833235,"noteNumber":57,"velocity":110,"programNumber":25},{"time":158480.1467604176,"duration":319.4443645833235,"noteNumber":48,"velocity":110,"programNumber":25},{"time":158813.4800104176,"duration":319.4443645833235,"noteNumber":55,"velocity":110,"programNumber":25},{"time":159146.8132604176,"duration":319.4443645833235,"noteNumber":48,"velocity":110,"programNumber":25},{"time":159480.1465104176,"duration":319.4443645833235,"noteNumber":55,"velocity":110,"programNumber":25},{"time":159813.4797604176,"duration":319.4443645833235,"noteNumber":48,"velocity":110,"programNumber":25},{"time":160146.8130104176,"duration":319.4443645833235,"noteNumber":55,"velocity":110,"programNumber":25},{"time":160480.1462604176,"duration":319.4443645833235,"noteNumber":48,"velocity":110,"programNumber":25},{"time":160813.4795104176,"duration":319.4443645833235,"noteNumber":55,"velocity":110,"programNumber":25},{"time":161146.81276041758,"duration":319.4443645833235,"noteNumber":46,"velocity":110,"programNumber":25},{"time":161480.14601041758,"duration":319.4443645833235,"noteNumber":53,"velocity":110,"programNumber":25},{"time":161813.47926041757,"duration":319.4443645833235,"noteNumber":46,"velocity":110,"programNumber":25},{"time":162146.81251041757,"duration":319.4443645833235,"noteNumber":53,"velocity":110,"programNumber":25},{"time":162480.14576041757,"duration":319.4443645833235,"noteNumber":46,"velocity":110,"programNumber":25},{"time":162813.47901041756,"duration":319.4443645833235,"noteNumber":53,"velocity":110,"programNumber":25},{"time":163146.81226041756,"duration":319.4443645833235,"noteNumber":46,"velocity":110,"programNumber":25},{"time":163480.14551041755,"duration":319.4443645833235,"noteNumber":53,"velocity":110,"programNumber":25},{"time":163813.47876041755,"duration":319.4443645833235,"noteNumber":53,"velocity":110,"programNumber":25},{"time":164146.81201041755,"duration":319.4443645833235,"noteNumber":60,"velocity":110,"programNumber":25},{"time":164480.14526041754,"duration":319.4443645833235,"noteNumber":53,"velocity":110,"programNumber":25},{"time":164813.47851041754,"duration":319.4443645833235,"noteNumber":60,"velocity":110,"programNumber":25},{"time":165146.81176041753,"duration":319.4443645833235,"noteNumber":55,"velocity":110,"programNumber":25},{"time":165480.14501041753,"duration":319.4443645833235,"noteNumber":62,"velocity":110,"programNumber":25},{"time":165813.47826041753,"duration":319.4443645833235,"noteNumber":55,"velocity":110,"programNumber":25},{"time":166146.81151041752,"duration":319.4443645833235,"noteNumber":62,"velocity":110,"programNumber":25},{"time":166480.14476041752,"duration":319.4443645833235,"noteNumber":50,"velocity":110,"programNumber":25},{"time":166813.47801041752,"duration":319.4443645833235,"noteNumber":57,"velocity":110,"programNumber":25},{"time":167146.8112604175,"duration":319.4443645833235,"noteNumber":50,"velocity":110,"programNumber":25},{"time":167480.1445104175,"duration":319.4443645833235,"noteNumber":57,"velocity":110,"programNumber":25},{"time":167813.4777604175,"duration":319.4443645833235,"noteNumber":50,"velocity":110,"programNumber":25},{"time":168146.8110104175,"duration":319.4443645833235,"noteNumber":57,"velocity":110,"programNumber":25},{"time":168480.1442604175,"duration":319.4443645833235,"noteNumber":50,"velocity":110,"programNumber":25},{"time":168813.4775104175,"duration":319.4443645833235,"noteNumber":57,"velocity":110,"programNumber":25},{"time":169146.8107604175,"duration":319.4443645833235,"noteNumber":50,"velocity":110,"programNumber":25},{"time":169480.14401041748,"duration":319.4443645833235,"noteNumber":57,"velocity":110,"programNumber":25},{"time":169813.47726041748,"duration":319.4443645833235,"noteNumber":50,"velocity":110,"programNumber":25},{"time":170146.81051041748,"duration":319.4443645833235,"noteNumber":57,"velocity":110,"programNumber":25},{"time":170480.14376041747,"duration":319.4443645833235,"noteNumber":50,"velocity":110,"programNumber":25},{"time":171480.14351041746,"duration":986.1108645833447,"noteNumber":50,"velocity":110,"programNumber":25},{"time":172480.14326041748,"duration":652.7776145833195,"noteNumber":50,"velocity":110,"programNumber":25},{"time":173146.80976041747,"duration":652.7776145833195,"noteNumber":57,"velocity":110,"programNumber":25},{"time":173813.47626041746,"duration":652.7776145833195,"noteNumber":57,"velocity":110,"programNumber":25},{"time":174480.14276041745,"duration":652.7776145833195,"noteNumber":55,"velocity":110,"programNumber":25},{"time":175146.80926041745,"duration":652.7776145833195,"noteNumber":55,"velocity":110,"programNumber":25},{"time":175813.47576041744,"duration":652.7776145833195,"noteNumber":57,"velocity":110,"programNumber":25},{"time":176480.14226041743,"duration":652.7776145833195,"noteNumber":57,"velocity":110,"programNumber":25},{"time":177146.80876041742,"duration":652.7776145833195,"noteNumber":50,"velocity":110,"programNumber":25},{"time":177813.4752604174,"duration":652.7776145833195,"noteNumber":50,"velocity":110,"programNumber":25},{"time":178480.1417604174,"duration":652.7776145833195,"noteNumber":57,"velocity":110,"programNumber":25},{"time":179146.8082604174,"duration":652.7776145833195,"noteNumber":57,"velocity":110,"programNumber":25},{"time":179813.4747604174,"duration":652.7776145833195,"noteNumber":55,"velocity":110,"programNumber":25},{"time":180480.14126041738,"duration":652.7776145833195,"noteNumber":55,"velocity":110,"programNumber":25},{"time":181146.80776041737,"duration":652.7776145833195,"noteNumber":57,"velocity":110,"programNumber":25},{"time":181813.47426041737,"duration":1319.4441145833407,"noteNumber":50,"velocity":110,"programNumber":25},{"time":183146.80726041738,"duration":652.7776145833195,"noteNumber":50,"velocity":110,"programNumber":25},{"time":183813.47376041737,"duration":652.7776145833195,"noteNumber":57,"velocity":110,"programNumber":25},{"time":184480.14026041736,"duration":652.7776145833195,"noteNumber":57,"velocity":110,"programNumber":25},{"time":185146.80676041736,"duration":652.7776145833195,"noteNumber":55,"velocity":110,"programNumber":25},{"time":185813.47326041735,"duration":652.7776145833195,"noteNumber":55,"velocity":110,"programNumber":25},{"time":186480.13976041734,"duration":652.7776145833195,"noteNumber":57,"velocity":110,"programNumber":25},{"time":187146.80626041733,"duration":652.7776145833195,"noteNumber":57,"velocity":110,"programNumber":25},{"time":187813.47276041732,"duration":652.7776145833195,"noteNumber":50,"velocity":110,"programNumber":25},{"time":188480.13926041732,"duration":652.7776145833195,"noteNumber":50,"velocity":110,"programNumber":25},{"time":189146.8057604173,"duration":652.7776145833195,"noteNumber":57,"velocity":110,"programNumber":25},{"time":189813.4722604173,"duration":652.7776145833195,"noteNumber":57,"velocity":110,"programNumber":25},{"time":190480.1387604173,"duration":652.7776145833195,"noteNumber":55,"velocity":110,"programNumber":25},{"time":191146.80526041728,"duration":652.7776145833195,"noteNumber":55,"velocity":110,"programNumber":25},{"time":191813.47176041728,"duration":652.7776145833195,"noteNumber":57,"velocity":110,"programNumber":25},{"time":192480.13826041727,"duration":1319.4441145833407,"noteNumber":50,"velocity":110,"programNumber":25},{"time":193813.47126041728,"duration":652.7776145833195,"noteNumber":50,"velocity":110,"programNumber":25},{"time":194480.13776041727,"duration":652.7776145833195,"noteNumber":57,"velocity":110,"programNumber":25},{"time":195146.80426041727,"duration":652.7776145833195,"noteNumber":57,"velocity":110,"programNumber":25},{"time":195813.47076041726,"duration":652.7776145833195,"noteNumber":55,"velocity":110,"programNumber":25},{"time":196480.13726041725,"duration":652.7776145833195,"noteNumber":55,"velocity":110,"programNumber":25},{"time":197146.80376041724,"duration":652.7776145833195,"noteNumber":57,"velocity":110,"programNumber":25},{"time":197813.47026041723,"duration":652.7776145833195,"noteNumber":57,"velocity":110,"programNumber":25},{"time":198480.13676041723,"duration":652.7776145833195,"noteNumber":50,"velocity":110,"programNumber":25},{"time":199146.80326041722,"duration":652.7776145833195,"noteNumber":50,"velocity":110,"programNumber":25},{"time":199813.4697604172,"duration":652.7776145833195,"noteNumber":57,"velocity":110,"programNumber":25},{"time":200480.1362604172,"duration":652.7776145833195,"noteNumber":57,"velocity":110,"programNumber":25},{"time":201146.8027604172,"duration":652.7776145833195,"noteNumber":55,"velocity":110,"programNumber":25},{"time":201813.4692604172,"duration":652.7776145833195,"noteNumber":55,"velocity":110,"programNumber":25},{"time":202480.13576041718,"duration":652.7776145833195,"noteNumber":57,"velocity":110,"programNumber":25},{"time":203146.80226041717,"duration":1319.4441145833407,"noteNumber":50,"velocity":110,"programNumber":25},{"time":204480.13526041718,"duration":652.7776145833195,"noteNumber":50,"velocity":110,"programNumber":25},{"time":205146.80176041718,"duration":652.7776145833195,"noteNumber":45,"velocity":110,"programNumber":25},{"time":205813.46826041717,"duration":652.7776145833195,"noteNumber":45,"velocity":110,"programNumber":25},{"time":206480.13476041716,"duration":652.7776145833195,"noteNumber":50,"velocity":110,"programNumber":25},{"time":207146.80126041715,"duration":652.7776145833195,"noteNumber":50,"velocity":110,"programNumber":25},{"time":207813.46776041714,"duration":652.7776145833195,"noteNumber":52,"velocity":110,"programNumber":25},{"time":208480.13426041714,"duration":652.7776145833195,"noteNumber":52,"velocity":110,"programNumber":25},{"time":209146.80076041713,"duration":652.7776145833195,"noteNumber":53,"velocity":110,"programNumber":25},{"time":209813.46726041712,"duration":652.7776145833195,"noteNumber":53,"velocity":110,"programNumber":25},{"time":210480.1337604171,"duration":652.7776145833195,"noteNumber":55,"velocity":110,"programNumber":25},{"time":211146.8002604171,"duration":652.7776145833195,"noteNumber":55,"velocity":110,"programNumber":25},{"time":211813.4667604171,"duration":652.7776145833195,"noteNumber":53,"velocity":110,"programNumber":25},{"time":212480.1332604171,"duration":652.7776145833195,"noteNumber":53,"velocity":110,"programNumber":25},{"time":213146.79976041708,"duration":652.7776145833195,"noteNumber":52,"velocity":110,"programNumber":25},{"time":213813.46626041707,"duration":1319.4441145833407,"noteNumber":50,"velocity":110,"programNumber":25},{"time":215146.7992604171,"duration":652.7776145833195,"noteNumber":50,"velocity":110,"programNumber":25},{"time":215813.46576041708,"duration":652.7776145833195,"noteNumber":57,"velocity":110,"programNumber":25},{"time":216480.13226041707,"duration":652.7776145833195,"noteNumber":57,"velocity":110,"programNumber":25},{"time":217146.79876041706,"duration":652.7776145833195,"noteNumber":55,"velocity":110,"programNumber":25},{"time":217813.46526041706,"duration":652.7776145833195,"noteNumber":55,"velocity":110,"programNumber":25},{"time":218480.13176041705,"duration":652.7776145833195,"noteNumber":57,"velocity":110,"programNumber":25},{"time":219146.79826041704,"duration":652.7776145833195,"noteNumber":57,"velocity":110,"programNumber":25},{"time":219813.46476041703,"duration":652.7776145833195,"noteNumber":50,"velocity":110,"programNumber":25},{"time":220480.13126041702,"duration":652.7776145833195,"noteNumber":50,"velocity":110,"programNumber":25},{"time":221146.79776041702,"duration":652.7776145833195,"noteNumber":57,"velocity":110,"programNumber":25},{"time":221813.464260417,"duration":652.7776145833195,"noteNumber":57,"velocity":110,"programNumber":25},{"time":222480.130760417,"duration":652.7776145833195,"noteNumber":55,"velocity":110,"programNumber":25},{"time":223146.797260417,"duration":652.7776145833195,"noteNumber":55,"velocity":110,"programNumber":25},{"time":223813.46376041698,"duration":652.7776145833195,"noteNumber":57,"velocity":110,"programNumber":25},{"time":224480.13026041698,"duration":1319.4441145833407,"noteNumber":50,"velocity":110,"programNumber":25},{"time":225813.463260417,"duration":652.7776145833195,"noteNumber":50,"velocity":110,"programNumber":25},{"time":226480.12976041698,"duration":652.7776145833195,"noteNumber":57,"velocity":110,"programNumber":25},{"time":227146.79626041697,"duration":652.7776145833195,"noteNumber":57,"velocity":110,"programNumber":25},{"time":227813.46276041697,"duration":652.7776145833195,"noteNumber":55,"velocity":110,"programNumber":25},{"time":228480.12926041696,"duration":652.7776145833195,"noteNumber":55,"velocity":110,"programNumber":25},{"time":229146.79576041695,"duration":652.7776145833195,"noteNumber":57,"velocity":110,"programNumber":25},{"time":229813.46226041694,"duration":652.7776145833195,"noteNumber":57,"velocity":110,"programNumber":25},{"time":230480.12876041693,"duration":652.7776145833195,"noteNumber":50,"velocity":110,"programNumber":25},{"time":231146.79526041693,"duration":652.7776145833195,"noteNumber":50,"velocity":110,"programNumber":25},{"time":231813.46176041692,"duration":652.7776145833195,"noteNumber":57,"velocity":110,"programNumber":25},{"time":232480.1282604169,"duration":652.7776145833195,"noteNumber":57,"velocity":110,"programNumber":25},{"time":233146.7947604169,"duration":652.7776145833195,"noteNumber":55,"velocity":110,"programNumber":25},{"time":233813.4612604169,"duration":652.7776145833195,"noteNumber":55,"velocity":110,"programNumber":25},{"time":234480.1277604169,"duration":652.7776145833195,"noteNumber":57,"velocity":110,"programNumber":25},{"time":235146.79426041688,"duration":1319.4441145833407,"noteNumber":50,"velocity":110,"programNumber":25},{"time":236480.1272604169,"duration":652.7776145833195,"noteNumber":50,"velocity":110,"programNumber":25},{"time":237146.79376041688,"duration":652.7776145833195,"noteNumber":57,"velocity":110,"programNumber":25},{"time":237813.46026041688,"duration":652.7776145833195,"noteNumber":57,"velocity":110,"programNumber":25},{"time":238480.12676041687,"duration":652.7776145833195,"noteNumber":55,"velocity":110,"programNumber":25},{"time":239146.79326041686,"duration":652.7776145833195,"noteNumber":55,"velocity":110,"programNumber":25},{"time":239813.45976041685,"duration":652.7776145833195,"noteNumber":57,"velocity":110,"programNumber":25},{"time":240480.12626041684,"duration":652.7776145833195,"noteNumber":57,"velocity":110,"programNumber":25},{"time":241146.79276041684,"duration":652.7776145833195,"noteNumber":50,"velocity":110,"programNumber":25},{"time":241813.45926041683,"duration":652.7776145833195,"noteNumber":50,"velocity":110,"programNumber":25},{"time":242480.12576041682,"duration":652.7776145833195,"noteNumber":57,"velocity":110,"programNumber":25},{"time":243146.7922604168,"duration":652.7776145833195,"noteNumber":57,"velocity":110,"programNumber":25},{"time":243813.4587604168,"duration":652.7776145833195,"noteNumber":55,"velocity":110,"programNumber":25},{"time":244480.1252604168,"duration":652.7776145833195,"noteNumber":55,"velocity":110,"programNumber":25},{"time":245146.7917604168,"duration":652.7776145833195,"noteNumber":57,"velocity":110,"programNumber":25},{"time":245813.45826041678,"duration":1319.4441145833407,"noteNumber":50,"velocity":110,"programNumber":25},{"time":247146.7912604168,"duration":652.7776145833195,"noteNumber":50,"velocity":110,"programNumber":25},{"time":247813.4577604168,"duration":652.7776145833195,"noteNumber":45,"velocity":110,"programNumber":25},{"time":248480.12426041678,"duration":652.7776145833195,"noteNumber":45,"velocity":110,"programNumber":25},{"time":249146.79076041677,"duration":652.7776145833195,"noteNumber":50,"velocity":110,"programNumber":25},{"time":249813.45726041676,"duration":652.7776145833195,"noteNumber":50,"velocity":110,"programNumber":25},{"time":250480.12376041675,"duration":652.7776145833195,"noteNumber":52,"velocity":110,"programNumber":25},{"time":251146.79026041675,"duration":652.7776145833195,"noteNumber":52,"velocity":110,"programNumber":25},{"time":251813.45676041674,"duration":652.7776145833195,"noteNumber":53,"velocity":110,"programNumber":25},{"time":252480.12326041673,"duration":652.7776145833195,"noteNumber":53,"velocity":110,"programNumber":25},{"time":253146.78976041672,"duration":652.7776145833195,"noteNumber":55,"velocity":110,"programNumber":25},{"time":253813.45626041671,"duration":652.7776145833195,"noteNumber":55,"velocity":110,"programNumber":25},{"time":254480.1227604167,"duration":652.7776145833195,"noteNumber":53,"velocity":110,"programNumber":25},{"time":255146.7892604167,"duration":652.7776145833195,"noteNumber":53,"velocity":110,"programNumber":25},{"time":255813.4557604167,"duration":652.7776145833195,"noteNumber":52,"velocity":110,"programNumber":25},{"time":256480.12226041668,"duration":5111.109833333321,"noteNumber":50,"velocity":110,"programNumber":25},{"time":256480.12226041668,"duration":5111.109833333321,"noteNumber":57,"velocity":110,"programNumber":25},{"time":261813.45426041668,"duration":5111.10983333335,"noteNumber":50,"velocity":110,"programNumber":25},{"time":261813.45426041668,"duration":5111.10983333335,"noteNumber":57,"velocity":110,"programNumber":25},{"time":267146.7862604167,"duration":5111.10983333335,"noteNumber":46,"velocity":110,"programNumber":25},{"time":267146.7862604167,"duration":5111.10983333335,"noteNumber":53,"velocity":110,"programNumber":25},{"time":272480.11826041667,"duration":5111.10983333335,"noteNumber":46,"velocity":110,"programNumber":25},{"time":272480.11826041667,"duration":5111.10983333335,"noteNumber":53,"velocity":110,"programNumber":25},{"time":277813.45026041666,"duration":5111.10983333335,"noteNumber":48,"velocity":110,"programNumber":25},{"time":277813.45026041666,"duration":5111.10983333335,"noteNumber":55,"velocity":110,"programNumber":25},{"time":283146.78226041666,"duration":5111.10983333335,"noteNumber":48,"velocity":110,"programNumber":25},{"time":283146.78226041666,"duration":5111.10983333335,"noteNumber":55,"velocity":110,"programNumber":25},{"time":288480.11426041665,"duration":5111.10983333335,"noteNumber":50,"velocity":110,"programNumber":25},{"time":288480.11426041665,"duration":5111.10983333335,"noteNumber":57,"velocity":110,"programNumber":25},{"time":293813.44626041665,"duration":5111.10983333335,"noteNumber":50,"velocity":110,"programNumber":25},{"time":293813.44626041665,"duration":5111.10983333335,"noteNumber":57,"velocity":110,"programNumber":25},{"time":299146.77826041664,"duration":5111.10983333335,"noteNumber":50,"velocity":110,"programNumber":25},{"time":299146.77826041664,"duration":5111.10983333335,"noteNumber":57,"velocity":110,"programNumber":25},{"time":304480.11026041664,"duration":5111.10983333335,"noteNumber":50,"velocity":110,"programNumber":25},{"time":304480.11026041664,"duration":5111.10983333335,"noteNumber":57,"velocity":110,"programNumber":25},{"time":309813.44226041663,"duration":5111.10983333335,"noteNumber":46,"velocity":110,"programNumber":25},{"time":309813.44226041663,"duration":5111.10983333335,"noteNumber":53,"velocity":110,"programNumber":25},{"time":315146.7742604166,"duration":5111.10983333335,"noteNumber":46,"velocity":110,"programNumber":25},{"time":315146.7742604166,"duration":5111.10983333335,"noteNumber":53,"velocity":110,"programNumber":25},{"time":320480.1062604166,"duration":5111.10983333335,"noteNumber":48,"velocity":110,"programNumber":25},{"time":320480.1062604166,"duration":5111.10983333335,"noteNumber":55,"velocity":110,"programNumber":25},{"time":325813.4382604166,"duration":5111.10983333335,"noteNumber":48,"velocity":110,"programNumber":25},{"time":325813.4382604166,"duration":5111.10983333335,"noteNumber":55,"velocity":110,"programNumber":25},{"time":331146.7702604166,"duration":5111.10983333335,"noteNumber":50,"velocity":110,"programNumber":25},{"time":331146.7702604166,"duration":5111.10983333335,"noteNumber":57,"velocity":110,"programNumber":25},{"time":336480.1022604166,"duration":5111.10983333335,"noteNumber":50,"velocity":110,"programNumber":25},{"time":336480.1022604166,"duration":5111.10983333335,"noteNumber":57,"velocity":110,"programNumber":25},{"time":341813.4342604166,"duration":5111.10983333335,"noteNumber":46,"velocity":110,"programNumber":25},{"time":341813.4342604166,"duration":5111.10983333335,"noteNumber":53,"velocity":110,"programNumber":25},{"time":347146.7662604166,"duration":5111.10983333335,"noteNumber":48,"velocity":110,"programNumber":25},{"time":347146.7662604166,"duration":5111.10983333335,"noteNumber":55,"velocity":110,"programNumber":25},{"time":352480.0982604166,"duration":5111.10983333335,"noteNumber":50,"velocity":110,"programNumber":25},{"time":352480.0982604166,"duration":5111.10983333335,"noteNumber":57,"velocity":110,"programNumber":25},{"time":357813.4302604166,"duration":5111.10983333335,"noteNumber":48,"velocity":110,"programNumber":25},{"time":357813.4302604166,"duration":5111.10983333335,"noteNumber":55,"velocity":110,"programNumber":25},{"time":363146.7622604166,"duration":5111.10983333335,"noteNumber":46,"velocity":110,"programNumber":25},{"time":363146.7622604166,"duration":5111.10983333335,"noteNumber":53,"velocity":110,"programNumber":25},{"time":368480.0942604166,"duration":2444.4438333333237,"noteNumber":53,"velocity":110,"programNumber":25},{"time":368480.0942604166,"duration":2444.4438333333237,"noteNumber":60,"velocity":110,"programNumber":25},{"time":371146.76026041654,"duration":2444.4438333333237,"noteNumber":55,"velocity":110,"programNumber":25},{"time":371146.76026041654,"duration":2444.4438333333237,"noteNumber":62,"velocity":110,"programNumber":25},{"time":373813.4262604165,"duration":10444.441833333345,"noteNumber":50,"velocity":110,"programNumber":25},{"time":373813.4262604165,"duration":10444.441833333345,"noteNumber":57,"velocity":110,"programNumber":25},{"time":384480.0902604165,"duration":5111.10983333335,"noteNumber":46,"velocity":110,"programNumber":25},{"time":384480.0902604165,"duration":5111.10983333335,"noteNumber":53,"velocity":110,"programNumber":25},{"time":389813.4222604165,"duration":5111.10983333335,"noteNumber":48,"velocity":110,"programNumber":25},{"time":389813.4222604165,"duration":5111.10983333335,"noteNumber":55,"velocity":110,"programNumber":25},{"time":395146.7542604165,"duration":5111.10983333335,"noteNumber":50,"velocity":110,"programNumber":25},{"time":395146.7542604165,"duration":5111.10983333335,"noteNumber":57,"velocity":110,"programNumber":25},{"time":400480.0862604165,"duration":5111.10983333335,"noteNumber":48,"velocity":110,"programNumber":25},{"time":400480.0862604165,"duration":5111.10983333335,"noteNumber":55,"velocity":110,"programNumber":25},{"time":405813.4182604165,"duration":5111.10983333335,"noteNumber":46,"velocity":110,"programNumber":25},{"time":405813.4182604165,"duration":5111.10983333335,"noteNumber":53,"velocity":110,"programNumber":25},{"time":411146.7502604165,"duration":2444.4438333333237,"noteNumber":53,"velocity":110,"programNumber":25},{"time":411146.7502604165,"duration":2444.4438333333237,"noteNumber":60,"velocity":110,"programNumber":25},{"time":413813.41626041644,"duration":2444.4438333333237,"noteNumber":55,"velocity":110,"programNumber":25},{"time":413813.41626041644,"duration":2444.4438333333237,"noteNumber":62,"velocity":110,"programNumber":25},{"time":416480.0822604164,"duration":10444.441833333345,"noteNumber":50,"velocity":110,"programNumber":25},{"time":416480.0822604164,"duration":10444.441833333345,"noteNumber":57,"velocity":110,"programNumber":25},{"time":427146.7462604164,"duration":5111.10983333335,"noteNumber":50,"velocity":110,"programNumber":25},{"time":427146.7462604164,"duration":5111.10983333335,"noteNumber":57,"velocity":110,"programNumber":25},{"time":432480.0782604164,"duration":5111.10983333335,"noteNumber":46,"velocity":110,"programNumber":25},{"time":432480.0782604164,"duration":5111.10983333335,"noteNumber":53,"velocity":110,"programNumber":25},{"time":437813.4102604164,"duration":5111.10983333335,"noteNumber":48,"velocity":110,"programNumber":25},{"time":437813.4102604164,"duration":5111.10983333335,"noteNumber":55,"velocity":110,"programNumber":25},{"time":443146.7422604164,"duration":2444.4438333333237,"noteNumber":50,"velocity":110,"programNumber":25},{"time":443146.7422604164,"duration":2444.4438333333237,"noteNumber":57,"velocity":110,"programNumber":25},{"time":445813.40826041636,"duration":2444.4438333333237,"noteNumber":48,"velocity":110,"programNumber":25},{"time":445813.40826041636,"duration":2444.4438333333237,"noteNumber":55,"velocity":110,"programNumber":25},{"time":448480.0742604163,"duration":5111.10983333335,"noteNumber":50,"velocity":110,"programNumber":25},{"time":448480.0742604163,"duration":5111.10983333335,"noteNumber":57,"velocity":110,"programNumber":25},{"time":453717.76626041636,"duration":2987.0100000000093,"noteNumber":46,"velocity":110,"programNumber":25},{"time":453717.76626041636,"duration":2987.0100000000093,"noteNumber":53,"velocity":110,"programNumber":25},{"time":456838.1095937497,"duration":6438.349833333341,"noteNumber":48,"velocity":110,"programNumber":25},{"time":456838.1095937497,"duration":6438.349833333341,"noteNumber":55,"velocity":110,"programNumber":25},{"time":463417.304427083,"duration":3333.3325000000186,"noteNumber":50,"velocity":110,"programNumber":25},{"time":463417.304427083,"duration":3333.3325000000186,"noteNumber":57,"velocity":110,"programNumber":25},{"time":466899.8905937497,"duration":3538.457999999984,"noteNumber":46,"velocity":110,"programNumber":25},{"time":466899.8905937497,"duration":3538.457999999984,"noteNumber":53,"velocity":110,"programNumber":25},{"time":470597.07859374967,"duration":3770.489666666661,"noteNumber":48,"velocity":110,"programNumber":25},{"time":470597.07859374967,"duration":3770.489666666661,"noteNumber":55,"velocity":110,"programNumber":25},{"time":474537.05976041633,"duration":1929.8234999999986,"noteNumber":53,"velocity":110,"programNumber":25},{"time":474537.05976041633,"duration":1929.8234999999986,"noteNumber":60,"velocity":110,"programNumber":25},{"time":476648.701427083,"duration":2075.4708333333256,"noteNumber":55,"velocity":110,"programNumber":25},{"time":476648.701427083,"duration":2075.4708333333256,"noteNumber":62,"velocity":110,"programNumber":25},{"time":478920.25059374963,"duration":4693.874499999976,"noteNumber":50,"velocity":110,"programNumber":25},{"time":478920.25059374963,"duration":4693.874499999976,"noteNumber":57,"velocity":110,"programNumber":25},{"time":483826.8909270829,"duration":5111.10983333335,"noteNumber":46,"velocity":110,"programNumber":25},{"time":483826.8909270829,"duration":5111.10983333335,"noteNumber":53,"velocity":110,"programNumber":25},{"time":489160.2229270829,"duration":10444.441833333345,"noteNumber":48,"velocity":110,"programNumber":25},{"time":489160.2229270829,"duration":10444.441833333345,"noteNumber":55,"velocity":110,"programNumber":25},{"time":499826.8869270829,"duration":1319.4441145833116,"noteNumber":46,"velocity":110,"programNumber":25},{"time":499826.8869270829,"duration":1319.4441145833116,"noteNumber":53,"velocity":110,"programNumber":25},{"time":501160.2199270829,"duration":319.4443645833526,"noteNumber":46,"velocity":110,"programNumber":25},{"time":501160.2199270829,"duration":319.4443645833526,"noteNumber":53,"velocity":110,"programNumber":25},{"time":501493.5531770829,"duration":319.4443645833526,"noteNumber":46,"velocity":110,"programNumber":25},{"time":501493.5531770829,"duration":319.4443645833526,"noteNumber":53,"velocity":110,"programNumber":25},{"time":501826.88642708294,"duration":652.7776145833195,"noteNumber":46,"velocity":110,"programNumber":25},{"time":501826.88642708294,"duration":652.7776145833195,"noteNumber":53,"velocity":110,"programNumber":25},{"time":502493.5529270829,"duration":319.4443645833526,"noteNumber":46,"velocity":110,"programNumber":25},{"time":502493.5529270829,"duration":319.4443645833526,"noteNumber":53,"velocity":110,"programNumber":25},{"time":502826.88617708295,"duration":319.4443645833526,"noteNumber":46,"velocity":110,"programNumber":25},{"time":502826.88617708295,"duration":319.4443645833526,"noteNumber":53,"velocity":110,"programNumber":25},{"time":503160.219427083,"duration":652.7776145833195,"noteNumber":48,"velocity":110,"programNumber":25},{"time":503160.219427083,"duration":652.7776145833195,"noteNumber":55,"velocity":110,"programNumber":25},{"time":503826.88592708297,"duration":319.4443645833526,"noteNumber":48,"velocity":110,"programNumber":25},{"time":503826.88592708297,"duration":319.4443645833526,"noteNumber":55,"velocity":110,"programNumber":25},{"time":504160.219177083,"duration":319.4443645833526,"noteNumber":48,"velocity":110,"programNumber":25},{"time":504160.219177083,"duration":319.4443645833526,"noteNumber":55,"velocity":110,"programNumber":25},{"time":504493.552427083,"duration":652.7776145833195,"noteNumber":48,"velocity":110,"programNumber":25},{"time":504493.552427083,"duration":652.7776145833195,"noteNumber":55,"velocity":110,"programNumber":25},{"time":505160.218927083,"duration":319.4443645833526,"noteNumber":48,"velocity":110,"programNumber":25},{"time":505160.218927083,"duration":319.4443645833526,"noteNumber":55,"velocity":110,"programNumber":25},{"time":505493.55217708304,"duration":319.4443645833526,"noteNumber":48,"velocity":110,"programNumber":25},{"time":505493.55217708304,"duration":319.4443645833526,"noteNumber":55,"velocity":110,"programNumber":25},{"time":505826.88542708306,"duration":652.7776145833195,"noteNumber":50,"velocity":110,"programNumber":25},{"time":505826.88542708306,"duration":652.7776145833195,"noteNumber":57,"velocity":110,"programNumber":25},{"time":506493.55192708306,"duration":319.4443645833526,"noteNumber":50,"velocity":110,"programNumber":25},{"time":506493.55192708306,"duration":319.4443645833526,"noteNumber":57,"velocity":110,"programNumber":25},{"time":506826.8851770831,"duration":319.4443645833526,"noteNumber":50,"velocity":110,"programNumber":25},{"time":506826.8851770831,"duration":319.4443645833526,"noteNumber":57,"velocity":110,"programNumber":25},{"time":507160.2184270831,"duration":652.7776145833195,"noteNumber":50,"velocity":110,"programNumber":25},{"time":507160.2184270831,"duration":652.7776145833195,"noteNumber":57,"velocity":110,"programNumber":25},{"time":507826.8849270831,"duration":319.4443645833526,"noteNumber":50,"velocity":110,"programNumber":25},{"time":507826.8849270831,"duration":319.4443645833526,"noteNumber":57,"velocity":110,"programNumber":25},{"time":508160.2181770831,"duration":319.4443645833526,"noteNumber":50,"velocity":110,"programNumber":25},{"time":508160.2181770831,"duration":319.4443645833526,"noteNumber":57,"velocity":110,"programNumber":25},{"time":508493.55142708315,"duration":652.7776145833195,"noteNumber":48,"velocity":110,"programNumber":25},{"time":508493.55142708315,"duration":652.7776145833195,"noteNumber":55,"velocity":110,"programNumber":25},{"time":509160.21792708314,"duration":319.4443645833526,"noteNumber":48,"velocity":110,"programNumber":25},{"time":509160.21792708314,"duration":319.4443645833526,"noteNumber":55,"velocity":110,"programNumber":25},{"time":509493.55117708317,"duration":319.4443645833526,"noteNumber":48,"velocity":110,"programNumber":25},{"time":509493.55117708317,"duration":319.4443645833526,"noteNumber":55,"velocity":110,"programNumber":25},{"time":509826.8844270832,"duration":652.7776145833195,"noteNumber":48,"velocity":110,"programNumber":25},{"time":509826.8844270832,"duration":652.7776145833195,"noteNumber":55,"velocity":110,"programNumber":25},{"time":510493.5509270832,"duration":319.4443645833526,"noteNumber":48,"velocity":110,"programNumber":25},{"time":510493.5509270832,"duration":319.4443645833526,"noteNumber":55,"velocity":110,"programNumber":25},{"time":510826.8841770832,"duration":319.4443645833526,"noteNumber":48,"velocity":110,"programNumber":25},{"time":510826.8841770832,"duration":319.4443645833526,"noteNumber":55,"velocity":110,"programNumber":25},{"time":511160.21742708323,"duration":652.7776145833195,"noteNumber":46,"velocity":110,"programNumber":25},{"time":511160.21742708323,"duration":652.7776145833195,"noteNumber":53,"velocity":110,"programNumber":25},{"time":511826.8839270832,"duration":319.4443645833526,"noteNumber":46,"velocity":110,"programNumber":25},{"time":511826.8839270832,"duration":319.4443645833526,"noteNumber":53,"velocity":110,"programNumber":25},{"time":512160.21717708325,"duration":319.4443645833526,"noteNumber":46,"velocity":110,"programNumber":25},{"time":512160.21717708325,"duration":319.4443645833526,"noteNumber":53,"velocity":110,"programNumber":25},{"time":512493.5504270833,"duration":652.7776145833195,"noteNumber":46,"velocity":110,"programNumber":25},{"time":512493.5504270833,"duration":652.7776145833195,"noteNumber":53,"velocity":110,"programNumber":25},{"time":513160.21692708327,"duration":319.4443645833526,"noteNumber":46,"velocity":110,"programNumber":25},{"time":513160.21692708327,"duration":319.4443645833526,"noteNumber":53,"velocity":110,"programNumber":25},{"time":513493.5501770833,"duration":319.4443645833526,"noteNumber":46,"velocity":110,"programNumber":25},{"time":513493.5501770833,"duration":319.4443645833526,"noteNumber":53,"velocity":110,"programNumber":25},{"time":513826.8834270833,"duration":652.7776145833195,"noteNumber":53,"velocity":110,"programNumber":25},{"time":513826.8834270833,"duration":652.7776145833195,"noteNumber":60,"velocity":110,"programNumber":25},{"time":514493.5499270833,"duration":319.4443645833526,"noteNumber":53,"velocity":110,"programNumber":25},{"time":514493.5499270833,"duration":319.4443645833526,"noteNumber":60,"velocity":110,"programNumber":25},{"time":514826.88317708333,"duration":319.4443645833526,"noteNumber":53,"velocity":110,"programNumber":25},{"time":514826.88317708333,"duration":319.4443645833526,"noteNumber":60,"velocity":110,"programNumber":25},{"time":515160.21642708336,"duration":652.7776145833195,"noteNumber":55,"velocity":110,"programNumber":25},{"time":515160.21642708336,"duration":652.7776145833195,"noteNumber":62,"velocity":110,"programNumber":25},{"time":515826.88292708335,"duration":319.4443645833526,"noteNumber":55,"velocity":110,"programNumber":25},{"time":515826.88292708335,"duration":319.4443645833526,"noteNumber":62,"velocity":110,"programNumber":25},{"time":516160.2161770834,"duration":319.4443645833526,"noteNumber":55,"velocity":110,"programNumber":25},{"time":516160.2161770834,"duration":319.4443645833526,"noteNumber":62,"velocity":110,"programNumber":25},{"time":516493.5494270834,"duration":652.7776145833195,"noteNumber":50,"velocity":110,"programNumber":25},{"time":516493.5494270834,"duration":652.7776145833195,"noteNumber":57,"velocity":110,"programNumber":25},{"time":517160.2159270834,"duration":319.4443645833526,"noteNumber":50,"velocity":110,"programNumber":25},{"time":517160.2159270834,"duration":319.4443645833526,"noteNumber":57,"velocity":110,"programNumber":25},{"time":517493.5491770834,"duration":319.4443645833526,"noteNumber":50,"velocity":110,"programNumber":25},{"time":517493.5491770834,"duration":319.4443645833526,"noteNumber":57,"velocity":110,"programNumber":25},{"time":517826.88242708344,"duration":652.7776145833195,"noteNumber":50,"velocity":110,"programNumber":25},{"time":517826.88242708344,"duration":652.7776145833195,"noteNumber":57,"velocity":110,"programNumber":25},{"time":518493.54892708344,"duration":319.4443645833526,"noteNumber":50,"velocity":110,"programNumber":25},{"time":518493.54892708344,"duration":319.4443645833526,"noteNumber":57,"velocity":110,"programNumber":25},{"time":518826.88217708346,"duration":319.4443645833526,"noteNumber":50,"velocity":110,"programNumber":25},{"time":518826.88217708346,"duration":319.4443645833526,"noteNumber":57,"velocity":110,"programNumber":25},{"time":519160.2154270835,"duration":652.7776145833195,"noteNumber":50,"velocity":110,"programNumber":25},{"time":519160.2154270835,"duration":652.7776145833195,"noteNumber":57,"velocity":110,"programNumber":25},{"time":519826.8819270835,"duration":319.4443645833526,"noteNumber":50,"velocity":110,"programNumber":25},{"time":519826.8819270835,"duration":319.4443645833526,"noteNumber":57,"velocity":110,"programNumber":25},{"time":520160.2151770835,"duration":319.4443645833526,"noteNumber":50,"velocity":110,"programNumber":25},{"time":520160.2151770835,"duration":319.4443645833526,"noteNumber":57,"velocity":110,"programNumber":25},{"time":520493.54842708353,"duration":652.7776145833195,"noteNumber":50,"velocity":110,"programNumber":25},{"time":520493.54842708353,"duration":652.7776145833195,"noteNumber":57,"velocity":110,"programNumber":25},{"time":521160.2149270835,"duration":319.4443645833526,"noteNumber":50,"velocity":110,"programNumber":25},{"time":521160.2149270835,"duration":319.4443645833526,"noteNumber":57,"velocity":110,"programNumber":25},{"time":521493.54817708355,"duration":319.4443645833526,"noteNumber":50,"velocity":110,"programNumber":25},{"time":521493.54817708355,"duration":319.4443645833526,"noteNumber":57,"velocity":110,"programNumber":25},{"time":521826.8814270836,"duration":652.7776145833195,"noteNumber":46,"velocity":110,"programNumber":25},{"time":521826.8814270836,"duration":652.7776145833195,"noteNumber":53,"velocity":110,"programNumber":25},{"time":522493.54792708356,"duration":319.4443645833526,"noteNumber":46,"velocity":110,"programNumber":25},{"time":522493.54792708356,"duration":319.4443645833526,"noteNumber":53,"velocity":110,"programNumber":25},{"time":522826.8811770836,"duration":319.4443645833526,"noteNumber":46,"velocity":110,"programNumber":25},{"time":522826.8811770836,"duration":319.4443645833526,"noteNumber":53,"velocity":110,"programNumber":25},{"time":523160.2144270836,"duration":652.7776145833195,"noteNumber":46,"velocity":110,"programNumber":25},{"time":523160.2144270836,"duration":652.7776145833195,"noteNumber":53,"velocity":110,"programNumber":25},{"time":523826.8809270836,"duration":319.4443645833526,"noteNumber":46,"velocity":110,"programNumber":25},{"time":523826.8809270836,"duration":319.4443645833526,"noteNumber":53,"velocity":110,"programNumber":25},{"time":524160.21417708363,"duration":319.4443645832944,"noteNumber":46,"velocity":110,"programNumber":25},{"time":524160.21417708363,"duration":319.4443645832944,"noteNumber":53,"velocity":110,"programNumber":25},{"time":524493.5474270836,"duration":652.7776145833777,"noteNumber":48,"velocity":110,"programNumber":25},{"time":524493.5474270836,"duration":652.7776145833777,"noteNumber":55,"velocity":110,"programNumber":25},{"time":525160.2139270836,"duration":319.4443645833526,"noteNumber":48,"velocity":110,"programNumber":25},{"time":525160.2139270836,"duration":319.4443645833526,"noteNumber":55,"velocity":110,"programNumber":25},{"time":525493.5471770837,"duration":319.4443645833526,"noteNumber":48,"velocity":110,"programNumber":25},{"time":525493.5471770837,"duration":319.4443645833526,"noteNumber":55,"velocity":110,"programNumber":25},{"time":525826.8804270837,"duration":652.7776145833777,"noteNumber":48,"velocity":110,"programNumber":25},{"time":525826.8804270837,"duration":652.7776145833777,"noteNumber":55,"velocity":110,"programNumber":25},{"time":526493.5469270837,"duration":319.4443645833526,"noteNumber":48,"velocity":110,"programNumber":25},{"time":526493.5469270837,"duration":319.4443645833526,"noteNumber":55,"velocity":110,"programNumber":25},{"time":526826.8801770838,"duration":319.4443645833526,"noteNumber":48,"velocity":110,"programNumber":25},{"time":526826.8801770838,"duration":319.4443645833526,"noteNumber":55,"velocity":110,"programNumber":25},{"time":527160.2134270838,"duration":652.7776145833777,"noteNumber":50,"velocity":110,"programNumber":25},{"time":527160.2134270838,"duration":652.7776145833777,"noteNumber":57,"velocity":110,"programNumber":25},{"time":527826.8799270838,"duration":319.4443645833526,"noteNumber":50,"velocity":110,"programNumber":25},{"time":527826.8799270838,"duration":319.4443645833526,"noteNumber":57,"velocity":110,"programNumber":25},{"time":528160.2131770839,"duration":319.4443645833526,"noteNumber":50,"velocity":110,"programNumber":25},{"time":528160.2131770839,"duration":319.4443645833526,"noteNumber":57,"velocity":110,"programNumber":25},{"time":528493.5464270839,"duration":652.7776145833777,"noteNumber":50,"velocity":110,"programNumber":25},{"time":528493.5464270839,"duration":652.7776145833777,"noteNumber":57,"velocity":110,"programNumber":25},{"time":529160.212927084,"duration":319.4443645833526,"noteNumber":50,"velocity":110,"programNumber":25},{"time":529160.212927084,"duration":319.4443645833526,"noteNumber":57,"velocity":110,"programNumber":25},{"time":529493.546177084,"duration":319.4443645833526,"noteNumber":50,"velocity":110,"programNumber":25},{"time":529493.546177084,"duration":319.4443645833526,"noteNumber":57,"velocity":110,"programNumber":25},{"time":529826.879427084,"duration":652.7776145833777,"noteNumber":48,"velocity":110,"programNumber":25},{"time":529826.879427084,"duration":652.7776145833777,"noteNumber":55,"velocity":110,"programNumber":25},{"time":530493.545927084,"duration":319.4443645833526,"noteNumber":48,"velocity":110,"programNumber":25},{"time":530493.545927084,"duration":319.4443645833526,"noteNumber":55,"velocity":110,"programNumber":25},{"time":530826.8791770841,"duration":319.4443645833526,"noteNumber":48,"velocity":110,"programNumber":25},{"time":530826.8791770841,"duration":319.4443645833526,"noteNumber":55,"velocity":110,"programNumber":25},{"time":531160.2124270841,"duration":652.7776145833777,"noteNumber":48,"velocity":110,"programNumber":25},{"time":531160.2124270841,"duration":652.7776145833777,"noteNumber":55,"velocity":110,"programNumber":25},{"time":531826.8789270842,"duration":319.4443645833526,"noteNumber":48,"velocity":110,"programNumber":25},{"time":531826.8789270842,"duration":319.4443645833526,"noteNumber":55,"velocity":110,"programNumber":25},{"time":532160.2121770842,"duration":319.4443645833526,"noteNumber":48,"velocity":110,"programNumber":25},{"time":532160.2121770842,"duration":319.4443645833526,"noteNumber":55,"velocity":110,"programNumber":25},{"time":532493.5454270842,"duration":652.7776145833777,"noteNumber":46,"velocity":110,"programNumber":25},{"time":532493.5454270842,"duration":652.7776145833777,"noteNumber":53,"velocity":110,"programNumber":25},{"time":533160.2119270843,"duration":319.4443645833526,"noteNumber":46,"velocity":110,"programNumber":25},{"time":533160.2119270843,"duration":319.4443645833526,"noteNumber":53,"velocity":110,"programNumber":25},{"time":533493.5451770843,"duration":319.4443645833526,"noteNumber":46,"velocity":110,"programNumber":25},{"time":533493.5451770843,"duration":319.4443645833526,"noteNumber":53,"velocity":110,"programNumber":25},{"time":533826.8784270843,"duration":652.7776145833777,"noteNumber":46,"velocity":110,"programNumber":25},{"time":533826.8784270843,"duration":652.7776145833777,"noteNumber":53,"velocity":110,"programNumber":25},{"time":534493.5449270844,"duration":319.4443645833526,"noteNumber":46,"velocity":110,"programNumber":25},{"time":534493.5449270844,"duration":319.4443645833526,"noteNumber":53,"velocity":110,"programNumber":25},{"time":534826.8781770844,"duration":319.4443645833526,"noteNumber":46,"velocity":110,"programNumber":25},{"time":534826.8781770844,"duration":319.4443645833526,"noteNumber":53,"velocity":110,"programNumber":25},{"time":535160.2114270844,"duration":652.7776145833777,"noteNumber":53,"velocity":110,"programNumber":25},{"time":535160.2114270844,"duration":652.7776145833777,"noteNumber":60,"velocity":110,"programNumber":25},{"time":535826.8779270845,"duration":319.4443645833526,"noteNumber":53,"velocity":110,"programNumber":25},{"time":535826.8779270845,"duration":319.4443645833526,"noteNumber":60,"velocity":110,"programNumber":25},{"time":536160.2111770845,"duration":319.4443645833526,"noteNumber":53,"velocity":110,"programNumber":25},{"time":536160.2111770845,"duration":319.4443645833526,"noteNumber":60,"velocity":110,"programNumber":25},{"time":536493.5444270845,"duration":652.7776145833777,"noteNumber":55,"velocity":110,"programNumber":25},{"time":536493.5444270845,"duration":652.7776145833777,"noteNumber":62,"velocity":110,"programNumber":25},{"time":537160.2109270846,"duration":319.4443645833526,"noteNumber":55,"velocity":110,"programNumber":25},{"time":537160.2109270846,"duration":319.4443645833526,"noteNumber":62,"velocity":110,"programNumber":25},{"time":537493.5441770846,"duration":319.4443645833526,"noteNumber":55,"velocity":110,"programNumber":25},{"time":537493.5441770846,"duration":319.4443645833526,"noteNumber":62,"velocity":110,"programNumber":25},{"time":537826.8774270846,"duration":652.7776145833777,"noteNumber":50,"velocity":110,"programNumber":25},{"time":537826.8774270846,"duration":652.7776145833777,"noteNumber":57,"velocity":110,"programNumber":25},{"time":538493.5439270847,"duration":319.4443645833526,"noteNumber":50,"velocity":110,"programNumber":25},{"time":538493.5439270847,"duration":319.4443645833526,"noteNumber":57,"velocity":110,"programNumber":25},{"time":538826.8771770847,"duration":319.4443645833526,"noteNumber":50,"velocity":110,"programNumber":25},{"time":538826.8771770847,"duration":319.4443645833526,"noteNumber":57,"velocity":110,"programNumber":25},{"time":539160.2104270847,"duration":652.7776145833777,"noteNumber":50,"velocity":110,"programNumber":25},{"time":539160.2104270847,"duration":652.7776145833777,"noteNumber":57,"velocity":110,"programNumber":25},{"time":539826.8769270848,"duration":319.4443645833526,"noteNumber":50,"velocity":110,"programNumber":25},{"time":539826.8769270848,"duration":319.4443645833526,"noteNumber":57,"velocity":110,"programNumber":25},{"time":540160.2101770848,"duration":319.4443645833526,"noteNumber":50,"velocity":110,"programNumber":25},{"time":540160.2101770848,"duration":319.4443645833526,"noteNumber":57,"velocity":110,"programNumber":25},{"time":540493.5434270848,"duration":652.7776145833777,"noteNumber":50,"velocity":110,"programNumber":25},{"time":540493.5434270848,"duration":652.7776145833777,"noteNumber":57,"velocity":110,"programNumber":25},{"time":541160.2099270849,"duration":319.4443645833526,"noteNumber":50,"velocity":110,"programNumber":25},{"time":541160.2099270849,"duration":319.4443645833526,"noteNumber":57,"velocity":110,"programNumber":25},{"time":541493.5431770849,"duration":319.4443645833526,"noteNumber":50,"velocity":110,"programNumber":25},{"time":541493.5431770849,"duration":319.4443645833526,"noteNumber":57,"velocity":110,"programNumber":25},{"time":541826.8764270849,"duration":986.1108645832865,"noteNumber":50,"velocity":110,"programNumber":25},{"time":541826.8764270849,"duration":986.1108645832865,"noteNumber":57,"velocity":110,"programNumber":25},{"time":542826.8761770849,"duration":986.1108645832865,"noteNumber":50,"velocity":110,"programNumber":25},{"time":543826.8759270848,"duration":652.7776145833777,"noteNumber":50,"velocity":110,"programNumber":25},{"time":544493.5424270849,"duration":652.7776145833777,"noteNumber":57,"velocity":110,"programNumber":25},{"time":545160.2089270849,"duration":652.7776145833777,"noteNumber":57,"velocity":110,"programNumber":25},{"time":545826.875427085,"duration":652.7776145833777,"noteNumber":55,"velocity":110,"programNumber":25},{"time":546493.541927085,"duration":652.7776145833777,"noteNumber":55,"velocity":110,"programNumber":25},{"time":547160.2084270851,"duration":652.7776145833777,"noteNumber":57,"velocity":110,"programNumber":25},{"time":547826.8749270851,"duration":652.7776145833777,"noteNumber":57,"velocity":110,"programNumber":25},{"time":548493.5414270852,"duration":652.7776145833777,"noteNumber":50,"velocity":110,"programNumber":25},{"time":549160.2079270852,"duration":652.7776145833777,"noteNumber":50,"velocity":110,"programNumber":25},{"time":549826.8744270853,"duration":652.7776145833777,"noteNumber":57,"velocity":110,"programNumber":25},{"time":550493.5409270853,"duration":652.7776145833777,"noteNumber":57,"velocity":110,"programNumber":25},{"time":551160.2074270854,"duration":652.7776145833777,"noteNumber":55,"velocity":110,"programNumber":25},{"time":551826.8739270854,"duration":652.7776145833777,"noteNumber":55,"velocity":110,"programNumber":25},{"time":552493.5404270855,"duration":652.7776145833777,"noteNumber":57,"velocity":110,"programNumber":25},{"time":553160.2069270855,"duration":1319.4441145833116,"noteNumber":50,"velocity":110,"programNumber":25},{"time":554493.5399270855,"duration":652.7776145833777,"noteNumber":50,"velocity":110,"programNumber":25},{"time":555160.2064270856,"duration":652.7776145833777,"noteNumber":57,"velocity":110,"programNumber":25},{"time":555826.8729270856,"duration":652.7776145833777,"noteNumber":57,"velocity":110,"programNumber":25},{"time":556493.5394270857,"duration":652.7776145833777,"noteNumber":55,"velocity":110,"programNumber":25},{"time":557160.2059270857,"duration":652.7776145833777,"noteNumber":55,"velocity":110,"programNumber":25},{"time":557826.8724270858,"duration":652.7776145833777,"noteNumber":57,"velocity":110,"programNumber":25},{"time":558493.5389270858,"duration":652.7776145833777,"noteNumber":57,"velocity":110,"programNumber":25},{"time":559160.2054270859,"duration":652.7776145833777,"noteNumber":50,"velocity":110,"programNumber":25},{"time":559826.8719270859,"duration":652.7776145833777,"noteNumber":50,"velocity":110,"programNumber":25},{"time":560493.538427086,"duration":652.7776145833777,"noteNumber":57,"velocity":110,"programNumber":25},{"time":561160.204927086,"duration":652.7776145833777,"noteNumber":57,"velocity":110,"programNumber":25},{"time":561826.8714270861,"duration":652.7776145833777,"noteNumber":55,"velocity":110,"programNumber":25},{"time":562493.5379270861,"duration":652.7776145833777,"noteNumber":55,"velocity":110,"programNumber":25},{"time":563160.2044270862,"duration":652.7776145833777,"noteNumber":57,"velocity":110,"programNumber":25},{"time":563826.8709270862,"duration":1319.4441145833116,"noteNumber":50,"velocity":110,"programNumber":25},{"time":565160.2039270862,"duration":652.7776145833777,"noteNumber":50,"velocity":110,"programNumber":25},{"time":565826.8704270863,"duration":652.7776145833777,"noteNumber":57,"velocity":110,"programNumber":25},{"time":566493.5369270863,"duration":652.7776145833777,"noteNumber":57,"velocity":110,"programNumber":25},{"time":567160.2034270864,"duration":652.7776145833777,"noteNumber":55,"velocity":110,"programNumber":25},{"time":567826.8699270864,"duration":652.7776145833777,"noteNumber":55,"velocity":110,"programNumber":25},{"time":568493.5364270865,"duration":652.7776145833777,"noteNumber":57,"velocity":110,"programNumber":25},{"time":569160.2029270865,"duration":652.7776145833777,"noteNumber":57,"velocity":110,"programNumber":25},{"time":569826.8694270866,"duration":652.7776145833777,"noteNumber":50,"velocity":110,"programNumber":25},{"time":570493.5359270866,"duration":652.7776145833777,"noteNumber":50,"velocity":110,"programNumber":25},{"time":571160.2024270867,"duration":652.7776145833777,"noteNumber":57,"velocity":110,"programNumber":25},{"time":571826.8689270867,"duration":652.7776145833777,"noteNumber":57,"velocity":110,"programNumber":25},{"time":572493.5354270868,"duration":652.7776145833777,"noteNumber":55,"velocity":110,"programNumber":25},{"time":573160.2019270868,"duration":652.7776145833777,"noteNumber":55,"velocity":110,"programNumber":25},{"time":573826.8684270869,"duration":652.7776145833777,"noteNumber":57,"velocity":110,"programNumber":25},{"time":574493.5349270869,"duration":1319.4441145833116,"noteNumber":50,"velocity":110,"programNumber":25},{"time":575826.8679270869,"duration":652.7776145833777,"noteNumber":50,"velocity":110,"programNumber":25},{"time":576493.5344270869,"duration":652.7776145833777,"noteNumber":45,"velocity":110,"programNumber":25},{"time":577160.200927087,"duration":652.7776145833777,"noteNumber":45,"velocity":110,"programNumber":25},{"time":577826.867427087,"duration":652.7776145833777,"noteNumber":50,"velocity":110,"programNumber":25},{"time":578493.5339270871,"duration":652.7776145833777,"noteNumber":50,"velocity":110,"programNumber":25},{"time":579160.2004270871,"duration":652.7776145833777,"noteNumber":52,"velocity":110,"programNumber":25},{"time":579826.8669270872,"duration":652.7776145833777,"noteNumber":52,"velocity":110,"programNumber":25},{"time":580493.5334270872,"duration":652.7776145833777,"noteNumber":53,"velocity":110,"programNumber":25},{"time":581160.1999270873,"duration":652.7776145833777,"noteNumber":53,"velocity":110,"programNumber":25},{"time":581826.8664270873,"duration":652.7776145833777,"noteNumber":55,"velocity":110,"programNumber":25},{"time":582493.5329270874,"duration":652.7776145833777,"noteNumber":55,"velocity":110,"programNumber":25},{"time":583160.1994270874,"duration":652.7776145833777,"noteNumber":53,"velocity":110,"programNumber":25},{"time":583826.8659270875,"duration":652.7776145833777,"noteNumber":53,"velocity":110,"programNumber":25},{"time":584493.5324270875,"duration":652.7776145833777,"noteNumber":52,"velocity":110,"programNumber":25},{"time":585160.1989270876,"duration":1319.4441145833116,"noteNumber":50,"velocity":110,"programNumber":25},{"time":586493.5319270876,"duration":652.7776145833777,"noteNumber":50,"velocity":110,"programNumber":25},{"time":587160.1984270876,"duration":652.7776145833777,"noteNumber":57,"velocity":110,"programNumber":25},{"time":587826.8649270877,"duration":652.7776145833777,"noteNumber":57,"velocity":110,"programNumber":25},{"time":588493.5314270877,"duration":652.7776145833777,"noteNumber":55,"velocity":110,"programNumber":25},{"time":589160.1979270878,"duration":652.7776145833777,"noteNumber":55,"velocity":110,"programNumber":25},{"time":589826.8644270878,"duration":652.7776145833777,"noteNumber":57,"velocity":110,"programNumber":25},{"time":590493.5309270879,"duration":652.7776145833777,"noteNumber":57,"velocity":110,"programNumber":25},{"time":591160.1974270879,"duration":652.7776145833777,"noteNumber":50,"velocity":110,"programNumber":25},{"time":591826.863927088,"duration":652.7776145833777,"noteNumber":50,"velocity":110,"programNumber":25},{"time":592493.530427088,"duration":652.7776145833777,"noteNumber":57,"velocity":110,"programNumber":25},{"time":593160.1969270881,"duration":652.7776145833777,"noteNumber":57,"velocity":110,"programNumber":25},{"time":593826.8634270881,"duration":652.7776145833777,"noteNumber":55,"velocity":110,"programNumber":25},{"time":594493.5299270882,"duration":652.7776145833777,"noteNumber":55,"velocity":110,"programNumber":25},{"time":595160.1964270882,"duration":652.7776145833777,"noteNumber":57,"velocity":110,"programNumber":25},{"time":595826.8629270883,"duration":1319.4441145833116,"noteNumber":50,"velocity":110,"programNumber":25},{"time":597160.1959270883,"duration":652.7776145833777,"noteNumber":50,"velocity":110,"programNumber":25},{"time":597826.8624270883,"duration":652.7776145833777,"noteNumber":57,"velocity":110,"programNumber":25},{"time":598493.5289270884,"duration":652.7776145833777,"noteNumber":57,"velocity":110,"programNumber":25},{"time":599160.1954270884,"duration":652.7776145833777,"noteNumber":55,"velocity":110,"programNumber":25},{"time":599826.8619270885,"duration":652.7776145833777,"noteNumber":55,"velocity":110,"programNumber":25},{"time":600493.5284270885,"duration":652.7776145833777,"noteNumber":57,"velocity":110,"programNumber":25},{"time":601160.1949270886,"duration":652.7776145833777,"noteNumber":57,"velocity":110,"programNumber":25},{"time":601826.8614270886,"duration":652.7776145833777,"noteNumber":50,"velocity":110,"programNumber":25},{"time":602493.5279270887,"duration":652.7776145833777,"noteNumber":50,"velocity":110,"programNumber":25},{"time":603160.1944270887,"duration":652.7776145833777,"noteNumber":57,"velocity":110,"programNumber":25},{"time":603826.8609270888,"duration":652.7776145833777,"noteNumber":57,"velocity":110,"programNumber":25},{"time":604493.5274270888,"duration":652.7776145833777,"noteNumber":55,"velocity":110,"programNumber":25},{"time":605160.1939270889,"duration":652.7776145833777,"noteNumber":55,"velocity":110,"programNumber":25},{"time":605826.8604270889,"duration":652.7776145833777,"noteNumber":57,"velocity":110,"programNumber":25},{"time":606493.526927089,"duration":1319.4441145833116,"noteNumber":50,"velocity":110,"programNumber":25},{"time":607826.859927089,"duration":652.7776145833777,"noteNumber":50,"velocity":110,"programNumber":25},{"time":608493.526427089,"duration":652.7776145833777,"noteNumber":57,"velocity":110,"programNumber":25},{"time":609160.192927089,"duration":652.7776145833777,"noteNumber":57,"velocity":110,"programNumber":25},{"time":609826.8594270891,"duration":652.7776145833777,"noteNumber":55,"velocity":110,"programNumber":25},{"time":610493.5259270892,"duration":652.7776145833777,"noteNumber":55,"velocity":110,"programNumber":25},{"time":611160.1924270892,"duration":652.7776145833777,"noteNumber":57,"velocity":110,"programNumber":25},{"time":611826.8589270893,"duration":652.7776145833777,"noteNumber":57,"velocity":110,"programNumber":25},{"time":612493.5254270893,"duration":652.7776145833777,"noteNumber":50,"velocity":110,"programNumber":25},{"time":613160.1919270894,"duration":652.7776145833777,"noteNumber":50,"velocity":110,"programNumber":25},{"time":613826.8584270894,"duration":652.7776145833777,"noteNumber":57,"velocity":110,"programNumber":25},{"time":614493.5249270895,"duration":652.7776145833777,"noteNumber":57,"velocity":110,"programNumber":25},{"time":615160.1914270895,"duration":652.7776145833777,"noteNumber":55,"velocity":110,"programNumber":25},{"time":615826.8579270896,"duration":652.7776145833777,"noteNumber":55,"velocity":110,"programNumber":25},{"time":616493.5244270896,"duration":652.7776145833777,"noteNumber":57,"velocity":110,"programNumber":25},{"time":617160.1909270897,"duration":1319.4441145833116,"noteNumber":50,"velocity":110,"programNumber":25},{"time":618493.5239270896,"duration":652.7776145833777,"noteNumber":50,"velocity":110,"programNumber":25},{"time":619160.1904270897,"duration":652.7776145833777,"noteNumber":45,"velocity":110,"programNumber":25},{"time":619826.8569270897,"duration":652.7776145833777,"noteNumber":45,"velocity":110,"programNumber":25},{"time":620493.5234270898,"duration":652.7776145833777,"noteNumber":50,"velocity":110,"programNumber":25},{"time":621160.1899270898,"duration":652.7776145833777,"noteNumber":50,"velocity":110,"programNumber":25},{"time":621826.8564270899,"duration":652.7776145833777,"noteNumber":52,"velocity":110,"programNumber":25},{"time":622493.52292709,"duration":652.7776145833777,"noteNumber":52,"velocity":110,"programNumber":25},{"time":623160.18942709,"duration":652.7776145833777,"noteNumber":53,"velocity":110,"programNumber":25},{"time":623826.85592709,"duration":652.7776145833777,"noteNumber":53,"velocity":110,"programNumber":25},{"time":624493.5224270901,"duration":652.7776145833777,"noteNumber":55,"velocity":110,"programNumber":25},{"time":625160.1889270901,"duration":652.7776145833777,"noteNumber":55,"velocity":110,"programNumber":25},{"time":625826.8554270902,"duration":652.7776145833777,"noteNumber":53,"velocity":110,"programNumber":25},{"time":626493.5219270902,"duration":652.7776145833777,"noteNumber":53,"velocity":110,"programNumber":25},{"time":627160.1884270903,"duration":652.7776145833777,"noteNumber":52,"velocity":110,"programNumber":25},{"time":627826.8549270903,"duration":2999.9992499999935,"noteNumber":62,"velocity":110,"programNumber":25},{"time":631160.1874270904,"duration":1111.1108333333395,"noteNumber":64,"velocity":110,"programNumber":25},{"time":632493.5204270903,"duration":1111.1108333333395,"noteNumber":65,"velocity":110,"programNumber":25},{"time":633826.8534270903,"duration":1777.7773333333898,"noteNumber":64,"velocity":110,"programNumber":25},{"time":635826.8529270904,"duration":319.4443645833526,"noteNumber":65,"velocity":110,"programNumber":25},{"time":636160.1861770904,"duration":319.4443645833526,"noteNumber":64,"velocity":110,"programNumber":25},{"time":636493.5194270904,"duration":1777.7773333333898,"noteNumber":62,"velocity":110,"programNumber":25},{"time":638493.5189270905,"duration":319.4443645833526,"noteNumber":62,"velocity":110,"programNumber":25},{"time":638826.8521770905,"duration":319.4443645833526,"noteNumber":60,"velocity":110,"programNumber":25},{"time":639160.1854270905,"duration":1777.7773333333898,"noteNumber":58,"velocity":110,"programNumber":25},{"time":641160.1849270905,"duration":319.4443645833526,"noteNumber":58,"velocity":110,"programNumber":25},{"time":641493.5181770906,"duration":319.4443645833526,"noteNumber":57,"velocity":110,"programNumber":25},{"time":641826.8514270906,"duration":1111.1108333333395,"noteNumber":55,"velocity":110,"programNumber":25},{"time":643160.1844270906,"duration":986.1108645832865,"noteNumber":57,"velocity":110,"programNumber":25},{"time":644160.1841770905,"duration":319.4443645833526,"noteNumber":58,"velocity":110,"programNumber":25},{"time":644493.5174270906,"duration":4999.998750000028,"noteNumber":57,"velocity":110,"programNumber":25},{"time":649826.8494270906,"duration":2333.332749999943,"noteNumber":62,"velocity":110,"programNumber":25},{"time":652493.5154270906,"duration":1111.1108333333395,"noteNumber":64,"velocity":110,"programNumber":25},{"time":653826.8484270906,"duration":1111.1108333333395,"noteNumber":65,"velocity":110,"programNumber":25},{"time":655160.1814270905,"duration":1777.7773333333898,"noteNumber":64,"velocity":110,"programNumber":25},{"time":657160.1809270906,"duration":319.4443645833526,"noteNumber":65,"velocity":110,"programNumber":25},{"time":657493.5141770906,"duration":319.4443645833526,"noteNumber":64,"velocity":110,"programNumber":25},{"time":657826.8474270906,"duration":1777.7773333333898,"noteNumber":62,"velocity":110,"programNumber":25},{"time":659826.8469270907,"duration":319.4443645833526,"noteNumber":62,"velocity":110,"programNumber":25},{"time":660160.1801770907,"duration":319.4443645833526,"noteNumber":60,"velocity":110,"programNumber":25},{"time":660493.5134270907,"duration":1777.7773333333898,"noteNumber":58,"velocity":110,"programNumber":25},{"time":662493.5129270907,"duration":319.4443645833526,"noteNumber":58,"velocity":110,"programNumber":25},{"time":662826.8461770908,"duration":319.4443645833526,"noteNumber":57,"velocity":110,"programNumber":25},{"time":663160.1794270908,"duration":1111.1108333333395,"noteNumber":55,"velocity":110,"programNumber":25},{"time":664493.5124270908,"duration":1111.1108333333395,"noteNumber":60,"velocity":110,"programNumber":25},{"time":665826.8454270908,"duration":4444.443333333358,"noteNumber":62,"velocity":110,"programNumber":25},{"time":670493.5109270908,"duration":652.7776145833777,"noteNumber":57,"velocity":110,"programNumber":25},{"time":671160.1774270908,"duration":3319.443614583346,"noteNumber":62,"velocity":110,"programNumber":25},{"time":674493.5099270908,"duration":652.7776145833777,"noteNumber":57,"velocity":110,"programNumber":25},{"time":675160.1764270909,"duration":652.7776145833777,"noteNumber":62,"velocity":110,"programNumber":25},{"time":675826.8429270909,"duration":652.7776145833777,"noteNumber":64,"velocity":110,"programNumber":25},{"time":676493.509427091,"duration":652.7776145833777,"noteNumber":65,"velocity":110,"programNumber":25},{"time":677160.175927091,"duration":319.4443645833526,"noteNumber":67,"velocity":110,"programNumber":25},{"time":677493.5091770911,"duration":319.4443645833526,"noteNumber":65,"velocity":110,"programNumber":25},{"time":677826.8424270911,"duration":1986.110614583362,"noteNumber":64,"velocity":110,"programNumber":25},{"time":679826.8419270911,"duration":652.7776145833777,"noteNumber":57,"velocity":110,"programNumber":25},{"time":680493.5084270912,"duration":652.7776145833777,"noteNumber":62,"velocity":110,"programNumber":25},{"time":681160.1749270912,"duration":652.7776145833777,"noteNumber":64,"velocity":110,"programNumber":25},{"time":681826.8414270913,"duration":652.7776145833777,"noteNumber":65,"velocity":110,"programNumber":25},{"time":682493.5079270913,"duration":319.4443645833526,"noteNumber":67,"velocity":110,"programNumber":25},{"time":682826.8411770914,"duration":319.4443645833526,"noteNumber":65,"velocity":110,"programNumber":25},{"time":683160.1744270914,"duration":1986.110614583362,"noteNumber":64,"velocity":110,"programNumber":25},{"time":685160.1739270914,"duration":319.4443645833526,"noteNumber":62,"velocity":110,"programNumber":25},{"time":685493.5071770914,"duration":319.4443645833526,"noteNumber":60,"velocity":110,"programNumber":25},{"time":685826.8404270915,"duration":652.7776145833777,"noteNumber":57,"velocity":110,"programNumber":25},{"time":686493.5069270915,"duration":652.7776145833777,"noteNumber":58,"velocity":110,"programNumber":25},{"time":687160.1734270916,"duration":4444.443333333358,"noteNumber":57,"velocity":110,"programNumber":25},{"time":691826.8389270916,"duration":652.7776145833777,"noteNumber":57,"velocity":110,"programNumber":25},{"time":692493.5054270916,"duration":3319.443614583346,"noteNumber":62,"velocity":110,"programNumber":25},{"time":695826.8379270916,"duration":652.7776145833777,"noteNumber":57,"velocity":110,"programNumber":25},{"time":696493.5044270917,"duration":652.7776145833777,"noteNumber":62,"velocity":110,"programNumber":25},{"time":697160.1709270917,"duration":652.7776145833777,"noteNumber":64,"velocity":110,"programNumber":25},{"time":697826.8374270918,"duration":652.7776145833777,"noteNumber":65,"velocity":110,"programNumber":25},{"time":698493.5039270918,"duration":319.4443645833526,"noteNumber":67,"velocity":110,"programNumber":25},{"time":698826.8371770919,"duration":319.4443645833526,"noteNumber":65,"velocity":110,"programNumber":25},{"time":699160.1704270919,"duration":1986.110614583362,"noteNumber":64,"velocity":110,"programNumber":25},{"time":701160.1699270919,"duration":652.7776145833777,"noteNumber":57,"velocity":110,"programNumber":25},{"time":701826.836427092,"duration":652.7776145833777,"noteNumber":62,"velocity":110,"programNumber":25},{"time":702493.502927092,"duration":652.7776145833777,"noteNumber":64,"velocity":110,"programNumber":25},{"time":703160.1694270921,"duration":652.7776145833777,"noteNumber":65,"velocity":110,"programNumber":25},{"time":703826.8359270921,"duration":319.4443645833526,"noteNumber":67,"velocity":110,"programNumber":25},{"time":704160.1691770921,"duration":319.4443645833526,"noteNumber":65,"velocity":110,"programNumber":25},{"time":704493.5024270922,"duration":1986.110614583362,"noteNumber":64,"velocity":110,"programNumber":25},{"time":706493.5019270922,"duration":319.4443645833526,"noteNumber":62,"velocity":110,"programNumber":25},{"time":706826.8351770922,"duration":319.4443645833526,"noteNumber":60,"velocity":110,"programNumber":25},{"time":707160.1684270923,"duration":652.7776145833777,"noteNumber":57,"velocity":110,"programNumber":25},{"time":707826.8349270923,"duration":2999.9992499999935,"noteNumber":70,"velocity":110,"programNumber":25},{"time":711160.1674270923,"duration":1111.1108333333395,"noteNumber":69,"velocity":110,"programNumber":25},{"time":713826.8334270923,"duration":1111.1108333333395,"noteNumber":69,"velocity":110,"programNumber":25},{"time":713826.8334270923,"duration":1111.1108333333395,"noteNumber":72,"velocity":110,"programNumber":25},{"time":715160.1664270923,"duration":1111.1108333333395,"noteNumber":69,"velocity":110,"programNumber":25},{"time":715160.1664270923,"duration":1111.1108333333395,"noteNumber":72,"velocity":110,"programNumber":25},{"time":716493.4994270923,"duration":319.4443645833526,"noteNumber":69,"velocity":110,"programNumber":25},{"time":716493.4994270923,"duration":319.4443645833526,"noteNumber":72,"velocity":110,"programNumber":25},{"time":716826.8326770923,"duration":319.4443645833526,"noteNumber":67,"velocity":110,"programNumber":25},{"time":717160.1659270923,"duration":319.4443645833526,"noteNumber":65,"velocity":110,"programNumber":25},{"time":717493.4991770923,"duration":319.4443645833526,"noteNumber":62,"velocity":110,"programNumber":25},{"time":717826.8324270924,"duration":1111.1108333333395,"noteNumber":65,"velocity":110,"programNumber":25},{"time":719160.1654270923,"duration":1111.1108333333395,"noteNumber":74,"velocity":110,"programNumber":25},{"time":720493.4984270923,"duration":319.4443645833526,"noteNumber":74,"velocity":110,"programNumber":25},{"time":720826.8316770924,"duration":319.4443645833526,"noteNumber":72,"velocity":110,"programNumber":25},{"time":721160.1649270924,"duration":319.4443645833526,"noteNumber":69,"velocity":110,"programNumber":25},{"time":721493.4981770924,"duration":319.4443645833526,"noteNumber":68,"velocity":110,"programNumber":25},{"time":721826.8314270924,"duration":319.4443645833526,"noteNumber":69,"velocity":110,"programNumber":25},{"time":722160.1646770925,"duration":319.4443645833526,"noteNumber":68,"velocity":110,"programNumber":25},{"time":722493.4979270925,"duration":319.4443645833526,"noteNumber":67,"velocity":110,"programNumber":25},{"time":722826.8311770925,"duration":319.4443645833526,"noteNumber":65,"velocity":110,"programNumber":25},{"time":723160.1644270925,"duration":319.4443645833526,"noteNumber":62,"velocity":110,"programNumber":25},{"time":723493.4976770926,"duration":652.7776145833777,"noteNumber":65,"velocity":110,"programNumber":25},{"time":724160.1641770926,"duration":1444.4440833333647,"noteNumber":79,"velocity":110,"programNumber":25},{"time":725826.8304270926,"duration":319.4443645833526,"noteNumber":77,"velocity":110,"programNumber":25},{"time":726160.1636770926,"duration":319.4443645833526,"noteNumber":76,"velocity":110,"programNumber":25},{"time":726493.4969270927,"duration":319.4443645833526,"noteNumber":74,"velocity":110,"programNumber":25},{"time":726826.8301770927,"duration":319.4443645833526,"noteNumber":69,"velocity":110,"programNumber":25},{"time":727160.1634270927,"duration":319.4443645833526,"noteNumber":74,"velocity":110,"programNumber":25},{"time":727493.4966770927,"duration":319.4443645833526,"noteNumber":72,"velocity":110,"programNumber":25},{"time":727826.8299270928,"duration":319.4443645833526,"noteNumber":70,"velocity":110,"programNumber":25},{"time":728160.1631770928,"duration":319.4443645833526,"noteNumber":69,"velocity":110,"programNumber":25},{"time":728493.4964270928,"duration":319.4443645833526,"noteNumber":67,"velocity":110,"programNumber":25},{"time":728826.8296770928,"duration":319.4443645833526,"noteNumber":69,"velocity":110,"programNumber":25},{"time":729160.1629270929,"duration":319.4443645833526,"noteNumber":67,"velocity":110,"programNumber":25},{"time":729493.4961770929,"duration":319.4443645833526,"noteNumber":65,"velocity":110,"programNumber":25},{"time":729826.8294270929,"duration":319.4443645833526,"noteNumber":62,"velocity":110,"programNumber":25},{"time":730160.162677093,"duration":319.4443645833526,"noteNumber":65,"velocity":110,"programNumber":25},{"time":730493.495927093,"duration":319.4443645833526,"noteNumber":62,"velocity":110,"programNumber":25},{"time":730826.829177093,"duration":319.4443645833526,"noteNumber":61,"velocity":110,"programNumber":25},{"time":731160.162427093,"duration":319.4443645833526,"noteNumber":60,"velocity":110,"programNumber":25},{"time":731493.495677093,"duration":319.4443645833526,"noteNumber":57,"velocity":110,"programNumber":25},{"time":731826.8289270931,"duration":319.4443645833526,"noteNumber":60,"velocity":110,"programNumber":25},{"time":732160.1621770931,"duration":319.4443645833526,"noteNumber":62,"velocity":110,"programNumber":25},{"time":732493.4954270931,"duration":2319.443864583387,"noteNumber":62,"velocity":110,"programNumber":25},{"time":734826.8281770932,"duration":1444.4440833333647,"noteNumber":81,"velocity":110,"programNumber":25},{"time":736493.4944270932,"duration":1111.1108333333395,"noteNumber":81,"velocity":110,"programNumber":25},{"time":737826.8274270932,"duration":319.4443645833526,"noteNumber":81,"velocity":110,"programNumber":25},{"time":738160.1606770932,"duration":319.4443645833526,"noteNumber":79,"velocity":110,"programNumber":25},{"time":738493.4939270932,"duration":319.4443645833526,"noteNumber":77,"velocity":110,"programNumber":25},{"time":738826.8271770932,"duration":319.4443645833526,"noteNumber":74,"velocity":110,"programNumber":25},{"time":739160.1604270933,"duration":1111.1108333333395,"noteNumber":77,"velocity":110,"programNumber":25},{"time":740493.4934270933,"duration":430.5554479166167,"noteNumber":79,"velocity":110,"programNumber":25},{"time":740937.9377604265,"duration":430.5554479166167,"noteNumber":77,"velocity":110,"programNumber":25},{"time":741382.3820937598,"duration":430.5554479166167,"noteNumber":74,"velocity":110,"programNumber":25},{"time":741826.8264270931,"duration":652.7776145833777,"noteNumber":69,"velocity":110,"programNumber":25},{"time":741826.8264270931,"duration":652.7776145833777,"noteNumber":74,"velocity":110,"programNumber":25},{"time":742493.4929270932,"duration":319.4443645833526,"noteNumber":72,"velocity":110,"programNumber":25},{"time":742826.8261770932,"duration":319.4443645833526,"noteNumber":71,"velocity":110,"programNumber":25},{"time":743160.1594270932,"duration":319.4443645833526,"noteNumber":69,"velocity":110,"programNumber":25},{"time":743493.4926770933,"duration":319.4443645833526,"noteNumber":68,"velocity":110,"programNumber":25},{"time":743826.8259270933,"duration":486.11098958330695,"noteNumber":69,"velocity":110,"programNumber":25},{"time":744326.8258020933,"duration":152.7777395832818,"noteNumber":68,"velocity":110,"programNumber":25},{"time":744493.4924270932,"duration":152.7777395832818,"noteNumber":67,"velocity":110,"programNumber":25},{"time":744660.1590520932,"duration":152.7777395832818,"noteNumber":65,"velocity":110,"programNumber":25},{"time":744826.8256770931,"duration":319.4443645833526,"noteNumber":62,"velocity":110,"programNumber":25},{"time":745160.1589270931,"duration":652.7776145833777,"noteNumber":65,"velocity":110,"programNumber":25},{"time":745826.8254270932,"duration":1111.1108333333395,"noteNumber":69,"velocity":110,"programNumber":25},{"time":747160.1584270932,"duration":319.4443645833526,"noteNumber":67,"velocity":110,"programNumber":25},{"time":747493.4916770932,"duration":319.4443645833526,"noteNumber":65,"velocity":110,"programNumber":25},{"time":747826.8249270932,"duration":319.4443645833526,"noteNumber":62,"velocity":110,"programNumber":25},{"time":748160.1581770933,"duration":319.4443645833526,"noteNumber":61,"velocity":110,"programNumber":25},{"time":748493.4914270933,"duration":319.4443645833526,"noteNumber":60,"velocity":110,"programNumber":25},{"time":748826.8246770933,"duration":319.4443645833526,"noteNumber":57,"velocity":110,"programNumber":25},{"time":749160.1579270933,"duration":319.4443645833526,"noteNumber":60,"velocity":110,"programNumber":25},{"time":749493.4911770934,"duration":319.4443645833526,"noteNumber":57,"velocity":110,"programNumber":25},{"time":749826.8244270934,"duration":652.7776145833777,"noteNumber":55,"velocity":110,"programNumber":25},{"time":750493.4909270934,"duration":319.4443645833526,"noteNumber":53,"velocity":110,"programNumber":25},{"time":750826.8241770935,"duration":319.4443645833526,"noteNumber":55,"velocity":110,"programNumber":25},{"time":751160.1574270935,"duration":319.4443645833526,"noteNumber":53,"velocity":110,"programNumber":25},{"time":751493.4906770935,"duration":986.1108645832865,"noteNumber":50,"velocity":110,"programNumber":25},{"time":752493.4904270935,"duration":2333.332749999943,"noteNumber":50,"velocity":110,"programNumber":25},{"time":752493.4904270935,"duration":2333.332749999943,"noteNumber":57,"velocity":110,"programNumber":25},{"time":756160.1561770934,"duration":5319.4431145833805,"noteNumber":54,"velocity":110,"programNumber":25},{"time":756160.1561770934,"duration":5319.4431145833805,"noteNumber":61,"velocity":110,"programNumber":25},{"time":761493.4881770934,"duration":4986.109864583355,"noteNumber":54,"velocity":110,"programNumber":25},{"time":761493.4881770934,"duration":4986.109864583355,"noteNumber":61,"velocity":110,"programNumber":25},{"time":766493.4869270935,"duration":2444.4438333333237,"noteNumber":50,"velocity":110,"programNumber":25},{"time":766493.4869270935,"duration":2444.4438333333237,"noteNumber":57,"velocity":110,"programNumber":25},{"time":769160.1529270934,"duration":2444.4438333333237,"noteNumber":52,"velocity":110,"programNumber":25},{"time":769160.1529270934,"duration":2444.4438333333237,"noteNumber":59,"velocity":110,"programNumber":25},{"time":771826.8189270934,"duration":652.7776145833777,"noteNumber":54,"velocity":110,"programNumber":25},{"time":771826.8189270934,"duration":652.7776145833777,"noteNumber":61,"velocity":110,"programNumber":25},{"time":772493.4854270935,"duration":4652.77661458333,"noteNumber":54,"velocity":110,"programNumber":25},{"time":772493.4854270935,"duration":4652.77661458333,"noteNumber":61,"velocity":110,"programNumber":25},{"time":777160.1509270935,"duration":652.7776145833777,"noteNumber":54,"velocity":110,"programNumber":25},{"time":777160.1509270935,"duration":652.7776145833777,"noteNumber":61,"velocity":110,"programNumber":25},{"time":777826.8174270935,"duration":4652.77661458333,"noteNumber":54,"velocity":110,"programNumber":25},{"time":777826.8174270935,"duration":4652.77661458333,"noteNumber":61,"velocity":110,"programNumber":25},{"time":782493.4829270935,"duration":4333.332249999978,"noteNumber":54,"velocity":110,"programNumber":25},{"time":782493.4829270935,"duration":4333.332249999978,"noteNumber":61,"velocity":110,"programNumber":25},{"time":787160.1484270935,"duration":1111.1108333333395,"noteNumber":50,"velocity":110,"programNumber":25},{"time":787160.1484270935,"duration":1111.1108333333395,"noteNumber":57,"velocity":110,"programNumber":25},{"time":788493.4814270935,"duration":2333.332749999943,"noteNumber":50,"velocity":110,"programNumber":25},{"time":788493.4814270935,"duration":2333.332749999943,"noteNumber":57,"velocity":110,"programNumber":25},{"time":791160.1474270935,"duration":1777.7773333333898,"noteNumber":52,"velocity":110,"programNumber":25},{"time":791160.1474270935,"duration":1777.7773333333898,"noteNumber":59,"velocity":110,"programNumber":25},{"time":793160.1469270935,"duration":652.7776145833777,"noteNumber":54,"velocity":110,"programNumber":25},{"time":793160.1469270935,"duration":652.7776145833777,"noteNumber":61,"velocity":110,"programNumber":25},{"time":793826.8134270936,"duration":2333.332749999943,"noteNumber":54,"velocity":110,"programNumber":25},{"time":793826.8134270936,"duration":2333.332749999943,"noteNumber":61,"velocity":110,"programNumber":25},{"time":796493.4794270935,"duration":1111.1108333333395,"noteNumber":50,"velocity":110,"programNumber":25},{"time":796493.4794270935,"duration":1111.1108333333395,"noteNumber":57,"velocity":110,"programNumber":25},{"time":797826.8124270935,"duration":652.7776145833777,"noteNumber":50,"velocity":110,"programNumber":25},{"time":797826.8124270935,"duration":652.7776145833777,"noteNumber":57,"velocity":110,"programNumber":25},{"time":798493.4789270936,"duration":319.4443645833526,"noteNumber":62,"velocity":110,"programNumber":25},{"time":798826.8121770936,"duration":319.4443645833526,"noteNumber":62,"velocity":110,"programNumber":25},{"time":799160.1454270936,"duration":652.7776145833777,"noteNumber":62,"velocity":110,"programNumber":25},{"time":799826.8119270937,"duration":652.7776145833777,"noteNumber":69,"velocity":110,"programNumber":25},{"time":800493.4784270937,"duration":652.7776145833777,"noteNumber":65,"velocity":110,"programNumber":25},{"time":801160.1449270938,"duration":2444.4438333333237,"noteNumber":67,"velocity":110,"programNumber":25},{"time":803826.8109270937,"duration":319.4443645833526,"noteNumber":62,"velocity":110,"programNumber":25},{"time":804160.1441770938,"duration":319.4443645833526,"noteNumber":62,"velocity":110,"programNumber":25},{"time":804493.4774270938,"duration":652.7776145833777,"noteNumber":62,"velocity":110,"programNumber":25},{"time":805160.1439270938,"duration":652.7776145833777,"noteNumber":69,"velocity":110,"programNumber":25},{"time":805826.8104270939,"duration":652.7776145833777,"noteNumber":65,"velocity":110,"programNumber":25},{"time":806493.4769270939,"duration":1319.4441145833116,"noteNumber":67,"velocity":110,"programNumber":25},{"time":807826.8099270939,"duration":1111.1108333333395,"noteNumber":65,"velocity":110,"programNumber":25},{"time":809160.1429270939,"duration":319.4443645833526,"noteNumber":58,"velocity":110,"programNumber":25},{"time":809493.4761770939,"duration":319.4443645833526,"noteNumber":58,"velocity":110,"programNumber":25},{"time":809826.809427094,"duration":652.7776145833777,"noteNumber":58,"velocity":110,"programNumber":25},{"time":810493.475927094,"duration":652.7776145833777,"noteNumber":65,"velocity":110,"programNumber":25},{"time":811160.142427094,"duration":652.7776145833777,"noteNumber":62,"velocity":110,"programNumber":25},{"time":811826.8089270941,"duration":2444.4438333333237,"noteNumber":64,"velocity":110,"programNumber":25},{"time":814493.4749270941,"duration":319.4443645833526,"noteNumber":58,"velocity":110,"programNumber":25},{"time":814826.8081770941,"duration":319.4443645833526,"noteNumber":58,"velocity":110,"programNumber":25},{"time":815160.1414270941,"duration":652.7776145833777,"noteNumber":58,"velocity":110,"programNumber":25},{"time":815826.8079270942,"duration":652.7776145833777,"noteNumber":65,"velocity":110,"programNumber":25},{"time":816493.4744270942,"duration":652.7776145833777,"noteNumber":62,"velocity":110,"programNumber":25},{"time":817160.1409270943,"duration":1319.4441145833116,"noteNumber":64,"velocity":110,"programNumber":25},{"time":818493.4739270943,"duration":1319.4441145833116,"noteNumber":60,"velocity":110,"programNumber":25},{"time":819826.8069270942,"duration":319.4443645833526,"noteNumber":55,"velocity":110,"programNumber":25},{"time":820160.1401770943,"duration":319.4443645833526,"noteNumber":55,"velocity":110,"programNumber":25},{"time":820493.4734270943,"duration":652.7776145833777,"noteNumber":58,"velocity":110,"programNumber":25},{"time":821160.1399270943,"duration":652.7776145833777,"noteNumber":62,"velocity":110,"programNumber":25},{"time":821826.8064270944,"duration":652.7776145833777,"noteNumber":58,"velocity":110,"programNumber":25},{"time":822493.4729270944,"duration":2444.4438333333237,"noteNumber":60,"velocity":110,"programNumber":25},{"time":825160.1389270944,"duration":319.4443645833526,"noteNumber":57,"velocity":110,"programNumber":25},{"time":825493.4721770944,"duration":319.4443645833526,"noteNumber":57,"velocity":110,"programNumber":25},{"time":825826.8054270945,"duration":652.7776145833777,"noteNumber":57,"velocity":110,"programNumber":25},{"time":826493.4719270945,"duration":652.7776145833777,"noteNumber":65,"velocity":110,"programNumber":25},{"time":827160.1384270946,"duration":652.7776145833777,"noteNumber":62,"velocity":110,"programNumber":25},{"time":827826.8049270946,"duration":1319.4441145833116,"noteNumber":64,"velocity":110,"programNumber":25},{"time":829160.1379270946,"duration":652.7776145833777,"noteNumber":60,"velocity":110,"programNumber":25},{"time":829826.8044270946,"duration":1111.1108333333395,"noteNumber":57,"velocity":110,"programNumber":25},{"time":831160.1374270946,"duration":652.7776145833777,"noteNumber":62,"velocity":110,"programNumber":25},{"time":831826.8039270947,"duration":652.7776145833777,"noteNumber":57,"velocity":110,"programNumber":25},{"time":832493.4704270947,"duration":652.7776145833777,"noteNumber":62,"velocity":110,"programNumber":25},{"time":833160.1369270948,"duration":1319.4441145833116,"noteNumber":60,"velocity":110,"programNumber":25},{"time":834493.4699270948,"duration":652.7776145833777,"noteNumber":57,"velocity":110,"programNumber":25},{"time":835160.1364270948,"duration":652.7776145833777,"noteNumber":60,"velocity":110,"programNumber":25},{"time":835826.8029270949,"duration":1319.4441145833116,"noteNumber":62,"velocity":110,"programNumber":25},{"time":837160.1359270948,"duration":652.7776145833777,"noteNumber":57,"velocity":110,"programNumber":25},{"time":837826.8024270949,"duration":652.7776145833777,"noteNumber":62,"velocity":110,"programNumber":25},{"time":838493.468927095,"duration":1319.4441145833116,"noteNumber":60,"velocity":110,"programNumber":25},{"time":839826.8019270949,"duration":652.7776145833777,"noteNumber":57,"velocity":110,"programNumber":25},{"time":840493.468427095,"duration":652.7776145833777,"noteNumber":60,"velocity":110,"programNumber":25},{"time":841160.134927095,"duration":652.7776145833777,"noteNumber":62,"velocity":110,"programNumber":25},{"time":841826.8014270951,"duration":652.7776145833777,"noteNumber":62,"velocity":110,"programNumber":25},{"time":842493.4679270951,"duration":652.7776145833777,"noteNumber":69,"velocity":110,"programNumber":25},{"time":843160.1344270952,"duration":652.7776145833777,"noteNumber":65,"velocity":110,"programNumber":25},{"time":843826.8009270952,"duration":2444.4438333333237,"noteNumber":67,"velocity":110,"programNumber":25},{"time":846493.4669270952,"duration":319.4443645833526,"noteNumber":62,"velocity":110,"programNumber":25},{"time":846826.8001770952,"duration":319.4443645833526,"noteNumber":62,"velocity":110,"programNumber":25},{"time":847160.1334270953,"duration":652.7776145833777,"noteNumber":62,"velocity":110,"programNumber":25},{"time":847826.7999270953,"duration":652.7776145833777,"noteNumber":69,"velocity":110,"programNumber":25},{"time":848493.4664270954,"duration":652.7776145833777,"noteNumber":65,"velocity":110,"programNumber":25},{"time":849160.1329270954,"duration":1319.4441145833116,"noteNumber":67,"velocity":110,"programNumber":25},{"time":850493.4659270954,"duration":1111.1108333333395,"noteNumber":65,"velocity":110,"programNumber":25},{"time":851826.7989270954,"duration":319.4443645833526,"noteNumber":58,"velocity":110,"programNumber":25},{"time":852160.1321770954,"duration":319.4443645833526,"noteNumber":58,"velocity":110,"programNumber":25},{"time":852493.4654270954,"duration":652.7776145833777,"noteNumber":58,"velocity":110,"programNumber":25},{"time":853160.1319270955,"duration":652.7776145833777,"noteNumber":65,"velocity":110,"programNumber":25},{"time":853826.7984270955,"duration":652.7776145833777,"noteNumber":62,"velocity":110,"programNumber":25},{"time":854493.4649270956,"duration":2444.4438333333237,"noteNumber":64,"velocity":110,"programNumber":25},{"time":857160.1309270955,"duration":319.4443645833526,"noteNumber":58,"velocity":110,"programNumber":25},{"time":857493.4641770956,"duration":319.4443645833526,"noteNumber":58,"velocity":110,"programNumber":25},{"time":857826.7974270956,"duration":652.7776145833777,"noteNumber":58,"velocity":110,"programNumber":25},{"time":858493.4639270956,"duration":652.7776145833777,"noteNumber":65,"velocity":110,"programNumber":25},{"time":859160.1304270957,"duration":652.7776145833777,"noteNumber":62,"velocity":110,"programNumber":25},{"time":859826.7969270957,"duration":1319.4441145833116,"noteNumber":64,"velocity":110,"programNumber":25},{"time":861160.1299270957,"duration":1319.4441145833116,"noteNumber":60,"velocity":110,"programNumber":25},{"time":862493.4629270957,"duration":319.4443645833526,"noteNumber":55,"velocity":110,"programNumber":25},{"time":862826.7961770957,"duration":319.4443645833526,"noteNumber":55,"velocity":110,"programNumber":25},{"time":863160.1294270958,"duration":652.7776145833777,"noteNumber":58,"velocity":110,"programNumber":25},{"time":863826.7959270958,"duration":652.7776145833777,"noteNumber":62,"velocity":110,"programNumber":25},{"time":864493.4624270959,"duration":652.7776145833777,"noteNumber":58,"velocity":110,"programNumber":25},{"time":865160.1289270959,"duration":2444.4438333333237,"noteNumber":60,"velocity":110,"programNumber":25},{"time":867826.7949270959,"duration":319.4443645833526,"noteNumber":57,"velocity":110,"programNumber":25},{"time":868160.1281770959,"duration":319.4443645833526,"noteNumber":57,"velocity":110,"programNumber":25},{"time":868493.4614270959,"duration":652.7776145833777,"noteNumber":57,"velocity":110,"programNumber":25},{"time":869160.127927096,"duration":652.7776145833777,"noteNumber":65,"velocity":110,"programNumber":25},{"time":869826.794427096,"duration":652.7776145833777,"noteNumber":62,"velocity":110,"programNumber":25},{"time":870493.4609270961,"duration":1319.4441145833116,"noteNumber":64,"velocity":110,"programNumber":25},{"time":871826.7939270961,"duration":652.7776145833777,"noteNumber":60,"velocity":110,"programNumber":25},{"time":872493.4604270961,"duration":1111.1108333333395,"noteNumber":57,"velocity":110,"programNumber":25},{"time":873826.7934270961,"duration":652.7776145833777,"noteNumber":62,"velocity":110,"programNumber":25},{"time":874493.4599270961,"duration":652.7776145833777,"noteNumber":57,"velocity":110,"programNumber":25},{"time":875160.1264270962,"duration":652.7776145833777,"noteNumber":62,"velocity":110,"programNumber":25},{"time":875826.7929270962,"duration":1319.4441145833116,"noteNumber":60,"velocity":110,"programNumber":25},{"time":877160.1259270962,"duration":652.7776145833777,"noteNumber":57,"velocity":110,"programNumber":25},{"time":877826.7924270963,"duration":652.7776145833777,"noteNumber":60,"velocity":110,"programNumber":25},{"time":878493.4589270963,"duration":1319.4441145833116,"noteNumber":62,"velocity":110,"programNumber":25},{"time":879826.7919270963,"duration":652.7776145833777,"noteNumber":57,"velocity":110,"programNumber":25},{"time":880493.4584270964,"duration":652.7776145833777,"noteNumber":62,"velocity":110,"programNumber":25},{"time":881160.1249270964,"duration":1319.4441145833116,"noteNumber":60,"velocity":110,"programNumber":25},{"time":882493.4579270964,"duration":652.7776145833777,"noteNumber":57,"velocity":110,"programNumber":25},{"time":883160.1244270965,"duration":652.7776145833777,"noteNumber":60,"velocity":110,"programNumber":25},{"time":883826.7909270965,"duration":652.7776145833777,"noteNumber":62,"velocity":110,"programNumber":25},{"time":884493.4574270966,"duration":652.7776145833777,"noteNumber":62,"velocity":110,"programNumber":25},{"time":885160.1239270966,"duration":652.7776145833777,"noteNumber":69,"velocity":110,"programNumber":25},{"time":885826.7904270967,"duration":652.7776145833777,"noteNumber":65,"velocity":110,"programNumber":25},{"time":886493.4569270967,"duration":2444.4438333333237,"noteNumber":67,"velocity":110,"programNumber":25},{"time":889160.1229270967,"duration":319.4443645833526,"noteNumber":62,"velocity":110,"programNumber":25},{"time":889493.4561770967,"duration":319.4443645833526,"noteNumber":62,"velocity":110,"programNumber":25},{"time":889826.7894270967,"duration":652.7776145833777,"noteNumber":62,"velocity":110,"programNumber":25},{"time":890493.4559270968,"duration":652.7776145833777,"noteNumber":69,"velocity":110,"programNumber":25},{"time":891160.1224270968,"duration":652.7776145833777,"noteNumber":65,"velocity":110,"programNumber":25},{"time":891826.7889270969,"duration":1319.4441145833116,"noteNumber":67,"velocity":110,"programNumber":25},{"time":893160.1219270969,"duration":1111.1108333333395,"noteNumber":65,"velocity":110,"programNumber":25},{"time":894493.4549270968,"duration":319.4443645833526,"noteNumber":58,"velocity":110,"programNumber":25},{"time":894826.7881770969,"duration":319.4443645833526,"noteNumber":58,"velocity":110,"programNumber":25},{"time":895160.1214270969,"duration":652.7776145833777,"noteNumber":58,"velocity":110,"programNumber":25},{"time":895826.787927097,"duration":652.7776145833777,"noteNumber":65,"velocity":110,"programNumber":25},{"time":896493.454427097,"duration":652.7776145833777,"noteNumber":62,"velocity":110,"programNumber":25},{"time":897160.120927097,"duration":2444.4438333333237,"noteNumber":64,"velocity":110,"programNumber":25},{"time":899826.786927097,"duration":319.4443645833526,"noteNumber":58,"velocity":110,"programNumber":25},{"time":900160.120177097,"duration":319.4443645833526,"noteNumber":58,"velocity":110,"programNumber":25},{"time":900493.4534270971,"duration":652.7776145833777,"noteNumber":58,"velocity":110,"programNumber":25},{"time":901160.1199270971,"duration":652.7776145833777,"noteNumber":65,"velocity":110,"programNumber":25},{"time":901826.7864270972,"duration":652.7776145833777,"noteNumber":62,"velocity":110,"programNumber":25},{"time":902493.4529270972,"duration":1319.4441145833116,"noteNumber":64,"velocity":110,"programNumber":25},{"time":903826.7859270972,"duration":1319.4441145833116,"noteNumber":60,"velocity":110,"programNumber":25},{"time":905160.1189270972,"duration":319.4443645833526,"noteNumber":55,"velocity":110,"programNumber":25},{"time":905493.4521770972,"duration":319.4443645833526,"noteNumber":55,"velocity":110,"programNumber":25},{"time":905826.7854270972,"duration":652.7776145833777,"noteNumber":58,"velocity":110,"programNumber":25},{"time":906493.4519270973,"duration":652.7776145833777,"noteNumber":62,"velocity":110,"programNumber":25},{"time":907160.1184270973,"duration":652.7776145833777,"noteNumber":58,"velocity":110,"programNumber":25},{"time":907826.7849270974,"duration":2444.4438333333237,"noteNumber":60,"velocity":110,"programNumber":25},{"time":910493.4509270974,"duration":319.4443645833526,"noteNumber":57,"velocity":110,"programNumber":25},{"time":910826.7841770974,"duration":319.4443645833526,"noteNumber":57,"velocity":110,"programNumber":25},{"time":911160.1174270974,"duration":652.7776145833777,"noteNumber":57,"velocity":110,"programNumber":25},{"time":911826.7839270975,"duration":652.7776145833777,"noteNumber":65,"velocity":110,"programNumber":25},{"time":912493.4504270975,"duration":652.7776145833777,"noteNumber":62,"velocity":110,"programNumber":25},{"time":913160.1169270976,"duration":1319.4441145833116,"noteNumber":64,"velocity":110,"programNumber":25},{"time":914493.4499270975,"duration":652.7776145833777,"noteNumber":60,"velocity":110,"programNumber":25},{"time":915160.1164270976,"duration":1111.1108333333395,"noteNumber":57,"velocity":110,"programNumber":25},{"time":916493.4494270976,"duration":652.7776145833777,"noteNumber":62,"velocity":110,"programNumber":25},{"time":917160.1159270976,"duration":652.7776145833777,"noteNumber":57,"velocity":110,"programNumber":25},{"time":917826.7824270977,"duration":652.7776145833777,"noteNumber":62,"velocity":110,"programNumber":25},{"time":918493.4489270977,"duration":1319.4441145833116,"noteNumber":60,"velocity":110,"programNumber":25},{"time":919826.7819270977,"duration":652.7776145833777,"noteNumber":57,"velocity":110,"programNumber":25},{"time":920493.4484270978,"duration":652.7776145833777,"noteNumber":60,"velocity":110,"programNumber":25},{"time":921160.1149270978,"duration":1319.4441145833116,"noteNumber":62,"velocity":110,"programNumber":25},{"time":922493.4479270978,"duration":652.7776145833777,"noteNumber":57,"velocity":110,"programNumber":25},{"time":923160.1144270978,"duration":652.7776145833777,"noteNumber":62,"velocity":110,"programNumber":25},{"time":923826.7809270979,"duration":2444.4438333333237,"noteNumber":60,"velocity":110,"programNumber":25},{"time":926493.4469270979,"duration":1319.4441145833116,"noteNumber":50,"velocity":110,"programNumber":25},{"time":927826.7799270978,"duration":652.7776145833777,"noteNumber":50,"velocity":110,"programNumber":25},{"time":928493.4464270979,"duration":652.7776145833777,"noteNumber":57,"velocity":110,"programNumber":25},{"time":929160.112927098,"duration":652.7776145833777,"noteNumber":57,"velocity":110,"programNumber":25},{"time":929826.779427098,"duration":652.7776145833777,"noteNumber":55,"velocity":110,"programNumber":25},{"time":930493.445927098,"duration":652.7776145833777,"noteNumber":55,"velocity":110,"programNumber":25},{"time":931160.1124270981,"duration":652.7776145833777,"noteNumber":57,"velocity":110,"programNumber":25},{"time":931826.7789270981,"duration":652.7776145833777,"noteNumber":57,"velocity":110,"programNumber":25},{"time":932493.4454270982,"duration":652.7776145833777,"noteNumber":50,"velocity":110,"programNumber":25},{"time":933160.1119270982,"duration":652.7776145833777,"noteNumber":50,"velocity":110,"programNumber":25},{"time":933826.7784270983,"duration":652.7776145833777,"noteNumber":57,"velocity":110,"programNumber":25},{"time":934493.4449270983,"duration":652.7776145833777,"noteNumber":57,"velocity":110,"programNumber":25},{"time":935160.1114270984,"duration":652.7776145833777,"noteNumber":55,"velocity":110,"programNumber":25},{"time":935826.7779270984,"duration":652.7776145833777,"noteNumber":55,"velocity":110,"programNumber":25},{"time":936493.4444270985,"duration":652.7776145833777,"noteNumber":57,"velocity":110,"programNumber":25},{"time":937160.1109270985,"duration":1319.4441145833116,"noteNumber":50,"velocity":110,"programNumber":25},{"time":938493.4439270985,"duration":652.7776145833777,"noteNumber":50,"velocity":110,"programNumber":25},{"time":939160.1104270986,"duration":652.7776145833777,"noteNumber":57,"velocity":110,"programNumber":25},{"time":939826.7769270986,"duration":652.7776145833777,"noteNumber":57,"velocity":110,"programNumber":25},{"time":940493.4434270987,"duration":652.7776145833777,"noteNumber":55,"velocity":110,"programNumber":25},{"time":941160.1099270987,"duration":652.7776145833777,"noteNumber":55,"velocity":110,"programNumber":25},{"time":941826.7764270988,"duration":652.7776145833777,"noteNumber":57,"velocity":110,"programNumber":25},{"time":942493.4429270988,"duration":652.7776145833777,"noteNumber":57,"velocity":110,"programNumber":25},{"time":943160.1094270989,"duration":652.7776145833777,"noteNumber":50,"velocity":110,"programNumber":25},{"time":943826.7759270989,"duration":652.7776145833777,"noteNumber":50,"velocity":110,"programNumber":25},{"time":944493.442427099,"duration":652.7776145833777,"noteNumber":57,"velocity":110,"programNumber":25},{"time":945160.108927099,"duration":652.7776145833777,"noteNumber":57,"velocity":110,"programNumber":25},{"time":945826.7754270991,"duration":652.7776145833777,"noteNumber":55,"velocity":110,"programNumber":25},{"time":946493.4419270991,"duration":652.7776145833777,"noteNumber":55,"velocity":110,"programNumber":25},{"time":947160.1084270992,"duration":652.7776145833777,"noteNumber":57,"velocity":110,"programNumber":25},{"time":947826.7749270992,"duration":1319.4441145833116,"noteNumber":50,"velocity":110,"programNumber":25},{"time":949160.1079270992,"duration":652.7776145833777,"noteNumber":50,"velocity":110,"programNumber":25},{"time":949826.7744270993,"duration":652.7776145833777,"noteNumber":57,"velocity":110,"programNumber":25},{"time":950493.4409270993,"duration":652.7776145833777,"noteNumber":57,"velocity":110,"programNumber":25},{"time":951160.1074270994,"duration":652.7776145833777,"noteNumber":55,"velocity":110,"programNumber":25},{"time":951826.7739270994,"duration":652.7776145833777,"noteNumber":55,"velocity":110,"programNumber":25},{"time":952493.4404270995,"duration":652.7776145833777,"noteNumber":57,"velocity":110,"programNumber":25},{"time":953160.1069270995,"duration":652.7776145833777,"noteNumber":57,"velocity":110,"programNumber":25},{"time":953826.7734270996,"duration":652.7776145833777,"noteNumber":50,"velocity":110,"programNumber":25},{"time":954493.4399270996,"duration":652.7776145833777,"noteNumber":50,"velocity":110,"programNumber":25},{"time":955160.1064270997,"duration":652.7776145833777,"noteNumber":57,"velocity":110,"programNumber":25},{"time":955826.7729270997,"duration":652.7776145833777,"noteNumber":57,"velocity":110,"programNumber":25},{"time":956493.4394270998,"duration":652.7776145833777,"noteNumber":55,"velocity":110,"programNumber":25},{"time":957160.1059270998,"duration":652.7776145833777,"noteNumber":55,"velocity":110,"programNumber":25},{"time":957826.7724270999,"duration":652.7776145833777,"noteNumber":57,"velocity":110,"programNumber":25},{"time":958493.4389270999,"duration":1319.4441145833116,"noteNumber":50,"velocity":110,"programNumber":25},{"time":959826.7719270999,"duration":652.7776145833777,"noteNumber":50,"velocity":110,"programNumber":25},{"time":960493.4384271,"duration":652.7776145833777,"noteNumber":45,"velocity":110,"programNumber":25},{"time":961160.1049271,"duration":652.7776145833777,"noteNumber":45,"velocity":110,"programNumber":25},{"time":961826.7714271001,"duration":652.7776145833777,"noteNumber":50,"velocity":110,"programNumber":25},{"time":962493.4379271001,"duration":652.7776145833777,"noteNumber":50,"velocity":110,"programNumber":25},{"time":963160.1044271002,"duration":652.7776145833777,"noteNumber":52,"velocity":110,"programNumber":25},{"time":963826.7709271002,"duration":652.7776145833777,"noteNumber":52,"velocity":110,"programNumber":25},{"time":964493.4374271003,"duration":652.7776145833777,"noteNumber":53,"velocity":110,"programNumber":25},{"time":965160.1039271003,"duration":652.7776145833777,"noteNumber":53,"velocity":110,"programNumber":25},{"time":965826.7704271004,"duration":652.7776145833777,"noteNumber":55,"velocity":110,"programNumber":25},{"time":966493.4369271004,"duration":652.7776145833777,"noteNumber":55,"velocity":110,"programNumber":25},{"time":967160.1034271005,"duration":652.7776145833777,"noteNumber":53,"velocity":110,"programNumber":25},{"time":967826.7699271005,"duration":652.7776145833777,"noteNumber":53,"velocity":110,"programNumber":25},{"time":968493.4364271006,"duration":652.7776145833777,"noteNumber":52,"velocity":110,"programNumber":25},{"time":969160.1029271006,"duration":1319.4441145833116,"noteNumber":50,"velocity":110,"programNumber":25},{"time":970493.4359271006,"duration":652.7776145833777,"noteNumber":50,"velocity":110,"programNumber":25},{"time":971160.1024271006,"duration":652.7776145833777,"noteNumber":57,"velocity":110,"programNumber":25},{"time":971826.7689271007,"duration":652.7776145833777,"noteNumber":57,"velocity":110,"programNumber":25},{"time":972493.4354271007,"duration":652.7776145833777,"noteNumber":55,"velocity":110,"programNumber":25},{"time":973160.1019271008,"duration":652.7776145833777,"noteNumber":55,"velocity":110,"programNumber":25},{"time":973826.7684271008,"duration":652.7776145833777,"noteNumber":57,"velocity":110,"programNumber":25},{"time":974493.4349271009,"duration":652.7776145833777,"noteNumber":57,"velocity":110,"programNumber":25},{"time":975160.101427101,"duration":652.7776145833777,"noteNumber":50,"velocity":110,"programNumber":25},{"time":975826.767927101,"duration":652.7776145833777,"noteNumber":50,"velocity":110,"programNumber":25},{"time":976493.434427101,"duration":652.7776145833777,"noteNumber":57,"velocity":110,"programNumber":25},{"time":977160.1009271011,"duration":652.7776145833777,"noteNumber":57,"velocity":110,"programNumber":25},{"time":977826.7674271011,"duration":652.7776145833777,"noteNumber":55,"velocity":110,"programNumber":25},{"time":978493.4339271012,"duration":652.7776145833777,"noteNumber":55,"velocity":110,"programNumber":25},{"time":979160.1004271012,"duration":652.7776145833777,"noteNumber":57,"velocity":110,"programNumber":25},{"time":979826.7669271013,"duration":1319.4441145833116,"noteNumber":50,"velocity":110,"programNumber":25},{"time":981160.0999271013,"duration":652.7776145833777,"noteNumber":50,"velocity":110,"programNumber":25},{"time":981826.7664271013,"duration":652.7776145833777,"noteNumber":57,"velocity":110,"programNumber":25},{"time":982493.4329271014,"duration":652.7776145833777,"noteNumber":57,"velocity":110,"programNumber":25},{"time":983160.0994271014,"duration":652.7776145833777,"noteNumber":55,"velocity":110,"programNumber":25},{"time":983826.7659271015,"duration":652.7776145833777,"noteNumber":55,"velocity":110,"programNumber":25},{"time":984493.4324271015,"duration":652.7776145833777,"noteNumber":57,"velocity":110,"programNumber":25},{"time":985160.0989271016,"duration":652.7776145833777,"noteNumber":57,"velocity":110,"programNumber":25},{"time":985826.7654271016,"duration":652.7776145833777,"noteNumber":50,"velocity":110,"programNumber":25},{"time":986493.4319271017,"duration":652.7776145833777,"noteNumber":50,"velocity":110,"programNumber":25},{"time":987160.0984271017,"duration":652.7776145833777,"noteNumber":57,"velocity":110,"programNumber":25},{"time":987826.7649271018,"duration":652.7776145833777,"noteNumber":57,"velocity":110,"programNumber":25},{"time":988493.4314271018,"duration":652.7776145833777,"noteNumber":55,"velocity":110,"programNumber":25},{"time":989160.0979271019,"duration":652.7776145833777,"noteNumber":55,"velocity":110,"programNumber":25},{"time":989826.7644271019,"duration":652.7776145833777,"noteNumber":57,"velocity":110,"programNumber":25},{"time":990493.430927102,"duration":1319.4441145833116,"noteNumber":50,"velocity":110,"programNumber":25},{"time":991826.763927102,"duration":652.7776145833777,"noteNumber":50,"velocity":110,"programNumber":25},{"time":992493.430427102,"duration":652.7776145833777,"noteNumber":57,"velocity":110,"programNumber":25},{"time":993160.0969271021,"duration":652.7776145833777,"noteNumber":57,"velocity":110,"programNumber":25},{"time":993826.7634271021,"duration":652.7776145833777,"noteNumber":55,"velocity":110,"programNumber":25},{"time":994493.4299271022,"duration":652.7776145833777,"noteNumber":55,"velocity":110,"programNumber":25},{"time":995160.0964271022,"duration":652.7776145833777,"noteNumber":57,"velocity":110,"programNumber":25},{"time":995826.7629271023,"duration":652.7776145833777,"noteNumber":57,"velocity":110,"programNumber":25},{"time":996493.4294271023,"duration":652.7776145833777,"noteNumber":50,"velocity":110,"programNumber":25},{"time":997160.0959271024,"duration":652.7776145833777,"noteNumber":50,"velocity":110,"programNumber":25},{"time":997826.7624271024,"duration":652.7776145833777,"noteNumber":57,"velocity":110,"programNumber":25},{"time":998493.4289271025,"duration":652.7776145833777,"noteNumber":57,"velocity":110,"programNumber":25},{"time":999160.0954271025,"duration":652.7776145833777,"noteNumber":55,"velocity":110,"programNumber":25},{"time":999826.7619271026,"duration":652.7776145833777,"noteNumber":55,"velocity":110,"programNumber":25},{"time":1000493.4284271026,"duration":652.7776145833777,"noteNumber":57,"velocity":110,"programNumber":25},{"time":1001160.0949271027,"duration":1319.4441145833116,"noteNumber":50,"velocity":110,"programNumber":25},{"time":1002493.4279271027,"duration":652.7776145833777,"noteNumber":50,"velocity":110,"programNumber":25},{"time":1003160.0944271027,"duration":652.7776145833777,"noteNumber":45,"velocity":110,"programNumber":25},{"time":1003826.7609271028,"duration":652.7776145833777,"noteNumber":45,"velocity":110,"programNumber":25},{"time":1004493.4274271028,"duration":652.7776145833777,"noteNumber":50,"velocity":110,"programNumber":25},{"time":1005160.0939271029,"duration":652.7776145833777,"noteNumber":50,"velocity":110,"programNumber":25},{"time":1005826.7604271029,"duration":652.7776145833777,"noteNumber":52,"velocity":110,"programNumber":25},{"time":1006493.426927103,"duration":652.7776145833777,"noteNumber":52,"velocity":110,"programNumber":25},{"time":1007160.093427103,"duration":652.7776145833777,"noteNumber":53,"velocity":110,"programNumber":25},{"time":1007826.7599271031,"duration":652.7776145833777,"noteNumber":53,"velocity":110,"programNumber":25},{"time":1008493.4264271031,"duration":652.7776145833777,"noteNumber":55,"velocity":110,"programNumber":25},{"time":1009160.0929271032,"duration":652.7776145833777,"noteNumber":55,"velocity":110,"programNumber":25},{"time":1009826.7594271032,"duration":652.7776145833777,"noteNumber":53,"velocity":110,"programNumber":25},{"time":1010493.4259271033,"duration":652.7776145833777,"noteNumber":53,"velocity":110,"programNumber":25},{"time":1011160.0924271033,"duration":652.7776145833777,"noteNumber":52,"velocity":110,"programNumber":25},{"time":1011826.7589271034,"duration":5111.109833333292,"noteNumber":50,"velocity":110,"programNumber":25},{"time":1011826.7589271034,"duration":5111.109833333292,"noteNumber":57,"velocity":110,"programNumber":25},{"time":1017160.0909271033,"duration":5111.109833333292,"noteNumber":46,"velocity":110,"programNumber":25},{"time":1017160.0909271033,"duration":5111.109833333292,"noteNumber":53,"velocity":110,"programNumber":25},{"time":1022493.4229271032,"duration":5111.109833333292,"noteNumber":48,"velocity":110,"programNumber":25},{"time":1022493.4229271032,"duration":5111.109833333292,"noteNumber":55,"velocity":110,"programNumber":25},{"time":1027826.7549271032,"duration":2444.4438333333237,"noteNumber":50,"velocity":110,"programNumber":25},{"time":1027826.7549271032,"duration":2444.4438333333237,"noteNumber":57,"velocity":110,"programNumber":25},{"time":1030493.4209271031,"duration":2444.4438333333237,"noteNumber":48,"velocity":110,"programNumber":25},{"time":1030493.4209271031,"duration":2444.4438333333237,"noteNumber":55,"velocity":110,"programNumber":25},{"time":1033160.0869271031,"duration":5111.109833333292,"noteNumber":50,"velocity":110,"programNumber":25},{"time":1033160.0869271031,"duration":5111.109833333292,"noteNumber":57,"velocity":110,"programNumber":25},{"time":1038493.418927103,"duration":5111.109833333292,"noteNumber":46,"velocity":110,"programNumber":25},{"time":1038493.418927103,"duration":5111.109833333292,"noteNumber":53,"velocity":110,"programNumber":25},{"time":1043826.750927103,"duration":10444.441833333345,"noteNumber":48,"velocity":110,"programNumber":25},{"time":1043826.750927103,"duration":10444.441833333345,"noteNumber":55,"velocity":110,"programNumber":25},{"time":1054493.414927103,"duration":5111.1098333334085,"noteNumber":50,"velocity":110,"programNumber":25},{"time":1054493.414927103,"duration":5111.1098333334085,"noteNumber":57,"velocity":110,"programNumber":25},{"time":1059826.7469271033,"duration":5111.1098333334085,"noteNumber":46,"velocity":110,"programNumber":25},{"time":1059826.7469271033,"duration":5111.1098333334085,"noteNumber":53,"velocity":110,"programNumber":25},{"time":1065160.0789271034,"duration":5111.1098333334085,"noteNumber":48,"velocity":110,"programNumber":25},{"time":1065160.0789271034,"duration":5111.1098333334085,"noteNumber":55,"velocity":110,"programNumber":25},{"time":1070493.4109271036,"duration":2444.44383333344,"noteNumber":53,"velocity":110,"programNumber":25},{"time":1070493.4109271036,"duration":2444.44383333344,"noteNumber":60,"velocity":110,"programNumber":25},{"time":1073160.0769271038,"duration":2444.44383333344,"noteNumber":55,"velocity":110,"programNumber":25},{"time":1073160.0769271038,"duration":2444.44383333344,"noteNumber":62,"velocity":110,"programNumber":25},{"time":1075826.742927104,"duration":5111.1098333334085,"noteNumber":50,"velocity":110,"programNumber":25},{"time":1075826.742927104,"duration":5111.1098333334085,"noteNumber":57,"velocity":110,"programNumber":25},{"time":1081160.0749271042,"duration":5111.1098333334085,"noteNumber":46,"velocity":110,"programNumber":25},{"time":1081160.0749271042,"duration":5111.1098333334085,"noteNumber":53,"velocity":110,"programNumber":25},{"time":1086493.4069271043,"duration":10444.441833333345,"noteNumber":48,"velocity":110,"programNumber":25},{"time":1086493.4069271043,"duration":10444.441833333345,"noteNumber":55,"velocity":110,"programNumber":25},{"time":1097160.0709271044,"duration":1319.4441145833116,"noteNumber":46,"velocity":110,"programNumber":25},{"time":1097160.0709271044,"duration":1319.4441145833116,"noteNumber":53,"velocity":110,"programNumber":25},{"time":1098493.4039271043,"duration":319.4443645833526,"noteNumber":46,"velocity":110,"programNumber":25},{"time":1098493.4039271043,"duration":319.4443645833526,"noteNumber":53,"velocity":110,"programNumber":25},{"time":1098826.7371771042,"duration":319.4443645833526,"noteNumber":46,"velocity":110,"programNumber":25},{"time":1098826.7371771042,"duration":319.4443645833526,"noteNumber":53,"velocity":110,"programNumber":25},{"time":1099160.0704271041,"duration":652.7776145832613,"noteNumber":46,"velocity":110,"programNumber":25},{"time":1099160.0704271041,"duration":652.7776145832613,"noteNumber":53,"velocity":110,"programNumber":25},{"time":1099826.736927104,"duration":319.4443645833526,"noteNumber":46,"velocity":110,"programNumber":25},{"time":1099826.736927104,"duration":319.4443645833526,"noteNumber":53,"velocity":110,"programNumber":25},{"time":1100160.0701771039,"duration":319.4443645833526,"noteNumber":46,"velocity":110,"programNumber":25},{"time":1100160.0701771039,"duration":319.4443645833526,"noteNumber":53,"velocity":110,"programNumber":25},{"time":1100493.4034271038,"duration":652.7776145832613,"noteNumber":48,"velocity":110,"programNumber":25},{"time":1100493.4034271038,"duration":652.7776145832613,"noteNumber":55,"velocity":110,"programNumber":25},{"time":1101160.0699271036,"duration":319.4443645833526,"noteNumber":48,"velocity":110,"programNumber":25},{"time":1101160.0699271036,"duration":319.4443645833526,"noteNumber":55,"velocity":110,"programNumber":25},{"time":1101493.4031771035,"duration":319.4443645833526,"noteNumber":48,"velocity":110,"programNumber":25},{"time":1101493.4031771035,"duration":319.4443645833526,"noteNumber":55,"velocity":110,"programNumber":25},{"time":1101826.7364271034,"duration":652.7776145832613,"noteNumber":48,"velocity":110,"programNumber":25},{"time":1101826.7364271034,"duration":652.7776145832613,"noteNumber":55,"velocity":110,"programNumber":25},{"time":1102493.4029271032,"duration":319.4443645833526,"noteNumber":48,"velocity":110,"programNumber":25},{"time":1102493.4029271032,"duration":319.4443645833526,"noteNumber":55,"velocity":110,"programNumber":25},{"time":1102826.7361771031,"duration":319.4443645833526,"noteNumber":48,"velocity":110,"programNumber":25},{"time":1102826.7361771031,"duration":319.4443645833526,"noteNumber":55,"velocity":110,"programNumber":25},{"time":1103160.069427103,"duration":652.7776145832613,"noteNumber":50,"velocity":110,"programNumber":25},{"time":1103160.069427103,"duration":652.7776145832613,"noteNumber":57,"velocity":110,"programNumber":25},{"time":1103826.7359271029,"duration":319.4443645833526,"noteNumber":50,"velocity":110,"programNumber":25},{"time":1103826.7359271029,"duration":319.4443645833526,"noteNumber":57,"velocity":110,"programNumber":25},{"time":1104160.0691771028,"duration":319.4443645833526,"noteNumber":50,"velocity":110,"programNumber":25},{"time":1104160.0691771028,"duration":319.4443645833526,"noteNumber":57,"velocity":110,"programNumber":25},{"time":1104493.4024271027,"duration":652.7776145832613,"noteNumber":50,"velocity":110,"programNumber":25},{"time":1104493.4024271027,"duration":652.7776145832613,"noteNumber":57,"velocity":110,"programNumber":25},{"time":1105160.0689271025,"duration":319.4443645833526,"noteNumber":50,"velocity":110,"programNumber":25},{"time":1105160.0689271025,"duration":319.4443645833526,"noteNumber":57,"velocity":110,"programNumber":25},{"time":1105493.4021771024,"duration":319.4443645833526,"noteNumber":50,"velocity":110,"programNumber":25},{"time":1105493.4021771024,"duration":319.4443645833526,"noteNumber":57,"velocity":110,"programNumber":25},{"time":1105826.7354271023,"duration":652.7776145832613,"noteNumber":48,"velocity":110,"programNumber":25},{"time":1105826.7354271023,"duration":652.7776145832613,"noteNumber":55,"velocity":110,"programNumber":25},{"time":1106493.4019271021,"duration":319.4443645833526,"noteNumber":48,"velocity":110,"programNumber":25},{"time":1106493.4019271021,"duration":319.4443645833526,"noteNumber":55,"velocity":110,"programNumber":25},{"time":1106826.735177102,"duration":319.4443645833526,"noteNumber":48,"velocity":110,"programNumber":25},{"time":1106826.735177102,"duration":319.4443645833526,"noteNumber":55,"velocity":110,"programNumber":25},{"time":1107160.068427102,"duration":652.7776145832613,"noteNumber":48,"velocity":110,"programNumber":25},{"time":1107160.068427102,"duration":652.7776145832613,"noteNumber":55,"velocity":110,"programNumber":25},{"time":1107826.7349271018,"duration":319.4443645833526,"noteNumber":48,"velocity":110,"programNumber":25},{"time":1107826.7349271018,"duration":319.4443645833526,"noteNumber":55,"velocity":110,"programNumber":25},{"time":1108160.0681771017,"duration":319.4443645833526,"noteNumber":48,"velocity":110,"programNumber":25},{"time":1108160.0681771017,"duration":319.4443645833526,"noteNumber":55,"velocity":110,"programNumber":25},{"time":1108493.4014271016,"duration":652.7776145832613,"noteNumber":46,"velocity":110,"programNumber":25},{"time":1108493.4014271016,"duration":652.7776145832613,"noteNumber":53,"velocity":110,"programNumber":25},{"time":1109160.0679271014,"duration":319.4443645833526,"noteNumber":46,"velocity":110,"programNumber":25},{"time":1109160.0679271014,"duration":319.4443645833526,"noteNumber":53,"velocity":110,"programNumber":25},{"time":1109493.4011771013,"duration":319.4443645833526,"noteNumber":46,"velocity":110,"programNumber":25},{"time":1109493.4011771013,"duration":319.4443645833526,"noteNumber":53,"velocity":110,"programNumber":25},{"time":1109826.7344271012,"duration":652.7776145832613,"noteNumber":46,"velocity":110,"programNumber":25},{"time":1109826.7344271012,"duration":652.7776145832613,"noteNumber":53,"velocity":110,"programNumber":25},{"time":1110493.400927101,"duration":319.4443645833526,"noteNumber":46,"velocity":110,"programNumber":25},{"time":1110493.400927101,"duration":319.4443645833526,"noteNumber":53,"velocity":110,"programNumber":25},{"time":1110826.734177101,"duration":319.4443645833526,"noteNumber":46,"velocity":110,"programNumber":25},{"time":1110826.734177101,"duration":319.4443645833526,"noteNumber":53,"velocity":110,"programNumber":25},{"time":1111160.0674271008,"duration":652.7776145832613,"noteNumber":53,"velocity":110,"programNumber":25},{"time":1111160.0674271008,"duration":652.7776145832613,"noteNumber":60,"velocity":110,"programNumber":25},{"time":1111826.7339271007,"duration":319.4443645833526,"noteNumber":53,"velocity":110,"programNumber":25},{"time":1111826.7339271007,"duration":319.4443645833526,"noteNumber":60,"velocity":110,"programNumber":25},{"time":1112160.0671771006,"duration":319.4443645833526,"noteNumber":53,"velocity":110,"programNumber":25},{"time":1112160.0671771006,"duration":319.4443645833526,"noteNumber":60,"velocity":110,"programNumber":25},{"time":1112493.4004271005,"duration":652.7776145832613,"noteNumber":55,"velocity":110,"programNumber":25},{"time":1112493.4004271005,"duration":652.7776145832613,"noteNumber":62,"velocity":110,"programNumber":25},{"time":1113160.0669271003,"duration":319.4443645833526,"noteNumber":55,"velocity":110,"programNumber":25},{"time":1113160.0669271003,"duration":319.4443645833526,"noteNumber":62,"velocity":110,"programNumber":25},{"time":1113493.4001771002,"duration":319.4443645833526,"noteNumber":55,"velocity":110,"programNumber":25},{"time":1113493.4001771002,"duration":319.4443645833526,"noteNumber":62,"velocity":110,"programNumber":25},{"time":1113826.7334271,"duration":652.7776145832613,"noteNumber":50,"velocity":110,"programNumber":25},{"time":1113826.7334271,"duration":652.7776145832613,"noteNumber":57,"velocity":110,"programNumber":25},{"time":1114493.3999271,"duration":319.4443645833526,"noteNumber":50,"velocity":110,"programNumber":25},{"time":1114493.3999271,"duration":319.4443645833526,"noteNumber":57,"velocity":110,"programNumber":25},{"time":1114826.7331770998,"duration":319.4443645833526,"noteNumber":50,"velocity":110,"programNumber":25},{"time":1114826.7331770998,"duration":319.4443645833526,"noteNumber":57,"velocity":110,"programNumber":25},{"time":1115160.0664270998,"duration":652.7776145832613,"noteNumber":50,"velocity":110,"programNumber":25},{"time":1115160.0664270998,"duration":652.7776145832613,"noteNumber":57,"velocity":110,"programNumber":25},{"time":1115826.7329270996,"duration":319.4443645833526,"noteNumber":50,"velocity":110,"programNumber":25},{"time":1115826.7329270996,"duration":319.4443645833526,"noteNumber":57,"velocity":110,"programNumber":25},{"time":1116160.0661770995,"duration":319.4443645833526,"noteNumber":50,"velocity":110,"programNumber":25},{"time":1116160.0661770995,"duration":319.4443645833526,"noteNumber":57,"velocity":110,"programNumber":25},{"time":1116493.3994270994,"duration":652.7776145832613,"noteNumber":50,"velocity":110,"programNumber":25},{"time":1116493.3994270994,"duration":652.7776145832613,"noteNumber":57,"velocity":110,"programNumber":25},{"time":1117160.0659270992,"duration":319.4443645833526,"noteNumber":50,"velocity":110,"programNumber":25},{"time":1117160.0659270992,"duration":319.4443645833526,"noteNumber":57,"velocity":110,"programNumber":25},{"time":1117493.399177099,"duration":319.4443645833526,"noteNumber":50,"velocity":110,"programNumber":25},{"time":1117493.399177099,"duration":319.4443645833526,"noteNumber":57,"velocity":110,"programNumber":25},{"time":1117826.732427099,"duration":652.7776145832613,"noteNumber":50,"velocity":110,"programNumber":25},{"time":1117826.732427099,"duration":652.7776145832613,"noteNumber":57,"velocity":110,"programNumber":25},{"time":1118493.3989270988,"duration":319.4443645833526,"noteNumber":50,"velocity":110,"programNumber":25},{"time":1118493.3989270988,"duration":319.4443645833526,"noteNumber":57,"velocity":110,"programNumber":25},{"time":1118826.7321770987,"duration":319.4443645833526,"noteNumber":50,"velocity":110,"programNumber":25},{"time":1118826.7321770987,"duration":319.4443645833526,"noteNumber":57,"velocity":110,"programNumber":25},{"time":1119160.0654270987,"duration":652.7776145832613,"noteNumber":46,"velocity":110,"programNumber":25},{"time":1119160.0654270987,"duration":652.7776145832613,"noteNumber":53,"velocity":110,"programNumber":25},{"time":1119826.7319270985,"duration":319.4443645833526,"noteNumber":46,"velocity":110,"programNumber":25},{"time":1119826.7319270985,"duration":319.4443645833526,"noteNumber":53,"velocity":110,"programNumber":25},{"time":1120160.0651770984,"duration":319.4443645833526,"noteNumber":46,"velocity":110,"programNumber":25},{"time":1120160.0651770984,"duration":319.4443645833526,"noteNumber":53,"velocity":110,"programNumber":25},{"time":1120493.3984270983,"duration":652.7776145832613,"noteNumber":46,"velocity":110,"programNumber":25},{"time":1120493.3984270983,"duration":652.7776145832613,"noteNumber":53,"velocity":110,"programNumber":25},{"time":1121160.064927098,"duration":319.4443645833526,"noteNumber":46,"velocity":110,"programNumber":25},{"time":1121160.064927098,"duration":319.4443645833526,"noteNumber":53,"velocity":110,"programNumber":25},{"time":1121493.398177098,"duration":319.4443645833526,"noteNumber":46,"velocity":110,"programNumber":25},{"time":1121493.398177098,"duration":319.4443645833526,"noteNumber":53,"velocity":110,"programNumber":25},{"time":1121826.731427098,"duration":652.7776145832613,"noteNumber":48,"velocity":110,"programNumber":25},{"time":1121826.731427098,"duration":652.7776145832613,"noteNumber":55,"velocity":110,"programNumber":25},{"time":1122493.3979270977,"duration":319.4443645833526,"noteNumber":48,"velocity":110,"programNumber":25},{"time":1122493.3979270977,"duration":319.4443645833526,"noteNumber":55,"velocity":110,"programNumber":25},{"time":1122826.7311770977,"duration":319.4443645833526,"noteNumber":48,"velocity":110,"programNumber":25},{"time":1122826.7311770977,"duration":319.4443645833526,"noteNumber":55,"velocity":110,"programNumber":25},{"time":1123160.0644270976,"duration":652.7776145832613,"noteNumber":48,"velocity":110,"programNumber":25},{"time":1123160.0644270976,"duration":652.7776145832613,"noteNumber":55,"velocity":110,"programNumber":25},{"time":1123826.7309270974,"duration":319.4443645833526,"noteNumber":48,"velocity":110,"programNumber":25},{"time":1123826.7309270974,"duration":319.4443645833526,"noteNumber":55,"velocity":110,"programNumber":25},{"time":1124160.0641770973,"duration":319.4443645833526,"noteNumber":48,"velocity":110,"programNumber":25},{"time":1124160.0641770973,"duration":319.4443645833526,"noteNumber":55,"velocity":110,"programNumber":25},{"time":1124493.3974270972,"duration":652.7776145832613,"noteNumber":50,"velocity":110,"programNumber":25},{"time":1124493.3974270972,"duration":652.7776145832613,"noteNumber":57,"velocity":110,"programNumber":25},{"time":1125160.063927097,"duration":319.4443645833526,"noteNumber":50,"velocity":110,"programNumber":25},{"time":1125160.063927097,"duration":319.4443645833526,"noteNumber":57,"velocity":110,"programNumber":25},{"time":1125493.397177097,"duration":319.4443645833526,"noteNumber":50,"velocity":110,"programNumber":25},{"time":1125493.397177097,"duration":319.4443645833526,"noteNumber":57,"velocity":110,"programNumber":25},{"time":1125826.7304270968,"duration":652.7776145832613,"noteNumber":50,"velocity":110,"programNumber":25},{"time":1125826.7304270968,"duration":652.7776145832613,"noteNumber":57,"velocity":110,"programNumber":25},{"time":1126493.3969270966,"duration":319.4443645833526,"noteNumber":50,"velocity":110,"programNumber":25},{"time":1126493.3969270966,"duration":319.4443645833526,"noteNumber":57,"velocity":110,"programNumber":25},{"time":1126826.7301770966,"duration":319.4443645833526,"noteNumber":50,"velocity":110,"programNumber":25},{"time":1126826.7301770966,"duration":319.4443645833526,"noteNumber":57,"velocity":110,"programNumber":25},{"time":1127160.0634270965,"duration":652.7776145832613,"noteNumber":48,"velocity":110,"programNumber":25},{"time":1127160.0634270965,"duration":652.7776145832613,"noteNumber":55,"velocity":110,"programNumber":25},{"time":1127826.7299270963,"duration":319.4443645833526,"noteNumber":48,"velocity":110,"programNumber":25},{"time":1127826.7299270963,"duration":319.4443645833526,"noteNumber":55,"velocity":110,"programNumber":25},{"time":1128160.0631770962,"duration":319.4443645833526,"noteNumber":48,"velocity":110,"programNumber":25},{"time":1128160.0631770962,"duration":319.4443645833526,"noteNumber":55,"velocity":110,"programNumber":25},{"time":1128493.396427096,"duration":652.7776145832613,"noteNumber":48,"velocity":110,"programNumber":25},{"time":1128493.396427096,"duration":652.7776145832613,"noteNumber":55,"velocity":110,"programNumber":25},{"time":1129160.062927096,"duration":319.4443645833526,"noteNumber":48,"velocity":110,"programNumber":25},{"time":1129160.062927096,"duration":319.4443645833526,"noteNumber":55,"velocity":110,"programNumber":25},{"time":1129493.3961770958,"duration":319.4443645833526,"noteNumber":48,"velocity":110,"programNumber":25},{"time":1129493.3961770958,"duration":319.4443645833526,"noteNumber":55,"velocity":110,"programNumber":25},{"time":1129826.7294270957,"duration":652.7776145832613,"noteNumber":46,"velocity":110,"programNumber":25},{"time":1129826.7294270957,"duration":652.7776145832613,"noteNumber":53,"velocity":110,"programNumber":25},{"time":1130493.3959270956,"duration":319.4443645833526,"noteNumber":46,"velocity":110,"programNumber":25},{"time":1130493.3959270956,"duration":319.4443645833526,"noteNumber":53,"velocity":110,"programNumber":25},{"time":1130826.7291770955,"duration":319.4443645833526,"noteNumber":46,"velocity":110,"programNumber":25},{"time":1130826.7291770955,"duration":319.4443645833526,"noteNumber":53,"velocity":110,"programNumber":25},{"time":1131160.0624270954,"duration":652.7776145832613,"noteNumber":46,"velocity":110,"programNumber":25},{"time":1131160.0624270954,"duration":652.7776145832613,"noteNumber":53,"velocity":110,"programNumber":25},{"time":1131826.7289270952,"duration":319.4443645833526,"noteNumber":46,"velocity":110,"programNumber":25},{"time":1131826.7289270952,"duration":319.4443645833526,"noteNumber":53,"velocity":110,"programNumber":25},{"time":1132160.062177095,"duration":319.4443645833526,"noteNumber":46,"velocity":110,"programNumber":25},{"time":1132160.062177095,"duration":319.4443645833526,"noteNumber":53,"velocity":110,"programNumber":25},{"time":1132493.395427095,"duration":652.7776145832613,"noteNumber":53,"velocity":110,"programNumber":25},{"time":1132493.395427095,"duration":652.7776145832613,"noteNumber":60,"velocity":110,"programNumber":25},{"time":1133160.0619270948,"duration":319.4443645833526,"noteNumber":53,"velocity":110,"programNumber":25},{"time":1133160.0619270948,"duration":319.4443645833526,"noteNumber":60,"velocity":110,"programNumber":25},{"time":1133493.3951770947,"duration":319.4443645833526,"noteNumber":53,"velocity":110,"programNumber":25},{"time":1133493.3951770947,"duration":319.4443645833526,"noteNumber":60,"velocity":110,"programNumber":25},{"time":1133826.7284270946,"duration":652.7776145832613,"noteNumber":55,"velocity":110,"programNumber":25},{"time":1133826.7284270946,"duration":652.7776145832613,"noteNumber":62,"velocity":110,"programNumber":25},{"time":1134493.3949270945,"duration":319.4443645833526,"noteNumber":55,"velocity":110,"programNumber":25},{"time":1134493.3949270945,"duration":319.4443645833526,"noteNumber":62,"velocity":110,"programNumber":25},{"time":1134826.7281770944,"duration":319.4443645833526,"noteNumber":55,"velocity":110,"programNumber":25},{"time":1134826.7281770944,"duration":319.4443645833526,"noteNumber":62,"velocity":110,"programNumber":25},{"time":1135160.0614270943,"duration":652.7776145832613,"noteNumber":50,"velocity":110,"programNumber":25},{"time":1135160.0614270943,"duration":652.7776145832613,"noteNumber":57,"velocity":110,"programNumber":25},{"time":1135826.727927094,"duration":319.4443645833526,"noteNumber":50,"velocity":110,"programNumber":25},{"time":1135826.727927094,"duration":319.4443645833526,"noteNumber":57,"velocity":110,"programNumber":25},{"time":1136160.061177094,"duration":319.4443645833526,"noteNumber":50,"velocity":110,"programNumber":25},{"time":1136160.061177094,"duration":319.4443645833526,"noteNumber":57,"velocity":110,"programNumber":25},{"time":1136493.394427094,"duration":652.7776145832613,"noteNumber":50,"velocity":110,"programNumber":25},{"time":1136493.394427094,"duration":652.7776145832613,"noteNumber":57,"velocity":110,"programNumber":25},{"time":1137160.0609270937,"duration":319.4443645833526,"noteNumber":50,"velocity":110,"programNumber":25},{"time":1137160.0609270937,"duration":319.4443645833526,"noteNumber":57,"velocity":110,"programNumber":25},{"time":1137493.3941770936,"duration":319.4443645833526,"noteNumber":50,"velocity":110,"programNumber":25},{"time":1137493.3941770936,"duration":319.4443645833526,"noteNumber":57,"velocity":110,"programNumber":25},{"time":1137826.7274270935,"duration":652.7776145832613,"noteNumber":50,"velocity":110,"programNumber":25},{"time":1137826.7274270935,"duration":652.7776145832613,"noteNumber":57,"velocity":110,"programNumber":25},{"time":1138493.3939270934,"duration":319.4443645833526,"noteNumber":50,"velocity":110,"programNumber":25},{"time":1138493.3939270934,"duration":319.4443645833526,"noteNumber":57,"velocity":110,"programNumber":25},{"time":1138826.7271770933,"duration":319.4443645833526,"noteNumber":50,"velocity":110,"programNumber":25},{"time":1138826.7271770933,"duration":319.4443645833526,"noteNumber":57,"velocity":110,"programNumber":25},{"time":1139160.0604270932,"duration":652.7776145832613,"noteNumber":50,"velocity":110,"programNumber":25},{"time":1139160.0604270932,"duration":652.7776145832613,"noteNumber":57,"velocity":110,"programNumber":25},{"time":1139826.726927093,"duration":319.4443645833526,"noteNumber":50,"velocity":110,"programNumber":25},{"time":1139826.726927093,"duration":319.4443645833526,"noteNumber":57,"velocity":110,"programNumber":25},{"time":1140160.060177093,"duration":319.4443645833526,"noteNumber":50,"velocity":110,"programNumber":25},{"time":1140160.060177093,"duration":319.4443645833526,"noteNumber":57,"velocity":110,"programNumber":25},{"time":1140493.3934270928,"duration":652.7776145832613,"noteNumber":46,"velocity":110,"programNumber":25},{"time":1140493.3934270928,"duration":652.7776145832613,"noteNumber":53,"velocity":110,"programNumber":25},{"time":1141160.0599270926,"duration":319.4443645833526,"noteNumber":46,"velocity":110,"programNumber":25},{"time":1141160.0599270926,"duration":319.4443645833526,"noteNumber":53,"velocity":110,"programNumber":25},{"time":1141493.3931770925,"duration":319.4443645833526,"noteNumber":46,"velocity":110,"programNumber":25},{"time":1141493.3931770925,"duration":319.4443645833526,"noteNumber":53,"velocity":110,"programNumber":25},{"time":1141826.7264270924,"duration":652.7776145832613,"noteNumber":46,"velocity":110,"programNumber":25},{"time":1141826.7264270924,"duration":652.7776145832613,"noteNumber":53,"velocity":110,"programNumber":25},{"time":1142493.3929270923,"duration":319.4443645833526,"noteNumber":46,"velocity":110,"programNumber":25},{"time":1142493.3929270923,"duration":319.4443645833526,"noteNumber":53,"velocity":110,"programNumber":25},{"time":1142818.0893854257,"duration":122.86312499991618,"noteNumber":46,"velocity":110,"programNumber":25},{"time":1142818.0893854257,"duration":122.86312499991618,"noteNumber":53,"velocity":110,"programNumber":25},{"time":1142946.3872916757,"duration":259.95553124998696,"noteNumber":48,"velocity":110,"programNumber":25},{"time":1142946.3872916757,"duration":259.95553124998696,"noteNumber":55,"velocity":110,"programNumber":25},{"time":1143211.9734479256,"duration":131.88056250009686,"noteNumber":48,"velocity":110,"programNumber":25},{"time":1143211.9734479256,"duration":131.88056250009686,"noteNumber":55,"velocity":110,"programNumber":25},{"time":1143349.6951250092,"duration":136.90462499996647,"noteNumber":48,"velocity":110,"programNumber":25},{"time":1143349.6951250092,"duration":136.90462499996647,"noteNumber":55,"velocity":110,"programNumber":25},{"time":1143492.6677083424,"duration":290.84138541668653,"noteNumber":48,"velocity":110,"programNumber":25},{"time":1143492.6677083424,"duration":290.84138541668653,"noteNumber":55,"velocity":110,"programNumber":25},{"time":1143789.8222187592,"duration":148.1957083332818,"noteNumber":48,"velocity":110,"programNumber":25},{"time":1143789.8222187592,"duration":148.1957083332818,"noteNumber":55,"velocity":110,"programNumber":25},{"time":1143944.5968645925,"duration":154.56982291676104,"noteNumber":48,"velocity":110,"programNumber":25},{"time":1143944.5968645925,"duration":154.56982291676104,"noteNumber":55,"velocity":110,"programNumber":25},{"time":1144106.0348125093,"duration":330.0560312499292,"noteNumber":50,"velocity":110,"programNumber":25},{"time":1144106.0348125093,"duration":330.0560312499292,"noteNumber":57,"velocity":110,"programNumber":25},{"time":1144443.2747500092,"duration":169.11756250006147,"noteNumber":50,"velocity":110,"programNumber":25},{"time":1144443.2747500092,"duration":169.11756250006147,"noteNumber":57,"velocity":110,"programNumber":25},{"time":1144619.9224270927,"duration":177.46895833336748,"noteNumber":50,"velocity":110,"programNumber":25},{"time":1144619.9224270927,"duration":177.46895833336748,"noteNumber":57,"velocity":110,"programNumber":25},{"time":1144805.3027708428,"duration":381.49312500003725,"noteNumber":50,"velocity":110,"programNumber":25},{"time":1144805.3027708428,"duration":381.49312500003725,"noteNumber":57,"velocity":110,"programNumber":25},{"time":1145195.129229176,"duration":191.66666666674428,"noteNumber":50,"velocity":110,"programNumber":25},{"time":1145195.129229176,"duration":191.66666666674428,"noteNumber":57,"velocity":110,"programNumber":25},{"time":1145395.129229176,"duration":191.66666666674428,"noteNumber":50,"velocity":110,"programNumber":25},{"time":1145395.129229176,"duration":191.66666666674428,"noteNumber":57,"velocity":110,"programNumber":25},{"time":1145595.129229176,"duration":391.6666666667443,"noteNumber":48,"velocity":110,"programNumber":25},{"time":1145595.129229176,"duration":391.6666666667443,"noteNumber":55,"velocity":110,"programNumber":25},{"time":1145995.129229176,"duration":191.66666666674428,"noteNumber":48,"velocity":110,"programNumber":25},{"time":1145995.129229176,"duration":191.66666666674428,"noteNumber":55,"velocity":110,"programNumber":25},{"time":1146195.129229176,"duration":191.66666666674428,"noteNumber":48,"velocity":110,"programNumber":25},{"time":1146195.129229176,"duration":191.66666666674428,"noteNumber":55,"velocity":110,"programNumber":25},{"time":1146395.129229176,"duration":391.6666666667443,"noteNumber":48,"velocity":110,"programNumber":25},{"time":1146395.129229176,"duration":391.6666666667443,"noteNumber":55,"velocity":110,"programNumber":25},{"time":1146795.129229176,"duration":191.66666666674428,"noteNumber":48,"velocity":110,"programNumber":25},{"time":1146795.129229176,"duration":191.66666666674428,"noteNumber":55,"velocity":110,"programNumber":25},{"time":1146995.129229176,"duration":191.66666666674428,"noteNumber":48,"velocity":110,"programNumber":25},{"time":1146995.129229176,"duration":191.66666666674428,"noteNumber":55,"velocity":110,"programNumber":25},{"time":1147195.129229176,"duration":391.6666666667443,"noteNumber":46,"velocity":110,"programNumber":25},{"time":1147195.129229176,"duration":391.6666666667443,"noteNumber":53,"velocity":110,"programNumber":25},{"time":1147595.129229176,"duration":191.66666666674428,"noteNumber":46,"velocity":110,"programNumber":25},{"time":1147595.129229176,"duration":191.66666666674428,"noteNumber":53,"velocity":110,"programNumber":25},{"time":1147795.129229176,"duration":191.66666666674428,"noteNumber":46,"velocity":110,"programNumber":25},{"time":1147795.129229176,"duration":191.66666666674428,"noteNumber":53,"velocity":110,"programNumber":25},{"time":1147995.129229176,"duration":391.6666666667443,"noteNumber":46,"velocity":110,"programNumber":25},{"time":1147995.129229176,"duration":391.6666666667443,"noteNumber":53,"velocity":110,"programNumber":25},{"time":1148395.129229176,"duration":191.66666666674428,"noteNumber":46,"velocity":110,"programNumber":25},{"time":1148395.129229176,"duration":191.66666666674428,"noteNumber":53,"velocity":110,"programNumber":25},{"time":1148595.129229176,"duration":191.66666666674428,"noteNumber":46,"velocity":110,"programNumber":25},{"time":1148595.129229176,"duration":191.66666666674428,"noteNumber":53,"velocity":110,"programNumber":25},{"time":1148795.129229176,"duration":391.6666666667443,"noteNumber":53,"velocity":110,"programNumber":25},{"time":1148795.129229176,"duration":391.6666666667443,"noteNumber":60,"velocity":110,"programNumber":25},{"time":1149195.129229176,"duration":191.66666666674428,"noteNumber":53,"velocity":110,"programNumber":25},{"time":1149195.129229176,"duration":191.66666666674428,"noteNumber":60,"velocity":110,"programNumber":25},{"time":1149395.129229176,"duration":191.66666666674428,"noteNumber":53,"velocity":110,"programNumber":25},{"time":1149395.129229176,"duration":191.66666666674428,"noteNumber":60,"velocity":110,"programNumber":25},{"time":1149595.129229176,"duration":391.6666666667443,"noteNumber":55,"velocity":110,"programNumber":25},{"time":1149595.129229176,"duration":391.6666666667443,"noteNumber":62,"velocity":110,"programNumber":25},{"time":1149995.129229176,"duration":191.66666666674428,"noteNumber":55,"velocity":110,"programNumber":25},{"time":1149995.129229176,"duration":191.66666666674428,"noteNumber":62,"velocity":110,"programNumber":25},{"time":1150195.129229176,"duration":191.66666666674428,"noteNumber":55,"velocity":110,"programNumber":25},{"time":1150195.129229176,"duration":191.66666666674428,"noteNumber":62,"velocity":110,"programNumber":25},{"time":1150395.129229176,"duration":391.6666666667443,"noteNumber":50,"velocity":110,"programNumber":25},{"time":1150395.129229176,"duration":391.6666666667443,"noteNumber":57,"velocity":110,"programNumber":25},{"time":1150795.129229176,"duration":191.66666666674428,"noteNumber":50,"velocity":110,"programNumber":25},{"time":1150795.129229176,"duration":191.66666666674428,"noteNumber":57,"velocity":110,"programNumber":25},{"time":1150995.129229176,"duration":191.66666666674428,"noteNumber":50,"velocity":110,"programNumber":25},{"time":1150995.129229176,"duration":191.66666666674428,"noteNumber":57,"velocity":110,"programNumber":25},{"time":1151195.129229176,"duration":391.6666666667443,"noteNumber":50,"velocity":110,"programNumber":25},{"time":1151195.129229176,"duration":391.6666666667443,"noteNumber":57,"velocity":110,"programNumber":25},{"time":1151595.129229176,"duration":191.66666666674428,"noteNumber":50,"velocity":110,"programNumber":25},{"time":1151595.129229176,"duration":191.66666666674428,"noteNumber":57,"velocity":110,"programNumber":25},{"time":1151795.129229176,"duration":191.66666666674428,"noteNumber":50,"velocity":110,"programNumber":25},{"time":1151795.129229176,"duration":191.66666666674428,"noteNumber":57,"velocity":110,"programNumber":25},{"time":1151995.129229176,"duration":391.6666666667443,"noteNumber":50,"velocity":110,"programNumber":25},{"time":1151995.129229176,"duration":391.6666666667443,"noteNumber":57,"velocity":110,"programNumber":25},{"time":1152395.129229176,"duration":191.66666666674428,"noteNumber":50,"velocity":110,"programNumber":25},{"time":1152395.129229176,"duration":191.66666666674428,"noteNumber":57,"velocity":110,"programNumber":25},{"time":1152595.129229176,"duration":191.66666666674428,"noteNumber":50,"velocity":110,"programNumber":25},{"time":1152595.129229176,"duration":191.66666666674428,"noteNumber":57,"velocity":110,"programNumber":25},{"time":1152795.129229176,"duration":391.6666666667443,"noteNumber":50,"velocity":110,"programNumber":25},{"time":1152795.129229176,"duration":391.6666666667443,"noteNumber":57,"velocity":110,"programNumber":25},{"time":1153195.129229176,"duration":191.66666666674428,"noteNumber":50,"velocity":110,"programNumber":25},{"time":1153195.129229176,"duration":191.66666666674428,"noteNumber":57,"velocity":110,"programNumber":25},{"time":1153395.129229176,"duration":191.66666666674428,"noteNumber":50,"velocity":110,"programNumber":25},{"time":1153395.129229176,"duration":191.66666666674428,"noteNumber":57,"velocity":110,"programNumber":25},{"time":1153595.129229176,"duration":391.6666666667443,"noteNumber":46,"velocity":110,"programNumber":25},{"time":1153595.129229176,"duration":391.6666666667443,"noteNumber":53,"velocity":110,"programNumber":25},{"time":1153995.129229176,"duration":191.66666666674428,"noteNumber":46,"velocity":110,"programNumber":25},{"time":1153995.129229176,"duration":191.66666666674428,"noteNumber":53,"velocity":110,"programNumber":25},{"time":1154195.129229176,"duration":191.66666666674428,"noteNumber":46,"velocity":110,"programNumber":25},{"time":1154195.129229176,"duration":191.66666666674428,"noteNumber":53,"velocity":110,"programNumber":25},{"time":1154395.129229176,"duration":391.6666666667443,"noteNumber":46,"velocity":110,"programNumber":25},{"time":1154395.129229176,"duration":391.6666666667443,"noteNumber":53,"velocity":110,"programNumber":25},{"time":1154795.129229176,"duration":191.66666666674428,"noteNumber":46,"velocity":110,"programNumber":25},{"time":1154795.129229176,"duration":191.66666666674428,"noteNumber":53,"velocity":110,"programNumber":25},{"time":1154995.129229176,"duration":191.66666666674428,"noteNumber":46,"velocity":110,"programNumber":25},{"time":1154995.129229176,"duration":191.66666666674428,"noteNumber":53,"velocity":110,"programNumber":25},{"time":1155195.129229176,"duration":391.6666666667443,"noteNumber":48,"velocity":110,"programNumber":25},{"time":1155195.129229176,"duration":391.6666666667443,"noteNumber":55,"velocity":110,"programNumber":25},{"time":1155595.129229176,"duration":191.66666666674428,"noteNumber":48,"velocity":110,"programNumber":25},{"time":1155595.129229176,"duration":191.66666666674428,"noteNumber":55,"velocity":110,"programNumber":25},{"time":1155795.129229176,"duration":191.66666666674428,"noteNumber":48,"velocity":110,"programNumber":25},{"time":1155795.129229176,"duration":191.66666666674428,"noteNumber":55,"velocity":110,"programNumber":25},{"time":1155995.129229176,"duration":391.6666666667443,"noteNumber":48,"velocity":110,"programNumber":25},{"time":1155995.129229176,"duration":391.6666666667443,"noteNumber":55,"velocity":110,"programNumber":25},{"time":1156395.129229176,"duration":191.66666666674428,"noteNumber":48,"velocity":110,"programNumber":25},{"time":1156395.129229176,"duration":191.66666666674428,"noteNumber":55,"velocity":110,"programNumber":25},{"time":1156595.129229176,"duration":191.66666666674428,"noteNumber":48,"velocity":110,"programNumber":25},{"time":1156595.129229176,"duration":191.66666666674428,"noteNumber":55,"velocity":110,"programNumber":25},{"time":1156795.129229176,"duration":391.6666666667443,"noteNumber":50,"velocity":110,"programNumber":25},{"time":1156795.129229176,"duration":391.6666666667443,"noteNumber":57,"velocity":110,"programNumber":25},{"time":1157195.129229176,"duration":191.66666666674428,"noteNumber":50,"velocity":110,"programNumber":25},{"time":1157195.129229176,"duration":191.66666666674428,"noteNumber":57,"velocity":110,"programNumber":25},{"time":1157395.129229176,"duration":191.66666666674428,"noteNumber":50,"velocity":110,"programNumber":25},{"time":1157395.129229176,"duration":191.66666666674428,"noteNumber":57,"velocity":110,"programNumber":25},{"time":1157595.129229176,"duration":391.6666666667443,"noteNumber":50,"velocity":110,"programNumber":25},{"time":1157595.129229176,"duration":391.6666666667443,"noteNumber":57,"velocity":110,"programNumber":25},{"time":1157995.129229176,"duration":191.66666666674428,"noteNumber":50,"velocity":110,"programNumber":25},{"time":1157995.129229176,"duration":191.66666666674428,"noteNumber":57,"velocity":110,"programNumber":25},{"time":1158195.129229176,"duration":191.66666666674428,"noteNumber":50,"velocity":110,"programNumber":25},{"time":1158195.129229176,"duration":191.66666666674428,"noteNumber":57,"velocity":110,"programNumber":25},{"time":1158395.129229176,"duration":391.6666666667443,"noteNumber":48,"velocity":110,"programNumber":25},{"time":1158395.129229176,"duration":391.6666666667443,"noteNumber":55,"velocity":110,"programNumber":25},{"time":1158795.129229176,"duration":191.66666666674428,"noteNumber":48,"velocity":110,"programNumber":25},{"time":1158795.129229176,"duration":191.66666666674428,"noteNumber":55,"velocity":110,"programNumber":25},{"time":1158995.129229176,"duration":191.66666666674428,"noteNumber":48,"velocity":110,"programNumber":25},{"time":1158995.129229176,"duration":191.66666666674428,"noteNumber":55,"velocity":110,"programNumber":25},{"time":1159195.129229176,"duration":391.6666666667443,"noteNumber":48,"velocity":110,"programNumber":25},{"time":1159195.129229176,"duration":391.6666666667443,"noteNumber":55,"velocity":110,"programNumber":25},{"time":1159595.129229176,"duration":191.66666666674428,"noteNumber":48,"velocity":110,"programNumber":25},{"time":1159595.129229176,"duration":191.66666666674428,"noteNumber":55,"velocity":110,"programNumber":25},{"time":1159795.129229176,"duration":191.66666666674428,"noteNumber":48,"velocity":110,"programNumber":25},{"time":1159795.129229176,"duration":191.66666666674428,"noteNumber":55,"velocity":110,"programNumber":25},{"time":1159995.129229176,"duration":391.6666666667443,"noteNumber":46,"velocity":110,"programNumber":25},{"time":1159995.129229176,"duration":391.6666666667443,"noteNumber":53,"velocity":110,"programNumber":25},{"time":1160395.129229176,"duration":191.66666666674428,"noteNumber":46,"velocity":110,"programNumber":25},{"time":1160395.129229176,"duration":191.66666666674428,"noteNumber":53,"velocity":110,"programNumber":25},{"time":1160595.129229176,"duration":191.66666666674428,"noteNumber":46,"velocity":110,"programNumber":25},{"time":1160595.129229176,"duration":191.66666666674428,"noteNumber":53,"velocity":110,"programNumber":25},{"time":1160795.129229176,"duration":391.6666666667443,"noteNumber":46,"velocity":110,"programNumber":25},{"time":1160795.129229176,"duration":391.6666666667443,"noteNumber":53,"velocity":110,"programNumber":25},{"time":1161195.129229176,"duration":191.66666666674428,"noteNumber":46,"velocity":110,"programNumber":25},{"time":1161195.129229176,"duration":191.66666666674428,"noteNumber":53,"velocity":110,"programNumber":25},{"time":1161395.129229176,"duration":191.66666666674428,"noteNumber":46,"velocity":110,"programNumber":25},{"time":1161395.129229176,"duration":191.66666666674428,"noteNumber":53,"velocity":110,"programNumber":25},{"time":1161595.129229176,"duration":391.6666666667443,"noteNumber":53,"velocity":110,"programNumber":25},{"time":1161595.129229176,"duration":391.6666666667443,"noteNumber":60,"velocity":110,"programNumber":25},{"time":1161995.129229176,"duration":191.66666666674428,"noteNumber":53,"velocity":110,"programNumber":25},{"time":1161995.129229176,"duration":191.66666666674428,"noteNumber":60,"velocity":110,"programNumber":25},{"time":1162195.129229176,"duration":191.66666666674428,"noteNumber":53,"velocity":110,"programNumber":25},{"time":1162195.129229176,"duration":191.66666666674428,"noteNumber":60,"velocity":110,"programNumber":25},{"time":1162395.129229176,"duration":391.6666666667443,"noteNumber":55,"velocity":110,"programNumber":25},{"time":1162395.129229176,"duration":391.6666666667443,"noteNumber":62,"velocity":110,"programNumber":25},{"time":1162795.129229176,"duration":191.66666666674428,"noteNumber":55,"velocity":110,"programNumber":25},{"time":1162795.129229176,"duration":191.66666666674428,"noteNumber":62,"velocity":110,"programNumber":25},{"time":1162995.129229176,"duration":191.66666666674428,"noteNumber":55,"velocity":110,"programNumber":25},{"time":1162995.129229176,"duration":191.66666666674428,"noteNumber":62,"velocity":110,"programNumber":25},{"time":1163195.129229176,"duration":3000,"noteNumber":50,"velocity":110,"programNumber":25},{"time":1163195.129229176,"duration":3000,"noteNumber":57,"velocity":110,"programNumber":25},{"time":1163195.129229176,"duration":3000,"noteNumber":62,"velocity":110,"programNumber":25},{"time":1166795.129229176,"duration":191.66666666674428,"noteNumber":57,"velocity":110,"programNumber":25},{"time":1166995.129229176,"duration":725,"noteNumber":62,"velocity":110,"programNumber":25},{"time":1167728.4625625093,"duration":258.3333333332557,"noteNumber":64,"velocity":110,"programNumber":25},{"time":1167995.1292291759,"duration":525,"noteNumber":65,"velocity":110,"programNumber":25},{"time":1168528.462562509,"duration":258.3333333332557,"noteNumber":67,"velocity":110,"programNumber":25},{"time":1168795.1292291756,"duration":391.6666666667443,"noteNumber":65,"velocity":110,"programNumber":25},{"time":1169195.1292291756,"duration":191.66666666674428,"noteNumber":64,"velocity":110,"programNumber":25},{"time":1169395.1292291756,"duration":791.6666666667443,"noteNumber":60,"velocity":110,"programNumber":25},{"time":1170195.1292291756,"duration":191.66666666674428,"noteNumber":55,"velocity":110,"programNumber":25},{"time":1170395.1292291756,"duration":666.6666666667443,"noteNumber":60,"velocity":110,"programNumber":25},{"time":1171195.1292291756,"duration":391.6666666667443,"noteNumber":58,"velocity":110,"programNumber":25},{"time":1171595.1292291756,"duration":391.6666666667443,"noteNumber":60,"velocity":110,"programNumber":25},{"time":1171995.1292291756,"duration":391.6666666667443,"noteNumber":60,"velocity":110,"programNumber":25},{"time":1172395.1292291756,"duration":191.66666666674428,"noteNumber":65,"velocity":110,"programNumber":25},{"time":1172595.1292291756,"duration":725,"noteNumber":62,"velocity":110,"programNumber":25},{"time":1173328.4625625089,"duration":258.3333333332557,"noteNumber":57,"velocity":110,"programNumber":25},{"time":1173595.1292291754,"duration":391.6666666667443,"noteNumber":62,"velocity":110,"programNumber":25},{"time":1173995.1292291754,"duration":191.66666666674428,"noteNumber":64,"velocity":110,"programNumber":25},{"time":1174195.1292291754,"duration":725,"noteNumber":65,"velocity":110,"programNumber":25},{"time":1174928.4625625086,"duration":258.3333333332557,"noteNumber":67,"velocity":110,"programNumber":25},{"time":1175195.1292291752,"duration":391.6666666667443,"noteNumber":65,"velocity":110,"programNumber":25},{"time":1175595.1292291752,"duration":191.66666666674428,"noteNumber":64,"velocity":110,"programNumber":25},{"time":1175795.1292291752,"duration":3200,"noteNumber":60,"velocity":110,"programNumber":25},{"time":1179728.4625625084,"duration":258.3333333332557,"noteNumber":57,"velocity":110,"programNumber":25},{"time":1179995.129229175,"duration":391.6666666667443,"noteNumber":62,"velocity":110,"programNumber":25},{"time":1180395.129229175,"duration":191.66666666674428,"noteNumber":64,"velocity":110,"programNumber":25},{"time":1180595.129229175,"duration":725,"noteNumber":65,"velocity":110,"programNumber":25},{"time":1181328.4625625082,"duration":258.3333333332557,"noteNumber":67,"velocity":110,"programNumber":25},{"time":1181595.1292291747,"duration":391.6666666667443,"noteNumber":65,"velocity":110,"programNumber":25},{"time":1181995.1292291747,"duration":191.66666666674428,"noteNumber":64,"velocity":110,"programNumber":25},{"time":1182195.1292291747,"duration":791.6666666667443,"noteNumber":60,"velocity":110,"programNumber":25},{"time":1182995.1292291747,"duration":191.66666666674428,"noteNumber":55,"velocity":110,"programNumber":25},{"time":1183195.1292291747,"duration":391.6666666667443,"noteNumber":60,"velocity":110,"programNumber":25},{"time":1183595.1292291747,"duration":191.66666666674428,"noteNumber":55,"velocity":110,"programNumber":25},{"time":1183795.1292291747,"duration":191.66666666674428,"noteNumber":58,"velocity":110,"programNumber":25},{"time":1183995.1292291747,"duration":591.6666666667443,"noteNumber":58,"velocity":110,"programNumber":25},{"time":1184595.1292291747,"duration":191.66666666674428,"noteNumber":60,"velocity":110,"programNumber":25},{"time":1184795.1292291747,"duration":391.6666666667443,"noteNumber":60,"velocity":110,"programNumber":25},{"time":1185195.1292291747,"duration":191.66666666674428,"noteNumber":65,"velocity":110,"programNumber":25},{"time":1185395.1292291747,"duration":725,"noteNumber":62,"velocity":110,"programNumber":25},{"time":1186128.462562508,"duration":258.3333333332557,"noteNumber":57,"velocity":110,"programNumber":25},{"time":1186395.1292291745,"duration":391.6666666667443,"noteNumber":62,"velocity":110,"programNumber":25},{"time":1186795.1292291745,"duration":191.66666666674428,"noteNumber":64,"velocity":110,"programNumber":25},{"time":1186995.1292291745,"duration":591.6666666667443,"noteNumber":65,"velocity":110,"programNumber":25},{"time":1187595.1292291745,"duration":191.66666666674428,"noteNumber":67,"velocity":110,"programNumber":25},{"time":1187795.1292291745,"duration":591.6666666667443,"noteNumber":65,"velocity":110,"programNumber":25},{"time":1188395.1292291745,"duration":191.66666666674428,"noteNumber":64,"velocity":110,"programNumber":25},{"time":1188595.1292291745,"duration":1591.6666666667443,"noteNumber":60,"velocity":110,"programNumber":25},{"time":1190195.1292291745,"duration":1600,"noteNumber":79,"velocity":110,"programNumber":25},{"time":1191995.1292291745,"duration":191.66666666674428,"noteNumber":50,"velocity":110,"programNumber":25},{"time":1192195.1292291745,"duration":191.66666666674428,"noteNumber":57,"velocity":110,"programNumber":25},{"time":1192395.1292291745,"duration":191.66666666674428,"noteNumber":50,"velocity":110,"programNumber":25},{"time":1192595.1292291745,"duration":191.66666666674428,"noteNumber":57,"velocity":110,"programNumber":25},{"time":1192795.1292291745,"duration":191.66666666674428,"noteNumber":50,"velocity":110,"programNumber":25},{"time":1192995.1292291745,"duration":191.66666666674428,"noteNumber":57,"velocity":110,"programNumber":25},{"time":1193195.1292291745,"duration":191.66666666674428,"noteNumber":50,"velocity":110,"programNumber":25},{"time":1193395.1292291745,"duration":191.66666666674428,"noteNumber":57,"velocity":110,"programNumber":25},{"time":1193595.1292291745,"duration":191.66666666674428,"noteNumber":46,"velocity":110,"programNumber":25},{"time":1193795.1292291745,"duration":191.66666666674428,"noteNumber":53,"velocity":110,"programNumber":25},{"time":1193995.1292291745,"duration":191.66666666674428,"noteNumber":46,"velocity":110,"programNumber":25},{"time":1194195.1292291745,"duration":191.66666666674428,"noteNumber":53,"velocity":110,"programNumber":25},{"time":1194395.1292291745,"duration":191.66666666674428,"noteNumber":46,"velocity":110,"programNumber":25},{"time":1194595.1292291745,"duration":191.66666666674428,"noteNumber":53,"velocity":110,"programNumber":25},{"time":1194795.1292291745,"duration":191.66666666674428,"noteNumber":46,"velocity":110,"programNumber":25},{"time":1194995.1292291745,"duration":191.66666666674428,"noteNumber":53,"velocity":110,"programNumber":25},{"time":1195195.1292291745,"duration":191.66666666674428,"noteNumber":48,"velocity":110,"programNumber":25},{"time":1195395.1292291745,"duration":191.66666666674428,"noteNumber":55,"velocity":110,"programNumber":25},{"time":1195595.1292291745,"duration":191.66666666674428,"noteNumber":48,"velocity":110,"programNumber":25},{"time":1195795.1292291745,"duration":191.66666666674428,"noteNumber":55,"velocity":110,"programNumber":25},{"time":1195995.1292291745,"duration":191.66666666674428,"noteNumber":48,"velocity":110,"programNumber":25},{"time":1196195.1292291745,"duration":191.66666666674428,"noteNumber":55,"velocity":110,"programNumber":25},{"time":1196395.1292291745,"duration":191.66666666674428,"noteNumber":48,"velocity":110,"programNumber":25},{"time":1196595.1292291745,"duration":191.66666666674428,"noteNumber":55,"velocity":110,"programNumber":25},{"time":1196795.1292291745,"duration":191.66666666674428,"noteNumber":53,"velocity":110,"programNumber":25},{"time":1196995.1292291745,"duration":191.66666666674428,"noteNumber":58,"velocity":110,"programNumber":25},{"time":1197195.1292291745,"duration":191.66666666674428,"noteNumber":53,"velocity":110,"programNumber":25},{"time":1197395.1292291745,"duration":191.66666666674428,"noteNumber":58,"velocity":110,"programNumber":25},{"time":1197595.1292291745,"duration":191.66666666674428,"noteNumber":55,"velocity":110,"programNumber":25},{"time":1197795.1292291745,"duration":191.66666666674428,"noteNumber":60,"velocity":110,"programNumber":25},{"time":1197995.1292291745,"duration":191.66666666674428,"noteNumber":55,"velocity":110,"programNumber":25},{"time":1198195.1292291745,"duration":191.66666666674428,"noteNumber":60,"velocity":110,"programNumber":25},{"time":1198395.1292291745,"duration":191.66666666674428,"noteNumber":50,"velocity":110,"programNumber":25},{"time":1198595.1292291745,"duration":191.66666666674428,"noteNumber":57,"velocity":110,"programNumber":25},{"time":1198795.1292291745,"duration":191.66666666674428,"noteNumber":50,"velocity":110,"programNumber":25},{"time":1198995.1292291745,"duration":191.66666666674428,"noteNumber":57,"velocity":110,"programNumber":25},{"time":1199195.1292291745,"duration":2200,"noteNumber":50,"velocity":110,"programNumber":25}]]}