{"tracks":[[{"time":12494.791666666666,"duration":239.58333333333394,"noteNumber":76,"velocity":117,"programNumber":73},{"time":12744.791666666666,"duration":239.58333333333394,"noteNumber":76,"velocity":107,"programNumber":73},{"time":12994.791666666666,"duration":239.58333333333394,"noteNumber":76,"velocity":117,"programNumber":73},{"time":13244.791666666666,"duration":239.58333333333394,"noteNumber":74,"velocity":107,"programNumber":73},{"time":13505.208333333334,"duration":239.58333333333394,"noteNumber":71,"velocity":107,"programNumber":73},{"time":13750.000000000002,"duration":239.58333333333394,"noteNumber":74,"velocity":117,"programNumber":73},{"time":13994.79166666667,"duration":239.58333333333394,"noteNumber":71,"velocity":107,"programNumber":73},{"time":14750.000000000004,"duration":239.58333333333394,"noteNumber":64,"velocity":107,"programNumber":73},{"time":14994.791666666672,"duration":239.58333333333394,"noteNumber":69,"velocity":117,"programNumber":73},{"time":15250.000000000005,"duration":239.58333333333394,"noteNumber":67,"velocity":107,"programNumber":73},{"time":15500.000000000005,"duration":239.58333333333394,"noteNumber":71,"velocity":107,"programNumber":73},{"time":15750.000000000005,"duration":489.58333333333394,"noteNumber":69,"velocity":117,"programNumber":73},{"time":16244.791666666673,"duration":239.58333333333394,"noteNumber":71,"velocity":107,"programNumber":73},{"time":17744.791666666675,"duration":239.58333333333212,"noteNumber":64,"velocity":107,"programNumber":73},{"time":18000.000000000007,"duration":239.58333333333212,"noteNumber":69,"velocity":117,"programNumber":73},{"time":18250.000000000007,"duration":239.58333333333212,"noteNumber":69,"velocity":107,"programNumber":73},{"time":18505.20833333334,"duration":239.58333333333212,"noteNumber":71,"velocity":117,"programNumber":73},{"time":18750.000000000004,"duration":239.58333333333212,"noteNumber":69,"velocity":97,"programNumber":73},{"time":18994.791666666668,"duration":239.58333333333212,"noteNumber":69,"velocity":117,"programNumber":73},{"time":19244.791666666668,"duration":239.58333333333212,"noteNumber":71,"velocity":117,"programNumber":73},{"time":21005.208333333332,"duration":239.58333333333576,"noteNumber":79,"velocity":117,"programNumber":73},{"time":21244.791666666668,"duration":239.58333333333212,"noteNumber":78,"velocity":107,"programNumber":73},{"time":21500,"duration":239.58333333333212,"noteNumber":76,"velocity":107,"programNumber":73},{"time":21744.791666666664,"duration":239.58333333333212,"noteNumber":76,"velocity":117,"programNumber":73},{"time":22005.20833333333,"duration":489.5833333333321,"noteNumber":74,"velocity":97,"programNumber":73},{"time":22494.79166666666,"duration":239.58333333333212,"noteNumber":71,"velocity":107,"programNumber":73},{"time":22744.79166666666,"duration":489.5833333333321,"noteNumber":71,"velocity":117,"programNumber":73},{"time":23244.79166666666,"duration":239.58333333333212,"noteNumber":67,"velocity":107,"programNumber":73},{"time":23499.999999999993,"duration":239.58333333333212,"noteNumber":71,"velocity":107,"programNumber":73},{"time":23749.999999999993,"duration":489.5833333333321,"noteNumber":69,"velocity":117,"programNumber":73},{"time":24249.999999999993,"duration":239.58333333333212,"noteNumber":64,"velocity":97,"programNumber":73},{"time":26249.999999999993,"duration":239.58333333333212,"noteNumber":69,"velocity":107,"programNumber":73},{"time":26494.791666666657,"duration":239.58333333333212,"noteNumber":71,"velocity":117,"programNumber":73},{"time":26749.99999999999,"duration":239.58333333333212,"noteNumber":69,"velocity":107,"programNumber":73},{"time":26994.791666666653,"duration":239.58333333333212,"noteNumber":69,"velocity":117,"programNumber":73},{"time":27255.208333333318,"duration":239.58333333333576,"noteNumber":71,"velocity":107,"programNumber":73},{"time":28494.791666666653,"duration":239.58333333333212,"noteNumber":76,"velocity":117,"programNumber":73},{"time":28755.208333333318,"duration":234.375,"noteNumber":76,"velocity":107,"programNumber":73},{"time":28994.79166666665,"duration":239.58333333333212,"noteNumber":76,"velocity":117,"programNumber":73},{"time":29249.99999999998,"duration":239.58333333333212,"noteNumber":74,"velocity":107,"programNumber":73},{"time":29499.99999999998,"duration":239.58333333333212,"noteNumber":71,"velocity":107,"programNumber":73},{"time":29744.791666666646,"duration":239.58333333333212,"noteNumber":74,"velocity":117,"programNumber":73},{"time":30005.20833333331,"duration":239.58333333333576,"noteNumber":71,"velocity":107,"programNumber":73},{"time":31244.791666666646,"duration":239.58333333333212,"noteNumber":67,"velocity":97,"programNumber":73},{"time":31494.791666666646,"duration":239.58333333333212,"noteNumber":71,"velocity":107,"programNumber":73},{"time":31749.999999999978,"duration":489.5833333333321,"noteNumber":69,"velocity":117,"programNumber":73},{"time":32249.999999999978,"duration":239.58333333333212,"noteNumber":71,"velocity":97,"programNumber":73},{"time":33244.79166666664,"duration":239.58333333333576,"noteNumber":67,"velocity":107,"programNumber":73},{"time":33494.79166666664,"duration":239.58333333333576,"noteNumber":69,"velocity":117,"programNumber":73},{"time":33744.79166666664,"duration":239.58333333333576,"noteNumber":67,"velocity":107,"programNumber":73},{"time":33994.79166666664,"duration":489.58333333333576,"noteNumber":69,"velocity":117,"programNumber":73},{"time":34505.208333333314,"duration":239.58333333333576,"noteNumber":71,"velocity":117,"programNumber":73},{"time":34749.999999999985,"duration":239.58333333333576,"noteNumber":69,"velocity":97,"programNumber":73},{"time":34999.999999999985,"duration":364.58333333333576,"noteNumber":69,"velocity":117,"programNumber":73},{"time":35369.79166666666,"duration":489.58333333333576,"noteNumber":66,"velocity":107,"programNumber":73},{"time":37005.20833333333,"duration":234.375,"noteNumber":82,"velocity":107,"programNumber":73},{"time":37244.791666666664,"duration":239.58333333333576,"noteNumber":81,"velocity":97,"programNumber":73},{"time":37500,"duration":239.58333333333576,"noteNumber":79,"velocity":107,"programNumber":73},{"time":37750,"duration":239.58333333333576,"noteNumber":76,"velocity":97,"programNumber":73},{"time":38005.208333333336,"duration":234.375,"noteNumber":79,"velocity":107,"programNumber":73},{"time":38244.79166666667,"duration":239.58333333333576,"noteNumber":76,"velocity":97,"programNumber":73},{"time":38500.00000000001,"duration":239.58333333333576,"noteNumber":76,"velocity":107,"programNumber":73},{"time":38750.00000000001,"duration":239.58333333333576,"noteNumber":74,"velocity":87,"programNumber":73},{"time":38994.79166666668,"duration":489.58333333333576,"noteNumber":76,"velocity":107,"programNumber":73},{"time":41755.20833333335,"duration":239.58333333333576,"noteNumber":67,"velocity":107,"programNumber":73},{"time":42000.00000000002,"duration":489.58333333333576,"noteNumber":69,"velocity":117,"programNumber":73},{"time":42494.79166666669,"duration":489.58333333333576,"noteNumber":71,"velocity":117,"programNumber":73},{"time":43005.208333333365,"duration":364.58333333333576,"noteNumber":74,"velocity":117,"programNumber":73},{"time":43369.7916666667,"duration":614.5833333333358,"noteNumber":76,"velocity":117,"programNumber":73},{"time":45244.7916666667,"duration":239.58333333333576,"noteNumber":64,"velocity":97,"programNumber":73},{"time":45500.00000000004,"duration":114.58333333333576,"noteNumber":71,"velocity":107,"programNumber":73},{"time":45744.79166666671,"duration":489.58333333333576,"noteNumber":69,"velocity":117,"programNumber":73},{"time":46244.79166666671,"duration":239.58333333333576,"noteNumber":71,"velocity":97,"programNumber":73},{"time":47255.20833333338,"duration":114.58333333332848,"noteNumber":71,"velocity":107,"programNumber":73},{"time":47500.000000000044,"duration":239.58333333333576,"noteNumber":71,"velocity":117,"programNumber":73},{"time":47750.000000000044,"duration":239.58333333333576,"noteNumber":71,"velocity":107,"programNumber":73},{"time":48000.000000000044,"duration":239.58333333333576,"noteNumber":69,"velocity":117,"programNumber":73},{"time":48255.20833333338,"duration":239.58333333333576,"noteNumber":67,"velocity":107,"programNumber":73},{"time":48505.20833333338,"duration":234.375,"noteNumber":67,"velocity":117,"programNumber":73},{"time":48744.791666666715,"duration":239.58333333333576,"noteNumber":67,"velocity":107,"programNumber":73},{"time":49000.00000000005,"duration":489.58333333333576,"noteNumber":67,"velocity":117,"programNumber":73},{"time":49494.79166666672,"duration":489.58333333333576,"noteNumber":71,"velocity":117,"programNumber":73},{"time":50005.208333333394,"duration":489.58333333333576,"noteNumber":69,"velocity":117,"programNumber":73},{"time":51250.000000000065,"duration":114.58333333333576,"noteNumber":69,"velocity":107,"programNumber":73},{"time":51500.000000000065,"duration":239.58333333333576,"noteNumber":69,"velocity":107,"programNumber":73},{"time":51744.79166666674,"duration":239.58333333333576,"noteNumber":64,"velocity":97,"programNumber":73},{"time":53505.20833333341,"duration":114.58333333333576,"noteNumber":71,"velocity":107,"programNumber":73},{"time":53744.791666666744,"duration":239.58333333333576,"noteNumber":67,"velocity":92,"programNumber":73},{"time":53994.791666666744,"duration":114.58333333333576,"noteNumber":69,"velocity":117,"programNumber":73},{"time":54244.791666666744,"duration":489.58333333333576,"noteNumber":71,"velocity":107,"programNumber":73},{"time":54750.00000000008,"duration":489.58333333333576,"noteNumber":71,"velocity":117,"programNumber":73},{"time":55244.79166666675,"duration":239.58333333333576,"noteNumber":69,"velocity":107,"programNumber":73},{"time":56244.79166666675,"duration":239.58333333333576,"noteNumber":67,"velocity":107,"programNumber":73},{"time":56500.00000000009,"duration":239.58333333333576,"noteNumber":67,"velocity":117,"programNumber":73},{"time":56744.79166666676,"duration":239.58333333333576,"noteNumber":67,"velocity":107,"programNumber":73},{"time":56994.79166666676,"duration":239.58333333333576,"noteNumber":67,"velocity":117,"programNumber":73},{"time":57255.20833333343,"duration":239.58333333333576,"noteNumber":67,"velocity":107,"programNumber":73},{"time":57500.0000000001,"duration":489.58333333333576,"noteNumber":74,"velocity":117,"programNumber":73},{"time":58005.20833333344,"duration":489.58333333333576,"noteNumber":74,"velocity":117,"programNumber":73},{"time":59244.79166666677,"duration":114.58333333333576,"noteNumber":69,"velocity":107,"programNumber":73},{"time":59505.208333333445,"duration":239.58333333333576,"noteNumber":67,"velocity":97,"programNumber":73},{"time":60255.208333333445,"duration":234.375,"noteNumber":67,"velocity":107,"programNumber":73},{"time":60494.79166666678,"duration":239.58333333333576,"noteNumber":67,"velocity":117,"programNumber":73},{"time":60744.79166666678,"duration":239.58333333333576,"noteNumber":69,"velocity":107,"programNumber":73},{"time":60994.79166666678,"duration":239.58333333333576,"noteNumber":69,"velocity":117,"programNumber":73},{"time":61244.79166666678,"duration":239.58333333333576,"noteNumber":67,"velocity":107,"programNumber":73},{"time":61500.00000000012,"duration":239.58333333333576,"noteNumber":67,"velocity":117,"programNumber":73},{"time":61750.00000000012,"duration":239.58333333333576,"noteNumber":67,"velocity":107,"programNumber":73},{"time":62000.00000000012,"duration":239.58333333333576,"noteNumber":64,"velocity":117,"programNumber":73},{"time":62494.79166666679,"duration":239.58333333333576,"noteNumber":64,"velocity":117,"programNumber":73},{"time":62744.79166666679,"duration":239.58333333333576,"noteNumber":62,"velocity":97,"programNumber":73},{"time":62994.79166666679,"duration":489.58333333333576,"noteNumber":62,"velocity":117,"programNumber":73},{"time":63494.79166666679,"duration":239.58333333333576,"noteNumber":67,"velocity":117,"programNumber":73},{"time":64250.000000000124,"duration":239.58333333333576,"noteNumber":67,"velocity":107,"programNumber":73},{"time":64494.791666666795,"duration":239.58333333333576,"noteNumber":67,"velocity":117,"programNumber":73},{"time":64744.791666666795,"duration":239.58333333333576,"noteNumber":69,"velocity":107,"programNumber":73},{"time":65000.00000000013,"duration":239.58333333333576,"noteNumber":69,"velocity":117,"programNumber":73},{"time":65255.20833333347,"duration":239.58333333333576,"noteNumber":67,"velocity":107,"programNumber":73},{"time":65500.00000000014,"duration":239.58333333333576,"noteNumber":67,"velocity":117,"programNumber":73},{"time":65755.20833333347,"duration":239.58333333332848,"noteNumber":67,"velocity":107,"programNumber":73},{"time":66005.20833333347,"duration":239.58333333332848,"noteNumber":67,"velocity":117,"programNumber":73},{"time":66244.7916666668,"duration":239.58333333332848,"noteNumber":67,"velocity":107,"programNumber":73},{"time":66500.00000000013,"duration":489.5833333333285,"noteNumber":74,"velocity":117,"programNumber":73},{"time":67005.20833333346,"duration":489.5833333333285,"noteNumber":74,"velocity":117,"programNumber":73},{"time":68250.00000000012,"duration":239.58333333332848,"noteNumber":67,"velocity":107,"programNumber":73},{"time":68505.20833333344,"duration":234.375,"noteNumber":67,"velocity":117,"programNumber":73},{"time":68744.79166666677,"duration":239.58333333332848,"noteNumber":69,"velocity":107,"programNumber":73},{"time":69005.20833333343,"duration":234.375,"noteNumber":69,"velocity":117,"programNumber":73},{"time":69244.79166666676,"duration":239.58333333332848,"noteNumber":67,"velocity":107,"programNumber":73},{"time":69755.20833333342,"duration":239.58333333332848,"noteNumber":62,"velocity":97,"programNumber":73},{"time":69994.79166666674,"duration":239.58333333332848,"noteNumber":64,"velocity":117,"programNumber":73},{"time":70494.79166666674,"duration":239.58333333332848,"noteNumber":64,"velocity":117,"programNumber":73},{"time":70755.2083333334,"duration":239.58333333332848,"noteNumber":62,"velocity":107,"programNumber":73},{"time":71005.2083333334,"duration":489.5833333333285,"noteNumber":62,"velocity":117,"programNumber":73},{"time":71500.00000000006,"duration":239.58333333332848,"noteNumber":67,"velocity":117,"programNumber":73},{"time":72244.79166666672,"duration":239.58333333332848,"noteNumber":67,"velocity":107,"programNumber":73},{"time":72494.79166666672,"duration":239.58333333332848,"noteNumber":67,"velocity":117,"programNumber":73},{"time":72744.79166666672,"duration":239.58333333332848,"noteNumber":69,"velocity":107,"programNumber":73},{"time":72994.79166666672,"duration":239.58333333332848,"noteNumber":69,"velocity":117,"programNumber":73},{"time":73250.00000000004,"duration":239.58333333332848,"noteNumber":67,"velocity":107,"programNumber":73},{"time":73500.00000000004,"duration":239.58333333332848,"noteNumber":67,"velocity":117,"programNumber":73},{"time":73755.20833333337,"duration":239.58333333332848,"noteNumber":67,"velocity":107,"programNumber":73},{"time":73994.7916666667,"duration":489.5833333333285,"noteNumber":67,"velocity":117,"programNumber":73},{"time":74494.7916666667,"duration":489.5833333333285,"noteNumber":74,"velocity":117,"programNumber":73},{"time":75000.00000000003,"duration":489.5833333333285,"noteNumber":74,"velocity":117,"programNumber":73},{"time":77750.00000000003,"duration":114.58333333332848,"noteNumber":64,"velocity":97,"programNumber":73},{"time":77869.79166666669,"duration":114.58333333332848,"noteNumber":66,"velocity":107,"programNumber":73},{"time":78000.00000000001,"duration":239.58333333332848,"noteNumber":67,"velocity":117,"programNumber":73},{"time":78244.79166666667,"duration":239.58333333332848,"noteNumber":67,"velocity":117,"programNumber":73},{"time":78994.79166666667,"duration":239.58333333332848,"noteNumber":69,"velocity":117,"programNumber":73},{"time":79250,"duration":239.58333333332848,"noteNumber":69,"velocity":117,"programNumber":73},{"time":79494.79166666666,"duration":239.58333333332848,"noteNumber":67,"velocity":97,"programNumber":73},{"time":79749.99999999999,"duration":239.58333333332848,"noteNumber":67,"velocity":117,"programNumber":73},{"time":79994.79166666664,"duration":239.58333333332848,"noteNumber":64,"velocity":97,"programNumber":73},{"time":80249.99999999997,"duration":489.5833333333285,"noteNumber":64,"velocity":117,"programNumber":73},{"time":81999.99999999997,"duration":489.5833333333285,"noteNumber":67,"velocity":117,"programNumber":73},{"time":82499.99999999997,"duration":489.5833333333285,"noteNumber":71,"velocity":117,"programNumber":73},{"time":82999.99999999997,"duration":489.5833333333285,"noteNumber":69,"velocity":117,"programNumber":73},{"time":83505.2083333333,"duration":239.58333333332848,"noteNumber":69,"velocity":117,"programNumber":73},{"time":83744.79166666663,"duration":489.5833333333285,"noteNumber":69,"velocity":117,"programNumber":73},{"time":84244.79166666663,"duration":239.58333333332848,"noteNumber":64,"velocity":97,"programNumber":73},{"time":84499.99999999996,"duration":364.5833333333285,"noteNumber":67,"velocity":117,"programNumber":73},{"time":84874.99999999996,"duration":489.5833333333285,"noteNumber":64,"velocity":97,"programNumber":73},{"time":85744.79166666661,"duration":114.58333333332848,"noteNumber":62,"velocity":97,"programNumber":73},{"time":85874.99999999994,"duration":114.58333333332848,"noteNumber":64,"velocity":107,"programNumber":73},{"time":85999.99999999994,"duration":489.5833333333285,"noteNumber":67,"velocity":117,"programNumber":73},{"time":86505.20833333327,"duration":484.375,"noteNumber":71,"velocity":117,"programNumber":73},{"time":86994.7916666666,"duration":489.5833333333285,"noteNumber":69,"velocity":117,"programNumber":73},{"time":87494.7916666666,"duration":239.58333333332848,"noteNumber":69,"velocity":107,"programNumber":73},{"time":87744.7916666666,"duration":239.58333333332848,"noteNumber":67,"velocity":117,"programNumber":73},{"time":87994.7916666666,"duration":239.58333333332848,"noteNumber":64,"velocity":97,"programNumber":73},{"time":88255.20833333326,"duration":489.5833333333285,"noteNumber":64,"velocity":117,"programNumber":73},{"time":89755.20833333326,"duration":109.375,"noteNumber":62,"velocity":97,"programNumber":73},{"time":89869.79166666658,"duration":114.58333333332848,"noteNumber":64,"velocity":107,"programNumber":73},{"time":89994.79166666658,"duration":489.5833333333285,"noteNumber":67,"velocity":117,"programNumber":73},{"time":90494.79166666658,"duration":489.5833333333285,"noteNumber":71,"velocity":117,"programNumber":73},{"time":90994.79166666658,"duration":489.5833333333285,"noteNumber":74,"velocity":117,"programNumber":73},{"time":92755.20833333324,"duration":239.58333333334303,"noteNumber":76,"velocity":107,"programNumber":73},{"time":92994.79166666658,"duration":239.58333333332848,"noteNumber":76,"velocity":117,"programNumber":73},{"time":93244.79166666658,"duration":239.58333333332848,"noteNumber":74,"velocity":107,"programNumber":73},{"time":93494.79166666658,"duration":239.58333333332848,"noteNumber":71,"velocity":107,"programNumber":73},{"time":93749.99999999991,"duration":239.58333333332848,"noteNumber":74,"velocity":117,"programNumber":73},{"time":93999.99999999991,"duration":239.58333333332848,"noteNumber":71,"velocity":107,"programNumber":73},{"time":94749.99999999991,"duration":114.58333333332848,"noteNumber":64,"velocity":107,"programNumber":73},{"time":95005.20833333324,"duration":239.58333333334303,"noteNumber":69,"velocity":117,"programNumber":73},{"time":95249.99999999991,"duration":239.58333333332848,"noteNumber":67,"velocity":107,"programNumber":73},{"time":95499.99999999991,"duration":239.58333333332848,"noteNumber":71,"velocity":107,"programNumber":73},{"time":95744.79166666657,"duration":489.5833333333285,"noteNumber":69,"velocity":117,"programNumber":73},{"time":96244.79166666657,"duration":239.58333333332848,"noteNumber":71,"velocity":107,"programNumber":73},{"time":97499.9999999999,"duration":114.58333333332848,"noteNumber":69,"velocity":117,"programNumber":73},{"time":97749.9999999999,"duration":239.58333333332848,"noteNumber":67,"velocity":107,"programNumber":73},{"time":98005.20833333323,"duration":484.375,"noteNumber":69,"velocity":117,"programNumber":73},{"time":98494.79166666656,"duration":114.58333333332848,"noteNumber":71,"velocity":117,"programNumber":73},{"time":98749.99999999988,"duration":239.58333333332848,"noteNumber":69,"velocity":107,"programNumber":73},{"time":98994.79166666654,"duration":239.58333333332848,"noteNumber":69,"velocity":107,"programNumber":73},{"time":99255.2083333332,"duration":239.58333333332848,"noteNumber":71,"velocity":117,"programNumber":73},{"time":100994.79166666653,"duration":239.58333333332848,"noteNumber":79,"velocity":117,"programNumber":73},{"time":101244.79166666653,"duration":239.58333333332848,"noteNumber":78,"velocity":107,"programNumber":73},{"time":101499.99999999985,"duration":239.58333333332848,"noteNumber":76,"velocity":107,"programNumber":73},{"time":101744.79166666651,"duration":239.58333333332848,"noteNumber":74,"velocity":117,"programNumber":73},{"time":101994.79166666651,"duration":489.5833333333285,"noteNumber":76,"velocity":97,"programNumber":73},{"time":102505.20833333317,"duration":239.58333333332848,"noteNumber":74,"velocity":107,"programNumber":73},{"time":102744.7916666665,"duration":489.5833333333285,"noteNumber":71,"velocity":117,"programNumber":73},{"time":103244.7916666665,"duration":239.58333333332848,"noteNumber":67,"velocity":107,"programNumber":73},{"time":103499.99999999983,"duration":239.58333333332848,"noteNumber":71,"velocity":107,"programNumber":73},{"time":103755.20833333315,"duration":489.58333333334303,"noteNumber":69,"velocity":117,"programNumber":73},{"time":104249.99999999983,"duration":239.58333333332848,"noteNumber":64,"velocity":97,"programNumber":73},{"time":106249.99999999983,"duration":239.58333333332848,"noteNumber":69,"velocity":107,"programNumber":73},{"time":106499.99999999983,"duration":239.58333333332848,"noteNumber":71,"velocity":117,"programNumber":73},{"time":106744.79166666648,"duration":239.58333333332848,"noteNumber":69,"velocity":107,"programNumber":73},{"time":107005.20833333314,"duration":239.58333333332848,"noteNumber":69,"velocity":117,"programNumber":73},{"time":107249.9999999998,"duration":239.58333333332848,"noteNumber":71,"velocity":107,"programNumber":73},{"time":108249.9999999998,"duration":239.58333333332848,"noteNumber":76,"velocity":107,"programNumber":73},{"time":108499.9999999998,"duration":239.58333333332848,"noteNumber":76,"velocity":117,"programNumber":73},{"time":108749.9999999998,"duration":239.58333333332848,"noteNumber":76,"velocity":107,"programNumber":73},{"time":108999.9999999998,"duration":239.58333333332848,"noteNumber":76,"velocity":117,"programNumber":73},{"time":109249.9999999998,"duration":239.58333333332848,"noteNumber":74,"velocity":107,"programNumber":73},{"time":109499.9999999998,"duration":239.58333333332848,"noteNumber":71,"velocity":107,"programNumber":73},{"time":109744.79166666645,"duration":239.58333333332848,"noteNumber":74,"velocity":117,"programNumber":73},{"time":109994.79166666645,"duration":239.58333333332848,"noteNumber":71,"velocity":107,"programNumber":73},{"time":110999.99999999978,"duration":239.58333333332848,"noteNumber":69,"velocity":117,"programNumber":73},{"time":111249.99999999978,"duration":239.58333333332848,"noteNumber":67,"velocity":107,"programNumber":73},{"time":111494.79166666644,"duration":239.58333333332848,"noteNumber":71,"velocity":107,"programNumber":73},{"time":111749.99999999977,"duration":489.5833333333285,"noteNumber":69,"velocity":117,"programNumber":73},{"time":112255.2083333331,"duration":239.58333333334303,"noteNumber":71,"velocity":97,"programNumber":73},{"time":113744.79166666644,"duration":239.58333333332848,"noteNumber":67,"velocity":107,"programNumber":73},{"time":114005.2083333331,"duration":489.5833333333285,"noteNumber":69,"velocity":117,"programNumber":73},{"time":114494.79166666642,"duration":239.58333333332848,"noteNumber":71,"velocity":117,"programNumber":73},{"time":114744.79166666642,"duration":239.58333333332848,"noteNumber":69,"velocity":97,"programNumber":73},{"time":114994.79166666642,"duration":489.5833333333285,"noteNumber":69,"velocity":117,"programNumber":73},{"time":115499.99999999975,"duration":489.5833333333285,"noteNumber":66,"velocity":107,"programNumber":73},{"time":116749.99999999975,"duration":114.58333333332848,"noteNumber":76,"velocity":97,"programNumber":73},{"time":116994.79166666641,"duration":114.58333333332848,"noteNumber":82,"velocity":117,"programNumber":73},{"time":117249.99999999974,"duration":239.58333333332848,"noteNumber":81,"velocity":107,"programNumber":73},{"time":117499.99999999974,"duration":239.58333333332848,"noteNumber":79,"velocity":117,"programNumber":73},{"time":117744.7916666664,"duration":239.58333333332848,"noteNumber":76,"velocity":107,"programNumber":73},{"time":117999.99999999972,"duration":739.5833333333285,"noteNumber":79,"velocity":117,"programNumber":73},{"time":118749.99999999972,"duration":489.5833333333285,"noteNumber":76,"velocity":107,"programNumber":73},{"time":121749.99999999972,"duration":239.58333333332848,"noteNumber":67,"velocity":107,"programNumber":73},{"time":122005.20833333305,"duration":489.5833333333285,"noteNumber":69,"velocity":117,"programNumber":73},{"time":122505.20833333305,"duration":114.58333333332848,"noteNumber":71,"velocity":117,"programNumber":73},{"time":122755.20833333305,"duration":239.58333333332848,"noteNumber":71,"velocity":107,"programNumber":73},{"time":123005.20833333305,"duration":359.375,"noteNumber":74,"velocity":117,"programNumber":73},{"time":123369.79166666638,"duration":239.58333333332848,"noteNumber":76,"velocity":117,"programNumber":73},{"time":123619.79166666638,"duration":364.5833333333285,"noteNumber":74,"velocity":97,"programNumber":73},{"time":125255.20833333304,"duration":239.58333333332848,"noteNumber":64,"velocity":97,"programNumber":73},{"time":125499.9999999997,"duration":114.58333333332848,"noteNumber":71,"velocity":107,"programNumber":73},{"time":125744.79166666635,"duration":489.5833333333285,"noteNumber":69,"velocity":117,"programNumber":73},{"time":126244.79166666635,"duration":239.58333333332848,"noteNumber":71,"velocity":97,"programNumber":73},{"time":127244.79166666635,"duration":114.58333333332848,"noteNumber":71,"velocity":107,"programNumber":73},{"time":127505.20833333301,"duration":234.375,"noteNumber":71,"velocity":117,"programNumber":73},{"time":127744.79166666634,"duration":239.58333333332848,"noteNumber":71,"velocity":107,"programNumber":73},{"time":127999.99999999967,"duration":239.58333333332848,"noteNumber":69,"velocity":117,"programNumber":73},{"time":128249.99999999967,"duration":239.58333333332848,"noteNumber":67,"velocity":107,"programNumber":73},{"time":128499.99999999967,"duration":239.58333333332848,"noteNumber":67,"velocity":117,"programNumber":73},{"time":128749.99999999967,"duration":239.58333333332848,"noteNumber":67,"velocity":107,"programNumber":73},{"time":128999.99999999967,"duration":489.5833333333285,"noteNumber":67,"velocity":117,"programNumber":73},{"time":129494.79166666632,"duration":489.5833333333285,"noteNumber":71,"velocity":117,"programNumber":73},{"time":129999.99999999965,"duration":489.5833333333285,"noteNumber":69,"velocity":117,"programNumber":73},{"time":131244.7916666663,"duration":114.58333333334303,"noteNumber":69,"velocity":107,"programNumber":73},{"time":131499.99999999965,"duration":239.58333333334303,"noteNumber":69,"velocity":107,"programNumber":73},{"time":131744.79166666634,"duration":239.58333333334303,"noteNumber":64,"velocity":97,"programNumber":73},{"time":133505.20833333302,"duration":114.58333333334303,"noteNumber":71,"velocity":107,"programNumber":73},{"time":133755.20833333302,"duration":239.58333333334303,"noteNumber":67,"velocity":92,"programNumber":73},{"time":133999.9999999997,"duration":114.58333333334303,"noteNumber":69,"velocity":117,"programNumber":73},{"time":134255.20833333305,"duration":484.375,"noteNumber":71,"velocity":107,"programNumber":73},{"time":134744.7916666664,"duration":489.58333333334303,"noteNumber":71,"velocity":117,"programNumber":73},{"time":135255.20833333308,"duration":239.58333333334303,"noteNumber":69,"velocity":107,"programNumber":73},{"time":136249.99999999977,"duration":239.58333333334303,"noteNumber":67,"velocity":107,"programNumber":73},{"time":136499.99999999977,"duration":239.58333333334303,"noteNumber":67,"velocity":117,"programNumber":73},{"time":136755.2083333331,"duration":239.58333333334303,"noteNumber":67,"velocity":107,"programNumber":73},{"time":136999.9999999998,"duration":239.58333333334303,"noteNumber":67,"velocity":117,"programNumber":73},{"time":137249.9999999998,"duration":239.58333333334303,"noteNumber":67,"velocity":107,"programNumber":73},{"time":137494.79166666648,"duration":489.58333333334303,"noteNumber":74,"velocity":117,"programNumber":73},{"time":138005.20833333317,"duration":489.58333333334303,"noteNumber":74,"velocity":117,"programNumber":73},{"time":139249.99999999985,"duration":114.58333333334303,"noteNumber":69,"velocity":107,"programNumber":73},{"time":139494.79166666654,"duration":239.58333333334303,"noteNumber":67,"velocity":97,"programNumber":73},{"time":140249.99999999988,"duration":239.58333333334303,"noteNumber":67,"velocity":107,"programNumber":73},{"time":140494.79166666657,"duration":239.58333333334303,"noteNumber":67,"velocity":117,"programNumber":73},{"time":140755.20833333326,"duration":234.375,"noteNumber":69,"velocity":107,"programNumber":73},{"time":140994.7916666666,"duration":239.58333333334303,"noteNumber":69,"velocity":117,"programNumber":73},{"time":141244.7916666666,"duration":239.58333333334303,"noteNumber":67,"velocity":107,"programNumber":73},{"time":141505.20833333328,"duration":239.58333333334303,"noteNumber":67,"velocity":117,"programNumber":73},{"time":141755.20833333328,"duration":239.58333333334303,"noteNumber":67,"velocity":107,"programNumber":73},{"time":141999.99999999997,"duration":239.58333333334303,"noteNumber":64,"velocity":117,"programNumber":73},{"time":142505.2083333333,"duration":239.58333333334303,"noteNumber":64,"velocity":117,"programNumber":73},{"time":142744.79166666666,"duration":239.58333333334303,"noteNumber":62,"velocity":97,"programNumber":73},{"time":142994.79166666666,"duration":489.58333333334303,"noteNumber":62,"velocity":117,"programNumber":73},{"time":143500,"duration":239.58333333334303,"noteNumber":67,"velocity":117,"programNumber":73},{"time":144255.20833333334,"duration":239.58333333334303,"noteNumber":67,"velocity":107,"programNumber":73},{"time":144494.7916666667,"duration":239.58333333334303,"noteNumber":67,"velocity":117,"programNumber":73},{"time":144744.7916666667,"duration":239.58333333334303,"noteNumber":69,"velocity":107,"programNumber":73},{"time":145005.20833333337,"duration":239.58333333334303,"noteNumber":69,"velocity":117,"programNumber":73},{"time":145250.00000000006,"duration":239.58333333334303,"noteNumber":67,"velocity":107,"programNumber":73},{"time":145505.2083333334,"duration":239.58333333334303,"noteNumber":67,"velocity":117,"programNumber":73},{"time":145750.0000000001,"duration":239.58333333334303,"noteNumber":67,"velocity":107,"programNumber":73},{"time":146000.0000000001,"duration":239.58333333334303,"noteNumber":67,"velocity":117,"programNumber":73},{"time":146250.0000000001,"duration":239.58333333334303,"noteNumber":67,"velocity":107,"programNumber":73},{"time":146500.0000000001,"duration":489.58333333334303,"noteNumber":74,"velocity":117,"programNumber":73},{"time":147000.0000000001,"duration":489.58333333334303,"noteNumber":74,"velocity":117,"programNumber":73},{"time":148250.0000000001,"duration":239.58333333334303,"noteNumber":67,"velocity":107,"programNumber":73},{"time":148500.0000000001,"duration":239.58333333334303,"noteNumber":67,"velocity":117,"programNumber":73},{"time":148744.79166666677,"duration":239.58333333334303,"noteNumber":69,"velocity":107,"programNumber":73},{"time":148994.79166666677,"duration":239.58333333334303,"noteNumber":69,"velocity":117,"programNumber":73},{"time":149250.00000000012,"duration":239.58333333334303,"noteNumber":67,"velocity":107,"programNumber":73},{"time":149755.20833333346,"duration":239.58333333334303,"noteNumber":62,"velocity":97,"programNumber":73},{"time":149994.7916666668,"duration":239.58333333334303,"noteNumber":64,"velocity":117,"programNumber":73},{"time":150500.00000000015,"duration":239.58333333334303,"noteNumber":64,"velocity":117,"programNumber":73},{"time":150750.00000000015,"duration":239.58333333334303,"noteNumber":62,"velocity":107,"programNumber":73},{"time":151005.2083333335,"duration":489.58333333334303,"noteNumber":62,"velocity":117,"programNumber":73},{"time":151500.00000000017,"duration":239.58333333334303,"noteNumber":67,"velocity":117,"programNumber":73},{"time":152244.79166666686,"duration":239.58333333334303,"noteNumber":67,"velocity":107,"programNumber":73},{"time":152500.0000000002,"duration":239.58333333334303,"noteNumber":67,"velocity":117,"programNumber":73},{"time":152744.7916666669,"duration":239.58333333334303,"noteNumber":69,"velocity":107,"programNumber":73},{"time":153000.00000000023,"duration":239.58333333334303,"noteNumber":69,"velocity":117,"programNumber":73},{"time":153244.79166666692,"duration":239.58333333334303,"noteNumber":67,"velocity":107,"programNumber":73},{"time":153505.2083333336,"duration":239.58333333334303,"noteNumber":67,"velocity":117,"programNumber":73},{"time":153744.79166666695,"duration":239.58333333334303,"noteNumber":67,"velocity":107,"programNumber":73},{"time":153994.79166666695,"duration":489.58333333334303,"noteNumber":67,"velocity":117,"programNumber":73},{"time":154500.0000000003,"duration":489.58333333334303,"noteNumber":74,"velocity":117,"programNumber":73},{"time":155000.0000000003,"duration":489.58333333334303,"noteNumber":74,"velocity":117,"programNumber":73},{"time":157744.79166666698,"duration":114.58333333334303,"noteNumber":64,"velocity":97,"programNumber":73},{"time":157880.20833333366,"duration":114.58333333334303,"noteNumber":66,"velocity":107,"programNumber":73},{"time":157994.791666667,"duration":239.58333333334303,"noteNumber":67,"velocity":117,"programNumber":73},{"time":158250.00000000035,"duration":239.58333333334303,"noteNumber":67,"velocity":117,"programNumber":73},{"time":159000.00000000035,"duration":239.58333333334303,"noteNumber":69,"velocity":117,"programNumber":73},{"time":159244.79166666704,"duration":239.58333333334303,"noteNumber":69,"velocity":117,"programNumber":73},{"time":159494.79166666704,"duration":239.58333333334303,"noteNumber":67,"velocity":97,"programNumber":73},{"time":159744.79166666704,"duration":239.58333333334303,"noteNumber":67,"velocity":117,"programNumber":73},{"time":160000.00000000038,"duration":239.58333333334303,"noteNumber":64,"velocity":97,"programNumber":73},{"time":160244.79166666706,"duration":489.58333333334303,"noteNumber":64,"velocity":117,"programNumber":73},{"time":161494.79166666706,"duration":114.58333333334303,"noteNumber":64,"velocity":107,"programNumber":73},{"time":161744.79166666706,"duration":239.58333333334303,"noteNumber":66,"velocity":107,"programNumber":73},{"time":162005.20833333375,"duration":484.375,"noteNumber":67,"velocity":117,"programNumber":73},{"time":162494.7916666671,"duration":489.58333333334303,"noteNumber":71,"velocity":117,"programNumber":73},{"time":163005.20833333378,"duration":364.58333333334303,"noteNumber":69,"velocity":117,"programNumber":73},{"time":163375.00000000047,"duration":364.58333333334303,"noteNumber":67,"velocity":107,"programNumber":73},{"time":163750.00000000047,"duration":239.58333333334303,"noteNumber":69,"velocity":117,"programNumber":73},{"time":164000.00000000047,"duration":489.58333333334303,"noteNumber":71,"velocity":107,"programNumber":73},{"time":188255.2083333338,"duration":114.58333333334303,"noteNumber":64,"velocity":97,"programNumber":73},{"time":188505.2083333338,"duration":239.58333333334303,"noteNumber":67,"velocity":117,"programNumber":73},{"time":188750.0000000005,"duration":239.58333333334303,"noteNumber":67,"velocity":107,"programNumber":73},{"time":189005.20833333384,"duration":489.58333333334303,"noteNumber":67,"velocity":117,"programNumber":73},{"time":189500.00000000052,"duration":239.58333333334303,"noteNumber":71,"velocity":107,"programNumber":73},{"time":189744.7916666672,"duration":489.58333333334303,"noteNumber":69,"velocity":117,"programNumber":73},{"time":190244.7916666672,"duration":239.58333333334303,"noteNumber":71,"velocity":107,"programNumber":73},{"time":191244.7916666672,"duration":489.58333333334303,"noteNumber":71,"velocity":117,"programNumber":73},{"time":191750.00000000055,"duration":239.58333333334303,"noteNumber":71,"velocity":107,"programNumber":73},{"time":191994.79166666724,"duration":239.58333333334303,"noteNumber":69,"velocity":117,"programNumber":73},{"time":192244.79166666724,"duration":239.58333333334303,"noteNumber":67,"velocity":107,"programNumber":73},{"time":192494.79166666724,"duration":239.58333333334303,"noteNumber":67,"velocity":117,"programNumber":73},{"time":192750.00000000058,"duration":239.58333333334303,"noteNumber":67,"velocity":107,"programNumber":73},{"time":193244.79166666727,"duration":489.58333333334303,"noteNumber":71,"velocity":117,"programNumber":73},{"time":193750.0000000006,"duration":739.583333333343,"noteNumber":69,"velocity":117,"programNumber":73},{"time":195244.7916666673,"duration":114.58333333334303,"noteNumber":69,"velocity":107,"programNumber":73},{"time":195505.20833333398,"duration":234.375,"noteNumber":69,"velocity":107,"programNumber":73},{"time":195744.79166666733,"duration":239.58333333334303,"noteNumber":64,"velocity":97,"programNumber":73},{"time":196244.79166666733,"duration":239.58333333334303,"noteNumber":64,"velocity":97,"programNumber":73},{"time":196494.79166666733,"duration":239.58333333334303,"noteNumber":67,"velocity":117,"programNumber":73},{"time":196744.79166666733,"duration":239.58333333334303,"noteNumber":67,"velocity":107,"programNumber":73},{"time":197000.00000000067,"duration":239.58333333334303,"noteNumber":67,"velocity":117,"programNumber":73},{"time":197755.208333334,"duration":239.58333333334303,"noteNumber":67,"velocity":92,"programNumber":73},{"time":197994.79166666736,"duration":239.58333333334303,"noteNumber":69,"velocity":117,"programNumber":73},{"time":198244.79166666736,"duration":489.58333333334303,"noteNumber":71,"velocity":107,"programNumber":73},{"time":198750.0000000007,"duration":489.58333333334303,"noteNumber":69,"velocity":117,"programNumber":73},{"time":199755.20833333404,"duration":114.58333333334303,"noteNumber":71,"velocity":107,"programNumber":73},{"time":200005.20833333407,"duration":234.375,"noteNumber":69,"velocity":107,"programNumber":73},{"time":200244.7916666674,"duration":239.58333333334303,"noteNumber":67,"velocity":107,"programNumber":73},{"time":200500.00000000076,"duration":239.58333333334303,"noteNumber":67,"velocity":117,"programNumber":73},{"time":200994.79166666744,"duration":239.58333333334303,"noteNumber":67,"velocity":117,"programNumber":73},{"time":201244.79166666744,"duration":239.58333333334303,"noteNumber":67,"velocity":107,"programNumber":73},{"time":201494.79166666744,"duration":239.58333333334303,"noteNumber":74,"velocity":107,"programNumber":73},{"time":201750.0000000008,"duration":489.58333333334303,"noteNumber":74,"velocity":117,"programNumber":73},{"time":203250.0000000008,"duration":239.58333333334303,"noteNumber":67,"velocity":107,"programNumber":73},{"time":203505.20833333413,"duration":239.58333333334303,"noteNumber":69,"velocity":117,"programNumber":73},{"time":203750.00000000081,"duration":239.58333333334303,"noteNumber":67,"velocity":107,"programNumber":73},{"time":204244.7916666675,"duration":239.58333333334303,"noteNumber":67,"velocity":107,"programNumber":73},{"time":204505.2083333342,"duration":234.375,"noteNumber":67,"velocity":117,"programNumber":73},{"time":204744.79166666753,"duration":239.58333333334303,"noteNumber":69,"velocity":107,"programNumber":73},{"time":204994.79166666753,"duration":239.58333333334303,"noteNumber":69,"velocity":117,"programNumber":73},{"time":205244.79166666753,"duration":239.58333333334303,"noteNumber":67,"velocity":107,"programNumber":73},{"time":205505.20833333422,"duration":234.375,"noteNumber":67,"velocity":117,"programNumber":73},{"time":205744.79166666756,"duration":239.58333333334303,"noteNumber":67,"velocity":107,"programNumber":73},{"time":205994.79166666756,"duration":239.58333333334303,"noteNumber":64,"velocity":117,"programNumber":73},{"time":206500.0000000009,"duration":239.58333333334303,"noteNumber":64,"velocity":117,"programNumber":73},{"time":206755.20833333425,"duration":239.58333333334303,"noteNumber":62,"velocity":97,"programNumber":73},{"time":207000.00000000093,"duration":489.58333333334303,"noteNumber":62,"velocity":117,"programNumber":73},{"time":207505.20833333427,"duration":239.58333333334303,"noteNumber":67,"velocity":117,"programNumber":73},{"time":208250.00000000096,"duration":239.58333333334303,"noteNumber":67,"velocity":107,"programNumber":73},{"time":208494.79166666765,"duration":239.58333333334303,"noteNumber":67,"velocity":117,"programNumber":73},{"time":208750.000000001,"duration":239.58333333334303,"noteNumber":69,"velocity":107,"programNumber":73},{"time":208994.79166666768,"duration":239.58333333334303,"noteNumber":69,"velocity":117,"programNumber":73},{"time":209250.00000000102,"duration":239.58333333334303,"noteNumber":67,"velocity":107,"programNumber":73},{"time":209494.7916666677,"duration":239.58333333334303,"noteNumber":67,"velocity":117,"programNumber":73},{"time":209755.2083333344,"duration":239.58333333334303,"noteNumber":67,"velocity":107,"programNumber":73},{"time":210000.00000000108,"duration":239.58333333334303,"noteNumber":67,"velocity":117,"programNumber":73},{"time":210244.79166666776,"duration":239.58333333334303,"noteNumber":67,"velocity":107,"programNumber":73},{"time":210500.0000000011,"duration":489.58333333334303,"noteNumber":74,"velocity":117,"programNumber":73},{"time":211000.0000000011,"duration":489.58333333334303,"noteNumber":74,"velocity":117,"programNumber":73},{"time":212250.0000000011,"duration":239.58333333334303,"noteNumber":67,"velocity":107,"programNumber":73},{"time":212494.7916666678,"duration":239.58333333334303,"noteNumber":67,"velocity":117,"programNumber":73},{"time":212744.7916666678,"duration":239.58333333334303,"noteNumber":69,"velocity":107,"programNumber":73},{"time":213000.00000000114,"duration":239.58333333334303,"noteNumber":69,"velocity":117,"programNumber":73},{"time":213255.20833333448,"duration":239.58333333334303,"noteNumber":67,"velocity":107,"programNumber":73},{"time":213750.00000000116,"duration":239.58333333334303,"noteNumber":62,"velocity":97,"programNumber":73},{"time":214000.00000000116,"duration":239.58333333334303,"noteNumber":64,"velocity":117,"programNumber":73},{"time":214500.00000000116,"duration":239.58333333334303,"noteNumber":64,"velocity":117,"programNumber":73},{"time":214744.79166666785,"duration":239.58333333334303,"noteNumber":62,"velocity":107,"programNumber":73},{"time":215000.0000000012,"duration":489.58333333334303,"noteNumber":62,"velocity":117,"programNumber":73},{"time":215494.79166666788,"duration":239.58333333334303,"noteNumber":67,"velocity":117,"programNumber":73},{"time":216255.20833333457,"duration":239.58333333334303,"noteNumber":67,"velocity":107,"programNumber":73},{"time":216505.20833333457,"duration":239.58333333334303,"noteNumber":67,"velocity":117,"programNumber":73},{"time":216750.00000000125,"duration":239.58333333334303,"noteNumber":69,"velocity":107,"programNumber":73},{"time":216994.79166666794,"duration":239.58333333334303,"noteNumber":69,"velocity":117,"programNumber":73},{"time":217244.79166666794,"duration":239.58333333334303,"noteNumber":67,"velocity":107,"programNumber":73},{"time":217494.79166666794,"duration":239.58333333334303,"noteNumber":67,"velocity":117,"programNumber":73},{"time":217744.79166666794,"duration":239.58333333334303,"noteNumber":67,"velocity":107,"programNumber":73},{"time":217994.79166666794,"duration":489.58333333334303,"noteNumber":67,"velocity":117,"programNumber":73},{"time":218494.79166666794,"duration":489.58333333334303,"noteNumber":74,"velocity":117,"programNumber":73},{"time":219000.00000000128,"duration":489.58333333334303,"noteNumber":74,"velocity":117,"programNumber":73},{"time":220244.79166666797,"duration":239.58333333334303,"noteNumber":67,"velocity":107,"programNumber":73},{"time":220494.79166666797,"duration":239.58333333334303,"noteNumber":67,"velocity":117,"programNumber":73},{"time":220744.79166666797,"duration":239.58333333334303,"noteNumber":69,"velocity":107,"programNumber":73},{"time":221005.20833333465,"duration":239.58333333334303,"noteNumber":69,"velocity":117,"programNumber":73},{"time":221255.20833333465,"duration":239.58333333334303,"noteNumber":67,"velocity":107,"programNumber":73},{"time":221494.791666668,"duration":239.58333333334303,"noteNumber":67,"velocity":117,"programNumber":73},{"time":221755.20833333468,"duration":239.58333333334303,"noteNumber":67,"velocity":107,"programNumber":73},{"time":222000.00000000137,"duration":239.58333333334303,"noteNumber":64,"velocity":117,"programNumber":73},{"time":222494.79166666805,"duration":239.58333333334303,"noteNumber":64,"velocity":117,"programNumber":73},{"time":222750.0000000014,"duration":239.58333333334303,"noteNumber":62,"velocity":97,"programNumber":73},{"time":223005.20833333474,"duration":489.58333333334303,"noteNumber":62,"velocity":117,"programNumber":73},{"time":223505.20833333474,"duration":239.58333333334303,"noteNumber":67,"velocity":117,"programNumber":73},{"time":224255.20833333474,"duration":239.58333333334303,"noteNumber":67,"velocity":107,"programNumber":73},{"time":224505.20833333474,"duration":234.375,"noteNumber":67,"velocity":117,"programNumber":73},{"time":224744.79166666808,"duration":239.58333333334303,"noteNumber":69,"velocity":107,"programNumber":73},{"time":224994.79166666808,"duration":239.58333333334303,"noteNumber":69,"velocity":117,"programNumber":73},{"time":225244.79166666808,"duration":239.58333333334303,"noteNumber":67,"velocity":107,"programNumber":73},{"time":225500.00000000143,"duration":239.58333333334303,"noteNumber":67,"velocity":117,"programNumber":73},{"time":225750.00000000143,"duration":239.58333333334303,"noteNumber":67,"velocity":107,"programNumber":73},{"time":226000.00000000143,"duration":239.58333333334303,"noteNumber":67,"velocity":117,"programNumber":73},{"time":226244.7916666681,"duration":239.58333333334303,"noteNumber":67,"velocity":107,"programNumber":73},{"time":226505.2083333348,"duration":484.375,"noteNumber":74,"velocity":117,"programNumber":73},{"time":226994.79166666814,"duration":489.58333333334303,"noteNumber":74,"velocity":117,"programNumber":73},{"time":228244.79166666814,"duration":239.58333333334303,"noteNumber":67,"velocity":107,"programNumber":73},{"time":228500.00000000148,"duration":239.58333333334303,"noteNumber":67,"velocity":117,"programNumber":73},{"time":228755.20833333483,"duration":234.375,"noteNumber":69,"velocity":107,"programNumber":73},{"time":228994.79166666817,"duration":239.58333333334303,"noteNumber":69,"velocity":117,"programNumber":73},{"time":229250.0000000015,"duration":239.58333333334303,"noteNumber":67,"velocity":107,"programNumber":73},{"time":229744.7916666682,"duration":239.58333333334303,"noteNumber":62,"velocity":97,"programNumber":73},{"time":229994.7916666682,"duration":239.58333333334303,"noteNumber":64,"velocity":117,"programNumber":73},{"time":230505.2083333349,"duration":239.58333333334303,"noteNumber":64,"velocity":117,"programNumber":73},{"time":230744.79166666823,"duration":239.58333333334303,"noteNumber":62,"velocity":107,"programNumber":73},{"time":231000.00000000157,"duration":489.58333333334303,"noteNumber":62,"velocity":117,"programNumber":73},{"time":231500.00000000157,"duration":239.58333333334303,"noteNumber":67,"velocity":117,"programNumber":73},{"time":232244.79166666826,"duration":239.58333333334303,"noteNumber":67,"velocity":107,"programNumber":73},{"time":232494.79166666826,"duration":239.58333333334303,"noteNumber":67,"velocity":117,"programNumber":73},{"time":232744.79166666826,"duration":239.58333333334303,"noteNumber":69,"velocity":107,"programNumber":73},{"time":232994.79166666826,"duration":239.58333333334303,"noteNumber":69,"velocity":117,"programNumber":73},{"time":233255.20833333494,"duration":239.58333333334303,"noteNumber":67,"velocity":107,"programNumber":73},{"time":233500.00000000163,"duration":239.58333333334303,"noteNumber":67,"velocity":117,"programNumber":73},{"time":233744.79166666832,"duration":239.58333333334303,"noteNumber":67,"velocity":107,"programNumber":73},{"time":234000.00000000166,"duration":489.58333333334303,"noteNumber":67,"velocity":117,"programNumber":73},{"time":234505.208333335,"duration":489.58333333334303,"noteNumber":74,"velocity":117,"programNumber":73},{"time":235000.0000000017,"duration":489.58333333334303,"noteNumber":74,"velocity":117,"programNumber":73},{"time":236244.79166666837,"duration":239.58333333334303,"noteNumber":67,"velocity":107,"programNumber":73},{"time":236505.20833333506,"duration":239.58333333334303,"noteNumber":67,"velocity":117,"programNumber":73},{"time":236744.7916666684,"duration":239.58333333334303,"noteNumber":69,"velocity":107,"programNumber":73},{"time":236994.7916666684,"duration":239.58333333334303,"noteNumber":69,"velocity":117,"programNumber":73},{"time":237244.7916666684,"duration":239.58333333334303,"noteNumber":67,"velocity":107,"programNumber":73},{"time":237494.7916666684,"duration":239.58333333334303,"noteNumber":67,"velocity":117,"programNumber":73},{"time":237744.7916666684,"duration":239.58333333334303,"noteNumber":67,"velocity":107,"programNumber":73},{"time":238005.2083333351,"duration":239.58333333334303,"noteNumber":64,"velocity":117,"programNumber":73},{"time":238500.00000000178,"duration":239.58333333334303,"noteNumber":64,"velocity":117,"programNumber":73},{"time":238744.79166666846,"duration":239.58333333334303,"noteNumber":62,"velocity":97,"programNumber":73},{"time":239005.20833333515,"duration":484.375,"noteNumber":62,"velocity":117,"programNumber":73},{"time":239494.7916666685,"duration":239.58333333334303,"noteNumber":67,"velocity":117,"programNumber":73},{"time":240244.7916666685,"duration":239.58333333334303,"noteNumber":67,"velocity":107,"programNumber":73},{"time":240505.20833333518,"duration":234.375,"noteNumber":67,"velocity":117,"programNumber":73},{"time":240744.79166666852,"duration":239.58333333334303,"noteNumber":69,"velocity":107,"programNumber":73},{"time":240994.79166666852,"duration":239.58333333334303,"noteNumber":69,"velocity":117,"programNumber":73},{"time":241250.00000000186,"duration":239.58333333334303,"noteNumber":67,"velocity":107,"programNumber":73},{"time":241500.00000000186,"duration":239.58333333334303,"noteNumber":67,"velocity":117,"programNumber":73},{"time":241755.2083333352,"duration":239.58333333334303,"noteNumber":67,"velocity":107,"programNumber":73},{"time":241994.79166666855,"duration":239.58333333334303,"noteNumber":67,"velocity":117,"programNumber":73},{"time":242250.0000000019,"duration":239.58333333334303,"noteNumber":67,"velocity":107,"programNumber":73},{"time":242500.0000000019,"duration":489.58333333334303,"noteNumber":74,"velocity":117,"programNumber":73},{"time":242994.79166666858,"duration":489.58333333334303,"noteNumber":74,"velocity":117,"programNumber":73},{"time":244244.79166666858,"duration":239.58333333334303,"noteNumber":67,"velocity":107,"programNumber":73},{"time":244500.00000000192,"duration":239.58333333334303,"noteNumber":67,"velocity":117,"programNumber":73},{"time":244755.20833333526,"duration":239.58333333334303,"noteNumber":69,"velocity":107,"programNumber":73},{"time":245000.00000000195,"duration":239.58333333334303,"noteNumber":69,"velocity":117,"programNumber":73},{"time":245250.00000000195,"duration":239.58333333334303,"noteNumber":67,"velocity":107,"programNumber":73},{"time":245755.2083333353,"duration":239.58333333334303,"noteNumber":62,"velocity":97,"programNumber":73},{"time":246000.00000000198,"duration":239.58333333334303,"noteNumber":64,"velocity":117,"programNumber":73},{"time":246494.79166666864,"duration":239.58333333334303,"noteNumber":64,"velocity":117,"programNumber":73},{"time":246755.20833333532,"duration":239.58333333334303,"noteNumber":62,"velocity":107,"programNumber":73},{"time":247000.000000002,"duration":489.58333333334303,"noteNumber":62,"velocity":117,"programNumber":73},{"time":247505.20833333535,"duration":239.58333333334303,"noteNumber":67,"velocity":117,"programNumber":73},{"time":248244.7916666687,"duration":239.58333333334303,"noteNumber":67,"velocity":107,"programNumber":73},{"time":248505.20833333538,"duration":234.375,"noteNumber":67,"velocity":117,"programNumber":73},{"time":248744.79166666872,"duration":239.58333333334303,"noteNumber":69,"velocity":107,"programNumber":73},{"time":249000.00000000207,"duration":239.58333333334303,"noteNumber":69,"velocity":117,"programNumber":73},{"time":249244.79166666875,"duration":239.58333333334303,"noteNumber":67,"velocity":107,"programNumber":73},{"time":249500.0000000021,"duration":239.58333333334303,"noteNumber":67,"velocity":117,"programNumber":73},{"time":249750.0000000021,"duration":239.58333333334303,"noteNumber":67,"velocity":107,"programNumber":73},{"time":250000.0000000021,"duration":489.58333333334303,"noteNumber":67,"velocity":117,"programNumber":73},{"time":250505.20833333544,"duration":489.58333333331393,"noteNumber":74,"velocity":117,"programNumber":73},{"time":251005.20833333544,"duration":489.58333333331393,"noteNumber":74,"velocity":117,"programNumber":73},{"time":252255.20833333544,"duration":234.375,"noteNumber":67,"velocity":107,"programNumber":73},{"time":252494.79166666878,"duration":239.58333333334303,"noteNumber":67,"velocity":117,"programNumber":73},{"time":252750.00000000212,"duration":239.58333333334303,"noteNumber":69,"velocity":107,"programNumber":73},{"time":252994.7916666688,"duration":239.58333333334303,"noteNumber":69,"velocity":117,"programNumber":73},{"time":253244.7916666688,"duration":239.58333333334303,"noteNumber":67,"velocity":107,"programNumber":73},{"time":253494.7916666688,"duration":239.58333333334303,"noteNumber":67,"velocity":117,"programNumber":73},{"time":253750.00000000215,"duration":239.58333333334303,"noteNumber":67,"velocity":107,"programNumber":73},{"time":253994.79166666884,"duration":239.58333333334303,"noteNumber":64,"velocity":117,"programNumber":73},{"time":254494.79166666884,"duration":239.58333333334303,"noteNumber":64,"velocity":117,"programNumber":73},{"time":254744.79166666884,"duration":239.58333333334303,"noteNumber":62,"velocity":97,"programNumber":73},{"time":255000.00000000218,"duration":489.58333333334303,"noteNumber":62,"velocity":117,"programNumber":73},{"time":255500.00000000218,"duration":239.58333333334303,"noteNumber":67,"velocity":117,"programNumber":73},{"time":256244.79166666884,"duration":239.58333333334303,"noteNumber":67,"velocity":107,"programNumber":73},{"time":256500.00000000218,"duration":239.58333333334303,"noteNumber":67,"velocity":117,"programNumber":73},{"time":256750.00000000218,"duration":239.58333333334303,"noteNumber":69,"velocity":107,"programNumber":73},{"time":257000.00000000218,"duration":239.58333333334303,"noteNumber":69,"velocity":117,"programNumber":73},{"time":257250.00000000218,"duration":239.58333333334303,"noteNumber":67,"velocity":107,"programNumber":73},{"time":257500.00000000218,"duration":239.58333333334303,"noteNumber":67,"velocity":117,"programNumber":73},{"time":257744.79166666887,"duration":239.58333333334303,"noteNumber":67,"velocity":107,"programNumber":73},{"time":257994.79166666887,"duration":239.58333333334303,"noteNumber":67,"velocity":117,"programNumber":73},{"time":258250.0000000022,"duration":239.58333333334303,"noteNumber":67,"velocity":107,"programNumber":73},{"time":258505.20833333555,"duration":484.375,"noteNumber":74,"velocity":117,"programNumber":73},{"time":258994.7916666689,"duration":489.58333333334303,"noteNumber":74,"velocity":117,"programNumber":73}]]}