{"tracks":[[{"time":800.0000000000001,"duration":33.33333333333337,"noteNumber":77,"velocity":80,"programNumber":56},{"time":33.33333333333333,"duration":800.0000000000001,"noteNumber":86,"velocity":80,"programNumber":56},{"time":800.0000000000001,"duration":800.0000000000001,"noteNumber":81,"velocity":80,"programNumber":56},{"time":1600.0000000000002,"duration":1599.9999999999998,"noteNumber":79,"velocity":80,"programNumber":56},{"time":1600.0000000000002,"duration":1599.9999999999998,"noteNumber":88,"velocity":80,"programNumber":56},{"time":3200,"duration":800,"noteNumber":79,"velocity":80,"programNumber":56},{"time":3200,"duration":800,"noteNumber":88,"velocity":80,"programNumber":56},{"time":4000,"duration":800,"noteNumber":79,"velocity":80,"programNumber":56},{"time":4000,"duration":800,"noteNumber":81,"velocity":80,"programNumber":56},{"time":4800,"duration":1200,"noteNumber":74,"velocity":80,"programNumber":56},{"time":4800,"duration":1200,"noteNumber":86,"velocity":80,"programNumber":56},{"time":6000,"duration":400,"noteNumber":77,"velocity":80,"programNumber":56},{"time":6000,"duration":400,"noteNumber":86,"velocity":80,"programNumber":56},{"time":6400,"duration":400,"noteNumber":76,"velocity":80,"programNumber":56},{"time":6400,"duration":400,"noteNumber":81,"velocity":80,"programNumber":56},{"time":6800,"duration":400,"noteNumber":76,"velocity":80,"programNumber":56},{"time":6800,"duration":400,"noteNumber":81,"velocity":80,"programNumber":56},{"time":7600,"duration":400,"noteNumber":72,"velocity":80,"programNumber":56},{"time":7600,"duration":400,"noteNumber":81,"velocity":80,"programNumber":56},{"time":8000,"duration":400,"noteNumber":69,"velocity":80,"programNumber":56},{"time":8000,"duration":400,"noteNumber":81,"velocity":80,"programNumber":56},{"time":8400,"duration":400,"noteNumber":69,"velocity":80,"programNumber":56},{"time":8400,"duration":400,"noteNumber":81,"velocity":80,"programNumber":56},{"time":9200,"duration":400,"noteNumber":77,"velocity":80,"programNumber":56},{"time":8800,"duration":800,"noteNumber":81,"velocity":80,"programNumber":56},{"time":9600,"duration":400,"noteNumber":74,"velocity":80,"programNumber":56},{"time":10000,"duration":400,"noteNumber":81,"velocity":80,"programNumber":56},{"time":10000,"duration":400,"noteNumber":89,"velocity":80,"programNumber":56},{"time":10400,"duration":400,"noteNumber":79,"velocity":80,"programNumber":56},{"time":10400,"duration":400,"noteNumber":88,"velocity":80,"programNumber":56},{"time":10800,"duration":400,"noteNumber":81,"velocity":80,"programNumber":56},{"time":10800,"duration":400,"noteNumber":86,"velocity":80,"programNumber":56},{"time":11200,"duration":400,"noteNumber":81,"velocity":80,"programNumber":56},{"time":11200,"duration":400,"noteNumber":86,"velocity":80,"programNumber":56},{"time":11600,"duration":400,"noteNumber":81,"velocity":80,"programNumber":56},{"time":11600,"duration":400,"noteNumber":85,"velocity":80,"programNumber":56},{"time":13600,"duration":200,"noteNumber":72,"velocity":80,"programNumber":56},{"time":13600,"duration":200,"noteNumber":84,"velocity":80,"programNumber":56},{"time":13800,"duration":200,"noteNumber":85,"velocity":80,"programNumber":56},{"time":14000,"duration":200,"noteNumber":86,"velocity":80,"programNumber":56},{"time":13800,"duration":400,"noteNumber":77,"velocity":80,"programNumber":56},{"time":14200,"duration":200,"noteNumber":82,"velocity":80,"programNumber":56},{"time":14200,"duration":200,"noteNumber":88,"velocity":80,"programNumber":56},{"time":14400,"duration":1200,"noteNumber":89,"velocity":80,"programNumber":56},{"time":15600,"duration":400,"noteNumber":84,"velocity":80,"programNumber":56},{"time":14400,"duration":1600,"noteNumber":81,"velocity":80,"programNumber":56},{"time":16000,"duration":400,"noteNumber":81,"velocity":80,"programNumber":56},{"time":16000,"duration":400,"noteNumber":77,"velocity":80,"programNumber":56},{"time":16400,"duration":400,"noteNumber":77,"velocity":80,"programNumber":56},{"time":16400,"duration":400,"noteNumber":72,"velocity":80,"programNumber":56},{"time":16800,"duration":400,"noteNumber":81,"velocity":80,"programNumber":56},{"time":16800,"duration":400,"noteNumber":77,"velocity":80,"programNumber":56},{"time":17200,"duration":400,"noteNumber":84,"velocity":80,"programNumber":56},{"time":17200,"duration":400,"noteNumber":81,"velocity":80,"programNumber":56},{"time":17600,"duration":800,"noteNumber":84,"velocity":80,"programNumber":56},{"time":17600,"duration":800,"noteNumber":87,"velocity":80,"programNumber":56},{"time":18400,"duration":800,"noteNumber":81,"velocity":80,"programNumber":56},{"time":18400,"duration":800,"noteNumber":86,"velocity":80,"programNumber":56},{"time":20400,"duration":400,"noteNumber":86,"velocity":80,"programNumber":56},{"time":19200,"duration":1600,"noteNumber":79,"velocity":80,"programNumber":56},{"time":20800,"duration":400,"noteNumber":83,"velocity":80,"programNumber":56},{"time":21200,"duration":400,"noteNumber":74,"velocity":80,"programNumber":56},{"time":21200,"duration":400,"noteNumber":79,"velocity":80,"programNumber":56},{"time":21600,"duration":400,"noteNumber":79,"velocity":80,"programNumber":56},{"time":21600,"duration":400,"noteNumber":83,"velocity":80,"programNumber":56},{"time":22000,"duration":400,"noteNumber":83,"velocity":80,"programNumber":56},{"time":22000,"duration":400,"noteNumber":86,"velocity":80,"programNumber":56},{"time":22400,"duration":800,"noteNumber":86,"velocity":80,"programNumber":56},{"time":22400,"duration":800,"noteNumber":89,"velocity":80,"programNumber":56},{"time":23200,"duration":800,"noteNumber":83,"velocity":80,"programNumber":56},{"time":23200,"duration":800,"noteNumber":88,"velocity":80,"programNumber":56},{"time":24000,"duration":800,"noteNumber":81,"velocity":80,"programNumber":56},{"time":24800,"duration":800,"noteNumber":80,"velocity":80,"programNumber":56},{"time":25600,"duration":400,"noteNumber":81,"velocity":80,"programNumber":56},{"time":24000,"duration":2400,"noteNumber":88,"velocity":80,"programNumber":56},{"time":26000,"duration":800,"noteNumber":84,"velocity":80,"programNumber":56},{"time":26800,"duration":200,"noteNumber":83,"velocity":80,"programNumber":56},{"time":27000,"duration":200,"noteNumber":81,"velocity":80,"programNumber":56},{"time":26400,"duration":800,"noteNumber":86,"velocity":80,"programNumber":56},{"time":27200,"duration":400,"noteNumber":80,"velocity":80,"programNumber":56},{"time":27600,"duration":400,"noteNumber":84,"velocity":80,"programNumber":56},{"time":27600,"duration":800,"noteNumber":81,"velocity":80,"programNumber":56},{"time":28400,"duration":400,"noteNumber":80,"velocity":80,"programNumber":56},{"time":28000,"duration":800,"noteNumber":83,"velocity":80,"programNumber":56},{"time":28800,"duration":400,"noteNumber":81,"velocity":80,"programNumber":56},{"time":33600,"duration":800,"noteNumber":81,"velocity":80,"programNumber":56},{"time":33600,"duration":800,"noteNumber":84,"velocity":80,"programNumber":56},{"time":34400,"duration":800,"noteNumber":81,"velocity":80,"programNumber":56},{"time":34400,"duration":800,"noteNumber":84,"velocity":80,"programNumber":56},{"time":35200,"duration":1600,"noteNumber":83,"velocity":80,"programNumber":56},{"time":35200,"duration":1600,"noteNumber":86,"velocity":80,"programNumber":56},{"time":36800,"duration":800,"noteNumber":78,"velocity":80,"programNumber":56},{"time":36800,"duration":800,"noteNumber":81,"velocity":80,"programNumber":56},{"time":37600,"duration":800,"noteNumber":78,"velocity":80,"programNumber":56},{"time":37600,"duration":800,"noteNumber":81,"velocity":80,"programNumber":56},{"time":38400,"duration":1600,"noteNumber":81,"velocity":80,"programNumber":56},{"time":38400,"duration":1600,"noteNumber":84,"velocity":80,"programNumber":56},{"time":40000,"duration":400,"noteNumber":81,"velocity":80,"programNumber":56},{"time":40000,"duration":400,"noteNumber":89,"velocity":80,"programNumber":56},{"time":40400,"duration":400,"noteNumber":84,"velocity":80,"programNumber":56},{"time":40400,"duration":400,"noteNumber":88,"velocity":80,"programNumber":56},{"time":41200,"duration":400,"noteNumber":84,"velocity":80,"programNumber":56},{"time":41200,"duration":400,"noteNumber":88,"velocity":80,"programNumber":56},{"time":41600,"duration":400,"noteNumber":80,"velocity":80,"programNumber":56},{"time":41600,"duration":400,"noteNumber":86,"velocity":80,"programNumber":56},{"time":42000,"duration":400,"noteNumber":81,"velocity":80,"programNumber":56},{"time":42000,"duration":400,"noteNumber":84,"velocity":80,"programNumber":56},{"time":42800,"duration":200,"noteNumber":79,"velocity":80,"programNumber":56},{"time":43000,"duration":200,"noteNumber":78,"velocity":80,"programNumber":56},{"time":42800,"duration":400,"noteNumber":83,"velocity":80,"programNumber":56},{"time":43200,"duration":400,"noteNumber":81,"velocity":80,"programNumber":56},{"time":43200,"duration":400,"noteNumber":86,"velocity":80,"programNumber":56},{"time":43600,"duration":400,"noteNumber":79,"velocity":80,"programNumber":56},{"time":43600,"duration":400,"noteNumber":84,"velocity":80,"programNumber":56},{"time":44000,"duration":400,"noteNumber":77,"velocity":80,"programNumber":56},{"time":44000,"duration":400,"noteNumber":82,"velocity":80,"programNumber":56},{"time":44400,"duration":400,"noteNumber":76,"velocity":80,"programNumber":56},{"time":44400,"duration":400,"noteNumber":81,"velocity":80,"programNumber":56},{"time":44800,"duration":400,"noteNumber":76,"velocity":80,"programNumber":56},{"time":44800,"duration":400,"noteNumber":81,"velocity":80,"programNumber":56},{"time":45200,"duration":400,"noteNumber":76,"velocity":80,"programNumber":56},{"time":45200,"duration":400,"noteNumber":80,"velocity":80,"programNumber":56},{"time":45600,"duration":800,"noteNumber":79,"velocity":80,"programNumber":56},{"time":46400,"duration":800,"noteNumber":80,"velocity":80,"programNumber":56},{"time":47200,"duration":400,"noteNumber":79,"velocity":80,"programNumber":56},{"time":47600,"duration":400,"noteNumber":77,"velocity":80,"programNumber":56},{"time":45600,"duration":2400,"noteNumber":83,"velocity":80,"programNumber":56},{"time":48000,"duration":800,"noteNumber":75,"velocity":80,"programNumber":56},{"time":48000,"duration":800,"noteNumber":84,"velocity":80,"programNumber":56},{"time":48800,"duration":800,"noteNumber":75,"velocity":80,"programNumber":56},{"time":48800,"duration":800,"noteNumber":84,"velocity":80,"programNumber":56},{"time":49600,"duration":400,"noteNumber":79,"velocity":80,"programNumber":56},{"time":49600,"duration":400,"noteNumber":87,"velocity":80,"programNumber":56},{"time":50000,"duration":400,"noteNumber":79,"velocity":80,"programNumber":56},{"time":50000,"duration":400,"noteNumber":84,"velocity":80,"programNumber":56},{"time":50400,"duration":400,"noteNumber":79,"velocity":80,"programNumber":56},{"time":50800,"duration":400,"noteNumber":79,"velocity":80,"programNumber":56},{"time":50800,"duration":400,"noteNumber":84,"velocity":80,"programNumber":56},{"time":51200,"duration":400,"noteNumber":84,"velocity":80,"programNumber":56},{"time":51600,"duration":400,"noteNumber":85,"velocity":80,"programNumber":56},{"time":51200,"duration":800,"noteNumber":79,"velocity":80,"programNumber":56},{"time":52000,"duration":800,"noteNumber":79,"velocity":80,"programNumber":56},{"time":52000,"duration":800,"noteNumber":85,"velocity":80,"programNumber":56},{"time":52800,"duration":800,"noteNumber":79,"velocity":80,"programNumber":56},{"time":52800,"duration":800,"noteNumber":85,"velocity":80,"programNumber":56},{"time":53600,"duration":800,"noteNumber":76,"velocity":80,"programNumber":56},{"time":53600,"duration":800,"noteNumber":85,"velocity":80,"programNumber":56},{"time":54400,"duration":400,"noteNumber":79,"velocity":80,"programNumber":56},{"time":54400,"duration":400,"noteNumber":88,"velocity":80,"programNumber":56},{"time":54800,"duration":400,"noteNumber":79,"velocity":80,"programNumber":56},{"time":54800,"duration":400,"noteNumber":85,"velocity":80,"programNumber":56},{"time":55200,"duration":400,"noteNumber":76,"velocity":80,"programNumber":56},{"time":55200,"duration":400,"noteNumber":81,"velocity":80,"programNumber":56},{"time":55600,"duration":400,"noteNumber":81,"velocity":80,"programNumber":56},{"time":55600,"duration":400,"noteNumber":85,"velocity":80,"programNumber":56},{"time":56000,"duration":400,"noteNumber":85,"velocity":80,"programNumber":56},{"time":56400,"duration":400,"noteNumber":86,"velocity":80,"programNumber":56},{"time":56000,"duration":800,"noteNumber":81,"velocity":80,"programNumber":56},{"time":56800,"duration":800,"noteNumber":86,"velocity":80,"programNumber":56},{"time":56800,"duration":800,"noteNumber":81,"velocity":80,"programNumber":56},{"time":57600,"duration":800,"noteNumber":82,"velocity":80,"programNumber":56},{"time":57600,"duration":800,"noteNumber":87,"velocity":80,"programNumber":56},{"time":58400,"duration":800,"noteNumber":81,"velocity":80,"programNumber":56},{"time":58400,"duration":800,"noteNumber":84,"velocity":80,"programNumber":56},{"time":59200,"duration":800,"noteNumber":79,"velocity":80,"programNumber":56},{"time":59200,"duration":800,"noteNumber":82,"velocity":80,"programNumber":56},{"time":60000,"duration":800,"noteNumber":81,"velocity":80,"programNumber":56},{"time":60000,"duration":800,"noteNumber":89,"velocity":80,"programNumber":56},{"time":60800,"duration":800,"noteNumber":82,"velocity":80,"programNumber":56},{"time":60800,"duration":800,"noteNumber":87,"velocity":80,"programNumber":56},{"time":61600,"duration":800,"noteNumber":83,"velocity":80,"programNumber":56},{"time":61600,"duration":800,"noteNumber":86,"velocity":80,"programNumber":56},{"time":62400,"duration":400,"noteNumber":86,"velocity":80,"programNumber":56},{"time":62800,"duration":400,"noteNumber":85,"velocity":80,"programNumber":56},{"time":62400,"duration":800,"noteNumber":81,"velocity":80,"programNumber":56},{"time":66400,"duration":800,"noteNumber":76,"velocity":80,"programNumber":56},{"time":66400,"duration":800,"noteNumber":81,"velocity":80,"programNumber":56},{"time":67200,"duration":400,"noteNumber":77,"velocity":80,"programNumber":56},{"time":67200,"duration":400,"noteNumber":80,"velocity":80,"programNumber":56},{"time":67600,"duration":400,"noteNumber":76,"velocity":80,"programNumber":56},{"time":67600,"duration":400,"noteNumber":81,"velocity":80,"programNumber":56},{"time":68000,"duration":800,"noteNumber":76,"velocity":80,"programNumber":56},{"time":68000,"duration":800,"noteNumber":81,"velocity":80,"programNumber":56},{"time":68800,"duration":400,"noteNumber":77,"velocity":80,"programNumber":56},{"time":68800,"duration":400,"noteNumber":80,"velocity":80,"programNumber":56},{"time":69200,"duration":400,"noteNumber":76,"velocity":80,"programNumber":56},{"time":69200,"duration":400,"noteNumber":81,"velocity":80,"programNumber":56},{"time":72800,"duration":800,"noteNumber":81,"velocity":80,"programNumber":56},{"time":72800,"duration":800,"noteNumber":88,"velocity":80,"programNumber":56},{"time":73600,"duration":400,"noteNumber":80,"velocity":80,"programNumber":56},{"time":73600,"duration":400,"noteNumber":89,"velocity":80,"programNumber":56},{"time":74000,"duration":400,"noteNumber":81,"velocity":80,"programNumber":56},{"time":74000,"duration":400,"noteNumber":88,"velocity":80,"programNumber":56},{"time":74400,"duration":800,"noteNumber":81,"velocity":80,"programNumber":56},{"time":74400,"duration":800,"noteNumber":88,"velocity":80,"programNumber":56},{"time":75200,"duration":400,"noteNumber":80,"velocity":80,"programNumber":56},{"time":75200,"duration":400,"noteNumber":89,"velocity":80,"programNumber":56},{"time":75600,"duration":400,"noteNumber":81,"velocity":80,"programNumber":56},{"time":75600,"duration":400,"noteNumber":88,"velocity":80,"programNumber":56},{"time":79200,"duration":800,"noteNumber":79,"velocity":80,"programNumber":56},{"time":79200,"duration":800,"noteNumber":86,"velocity":80,"programNumber":56},{"time":80000,"duration":200,"noteNumber":81,"velocity":80,"programNumber":56},{"time":80000,"duration":200,"noteNumber":84,"velocity":80,"programNumber":56},{"time":80200,"duration":200,"noteNumber":82,"velocity":80,"programNumber":56},{"time":80200,"duration":200,"noteNumber":86,"velocity":80,"programNumber":56},{"time":80400,"duration":200,"noteNumber":81,"velocity":80,"programNumber":56},{"time":80400,"duration":200,"noteNumber":84,"velocity":80,"programNumber":56},{"time":80600,"duration":200,"noteNumber":82,"velocity":80,"programNumber":56},{"time":80600,"duration":200,"noteNumber":86,"velocity":80,"programNumber":56},{"time":80800,"duration":200,"noteNumber":81,"velocity":80,"programNumber":56},{"time":80800,"duration":200,"noteNumber":84,"velocity":80,"programNumber":56},{"time":81000,"duration":200,"noteNumber":82,"velocity":80,"programNumber":56},{"time":81000,"duration":200,"noteNumber":86,"velocity":80,"programNumber":56},{"time":81200,"duration":200,"noteNumber":81,"velocity":80,"programNumber":56},{"time":81200,"duration":200,"noteNumber":84,"velocity":80,"programNumber":56},{"time":81400,"duration":200,"noteNumber":82,"velocity":80,"programNumber":56},{"time":81400,"duration":200,"noteNumber":86,"velocity":80,"programNumber":56},{"time":81600,"duration":400,"noteNumber":81,"velocity":80,"programNumber":56},{"time":81600,"duration":400,"noteNumber":88,"velocity":80,"programNumber":56},{"time":82000,"duration":400,"noteNumber":81,"velocity":80,"programNumber":56},{"time":82000,"duration":400,"noteNumber":85,"velocity":80,"programNumber":56},{"time":82800,"duration":400,"noteNumber":76,"velocity":80,"programNumber":56},{"time":82800,"duration":400,"noteNumber":85,"velocity":80,"programNumber":56},{"time":83200,"duration":400,"noteNumber":77,"velocity":80,"programNumber":56},{"time":83200,"duration":400,"noteNumber":86,"velocity":80,"programNumber":56},{"time":83600,"duration":400,"noteNumber":76,"velocity":80,"programNumber":56},{"time":83600,"duration":400,"noteNumber":85,"velocity":80,"programNumber":56},{"time":84000,"duration":400,"noteNumber":77,"velocity":80,"programNumber":56},{"time":84000,"duration":400,"noteNumber":86,"velocity":80,"programNumber":56},{"time":84400,"duration":400,"noteNumber":76,"velocity":80,"programNumber":56},{"time":84400,"duration":400,"noteNumber":85,"velocity":80,"programNumber":56},{"time":84800,"duration":400,"noteNumber":77,"velocity":80,"programNumber":56},{"time":84800,"duration":400,"noteNumber":86,"velocity":80,"programNumber":56},{"time":85200,"duration":400,"noteNumber":76,"velocity":80,"programNumber":56},{"time":85200,"duration":400,"noteNumber":85,"velocity":80,"programNumber":56},{"time":86000,"duration":400,"noteNumber":77,"velocity":80,"programNumber":56},{"time":86000,"duration":400,"noteNumber":86,"velocity":80,"programNumber":56},{"time":86400,"duration":400,"noteNumber":79,"velocity":80,"programNumber":56},{"time":86400,"duration":400,"noteNumber":88,"velocity":80,"programNumber":56},{"time":86800,"duration":400,"noteNumber":77,"velocity":80,"programNumber":56},{"time":86800,"duration":400,"noteNumber":86,"velocity":80,"programNumber":56},{"time":87200,"duration":400,"noteNumber":79,"velocity":80,"programNumber":56},{"time":87200,"duration":400,"noteNumber":88,"velocity":80,"programNumber":56},{"time":87600,"duration":400,"noteNumber":77,"velocity":80,"programNumber":56},{"time":87600,"duration":400,"noteNumber":86,"velocity":80,"programNumber":56},{"time":88000,"duration":400,"noteNumber":79,"velocity":80,"programNumber":56},{"time":88000,"duration":400,"noteNumber":88,"velocity":80,"programNumber":56},{"time":88400,"duration":400,"noteNumber":77,"velocity":80,"programNumber":56},{"time":88400,"duration":400,"noteNumber":86,"velocity":80,"programNumber":56},{"time":90000,"duration":800,"noteNumber":77,"velocity":80,"programNumber":56},{"time":90000,"duration":800,"noteNumber":86,"velocity":80,"programNumber":56},{"time":90800,"duration":400,"noteNumber":77,"velocity":80,"programNumber":56},{"time":90800,"duration":400,"noteNumber":86,"velocity":80,"programNumber":56},{"time":91200,"duration":400,"noteNumber":81,"velocity":80,"programNumber":56},{"time":91200,"duration":400,"noteNumber":89,"velocity":80,"programNumber":56},{"time":91600,"duration":400,"noteNumber":77,"velocity":80,"programNumber":56},{"time":91600,"duration":400,"noteNumber":86,"velocity":80,"programNumber":56},{"time":93600,"duration":600,"noteNumber":79,"velocity":80,"programNumber":56},{"time":93600,"duration":600,"noteNumber":86,"velocity":80,"programNumber":56},{"time":94200,"duration":200,"noteNumber":79,"velocity":80,"programNumber":56},{"time":94200,"duration":200,"noteNumber":86,"velocity":80,"programNumber":56},{"time":94400,"duration":400,"noteNumber":79,"velocity":80,"programNumber":56},{"time":94400,"duration":400,"noteNumber":85,"velocity":80,"programNumber":56},{"time":94800,"duration":400,"noteNumber":77,"velocity":80,"programNumber":56},{"time":94800,"duration":800,"noteNumber":86,"velocity":80,"programNumber":56},{"time":95600,"duration":400,"noteNumber":85,"velocity":80,"programNumber":56},{"time":95200,"duration":800,"noteNumber":76,"velocity":80,"programNumber":56},{"time":96000,"duration":400,"noteNumber":74,"velocity":80,"programNumber":56},{"time":96000,"duration":400,"noteNumber":86,"velocity":80,"programNumber":56},{"time":96400,"duration":800,"noteNumber":77,"velocity":80,"programNumber":56},{"time":96400,"duration":800,"noteNumber":86,"velocity":80,"programNumber":56},{"time":97200,"duration":400,"noteNumber":77,"velocity":80,"programNumber":56},{"time":97200,"duration":400,"noteNumber":86,"velocity":80,"programNumber":56},{"time":97600,"duration":400,"noteNumber":86,"velocity":80,"programNumber":56},{"time":97600,"duration":400,"noteNumber":89,"velocity":80,"programNumber":56},{"time":98000,"duration":400,"noteNumber":82,"velocity":80,"programNumber":56},{"time":98000,"duration":400,"noteNumber":86,"velocity":80,"programNumber":56},{"time":100000,"duration":600,"noteNumber":79,"velocity":80,"programNumber":56},{"time":100000,"duration":600,"noteNumber":87,"velocity":80,"programNumber":56},{"time":100600,"duration":200,"noteNumber":79,"velocity":80,"programNumber":56},{"time":100600,"duration":200,"noteNumber":86,"velocity":80,"programNumber":56},{"time":100800,"duration":400,"noteNumber":79,"velocity":80,"programNumber":56},{"time":100800,"duration":400,"noteNumber":85,"velocity":80,"programNumber":56},{"time":101200,"duration":400,"noteNumber":77,"velocity":80,"programNumber":56},{"time":101200,"duration":800,"noteNumber":86,"velocity":80,"programNumber":56},{"time":102000,"duration":400,"noteNumber":85,"velocity":80,"programNumber":56},{"time":101600,"duration":800,"noteNumber":76,"velocity":80,"programNumber":56},{"time":102400,"duration":400,"noteNumber":74,"velocity":80,"programNumber":56},{"time":102400,"duration":400,"noteNumber":86,"velocity":80,"programNumber":56},{"time":105200,"duration":200,"noteNumber":81,"velocity":80,"programNumber":56},{"time":105400,"duration":200,"noteNumber":79,"velocity":80,"programNumber":56},{"time":105400,"duration":200,"noteNumber":85,"velocity":80,"programNumber":56},{"time":105600,"duration":200,"noteNumber":77,"velocity":80,"programNumber":56},{"time":105800,"duration":200,"noteNumber":81,"velocity":80,"programNumber":56},{"time":105600,"duration":400,"noteNumber":86,"velocity":80,"programNumber":56},{"time":106000,"duration":200,"noteNumber":82,"velocity":80,"programNumber":56},{"time":106200,"duration":200,"noteNumber":79,"velocity":80,"programNumber":56},{"time":106400,"duration":400,"noteNumber":77,"velocity":80,"programNumber":56},{"time":106000,"duration":800,"noteNumber":86,"velocity":80,"programNumber":56},{"time":106800,"duration":400,"noteNumber":85,"velocity":80,"programNumber":56},{"time":106800,"duration":400,"noteNumber":76,"velocity":80,"programNumber":56},{"time":107200,"duration":400,"noteNumber":74,"velocity":80,"programNumber":56},{"time":107200,"duration":400,"noteNumber":86,"velocity":80,"programNumber":56}],[{"time":800.0000000000001,"duration":33.33333333333337,"noteNumber":62,"velocity":80,"programNumber":70},{"time":800.0000000000001,"duration":33.33333333333337,"noteNumber":65,"velocity":80,"programNumber":70},{"time":1600.0000000000002,"duration":1599.9999999999998,"noteNumber":64,"velocity":80,"programNumber":70},{"time":1600.0000000000002,"duration":1599.9999999999998,"noteNumber":67,"velocity":80,"programNumber":70},{"time":3200,"duration":800,"noteNumber":61,"velocity":80,"programNumber":70},{"time":3200,"duration":800,"noteNumber":64,"velocity":80,"programNumber":70},{"time":4000,"duration":800,"noteNumber":61,"velocity":80,"programNumber":70},{"time":4000,"duration":800,"noteNumber":64,"velocity":80,"programNumber":70},{"time":4800,"duration":1200,"noteNumber":62,"velocity":80,"programNumber":70},{"time":4800,"duration":1200,"noteNumber":65,"velocity":80,"programNumber":70},{"time":6000,"duration":400,"noteNumber":50,"velocity":80,"programNumber":70},{"time":6000,"duration":400,"noteNumber":65,"velocity":80,"programNumber":70},{"time":6400,"duration":400,"noteNumber":52,"velocity":80,"programNumber":70},{"time":6400,"duration":400,"noteNumber":64,"velocity":80,"programNumber":70},{"time":6800,"duration":400,"noteNumber":53,"velocity":80,"programNumber":70},{"time":6800,"duration":400,"noteNumber":62,"velocity":80,"programNumber":70},{"time":7600,"duration":400,"noteNumber":53,"velocity":80,"programNumber":70},{"time":7600,"duration":400,"noteNumber":57,"velocity":80,"programNumber":70},{"time":8000,"duration":400,"noteNumber":49,"velocity":80,"programNumber":70},{"time":8000,"duration":400,"noteNumber":64,"velocity":80,"programNumber":70},{"time":8400,"duration":400,"noteNumber":50,"velocity":80,"programNumber":70},{"time":8400,"duration":400,"noteNumber":62,"velocity":80,"programNumber":70},{"time":9200,"duration":200,"noteNumber":62,"velocity":80,"programNumber":70},{"time":9400,"duration":200,"noteNumber":60,"velocity":80,"programNumber":70},{"time":9200,"duration":400,"noteNumber":65,"velocity":80,"programNumber":70},{"time":9600,"duration":400,"noteNumber":58,"velocity":80,"programNumber":70},{"time":9600,"duration":400,"noteNumber":67,"velocity":80,"programNumber":70},{"time":10000,"duration":400,"noteNumber":57,"velocity":80,"programNumber":70},{"time":10000,"duration":400,"noteNumber":65,"velocity":80,"programNumber":70},{"time":10400,"duration":400,"noteNumber":55,"velocity":80,"programNumber":70},{"time":10400,"duration":400,"noteNumber":61,"velocity":80,"programNumber":70},{"time":10800,"duration":400,"noteNumber":53,"velocity":80,"programNumber":70},{"time":10800,"duration":400,"noteNumber":62,"velocity":80,"programNumber":70},{"time":11200,"duration":400,"noteNumber":57,"velocity":80,"programNumber":70},{"time":11200,"duration":400,"noteNumber":65,"velocity":80,"programNumber":70},{"time":11600,"duration":400,"noteNumber":45,"velocity":80,"programNumber":70},{"time":11600,"duration":400,"noteNumber":64,"velocity":80,"programNumber":70},{"time":14400,"duration":1200,"noteNumber":53,"velocity":80,"programNumber":70},{"time":15600,"duration":400,"noteNumber":53,"velocity":80,"programNumber":70},{"time":16000,"duration":400,"noteNumber":53,"velocity":80,"programNumber":70},{"time":16400,"duration":400,"noteNumber":53,"velocity":80,"programNumber":70},{"time":16800,"duration":400,"noteNumber":53,"velocity":80,"programNumber":70},{"time":14400,"duration":2800,"noteNumber":65,"velocity":80,"programNumber":70},{"time":17200,"duration":400,"noteNumber":53,"velocity":80,"programNumber":70},{"time":17200,"duration":400,"noteNumber":60,"velocity":80,"programNumber":70},{"time":17600,"duration":400,"noteNumber":57,"velocity":80,"programNumber":70},{"time":18000,"duration":400,"noteNumber":54,"velocity":80,"programNumber":70},{"time":18400,"duration":400,"noteNumber":57,"velocity":80,"programNumber":70},{"time":18800,"duration":400,"noteNumber":60,"velocity":80,"programNumber":70},{"time":18400,"duration":800,"noteNumber":54,"velocity":80,"programNumber":70},{"time":19200,"duration":800,"noteNumber":60,"velocity":80,"programNumber":70},{"time":19200,"duration":1200,"noteNumber":55,"velocity":80,"programNumber":70},{"time":20400,"duration":400,"noteNumber":55,"velocity":80,"programNumber":70},{"time":20000,"duration":800,"noteNumber":59,"velocity":80,"programNumber":70},{"time":20800,"duration":400,"noteNumber":55,"velocity":80,"programNumber":70},{"time":21200,"duration":400,"noteNumber":55,"velocity":80,"programNumber":70},{"time":21600,"duration":400,"noteNumber":55,"velocity":80,"programNumber":70},{"time":20800,"duration":1200,"noteNumber":67,"velocity":80,"programNumber":70},{"time":22000,"duration":400,"noteNumber":55,"velocity":80,"programNumber":70},{"time":22000,"duration":400,"noteNumber":62,"velocity":80,"programNumber":70},{"time":22400,"duration":400,"noteNumber":59,"velocity":80,"programNumber":70},{"time":22800,"duration":400,"noteNumber":56,"velocity":80,"programNumber":70},{"time":23200,"duration":400,"noteNumber":59,"velocity":80,"programNumber":70},{"time":23600,"duration":400,"noteNumber":62,"velocity":80,"programNumber":70},{"time":23200,"duration":800,"noteNumber":56,"velocity":80,"programNumber":70},{"time":24000,"duration":600,"noteNumber":60,"velocity":80,"programNumber":70},{"time":24600,"duration":200,"noteNumber":57,"velocity":80,"programNumber":70},{"time":24800,"duration":600,"noteNumber":62,"velocity":80,"programNumber":70},{"time":25400,"duration":200,"noteNumber":59,"velocity":80,"programNumber":70},{"time":25600,"duration":400,"noteNumber":64,"velocity":80,"programNumber":70},{"time":26000,"duration":400,"noteNumber":57,"velocity":80,"programNumber":70},{"time":25600,"duration":800,"noteNumber":60,"velocity":80,"programNumber":70},{"time":26800,"duration":400,"noteNumber":65,"velocity":80,"programNumber":70},{"time":26400,"duration":800,"noteNumber":62,"velocity":80,"programNumber":70},{"time":27200,"duration":400,"noteNumber":64,"velocity":80,"programNumber":70},{"time":27600,"duration":400,"noteNumber":57,"velocity":80,"programNumber":70},{"time":27600,"duration":400,"noteNumber":64,"velocity":80,"programNumber":70},{"time":28000,"duration":800,"noteNumber":52,"velocity":80,"programNumber":70},{"time":28000,"duration":800,"noteNumber":64,"velocity":80,"programNumber":70},{"time":28800,"duration":400,"noteNumber":57,"velocity":80,"programNumber":70},{"time":28800,"duration":400,"noteNumber":64,"velocity":80,"programNumber":70},{"time":29800,"duration":200,"noteNumber":60,"velocity":80,"programNumber":70},{"time":30000,"duration":200,"noteNumber":59,"velocity":80,"programNumber":70},{"time":30200,"duration":200,"noteNumber":57,"velocity":80,"programNumber":70},{"time":30400,"duration":200,"noteNumber":56,"velocity":80,"programNumber":70},{"time":30600,"duration":200,"noteNumber":65,"velocity":80,"programNumber":70},{"time":30800,"duration":200,"noteNumber":62,"velocity":80,"programNumber":70},{"time":31000,"duration":200,"noteNumber":60,"velocity":80,"programNumber":70},{"time":31200,"duration":200,"noteNumber":59,"velocity":80,"programNumber":70},{"time":31400,"duration":200,"noteNumber":56,"velocity":80,"programNumber":70},{"time":31600,"duration":200,"noteNumber":56,"velocity":80,"programNumber":70},{"time":31800,"duration":200,"noteNumber":59,"velocity":80,"programNumber":70},{"time":32000,"duration":200,"noteNumber":57,"velocity":80,"programNumber":70},{"time":32200,"duration":200,"noteNumber":48,"velocity":80,"programNumber":70},{"time":32400,"duration":200,"noteNumber":50,"velocity":80,"programNumber":70},{"time":32600,"duration":200,"noteNumber":53,"velocity":80,"programNumber":70},{"time":32800,"duration":200,"noteNumber":52,"velocity":80,"programNumber":70},{"time":33000,"duration":200,"noteNumber":50,"velocity":80,"programNumber":70},{"time":33200,"duration":200,"noteNumber":52,"velocity":80,"programNumber":70},{"time":33400,"duration":200,"noteNumber":40,"velocity":80,"programNumber":70},{"time":33600,"duration":200,"noteNumber":45,"velocity":80,"programNumber":70},{"time":33800,"duration":200,"noteNumber":48,"velocity":80,"programNumber":70},{"time":34000,"duration":200,"noteNumber":52,"velocity":80,"programNumber":70},{"time":34200,"duration":200,"noteNumber":57,"velocity":80,"programNumber":70},{"time":34400,"duration":200,"noteNumber":45,"velocity":80,"programNumber":70},{"time":34600,"duration":200,"noteNumber":48,"velocity":80,"programNumber":70},{"time":34800,"duration":200,"noteNumber":52,"velocity":80,"programNumber":70},{"time":35000,"duration":200,"noteNumber":57,"velocity":80,"programNumber":70},{"time":35200,"duration":400,"noteNumber":45,"velocity":80,"programNumber":70},{"time":35600,"duration":800,"noteNumber":59,"velocity":80,"programNumber":70},{"time":35600,"duration":800,"noteNumber":62,"velocity":80,"programNumber":70},{"time":36400,"duration":400,"noteNumber":59,"velocity":80,"programNumber":70},{"time":36400,"duration":400,"noteNumber":62,"velocity":80,"programNumber":70},{"time":36800,"duration":200,"noteNumber":44,"velocity":80,"programNumber":70},{"time":37000,"duration":200,"noteNumber":47,"velocity":80,"programNumber":70},{"time":37200,"duration":200,"noteNumber":52,"velocity":80,"programNumber":70},{"time":37400,"duration":200,"noteNumber":56,"velocity":80,"programNumber":70},{"time":37600,"duration":200,"noteNumber":44,"velocity":80,"programNumber":70},{"time":37800,"duration":200,"noteNumber":47,"velocity":80,"programNumber":70},{"time":38000,"duration":200,"noteNumber":52,"velocity":80,"programNumber":70},{"time":38200,"duration":200,"noteNumber":56,"velocity":80,"programNumber":70},{"time":38400,"duration":400,"noteNumber":45,"velocity":80,"programNumber":70},{"time":38800,"duration":800,"noteNumber":60,"velocity":80,"programNumber":70},{"time":38800,"duration":800,"noteNumber":64,"velocity":80,"programNumber":70},{"time":39600,"duration":400,"noteNumber":60,"velocity":80,"programNumber":70},{"time":39600,"duration":400,"noteNumber":64,"velocity":80,"programNumber":70},{"time":40000,"duration":400,"noteNumber":62,"velocity":80,"programNumber":70},{"time":40400,"duration":400,"noteNumber":60,"velocity":80,"programNumber":70},{"time":41200,"duration":400,"noteNumber":60,"velocity":80,"programNumber":70},{"time":41200,"duration":400,"noteNumber":64,"velocity":80,"programNumber":70},{"time":41600,"duration":400,"noteNumber":59,"velocity":80,"programNumber":70},{"time":41600,"duration":400,"noteNumber":64,"velocity":80,"programNumber":70},{"time":42000,"duration":400,"noteNumber":57,"velocity":80,"programNumber":70},{"time":42000,"duration":400,"noteNumber":64,"velocity":80,"programNumber":70},{"time":42600,"duration":200,"noteNumber":45,"velocity":80,"programNumber":70},{"time":42800,"duration":200,"noteNumber":57,"velocity":80,"programNumber":70},{"time":43000,"duration":200,"noteNumber":55,"velocity":80,"programNumber":70},{"time":43200,"duration":200,"noteNumber":53,"velocity":80,"programNumber":70},{"time":43400,"duration":200,"noteNumber":65,"velocity":80,"programNumber":70},{"time":43600,"duration":200,"noteNumber":64,"velocity":80,"programNumber":70},{"time":43800,"duration":200,"noteNumber":52,"velocity":80,"programNumber":70},{"time":44000,"duration":200,"noteNumber":50,"velocity":80,"programNumber":70},{"time":44200,"duration":200,"noteNumber":62,"velocity":80,"programNumber":70},{"time":44400,"duration":200,"noteNumber":57,"velocity":80,"programNumber":70},{"time":44600,"duration":200,"noteNumber":45,"velocity":80,"programNumber":70},{"time":44800,"duration":200,"noteNumber":52,"velocity":80,"programNumber":70},{"time":45000,"duration":200,"noteNumber":64,"velocity":80,"programNumber":70},{"time":45200,"duration":200,"noteNumber":52,"velocity":80,"programNumber":70},{"time":45400,"duration":200,"noteNumber":52,"velocity":80,"programNumber":70},{"time":45600,"duration":800,"noteNumber":52,"velocity":80,"programNumber":70},{"time":45600,"duration":800,"noteNumber":55,"velocity":80,"programNumber":70},{"time":46400,"duration":800,"noteNumber":53,"velocity":80,"programNumber":70},{"time":46400,"duration":800,"noteNumber":56,"velocity":80,"programNumber":70},{"time":47200,"duration":800,"noteNumber":55,"velocity":80,"programNumber":70},{"time":48000,"duration":200,"noteNumber":48,"velocity":80,"programNumber":70},{"time":48200,"duration":200,"noteNumber":51,"velocity":80,"programNumber":70},{"time":48400,"duration":200,"noteNumber":55,"velocity":80,"programNumber":70},{"time":48600,"duration":200,"noteNumber":60,"velocity":80,"programNumber":70},{"time":48800,"duration":200,"noteNumber":48,"velocity":80,"programNumber":70},{"time":49000,"duration":200,"noteNumber":51,"velocity":80,"programNumber":70},{"time":49200,"duration":200,"noteNumber":55,"velocity":80,"programNumber":70},{"time":49400,"duration":200,"noteNumber":60,"velocity":80,"programNumber":70},{"time":49600,"duration":400,"noteNumber":48,"velocity":80,"programNumber":70},{"time":50000,"duration":400,"noteNumber":60,"velocity":80,"programNumber":70},{"time":50000,"duration":400,"noteNumber":63,"velocity":80,"programNumber":70},{"time":50400,"duration":400,"noteNumber":60,"velocity":80,"programNumber":70},{"time":50400,"duration":400,"noteNumber":63,"velocity":80,"programNumber":70},{"time":50800,"duration":400,"noteNumber":60,"velocity":80,"programNumber":70},{"time":50800,"duration":400,"noteNumber":63,"velocity":80,"programNumber":70},{"time":51200,"duration":400,"noteNumber":60,"velocity":80,"programNumber":70},{"time":51200,"duration":400,"noteNumber":63,"velocity":80,"programNumber":70},{"time":51600,"duration":400,"noteNumber":58,"velocity":80,"programNumber":70},{"time":51600,"duration":400,"noteNumber":64,"velocity":80,"programNumber":70},{"time":52000,"duration":800,"noteNumber":58,"velocity":80,"programNumber":70},{"time":52000,"duration":800,"noteNumber":64,"velocity":80,"programNumber":70},{"time":52800,"duration":1200,"noteNumber":58,"velocity":80,"programNumber":70},{"time":52800,"duration":1200,"noteNumber":64,"velocity":80,"programNumber":70},{"time":54000,"duration":400,"noteNumber":58,"velocity":80,"programNumber":70},{"time":54000,"duration":400,"noteNumber":61,"velocity":80,"programNumber":70},{"time":54400,"duration":400,"noteNumber":58,"velocity":80,"programNumber":70},{"time":54400,"duration":400,"noteNumber":61,"velocity":80,"programNumber":70},{"time":54800,"duration":400,"noteNumber":57,"velocity":80,"programNumber":70},{"time":54800,"duration":400,"noteNumber":64,"velocity":80,"programNumber":70},{"time":55200,"duration":400,"noteNumber":57,"velocity":80,"programNumber":70},{"time":55200,"duration":400,"noteNumber":61,"velocity":80,"programNumber":70},{"time":55600,"duration":400,"noteNumber":55,"velocity":80,"programNumber":70},{"time":55600,"duration":400,"noteNumber":64,"velocity":80,"programNumber":70},{"time":56000,"duration":400,"noteNumber":64,"velocity":80,"programNumber":70},{"time":56000,"duration":400,"noteNumber":55,"velocity":80,"programNumber":70},{"time":56400,"duration":400,"noteNumber":65,"velocity":80,"programNumber":70},{"time":56400,"duration":400,"noteNumber":53,"velocity":80,"programNumber":70},{"time":56800,"duration":200,"noteNumber":53,"velocity":80,"programNumber":70},{"time":57000,"duration":200,"noteNumber":50,"velocity":80,"programNumber":70},{"time":57200,"duration":200,"noteNumber":45,"velocity":80,"programNumber":70},{"time":57400,"duration":200,"noteNumber":41,"velocity":80,"programNumber":70},{"time":56800,"duration":800,"noteNumber":65,"velocity":80,"programNumber":70},{"time":57600,"duration":200,"noteNumber":43,"velocity":80,"programNumber":70},{"time":57800,"duration":200,"noteNumber":46,"velocity":80,"programNumber":70},{"time":58000,"duration":200,"noteNumber":51,"velocity":80,"programNumber":70},{"time":58200,"duration":200,"noteNumber":55,"velocity":80,"programNumber":70},{"time":57600,"duration":800,"noteNumber":63,"velocity":80,"programNumber":70},{"time":58400,"duration":200,"noteNumber":45,"velocity":80,"programNumber":70},{"time":58600,"duration":200,"noteNumber":48,"velocity":80,"programNumber":70},{"time":58800,"duration":200,"noteNumber":54,"velocity":80,"programNumber":70},{"time":59000,"duration":200,"noteNumber":57,"velocity":80,"programNumber":70},{"time":58400,"duration":800,"noteNumber":63,"velocity":80,"programNumber":70},{"time":59200,"duration":200,"noteNumber":46,"velocity":80,"programNumber":70},{"time":59400,"duration":200,"noteNumber":50,"velocity":80,"programNumber":70},{"time":59600,"duration":200,"noteNumber":55,"velocity":80,"programNumber":70},{"time":59800,"duration":200,"noteNumber":58,"velocity":80,"programNumber":70},{"time":59200,"duration":800,"noteNumber":62,"velocity":80,"programNumber":70},{"time":60000,"duration":200,"noteNumber":45,"velocity":80,"programNumber":70},{"time":60200,"duration":200,"noteNumber":48,"velocity":80,"programNumber":70},{"time":60400,"duration":200,"noteNumber":53,"velocity":80,"programNumber":70},{"time":60600,"duration":200,"noteNumber":57,"velocity":80,"programNumber":70},{"time":60000,"duration":800,"noteNumber":60,"velocity":80,"programNumber":70},{"time":60800,"duration":200,"noteNumber":43,"velocity":80,"programNumber":70},{"time":61000,"duration":200,"noteNumber":46,"velocity":80,"programNumber":70},{"time":61200,"duration":200,"noteNumber":51,"velocity":80,"programNumber":70},{"time":61400,"duration":200,"noteNumber":55,"velocity":80,"programNumber":70},{"time":60800,"duration":800,"noteNumber":58,"velocity":80,"programNumber":70},{"time":61600,"duration":200,"noteNumber":44,"velocity":80,"programNumber":70},{"time":61800,"duration":200,"noteNumber":47,"velocity":80,"programNumber":70},{"time":62000,"duration":200,"noteNumber":50,"velocity":80,"programNumber":70},{"time":62200,"duration":200,"noteNumber":56,"velocity":80,"programNumber":70},{"time":61600,"duration":800,"noteNumber":65,"velocity":80,"programNumber":70},{"time":62400,"duration":400,"noteNumber":57,"velocity":80,"programNumber":70},{"time":62400,"duration":400,"noteNumber":65,"velocity":80,"programNumber":70},{"time":62800,"duration":400,"noteNumber":45,"velocity":80,"programNumber":70},{"time":62800,"duration":400,"noteNumber":64,"velocity":80,"programNumber":70},{"time":63200,"duration":600,"noteNumber":57,"velocity":80,"programNumber":70},{"time":63800,"duration":200,"noteNumber":57,"velocity":80,"programNumber":70},{"time":64000,"duration":200,"noteNumber":56,"velocity":80,"programNumber":70},{"time":64200,"duration":200,"noteNumber":57,"velocity":80,"programNumber":70},{"time":64400,"duration":200,"noteNumber":56,"velocity":80,"programNumber":70},{"time":64600,"duration":200,"noteNumber":57,"velocity":80,"programNumber":70},{"time":64800,"duration":200,"noteNumber":56,"velocity":80,"programNumber":70},{"time":65000,"duration":200,"noteNumber":57,"velocity":80,"programNumber":70},{"time":65200,"duration":200,"noteNumber":56,"velocity":80,"programNumber":70},{"time":65400,"duration":200,"noteNumber":57,"velocity":80,"programNumber":70},{"time":65600,"duration":400,"noteNumber":58,"velocity":80,"programNumber":70},{"time":66000,"duration":400,"noteNumber":57,"velocity":80,"programNumber":70},{"time":66400,"duration":800,"noteNumber":64,"velocity":80,"programNumber":70},{"time":67200,"duration":400,"noteNumber":65,"velocity":80,"programNumber":70},{"time":67600,"duration":400,"noteNumber":64,"velocity":80,"programNumber":70},{"time":68000,"duration":800,"noteNumber":64,"velocity":80,"programNumber":70},{"time":68800,"duration":400,"noteNumber":65,"velocity":80,"programNumber":70},{"time":69200,"duration":400,"noteNumber":64,"velocity":80,"programNumber":70},{"time":69600,"duration":600,"noteNumber":57,"velocity":80,"programNumber":70},{"time":70200,"duration":200,"noteNumber":57,"velocity":80,"programNumber":70},{"time":70400,"duration":200,"noteNumber":56,"velocity":80,"programNumber":70},{"time":70600,"duration":200,"noteNumber":57,"velocity":80,"programNumber":70},{"time":70800,"duration":200,"noteNumber":56,"velocity":80,"programNumber":70},{"time":71000,"duration":200,"noteNumber":57,"velocity":80,"programNumber":70},{"time":71200,"duration":200,"noteNumber":56,"velocity":80,"programNumber":70},{"time":71400,"duration":200,"noteNumber":57,"velocity":80,"programNumber":70},{"time":71600,"duration":200,"noteNumber":56,"velocity":80,"programNumber":70},{"time":71800,"duration":200,"noteNumber":57,"velocity":80,"programNumber":70},{"time":72000,"duration":400,"noteNumber":58,"velocity":80,"programNumber":70},{"time":72400,"duration":400,"noteNumber":57,"velocity":80,"programNumber":70},{"time":72800,"duration":800,"noteNumber":64,"velocity":80,"programNumber":70},{"time":73600,"duration":400,"noteNumber":65,"velocity":80,"programNumber":70},{"time":74000,"duration":400,"noteNumber":64,"velocity":80,"programNumber":70},{"time":74400,"duration":800,"noteNumber":64,"velocity":80,"programNumber":70},{"time":75200,"duration":400,"noteNumber":65,"velocity":80,"programNumber":70},{"time":75600,"duration":400,"noteNumber":64,"velocity":80,"programNumber":70},{"time":76000,"duration":600,"noteNumber":57,"velocity":80,"programNumber":70},{"time":76600,"duration":200,"noteNumber":57,"velocity":80,"programNumber":70},{"time":76800,"duration":200,"noteNumber":56,"velocity":80,"programNumber":70},{"time":77000,"duration":200,"noteNumber":57,"velocity":80,"programNumber":70},{"time":77200,"duration":200,"noteNumber":56,"velocity":80,"programNumber":70},{"time":77400,"duration":200,"noteNumber":57,"velocity":80,"programNumber":70},{"time":77600,"duration":200,"noteNumber":56,"velocity":80,"programNumber":70},{"time":77800,"duration":200,"noteNumber":57,"velocity":80,"programNumber":70},{"time":78000,"duration":200,"noteNumber":56,"velocity":80,"programNumber":70},{"time":78200,"duration":200,"noteNumber":57,"velocity":80,"programNumber":70},{"time":78400,"duration":200,"noteNumber":58,"velocity":80,"programNumber":70},{"time":78600,"duration":200,"noteNumber":46,"velocity":80,"programNumber":70},{"time":78800,"duration":200,"noteNumber":58,"velocity":80,"programNumber":70},{"time":79000,"duration":200,"noteNumber":58,"velocity":80,"programNumber":70},{"time":79200,"duration":800,"noteNumber":58,"velocity":80,"programNumber":70},{"time":79200,"duration":800,"noteNumber":62,"velocity":80,"programNumber":70},{"time":80000,"duration":200,"noteNumber":60,"velocity":80,"programNumber":70},{"time":80000,"duration":200,"noteNumber":63,"velocity":80,"programNumber":70},{"time":80200,"duration":200,"noteNumber":58,"velocity":80,"programNumber":70},{"time":80200,"duration":200,"noteNumber":62,"velocity":80,"programNumber":70},{"time":80400,"duration":200,"noteNumber":60,"velocity":80,"programNumber":70},{"time":80400,"duration":200,"noteNumber":63,"velocity":80,"programNumber":70},{"time":80600,"duration":200,"noteNumber":58,"velocity":80,"programNumber":70},{"time":80600,"duration":200,"noteNumber":62,"velocity":80,"programNumber":70},{"time":80800,"duration":200,"noteNumber":60,"velocity":80,"programNumber":70},{"time":80800,"duration":200,"noteNumber":63,"velocity":80,"programNumber":70},{"time":81000,"duration":200,"noteNumber":58,"velocity":80,"programNumber":70},{"time":81000,"duration":200,"noteNumber":62,"velocity":80,"programNumber":70},{"time":81200,"duration":200,"noteNumber":60,"velocity":80,"programNumber":70},{"time":81200,"duration":200,"noteNumber":63,"velocity":80,"programNumber":70},{"time":81400,"duration":200,"noteNumber":58,"velocity":80,"programNumber":70},{"time":81400,"duration":200,"noteNumber":62,"velocity":80,"programNumber":70},{"time":81600,"duration":400,"noteNumber":57,"velocity":80,"programNumber":70},{"time":81600,"duration":400,"noteNumber":61,"velocity":80,"programNumber":70},{"time":82000,"duration":400,"noteNumber":45,"velocity":80,"programNumber":70},{"time":82000,"duration":400,"noteNumber":64,"velocity":80,"programNumber":70},{"time":82800,"duration":200,"noteNumber":57,"velocity":80,"programNumber":70},{"time":83000,"duration":200,"noteNumber":57,"velocity":80,"programNumber":70},{"time":83200,"duration":200,"noteNumber":62,"velocity":80,"programNumber":70},{"time":83400,"duration":200,"noteNumber":50,"velocity":80,"programNumber":70},{"time":83600,"duration":200,"noteNumber":45,"velocity":80,"programNumber":70},{"time":83800,"duration":200,"noteNumber":57,"velocity":80,"programNumber":70},{"time":84000,"duration":200,"noteNumber":62,"velocity":80,"programNumber":70},{"time":84200,"duration":200,"noteNumber":50,"velocity":80,"programNumber":70},{"time":84400,"duration":200,"noteNumber":45,"velocity":80,"programNumber":70},{"time":84600,"duration":200,"noteNumber":57,"velocity":80,"programNumber":70},{"time":84800,"duration":200,"noteNumber":62,"velocity":80,"programNumber":70},{"time":85000,"duration":200,"noteNumber":50,"velocity":80,"programNumber":70},{"time":85200,"duration":400,"noteNumber":57,"velocity":80,"programNumber":70},{"time":86000,"duration":200,"noteNumber":62,"velocity":80,"programNumber":70},{"time":86200,"duration":200,"noteNumber":50,"velocity":80,"programNumber":70},{"time":86400,"duration":200,"noteNumber":49,"velocity":80,"programNumber":70},{"time":86600,"duration":200,"noteNumber":61,"velocity":80,"programNumber":70},{"time":86800,"duration":200,"noteNumber":62,"velocity":80,"programNumber":70},{"time":87000,"duration":200,"noteNumber":50,"velocity":80,"programNumber":70},{"time":87200,"duration":200,"noteNumber":49,"velocity":80,"programNumber":70},{"time":87400,"duration":200,"noteNumber":61,"velocity":80,"programNumber":70},{"time":87600,"duration":200,"noteNumber":62,"velocity":80,"programNumber":70},{"time":87800,"duration":200,"noteNumber":50,"velocity":80,"programNumber":70},{"time":88000,"duration":200,"noteNumber":49,"velocity":80,"programNumber":70},{"time":88200,"duration":200,"noteNumber":61,"velocity":80,"programNumber":70},{"time":88400,"duration":200,"noteNumber":62,"velocity":80,"programNumber":70},{"time":88600,"duration":200,"noteNumber":57,"velocity":80,"programNumber":70},{"time":88800,"duration":200,"noteNumber":53,"velocity":80,"programNumber":70},{"time":89000,"duration":200,"noteNumber":50,"velocity":80,"programNumber":70},{"time":89200,"duration":200,"noteNumber":53,"velocity":80,"programNumber":70},{"time":89400,"duration":200,"noteNumber":57,"velocity":80,"programNumber":70},{"time":89600,"duration":200,"noteNumber":50,"velocity":80,"programNumber":70},{"time":89800,"duration":200,"noteNumber":53,"velocity":80,"programNumber":70},{"time":90000,"duration":200,"noteNumber":57,"velocity":80,"programNumber":70},{"time":90200,"duration":200,"noteNumber":62,"velocity":80,"programNumber":70},{"time":90400,"duration":200,"noteNumber":50,"velocity":80,"programNumber":70},{"time":90600,"duration":200,"noteNumber":53,"velocity":80,"programNumber":70},{"time":90800,"duration":200,"noteNumber":57,"velocity":80,"programNumber":70},{"time":91000,"duration":200,"noteNumber":62,"velocity":80,"programNumber":70},{"time":91200,"duration":400,"noteNumber":53,"velocity":80,"programNumber":70},{"time":91600,"duration":800,"noteNumber":53,"velocity":80,"programNumber":70},{"time":91600,"duration":800,"noteNumber":62,"velocity":80,"programNumber":70},{"time":92400,"duration":400,"noteNumber":53,"velocity":80,"programNumber":70},{"time":92400,"duration":400,"noteNumber":62,"velocity":80,"programNumber":70},{"time":92800,"duration":400,"noteNumber":62,"velocity":80,"programNumber":70},{"time":92800,"duration":400,"noteNumber":65,"velocity":80,"programNumber":70},{"time":93200,"duration":400,"noteNumber":58,"velocity":80,"programNumber":70},{"time":93200,"duration":400,"noteNumber":62,"velocity":80,"programNumber":70},{"time":93600,"duration":400,"noteNumber":55,"velocity":80,"programNumber":70},{"time":94000,"duration":400,"noteNumber":52,"velocity":80,"programNumber":70},{"time":93600,"duration":800,"noteNumber":58,"velocity":80,"programNumber":70},{"time":94400,"duration":200,"noteNumber":45,"velocity":80,"programNumber":70},{"time":94600,"duration":200,"noteNumber":57,"velocity":80,"programNumber":70},{"time":94800,"duration":200,"noteNumber":50,"velocity":80,"programNumber":70},{"time":95000,"duration":200,"noteNumber":53,"velocity":80,"programNumber":70},{"time":95200,"duration":200,"noteNumber":57,"velocity":80,"programNumber":70},{"time":95400,"duration":200,"noteNumber":55,"velocity":80,"programNumber":70},{"time":95600,"duration":200,"noteNumber":57,"velocity":80,"programNumber":70},{"time":95800,"duration":200,"noteNumber":45,"velocity":80,"programNumber":70},{"time":96000,"duration":200,"noteNumber":50,"velocity":80,"programNumber":70},{"time":96200,"duration":200,"noteNumber":53,"velocity":80,"programNumber":70},{"time":96400,"duration":200,"noteNumber":57,"velocity":80,"programNumber":70},{"time":96600,"duration":200,"noteNumber":62,"velocity":80,"programNumber":70},{"time":96800,"duration":200,"noteNumber":50,"velocity":80,"programNumber":70},{"time":97000,"duration":200,"noteNumber":53,"velocity":80,"programNumber":70},{"time":97200,"duration":200,"noteNumber":57,"velocity":80,"programNumber":70},{"time":97400,"duration":200,"noteNumber":62,"velocity":80,"programNumber":70},{"time":97600,"duration":400,"noteNumber":46,"velocity":80,"programNumber":70},{"time":98000,"duration":800,"noteNumber":58,"velocity":80,"programNumber":70},{"time":98000,"duration":800,"noteNumber":62,"velocity":80,"programNumber":70},{"time":98800,"duration":400,"noteNumber":58,"velocity":80,"programNumber":70},{"time":98800,"duration":400,"noteNumber":62,"velocity":80,"programNumber":70},{"time":99200,"duration":400,"noteNumber":58,"velocity":80,"programNumber":70},{"time":99200,"duration":400,"noteNumber":67,"velocity":80,"programNumber":70},{"time":99600,"duration":400,"noteNumber":55,"velocity":80,"programNumber":70},{"time":99600,"duration":400,"noteNumber":63,"velocity":80,"programNumber":70},{"time":100000,"duration":200,"noteNumber":43,"velocity":80,"programNumber":70},{"time":100200,"duration":200,"noteNumber":46,"velocity":80,"programNumber":70},{"time":100400,"duration":200,"noteNumber":51,"velocity":80,"programNumber":70},{"time":100600,"duration":200,"noteNumber":55,"velocity":80,"programNumber":70},{"time":100800,"duration":200,"noteNumber":45,"velocity":80,"programNumber":70},{"time":101000,"duration":200,"noteNumber":57,"velocity":80,"programNumber":70},{"time":101200,"duration":200,"noteNumber":50,"velocity":80,"programNumber":70},{"time":101400,"duration":200,"noteNumber":53,"velocity":80,"programNumber":70},{"time":101600,"duration":200,"noteNumber":57,"velocity":80,"programNumber":70},{"time":101800,"duration":200,"noteNumber":55,"velocity":80,"programNumber":70},{"time":102000,"duration":200,"noteNumber":57,"velocity":80,"programNumber":70},{"time":102200,"duration":200,"noteNumber":45,"velocity":80,"programNumber":70},{"time":102400,"duration":400,"noteNumber":50,"velocity":80,"programNumber":70},{"time":103000,"duration":200,"noteNumber":57,"velocity":80,"programNumber":70},{"time":103200,"duration":200,"noteNumber":62,"velocity":80,"programNumber":70},{"time":103400,"duration":200,"noteNumber":65,"velocity":80,"programNumber":70},{"time":103600,"duration":200,"noteNumber":64,"velocity":80,"programNumber":70},{"time":103800,"duration":200,"noteNumber":62,"velocity":80,"programNumber":70},{"time":104000,"duration":200,"noteNumber":61,"velocity":80,"programNumber":70},{"time":104200,"duration":200,"noteNumber":58,"velocity":80,"programNumber":70},{"time":104400,"duration":200,"noteNumber":55,"velocity":80,"programNumber":70},{"time":104600,"duration":200,"noteNumber":53,"velocity":80,"programNumber":70},{"time":104800,"duration":200,"noteNumber":52,"velocity":80,"programNumber":70},{"time":105000,"duration":200,"noteNumber":50,"velocity":80,"programNumber":70},{"time":105200,"duration":200,"noteNumber":49,"velocity":80,"programNumber":70},{"time":105400,"duration":200,"noteNumber":52,"velocity":80,"programNumber":70},{"time":105600,"duration":200,"noteNumber":50,"velocity":80,"programNumber":70},{"time":105800,"duration":200,"noteNumber":53,"velocity":80,"programNumber":70},{"time":106000,"duration":200,"noteNumber":55,"velocity":80,"programNumber":70},{"time":106200,"duration":200,"noteNumber":58,"velocity":80,"programNumber":70},{"time":106400,"duration":200,"noteNumber":57,"velocity":80,"programNumber":70},{"time":106600,"duration":200,"noteNumber":55,"velocity":80,"programNumber":70},{"time":106800,"duration":200,"noteNumber":57,"velocity":80,"programNumber":70},{"time":107000,"duration":200,"noteNumber":45,"velocity":80,"programNumber":70},{"time":107200,"duration":400,"noteNumber":50,"velocity":80,"programNumber":70}],[{"time":33.333333333333336,"duration":400,"noteNumber":62,"velocity":80,"programNumber":57},{"time":33.333333333333336,"duration":400,"noteNumber":74,"velocity":80,"programNumber":57},{"time":800,"duration":400,"noteNumber":62,"velocity":80,"programNumber":57},{"time":800,"duration":400,"noteNumber":74,"velocity":80,"programNumber":57},{"time":2000,"duration":200,"noteNumber":69,"velocity":80,"programNumber":57},{"time":2000,"duration":200,"noteNumber":62,"velocity":80,"programNumber":57},{"time":2200,"duration":200,"noteNumber":69,"velocity":80,"programNumber":57},{"time":2200,"duration":200,"noteNumber":62,"velocity":80,"programNumber":57},{"time":2400,"duration":200,"noteNumber":69,"velocity":80,"programNumber":57},{"time":2400,"duration":200,"noteNumber":62,"velocity":80,"programNumber":57},{"time":2600,"duration":200,"noteNumber":69,"velocity":80,"programNumber":57},{"time":2600,"duration":200,"noteNumber":62,"velocity":80,"programNumber":57},{"time":2800,"duration":200,"noteNumber":69,"velocity":80,"programNumber":57},{"time":2800,"duration":200,"noteNumber":62,"velocity":80,"programNumber":57},{"time":3000,"duration":200,"noteNumber":69,"velocity":80,"programNumber":57},{"time":3000,"duration":200,"noteNumber":62,"velocity":80,"programNumber":57},{"time":3200,"duration":400,"noteNumber":69,"velocity":80,"programNumber":57},{"time":3200,"duration":400,"noteNumber":57,"velocity":80,"programNumber":57},{"time":4000,"duration":400,"noteNumber":69,"velocity":80,"programNumber":57},{"time":4000,"duration":400,"noteNumber":57,"velocity":80,"programNumber":57},{"time":5200,"duration":200,"noteNumber":69,"velocity":80,"programNumber":57},{"time":5200,"duration":200,"noteNumber":62,"velocity":80,"programNumber":57},{"time":5400,"duration":200,"noteNumber":69,"velocity":80,"programNumber":57},{"time":5400,"duration":200,"noteNumber":62,"velocity":80,"programNumber":57},{"time":5600,"duration":200,"noteNumber":69,"velocity":80,"programNumber":57},{"time":5600,"duration":200,"noteNumber":62,"velocity":80,"programNumber":57},{"time":5800,"duration":200,"noteNumber":69,"velocity":80,"programNumber":57},{"time":5800,"duration":200,"noteNumber":62,"velocity":80,"programNumber":57},{"time":6000,"duration":200,"noteNumber":69,"velocity":80,"programNumber":57},{"time":6000,"duration":200,"noteNumber":62,"velocity":80,"programNumber":57},{"time":6200,"duration":200,"noteNumber":69,"velocity":80,"programNumber":57},{"time":6200,"duration":200,"noteNumber":62,"velocity":80,"programNumber":57},{"time":6800,"duration":200,"noteNumber":69,"velocity":80,"programNumber":57},{"time":6800,"duration":200,"noteNumber":62,"velocity":80,"programNumber":57},{"time":7000,"duration":200,"noteNumber":69,"velocity":80,"programNumber":57},{"time":7000,"duration":200,"noteNumber":62,"velocity":80,"programNumber":57},{"time":7200,"duration":400,"noteNumber":69,"velocity":80,"programNumber":57},{"time":7200,"duration":400,"noteNumber":62,"velocity":80,"programNumber":57},{"time":8400,"duration":200,"noteNumber":69,"velocity":80,"programNumber":57},{"time":8400,"duration":200,"noteNumber":62,"velocity":80,"programNumber":57},{"time":8600,"duration":200,"noteNumber":69,"velocity":80,"programNumber":57},{"time":8600,"duration":200,"noteNumber":62,"velocity":80,"programNumber":57},{"time":8800,"duration":400,"noteNumber":69,"velocity":80,"programNumber":57},{"time":8800,"duration":400,"noteNumber":62,"velocity":80,"programNumber":57},{"time":9600,"duration":800,"noteNumber":62,"velocity":80,"programNumber":57},{"time":9600,"duration":800,"noteNumber":74,"velocity":80,"programNumber":57},{"time":10400,"duration":400,"noteNumber":67,"velocity":80,"programNumber":57},{"time":10400,"duration":400,"noteNumber":74,"velocity":80,"programNumber":57},{"time":10800,"duration":400,"noteNumber":62,"velocity":80,"programNumber":57},{"time":10800,"duration":400,"noteNumber":74,"velocity":80,"programNumber":57},{"time":11200,"duration":400,"noteNumber":69,"velocity":80,"programNumber":57},{"time":11200,"duration":400,"noteNumber":57,"velocity":80,"programNumber":57},{"time":11600,"duration":200,"noteNumber":69,"velocity":80,"programNumber":57},{"time":11600,"duration":200,"noteNumber":57,"velocity":80,"programNumber":57},{"time":11800,"duration":200,"noteNumber":69,"velocity":80,"programNumber":57},{"time":11800,"duration":200,"noteNumber":57,"velocity":80,"programNumber":57},{"time":12000,"duration":200,"noteNumber":69,"velocity":80,"programNumber":57},{"time":12200,"duration":200,"noteNumber":69,"velocity":80,"programNumber":57},{"time":12400,"duration":200,"noteNumber":69,"velocity":80,"programNumber":57},{"time":12600,"duration":200,"noteNumber":69,"velocity":80,"programNumber":57},{"time":12800,"duration":400,"noteNumber":69,"velocity":80,"programNumber":57},{"time":12800,"duration":400,"noteNumber":57,"velocity":80,"programNumber":57},{"time":18400,"duration":200,"noteNumber":74,"velocity":80,"programNumber":57},{"time":18400,"duration":200,"noteNumber":62,"velocity":80,"programNumber":57},{"time":18600,"duration":200,"noteNumber":74,"velocity":80,"programNumber":57},{"time":18600,"duration":200,"noteNumber":62,"velocity":80,"programNumber":57},{"time":18800,"duration":200,"noteNumber":74,"velocity":80,"programNumber":57},{"time":18800,"duration":200,"noteNumber":62,"velocity":80,"programNumber":57},{"time":19000,"duration":200,"noteNumber":74,"velocity":80,"programNumber":57},{"time":19000,"duration":200,"noteNumber":62,"velocity":80,"programNumber":57},{"time":19200,"duration":400,"noteNumber":62,"velocity":80,"programNumber":57},{"time":19200,"duration":400,"noteNumber":74,"velocity":80,"programNumber":57},{"time":23200,"duration":200,"noteNumber":74,"velocity":80,"programNumber":57},{"time":23400,"duration":200,"noteNumber":74,"velocity":80,"programNumber":57},{"time":23600,"duration":200,"noteNumber":74,"velocity":80,"programNumber":57},{"time":23800,"duration":200,"noteNumber":74,"velocity":80,"programNumber":57},{"time":24000,"duration":400,"noteNumber":69,"velocity":80,"programNumber":57},{"time":24000,"duration":400,"noteNumber":76,"velocity":80,"programNumber":57},{"time":24800,"duration":400,"noteNumber":62,"velocity":80,"programNumber":57},{"time":24800,"duration":400,"noteNumber":76,"velocity":80,"programNumber":57},{"time":25600,"duration":400,"noteNumber":69,"velocity":80,"programNumber":57},{"time":25600,"duration":400,"noteNumber":76,"velocity":80,"programNumber":57},{"time":26400,"duration":400,"noteNumber":62,"velocity":80,"programNumber":57},{"time":26400,"duration":400,"noteNumber":74,"velocity":80,"programNumber":57},{"time":27200,"duration":400,"noteNumber":74,"velocity":80,"programNumber":57},{"time":27600,"duration":400,"noteNumber":74,"velocity":80,"programNumber":57},{"time":28000,"duration":200,"noteNumber":74,"velocity":80,"programNumber":57},{"time":28200,"duration":200,"noteNumber":74,"velocity":80,"programNumber":57},{"time":28400,"duration":200,"noteNumber":74,"velocity":80,"programNumber":57},{"time":28600,"duration":200,"noteNumber":74,"velocity":80,"programNumber":57},{"time":28800,"duration":400,"noteNumber":69,"velocity":80,"programNumber":57},{"time":28800,"duration":400,"noteNumber":76,"velocity":80,"programNumber":57},{"time":33600,"duration":400,"noteNumber":69,"velocity":80,"programNumber":57},{"time":33600,"duration":400,"noteNumber":76,"velocity":80,"programNumber":57},{"time":34400,"duration":400,"noteNumber":69,"velocity":80,"programNumber":57},{"time":34400,"duration":400,"noteNumber":76,"velocity":80,"programNumber":57},{"time":35200,"duration":1600,"noteNumber":76,"velocity":80,"programNumber":57},{"time":36800,"duration":400,"noteNumber":76,"velocity":80,"programNumber":57},{"time":37600,"duration":400,"noteNumber":76,"velocity":80,"programNumber":57},{"time":38400,"duration":200,"noteNumber":69,"velocity":80,"programNumber":57},{"time":38600,"duration":100,"noteNumber":69,"velocity":80,"programNumber":57},{"time":38700,"duration":100,"noteNumber":69,"velocity":80,"programNumber":57},{"time":38800,"duration":200,"noteNumber":69,"velocity":80,"programNumber":57},{"time":39000,"duration":200,"noteNumber":69,"velocity":80,"programNumber":57},{"time":39200,"duration":200,"noteNumber":69,"velocity":80,"programNumber":57},{"time":39400,"duration":200,"noteNumber":69,"velocity":80,"programNumber":57},{"time":39600,"duration":200,"noteNumber":69,"velocity":80,"programNumber":57},{"time":39800,"duration":200,"noteNumber":69,"velocity":80,"programNumber":57},{"time":40000,"duration":400,"noteNumber":69,"velocity":80,"programNumber":57},{"time":40000,"duration":400,"noteNumber":62,"velocity":80,"programNumber":57},{"time":40400,"duration":200,"noteNumber":69,"velocity":80,"programNumber":57},{"time":40400,"duration":200,"noteNumber":57,"velocity":80,"programNumber":57},{"time":40600,"duration":200,"noteNumber":69,"velocity":80,"programNumber":57},{"time":40600,"duration":200,"noteNumber":57,"velocity":80,"programNumber":57},{"time":40800,"duration":400,"noteNumber":69,"velocity":80,"programNumber":57},{"time":40800,"duration":400,"noteNumber":57,"velocity":80,"programNumber":57},{"time":42000,"duration":200,"noteNumber":69,"velocity":80,"programNumber":57},{"time":42000,"duration":200,"noteNumber":57,"velocity":80,"programNumber":57},{"time":42200,"duration":200,"noteNumber":69,"velocity":80,"programNumber":57},{"time":42200,"duration":200,"noteNumber":57,"velocity":80,"programNumber":57},{"time":42400,"duration":400,"noteNumber":69,"velocity":80,"programNumber":57},{"time":42400,"duration":400,"noteNumber":57,"velocity":80,"programNumber":57},{"time":62400,"duration":200,"noteNumber":69,"velocity":80,"programNumber":57},{"time":62400,"duration":200,"noteNumber":57,"velocity":80,"programNumber":57},{"time":62600,"duration":100,"noteNumber":69,"velocity":80,"programNumber":57},{"time":62600,"duration":100,"noteNumber":57,"velocity":80,"programNumber":57},{"time":62700,"duration":100,"noteNumber":69,"velocity":80,"programNumber":57},{"time":62700,"duration":100,"noteNumber":57,"velocity":80,"programNumber":57},{"time":62800,"duration":200,"noteNumber":69,"velocity":80,"programNumber":57},{"time":62800,"duration":200,"noteNumber":57,"velocity":80,"programNumber":57},{"time":63000,"duration":200,"noteNumber":69,"velocity":80,"programNumber":57},{"time":63000,"duration":200,"noteNumber":57,"velocity":80,"programNumber":57},{"time":63200,"duration":400,"noteNumber":69,"velocity":80,"programNumber":57},{"time":63200,"duration":400,"noteNumber":57,"velocity":80,"programNumber":57},{"time":69600,"duration":400,"noteNumber":69,"velocity":80,"programNumber":57},{"time":69600,"duration":400,"noteNumber":57,"velocity":80,"programNumber":57},{"time":76000,"duration":400,"noteNumber":69,"velocity":80,"programNumber":57},{"time":76000,"duration":400,"noteNumber":57,"velocity":80,"programNumber":57},{"time":79200,"duration":800,"noteNumber":62,"velocity":80,"programNumber":57},{"time":79200,"duration":800,"noteNumber":74,"velocity":80,"programNumber":57},{"time":81600,"duration":200,"noteNumber":69,"velocity":80,"programNumber":57},{"time":81600,"duration":200,"noteNumber":57,"velocity":80,"programNumber":57},{"time":81800,"duration":100,"noteNumber":69,"velocity":80,"programNumber":57},{"time":81800,"duration":100,"noteNumber":57,"velocity":80,"programNumber":57},{"time":81900,"duration":100,"noteNumber":69,"velocity":80,"programNumber":57},{"time":81900,"duration":100,"noteNumber":57,"velocity":80,"programNumber":57},{"time":82000,"duration":200,"noteNumber":69,"velocity":80,"programNumber":57},{"time":82000,"duration":200,"noteNumber":57,"velocity":80,"programNumber":57},{"time":82200,"duration":200,"noteNumber":69,"velocity":80,"programNumber":57},{"time":82200,"duration":200,"noteNumber":57,"velocity":80,"programNumber":57},{"time":82400,"duration":200,"noteNumber":69,"velocity":80,"programNumber":57},{"time":82400,"duration":200,"noteNumber":57,"velocity":80,"programNumber":57},{"time":82600,"duration":200,"noteNumber":69,"velocity":80,"programNumber":57},{"time":82600,"duration":200,"noteNumber":57,"velocity":80,"programNumber":57},{"time":82800,"duration":200,"noteNumber":69,"velocity":80,"programNumber":57},{"time":82800,"duration":200,"noteNumber":57,"velocity":80,"programNumber":57},{"time":83000,"duration":200,"noteNumber":69,"velocity":80,"programNumber":57},{"time":83000,"duration":200,"noteNumber":57,"velocity":80,"programNumber":57},{"time":83200,"duration":200,"noteNumber":69,"velocity":80,"programNumber":57},{"time":83200,"duration":200,"noteNumber":62,"velocity":80,"programNumber":57},{"time":83400,"duration":200,"noteNumber":69,"velocity":80,"programNumber":57},{"time":83400,"duration":200,"noteNumber":62,"velocity":80,"programNumber":57},{"time":83600,"duration":200,"noteNumber":69,"velocity":80,"programNumber":57},{"time":83600,"duration":200,"noteNumber":57,"velocity":80,"programNumber":57},{"time":83800,"duration":200,"noteNumber":69,"velocity":80,"programNumber":57},{"time":83800,"duration":200,"noteNumber":57,"velocity":80,"programNumber":57},{"time":84000,"duration":200,"noteNumber":69,"velocity":80,"programNumber":57},{"time":84000,"duration":200,"noteNumber":62,"velocity":80,"programNumber":57},{"time":84200,"duration":200,"noteNumber":69,"velocity":80,"programNumber":57},{"time":84200,"duration":200,"noteNumber":62,"velocity":80,"programNumber":57},{"time":84400,"duration":200,"noteNumber":69,"velocity":80,"programNumber":57},{"time":84400,"duration":200,"noteNumber":57,"velocity":80,"programNumber":57},{"time":84600,"duration":200,"noteNumber":69,"velocity":80,"programNumber":57},{"time":84600,"duration":200,"noteNumber":57,"velocity":80,"programNumber":57},{"time":84800,"duration":400,"noteNumber":69,"velocity":80,"programNumber":57},{"time":84800,"duration":400,"noteNumber":62,"velocity":80,"programNumber":57},{"time":85200,"duration":200,"noteNumber":69,"velocity":80,"programNumber":57},{"time":85200,"duration":200,"noteNumber":57,"velocity":80,"programNumber":57},{"time":85400,"duration":200,"noteNumber":69,"velocity":80,"programNumber":57},{"time":85400,"duration":200,"noteNumber":57,"velocity":80,"programNumber":57},{"time":85600,"duration":400,"noteNumber":69,"velocity":80,"programNumber":57},{"time":85600,"duration":400,"noteNumber":57,"velocity":80,"programNumber":57},{"time":86000,"duration":200,"noteNumber":69,"velocity":80,"programNumber":57},{"time":86000,"duration":200,"noteNumber":62,"velocity":80,"programNumber":57},{"time":86200,"duration":200,"noteNumber":69,"velocity":80,"programNumber":57},{"time":86200,"duration":200,"noteNumber":62,"velocity":80,"programNumber":57},{"time":86400,"duration":200,"noteNumber":69,"velocity":80,"programNumber":57},{"time":86400,"duration":200,"noteNumber":57,"velocity":80,"programNumber":57},{"time":86600,"duration":200,"noteNumber":69,"velocity":80,"programNumber":57},{"time":86600,"duration":200,"noteNumber":57,"velocity":80,"programNumber":57},{"time":86800,"duration":200,"noteNumber":69,"velocity":80,"programNumber":57},{"time":86800,"duration":200,"noteNumber":62,"velocity":80,"programNumber":57},{"time":87000,"duration":200,"noteNumber":69,"velocity":80,"programNumber":57},{"time":87000,"duration":200,"noteNumber":62,"velocity":80,"programNumber":57},{"time":87200,"duration":200,"noteNumber":69,"velocity":80,"programNumber":57},{"time":87200,"duration":200,"noteNumber":57,"velocity":80,"programNumber":57},{"time":87400,"duration":200,"noteNumber":69,"velocity":80,"programNumber":57},{"time":87400,"duration":200,"noteNumber":57,"velocity":80,"programNumber":57},{"time":87600,"duration":200,"noteNumber":69,"velocity":80,"programNumber":57},{"time":87600,"duration":200,"noteNumber":62,"velocity":80,"programNumber":57},{"time":87800,"duration":200,"noteNumber":69,"velocity":80,"programNumber":57},{"time":87800,"duration":200,"noteNumber":62,"velocity":80,"programNumber":57},{"time":88000,"duration":400,"noteNumber":69,"velocity":80,"programNumber":57},{"time":88000,"duration":400,"noteNumber":57,"velocity":80,"programNumber":57},{"time":88400,"duration":400,"noteNumber":69,"velocity":80,"programNumber":57},{"time":88400,"duration":400,"noteNumber":62,"velocity":80,"programNumber":57},{"time":89600,"duration":400,"noteNumber":62,"velocity":80,"programNumber":57},{"time":89600,"duration":400,"noteNumber":74,"velocity":80,"programNumber":57},{"time":91200,"duration":400,"noteNumber":62,"velocity":80,"programNumber":57},{"time":91200,"duration":400,"noteNumber":74,"velocity":80,"programNumber":57},{"time":92800,"duration":400,"noteNumber":62,"velocity":80,"programNumber":57},{"time":92800,"duration":400,"noteNumber":74,"velocity":80,"programNumber":57},{"time":94400,"duration":400,"noteNumber":69,"velocity":80,"programNumber":57},{"time":94400,"duration":400,"noteNumber":76,"velocity":80,"programNumber":57},{"time":94800,"duration":400,"noteNumber":62,"velocity":80,"programNumber":57},{"time":94800,"duration":400,"noteNumber":74,"velocity":80,"programNumber":57},{"time":95200,"duration":800,"noteNumber":69,"velocity":80,"programNumber":57},{"time":95200,"duration":800,"noteNumber":57,"velocity":80,"programNumber":57},{"time":96000,"duration":400,"noteNumber":62,"velocity":80,"programNumber":57},{"time":96000,"duration":400,"noteNumber":74,"velocity":80,"programNumber":57},{"time":97600,"duration":400,"noteNumber":62,"velocity":80,"programNumber":57},{"time":97600,"duration":400,"noteNumber":74,"velocity":80,"programNumber":57},{"time":100800,"duration":400,"noteNumber":69,"velocity":80,"programNumber":57},{"time":100800,"duration":400,"noteNumber":57,"velocity":80,"programNumber":57},{"time":101200,"duration":200,"noteNumber":69,"velocity":80,"programNumber":57},{"time":101200,"duration":200,"noteNumber":62,"velocity":80,"programNumber":57},{"time":101400,"duration":200,"noteNumber":69,"velocity":80,"programNumber":57},{"time":101400,"duration":200,"noteNumber":62,"velocity":80,"programNumber":57},{"time":101600,"duration":400,"noteNumber":69,"velocity":80,"programNumber":57},{"time":101600,"duration":400,"noteNumber":57,"velocity":80,"programNumber":57},{"time":102000,"duration":200,"noteNumber":69,"velocity":80,"programNumber":57},{"time":102000,"duration":200,"noteNumber":57,"velocity":80,"programNumber":57},{"time":102200,"duration":200,"noteNumber":69,"velocity":80,"programNumber":57},{"time":102200,"duration":200,"noteNumber":57,"velocity":80,"programNumber":57},{"time":102400,"duration":400,"noteNumber":69,"velocity":80,"programNumber":57},{"time":102400,"duration":400,"noteNumber":62,"velocity":80,"programNumber":57},{"time":105600,"duration":400,"noteNumber":62,"velocity":80,"programNumber":57},{"time":105600,"duration":400,"noteNumber":74,"velocity":80,"programNumber":57},{"time":106400,"duration":400,"noteNumber":69,"velocity":80,"programNumber":57},{"time":106400,"duration":400,"noteNumber":57,"velocity":80,"programNumber":57},{"time":106800,"duration":200,"noteNumber":69,"velocity":80,"programNumber":57},{"time":106800,"duration":200,"noteNumber":57,"velocity":80,"programNumber":57},{"time":107000,"duration":200,"noteNumber":69,"velocity":80,"programNumber":57},{"time":107000,"duration":200,"noteNumber":57,"velocity":80,"programNumber":57},{"time":107200,"duration":400,"noteNumber":69,"velocity":80,"programNumber":57},{"time":107200,"duration":400,"noteNumber":62,"velocity":80,"programNumber":57}],[{"time":33.333333333333336,"duration":400,"noteNumber":50,"velocity":80,"programNumber":47},{"time":800,"duration":400,"noteNumber":50,"velocity":80,"programNumber":47},{"time":2000,"duration":200,"noteNumber":50,"velocity":80,"programNumber":47},{"time":2200,"duration":200,"noteNumber":50,"velocity":80,"programNumber":47},{"time":2400,"duration":200,"noteNumber":50,"velocity":80,"programNumber":47},{"time":2600,"duration":200,"noteNumber":50,"velocity":80,"programNumber":47},{"time":2800,"duration":200,"noteNumber":50,"velocity":80,"programNumber":47},{"time":3000,"duration":200,"noteNumber":50,"velocity":80,"programNumber":47},{"time":3200,"duration":400,"noteNumber":45,"velocity":80,"programNumber":47},{"time":4000,"duration":400,"noteNumber":45,"velocity":80,"programNumber":47},{"time":5200,"duration":200,"noteNumber":50,"velocity":80,"programNumber":47},{"time":5400,"duration":200,"noteNumber":50,"velocity":80,"programNumber":47},{"time":5600,"duration":200,"noteNumber":50,"velocity":80,"programNumber":47},{"time":5800,"duration":200,"noteNumber":50,"velocity":80,"programNumber":47},{"time":6000,"duration":200,"noteNumber":50,"velocity":80,"programNumber":47},{"time":6200,"duration":200,"noteNumber":50,"velocity":80,"programNumber":47},{"time":6800,"duration":200,"noteNumber":50,"velocity":80,"programNumber":47},{"time":7000,"duration":200,"noteNumber":50,"velocity":80,"programNumber":47},{"time":7200,"duration":400,"noteNumber":50,"velocity":80,"programNumber":47},{"time":8400,"duration":200,"noteNumber":50,"velocity":80,"programNumber":47},{"time":8600,"duration":200,"noteNumber":50,"velocity":80,"programNumber":47},{"time":8800,"duration":400,"noteNumber":50,"velocity":80,"programNumber":47},{"time":9600,"duration":200,"noteNumber":50,"velocity":80,"programNumber":47},{"time":9800,"duration":200,"noteNumber":50,"velocity":80,"programNumber":47},{"time":10000,"duration":200,"noteNumber":50,"velocity":80,"programNumber":47},{"time":10200,"duration":200,"noteNumber":50,"velocity":80,"programNumber":47},{"time":10400,"duration":400,"noteNumber":45,"velocity":80,"programNumber":47},{"time":10800,"duration":400,"noteNumber":50,"velocity":80,"programNumber":47},{"time":11200,"duration":200,"noteNumber":45,"velocity":80,"programNumber":47},{"time":11400,"duration":100,"noteNumber":45,"velocity":80,"programNumber":47},{"time":11500,"duration":100,"noteNumber":45,"velocity":80,"programNumber":47},{"time":11600,"duration":200,"noteNumber":45,"velocity":80,"programNumber":47},{"time":11800,"duration":200,"noteNumber":45,"velocity":80,"programNumber":47},{"time":12000,"duration":200,"noteNumber":45,"velocity":80,"programNumber":47},{"time":12200,"duration":200,"noteNumber":45,"velocity":80,"programNumber":47},{"time":12400,"duration":200,"noteNumber":45,"velocity":80,"programNumber":47},{"time":12600,"duration":200,"noteNumber":45,"velocity":80,"programNumber":47},{"time":12800,"duration":400,"noteNumber":45,"velocity":80,"programNumber":47},{"time":18400,"duration":200,"noteNumber":50,"velocity":80,"programNumber":47},{"time":18600,"duration":200,"noteNumber":50,"velocity":80,"programNumber":47},{"time":18800,"duration":200,"noteNumber":50,"velocity":80,"programNumber":47},{"time":19000,"duration":200,"noteNumber":50,"velocity":80,"programNumber":47},{"time":19200,"duration":400,"noteNumber":50,"velocity":80,"programNumber":47},{"time":24000,"duration":400,"noteNumber":45,"velocity":80,"programNumber":47},{"time":24800,"duration":400,"noteNumber":50,"velocity":80,"programNumber":47},{"time":25600,"duration":400,"noteNumber":45,"velocity":80,"programNumber":47},{"time":26400,"duration":400,"noteNumber":50,"velocity":80,"programNumber":47},{"time":28800,"duration":400,"noteNumber":45,"velocity":80,"programNumber":47},{"time":33600,"duration":400,"noteNumber":45,"velocity":80,"programNumber":47},{"time":34400,"duration":400,"noteNumber":45,"velocity":80,"programNumber":47},{"time":35200,"duration":200,"noteNumber":45,"velocity":80,"programNumber":47},{"time":35400,"duration":100,"noteNumber":45,"velocity":80,"programNumber":47},{"time":35500,"duration":100,"noteNumber":45,"velocity":80,"programNumber":47},{"time":35600,"duration":200,"noteNumber":45,"velocity":80,"programNumber":47},{"time":35800,"duration":200,"noteNumber":45,"velocity":80,"programNumber":47},{"time":36000,"duration":200,"noteNumber":45,"velocity":80,"programNumber":47},{"time":36200,"duration":200,"noteNumber":45,"velocity":80,"programNumber":47},{"time":36400,"duration":200,"noteNumber":45,"velocity":80,"programNumber":47},{"time":36600,"duration":200,"noteNumber":45,"velocity":80,"programNumber":47},{"time":36800,"duration":400,"noteNumber":45,"velocity":80,"programNumber":47},{"time":38400,"duration":200,"noteNumber":45,"velocity":80,"programNumber":47},{"time":38600,"duration":100,"noteNumber":45,"velocity":80,"programNumber":47},{"time":38700,"duration":100,"noteNumber":45,"velocity":80,"programNumber":47},{"time":38800,"duration":200,"noteNumber":45,"velocity":80,"programNumber":47},{"time":39000,"duration":200,"noteNumber":45,"velocity":80,"programNumber":47},{"time":39200,"duration":200,"noteNumber":45,"velocity":80,"programNumber":47},{"time":39400,"duration":200,"noteNumber":45,"velocity":80,"programNumber":47},{"time":39600,"duration":200,"noteNumber":45,"velocity":80,"programNumber":47},{"time":39800,"duration":200,"noteNumber":45,"velocity":80,"programNumber":47},{"time":40000,"duration":400,"noteNumber":50,"velocity":80,"programNumber":47},{"time":40400,"duration":200,"noteNumber":45,"velocity":80,"programNumber":47},{"time":40600,"duration":200,"noteNumber":45,"velocity":80,"programNumber":47},{"time":40800,"duration":200,"noteNumber":45,"velocity":80,"programNumber":47},{"time":42000,"duration":200,"noteNumber":45,"velocity":80,"programNumber":47},{"time":42200,"duration":200,"noteNumber":45,"velocity":80,"programNumber":47},{"time":42400,"duration":400,"noteNumber":45,"velocity":80,"programNumber":47},{"time":62400,"duration":200,"noteNumber":45,"velocity":80,"programNumber":47},{"time":62600,"duration":100,"noteNumber":45,"velocity":80,"programNumber":47},{"time":62700,"duration":100,"noteNumber":45,"velocity":80,"programNumber":47},{"time":62800,"duration":200,"noteNumber":45,"velocity":80,"programNumber":47},{"time":63000,"duration":200,"noteNumber":45,"velocity":80,"programNumber":47},{"time":63200,"duration":400,"noteNumber":45,"velocity":80,"programNumber":47},{"time":69600,"duration":400,"noteNumber":45,"velocity":80,"programNumber":47},{"time":76000,"duration":400,"noteNumber":45,"velocity":80,"programNumber":47},{"time":79200,"duration":200,"noteNumber":50,"velocity":80,"programNumber":47},{"time":79400,"duration":100,"noteNumber":50,"velocity":80,"programNumber":47},{"time":79500,"duration":100,"noteNumber":50,"velocity":80,"programNumber":47},{"time":79600,"duration":200,"noteNumber":50,"velocity":80,"programNumber":47},{"time":79800,"duration":200,"noteNumber":50,"velocity":80,"programNumber":47},{"time":81600,"duration":200,"noteNumber":45,"velocity":80,"programNumber":47},{"time":81800,"duration":100,"noteNumber":45,"velocity":80,"programNumber":47},{"time":81900,"duration":100,"noteNumber":45,"velocity":80,"programNumber":47},{"time":82000,"duration":200,"noteNumber":45,"velocity":80,"programNumber":47},{"time":82200,"duration":200,"noteNumber":45,"velocity":80,"programNumber":47},{"time":82400,"duration":200,"noteNumber":45,"velocity":80,"programNumber":47},{"time":82600,"duration":200,"noteNumber":45,"velocity":80,"programNumber":47},{"time":82800,"duration":200,"noteNumber":45,"velocity":80,"programNumber":47},{"time":83000,"duration":200,"noteNumber":45,"velocity":80,"programNumber":47},{"time":83200,"duration":400,"noteNumber":45,"velocity":80,"programNumber":47},{"time":83600,"duration":400,"noteNumber":50,"velocity":80,"programNumber":47},{"time":84000,"duration":400,"noteNumber":45,"velocity":80,"programNumber":47},{"time":84400,"duration":400,"noteNumber":50,"velocity":80,"programNumber":47},{"time":84800,"duration":400,"noteNumber":50,"velocity":80,"programNumber":47},{"time":85200,"duration":200,"noteNumber":45,"velocity":80,"programNumber":47},{"time":85400,"duration":200,"noteNumber":45,"velocity":80,"programNumber":47},{"time":85600,"duration":400,"noteNumber":45,"velocity":80,"programNumber":47},{"time":86000,"duration":400,"noteNumber":50,"velocity":80,"programNumber":47},{"time":86400,"duration":400,"noteNumber":45,"velocity":80,"programNumber":47},{"time":86800,"duration":400,"noteNumber":50,"velocity":80,"programNumber":47},{"time":87200,"duration":400,"noteNumber":45,"velocity":80,"programNumber":47},{"time":87600,"duration":400,"noteNumber":50,"velocity":80,"programNumber":47},{"time":88000,"duration":400,"noteNumber":45,"velocity":80,"programNumber":47},{"time":88400,"duration":400,"noteNumber":50,"velocity":80,"programNumber":47},{"time":89600,"duration":400,"noteNumber":50,"velocity":80,"programNumber":47},{"time":91200,"duration":400,"noteNumber":50,"velocity":80,"programNumber":47},{"time":92800,"duration":400,"noteNumber":50,"velocity":80,"programNumber":47},{"time":94400,"duration":400,"noteNumber":45,"velocity":80,"programNumber":47},{"time":94800,"duration":200,"noteNumber":50,"velocity":80,"programNumber":47},{"time":95000,"duration":200,"noteNumber":50,"velocity":80,"programNumber":47},{"time":95200,"duration":400,"noteNumber":45,"velocity":80,"programNumber":47},{"time":95600,"duration":200,"noteNumber":45,"velocity":80,"programNumber":47},{"time":95800,"duration":200,"noteNumber":45,"velocity":80,"programNumber":47},{"time":96000,"duration":400,"noteNumber":50,"velocity":80,"programNumber":47},{"time":97600,"duration":400,"noteNumber":50,"velocity":80,"programNumber":47},{"time":100800,"duration":400,"noteNumber":45,"velocity":80,"programNumber":47},{"time":101200,"duration":200,"noteNumber":50,"velocity":80,"programNumber":47},{"time":101400,"duration":200,"noteNumber":50,"velocity":80,"programNumber":47},{"time":101600,"duration":400,"noteNumber":45,"velocity":80,"programNumber":47},{"time":102000,"duration":200,"noteNumber":45,"velocity":80,"programNumber":47},{"time":102200,"duration":200,"noteNumber":45,"velocity":80,"programNumber":47},{"time":102400,"duration":400,"noteNumber":50,"velocity":80,"programNumber":47},{"time":105600,"duration":400,"noteNumber":50,"velocity":80,"programNumber":47},{"time":106400,"duration":400,"noteNumber":45,"velocity":80,"programNumber":47},{"time":106800,"duration":200,"noteNumber":45,"velocity":80,"programNumber":47},{"time":107000,"duration":200,"noteNumber":45,"velocity":80,"programNumber":47},{"time":107200,"duration":400,"noteNumber":50,"velocity":80,"programNumber":47}],[{"time":33.333333333333336,"duration":99.99999999999997,"noteNumber":74,"velocity":90,"programNumber":48},{"time":100,"duration":99.99999999999997,"noteNumber":69,"velocity":90,"programNumber":48},{"time":199.99999999999997,"duration":100.00000000000003,"noteNumber":69,"velocity":90,"programNumber":48},{"time":300,"duration":100,"noteNumber":69,"velocity":90,"programNumber":48},{"time":400,"duration":100,"noteNumber":69,"velocity":90,"programNumber":48},{"time":500,"duration":100,"noteNumber":69,"velocity":90,"programNumber":48},{"time":600,"duration":100,"noteNumber":69,"velocity":90,"programNumber":48},{"time":700,"duration":100,"noteNumber":69,"velocity":90,"programNumber":48},{"time":800,"duration":100,"noteNumber":74,"velocity":90,"programNumber":48},{"time":900,"duration":100,"noteNumber":69,"velocity":90,"programNumber":48},{"time":1000,"duration":100,"noteNumber":69,"velocity":90,"programNumber":48},{"time":1100,"duration":100,"noteNumber":69,"velocity":90,"programNumber":48},{"time":1200,"duration":100,"noteNumber":69,"velocity":90,"programNumber":48},{"time":1300,"duration":100,"noteNumber":69,"velocity":90,"programNumber":48},{"time":1400,"duration":100,"noteNumber":69,"velocity":90,"programNumber":48},{"time":1500,"duration":100,"noteNumber":69,"velocity":90,"programNumber":48},{"time":1600,"duration":200,"noteNumber":76,"velocity":90,"programNumber":48},{"time":1800,"duration":400,"noteNumber":69,"velocity":90,"programNumber":48},{"time":2200,"duration":400,"noteNumber":69,"velocity":90,"programNumber":48},{"time":2600,"duration":400,"noteNumber":69,"velocity":90,"programNumber":48},{"time":3000,"duration":200,"noteNumber":69,"velocity":90,"programNumber":48},{"time":3200,"duration":100,"noteNumber":67,"velocity":90,"programNumber":48},{"time":3300,"duration":100,"noteNumber":67,"velocity":90,"programNumber":48},{"time":3400,"duration":100,"noteNumber":67,"velocity":90,"programNumber":48},{"time":3500,"duration":100,"noteNumber":67,"velocity":90,"programNumber":48},{"time":3600,"duration":100,"noteNumber":67,"velocity":90,"programNumber":48},{"time":3700,"duration":100,"noteNumber":67,"velocity":90,"programNumber":48},{"time":3800,"duration":100,"noteNumber":67,"velocity":90,"programNumber":48},{"time":3900,"duration":100,"noteNumber":67,"velocity":90,"programNumber":48},{"time":4000,"duration":100,"noteNumber":67,"velocity":90,"programNumber":48},{"time":4100,"duration":100,"noteNumber":67,"velocity":90,"programNumber":48},{"time":4200,"duration":100,"noteNumber":67,"velocity":90,"programNumber":48},{"time":4300,"duration":100,"noteNumber":67,"velocity":90,"programNumber":48},{"time":4400,"duration":100,"noteNumber":67,"velocity":90,"programNumber":48},{"time":4500,"duration":100,"noteNumber":67,"velocity":90,"programNumber":48},{"time":4600,"duration":100,"noteNumber":67,"velocity":90,"programNumber":48},{"time":4700,"duration":100,"noteNumber":67,"velocity":90,"programNumber":48},{"time":4800,"duration":200,"noteNumber":77,"velocity":90,"programNumber":48},{"time":5000,"duration":400,"noteNumber":69,"velocity":90,"programNumber":48},{"time":5400,"duration":400,"noteNumber":69,"velocity":90,"programNumber":48},{"time":5800,"duration":200,"noteNumber":69,"velocity":90,"programNumber":48},{"time":6000,"duration":200,"noteNumber":74,"velocity":90,"programNumber":48},{"time":6200,"duration":200,"noteNumber":74,"velocity":90,"programNumber":48},{"time":6400,"duration":400,"noteNumber":73,"velocity":90,"programNumber":48},{"time":6800,"duration":100,"noteNumber":74,"velocity":90,"programNumber":48},{"time":6900,"duration":100,"noteNumber":69,"velocity":90,"programNumber":48},{"time":7000,"duration":100,"noteNumber":74,"velocity":90,"programNumber":48},{"time":7100,"duration":100,"noteNumber":77,"velocity":90,"programNumber":48},{"time":7200,"duration":200,"noteNumber":81,"velocity":90,"programNumber":48},{"time":7400,"duration":400,"noteNumber":81,"velocity":90,"programNumber":48},{"time":7800,"duration":600,"noteNumber":81,"velocity":90,"programNumber":48},{"time":8400,"duration":100,"noteNumber":77,"velocity":90,"programNumber":48},{"time":8500,"duration":100,"noteNumber":74,"velocity":90,"programNumber":48},{"time":8600,"duration":100,"noteNumber":77,"velocity":90,"programNumber":48},{"time":8700,"duration":100,"noteNumber":81,"velocity":90,"programNumber":48},{"time":8800,"duration":200,"noteNumber":86,"velocity":90,"programNumber":48},{"time":9000,"duration":400,"noteNumber":86,"velocity":90,"programNumber":48},{"time":9400,"duration":200,"noteNumber":86,"velocity":90,"programNumber":48},{"time":9600,"duration":200,"noteNumber":86,"velocity":90,"programNumber":48},{"time":9800,"duration":100,"noteNumber":79,"velocity":90,"programNumber":48},{"time":9900,"duration":100,"noteNumber":79,"velocity":90,"programNumber":48},{"time":10000,"duration":100,"noteNumber":77,"velocity":90,"programNumber":48},{"time":10100,"duration":100,"noteNumber":77,"velocity":90,"programNumber":48},{"time":10200,"duration":100,"noteNumber":86,"velocity":90,"programNumber":48},{"time":10300,"duration":100,"noteNumber":86,"velocity":90,"programNumber":48},{"time":10400,"duration":100,"noteNumber":76,"velocity":90,"programNumber":48},{"time":10500,"duration":100,"noteNumber":76,"velocity":90,"programNumber":48},{"time":10600,"duration":100,"noteNumber":85,"velocity":90,"programNumber":48},{"time":10700,"duration":100,"noteNumber":85,"velocity":90,"programNumber":48},{"time":10800,"duration":100,"noteNumber":86,"velocity":90,"programNumber":48},{"time":10900,"duration":100,"noteNumber":86,"velocity":90,"programNumber":48},{"time":11000,"duration":100,"noteNumber":77,"velocity":90,"programNumber":48},{"time":11100,"duration":100,"noteNumber":77,"velocity":90,"programNumber":48},{"time":11200,"duration":300,"noteNumber":77,"velocity":90,"programNumber":48},{"time":11500,"duration":50,"noteNumber":76,"velocity":90,"programNumber":48},{"time":11550,"duration":50,"noteNumber":77,"velocity":90,"programNumber":48},{"time":11600,"duration":200,"noteNumber":76,"velocity":90,"programNumber":48},{"time":11800,"duration":200,"noteNumber":81,"velocity":90,"programNumber":48},{"time":12000,"duration":200,"noteNumber":69,"velocity":90,"programNumber":48},{"time":12200,"duration":400,"noteNumber":69,"velocity":90,"programNumber":48},{"time":12600,"duration":400,"noteNumber":69,"velocity":90,"programNumber":48},{"time":13000,"duration":100,"noteNumber":69,"velocity":90,"programNumber":48},{"time":13100,"duration":100,"noteNumber":69,"velocity":90,"programNumber":48},{"time":13200,"duration":100,"noteNumber":70,"velocity":90,"programNumber":48},{"time":13300,"duration":100,"noteNumber":70,"velocity":90,"programNumber":48},{"time":13400,"duration":100,"noteNumber":71,"velocity":90,"programNumber":48},{"time":13500,"duration":100,"noteNumber":71,"velocity":90,"programNumber":48},{"time":13600,"duration":100,"noteNumber":72,"velocity":90,"programNumber":48},{"time":13700,"duration":100,"noteNumber":72,"velocity":90,"programNumber":48},{"time":13800,"duration":100,"noteNumber":73,"velocity":90,"programNumber":48},{"time":13900,"duration":100,"noteNumber":73,"velocity":90,"programNumber":48},{"time":14000,"duration":100,"noteNumber":74,"velocity":90,"programNumber":48},{"time":14100,"duration":100,"noteNumber":74,"velocity":90,"programNumber":48},{"time":14200,"duration":100,"noteNumber":76,"velocity":90,"programNumber":48},{"time":14300,"duration":100,"noteNumber":76,"velocity":90,"programNumber":48},{"time":14400,"duration":100,"noteNumber":77,"velocity":90,"programNumber":48},{"time":14500,"duration":100,"noteNumber":72,"velocity":90,"programNumber":48},{"time":14600,"duration":100,"noteNumber":72,"velocity":90,"programNumber":48},{"time":14700,"duration":100,"noteNumber":72,"velocity":90,"programNumber":48},{"time":14800,"duration":100,"noteNumber":72,"velocity":90,"programNumber":48},{"time":14900,"duration":100,"noteNumber":72,"velocity":90,"programNumber":48},{"time":15000,"duration":100,"noteNumber":72,"velocity":90,"programNumber":48},{"time":15100,"duration":100,"noteNumber":72,"velocity":90,"programNumber":48},{"time":15200,"duration":100,"noteNumber":77,"velocity":90,"programNumber":48},{"time":15300,"duration":100,"noteNumber":72,"velocity":90,"programNumber":48},{"time":15400,"duration":100,"noteNumber":72,"velocity":90,"programNumber":48},{"time":15500,"duration":100,"noteNumber":72,"velocity":90,"programNumber":48},{"time":15600,"duration":100,"noteNumber":72,"velocity":90,"programNumber":48},{"time":15700,"duration":100,"noteNumber":72,"velocity":90,"programNumber":48},{"time":15800,"duration":100,"noteNumber":72,"velocity":90,"programNumber":48},{"time":15900,"duration":100,"noteNumber":72,"velocity":90,"programNumber":48},{"time":16000,"duration":100,"noteNumber":77,"velocity":90,"programNumber":48},{"time":16100,"duration":100,"noteNumber":77,"velocity":90,"programNumber":48},{"time":16200,"duration":100,"noteNumber":77,"velocity":90,"programNumber":48},{"time":16300,"duration":100,"noteNumber":77,"velocity":90,"programNumber":48},{"time":16400,"duration":100,"noteNumber":65,"velocity":90,"programNumber":48},{"time":16500,"duration":100,"noteNumber":65,"velocity":90,"programNumber":48},{"time":16600,"duration":100,"noteNumber":65,"velocity":90,"programNumber":48},{"time":16700,"duration":100,"noteNumber":65,"velocity":90,"programNumber":48},{"time":16800,"duration":100,"noteNumber":69,"velocity":90,"programNumber":48},{"time":16900,"duration":100,"noteNumber":69,"velocity":90,"programNumber":48},{"time":17000,"duration":100,"noteNumber":69,"velocity":90,"programNumber":48},{"time":17100,"duration":100,"noteNumber":69,"velocity":90,"programNumber":48},{"time":17200,"duration":100,"noteNumber":72,"velocity":90,"programNumber":48},{"time":17300,"duration":100,"noteNumber":72,"velocity":90,"programNumber":48},{"time":17400,"duration":100,"noteNumber":72,"velocity":90,"programNumber":48},{"time":17500,"duration":100,"noteNumber":72,"velocity":90,"programNumber":48},{"time":17600,"duration":100,"noteNumber":75,"velocity":90,"programNumber":48},{"time":17700,"duration":100,"noteNumber":72,"velocity":90,"programNumber":48},{"time":17800,"duration":100,"noteNumber":72,"velocity":90,"programNumber":48},{"time":17900,"duration":100,"noteNumber":72,"velocity":90,"programNumber":48},{"time":18000,"duration":100,"noteNumber":72,"velocity":90,"programNumber":48},{"time":18100,"duration":100,"noteNumber":72,"velocity":90,"programNumber":48},{"time":18200,"duration":100,"noteNumber":72,"velocity":90,"programNumber":48},{"time":18300,"duration":100,"noteNumber":72,"velocity":90,"programNumber":48},{"time":18400,"duration":100,"noteNumber":74,"velocity":90,"programNumber":48},{"time":18500,"duration":100,"noteNumber":72,"velocity":90,"programNumber":48},{"time":18600,"duration":100,"noteNumber":72,"velocity":90,"programNumber":48},{"time":18700,"duration":100,"noteNumber":72,"velocity":90,"programNumber":48},{"time":18800,"duration":100,"noteNumber":72,"velocity":90,"programNumber":48},{"time":18900,"duration":100,"noteNumber":72,"velocity":90,"programNumber":48},{"time":19000,"duration":100,"noteNumber":72,"velocity":90,"programNumber":48},{"time":19100,"duration":100,"noteNumber":72,"velocity":90,"programNumber":48},{"time":19200,"duration":100,"noteNumber":79,"velocity":90,"programNumber":48},{"time":19300,"duration":100,"noteNumber":74,"velocity":90,"programNumber":48},{"time":19400,"duration":100,"noteNumber":74,"velocity":90,"programNumber":48},{"time":19500,"duration":100,"noteNumber":74,"velocity":90,"programNumber":48},{"time":19600,"duration":100,"noteNumber":74,"velocity":90,"programNumber":48},{"time":19700,"duration":100,"noteNumber":74,"velocity":90,"programNumber":48},{"time":19800,"duration":100,"noteNumber":74,"velocity":90,"programNumber":48},{"time":19900,"duration":100,"noteNumber":74,"velocity":90,"programNumber":48},{"time":20000,"duration":100,"noteNumber":79,"velocity":90,"programNumber":48},{"time":20100,"duration":100,"noteNumber":74,"velocity":90,"programNumber":48},{"time":20200,"duration":100,"noteNumber":74,"velocity":90,"programNumber":48},{"time":20300,"duration":100,"noteNumber":74,"velocity":90,"programNumber":48},{"time":20400,"duration":100,"noteNumber":74,"velocity":90,"programNumber":48},{"time":20500,"duration":100,"noteNumber":74,"velocity":90,"programNumber":48},{"time":20600,"duration":100,"noteNumber":74,"velocity":90,"programNumber":48},{"time":20700,"duration":100,"noteNumber":74,"velocity":90,"programNumber":48},{"time":20800,"duration":100,"noteNumber":71,"velocity":90,"programNumber":48},{"time":20900,"duration":100,"noteNumber":71,"velocity":90,"programNumber":48},{"time":21000,"duration":100,"noteNumber":71,"velocity":90,"programNumber":48},{"time":21100,"duration":100,"noteNumber":71,"velocity":90,"programNumber":48},{"time":21200,"duration":100,"noteNumber":67,"velocity":90,"programNumber":48},{"time":21300,"duration":100,"noteNumber":67,"velocity":90,"programNumber":48},{"time":21400,"duration":100,"noteNumber":67,"velocity":90,"programNumber":48},{"time":21500,"duration":100,"noteNumber":67,"velocity":90,"programNumber":48},{"time":21600,"duration":100,"noteNumber":71,"velocity":90,"programNumber":48},{"time":21700,"duration":100,"noteNumber":71,"velocity":90,"programNumber":48},{"time":21800,"duration":100,"noteNumber":71,"velocity":90,"programNumber":48},{"time":21900,"duration":100,"noteNumber":71,"velocity":90,"programNumber":48},{"time":22000,"duration":100,"noteNumber":74,"velocity":90,"programNumber":48},{"time":22100,"duration":100,"noteNumber":74,"velocity":90,"programNumber":48},{"time":22200,"duration":100,"noteNumber":74,"velocity":90,"programNumber":48},{"time":22300,"duration":100,"noteNumber":74,"velocity":90,"programNumber":48},{"time":22400,"duration":100,"noteNumber":77,"velocity":90,"programNumber":48},{"time":22500,"duration":100,"noteNumber":74,"velocity":90,"programNumber":48},{"time":22600,"duration":100,"noteNumber":74,"velocity":90,"programNumber":48},{"time":22700,"duration":100,"noteNumber":74,"velocity":90,"programNumber":48},{"time":22800,"duration":100,"noteNumber":74,"velocity":90,"programNumber":48},{"time":22900,"duration":100,"noteNumber":74,"velocity":90,"programNumber":48},{"time":23000,"duration":100,"noteNumber":74,"velocity":90,"programNumber":48},{"time":23100,"duration":100,"noteNumber":74,"velocity":90,"programNumber":48},{"time":23200,"duration":100,"noteNumber":76,"velocity":90,"programNumber":48},{"time":23300,"duration":100,"noteNumber":74,"velocity":90,"programNumber":48},{"time":23400,"duration":100,"noteNumber":74,"velocity":90,"programNumber":48},{"time":23500,"duration":100,"noteNumber":74,"velocity":90,"programNumber":48},{"time":23600,"duration":100,"noteNumber":74,"velocity":90,"programNumber":48},{"time":23700,"duration":100,"noteNumber":74,"velocity":90,"programNumber":48},{"time":23800,"duration":100,"noteNumber":74,"velocity":90,"programNumber":48},{"time":23900,"duration":100,"noteNumber":74,"velocity":90,"programNumber":48},{"time":24000,"duration":100,"noteNumber":81,"velocity":90,"programNumber":48},{"time":24100,"duration":100,"noteNumber":76,"velocity":90,"programNumber":48},{"time":24200,"duration":100,"noteNumber":76,"velocity":90,"programNumber":48},{"time":24300,"duration":100,"noteNumber":76,"velocity":90,"programNumber":48},{"time":24400,"duration":100,"noteNumber":76,"velocity":90,"programNumber":48},{"time":24500,"duration":100,"noteNumber":76,"velocity":90,"programNumber":48},{"time":24600,"duration":100,"noteNumber":76,"velocity":90,"programNumber":48},{"time":24700,"duration":100,"noteNumber":76,"velocity":90,"programNumber":48},{"time":24800,"duration":100,"noteNumber":80,"velocity":90,"programNumber":48},{"time":24900,"duration":100,"noteNumber":76,"velocity":90,"programNumber":48},{"time":25000,"duration":100,"noteNumber":76,"velocity":90,"programNumber":48},{"time":25100,"duration":100,"noteNumber":76,"velocity":90,"programNumber":48},{"time":25200,"duration":100,"noteNumber":76,"velocity":90,"programNumber":48},{"time":25300,"duration":100,"noteNumber":76,"velocity":90,"programNumber":48},{"time":25400,"duration":100,"noteNumber":76,"velocity":90,"programNumber":48},{"time":25500,"duration":100,"noteNumber":76,"velocity":90,"programNumber":48},{"time":25600,"duration":100,"noteNumber":81,"velocity":90,"programNumber":48},{"time":25700,"duration":100,"noteNumber":76,"velocity":90,"programNumber":48},{"time":25800,"duration":100,"noteNumber":76,"velocity":90,"programNumber":48},{"time":25900,"duration":100,"noteNumber":76,"velocity":90,"programNumber":48},{"time":26000,"duration":100,"noteNumber":76,"velocity":90,"programNumber":48},{"time":26100,"duration":100,"noteNumber":76,"velocity":90,"programNumber":48},{"time":26200,"duration":100,"noteNumber":76,"velocity":90,"programNumber":48},{"time":26300,"duration":100,"noteNumber":76,"velocity":90,"programNumber":48},{"time":26400,"duration":100,"noteNumber":77,"velocity":90,"programNumber":48},{"time":26500,"duration":100,"noteNumber":74,"velocity":90,"programNumber":48},{"time":26600,"duration":100,"noteNumber":74,"velocity":90,"programNumber":48},{"time":26700,"duration":100,"noteNumber":74,"velocity":90,"programNumber":48},{"time":26800,"duration":100,"noteNumber":74,"velocity":90,"programNumber":48},{"time":26900,"duration":100,"noteNumber":74,"velocity":90,"programNumber":48},{"time":27000,"duration":100,"noteNumber":74,"velocity":90,"programNumber":48},{"time":27100,"duration":100,"noteNumber":74,"velocity":90,"programNumber":48},{"time":27200,"duration":100,"noteNumber":74,"velocity":90,"programNumber":48},{"time":27300,"duration":100,"noteNumber":74,"velocity":90,"programNumber":48},{"time":27400,"duration":100,"noteNumber":71,"velocity":90,"programNumber":48},{"time":27500,"duration":100,"noteNumber":71,"velocity":90,"programNumber":48},{"time":27600,"duration":100,"noteNumber":72,"velocity":90,"programNumber":48},{"time":27700,"duration":100,"noteNumber":72,"velocity":90,"programNumber":48},{"time":27800,"duration":100,"noteNumber":81,"velocity":90,"programNumber":48},{"time":27900,"duration":100,"noteNumber":81,"velocity":90,"programNumber":48},{"time":28000,"duration":100,"noteNumber":71,"velocity":90,"programNumber":48},{"time":28100,"duration":100,"noteNumber":71,"velocity":90,"programNumber":48},{"time":28200,"duration":100,"noteNumber":81,"velocity":90,"programNumber":48},{"time":28300,"duration":100,"noteNumber":81,"velocity":90,"programNumber":48},{"time":28400,"duration":100,"noteNumber":71,"velocity":90,"programNumber":48},{"time":28500,"duration":100,"noteNumber":71,"velocity":90,"programNumber":48},{"time":28600,"duration":100,"noteNumber":80,"velocity":90,"programNumber":48},{"time":28700,"duration":100,"noteNumber":80,"velocity":90,"programNumber":48},{"time":28800,"duration":100,"noteNumber":69,"velocity":90,"programNumber":48},{"time":28900,"duration":100,"noteNumber":69,"velocity":90,"programNumber":48},{"time":29000,"duration":100,"noteNumber":84,"velocity":90,"programNumber":48},{"time":29100,"duration":100,"noteNumber":84,"velocity":90,"programNumber":48},{"time":29200,"duration":100,"noteNumber":81,"velocity":90,"programNumber":48},{"time":29300,"duration":100,"noteNumber":81,"velocity":90,"programNumber":48},{"time":29400,"duration":100,"noteNumber":79,"velocity":90,"programNumber":48},{"time":29500,"duration":100,"noteNumber":79,"velocity":90,"programNumber":48},{"time":29600,"duration":100,"noteNumber":77,"velocity":90,"programNumber":48},{"time":29700,"duration":100,"noteNumber":77,"velocity":90,"programNumber":48},{"time":29800,"duration":100,"noteNumber":76,"velocity":90,"programNumber":48},{"time":29900,"duration":100,"noteNumber":76,"velocity":90,"programNumber":48},{"time":30000,"duration":100,"noteNumber":75,"velocity":90,"programNumber":48},{"time":30100,"duration":100,"noteNumber":75,"velocity":90,"programNumber":48},{"time":30200,"duration":100,"noteNumber":78,"velocity":90,"programNumber":48},{"time":30300,"duration":100,"noteNumber":78,"velocity":90,"programNumber":48},{"time":30400,"duration":100,"noteNumber":76,"velocity":90,"programNumber":48},{"time":30500,"duration":100,"noteNumber":76,"velocity":90,"programNumber":48},{"time":30600,"duration":100,"noteNumber":74,"velocity":90,"programNumber":48},{"time":30700,"duration":100,"noteNumber":74,"velocity":90,"programNumber":48},{"time":30800,"duration":100,"noteNumber":83,"velocity":90,"programNumber":48},{"time":30900,"duration":100,"noteNumber":83,"velocity":90,"programNumber":48},{"time":31000,"duration":100,"noteNumber":81,"velocity":90,"programNumber":48},{"time":31100,"duration":100,"noteNumber":81,"velocity":90,"programNumber":48},{"time":31200,"duration":100,"noteNumber":80,"velocity":90,"programNumber":48},{"time":31300,"duration":100,"noteNumber":80,"velocity":90,"programNumber":48},{"time":31400,"duration":100,"noteNumber":77,"velocity":90,"programNumber":48},{"time":31500,"duration":100,"noteNumber":77,"velocity":90,"programNumber":48},{"time":31600,"duration":100,"noteNumber":76,"velocity":90,"programNumber":48},{"time":31700,"duration":100,"noteNumber":76,"velocity":90,"programNumber":48},{"time":31800,"duration":100,"noteNumber":74,"velocity":90,"programNumber":48},{"time":31900,"duration":100,"noteNumber":74,"velocity":90,"programNumber":48},{"time":32000,"duration":100,"noteNumber":72,"velocity":90,"programNumber":48},{"time":32100,"duration":100,"noteNumber":72,"velocity":90,"programNumber":48},{"time":32200,"duration":100,"noteNumber":81,"velocity":90,"programNumber":48},{"time":32300,"duration":100,"noteNumber":81,"velocity":90,"programNumber":48},{"time":32400,"duration":100,"noteNumber":77,"velocity":90,"programNumber":48},{"time":32500,"duration":100,"noteNumber":77,"velocity":90,"programNumber":48},{"time":32600,"duration":100,"noteNumber":74,"velocity":90,"programNumber":48},{"time":32700,"duration":100,"noteNumber":74,"velocity":90,"programNumber":48},{"time":32800,"duration":100,"noteNumber":72,"velocity":90,"programNumber":48},{"time":32900,"duration":100,"noteNumber":72,"velocity":90,"programNumber":48},{"time":33000,"duration":100,"noteNumber":81,"velocity":90,"programNumber":48},{"time":33100,"duration":100,"noteNumber":81,"velocity":90,"programNumber":48},{"time":33200,"duration":100,"noteNumber":71,"velocity":90,"programNumber":48},{"time":33300,"duration":100,"noteNumber":71,"velocity":90,"programNumber":48},{"time":33400,"duration":100,"noteNumber":80,"velocity":90,"programNumber":48},{"time":33500,"duration":100,"noteNumber":80,"velocity":90,"programNumber":48},{"time":33600,"duration":100,"noteNumber":81,"velocity":90,"programNumber":48},{"time":33700,"duration":100,"noteNumber":72,"velocity":90,"programNumber":48},{"time":33800,"duration":100,"noteNumber":72,"velocity":90,"programNumber":48},{"time":33900,"duration":100,"noteNumber":72,"velocity":90,"programNumber":48},{"time":34000,"duration":100,"noteNumber":72,"velocity":90,"programNumber":48},{"time":34100,"duration":100,"noteNumber":72,"velocity":90,"programNumber":48},{"time":34200,"duration":100,"noteNumber":72,"velocity":90,"programNumber":48},{"time":34300,"duration":100,"noteNumber":72,"velocity":90,"programNumber":48},{"time":34400,"duration":100,"noteNumber":81,"velocity":90,"programNumber":48},{"time":34500,"duration":100,"noteNumber":72,"velocity":90,"programNumber":48},{"time":34600,"duration":100,"noteNumber":72,"velocity":90,"programNumber":48},{"time":34700,"duration":100,"noteNumber":72,"velocity":90,"programNumber":48},{"time":34800,"duration":100,"noteNumber":72,"velocity":90,"programNumber":48},{"time":34900,"duration":100,"noteNumber":72,"velocity":90,"programNumber":48},{"time":35000,"duration":100,"noteNumber":72,"velocity":90,"programNumber":48},{"time":35100,"duration":100,"noteNumber":72,"velocity":90,"programNumber":48},{"time":35200,"duration":200,"noteNumber":83,"velocity":90,"programNumber":48},{"time":35400,"duration":400,"noteNumber":71,"velocity":90,"programNumber":48},{"time":35800,"duration":400,"noteNumber":71,"velocity":90,"programNumber":48},{"time":36200,"duration":400,"noteNumber":71,"velocity":90,"programNumber":48},{"time":36600,"duration":200,"noteNumber":71,"velocity":90,"programNumber":48},{"time":36800,"duration":100,"noteNumber":83,"velocity":90,"programNumber":48},{"time":36900,"duration":100,"noteNumber":71,"velocity":90,"programNumber":48},{"time":37000,"duration":100,"noteNumber":71,"velocity":90,"programNumber":48},{"time":37100,"duration":100,"noteNumber":71,"velocity":90,"programNumber":48},{"time":37200,"duration":100,"noteNumber":71,"velocity":90,"programNumber":48},{"time":37300,"duration":100,"noteNumber":71,"velocity":90,"programNumber":48},{"time":37400,"duration":100,"noteNumber":71,"velocity":90,"programNumber":48},{"time":37500,"duration":100,"noteNumber":71,"velocity":90,"programNumber":48},{"time":37600,"duration":100,"noteNumber":83,"velocity":90,"programNumber":48},{"time":37700,"duration":100,"noteNumber":71,"velocity":90,"programNumber":48},{"time":37800,"duration":100,"noteNumber":71,"velocity":90,"programNumber":48},{"time":37900,"duration":100,"noteNumber":71,"velocity":90,"programNumber":48},{"time":38000,"duration":100,"noteNumber":71,"velocity":90,"programNumber":48},{"time":38100,"duration":100,"noteNumber":71,"velocity":90,"programNumber":48},{"time":38200,"duration":100,"noteNumber":71,"velocity":90,"programNumber":48},{"time":38300,"duration":100,"noteNumber":71,"velocity":90,"programNumber":48},{"time":38400,"duration":200,"noteNumber":84,"velocity":90,"programNumber":48},{"time":38600,"duration":400,"noteNumber":72,"velocity":90,"programNumber":48},{"time":39000,"duration":400,"noteNumber":72,"velocity":90,"programNumber":48},{"time":39400,"duration":200,"noteNumber":69,"velocity":90,"programNumber":48},{"time":39600,"duration":200,"noteNumber":69,"velocity":90,"programNumber":48},{"time":39800,"duration":200,"noteNumber":69,"velocity":90,"programNumber":48},{"time":40000,"duration":400,"noteNumber":77,"velocity":90,"programNumber":48},{"time":40000,"duration":400,"noteNumber":69,"velocity":90,"programNumber":48},{"time":40000,"duration":400,"noteNumber":62,"velocity":90,"programNumber":48},{"time":40400,"duration":100,"noteNumber":76,"velocity":90,"programNumber":48},{"time":40500,"duration":100,"noteNumber":69,"velocity":90,"programNumber":48},{"time":40600,"duration":100,"noteNumber":72,"velocity":90,"programNumber":48},{"time":40700,"duration":100,"noteNumber":76,"velocity":90,"programNumber":48},{"time":40800,"duration":200,"noteNumber":81,"velocity":90,"programNumber":48},{"time":41000,"duration":400,"noteNumber":76,"velocity":90,"programNumber":48},{"time":41400,"duration":600,"noteNumber":76,"velocity":90,"programNumber":48},{"time":42000,"duration":100,"noteNumber":81,"velocity":90,"programNumber":48},{"time":42100,"duration":100,"noteNumber":76,"velocity":90,"programNumber":48},{"time":42200,"duration":100,"noteNumber":81,"velocity":90,"programNumber":48},{"time":42300,"duration":100,"noteNumber":84,"velocity":90,"programNumber":48},{"time":42400,"duration":200,"noteNumber":88,"velocity":90,"programNumber":48},{"time":42600,"duration":400,"noteNumber":88,"velocity":90,"programNumber":48},{"time":43000,"duration":200,"noteNumber":88,"velocity":90,"programNumber":48},{"time":43200,"duration":100,"noteNumber":86,"velocity":90,"programNumber":48},{"time":43300,"duration":100,"noteNumber":86,"velocity":90,"programNumber":48},{"time":43400,"duration":100,"noteNumber":74,"velocity":90,"programNumber":48},{"time":43500,"duration":100,"noteNumber":74,"velocity":90,"programNumber":48},{"time":43600,"duration":100,"noteNumber":72,"velocity":90,"programNumber":48},{"time":43700,"duration":100,"noteNumber":72,"velocity":90,"programNumber":48},{"time":43800,"duration":100,"noteNumber":84,"velocity":90,"programNumber":48},{"time":43900,"duration":100,"noteNumber":84,"velocity":90,"programNumber":48},{"time":44000,"duration":100,"noteNumber":82,"velocity":90,"programNumber":48},{"time":44100,"duration":100,"noteNumber":82,"velocity":90,"programNumber":48},{"time":44200,"duration":100,"noteNumber":70,"velocity":90,"programNumber":48},{"time":44300,"duration":100,"noteNumber":70,"velocity":90,"programNumber":48},{"time":44400,"duration":100,"noteNumber":69,"velocity":90,"programNumber":48},{"time":44500,"duration":100,"noteNumber":69,"velocity":90,"programNumber":48},{"time":44600,"duration":100,"noteNumber":81,"velocity":90,"programNumber":48},{"time":44700,"duration":100,"noteNumber":81,"velocity":90,"programNumber":48},{"time":44800,"duration":300,"noteNumber":81,"velocity":90,"programNumber":48},{"time":45100,"duration":50,"noteNumber":80,"velocity":90,"programNumber":48},{"time":45150,"duration":50,"noteNumber":81,"velocity":90,"programNumber":48},{"time":45200,"duration":200,"noteNumber":80,"velocity":90,"programNumber":48},{"time":45400,"duration":400,"noteNumber":76,"velocity":90,"programNumber":48},{"time":45800,"duration":400,"noteNumber":64,"velocity":90,"programNumber":48},{"time":46200,"duration":200,"noteNumber":76,"velocity":90,"programNumber":48},{"time":46400,"duration":100,"noteNumber":77,"velocity":90,"programNumber":48},{"time":46500,"duration":100,"noteNumber":77,"velocity":90,"programNumber":48},{"time":46600,"duration":100,"noteNumber":80,"velocity":90,"programNumber":48},{"time":46700,"duration":100,"noteNumber":80,"velocity":90,"programNumber":48},{"time":46800,"duration":100,"noteNumber":77,"velocity":90,"programNumber":48},{"time":46900,"duration":100,"noteNumber":77,"velocity":90,"programNumber":48},{"time":47000,"duration":100,"noteNumber":74,"velocity":90,"programNumber":48},{"time":47100,"duration":100,"noteNumber":74,"velocity":90,"programNumber":48},{"time":47200,"duration":100,"noteNumber":71,"velocity":90,"programNumber":48},{"time":47300,"duration":100,"noteNumber":71,"velocity":90,"programNumber":48},{"time":47400,"duration":100,"noteNumber":67,"velocity":90,"programNumber":48},{"time":47500,"duration":100,"noteNumber":67,"velocity":90,"programNumber":48},{"time":47600,"duration":100,"noteNumber":65,"velocity":90,"programNumber":48},{"time":47700,"duration":100,"noteNumber":65,"velocity":90,"programNumber":48},{"time":47800,"duration":100,"noteNumber":62,"velocity":90,"programNumber":48},{"time":47900,"duration":100,"noteNumber":62,"velocity":90,"programNumber":48},{"time":48000,"duration":100,"noteNumber":72,"velocity":90,"programNumber":48},{"time":48000,"duration":100,"noteNumber":63,"velocity":90,"programNumber":48},{"time":48000,"duration":100,"noteNumber":55,"velocity":90,"programNumber":48},{"time":48100,"duration":100,"noteNumber":67,"velocity":90,"programNumber":48},{"time":48200,"duration":100,"noteNumber":67,"velocity":90,"programNumber":48},{"time":48300,"duration":100,"noteNumber":67,"velocity":90,"programNumber":48},{"time":48400,"duration":100,"noteNumber":67,"velocity":90,"programNumber":48},{"time":48500,"duration":100,"noteNumber":67,"velocity":90,"programNumber":48},{"time":48600,"duration":100,"noteNumber":67,"velocity":90,"programNumber":48},{"time":48700,"duration":100,"noteNumber":67,"velocity":90,"programNumber":48},{"time":48800,"duration":100,"noteNumber":72,"velocity":90,"programNumber":48},{"time":48900,"duration":100,"noteNumber":67,"velocity":90,"programNumber":48},{"time":49000,"duration":100,"noteNumber":67,"velocity":90,"programNumber":48},{"time":49100,"duration":100,"noteNumber":67,"velocity":90,"programNumber":48},{"time":49200,"duration":100,"noteNumber":67,"velocity":90,"programNumber":48},{"time":49300,"duration":100,"noteNumber":67,"velocity":90,"programNumber":48},{"time":49400,"duration":100,"noteNumber":67,"velocity":90,"programNumber":48},{"time":49500,"duration":100,"noteNumber":67,"velocity":90,"programNumber":48},{"time":49600,"duration":100,"noteNumber":75,"velocity":90,"programNumber":48},{"time":49700,"duration":100,"noteNumber":72,"velocity":90,"programNumber":48},{"time":49800,"duration":100,"noteNumber":72,"velocity":90,"programNumber":48},{"time":49900,"duration":100,"noteNumber":72,"velocity":90,"programNumber":48},{"time":50000,"duration":100,"noteNumber":72,"velocity":90,"programNumber":48},{"time":50100,"duration":100,"noteNumber":72,"velocity":90,"programNumber":48},{"time":50200,"duration":100,"noteNumber":72,"velocity":90,"programNumber":48},{"time":50300,"duration":100,"noteNumber":72,"velocity":90,"programNumber":48},{"time":50400,"duration":100,"noteNumber":67,"velocity":90,"programNumber":48},{"time":50500,"duration":100,"noteNumber":72,"velocity":90,"programNumber":48},{"time":50600,"duration":100,"noteNumber":72,"velocity":90,"programNumber":48},{"time":50700,"duration":100,"noteNumber":72,"velocity":90,"programNumber":48},{"time":50800,"duration":100,"noteNumber":72,"velocity":90,"programNumber":48},{"time":50900,"duration":100,"noteNumber":72,"velocity":90,"programNumber":48},{"time":51000,"duration":100,"noteNumber":72,"velocity":90,"programNumber":48},{"time":51100,"duration":100,"noteNumber":72,"velocity":90,"programNumber":48},{"time":51200,"duration":200,"noteNumber":72,"velocity":90,"programNumber":48},{"time":51400,"duration":200,"noteNumber":72,"velocity":90,"programNumber":48},{"time":51600,"duration":200,"noteNumber":73,"velocity":90,"programNumber":48},{"time":51800,"duration":400,"noteNumber":73,"velocity":90,"programNumber":48},{"time":52200,"duration":400,"noteNumber":73,"velocity":90,"programNumber":48},{"time":52600,"duration":200,"noteNumber":73,"velocity":90,"programNumber":48},{"time":52800,"duration":100,"noteNumber":73,"velocity":90,"programNumber":48},{"time":52900,"duration":100,"noteNumber":67,"velocity":90,"programNumber":48},{"time":53000,"duration":100,"noteNumber":67,"velocity":90,"programNumber":48},{"time":53100,"duration":100,"noteNumber":67,"velocity":90,"programNumber":48},{"time":53200,"duration":100,"noteNumber":67,"velocity":90,"programNumber":48},{"time":53300,"duration":100,"noteNumber":67,"velocity":90,"programNumber":48},{"time":53400,"duration":100,"noteNumber":67,"velocity":90,"programNumber":48},{"time":53500,"duration":100,"noteNumber":67,"velocity":90,"programNumber":48},{"time":53600,"duration":100,"noteNumber":73,"velocity":90,"programNumber":48},{"time":53700,"duration":100,"noteNumber":67,"velocity":90,"programNumber":48},{"time":53800,"duration":100,"noteNumber":67,"velocity":90,"programNumber":48},{"time":53900,"duration":100,"noteNumber":67,"velocity":90,"programNumber":48},{"time":54000,"duration":100,"noteNumber":67,"velocity":90,"programNumber":48},{"time":54100,"duration":100,"noteNumber":67,"velocity":90,"programNumber":48},{"time":54200,"duration":100,"noteNumber":67,"velocity":90,"programNumber":48},{"time":54300,"duration":100,"noteNumber":67,"velocity":90,"programNumber":48},{"time":54400,"duration":100,"noteNumber":76,"velocity":90,"programNumber":48},{"time":54500,"duration":100,"noteNumber":73,"velocity":90,"programNumber":48},{"time":54600,"duration":100,"noteNumber":73,"velocity":90,"programNumber":48},{"time":54700,"duration":100,"noteNumber":73,"velocity":90,"programNumber":48},{"time":54800,"duration":100,"noteNumber":73,"velocity":90,"programNumber":48},{"time":54900,"duration":100,"noteNumber":73,"velocity":90,"programNumber":48},{"time":55000,"duration":100,"noteNumber":73,"velocity":90,"programNumber":48},{"time":55100,"duration":100,"noteNumber":73,"velocity":90,"programNumber":48},{"time":55200,"duration":100,"noteNumber":76,"velocity":90,"programNumber":48},{"time":55300,"duration":100,"noteNumber":73,"velocity":90,"programNumber":48},{"time":55400,"duration":100,"noteNumber":73,"velocity":90,"programNumber":48},{"time":55500,"duration":100,"noteNumber":73,"velocity":90,"programNumber":48},{"time":55600,"duration":100,"noteNumber":73,"velocity":90,"programNumber":48},{"time":55700,"duration":100,"noteNumber":73,"velocity":90,"programNumber":48},{"time":55800,"duration":100,"noteNumber":73,"velocity":90,"programNumber":48},{"time":55900,"duration":100,"noteNumber":73,"velocity":90,"programNumber":48},{"time":56000,"duration":200,"noteNumber":73,"velocity":90,"programNumber":48},{"time":56200,"duration":200,"noteNumber":73,"velocity":90,"programNumber":48},{"time":56400,"duration":200,"noteNumber":74,"velocity":90,"programNumber":48},{"time":56600,"duration":400,"noteNumber":74,"velocity":90,"programNumber":48},{"time":57000,"duration":400,"noteNumber":74,"velocity":90,"programNumber":48},{"time":57400,"duration":200,"noteNumber":74,"velocity":90,"programNumber":48},{"time":57600,"duration":100,"noteNumber":75,"velocity":90,"programNumber":48},{"time":57700,"duration":100,"noteNumber":70,"velocity":90,"programNumber":48},{"time":57800,"duration":100,"noteNumber":70,"velocity":90,"programNumber":48},{"time":57900,"duration":100,"noteNumber":70,"velocity":90,"programNumber":48},{"time":58000,"duration":100,"noteNumber":70,"velocity":90,"programNumber":48},{"time":58100,"duration":100,"noteNumber":70,"velocity":90,"programNumber":48},{"time":58200,"duration":100,"noteNumber":70,"velocity":90,"programNumber":48},{"time":58300,"duration":100,"noteNumber":70,"velocity":90,"programNumber":48},{"time":58400,"duration":100,"noteNumber":78,"velocity":90,"programNumber":48},{"time":58500,"duration":100,"noteNumber":72,"velocity":90,"programNumber":48},{"time":58600,"duration":100,"noteNumber":72,"velocity":90,"programNumber":48},{"time":58700,"duration":100,"noteNumber":72,"velocity":90,"programNumber":48},{"time":58800,"duration":100,"noteNumber":72,"velocity":90,"programNumber":48},{"time":58900,"duration":100,"noteNumber":72,"velocity":90,"programNumber":48},{"time":59000,"duration":100,"noteNumber":72,"velocity":90,"programNumber":48},{"time":59100,"duration":100,"noteNumber":72,"velocity":90,"programNumber":48},{"time":59200,"duration":100,"noteNumber":79,"velocity":90,"programNumber":48},{"time":59300,"duration":100,"noteNumber":74,"velocity":90,"programNumber":48},{"time":59400,"duration":100,"noteNumber":74,"velocity":90,"programNumber":48},{"time":59500,"duration":100,"noteNumber":74,"velocity":90,"programNumber":48},{"time":59600,"duration":100,"noteNumber":74,"velocity":90,"programNumber":48},{"time":59700,"duration":100,"noteNumber":74,"velocity":90,"programNumber":48},{"time":59800,"duration":100,"noteNumber":74,"velocity":90,"programNumber":48},{"time":59900,"duration":100,"noteNumber":74,"velocity":90,"programNumber":48},{"time":60000,"duration":100,"noteNumber":77,"velocity":90,"programNumber":48},{"time":60100,"duration":100,"noteNumber":72,"velocity":90,"programNumber":48},{"time":60200,"duration":100,"noteNumber":72,"velocity":90,"programNumber":48},{"time":60300,"duration":100,"noteNumber":72,"velocity":90,"programNumber":48},{"time":60400,"duration":100,"noteNumber":72,"velocity":90,"programNumber":48},{"time":60500,"duration":100,"noteNumber":72,"velocity":90,"programNumber":48},{"time":60600,"duration":100,"noteNumber":72,"velocity":90,"programNumber":48},{"time":60700,"duration":100,"noteNumber":72,"velocity":90,"programNumber":48},{"time":60800,"duration":100,"noteNumber":75,"velocity":90,"programNumber":48},{"time":60900,"duration":100,"noteNumber":70,"velocity":90,"programNumber":48},{"time":61000,"duration":100,"noteNumber":70,"velocity":90,"programNumber":48},{"time":61100,"duration":100,"noteNumber":70,"velocity":90,"programNumber":48},{"time":61200,"duration":100,"noteNumber":70,"velocity":90,"programNumber":48},{"time":61300,"duration":100,"noteNumber":70,"velocity":90,"programNumber":48},{"time":61400,"duration":100,"noteNumber":70,"velocity":90,"programNumber":48},{"time":61500,"duration":100,"noteNumber":70,"velocity":90,"programNumber":48},{"time":61600,"duration":100,"noteNumber":74,"velocity":90,"programNumber":48},{"time":61700,"duration":100,"noteNumber":71,"velocity":90,"programNumber":48},{"time":61800,"duration":100,"noteNumber":71,"velocity":90,"programNumber":48},{"time":61900,"duration":100,"noteNumber":71,"velocity":90,"programNumber":48},{"time":62000,"duration":100,"noteNumber":71,"velocity":90,"programNumber":48},{"time":62100,"duration":100,"noteNumber":71,"velocity":90,"programNumber":48},{"time":62200,"duration":100,"noteNumber":71,"velocity":90,"programNumber":48},{"time":62300,"duration":100,"noteNumber":71,"velocity":90,"programNumber":48},{"time":62400,"duration":100,"noteNumber":74,"velocity":90,"programNumber":48},{"time":62500,"duration":100,"noteNumber":69,"velocity":90,"programNumber":48},{"time":62600,"duration":100,"noteNumber":69,"velocity":90,"programNumber":48},{"time":62700,"duration":100,"noteNumber":69,"velocity":90,"programNumber":48},{"time":62800,"duration":100,"noteNumber":73,"velocity":90,"programNumber":48},{"time":62900,"duration":100,"noteNumber":69,"velocity":90,"programNumber":48},{"time":63000,"duration":100,"noteNumber":69,"velocity":90,"programNumber":48},{"time":63100,"duration":100,"noteNumber":69,"velocity":90,"programNumber":48},{"time":63200,"duration":600,"noteNumber":57,"velocity":90,"programNumber":48},{"time":63800,"duration":200,"noteNumber":57,"velocity":90,"programNumber":48},{"time":64000,"duration":100,"noteNumber":56,"velocity":90,"programNumber":48},{"time":64100,"duration":100,"noteNumber":56,"velocity":90,"programNumber":48},{"time":64200,"duration":100,"noteNumber":57,"velocity":90,"programNumber":48},{"time":64300,"duration":100,"noteNumber":57,"velocity":90,"programNumber":48},{"time":64400,"duration":100,"noteNumber":56,"velocity":90,"programNumber":48},{"time":64500,"duration":100,"noteNumber":56,"velocity":90,"programNumber":48},{"time":64600,"duration":100,"noteNumber":57,"velocity":90,"programNumber":48},{"time":64700,"duration":100,"noteNumber":57,"velocity":90,"programNumber":48},{"time":64800,"duration":100,"noteNumber":56,"velocity":90,"programNumber":48},{"time":64900,"duration":100,"noteNumber":56,"velocity":90,"programNumber":48},{"time":65000,"duration":100,"noteNumber":57,"velocity":90,"programNumber":48},{"time":65100,"duration":100,"noteNumber":57,"velocity":90,"programNumber":48},{"time":65200,"duration":100,"noteNumber":56,"velocity":90,"programNumber":48},{"time":65300,"duration":100,"noteNumber":56,"velocity":90,"programNumber":48},{"time":65400,"duration":100,"noteNumber":57,"velocity":90,"programNumber":48},{"time":65500,"duration":100,"noteNumber":57,"velocity":90,"programNumber":48},{"time":65600,"duration":400,"noteNumber":58,"velocity":90,"programNumber":48},{"time":66000,"duration":400,"noteNumber":57,"velocity":90,"programNumber":48},{"time":66400,"duration":100,"noteNumber":64,"velocity":90,"programNumber":48},{"time":66500,"duration":100,"noteNumber":64,"velocity":90,"programNumber":48},{"time":66600,"duration":100,"noteNumber":69,"velocity":90,"programNumber":48},{"time":66700,"duration":100,"noteNumber":69,"velocity":90,"programNumber":48},{"time":66800,"duration":100,"noteNumber":73,"velocity":90,"programNumber":48},{"time":66900,"duration":100,"noteNumber":73,"velocity":90,"programNumber":48},{"time":67000,"duration":100,"noteNumber":76,"velocity":90,"programNumber":48},{"time":67100,"duration":100,"noteNumber":76,"velocity":90,"programNumber":48},{"time":67200,"duration":100,"noteNumber":77,"velocity":90,"programNumber":48},{"time":67300,"duration":100,"noteNumber":77,"velocity":90,"programNumber":48},{"time":67400,"duration":100,"noteNumber":68,"velocity":90,"programNumber":48},{"time":67500,"duration":100,"noteNumber":68,"velocity":90,"programNumber":48},{"time":67600,"duration":100,"noteNumber":73,"velocity":90,"programNumber":48},{"time":67700,"duration":100,"noteNumber":73,"velocity":90,"programNumber":48},{"time":67800,"duration":100,"noteNumber":76,"velocity":90,"programNumber":48},{"time":67900,"duration":100,"noteNumber":76,"velocity":90,"programNumber":48},{"time":68000,"duration":100,"noteNumber":64,"velocity":90,"programNumber":48},{"time":68100,"duration":100,"noteNumber":64,"velocity":90,"programNumber":48},{"time":68200,"duration":100,"noteNumber":68,"velocity":90,"programNumber":48},{"time":68300,"duration":100,"noteNumber":68,"velocity":90,"programNumber":48},{"time":68400,"duration":100,"noteNumber":73,"velocity":90,"programNumber":48},{"time":68500,"duration":100,"noteNumber":73,"velocity":90,"programNumber":48},{"time":68600,"duration":100,"noteNumber":76,"velocity":90,"programNumber":48},{"time":68700,"duration":100,"noteNumber":76,"velocity":90,"programNumber":48},{"time":68800,"duration":100,"noteNumber":77,"velocity":90,"programNumber":48},{"time":68900,"duration":100,"noteNumber":77,"velocity":90,"programNumber":48},{"time":69000,"duration":100,"noteNumber":68,"velocity":90,"programNumber":48},{"time":69100,"duration":100,"noteNumber":68,"velocity":90,"programNumber":48},{"time":69200,"duration":100,"noteNumber":69,"velocity":90,"programNumber":48},{"time":69300,"duration":100,"noteNumber":69,"velocity":90,"programNumber":48},{"time":69400,"duration":100,"noteNumber":76,"velocity":90,"programNumber":48},{"time":69500,"duration":100,"noteNumber":76,"velocity":90,"programNumber":48},{"time":69600,"duration":600,"noteNumber":57,"velocity":90,"programNumber":48},{"time":70200,"duration":200,"noteNumber":57,"velocity":90,"programNumber":48},{"time":70400,"duration":100,"noteNumber":56,"velocity":90,"programNumber":48},{"time":70500,"duration":100,"noteNumber":56,"velocity":90,"programNumber":48},{"time":70600,"duration":100,"noteNumber":57,"velocity":90,"programNumber":48},{"time":70700,"duration":100,"noteNumber":57,"velocity":90,"programNumber":48},{"time":70800,"duration":100,"noteNumber":56,"velocity":90,"programNumber":48},{"time":70900,"duration":100,"noteNumber":56,"velocity":90,"programNumber":48},{"time":71000,"duration":100,"noteNumber":57,"velocity":90,"programNumber":48},{"time":71100,"duration":100,"noteNumber":57,"velocity":90,"programNumber":48},{"time":71200,"duration":100,"noteNumber":56,"velocity":90,"programNumber":48},{"time":71300,"duration":100,"noteNumber":56,"velocity":90,"programNumber":48},{"time":71400,"duration":100,"noteNumber":57,"velocity":90,"programNumber":48},{"time":71500,"duration":100,"noteNumber":57,"velocity":90,"programNumber":48},{"time":71600,"duration":100,"noteNumber":56,"velocity":90,"programNumber":48},{"time":71700,"duration":100,"noteNumber":56,"velocity":90,"programNumber":48},{"time":71800,"duration":100,"noteNumber":57,"velocity":90,"programNumber":48},{"time":71900,"duration":100,"noteNumber":57,"velocity":90,"programNumber":48},{"time":72000,"duration":400,"noteNumber":58,"velocity":90,"programNumber":48},{"time":72400,"duration":400,"noteNumber":57,"velocity":90,"programNumber":48},{"time":72800,"duration":100,"noteNumber":69,"velocity":90,"programNumber":48},{"time":72900,"duration":100,"noteNumber":69,"velocity":90,"programNumber":48},{"time":73000,"duration":100,"noteNumber":73,"velocity":90,"programNumber":48},{"time":73100,"duration":100,"noteNumber":73,"velocity":90,"programNumber":48},{"time":73200,"duration":100,"noteNumber":76,"velocity":90,"programNumber":48},{"time":73300,"duration":100,"noteNumber":76,"velocity":90,"programNumber":48},{"time":73400,"duration":100,"noteNumber":81,"velocity":90,"programNumber":48},{"time":73500,"duration":100,"noteNumber":81,"velocity":90,"programNumber":48},{"time":73600,"duration":100,"noteNumber":80,"velocity":90,"programNumber":48},{"time":73700,"duration":100,"noteNumber":80,"velocity":90,"programNumber":48},{"time":73800,"duration":100,"noteNumber":71,"velocity":90,"programNumber":48},{"time":73900,"duration":100,"noteNumber":71,"velocity":90,"programNumber":48},{"time":74000,"duration":100,"noteNumber":69,"velocity":90,"programNumber":48},{"time":74100,"duration":100,"noteNumber":69,"velocity":90,"programNumber":48},{"time":74200,"duration":100,"noteNumber":81,"velocity":90,"programNumber":48},{"time":74300,"duration":100,"noteNumber":81,"velocity":90,"programNumber":48},{"time":74400,"duration":100,"noteNumber":69,"velocity":90,"programNumber":48},{"time":74500,"duration":100,"noteNumber":69,"velocity":90,"programNumber":48},{"time":74600,"duration":100,"noteNumber":73,"velocity":90,"programNumber":48},{"time":74700,"duration":100,"noteNumber":73,"velocity":90,"programNumber":48},{"time":74800,"duration":100,"noteNumber":76,"velocity":90,"programNumber":48},{"time":74900,"duration":100,"noteNumber":76,"velocity":90,"programNumber":48},{"time":75000,"duration":100,"noteNumber":81,"velocity":90,"programNumber":48},{"time":75100,"duration":100,"noteNumber":81,"velocity":90,"programNumber":48},{"time":75200,"duration":100,"noteNumber":80,"velocity":90,"programNumber":48},{"time":75300,"duration":100,"noteNumber":80,"velocity":90,"programNumber":48},{"time":75400,"duration":100,"noteNumber":71,"velocity":90,"programNumber":48},{"time":75500,"duration":100,"noteNumber":71,"velocity":90,"programNumber":48},{"time":75600,"duration":100,"noteNumber":69,"velocity":90,"programNumber":48},{"time":75700,"duration":100,"noteNumber":69,"velocity":90,"programNumber":48},{"time":75800,"duration":100,"noteNumber":81,"velocity":90,"programNumber":48},{"time":75900,"duration":100,"noteNumber":81,"velocity":90,"programNumber":48},{"time":76000,"duration":600,"noteNumber":57,"velocity":90,"programNumber":48},{"time":76600,"duration":200,"noteNumber":57,"velocity":90,"programNumber":48},{"time":76800,"duration":100,"noteNumber":56,"velocity":90,"programNumber":48},{"time":76900,"duration":100,"noteNumber":56,"velocity":90,"programNumber":48},{"time":77000,"duration":100,"noteNumber":57,"velocity":90,"programNumber":48},{"time":77100,"duration":100,"noteNumber":57,"velocity":90,"programNumber":48},{"time":77200,"duration":100,"noteNumber":56,"velocity":90,"programNumber":48},{"time":77300,"duration":100,"noteNumber":56,"velocity":90,"programNumber":48},{"time":77400,"duration":100,"noteNumber":57,"velocity":90,"programNumber":48},{"time":77500,"duration":100,"noteNumber":57,"velocity":90,"programNumber":48},{"time":77600,"duration":100,"noteNumber":56,"velocity":90,"programNumber":48},{"time":77700,"duration":100,"noteNumber":56,"velocity":90,"programNumber":48},{"time":77800,"duration":100,"noteNumber":57,"velocity":90,"programNumber":48},{"time":77900,"duration":100,"noteNumber":57,"velocity":90,"programNumber":48},{"time":78000,"duration":100,"noteNumber":56,"velocity":90,"programNumber":48},{"time":78100,"duration":100,"noteNumber":56,"velocity":90,"programNumber":48},{"time":78200,"duration":100,"noteNumber":57,"velocity":90,"programNumber":48},{"time":78300,"duration":100,"noteNumber":57,"velocity":90,"programNumber":48},{"time":78400,"duration":200,"noteNumber":58,"velocity":90,"programNumber":48},{"time":78600,"duration":100,"noteNumber":67,"velocity":90,"programNumber":48},{"time":78700,"duration":100,"noteNumber":67,"velocity":90,"programNumber":48},{"time":78800,"duration":100,"noteNumber":70,"velocity":90,"programNumber":48},{"time":78900,"duration":100,"noteNumber":70,"velocity":90,"programNumber":48},{"time":79000,"duration":100,"noteNumber":74,"velocity":90,"programNumber":48},{"time":79100,"duration":100,"noteNumber":74,"velocity":90,"programNumber":48},{"time":79200,"duration":200,"noteNumber":79,"velocity":90,"programNumber":48},{"time":79400,"duration":400,"noteNumber":79,"velocity":90,"programNumber":48},{"time":79800,"duration":200,"noteNumber":79,"velocity":90,"programNumber":48},{"time":80000,"duration":100,"noteNumber":78,"velocity":90,"programNumber":48},{"time":80100,"duration":100,"noteNumber":78,"velocity":90,"programNumber":48},{"time":80200,"duration":100,"noteNumber":79,"velocity":90,"programNumber":48},{"time":80300,"duration":100,"noteNumber":79,"velocity":90,"programNumber":48},{"time":80400,"duration":100,"noteNumber":78,"velocity":90,"programNumber":48},{"time":80500,"duration":100,"noteNumber":78,"velocity":90,"programNumber":48},{"time":80600,"duration":100,"noteNumber":79,"velocity":90,"programNumber":48},{"time":80700,"duration":100,"noteNumber":79,"velocity":90,"programNumber":48},{"time":80800,"duration":100,"noteNumber":78,"velocity":90,"programNumber":48},{"time":80900,"duration":100,"noteNumber":78,"velocity":90,"programNumber":48},{"time":81000,"duration":100,"noteNumber":79,"velocity":90,"programNumber":48},{"time":81100,"duration":100,"noteNumber":79,"velocity":90,"programNumber":48},{"time":81200,"duration":100,"noteNumber":78,"velocity":90,"programNumber":48},{"time":81300,"duration":100,"noteNumber":78,"velocity":90,"programNumber":48},{"time":81400,"duration":100,"noteNumber":79,"velocity":90,"programNumber":48},{"time":81500,"duration":100,"noteNumber":79,"velocity":90,"programNumber":48},{"time":81600,"duration":100,"noteNumber":79,"velocity":90,"programNumber":48},{"time":81700,"duration":100,"noteNumber":76,"velocity":90,"programNumber":48},{"time":81800,"duration":100,"noteNumber":79,"velocity":90,"programNumber":48},{"time":81900,"duration":100,"noteNumber":76,"velocity":90,"programNumber":48},{"time":82000,"duration":100,"noteNumber":73,"velocity":90,"programNumber":48},{"time":82100,"duration":100,"noteNumber":69,"velocity":90,"programNumber":48},{"time":82200,"duration":100,"noteNumber":73,"velocity":90,"programNumber":48},{"time":82300,"duration":100,"noteNumber":76,"velocity":90,"programNumber":48},{"time":82400,"duration":200,"noteNumber":81,"velocity":90,"programNumber":48},{"time":82600,"duration":400,"noteNumber":81,"velocity":90,"programNumber":48},{"time":83000,"duration":400,"noteNumber":81,"velocity":90,"programNumber":48},{"time":83400,"duration":400,"noteNumber":81,"velocity":90,"programNumber":48},{"time":83800,"duration":400,"noteNumber":81,"velocity":90,"programNumber":48},{"time":84200,"duration":400,"noteNumber":81,"velocity":90,"programNumber":48},{"time":84600,"duration":600,"noteNumber":81,"velocity":90,"programNumber":48},{"time":85200,"duration":100,"noteNumber":73,"velocity":90,"programNumber":48},{"time":85300,"duration":100,"noteNumber":69,"velocity":90,"programNumber":48},{"time":85400,"duration":100,"noteNumber":73,"velocity":90,"programNumber":48},{"time":85500,"duration":100,"noteNumber":76,"velocity":90,"programNumber":48},{"time":85600,"duration":200,"noteNumber":81,"velocity":90,"programNumber":48},{"time":85800,"duration":400,"noteNumber":81,"velocity":90,"programNumber":48},{"time":86200,"duration":200,"noteNumber":81,"velocity":90,"programNumber":48},{"time":86600,"duration":400,"noteNumber":81,"velocity":90,"programNumber":48},{"time":87000,"duration":400,"noteNumber":81,"velocity":90,"programNumber":48},{"time":87400,"duration":400,"noteNumber":81,"velocity":90,"programNumber":48},{"time":87800,"duration":400,"noteNumber":81,"velocity":90,"programNumber":48},{"time":88200,"duration":400,"noteNumber":81,"velocity":90,"programNumber":48},{"time":88600,"duration":100,"noteNumber":81,"velocity":90,"programNumber":48},{"time":88700,"duration":100,"noteNumber":81,"velocity":90,"programNumber":48},{"time":88800,"duration":100,"noteNumber":77,"velocity":90,"programNumber":48},{"time":88900,"duration":100,"noteNumber":77,"velocity":90,"programNumber":48},{"time":89000,"duration":100,"noteNumber":74,"velocity":90,"programNumber":48},{"time":89100,"duration":100,"noteNumber":74,"velocity":90,"programNumber":48},{"time":89200,"duration":100,"noteNumber":77,"velocity":90,"programNumber":48},{"time":89300,"duration":100,"noteNumber":77,"velocity":90,"programNumber":48},{"time":89400,"duration":100,"noteNumber":81,"velocity":90,"programNumber":48},{"time":89500,"duration":100,"noteNumber":81,"velocity":90,"programNumber":48},{"time":89600,"duration":100,"noteNumber":86,"velocity":90,"programNumber":48},{"time":89700,"duration":100,"noteNumber":86,"velocity":90,"programNumber":48},{"time":89800,"duration":100,"noteNumber":81,"velocity":90,"programNumber":48},{"time":89900,"duration":100,"noteNumber":81,"velocity":90,"programNumber":48},{"time":90000,"duration":100,"noteNumber":77,"velocity":90,"programNumber":48},{"time":90100,"duration":100,"noteNumber":77,"velocity":90,"programNumber":48},{"time":90200,"duration":100,"noteNumber":74,"velocity":90,"programNumber":48},{"time":90300,"duration":100,"noteNumber":74,"velocity":90,"programNumber":48},{"time":90400,"duration":100,"noteNumber":86,"velocity":90,"programNumber":48},{"time":90500,"duration":100,"noteNumber":86,"velocity":90,"programNumber":48},{"time":90600,"duration":100,"noteNumber":81,"velocity":90,"programNumber":48},{"time":90700,"duration":100,"noteNumber":81,"velocity":90,"programNumber":48},{"time":90800,"duration":100,"noteNumber":77,"velocity":90,"programNumber":48},{"time":90900,"duration":100,"noteNumber":77,"velocity":90,"programNumber":48},{"time":91000,"duration":100,"noteNumber":74,"velocity":90,"programNumber":48},{"time":91100,"duration":100,"noteNumber":74,"velocity":90,"programNumber":48},{"time":91200,"duration":100,"noteNumber":86,"velocity":90,"programNumber":48},{"time":91300,"duration":100,"noteNumber":86,"velocity":90,"programNumber":48},{"time":91400,"duration":100,"noteNumber":81,"velocity":90,"programNumber":48},{"time":91500,"duration":100,"noteNumber":81,"velocity":90,"programNumber":48},{"time":91600,"duration":100,"noteNumber":77,"velocity":90,"programNumber":48},{"time":91700,"duration":100,"noteNumber":77,"velocity":90,"programNumber":48},{"time":91800,"duration":100,"noteNumber":74,"velocity":90,"programNumber":48},{"time":91900,"duration":100,"noteNumber":74,"velocity":90,"programNumber":48},{"time":92000,"duration":100,"noteNumber":86,"velocity":90,"programNumber":48},{"time":92100,"duration":100,"noteNumber":86,"velocity":90,"programNumber":48},{"time":92200,"duration":100,"noteNumber":81,"velocity":90,"programNumber":48},{"time":92300,"duration":100,"noteNumber":81,"velocity":90,"programNumber":48},{"time":92400,"duration":100,"noteNumber":77,"velocity":90,"programNumber":48},{"time":92500,"duration":100,"noteNumber":77,"velocity":90,"programNumber":48},{"time":92600,"duration":100,"noteNumber":74,"velocity":90,"programNumber":48},{"time":92700,"duration":100,"noteNumber":74,"velocity":90,"programNumber":48},{"time":92800,"duration":100,"noteNumber":86,"velocity":90,"programNumber":48},{"time":92900,"duration":100,"noteNumber":86,"velocity":90,"programNumber":48},{"time":93000,"duration":100,"noteNumber":81,"velocity":90,"programNumber":48},{"time":93100,"duration":100,"noteNumber":81,"velocity":90,"programNumber":48},{"time":93200,"duration":100,"noteNumber":77,"velocity":90,"programNumber":48},{"time":93300,"duration":100,"noteNumber":77,"velocity":90,"programNumber":48},{"time":93400,"duration":100,"noteNumber":74,"velocity":90,"programNumber":48},{"time":93500,"duration":100,"noteNumber":74,"velocity":90,"programNumber":48},{"time":93600,"duration":100,"noteNumber":86,"velocity":90,"programNumber":48},{"time":93700,"duration":100,"noteNumber":86,"velocity":90,"programNumber":48},{"time":93800,"duration":100,"noteNumber":81,"velocity":90,"programNumber":48},{"time":93900,"duration":100,"noteNumber":81,"velocity":90,"programNumber":48},{"time":94000,"duration":100,"noteNumber":77,"velocity":90,"programNumber":48},{"time":94100,"duration":100,"noteNumber":77,"velocity":90,"programNumber":48},{"time":94200,"duration":100,"noteNumber":74,"velocity":90,"programNumber":48},{"time":94300,"duration":100,"noteNumber":74,"velocity":90,"programNumber":48},{"time":94400,"duration":100,"noteNumber":85,"velocity":90,"programNumber":48},{"time":94500,"duration":100,"noteNumber":85,"velocity":90,"programNumber":48},{"time":94600,"duration":100,"noteNumber":79,"velocity":90,"programNumber":48},{"time":94700,"duration":100,"noteNumber":79,"velocity":90,"programNumber":48},{"time":94800,"duration":100,"noteNumber":77,"velocity":90,"programNumber":48},{"time":94900,"duration":100,"noteNumber":77,"velocity":90,"programNumber":48},{"time":95000,"duration":100,"noteNumber":86,"velocity":90,"programNumber":48},{"time":95100,"duration":100,"noteNumber":86,"velocity":90,"programNumber":48},{"time":95200,"duration":100,"noteNumber":76,"velocity":90,"programNumber":48},{"time":95300,"duration":100,"noteNumber":76,"velocity":90,"programNumber":48},{"time":95400,"duration":100,"noteNumber":86,"velocity":90,"programNumber":48},{"time":95500,"duration":100,"noteNumber":86,"velocity":90,"programNumber":48},{"time":95600,"duration":100,"noteNumber":76,"velocity":90,"programNumber":48},{"time":95700,"duration":100,"noteNumber":76,"velocity":90,"programNumber":48},{"time":95800,"duration":100,"noteNumber":85,"velocity":90,"programNumber":48},{"time":95900,"duration":100,"noteNumber":85,"velocity":90,"programNumber":48},{"time":96000,"duration":100,"noteNumber":86,"velocity":90,"programNumber":48},{"time":96100,"duration":100,"noteNumber":86,"velocity":90,"programNumber":48},{"time":96200,"duration":100,"noteNumber":81,"velocity":90,"programNumber":48},{"time":96300,"duration":100,"noteNumber":81,"velocity":90,"programNumber":48},{"time":96400,"duration":100,"noteNumber":77,"velocity":90,"programNumber":48},{"time":96500,"duration":100,"noteNumber":77,"velocity":90,"programNumber":48},{"time":96600,"duration":100,"noteNumber":74,"velocity":90,"programNumber":48},{"time":96700,"duration":100,"noteNumber":74,"velocity":90,"programNumber":48},{"time":96800,"duration":100,"noteNumber":86,"velocity":90,"programNumber":48},{"time":96900,"duration":100,"noteNumber":86,"velocity":90,"programNumber":48},{"time":97000,"duration":100,"noteNumber":81,"velocity":90,"programNumber":48},{"time":97100,"duration":100,"noteNumber":81,"velocity":90,"programNumber":48},{"time":97200,"duration":100,"noteNumber":77,"velocity":90,"programNumber":48},{"time":97300,"duration":100,"noteNumber":77,"velocity":90,"programNumber":48},{"time":97400,"duration":100,"noteNumber":74,"velocity":90,"programNumber":48},{"time":97500,"duration":100,"noteNumber":74,"velocity":90,"programNumber":48},{"time":97600,"duration":100,"noteNumber":86,"velocity":90,"programNumber":48},{"time":97700,"duration":100,"noteNumber":86,"velocity":90,"programNumber":48},{"time":97800,"duration":100,"noteNumber":82,"velocity":90,"programNumber":48},{"time":97900,"duration":100,"noteNumber":82,"velocity":90,"programNumber":48},{"time":98000,"duration":100,"noteNumber":77,"velocity":90,"programNumber":48},{"time":98100,"duration":100,"noteNumber":77,"velocity":90,"programNumber":48},{"time":98200,"duration":100,"noteNumber":74,"velocity":90,"programNumber":48},{"time":98300,"duration":100,"noteNumber":74,"velocity":90,"programNumber":48},{"time":98400,"duration":100,"noteNumber":86,"velocity":90,"programNumber":48},{"time":98500,"duration":100,"noteNumber":86,"velocity":90,"programNumber":48},{"time":98600,"duration":100,"noteNumber":82,"velocity":90,"programNumber":48},{"time":98700,"duration":100,"noteNumber":82,"velocity":90,"programNumber":48},{"time":98800,"duration":100,"noteNumber":77,"velocity":90,"programNumber":48},{"time":98900,"duration":100,"noteNumber":77,"velocity":90,"programNumber":48},{"time":99000,"duration":100,"noteNumber":74,"velocity":90,"programNumber":48},{"time":99100,"duration":100,"noteNumber":74,"velocity":90,"programNumber":48},{"time":99200,"duration":100,"noteNumber":87,"velocity":90,"programNumber":48},{"time":99300,"duration":100,"noteNumber":87,"velocity":90,"programNumber":48},{"time":99400,"duration":100,"noteNumber":82,"velocity":90,"programNumber":48},{"time":99500,"duration":100,"noteNumber":82,"velocity":90,"programNumber":48},{"time":99600,"duration":100,"noteNumber":79,"velocity":90,"programNumber":48},{"time":99700,"duration":100,"noteNumber":79,"velocity":90,"programNumber":48},{"time":99800,"duration":100,"noteNumber":75,"velocity":90,"programNumber":48},{"time":99900,"duration":100,"noteNumber":75,"velocity":90,"programNumber":48},{"time":100000,"duration":100,"noteNumber":82,"velocity":90,"programNumber":48},{"time":100100,"duration":100,"noteNumber":82,"velocity":90,"programNumber":48},{"time":100200,"duration":100,"noteNumber":79,"velocity":90,"programNumber":48},{"time":100300,"duration":100,"noteNumber":79,"velocity":90,"programNumber":48},{"time":100400,"duration":100,"noteNumber":75,"velocity":90,"programNumber":48},{"time":100500,"duration":100,"noteNumber":75,"velocity":90,"programNumber":48},{"time":100600,"duration":100,"noteNumber":74,"velocity":90,"programNumber":48},{"time":100700,"duration":100,"noteNumber":74,"velocity":90,"programNumber":48},{"time":100800,"duration":100,"noteNumber":73,"velocity":90,"programNumber":48},{"time":100900,"duration":100,"noteNumber":73,"velocity":90,"programNumber":48},{"time":101000,"duration":100,"noteNumber":79,"velocity":90,"programNumber":48},{"time":101100,"duration":100,"noteNumber":79,"velocity":90,"programNumber":48},{"time":101200,"duration":100,"noteNumber":77,"velocity":90,"programNumber":48},{"time":101300,"duration":100,"noteNumber":77,"velocity":90,"programNumber":48},{"time":101400,"duration":100,"noteNumber":86,"velocity":90,"programNumber":48},{"time":101500,"duration":100,"noteNumber":86,"velocity":90,"programNumber":48},{"time":101600,"duration":100,"noteNumber":76,"velocity":90,"programNumber":48},{"time":101700,"duration":100,"noteNumber":76,"velocity":90,"programNumber":48},{"time":101800,"duration":100,"noteNumber":86,"velocity":90,"programNumber":48},{"time":101900,"duration":100,"noteNumber":86,"velocity":90,"programNumber":48},{"time":102000,"duration":100,"noteNumber":69,"velocity":90,"programNumber":48},{"time":102100,"duration":100,"noteNumber":69,"velocity":90,"programNumber":48},{"time":102200,"duration":100,"noteNumber":85,"velocity":90,"programNumber":48},{"time":102300,"duration":100,"noteNumber":85,"velocity":90,"programNumber":48},{"time":102400,"duration":200,"noteNumber":86,"velocity":90,"programNumber":48},{"time":102600,"duration":100,"noteNumber":77,"velocity":90,"programNumber":48},{"time":102700,"duration":100,"noteNumber":77,"velocity":90,"programNumber":48},{"time":102800,"duration":100,"noteNumber":74,"velocity":90,"programNumber":48},{"time":102900,"duration":100,"noteNumber":74,"velocity":90,"programNumber":48},{"time":103000,"duration":100,"noteNumber":72,"velocity":90,"programNumber":48},{"time":103100,"duration":100,"noteNumber":72,"velocity":90,"programNumber":48},{"time":103200,"duration":100,"noteNumber":70,"velocity":90,"programNumber":48},{"time":103300,"duration":100,"noteNumber":70,"velocity":90,"programNumber":48},{"time":103400,"duration":100,"noteNumber":69,"velocity":90,"programNumber":48},{"time":103500,"duration":100,"noteNumber":69,"velocity":90,"programNumber":48},{"time":103600,"duration":100,"noteNumber":68,"velocity":90,"programNumber":48},{"time":103700,"duration":100,"noteNumber":68,"velocity":90,"programNumber":48},{"time":103800,"duration":100,"noteNumber":71,"velocity":90,"programNumber":48},{"time":103900,"duration":100,"noteNumber":71,"velocity":90,"programNumber":48},{"time":104000,"duration":100,"noteNumber":69,"velocity":90,"programNumber":48},{"time":104100,"duration":100,"noteNumber":69,"velocity":90,"programNumber":48},{"time":104200,"duration":100,"noteNumber":79,"velocity":90,"programNumber":48},{"time":104300,"duration":100,"noteNumber":79,"velocity":90,"programNumber":48},{"time":104400,"duration":100,"noteNumber":76,"velocity":90,"programNumber":48},{"time":104500,"duration":100,"noteNumber":76,"velocity":90,"programNumber":48},{"time":104600,"duration":100,"noteNumber":74,"velocity":90,"programNumber":48},{"time":104700,"duration":100,"noteNumber":74,"velocity":90,"programNumber":48},{"time":104800,"duration":100,"noteNumber":73,"velocity":90,"programNumber":48},{"time":104900,"duration":100,"noteNumber":73,"velocity":90,"programNumber":48},{"time":105000,"duration":100,"noteNumber":82,"velocity":90,"programNumber":48},{"time":105100,"duration":100,"noteNumber":82,"velocity":90,"programNumber":48},{"time":105200,"duration":100,"noteNumber":81,"velocity":90,"programNumber":48},{"time":105300,"duration":100,"noteNumber":81,"velocity":90,"programNumber":48},{"time":105400,"duration":100,"noteNumber":79,"velocity":90,"programNumber":48},{"time":105500,"duration":100,"noteNumber":79,"velocity":90,"programNumber":48},{"time":105600,"duration":100,"noteNumber":77,"velocity":90,"programNumber":48},{"time":105700,"duration":100,"noteNumber":77,"velocity":90,"programNumber":48},{"time":105800,"duration":100,"noteNumber":86,"velocity":90,"programNumber":48},{"time":105900,"duration":100,"noteNumber":86,"velocity":90,"programNumber":48},{"time":106000,"duration":100,"noteNumber":82,"velocity":90,"programNumber":48},{"time":106100,"duration":100,"noteNumber":82,"velocity":90,"programNumber":48},{"time":106200,"duration":100,"noteNumber":79,"velocity":90,"programNumber":48},{"time":106300,"duration":100,"noteNumber":79,"velocity":90,"programNumber":48},{"time":106400,"duration":100,"noteNumber":77,"velocity":90,"programNumber":48},{"time":106500,"duration":100,"noteNumber":77,"velocity":90,"programNumber":48},{"time":106600,"duration":100,"noteNumber":86,"velocity":90,"programNumber":48},{"time":106700,"duration":100,"noteNumber":86,"velocity":90,"programNumber":48},{"time":106800,"duration":100,"noteNumber":76,"velocity":90,"programNumber":48},{"time":106900,"duration":100,"noteNumber":76,"velocity":90,"programNumber":48},{"time":107000,"duration":100,"noteNumber":85,"velocity":90,"programNumber":48},{"time":107100,"duration":100,"noteNumber":85,"velocity":90,"programNumber":48},{"time":107200,"duration":400,"noteNumber":86,"velocity":90,"programNumber":48},{"time":107600,"duration":400,"noteNumber":62,"velocity":90,"programNumber":48}],[{"time":99.99999999999999,"duration":33.33333333333333,"noteNumber":65,"velocity":90,"programNumber":48},{"time":199.99999999999997,"duration":100.00000000000003,"noteNumber":65,"velocity":90,"programNumber":48},{"time":300,"duration":100,"noteNumber":65,"velocity":90,"programNumber":48},{"time":400,"duration":100,"noteNumber":65,"velocity":90,"programNumber":48},{"time":500,"duration":100,"noteNumber":65,"velocity":90,"programNumber":48},{"time":600,"duration":100,"noteNumber":65,"velocity":90,"programNumber":48},{"time":700,"duration":100,"noteNumber":65,"velocity":90,"programNumber":48},{"time":800,"duration":100,"noteNumber":65,"velocity":90,"programNumber":48},{"time":900,"duration":100,"noteNumber":65,"velocity":90,"programNumber":48},{"time":1000,"duration":100,"noteNumber":65,"velocity":90,"programNumber":48},{"time":1100,"duration":100,"noteNumber":65,"velocity":90,"programNumber":48},{"time":1200,"duration":100,"noteNumber":65,"velocity":90,"programNumber":48},{"time":1300,"duration":100,"noteNumber":65,"velocity":90,"programNumber":48},{"time":1400,"duration":100,"noteNumber":65,"velocity":90,"programNumber":48},{"time":1500,"duration":100,"noteNumber":65,"velocity":90,"programNumber":48},{"time":1600,"duration":200,"noteNumber":67,"velocity":90,"programNumber":48},{"time":1800,"duration":400,"noteNumber":67,"velocity":90,"programNumber":48},{"time":2200,"duration":400,"noteNumber":67,"velocity":90,"programNumber":48},{"time":2600,"duration":400,"noteNumber":67,"velocity":90,"programNumber":48},{"time":3000,"duration":200,"noteNumber":67,"velocity":90,"programNumber":48},{"time":3200,"duration":100,"noteNumber":67,"velocity":90,"programNumber":48},{"time":3300,"duration":100,"noteNumber":67,"velocity":90,"programNumber":48},{"time":3400,"duration":100,"noteNumber":67,"velocity":90,"programNumber":48},{"time":3500,"duration":100,"noteNumber":67,"velocity":90,"programNumber":48},{"time":3600,"duration":100,"noteNumber":67,"velocity":90,"programNumber":48},{"time":3700,"duration":100,"noteNumber":67,"velocity":90,"programNumber":48},{"time":3800,"duration":100,"noteNumber":67,"velocity":90,"programNumber":48},{"time":3900,"duration":100,"noteNumber":67,"velocity":90,"programNumber":48},{"time":4000,"duration":100,"noteNumber":67,"velocity":90,"programNumber":48},{"time":4100,"duration":100,"noteNumber":67,"velocity":90,"programNumber":48},{"time":4200,"duration":100,"noteNumber":67,"velocity":90,"programNumber":48},{"time":4300,"duration":100,"noteNumber":67,"velocity":90,"programNumber":48},{"time":4400,"duration":100,"noteNumber":67,"velocity":90,"programNumber":48},{"time":4500,"duration":100,"noteNumber":67,"velocity":90,"programNumber":48},{"time":4600,"duration":100,"noteNumber":67,"velocity":90,"programNumber":48},{"time":4700,"duration":100,"noteNumber":67,"velocity":90,"programNumber":48},{"time":4800,"duration":200,"noteNumber":65,"velocity":90,"programNumber":48},{"time":5000,"duration":400,"noteNumber":65,"velocity":90,"programNumber":48},{"time":5400,"duration":400,"noteNumber":65,"velocity":90,"programNumber":48},{"time":5800,"duration":400,"noteNumber":65,"velocity":90,"programNumber":48},{"time":6200,"duration":200,"noteNumber":65,"velocity":90,"programNumber":48},{"time":6400,"duration":400,"noteNumber":67,"velocity":90,"programNumber":48},{"time":6800,"duration":200,"noteNumber":65,"velocity":90,"programNumber":48},{"time":7000,"duration":200,"noteNumber":65,"velocity":90,"programNumber":48},{"time":7200,"duration":200,"noteNumber":65,"velocity":90,"programNumber":48},{"time":7400,"duration":400,"noteNumber":65,"velocity":90,"programNumber":48},{"time":7800,"duration":200,"noteNumber":65,"velocity":90,"programNumber":48},{"time":8000,"duration":200,"noteNumber":69,"velocity":90,"programNumber":48},{"time":8200,"duration":400,"noteNumber":69,"velocity":90,"programNumber":48},{"time":8600,"duration":400,"noteNumber":69,"velocity":90,"programNumber":48},{"time":9000,"duration":400,"noteNumber":69,"velocity":90,"programNumber":48},{"time":9400,"duration":200,"noteNumber":69,"velocity":90,"programNumber":48},{"time":9600,"duration":100,"noteNumber":67,"velocity":90,"programNumber":48},{"time":9700,"duration":100,"noteNumber":67,"velocity":90,"programNumber":48},{"time":9800,"duration":100,"noteNumber":67,"velocity":90,"programNumber":48},{"time":9900,"duration":100,"noteNumber":67,"velocity":90,"programNumber":48},{"time":10000,"duration":100,"noteNumber":69,"velocity":90,"programNumber":48},{"time":10100,"duration":100,"noteNumber":69,"velocity":90,"programNumber":48},{"time":10200,"duration":100,"noteNumber":69,"velocity":90,"programNumber":48},{"time":10300,"duration":100,"noteNumber":69,"velocity":90,"programNumber":48},{"time":10400,"duration":100,"noteNumber":70,"velocity":90,"programNumber":48},{"time":10500,"duration":100,"noteNumber":70,"velocity":90,"programNumber":48},{"time":10600,"duration":100,"noteNumber":70,"velocity":90,"programNumber":48},{"time":10700,"duration":100,"noteNumber":70,"velocity":90,"programNumber":48},{"time":10800,"duration":100,"noteNumber":69,"velocity":90,"programNumber":48},{"time":10900,"duration":100,"noteNumber":69,"velocity":90,"programNumber":48},{"time":11000,"duration":100,"noteNumber":74,"velocity":90,"programNumber":48},{"time":11100,"duration":100,"noteNumber":74,"velocity":90,"programNumber":48},{"time":11200,"duration":300,"noteNumber":74,"velocity":90,"programNumber":48},{"time":11500,"duration":50,"noteNumber":73,"velocity":90,"programNumber":48},{"time":11550,"duration":50,"noteNumber":74,"velocity":90,"programNumber":48},{"time":11600,"duration":200,"noteNumber":73,"velocity":90,"programNumber":48},{"time":11800,"duration":200,"noteNumber":69,"velocity":90,"programNumber":48},{"time":12000,"duration":200,"noteNumber":69,"velocity":90,"programNumber":48},{"time":12200,"duration":400,"noteNumber":69,"velocity":90,"programNumber":48},{"time":12600,"duration":400,"noteNumber":69,"velocity":90,"programNumber":48},{"time":13000,"duration":100,"noteNumber":69,"velocity":90,"programNumber":48},{"time":13100,"duration":100,"noteNumber":69,"velocity":90,"programNumber":48},{"time":13200,"duration":100,"noteNumber":70,"velocity":90,"programNumber":48},{"time":13300,"duration":100,"noteNumber":70,"velocity":90,"programNumber":48},{"time":13400,"duration":100,"noteNumber":71,"velocity":90,"programNumber":48},{"time":13500,"duration":100,"noteNumber":71,"velocity":90,"programNumber":48},{"time":13600,"duration":100,"noteNumber":72,"velocity":90,"programNumber":48},{"time":13700,"duration":100,"noteNumber":72,"velocity":90,"programNumber":48},{"time":13800,"duration":100,"noteNumber":73,"velocity":90,"programNumber":48},{"time":13900,"duration":100,"noteNumber":73,"velocity":90,"programNumber":48},{"time":14000,"duration":100,"noteNumber":74,"velocity":90,"programNumber":48},{"time":14100,"duration":100,"noteNumber":74,"velocity":90,"programNumber":48},{"time":14200,"duration":100,"noteNumber":70,"velocity":90,"programNumber":48},{"time":14300,"duration":100,"noteNumber":70,"velocity":90,"programNumber":48},{"time":14400,"duration":100,"noteNumber":69,"velocity":90,"programNumber":48},{"time":14500,"duration":100,"noteNumber":69,"velocity":90,"programNumber":48},{"time":14600,"duration":100,"noteNumber":69,"velocity":90,"programNumber":48},{"time":14700,"duration":100,"noteNumber":69,"velocity":90,"programNumber":48},{"time":14800,"duration":100,"noteNumber":69,"velocity":90,"programNumber":48},{"time":14900,"duration":100,"noteNumber":69,"velocity":90,"programNumber":48},{"time":15000,"duration":100,"noteNumber":69,"velocity":90,"programNumber":48},{"time":15100,"duration":100,"noteNumber":69,"velocity":90,"programNumber":48},{"time":15200,"duration":100,"noteNumber":69,"velocity":90,"programNumber":48},{"time":15300,"duration":100,"noteNumber":69,"velocity":90,"programNumber":48},{"time":15400,"duration":100,"noteNumber":69,"velocity":90,"programNumber":48},{"time":15500,"duration":100,"noteNumber":69,"velocity":90,"programNumber":48},{"time":15600,"duration":100,"noteNumber":69,"velocity":90,"programNumber":48},{"time":15700,"duration":100,"noteNumber":69,"velocity":90,"programNumber":48},{"time":15800,"duration":100,"noteNumber":69,"velocity":90,"programNumber":48},{"time":15900,"duration":100,"noteNumber":69,"velocity":90,"programNumber":48},{"time":16000,"duration":100,"noteNumber":69,"velocity":90,"programNumber":48},{"time":16100,"duration":100,"noteNumber":69,"velocity":90,"programNumber":48},{"time":16200,"duration":100,"noteNumber":69,"velocity":90,"programNumber":48},{"time":16300,"duration":100,"noteNumber":69,"velocity":90,"programNumber":48},{"time":16400,"duration":100,"noteNumber":60,"velocity":90,"programNumber":48},{"time":16500,"duration":100,"noteNumber":60,"velocity":90,"programNumber":48},{"time":16600,"duration":100,"noteNumber":60,"velocity":90,"programNumber":48},{"time":16700,"duration":100,"noteNumber":60,"velocity":90,"programNumber":48},{"time":16800,"duration":100,"noteNumber":65,"velocity":90,"programNumber":48},{"time":16900,"duration":100,"noteNumber":65,"velocity":90,"programNumber":48},{"time":17000,"duration":100,"noteNumber":65,"velocity":90,"programNumber":48},{"time":17100,"duration":100,"noteNumber":65,"velocity":90,"programNumber":48},{"time":17200,"duration":100,"noteNumber":69,"velocity":90,"programNumber":48},{"time":17300,"duration":100,"noteNumber":69,"velocity":90,"programNumber":48},{"time":17400,"duration":100,"noteNumber":69,"velocity":90,"programNumber":48},{"time":17500,"duration":100,"noteNumber":69,"velocity":90,"programNumber":48},{"time":17600,"duration":100,"noteNumber":72,"velocity":90,"programNumber":48},{"time":17700,"duration":100,"noteNumber":63,"velocity":90,"programNumber":48},{"time":17800,"duration":100,"noteNumber":63,"velocity":90,"programNumber":48},{"time":17900,"duration":100,"noteNumber":63,"velocity":90,"programNumber":48},{"time":18000,"duration":100,"noteNumber":63,"velocity":90,"programNumber":48},{"time":18100,"duration":100,"noteNumber":63,"velocity":90,"programNumber":48},{"time":18200,"duration":100,"noteNumber":63,"velocity":90,"programNumber":48},{"time":18300,"duration":100,"noteNumber":63,"velocity":90,"programNumber":48},{"time":18400,"duration":100,"noteNumber":72,"velocity":90,"programNumber":48},{"time":18500,"duration":100,"noteNumber":62,"velocity":90,"programNumber":48},{"time":18600,"duration":100,"noteNumber":62,"velocity":90,"programNumber":48},{"time":18700,"duration":100,"noteNumber":62,"velocity":90,"programNumber":48},{"time":18800,"duration":100,"noteNumber":62,"velocity":90,"programNumber":48},{"time":18900,"duration":100,"noteNumber":62,"velocity":90,"programNumber":48},{"time":19000,"duration":100,"noteNumber":62,"velocity":90,"programNumber":48},{"time":19100,"duration":100,"noteNumber":62,"velocity":90,"programNumber":48},{"time":19200,"duration":100,"noteNumber":62,"velocity":90,"programNumber":48},{"time":19300,"duration":100,"noteNumber":67,"velocity":90,"programNumber":48},{"time":19400,"duration":100,"noteNumber":67,"velocity":90,"programNumber":48},{"time":19500,"duration":100,"noteNumber":67,"velocity":90,"programNumber":48},{"time":19600,"duration":100,"noteNumber":67,"velocity":90,"programNumber":48},{"time":19700,"duration":100,"noteNumber":67,"velocity":90,"programNumber":48},{"time":19800,"duration":100,"noteNumber":67,"velocity":90,"programNumber":48},{"time":19900,"duration":100,"noteNumber":67,"velocity":90,"programNumber":48},{"time":20000,"duration":100,"noteNumber":62,"velocity":90,"programNumber":48},{"time":20100,"duration":100,"noteNumber":67,"velocity":90,"programNumber":48},{"time":20200,"duration":100,"noteNumber":67,"velocity":90,"programNumber":48},{"time":20300,"duration":100,"noteNumber":67,"velocity":90,"programNumber":48},{"time":20400,"duration":100,"noteNumber":67,"velocity":90,"programNumber":48},{"time":20500,"duration":100,"noteNumber":67,"velocity":90,"programNumber":48},{"time":20600,"duration":100,"noteNumber":67,"velocity":90,"programNumber":48},{"time":20700,"duration":100,"noteNumber":67,"velocity":90,"programNumber":48},{"time":20800,"duration":100,"noteNumber":62,"velocity":90,"programNumber":48},{"time":20900,"duration":100,"noteNumber":62,"velocity":90,"programNumber":48},{"time":21000,"duration":100,"noteNumber":62,"velocity":90,"programNumber":48},{"time":21100,"duration":100,"noteNumber":62,"velocity":90,"programNumber":48},{"time":21200,"duration":100,"noteNumber":62,"velocity":90,"programNumber":48},{"time":21300,"duration":100,"noteNumber":62,"velocity":90,"programNumber":48},{"time":21400,"duration":100,"noteNumber":62,"velocity":90,"programNumber":48},{"time":21500,"duration":100,"noteNumber":62,"velocity":90,"programNumber":48},{"time":21600,"duration":100,"noteNumber":67,"velocity":90,"programNumber":48},{"time":21700,"duration":100,"noteNumber":67,"velocity":90,"programNumber":48},{"time":21800,"duration":100,"noteNumber":67,"velocity":90,"programNumber":48},{"time":21900,"duration":100,"noteNumber":67,"velocity":90,"programNumber":48},{"time":22000,"duration":100,"noteNumber":71,"velocity":90,"programNumber":48},{"time":22100,"duration":100,"noteNumber":71,"velocity":90,"programNumber":48},{"time":22200,"duration":100,"noteNumber":71,"velocity":90,"programNumber":48},{"time":22300,"duration":100,"noteNumber":71,"velocity":90,"programNumber":48},{"time":22400,"duration":100,"noteNumber":74,"velocity":90,"programNumber":48},{"time":22500,"duration":100,"noteNumber":71,"velocity":90,"programNumber":48},{"time":22600,"duration":100,"noteNumber":71,"velocity":90,"programNumber":48},{"time":22700,"duration":100,"noteNumber":71,"velocity":90,"programNumber":48},{"time":22800,"duration":100,"noteNumber":71,"velocity":90,"programNumber":48},{"time":22900,"duration":100,"noteNumber":71,"velocity":90,"programNumber":48},{"time":23000,"duration":100,"noteNumber":71,"velocity":90,"programNumber":48},{"time":23100,"duration":100,"noteNumber":71,"velocity":90,"programNumber":48},{"time":23200,"duration":100,"noteNumber":74,"velocity":90,"programNumber":48},{"time":23300,"duration":100,"noteNumber":71,"velocity":90,"programNumber":48},{"time":23400,"duration":100,"noteNumber":71,"velocity":90,"programNumber":48},{"time":23500,"duration":100,"noteNumber":71,"velocity":90,"programNumber":48},{"time":23600,"duration":100,"noteNumber":71,"velocity":90,"programNumber":48},{"time":23700,"duration":100,"noteNumber":71,"velocity":90,"programNumber":48},{"time":23800,"duration":100,"noteNumber":71,"velocity":90,"programNumber":48},{"time":23900,"duration":100,"noteNumber":71,"velocity":90,"programNumber":48},{"time":24000,"duration":100,"noteNumber":72,"velocity":90,"programNumber":48},{"time":24100,"duration":100,"noteNumber":72,"velocity":90,"programNumber":48},{"time":24200,"duration":100,"noteNumber":72,"velocity":90,"programNumber":48},{"time":24300,"duration":100,"noteNumber":72,"velocity":90,"programNumber":48},{"time":24400,"duration":100,"noteNumber":72,"velocity":90,"programNumber":48},{"time":24500,"duration":100,"noteNumber":72,"velocity":90,"programNumber":48},{"time":24600,"duration":100,"noteNumber":72,"velocity":90,"programNumber":48},{"time":24700,"duration":100,"noteNumber":72,"velocity":90,"programNumber":48},{"time":24800,"duration":100,"noteNumber":74,"velocity":90,"programNumber":48},{"time":24900,"duration":100,"noteNumber":74,"velocity":90,"programNumber":48},{"time":25000,"duration":100,"noteNumber":74,"velocity":90,"programNumber":48},{"time":25100,"duration":100,"noteNumber":74,"velocity":90,"programNumber":48},{"time":25200,"duration":100,"noteNumber":74,"velocity":90,"programNumber":48},{"time":25300,"duration":100,"noteNumber":74,"velocity":90,"programNumber":48},{"time":25400,"duration":100,"noteNumber":74,"velocity":90,"programNumber":48},{"time":25500,"duration":100,"noteNumber":74,"velocity":90,"programNumber":48},{"time":25600,"duration":100,"noteNumber":72,"velocity":90,"programNumber":48},{"time":25700,"duration":100,"noteNumber":72,"velocity":90,"programNumber":48},{"time":25800,"duration":100,"noteNumber":72,"velocity":90,"programNumber":48},{"time":25900,"duration":100,"noteNumber":72,"velocity":90,"programNumber":48},{"time":26000,"duration":100,"noteNumber":72,"velocity":90,"programNumber":48},{"time":26100,"duration":100,"noteNumber":72,"velocity":90,"programNumber":48},{"time":26200,"duration":100,"noteNumber":72,"velocity":90,"programNumber":48},{"time":26300,"duration":100,"noteNumber":72,"velocity":90,"programNumber":48},{"time":26400,"duration":100,"noteNumber":72,"velocity":90,"programNumber":48},{"time":26500,"duration":100,"noteNumber":72,"velocity":90,"programNumber":48},{"time":26600,"duration":100,"noteNumber":72,"velocity":90,"programNumber":48},{"time":26700,"duration":100,"noteNumber":72,"velocity":90,"programNumber":48},{"time":26800,"duration":100,"noteNumber":71,"velocity":90,"programNumber":48},{"time":26900,"duration":100,"noteNumber":71,"velocity":90,"programNumber":48},{"time":27000,"duration":100,"noteNumber":69,"velocity":90,"programNumber":48},{"time":27100,"duration":100,"noteNumber":69,"velocity":90,"programNumber":48},{"time":27200,"duration":100,"noteNumber":68,"velocity":90,"programNumber":48},{"time":27300,"duration":100,"noteNumber":68,"velocity":90,"programNumber":48},{"time":27400,"duration":100,"noteNumber":68,"velocity":90,"programNumber":48},{"time":27500,"duration":100,"noteNumber":68,"velocity":90,"programNumber":48},{"time":27600,"duration":100,"noteNumber":69,"velocity":90,"programNumber":48},{"time":27700,"duration":100,"noteNumber":69,"velocity":90,"programNumber":48},{"time":27800,"duration":100,"noteNumber":69,"velocity":90,"programNumber":48},{"time":27900,"duration":100,"noteNumber":69,"velocity":90,"programNumber":48},{"time":28000,"duration":100,"noteNumber":69,"velocity":90,"programNumber":48},{"time":28100,"duration":100,"noteNumber":69,"velocity":90,"programNumber":48},{"time":28200,"duration":100,"noteNumber":71,"velocity":90,"programNumber":48},{"time":28300,"duration":100,"noteNumber":71,"velocity":90,"programNumber":48},{"time":28400,"duration":100,"noteNumber":68,"velocity":90,"programNumber":48},{"time":28500,"duration":100,"noteNumber":68,"velocity":90,"programNumber":48},{"time":28600,"duration":100,"noteNumber":71,"velocity":90,"programNumber":48},{"time":28700,"duration":100,"noteNumber":71,"velocity":90,"programNumber":48},{"time":28800,"duration":200,"noteNumber":69,"velocity":90,"programNumber":48},{"time":29200,"duration":100,"noteNumber":72,"velocity":90,"programNumber":48},{"time":29300,"duration":100,"noteNumber":72,"velocity":90,"programNumber":48},{"time":29400,"duration":100,"noteNumber":71,"velocity":90,"programNumber":48},{"time":29500,"duration":100,"noteNumber":71,"velocity":90,"programNumber":48},{"time":29600,"duration":100,"noteNumber":69,"velocity":90,"programNumber":48},{"time":29700,"duration":100,"noteNumber":69,"velocity":90,"programNumber":48},{"time":29800,"duration":100,"noteNumber":69,"velocity":90,"programNumber":48},{"time":29900,"duration":100,"noteNumber":69,"velocity":90,"programNumber":48},{"time":30000,"duration":100,"noteNumber":69,"velocity":90,"programNumber":48},{"time":30100,"duration":100,"noteNumber":69,"velocity":90,"programNumber":48},{"time":30200,"duration":100,"noteNumber":72,"velocity":90,"programNumber":48},{"time":30300,"duration":100,"noteNumber":72,"velocity":90,"programNumber":48},{"time":30400,"duration":100,"noteNumber":71,"velocity":90,"programNumber":48},{"time":30500,"duration":100,"noteNumber":71,"velocity":90,"programNumber":48},{"time":30600,"duration":100,"noteNumber":69,"velocity":90,"programNumber":48},{"time":30700,"duration":100,"noteNumber":69,"velocity":90,"programNumber":48},{"time":30800,"duration":100,"noteNumber":77,"velocity":90,"programNumber":48},{"time":30900,"duration":100,"noteNumber":77,"velocity":90,"programNumber":48},{"time":31000,"duration":100,"noteNumber":76,"velocity":90,"programNumber":48},{"time":31100,"duration":100,"noteNumber":76,"velocity":90,"programNumber":48},{"time":31200,"duration":100,"noteNumber":74,"velocity":90,"programNumber":48},{"time":31300,"duration":100,"noteNumber":74,"velocity":90,"programNumber":48},{"time":31400,"duration":100,"noteNumber":72,"velocity":90,"programNumber":48},{"time":31500,"duration":100,"noteNumber":72,"velocity":90,"programNumber":48},{"time":31600,"duration":100,"noteNumber":71,"velocity":90,"programNumber":48},{"time":31700,"duration":100,"noteNumber":71,"velocity":90,"programNumber":48},{"time":31800,"duration":100,"noteNumber":68,"velocity":90,"programNumber":48},{"time":31900,"duration":100,"noteNumber":68,"velocity":90,"programNumber":48},{"time":32000,"duration":100,"noteNumber":69,"velocity":90,"programNumber":48},{"time":32100,"duration":100,"noteNumber":69,"velocity":90,"programNumber":48},{"time":32200,"duration":100,"noteNumber":76,"velocity":90,"programNumber":48},{"time":32300,"duration":100,"noteNumber":76,"velocity":90,"programNumber":48},{"time":32400,"duration":100,"noteNumber":69,"velocity":90,"programNumber":48},{"time":32500,"duration":100,"noteNumber":69,"velocity":90,"programNumber":48},{"time":32600,"duration":100,"noteNumber":74,"velocity":90,"programNumber":48},{"time":32700,"duration":100,"noteNumber":74,"velocity":90,"programNumber":48},{"time":32800,"duration":100,"noteNumber":69,"velocity":90,"programNumber":48},{"time":32900,"duration":100,"noteNumber":69,"velocity":90,"programNumber":48},{"time":33000,"duration":100,"noteNumber":72,"velocity":90,"programNumber":48},{"time":33100,"duration":100,"noteNumber":72,"velocity":90,"programNumber":48},{"time":33200,"duration":100,"noteNumber":68,"velocity":90,"programNumber":48},{"time":33300,"duration":100,"noteNumber":68,"velocity":90,"programNumber":48},{"time":33400,"duration":100,"noteNumber":71,"velocity":90,"programNumber":48},{"time":33500,"duration":100,"noteNumber":71,"velocity":90,"programNumber":48},{"time":33600,"duration":100,"noteNumber":69,"velocity":90,"programNumber":48},{"time":33700,"duration":100,"noteNumber":69,"velocity":90,"programNumber":48},{"time":33800,"duration":100,"noteNumber":69,"velocity":90,"programNumber":48},{"time":33900,"duration":100,"noteNumber":69,"velocity":90,"programNumber":48},{"time":34000,"duration":100,"noteNumber":69,"velocity":90,"programNumber":48},{"time":34100,"duration":100,"noteNumber":69,"velocity":90,"programNumber":48},{"time":34200,"duration":100,"noteNumber":69,"velocity":90,"programNumber":48},{"time":34300,"duration":100,"noteNumber":69,"velocity":90,"programNumber":48},{"time":34400,"duration":100,"noteNumber":69,"velocity":90,"programNumber":48},{"time":34500,"duration":100,"noteNumber":69,"velocity":90,"programNumber":48},{"time":34600,"duration":100,"noteNumber":69,"velocity":90,"programNumber":48},{"time":34700,"duration":100,"noteNumber":69,"velocity":90,"programNumber":48},{"time":34800,"duration":100,"noteNumber":69,"velocity":90,"programNumber":48},{"time":34900,"duration":100,"noteNumber":69,"velocity":90,"programNumber":48},{"time":35000,"duration":100,"noteNumber":69,"velocity":90,"programNumber":48},{"time":35100,"duration":100,"noteNumber":69,"velocity":90,"programNumber":48},{"time":35200,"duration":200,"noteNumber":64,"velocity":90,"programNumber":48},{"time":35400,"duration":400,"noteNumber":64,"velocity":90,"programNumber":48},{"time":35800,"duration":400,"noteNumber":64,"velocity":90,"programNumber":48},{"time":36200,"duration":400,"noteNumber":64,"velocity":90,"programNumber":48},{"time":36600,"duration":200,"noteNumber":64,"velocity":90,"programNumber":48},{"time":36800,"duration":100,"noteNumber":62,"velocity":90,"programNumber":48},{"time":36900,"duration":100,"noteNumber":62,"velocity":90,"programNumber":48},{"time":37000,"duration":100,"noteNumber":62,"velocity":90,"programNumber":48},{"time":37100,"duration":100,"noteNumber":62,"velocity":90,"programNumber":48},{"time":37200,"duration":100,"noteNumber":62,"velocity":90,"programNumber":48},{"time":37300,"duration":100,"noteNumber":62,"velocity":90,"programNumber":48},{"time":37400,"duration":100,"noteNumber":62,"velocity":90,"programNumber":48},{"time":37500,"duration":100,"noteNumber":62,"velocity":90,"programNumber":48},{"time":37600,"duration":100,"noteNumber":62,"velocity":90,"programNumber":48},{"time":37700,"duration":100,"noteNumber":62,"velocity":90,"programNumber":48},{"time":37800,"duration":100,"noteNumber":62,"velocity":90,"programNumber":48},{"time":37900,"duration":100,"noteNumber":62,"velocity":90,"programNumber":48},{"time":38000,"duration":100,"noteNumber":62,"velocity":90,"programNumber":48},{"time":38100,"duration":100,"noteNumber":62,"velocity":90,"programNumber":48},{"time":38200,"duration":100,"noteNumber":62,"velocity":90,"programNumber":48},{"time":38300,"duration":100,"noteNumber":62,"velocity":90,"programNumber":48},{"time":38400,"duration":200,"noteNumber":60,"velocity":90,"programNumber":48},{"time":38600,"duration":400,"noteNumber":64,"velocity":90,"programNumber":48},{"time":39000,"duration":400,"noteNumber":64,"velocity":90,"programNumber":48},{"time":39400,"duration":200,"noteNumber":64,"velocity":90,"programNumber":48},{"time":39600,"duration":200,"noteNumber":64,"velocity":90,"programNumber":48},{"time":39800,"duration":200,"noteNumber":64,"velocity":90,"programNumber":48},{"time":40000,"duration":400,"noteNumber":62,"velocity":90,"programNumber":48},{"time":40400,"duration":200,"noteNumber":64,"velocity":90,"programNumber":48},{"time":40600,"duration":200,"noteNumber":64,"velocity":90,"programNumber":48},{"time":40800,"duration":200,"noteNumber":64,"velocity":90,"programNumber":48},{"time":41000,"duration":400,"noteNumber":64,"velocity":90,"programNumber":48},{"time":41400,"duration":200,"noteNumber":64,"velocity":90,"programNumber":48},{"time":41600,"duration":400,"noteNumber":68,"velocity":90,"programNumber":48},{"time":42000,"duration":100,"noteNumber":69,"velocity":90,"programNumber":48},{"time":42100,"duration":100,"noteNumber":64,"velocity":90,"programNumber":48},{"time":42200,"duration":100,"noteNumber":69,"velocity":90,"programNumber":48},{"time":42300,"duration":100,"noteNumber":72,"velocity":90,"programNumber":48},{"time":42400,"duration":200,"noteNumber":76,"velocity":90,"programNumber":48},{"time":42600,"duration":400,"noteNumber":76,"velocity":90,"programNumber":48},{"time":43000,"duration":200,"noteNumber":76,"velocity":90,"programNumber":48},{"time":43200,"duration":100,"noteNumber":77,"velocity":90,"programNumber":48},{"time":43300,"duration":100,"noteNumber":77,"velocity":90,"programNumber":48},{"time":43400,"duration":100,"noteNumber":69,"velocity":90,"programNumber":48},{"time":43500,"duration":100,"noteNumber":69,"velocity":90,"programNumber":48},{"time":43600,"duration":100,"noteNumber":67,"velocity":90,"programNumber":48},{"time":43700,"duration":100,"noteNumber":67,"velocity":90,"programNumber":48},{"time":43800,"duration":100,"noteNumber":79,"velocity":90,"programNumber":48},{"time":43900,"duration":100,"noteNumber":79,"velocity":90,"programNumber":48},{"time":44000,"duration":100,"noteNumber":77,"velocity":90,"programNumber":48},{"time":44100,"duration":100,"noteNumber":77,"velocity":90,"programNumber":48},{"time":44200,"duration":100,"noteNumber":65,"velocity":90,"programNumber":48},{"time":44300,"duration":100,"noteNumber":65,"velocity":90,"programNumber":48},{"time":44400,"duration":100,"noteNumber":72,"velocity":90,"programNumber":48},{"time":44500,"duration":100,"noteNumber":72,"velocity":90,"programNumber":48},{"time":44600,"duration":100,"noteNumber":69,"velocity":90,"programNumber":48},{"time":44700,"duration":100,"noteNumber":69,"velocity":90,"programNumber":48},{"time":44800,"duration":300,"noteNumber":72,"velocity":90,"programNumber":48},{"time":45100,"duration":50,"noteNumber":71,"velocity":90,"programNumber":48},{"time":45150,"duration":50,"noteNumber":72,"velocity":90,"programNumber":48},{"time":45200,"duration":200,"noteNumber":71,"velocity":90,"programNumber":48},{"time":45400,"duration":200,"noteNumber":68,"velocity":90,"programNumber":48},{"time":45600,"duration":200,"noteNumber":67,"velocity":90,"programNumber":48},{"time":45800,"duration":400,"noteNumber":67,"velocity":90,"programNumber":48},{"time":46200,"duration":200,"noteNumber":67,"velocity":90,"programNumber":48},{"time":46400,"duration":200,"noteNumber":68,"velocity":90,"programNumber":48},{"time":46600,"duration":200,"noteNumber":68,"velocity":90,"programNumber":48},{"time":46800,"duration":200,"noteNumber":68,"velocity":90,"programNumber":48},{"time":47000,"duration":200,"noteNumber":68,"velocity":90,"programNumber":48},{"time":47200,"duration":200,"noteNumber":62,"velocity":90,"programNumber":48},{"time":47400,"duration":200,"noteNumber":59,"velocity":90,"programNumber":48},{"time":47600,"duration":200,"noteNumber":59,"velocity":90,"programNumber":48},{"time":47800,"duration":200,"noteNumber":59,"velocity":90,"programNumber":48},{"time":48000,"duration":100,"noteNumber":60,"velocity":90,"programNumber":48},{"time":48100,"duration":100,"noteNumber":63,"velocity":90,"programNumber":48},{"time":48200,"duration":100,"noteNumber":63,"velocity":90,"programNumber":48},{"time":48300,"duration":100,"noteNumber":63,"velocity":90,"programNumber":48},{"time":48400,"duration":100,"noteNumber":63,"velocity":90,"programNumber":48},{"time":48500,"duration":100,"noteNumber":63,"velocity":90,"programNumber":48},{"time":48600,"duration":100,"noteNumber":63,"velocity":90,"programNumber":48},{"time":48700,"duration":100,"noteNumber":63,"velocity":90,"programNumber":48},{"time":48800,"duration":100,"noteNumber":63,"velocity":90,"programNumber":48},{"time":48900,"duration":100,"noteNumber":63,"velocity":90,"programNumber":48},{"time":49000,"duration":100,"noteNumber":63,"velocity":90,"programNumber":48},{"time":49100,"duration":100,"noteNumber":63,"velocity":90,"programNumber":48},{"time":49200,"duration":100,"noteNumber":63,"velocity":90,"programNumber":48},{"time":49300,"duration":100,"noteNumber":63,"velocity":90,"programNumber":48},{"time":49400,"duration":100,"noteNumber":63,"velocity":90,"programNumber":48},{"time":49500,"duration":100,"noteNumber":63,"velocity":90,"programNumber":48},{"time":49600,"duration":100,"noteNumber":67,"velocity":90,"programNumber":48},{"time":49700,"duration":100,"noteNumber":67,"velocity":90,"programNumber":48},{"time":49800,"duration":100,"noteNumber":67,"velocity":90,"programNumber":48},{"time":49900,"duration":100,"noteNumber":67,"velocity":90,"programNumber":48},{"time":50000,"duration":100,"noteNumber":67,"velocity":90,"programNumber":48},{"time":50100,"duration":100,"noteNumber":67,"velocity":90,"programNumber":48},{"time":50200,"duration":100,"noteNumber":67,"velocity":90,"programNumber":48},{"time":50300,"duration":100,"noteNumber":67,"velocity":90,"programNumber":48},{"time":50400,"duration":100,"noteNumber":67,"velocity":90,"programNumber":48},{"time":50500,"duration":100,"noteNumber":67,"velocity":90,"programNumber":48},{"time":50600,"duration":100,"noteNumber":67,"velocity":90,"programNumber":48},{"time":50700,"duration":100,"noteNumber":67,"velocity":90,"programNumber":48},{"time":50800,"duration":100,"noteNumber":67,"velocity":90,"programNumber":48},{"time":50900,"duration":100,"noteNumber":67,"velocity":90,"programNumber":48},{"time":51000,"duration":100,"noteNumber":67,"velocity":90,"programNumber":48},{"time":51100,"duration":100,"noteNumber":67,"velocity":90,"programNumber":48},{"time":51200,"duration":200,"noteNumber":67,"velocity":90,"programNumber":48},{"time":51400,"duration":400,"noteNumber":67,"velocity":90,"programNumber":48},{"time":51800,"duration":400,"noteNumber":67,"velocity":90,"programNumber":48},{"time":52200,"duration":400,"noteNumber":67,"velocity":90,"programNumber":48},{"time":52600,"duration":200,"noteNumber":67,"velocity":90,"programNumber":48},{"time":52800,"duration":100,"noteNumber":64,"velocity":90,"programNumber":48},{"time":52900,"duration":100,"noteNumber":64,"velocity":90,"programNumber":48},{"time":53000,"duration":100,"noteNumber":64,"velocity":90,"programNumber":48},{"time":53100,"duration":100,"noteNumber":64,"velocity":90,"programNumber":48},{"time":53200,"duration":100,"noteNumber":64,"velocity":90,"programNumber":48},{"time":53300,"duration":100,"noteNumber":64,"velocity":90,"programNumber":48},{"time":53400,"duration":100,"noteNumber":64,"velocity":90,"programNumber":48},{"time":53500,"duration":100,"noteNumber":64,"velocity":90,"programNumber":48},{"time":53600,"duration":100,"noteNumber":64,"velocity":90,"programNumber":48},{"time":53700,"duration":100,"noteNumber":64,"velocity":90,"programNumber":48},{"time":53800,"duration":100,"noteNumber":64,"velocity":90,"programNumber":48},{"time":53900,"duration":100,"noteNumber":64,"velocity":90,"programNumber":48},{"time":54000,"duration":100,"noteNumber":64,"velocity":90,"programNumber":48},{"time":54100,"duration":100,"noteNumber":64,"velocity":90,"programNumber":48},{"time":54200,"duration":100,"noteNumber":64,"velocity":90,"programNumber":48},{"time":54300,"duration":100,"noteNumber":64,"velocity":90,"programNumber":48},{"time":54400,"duration":100,"noteNumber":64,"velocity":90,"programNumber":48},{"time":54500,"duration":100,"noteNumber":64,"velocity":90,"programNumber":48},{"time":54600,"duration":100,"noteNumber":64,"velocity":90,"programNumber":48},{"time":54700,"duration":100,"noteNumber":64,"velocity":90,"programNumber":48},{"time":54800,"duration":100,"noteNumber":64,"velocity":90,"programNumber":48},{"time":54900,"duration":100,"noteNumber":64,"velocity":90,"programNumber":48},{"time":55000,"duration":100,"noteNumber":64,"velocity":90,"programNumber":48},{"time":55100,"duration":100,"noteNumber":64,"velocity":90,"programNumber":48},{"time":55200,"duration":100,"noteNumber":64,"velocity":90,"programNumber":48},{"time":55300,"duration":100,"noteNumber":64,"velocity":90,"programNumber":48},{"time":55400,"duration":100,"noteNumber":64,"velocity":90,"programNumber":48},{"time":55500,"duration":100,"noteNumber":64,"velocity":90,"programNumber":48},{"time":55600,"duration":100,"noteNumber":64,"velocity":90,"programNumber":48},{"time":55700,"duration":100,"noteNumber":64,"velocity":90,"programNumber":48},{"time":55800,"duration":100,"noteNumber":64,"velocity":90,"programNumber":48},{"time":55900,"duration":100,"noteNumber":64,"velocity":90,"programNumber":48},{"time":56000,"duration":200,"noteNumber":69,"velocity":90,"programNumber":48},{"time":56200,"duration":400,"noteNumber":69,"velocity":90,"programNumber":48},{"time":56600,"duration":400,"noteNumber":69,"velocity":90,"programNumber":48},{"time":57000,"duration":400,"noteNumber":69,"velocity":90,"programNumber":48},{"time":57400,"duration":200,"noteNumber":69,"velocity":90,"programNumber":48},{"time":57600,"duration":100,"noteNumber":67,"velocity":90,"programNumber":48},{"time":57700,"duration":100,"noteNumber":67,"velocity":90,"programNumber":48},{"time":57800,"duration":100,"noteNumber":67,"velocity":90,"programNumber":48},{"time":57900,"duration":100,"noteNumber":67,"velocity":90,"programNumber":48},{"time":58000,"duration":100,"noteNumber":67,"velocity":90,"programNumber":48},{"time":58100,"duration":100,"noteNumber":67,"velocity":90,"programNumber":48},{"time":58200,"duration":100,"noteNumber":67,"velocity":90,"programNumber":48},{"time":58300,"duration":100,"noteNumber":67,"velocity":90,"programNumber":48},{"time":58400,"duration":100,"noteNumber":63,"velocity":90,"programNumber":48},{"time":58500,"duration":100,"noteNumber":63,"velocity":90,"programNumber":48},{"time":58600,"duration":100,"noteNumber":63,"velocity":90,"programNumber":48},{"time":58700,"duration":100,"noteNumber":63,"velocity":90,"programNumber":48},{"time":58800,"duration":100,"noteNumber":63,"velocity":90,"programNumber":48},{"time":58900,"duration":100,"noteNumber":63,"velocity":90,"programNumber":48},{"time":59000,"duration":100,"noteNumber":63,"velocity":90,"programNumber":48},{"time":59100,"duration":100,"noteNumber":63,"velocity":90,"programNumber":48},{"time":59200,"duration":100,"noteNumber":62,"velocity":90,"programNumber":48},{"time":59300,"duration":100,"noteNumber":62,"velocity":90,"programNumber":48},{"time":59400,"duration":100,"noteNumber":62,"velocity":90,"programNumber":48},{"time":59500,"duration":100,"noteNumber":62,"velocity":90,"programNumber":48},{"time":59600,"duration":100,"noteNumber":62,"velocity":90,"programNumber":48},{"time":59700,"duration":100,"noteNumber":62,"velocity":90,"programNumber":48},{"time":59800,"duration":100,"noteNumber":62,"velocity":90,"programNumber":48},{"time":59900,"duration":100,"noteNumber":62,"velocity":90,"programNumber":48},{"time":60000,"duration":100,"noteNumber":60,"velocity":90,"programNumber":48},{"time":60100,"duration":100,"noteNumber":60,"velocity":90,"programNumber":48},{"time":60200,"duration":100,"noteNumber":60,"velocity":90,"programNumber":48},{"time":60300,"duration":100,"noteNumber":60,"velocity":90,"programNumber":48},{"time":60400,"duration":100,"noteNumber":60,"velocity":90,"programNumber":48},{"time":60500,"duration":100,"noteNumber":60,"velocity":90,"programNumber":48},{"time":60600,"duration":100,"noteNumber":60,"velocity":90,"programNumber":48},{"time":60700,"duration":100,"noteNumber":60,"velocity":90,"programNumber":48},{"time":60800,"duration":100,"noteNumber":67,"velocity":90,"programNumber":48},{"time":60900,"duration":100,"noteNumber":67,"velocity":90,"programNumber":48},{"time":61000,"duration":100,"noteNumber":67,"velocity":90,"programNumber":48},{"time":61100,"duration":100,"noteNumber":67,"velocity":90,"programNumber":48},{"time":61200,"duration":100,"noteNumber":67,"velocity":90,"programNumber":48},{"time":61300,"duration":100,"noteNumber":67,"velocity":90,"programNumber":48},{"time":61400,"duration":100,"noteNumber":67,"velocity":90,"programNumber":48},{"time":61500,"duration":100,"noteNumber":67,"velocity":90,"programNumber":48},{"time":61600,"duration":100,"noteNumber":65,"velocity":90,"programNumber":48},{"time":61700,"duration":100,"noteNumber":65,"velocity":90,"programNumber":48},{"time":61800,"duration":100,"noteNumber":65,"velocity":90,"programNumber":48},{"time":61900,"duration":100,"noteNumber":65,"velocity":90,"programNumber":48},{"time":62000,"duration":100,"noteNumber":65,"velocity":90,"programNumber":48},{"time":62100,"duration":100,"noteNumber":65,"velocity":90,"programNumber":48},{"time":62200,"duration":100,"noteNumber":65,"velocity":90,"programNumber":48},{"time":62300,"duration":100,"noteNumber":65,"velocity":90,"programNumber":48},{"time":62400,"duration":100,"noteNumber":65,"velocity":90,"programNumber":48},{"time":62500,"duration":100,"noteNumber":65,"velocity":90,"programNumber":48},{"time":62600,"duration":100,"noteNumber":65,"velocity":90,"programNumber":48},{"time":62700,"duration":100,"noteNumber":65,"velocity":90,"programNumber":48},{"time":62800,"duration":100,"noteNumber":64,"velocity":90,"programNumber":48},{"time":62900,"duration":100,"noteNumber":64,"velocity":90,"programNumber":48},{"time":63000,"duration":100,"noteNumber":64,"velocity":90,"programNumber":48},{"time":63100,"duration":100,"noteNumber":64,"velocity":90,"programNumber":48},{"time":63200,"duration":600,"noteNumber":57,"velocity":90,"programNumber":48},{"time":63800,"duration":200,"noteNumber":57,"velocity":90,"programNumber":48},{"time":64000,"duration":100,"noteNumber":56,"velocity":90,"programNumber":48},{"time":64100,"duration":100,"noteNumber":56,"velocity":90,"programNumber":48},{"time":64200,"duration":100,"noteNumber":57,"velocity":90,"programNumber":48},{"time":64300,"duration":100,"noteNumber":57,"velocity":90,"programNumber":48},{"time":64400,"duration":100,"noteNumber":56,"velocity":90,"programNumber":48},{"time":64500,"duration":100,"noteNumber":56,"velocity":90,"programNumber":48},{"time":64600,"duration":100,"noteNumber":57,"velocity":90,"programNumber":48},{"time":64700,"duration":100,"noteNumber":57,"velocity":90,"programNumber":48},{"time":64800,"duration":100,"noteNumber":56,"velocity":90,"programNumber":48},{"time":64900,"duration":100,"noteNumber":56,"velocity":90,"programNumber":48},{"time":65000,"duration":100,"noteNumber":57,"velocity":90,"programNumber":48},{"time":65100,"duration":100,"noteNumber":57,"velocity":90,"programNumber":48},{"time":65200,"duration":100,"noteNumber":56,"velocity":90,"programNumber":48},{"time":65300,"duration":100,"noteNumber":56,"velocity":90,"programNumber":48},{"time":65400,"duration":100,"noteNumber":57,"velocity":90,"programNumber":48},{"time":65500,"duration":100,"noteNumber":57,"velocity":90,"programNumber":48},{"time":65600,"duration":400,"noteNumber":58,"velocity":90,"programNumber":48},{"time":66000,"duration":400,"noteNumber":57,"velocity":90,"programNumber":48},{"time":66400,"duration":600,"noteNumber":69,"velocity":90,"programNumber":48},{"time":67000,"duration":200,"noteNumber":69,"velocity":90,"programNumber":48},{"time":67200,"duration":400,"noteNumber":68,"velocity":90,"programNumber":48},{"time":67600,"duration":400,"noteNumber":69,"velocity":90,"programNumber":48},{"time":68000,"duration":600,"noteNumber":69,"velocity":90,"programNumber":48},{"time":68600,"duration":200,"noteNumber":69,"velocity":90,"programNumber":48},{"time":68800,"duration":400,"noteNumber":68,"velocity":90,"programNumber":48},{"time":69200,"duration":400,"noteNumber":69,"velocity":90,"programNumber":48},{"time":69600,"duration":600,"noteNumber":57,"velocity":90,"programNumber":48},{"time":70200,"duration":200,"noteNumber":57,"velocity":90,"programNumber":48},{"time":70400,"duration":100,"noteNumber":56,"velocity":90,"programNumber":48},{"time":70500,"duration":100,"noteNumber":56,"velocity":90,"programNumber":48},{"time":70600,"duration":100,"noteNumber":57,"velocity":90,"programNumber":48},{"time":70700,"duration":100,"noteNumber":57,"velocity":90,"programNumber":48},{"time":70800,"duration":100,"noteNumber":56,"velocity":90,"programNumber":48},{"time":70900,"duration":100,"noteNumber":56,"velocity":90,"programNumber":48},{"time":71000,"duration":100,"noteNumber":57,"velocity":90,"programNumber":48},{"time":71100,"duration":100,"noteNumber":57,"velocity":90,"programNumber":48},{"time":71200,"duration":100,"noteNumber":56,"velocity":90,"programNumber":48},{"time":71300,"duration":100,"noteNumber":56,"velocity":90,"programNumber":48},{"time":71400,"duration":100,"noteNumber":57,"velocity":90,"programNumber":48},{"time":71500,"duration":100,"noteNumber":57,"velocity":90,"programNumber":48},{"time":71600,"duration":100,"noteNumber":56,"velocity":90,"programNumber":48},{"time":71700,"duration":100,"noteNumber":56,"velocity":90,"programNumber":48},{"time":71800,"duration":100,"noteNumber":57,"velocity":90,"programNumber":48},{"time":71900,"duration":100,"noteNumber":57,"velocity":90,"programNumber":48},{"time":72000,"duration":400,"noteNumber":58,"velocity":90,"programNumber":48},{"time":72400,"duration":400,"noteNumber":57,"velocity":90,"programNumber":48},{"time":72800,"duration":600,"noteNumber":64,"velocity":90,"programNumber":48},{"time":73400,"duration":200,"noteNumber":64,"velocity":90,"programNumber":48},{"time":73600,"duration":400,"noteNumber":65,"velocity":90,"programNumber":48},{"time":74000,"duration":400,"noteNumber":64,"velocity":90,"programNumber":48},{"time":74400,"duration":600,"noteNumber":64,"velocity":90,"programNumber":48},{"time":75000,"duration":200,"noteNumber":64,"velocity":90,"programNumber":48},{"time":75200,"duration":400,"noteNumber":65,"velocity":90,"programNumber":48},{"time":75600,"duration":400,"noteNumber":64,"velocity":90,"programNumber":48},{"time":76000,"duration":600,"noteNumber":57,"velocity":90,"programNumber":48},{"time":76600,"duration":200,"noteNumber":57,"velocity":90,"programNumber":48},{"time":76800,"duration":100,"noteNumber":56,"velocity":90,"programNumber":48},{"time":76900,"duration":100,"noteNumber":56,"velocity":90,"programNumber":48},{"time":77000,"duration":100,"noteNumber":57,"velocity":90,"programNumber":48},{"time":77100,"duration":100,"noteNumber":57,"velocity":90,"programNumber":48},{"time":77200,"duration":100,"noteNumber":56,"velocity":90,"programNumber":48},{"time":77300,"duration":100,"noteNumber":56,"velocity":90,"programNumber":48},{"time":77400,"duration":100,"noteNumber":57,"velocity":90,"programNumber":48},{"time":77500,"duration":100,"noteNumber":57,"velocity":90,"programNumber":48},{"time":77600,"duration":100,"noteNumber":56,"velocity":90,"programNumber":48},{"time":77700,"duration":100,"noteNumber":56,"velocity":90,"programNumber":48},{"time":77800,"duration":100,"noteNumber":57,"velocity":90,"programNumber":48},{"time":77900,"duration":100,"noteNumber":57,"velocity":90,"programNumber":48},{"time":78000,"duration":100,"noteNumber":56,"velocity":90,"programNumber":48},{"time":78100,"duration":100,"noteNumber":56,"velocity":90,"programNumber":48},{"time":78200,"duration":100,"noteNumber":57,"velocity":90,"programNumber":48},{"time":78300,"duration":100,"noteNumber":57,"velocity":90,"programNumber":48},{"time":78400,"duration":200,"noteNumber":58,"velocity":90,"programNumber":48},{"time":78600,"duration":100,"noteNumber":67,"velocity":90,"programNumber":48},{"time":78700,"duration":100,"noteNumber":67,"velocity":90,"programNumber":48},{"time":78800,"duration":100,"noteNumber":70,"velocity":90,"programNumber":48},{"time":78900,"duration":100,"noteNumber":70,"velocity":90,"programNumber":48},{"time":79000,"duration":100,"noteNumber":74,"velocity":90,"programNumber":48},{"time":79100,"duration":100,"noteNumber":74,"velocity":90,"programNumber":48},{"time":79200,"duration":200,"noteNumber":79,"velocity":90,"programNumber":48},{"time":79400,"duration":400,"noteNumber":67,"velocity":90,"programNumber":48},{"time":79800,"duration":200,"noteNumber":67,"velocity":90,"programNumber":48},{"time":80000,"duration":100,"noteNumber":69,"velocity":90,"programNumber":48},{"time":80100,"duration":100,"noteNumber":69,"velocity":90,"programNumber":48},{"time":80200,"duration":100,"noteNumber":70,"velocity":90,"programNumber":48},{"time":80300,"duration":100,"noteNumber":70,"velocity":90,"programNumber":48},{"time":80400,"duration":100,"noteNumber":69,"velocity":90,"programNumber":48},{"time":80500,"duration":100,"noteNumber":69,"velocity":90,"programNumber":48},{"time":80600,"duration":100,"noteNumber":70,"velocity":90,"programNumber":48},{"time":80700,"duration":100,"noteNumber":70,"velocity":90,"programNumber":48},{"time":80800,"duration":100,"noteNumber":69,"velocity":90,"programNumber":48},{"time":80900,"duration":100,"noteNumber":69,"velocity":90,"programNumber":48},{"time":81000,"duration":100,"noteNumber":70,"velocity":90,"programNumber":48},{"time":81100,"duration":100,"noteNumber":70,"velocity":90,"programNumber":48},{"time":81200,"duration":100,"noteNumber":69,"velocity":90,"programNumber":48},{"time":81300,"duration":100,"noteNumber":69,"velocity":90,"programNumber":48},{"time":81400,"duration":100,"noteNumber":70,"velocity":90,"programNumber":48},{"time":81500,"duration":100,"noteNumber":70,"velocity":90,"programNumber":48},{"time":81600,"duration":100,"noteNumber":64,"velocity":90,"programNumber":48},{"time":81700,"duration":100,"noteNumber":67,"velocity":90,"programNumber":48},{"time":81800,"duration":100,"noteNumber":64,"velocity":90,"programNumber":48},{"time":81900,"duration":100,"noteNumber":67,"velocity":90,"programNumber":48},{"time":82000,"duration":100,"noteNumber":64,"velocity":90,"programNumber":48},{"time":82100,"duration":100,"noteNumber":69,"velocity":90,"programNumber":48},{"time":82200,"duration":100,"noteNumber":73,"velocity":90,"programNumber":48},{"time":82300,"duration":100,"noteNumber":76,"velocity":90,"programNumber":48},{"time":82400,"duration":200,"noteNumber":81,"velocity":90,"programNumber":48},{"time":82600,"duration":400,"noteNumber":73,"velocity":90,"programNumber":48},{"time":83000,"duration":200,"noteNumber":73,"velocity":90,"programNumber":48},{"time":83200,"duration":100,"noteNumber":74,"velocity":90,"programNumber":48},{"time":83300,"duration":100,"noteNumber":74,"velocity":90,"programNumber":48},{"time":83400,"duration":100,"noteNumber":74,"velocity":90,"programNumber":48},{"time":83500,"duration":100,"noteNumber":74,"velocity":90,"programNumber":48},{"time":83600,"duration":100,"noteNumber":73,"velocity":90,"programNumber":48},{"time":83700,"duration":100,"noteNumber":73,"velocity":90,"programNumber":48},{"time":83800,"duration":100,"noteNumber":73,"velocity":90,"programNumber":48},{"time":83900,"duration":100,"noteNumber":73,"velocity":90,"programNumber":48},{"time":84000,"duration":100,"noteNumber":74,"velocity":90,"programNumber":48},{"time":84100,"duration":100,"noteNumber":74,"velocity":90,"programNumber":48},{"time":84200,"duration":100,"noteNumber":74,"velocity":90,"programNumber":48},{"time":84300,"duration":100,"noteNumber":74,"velocity":90,"programNumber":48},{"time":84400,"duration":100,"noteNumber":73,"velocity":90,"programNumber":48},{"time":84500,"duration":100,"noteNumber":73,"velocity":90,"programNumber":48},{"time":84600,"duration":100,"noteNumber":73,"velocity":90,"programNumber":48},{"time":84700,"duration":100,"noteNumber":73,"velocity":90,"programNumber":48},{"time":84800,"duration":100,"noteNumber":74,"velocity":90,"programNumber":48},{"time":84900,"duration":100,"noteNumber":74,"velocity":90,"programNumber":48},{"time":85000,"duration":100,"noteNumber":74,"velocity":90,"programNumber":48},{"time":85100,"duration":100,"noteNumber":74,"velocity":90,"programNumber":48},{"time":85200,"duration":100,"noteNumber":73,"velocity":90,"programNumber":48},{"time":85300,"duration":100,"noteNumber":69,"velocity":90,"programNumber":48},{"time":85400,"duration":100,"noteNumber":73,"velocity":90,"programNumber":48},{"time":85500,"duration":100,"noteNumber":76,"velocity":90,"programNumber":48},{"time":85600,"duration":200,"noteNumber":81,"velocity":90,"programNumber":48},{"time":85800,"duration":400,"noteNumber":77,"velocity":90,"programNumber":48},{"time":86200,"duration":200,"noteNumber":77,"velocity":90,"programNumber":48},{"time":86400,"duration":100,"noteNumber":79,"velocity":90,"programNumber":48},{"time":86500,"duration":100,"noteNumber":79,"velocity":90,"programNumber":48},{"time":86600,"duration":100,"noteNumber":79,"velocity":90,"programNumber":48},{"time":86700,"duration":100,"noteNumber":79,"velocity":90,"programNumber":48},{"time":86800,"duration":100,"noteNumber":77,"velocity":90,"programNumber":48},{"time":86900,"duration":100,"noteNumber":77,"velocity":90,"programNumber":48},{"time":87000,"duration":100,"noteNumber":77,"velocity":90,"programNumber":48},{"time":87100,"duration":100,"noteNumber":77,"velocity":90,"programNumber":48},{"time":87200,"duration":100,"noteNumber":79,"velocity":90,"programNumber":48},{"time":87300,"duration":100,"noteNumber":79,"velocity":90,"programNumber":48},{"time":87400,"duration":100,"noteNumber":79,"velocity":90,"programNumber":48},{"time":87500,"duration":100,"noteNumber":79,"velocity":90,"programNumber":48},{"time":87600,"duration":100,"noteNumber":77,"velocity":90,"programNumber":48},{"time":87700,"duration":100,"noteNumber":77,"velocity":90,"programNumber":48},{"time":87800,"duration":100,"noteNumber":77,"velocity":90,"programNumber":48},{"time":87900,"duration":100,"noteNumber":77,"velocity":90,"programNumber":48},{"time":88000,"duration":100,"noteNumber":79,"velocity":90,"programNumber":48},{"time":88100,"duration":100,"noteNumber":79,"velocity":90,"programNumber":48},{"time":88200,"duration":100,"noteNumber":79,"velocity":90,"programNumber":48},{"time":88300,"duration":100,"noteNumber":79,"velocity":90,"programNumber":48},{"time":88400,"duration":200,"noteNumber":77,"velocity":90,"programNumber":48},{"time":88600,"duration":100,"noteNumber":81,"velocity":90,"programNumber":48},{"time":88700,"duration":100,"noteNumber":81,"velocity":90,"programNumber":48},{"time":88800,"duration":100,"noteNumber":77,"velocity":90,"programNumber":48},{"time":88900,"duration":100,"noteNumber":77,"velocity":90,"programNumber":48},{"time":89000,"duration":100,"noteNumber":74,"velocity":90,"programNumber":48},{"time":89100,"duration":100,"noteNumber":74,"velocity":90,"programNumber":48},{"time":89200,"duration":100,"noteNumber":77,"velocity":90,"programNumber":48},{"time":89300,"duration":100,"noteNumber":77,"velocity":90,"programNumber":48},{"time":89400,"duration":100,"noteNumber":81,"velocity":90,"programNumber":48},{"time":89500,"duration":100,"noteNumber":81,"velocity":90,"programNumber":48},{"time":89600,"duration":100,"noteNumber":86,"velocity":90,"programNumber":48},{"time":89700,"duration":100,"noteNumber":86,"velocity":90,"programNumber":48},{"time":89800,"duration":100,"noteNumber":81,"velocity":90,"programNumber":48},{"time":89900,"duration":100,"noteNumber":81,"velocity":90,"programNumber":48},{"time":90000,"duration":100,"noteNumber":77,"velocity":90,"programNumber":48},{"time":90100,"duration":100,"noteNumber":77,"velocity":90,"programNumber":48},{"time":90200,"duration":100,"noteNumber":74,"velocity":90,"programNumber":48},{"time":90300,"duration":100,"noteNumber":74,"velocity":90,"programNumber":48},{"time":90400,"duration":100,"noteNumber":86,"velocity":90,"programNumber":48},{"time":90500,"duration":100,"noteNumber":86,"velocity":90,"programNumber":48},{"time":90600,"duration":100,"noteNumber":81,"velocity":90,"programNumber":48},{"time":90700,"duration":100,"noteNumber":81,"velocity":90,"programNumber":48},{"time":90800,"duration":100,"noteNumber":77,"velocity":90,"programNumber":48},{"time":90900,"duration":100,"noteNumber":77,"velocity":90,"programNumber":48},{"time":91000,"duration":100,"noteNumber":74,"velocity":90,"programNumber":48},{"time":91100,"duration":100,"noteNumber":74,"velocity":90,"programNumber":48},{"time":91200,"duration":100,"noteNumber":86,"velocity":90,"programNumber":48},{"time":91300,"duration":100,"noteNumber":86,"velocity":90,"programNumber":48},{"time":91400,"duration":100,"noteNumber":81,"velocity":90,"programNumber":48},{"time":91500,"duration":100,"noteNumber":81,"velocity":90,"programNumber":48},{"time":91600,"duration":100,"noteNumber":77,"velocity":90,"programNumber":48},{"time":91700,"duration":100,"noteNumber":77,"velocity":90,"programNumber":48},{"time":91800,"duration":100,"noteNumber":74,"velocity":90,"programNumber":48},{"time":91900,"duration":100,"noteNumber":74,"velocity":90,"programNumber":48},{"time":92000,"duration":100,"noteNumber":86,"velocity":90,"programNumber":48},{"time":92100,"duration":100,"noteNumber":86,"velocity":90,"programNumber":48},{"time":92200,"duration":100,"noteNumber":81,"velocity":90,"programNumber":48},{"time":92300,"duration":100,"noteNumber":81,"velocity":90,"programNumber":48},{"time":92400,"duration":100,"noteNumber":77,"velocity":90,"programNumber":48},{"time":92500,"duration":100,"noteNumber":77,"velocity":90,"programNumber":48},{"time":92600,"duration":100,"noteNumber":74,"velocity":90,"programNumber":48},{"time":92700,"duration":100,"noteNumber":74,"velocity":90,"programNumber":48},{"time":92800,"duration":100,"noteNumber":86,"velocity":90,"programNumber":48},{"time":92900,"duration":100,"noteNumber":86,"velocity":90,"programNumber":48},{"time":93000,"duration":100,"noteNumber":81,"velocity":90,"programNumber":48},{"time":93100,"duration":100,"noteNumber":81,"velocity":90,"programNumber":48},{"time":93200,"duration":100,"noteNumber":77,"velocity":90,"programNumber":48},{"time":93300,"duration":100,"noteNumber":77,"velocity":90,"programNumber":48},{"time":93400,"duration":100,"noteNumber":74,"velocity":90,"programNumber":48},{"time":93500,"duration":100,"noteNumber":74,"velocity":90,"programNumber":48},{"time":93600,"duration":100,"noteNumber":86,"velocity":90,"programNumber":48},{"time":93700,"duration":100,"noteNumber":86,"velocity":90,"programNumber":48},{"time":93800,"duration":100,"noteNumber":81,"velocity":90,"programNumber":48},{"time":93900,"duration":100,"noteNumber":81,"velocity":90,"programNumber":48},{"time":94000,"duration":100,"noteNumber":77,"velocity":90,"programNumber":48},{"time":94100,"duration":100,"noteNumber":77,"velocity":90,"programNumber":48},{"time":94200,"duration":100,"noteNumber":74,"velocity":90,"programNumber":48},{"time":94300,"duration":100,"noteNumber":74,"velocity":90,"programNumber":48},{"time":94400,"duration":100,"noteNumber":85,"velocity":90,"programNumber":48},{"time":94500,"duration":100,"noteNumber":85,"velocity":90,"programNumber":48},{"time":94600,"duration":100,"noteNumber":79,"velocity":90,"programNumber":48},{"time":94700,"duration":100,"noteNumber":79,"velocity":90,"programNumber":48},{"time":94800,"duration":100,"noteNumber":77,"velocity":90,"programNumber":48},{"time":94900,"duration":100,"noteNumber":77,"velocity":90,"programNumber":48},{"time":95000,"duration":100,"noteNumber":86,"velocity":90,"programNumber":48},{"time":95100,"duration":100,"noteNumber":86,"velocity":90,"programNumber":48},{"time":95200,"duration":100,"noteNumber":76,"velocity":90,"programNumber":48},{"time":95300,"duration":100,"noteNumber":76,"velocity":90,"programNumber":48},{"time":95400,"duration":100,"noteNumber":86,"velocity":90,"programNumber":48},{"time":95500,"duration":100,"noteNumber":86,"velocity":90,"programNumber":48},{"time":95600,"duration":100,"noteNumber":76,"velocity":90,"programNumber":48},{"time":95700,"duration":100,"noteNumber":76,"velocity":90,"programNumber":48},{"time":95800,"duration":100,"noteNumber":85,"velocity":90,"programNumber":48},{"time":95900,"duration":100,"noteNumber":85,"velocity":90,"programNumber":48},{"time":96000,"duration":100,"noteNumber":86,"velocity":90,"programNumber":48},{"time":96100,"duration":100,"noteNumber":86,"velocity":90,"programNumber":48},{"time":96200,"duration":100,"noteNumber":81,"velocity":90,"programNumber":48},{"time":96300,"duration":100,"noteNumber":81,"velocity":90,"programNumber":48},{"time":96400,"duration":100,"noteNumber":77,"velocity":90,"programNumber":48},{"time":96500,"duration":100,"noteNumber":77,"velocity":90,"programNumber":48},{"time":96600,"duration":100,"noteNumber":74,"velocity":90,"programNumber":48},{"time":96700,"duration":100,"noteNumber":74,"velocity":90,"programNumber":48},{"time":96800,"duration":100,"noteNumber":86,"velocity":90,"programNumber":48},{"time":96900,"duration":100,"noteNumber":86,"velocity":90,"programNumber":48},{"time":97000,"duration":100,"noteNumber":81,"velocity":90,"programNumber":48},{"time":97100,"duration":100,"noteNumber":81,"velocity":90,"programNumber":48},{"time":97200,"duration":100,"noteNumber":77,"velocity":90,"programNumber":48},{"time":97300,"duration":100,"noteNumber":77,"velocity":90,"programNumber":48},{"time":97400,"duration":100,"noteNumber":74,"velocity":90,"programNumber":48},{"time":97500,"duration":100,"noteNumber":74,"velocity":90,"programNumber":48},{"time":97600,"duration":100,"noteNumber":86,"velocity":90,"programNumber":48},{"time":97700,"duration":100,"noteNumber":86,"velocity":90,"programNumber":48},{"time":97800,"duration":100,"noteNumber":82,"velocity":90,"programNumber":48},{"time":97900,"duration":100,"noteNumber":82,"velocity":90,"programNumber":48},{"time":98000,"duration":100,"noteNumber":77,"velocity":90,"programNumber":48},{"time":98100,"duration":100,"noteNumber":77,"velocity":90,"programNumber":48},{"time":98200,"duration":100,"noteNumber":74,"velocity":90,"programNumber":48},{"time":98300,"duration":100,"noteNumber":74,"velocity":90,"programNumber":48},{"time":98400,"duration":100,"noteNumber":86,"velocity":90,"programNumber":48},{"time":98500,"duration":100,"noteNumber":86,"velocity":90,"programNumber":48},{"time":98600,"duration":100,"noteNumber":82,"velocity":90,"programNumber":48},{"time":98700,"duration":100,"noteNumber":82,"velocity":90,"programNumber":48},{"time":98800,"duration":100,"noteNumber":77,"velocity":90,"programNumber":48},{"time":98900,"duration":100,"noteNumber":77,"velocity":90,"programNumber":48},{"time":99000,"duration":100,"noteNumber":74,"velocity":90,"programNumber":48},{"time":99100,"duration":100,"noteNumber":74,"velocity":90,"programNumber":48},{"time":99200,"duration":100,"noteNumber":87,"velocity":90,"programNumber":48},{"time":99300,"duration":100,"noteNumber":87,"velocity":90,"programNumber":48},{"time":99400,"duration":100,"noteNumber":82,"velocity":90,"programNumber":48},{"time":99500,"duration":100,"noteNumber":82,"velocity":90,"programNumber":48},{"time":99600,"duration":100,"noteNumber":79,"velocity":90,"programNumber":48},{"time":99700,"duration":100,"noteNumber":79,"velocity":90,"programNumber":48},{"time":99800,"duration":100,"noteNumber":75,"velocity":90,"programNumber":48},{"time":99900,"duration":100,"noteNumber":75,"velocity":90,"programNumber":48},{"time":100000,"duration":100,"noteNumber":82,"velocity":90,"programNumber":48},{"time":100100,"duration":100,"noteNumber":82,"velocity":90,"programNumber":48},{"time":100200,"duration":100,"noteNumber":79,"velocity":90,"programNumber":48},{"time":100300,"duration":100,"noteNumber":79,"velocity":90,"programNumber":48},{"time":100400,"duration":100,"noteNumber":75,"velocity":90,"programNumber":48},{"time":100500,"duration":100,"noteNumber":75,"velocity":90,"programNumber":48},{"time":100600,"duration":100,"noteNumber":74,"velocity":90,"programNumber":48},{"time":100700,"duration":100,"noteNumber":74,"velocity":90,"programNumber":48},{"time":100800,"duration":100,"noteNumber":73,"velocity":90,"programNumber":48},{"time":100900,"duration":100,"noteNumber":73,"velocity":90,"programNumber":48},{"time":101000,"duration":100,"noteNumber":79,"velocity":90,"programNumber":48},{"time":101100,"duration":100,"noteNumber":79,"velocity":90,"programNumber":48},{"time":101200,"duration":100,"noteNumber":77,"velocity":90,"programNumber":48},{"time":101300,"duration":100,"noteNumber":77,"velocity":90,"programNumber":48},{"time":101400,"duration":100,"noteNumber":86,"velocity":90,"programNumber":48},{"time":101500,"duration":100,"noteNumber":86,"velocity":90,"programNumber":48},{"time":101600,"duration":100,"noteNumber":76,"velocity":90,"programNumber":48},{"time":101700,"duration":100,"noteNumber":76,"velocity":90,"programNumber":48},{"time":101800,"duration":100,"noteNumber":86,"velocity":90,"programNumber":48},{"time":101900,"duration":100,"noteNumber":86,"velocity":90,"programNumber":48},{"time":102000,"duration":100,"noteNumber":69,"velocity":90,"programNumber":48},{"time":102100,"duration":100,"noteNumber":69,"velocity":90,"programNumber":48},{"time":102200,"duration":100,"noteNumber":85,"velocity":90,"programNumber":48},{"time":102300,"duration":100,"noteNumber":85,"velocity":90,"programNumber":48},{"time":102400,"duration":400,"noteNumber":74,"velocity":90,"programNumber":48},{"time":103000,"duration":100,"noteNumber":65,"velocity":90,"programNumber":48},{"time":103100,"duration":100,"noteNumber":65,"velocity":90,"programNumber":48},{"time":103200,"duration":100,"noteNumber":64,"velocity":90,"programNumber":48},{"time":103300,"duration":100,"noteNumber":64,"velocity":90,"programNumber":48},{"time":103400,"duration":100,"noteNumber":62,"velocity":90,"programNumber":48},{"time":103500,"duration":100,"noteNumber":62,"velocity":90,"programNumber":48},{"time":103600,"duration":100,"noteNumber":64,"velocity":90,"programNumber":48},{"time":103700,"duration":100,"noteNumber":64,"velocity":90,"programNumber":48},{"time":103800,"duration":100,"noteNumber":65,"velocity":90,"programNumber":48},{"time":103900,"duration":100,"noteNumber":65,"velocity":90,"programNumber":48},{"time":104000,"duration":100,"noteNumber":64,"velocity":90,"programNumber":48},{"time":104100,"duration":100,"noteNumber":64,"velocity":90,"programNumber":48},{"time":104200,"duration":100,"noteNumber":62,"velocity":90,"programNumber":48},{"time":104300,"duration":100,"noteNumber":62,"velocity":90,"programNumber":48},{"time":104400,"duration":100,"noteNumber":70,"velocity":90,"programNumber":48},{"time":104500,"duration":100,"noteNumber":70,"velocity":90,"programNumber":48},{"time":104600,"duration":100,"noteNumber":69,"velocity":90,"programNumber":48},{"time":104700,"duration":100,"noteNumber":69,"velocity":90,"programNumber":48},{"time":104800,"duration":100,"noteNumber":67,"velocity":90,"programNumber":48},{"time":104900,"duration":100,"noteNumber":67,"velocity":90,"programNumber":48},{"time":105000,"duration":100,"noteNumber":65,"velocity":90,"programNumber":48},{"time":105100,"duration":100,"noteNumber":65,"velocity":90,"programNumber":48},{"time":105200,"duration":100,"noteNumber":64,"velocity":90,"programNumber":48},{"time":105300,"duration":100,"noteNumber":64,"velocity":90,"programNumber":48},{"time":105400,"duration":100,"noteNumber":73,"velocity":90,"programNumber":48},{"time":105500,"duration":100,"noteNumber":73,"velocity":90,"programNumber":48},{"time":105600,"duration":100,"noteNumber":74,"velocity":90,"programNumber":48},{"time":105700,"duration":100,"noteNumber":74,"velocity":90,"programNumber":48},{"time":105800,"duration":100,"noteNumber":74,"velocity":90,"programNumber":48},{"time":105900,"duration":100,"noteNumber":74,"velocity":90,"programNumber":48},{"time":106000,"duration":100,"noteNumber":74,"velocity":90,"programNumber":48},{"time":106100,"duration":100,"noteNumber":74,"velocity":90,"programNumber":48},{"time":106200,"duration":100,"noteNumber":74,"velocity":90,"programNumber":48},{"time":106300,"duration":100,"noteNumber":74,"velocity":90,"programNumber":48},{"time":106400,"duration":100,"noteNumber":74,"velocity":90,"programNumber":48},{"time":106500,"duration":100,"noteNumber":74,"velocity":90,"programNumber":48},{"time":106600,"duration":100,"noteNumber":77,"velocity":90,"programNumber":48},{"time":106700,"duration":100,"noteNumber":77,"velocity":90,"programNumber":48},{"time":106800,"duration":100,"noteNumber":73,"velocity":90,"programNumber":48},{"time":106900,"duration":100,"noteNumber":73,"velocity":90,"programNumber":48},{"time":107000,"duration":100,"noteNumber":76,"velocity":90,"programNumber":48},{"time":107100,"duration":100,"noteNumber":76,"velocity":90,"programNumber":48},{"time":107200,"duration":400,"noteNumber":74,"velocity":90,"programNumber":48},{"time":107600,"duration":400,"noteNumber":62,"velocity":90,"programNumber":48}],[{"time":33.333333333333336,"duration":99.99999999999997,"noteNumber":57,"velocity":90,"programNumber":48},{"time":100,"duration":99.99999999999997,"noteNumber":62,"velocity":90,"programNumber":48},{"time":199.99999999999997,"duration":100.00000000000003,"noteNumber":62,"velocity":90,"programNumber":48},{"time":300,"duration":100,"noteNumber":62,"velocity":90,"programNumber":48},{"time":400,"duration":100,"noteNumber":62,"velocity":90,"programNumber":48},{"time":500,"duration":100,"noteNumber":62,"velocity":90,"programNumber":48},{"time":600,"duration":100,"noteNumber":62,"velocity":90,"programNumber":48},{"time":700,"duration":100,"noteNumber":62,"velocity":90,"programNumber":48},{"time":800,"duration":100,"noteNumber":57,"velocity":90,"programNumber":48},{"time":900,"duration":100,"noteNumber":62,"velocity":90,"programNumber":48},{"time":1000,"duration":100,"noteNumber":62,"velocity":90,"programNumber":48},{"time":1100,"duration":100,"noteNumber":62,"velocity":90,"programNumber":48},{"time":1200,"duration":100,"noteNumber":62,"velocity":90,"programNumber":48},{"time":1300,"duration":100,"noteNumber":62,"velocity":90,"programNumber":48},{"time":1400,"duration":100,"noteNumber":62,"velocity":90,"programNumber":48},{"time":1500,"duration":100,"noteNumber":62,"velocity":90,"programNumber":48},{"time":1600,"duration":200,"noteNumber":57,"velocity":90,"programNumber":48},{"time":1800,"duration":400,"noteNumber":64,"velocity":90,"programNumber":48},{"time":2200,"duration":400,"noteNumber":64,"velocity":90,"programNumber":48},{"time":2600,"duration":400,"noteNumber":64,"velocity":90,"programNumber":48},{"time":3000,"duration":200,"noteNumber":64,"velocity":90,"programNumber":48},{"time":3200,"duration":100,"noteNumber":57,"velocity":90,"programNumber":48},{"time":3300,"duration":100,"noteNumber":57,"velocity":90,"programNumber":48},{"time":3400,"duration":100,"noteNumber":57,"velocity":90,"programNumber":48},{"time":3500,"duration":100,"noteNumber":57,"velocity":90,"programNumber":48},{"time":3600,"duration":100,"noteNumber":57,"velocity":90,"programNumber":48},{"time":3700,"duration":100,"noteNumber":57,"velocity":90,"programNumber":48},{"time":3800,"duration":100,"noteNumber":57,"velocity":90,"programNumber":48},{"time":3900,"duration":100,"noteNumber":57,"velocity":90,"programNumber":48},{"time":4000,"duration":100,"noteNumber":57,"velocity":90,"programNumber":48},{"time":4100,"duration":100,"noteNumber":57,"velocity":90,"programNumber":48},{"time":4200,"duration":100,"noteNumber":57,"velocity":90,"programNumber":48},{"time":4300,"duration":100,"noteNumber":57,"velocity":90,"programNumber":48},{"time":4400,"duration":100,"noteNumber":57,"velocity":90,"programNumber":48},{"time":4500,"duration":100,"noteNumber":57,"velocity":90,"programNumber":48},{"time":4600,"duration":100,"noteNumber":57,"velocity":90,"programNumber":48},{"time":4700,"duration":100,"noteNumber":57,"velocity":90,"programNumber":48},{"time":4800,"duration":200,"noteNumber":57,"velocity":90,"programNumber":48},{"time":5000,"duration":400,"noteNumber":62,"velocity":90,"programNumber":48},{"time":5400,"duration":400,"noteNumber":62,"velocity":90,"programNumber":48},{"time":5800,"duration":400,"noteNumber":62,"velocity":90,"programNumber":48},{"time":6200,"duration":200,"noteNumber":62,"velocity":90,"programNumber":48},{"time":6400,"duration":400,"noteNumber":58,"velocity":90,"programNumber":48},{"time":6800,"duration":200,"noteNumber":57,"velocity":90,"programNumber":48},{"time":7000,"duration":200,"noteNumber":57,"velocity":90,"programNumber":48},{"time":7200,"duration":200,"noteNumber":62,"velocity":90,"programNumber":48},{"time":7400,"duration":400,"noteNumber":62,"velocity":90,"programNumber":48},{"time":7800,"duration":200,"noteNumber":62,"velocity":90,"programNumber":48},{"time":8000,"duration":400,"noteNumber":64,"velocity":90,"programNumber":48},{"time":8400,"duration":200,"noteNumber":65,"velocity":90,"programNumber":48},{"time":8600,"duration":200,"noteNumber":65,"velocity":90,"programNumber":48},{"time":8800,"duration":200,"noteNumber":65,"velocity":90,"programNumber":48},{"time":9000,"duration":400,"noteNumber":65,"velocity":90,"programNumber":48},{"time":9400,"duration":200,"noteNumber":65,"velocity":90,"programNumber":48},{"time":9600,"duration":200,"noteNumber":62,"velocity":90,"programNumber":48},{"time":9800,"duration":200,"noteNumber":62,"velocity":90,"programNumber":48},{"time":10000,"duration":200,"noteNumber":62,"velocity":90,"programNumber":48},{"time":10200,"duration":200,"noteNumber":62,"velocity":90,"programNumber":48},{"time":10400,"duration":200,"noteNumber":61,"velocity":90,"programNumber":48},{"time":10600,"duration":200,"noteNumber":64,"velocity":90,"programNumber":48},{"time":10800,"duration":200,"noteNumber":65,"velocity":90,"programNumber":48},{"time":11000,"duration":200,"noteNumber":69,"velocity":90,"programNumber":48},{"time":11200,"duration":200,"noteNumber":69,"velocity":90,"programNumber":48},{"time":11400,"duration":200,"noteNumber":57,"velocity":90,"programNumber":48},{"time":11600,"duration":200,"noteNumber":57,"velocity":90,"programNumber":48},{"time":11800,"duration":200,"noteNumber":57,"velocity":90,"programNumber":48},{"time":12000,"duration":200,"noteNumber":57,"velocity":90,"programNumber":48},{"time":12200,"duration":200,"noteNumber":57,"velocity":90,"programNumber":48},{"time":12400,"duration":200,"noteNumber":57,"velocity":90,"programNumber":48},{"time":12600,"duration":200,"noteNumber":57,"velocity":90,"programNumber":48},{"time":12800,"duration":200,"noteNumber":57,"velocity":90,"programNumber":48},{"time":13000,"duration":200,"noteNumber":57,"velocity":90,"programNumber":48},{"time":13200,"duration":200,"noteNumber":58,"velocity":90,"programNumber":48},{"time":13400,"duration":200,"noteNumber":59,"velocity":90,"programNumber":48},{"time":13600,"duration":200,"noteNumber":60,"velocity":90,"programNumber":48},{"time":13800,"duration":200,"noteNumber":65,"velocity":90,"programNumber":48},{"time":14000,"duration":200,"noteNumber":65,"velocity":90,"programNumber":48},{"time":14200,"duration":200,"noteNumber":67,"velocity":90,"programNumber":48},{"time":14400,"duration":100,"noteNumber":60,"velocity":90,"programNumber":48},{"time":14500,"duration":100,"noteNumber":65,"velocity":90,"programNumber":48},{"time":14600,"duration":100,"noteNumber":65,"velocity":90,"programNumber":48},{"time":14700,"duration":100,"noteNumber":65,"velocity":90,"programNumber":48},{"time":14800,"duration":100,"noteNumber":65,"velocity":90,"programNumber":48},{"time":14900,"duration":100,"noteNumber":65,"velocity":90,"programNumber":48},{"time":15000,"duration":100,"noteNumber":65,"velocity":90,"programNumber":48},{"time":15100,"duration":100,"noteNumber":65,"velocity":90,"programNumber":48},{"time":15200,"duration":100,"noteNumber":60,"velocity":90,"programNumber":48},{"time":15300,"duration":100,"noteNumber":65,"velocity":90,"programNumber":48},{"time":15400,"duration":100,"noteNumber":65,"velocity":90,"programNumber":48},{"time":15500,"duration":100,"noteNumber":65,"velocity":90,"programNumber":48},{"time":15600,"duration":100,"noteNumber":65,"velocity":90,"programNumber":48},{"time":15700,"duration":100,"noteNumber":65,"velocity":90,"programNumber":48},{"time":15800,"duration":100,"noteNumber":65,"velocity":90,"programNumber":48},{"time":15900,"duration":100,"noteNumber":65,"velocity":90,"programNumber":48},{"time":16000,"duration":100,"noteNumber":65,"velocity":90,"programNumber":48},{"time":16100,"duration":100,"noteNumber":65,"velocity":90,"programNumber":48},{"time":16200,"duration":100,"noteNumber":65,"velocity":90,"programNumber":48},{"time":16300,"duration":100,"noteNumber":65,"velocity":90,"programNumber":48},{"time":16400,"duration":100,"noteNumber":65,"velocity":90,"programNumber":48},{"time":16500,"duration":100,"noteNumber":65,"velocity":90,"programNumber":48},{"time":16600,"duration":100,"noteNumber":65,"velocity":90,"programNumber":48},{"time":16700,"duration":100,"noteNumber":65,"velocity":90,"programNumber":48},{"time":16800,"duration":100,"noteNumber":65,"velocity":90,"programNumber":48},{"time":16900,"duration":100,"noteNumber":65,"velocity":90,"programNumber":48},{"time":17000,"duration":100,"noteNumber":65,"velocity":90,"programNumber":48},{"time":17100,"duration":100,"noteNumber":65,"velocity":90,"programNumber":48},{"time":17200,"duration":100,"noteNumber":60,"velocity":90,"programNumber":48},{"time":17300,"duration":100,"noteNumber":60,"velocity":90,"programNumber":48},{"time":17400,"duration":100,"noteNumber":60,"velocity":90,"programNumber":48},{"time":17500,"duration":100,"noteNumber":60,"velocity":90,"programNumber":48},{"time":17600,"duration":100,"noteNumber":57,"velocity":90,"programNumber":48},{"time":17700,"duration":100,"noteNumber":57,"velocity":90,"programNumber":48},{"time":17800,"duration":100,"noteNumber":57,"velocity":90,"programNumber":48},{"time":17900,"duration":100,"noteNumber":57,"velocity":90,"programNumber":48},{"time":18000,"duration":100,"noteNumber":54,"velocity":90,"programNumber":48},{"time":18100,"duration":100,"noteNumber":54,"velocity":90,"programNumber":48},{"time":18200,"duration":100,"noteNumber":54,"velocity":90,"programNumber":48},{"time":18300,"duration":100,"noteNumber":54,"velocity":90,"programNumber":48},{"time":18400,"duration":100,"noteNumber":57,"velocity":90,"programNumber":48},{"time":18500,"duration":100,"noteNumber":57,"velocity":90,"programNumber":48},{"time":18600,"duration":100,"noteNumber":57,"velocity":90,"programNumber":48},{"time":18700,"duration":100,"noteNumber":57,"velocity":90,"programNumber":48},{"time":18800,"duration":100,"noteNumber":60,"velocity":90,"programNumber":48},{"time":18900,"duration":100,"noteNumber":60,"velocity":90,"programNumber":48},{"time":19000,"duration":100,"noteNumber":60,"velocity":90,"programNumber":48},{"time":19100,"duration":100,"noteNumber":60,"velocity":90,"programNumber":48},{"time":19200,"duration":100,"noteNumber":60,"velocity":90,"programNumber":48},{"time":19300,"duration":100,"noteNumber":60,"velocity":90,"programNumber":48},{"time":19400,"duration":100,"noteNumber":60,"velocity":90,"programNumber":48},{"time":19500,"duration":100,"noteNumber":60,"velocity":90,"programNumber":48},{"time":19600,"duration":100,"noteNumber":60,"velocity":90,"programNumber":48},{"time":19700,"duration":100,"noteNumber":60,"velocity":90,"programNumber":48},{"time":19800,"duration":100,"noteNumber":60,"velocity":90,"programNumber":48},{"time":19900,"duration":100,"noteNumber":60,"velocity":90,"programNumber":48},{"time":20000,"duration":100,"noteNumber":59,"velocity":90,"programNumber":48},{"time":20100,"duration":100,"noteNumber":59,"velocity":90,"programNumber":48},{"time":20200,"duration":100,"noteNumber":59,"velocity":90,"programNumber":48},{"time":20300,"duration":100,"noteNumber":59,"velocity":90,"programNumber":48},{"time":20400,"duration":100,"noteNumber":59,"velocity":90,"programNumber":48},{"time":20500,"duration":100,"noteNumber":59,"velocity":90,"programNumber":48},{"time":20600,"duration":100,"noteNumber":59,"velocity":90,"programNumber":48},{"time":20700,"duration":100,"noteNumber":59,"velocity":90,"programNumber":48},{"time":20800,"duration":100,"noteNumber":67,"velocity":90,"programNumber":48},{"time":20900,"duration":100,"noteNumber":67,"velocity":90,"programNumber":48},{"time":21000,"duration":100,"noteNumber":67,"velocity":90,"programNumber":48},{"time":21100,"duration":100,"noteNumber":67,"velocity":90,"programNumber":48},{"time":21200,"duration":100,"noteNumber":67,"velocity":90,"programNumber":48},{"time":21300,"duration":100,"noteNumber":67,"velocity":90,"programNumber":48},{"time":21400,"duration":100,"noteNumber":67,"velocity":90,"programNumber":48},{"time":21500,"duration":100,"noteNumber":67,"velocity":90,"programNumber":48},{"time":21600,"duration":100,"noteNumber":67,"velocity":90,"programNumber":48},{"time":21700,"duration":100,"noteNumber":67,"velocity":90,"programNumber":48},{"time":21800,"duration":100,"noteNumber":67,"velocity":90,"programNumber":48},{"time":21900,"duration":100,"noteNumber":67,"velocity":90,"programNumber":48},{"time":22000,"duration":100,"noteNumber":62,"velocity":90,"programNumber":48},{"time":22100,"duration":100,"noteNumber":62,"velocity":90,"programNumber":48},{"time":22200,"duration":100,"noteNumber":62,"velocity":90,"programNumber":48},{"time":22300,"duration":100,"noteNumber":62,"velocity":90,"programNumber":48},{"time":22400,"duration":100,"noteNumber":59,"velocity":90,"programNumber":48},{"time":22500,"duration":100,"noteNumber":59,"velocity":90,"programNumber":48},{"time":22600,"duration":100,"noteNumber":59,"velocity":90,"programNumber":48},{"time":22700,"duration":100,"noteNumber":59,"velocity":90,"programNumber":48},{"time":22800,"duration":100,"noteNumber":56,"velocity":90,"programNumber":48},{"time":22900,"duration":100,"noteNumber":56,"velocity":90,"programNumber":48},{"time":23000,"duration":100,"noteNumber":56,"velocity":90,"programNumber":48},{"time":23100,"duration":100,"noteNumber":56,"velocity":90,"programNumber":48},{"time":23200,"duration":100,"noteNumber":59,"velocity":90,"programNumber":48},{"time":23300,"duration":100,"noteNumber":59,"velocity":90,"programNumber":48},{"time":23400,"duration":100,"noteNumber":59,"velocity":90,"programNumber":48},{"time":23500,"duration":100,"noteNumber":59,"velocity":90,"programNumber":48},{"time":23600,"duration":100,"noteNumber":62,"velocity":90,"programNumber":48},{"time":23700,"duration":100,"noteNumber":62,"velocity":90,"programNumber":48},{"time":23800,"duration":100,"noteNumber":62,"velocity":90,"programNumber":48},{"time":23900,"duration":100,"noteNumber":62,"velocity":90,"programNumber":48},{"time":24000,"duration":100,"noteNumber":60,"velocity":90,"programNumber":48},{"time":24100,"duration":100,"noteNumber":69,"velocity":90,"programNumber":48},{"time":24200,"duration":100,"noteNumber":69,"velocity":90,"programNumber":48},{"time":24300,"duration":100,"noteNumber":69,"velocity":90,"programNumber":48},{"time":24400,"duration":100,"noteNumber":69,"velocity":90,"programNumber":48},{"time":24500,"duration":100,"noteNumber":69,"velocity":90,"programNumber":48},{"time":24600,"duration":100,"noteNumber":69,"velocity":90,"programNumber":48},{"time":24700,"duration":100,"noteNumber":69,"velocity":90,"programNumber":48},{"time":24800,"duration":100,"noteNumber":62,"velocity":90,"programNumber":48},{"time":24900,"duration":100,"noteNumber":68,"velocity":90,"programNumber":48},{"time":25000,"duration":100,"noteNumber":68,"velocity":90,"programNumber":48},{"time":25100,"duration":100,"noteNumber":68,"velocity":90,"programNumber":48},{"time":25200,"duration":100,"noteNumber":68,"velocity":90,"programNumber":48},{"time":25300,"duration":100,"noteNumber":68,"velocity":90,"programNumber":48},{"time":25400,"duration":100,"noteNumber":68,"velocity":90,"programNumber":48},{"time":25500,"duration":100,"noteNumber":68,"velocity":90,"programNumber":48},{"time":25600,"duration":100,"noteNumber":64,"velocity":90,"programNumber":48},{"time":25700,"duration":100,"noteNumber":69,"velocity":90,"programNumber":48},{"time":25800,"duration":100,"noteNumber":69,"velocity":90,"programNumber":48},{"time":25900,"duration":100,"noteNumber":69,"velocity":90,"programNumber":48},{"time":26000,"duration":100,"noteNumber":69,"velocity":90,"programNumber":48},{"time":26100,"duration":100,"noteNumber":69,"velocity":90,"programNumber":48},{"time":26200,"duration":100,"noteNumber":69,"velocity":90,"programNumber":48},{"time":26300,"duration":100,"noteNumber":69,"velocity":90,"programNumber":48},{"time":26400,"duration":100,"noteNumber":62,"velocity":90,"programNumber":48},{"time":26500,"duration":100,"noteNumber":65,"velocity":90,"programNumber":48},{"time":26600,"duration":100,"noteNumber":65,"velocity":90,"programNumber":48},{"time":26700,"duration":100,"noteNumber":65,"velocity":90,"programNumber":48},{"time":26800,"duration":100,"noteNumber":65,"velocity":90,"programNumber":48},{"time":26900,"duration":100,"noteNumber":65,"velocity":90,"programNumber":48},{"time":27000,"duration":100,"noteNumber":65,"velocity":90,"programNumber":48},{"time":27100,"duration":100,"noteNumber":65,"velocity":90,"programNumber":48},{"time":27200,"duration":100,"noteNumber":59,"velocity":90,"programNumber":48},{"time":27300,"duration":100,"noteNumber":59,"velocity":90,"programNumber":48},{"time":27400,"duration":100,"noteNumber":62,"velocity":90,"programNumber":48},{"time":27500,"duration":100,"noteNumber":62,"velocity":90,"programNumber":48},{"time":27600,"duration":100,"noteNumber":60,"velocity":90,"programNumber":48},{"time":27700,"duration":100,"noteNumber":60,"velocity":90,"programNumber":48},{"time":27800,"duration":100,"noteNumber":64,"velocity":90,"programNumber":48},{"time":27900,"duration":100,"noteNumber":64,"velocity":90,"programNumber":48},{"time":28000,"duration":100,"noteNumber":64,"velocity":90,"programNumber":48},{"time":28100,"duration":100,"noteNumber":64,"velocity":90,"programNumber":48},{"time":28200,"duration":100,"noteNumber":64,"velocity":90,"programNumber":48},{"time":28300,"duration":100,"noteNumber":64,"velocity":90,"programNumber":48},{"time":28400,"duration":100,"noteNumber":64,"velocity":90,"programNumber":48},{"time":28500,"duration":100,"noteNumber":64,"velocity":90,"programNumber":48},{"time":28600,"duration":100,"noteNumber":64,"velocity":90,"programNumber":48},{"time":28700,"duration":100,"noteNumber":64,"velocity":90,"programNumber":48},{"time":28800,"duration":400,"noteNumber":57,"velocity":90,"programNumber":48},{"time":29800,"duration":200,"noteNumber":64,"velocity":90,"programNumber":48},{"time":30000,"duration":200,"noteNumber":66,"velocity":90,"programNumber":48},{"time":30200,"duration":200,"noteNumber":63,"velocity":90,"programNumber":48},{"time":30400,"duration":200,"noteNumber":64,"velocity":90,"programNumber":48},{"time":30600,"duration":200,"noteNumber":65,"velocity":90,"programNumber":48},{"time":30800,"duration":200,"noteNumber":62,"velocity":90,"programNumber":48},{"time":31000,"duration":200,"noteNumber":69,"velocity":90,"programNumber":48},{"time":31200,"duration":200,"noteNumber":59,"velocity":90,"programNumber":48},{"time":31400,"duration":200,"noteNumber":65,"velocity":90,"programNumber":48},{"time":31600,"duration":200,"noteNumber":56,"velocity":90,"programNumber":48},{"time":31800,"duration":200,"noteNumber":64,"velocity":90,"programNumber":48},{"time":32000,"duration":200,"noteNumber":64,"velocity":90,"programNumber":48},{"time":32200,"duration":200,"noteNumber":64,"velocity":90,"programNumber":48},{"time":32400,"duration":200,"noteNumber":65,"velocity":90,"programNumber":48},{"time":32600,"duration":200,"noteNumber":65,"velocity":90,"programNumber":48},{"time":32800,"duration":200,"noteNumber":64,"velocity":90,"programNumber":48},{"time":33000,"duration":200,"noteNumber":62,"velocity":90,"programNumber":48},{"time":33200,"duration":200,"noteNumber":64,"velocity":90,"programNumber":48},{"time":33400,"duration":200,"noteNumber":52,"velocity":90,"programNumber":48},{"time":33600,"duration":100,"noteNumber":60,"velocity":90,"programNumber":48},{"time":33700,"duration":100,"noteNumber":64,"velocity":90,"programNumber":48},{"time":33800,"duration":100,"noteNumber":64,"velocity":90,"programNumber":48},{"time":33900,"duration":100,"noteNumber":64,"velocity":90,"programNumber":48},{"time":34000,"duration":100,"noteNumber":64,"velocity":90,"programNumber":48},{"time":34100,"duration":100,"noteNumber":64,"velocity":90,"programNumber":48},{"time":34200,"duration":100,"noteNumber":64,"velocity":90,"programNumber":48},{"time":34300,"duration":100,"noteNumber":64,"velocity":90,"programNumber":48},{"time":34400,"duration":100,"noteNumber":60,"velocity":90,"programNumber":48},{"time":34500,"duration":100,"noteNumber":64,"velocity":90,"programNumber":48},{"time":34600,"duration":100,"noteNumber":64,"velocity":90,"programNumber":48},{"time":34700,"duration":100,"noteNumber":64,"velocity":90,"programNumber":48},{"time":34800,"duration":100,"noteNumber":64,"velocity":90,"programNumber":48},{"time":34900,"duration":100,"noteNumber":64,"velocity":90,"programNumber":48},{"time":35000,"duration":100,"noteNumber":64,"velocity":90,"programNumber":48},{"time":35100,"duration":100,"noteNumber":64,"velocity":90,"programNumber":48},{"time":35200,"duration":200,"noteNumber":62,"velocity":90,"programNumber":48},{"time":35400,"duration":400,"noteNumber":62,"velocity":90,"programNumber":48},{"time":35800,"duration":400,"noteNumber":62,"velocity":90,"programNumber":48},{"time":36200,"duration":400,"noteNumber":62,"velocity":90,"programNumber":48},{"time":36600,"duration":200,"noteNumber":62,"velocity":90,"programNumber":48},{"time":36800,"duration":100,"noteNumber":56,"velocity":90,"programNumber":48},{"time":36900,"duration":100,"noteNumber":64,"velocity":90,"programNumber":48},{"time":37000,"duration":100,"noteNumber":64,"velocity":90,"programNumber":48},{"time":37100,"duration":100,"noteNumber":64,"velocity":90,"programNumber":48},{"time":37200,"duration":100,"noteNumber":64,"velocity":90,"programNumber":48},{"time":37300,"duration":100,"noteNumber":64,"velocity":90,"programNumber":48},{"time":37400,"duration":100,"noteNumber":64,"velocity":90,"programNumber":48},{"time":37500,"duration":100,"noteNumber":64,"velocity":90,"programNumber":48},{"time":37600,"duration":100,"noteNumber":56,"velocity":90,"programNumber":48},{"time":37700,"duration":100,"noteNumber":64,"velocity":90,"programNumber":48},{"time":37800,"duration":100,"noteNumber":64,"velocity":90,"programNumber":48},{"time":37900,"duration":100,"noteNumber":64,"velocity":90,"programNumber":48},{"time":38000,"duration":100,"noteNumber":64,"velocity":90,"programNumber":48},{"time":38100,"duration":100,"noteNumber":64,"velocity":90,"programNumber":48},{"time":38200,"duration":100,"noteNumber":64,"velocity":90,"programNumber":48},{"time":38300,"duration":100,"noteNumber":64,"velocity":90,"programNumber":48},{"time":38400,"duration":200,"noteNumber":64,"velocity":90,"programNumber":48},{"time":38600,"duration":400,"noteNumber":57,"velocity":90,"programNumber":48},{"time":39000,"duration":400,"noteNumber":57,"velocity":90,"programNumber":48},{"time":39400,"duration":200,"noteNumber":60,"velocity":90,"programNumber":48},{"time":39600,"duration":200,"noteNumber":60,"velocity":90,"programNumber":48},{"time":39800,"duration":200,"noteNumber":60,"velocity":90,"programNumber":48},{"time":40000,"duration":400,"noteNumber":62,"velocity":90,"programNumber":48},{"time":40400,"duration":200,"noteNumber":60,"velocity":90,"programNumber":48},{"time":40600,"duration":200,"noteNumber":60,"velocity":90,"programNumber":48},{"time":40800,"duration":200,"noteNumber":60,"velocity":90,"programNumber":48},{"time":41000,"duration":400,"noteNumber":60,"velocity":90,"programNumber":48},{"time":41400,"duration":200,"noteNumber":60,"velocity":90,"programNumber":48},{"time":41600,"duration":400,"noteNumber":62,"velocity":90,"programNumber":48},{"time":42000,"duration":400,"noteNumber":60,"velocity":90,"programNumber":48},{"time":42600,"duration":200,"noteNumber":60,"velocity":90,"programNumber":48},{"time":42800,"duration":200,"noteNumber":60,"velocity":90,"programNumber":48},{"time":43000,"duration":200,"noteNumber":59,"velocity":90,"programNumber":48},{"time":43200,"duration":200,"noteNumber":57,"velocity":90,"programNumber":48},{"time":43400,"duration":200,"noteNumber":65,"velocity":90,"programNumber":48},{"time":43600,"duration":200,"noteNumber":64,"velocity":90,"programNumber":48},{"time":43800,"duration":200,"noteNumber":64,"velocity":90,"programNumber":48},{"time":44000,"duration":200,"noteNumber":62,"velocity":90,"programNumber":48},{"time":44200,"duration":200,"noteNumber":62,"velocity":90,"programNumber":48},{"time":44400,"duration":200,"noteNumber":60,"velocity":90,"programNumber":48},{"time":44600,"duration":200,"noteNumber":60,"velocity":90,"programNumber":48},{"time":44800,"duration":200,"noteNumber":64,"velocity":90,"programNumber":48},{"time":45000,"duration":200,"noteNumber":64,"velocity":90,"programNumber":48},{"time":45200,"duration":200,"noteNumber":64,"velocity":90,"programNumber":48},{"time":45400,"duration":200,"noteNumber":64,"velocity":90,"programNumber":48},{"time":45600,"duration":200,"noteNumber":64,"velocity":90,"programNumber":48},{"time":45800,"duration":200,"noteNumber":64,"velocity":90,"programNumber":48},{"time":46000,"duration":200,"noteNumber":64,"velocity":90,"programNumber":48},{"time":46200,"duration":200,"noteNumber":64,"velocity":90,"programNumber":48},{"time":46400,"duration":200,"noteNumber":59,"velocity":90,"programNumber":48},{"time":46600,"duration":200,"noteNumber":59,"velocity":90,"programNumber":48},{"time":46800,"duration":200,"noteNumber":59,"velocity":90,"programNumber":48},{"time":47000,"duration":200,"noteNumber":59,"velocity":90,"programNumber":48},{"time":47200,"duration":200,"noteNumber":55,"velocity":90,"programNumber":48},{"time":47400,"duration":200,"noteNumber":55,"velocity":90,"programNumber":48},{"time":47600,"duration":200,"noteNumber":55,"velocity":90,"programNumber":48},{"time":47800,"duration":200,"noteNumber":55,"velocity":90,"programNumber":48},{"time":48000,"duration":100,"noteNumber":55,"velocity":90,"programNumber":48},{"time":48100,"duration":100,"noteNumber":60,"velocity":90,"programNumber":48},{"time":48200,"duration":100,"noteNumber":60,"velocity":90,"programNumber":48},{"time":48300,"duration":100,"noteNumber":60,"velocity":90,"programNumber":48},{"time":48400,"duration":100,"noteNumber":60,"velocity":90,"programNumber":48},{"time":48500,"duration":100,"noteNumber":60,"velocity":90,"programNumber":48},{"time":48600,"duration":100,"noteNumber":60,"velocity":90,"programNumber":48},{"time":48700,"duration":100,"noteNumber":60,"velocity":90,"programNumber":48},{"time":48800,"duration":100,"noteNumber":55,"velocity":90,"programNumber":48},{"time":48900,"duration":100,"noteNumber":60,"velocity":90,"programNumber":48},{"time":49000,"duration":100,"noteNumber":60,"velocity":90,"programNumber":48},{"time":49100,"duration":100,"noteNumber":60,"velocity":90,"programNumber":48},{"time":49200,"duration":100,"noteNumber":60,"velocity":90,"programNumber":48},{"time":49300,"duration":100,"noteNumber":60,"velocity":90,"programNumber":48},{"time":49400,"duration":100,"noteNumber":60,"velocity":90,"programNumber":48},{"time":49500,"duration":100,"noteNumber":60,"velocity":90,"programNumber":48},{"time":49600,"duration":100,"noteNumber":60,"velocity":90,"programNumber":48},{"time":49700,"duration":100,"noteNumber":63,"velocity":90,"programNumber":48},{"time":49800,"duration":100,"noteNumber":63,"velocity":90,"programNumber":48},{"time":49900,"duration":100,"noteNumber":63,"velocity":90,"programNumber":48},{"time":50000,"duration":100,"noteNumber":63,"velocity":90,"programNumber":48},{"time":50100,"duration":100,"noteNumber":63,"velocity":90,"programNumber":48},{"time":50200,"duration":100,"noteNumber":63,"velocity":90,"programNumber":48},{"time":50300,"duration":100,"noteNumber":63,"velocity":90,"programNumber":48},{"time":50400,"duration":100,"noteNumber":60,"velocity":90,"programNumber":48},{"time":50500,"duration":100,"noteNumber":63,"velocity":90,"programNumber":48},{"time":50600,"duration":100,"noteNumber":63,"velocity":90,"programNumber":48},{"time":50700,"duration":100,"noteNumber":63,"velocity":90,"programNumber":48},{"time":50800,"duration":100,"noteNumber":63,"velocity":90,"programNumber":48},{"time":50900,"duration":100,"noteNumber":63,"velocity":90,"programNumber":48},{"time":51000,"duration":100,"noteNumber":63,"velocity":90,"programNumber":48},{"time":51100,"duration":100,"noteNumber":63,"velocity":90,"programNumber":48},{"time":51200,"duration":200,"noteNumber":63,"velocity":90,"programNumber":48},{"time":51400,"duration":200,"noteNumber":63,"velocity":90,"programNumber":48},{"time":51600,"duration":200,"noteNumber":64,"velocity":90,"programNumber":48},{"time":51800,"duration":400,"noteNumber":64,"velocity":90,"programNumber":48},{"time":52200,"duration":400,"noteNumber":64,"velocity":90,"programNumber":48},{"time":52600,"duration":200,"noteNumber":64,"velocity":90,"programNumber":48},{"time":52800,"duration":100,"noteNumber":55,"velocity":90,"programNumber":48},{"time":52900,"duration":100,"noteNumber":61,"velocity":90,"programNumber":48},{"time":53000,"duration":100,"noteNumber":61,"velocity":90,"programNumber":48},{"time":53100,"duration":100,"noteNumber":61,"velocity":90,"programNumber":48},{"time":53200,"duration":100,"noteNumber":61,"velocity":90,"programNumber":48},{"time":53300,"duration":100,"noteNumber":61,"velocity":90,"programNumber":48},{"time":53400,"duration":100,"noteNumber":61,"velocity":90,"programNumber":48},{"time":53500,"duration":100,"noteNumber":61,"velocity":90,"programNumber":48},{"time":53600,"duration":100,"noteNumber":55,"velocity":90,"programNumber":48},{"time":53700,"duration":100,"noteNumber":61,"velocity":90,"programNumber":48},{"time":53800,"duration":100,"noteNumber":61,"velocity":90,"programNumber":48},{"time":53900,"duration":100,"noteNumber":61,"velocity":90,"programNumber":48},{"time":54000,"duration":100,"noteNumber":61,"velocity":90,"programNumber":48},{"time":54100,"duration":100,"noteNumber":61,"velocity":90,"programNumber":48},{"time":54200,"duration":100,"noteNumber":61,"velocity":90,"programNumber":48},{"time":54300,"duration":100,"noteNumber":61,"velocity":90,"programNumber":48},{"time":54400,"duration":100,"noteNumber":61,"velocity":90,"programNumber":48},{"time":54500,"duration":100,"noteNumber":67,"velocity":90,"programNumber":48},{"time":54600,"duration":100,"noteNumber":67,"velocity":90,"programNumber":48},{"time":54700,"duration":100,"noteNumber":67,"velocity":90,"programNumber":48},{"time":54800,"duration":100,"noteNumber":67,"velocity":90,"programNumber":48},{"time":54900,"duration":100,"noteNumber":67,"velocity":90,"programNumber":48},{"time":55000,"duration":100,"noteNumber":67,"velocity":90,"programNumber":48},{"time":55100,"duration":100,"noteNumber":67,"velocity":90,"programNumber":48},{"time":55200,"duration":100,"noteNumber":61,"velocity":90,"programNumber":48},{"time":55300,"duration":100,"noteNumber":67,"velocity":90,"programNumber":48},{"time":55400,"duration":100,"noteNumber":67,"velocity":90,"programNumber":48},{"time":55500,"duration":100,"noteNumber":67,"velocity":90,"programNumber":48},{"time":55600,"duration":100,"noteNumber":67,"velocity":90,"programNumber":48},{"time":55700,"duration":100,"noteNumber":67,"velocity":90,"programNumber":48},{"time":55800,"duration":100,"noteNumber":67,"velocity":90,"programNumber":48},{"time":55900,"duration":100,"noteNumber":67,"velocity":90,"programNumber":48},{"time":56000,"duration":200,"noteNumber":64,"velocity":90,"programNumber":48},{"time":56200,"duration":200,"noteNumber":64,"velocity":90,"programNumber":48},{"time":56400,"duration":200,"noteNumber":65,"velocity":90,"programNumber":48},{"time":56600,"duration":400,"noteNumber":65,"velocity":90,"programNumber":48},{"time":57000,"duration":400,"noteNumber":65,"velocity":90,"programNumber":48},{"time":57400,"duration":200,"noteNumber":65,"velocity":90,"programNumber":48},{"time":57600,"duration":100,"noteNumber":58,"velocity":90,"programNumber":48},{"time":57700,"duration":100,"noteNumber":63,"velocity":90,"programNumber":48},{"time":57800,"duration":100,"noteNumber":63,"velocity":90,"programNumber":48},{"time":57900,"duration":100,"noteNumber":63,"velocity":90,"programNumber":48},{"time":58000,"duration":100,"noteNumber":63,"velocity":90,"programNumber":48},{"time":58100,"duration":100,"noteNumber":63,"velocity":90,"programNumber":48},{"time":58200,"duration":100,"noteNumber":63,"velocity":90,"programNumber":48},{"time":58300,"duration":100,"noteNumber":63,"velocity":90,"programNumber":48},{"time":58400,"duration":100,"noteNumber":60,"velocity":90,"programNumber":48},{"time":58500,"duration":100,"noteNumber":66,"velocity":90,"programNumber":48},{"time":58600,"duration":100,"noteNumber":66,"velocity":90,"programNumber":48},{"time":58700,"duration":100,"noteNumber":66,"velocity":90,"programNumber":48},{"time":58800,"duration":100,"noteNumber":66,"velocity":90,"programNumber":48},{"time":58900,"duration":100,"noteNumber":66,"velocity":90,"programNumber":48},{"time":59000,"duration":100,"noteNumber":66,"velocity":90,"programNumber":48},{"time":59100,"duration":100,"noteNumber":66,"velocity":90,"programNumber":48},{"time":59200,"duration":100,"noteNumber":62,"velocity":90,"programNumber":48},{"time":59300,"duration":100,"noteNumber":67,"velocity":90,"programNumber":48},{"time":59400,"duration":100,"noteNumber":67,"velocity":90,"programNumber":48},{"time":59500,"duration":100,"noteNumber":67,"velocity":90,"programNumber":48},{"time":59600,"duration":100,"noteNumber":67,"velocity":90,"programNumber":48},{"time":59700,"duration":100,"noteNumber":67,"velocity":90,"programNumber":48},{"time":59800,"duration":100,"noteNumber":67,"velocity":90,"programNumber":48},{"time":59900,"duration":100,"noteNumber":67,"velocity":90,"programNumber":48},{"time":60000,"duration":100,"noteNumber":60,"velocity":90,"programNumber":48},{"time":60100,"duration":100,"noteNumber":65,"velocity":90,"programNumber":48},{"time":60200,"duration":100,"noteNumber":65,"velocity":90,"programNumber":48},{"time":60300,"duration":100,"noteNumber":65,"velocity":90,"programNumber":48},{"time":60400,"duration":100,"noteNumber":65,"velocity":90,"programNumber":48},{"time":60500,"duration":100,"noteNumber":65,"velocity":90,"programNumber":48},{"time":60600,"duration":100,"noteNumber":65,"velocity":90,"programNumber":48},{"time":60700,"duration":100,"noteNumber":65,"velocity":90,"programNumber":48},{"time":60800,"duration":100,"noteNumber":58,"velocity":90,"programNumber":48},{"time":60900,"duration":100,"noteNumber":63,"velocity":90,"programNumber":48},{"time":61000,"duration":100,"noteNumber":63,"velocity":90,"programNumber":48},{"time":61100,"duration":100,"noteNumber":63,"velocity":90,"programNumber":48},{"time":61200,"duration":100,"noteNumber":63,"velocity":90,"programNumber":48},{"time":61300,"duration":100,"noteNumber":63,"velocity":90,"programNumber":48},{"time":61400,"duration":100,"noteNumber":63,"velocity":90,"programNumber":48},{"time":61500,"duration":100,"noteNumber":63,"velocity":90,"programNumber":48},{"time":61600,"duration":100,"noteNumber":59,"velocity":90,"programNumber":48},{"time":61700,"duration":100,"noteNumber":62,"velocity":90,"programNumber":48},{"time":61800,"duration":100,"noteNumber":62,"velocity":90,"programNumber":48},{"time":61900,"duration":100,"noteNumber":62,"velocity":90,"programNumber":48},{"time":62000,"duration":100,"noteNumber":62,"velocity":90,"programNumber":48},{"time":62100,"duration":100,"noteNumber":62,"velocity":90,"programNumber":48},{"time":62200,"duration":100,"noteNumber":62,"velocity":90,"programNumber":48},{"time":62300,"duration":100,"noteNumber":62,"velocity":90,"programNumber":48},{"time":62400,"duration":100,"noteNumber":57,"velocity":90,"programNumber":48},{"time":62500,"duration":100,"noteNumber":62,"velocity":90,"programNumber":48},{"time":62600,"duration":100,"noteNumber":62,"velocity":90,"programNumber":48},{"time":62700,"duration":100,"noteNumber":62,"velocity":90,"programNumber":48},{"time":62800,"duration":100,"noteNumber":57,"velocity":90,"programNumber":48},{"time":62900,"duration":100,"noteNumber":61,"velocity":90,"programNumber":48},{"time":63000,"duration":100,"noteNumber":61,"velocity":90,"programNumber":48},{"time":63100,"duration":100,"noteNumber":61,"velocity":90,"programNumber":48},{"time":63200,"duration":600,"noteNumber":57,"velocity":90,"programNumber":48},{"time":63800,"duration":200,"noteNumber":57,"velocity":90,"programNumber":48},{"time":64000,"duration":200,"noteNumber":56,"velocity":90,"programNumber":48},{"time":64200,"duration":200,"noteNumber":57,"velocity":90,"programNumber":48},{"time":64400,"duration":200,"noteNumber":56,"velocity":90,"programNumber":48},{"time":64600,"duration":200,"noteNumber":57,"velocity":90,"programNumber":48},{"time":64800,"duration":200,"noteNumber":56,"velocity":90,"programNumber":48},{"time":65000,"duration":200,"noteNumber":57,"velocity":90,"programNumber":48},{"time":65200,"duration":200,"noteNumber":56,"velocity":90,"programNumber":48},{"time":65400,"duration":200,"noteNumber":57,"velocity":90,"programNumber":48},{"time":65600,"duration":400,"noteNumber":58,"velocity":90,"programNumber":48},{"time":66000,"duration":400,"noteNumber":57,"velocity":90,"programNumber":48},{"time":66400,"duration":600,"noteNumber":64,"velocity":90,"programNumber":48},{"time":67000,"duration":200,"noteNumber":64,"velocity":90,"programNumber":48},{"time":67200,"duration":400,"noteNumber":65,"velocity":90,"programNumber":48},{"time":67600,"duration":400,"noteNumber":64,"velocity":90,"programNumber":48},{"time":68000,"duration":600,"noteNumber":64,"velocity":90,"programNumber":48},{"time":68600,"duration":200,"noteNumber":64,"velocity":90,"programNumber":48},{"time":68800,"duration":400,"noteNumber":65,"velocity":90,"programNumber":48},{"time":69200,"duration":400,"noteNumber":64,"velocity":90,"programNumber":48},{"time":69600,"duration":600,"noteNumber":57,"velocity":90,"programNumber":48},{"time":70200,"duration":200,"noteNumber":57,"velocity":90,"programNumber":48},{"time":70400,"duration":200,"noteNumber":56,"velocity":90,"programNumber":48},{"time":70600,"duration":200,"noteNumber":57,"velocity":90,"programNumber":48},{"time":70800,"duration":200,"noteNumber":56,"velocity":90,"programNumber":48},{"time":71000,"duration":200,"noteNumber":57,"velocity":90,"programNumber":48},{"time":71200,"duration":200,"noteNumber":56,"velocity":90,"programNumber":48},{"time":71400,"duration":200,"noteNumber":57,"velocity":90,"programNumber":48},{"time":71600,"duration":200,"noteNumber":56,"velocity":90,"programNumber":48},{"time":71800,"duration":200,"noteNumber":57,"velocity":90,"programNumber":48},{"time":72000,"duration":400,"noteNumber":58,"velocity":90,"programNumber":48},{"time":72400,"duration":400,"noteNumber":57,"velocity":90,"programNumber":48},{"time":72800,"duration":600,"noteNumber":61,"velocity":90,"programNumber":48},{"time":73400,"duration":200,"noteNumber":61,"velocity":90,"programNumber":48},{"time":73600,"duration":400,"noteNumber":62,"velocity":90,"programNumber":48},{"time":74000,"duration":400,"noteNumber":61,"velocity":90,"programNumber":48},{"time":74400,"duration":600,"noteNumber":61,"velocity":90,"programNumber":48},{"time":75000,"duration":200,"noteNumber":61,"velocity":90,"programNumber":48},{"time":75200,"duration":400,"noteNumber":62,"velocity":90,"programNumber":48},{"time":75600,"duration":400,"noteNumber":61,"velocity":90,"programNumber":48},{"time":76000,"duration":600,"noteNumber":57,"velocity":90,"programNumber":48},{"time":76600,"duration":200,"noteNumber":57,"velocity":90,"programNumber":48},{"time":76800,"duration":200,"noteNumber":56,"velocity":90,"programNumber":48},{"time":77000,"duration":200,"noteNumber":57,"velocity":90,"programNumber":48},{"time":77200,"duration":200,"noteNumber":56,"velocity":90,"programNumber":48},{"time":77400,"duration":200,"noteNumber":57,"velocity":90,"programNumber":48},{"time":77600,"duration":200,"noteNumber":56,"velocity":90,"programNumber":48},{"time":77800,"duration":200,"noteNumber":57,"velocity":90,"programNumber":48},{"time":78000,"duration":200,"noteNumber":56,"velocity":90,"programNumber":48},{"time":78200,"duration":200,"noteNumber":57,"velocity":90,"programNumber":48},{"time":78400,"duration":200,"noteNumber":58,"velocity":90,"programNumber":48},{"time":78600,"duration":200,"noteNumber":58,"velocity":90,"programNumber":48},{"time":78800,"duration":200,"noteNumber":58,"velocity":90,"programNumber":48},{"time":79000,"duration":200,"noteNumber":58,"velocity":90,"programNumber":48},{"time":79200,"duration":200,"noteNumber":58,"velocity":90,"programNumber":48},{"time":79400,"duration":200,"noteNumber":58,"velocity":90,"programNumber":48},{"time":79600,"duration":200,"noteNumber":58,"velocity":90,"programNumber":48},{"time":79800,"duration":200,"noteNumber":58,"velocity":90,"programNumber":48},{"time":80000,"duration":200,"noteNumber":63,"velocity":90,"programNumber":48},{"time":80200,"duration":200,"noteNumber":62,"velocity":90,"programNumber":48},{"time":80400,"duration":200,"noteNumber":63,"velocity":90,"programNumber":48},{"time":80600,"duration":200,"noteNumber":62,"velocity":90,"programNumber":48},{"time":80800,"duration":200,"noteNumber":63,"velocity":90,"programNumber":48},{"time":81000,"duration":200,"noteNumber":62,"velocity":90,"programNumber":48},{"time":81200,"duration":200,"noteNumber":63,"velocity":90,"programNumber":48},{"time":81400,"duration":200,"noteNumber":62,"velocity":90,"programNumber":48},{"time":81600,"duration":400,"noteNumber":61,"velocity":90,"programNumber":48},{"time":82000,"duration":400,"noteNumber":64,"velocity":90,"programNumber":48},{"time":82800,"duration":200,"noteNumber":64,"velocity":90,"programNumber":48},{"time":83000,"duration":200,"noteNumber":64,"velocity":90,"programNumber":48},{"time":83200,"duration":100,"noteNumber":65,"velocity":90,"programNumber":48},{"time":83300,"duration":100,"noteNumber":65,"velocity":90,"programNumber":48},{"time":83400,"duration":100,"noteNumber":65,"velocity":90,"programNumber":48},{"time":83500,"duration":100,"noteNumber":65,"velocity":90,"programNumber":48},{"time":83600,"duration":100,"noteNumber":64,"velocity":90,"programNumber":48},{"time":83700,"duration":100,"noteNumber":64,"velocity":90,"programNumber":48},{"time":83800,"duration":100,"noteNumber":64,"velocity":90,"programNumber":48},{"time":83900,"duration":100,"noteNumber":64,"velocity":90,"programNumber":48},{"time":84000,"duration":100,"noteNumber":65,"velocity":90,"programNumber":48},{"time":84100,"duration":100,"noteNumber":65,"velocity":90,"programNumber":48},{"time":84200,"duration":100,"noteNumber":65,"velocity":90,"programNumber":48},{"time":84300,"duration":100,"noteNumber":65,"velocity":90,"programNumber":48},{"time":84400,"duration":100,"noteNumber":64,"velocity":90,"programNumber":48},{"time":84500,"duration":100,"noteNumber":64,"velocity":90,"programNumber":48},{"time":84600,"duration":100,"noteNumber":64,"velocity":90,"programNumber":48},{"time":84700,"duration":100,"noteNumber":64,"velocity":90,"programNumber":48},{"time":84800,"duration":100,"noteNumber":65,"velocity":90,"programNumber":48},{"time":84900,"duration":100,"noteNumber":65,"velocity":90,"programNumber":48},{"time":85000,"duration":100,"noteNumber":65,"velocity":90,"programNumber":48},{"time":85100,"duration":100,"noteNumber":65,"velocity":90,"programNumber":48},{"time":85200,"duration":400,"noteNumber":64,"velocity":90,"programNumber":48},{"time":86000,"duration":200,"noteNumber":62,"velocity":90,"programNumber":48},{"time":86200,"duration":200,"noteNumber":62,"velocity":90,"programNumber":48},{"time":86400,"duration":100,"noteNumber":64,"velocity":90,"programNumber":48},{"time":86500,"duration":100,"noteNumber":64,"velocity":90,"programNumber":48},{"time":86600,"duration":100,"noteNumber":64,"velocity":90,"programNumber":48},{"time":86700,"duration":100,"noteNumber":64,"velocity":90,"programNumber":48},{"time":86800,"duration":100,"noteNumber":62,"velocity":90,"programNumber":48},{"time":86900,"duration":100,"noteNumber":62,"velocity":90,"programNumber":48},{"time":87000,"duration":100,"noteNumber":62,"velocity":90,"programNumber":48},{"time":87100,"duration":100,"noteNumber":62,"velocity":90,"programNumber":48},{"time":87200,"duration":100,"noteNumber":64,"velocity":90,"programNumber":48},{"time":87300,"duration":100,"noteNumber":64,"velocity":90,"programNumber":48},{"time":87400,"duration":100,"noteNumber":64,"velocity":90,"programNumber":48},{"time":87500,"duration":100,"noteNumber":64,"velocity":90,"programNumber":48},{"time":87600,"duration":100,"noteNumber":62,"velocity":90,"programNumber":48},{"time":87700,"duration":100,"noteNumber":62,"velocity":90,"programNumber":48},{"time":87800,"duration":100,"noteNumber":62,"velocity":90,"programNumber":48},{"time":87900,"duration":100,"noteNumber":62,"velocity":90,"programNumber":48},{"time":88000,"duration":100,"noteNumber":64,"velocity":90,"programNumber":48},{"time":88100,"duration":100,"noteNumber":64,"velocity":90,"programNumber":48},{"time":88200,"duration":100,"noteNumber":64,"velocity":90,"programNumber":48},{"time":88300,"duration":100,"noteNumber":64,"velocity":90,"programNumber":48},{"time":88400,"duration":200,"noteNumber":62,"velocity":90,"programNumber":48},{"time":88600,"duration":200,"noteNumber":69,"velocity":90,"programNumber":48},{"time":88800,"duration":200,"noteNumber":65,"velocity":90,"programNumber":48},{"time":89000,"duration":200,"noteNumber":62,"velocity":90,"programNumber":48},{"time":89200,"duration":200,"noteNumber":65,"velocity":90,"programNumber":48},{"time":89400,"duration":200,"noteNumber":69,"velocity":90,"programNumber":48},{"time":89600,"duration":200,"noteNumber":62,"velocity":90,"programNumber":48},{"time":89800,"duration":200,"noteNumber":65,"velocity":90,"programNumber":48},{"time":90000,"duration":200,"noteNumber":69,"velocity":90,"programNumber":48},{"time":90200,"duration":200,"noteNumber":74,"velocity":90,"programNumber":48},{"time":90400,"duration":200,"noteNumber":62,"velocity":90,"programNumber":48},{"time":90600,"duration":200,"noteNumber":65,"velocity":90,"programNumber":48},{"time":90800,"duration":200,"noteNumber":69,"velocity":90,"programNumber":48},{"time":91000,"duration":200,"noteNumber":74,"velocity":90,"programNumber":48},{"time":91200,"duration":200,"noteNumber":53,"velocity":90,"programNumber":48},{"time":91400,"duration":200,"noteNumber":57,"velocity":90,"programNumber":48},{"time":91600,"duration":200,"noteNumber":62,"velocity":90,"programNumber":48},{"time":91800,"duration":200,"noteNumber":65,"velocity":90,"programNumber":48},{"time":92000,"duration":200,"noteNumber":53,"velocity":90,"programNumber":48},{"time":92200,"duration":200,"noteNumber":57,"velocity":90,"programNumber":48},{"time":92400,"duration":200,"noteNumber":62,"velocity":90,"programNumber":48},{"time":92600,"duration":200,"noteNumber":65,"velocity":90,"programNumber":48},{"time":92800,"duration":200,"noteNumber":58,"velocity":90,"programNumber":48},{"time":93000,"duration":200,"noteNumber":62,"velocity":90,"programNumber":48},{"time":93200,"duration":200,"noteNumber":65,"velocity":90,"programNumber":48},{"time":93400,"duration":200,"noteNumber":70,"velocity":90,"programNumber":48},{"time":93600,"duration":200,"noteNumber":52,"velocity":90,"programNumber":48},{"time":93800,"duration":200,"noteNumber":55,"velocity":90,"programNumber":48},{"time":94000,"duration":200,"noteNumber":58,"velocity":90,"programNumber":48},{"time":94200,"duration":200,"noteNumber":64,"velocity":90,"programNumber":48},{"time":94400,"duration":200,"noteNumber":57,"velocity":90,"programNumber":48},{"time":94600,"duration":200,"noteNumber":69,"velocity":90,"programNumber":48},{"time":94800,"duration":200,"noteNumber":62,"velocity":90,"programNumber":48},{"time":95000,"duration":200,"noteNumber":65,"velocity":90,"programNumber":48},{"time":95200,"duration":200,"noteNumber":69,"velocity":90,"programNumber":48},{"time":95400,"duration":200,"noteNumber":67,"velocity":90,"programNumber":48},{"time":95600,"duration":200,"noteNumber":69,"velocity":90,"programNumber":48},{"time":95800,"duration":200,"noteNumber":57,"velocity":90,"programNumber":48},{"time":96000,"duration":200,"noteNumber":62,"velocity":90,"programNumber":48},{"time":96200,"duration":200,"noteNumber":65,"velocity":90,"programNumber":48},{"time":96400,"duration":200,"noteNumber":69,"velocity":90,"programNumber":48},{"time":96600,"duration":200,"noteNumber":74,"velocity":90,"programNumber":48},{"time":96800,"duration":200,"noteNumber":62,"velocity":90,"programNumber":48},{"time":97000,"duration":200,"noteNumber":65,"velocity":90,"programNumber":48},{"time":97200,"duration":200,"noteNumber":69,"velocity":90,"programNumber":48},{"time":97400,"duration":200,"noteNumber":74,"velocity":90,"programNumber":48},{"time":97600,"duration":200,"noteNumber":58,"velocity":90,"programNumber":48},{"time":97800,"duration":200,"noteNumber":62,"velocity":90,"programNumber":48},{"time":98000,"duration":200,"noteNumber":65,"velocity":90,"programNumber":48},{"time":98200,"duration":200,"noteNumber":70,"velocity":90,"programNumber":48},{"time":98400,"duration":200,"noteNumber":58,"velocity":90,"programNumber":48},{"time":98600,"duration":200,"noteNumber":62,"velocity":90,"programNumber":48},{"time":98800,"duration":200,"noteNumber":65,"velocity":90,"programNumber":48},{"time":99000,"duration":200,"noteNumber":70,"velocity":90,"programNumber":48},{"time":99200,"duration":200,"noteNumber":55,"velocity":90,"programNumber":48},{"time":99400,"duration":200,"noteNumber":58,"velocity":90,"programNumber":48},{"time":99600,"duration":200,"noteNumber":63,"velocity":90,"programNumber":48},{"time":99800,"duration":200,"noteNumber":67,"velocity":90,"programNumber":48},{"time":100000,"duration":200,"noteNumber":55,"velocity":90,"programNumber":48},{"time":100200,"duration":200,"noteNumber":58,"velocity":90,"programNumber":48},{"time":100400,"duration":200,"noteNumber":63,"velocity":90,"programNumber":48},{"time":100600,"duration":200,"noteNumber":67,"velocity":90,"programNumber":48},{"time":100800,"duration":200,"noteNumber":57,"velocity":90,"programNumber":48},{"time":101000,"duration":200,"noteNumber":69,"velocity":90,"programNumber":48},{"time":101200,"duration":200,"noteNumber":62,"velocity":90,"programNumber":48},{"time":101400,"duration":200,"noteNumber":65,"velocity":90,"programNumber":48},{"time":101600,"duration":200,"noteNumber":69,"velocity":90,"programNumber":48},{"time":101800,"duration":200,"noteNumber":67,"velocity":90,"programNumber":48},{"time":102000,"duration":200,"noteNumber":69,"velocity":90,"programNumber":48},{"time":102200,"duration":200,"noteNumber":57,"velocity":90,"programNumber":48},{"time":102400,"duration":400,"noteNumber":62,"velocity":90,"programNumber":48},{"time":103000,"duration":200,"noteNumber":57,"velocity":90,"programNumber":48},{"time":103200,"duration":200,"noteNumber":58,"velocity":90,"programNumber":48},{"time":103400,"duration":200,"noteNumber":62,"velocity":90,"programNumber":48},{"time":103600,"duration":200,"noteNumber":59,"velocity":90,"programNumber":48},{"time":103800,"duration":200,"noteNumber":56,"velocity":90,"programNumber":48},{"time":104000,"duration":200,"noteNumber":57,"velocity":90,"programNumber":48},{"time":104200,"duration":200,"noteNumber":58,"velocity":90,"programNumber":48},{"time":104400,"duration":200,"noteNumber":67,"velocity":90,"programNumber":48},{"time":104600,"duration":200,"noteNumber":65,"velocity":90,"programNumber":48},{"time":104800,"duration":200,"noteNumber":64,"velocity":90,"programNumber":48},{"time":105000,"duration":200,"noteNumber":62,"velocity":90,"programNumber":48},{"time":105200,"duration":200,"noteNumber":61,"velocity":90,"programNumber":48},{"time":105400,"duration":200,"noteNumber":69,"velocity":90,"programNumber":48},{"time":105600,"duration":100,"noteNumber":69,"velocity":90,"programNumber":48},{"time":105700,"duration":100,"noteNumber":69,"velocity":90,"programNumber":48},{"time":105800,"duration":100,"noteNumber":69,"velocity":90,"programNumber":48},{"time":105900,"duration":100,"noteNumber":69,"velocity":90,"programNumber":48},{"time":106000,"duration":100,"noteNumber":70,"velocity":90,"programNumber":48},{"time":106100,"duration":100,"noteNumber":70,"velocity":90,"programNumber":48},{"time":106200,"duration":100,"noteNumber":70,"velocity":90,"programNumber":48},{"time":106300,"duration":100,"noteNumber":70,"velocity":90,"programNumber":48},{"time":106400,"duration":200,"noteNumber":69,"velocity":90,"programNumber":48},{"time":106600,"duration":200,"noteNumber":67,"velocity":90,"programNumber":48},{"time":106800,"duration":200,"noteNumber":69,"velocity":90,"programNumber":48},{"time":107000,"duration":200,"noteNumber":57,"velocity":90,"programNumber":48},{"time":107200,"duration":400,"noteNumber":62,"velocity":90,"programNumber":48},{"time":107600,"duration":400,"noteNumber":50,"velocity":90,"programNumber":48}],[{"time":33.333333333333336,"duration":800.0000000000001,"noteNumber":74,"velocity":100,"programNumber":52},{"time":800.0000000000001,"duration":800.0000000000001,"noteNumber":69,"velocity":100,"programNumber":52},{"time":1600.0000000000002,"duration":400,"noteNumber":76,"velocity":100,"programNumber":52},{"time":2000.0000000000002,"duration":399.9999999999998,"noteNumber":69,"velocity":100,"programNumber":52},{"time":3200,"duration":800,"noteNumber":76,"velocity":100,"programNumber":52},{"time":4000,"duration":800,"noteNumber":69,"velocity":100,"programNumber":52},{"time":4800,"duration":400,"noteNumber":77,"velocity":100,"programNumber":52},{"time":5200,"duration":400,"noteNumber":74,"velocity":100,"programNumber":52},{"time":6000,"duration":200,"noteNumber":74,"velocity":100,"programNumber":52},{"time":6200,"duration":200,"noteNumber":74,"velocity":100,"programNumber":52},{"time":6400,"duration":400,"noteNumber":73,"velocity":100,"programNumber":52},{"time":6800,"duration":400,"noteNumber":74,"velocity":100,"programNumber":52},{"time":7600,"duration":200,"noteNumber":74,"velocity":100,"programNumber":52},{"time":7800,"duration":200,"noteNumber":74,"velocity":100,"programNumber":52},{"time":8000,"duration":400,"noteNumber":76,"velocity":100,"programNumber":52},{"time":8400,"duration":400,"noteNumber":77,"velocity":100,"programNumber":52},{"time":8800,"duration":600,"noteNumber":74,"velocity":100,"programNumber":52},{"time":9400,"duration":200,"noteNumber":74,"velocity":100,"programNumber":52},{"time":9600,"duration":400,"noteNumber":79,"velocity":100,"programNumber":52},{"time":10000,"duration":400,"noteNumber":77,"velocity":100,"programNumber":52},{"time":10400,"duration":400,"noteNumber":76,"velocity":100,"programNumber":52},{"time":10800,"duration":400,"noteNumber":74,"velocity":100,"programNumber":52},{"time":11200,"duration":400,"noteNumber":74,"velocity":100,"programNumber":52},{"time":11600,"duration":400,"noteNumber":73,"velocity":100,"programNumber":52},{"time":14400,"duration":1200,"noteNumber":77,"velocity":100,"programNumber":52},{"time":15600,"duration":400,"noteNumber":72,"velocity":100,"programNumber":52},{"time":16000,"duration":400,"noteNumber":69,"velocity":100,"programNumber":52},{"time":16400,"duration":400,"noteNumber":65,"velocity":100,"programNumber":52},{"time":16800,"duration":400,"noteNumber":69,"velocity":100,"programNumber":52},{"time":17200,"duration":400,"noteNumber":72,"velocity":100,"programNumber":52},{"time":17600,"duration":800,"noteNumber":75,"velocity":100,"programNumber":52},{"time":18400,"duration":800,"noteNumber":74,"velocity":100,"programNumber":52},{"time":19200,"duration":1200,"noteNumber":79,"velocity":100,"programNumber":52},{"time":20400,"duration":400,"noteNumber":74,"velocity":100,"programNumber":52},{"time":20800,"duration":400,"noteNumber":71,"velocity":100,"programNumber":52},{"time":21200,"duration":400,"noteNumber":67,"velocity":100,"programNumber":52},{"time":21600,"duration":400,"noteNumber":71,"velocity":100,"programNumber":52},{"time":22000,"duration":400,"noteNumber":74,"velocity":100,"programNumber":52},{"time":22400,"duration":800,"noteNumber":77,"velocity":100,"programNumber":52},{"time":23200,"duration":800,"noteNumber":76,"velocity":100,"programNumber":52},{"time":24000,"duration":800,"noteNumber":76,"velocity":100,"programNumber":52},{"time":24800,"duration":800,"noteNumber":76,"velocity":100,"programNumber":52},{"time":25600,"duration":800,"noteNumber":76,"velocity":100,"programNumber":52},{"time":26400,"duration":800,"noteNumber":74,"velocity":100,"programNumber":52},{"time":27200,"duration":400,"noteNumber":74,"velocity":100,"programNumber":52},{"time":27600,"duration":400,"noteNumber":72,"velocity":100,"programNumber":52},{"time":28000,"duration":800,"noteNumber":71,"velocity":100,"programNumber":52},{"time":28800,"duration":400,"noteNumber":69,"velocity":100,"programNumber":52},{"time":33600,"duration":800,"noteNumber":76,"velocity":100,"programNumber":52},{"time":34400,"duration":800,"noteNumber":76,"velocity":100,"programNumber":52},{"time":35200,"duration":400,"noteNumber":76,"velocity":100,"programNumber":52},{"time":35600,"duration":400,"noteNumber":71,"velocity":100,"programNumber":52},{"time":36800,"duration":800,"noteNumber":76,"velocity":100,"programNumber":52},{"time":37600,"duration":800,"noteNumber":76,"velocity":100,"programNumber":52},{"time":38400,"duration":400,"noteNumber":76,"velocity":100,"programNumber":52},{"time":38800,"duration":400,"noteNumber":72,"velocity":100,"programNumber":52},{"time":39600,"duration":200,"noteNumber":69,"velocity":100,"programNumber":52},{"time":39800,"duration":200,"noteNumber":69,"velocity":100,"programNumber":52},{"time":40000,"duration":400,"noteNumber":77,"velocity":100,"programNumber":52},{"time":40400,"duration":400,"noteNumber":76,"velocity":100,"programNumber":52},{"time":41200,"duration":200,"noteNumber":69,"velocity":100,"programNumber":52},{"time":41400,"duration":200,"noteNumber":69,"velocity":100,"programNumber":52},{"time":41600,"duration":400,"noteNumber":74,"velocity":100,"programNumber":52},{"time":42000,"duration":400,"noteNumber":72,"velocity":100,"programNumber":52},{"time":42400,"duration":600,"noteNumber":76,"velocity":100,"programNumber":52},{"time":43000,"duration":200,"noteNumber":76,"velocity":100,"programNumber":52},{"time":43200,"duration":400,"noteNumber":74,"velocity":100,"programNumber":52},{"time":43600,"duration":400,"noteNumber":72,"velocity":100,"programNumber":52},{"time":44000,"duration":400,"noteNumber":70,"velocity":100,"programNumber":52},{"time":44400,"duration":400,"noteNumber":69,"velocity":100,"programNumber":52},{"time":44800,"duration":400,"noteNumber":69,"velocity":100,"programNumber":52},{"time":45200,"duration":400,"noteNumber":68,"velocity":100,"programNumber":52},{"time":48000,"duration":1200,"noteNumber":72,"velocity":100,"programNumber":52},{"time":49200,"duration":400,"noteNumber":79,"velocity":100,"programNumber":52},{"time":49600,"duration":400,"noteNumber":75,"velocity":100,"programNumber":52},{"time":50000,"duration":400,"noteNumber":72,"velocity":100,"programNumber":52},{"time":50400,"duration":400,"noteNumber":67,"velocity":100,"programNumber":52},{"time":50800,"duration":400,"noteNumber":72,"velocity":100,"programNumber":52},{"time":51200,"duration":400,"noteNumber":72,"velocity":100,"programNumber":52},{"time":51600,"duration":400,"noteNumber":73,"velocity":100,"programNumber":52},{"time":52000,"duration":800,"noteNumber":73,"velocity":100,"programNumber":52},{"time":52800,"duration":1200,"noteNumber":73,"velocity":100,"programNumber":52},{"time":54000,"duration":400,"noteNumber":79,"velocity":100,"programNumber":52},{"time":54400,"duration":400,"noteNumber":76,"velocity":100,"programNumber":52},{"time":54800,"duration":400,"noteNumber":73,"velocity":100,"programNumber":52},{"time":55200,"duration":400,"noteNumber":69,"velocity":100,"programNumber":52},{"time":55600,"duration":400,"noteNumber":73,"velocity":100,"programNumber":52},{"time":56000,"duration":400,"noteNumber":73,"velocity":100,"programNumber":52},{"time":56400,"duration":400,"noteNumber":74,"velocity":100,"programNumber":52},{"time":56800,"duration":800,"noteNumber":74,"velocity":100,"programNumber":52},{"time":57600,"duration":800,"noteNumber":75,"velocity":100,"programNumber":52},{"time":58400,"duration":800,"noteNumber":78,"velocity":100,"programNumber":52},{"time":59200,"duration":800,"noteNumber":79,"velocity":100,"programNumber":52},{"time":60000,"duration":800,"noteNumber":77,"velocity":100,"programNumber":52},{"time":60800,"duration":800,"noteNumber":75,"velocity":100,"programNumber":52},{"time":61600,"duration":800,"noteNumber":74,"velocity":100,"programNumber":52},{"time":62400,"duration":400,"noteNumber":74,"velocity":100,"programNumber":52},{"time":62800,"duration":400,"noteNumber":73,"velocity":100,"programNumber":52},{"time":66400,"duration":600,"noteNumber":69,"velocity":100,"programNumber":52},{"time":67000,"duration":200,"noteNumber":69,"velocity":100,"programNumber":52},{"time":67200,"duration":400,"noteNumber":68,"velocity":100,"programNumber":52},{"time":67600,"duration":400,"noteNumber":69,"velocity":100,"programNumber":52},{"time":68000,"duration":600,"noteNumber":69,"velocity":100,"programNumber":52},{"time":68600,"duration":200,"noteNumber":69,"velocity":100,"programNumber":52},{"time":68800,"duration":400,"noteNumber":68,"velocity":100,"programNumber":52},{"time":69200,"duration":400,"noteNumber":69,"velocity":100,"programNumber":52},{"time":72800,"duration":600,"noteNumber":76,"velocity":100,"programNumber":52},{"time":73400,"duration":200,"noteNumber":76,"velocity":100,"programNumber":52},{"time":73600,"duration":400,"noteNumber":77,"velocity":100,"programNumber":52},{"time":74000,"duration":400,"noteNumber":76,"velocity":100,"programNumber":52},{"time":74400,"duration":600,"noteNumber":76,"velocity":100,"programNumber":52},{"time":75000,"duration":200,"noteNumber":76,"velocity":100,"programNumber":52},{"time":75200,"duration":400,"noteNumber":77,"velocity":100,"programNumber":52},{"time":75600,"duration":400,"noteNumber":76,"velocity":100,"programNumber":52},{"time":79200,"duration":600,"noteNumber":79,"velocity":100,"programNumber":52},{"time":79800,"duration":200,"noteNumber":79,"velocity":100,"programNumber":52},{"time":80000,"duration":200,"noteNumber":78,"velocity":100,"programNumber":52},{"time":80200,"duration":200,"noteNumber":79,"velocity":100,"programNumber":52},{"time":80400,"duration":200,"noteNumber":78,"velocity":100,"programNumber":52},{"time":80600,"duration":200,"noteNumber":79,"velocity":100,"programNumber":52},{"time":80800,"duration":200,"noteNumber":78,"velocity":100,"programNumber":52},{"time":81000,"duration":200,"noteNumber":79,"velocity":100,"programNumber":52},{"time":81200,"duration":200,"noteNumber":78,"velocity":100,"programNumber":52},{"time":81400,"duration":200,"noteNumber":79,"velocity":100,"programNumber":52},{"time":81600,"duration":400,"noteNumber":79,"velocity":100,"programNumber":52},{"time":82000,"duration":400,"noteNumber":73,"velocity":100,"programNumber":52},{"time":82800,"duration":200,"noteNumber":73,"velocity":100,"programNumber":52},{"time":83000,"duration":200,"noteNumber":73,"velocity":100,"programNumber":52},{"time":83200,"duration":400,"noteNumber":74,"velocity":100,"programNumber":52},{"time":83600,"duration":400,"noteNumber":73,"velocity":100,"programNumber":52},{"time":84000,"duration":400,"noteNumber":74,"velocity":100,"programNumber":52},{"time":84400,"duration":400,"noteNumber":73,"velocity":100,"programNumber":52},{"time":84800,"duration":400,"noteNumber":74,"velocity":100,"programNumber":52},{"time":85200,"duration":400,"noteNumber":73,"velocity":100,"programNumber":52},{"time":86000,"duration":200,"noteNumber":74,"velocity":100,"programNumber":52},{"time":86200,"duration":200,"noteNumber":74,"velocity":100,"programNumber":52},{"time":86400,"duration":400,"noteNumber":79,"velocity":100,"programNumber":52},{"time":86800,"duration":400,"noteNumber":77,"velocity":100,"programNumber":52},{"time":87200,"duration":400,"noteNumber":79,"velocity":100,"programNumber":52},{"time":87600,"duration":400,"noteNumber":77,"velocity":100,"programNumber":52},{"time":88000,"duration":400,"noteNumber":79,"velocity":100,"programNumber":52},{"time":88400,"duration":400,"noteNumber":77,"velocity":100,"programNumber":52},{"time":90000,"duration":800,"noteNumber":74,"velocity":100,"programNumber":52},{"time":90800,"duration":400,"noteNumber":74,"velocity":100,"programNumber":52},{"time":91200,"duration":400,"noteNumber":77,"velocity":100,"programNumber":52},{"time":91600,"duration":400,"noteNumber":74,"velocity":100,"programNumber":52},{"time":93600,"duration":600,"noteNumber":79,"velocity":100,"programNumber":52},{"time":94200,"duration":200,"noteNumber":79,"velocity":100,"programNumber":52},{"time":94400,"duration":400,"noteNumber":79,"velocity":100,"programNumber":52},{"time":94800,"duration":400,"noteNumber":77,"velocity":100,"programNumber":52},{"time":95200,"duration":800,"noteNumber":76,"velocity":100,"programNumber":52},{"time":96000,"duration":400,"noteNumber":74,"velocity":100,"programNumber":52},{"time":96400,"duration":800,"noteNumber":74,"velocity":100,"programNumber":52},{"time":97200,"duration":400,"noteNumber":74,"velocity":100,"programNumber":52},{"time":97600,"duration":400,"noteNumber":77,"velocity":100,"programNumber":52},{"time":98000,"duration":400,"noteNumber":74,"velocity":100,"programNumber":52},{"time":100000,"duration":600,"noteNumber":79,"velocity":100,"programNumber":52},{"time":100600,"duration":200,"noteNumber":79,"velocity":100,"programNumber":52},{"time":100800,"duration":400,"noteNumber":79,"velocity":100,"programNumber":52},{"time":101200,"duration":400,"noteNumber":77,"velocity":100,"programNumber":52},{"time":101600,"duration":800,"noteNumber":76,"velocity":100,"programNumber":52},{"time":102400,"duration":400,"noteNumber":74,"velocity":100,"programNumber":52}],[{"time":800.0000000000001,"duration":33.33333333333337,"noteNumber":69,"velocity":100,"programNumber":52},{"time":1600.0000000000002,"duration":400,"noteNumber":69,"velocity":100,"programNumber":52},{"time":2000.0000000000002,"duration":399.9999999999998,"noteNumber":69,"velocity":100,"programNumber":52},{"time":3200,"duration":800,"noteNumber":69,"velocity":100,"programNumber":52},{"time":4000,"duration":800,"noteNumber":69,"velocity":100,"programNumber":52},{"time":4800,"duration":400,"noteNumber":69,"velocity":100,"programNumber":52},{"time":5200,"duration":400,"noteNumber":69,"velocity":100,"programNumber":52},{"time":6000,"duration":200,"noteNumber":69,"velocity":100,"programNumber":52},{"time":6200,"duration":200,"noteNumber":69,"velocity":100,"programNumber":52},{"time":6400,"duration":400,"noteNumber":67,"velocity":100,"programNumber":52},{"time":6800,"duration":400,"noteNumber":69,"velocity":100,"programNumber":52},{"time":7600,"duration":200,"noteNumber":69,"velocity":100,"programNumber":52},{"time":7800,"duration":200,"noteNumber":69,"velocity":100,"programNumber":52},{"time":8000,"duration":400,"noteNumber":69,"velocity":100,"programNumber":52},{"time":8400,"duration":400,"noteNumber":69,"velocity":100,"programNumber":52},{"time":9200,"duration":200,"noteNumber":69,"velocity":100,"programNumber":52},{"time":9400,"duration":200,"noteNumber":69,"velocity":100,"programNumber":52},{"time":9600,"duration":400,"noteNumber":67,"velocity":100,"programNumber":52},{"time":10000,"duration":400,"noteNumber":69,"velocity":100,"programNumber":52},{"time":10400,"duration":400,"noteNumber":70,"velocity":100,"programNumber":52},{"time":10800,"duration":400,"noteNumber":69,"velocity":100,"programNumber":52},{"time":11200,"duration":400,"noteNumber":69,"velocity":100,"programNumber":52},{"time":11600,"duration":400,"noteNumber":69,"velocity":100,"programNumber":52},{"time":14400,"duration":1200,"noteNumber":69,"velocity":100,"programNumber":52},{"time":15600,"duration":400,"noteNumber":69,"velocity":100,"programNumber":52},{"time":16000,"duration":400,"noteNumber":65,"velocity":100,"programNumber":52},{"time":16400,"duration":400,"noteNumber":60,"velocity":100,"programNumber":52},{"time":16800,"duration":400,"noteNumber":65,"velocity":100,"programNumber":52},{"time":17200,"duration":400,"noteNumber":69,"velocity":100,"programNumber":52},{"time":17600,"duration":800,"noteNumber":72,"velocity":100,"programNumber":52},{"time":18400,"duration":800,"noteNumber":69,"velocity":100,"programNumber":52},{"time":19200,"duration":1200,"noteNumber":62,"velocity":100,"programNumber":52},{"time":20400,"duration":400,"noteNumber":67,"velocity":100,"programNumber":52},{"time":20800,"duration":400,"noteNumber":62,"velocity":100,"programNumber":52},{"time":21200,"duration":400,"noteNumber":62,"velocity":100,"programNumber":52},{"time":21600,"duration":400,"noteNumber":67,"velocity":100,"programNumber":52},{"time":22000,"duration":400,"noteNumber":71,"velocity":100,"programNumber":52},{"time":22400,"duration":800,"noteNumber":74,"velocity":100,"programNumber":52},{"time":23200,"duration":800,"noteNumber":71,"velocity":100,"programNumber":52},{"time":24000,"duration":800,"noteNumber":69,"velocity":100,"programNumber":52},{"time":24800,"duration":800,"noteNumber":68,"velocity":100,"programNumber":52},{"time":25600,"duration":400,"noteNumber":69,"velocity":100,"programNumber":52},{"time":26000,"duration":800,"noteNumber":72,"velocity":100,"programNumber":52},{"time":26800,"duration":200,"noteNumber":71,"velocity":100,"programNumber":52},{"time":27000,"duration":200,"noteNumber":69,"velocity":100,"programNumber":52},{"time":27200,"duration":400,"noteNumber":68,"velocity":100,"programNumber":52},{"time":27600,"duration":400,"noteNumber":69,"velocity":100,"programNumber":52},{"time":28000,"duration":400,"noteNumber":69,"velocity":100,"programNumber":52},{"time":28400,"duration":400,"noteNumber":68,"velocity":100,"programNumber":52},{"time":28800,"duration":400,"noteNumber":69,"velocity":100,"programNumber":52},{"time":33600,"duration":800,"noteNumber":72,"velocity":100,"programNumber":52},{"time":34400,"duration":800,"noteNumber":72,"velocity":100,"programNumber":52},{"time":35200,"duration":400,"noteNumber":71,"velocity":100,"programNumber":52},{"time":35600,"duration":400,"noteNumber":71,"velocity":100,"programNumber":52},{"time":36800,"duration":800,"noteNumber":71,"velocity":100,"programNumber":52},{"time":37600,"duration":800,"noteNumber":71,"velocity":100,"programNumber":52},{"time":38400,"duration":400,"noteNumber":69,"velocity":100,"programNumber":52},{"time":38800,"duration":400,"noteNumber":69,"velocity":100,"programNumber":52},{"time":39600,"duration":200,"noteNumber":69,"velocity":100,"programNumber":52},{"time":39800,"duration":200,"noteNumber":69,"velocity":100,"programNumber":52},{"time":40000,"duration":400,"noteNumber":69,"velocity":100,"programNumber":52},{"time":40400,"duration":400,"noteNumber":69,"velocity":100,"programNumber":52},{"time":41200,"duration":200,"noteNumber":69,"velocity":100,"programNumber":52},{"time":41400,"duration":200,"noteNumber":69,"velocity":100,"programNumber":52},{"time":41600,"duration":400,"noteNumber":68,"velocity":100,"programNumber":52},{"time":42000,"duration":400,"noteNumber":69,"velocity":100,"programNumber":52},{"time":42800,"duration":200,"noteNumber":64,"velocity":100,"programNumber":52},{"time":43000,"duration":200,"noteNumber":64,"velocity":100,"programNumber":52},{"time":43200,"duration":400,"noteNumber":69,"velocity":100,"programNumber":52},{"time":43600,"duration":400,"noteNumber":67,"velocity":100,"programNumber":52},{"time":44000,"duration":400,"noteNumber":65,"velocity":100,"programNumber":52},{"time":44400,"duration":400,"noteNumber":64,"velocity":100,"programNumber":52},{"time":44800,"duration":400,"noteNumber":64,"velocity":100,"programNumber":52},{"time":45200,"duration":400,"noteNumber":64,"velocity":100,"programNumber":52},{"time":48000,"duration":1200,"noteNumber":67,"velocity":100,"programNumber":52},{"time":49200,"duration":400,"noteNumber":67,"velocity":100,"programNumber":52},{"time":49600,"duration":400,"noteNumber":67,"velocity":100,"programNumber":52},{"time":50000,"duration":400,"noteNumber":67,"velocity":100,"programNumber":52},{"time":50400,"duration":400,"noteNumber":67,"velocity":100,"programNumber":52},{"time":50800,"duration":400,"noteNumber":67,"velocity":100,"programNumber":52},{"time":51200,"duration":800,"noteNumber":67,"velocity":100,"programNumber":52},{"time":52000,"duration":800,"noteNumber":67,"velocity":100,"programNumber":52},{"time":52800,"duration":1200,"noteNumber":67,"velocity":100,"programNumber":52},{"time":54000,"duration":400,"noteNumber":64,"velocity":100,"programNumber":52},{"time":54400,"duration":400,"noteNumber":67,"velocity":100,"programNumber":52},{"time":54800,"duration":400,"noteNumber":67,"velocity":100,"programNumber":52},{"time":55200,"duration":400,"noteNumber":64,"velocity":100,"programNumber":52},{"time":55600,"duration":400,"noteNumber":69,"velocity":100,"programNumber":52},{"time":56000,"duration":800,"noteNumber":69,"velocity":100,"programNumber":52},{"time":56800,"duration":800,"noteNumber":69,"velocity":100,"programNumber":52},{"time":57600,"duration":800,"noteNumber":70,"velocity":100,"programNumber":52},{"time":58400,"duration":600,"noteNumber":72,"velocity":100,"programNumber":52},{"time":59000,"duration":200,"noteNumber":69,"velocity":100,"programNumber":52},{"time":59200,"duration":800,"noteNumber":67,"velocity":100,"programNumber":52},{"time":60000,"duration":800,"noteNumber":69,"velocity":100,"programNumber":52},{"time":60800,"duration":800,"noteNumber":70,"velocity":100,"programNumber":52},{"time":61600,"duration":800,"noteNumber":71,"velocity":100,"programNumber":52},{"time":62400,"duration":400,"noteNumber":69,"velocity":100,"programNumber":52},{"time":62800,"duration":400,"noteNumber":69,"velocity":100,"programNumber":52},{"time":66400,"duration":600,"noteNumber":64,"velocity":100,"programNumber":52},{"time":67000,"duration":200,"noteNumber":64,"velocity":100,"programNumber":52},{"time":67200,"duration":400,"noteNumber":65,"velocity":100,"programNumber":52},{"time":67600,"duration":400,"noteNumber":64,"velocity":100,"programNumber":52},{"time":68000,"duration":600,"noteNumber":64,"velocity":100,"programNumber":52},{"time":68600,"duration":200,"noteNumber":64,"velocity":100,"programNumber":52},{"time":68800,"duration":400,"noteNumber":65,"velocity":100,"programNumber":52},{"time":69200,"duration":400,"noteNumber":64,"velocity":100,"programNumber":52},{"time":72800,"duration":600,"noteNumber":69,"velocity":100,"programNumber":52},{"time":73400,"duration":200,"noteNumber":69,"velocity":100,"programNumber":52},{"time":73600,"duration":400,"noteNumber":68,"velocity":100,"programNumber":52},{"time":74000,"duration":400,"noteNumber":69,"velocity":100,"programNumber":52},{"time":74400,"duration":600,"noteNumber":69,"velocity":100,"programNumber":52},{"time":75000,"duration":200,"noteNumber":69,"velocity":100,"programNumber":52},{"time":75200,"duration":400,"noteNumber":68,"velocity":100,"programNumber":52},{"time":75600,"duration":400,"noteNumber":69,"velocity":100,"programNumber":52},{"time":79200,"duration":600,"noteNumber":67,"velocity":100,"programNumber":52},{"time":79800,"duration":200,"noteNumber":67,"velocity":100,"programNumber":52},{"time":80000,"duration":200,"noteNumber":69,"velocity":100,"programNumber":52},{"time":80200,"duration":200,"noteNumber":70,"velocity":100,"programNumber":52},{"time":80400,"duration":200,"noteNumber":69,"velocity":100,"programNumber":52},{"time":80600,"duration":200,"noteNumber":70,"velocity":100,"programNumber":52},{"time":80800,"duration":200,"noteNumber":69,"velocity":100,"programNumber":52},{"time":81000,"duration":200,"noteNumber":70,"velocity":100,"programNumber":52},{"time":81200,"duration":200,"noteNumber":69,"velocity":100,"programNumber":52},{"time":81400,"duration":200,"noteNumber":70,"velocity":100,"programNumber":52},{"time":81600,"duration":400,"noteNumber":64,"velocity":100,"programNumber":52},{"time":82000,"duration":400,"noteNumber":69,"velocity":100,"programNumber":52},{"time":82800,"duration":200,"noteNumber":69,"velocity":100,"programNumber":52},{"time":83000,"duration":200,"noteNumber":69,"velocity":100,"programNumber":52},{"time":83200,"duration":400,"noteNumber":69,"velocity":100,"programNumber":52},{"time":83600,"duration":400,"noteNumber":69,"velocity":100,"programNumber":52},{"time":84000,"duration":400,"noteNumber":69,"velocity":100,"programNumber":52},{"time":84400,"duration":400,"noteNumber":69,"velocity":100,"programNumber":52},{"time":84800,"duration":400,"noteNumber":69,"velocity":100,"programNumber":52},{"time":85200,"duration":400,"noteNumber":69,"velocity":100,"programNumber":52},{"time":86000,"duration":200,"noteNumber":69,"velocity":100,"programNumber":52},{"time":86200,"duration":200,"noteNumber":69,"velocity":100,"programNumber":52},{"time":86400,"duration":400,"noteNumber":69,"velocity":100,"programNumber":52},{"time":86800,"duration":400,"noteNumber":69,"velocity":100,"programNumber":52},{"time":87200,"duration":400,"noteNumber":69,"velocity":100,"programNumber":52},{"time":87600,"duration":400,"noteNumber":69,"velocity":100,"programNumber":52},{"time":88000,"duration":400,"noteNumber":69,"velocity":100,"programNumber":52},{"time":88400,"duration":400,"noteNumber":69,"velocity":100,"programNumber":52},{"time":90000,"duration":800,"noteNumber":65,"velocity":100,"programNumber":52},{"time":90800,"duration":400,"noteNumber":65,"velocity":100,"programNumber":52},{"time":91200,"duration":400,"noteNumber":69,"velocity":100,"programNumber":52},{"time":91600,"duration":400,"noteNumber":65,"velocity":100,"programNumber":52},{"time":93600,"duration":600,"noteNumber":70,"velocity":100,"programNumber":52},{"time":94200,"duration":200,"noteNumber":70,"velocity":100,"programNumber":52},{"time":94400,"duration":400,"noteNumber":69,"velocity":100,"programNumber":52},{"time":94800,"duration":400,"noteNumber":69,"velocity":100,"programNumber":52},{"time":95200,"duration":800,"noteNumber":69,"velocity":100,"programNumber":52},{"time":96000,"duration":400,"noteNumber":69,"velocity":100,"programNumber":52},{"time":96400,"duration":800,"noteNumber":65,"velocity":100,"programNumber":52},{"time":97200,"duration":400,"noteNumber":65,"velocity":100,"programNumber":52},{"time":97600,"duration":400,"noteNumber":74,"velocity":100,"programNumber":52},{"time":98000,"duration":400,"noteNumber":70,"velocity":100,"programNumber":52},{"time":100000,"duration":600,"noteNumber":70,"velocity":100,"programNumber":52},{"time":100600,"duration":200,"noteNumber":70,"velocity":100,"programNumber":52},{"time":100800,"duration":400,"noteNumber":69,"velocity":100,"programNumber":52},{"time":101200,"duration":400,"noteNumber":69,"velocity":100,"programNumber":52},{"time":101600,"duration":800,"noteNumber":69,"velocity":100,"programNumber":52},{"time":102400,"duration":400,"noteNumber":69,"velocity":100,"programNumber":52}],[{"time":800.0000000000001,"duration":33.33333333333337,"noteNumber":65,"velocity":100,"programNumber":52},{"time":1600.0000000000002,"duration":400,"noteNumber":67,"velocity":100,"programNumber":52},{"time":2000.0000000000002,"duration":399.9999999999998,"noteNumber":67,"velocity":100,"programNumber":52},{"time":3200,"duration":800,"noteNumber":67,"velocity":100,"programNumber":52},{"time":4000,"duration":800,"noteNumber":67,"velocity":100,"programNumber":52},{"time":4800,"duration":400,"noteNumber":65,"velocity":100,"programNumber":52},{"time":5200,"duration":400,"noteNumber":65,"velocity":100,"programNumber":52},{"time":6000,"duration":200,"noteNumber":65,"velocity":100,"programNumber":52},{"time":6200,"duration":200,"noteNumber":65,"velocity":100,"programNumber":52},{"time":6400,"duration":400,"noteNumber":64,"velocity":100,"programNumber":52},{"time":6800,"duration":400,"noteNumber":62,"velocity":100,"programNumber":52},{"time":7600,"duration":200,"noteNumber":57,"velocity":100,"programNumber":52},{"time":7800,"duration":200,"noteNumber":57,"velocity":100,"programNumber":52},{"time":8000,"duration":400,"noteNumber":64,"velocity":100,"programNumber":52},{"time":8400,"duration":400,"noteNumber":62,"velocity":100,"programNumber":52},{"time":9200,"duration":200,"noteNumber":65,"velocity":100,"programNumber":52},{"time":9400,"duration":200,"noteNumber":65,"velocity":100,"programNumber":52},{"time":9600,"duration":400,"noteNumber":62,"velocity":100,"programNumber":52},{"time":10000,"duration":400,"noteNumber":62,"velocity":100,"programNumber":52},{"time":10400,"duration":400,"noteNumber":61,"velocity":100,"programNumber":52},{"time":10800,"duration":400,"noteNumber":65,"velocity":100,"programNumber":52},{"time":11200,"duration":400,"noteNumber":65,"velocity":100,"programNumber":52},{"time":11600,"duration":400,"noteNumber":64,"velocity":100,"programNumber":52},{"time":14400,"duration":1200,"noteNumber":60,"velocity":100,"programNumber":52},{"time":15600,"duration":400,"noteNumber":53,"velocity":100,"programNumber":52},{"time":16000,"duration":1200,"noteNumber":65,"velocity":100,"programNumber":52},{"time":17200,"duration":400,"noteNumber":60,"velocity":100,"programNumber":52},{"time":17600,"duration":400,"noteNumber":57,"velocity":100,"programNumber":52},{"time":18000,"duration":400,"noteNumber":54,"velocity":100,"programNumber":52},{"time":18400,"duration":400,"noteNumber":57,"velocity":100,"programNumber":52},{"time":18800,"duration":400,"noteNumber":60,"velocity":100,"programNumber":52},{"time":19200,"duration":800,"noteNumber":60,"velocity":100,"programNumber":52},{"time":20000,"duration":800,"noteNumber":59,"velocity":100,"programNumber":52},{"time":20800,"duration":1200,"noteNumber":67,"velocity":100,"programNumber":52},{"time":22000,"duration":400,"noteNumber":62,"velocity":100,"programNumber":52},{"time":22400,"duration":400,"noteNumber":59,"velocity":100,"programNumber":52},{"time":22800,"duration":400,"noteNumber":56,"velocity":100,"programNumber":52},{"time":23200,"duration":400,"noteNumber":59,"velocity":100,"programNumber":52},{"time":23600,"duration":400,"noteNumber":62,"velocity":100,"programNumber":52},{"time":24000,"duration":600,"noteNumber":60,"velocity":100,"programNumber":52},{"time":24600,"duration":200,"noteNumber":57,"velocity":100,"programNumber":52},{"time":24800,"duration":600,"noteNumber":62,"velocity":100,"programNumber":52},{"time":25400,"duration":200,"noteNumber":59,"velocity":100,"programNumber":52},{"time":25600,"duration":400,"noteNumber":64,"velocity":100,"programNumber":52},{"time":26000,"duration":400,"noteNumber":57,"velocity":100,"programNumber":52},{"time":26800,"duration":200,"noteNumber":65,"velocity":100,"programNumber":52},{"time":27000,"duration":200,"noteNumber":65,"velocity":100,"programNumber":52},{"time":27200,"duration":400,"noteNumber":64,"velocity":100,"programNumber":52},{"time":27600,"duration":400,"noteNumber":64,"velocity":100,"programNumber":52},{"time":28000,"duration":800,"noteNumber":64,"velocity":100,"programNumber":52},{"time":28800,"duration":400,"noteNumber":64,"velocity":100,"programNumber":52},{"time":33600,"duration":800,"noteNumber":64,"velocity":100,"programNumber":52},{"time":34400,"duration":800,"noteNumber":64,"velocity":100,"programNumber":52},{"time":35200,"duration":400,"noteNumber":62,"velocity":100,"programNumber":52},{"time":35600,"duration":400,"noteNumber":62,"velocity":100,"programNumber":52},{"time":36800,"duration":800,"noteNumber":62,"velocity":100,"programNumber":52},{"time":37600,"duration":800,"noteNumber":62,"velocity":100,"programNumber":52},{"time":38400,"duration":400,"noteNumber":60,"velocity":100,"programNumber":52},{"time":38800,"duration":400,"noteNumber":60,"velocity":100,"programNumber":52},{"time":39600,"duration":200,"noteNumber":60,"velocity":100,"programNumber":52},{"time":39800,"duration":200,"noteNumber":60,"velocity":100,"programNumber":52},{"time":40000,"duration":400,"noteNumber":62,"velocity":100,"programNumber":52},{"time":40400,"duration":400,"noteNumber":64,"velocity":100,"programNumber":52},{"time":41200,"duration":200,"noteNumber":64,"velocity":100,"programNumber":52},{"time":41400,"duration":200,"noteNumber":64,"velocity":100,"programNumber":52},{"time":41600,"duration":400,"noteNumber":64,"velocity":100,"programNumber":52},{"time":42000,"duration":400,"noteNumber":64,"velocity":100,"programNumber":52},{"time":42800,"duration":200,"noteNumber":60,"velocity":100,"programNumber":52},{"time":43000,"duration":200,"noteNumber":59,"velocity":100,"programNumber":52},{"time":43200,"duration":400,"noteNumber":57,"velocity":100,"programNumber":52},{"time":43600,"duration":400,"noteNumber":60,"velocity":100,"programNumber":52},{"time":44000,"duration":400,"noteNumber":62,"velocity":100,"programNumber":52},{"time":44400,"duration":400,"noteNumber":60,"velocity":100,"programNumber":52},{"time":44800,"duration":400,"noteNumber":60,"velocity":100,"programNumber":52},{"time":45200,"duration":400,"noteNumber":59,"velocity":100,"programNumber":52},{"time":48000,"duration":1200,"noteNumber":63,"velocity":100,"programNumber":52},{"time":49200,"duration":400,"noteNumber":63,"velocity":100,"programNumber":52},{"time":49600,"duration":400,"noteNumber":63,"velocity":100,"programNumber":52},{"time":50000,"duration":400,"noteNumber":63,"velocity":100,"programNumber":52},{"time":50400,"duration":400,"noteNumber":63,"velocity":100,"programNumber":52},{"time":50800,"duration":400,"noteNumber":63,"velocity":100,"programNumber":52},{"time":51200,"duration":400,"noteNumber":63,"velocity":100,"programNumber":52},{"time":51600,"duration":400,"noteNumber":64,"velocity":100,"programNumber":52},{"time":52000,"duration":800,"noteNumber":64,"velocity":100,"programNumber":52},{"time":52800,"duration":1200,"noteNumber":64,"velocity":100,"programNumber":52},{"time":54000,"duration":400,"noteNumber":61,"velocity":100,"programNumber":52},{"time":54400,"duration":400,"noteNumber":61,"velocity":100,"programNumber":52},{"time":54800,"duration":400,"noteNumber":64,"velocity":100,"programNumber":52},{"time":55200,"duration":400,"noteNumber":61,"velocity":100,"programNumber":52},{"time":55600,"duration":400,"noteNumber":64,"velocity":100,"programNumber":52},{"time":56000,"duration":400,"noteNumber":64,"velocity":100,"programNumber":52},{"time":56400,"duration":400,"noteNumber":65,"velocity":100,"programNumber":52},{"time":56800,"duration":800,"noteNumber":65,"velocity":100,"programNumber":52},{"time":57600,"duration":800,"noteNumber":63,"velocity":100,"programNumber":52},{"time":58400,"duration":800,"noteNumber":63,"velocity":100,"programNumber":52},{"time":59200,"duration":800,"noteNumber":62,"velocity":100,"programNumber":52},{"time":60000,"duration":800,"noteNumber":60,"velocity":100,"programNumber":52},{"time":60800,"duration":800,"noteNumber":58,"velocity":100,"programNumber":52},{"time":61600,"duration":800,"noteNumber":65,"velocity":100,"programNumber":52},{"time":62400,"duration":400,"noteNumber":65,"velocity":100,"programNumber":52},{"time":62800,"duration":400,"noteNumber":64,"velocity":100,"programNumber":52},{"time":66400,"duration":600,"noteNumber":61,"velocity":100,"programNumber":52},{"time":67000,"duration":200,"noteNumber":61,"velocity":100,"programNumber":52},{"time":67200,"duration":400,"noteNumber":62,"velocity":100,"programNumber":52},{"time":67600,"duration":400,"noteNumber":61,"velocity":100,"programNumber":52},{"time":68000,"duration":600,"noteNumber":61,"velocity":100,"programNumber":52},{"time":68600,"duration":200,"noteNumber":61,"velocity":100,"programNumber":52},{"time":68800,"duration":400,"noteNumber":62,"velocity":100,"programNumber":52},{"time":69200,"duration":400,"noteNumber":61,"velocity":100,"programNumber":52},{"time":72800,"duration":600,"noteNumber":61,"velocity":100,"programNumber":52},{"time":73400,"duration":200,"noteNumber":61,"velocity":100,"programNumber":52},{"time":73600,"duration":400,"noteNumber":62,"velocity":100,"programNumber":52},{"time":74000,"duration":400,"noteNumber":61,"velocity":100,"programNumber":52},{"time":74400,"duration":600,"noteNumber":61,"velocity":100,"programNumber":52},{"time":75000,"duration":200,"noteNumber":61,"velocity":100,"programNumber":52},{"time":75200,"duration":400,"noteNumber":62,"velocity":100,"programNumber":52},{"time":75600,"duration":400,"noteNumber":61,"velocity":100,"programNumber":52},{"time":79200,"duration":600,"noteNumber":62,"velocity":100,"programNumber":52},{"time":79800,"duration":200,"noteNumber":62,"velocity":100,"programNumber":52},{"time":80000,"duration":200,"noteNumber":63,"velocity":100,"programNumber":52},{"time":80200,"duration":200,"noteNumber":62,"velocity":100,"programNumber":52},{"time":80400,"duration":200,"noteNumber":63,"velocity":100,"programNumber":52},{"time":80600,"duration":200,"noteNumber":62,"velocity":100,"programNumber":52},{"time":80800,"duration":200,"noteNumber":63,"velocity":100,"programNumber":52},{"time":81000,"duration":200,"noteNumber":62,"velocity":100,"programNumber":52},{"time":81200,"duration":200,"noteNumber":63,"velocity":100,"programNumber":52},{"time":81400,"duration":200,"noteNumber":62,"velocity":100,"programNumber":52},{"time":81600,"duration":400,"noteNumber":61,"velocity":100,"programNumber":52},{"time":82000,"duration":400,"noteNumber":64,"velocity":100,"programNumber":52},{"time":82800,"duration":200,"noteNumber":64,"velocity":100,"programNumber":52},{"time":83000,"duration":200,"noteNumber":64,"velocity":100,"programNumber":52},{"time":83200,"duration":400,"noteNumber":65,"velocity":100,"programNumber":52},{"time":83600,"duration":400,"noteNumber":64,"velocity":100,"programNumber":52},{"time":84000,"duration":400,"noteNumber":65,"velocity":100,"programNumber":52},{"time":84400,"duration":400,"noteNumber":64,"velocity":100,"programNumber":52},{"time":84800,"duration":400,"noteNumber":65,"velocity":100,"programNumber":52},{"time":85200,"duration":400,"noteNumber":64,"velocity":100,"programNumber":52},{"time":86000,"duration":200,"noteNumber":65,"velocity":100,"programNumber":52},{"time":86200,"duration":200,"noteNumber":65,"velocity":100,"programNumber":52},{"time":86400,"duration":400,"noteNumber":64,"velocity":100,"programNumber":52},{"time":86800,"duration":400,"noteNumber":62,"velocity":100,"programNumber":52},{"time":87200,"duration":400,"noteNumber":64,"velocity":100,"programNumber":52},{"time":87600,"duration":400,"noteNumber":62,"velocity":100,"programNumber":52},{"time":88000,"duration":400,"noteNumber":64,"velocity":100,"programNumber":52},{"time":88400,"duration":400,"noteNumber":62,"velocity":100,"programNumber":52},{"time":91600,"duration":800,"noteNumber":62,"velocity":100,"programNumber":52},{"time":92400,"duration":400,"noteNumber":62,"velocity":100,"programNumber":52},{"time":92800,"duration":400,"noteNumber":65,"velocity":100,"programNumber":52},{"time":93200,"duration":400,"noteNumber":62,"velocity":100,"programNumber":52},{"time":93600,"duration":600,"noteNumber":62,"velocity":100,"programNumber":52},{"time":94200,"duration":200,"noteNumber":62,"velocity":100,"programNumber":52},{"time":94400,"duration":400,"noteNumber":61,"velocity":100,"programNumber":52},{"time":94800,"duration":400,"noteNumber":62,"velocity":100,"programNumber":52},{"time":95200,"duration":400,"noteNumber":62,"velocity":100,"programNumber":52},{"time":95600,"duration":400,"noteNumber":61,"velocity":100,"programNumber":52},{"time":96000,"duration":400,"noteNumber":62,"velocity":100,"programNumber":52},{"time":98000,"duration":800,"noteNumber":62,"velocity":100,"programNumber":52},{"time":98800,"duration":400,"noteNumber":62,"velocity":100,"programNumber":52},{"time":99200,"duration":400,"noteNumber":67,"velocity":100,"programNumber":52},{"time":99600,"duration":400,"noteNumber":63,"velocity":100,"programNumber":52},{"time":100000,"duration":600,"noteNumber":63,"velocity":100,"programNumber":52},{"time":100600,"duration":200,"noteNumber":62,"velocity":100,"programNumber":52},{"time":100800,"duration":400,"noteNumber":61,"velocity":100,"programNumber":52},{"time":101200,"duration":400,"noteNumber":62,"velocity":100,"programNumber":52},{"time":101600,"duration":400,"noteNumber":62,"velocity":100,"programNumber":52},{"time":102000,"duration":400,"noteNumber":61,"velocity":100,"programNumber":52},{"time":102400,"duration":400,"noteNumber":62,"velocity":100,"programNumber":52}],[{"time":800.0000000000001,"duration":33.33333333333337,"noteNumber":62,"velocity":100,"programNumber":52},{"time":1600.0000000000002,"duration":400,"noteNumber":62,"velocity":100,"programNumber":52},{"time":2000.0000000000002,"duration":399.9999999999998,"noteNumber":62,"velocity":100,"programNumber":52},{"time":3200,"duration":800,"noteNumber":61,"velocity":100,"programNumber":52},{"time":4000,"duration":800,"noteNumber":61,"velocity":100,"programNumber":52},{"time":4800,"duration":400,"noteNumber":62,"velocity":100,"programNumber":52},{"time":5200,"duration":400,"noteNumber":62,"velocity":100,"programNumber":52},{"time":6000,"duration":200,"noteNumber":50,"velocity":100,"programNumber":52},{"time":6200,"duration":200,"noteNumber":50,"velocity":100,"programNumber":52},{"time":6400,"duration":400,"noteNumber":52,"velocity":100,"programNumber":52},{"time":6800,"duration":400,"noteNumber":53,"velocity":100,"programNumber":52},{"time":7600,"duration":200,"noteNumber":53,"velocity":100,"programNumber":52},{"time":7800,"duration":200,"noteNumber":53,"velocity":100,"programNumber":52},{"time":8000,"duration":400,"noteNumber":49,"velocity":100,"programNumber":52},{"time":8400,"duration":400,"noteNumber":50,"velocity":100,"programNumber":52},{"time":9200,"duration":200,"noteNumber":62,"velocity":100,"programNumber":52},{"time":9400,"duration":200,"noteNumber":60,"velocity":100,"programNumber":52},{"time":9600,"duration":400,"noteNumber":58,"velocity":100,"programNumber":52},{"time":10000,"duration":400,"noteNumber":57,"velocity":100,"programNumber":52},{"time":10400,"duration":400,"noteNumber":55,"velocity":100,"programNumber":52},{"time":10800,"duration":400,"noteNumber":50,"velocity":100,"programNumber":52},{"time":11200,"duration":400,"noteNumber":57,"velocity":100,"programNumber":52},{"time":11600,"duration":400,"noteNumber":57,"velocity":100,"programNumber":52},{"time":14400,"duration":1200,"noteNumber":53,"velocity":100,"programNumber":52},{"time":15600,"duration":400,"noteNumber":53,"velocity":100,"programNumber":52},{"time":16000,"duration":400,"noteNumber":53,"velocity":100,"programNumber":52},{"time":16400,"duration":400,"noteNumber":53,"velocity":100,"programNumber":52},{"time":16800,"duration":400,"noteNumber":53,"velocity":100,"programNumber":52},{"time":17200,"duration":400,"noteNumber":53,"velocity":100,"programNumber":52},{"time":17600,"duration":800,"noteNumber":54,"velocity":100,"programNumber":52},{"time":18400,"duration":800,"noteNumber":54,"velocity":100,"programNumber":52},{"time":19200,"duration":1200,"noteNumber":55,"velocity":100,"programNumber":52},{"time":20400,"duration":400,"noteNumber":55,"velocity":100,"programNumber":52},{"time":20800,"duration":400,"noteNumber":55,"velocity":100,"programNumber":52},{"time":21200,"duration":400,"noteNumber":55,"velocity":100,"programNumber":52},{"time":21600,"duration":400,"noteNumber":55,"velocity":100,"programNumber":52},{"time":22000,"duration":400,"noteNumber":55,"velocity":100,"programNumber":52},{"time":22400,"duration":800,"noteNumber":56,"velocity":100,"programNumber":52},{"time":23200,"duration":800,"noteNumber":56,"velocity":100,"programNumber":52},{"time":24000,"duration":800,"noteNumber":57,"velocity":100,"programNumber":52},{"time":24800,"duration":800,"noteNumber":59,"velocity":100,"programNumber":52},{"time":25600,"duration":800,"noteNumber":60,"velocity":100,"programNumber":52},{"time":26400,"duration":800,"noteNumber":62,"velocity":100,"programNumber":52},{"time":27200,"duration":400,"noteNumber":64,"velocity":100,"programNumber":52},{"time":27600,"duration":400,"noteNumber":57,"velocity":100,"programNumber":52},{"time":28000,"duration":800,"noteNumber":52,"velocity":100,"programNumber":52},{"time":28800,"duration":400,"noteNumber":57,"velocity":100,"programNumber":52},{"time":33600,"duration":800,"noteNumber":57,"velocity":100,"programNumber":52},{"time":34400,"duration":800,"noteNumber":57,"velocity":100,"programNumber":52},{"time":35200,"duration":400,"noteNumber":57,"velocity":100,"programNumber":52},{"time":35600,"duration":400,"noteNumber":57,"velocity":100,"programNumber":52},{"time":36800,"duration":800,"noteNumber":56,"velocity":100,"programNumber":52},{"time":37600,"duration":800,"noteNumber":56,"velocity":100,"programNumber":52},{"time":38400,"duration":400,"noteNumber":57,"velocity":100,"programNumber":52},{"time":38800,"duration":400,"noteNumber":57,"velocity":100,"programNumber":52},{"time":39600,"duration":200,"noteNumber":57,"velocity":100,"programNumber":52},{"time":39800,"duration":200,"noteNumber":57,"velocity":100,"programNumber":52},{"time":40000,"duration":400,"noteNumber":62,"velocity":100,"programNumber":52},{"time":40400,"duration":400,"noteNumber":60,"velocity":100,"programNumber":52},{"time":41200,"duration":200,"noteNumber":60,"velocity":100,"programNumber":52},{"time":41400,"duration":200,"noteNumber":60,"velocity":100,"programNumber":52},{"time":41600,"duration":400,"noteNumber":59,"velocity":100,"programNumber":52},{"time":42000,"duration":400,"noteNumber":57,"velocity":100,"programNumber":52},{"time":42800,"duration":200,"noteNumber":57,"velocity":100,"programNumber":52},{"time":43000,"duration":200,"noteNumber":55,"velocity":100,"programNumber":52},{"time":43200,"duration":400,"noteNumber":53,"velocity":100,"programNumber":52},{"time":43600,"duration":400,"noteNumber":52,"velocity":100,"programNumber":52},{"time":44000,"duration":400,"noteNumber":50,"velocity":100,"programNumber":52},{"time":44400,"duration":400,"noteNumber":57,"velocity":100,"programNumber":52},{"time":44800,"duration":400,"noteNumber":52,"velocity":100,"programNumber":52},{"time":45200,"duration":400,"noteNumber":52,"velocity":100,"programNumber":52},{"time":48000,"duration":1200,"noteNumber":60,"velocity":100,"programNumber":52},{"time":49200,"duration":400,"noteNumber":60,"velocity":100,"programNumber":52},{"time":49600,"duration":400,"noteNumber":60,"velocity":100,"programNumber":52},{"time":50000,"duration":400,"noteNumber":60,"velocity":100,"programNumber":52},{"time":50400,"duration":400,"noteNumber":60,"velocity":100,"programNumber":52},{"time":50800,"duration":400,"noteNumber":60,"velocity":100,"programNumber":52},{"time":51200,"duration":400,"noteNumber":60,"velocity":100,"programNumber":52},{"time":51600,"duration":400,"noteNumber":58,"velocity":100,"programNumber":52},{"time":52000,"duration":800,"noteNumber":58,"velocity":100,"programNumber":52},{"time":52800,"duration":1200,"noteNumber":58,"velocity":100,"programNumber":52},{"time":54000,"duration":400,"noteNumber":58,"velocity":100,"programNumber":52},{"time":54400,"duration":400,"noteNumber":58,"velocity":100,"programNumber":52},{"time":54800,"duration":400,"noteNumber":57,"velocity":100,"programNumber":52},{"time":55200,"duration":400,"noteNumber":57,"velocity":100,"programNumber":52},{"time":55600,"duration":400,"noteNumber":55,"velocity":100,"programNumber":52},{"time":56000,"duration":400,"noteNumber":55,"velocity":100,"programNumber":52},{"time":56400,"duration":400,"noteNumber":53,"velocity":100,"programNumber":52},{"time":56800,"duration":800,"noteNumber":53,"velocity":100,"programNumber":52},{"time":57600,"duration":800,"noteNumber":55,"velocity":100,"programNumber":52},{"time":58400,"duration":800,"noteNumber":57,"velocity":100,"programNumber":52},{"time":59200,"duration":800,"noteNumber":58,"velocity":100,"programNumber":52},{"time":60000,"duration":800,"noteNumber":57,"velocity":100,"programNumber":52},{"time":60800,"duration":800,"noteNumber":55,"velocity":100,"programNumber":52},{"time":61600,"duration":800,"noteNumber":56,"velocity":100,"programNumber":52},{"time":62400,"duration":400,"noteNumber":57,"velocity":100,"programNumber":52},{"time":62800,"duration":400,"noteNumber":57,"velocity":100,"programNumber":52},{"time":63200,"duration":600,"noteNumber":57,"velocity":100,"programNumber":52},{"time":63800,"duration":200,"noteNumber":57,"velocity":100,"programNumber":52},{"time":64000,"duration":200,"noteNumber":56,"velocity":100,"programNumber":52},{"time":64200,"duration":200,"noteNumber":57,"velocity":100,"programNumber":52},{"time":64400,"duration":200,"noteNumber":56,"velocity":100,"programNumber":52},{"time":64600,"duration":200,"noteNumber":57,"velocity":100,"programNumber":52},{"time":64800,"duration":200,"noteNumber":56,"velocity":100,"programNumber":52},{"time":65000,"duration":200,"noteNumber":57,"velocity":100,"programNumber":52},{"time":65200,"duration":200,"noteNumber":56,"velocity":100,"programNumber":52},{"time":65400,"duration":200,"noteNumber":57,"velocity":100,"programNumber":52},{"time":65600,"duration":400,"noteNumber":58,"velocity":100,"programNumber":52},{"time":66000,"duration":400,"noteNumber":57,"velocity":100,"programNumber":52},{"time":69600,"duration":600,"noteNumber":57,"velocity":100,"programNumber":52},{"time":70200,"duration":200,"noteNumber":57,"velocity":100,"programNumber":52},{"time":70400,"duration":200,"noteNumber":56,"velocity":100,"programNumber":52},{"time":70600,"duration":200,"noteNumber":57,"velocity":100,"programNumber":52},{"time":70800,"duration":200,"noteNumber":56,"velocity":100,"programNumber":52},{"time":71000,"duration":200,"noteNumber":57,"velocity":100,"programNumber":52},{"time":71200,"duration":200,"noteNumber":56,"velocity":100,"programNumber":52},{"time":71400,"duration":200,"noteNumber":57,"velocity":100,"programNumber":52},{"time":71600,"duration":200,"noteNumber":56,"velocity":100,"programNumber":52},{"time":71800,"duration":200,"noteNumber":57,"velocity":100,"programNumber":52},{"time":72000,"duration":400,"noteNumber":58,"velocity":100,"programNumber":52},{"time":72400,"duration":400,"noteNumber":57,"velocity":100,"programNumber":52},{"time":76000,"duration":600,"noteNumber":57,"velocity":100,"programNumber":52},{"time":76600,"duration":200,"noteNumber":57,"velocity":100,"programNumber":52},{"time":76800,"duration":200,"noteNumber":56,"velocity":100,"programNumber":52},{"time":77000,"duration":200,"noteNumber":57,"velocity":100,"programNumber":52},{"time":77200,"duration":200,"noteNumber":56,"velocity":100,"programNumber":52},{"time":77400,"duration":200,"noteNumber":57,"velocity":100,"programNumber":52},{"time":77600,"duration":200,"noteNumber":56,"velocity":100,"programNumber":52},{"time":77800,"duration":200,"noteNumber":57,"velocity":100,"programNumber":52},{"time":78000,"duration":200,"noteNumber":56,"velocity":100,"programNumber":52},{"time":78200,"duration":200,"noteNumber":57,"velocity":100,"programNumber":52},{"time":78400,"duration":400,"noteNumber":58,"velocity":100,"programNumber":52},{"time":78800,"duration":400,"noteNumber":46,"velocity":100,"programNumber":52},{"time":79200,"duration":600,"noteNumber":58,"velocity":100,"programNumber":52},{"time":79800,"duration":200,"noteNumber":58,"velocity":100,"programNumber":52},{"time":80000,"duration":200,"noteNumber":60,"velocity":100,"programNumber":52},{"time":80200,"duration":200,"noteNumber":58,"velocity":100,"programNumber":52},{"time":80400,"duration":200,"noteNumber":60,"velocity":100,"programNumber":52},{"time":80600,"duration":200,"noteNumber":58,"velocity":100,"programNumber":52},{"time":80800,"duration":200,"noteNumber":60,"velocity":100,"programNumber":52},{"time":81000,"duration":200,"noteNumber":58,"velocity":100,"programNumber":52},{"time":81200,"duration":200,"noteNumber":60,"velocity":100,"programNumber":52},{"time":81400,"duration":200,"noteNumber":58,"velocity":100,"programNumber":52},{"time":81600,"duration":400,"noteNumber":57,"velocity":100,"programNumber":52},{"time":82000,"duration":400,"noteNumber":57,"velocity":100,"programNumber":52},{"time":82800,"duration":200,"noteNumber":57,"velocity":100,"programNumber":52},{"time":83000,"duration":200,"noteNumber":57,"velocity":100,"programNumber":52},{"time":83200,"duration":400,"noteNumber":62,"velocity":100,"programNumber":52},{"time":83600,"duration":400,"noteNumber":57,"velocity":100,"programNumber":52},{"time":84000,"duration":400,"noteNumber":62,"velocity":100,"programNumber":52},{"time":84400,"duration":400,"noteNumber":57,"velocity":100,"programNumber":52},{"time":84800,"duration":400,"noteNumber":62,"velocity":100,"programNumber":52},{"time":85200,"duration":400,"noteNumber":57,"velocity":100,"programNumber":52},{"time":86000,"duration":200,"noteNumber":62,"velocity":100,"programNumber":52},{"time":86200,"duration":200,"noteNumber":62,"velocity":100,"programNumber":52},{"time":86400,"duration":400,"noteNumber":61,"velocity":100,"programNumber":52},{"time":86800,"duration":400,"noteNumber":62,"velocity":100,"programNumber":52},{"time":87200,"duration":400,"noteNumber":61,"velocity":100,"programNumber":52},{"time":87600,"duration":400,"noteNumber":62,"velocity":100,"programNumber":52},{"time":88000,"duration":400,"noteNumber":61,"velocity":100,"programNumber":52},{"time":88400,"duration":400,"noteNumber":62,"velocity":100,"programNumber":52},{"time":91600,"duration":800,"noteNumber":53,"velocity":100,"programNumber":52},{"time":92400,"duration":400,"noteNumber":53,"velocity":100,"programNumber":52},{"time":92800,"duration":400,"noteNumber":62,"velocity":100,"programNumber":52},{"time":93200,"duration":400,"noteNumber":58,"velocity":100,"programNumber":52},{"time":93600,"duration":400,"noteNumber":55,"velocity":100,"programNumber":52},{"time":94000,"duration":400,"noteNumber":52,"velocity":100,"programNumber":52},{"time":94400,"duration":400,"noteNumber":57,"velocity":100,"programNumber":52},{"time":94800,"duration":400,"noteNumber":50,"velocity":100,"programNumber":52},{"time":95200,"duration":800,"noteNumber":57,"velocity":100,"programNumber":52},{"time":96000,"duration":400,"noteNumber":50,"velocity":100,"programNumber":52},{"time":98000,"duration":800,"noteNumber":58,"velocity":100,"programNumber":52},{"time":98800,"duration":400,"noteNumber":58,"velocity":100,"programNumber":52},{"time":99200,"duration":400,"noteNumber":58,"velocity":100,"programNumber":52},{"time":99600,"duration":400,"noteNumber":55,"velocity":100,"programNumber":52},{"time":100000,"duration":400,"noteNumber":55,"velocity":100,"programNumber":52},{"time":100400,"duration":400,"noteNumber":55,"velocity":100,"programNumber":52},{"time":100800,"duration":400,"noteNumber":57,"velocity":100,"programNumber":52},{"time":101200,"duration":400,"noteNumber":62,"velocity":100,"programNumber":52},{"time":101600,"duration":800,"noteNumber":57,"velocity":100,"programNumber":52},{"time":102400,"duration":400,"noteNumber":50,"velocity":100,"programNumber":52}],[{"time":33.33333333333333,"duration":200,"noteNumber":50,"velocity":90,"programNumber":48},{"time":200,"duration":200,"noteNumber":53,"velocity":90,"programNumber":48},{"time":400,"duration":200,"noteNumber":57,"velocity":90,"programNumber":48},{"time":600,"duration":200,"noteNumber":62,"velocity":90,"programNumber":48},{"time":800,"duration":200,"noteNumber":50,"velocity":90,"programNumber":48},{"time":1000,"duration":200,"noteNumber":53,"velocity":90,"programNumber":48},{"time":1200,"duration":200,"noteNumber":57,"velocity":90,"programNumber":48},{"time":1400,"duration":200,"noteNumber":62,"velocity":90,"programNumber":48},{"time":1600,"duration":200,"noteNumber":50,"velocity":90,"programNumber":48},{"time":1800,"duration":400,"noteNumber":62,"velocity":90,"programNumber":48},{"time":2200,"duration":400,"noteNumber":62,"velocity":90,"programNumber":48},{"time":2600,"duration":400,"noteNumber":62,"velocity":90,"programNumber":48},{"time":3000,"duration":200,"noteNumber":62,"velocity":90,"programNumber":48},{"time":3200,"duration":200,"noteNumber":49,"velocity":90,"programNumber":48},{"time":3400,"duration":200,"noteNumber":52,"velocity":90,"programNumber":48},{"time":3600,"duration":200,"noteNumber":57,"velocity":90,"programNumber":48},{"time":3800,"duration":200,"noteNumber":61,"velocity":90,"programNumber":48},{"time":4000,"duration":200,"noteNumber":49,"velocity":90,"programNumber":48},{"time":4200,"duration":200,"noteNumber":52,"velocity":90,"programNumber":48},{"time":4400,"duration":200,"noteNumber":57,"velocity":90,"programNumber":48},{"time":4600,"duration":200,"noteNumber":61,"velocity":90,"programNumber":48},{"time":4800,"duration":200,"noteNumber":50,"velocity":90,"programNumber":48},{"time":5000,"duration":400,"noteNumber":62,"velocity":90,"programNumber":48},{"time":5400,"duration":400,"noteNumber":62,"velocity":90,"programNumber":48},{"time":5800,"duration":400,"noteNumber":62,"velocity":90,"programNumber":48},{"time":6200,"duration":200,"noteNumber":50,"velocity":90,"programNumber":48},{"time":6400,"duration":400,"noteNumber":52,"velocity":90,"programNumber":48},{"time":6800,"duration":400,"noteNumber":53,"velocity":90,"programNumber":48},{"time":7600,"duration":400,"noteNumber":53,"velocity":90,"programNumber":48},{"time":8000,"duration":400,"noteNumber":49,"velocity":90,"programNumber":48},{"time":8400,"duration":400,"noteNumber":50,"velocity":90,"programNumber":48},{"time":9000,"duration":200,"noteNumber":50,"velocity":90,"programNumber":48},{"time":9200,"duration":200,"noteNumber":62,"velocity":90,"programNumber":48},{"time":9400,"duration":200,"noteNumber":60,"velocity":90,"programNumber":48},{"time":9600,"duration":200,"noteNumber":58,"velocity":90,"programNumber":48},{"time":9800,"duration":200,"noteNumber":46,"velocity":90,"programNumber":48},{"time":10000,"duration":200,"noteNumber":45,"velocity":90,"programNumber":48},{"time":10200,"duration":200,"noteNumber":57,"velocity":90,"programNumber":48},{"time":10400,"duration":200,"noteNumber":55,"velocity":90,"programNumber":48},{"time":10600,"duration":200,"noteNumber":43,"velocity":90,"programNumber":48},{"time":10800,"duration":200,"noteNumber":50,"velocity":90,"programNumber":48},{"time":11000,"duration":200,"noteNumber":62,"velocity":90,"programNumber":48},{"time":11200,"duration":200,"noteNumber":57,"velocity":90,"programNumber":48},{"time":11400,"duration":200,"noteNumber":45,"velocity":90,"programNumber":48},{"time":11600,"duration":200,"noteNumber":57,"velocity":90,"programNumber":48},{"time":11800,"duration":200,"noteNumber":57,"velocity":90,"programNumber":48},{"time":12000,"duration":200,"noteNumber":57,"velocity":90,"programNumber":48},{"time":12200,"duration":200,"noteNumber":57,"velocity":90,"programNumber":48},{"time":12400,"duration":200,"noteNumber":57,"velocity":90,"programNumber":48},{"time":12600,"duration":200,"noteNumber":57,"velocity":90,"programNumber":48},{"time":12800,"duration":200,"noteNumber":57,"velocity":90,"programNumber":48},{"time":13000,"duration":200,"noteNumber":57,"velocity":90,"programNumber":48},{"time":13200,"duration":200,"noteNumber":58,"velocity":90,"programNumber":48},{"time":13400,"duration":200,"noteNumber":59,"velocity":90,"programNumber":48},{"time":13600,"duration":200,"noteNumber":60,"velocity":90,"programNumber":48},{"time":13800,"duration":200,"noteNumber":57,"velocity":90,"programNumber":48},{"time":14000,"duration":200,"noteNumber":58,"velocity":90,"programNumber":48},{"time":14200,"duration":200,"noteNumber":55,"velocity":90,"programNumber":48},{"time":14400,"duration":200,"noteNumber":53,"velocity":90,"programNumber":48},{"time":14600,"duration":200,"noteNumber":53,"velocity":90,"programNumber":48},{"time":14800,"duration":200,"noteNumber":53,"velocity":90,"programNumber":48},{"time":15000,"duration":200,"noteNumber":53,"velocity":90,"programNumber":48},{"time":15200,"duration":200,"noteNumber":53,"velocity":90,"programNumber":48},{"time":15400,"duration":200,"noteNumber":53,"velocity":90,"programNumber":48},{"time":15600,"duration":200,"noteNumber":53,"velocity":90,"programNumber":48},{"time":15800,"duration":200,"noteNumber":53,"velocity":90,"programNumber":48},{"time":16000,"duration":200,"noteNumber":53,"velocity":90,"programNumber":48},{"time":16200,"duration":200,"noteNumber":53,"velocity":90,"programNumber":48},{"time":16400,"duration":200,"noteNumber":53,"velocity":90,"programNumber":48},{"time":16600,"duration":200,"noteNumber":53,"velocity":90,"programNumber":48},{"time":16800,"duration":200,"noteNumber":53,"velocity":90,"programNumber":48},{"time":17000,"duration":200,"noteNumber":53,"velocity":90,"programNumber":48},{"time":17200,"duration":200,"noteNumber":53,"velocity":90,"programNumber":48},{"time":17400,"duration":200,"noteNumber":53,"velocity":90,"programNumber":48},{"time":17600,"duration":200,"noteNumber":54,"velocity":90,"programNumber":48},{"time":17800,"duration":200,"noteNumber":42,"velocity":90,"programNumber":48},{"time":18000,"duration":200,"noteNumber":45,"velocity":90,"programNumber":48},{"time":18200,"duration":200,"noteNumber":48,"velocity":90,"programNumber":48},{"time":18400,"duration":200,"noteNumber":54,"velocity":90,"programNumber":48},{"time":18600,"duration":200,"noteNumber":60,"velocity":90,"programNumber":48},{"time":18800,"duration":200,"noteNumber":57,"velocity":90,"programNumber":48},{"time":19000,"duration":200,"noteNumber":54,"velocity":90,"programNumber":48},{"time":19200,"duration":200,"noteNumber":55,"velocity":90,"programNumber":48},{"time":19400,"duration":200,"noteNumber":55,"velocity":90,"programNumber":48},{"time":19600,"duration":200,"noteNumber":55,"velocity":90,"programNumber":48},{"time":19800,"duration":200,"noteNumber":55,"velocity":90,"programNumber":48},{"time":20000,"duration":200,"noteNumber":55,"velocity":90,"programNumber":48},{"time":20200,"duration":200,"noteNumber":55,"velocity":90,"programNumber":48},{"time":20400,"duration":200,"noteNumber":55,"velocity":90,"programNumber":48},{"time":20600,"duration":200,"noteNumber":55,"velocity":90,"programNumber":48},{"time":20800,"duration":200,"noteNumber":55,"velocity":90,"programNumber":48},{"time":21000,"duration":200,"noteNumber":55,"velocity":90,"programNumber":48},{"time":21200,"duration":200,"noteNumber":55,"velocity":90,"programNumber":48},{"time":21400,"duration":200,"noteNumber":55,"velocity":90,"programNumber":48},{"time":21600,"duration":200,"noteNumber":55,"velocity":90,"programNumber":48},{"time":21800,"duration":200,"noteNumber":55,"velocity":90,"programNumber":48},{"time":22000,"duration":200,"noteNumber":55,"velocity":90,"programNumber":48},{"time":22200,"duration":200,"noteNumber":55,"velocity":90,"programNumber":48},{"time":22400,"duration":200,"noteNumber":56,"velocity":90,"programNumber":48},{"time":22600,"duration":200,"noteNumber":44,"velocity":90,"programNumber":48},{"time":22800,"duration":200,"noteNumber":47,"velocity":90,"programNumber":48},{"time":23000,"duration":200,"noteNumber":50,"velocity":90,"programNumber":48},{"time":23200,"duration":200,"noteNumber":56,"velocity":90,"programNumber":48},{"time":23400,"duration":200,"noteNumber":62,"velocity":90,"programNumber":48},{"time":23600,"duration":200,"noteNumber":59,"velocity":90,"programNumber":48},{"time":23800,"duration":200,"noteNumber":56,"velocity":90,"programNumber":48},{"time":24000,"duration":200,"noteNumber":45,"velocity":90,"programNumber":48},{"time":24200,"duration":200,"noteNumber":48,"velocity":90,"programNumber":48},{"time":24400,"duration":200,"noteNumber":52,"velocity":90,"programNumber":48},{"time":24600,"duration":200,"noteNumber":57,"velocity":90,"programNumber":48},{"time":24800,"duration":200,"noteNumber":47,"velocity":90,"programNumber":48},{"time":25000,"duration":200,"noteNumber":50,"velocity":90,"programNumber":48},{"time":25200,"duration":200,"noteNumber":56,"velocity":90,"programNumber":48},{"time":25400,"duration":200,"noteNumber":59,"velocity":90,"programNumber":48},{"time":25600,"duration":200,"noteNumber":48,"velocity":90,"programNumber":48},{"time":25800,"duration":200,"noteNumber":52,"velocity":90,"programNumber":48},{"time":26000,"duration":200,"noteNumber":57,"velocity":90,"programNumber":48},{"time":26200,"duration":200,"noteNumber":60,"velocity":90,"programNumber":48},{"time":26400,"duration":200,"noteNumber":50,"velocity":90,"programNumber":48},{"time":26600,"duration":200,"noteNumber":53,"velocity":90,"programNumber":48},{"time":26800,"duration":200,"noteNumber":59,"velocity":90,"programNumber":48},{"time":27000,"duration":200,"noteNumber":62,"velocity":90,"programNumber":48},{"time":27200,"duration":200,"noteNumber":64,"velocity":90,"programNumber":48},{"time":27400,"duration":200,"noteNumber":52,"velocity":90,"programNumber":48},{"time":27600,"duration":200,"noteNumber":57,"velocity":90,"programNumber":48},{"time":27800,"duration":200,"noteNumber":60,"velocity":90,"programNumber":48},{"time":28000,"duration":200,"noteNumber":64,"velocity":90,"programNumber":48},{"time":28200,"duration":200,"noteNumber":64,"velocity":90,"programNumber":48},{"time":28400,"duration":200,"noteNumber":52,"velocity":90,"programNumber":48},{"time":28600,"duration":200,"noteNumber":52,"velocity":90,"programNumber":48},{"time":28800,"duration":400,"noteNumber":57,"velocity":90,"programNumber":48},{"time":29800,"duration":200,"noteNumber":60,"velocity":90,"programNumber":48},{"time":30000,"duration":200,"noteNumber":59,"velocity":90,"programNumber":48},{"time":30200,"duration":200,"noteNumber":57,"velocity":90,"programNumber":48},{"time":30400,"duration":200,"noteNumber":56,"velocity":90,"programNumber":48},{"time":30600,"duration":200,"noteNumber":65,"velocity":90,"programNumber":48},{"time":30800,"duration":200,"noteNumber":62,"velocity":90,"programNumber":48},{"time":31000,"duration":200,"noteNumber":60,"velocity":90,"programNumber":48},{"time":31200,"duration":200,"noteNumber":59,"velocity":90,"programNumber":48},{"time":31400,"duration":200,"noteNumber":57,"velocity":90,"programNumber":48},{"time":31600,"duration":200,"noteNumber":56,"velocity":90,"programNumber":48},{"time":31800,"duration":200,"noteNumber":59,"velocity":90,"programNumber":48},{"time":32000,"duration":200,"noteNumber":57,"velocity":90,"programNumber":48},{"time":32200,"duration":200,"noteNumber":48,"velocity":90,"programNumber":48},{"time":32400,"duration":200,"noteNumber":50,"velocity":90,"programNumber":48},{"time":32600,"duration":200,"noteNumber":53,"velocity":90,"programNumber":48},{"time":32800,"duration":200,"noteNumber":52,"velocity":90,"programNumber":48},{"time":33000,"duration":200,"noteNumber":50,"velocity":90,"programNumber":48},{"time":33200,"duration":200,"noteNumber":52,"velocity":90,"programNumber":48},{"time":33400,"duration":200,"noteNumber":40,"velocity":90,"programNumber":48},{"time":33600,"duration":200,"noteNumber":45,"velocity":90,"programNumber":48},{"time":33800,"duration":200,"noteNumber":48,"velocity":90,"programNumber":48},{"time":34000,"duration":200,"noteNumber":52,"velocity":90,"programNumber":48},{"time":34200,"duration":200,"noteNumber":57,"velocity":90,"programNumber":48},{"time":34400,"duration":200,"noteNumber":45,"velocity":90,"programNumber":48},{"time":34600,"duration":200,"noteNumber":48,"velocity":90,"programNumber":48},{"time":34800,"duration":200,"noteNumber":52,"velocity":90,"programNumber":48},{"time":35000,"duration":200,"noteNumber":57,"velocity":90,"programNumber":48},{"time":35200,"duration":200,"noteNumber":45,"velocity":90,"programNumber":48},{"time":35400,"duration":400,"noteNumber":57,"velocity":90,"programNumber":48},{"time":35800,"duration":400,"noteNumber":57,"velocity":90,"programNumber":48},{"time":36200,"duration":400,"noteNumber":57,"velocity":90,"programNumber":48},{"time":36600,"duration":200,"noteNumber":57,"velocity":90,"programNumber":48},{"time":36800,"duration":200,"noteNumber":44,"velocity":90,"programNumber":48},{"time":37000,"duration":200,"noteNumber":47,"velocity":90,"programNumber":48},{"time":37200,"duration":200,"noteNumber":52,"velocity":90,"programNumber":48},{"time":37400,"duration":200,"noteNumber":56,"velocity":90,"programNumber":48},{"time":37600,"duration":200,"noteNumber":44,"velocity":90,"programNumber":48},{"time":37800,"duration":200,"noteNumber":47,"velocity":90,"programNumber":48},{"time":38000,"duration":200,"noteNumber":52,"velocity":90,"programNumber":48},{"time":38200,"duration":200,"noteNumber":56,"velocity":90,"programNumber":48},{"time":38400,"duration":200,"noteNumber":45,"velocity":90,"programNumber":48},{"time":38600,"duration":400,"noteNumber":57,"velocity":90,"programNumber":48},{"time":39000,"duration":400,"noteNumber":57,"velocity":90,"programNumber":48},{"time":39400,"duration":400,"noteNumber":57,"velocity":90,"programNumber":48},{"time":39800,"duration":200,"noteNumber":57,"velocity":90,"programNumber":48},{"time":40000,"duration":400,"noteNumber":62,"velocity":90,"programNumber":48},{"time":40400,"duration":400,"noteNumber":60,"velocity":90,"programNumber":48},{"time":41200,"duration":400,"noteNumber":60,"velocity":90,"programNumber":48},{"time":41600,"duration":400,"noteNumber":59,"velocity":90,"programNumber":48},{"time":42000,"duration":400,"noteNumber":57,"velocity":90,"programNumber":48},{"time":42600,"duration":200,"noteNumber":45,"velocity":90,"programNumber":48},{"time":42800,"duration":200,"noteNumber":57,"velocity":90,"programNumber":48},{"time":43000,"duration":200,"noteNumber":55,"velocity":90,"programNumber":48},{"time":43200,"duration":200,"noteNumber":53,"velocity":90,"programNumber":48},{"time":43400,"duration":200,"noteNumber":65,"velocity":90,"programNumber":48},{"time":43600,"duration":200,"noteNumber":64,"velocity":90,"programNumber":48},{"time":43800,"duration":200,"noteNumber":52,"velocity":90,"programNumber":48},{"time":44000,"duration":200,"noteNumber":50,"velocity":90,"programNumber":48},{"time":44200,"duration":200,"noteNumber":62,"velocity":90,"programNumber":48},{"time":44400,"duration":200,"noteNumber":57,"velocity":90,"programNumber":48},{"time":44600,"duration":200,"noteNumber":45,"velocity":90,"programNumber":48},{"time":44800,"duration":200,"noteNumber":52,"velocity":90,"programNumber":48},{"time":45000,"duration":200,"noteNumber":64,"velocity":90,"programNumber":48},{"time":45200,"duration":200,"noteNumber":52,"velocity":90,"programNumber":48},{"time":45400,"duration":200,"noteNumber":52,"velocity":90,"programNumber":48},{"time":45600,"duration":200,"noteNumber":52,"velocity":90,"programNumber":48},{"time":45800,"duration":200,"noteNumber":52,"velocity":90,"programNumber":48},{"time":46000,"duration":200,"noteNumber":52,"velocity":90,"programNumber":48},{"time":46200,"duration":200,"noteNumber":52,"velocity":90,"programNumber":48},{"time":46400,"duration":200,"noteNumber":50,"velocity":90,"programNumber":48},{"time":46600,"duration":200,"noteNumber":50,"velocity":90,"programNumber":48},{"time":46800,"duration":200,"noteNumber":50,"velocity":90,"programNumber":48},{"time":47000,"duration":200,"noteNumber":50,"velocity":90,"programNumber":48},{"time":47200,"duration":200,"noteNumber":55,"velocity":90,"programNumber":48},{"time":47400,"duration":200,"noteNumber":55,"velocity":90,"programNumber":48},{"time":47600,"duration":200,"noteNumber":55,"velocity":90,"programNumber":48},{"time":47800,"duration":200,"noteNumber":55,"velocity":90,"programNumber":48},{"time":48000,"duration":200,"noteNumber":48,"velocity":90,"programNumber":48},{"time":48200,"duration":200,"noteNumber":51,"velocity":90,"programNumber":48},{"time":48400,"duration":200,"noteNumber":55,"velocity":90,"programNumber":48},{"time":48600,"duration":200,"noteNumber":60,"velocity":90,"programNumber":48},{"time":48800,"duration":200,"noteNumber":48,"velocity":90,"programNumber":48},{"time":49000,"duration":200,"noteNumber":51,"velocity":90,"programNumber":48},{"time":49200,"duration":200,"noteNumber":55,"velocity":90,"programNumber":48},{"time":49400,"duration":200,"noteNumber":60,"velocity":90,"programNumber":48},{"time":49600,"duration":200,"noteNumber":48,"velocity":90,"programNumber":48},{"time":49800,"duration":200,"noteNumber":60,"velocity":90,"programNumber":48},{"time":50000,"duration":200,"noteNumber":60,"velocity":90,"programNumber":48},{"time":50200,"duration":200,"noteNumber":60,"velocity":90,"programNumber":48},{"time":50400,"duration":200,"noteNumber":60,"velocity":90,"programNumber":48},{"time":50600,"duration":200,"noteNumber":60,"velocity":90,"programNumber":48},{"time":50800,"duration":200,"noteNumber":60,"velocity":90,"programNumber":48},{"time":51000,"duration":200,"noteNumber":60,"velocity":90,"programNumber":48},{"time":51200,"duration":200,"noteNumber":60,"velocity":90,"programNumber":48},{"time":51400,"duration":200,"noteNumber":60,"velocity":90,"programNumber":48},{"time":51600,"duration":200,"noteNumber":58,"velocity":90,"programNumber":48},{"time":51800,"duration":200,"noteNumber":58,"velocity":90,"programNumber":48},{"time":52000,"duration":200,"noteNumber":58,"velocity":90,"programNumber":48},{"time":52200,"duration":200,"noteNumber":58,"velocity":90,"programNumber":48},{"time":52400,"duration":200,"noteNumber":55,"velocity":90,"programNumber":48},{"time":52600,"duration":200,"noteNumber":52,"velocity":90,"programNumber":48},{"time":52800,"duration":200,"noteNumber":46,"velocity":90,"programNumber":48},{"time":53000,"duration":200,"noteNumber":52,"velocity":90,"programNumber":48},{"time":53200,"duration":200,"noteNumber":55,"velocity":90,"programNumber":48},{"time":53400,"duration":200,"noteNumber":58,"velocity":90,"programNumber":48},{"time":53600,"duration":200,"noteNumber":46,"velocity":90,"programNumber":48},{"time":53800,"duration":200,"noteNumber":52,"velocity":90,"programNumber":48},{"time":54000,"duration":200,"noteNumber":55,"velocity":90,"programNumber":48},{"time":54200,"duration":200,"noteNumber":58,"velocity":90,"programNumber":48},{"time":54400,"duration":200,"noteNumber":58,"velocity":90,"programNumber":48},{"time":54600,"duration":200,"noteNumber":58,"velocity":90,"programNumber":48},{"time":54800,"duration":200,"noteNumber":57,"velocity":90,"programNumber":48},{"time":55000,"duration":200,"noteNumber":57,"velocity":90,"programNumber":48},{"time":55200,"duration":200,"noteNumber":57,"velocity":90,"programNumber":48},{"time":55400,"duration":200,"noteNumber":57,"velocity":90,"programNumber":48},{"time":55600,"duration":200,"noteNumber":55,"velocity":90,"programNumber":48},{"time":55800,"duration":200,"noteNumber":55,"velocity":90,"programNumber":48},{"time":56000,"duration":200,"noteNumber":55,"velocity":90,"programNumber":48},{"time":56200,"duration":200,"noteNumber":55,"velocity":90,"programNumber":48},{"time":56400,"duration":200,"noteNumber":53,"velocity":90,"programNumber":48},{"time":56600,"duration":200,"noteNumber":53,"velocity":90,"programNumber":48},{"time":56800,"duration":200,"noteNumber":53,"velocity":90,"programNumber":48},{"time":57000,"duration":200,"noteNumber":50,"velocity":90,"programNumber":48},{"time":57200,"duration":200,"noteNumber":45,"velocity":90,"programNumber":48},{"time":57400,"duration":200,"noteNumber":41,"velocity":90,"programNumber":48},{"time":57600,"duration":200,"noteNumber":43,"velocity":90,"programNumber":48},{"time":57800,"duration":200,"noteNumber":46,"velocity":90,"programNumber":48},{"time":58000,"duration":200,"noteNumber":51,"velocity":90,"programNumber":48},{"time":58200,"duration":200,"noteNumber":55,"velocity":90,"programNumber":48},{"time":58400,"duration":200,"noteNumber":45,"velocity":90,"programNumber":48},{"time":58600,"duration":200,"noteNumber":48,"velocity":90,"programNumber":48},{"time":58800,"duration":200,"noteNumber":54,"velocity":90,"programNumber":48},{"time":59000,"duration":200,"noteNumber":57,"velocity":90,"programNumber":48},{"time":59200,"duration":200,"noteNumber":46,"velocity":90,"programNumber":48},{"time":59400,"duration":200,"noteNumber":50,"velocity":90,"programNumber":48},{"time":59600,"duration":200,"noteNumber":55,"velocity":90,"programNumber":48},{"time":59800,"duration":200,"noteNumber":58,"velocity":90,"programNumber":48},{"time":60000,"duration":200,"noteNumber":45,"velocity":90,"programNumber":48},{"time":60200,"duration":200,"noteNumber":48,"velocity":90,"programNumber":48},{"time":60400,"duration":200,"noteNumber":53,"velocity":90,"programNumber":48},{"time":60600,"duration":200,"noteNumber":57,"velocity":90,"programNumber":48},{"time":60800,"duration":200,"noteNumber":43,"velocity":90,"programNumber":48},{"time":61000,"duration":200,"noteNumber":46,"velocity":90,"programNumber":48},{"time":61200,"duration":200,"noteNumber":51,"velocity":90,"programNumber":48},{"time":61400,"duration":200,"noteNumber":55,"velocity":90,"programNumber":48},{"time":61600,"duration":200,"noteNumber":44,"velocity":90,"programNumber":48},{"time":61800,"duration":200,"noteNumber":47,"velocity":90,"programNumber":48},{"time":62000,"duration":200,"noteNumber":50,"velocity":90,"programNumber":48},{"time":62200,"duration":200,"noteNumber":56,"velocity":90,"programNumber":48},{"time":62400,"duration":400,"noteNumber":57,"velocity":90,"programNumber":48},{"time":62800,"duration":400,"noteNumber":45,"velocity":90,"programNumber":48},{"time":63200,"duration":600,"noteNumber":45,"velocity":90,"programNumber":48},{"time":63800,"duration":200,"noteNumber":45,"velocity":90,"programNumber":48},{"time":64000,"duration":200,"noteNumber":44,"velocity":90,"programNumber":48},{"time":64200,"duration":200,"noteNumber":45,"velocity":90,"programNumber":48},{"time":64400,"duration":200,"noteNumber":44,"velocity":90,"programNumber":48},{"time":64600,"duration":200,"noteNumber":45,"velocity":90,"programNumber":48},{"time":64800,"duration":200,"noteNumber":44,"velocity":90,"programNumber":48},{"time":65000,"duration":200,"noteNumber":45,"velocity":90,"programNumber":48},{"time":65200,"duration":200,"noteNumber":44,"velocity":90,"programNumber":48},{"time":65400,"duration":200,"noteNumber":45,"velocity":90,"programNumber":48},{"time":65600,"duration":400,"noteNumber":46,"velocity":90,"programNumber":48},{"time":66000,"duration":400,"noteNumber":45,"velocity":90,"programNumber":48},{"time":66400,"duration":600,"noteNumber":64,"velocity":90,"programNumber":48},{"time":67000,"duration":200,"noteNumber":64,"velocity":90,"programNumber":48},{"time":67200,"duration":400,"noteNumber":65,"velocity":90,"programNumber":48},{"time":67600,"duration":400,"noteNumber":64,"velocity":90,"programNumber":48},{"time":68000,"duration":600,"noteNumber":64,"velocity":90,"programNumber":48},{"time":68600,"duration":200,"noteNumber":64,"velocity":90,"programNumber":48},{"time":68800,"duration":400,"noteNumber":65,"velocity":90,"programNumber":48},{"time":69200,"duration":400,"noteNumber":64,"velocity":90,"programNumber":48},{"time":69600,"duration":600,"noteNumber":45,"velocity":90,"programNumber":48},{"time":70200,"duration":200,"noteNumber":45,"velocity":90,"programNumber":48},{"time":70400,"duration":200,"noteNumber":44,"velocity":90,"programNumber":48},{"time":70600,"duration":200,"noteNumber":45,"velocity":90,"programNumber":48},{"time":70800,"duration":200,"noteNumber":44,"velocity":90,"programNumber":48},{"time":71000,"duration":200,"noteNumber":45,"velocity":90,"programNumber":48},{"time":71200,"duration":200,"noteNumber":44,"velocity":90,"programNumber":48},{"time":71400,"duration":200,"noteNumber":45,"velocity":90,"programNumber":48},{"time":71600,"duration":200,"noteNumber":44,"velocity":90,"programNumber":48},{"time":71800,"duration":200,"noteNumber":45,"velocity":90,"programNumber":48},{"time":72000,"duration":400,"noteNumber":46,"velocity":90,"programNumber":48},{"time":72400,"duration":400,"noteNumber":45,"velocity":90,"programNumber":48},{"time":72800,"duration":600,"noteNumber":64,"velocity":90,"programNumber":48},{"time":73400,"duration":200,"noteNumber":64,"velocity":90,"programNumber":48},{"time":73600,"duration":400,"noteNumber":65,"velocity":90,"programNumber":48},{"time":74000,"duration":400,"noteNumber":64,"velocity":90,"programNumber":48},{"time":74400,"duration":600,"noteNumber":64,"velocity":90,"programNumber":48},{"time":75000,"duration":200,"noteNumber":64,"velocity":90,"programNumber":48},{"time":75200,"duration":400,"noteNumber":65,"velocity":90,"programNumber":48},{"time":75600,"duration":400,"noteNumber":64,"velocity":90,"programNumber":48},{"time":76000,"duration":600,"noteNumber":45,"velocity":90,"programNumber":48},{"time":76600,"duration":200,"noteNumber":45,"velocity":90,"programNumber":48},{"time":76800,"duration":200,"noteNumber":44,"velocity":90,"programNumber":48},{"time":77000,"duration":200,"noteNumber":45,"velocity":90,"programNumber":48},{"time":77200,"duration":200,"noteNumber":44,"velocity":90,"programNumber":48},{"time":77400,"duration":200,"noteNumber":45,"velocity":90,"programNumber":48},{"time":77600,"duration":200,"noteNumber":44,"velocity":90,"programNumber":48},{"time":77800,"duration":200,"noteNumber":45,"velocity":90,"programNumber":48},{"time":78000,"duration":200,"noteNumber":44,"velocity":90,"programNumber":48},{"time":78200,"duration":200,"noteNumber":45,"velocity":90,"programNumber":48},{"time":78400,"duration":200,"noteNumber":58,"velocity":90,"programNumber":48},{"time":78600,"duration":200,"noteNumber":46,"velocity":90,"programNumber":48},{"time":78800,"duration":200,"noteNumber":58,"velocity":90,"programNumber":48},{"time":79000,"duration":200,"noteNumber":58,"velocity":90,"programNumber":48},{"time":79200,"duration":200,"noteNumber":58,"velocity":90,"programNumber":48},{"time":79400,"duration":200,"noteNumber":58,"velocity":90,"programNumber":48},{"time":79600,"duration":200,"noteNumber":58,"velocity":90,"programNumber":48},{"time":79800,"duration":200,"noteNumber":58,"velocity":90,"programNumber":48},{"time":80000,"duration":200,"noteNumber":60,"velocity":90,"programNumber":48},{"time":80200,"duration":200,"noteNumber":58,"velocity":90,"programNumber":48},{"time":80400,"duration":200,"noteNumber":60,"velocity":90,"programNumber":48},{"time":80600,"duration":200,"noteNumber":58,"velocity":90,"programNumber":48},{"time":80800,"duration":200,"noteNumber":60,"velocity":90,"programNumber":48},{"time":81000,"duration":200,"noteNumber":58,"velocity":90,"programNumber":48},{"time":81200,"duration":200,"noteNumber":60,"velocity":90,"programNumber":48},{"time":81400,"duration":200,"noteNumber":58,"velocity":90,"programNumber":48},{"time":81600,"duration":400,"noteNumber":57,"velocity":90,"programNumber":48},{"time":82000,"duration":400,"noteNumber":45,"velocity":90,"programNumber":48},{"time":82800,"duration":200,"noteNumber":57,"velocity":90,"programNumber":48},{"time":83000,"duration":200,"noteNumber":57,"velocity":90,"programNumber":48},{"time":83200,"duration":200,"noteNumber":62,"velocity":90,"programNumber":48},{"time":83400,"duration":200,"noteNumber":50,"velocity":90,"programNumber":48},{"time":83600,"duration":200,"noteNumber":45,"velocity":90,"programNumber":48},{"time":83800,"duration":200,"noteNumber":57,"velocity":90,"programNumber":48},{"time":84000,"duration":200,"noteNumber":62,"velocity":90,"programNumber":48},{"time":84200,"duration":200,"noteNumber":50,"velocity":90,"programNumber":48},{"time":84400,"duration":200,"noteNumber":45,"velocity":90,"programNumber":48},{"time":84600,"duration":200,"noteNumber":57,"velocity":90,"programNumber":48},{"time":84800,"duration":200,"noteNumber":62,"velocity":90,"programNumber":48},{"time":85000,"duration":200,"noteNumber":50,"velocity":90,"programNumber":48},{"time":85200,"duration":400,"noteNumber":57,"velocity":90,"programNumber":48},{"time":86000,"duration":200,"noteNumber":62,"velocity":90,"programNumber":48},{"time":86200,"duration":200,"noteNumber":50,"velocity":90,"programNumber":48},{"time":86400,"duration":200,"noteNumber":49,"velocity":90,"programNumber":48},{"time":86600,"duration":200,"noteNumber":61,"velocity":90,"programNumber":48},{"time":86800,"duration":200,"noteNumber":62,"velocity":90,"programNumber":48},{"time":87000,"duration":200,"noteNumber":50,"velocity":90,"programNumber":48},{"time":87200,"duration":200,"noteNumber":49,"velocity":90,"programNumber":48},{"time":87400,"duration":200,"noteNumber":61,"velocity":90,"programNumber":48},{"time":87600,"duration":200,"noteNumber":62,"velocity":90,"programNumber":48},{"time":87800,"duration":200,"noteNumber":50,"velocity":90,"programNumber":48},{"time":88000,"duration":200,"noteNumber":49,"velocity":90,"programNumber":48},{"time":88200,"duration":200,"noteNumber":61,"velocity":90,"programNumber":48},{"time":88400,"duration":200,"noteNumber":62,"velocity":90,"programNumber":48},{"time":88600,"duration":200,"noteNumber":57,"velocity":90,"programNumber":48},{"time":88800,"duration":200,"noteNumber":53,"velocity":90,"programNumber":48},{"time":89000,"duration":200,"noteNumber":50,"velocity":90,"programNumber":48},{"time":89200,"duration":200,"noteNumber":53,"velocity":90,"programNumber":48},{"time":89400,"duration":200,"noteNumber":57,"velocity":90,"programNumber":48},{"time":89600,"duration":200,"noteNumber":50,"velocity":90,"programNumber":48},{"time":89800,"duration":200,"noteNumber":53,"velocity":90,"programNumber":48},{"time":90000,"duration":200,"noteNumber":57,"velocity":90,"programNumber":48},{"time":90200,"duration":200,"noteNumber":62,"velocity":90,"programNumber":48},{"time":90400,"duration":200,"noteNumber":50,"velocity":90,"programNumber":48},{"time":90600,"duration":200,"noteNumber":53,"velocity":90,"programNumber":48},{"time":90800,"duration":200,"noteNumber":57,"velocity":90,"programNumber":48},{"time":91000,"duration":200,"noteNumber":62,"velocity":90,"programNumber":48},{"time":91200,"duration":200,"noteNumber":41,"velocity":90,"programNumber":48},{"time":91400,"duration":200,"noteNumber":45,"velocity":90,"programNumber":48},{"time":91600,"duration":200,"noteNumber":50,"velocity":90,"programNumber":48},{"time":91800,"duration":200,"noteNumber":53,"velocity":90,"programNumber":48},{"time":92000,"duration":200,"noteNumber":41,"velocity":90,"programNumber":48},{"time":92200,"duration":200,"noteNumber":45,"velocity":90,"programNumber":48},{"time":92400,"duration":200,"noteNumber":50,"velocity":90,"programNumber":48},{"time":92600,"duration":200,"noteNumber":53,"velocity":90,"programNumber":48},{"time":92800,"duration":200,"noteNumber":46,"velocity":90,"programNumber":48},{"time":93000,"duration":200,"noteNumber":50,"velocity":90,"programNumber":48},{"time":93200,"duration":200,"noteNumber":53,"velocity":90,"programNumber":48},{"time":93400,"duration":200,"noteNumber":58,"velocity":90,"programNumber":48},{"time":93600,"duration":200,"noteNumber":40,"velocity":90,"programNumber":48},{"time":93800,"duration":200,"noteNumber":43,"velocity":90,"programNumber":48},{"time":94000,"duration":200,"noteNumber":46,"velocity":90,"programNumber":48},{"time":94200,"duration":200,"noteNumber":52,"velocity":90,"programNumber":48},{"time":94400,"duration":200,"noteNumber":45,"velocity":90,"programNumber":48},{"time":94600,"duration":200,"noteNumber":57,"velocity":90,"programNumber":48},{"time":94800,"duration":200,"noteNumber":50,"velocity":90,"programNumber":48},{"time":95000,"duration":200,"noteNumber":53,"velocity":90,"programNumber":48},{"time":95200,"duration":200,"noteNumber":57,"velocity":90,"programNumber":48},{"time":95400,"duration":200,"noteNumber":55,"velocity":90,"programNumber":48},{"time":95600,"duration":200,"noteNumber":57,"velocity":90,"programNumber":48},{"time":95800,"duration":200,"noteNumber":45,"velocity":90,"programNumber":48},{"time":96000,"duration":200,"noteNumber":50,"velocity":90,"programNumber":48},{"time":96200,"duration":200,"noteNumber":53,"velocity":90,"programNumber":48},{"time":96400,"duration":200,"noteNumber":57,"velocity":90,"programNumber":48},{"time":96600,"duration":200,"noteNumber":62,"velocity":90,"programNumber":48},{"time":96800,"duration":200,"noteNumber":50,"velocity":90,"programNumber":48},{"time":97000,"duration":200,"noteNumber":53,"velocity":90,"programNumber":48},{"time":97200,"duration":200,"noteNumber":57,"velocity":90,"programNumber":48},{"time":97400,"duration":200,"noteNumber":62,"velocity":90,"programNumber":48},{"time":97600,"duration":200,"noteNumber":46,"velocity":90,"programNumber":48},{"time":97800,"duration":200,"noteNumber":50,"velocity":90,"programNumber":48},{"time":98000,"duration":200,"noteNumber":53,"velocity":90,"programNumber":48},{"time":98200,"duration":200,"noteNumber":58,"velocity":90,"programNumber":48},{"time":98400,"duration":200,"noteNumber":46,"velocity":90,"programNumber":48},{"time":98600,"duration":200,"noteNumber":50,"velocity":90,"programNumber":48},{"time":98800,"duration":200,"noteNumber":53,"velocity":90,"programNumber":48},{"time":99000,"duration":200,"noteNumber":58,"velocity":90,"programNumber":48},{"time":99200,"duration":200,"noteNumber":43,"velocity":90,"programNumber":48},{"time":99400,"duration":200,"noteNumber":46,"velocity":90,"programNumber":48},{"time":99600,"duration":200,"noteNumber":51,"velocity":90,"programNumber":48},{"time":99800,"duration":200,"noteNumber":55,"velocity":90,"programNumber":48},{"time":100000,"duration":200,"noteNumber":43,"velocity":90,"programNumber":48},{"time":100200,"duration":200,"noteNumber":46,"velocity":90,"programNumber":48},{"time":100400,"duration":200,"noteNumber":51,"velocity":90,"programNumber":48},{"time":100600,"duration":200,"noteNumber":55,"velocity":90,"programNumber":48},{"time":100800,"duration":200,"noteNumber":45,"velocity":90,"programNumber":48},{"time":101000,"duration":200,"noteNumber":57,"velocity":90,"programNumber":48},{"time":101200,"duration":200,"noteNumber":50,"velocity":90,"programNumber":48},{"time":101400,"duration":200,"noteNumber":53,"velocity":90,"programNumber":48},{"time":101600,"duration":200,"noteNumber":57,"velocity":90,"programNumber":48},{"time":101800,"duration":200,"noteNumber":55,"velocity":90,"programNumber":48},{"time":102000,"duration":200,"noteNumber":57,"velocity":90,"programNumber":48},{"time":102200,"duration":200,"noteNumber":45,"velocity":90,"programNumber":48},{"time":102400,"duration":400,"noteNumber":50,"velocity":90,"programNumber":48},{"time":103000,"duration":200,"noteNumber":57,"velocity":90,"programNumber":48},{"time":103200,"duration":200,"noteNumber":62,"velocity":90,"programNumber":48},{"time":103400,"duration":200,"noteNumber":65,"velocity":90,"programNumber":48},{"time":103600,"duration":200,"noteNumber":64,"velocity":90,"programNumber":48},{"time":103800,"duration":200,"noteNumber":62,"velocity":90,"programNumber":48},{"time":104000,"duration":200,"noteNumber":61,"velocity":90,"programNumber":48},{"time":104200,"duration":200,"noteNumber":58,"velocity":90,"programNumber":48},{"time":104400,"duration":200,"noteNumber":55,"velocity":90,"programNumber":48},{"time":104600,"duration":200,"noteNumber":53,"velocity":90,"programNumber":48},{"time":104800,"duration":200,"noteNumber":52,"velocity":90,"programNumber":48},{"time":105000,"duration":200,"noteNumber":50,"velocity":90,"programNumber":48},{"time":105200,"duration":200,"noteNumber":49,"velocity":90,"programNumber":48},{"time":105400,"duration":200,"noteNumber":52,"velocity":90,"programNumber":48},{"time":105600,"duration":200,"noteNumber":50,"velocity":90,"programNumber":48},{"time":105800,"duration":200,"noteNumber":53,"velocity":90,"programNumber":48},{"time":106000,"duration":200,"noteNumber":55,"velocity":90,"programNumber":48},{"time":106200,"duration":200,"noteNumber":58,"velocity":90,"programNumber":48},{"time":106400,"duration":200,"noteNumber":57,"velocity":90,"programNumber":48},{"time":106600,"duration":200,"noteNumber":55,"velocity":90,"programNumber":48},{"time":106800,"duration":200,"noteNumber":57,"velocity":90,"programNumber":48},{"time":107000,"duration":200,"noteNumber":45,"velocity":90,"programNumber":48},{"time":107200,"duration":400,"noteNumber":50,"velocity":90,"programNumber":48}]]}