{"tracks":[[{"time":3600,"duration":320,"noteNumber":67,"velocity":80,"programNumber":29},{"time":4000,"duration":320,"noteNumber":72,"velocity":80,"programNumber":29},{"time":4400,"duration":320,"noteNumber":74,"velocity":80,"programNumber":29},{"time":4800,"duration":320,"noteNumber":75,"velocity":80,"programNumber":29},{"time":5200,"duration":320,"noteNumber":74,"velocity":80,"programNumber":29},{"time":5800,"duration":160,"noteNumber":72,"velocity":80,"programNumber":29},{"time":6000,"duration":320,"noteNumber":70,"velocity":80,"programNumber":29},{"time":6400,"duration":2560,"noteNumber":68,"velocity":80,"programNumber":29},{"time":10400,"duration":160,"noteNumber":68,"velocity":80,"programNumber":29},{"time":10600,"duration":160,"noteNumber":70,"velocity":80,"programNumber":29},{"time":10800,"duration":160,"noteNumber":72,"velocity":80,"programNumber":29},{"time":11000,"duration":80,"noteNumber":72,"velocity":80,"programNumber":29},{"time":11100,"duration":80,"noteNumber":74,"velocity":80,"programNumber":29},{"time":11200,"duration":320,"noteNumber":72,"velocity":80,"programNumber":29},{"time":11600,"duration":320,"noteNumber":70,"velocity":80,"programNumber":29},{"time":12200,"duration":480,"noteNumber":65,"velocity":80,"programNumber":29},{"time":12800,"duration":2560,"noteNumber":67,"velocity":80,"programNumber":29},{"time":16400,"duration":320,"noteNumber":67,"velocity":80,"programNumber":29},{"time":16800,"duration":320,"noteNumber":68,"velocity":80,"programNumber":29},{"time":17200,"duration":320,"noteNumber":70,"velocity":80,"programNumber":29},{"time":17600,"duration":320,"noteNumber":72,"velocity":80,"programNumber":29},{"time":18000,"duration":320,"noteNumber":70,"velocity":80,"programNumber":29},{"time":18600,"duration":160,"noteNumber":68,"velocity":80,"programNumber":29},{"time":18800,"duration":160,"noteNumber":67,"velocity":80,"programNumber":29},{"time":19000,"duration":160,"noteNumber":63,"velocity":80,"programNumber":29},{"time":19200,"duration":960,"noteNumber":65,"velocity":80,"programNumber":29},{"time":20400,"duration":160,"noteNumber":67,"velocity":80,"programNumber":29},{"time":20600,"duration":160,"noteNumber":63,"velocity":80,"programNumber":29},{"time":20800,"duration":1280,"noteNumber":65,"velocity":80,"programNumber":29},{"time":22400,"duration":320,"noteNumber":65,"velocity":80,"programNumber":29},{"time":22800,"duration":320,"noteNumber":65,"velocity":80,"programNumber":29},{"time":23200,"duration":320,"noteNumber":67,"velocity":80,"programNumber":29},{"time":23600,"duration":320,"noteNumber":68,"velocity":80,"programNumber":29},{"time":24000,"duration":320,"noteNumber":70,"velocity":80,"programNumber":29},{"time":24400,"duration":320,"noteNumber":68,"velocity":80,"programNumber":29},{"time":24800,"duration":160,"noteNumber":67,"velocity":80,"programNumber":29},{"time":25000,"duration":160,"noteNumber":65,"velocity":80,"programNumber":29},{"time":25200,"duration":320,"noteNumber":63,"velocity":80,"programNumber":29},{"time":25600,"duration":960,"noteNumber":63,"velocity":80,"programNumber":29},{"time":26800,"duration":160,"noteNumber":65,"velocity":80,"programNumber":29},{"time":27000,"duration":160,"noteNumber":63,"velocity":80,"programNumber":29},{"time":27200,"duration":160,"noteNumber":60,"velocity":80,"programNumber":29},{"time":27400,"duration":160,"noteNumber":58,"velocity":80,"programNumber":29},{"time":27600,"duration":160,"noteNumber":53,"velocity":80,"programNumber":29},{"time":27800,"duration":160,"noteNumber":51,"velocity":80,"programNumber":29},{"time":28000,"duration":160,"noteNumber":55,"velocity":80,"programNumber":29},{"time":28200,"duration":320,"noteNumber":51,"velocity":80,"programNumber":29},{"time":28600,"duration":160,"noteNumber":48,"velocity":80,"programNumber":29},{"time":28800,"duration":160,"noteNumber":63,"velocity":80,"programNumber":29},{"time":28800,"duration":160,"noteNumber":67,"velocity":80,"programNumber":29},{"time":28800,"duration":160,"noteNumber":72,"velocity":80,"programNumber":29},{"time":29200,"duration":320,"noteNumber":67,"velocity":80,"programNumber":29},{"time":29600,"duration":320,"noteNumber":72,"velocity":80,"programNumber":29},{"time":30000,"duration":320,"noteNumber":74,"velocity":80,"programNumber":29},{"time":30400,"duration":320,"noteNumber":75,"velocity":80,"programNumber":29},{"time":30800,"duration":320,"noteNumber":74,"velocity":80,"programNumber":29},{"time":31400,"duration":160,"noteNumber":72,"velocity":80,"programNumber":29},{"time":31600,"duration":320,"noteNumber":70,"velocity":80,"programNumber":29},{"time":32000,"duration":2560,"noteNumber":68,"velocity":80,"programNumber":29},{"time":36000,"duration":160,"noteNumber":68,"velocity":80,"programNumber":29},{"time":36200,"duration":160,"noteNumber":70,"velocity":80,"programNumber":29},{"time":36400,"duration":160,"noteNumber":72,"velocity":80,"programNumber":29},{"time":36600,"duration":80,"noteNumber":72,"velocity":80,"programNumber":29},{"time":36700,"duration":80,"noteNumber":74,"velocity":80,"programNumber":29},{"time":36800,"duration":640,"noteNumber":72,"velocity":80,"programNumber":29},{"time":37600,"duration":320,"noteNumber":70,"velocity":80,"programNumber":29},{"time":38200,"duration":480,"noteNumber":65,"velocity":80,"programNumber":29},{"time":38400,"duration":2560,"noteNumber":67,"velocity":80,"programNumber":29},{"time":42000,"duration":320,"noteNumber":67,"velocity":80,"programNumber":29},{"time":42400,"duration":320,"noteNumber":68,"velocity":80,"programNumber":29},{"time":42800,"duration":320,"noteNumber":70,"velocity":80,"programNumber":29},{"time":43200,"duration":320,"noteNumber":72,"velocity":80,"programNumber":29},{"time":43600,"duration":320,"noteNumber":70,"velocity":80,"programNumber":29},{"time":44000,"duration":160,"noteNumber":68,"velocity":80,"programNumber":29},{"time":44200,"duration":160,"noteNumber":67,"velocity":80,"programNumber":29},{"time":44400,"duration":160,"noteNumber":63,"velocity":80,"programNumber":29},{"time":44600,"duration":160,"noteNumber":65,"velocity":80,"programNumber":29},{"time":44800,"duration":640,"noteNumber":65,"velocity":80,"programNumber":29},{"time":45600,"duration":480,"noteNumber":65,"velocity":80,"programNumber":29},{"time":46200,"duration":160,"noteNumber":63,"velocity":80,"programNumber":29},{"time":46400,"duration":1280,"noteNumber":65,"velocity":80,"programNumber":29},{"time":48000,"duration":320,"noteNumber":65,"velocity":80,"programNumber":29},{"time":48400,"duration":320,"noteNumber":65,"velocity":80,"programNumber":29},{"time":48800,"duration":320,"noteNumber":67,"velocity":80,"programNumber":29},{"time":49200,"duration":320,"noteNumber":68,"velocity":80,"programNumber":29},{"time":49600,"duration":480,"noteNumber":70,"velocity":80,"programNumber":29},{"time":50200,"duration":160,"noteNumber":68,"velocity":80,"programNumber":29},{"time":50400,"duration":53.33333333333576,"noteNumber":67,"velocity":80,"programNumber":29},{"time":50466.66666666667,"duration":53.33333333333576,"noteNumber":68,"velocity":80,"programNumber":29},{"time":50533.33333333334,"duration":53.33333333333576,"noteNumber":67,"velocity":80,"programNumber":29},{"time":50600.000000000015,"duration":480,"noteNumber":65,"velocity":80,"programNumber":29},{"time":51200.000000000015,"duration":2560,"noteNumber":67,"velocity":80,"programNumber":29},{"time":55200.000000000015,"duration":640,"noteNumber":67,"velocity":80,"programNumber":29},{"time":56000.000000000015,"duration":640,"noteNumber":72,"velocity":80,"programNumber":29},{"time":56800.000000000015,"duration":640,"noteNumber":79,"velocity":80,"programNumber":29},{"time":57600.000000000015,"duration":2560,"noteNumber":79,"velocity":80,"programNumber":29},{"time":60800.000000000015,"duration":640,"noteNumber":77,"velocity":80,"programNumber":29},{"time":61600.000000000015,"duration":160,"noteNumber":77,"velocity":80,"programNumber":29},{"time":61800.000000000015,"duration":160,"noteNumber":75,"velocity":80,"programNumber":29},{"time":62000.000000000015,"duration":320,"noteNumber":77,"velocity":80,"programNumber":29},{"time":62400.000000000015,"duration":320,"noteNumber":77,"velocity":80,"programNumber":29},{"time":62800.000000000015,"duration":320,"noteNumber":80,"velocity":80,"programNumber":29},{"time":63600.000000000015,"duration":160,"noteNumber":67,"velocity":80,"programNumber":29},{"time":63800.000000000015,"duration":160,"noteNumber":70,"velocity":80,"programNumber":29},{"time":64000.000000000015,"duration":160,"noteNumber":74,"velocity":80,"programNumber":29},{"time":64200.000000000015,"duration":160,"noteNumber":77,"velocity":80,"programNumber":29},{"time":64400.000000000015,"duration":160,"noteNumber":77,"velocity":80,"programNumber":29},{"time":64600.000000000015,"duration":160,"noteNumber":75,"velocity":80,"programNumber":29},{"time":64800.000000000015,"duration":1280,"noteNumber":77,"velocity":80,"programNumber":29},{"time":66400.00000000001,"duration":160,"noteNumber":77,"velocity":80,"programNumber":29},{"time":66600.00000000001,"duration":160,"noteNumber":75,"velocity":80,"programNumber":29},{"time":66800.00000000001,"duration":160,"noteNumber":77,"velocity":80,"programNumber":29},{"time":67000.00000000001,"duration":160,"noteNumber":75,"velocity":80,"programNumber":29},{"time":67200.00000000001,"duration":160,"noteNumber":75,"velocity":80,"programNumber":29},{"time":67400.00000000001,"duration":160,"noteNumber":77,"velocity":80,"programNumber":29},{"time":68400.00000000001,"duration":320,"noteNumber":77,"velocity":80,"programNumber":29},{"time":68800.00000000001,"duration":320,"noteNumber":77,"velocity":80,"programNumber":29},{"time":69200.00000000001,"duration":320,"noteNumber":77,"velocity":80,"programNumber":29},{"time":69600.00000000001,"duration":160,"noteNumber":77,"velocity":80,"programNumber":29},{"time":69800.00000000001,"duration":160,"noteNumber":77,"velocity":80,"programNumber":29},{"time":70000.00000000001,"duration":160,"noteNumber":75,"velocity":80,"programNumber":29},{"time":70200.00000000001,"duration":160,"noteNumber":72,"velocity":80,"programNumber":29},{"time":70400.00000000001,"duration":80,"noteNumber":77,"velocity":80,"programNumber":29},{"time":70500.00000000001,"duration":80,"noteNumber":75,"velocity":80,"programNumber":29},{"time":70600.00000000001,"duration":480,"noteNumber":74,"velocity":80,"programNumber":29},{"time":71200.00000000001,"duration":106.66666666667152,"noteNumber":74,"velocity":80,"programNumber":29},{"time":71333.33333333336,"duration":106.66666666667152,"noteNumber":75,"velocity":80,"programNumber":29},{"time":71466.6666666667,"duration":106.66666666667152,"noteNumber":74,"velocity":80,"programNumber":29},{"time":71600.00000000004,"duration":320,"noteNumber":74,"velocity":80,"programNumber":29},{"time":72000.00000000004,"duration":320,"noteNumber":67,"velocity":80,"programNumber":29},{"time":72400.00000000004,"duration":106.66666666667152,"noteNumber":65,"velocity":80,"programNumber":29},{"time":72533.33333333339,"duration":106.66666666667152,"noteNumber":63,"velocity":80,"programNumber":29},{"time":72666.66666666673,"duration":106.66666666667152,"noteNumber":62,"velocity":80,"programNumber":29},{"time":72800.00000000007,"duration":320,"noteNumber":62,"velocity":80,"programNumber":29},{"time":74400.00000000007,"duration":640,"noteNumber":75,"velocity":80,"programNumber":29},{"time":75200.00000000007,"duration":160,"noteNumber":74,"velocity":80,"programNumber":29},{"time":75400.00000000007,"duration":160,"noteNumber":72,"velocity":80,"programNumber":29},{"time":75600.00000000007,"duration":160,"noteNumber":70,"velocity":80,"programNumber":29},{"time":75800.00000000007,"duration":160,"noteNumber":67,"velocity":80,"programNumber":29},{"time":76000.00000000007,"duration":160,"noteNumber":65,"velocity":80,"programNumber":29},{"time":76200.00000000007,"duration":160,"noteNumber":65,"velocity":80,"programNumber":29},{"time":76400.00000000007,"duration":160,"noteNumber":63,"velocity":80,"programNumber":29},{"time":76600.00000000007,"duration":160,"noteNumber":60,"velocity":80,"programNumber":29},{"time":76800.00000000007,"duration":160,"noteNumber":67,"velocity":80,"programNumber":29},{"time":77000.00000000007,"duration":160,"noteNumber":63,"velocity":80,"programNumber":29},{"time":77200.00000000007,"duration":960,"noteNumber":60,"velocity":80,"programNumber":29},{"time":78400.00000000007,"duration":320,"noteNumber":60,"velocity":80,"programNumber":29},{"time":78800.00000000007,"duration":160,"noteNumber":60,"velocity":80,"programNumber":29},{"time":79000.00000000007,"duration":160,"noteNumber":55,"velocity":80,"programNumber":29},{"time":79200.00000000007,"duration":160,"noteNumber":53,"velocity":80,"programNumber":29},{"time":79400.00000000007,"duration":160,"noteNumber":51,"velocity":80,"programNumber":29},{"time":79600.00000000007,"duration":160,"noteNumber":48,"velocity":80,"programNumber":29},{"time":79800.00000000007,"duration":160,"noteNumber":48,"velocity":80,"programNumber":29},{"time":80000.00000000007,"duration":320,"noteNumber":63,"velocity":80,"programNumber":29},{"time":80000.00000000007,"duration":320,"noteNumber":67,"velocity":80,"programNumber":29},{"time":80000.00000000007,"duration":320,"noteNumber":72,"velocity":80,"programNumber":29},{"time":80800.00000000007,"duration":640,"noteNumber":60,"velocity":80,"programNumber":29},{"time":81600.00000000007,"duration":640,"noteNumber":62,"velocity":80,"programNumber":29},{"time":82400.00000000007,"duration":640,"noteNumber":63,"velocity":80,"programNumber":29},{"time":83200.00000000007,"duration":320,"noteNumber":65,"velocity":80,"programNumber":29},{"time":83600.00000000007,"duration":320,"noteNumber":67,"velocity":80,"programNumber":29},{"time":84600.00000000007,"duration":160,"noteNumber":58,"velocity":80,"programNumber":29},{"time":84800.00000000007,"duration":320,"noteNumber":65,"velocity":80,"programNumber":29},{"time":85200.00000000007,"duration":320,"noteNumber":67,"velocity":80,"programNumber":29},{"time":86200.00000000007,"duration":160,"noteNumber":58,"velocity":80,"programNumber":29},{"time":86400.00000000007,"duration":320,"noteNumber":65,"velocity":80,"programNumber":29},{"time":86800.00000000007,"duration":320,"noteNumber":67,"velocity":80,"programNumber":29},{"time":87600.00000000007,"duration":320,"noteNumber":58,"velocity":80,"programNumber":29},{"time":88000.00000000007,"duration":640,"noteNumber":65,"velocity":80,"programNumber":29},{"time":88800.00000000007,"duration":213.33333333332848,"noteNumber":63,"velocity":80,"programNumber":29},{"time":89066.66666666673,"duration":213.33333333332848,"noteNumber":65,"velocity":80,"programNumber":29},{"time":89333.33333333339,"duration":213.33333333332848,"noteNumber":63,"velocity":80,"programNumber":29},{"time":89600.00000000004,"duration":320,"noteNumber":67,"velocity":80,"programNumber":29},{"time":90000.00000000004,"duration":320,"noteNumber":70,"velocity":80,"programNumber":29},{"time":91000.00000000004,"duration":160,"noteNumber":58,"velocity":80,"programNumber":29},{"time":91200.00000000004,"duration":320,"noteNumber":67,"velocity":80,"programNumber":29},{"time":91600.00000000004,"duration":320,"noteNumber":70,"velocity":80,"programNumber":29},{"time":92600.00000000004,"duration":160,"noteNumber":58,"velocity":80,"programNumber":29},{"time":92800.00000000004,"duration":160,"noteNumber":67,"velocity":80,"programNumber":29},{"time":93000.00000000004,"duration":160,"noteNumber":70,"velocity":80,"programNumber":29},{"time":93200.00000000004,"duration":160,"noteNumber":70,"velocity":80,"programNumber":29},{"time":93400.00000000004,"duration":160,"noteNumber":67,"velocity":80,"programNumber":29},{"time":93600.00000000004,"duration":160,"noteNumber":70,"velocity":80,"programNumber":29},{"time":93800.00000000004,"duration":160,"noteNumber":72,"velocity":80,"programNumber":29},{"time":94000.00000000004,"duration":320,"noteNumber":70,"velocity":80,"programNumber":29},{"time":94400.00000000004,"duration":320,"noteNumber":70,"velocity":80,"programNumber":29},{"time":94800.00000000004,"duration":160,"noteNumber":72,"velocity":80,"programNumber":29},{"time":95000.00000000004,"duration":160,"noteNumber":70,"velocity":80,"programNumber":29},{"time":95200.00000000004,"duration":160,"noteNumber":65,"velocity":80,"programNumber":29},{"time":95400.00000000004,"duration":160,"noteNumber":65,"velocity":80,"programNumber":29},{"time":95600.00000000004,"duration":160,"noteNumber":63,"velocity":80,"programNumber":29},{"time":95800.00000000004,"duration":160,"noteNumber":60,"velocity":80,"programNumber":29},{"time":96000.00000000004,"duration":320,"noteNumber":65,"velocity":80,"programNumber":29},{"time":96400.00000000004,"duration":320,"noteNumber":67,"velocity":80,"programNumber":29},{"time":97400.00000000004,"duration":160,"noteNumber":60,"velocity":80,"programNumber":29},{"time":97600.00000000004,"duration":320,"noteNumber":65,"velocity":80,"programNumber":29},{"time":98000.00000000004,"duration":320,"noteNumber":67,"velocity":80,"programNumber":29},{"time":99000.00000000004,"duration":160,"noteNumber":60,"velocity":80,"programNumber":29},{"time":99200.00000000004,"duration":320,"noteNumber":65,"velocity":80,"programNumber":29},{"time":99600.00000000004,"duration":320,"noteNumber":67,"velocity":80,"programNumber":29},{"time":100000.00000000004,"duration":160,"noteNumber":72,"velocity":80,"programNumber":29},{"time":100200.00000000004,"duration":160,"noteNumber":70,"velocity":80,"programNumber":29},{"time":100400.00000000004,"duration":160,"noteNumber":67,"velocity":80,"programNumber":29},{"time":100600.00000000004,"duration":160,"noteNumber":65,"velocity":80,"programNumber":29},{"time":100800.00000000004,"duration":160,"noteNumber":65,"velocity":80,"programNumber":29},{"time":101000.00000000004,"duration":160,"noteNumber":65,"velocity":80,"programNumber":29},{"time":101200.00000000004,"duration":160,"noteNumber":63,"velocity":80,"programNumber":29},{"time":101400.00000000004,"duration":160,"noteNumber":60,"velocity":80,"programNumber":29},{"time":101600.00000000004,"duration":160,"noteNumber":65,"velocity":80,"programNumber":29},{"time":101800.00000000004,"duration":160,"noteNumber":67,"velocity":80,"programNumber":29},{"time":102000.00000000004,"duration":320,"noteNumber":63,"velocity":80,"programNumber":29},{"time":102400.00000000004,"duration":960,"noteNumber":63,"velocity":80,"programNumber":29},{"time":103600.00000000004,"duration":160,"noteNumber":65,"velocity":80,"programNumber":29},{"time":103800.00000000004,"duration":160,"noteNumber":63,"velocity":80,"programNumber":29},{"time":104000.00000000004,"duration":160,"noteNumber":60,"velocity":80,"programNumber":29},{"time":104200.00000000004,"duration":160,"noteNumber":58,"velocity":80,"programNumber":29},{"time":104400.00000000004,"duration":160,"noteNumber":53,"velocity":80,"programNumber":29},{"time":104600.00000000004,"duration":160,"noteNumber":51,"velocity":80,"programNumber":29},{"time":104800.00000000004,"duration":160,"noteNumber":55,"velocity":80,"programNumber":29},{"time":105000.00000000004,"duration":480,"noteNumber":51,"velocity":80,"programNumber":29},{"time":105600.00000000004,"duration":320,"noteNumber":48,"velocity":80,"programNumber":29},{"time":106400.00000000004,"duration":640,"noteNumber":60,"velocity":80,"programNumber":29},{"time":107200.00000000004,"duration":640,"noteNumber":62,"velocity":80,"programNumber":29},{"time":108000.00000000004,"duration":480,"noteNumber":63,"velocity":80,"programNumber":29},{"time":108600.00000000004,"duration":160,"noteNumber":60,"velocity":80,"programNumber":29},{"time":108800.00000000004,"duration":320,"noteNumber":65,"velocity":80,"programNumber":29},{"time":109200.00000000004,"duration":320,"noteNumber":67,"velocity":80,"programNumber":29},{"time":110200.00000000004,"duration":160,"noteNumber":58,"velocity":80,"programNumber":29},{"time":110400.00000000004,"duration":320,"noteNumber":65,"velocity":80,"programNumber":29},{"time":110800.00000000004,"duration":320,"noteNumber":67,"velocity":80,"programNumber":29},{"time":111800.00000000004,"duration":160,"noteNumber":58,"velocity":80,"programNumber":29},{"time":112000.00000000004,"duration":320,"noteNumber":65,"velocity":80,"programNumber":29},{"time":112400.00000000004,"duration":320,"noteNumber":67,"velocity":80,"programNumber":29},{"time":113400.00000000004,"duration":160,"noteNumber":58,"velocity":80,"programNumber":29},{"time":113600.00000000004,"duration":640,"noteNumber":65,"velocity":80,"programNumber":29},{"time":114400.00000000004,"duration":213.33333333332848,"noteNumber":63,"velocity":80,"programNumber":29},{"time":114666.6666666667,"duration":213.33333333332848,"noteNumber":65,"velocity":80,"programNumber":29},{"time":114933.33333333336,"duration":213.33333333332848,"noteNumber":63,"velocity":80,"programNumber":29},{"time":115200.00000000001,"duration":320,"noteNumber":67,"velocity":80,"programNumber":29},{"time":115600.00000000001,"duration":320,"noteNumber":70,"velocity":80,"programNumber":29},{"time":116600.00000000001,"duration":160,"noteNumber":58,"velocity":80,"programNumber":29},{"time":116800.00000000001,"duration":320,"noteNumber":67,"velocity":80,"programNumber":29},{"time":117200.00000000001,"duration":320,"noteNumber":70,"velocity":80,"programNumber":29},{"time":118200.00000000001,"duration":160,"noteNumber":58,"velocity":80,"programNumber":29},{"time":118400.00000000001,"duration":160,"noteNumber":67,"velocity":80,"programNumber":29},{"time":118600.00000000001,"duration":160,"noteNumber":70,"velocity":80,"programNumber":29},{"time":118800.00000000001,"duration":160,"noteNumber":70,"velocity":80,"programNumber":29},{"time":119000.00000000001,"duration":160,"noteNumber":67,"velocity":80,"programNumber":29},{"time":119200.00000000001,"duration":160,"noteNumber":70,"velocity":80,"programNumber":29},{"time":119400.00000000001,"duration":160,"noteNumber":72,"velocity":80,"programNumber":29},{"time":119600.00000000001,"duration":1200,"noteNumber":70,"velocity":80,"programNumber":29},{"time":120800.00000000001,"duration":160,"noteNumber":72,"velocity":80,"programNumber":29},{"time":121000.00000000001,"duration":160,"noteNumber":70,"velocity":80,"programNumber":29},{"time":121200.00000000001,"duration":160,"noteNumber":67,"velocity":80,"programNumber":29},{"time":121600.00000000001,"duration":320,"noteNumber":65,"velocity":80,"programNumber":29},{"time":122000.00000000001,"duration":160,"noteNumber":67,"velocity":80,"programNumber":29},{"time":122200.00000000001,"duration":160,"noteNumber":72,"velocity":80,"programNumber":29},{"time":122400.00000000001,"duration":160,"noteNumber":70,"velocity":80,"programNumber":29},{"time":122600.00000000001,"duration":160,"noteNumber":67,"velocity":80,"programNumber":29},{"time":122800.00000000001,"duration":160,"noteNumber":65,"velocity":80,"programNumber":29},{"time":123000.00000000001,"duration":160,"noteNumber":65,"velocity":80,"programNumber":29},{"time":123200.00000000001,"duration":160,"noteNumber":63,"velocity":80,"programNumber":29},{"time":123400.00000000001,"duration":160,"noteNumber":60,"velocity":80,"programNumber":29},{"time":123600.00000000001,"duration":160,"noteNumber":67,"velocity":80,"programNumber":29},{"time":123800.00000000001,"duration":160,"noteNumber":63,"velocity":80,"programNumber":29},{"time":124000.00000000001,"duration":160,"noteNumber":65,"velocity":80,"programNumber":29},{"time":124200.00000000001,"duration":160,"noteNumber":67,"velocity":80,"programNumber":29},{"time":124400.00000000001,"duration":1040,"noteNumber":65,"velocity":80,"programNumber":29},{"time":125600.00000000001,"duration":320,"noteNumber":65,"velocity":80,"programNumber":29},{"time":126000.00000000001,"duration":160,"noteNumber":67,"velocity":80,"programNumber":29},{"time":126200.00000000001,"duration":160,"noteNumber":72,"velocity":80,"programNumber":29},{"time":126400.00000000001,"duration":160,"noteNumber":70,"velocity":80,"programNumber":29},{"time":126600.00000000001,"duration":160,"noteNumber":67,"velocity":80,"programNumber":29},{"time":126800.00000000001,"duration":160,"noteNumber":65,"velocity":80,"programNumber":29},{"time":127000.00000000001,"duration":160,"noteNumber":65,"velocity":80,"programNumber":29},{"time":127200.00000000001,"duration":160,"noteNumber":63,"velocity":80,"programNumber":29},{"time":127400.00000000001,"duration":160,"noteNumber":60,"velocity":80,"programNumber":29},{"time":127600.00000000001,"duration":160,"noteNumber":63,"velocity":80,"programNumber":29},{"time":127800.00000000001,"duration":160,"noteNumber":65,"velocity":80,"programNumber":29},{"time":128000.00000000001,"duration":640,"noteNumber":65,"velocity":80,"programNumber":29},{"time":128800.00000000001,"duration":320,"noteNumber":65,"velocity":80,"programNumber":29},{"time":129200.00000000001,"duration":160,"noteNumber":67,"velocity":80,"programNumber":29},{"time":129400.00000000001,"duration":160,"noteNumber":72,"velocity":80,"programNumber":29},{"time":129600.00000000001,"duration":160,"noteNumber":70,"velocity":80,"programNumber":29},{"time":129800.00000000001,"duration":160,"noteNumber":67,"velocity":80,"programNumber":29},{"time":130000.00000000001,"duration":360,"noteNumber":65,"velocity":80,"programNumber":29},{"time":130400.00000000001,"duration":160,"noteNumber":63,"velocity":80,"programNumber":29},{"time":130600.00000000001,"duration":160,"noteNumber":60,"velocity":80,"programNumber":29},{"time":130800.00000000001,"duration":160,"noteNumber":63,"velocity":80,"programNumber":29},{"time":131000.00000000001,"duration":159.99999999998545,"noteNumber":65,"velocity":80,"programNumber":29},{"time":131200,"duration":960,"noteNumber":67,"velocity":80,"programNumber":29},{"time":132400,"duration":160,"noteNumber":55,"velocity":80,"programNumber":29},{"time":132600,"duration":160,"noteNumber":57,"velocity":80,"programNumber":29},{"time":132800,"duration":213.33333333334303,"noteNumber":60,"velocity":80,"programNumber":29},{"time":133066.6666666667,"duration":213.33333333334303,"noteNumber":64,"velocity":80,"programNumber":29},{"time":133333.33333333337,"duration":213.33333333334303,"noteNumber":67,"velocity":80,"programNumber":29},{"time":133600.00000000006,"duration":160,"noteNumber":69,"velocity":80,"programNumber":29},{"time":133800.00000000006,"duration":320,"noteNumber":67,"velocity":80,"programNumber":29},{"time":134200.00000000006,"duration":80,"noteNumber":67,"velocity":80,"programNumber":29},{"time":134300.00000000006,"duration":80,"noteNumber":69,"velocity":80,"programNumber":29},{"time":134400.00000000006,"duration":640,"noteNumber":67,"velocity":80,"programNumber":29},{"time":135200.00000000006,"duration":640,"noteNumber":67,"velocity":80,"programNumber":29},{"time":136000.00000000006,"duration":640,"noteNumber":72,"velocity":80,"programNumber":29},{"time":136800.00000000006,"duration":640,"noteNumber":77,"velocity":80,"programNumber":29},{"time":137600.00000000006,"duration":2560,"noteNumber":77,"velocity":80,"programNumber":29},{"time":140800.00000000006,"duration":640,"noteNumber":77,"velocity":80,"programNumber":29},{"time":141600.00000000006,"duration":640,"noteNumber":77,"velocity":80,"programNumber":29},{"time":142400.00000000006,"duration":213.33333333334303,"noteNumber":77,"velocity":80,"programNumber":29},{"time":142666.66666666674,"duration":213.33333333334303,"noteNumber":75,"velocity":80,"programNumber":29},{"time":142933.33333333343,"duration":213.33333333334303,"noteNumber":77,"velocity":80,"programNumber":29},{"time":143200.00000000012,"duration":213.33333333334303,"noteNumber":75,"velocity":80,"programNumber":29},{"time":143466.6666666668,"duration":213.33333333334303,"noteNumber":77,"velocity":80,"programNumber":29},{"time":143733.3333333335,"duration":213.33333333334303,"noteNumber":77,"velocity":80,"programNumber":29},{"time":144000.00000000017,"duration":320,"noteNumber":77,"velocity":80,"programNumber":29},{"time":144400.00000000017,"duration":160,"noteNumber":77,"velocity":80,"programNumber":29},{"time":144600.00000000017,"duration":160,"noteNumber":75,"velocity":80,"programNumber":29},{"time":144800.00000000017,"duration":160,"noteNumber":77,"velocity":80,"programNumber":29},{"time":145000.00000000017,"duration":320,"noteNumber":75,"velocity":80,"programNumber":29},{"time":145400.00000000017,"duration":160,"noteNumber":77,"velocity":80,"programNumber":29},{"time":148000.00000000017,"duration":640,"noteNumber":77,"velocity":80,"programNumber":29},{"time":148800.00000000017,"duration":1400,"noteNumber":77,"velocity":80,"programNumber":29},{"time":150200.00000000017,"duration":160,"noteNumber":75,"velocity":80,"programNumber":29},{"time":150400.00000000017,"duration":160,"noteNumber":77,"velocity":80,"programNumber":29},{"time":150600.00000000017,"duration":160,"noteNumber":77,"velocity":80,"programNumber":29},{"time":150800.00000000017,"duration":160,"noteNumber":75,"velocity":80,"programNumber":29},{"time":151000.00000000017,"duration":80,"noteNumber":77,"velocity":80,"programNumber":29},{"time":151100.00000000017,"duration":80,"noteNumber":75,"velocity":80,"programNumber":29},{"time":151200.00000000017,"duration":320,"noteNumber":74,"velocity":80,"programNumber":29},{"time":151600.00000000017,"duration":80,"noteNumber":74,"velocity":80,"programNumber":29},{"time":151700.00000000017,"duration":80,"noteNumber":75,"velocity":80,"programNumber":29},{"time":151800.00000000017,"duration":160,"noteNumber":74,"velocity":80,"programNumber":29},{"time":152000.00000000017,"duration":320,"noteNumber":74,"velocity":80,"programNumber":29},{"time":154000.00000000017,"duration":960,"noteNumber":75,"velocity":80,"programNumber":29},{"time":155200.00000000017,"duration":160,"noteNumber":75,"velocity":80,"programNumber":29},{"time":155400.00000000017,"duration":160,"noteNumber":72,"velocity":80,"programNumber":29},{"time":155600.00000000017,"duration":160,"noteNumber":70,"velocity":80,"programNumber":29},{"time":155800.00000000017,"duration":160,"noteNumber":67,"velocity":80,"programNumber":29},{"time":156000.00000000017,"duration":360,"noteNumber":65,"velocity":80,"programNumber":29},{"time":156400.00000000017,"duration":160,"noteNumber":63,"velocity":80,"programNumber":29},{"time":156600.00000000017,"duration":160,"noteNumber":60,"velocity":80,"programNumber":29},{"time":156800.00000000017,"duration":160,"noteNumber":67,"velocity":80,"programNumber":29},{"time":157000.00000000017,"duration":160,"noteNumber":63,"velocity":80,"programNumber":29},{"time":157200.00000000017,"duration":960,"noteNumber":60,"velocity":80,"programNumber":29},{"time":158400.00000000017,"duration":640,"noteNumber":60,"velocity":80,"programNumber":29},{"time":159800.00000000017,"duration":160,"noteNumber":58,"velocity":80,"programNumber":29},{"time":160000.00000000017,"duration":160,"noteNumber":60,"velocity":80,"programNumber":29},{"time":160200.00000000017,"duration":160,"noteNumber":63,"velocity":80,"programNumber":29},{"time":160400.00000000017,"duration":2400,"noteNumber":63,"velocity":80,"programNumber":29},{"time":163000.00000000017,"duration":160,"noteNumber":58,"velocity":80,"programNumber":29},{"time":163200.00000000017,"duration":160,"noteNumber":60,"velocity":80,"programNumber":29},{"time":163400.00000000017,"duration":160,"noteNumber":67,"velocity":80,"programNumber":29},{"time":163600.00000000017,"duration":1600,"noteNumber":67,"velocity":80,"programNumber":29},{"time":165600.00000000017,"duration":160,"noteNumber":67,"velocity":80,"programNumber":29},{"time":165800.00000000017,"duration":160,"noteNumber":67,"velocity":80,"programNumber":29},{"time":166000.00000000017,"duration":160,"noteNumber":70,"velocity":80,"programNumber":29},{"time":166200.00000000017,"duration":160,"noteNumber":68,"velocity":80,"programNumber":29},{"time":166400.00000000017,"duration":320,"noteNumber":68,"velocity":80,"programNumber":29},{"time":166800.00000000017,"duration":160,"noteNumber":67,"velocity":80,"programNumber":29},{"time":167000.00000000017,"duration":160,"noteNumber":70,"velocity":80,"programNumber":29},{"time":167200.00000000017,"duration":320,"noteNumber":68,"velocity":80,"programNumber":29},{"time":167600.00000000017,"duration":160,"noteNumber":67,"velocity":80,"programNumber":29},{"time":167800.00000000017,"duration":160,"noteNumber":65,"velocity":80,"programNumber":29},{"time":168000.00000000017,"duration":160,"noteNumber":67,"velocity":80,"programNumber":29},{"time":168200.00000000017,"duration":160,"noteNumber":65,"velocity":80,"programNumber":29},{"time":168400.00000000017,"duration":160,"noteNumber":63,"velocity":80,"programNumber":29},{"time":168600.00000000017,"duration":160,"noteNumber":60,"velocity":80,"programNumber":29},{"time":168800.00000000017,"duration":160,"noteNumber":65,"velocity":80,"programNumber":29},{"time":169000.00000000017,"duration":160,"noteNumber":63,"velocity":80,"programNumber":29},{"time":169200.00000000017,"duration":160,"noteNumber":60,"velocity":80,"programNumber":29},{"time":169400.00000000017,"duration":160,"noteNumber":58,"velocity":80,"programNumber":29},{"time":169600.00000000017,"duration":160,"noteNumber":60,"velocity":80,"programNumber":29},{"time":169800.00000000017,"duration":160,"noteNumber":65,"velocity":80,"programNumber":29},{"time":170000.00000000017,"duration":1600,"noteNumber":67,"velocity":80,"programNumber":29},{"time":172000.00000000017,"duration":160,"noteNumber":67,"velocity":80,"programNumber":29},{"time":172200.00000000017,"duration":160,"noteNumber":70,"velocity":80,"programNumber":29},{"time":172400.00000000017,"duration":160,"noteNumber":72,"velocity":80,"programNumber":29},{"time":172600.00000000017,"duration":160,"noteNumber":72,"velocity":80,"programNumber":29},{"time":172800.00000000017,"duration":160,"noteNumber":72,"velocity":80,"programNumber":29},{"time":173000.00000000017,"duration":160,"noteNumber":75,"velocity":80,"programNumber":29},{"time":175000.00000000017,"duration":160,"noteNumber":67,"velocity":80,"programNumber":29},{"time":175200.00000000017,"duration":160,"noteNumber":72,"velocity":80,"programNumber":29},{"time":175400.00000000017,"duration":160,"noteNumber":75,"velocity":80,"programNumber":29},{"time":175600.00000000017,"duration":53.333333333343035,"noteNumber":74,"velocity":80,"programNumber":29},{"time":175666.66666666686,"duration":53.333333333343035,"noteNumber":75,"velocity":80,"programNumber":29},{"time":175733.33333333355,"duration":53.333333333343035,"noteNumber":74,"velocity":80,"programNumber":29},{"time":175800.00000000023,"duration":160,"noteNumber":72,"velocity":80,"programNumber":29},{"time":176000.00000000023,"duration":160,"noteNumber":75,"velocity":80,"programNumber":29},{"time":176200.00000000023,"duration":53.333333333343035,"noteNumber":74,"velocity":80,"programNumber":29},{"time":176266.66666666692,"duration":53.333333333343035,"noteNumber":75,"velocity":80,"programNumber":29},{"time":176333.3333333336,"duration":53.333333333343035,"noteNumber":74,"velocity":80,"programNumber":29},{"time":176400.0000000003,"duration":160,"noteNumber":72,"velocity":80,"programNumber":29},{"time":176600.0000000003,"duration":160,"noteNumber":75,"velocity":80,"programNumber":29},{"time":176800.0000000003,"duration":53.333333333343035,"noteNumber":74,"velocity":80,"programNumber":29},{"time":176866.66666666698,"duration":53.333333333343035,"noteNumber":74,"velocity":80,"programNumber":29},{"time":176933.33333333366,"duration":53.333333333343035,"noteNumber":74,"velocity":80,"programNumber":29},{"time":177000.00000000035,"duration":160,"noteNumber":72,"velocity":80,"programNumber":29},{"time":177200.00000000035,"duration":160,"noteNumber":75,"velocity":80,"programNumber":29},{"time":177400.00000000035,"duration":160,"noteNumber":74,"velocity":80,"programNumber":29},{"time":177600.00000000035,"duration":160,"noteNumber":72,"velocity":80,"programNumber":29},{"time":177800.00000000035,"duration":160,"noteNumber":75,"velocity":80,"programNumber":29},{"time":178000.00000000035,"duration":53.333333333343035,"noteNumber":74,"velocity":80,"programNumber":29},{"time":178066.66666666704,"duration":53.333333333343035,"noteNumber":75,"velocity":80,"programNumber":29},{"time":178133.33333333372,"duration":53.333333333343035,"noteNumber":74,"velocity":80,"programNumber":29},{"time":178200.0000000004,"duration":160,"noteNumber":72,"velocity":80,"programNumber":29},{"time":178400.0000000004,"duration":160,"noteNumber":75,"velocity":80,"programNumber":29},{"time":178600.0000000004,"duration":160,"noteNumber":74,"velocity":80,"programNumber":29},{"time":178800.0000000004,"duration":160,"noteNumber":72,"velocity":80,"programNumber":29},{"time":179000.0000000004,"duration":160,"noteNumber":75,"velocity":80,"programNumber":29},{"time":179200.0000000004,"duration":640,"noteNumber":75,"velocity":80,"programNumber":29},{"time":180000.0000000004,"duration":80,"noteNumber":75,"velocity":80,"programNumber":29},{"time":180100.0000000004,"duration":80,"noteNumber":75,"velocity":80,"programNumber":29},{"time":180200.0000000004,"duration":80,"noteNumber":74,"velocity":80,"programNumber":29},{"time":180300.0000000004,"duration":80,"noteNumber":72,"velocity":80,"programNumber":29},{"time":180400.0000000004,"duration":106.66666666665697,"noteNumber":75,"velocity":80,"programNumber":29},{"time":180533.33333333372,"duration":106.66666666665697,"noteNumber":74,"velocity":80,"programNumber":29},{"time":180666.66666666704,"duration":106.66666666665697,"noteNumber":72,"velocity":80,"programNumber":29},{"time":180800.00000000035,"duration":240,"noteNumber":68,"velocity":80,"programNumber":29},{"time":181100.00000000035,"duration":80,"noteNumber":67,"velocity":80,"programNumber":29},{"time":181200.00000000035,"duration":106.66666666665697,"noteNumber":65,"velocity":80,"programNumber":29},{"time":181333.33333333366,"duration":106.66666666665697,"noteNumber":63,"velocity":80,"programNumber":29},{"time":181466.66666666698,"duration":106.66666666665697,"noteNumber":60,"velocity":80,"programNumber":29},{"time":181800.0000000003,"duration":160,"noteNumber":72,"velocity":80,"programNumber":29},{"time":182000.0000000003,"duration":160,"noteNumber":75,"velocity":80,"programNumber":29},{"time":182400.0000000003,"duration":1760,"noteNumber":77,"velocity":80,"programNumber":29},{"time":184200.0000000003,"duration":800,"noteNumber":77,"velocity":80,"programNumber":29},{"time":185000.0000000003,"duration":480,"noteNumber":77,"velocity":80,"programNumber":29},{"time":185600.0000000003,"duration":320,"noteNumber":77,"velocity":80,"programNumber":29},{"time":186000.0000000003,"duration":320,"noteNumber":77,"velocity":80,"programNumber":29},{"time":186400.0000000003,"duration":320,"noteNumber":77,"velocity":80,"programNumber":29},{"time":186800.0000000003,"duration":7120,"noteNumber":77,"velocity":80,"programNumber":29},{"time":194400.0000000003,"duration":160,"noteNumber":77,"velocity":80,"programNumber":29},{"time":194600.0000000003,"duration":160,"noteNumber":77,"velocity":80,"programNumber":29},{"time":195200.0000000003,"duration":160,"noteNumber":77,"velocity":80,"programNumber":29},{"time":195400.0000000003,"duration":320,"noteNumber":75,"velocity":80,"programNumber":29},{"time":195800.0000000003,"duration":400,"noteNumber":75,"velocity":80,"programNumber":29},{"time":196200.0000000003,"duration":320,"noteNumber":75,"velocity":80,"programNumber":29},{"time":196600.0000000003,"duration":400,"noteNumber":75,"velocity":80,"programNumber":29},{"time":197000.0000000003,"duration":320,"noteNumber":75,"velocity":80,"programNumber":29},{"time":197400.0000000003,"duration":400,"noteNumber":75,"velocity":80,"programNumber":29},{"time":197800.0000000003,"duration":320,"noteNumber":75,"velocity":80,"programNumber":29},{"time":198200.0000000003,"duration":160,"noteNumber":75,"velocity":80,"programNumber":29},{"time":198400.0000000003,"duration":213.33333333334303,"noteNumber":75,"velocity":80,"programNumber":29},{"time":198666.66666666698,"duration":213.33333333334303,"noteNumber":72,"velocity":80,"programNumber":29},{"time":198933.33333333366,"duration":213.33333333334303,"noteNumber":72,"velocity":80,"programNumber":29},{"time":199200.00000000035,"duration":480,"noteNumber":70,"velocity":80,"programNumber":29},{"time":199800.00000000035,"duration":160,"noteNumber":70,"velocity":80,"programNumber":29},{"time":200000.00000000035,"duration":160,"noteNumber":72,"velocity":80,"programNumber":29},{"time":200200.00000000035,"duration":160,"noteNumber":70,"velocity":80,"programNumber":29},{"time":200400.00000000035,"duration":160,"noteNumber":67,"velocity":80,"programNumber":29},{"time":200600.00000000035,"duration":160,"noteNumber":65,"velocity":80,"programNumber":29},{"time":200800.00000000035,"duration":160,"noteNumber":65,"velocity":80,"programNumber":29},{"time":201000.00000000035,"duration":160,"noteNumber":63,"velocity":80,"programNumber":29},{"time":201200.00000000035,"duration":160,"noteNumber":60,"velocity":80,"programNumber":29},{"time":201400.00000000035,"duration":160,"noteNumber":63,"velocity":80,"programNumber":29},{"time":201600.00000000035,"duration":160,"noteNumber":63,"velocity":80,"programNumber":29},{"time":201800.00000000035,"duration":160,"noteNumber":65,"velocity":80,"programNumber":29},{"time":202000.00000000035,"duration":160,"noteNumber":67,"velocity":80,"programNumber":29},{"time":202200.00000000035,"duration":160,"noteNumber":63,"velocity":80,"programNumber":29},{"time":202400.00000000035,"duration":160,"noteNumber":63,"velocity":80,"programNumber":29},{"time":202600.00000000035,"duration":80,"noteNumber":60,"velocity":80,"programNumber":29},{"time":202700.00000000035,"duration":80,"noteNumber":58,"velocity":80,"programNumber":29},{"time":202800.00000000035,"duration":160,"noteNumber":53,"velocity":80,"programNumber":29},{"time":203000.00000000035,"duration":160,"noteNumber":51,"velocity":80,"programNumber":29},{"time":203200.00000000035,"duration":160,"noteNumber":55,"velocity":80,"programNumber":29},{"time":203400.00000000035,"duration":160,"noteNumber":58,"velocity":80,"programNumber":29},{"time":203600.00000000035,"duration":320,"noteNumber":60,"velocity":80,"programNumber":29},{"time":204000.00000000035,"duration":160,"noteNumber":60,"velocity":80,"programNumber":29},{"time":204200.00000000035,"duration":160,"noteNumber":62,"velocity":80,"programNumber":29},{"time":204400.00000000035,"duration":160,"noteNumber":63,"velocity":80,"programNumber":29},{"time":204600.00000000035,"duration":160,"noteNumber":65,"velocity":80,"programNumber":29},{"time":204800.00000000035,"duration":320,"noteNumber":67,"velocity":80,"programNumber":29},{"time":205200.00000000035,"duration":160,"noteNumber":65,"velocity":80,"programNumber":29},{"time":205400.00000000035,"duration":400,"noteNumber":67,"velocity":80,"programNumber":29},{"time":205800.00000000035,"duration":160,"noteNumber":65,"velocity":80,"programNumber":29},{"time":206200.00000000035,"duration":160,"noteNumber":70,"velocity":80,"programNumber":29},{"time":206600.00000000035,"duration":160,"noteNumber":68,"velocity":80,"programNumber":29},{"time":207000.00000000035,"duration":160,"noteNumber":67,"velocity":80,"programNumber":29},{"time":207200.00000000035,"duration":160,"noteNumber":67,"velocity":80,"programNumber":29},{"time":207400.00000000035,"duration":160,"noteNumber":68,"velocity":80,"programNumber":29},{"time":207600.00000000035,"duration":720,"noteNumber":67,"velocity":80,"programNumber":29},{"time":208400.00000000035,"duration":160,"noteNumber":68,"velocity":80,"programNumber":29},{"time":208600.00000000035,"duration":160,"noteNumber":67,"velocity":80,"programNumber":29},{"time":208800.00000000035,"duration":160,"noteNumber":65,"velocity":80,"programNumber":29},{"time":209000.00000000035,"duration":160,"noteNumber":63,"velocity":80,"programNumber":29},{"time":209200.00000000035,"duration":160,"noteNumber":65,"velocity":80,"programNumber":29},{"time":209400.00000000035,"duration":160,"noteNumber":67,"velocity":80,"programNumber":29},{"time":209600.00000000035,"duration":320,"noteNumber":67,"velocity":80,"programNumber":29},{"time":210400.00000000035,"duration":160,"noteNumber":60,"velocity":80,"programNumber":29},{"time":210600.00000000035,"duration":160,"noteNumber":62,"velocity":80,"programNumber":29},{"time":210800.00000000035,"duration":160,"noteNumber":63,"velocity":80,"programNumber":29},{"time":211000.00000000035,"duration":160,"noteNumber":65,"velocity":80,"programNumber":29},{"time":211200.00000000035,"duration":320,"noteNumber":67,"velocity":80,"programNumber":29},{"time":211600.00000000035,"duration":160,"noteNumber":65,"velocity":80,"programNumber":29},{"time":211800.00000000035,"duration":400,"noteNumber":67,"velocity":80,"programNumber":29},{"time":212200.00000000035,"duration":160,"noteNumber":65,"velocity":80,"programNumber":29},{"time":212600.00000000035,"duration":160,"noteNumber":70,"velocity":80,"programNumber":29},{"time":213000.00000000035,"duration":160,"noteNumber":68,"velocity":80,"programNumber":29},{"time":213400.00000000035,"duration":400,"noteNumber":67,"velocity":80,"programNumber":29},{"time":213800.00000000035,"duration":160,"noteNumber":68,"velocity":80,"programNumber":29},{"time":214000.00000000035,"duration":320,"noteNumber":67,"velocity":80,"programNumber":29},{"time":214400.00000000035,"duration":480,"noteNumber":67,"velocity":80,"programNumber":29},{"time":215000.00000000035,"duration":80,"noteNumber":68,"velocity":80,"programNumber":29},{"time":215100.00000000035,"duration":80,"noteNumber":67,"velocity":80,"programNumber":29},{"time":215200.00000000035,"duration":160,"noteNumber":65,"velocity":80,"programNumber":29},{"time":215400.00000000035,"duration":160,"noteNumber":63,"velocity":80,"programNumber":29},{"time":215600.00000000035,"duration":160,"noteNumber":65,"velocity":80,"programNumber":29},{"time":215800.00000000035,"duration":160,"noteNumber":67,"velocity":80,"programNumber":29},{"time":216000.00000000035,"duration":320,"noteNumber":67,"velocity":80,"programNumber":29},{"time":216600.00000000035,"duration":160,"noteNumber":55,"velocity":80,"programNumber":29},{"time":216800.00000000035,"duration":160,"noteNumber":60,"velocity":80,"programNumber":29},{"time":217000.00000000035,"duration":160,"noteNumber":62,"velocity":80,"programNumber":29},{"time":217200.00000000035,"duration":160,"noteNumber":63,"velocity":80,"programNumber":29},{"time":217400.00000000035,"duration":160,"noteNumber":65,"velocity":80,"programNumber":29},{"time":217600.00000000035,"duration":320,"noteNumber":67,"velocity":80,"programNumber":29},{"time":218000.00000000035,"duration":160,"noteNumber":65,"velocity":80,"programNumber":29},{"time":218200.00000000035,"duration":160,"noteNumber":67,"velocity":80,"programNumber":29},{"time":218400.00000000035,"duration":160,"noteNumber":67,"velocity":80,"programNumber":29},{"time":218600.00000000035,"duration":160,"noteNumber":65,"velocity":80,"programNumber":29},{"time":219000.00000000035,"duration":160,"noteNumber":70,"velocity":80,"programNumber":29},{"time":219400.00000000035,"duration":160,"noteNumber":68,"velocity":80,"programNumber":29},{"time":219800.00000000035,"duration":160,"noteNumber":67,"velocity":80,"programNumber":29},{"time":220000.00000000035,"duration":160,"noteNumber":67,"velocity":80,"programNumber":29},{"time":220200.00000000035,"duration":160,"noteNumber":68,"velocity":80,"programNumber":29},{"time":220400.00000000035,"duration":320,"noteNumber":67,"velocity":80,"programNumber":29},{"time":220800.00000000035,"duration":480,"noteNumber":67,"velocity":80,"programNumber":29},{"time":221400.00000000035,"duration":160,"noteNumber":67,"velocity":80,"programNumber":29},{"time":221600.00000000035,"duration":160,"noteNumber":65,"velocity":80,"programNumber":29},{"time":221800.00000000035,"duration":160,"noteNumber":63,"velocity":80,"programNumber":29},{"time":222000.00000000035,"duration":160,"noteNumber":65,"velocity":80,"programNumber":29},{"time":222200.00000000035,"duration":800,"noteNumber":67,"velocity":80,"programNumber":29},{"time":223200.00000000035,"duration":160,"noteNumber":60,"velocity":80,"programNumber":29},{"time":223400.00000000035,"duration":160,"noteNumber":62,"velocity":80,"programNumber":29},{"time":223600.00000000035,"duration":160,"noteNumber":63,"velocity":80,"programNumber":29},{"time":223800.00000000035,"duration":160,"noteNumber":65,"velocity":80,"programNumber":29},{"time":224000.00000000035,"duration":320,"noteNumber":67,"velocity":80,"programNumber":29},{"time":224400.00000000035,"duration":160,"noteNumber":65,"velocity":80,"programNumber":29},{"time":224600.00000000035,"duration":160,"noteNumber":67,"velocity":80,"programNumber":29},{"time":224800.00000000035,"duration":160,"noteNumber":67,"velocity":80,"programNumber":29},{"time":225000.00000000035,"duration":160,"noteNumber":65,"velocity":80,"programNumber":29},{"time":225400.00000000035,"duration":160,"noteNumber":70,"velocity":80,"programNumber":29},{"time":225800.00000000035,"duration":160,"noteNumber":68,"velocity":80,"programNumber":29},{"time":226200.00000000035,"duration":160,"noteNumber":67,"velocity":80,"programNumber":29},{"time":226400.00000000035,"duration":160,"noteNumber":67,"velocity":80,"programNumber":29},{"time":226600.00000000035,"duration":160,"noteNumber":68,"velocity":80,"programNumber":29},{"time":226800.00000000035,"duration":320,"noteNumber":67,"velocity":80,"programNumber":29},{"time":227200.00000000035,"duration":1920,"noteNumber":67,"velocity":80,"programNumber":29},{"time":229600.00000000035,"duration":160,"noteNumber":67,"velocity":80,"programNumber":29},{"time":229800.00000000035,"duration":160,"noteNumber":70,"velocity":80,"programNumber":29},{"time":230000.00000000035,"duration":160,"noteNumber":72,"velocity":80,"programNumber":29},{"time":230200.00000000035,"duration":160,"noteNumber":72,"velocity":80,"programNumber":29},{"time":230400.00000000035,"duration":160,"noteNumber":72,"velocity":80,"programNumber":29},{"time":230600.00000000035,"duration":160,"noteNumber":75,"velocity":80,"programNumber":29},{"time":230800.00000000035,"duration":320,"noteNumber":75,"velocity":80,"programNumber":29},{"time":231200.00000000035,"duration":320,"noteNumber":75,"velocity":80,"programNumber":29},{"time":233200.00000000035,"duration":320,"noteNumber":77,"velocity":80,"programNumber":29},{"time":233600.00000000035,"duration":960,"noteNumber":77,"velocity":80,"programNumber":29},{"time":234600.00000000035,"duration":800,"noteNumber":77,"velocity":80,"programNumber":29},{"time":235400.00000000035,"duration":480,"noteNumber":77,"velocity":80,"programNumber":29},{"time":236000.00000000035,"duration":480,"noteNumber":77,"velocity":80,"programNumber":29},{"time":236800.00000000035,"duration":2560,"noteNumber":77,"velocity":80,"programNumber":29},{"time":240000.00000000035,"duration":160,"noteNumber":77,"velocity":80,"programNumber":29},{"time":240200.00000000035,"duration":320,"noteNumber":75,"velocity":80,"programNumber":29},{"time":240600.00000000035,"duration":400,"noteNumber":75,"velocity":80,"programNumber":29},{"time":241000.00000000035,"duration":320,"noteNumber":75,"velocity":80,"programNumber":29},{"time":241400.00000000035,"duration":400,"noteNumber":75,"velocity":80,"programNumber":29},{"time":241800.00000000035,"duration":320,"noteNumber":77,"velocity":80,"programNumber":29},{"time":242200.00000000035,"duration":80,"noteNumber":77,"velocity":80,"programNumber":29},{"time":242300.00000000035,"duration":80,"noteNumber":75,"velocity":80,"programNumber":29},{"time":242400.00000000035,"duration":160,"noteNumber":77,"velocity":80,"programNumber":29},{"time":242600.00000000035,"duration":160,"noteNumber":75,"velocity":80,"programNumber":29},{"time":243200.00000000035,"duration":160,"noteNumber":79,"velocity":80,"programNumber":29},{"time":243400.00000000035,"duration":160,"noteNumber":82,"velocity":80,"programNumber":29},{"time":243600.00000000035,"duration":160,"noteNumber":82,"velocity":80,"programNumber":29},{"time":243800.00000000035,"duration":160,"noteNumber":79,"velocity":80,"programNumber":29},{"time":244000.00000000035,"duration":320,"noteNumber":82,"velocity":80,"programNumber":29},{"time":244400.00000000035,"duration":600,"noteNumber":82,"velocity":80,"programNumber":29},{"time":245000.00000000035,"duration":800,"noteNumber":82,"velocity":80,"programNumber":29},{"time":245800.00000000035,"duration":480,"noteNumber":79,"velocity":80,"programNumber":29},{"time":246400.00000000035,"duration":160,"noteNumber":77,"velocity":80,"programNumber":29},{"time":246600.00000000035,"duration":80,"noteNumber":79,"velocity":80,"programNumber":29},{"time":246700.00000000035,"duration":80,"noteNumber":79,"velocity":80,"programNumber":29},{"time":246800.00000000035,"duration":80,"noteNumber":82,"velocity":80,"programNumber":29},{"time":246900.00000000035,"duration":80,"noteNumber":79,"velocity":80,"programNumber":29},{"time":247000.00000000035,"duration":160,"noteNumber":77,"velocity":80,"programNumber":29},{"time":247200.00000000035,"duration":80,"noteNumber":79,"velocity":80,"programNumber":29},{"time":247300.00000000035,"duration":80,"noteNumber":79,"velocity":80,"programNumber":29},{"time":247400.00000000035,"duration":80,"noteNumber":82,"velocity":80,"programNumber":29},{"time":247500.00000000035,"duration":80,"noteNumber":79,"velocity":80,"programNumber":29},{"time":247600.00000000035,"duration":160,"noteNumber":77,"velocity":80,"programNumber":29},{"time":247800.00000000035,"duration":80,"noteNumber":79,"velocity":80,"programNumber":29},{"time":247900.00000000035,"duration":80,"noteNumber":79,"velocity":80,"programNumber":29},{"time":248000.00000000035,"duration":80,"noteNumber":82,"velocity":80,"programNumber":29},{"time":248100.00000000035,"duration":80,"noteNumber":79,"velocity":80,"programNumber":29},{"time":248200.00000000035,"duration":160,"noteNumber":77,"velocity":80,"programNumber":29},{"time":248400.00000000035,"duration":80,"noteNumber":79,"velocity":80,"programNumber":29},{"time":248500.00000000035,"duration":80,"noteNumber":79,"velocity":80,"programNumber":29},{"time":248600.00000000035,"duration":80,"noteNumber":82,"velocity":80,"programNumber":29},{"time":248700.00000000035,"duration":80,"noteNumber":79,"velocity":80,"programNumber":29},{"time":248800.00000000035,"duration":160,"noteNumber":77,"velocity":80,"programNumber":29},{"time":249000.00000000035,"duration":80,"noteNumber":79,"velocity":80,"programNumber":29},{"time":249100.00000000035,"duration":80,"noteNumber":82,"velocity":80,"programNumber":29},{"time":249200.00000000035,"duration":80,"noteNumber":79,"velocity":80,"programNumber":29},{"time":249300.00000000035,"duration":80,"noteNumber":77,"velocity":80,"programNumber":29},{"time":249400.00000000035,"duration":80,"noteNumber":79,"velocity":80,"programNumber":29},{"time":249600.00000000035,"duration":320,"noteNumber":82,"velocity":80,"programNumber":29},{"time":250000.00000000035,"duration":600,"noteNumber":82,"velocity":80,"programNumber":29},{"time":250600.00000000035,"duration":480,"noteNumber":82,"velocity":80,"programNumber":29},{"time":251200.00000000035,"duration":360,"noteNumber":82,"velocity":80,"programNumber":29},{"time":251600.00000000035,"duration":160,"noteNumber":79,"velocity":80,"programNumber":29},{"time":251800.00000000035,"duration":400,"noteNumber":77,"velocity":80,"programNumber":29},{"time":252200.00000000035,"duration":160,"noteNumber":82,"velocity":80,"programNumber":29},{"time":252400.00000000035,"duration":160,"noteNumber":82,"velocity":80,"programNumber":29},{"time":252600.00000000035,"duration":160,"noteNumber":82,"velocity":80,"programNumber":29},{"time":252800.00000000035,"duration":160,"noteNumber":77,"velocity":80,"programNumber":29},{"time":253000.00000000035,"duration":160,"noteNumber":82,"velocity":80,"programNumber":29},{"time":253200.00000000035,"duration":160,"noteNumber":82,"velocity":80,"programNumber":29},{"time":253400.00000000035,"duration":160,"noteNumber":77,"velocity":80,"programNumber":29},{"time":253600.00000000035,"duration":160,"noteNumber":82,"velocity":80,"programNumber":29},{"time":253800.00000000035,"duration":160,"noteNumber":82,"velocity":80,"programNumber":29},{"time":254000.00000000035,"duration":160,"noteNumber":77,"velocity":80,"programNumber":29},{"time":254200.00000000035,"duration":160,"noteNumber":82,"velocity":80,"programNumber":29},{"time":254400.00000000035,"duration":160,"noteNumber":82,"velocity":80,"programNumber":29},{"time":254600.00000000035,"duration":160,"noteNumber":77,"velocity":80,"programNumber":29},{"time":254800.00000000035,"duration":160,"noteNumber":82,"velocity":80,"programNumber":29},{"time":255000.00000000035,"duration":160,"noteNumber":82,"velocity":80,"programNumber":29},{"time":255200.00000000035,"duration":160,"noteNumber":82,"velocity":80,"programNumber":29},{"time":255400.00000000035,"duration":320,"noteNumber":82,"velocity":80,"programNumber":29},{"time":255800.00000000035,"duration":160,"noteNumber":82,"velocity":80,"programNumber":29},{"time":256000.00000000035,"duration":106.66666666665697,"noteNumber":77,"velocity":80,"programNumber":29},{"time":256133.33333333366,"duration":106.66666666665697,"noteNumber":77,"velocity":80,"programNumber":29},{"time":256266.66666666698,"duration":106.66666666665697,"noteNumber":82,"velocity":80,"programNumber":29},{"time":256400.0000000003,"duration":106.66666666665697,"noteNumber":77,"velocity":80,"programNumber":29},{"time":256533.3333333336,"duration":106.66666666665697,"noteNumber":77,"velocity":80,"programNumber":29},{"time":256666.66666666692,"duration":106.66666666665697,"noteNumber":82,"velocity":80,"programNumber":29},{"time":256800.00000000023,"duration":106.66666666665697,"noteNumber":77,"velocity":80,"programNumber":29},{"time":256933.33333333355,"duration":106.66666666665697,"noteNumber":77,"velocity":80,"programNumber":29},{"time":257066.66666666686,"duration":106.66666666665697,"noteNumber":82,"velocity":80,"programNumber":29},{"time":257200.00000000017,"duration":106.66666666665697,"noteNumber":77,"velocity":80,"programNumber":29},{"time":257333.3333333335,"duration":106.66666666665697,"noteNumber":77,"velocity":80,"programNumber":29},{"time":257466.6666666668,"duration":106.66666666665697,"noteNumber":82,"velocity":80,"programNumber":29},{"time":257600.00000000012,"duration":106.66666666665697,"noteNumber":77,"velocity":80,"programNumber":29},{"time":257733.33333333343,"duration":106.66666666665697,"noteNumber":77,"velocity":80,"programNumber":29},{"time":257866.66666666674,"duration":106.66666666665697,"noteNumber":82,"velocity":80,"programNumber":29},{"time":258000.00000000006,"duration":106.66666666665697,"noteNumber":77,"velocity":80,"programNumber":29},{"time":258133.33333333337,"duration":106.66666666665697,"noteNumber":77,"velocity":80,"programNumber":29},{"time":258266.6666666667,"duration":106.66666666665697,"noteNumber":82,"velocity":80,"programNumber":29},{"time":258400,"duration":106.66666666665697,"noteNumber":77,"velocity":80,"programNumber":29},{"time":258533.3333333333,"duration":106.66666666665697,"noteNumber":77,"velocity":80,"programNumber":29},{"time":258666.66666666663,"duration":106.66666666665697,"noteNumber":82,"velocity":80,"programNumber":29},{"time":258799.99999999994,"duration":106.66666666665697,"noteNumber":77,"velocity":80,"programNumber":29},{"time":258933.33333333326,"duration":106.66666666665697,"noteNumber":77,"velocity":80,"programNumber":29},{"time":259066.66666666657,"duration":106.66666666665697,"noteNumber":82,"velocity":80,"programNumber":29},{"time":259199.99999999988,"duration":106.66666666665697,"noteNumber":77,"velocity":80,"programNumber":29},{"time":259333.3333333332,"duration":106.66666666665697,"noteNumber":77,"velocity":80,"programNumber":29},{"time":259466.6666666665,"duration":106.66666666665697,"noteNumber":82,"velocity":80,"programNumber":29},{"time":259599.99999999983,"duration":640,"noteNumber":77,"velocity":80,"programNumber":29},{"time":261399.99999999983,"duration":600,"noteNumber":75,"velocity":80,"programNumber":29},{"time":261999.99999999983,"duration":160,"noteNumber":75,"velocity":80,"programNumber":29},{"time":262399.9999999998,"duration":280,"noteNumber":75,"velocity":80,"programNumber":29},{"time":262799.9999999998,"duration":80,"noteNumber":75,"velocity":80,"programNumber":29},{"time":262899.9999999998,"duration":80,"noteNumber":72,"velocity":80,"programNumber":29},{"time":262999.9999999998,"duration":80,"noteNumber":70,"velocity":80,"programNumber":29},{"time":263099.9999999998,"duration":80,"noteNumber":67,"velocity":80,"programNumber":29},{"time":263199.9999999998,"duration":80,"noteNumber":65,"velocity":80,"programNumber":29},{"time":263299.9999999998,"duration":80,"noteNumber":65,"velocity":80,"programNumber":29},{"time":263399.9999999998,"duration":80,"noteNumber":63,"velocity":80,"programNumber":29},{"time":263499.9999999998,"duration":80,"noteNumber":60,"velocity":80,"programNumber":29},{"time":263599.9999999998,"duration":80,"noteNumber":65,"velocity":80,"programNumber":29},{"time":263699.9999999998,"duration":80,"noteNumber":63,"velocity":80,"programNumber":29},{"time":263799.9999999998,"duration":80,"noteNumber":60,"velocity":80,"programNumber":29},{"time":263899.9999999998,"duration":80,"noteNumber":58,"velocity":80,"programNumber":29},{"time":263999.9999999998,"duration":80,"noteNumber":55,"velocity":80,"programNumber":29},{"time":264099.9999999998,"duration":80,"noteNumber":53,"velocity":80,"programNumber":29},{"time":264199.9999999998,"duration":80,"noteNumber":51,"velocity":80,"programNumber":29},{"time":264299.9999999998,"duration":80,"noteNumber":48,"velocity":80,"programNumber":29},{"time":264999.9999999998,"duration":160,"noteNumber":65,"velocity":80,"programNumber":29},{"time":265199.9999999998,"duration":160,"noteNumber":72,"velocity":80,"programNumber":29},{"time":265399.9999999998,"duration":80,"noteNumber":65,"velocity":80,"programNumber":29},{"time":265499.9999999998,"duration":80,"noteNumber":63,"velocity":80,"programNumber":29},{"time":265599.9999999998,"duration":160,"noteNumber":65,"velocity":80,"programNumber":29},{"time":265799.9999999998,"duration":160,"noteNumber":67,"velocity":80,"programNumber":29},{"time":265999.9999999998,"duration":80,"noteNumber":70,"velocity":80,"programNumber":29},{"time":266099.9999999998,"duration":80,"noteNumber":67,"velocity":80,"programNumber":29},{"time":266199.9999999998,"duration":160,"noteNumber":65,"velocity":80,"programNumber":29},{"time":266399.9999999998,"duration":160,"noteNumber":67,"velocity":80,"programNumber":29},{"time":266599.9999999998,"duration":80,"noteNumber":70,"velocity":80,"programNumber":29},{"time":266699.9999999998,"duration":80,"noteNumber":67,"velocity":80,"programNumber":29},{"time":266799.9999999998,"duration":80,"noteNumber":65,"velocity":80,"programNumber":29},{"time":266899.9999999998,"duration":80,"noteNumber":67,"velocity":80,"programNumber":29},{"time":266999.9999999998,"duration":160,"noteNumber":70,"velocity":80,"programNumber":29},{"time":267199.9999999998,"duration":320,"noteNumber":70,"velocity":80,"programNumber":29},{"time":267599.9999999998,"duration":80,"noteNumber":70,"velocity":80,"programNumber":29},{"time":267699.9999999998,"duration":80,"noteNumber":67,"velocity":80,"programNumber":29},{"time":267799.9999999998,"duration":80,"noteNumber":65,"velocity":80,"programNumber":29},{"time":267899.9999999998,"duration":80,"noteNumber":63,"velocity":80,"programNumber":29},{"time":267999.9999999998,"duration":80,"noteNumber":63,"velocity":80,"programNumber":29},{"time":268099.9999999998,"duration":160,"noteNumber":58,"velocity":80,"programNumber":29},{"time":268299.9999999998,"duration":80,"noteNumber":75,"velocity":80,"programNumber":29},{"time":268399.9999999998,"duration":320,"noteNumber":75,"velocity":80,"programNumber":29},{"time":268799.9999999998,"duration":160,"noteNumber":75,"velocity":80,"programNumber":29},{"time":268999.9999999998,"duration":160,"noteNumber":72,"velocity":80,"programNumber":29},{"time":269199.9999999998,"duration":160,"noteNumber":70,"velocity":80,"programNumber":29},{"time":269399.9999999998,"duration":160,"noteNumber":67,"velocity":80,"programNumber":29},{"time":269599.9999999998,"duration":160,"noteNumber":65,"velocity":80,"programNumber":29},{"time":269799.9999999998,"duration":160,"noteNumber":65,"velocity":80,"programNumber":29},{"time":269999.9999999998,"duration":160,"noteNumber":63,"velocity":80,"programNumber":29},{"time":270199.9999999998,"duration":160,"noteNumber":63,"velocity":80,"programNumber":29},{"time":270399.9999999998,"duration":80,"noteNumber":63,"velocity":80,"programNumber":29},{"time":270499.9999999998,"duration":80,"noteNumber":60,"velocity":80,"programNumber":29},{"time":270599.9999999998,"duration":80,"noteNumber":58,"velocity":80,"programNumber":29},{"time":270699.9999999998,"duration":80,"noteNumber":55,"velocity":80,"programNumber":29},{"time":270799.9999999998,"duration":160,"noteNumber":53,"velocity":80,"programNumber":29},{"time":270999.9999999998,"duration":160,"noteNumber":51,"velocity":80,"programNumber":29},{"time":271199.9999999998,"duration":160,"noteNumber":48,"velocity":80,"programNumber":29},{"time":271399.9999999998,"duration":160,"noteNumber":51,"velocity":80,"programNumber":29},{"time":271599.9999999998,"duration":160,"noteNumber":53,"velocity":80,"programNumber":29},{"time":271799.9999999998,"duration":160,"noteNumber":58,"velocity":80,"programNumber":29},{"time":271999.9999999998,"duration":160,"noteNumber":58,"velocity":80,"programNumber":29},{"time":272199.9999999998,"duration":160,"noteNumber":58,"velocity":80,"programNumber":29},{"time":272399.9999999998,"duration":160,"noteNumber":58,"velocity":80,"programNumber":29},{"time":272599.9999999998,"duration":160,"noteNumber":58,"velocity":80,"programNumber":29},{"time":272799.9999999998,"duration":160,"noteNumber":58,"velocity":80,"programNumber":29},{"time":272999.9999999998,"duration":160,"noteNumber":58,"velocity":80,"programNumber":29},{"time":273199.9999999998,"duration":160,"noteNumber":58,"velocity":80,"programNumber":29},{"time":273399.9999999998,"duration":160,"noteNumber":58,"velocity":80,"programNumber":29},{"time":273599.9999999998,"duration":80,"noteNumber":58,"velocity":80,"programNumber":29},{"time":273699.9999999998,"duration":160,"noteNumber":60,"velocity":80,"programNumber":29},{"time":273899.9999999998,"duration":80,"noteNumber":63,"velocity":80,"programNumber":29},{"time":273999.9999999998,"duration":160,"noteNumber":63,"velocity":80,"programNumber":29},{"time":274199.9999999998,"duration":400,"noteNumber":65,"velocity":80,"programNumber":29},{"time":274599.9999999998,"duration":80,"noteNumber":63,"velocity":80,"programNumber":29},{"time":274699.9999999998,"duration":80,"noteNumber":60,"velocity":80,"programNumber":29},{"time":274799.9999999998,"duration":320,"noteNumber":60,"velocity":80,"programNumber":29},{"time":275199.9999999998,"duration":160,"noteNumber":72,"velocity":80,"programNumber":29},{"time":275399.9999999998,"duration":480,"noteNumber":75,"velocity":80,"programNumber":29},{"time":275999.9999999998,"duration":160,"noteNumber":75,"velocity":80,"programNumber":29},{"time":276199.9999999998,"duration":480,"noteNumber":77,"velocity":80,"programNumber":29},{"time":276799.9999999998,"duration":160,"noteNumber":77,"velocity":80,"programNumber":29},{"time":276999.9999999998,"duration":160,"noteNumber":79,"velocity":80,"programNumber":29},{"time":277199.9999999998,"duration":320,"noteNumber":79,"velocity":80,"programNumber":29},{"time":277599.9999999998,"duration":160,"noteNumber":79,"velocity":80,"programNumber":29},{"time":277799.9999999998,"duration":160,"noteNumber":82,"velocity":80,"programNumber":29},{"time":277999.9999999998,"duration":160,"noteNumber":82,"velocity":80,"programNumber":29},{"time":278599.9999999998,"duration":480,"noteNumber":84,"velocity":80,"programNumber":29},{"time":279199.9999999998,"duration":320,"noteNumber":84,"velocity":80,"programNumber":29},{"time":279599.9999999998,"duration":320,"noteNumber":84,"velocity":80,"programNumber":29},{"time":279999.9999999998,"duration":160,"noteNumber":84,"velocity":80,"programNumber":29},{"time":280199.9999999998,"duration":480,"noteNumber":84,"velocity":80,"programNumber":29},{"time":280799.9999999998,"duration":480,"noteNumber":84,"velocity":80,"programNumber":29},{"time":281399.9999999998,"duration":160,"noteNumber":84,"velocity":80,"programNumber":29},{"time":281599.9999999998,"duration":160,"noteNumber":84,"velocity":80,"programNumber":29},{"time":281799.9999999998,"duration":480,"noteNumber":84,"velocity":80,"programNumber":29},{"time":282399.9999999998,"duration":213.33333333331393,"noteNumber":84,"velocity":80,"programNumber":29},{"time":282666.66666666645,"duration":213.33333333331393,"noteNumber":84,"velocity":80,"programNumber":29},{"time":282933.3333333331,"duration":213.33333333331393,"noteNumber":84,"velocity":80,"programNumber":29},{"time":283199.9999999997,"duration":160,"noteNumber":84,"velocity":80,"programNumber":29},{"time":283399.9999999997,"duration":160,"noteNumber":84,"velocity":80,"programNumber":29},{"time":283599.9999999997,"duration":320,"noteNumber":84,"velocity":80,"programNumber":29},{"time":284199.9999999997,"duration":480,"noteNumber":75,"velocity":80,"programNumber":29},{"time":284799.9999999997,"duration":160,"noteNumber":75,"velocity":80,"programNumber":29},{"time":284999.9999999997,"duration":480,"noteNumber":75,"velocity":80,"programNumber":29},{"time":285599.9999999997,"duration":320,"noteNumber":75,"velocity":80,"programNumber":29},{"time":285999.9999999997,"duration":80,"noteNumber":75,"velocity":80,"programNumber":29},{"time":286099.9999999997,"duration":80,"noteNumber":72,"velocity":80,"programNumber":29},{"time":286199.9999999997,"duration":80,"noteNumber":70,"velocity":80,"programNumber":29},{"time":286299.9999999997,"duration":80,"noteNumber":67,"velocity":80,"programNumber":29},{"time":286399.9999999997,"duration":80,"noteNumber":65,"velocity":80,"programNumber":29},{"time":286499.9999999997,"duration":80,"noteNumber":65,"velocity":80,"programNumber":29},{"time":286599.9999999997,"duration":80,"noteNumber":63,"velocity":80,"programNumber":29},{"time":286699.9999999997,"duration":80,"noteNumber":60,"velocity":80,"programNumber":29},{"time":286799.9999999997,"duration":80,"noteNumber":65,"velocity":80,"programNumber":29},{"time":286899.9999999997,"duration":80,"noteNumber":63,"velocity":80,"programNumber":29},{"time":286999.9999999997,"duration":160,"noteNumber":60,"velocity":80,"programNumber":29},{"time":287199.9999999997,"duration":160,"noteNumber":60,"velocity":80,"programNumber":29},{"time":287399.9999999997,"duration":160,"noteNumber":62,"velocity":80,"programNumber":29},{"time":287599.9999999997,"duration":160,"noteNumber":63,"velocity":80,"programNumber":29},{"time":287799.9999999997,"duration":160,"noteNumber":65,"velocity":80,"programNumber":29},{"time":287999.9999999997,"duration":320,"noteNumber":67,"velocity":80,"programNumber":29},{"time":288399.9999999997,"duration":160,"noteNumber":60,"velocity":80,"programNumber":29},{"time":288599.9999999997,"duration":800,"noteNumber":60,"velocity":80,"programNumber":29},{"time":289599.9999999997,"duration":320,"noteNumber":60,"velocity":80,"programNumber":29},{"time":290399.9999999997,"duration":160,"noteNumber":72,"velocity":80,"programNumber":29},{"time":290599.9999999997,"duration":160,"noteNumber":74,"velocity":80,"programNumber":29},{"time":290799.9999999997,"duration":160,"noteNumber":75,"velocity":80,"programNumber":29},{"time":290999.9999999997,"duration":160,"noteNumber":77,"velocity":80,"programNumber":29},{"time":291199.9999999997,"duration":960,"noteNumber":79,"velocity":80,"programNumber":29},{"time":292399.9999999997,"duration":80,"noteNumber":72,"velocity":80,"programNumber":29},{"time":292499.9999999997,"duration":80,"noteNumber":70,"velocity":80,"programNumber":29},{"time":292599.9999999997,"duration":80,"noteNumber":72,"velocity":80,"programNumber":29},{"time":292699.9999999997,"duration":80,"noteNumber":70,"velocity":80,"programNumber":29},{"time":292799.9999999997,"duration":320,"noteNumber":70,"velocity":80,"programNumber":29},{"time":293599.9999999997,"duration":160,"noteNumber":60,"velocity":80,"programNumber":29},{"time":293799.9999999997,"duration":160,"noteNumber":62,"velocity":80,"programNumber":29},{"time":293999.9999999997,"duration":160,"noteNumber":63,"velocity":80,"programNumber":29},{"time":294199.9999999997,"duration":160,"noteNumber":65,"velocity":80,"programNumber":29},{"time":294399.9999999997,"duration":160,"noteNumber":67,"velocity":80,"programNumber":29},{"time":294799.9999999997,"duration":160,"noteNumber":60,"velocity":80,"programNumber":29},{"time":294999.9999999997,"duration":800,"noteNumber":60,"velocity":80,"programNumber":29},{"time":295999.9999999997,"duration":320,"noteNumber":60,"velocity":80,"programNumber":29},{"time":296799.9999999997,"duration":160,"noteNumber":72,"velocity":80,"programNumber":29},{"time":296999.9999999997,"duration":160,"noteNumber":74,"velocity":80,"programNumber":29},{"time":297199.9999999997,"duration":160,"noteNumber":75,"velocity":80,"programNumber":29},{"time":297399.9999999997,"duration":160,"noteNumber":77,"velocity":80,"programNumber":29},{"time":297599.9999999997,"duration":320,"noteNumber":79,"velocity":80,"programNumber":29},{"time":297999.9999999997,"duration":160,"noteNumber":72,"velocity":80,"programNumber":29},{"time":298199.9999999997,"duration":800,"noteNumber":72,"velocity":80,"programNumber":29},{"time":298999.9999999997,"duration":160,"noteNumber":70,"velocity":80,"programNumber":29},{"time":299199.9999999997,"duration":160,"noteNumber":72,"velocity":80,"programNumber":29},{"time":299399.9999999997,"duration":480,"noteNumber":70,"velocity":80,"programNumber":29},{"time":299999.9999999997,"duration":160,"noteNumber":60,"velocity":80,"programNumber":29},{"time":300199.9999999997,"duration":160,"noteNumber":62,"velocity":80,"programNumber":29},{"time":300399.9999999997,"duration":160,"noteNumber":63,"velocity":80,"programNumber":29},{"time":300599.9999999997,"duration":160,"noteNumber":65,"velocity":80,"programNumber":29},{"time":300799.9999999997,"duration":160,"noteNumber":67,"velocity":80,"programNumber":29},{"time":301199.9999999997,"duration":160,"noteNumber":60,"velocity":80,"programNumber":29},{"time":301399.9999999997,"duration":800,"noteNumber":60,"velocity":80,"programNumber":29},{"time":302399.9999999997,"duration":320,"noteNumber":60,"velocity":80,"programNumber":29},{"time":303199.9999999997,"duration":160,"noteNumber":72,"velocity":80,"programNumber":29},{"time":303399.9999999997,"duration":160,"noteNumber":74,"velocity":80,"programNumber":29},{"time":303599.9999999997,"duration":160,"noteNumber":75,"velocity":80,"programNumber":29},{"time":303799.9999999997,"duration":160,"noteNumber":77,"velocity":80,"programNumber":29},{"time":303999.9999999997,"duration":640,"noteNumber":77,"velocity":80,"programNumber":29},{"time":304799.9999999997,"duration":160,"noteNumber":82,"velocity":80,"programNumber":29},{"time":304999.9999999997,"duration":320,"noteNumber":77,"velocity":80,"programNumber":29},{"time":305399.9999999997,"duration":160,"noteNumber":77,"velocity":80,"programNumber":29},{"time":305799.9999999997,"duration":160,"noteNumber":82,"velocity":80,"programNumber":29},{"time":305999.9999999997,"duration":160,"noteNumber":82,"velocity":80,"programNumber":29},{"time":306199.9999999997,"duration":160,"noteNumber":82,"velocity":80,"programNumber":29},{"time":306399.9999999997,"duration":160,"noteNumber":82,"velocity":80,"programNumber":29},{"time":306599.9999999997,"duration":160,"noteNumber":82,"velocity":80,"programNumber":29},{"time":306799.9999999997,"duration":160,"noteNumber":82,"velocity":80,"programNumber":29},{"time":306999.9999999997,"duration":160,"noteNumber":82,"velocity":80,"programNumber":29},{"time":307199.9999999997,"duration":160,"noteNumber":77,"velocity":80,"programNumber":29},{"time":307399.9999999997,"duration":160,"noteNumber":82,"velocity":80,"programNumber":29},{"time":307599.9999999997,"duration":160,"noteNumber":82,"velocity":80,"programNumber":29},{"time":307799.9999999997,"duration":160,"noteNumber":77,"velocity":80,"programNumber":29},{"time":307999.9999999997,"duration":160,"noteNumber":82,"velocity":80,"programNumber":29},{"time":308199.9999999997,"duration":160,"noteNumber":82,"velocity":80,"programNumber":29},{"time":308399.9999999997,"duration":160,"noteNumber":77,"velocity":80,"programNumber":29},{"time":308599.9999999997,"duration":160,"noteNumber":82,"velocity":80,"programNumber":29},{"time":308799.9999999997,"duration":160,"noteNumber":82,"velocity":80,"programNumber":29},{"time":308999.9999999997,"duration":320,"noteNumber":77,"velocity":80,"programNumber":29},{"time":309399.9999999997,"duration":160,"noteNumber":82,"velocity":80,"programNumber":29},{"time":309599.9999999997,"duration":160,"noteNumber":77,"velocity":80,"programNumber":29},{"time":309799.9999999997,"duration":160,"noteNumber":82,"velocity":80,"programNumber":29},{"time":309999.9999999997,"duration":160,"noteNumber":82,"velocity":80,"programNumber":29},{"time":310199.9999999997,"duration":160,"noteNumber":77,"velocity":80,"programNumber":29},{"time":310399.9999999997,"duration":160,"noteNumber":82,"velocity":80,"programNumber":29},{"time":310599.9999999997,"duration":160,"noteNumber":82,"velocity":80,"programNumber":29},{"time":310799.9999999997,"duration":160,"noteNumber":77,"velocity":80,"programNumber":29},{"time":310999.9999999997,"duration":160,"noteNumber":82,"velocity":80,"programNumber":29},{"time":311199.9999999997,"duration":160,"noteNumber":82,"velocity":80,"programNumber":29},{"time":311399.9999999997,"duration":160,"noteNumber":77,"velocity":80,"programNumber":29},{"time":311599.9999999997,"duration":160,"noteNumber":82,"velocity":80,"programNumber":29},{"time":311799.9999999997,"duration":160,"noteNumber":82,"velocity":80,"programNumber":29},{"time":311999.9999999997,"duration":160,"noteNumber":82,"velocity":80,"programNumber":29},{"time":312199.9999999997,"duration":160,"noteNumber":82,"velocity":80,"programNumber":29},{"time":312399.9999999997,"duration":160,"noteNumber":82,"velocity":80,"programNumber":29},{"time":312599.9999999997,"duration":1000,"noteNumber":77,"velocity":80,"programNumber":29},{"time":313599.9999999997,"duration":106.66666666668607,"noteNumber":77,"velocity":80,"programNumber":29},{"time":313733.3333333331,"duration":106.66666666668607,"noteNumber":77,"velocity":80,"programNumber":29},{"time":313866.66666666645,"duration":106.66666666668607,"noteNumber":82,"velocity":80,"programNumber":29},{"time":313999.9999999998,"duration":106.66666666668607,"noteNumber":77,"velocity":80,"programNumber":29},{"time":314133.3333333332,"duration":106.66666666668607,"noteNumber":77,"velocity":80,"programNumber":29},{"time":314266.66666666657,"duration":106.66666666668607,"noteNumber":82,"velocity":80,"programNumber":29},{"time":314399.99999999994,"duration":106.66666666668607,"noteNumber":77,"velocity":80,"programNumber":29},{"time":314533.3333333333,"duration":106.66666666668607,"noteNumber":77,"velocity":80,"programNumber":29},{"time":314666.6666666667,"duration":106.66666666668607,"noteNumber":82,"velocity":80,"programNumber":29},{"time":314800.00000000006,"duration":106.66666666668607,"noteNumber":77,"velocity":80,"programNumber":29},{"time":314933.33333333343,"duration":106.66666666668607,"noteNumber":77,"velocity":80,"programNumber":29},{"time":315066.6666666668,"duration":106.66666666668607,"noteNumber":82,"velocity":80,"programNumber":29},{"time":315200.0000000002,"duration":106.66666666668607,"noteNumber":77,"velocity":80,"programNumber":29},{"time":315333.33333333355,"duration":106.66666666668607,"noteNumber":77,"velocity":80,"programNumber":29},{"time":315466.6666666669,"duration":106.66666666668607,"noteNumber":82,"velocity":80,"programNumber":29},{"time":315600.0000000003,"duration":106.66666666668607,"noteNumber":77,"velocity":80,"programNumber":29},{"time":315733.33333333366,"duration":106.66666666668607,"noteNumber":77,"velocity":80,"programNumber":29},{"time":315866.66666666704,"duration":106.66666666668607,"noteNumber":82,"velocity":80,"programNumber":29},{"time":316000.0000000004,"duration":106.66666666668607,"noteNumber":77,"velocity":80,"programNumber":29},{"time":316133.3333333338,"duration":106.66666666668607,"noteNumber":77,"velocity":80,"programNumber":29},{"time":316266.66666666715,"duration":106.66666666668607,"noteNumber":82,"velocity":80,"programNumber":29},{"time":316400.0000000005,"duration":106.66666666668607,"noteNumber":77,"velocity":80,"programNumber":29},{"time":316533.3333333339,"duration":106.66666666668607,"noteNumber":77,"velocity":80,"programNumber":29},{"time":316666.66666666727,"duration":106.66666666668607,"noteNumber":82,"velocity":80,"programNumber":29},{"time":316800.00000000064,"duration":106.66666666668607,"noteNumber":77,"velocity":80,"programNumber":29},{"time":316933.333333334,"duration":106.66666666668607,"noteNumber":77,"velocity":80,"programNumber":29},{"time":317066.6666666674,"duration":106.66666666668607,"noteNumber":82,"velocity":80,"programNumber":29},{"time":317200.00000000076,"duration":640,"noteNumber":77,"velocity":80,"programNumber":29},{"time":318600.00000000076,"duration":480,"noteNumber":75,"velocity":80,"programNumber":29},{"time":319200.00000000076,"duration":160,"noteNumber":72,"velocity":80,"programNumber":29},{"time":319400.00000000076,"duration":160,"noteNumber":74,"velocity":80,"programNumber":29},{"time":319600.00000000076,"duration":160,"noteNumber":75,"velocity":80,"programNumber":29},{"time":319800.00000000076,"duration":160,"noteNumber":77,"velocity":80,"programNumber":29},{"time":320000.00000000076,"duration":320,"noteNumber":77,"velocity":80,"programNumber":29},{"time":320600.00000000076,"duration":160,"noteNumber":72,"velocity":80,"programNumber":29},{"time":320800.00000000076,"duration":640,"noteNumber":72,"velocity":80,"programNumber":29},{"time":321600.00000000076,"duration":640,"noteNumber":72,"velocity":80,"programNumber":29},{"time":322400.00000000076,"duration":160,"noteNumber":60,"velocity":80,"programNumber":29},{"time":322600.00000000076,"duration":160,"noteNumber":62,"velocity":80,"programNumber":29},{"time":322800.00000000076,"duration":160,"noteNumber":63,"velocity":80,"programNumber":29},{"time":323000.00000000076,"duration":160,"noteNumber":65,"velocity":80,"programNumber":29},{"time":323200.00000000076,"duration":160,"noteNumber":67,"velocity":80,"programNumber":29},{"time":323400.00000000076,"duration":160,"noteNumber":60,"velocity":80,"programNumber":29},{"time":323600.00000000076,"duration":2798.333333333314,"noteNumber":60,"velocity":80,"programNumber":29}]]}