{"tracks":[[{"time":1901.4074999999996,"duration":211.26750000000015,"noteNumber":52,"velocity":76,"programNumber":25},{"time":2112.6749999999997,"duration":211.26749999999993,"noteNumber":57,"velocity":75,"programNumber":25},{"time":1690.1399999999999,"duration":633.8024999999998,"noteNumber":45,"velocity":76,"programNumber":25},{"time":2323.9424999999997,"duration":422.53499999999985,"noteNumber":55,"velocity":100,"programNumber":25},{"time":2746.4774999999995,"duration":211.26749999999993,"noteNumber":50,"velocity":74,"programNumber":25},{"time":2957.7449999999994,"duration":211.26749999999993,"noteNumber":52,"velocity":73,"programNumber":25},{"time":2535.2099999999996,"duration":633.8024999999998,"noteNumber":43,"velocity":74,"programNumber":25},{"time":3169.0124999999994,"duration":422.53499999999985,"noteNumber":55,"velocity":100,"programNumber":25},{"time":3591.547499999999,"duration":211.26749999999993,"noteNumber":50,"velocity":72,"programNumber":25},{"time":3802.814999999999,"duration":211.26749999999993,"noteNumber":52,"velocity":71,"programNumber":25},{"time":3380.2799999999993,"duration":633.8024999999998,"noteNumber":41,"velocity":72,"programNumber":25},{"time":4436.617499999999,"duration":211.26749999999993,"noteNumber":50,"velocity":70,"programNumber":25},{"time":4014.082499999999,"duration":633.8025000000002,"noteNumber":55,"velocity":85,"programNumber":25},{"time":4647.884999999999,"duration":211.26749999999993,"noteNumber":52,"velocity":69,"programNumber":25},{"time":4225.349999999999,"duration":633.8024999999998,"noteNumber":43,"velocity":70,"programNumber":25},{"time":4859.152499999999,"duration":422.53499999999985,"noteNumber":55,"velocity":75,"programNumber":25},{"time":5281.687499999999,"duration":211.26749999999993,"noteNumber":52,"velocity":67,"programNumber":25},{"time":5492.954999999999,"duration":211.26749999999993,"noteNumber":57,"velocity":67,"programNumber":25},{"time":5070.419999999999,"duration":633.8024999999998,"noteNumber":45,"velocity":68,"programNumber":25},{"time":6126.757499999999,"duration":211.26749999999993,"noteNumber":50,"velocity":65,"programNumber":25},{"time":5704.222499999999,"duration":633.8024999999998,"noteNumber":55,"velocity":100,"programNumber":25},{"time":6338.024999999999,"duration":211.26749999999993,"noteNumber":52,"velocity":65,"programNumber":25},{"time":5915.489999999999,"duration":633.8024999999998,"noteNumber":43,"velocity":66,"programNumber":25},{"time":6971.8274999999985,"duration":211.26749999999993,"noteNumber":50,"velocity":63,"programNumber":25},{"time":6549.292499999999,"duration":633.8024999999998,"noteNumber":55,"velocity":100,"programNumber":25},{"time":7183.094999999998,"duration":211.26749999999993,"noteNumber":52,"velocity":63,"programNumber":25},{"time":6760.559999999999,"duration":633.8024999999998,"noteNumber":41,"velocity":64,"programNumber":25},{"time":7394.362499999998,"duration":422.53499999999985,"noteNumber":55,"velocity":85,"programNumber":25},{"time":7816.897499999998,"duration":211.26749999999993,"noteNumber":50,"velocity":61,"programNumber":25},{"time":8028.164999999998,"duration":211.26750000000084,"noteNumber":52,"velocity":61,"programNumber":25},{"time":7605.629999999998,"duration":633.8025000000007,"noteNumber":43,"velocity":75,"programNumber":25},{"time":8239.432499999999,"duration":211.26749999999993,"noteNumber":55,"velocity":100,"programNumber":25},{"time":8679.573124999999,"duration":211.26749999999993,"noteNumber":52,"velocity":67,"programNumber":25},{"time":8890.840624999999,"duration":211.26749999999993,"noteNumber":57,"velocity":67,"programNumber":25},{"time":8468.305624999999,"duration":633.8024999999998,"noteNumber":45,"velocity":68,"programNumber":25},{"time":9524.643124999999,"duration":211.26749999999993,"noteNumber":50,"velocity":65,"programNumber":25},{"time":9102.108124999999,"duration":633.8024999999998,"noteNumber":55,"velocity":100,"programNumber":25},{"time":9735.910624999999,"duration":211.26749999999993,"noteNumber":52,"velocity":65,"programNumber":25},{"time":9313.375624999999,"duration":633.8024999999998,"noteNumber":43,"velocity":66,"programNumber":25},{"time":10369.713124999998,"duration":211.26749999999993,"noteNumber":50,"velocity":63,"programNumber":25},{"time":9947.178124999999,"duration":633.8024999999998,"noteNumber":55,"velocity":100,"programNumber":25},{"time":10580.980624999998,"duration":211.26749999999993,"noteNumber":52,"velocity":63,"programNumber":25},{"time":10158.445624999998,"duration":633.8024999999998,"noteNumber":41,"velocity":64,"programNumber":25},{"time":10792.248124999998,"duration":422.53499999999985,"noteNumber":55,"velocity":85,"programNumber":25},{"time":11214.783124999998,"duration":211.26749999999993,"noteNumber":50,"velocity":61,"programNumber":25},{"time":11426.050624999998,"duration":211.26749999999993,"noteNumber":52,"velocity":61,"programNumber":25},{"time":11003.515624999998,"duration":633.8024999999998,"noteNumber":43,"velocity":75,"programNumber":25},{"time":11637.318124999998,"duration":211.26749999999993,"noteNumber":55,"velocity":100,"programNumber":25},{"time":12059.853124999998,"duration":211.26749999999993,"noteNumber":52,"velocity":67,"programNumber":25},{"time":12271.120624999998,"duration":211.26749999999993,"noteNumber":57,"velocity":67,"programNumber":25},{"time":11848.585624999998,"duration":633.8024999999998,"noteNumber":45,"velocity":68,"programNumber":25},{"time":12904.923124999998,"duration":211.26749999999993,"noteNumber":50,"velocity":65,"programNumber":25},{"time":12482.388124999998,"duration":633.8024999999998,"noteNumber":55,"velocity":100,"programNumber":25},{"time":13116.190624999997,"duration":211.26749999999993,"noteNumber":52,"velocity":65,"programNumber":25},{"time":12693.655624999998,"duration":633.8024999999998,"noteNumber":43,"velocity":66,"programNumber":25},{"time":13749.993124999997,"duration":211.26749999999993,"noteNumber":50,"velocity":63,"programNumber":25},{"time":13327.458124999997,"duration":633.8024999999998,"noteNumber":55,"velocity":100,"programNumber":25},{"time":13961.260624999997,"duration":211.26749999999993,"noteNumber":52,"velocity":63,"programNumber":25},{"time":13538.725624999997,"duration":633.8024999999998,"noteNumber":41,"velocity":64,"programNumber":25},{"time":14172.528124999997,"duration":422.53499999999985,"noteNumber":55,"velocity":85,"programNumber":25},{"time":14595.063124999997,"duration":211.26749999999993,"noteNumber":50,"velocity":61,"programNumber":25},{"time":14806.330624999997,"duration":211.26749999999993,"noteNumber":52,"velocity":61,"programNumber":25},{"time":14383.795624999997,"duration":633.8024999999998,"noteNumber":43,"velocity":75,"programNumber":25},{"time":15017.598124999997,"duration":211.26749999999993,"noteNumber":55,"velocity":100,"programNumber":25},{"time":15440.133124999997,"duration":211.26749999999993,"noteNumber":52,"velocity":67,"programNumber":25},{"time":15651.400624999997,"duration":211.26749999999993,"noteNumber":57,"velocity":67,"programNumber":25},{"time":15228.865624999997,"duration":633.8024999999998,"noteNumber":45,"velocity":68,"programNumber":25},{"time":16285.203124999996,"duration":211.26750000000175,"noteNumber":50,"velocity":65,"programNumber":25},{"time":15862.668124999997,"duration":633.8025000000016,"noteNumber":55,"velocity":100,"programNumber":25},{"time":16496.470624999998,"duration":211.26750000000175,"noteNumber":52,"velocity":65,"programNumber":25},{"time":16073.935624999996,"duration":633.8025000000034,"noteNumber":43,"velocity":66,"programNumber":25},{"time":17130.273125000003,"duration":211.26750000000175,"noteNumber":50,"velocity":63,"programNumber":25},{"time":16707.738125,"duration":633.8025000000052,"noteNumber":55,"velocity":100,"programNumber":25},{"time":17341.540625000005,"duration":211.26750000000175,"noteNumber":52,"velocity":63,"programNumber":25},{"time":16919.005625,"duration":633.8025000000052,"noteNumber":41,"velocity":64,"programNumber":25},{"time":17552.808125000007,"duration":422.5350000000035,"noteNumber":55,"velocity":85,"programNumber":25},{"time":17975.34312500001,"duration":211.26750000000175,"noteNumber":50,"velocity":61,"programNumber":25},{"time":18186.610625000012,"duration":211.26750000000175,"noteNumber":52,"velocity":61,"programNumber":25},{"time":17764.07562500001,"duration":633.8025000000052,"noteNumber":43,"velocity":75,"programNumber":25},{"time":18397.878125000014,"duration":211.26750000000175,"noteNumber":55,"velocity":100,"programNumber":25},{"time":18820.413125000017,"duration":211.26750000000175,"noteNumber":52,"velocity":67,"programNumber":25},{"time":19031.68062500002,"duration":211.26750000000175,"noteNumber":57,"velocity":67,"programNumber":25},{"time":18609.145625000016,"duration":633.8025000000052,"noteNumber":45,"velocity":68,"programNumber":25},{"time":19665.483125000024,"duration":211.26750000000175,"noteNumber":50,"velocity":65,"programNumber":25},{"time":19242.94812500002,"duration":633.8025000000052,"noteNumber":55,"velocity":100,"programNumber":25},{"time":19876.750625000026,"duration":211.26750000000175,"noteNumber":52,"velocity":65,"programNumber":25},{"time":19454.215625000023,"duration":633.8025000000052,"noteNumber":43,"velocity":66,"programNumber":25},{"time":20510.55312500003,"duration":211.26750000000175,"noteNumber":50,"velocity":63,"programNumber":25},{"time":20088.018125000028,"duration":633.8025000000052,"noteNumber":55,"velocity":100,"programNumber":25},{"time":20721.820625000033,"duration":211.26750000000175,"noteNumber":52,"velocity":63,"programNumber":25},{"time":20299.28562500003,"duration":633.8025000000052,"noteNumber":41,"velocity":64,"programNumber":25},{"time":20933.088125000035,"duration":422.5350000000035,"noteNumber":55,"velocity":85,"programNumber":25},{"time":21355.62312500004,"duration":211.26750000000175,"noteNumber":50,"velocity":61,"programNumber":25},{"time":21566.89062500004,"duration":211.26750000000175,"noteNumber":52,"velocity":61,"programNumber":25},{"time":21144.355625000037,"duration":633.8025000000052,"noteNumber":43,"velocity":75,"programNumber":25},{"time":21778.15812500004,"duration":211.26750000000175,"noteNumber":55,"velocity":100,"programNumber":25},{"time":22200.693125000045,"duration":211.26750000000175,"noteNumber":52,"velocity":67,"programNumber":25},{"time":22411.960625000047,"duration":211.26750000000175,"noteNumber":57,"velocity":67,"programNumber":25},{"time":21989.425625000044,"duration":633.8025000000052,"noteNumber":45,"velocity":68,"programNumber":25},{"time":23045.763125000052,"duration":211.26750000000175,"noteNumber":50,"velocity":65,"programNumber":25},{"time":22623.22812500005,"duration":633.8025000000052,"noteNumber":55,"velocity":100,"programNumber":25},{"time":23257.030625000054,"duration":211.26750000000175,"noteNumber":52,"velocity":65,"programNumber":25},{"time":22834.49562500005,"duration":633.8025000000052,"noteNumber":43,"velocity":66,"programNumber":25},{"time":23890.83312500006,"duration":211.26750000000175,"noteNumber":50,"velocity":63,"programNumber":25},{"time":23468.298125000056,"duration":633.8025000000052,"noteNumber":55,"velocity":100,"programNumber":25},{"time":24102.10062500006,"duration":211.26750000000175,"noteNumber":52,"velocity":63,"programNumber":25},{"time":23679.565625000057,"duration":633.8025000000052,"noteNumber":41,"velocity":64,"programNumber":25},{"time":24313.368125000063,"duration":422.5350000000035,"noteNumber":55,"velocity":85,"programNumber":25},{"time":24735.903125000066,"duration":211.26750000000175,"noteNumber":50,"velocity":61,"programNumber":25},{"time":24947.170625000068,"duration":211.26750000000175,"noteNumber":52,"velocity":61,"programNumber":25},{"time":24524.635625000064,"duration":633.8025000000052,"noteNumber":43,"velocity":75,"programNumber":25},{"time":25158.43812500007,"duration":211.26750000000175,"noteNumber":55,"velocity":100,"programNumber":25},{"time":25580.973125000073,"duration":211.26750000000175,"noteNumber":52,"velocity":67,"programNumber":25},{"time":25792.240625000075,"duration":211.26750000000175,"noteNumber":57,"velocity":67,"programNumber":25},{"time":25369.70562500007,"duration":633.8025000000052,"noteNumber":45,"velocity":68,"programNumber":25},{"time":26426.04312500008,"duration":211.26750000000175,"noteNumber":50,"velocity":65,"programNumber":25},{"time":26003.508125000077,"duration":633.8025000000052,"noteNumber":55,"velocity":100,"programNumber":25},{"time":26637.310625000082,"duration":211.26750000000175,"noteNumber":52,"velocity":65,"programNumber":25},{"time":26214.77562500008,"duration":633.8025000000052,"noteNumber":43,"velocity":66,"programNumber":25},{"time":27271.113125000087,"duration":211.26750000000175,"noteNumber":50,"velocity":63,"programNumber":25},{"time":26848.578125000084,"duration":633.8025000000052,"noteNumber":55,"velocity":100,"programNumber":25},{"time":27482.38062500009,"duration":211.26750000000175,"noteNumber":52,"velocity":63,"programNumber":25},{"time":27059.845625000085,"duration":633.8025000000052,"noteNumber":41,"velocity":64,"programNumber":25},{"time":27693.64812500009,"duration":422.5350000000035,"noteNumber":55,"velocity":85,"programNumber":25},{"time":28116.183125000094,"duration":211.26750000000175,"noteNumber":50,"velocity":61,"programNumber":25},{"time":28327.450625000096,"duration":211.26750000000175,"noteNumber":52,"velocity":61,"programNumber":25},{"time":27904.915625000092,"duration":633.8025000000052,"noteNumber":43,"velocity":75,"programNumber":25},{"time":28538.718125000098,"duration":211.26750000000175,"noteNumber":55,"velocity":100,"programNumber":25},{"time":28732.3800000001,"duration":845.0699999999997,"noteNumber":41,"velocity":75,"programNumber":25},{"time":28732.3800000001,"duration":845.0699999999997,"noteNumber":48,"velocity":75,"programNumber":25},{"time":29577.4500000001,"duration":633.8025000000016,"noteNumber":43,"velocity":76,"programNumber":25},{"time":29577.4500000001,"duration":633.8025000000016,"noteNumber":50,"velocity":76,"programNumber":25},{"time":30211.2525000001,"duration":1901.4075000000012,"noteNumber":45,"velocity":77,"programNumber":25},{"time":30211.2525000001,"duration":1901.4075000000012,"noteNumber":52,"velocity":77,"programNumber":25},{"time":32112.6600000001,"duration":845.0700000000033,"noteNumber":41,"velocity":80,"programNumber":25},{"time":32112.6600000001,"duration":845.0700000000033,"noteNumber":48,"velocity":80,"programNumber":25},{"time":32957.730000000105,"duration":845.0699999999997,"noteNumber":40,"velocity":81,"programNumber":25},{"time":32957.730000000105,"duration":845.0699999999997,"noteNumber":47,"velocity":81,"programNumber":25},{"time":33802.800000000105,"duration":845.0699999999997,"noteNumber":52,"velocity":82,"programNumber":25},{"time":33802.800000000105,"duration":845.0699999999997,"noteNumber":45,"velocity":82,"programNumber":25},{"time":34647.870000000104,"duration":845.0699999999997,"noteNumber":50,"velocity":83,"programNumber":25},{"time":34647.870000000104,"duration":845.0699999999997,"noteNumber":43,"velocity":83,"programNumber":25},{"time":35704.207500000106,"duration":211.26750000000175,"noteNumber":52,"velocity":67,"programNumber":25},{"time":35915.47500000011,"duration":211.26750000000175,"noteNumber":57,"velocity":67,"programNumber":25},{"time":35492.940000000104,"duration":633.8025000000052,"noteNumber":41,"velocity":68,"programNumber":25},{"time":36549.27750000011,"duration":211.26750000000175,"noteNumber":50,"velocity":65,"programNumber":25},{"time":36126.74250000011,"duration":633.8025000000052,"noteNumber":55,"velocity":100,"programNumber":25},{"time":36760.545000000115,"duration":211.26750000000175,"noteNumber":52,"velocity":65,"programNumber":25},{"time":36338.01000000011,"duration":633.8025000000052,"noteNumber":43,"velocity":66,"programNumber":25},{"time":37394.34750000012,"duration":211.26750000000175,"noteNumber":52,"velocity":67,"programNumber":25},{"time":36971.81250000012,"duration":633.8025000000052,"noteNumber":55,"velocity":100,"programNumber":25},{"time":37605.61500000012,"duration":211.26750000000175,"noteNumber":57,"velocity":67,"programNumber":25},{"time":37183.08000000012,"duration":633.8025000000052,"noteNumber":45,"velocity":68,"programNumber":25},{"time":38239.41750000013,"duration":211.26750000000175,"noteNumber":50,"velocity":65,"programNumber":25},{"time":37816.88250000012,"duration":633.8025000000052,"noteNumber":55,"velocity":100,"programNumber":25},{"time":38450.68500000013,"duration":211.26750000000175,"noteNumber":52,"velocity":65,"programNumber":25},{"time":38028.150000000125,"duration":633.8025000000052,"noteNumber":43,"velocity":66,"programNumber":25},{"time":39084.487500000134,"duration":211.26750000000175,"noteNumber":50,"velocity":63,"programNumber":25},{"time":38661.95250000013,"duration":633.8025000000052,"noteNumber":55,"velocity":100,"programNumber":25},{"time":39295.755000000136,"duration":211.26750000000175,"noteNumber":52,"velocity":63,"programNumber":25},{"time":38873.22000000013,"duration":633.8025000000052,"noteNumber":41,"velocity":64,"programNumber":25},{"time":39507.02250000014,"duration":422.5350000000035,"noteNumber":55,"velocity":85,"programNumber":25},{"time":39929.55750000014,"duration":211.26750000000175,"noteNumber":50,"velocity":61,"programNumber":25},{"time":40140.82500000014,"duration":211.26750000000175,"noteNumber":52,"velocity":61,"programNumber":25},{"time":39718.29000000014,"duration":633.8025000000052,"noteNumber":43,"velocity":75,"programNumber":25},{"time":40352.092500000144,"duration":211.26750000000175,"noteNumber":55,"velocity":100,"programNumber":25},{"time":40774.62750000015,"duration":211.26750000000175,"noteNumber":52,"velocity":67,"programNumber":25},{"time":40985.89500000015,"duration":211.26750000000175,"noteNumber":57,"velocity":67,"programNumber":25},{"time":40563.360000000146,"duration":633.8025000000052,"noteNumber":45,"velocity":68,"programNumber":25},{"time":41619.697500000155,"duration":211.26750000000175,"noteNumber":50,"velocity":65,"programNumber":25},{"time":41197.16250000015,"duration":633.8025000000052,"noteNumber":55,"velocity":100,"programNumber":25},{"time":41830.96500000016,"duration":211.26750000000175,"noteNumber":52,"velocity":65,"programNumber":25},{"time":41408.43000000015,"duration":633.8025000000052,"noteNumber":43,"velocity":66,"programNumber":25},{"time":42464.76750000016,"duration":211.26750000000175,"noteNumber":50,"velocity":63,"programNumber":25},{"time":42042.23250000016,"duration":633.8025000000052,"noteNumber":55,"velocity":100,"programNumber":25},{"time":42676.03500000016,"duration":211.26750000000175,"noteNumber":52,"velocity":63,"programNumber":25},{"time":42253.50000000016,"duration":633.8025000000052,"noteNumber":41,"velocity":64,"programNumber":25},{"time":42887.302500000165,"duration":422.5350000000035,"noteNumber":55,"velocity":85,"programNumber":25},{"time":43309.83750000017,"duration":211.26750000000175,"noteNumber":50,"velocity":61,"programNumber":25},{"time":43521.10500000017,"duration":211.26750000000175,"noteNumber":52,"velocity":61,"programNumber":25},{"time":43098.57000000017,"duration":633.8025000000052,"noteNumber":43,"velocity":75,"programNumber":25},{"time":43732.37250000017,"duration":211.26750000000175,"noteNumber":55,"velocity":100,"programNumber":25},{"time":44154.907500000176,"duration":211.26750000000175,"noteNumber":52,"velocity":67,"programNumber":25},{"time":44366.17500000018,"duration":211.26750000000175,"noteNumber":57,"velocity":67,"programNumber":25},{"time":43943.640000000174,"duration":633.8025000000052,"noteNumber":45,"velocity":68,"programNumber":25},{"time":44999.97750000018,"duration":211.26750000000175,"noteNumber":50,"velocity":65,"programNumber":25},{"time":44577.44250000018,"duration":633.8025000000052,"noteNumber":55,"velocity":100,"programNumber":25},{"time":45211.245000000185,"duration":211.26750000000175,"noteNumber":52,"velocity":65,"programNumber":25},{"time":44788.71000000018,"duration":633.8025000000052,"noteNumber":43,"velocity":66,"programNumber":25},{"time":45845.04750000019,"duration":211.26750000000175,"noteNumber":50,"velocity":63,"programNumber":25},{"time":45422.512500000186,"duration":633.8025000000052,"noteNumber":55,"velocity":100,"programNumber":25},{"time":46056.31500000019,"duration":211.26750000000175,"noteNumber":52,"velocity":63,"programNumber":25},{"time":45633.78000000019,"duration":633.8025000000052,"noteNumber":41,"velocity":64,"programNumber":25},{"time":46267.58250000019,"duration":422.5350000000035,"noteNumber":55,"velocity":85,"programNumber":25},{"time":46690.1175000002,"duration":211.26750000000175,"noteNumber":50,"velocity":61,"programNumber":25},{"time":46901.3850000002,"duration":211.26750000000175,"noteNumber":52,"velocity":61,"programNumber":25},{"time":46478.850000000195,"duration":633.8025000000052,"noteNumber":43,"velocity":75,"programNumber":25},{"time":47112.6525000002,"duration":211.26750000000175,"noteNumber":55,"velocity":100,"programNumber":25},{"time":47535.187500000204,"duration":211.26750000000175,"noteNumber":52,"velocity":67,"programNumber":25},{"time":47746.455000000205,"duration":211.26750000000175,"noteNumber":57,"velocity":67,"programNumber":25},{"time":47323.9200000002,"duration":633.8025000000052,"noteNumber":45,"velocity":68,"programNumber":25},{"time":48380.25750000021,"duration":211.26750000000175,"noteNumber":50,"velocity":65,"programNumber":25},{"time":47957.72250000021,"duration":633.8025000000052,"noteNumber":55,"velocity":100,"programNumber":25},{"time":48591.52500000021,"duration":211.26750000000175,"noteNumber":52,"velocity":65,"programNumber":25},{"time":48168.99000000021,"duration":633.8025000000052,"noteNumber":43,"velocity":66,"programNumber":25},{"time":49225.32750000022,"duration":211.26750000000175,"noteNumber":50,"velocity":63,"programNumber":25},{"time":48802.792500000214,"duration":633.8025000000052,"noteNumber":55,"velocity":100,"programNumber":25},{"time":49436.59500000022,"duration":211.26750000000175,"noteNumber":52,"velocity":63,"programNumber":25},{"time":49014.060000000216,"duration":633.8025000000052,"noteNumber":41,"velocity":64,"programNumber":25},{"time":49647.86250000022,"duration":422.5350000000035,"noteNumber":55,"velocity":85,"programNumber":25},{"time":50070.397500000225,"duration":211.26750000000175,"noteNumber":50,"velocity":61,"programNumber":25},{"time":50281.66500000023,"duration":211.26750000000175,"noteNumber":52,"velocity":61,"programNumber":25},{"time":49859.13000000022,"duration":633.8025000000052,"noteNumber":43,"velocity":75,"programNumber":25},{"time":50492.93250000023,"duration":211.26750000000175,"noteNumber":55,"velocity":100,"programNumber":25},{"time":50915.46750000023,"duration":211.26750000000175,"noteNumber":52,"velocity":67,"programNumber":25},{"time":51126.73500000023,"duration":211.26750000000175,"noteNumber":57,"velocity":67,"programNumber":25},{"time":50704.20000000023,"duration":633.8025000000052,"noteNumber":45,"velocity":68,"programNumber":25},{"time":51760.53750000024,"duration":211.26750000000175,"noteNumber":50,"velocity":65,"programNumber":25},{"time":51338.002500000235,"duration":633.8025000000052,"noteNumber":55,"velocity":100,"programNumber":25},{"time":51971.80500000024,"duration":211.26750000000175,"noteNumber":52,"velocity":65,"programNumber":25},{"time":51549.27000000024,"duration":633.8025000000052,"noteNumber":43,"velocity":66,"programNumber":25},{"time":52605.607500000246,"duration":211.26750000000175,"noteNumber":50,"velocity":63,"programNumber":25},{"time":52183.07250000024,"duration":633.8025000000052,"noteNumber":55,"velocity":100,"programNumber":25},{"time":52816.87500000025,"duration":211.26750000000175,"noteNumber":52,"velocity":63,"programNumber":25},{"time":52394.340000000244,"duration":633.8025000000052,"noteNumber":41,"velocity":64,"programNumber":25},{"time":53028.14250000025,"duration":422.5350000000035,"noteNumber":55,"velocity":85,"programNumber":25},{"time":53450.67750000025,"duration":211.26750000000175,"noteNumber":50,"velocity":61,"programNumber":25},{"time":53661.945000000254,"duration":211.26750000000175,"noteNumber":52,"velocity":61,"programNumber":25},{"time":53239.41000000025,"duration":633.8025000000052,"noteNumber":43,"velocity":75,"programNumber":25},{"time":53873.212500000256,"duration":211.26750000000175,"noteNumber":55,"velocity":100,"programNumber":25},{"time":54295.74750000026,"duration":211.26750000000175,"noteNumber":52,"velocity":67,"programNumber":25},{"time":54507.01500000026,"duration":211.26750000000175,"noteNumber":57,"velocity":67,"programNumber":25},{"time":54084.48000000026,"duration":633.8025000000052,"noteNumber":45,"velocity":68,"programNumber":25},{"time":55140.81750000027,"duration":211.26750000000175,"noteNumber":50,"velocity":65,"programNumber":25},{"time":54718.28250000026,"duration":633.8025000000052,"noteNumber":55,"velocity":100,"programNumber":25},{"time":55352.08500000027,"duration":211.26750000000175,"noteNumber":52,"velocity":65,"programNumber":25},{"time":54929.550000000265,"duration":633.8025000000052,"noteNumber":43,"velocity":66,"programNumber":25},{"time":55985.88750000027,"duration":211.26750000000175,"noteNumber":50,"velocity":63,"programNumber":25},{"time":55563.35250000027,"duration":633.8025000000052,"noteNumber":55,"velocity":100,"programNumber":25},{"time":56197.155000000275,"duration":211.26750000000175,"noteNumber":52,"velocity":63,"programNumber":25},{"time":55774.62000000027,"duration":633.8025000000052,"noteNumber":41,"velocity":64,"programNumber":25},{"time":56408.42250000028,"duration":422.5350000000035,"noteNumber":55,"velocity":85,"programNumber":25},{"time":56830.95750000028,"duration":211.26750000000175,"noteNumber":50,"velocity":61,"programNumber":25},{"time":57042.22500000028,"duration":211.26750000000175,"noteNumber":52,"velocity":61,"programNumber":25},{"time":56619.69000000028,"duration":633.8025000000052,"noteNumber":43,"velocity":75,"programNumber":25},{"time":57253.492500000284,"duration":211.26750000000175,"noteNumber":55,"velocity":100,"programNumber":25},{"time":57676.02750000029,"duration":211.26750000000175,"noteNumber":52,"velocity":67,"programNumber":25},{"time":57887.29500000029,"duration":211.26750000000175,"noteNumber":57,"velocity":67,"programNumber":25},{"time":57464.760000000286,"duration":633.8025000000052,"noteNumber":45,"velocity":68,"programNumber":25},{"time":58521.097500000295,"duration":211.26750000000175,"noteNumber":50,"velocity":65,"programNumber":25},{"time":58098.56250000029,"duration":633.8025000000052,"noteNumber":55,"velocity":100,"programNumber":25},{"time":58732.365000000296,"duration":211.26750000000175,"noteNumber":52,"velocity":65,"programNumber":25},{"time":58309.83000000029,"duration":633.8025000000052,"noteNumber":43,"velocity":66,"programNumber":25},{"time":59366.1675000003,"duration":211.26750000000175,"noteNumber":50,"velocity":63,"programNumber":25},{"time":58943.6325000003,"duration":633.8025000000052,"noteNumber":55,"velocity":100,"programNumber":25},{"time":59577.4350000003,"duration":211.26750000000175,"noteNumber":52,"velocity":63,"programNumber":25},{"time":59154.9000000003,"duration":633.8025000000052,"noteNumber":41,"velocity":64,"programNumber":25},{"time":59788.702500000305,"duration":422.5350000000035,"noteNumber":55,"velocity":85,"programNumber":25},{"time":60211.23750000031,"duration":211.26750000000175,"noteNumber":50,"velocity":61,"programNumber":25},{"time":60422.50500000031,"duration":211.26750000000175,"noteNumber":52,"velocity":61,"programNumber":25},{"time":59999.97000000031,"duration":633.8025000000052,"noteNumber":43,"velocity":75,"programNumber":25},{"time":60633.77250000031,"duration":211.26750000000175,"noteNumber":55,"velocity":100,"programNumber":25},{"time":61056.307500000315,"duration":211.26750000000175,"noteNumber":52,"velocity":67,"programNumber":25},{"time":61267.57500000032,"duration":211.26750000000175,"noteNumber":57,"velocity":67,"programNumber":25},{"time":60845.040000000314,"duration":633.8025000000052,"noteNumber":45,"velocity":68,"programNumber":25},{"time":61901.37750000032,"duration":211.26750000000175,"noteNumber":50,"velocity":65,"programNumber":25},{"time":61478.84250000032,"duration":633.8025000000052,"noteNumber":55,"velocity":100,"programNumber":25},{"time":62112.645000000324,"duration":211.26750000000175,"noteNumber":52,"velocity":65,"programNumber":25},{"time":61690.11000000032,"duration":633.8025000000052,"noteNumber":43,"velocity":66,"programNumber":25},{"time":62746.44750000033,"duration":211.26750000000175,"noteNumber":50,"velocity":63,"programNumber":25},{"time":62323.912500000326,"duration":633.8025000000052,"noteNumber":55,"velocity":100,"programNumber":25},{"time":62957.71500000033,"duration":211.26750000000175,"noteNumber":52,"velocity":63,"programNumber":25},{"time":62535.18000000033,"duration":633.8025000000052,"noteNumber":41,"velocity":64,"programNumber":25},{"time":63168.98250000033,"duration":422.5350000000035,"noteNumber":55,"velocity":85,"programNumber":25},{"time":63591.51750000034,"duration":211.26750000000175,"noteNumber":50,"velocity":61,"programNumber":25},{"time":63802.78500000034,"duration":211.26750000000175,"noteNumber":52,"velocity":61,"programNumber":25},{"time":63380.250000000335,"duration":633.8025000000052,"noteNumber":43,"velocity":75,"programNumber":25},{"time":64014.05250000034,"duration":211.26750000000175,"noteNumber":55,"velocity":100,"programNumber":25},{"time":64436.58750000034,"duration":211.26750000000175,"noteNumber":52,"velocity":67,"programNumber":25},{"time":64647.855000000345,"duration":211.26750000000175,"noteNumber":57,"velocity":67,"programNumber":25},{"time":64225.32000000034,"duration":633.8025000000052,"noteNumber":45,"velocity":68,"programNumber":25},{"time":65281.65750000035,"duration":211.26750000000175,"noteNumber":50,"velocity":65,"programNumber":25},{"time":64859.12250000035,"duration":633.8025000000052,"noteNumber":55,"velocity":100,"programNumber":25},{"time":65492.92500000035,"duration":211.26750000000175,"noteNumber":52,"velocity":65,"programNumber":25},{"time":65070.39000000035,"duration":633.8025000000052,"noteNumber":43,"velocity":66,"programNumber":25},{"time":66126.72750000036,"duration":211.26750000000175,"noteNumber":50,"velocity":63,"programNumber":25},{"time":65704.19250000035,"duration":633.8025000000052,"noteNumber":55,"velocity":100,"programNumber":25},{"time":66337.99500000036,"duration":211.26750000000175,"noteNumber":52,"velocity":63,"programNumber":25},{"time":65915.46000000036,"duration":633.8025000000052,"noteNumber":41,"velocity":64,"programNumber":25},{"time":66549.26250000036,"duration":422.5350000000035,"noteNumber":55,"velocity":85,"programNumber":25},{"time":66971.79750000036,"duration":211.26750000000175,"noteNumber":50,"velocity":61,"programNumber":25},{"time":67183.06500000037,"duration":211.26750000000175,"noteNumber":52,"velocity":61,"programNumber":25},{"time":66760.53000000036,"duration":633.8025000000052,"noteNumber":43,"velocity":75,"programNumber":25},{"time":67394.33250000037,"duration":211.26750000000175,"noteNumber":55,"velocity":100,"programNumber":25},{"time":67711.23375000036,"duration":105.6337499999936,"noteNumber":48,"velocity":100,"programNumber":25},{"time":67605.60000000037,"duration":1690.1399999999849,"noteNumber":45,"velocity":100,"programNumber":25},{"time":67746.44500000036,"duration":1690.1399999999994,"noteNumber":60,"velocity":100,"programNumber":25},{"time":67816.86750000036,"duration":1690.1399999999994,"noteNumber":57,"velocity":100,"programNumber":25},{"time":71197.14750000034,"duration":211.26750000000175,"noteNumber":52,"velocity":76,"programNumber":25},{"time":71408.41500000034,"duration":211.26750000000175,"noteNumber":57,"velocity":75,"programNumber":25},{"time":70985.88000000035,"duration":633.8024999999907,"noteNumber":45,"velocity":76,"programNumber":25},{"time":71619.68250000034,"duration":422.5350000000035,"noteNumber":55,"velocity":100,"programNumber":25},{"time":72042.21750000035,"duration":211.26750000000175,"noteNumber":50,"velocity":74,"programNumber":25},{"time":72253.48500000035,"duration":211.26750000000175,"noteNumber":52,"velocity":73,"programNumber":25},{"time":71830.95000000035,"duration":633.8025000000052,"noteNumber":43,"velocity":74,"programNumber":25},{"time":72464.75250000035,"duration":422.5350000000035,"noteNumber":55,"velocity":100,"programNumber":25},{"time":72887.28750000036,"duration":211.26750000000175,"noteNumber":50,"velocity":72,"programNumber":25},{"time":73098.55500000036,"duration":211.26750000000175,"noteNumber":52,"velocity":71,"programNumber":25},{"time":72676.02000000035,"duration":633.8025000000052,"noteNumber":41,"velocity":72,"programNumber":25},{"time":73732.35750000036,"duration":211.26750000000175,"noteNumber":50,"velocity":70,"programNumber":25},{"time":73309.82250000036,"duration":633.8025000000052,"noteNumber":55,"velocity":85,"programNumber":25},{"time":73943.62500000036,"duration":211.26750000000175,"noteNumber":52,"velocity":69,"programNumber":25},{"time":73521.09000000036,"duration":633.8025000000052,"noteNumber":43,"velocity":70,"programNumber":25},{"time":74154.89250000037,"duration":422.5350000000035,"noteNumber":55,"velocity":75,"programNumber":25},{"time":74577.42750000037,"duration":211.26750000000175,"noteNumber":52,"velocity":67,"programNumber":25},{"time":74788.69500000037,"duration":211.26750000000175,"noteNumber":57,"velocity":67,"programNumber":25},{"time":74366.16000000037,"duration":633.8025000000052,"noteNumber":45,"velocity":68,"programNumber":25},{"time":75422.49750000038,"duration":211.26750000000175,"noteNumber":50,"velocity":65,"programNumber":25},{"time":74999.96250000037,"duration":633.8025000000052,"noteNumber":55,"velocity":100,"programNumber":25},{"time":75633.76500000038,"duration":211.26750000000175,"noteNumber":52,"velocity":65,"programNumber":25},{"time":75211.23000000037,"duration":633.8025000000052,"noteNumber":43,"velocity":66,"programNumber":25},{"time":76267.56750000038,"duration":211.26750000000175,"noteNumber":50,"velocity":63,"programNumber":25},{"time":75845.03250000038,"duration":633.8025000000052,"noteNumber":55,"velocity":100,"programNumber":25},{"time":76478.83500000038,"duration":211.26750000000175,"noteNumber":52,"velocity":63,"programNumber":25},{"time":76056.30000000038,"duration":633.8025000000052,"noteNumber":41,"velocity":64,"programNumber":25},{"time":76690.10250000039,"duration":422.5350000000035,"noteNumber":55,"velocity":85,"programNumber":25},{"time":77112.63750000039,"duration":211.26750000000175,"noteNumber":50,"velocity":61,"programNumber":25},{"time":77323.90500000039,"duration":211.26750000000175,"noteNumber":52,"velocity":61,"programNumber":25},{"time":76901.37000000039,"duration":633.8025000000052,"noteNumber":43,"velocity":75,"programNumber":25},{"time":77535.1725000004,"duration":211.26750000000175,"noteNumber":55,"velocity":100,"programNumber":25},{"time":77975.3131250004,"duration":211.26750000000175,"noteNumber":52,"velocity":67,"programNumber":25},{"time":78186.5806250004,"duration":211.26750000000175,"noteNumber":57,"velocity":67,"programNumber":25},{"time":77764.04562500039,"duration":633.8025000000052,"noteNumber":45,"velocity":68,"programNumber":25},{"time":78820.3831250004,"duration":211.26750000000175,"noteNumber":50,"velocity":65,"programNumber":25},{"time":78397.8481250004,"duration":633.8025000000052,"noteNumber":55,"velocity":100,"programNumber":25},{"time":79031.6506250004,"duration":211.26750000000175,"noteNumber":52,"velocity":65,"programNumber":25},{"time":78609.1156250004,"duration":633.8025000000052,"noteNumber":43,"velocity":66,"programNumber":25},{"time":79665.45312500041,"duration":211.26750000000175,"noteNumber":50,"velocity":63,"programNumber":25},{"time":79242.9181250004,"duration":633.8025000000052,"noteNumber":55,"velocity":100,"programNumber":25},{"time":79876.72062500041,"duration":211.26750000000175,"noteNumber":52,"velocity":63,"programNumber":25},{"time":79454.1856250004,"duration":633.8025000000052,"noteNumber":41,"velocity":64,"programNumber":25},{"time":80087.98812500041,"duration":422.5350000000035,"noteNumber":55,"velocity":85,"programNumber":25},{"time":80510.52312500041,"duration":211.26750000000175,"noteNumber":50,"velocity":61,"programNumber":25},{"time":80721.79062500042,"duration":211.26750000000175,"noteNumber":52,"velocity":61,"programNumber":25},{"time":80299.25562500041,"duration":633.8025000000052,"noteNumber":43,"velocity":75,"programNumber":25},{"time":80933.05812500042,"duration":211.26750000000175,"noteNumber":55,"velocity":100,"programNumber":25},{"time":81355.59312500042,"duration":211.26750000000175,"noteNumber":52,"velocity":67,"programNumber":25},{"time":81566.86062500042,"duration":211.26750000000175,"noteNumber":57,"velocity":67,"programNumber":25},{"time":81144.32562500042,"duration":633.8025000000052,"noteNumber":45,"velocity":68,"programNumber":25},{"time":82200.66312500043,"duration":211.26750000000175,"noteNumber":50,"velocity":65,"programNumber":25},{"time":81778.12812500042,"duration":633.8025000000052,"noteNumber":55,"velocity":100,"programNumber":25},{"time":82411.93062500043,"duration":211.26750000000175,"noteNumber":52,"velocity":65,"programNumber":25},{"time":81989.39562500043,"duration":633.8025000000052,"noteNumber":43,"velocity":66,"programNumber":25},{"time":83045.73312500044,"duration":211.26750000000175,"noteNumber":50,"velocity":63,"programNumber":25},{"time":82623.19812500043,"duration":633.8025000000052,"noteNumber":55,"velocity":100,"programNumber":25},{"time":83257.00062500044,"duration":211.26750000000175,"noteNumber":52,"velocity":63,"programNumber":25},{"time":82834.46562500043,"duration":633.8025000000052,"noteNumber":41,"velocity":64,"programNumber":25},{"time":83468.26812500044,"duration":422.5350000000035,"noteNumber":55,"velocity":85,"programNumber":25},{"time":83890.80312500044,"duration":211.26750000000175,"noteNumber":50,"velocity":61,"programNumber":25},{"time":84102.07062500044,"duration":211.26750000000175,"noteNumber":52,"velocity":61,"programNumber":25},{"time":83679.53562500044,"duration":633.8025000000052,"noteNumber":43,"velocity":75,"programNumber":25},{"time":84313.33812500045,"duration":211.26750000000175,"noteNumber":55,"velocity":100,"programNumber":25},{"time":84735.87312500045,"duration":211.26750000000175,"noteNumber":52,"velocity":67,"programNumber":25},{"time":84947.14062500045,"duration":211.26750000000175,"noteNumber":57,"velocity":67,"programNumber":25},{"time":84524.60562500045,"duration":633.8025000000052,"noteNumber":45,"velocity":68,"programNumber":25},{"time":85580.94312500046,"duration":211.26750000000175,"noteNumber":50,"velocity":65,"programNumber":25},{"time":85158.40812500045,"duration":633.8025000000052,"noteNumber":55,"velocity":100,"programNumber":25},{"time":85792.21062500046,"duration":211.26750000000175,"noteNumber":52,"velocity":65,"programNumber":25},{"time":85369.67562500045,"duration":633.8025000000052,"noteNumber":43,"velocity":66,"programNumber":25},{"time":86426.01312500046,"duration":211.26750000000175,"noteNumber":50,"velocity":63,"programNumber":25},{"time":86003.47812500046,"duration":633.8025000000052,"noteNumber":55,"velocity":100,"programNumber":25},{"time":86637.28062500047,"duration":211.26750000000175,"noteNumber":52,"velocity":63,"programNumber":25},{"time":86214.74562500046,"duration":633.8025000000052,"noteNumber":41,"velocity":64,"programNumber":25},{"time":86848.54812500047,"duration":422.5350000000035,"noteNumber":55,"velocity":85,"programNumber":25},{"time":87271.08312500047,"duration":211.26750000000175,"noteNumber":50,"velocity":61,"programNumber":25},{"time":87482.35062500047,"duration":211.26750000000175,"noteNumber":52,"velocity":61,"programNumber":25},{"time":87059.81562500047,"duration":633.8025000000052,"noteNumber":43,"velocity":75,"programNumber":25},{"time":87693.61812500047,"duration":211.26750000000175,"noteNumber":55,"velocity":100,"programNumber":25},{"time":88116.15312500048,"duration":211.26750000000175,"noteNumber":52,"velocity":67,"programNumber":25},{"time":88327.42062500048,"duration":211.26750000000175,"noteNumber":57,"velocity":67,"programNumber":25},{"time":87904.88562500048,"duration":633.8025000000052,"noteNumber":45,"velocity":68,"programNumber":25},{"time":88961.22312500048,"duration":211.26750000000175,"noteNumber":50,"velocity":65,"programNumber":25},{"time":88538.68812500048,"duration":633.8025000000052,"noteNumber":55,"velocity":100,"programNumber":25},{"time":89172.49062500049,"duration":211.26750000000175,"noteNumber":52,"velocity":65,"programNumber":25},{"time":88749.95562500048,"duration":633.8025000000052,"noteNumber":43,"velocity":66,"programNumber":25},{"time":89806.29312500049,"duration":211.26750000000175,"noteNumber":50,"velocity":63,"programNumber":25},{"time":89383.75812500049,"duration":633.8025000000052,"noteNumber":55,"velocity":100,"programNumber":25},{"time":90017.5606250005,"duration":211.26750000000175,"noteNumber":52,"velocity":63,"programNumber":25},{"time":89595.02562500049,"duration":633.8025000000052,"noteNumber":41,"velocity":64,"programNumber":25},{"time":90228.8281250005,"duration":422.5350000000035,"noteNumber":55,"velocity":85,"programNumber":25},{"time":90651.3631250005,"duration":211.26750000000175,"noteNumber":50,"velocity":61,"programNumber":25},{"time":90862.6306250005,"duration":211.26750000000175,"noteNumber":52,"velocity":61,"programNumber":25},{"time":90440.0956250005,"duration":633.8025000000052,"noteNumber":43,"velocity":75,"programNumber":25},{"time":91073.8981250005,"duration":211.26750000000175,"noteNumber":55,"velocity":100,"programNumber":25},{"time":91496.4331250005,"duration":211.26750000000175,"noteNumber":52,"velocity":67,"programNumber":25},{"time":91707.7006250005,"duration":211.26750000000175,"noteNumber":57,"velocity":67,"programNumber":25},{"time":91285.1656250005,"duration":633.8025000000052,"noteNumber":45,"velocity":68,"programNumber":25},{"time":92341.50312500051,"duration":211.26750000000175,"noteNumber":50,"velocity":65,"programNumber":25},{"time":91918.96812500051,"duration":633.8025000000052,"noteNumber":55,"velocity":100,"programNumber":25},{"time":92552.77062500051,"duration":211.26750000000175,"noteNumber":52,"velocity":65,"programNumber":25},{"time":92130.23562500051,"duration":633.8025000000052,"noteNumber":43,"velocity":66,"programNumber":25},{"time":93186.57312500052,"duration":211.26750000000175,"noteNumber":50,"velocity":63,"programNumber":25},{"time":92764.03812500052,"duration":633.8025000000052,"noteNumber":55,"velocity":100,"programNumber":25},{"time":93397.84062500052,"duration":211.26750000000175,"noteNumber":52,"velocity":63,"programNumber":25},{"time":92975.30562500052,"duration":633.8025000000052,"noteNumber":41,"velocity":64,"programNumber":25},{"time":93609.10812500052,"duration":422.5350000000035,"noteNumber":55,"velocity":85,"programNumber":25},{"time":94031.64312500053,"duration":211.26750000000175,"noteNumber":50,"velocity":61,"programNumber":25},{"time":94242.91062500053,"duration":211.26750000000175,"noteNumber":52,"velocity":61,"programNumber":25},{"time":93820.37562500052,"duration":633.8025000000052,"noteNumber":43,"velocity":75,"programNumber":25},{"time":94454.17812500053,"duration":211.26750000000175,"noteNumber":55,"velocity":100,"programNumber":25},{"time":94876.71312500053,"duration":211.26750000000175,"noteNumber":52,"velocity":67,"programNumber":25},{"time":95087.98062500053,"duration":211.26750000000175,"noteNumber":57,"velocity":67,"programNumber":25},{"time":94665.44562500053,"duration":633.8025000000052,"noteNumber":45,"velocity":68,"programNumber":25},{"time":95721.78312500054,"duration":211.26750000000175,"noteNumber":50,"velocity":65,"programNumber":25},{"time":95299.24812500054,"duration":633.8025000000052,"noteNumber":55,"velocity":100,"programNumber":25},{"time":95933.05062500054,"duration":211.26750000000175,"noteNumber":52,"velocity":65,"programNumber":25},{"time":95510.51562500054,"duration":633.8025000000052,"noteNumber":43,"velocity":66,"programNumber":25},{"time":96566.85312500055,"duration":211.26750000000175,"noteNumber":50,"velocity":63,"programNumber":25},{"time":96144.31812500054,"duration":633.8025000000052,"noteNumber":55,"velocity":100,"programNumber":25},{"time":96778.12062500055,"duration":211.26750000000175,"noteNumber":52,"velocity":63,"programNumber":25},{"time":96355.58562500055,"duration":633.8025000000052,"noteNumber":41,"velocity":64,"programNumber":25},{"time":96989.38812500055,"duration":422.5350000000035,"noteNumber":55,"velocity":85,"programNumber":25},{"time":97411.92312500055,"duration":211.26750000000175,"noteNumber":50,"velocity":61,"programNumber":25},{"time":97623.19062500056,"duration":211.26750000000175,"noteNumber":52,"velocity":61,"programNumber":25},{"time":97200.65562500055,"duration":633.8025000000052,"noteNumber":43,"velocity":75,"programNumber":25},{"time":97834.45812500056,"duration":211.26750000000175,"noteNumber":55,"velocity":100,"programNumber":25},{"time":98028.12000000056,"duration":211.26750000000175,"noteNumber":41,"velocity":65,"programNumber":25},{"time":98028.12000000056,"duration":211.26750000000175,"noteNumber":48,"velocity":65,"programNumber":25},{"time":98239.38750000056,"duration":211.26750000000175,"noteNumber":41,"velocity":65,"programNumber":25},{"time":98239.38750000056,"duration":211.26750000000175,"noteNumber":48,"velocity":65,"programNumber":25},{"time":98450.65500000057,"duration":211.26750000000175,"noteNumber":41,"velocity":65,"programNumber":25},{"time":98450.65500000057,"duration":211.26750000000175,"noteNumber":48,"velocity":65,"programNumber":25},{"time":98661.92250000057,"duration":211.26750000000175,"noteNumber":41,"velocity":65,"programNumber":25},{"time":98661.92250000057,"duration":211.26750000000175,"noteNumber":48,"velocity":65,"programNumber":25},{"time":98873.19000000057,"duration":211.26750000000175,"noteNumber":43,"velocity":65,"programNumber":25},{"time":98873.19000000057,"duration":211.26750000000175,"noteNumber":50,"velocity":65,"programNumber":25},{"time":99084.45750000057,"duration":211.26750000000175,"noteNumber":43,"velocity":65,"programNumber":25},{"time":99084.45750000057,"duration":211.26750000000175,"noteNumber":50,"velocity":65,"programNumber":25},{"time":99295.72500000057,"duration":211.26750000000175,"noteNumber":43,"velocity":65,"programNumber":25},{"time":99295.72500000057,"duration":211.26750000000175,"noteNumber":50,"velocity":65,"programNumber":25},{"time":99506.99250000058,"duration":211.26750000000175,"noteNumber":45,"velocity":65,"programNumber":25},{"time":99506.99250000058,"duration":211.26750000000175,"noteNumber":52,"velocity":65,"programNumber":25},{"time":99718.26000000058,"duration":211.26750000000175,"noteNumber":45,"velocity":65,"programNumber":25},{"time":99718.26000000058,"duration":211.26750000000175,"noteNumber":52,"velocity":65,"programNumber":25},{"time":99929.52750000058,"duration":211.26750000000175,"noteNumber":45,"velocity":65,"programNumber":25},{"time":99929.52750000058,"duration":211.26750000000175,"noteNumber":52,"velocity":65,"programNumber":25},{"time":100140.79500000058,"duration":211.26750000000175,"noteNumber":45,"velocity":65,"programNumber":25},{"time":100140.79500000058,"duration":211.26750000000175,"noteNumber":52,"velocity":65,"programNumber":25},{"time":100352.06250000058,"duration":211.26750000000175,"noteNumber":45,"velocity":65,"programNumber":25},{"time":100352.06250000058,"duration":211.26750000000175,"noteNumber":52,"velocity":65,"programNumber":25},{"time":100563.33000000058,"duration":211.26750000000175,"noteNumber":45,"velocity":65,"programNumber":25},{"time":100563.33000000058,"duration":211.26750000000175,"noteNumber":52,"velocity":65,"programNumber":25},{"time":100774.59750000059,"duration":211.26750000000175,"noteNumber":45,"velocity":65,"programNumber":25},{"time":100774.59750000059,"duration":211.26750000000175,"noteNumber":52,"velocity":65,"programNumber":25},{"time":100985.86500000059,"duration":211.26750000000175,"noteNumber":45,"velocity":65,"programNumber":25},{"time":100985.86500000059,"duration":211.26750000000175,"noteNumber":52,"velocity":65,"programNumber":25},{"time":101197.13250000059,"duration":211.26750000000175,"noteNumber":45,"velocity":65,"programNumber":25},{"time":101197.13250000059,"duration":211.26750000000175,"noteNumber":52,"velocity":65,"programNumber":25},{"time":101408.40000000059,"duration":211.26750000000175,"noteNumber":48,"velocity":65,"programNumber":25},{"time":101408.40000000059,"duration":211.26750000000175,"noteNumber":41,"velocity":65,"programNumber":25},{"time":101619.66750000059,"duration":211.26750000000175,"noteNumber":41,"velocity":65,"programNumber":25},{"time":101619.66750000059,"duration":211.26750000000175,"noteNumber":48,"velocity":65,"programNumber":25},{"time":101830.9350000006,"duration":211.26750000000175,"noteNumber":41,"velocity":65,"programNumber":25},{"time":101830.9350000006,"duration":211.26750000000175,"noteNumber":48,"velocity":65,"programNumber":25},{"time":102042.2025000006,"duration":211.26750000000175,"noteNumber":41,"velocity":65,"programNumber":25},{"time":102042.2025000006,"duration":211.26750000000175,"noteNumber":48,"velocity":65,"programNumber":25},{"time":102253.4700000006,"duration":211.26750000000175,"noteNumber":40,"velocity":65,"programNumber":25},{"time":102253.4700000006,"duration":211.26750000000175,"noteNumber":47,"velocity":65,"programNumber":25},{"time":102464.7375000006,"duration":211.26750000000175,"noteNumber":40,"velocity":65,"programNumber":25},{"time":102464.7375000006,"duration":211.26750000000175,"noteNumber":47,"velocity":65,"programNumber":25},{"time":102676.0050000006,"duration":211.26750000000175,"noteNumber":40,"velocity":65,"programNumber":25},{"time":102676.0050000006,"duration":211.26750000000175,"noteNumber":47,"velocity":65,"programNumber":25},{"time":102887.2725000006,"duration":211.26750000000175,"noteNumber":40,"velocity":65,"programNumber":25},{"time":102887.2725000006,"duration":211.26750000000175,"noteNumber":47,"velocity":65,"programNumber":25},{"time":103098.5400000006,"duration":211.26750000000175,"noteNumber":52,"velocity":65,"programNumber":25},{"time":103098.5400000006,"duration":211.26750000000175,"noteNumber":45,"velocity":65,"programNumber":25},{"time":103309.8075000006,"duration":211.26750000000175,"noteNumber":45,"velocity":65,"programNumber":25},{"time":103309.8075000006,"duration":211.26750000000175,"noteNumber":52,"velocity":65,"programNumber":25},{"time":103521.07500000061,"duration":211.26750000000175,"noteNumber":45,"velocity":65,"programNumber":25},{"time":103521.07500000061,"duration":211.26750000000175,"noteNumber":52,"velocity":65,"programNumber":25},{"time":103732.34250000061,"duration":211.26750000000175,"noteNumber":45,"velocity":65,"programNumber":25},{"time":103732.34250000061,"duration":211.26750000000175,"noteNumber":52,"velocity":65,"programNumber":25},{"time":103943.61000000061,"duration":211.26750000000175,"noteNumber":43,"velocity":65,"programNumber":25},{"time":103943.61000000061,"duration":211.26750000000175,"noteNumber":50,"velocity":65,"programNumber":25},{"time":104154.87750000061,"duration":211.26750000000175,"noteNumber":43,"velocity":65,"programNumber":25},{"time":104154.87750000061,"duration":211.26750000000175,"noteNumber":50,"velocity":65,"programNumber":25},{"time":104366.14500000062,"duration":211.26750000000175,"noteNumber":43,"velocity":65,"programNumber":25},{"time":104366.14500000062,"duration":211.26750000000175,"noteNumber":50,"velocity":65,"programNumber":25},{"time":104577.41250000062,"duration":211.26750000000175,"noteNumber":43,"velocity":65,"programNumber":25},{"time":104577.41250000062,"duration":211.26750000000175,"noteNumber":50,"velocity":65,"programNumber":25},{"time":104788.68000000062,"duration":211.26750000000175,"noteNumber":41,"velocity":65,"programNumber":25},{"time":104788.68000000062,"duration":211.26750000000175,"noteNumber":48,"velocity":65,"programNumber":25},{"time":104999.94750000062,"duration":211.26750000000175,"noteNumber":41,"velocity":65,"programNumber":25},{"time":104999.94750000062,"duration":211.26750000000175,"noteNumber":48,"velocity":65,"programNumber":25},{"time":105211.21500000062,"duration":211.26750000000175,"noteNumber":41,"velocity":65,"programNumber":25},{"time":105211.21500000062,"duration":211.26750000000175,"noteNumber":48,"velocity":65,"programNumber":25},{"time":105422.48250000062,"duration":211.26750000000175,"noteNumber":41,"velocity":65,"programNumber":25},{"time":105422.48250000062,"duration":211.26750000000175,"noteNumber":48,"velocity":65,"programNumber":25},{"time":105633.75000000063,"duration":211.26750000000175,"noteNumber":43,"velocity":65,"programNumber":25},{"time":105633.75000000063,"duration":211.26750000000175,"noteNumber":50,"velocity":65,"programNumber":25},{"time":105845.01750000063,"duration":211.26750000000175,"noteNumber":43,"velocity":65,"programNumber":25},{"time":105845.01750000063,"duration":211.26750000000175,"noteNumber":50,"velocity":65,"programNumber":25},{"time":106056.28500000063,"duration":211.26750000000175,"noteNumber":43,"velocity":65,"programNumber":25},{"time":106056.28500000063,"duration":211.26750000000175,"noteNumber":50,"velocity":65,"programNumber":25},{"time":106267.55250000063,"duration":211.26750000000175,"noteNumber":43,"velocity":65,"programNumber":25},{"time":106267.55250000063,"duration":211.26750000000175,"noteNumber":50,"velocity":65,"programNumber":25},{"time":106478.82000000063,"duration":211.26750000000175,"noteNumber":45,"velocity":65,"programNumber":25},{"time":106478.82000000063,"duration":211.26750000000175,"noteNumber":52,"velocity":65,"programNumber":25},{"time":106690.08750000063,"duration":211.26750000000175,"noteNumber":45,"velocity":65,"programNumber":25},{"time":106690.08750000063,"duration":211.26750000000175,"noteNumber":52,"velocity":65,"programNumber":25},{"time":106901.35500000064,"duration":211.26750000000175,"noteNumber":45,"velocity":65,"programNumber":25},{"time":106901.35500000064,"duration":211.26750000000175,"noteNumber":52,"velocity":65,"programNumber":25},{"time":107112.62250000064,"duration":211.26750000000175,"noteNumber":45,"velocity":65,"programNumber":25},{"time":107112.62250000064,"duration":211.26750000000175,"noteNumber":52,"velocity":65,"programNumber":25},{"time":107323.89000000064,"duration":211.26750000000175,"noteNumber":43,"velocity":65,"programNumber":25},{"time":107323.89000000064,"duration":211.26750000000175,"noteNumber":50,"velocity":65,"programNumber":25},{"time":107535.15750000064,"duration":211.26750000000175,"noteNumber":43,"velocity":65,"programNumber":25},{"time":107535.15750000064,"duration":211.26750000000175,"noteNumber":50,"velocity":65,"programNumber":25},{"time":107746.42500000064,"duration":211.26750000000175,"noteNumber":43,"velocity":65,"programNumber":25},{"time":107746.42500000064,"duration":211.26750000000175,"noteNumber":50,"velocity":65,"programNumber":25},{"time":107957.69250000064,"duration":211.26750000000175,"noteNumber":43,"velocity":65,"programNumber":25},{"time":107957.69250000064,"duration":211.26750000000175,"noteNumber":50,"velocity":65,"programNumber":25},{"time":108168.96000000065,"duration":211.26750000000175,"noteNumber":41,"velocity":65,"programNumber":25},{"time":108168.96000000065,"duration":211.26750000000175,"noteNumber":48,"velocity":65,"programNumber":25},{"time":108380.22750000065,"duration":211.26750000000175,"noteNumber":41,"velocity":65,"programNumber":25},{"time":108380.22750000065,"duration":211.26750000000175,"noteNumber":48,"velocity":65,"programNumber":25},{"time":108591.49500000065,"duration":211.26750000000175,"noteNumber":41,"velocity":65,"programNumber":25},{"time":108591.49500000065,"duration":211.26750000000175,"noteNumber":48,"velocity":65,"programNumber":25},{"time":108802.76250000065,"duration":211.26750000000175,"noteNumber":41,"velocity":65,"programNumber":25},{"time":108802.76250000065,"duration":211.26750000000175,"noteNumber":48,"velocity":65,"programNumber":25},{"time":109014.03000000065,"duration":211.26750000000175,"noteNumber":43,"velocity":65,"programNumber":25},{"time":109014.03000000065,"duration":211.26750000000175,"noteNumber":50,"velocity":65,"programNumber":25},{"time":109225.29750000066,"duration":211.26750000000175,"noteNumber":43,"velocity":65,"programNumber":25},{"time":109225.29750000066,"duration":211.26750000000175,"noteNumber":50,"velocity":65,"programNumber":25},{"time":109436.56500000066,"duration":211.26750000000175,"noteNumber":43,"velocity":65,"programNumber":25},{"time":109436.56500000066,"duration":211.26750000000175,"noteNumber":50,"velocity":65,"programNumber":25},{"time":109647.83250000066,"duration":211.26750000000175,"noteNumber":43,"velocity":65,"programNumber":25},{"time":109647.83250000066,"duration":211.26750000000175,"noteNumber":50,"velocity":65,"programNumber":25},{"time":109859.10000000066,"duration":211.26750000000175,"noteNumber":45,"velocity":65,"programNumber":25},{"time":109859.10000000066,"duration":211.26750000000175,"noteNumber":52,"velocity":65,"programNumber":25},{"time":110070.36750000066,"duration":211.26750000000175,"noteNumber":45,"velocity":65,"programNumber":25},{"time":110070.36750000066,"duration":211.26750000000175,"noteNumber":52,"velocity":65,"programNumber":25},{"time":110281.63500000066,"duration":211.26750000000175,"noteNumber":45,"velocity":65,"programNumber":25},{"time":110281.63500000066,"duration":211.26750000000175,"noteNumber":52,"velocity":65,"programNumber":25},{"time":110492.90250000067,"duration":211.26750000000175,"noteNumber":45,"velocity":65,"programNumber":25},{"time":110492.90250000067,"duration":211.26750000000175,"noteNumber":52,"velocity":65,"programNumber":25},{"time":110704.17000000067,"duration":211.26750000000175,"noteNumber":43,"velocity":65,"programNumber":25},{"time":110704.17000000067,"duration":211.26750000000175,"noteNumber":50,"velocity":65,"programNumber":25},{"time":110915.43750000067,"duration":211.26750000000175,"noteNumber":43,"velocity":65,"programNumber":25},{"time":110915.43750000067,"duration":211.26750000000175,"noteNumber":50,"velocity":65,"programNumber":25},{"time":111126.70500000067,"duration":211.26750000000175,"noteNumber":43,"velocity":65,"programNumber":25},{"time":111126.70500000067,"duration":211.26750000000175,"noteNumber":50,"velocity":65,"programNumber":25},{"time":111337.97250000067,"duration":211.26750000000175,"noteNumber":43,"velocity":65,"programNumber":25},{"time":111337.97250000067,"duration":211.26750000000175,"noteNumber":50,"velocity":65,"programNumber":25},{"time":111549.24000000067,"duration":211.26750000000175,"noteNumber":41,"velocity":65,"programNumber":25},{"time":111549.24000000067,"duration":211.26750000000175,"noteNumber":48,"velocity":65,"programNumber":25},{"time":111760.50750000068,"duration":211.26750000000175,"noteNumber":41,"velocity":65,"programNumber":25},{"time":111760.50750000068,"duration":211.26750000000175,"noteNumber":48,"velocity":65,"programNumber":25},{"time":111971.77500000068,"duration":211.26750000000175,"noteNumber":41,"velocity":65,"programNumber":25},{"time":111971.77500000068,"duration":211.26750000000175,"noteNumber":48,"velocity":65,"programNumber":25},{"time":112183.04250000068,"duration":211.26750000000175,"noteNumber":41,"velocity":65,"programNumber":25},{"time":112183.04250000068,"duration":211.26750000000175,"noteNumber":48,"velocity":65,"programNumber":25},{"time":112394.31000000068,"duration":211.26750000000175,"noteNumber":43,"velocity":65,"programNumber":25},{"time":112394.31000000068,"duration":211.26750000000175,"noteNumber":50,"velocity":65,"programNumber":25},{"time":112605.57750000068,"duration":211.26750000000175,"noteNumber":43,"velocity":65,"programNumber":25},{"time":112605.57750000068,"duration":211.26750000000175,"noteNumber":50,"velocity":65,"programNumber":25},{"time":112816.84500000069,"duration":211.26750000000175,"noteNumber":43,"velocity":65,"programNumber":25},{"time":112816.84500000069,"duration":211.26750000000175,"noteNumber":50,"velocity":65,"programNumber":25},{"time":113028.11250000069,"duration":211.26750000000175,"noteNumber":43,"velocity":65,"programNumber":25},{"time":113028.11250000069,"duration":211.26750000000175,"noteNumber":50,"velocity":65,"programNumber":25},{"time":113239.38000000069,"duration":211.26750000000175,"noteNumber":45,"velocity":65,"programNumber":25},{"time":113239.38000000069,"duration":211.26750000000175,"noteNumber":52,"velocity":65,"programNumber":25},{"time":113450.64750000069,"duration":211.26750000000175,"noteNumber":45,"velocity":65,"programNumber":25},{"time":113450.64750000069,"duration":211.26750000000175,"noteNumber":52,"velocity":65,"programNumber":25},{"time":113661.91500000069,"duration":211.26750000000175,"noteNumber":45,"velocity":65,"programNumber":25},{"time":113661.91500000069,"duration":211.26750000000175,"noteNumber":52,"velocity":65,"programNumber":25},{"time":113873.1825000007,"duration":211.26750000000175,"noteNumber":45,"velocity":65,"programNumber":25},{"time":113873.1825000007,"duration":211.26750000000175,"noteNumber":52,"velocity":65,"programNumber":25},{"time":114084.4500000007,"duration":211.26750000000175,"noteNumber":43,"velocity":65,"programNumber":25},{"time":114084.4500000007,"duration":211.26750000000175,"noteNumber":50,"velocity":65,"programNumber":25},{"time":114295.7175000007,"duration":211.26750000000175,"noteNumber":43,"velocity":65,"programNumber":25},{"time":114295.7175000007,"duration":211.26750000000175,"noteNumber":50,"velocity":65,"programNumber":25},{"time":114506.9850000007,"duration":211.26750000000175,"noteNumber":43,"velocity":65,"programNumber":25},{"time":114506.9850000007,"duration":211.26750000000175,"noteNumber":50,"velocity":65,"programNumber":25},{"time":114718.2525000007,"duration":211.26750000000175,"noteNumber":43,"velocity":65,"programNumber":25},{"time":114718.2525000007,"duration":211.26750000000175,"noteNumber":50,"velocity":65,"programNumber":25},{"time":115140.78750000069,"duration":211.26750000000175,"noteNumber":50,"velocity":90,"programNumber":25},{"time":115352.05500000069,"duration":211.26750000000175,"noteNumber":52,"velocity":90,"programNumber":25},{"time":114929.5200000007,"duration":633.8024999999907,"noteNumber":41,"velocity":90,"programNumber":25},{"time":115563.3225000007,"duration":422.5350000000035,"noteNumber":55,"velocity":100,"programNumber":25},{"time":115985.8575000007,"duration":211.26750000000175,"noteNumber":50,"velocity":90,"programNumber":25},{"time":116197.1250000007,"duration":211.26750000000175,"noteNumber":52,"velocity":90,"programNumber":25},{"time":115774.5900000007,"duration":633.8025000000052,"noteNumber":43,"velocity":90,"programNumber":25},{"time":116408.3925000007,"duration":422.5350000000035,"noteNumber":55,"velocity":100,"programNumber":25},{"time":117042.1950000007,"duration":211.26750000000175,"noteNumber":57,"velocity":90,"programNumber":25},{"time":116619.6600000007,"duration":633.8025000000052,"noteNumber":45,"velocity":90,"programNumber":25},{"time":117253.4625000007,"duration":422.5350000000035,"noteNumber":55,"velocity":100,"programNumber":25},{"time":117675.99750000071,"duration":211.26750000000175,"noteNumber":50,"velocity":90,"programNumber":25},{"time":117887.26500000071,"duration":211.26750000000175,"noteNumber":52,"velocity":90,"programNumber":25},{"time":117464.73000000071,"duration":633.8025000000052,"noteNumber":43,"velocity":90,"programNumber":25},{"time":118098.53250000071,"duration":422.5350000000035,"noteNumber":55,"velocity":100,"programNumber":25},{"time":118521.06750000072,"duration":211.26750000000175,"noteNumber":50,"velocity":90,"programNumber":25},{"time":118732.33500000072,"duration":211.26750000000175,"noteNumber":52,"velocity":90,"programNumber":25},{"time":118309.80000000072,"duration":633.8025000000052,"noteNumber":41,"velocity":90,"programNumber":25},{"time":118943.60250000072,"duration":422.5350000000035,"noteNumber":55,"velocity":100,"programNumber":25},{"time":119366.13750000072,"duration":211.26750000000175,"noteNumber":50,"velocity":90,"programNumber":25},{"time":119577.40500000073,"duration":211.26750000000175,"noteNumber":52,"velocity":90,"programNumber":25},{"time":119154.87000000072,"duration":633.8025000000052,"noteNumber":43,"velocity":90,"programNumber":25},{"time":119788.67250000073,"duration":422.5350000000035,"noteNumber":55,"velocity":100,"programNumber":25},{"time":120422.47500000073,"duration":211.26750000000175,"noteNumber":57,"velocity":90,"programNumber":25},{"time":119999.94000000073,"duration":633.8025000000052,"noteNumber":45,"velocity":90,"programNumber":25},{"time":120633.74250000074,"duration":422.5350000000035,"noteNumber":55,"velocity":90,"programNumber":25},{"time":121056.27750000074,"duration":211.26750000000175,"noteNumber":50,"velocity":90,"programNumber":25},{"time":121267.54500000074,"duration":211.26750000000175,"noteNumber":52,"velocity":90,"programNumber":25},{"time":120845.01000000074,"duration":633.8025000000052,"noteNumber":43,"velocity":90,"programNumber":25},{"time":121478.81250000074,"duration":422.5350000000035,"noteNumber":55,"velocity":90,"programNumber":25},{"time":121901.34750000075,"duration":211.26750000000175,"noteNumber":50,"velocity":90,"programNumber":25},{"time":122112.61500000075,"duration":211.26750000000175,"noteNumber":52,"velocity":90,"programNumber":25},{"time":121690.08000000074,"duration":633.8025000000052,"noteNumber":41,"velocity":90,"programNumber":25},{"time":122323.88250000075,"duration":422.5350000000035,"noteNumber":55,"velocity":90,"programNumber":25},{"time":122746.41750000075,"duration":211.26750000000175,"noteNumber":50,"velocity":90,"programNumber":25},{"time":122957.68500000075,"duration":211.26750000000175,"noteNumber":52,"velocity":90,"programNumber":25},{"time":122535.15000000075,"duration":633.8025000000052,"noteNumber":43,"velocity":90,"programNumber":25},{"time":123168.95250000076,"duration":422.5350000000035,"noteNumber":55,"velocity":100,"programNumber":25},{"time":123802.75500000076,"duration":211.26750000000175,"noteNumber":57,"velocity":90,"programNumber":25},{"time":123380.22000000076,"duration":633.8025000000052,"noteNumber":45,"velocity":90,"programNumber":25},{"time":124014.02250000076,"duration":422.5350000000035,"noteNumber":55,"velocity":100,"programNumber":25},{"time":124436.55750000077,"duration":211.26750000000175,"noteNumber":50,"velocity":90,"programNumber":25},{"time":124647.82500000077,"duration":211.26750000000175,"noteNumber":52,"velocity":90,"programNumber":25},{"time":124225.29000000076,"duration":633.8025000000052,"noteNumber":43,"velocity":90,"programNumber":25},{"time":124859.09250000077,"duration":422.5350000000035,"noteNumber":55,"velocity":90,"programNumber":25},{"time":125281.62750000077,"duration":211.26750000000175,"noteNumber":50,"velocity":90,"programNumber":25},{"time":125492.89500000078,"duration":211.26750000000175,"noteNumber":52,"velocity":90,"programNumber":25},{"time":125070.36000000077,"duration":633.8025000000052,"noteNumber":41,"velocity":90,"programNumber":25},{"time":125704.16250000078,"duration":422.5350000000035,"noteNumber":55,"velocity":100,"programNumber":25},{"time":126126.69750000078,"duration":211.26750000000175,"noteNumber":50,"velocity":90,"programNumber":25},{"time":126337.96500000078,"duration":211.26750000000175,"noteNumber":52,"velocity":90,"programNumber":25},{"time":125915.43000000078,"duration":633.8025000000052,"noteNumber":43,"velocity":90,"programNumber":25},{"time":126549.23250000078,"duration":422.5350000000035,"noteNumber":55,"velocity":90,"programNumber":25},{"time":127183.03500000079,"duration":211.26750000000175,"noteNumber":57,"velocity":90,"programNumber":25},{"time":126760.50000000079,"duration":633.8025000000052,"noteNumber":45,"velocity":90,"programNumber":25},{"time":127394.30250000079,"duration":422.5350000000035,"noteNumber":55,"velocity":90,"programNumber":25},{"time":127816.8375000008,"duration":211.26750000000175,"noteNumber":50,"velocity":90,"programNumber":25},{"time":128028.1050000008,"duration":211.26750000000175,"noteNumber":52,"velocity":90,"programNumber":25},{"time":127605.5700000008,"duration":633.8025000000052,"noteNumber":43,"velocity":90,"programNumber":25},{"time":128239.3725000008,"duration":422.5350000000035,"noteNumber":55,"velocity":90,"programNumber":25},{"time":128661.9075000008,"duration":211.26750000000175,"noteNumber":50,"velocity":90,"programNumber":25},{"time":128873.1750000008,"duration":211.26750000000175,"noteNumber":52,"velocity":90,"programNumber":25},{"time":128450.6400000008,"duration":633.8025000000052,"noteNumber":41,"velocity":90,"programNumber":25},{"time":129084.4425000008,"duration":422.5350000000035,"noteNumber":55,"velocity":90,"programNumber":25},{"time":129506.97750000081,"duration":211.26750000000175,"noteNumber":50,"velocity":90,"programNumber":25},{"time":129718.24500000081,"duration":211.26750000000175,"noteNumber":52,"velocity":90,"programNumber":25},{"time":129295.7100000008,"duration":633.8025000000052,"noteNumber":43,"velocity":90,"programNumber":25},{"time":129929.51250000081,"duration":211.26750000000175,"noteNumber":55,"velocity":90,"programNumber":25},{"time":130352.04750000082,"duration":211.26750000000175,"noteNumber":52,"velocity":67,"programNumber":25},{"time":130563.31500000082,"duration":211.26750000000175,"noteNumber":57,"velocity":67,"programNumber":25},{"time":130140.78000000081,"duration":633.8025000000052,"noteNumber":45,"velocity":68,"programNumber":25},{"time":131197.1175000008,"duration":211.2674999999872,"noteNumber":50,"velocity":65,"programNumber":25},{"time":130774.58250000082,"duration":633.8024999999761,"noteNumber":55,"velocity":100,"programNumber":25},{"time":131408.3850000008,"duration":211.2674999999872,"noteNumber":52,"velocity":65,"programNumber":25},{"time":130985.85000000082,"duration":633.8024999999616,"noteNumber":43,"velocity":66,"programNumber":25},{"time":132042.18750000076,"duration":211.2674999999872,"noteNumber":52,"velocity":67,"programNumber":25},{"time":131619.65250000078,"duration":633.8024999999616,"noteNumber":55,"velocity":100,"programNumber":25},{"time":132253.45500000074,"duration":211.2674999999872,"noteNumber":57,"velocity":67,"programNumber":25},{"time":131830.92000000077,"duration":633.8024999999616,"noteNumber":41,"velocity":68,"programNumber":25},{"time":132887.2575000007,"duration":211.2674999999872,"noteNumber":50,"velocity":65,"programNumber":25},{"time":132464.72250000073,"duration":633.8024999999616,"noteNumber":55,"velocity":100,"programNumber":25},{"time":133098.5250000007,"duration":211.2674999999872,"noteNumber":52,"velocity":65,"programNumber":25},{"time":132675.99000000072,"duration":633.8024999999616,"noteNumber":43,"velocity":66,"programNumber":25},{"time":133732.32750000065,"duration":211.2674999999872,"noteNumber":50,"velocity":63,"programNumber":25},{"time":133309.79250000068,"duration":633.8024999999616,"noteNumber":55,"velocity":100,"programNumber":25},{"time":133943.59500000064,"duration":211.2674999999872,"noteNumber":52,"velocity":63,"programNumber":25},{"time":133521.06000000067,"duration":633.8024999999616,"noteNumber":45,"velocity":64,"programNumber":25},{"time":134154.86250000063,"duration":422.5349999999744,"noteNumber":55,"velocity":85,"programNumber":25},{"time":134577.3975000006,"duration":211.2674999999872,"noteNumber":50,"velocity":61,"programNumber":25},{"time":134788.6650000006,"duration":211.2674999999872,"noteNumber":52,"velocity":61,"programNumber":25},{"time":134366.13000000062,"duration":633.8024999999616,"noteNumber":43,"velocity":75,"programNumber":25},{"time":134999.93250000058,"duration":211.2674999999872,"noteNumber":55,"velocity":100,"programNumber":25},{"time":135422.46750000055,"duration":211.2674999999872,"noteNumber":52,"velocity":67,"programNumber":25},{"time":135633.73500000054,"duration":211.2674999999872,"noteNumber":57,"velocity":67,"programNumber":25},{"time":135211.20000000056,"duration":633.8024999999616,"noteNumber":41,"velocity":68,"programNumber":25},{"time":136267.5375000005,"duration":211.2674999999872,"noteNumber":50,"velocity":65,"programNumber":25},{"time":135845.00250000053,"duration":633.8024999999616,"noteNumber":55,"velocity":100,"programNumber":25},{"time":136478.8050000005,"duration":211.2674999999872,"noteNumber":52,"velocity":65,"programNumber":25},{"time":136056.2700000005,"duration":633.8024999999616,"noteNumber":43,"velocity":66,"programNumber":25},{"time":137112.60750000045,"duration":211.2674999999872,"noteNumber":50,"velocity":63,"programNumber":25},{"time":136690.07250000047,"duration":633.8024999999616,"noteNumber":55,"velocity":100,"programNumber":25},{"time":137323.87500000044,"duration":211.2674999999872,"noteNumber":52,"velocity":63,"programNumber":25},{"time":136901.34000000046,"duration":633.8024999999616,"noteNumber":45,"velocity":64,"programNumber":25},{"time":137535.14250000042,"duration":422.5349999999744,"noteNumber":55,"velocity":85,"programNumber":25},{"time":137957.6775000004,"duration":211.2674999999872,"noteNumber":50,"velocity":61,"programNumber":25},{"time":138168.94500000039,"duration":211.2674999999872,"noteNumber":52,"velocity":61,"programNumber":25},{"time":137746.4100000004,"duration":633.8024999999616,"noteNumber":43,"velocity":75,"programNumber":25},{"time":138380.21250000037,"duration":211.2674999999872,"noteNumber":55,"velocity":100,"programNumber":25},{"time":138802.74750000035,"duration":211.2674999999872,"noteNumber":52,"velocity":67,"programNumber":25},{"time":139014.01500000033,"duration":211.2674999999872,"noteNumber":57,"velocity":67,"programNumber":25},{"time":138591.48000000036,"duration":633.8024999999616,"noteNumber":41,"velocity":68,"programNumber":25},{"time":139647.8175000003,"duration":211.2674999999872,"noteNumber":50,"velocity":65,"programNumber":25},{"time":139225.28250000032,"duration":633.8024999999616,"noteNumber":55,"velocity":100,"programNumber":25},{"time":139859.08500000028,"duration":211.2674999999872,"noteNumber":52,"velocity":65,"programNumber":25},{"time":139436.5500000003,"duration":633.8024999999616,"noteNumber":43,"velocity":66,"programNumber":25},{"time":140492.88750000024,"duration":211.2674999999872,"noteNumber":50,"velocity":63,"programNumber":25},{"time":140070.35250000027,"duration":633.8024999999616,"noteNumber":55,"velocity":100,"programNumber":25},{"time":140704.15500000023,"duration":211.2674999999872,"noteNumber":52,"velocity":63,"programNumber":25},{"time":140281.62000000026,"duration":633.8024999999616,"noteNumber":45,"velocity":64,"programNumber":25},{"time":140915.42250000022,"duration":422.5349999999744,"noteNumber":55,"velocity":85,"programNumber":25},{"time":141337.9575000002,"duration":211.2674999999872,"noteNumber":50,"velocity":61,"programNumber":25},{"time":141549.22500000018,"duration":211.2674999999872,"noteNumber":52,"velocity":61,"programNumber":25},{"time":141126.6900000002,"duration":633.8024999999616,"noteNumber":43,"velocity":75,"programNumber":25},{"time":141760.49250000017,"duration":211.2674999999872,"noteNumber":55,"velocity":100,"programNumber":25},{"time":142183.02750000014,"duration":211.2674999999872,"noteNumber":52,"velocity":67,"programNumber":25},{"time":142394.29500000013,"duration":211.2674999999872,"noteNumber":57,"velocity":67,"programNumber":25},{"time":141971.76000000015,"duration":633.8024999999616,"noteNumber":41,"velocity":68,"programNumber":25},{"time":143028.0975000001,"duration":211.2674999999872,"noteNumber":50,"velocity":65,"programNumber":25},{"time":142605.56250000012,"duration":633.8024999999616,"noteNumber":55,"velocity":100,"programNumber":25},{"time":143239.36500000008,"duration":211.2674999999872,"noteNumber":52,"velocity":65,"programNumber":25},{"time":142816.8300000001,"duration":633.8024999999616,"noteNumber":43,"velocity":66,"programNumber":25},{"time":143873.16750000004,"duration":211.2674999999872,"noteNumber":50,"velocity":63,"programNumber":25},{"time":143450.63250000007,"duration":633.8024999999616,"noteNumber":55,"velocity":100,"programNumber":25},{"time":144084.43500000003,"duration":211.2674999999872,"noteNumber":52,"velocity":63,"programNumber":25},{"time":143661.90000000005,"duration":633.8024999999616,"noteNumber":45,"velocity":64,"programNumber":25},{"time":144295.7025,"duration":422.5349999999744,"noteNumber":55,"velocity":85,"programNumber":25},{"time":144718.2375,"duration":211.2674999999872,"noteNumber":50,"velocity":61,"programNumber":25},{"time":144929.50499999998,"duration":211.2674999999872,"noteNumber":52,"velocity":61,"programNumber":25},{"time":144506.97,"duration":633.8024999999616,"noteNumber":43,"velocity":75,"programNumber":25},{"time":145140.77249999996,"duration":211.2674999999872,"noteNumber":55,"velocity":100,"programNumber":25},{"time":145563.30749999994,"duration":211.2674999999872,"noteNumber":52,"velocity":67,"programNumber":25},{"time":145774.57499999992,"duration":211.2674999999872,"noteNumber":57,"velocity":67,"programNumber":25},{"time":145352.03999999995,"duration":633.8024999999616,"noteNumber":41,"velocity":68,"programNumber":25},{"time":146408.3774999999,"duration":211.2674999999872,"noteNumber":50,"velocity":65,"programNumber":25},{"time":145985.8424999999,"duration":633.8024999999616,"noteNumber":55,"velocity":100,"programNumber":25},{"time":146619.64499999987,"duration":211.2674999999872,"noteNumber":52,"velocity":65,"programNumber":25},{"time":146197.1099999999,"duration":633.8024999999616,"noteNumber":43,"velocity":66,"programNumber":25},{"time":146830.91249999986,"duration":211.2674999999872,"noteNumber":55,"velocity":67,"programNumber":25},{"time":147147.81374999986,"duration":105.63374999997905,"noteNumber":48,"velocity":100,"programNumber":25},{"time":147042.17999999985,"duration":1690.1399999999849,"noteNumber":45,"velocity":100,"programNumber":25},{"time":147183.02499999985,"duration":1690.1399999999849,"noteNumber":60,"velocity":100,"programNumber":25},{"time":147253.44749999983,"duration":1690.1399999999849,"noteNumber":57,"velocity":100,"programNumber":25},{"time":205563.2774999998,"duration":211.2674999999872,"noteNumber":52,"velocity":70,"programNumber":25},{"time":205774.54499999978,"duration":211.2674999999872,"noteNumber":57,"velocity":70,"programNumber":25},{"time":205352.00999999983,"duration":633.8024999999325,"noteNumber":45,"velocity":70,"programNumber":25},{"time":205985.81249999977,"duration":422.5349999999744,"noteNumber":55,"velocity":70,"programNumber":25},{"time":206408.34749999974,"duration":211.2674999999872,"noteNumber":50,"velocity":70,"programNumber":25},{"time":206619.61499999973,"duration":211.2674999999872,"noteNumber":52,"velocity":70,"programNumber":25},{"time":206197.07999999975,"duration":633.8024999999616,"noteNumber":43,"velocity":70,"programNumber":25},{"time":206830.88249999972,"duration":422.5349999999744,"noteNumber":55,"velocity":70,"programNumber":25},{"time":207253.4174999997,"duration":211.2674999999872,"noteNumber":50,"velocity":70,"programNumber":25},{"time":207464.68499999968,"duration":211.2674999999872,"noteNumber":52,"velocity":70,"programNumber":25},{"time":207042.1499999997,"duration":633.8024999999616,"noteNumber":41,"velocity":70,"programNumber":25},{"time":208098.48749999964,"duration":211.2674999999872,"noteNumber":50,"velocity":70,"programNumber":25},{"time":207675.95249999966,"duration":633.8024999999616,"noteNumber":55,"velocity":70,"programNumber":25},{"time":208309.75499999963,"duration":211.2674999999872,"noteNumber":52,"velocity":70,"programNumber":25},{"time":207887.21999999965,"duration":633.8024999999616,"noteNumber":43,"velocity":70,"programNumber":25},{"time":208521.0224999996,"duration":422.5349999999744,"noteNumber":55,"velocity":70,"programNumber":25},{"time":208943.5574999996,"duration":211.2674999999872,"noteNumber":52,"velocity":70,"programNumber":25},{"time":209154.82499999958,"duration":211.2674999999872,"noteNumber":57,"velocity":70,"programNumber":25},{"time":208732.2899999996,"duration":633.8024999999616,"noteNumber":45,"velocity":70,"programNumber":25},{"time":209788.62749999954,"duration":211.2674999999872,"noteNumber":50,"velocity":70,"programNumber":25},{"time":209366.09249999956,"duration":633.8024999999616,"noteNumber":55,"velocity":70,"programNumber":25},{"time":209999.89499999952,"duration":211.2674999999872,"noteNumber":52,"velocity":70,"programNumber":25},{"time":209577.35999999955,"duration":633.8024999999616,"noteNumber":43,"velocity":70,"programNumber":25},{"time":210633.69749999949,"duration":211.2674999999872,"noteNumber":50,"velocity":70,"programNumber":25},{"time":210211.1624999995,"duration":633.8024999999616,"noteNumber":55,"velocity":70,"programNumber":25},{"time":210844.96499999947,"duration":211.2674999999872,"noteNumber":52,"velocity":70,"programNumber":25},{"time":210422.4299999995,"duration":633.8024999999616,"noteNumber":41,"velocity":70,"programNumber":25},{"time":211056.23249999946,"duration":422.5349999999744,"noteNumber":55,"velocity":70,"programNumber":25},{"time":211478.76749999943,"duration":211.2674999999872,"noteNumber":50,"velocity":70,"programNumber":25},{"time":211690.03499999942,"duration":211.2674999999872,"noteNumber":52,"velocity":70,"programNumber":25},{"time":211267.49999999945,"duration":633.8024999999616,"noteNumber":43,"velocity":70,"programNumber":25},{"time":211901.3024999994,"duration":211.2674999999872,"noteNumber":55,"velocity":70,"programNumber":25},{"time":212341.44312499938,"duration":211.2674999999872,"noteNumber":52,"velocity":70,"programNumber":25},{"time":212552.71062499937,"duration":211.2674999999872,"noteNumber":57,"velocity":70,"programNumber":25},{"time":212130.1756249994,"duration":633.8024999999616,"noteNumber":45,"velocity":70,"programNumber":25},{"time":213186.51312499933,"duration":211.2674999999872,"noteNumber":50,"velocity":70,"programNumber":25},{"time":212763.97812499935,"duration":633.8024999999616,"noteNumber":55,"velocity":70,"programNumber":25},{"time":213397.78062499932,"duration":211.2674999999872,"noteNumber":52,"velocity":70,"programNumber":25},{"time":212975.24562499934,"duration":633.8024999999616,"noteNumber":43,"velocity":70,"programNumber":25},{"time":214031.58312499928,"duration":211.2674999999872,"noteNumber":50,"velocity":70,"programNumber":25},{"time":213609.0481249993,"duration":633.8024999999616,"noteNumber":55,"velocity":70,"programNumber":25},{"time":214242.85062499926,"duration":211.2674999999872,"noteNumber":52,"velocity":70,"programNumber":25},{"time":213820.3156249993,"duration":633.8024999999616,"noteNumber":41,"velocity":70,"programNumber":25},{"time":214454.11812499925,"duration":422.5349999999744,"noteNumber":55,"velocity":70,"programNumber":25},{"time":214876.65312499923,"duration":211.2674999999872,"noteNumber":50,"velocity":70,"programNumber":25},{"time":215087.9206249992,"duration":211.2674999999872,"noteNumber":52,"velocity":70,"programNumber":25},{"time":214665.38562499924,"duration":633.8024999999616,"noteNumber":43,"velocity":70,"programNumber":25},{"time":215299.1881249992,"duration":211.2674999999872,"noteNumber":55,"velocity":70,"programNumber":25},{"time":215721.72312499917,"duration":211.2674999999872,"noteNumber":52,"velocity":70,"programNumber":25},{"time":215932.99062499916,"duration":211.2674999999872,"noteNumber":57,"velocity":70,"programNumber":25},{"time":215510.4556249992,"duration":633.8024999999616,"noteNumber":45,"velocity":70,"programNumber":25},{"time":216566.79312499912,"duration":211.2674999999872,"noteNumber":50,"velocity":70,"programNumber":25},{"time":216144.25812499915,"duration":633.8024999999616,"noteNumber":55,"velocity":70,"programNumber":25},{"time":216778.0606249991,"duration":211.2674999999872,"noteNumber":52,"velocity":70,"programNumber":25},{"time":216355.52562499914,"duration":633.8024999999616,"noteNumber":43,"velocity":70,"programNumber":25},{"time":217411.86312499907,"duration":211.2674999999872,"noteNumber":50,"velocity":70,"programNumber":25},{"time":216989.3281249991,"duration":633.8024999999616,"noteNumber":55,"velocity":70,"programNumber":25},{"time":217623.13062499906,"duration":211.2674999999872,"noteNumber":52,"velocity":70,"programNumber":25},{"time":217200.59562499908,"duration":633.8024999999616,"noteNumber":41,"velocity":70,"programNumber":25},{"time":217834.39812499905,"duration":422.5349999999744,"noteNumber":55,"velocity":70,"programNumber":25},{"time":218256.93312499902,"duration":211.2674999999872,"noteNumber":50,"velocity":70,"programNumber":25},{"time":218468.200624999,"duration":211.2674999999872,"noteNumber":52,"velocity":70,"programNumber":25},{"time":218045.66562499903,"duration":633.8024999999616,"noteNumber":43,"velocity":70,"programNumber":25},{"time":218679.468124999,"duration":211.2674999999872,"noteNumber":55,"velocity":70,"programNumber":25},{"time":219102.00312499897,"duration":211.2674999999872,"noteNumber":52,"velocity":70,"programNumber":25},{"time":219313.27062499896,"duration":211.2674999999872,"noteNumber":57,"velocity":70,"programNumber":25},{"time":218890.73562499898,"duration":633.8024999999616,"noteNumber":45,"velocity":70,"programNumber":25},{"time":219947.07312499892,"duration":211.2674999999872,"noteNumber":50,"velocity":70,"programNumber":25},{"time":219524.53812499894,"duration":633.8024999999616,"noteNumber":55,"velocity":70,"programNumber":25},{"time":220158.3406249989,"duration":211.2674999999872,"noteNumber":52,"velocity":70,"programNumber":25},{"time":219735.80562499893,"duration":633.8024999999616,"noteNumber":43,"velocity":70,"programNumber":25},{"time":220792.14312499887,"duration":211.2674999999872,"noteNumber":50,"velocity":70,"programNumber":25},{"time":220369.6081249989,"duration":633.8024999999616,"noteNumber":55,"velocity":70,"programNumber":25},{"time":221003.41062499885,"duration":211.2674999999872,"noteNumber":52,"velocity":70,"programNumber":25},{"time":220580.87562499888,"duration":633.8024999999616,"noteNumber":41,"velocity":70,"programNumber":25},{"time":221214.67812499884,"duration":422.5349999999744,"noteNumber":55,"velocity":70,"programNumber":25},{"time":221637.21312499882,"duration":211.2674999999872,"noteNumber":50,"velocity":70,"programNumber":25},{"time":221848.4806249988,"duration":211.2674999999872,"noteNumber":52,"velocity":70,"programNumber":25},{"time":221425.94562499883,"duration":633.8024999999616,"noteNumber":43,"velocity":70,"programNumber":25},{"time":222059.7481249988,"duration":211.2674999999872,"noteNumber":55,"velocity":70,"programNumber":25},{"time":222482.28312499876,"duration":211.2674999999872,"noteNumber":52,"velocity":70,"programNumber":25},{"time":222693.55062499875,"duration":211.2674999999872,"noteNumber":57,"velocity":70,"programNumber":25},{"time":222271.01562499878,"duration":633.8024999999616,"noteNumber":45,"velocity":70,"programNumber":25},{"time":223327.3531249987,"duration":211.2674999999872,"noteNumber":50,"velocity":70,"programNumber":25},{"time":222904.81812499874,"duration":633.8024999999616,"noteNumber":55,"velocity":70,"programNumber":25},{"time":223538.6206249987,"duration":211.2674999999872,"noteNumber":52,"velocity":70,"programNumber":25},{"time":223116.08562499873,"duration":633.8024999999616,"noteNumber":43,"velocity":70,"programNumber":25},{"time":224172.42312499866,"duration":211.2674999999872,"noteNumber":50,"velocity":70,"programNumber":25},{"time":223749.8881249987,"duration":633.8024999999616,"noteNumber":55,"velocity":70,"programNumber":25},{"time":224383.69062499865,"duration":211.2674999999872,"noteNumber":52,"velocity":70,"programNumber":25},{"time":223961.15562499868,"duration":633.8024999999616,"noteNumber":41,"velocity":70,"programNumber":25},{"time":224594.95812499864,"duration":422.5349999999744,"noteNumber":55,"velocity":70,"programNumber":25},{"time":225017.4931249986,"duration":211.2674999999872,"noteNumber":50,"velocity":70,"programNumber":25},{"time":225228.7606249986,"duration":211.2674999999872,"noteNumber":52,"velocity":70,"programNumber":25},{"time":224806.22562499862,"duration":633.8024999999616,"noteNumber":43,"velocity":70,"programNumber":25},{"time":225440.0281249986,"duration":211.2674999999872,"noteNumber":55,"velocity":70,"programNumber":25},{"time":225862.56312499856,"duration":211.2674999999872,"noteNumber":52,"velocity":70,"programNumber":25},{"time":226073.83062499855,"duration":211.2674999999872,"noteNumber":57,"velocity":70,"programNumber":25},{"time":225651.29562499857,"duration":633.8024999999616,"noteNumber":45,"velocity":70,"programNumber":25},{"time":226707.6331249985,"duration":211.2674999999872,"noteNumber":50,"velocity":70,"programNumber":25},{"time":226285.09812499853,"duration":633.8024999999616,"noteNumber":55,"velocity":70,"programNumber":25},{"time":226918.9006249985,"duration":211.2674999999872,"noteNumber":52,"velocity":70,"programNumber":25},{"time":226496.36562499852,"duration":633.8024999999616,"noteNumber":43,"velocity":70,"programNumber":25},{"time":227552.70312499846,"duration":211.2674999999872,"noteNumber":50,"velocity":70,"programNumber":25},{"time":227130.16812499848,"duration":633.8024999999616,"noteNumber":55,"velocity":70,"programNumber":25},{"time":227763.97062499844,"duration":211.2674999999872,"noteNumber":52,"velocity":70,"programNumber":25},{"time":227341.43562499847,"duration":633.8024999999616,"noteNumber":41,"velocity":70,"programNumber":25},{"time":227975.23812499843,"duration":422.5349999999744,"noteNumber":55,"velocity":70,"programNumber":25},{"time":228397.7731249984,"duration":211.2674999999872,"noteNumber":50,"velocity":70,"programNumber":25},{"time":228609.0406249984,"duration":211.2674999999872,"noteNumber":52,"velocity":70,"programNumber":25},{"time":228186.50562499842,"duration":633.8024999999616,"noteNumber":43,"velocity":70,"programNumber":25},{"time":228820.30812499838,"duration":211.2674999999872,"noteNumber":55,"velocity":70,"programNumber":25},{"time":229242.84312499836,"duration":211.2674999999872,"noteNumber":52,"velocity":70,"programNumber":25},{"time":229454.11062499834,"duration":211.2674999999872,"noteNumber":57,"velocity":70,"programNumber":25},{"time":229031.57562499837,"duration":633.8024999999616,"noteNumber":45,"velocity":70,"programNumber":25},{"time":230087.9131249983,"duration":211.2674999999872,"noteNumber":50,"velocity":70,"programNumber":25},{"time":229665.37812499833,"duration":633.8024999999616,"noteNumber":55,"velocity":70,"programNumber":25},{"time":230299.1806249983,"duration":211.2674999999872,"noteNumber":52,"velocity":70,"programNumber":25},{"time":229876.64562499832,"duration":633.8024999999616,"noteNumber":43,"velocity":70,"programNumber":25},{"time":230932.98312499825,"duration":211.2674999999872,"noteNumber":50,"velocity":70,"programNumber":25},{"time":230510.44812499828,"duration":633.8024999999616,"noteNumber":55,"velocity":70,"programNumber":25},{"time":231144.25062499824,"duration":211.2674999999872,"noteNumber":52,"velocity":70,"programNumber":25},{"time":230721.71562499827,"duration":633.8024999999616,"noteNumber":41,"velocity":70,"programNumber":25},{"time":231355.51812499823,"duration":422.5349999999744,"noteNumber":55,"velocity":70,"programNumber":25},{"time":231778.0531249982,"duration":211.2674999999872,"noteNumber":50,"velocity":70,"programNumber":25},{"time":231989.3206249982,"duration":211.2674999999872,"noteNumber":52,"velocity":70,"programNumber":25},{"time":231566.7856249982,"duration":633.8024999999616,"noteNumber":43,"velocity":70,"programNumber":25},{"time":232200.58812499818,"duration":211.2674999999872,"noteNumber":55,"velocity":70,"programNumber":25},{"time":232394.24999999817,"duration":211.2674999999872,"noteNumber":41,"velocity":65,"programNumber":25},{"time":232394.24999999817,"duration":211.2674999999872,"noteNumber":48,"velocity":65,"programNumber":25},{"time":232605.51749999815,"duration":211.2674999999872,"noteNumber":41,"velocity":65,"programNumber":25},{"time":232605.51749999815,"duration":211.2674999999872,"noteNumber":48,"velocity":65,"programNumber":25},{"time":232816.78499999814,"duration":211.2674999999872,"noteNumber":41,"velocity":65,"programNumber":25},{"time":232816.78499999814,"duration":211.2674999999872,"noteNumber":48,"velocity":65,"programNumber":25},{"time":233028.05249999813,"duration":211.2674999999872,"noteNumber":41,"velocity":65,"programNumber":25},{"time":233028.05249999813,"duration":211.2674999999872,"noteNumber":48,"velocity":65,"programNumber":25},{"time":233239.31999999812,"duration":211.2674999999872,"noteNumber":43,"velocity":65,"programNumber":25},{"time":233239.31999999812,"duration":211.2674999999872,"noteNumber":50,"velocity":65,"programNumber":25},{"time":233450.5874999981,"duration":211.2674999999872,"noteNumber":43,"velocity":65,"programNumber":25},{"time":233450.5874999981,"duration":211.2674999999872,"noteNumber":50,"velocity":65,"programNumber":25},{"time":233661.8549999981,"duration":211.2674999999872,"noteNumber":43,"velocity":65,"programNumber":25},{"time":233661.8549999981,"duration":211.2674999999872,"noteNumber":50,"velocity":65,"programNumber":25},{"time":233873.12249999808,"duration":211.2674999999872,"noteNumber":45,"velocity":65,"programNumber":25},{"time":233873.12249999808,"duration":211.2674999999872,"noteNumber":52,"velocity":65,"programNumber":25},{"time":234084.38999999806,"duration":211.2674999999872,"noteNumber":45,"velocity":65,"programNumber":25},{"time":234084.38999999806,"duration":211.2674999999872,"noteNumber":52,"velocity":65,"programNumber":25},{"time":234295.65749999805,"duration":211.2674999999872,"noteNumber":45,"velocity":65,"programNumber":25},{"time":234295.65749999805,"duration":211.2674999999872,"noteNumber":52,"velocity":65,"programNumber":25},{"time":234506.92499999804,"duration":211.2674999999872,"noteNumber":45,"velocity":65,"programNumber":25},{"time":234506.92499999804,"duration":211.2674999999872,"noteNumber":52,"velocity":65,"programNumber":25},{"time":234718.19249999803,"duration":211.2674999999872,"noteNumber":45,"velocity":65,"programNumber":25},{"time":234718.19249999803,"duration":211.2674999999872,"noteNumber":52,"velocity":65,"programNumber":25},{"time":234929.459999998,"duration":211.2674999999872,"noteNumber":45,"velocity":65,"programNumber":25},{"time":234929.459999998,"duration":211.2674999999872,"noteNumber":52,"velocity":65,"programNumber":25},{"time":235140.727499998,"duration":211.2674999999872,"noteNumber":45,"velocity":65,"programNumber":25},{"time":235140.727499998,"duration":211.2674999999872,"noteNumber":52,"velocity":65,"programNumber":25},{"time":235351.994999998,"duration":211.2674999999872,"noteNumber":45,"velocity":65,"programNumber":25},{"time":235351.994999998,"duration":211.2674999999872,"noteNumber":52,"velocity":65,"programNumber":25},{"time":235563.26249999797,"duration":211.2674999999872,"noteNumber":45,"velocity":65,"programNumber":25},{"time":235563.26249999797,"duration":211.2674999999872,"noteNumber":52,"velocity":65,"programNumber":25},{"time":235774.52999999796,"duration":211.2674999999872,"noteNumber":48,"velocity":65,"programNumber":25},{"time":235774.52999999796,"duration":211.2674999999872,"noteNumber":41,"velocity":65,"programNumber":25},{"time":235985.79749999795,"duration":211.2674999999872,"noteNumber":41,"velocity":65,"programNumber":25},{"time":235985.79749999795,"duration":211.2674999999872,"noteNumber":48,"velocity":65,"programNumber":25},{"time":236197.06499999794,"duration":211.2674999999872,"noteNumber":41,"velocity":65,"programNumber":25},{"time":236197.06499999794,"duration":211.2674999999872,"noteNumber":48,"velocity":65,"programNumber":25},{"time":236408.33249999792,"duration":211.2674999999872,"noteNumber":41,"velocity":65,"programNumber":25},{"time":236408.33249999792,"duration":211.2674999999872,"noteNumber":48,"velocity":65,"programNumber":25},{"time":236619.5999999979,"duration":211.2674999999872,"noteNumber":40,"velocity":65,"programNumber":25},{"time":236619.5999999979,"duration":211.2674999999872,"noteNumber":47,"velocity":65,"programNumber":25},{"time":236830.8674999979,"duration":211.2674999999872,"noteNumber":40,"velocity":65,"programNumber":25},{"time":236830.8674999979,"duration":211.2674999999872,"noteNumber":47,"velocity":65,"programNumber":25},{"time":237042.13499999788,"duration":211.2674999999872,"noteNumber":40,"velocity":65,"programNumber":25},{"time":237042.13499999788,"duration":211.2674999999872,"noteNumber":47,"velocity":65,"programNumber":25},{"time":237253.40249999787,"duration":211.2674999999872,"noteNumber":40,"velocity":65,"programNumber":25},{"time":237253.40249999787,"duration":211.2674999999872,"noteNumber":47,"velocity":65,"programNumber":25},{"time":237464.66999999786,"duration":211.2674999999872,"noteNumber":52,"velocity":65,"programNumber":25},{"time":237464.66999999786,"duration":211.2674999999872,"noteNumber":45,"velocity":65,"programNumber":25},{"time":237675.93749999785,"duration":211.2674999999872,"noteNumber":45,"velocity":65,"programNumber":25},{"time":237675.93749999785,"duration":211.2674999999872,"noteNumber":52,"velocity":65,"programNumber":25},{"time":237887.20499999783,"duration":211.2674999999872,"noteNumber":45,"velocity":65,"programNumber":25},{"time":237887.20499999783,"duration":211.2674999999872,"noteNumber":52,"velocity":65,"programNumber":25},{"time":238098.47249999782,"duration":211.2674999999872,"noteNumber":45,"velocity":65,"programNumber":25},{"time":238098.47249999782,"duration":211.2674999999872,"noteNumber":52,"velocity":65,"programNumber":25},{"time":238309.7399999978,"duration":211.2674999999872,"noteNumber":43,"velocity":65,"programNumber":25},{"time":238309.7399999978,"duration":211.2674999999872,"noteNumber":50,"velocity":65,"programNumber":25},{"time":238521.0074999978,"duration":211.2674999999872,"noteNumber":43,"velocity":65,"programNumber":25},{"time":238521.0074999978,"duration":211.2674999999872,"noteNumber":50,"velocity":65,"programNumber":25},{"time":238732.27499999778,"duration":211.2674999999872,"noteNumber":43,"velocity":65,"programNumber":25},{"time":238732.27499999778,"duration":211.2674999999872,"noteNumber":50,"velocity":65,"programNumber":25},{"time":238943.54249999777,"duration":211.2674999999872,"noteNumber":43,"velocity":65,"programNumber":25},{"time":238943.54249999777,"duration":211.2674999999872,"noteNumber":50,"velocity":65,"programNumber":25},{"time":239154.80999999776,"duration":211.2674999999872,"noteNumber":41,"velocity":65,"programNumber":25},{"time":239154.80999999776,"duration":211.2674999999872,"noteNumber":48,"velocity":65,"programNumber":25},{"time":239366.07749999774,"duration":211.2674999999872,"noteNumber":41,"velocity":65,"programNumber":25},{"time":239366.07749999774,"duration":211.2674999999872,"noteNumber":48,"velocity":65,"programNumber":25},{"time":239577.34499999773,"duration":211.2674999999872,"noteNumber":41,"velocity":65,"programNumber":25},{"time":239577.34499999773,"duration":211.2674999999872,"noteNumber":48,"velocity":65,"programNumber":25},{"time":239788.61249999772,"duration":211.2674999999872,"noteNumber":41,"velocity":65,"programNumber":25},{"time":239788.61249999772,"duration":211.2674999999872,"noteNumber":48,"velocity":65,"programNumber":25},{"time":239999.8799999977,"duration":211.2674999999872,"noteNumber":43,"velocity":65,"programNumber":25},{"time":239999.8799999977,"duration":211.2674999999872,"noteNumber":50,"velocity":65,"programNumber":25},{"time":240211.1474999977,"duration":211.2674999999872,"noteNumber":43,"velocity":65,"programNumber":25},{"time":240211.1474999977,"duration":211.2674999999872,"noteNumber":50,"velocity":65,"programNumber":25},{"time":240422.41499999768,"duration":211.2674999999872,"noteNumber":43,"velocity":65,"programNumber":25},{"time":240422.41499999768,"duration":211.2674999999872,"noteNumber":50,"velocity":65,"programNumber":25},{"time":240633.68249999767,"duration":211.2674999999872,"noteNumber":43,"velocity":65,"programNumber":25},{"time":240633.68249999767,"duration":211.2674999999872,"noteNumber":50,"velocity":65,"programNumber":25},{"time":240844.94999999765,"duration":211.2674999999872,"noteNumber":45,"velocity":65,"programNumber":25},{"time":240844.94999999765,"duration":211.2674999999872,"noteNumber":52,"velocity":65,"programNumber":25},{"time":241056.21749999764,"duration":211.2674999999872,"noteNumber":45,"velocity":65,"programNumber":25},{"time":241056.21749999764,"duration":211.2674999999872,"noteNumber":52,"velocity":65,"programNumber":25},{"time":241267.48499999763,"duration":211.2674999999872,"noteNumber":45,"velocity":65,"programNumber":25},{"time":241267.48499999763,"duration":211.2674999999872,"noteNumber":52,"velocity":65,"programNumber":25},{"time":241478.75249999762,"duration":211.2674999999872,"noteNumber":45,"velocity":65,"programNumber":25},{"time":241478.75249999762,"duration":211.2674999999872,"noteNumber":52,"velocity":65,"programNumber":25},{"time":241690.0199999976,"duration":211.2674999999872,"noteNumber":43,"velocity":65,"programNumber":25},{"time":241690.0199999976,"duration":211.2674999999872,"noteNumber":50,"velocity":65,"programNumber":25},{"time":241901.2874999976,"duration":211.2674999999872,"noteNumber":43,"velocity":65,"programNumber":25},{"time":241901.2874999976,"duration":211.2674999999872,"noteNumber":50,"velocity":65,"programNumber":25},{"time":242112.55499999758,"duration":211.2674999999872,"noteNumber":43,"velocity":65,"programNumber":25},{"time":242112.55499999758,"duration":211.2674999999872,"noteNumber":50,"velocity":65,"programNumber":25},{"time":242323.82249999756,"duration":211.2674999999872,"noteNumber":43,"velocity":65,"programNumber":25},{"time":242323.82249999756,"duration":211.2674999999872,"noteNumber":50,"velocity":65,"programNumber":25},{"time":242535.08999999755,"duration":211.2674999999872,"noteNumber":41,"velocity":65,"programNumber":25},{"time":242535.08999999755,"duration":211.2674999999872,"noteNumber":48,"velocity":65,"programNumber":25},{"time":242746.35749999754,"duration":211.2674999999872,"noteNumber":41,"velocity":65,"programNumber":25},{"time":242746.35749999754,"duration":211.2674999999872,"noteNumber":48,"velocity":65,"programNumber":25},{"time":242957.62499999753,"duration":211.2674999999872,"noteNumber":41,"velocity":65,"programNumber":25},{"time":242957.62499999753,"duration":211.2674999999872,"noteNumber":48,"velocity":65,"programNumber":25},{"time":243168.8924999975,"duration":211.2674999999872,"noteNumber":41,"velocity":65,"programNumber":25},{"time":243168.8924999975,"duration":211.2674999999872,"noteNumber":48,"velocity":65,"programNumber":25},{"time":243380.1599999975,"duration":211.2674999999872,"noteNumber":43,"velocity":65,"programNumber":25},{"time":243380.1599999975,"duration":211.2674999999872,"noteNumber":50,"velocity":65,"programNumber":25},{"time":243591.4274999975,"duration":211.2674999999872,"noteNumber":43,"velocity":65,"programNumber":25},{"time":243591.4274999975,"duration":211.2674999999872,"noteNumber":50,"velocity":65,"programNumber":25},{"time":243802.69499999747,"duration":211.2674999999872,"noteNumber":43,"velocity":65,"programNumber":25},{"time":243802.69499999747,"duration":211.2674999999872,"noteNumber":50,"velocity":65,"programNumber":25},{"time":244013.96249999746,"duration":211.2674999999872,"noteNumber":43,"velocity":65,"programNumber":25},{"time":244013.96249999746,"duration":211.2674999999872,"noteNumber":50,"velocity":65,"programNumber":25},{"time":244225.22999999745,"duration":211.2674999999872,"noteNumber":45,"velocity":65,"programNumber":25},{"time":244225.22999999745,"duration":211.2674999999872,"noteNumber":52,"velocity":65,"programNumber":25},{"time":244436.49749999744,"duration":211.2674999999872,"noteNumber":45,"velocity":65,"programNumber":25},{"time":244436.49749999744,"duration":211.2674999999872,"noteNumber":52,"velocity":65,"programNumber":25},{"time":244647.76499999742,"duration":211.2674999999872,"noteNumber":45,"velocity":65,"programNumber":25},{"time":244647.76499999742,"duration":211.2674999999872,"noteNumber":52,"velocity":65,"programNumber":25},{"time":244859.0324999974,"duration":211.2674999999872,"noteNumber":45,"velocity":65,"programNumber":25},{"time":244859.0324999974,"duration":211.2674999999872,"noteNumber":52,"velocity":65,"programNumber":25},{"time":245070.2999999974,"duration":211.2674999999872,"noteNumber":43,"velocity":65,"programNumber":25},{"time":245070.2999999974,"duration":211.2674999999872,"noteNumber":50,"velocity":65,"programNumber":25},{"time":245281.56749999739,"duration":211.2674999999872,"noteNumber":43,"velocity":65,"programNumber":25},{"time":245281.56749999739,"duration":211.2674999999872,"noteNumber":50,"velocity":65,"programNumber":25},{"time":245492.83499999737,"duration":211.2674999999872,"noteNumber":43,"velocity":65,"programNumber":25},{"time":245492.83499999737,"duration":211.2674999999872,"noteNumber":50,"velocity":65,"programNumber":25},{"time":245704.10249999736,"duration":211.2674999999872,"noteNumber":43,"velocity":65,"programNumber":25},{"time":245704.10249999736,"duration":211.2674999999872,"noteNumber":50,"velocity":65,"programNumber":25},{"time":245915.36999999735,"duration":211.2674999999872,"noteNumber":41,"velocity":65,"programNumber":25},{"time":245915.36999999735,"duration":211.2674999999872,"noteNumber":48,"velocity":65,"programNumber":25},{"time":246126.63749999733,"duration":211.2674999999872,"noteNumber":41,"velocity":65,"programNumber":25},{"time":246126.63749999733,"duration":211.2674999999872,"noteNumber":48,"velocity":65,"programNumber":25},{"time":246337.90499999732,"duration":211.2674999999872,"noteNumber":41,"velocity":65,"programNumber":25},{"time":246337.90499999732,"duration":211.2674999999872,"noteNumber":48,"velocity":65,"programNumber":25},{"time":246549.1724999973,"duration":211.2674999999872,"noteNumber":41,"velocity":65,"programNumber":25},{"time":246549.1724999973,"duration":211.2674999999872,"noteNumber":48,"velocity":65,"programNumber":25},{"time":246760.4399999973,"duration":211.2674999999872,"noteNumber":43,"velocity":65,"programNumber":25},{"time":246760.4399999973,"duration":211.2674999999872,"noteNumber":50,"velocity":65,"programNumber":25},{"time":246971.70749999728,"duration":211.2674999999872,"noteNumber":43,"velocity":65,"programNumber":25},{"time":246971.70749999728,"duration":211.2674999999872,"noteNumber":50,"velocity":65,"programNumber":25},{"time":247182.97499999727,"duration":211.2674999999872,"noteNumber":43,"velocity":65,"programNumber":25},{"time":247182.97499999727,"duration":211.2674999999872,"noteNumber":50,"velocity":65,"programNumber":25},{"time":247394.24249999726,"duration":211.2674999999872,"noteNumber":43,"velocity":65,"programNumber":25},{"time":247394.24249999726,"duration":211.2674999999872,"noteNumber":50,"velocity":65,"programNumber":25},{"time":247605.50999999724,"duration":211.2674999999872,"noteNumber":45,"velocity":65,"programNumber":25},{"time":247605.50999999724,"duration":211.2674999999872,"noteNumber":52,"velocity":65,"programNumber":25},{"time":247816.77749999723,"duration":211.2674999999872,"noteNumber":45,"velocity":65,"programNumber":25},{"time":247816.77749999723,"duration":211.2674999999872,"noteNumber":52,"velocity":65,"programNumber":25},{"time":248028.04499999722,"duration":211.2674999999872,"noteNumber":45,"velocity":65,"programNumber":25},{"time":248028.04499999722,"duration":211.2674999999872,"noteNumber":52,"velocity":65,"programNumber":25},{"time":248239.3124999972,"duration":211.2674999999872,"noteNumber":45,"velocity":65,"programNumber":25},{"time":248239.3124999972,"duration":211.2674999999872,"noteNumber":52,"velocity":65,"programNumber":25},{"time":248450.5799999972,"duration":211.2674999999872,"noteNumber":43,"velocity":65,"programNumber":25},{"time":248450.5799999972,"duration":211.2674999999872,"noteNumber":50,"velocity":65,"programNumber":25},{"time":248661.84749999718,"duration":211.2674999999872,"noteNumber":43,"velocity":65,"programNumber":25},{"time":248661.84749999718,"duration":211.2674999999872,"noteNumber":50,"velocity":65,"programNumber":25},{"time":248873.11499999717,"duration":211.2674999999872,"noteNumber":43,"velocity":65,"programNumber":25},{"time":248873.11499999717,"duration":211.2674999999872,"noteNumber":50,"velocity":65,"programNumber":25},{"time":249084.38249999715,"duration":211.2674999999872,"noteNumber":43,"velocity":65,"programNumber":25},{"time":249084.38249999715,"duration":211.2674999999872,"noteNumber":50,"velocity":65,"programNumber":25},{"time":249506.9174999971,"duration":211.2674999999872,"noteNumber":50,"velocity":90,"programNumber":25},{"time":249718.1849999971,"duration":211.2674999999872,"noteNumber":52,"velocity":90,"programNumber":25},{"time":249295.64999999714,"duration":633.8024999999325,"noteNumber":41,"velocity":90,"programNumber":25},{"time":249929.45249999707,"duration":422.5349999999744,"noteNumber":55,"velocity":100,"programNumber":25},{"time":250351.98749999705,"duration":211.2674999999872,"noteNumber":50,"velocity":90,"programNumber":25},{"time":250563.25499999704,"duration":211.2674999999872,"noteNumber":52,"velocity":90,"programNumber":25},{"time":250140.71999999706,"duration":633.8024999999616,"noteNumber":43,"velocity":90,"programNumber":25},{"time":250774.52249999702,"duration":422.5349999999744,"noteNumber":55,"velocity":100,"programNumber":25},{"time":251408.32499999698,"duration":211.2674999999872,"noteNumber":57,"velocity":90,"programNumber":25},{"time":250985.789999997,"duration":633.8024999999616,"noteNumber":45,"velocity":90,"programNumber":25},{"time":251619.59249999697,"duration":422.5349999999744,"noteNumber":55,"velocity":100,"programNumber":25},{"time":252042.12749999695,"duration":211.2674999999872,"noteNumber":50,"velocity":90,"programNumber":25},{"time":252253.39499999693,"duration":211.2674999999872,"noteNumber":52,"velocity":90,"programNumber":25},{"time":251830.85999999696,"duration":633.8024999999616,"noteNumber":43,"velocity":90,"programNumber":25},{"time":252464.66249999692,"duration":422.5349999999744,"noteNumber":55,"velocity":100,"programNumber":25},{"time":252887.1974999969,"duration":211.2674999999872,"noteNumber":50,"velocity":90,"programNumber":25},{"time":253098.46499999688,"duration":211.2674999999872,"noteNumber":52,"velocity":90,"programNumber":25},{"time":252675.9299999969,"duration":633.8024999999616,"noteNumber":41,"velocity":90,"programNumber":25},{"time":253309.73249999687,"duration":422.5349999999744,"noteNumber":55,"velocity":100,"programNumber":25},{"time":253732.26749999684,"duration":211.2674999999872,"noteNumber":50,"velocity":90,"programNumber":25},{"time":253943.53499999683,"duration":211.2674999999872,"noteNumber":52,"velocity":90,"programNumber":25},{"time":253520.99999999686,"duration":633.8024999999616,"noteNumber":43,"velocity":90,"programNumber":25},{"time":254154.80249999682,"duration":422.5349999999744,"noteNumber":55,"velocity":100,"programNumber":25},{"time":254788.60499999678,"duration":211.2674999999872,"noteNumber":57,"velocity":90,"programNumber":25},{"time":254366.0699999968,"duration":633.8024999999616,"noteNumber":45,"velocity":90,"programNumber":25},{"time":254999.87249999677,"duration":422.5349999999744,"noteNumber":55,"velocity":90,"programNumber":25},{"time":255422.40749999674,"duration":211.2674999999872,"noteNumber":50,"velocity":90,"programNumber":25},{"time":255633.67499999673,"duration":211.2674999999872,"noteNumber":52,"velocity":90,"programNumber":25},{"time":255211.13999999675,"duration":633.8024999999616,"noteNumber":43,"velocity":90,"programNumber":25},{"time":255844.94249999672,"duration":422.5349999999744,"noteNumber":55,"velocity":90,"programNumber":25},{"time":256267.4774999967,"duration":211.2674999999872,"noteNumber":50,"velocity":90,"programNumber":25},{"time":256478.74499999668,"duration":211.2674999999872,"noteNumber":52,"velocity":90,"programNumber":25},{"time":256056.2099999967,"duration":633.8024999999616,"noteNumber":41,"velocity":90,"programNumber":25},{"time":256690.01249999666,"duration":422.5349999999744,"noteNumber":55,"velocity":90,"programNumber":25},{"time":257112.54749999664,"duration":211.2674999999872,"noteNumber":50,"velocity":90,"programNumber":25},{"time":257323.81499999663,"duration":211.2674999999872,"noteNumber":52,"velocity":90,"programNumber":25},{"time":256901.27999999665,"duration":633.8024999999616,"noteNumber":43,"velocity":90,"programNumber":25},{"time":257535.0824999966,"duration":422.5349999999744,"noteNumber":55,"velocity":100,"programNumber":25},{"time":258168.88499999658,"duration":211.2674999999872,"noteNumber":57,"velocity":90,"programNumber":25},{"time":257746.3499999966,"duration":633.8024999999616,"noteNumber":45,"velocity":90,"programNumber":25},{"time":258380.15249999656,"duration":422.5349999999744,"noteNumber":55,"velocity":100,"programNumber":25},{"time":258802.68749999654,"duration":211.2674999999872,"noteNumber":50,"velocity":90,"programNumber":25},{"time":259013.95499999652,"duration":211.2674999999872,"noteNumber":52,"velocity":90,"programNumber":25},{"time":258591.41999999655,"duration":633.8024999999616,"noteNumber":43,"velocity":90,"programNumber":25},{"time":259225.2224999965,"duration":422.5349999999744,"noteNumber":55,"velocity":90,"programNumber":25},{"time":259647.75749999649,"duration":211.2674999999872,"noteNumber":50,"velocity":90,"programNumber":25},{"time":259859.02499999647,"duration":211.2674999999872,"noteNumber":52,"velocity":90,"programNumber":25},{"time":259436.4899999965,"duration":633.8024999999616,"noteNumber":41,"velocity":90,"programNumber":25},{"time":260070.29249999646,"duration":422.5349999999744,"noteNumber":55,"velocity":100,"programNumber":25},{"time":260492.82749999643,"duration":211.2674999999872,"noteNumber":50,"velocity":90,"programNumber":25},{"time":260704.09499999642,"duration":211.2674999999872,"noteNumber":52,"velocity":90,"programNumber":25},{"time":260281.55999999645,"duration":633.8024999999616,"noteNumber":43,"velocity":90,"programNumber":25},{"time":260915.3624999964,"duration":422.5349999999744,"noteNumber":55,"velocity":90,"programNumber":25},{"time":261549.16499999637,"duration":211.2674999999872,"noteNumber":57,"velocity":90,"programNumber":25},{"time":261126.6299999964,"duration":633.8024999999616,"noteNumber":45,"velocity":90,"programNumber":25},{"time":261760.43249999636,"duration":422.5350000000035,"noteNumber":55,"velocity":90,"programNumber":25},{"time":262182.96749999636,"duration":211.2675000000163,"noteNumber":50,"velocity":90,"programNumber":25},{"time":262394.2349999964,"duration":211.2675000000163,"noteNumber":52,"velocity":90,"programNumber":25},{"time":261971.69999999634,"duration":633.8025000000489,"noteNumber":43,"velocity":90,"programNumber":25},{"time":262605.5024999964,"duration":422.5350000000326,"noteNumber":55,"velocity":90,"programNumber":25},{"time":263028.0374999964,"duration":211.2675000000163,"noteNumber":52,"velocity":67,"programNumber":25},{"time":263239.30499999644,"duration":211.2675000000163,"noteNumber":57,"velocity":67,"programNumber":25},{"time":262816.7699999964,"duration":633.8025000000489,"noteNumber":41,"velocity":68,"programNumber":25},{"time":263873.1074999965,"duration":211.2675000000163,"noteNumber":50,"velocity":65,"programNumber":25},{"time":263450.57249999646,"duration":633.8025000000489,"noteNumber":55,"velocity":100,"programNumber":25},{"time":264084.3749999965,"duration":211.2675000000163,"noteNumber":52,"velocity":65,"programNumber":25},{"time":263661.8399999965,"duration":633.8025000000489,"noteNumber":43,"velocity":66,"programNumber":25},{"time":264718.17749999656,"duration":211.2675000000163,"noteNumber":52,"velocity":67,"programNumber":25},{"time":264295.6424999965,"duration":633.8025000000489,"noteNumber":55,"velocity":100,"programNumber":25},{"time":264929.4449999966,"duration":211.2675000000163,"noteNumber":57,"velocity":67,"programNumber":25},{"time":264506.90999999654,"duration":633.8025000000489,"noteNumber":45,"velocity":68,"programNumber":25},{"time":265563.2474999966,"duration":211.2675000000163,"noteNumber":50,"velocity":65,"programNumber":25},{"time":265140.7124999966,"duration":633.8025000000489,"noteNumber":55,"velocity":100,"programNumber":25},{"time":265774.51499999664,"duration":211.2675000000163,"noteNumber":52,"velocity":65,"programNumber":25},{"time":265351.9799999966,"duration":633.8025000000489,"noteNumber":43,"velocity":66,"programNumber":25},{"time":266408.3174999967,"duration":211.2675000000163,"noteNumber":50,"velocity":63,"programNumber":25},{"time":265985.78249999665,"duration":633.8025000000489,"noteNumber":55,"velocity":100,"programNumber":25},{"time":266619.5849999967,"duration":211.2675000000163,"noteNumber":52,"velocity":63,"programNumber":25},{"time":266197.04999999667,"duration":633.8025000000489,"noteNumber":41,"velocity":64,"programNumber":25},{"time":266830.8524999967,"duration":422.5350000000326,"noteNumber":55,"velocity":85,"programNumber":25},{"time":267253.38749999675,"duration":211.2675000000163,"noteNumber":50,"velocity":61,"programNumber":25},{"time":267464.65499999677,"duration":211.2675000000163,"noteNumber":52,"velocity":61,"programNumber":25},{"time":267042.11999999674,"duration":633.8025000000489,"noteNumber":43,"velocity":75,"programNumber":25},{"time":267675.9224999968,"duration":211.2675000000163,"noteNumber":55,"velocity":100,"programNumber":25},{"time":268098.4574999968,"duration":211.2675000000163,"noteNumber":52,"velocity":67,"programNumber":25},{"time":268309.72499999683,"duration":211.2675000000163,"noteNumber":57,"velocity":67,"programNumber":25},{"time":267887.1899999968,"duration":633.8025000000489,"noteNumber":45,"velocity":68,"programNumber":25},{"time":268943.5274999969,"duration":211.2675000000163,"noteNumber":50,"velocity":65,"programNumber":25},{"time":268520.99249999685,"duration":633.8025000000489,"noteNumber":55,"velocity":100,"programNumber":25},{"time":269154.7949999969,"duration":211.2675000000163,"noteNumber":52,"velocity":65,"programNumber":25},{"time":268732.25999999687,"duration":633.8025000000489,"noteNumber":43,"velocity":66,"programNumber":25},{"time":269788.59749999695,"duration":211.2675000000163,"noteNumber":50,"velocity":63,"programNumber":25},{"time":269366.0624999969,"duration":633.8025000000489,"noteNumber":55,"velocity":100,"programNumber":25},{"time":269999.86499999696,"duration":211.2675000000163,"noteNumber":52,"velocity":63,"programNumber":25},{"time":269577.32999999693,"duration":633.8025000000489,"noteNumber":41,"velocity":64,"programNumber":25},{"time":270211.132499997,"duration":422.5350000000326,"noteNumber":55,"velocity":85,"programNumber":25},{"time":270633.667499997,"duration":211.2675000000163,"noteNumber":50,"velocity":61,"programNumber":25},{"time":270844.934999997,"duration":211.2675000000163,"noteNumber":52,"velocity":61,"programNumber":25},{"time":270422.399999997,"duration":633.8025000000489,"noteNumber":43,"velocity":75,"programNumber":25},{"time":271056.20249999705,"duration":211.2675000000163,"noteNumber":55,"velocity":100,"programNumber":25},{"time":271478.7374999971,"duration":211.2675000000163,"noteNumber":52,"velocity":67,"programNumber":25},{"time":271690.0049999971,"duration":211.2675000000163,"noteNumber":57,"velocity":67,"programNumber":25},{"time":271267.46999999706,"duration":633.8025000000489,"noteNumber":45,"velocity":68,"programNumber":25},{"time":272323.80749999714,"duration":211.2675000000163,"noteNumber":50,"velocity":65,"programNumber":25},{"time":271901.2724999971,"duration":633.8025000000489,"noteNumber":55,"velocity":100,"programNumber":25},{"time":272535.07499999716,"duration":211.2675000000163,"noteNumber":52,"velocity":65,"programNumber":25},{"time":272112.5399999971,"duration":633.8025000000489,"noteNumber":43,"velocity":66,"programNumber":25},{"time":273168.8774999972,"duration":211.2675000000163,"noteNumber":50,"velocity":63,"programNumber":25},{"time":272746.3424999972,"duration":633.8025000000489,"noteNumber":55,"velocity":100,"programNumber":25},{"time":273380.1449999972,"duration":211.2675000000163,"noteNumber":52,"velocity":63,"programNumber":25},{"time":272957.6099999972,"duration":633.8025000000489,"noteNumber":41,"velocity":64,"programNumber":25},{"time":273591.41249999724,"duration":422.5350000000326,"noteNumber":55,"velocity":85,"programNumber":25},{"time":274013.9474999973,"duration":211.2675000000163,"noteNumber":50,"velocity":61,"programNumber":25},{"time":274225.2149999973,"duration":211.2675000000163,"noteNumber":52,"velocity":61,"programNumber":25},{"time":273802.67999999726,"duration":633.8025000000489,"noteNumber":43,"velocity":75,"programNumber":25},{"time":274436.4824999973,"duration":211.2675000000163,"noteNumber":55,"velocity":100,"programNumber":25},{"time":274859.01749999734,"duration":211.2675000000163,"noteNumber":52,"velocity":67,"programNumber":25},{"time":275070.28499999736,"duration":211.2675000000163,"noteNumber":57,"velocity":67,"programNumber":25},{"time":274647.7499999973,"duration":633.8025000000489,"noteNumber":45,"velocity":68,"programNumber":25},{"time":275704.0874999974,"duration":211.2675000000163,"noteNumber":50,"velocity":65,"programNumber":25},{"time":275281.5524999974,"duration":633.8025000000489,"noteNumber":55,"velocity":100,"programNumber":25},{"time":275915.3549999974,"duration":211.2675000000163,"noteNumber":52,"velocity":65,"programNumber":25},{"time":275492.8199999974,"duration":633.8025000000489,"noteNumber":43,"velocity":66,"programNumber":25},{"time":276549.15749999747,"duration":211.2674999999581,"noteNumber":52,"velocity":67,"programNumber":25},{"time":276126.62249999744,"duration":633.8024999999907,"noteNumber":55,"velocity":100,"programNumber":25},{"time":276760.4249999974,"duration":211.2675000000163,"noteNumber":57,"velocity":67,"programNumber":25},{"time":276337.88999999745,"duration":633.8024999999907,"noteNumber":41,"velocity":68,"programNumber":25},{"time":277394.2274999974,"duration":211.2675000000163,"noteNumber":50,"velocity":65,"programNumber":25},{"time":276971.69249999744,"duration":633.8024999999907,"noteNumber":55,"velocity":100,"programNumber":25},{"time":277605.49499999743,"duration":211.2675000000163,"noteNumber":52,"velocity":65,"programNumber":25},{"time":277182.9599999974,"duration":633.8025000000489,"noteNumber":43,"velocity":66,"programNumber":25},{"time":278239.2974999975,"duration":211.2675000000163,"noteNumber":50,"velocity":63,"programNumber":25},{"time":277816.76249999745,"duration":633.8025000000489,"noteNumber":55,"velocity":100,"programNumber":25},{"time":278450.5649999975,"duration":211.2674999999581,"noteNumber":52,"velocity":63,"programNumber":25},{"time":278028.02999999747,"duration":633.8024999999907,"noteNumber":45,"velocity":64,"programNumber":25},{"time":278661.83249999746,"duration":422.5349999999744,"noteNumber":55,"velocity":85,"programNumber":25},{"time":279084.36749999743,"duration":211.2675000000163,"noteNumber":50,"velocity":61,"programNumber":25},{"time":279295.63499999745,"duration":211.2674999999581,"noteNumber":52,"velocity":61,"programNumber":25},{"time":278873.0999999975,"duration":633.8024999999325,"noteNumber":43,"velocity":75,"programNumber":25},{"time":279506.9024999974,"duration":211.2675000000163,"noteNumber":55,"velocity":100,"programNumber":25},{"time":279929.43749999744,"duration":211.2675000000163,"noteNumber":52,"velocity":67,"programNumber":25},{"time":280140.70499999746,"duration":211.2675000000163,"noteNumber":57,"velocity":67,"programNumber":25},{"time":279718.1699999974,"duration":633.8025000000489,"noteNumber":41,"velocity":68,"programNumber":25},{"time":280774.5074999975,"duration":211.2674999999581,"noteNumber":50,"velocity":65,"programNumber":25},{"time":280351.9724999975,"duration":633.8024999999907,"noteNumber":55,"velocity":100,"programNumber":25},{"time":280985.77499999746,"duration":211.2675000000163,"noteNumber":52,"velocity":65,"programNumber":25},{"time":280563.2399999975,"duration":633.8024999999907,"noteNumber":43,"velocity":66,"programNumber":25},{"time":281619.57749999745,"duration":211.2675000000163,"noteNumber":50,"velocity":63,"programNumber":25},{"time":281197.0424999975,"duration":633.8024999999907,"noteNumber":55,"velocity":100,"programNumber":25},{"time":281830.84499999747,"duration":211.2675000000163,"noteNumber":52,"velocity":63,"programNumber":25},{"time":281408.30999999744,"duration":633.8025000000489,"noteNumber":45,"velocity":64,"programNumber":25},{"time":282042.1124999975,"duration":422.5350000000326,"noteNumber":55,"velocity":85,"programNumber":25},{"time":282464.6474999975,"duration":211.2675000000163,"noteNumber":50,"velocity":61,"programNumber":25},{"time":282675.91499999753,"duration":211.2674999999581,"noteNumber":52,"velocity":61,"programNumber":25},{"time":282253.3799999975,"duration":633.8024999999907,"noteNumber":43,"velocity":75,"programNumber":25},{"time":282887.1824999975,"duration":211.2675000000163,"noteNumber":55,"velocity":100,"programNumber":25},{"time":283309.71749999747,"duration":211.2675000000163,"noteNumber":52,"velocity":67,"programNumber":25},{"time":283520.9849999975,"duration":211.2674999999581,"noteNumber":57,"velocity":67,"programNumber":25},{"time":283098.4499999975,"duration":633.8024999999325,"noteNumber":41,"velocity":68,"programNumber":25},{"time":284154.7874999975,"duration":211.2675000000163,"noteNumber":50,"velocity":65,"programNumber":25},{"time":283732.25249999744,"duration":633.8025000000489,"noteNumber":55,"velocity":100,"programNumber":25},{"time":284366.0549999975,"duration":211.2675000000163,"noteNumber":52,"velocity":65,"programNumber":25},{"time":283943.51999999746,"duration":633.8025000000489,"noteNumber":43,"velocity":66,"programNumber":25},{"time":284999.85749999754,"duration":211.2674999999581,"noteNumber":50,"velocity":63,"programNumber":25},{"time":284577.3224999975,"duration":633.8024999999907,"noteNumber":55,"velocity":100,"programNumber":25},{"time":285211.1249999975,"duration":211.2675000000163,"noteNumber":52,"velocity":63,"programNumber":25},{"time":284788.5899999975,"duration":633.8024999999907,"noteNumber":45,"velocity":64,"programNumber":25},{"time":285422.3924999975,"duration":422.5349999999744,"noteNumber":55,"velocity":85,"programNumber":25},{"time":285844.9274999975,"duration":211.2675000000163,"noteNumber":50,"velocity":61,"programNumber":25},{"time":286056.1949999975,"duration":211.2675000000163,"noteNumber":52,"velocity":61,"programNumber":25},{"time":285633.6599999975,"duration":633.8025000000489,"noteNumber":43,"velocity":75,"programNumber":25},{"time":286267.4624999975,"duration":211.2675000000163,"noteNumber":55,"velocity":100,"programNumber":25},{"time":286689.99749999755,"duration":211.2675000000163,"noteNumber":52,"velocity":67,"programNumber":25},{"time":286901.26499999757,"duration":211.2674999999581,"noteNumber":57,"velocity":67,"programNumber":25},{"time":286478.72999999754,"duration":633.8024999999907,"noteNumber":41,"velocity":68,"programNumber":25},{"time":287535.0674999975,"duration":211.2675000000163,"noteNumber":50,"velocity":65,"programNumber":25},{"time":287112.5324999975,"duration":633.8024999999907,"noteNumber":55,"velocity":100,"programNumber":25},{"time":287746.3349999975,"duration":211.2674999999581,"noteNumber":52,"velocity":65,"programNumber":25},{"time":287323.79999999754,"duration":633.8024999999325,"noteNumber":43,"velocity":66,"programNumber":25},{"time":288380.1374999975,"duration":211.2675000000163,"noteNumber":52,"velocity":67,"programNumber":25},{"time":287957.6024999975,"duration":633.8025000000489,"noteNumber":55,"velocity":100,"programNumber":25},{"time":288591.4049999975,"duration":211.2675000000163,"noteNumber":57,"velocity":67,"programNumber":25},{"time":288168.8699999975,"duration":633.8025000000489,"noteNumber":45,"velocity":68,"programNumber":25},{"time":289225.2074999976,"duration":211.2674999999581,"noteNumber":50,"velocity":65,"programNumber":25},{"time":288802.67249999754,"duration":633.8024999999907,"noteNumber":55,"velocity":100,"programNumber":25},{"time":289436.47499999753,"duration":211.2675000000163,"noteNumber":52,"velocity":65,"programNumber":25},{"time":289013.93999999756,"duration":633.8024999999907,"noteNumber":43,"velocity":66,"programNumber":25},{"time":290070.2774999975,"duration":211.2675000000163,"noteNumber":50,"velocity":63,"programNumber":25},{"time":289647.74249999755,"duration":633.8024999999907,"noteNumber":55,"velocity":100,"programNumber":25},{"time":290281.54499999754,"duration":211.2675000000163,"noteNumber":52,"velocity":63,"programNumber":25},{"time":289859.0099999975,"duration":633.8025000000489,"noteNumber":41,"velocity":64,"programNumber":25},{"time":290492.81249999756,"duration":422.5350000000326,"noteNumber":55,"velocity":85,"programNumber":25},{"time":290915.3474999976,"duration":211.2675000000163,"noteNumber":50,"velocity":61,"programNumber":25},{"time":291126.6149999976,"duration":211.2674999999581,"noteNumber":52,"velocity":61,"programNumber":25},{"time":290704.0799999976,"duration":633.8024999999907,"noteNumber":43,"velocity":75,"programNumber":25},{"time":291337.88249999756,"duration":211.2675000000163,"noteNumber":55,"velocity":100,"programNumber":25},{"time":291760.41749999754,"duration":211.2675000000163,"noteNumber":52,"velocity":67,"programNumber":25},{"time":291971.68499999755,"duration":211.2674999999581,"noteNumber":57,"velocity":67,"programNumber":25},{"time":291549.1499999976,"duration":633.8024999999325,"noteNumber":45,"velocity":68,"programNumber":25},{"time":292605.48749999754,"duration":211.2675000000163,"noteNumber":50,"velocity":65,"programNumber":25},{"time":292182.9524999975,"duration":633.8025000000489,"noteNumber":55,"velocity":100,"programNumber":25},{"time":292816.75499999756,"duration":211.2675000000163,"noteNumber":52,"velocity":65,"programNumber":25},{"time":292394.2199999975,"duration":633.8025000000489,"noteNumber":43,"velocity":66,"programNumber":25},{"time":293028.0224999976,"duration":630.2813749999623,"noteNumber":55,"velocity":100,"programNumber":25}]]}