{"tracks":[[{"time":2410.695,"duration":535.71,"noteNumber":62,"velocity":107,"programNumber":25},{"time":2946.405,"duration":535.71,"noteNumber":67,"velocity":107,"programNumber":25},{"time":2678.55,"duration":803.565,"noteNumber":57,"velocity":107,"programNumber":25},{"time":3482.1150000000002,"duration":535.71,"noteNumber":66,"velocity":107,"programNumber":25},{"time":2142.84,"duration":1874.9850000000001,"noteNumber":50,"velocity":107,"programNumber":25},{"time":4017.8250000000003,"duration":267.855,"noteNumber":45,"velocity":105,"programNumber":25},{"time":3749.9700000000003,"duration":535.71,"noteNumber":62,"velocity":107,"programNumber":25},{"time":4553.535,"duration":535.7099999999991,"noteNumber":55,"velocity":107,"programNumber":25},{"time":4285.68,"duration":803.5649999999987,"noteNumber":48,"velocity":105,"programNumber":25},{"time":4821.389999999999,"duration":535.7099999999991,"noteNumber":62,"velocity":107,"programNumber":25},{"time":5357.0999999999985,"duration":535.7099999999991,"noteNumber":55,"velocity":110,"programNumber":25},{"time":5089.244999999999,"duration":803.5649999999987,"noteNumber":47,"velocity":109,"programNumber":25},{"time":5624.954999999998,"duration":535.7099999999991,"noteNumber":62,"velocity":112,"programNumber":25},{"time":5892.809999999998,"duration":401.78249999999935,"noteNumber":43,"velocity":114,"programNumber":25},{"time":6160.664999999997,"duration":267.85499999999956,"noteNumber":62,"velocity":112,"programNumber":25},{"time":6696.374999999996,"duration":535.7099999999991,"noteNumber":62,"velocity":107,"programNumber":25},{"time":7232.0849999999955,"duration":535.71,"noteNumber":67,"velocity":107,"programNumber":25},{"time":6964.229999999996,"duration":803.5649999999996,"noteNumber":57,"velocity":107,"programNumber":25},{"time":7767.7949999999955,"duration":535.71,"noteNumber":66,"velocity":107,"programNumber":25},{"time":6428.519999999997,"duration":1874.9849999999988,"noteNumber":50,"velocity":107,"programNumber":25},{"time":8303.504999999996,"duration":267.85499999999956,"noteNumber":45,"velocity":105,"programNumber":25},{"time":8035.649999999996,"duration":535.7099999999991,"noteNumber":62,"velocity":107,"programNumber":25},{"time":8839.214999999995,"duration":535.7099999999991,"noteNumber":55,"velocity":107,"programNumber":25},{"time":8571.359999999995,"duration":803.5649999999987,"noteNumber":48,"velocity":105,"programNumber":25},{"time":9107.069999999994,"duration":535.7099999999991,"noteNumber":62,"velocity":107,"programNumber":25},{"time":9642.779999999993,"duration":535.7099999999991,"noteNumber":55,"velocity":110,"programNumber":25},{"time":9374.924999999994,"duration":803.5649999999987,"noteNumber":47,"velocity":109,"programNumber":25},{"time":9910.634999999993,"duration":535.7099999999991,"noteNumber":62,"velocity":112,"programNumber":25},{"time":10178.489999999993,"duration":401.78249999999935,"noteNumber":43,"velocity":114,"programNumber":25},{"time":10446.344999999992,"duration":267.85499999999956,"noteNumber":62,"velocity":112,"programNumber":25},{"time":10982.054999999991,"duration":535.7099999999991,"noteNumber":62,"velocity":107,"programNumber":25},{"time":11517.76499999999,"duration":535.710000000001,"noteNumber":67,"velocity":107,"programNumber":25},{"time":11249.90999999999,"duration":803.5650000000005,"noteNumber":57,"velocity":107,"programNumber":25},{"time":12053.474999999991,"duration":535.7099999999991,"noteNumber":66,"velocity":107,"programNumber":25},{"time":10714.199999999992,"duration":1874.9849999999988,"noteNumber":50,"velocity":107,"programNumber":25},{"time":12589.18499999999,"duration":267.85499999999956,"noteNumber":45,"velocity":105,"programNumber":25},{"time":12321.32999999999,"duration":535.7099999999991,"noteNumber":62,"velocity":107,"programNumber":25},{"time":13124.89499999999,"duration":535.7099999999991,"noteNumber":55,"velocity":107,"programNumber":25},{"time":12857.03999999999,"duration":803.5649999999987,"noteNumber":48,"velocity":105,"programNumber":25},{"time":13392.749999999989,"duration":535.7099999999991,"noteNumber":62,"velocity":107,"programNumber":25},{"time":13928.459999999988,"duration":535.7099999999991,"noteNumber":55,"velocity":110,"programNumber":25},{"time":13660.604999999989,"duration":803.5649999999987,"noteNumber":47,"velocity":109,"programNumber":25},{"time":14196.314999999988,"duration":535.7099999999991,"noteNumber":62,"velocity":112,"programNumber":25},{"time":14464.169999999987,"duration":401.78249999999935,"noteNumber":43,"velocity":114,"programNumber":25},{"time":14732.024999999987,"duration":267.85499999999956,"noteNumber":62,"velocity":112,"programNumber":25},{"time":15267.734999999986,"duration":535.7099999999991,"noteNumber":62,"velocity":107,"programNumber":25},{"time":15803.444999999985,"duration":535.7099999999991,"noteNumber":67,"velocity":107,"programNumber":25},{"time":15535.589999999986,"duration":803.5649999999987,"noteNumber":57,"velocity":107,"programNumber":25},{"time":16339.154999999984,"duration":535.7099999999991,"noteNumber":66,"velocity":107,"programNumber":25},{"time":14999.879999999986,"duration":1874.984999999997,"noteNumber":50,"velocity":107,"programNumber":25},{"time":16874.864999999983,"duration":267.85499999999956,"noteNumber":45,"velocity":105,"programNumber":25},{"time":16607.009999999984,"duration":535.7099999999991,"noteNumber":62,"velocity":107,"programNumber":25},{"time":17410.574999999983,"duration":535.7099999999991,"noteNumber":55,"velocity":107,"programNumber":25},{"time":17142.719999999983,"duration":803.5649999999987,"noteNumber":48,"velocity":105,"programNumber":25},{"time":17678.429999999982,"duration":535.7099999999991,"noteNumber":62,"velocity":107,"programNumber":25},{"time":18214.13999999998,"duration":535.7099999999991,"noteNumber":55,"velocity":110,"programNumber":25},{"time":17946.28499999998,"duration":803.5649999999987,"noteNumber":47,"velocity":109,"programNumber":25},{"time":18481.99499999998,"duration":535.7099999999991,"noteNumber":62,"velocity":112,"programNumber":25},{"time":18749.84999999998,"duration":401.78250000000116,"noteNumber":43,"velocity":114,"programNumber":25},{"time":19017.70499999998,"duration":267.8550000000032,"noteNumber":62,"velocity":112,"programNumber":25},{"time":19553.414999999983,"duration":535.7099999999991,"noteNumber":62,"velocity":107,"programNumber":25},{"time":20089.12499999998,"duration":535.7099999999991,"noteNumber":67,"velocity":107,"programNumber":25},{"time":19821.269999999982,"duration":803.5649999999987,"noteNumber":57,"velocity":107,"programNumber":25},{"time":20624.83499999998,"duration":535.7099999999991,"noteNumber":66,"velocity":107,"programNumber":25},{"time":19285.559999999983,"duration":1874.984999999997,"noteNumber":50,"velocity":107,"programNumber":25},{"time":21160.54499999998,"duration":267.85499999999956,"noteNumber":45,"velocity":105,"programNumber":25},{"time":20892.68999999998,"duration":535.7099999999991,"noteNumber":62,"velocity":107,"programNumber":25},{"time":21696.25499999998,"duration":535.7099999999991,"noteNumber":55,"velocity":107,"programNumber":25},{"time":21428.39999999998,"duration":803.5649999999987,"noteNumber":48,"velocity":105,"programNumber":25},{"time":21964.10999999998,"duration":535.7099999999991,"noteNumber":62,"velocity":107,"programNumber":25},{"time":22499.819999999978,"duration":535.7099999999991,"noteNumber":55,"velocity":110,"programNumber":25},{"time":22231.96499999998,"duration":803.5649999999987,"noteNumber":47,"velocity":109,"programNumber":25},{"time":22767.674999999977,"duration":535.7099999999991,"noteNumber":62,"velocity":112,"programNumber":25},{"time":23035.529999999977,"duration":401.78250000000116,"noteNumber":43,"velocity":114,"programNumber":25},{"time":23303.384999999977,"duration":267.8550000000032,"noteNumber":62,"velocity":112,"programNumber":25},{"time":23839.09499999998,"duration":535.7099999999991,"noteNumber":62,"velocity":107,"programNumber":25},{"time":24374.80499999998,"duration":535.7099999999991,"noteNumber":67,"velocity":107,"programNumber":25},{"time":24106.94999999998,"duration":803.5649999999987,"noteNumber":57,"velocity":107,"programNumber":25},{"time":24910.514999999978,"duration":535.7099999999991,"noteNumber":66,"velocity":107,"programNumber":25},{"time":23571.23999999998,"duration":1874.984999999997,"noteNumber":50,"velocity":107,"programNumber":25},{"time":25446.224999999977,"duration":267.85499999999956,"noteNumber":45,"velocity":105,"programNumber":25},{"time":25178.369999999977,"duration":535.7099999999991,"noteNumber":62,"velocity":107,"programNumber":25},{"time":25981.934999999976,"duration":535.7099999999991,"noteNumber":55,"velocity":107,"programNumber":25},{"time":25714.079999999976,"duration":803.5649999999987,"noteNumber":48,"velocity":105,"programNumber":25},{"time":26249.789999999975,"duration":535.7099999999991,"noteNumber":62,"velocity":107,"programNumber":25},{"time":26785.499999999975,"duration":535.7099999999991,"noteNumber":55,"velocity":110,"programNumber":25},{"time":26517.644999999975,"duration":803.5649999999987,"noteNumber":47,"velocity":109,"programNumber":25},{"time":27053.354999999974,"duration":535.7099999999991,"noteNumber":62,"velocity":112,"programNumber":25},{"time":27321.209999999974,"duration":401.78250000000116,"noteNumber":43,"velocity":114,"programNumber":25},{"time":27589.064999999973,"duration":267.8550000000032,"noteNumber":62,"velocity":112,"programNumber":25},{"time":28124.774999999976,"duration":535.7099999999991,"noteNumber":62,"velocity":107,"programNumber":25},{"time":28660.484999999975,"duration":535.7099999999991,"noteNumber":67,"velocity":107,"programNumber":25},{"time":28392.629999999976,"duration":803.5649999999987,"noteNumber":57,"velocity":107,"programNumber":25},{"time":29196.194999999974,"duration":535.7099999999991,"noteNumber":66,"velocity":107,"programNumber":25},{"time":27856.919999999976,"duration":1874.984999999997,"noteNumber":50,"velocity":107,"programNumber":25},{"time":29731.904999999973,"duration":267.85499999999956,"noteNumber":45,"velocity":105,"programNumber":25},{"time":29464.049999999974,"duration":535.7099999999991,"noteNumber":62,"velocity":107,"programNumber":25},{"time":30267.614999999972,"duration":535.7099999999991,"noteNumber":55,"velocity":107,"programNumber":25},{"time":29999.759999999973,"duration":803.5649999999987,"noteNumber":48,"velocity":105,"programNumber":25},{"time":30535.469999999972,"duration":535.7099999999991,"noteNumber":62,"velocity":107,"programNumber":25},{"time":31071.17999999997,"duration":535.7099999999991,"noteNumber":55,"velocity":110,"programNumber":25},{"time":30803.32499999997,"duration":803.5649999999987,"noteNumber":47,"velocity":109,"programNumber":25},{"time":31339.03499999997,"duration":535.7099999999991,"noteNumber":62,"velocity":112,"programNumber":25},{"time":31606.88999999997,"duration":401.78250000000116,"noteNumber":43,"velocity":114,"programNumber":25},{"time":31874.74499999997,"duration":267.8550000000032,"noteNumber":62,"velocity":112,"programNumber":25},{"time":32410.454999999973,"duration":535.7099999999991,"noteNumber":62,"velocity":107,"programNumber":25},{"time":32946.16499999997,"duration":535.7099999999991,"noteNumber":67,"velocity":107,"programNumber":25},{"time":32678.309999999972,"duration":803.5649999999987,"noteNumber":57,"velocity":107,"programNumber":25},{"time":33481.87499999997,"duration":535.7100000000064,"noteNumber":66,"velocity":107,"programNumber":25},{"time":32142.599999999973,"duration":1874.9850000000042,"noteNumber":50,"velocity":107,"programNumber":25},{"time":34017.58499999998,"duration":267.8550000000032,"noteNumber":45,"velocity":105,"programNumber":25},{"time":33749.729999999974,"duration":535.7100000000064,"noteNumber":62,"velocity":107,"programNumber":25},{"time":34553.294999999984,"duration":535.7100000000064,"noteNumber":64,"velocity":107,"programNumber":25},{"time":34285.43999999998,"duration":803.5650000000096,"noteNumber":48,"velocity":105,"programNumber":25},{"time":34821.14999999999,"duration":535.7100000000064,"noteNumber":62,"velocity":107,"programNumber":25},{"time":35356.85999999999,"duration":535.7100000000064,"noteNumber":64,"velocity":110,"programNumber":25},{"time":35089.00499999999,"duration":803.5650000000096,"noteNumber":55,"velocity":109,"programNumber":25},{"time":35624.715,"duration":535.7100000000064,"noteNumber":62,"velocity":112,"programNumber":25},{"time":35892.57,"duration":401.78250000000116,"noteNumber":55,"velocity":114,"programNumber":25},{"time":36160.425,"duration":267.8549999999959,"noteNumber":64,"velocity":112,"programNumber":25},{"time":36696.135,"duration":535.7100000000064,"noteNumber":59,"velocity":107,"programNumber":25},{"time":36428.28,"duration":803.5650000000096,"noteNumber":47,"velocity":105,"programNumber":25},{"time":36963.990000000005,"duration":535.7100000000064,"noteNumber":62,"velocity":107,"programNumber":25},{"time":37499.70000000001,"duration":535.7100000000064,"noteNumber":67,"velocity":110,"programNumber":25},{"time":37231.84500000001,"duration":803.5650000000096,"noteNumber":59,"velocity":109,"programNumber":25},{"time":37767.555000000015,"duration":535.7100000000064,"noteNumber":62,"velocity":112,"programNumber":25},{"time":38035.41000000002,"duration":401.78250000000116,"noteNumber":59,"velocity":114,"programNumber":25},{"time":38303.26500000002,"duration":267.8549999999959,"noteNumber":55,"velocity":112,"programNumber":25},{"time":103129.04500000001,"duration":538.125,"noteNumber":62,"velocity":47,"programNumber":25},{"time":103667.17000000001,"duration":270.2700000000041,"noteNumber":62,"velocity":52,"programNumber":25},{"time":103396.90000000001,"duration":810.8100000000122,"noteNumber":57,"velocity":50,"programNumber":25},{"time":103937.44000000002,"duration":540.5400000000081,"noteNumber":62,"velocity":54,"programNumber":25},{"time":104477.98000000003,"duration":270.2700000000041,"noteNumber":62,"velocity":54,"programNumber":25},{"time":102856.32,"duration":2162.200000000026,"noteNumber":50,"velocity":47,"programNumber":25},{"time":104748.25000000003,"duration":540.5400000000081,"noteNumber":62,"velocity":54,"programNumber":25},{"time":104207.71000000002,"duration":1351.3500000000204,"noteNumber":57,"velocity":54,"programNumber":25},{"time":105288.79000000004,"duration":540.5400000000081,"noteNumber":62,"velocity":57,"programNumber":25},{"time":105829.33000000005,"duration":270.2700000000041,"noteNumber":62,"velocity":61,"programNumber":25},{"time":105559.06000000004,"duration":810.8100000000122,"noteNumber":57,"velocity":59,"programNumber":25},{"time":106099.60000000005,"duration":540.5400000000081,"noteNumber":62,"velocity":66,"programNumber":25},{"time":106640.14000000006,"duration":270.2700000000041,"noteNumber":62,"velocity":68,"programNumber":25},{"time":106369.87000000005,"duration":810.8100000000122,"noteNumber":57,"velocity":66,"programNumber":25},{"time":105018.52000000003,"duration":2162.1600000000326,"noteNumber":50,"velocity":54,"programNumber":25},{"time":106910.41000000006,"duration":810.8100000000122,"noteNumber":62,"velocity":71,"programNumber":25},{"time":107180.68000000007,"duration":810.8100000000122,"noteNumber":48,"velocity":71,"programNumber":25},{"time":107450.95000000007,"duration":810.8100000000122,"noteNumber":55,"velocity":73,"programNumber":25},{"time":107721.22000000007,"duration":810.8100000000122,"noteNumber":62,"velocity":73,"programNumber":25},{"time":107991.49000000008,"duration":810.8100000000122,"noteNumber":47,"velocity":75,"programNumber":25},{"time":108532.03000000009,"duration":540.5400000000081,"noteNumber":62,"velocity":78,"programNumber":25},{"time":108802.30000000009,"duration":405.40499999999884,"noteNumber":43,"velocity":80,"programNumber":25},{"time":108261.76000000008,"duration":1081.0800000000017,"noteNumber":55,"velocity":78,"programNumber":25},{"time":109072.5700000001,"duration":540.5399999999936,"noteNumber":62,"velocity":84,"programNumber":25},{"time":109613.11000000009,"duration":540.5400000000081,"noteNumber":62,"velocity":85,"programNumber":25},{"time":110153.6500000001,"duration":270.2700000000041,"noteNumber":62,"velocity":87,"programNumber":25},{"time":109883.38000000009,"duration":810.8100000000122,"noteNumber":57,"velocity":87,"programNumber":25},{"time":110423.9200000001,"duration":540.5400000000081,"noteNumber":62,"velocity":92,"programNumber":25},{"time":110964.46000000011,"duration":270.2700000000041,"noteNumber":62,"velocity":94,"programNumber":25},{"time":110694.1900000001,"duration":810.8100000000122,"noteNumber":57,"velocity":92,"programNumber":25},{"time":109342.84000000008,"duration":2162.1600000000326,"noteNumber":50,"velocity":84,"programNumber":25},{"time":111234.73000000011,"duration":810.8100000000122,"noteNumber":62,"velocity":96,"programNumber":25},{"time":111505.00000000012,"duration":810.8100000000122,"noteNumber":48,"velocity":99,"programNumber":25},{"time":111775.27000000012,"duration":810.8100000000122,"noteNumber":55,"velocity":101,"programNumber":25},{"time":112045.54000000012,"duration":810.8100000000122,"noteNumber":62,"velocity":103,"programNumber":25},{"time":112315.81000000013,"duration":810.8100000000122,"noteNumber":47,"velocity":106,"programNumber":25},{"time":112856.35000000014,"duration":540.5400000000081,"noteNumber":62,"velocity":108,"programNumber":25},{"time":113126.62000000014,"duration":405.40499999999884,"noteNumber":43,"velocity":108,"programNumber":25},{"time":113396.89000000014,"duration":270.2699999999895,"noteNumber":62,"velocity":113,"programNumber":25},{"time":112586.08000000013,"duration":1081.0800000000017,"noteNumber":55,"velocity":108,"programNumber":25},{"time":113937.43000000014,"duration":540.5400000000081,"noteNumber":62,"velocity":107,"programNumber":25},{"time":114477.97000000015,"duration":540.5399999999936,"noteNumber":67,"velocity":107,"programNumber":25},{"time":114207.70000000014,"duration":810.8099999999977,"noteNumber":57,"velocity":107,"programNumber":25},{"time":115018.51000000014,"duration":540.5400000000081,"noteNumber":66,"velocity":107,"programNumber":25},{"time":113667.16000000013,"duration":1891.890000000014,"noteNumber":50,"velocity":107,"programNumber":25},{"time":115559.05000000015,"duration":270.2700000000041,"noteNumber":45,"velocity":105,"programNumber":25},{"time":115288.78000000014,"duration":540.5400000000081,"noteNumber":62,"velocity":107,"programNumber":25},{"time":116099.59000000016,"duration":540.5400000000081,"noteNumber":55,"velocity":107,"programNumber":25},{"time":115829.32000000015,"duration":810.8100000000122,"noteNumber":48,"velocity":105,"programNumber":25},{"time":116369.86000000016,"duration":540.5400000000081,"noteNumber":62,"velocity":107,"programNumber":25},{"time":116910.40000000017,"duration":540.5400000000081,"noteNumber":55,"velocity":110,"programNumber":25},{"time":116640.13000000016,"duration":810.8100000000122,"noteNumber":47,"velocity":109,"programNumber":25},{"time":117180.67000000017,"duration":540.5400000000081,"noteNumber":62,"velocity":112,"programNumber":25},{"time":117450.94000000018,"duration":405.40499999999884,"noteNumber":43,"velocity":114,"programNumber":25},{"time":117721.21000000018,"duration":270.2699999999895,"noteNumber":62,"velocity":112,"programNumber":25},{"time":118261.75000000017,"duration":540.5400000000081,"noteNumber":62,"velocity":107,"programNumber":25},{"time":118802.29000000018,"duration":540.5399999999936,"noteNumber":67,"velocity":107,"programNumber":25},{"time":118532.02000000018,"duration":810.8099999999977,"noteNumber":57,"velocity":107,"programNumber":25},{"time":119342.83000000018,"duration":540.5400000000081,"noteNumber":66,"velocity":107,"programNumber":25},{"time":117991.48000000017,"duration":1891.890000000014,"noteNumber":50,"velocity":107,"programNumber":25},{"time":119883.37000000018,"duration":270.2700000000041,"noteNumber":45,"velocity":105,"programNumber":25},{"time":119613.10000000018,"duration":540.5400000000081,"noteNumber":62,"velocity":107,"programNumber":25},{"time":120423.91000000019,"duration":540.5400000000081,"noteNumber":55,"velocity":107,"programNumber":25},{"time":120153.64000000019,"duration":810.8100000000122,"noteNumber":48,"velocity":105,"programNumber":25},{"time":120694.1800000002,"duration":540.5400000000081,"noteNumber":62,"velocity":107,"programNumber":25},{"time":121234.7200000002,"duration":540.5400000000081,"noteNumber":55,"velocity":110,"programNumber":25},{"time":120964.4500000002,"duration":810.8100000000122,"noteNumber":47,"velocity":109,"programNumber":25},{"time":121504.99000000021,"duration":540.5400000000081,"noteNumber":62,"velocity":112,"programNumber":25},{"time":121775.26000000021,"duration":405.40499999999884,"noteNumber":43,"velocity":114,"programNumber":25},{"time":122045.53000000022,"duration":270.2699999999895,"noteNumber":62,"velocity":112,"programNumber":25},{"time":122586.07000000021,"duration":540.5400000000081,"noteNumber":62,"velocity":107,"programNumber":25},{"time":123126.61000000022,"duration":540.5399999999936,"noteNumber":67,"velocity":107,"programNumber":25},{"time":122856.34000000021,"duration":810.8099999999977,"noteNumber":57,"velocity":107,"programNumber":25},{"time":123667.15000000021,"duration":540.5400000000081,"noteNumber":66,"velocity":107,"programNumber":25},{"time":122315.8000000002,"duration":1891.890000000014,"noteNumber":50,"velocity":107,"programNumber":25},{"time":124207.69000000022,"duration":270.2700000000041,"noteNumber":45,"velocity":105,"programNumber":25},{"time":123937.42000000022,"duration":540.5400000000081,"noteNumber":62,"velocity":107,"programNumber":25},{"time":124748.23000000023,"duration":540.5400000000081,"noteNumber":55,"velocity":107,"programNumber":25},{"time":124477.96000000022,"duration":810.8100000000122,"noteNumber":48,"velocity":105,"programNumber":25},{"time":125018.50000000023,"duration":540.5400000000081,"noteNumber":62,"velocity":107,"programNumber":25},{"time":125559.04000000024,"duration":540.5400000000081,"noteNumber":55,"velocity":110,"programNumber":25},{"time":125288.77000000024,"duration":810.8100000000122,"noteNumber":47,"velocity":109,"programNumber":25},{"time":125829.31000000025,"duration":540.5400000000081,"noteNumber":62,"velocity":112,"programNumber":25},{"time":126099.58000000025,"duration":405.40499999999884,"noteNumber":43,"velocity":114,"programNumber":25},{"time":126369.85000000025,"duration":270.2699999999895,"noteNumber":62,"velocity":112,"programNumber":25},{"time":126910.39000000025,"duration":540.5400000000081,"noteNumber":62,"velocity":107,"programNumber":25},{"time":127450.93000000025,"duration":540.5399999999936,"noteNumber":67,"velocity":107,"programNumber":25},{"time":127180.66000000025,"duration":810.8099999999977,"noteNumber":57,"velocity":107,"programNumber":25},{"time":127991.47000000025,"duration":540.5400000000081,"noteNumber":66,"velocity":107,"programNumber":25},{"time":126640.12000000024,"duration":1891.890000000014,"noteNumber":50,"velocity":107,"programNumber":25},{"time":128532.01000000026,"duration":270.2700000000041,"noteNumber":45,"velocity":105,"programNumber":25},{"time":128261.74000000025,"duration":540.5400000000081,"noteNumber":62,"velocity":107,"programNumber":25},{"time":129072.55000000026,"duration":540.5400000000081,"noteNumber":55,"velocity":107,"programNumber":25},{"time":128802.28000000026,"duration":810.8100000000122,"noteNumber":48,"velocity":105,"programNumber":25},{"time":129342.82000000027,"duration":540.5400000000081,"noteNumber":62,"velocity":107,"programNumber":25},{"time":129883.36000000028,"duration":540.5400000000081,"noteNumber":55,"velocity":110,"programNumber":25},{"time":129613.09000000027,"duration":810.8100000000122,"noteNumber":47,"velocity":109,"programNumber":25},{"time":130153.63000000028,"duration":540.5400000000081,"noteNumber":62,"velocity":112,"programNumber":25},{"time":130423.90000000029,"duration":405.40499999999884,"noteNumber":43,"velocity":114,"programNumber":25},{"time":130694.17000000029,"duration":268.5808124999894,"noteNumber":62,"velocity":112,"programNumber":25}],[{"time":38571.119999999995,"duration":1071.4199999999764,"noteNumber":72,"velocity":117,"programNumber":30},{"time":39642.53999999997,"duration":1071.4200000000055,"noteNumber":71,"velocity":127,"programNumber":30},{"time":40713.95999999998,"duration":1040.728281249998,"noteNumber":69,"velocity":126,"programNumber":30},{"time":41785.379999999976,"duration":267.8550000000032,"noteNumber":72,"velocity":127,"programNumber":30},{"time":42053.23499999998,"duration":267.8550000000032,"noteNumber":71,"velocity":127,"programNumber":30},{"time":42321.08999999998,"duration":531.2457500000019,"noteNumber":69,"velocity":127,"programNumber":30},{"time":42856.79999999998,"duration":10580.272499999963,"noteNumber":67,"velocity":112,"programNumber":30},{"time":79820.78999999995,"duration":545.4499999999971,"noteNumber":61,"velocity":119,"programNumber":30},{"time":80366.23999999995,"duration":535.7100000000064,"noteNumber":62,"velocity":119,"programNumber":30},{"time":80901.94999999995,"duration":535.7100000000064,"noteNumber":64,"velocity":119,"programNumber":30},{"time":81437.65999999996,"duration":810.8100000000122,"noteNumber":66,"velocity":119,"programNumber":30},{"time":82248.46999999997,"duration":270.2700000000041,"noteNumber":66,"velocity":119,"programNumber":30},{"time":82518.73999999998,"duration":270.2700000000041,"noteNumber":67,"velocity":119,"programNumber":30},{"time":82789.00999999998,"duration":270.2700000000041,"noteNumber":66,"velocity":117,"programNumber":30},{"time":83059.27999999998,"duration":270.2700000000041,"noteNumber":64,"velocity":119,"programNumber":30},{"time":83329.54999999999,"duration":270.2700000000041,"noteNumber":62,"velocity":119,"programNumber":30},{"time":83599.81999999999,"duration":809.683875000017,"noteNumber":69,"velocity":124,"programNumber":30},{"time":84410.63,"duration":270.2700000000041,"noteNumber":62,"velocity":119,"programNumber":30},{"time":84680.90000000001,"duration":270.2700000000041,"noteNumber":67,"velocity":119,"programNumber":30},{"time":84951.17000000001,"duration":270.2700000000041,"noteNumber":66,"velocity":119,"programNumber":30},{"time":85221.44000000002,"duration":270.2700000000041,"noteNumber":64,"velocity":119,"programNumber":30},{"time":85491.71000000002,"duration":270.2700000000041,"noteNumber":62,"velocity":119,"programNumber":30},{"time":85761.98000000003,"duration":270.2700000000041,"noteNumber":64,"velocity":119,"programNumber":30},{"time":86032.25000000003,"duration":540.5399999999936,"noteNumber":66,"velocity":119,"programNumber":30},{"time":86572.79000000002,"duration":270.2700000000041,"noteNumber":62,"velocity":119,"programNumber":30},{"time":86843.06000000003,"duration":278.71593750000466,"noteNumber":67,"velocity":119,"programNumber":30},{"time":87113.33000000003,"duration":270.2700000000041,"noteNumber":66,"velocity":119,"programNumber":30},{"time":87383.60000000003,"duration":270.2700000000041,"noteNumber":64,"velocity":119,"programNumber":30},{"time":87653.87000000004,"duration":270.2700000000041,"noteNumber":62,"velocity":119,"programNumber":30},{"time":87924.14000000004,"duration":270.2700000000041,"noteNumber":64,"velocity":111,"programNumber":30},{"time":88194.41000000005,"duration":270.2700000000041,"noteNumber":64,"velocity":119,"programNumber":30},{"time":88464.68000000005,"duration":270.2700000000041,"noteNumber":62,"velocity":119,"programNumber":30},{"time":88734.95000000006,"duration":540.5399999999936,"noteNumber":61,"velocity":119,"programNumber":30},{"time":89275.49000000005,"duration":540.5399999999936,"noteNumber":57,"velocity":119,"programNumber":30},{"time":89816.03000000004,"duration":270.2700000000041,"noteNumber":64,"velocity":119,"programNumber":30},{"time":90086.30000000005,"duration":810.8100000000559,"noteNumber":66,"velocity":119,"programNumber":30},{"time":90897.1100000001,"duration":270.2700000000041,"noteNumber":66,"velocity":119,"programNumber":30},{"time":91167.3800000001,"duration":270.2700000000041,"noteNumber":67,"velocity":119,"programNumber":30},{"time":91437.65000000011,"duration":270.2700000000041,"noteNumber":66,"velocity":117,"programNumber":30},{"time":91707.92000000011,"duration":270.2700000000041,"noteNumber":64,"velocity":119,"programNumber":30},{"time":91978.19000000012,"duration":270.2700000000041,"noteNumber":62,"velocity":119,"programNumber":30},{"time":92248.46000000012,"duration":1081.0800000000017,"noteNumber":71,"velocity":119,"programNumber":30},{"time":93329.54000000012,"duration":270.2700000000041,"noteNumber":69,"velocity":119,"programNumber":30},{"time":93599.81000000013,"duration":270.2700000000041,"noteNumber":67,"velocity":119,"programNumber":30},{"time":93870.08000000013,"duration":270.2700000000041,"noteNumber":66,"velocity":119,"programNumber":30},{"time":94140.35000000014,"duration":270.2700000000041,"noteNumber":64,"velocity":119,"programNumber":30},{"time":94410.62000000014,"duration":810.8099999999977,"noteNumber":66,"velocity":119,"programNumber":30},{"time":95221.43000000014,"duration":270.2700000000041,"noteNumber":62,"velocity":119,"programNumber":30},{"time":95491.70000000014,"duration":270.2700000000041,"noteNumber":67,"velocity":119,"programNumber":30},{"time":95761.97000000015,"duration":270.2700000000041,"noteNumber":66,"velocity":119,"programNumber":30},{"time":96032.24000000015,"duration":270.2700000000041,"noteNumber":64,"velocity":119,"programNumber":30},{"time":96302.51000000015,"duration":270.2700000000041,"noteNumber":62,"velocity":119,"programNumber":30},{"time":96572.78000000016,"duration":810.8099999999977,"noteNumber":64,"velocity":119,"programNumber":30},{"time":97383.59000000016,"duration":270.2699999999895,"noteNumber":62,"velocity":119,"programNumber":30},{"time":97653.86000000015,"duration":287.16187500000524,"noteNumber":66,"velocity":119,"programNumber":30},{"time":97924.13000000015,"duration":270.2699999999895,"noteNumber":64,"velocity":119,"programNumber":30},{"time":98194.40000000014,"duration":270.2700000000041,"noteNumber":62,"velocity":119,"programNumber":30},{"time":98464.67000000014,"duration":270.2700000000041,"noteNumber":61,"velocity":119,"programNumber":30},{"time":98734.94000000015,"duration":540.5399999999936,"noteNumber":62,"velocity":119,"programNumber":30},{"time":99275.48000000014,"duration":135.13499999999476,"noteNumber":74,"velocity":119,"programNumber":30},{"time":99410.61500000014,"duration":135.13499999999476,"noteNumber":73,"velocity":119,"programNumber":30},{"time":99545.75000000013,"duration":270.2700000000041,"noteNumber":71,"velocity":119,"programNumber":30},{"time":99816.02000000014,"duration":1081.0800000000454,"noteNumber":71,"velocity":119,"programNumber":30},{"time":134140.31000000006,"duration":242.11687500000698,"noteNumber":66,"velocity":106,"programNumber":30},{"time":134586.2555,"duration":188.62593749989173,"noteNumber":66,"velocity":110,"programNumber":30},{"time":134951.11999999988,"duration":2154.8401874992123,"noteNumber":66,"velocity":115,"programNumber":30},{"time":137924.0899999991,"duration":1396.394999999582,"noteNumber":71,"velocity":113,"programNumber":30},{"time":150626.7799999987,"duration":1069.8187499996566,"noteNumber":72,"velocity":115,"programNumber":30},{"time":151707.85999999836,"duration":1069.8187499998312,"noteNumber":71,"velocity":120,"programNumber":30},{"time":152788.9399999982,"duration":1891.889999999723,"noteNumber":69,"velocity":122,"programNumber":30},{"time":154680.82999999792,"duration":1420.606687499705,"noteNumber":69,"velocity":122,"programNumber":30},{"time":156032.17999999764,"duration":270.2699999999895,"noteNumber":72,"velocity":120,"programNumber":30},{"time":156302.44999999763,"duration":318.1303124999977,"noteNumber":71,"velocity":120,"programNumber":30},{"time":156572.71999999761,"duration":555.7426874999364,"noteNumber":69,"velocity":120,"programNumber":30},{"time":157113.25999999756,"duration":10405.394999999698,"noteNumber":67,"velocity":119,"programNumber":30}],[{"time":19017.705,"duration":277.3415312500001,"noteNumber":66,"velocity":120,"programNumber":65},{"time":19285.56,"duration":133.9275000000016,"noteNumber":69,"velocity":118,"programNumber":65},{"time":19553.415000000005,"duration":122.76687500000116,"noteNumber":69,"velocity":117,"programNumber":65},{"time":19821.270000000004,"duration":1294.632499999996,"noteNumber":69,"velocity":116,"programNumber":65},{"time":21160.545000000002,"duration":223.21250000000146,"noteNumber":69,"velocity":115,"programNumber":65},{"time":21428.400000000005,"duration":267.85499999999956,"noteNumber":69,"velocity":115,"programNumber":65},{"time":21696.255000000005,"duration":267.85499999999956,"noteNumber":67,"velocity":115,"programNumber":65},{"time":21964.110000000004,"duration":267.85499999999956,"noteNumber":66,"velocity":113,"programNumber":65},{"time":22231.965000000004,"duration":837.046875,"noteNumber":62,"velocity":111,"programNumber":65},{"time":23571.240000000005,"duration":133.9275000000016,"noteNumber":69,"velocity":109,"programNumber":65},{"time":23839.09500000001,"duration":133.9275000000016,"noteNumber":69,"velocity":108,"programNumber":65},{"time":24106.95000000001,"duration":1339.2750000000015,"noteNumber":69,"velocity":106,"programNumber":65},{"time":25446.225000000013,"duration":267.85499999999956,"noteNumber":71,"velocity":115,"programNumber":65},{"time":25714.080000000013,"duration":770.083125000001,"noteNumber":72,"velocity":115,"programNumber":65},{"time":26517.64500000001,"duration":803.5649999999987,"noteNumber":71,"velocity":110,"programNumber":65},{"time":27589.06500000001,"duration":290.17625000000044,"noteNumber":66,"velocity":110,"programNumber":65},{"time":27856.92000000001,"duration":163.50315625000076,"noteNumber":69,"velocity":110,"programNumber":65},{"time":28124.77500000001,"duration":1054.6790624999958,"noteNumber":69,"velocity":111,"programNumber":65},{"time":29196.195000000003,"duration":1607.130000000001,"noteNumber":67,"velocity":116,"programNumber":65},{"time":31606.890000000003,"duration":535.7099999999991,"noteNumber":67,"velocity":116,"programNumber":65},{"time":32142.600000000002,"duration":267.85499999999956,"noteNumber":66,"velocity":116,"programNumber":65},{"time":32410.455,"duration":535.7099999999991,"noteNumber":67,"velocity":116,"programNumber":65},{"time":32946.165,"duration":535.7099999999991,"noteNumber":74,"velocity":118,"programNumber":65},{"time":33481.875,"duration":535.7099999999991,"noteNumber":69,"velocity":120,"programNumber":65},{"time":34017.585,"duration":267.8550000000032,"noteNumber":67,"velocity":123,"programNumber":65},{"time":34285.44,"duration":267.8550000000032,"noteNumber":66,"velocity":125,"programNumber":65},{"time":34553.295000000006,"duration":535.7099999999991,"noteNumber":67,"velocity":127,"programNumber":65},{"time":35089.005000000005,"duration":2946.404999999999,"noteNumber":71,"velocity":127,"programNumber":65},{"time":51160.30500000001,"duration":267.8550000000032,"noteNumber":55,"velocity":113,"programNumber":65},{"time":51428.16000000001,"duration":267.8550000000032,"noteNumber":67,"velocity":127,"programNumber":65},{"time":51696.015000000014,"duration":267.8550000000032,"noteNumber":67,"velocity":127,"programNumber":65},{"time":51963.87000000002,"duration":267.8550000000032,"noteNumber":67,"velocity":127,"programNumber":65},{"time":52231.72500000002,"duration":535.7099999999991,"noteNumber":66,"velocity":127,"programNumber":65},{"time":52767.43500000002,"duration":2008.9124999999985,"noteNumber":67,"velocity":127,"programNumber":65},{"time":54910.275000000016,"duration":267.8550000000032,"noteNumber":67,"velocity":127,"programNumber":65},{"time":55178.13000000002,"duration":477.1167187500032,"noteNumber":69,"velocity":127,"programNumber":65},{"time":55713.840000000026,"duration":1049.0987499999974,"noteNumber":71,"velocity":127,"programNumber":65},{"time":56785.260000000024,"duration":535.7100000000064,"noteNumber":71,"velocity":127,"programNumber":65},{"time":57320.97000000003,"duration":2166.835343749961,"noteNumber":67,"velocity":120,"programNumber":65},{"time":59731.66499999999,"duration":267.8550000000032,"noteNumber":55,"velocity":113,"programNumber":65},{"time":59999.52,"duration":267.8550000000032,"noteNumber":67,"velocity":127,"programNumber":65},{"time":60267.375,"duration":267.8550000000032,"noteNumber":67,"velocity":127,"programNumber":65},{"time":60535.23,"duration":267.8550000000032,"noteNumber":67,"velocity":127,"programNumber":65},{"time":60803.08500000001,"duration":535.7099999999991,"noteNumber":66,"velocity":127,"programNumber":65},{"time":61338.795000000006,"duration":2008.9124999999985,"noteNumber":67,"velocity":127,"programNumber":65},{"time":63481.635,"duration":267.8550000000032,"noteNumber":67,"velocity":127,"programNumber":65},{"time":63749.490000000005,"duration":401.78250000000116,"noteNumber":69,"velocity":127,"programNumber":65},{"time":64285.200000000004,"duration":1049.0987500000047,"noteNumber":71,"velocity":127,"programNumber":65},{"time":65356.62000000001,"duration":535.7100000000064,"noteNumber":71,"velocity":127,"programNumber":65},{"time":65892.33000000002,"duration":2723.1924999999173,"noteNumber":67,"velocity":127,"programNumber":65},{"time":69524.60583333326,"duration":156.24874999999884,"noteNumber":54,"velocity":93,"programNumber":65},{"time":69658.53333333327,"duration":1339.274999999965,"noteNumber":66,"velocity":123,"programNumber":65},{"time":70997.80833333323,"duration":223.21249999999418,"noteNumber":64,"velocity":108,"programNumber":65},{"time":71265.66333333323,"duration":1093.7412499999919,"noteNumber":64,"velocity":123,"programNumber":65},{"time":72337.08333333323,"duration":178.56999999999243,"noteNumber":62,"velocity":123,"programNumber":65},{"time":72604.93833333322,"duration":2410.695000000007,"noteNumber":62,"velocity":127,"programNumber":65},{"time":74926.34833333323,"duration":6227.628749999974,"noteNumber":74,"velocity":127,"programNumber":65},{"time":113596.79789583318,"duration":116.55393749999348,"noteNumber":57,"velocity":103,"programNumber":65},{"time":113877.76608333318,"duration":229.72950000000128,"noteNumber":57,"velocity":123,"programNumber":65},{"time":114321.45933333317,"duration":1081.0800000000163,"noteNumber":57,"velocity":126,"programNumber":65},{"time":115419.43120833319,"duration":195.38268749999406,"noteNumber":55,"velocity":116,"programNumber":65},{"time":115586.66077083319,"duration":167.79262500000186,"noteNumber":54,"velocity":121,"programNumber":65},{"time":115800.62452083318,"duration":534.9093750000029,"noteNumber":55,"velocity":127,"programNumber":65},{"time":117621.00558333319,"duration":281.53125,"noteNumber":50,"velocity":115,"programNumber":65},{"time":117914.92420833319,"duration":118.2431249999936,"noteNumber":57,"velocity":121,"programNumber":65},{"time":118175.62214583319,"duration":121.05843750000349,"noteNumber":57,"velocity":121,"programNumber":65},{"time":118431.81558333318,"duration":1351.3500000000058,"noteNumber":57,"velocity":121,"programNumber":65},{"time":119797.2421458332,"duration":306.86906250000175,"noteNumber":59,"velocity":121,"programNumber":65},{"time":120053.4355833332,"duration":816.4406250000029,"noteNumber":60,"velocity":125,"programNumber":65},{"time":120865.3717083332,"duration":670.6074375000026,"noteNumber":57,"velocity":126,"programNumber":65},{"time":121974.6048333332,"duration":270.2700000000041,"noteNumber":54,"velocity":127,"programNumber":65},{"time":122263.4558958332,"duration":225.22500000000582,"noteNumber":57,"velocity":127,"programNumber":65},{"time":122526.96914583321,"duration":224.66193750000093,"noteNumber":57,"velocity":127,"programNumber":65},{"time":122775.84277083322,"duration":810.8100000000122,"noteNumber":57,"velocity":126,"programNumber":65},{"time":124083.27389583323,"duration":349.09875000000466,"noteNumber":57,"velocity":125,"programNumber":65},{"time":124374.94027083323,"duration":289.97718750001513,"noteNumber":55,"velocity":123,"programNumber":65},{"time":124659.28683333324,"duration":275.9006250000093,"noteNumber":57,"velocity":123,"programNumber":65},{"time":124921.11089583325,"duration":557.4318750000093,"noteNumber":55,"velocity":121,"programNumber":65},{"time":126289.35277083325,"duration":270.2700000000041,"noteNumber":62,"velocity":123,"programNumber":65},{"time":126559.62277083326,"duration":270.2700000000041,"noteNumber":66,"velocity":127,"programNumber":65},{"time":126829.89277083326,"duration":540.5399999999936,"noteNumber":67,"velocity":127,"programNumber":65},{"time":127370.43277083326,"duration":540.5400000000081,"noteNumber":74,"velocity":127,"programNumber":65},{"time":127910.97277083326,"duration":540.5399999999936,"noteNumber":67,"velocity":127,"programNumber":65},{"time":128451.51277083326,"duration":270.2700000000041,"noteNumber":66,"velocity":127,"programNumber":65},{"time":128721.78277083326,"duration":270.2700000000041,"noteNumber":67,"velocity":127,"programNumber":65},{"time":128992.05277083327,"duration":540.5399999999936,"noteNumber":66,"velocity":127,"programNumber":65},{"time":129532.59277083326,"duration":2702.7000000000116,"noteNumber":67,"velocity":127,"programNumber":65},{"time":132235.29277083327,"duration":270.2699999999895,"noteNumber":66,"velocity":127,"programNumber":65},{"time":132505.56277083326,"duration":270.2699999999895,"noteNumber":64,"velocity":127,"programNumber":65},{"time":132775.83277083325,"duration":1081.0799999999872,"noteNumber":62,"velocity":127,"programNumber":65},{"time":138181.23277083325,"duration":270.2699999999895,"noteNumber":62,"velocity":127,"programNumber":65},{"time":138451.50277083323,"duration":270.2699999999895,"noteNumber":66,"velocity":127,"programNumber":65},{"time":138721.77277083322,"duration":270.2699999999895,"noteNumber":67,"velocity":127,"programNumber":65},{"time":138992.0427708332,"duration":540.5400000000081,"noteNumber":69,"velocity":127,"programNumber":65},{"time":139532.58277083322,"duration":3783.779999999999,"noteNumber":74,"velocity":127,"programNumber":65},{"time":143337.75914583323,"duration":539.9769375000033,"noteNumber":69,"velocity":127,"programNumber":65},{"time":143858.02889583324,"duration":4323.193874999619,"noteNumber":78,"velocity":127,"programNumber":65},{"time":148181.22277083286,"duration":2162.159999999829,"noteNumber":79,"velocity":127,"programNumber":65},{"time":165208.2327708327,"duration":270.2699999999895,"noteNumber":55,"velocity":126,"programNumber":65},{"time":165478.50277083268,"duration":270.2699999999895,"noteNumber":67,"velocity":127,"programNumber":65},{"time":165748.77277083267,"duration":270.2699999999895,"noteNumber":67,"velocity":127,"programNumber":65},{"time":166019.04277083266,"duration":270.2699999999895,"noteNumber":67,"velocity":127,"programNumber":65},{"time":166289.31277083265,"duration":540.5400000000081,"noteNumber":66,"velocity":127,"programNumber":65},{"time":166829.85277083266,"duration":2027.0249999999942,"noteNumber":67,"velocity":127,"programNumber":65},{"time":168992.01277083266,"duration":270.2699999999895,"noteNumber":67,"velocity":127,"programNumber":65},{"time":169262.28277083265,"duration":481.4184374999895,"noteNumber":69,"velocity":127,"programNumber":65},{"time":169802.82277083263,"duration":1058.557499999879,"noteNumber":71,"velocity":127,"programNumber":65},{"time":170883.9027708325,"duration":540.539999999979,"noteNumber":71,"velocity":127,"programNumber":65},{"time":171401.9202708325,"duration":2454.9524999996647,"noteNumber":67,"velocity":127,"programNumber":65},{"time":173856.87277083215,"duration":270.2699999999895,"noteNumber":55,"velocity":126,"programNumber":65},{"time":174127.14277083214,"duration":270.2699999999895,"noteNumber":67,"velocity":127,"programNumber":65},{"time":174397.41277083213,"duration":270.2699999999895,"noteNumber":67,"velocity":127,"programNumber":65},{"time":174667.68277083212,"duration":270.2699999999895,"noteNumber":67,"velocity":127,"programNumber":65},{"time":174937.9527708321,"duration":540.5400000000081,"noteNumber":66,"velocity":127,"programNumber":65},{"time":175478.49277083212,"duration":2027.0249999999942,"noteNumber":67,"velocity":127,"programNumber":65},{"time":177640.65277083212,"duration":270.2699999999895,"noteNumber":67,"velocity":127,"programNumber":65},{"time":177910.9227708321,"duration":405.40499999999884,"noteNumber":69,"velocity":127,"programNumber":65},{"time":178451.46277083212,"duration":1058.557499999879,"noteNumber":71,"velocity":127,"programNumber":65},{"time":179532.542770832,"duration":540.539999999979,"noteNumber":71,"velocity":127,"programNumber":65},{"time":180050.56027083198,"duration":20022.50249999974,"noteNumber":67,"velocity":121,"programNumber":65}]]}