{"tracks":[[{"time":0,"duration":574.5191541666667,"noteNumber":45,"velocity":127,"programNumber":29},{"time":576.923,"duration":141.82690416666662,"noteNumber":52,"velocity":127,"programNumber":29},{"time":721.15375,"duration":141.82690416666662,"noteNumber":45,"velocity":127,"programNumber":29},{"time":865.3844999999999,"duration":574.5191541666666,"noteNumber":57,"velocity":127,"programNumber":29},{"time":1442.3075,"duration":286.0576541666667,"noteNumber":45,"velocity":127,"programNumber":29},{"time":1730.769,"duration":141.82690416666674,"noteNumber":52,"velocity":127,"programNumber":29},{"time":1874.9997500000002,"duration":141.82690416666674,"noteNumber":50,"velocity":127,"programNumber":29},{"time":2019.2305000000003,"duration":132.21152083333322,"noteNumber":48,"velocity":127,"programNumber":29},{"time":2163.4612500000003,"duration":132.21152083333345,"noteNumber":50,"velocity":127,"programNumber":29},{"time":2307.6920000000005,"duration":141.82690416666674,"noteNumber":45,"velocity":127,"programNumber":29},{"time":2451.9227500000006,"duration":141.82690416666674,"noteNumber":48,"velocity":127,"programNumber":29},{"time":2596.153500000001,"duration":141.82690416666674,"noteNumber":50,"velocity":127,"programNumber":29},{"time":2740.384250000001,"duration":288.4614999999999,"noteNumber":52,"velocity":127,"programNumber":29},{"time":3028.845750000001,"duration":132.21152083333345,"noteNumber":45,"velocity":127,"programNumber":29},{"time":3173.076500000001,"duration":574.5191541666668,"noteNumber":57,"velocity":127,"programNumber":29},{"time":3749.9995000000013,"duration":286.05765416666645,"noteNumber":45,"velocity":127,"programNumber":29},{"time":4038.461000000001,"duration":141.82690416666628,"noteNumber":52,"velocity":127,"programNumber":29},{"time":4182.691750000001,"duration":141.82690416666628,"noteNumber":50,"velocity":127,"programNumber":29},{"time":4326.922500000001,"duration":141.82690416666628,"noteNumber":48,"velocity":127,"programNumber":29},{"time":4471.15325,"duration":144.23074999999972,"noteNumber":50,"velocity":127,"programNumber":29},{"time":4615.384,"duration":156.24997916666598,"noteNumber":45,"velocity":127,"programNumber":29},{"time":4759.61475,"duration":156.24997916666598,"noteNumber":48,"velocity":127,"programNumber":29},{"time":4903.845499999999,"duration":168.26920833333315,"noteNumber":50,"velocity":127,"programNumber":29},{"time":5048.076249999999,"duration":286.0576541666669,"noteNumber":52,"velocity":127,"programNumber":29},{"time":5336.5377499999995,"duration":156.24997916666598,"noteNumber":45,"velocity":127,"programNumber":29},{"time":5480.768499999999,"duration":574.5191541666663,"noteNumber":57,"velocity":127,"programNumber":29},{"time":6057.691499999999,"duration":286.0576541666669,"noteNumber":45,"velocity":127,"programNumber":29},{"time":6346.152999999999,"duration":141.82690416666628,"noteNumber":52,"velocity":127,"programNumber":29},{"time":6490.383749999999,"duration":141.82690416666628,"noteNumber":50,"velocity":127,"programNumber":29},{"time":6634.614499999999,"duration":132.21152083333345,"noteNumber":48,"velocity":127,"programNumber":29},{"time":6778.8452499999985,"duration":141.82690416666628,"noteNumber":45,"velocity":127,"programNumber":29},{"time":6923.075999999998,"duration":141.82690416666628,"noteNumber":57,"velocity":127,"programNumber":29},{"time":7067.306749999998,"duration":141.82690416666628,"noteNumber":55,"velocity":127,"programNumber":29},{"time":7211.537499999998,"duration":141.82690416666628,"noteNumber":52,"velocity":127,"programNumber":29},{"time":7355.768249999997,"duration":141.82690416666628,"noteNumber":51,"velocity":127,"programNumber":29},{"time":7499.998999999997,"duration":132.21152083333345,"noteNumber":50,"velocity":127,"programNumber":29},{"time":7644.229749999997,"duration":141.82690416666628,"noteNumber":45,"velocity":127,"programNumber":29},{"time":7788.4604999999965,"duration":141.82690416666628,"noteNumber":48,"velocity":127,"programNumber":29},{"time":7932.691249999996,"duration":141.82690416666628,"noteNumber":50,"velocity":127,"programNumber":29},{"time":8076.921999999996,"duration":574.5191541666672,"noteNumber":45,"velocity":127,"programNumber":29},{"time":8653.844999999996,"duration":141.82690416666628,"noteNumber":52,"velocity":127,"programNumber":29},{"time":8798.075749999995,"duration":141.82690416666628,"noteNumber":45,"velocity":127,"programNumber":29},{"time":8942.306499999993,"duration":574.5191541666663,"noteNumber":57,"velocity":127,"programNumber":29},{"time":9519.229499999992,"duration":286.0576541666669,"noteNumber":45,"velocity":127,"programNumber":29},{"time":9807.690999999992,"duration":141.82690416666628,"noteNumber":52,"velocity":127,"programNumber":29},{"time":9951.92174999999,"duration":141.82690416666628,"noteNumber":50,"velocity":127,"programNumber":29},{"time":10096.15249999999,"duration":132.21152083333254,"noteNumber":48,"velocity":127,"programNumber":29},{"time":10240.383249999988,"duration":132.21152083333254,"noteNumber":50,"velocity":127,"programNumber":29},{"time":10384.613999999987,"duration":574.5191541666663,"noteNumber":45,"velocity":127,"programNumber":29},{"time":10961.536999999986,"duration":141.82690416666628,"noteNumber":52,"velocity":127,"programNumber":29},{"time":11105.767749999985,"duration":141.82690416666628,"noteNumber":45,"velocity":127,"programNumber":29},{"time":11249.998499999983,"duration":574.5191541666663,"noteNumber":57,"velocity":127,"programNumber":29},{"time":11826.921499999982,"duration":286.0576541666669,"noteNumber":45,"velocity":127,"programNumber":29},{"time":12115.382999999982,"duration":141.82690416666628,"noteNumber":52,"velocity":127,"programNumber":29},{"time":12259.61374999998,"duration":141.82690416666628,"noteNumber":50,"velocity":127,"programNumber":29},{"time":12403.84449999998,"duration":132.21152083333254,"noteNumber":48,"velocity":127,"programNumber":29},{"time":12548.075249999978,"duration":132.21152083333254,"noteNumber":50,"velocity":127,"programNumber":29},{"time":12692.305999999977,"duration":574.5191541666663,"noteNumber":45,"velocity":127,"programNumber":29},{"time":13269.228999999976,"duration":141.82690416666628,"noteNumber":52,"velocity":127,"programNumber":29},{"time":13413.459749999975,"duration":141.82690416666628,"noteNumber":45,"velocity":127,"programNumber":29},{"time":13557.690499999973,"duration":574.5191541666663,"noteNumber":57,"velocity":127,"programNumber":29},{"time":14134.613499999972,"duration":286.0576541666669,"noteNumber":45,"velocity":127,"programNumber":29},{"time":14423.074999999972,"duration":141.82690416666628,"noteNumber":52,"velocity":127,"programNumber":29},{"time":14567.30574999997,"duration":141.82690416666628,"noteNumber":50,"velocity":127,"programNumber":29},{"time":14711.53649999997,"duration":132.21152083333254,"noteNumber":48,"velocity":127,"programNumber":29},{"time":14855.767249999968,"duration":132.21152083333254,"noteNumber":50,"velocity":127,"programNumber":29},{"time":14999.997999999967,"duration":574.5191541666663,"noteNumber":45,"velocity":127,"programNumber":29},{"time":15576.920999999966,"duration":141.82690416666628,"noteNumber":52,"velocity":127,"programNumber":29},{"time":15721.151749999965,"duration":141.82690416666628,"noteNumber":45,"velocity":127,"programNumber":29},{"time":15865.382499999963,"duration":574.5191541666682,"noteNumber":57,"velocity":127,"programNumber":29},{"time":16442.305499999966,"duration":286.0576541666669,"noteNumber":45,"velocity":127,"programNumber":29},{"time":16730.766999999967,"duration":141.8269041666681,"noteNumber":52,"velocity":127,"programNumber":29},{"time":16874.99774999997,"duration":141.8269041666681,"noteNumber":50,"velocity":127,"programNumber":29},{"time":17019.228499999972,"duration":132.21152083333436,"noteNumber":48,"velocity":127,"programNumber":29},{"time":17163.459249999974,"duration":132.21152083333436,"noteNumber":50,"velocity":127,"programNumber":29},{"time":17307.689999999977,"duration":574.5191541666682,"noteNumber":45,"velocity":127,"programNumber":29},{"time":17884.61299999998,"duration":141.8269041666681,"noteNumber":52,"velocity":127,"programNumber":29},{"time":18028.84374999998,"duration":141.8269041666681,"noteNumber":45,"velocity":127,"programNumber":29},{"time":18173.074499999984,"duration":574.5191541666682,"noteNumber":57,"velocity":127,"programNumber":29},{"time":18749.997499999987,"duration":286.0576541666669,"noteNumber":45,"velocity":127,"programNumber":29},{"time":19038.458999999988,"duration":141.8269041666681,"noteNumber":52,"velocity":127,"programNumber":29},{"time":19182.68974999999,"duration":141.8269041666681,"noteNumber":50,"velocity":127,"programNumber":29},{"time":19326.920499999993,"duration":132.21152083333436,"noteNumber":48,"velocity":127,"programNumber":29},{"time":19471.151249999995,"duration":132.21152083333436,"noteNumber":50,"velocity":127,"programNumber":29},{"time":19615.381999999998,"duration":574.5191541666682,"noteNumber":45,"velocity":127,"programNumber":29},{"time":20192.305,"duration":141.8269041666681,"noteNumber":52,"velocity":127,"programNumber":29},{"time":20336.535750000003,"duration":141.8269041666681,"noteNumber":45,"velocity":127,"programNumber":29},{"time":20480.766500000005,"duration":574.5191541666682,"noteNumber":57,"velocity":127,"programNumber":29},{"time":21057.689500000008,"duration":286.0576541666669,"noteNumber":45,"velocity":127,"programNumber":29},{"time":21346.15100000001,"duration":141.8269041666681,"noteNumber":52,"velocity":127,"programNumber":29},{"time":21490.38175000001,"duration":141.8269041666681,"noteNumber":50,"velocity":127,"programNumber":29},{"time":21634.612500000014,"duration":132.21152083333436,"noteNumber":48,"velocity":127,"programNumber":29},{"time":21778.843250000016,"duration":132.21152083333436,"noteNumber":50,"velocity":127,"programNumber":29},{"time":21923.07400000002,"duration":574.5191541666682,"noteNumber":45,"velocity":127,"programNumber":29},{"time":22499.99700000002,"duration":141.8269041666681,"noteNumber":52,"velocity":127,"programNumber":29},{"time":22644.227750000024,"duration":141.8269041666681,"noteNumber":45,"velocity":127,"programNumber":29},{"time":22788.458500000026,"duration":574.5191541666682,"noteNumber":57,"velocity":127,"programNumber":29},{"time":23365.38150000003,"duration":286.0576541666669,"noteNumber":45,"velocity":127,"programNumber":29},{"time":23653.84300000003,"duration":141.8269041666681,"noteNumber":52,"velocity":127,"programNumber":29},{"time":23798.073750000032,"duration":141.8269041666681,"noteNumber":50,"velocity":127,"programNumber":29},{"time":23942.304500000035,"duration":132.21152083333436,"noteNumber":48,"velocity":127,"programNumber":29},{"time":24086.535250000037,"duration":132.21152083333436,"noteNumber":50,"velocity":127,"programNumber":29},{"time":24230.76600000004,"duration":574.5191541666682,"noteNumber":45,"velocity":127,"programNumber":29},{"time":24807.689000000042,"duration":141.8269041666681,"noteNumber":52,"velocity":127,"programNumber":29},{"time":24951.919750000045,"duration":141.8269041666681,"noteNumber":45,"velocity":127,"programNumber":29},{"time":25096.150500000047,"duration":574.5191541666682,"noteNumber":57,"velocity":127,"programNumber":29},{"time":25673.07350000005,"duration":286.0576541666669,"noteNumber":45,"velocity":127,"programNumber":29},{"time":25961.53500000005,"duration":141.8269041666681,"noteNumber":52,"velocity":127,"programNumber":29},{"time":26105.765750000053,"duration":141.8269041666681,"noteNumber":50,"velocity":127,"programNumber":29},{"time":26249.996500000056,"duration":132.21152083333436,"noteNumber":48,"velocity":127,"programNumber":29},{"time":26394.227250000058,"duration":132.21152083333436,"noteNumber":50,"velocity":127,"programNumber":29},{"time":26538.45800000006,"duration":574.5191541666682,"noteNumber":45,"velocity":127,"programNumber":29},{"time":27115.381000000063,"duration":141.8269041666681,"noteNumber":52,"velocity":127,"programNumber":29},{"time":27259.611750000066,"duration":141.8269041666681,"noteNumber":45,"velocity":127,"programNumber":29},{"time":27403.842500000068,"duration":574.5191541666682,"noteNumber":57,"velocity":127,"programNumber":29},{"time":27980.76550000007,"duration":286.0576541666669,"noteNumber":45,"velocity":127,"programNumber":29},{"time":28269.22700000007,"duration":141.8269041666681,"noteNumber":52,"velocity":127,"programNumber":29},{"time":28413.457750000074,"duration":141.8269041666681,"noteNumber":50,"velocity":127,"programNumber":29},{"time":28557.688500000077,"duration":132.21152083333436,"noteNumber":48,"velocity":127,"programNumber":29},{"time":28701.91925000008,"duration":132.21152083333436,"noteNumber":50,"velocity":127,"programNumber":29},{"time":28846.15000000008,"duration":574.5191541666682,"noteNumber":45,"velocity":127,"programNumber":29},{"time":29423.073000000084,"duration":141.8269041666681,"noteNumber":52,"velocity":127,"programNumber":29},{"time":29567.303750000086,"duration":141.8269041666681,"noteNumber":45,"velocity":127,"programNumber":29},{"time":29711.53450000009,"duration":574.5191541666682,"noteNumber":57,"velocity":127,"programNumber":29},{"time":30288.45750000009,"duration":286.0576541666669,"noteNumber":45,"velocity":127,"programNumber":29},{"time":30576.919000000093,"duration":141.8269041666681,"noteNumber":52,"velocity":127,"programNumber":29},{"time":30721.149750000095,"duration":141.8269041666681,"noteNumber":50,"velocity":127,"programNumber":29},{"time":30865.380500000098,"duration":132.21152083333436,"noteNumber":48,"velocity":127,"programNumber":29},{"time":31009.6112500001,"duration":132.21152083333436,"noteNumber":50,"velocity":127,"programNumber":29},{"time":31153.842000000102,"duration":574.5191541666682,"noteNumber":45,"velocity":127,"programNumber":29},{"time":31730.765000000105,"duration":141.8269041666681,"noteNumber":52,"velocity":127,"programNumber":29},{"time":31874.995750000107,"duration":141.8269041666681,"noteNumber":45,"velocity":127,"programNumber":29},{"time":32019.22650000011,"duration":574.5191541666682,"noteNumber":57,"velocity":127,"programNumber":29},{"time":32596.149500000112,"duration":286.05765416666327,"noteNumber":45,"velocity":127,"programNumber":29},{"time":32884.611000000106,"duration":141.82690416666446,"noteNumber":52,"velocity":127,"programNumber":29},{"time":33028.8417500001,"duration":141.82690416666446,"noteNumber":50,"velocity":127,"programNumber":29},{"time":33173.0725000001,"duration":132.21152083333436,"noteNumber":48,"velocity":127,"programNumber":29},{"time":33317.3032500001,"duration":132.21152083333436,"noteNumber":50,"velocity":127,"programNumber":29},{"time":33461.5340000001,"duration":574.5191541666645,"noteNumber":45,"velocity":127,"programNumber":29},{"time":34038.4570000001,"duration":141.82690416666446,"noteNumber":52,"velocity":127,"programNumber":29},{"time":34182.68775000009,"duration":141.82690416666446,"noteNumber":45,"velocity":127,"programNumber":29},{"time":34326.91850000009,"duration":574.5191541666645,"noteNumber":57,"velocity":127,"programNumber":29},{"time":34903.84150000008,"duration":286.0576541666669,"noteNumber":45,"velocity":127,"programNumber":29},{"time":35192.30300000008,"duration":141.82690416666446,"noteNumber":52,"velocity":127,"programNumber":29},{"time":35336.533750000075,"duration":141.82690416666446,"noteNumber":50,"velocity":127,"programNumber":29},{"time":35480.76450000007,"duration":132.21152083333436,"noteNumber":48,"velocity":127,"programNumber":29},{"time":35624.99525000007,"duration":132.21152083333436,"noteNumber":50,"velocity":127,"programNumber":29},{"time":35769.226000000075,"duration":574.5191541666645,"noteNumber":45,"velocity":127,"programNumber":29},{"time":36346.14900000007,"duration":141.82690416666446,"noteNumber":52,"velocity":127,"programNumber":29},{"time":36490.379750000066,"duration":141.82690416666446,"noteNumber":45,"velocity":127,"programNumber":29},{"time":36634.61050000006,"duration":574.5191541666645,"noteNumber":57,"velocity":127,"programNumber":29},{"time":37211.533500000056,"duration":286.0576541666669,"noteNumber":45,"velocity":127,"programNumber":29},{"time":37499.99500000005,"duration":141.82690416666446,"noteNumber":52,"velocity":127,"programNumber":29},{"time":37644.22575000005,"duration":141.82690416666446,"noteNumber":50,"velocity":127,"programNumber":29},{"time":37788.456500000044,"duration":132.21152083333436,"noteNumber":48,"velocity":127,"programNumber":29},{"time":37932.687250000046,"duration":132.21152083333436,"noteNumber":50,"velocity":127,"programNumber":29},{"time":38076.91800000005,"duration":574.5191541666645,"noteNumber":45,"velocity":127,"programNumber":29},{"time":38653.841000000044,"duration":141.82690416666446,"noteNumber":52,"velocity":127,"programNumber":29},{"time":38798.07175000004,"duration":141.82690416666446,"noteNumber":45,"velocity":127,"programNumber":29},{"time":38942.302500000034,"duration":574.5191541666645,"noteNumber":57,"velocity":127,"programNumber":29},{"time":39519.22550000003,"duration":286.0576541666669,"noteNumber":45,"velocity":127,"programNumber":29},{"time":39807.68700000003,"duration":141.82690416666446,"noteNumber":52,"velocity":127,"programNumber":29},{"time":39951.91775000002,"duration":141.82690416666446,"noteNumber":50,"velocity":127,"programNumber":29},{"time":40096.14850000002,"duration":132.21152083333436,"noteNumber":48,"velocity":127,"programNumber":29},{"time":40240.37925000002,"duration":132.21152083333436,"noteNumber":50,"velocity":127,"programNumber":29},{"time":40384.61000000002,"duration":574.5191541666645,"noteNumber":45,"velocity":127,"programNumber":29},{"time":40961.53300000002,"duration":141.82690416666446,"noteNumber":52,"velocity":127,"programNumber":29},{"time":41105.76375000001,"duration":141.82690416666446,"noteNumber":45,"velocity":127,"programNumber":29},{"time":41249.99450000001,"duration":574.5191541666645,"noteNumber":57,"velocity":127,"programNumber":29},{"time":41826.9175,"duration":286.0576541666669,"noteNumber":45,"velocity":127,"programNumber":29},{"time":42115.379,"duration":141.82690416666446,"noteNumber":52,"velocity":127,"programNumber":29},{"time":42259.609749999996,"duration":141.82690416666446,"noteNumber":50,"velocity":127,"programNumber":29},{"time":42403.84049999999,"duration":132.21152083333436,"noteNumber":48,"velocity":127,"programNumber":29},{"time":42548.07124999999,"duration":132.21152083333436,"noteNumber":50,"velocity":127,"programNumber":29},{"time":42692.301999999996,"duration":574.5191541666645,"noteNumber":45,"velocity":127,"programNumber":29},{"time":43269.22499999999,"duration":141.82690416666446,"noteNumber":52,"velocity":127,"programNumber":29},{"time":43413.45574999999,"duration":141.82690416666446,"noteNumber":45,"velocity":127,"programNumber":29},{"time":43557.68649999998,"duration":574.5191541666645,"noteNumber":57,"velocity":127,"programNumber":29},{"time":44134.60949999998,"duration":286.0576541666669,"noteNumber":45,"velocity":127,"programNumber":29},{"time":44423.070999999974,"duration":141.82690416666446,"noteNumber":52,"velocity":127,"programNumber":29},{"time":44567.30174999997,"duration":141.82690416666446,"noteNumber":50,"velocity":127,"programNumber":29},{"time":44711.532499999965,"duration":132.21152083333436,"noteNumber":48,"velocity":127,"programNumber":29},{"time":44855.76324999997,"duration":132.21152083333436,"noteNumber":50,"velocity":127,"programNumber":29},{"time":44999.99399999997,"duration":574.5191541666645,"noteNumber":45,"velocity":127,"programNumber":29},{"time":45576.916999999965,"duration":141.82690416666446,"noteNumber":52,"velocity":127,"programNumber":29},{"time":45721.14774999996,"duration":141.82690416666446,"noteNumber":45,"velocity":127,"programNumber":29},{"time":45865.378499999955,"duration":574.5191541666645,"noteNumber":57,"velocity":127,"programNumber":29},{"time":46442.30149999995,"duration":286.0576541666669,"noteNumber":45,"velocity":127,"programNumber":29},{"time":46730.76299999995,"duration":141.82690416666446,"noteNumber":52,"velocity":127,"programNumber":29},{"time":46874.99374999994,"duration":141.82690416666446,"noteNumber":50,"velocity":127,"programNumber":29},{"time":47019.22449999994,"duration":132.21152083333436,"noteNumber":48,"velocity":127,"programNumber":29},{"time":47163.45524999994,"duration":132.21152083333436,"noteNumber":50,"velocity":127,"programNumber":29},{"time":47307.68599999994,"duration":141.82690416666446,"noteNumber":57,"velocity":127,"programNumber":29},{"time":47451.91674999994,"duration":141.82690416666446,"noteNumber":55,"velocity":127,"programNumber":29},{"time":47596.147499999934,"duration":141.82690416666446,"noteNumber":52,"velocity":127,"programNumber":29},{"time":47740.37824999993,"duration":141.82690416666446,"noteNumber":51,"velocity":127,"programNumber":29},{"time":47884.608999999924,"duration":132.21152083333436,"noteNumber":50,"velocity":127,"programNumber":29},{"time":48028.83974999993,"duration":141.82690416666446,"noteNumber":45,"velocity":127,"programNumber":29},{"time":48173.07049999992,"duration":141.82690416666446,"noteNumber":48,"velocity":127,"programNumber":29},{"time":48317.30124999992,"duration":141.82690416666446,"noteNumber":50,"velocity":127,"programNumber":29},{"time":48461.53199999991,"duration":574.5191541666645,"noteNumber":45,"velocity":127,"programNumber":29},{"time":49038.45499999991,"duration":141.82690416666446,"noteNumber":52,"velocity":127,"programNumber":29},{"time":49182.6857499999,"duration":141.82690416666446,"noteNumber":45,"velocity":127,"programNumber":29},{"time":49326.9164999999,"duration":574.5191541666645,"noteNumber":57,"velocity":127,"programNumber":29},{"time":49903.83949999989,"duration":286.0576541666669,"noteNumber":45,"velocity":127,"programNumber":29},{"time":50192.30099999989,"duration":141.82690416666446,"noteNumber":52,"velocity":127,"programNumber":29},{"time":50336.531749999886,"duration":141.82690416666446,"noteNumber":50,"velocity":127,"programNumber":29},{"time":50480.76249999988,"duration":132.21152083333436,"noteNumber":48,"velocity":127,"programNumber":29},{"time":50624.99324999988,"duration":132.21152083333436,"noteNumber":50,"velocity":127,"programNumber":29},{"time":50769.223999999886,"duration":574.5191541666645,"noteNumber":45,"velocity":127,"programNumber":29},{"time":51346.14699999988,"duration":141.82690416666446,"noteNumber":52,"velocity":127,"programNumber":29},{"time":51490.377749999876,"duration":141.82690416666446,"noteNumber":45,"velocity":127,"programNumber":29},{"time":51634.60849999987,"duration":574.5191541666645,"noteNumber":57,"velocity":127,"programNumber":29},{"time":52211.531499999866,"duration":286.0576541666669,"noteNumber":45,"velocity":127,"programNumber":29},{"time":52499.992999999864,"duration":141.82690416666446,"noteNumber":52,"velocity":127,"programNumber":29},{"time":52644.22374999986,"duration":141.82690416666446,"noteNumber":50,"velocity":127,"programNumber":29},{"time":52788.454499999854,"duration":132.21152083333436,"noteNumber":48,"velocity":127,"programNumber":29},{"time":52932.68524999986,"duration":132.21152083333436,"noteNumber":50,"velocity":127,"programNumber":29},{"time":53076.91599999986,"duration":574.5191541666645,"noteNumber":45,"velocity":127,"programNumber":29},{"time":53653.838999999854,"duration":141.82690416666446,"noteNumber":52,"velocity":127,"programNumber":29},{"time":53798.06974999985,"duration":141.82690416666446,"noteNumber":45,"velocity":127,"programNumber":29},{"time":53942.300499999845,"duration":574.5191541666645,"noteNumber":57,"velocity":127,"programNumber":29},{"time":54519.22349999984,"duration":286.0576541666669,"noteNumber":45,"velocity":127,"programNumber":29},{"time":54807.68499999984,"duration":141.82690416666446,"noteNumber":52,"velocity":127,"programNumber":29},{"time":54951.91574999983,"duration":141.82690416666446,"noteNumber":50,"velocity":127,"programNumber":29},{"time":55096.14649999983,"duration":132.21152083333436,"noteNumber":48,"velocity":127,"programNumber":29},{"time":55240.37724999983,"duration":132.21152083333436,"noteNumber":50,"velocity":127,"programNumber":29},{"time":55384.60799999983,"duration":141.82690416666446,"noteNumber":57,"velocity":127,"programNumber":29},{"time":55528.83874999983,"duration":141.82690416666446,"noteNumber":55,"velocity":127,"programNumber":29},{"time":55673.06949999982,"duration":141.82690416666446,"noteNumber":52,"velocity":127,"programNumber":29},{"time":55817.30024999982,"duration":141.82690416666446,"noteNumber":51,"velocity":127,"programNumber":29},{"time":55961.53099999981,"duration":132.21152083333436,"noteNumber":50,"velocity":127,"programNumber":29},{"time":56105.761749999816,"duration":141.82690416666446,"noteNumber":45,"velocity":127,"programNumber":29},{"time":56249.99249999981,"duration":141.82690416666446,"noteNumber":48,"velocity":127,"programNumber":29},{"time":56394.223249999806,"duration":141.82690416666446,"noteNumber":50,"velocity":127,"programNumber":29},{"time":56538.4539999998,"duration":2305.2881541666648,"noteNumber":45,"velocity":127,"programNumber":29},{"time":58846.1459999998,"duration":430.28840416666935,"noteNumber":45,"velocity":127,"programNumber":29},{"time":59278.8382499998,"duration":430.28840416666935,"noteNumber":45,"velocity":127,"programNumber":29},{"time":59711.5304999998,"duration":3747.5956541666674,"noteNumber":41,"velocity":127,"programNumber":29},{"time":63461.529999999795,"duration":430.28840416666935,"noteNumber":45,"velocity":127,"programNumber":29},{"time":63894.222249999795,"duration":430.28840416666935,"noteNumber":45,"velocity":127,"programNumber":29},{"time":64326.914499999795,"duration":3747.5956541666674,"noteNumber":43,"velocity":127,"programNumber":29},{"time":68076.9139999998,"duration":430.28840416666935,"noteNumber":45,"velocity":127,"programNumber":29},{"time":68509.60624999981,"duration":430.28840416666935,"noteNumber":45,"velocity":127,"programNumber":29},{"time":68942.29849999982,"duration":3747.5956541666674,"noteNumber":41,"velocity":127,"programNumber":29},{"time":72692.29799999982,"duration":430.28840416666935,"noteNumber":45,"velocity":127,"programNumber":29},{"time":73124.99024999983,"duration":430.28840416666935,"noteNumber":45,"velocity":127,"programNumber":29},{"time":73557.68249999984,"duration":3747.5956541666674,"noteNumber":43,"velocity":127,"programNumber":29},{"time":77307.68199999984,"duration":430.28840416666935,"noteNumber":45,"velocity":127,"programNumber":29},{"time":77740.37424999985,"duration":430.28840416666935,"noteNumber":45,"velocity":127,"programNumber":29},{"time":78173.06649999986,"duration":3747.5956541666674,"noteNumber":41,"velocity":127,"programNumber":29},{"time":81923.06599999986,"duration":430.28840416666935,"noteNumber":45,"velocity":127,"programNumber":29},{"time":82355.75824999987,"duration":430.28840416666935,"noteNumber":45,"velocity":127,"programNumber":29},{"time":82788.45049999988,"duration":1439.903654166672,"noteNumber":43,"velocity":127,"programNumber":29},{"time":84230.75799999989,"duration":430.28840416666935,"noteNumber":43,"velocity":127,"programNumber":29},{"time":84663.45024999989,"duration":430.28840416666935,"noteNumber":43,"velocity":127,"programNumber":29},{"time":85096.1424999999,"duration":1439.903654166672,"noteNumber":45,"velocity":127,"programNumber":29},{"time":86538.44999999991,"duration":430.28840416666935,"noteNumber":43,"velocity":127,"programNumber":29},{"time":86971.14224999992,"duration":430.28840416666935,"noteNumber":43,"velocity":127,"programNumber":29},{"time":87403.83449999992,"duration":1439.903654166672,"noteNumber":45,"velocity":127,"programNumber":29},{"time":88846.14199999993,"duration":574.5191541666718,"noteNumber":45,"velocity":127,"programNumber":29},{"time":89423.06499999994,"duration":141.82690416666446,"noteNumber":52,"velocity":127,"programNumber":29},{"time":89567.29574999995,"duration":141.82690416666446,"noteNumber":45,"velocity":127,"programNumber":29},{"time":89711.52649999995,"duration":574.5191541666718,"noteNumber":57,"velocity":127,"programNumber":29},{"time":90288.44949999996,"duration":286.0576541666669,"noteNumber":45,"velocity":127,"programNumber":29},{"time":90576.91099999996,"duration":141.82690416666446,"noteNumber":52,"velocity":127,"programNumber":29},{"time":90721.14174999997,"duration":141.82690416666446,"noteNumber":50,"velocity":127,"programNumber":29},{"time":90865.37249999997,"duration":132.21152083332709,"noteNumber":48,"velocity":127,"programNumber":29},{"time":91009.60324999996,"duration":132.21152083332709,"noteNumber":50,"velocity":127,"programNumber":29},{"time":91153.83399999994,"duration":574.5191541666718,"noteNumber":45,"velocity":127,"programNumber":29},{"time":91730.75699999995,"duration":141.82690416666446,"noteNumber":52,"velocity":127,"programNumber":29},{"time":91874.98774999996,"duration":141.82690416666446,"noteNumber":45,"velocity":127,"programNumber":29},{"time":92019.21849999996,"duration":574.5191541666718,"noteNumber":57,"velocity":127,"programNumber":29},{"time":92596.14149999997,"duration":286.0576541666669,"noteNumber":45,"velocity":127,"programNumber":29},{"time":92884.60299999997,"duration":141.82690416666446,"noteNumber":52,"velocity":127,"programNumber":29},{"time":93028.83374999998,"duration":141.82690416666446,"noteNumber":50,"velocity":127,"programNumber":29},{"time":93173.06449999998,"duration":132.21152083332709,"noteNumber":48,"velocity":127,"programNumber":29},{"time":93317.29524999997,"duration":132.21152083332709,"noteNumber":50,"velocity":127,"programNumber":29},{"time":93461.52599999995,"duration":574.5191541666718,"noteNumber":45,"velocity":127,"programNumber":29},{"time":94038.44899999996,"duration":141.82690416666446,"noteNumber":52,"velocity":127,"programNumber":29},{"time":94182.67974999997,"duration":141.82690416666446,"noteNumber":45,"velocity":127,"programNumber":29},{"time":94326.91049999997,"duration":574.5191541666718,"noteNumber":57,"velocity":127,"programNumber":29},{"time":94903.83349999998,"duration":286.0576541666669,"noteNumber":45,"velocity":127,"programNumber":29},{"time":95192.29499999998,"duration":141.82690416666446,"noteNumber":52,"velocity":127,"programNumber":29},{"time":95336.52574999999,"duration":141.82690416666446,"noteNumber":50,"velocity":127,"programNumber":29},{"time":95480.75649999999,"duration":132.21152083332709,"noteNumber":48,"velocity":127,"programNumber":29},{"time":95624.98724999998,"duration":132.21152083332709,"noteNumber":50,"velocity":127,"programNumber":29},{"time":95769.21799999996,"duration":574.5191541666718,"noteNumber":45,"velocity":127,"programNumber":29},{"time":96346.14099999997,"duration":141.82690416666446,"noteNumber":52,"velocity":127,"programNumber":29},{"time":96490.37174999998,"duration":141.82690416666446,"noteNumber":45,"velocity":127,"programNumber":29},{"time":96634.60249999998,"duration":574.5191541666718,"noteNumber":57,"velocity":127,"programNumber":29},{"time":97211.52549999999,"duration":286.0576541666669,"noteNumber":45,"velocity":127,"programNumber":29},{"time":97499.987,"duration":141.82690416666446,"noteNumber":52,"velocity":127,"programNumber":29},{"time":97644.21775,"duration":141.82690416666446,"noteNumber":50,"velocity":127,"programNumber":29},{"time":97788.4485,"duration":132.21152083332709,"noteNumber":48,"velocity":127,"programNumber":29},{"time":97932.67924999999,"duration":132.21152083332709,"noteNumber":50,"velocity":127,"programNumber":29},{"time":98076.90999999997,"duration":574.5191541666718,"noteNumber":45,"velocity":127,"programNumber":29},{"time":98653.83299999998,"duration":141.82690416666446,"noteNumber":52,"velocity":127,"programNumber":29},{"time":98798.06374999999,"duration":141.82690416666446,"noteNumber":45,"velocity":127,"programNumber":29},{"time":98942.29449999999,"duration":574.5191541666718,"noteNumber":57,"velocity":127,"programNumber":29},{"time":99519.2175,"duration":286.0576541666669,"noteNumber":45,"velocity":127,"programNumber":29},{"time":99807.679,"duration":141.82690416666446,"noteNumber":52,"velocity":127,"programNumber":29},{"time":99951.90975,"duration":141.82690416666446,"noteNumber":50,"velocity":127,"programNumber":29},{"time":100096.14050000001,"duration":132.21152083332709,"noteNumber":48,"velocity":127,"programNumber":29},{"time":100240.37125,"duration":132.21152083332709,"noteNumber":50,"velocity":127,"programNumber":29},{"time":100384.60199999998,"duration":574.5191541666718,"noteNumber":45,"velocity":127,"programNumber":29},{"time":100961.525,"duration":141.82690416666446,"noteNumber":52,"velocity":127,"programNumber":29},{"time":101105.75575,"duration":141.82690416666446,"noteNumber":45,"velocity":127,"programNumber":29},{"time":101249.9865,"duration":574.5191541666718,"noteNumber":57,"velocity":127,"programNumber":29},{"time":101826.90950000001,"duration":286.0576541666669,"noteNumber":45,"velocity":127,"programNumber":29},{"time":102115.37100000001,"duration":141.82690416666446,"noteNumber":52,"velocity":127,"programNumber":29},{"time":102259.60175000002,"duration":141.82690416666446,"noteNumber":50,"velocity":127,"programNumber":29},{"time":102403.83250000002,"duration":132.21152083332709,"noteNumber":48,"velocity":127,"programNumber":29},{"time":102548.06325,"duration":132.21152083332709,"noteNumber":50,"velocity":127,"programNumber":29},{"time":102692.294,"duration":574.5191541666718,"noteNumber":45,"velocity":127,"programNumber":29},{"time":103269.217,"duration":141.82690416666446,"noteNumber":52,"velocity":127,"programNumber":29},{"time":103413.44775,"duration":141.82690416666446,"noteNumber":45,"velocity":127,"programNumber":29},{"time":103557.67850000001,"duration":574.5191541666718,"noteNumber":57,"velocity":127,"programNumber":29},{"time":104134.60150000002,"duration":286.0576541666669,"noteNumber":45,"velocity":127,"programNumber":29},{"time":104423.06300000002,"duration":141.82690416666446,"noteNumber":52,"velocity":127,"programNumber":29},{"time":104567.29375000003,"duration":141.82690416666446,"noteNumber":50,"velocity":127,"programNumber":29},{"time":104711.52450000003,"duration":132.21152083332709,"noteNumber":48,"velocity":127,"programNumber":29},{"time":104855.75525000002,"duration":132.21152083332709,"noteNumber":50,"velocity":127,"programNumber":29},{"time":104999.986,"duration":574.5191541666718,"noteNumber":45,"velocity":127,"programNumber":29},{"time":105576.90900000001,"duration":141.82690416666446,"noteNumber":52,"velocity":127,"programNumber":29},{"time":105721.13975000002,"duration":141.82690416666446,"noteNumber":45,"velocity":127,"programNumber":29},{"time":105865.37050000002,"duration":574.5191541666718,"noteNumber":57,"velocity":127,"programNumber":29},{"time":106442.29350000003,"duration":286.0576541666669,"noteNumber":45,"velocity":127,"programNumber":29},{"time":106730.75500000003,"duration":141.82690416666446,"noteNumber":52,"velocity":127,"programNumber":29},{"time":106874.98575000004,"duration":141.82690416666446,"noteNumber":50,"velocity":127,"programNumber":29},{"time":107019.21650000004,"duration":132.21152083332709,"noteNumber":48,"velocity":127,"programNumber":29},{"time":107163.44725000003,"duration":132.21152083332709,"noteNumber":50,"velocity":127,"programNumber":29},{"time":107307.67800000001,"duration":574.5191541666718,"noteNumber":45,"velocity":127,"programNumber":29},{"time":107884.60100000002,"duration":141.82690416666446,"noteNumber":52,"velocity":127,"programNumber":29},{"time":108028.83175000003,"duration":141.82690416666446,"noteNumber":45,"velocity":127,"programNumber":29},{"time":108173.06250000003,"duration":574.5191541666718,"noteNumber":57,"velocity":127,"programNumber":29},{"time":108749.98550000004,"duration":286.0576541666669,"noteNumber":45,"velocity":127,"programNumber":29},{"time":109038.44700000004,"duration":141.82690416666446,"noteNumber":52,"velocity":127,"programNumber":29},{"time":109182.67775000005,"duration":141.82690416666446,"noteNumber":50,"velocity":127,"programNumber":29},{"time":109326.90850000005,"duration":132.21152083332709,"noteNumber":48,"velocity":127,"programNumber":29},{"time":109471.13925000004,"duration":132.21152083332709,"noteNumber":50,"velocity":127,"programNumber":29},{"time":109615.37000000002,"duration":574.5191541666718,"noteNumber":45,"velocity":127,"programNumber":29},{"time":110192.29300000003,"duration":141.82690416666446,"noteNumber":52,"velocity":127,"programNumber":29},{"time":110336.52375000004,"duration":141.82690416666446,"noteNumber":45,"velocity":127,"programNumber":29},{"time":110480.75450000004,"duration":574.5191541666718,"noteNumber":57,"velocity":127,"programNumber":29},{"time":111057.67750000005,"duration":286.0576541666669,"noteNumber":45,"velocity":127,"programNumber":29},{"time":111346.13900000005,"duration":141.82690416666446,"noteNumber":52,"velocity":127,"programNumber":29},{"time":111490.36975000006,"duration":141.82690416666446,"noteNumber":50,"velocity":127,"programNumber":29},{"time":111634.60050000006,"duration":132.21152083332709,"noteNumber":48,"velocity":127,"programNumber":29},{"time":111778.83125000005,"duration":132.21152083332709,"noteNumber":50,"velocity":127,"programNumber":29},{"time":111923.06200000003,"duration":574.5191541666718,"noteNumber":45,"velocity":127,"programNumber":29},{"time":112499.98500000004,"duration":141.82690416666446,"noteNumber":52,"velocity":127,"programNumber":29},{"time":112644.21575000005,"duration":141.82690416666446,"noteNumber":45,"velocity":127,"programNumber":29},{"time":112788.44650000005,"duration":574.5191541666718,"noteNumber":57,"velocity":127,"programNumber":29},{"time":113365.36950000006,"duration":286.0576541666669,"noteNumber":45,"velocity":127,"programNumber":29},{"time":113653.83100000006,"duration":141.82690416666446,"noteNumber":52,"velocity":127,"programNumber":29},{"time":113798.06175000007,"duration":141.82690416666446,"noteNumber":50,"velocity":127,"programNumber":29},{"time":113942.29250000007,"duration":132.21152083332709,"noteNumber":48,"velocity":127,"programNumber":29},{"time":114086.52325000006,"duration":132.21152083332709,"noteNumber":50,"velocity":127,"programNumber":29},{"time":114230.75400000004,"duration":574.5191541666718,"noteNumber":45,"velocity":127,"programNumber":29},{"time":114807.67700000005,"duration":141.82690416666446,"noteNumber":52,"velocity":127,"programNumber":29},{"time":114951.90775000006,"duration":141.82690416666446,"noteNumber":45,"velocity":127,"programNumber":29},{"time":115096.13850000006,"duration":574.5191541666718,"noteNumber":57,"velocity":127,"programNumber":29},{"time":115673.06150000007,"duration":286.0576541666669,"noteNumber":45,"velocity":127,"programNumber":29},{"time":115961.52300000007,"duration":141.82690416666446,"noteNumber":52,"velocity":127,"programNumber":29},{"time":116105.75375000008,"duration":141.82690416666446,"noteNumber":50,"velocity":127,"programNumber":29},{"time":116249.98450000008,"duration":132.21152083332709,"noteNumber":48,"velocity":127,"programNumber":29},{"time":116394.21525000007,"duration":132.21152083332709,"noteNumber":50,"velocity":127,"programNumber":29},{"time":116538.44600000005,"duration":574.5191541666718,"noteNumber":45,"velocity":127,"programNumber":29},{"time":117115.36900000006,"duration":141.82690416666446,"noteNumber":52,"velocity":127,"programNumber":29},{"time":117259.59975000007,"duration":141.82690416666446,"noteNumber":45,"velocity":127,"programNumber":29},{"time":117403.83050000007,"duration":574.5191541666718,"noteNumber":57,"velocity":127,"programNumber":29},{"time":117980.75350000008,"duration":286.0576541666669,"noteNumber":45,"velocity":127,"programNumber":29},{"time":118269.21500000008,"duration":141.82690416666446,"noteNumber":52,"velocity":127,"programNumber":29},{"time":118413.44575000009,"duration":141.82690416666446,"noteNumber":50,"velocity":127,"programNumber":29},{"time":118557.67650000009,"duration":132.21152083332709,"noteNumber":48,"velocity":127,"programNumber":29},{"time":118701.90725000008,"duration":132.21152083332709,"noteNumber":50,"velocity":127,"programNumber":29},{"time":118846.13800000006,"duration":574.5191541666718,"noteNumber":45,"velocity":127,"programNumber":29},{"time":119423.06100000007,"duration":141.82690416666446,"noteNumber":52,"velocity":127,"programNumber":29},{"time":119567.29175000008,"duration":141.82690416666446,"noteNumber":45,"velocity":127,"programNumber":29},{"time":119711.52250000008,"duration":574.5191541666718,"noteNumber":57,"velocity":127,"programNumber":29},{"time":120288.44550000009,"duration":286.0576541666669,"noteNumber":45,"velocity":127,"programNumber":29},{"time":120576.9070000001,"duration":141.82690416666446,"noteNumber":52,"velocity":127,"programNumber":29},{"time":120721.1377500001,"duration":141.82690416666446,"noteNumber":50,"velocity":127,"programNumber":29},{"time":120865.3685000001,"duration":132.21152083332709,"noteNumber":48,"velocity":127,"programNumber":29},{"time":121009.59925000009,"duration":132.21152083332709,"noteNumber":50,"velocity":127,"programNumber":29},{"time":121153.83000000007,"duration":574.5191541666718,"noteNumber":45,"velocity":127,"programNumber":29},{"time":121730.75300000008,"duration":141.82690416666446,"noteNumber":52,"velocity":127,"programNumber":29},{"time":121874.98375000009,"duration":141.82690416666446,"noteNumber":45,"velocity":127,"programNumber":29},{"time":122019.21450000009,"duration":574.5191541666718,"noteNumber":57,"velocity":127,"programNumber":29},{"time":122596.1375000001,"duration":286.0576541666669,"noteNumber":45,"velocity":127,"programNumber":29},{"time":122884.5990000001,"duration":141.82690416666446,"noteNumber":52,"velocity":127,"programNumber":29},{"time":123028.8297500001,"duration":141.82690416666446,"noteNumber":50,"velocity":127,"programNumber":29},{"time":123173.06050000011,"duration":132.21152083332709,"noteNumber":48,"velocity":127,"programNumber":29},{"time":123317.2912500001,"duration":132.21152083332709,"noteNumber":50,"velocity":127,"programNumber":29},{"time":123461.52200000008,"duration":141.82690416666446,"noteNumber":57,"velocity":127,"programNumber":29},{"time":123605.75275000009,"duration":141.82690416666446,"noteNumber":55,"velocity":127,"programNumber":29},{"time":123749.98350000009,"duration":141.82690416666446,"noteNumber":52,"velocity":127,"programNumber":29},{"time":123894.21425000009,"duration":141.82690416666446,"noteNumber":51,"velocity":127,"programNumber":29},{"time":124038.4450000001,"duration":132.21152083332709,"noteNumber":50,"velocity":127,"programNumber":29},{"time":124182.67575000008,"duration":141.82690416666446,"noteNumber":45,"velocity":127,"programNumber":29},{"time":124326.90650000008,"duration":141.82690416666446,"noteNumber":48,"velocity":127,"programNumber":29},{"time":124471.13725000009,"duration":141.82690416666446,"noteNumber":50,"velocity":127,"programNumber":29},{"time":124615.36800000009,"duration":2305.288154166672,"noteNumber":45,"velocity":127,"programNumber":29},{"time":126923.0600000001,"duration":430.28840416666935,"noteNumber":45,"velocity":127,"programNumber":29},{"time":127355.7522500001,"duration":430.28840416666935,"noteNumber":45,"velocity":127,"programNumber":29},{"time":127788.44450000011,"duration":3747.5956541666674,"noteNumber":41,"velocity":127,"programNumber":29},{"time":131538.4440000001,"duration":430.28840416666935,"noteNumber":45,"velocity":127,"programNumber":29},{"time":131971.1362500001,"duration":430.28840416666935,"noteNumber":45,"velocity":127,"programNumber":29},{"time":132403.8285000001,"duration":3747.595654166653,"noteNumber":43,"velocity":127,"programNumber":29},{"time":136153.82800000007,"duration":430.28840416666935,"noteNumber":45,"velocity":127,"programNumber":29},{"time":136586.52025000006,"duration":430.28840416666935,"noteNumber":45,"velocity":127,"programNumber":29},{"time":137019.21250000005,"duration":3747.595654166653,"noteNumber":41,"velocity":127,"programNumber":29},{"time":140769.21200000003,"duration":430.28840416666935,"noteNumber":45,"velocity":127,"programNumber":29},{"time":141201.90425000002,"duration":430.28840416666935,"noteNumber":45,"velocity":127,"programNumber":29},{"time":141634.5965,"duration":3747.595654166653,"noteNumber":43,"velocity":127,"programNumber":29},{"time":145384.596,"duration":430.28840416666935,"noteNumber":45,"velocity":127,"programNumber":29},{"time":145817.28824999998,"duration":430.28840416666935,"noteNumber":45,"velocity":127,"programNumber":29},{"time":146249.98049999998,"duration":3747.595654166653,"noteNumber":41,"velocity":127,"programNumber":29},{"time":149999.97999999995,"duration":430.28840416666935,"noteNumber":45,"velocity":127,"programNumber":29},{"time":150432.67224999995,"duration":430.28840416666935,"noteNumber":45,"velocity":127,"programNumber":29},{"time":150865.36449999994,"duration":1439.903654166672,"noteNumber":43,"velocity":127,"programNumber":29},{"time":152307.67199999993,"duration":141.82690416666446,"noteNumber":43,"velocity":127,"programNumber":29},{"time":152451.90274999992,"duration":141.82690416666446,"noteNumber":43,"velocity":127,"programNumber":29},{"time":152596.1334999999,"duration":141.82690416666446,"noteNumber":43,"velocity":127,"programNumber":29},{"time":152740.3642499999,"duration":286.05765416665236,"noteNumber":43,"velocity":127,"programNumber":29},{"time":153028.82574999987,"duration":141.82690416666446,"noteNumber":43,"velocity":127,"programNumber":29},{"time":153173.05649999986,"duration":1439.903654166672,"noteNumber":45,"velocity":127,"programNumber":29},{"time":154615.36399999986,"duration":430.28840416666935,"noteNumber":45,"velocity":127,"programNumber":29},{"time":155048.05624999985,"duration":430.28840416666935,"noteNumber":45,"velocity":127,"programNumber":29},{"time":155480.74849999984,"duration":3747.595654166653,"noteNumber":41,"velocity":127,"programNumber":29},{"time":159230.74799999982,"duration":430.28840416666935,"noteNumber":45,"velocity":127,"programNumber":29},{"time":159663.4402499998,"duration":430.28840416666935,"noteNumber":45,"velocity":127,"programNumber":29},{"time":160096.1324999998,"duration":1439.903654166672,"noteNumber":43,"velocity":127,"programNumber":29},{"time":161538.4399999998,"duration":430.28840416666935,"noteNumber":43,"velocity":127,"programNumber":29},{"time":161971.1322499998,"duration":430.28840416666935,"noteNumber":43,"velocity":127,"programNumber":29},{"time":162403.82449999978,"duration":1439.903654166672,"noteNumber":45,"velocity":127,"programNumber":29},{"time":163846.13199999978,"duration":430.28840416666935,"noteNumber":43,"velocity":127,"programNumber":29},{"time":164278.82424999977,"duration":430.28840416666935,"noteNumber":43,"velocity":127,"programNumber":29},{"time":164711.51649999977,"duration":1439.903654166672,"noteNumber":45,"velocity":127,"programNumber":29},{"time":166153.82399999976,"duration":430.28840416666935,"noteNumber":43,"velocity":127,"programNumber":29},{"time":166586.51624999975,"duration":430.28840416666935,"noteNumber":43,"velocity":127,"programNumber":29},{"time":167019.20849999975,"duration":862.9806541666621,"noteNumber":45,"velocity":127,"programNumber":29},{"time":168461.51599999974,"duration":141.82690416666446,"noteNumber":43,"velocity":127,"programNumber":29},{"time":168605.74674999973,"duration":141.82690416666446,"noteNumber":43,"velocity":127,"programNumber":29},{"time":168749.97749999972,"duration":141.82690416666446,"noteNumber":43,"velocity":127,"programNumber":29},{"time":168894.2082499997,"duration":286.05765416665236,"noteNumber":43,"velocity":127,"programNumber":29},{"time":169182.66974999968,"duration":141.82690416666446,"noteNumber":43,"velocity":127,"programNumber":29},{"time":169326.90049999967,"duration":430.28840416666935,"noteNumber":45,"velocity":127,"programNumber":29},{"time":169759.59274999966,"duration":430.28840416666935,"noteNumber":45,"velocity":127,"programNumber":29},{"time":170192.28499999965,"duration":574.5191541666572,"noteNumber":45,"velocity":127,"programNumber":29},{"time":170192.28499999965,"duration":574.5191541666572,"noteNumber":54,"velocity":127,"programNumber":29},{"time":170769.20799999963,"duration":141.82690416666446,"noteNumber":43,"velocity":127,"programNumber":29},{"time":170913.43874999962,"duration":141.82690416666446,"noteNumber":43,"velocity":127,"programNumber":29},{"time":171057.6694999996,"duration":141.82690416666446,"noteNumber":43,"velocity":127,"programNumber":29},{"time":171201.9002499996,"duration":286.05765416665236,"noteNumber":43,"velocity":127,"programNumber":29},{"time":171490.36174999957,"duration":141.82690416666446,"noteNumber":43,"velocity":127,"programNumber":29},{"time":171634.59249999956,"duration":430.28840416666935,"noteNumber":45,"velocity":127,"programNumber":29},{"time":172067.28474999956,"duration":430.28840416666935,"noteNumber":45,"velocity":127,"programNumber":29},{"time":172499.97699999955,"duration":574.5191541666572,"noteNumber":45,"velocity":127,"programNumber":29},{"time":172499.97699999955,"duration":574.5191541666572,"noteNumber":54,"velocity":127,"programNumber":29},{"time":173076.89999999953,"duration":141.82690416666446,"noteNumber":43,"velocity":127,"programNumber":29},{"time":173221.13074999952,"duration":141.82690416666446,"noteNumber":43,"velocity":127,"programNumber":29},{"time":173365.3614999995,"duration":141.82690416666446,"noteNumber":43,"velocity":127,"programNumber":29},{"time":173509.5922499995,"duration":286.05765416665236,"noteNumber":43,"velocity":127,"programNumber":29},{"time":173798.05374999947,"duration":141.82690416666446,"noteNumber":43,"velocity":127,"programNumber":29},{"time":173942.28449999946,"duration":430.28840416666935,"noteNumber":45,"velocity":127,"programNumber":29},{"time":174374.97674999945,"duration":430.28840416666935,"noteNumber":45,"velocity":127,"programNumber":29},{"time":174807.66899999944,"duration":574.5191541666572,"noteNumber":45,"velocity":127,"programNumber":29},{"time":174807.66899999944,"duration":574.5191541666572,"noteNumber":54,"velocity":127,"programNumber":29},{"time":175384.59199999942,"duration":141.82690416666446,"noteNumber":43,"velocity":127,"programNumber":29},{"time":175528.8227499994,"duration":141.82690416666446,"noteNumber":43,"velocity":127,"programNumber":29},{"time":175673.0534999994,"duration":141.82690416666446,"noteNumber":43,"velocity":127,"programNumber":29},{"time":175817.2842499994,"duration":286.05765416665236,"noteNumber":43,"velocity":127,"programNumber":29},{"time":176105.74574999936,"duration":141.82690416666446,"noteNumber":43,"velocity":127,"programNumber":29},{"time":176249.97649999935,"duration":430.28840416666935,"noteNumber":45,"velocity":127,"programNumber":29},{"time":176682.66874999934,"duration":430.28840416666935,"noteNumber":45,"velocity":127,"programNumber":29},{"time":177115.36099999934,"duration":574.5191541666572,"noteNumber":45,"velocity":127,"programNumber":29},{"time":177115.36099999934,"duration":574.5191541666572,"noteNumber":54,"velocity":127,"programNumber":29},{"time":178557.66849999933,"duration":430.28840416666935,"noteNumber":45,"velocity":100,"programNumber":29},{"time":179423.05299999935,"duration":574.5191541666572,"noteNumber":45,"velocity":100,"programNumber":29},{"time":180865.36049999934,"duration":430.28840416666935,"noteNumber":45,"velocity":100,"programNumber":29},{"time":181730.74499999936,"duration":574.5191541666572,"noteNumber":45,"velocity":100,"programNumber":29},{"time":183173.05249999935,"duration":430.28840416666935,"noteNumber":45,"velocity":100,"programNumber":29},{"time":184038.43699999937,"duration":574.5191541666572,"noteNumber":45,"velocity":100,"programNumber":29},{"time":185480.74449999936,"duration":430.28840416666935,"noteNumber":45,"velocity":100,"programNumber":29},{"time":186346.12899999938,"duration":574.5191541666572,"noteNumber":45,"velocity":100,"programNumber":29},{"time":187788.43649999937,"duration":430.28840416666935,"noteNumber":45,"velocity":100,"programNumber":29},{"time":188653.82099999939,"duration":574.5191541666572,"noteNumber":45,"velocity":100,"programNumber":29},{"time":190096.12849999938,"duration":430.28840416666935,"noteNumber":45,"velocity":100,"programNumber":29},{"time":190961.5129999994,"duration":574.5191541666572,"noteNumber":45,"velocity":100,"programNumber":29},{"time":192403.8204999994,"duration":430.28840416666935,"noteNumber":45,"velocity":100,"programNumber":29},{"time":193269.2049999994,"duration":574.5191541666572,"noteNumber":45,"velocity":100,"programNumber":29},{"time":194711.5124999994,"duration":430.28840416666935,"noteNumber":45,"velocity":100,"programNumber":29},{"time":195576.89699999942,"duration":574.5191541666572,"noteNumber":45,"velocity":100,"programNumber":29},{"time":197019.2044999994,"duration":430.28840416666935,"noteNumber":45,"velocity":100,"programNumber":29},{"time":197884.58899999943,"duration":574.5191541666572,"noteNumber":45,"velocity":100,"programNumber":29},{"time":199326.89649999942,"duration":430.28840416666935,"noteNumber":45,"velocity":100,"programNumber":29},{"time":200192.28099999944,"duration":574.5191541666572,"noteNumber":45,"velocity":100,"programNumber":29},{"time":201634.58849999943,"duration":430.28840416666935,"noteNumber":45,"velocity":100,"programNumber":29},{"time":202499.97299999945,"duration":574.5191541666572,"noteNumber":45,"velocity":100,"programNumber":29},{"time":203942.28049999944,"duration":430.28840416666935,"noteNumber":45,"velocity":100,"programNumber":29},{"time":204807.66499999946,"duration":574.5191541666572,"noteNumber":45,"velocity":100,"programNumber":29},{"time":206249.97249999945,"duration":430.28840416666935,"noteNumber":45,"velocity":100,"programNumber":29},{"time":207115.35699999947,"duration":574.5191541666572,"noteNumber":45,"velocity":100,"programNumber":29},{"time":208557.66449999946,"duration":430.28840416666935,"noteNumber":45,"velocity":100,"programNumber":29},{"time":209423.04899999948,"duration":574.5191541666572,"noteNumber":45,"velocity":100,"programNumber":29},{"time":210865.35649999947,"duration":430.28840416666935,"noteNumber":45,"velocity":100,"programNumber":29},{"time":211730.74099999949,"duration":574.5191541666572,"noteNumber":45,"velocity":100,"programNumber":29},{"time":213173.04849999948,"duration":430.28840416666935,"noteNumber":45,"velocity":100,"programNumber":29},{"time":214038.4329999995,"duration":574.5191541666572,"noteNumber":45,"velocity":100,"programNumber":29},{"time":223846.1239999995,"duration":141.82690416666446,"noteNumber":43,"velocity":127,"programNumber":29},{"time":223990.35474999947,"duration":141.82690416666446,"noteNumber":43,"velocity":127,"programNumber":29},{"time":224134.58549999946,"duration":141.82690416666446,"noteNumber":43,"velocity":127,"programNumber":29},{"time":224278.81624999945,"duration":286.05765416665236,"noteNumber":43,"velocity":127,"programNumber":29},{"time":224567.27774999943,"duration":141.82690416666446,"noteNumber":43,"velocity":127,"programNumber":29},{"time":224711.5084999994,"duration":430.28840416666935,"noteNumber":45,"velocity":127,"programNumber":29},{"time":225144.2007499994,"duration":430.28840416666935,"noteNumber":45,"velocity":127,"programNumber":29},{"time":225576.8929999994,"duration":574.5191541666572,"noteNumber":45,"velocity":127,"programNumber":29},{"time":225576.8929999994,"duration":574.5191541666572,"noteNumber":54,"velocity":127,"programNumber":29},{"time":226153.81599999938,"duration":141.82690416666446,"noteNumber":43,"velocity":127,"programNumber":29},{"time":226298.04674999937,"duration":141.82690416666446,"noteNumber":43,"velocity":127,"programNumber":29},{"time":226442.27749999936,"duration":141.82690416666446,"noteNumber":43,"velocity":127,"programNumber":29},{"time":226586.50824999934,"duration":286.05765416665236,"noteNumber":43,"velocity":127,"programNumber":29},{"time":226874.96974999932,"duration":141.82690416666446,"noteNumber":43,"velocity":127,"programNumber":29},{"time":227019.2004999993,"duration":430.28840416666935,"noteNumber":45,"velocity":127,"programNumber":29},{"time":227451.8927499993,"duration":430.28840416666935,"noteNumber":45,"velocity":127,"programNumber":29},{"time":227884.5849999993,"duration":574.5191541666572,"noteNumber":45,"velocity":127,"programNumber":29},{"time":227884.5849999993,"duration":574.5191541666572,"noteNumber":54,"velocity":127,"programNumber":29},{"time":228461.50799999927,"duration":141.82690416666446,"noteNumber":43,"velocity":127,"programNumber":29},{"time":228605.73874999926,"duration":141.82690416666446,"noteNumber":43,"velocity":127,"programNumber":29},{"time":228749.96949999925,"duration":141.82690416666446,"noteNumber":43,"velocity":127,"programNumber":29},{"time":228894.20024999924,"duration":286.05765416665236,"noteNumber":43,"velocity":127,"programNumber":29},{"time":229182.6617499992,"duration":141.82690416666446,"noteNumber":43,"velocity":127,"programNumber":29},{"time":229326.8924999992,"duration":430.28840416666935,"noteNumber":45,"velocity":127,"programNumber":29},{"time":229759.5847499992,"duration":430.28840416666935,"noteNumber":45,"velocity":127,"programNumber":29},{"time":230192.2769999992,"duration":574.5191541666572,"noteNumber":45,"velocity":127,"programNumber":29},{"time":230192.2769999992,"duration":574.5191541666572,"noteNumber":54,"velocity":127,"programNumber":29},{"time":230769.19999999917,"duration":141.82690416666446,"noteNumber":43,"velocity":127,"programNumber":29},{"time":230913.43074999916,"duration":141.82690416666446,"noteNumber":43,"velocity":127,"programNumber":29},{"time":231057.66149999914,"duration":141.82690416666446,"noteNumber":43,"velocity":127,"programNumber":29},{"time":231201.89224999913,"duration":286.05765416665236,"noteNumber":43,"velocity":127,"programNumber":29},{"time":231490.3537499991,"duration":141.82690416666446,"noteNumber":43,"velocity":127,"programNumber":29},{"time":231634.5844999991,"duration":430.28840416666935,"noteNumber":45,"velocity":127,"programNumber":29},{"time":232067.2767499991,"duration":430.28840416666935,"noteNumber":45,"velocity":127,"programNumber":29},{"time":232499.96899999908,"duration":574.5191541666572,"noteNumber":45,"velocity":127,"programNumber":29},{"time":232499.96899999908,"duration":574.5191541666572,"noteNumber":54,"velocity":127,"programNumber":29},{"time":233076.89199999906,"duration":430.28840416666935,"noteNumber":45,"velocity":127,"programNumber":29},{"time":233509.58424999905,"duration":430.28840416666935,"noteNumber":45,"velocity":127,"programNumber":29},{"time":233942.27649999905,"duration":3747.595654166653,"noteNumber":41,"velocity":127,"programNumber":29},{"time":237692.27599999902,"duration":430.28840416666935,"noteNumber":45,"velocity":127,"programNumber":29},{"time":238124.96824999902,"duration":430.28840416666935,"noteNumber":45,"velocity":127,"programNumber":29},{"time":238557.660499999,"duration":3747.595654166653,"noteNumber":43,"velocity":127,"programNumber":29},{"time":242307.65999999898,"duration":430.28840416666935,"noteNumber":45,"velocity":127,"programNumber":29},{"time":242740.35224999898,"duration":430.28840416666935,"noteNumber":45,"velocity":127,"programNumber":29},{"time":243173.04449999897,"duration":3747.595654166653,"noteNumber":41,"velocity":127,"programNumber":29},{"time":246923.04399999895,"duration":430.28840416666935,"noteNumber":45,"velocity":127,"programNumber":29},{"time":247355.73624999894,"duration":430.28840416666935,"noteNumber":45,"velocity":127,"programNumber":29},{"time":247788.42849999893,"duration":3747.595654166653,"noteNumber":43,"velocity":127,"programNumber":29},{"time":251538.4279999989,"duration":430.28840416666935,"noteNumber":45,"velocity":127,"programNumber":29},{"time":251971.1202499989,"duration":430.28840416666935,"noteNumber":45,"velocity":127,"programNumber":29},{"time":252403.8124999989,"duration":3747.595654166653,"noteNumber":41,"velocity":127,"programNumber":29},{"time":256153.81199999887,"duration":430.28840416666935,"noteNumber":45,"velocity":127,"programNumber":29},{"time":256586.50424999886,"duration":430.28840416666935,"noteNumber":45,"velocity":127,"programNumber":29},{"time":257019.19649999886,"duration":1439.903654166672,"noteNumber":43,"velocity":127,"programNumber":29},{"time":258461.50399999885,"duration":141.82690416666446,"noteNumber":43,"velocity":127,"programNumber":29},{"time":258605.73474999884,"duration":141.82690416666446,"noteNumber":43,"velocity":127,"programNumber":29},{"time":258749.96549999883,"duration":141.82690416666446,"noteNumber":43,"velocity":127,"programNumber":29},{"time":258894.19624999881,"duration":286.05765416665236,"noteNumber":43,"velocity":127,"programNumber":29},{"time":259182.6577499988,"duration":141.82690416666446,"noteNumber":43,"velocity":127,"programNumber":29},{"time":259326.88849999878,"duration":1439.903654166672,"noteNumber":45,"velocity":127,"programNumber":29},{"time":260769.19599999877,"duration":430.28840416666935,"noteNumber":45,"velocity":127,"programNumber":29},{"time":261201.88824999877,"duration":430.28840416666935,"noteNumber":45,"velocity":127,"programNumber":29},{"time":261634.58049999876,"duration":3747.595654166653,"noteNumber":41,"velocity":127,"programNumber":29},{"time":265384.57999999874,"duration":430.28840416664025,"noteNumber":45,"velocity":127,"programNumber":29},{"time":265817.2722499987,"duration":430.28840416664025,"noteNumber":45,"velocity":127,"programNumber":29},{"time":266249.96449999866,"duration":1439.903654166672,"noteNumber":43,"velocity":127,"programNumber":29},{"time":267692.27199999866,"duration":430.28840416664025,"noteNumber":43,"velocity":127,"programNumber":29},{"time":268124.9642499986,"duration":430.28840416664025,"noteNumber":43,"velocity":127,"programNumber":29},{"time":268557.6564999986,"duration":1439.903654166672,"noteNumber":45,"velocity":127,"programNumber":29},{"time":269999.9639999986,"duration":430.28840416664025,"noteNumber":43,"velocity":127,"programNumber":29},{"time":270432.65624999854,"duration":430.28840416664025,"noteNumber":43,"velocity":127,"programNumber":29},{"time":270865.3484999985,"duration":1439.903654166672,"noteNumber":45,"velocity":127,"programNumber":29},{"time":272307.6559999985,"duration":430.28840416664025,"noteNumber":43,"velocity":127,"programNumber":29},{"time":272740.34824999847,"duration":430.28840416664025,"noteNumber":43,"velocity":127,"programNumber":29},{"time":273173.04049999843,"duration":862.9806541666621,"noteNumber":45,"velocity":127,"programNumber":29},{"time":274615.3479999984,"duration":141.82690416666446,"noteNumber":43,"velocity":127,"programNumber":29},{"time":274759.5787499984,"duration":141.82690416666446,"noteNumber":43,"velocity":127,"programNumber":29},{"time":274903.8094999984,"duration":141.82690416666446,"noteNumber":43,"velocity":127,"programNumber":29},{"time":275048.0402499984,"duration":286.05765416665236,"noteNumber":43,"velocity":127,"programNumber":29},{"time":275336.50174999837,"duration":141.82690416666446,"noteNumber":43,"velocity":127,"programNumber":29},{"time":275480.73249999835,"duration":430.28840416664025,"noteNumber":45,"velocity":127,"programNumber":29},{"time":275913.4247499983,"duration":430.28840416664025,"noteNumber":45,"velocity":127,"programNumber":29},{"time":276346.1169999983,"duration":574.5191541666863,"noteNumber":45,"velocity":127,"programNumber":29},{"time":276923.0399999983,"duration":141.82690416666446,"noteNumber":43,"velocity":127,"programNumber":29},{"time":277067.2707499983,"duration":141.82690416666446,"noteNumber":43,"velocity":127,"programNumber":29},{"time":277211.50149999827,"duration":141.82690416666446,"noteNumber":43,"velocity":127,"programNumber":29},{"time":277355.73224999825,"duration":286.05765416665236,"noteNumber":43,"velocity":127,"programNumber":29},{"time":277644.19374999823,"duration":141.82690416666446,"noteNumber":43,"velocity":127,"programNumber":29},{"time":277788.4244999982,"duration":430.28840416664025,"noteNumber":45,"velocity":127,"programNumber":29},{"time":278221.1167499982,"duration":430.28840416664025,"noteNumber":45,"velocity":127,"programNumber":29},{"time":278653.80899999815,"duration":574.5191541666863,"noteNumber":45,"velocity":127,"programNumber":29},{"time":279230.73199999816,"duration":141.82690416666446,"noteNumber":43,"velocity":127,"programNumber":29},{"time":279374.96274999814,"duration":141.82690416666446,"noteNumber":43,"velocity":127,"programNumber":29},{"time":279519.19349999813,"duration":141.82690416666446,"noteNumber":43,"velocity":127,"programNumber":29},{"time":279663.4242499981,"duration":286.05765416665236,"noteNumber":43,"velocity":127,"programNumber":29},{"time":279951.8857499981,"duration":141.82690416666446,"noteNumber":43,"velocity":127,"programNumber":29},{"time":280096.1164999981,"duration":430.28840416664025,"noteNumber":45,"velocity":127,"programNumber":29},{"time":280528.80874999805,"duration":430.28840416664025,"noteNumber":45,"velocity":127,"programNumber":29},{"time":280961.500999998,"duration":574.5191541666863,"noteNumber":45,"velocity":127,"programNumber":29},{"time":281538.423999998,"duration":141.82690416666446,"noteNumber":43,"velocity":127,"programNumber":29},{"time":281682.654749998,"duration":141.82690416666446,"noteNumber":43,"velocity":127,"programNumber":29},{"time":281826.885499998,"duration":141.82690416666446,"noteNumber":43,"velocity":127,"programNumber":29},{"time":281971.116249998,"duration":286.05765416665236,"noteNumber":43,"velocity":127,"programNumber":29},{"time":282259.57774999796,"duration":141.82690416666446,"noteNumber":43,"velocity":127,"programNumber":29},{"time":282403.80849999795,"duration":430.28840416664025,"noteNumber":45,"velocity":127,"programNumber":29},{"time":282836.5007499979,"duration":430.28840416664025,"noteNumber":45,"velocity":127,"programNumber":29},{"time":283269.1929999979,"duration":574.5191541666863,"noteNumber":45,"velocity":127,"programNumber":29},{"time":283846.1159999979,"duration":141.82690416666446,"noteNumber":43,"velocity":127,"programNumber":29},{"time":283990.3467499979,"duration":141.82690416666446,"noteNumber":43,"velocity":127,"programNumber":29},{"time":284134.57749999786,"duration":141.82690416666446,"noteNumber":43,"velocity":127,"programNumber":29},{"time":284278.80824999785,"duration":286.05765416665236,"noteNumber":43,"velocity":127,"programNumber":29},{"time":284567.2697499978,"duration":141.82690416666446,"noteNumber":43,"velocity":127,"programNumber":29},{"time":284711.5004999978,"duration":430.28840416664025,"noteNumber":45,"velocity":127,"programNumber":29},{"time":285144.1927499978,"duration":430.28840416664025,"noteNumber":45,"velocity":127,"programNumber":29},{"time":285576.88499999774,"duration":574.5191541666863,"noteNumber":45,"velocity":127,"programNumber":29},{"time":286153.80799999775,"duration":141.82690416666446,"noteNumber":43,"velocity":127,"programNumber":29},{"time":286298.03874999774,"duration":141.82690416666446,"noteNumber":43,"velocity":127,"programNumber":29},{"time":286442.2694999977,"duration":141.82690416666446,"noteNumber":43,"velocity":127,"programNumber":29},{"time":286586.5002499977,"duration":286.05765416665236,"noteNumber":43,"velocity":127,"programNumber":29},{"time":286874.9617499977,"duration":141.82690416666446,"noteNumber":43,"velocity":127,"programNumber":29},{"time":287019.1924999977,"duration":430.28840416664025,"noteNumber":45,"velocity":127,"programNumber":29},{"time":287451.88474999764,"duration":430.28840416664025,"noteNumber":45,"velocity":127,"programNumber":29},{"time":287884.5769999976,"duration":574.5191541666863,"noteNumber":45,"velocity":127,"programNumber":29},{"time":288461.4999999976,"duration":141.82690416666446,"noteNumber":43,"velocity":127,"programNumber":29},{"time":288605.7307499976,"duration":141.82690416666446,"noteNumber":43,"velocity":127,"programNumber":29},{"time":288749.9614999976,"duration":141.82690416666446,"noteNumber":43,"velocity":127,"programNumber":29},{"time":288894.1922499976,"duration":286.05765416665236,"noteNumber":43,"velocity":127,"programNumber":29},{"time":289182.65374999755,"duration":141.82690416666446,"noteNumber":43,"velocity":127,"programNumber":29},{"time":289326.88449999754,"duration":430.28840416664025,"noteNumber":45,"velocity":127,"programNumber":29},{"time":289759.5767499975,"duration":430.28840416664025,"noteNumber":45,"velocity":127,"programNumber":29},{"time":290192.26899999747,"duration":574.5191541666863,"noteNumber":45,"velocity":127,"programNumber":29},{"time":290769.1919999975,"duration":141.82690416666446,"noteNumber":43,"velocity":127,"programNumber":29},{"time":290913.42274999747,"duration":141.82690416666446,"noteNumber":43,"velocity":127,"programNumber":29},{"time":291057.65349999745,"duration":141.82690416666446,"noteNumber":43,"velocity":127,"programNumber":29},{"time":291201.88424999744,"duration":286.05765416665236,"noteNumber":43,"velocity":127,"programNumber":29},{"time":291490.3457499974,"duration":141.82690416666446,"noteNumber":43,"velocity":127,"programNumber":29},{"time":291634.5764999974,"duration":430.28840416664025,"noteNumber":45,"velocity":127,"programNumber":29},{"time":292067.26874999737,"duration":430.28840416664025,"noteNumber":45,"velocity":127,"programNumber":29},{"time":292499.96099999733,"duration":574.5191541666863,"noteNumber":45,"velocity":127,"programNumber":29},{"time":293076.88399999734,"duration":141.82690416666446,"noteNumber":43,"velocity":127,"programNumber":29},{"time":293221.11474999733,"duration":141.82690416666446,"noteNumber":43,"velocity":127,"programNumber":29},{"time":293365.3454999973,"duration":141.82690416666446,"noteNumber":43,"velocity":127,"programNumber":29},{"time":293509.5762499973,"duration":286.05765416665236,"noteNumber":43,"velocity":127,"programNumber":29},{"time":293798.0377499973,"duration":141.82690416666446,"noteNumber":43,"velocity":127,"programNumber":29},{"time":293942.26849999727,"duration":1439.903654166672,"noteNumber":45,"velocity":127,"programNumber":29},{"time":295384.57599999727,"duration":141.82690416666446,"noteNumber":43,"velocity":127,"programNumber":29},{"time":295528.80674999725,"duration":141.82690416666446,"noteNumber":43,"velocity":127,"programNumber":29},{"time":295673.03749999724,"duration":141.82690416666446,"noteNumber":43,"velocity":127,"programNumber":29},{"time":295817.2682499972,"duration":286.05765416665236,"noteNumber":43,"velocity":127,"programNumber":29},{"time":296105.7297499972,"duration":141.82690416666446,"noteNumber":43,"velocity":127,"programNumber":29},{"time":296249.9604999972,"duration":1439.903654166672,"noteNumber":45,"velocity":127,"programNumber":29},{"time":297692.2679999972,"duration":141.82690416666446,"noteNumber":43,"velocity":127,"programNumber":29},{"time":297836.4987499972,"duration":141.82690416666446,"noteNumber":43,"velocity":127,"programNumber":29},{"time":297980.72949999716,"duration":141.82690416666446,"noteNumber":43,"velocity":127,"programNumber":29},{"time":298124.96024999715,"duration":286.05765416665236,"noteNumber":43,"velocity":127,"programNumber":29},{"time":298413.4217499971,"duration":141.82690416666446,"noteNumber":43,"velocity":127,"programNumber":29},{"time":298557.6524999971,"duration":1439.903654166672,"noteNumber":45,"velocity":127,"programNumber":29},{"time":299999.9599999971,"duration":141.82690416666446,"noteNumber":43,"velocity":127,"programNumber":29},{"time":300432.65224999713,"duration":141.82690416666446,"noteNumber":43,"velocity":127,"programNumber":29},{"time":300865.34449999715,"duration":141.82690416666446,"noteNumber":43,"velocity":127,"programNumber":29},{"time":301009.57524999714,"duration":1295.672904166684,"noteNumber":45,"velocity":127,"programNumber":29}]]}