{"tracks":[[{"time":416.6665,"duration":138.88883333333325,"noteNumber":71,"velocity":110,"programNumber":26},{"time":833.3329999999999,"duration":138.8888333333333,"noteNumber":69,"velocity":110,"programNumber":26},{"time":1249.9995,"duration":138.88883333333342,"noteNumber":67,"velocity":110,"programNumber":26},{"time":1666.666,"duration":138.8888333333332,"noteNumber":66,"velocity":110,"programNumber":26},{"time":1874.9992499999998,"duration":138.88883333333342,"noteNumber":67,"velocity":110,"programNumber":26},{"time":2083.3325,"duration":138.88883333333342,"noteNumber":66,"velocity":110,"programNumber":26},{"time":2499.999,"duration":138.88883333333342,"noteNumber":64,"velocity":110,"programNumber":26},{"time":2916.6655,"duration":407.98594791666665,"noteNumber":66,"velocity":110,"programNumber":26},{"time":3749.9985,"duration":138.88883333333342,"noteNumber":71,"velocity":110,"programNumber":26},{"time":4166.665,"duration":138.88883333333342,"noteNumber":69,"velocity":110,"programNumber":26},{"time":4583.3315,"duration":138.88883333333342,"noteNumber":67,"velocity":110,"programNumber":26},{"time":4999.9980000000005,"duration":138.88883333333342,"noteNumber":66,"velocity":110,"programNumber":26},{"time":5208.33125,"duration":138.88883333333342,"noteNumber":67,"velocity":110,"programNumber":26},{"time":5416.6645,"duration":138.88883333333342,"noteNumber":66,"velocity":110,"programNumber":26},{"time":5833.331,"duration":138.88883333333342,"noteNumber":64,"velocity":110,"programNumber":26},{"time":6249.9975,"duration":407.9859479166671,"noteNumber":63,"velocity":110,"programNumber":26},{"time":7083.330500000001,"duration":138.88883333333342,"noteNumber":71,"velocity":110,"programNumber":26},{"time":7499.997000000001,"duration":138.88883333333342,"noteNumber":69,"velocity":110,"programNumber":26},{"time":7916.6635000000015,"duration":138.88883333333342,"noteNumber":67,"velocity":110,"programNumber":26},{"time":8333.330000000002,"duration":138.8888333333325,"noteNumber":66,"velocity":110,"programNumber":26},{"time":8541.663250000001,"duration":138.8888333333325,"noteNumber":67,"velocity":110,"programNumber":26},{"time":8749.996500000001,"duration":138.8888333333325,"noteNumber":66,"velocity":110,"programNumber":26},{"time":9166.663,"duration":138.8888333333325,"noteNumber":64,"velocity":110,"programNumber":26},{"time":9583.3295,"duration":407.9859479166662,"noteNumber":66,"velocity":110,"programNumber":26},{"time":10416.662499999999,"duration":138.8888333333325,"noteNumber":71,"velocity":110,"programNumber":26},{"time":10833.328999999998,"duration":138.8888333333325,"noteNumber":69,"velocity":110,"programNumber":26},{"time":11249.995499999997,"duration":138.8888333333325,"noteNumber":67,"velocity":110,"programNumber":26},{"time":11666.661999999997,"duration":138.8888333333325,"noteNumber":66,"velocity":110,"programNumber":26},{"time":11874.995249999996,"duration":138.8888333333325,"noteNumber":67,"velocity":110,"programNumber":26},{"time":12083.328499999996,"duration":138.8888333333325,"noteNumber":66,"velocity":110,"programNumber":26},{"time":12499.994999999995,"duration":138.8888333333325,"noteNumber":64,"velocity":110,"programNumber":26},{"time":12916.661499999995,"duration":407.9859479166662,"noteNumber":63,"velocity":110,"programNumber":26},{"time":13749.994499999993,"duration":138.8888333333325,"noteNumber":71,"velocity":110,"programNumber":26},{"time":14166.660999999993,"duration":138.8888333333325,"noteNumber":69,"velocity":110,"programNumber":26},{"time":14583.327499999992,"duration":138.8888333333325,"noteNumber":67,"velocity":110,"programNumber":26},{"time":14999.993999999992,"duration":138.8888333333325,"noteNumber":66,"velocity":110,"programNumber":26},{"time":15208.327249999991,"duration":138.8888333333325,"noteNumber":67,"velocity":110,"programNumber":26},{"time":15416.66049999999,"duration":138.8888333333325,"noteNumber":66,"velocity":110,"programNumber":26},{"time":15833.32699999999,"duration":138.8888333333325,"noteNumber":64,"velocity":110,"programNumber":26},{"time":16249.99349999999,"duration":407.9859479166662,"noteNumber":66,"velocity":110,"programNumber":26},{"time":17083.32649999999,"duration":138.88883333333433,"noteNumber":71,"velocity":110,"programNumber":26},{"time":17499.992999999988,"duration":138.88883333333433,"noteNumber":69,"velocity":110,"programNumber":26},{"time":17916.659499999987,"duration":138.88883333333433,"noteNumber":67,"velocity":110,"programNumber":26},{"time":18333.325999999986,"duration":138.88883333333433,"noteNumber":66,"velocity":110,"programNumber":26},{"time":18541.659249999986,"duration":138.88883333333433,"noteNumber":67,"velocity":110,"programNumber":26},{"time":18749.992499999986,"duration":138.88883333333433,"noteNumber":66,"velocity":110,"programNumber":26},{"time":19166.658999999985,"duration":138.88883333333433,"noteNumber":64,"velocity":110,"programNumber":26},{"time":19583.325499999984,"duration":407.9859479166662,"noteNumber":63,"velocity":110,"programNumber":26},{"time":20416.658499999983,"duration":138.88883333333433,"noteNumber":71,"velocity":110,"programNumber":26},{"time":20833.324999999983,"duration":138.88883333333433,"noteNumber":69,"velocity":110,"programNumber":26},{"time":21249.991499999982,"duration":138.88883333333433,"noteNumber":67,"velocity":110,"programNumber":26},{"time":21666.65799999998,"duration":138.88883333333433,"noteNumber":66,"velocity":110,"programNumber":26},{"time":21874.99124999998,"duration":138.88883333333433,"noteNumber":67,"velocity":110,"programNumber":26},{"time":22083.32449999998,"duration":138.88883333333433,"noteNumber":66,"velocity":110,"programNumber":26},{"time":22499.99099999998,"duration":138.88883333333433,"noteNumber":64,"velocity":110,"programNumber":26},{"time":22916.65749999998,"duration":407.9859479166662,"noteNumber":66,"velocity":110,"programNumber":26},{"time":23749.990499999978,"duration":138.88883333333433,"noteNumber":71,"velocity":110,"programNumber":26},{"time":24166.656999999977,"duration":138.88883333333433,"noteNumber":69,"velocity":110,"programNumber":26},{"time":24583.323499999977,"duration":138.88883333333433,"noteNumber":67,"velocity":110,"programNumber":26},{"time":24999.989999999976,"duration":138.88883333333433,"noteNumber":66,"velocity":110,"programNumber":26},{"time":25208.323249999976,"duration":138.88883333333433,"noteNumber":67,"velocity":110,"programNumber":26},{"time":25416.656499999975,"duration":138.88883333333433,"noteNumber":66,"velocity":110,"programNumber":26},{"time":25833.322999999975,"duration":138.88883333333433,"noteNumber":64,"velocity":110,"programNumber":26},{"time":26249.989499999974,"duration":407.9859479166662,"noteNumber":63,"velocity":110,"programNumber":26},{"time":27083.322499999973,"duration":138.88883333333433,"noteNumber":71,"velocity":110,"programNumber":26},{"time":27499.988999999972,"duration":138.88883333333433,"noteNumber":69,"velocity":110,"programNumber":26},{"time":27916.65549999997,"duration":138.88883333333433,"noteNumber":67,"velocity":110,"programNumber":26},{"time":28333.32199999997,"duration":138.88883333333433,"noteNumber":66,"velocity":110,"programNumber":26},{"time":28541.65524999997,"duration":138.88883333333433,"noteNumber":67,"velocity":110,"programNumber":26},{"time":28749.98849999997,"duration":138.88883333333433,"noteNumber":66,"velocity":110,"programNumber":26},{"time":29166.65499999997,"duration":138.88883333333433,"noteNumber":64,"velocity":110,"programNumber":26},{"time":29583.32149999997,"duration":407.9859479166662,"noteNumber":66,"velocity":110,"programNumber":26},{"time":30416.654499999968,"duration":138.88883333333433,"noteNumber":71,"velocity":110,"programNumber":26},{"time":30833.320999999967,"duration":138.88883333333433,"noteNumber":69,"velocity":110,"programNumber":26},{"time":31249.987499999967,"duration":138.88883333333433,"noteNumber":67,"velocity":110,"programNumber":26},{"time":31666.653999999966,"duration":138.88883333333433,"noteNumber":66,"velocity":110,"programNumber":26},{"time":31874.987249999966,"duration":138.88883333333433,"noteNumber":67,"velocity":110,"programNumber":26},{"time":32083.320499999965,"duration":138.88883333333433,"noteNumber":66,"velocity":110,"programNumber":26},{"time":32499.986999999965,"duration":138.88883333333433,"noteNumber":64,"velocity":110,"programNumber":26},{"time":32916.653499999964,"duration":407.98594791666983,"noteNumber":63,"velocity":110,"programNumber":26},{"time":33749.98649999997,"duration":138.8888333333307,"noteNumber":71,"velocity":110,"programNumber":26},{"time":34166.65299999997,"duration":138.8888333333307,"noteNumber":69,"velocity":110,"programNumber":26},{"time":34583.31949999997,"duration":138.8888333333307,"noteNumber":67,"velocity":110,"programNumber":26},{"time":34999.98599999997,"duration":138.8888333333307,"noteNumber":66,"velocity":110,"programNumber":26},{"time":35208.319249999964,"duration":138.8888333333307,"noteNumber":67,"velocity":110,"programNumber":26},{"time":35416.65249999996,"duration":138.8888333333307,"noteNumber":66,"velocity":110,"programNumber":26},{"time":35833.31899999996,"duration":138.8888333333307,"noteNumber":64,"velocity":110,"programNumber":26},{"time":36249.98549999996,"duration":407.98594791666983,"noteNumber":66,"velocity":110,"programNumber":26},{"time":37083.318499999965,"duration":138.8888333333307,"noteNumber":71,"velocity":110,"programNumber":26},{"time":37499.984999999964,"duration":138.8888333333307,"noteNumber":69,"velocity":110,"programNumber":26},{"time":37916.65149999996,"duration":138.8888333333307,"noteNumber":67,"velocity":110,"programNumber":26},{"time":38333.31799999996,"duration":138.8888333333307,"noteNumber":66,"velocity":110,"programNumber":26},{"time":38541.65124999996,"duration":138.8888333333307,"noteNumber":67,"velocity":110,"programNumber":26},{"time":38749.984499999955,"duration":138.8888333333307,"noteNumber":66,"velocity":110,"programNumber":26},{"time":39166.650999999954,"duration":138.8888333333307,"noteNumber":64,"velocity":110,"programNumber":26},{"time":39583.317499999954,"duration":407.98594791666983,"noteNumber":63,"velocity":110,"programNumber":26},{"time":40416.65049999996,"duration":138.8888333333307,"noteNumber":71,"velocity":110,"programNumber":26},{"time":40833.31699999996,"duration":138.8888333333307,"noteNumber":69,"velocity":110,"programNumber":26},{"time":41249.98349999996,"duration":138.8888333333307,"noteNumber":67,"velocity":110,"programNumber":26},{"time":41666.64999999996,"duration":138.8888333333307,"noteNumber":66,"velocity":110,"programNumber":26},{"time":41874.983249999954,"duration":138.8888333333307,"noteNumber":67,"velocity":110,"programNumber":26},{"time":42083.31649999995,"duration":138.8888333333307,"noteNumber":66,"velocity":110,"programNumber":26},{"time":42499.98299999995,"duration":138.8888333333307,"noteNumber":64,"velocity":110,"programNumber":26},{"time":42916.64949999995,"duration":407.98594791666983,"noteNumber":66,"velocity":110,"programNumber":26},{"time":43749.982499999955,"duration":138.8888333333307,"noteNumber":71,"velocity":110,"programNumber":26},{"time":44166.648999999954,"duration":138.8888333333307,"noteNumber":69,"velocity":110,"programNumber":26},{"time":44583.31549999995,"duration":138.8888333333307,"noteNumber":67,"velocity":110,"programNumber":26},{"time":44999.98199999995,"duration":138.8888333333307,"noteNumber":66,"velocity":110,"programNumber":26},{"time":45208.31524999995,"duration":138.8888333333307,"noteNumber":67,"velocity":110,"programNumber":26},{"time":45416.648499999945,"duration":138.8888333333307,"noteNumber":66,"velocity":110,"programNumber":26},{"time":45833.314999999944,"duration":138.8888333333307,"noteNumber":64,"velocity":110,"programNumber":26},{"time":46249.98149999994,"duration":407.98594791666983,"noteNumber":63,"velocity":110,"programNumber":26},{"time":47083.31449999995,"duration":138.8888333333307,"noteNumber":71,"velocity":110,"programNumber":26},{"time":47499.98099999995,"duration":138.8888333333307,"noteNumber":69,"velocity":110,"programNumber":26},{"time":47916.64749999995,"duration":138.8888333333307,"noteNumber":67,"velocity":110,"programNumber":26},{"time":48333.31399999995,"duration":138.8888333333307,"noteNumber":66,"velocity":110,"programNumber":26},{"time":48541.64724999994,"duration":138.8888333333307,"noteNumber":67,"velocity":110,"programNumber":26},{"time":48749.98049999994,"duration":138.8888333333307,"noteNumber":66,"velocity":110,"programNumber":26},{"time":49166.64699999994,"duration":138.8888333333307,"noteNumber":64,"velocity":110,"programNumber":26},{"time":49583.31349999994,"duration":407.98594791666983,"noteNumber":63,"velocity":110,"programNumber":26},{"time":50416.646499999944,"duration":138.8888333333307,"noteNumber":71,"velocity":110,"programNumber":26},{"time":50833.312999999944,"duration":138.8888333333307,"noteNumber":69,"velocity":110,"programNumber":26},{"time":51249.97949999994,"duration":138.8888333333307,"noteNumber":67,"velocity":110,"programNumber":26},{"time":51666.64599999994,"duration":138.8888333333307,"noteNumber":66,"velocity":110,"programNumber":26},{"time":51874.97924999994,"duration":138.8888333333307,"noteNumber":67,"velocity":110,"programNumber":26},{"time":52083.312499999935,"duration":138.8888333333307,"noteNumber":66,"velocity":110,"programNumber":26},{"time":52499.978999999934,"duration":138.8888333333307,"noteNumber":64,"velocity":110,"programNumber":26},{"time":52916.64549999993,"duration":407.98594791666983,"noteNumber":63,"velocity":110,"programNumber":26},{"time":53749.97849999994,"duration":138.8888333333307,"noteNumber":71,"velocity":110,"programNumber":26},{"time":54166.64499999994,"duration":138.8888333333307,"noteNumber":69,"velocity":110,"programNumber":26},{"time":54583.31149999994,"duration":138.8888333333307,"noteNumber":67,"velocity":110,"programNumber":26},{"time":54999.97799999994,"duration":138.8888333333307,"noteNumber":66,"velocity":110,"programNumber":26},{"time":55208.31124999993,"duration":138.8888333333307,"noteNumber":67,"velocity":110,"programNumber":26},{"time":55416.64449999993,"duration":138.8888333333307,"noteNumber":66,"velocity":110,"programNumber":26},{"time":55833.31099999993,"duration":138.8888333333307,"noteNumber":64,"velocity":110,"programNumber":26},{"time":56249.97749999993,"duration":407.98594791666983,"noteNumber":66,"velocity":110,"programNumber":26},{"time":57083.310499999934,"duration":138.8888333333307,"noteNumber":71,"velocity":110,"programNumber":26},{"time":57499.97699999993,"duration":138.8888333333307,"noteNumber":69,"velocity":110,"programNumber":26},{"time":57916.64349999993,"duration":138.8888333333307,"noteNumber":67,"velocity":110,"programNumber":26},{"time":58333.30999999993,"duration":138.8888333333307,"noteNumber":66,"velocity":110,"programNumber":26},{"time":58541.64324999993,"duration":138.8888333333307,"noteNumber":67,"velocity":110,"programNumber":26},{"time":58749.976499999924,"duration":138.8888333333307,"noteNumber":66,"velocity":110,"programNumber":26},{"time":59166.64299999992,"duration":138.8888333333307,"noteNumber":64,"velocity":110,"programNumber":26},{"time":59583.30949999992,"duration":407.98594791666983,"noteNumber":63,"velocity":110,"programNumber":26},{"time":60416.64249999993,"duration":138.8888333333307,"noteNumber":71,"velocity":110,"programNumber":26},{"time":60833.30899999993,"duration":138.8888333333307,"noteNumber":69,"velocity":110,"programNumber":26},{"time":61249.97549999993,"duration":138.8888333333307,"noteNumber":67,"velocity":110,"programNumber":26},{"time":61666.64199999993,"duration":138.8888333333307,"noteNumber":66,"velocity":110,"programNumber":26},{"time":61874.97524999992,"duration":138.8888333333307,"noteNumber":67,"velocity":110,"programNumber":26},{"time":62083.30849999992,"duration":138.8888333333307,"noteNumber":66,"velocity":110,"programNumber":26},{"time":62499.97499999992,"duration":138.8888333333307,"noteNumber":64,"velocity":110,"programNumber":26},{"time":62916.64149999992,"duration":407.98594791666983,"noteNumber":63,"velocity":110,"programNumber":26},{"time":63749.974499999924,"duration":138.8888333333307,"noteNumber":71,"velocity":110,"programNumber":26},{"time":64166.64099999992,"duration":138.8888333333307,"noteNumber":69,"velocity":110,"programNumber":26},{"time":64583.30749999992,"duration":138.8888333333307,"noteNumber":67,"velocity":110,"programNumber":26},{"time":64999.97399999992,"duration":138.8888333333307,"noteNumber":66,"velocity":110,"programNumber":26},{"time":65208.30724999992,"duration":138.8888333333307,"noteNumber":67,"velocity":110,"programNumber":26},{"time":65416.640499999914,"duration":138.88883333333797,"noteNumber":66,"velocity":110,"programNumber":26},{"time":65833.30699999991,"duration":138.8888333333307,"noteNumber":64,"velocity":110,"programNumber":26},{"time":66249.9734999999,"duration":407.98594791666255,"noteNumber":63,"velocity":110,"programNumber":26},{"time":67083.3064999999,"duration":494.7916666675883,"noteNumber":81,"velocity":110,"programNumber":30},{"time":67583.30650000084,"duration":244.79166666667152,"noteNumber":79,"velocity":110,"programNumber":30},{"time":67833.30650000084,"duration":119.79166666667152,"noteNumber":78,"velocity":110,"programNumber":30},{"time":67958.30650000084,"duration":119.79166666667152,"noteNumber":79,"velocity":110,"programNumber":30},{"time":68083.30650000084,"duration":244.79166666667152,"noteNumber":78,"velocity":110,"programNumber":30},{"time":68333.30650000084,"duration":244.79166666667152,"noteNumber":76,"velocity":110,"programNumber":30},{"time":68583.30650000084,"duration":244.79166666667152,"noteNumber":78,"velocity":110,"programNumber":30},{"time":69083.30650000084,"duration":494.7916666675883,"noteNumber":81,"velocity":110,"programNumber":30},{"time":69583.30650000177,"duration":244.79166666667152,"noteNumber":79,"velocity":110,"programNumber":30},{"time":69833.30650000177,"duration":119.79166666667152,"noteNumber":78,"velocity":110,"programNumber":30},{"time":69958.30650000177,"duration":119.79166666667152,"noteNumber":79,"velocity":110,"programNumber":30},{"time":70083.30650000177,"duration":244.79166666667152,"noteNumber":78,"velocity":110,"programNumber":30},{"time":70333.30650000177,"duration":244.79166666667152,"noteNumber":76,"velocity":110,"programNumber":30},{"time":70583.30650000177,"duration":244.79166666667152,"noteNumber":78,"velocity":110,"programNumber":30},{"time":71083.30650000177,"duration":494.7916666675883,"noteNumber":81,"velocity":110,"programNumber":30},{"time":71583.3065000027,"duration":244.79166666667152,"noteNumber":79,"velocity":110,"programNumber":30},{"time":71833.3065000027,"duration":119.79166666667152,"noteNumber":78,"velocity":110,"programNumber":30},{"time":71958.3065000027,"duration":119.79166666667152,"noteNumber":79,"velocity":110,"programNumber":30},{"time":72083.3065000027,"duration":244.79166666667152,"noteNumber":78,"velocity":110,"programNumber":30},{"time":72333.3065000027,"duration":244.79166666667152,"noteNumber":76,"velocity":110,"programNumber":30},{"time":72583.3065000027,"duration":244.79166666667152,"noteNumber":78,"velocity":110,"programNumber":30},{"time":73083.3065000027,"duration":494.7916666675883,"noteNumber":81,"velocity":110,"programNumber":30},{"time":73583.30650000363,"duration":244.79166666667152,"noteNumber":79,"velocity":110,"programNumber":30},{"time":73833.30650000363,"duration":119.79166666667152,"noteNumber":78,"velocity":110,"programNumber":30},{"time":73958.30650000363,"duration":119.79166666667152,"noteNumber":79,"velocity":110,"programNumber":30},{"time":74083.30650000363,"duration":244.79166666667152,"noteNumber":78,"velocity":110,"programNumber":30},{"time":74333.30650000363,"duration":244.79166666667152,"noteNumber":76,"velocity":110,"programNumber":30},{"time":74583.30650000363,"duration":244.79166666667152,"noteNumber":78,"velocity":110,"programNumber":30},{"time":75083.30650000363,"duration":494.7916666675883,"noteNumber":81,"velocity":110,"programNumber":30},{"time":75583.30650000456,"duration":244.79166666667152,"noteNumber":79,"velocity":110,"programNumber":30},{"time":75833.30650000456,"duration":119.79166666667152,"noteNumber":78,"velocity":110,"programNumber":30},{"time":75958.30650000456,"duration":119.79166666667152,"noteNumber":79,"velocity":110,"programNumber":30},{"time":76083.30650000456,"duration":244.79166666667152,"noteNumber":78,"velocity":110,"programNumber":30},{"time":76333.30650000456,"duration":244.79166666667152,"noteNumber":76,"velocity":110,"programNumber":30},{"time":76583.30650000456,"duration":244.79166666667152,"noteNumber":78,"velocity":110,"programNumber":30},{"time":77083.30650000456,"duration":494.7916666675883,"noteNumber":81,"velocity":110,"programNumber":30},{"time":77583.30650000549,"duration":244.79166666667152,"noteNumber":79,"velocity":110,"programNumber":30},{"time":77833.30650000549,"duration":119.79166666667152,"noteNumber":78,"velocity":110,"programNumber":30},{"time":77958.30650000549,"duration":119.79166666667152,"noteNumber":79,"velocity":110,"programNumber":30},{"time":78083.30650000549,"duration":244.79166666667152,"noteNumber":78,"velocity":110,"programNumber":30},{"time":78333.30650000549,"duration":244.79166666667152,"noteNumber":76,"velocity":110,"programNumber":30},{"time":78583.30650000549,"duration":244.79166666667152,"noteNumber":78,"velocity":110,"programNumber":30},{"time":79083.30650000549,"duration":494.7916666675883,"noteNumber":81,"velocity":110,"programNumber":30},{"time":79583.30650000642,"duration":244.79166666667152,"noteNumber":79,"velocity":110,"programNumber":30},{"time":79833.30650000642,"duration":119.79166666667152,"noteNumber":78,"velocity":110,"programNumber":30},{"time":79958.30650000642,"duration":119.79166666667152,"noteNumber":79,"velocity":110,"programNumber":30},{"time":80083.30650000642,"duration":244.79166666667152,"noteNumber":78,"velocity":110,"programNumber":30},{"time":80333.30650000642,"duration":244.79166666667152,"noteNumber":76,"velocity":110,"programNumber":30},{"time":80583.30650000642,"duration":244.79166666667152,"noteNumber":78,"velocity":110,"programNumber":30},{"time":81083.30650000642,"duration":494.7916666675883,"noteNumber":81,"velocity":110,"programNumber":30},{"time":81583.30650000735,"duration":244.79166666667152,"noteNumber":79,"velocity":110,"programNumber":30},{"time":81833.30650000735,"duration":119.79166666667152,"noteNumber":78,"velocity":110,"programNumber":30},{"time":81958.30650000735,"duration":119.79166666667152,"noteNumber":79,"velocity":110,"programNumber":30},{"time":82083.30650000735,"duration":244.79166666667152,"noteNumber":78,"velocity":110,"programNumber":30},{"time":82333.30650000735,"duration":244.79166666667152,"noteNumber":76,"velocity":110,"programNumber":30},{"time":82583.30650000735,"duration":244.79166666667152,"noteNumber":78,"velocity":110,"programNumber":30},{"time":82833.30650000735,"duration":119.79166666667152,"noteNumber":64,"velocity":110,"programNumber":30},{"time":82958.30650000735,"duration":119.79166666667152,"noteNumber":66,"velocity":110,"programNumber":30},{"time":83083.30650000735,"duration":119.79166666667152,"noteNumber":67,"velocity":110,"programNumber":30},{"time":83208.30650000735,"duration":119.79166666667152,"noteNumber":66,"velocity":110,"programNumber":30},{"time":83333.30650000735,"duration":119.79166666667152,"noteNumber":67,"velocity":110,"programNumber":30},{"time":83458.30650000735,"duration":119.79166666667152,"noteNumber":69,"velocity":110,"programNumber":30},{"time":83583.30650000735,"duration":119.79166666667152,"noteNumber":67,"velocity":110,"programNumber":30},{"time":83708.30650000735,"duration":119.79166666667152,"noteNumber":66,"velocity":110,"programNumber":30},{"time":83833.30650000735,"duration":244.79166666667152,"noteNumber":71,"velocity":110,"programNumber":30},{"time":84083.30650000735,"duration":119.79166666667152,"noteNumber":67,"velocity":110,"programNumber":30},{"time":84208.30650000735,"duration":119.79166666667152,"noteNumber":66,"velocity":110,"programNumber":30},{"time":84333.30650000735,"duration":119.79166666667152,"noteNumber":67,"velocity":110,"programNumber":30},{"time":84458.30650000735,"duration":119.79166666667152,"noteNumber":66,"velocity":110,"programNumber":30},{"time":84583.30650000735,"duration":369.7916666666715,"noteNumber":64,"velocity":110,"programNumber":30},{"time":84958.30650000735,"duration":119.79166666667152,"noteNumber":66,"velocity":110,"programNumber":30},{"time":85083.30650000735,"duration":119.79166666667152,"noteNumber":67,"velocity":110,"programNumber":30},{"time":85208.30650000735,"duration":119.79166666667152,"noteNumber":66,"velocity":110,"programNumber":30},{"time":85333.30650000735,"duration":119.79166666667152,"noteNumber":67,"velocity":110,"programNumber":30},{"time":85458.30650000735,"duration":119.79166666667152,"noteNumber":69,"velocity":110,"programNumber":30},{"time":85583.30650000735,"duration":119.79166666667152,"noteNumber":67,"velocity":110,"programNumber":30},{"time":85708.30650000735,"duration":119.79166666667152,"noteNumber":66,"velocity":110,"programNumber":30},{"time":85833.30650000735,"duration":244.79166666667152,"noteNumber":71,"velocity":110,"programNumber":30},{"time":86083.30650000735,"duration":119.79166666667152,"noteNumber":67,"velocity":110,"programNumber":30},{"time":86208.30650000735,"duration":119.79166666667152,"noteNumber":66,"velocity":110,"programNumber":30},{"time":86333.30650000735,"duration":119.79166666667152,"noteNumber":67,"velocity":110,"programNumber":30},{"time":86458.30650000735,"duration":119.79166666667152,"noteNumber":66,"velocity":110,"programNumber":30},{"time":86583.30650000735,"duration":369.7916666666715,"noteNumber":64,"velocity":110,"programNumber":30},{"time":86958.30650000735,"duration":119.79166666667152,"noteNumber":66,"velocity":110,"programNumber":30},{"time":87083.30650000735,"duration":119.79166666667152,"noteNumber":67,"velocity":110,"programNumber":30},{"time":87208.30650000735,"duration":119.79166666667152,"noteNumber":66,"velocity":110,"programNumber":30},{"time":87333.30650000735,"duration":119.79166666667152,"noteNumber":67,"velocity":110,"programNumber":30},{"time":87458.30650000735,"duration":119.79166666667152,"noteNumber":69,"velocity":110,"programNumber":30},{"time":87583.30650000735,"duration":119.79166666667152,"noteNumber":67,"velocity":110,"programNumber":30},{"time":87708.30650000735,"duration":119.79166666667152,"noteNumber":66,"velocity":110,"programNumber":30},{"time":87833.30650000735,"duration":244.79166666667152,"noteNumber":71,"velocity":110,"programNumber":30},{"time":88083.30650000735,"duration":119.79166666667152,"noteNumber":67,"velocity":110,"programNumber":30},{"time":88208.30650000735,"duration":119.79166666667152,"noteNumber":66,"velocity":110,"programNumber":30},{"time":88333.30650000735,"duration":119.79166666667152,"noteNumber":67,"velocity":110,"programNumber":30},{"time":88458.30650000735,"duration":119.79166666667152,"noteNumber":66,"velocity":110,"programNumber":30},{"time":88583.30650000735,"duration":369.7916666666715,"noteNumber":64,"velocity":110,"programNumber":30},{"time":88958.30650000735,"duration":119.79166666667152,"noteNumber":66,"velocity":110,"programNumber":30},{"time":89083.30650000735,"duration":119.79166666667152,"noteNumber":67,"velocity":110,"programNumber":30},{"time":89208.30650000735,"duration":119.79166666667152,"noteNumber":66,"velocity":110,"programNumber":30},{"time":89333.30650000735,"duration":119.79166666667152,"noteNumber":67,"velocity":110,"programNumber":30},{"time":89458.30650000735,"duration":119.79166666667152,"noteNumber":69,"velocity":110,"programNumber":30},{"time":89583.30650000735,"duration":119.79166666667152,"noteNumber":67,"velocity":110,"programNumber":30},{"time":89708.30650000735,"duration":119.79166666667152,"noteNumber":66,"velocity":110,"programNumber":30},{"time":89833.30650000735,"duration":244.79166666667152,"noteNumber":71,"velocity":110,"programNumber":30},{"time":90083.30650000735,"duration":119.79166666667152,"noteNumber":67,"velocity":110,"programNumber":30},{"time":90208.30650000735,"duration":119.79166666667152,"noteNumber":66,"velocity":110,"programNumber":30},{"time":90333.30650000735,"duration":119.79166666667152,"noteNumber":67,"velocity":110,"programNumber":30},{"time":90458.30650000735,"duration":119.79166666667152,"noteNumber":66,"velocity":110,"programNumber":30},{"time":90583.30650000735,"duration":369.7916666666715,"noteNumber":64,"velocity":110,"programNumber":30},{"time":90958.30650000735,"duration":119.79166666667152,"noteNumber":66,"velocity":110,"programNumber":30},{"time":91083.30650000735,"duration":119.79166666667152,"noteNumber":67,"velocity":110,"programNumber":30},{"time":91208.30650000735,"duration":119.79166666667152,"noteNumber":66,"velocity":110,"programNumber":30},{"time":91333.30650000735,"duration":119.79166666667152,"noteNumber":67,"velocity":110,"programNumber":30},{"time":91458.30650000735,"duration":119.79166666667152,"noteNumber":69,"velocity":110,"programNumber":30},{"time":91583.30650000735,"duration":119.79166666667152,"noteNumber":67,"velocity":110,"programNumber":30},{"time":91708.30650000735,"duration":119.79166666667152,"noteNumber":66,"velocity":110,"programNumber":30},{"time":91833.30650000735,"duration":244.79166666667152,"noteNumber":71,"velocity":110,"programNumber":30},{"time":92083.30650000735,"duration":119.79166666667152,"noteNumber":67,"velocity":110,"programNumber":30},{"time":92208.30650000735,"duration":119.79166666667152,"noteNumber":66,"velocity":110,"programNumber":30},{"time":92333.30650000735,"duration":119.79166666667152,"noteNumber":67,"velocity":110,"programNumber":30},{"time":92458.30650000735,"duration":119.79166666667152,"noteNumber":66,"velocity":110,"programNumber":30},{"time":92583.30650000735,"duration":369.7916666666715,"noteNumber":64,"velocity":110,"programNumber":30},{"time":92958.30650000735,"duration":119.79166666667152,"noteNumber":66,"velocity":110,"programNumber":30},{"time":93083.30650000735,"duration":119.79166666667152,"noteNumber":67,"velocity":110,"programNumber":30},{"time":93208.30650000735,"duration":119.79166666667152,"noteNumber":66,"velocity":110,"programNumber":30},{"time":93333.30650000735,"duration":119.79166666667152,"noteNumber":67,"velocity":110,"programNumber":30},{"time":93458.30650000735,"duration":119.79166666667152,"noteNumber":69,"velocity":110,"programNumber":30},{"time":93583.30650000735,"duration":119.79166666667152,"noteNumber":67,"velocity":110,"programNumber":30},{"time":93708.30650000735,"duration":119.79166666667152,"noteNumber":66,"velocity":110,"programNumber":30},{"time":93833.30650000735,"duration":244.79166666667152,"noteNumber":71,"velocity":110,"programNumber":30},{"time":94083.30650000735,"duration":119.79166666667152,"noteNumber":67,"velocity":110,"programNumber":30},{"time":94208.30650000735,"duration":119.79166666667152,"noteNumber":66,"velocity":110,"programNumber":30},{"time":94333.30650000735,"duration":119.79166666667152,"noteNumber":67,"velocity":110,"programNumber":30},{"time":94458.30650000735,"duration":119.79166666667152,"noteNumber":66,"velocity":110,"programNumber":30},{"time":94583.30650000735,"duration":369.7916666666715,"noteNumber":64,"velocity":110,"programNumber":30},{"time":94958.30650000735,"duration":119.79166666667152,"noteNumber":66,"velocity":110,"programNumber":30},{"time":95083.30650000735,"duration":119.79166666667152,"noteNumber":67,"velocity":110,"programNumber":30},{"time":95208.30650000735,"duration":119.79166666667152,"noteNumber":66,"velocity":110,"programNumber":30},{"time":95333.30650000735,"duration":119.79166666667152,"noteNumber":67,"velocity":110,"programNumber":30},{"time":95458.30650000735,"duration":119.79166666667152,"noteNumber":69,"velocity":110,"programNumber":30},{"time":95583.30650000735,"duration":119.79166666667152,"noteNumber":67,"velocity":110,"programNumber":30},{"time":95708.30650000735,"duration":119.79166666667152,"noteNumber":66,"velocity":110,"programNumber":30},{"time":95833.30650000735,"duration":244.79166666667152,"noteNumber":71,"velocity":110,"programNumber":30},{"time":96083.30650000735,"duration":119.79166666667152,"noteNumber":67,"velocity":110,"programNumber":30},{"time":96208.30650000735,"duration":119.79166666667152,"noteNumber":66,"velocity":110,"programNumber":30},{"time":96333.30650000735,"duration":119.79166666667152,"noteNumber":67,"velocity":110,"programNumber":30},{"time":96458.30650000735,"duration":119.79166666667152,"noteNumber":66,"velocity":110,"programNumber":30},{"time":96583.30650000735,"duration":369.7916666666715,"noteNumber":64,"velocity":110,"programNumber":30},{"time":96958.30650000735,"duration":119.79166666667152,"noteNumber":66,"velocity":110,"programNumber":30},{"time":97083.30650000735,"duration":119.79166666667152,"noteNumber":67,"velocity":110,"programNumber":30},{"time":97208.30650000735,"duration":119.79166666667152,"noteNumber":66,"velocity":110,"programNumber":30},{"time":97333.30650000735,"duration":119.79166666667152,"noteNumber":67,"velocity":110,"programNumber":30},{"time":97458.30650000735,"duration":119.79166666667152,"noteNumber":69,"velocity":110,"programNumber":30},{"time":97583.30650000735,"duration":119.79166666667152,"noteNumber":67,"velocity":110,"programNumber":30},{"time":97708.30650000735,"duration":119.79166666667152,"noteNumber":66,"velocity":110,"programNumber":30},{"time":97833.30650000735,"duration":244.79166666667152,"noteNumber":71,"velocity":110,"programNumber":30},{"time":98083.30650000735,"duration":119.79166666667152,"noteNumber":67,"velocity":110,"programNumber":30},{"time":98208.30650000735,"duration":119.79166666667152,"noteNumber":66,"velocity":110,"programNumber":30},{"time":98333.30650000735,"duration":119.79166666667152,"noteNumber":67,"velocity":110,"programNumber":30},{"time":98458.30650000735,"duration":119.79166666667152,"noteNumber":66,"velocity":110,"programNumber":30},{"time":98583.30650000735,"duration":244.79166666667152,"noteNumber":64,"velocity":110,"programNumber":30},{"time":98833.30650000735,"duration":416.6666666666715,"noteNumber":52,"velocity":110,"programNumber":29},{"time":98833.30650000735,"duration":416.6666666666715,"noteNumber":59,"velocity":110,"programNumber":29},{"time":98833.30650000735,"duration":416.6666666666715,"noteNumber":64,"velocity":110,"programNumber":29},{"time":100583.30650000735,"duration":244.79166666667152,"noteNumber":43,"velocity":110,"programNumber":29},{"time":100583.30650000735,"duration":244.79166666667152,"noteNumber":50,"velocity":110,"programNumber":29},{"time":100583.30650000735,"duration":244.79166666667152,"noteNumber":55,"velocity":110,"programNumber":29},{"time":100833.30650000735,"duration":416.6666666666715,"noteNumber":48,"velocity":110,"programNumber":29},{"time":100833.30650000735,"duration":416.6666666666715,"noteNumber":55,"velocity":110,"programNumber":29},{"time":100833.30650000735,"duration":416.6666666666715,"noteNumber":60,"velocity":110,"programNumber":29},{"time":102583.30650000735,"duration":244.79166666667152,"noteNumber":45,"velocity":110,"programNumber":29},{"time":102583.30650000735,"duration":244.79166666667152,"noteNumber":52,"velocity":110,"programNumber":29},{"time":102583.30650000735,"duration":244.79166666667152,"noteNumber":57,"velocity":110,"programNumber":29},{"time":102833.30650000735,"duration":416.6666666666715,"noteNumber":50,"velocity":110,"programNumber":29},{"time":102833.30650000735,"duration":416.6666666666715,"noteNumber":57,"velocity":110,"programNumber":29},{"time":102833.30650000735,"duration":416.6666666666715,"noteNumber":62,"velocity":110,"programNumber":29},{"time":104583.30650000735,"duration":244.79166666667152,"noteNumber":47,"velocity":110,"programNumber":29},{"time":104583.30650000735,"duration":244.79166666667152,"noteNumber":54,"velocity":110,"programNumber":29},{"time":104583.30650000735,"duration":244.79166666667152,"noteNumber":59,"velocity":110,"programNumber":29},{"time":104833.30650000735,"duration":369.7916666666715,"noteNumber":52,"velocity":110,"programNumber":29},{"time":104833.30650000735,"duration":369.7916666666715,"noteNumber":59,"velocity":110,"programNumber":29},{"time":104833.30650000735,"duration":369.7916666666715,"noteNumber":64,"velocity":110,"programNumber":29},{"time":105208.30650000735,"duration":369.7916666666715,"noteNumber":47,"velocity":110,"programNumber":29},{"time":105208.30650000735,"duration":369.7916666666715,"noteNumber":54,"velocity":110,"programNumber":29},{"time":105208.30650000735,"duration":369.7916666666715,"noteNumber":59,"velocity":110,"programNumber":29},{"time":105583.30650000735,"duration":369.7916666666715,"noteNumber":48,"velocity":110,"programNumber":29},{"time":105583.30650000735,"duration":369.7916666666715,"noteNumber":55,"velocity":110,"programNumber":29},{"time":105583.30650000735,"duration":369.7916666666715,"noteNumber":60,"velocity":110,"programNumber":29},{"time":105958.30650000735,"duration":119.79166666667152,"noteNumber":47,"velocity":110,"programNumber":29},{"time":106083.30650000735,"duration":119.79166666667152,"noteNumber":48,"velocity":110,"programNumber":29},{"time":106208.30650000735,"duration":119.79166666667152,"noteNumber":47,"velocity":110,"programNumber":29},{"time":106333.30650000735,"duration":119.79166666667152,"noteNumber":55,"velocity":110,"programNumber":29},{"time":106458.30650000735,"duration":119.79166666667152,"noteNumber":54,"velocity":110,"programNumber":29},{"time":106583.30650000735,"duration":119.79166666667152,"noteNumber":52,"velocity":110,"programNumber":29},{"time":106708.30650000735,"duration":119.79166666667152,"noteNumber":50,"velocity":110,"programNumber":29},{"time":106833.30650000735,"duration":416.6666666666715,"noteNumber":52,"velocity":110,"programNumber":29},{"time":106833.30650000735,"duration":416.6666666666715,"noteNumber":59,"velocity":110,"programNumber":29},{"time":106833.30650000735,"duration":416.6666666666715,"noteNumber":64,"velocity":110,"programNumber":29},{"time":108583.30650000735,"duration":244.79166666667152,"noteNumber":43,"velocity":110,"programNumber":29},{"time":108583.30650000735,"duration":244.79166666667152,"noteNumber":50,"velocity":110,"programNumber":29},{"time":108583.30650000735,"duration":244.79166666667152,"noteNumber":55,"velocity":110,"programNumber":29},{"time":108833.30650000735,"duration":416.6666666666715,"noteNumber":48,"velocity":110,"programNumber":29},{"time":108833.30650000735,"duration":416.6666666666715,"noteNumber":55,"velocity":110,"programNumber":29},{"time":108833.30650000735,"duration":416.6666666666715,"noteNumber":60,"velocity":110,"programNumber":29},{"time":110583.30650000735,"duration":244.79166666667152,"noteNumber":45,"velocity":110,"programNumber":29},{"time":110583.30650000735,"duration":244.79166666667152,"noteNumber":52,"velocity":110,"programNumber":29},{"time":110583.30650000735,"duration":244.79166666667152,"noteNumber":57,"velocity":110,"programNumber":29},{"time":110833.30650000735,"duration":416.6666666666715,"noteNumber":50,"velocity":110,"programNumber":29},{"time":110833.30650000735,"duration":416.6666666666715,"noteNumber":57,"velocity":110,"programNumber":29},{"time":110833.30650000735,"duration":416.6666666666715,"noteNumber":62,"velocity":110,"programNumber":29},{"time":112583.30650000735,"duration":244.79166666667152,"noteNumber":47,"velocity":110,"programNumber":29},{"time":112583.30650000735,"duration":244.79166666667152,"noteNumber":54,"velocity":110,"programNumber":29},{"time":112583.30650000735,"duration":244.79166666667152,"noteNumber":59,"velocity":110,"programNumber":29},{"time":112833.30650000735,"duration":369.7916666666715,"noteNumber":52,"velocity":110,"programNumber":29},{"time":112833.30650000735,"duration":369.7916666666715,"noteNumber":59,"velocity":110,"programNumber":29},{"time":112833.30650000735,"duration":369.7916666666715,"noteNumber":64,"velocity":110,"programNumber":29},{"time":113208.30650000735,"duration":369.7916666666715,"noteNumber":47,"velocity":110,"programNumber":29},{"time":113208.30650000735,"duration":369.7916666666715,"noteNumber":54,"velocity":110,"programNumber":29},{"time":113208.30650000735,"duration":369.7916666666715,"noteNumber":59,"velocity":110,"programNumber":29},{"time":113583.30650000735,"duration":369.7916666666715,"noteNumber":48,"velocity":110,"programNumber":29},{"time":113583.30650000735,"duration":369.7916666666715,"noteNumber":55,"velocity":110,"programNumber":29},{"time":113583.30650000735,"duration":369.7916666666715,"noteNumber":60,"velocity":110,"programNumber":29},{"time":113958.30650000735,"duration":119.79166666667152,"noteNumber":47,"velocity":110,"programNumber":29},{"time":114083.30650000735,"duration":119.79166666667152,"noteNumber":48,"velocity":110,"programNumber":29},{"time":114208.30650000735,"duration":119.79166666667152,"noteNumber":47,"velocity":110,"programNumber":29},{"time":114333.30650000735,"duration":119.79166666667152,"noteNumber":55,"velocity":110,"programNumber":29},{"time":114458.30650000735,"duration":119.79166666667152,"noteNumber":54,"velocity":110,"programNumber":29},{"time":114583.30650000735,"duration":119.79166666667152,"noteNumber":52,"velocity":110,"programNumber":29},{"time":114708.30650000735,"duration":119.79166666667152,"noteNumber":50,"velocity":110,"programNumber":29},{"time":114833.30650000735,"duration":244.79166666667152,"noteNumber":52,"velocity":110,"programNumber":29},{"time":114833.30650000735,"duration":244.79166666667152,"noteNumber":59,"velocity":110,"programNumber":29},{"time":115083.30650000735,"duration":119.79166666667152,"noteNumber":52,"velocity":110,"programNumber":29},{"time":115083.30650000735,"duration":119.79166666667152,"noteNumber":59,"velocity":110,"programNumber":29},{"time":115208.30650000735,"duration":119.79166666667152,"noteNumber":52,"velocity":110,"programNumber":29},{"time":115208.30650000735,"duration":119.79166666667152,"noteNumber":59,"velocity":110,"programNumber":29},{"time":115333.30650000735,"duration":244.79166666667152,"noteNumber":52,"velocity":110,"programNumber":29},{"time":115333.30650000735,"duration":244.79166666667152,"noteNumber":59,"velocity":110,"programNumber":29},{"time":115583.30650000735,"duration":119.79166666667152,"noteNumber":52,"velocity":110,"programNumber":29},{"time":115583.30650000735,"duration":119.79166666667152,"noteNumber":59,"velocity":110,"programNumber":29},{"time":115708.30650000735,"duration":119.79166666667152,"noteNumber":52,"velocity":110,"programNumber":29},{"time":115708.30650000735,"duration":119.79166666667152,"noteNumber":59,"velocity":110,"programNumber":29},{"time":115833.30650000735,"duration":244.79166666667152,"noteNumber":52,"velocity":110,"programNumber":29},{"time":115833.30650000735,"duration":244.79166666667152,"noteNumber":59,"velocity":110,"programNumber":29},{"time":116083.30650000735,"duration":119.79166666667152,"noteNumber":52,"velocity":110,"programNumber":29},{"time":116083.30650000735,"duration":119.79166666667152,"noteNumber":59,"velocity":110,"programNumber":29},{"time":116208.30650000735,"duration":119.79166666667152,"noteNumber":52,"velocity":110,"programNumber":29},{"time":116208.30650000735,"duration":119.79166666667152,"noteNumber":59,"velocity":110,"programNumber":29},{"time":116333.30650000735,"duration":244.79166666667152,"noteNumber":52,"velocity":110,"programNumber":29},{"time":116333.30650000735,"duration":244.79166666667152,"noteNumber":59,"velocity":110,"programNumber":29},{"time":116583.30650000735,"duration":244.79166666667152,"noteNumber":52,"velocity":110,"programNumber":29},{"time":116583.30650000735,"duration":244.79166666667152,"noteNumber":59,"velocity":110,"programNumber":29},{"time":116833.30650000735,"duration":244.79166666667152,"noteNumber":48,"velocity":110,"programNumber":29},{"time":116833.30650000735,"duration":244.79166666667152,"noteNumber":55,"velocity":110,"programNumber":29},{"time":117083.30650000735,"duration":119.79166666667152,"noteNumber":48,"velocity":110,"programNumber":29},{"time":117083.30650000735,"duration":119.79166666667152,"noteNumber":55,"velocity":110,"programNumber":29},{"time":117208.30650000735,"duration":119.79166666667152,"noteNumber":48,"velocity":110,"programNumber":29},{"time":117208.30650000735,"duration":119.79166666667152,"noteNumber":55,"velocity":110,"programNumber":29},{"time":117333.30650000735,"duration":244.79166666667152,"noteNumber":48,"velocity":110,"programNumber":29},{"time":117333.30650000735,"duration":244.79166666667152,"noteNumber":55,"velocity":110,"programNumber":29},{"time":117583.30650000735,"duration":119.79166666667152,"noteNumber":48,"velocity":110,"programNumber":29},{"time":117583.30650000735,"duration":119.79166666667152,"noteNumber":55,"velocity":110,"programNumber":29},{"time":117708.30650000735,"duration":119.79166666667152,"noteNumber":48,"velocity":110,"programNumber":29},{"time":117708.30650000735,"duration":119.79166666667152,"noteNumber":55,"velocity":110,"programNumber":29},{"time":117833.30650000735,"duration":244.79166666667152,"noteNumber":48,"velocity":110,"programNumber":29},{"time":117833.30650000735,"duration":244.79166666667152,"noteNumber":55,"velocity":110,"programNumber":29},{"time":118083.30650000735,"duration":119.79166666667152,"noteNumber":48,"velocity":110,"programNumber":29},{"time":118083.30650000735,"duration":119.79166666667152,"noteNumber":55,"velocity":110,"programNumber":29},{"time":118208.30650000735,"duration":119.79166666667152,"noteNumber":48,"velocity":110,"programNumber":29},{"time":118208.30650000735,"duration":119.79166666667152,"noteNumber":55,"velocity":110,"programNumber":29},{"time":118333.30650000735,"duration":244.79166666667152,"noteNumber":48,"velocity":110,"programNumber":29},{"time":118333.30650000735,"duration":244.79166666667152,"noteNumber":55,"velocity":110,"programNumber":29},{"time":118583.30650000735,"duration":244.79166666667152,"noteNumber":48,"velocity":110,"programNumber":29},{"time":118583.30650000735,"duration":244.79166666667152,"noteNumber":55,"velocity":110,"programNumber":29},{"time":118833.30650000735,"duration":244.79166666667152,"noteNumber":50,"velocity":110,"programNumber":29},{"time":118833.30650000735,"duration":244.79166666667152,"noteNumber":57,"velocity":110,"programNumber":29},{"time":119083.30650000735,"duration":119.79166666667152,"noteNumber":50,"velocity":110,"programNumber":29},{"time":119083.30650000735,"duration":119.79166666667152,"noteNumber":57,"velocity":110,"programNumber":29},{"time":119208.30650000735,"duration":119.79166666667152,"noteNumber":50,"velocity":110,"programNumber":29},{"time":119208.30650000735,"duration":119.79166666667152,"noteNumber":57,"velocity":110,"programNumber":29},{"time":119333.30650000735,"duration":244.79166666667152,"noteNumber":50,"velocity":110,"programNumber":29},{"time":119333.30650000735,"duration":244.79166666667152,"noteNumber":57,"velocity":110,"programNumber":29},{"time":119583.30650000735,"duration":119.79166666667152,"noteNumber":50,"velocity":110,"programNumber":29},{"time":119583.30650000735,"duration":119.79166666667152,"noteNumber":57,"velocity":110,"programNumber":29},{"time":119708.30650000735,"duration":119.79166666667152,"noteNumber":50,"velocity":110,"programNumber":29},{"time":119708.30650000735,"duration":119.79166666667152,"noteNumber":57,"velocity":110,"programNumber":29},{"time":119833.30650000735,"duration":244.79166666667152,"noteNumber":50,"velocity":110,"programNumber":29},{"time":119833.30650000735,"duration":244.79166666667152,"noteNumber":57,"velocity":110,"programNumber":29},{"time":120083.30650000735,"duration":119.79166666667152,"noteNumber":50,"velocity":110,"programNumber":29},{"time":120083.30650000735,"duration":119.79166666667152,"noteNumber":57,"velocity":110,"programNumber":29},{"time":120208.30650000735,"duration":119.79166666667152,"noteNumber":50,"velocity":110,"programNumber":29},{"time":120208.30650000735,"duration":119.79166666667152,"noteNumber":57,"velocity":110,"programNumber":29},{"time":120333.30650000735,"duration":244.79166666667152,"noteNumber":50,"velocity":110,"programNumber":29},{"time":120333.30650000735,"duration":244.79166666667152,"noteNumber":57,"velocity":110,"programNumber":29},{"time":120583.30650000735,"duration":244.79166666667152,"noteNumber":50,"velocity":110,"programNumber":29},{"time":120583.30650000735,"duration":244.79166666667152,"noteNumber":57,"velocity":110,"programNumber":29},{"time":120833.30650000735,"duration":369.7916666666715,"noteNumber":52,"velocity":110,"programNumber":29},{"time":120833.30650000735,"duration":369.7916666666715,"noteNumber":59,"velocity":110,"programNumber":29},{"time":120833.30650000735,"duration":369.7916666666715,"noteNumber":64,"velocity":110,"programNumber":29},{"time":121208.30650000735,"duration":369.7916666666715,"noteNumber":47,"velocity":110,"programNumber":29},{"time":121208.30650000735,"duration":369.7916666666715,"noteNumber":54,"velocity":110,"programNumber":29},{"time":121208.30650000735,"duration":369.7916666666715,"noteNumber":59,"velocity":110,"programNumber":29},{"time":121583.30650000735,"duration":369.7916666666715,"noteNumber":48,"velocity":110,"programNumber":29},{"time":121583.30650000735,"duration":369.7916666666715,"noteNumber":55,"velocity":110,"programNumber":29},{"time":121583.30650000735,"duration":369.7916666666715,"noteNumber":60,"velocity":110,"programNumber":29},{"time":121958.30650000735,"duration":119.79166666667152,"noteNumber":47,"velocity":110,"programNumber":29},{"time":122083.30650000735,"duration":119.79166666667152,"noteNumber":48,"velocity":110,"programNumber":29},{"time":122208.30650000735,"duration":119.79166666667152,"noteNumber":47,"velocity":110,"programNumber":29},{"time":122333.30650000735,"duration":119.79166666667152,"noteNumber":55,"velocity":110,"programNumber":29},{"time":122458.30650000735,"duration":119.79166666667152,"noteNumber":54,"velocity":110,"programNumber":29},{"time":122583.30650000735,"duration":119.79166666667152,"noteNumber":52,"velocity":110,"programNumber":29},{"time":122708.30650000735,"duration":119.79166666667152,"noteNumber":50,"velocity":110,"programNumber":29},{"time":122833.30650000735,"duration":244.79166666667152,"noteNumber":52,"velocity":110,"programNumber":29},{"time":122833.30650000735,"duration":244.79166666667152,"noteNumber":59,"velocity":110,"programNumber":29},{"time":123083.30650000735,"duration":119.79166666667152,"noteNumber":52,"velocity":110,"programNumber":29},{"time":123083.30650000735,"duration":119.79166666667152,"noteNumber":59,"velocity":110,"programNumber":29},{"time":123208.30650000735,"duration":119.79166666667152,"noteNumber":52,"velocity":110,"programNumber":29},{"time":123208.30650000735,"duration":119.79166666667152,"noteNumber":59,"velocity":110,"programNumber":29},{"time":123333.30650000735,"duration":244.79166666667152,"noteNumber":52,"velocity":110,"programNumber":29},{"time":123333.30650000735,"duration":244.79166666667152,"noteNumber":59,"velocity":110,"programNumber":29},{"time":123583.30650000735,"duration":119.79166666667152,"noteNumber":52,"velocity":110,"programNumber":29},{"time":123583.30650000735,"duration":119.79166666667152,"noteNumber":59,"velocity":110,"programNumber":29},{"time":123708.30650000735,"duration":119.79166666667152,"noteNumber":52,"velocity":110,"programNumber":29},{"time":123708.30650000735,"duration":119.79166666667152,"noteNumber":59,"velocity":110,"programNumber":29},{"time":123833.30650000735,"duration":244.79166666667152,"noteNumber":52,"velocity":110,"programNumber":29},{"time":123833.30650000735,"duration":244.79166666667152,"noteNumber":59,"velocity":110,"programNumber":29},{"time":124083.30650000735,"duration":119.79166666667152,"noteNumber":52,"velocity":110,"programNumber":29},{"time":124083.30650000735,"duration":119.79166666667152,"noteNumber":59,"velocity":110,"programNumber":29},{"time":124208.30650000735,"duration":119.79166666667152,"noteNumber":52,"velocity":110,"programNumber":29},{"time":124208.30650000735,"duration":119.79166666667152,"noteNumber":59,"velocity":110,"programNumber":29},{"time":124333.30650000735,"duration":244.79166666667152,"noteNumber":52,"velocity":110,"programNumber":29},{"time":124333.30650000735,"duration":244.79166666667152,"noteNumber":59,"velocity":110,"programNumber":29},{"time":124583.30650000735,"duration":244.79166666667152,"noteNumber":52,"velocity":110,"programNumber":29},{"time":124583.30650000735,"duration":244.79166666667152,"noteNumber":59,"velocity":110,"programNumber":29},{"time":124833.30650000735,"duration":244.79166666667152,"noteNumber":48,"velocity":110,"programNumber":29},{"time":124833.30650000735,"duration":244.79166666667152,"noteNumber":55,"velocity":110,"programNumber":29},{"time":125083.30650000735,"duration":119.79166666667152,"noteNumber":48,"velocity":110,"programNumber":29},{"time":125083.30650000735,"duration":119.79166666667152,"noteNumber":55,"velocity":110,"programNumber":29},{"time":125208.30650000735,"duration":119.79166666667152,"noteNumber":48,"velocity":110,"programNumber":29},{"time":125208.30650000735,"duration":119.79166666667152,"noteNumber":55,"velocity":110,"programNumber":29},{"time":125333.30650000735,"duration":244.79166666667152,"noteNumber":48,"velocity":110,"programNumber":29},{"time":125333.30650000735,"duration":244.79166666667152,"noteNumber":55,"velocity":110,"programNumber":29},{"time":125583.30650000735,"duration":119.79166666667152,"noteNumber":48,"velocity":110,"programNumber":29},{"time":125583.30650000735,"duration":119.79166666667152,"noteNumber":55,"velocity":110,"programNumber":29},{"time":125708.30650000735,"duration":119.79166666667152,"noteNumber":48,"velocity":110,"programNumber":29},{"time":125708.30650000735,"duration":119.79166666667152,"noteNumber":55,"velocity":110,"programNumber":29},{"time":125833.30650000735,"duration":244.79166666667152,"noteNumber":48,"velocity":110,"programNumber":29},{"time":125833.30650000735,"duration":244.79166666667152,"noteNumber":55,"velocity":110,"programNumber":29},{"time":126083.30650000735,"duration":119.79166666667152,"noteNumber":48,"velocity":110,"programNumber":29},{"time":126083.30650000735,"duration":119.79166666667152,"noteNumber":55,"velocity":110,"programNumber":29},{"time":126208.30650000735,"duration":119.79166666667152,"noteNumber":48,"velocity":110,"programNumber":29},{"time":126208.30650000735,"duration":119.79166666667152,"noteNumber":55,"velocity":110,"programNumber":29},{"time":126333.30650000735,"duration":244.79166666667152,"noteNumber":48,"velocity":110,"programNumber":29},{"time":126333.30650000735,"duration":244.79166666667152,"noteNumber":55,"velocity":110,"programNumber":29},{"time":126583.30650000735,"duration":244.79166666667152,"noteNumber":48,"velocity":110,"programNumber":29},{"time":126583.30650000735,"duration":244.79166666667152,"noteNumber":55,"velocity":110,"programNumber":29},{"time":126833.30650000735,"duration":244.79166666667152,"noteNumber":50,"velocity":110,"programNumber":29},{"time":126833.30650000735,"duration":244.79166666667152,"noteNumber":57,"velocity":110,"programNumber":29},{"time":127083.30650000735,"duration":119.79166666667152,"noteNumber":50,"velocity":110,"programNumber":29},{"time":127083.30650000735,"duration":119.79166666667152,"noteNumber":57,"velocity":110,"programNumber":29},{"time":127208.30650000735,"duration":119.79166666667152,"noteNumber":50,"velocity":110,"programNumber":29},{"time":127208.30650000735,"duration":119.79166666667152,"noteNumber":57,"velocity":110,"programNumber":29},{"time":127333.30650000735,"duration":244.79166666667152,"noteNumber":50,"velocity":110,"programNumber":29},{"time":127333.30650000735,"duration":244.79166666667152,"noteNumber":57,"velocity":110,"programNumber":29},{"time":127583.30650000735,"duration":119.79166666667152,"noteNumber":50,"velocity":110,"programNumber":29},{"time":127583.30650000735,"duration":119.79166666667152,"noteNumber":57,"velocity":110,"programNumber":29},{"time":127708.30650000735,"duration":119.79166666667152,"noteNumber":50,"velocity":110,"programNumber":29},{"time":127708.30650000735,"duration":119.79166666667152,"noteNumber":57,"velocity":110,"programNumber":29},{"time":127833.30650000735,"duration":244.79166666667152,"noteNumber":50,"velocity":110,"programNumber":29},{"time":127833.30650000735,"duration":244.79166666667152,"noteNumber":57,"velocity":110,"programNumber":29},{"time":128083.30650000735,"duration":119.79166666667152,"noteNumber":50,"velocity":110,"programNumber":29},{"time":128083.30650000735,"duration":119.79166666667152,"noteNumber":57,"velocity":110,"programNumber":29},{"time":128208.30650000735,"duration":119.79166666667152,"noteNumber":50,"velocity":110,"programNumber":29},{"time":128208.30650000735,"duration":119.79166666667152,"noteNumber":57,"velocity":110,"programNumber":29},{"time":128333.30650000735,"duration":244.79166666667152,"noteNumber":50,"velocity":110,"programNumber":29},{"time":128333.30650000735,"duration":244.79166666667152,"noteNumber":57,"velocity":110,"programNumber":29},{"time":128583.30650000735,"duration":244.79166666667152,"noteNumber":50,"velocity":110,"programNumber":29},{"time":128583.30650000735,"duration":244.79166666667152,"noteNumber":57,"velocity":110,"programNumber":29},{"time":128833.30650000735,"duration":369.7916666666715,"noteNumber":52,"velocity":110,"programNumber":29},{"time":128833.30650000735,"duration":369.7916666666715,"noteNumber":59,"velocity":110,"programNumber":29},{"time":128833.30650000735,"duration":369.7916666666715,"noteNumber":64,"velocity":110,"programNumber":29},{"time":129208.30650000735,"duration":369.7916666666715,"noteNumber":47,"velocity":110,"programNumber":29},{"time":129208.30650000735,"duration":369.7916666666715,"noteNumber":54,"velocity":110,"programNumber":29},{"time":129208.30650000735,"duration":369.7916666666715,"noteNumber":59,"velocity":110,"programNumber":29},{"time":129583.30650000735,"duration":369.7916666666715,"noteNumber":48,"velocity":110,"programNumber":29},{"time":129583.30650000735,"duration":369.7916666666715,"noteNumber":55,"velocity":110,"programNumber":29},{"time":129583.30650000735,"duration":369.7916666666715,"noteNumber":60,"velocity":110,"programNumber":29},{"time":129958.30650000735,"duration":119.79166666667152,"noteNumber":47,"velocity":110,"programNumber":29},{"time":130083.30650000735,"duration":119.79166666667152,"noteNumber":48,"velocity":110,"programNumber":29},{"time":130208.30650000735,"duration":119.79166666667152,"noteNumber":47,"velocity":110,"programNumber":29},{"time":130333.30650000735,"duration":119.79166666667152,"noteNumber":55,"velocity":110,"programNumber":29},{"time":130458.30650000735,"duration":119.79166666667152,"noteNumber":54,"velocity":110,"programNumber":29},{"time":130583.30650000735,"duration":119.79166666667152,"noteNumber":52,"velocity":110,"programNumber":29},{"time":130708.30650000735,"duration":119.79166666667152,"noteNumber":50,"velocity":110,"programNumber":29},{"time":130833.30650000735,"duration":119.79166666667152,"noteNumber":52,"velocity":110,"programNumber":29},{"time":130958.30650000735,"duration":119.79166666667152,"noteNumber":54,"velocity":110,"programNumber":29},{"time":131083.30650000737,"duration":119.79166666665697,"noteNumber":55,"velocity":110,"programNumber":29},{"time":131208.30650000737,"duration":119.79166666665697,"noteNumber":54,"velocity":110,"programNumber":29},{"time":131333.30650000737,"duration":119.79166666665697,"noteNumber":55,"velocity":110,"programNumber":29},{"time":131458.30650000737,"duration":119.79166666665697,"noteNumber":57,"velocity":110,"programNumber":29},{"time":131583.30650000737,"duration":119.79166666665697,"noteNumber":55,"velocity":110,"programNumber":29},{"time":131708.30650000737,"duration":119.79166666665697,"noteNumber":54,"velocity":110,"programNumber":29},{"time":131833.30650000737,"duration":244.79166666665697,"noteNumber":59,"velocity":110,"programNumber":29},{"time":132083.30650000737,"duration":119.79166666665697,"noteNumber":55,"velocity":110,"programNumber":29},{"time":132208.30650000737,"duration":119.79166666665697,"noteNumber":54,"velocity":110,"programNumber":29},{"time":132333.30650000737,"duration":119.79166666665697,"noteNumber":55,"velocity":110,"programNumber":29},{"time":132458.30650000737,"duration":119.79166666665697,"noteNumber":54,"velocity":110,"programNumber":29},{"time":132583.30650000737,"duration":369.79166666665697,"noteNumber":52,"velocity":110,"programNumber":29},{"time":132958.30650000737,"duration":119.79166666665697,"noteNumber":54,"velocity":110,"programNumber":29},{"time":133083.30650000737,"duration":119.79166666665697,"noteNumber":55,"velocity":110,"programNumber":29},{"time":133208.30650000737,"duration":119.79166666665697,"noteNumber":54,"velocity":110,"programNumber":29},{"time":133333.30650000737,"duration":119.79166666665697,"noteNumber":55,"velocity":110,"programNumber":29},{"time":133458.30650000737,"duration":119.79166666665697,"noteNumber":57,"velocity":110,"programNumber":29},{"time":133583.30650000737,"duration":119.79166666665697,"noteNumber":55,"velocity":110,"programNumber":29},{"time":133708.30650000737,"duration":119.79166666665697,"noteNumber":54,"velocity":110,"programNumber":29},{"time":133833.30650000737,"duration":244.79166666665697,"noteNumber":59,"velocity":110,"programNumber":29},{"time":134083.30650000737,"duration":119.79166666665697,"noteNumber":55,"velocity":110,"programNumber":29},{"time":134208.30650000737,"duration":119.79166666665697,"noteNumber":54,"velocity":110,"programNumber":29},{"time":134333.30650000737,"duration":119.79166666665697,"noteNumber":55,"velocity":110,"programNumber":29},{"time":134458.30650000737,"duration":119.79166666665697,"noteNumber":54,"velocity":110,"programNumber":29},{"time":134583.30650000737,"duration":369.79166666665697,"noteNumber":52,"velocity":110,"programNumber":29},{"time":134958.30650000737,"duration":119.79166666665697,"noteNumber":54,"velocity":110,"programNumber":29},{"time":135083.30650000737,"duration":119.79166666665697,"noteNumber":55,"velocity":110,"programNumber":29},{"time":135208.30650000737,"duration":119.79166666665697,"noteNumber":54,"velocity":110,"programNumber":29},{"time":135333.30650000737,"duration":119.79166666665697,"noteNumber":55,"velocity":110,"programNumber":29},{"time":135458.30650000737,"duration":119.79166666665697,"noteNumber":57,"velocity":110,"programNumber":29},{"time":135583.30650000737,"duration":119.79166666665697,"noteNumber":55,"velocity":110,"programNumber":29},{"time":135708.30650000737,"duration":119.79166666665697,"noteNumber":54,"velocity":110,"programNumber":29},{"time":135833.30650000737,"duration":244.79166666665697,"noteNumber":59,"velocity":110,"programNumber":29},{"time":136083.30650000737,"duration":119.79166666665697,"noteNumber":55,"velocity":110,"programNumber":29},{"time":136208.30650000737,"duration":119.79166666665697,"noteNumber":54,"velocity":110,"programNumber":29},{"time":136333.30650000737,"duration":119.79166666665697,"noteNumber":55,"velocity":110,"programNumber":29},{"time":136458.30650000737,"duration":119.79166666665697,"noteNumber":54,"velocity":110,"programNumber":29},{"time":136583.30650000737,"duration":369.79166666665697,"noteNumber":52,"velocity":110,"programNumber":29},{"time":136958.30650000737,"duration":119.79166666665697,"noteNumber":54,"velocity":110,"programNumber":29},{"time":137083.30650000737,"duration":119.79166666665697,"noteNumber":55,"velocity":110,"programNumber":29},{"time":137208.30650000737,"duration":119.79166666665697,"noteNumber":54,"velocity":110,"programNumber":29},{"time":137333.30650000737,"duration":119.79166666665697,"noteNumber":55,"velocity":110,"programNumber":29},{"time":137458.30650000737,"duration":119.79166666665697,"noteNumber":57,"velocity":110,"programNumber":29},{"time":137583.30650000737,"duration":119.79166666665697,"noteNumber":55,"velocity":110,"programNumber":29},{"time":137708.30650000737,"duration":119.79166666665697,"noteNumber":54,"velocity":110,"programNumber":29},{"time":137833.30650000737,"duration":244.79166666665697,"noteNumber":59,"velocity":110,"programNumber":29},{"time":138083.30650000737,"duration":119.79166666665697,"noteNumber":55,"velocity":110,"programNumber":29},{"time":138208.30650000737,"duration":119.79166666665697,"noteNumber":54,"velocity":110,"programNumber":29},{"time":138333.30650000737,"duration":119.79166666665697,"noteNumber":55,"velocity":110,"programNumber":29},{"time":138458.30650000737,"duration":119.79166666665697,"noteNumber":54,"velocity":110,"programNumber":29},{"time":138583.30650000737,"duration":369.79166666665697,"noteNumber":52,"velocity":110,"programNumber":29},{"time":138958.30650000737,"duration":119.79166666665697,"noteNumber":54,"velocity":110,"programNumber":29},{"time":139083.30650000737,"duration":119.79166666665697,"noteNumber":55,"velocity":110,"programNumber":29},{"time":139208.30650000737,"duration":119.79166666665697,"noteNumber":54,"velocity":110,"programNumber":29},{"time":139333.30650000737,"duration":119.79166666665697,"noteNumber":55,"velocity":110,"programNumber":29},{"time":139458.30650000737,"duration":119.79166666665697,"noteNumber":57,"velocity":110,"programNumber":29},{"time":139583.30650000737,"duration":119.79166666665697,"noteNumber":55,"velocity":110,"programNumber":29},{"time":139708.30650000737,"duration":119.79166666665697,"noteNumber":54,"velocity":110,"programNumber":29},{"time":139833.30650000737,"duration":244.79166666665697,"noteNumber":59,"velocity":110,"programNumber":29},{"time":140083.30650000737,"duration":119.79166666665697,"noteNumber":55,"velocity":110,"programNumber":29},{"time":140208.30650000737,"duration":119.79166666665697,"noteNumber":54,"velocity":110,"programNumber":29},{"time":140333.30650000737,"duration":119.79166666665697,"noteNumber":55,"velocity":110,"programNumber":29},{"time":140458.30650000737,"duration":119.79166666665697,"noteNumber":54,"velocity":110,"programNumber":29},{"time":140583.30650000737,"duration":369.79166666665697,"noteNumber":52,"velocity":110,"programNumber":29},{"time":140958.30650000737,"duration":119.79166666665697,"noteNumber":54,"velocity":110,"programNumber":29},{"time":141083.30650000737,"duration":119.79166666665697,"noteNumber":55,"velocity":110,"programNumber":29},{"time":141208.30650000737,"duration":119.79166666665697,"noteNumber":54,"velocity":110,"programNumber":29},{"time":141333.30650000737,"duration":119.79166666665697,"noteNumber":55,"velocity":110,"programNumber":29},{"time":141458.30650000737,"duration":119.79166666665697,"noteNumber":57,"velocity":110,"programNumber":29},{"time":141583.30650000737,"duration":119.79166666665697,"noteNumber":55,"velocity":110,"programNumber":29},{"time":141708.30650000737,"duration":119.79166666665697,"noteNumber":54,"velocity":110,"programNumber":29},{"time":141833.30650000737,"duration":244.79166666665697,"noteNumber":59,"velocity":110,"programNumber":29},{"time":142083.30650000737,"duration":119.79166666665697,"noteNumber":55,"velocity":110,"programNumber":29},{"time":142208.30650000737,"duration":119.79166666665697,"noteNumber":54,"velocity":110,"programNumber":29},{"time":142333.30650000737,"duration":119.79166666665697,"noteNumber":55,"velocity":110,"programNumber":29},{"time":142458.30650000737,"duration":119.79166666665697,"noteNumber":54,"velocity":110,"programNumber":29},{"time":142583.30650000737,"duration":369.79166666665697,"noteNumber":52,"velocity":110,"programNumber":29},{"time":142958.30650000737,"duration":119.79166666665697,"noteNumber":54,"velocity":110,"programNumber":29},{"time":143083.30650000737,"duration":119.79166666665697,"noteNumber":55,"velocity":110,"programNumber":29},{"time":143208.30650000737,"duration":119.79166666665697,"noteNumber":54,"velocity":110,"programNumber":29},{"time":143333.30650000737,"duration":119.79166666665697,"noteNumber":55,"velocity":110,"programNumber":29},{"time":143458.30650000737,"duration":119.79166666665697,"noteNumber":57,"velocity":110,"programNumber":29},{"time":143583.30650000737,"duration":119.79166666665697,"noteNumber":55,"velocity":110,"programNumber":29},{"time":143708.30650000737,"duration":119.79166666665697,"noteNumber":54,"velocity":110,"programNumber":29},{"time":143833.30650000737,"duration":244.79166666665697,"noteNumber":59,"velocity":110,"programNumber":29},{"time":144083.30650000737,"duration":119.79166666665697,"noteNumber":55,"velocity":110,"programNumber":29},{"time":144208.30650000737,"duration":119.79166666665697,"noteNumber":54,"velocity":110,"programNumber":29},{"time":144333.30650000737,"duration":119.79166666665697,"noteNumber":55,"velocity":110,"programNumber":29},{"time":144458.30650000737,"duration":119.79166666665697,"noteNumber":54,"velocity":110,"programNumber":29},{"time":144583.30650000737,"duration":369.79166666665697,"noteNumber":52,"velocity":110,"programNumber":29},{"time":144958.30650000737,"duration":119.79166666665697,"noteNumber":54,"velocity":110,"programNumber":29},{"time":145083.30650000737,"duration":119.79166666665697,"noteNumber":55,"velocity":110,"programNumber":29},{"time":145208.30650000737,"duration":119.79166666665697,"noteNumber":54,"velocity":110,"programNumber":29},{"time":145333.30650000737,"duration":119.79166666665697,"noteNumber":55,"velocity":110,"programNumber":29},{"time":145458.30650000737,"duration":119.79166666665697,"noteNumber":57,"velocity":110,"programNumber":29},{"time":145583.30650000737,"duration":119.79166666665697,"noteNumber":55,"velocity":110,"programNumber":29},{"time":145708.30650000737,"duration":119.79166666665697,"noteNumber":54,"velocity":110,"programNumber":29},{"time":145833.30650000737,"duration":244.79166666665697,"noteNumber":59,"velocity":110,"programNumber":29},{"time":146083.30650000737,"duration":119.79166666665697,"noteNumber":55,"velocity":110,"programNumber":29},{"time":146208.30650000737,"duration":119.79166666665697,"noteNumber":54,"velocity":110,"programNumber":29},{"time":146333.30650000737,"duration":119.79166666665697,"noteNumber":55,"velocity":110,"programNumber":29},{"time":146458.30650000737,"duration":119.79166666665697,"noteNumber":54,"velocity":110,"programNumber":29},{"time":146583.30650000737,"duration":244.79166666665697,"noteNumber":52,"velocity":110,"programNumber":29},{"time":146833.30650000737,"duration":619.791666666657,"noteNumber":52,"velocity":110,"programNumber":29},{"time":147458.30650000737,"duration":119.79166666665697,"noteNumber":52,"velocity":110,"programNumber":29},{"time":147583.30650000737,"duration":119.79166666665697,"noteNumber":54,"velocity":110,"programNumber":29},{"time":147708.30650000737,"duration":119.79166666665697,"noteNumber":55,"velocity":110,"programNumber":29},{"time":147833.30650000737,"duration":619.791666666657,"noteNumber":59,"velocity":110,"programNumber":29},{"time":148458.30650000737,"duration":119.79166666665697,"noteNumber":59,"velocity":110,"programNumber":29},{"time":148583.30650000737,"duration":119.79166666665697,"noteNumber":55,"velocity":110,"programNumber":29},{"time":148708.30650000737,"duration":119.79166666665697,"noteNumber":54,"velocity":110,"programNumber":29},{"time":148833.30650000737,"duration":244.79166666665697,"noteNumber":52,"velocity":110,"programNumber":29},{"time":149083.30650000737,"duration":119.79166666665697,"noteNumber":54,"velocity":110,"programNumber":29},{"time":149208.30650000737,"duration":119.79166666665697,"noteNumber":55,"velocity":110,"programNumber":29},{"time":149333.30650000737,"duration":244.79166666665697,"noteNumber":59,"velocity":110,"programNumber":29},{"time":149583.30650000737,"duration":119.79166666665697,"noteNumber":55,"velocity":110,"programNumber":29},{"time":149708.30650000737,"duration":119.79166666665697,"noteNumber":54,"velocity":110,"programNumber":29},{"time":149833.30650000737,"duration":244.79166666665697,"noteNumber":52,"velocity":110,"programNumber":29},{"time":150083.30650000737,"duration":119.79166666665697,"noteNumber":54,"velocity":110,"programNumber":29},{"time":150208.30650000737,"duration":119.79166666665697,"noteNumber":55,"velocity":110,"programNumber":29},{"time":150333.30650000737,"duration":119.79166666665697,"noteNumber":59,"velocity":110,"programNumber":29},{"time":150458.30650000737,"duration":119.79166666665697,"noteNumber":55,"velocity":110,"programNumber":29},{"time":150583.30650000737,"duration":244.79166666665697,"noteNumber":54,"velocity":110,"programNumber":29},{"time":150833.30650000737,"duration":619.791666666657,"noteNumber":52,"velocity":110,"programNumber":29},{"time":151458.30650000737,"duration":119.79166666665697,"noteNumber":52,"velocity":110,"programNumber":29},{"time":151583.30650000737,"duration":119.79166666665697,"noteNumber":54,"velocity":110,"programNumber":29},{"time":151708.30650000737,"duration":119.79166666665697,"noteNumber":55,"velocity":110,"programNumber":29},{"time":151833.30650000737,"duration":619.791666666657,"noteNumber":59,"velocity":110,"programNumber":29},{"time":152458.30650000737,"duration":119.79166666665697,"noteNumber":59,"velocity":110,"programNumber":29},{"time":152583.30650000737,"duration":119.79166666665697,"noteNumber":55,"velocity":110,"programNumber":29},{"time":152708.30650000737,"duration":119.79166666665697,"noteNumber":54,"velocity":110,"programNumber":29},{"time":152833.30650000737,"duration":244.79166666665697,"noteNumber":52,"velocity":110,"programNumber":29},{"time":153083.30650000737,"duration":119.79166666665697,"noteNumber":54,"velocity":110,"programNumber":29},{"time":153208.30650000737,"duration":119.79166666665697,"noteNumber":55,"velocity":110,"programNumber":29},{"time":153333.30650000737,"duration":244.79166666665697,"noteNumber":59,"velocity":110,"programNumber":29},{"time":153583.30650000737,"duration":119.79166666665697,"noteNumber":55,"velocity":110,"programNumber":29},{"time":153708.30650000737,"duration":119.79166666665697,"noteNumber":54,"velocity":110,"programNumber":29},{"time":153833.30650000737,"duration":244.79166666665697,"noteNumber":52,"velocity":110,"programNumber":29},{"time":154083.30650000737,"duration":119.79166666665697,"noteNumber":54,"velocity":110,"programNumber":29},{"time":154208.30650000737,"duration":119.79166666665697,"noteNumber":55,"velocity":110,"programNumber":29},{"time":154333.30650000737,"duration":119.79166666665697,"noteNumber":59,"velocity":110,"programNumber":29},{"time":154458.30650000737,"duration":119.79166666665697,"noteNumber":55,"velocity":110,"programNumber":29},{"time":154583.30650000737,"duration":244.79166666665697,"noteNumber":54,"velocity":110,"programNumber":29},{"time":154833.30650000737,"duration":619.791666666657,"noteNumber":52,"velocity":110,"programNumber":29},{"time":155458.30650000737,"duration":119.79166666665697,"noteNumber":52,"velocity":110,"programNumber":29},{"time":155583.30650000737,"duration":119.79166666665697,"noteNumber":54,"velocity":110,"programNumber":29},{"time":155708.30650000737,"duration":119.79166666665697,"noteNumber":55,"velocity":110,"programNumber":29},{"time":155833.30650000737,"duration":619.791666666657,"noteNumber":59,"velocity":110,"programNumber":29},{"time":156458.30650000737,"duration":119.79166666665697,"noteNumber":59,"velocity":110,"programNumber":29},{"time":156583.30650000737,"duration":119.79166666665697,"noteNumber":55,"velocity":110,"programNumber":29},{"time":156708.30650000737,"duration":119.79166666665697,"noteNumber":54,"velocity":110,"programNumber":29},{"time":156833.30650000737,"duration":244.79166666665697,"noteNumber":52,"velocity":110,"programNumber":29},{"time":157083.30650000737,"duration":119.79166666665697,"noteNumber":54,"velocity":110,"programNumber":29},{"time":157208.30650000737,"duration":119.79166666665697,"noteNumber":55,"velocity":110,"programNumber":29},{"time":157333.30650000737,"duration":244.79166666665697,"noteNumber":59,"velocity":110,"programNumber":29},{"time":157583.30650000737,"duration":119.79166666665697,"noteNumber":55,"velocity":110,"programNumber":29},{"time":157708.30650000737,"duration":119.79166666665697,"noteNumber":54,"velocity":110,"programNumber":29},{"time":157833.30650000737,"duration":244.79166666665697,"noteNumber":52,"velocity":110,"programNumber":29},{"time":158083.30650000737,"duration":119.79166666665697,"noteNumber":54,"velocity":110,"programNumber":29},{"time":158208.30650000737,"duration":119.79166666665697,"noteNumber":55,"velocity":110,"programNumber":29},{"time":158333.30650000737,"duration":119.79166666665697,"noteNumber":59,"velocity":110,"programNumber":29},{"time":158458.30650000737,"duration":119.79166666665697,"noteNumber":55,"velocity":110,"programNumber":29},{"time":158583.30650000737,"duration":244.79166666665697,"noteNumber":54,"velocity":110,"programNumber":29},{"time":158833.30650000737,"duration":619.791666666657,"noteNumber":52,"velocity":110,"programNumber":29},{"time":159458.30650000737,"duration":119.79166666665697,"noteNumber":52,"velocity":110,"programNumber":29},{"time":159583.30650000737,"duration":119.79166666665697,"noteNumber":54,"velocity":110,"programNumber":29},{"time":159708.30650000737,"duration":119.79166666665697,"noteNumber":55,"velocity":110,"programNumber":29},{"time":159833.30650000737,"duration":619.791666666657,"noteNumber":59,"velocity":110,"programNumber":29},{"time":160458.30650000737,"duration":119.79166666665697,"noteNumber":59,"velocity":110,"programNumber":29},{"time":160583.30650000737,"duration":119.79166666665697,"noteNumber":55,"velocity":110,"programNumber":29},{"time":160708.30650000737,"duration":119.79166666665697,"noteNumber":54,"velocity":110,"programNumber":29},{"time":160833.30650000737,"duration":244.79166666665697,"noteNumber":52,"velocity":110,"programNumber":29},{"time":161083.30650000737,"duration":119.79166666665697,"noteNumber":54,"velocity":110,"programNumber":29},{"time":161208.30650000737,"duration":119.79166666665697,"noteNumber":55,"velocity":110,"programNumber":29},{"time":161333.30650000737,"duration":244.79166666665697,"noteNumber":59,"velocity":110,"programNumber":29},{"time":161583.30650000737,"duration":119.79166666665697,"noteNumber":55,"velocity":110,"programNumber":29},{"time":161708.30650000737,"duration":119.79166666665697,"noteNumber":54,"velocity":110,"programNumber":29},{"time":161833.30650000737,"duration":244.79166666665697,"noteNumber":52,"velocity":110,"programNumber":29},{"time":162083.30650000737,"duration":119.79166666665697,"noteNumber":54,"velocity":110,"programNumber":29},{"time":162208.30650000737,"duration":119.79166666665697,"noteNumber":55,"velocity":110,"programNumber":29},{"time":162333.30650000737,"duration":119.79166666665697,"noteNumber":59,"velocity":110,"programNumber":29},{"time":162458.30650000737,"duration":119.79166666665697,"noteNumber":55,"velocity":110,"programNumber":29},{"time":162583.30650000737,"duration":244.79166666665697,"noteNumber":54,"velocity":110,"programNumber":29},{"time":162833.30650000737,"duration":666.666666666657,"noteNumber":67,"velocity":110,"programNumber":30},{"time":163583.30650000737,"duration":119.79166666665697,"noteNumber":69,"velocity":110,"programNumber":30},{"time":163708.30650000737,"duration":119.79166666665697,"noteNumber":71,"velocity":110,"programNumber":30},{"time":163833.30650000737,"duration":666.666666666657,"noteNumber":74,"velocity":110,"programNumber":30},{"time":164583.30650000737,"duration":119.79166666665697,"noteNumber":71,"velocity":110,"programNumber":30},{"time":164708.30650000737,"duration":119.79166666665697,"noteNumber":69,"velocity":110,"programNumber":30},{"time":164833.30650000737,"duration":244.79166666665697,"noteNumber":67,"velocity":110,"programNumber":30},{"time":165083.30650000737,"duration":119.79166666665697,"noteNumber":69,"velocity":110,"programNumber":30},{"time":165208.30650000737,"duration":119.79166666665697,"noteNumber":71,"velocity":110,"programNumber":30},{"time":165333.30650000737,"duration":244.79166666665697,"noteNumber":74,"velocity":110,"programNumber":30},{"time":165583.30650000737,"duration":119.79166666665697,"noteNumber":71,"velocity":110,"programNumber":30},{"time":165708.30650000737,"duration":119.79166666665697,"noteNumber":69,"velocity":110,"programNumber":30},{"time":165833.30650000737,"duration":244.79166666665697,"noteNumber":67,"velocity":110,"programNumber":30},{"time":166083.30650000737,"duration":119.79166666665697,"noteNumber":69,"velocity":110,"programNumber":30},{"time":166208.30650000737,"duration":119.79166666665697,"noteNumber":71,"velocity":110,"programNumber":30},{"time":166333.30650000737,"duration":119.79166666665697,"noteNumber":74,"velocity":110,"programNumber":30},{"time":166458.30650000737,"duration":119.79166666665697,"noteNumber":71,"velocity":110,"programNumber":30},{"time":166583.30650000737,"duration":244.79166666665697,"noteNumber":69,"velocity":110,"programNumber":30},{"time":166833.30650000737,"duration":666.666666666657,"noteNumber":67,"velocity":110,"programNumber":30},{"time":167583.30650000737,"duration":119.79166666665697,"noteNumber":69,"velocity":110,"programNumber":30},{"time":167708.30650000737,"duration":119.79166666665697,"noteNumber":71,"velocity":110,"programNumber":30},{"time":167833.30650000737,"duration":666.666666666657,"noteNumber":76,"velocity":110,"programNumber":30},{"time":168583.30650000737,"duration":119.79166666665697,"noteNumber":71,"velocity":110,"programNumber":30},{"time":168708.30650000737,"duration":119.79166666665697,"noteNumber":69,"velocity":110,"programNumber":30},{"time":168833.30650000737,"duration":244.79166666665697,"noteNumber":67,"velocity":110,"programNumber":30},{"time":169083.30650000737,"duration":119.79166666665697,"noteNumber":69,"velocity":110,"programNumber":30},{"time":169208.30650000737,"duration":119.79166666665697,"noteNumber":71,"velocity":110,"programNumber":30},{"time":169333.30650000737,"duration":244.79166666665697,"noteNumber":74,"velocity":110,"programNumber":30},{"time":169583.30650000737,"duration":119.79166666665697,"noteNumber":71,"velocity":110,"programNumber":30},{"time":169708.30650000737,"duration":119.79166666665697,"noteNumber":69,"velocity":110,"programNumber":30},{"time":169833.30650000737,"duration":244.79166666665697,"noteNumber":67,"velocity":110,"programNumber":30},{"time":170083.30650000737,"duration":119.79166666665697,"noteNumber":69,"velocity":110,"programNumber":30},{"time":170208.30650000737,"duration":119.79166666665697,"noteNumber":71,"velocity":110,"programNumber":30},{"time":170333.30650000737,"duration":119.79166666665697,"noteNumber":74,"velocity":110,"programNumber":30},{"time":170458.30650000737,"duration":119.79166666665697,"noteNumber":71,"velocity":110,"programNumber":30},{"time":170583.30650000737,"duration":244.79166666665697,"noteNumber":69,"velocity":110,"programNumber":30},{"time":170833.30650000737,"duration":666.666666666657,"noteNumber":67,"velocity":110,"programNumber":30},{"time":171583.30650000737,"duration":119.79166666665697,"noteNumber":69,"velocity":110,"programNumber":30},{"time":171708.30650000737,"duration":119.79166666665697,"noteNumber":71,"velocity":110,"programNumber":30},{"time":171833.30650000737,"duration":666.666666666657,"noteNumber":74,"velocity":110,"programNumber":30},{"time":172583.30650000737,"duration":119.79166666665697,"noteNumber":71,"velocity":110,"programNumber":30},{"time":172708.30650000737,"duration":119.79166666665697,"noteNumber":69,"velocity":110,"programNumber":30},{"time":172833.30650000737,"duration":244.79166666665697,"noteNumber":67,"velocity":110,"programNumber":30},{"time":173083.30650000737,"duration":119.79166666665697,"noteNumber":69,"velocity":110,"programNumber":30},{"time":173208.30650000737,"duration":119.79166666665697,"noteNumber":71,"velocity":110,"programNumber":30},{"time":173333.30650000737,"duration":244.79166666665697,"noteNumber":74,"velocity":110,"programNumber":30},{"time":173583.30650000737,"duration":119.79166666665697,"noteNumber":71,"velocity":110,"programNumber":30},{"time":173708.30650000737,"duration":119.79166666665697,"noteNumber":69,"velocity":110,"programNumber":30},{"time":173833.30650000737,"duration":244.79166666665697,"noteNumber":67,"velocity":110,"programNumber":30},{"time":174083.30650000737,"duration":119.79166666665697,"noteNumber":69,"velocity":110,"programNumber":30},{"time":174208.30650000737,"duration":119.79166666665697,"noteNumber":71,"velocity":110,"programNumber":30},{"time":174333.30650000737,"duration":119.79166666665697,"noteNumber":74,"velocity":110,"programNumber":30},{"time":174458.30650000737,"duration":119.79166666665697,"noteNumber":71,"velocity":110,"programNumber":30},{"time":174583.30650000737,"duration":244.79166666665697,"noteNumber":69,"velocity":110,"programNumber":30},{"time":174833.30650000737,"duration":666.666666666657,"noteNumber":67,"velocity":110,"programNumber":30},{"time":175583.30650000737,"duration":119.79166666665697,"noteNumber":69,"velocity":110,"programNumber":30},{"time":175708.30650000737,"duration":119.79166666665697,"noteNumber":71,"velocity":110,"programNumber":30},{"time":175833.30650000737,"duration":666.666666666657,"noteNumber":76,"velocity":110,"programNumber":30},{"time":176583.30650000737,"duration":119.79166666665697,"noteNumber":71,"velocity":110,"programNumber":30},{"time":176708.30650000737,"duration":119.79166666665697,"noteNumber":69,"velocity":110,"programNumber":30},{"time":176833.30650000737,"duration":244.79166666665697,"noteNumber":67,"velocity":110,"programNumber":30},{"time":177083.30650000737,"duration":119.79166666665697,"noteNumber":69,"velocity":110,"programNumber":30},{"time":177208.30650000737,"duration":119.79166666665697,"noteNumber":71,"velocity":110,"programNumber":30},{"time":177333.30650000737,"duration":244.79166666665697,"noteNumber":74,"velocity":110,"programNumber":30},{"time":177583.30650000737,"duration":119.79166666665697,"noteNumber":71,"velocity":110,"programNumber":30},{"time":177708.30650000737,"duration":119.79166666665697,"noteNumber":69,"velocity":110,"programNumber":30},{"time":177833.30650000737,"duration":244.79166666665697,"noteNumber":67,"velocity":110,"programNumber":30},{"time":178083.30650000737,"duration":119.79166666665697,"noteNumber":69,"velocity":110,"programNumber":30},{"time":178208.30650000737,"duration":119.79166666665697,"noteNumber":71,"velocity":110,"programNumber":30},{"time":178333.30650000737,"duration":119.79166666665697,"noteNumber":74,"velocity":110,"programNumber":30},{"time":178458.30650000737,"duration":119.79166666665697,"noteNumber":71,"velocity":110,"programNumber":30},{"time":178583.30650000737,"duration":244.79166666665697,"noteNumber":69,"velocity":110,"programNumber":30},{"time":178833.30650000737,"duration":244.79166666665697,"noteNumber":52,"velocity":110,"programNumber":29},{"time":178833.30650000737,"duration":244.79166666665697,"noteNumber":59,"velocity":110,"programNumber":29},{"time":179083.30650000737,"duration":119.79166666665697,"noteNumber":52,"velocity":110,"programNumber":29},{"time":179083.30650000737,"duration":119.79166666665697,"noteNumber":59,"velocity":110,"programNumber":29},{"time":179208.30650000737,"duration":119.79166666665697,"noteNumber":52,"velocity":110,"programNumber":29},{"time":179208.30650000737,"duration":119.79166666665697,"noteNumber":59,"velocity":110,"programNumber":29},{"time":179333.30650000737,"duration":244.79166666665697,"noteNumber":52,"velocity":110,"programNumber":29},{"time":179333.30650000737,"duration":244.79166666665697,"noteNumber":59,"velocity":110,"programNumber":29},{"time":179583.30650000737,"duration":119.79166666665697,"noteNumber":52,"velocity":110,"programNumber":29},{"time":179583.30650000737,"duration":119.79166666665697,"noteNumber":59,"velocity":110,"programNumber":29},{"time":179708.30650000737,"duration":119.79166666665697,"noteNumber":52,"velocity":110,"programNumber":29},{"time":179708.30650000737,"duration":119.79166666665697,"noteNumber":59,"velocity":110,"programNumber":29},{"time":179833.30650000737,"duration":244.79166666665697,"noteNumber":52,"velocity":110,"programNumber":29},{"time":179833.30650000737,"duration":244.79166666665697,"noteNumber":59,"velocity":110,"programNumber":29},{"time":180083.30650000737,"duration":119.79166666665697,"noteNumber":52,"velocity":110,"programNumber":29},{"time":180083.30650000737,"duration":119.79166666665697,"noteNumber":59,"velocity":110,"programNumber":29},{"time":180208.30650000737,"duration":119.79166666665697,"noteNumber":52,"velocity":110,"programNumber":29},{"time":180208.30650000737,"duration":119.79166666665697,"noteNumber":59,"velocity":110,"programNumber":29},{"time":180333.30650000737,"duration":244.79166666665697,"noteNumber":52,"velocity":110,"programNumber":29},{"time":180333.30650000737,"duration":244.79166666665697,"noteNumber":59,"velocity":110,"programNumber":29},{"time":180583.30650000737,"duration":244.79166666665697,"noteNumber":52,"velocity":110,"programNumber":29},{"time":180583.30650000737,"duration":244.79166666665697,"noteNumber":59,"velocity":110,"programNumber":29},{"time":180833.30650000737,"duration":244.79166666665697,"noteNumber":48,"velocity":110,"programNumber":29},{"time":180833.30650000737,"duration":244.79166666665697,"noteNumber":55,"velocity":110,"programNumber":29},{"time":181083.30650000737,"duration":119.79166666665697,"noteNumber":48,"velocity":110,"programNumber":29},{"time":181083.30650000737,"duration":119.79166666665697,"noteNumber":55,"velocity":110,"programNumber":29},{"time":181208.30650000737,"duration":119.79166666665697,"noteNumber":48,"velocity":110,"programNumber":29},{"time":181208.30650000737,"duration":119.79166666665697,"noteNumber":55,"velocity":110,"programNumber":29},{"time":181333.30650000737,"duration":244.79166666665697,"noteNumber":48,"velocity":110,"programNumber":29},{"time":181333.30650000737,"duration":244.79166666665697,"noteNumber":55,"velocity":110,"programNumber":29},{"time":181583.30650000737,"duration":119.79166666665697,"noteNumber":48,"velocity":110,"programNumber":29},{"time":181583.30650000737,"duration":119.79166666665697,"noteNumber":55,"velocity":110,"programNumber":29},{"time":181708.30650000737,"duration":119.79166666665697,"noteNumber":48,"velocity":110,"programNumber":29},{"time":181708.30650000737,"duration":119.79166666665697,"noteNumber":55,"velocity":110,"programNumber":29},{"time":181833.30650000737,"duration":244.79166666665697,"noteNumber":48,"velocity":110,"programNumber":29},{"time":181833.30650000737,"duration":244.79166666665697,"noteNumber":55,"velocity":110,"programNumber":29},{"time":182083.30650000737,"duration":119.79166666665697,"noteNumber":48,"velocity":110,"programNumber":29},{"time":182083.30650000737,"duration":119.79166666665697,"noteNumber":55,"velocity":110,"programNumber":29},{"time":182208.30650000737,"duration":119.79166666665697,"noteNumber":48,"velocity":110,"programNumber":29},{"time":182208.30650000737,"duration":119.79166666665697,"noteNumber":55,"velocity":110,"programNumber":29},{"time":182333.30650000737,"duration":244.79166666665697,"noteNumber":48,"velocity":110,"programNumber":29},{"time":182333.30650000737,"duration":244.79166666665697,"noteNumber":55,"velocity":110,"programNumber":29},{"time":182583.30650000737,"duration":244.79166666665697,"noteNumber":48,"velocity":110,"programNumber":29},{"time":182583.30650000737,"duration":244.79166666665697,"noteNumber":55,"velocity":110,"programNumber":29},{"time":182833.30650000737,"duration":244.79166666665697,"noteNumber":50,"velocity":110,"programNumber":29},{"time":182833.30650000737,"duration":244.79166666665697,"noteNumber":57,"velocity":110,"programNumber":29},{"time":183083.30650000737,"duration":119.79166666665697,"noteNumber":50,"velocity":110,"programNumber":29},{"time":183083.30650000737,"duration":119.79166666665697,"noteNumber":57,"velocity":110,"programNumber":29},{"time":183208.30650000737,"duration":119.79166666665697,"noteNumber":50,"velocity":110,"programNumber":29},{"time":183208.30650000737,"duration":119.79166666665697,"noteNumber":57,"velocity":110,"programNumber":29},{"time":183333.30650000737,"duration":244.79166666665697,"noteNumber":50,"velocity":110,"programNumber":29},{"time":183333.30650000737,"duration":244.79166666665697,"noteNumber":57,"velocity":110,"programNumber":29},{"time":183583.30650000737,"duration":119.79166666665697,"noteNumber":50,"velocity":110,"programNumber":29},{"time":183583.30650000737,"duration":119.79166666665697,"noteNumber":57,"velocity":110,"programNumber":29},{"time":183708.30650000737,"duration":119.79166666665697,"noteNumber":50,"velocity":110,"programNumber":29},{"time":183708.30650000737,"duration":119.79166666665697,"noteNumber":57,"velocity":110,"programNumber":29},{"time":183833.30650000737,"duration":244.79166666665697,"noteNumber":50,"velocity":110,"programNumber":29},{"time":183833.30650000737,"duration":244.79166666665697,"noteNumber":57,"velocity":110,"programNumber":29},{"time":184083.30650000737,"duration":121.82189583333093,"noteNumber":50,"velocity":110,"programNumber":29},{"time":184083.30650000737,"duration":121.82189583333093,"noteNumber":57,"velocity":110,"programNumber":29},{"time":184210.61084375737,"duration":130.68168750000768,"noteNumber":50,"velocity":110,"programNumber":29},{"time":184210.61084375737,"duration":130.68168750000768,"noteNumber":57,"velocity":110,"programNumber":29},{"time":184347.18875000736,"duration":287.99005208333256,"noteNumber":50,"velocity":110,"programNumber":29},{"time":184347.18875000736,"duration":287.99005208333256,"noteNumber":57,"velocity":110,"programNumber":29},{"time":184641.55634375737,"duration":312.49957291665487,"noteNumber":50,"velocity":110,"programNumber":29},{"time":184641.55634375737,"duration":312.49957291665487,"noteNumber":57,"velocity":110,"programNumber":29},{"time":184961.00035417403,"duration":341.5695624999935,"noteNumber":52,"velocity":110,"programNumber":29},{"time":184961.00035417403,"duration":341.5695624999935,"noteNumber":59,"velocity":110,"programNumber":29},{"time":185310.19186459068,"duration":184.2946874999907,"noteNumber":52,"velocity":110,"programNumber":29},{"time":185310.19186459068,"duration":184.2946874999907,"noteNumber":59,"velocity":110,"programNumber":29},{"time":185502.93248959066,"duration":205.35693750000792,"noteNumber":52,"velocity":110,"programNumber":29},{"time":185502.93248959066,"duration":205.35693750000792,"noteNumber":59,"velocity":110,"programNumber":29},{"time":185715.91137500733,"duration":376.60218749998603,"noteNumber":52,"velocity":110,"programNumber":29},{"time":185715.91137500733,"duration":376.60218749998603,"noteNumber":59,"velocity":110,"programNumber":29},{"time":186100.9595000073,"duration":205.35693750000792,"noteNumber":52,"velocity":110,"programNumber":29},{"time":186100.9595000073,"duration":205.35693750000792,"noteNumber":59,"velocity":110,"programNumber":29},{"time":186313.93838542397,"duration":184.2946874999907,"noteNumber":52,"velocity":110,"programNumber":29},{"time":186313.93838542397,"duration":184.2946874999907,"noteNumber":59,"velocity":110,"programNumber":29},{"time":186506.67901042395,"duration":199.6526979166665,"noteNumber":55,"velocity":110,"programNumber":29},{"time":186715.2602708406,"duration":171.1307812499872,"noteNumber":54,"velocity":110,"programNumber":29},{"time":186894.01300000725,"duration":367.1875,"noteNumber":52,"velocity":110,"programNumber":29},{"time":187269.21331250726,"duration":189.1445729166735,"noteNumber":55,"velocity":110,"programNumber":29},{"time":187466.80382292392,"duration":199.6526979166665,"noteNumber":54,"velocity":110,"programNumber":29},{"time":187675.38508334057,"duration":171.1307812499872,"noteNumber":52,"velocity":110,"programNumber":29},{"time":187854.13781250722,"duration":179.6875,"noteNumber":50,"velocity":110,"programNumber":29},{"time":188041.83812500723,"duration":396.9590625000128,"noteNumber":52,"velocity":110,"programNumber":29},{"time":188041.83812500723,"duration":396.9590625000128,"noteNumber":59,"velocity":110,"programNumber":29},{"time":188447.72575000723,"duration":205.35693750000792,"noteNumber":52,"velocity":110,"programNumber":29},{"time":188447.72575000723,"duration":205.35693750000792,"noteNumber":59,"velocity":110,"programNumber":29},{"time":188662.01125000723,"duration":205.35693750000792,"noteNumber":52,"velocity":110,"programNumber":29},{"time":188662.01125000723,"duration":205.35693750000792,"noteNumber":59,"velocity":110,"programNumber":29},{"time":188876.29675000723,"duration":419.64243750000605,"noteNumber":52,"velocity":110,"programNumber":29},{"time":188876.29675000723,"duration":419.64243750000605,"noteNumber":59,"velocity":110,"programNumber":29},{"time":189304.86775000722,"duration":205.35693750000792,"noteNumber":52,"velocity":110,"programNumber":29},{"time":189304.86775000722,"duration":205.35693750000792,"noteNumber":59,"velocity":110,"programNumber":29},{"time":189519.15325000722,"duration":205.35693750000792,"noteNumber":52,"velocity":110,"programNumber":29},{"time":189519.15325000722,"duration":205.35693750000792,"noteNumber":59,"velocity":110,"programNumber":29},{"time":189733.43875000722,"duration":419.64243750000605,"noteNumber":52,"velocity":110,"programNumber":29},{"time":189733.43875000722,"duration":419.64243750000605,"noteNumber":59,"velocity":110,"programNumber":29},{"time":190162.00975000722,"duration":205.35693750000792,"noteNumber":52,"velocity":110,"programNumber":29},{"time":190162.00975000722,"duration":205.35693750000792,"noteNumber":59,"velocity":110,"programNumber":29},{"time":190376.2952500072,"duration":205.35693750000792,"noteNumber":52,"velocity":110,"programNumber":29},{"time":190376.2952500072,"duration":205.35693750000792,"noteNumber":59,"velocity":110,"programNumber":29},{"time":190590.5807500072,"duration":419.64243750000605,"noteNumber":52,"velocity":110,"programNumber":29},{"time":190590.5807500072,"duration":419.64243750000605,"noteNumber":59,"velocity":110,"programNumber":29},{"time":191019.1517500072,"duration":419.64243750000605,"noteNumber":52,"velocity":110,"programNumber":29},{"time":191019.1517500072,"duration":419.64243750000605,"noteNumber":59,"velocity":110,"programNumber":29},{"time":191447.7227500072,"duration":419.64243750000605,"noteNumber":48,"velocity":110,"programNumber":29},{"time":191447.7227500072,"duration":419.64243750000605,"noteNumber":55,"velocity":110,"programNumber":29},{"time":191876.2937500072,"duration":205.35693750000792,"noteNumber":48,"velocity":110,"programNumber":29},{"time":191876.2937500072,"duration":205.35693750000792,"noteNumber":55,"velocity":110,"programNumber":29},{"time":192090.5792500072,"duration":205.35693750000792,"noteNumber":48,"velocity":110,"programNumber":29},{"time":192090.5792500072,"duration":205.35693750000792,"noteNumber":55,"velocity":110,"programNumber":29},{"time":192304.8647500072,"duration":419.64243750000605,"noteNumber":48,"velocity":110,"programNumber":29},{"time":192304.8647500072,"duration":419.64243750000605,"noteNumber":55,"velocity":110,"programNumber":29},{"time":192733.4357500072,"duration":205.35693750000792,"noteNumber":48,"velocity":110,"programNumber":29},{"time":192733.4357500072,"duration":205.35693750000792,"noteNumber":55,"velocity":110,"programNumber":29},{"time":192947.7212500072,"duration":205.35693750000792,"noteNumber":48,"velocity":110,"programNumber":29},{"time":192947.7212500072,"duration":205.35693750000792,"noteNumber":55,"velocity":110,"programNumber":29},{"time":193162.0067500072,"duration":419.64243750000605,"noteNumber":48,"velocity":110,"programNumber":29},{"time":193162.0067500072,"duration":419.64243750000605,"noteNumber":55,"velocity":110,"programNumber":29},{"time":193590.57775000719,"duration":205.35693750000792,"noteNumber":48,"velocity":110,"programNumber":29},{"time":193590.57775000719,"duration":205.35693750000792,"noteNumber":55,"velocity":110,"programNumber":29},{"time":193804.86325000718,"duration":205.35693750000792,"noteNumber":48,"velocity":110,"programNumber":29},{"time":193804.86325000718,"duration":205.35693750000792,"noteNumber":55,"velocity":110,"programNumber":29},{"time":194019.14875000718,"duration":419.64243750000605,"noteNumber":48,"velocity":110,"programNumber":29},{"time":194019.14875000718,"duration":419.64243750000605,"noteNumber":55,"velocity":110,"programNumber":29},{"time":194447.71975000718,"duration":419.64243750000605,"noteNumber":48,"velocity":110,"programNumber":29},{"time":194447.71975000718,"duration":419.64243750000605,"noteNumber":55,"velocity":110,"programNumber":29},{"time":194876.29075000717,"duration":419.64243750000605,"noteNumber":50,"velocity":110,"programNumber":29},{"time":194876.29075000717,"duration":419.64243750000605,"noteNumber":57,"velocity":110,"programNumber":29},{"time":195304.86175000717,"duration":205.35693750000792,"noteNumber":50,"velocity":110,"programNumber":29},{"time":195304.86175000717,"duration":205.35693750000792,"noteNumber":57,"velocity":110,"programNumber":29},{"time":195519.14725000717,"duration":205.35693750000792,"noteNumber":50,"velocity":110,"programNumber":29},{"time":195519.14725000717,"duration":205.35693750000792,"noteNumber":57,"velocity":110,"programNumber":29},{"time":195733.43275000717,"duration":419.64243750000605,"noteNumber":50,"velocity":110,"programNumber":29},{"time":195733.43275000717,"duration":419.64243750000605,"noteNumber":57,"velocity":110,"programNumber":29},{"time":196162.00375000716,"duration":205.35693750000792,"noteNumber":50,"velocity":110,"programNumber":29},{"time":196162.00375000716,"duration":205.35693750000792,"noteNumber":57,"velocity":110,"programNumber":29},{"time":196376.28925000716,"duration":205.35693750000792,"noteNumber":50,"velocity":110,"programNumber":29},{"time":196376.28925000716,"duration":205.35693750000792,"noteNumber":57,"velocity":110,"programNumber":29},{"time":196590.57475000716,"duration":419.64243750000605,"noteNumber":50,"velocity":110,"programNumber":29},{"time":196590.57475000716,"duration":419.64243750000605,"noteNumber":57,"velocity":110,"programNumber":29},{"time":197019.14575000716,"duration":205.35693750000792,"noteNumber":50,"velocity":110,"programNumber":29},{"time":197019.14575000716,"duration":205.35693750000792,"noteNumber":57,"velocity":110,"programNumber":29},{"time":197233.43125000715,"duration":205.35693750000792,"noteNumber":50,"velocity":110,"programNumber":29},{"time":197233.43125000715,"duration":205.35693750000792,"noteNumber":57,"velocity":110,"programNumber":29},{"time":197447.71675000715,"duration":419.64243750000605,"noteNumber":50,"velocity":110,"programNumber":29},{"time":197447.71675000715,"duration":419.64243750000605,"noteNumber":57,"velocity":110,"programNumber":29},{"time":197876.28775000715,"duration":419.64243750000605,"noteNumber":50,"velocity":110,"programNumber":29},{"time":197876.28775000715,"duration":419.64243750000605,"noteNumber":57,"velocity":110,"programNumber":29},{"time":198304.85875000714,"duration":419.64243750000605,"noteNumber":52,"velocity":110,"programNumber":29},{"time":198304.85875000714,"duration":419.64243750000605,"noteNumber":59,"velocity":110,"programNumber":29},{"time":198733.42975000714,"duration":205.35693750000792,"noteNumber":52,"velocity":110,"programNumber":29},{"time":198733.42975000714,"duration":205.35693750000792,"noteNumber":59,"velocity":110,"programNumber":29},{"time":198947.71525000714,"duration":205.35693750000792,"noteNumber":52,"velocity":110,"programNumber":29},{"time":198947.71525000714,"duration":205.35693750000792,"noteNumber":59,"velocity":110,"programNumber":29},{"time":199162.00075000714,"duration":419.64243750000605,"noteNumber":52,"velocity":110,"programNumber":29},{"time":199162.00075000714,"duration":419.64243750000605,"noteNumber":59,"velocity":110,"programNumber":29},{"time":199590.57175000713,"duration":205.35693750000792,"noteNumber":52,"velocity":110,"programNumber":29},{"time":199590.57175000713,"duration":205.35693750000792,"noteNumber":59,"velocity":110,"programNumber":29},{"time":199804.85725000713,"duration":205.35693750000792,"noteNumber":52,"velocity":110,"programNumber":29},{"time":199804.85725000713,"duration":205.35693750000792,"noteNumber":59,"velocity":110,"programNumber":29},{"time":200019.14275000713,"duration":205.35693750000792,"noteNumber":55,"velocity":110,"programNumber":29},{"time":200233.42825000713,"duration":205.35693750000792,"noteNumber":54,"velocity":110,"programNumber":29},{"time":200447.71375000713,"duration":419.64243750000605,"noteNumber":52,"velocity":110,"programNumber":29},{"time":200876.28475000712,"duration":205.35693750000792,"noteNumber":55,"velocity":110,"programNumber":29},{"time":201090.57025000712,"duration":205.35693750000792,"noteNumber":54,"velocity":110,"programNumber":29},{"time":201304.85575000712,"duration":205.35693750000792,"noteNumber":52,"velocity":110,"programNumber":29},{"time":201519.14125000712,"duration":205.35693750000792,"noteNumber":50,"velocity":110,"programNumber":29},{"time":201733.42675000711,"duration":419.64243750000605,"noteNumber":52,"velocity":110,"programNumber":29},{"time":201733.42675000711,"duration":419.64243750000605,"noteNumber":59,"velocity":110,"programNumber":29},{"time":202161.9977500071,"duration":205.35693750000792,"noteNumber":52,"velocity":110,"programNumber":29},{"time":202161.9977500071,"duration":205.35693750000792,"noteNumber":59,"velocity":110,"programNumber":29},{"time":202376.2832500071,"duration":205.35693750000792,"noteNumber":52,"velocity":110,"programNumber":29},{"time":202376.2832500071,"duration":205.35693750000792,"noteNumber":59,"velocity":110,"programNumber":29},{"time":202590.5687500071,"duration":419.64243750000605,"noteNumber":52,"velocity":110,"programNumber":29},{"time":202590.5687500071,"duration":419.64243750000605,"noteNumber":59,"velocity":110,"programNumber":29},{"time":203019.1397500071,"duration":205.35693750000792,"noteNumber":52,"velocity":110,"programNumber":29},{"time":203019.1397500071,"duration":205.35693750000792,"noteNumber":59,"velocity":110,"programNumber":29},{"time":203233.4252500071,"duration":205.35693750000792,"noteNumber":52,"velocity":110,"programNumber":29},{"time":203233.4252500071,"duration":205.35693750000792,"noteNumber":59,"velocity":110,"programNumber":29},{"time":203447.7107500071,"duration":419.64243750000605,"noteNumber":52,"velocity":110,"programNumber":29},{"time":203447.7107500071,"duration":419.64243750000605,"noteNumber":59,"velocity":110,"programNumber":29},{"time":203876.2817500071,"duration":205.35693750000792,"noteNumber":52,"velocity":110,"programNumber":29},{"time":203876.2817500071,"duration":205.35693750000792,"noteNumber":59,"velocity":110,"programNumber":29},{"time":204090.5672500071,"duration":205.35693750000792,"noteNumber":52,"velocity":110,"programNumber":29},{"time":204090.5672500071,"duration":205.35693750000792,"noteNumber":59,"velocity":110,"programNumber":29},{"time":204304.8527500071,"duration":419.64243750000605,"noteNumber":52,"velocity":110,"programNumber":29},{"time":204304.8527500071,"duration":419.64243750000605,"noteNumber":59,"velocity":110,"programNumber":29},{"time":204733.4237500071,"duration":419.64243750000605,"noteNumber":52,"velocity":110,"programNumber":29},{"time":204733.4237500071,"duration":419.64243750000605,"noteNumber":59,"velocity":110,"programNumber":29},{"time":205161.99475000708,"duration":419.64243750000605,"noteNumber":48,"velocity":110,"programNumber":29},{"time":205161.99475000708,"duration":419.64243750000605,"noteNumber":55,"velocity":110,"programNumber":29},{"time":205590.56575000708,"duration":205.35693750000792,"noteNumber":48,"velocity":110,"programNumber":29},{"time":205590.56575000708,"duration":205.35693750000792,"noteNumber":55,"velocity":110,"programNumber":29},{"time":205804.85125000708,"duration":205.35693750000792,"noteNumber":48,"velocity":110,"programNumber":29},{"time":205804.85125000708,"duration":205.35693750000792,"noteNumber":55,"velocity":110,"programNumber":29},{"time":206019.13675000708,"duration":419.64243750000605,"noteNumber":48,"velocity":110,"programNumber":29},{"time":206019.13675000708,"duration":419.64243750000605,"noteNumber":55,"velocity":110,"programNumber":29},{"time":206447.70775000707,"duration":205.35693750000792,"noteNumber":48,"velocity":110,"programNumber":29},{"time":206447.70775000707,"duration":205.35693750000792,"noteNumber":55,"velocity":110,"programNumber":29},{"time":206661.99325000707,"duration":205.35693750000792,"noteNumber":48,"velocity":110,"programNumber":29},{"time":206661.99325000707,"duration":205.35693750000792,"noteNumber":55,"velocity":110,"programNumber":29},{"time":206876.27875000707,"duration":419.64243750000605,"noteNumber":48,"velocity":110,"programNumber":29},{"time":206876.27875000707,"duration":419.64243750000605,"noteNumber":55,"velocity":110,"programNumber":29},{"time":207304.84975000707,"duration":205.35693750000792,"noteNumber":48,"velocity":110,"programNumber":29},{"time":207304.84975000707,"duration":205.35693750000792,"noteNumber":55,"velocity":110,"programNumber":29},{"time":207519.13525000706,"duration":205.35693750000792,"noteNumber":48,"velocity":110,"programNumber":29},{"time":207519.13525000706,"duration":205.35693750000792,"noteNumber":55,"velocity":110,"programNumber":29},{"time":207733.42075000706,"duration":419.64243750000605,"noteNumber":48,"velocity":110,"programNumber":29},{"time":207733.42075000706,"duration":419.64243750000605,"noteNumber":55,"velocity":110,"programNumber":29},{"time":208161.99175000706,"duration":419.64243750000605,"noteNumber":48,"velocity":110,"programNumber":29},{"time":208161.99175000706,"duration":419.64243750000605,"noteNumber":55,"velocity":110,"programNumber":29},{"time":208590.56275000706,"duration":419.64243750000605,"noteNumber":50,"velocity":110,"programNumber":29},{"time":208590.56275000706,"duration":419.64243750000605,"noteNumber":57,"velocity":110,"programNumber":29},{"time":209019.13375000705,"duration":205.35693750000792,"noteNumber":50,"velocity":110,"programNumber":29},{"time":209019.13375000705,"duration":205.35693750000792,"noteNumber":57,"velocity":110,"programNumber":29},{"time":209233.41925000705,"duration":205.35693750000792,"noteNumber":50,"velocity":110,"programNumber":29},{"time":209233.41925000705,"duration":205.35693750000792,"noteNumber":57,"velocity":110,"programNumber":29},{"time":209447.70475000705,"duration":419.64243750000605,"noteNumber":50,"velocity":110,"programNumber":29},{"time":209447.70475000705,"duration":419.64243750000605,"noteNumber":57,"velocity":110,"programNumber":29},{"time":209876.27575000704,"duration":205.35693750000792,"noteNumber":50,"velocity":110,"programNumber":29},{"time":209876.27575000704,"duration":205.35693750000792,"noteNumber":57,"velocity":110,"programNumber":29},{"time":210090.56125000704,"duration":205.35693750000792,"noteNumber":50,"velocity":110,"programNumber":29},{"time":210090.56125000704,"duration":205.35693750000792,"noteNumber":57,"velocity":110,"programNumber":29},{"time":210304.84675000704,"duration":419.64243750000605,"noteNumber":50,"velocity":110,"programNumber":29},{"time":210304.84675000704,"duration":419.64243750000605,"noteNumber":57,"velocity":110,"programNumber":29},{"time":210733.41775000704,"duration":205.35693750000792,"noteNumber":50,"velocity":110,"programNumber":29},{"time":210733.41775000704,"duration":205.35693750000792,"noteNumber":57,"velocity":110,"programNumber":29},{"time":210947.70325000703,"duration":205.35693750000792,"noteNumber":50,"velocity":110,"programNumber":29},{"time":210947.70325000703,"duration":205.35693750000792,"noteNumber":57,"velocity":110,"programNumber":29},{"time":211161.98875000703,"duration":419.64243750000605,"noteNumber":50,"velocity":110,"programNumber":29},{"time":211161.98875000703,"duration":419.64243750000605,"noteNumber":57,"velocity":110,"programNumber":29},{"time":211590.55975000703,"duration":419.64243750000605,"noteNumber":50,"velocity":110,"programNumber":29},{"time":211590.55975000703,"duration":419.64243750000605,"noteNumber":57,"velocity":110,"programNumber":29},{"time":212019.13075000703,"duration":419.64243750000605,"noteNumber":52,"velocity":110,"programNumber":29},{"time":212019.13075000703,"duration":419.64243750000605,"noteNumber":59,"velocity":110,"programNumber":29},{"time":212447.70175000702,"duration":205.35693750000792,"noteNumber":52,"velocity":110,"programNumber":29},{"time":212447.70175000702,"duration":205.35693750000792,"noteNumber":59,"velocity":110,"programNumber":29},{"time":212661.98725000702,"duration":205.35693750000792,"noteNumber":52,"velocity":110,"programNumber":29},{"time":212661.98725000702,"duration":205.35693750000792,"noteNumber":59,"velocity":110,"programNumber":29},{"time":212876.27275000702,"duration":419.64243750000605,"noteNumber":52,"velocity":110,"programNumber":29},{"time":212876.27275000702,"duration":419.64243750000605,"noteNumber":59,"velocity":110,"programNumber":29},{"time":213304.843750007,"duration":205.35693750000792,"noteNumber":52,"velocity":110,"programNumber":29},{"time":213304.843750007,"duration":205.35693750000792,"noteNumber":59,"velocity":110,"programNumber":29},{"time":213519.129250007,"duration":205.35693750000792,"noteNumber":52,"velocity":110,"programNumber":29},{"time":213519.129250007,"duration":205.35693750000792,"noteNumber":59,"velocity":110,"programNumber":29},{"time":213733.414750007,"duration":205.35693750000792,"noteNumber":55,"velocity":110,"programNumber":29},{"time":213947.700250007,"duration":205.35693750000792,"noteNumber":54,"velocity":110,"programNumber":29},{"time":214161.985750007,"duration":419.64243750000605,"noteNumber":52,"velocity":110,"programNumber":29},{"time":214590.556750007,"duration":205.35693750000792,"noteNumber":55,"velocity":110,"programNumber":29},{"time":214804.842250007,"duration":205.35693750000792,"noteNumber":54,"velocity":110,"programNumber":29},{"time":215019.127750007,"duration":205.35693750000792,"noteNumber":52,"velocity":110,"programNumber":29},{"time":215233.413250007,"duration":205.35693750000792,"noteNumber":50,"velocity":110,"programNumber":29},{"time":215447.698750007,"duration":419.64243750000605,"noteNumber":52,"velocity":110,"programNumber":29},{"time":215447.698750007,"duration":419.64243750000605,"noteNumber":59,"velocity":110,"programNumber":29},{"time":215876.269750007,"duration":205.35693750000792,"noteNumber":52,"velocity":110,"programNumber":29},{"time":215876.269750007,"duration":205.35693750000792,"noteNumber":59,"velocity":110,"programNumber":29},{"time":216090.555250007,"duration":205.35693750000792,"noteNumber":52,"velocity":110,"programNumber":29},{"time":216090.555250007,"duration":205.35693750000792,"noteNumber":59,"velocity":110,"programNumber":29},{"time":216304.840750007,"duration":419.64243750000605,"noteNumber":52,"velocity":110,"programNumber":29},{"time":216304.840750007,"duration":419.64243750000605,"noteNumber":59,"velocity":110,"programNumber":29},{"time":216733.41175000698,"duration":205.35693750000792,"noteNumber":52,"velocity":110,"programNumber":29},{"time":216733.41175000698,"duration":205.35693750000792,"noteNumber":59,"velocity":110,"programNumber":29},{"time":216947.69725000698,"duration":205.35693750000792,"noteNumber":52,"velocity":110,"programNumber":29},{"time":216947.69725000698,"duration":205.35693750000792,"noteNumber":59,"velocity":110,"programNumber":29},{"time":217161.98275000698,"duration":419.64243750000605,"noteNumber":52,"velocity":110,"programNumber":29},{"time":217161.98275000698,"duration":419.64243750000605,"noteNumber":59,"velocity":110,"programNumber":29},{"time":217590.55375000698,"duration":205.35693750000792,"noteNumber":52,"velocity":110,"programNumber":29},{"time":217590.55375000698,"duration":205.35693750000792,"noteNumber":59,"velocity":110,"programNumber":29},{"time":217804.83925000697,"duration":205.35693750000792,"noteNumber":52,"velocity":110,"programNumber":29},{"time":217804.83925000697,"duration":205.35693750000792,"noteNumber":59,"velocity":110,"programNumber":29},{"time":218019.12475000697,"duration":419.64243750000605,"noteNumber":52,"velocity":110,"programNumber":29},{"time":218019.12475000697,"duration":419.64243750000605,"noteNumber":59,"velocity":110,"programNumber":29},{"time":218447.69575000697,"duration":419.64243750000605,"noteNumber":52,"velocity":110,"programNumber":29},{"time":218447.69575000697,"duration":419.64243750000605,"noteNumber":59,"velocity":110,"programNumber":29},{"time":218876.26675000697,"duration":419.64243750000605,"noteNumber":48,"velocity":110,"programNumber":29},{"time":218876.26675000697,"duration":419.64243750000605,"noteNumber":55,"velocity":110,"programNumber":29},{"time":219304.83775000696,"duration":205.35693750000792,"noteNumber":48,"velocity":110,"programNumber":29},{"time":219304.83775000696,"duration":205.35693750000792,"noteNumber":55,"velocity":110,"programNumber":29},{"time":219519.12325000696,"duration":205.35693750000792,"noteNumber":48,"velocity":110,"programNumber":29},{"time":219519.12325000696,"duration":205.35693750000792,"noteNumber":55,"velocity":110,"programNumber":29},{"time":219733.40875000696,"duration":419.64243750000605,"noteNumber":48,"velocity":110,"programNumber":29},{"time":219733.40875000696,"duration":419.64243750000605,"noteNumber":55,"velocity":110,"programNumber":29},{"time":220161.97975000695,"duration":205.35693750000792,"noteNumber":48,"velocity":110,"programNumber":29},{"time":220161.97975000695,"duration":205.35693750000792,"noteNumber":55,"velocity":110,"programNumber":29},{"time":220376.26525000695,"duration":205.35693750000792,"noteNumber":48,"velocity":110,"programNumber":29},{"time":220376.26525000695,"duration":205.35693750000792,"noteNumber":55,"velocity":110,"programNumber":29},{"time":220590.55075000695,"duration":419.64243750000605,"noteNumber":48,"velocity":110,"programNumber":29},{"time":220590.55075000695,"duration":419.64243750000605,"noteNumber":55,"velocity":110,"programNumber":29},{"time":221019.12175000695,"duration":205.35693750000792,"noteNumber":48,"velocity":110,"programNumber":29},{"time":221019.12175000695,"duration":205.35693750000792,"noteNumber":55,"velocity":110,"programNumber":29},{"time":221233.40725000695,"duration":205.35693750000792,"noteNumber":48,"velocity":110,"programNumber":29},{"time":221233.40725000695,"duration":205.35693750000792,"noteNumber":55,"velocity":110,"programNumber":29},{"time":221447.69275000694,"duration":419.64243750000605,"noteNumber":48,"velocity":110,"programNumber":29},{"time":221447.69275000694,"duration":419.64243750000605,"noteNumber":55,"velocity":110,"programNumber":29},{"time":221876.26375000694,"duration":419.64243750000605,"noteNumber":48,"velocity":110,"programNumber":29},{"time":221876.26375000694,"duration":419.64243750000605,"noteNumber":55,"velocity":110,"programNumber":29},{"time":222304.83475000694,"duration":419.64243750000605,"noteNumber":50,"velocity":110,"programNumber":29},{"time":222304.83475000694,"duration":419.64243750000605,"noteNumber":57,"velocity":110,"programNumber":29},{"time":222733.40575000693,"duration":205.35693750000792,"noteNumber":50,"velocity":110,"programNumber":29},{"time":222733.40575000693,"duration":205.35693750000792,"noteNumber":57,"velocity":110,"programNumber":29},{"time":222947.69125000693,"duration":205.35693750000792,"noteNumber":50,"velocity":110,"programNumber":29},{"time":222947.69125000693,"duration":205.35693750000792,"noteNumber":57,"velocity":110,"programNumber":29},{"time":223161.97675000693,"duration":419.64243750000605,"noteNumber":50,"velocity":110,"programNumber":29},{"time":223161.97675000693,"duration":419.64243750000605,"noteNumber":57,"velocity":110,"programNumber":29},{"time":223590.54775000692,"duration":205.35693750000792,"noteNumber":50,"velocity":110,"programNumber":29},{"time":223590.54775000692,"duration":205.35693750000792,"noteNumber":57,"velocity":110,"programNumber":29},{"time":223804.83325000692,"duration":205.35693750000792,"noteNumber":50,"velocity":110,"programNumber":29},{"time":223804.83325000692,"duration":205.35693750000792,"noteNumber":57,"velocity":110,"programNumber":29},{"time":224019.11875000692,"duration":419.64243750000605,"noteNumber":50,"velocity":110,"programNumber":29},{"time":224019.11875000692,"duration":419.64243750000605,"noteNumber":57,"velocity":110,"programNumber":29},{"time":224447.68975000692,"duration":205.35693750000792,"noteNumber":50,"velocity":110,"programNumber":29},{"time":224447.68975000692,"duration":205.35693750000792,"noteNumber":57,"velocity":110,"programNumber":29},{"time":224661.97525000692,"duration":205.35693750000792,"noteNumber":50,"velocity":110,"programNumber":29},{"time":224661.97525000692,"duration":205.35693750000792,"noteNumber":57,"velocity":110,"programNumber":29},{"time":224876.2607500069,"duration":419.64243750000605,"noteNumber":50,"velocity":110,"programNumber":29},{"time":224876.2607500069,"duration":419.64243750000605,"noteNumber":57,"velocity":110,"programNumber":29},{"time":225304.8317500069,"duration":419.64243750000605,"noteNumber":50,"velocity":110,"programNumber":29},{"time":225304.8317500069,"duration":419.64243750000605,"noteNumber":57,"velocity":110,"programNumber":29},{"time":225733.4027500069,"duration":419.64243750000605,"noteNumber":52,"velocity":110,"programNumber":29},{"time":225733.4027500069,"duration":419.64243750000605,"noteNumber":59,"velocity":110,"programNumber":29},{"time":226161.9737500069,"duration":205.35693750000792,"noteNumber":52,"velocity":110,"programNumber":29},{"time":226161.9737500069,"duration":205.35693750000792,"noteNumber":59,"velocity":110,"programNumber":29},{"time":226376.2592500069,"duration":205.35693750000792,"noteNumber":52,"velocity":110,"programNumber":29},{"time":226376.2592500069,"duration":205.35693750000792,"noteNumber":59,"velocity":110,"programNumber":29},{"time":226590.5447500069,"duration":419.64243750000605,"noteNumber":52,"velocity":110,"programNumber":29},{"time":226590.5447500069,"duration":419.64243750000605,"noteNumber":59,"velocity":110,"programNumber":29},{"time":227019.1157500069,"duration":205.35693750000792,"noteNumber":52,"velocity":110,"programNumber":29},{"time":227019.1157500069,"duration":205.35693750000792,"noteNumber":59,"velocity":110,"programNumber":29},{"time":227233.4012500069,"duration":205.35693750000792,"noteNumber":52,"velocity":110,"programNumber":29},{"time":227233.4012500069,"duration":205.35693750000792,"noteNumber":59,"velocity":110,"programNumber":29},{"time":227447.6867500069,"duration":205.35693750000792,"noteNumber":55,"velocity":110,"programNumber":29},{"time":227661.9722500069,"duration":205.35693750000792,"noteNumber":54,"velocity":110,"programNumber":29},{"time":227876.2577500069,"duration":419.64243750000605,"noteNumber":52,"velocity":110,"programNumber":29},{"time":228304.82875000688,"duration":205.35693750000792,"noteNumber":55,"velocity":110,"programNumber":29},{"time":228519.11425000688,"duration":205.35693750000792,"noteNumber":54,"velocity":110,"programNumber":29},{"time":228733.39975000688,"duration":205.35693750000792,"noteNumber":52,"velocity":110,"programNumber":29},{"time":228947.68525000688,"duration":205.35693750000792,"noteNumber":50,"velocity":110,"programNumber":29},{"time":229161.97075000688,"duration":1062.4989375000005,"noteNumber":52,"velocity":110,"programNumber":29},{"time":230233.39825000687,"duration":205.35693750000792,"noteNumber":52,"velocity":110,"programNumber":29},{"time":230447.68375000687,"duration":205.35693750000792,"noteNumber":54,"velocity":110,"programNumber":29},{"time":230661.96925000686,"duration":205.35693750000792,"noteNumber":55,"velocity":110,"programNumber":29},{"time":230876.25475000686,"duration":1062.4989375000005,"noteNumber":59,"velocity":110,"programNumber":29},{"time":231947.68225000685,"duration":205.35693750000792,"noteNumber":59,"velocity":110,"programNumber":29},{"time":232161.96775000685,"duration":205.35693750000792,"noteNumber":55,"velocity":110,"programNumber":29},{"time":232376.25325000685,"duration":205.35693750000792,"noteNumber":54,"velocity":110,"programNumber":29},{"time":232590.53875000685,"duration":419.64243750000605,"noteNumber":52,"velocity":110,"programNumber":29},{"time":233019.10975000684,"duration":205.35693750000792,"noteNumber":54,"velocity":110,"programNumber":29},{"time":233233.39525000684,"duration":205.35693750000792,"noteNumber":55,"velocity":110,"programNumber":29},{"time":233447.68075000684,"duration":419.64243750000605,"noteNumber":59,"velocity":110,"programNumber":29},{"time":233876.25175000684,"duration":205.35693750000792,"noteNumber":55,"velocity":110,"programNumber":29},{"time":234090.53725000683,"duration":205.35693750000792,"noteNumber":54,"velocity":110,"programNumber":29},{"time":234304.82275000683,"duration":419.64243750000605,"noteNumber":52,"velocity":110,"programNumber":29},{"time":234733.39375000683,"duration":205.35693750000792,"noteNumber":54,"velocity":110,"programNumber":29},{"time":234947.67925000683,"duration":205.35693750000792,"noteNumber":55,"velocity":110,"programNumber":29},{"time":235161.96475000682,"duration":205.35693750000792,"noteNumber":59,"velocity":110,"programNumber":29},{"time":235376.25025000682,"duration":205.35693750000792,"noteNumber":55,"velocity":110,"programNumber":29},{"time":235590.53575000682,"duration":419.64243750000605,"noteNumber":54,"velocity":110,"programNumber":29},{"time":236019.10675000682,"duration":1062.4989375000005,"noteNumber":52,"velocity":110,"programNumber":29},{"time":237090.5342500068,"duration":205.35693750000792,"noteNumber":52,"velocity":110,"programNumber":29},{"time":237304.8197500068,"duration":205.35693750000792,"noteNumber":54,"velocity":110,"programNumber":29},{"time":237519.1052500068,"duration":205.35693750000792,"noteNumber":55,"velocity":110,"programNumber":29},{"time":237733.3907500068,"duration":1062.4989375000005,"noteNumber":59,"velocity":110,"programNumber":29},{"time":238804.8182500068,"duration":205.35693750000792,"noteNumber":59,"velocity":110,"programNumber":29},{"time":239019.1037500068,"duration":205.35693750000792,"noteNumber":55,"velocity":110,"programNumber":29},{"time":239233.3892500068,"duration":205.35693750000792,"noteNumber":54,"velocity":110,"programNumber":29},{"time":239447.6747500068,"duration":419.64243750000605,"noteNumber":52,"velocity":110,"programNumber":29},{"time":239876.24575000678,"duration":205.35693750000792,"noteNumber":54,"velocity":110,"programNumber":29},{"time":240090.53125000678,"duration":205.35693750000792,"noteNumber":55,"velocity":110,"programNumber":29},{"time":240304.81675000678,"duration":419.64243750000605,"noteNumber":59,"velocity":110,"programNumber":29},{"time":240733.38775000678,"duration":205.35693750000792,"noteNumber":55,"velocity":110,"programNumber":29},{"time":240947.67325000677,"duration":205.35693750000792,"noteNumber":54,"velocity":110,"programNumber":29},{"time":241161.95875000677,"duration":419.64243750000605,"noteNumber":52,"velocity":110,"programNumber":29},{"time":241590.52975000677,"duration":205.35693750000792,"noteNumber":54,"velocity":110,"programNumber":29},{"time":241804.81525000677,"duration":205.35693750000792,"noteNumber":55,"velocity":110,"programNumber":29},{"time":242019.10075000676,"duration":205.35693750000792,"noteNumber":59,"velocity":110,"programNumber":29},{"time":242233.38625000676,"duration":205.35693750000792,"noteNumber":55,"velocity":110,"programNumber":29},{"time":242447.67175000676,"duration":419.64243750000605,"noteNumber":54,"velocity":110,"programNumber":29},{"time":242876.24275000676,"duration":1062.4989375000005,"noteNumber":52,"velocity":110,"programNumber":29},{"time":243947.67025000675,"duration":205.35693750000792,"noteNumber":52,"velocity":110,"programNumber":29},{"time":244161.95575000675,"duration":205.35693750000792,"noteNumber":54,"velocity":110,"programNumber":29},{"time":244376.24125000674,"duration":205.35693750000792,"noteNumber":55,"velocity":110,"programNumber":29},{"time":244590.52675000674,"duration":1062.4989375000005,"noteNumber":59,"velocity":110,"programNumber":29},{"time":245661.95425000673,"duration":205.35693750000792,"noteNumber":59,"velocity":110,"programNumber":29},{"time":245876.23975000673,"duration":205.35693750000792,"noteNumber":55,"velocity":110,"programNumber":29},{"time":246090.52525000673,"duration":205.35693750000792,"noteNumber":54,"velocity":110,"programNumber":29},{"time":246304.81075000673,"duration":419.64243750000605,"noteNumber":52,"velocity":110,"programNumber":29},{"time":246733.38175000672,"duration":205.35693750000792,"noteNumber":54,"velocity":110,"programNumber":29},{"time":246947.66725000672,"duration":205.35693750000792,"noteNumber":55,"velocity":110,"programNumber":29},{"time":247161.95275000672,"duration":419.64243750000605,"noteNumber":59,"velocity":110,"programNumber":29},{"time":247590.52375000672,"duration":205.35693750000792,"noteNumber":55,"velocity":110,"programNumber":29},{"time":247804.8092500067,"duration":205.35693750000792,"noteNumber":54,"velocity":110,"programNumber":29},{"time":248019.0947500067,"duration":419.64243750000605,"noteNumber":52,"velocity":110,"programNumber":29},{"time":248447.6657500067,"duration":205.35693750000792,"noteNumber":54,"velocity":110,"programNumber":29},{"time":248661.9512500067,"duration":205.35693750000792,"noteNumber":55,"velocity":110,"programNumber":29},{"time":248876.2367500067,"duration":205.35693750000792,"noteNumber":59,"velocity":110,"programNumber":29},{"time":249090.5222500067,"duration":205.35693750000792,"noteNumber":55,"velocity":110,"programNumber":29},{"time":249304.8077500067,"duration":419.64243750000605,"noteNumber":54,"velocity":110,"programNumber":29},{"time":249733.3787500067,"duration":1062.4989375000005,"noteNumber":52,"velocity":110,"programNumber":29},{"time":250804.8062500067,"duration":205.35693750000792,"noteNumber":52,"velocity":110,"programNumber":29},{"time":251019.0917500067,"duration":205.35693750000792,"noteNumber":54,"velocity":110,"programNumber":29},{"time":251233.37725000668,"duration":205.35693750000792,"noteNumber":55,"velocity":110,"programNumber":29},{"time":251447.66275000668,"duration":1062.4989375000005,"noteNumber":59,"velocity":110,"programNumber":29},{"time":252519.09025000667,"duration":205.35693750000792,"noteNumber":59,"velocity":110,"programNumber":29},{"time":252733.37575000667,"duration":205.35693750000792,"noteNumber":55,"velocity":110,"programNumber":29},{"time":252947.66125000667,"duration":205.35693750000792,"noteNumber":54,"velocity":110,"programNumber":29},{"time":253161.94675000667,"duration":419.64243750000605,"noteNumber":52,"velocity":110,"programNumber":29},{"time":253590.51775000666,"duration":205.35693750000792,"noteNumber":54,"velocity":110,"programNumber":29},{"time":253804.80325000666,"duration":205.35693750000792,"noteNumber":55,"velocity":110,"programNumber":29},{"time":254019.08875000666,"duration":419.64243750000605,"noteNumber":59,"velocity":110,"programNumber":29},{"time":254447.65975000666,"duration":205.35693750000792,"noteNumber":55,"velocity":110,"programNumber":29},{"time":254661.94525000665,"duration":205.35693750000792,"noteNumber":54,"velocity":110,"programNumber":29},{"time":254876.23075000665,"duration":419.64243750000605,"noteNumber":52,"velocity":110,"programNumber":29},{"time":255304.80175000665,"duration":205.35693750000792,"noteNumber":54,"velocity":110,"programNumber":29},{"time":255519.08725000665,"duration":205.35693750000792,"noteNumber":55,"velocity":110,"programNumber":29},{"time":255733.37275000665,"duration":205.35693750000792,"noteNumber":59,"velocity":110,"programNumber":29},{"time":255947.65825000664,"duration":205.35693750000792,"noteNumber":55,"velocity":110,"programNumber":29},{"time":256161.94375000664,"duration":419.64243750000605,"noteNumber":54,"velocity":110,"programNumber":29},{"time":256590.51475000664,"duration":419.64243750000605,"noteNumber":64,"velocity":110,"programNumber":29},{"time":257019.08575000663,"duration":419.64243750000605,"noteNumber":71,"velocity":110,"programNumber":29},{"time":257447.65675000663,"duration":419.64243750000605,"noteNumber":66,"velocity":110,"programNumber":29},{"time":257876.22775000663,"duration":419.64243750000605,"noteNumber":67,"velocity":110,"programNumber":29},{"time":258304.79875000662,"duration":419.64243750000605,"noteNumber":64,"velocity":110,"programNumber":29},{"time":258733.36975000662,"duration":419.64243750000605,"noteNumber":71,"velocity":110,"programNumber":29},{"time":259161.94075000662,"duration":419.64243750000605,"noteNumber":66,"velocity":110,"programNumber":29},{"time":259590.5117500066,"duration":419.64243750000605,"noteNumber":67,"velocity":110,"programNumber":29},{"time":260019.0827500066,"duration":419.64243750000605,"noteNumber":64,"velocity":110,"programNumber":29},{"time":260447.6537500066,"duration":419.64243750000605,"noteNumber":71,"velocity":110,"programNumber":29},{"time":260876.2247500066,"duration":419.64243750000605,"noteNumber":66,"velocity":110,"programNumber":29},{"time":261304.7957500066,"duration":419.64243750000605,"noteNumber":67,"velocity":110,"programNumber":29},{"time":261733.3667500066,"duration":419.64243749997695,"noteNumber":64,"velocity":110,"programNumber":29},{"time":262161.93775000656,"duration":419.64243750000605,"noteNumber":71,"velocity":110,"programNumber":29},{"time":262590.50875000656,"duration":419.64243750000605,"noteNumber":66,"velocity":110,"programNumber":29},{"time":263019.07975000655,"duration":419.64243750000605,"noteNumber":67,"velocity":110,"programNumber":29},{"time":263447.65075000655,"duration":419.64243750000605,"noteNumber":64,"velocity":110,"programNumber":29},{"time":263876.22175000655,"duration":419.64243750000605,"noteNumber":71,"velocity":110,"programNumber":29},{"time":264304.79275000654,"duration":419.64243750000605,"noteNumber":66,"velocity":110,"programNumber":29},{"time":264733.36375000654,"duration":419.64243750000605,"noteNumber":67,"velocity":110,"programNumber":29},{"time":265161.93475000653,"duration":419.64243750000605,"noteNumber":64,"velocity":110,"programNumber":29},{"time":265590.50575000653,"duration":419.64243750000605,"noteNumber":71,"velocity":110,"programNumber":29},{"time":266019.0767500065,"duration":419.64243750000605,"noteNumber":66,"velocity":110,"programNumber":29},{"time":266447.6477500065,"duration":419.64243750000605,"noteNumber":67,"velocity":110,"programNumber":29},{"time":266876.2187500065,"duration":419.64243750000605,"noteNumber":64,"velocity":110,"programNumber":29},{"time":267304.7897500065,"duration":419.64243750000605,"noteNumber":71,"velocity":110,"programNumber":29},{"time":267733.3607500065,"duration":419.64243750000605,"noteNumber":66,"velocity":110,"programNumber":29},{"time":268161.9317500065,"duration":419.64243750000605,"noteNumber":67,"velocity":110,"programNumber":29},{"time":268590.5027500065,"duration":419.64243750000605,"noteNumber":64,"velocity":110,"programNumber":29},{"time":269019.0737500065,"duration":419.64243750000605,"noteNumber":71,"velocity":110,"programNumber":29},{"time":269447.6447500065,"duration":419.64243750000605,"noteNumber":66,"velocity":110,"programNumber":29},{"time":269876.2157500065,"duration":419.64243750000605,"noteNumber":67,"velocity":110,"programNumber":29},{"time":270304.7867500065,"duration":419.64243750000605,"noteNumber":64,"velocity":110,"programNumber":29},{"time":270733.3577500065,"duration":419.64243750000605,"noteNumber":71,"velocity":110,"programNumber":29},{"time":271161.9287500065,"duration":419.64243750000605,"noteNumber":66,"velocity":110,"programNumber":29},{"time":271590.4997500065,"duration":419.64243750000605,"noteNumber":67,"velocity":110,"programNumber":29},{"time":272019.0707500065,"duration":419.64243750000605,"noteNumber":64,"velocity":110,"programNumber":29},{"time":272447.64175000647,"duration":419.64243750000605,"noteNumber":71,"velocity":110,"programNumber":29},{"time":272876.21275000647,"duration":419.64243750000605,"noteNumber":66,"velocity":110,"programNumber":29},{"time":273304.78375000646,"duration":419.64243750000605,"noteNumber":67,"velocity":110,"programNumber":29},{"time":273733.35475000646,"duration":419.64243750000605,"noteNumber":64,"velocity":110,"programNumber":29},{"time":274161.92575000646,"duration":419.64243750000605,"noteNumber":71,"velocity":110,"programNumber":29},{"time":274590.49675000645,"duration":419.64243750000605,"noteNumber":66,"velocity":110,"programNumber":29},{"time":275019.06775000645,"duration":419.64243750000605,"noteNumber":67,"velocity":110,"programNumber":29},{"time":275447.63875000644,"duration":419.64243750000605,"noteNumber":64,"velocity":110,"programNumber":29},{"time":275876.20975000644,"duration":419.64243750000605,"noteNumber":71,"velocity":110,"programNumber":29},{"time":276304.78075000644,"duration":419.64243750000605,"noteNumber":66,"velocity":110,"programNumber":29},{"time":276733.35175000643,"duration":419.64243750000605,"noteNumber":67,"velocity":110,"programNumber":29},{"time":277161.92275000643,"duration":419.64243750000605,"noteNumber":64,"velocity":110,"programNumber":29},{"time":277590.4937500064,"duration":419.64243750000605,"noteNumber":71,"velocity":110,"programNumber":29},{"time":278019.0647500064,"duration":419.64243750000605,"noteNumber":66,"velocity":110,"programNumber":29},{"time":278447.6357500064,"duration":419.64243750000605,"noteNumber":67,"velocity":110,"programNumber":29},{"time":278876.2067500064,"duration":419.64243750000605,"noteNumber":64,"velocity":110,"programNumber":29},{"time":279304.7777500064,"duration":419.64243750000605,"noteNumber":71,"velocity":110,"programNumber":29},{"time":279733.3487500064,"duration":419.64243750000605,"noteNumber":66,"velocity":110,"programNumber":29},{"time":280161.9197500064,"duration":419.64243750000605,"noteNumber":67,"velocity":110,"programNumber":29},{"time":280590.4907500064,"duration":419.64243750000605,"noteNumber":64,"velocity":110,"programNumber":29},{"time":281019.0617500064,"duration":419.64243750000605,"noteNumber":71,"velocity":110,"programNumber":29},{"time":281447.6327500064,"duration":419.64243750000605,"noteNumber":66,"velocity":110,"programNumber":29},{"time":281876.2037500064,"duration":419.64243750000605,"noteNumber":67,"velocity":110,"programNumber":29},{"time":282304.7747500064,"duration":419.64243750000605,"noteNumber":64,"velocity":110,"programNumber":29},{"time":282733.3457500064,"duration":419.64243750000605,"noteNumber":71,"velocity":110,"programNumber":29},{"time":283161.9167500064,"duration":419.64243750000605,"noteNumber":66,"velocity":110,"programNumber":29},{"time":283590.4877500064,"duration":419.64243750000605,"noteNumber":67,"velocity":110,"programNumber":29},{"time":284019.05875000637,"duration":205.35693750000792,"noteNumber":52,"velocity":110,"programNumber":29},{"time":284233.34425000637,"duration":205.35693750000792,"noteNumber":54,"velocity":110,"programNumber":29},{"time":284447.62975000637,"duration":205.35693750000792,"noteNumber":55,"velocity":110,"programNumber":29},{"time":284661.91525000636,"duration":205.35693750000792,"noteNumber":54,"velocity":110,"programNumber":29},{"time":284876.20075000636,"duration":205.35693750000792,"noteNumber":55,"velocity":110,"programNumber":29},{"time":285090.48625000636,"duration":205.35693750000792,"noteNumber":59,"velocity":110,"programNumber":29},{"time":285304.77175000636,"duration":205.35693750000792,"noteNumber":55,"velocity":110,"programNumber":29},{"time":285519.05725000636,"duration":205.35693750000792,"noteNumber":54,"velocity":110,"programNumber":29},{"time":285733.34275000636,"duration":205.35693750000792,"noteNumber":55,"velocity":110,"programNumber":29},{"time":285947.62825000635,"duration":205.35693750000792,"noteNumber":54,"velocity":110,"programNumber":29},{"time":286161.91375000635,"duration":205.35693750000792,"noteNumber":52,"velocity":110,"programNumber":29},{"time":286376.19925000635,"duration":205.35693750000792,"noteNumber":50,"velocity":110,"programNumber":29},{"time":286590.48475000635,"duration":419.64243750000605,"noteNumber":48,"velocity":110,"programNumber":29},{"time":286590.48475000635,"duration":419.64243750000605,"noteNumber":55,"velocity":110,"programNumber":29},{"time":287019.05575000634,"duration":419.64243750000605,"noteNumber":50,"velocity":110,"programNumber":29},{"time":287019.05575000634,"duration":419.64243750000605,"noteNumber":57,"velocity":110,"programNumber":29},{"time":287447.62675000634,"duration":205.35693750000792,"noteNumber":52,"velocity":110,"programNumber":29},{"time":287661.91225000634,"duration":205.35693750000792,"noteNumber":54,"velocity":110,"programNumber":29},{"time":287876.19775000634,"duration":205.35693750000792,"noteNumber":55,"velocity":110,"programNumber":29},{"time":288090.48325000633,"duration":205.35693750000792,"noteNumber":54,"velocity":110,"programNumber":29},{"time":288304.76875000633,"duration":205.35693750000792,"noteNumber":55,"velocity":110,"programNumber":29},{"time":288519.05425000633,"duration":205.35693750000792,"noteNumber":59,"velocity":110,"programNumber":29},{"time":288733.33975000633,"duration":205.35693750000792,"noteNumber":55,"velocity":110,"programNumber":29},{"time":288947.6252500063,"duration":205.35693750000792,"noteNumber":54,"velocity":110,"programNumber":29},{"time":289161.9107500063,"duration":205.35693750000792,"noteNumber":55,"velocity":110,"programNumber":29},{"time":289376.1962500063,"duration":205.35693750000792,"noteNumber":54,"velocity":110,"programNumber":29},{"time":289590.4817500063,"duration":205.35693750000792,"noteNumber":52,"velocity":110,"programNumber":29},{"time":289804.7672500063,"duration":205.35693750000792,"noteNumber":50,"velocity":110,"programNumber":29},{"time":290019.0527500063,"duration":419.64243750000605,"noteNumber":48,"velocity":110,"programNumber":29},{"time":290019.0527500063,"duration":419.64243750000605,"noteNumber":55,"velocity":110,"programNumber":29},{"time":290447.6237500063,"duration":419.64243750000605,"noteNumber":50,"velocity":110,"programNumber":29},{"time":290447.6237500063,"duration":419.64243750000605,"noteNumber":57,"velocity":110,"programNumber":29},{"time":290876.1947500063,"duration":205.35693750000792,"noteNumber":52,"velocity":110,"programNumber":29},{"time":291090.4802500063,"duration":205.35693750000792,"noteNumber":54,"velocity":110,"programNumber":29},{"time":291304.7657500063,"duration":205.35693750000792,"noteNumber":55,"velocity":110,"programNumber":29},{"time":291519.0512500063,"duration":205.35693750000792,"noteNumber":54,"velocity":110,"programNumber":29},{"time":291733.3367500063,"duration":205.35693750000792,"noteNumber":55,"velocity":110,"programNumber":29},{"time":291947.6222500063,"duration":205.35693750000792,"noteNumber":59,"velocity":110,"programNumber":29},{"time":292161.9077500063,"duration":205.35693750000792,"noteNumber":55,"velocity":110,"programNumber":29},{"time":292376.1932500063,"duration":205.35693750000792,"noteNumber":54,"velocity":110,"programNumber":29},{"time":292590.4787500063,"duration":205.35693750000792,"noteNumber":55,"velocity":110,"programNumber":29},{"time":292804.7642500063,"duration":205.35693750000792,"noteNumber":54,"velocity":110,"programNumber":29},{"time":293019.0497500063,"duration":205.35693750000792,"noteNumber":52,"velocity":110,"programNumber":29},{"time":293233.3352500063,"duration":205.35693750000792,"noteNumber":50,"velocity":110,"programNumber":29},{"time":293447.6207500063,"duration":419.64243750000605,"noteNumber":48,"velocity":110,"programNumber":29},{"time":293447.6207500063,"duration":419.64243750000605,"noteNumber":55,"velocity":110,"programNumber":29},{"time":293876.1917500063,"duration":419.64243750000605,"noteNumber":50,"velocity":110,"programNumber":29},{"time":293876.1917500063,"duration":419.64243750000605,"noteNumber":57,"velocity":110,"programNumber":29},{"time":294304.7627500063,"duration":205.35693750000792,"noteNumber":52,"velocity":110,"programNumber":29},{"time":294519.0482500063,"duration":205.35693750000792,"noteNumber":54,"velocity":110,"programNumber":29},{"time":294733.3337500063,"duration":205.35693750000792,"noteNumber":55,"velocity":110,"programNumber":29},{"time":294947.6192500063,"duration":205.35693750000792,"noteNumber":54,"velocity":110,"programNumber":29},{"time":295161.9047500063,"duration":205.35693750000792,"noteNumber":55,"velocity":110,"programNumber":29},{"time":295376.1902500063,"duration":205.35693750000792,"noteNumber":59,"velocity":110,"programNumber":29},{"time":295590.47575000627,"duration":205.35693750000792,"noteNumber":55,"velocity":110,"programNumber":29},{"time":295804.76125000627,"duration":205.35693750000792,"noteNumber":54,"velocity":110,"programNumber":29},{"time":296019.04675000627,"duration":205.35693750000792,"noteNumber":55,"velocity":110,"programNumber":29},{"time":296233.33225000626,"duration":205.35693750000792,"noteNumber":54,"velocity":110,"programNumber":29},{"time":296447.61775000626,"duration":205.35693750000792,"noteNumber":52,"velocity":110,"programNumber":29},{"time":296661.90325000626,"duration":205.35693750000792,"noteNumber":50,"velocity":110,"programNumber":29},{"time":296876.18875000626,"duration":419.64243750000605,"noteNumber":48,"velocity":110,"programNumber":29},{"time":296876.18875000626,"duration":419.64243750000605,"noteNumber":55,"velocity":110,"programNumber":29},{"time":297304.75975000625,"duration":419.64243750000605,"noteNumber":50,"velocity":110,"programNumber":29},{"time":297304.75975000625,"duration":419.64243750000605,"noteNumber":57,"velocity":110,"programNumber":29},{"time":297733.33075000625,"duration":714.2849999999744,"noteNumber":52,"velocity":110,"programNumber":29},{"time":297733.33075000625,"duration":714.2849999999744,"noteNumber":59,"velocity":110,"programNumber":29},{"time":297733.33075000625,"duration":714.2849999999744,"noteNumber":64,"velocity":110,"programNumber":29},{"time":298590.47275000624,"duration":419.64243750000605,"noteNumber":52,"velocity":110,"programNumber":29},{"time":299019.04375000624,"duration":848.2134375000023,"noteNumber":52,"velocity":110,"programNumber":29},{"time":299019.04375000624,"duration":848.2134375000023,"noteNumber":59,"velocity":110,"programNumber":29},{"time":299019.04375000624,"duration":848.2134375000023,"noteNumber":64,"velocity":110,"programNumber":29},{"time":299876.18575000623,"duration":419.64243750000605,"noteNumber":52,"velocity":110,"programNumber":29},{"time":300304.7567500062,"duration":714.2849999999744,"noteNumber":52,"velocity":110,"programNumber":29},{"time":300304.7567500062,"duration":714.2849999999744,"noteNumber":59,"velocity":110,"programNumber":29},{"time":300304.7567500062,"duration":714.2849999999744,"noteNumber":64,"velocity":110,"programNumber":29},{"time":301161.8987500062,"duration":419.64243750000605,"noteNumber":52,"velocity":110,"programNumber":29},{"time":301590.4697500062,"duration":714.2849999999744,"noteNumber":52,"velocity":110,"programNumber":29},{"time":301590.4697500062,"duration":714.2849999999744,"noteNumber":59,"velocity":110,"programNumber":29},{"time":301590.4697500062,"duration":714.2849999999744,"noteNumber":64,"velocity":110,"programNumber":29},{"time":302447.6117500062,"duration":419.64243750000605,"noteNumber":52,"velocity":110,"programNumber":29},{"time":302876.1827500062,"duration":714.2849999999744,"noteNumber":52,"velocity":110,"programNumber":29},{"time":302876.1827500062,"duration":714.2849999999744,"noteNumber":59,"velocity":110,"programNumber":29},{"time":302876.1827500062,"duration":714.2849999999744,"noteNumber":64,"velocity":110,"programNumber":29},{"time":303733.3247500062,"duration":714.2849999999744,"noteNumber":52,"velocity":110,"programNumber":29},{"time":303733.3247500062,"duration":714.2849999999744,"noteNumber":59,"velocity":110,"programNumber":29},{"time":303733.3247500062,"duration":714.2849999999744,"noteNumber":64,"velocity":110,"programNumber":29},{"time":304590.4667500062,"duration":714.2849999999744,"noteNumber":52,"velocity":110,"programNumber":29},{"time":304590.4667500062,"duration":714.2849999999744,"noteNumber":59,"velocity":110,"programNumber":29},{"time":304590.4667500062,"duration":714.2849999999744,"noteNumber":64,"velocity":110,"programNumber":29},{"time":305447.6087500062,"duration":419.64243750000605,"noteNumber":52,"velocity":110,"programNumber":29},{"time":305876.1797500062,"duration":848.2134375000023,"noteNumber":52,"velocity":110,"programNumber":29},{"time":305876.1797500062,"duration":848.2134375000023,"noteNumber":59,"velocity":110,"programNumber":29},{"time":305876.1797500062,"duration":848.2134375000023,"noteNumber":64,"velocity":110,"programNumber":29},{"time":306733.3217500062,"duration":419.64243750000605,"noteNumber":52,"velocity":110,"programNumber":29},{"time":307161.89275000617,"duration":714.2849999999744,"noteNumber":52,"velocity":110,"programNumber":29},{"time":307161.89275000617,"duration":714.2849999999744,"noteNumber":59,"velocity":110,"programNumber":29},{"time":307161.89275000617,"duration":714.2849999999744,"noteNumber":64,"velocity":110,"programNumber":29},{"time":308019.03475000616,"duration":419.64243750000605,"noteNumber":55,"velocity":110,"programNumber":29},{"time":308447.60575000616,"duration":419.64243750000605,"noteNumber":54,"velocity":110,"programNumber":29},{"time":308876.17675000615,"duration":714.2849999999744,"noteNumber":50,"velocity":110,"programNumber":29},{"time":309733.31875000615,"duration":419.64243750000605,"noteNumber":48,"velocity":110,"programNumber":29},{"time":310161.88975000614,"duration":419.64243750000605,"noteNumber":47,"velocity":110,"programNumber":29},{"time":310590.46075000614,"duration":714.2849999999744,"noteNumber":43,"velocity":110,"programNumber":29},{"time":311447.60275000613,"duration":714.2849999999744,"noteNumber":50,"velocity":110,"programNumber":29},{"time":311447.60275000613,"duration":714.2849999999744,"noteNumber":57,"velocity":110,"programNumber":29},{"time":311447.60275000613,"duration":714.2849999999744,"noteNumber":62,"velocity":110,"programNumber":29},{"time":312304.7447500061,"duration":419.64243750000605,"noteNumber":50,"velocity":110,"programNumber":29},{"time":312733.3157500061,"duration":848.2134375000023,"noteNumber":50,"velocity":110,"programNumber":29},{"time":312733.3157500061,"duration":848.2134375000023,"noteNumber":57,"velocity":110,"programNumber":29},{"time":312733.3157500061,"duration":848.2134375000023,"noteNumber":62,"velocity":110,"programNumber":29},{"time":313590.4577500061,"duration":419.64243750000605,"noteNumber":50,"velocity":110,"programNumber":29},{"time":314019.0287500061,"duration":714.2849999999744,"noteNumber":50,"velocity":110,"programNumber":29},{"time":314019.0287500061,"duration":714.2849999999744,"noteNumber":57,"velocity":110,"programNumber":29},{"time":314019.0287500061,"duration":714.2849999999744,"noteNumber":62,"velocity":110,"programNumber":29},{"time":314876.1707500061,"duration":419.64243750000605,"noteNumber":50,"velocity":110,"programNumber":29},{"time":315304.7417500061,"duration":714.2849999999744,"noteNumber":50,"velocity":110,"programNumber":29},{"time":315304.7417500061,"duration":714.2849999999744,"noteNumber":57,"velocity":110,"programNumber":29},{"time":315304.7417500061,"duration":714.2849999999744,"noteNumber":62,"velocity":110,"programNumber":29},{"time":316161.8837500061,"duration":419.64243750000605,"noteNumber":50,"velocity":110,"programNumber":29},{"time":316590.4547500061,"duration":714.2849999999744,"noteNumber":50,"velocity":110,"programNumber":29},{"time":316590.4547500061,"duration":714.2849999999744,"noteNumber":57,"velocity":110,"programNumber":29},{"time":316590.4547500061,"duration":714.2849999999744,"noteNumber":62,"velocity":110,"programNumber":29},{"time":317447.5967500061,"duration":714.2849999999744,"noteNumber":50,"velocity":110,"programNumber":29},{"time":317447.5967500061,"duration":714.2849999999744,"noteNumber":57,"velocity":110,"programNumber":29},{"time":317447.5967500061,"duration":714.2849999999744,"noteNumber":62,"velocity":110,"programNumber":29},{"time":318304.7387500061,"duration":714.2849999999744,"noteNumber":50,"velocity":110,"programNumber":29},{"time":318304.7387500061,"duration":714.2849999999744,"noteNumber":57,"velocity":110,"programNumber":29},{"time":318304.7387500061,"duration":714.2849999999744,"noteNumber":62,"velocity":110,"programNumber":29},{"time":319161.88075000606,"duration":419.64243750000605,"noteNumber":50,"velocity":110,"programNumber":29},{"time":319590.45175000606,"duration":848.2134375000023,"noteNumber":50,"velocity":110,"programNumber":29},{"time":319590.45175000606,"duration":848.2134375000023,"noteNumber":57,"velocity":110,"programNumber":29},{"time":319590.45175000606,"duration":848.2134375000023,"noteNumber":62,"velocity":110,"programNumber":29},{"time":320447.59375000605,"duration":419.64243750000605,"noteNumber":50,"velocity":110,"programNumber":29},{"time":320876.16475000605,"duration":714.2849999999744,"noteNumber":50,"velocity":110,"programNumber":29},{"time":320876.16475000605,"duration":714.2849999999744,"noteNumber":57,"velocity":110,"programNumber":29},{"time":320876.16475000605,"duration":714.2849999999744,"noteNumber":62,"velocity":110,"programNumber":29},{"time":321733.30675000604,"duration":419.64243750000605,"noteNumber":55,"velocity":110,"programNumber":29},{"time":322161.87775000604,"duration":419.64243750000605,"noteNumber":54,"velocity":110,"programNumber":29},{"time":322590.44875000603,"duration":714.2849999999744,"noteNumber":50,"velocity":110,"programNumber":29},{"time":323447.590750006,"duration":419.64243750000605,"noteNumber":48,"velocity":110,"programNumber":29},{"time":323876.161750006,"duration":419.64243750000605,"noteNumber":47,"velocity":110,"programNumber":29},{"time":324304.732750006,"duration":714.2849999999744,"noteNumber":43,"velocity":110,"programNumber":29},{"time":325161.874750006,"duration":714.2849999999744,"noteNumber":52,"velocity":110,"programNumber":29},{"time":325161.874750006,"duration":714.2849999999744,"noteNumber":59,"velocity":110,"programNumber":29},{"time":325161.874750006,"duration":714.2849999999744,"noteNumber":64,"velocity":110,"programNumber":29},{"time":326019.016750006,"duration":419.64243750000605,"noteNumber":52,"velocity":110,"programNumber":29},{"time":326447.587750006,"duration":848.2134375000023,"noteNumber":52,"velocity":110,"programNumber":29},{"time":326447.587750006,"duration":848.2134375000023,"noteNumber":59,"velocity":110,"programNumber":29},{"time":326447.587750006,"duration":848.2134375000023,"noteNumber":64,"velocity":110,"programNumber":29},{"time":327304.729750006,"duration":419.64243750000605,"noteNumber":52,"velocity":110,"programNumber":29},{"time":327733.300750006,"duration":714.2849999999744,"noteNumber":52,"velocity":110,"programNumber":29},{"time":327733.300750006,"duration":714.2849999999744,"noteNumber":59,"velocity":110,"programNumber":29},{"time":327733.300750006,"duration":714.2849999999744,"noteNumber":64,"velocity":110,"programNumber":29},{"time":328590.442750006,"duration":419.64243750000605,"noteNumber":52,"velocity":110,"programNumber":29},{"time":329019.013750006,"duration":714.2849999999744,"noteNumber":52,"velocity":110,"programNumber":29},{"time":329019.013750006,"duration":714.2849999999744,"noteNumber":59,"velocity":110,"programNumber":29},{"time":329019.013750006,"duration":714.2849999999744,"noteNumber":64,"velocity":110,"programNumber":29},{"time":329876.155750006,"duration":419.64243750000605,"noteNumber":52,"velocity":110,"programNumber":29},{"time":330304.72675000597,"duration":714.2849999999744,"noteNumber":52,"velocity":110,"programNumber":29},{"time":330304.72675000597,"duration":714.2849999999744,"noteNumber":59,"velocity":110,"programNumber":29},{"time":330304.72675000597,"duration":714.2849999999744,"noteNumber":64,"velocity":110,"programNumber":29},{"time":331161.86875000596,"duration":714.2849999999744,"noteNumber":52,"velocity":110,"programNumber":29},{"time":331161.86875000596,"duration":714.2849999999744,"noteNumber":59,"velocity":110,"programNumber":29},{"time":331161.86875000596,"duration":714.2849999999744,"noteNumber":64,"velocity":110,"programNumber":29},{"time":332019.01075000595,"duration":714.2849999999744,"noteNumber":52,"velocity":110,"programNumber":29},{"time":332019.01075000595,"duration":714.2849999999744,"noteNumber":59,"velocity":110,"programNumber":29},{"time":332019.01075000595,"duration":714.2849999999744,"noteNumber":64,"velocity":110,"programNumber":29},{"time":332876.15275000595,"duration":419.64243750000605,"noteNumber":52,"velocity":110,"programNumber":29},{"time":333304.72375000594,"duration":848.2134375000023,"noteNumber":52,"velocity":110,"programNumber":29},{"time":333304.72375000594,"duration":848.2134375000023,"noteNumber":59,"velocity":110,"programNumber":29},{"time":333304.72375000594,"duration":848.2134375000023,"noteNumber":64,"velocity":110,"programNumber":29},{"time":334161.86575000593,"duration":419.64243750000605,"noteNumber":52,"velocity":110,"programNumber":29},{"time":334590.43675000593,"duration":714.2849999999744,"noteNumber":52,"velocity":110,"programNumber":29},{"time":334590.43675000593,"duration":714.2849999999744,"noteNumber":59,"velocity":110,"programNumber":29},{"time":334590.43675000593,"duration":714.2849999999744,"noteNumber":64,"velocity":110,"programNumber":29},{"time":335447.5787500059,"duration":419.64243750000605,"noteNumber":55,"velocity":110,"programNumber":29},{"time":335876.1497500059,"duration":419.64243750000605,"noteNumber":54,"velocity":110,"programNumber":29},{"time":336304.7207500059,"duration":714.2849999999744,"noteNumber":50,"velocity":110,"programNumber":29},{"time":337161.8627500059,"duration":419.64243750000605,"noteNumber":48,"velocity":110,"programNumber":29},{"time":337590.4337500059,"duration":419.64243750000605,"noteNumber":47,"velocity":110,"programNumber":29},{"time":338019.0047500059,"duration":714.2849999999744,"noteNumber":43,"velocity":110,"programNumber":29},{"time":338876.1467500059,"duration":714.2849999999744,"noteNumber":50,"velocity":110,"programNumber":29},{"time":338876.1467500059,"duration":714.2849999999744,"noteNumber":57,"velocity":110,"programNumber":29},{"time":338876.1467500059,"duration":714.2849999999744,"noteNumber":62,"velocity":110,"programNumber":29},{"time":339733.2887500059,"duration":419.64243750000605,"noteNumber":50,"velocity":110,"programNumber":29},{"time":340161.8597500059,"duration":848.2134375000023,"noteNumber":50,"velocity":110,"programNumber":29},{"time":340161.8597500059,"duration":848.2134375000023,"noteNumber":57,"velocity":110,"programNumber":29},{"time":340161.8597500059,"duration":848.2134375000023,"noteNumber":62,"velocity":110,"programNumber":29},{"time":341019.0017500059,"duration":419.64243750000605,"noteNumber":50,"velocity":110,"programNumber":29},{"time":341447.5727500059,"duration":714.2849999999744,"noteNumber":50,"velocity":110,"programNumber":29},{"time":341447.5727500059,"duration":714.2849999999744,"noteNumber":57,"velocity":110,"programNumber":29},{"time":341447.5727500059,"duration":714.2849999999744,"noteNumber":62,"velocity":110,"programNumber":29},{"time":342304.71475000586,"duration":419.64243750000605,"noteNumber":50,"velocity":110,"programNumber":29},{"time":342733.28575000586,"duration":714.2849999999744,"noteNumber":50,"velocity":110,"programNumber":29},{"time":342733.28575000586,"duration":714.2849999999744,"noteNumber":57,"velocity":110,"programNumber":29},{"time":342733.28575000586,"duration":714.2849999999744,"noteNumber":62,"velocity":110,"programNumber":29},{"time":343590.42775000585,"duration":419.64243750000605,"noteNumber":50,"velocity":110,"programNumber":29},{"time":344018.99875000585,"duration":714.2849999999744,"noteNumber":50,"velocity":110,"programNumber":29},{"time":344018.99875000585,"duration":714.2849999999744,"noteNumber":57,"velocity":110,"programNumber":29},{"time":344018.99875000585,"duration":714.2849999999744,"noteNumber":62,"velocity":110,"programNumber":29},{"time":344876.14075000584,"duration":714.2849999999744,"noteNumber":50,"velocity":110,"programNumber":29},{"time":344876.14075000584,"duration":714.2849999999744,"noteNumber":57,"velocity":110,"programNumber":29},{"time":344876.14075000584,"duration":714.2849999999744,"noteNumber":62,"velocity":110,"programNumber":29},{"time":345733.28275000583,"duration":205.35693750000792,"noteNumber":64,"velocity":110,"programNumber":120},{"time":345947.56825000583,"duration":205.35693750000792,"noteNumber":63,"velocity":110,"programNumber":120},{"time":346161.85375000583,"duration":205.35693750000792,"noteNumber":62,"velocity":110,"programNumber":120},{"time":346376.1392500058,"duration":205.35693750000792,"noteNumber":61,"velocity":110,"programNumber":120},{"time":346590.4247500058,"duration":205.35693750000792,"noteNumber":60,"velocity":110,"programNumber":120},{"time":346804.7102500058,"duration":205.35693750000792,"noteNumber":59,"velocity":110,"programNumber":120},{"time":347018.9957500058,"duration":205.35693750000792,"noteNumber":58,"velocity":110,"programNumber":120},{"time":347233.2812500058,"duration":205.35693750000792,"noteNumber":57,"velocity":110,"programNumber":120},{"time":347447.5667500058,"duration":205.35693750000792,"noteNumber":56,"velocity":110,"programNumber":120},{"time":347661.8522500058,"duration":205.35693750000792,"noteNumber":55,"velocity":110,"programNumber":120},{"time":347876.1377500058,"duration":205.35693750000792,"noteNumber":54,"velocity":110,"programNumber":120},{"time":348090.4232500058,"duration":205.35693750000792,"noteNumber":54,"velocity":110,"programNumber":120},{"time":348304.7087500058,"duration":205.35693750000792,"noteNumber":51,"velocity":110,"programNumber":120},{"time":348518.9942500058,"duration":205.35693750000792,"noteNumber":51,"velocity":110,"programNumber":120},{"time":348733.2797500058,"duration":205.35693750000792,"noteNumber":49,"velocity":110,"programNumber":120},{"time":348947.5652500058,"duration":205.35693750000792,"noteNumber":49,"velocity":110,"programNumber":120},{"time":349161.8507500058,"duration":205.35693750000792,"noteNumber":48,"velocity":110,"programNumber":120},{"time":349376.1362500058,"duration":205.35693750000792,"noteNumber":47,"velocity":110,"programNumber":120},{"time":349590.4217500058,"duration":205.35693750000792,"noteNumber":46,"velocity":110,"programNumber":120},{"time":349804.7072500058,"duration":205.35693750000792,"noteNumber":45,"velocity":110,"programNumber":120},{"time":350018.9927500058,"duration":205.35693750000792,"noteNumber":44,"velocity":110,"programNumber":120},{"time":350233.2782500058,"duration":205.35693750000792,"noteNumber":43,"velocity":110,"programNumber":120},{"time":350447.5637500058,"duration":205.35693750000792,"noteNumber":42,"velocity":110,"programNumber":120},{"time":350661.8492500058,"duration":205.35693750000792,"noteNumber":42,"velocity":110,"programNumber":120},{"time":350876.1347500058,"duration":205.35693750000792,"noteNumber":40,"velocity":110,"programNumber":120},{"time":351090.4202500058,"duration":205.35693750000792,"noteNumber":39,"velocity":110,"programNumber":120},{"time":351304.7057500058,"duration":205.35693750000792,"noteNumber":38,"velocity":110,"programNumber":120},{"time":351518.9912500058,"duration":205.35693750000792,"noteNumber":37,"velocity":110,"programNumber":120},{"time":351733.2767500058,"duration":205.35693750000792,"noteNumber":36,"velocity":110,"programNumber":120},{"time":351947.5622500058,"duration":205.35693750000792,"noteNumber":35,"velocity":110,"programNumber":120},{"time":352161.8477500058,"duration":205.35693750000792,"noteNumber":34,"velocity":110,"programNumber":120},{"time":352376.1332500058,"duration":205.35693750000792,"noteNumber":34,"velocity":110,"programNumber":120},{"time":352590.4187500058,"duration":3285.7110000085086,"noteNumber":69,"velocity":110,"programNumber":30},{"time":356018.98675001506,"duration":2357.140500004636,"noteNumber":69,"velocity":110,"programNumber":30},{"time":358590.4127500197,"duration":714.2849999999744,"noteNumber":74,"velocity":110,"programNumber":30},{"time":359447.5547500197,"duration":276.7854374999879,"noteNumber":76,"velocity":110,"programNumber":30},{"time":359733.26875001966,"duration":276.7854374999879,"noteNumber":74,"velocity":110,"programNumber":30},{"time":360018.98275001964,"duration":276.7854374999879,"noteNumber":71,"velocity":110,"programNumber":30},{"time":360304.6967500196,"duration":276.7854374999879,"noteNumber":76,"velocity":110,"programNumber":30},{"time":360590.4107500196,"duration":276.7854374999879,"noteNumber":74,"velocity":110,"programNumber":30},{"time":360876.1247500196,"duration":276.7854374999879,"noteNumber":71,"velocity":110,"programNumber":30},{"time":361161.83875001955,"duration":276.7854374999879,"noteNumber":76,"velocity":110,"programNumber":30},{"time":361447.55275001953,"duration":276.7854374999879,"noteNumber":74,"velocity":110,"programNumber":30},{"time":361733.2667500195,"duration":276.7854374999879,"noteNumber":71,"velocity":110,"programNumber":30},{"time":362018.9807500195,"duration":276.7854374999879,"noteNumber":76,"velocity":110,"programNumber":30},{"time":362304.69475001947,"duration":276.7854374999879,"noteNumber":74,"velocity":110,"programNumber":30},{"time":362590.40875001944,"duration":276.7854374999879,"noteNumber":71,"velocity":110,"programNumber":30},{"time":362876.1227500194,"duration":276.7854374999879,"noteNumber":76,"velocity":110,"programNumber":30},{"time":363161.8367500194,"duration":276.7854374999879,"noteNumber":74,"velocity":110,"programNumber":30},{"time":363447.5507500194,"duration":276.7854374999879,"noteNumber":71,"velocity":110,"programNumber":30},{"time":363733.26475001936,"duration":276.7854374999879,"noteNumber":76,"velocity":110,"programNumber":30},{"time":364018.97875001933,"duration":276.7854374999879,"noteNumber":74,"velocity":110,"programNumber":30},{"time":364304.6927500193,"duration":276.7854374999879,"noteNumber":71,"velocity":110,"programNumber":30},{"time":364590.4067500193,"duration":276.7854374999879,"noteNumber":76,"velocity":110,"programNumber":30},{"time":364876.12075001927,"duration":276.7854374999879,"noteNumber":74,"velocity":110,"programNumber":30},{"time":365161.83475001925,"duration":276.7854374999879,"noteNumber":71,"velocity":110,"programNumber":30},{"time":365447.5487500192,"duration":276.7854374999879,"noteNumber":76,"velocity":110,"programNumber":30},{"time":365733.2627500192,"duration":276.7854374999879,"noteNumber":74,"velocity":110,"programNumber":30},{"time":366018.9767500192,"duration":276.7854374999879,"noteNumber":71,"velocity":110,"programNumber":30},{"time":366304.69075001916,"duration":276.7854374999879,"noteNumber":79,"velocity":110,"programNumber":30},{"time":366590.40475001914,"duration":276.7854374999879,"noteNumber":76,"velocity":110,"programNumber":30},{"time":366876.1187500191,"duration":276.7854374999879,"noteNumber":71,"velocity":110,"programNumber":30},{"time":367161.8327500191,"duration":276.7854374999879,"noteNumber":78,"velocity":110,"programNumber":30},{"time":367447.5467500191,"duration":276.7854374999879,"noteNumber":76,"velocity":110,"programNumber":30},{"time":367733.26075001905,"duration":276.7854374999879,"noteNumber":71,"velocity":110,"programNumber":30},{"time":368018.974750019,"duration":276.7854374999879,"noteNumber":79,"velocity":110,"programNumber":30},{"time":368304.688750019,"duration":276.7854374999879,"noteNumber":76,"velocity":110,"programNumber":30},{"time":368590.402750019,"duration":276.7854374999879,"noteNumber":71,"velocity":110,"programNumber":30},{"time":368876.11675001896,"duration":276.7854374999879,"noteNumber":78,"velocity":110,"programNumber":30},{"time":369161.83075001894,"duration":276.7854374999879,"noteNumber":76,"velocity":110,"programNumber":30},{"time":369447.5447500189,"duration":276.7854374999879,"noteNumber":71,"velocity":110,"programNumber":30},{"time":369733.2587500189,"duration":276.7854374999879,"noteNumber":79,"velocity":110,"programNumber":30},{"time":370018.9727500189,"duration":276.7854374999879,"noteNumber":76,"velocity":110,"programNumber":30},{"time":370304.68675001885,"duration":276.7854374999879,"noteNumber":71,"velocity":110,"programNumber":30},{"time":370590.40075001883,"duration":276.7854374999879,"noteNumber":78,"velocity":110,"programNumber":30},{"time":370876.1147500188,"duration":276.7854374999879,"noteNumber":76,"velocity":110,"programNumber":30},{"time":371161.8287500188,"duration":276.7854374999879,"noteNumber":71,"velocity":110,"programNumber":30},{"time":371447.54275001877,"duration":276.7854374999879,"noteNumber":79,"velocity":110,"programNumber":30},{"time":371733.25675001874,"duration":276.7854374999879,"noteNumber":76,"velocity":110,"programNumber":30},{"time":372018.9707500187,"duration":276.7854374999879,"noteNumber":71,"velocity":110,"programNumber":30},{"time":372304.6847500187,"duration":276.7854374999879,"noteNumber":78,"velocity":110,"programNumber":30},{"time":372590.3987500187,"duration":276.7854374999879,"noteNumber":76,"velocity":110,"programNumber":30},{"time":372876.11275001866,"duration":276.7854374999879,"noteNumber":71,"velocity":110,"programNumber":30},{"time":373161.82675001863,"duration":276.7854374999879,"noteNumber":79,"velocity":110,"programNumber":30},{"time":373447.5407500186,"duration":276.7854374999879,"noteNumber":76,"velocity":110,"programNumber":30},{"time":373733.2547500186,"duration":276.7854374999879,"noteNumber":71,"velocity":110,"programNumber":30},{"time":374018.96875001857,"duration":276.7854374999879,"noteNumber":78,"velocity":110,"programNumber":30},{"time":374304.68275001855,"duration":276.7854374999879,"noteNumber":76,"velocity":110,"programNumber":30},{"time":374590.3967500185,"duration":276.7854374999879,"noteNumber":71,"velocity":110,"programNumber":30},{"time":374876.1107500185,"duration":276.7854374999879,"noteNumber":79,"velocity":110,"programNumber":30},{"time":375161.8247500185,"duration":276.7854374999879,"noteNumber":76,"velocity":110,"programNumber":30},{"time":375447.53875001846,"duration":276.7854374999879,"noteNumber":71,"velocity":110,"programNumber":30},{"time":375733.25275001844,"duration":276.7854374999879,"noteNumber":78,"velocity":110,"programNumber":30},{"time":376018.9667500184,"duration":276.7854374999879,"noteNumber":76,"velocity":110,"programNumber":30},{"time":376304.6807500184,"duration":276.7854374999879,"noteNumber":71,"velocity":110,"programNumber":30},{"time":376590.3947500184,"duration":276.7854374999879,"noteNumber":79,"velocity":110,"programNumber":30},{"time":376876.10875001835,"duration":276.7854374999879,"noteNumber":76,"velocity":110,"programNumber":30},{"time":377161.8227500183,"duration":276.7854374999879,"noteNumber":71,"velocity":110,"programNumber":30},{"time":377447.5367500183,"duration":276.7854374999879,"noteNumber":78,"velocity":110,"programNumber":30},{"time":377733.2507500183,"duration":276.7854374999879,"noteNumber":76,"velocity":110,"programNumber":30},{"time":378018.96475001826,"duration":276.7854374999879,"noteNumber":71,"velocity":110,"programNumber":30},{"time":378304.67875001824,"duration":276.7854374999879,"noteNumber":79,"velocity":110,"programNumber":30},{"time":378590.3927500182,"duration":276.7854374999879,"noteNumber":76,"velocity":110,"programNumber":30},{"time":378876.1067500182,"duration":276.7854374999879,"noteNumber":71,"velocity":110,"programNumber":30},{"time":379161.8207500182,"duration":419.64243750000605,"noteNumber":78,"velocity":110,"programNumber":30},{"time":379590.39175001817,"duration":848.2134375023306,"noteNumber":93,"velocity":110,"programNumber":30},{"time":380447.5337500205,"duration":714.2849999999744,"noteNumber":93,"velocity":110,"programNumber":30},{"time":381304.6757500205,"duration":419.64243750000605,"noteNumber":91,"velocity":110,"programNumber":30},{"time":381733.2467500205,"duration":419.64243750000605,"noteNumber":93,"velocity":110,"programNumber":30},{"time":382161.8177500205,"duration":133.92843750002794,"noteNumber":91,"velocity":110,"programNumber":30},{"time":382304.6747500205,"duration":133.92843750002794,"noteNumber":93,"velocity":110,"programNumber":30},{"time":382447.5317500205,"duration":133.92843750002794,"noteNumber":91,"velocity":110,"programNumber":30},{"time":382590.38875002053,"duration":419.64243750000605,"noteNumber":90,"velocity":110,"programNumber":30},{"time":383018.9597500205,"duration":633.9279375022743,"noteNumber":90,"velocity":110,"programNumber":30},{"time":383661.81625002285,"duration":205.35693750000792,"noteNumber":88,"velocity":110,"programNumber":30},{"time":383876.10175002285,"duration":205.35693750000792,"noteNumber":90,"velocity":110,"programNumber":30},{"time":384090.38725002285,"duration":205.35693750000792,"noteNumber":91,"velocity":110,"programNumber":30},{"time":384304.67275002284,"duration":276.7854374999879,"noteNumber":90,"velocity":110,"programNumber":30},{"time":384590.3867500228,"duration":276.7854374999879,"noteNumber":88,"velocity":110,"programNumber":30},{"time":384876.1007500228,"duration":276.7854374999879,"noteNumber":86,"velocity":110,"programNumber":30},{"time":385161.8147500228,"duration":276.7854374999879,"noteNumber":88,"velocity":110,"programNumber":30},{"time":385447.52875002276,"duration":276.7854374999879,"noteNumber":86,"velocity":110,"programNumber":30},{"time":385733.24275002273,"duration":276.7854374999879,"noteNumber":84,"velocity":110,"programNumber":30},{"time":386018.9567500227,"duration":419.64243750000605,"noteNumber":86,"velocity":110,"programNumber":30},{"time":386447.5277500227,"duration":419.64243750000605,"noteNumber":84,"velocity":110,"programNumber":30},{"time":386876.0987500227,"duration":419.64243750000605,"noteNumber":83,"velocity":110,"programNumber":30},{"time":387304.6697500227,"duration":419.64243750000605,"noteNumber":88,"velocity":110,"programNumber":30},{"time":387733.2407500227,"duration":714.2849999999744,"noteNumber":83,"velocity":110,"programNumber":30},{"time":388590.3827500227,"duration":714.2849999999744,"noteNumber":88,"velocity":110,"programNumber":30},{"time":389447.5247500227,"duration":419.64243750000605,"noteNumber":88,"velocity":110,"programNumber":30},{"time":389876.0957500227,"duration":419.64243750000605,"noteNumber":90,"velocity":110,"programNumber":30},{"time":390304.6667500227,"duration":276.7854374999879,"noteNumber":91,"velocity":110,"programNumber":30},{"time":390590.38075002265,"duration":276.7854374999879,"noteNumber":90,"velocity":110,"programNumber":30},{"time":390876.09475002263,"duration":276.7854374999879,"noteNumber":88,"velocity":110,"programNumber":30},{"time":391161.8087500226,"duration":276.7854374999879,"noteNumber":90,"velocity":110,"programNumber":30},{"time":391447.5227500226,"duration":276.7854374999879,"noteNumber":88,"velocity":110,"programNumber":30},{"time":391733.23675002257,"duration":276.7854374999879,"noteNumber":86,"velocity":110,"programNumber":30},{"time":392018.95075002254,"duration":276.7854374999879,"noteNumber":88,"velocity":110,"programNumber":30},{"time":392304.6647500225,"duration":276.7854374999879,"noteNumber":88,"velocity":110,"programNumber":30},{"time":392590.3787500225,"duration":276.7854374999879,"noteNumber":86,"velocity":110,"programNumber":30},{"time":392876.0927500225,"duration":276.7854374999879,"noteNumber":83,"velocity":110,"programNumber":30},{"time":393161.80675002246,"duration":276.7854374999879,"noteNumber":83,"velocity":110,"programNumber":30},{"time":393447.52075002244,"duration":276.7854374999879,"noteNumber":83,"velocity":110,"programNumber":30},{"time":393733.2347500224,"duration":276.7854374999879,"noteNumber":86,"velocity":110,"programNumber":30},{"time":394018.9487500224,"duration":276.7854374999879,"noteNumber":83,"velocity":110,"programNumber":30},{"time":394304.66275002237,"duration":276.7854374999879,"noteNumber":83,"velocity":110,"programNumber":30},{"time":394590.37675002235,"duration":276.7854374999879,"noteNumber":83,"velocity":110,"programNumber":30},{"time":394876.0907500223,"duration":276.7854374999879,"noteNumber":86,"velocity":110,"programNumber":30},{"time":395161.8047500223,"duration":276.7854374999879,"noteNumber":83,"velocity":110,"programNumber":30},{"time":395447.5187500223,"duration":276.7854374999879,"noteNumber":83,"velocity":110,"programNumber":30},{"time":395733.23275002226,"duration":276.7854374999879,"noteNumber":83,"velocity":110,"programNumber":30},{"time":396018.94675002224,"duration":276.7854374999879,"noteNumber":83,"velocity":110,"programNumber":30},{"time":396304.6607500222,"duration":419.64243750000605,"noteNumber":84,"velocity":110,"programNumber":30},{"time":396733.2317500222,"duration":419.64243750000605,"noteNumber":84,"velocity":110,"programNumber":30},{"time":397161.8027500222,"duration":205.35693750000792,"noteNumber":81,"velocity":110,"programNumber":30},{"time":397376.0882500222,"duration":205.35693750000792,"noteNumber":79,"velocity":110,"programNumber":30},{"time":397590.3737500222,"duration":205.35693750000792,"noteNumber":81,"velocity":110,"programNumber":30},{"time":397804.6592500222,"duration":205.35693750000792,"noteNumber":79,"velocity":110,"programNumber":30},{"time":398018.9447500222,"duration":419.64243750000605,"noteNumber":76,"velocity":110,"programNumber":30},{"time":398447.5157500222,"duration":205.35693750000792,"noteNumber":81,"velocity":110,"programNumber":30},{"time":398661.8012500222,"duration":205.35693750000792,"noteNumber":79,"velocity":110,"programNumber":30},{"time":398876.0867500222,"duration":205.35693750000792,"noteNumber":81,"velocity":110,"programNumber":30},{"time":399090.3722500222,"duration":205.35693750000792,"noteNumber":79,"velocity":110,"programNumber":30},{"time":399304.6577500222,"duration":205.35693750000792,"noteNumber":76,"velocity":110,"programNumber":30},{"time":399518.9432500222,"duration":205.35693750000792,"noteNumber":74,"velocity":110,"programNumber":30},{"time":399733.2287500222,"duration":276.7854374999879,"noteNumber":74,"velocity":110,"programNumber":30},{"time":400018.94275002216,"duration":276.7854374999879,"noteNumber":76,"velocity":110,"programNumber":30},{"time":400304.65675002214,"duration":276.7854374999879,"noteNumber":79,"velocity":110,"programNumber":30},{"time":400590.3707500221,"duration":276.7854374999879,"noteNumber":74,"velocity":110,"programNumber":30},{"time":400876.0847500221,"duration":276.7854374999879,"noteNumber":76,"velocity":110,"programNumber":30},{"time":401161.7987500221,"duration":276.7854374999879,"noteNumber":79,"velocity":110,"programNumber":30},{"time":401447.51275002206,"duration":419.64243750000605,"noteNumber":81,"velocity":110,"programNumber":30},{"time":401876.08375002205,"duration":419.64243750000605,"noteNumber":83,"velocity":110,"programNumber":30},{"time":402304.65475002205,"duration":419.64243750000605,"noteNumber":88,"velocity":110,"programNumber":30},{"time":402733.22575002204,"duration":4499.995500006422,"noteNumber":86,"velocity":110,"programNumber":30},{"time":407447.50675002846,"duration":714.2849999999744,"noteNumber":52,"velocity":110,"programNumber":29},{"time":407447.50675002846,"duration":714.2849999999744,"noteNumber":59,"velocity":110,"programNumber":29},{"time":407447.50675002846,"duration":714.2849999999744,"noteNumber":64,"velocity":110,"programNumber":29},{"time":408304.64875002846,"duration":419.64243750000605,"noteNumber":52,"velocity":110,"programNumber":29},{"time":408733.21975002845,"duration":848.2134375000023,"noteNumber":52,"velocity":110,"programNumber":29},{"time":408733.21975002845,"duration":848.2134375000023,"noteNumber":59,"velocity":110,"programNumber":29},{"time":408733.21975002845,"duration":848.2134375000023,"noteNumber":64,"velocity":110,"programNumber":29},{"time":409590.36175002845,"duration":419.64243750000605,"noteNumber":52,"velocity":110,"programNumber":29},{"time":410018.93275002844,"duration":714.2849999999744,"noteNumber":52,"velocity":110,"programNumber":29},{"time":410018.93275002844,"duration":714.2849999999744,"noteNumber":59,"velocity":110,"programNumber":29},{"time":410018.93275002844,"duration":714.2849999999744,"noteNumber":64,"velocity":110,"programNumber":29},{"time":410876.07475002843,"duration":419.64243750000605,"noteNumber":52,"velocity":110,"programNumber":29},{"time":411304.64575002843,"duration":714.2849999999744,"noteNumber":52,"velocity":110,"programNumber":29},{"time":411304.64575002843,"duration":714.2849999999744,"noteNumber":59,"velocity":110,"programNumber":29},{"time":411304.64575002843,"duration":714.2849999999744,"noteNumber":64,"velocity":110,"programNumber":29},{"time":412161.7877500284,"duration":419.64243750000605,"noteNumber":52,"velocity":110,"programNumber":29},{"time":412590.3587500284,"duration":714.2849999999744,"noteNumber":52,"velocity":110,"programNumber":29},{"time":412590.3587500284,"duration":714.2849999999744,"noteNumber":59,"velocity":110,"programNumber":29},{"time":412590.3587500284,"duration":714.2849999999744,"noteNumber":64,"velocity":110,"programNumber":29},{"time":413447.5007500284,"duration":714.2849999999744,"noteNumber":52,"velocity":110,"programNumber":29},{"time":413447.5007500284,"duration":714.2849999999744,"noteNumber":59,"velocity":110,"programNumber":29},{"time":413447.5007500284,"duration":714.2849999999744,"noteNumber":64,"velocity":110,"programNumber":29},{"time":414304.6427500284,"duration":714.2849999999744,"noteNumber":52,"velocity":110,"programNumber":29},{"time":414304.6427500284,"duration":714.2849999999744,"noteNumber":59,"velocity":110,"programNumber":29},{"time":414304.6427500284,"duration":714.2849999999744,"noteNumber":64,"velocity":110,"programNumber":29},{"time":415161.7847500284,"duration":419.64243750000605,"noteNumber":52,"velocity":110,"programNumber":29},{"time":415590.3557500284,"duration":848.2134375000023,"noteNumber":52,"velocity":110,"programNumber":29},{"time":415590.3557500284,"duration":848.2134375000023,"noteNumber":59,"velocity":110,"programNumber":29},{"time":415590.3557500284,"duration":848.2134375000023,"noteNumber":64,"velocity":110,"programNumber":29},{"time":416447.4977500284,"duration":419.64243750000605,"noteNumber":52,"velocity":110,"programNumber":29},{"time":416876.0687500284,"duration":714.2849999999744,"noteNumber":52,"velocity":110,"programNumber":29},{"time":416876.0687500284,"duration":714.2849999999744,"noteNumber":59,"velocity":110,"programNumber":29},{"time":416876.0687500284,"duration":714.2849999999744,"noteNumber":64,"velocity":110,"programNumber":29},{"time":417733.2107500284,"duration":419.64243750000605,"noteNumber":55,"velocity":110,"programNumber":29},{"time":418161.78175002837,"duration":419.64243750000605,"noteNumber":54,"velocity":110,"programNumber":29},{"time":418590.35275002837,"duration":714.2849999999744,"noteNumber":50,"velocity":110,"programNumber":29},{"time":419447.49475002836,"duration":419.64243750000605,"noteNumber":48,"velocity":110,"programNumber":29},{"time":419876.06575002836,"duration":419.64243750000605,"noteNumber":47,"velocity":110,"programNumber":29},{"time":420304.63675002835,"duration":714.2849999999744,"noteNumber":43,"velocity":110,"programNumber":29},{"time":421161.77875002834,"duration":714.2849999999744,"noteNumber":50,"velocity":110,"programNumber":29},{"time":421161.77875002834,"duration":714.2849999999744,"noteNumber":57,"velocity":110,"programNumber":29},{"time":421161.77875002834,"duration":714.2849999999744,"noteNumber":62,"velocity":110,"programNumber":29},{"time":422018.92075002834,"duration":419.64243750000605,"noteNumber":50,"velocity":110,"programNumber":29},{"time":422447.49175002833,"duration":848.2134375000023,"noteNumber":50,"velocity":110,"programNumber":29},{"time":422447.49175002833,"duration":848.2134375000023,"noteNumber":57,"velocity":110,"programNumber":29},{"time":422447.49175002833,"duration":848.2134375000023,"noteNumber":62,"velocity":110,"programNumber":29},{"time":423304.6337500283,"duration":419.64243750000605,"noteNumber":50,"velocity":110,"programNumber":29},{"time":423733.2047500283,"duration":714.2849999999744,"noteNumber":50,"velocity":110,"programNumber":29},{"time":423733.2047500283,"duration":714.2849999999744,"noteNumber":57,"velocity":110,"programNumber":29},{"time":423733.2047500283,"duration":714.2849999999744,"noteNumber":62,"velocity":110,"programNumber":29},{"time":424590.3467500283,"duration":419.64243750000605,"noteNumber":50,"velocity":110,"programNumber":29},{"time":425018.9177500283,"duration":714.2849999999744,"noteNumber":50,"velocity":110,"programNumber":29},{"time":425018.9177500283,"duration":714.2849999999744,"noteNumber":57,"velocity":110,"programNumber":29},{"time":425018.9177500283,"duration":714.2849999999744,"noteNumber":62,"velocity":110,"programNumber":29},{"time":425876.0597500283,"duration":419.64243750000605,"noteNumber":50,"velocity":110,"programNumber":29},{"time":426304.6307500283,"duration":714.2849999999744,"noteNumber":50,"velocity":110,"programNumber":29},{"time":426304.6307500283,"duration":714.2849999999744,"noteNumber":57,"velocity":110,"programNumber":29},{"time":426304.6307500283,"duration":714.2849999999744,"noteNumber":62,"velocity":110,"programNumber":29},{"time":427161.7727500283,"duration":714.2849999999744,"noteNumber":50,"velocity":110,"programNumber":29},{"time":427161.7727500283,"duration":714.2849999999744,"noteNumber":57,"velocity":110,"programNumber":29},{"time":427161.7727500283,"duration":714.2849999999744,"noteNumber":62,"velocity":110,"programNumber":29},{"time":428018.9147500283,"duration":714.2849999999744,"noteNumber":50,"velocity":110,"programNumber":29},{"time":428018.9147500283,"duration":714.2849999999744,"noteNumber":57,"velocity":110,"programNumber":29},{"time":428018.9147500283,"duration":714.2849999999744,"noteNumber":62,"velocity":110,"programNumber":29},{"time":428876.0567500283,"duration":419.64243750000605,"noteNumber":50,"velocity":110,"programNumber":29},{"time":429304.6277500283,"duration":848.2134375000023,"noteNumber":50,"velocity":110,"programNumber":29},{"time":429304.6277500283,"duration":848.2134375000023,"noteNumber":57,"velocity":110,"programNumber":29},{"time":429304.6277500283,"duration":848.2134375000023,"noteNumber":62,"velocity":110,"programNumber":29},{"time":430161.76975002827,"duration":419.64243750000605,"noteNumber":50,"velocity":110,"programNumber":29},{"time":430590.34075002826,"duration":714.2849999999744,"noteNumber":50,"velocity":110,"programNumber":29},{"time":430590.34075002826,"duration":714.2849999999744,"noteNumber":57,"velocity":110,"programNumber":29},{"time":430590.34075002826,"duration":714.2849999999744,"noteNumber":62,"velocity":110,"programNumber":29},{"time":431447.48275002826,"duration":419.64243750000605,"noteNumber":55,"velocity":110,"programNumber":29},{"time":431876.05375002825,"duration":419.64243750000605,"noteNumber":54,"velocity":110,"programNumber":29},{"time":432304.62475002825,"duration":714.2849999999744,"noteNumber":50,"velocity":110,"programNumber":29},{"time":433161.76675002824,"duration":419.64243750000605,"noteNumber":48,"velocity":110,"programNumber":29},{"time":433590.33775002824,"duration":419.64243750000605,"noteNumber":47,"velocity":110,"programNumber":29},{"time":434018.90875002823,"duration":714.2849999999744,"noteNumber":43,"velocity":110,"programNumber":29},{"time":434876.0507500282,"duration":714.2849999999744,"noteNumber":52,"velocity":110,"programNumber":29},{"time":434876.0507500282,"duration":714.2849999999744,"noteNumber":59,"velocity":110,"programNumber":29},{"time":434876.0507500282,"duration":714.2849999999744,"noteNumber":64,"velocity":110,"programNumber":29},{"time":435733.1927500282,"duration":419.64243750000605,"noteNumber":52,"velocity":110,"programNumber":29},{"time":436161.7637500282,"duration":848.2134375000023,"noteNumber":52,"velocity":110,"programNumber":29},{"time":436161.7637500282,"duration":848.2134375000023,"noteNumber":59,"velocity":110,"programNumber":29},{"time":436161.7637500282,"duration":848.2134375000023,"noteNumber":64,"velocity":110,"programNumber":29},{"time":437018.9057500282,"duration":419.64243750000605,"noteNumber":52,"velocity":110,"programNumber":29},{"time":437447.4767500282,"duration":714.2849999999744,"noteNumber":52,"velocity":110,"programNumber":29},{"time":437447.4767500282,"duration":714.2849999999744,"noteNumber":59,"velocity":110,"programNumber":29},{"time":437447.4767500282,"duration":714.2849999999744,"noteNumber":64,"velocity":110,"programNumber":29},{"time":438304.6187500282,"duration":419.64243750000605,"noteNumber":52,"velocity":110,"programNumber":29},{"time":438733.1897500282,"duration":714.2849999999744,"noteNumber":52,"velocity":110,"programNumber":29},{"time":438733.1897500282,"duration":714.2849999999744,"noteNumber":59,"velocity":110,"programNumber":29},{"time":438733.1897500282,"duration":714.2849999999744,"noteNumber":64,"velocity":110,"programNumber":29},{"time":439590.3317500282,"duration":419.64243750000605,"noteNumber":52,"velocity":110,"programNumber":29},{"time":440018.9027500282,"duration":714.2849999999744,"noteNumber":52,"velocity":110,"programNumber":29},{"time":440018.9027500282,"duration":714.2849999999744,"noteNumber":59,"velocity":110,"programNumber":29},{"time":440018.9027500282,"duration":714.2849999999744,"noteNumber":64,"velocity":110,"programNumber":29},{"time":440876.0447500282,"duration":714.2849999999744,"noteNumber":52,"velocity":110,"programNumber":29},{"time":440876.0447500282,"duration":714.2849999999744,"noteNumber":59,"velocity":110,"programNumber":29},{"time":440876.0447500282,"duration":714.2849999999744,"noteNumber":64,"velocity":110,"programNumber":29},{"time":441733.18675002817,"duration":714.2849999999744,"noteNumber":52,"velocity":110,"programNumber":29},{"time":441733.18675002817,"duration":714.2849999999744,"noteNumber":59,"velocity":110,"programNumber":29},{"time":441733.18675002817,"duration":714.2849999999744,"noteNumber":64,"velocity":110,"programNumber":29},{"time":442590.32875002816,"duration":419.64243750000605,"noteNumber":52,"velocity":110,"programNumber":29},{"time":443018.89975002815,"duration":848.2134375000023,"noteNumber":52,"velocity":110,"programNumber":29},{"time":443018.89975002815,"duration":848.2134375000023,"noteNumber":59,"velocity":110,"programNumber":29},{"time":443018.89975002815,"duration":848.2134375000023,"noteNumber":64,"velocity":110,"programNumber":29},{"time":443876.04175002815,"duration":419.64243750000605,"noteNumber":52,"velocity":110,"programNumber":29},{"time":444304.61275002814,"duration":714.2849999999744,"noteNumber":52,"velocity":110,"programNumber":29},{"time":444304.61275002814,"duration":714.2849999999744,"noteNumber":59,"velocity":110,"programNumber":29},{"time":444304.61275002814,"duration":714.2849999999744,"noteNumber":64,"velocity":110,"programNumber":29},{"time":445161.75475002814,"duration":419.64243750000605,"noteNumber":55,"velocity":110,"programNumber":29},{"time":445590.32575002813,"duration":419.64243750000605,"noteNumber":54,"velocity":110,"programNumber":29},{"time":446018.8967500281,"duration":714.2849999999744,"noteNumber":50,"velocity":110,"programNumber":29},{"time":446876.0387500281,"duration":419.64243750000605,"noteNumber":48,"velocity":110,"programNumber":29},{"time":447304.6097500281,"duration":419.64243750000605,"noteNumber":47,"velocity":110,"programNumber":29},{"time":447733.1807500281,"duration":714.2849999999744,"noteNumber":43,"velocity":110,"programNumber":29},{"time":448590.3227500281,"duration":714.2849999999744,"noteNumber":50,"velocity":110,"programNumber":29},{"time":448590.3227500281,"duration":714.2849999999744,"noteNumber":57,"velocity":110,"programNumber":29},{"time":448590.3227500281,"duration":714.2849999999744,"noteNumber":62,"velocity":110,"programNumber":29},{"time":449447.4647500281,"duration":419.64243750000605,"noteNumber":50,"velocity":110,"programNumber":29},{"time":449876.0357500281,"duration":848.2134375000023,"noteNumber":50,"velocity":110,"programNumber":29},{"time":449876.0357500281,"duration":848.2134375000023,"noteNumber":57,"velocity":110,"programNumber":29},{"time":449876.0357500281,"duration":848.2134375000023,"noteNumber":62,"velocity":110,"programNumber":29},{"time":450733.1777500281,"duration":419.64243750000605,"noteNumber":50,"velocity":110,"programNumber":29},{"time":451161.7487500281,"duration":714.2849999999744,"noteNumber":50,"velocity":110,"programNumber":29},{"time":451161.7487500281,"duration":714.2849999999744,"noteNumber":57,"velocity":110,"programNumber":29},{"time":451161.7487500281,"duration":714.2849999999744,"noteNumber":62,"velocity":110,"programNumber":29},{"time":452018.8907500281,"duration":419.64243750000605,"noteNumber":50,"velocity":110,"programNumber":29},{"time":452447.4617500281,"duration":714.2849999999744,"noteNumber":50,"velocity":110,"programNumber":29},{"time":452447.4617500281,"duration":714.2849999999744,"noteNumber":57,"velocity":110,"programNumber":29},{"time":452447.4617500281,"duration":714.2849999999744,"noteNumber":62,"velocity":110,"programNumber":29},{"time":453304.60375002807,"duration":419.64243750000605,"noteNumber":50,"velocity":110,"programNumber":29},{"time":453733.17475002806,"duration":714.2849999999744,"noteNumber":50,"velocity":110,"programNumber":29},{"time":453733.17475002806,"duration":714.2849999999744,"noteNumber":57,"velocity":110,"programNumber":29},{"time":453733.17475002806,"duration":714.2849999999744,"noteNumber":62,"velocity":110,"programNumber":29},{"time":454590.31675002805,"duration":714.2849999999744,"noteNumber":50,"velocity":110,"programNumber":29},{"time":454590.31675002805,"duration":714.2849999999744,"noteNumber":57,"velocity":110,"programNumber":29},{"time":454590.31675002805,"duration":714.2849999999744,"noteNumber":62,"velocity":110,"programNumber":29},{"time":455447.45875002805,"duration":714.2849999999744,"noteNumber":50,"velocity":110,"programNumber":29},{"time":455447.45875002805,"duration":714.2849999999744,"noteNumber":57,"velocity":110,"programNumber":29},{"time":455447.45875002805,"duration":714.2849999999744,"noteNumber":62,"velocity":110,"programNumber":29},{"time":456304.60075002804,"duration":419.64243750000605,"noteNumber":50,"velocity":110,"programNumber":29},{"time":456733.17175002804,"duration":848.2134375000023,"noteNumber":50,"velocity":110,"programNumber":29},{"time":456733.17175002804,"duration":848.2134375000023,"noteNumber":57,"velocity":110,"programNumber":29},{"time":456733.17175002804,"duration":848.2134375000023,"noteNumber":62,"velocity":110,"programNumber":29},{"time":457590.313750028,"duration":419.64243750000605,"noteNumber":50,"velocity":110,"programNumber":29},{"time":458018.884750028,"duration":714.2849999999744,"noteNumber":50,"velocity":110,"programNumber":29},{"time":458018.884750028,"duration":714.2849999999744,"noteNumber":57,"velocity":110,"programNumber":29},{"time":458018.884750028,"duration":714.2849999999744,"noteNumber":62,"velocity":110,"programNumber":29},{"time":458876.026750028,"duration":419.64243750000605,"noteNumber":55,"velocity":110,"programNumber":29},{"time":459304.597750028,"duration":419.64243750000605,"noteNumber":54,"velocity":110,"programNumber":29},{"time":459733.168750028,"duration":714.2849999999744,"noteNumber":50,"velocity":110,"programNumber":29},{"time":460590.310750028,"duration":419.64243750000605,"noteNumber":48,"velocity":110,"programNumber":29},{"time":461018.881750028,"duration":419.64243750000605,"noteNumber":47,"velocity":110,"programNumber":29},{"time":461447.452750028,"duration":714.2849999999744,"noteNumber":43,"velocity":110,"programNumber":29},{"time":462304.594750028,"duration":714.2849999999744,"noteNumber":52,"velocity":110,"programNumber":29},{"time":462304.594750028,"duration":714.2849999999744,"noteNumber":59,"velocity":110,"programNumber":29},{"time":462304.594750028,"duration":714.2849999999744,"noteNumber":64,"velocity":110,"programNumber":29},{"time":463161.736750028,"duration":419.64243750000605,"noteNumber":52,"velocity":110,"programNumber":29},{"time":463590.307750028,"duration":848.2134375000023,"noteNumber":52,"velocity":110,"programNumber":29},{"time":463590.307750028,"duration":848.2134375000023,"noteNumber":59,"velocity":110,"programNumber":29},{"time":463590.307750028,"duration":848.2134375000023,"noteNumber":64,"velocity":110,"programNumber":29},{"time":464447.44975002797,"duration":419.64243750000605,"noteNumber":52,"velocity":110,"programNumber":29},{"time":464876.02075002796,"duration":714.2849999999744,"noteNumber":52,"velocity":110,"programNumber":29},{"time":464876.02075002796,"duration":714.2849999999744,"noteNumber":59,"velocity":110,"programNumber":29},{"time":464876.02075002796,"duration":714.2849999999744,"noteNumber":64,"velocity":110,"programNumber":29},{"time":465733.16275002796,"duration":419.64243750000605,"noteNumber":52,"velocity":110,"programNumber":29},{"time":466161.73375002795,"duration":714.2849999999744,"noteNumber":52,"velocity":110,"programNumber":29},{"time":466161.73375002795,"duration":714.2849999999744,"noteNumber":59,"velocity":110,"programNumber":29},{"time":466161.73375002795,"duration":714.2849999999744,"noteNumber":64,"velocity":110,"programNumber":29},{"time":467018.87575002795,"duration":419.64243750000605,"noteNumber":52,"velocity":110,"programNumber":29},{"time":467447.44675002794,"duration":714.2849999999744,"noteNumber":52,"velocity":110,"programNumber":29},{"time":467447.44675002794,"duration":714.2849999999744,"noteNumber":59,"velocity":110,"programNumber":29},{"time":467447.44675002794,"duration":714.2849999999744,"noteNumber":64,"velocity":110,"programNumber":29},{"time":468304.58875002794,"duration":714.2849999999744,"noteNumber":52,"velocity":110,"programNumber":29},{"time":468304.58875002794,"duration":714.2849999999744,"noteNumber":59,"velocity":110,"programNumber":29},{"time":468304.58875002794,"duration":714.2849999999744,"noteNumber":64,"velocity":110,"programNumber":29},{"time":469161.7307500279,"duration":714.2849999999744,"noteNumber":52,"velocity":110,"programNumber":29},{"time":469161.7307500279,"duration":714.2849999999744,"noteNumber":59,"velocity":110,"programNumber":29},{"time":469161.7307500279,"duration":714.2849999999744,"noteNumber":64,"velocity":110,"programNumber":29},{"time":470018.8727500279,"duration":419.64243750000605,"noteNumber":52,"velocity":110,"programNumber":29},{"time":470447.4437500279,"duration":848.2134375000023,"noteNumber":52,"velocity":110,"programNumber":29},{"time":470447.4437500279,"duration":848.2134375000023,"noteNumber":59,"velocity":110,"programNumber":29},{"time":470447.4437500279,"duration":848.2134375000023,"noteNumber":64,"velocity":110,"programNumber":29},{"time":471304.5857500279,"duration":419.64243750000605,"noteNumber":52,"velocity":110,"programNumber":29},{"time":471733.1567500279,"duration":714.2849999999744,"noteNumber":52,"velocity":110,"programNumber":29},{"time":471733.1567500279,"duration":714.2849999999744,"noteNumber":59,"velocity":110,"programNumber":29},{"time":471733.1567500279,"duration":714.2849999999744,"noteNumber":64,"velocity":110,"programNumber":29},{"time":472590.2987500279,"duration":419.64243750000605,"noteNumber":52,"velocity":110,"programNumber":29},{"time":473018.8697500279,"duration":714.2849999999744,"noteNumber":52,"velocity":110,"programNumber":29},{"time":473018.8697500279,"duration":714.2849999999744,"noteNumber":59,"velocity":110,"programNumber":29},{"time":473018.8697500279,"duration":714.2849999999744,"noteNumber":64,"velocity":110,"programNumber":29},{"time":473876.0117500279,"duration":419.64243750000605,"noteNumber":52,"velocity":110,"programNumber":29},{"time":474304.5827500279,"duration":714.2849999999744,"noteNumber":52,"velocity":110,"programNumber":29},{"time":474304.5827500279,"duration":714.2849999999744,"noteNumber":59,"velocity":110,"programNumber":29},{"time":474304.5827500279,"duration":714.2849999999744,"noteNumber":64,"velocity":110,"programNumber":29},{"time":475161.7247500279,"duration":419.64243750000605,"noteNumber":52,"velocity":110,"programNumber":29},{"time":475590.2957500279,"duration":1142.8560000000289,"noteNumber":55,"velocity":110,"programNumber":29},{"time":476876.0087500279,"duration":419.64243750000605,"noteNumber":52,"velocity":110,"programNumber":29},{"time":477304.5797500279,"duration":1142.8560000000289,"noteNumber":50,"velocity":110,"programNumber":29},{"time":478590.29275002796,"duration":419.64243750000605,"noteNumber":52,"velocity":110,"programNumber":29},{"time":479018.86375002796,"duration":1142.8560000000289,"noteNumber":55,"velocity":110,"programNumber":29},{"time":480304.576750028,"duration":419.64243750000605,"noteNumber":52,"velocity":110,"programNumber":29},{"time":480733.147750028,"duration":1142.8560000000289,"noteNumber":50,"velocity":110,"programNumber":29},{"time":482018.86075002805,"duration":419.64243750000605,"noteNumber":52,"velocity":110,"programNumber":29},{"time":482447.43175002804,"duration":1142.8560000000289,"noteNumber":52,"velocity":110,"programNumber":29},{"time":482447.43175002804,"duration":1142.8560000000289,"noteNumber":59,"velocity":110,"programNumber":29},{"time":482447.43175002804,"duration":1142.8560000000289,"noteNumber":64,"velocity":110,"programNumber":29},{"time":483733.1447500281,"duration":419.64243750000605,"noteNumber":52,"velocity":110,"programNumber":29},{"time":484161.7157500281,"duration":848.2134375000023,"noteNumber":52,"velocity":110,"programNumber":29},{"time":484161.7157500281,"duration":848.2134375000023,"noteNumber":59,"velocity":110,"programNumber":29},{"time":484161.7157500281,"duration":848.2134375000023,"noteNumber":64,"velocity":110,"programNumber":29},{"time":485018.8577500281,"duration":419.64243750000605,"noteNumber":52,"velocity":110,"programNumber":29},{"time":485447.4287500281,"duration":714.2849999999744,"noteNumber":52,"velocity":110,"programNumber":29},{"time":485447.4287500281,"duration":714.2849999999744,"noteNumber":59,"velocity":110,"programNumber":29},{"time":485447.4287500281,"duration":714.2849999999744,"noteNumber":64,"velocity":110,"programNumber":29},{"time":486304.57075002807,"duration":419.64243750000605,"noteNumber":52,"velocity":110,"programNumber":29},{"time":486733.14175002807,"duration":714.2849999999744,"noteNumber":52,"velocity":110,"programNumber":29},{"time":486733.14175002807,"duration":714.2849999999744,"noteNumber":59,"velocity":110,"programNumber":29},{"time":486733.14175002807,"duration":714.2849999999744,"noteNumber":64,"velocity":110,"programNumber":29},{"time":487590.28375002806,"duration":419.64243750000605,"noteNumber":52,"velocity":110,"programNumber":29},{"time":488018.85475002805,"duration":714.2849999999744,"noteNumber":52,"velocity":110,"programNumber":29},{"time":488018.85475002805,"duration":714.2849999999744,"noteNumber":59,"velocity":110,"programNumber":29},{"time":488018.85475002805,"duration":714.2849999999744,"noteNumber":64,"velocity":110,"programNumber":29},{"time":488875.99675002805,"duration":714.2849999999744,"noteNumber":52,"velocity":110,"programNumber":29},{"time":488875.99675002805,"duration":714.2849999999744,"noteNumber":59,"velocity":110,"programNumber":29},{"time":488875.99675002805,"duration":714.2849999999744,"noteNumber":64,"velocity":110,"programNumber":29},{"time":489733.13875002804,"duration":714.2849999999744,"noteNumber":52,"velocity":110,"programNumber":29},{"time":489733.13875002804,"duration":714.2849999999744,"noteNumber":59,"velocity":110,"programNumber":29},{"time":489733.13875002804,"duration":714.2849999999744,"noteNumber":64,"velocity":110,"programNumber":29},{"time":490590.28075002803,"duration":419.64243750000605,"noteNumber":52,"velocity":110,"programNumber":29},{"time":491018.851750028,"duration":848.2134375000023,"noteNumber":52,"velocity":110,"programNumber":29},{"time":491018.851750028,"duration":848.2134375000023,"noteNumber":59,"velocity":110,"programNumber":29},{"time":491018.851750028,"duration":848.2134375000023,"noteNumber":64,"velocity":110,"programNumber":29},{"time":491875.993750028,"duration":419.64243750000605,"noteNumber":52,"velocity":110,"programNumber":29},{"time":492304.564750028,"duration":714.2849999999744,"noteNumber":52,"velocity":110,"programNumber":29},{"time":492304.564750028,"duration":714.2849999999744,"noteNumber":59,"velocity":110,"programNumber":29},{"time":492304.564750028,"duration":714.2849999999744,"noteNumber":64,"velocity":110,"programNumber":29},{"time":493161.706750028,"duration":419.64243750000605,"noteNumber":52,"velocity":110,"programNumber":29},{"time":493590.277750028,"duration":714.2849999999744,"noteNumber":52,"velocity":110,"programNumber":29},{"time":493590.277750028,"duration":714.2849999999744,"noteNumber":59,"velocity":110,"programNumber":29},{"time":493590.277750028,"duration":714.2849999999744,"noteNumber":64,"velocity":110,"programNumber":29},{"time":494447.419750028,"duration":419.64243750000605,"noteNumber":52,"velocity":110,"programNumber":29},{"time":494875.990750028,"duration":714.2849999999744,"noteNumber":52,"velocity":110,"programNumber":29},{"time":494875.990750028,"duration":714.2849999999744,"noteNumber":59,"velocity":110,"programNumber":29},{"time":494875.990750028,"duration":714.2849999999744,"noteNumber":64,"velocity":110,"programNumber":29},{"time":495733.132750028,"duration":419.64243750000605,"noteNumber":52,"velocity":110,"programNumber":29},{"time":496161.703750028,"duration":1142.8560000000289,"noteNumber":55,"velocity":110,"programNumber":29},{"time":497447.41675002803,"duration":419.64243750000605,"noteNumber":52,"velocity":110,"programNumber":29},{"time":497875.987750028,"duration":1142.8560000000289,"noteNumber":50,"velocity":110,"programNumber":29},{"time":499161.7007500281,"duration":419.64243750000605,"noteNumber":52,"velocity":110,"programNumber":29},{"time":499590.27175002807,"duration":1142.8560000000289,"noteNumber":55,"velocity":110,"programNumber":29},{"time":500875.9847500281,"duration":419.64243750000605,"noteNumber":52,"velocity":110,"programNumber":29},{"time":501304.5557500281,"duration":1142.8560000000289,"noteNumber":50,"velocity":110,"programNumber":29},{"time":502590.26875002816,"duration":419.64243750000605,"noteNumber":52,"velocity":110,"programNumber":29},{"time":503018.83975002816,"duration":1142.8560000000289,"noteNumber":52,"velocity":110,"programNumber":29},{"time":503018.83975002816,"duration":1142.8560000000289,"noteNumber":59,"velocity":110,"programNumber":29},{"time":503018.83975002816,"duration":1142.8560000000289,"noteNumber":64,"velocity":110,"programNumber":29},{"time":504304.5527500282,"duration":419.64243750000605,"noteNumber":52,"velocity":110,"programNumber":29},{"time":504733.1237500282,"duration":848.2134375000023,"noteNumber":52,"velocity":110,"programNumber":29},{"time":504733.1237500282,"duration":848.2134375000023,"noteNumber":59,"velocity":110,"programNumber":29},{"time":504733.1237500282,"duration":848.2134375000023,"noteNumber":64,"velocity":110,"programNumber":29},{"time":505590.2657500282,"duration":419.64243750000605,"noteNumber":52,"velocity":110,"programNumber":29},{"time":506018.8367500282,"duration":714.2849999999744,"noteNumber":52,"velocity":110,"programNumber":29},{"time":506018.8367500282,"duration":714.2849999999744,"noteNumber":59,"velocity":110,"programNumber":29},{"time":506018.8367500282,"duration":714.2849999999744,"noteNumber":64,"velocity":110,"programNumber":29},{"time":506875.9787500282,"duration":419.64243750000605,"noteNumber":52,"velocity":110,"programNumber":29},{"time":507304.5497500282,"duration":714.2849999999744,"noteNumber":52,"velocity":110,"programNumber":29},{"time":507304.5497500282,"duration":714.2849999999744,"noteNumber":59,"velocity":110,"programNumber":29},{"time":507304.5497500282,"duration":714.2849999999744,"noteNumber":64,"velocity":110,"programNumber":29},{"time":508161.69175002817,"duration":419.64243750000605,"noteNumber":52,"velocity":110,"programNumber":29},{"time":508590.26275002817,"duration":714.2849999999744,"noteNumber":52,"velocity":110,"programNumber":29},{"time":508590.26275002817,"duration":714.2849999999744,"noteNumber":59,"velocity":110,"programNumber":29},{"time":508590.26275002817,"duration":714.2849999999744,"noteNumber":64,"velocity":110,"programNumber":29},{"time":509447.40475002816,"duration":714.2849999999744,"noteNumber":52,"velocity":110,"programNumber":29},{"time":509447.40475002816,"duration":714.2849999999744,"noteNumber":59,"velocity":110,"programNumber":29},{"time":509447.40475002816,"duration":714.2849999999744,"noteNumber":64,"velocity":110,"programNumber":29},{"time":510304.54675002815,"duration":714.2849999999744,"noteNumber":52,"velocity":110,"programNumber":29},{"time":510304.54675002815,"duration":714.2849999999744,"noteNumber":59,"velocity":110,"programNumber":29},{"time":510304.54675002815,"duration":714.2849999999744,"noteNumber":64,"velocity":110,"programNumber":29},{"time":511161.68875002814,"duration":419.64243750000605,"noteNumber":52,"velocity":110,"programNumber":29},{"time":511590.25975002814,"duration":848.2134375000023,"noteNumber":52,"velocity":110,"programNumber":29},{"time":511590.25975002814,"duration":848.2134375000023,"noteNumber":59,"velocity":110,"programNumber":29},{"time":511590.25975002814,"duration":848.2134375000023,"noteNumber":64,"velocity":110,"programNumber":29},{"time":512447.40175002813,"duration":419.64243750000605,"noteNumber":52,"velocity":110,"programNumber":29},{"time":512875.97275002813,"duration":714.2849999999744,"noteNumber":52,"velocity":110,"programNumber":29},{"time":512875.97275002813,"duration":714.2849999999744,"noteNumber":59,"velocity":110,"programNumber":29},{"time":512875.97275002813,"duration":714.2849999999744,"noteNumber":64,"velocity":110,"programNumber":29},{"time":513733.1147500281,"duration":419.64243750000605,"noteNumber":52,"velocity":110,"programNumber":29},{"time":514161.6857500281,"duration":714.2849999999744,"noteNumber":52,"velocity":110,"programNumber":29},{"time":514161.6857500281,"duration":714.2849999999744,"noteNumber":59,"velocity":110,"programNumber":29},{"time":514161.6857500281,"duration":714.2849999999744,"noteNumber":64,"velocity":110,"programNumber":29},{"time":515018.8277500281,"duration":419.64243750000605,"noteNumber":52,"velocity":110,"programNumber":29},{"time":515447.3987500281,"duration":714.2849999999744,"noteNumber":52,"velocity":110,"programNumber":29},{"time":515447.3987500281,"duration":714.2849999999744,"noteNumber":59,"velocity":110,"programNumber":29},{"time":515447.3987500281,"duration":714.2849999999744,"noteNumber":64,"velocity":110,"programNumber":29},{"time":516304.5407500281,"duration":419.64243750000605,"noteNumber":52,"velocity":110,"programNumber":29},{"time":516733.1117500281,"duration":1142.8560000000289,"noteNumber":59,"velocity":110,"programNumber":29},{"time":518018.82475002814,"duration":419.64243750000605,"noteNumber":55,"velocity":110,"programNumber":29},{"time":518447.39575002814,"duration":1142.8560000000289,"noteNumber":54,"velocity":110,"programNumber":29},{"time":519733.1087500282,"duration":419.64243750000605,"noteNumber":55,"velocity":110,"programNumber":29},{"time":520161.6797500282,"duration":1142.8560000000289,"noteNumber":59,"velocity":110,"programNumber":29},{"time":521447.39275002823,"duration":419.64243750000605,"noteNumber":55,"velocity":110,"programNumber":29},{"time":521875.9637500282,"duration":1142.8560000000289,"noteNumber":54,"velocity":110,"programNumber":29},{"time":523161.6767500283,"duration":419.64243750000605,"noteNumber":55,"velocity":110,"programNumber":29},{"time":523590.24775002827,"duration":1142.8560000000289,"noteNumber":52,"velocity":110,"programNumber":29},{"time":523590.24775002827,"duration":1142.8560000000289,"noteNumber":59,"velocity":110,"programNumber":29},{"time":523590.24775002827,"duration":1142.8560000000289,"noteNumber":64,"velocity":110,"programNumber":29},{"time":524875.9607500283,"duration":419.64243749994785,"noteNumber":52,"velocity":110,"programNumber":29},{"time":525304.5317500283,"duration":848.2134374999441,"noteNumber":52,"velocity":110,"programNumber":29},{"time":525304.5317500283,"duration":848.2134374999441,"noteNumber":59,"velocity":110,"programNumber":29},{"time":525304.5317500283,"duration":848.2134374999441,"noteNumber":64,"velocity":110,"programNumber":29},{"time":526161.6737500282,"duration":419.64243749994785,"noteNumber":52,"velocity":110,"programNumber":29},{"time":526590.2447500282,"duration":714.2850000000326,"noteNumber":52,"velocity":110,"programNumber":29},{"time":526590.2447500282,"duration":714.2850000000326,"noteNumber":59,"velocity":110,"programNumber":29},{"time":526590.2447500282,"duration":714.2850000000326,"noteNumber":64,"velocity":110,"programNumber":29},{"time":527447.3867500282,"duration":419.64243749994785,"noteNumber":52,"velocity":110,"programNumber":29},{"time":527875.9577500282,"duration":714.2850000000326,"noteNumber":52,"velocity":110,"programNumber":29},{"time":527875.9577500282,"duration":714.2850000000326,"noteNumber":59,"velocity":110,"programNumber":29},{"time":527875.9577500282,"duration":714.2850000000326,"noteNumber":64,"velocity":110,"programNumber":29},{"time":528733.0997500282,"duration":419.64243749994785,"noteNumber":52,"velocity":110,"programNumber":29},{"time":529161.6707500282,"duration":714.2850000000326,"noteNumber":52,"velocity":110,"programNumber":29},{"time":529161.6707500282,"duration":714.2850000000326,"noteNumber":59,"velocity":110,"programNumber":29},{"time":529161.6707500282,"duration":714.2850000000326,"noteNumber":64,"velocity":110,"programNumber":29},{"time":530018.8127500282,"duration":714.2850000000326,"noteNumber":52,"velocity":110,"programNumber":29},{"time":530018.8127500282,"duration":714.2850000000326,"noteNumber":59,"velocity":110,"programNumber":29},{"time":530018.8127500282,"duration":714.2850000000326,"noteNumber":64,"velocity":110,"programNumber":29},{"time":530875.9547500282,"duration":714.2850000000326,"noteNumber":52,"velocity":110,"programNumber":29},{"time":530875.9547500282,"duration":714.2850000000326,"noteNumber":59,"velocity":110,"programNumber":29},{"time":530875.9547500282,"duration":714.2850000000326,"noteNumber":64,"velocity":110,"programNumber":29},{"time":531733.0967500282,"duration":419.64243749994785,"noteNumber":52,"velocity":110,"programNumber":29},{"time":532161.6677500282,"duration":848.2134374999441,"noteNumber":52,"velocity":110,"programNumber":29},{"time":532161.6677500282,"duration":848.2134374999441,"noteNumber":59,"velocity":110,"programNumber":29},{"time":532161.6677500282,"duration":848.2134374999441,"noteNumber":64,"velocity":110,"programNumber":29},{"time":533018.8097500282,"duration":419.64243749994785,"noteNumber":52,"velocity":110,"programNumber":29},{"time":533447.3807500282,"duration":714.2850000000326,"noteNumber":52,"velocity":110,"programNumber":29},{"time":533447.3807500282,"duration":714.2850000000326,"noteNumber":59,"velocity":110,"programNumber":29},{"time":533447.3807500282,"duration":714.2850000000326,"noteNumber":64,"velocity":110,"programNumber":29},{"time":534304.5227500282,"duration":419.64243749994785,"noteNumber":52,"velocity":110,"programNumber":29},{"time":534733.0937500282,"duration":714.2850000000326,"noteNumber":52,"velocity":110,"programNumber":29},{"time":534733.0937500282,"duration":714.2850000000326,"noteNumber":59,"velocity":110,"programNumber":29},{"time":534733.0937500282,"duration":714.2850000000326,"noteNumber":64,"velocity":110,"programNumber":29},{"time":535590.2357500282,"duration":419.64243749994785,"noteNumber":52,"velocity":110,"programNumber":29},{"time":536018.8067500282,"duration":714.2850000000326,"noteNumber":52,"velocity":110,"programNumber":29},{"time":536018.8067500282,"duration":714.2850000000326,"noteNumber":59,"velocity":110,"programNumber":29},{"time":536018.8067500282,"duration":714.2850000000326,"noteNumber":64,"velocity":110,"programNumber":29},{"time":536875.9487500282,"duration":419.64243749994785,"noteNumber":52,"velocity":110,"programNumber":29},{"time":537304.5197500282,"duration":1142.8560000000289,"noteNumber":59,"velocity":110,"programNumber":29},{"time":538590.2327500281,"duration":419.64243749994785,"noteNumber":55,"velocity":110,"programNumber":29},{"time":539018.8037500281,"duration":1142.8560000000289,"noteNumber":54,"velocity":110,"programNumber":29},{"time":540304.5167500281,"duration":419.64243749994785,"noteNumber":55,"velocity":110,"programNumber":29},{"time":540733.0877500281,"duration":1142.8560000000289,"noteNumber":59,"velocity":110,"programNumber":29},{"time":542018.8007500281,"duration":419.64243749994785,"noteNumber":55,"velocity":110,"programNumber":29},{"time":542447.3717500281,"duration":1142.8560000000289,"noteNumber":54,"velocity":110,"programNumber":29},{"time":543733.0847500281,"duration":419.64243749994785,"noteNumber":55,"velocity":110,"programNumber":29},{"time":544161.6557500281,"duration":1142.8560000000289,"noteNumber":52,"velocity":110,"programNumber":29},{"time":544161.6557500281,"duration":1142.8560000000289,"noteNumber":59,"velocity":110,"programNumber":29},{"time":544161.6557500281,"duration":1142.8560000000289,"noteNumber":64,"velocity":110,"programNumber":29},{"time":545447.3687500281,"duration":419.64243749994785,"noteNumber":52,"velocity":110,"programNumber":29},{"time":545875.9397500281,"duration":848.2134374999441,"noteNumber":52,"velocity":110,"programNumber":29},{"time":545875.9397500281,"duration":848.2134374999441,"noteNumber":59,"velocity":110,"programNumber":29},{"time":545875.9397500281,"duration":848.2134374999441,"noteNumber":64,"velocity":110,"programNumber":29},{"time":546733.0817500281,"duration":419.64243749994785,"noteNumber":52,"velocity":110,"programNumber":29},{"time":547161.6527500281,"duration":714.2850000000326,"noteNumber":52,"velocity":110,"programNumber":29},{"time":547161.6527500281,"duration":714.2850000000326,"noteNumber":59,"velocity":110,"programNumber":29},{"time":547161.6527500281,"duration":714.2850000000326,"noteNumber":64,"velocity":110,"programNumber":29},{"time":548018.794750028,"duration":419.64243749994785,"noteNumber":52,"velocity":110,"programNumber":29},{"time":548447.365750028,"duration":714.2850000000326,"noteNumber":52,"velocity":110,"programNumber":29},{"time":548447.365750028,"duration":714.2850000000326,"noteNumber":59,"velocity":110,"programNumber":29},{"time":548447.365750028,"duration":714.2850000000326,"noteNumber":64,"velocity":110,"programNumber":29},{"time":549304.507750028,"duration":419.64243749994785,"noteNumber":52,"velocity":110,"programNumber":29},{"time":549733.078750028,"duration":714.2850000000326,"noteNumber":52,"velocity":110,"programNumber":29},{"time":549733.078750028,"duration":714.2850000000326,"noteNumber":59,"velocity":110,"programNumber":29},{"time":549733.078750028,"duration":714.2850000000326,"noteNumber":64,"velocity":110,"programNumber":29},{"time":550590.220750028,"duration":714.2850000000326,"noteNumber":52,"velocity":110,"programNumber":29},{"time":550590.220750028,"duration":714.2850000000326,"noteNumber":59,"velocity":110,"programNumber":29},{"time":550590.220750028,"duration":714.2850000000326,"noteNumber":64,"velocity":110,"programNumber":29},{"time":551447.362750028,"duration":714.2850000000326,"noteNumber":52,"velocity":110,"programNumber":29},{"time":551447.362750028,"duration":714.2850000000326,"noteNumber":59,"velocity":110,"programNumber":29},{"time":551447.362750028,"duration":714.2850000000326,"noteNumber":64,"velocity":110,"programNumber":29},{"time":552304.504750028,"duration":419.64243749994785,"noteNumber":52,"velocity":110,"programNumber":29},{"time":552733.075750028,"duration":848.2134374999441,"noteNumber":52,"velocity":110,"programNumber":29},{"time":552733.075750028,"duration":848.2134374999441,"noteNumber":59,"velocity":110,"programNumber":29},{"time":552733.075750028,"duration":848.2134374999441,"noteNumber":64,"velocity":110,"programNumber":29},{"time":553590.217750028,"duration":419.64243749994785,"noteNumber":52,"velocity":110,"programNumber":29},{"time":554018.788750028,"duration":714.2850000000326,"noteNumber":52,"velocity":110,"programNumber":29},{"time":554018.788750028,"duration":714.2850000000326,"noteNumber":59,"velocity":110,"programNumber":29},{"time":554018.788750028,"duration":714.2850000000326,"noteNumber":64,"velocity":110,"programNumber":29},{"time":554875.930750028,"duration":419.64243749994785,"noteNumber":52,"velocity":110,"programNumber":29},{"time":555304.501750028,"duration":714.2850000000326,"noteNumber":52,"velocity":110,"programNumber":29},{"time":555304.501750028,"duration":714.2850000000326,"noteNumber":59,"velocity":110,"programNumber":29},{"time":555304.501750028,"duration":714.2850000000326,"noteNumber":64,"velocity":110,"programNumber":29},{"time":556161.643750028,"duration":419.64243749994785,"noteNumber":52,"velocity":110,"programNumber":29},{"time":556590.214750028,"duration":714.2850000000326,"noteNumber":52,"velocity":110,"programNumber":29},{"time":556590.214750028,"duration":714.2850000000326,"noteNumber":59,"velocity":110,"programNumber":29},{"time":556590.214750028,"duration":714.2850000000326,"noteNumber":64,"velocity":110,"programNumber":29},{"time":557447.356750028,"duration":714.2850000000326,"noteNumber":52,"velocity":110,"programNumber":29},{"time":557447.356750028,"duration":714.2850000000326,"noteNumber":59,"velocity":110,"programNumber":29},{"time":557447.356750028,"duration":714.2850000000326,"noteNumber":64,"velocity":110,"programNumber":29},{"time":558304.498750028,"duration":419.64243749994785,"noteNumber":67,"velocity":110,"programNumber":30},{"time":558733.069750028,"duration":419.64243749994785,"noteNumber":69,"velocity":110,"programNumber":30},{"time":559161.640750028,"duration":419.64243749994785,"noteNumber":71,"velocity":110,"programNumber":30},{"time":559590.211750028,"duration":419.64243749994785,"noteNumber":69,"velocity":110,"programNumber":30},{"time":560018.782750028,"duration":419.64243749994785,"noteNumber":71,"velocity":110,"programNumber":30},{"time":560447.353750028,"duration":419.64243749994785,"noteNumber":72,"velocity":110,"programNumber":30},{"time":560875.924750028,"duration":419.64243749994785,"noteNumber":71,"velocity":110,"programNumber":30},{"time":561304.4957500279,"duration":419.64243749994785,"noteNumber":69,"velocity":110,"programNumber":30},{"time":561733.0667500279,"duration":714.2850000000326,"noteNumber":74,"velocity":110,"programNumber":30},{"time":562590.2087500279,"duration":419.64243749994785,"noteNumber":71,"velocity":110,"programNumber":30},{"time":563018.7797500279,"duration":419.64243749994785,"noteNumber":69,"velocity":110,"programNumber":30},{"time":563447.3507500279,"duration":419.64243749994785,"noteNumber":71,"velocity":110,"programNumber":30},{"time":563875.9217500279,"duration":419.64243749994785,"noteNumber":69,"velocity":110,"programNumber":30},{"time":564304.4927500279,"duration":1276.7844375000568,"noteNumber":67,"velocity":110,"programNumber":30},{"time":565590.205750028,"duration":419.64243749994785,"noteNumber":69,"velocity":110,"programNumber":30},{"time":566018.776750028,"duration":419.64243749994785,"noteNumber":71,"velocity":110,"programNumber":30},{"time":566447.347750028,"duration":419.64243749994785,"noteNumber":69,"velocity":110,"programNumber":30},{"time":566875.918750028,"duration":419.64243749994785,"noteNumber":71,"velocity":110,"programNumber":30},{"time":567304.489750028,"duration":419.64243749994785,"noteNumber":72,"velocity":110,"programNumber":30},{"time":567733.060750028,"duration":419.64243749994785,"noteNumber":71,"velocity":110,"programNumber":30},{"time":568161.631750028,"duration":419.64243749994785,"noteNumber":69,"velocity":110,"programNumber":30},{"time":568590.202750028,"duration":714.2850000000326,"noteNumber":74,"velocity":110,"programNumber":30},{"time":569447.344750028,"duration":419.64243749994785,"noteNumber":71,"velocity":110,"programNumber":30},{"time":569875.915750028,"duration":419.64243749994785,"noteNumber":69,"velocity":110,"programNumber":30},{"time":570304.486750028,"duration":419.64243749994785,"noteNumber":71,"velocity":110,"programNumber":30},{"time":570733.057750028,"duration":419.64243749994785,"noteNumber":69,"velocity":110,"programNumber":30},{"time":571161.628750028,"duration":1276.7844375000568,"noteNumber":67,"velocity":110,"programNumber":30},{"time":572447.3417500281,"duration":419.64243749994785,"noteNumber":69,"velocity":110,"programNumber":30},{"time":572875.9127500281,"duration":419.64243749994785,"noteNumber":71,"velocity":110,"programNumber":30},{"time":573304.4837500281,"duration":419.64243749994785,"noteNumber":69,"velocity":110,"programNumber":30},{"time":573733.0547500281,"duration":419.64243749994785,"noteNumber":71,"velocity":110,"programNumber":30},{"time":574161.6257500281,"duration":419.64243749994785,"noteNumber":72,"velocity":110,"programNumber":30},{"time":574590.1967500281,"duration":419.64243749994785,"noteNumber":71,"velocity":110,"programNumber":30},{"time":575018.767750028,"duration":419.64243749994785,"noteNumber":69,"velocity":110,"programNumber":30},{"time":575447.338750028,"duration":714.2850000000326,"noteNumber":74,"velocity":110,"programNumber":30},{"time":576304.480750028,"duration":419.64243749994785,"noteNumber":71,"velocity":110,"programNumber":30},{"time":576733.051750028,"duration":419.64243749994785,"noteNumber":69,"velocity":110,"programNumber":30},{"time":577161.622750028,"duration":419.64243749994785,"noteNumber":71,"velocity":110,"programNumber":30},{"time":577590.193750028,"duration":419.64243749994785,"noteNumber":69,"velocity":110,"programNumber":30},{"time":578018.764750028,"duration":1276.7844375000568,"noteNumber":67,"velocity":110,"programNumber":30},{"time":579304.4777500281,"duration":419.64243749994785,"noteNumber":69,"velocity":110,"programNumber":30},{"time":579733.0487500281,"duration":419.64243749994785,"noteNumber":71,"velocity":110,"programNumber":30},{"time":580161.6197500281,"duration":419.64243749994785,"noteNumber":69,"velocity":110,"programNumber":30},{"time":580590.1907500281,"duration":419.64243749994785,"noteNumber":71,"velocity":110,"programNumber":30},{"time":581018.7617500281,"duration":419.64243749994785,"noteNumber":72,"velocity":110,"programNumber":30},{"time":581447.3327500281,"duration":419.64243749994785,"noteNumber":71,"velocity":110,"programNumber":30},{"time":581875.9037500281,"duration":419.64243749994785,"noteNumber":69,"velocity":110,"programNumber":30},{"time":582304.4747500281,"duration":714.2850000000326,"noteNumber":74,"velocity":110,"programNumber":30},{"time":583161.6167500281,"duration":419.64243749994785,"noteNumber":71,"velocity":110,"programNumber":30},{"time":583590.1877500281,"duration":419.64243749994785,"noteNumber":69,"velocity":110,"programNumber":30},{"time":584018.7587500281,"duration":419.64243749994785,"noteNumber":71,"velocity":110,"programNumber":30},{"time":584447.3297500281,"duration":419.64243749994785,"noteNumber":69,"velocity":110,"programNumber":30},{"time":584875.9007500281,"duration":1276.7844375000568,"noteNumber":67,"velocity":110,"programNumber":30},{"time":586161.6137500282,"duration":419.64243749994785,"noteNumber":69,"velocity":110,"programNumber":30},{"time":586590.1847500282,"duration":419.64243749994785,"noteNumber":71,"velocity":110,"programNumber":30},{"time":587018.7557500282,"duration":419.64243749994785,"noteNumber":69,"velocity":110,"programNumber":30},{"time":587447.3267500282,"duration":419.64243749994785,"noteNumber":71,"velocity":110,"programNumber":30},{"time":587875.8977500282,"duration":419.64243749994785,"noteNumber":72,"velocity":110,"programNumber":30},{"time":588304.4687500282,"duration":419.64243749994785,"noteNumber":71,"velocity":110,"programNumber":30},{"time":588733.0397500282,"duration":419.64243749994785,"noteNumber":69,"velocity":110,"programNumber":30},{"time":589161.6107500282,"duration":714.2850000000326,"noteNumber":74,"velocity":110,"programNumber":30},{"time":590018.7527500282,"duration":419.64243749994785,"noteNumber":71,"velocity":110,"programNumber":30},{"time":590447.3237500282,"duration":419.64243749994785,"noteNumber":69,"velocity":110,"programNumber":30},{"time":590875.8947500282,"duration":419.64243749994785,"noteNumber":71,"velocity":110,"programNumber":30},{"time":591304.4657500281,"duration":419.64243749994785,"noteNumber":69,"velocity":110,"programNumber":30},{"time":591733.0367500281,"duration":1276.7844375000568,"noteNumber":67,"velocity":110,"programNumber":30},{"time":593018.7497500282,"duration":419.64243749994785,"noteNumber":69,"velocity":110,"programNumber":30},{"time":593447.3207500282,"duration":419.64243749994785,"noteNumber":71,"velocity":110,"programNumber":30},{"time":593875.8917500282,"duration":419.64243749994785,"noteNumber":69,"velocity":110,"programNumber":30},{"time":594304.4627500282,"duration":419.64243749994785,"noteNumber":71,"velocity":110,"programNumber":30},{"time":594733.0337500282,"duration":419.64243749994785,"noteNumber":72,"velocity":110,"programNumber":30},{"time":595161.6047500282,"duration":419.64243749994785,"noteNumber":71,"velocity":110,"programNumber":30},{"time":595590.1757500282,"duration":419.64243749994785,"noteNumber":69,"velocity":110,"programNumber":30},{"time":596018.7467500282,"duration":714.2850000000326,"noteNumber":74,"velocity":110,"programNumber":30},{"time":596875.8887500282,"duration":419.64243749994785,"noteNumber":71,"velocity":110,"programNumber":30},{"time":597304.4597500282,"duration":419.64243749994785,"noteNumber":69,"velocity":110,"programNumber":30},{"time":597733.0307500282,"duration":419.64243749994785,"noteNumber":71,"velocity":110,"programNumber":30},{"time":598161.6017500282,"duration":419.64243749994785,"noteNumber":69,"velocity":110,"programNumber":30},{"time":598590.1727500282,"duration":1276.7844375000568,"noteNumber":67,"velocity":110,"programNumber":30},{"time":599875.8857500283,"duration":419.64243749994785,"noteNumber":69,"velocity":110,"programNumber":30},{"time":600304.4567500283,"duration":419.64243749994785,"noteNumber":71,"velocity":110,"programNumber":30},{"time":600733.0277500283,"duration":419.64243749994785,"noteNumber":69,"velocity":110,"programNumber":30},{"time":601161.5987500283,"duration":419.64243749994785,"noteNumber":71,"velocity":110,"programNumber":30},{"time":601590.1697500283,"duration":419.64243749994785,"noteNumber":72,"velocity":110,"programNumber":30},{"time":602018.7407500283,"duration":419.64243749994785,"noteNumber":71,"velocity":110,"programNumber":30},{"time":602447.3117500283,"duration":419.64243749994785,"noteNumber":69,"velocity":110,"programNumber":30},{"time":602875.8827500283,"duration":714.2850000000326,"noteNumber":74,"velocity":110,"programNumber":30},{"time":603733.0247500283,"duration":419.64243749994785,"noteNumber":71,"velocity":110,"programNumber":30},{"time":604161.5957500283,"duration":419.64243749994785,"noteNumber":69,"velocity":110,"programNumber":30},{"time":604590.1667500283,"duration":419.64243749994785,"noteNumber":71,"velocity":110,"programNumber":30},{"time":605018.7377500283,"duration":419.64243749994785,"noteNumber":69,"velocity":110,"programNumber":30},{"time":605447.3087500283,"duration":1276.7844375000568,"noteNumber":67,"velocity":110,"programNumber":30},{"time":606733.0217500284,"duration":419.64243749994785,"noteNumber":69,"velocity":110,"programNumber":30},{"time":607161.5927500284,"duration":419.64243749994785,"noteNumber":71,"velocity":110,"programNumber":30},{"time":607590.1637500284,"duration":419.64243749994785,"noteNumber":69,"velocity":110,"programNumber":30},{"time":608018.7347500284,"duration":419.64243749994785,"noteNumber":71,"velocity":110,"programNumber":30},{"time":608447.3057500283,"duration":419.64243749994785,"noteNumber":72,"velocity":110,"programNumber":30},{"time":608875.8767500283,"duration":419.64243749994785,"noteNumber":71,"velocity":110,"programNumber":30},{"time":609304.4477500283,"duration":419.64243749994785,"noteNumber":69,"velocity":110,"programNumber":30},{"time":609733.0187500283,"duration":714.2850000000326,"noteNumber":74,"velocity":110,"programNumber":30},{"time":610590.1607500283,"duration":419.64243749994785,"noteNumber":71,"velocity":110,"programNumber":30},{"time":611018.7317500283,"duration":419.64243749994785,"noteNumber":69,"velocity":110,"programNumber":30},{"time":611447.3027500283,"duration":419.64243749994785,"noteNumber":71,"velocity":110,"programNumber":30},{"time":611875.8737500283,"duration":419.64243749994785,"noteNumber":69,"velocity":110,"programNumber":30},{"time":612304.4447500283,"duration":714.2850000000326,"noteNumber":67,"velocity":110,"programNumber":30},{"time":613161.5867500283,"duration":419.64243749994785,"noteNumber":67,"velocity":110,"programNumber":30},{"time":613590.1577500283,"duration":419.64243749994785,"noteNumber":69,"velocity":110,"programNumber":30},{"time":614018.7287500283,"duration":419.64243749994785,"noteNumber":71,"velocity":110,"programNumber":30},{"time":614447.2997500283,"duration":419.64243749994785,"noteNumber":69,"velocity":110,"programNumber":30},{"time":614875.8707500283,"duration":419.64243749994785,"noteNumber":71,"velocity":110,"programNumber":30},{"time":615304.4417500283,"duration":419.64243749994785,"noteNumber":72,"velocity":110,"programNumber":30},{"time":615733.0127500283,"duration":419.64243749994785,"noteNumber":71,"velocity":110,"programNumber":30},{"time":616161.5837500283,"duration":419.64243749994785,"noteNumber":69,"velocity":110,"programNumber":30},{"time":616590.1547500283,"duration":714.2850000000326,"noteNumber":74,"velocity":110,"programNumber":30},{"time":617447.2967500283,"duration":419.64243749994785,"noteNumber":71,"velocity":110,"programNumber":30},{"time":617875.8677500283,"duration":419.64243749994785,"noteNumber":69,"velocity":110,"programNumber":30},{"time":618304.4387500283,"duration":419.64243749994785,"noteNumber":71,"velocity":110,"programNumber":30},{"time":618733.0097500283,"duration":419.64243749994785,"noteNumber":69,"velocity":110,"programNumber":30},{"time":619161.5807500283,"duration":1276.7844375000568,"noteNumber":67,"velocity":110,"programNumber":30},{"time":620447.2937500284,"duration":419.64243749994785,"noteNumber":69,"velocity":110,"programNumber":30},{"time":620875.8647500284,"duration":419.64243749994785,"noteNumber":71,"velocity":110,"programNumber":30},{"time":621304.4357500284,"duration":419.64243749994785,"noteNumber":69,"velocity":110,"programNumber":30},{"time":621733.0067500283,"duration":419.64243749994785,"noteNumber":71,"velocity":110,"programNumber":30},{"time":622161.5777500283,"duration":419.64243749994785,"noteNumber":72,"velocity":110,"programNumber":30},{"time":622590.1487500283,"duration":419.64243749994785,"noteNumber":71,"velocity":110,"programNumber":30},{"time":623018.7197500283,"duration":419.64243749994785,"noteNumber":69,"velocity":110,"programNumber":30},{"time":623447.2907500283,"duration":714.2850000000326,"noteNumber":74,"velocity":110,"programNumber":30},{"time":624304.4327500283,"duration":419.64243749994785,"noteNumber":71,"velocity":110,"programNumber":30},{"time":624733.0037500283,"duration":419.64243749994785,"noteNumber":69,"velocity":110,"programNumber":30},{"time":625161.5747500283,"duration":419.64243749994785,"noteNumber":71,"velocity":110,"programNumber":30},{"time":625590.1457500283,"duration":419.64243749994785,"noteNumber":69,"velocity":110,"programNumber":30},{"time":626018.7167500283,"duration":1276.7844375000568,"noteNumber":67,"velocity":110,"programNumber":30},{"time":627304.4297500284,"duration":419.64243749994785,"noteNumber":69,"velocity":110,"programNumber":30},{"time":627733.0007500284,"duration":419.64243749994785,"noteNumber":71,"velocity":110,"programNumber":30},{"time":628161.5717500284,"duration":419.64243749994785,"noteNumber":69,"velocity":110,"programNumber":30},{"time":628590.1427500284,"duration":419.64243749994785,"noteNumber":71,"velocity":110,"programNumber":30},{"time":629018.7137500284,"duration":419.64243749994785,"noteNumber":72,"velocity":110,"programNumber":30},{"time":629447.2847500284,"duration":419.64243749994785,"noteNumber":71,"velocity":110,"programNumber":30},{"time":629875.8557500284,"duration":419.64243749994785,"noteNumber":69,"velocity":110,"programNumber":30},{"time":630304.4267500284,"duration":714.2850000000326,"noteNumber":74,"velocity":110,"programNumber":30},{"time":631161.5687500284,"duration":419.64243749994785,"noteNumber":71,"velocity":110,"programNumber":30},{"time":631590.1397500284,"duration":419.64243749994785,"noteNumber":69,"velocity":110,"programNumber":30},{"time":632018.7107500284,"duration":419.64243749994785,"noteNumber":71,"velocity":110,"programNumber":30},{"time":632447.2817500284,"duration":419.64243749994785,"noteNumber":69,"velocity":110,"programNumber":30},{"time":632875.8527500284,"duration":714.2850000000326,"noteNumber":67,"velocity":110,"programNumber":30},{"time":633732.9947500284,"duration":1142.8560000000289,"noteNumber":64,"velocity":110,"programNumber":30},{"time":633732.9947500284,"duration":1142.8560000000289,"noteNumber":71,"velocity":110,"programNumber":30},{"time":633732.9947500284,"duration":1142.8560000000289,"noteNumber":76,"velocity":110,"programNumber":30},{"time":635018.7077500283,"duration":1142.8560000000289,"noteNumber":59,"velocity":110,"programNumber":30},{"time":635018.7077500283,"duration":1142.8560000000289,"noteNumber":66,"velocity":110,"programNumber":30},{"time":635018.7077500283,"duration":1142.8560000000289,"noteNumber":71,"velocity":110,"programNumber":30},{"time":636304.4207500283,"duration":1276.7844375000568,"noteNumber":60,"velocity":110,"programNumber":30},{"time":636304.4207500283,"duration":1276.7844375000568,"noteNumber":67,"velocity":110,"programNumber":30},{"time":636304.4207500283,"duration":1276.7844375000568,"noteNumber":72,"velocity":110,"programNumber":30},{"time":637590.1337500284,"duration":419.64243749994785,"noteNumber":59,"velocity":110,"programNumber":30},{"time":638018.7047500284,"duration":419.64243749994785,"noteNumber":60,"velocity":110,"programNumber":30},{"time":638447.2757500284,"duration":419.64243749994785,"noteNumber":59,"velocity":110,"programNumber":30},{"time":638875.8467500284,"duration":419.64243749994785,"noteNumber":67,"velocity":110,"programNumber":30},{"time":639304.4177500284,"duration":419.64243749994785,"noteNumber":66,"velocity":110,"programNumber":30},{"time":639732.9887500284,"duration":419.64243749994785,"noteNumber":64,"velocity":110,"programNumber":30},{"time":640161.5597500284,"duration":419.64243749994785,"noteNumber":62,"velocity":110,"programNumber":30},{"time":640590.1307500284,"duration":419.64243749994785,"noteNumber":67,"velocity":110,"programNumber":30},{"time":641018.7017500284,"duration":419.64243749994785,"noteNumber":69,"velocity":110,"programNumber":30},{"time":641447.2727500284,"duration":419.64243749994785,"noteNumber":71,"velocity":110,"programNumber":30},{"time":641875.8437500284,"duration":419.64243749994785,"noteNumber":69,"velocity":110,"programNumber":30},{"time":642304.4147500284,"duration":419.64243749994785,"noteNumber":71,"velocity":110,"programNumber":30},{"time":642732.9857500284,"duration":419.64243749994785,"noteNumber":72,"velocity":110,"programNumber":30},{"time":643161.5567500284,"duration":419.64243749994785,"noteNumber":71,"velocity":110,"programNumber":30},{"time":643590.1277500284,"duration":419.64243749994785,"noteNumber":69,"velocity":110,"programNumber":30},{"time":644018.6987500284,"duration":714.2850000000326,"noteNumber":74,"velocity":110,"programNumber":30},{"time":644875.8407500284,"duration":419.64243749994785,"noteNumber":71,"velocity":110,"programNumber":30},{"time":645304.4117500284,"duration":419.64243749994785,"noteNumber":69,"velocity":110,"programNumber":30},{"time":645732.9827500284,"duration":419.64243749994785,"noteNumber":71,"velocity":110,"programNumber":30},{"time":646161.5537500284,"duration":419.64243749994785,"noteNumber":69,"velocity":110,"programNumber":30},{"time":646590.1247500284,"duration":1276.7844375000568,"noteNumber":67,"velocity":110,"programNumber":30},{"time":647875.8377500285,"duration":419.64243749994785,"noteNumber":69,"velocity":110,"programNumber":30},{"time":648304.4087500285,"duration":419.64243749994785,"noteNumber":71,"velocity":110,"programNumber":30},{"time":648732.9797500285,"duration":419.64243749994785,"noteNumber":69,"velocity":110,"programNumber":30},{"time":649161.5507500285,"duration":419.64243749994785,"noteNumber":71,"velocity":110,"programNumber":30},{"time":649590.1217500285,"duration":419.64243749994785,"noteNumber":72,"velocity":110,"programNumber":30},{"time":650018.6927500285,"duration":419.64243749994785,"noteNumber":71,"velocity":110,"programNumber":30},{"time":650447.2637500284,"duration":419.64243749994785,"noteNumber":69,"velocity":110,"programNumber":30},{"time":650875.8347500284,"duration":714.2850000000326,"noteNumber":74,"velocity":110,"programNumber":30},{"time":651732.9767500284,"duration":419.64243749994785,"noteNumber":71,"velocity":110,"programNumber":30},{"time":652161.5477500284,"duration":419.64243749994785,"noteNumber":69,"velocity":110,"programNumber":30},{"time":652590.1187500284,"duration":419.64243749994785,"noteNumber":71,"velocity":110,"programNumber":30},{"time":653018.6897500284,"duration":419.64243749994785,"noteNumber":69,"velocity":110,"programNumber":30},{"time":653447.2607500284,"duration":1276.7844375000568,"noteNumber":67,"velocity":110,"programNumber":30},{"time":654732.9737500285,"duration":419.64243749994785,"noteNumber":69,"velocity":110,"programNumber":30},{"time":655161.5447500285,"duration":419.64243749994785,"noteNumber":71,"velocity":110,"programNumber":30},{"time":655590.1157500285,"duration":419.64243749994785,"noteNumber":69,"velocity":110,"programNumber":30},{"time":656018.6867500285,"duration":419.64243749994785,"noteNumber":71,"velocity":110,"programNumber":30},{"time":656447.2577500285,"duration":419.64243749994785,"noteNumber":72,"velocity":110,"programNumber":30},{"time":656875.8287500285,"duration":419.64243749994785,"noteNumber":71,"velocity":110,"programNumber":30},{"time":657304.3997500285,"duration":419.64243749994785,"noteNumber":69,"velocity":110,"programNumber":30},{"time":657732.9707500285,"duration":714.2850000000326,"noteNumber":74,"velocity":110,"programNumber":30},{"time":658590.1127500285,"duration":419.64243749994785,"noteNumber":71,"velocity":110,"programNumber":30},{"time":659018.6837500285,"duration":419.64243749994785,"noteNumber":69,"velocity":110,"programNumber":30},{"time":659447.2547500285,"duration":419.64243749994785,"noteNumber":71,"velocity":110,"programNumber":30},{"time":659875.8257500285,"duration":419.64243749994785,"noteNumber":69,"velocity":110,"programNumber":30},{"time":660304.3967500285,"duration":714.2850000000326,"noteNumber":67,"velocity":110,"programNumber":30},{"time":661161.5387500285,"duration":1142.8560000000289,"noteNumber":64,"velocity":110,"programNumber":30},{"time":661161.5387500285,"duration":1142.8560000000289,"noteNumber":71,"velocity":110,"programNumber":30},{"time":661161.5387500285,"duration":1142.8560000000289,"noteNumber":76,"velocity":110,"programNumber":30},{"time":662447.2517500285,"duration":1142.8560000000289,"noteNumber":59,"velocity":110,"programNumber":30},{"time":662447.2517500285,"duration":1142.8560000000289,"noteNumber":66,"velocity":110,"programNumber":30},{"time":662447.2517500285,"duration":1142.8560000000289,"noteNumber":71,"velocity":110,"programNumber":30},{"time":663732.9647500284,"duration":1276.7844375000568,"noteNumber":60,"velocity":110,"programNumber":30},{"time":663732.9647500284,"duration":1276.7844375000568,"noteNumber":67,"velocity":110,"programNumber":30},{"time":663732.9647500284,"duration":1276.7844375000568,"noteNumber":72,"velocity":110,"programNumber":30},{"time":665018.6777500286,"duration":419.64243749994785,"noteNumber":59,"velocity":110,"programNumber":30},{"time":665447.2487500285,"duration":419.64243749994785,"noteNumber":60,"velocity":110,"programNumber":30},{"time":665875.8197500285,"duration":419.64243749994785,"noteNumber":59,"velocity":110,"programNumber":30},{"time":666304.3907500285,"duration":419.64243749994785,"noteNumber":67,"velocity":110,"programNumber":30},{"time":666732.9617500285,"duration":419.64243749994785,"noteNumber":66,"velocity":110,"programNumber":30},{"time":667161.5327500285,"duration":419.64243749994785,"noteNumber":64,"velocity":110,"programNumber":30},{"time":667590.1037500285,"duration":419.64243749994785,"noteNumber":62,"velocity":110,"programNumber":30},{"time":668018.6747500285,"duration":714.2850000000326,"noteNumber":52,"velocity":110,"programNumber":29},{"time":668018.6747500285,"duration":714.2850000000326,"noteNumber":59,"velocity":110,"programNumber":29},{"time":668018.6747500285,"duration":714.2850000000326,"noteNumber":64,"velocity":110,"programNumber":29},{"time":668875.8167500285,"duration":419.64243749994785,"noteNumber":52,"velocity":110,"programNumber":29},{"time":669304.3877500285,"duration":848.2134374999441,"noteNumber":52,"velocity":110,"programNumber":29},{"time":669304.3877500285,"duration":848.2134374999441,"noteNumber":59,"velocity":110,"programNumber":29},{"time":669304.3877500285,"duration":848.2134374999441,"noteNumber":64,"velocity":110,"programNumber":29},{"time":670161.5297500285,"duration":419.64243749994785,"noteNumber":52,"velocity":110,"programNumber":29},{"time":670590.1007500285,"duration":714.2850000000326,"noteNumber":52,"velocity":110,"programNumber":29},{"time":670590.1007500285,"duration":714.2850000000326,"noteNumber":59,"velocity":110,"programNumber":29},{"time":670590.1007500285,"duration":714.2850000000326,"noteNumber":64,"velocity":110,"programNumber":29},{"time":671447.2427500285,"duration":419.64243749994785,"noteNumber":52,"velocity":110,"programNumber":29},{"time":671875.8137500285,"duration":714.2850000000326,"noteNumber":52,"velocity":110,"programNumber":29},{"time":671875.8137500285,"duration":714.2850000000326,"noteNumber":59,"velocity":110,"programNumber":29},{"time":671875.8137500285,"duration":714.2850000000326,"noteNumber":64,"velocity":110,"programNumber":29},{"time":672732.9557500285,"duration":419.64243749994785,"noteNumber":52,"velocity":110,"programNumber":29},{"time":673161.5267500285,"duration":714.2850000000326,"noteNumber":52,"velocity":110,"programNumber":29},{"time":673161.5267500285,"duration":714.2850000000326,"noteNumber":59,"velocity":110,"programNumber":29},{"time":673161.5267500285,"duration":714.2850000000326,"noteNumber":64,"velocity":110,"programNumber":29},{"time":674018.6687500285,"duration":714.2850000000326,"noteNumber":52,"velocity":110,"programNumber":29},{"time":674018.6687500285,"duration":714.2850000000326,"noteNumber":59,"velocity":110,"programNumber":29},{"time":674018.6687500285,"duration":714.2850000000326,"noteNumber":64,"velocity":110,"programNumber":29},{"time":674875.8107500285,"duration":714.2850000000326,"noteNumber":48,"velocity":110,"programNumber":29},{"time":674875.8107500285,"duration":714.2850000000326,"noteNumber":55,"velocity":110,"programNumber":29},{"time":674875.8107500285,"duration":714.2850000000326,"noteNumber":60,"velocity":110,"programNumber":29},{"time":675732.9527500285,"duration":419.64243749994785,"noteNumber":48,"velocity":110,"programNumber":29},{"time":676161.5237500285,"duration":848.2134374999441,"noteNumber":48,"velocity":110,"programNumber":29},{"time":676161.5237500285,"duration":848.2134374999441,"noteNumber":55,"velocity":110,"programNumber":29},{"time":676161.5237500285,"duration":848.2134374999441,"noteNumber":60,"velocity":110,"programNumber":29},{"time":677018.6657500284,"duration":419.64243749994785,"noteNumber":48,"velocity":110,"programNumber":29},{"time":677447.2367500284,"duration":714.2850000000326,"noteNumber":48,"velocity":110,"programNumber":29},{"time":677447.2367500284,"duration":714.2850000000326,"noteNumber":55,"velocity":110,"programNumber":29},{"time":677447.2367500284,"duration":714.2850000000326,"noteNumber":60,"velocity":110,"programNumber":29},{"time":678304.3787500284,"duration":419.64243749994785,"noteNumber":48,"velocity":110,"programNumber":29},{"time":678732.9497500284,"duration":714.2850000000326,"noteNumber":48,"velocity":110,"programNumber":29},{"time":678732.9497500284,"duration":714.2850000000326,"noteNumber":55,"velocity":110,"programNumber":29},{"time":678732.9497500284,"duration":714.2850000000326,"noteNumber":60,"velocity":110,"programNumber":29},{"time":679590.0917500284,"duration":419.64243749994785,"noteNumber":48,"velocity":110,"programNumber":29},{"time":680018.6627500284,"duration":714.2850000000326,"noteNumber":48,"velocity":110,"programNumber":29},{"time":680018.6627500284,"duration":714.2850000000326,"noteNumber":55,"velocity":110,"programNumber":29},{"time":680018.6627500284,"duration":714.2850000000326,"noteNumber":60,"velocity":110,"programNumber":29},{"time":680875.8047500284,"duration":714.2850000000326,"noteNumber":48,"velocity":110,"programNumber":29},{"time":680875.8047500284,"duration":714.2850000000326,"noteNumber":55,"velocity":110,"programNumber":29},{"time":680875.8047500284,"duration":714.2850000000326,"noteNumber":60,"velocity":110,"programNumber":29},{"time":681732.9467500284,"duration":714.2850000000326,"noteNumber":50,"velocity":110,"programNumber":29},{"time":681732.9467500284,"duration":714.2850000000326,"noteNumber":57,"velocity":110,"programNumber":29},{"time":681732.9467500284,"duration":714.2850000000326,"noteNumber":62,"velocity":110,"programNumber":29},{"time":682590.0887500284,"duration":419.64243749994785,"noteNumber":50,"velocity":110,"programNumber":29},{"time":683018.6597500284,"duration":848.2134374999441,"noteNumber":50,"velocity":110,"programNumber":29},{"time":683018.6597500284,"duration":848.2134374999441,"noteNumber":57,"velocity":110,"programNumber":29},{"time":683018.6597500284,"duration":848.2134374999441,"noteNumber":62,"velocity":110,"programNumber":29},{"time":683875.8017500284,"duration":419.64243749994785,"noteNumber":50,"velocity":110,"programNumber":29},{"time":684304.3727500284,"duration":714.2850000000326,"noteNumber":50,"velocity":110,"programNumber":29},{"time":684304.3727500284,"duration":714.2850000000326,"noteNumber":57,"velocity":110,"programNumber":29},{"time":684304.3727500284,"duration":714.2850000000326,"noteNumber":62,"velocity":110,"programNumber":29},{"time":685161.5147500284,"duration":419.64243749994785,"noteNumber":50,"velocity":110,"programNumber":29},{"time":685590.0857500284,"duration":714.2850000000326,"noteNumber":50,"velocity":110,"programNumber":29},{"time":685590.0857500284,"duration":714.2850000000326,"noteNumber":57,"velocity":110,"programNumber":29},{"time":685590.0857500284,"duration":714.2850000000326,"noteNumber":62,"velocity":110,"programNumber":29},{"time":686447.2277500284,"duration":419.64243749994785,"noteNumber":50,"velocity":110,"programNumber":29},{"time":686875.7987500284,"duration":714.2850000000326,"noteNumber":50,"velocity":110,"programNumber":29},{"time":686875.7987500284,"duration":714.2850000000326,"noteNumber":57,"velocity":110,"programNumber":29},{"time":686875.7987500284,"duration":714.2850000000326,"noteNumber":62,"velocity":110,"programNumber":29},{"time":687732.9407500284,"duration":714.2850000000326,"noteNumber":50,"velocity":110,"programNumber":29},{"time":687732.9407500284,"duration":714.2850000000326,"noteNumber":57,"velocity":110,"programNumber":29},{"time":687732.9407500284,"duration":714.2850000000326,"noteNumber":62,"velocity":110,"programNumber":29},{"time":688590.0827500283,"duration":714.2850000000326,"noteNumber":52,"velocity":110,"programNumber":29},{"time":688590.0827500283,"duration":714.2850000000326,"noteNumber":59,"velocity":110,"programNumber":29},{"time":688590.0827500283,"duration":714.2850000000326,"noteNumber":64,"velocity":110,"programNumber":29},{"time":689447.2247500283,"duration":419.64243749994785,"noteNumber":52,"velocity":110,"programNumber":29},{"time":689875.7957500283,"duration":848.2134374999441,"noteNumber":52,"velocity":110,"programNumber":29},{"time":689875.7957500283,"duration":848.2134374999441,"noteNumber":59,"velocity":110,"programNumber":29},{"time":689875.7957500283,"duration":848.2134374999441,"noteNumber":64,"velocity":110,"programNumber":29},{"time":690732.9377500283,"duration":419.64243749994785,"noteNumber":52,"velocity":110,"programNumber":29},{"time":691161.5087500283,"duration":714.2850000000326,"noteNumber":52,"velocity":110,"programNumber":29},{"time":691161.5087500283,"duration":714.2850000000326,"noteNumber":59,"velocity":110,"programNumber":29},{"time":691161.5087500283,"duration":714.2850000000326,"noteNumber":64,"velocity":110,"programNumber":29},{"time":692018.6507500283,"duration":419.64243749994785,"noteNumber":55,"velocity":110,"programNumber":29},{"time":692447.2217500283,"duration":419.64243749994785,"noteNumber":54,"velocity":110,"programNumber":29},{"time":692875.7927500283,"duration":714.2850000000326,"noteNumber":52,"velocity":110,"programNumber":29},{"time":693732.9347500283,"duration":419.64243749994785,"noteNumber":55,"velocity":110,"programNumber":29},{"time":694161.5057500283,"duration":419.64243749994785,"noteNumber":54,"velocity":110,"programNumber":29},{"time":694590.0767500283,"duration":419.64243749994785,"noteNumber":52,"velocity":110,"programNumber":29},{"time":695018.6477500283,"duration":419.64243749994785,"noteNumber":50,"velocity":110,"programNumber":29},{"time":695447.2187500283,"duration":714.2850000000326,"noteNumber":52,"velocity":110,"programNumber":29},{"time":695447.2187500283,"duration":714.2850000000326,"noteNumber":59,"velocity":110,"programNumber":29},{"time":695447.2187500283,"duration":714.2850000000326,"noteNumber":64,"velocity":110,"programNumber":29},{"time":696304.3607500283,"duration":419.64243749994785,"noteNumber":52,"velocity":110,"programNumber":29},{"time":696732.9317500283,"duration":848.2134374999441,"noteNumber":52,"velocity":110,"programNumber":29},{"time":696732.9317500283,"duration":848.2134374999441,"noteNumber":59,"velocity":110,"programNumber":29},{"time":696732.9317500283,"duration":848.2134374999441,"noteNumber":64,"velocity":110,"programNumber":29},{"time":697590.0737500283,"duration":419.64243749994785,"noteNumber":52,"velocity":110,"programNumber":29},{"time":698018.6447500283,"duration":714.2850000000326,"noteNumber":52,"velocity":110,"programNumber":29},{"time":698018.6447500283,"duration":714.2850000000326,"noteNumber":59,"velocity":110,"programNumber":29},{"time":698018.6447500283,"duration":714.2850000000326,"noteNumber":64,"velocity":110,"programNumber":29},{"time":698875.7867500283,"duration":419.64243749994785,"noteNumber":52,"velocity":110,"programNumber":29},{"time":699304.3577500283,"duration":714.2850000000326,"noteNumber":52,"velocity":110,"programNumber":29},{"time":699304.3577500283,"duration":714.2850000000326,"noteNumber":59,"velocity":110,"programNumber":29},{"time":699304.3577500283,"duration":714.2850000000326,"noteNumber":64,"velocity":110,"programNumber":29},{"time":700161.4997500282,"duration":419.64243749994785,"noteNumber":52,"velocity":110,"programNumber":29},{"time":700590.0707500282,"duration":714.2850000000326,"noteNumber":52,"velocity":110,"programNumber":29},{"time":700590.0707500282,"duration":714.2850000000326,"noteNumber":59,"velocity":110,"programNumber":29},{"time":700590.0707500282,"duration":714.2850000000326,"noteNumber":64,"velocity":110,"programNumber":29},{"time":701447.2127500282,"duration":714.2850000000326,"noteNumber":52,"velocity":110,"programNumber":29},{"time":701447.2127500282,"duration":714.2850000000326,"noteNumber":59,"velocity":110,"programNumber":29},{"time":701447.2127500282,"duration":714.2850000000326,"noteNumber":64,"velocity":110,"programNumber":29},{"time":702304.3547500282,"duration":714.2850000000326,"noteNumber":48,"velocity":110,"programNumber":29},{"time":702304.3547500282,"duration":714.2850000000326,"noteNumber":55,"velocity":110,"programNumber":29},{"time":702304.3547500282,"duration":714.2850000000326,"noteNumber":60,"velocity":110,"programNumber":29},{"time":703161.4967500282,"duration":419.64243749994785,"noteNumber":48,"velocity":110,"programNumber":29},{"time":703590.0677500282,"duration":848.2134374999441,"noteNumber":48,"velocity":110,"programNumber":29},{"time":703590.0677500282,"duration":848.2134374999441,"noteNumber":55,"velocity":110,"programNumber":29},{"time":703590.0677500282,"duration":848.2134374999441,"noteNumber":60,"velocity":110,"programNumber":29},{"time":704447.2097500282,"duration":419.64243749994785,"noteNumber":48,"velocity":110,"programNumber":29},{"time":704875.7807500282,"duration":714.2850000000326,"noteNumber":48,"velocity":110,"programNumber":29},{"time":704875.7807500282,"duration":714.2850000000326,"noteNumber":55,"velocity":110,"programNumber":29},{"time":704875.7807500282,"duration":714.2850000000326,"noteNumber":60,"velocity":110,"programNumber":29},{"time":705732.9227500282,"duration":419.64243749994785,"noteNumber":48,"velocity":110,"programNumber":29},{"time":706161.4937500282,"duration":714.2850000000326,"noteNumber":48,"velocity":110,"programNumber":29},{"time":706161.4937500282,"duration":714.2850000000326,"noteNumber":55,"velocity":110,"programNumber":29},{"time":706161.4937500282,"duration":714.2850000000326,"noteNumber":60,"velocity":110,"programNumber":29},{"time":707018.6357500282,"duration":419.64243749994785,"noteNumber":48,"velocity":110,"programNumber":29},{"time":707447.2067500282,"duration":714.2850000000326,"noteNumber":48,"velocity":110,"programNumber":29},{"time":707447.2067500282,"duration":714.2850000000326,"noteNumber":55,"velocity":110,"programNumber":29},{"time":707447.2067500282,"duration":714.2850000000326,"noteNumber":60,"velocity":110,"programNumber":29},{"time":708304.3487500282,"duration":714.2850000000326,"noteNumber":48,"velocity":110,"programNumber":29},{"time":708304.3487500282,"duration":714.2850000000326,"noteNumber":55,"velocity":110,"programNumber":29},{"time":708304.3487500282,"duration":714.2850000000326,"noteNumber":60,"velocity":110,"programNumber":29},{"time":709161.4907500282,"duration":714.2850000000326,"noteNumber":50,"velocity":110,"programNumber":29},{"time":709161.4907500282,"duration":714.2850000000326,"noteNumber":57,"velocity":110,"programNumber":29},{"time":709161.4907500282,"duration":714.2850000000326,"noteNumber":62,"velocity":110,"programNumber":29},{"time":710018.6327500282,"duration":419.64243749994785,"noteNumber":50,"velocity":110,"programNumber":29},{"time":710447.2037500282,"duration":848.2134374999441,"noteNumber":50,"velocity":110,"programNumber":29},{"time":710447.2037500282,"duration":848.2134374999441,"noteNumber":57,"velocity":110,"programNumber":29},{"time":710447.2037500282,"duration":848.2134374999441,"noteNumber":62,"velocity":110,"programNumber":29},{"time":711304.3457500282,"duration":419.64243749994785,"noteNumber":50,"velocity":110,"programNumber":29},{"time":711732.9167500281,"duration":714.2850000000326,"noteNumber":50,"velocity":110,"programNumber":29},{"time":711732.9167500281,"duration":714.2850000000326,"noteNumber":57,"velocity":110,"programNumber":29},{"time":711732.9167500281,"duration":714.2850000000326,"noteNumber":62,"velocity":110,"programNumber":29},{"time":712590.0587500281,"duration":419.64243749994785,"noteNumber":50,"velocity":110,"programNumber":29},{"time":713018.6297500281,"duration":714.2850000000326,"noteNumber":50,"velocity":110,"programNumber":29},{"time":713018.6297500281,"duration":714.2850000000326,"noteNumber":57,"velocity":110,"programNumber":29},{"time":713018.6297500281,"duration":714.2850000000326,"noteNumber":62,"velocity":110,"programNumber":29},{"time":713875.7717500281,"duration":419.64243749994785,"noteNumber":50,"velocity":110,"programNumber":29},{"time":714304.3427500281,"duration":714.2850000000326,"noteNumber":50,"velocity":110,"programNumber":29},{"time":714304.3427500281,"duration":714.2850000000326,"noteNumber":57,"velocity":110,"programNumber":29},{"time":714304.3427500281,"duration":714.2850000000326,"noteNumber":62,"velocity":110,"programNumber":29},{"time":715161.4847500281,"duration":714.2850000000326,"noteNumber":50,"velocity":110,"programNumber":29},{"time":715161.4847500281,"duration":714.2850000000326,"noteNumber":57,"velocity":110,"programNumber":29},{"time":715161.4847500281,"duration":714.2850000000326,"noteNumber":62,"velocity":110,"programNumber":29},{"time":716018.6267500281,"duration":419.64243749994785,"noteNumber":64,"velocity":110,"programNumber":29},{"time":716447.1977500281,"duration":419.64243749994785,"noteNumber":71,"velocity":110,"programNumber":29},{"time":716875.7687500281,"duration":419.64243749994785,"noteNumber":66,"velocity":110,"programNumber":29},{"time":717304.3397500281,"duration":419.64243749994785,"noteNumber":67,"velocity":110,"programNumber":29},{"time":717732.9107500281,"duration":419.64243749994785,"noteNumber":64,"velocity":110,"programNumber":29},{"time":718161.4817500281,"duration":419.64243749994785,"noteNumber":71,"velocity":110,"programNumber":29},{"time":718590.0527500281,"duration":419.64243749994785,"noteNumber":66,"velocity":110,"programNumber":29},{"time":719018.6237500281,"duration":419.64243749994785,"noteNumber":67,"velocity":110,"programNumber":29},{"time":719447.1947500281,"duration":419.64243749994785,"noteNumber":64,"velocity":110,"programNumber":29},{"time":719875.7657500281,"duration":419.64243749994785,"noteNumber":71,"velocity":110,"programNumber":29},{"time":720304.3367500281,"duration":419.64243749994785,"noteNumber":66,"velocity":110,"programNumber":29},{"time":720732.9077500281,"duration":419.64243749994785,"noteNumber":67,"velocity":110,"programNumber":29},{"time":721161.4787500281,"duration":419.64243749994785,"noteNumber":64,"velocity":110,"programNumber":29},{"time":721590.0497500281,"duration":419.64243749994785,"noteNumber":71,"velocity":110,"programNumber":29},{"time":722018.620750028,"duration":419.64243749994785,"noteNumber":66,"velocity":110,"programNumber":29},{"time":722447.191750028,"duration":419.64243749994785,"noteNumber":67,"velocity":110,"programNumber":29},{"time":722875.762750028,"duration":419.64243749994785,"noteNumber":64,"velocity":110,"programNumber":29},{"time":723304.333750028,"duration":419.64243749994785,"noteNumber":71,"velocity":110,"programNumber":29},{"time":723732.904750028,"duration":419.64243749994785,"noteNumber":66,"velocity":110,"programNumber":29},{"time":724161.475750028,"duration":419.64243749994785,"noteNumber":67,"velocity":110,"programNumber":29},{"time":724590.046750028,"duration":419.64243749994785,"noteNumber":64,"velocity":110,"programNumber":29},{"time":725018.617750028,"duration":419.64243749994785,"noteNumber":71,"velocity":110,"programNumber":29},{"time":725447.188750028,"duration":419.64243749994785,"noteNumber":66,"velocity":110,"programNumber":29},{"time":725875.759750028,"duration":419.64243749994785,"noteNumber":67,"velocity":110,"programNumber":29},{"time":726304.330750028,"duration":419.64243749994785,"noteNumber":64,"velocity":110,"programNumber":29},{"time":726732.901750028,"duration":419.64243749994785,"noteNumber":71,"velocity":110,"programNumber":29},{"time":727161.472750028,"duration":419.64243749994785,"noteNumber":66,"velocity":110,"programNumber":29},{"time":727590.043750028,"duration":419.64243749994785,"noteNumber":67,"velocity":110,"programNumber":29},{"time":728018.614750028,"duration":419.64243749994785,"noteNumber":64,"velocity":110,"programNumber":29},{"time":728447.185750028,"duration":419.64243749994785,"noteNumber":71,"velocity":110,"programNumber":29},{"time":728875.756750028,"duration":419.64243749994785,"noteNumber":66,"velocity":110,"programNumber":29},{"time":729304.327750028,"duration":419.64243749994785,"noteNumber":67,"velocity":110,"programNumber":29},{"time":729732.898750028,"duration":419.64243749994785,"noteNumber":64,"velocity":110,"programNumber":29},{"time":730161.469750028,"duration":419.64243749994785,"noteNumber":71,"velocity":110,"programNumber":29},{"time":730590.040750028,"duration":419.64243749994785,"noteNumber":66,"velocity":110,"programNumber":29},{"time":731018.611750028,"duration":419.64243749994785,"noteNumber":67,"velocity":110,"programNumber":29},{"time":731447.182750028,"duration":419.64243749994785,"noteNumber":64,"velocity":110,"programNumber":29},{"time":731875.753750028,"duration":419.64243749994785,"noteNumber":71,"velocity":110,"programNumber":29},{"time":732304.324750028,"duration":419.64243749994785,"noteNumber":66,"velocity":110,"programNumber":29},{"time":732732.895750028,"duration":419.64243749994785,"noteNumber":67,"velocity":110,"programNumber":29},{"time":733161.466750028,"duration":419.64243749994785,"noteNumber":64,"velocity":110,"programNumber":29},{"time":733590.037750028,"duration":419.64243749994785,"noteNumber":71,"velocity":110,"programNumber":29},{"time":734018.608750028,"duration":419.64243749994785,"noteNumber":66,"velocity":110,"programNumber":29},{"time":734447.179750028,"duration":419.64243749994785,"noteNumber":67,"velocity":110,"programNumber":29},{"time":734875.750750028,"duration":419.64243749994785,"noteNumber":64,"velocity":110,"programNumber":29},{"time":735304.321750028,"duration":419.64243749994785,"noteNumber":71,"velocity":110,"programNumber":29},{"time":735732.8927500279,"duration":419.64243749994785,"noteNumber":66,"velocity":110,"programNumber":29},{"time":736161.4637500279,"duration":419.64243749994785,"noteNumber":67,"velocity":110,"programNumber":29},{"time":736590.0347500279,"duration":419.64243749994785,"noteNumber":64,"velocity":110,"programNumber":29},{"time":737018.6057500279,"duration":419.64243749994785,"noteNumber":71,"velocity":110,"programNumber":29},{"time":737447.1767500279,"duration":419.64243749994785,"noteNumber":66,"velocity":110,"programNumber":29},{"time":737875.7477500279,"duration":419.64243749994785,"noteNumber":67,"velocity":110,"programNumber":29},{"time":738304.3187500279,"duration":419.64243749994785,"noteNumber":64,"velocity":110,"programNumber":29},{"time":738732.8897500279,"duration":419.64243749994785,"noteNumber":71,"velocity":110,"programNumber":29},{"time":739161.4607500279,"duration":419.64243749994785,"noteNumber":66,"velocity":110,"programNumber":29},{"time":739590.0317500279,"duration":419.64243749994785,"noteNumber":67,"velocity":110,"programNumber":29},{"time":740018.6027500279,"duration":419.64243749994785,"noteNumber":64,"velocity":110,"programNumber":29},{"time":740447.1737500279,"duration":419.64243749994785,"noteNumber":71,"velocity":110,"programNumber":29},{"time":740875.7447500279,"duration":419.64243749994785,"noteNumber":66,"velocity":110,"programNumber":29},{"time":741304.3157500279,"duration":419.64243749994785,"noteNumber":67,"velocity":110,"programNumber":29},{"time":741732.8867500279,"duration":419.64243749994785,"noteNumber":64,"velocity":110,"programNumber":29},{"time":742161.4577500279,"duration":419.64243749994785,"noteNumber":71,"velocity":110,"programNumber":29},{"time":742590.0287500279,"duration":419.64243749994785,"noteNumber":66,"velocity":110,"programNumber":29},{"time":743018.5997500279,"duration":419.64243749994785,"noteNumber":67,"velocity":110,"programNumber":29},{"time":743447.1707500279,"duration":6642.85050000099,"noteNumber":52,"velocity":110,"programNumber":29},{"time":743447.1707500279,"duration":6642.85050000099,"noteNumber":59,"velocity":110,"programNumber":29},{"time":743447.1707500279,"duration":6642.85050000099,"noteNumber":64,"velocity":110,"programNumber":29}]]}