{"tracks":[[{"time":41142.816,"duration":250,"noteNumber":78,"velocity":115,"programNumber":85},{"time":41392.816,"duration":250,"noteNumber":80,"velocity":115,"programNumber":85},{"time":41642.816,"duration":250,"noteNumber":80,"velocity":115,"programNumber":85},{"time":41892.816,"duration":121.35416666666424,"noteNumber":78,"velocity":115,"programNumber":85},{"time":42017.816,"duration":250,"noteNumber":83,"velocity":115,"programNumber":85},{"time":42267.816,"duration":500,"noteNumber":80,"velocity":115,"programNumber":85},{"time":43142.816,"duration":250,"noteNumber":78,"velocity":115,"programNumber":85},{"time":43392.816,"duration":250,"noteNumber":80,"velocity":115,"programNumber":85},{"time":43642.816,"duration":250,"noteNumber":80,"velocity":115,"programNumber":85},{"time":43892.816,"duration":121.875,"noteNumber":78,"velocity":115,"programNumber":85},{"time":44017.816,"duration":500,"noteNumber":80,"velocity":115,"programNumber":85},{"time":45142.816,"duration":250,"noteNumber":78,"velocity":115,"programNumber":85},{"time":45392.816,"duration":250,"noteNumber":80,"velocity":115,"programNumber":85},{"time":45642.816,"duration":250,"noteNumber":83,"velocity":115,"programNumber":85},{"time":45892.816,"duration":125,"noteNumber":80,"velocity":115,"programNumber":85},{"time":46017.816,"duration":250,"noteNumber":83,"velocity":115,"programNumber":85},{"time":46267.816,"duration":125,"noteNumber":80,"velocity":115,"programNumber":85},{"time":46392.816,"duration":500,"noteNumber":83,"velocity":115,"programNumber":85},{"time":47142.816,"duration":250,"noteNumber":78,"velocity":115,"programNumber":85},{"time":47392.816,"duration":250,"noteNumber":80,"velocity":115,"programNumber":85},{"time":47642.816,"duration":250,"noteNumber":80,"velocity":115,"programNumber":85},{"time":47892.816,"duration":125,"noteNumber":78,"velocity":115,"programNumber":85},{"time":48017.816,"duration":250,"noteNumber":80,"velocity":115,"programNumber":85},{"time":48267.816,"duration":250,"noteNumber":80,"velocity":115,"programNumber":85},{"time":48517.816,"duration":250,"noteNumber":80,"velocity":115,"programNumber":85},{"time":48767.816,"duration":378.64583333333576,"noteNumber":80,"velocity":115,"programNumber":85},{"time":49146.461833333335,"duration":250,"noteNumber":75,"velocity":115,"programNumber":85},{"time":49396.461833333335,"duration":250,"noteNumber":75,"velocity":115,"programNumber":85},{"time":49646.461833333335,"duration":250,"noteNumber":75,"velocity":115,"programNumber":85},{"time":49896.461833333335,"duration":121.35416666666424,"noteNumber":73,"velocity":115,"programNumber":85},{"time":50017.816,"duration":750,"noteNumber":75,"velocity":115,"programNumber":85},{"time":50892.816,"duration":250,"noteNumber":70,"velocity":115,"programNumber":85},{"time":51142.816,"duration":250,"noteNumber":75,"velocity":115,"programNumber":85},{"time":51392.816,"duration":250,"noteNumber":75,"velocity":115,"programNumber":85},{"time":51642.816,"duration":121.35416666666424,"noteNumber":78,"velocity":115,"programNumber":85},{"time":51764.17016666666,"duration":250,"noteNumber":75,"velocity":115,"programNumber":85},{"time":52014.17016666666,"duration":256.77083333333576,"noteNumber":75,"velocity":115,"programNumber":85},{"time":52267.816,"duration":628.6458333333358,"noteNumber":73,"velocity":115,"programNumber":85},{"time":53135.524333333335,"duration":250,"noteNumber":75,"velocity":115,"programNumber":85},{"time":53385.524333333335,"duration":250,"noteNumber":75,"velocity":115,"programNumber":85},{"time":53635.524333333335,"duration":250,"noteNumber":75,"velocity":115,"programNumber":85},{"time":53885.524333333335,"duration":250,"noteNumber":75,"velocity":115,"programNumber":85},{"time":54135.524333333335,"duration":125,"noteNumber":78,"velocity":115,"programNumber":85},{"time":54260.524333333335,"duration":378.125,"noteNumber":78,"velocity":115,"programNumber":85},{"time":54639.17016666667,"duration":125,"noteNumber":78,"velocity":115,"programNumber":85},{"time":54764.17016666667,"duration":371.35416666666424,"noteNumber":78,"velocity":115,"programNumber":85},{"time":55142.816,"duration":250,"noteNumber":75,"velocity":115,"programNumber":85},{"time":55392.816,"duration":250,"noteNumber":75,"velocity":115,"programNumber":85},{"time":55642.816,"duration":250,"noteNumber":75,"velocity":115,"programNumber":85},{"time":55892.816,"duration":125,"noteNumber":73,"velocity":115,"programNumber":85},{"time":56017.816,"duration":250,"noteNumber":75,"velocity":115,"programNumber":85},{"time":56267.816,"duration":375,"noteNumber":73,"velocity":115,"programNumber":85},{"time":56642.816,"duration":250,"noteNumber":73,"velocity":115,"programNumber":85},{"time":56892.816,"duration":250,"noteNumber":73,"velocity":115,"programNumber":85},{"time":57142.816,"duration":250,"noteNumber":78,"velocity":115,"programNumber":85},{"time":57392.816,"duration":500,"noteNumber":75,"velocity":115,"programNumber":85},{"time":58142.816,"duration":250,"noteNumber":82,"velocity":115,"programNumber":85},{"time":58392.816,"duration":256.77083333333576,"noteNumber":82,"velocity":115,"programNumber":85},{"time":58642.816,"duration":125,"noteNumber":80,"velocity":115,"programNumber":85},{"time":58767.816,"duration":125,"noteNumber":78,"velocity":115,"programNumber":85},{"time":58892.816,"duration":371.35416666666424,"noteNumber":80,"velocity":115,"programNumber":85},{"time":59267.816,"duration":378.64583333333576,"noteNumber":78,"velocity":115,"programNumber":85},{"time":59642.816,"duration":250,"noteNumber":75,"velocity":115,"programNumber":85},{"time":59892.816,"duration":250,"noteNumber":73,"velocity":115,"programNumber":85},{"time":60142.816,"duration":250,"noteNumber":75,"velocity":115,"programNumber":85},{"time":60392.816,"duration":250,"noteNumber":73,"velocity":115,"programNumber":85},{"time":60642.816,"duration":250,"noteNumber":75,"velocity":115,"programNumber":85},{"time":60892.816,"duration":250,"noteNumber":73,"velocity":115,"programNumber":85},{"time":61642.816,"duration":125,"noteNumber":75,"velocity":115,"programNumber":85},{"time":61767.816,"duration":125,"noteNumber":75,"velocity":115,"programNumber":85},{"time":61892.816,"duration":125,"noteNumber":75,"velocity":115,"programNumber":85},{"time":62017.816,"duration":125,"noteNumber":75,"velocity":115,"programNumber":85},{"time":62142.816,"duration":125,"noteNumber":75,"velocity":115,"programNumber":85},{"time":62267.816,"duration":125,"noteNumber":75,"velocity":115,"programNumber":85},{"time":62392.816,"duration":125,"noteNumber":75,"velocity":115,"programNumber":85},{"time":62517.816,"duration":125,"noteNumber":75,"velocity":115,"programNumber":85},{"time":62642.816,"duration":125,"noteNumber":75,"velocity":115,"programNumber":85},{"time":62767.816,"duration":125,"noteNumber":75,"velocity":115,"programNumber":85},{"time":62892.816,"duration":125,"noteNumber":75,"velocity":115,"programNumber":85},{"time":63017.816,"duration":125,"noteNumber":75,"velocity":115,"programNumber":85},{"time":63142.816,"duration":500,"noteNumber":82,"velocity":115,"programNumber":85},{"time":63892.816,"duration":500,"noteNumber":82,"velocity":115,"programNumber":85},{"time":67142.81599999999,"duration":250,"noteNumber":82,"velocity":115,"programNumber":85},{"time":67392.81599999999,"duration":250,"noteNumber":80,"velocity":115,"programNumber":85},{"time":67642.81599999999,"duration":128.64583333332848,"noteNumber":78,"velocity":115,"programNumber":85},{"time":67767.81599999999,"duration":371.35416666665697,"noteNumber":75,"velocity":115,"programNumber":85},{"time":68142.81599999998,"duration":371.3541666666715,"noteNumber":73,"velocity":115,"programNumber":85},{"time":68517.81599999998,"duration":128.64583333332848,"noteNumber":73,"velocity":115,"programNumber":85},{"time":68642.81599999998,"duration":371.35416666665697,"noteNumber":75,"velocity":115,"programNumber":85},{"time":69142.81599999996,"duration":250,"noteNumber":78,"velocity":115,"programNumber":85},{"time":69392.81599999996,"duration":250,"noteNumber":80,"velocity":115,"programNumber":85},{"time":69642.81599999996,"duration":250,"noteNumber":80,"velocity":115,"programNumber":85},{"time":69892.81599999996,"duration":121.35416666667152,"noteNumber":78,"velocity":115,"programNumber":85},{"time":70017.81599999996,"duration":250,"noteNumber":83,"velocity":115,"programNumber":85},{"time":70267.81599999996,"duration":375,"noteNumber":80,"velocity":115,"programNumber":85},{"time":70642.81599999996,"duration":250,"noteNumber":78,"velocity":115,"programNumber":85},{"time":70892.81599999996,"duration":250,"noteNumber":78,"velocity":115,"programNumber":85},{"time":71142.81599999996,"duration":250,"noteNumber":78,"velocity":115,"programNumber":85},{"time":71392.81599999996,"duration":250,"noteNumber":80,"velocity":115,"programNumber":85},{"time":71642.81599999996,"duration":250,"noteNumber":80,"velocity":115,"programNumber":85},{"time":71892.81599999996,"duration":121.875,"noteNumber":78,"velocity":115,"programNumber":85},{"time":72017.81599999996,"duration":500,"noteNumber":80,"velocity":115,"programNumber":85},{"time":73142.81599999996,"duration":250,"noteNumber":78,"velocity":115,"programNumber":85},{"time":73392.81599999996,"duration":250,"noteNumber":80,"velocity":115,"programNumber":85},{"time":73642.81599999996,"duration":250,"noteNumber":83,"velocity":115,"programNumber":85},{"time":73892.81599999996,"duration":125,"noteNumber":80,"velocity":115,"programNumber":85},{"time":74017.81599999996,"duration":250,"noteNumber":83,"velocity":115,"programNumber":85},{"time":74267.81599999996,"duration":125,"noteNumber":80,"velocity":115,"programNumber":85},{"time":74392.81599999996,"duration":500,"noteNumber":83,"velocity":115,"programNumber":85},{"time":75392.81599999996,"duration":250,"noteNumber":80,"velocity":115,"programNumber":85},{"time":75642.81599999996,"duration":250,"noteNumber":80,"velocity":115,"programNumber":85},{"time":75892.81599999996,"duration":125,"noteNumber":78,"velocity":115,"programNumber":85},{"time":76017.81599999996,"duration":250,"noteNumber":80,"velocity":115,"programNumber":85},{"time":76267.81599999996,"duration":250,"noteNumber":80,"velocity":115,"programNumber":85},{"time":76517.81599999996,"duration":250,"noteNumber":80,"velocity":115,"programNumber":85},{"time":76767.81599999996,"duration":378.6458333333285,"noteNumber":80,"velocity":115,"programNumber":85},{"time":77146.46183333329,"duration":250,"noteNumber":75,"velocity":115,"programNumber":85},{"time":77396.46183333329,"duration":250,"noteNumber":75,"velocity":115,"programNumber":85},{"time":77646.46183333329,"duration":250,"noteNumber":75,"velocity":115,"programNumber":85},{"time":77896.46183333329,"duration":121.35416666667152,"noteNumber":73,"velocity":115,"programNumber":85},{"time":78017.81599999996,"duration":750,"noteNumber":75,"velocity":115,"programNumber":85},{"time":79142.81599999996,"duration":250,"noteNumber":75,"velocity":115,"programNumber":85},{"time":79392.81599999996,"duration":250,"noteNumber":75,"velocity":115,"programNumber":85},{"time":79642.81599999996,"duration":121.35416666667152,"noteNumber":78,"velocity":115,"programNumber":85},{"time":79764.17016666663,"duration":250,"noteNumber":75,"velocity":115,"programNumber":85},{"time":80014.17016666663,"duration":256.7708333333285,"noteNumber":75,"velocity":115,"programNumber":85},{"time":80267.81599999996,"duration":628.6458333333285,"noteNumber":73,"velocity":115,"programNumber":85},{"time":81135.52433333329,"duration":250,"noteNumber":75,"velocity":115,"programNumber":85},{"time":81385.52433333329,"duration":250,"noteNumber":75,"velocity":115,"programNumber":85},{"time":81635.52433333329,"duration":250,"noteNumber":75,"velocity":115,"programNumber":85},{"time":81885.52433333329,"duration":250,"noteNumber":75,"velocity":115,"programNumber":85},{"time":82135.52433333329,"duration":125,"noteNumber":78,"velocity":115,"programNumber":85},{"time":82260.52433333329,"duration":378.125,"noteNumber":78,"velocity":115,"programNumber":85},{"time":82639.17016666662,"duration":125,"noteNumber":78,"velocity":115,"programNumber":85},{"time":82764.17016666662,"duration":371.3541666666715,"noteNumber":78,"velocity":115,"programNumber":85},{"time":83142.81599999996,"duration":250,"noteNumber":75,"velocity":115,"programNumber":85},{"time":83392.81599999996,"duration":250,"noteNumber":75,"velocity":115,"programNumber":85},{"time":83642.81599999996,"duration":250,"noteNumber":75,"velocity":115,"programNumber":85},{"time":83892.81599999996,"duration":125,"noteNumber":73,"velocity":115,"programNumber":85},{"time":84017.81599999996,"duration":250,"noteNumber":75,"velocity":115,"programNumber":85},{"time":84267.81599999996,"duration":375,"noteNumber":73,"velocity":115,"programNumber":85},{"time":84642.81599999996,"duration":250,"noteNumber":73,"velocity":115,"programNumber":85},{"time":84892.81599999996,"duration":250,"noteNumber":73,"velocity":115,"programNumber":85},{"time":85142.81599999996,"duration":250,"noteNumber":78,"velocity":115,"programNumber":85},{"time":85392.81599999996,"duration":500,"noteNumber":75,"velocity":115,"programNumber":85},{"time":86142.81599999996,"duration":250,"noteNumber":82,"velocity":115,"programNumber":85},{"time":86392.81599999996,"duration":256.7708333333285,"noteNumber":82,"velocity":115,"programNumber":85},{"time":86642.81599999996,"duration":125,"noteNumber":80,"velocity":115,"programNumber":85},{"time":86767.81599999996,"duration":125,"noteNumber":78,"velocity":115,"programNumber":85},{"time":86892.81599999996,"duration":371.3541666666715,"noteNumber":80,"velocity":115,"programNumber":85},{"time":87267.81599999996,"duration":378.6458333333285,"noteNumber":78,"velocity":115,"programNumber":85},{"time":87642.81599999996,"duration":250,"noteNumber":75,"velocity":115,"programNumber":85},{"time":87892.81599999996,"duration":250,"noteNumber":73,"velocity":115,"programNumber":85},{"time":88142.81599999996,"duration":250,"noteNumber":75,"velocity":115,"programNumber":85},{"time":88392.81599999996,"duration":250,"noteNumber":73,"velocity":115,"programNumber":85},{"time":88642.81599999996,"duration":250,"noteNumber":75,"velocity":115,"programNumber":85},{"time":88892.81599999996,"duration":250,"noteNumber":73,"velocity":115,"programNumber":85},{"time":89642.81599999996,"duration":125,"noteNumber":75,"velocity":115,"programNumber":85},{"time":89767.81599999996,"duration":125,"noteNumber":75,"velocity":115,"programNumber":85},{"time":89892.81599999996,"duration":125,"noteNumber":75,"velocity":115,"programNumber":85},{"time":90017.81599999996,"duration":125,"noteNumber":75,"velocity":115,"programNumber":85},{"time":90142.81599999996,"duration":125,"noteNumber":75,"velocity":115,"programNumber":85},{"time":90267.81599999996,"duration":125,"noteNumber":75,"velocity":115,"programNumber":85},{"time":90392.81599999996,"duration":125,"noteNumber":75,"velocity":115,"programNumber":85},{"time":90517.81599999996,"duration":125,"noteNumber":75,"velocity":115,"programNumber":85},{"time":90642.81599999996,"duration":125,"noteNumber":75,"velocity":115,"programNumber":85},{"time":90767.81599999996,"duration":125,"noteNumber":75,"velocity":115,"programNumber":85},{"time":90892.81599999996,"duration":125,"noteNumber":75,"velocity":115,"programNumber":85},{"time":91017.81599999996,"duration":125,"noteNumber":75,"velocity":115,"programNumber":85},{"time":91142.81599999996,"duration":500,"noteNumber":82,"velocity":115,"programNumber":85},{"time":91892.81599999996,"duration":500,"noteNumber":82,"velocity":115,"programNumber":85},{"time":95142.81599999996,"duration":250,"noteNumber":82,"velocity":115,"programNumber":85},{"time":95392.81599999996,"duration":250,"noteNumber":80,"velocity":115,"programNumber":85},{"time":95642.81599999996,"duration":128.64583333332848,"noteNumber":78,"velocity":115,"programNumber":85},{"time":95767.81599999996,"duration":371.35416666665697,"noteNumber":75,"velocity":115,"programNumber":85},{"time":96142.81599999995,"duration":371.3541666666715,"noteNumber":73,"velocity":115,"programNumber":85},{"time":96517.81599999995,"duration":128.64583333332848,"noteNumber":73,"velocity":115,"programNumber":85},{"time":96642.81599999995,"duration":371.35416666665697,"noteNumber":75,"velocity":115,"programNumber":85},{"time":113142.81599999993,"duration":250,"noteNumber":78,"velocity":115,"programNumber":85},{"time":113392.81599999993,"duration":250,"noteNumber":80,"velocity":115,"programNumber":85},{"time":113642.81599999993,"duration":250,"noteNumber":80,"velocity":115,"programNumber":85},{"time":113892.81599999993,"duration":121.35416666667152,"noteNumber":78,"velocity":115,"programNumber":85},{"time":114017.81599999993,"duration":250,"noteNumber":83,"velocity":115,"programNumber":85},{"time":114267.81599999993,"duration":375,"noteNumber":80,"velocity":115,"programNumber":85},{"time":114642.81599999993,"duration":250,"noteNumber":78,"velocity":115,"programNumber":85},{"time":114892.81599999993,"duration":250,"noteNumber":78,"velocity":115,"programNumber":85},{"time":115142.81599999993,"duration":250,"noteNumber":78,"velocity":115,"programNumber":85},{"time":115392.81599999993,"duration":250,"noteNumber":80,"velocity":115,"programNumber":85},{"time":115642.81599999993,"duration":250,"noteNumber":80,"velocity":115,"programNumber":85},{"time":115892.81599999993,"duration":121.875,"noteNumber":78,"velocity":115,"programNumber":85},{"time":116017.81599999993,"duration":500,"noteNumber":80,"velocity":115,"programNumber":85},{"time":117392.81599999993,"duration":250,"noteNumber":80,"velocity":115,"programNumber":85},{"time":117642.81599999993,"duration":250,"noteNumber":83,"velocity":115,"programNumber":85},{"time":117892.81599999993,"duration":125,"noteNumber":80,"velocity":115,"programNumber":85},{"time":118017.81599999993,"duration":250,"noteNumber":83,"velocity":115,"programNumber":85},{"time":118267.81599999993,"duration":125,"noteNumber":80,"velocity":115,"programNumber":85},{"time":118392.81599999993,"duration":500,"noteNumber":83,"velocity":115,"programNumber":85},{"time":119392.81599999993,"duration":250,"noteNumber":80,"velocity":115,"programNumber":85},{"time":119642.81599999993,"duration":250,"noteNumber":80,"velocity":115,"programNumber":85},{"time":119892.81599999993,"duration":125,"noteNumber":78,"velocity":115,"programNumber":85},{"time":120017.81599999993,"duration":250,"noteNumber":80,"velocity":115,"programNumber":85},{"time":120267.81599999993,"duration":250,"noteNumber":80,"velocity":115,"programNumber":85},{"time":120517.81599999993,"duration":250,"noteNumber":80,"velocity":115,"programNumber":85},{"time":120767.81599999993,"duration":378.6458333333285,"noteNumber":80,"velocity":115,"programNumber":85},{"time":121146.46183333326,"duration":250,"noteNumber":75,"velocity":115,"programNumber":85},{"time":121396.46183333326,"duration":250,"noteNumber":75,"velocity":115,"programNumber":85},{"time":121646.46183333326,"duration":250,"noteNumber":75,"velocity":115,"programNumber":85},{"time":121896.46183333326,"duration":121.35416666667152,"noteNumber":73,"velocity":115,"programNumber":85},{"time":122017.81599999993,"duration":750,"noteNumber":75,"velocity":115,"programNumber":85},{"time":123142.81599999993,"duration":250,"noteNumber":75,"velocity":115,"programNumber":85},{"time":123392.81599999993,"duration":250,"noteNumber":75,"velocity":115,"programNumber":85},{"time":123642.81599999993,"duration":121.35416666667152,"noteNumber":78,"velocity":115,"programNumber":85},{"time":123764.1701666666,"duration":250,"noteNumber":75,"velocity":115,"programNumber":85},{"time":124014.1701666666,"duration":256.7708333333285,"noteNumber":75,"velocity":115,"programNumber":85},{"time":124267.81599999993,"duration":628.6458333333285,"noteNumber":73,"velocity":115,"programNumber":85},{"time":125135.52433333326,"duration":250,"noteNumber":75,"velocity":115,"programNumber":85},{"time":125385.52433333326,"duration":250,"noteNumber":75,"velocity":115,"programNumber":85},{"time":125635.52433333326,"duration":250,"noteNumber":75,"velocity":115,"programNumber":85},{"time":125885.52433333326,"duration":250,"noteNumber":75,"velocity":115,"programNumber":85},{"time":126135.52433333326,"duration":125,"noteNumber":78,"velocity":115,"programNumber":85},{"time":126260.52433333326,"duration":378.125,"noteNumber":78,"velocity":115,"programNumber":85},{"time":126639.17016666659,"duration":125,"noteNumber":78,"velocity":115,"programNumber":85},{"time":126764.17016666659,"duration":371.3541666666715,"noteNumber":78,"velocity":115,"programNumber":85},{"time":127142.81599999993,"duration":250,"noteNumber":75,"velocity":115,"programNumber":85},{"time":127392.81599999993,"duration":250,"noteNumber":75,"velocity":115,"programNumber":85},{"time":127642.81599999993,"duration":250,"noteNumber":75,"velocity":115,"programNumber":85},{"time":127892.81599999993,"duration":125,"noteNumber":73,"velocity":115,"programNumber":85},{"time":128017.81599999993,"duration":250,"noteNumber":75,"velocity":115,"programNumber":85},{"time":128267.81599999993,"duration":375,"noteNumber":73,"velocity":115,"programNumber":85},{"time":128642.81599999993,"duration":250,"noteNumber":73,"velocity":115,"programNumber":85},{"time":128892.81599999993,"duration":250,"noteNumber":73,"velocity":115,"programNumber":85},{"time":129142.81599999993,"duration":250,"noteNumber":78,"velocity":115,"programNumber":85},{"time":129392.81599999993,"duration":500,"noteNumber":75,"velocity":115,"programNumber":85},{"time":130142.81599999993,"duration":250,"noteNumber":82,"velocity":115,"programNumber":85},{"time":130392.81599999993,"duration":256.7708333333285,"noteNumber":82,"velocity":115,"programNumber":85},{"time":130642.81599999993,"duration":125,"noteNumber":80,"velocity":115,"programNumber":85},{"time":130767.81599999993,"duration":125,"noteNumber":78,"velocity":115,"programNumber":85},{"time":130892.81599999993,"duration":371.35416666665697,"noteNumber":80,"velocity":115,"programNumber":85},{"time":131267.81599999993,"duration":378.64583333334303,"noteNumber":78,"velocity":115,"programNumber":85},{"time":131642.81599999993,"duration":250,"noteNumber":75,"velocity":115,"programNumber":85},{"time":131892.81599999993,"duration":250,"noteNumber":73,"velocity":115,"programNumber":85},{"time":132142.81599999993,"duration":250,"noteNumber":75,"velocity":115,"programNumber":85},{"time":132392.81599999993,"duration":250,"noteNumber":73,"velocity":115,"programNumber":85},{"time":132642.81599999993,"duration":250,"noteNumber":75,"velocity":115,"programNumber":85},{"time":132892.81599999993,"duration":250,"noteNumber":73,"velocity":115,"programNumber":85},{"time":133642.81599999993,"duration":125,"noteNumber":75,"velocity":115,"programNumber":85},{"time":133767.81599999993,"duration":125,"noteNumber":75,"velocity":115,"programNumber":85},{"time":133892.81599999993,"duration":125,"noteNumber":75,"velocity":115,"programNumber":85},{"time":134017.81599999993,"duration":125,"noteNumber":75,"velocity":115,"programNumber":85},{"time":134142.81599999993,"duration":125,"noteNumber":75,"velocity":115,"programNumber":85},{"time":134267.81599999993,"duration":125,"noteNumber":75,"velocity":115,"programNumber":85},{"time":134392.81599999993,"duration":125,"noteNumber":75,"velocity":115,"programNumber":85},{"time":134517.81599999993,"duration":125,"noteNumber":75,"velocity":115,"programNumber":85},{"time":134642.81599999993,"duration":125,"noteNumber":75,"velocity":115,"programNumber":85},{"time":134767.81599999993,"duration":125,"noteNumber":75,"velocity":115,"programNumber":85},{"time":134892.81599999993,"duration":125,"noteNumber":75,"velocity":115,"programNumber":85},{"time":135017.81599999993,"duration":125,"noteNumber":75,"velocity":115,"programNumber":85},{"time":135142.81599999993,"duration":500,"noteNumber":82,"velocity":115,"programNumber":85},{"time":135892.81599999993,"duration":500,"noteNumber":82,"velocity":115,"programNumber":85},{"time":139142.81599999993,"duration":250,"noteNumber":82,"velocity":115,"programNumber":85},{"time":139392.81599999993,"duration":250,"noteNumber":80,"velocity":115,"programNumber":85},{"time":139642.81599999993,"duration":128.64583333334303,"noteNumber":78,"velocity":115,"programNumber":85},{"time":139767.81599999993,"duration":371.35416666668607,"noteNumber":75,"velocity":115,"programNumber":85},{"time":140142.81599999996,"duration":371.35416666665697,"noteNumber":73,"velocity":115,"programNumber":85},{"time":140517.81599999996,"duration":128.64583333334303,"noteNumber":73,"velocity":115,"programNumber":85},{"time":140642.81599999996,"duration":371.35416666668607,"noteNumber":75,"velocity":115,"programNumber":85},{"time":150142.816,"duration":250,"noteNumber":65,"velocity":115,"programNumber":85},{"time":150392.816,"duration":750,"noteNumber":68,"velocity":115,"programNumber":85},{"time":151142.816,"duration":500,"noteNumber":63,"velocity":115,"programNumber":85},{"time":151642.816,"duration":250,"noteNumber":61,"velocity":115,"programNumber":85},{"time":151892.816,"duration":500,"noteNumber":63,"velocity":115,"programNumber":85},{"time":152392.816,"duration":750,"noteNumber":61,"velocity":115,"programNumber":85},{"time":153642.816,"duration":250,"noteNumber":65,"velocity":115,"programNumber":85},{"time":153892.816,"duration":250,"noteNumber":63,"velocity":115,"programNumber":85},{"time":154142.816,"duration":250,"noteNumber":65,"velocity":115,"programNumber":85},{"time":154392.816,"duration":250,"noteNumber":63,"velocity":115,"programNumber":85},{"time":154642.816,"duration":121.35416666665697,"noteNumber":61,"velocity":115,"programNumber":85},{"time":154892.816,"duration":500,"noteNumber":58,"velocity":115,"programNumber":85},{"time":156642.816,"duration":125,"noteNumber":59,"velocity":127,"programNumber":85},{"time":157142.816,"duration":250,"noteNumber":59,"velocity":127,"programNumber":85},{"time":157392.816,"duration":250,"noteNumber":58,"velocity":127,"programNumber":85},{"time":158642.816,"duration":125,"noteNumber":59,"velocity":127,"programNumber":85},{"time":159142.816,"duration":250,"noteNumber":59,"velocity":127,"programNumber":85},{"time":159392.816,"duration":250,"noteNumber":58,"velocity":127,"programNumber":85},{"time":160642.816,"duration":125,"noteNumber":59,"velocity":127,"programNumber":85},{"time":161142.816,"duration":500,"noteNumber":63,"velocity":127,"programNumber":85},{"time":163142.816,"duration":3250,"noteNumber":87,"velocity":117,"programNumber":85},{"time":166392.816,"duration":500,"noteNumber":82,"velocity":117,"programNumber":85},{"time":166892.816,"duration":250,"noteNumber":85,"velocity":117,"programNumber":85},{"time":167142.816,"duration":250,"noteNumber":82,"velocity":117,"programNumber":85},{"time":167392.816,"duration":250,"noteNumber":85,"velocity":117,"programNumber":85},{"time":167642.816,"duration":250,"noteNumber":82,"velocity":117,"programNumber":85},{"time":167892.816,"duration":250,"noteNumber":85,"velocity":115,"programNumber":85},{"time":168142.816,"duration":250,"noteNumber":82,"velocity":115,"programNumber":85},{"time":168392.816,"duration":250,"noteNumber":80,"velocity":115,"programNumber":85},{"time":168642.816,"duration":250,"noteNumber":82,"velocity":115,"programNumber":85},{"time":168892.816,"duration":250,"noteNumber":82,"velocity":115,"programNumber":85},{"time":169142.816,"duration":250,"noteNumber":82,"velocity":115,"programNumber":85},{"time":169392.816,"duration":250,"noteNumber":80,"velocity":115,"programNumber":85},{"time":169642.816,"duration":250,"noteNumber":82,"velocity":115,"programNumber":85},{"time":169892.816,"duration":250,"noteNumber":80,"velocity":115,"programNumber":85},{"time":170142.816,"duration":500,"noteNumber":85,"velocity":115,"programNumber":85},{"time":170642.816,"duration":250,"noteNumber":82,"velocity":115,"programNumber":85},{"time":228642.816,"duration":250,"noteNumber":73,"velocity":115,"programNumber":85},{"time":228892.816,"duration":250,"noteNumber":73,"velocity":115,"programNumber":85},{"time":229142.816,"duration":250,"noteNumber":78,"velocity":115,"programNumber":85},{"time":229392.816,"duration":500,"noteNumber":75,"velocity":115,"programNumber":85},{"time":230142.816,"duration":250,"noteNumber":82,"velocity":115,"programNumber":85},{"time":230392.816,"duration":256.77083333334303,"noteNumber":82,"velocity":115,"programNumber":85},{"time":230642.816,"duration":125,"noteNumber":80,"velocity":115,"programNumber":85},{"time":230767.816,"duration":125,"noteNumber":78,"velocity":115,"programNumber":85},{"time":230892.816,"duration":371.35416666665697,"noteNumber":80,"velocity":115,"programNumber":85},{"time":231267.816,"duration":378.64583333334303,"noteNumber":78,"velocity":115,"programNumber":85},{"time":231642.816,"duration":250,"noteNumber":75,"velocity":115,"programNumber":85},{"time":231892.816,"duration":250,"noteNumber":73,"velocity":115,"programNumber":85},{"time":232142.816,"duration":250,"noteNumber":75,"velocity":115,"programNumber":85},{"time":232392.816,"duration":250,"noteNumber":73,"velocity":115,"programNumber":85},{"time":232642.816,"duration":250,"noteNumber":75,"velocity":115,"programNumber":85},{"time":232892.816,"duration":250,"noteNumber":73,"velocity":115,"programNumber":85},{"time":233642.816,"duration":125,"noteNumber":75,"velocity":115,"programNumber":85},{"time":233767.816,"duration":125,"noteNumber":75,"velocity":115,"programNumber":85},{"time":233892.816,"duration":125,"noteNumber":75,"velocity":115,"programNumber":85},{"time":234017.816,"duration":125,"noteNumber":75,"velocity":115,"programNumber":85},{"time":234142.816,"duration":125,"noteNumber":75,"velocity":115,"programNumber":85},{"time":234267.816,"duration":125,"noteNumber":75,"velocity":115,"programNumber":85},{"time":234392.816,"duration":125,"noteNumber":75,"velocity":115,"programNumber":85},{"time":234517.816,"duration":125,"noteNumber":75,"velocity":115,"programNumber":85},{"time":234642.816,"duration":125,"noteNumber":75,"velocity":115,"programNumber":85},{"time":234767.816,"duration":125,"noteNumber":75,"velocity":115,"programNumber":85},{"time":234892.816,"duration":125,"noteNumber":75,"velocity":115,"programNumber":85},{"time":235017.816,"duration":125,"noteNumber":75,"velocity":115,"programNumber":85},{"time":235142.816,"duration":500,"noteNumber":82,"velocity":115,"programNumber":85},{"time":235892.816,"duration":500,"noteNumber":82,"velocity":115,"programNumber":85},{"time":236642.816,"duration":250,"noteNumber":78,"velocity":115,"programNumber":85},{"time":236892.816,"duration":250,"noteNumber":75,"velocity":115,"programNumber":85},{"time":237142.816,"duration":250,"noteNumber":78,"velocity":115,"programNumber":85},{"time":237392.816,"duration":500,"noteNumber":75,"velocity":115,"programNumber":85},{"time":238142.816,"duration":250,"noteNumber":82,"velocity":115,"programNumber":85},{"time":238392.816,"duration":256.77083333334303,"noteNumber":82,"velocity":115,"programNumber":85},{"time":238642.816,"duration":125,"noteNumber":80,"velocity":115,"programNumber":85},{"time":238767.816,"duration":125,"noteNumber":78,"velocity":115,"programNumber":85},{"time":238892.816,"duration":371.35416666665697,"noteNumber":80,"velocity":115,"programNumber":85},{"time":239267.816,"duration":378.64583333334303,"noteNumber":78,"velocity":115,"programNumber":85},{"time":239642.816,"duration":250,"noteNumber":75,"velocity":115,"programNumber":85},{"time":239892.816,"duration":250,"noteNumber":73,"velocity":115,"programNumber":85},{"time":240142.816,"duration":250,"noteNumber":75,"velocity":115,"programNumber":85},{"time":240392.816,"duration":250,"noteNumber":73,"velocity":115,"programNumber":85},{"time":240642.816,"duration":250,"noteNumber":75,"velocity":115,"programNumber":85},{"time":240892.816,"duration":250,"noteNumber":73,"velocity":115,"programNumber":85},{"time":241642.816,"duration":125,"noteNumber":75,"velocity":115,"programNumber":85},{"time":241767.816,"duration":125,"noteNumber":75,"velocity":115,"programNumber":85},{"time":241892.816,"duration":125,"noteNumber":75,"velocity":115,"programNumber":85},{"time":242017.816,"duration":125,"noteNumber":75,"velocity":115,"programNumber":85},{"time":242142.816,"duration":125,"noteNumber":75,"velocity":115,"programNumber":85},{"time":242267.816,"duration":125,"noteNumber":75,"velocity":115,"programNumber":85},{"time":242392.816,"duration":125,"noteNumber":75,"velocity":115,"programNumber":85},{"time":242517.816,"duration":125,"noteNumber":75,"velocity":115,"programNumber":85},{"time":242642.816,"duration":125,"noteNumber":75,"velocity":115,"programNumber":85},{"time":242767.816,"duration":125,"noteNumber":75,"velocity":115,"programNumber":85},{"time":242892.816,"duration":125,"noteNumber":75,"velocity":115,"programNumber":85},{"time":243017.816,"duration":125,"noteNumber":75,"velocity":115,"programNumber":85},{"time":243142.816,"duration":500,"noteNumber":82,"velocity":115,"programNumber":85},{"time":243892.816,"duration":500,"noteNumber":82,"velocity":115,"programNumber":85},{"time":244642.816,"duration":250,"noteNumber":78,"velocity":115,"programNumber":85},{"time":244892.816,"duration":250,"noteNumber":75,"velocity":115,"programNumber":85},{"time":245142.816,"duration":250,"noteNumber":78,"velocity":115,"programNumber":85},{"time":245392.816,"duration":500,"noteNumber":75,"velocity":115,"programNumber":85},{"time":246142.816,"duration":250,"noteNumber":82,"velocity":115,"programNumber":85},{"time":246392.816,"duration":256.77083333334303,"noteNumber":82,"velocity":115,"programNumber":85},{"time":246642.816,"duration":125,"noteNumber":80,"velocity":115,"programNumber":85},{"time":246767.816,"duration":125,"noteNumber":78,"velocity":115,"programNumber":85},{"time":246892.816,"duration":371.35416666665697,"noteNumber":80,"velocity":115,"programNumber":85},{"time":247267.816,"duration":378.64583333334303,"noteNumber":78,"velocity":115,"programNumber":85},{"time":247642.816,"duration":250,"noteNumber":75,"velocity":115,"programNumber":85},{"time":247892.816,"duration":250,"noteNumber":73,"velocity":115,"programNumber":85},{"time":248142.816,"duration":250,"noteNumber":75,"velocity":115,"programNumber":85},{"time":248392.816,"duration":250,"noteNumber":73,"velocity":115,"programNumber":85},{"time":248642.816,"duration":250,"noteNumber":75,"velocity":115,"programNumber":85},{"time":248892.816,"duration":250,"noteNumber":73,"velocity":115,"programNumber":85},{"time":249642.816,"duration":125,"noteNumber":75,"velocity":115,"programNumber":85},{"time":249767.816,"duration":125,"noteNumber":75,"velocity":115,"programNumber":85},{"time":249892.816,"duration":125,"noteNumber":75,"velocity":115,"programNumber":85},{"time":250017.816,"duration":125,"noteNumber":75,"velocity":115,"programNumber":85},{"time":250142.816,"duration":125,"noteNumber":75,"velocity":115,"programNumber":85},{"time":250267.816,"duration":125,"noteNumber":75,"velocity":115,"programNumber":85},{"time":250392.816,"duration":125,"noteNumber":75,"velocity":115,"programNumber":85},{"time":250517.816,"duration":125,"noteNumber":75,"velocity":115,"programNumber":85},{"time":250642.816,"duration":125,"noteNumber":75,"velocity":115,"programNumber":85},{"time":250767.816,"duration":125,"noteNumber":75,"velocity":115,"programNumber":85},{"time":250892.816,"duration":125,"noteNumber":75,"velocity":115,"programNumber":85},{"time":251017.816,"duration":125,"noteNumber":75,"velocity":115,"programNumber":85},{"time":251142.816,"duration":500,"noteNumber":82,"velocity":115,"programNumber":85},{"time":251892.816,"duration":500,"noteNumber":82,"velocity":115,"programNumber":85},{"time":252642.816,"duration":250,"noteNumber":78,"velocity":115,"programNumber":85},{"time":252892.816,"duration":250,"noteNumber":75,"velocity":115,"programNumber":85},{"time":253142.816,"duration":250,"noteNumber":78,"velocity":115,"programNumber":85},{"time":253392.816,"duration":500,"noteNumber":75,"velocity":115,"programNumber":85},{"time":254142.816,"duration":250,"noteNumber":82,"velocity":115,"programNumber":85},{"time":254392.816,"duration":256.77083333334303,"noteNumber":82,"velocity":115,"programNumber":85},{"time":254642.816,"duration":125,"noteNumber":80,"velocity":115,"programNumber":85},{"time":254767.816,"duration":125,"noteNumber":78,"velocity":115,"programNumber":85},{"time":254892.816,"duration":371.35416666665697,"noteNumber":80,"velocity":115,"programNumber":85},{"time":255267.816,"duration":378.64583333334303,"noteNumber":78,"velocity":115,"programNumber":85},{"time":255642.816,"duration":250,"noteNumber":75,"velocity":115,"programNumber":85},{"time":255892.816,"duration":250,"noteNumber":73,"velocity":115,"programNumber":85},{"time":256142.816,"duration":250,"noteNumber":75,"velocity":115,"programNumber":85},{"time":256392.816,"duration":250,"noteNumber":73,"velocity":115,"programNumber":85},{"time":256642.816,"duration":250,"noteNumber":75,"velocity":115,"programNumber":85},{"time":256892.816,"duration":250,"noteNumber":73,"velocity":115,"programNumber":85},{"time":257142.816,"duration":371.35416666665697,"noteNumber":87,"velocity":115,"programNumber":85},{"time":257517.816,"duration":250,"noteNumber":85,"velocity":115,"programNumber":85},{"time":257767.816,"duration":250,"noteNumber":82,"velocity":115,"programNumber":85},{"time":258017.816,"duration":250,"noteNumber":85,"velocity":115,"programNumber":85},{"time":258267.816,"duration":250,"noteNumber":82,"velocity":115,"programNumber":85},{"time":259142.816,"duration":500,"noteNumber":82,"velocity":115,"programNumber":85},{"time":260392.816,"duration":749.479166666657,"noteNumber":80,"velocity":115,"programNumber":85}]]}