{"tracks":[[{"time":8709.66,"duration":483.8700000000008,"noteNumber":56,"velocity":127,"programNumber":30},{"time":9193.53,"duration":483.8700000000008,"noteNumber":56,"velocity":127,"programNumber":30},{"time":9677.400000000001,"duration":241.9349999999995,"noteNumber":54,"velocity":127,"programNumber":30},{"time":9919.335000000001,"duration":322.5799999999999,"noteNumber":56,"velocity":127,"programNumber":30},{"time":10645.140000000001,"duration":241.9349999999995,"noteNumber":61,"velocity":127,"programNumber":30},{"time":10887.075,"duration":483.8700000000008,"noteNumber":63,"velocity":127,"programNumber":30},{"time":11370.945000000002,"duration":483.8700000000008,"noteNumber":64,"velocity":127,"programNumber":30},{"time":12096.750000000002,"duration":161.29000000000087,"noteNumber":60,"velocity":127,"programNumber":30},{"time":12338.685000000003,"duration":483.8700000000008,"noteNumber":60,"velocity":127,"programNumber":30},{"time":12822.555000000004,"duration":483.8700000000008,"noteNumber":62,"velocity":127,"programNumber":30},{"time":13306.425000000005,"duration":483.8700000000008,"noteNumber":59,"velocity":127,"programNumber":30},{"time":14274.165000000006,"duration":241.9349999999995,"noteNumber":52,"velocity":127,"programNumber":30},{"time":14516.100000000006,"duration":241.9349999999995,"noteNumber":57,"velocity":127,"programNumber":30},{"time":14758.035000000005,"duration":483.8700000000008,"noteNumber":59,"velocity":127,"programNumber":30},{"time":15241.905000000006,"duration":483.8700000000008,"noteNumber":56,"velocity":127,"programNumber":30},{"time":16451.580000000005,"duration":483.869999999999,"noteNumber":56,"velocity":127,"programNumber":30},{"time":16935.450000000004,"duration":483.869999999999,"noteNumber":56,"velocity":127,"programNumber":30},{"time":17419.320000000003,"duration":241.9350000000013,"noteNumber":54,"velocity":127,"programNumber":30},{"time":17661.255000000005,"duration":322.58000000000175,"noteNumber":56,"velocity":127,"programNumber":30},{"time":18387.060000000005,"duration":241.9350000000013,"noteNumber":61,"velocity":127,"programNumber":30},{"time":18628.995000000006,"duration":483.869999999999,"noteNumber":63,"velocity":127,"programNumber":30},{"time":19112.865000000005,"duration":483.869999999999,"noteNumber":64,"velocity":127,"programNumber":30},{"time":19838.670000000006,"duration":161.29000000000087,"noteNumber":60,"velocity":127,"programNumber":30},{"time":20080.605000000007,"duration":483.869999999999,"noteNumber":60,"velocity":127,"programNumber":30},{"time":20564.475000000006,"duration":483.869999999999,"noteNumber":62,"velocity":127,"programNumber":30},{"time":21048.345000000005,"duration":483.869999999999,"noteNumber":59,"velocity":127,"programNumber":30},{"time":22016.085000000003,"duration":241.9350000000013,"noteNumber":52,"velocity":127,"programNumber":30},{"time":22258.020000000004,"duration":241.9350000000013,"noteNumber":57,"velocity":127,"programNumber":30},{"time":22499.955000000005,"duration":483.869999999999,"noteNumber":59,"velocity":127,"programNumber":30},{"time":22983.825000000004,"duration":483.869999999999,"noteNumber":56,"velocity":127,"programNumber":30},{"time":24193.500000000004,"duration":483.869999999999,"noteNumber":56,"velocity":127,"programNumber":30},{"time":24677.370000000003,"duration":483.869999999999,"noteNumber":56,"velocity":127,"programNumber":30},{"time":25161.24,"duration":241.9350000000013,"noteNumber":54,"velocity":127,"programNumber":30},{"time":25403.175000000003,"duration":322.58000000000175,"noteNumber":56,"velocity":127,"programNumber":30},{"time":26128.980000000003,"duration":241.9350000000013,"noteNumber":61,"velocity":127,"programNumber":30},{"time":26370.915000000005,"duration":483.869999999999,"noteNumber":63,"velocity":127,"programNumber":30},{"time":26854.785000000003,"duration":483.869999999999,"noteNumber":64,"velocity":127,"programNumber":30},{"time":27580.590000000004,"duration":161.29000000000087,"noteNumber":60,"velocity":127,"programNumber":30},{"time":27822.525000000005,"duration":483.869999999999,"noteNumber":60,"velocity":127,"programNumber":30},{"time":28306.395000000004,"duration":483.869999999999,"noteNumber":62,"velocity":127,"programNumber":30},{"time":28790.265000000003,"duration":483.869999999999,"noteNumber":59,"velocity":127,"programNumber":30},{"time":29516.070000000003,"duration":241.9350000000013,"noteNumber":52,"velocity":127,"programNumber":30},{"time":29758.005000000005,"duration":483.869999999999,"noteNumber":57,"velocity":127,"programNumber":30},{"time":30241.875000000004,"duration":483.869999999999,"noteNumber":59,"velocity":127,"programNumber":30},{"time":30725.745000000003,"duration":483.869999999999,"noteNumber":56,"velocity":127,"programNumber":30},{"time":31935.420000000002,"duration":483.869999999999,"noteNumber":56,"velocity":127,"programNumber":30},{"time":32419.29,"duration":483.8700000000026,"noteNumber":56,"velocity":127,"programNumber":30},{"time":32903.16,"duration":241.93499999999767,"noteNumber":54,"velocity":127,"programNumber":30},{"time":33145.095,"duration":322.58000000000175,"noteNumber":56,"velocity":127,"programNumber":30},{"time":33870.9,"duration":241.93499999999767,"noteNumber":61,"velocity":127,"programNumber":30},{"time":34112.835,"duration":483.8700000000026,"noteNumber":63,"velocity":127,"programNumber":30},{"time":34596.705,"duration":483.8700000000026,"noteNumber":64,"velocity":127,"programNumber":30},{"time":35322.51,"duration":161.29000000000087,"noteNumber":60,"velocity":127,"programNumber":30},{"time":35564.445,"duration":483.8700000000026,"noteNumber":60,"velocity":127,"programNumber":30},{"time":36048.315,"duration":483.8700000000026,"noteNumber":62,"velocity":127,"programNumber":30},{"time":36532.185000000005,"duration":483.8700000000026,"noteNumber":59,"velocity":127,"programNumber":30},{"time":37257.990000000005,"duration":483.8700000000026,"noteNumber":67,"velocity":127,"programNumber":30},{"time":37741.86000000001,"duration":241.93499999999767,"noteNumber":66,"velocity":127,"programNumber":30},{"time":37983.795000000006,"duration":241.93499999999767,"noteNumber":64,"velocity":127,"programNumber":30},{"time":38225.73,"duration":241.93499999999767,"noteNumber":61,"velocity":127,"programNumber":30},{"time":38467.665,"duration":967.739999999998,"noteNumber":64,"velocity":127,"programNumber":30},{"time":41128.95,"duration":483.8700000000026,"noteNumber":67,"velocity":127,"programNumber":30},{"time":41612.82,"duration":241.93499999999767,"noteNumber":67,"velocity":127,"programNumber":30},{"time":41854.755,"duration":241.93499999999767,"noteNumber":64,"velocity":127,"programNumber":30},{"time":42096.689999999995,"duration":241.93499999999767,"noteNumber":61,"velocity":127,"programNumber":30},{"time":42338.62499999999,"duration":1935.4800000000032,"noteNumber":67,"velocity":127,"programNumber":30},{"time":44274.104999999996,"duration":241.93499999999767,"noteNumber":66,"velocity":127,"programNumber":30},{"time":44999.909999999996,"duration":483.8700000000026,"noteNumber":67,"velocity":127,"programNumber":30},{"time":45483.78,"duration":241.93499999999767,"noteNumber":66,"velocity":127,"programNumber":30},{"time":45725.715,"duration":241.93499999999767,"noteNumber":64,"velocity":127,"programNumber":30},{"time":45967.649999999994,"duration":241.93499999999767,"noteNumber":61,"velocity":127,"programNumber":30},{"time":46209.58499999999,"duration":967.739999999998,"noteNumber":64,"velocity":127,"programNumber":30},{"time":48870.86999999999,"duration":483.8700000000026,"noteNumber":67,"velocity":127,"programNumber":30},{"time":49354.73999999999,"duration":241.93499999999767,"noteNumber":67,"velocity":127,"programNumber":30},{"time":49596.67499999999,"duration":241.93499999999767,"noteNumber":64,"velocity":127,"programNumber":30},{"time":49838.609999999986,"duration":241.93499999999767,"noteNumber":61,"velocity":127,"programNumber":30},{"time":50080.544999999984,"duration":1935.4800000000032,"noteNumber":67,"velocity":127,"programNumber":30},{"time":52016.02499999999,"duration":241.93499999999767,"noteNumber":66,"velocity":127,"programNumber":30},{"time":52741.82999999999,"duration":483.8700000000026,"noteNumber":67,"velocity":127,"programNumber":30},{"time":53225.69999999999,"duration":241.93499999999767,"noteNumber":66,"velocity":127,"programNumber":30},{"time":53467.63499999999,"duration":241.93499999999767,"noteNumber":64,"velocity":127,"programNumber":30},{"time":53709.569999999985,"duration":241.93499999999767,"noteNumber":61,"velocity":127,"programNumber":30},{"time":53951.50499999998,"duration":1209.675000000003,"noteNumber":64,"velocity":127,"programNumber":30},{"time":55161.179999999986,"duration":725.8050000000003,"noteNumber":63,"velocity":127,"programNumber":30},{"time":55886.984999999986,"duration":241.93499999999767,"noteNumber":61,"velocity":127,"programNumber":30},{"time":56612.789999999986,"duration":483.8700000000026,"noteNumber":67,"velocity":127,"programNumber":30},{"time":57096.65999999999,"duration":241.93499999999767,"noteNumber":67,"velocity":127,"programNumber":30},{"time":57338.59499999999,"duration":241.93499999999767,"noteNumber":64,"velocity":127,"programNumber":30},{"time":57580.529999999984,"duration":241.93499999999767,"noteNumber":61,"velocity":127,"programNumber":30},{"time":57822.46499999998,"duration":1935.4800000000032,"noteNumber":67,"velocity":127,"programNumber":30},{"time":59757.944999999985,"duration":967.739999999998,"noteNumber":67,"velocity":127,"programNumber":30},{"time":60725.68499999998,"duration":1209.675000000003,"noteNumber":67,"velocity":127,"programNumber":30},{"time":62903.099999999984,"duration":483.8700000000026,"noteNumber":56,"velocity":127,"programNumber":30},{"time":63386.96999999999,"duration":483.8700000000026,"noteNumber":56,"velocity":127,"programNumber":30},{"time":63870.83999999999,"duration":241.93499999999767,"noteNumber":54,"velocity":127,"programNumber":30},{"time":64112.77499999999,"duration":322.58000000000175,"noteNumber":56,"velocity":127,"programNumber":30},{"time":64838.57999999999,"duration":241.93499999999767,"noteNumber":61,"velocity":127,"programNumber":30},{"time":65080.514999999985,"duration":483.86999999999534,"noteNumber":63,"velocity":127,"programNumber":30},{"time":65564.38499999998,"duration":483.86999999999534,"noteNumber":64,"velocity":127,"programNumber":30},{"time":66290.18999999997,"duration":161.2899999999936,"noteNumber":60,"velocity":127,"programNumber":30},{"time":66532.12499999997,"duration":483.86999999999534,"noteNumber":60,"velocity":127,"programNumber":30},{"time":67015.99499999997,"duration":483.86999999999534,"noteNumber":62,"velocity":127,"programNumber":30},{"time":67499.86499999996,"duration":483.86999999999534,"noteNumber":59,"velocity":127,"programNumber":30},{"time":68467.60499999995,"duration":241.93499999999767,"noteNumber":52,"velocity":127,"programNumber":30},{"time":68709.53999999995,"duration":241.93499999999767,"noteNumber":57,"velocity":127,"programNumber":30},{"time":68951.47499999995,"duration":483.86999999999534,"noteNumber":59,"velocity":127,"programNumber":30},{"time":69435.34499999994,"duration":483.86999999999534,"noteNumber":56,"velocity":127,"programNumber":30},{"time":70645.01999999993,"duration":483.86999999999534,"noteNumber":56,"velocity":127,"programNumber":30},{"time":71128.88999999993,"duration":483.86999999999534,"noteNumber":56,"velocity":127,"programNumber":30},{"time":71612.75999999992,"duration":241.93499999999767,"noteNumber":54,"velocity":127,"programNumber":30},{"time":71854.69499999992,"duration":322.58000000000175,"noteNumber":56,"velocity":127,"programNumber":30},{"time":72580.49999999993,"duration":241.93499999999767,"noteNumber":61,"velocity":127,"programNumber":30},{"time":72822.43499999992,"duration":483.86999999999534,"noteNumber":63,"velocity":127,"programNumber":30},{"time":73306.30499999992,"duration":483.86999999999534,"noteNumber":64,"velocity":127,"programNumber":30},{"time":74032.10999999991,"duration":161.2899999999936,"noteNumber":60,"velocity":127,"programNumber":30},{"time":74274.04499999991,"duration":483.86999999999534,"noteNumber":60,"velocity":127,"programNumber":30},{"time":74757.9149999999,"duration":483.86999999999534,"noteNumber":62,"velocity":127,"programNumber":30},{"time":75241.7849999999,"duration":483.86999999999534,"noteNumber":59,"velocity":127,"programNumber":30},{"time":76209.52499999989,"duration":241.93499999999767,"noteNumber":52,"velocity":127,"programNumber":30},{"time":76451.45999999989,"duration":241.93499999999767,"noteNumber":57,"velocity":127,"programNumber":30},{"time":76693.39499999989,"duration":483.86999999999534,"noteNumber":59,"velocity":127,"programNumber":30},{"time":77177.26499999988,"duration":483.86999999999534,"noteNumber":56,"velocity":127,"programNumber":30},{"time":78386.93999999987,"duration":483.86999999999534,"noteNumber":56,"velocity":127,"programNumber":30},{"time":78870.80999999987,"duration":483.86999999999534,"noteNumber":56,"velocity":127,"programNumber":30},{"time":79354.67999999986,"duration":241.93499999999767,"noteNumber":54,"velocity":127,"programNumber":30},{"time":79596.61499999986,"duration":322.58000000000175,"noteNumber":56,"velocity":127,"programNumber":30},{"time":80322.41999999987,"duration":241.93499999999767,"noteNumber":61,"velocity":127,"programNumber":30},{"time":80564.35499999986,"duration":483.86999999999534,"noteNumber":63,"velocity":127,"programNumber":30},{"time":81048.22499999986,"duration":483.86999999999534,"noteNumber":64,"velocity":127,"programNumber":30},{"time":81774.02999999985,"duration":161.2899999999936,"noteNumber":60,"velocity":127,"programNumber":30},{"time":82015.96499999985,"duration":483.86999999999534,"noteNumber":60,"velocity":127,"programNumber":30},{"time":82499.83499999985,"duration":483.86999999999534,"noteNumber":62,"velocity":127,"programNumber":30},{"time":82983.70499999984,"duration":483.86999999999534,"noteNumber":59,"velocity":127,"programNumber":30},{"time":83709.50999999983,"duration":241.93499999999767,"noteNumber":52,"velocity":127,"programNumber":30},{"time":83951.44499999983,"duration":483.86999999999534,"noteNumber":57,"velocity":127,"programNumber":30},{"time":84435.31499999983,"duration":483.86999999999534,"noteNumber":59,"velocity":127,"programNumber":30},{"time":84919.18499999982,"duration":483.86999999999534,"noteNumber":56,"velocity":127,"programNumber":30},{"time":86128.85999999981,"duration":483.86999999999534,"noteNumber":56,"velocity":127,"programNumber":30},{"time":86612.7299999998,"duration":483.86999999999534,"noteNumber":56,"velocity":127,"programNumber":30},{"time":87096.5999999998,"duration":241.93499999999767,"noteNumber":54,"velocity":127,"programNumber":30},{"time":87338.5349999998,"duration":322.58000000000175,"noteNumber":56,"velocity":127,"programNumber":30},{"time":88064.33999999981,"duration":241.93499999999767,"noteNumber":61,"velocity":127,"programNumber":30},{"time":88306.2749999998,"duration":483.86999999999534,"noteNumber":63,"velocity":127,"programNumber":30},{"time":88790.1449999998,"duration":483.86999999999534,"noteNumber":64,"velocity":127,"programNumber":30},{"time":89515.9499999998,"duration":161.2899999999936,"noteNumber":60,"velocity":127,"programNumber":30},{"time":89757.88499999979,"duration":483.86999999999534,"noteNumber":60,"velocity":127,"programNumber":30},{"time":90241.75499999979,"duration":483.86999999999534,"noteNumber":62,"velocity":127,"programNumber":30},{"time":90725.62499999978,"duration":483.86999999999534,"noteNumber":59,"velocity":127,"programNumber":30},{"time":91451.42999999977,"duration":483.86999999999534,"noteNumber":67,"velocity":127,"programNumber":30},{"time":91935.29999999977,"duration":241.93499999999767,"noteNumber":66,"velocity":127,"programNumber":30},{"time":92177.23499999977,"duration":241.93499999999767,"noteNumber":64,"velocity":127,"programNumber":30},{"time":92419.16999999977,"duration":241.93499999999767,"noteNumber":61,"velocity":127,"programNumber":30},{"time":92661.10499999976,"duration":967.7400000000052,"noteNumber":64,"velocity":127,"programNumber":30},{"time":95322.38999999977,"duration":483.86999999999534,"noteNumber":67,"velocity":127,"programNumber":30},{"time":95806.25999999976,"duration":241.93499999999767,"noteNumber":67,"velocity":127,"programNumber":30},{"time":96048.19499999976,"duration":241.93499999999767,"noteNumber":64,"velocity":127,"programNumber":30},{"time":96290.12999999976,"duration":241.93499999999767,"noteNumber":61,"velocity":127,"programNumber":30},{"time":96532.06499999975,"duration":1935.479999999996,"noteNumber":67,"velocity":127,"programNumber":30},{"time":98467.54499999975,"duration":241.93499999999767,"noteNumber":66,"velocity":127,"programNumber":30},{"time":99193.34999999974,"duration":483.86999999999534,"noteNumber":67,"velocity":127,"programNumber":30},{"time":99677.21999999974,"duration":241.93499999999767,"noteNumber":66,"velocity":127,"programNumber":30},{"time":99919.15499999974,"duration":241.93499999999767,"noteNumber":64,"velocity":127,"programNumber":30},{"time":100161.08999999973,"duration":241.93499999999767,"noteNumber":61,"velocity":127,"programNumber":30},{"time":100403.02499999973,"duration":967.7400000000052,"noteNumber":64,"velocity":127,"programNumber":30},{"time":103064.30999999974,"duration":483.86999999999534,"noteNumber":67,"velocity":127,"programNumber":30},{"time":103548.17999999973,"duration":241.93499999999767,"noteNumber":67,"velocity":127,"programNumber":30},{"time":103790.11499999973,"duration":241.93499999999767,"noteNumber":64,"velocity":127,"programNumber":30},{"time":104032.04999999973,"duration":241.93499999999767,"noteNumber":61,"velocity":127,"programNumber":30},{"time":104273.98499999972,"duration":1935.479999999996,"noteNumber":67,"velocity":127,"programNumber":30},{"time":106209.46499999972,"duration":241.93499999999767,"noteNumber":66,"velocity":127,"programNumber":30},{"time":106935.26999999971,"duration":483.86999999999534,"noteNumber":67,"velocity":127,"programNumber":30},{"time":107419.13999999971,"duration":241.93499999999767,"noteNumber":66,"velocity":127,"programNumber":30},{"time":107661.0749999997,"duration":241.93499999999767,"noteNumber":64,"velocity":127,"programNumber":30},{"time":107903.0099999997,"duration":241.93499999999767,"noteNumber":61,"velocity":127,"programNumber":30},{"time":108144.9449999997,"duration":1209.675000000003,"noteNumber":64,"velocity":127,"programNumber":30},{"time":109354.6199999997,"duration":725.804999999993,"noteNumber":63,"velocity":127,"programNumber":30},{"time":110080.4249999997,"duration":241.93499999999767,"noteNumber":61,"velocity":127,"programNumber":30},{"time":110806.22999999969,"duration":483.86999999999534,"noteNumber":67,"velocity":127,"programNumber":30},{"time":111290.09999999969,"duration":241.93499999999767,"noteNumber":67,"velocity":127,"programNumber":30},{"time":111532.03499999968,"duration":241.93499999999767,"noteNumber":64,"velocity":127,"programNumber":30},{"time":111773.96999999968,"duration":241.93499999999767,"noteNumber":61,"velocity":127,"programNumber":30},{"time":112015.90499999968,"duration":1935.479999999996,"noteNumber":67,"velocity":127,"programNumber":30},{"time":113951.38499999967,"duration":967.7400000000052,"noteNumber":67,"velocity":127,"programNumber":30},{"time":114919.12499999968,"duration":1209.675000000003,"noteNumber":67,"velocity":127,"programNumber":30},{"time":116612.66999999968,"duration":483.86999999999534,"noteNumber":64,"velocity":127,"programNumber":30},{"time":117096.53999999967,"duration":483.86999999999534,"noteNumber":67,"velocity":127,"programNumber":30},{"time":117580.40999999967,"duration":483.86999999999534,"noteNumber":62,"velocity":127,"programNumber":30},{"time":118064.27999999966,"duration":483.86999999999534,"noteNumber":64,"velocity":127,"programNumber":30},{"time":118548.14999999966,"duration":483.86999999999534,"noteNumber":64,"velocity":127,"programNumber":30},{"time":119032.01999999965,"duration":241.93499999999767,"noteNumber":62,"velocity":127,"programNumber":30},{"time":119273.95499999965,"duration":483.86999999999534,"noteNumber":64,"velocity":127,"programNumber":30},{"time":119757.82499999965,"duration":241.93499999999767,"noteNumber":62,"velocity":127,"programNumber":30},{"time":120483.62999999964,"duration":483.86999999999534,"noteNumber":64,"velocity":127,"programNumber":30},{"time":120967.49999999964,"duration":483.86999999999534,"noteNumber":67,"velocity":127,"programNumber":30},{"time":121451.36999999963,"duration":483.86999999999534,"noteNumber":62,"velocity":127,"programNumber":30},{"time":121935.23999999963,"duration":483.86999999999534,"noteNumber":64,"velocity":127,"programNumber":30},{"time":122419.10999999962,"duration":483.86999999999534,"noteNumber":64,"velocity":127,"programNumber":30},{"time":122902.97999999962,"duration":241.93499999999767,"noteNumber":62,"velocity":127,"programNumber":30},{"time":123144.91499999962,"duration":483.86999999999534,"noteNumber":64,"velocity":127,"programNumber":30},{"time":123628.78499999961,"duration":241.93499999999767,"noteNumber":62,"velocity":127,"programNumber":30},{"time":124354.5899999996,"duration":483.86999999999534,"noteNumber":64,"velocity":127,"programNumber":30},{"time":124838.4599999996,"duration":483.86999999999534,"noteNumber":67,"velocity":127,"programNumber":30},{"time":125322.3299999996,"duration":483.86999999999534,"noteNumber":62,"velocity":127,"programNumber":30},{"time":125806.19999999959,"duration":483.86999999999534,"noteNumber":64,"velocity":127,"programNumber":30},{"time":126290.06999999958,"duration":483.86999999999534,"noteNumber":64,"velocity":127,"programNumber":30},{"time":126773.93999999958,"duration":241.93499999999767,"noteNumber":62,"velocity":127,"programNumber":30},{"time":127015.87499999958,"duration":483.86999999999534,"noteNumber":64,"velocity":127,"programNumber":30},{"time":127499.74499999957,"duration":241.93499999999767,"noteNumber":62,"velocity":127,"programNumber":30},{"time":128225.54999999957,"duration":483.86999999999534,"noteNumber":64,"velocity":127,"programNumber":30},{"time":128709.41999999956,"duration":483.86999999999534,"noteNumber":67,"velocity":127,"programNumber":30},{"time":129193.28999999956,"duration":483.86999999999534,"noteNumber":62,"velocity":127,"programNumber":30},{"time":129677.15999999955,"duration":483.86999999999534,"noteNumber":64,"velocity":127,"programNumber":30},{"time":130161.02999999955,"duration":483.86999999999534,"noteNumber":64,"velocity":127,"programNumber":30},{"time":130644.89999999954,"duration":241.93499999999767,"noteNumber":62,"velocity":127,"programNumber":30},{"time":130886.83499999954,"duration":483.8700000000099,"noteNumber":64,"velocity":127,"programNumber":30},{"time":131370.70499999955,"duration":241.93499999999767,"noteNumber":62,"velocity":127,"programNumber":30},{"time":132096.50999999954,"duration":483.86999999999534,"noteNumber":64,"velocity":127,"programNumber":30},{"time":132580.37999999954,"duration":483.86999999999534,"noteNumber":67,"velocity":127,"programNumber":30},{"time":133064.24999999953,"duration":483.86999999999534,"noteNumber":62,"velocity":127,"programNumber":30},{"time":133548.11999999953,"duration":483.86999999999534,"noteNumber":64,"velocity":127,"programNumber":30},{"time":134031.98999999953,"duration":483.86999999999534,"noteNumber":64,"velocity":127,"programNumber":30},{"time":134515.85999999952,"duration":241.93499999999767,"noteNumber":62,"velocity":127,"programNumber":30},{"time":134757.79499999952,"duration":483.86999999999534,"noteNumber":64,"velocity":127,"programNumber":30},{"time":135241.6649999995,"duration":241.93499999999767,"noteNumber":62,"velocity":127,"programNumber":30},{"time":135967.4699999995,"duration":483.86999999999534,"noteNumber":64,"velocity":127,"programNumber":30},{"time":136451.3399999995,"duration":483.86999999999534,"noteNumber":67,"velocity":127,"programNumber":30},{"time":136935.2099999995,"duration":483.86999999999534,"noteNumber":62,"velocity":127,"programNumber":30},{"time":137419.0799999995,"duration":483.86999999999534,"noteNumber":64,"velocity":127,"programNumber":30},{"time":137902.9499999995,"duration":483.86999999999534,"noteNumber":64,"velocity":127,"programNumber":30},{"time":138386.81999999948,"duration":241.93499999999767,"noteNumber":62,"velocity":127,"programNumber":30},{"time":138628.75499999948,"duration":483.86999999999534,"noteNumber":64,"velocity":127,"programNumber":30},{"time":139112.62499999948,"duration":241.93499999999767,"noteNumber":62,"velocity":127,"programNumber":30},{"time":139838.42999999947,"duration":483.86999999999534,"noteNumber":64,"velocity":127,"programNumber":30},{"time":140322.29999999946,"duration":483.86999999999534,"noteNumber":67,"velocity":127,"programNumber":30},{"time":140806.16999999946,"duration":483.86999999999534,"noteNumber":62,"velocity":127,"programNumber":30},{"time":141290.03999999946,"duration":483.86999999999534,"noteNumber":64,"velocity":127,"programNumber":30},{"time":141773.90999999945,"duration":483.86999999999534,"noteNumber":64,"velocity":127,"programNumber":30},{"time":142257.77999999945,"duration":241.93499999999767,"noteNumber":62,"velocity":127,"programNumber":30},{"time":142499.71499999944,"duration":483.86999999999534,"noteNumber":64,"velocity":127,"programNumber":30},{"time":142983.58499999944,"duration":241.93499999999767,"noteNumber":62,"velocity":127,"programNumber":30},{"time":143709.38999999943,"duration":483.86999999999534,"noteNumber":64,"velocity":127,"programNumber":30},{"time":144193.25999999943,"duration":483.86999999999534,"noteNumber":67,"velocity":127,"programNumber":30},{"time":144677.12999999942,"duration":483.86999999999534,"noteNumber":62,"velocity":127,"programNumber":30},{"time":145160.99999999942,"duration":483.86999999999534,"noteNumber":64,"velocity":127,"programNumber":30},{"time":145644.8699999994,"duration":483.86999999999534,"noteNumber":64,"velocity":127,"programNumber":30},{"time":146128.7399999994,"duration":241.93499999999767,"noteNumber":62,"velocity":127,"programNumber":30},{"time":146370.6749999994,"duration":322.5799999999872,"noteNumber":64,"velocity":127,"programNumber":30},{"time":146854.5449999994,"duration":241.93499999999767,"noteNumber":60,"velocity":127,"programNumber":30},{"time":147096.4799999994,"duration":2883.0587499999965,"noteNumber":62,"velocity":127,"programNumber":30},{"time":159677.0999999994,"duration":483.86999999999534,"noteNumber":56,"velocity":127,"programNumber":30},{"time":160160.9699999994,"duration":483.86999999999534,"noteNumber":56,"velocity":127,"programNumber":30},{"time":160644.83999999939,"duration":241.93499999999767,"noteNumber":54,"velocity":127,"programNumber":30},{"time":160886.77499999938,"duration":322.5799999999872,"noteNumber":56,"velocity":127,"programNumber":30},{"time":161612.57999999938,"duration":241.93499999999767,"noteNumber":61,"velocity":127,"programNumber":30},{"time":161854.51499999937,"duration":483.86999999999534,"noteNumber":63,"velocity":127,"programNumber":30},{"time":162338.38499999937,"duration":483.86999999999534,"noteNumber":64,"velocity":127,"programNumber":30},{"time":163064.18999999936,"duration":161.29000000000815,"noteNumber":60,"velocity":127,"programNumber":30},{"time":163306.12499999936,"duration":483.86999999999534,"noteNumber":60,"velocity":127,"programNumber":30},{"time":163789.99499999936,"duration":483.86999999999534,"noteNumber":62,"velocity":127,"programNumber":30},{"time":164273.86499999935,"duration":483.86999999999534,"noteNumber":59,"velocity":127,"programNumber":30},{"time":165241.60499999934,"duration":241.93499999999767,"noteNumber":52,"velocity":127,"programNumber":30},{"time":165483.53999999934,"duration":241.93499999999767,"noteNumber":57,"velocity":127,"programNumber":30},{"time":165725.47499999934,"duration":483.86999999999534,"noteNumber":59,"velocity":127,"programNumber":30},{"time":166209.34499999933,"duration":483.86999999999534,"noteNumber":56,"velocity":127,"programNumber":30},{"time":167419.01999999932,"duration":483.86999999999534,"noteNumber":56,"velocity":127,"programNumber":30},{"time":167902.88999999932,"duration":483.86999999999534,"noteNumber":56,"velocity":127,"programNumber":30},{"time":168386.7599999993,"duration":241.93499999999767,"noteNumber":54,"velocity":127,"programNumber":30},{"time":168628.6949999993,"duration":322.5799999999872,"noteNumber":56,"velocity":127,"programNumber":30},{"time":169354.4999999993,"duration":241.93499999999767,"noteNumber":61,"velocity":127,"programNumber":30},{"time":169596.4349999993,"duration":483.86999999999534,"noteNumber":63,"velocity":127,"programNumber":30},{"time":170080.3049999993,"duration":483.86999999999534,"noteNumber":64,"velocity":127,"programNumber":30},{"time":170806.1099999993,"duration":161.29000000000815,"noteNumber":60,"velocity":127,"programNumber":30},{"time":171048.04499999929,"duration":483.86999999999534,"noteNumber":60,"velocity":127,"programNumber":30},{"time":171531.91499999928,"duration":483.86999999999534,"noteNumber":62,"velocity":127,"programNumber":30},{"time":172015.78499999928,"duration":483.86999999999534,"noteNumber":59,"velocity":127,"programNumber":30},{"time":172983.52499999927,"duration":241.93499999999767,"noteNumber":52,"velocity":127,"programNumber":30},{"time":173225.45999999926,"duration":241.93499999999767,"noteNumber":57,"velocity":127,"programNumber":30},{"time":173467.39499999926,"duration":483.86999999999534,"noteNumber":59,"velocity":127,"programNumber":30},{"time":173951.26499999926,"duration":483.86999999999534,"noteNumber":56,"velocity":127,"programNumber":30},{"time":175160.93999999925,"duration":483.86999999999534,"noteNumber":56,"velocity":127,"programNumber":30},{"time":175644.80999999924,"duration":483.86999999999534,"noteNumber":56,"velocity":127,"programNumber":30},{"time":176128.67999999924,"duration":241.93499999999767,"noteNumber":54,"velocity":127,"programNumber":30},{"time":176370.61499999923,"duration":322.5799999999872,"noteNumber":56,"velocity":127,"programNumber":30},{"time":177096.41999999923,"duration":241.93499999999767,"noteNumber":61,"velocity":127,"programNumber":30},{"time":177338.35499999922,"duration":483.86999999999534,"noteNumber":63,"velocity":127,"programNumber":30},{"time":177822.22499999922,"duration":483.86999999999534,"noteNumber":64,"velocity":127,"programNumber":30},{"time":178548.0299999992,"duration":161.29000000000815,"noteNumber":60,"velocity":127,"programNumber":30},{"time":178789.9649999992,"duration":483.86999999999534,"noteNumber":60,"velocity":127,"programNumber":30},{"time":179273.8349999992,"duration":483.86999999999534,"noteNumber":62,"velocity":127,"programNumber":30},{"time":179757.7049999992,"duration":483.86999999999534,"noteNumber":59,"velocity":127,"programNumber":30},{"time":180483.5099999992,"duration":241.93499999999767,"noteNumber":52,"velocity":127,"programNumber":30},{"time":180725.4449999992,"duration":483.86999999999534,"noteNumber":57,"velocity":127,"programNumber":30},{"time":181209.3149999992,"duration":483.86999999999534,"noteNumber":59,"velocity":127,"programNumber":30},{"time":181693.18499999918,"duration":483.86999999999534,"noteNumber":56,"velocity":127,"programNumber":30},{"time":182902.85999999917,"duration":483.86999999999534,"noteNumber":56,"velocity":127,"programNumber":30},{"time":183386.72999999917,"duration":483.86999999999534,"noteNumber":56,"velocity":127,"programNumber":30},{"time":183870.59999999916,"duration":241.93499999999767,"noteNumber":54,"velocity":127,"programNumber":30},{"time":184112.53499999916,"duration":322.5799999999872,"noteNumber":56,"velocity":127,"programNumber":30},{"time":184838.33999999915,"duration":241.93499999999767,"noteNumber":61,"velocity":127,"programNumber":30},{"time":185080.27499999915,"duration":483.86999999999534,"noteNumber":63,"velocity":127,"programNumber":30},{"time":185564.14499999915,"duration":483.86999999999534,"noteNumber":64,"velocity":127,"programNumber":30},{"time":186289.94999999914,"duration":161.29000000000815,"noteNumber":60,"velocity":127,"programNumber":30},{"time":186531.88499999914,"duration":483.86999999999534,"noteNumber":60,"velocity":127,"programNumber":30},{"time":187015.75499999913,"duration":483.86999999999534,"noteNumber":62,"velocity":127,"programNumber":30},{"time":187499.62499999913,"duration":483.86999999999534,"noteNumber":59,"velocity":127,"programNumber":30},{"time":188225.42999999912,"duration":483.86999999999534,"noteNumber":67,"velocity":127,"programNumber":30},{"time":188709.29999999912,"duration":241.93499999999767,"noteNumber":66,"velocity":127,"programNumber":30},{"time":188951.2349999991,"duration":241.93499999999767,"noteNumber":64,"velocity":127,"programNumber":30},{"time":189193.1699999991,"duration":241.93499999999767,"noteNumber":61,"velocity":127,"programNumber":30},{"time":189435.1049999991,"duration":967.7399999999907,"noteNumber":64,"velocity":127,"programNumber":30},{"time":192096.3899999991,"duration":483.86999999999534,"noteNumber":67,"velocity":127,"programNumber":30},{"time":192580.2599999991,"duration":241.93499999999767,"noteNumber":67,"velocity":127,"programNumber":30},{"time":192822.1949999991,"duration":241.93499999999767,"noteNumber":64,"velocity":127,"programNumber":30},{"time":193064.1299999991,"duration":241.93499999999767,"noteNumber":61,"velocity":127,"programNumber":30},{"time":193306.0649999991,"duration":1935.4800000000105,"noteNumber":67,"velocity":127,"programNumber":30},{"time":195241.5449999991,"duration":241.93499999999767,"noteNumber":66,"velocity":127,"programNumber":30},{"time":195967.3499999991,"duration":483.86999999999534,"noteNumber":67,"velocity":127,"programNumber":30},{"time":196451.2199999991,"duration":241.93499999999767,"noteNumber":66,"velocity":127,"programNumber":30},{"time":196693.1549999991,"duration":241.93499999999767,"noteNumber":64,"velocity":127,"programNumber":30},{"time":196935.0899999991,"duration":241.93499999999767,"noteNumber":61,"velocity":127,"programNumber":30},{"time":197177.0249999991,"duration":967.7399999999907,"noteNumber":64,"velocity":127,"programNumber":30},{"time":199838.3099999991,"duration":483.86999999999534,"noteNumber":67,"velocity":127,"programNumber":30},{"time":200322.1799999991,"duration":241.93499999999767,"noteNumber":67,"velocity":127,"programNumber":30},{"time":200564.1149999991,"duration":241.93499999999767,"noteNumber":64,"velocity":127,"programNumber":30},{"time":200806.0499999991,"duration":241.93499999999767,"noteNumber":61,"velocity":127,"programNumber":30},{"time":201047.98499999908,"duration":1935.4800000000105,"noteNumber":67,"velocity":127,"programNumber":30},{"time":202983.4649999991,"duration":241.93499999999767,"noteNumber":66,"velocity":127,"programNumber":30},{"time":203709.2699999991,"duration":483.86999999999534,"noteNumber":67,"velocity":127,"programNumber":30},{"time":204193.13999999908,"duration":241.93499999999767,"noteNumber":66,"velocity":127,"programNumber":30},{"time":204435.07499999908,"duration":241.93499999999767,"noteNumber":64,"velocity":127,"programNumber":30},{"time":204677.00999999908,"duration":241.93499999999767,"noteNumber":61,"velocity":127,"programNumber":30},{"time":204918.94499999908,"duration":1209.6749999999884,"noteNumber":64,"velocity":127,"programNumber":30},{"time":206128.61999999906,"duration":725.804999999993,"noteNumber":63,"velocity":127,"programNumber":30},{"time":206854.42499999906,"duration":241.93499999999767,"noteNumber":61,"velocity":127,"programNumber":30},{"time":207580.22999999905,"duration":483.86999999999534,"noteNumber":67,"velocity":127,"programNumber":30},{"time":208064.09999999905,"duration":241.93499999999767,"noteNumber":67,"velocity":127,"programNumber":30},{"time":208306.03499999904,"duration":241.93499999999767,"noteNumber":64,"velocity":127,"programNumber":30},{"time":208547.96999999904,"duration":241.93499999999767,"noteNumber":61,"velocity":127,"programNumber":30},{"time":208789.90499999904,"duration":1935.4800000000105,"noteNumber":67,"velocity":127,"programNumber":30},{"time":210725.38499999905,"duration":967.7399999999907,"noteNumber":67,"velocity":127,"programNumber":30},{"time":211693.12499999904,"duration":1209.6749999999884,"noteNumber":67,"velocity":127,"programNumber":30},{"time":213386.66999999902,"duration":483.86999999999534,"noteNumber":64,"velocity":127,"programNumber":30},{"time":213870.53999999902,"duration":483.86999999999534,"noteNumber":67,"velocity":127,"programNumber":30},{"time":214354.409999999,"duration":483.86999999999534,"noteNumber":62,"velocity":127,"programNumber":30},{"time":214838.279999999,"duration":483.86999999999534,"noteNumber":64,"velocity":127,"programNumber":30},{"time":215322.149999999,"duration":483.86999999999534,"noteNumber":64,"velocity":127,"programNumber":30},{"time":215806.019999999,"duration":241.93499999999767,"noteNumber":62,"velocity":127,"programNumber":30},{"time":216047.954999999,"duration":483.86999999999534,"noteNumber":64,"velocity":127,"programNumber":30},{"time":216531.824999999,"duration":241.93499999999767,"noteNumber":62,"velocity":127,"programNumber":30},{"time":217257.629999999,"duration":483.86999999999534,"noteNumber":64,"velocity":127,"programNumber":30},{"time":217741.49999999898,"duration":483.86999999999534,"noteNumber":67,"velocity":127,"programNumber":30},{"time":218225.36999999898,"duration":483.86999999999534,"noteNumber":62,"velocity":127,"programNumber":30},{"time":218709.23999999897,"duration":483.86999999999534,"noteNumber":64,"velocity":127,"programNumber":30},{"time":219193.10999999897,"duration":483.86999999999534,"noteNumber":64,"velocity":127,"programNumber":30},{"time":219676.97999999896,"duration":241.93499999999767,"noteNumber":62,"velocity":127,"programNumber":30},{"time":219918.91499999896,"duration":483.86999999999534,"noteNumber":64,"velocity":127,"programNumber":30},{"time":220402.78499999896,"duration":241.93499999999767,"noteNumber":62,"velocity":127,"programNumber":30},{"time":221128.58999999895,"duration":483.86999999999534,"noteNumber":64,"velocity":127,"programNumber":30},{"time":221612.45999999894,"duration":483.86999999999534,"noteNumber":67,"velocity":127,"programNumber":30},{"time":222096.32999999894,"duration":483.86999999999534,"noteNumber":62,"velocity":127,"programNumber":30},{"time":222580.19999999893,"duration":483.86999999999534,"noteNumber":64,"velocity":127,"programNumber":30},{"time":223064.06999999893,"duration":483.86999999999534,"noteNumber":64,"velocity":127,"programNumber":30},{"time":223547.93999999893,"duration":241.93499999999767,"noteNumber":62,"velocity":127,"programNumber":30},{"time":223789.87499999892,"duration":483.86999999999534,"noteNumber":64,"velocity":127,"programNumber":30},{"time":224273.74499999892,"duration":241.93499999999767,"noteNumber":62,"velocity":127,"programNumber":30},{"time":224999.5499999989,"duration":483.86999999999534,"noteNumber":64,"velocity":127,"programNumber":30},{"time":225483.4199999989,"duration":483.86999999999534,"noteNumber":67,"velocity":127,"programNumber":30},{"time":225967.2899999989,"duration":483.86999999999534,"noteNumber":62,"velocity":127,"programNumber":30},{"time":226451.1599999989,"duration":483.86999999999534,"noteNumber":64,"velocity":127,"programNumber":30},{"time":226935.0299999989,"duration":483.86999999999534,"noteNumber":64,"velocity":127,"programNumber":30},{"time":227418.8999999989,"duration":241.93499999999767,"noteNumber":62,"velocity":127,"programNumber":30},{"time":227660.8349999989,"duration":483.86999999999534,"noteNumber":64,"velocity":127,"programNumber":30},{"time":228144.70499999888,"duration":241.93499999999767,"noteNumber":62,"velocity":127,"programNumber":30},{"time":228870.50999999887,"duration":483.86999999999534,"noteNumber":64,"velocity":127,"programNumber":30},{"time":229354.37999999887,"duration":483.86999999999534,"noteNumber":67,"velocity":127,"programNumber":30},{"time":229838.24999999886,"duration":483.86999999999534,"noteNumber":62,"velocity":127,"programNumber":30},{"time":230322.11999999886,"duration":483.86999999999534,"noteNumber":64,"velocity":127,"programNumber":30},{"time":230805.98999999886,"duration":483.86999999999534,"noteNumber":64,"velocity":127,"programNumber":30},{"time":231289.85999999885,"duration":241.93499999999767,"noteNumber":62,"velocity":127,"programNumber":30},{"time":231531.79499999885,"duration":483.86999999999534,"noteNumber":64,"velocity":127,"programNumber":30},{"time":232015.66499999884,"duration":241.93499999999767,"noteNumber":62,"velocity":127,"programNumber":30},{"time":232741.46999999884,"duration":483.86999999999534,"noteNumber":64,"velocity":127,"programNumber":30},{"time":233225.33999999883,"duration":483.86999999999534,"noteNumber":67,"velocity":127,"programNumber":30},{"time":233709.20999999883,"duration":483.86999999999534,"noteNumber":62,"velocity":127,"programNumber":30},{"time":234193.07999999882,"duration":483.86999999999534,"noteNumber":64,"velocity":127,"programNumber":30},{"time":234676.94999999882,"duration":483.86999999999534,"noteNumber":64,"velocity":127,"programNumber":30},{"time":235160.8199999988,"duration":241.93499999999767,"noteNumber":62,"velocity":127,"programNumber":30},{"time":235402.7549999988,"duration":483.86999999999534,"noteNumber":64,"velocity":127,"programNumber":30},{"time":235886.6249999988,"duration":241.93499999999767,"noteNumber":62,"velocity":127,"programNumber":30},{"time":236612.4299999988,"duration":483.86999999999534,"noteNumber":64,"velocity":127,"programNumber":30},{"time":237096.2999999988,"duration":483.86999999999534,"noteNumber":67,"velocity":127,"programNumber":30},{"time":237580.1699999988,"duration":483.86999999999534,"noteNumber":62,"velocity":127,"programNumber":30},{"time":238064.0399999988,"duration":483.86999999999534,"noteNumber":64,"velocity":127,"programNumber":30},{"time":238547.90999999878,"duration":483.86999999999534,"noteNumber":64,"velocity":127,"programNumber":30},{"time":239031.77999999878,"duration":241.93499999999767,"noteNumber":62,"velocity":127,"programNumber":30},{"time":239273.71499999877,"duration":483.86999999999534,"noteNumber":64,"velocity":127,"programNumber":30},{"time":239757.58499999877,"duration":241.93499999999767,"noteNumber":62,"velocity":127,"programNumber":30},{"time":240483.38999999876,"duration":483.86999999999534,"noteNumber":64,"velocity":127,"programNumber":30},{"time":240967.25999999876,"duration":483.86999999999534,"noteNumber":67,"velocity":127,"programNumber":30},{"time":241451.12999999875,"duration":483.86999999999534,"noteNumber":62,"velocity":127,"programNumber":30},{"time":241934.99999999875,"duration":483.86999999999534,"noteNumber":64,"velocity":127,"programNumber":30},{"time":242418.86999999874,"duration":483.86999999999534,"noteNumber":64,"velocity":127,"programNumber":30},{"time":242902.73999999874,"duration":241.93499999999767,"noteNumber":62,"velocity":127,"programNumber":30},{"time":243144.67499999874,"duration":322.5799999999872,"noteNumber":64,"velocity":127,"programNumber":30},{"time":243628.54499999873,"duration":241.93499999999767,"noteNumber":60,"velocity":127,"programNumber":30},{"time":243870.47999999873,"duration":2883.0587499999965,"noteNumber":62,"velocity":127,"programNumber":30}]]}