{"tracks":[[{"time":0,"duration":322.58,"noteNumber":40,"velocity":127,"programNumber":28},{"time":483.87,"duration":20.161249999999995,"noteNumber":40,"velocity":127,"programNumber":28},{"time":725.8050000000001,"duration":241.93499999999995,"noteNumber":40,"velocity":127,"programNumber":28},{"time":967.74,"duration":241.93499999999995,"noteNumber":44,"velocity":127,"programNumber":28},{"time":1209.675,"duration":241.93499999999995,"noteNumber":51,"velocity":127,"programNumber":28},{"time":1451.61,"duration":20.16125000000011,"noteNumber":44,"velocity":127,"programNumber":28},{"time":1693.545,"duration":241.93499999999995,"noteNumber":40,"velocity":127,"programNumber":28},{"time":1935.48,"duration":241.93499999999995,"noteNumber":49,"velocity":127,"programNumber":28},{"time":2177.415,"duration":241.93499999999995,"noteNumber":56,"velocity":127,"programNumber":28},{"time":2177.415,"duration":241.93499999999995,"noteNumber":61,"velocity":127,"programNumber":28},{"time":2419.35,"duration":20.16125000000011,"noteNumber":56,"velocity":127,"programNumber":28},{"time":2419.35,"duration":20.16125000000011,"noteNumber":61,"velocity":127,"programNumber":28},{"time":2661.285,"duration":241.93499999999995,"noteNumber":40,"velocity":127,"programNumber":28},{"time":2903.22,"duration":241.93499999999995,"noteNumber":45,"velocity":127,"programNumber":28},{"time":3145.1549999999997,"duration":241.93499999999995,"noteNumber":52,"velocity":127,"programNumber":28},{"time":3387.0899999999997,"duration":241.93499999999995,"noteNumber":57,"velocity":127,"programNumber":28},{"time":3629.0249999999996,"duration":241.93499999999995,"noteNumber":40,"velocity":127,"programNumber":28},{"time":3870.9599999999996,"duration":483.87000000000035,"noteNumber":48,"velocity":127,"programNumber":28},{"time":3870.9599999999996,"duration":483.87000000000035,"noteNumber":55,"velocity":127,"programNumber":28},{"time":4354.83,"duration":241.9350000000004,"noteNumber":48,"velocity":127,"programNumber":28},{"time":4354.83,"duration":241.9350000000004,"noteNumber":55,"velocity":127,"programNumber":28},{"time":4596.765,"duration":241.9350000000004,"noteNumber":48,"velocity":127,"programNumber":28},{"time":4596.765,"duration":241.9350000000004,"noteNumber":55,"velocity":127,"programNumber":28},{"time":4838.700000000001,"duration":241.9350000000004,"noteNumber":50,"velocity":127,"programNumber":28},{"time":4838.700000000001,"duration":241.9350000000004,"noteNumber":57,"velocity":127,"programNumber":28},{"time":5080.635000000001,"duration":241.9350000000004,"noteNumber":50,"velocity":127,"programNumber":28},{"time":5080.635000000001,"duration":241.9350000000004,"noteNumber":57,"velocity":127,"programNumber":28},{"time":5322.5700000000015,"duration":241.9350000000004,"noteNumber":50,"velocity":127,"programNumber":28},{"time":5322.5700000000015,"duration":241.9350000000004,"noteNumber":57,"velocity":127,"programNumber":28},{"time":5322.5700000000015,"duration":241.9350000000004,"noteNumber":62,"velocity":127,"programNumber":28},{"time":5564.505000000002,"duration":241.9350000000004,"noteNumber":45,"velocity":127,"programNumber":28},{"time":5806.440000000002,"duration":483.8699999999999,"noteNumber":47,"velocity":127,"programNumber":28},{"time":5806.440000000002,"duration":483.8699999999999,"noteNumber":54,"velocity":127,"programNumber":28},{"time":6290.310000000002,"duration":241.9350000000004,"noteNumber":47,"velocity":127,"programNumber":28},{"time":6290.310000000002,"duration":241.9350000000004,"noteNumber":54,"velocity":127,"programNumber":28},{"time":6532.245000000003,"duration":241.9350000000004,"noteNumber":54,"velocity":127,"programNumber":28},{"time":6532.245000000003,"duration":241.9350000000004,"noteNumber":47,"velocity":127,"programNumber":28},{"time":6774.180000000003,"duration":241.9350000000004,"noteNumber":50,"velocity":127,"programNumber":28},{"time":6774.180000000003,"duration":241.9350000000004,"noteNumber":57,"velocity":127,"programNumber":28},{"time":7016.115000000003,"duration":241.9350000000004,"noteNumber":50,"velocity":127,"programNumber":28},{"time":7016.115000000003,"duration":241.9350000000004,"noteNumber":57,"velocity":127,"programNumber":28},{"time":7258.050000000004,"duration":241.9350000000004,"noteNumber":50,"velocity":127,"programNumber":28},{"time":7258.050000000004,"duration":241.9350000000004,"noteNumber":57,"velocity":127,"programNumber":28},{"time":7258.050000000004,"duration":241.9350000000004,"noteNumber":62,"velocity":127,"programNumber":28},{"time":7499.985000000004,"duration":241.9350000000004,"noteNumber":45,"velocity":127,"programNumber":28},{"time":7741.920000000005,"duration":322.5799999999999,"noteNumber":40,"velocity":127,"programNumber":28},{"time":8225.790000000005,"duration":20.1612499999992,"noteNumber":40,"velocity":127,"programNumber":28},{"time":8467.725000000004,"duration":241.9349999999995,"noteNumber":40,"velocity":127,"programNumber":28},{"time":8709.660000000003,"duration":241.9349999999995,"noteNumber":44,"velocity":127,"programNumber":28},{"time":8951.595000000003,"duration":241.9349999999995,"noteNumber":51,"velocity":127,"programNumber":28},{"time":9193.530000000002,"duration":20.1612499999992,"noteNumber":44,"velocity":127,"programNumber":28},{"time":9435.465000000002,"duration":241.9349999999995,"noteNumber":40,"velocity":127,"programNumber":28},{"time":9677.400000000001,"duration":241.9349999999995,"noteNumber":49,"velocity":127,"programNumber":28},{"time":9919.335000000001,"duration":241.9349999999995,"noteNumber":56,"velocity":127,"programNumber":28},{"time":10403.205,"duration":241.9349999999995,"noteNumber":40,"velocity":127,"programNumber":28},{"time":10645.14,"duration":241.9349999999995,"noteNumber":45,"velocity":127,"programNumber":28},{"time":10887.074999999999,"duration":241.9349999999995,"noteNumber":52,"velocity":127,"programNumber":28},{"time":11129.009999999998,"duration":241.9349999999995,"noteNumber":57,"velocity":127,"programNumber":28},{"time":11370.944999999998,"duration":241.9349999999995,"noteNumber":40,"velocity":127,"programNumber":28},{"time":11612.879999999997,"duration":483.8700000000008,"noteNumber":48,"velocity":127,"programNumber":28},{"time":12096.749999999998,"duration":241.9349999999995,"noteNumber":55,"velocity":127,"programNumber":28},{"time":12096.749999999998,"duration":241.9349999999995,"noteNumber":60,"velocity":127,"programNumber":28},{"time":12338.684999999998,"duration":241.9349999999995,"noteNumber":48,"velocity":127,"programNumber":28},{"time":12580.619999999997,"duration":241.9349999999995,"noteNumber":50,"velocity":127,"programNumber":28},{"time":12580.619999999997,"duration":241.9349999999995,"noteNumber":57,"velocity":127,"programNumber":28},{"time":12822.554999999997,"duration":241.9349999999995,"noteNumber":50,"velocity":127,"programNumber":28},{"time":12822.554999999997,"duration":241.9349999999995,"noteNumber":57,"velocity":127,"programNumber":28},{"time":13064.489999999996,"duration":241.9349999999995,"noteNumber":50,"velocity":127,"programNumber":28},{"time":13064.489999999996,"duration":241.9349999999995,"noteNumber":57,"velocity":127,"programNumber":28},{"time":13306.424999999996,"duration":241.9349999999995,"noteNumber":45,"velocity":127,"programNumber":28},{"time":13548.359999999995,"duration":483.8700000000008,"noteNumber":47,"velocity":127,"programNumber":28},{"time":13548.359999999995,"duration":483.8700000000008,"noteNumber":54,"velocity":127,"programNumber":28},{"time":14032.229999999996,"duration":241.9349999999995,"noteNumber":59,"velocity":127,"programNumber":28},{"time":14032.229999999996,"duration":241.9349999999995,"noteNumber":63,"velocity":127,"programNumber":28},{"time":14274.164999999995,"duration":241.9349999999995,"noteNumber":54,"velocity":127,"programNumber":28},{"time":14274.164999999995,"duration":241.9349999999995,"noteNumber":59,"velocity":127,"programNumber":28},{"time":14516.099999999995,"duration":241.9349999999995,"noteNumber":57,"velocity":127,"programNumber":28},{"time":14516.099999999995,"duration":241.9349999999995,"noteNumber":62,"velocity":127,"programNumber":28},{"time":14758.034999999994,"duration":241.9349999999995,"noteNumber":50,"velocity":127,"programNumber":28},{"time":14999.969999999994,"duration":241.9349999999995,"noteNumber":62,"velocity":127,"programNumber":28},{"time":14999.969999999994,"duration":241.9349999999995,"noteNumber":66,"velocity":127,"programNumber":28},{"time":15241.904999999993,"duration":241.9349999999995,"noteNumber":40,"velocity":127,"programNumber":28},{"time":15483.839999999993,"duration":322.5799999999999,"noteNumber":40,"velocity":127,"programNumber":28},{"time":15967.709999999994,"duration":20.1612499999992,"noteNumber":40,"velocity":127,"programNumber":28},{"time":16209.644999999993,"duration":241.9350000000013,"noteNumber":40,"velocity":127,"programNumber":28},{"time":16451.579999999994,"duration":241.9350000000013,"noteNumber":44,"velocity":127,"programNumber":28},{"time":16693.514999999996,"duration":241.9350000000013,"noteNumber":51,"velocity":127,"programNumber":28},{"time":17177.385,"duration":241.9350000000013,"noteNumber":49,"velocity":127,"programNumber":28},{"time":17419.32,"duration":241.9350000000013,"noteNumber":49,"velocity":127,"programNumber":28},{"time":17661.255,"duration":241.9350000000013,"noteNumber":56,"velocity":127,"programNumber":28},{"time":17661.255,"duration":241.9350000000013,"noteNumber":61,"velocity":127,"programNumber":28},{"time":18145.125000000004,"duration":241.9350000000013,"noteNumber":40,"velocity":127,"programNumber":28},{"time":18387.060000000005,"duration":241.9350000000013,"noteNumber":45,"velocity":127,"programNumber":28},{"time":18628.995000000006,"duration":241.9350000000013,"noteNumber":52,"velocity":127,"programNumber":28},{"time":18870.930000000008,"duration":241.9350000000013,"noteNumber":57,"velocity":127,"programNumber":28},{"time":19112.86500000001,"duration":241.9350000000013,"noteNumber":40,"velocity":127,"programNumber":28},{"time":19354.80000000001,"duration":483.869999999999,"noteNumber":48,"velocity":127,"programNumber":28},{"time":19838.67000000001,"duration":241.9350000000013,"noteNumber":60,"velocity":127,"programNumber":28},{"time":20080.60500000001,"duration":241.9350000000013,"noteNumber":48,"velocity":127,"programNumber":28},{"time":20322.54000000001,"duration":241.9350000000013,"noteNumber":50,"velocity":127,"programNumber":28},{"time":20564.475000000013,"duration":241.9350000000013,"noteNumber":50,"velocity":127,"programNumber":28},{"time":20806.410000000014,"duration":241.9350000000013,"noteNumber":55,"velocity":127,"programNumber":28},{"time":20806.410000000014,"duration":241.9350000000013,"noteNumber":60,"velocity":127,"programNumber":28},{"time":21048.345000000016,"duration":241.9350000000013,"noteNumber":45,"velocity":127,"programNumber":28},{"time":21290.280000000017,"duration":483.869999999999,"noteNumber":47,"velocity":127,"programNumber":28},{"time":21774.150000000016,"duration":241.9350000000013,"noteNumber":59,"velocity":127,"programNumber":28},{"time":21774.150000000016,"duration":241.9350000000013,"noteNumber":63,"velocity":127,"programNumber":28},{"time":22016.085000000017,"duration":241.9350000000013,"noteNumber":47,"velocity":127,"programNumber":28},{"time":22258.02000000002,"duration":241.9350000000013,"noteNumber":50,"velocity":127,"programNumber":28},{"time":22499.95500000002,"duration":241.9350000000013,"noteNumber":50,"velocity":127,"programNumber":28},{"time":22499.95500000002,"duration":241.9350000000013,"noteNumber":57,"velocity":127,"programNumber":28},{"time":22741.89000000002,"duration":241.9350000000013,"noteNumber":57,"velocity":127,"programNumber":28},{"time":22741.89000000002,"duration":241.9350000000013,"noteNumber":62,"velocity":127,"programNumber":28},{"time":22983.825000000023,"duration":241.9350000000013,"noteNumber":40,"velocity":127,"programNumber":28},{"time":23225.760000000024,"duration":322.58000000000175,"noteNumber":40,"velocity":127,"programNumber":28},{"time":23709.630000000026,"duration":20.16125000000102,"noteNumber":40,"velocity":127,"programNumber":28},{"time":23951.565000000028,"duration":241.9350000000013,"noteNumber":40,"velocity":127,"programNumber":28},{"time":24193.50000000003,"duration":241.9350000000013,"noteNumber":44,"velocity":127,"programNumber":28},{"time":24435.43500000003,"duration":241.9350000000013,"noteNumber":51,"velocity":127,"programNumber":28},{"time":24677.37000000003,"duration":20.16125000000102,"noteNumber":44,"velocity":127,"programNumber":28},{"time":24919.305000000033,"duration":241.9350000000013,"noteNumber":40,"velocity":127,"programNumber":28},{"time":25161.240000000034,"duration":241.9350000000013,"noteNumber":49,"velocity":127,"programNumber":28},{"time":25403.175000000036,"duration":241.9350000000013,"noteNumber":56,"velocity":127,"programNumber":28},{"time":25887.04500000004,"duration":241.9350000000013,"noteNumber":40,"velocity":127,"programNumber":28},{"time":26128.98000000004,"duration":241.9350000000013,"noteNumber":45,"velocity":127,"programNumber":28},{"time":26370.91500000004,"duration":241.9350000000013,"noteNumber":52,"velocity":127,"programNumber":28},{"time":26612.850000000042,"duration":241.9350000000013,"noteNumber":57,"velocity":127,"programNumber":28},{"time":26854.785000000044,"duration":241.9350000000013,"noteNumber":40,"velocity":127,"programNumber":28},{"time":27096.720000000045,"duration":483.869999999999,"noteNumber":48,"velocity":127,"programNumber":28},{"time":27580.590000000044,"duration":241.9350000000013,"noteNumber":55,"velocity":127,"programNumber":28},{"time":27580.590000000044,"duration":241.9350000000013,"noteNumber":60,"velocity":127,"programNumber":28},{"time":27822.525000000045,"duration":241.9350000000013,"noteNumber":48,"velocity":127,"programNumber":28},{"time":28064.460000000046,"duration":241.9350000000013,"noteNumber":50,"velocity":127,"programNumber":28},{"time":28064.460000000046,"duration":241.9350000000013,"noteNumber":57,"velocity":127,"programNumber":28},{"time":28306.395000000048,"duration":241.9350000000013,"noteNumber":50,"velocity":127,"programNumber":28},{"time":28306.395000000048,"duration":241.9350000000013,"noteNumber":57,"velocity":127,"programNumber":28},{"time":28548.33000000005,"duration":241.9350000000013,"noteNumber":50,"velocity":127,"programNumber":28},{"time":28548.33000000005,"duration":241.9350000000013,"noteNumber":57,"velocity":127,"programNumber":28},{"time":28790.26500000005,"duration":241.9350000000013,"noteNumber":45,"velocity":127,"programNumber":28},{"time":29032.20000000005,"duration":483.869999999999,"noteNumber":47,"velocity":127,"programNumber":28},{"time":29032.20000000005,"duration":483.869999999999,"noteNumber":54,"velocity":127,"programNumber":28},{"time":29516.07000000005,"duration":241.9350000000013,"noteNumber":59,"velocity":127,"programNumber":28},{"time":29516.07000000005,"duration":241.9350000000013,"noteNumber":63,"velocity":127,"programNumber":28},{"time":29758.005000000052,"duration":241.9350000000013,"noteNumber":54,"velocity":127,"programNumber":28},{"time":29758.005000000052,"duration":241.9350000000013,"noteNumber":59,"velocity":127,"programNumber":28},{"time":29999.940000000053,"duration":241.9350000000013,"noteNumber":57,"velocity":127,"programNumber":28},{"time":29999.940000000053,"duration":241.9350000000013,"noteNumber":62,"velocity":127,"programNumber":28},{"time":30241.875000000055,"duration":241.9350000000013,"noteNumber":50,"velocity":127,"programNumber":28},{"time":30483.810000000056,"duration":241.9350000000013,"noteNumber":62,"velocity":127,"programNumber":28},{"time":30483.810000000056,"duration":241.9350000000013,"noteNumber":66,"velocity":127,"programNumber":28},{"time":30725.745000000057,"duration":241.9350000000013,"noteNumber":40,"velocity":127,"programNumber":28},{"time":30967.68000000006,"duration":322.58000000000175,"noteNumber":40,"velocity":127,"programNumber":28},{"time":31451.55000000006,"duration":20.16125000000102,"noteNumber":40,"velocity":127,"programNumber":28},{"time":31693.485000000062,"duration":241.9350000000013,"noteNumber":40,"velocity":127,"programNumber":28},{"time":31935.420000000064,"duration":241.9350000000013,"noteNumber":44,"velocity":127,"programNumber":28},{"time":32177.355000000065,"duration":241.9350000000013,"noteNumber":51,"velocity":127,"programNumber":28},{"time":32419.290000000066,"duration":20.16125000000102,"noteNumber":44,"velocity":127,"programNumber":28},{"time":32661.225000000068,"duration":241.9350000000013,"noteNumber":40,"velocity":127,"programNumber":28},{"time":32903.16000000007,"duration":241.93499999999767,"noteNumber":49,"velocity":127,"programNumber":28},{"time":33145.09500000007,"duration":241.93499999999767,"noteNumber":56,"velocity":127,"programNumber":28},{"time":33628.96500000006,"duration":241.93499999999767,"noteNumber":40,"velocity":127,"programNumber":28},{"time":33870.90000000006,"duration":241.93499999999767,"noteNumber":45,"velocity":127,"programNumber":28},{"time":34112.83500000006,"duration":241.93499999999767,"noteNumber":52,"velocity":127,"programNumber":28},{"time":34354.770000000055,"duration":241.93499999999767,"noteNumber":57,"velocity":127,"programNumber":28},{"time":34596.70500000005,"duration":241.93499999999767,"noteNumber":40,"velocity":127,"programNumber":28},{"time":34838.64000000005,"duration":483.8700000000026,"noteNumber":48,"velocity":127,"programNumber":28},{"time":35322.51000000005,"duration":241.93499999999767,"noteNumber":55,"velocity":127,"programNumber":28},{"time":35322.51000000005,"duration":241.93499999999767,"noteNumber":60,"velocity":127,"programNumber":28},{"time":35564.44500000005,"duration":241.93499999999767,"noteNumber":48,"velocity":127,"programNumber":28},{"time":35806.38000000005,"duration":241.93499999999767,"noteNumber":50,"velocity":127,"programNumber":28},{"time":35806.38000000005,"duration":241.93499999999767,"noteNumber":57,"velocity":127,"programNumber":28},{"time":36048.315000000046,"duration":241.93499999999767,"noteNumber":50,"velocity":127,"programNumber":28},{"time":36048.315000000046,"duration":241.93499999999767,"noteNumber":57,"velocity":127,"programNumber":28},{"time":36290.250000000044,"duration":241.93499999999767,"noteNumber":50,"velocity":127,"programNumber":28},{"time":36290.250000000044,"duration":241.93499999999767,"noteNumber":57,"velocity":127,"programNumber":28},{"time":36532.18500000004,"duration":241.93499999999767,"noteNumber":45,"velocity":127,"programNumber":28},{"time":61935.360000000044,"duration":322.58000000000175,"noteNumber":40,"velocity":127,"programNumber":28},{"time":62419.23000000005,"duration":20.16124999999738,"noteNumber":40,"velocity":127,"programNumber":28},{"time":62661.165000000045,"duration":241.93499999999767,"noteNumber":40,"velocity":127,"programNumber":28},{"time":62903.10000000004,"duration":241.93499999999767,"noteNumber":44,"velocity":127,"programNumber":28},{"time":63145.03500000004,"duration":241.93499999999767,"noteNumber":51,"velocity":127,"programNumber":28},{"time":63386.97000000004,"duration":20.16124999999738,"noteNumber":44,"velocity":127,"programNumber":28},{"time":63628.905000000035,"duration":241.93499999999767,"noteNumber":40,"velocity":127,"programNumber":28},{"time":63870.84000000003,"duration":241.93499999999767,"noteNumber":49,"velocity":127,"programNumber":28},{"time":64112.77500000003,"duration":241.93499999999767,"noteNumber":56,"velocity":127,"programNumber":28},{"time":64596.645000000026,"duration":241.93499999999767,"noteNumber":40,"velocity":127,"programNumber":28},{"time":64838.58000000002,"duration":241.93499999999767,"noteNumber":45,"velocity":127,"programNumber":28},{"time":65080.51500000002,"duration":241.93499999999767,"noteNumber":52,"velocity":127,"programNumber":28},{"time":65322.45000000002,"duration":241.93500000000495,"noteNumber":57,"velocity":127,"programNumber":28},{"time":65564.38500000002,"duration":241.93499999999767,"noteNumber":40,"velocity":127,"programNumber":28},{"time":65806.32000000002,"duration":483.86999999999534,"noteNumber":48,"velocity":127,"programNumber":28},{"time":66290.19000000002,"duration":241.93499999999767,"noteNumber":55,"velocity":127,"programNumber":28},{"time":66290.19000000002,"duration":241.93499999999767,"noteNumber":60,"velocity":127,"programNumber":28},{"time":66532.12500000001,"duration":241.93499999999767,"noteNumber":48,"velocity":127,"programNumber":28},{"time":66774.06000000001,"duration":241.93499999999767,"noteNumber":50,"velocity":127,"programNumber":28},{"time":66774.06000000001,"duration":241.93499999999767,"noteNumber":57,"velocity":127,"programNumber":28},{"time":67015.99500000001,"duration":241.93499999999767,"noteNumber":50,"velocity":127,"programNumber":28},{"time":67015.99500000001,"duration":241.93499999999767,"noteNumber":57,"velocity":127,"programNumber":28},{"time":67257.93000000001,"duration":241.93499999999767,"noteNumber":50,"velocity":127,"programNumber":28},{"time":67257.93000000001,"duration":241.93499999999767,"noteNumber":57,"velocity":127,"programNumber":28},{"time":67499.865,"duration":241.93499999999767,"noteNumber":45,"velocity":127,"programNumber":28},{"time":67741.8,"duration":483.86999999999534,"noteNumber":47,"velocity":127,"programNumber":28},{"time":67741.8,"duration":483.86999999999534,"noteNumber":54,"velocity":127,"programNumber":28},{"time":68225.67,"duration":241.93499999999767,"noteNumber":59,"velocity":127,"programNumber":28},{"time":68225.67,"duration":241.93499999999767,"noteNumber":63,"velocity":127,"programNumber":28},{"time":68467.605,"duration":241.93499999999767,"noteNumber":54,"velocity":127,"programNumber":28},{"time":68467.605,"duration":241.93499999999767,"noteNumber":59,"velocity":127,"programNumber":28},{"time":68709.54,"duration":241.93499999999767,"noteNumber":57,"velocity":127,"programNumber":28},{"time":68709.54,"duration":241.93499999999767,"noteNumber":62,"velocity":127,"programNumber":28},{"time":68951.47499999999,"duration":241.93499999999767,"noteNumber":50,"velocity":127,"programNumber":28},{"time":69193.40999999999,"duration":241.93499999999767,"noteNumber":62,"velocity":127,"programNumber":28},{"time":69193.40999999999,"duration":241.93499999999767,"noteNumber":66,"velocity":127,"programNumber":28},{"time":69435.34499999999,"duration":241.93499999999767,"noteNumber":40,"velocity":127,"programNumber":28},{"time":69677.27999999998,"duration":322.58000000000175,"noteNumber":40,"velocity":127,"programNumber":28},{"time":70161.14999999998,"duration":20.161250000004657,"noteNumber":40,"velocity":127,"programNumber":28},{"time":70403.08499999998,"duration":241.93499999999767,"noteNumber":40,"velocity":127,"programNumber":28},{"time":70645.01999999997,"duration":241.93499999999767,"noteNumber":44,"velocity":127,"programNumber":28},{"time":70886.95499999997,"duration":241.93499999999767,"noteNumber":51,"velocity":127,"programNumber":28},{"time":71370.82499999997,"duration":241.93499999999767,"noteNumber":49,"velocity":127,"programNumber":28},{"time":71612.75999999997,"duration":241.93499999999767,"noteNumber":49,"velocity":127,"programNumber":28},{"time":71854.69499999996,"duration":241.93499999999767,"noteNumber":56,"velocity":127,"programNumber":28},{"time":71854.69499999996,"duration":241.93499999999767,"noteNumber":61,"velocity":127,"programNumber":28},{"time":72338.56499999996,"duration":241.93499999999767,"noteNumber":40,"velocity":127,"programNumber":28},{"time":72580.49999999996,"duration":241.93499999999767,"noteNumber":45,"velocity":127,"programNumber":28},{"time":72822.43499999995,"duration":241.93499999999767,"noteNumber":52,"velocity":127,"programNumber":28},{"time":73064.36999999995,"duration":241.93499999999767,"noteNumber":57,"velocity":127,"programNumber":28},{"time":73306.30499999995,"duration":241.93499999999767,"noteNumber":40,"velocity":127,"programNumber":28},{"time":73548.23999999995,"duration":483.86999999999534,"noteNumber":48,"velocity":127,"programNumber":28},{"time":74032.10999999994,"duration":241.93499999999767,"noteNumber":60,"velocity":127,"programNumber":28},{"time":74274.04499999994,"duration":241.93499999999767,"noteNumber":48,"velocity":127,"programNumber":28},{"time":74515.97999999994,"duration":241.93499999999767,"noteNumber":50,"velocity":127,"programNumber":28},{"time":74757.91499999994,"duration":241.93499999999767,"noteNumber":50,"velocity":127,"programNumber":28},{"time":74999.84999999993,"duration":241.93499999999767,"noteNumber":55,"velocity":127,"programNumber":28},{"time":74999.84999999993,"duration":241.93499999999767,"noteNumber":60,"velocity":127,"programNumber":28},{"time":75241.78499999993,"duration":241.93499999999767,"noteNumber":45,"velocity":127,"programNumber":28},{"time":75483.71999999993,"duration":483.86999999999534,"noteNumber":47,"velocity":127,"programNumber":28},{"time":75967.58999999992,"duration":241.93499999999767,"noteNumber":59,"velocity":127,"programNumber":28},{"time":75967.58999999992,"duration":241.93499999999767,"noteNumber":63,"velocity":127,"programNumber":28},{"time":76209.52499999992,"duration":241.93499999999767,"noteNumber":47,"velocity":127,"programNumber":28},{"time":76451.45999999992,"duration":241.93499999999767,"noteNumber":50,"velocity":127,"programNumber":28},{"time":76693.39499999992,"duration":241.93499999999767,"noteNumber":50,"velocity":127,"programNumber":28},{"time":76693.39499999992,"duration":241.93499999999767,"noteNumber":57,"velocity":127,"programNumber":28},{"time":76935.32999999991,"duration":241.93499999999767,"noteNumber":57,"velocity":127,"programNumber":28},{"time":76935.32999999991,"duration":241.93499999999767,"noteNumber":62,"velocity":127,"programNumber":28},{"time":77177.26499999991,"duration":241.93499999999767,"noteNumber":40,"velocity":127,"programNumber":28},{"time":77419.19999999991,"duration":322.58000000000175,"noteNumber":40,"velocity":127,"programNumber":28},{"time":77903.0699999999,"duration":20.161250000004657,"noteNumber":40,"velocity":127,"programNumber":28},{"time":78145.0049999999,"duration":241.93499999999767,"noteNumber":40,"velocity":127,"programNumber":28},{"time":78386.9399999999,"duration":241.93499999999767,"noteNumber":44,"velocity":127,"programNumber":28},{"time":78628.8749999999,"duration":241.93499999999767,"noteNumber":51,"velocity":127,"programNumber":28},{"time":78870.8099999999,"duration":20.161250000004657,"noteNumber":44,"velocity":127,"programNumber":28},{"time":79112.7449999999,"duration":241.93499999999767,"noteNumber":40,"velocity":127,"programNumber":28},{"time":79354.67999999989,"duration":241.93499999999767,"noteNumber":49,"velocity":127,"programNumber":28},{"time":79596.61499999989,"duration":241.93499999999767,"noteNumber":56,"velocity":127,"programNumber":28},{"time":80080.48499999988,"duration":241.93499999999767,"noteNumber":40,"velocity":127,"programNumber":28},{"time":80322.41999999988,"duration":241.93499999999767,"noteNumber":45,"velocity":127,"programNumber":28},{"time":80564.35499999988,"duration":241.93499999999767,"noteNumber":52,"velocity":127,"programNumber":28},{"time":80806.28999999988,"duration":241.93499999999767,"noteNumber":57,"velocity":127,"programNumber":28},{"time":81048.22499999987,"duration":241.93499999999767,"noteNumber":40,"velocity":127,"programNumber":28},{"time":81290.15999999987,"duration":483.86999999999534,"noteNumber":48,"velocity":127,"programNumber":28},{"time":81774.02999999987,"duration":241.93499999999767,"noteNumber":55,"velocity":127,"programNumber":28},{"time":81774.02999999987,"duration":241.93499999999767,"noteNumber":60,"velocity":127,"programNumber":28},{"time":82015.96499999987,"duration":241.93499999999767,"noteNumber":48,"velocity":127,"programNumber":28},{"time":82257.89999999986,"duration":241.93499999999767,"noteNumber":50,"velocity":127,"programNumber":28},{"time":82257.89999999986,"duration":241.93499999999767,"noteNumber":57,"velocity":127,"programNumber":28},{"time":82499.83499999986,"duration":241.93499999999767,"noteNumber":50,"velocity":127,"programNumber":28},{"time":82499.83499999986,"duration":241.93499999999767,"noteNumber":57,"velocity":127,"programNumber":28},{"time":82741.76999999986,"duration":241.93499999999767,"noteNumber":50,"velocity":127,"programNumber":28},{"time":82741.76999999986,"duration":241.93499999999767,"noteNumber":57,"velocity":127,"programNumber":28},{"time":82983.70499999986,"duration":241.93499999999767,"noteNumber":45,"velocity":127,"programNumber":28},{"time":83225.63999999985,"duration":483.86999999999534,"noteNumber":47,"velocity":127,"programNumber":28},{"time":83225.63999999985,"duration":483.86999999999534,"noteNumber":54,"velocity":127,"programNumber":28},{"time":83709.50999999985,"duration":241.93499999999767,"noteNumber":59,"velocity":127,"programNumber":28},{"time":83709.50999999985,"duration":241.93499999999767,"noteNumber":63,"velocity":127,"programNumber":28},{"time":83951.44499999985,"duration":241.93499999999767,"noteNumber":54,"velocity":127,"programNumber":28},{"time":83951.44499999985,"duration":241.93499999999767,"noteNumber":59,"velocity":127,"programNumber":28},{"time":84193.37999999984,"duration":241.93499999999767,"noteNumber":57,"velocity":127,"programNumber":28},{"time":84193.37999999984,"duration":241.93499999999767,"noteNumber":62,"velocity":127,"programNumber":28},{"time":84435.31499999984,"duration":241.93499999999767,"noteNumber":50,"velocity":127,"programNumber":28},{"time":84677.24999999984,"duration":241.93499999999767,"noteNumber":62,"velocity":127,"programNumber":28},{"time":84677.24999999984,"duration":241.93499999999767,"noteNumber":66,"velocity":127,"programNumber":28},{"time":84919.18499999984,"duration":241.93499999999767,"noteNumber":40,"velocity":127,"programNumber":28},{"time":85161.11999999984,"duration":322.58000000000175,"noteNumber":40,"velocity":127,"programNumber":28},{"time":85644.98999999983,"duration":20.161250000004657,"noteNumber":40,"velocity":127,"programNumber":28},{"time":85886.92499999983,"duration":241.93499999999767,"noteNumber":40,"velocity":127,"programNumber":28},{"time":86128.85999999983,"duration":241.93499999999767,"noteNumber":44,"velocity":127,"programNumber":28},{"time":86370.79499999982,"duration":241.93499999999767,"noteNumber":51,"velocity":127,"programNumber":28},{"time":86612.72999999982,"duration":20.161250000004657,"noteNumber":44,"velocity":127,"programNumber":28},{"time":86854.66499999982,"duration":241.93499999999767,"noteNumber":40,"velocity":127,"programNumber":28},{"time":87096.59999999982,"duration":241.93499999999767,"noteNumber":49,"velocity":127,"programNumber":28},{"time":87338.53499999981,"duration":241.93499999999767,"noteNumber":56,"velocity":127,"programNumber":28},{"time":87822.40499999981,"duration":241.93499999999767,"noteNumber":40,"velocity":127,"programNumber":28},{"time":88064.33999999981,"duration":241.93499999999767,"noteNumber":45,"velocity":127,"programNumber":28},{"time":88306.2749999998,"duration":241.93499999999767,"noteNumber":52,"velocity":127,"programNumber":28},{"time":88548.2099999998,"duration":241.93499999999767,"noteNumber":57,"velocity":127,"programNumber":28},{"time":88790.1449999998,"duration":241.93499999999767,"noteNumber":40,"velocity":127,"programNumber":28},{"time":89032.0799999998,"duration":483.86999999999534,"noteNumber":48,"velocity":127,"programNumber":28},{"time":89515.9499999998,"duration":241.93499999999767,"noteNumber":55,"velocity":127,"programNumber":28},{"time":89515.9499999998,"duration":241.93499999999767,"noteNumber":60,"velocity":127,"programNumber":28},{"time":89757.88499999979,"duration":241.93499999999767,"noteNumber":48,"velocity":127,"programNumber":28},{"time":89999.81999999979,"duration":241.93499999999767,"noteNumber":50,"velocity":127,"programNumber":28},{"time":89999.81999999979,"duration":241.93499999999767,"noteNumber":57,"velocity":127,"programNumber":28},{"time":90241.75499999979,"duration":241.93499999999767,"noteNumber":50,"velocity":127,"programNumber":28},{"time":90241.75499999979,"duration":241.93499999999767,"noteNumber":57,"velocity":127,"programNumber":28},{"time":90483.68999999978,"duration":241.93499999999767,"noteNumber":50,"velocity":127,"programNumber":28},{"time":90483.68999999978,"duration":241.93499999999767,"noteNumber":57,"velocity":127,"programNumber":28},{"time":90725.62499999978,"duration":241.93499999999767,"noteNumber":45,"velocity":127,"programNumber":28},{"time":158709.35999999978,"duration":322.5799999999872,"noteNumber":40,"velocity":127,"programNumber":28},{"time":159193.22999999978,"duration":20.161250000004657,"noteNumber":40,"velocity":127,"programNumber":28},{"time":159435.16499999978,"duration":241.93499999999767,"noteNumber":40,"velocity":127,"programNumber":28},{"time":159677.09999999977,"duration":241.93499999999767,"noteNumber":44,"velocity":127,"programNumber":28},{"time":159919.03499999977,"duration":241.93499999999767,"noteNumber":51,"velocity":127,"programNumber":28},{"time":160160.96999999977,"duration":20.161250000004657,"noteNumber":44,"velocity":127,"programNumber":28},{"time":160402.90499999977,"duration":241.93499999999767,"noteNumber":40,"velocity":127,"programNumber":28},{"time":160644.83999999976,"duration":241.93499999999767,"noteNumber":49,"velocity":127,"programNumber":28},{"time":160886.77499999976,"duration":241.93499999999767,"noteNumber":56,"velocity":127,"programNumber":28},{"time":161370.64499999976,"duration":241.93499999999767,"noteNumber":40,"velocity":127,"programNumber":28},{"time":161612.57999999975,"duration":241.93499999999767,"noteNumber":45,"velocity":127,"programNumber":28},{"time":161854.51499999975,"duration":241.93499999999767,"noteNumber":52,"velocity":127,"programNumber":28},{"time":162096.44999999975,"duration":241.93499999999767,"noteNumber":57,"velocity":127,"programNumber":28},{"time":162338.38499999975,"duration":241.93499999999767,"noteNumber":40,"velocity":127,"programNumber":28},{"time":162580.31999999975,"duration":483.86999999999534,"noteNumber":48,"velocity":127,"programNumber":28},{"time":163064.18999999974,"duration":241.93499999999767,"noteNumber":55,"velocity":127,"programNumber":28},{"time":163064.18999999974,"duration":241.93499999999767,"noteNumber":60,"velocity":127,"programNumber":28},{"time":163306.12499999974,"duration":241.93499999999767,"noteNumber":48,"velocity":127,"programNumber":28},{"time":163548.05999999974,"duration":241.93499999999767,"noteNumber":50,"velocity":127,"programNumber":28},{"time":163548.05999999974,"duration":241.93499999999767,"noteNumber":57,"velocity":127,"programNumber":28},{"time":163789.99499999973,"duration":241.93499999999767,"noteNumber":50,"velocity":127,"programNumber":28},{"time":163789.99499999973,"duration":241.93499999999767,"noteNumber":57,"velocity":127,"programNumber":28},{"time":164031.92999999973,"duration":241.93499999999767,"noteNumber":50,"velocity":127,"programNumber":28},{"time":164031.92999999973,"duration":241.93499999999767,"noteNumber":57,"velocity":127,"programNumber":28},{"time":164273.86499999973,"duration":241.93499999999767,"noteNumber":45,"velocity":127,"programNumber":28},{"time":164515.79999999973,"duration":483.86999999999534,"noteNumber":47,"velocity":127,"programNumber":28},{"time":164515.79999999973,"duration":483.86999999999534,"noteNumber":54,"velocity":127,"programNumber":28},{"time":164999.66999999972,"duration":241.93499999999767,"noteNumber":59,"velocity":127,"programNumber":28},{"time":164999.66999999972,"duration":241.93499999999767,"noteNumber":63,"velocity":127,"programNumber":28},{"time":165241.60499999972,"duration":241.93499999999767,"noteNumber":54,"velocity":127,"programNumber":28},{"time":165241.60499999972,"duration":241.93499999999767,"noteNumber":59,"velocity":127,"programNumber":28},{"time":165483.53999999972,"duration":241.93499999999767,"noteNumber":57,"velocity":127,"programNumber":28},{"time":165483.53999999972,"duration":241.93499999999767,"noteNumber":62,"velocity":127,"programNumber":28},{"time":165725.47499999971,"duration":241.93499999999767,"noteNumber":50,"velocity":127,"programNumber":28},{"time":165967.4099999997,"duration":241.93499999999767,"noteNumber":62,"velocity":127,"programNumber":28},{"time":165967.4099999997,"duration":241.93499999999767,"noteNumber":66,"velocity":127,"programNumber":28},{"time":166209.3449999997,"duration":241.93499999999767,"noteNumber":40,"velocity":127,"programNumber":28},{"time":166451.2799999997,"duration":322.5799999999872,"noteNumber":40,"velocity":127,"programNumber":28},{"time":166935.1499999997,"duration":20.161250000004657,"noteNumber":40,"velocity":127,"programNumber":28},{"time":167177.0849999997,"duration":241.93499999999767,"noteNumber":40,"velocity":127,"programNumber":28},{"time":167419.0199999997,"duration":241.93499999999767,"noteNumber":44,"velocity":127,"programNumber":28},{"time":167660.9549999997,"duration":241.93499999999767,"noteNumber":51,"velocity":127,"programNumber":28},{"time":168144.8249999997,"duration":241.93499999999767,"noteNumber":49,"velocity":127,"programNumber":28},{"time":168386.7599999997,"duration":241.93499999999767,"noteNumber":49,"velocity":127,"programNumber":28},{"time":168628.6949999997,"duration":241.93499999999767,"noteNumber":56,"velocity":127,"programNumber":28},{"time":168628.6949999997,"duration":241.93499999999767,"noteNumber":61,"velocity":127,"programNumber":28},{"time":169112.56499999968,"duration":241.93499999999767,"noteNumber":40,"velocity":127,"programNumber":28},{"time":169354.49999999968,"duration":241.93499999999767,"noteNumber":45,"velocity":127,"programNumber":28},{"time":169596.43499999968,"duration":241.93499999999767,"noteNumber":52,"velocity":127,"programNumber":28},{"time":169838.36999999968,"duration":241.93499999999767,"noteNumber":57,"velocity":127,"programNumber":28},{"time":170080.30499999967,"duration":241.93499999999767,"noteNumber":40,"velocity":127,"programNumber":28},{"time":170322.23999999967,"duration":483.86999999999534,"noteNumber":48,"velocity":127,"programNumber":28},{"time":170806.10999999967,"duration":241.93499999999767,"noteNumber":60,"velocity":127,"programNumber":28},{"time":171048.04499999966,"duration":241.93499999999767,"noteNumber":48,"velocity":127,"programNumber":28},{"time":171289.97999999966,"duration":241.93499999999767,"noteNumber":50,"velocity":127,"programNumber":28},{"time":171531.91499999966,"duration":241.93499999999767,"noteNumber":50,"velocity":127,"programNumber":28},{"time":171773.84999999966,"duration":241.93499999999767,"noteNumber":55,"velocity":127,"programNumber":28},{"time":171773.84999999966,"duration":241.93499999999767,"noteNumber":60,"velocity":127,"programNumber":28},{"time":172015.78499999965,"duration":241.93499999999767,"noteNumber":45,"velocity":127,"programNumber":28},{"time":172257.71999999965,"duration":483.86999999999534,"noteNumber":47,"velocity":127,"programNumber":28},{"time":172741.58999999965,"duration":241.93499999999767,"noteNumber":59,"velocity":127,"programNumber":28},{"time":172741.58999999965,"duration":241.93499999999767,"noteNumber":63,"velocity":127,"programNumber":28},{"time":172983.52499999964,"duration":241.93499999999767,"noteNumber":47,"velocity":127,"programNumber":28},{"time":173225.45999999964,"duration":241.93499999999767,"noteNumber":50,"velocity":127,"programNumber":28},{"time":173467.39499999964,"duration":241.93499999999767,"noteNumber":50,"velocity":127,"programNumber":28},{"time":173467.39499999964,"duration":241.93499999999767,"noteNumber":57,"velocity":127,"programNumber":28},{"time":173709.32999999964,"duration":241.93499999999767,"noteNumber":57,"velocity":127,"programNumber":28},{"time":173709.32999999964,"duration":241.93499999999767,"noteNumber":62,"velocity":127,"programNumber":28},{"time":173951.26499999964,"duration":241.93499999999767,"noteNumber":40,"velocity":127,"programNumber":28},{"time":174193.19999999963,"duration":322.5799999999872,"noteNumber":40,"velocity":127,"programNumber":28},{"time":174677.06999999963,"duration":20.161250000004657,"noteNumber":40,"velocity":127,"programNumber":28},{"time":174919.00499999963,"duration":241.93499999999767,"noteNumber":40,"velocity":127,"programNumber":28},{"time":175160.93999999962,"duration":241.93499999999767,"noteNumber":44,"velocity":127,"programNumber":28},{"time":175402.87499999962,"duration":241.93499999999767,"noteNumber":51,"velocity":127,"programNumber":28},{"time":175644.80999999962,"duration":20.161250000004657,"noteNumber":44,"velocity":127,"programNumber":28},{"time":175886.74499999962,"duration":241.93499999999767,"noteNumber":40,"velocity":127,"programNumber":28},{"time":176128.67999999961,"duration":241.93499999999767,"noteNumber":49,"velocity":127,"programNumber":28},{"time":176370.6149999996,"duration":241.93499999999767,"noteNumber":56,"velocity":127,"programNumber":28},{"time":176854.4849999996,"duration":241.93499999999767,"noteNumber":40,"velocity":127,"programNumber":28},{"time":177096.4199999996,"duration":241.93499999999767,"noteNumber":45,"velocity":127,"programNumber":28},{"time":177338.3549999996,"duration":241.93499999999767,"noteNumber":52,"velocity":127,"programNumber":28},{"time":177580.2899999996,"duration":241.93499999999767,"noteNumber":57,"velocity":127,"programNumber":28},{"time":177822.2249999996,"duration":241.93499999999767,"noteNumber":40,"velocity":127,"programNumber":28},{"time":178064.1599999996,"duration":483.86999999999534,"noteNumber":48,"velocity":127,"programNumber":28},{"time":178548.0299999996,"duration":241.93499999999767,"noteNumber":55,"velocity":127,"programNumber":28},{"time":178548.0299999996,"duration":241.93499999999767,"noteNumber":60,"velocity":127,"programNumber":28},{"time":178789.9649999996,"duration":241.93499999999767,"noteNumber":48,"velocity":127,"programNumber":28},{"time":179031.8999999996,"duration":241.93499999999767,"noteNumber":50,"velocity":127,"programNumber":28},{"time":179031.8999999996,"duration":241.93499999999767,"noteNumber":57,"velocity":127,"programNumber":28},{"time":179273.83499999958,"duration":241.93499999999767,"noteNumber":50,"velocity":127,"programNumber":28},{"time":179273.83499999958,"duration":241.93499999999767,"noteNumber":57,"velocity":127,"programNumber":28},{"time":179515.76999999958,"duration":241.93499999999767,"noteNumber":50,"velocity":127,"programNumber":28},{"time":179515.76999999958,"duration":241.93499999999767,"noteNumber":57,"velocity":127,"programNumber":28},{"time":179757.70499999958,"duration":241.93499999999767,"noteNumber":45,"velocity":127,"programNumber":28},{"time":179999.63999999958,"duration":483.86999999999534,"noteNumber":47,"velocity":127,"programNumber":28},{"time":179999.63999999958,"duration":483.86999999999534,"noteNumber":54,"velocity":127,"programNumber":28},{"time":180483.50999999957,"duration":241.93499999999767,"noteNumber":59,"velocity":127,"programNumber":28},{"time":180483.50999999957,"duration":241.93499999999767,"noteNumber":63,"velocity":127,"programNumber":28},{"time":180725.44499999957,"duration":241.93499999999767,"noteNumber":54,"velocity":127,"programNumber":28},{"time":180725.44499999957,"duration":241.93499999999767,"noteNumber":59,"velocity":127,"programNumber":28},{"time":180967.37999999957,"duration":241.93499999999767,"noteNumber":57,"velocity":127,"programNumber":28},{"time":180967.37999999957,"duration":241.93499999999767,"noteNumber":62,"velocity":127,"programNumber":28},{"time":181209.31499999957,"duration":241.93499999999767,"noteNumber":50,"velocity":127,"programNumber":28},{"time":181451.24999999956,"duration":241.93499999999767,"noteNumber":62,"velocity":127,"programNumber":28},{"time":181451.24999999956,"duration":241.93499999999767,"noteNumber":66,"velocity":127,"programNumber":28},{"time":181693.18499999956,"duration":241.93499999999767,"noteNumber":40,"velocity":127,"programNumber":28},{"time":181935.11999999956,"duration":322.5799999999872,"noteNumber":40,"velocity":127,"programNumber":28},{"time":182418.98999999955,"duration":20.161250000004657,"noteNumber":40,"velocity":127,"programNumber":28},{"time":182660.92499999955,"duration":241.93499999999767,"noteNumber":40,"velocity":127,"programNumber":28},{"time":182902.85999999955,"duration":241.93499999999767,"noteNumber":44,"velocity":127,"programNumber":28},{"time":183144.79499999955,"duration":241.93499999999767,"noteNumber":51,"velocity":127,"programNumber":28},{"time":183386.72999999954,"duration":20.161250000004657,"noteNumber":44,"velocity":127,"programNumber":28},{"time":183628.66499999954,"duration":241.93499999999767,"noteNumber":40,"velocity":127,"programNumber":28},{"time":183870.59999999954,"duration":241.93499999999767,"noteNumber":49,"velocity":127,"programNumber":28},{"time":184112.53499999954,"duration":241.93499999999767,"noteNumber":56,"velocity":127,"programNumber":28},{"time":184596.40499999953,"duration":241.93499999999767,"noteNumber":40,"velocity":127,"programNumber":28},{"time":184838.33999999953,"duration":241.93499999999767,"noteNumber":45,"velocity":127,"programNumber":28},{"time":185080.27499999953,"duration":241.93499999999767,"noteNumber":52,"velocity":127,"programNumber":28},{"time":185322.20999999953,"duration":241.93499999999767,"noteNumber":57,"velocity":127,"programNumber":28},{"time":185564.14499999952,"duration":241.93499999999767,"noteNumber":40,"velocity":127,"programNumber":28},{"time":185806.07999999952,"duration":483.86999999999534,"noteNumber":48,"velocity":127,"programNumber":28},{"time":186289.94999999952,"duration":241.93499999999767,"noteNumber":55,"velocity":127,"programNumber":28},{"time":186289.94999999952,"duration":241.93499999999767,"noteNumber":60,"velocity":127,"programNumber":28},{"time":186531.8849999995,"duration":241.93499999999767,"noteNumber":48,"velocity":127,"programNumber":28},{"time":186773.8199999995,"duration":241.93499999999767,"noteNumber":50,"velocity":127,"programNumber":28},{"time":186773.8199999995,"duration":241.93499999999767,"noteNumber":57,"velocity":127,"programNumber":28},{"time":187015.7549999995,"duration":241.93499999999767,"noteNumber":50,"velocity":127,"programNumber":28},{"time":187015.7549999995,"duration":241.93499999999767,"noteNumber":57,"velocity":127,"programNumber":28},{"time":187257.6899999995,"duration":241.93499999999767,"noteNumber":50,"velocity":127,"programNumber":28},{"time":187257.6899999995,"duration":241.93499999999767,"noteNumber":57,"velocity":127,"programNumber":28},{"time":187499.6249999995,"duration":241.93499999999767,"noteNumber":45,"velocity":127,"programNumber":28}]]}