{"tracks":[[{"time":27494.791666666664,"duration":244.79166666666788,"noteNumber":67,"velocity":116,"programNumber":81},{"time":27744.791666666664,"duration":239.58333333333212,"noteNumber":70,"velocity":116,"programNumber":81},{"time":27989.58333333333,"duration":166.66666666666788,"noteNumber":72,"velocity":116,"programNumber":81},{"time":28489.58333333333,"duration":937.5,"noteNumber":72,"velocity":116,"programNumber":81},{"time":29489.58333333333,"duration":239.58333333333212,"noteNumber":67,"velocity":116,"programNumber":81},{"time":29744.79166666666,"duration":489.5833333333321,"noteNumber":70,"velocity":116,"programNumber":81},{"time":30244.79166666666,"duration":135.41666666666788,"noteNumber":72,"velocity":116,"programNumber":81},{"time":30739.58333333332,"duration":744.7916666666642,"noteNumber":75,"velocity":116,"programNumber":81},{"time":31489.583333333318,"duration":119.79166666666788,"noteNumber":72,"velocity":116,"programNumber":81},{"time":31739.583333333318,"duration":244.79166666666788,"noteNumber":75,"velocity":116,"programNumber":81},{"time":32067.708333333318,"duration":192.70833333333212,"noteNumber":75,"velocity":116,"programNumber":81},{"time":32401.04166666665,"duration":244.79166666666788,"noteNumber":75,"velocity":116,"programNumber":81},{"time":32734.37499999998,"duration":307.2916666666606,"noteNumber":75,"velocity":116,"programNumber":81},{"time":33062.49999999998,"duration":166.66666666666424,"noteNumber":72,"velocity":116,"programNumber":81},{"time":33401.04166666664,"duration":140.625,"noteNumber":72,"velocity":116,"programNumber":81},{"time":33739.58333333332,"duration":286.4583333333285,"noteNumber":75,"velocity":116,"programNumber":81},{"time":34062.499999999985,"duration":171.875,"noteNumber":74,"velocity":116,"programNumber":81},{"time":34401.04166666665,"duration":145.83333333333576,"noteNumber":72,"velocity":116,"programNumber":81},{"time":34729.16666666665,"duration":583.3333333333358,"noteNumber":72,"velocity":116,"programNumber":81},{"time":35729.16666666666,"duration":244.79166666667152,"noteNumber":70,"velocity":116,"programNumber":81},{"time":35979.166666666664,"duration":78.125,"noteNumber":72,"velocity":116,"programNumber":81},{"time":36229.166666666664,"duration":78.125,"noteNumber":70,"velocity":116,"programNumber":81},{"time":36479.166666666664,"duration":619.7916666666642,"noteNumber":72,"velocity":116,"programNumber":81},{"time":37479.166666666664,"duration":78.125,"noteNumber":67,"velocity":116,"programNumber":81},{"time":37604.166666666664,"duration":119.79166666666424,"noteNumber":67,"velocity":116,"programNumber":81},{"time":37729.166666666664,"duration":494.79166666666424,"noteNumber":70,"velocity":116,"programNumber":81},{"time":38223.95833333333,"duration":208.33333333333576,"noteNumber":72,"velocity":116,"programNumber":81},{"time":38729.166666666664,"duration":619.7916666666642,"noteNumber":75,"velocity":116,"programNumber":81},{"time":39468.74999999999,"duration":83.33333333333576,"noteNumber":72,"velocity":116,"programNumber":81},{"time":39723.95833333333,"duration":187.5,"noteNumber":75,"velocity":116,"programNumber":81},{"time":40052.08333333333,"duration":177.08333333333576,"noteNumber":75,"velocity":116,"programNumber":81},{"time":40385.416666666664,"duration":145.83333333333576,"noteNumber":75,"velocity":116,"programNumber":81},{"time":40723.95833333334,"duration":286.45833333334303,"noteNumber":75,"velocity":116,"programNumber":81},{"time":41052.08333333335,"duration":151.04166666666424,"noteNumber":72,"velocity":116,"programNumber":81},{"time":41385.41666666668,"duration":104.16666666666424,"noteNumber":72,"velocity":116,"programNumber":81},{"time":41723.95833333334,"duration":322.9166666666715,"noteNumber":75,"velocity":116,"programNumber":81},{"time":42052.08333333335,"duration":140.625,"noteNumber":74,"velocity":116,"programNumber":81},{"time":42385.416666666686,"duration":140.625,"noteNumber":72,"velocity":116,"programNumber":81},{"time":42718.75000000002,"duration":494.79166666666424,"noteNumber":72,"velocity":116,"programNumber":81},{"time":43723.95833333337,"duration":489.5833333333503,"noteNumber":77,"velocity":116,"programNumber":81},{"time":44218.75000000006,"duration":244.79166666666424,"noteNumber":75,"velocity":116,"programNumber":81},{"time":44468.75000000006,"duration":739.5833333333358,"noteNumber":72,"velocity":116,"programNumber":81},{"time":45218.75000000006,"duration":72.91666666666424,"noteNumber":72,"velocity":116,"programNumber":81},{"time":45463.54166666672,"duration":98.95833333333576,"noteNumber":72,"velocity":116,"programNumber":81},{"time":45708.333333333394,"duration":494.79166666666424,"noteNumber":77,"velocity":116,"programNumber":81},{"time":46213.54166666672,"duration":239.58333333333576,"noteNumber":79,"velocity":116,"programNumber":81},{"time":46458.333333333394,"duration":1255.2083333333358,"noteNumber":75,"velocity":116,"programNumber":81},{"time":51708.333333333394,"duration":739.5833333333285,"noteNumber":77,"velocity":116,"programNumber":81},{"time":52453.12500000006,"duration":239.58333333333576,"noteNumber":75,"velocity":116,"programNumber":81},{"time":52697.91666666673,"duration":500,"noteNumber":72,"velocity":116,"programNumber":81},{"time":53453.125000000065,"duration":223.95833333334303,"noteNumber":72,"velocity":116,"programNumber":81},{"time":53697.916666666744,"duration":286.45833333333576,"noteNumber":77,"velocity":116,"programNumber":81},{"time":54031.25000000008,"duration":166.66666666666424,"noteNumber":77,"velocity":116,"programNumber":81},{"time":54364.58333333341,"duration":145.83333333333576,"noteNumber":75,"velocity":116,"programNumber":81},{"time":54703.12500000008,"duration":739.5833333333358,"noteNumber":77,"velocity":116,"programNumber":81},{"time":55703.125000000095,"duration":281.25,"noteNumber":77,"velocity":116,"programNumber":81},{"time":56031.250000000095,"duration":322.91666666666424,"noteNumber":77,"velocity":116,"programNumber":81},{"time":56359.375000000095,"duration":333.33333333333576,"noteNumber":77,"velocity":116,"programNumber":81},{"time":56697.916666666766,"duration":156.25,"noteNumber":75,"velocity":116,"programNumber":81},{"time":57026.041666666766,"duration":328.125,"noteNumber":75,"velocity":116,"programNumber":81},{"time":57359.3750000001,"duration":119.79166666666424,"noteNumber":77,"velocity":116,"programNumber":81},{"time":57692.708333333445,"duration":286.45833333333576,"noteNumber":79,"velocity":116,"programNumber":81},{"time":58026.04166666678,"duration":140.625,"noteNumber":79,"velocity":116,"programNumber":81},{"time":58359.37500000012,"duration":161.45833333333576,"noteNumber":79,"velocity":116,"programNumber":81},{"time":58692.70833333345,"duration":619.7916666666642,"noteNumber":79,"velocity":116,"programNumber":81},{"time":59697.91666666679,"duration":218.75000000001455,"noteNumber":79,"velocity":116,"programNumber":81},{"time":59937.50000000014,"duration":83.33333333333576,"noteNumber":79,"velocity":116,"programNumber":81},{"time":60187.50000000014,"duration":72.91666666666424,"noteNumber":79,"velocity":116,"programNumber":81},{"time":60442.70833333347,"duration":848.9583333333358,"noteNumber":80,"velocity":116,"programNumber":81},{"time":61437.50000000014,"duration":78.125,"noteNumber":77,"velocity":116,"programNumber":81},{"time":61687.50000000014,"duration":328.125,"noteNumber":77,"velocity":116,"programNumber":81},{"time":62187.50000000014,"duration":244.79166666666424,"noteNumber":77,"velocity":116,"programNumber":81},{"time":62437.50000000014,"duration":244.79166666666424,"noteNumber":79,"velocity":116,"programNumber":81},{"time":62687.50000000014,"duration":807.2916666666642,"noteNumber":79,"velocity":116,"programNumber":81},{"time":63682.29166666682,"duration":250,"noteNumber":79,"velocity":116,"programNumber":81},{"time":63932.29166666682,"duration":473.95833333333576,"noteNumber":79,"velocity":116,"programNumber":81},{"time":64437.50000000015,"duration":484.375,"noteNumber":77,"velocity":116,"programNumber":81},{"time":64927.08333333349,"duration":244.79166666666424,"noteNumber":75,"velocity":116,"programNumber":81},{"time":65177.08333333349,"duration":119.79166666666424,"noteNumber":72,"velocity":116,"programNumber":81},{"time":65427.08333333349,"duration":52.08333333333576,"noteNumber":72,"velocity":116,"programNumber":81},{"time":65682.29166666683,"duration":395.8333333333285,"noteNumber":75,"velocity":116,"programNumber":81},{"time":66187.50000000016,"duration":906.25,"noteNumber":72,"velocity":116,"programNumber":81},{"time":67427.08333333349,"duration":239.58333333331393,"noteNumber":79,"velocity":116,"programNumber":81},{"time":67682.2916666668,"duration":78.125,"noteNumber":79,"velocity":116,"programNumber":81},{"time":67927.08333333347,"duration":473.9583333333285,"noteNumber":79,"velocity":116,"programNumber":81},{"time":68427.08333333347,"duration":718.75,"noteNumber":80,"velocity":116,"programNumber":81},{"time":69177.08333333347,"duration":93.75,"noteNumber":80,"velocity":116,"programNumber":81},{"time":69427.08333333347,"duration":93.75,"noteNumber":80,"velocity":116,"programNumber":81},{"time":69677.08333333347,"duration":218.75,"noteNumber":82,"velocity":116,"programNumber":81},{"time":69921.87500000015,"duration":244.79166666667152,"noteNumber":77,"velocity":116,"programNumber":81},{"time":70177.08333333349,"duration":239.58333333332848,"noteNumber":77,"velocity":116,"programNumber":81},{"time":70421.87500000015,"duration":244.79166666667152,"noteNumber":79,"velocity":116,"programNumber":81},{"time":70677.08333333349,"duration":718.75,"noteNumber":79,"velocity":116,"programNumber":81},{"time":71671.87500000013,"duration":223.95833333329938,"noteNumber":79,"velocity":116,"programNumber":81},{"time":71916.66666666676,"duration":270.8333333333285,"noteNumber":79,"velocity":116,"programNumber":81},{"time":72421.87500000009,"duration":489.5833333333285,"noteNumber":77,"velocity":116,"programNumber":81},{"time":72916.66666666674,"duration":218.75,"noteNumber":75,"velocity":116,"programNumber":81},{"time":73161.45833333342,"duration":125,"noteNumber":72,"velocity":116,"programNumber":81},{"time":73416.66666666674,"duration":104.16666666667152,"noteNumber":72,"velocity":116,"programNumber":81},{"time":73666.66666666674,"duration":244.79166666667152,"noteNumber":75,"velocity":116,"programNumber":81},{"time":74171.87500000009,"duration":593.75,"noteNumber":72,"velocity":116,"programNumber":81},{"time":75411.45833333342,"duration":244.79166666665697,"noteNumber":79,"velocity":116,"programNumber":81},{"time":75666.66666666674,"duration":78.125,"noteNumber":79,"velocity":116,"programNumber":81},{"time":75911.45833333342,"duration":473.9583333333285,"noteNumber":79,"velocity":116,"programNumber":81},{"time":76411.45833333342,"duration":453.125,"noteNumber":77,"velocity":116,"programNumber":81},{"time":76911.45833333342,"duration":1723.9583333333285,"noteNumber":79,"velocity":116,"programNumber":81},{"time":79411.4583333334,"duration":229.16666666667152,"noteNumber":72,"velocity":116,"programNumber":81},{"time":79656.25000000007,"duration":229.16666666667152,"noteNumber":75,"velocity":116,"programNumber":81},{"time":80151.04166666674,"duration":1062.5,"noteNumber":72,"velocity":116,"programNumber":81},{"time":88390.62500000004,"duration":244.79166666665697,"noteNumber":67,"velocity":116,"programNumber":81},{"time":88645.83333333337,"duration":239.58333333332848,"noteNumber":70,"velocity":116,"programNumber":81},{"time":88890.62500000003,"duration":161.45833333332848,"noteNumber":72,"velocity":116,"programNumber":81},{"time":89390.62500000003,"duration":812.5,"noteNumber":72,"velocity":116,"programNumber":81},{"time":90390.62500000001,"duration":239.58333333329938,"noteNumber":67,"velocity":116,"programNumber":81},{"time":90640.62499999999,"duration":494.7916666666715,"noteNumber":70,"velocity":116,"programNumber":81},{"time":91140.62499999999,"duration":223.95833333332848,"noteNumber":72,"velocity":116,"programNumber":81},{"time":91640.62499999999,"duration":734.375,"noteNumber":75,"velocity":116,"programNumber":81},{"time":92640.62499999997,"duration":234.375,"noteNumber":75,"velocity":116,"programNumber":81},{"time":92880.2083333333,"duration":125,"noteNumber":75,"velocity":116,"programNumber":81},{"time":93380.2083333333,"duration":729.1666666666715,"noteNumber":75,"velocity":116,"programNumber":81},{"time":94135.41666666664,"duration":119.79166666667152,"noteNumber":72,"velocity":116,"programNumber":81},{"time":94380.20833333331,"duration":104.16666666667152,"noteNumber":72,"velocity":116,"programNumber":81},{"time":94640.62499999997,"duration":234.375,"noteNumber":75,"velocity":116,"programNumber":81},{"time":94880.2083333333,"duration":223.95833333332848,"noteNumber":74,"velocity":116,"programNumber":81},{"time":95130.2083333333,"duration":98.95833333332848,"noteNumber":72,"velocity":116,"programNumber":81},{"time":95380.2083333333,"duration":640.625,"noteNumber":72,"velocity":116,"programNumber":81},{"time":96635.41666666658,"duration":166.66666666665697,"noteNumber":70,"velocity":116,"programNumber":81},{"time":96880.20833333324,"duration":223.95833333332848,"noteNumber":72,"velocity":116,"programNumber":81},{"time":97380.20833333324,"duration":614.5833333333285,"noteNumber":72,"velocity":116,"programNumber":81},{"time":98380.20833333324,"duration":72.91666666667152,"noteNumber":67,"velocity":116,"programNumber":81},{"time":98630.20833333324,"duration":484.37499999998545,"noteNumber":70,"velocity":116,"programNumber":81},{"time":99124.9999999999,"duration":223.95833333332848,"noteNumber":72,"velocity":116,"programNumber":81},{"time":99624.9999999999,"duration":619.7916666666715,"noteNumber":75,"velocity":116,"programNumber":81},{"time":100369.79166666657,"duration":234.375,"noteNumber":72,"velocity":116,"programNumber":81},{"time":100619.79166666657,"duration":192.70833333332848,"noteNumber":75,"velocity":116,"programNumber":81},{"time":100953.1249999999,"duration":177.08333333332848,"noteNumber":75,"velocity":116,"programNumber":81},{"time":101286.45833333323,"duration":145.83333333332848,"noteNumber":75,"velocity":116,"programNumber":81},{"time":101619.79166666656,"duration":307.29166666665697,"noteNumber":75,"velocity":116,"programNumber":81},{"time":101953.12499999988,"duration":145.83333333332848,"noteNumber":72,"velocity":116,"programNumber":81},{"time":102286.45833333321,"duration":119.79166666667152,"noteNumber":72,"velocity":116,"programNumber":81},{"time":102619.79166666656,"duration":328.1249999999709,"noteNumber":75,"velocity":116,"programNumber":81},{"time":102953.12499999985,"duration":161.45833333332848,"noteNumber":74,"velocity":116,"programNumber":81},{"time":103286.45833333318,"duration":140.625,"noteNumber":72,"velocity":116,"programNumber":81},{"time":103619.79166666651,"duration":489.5833333333285,"noteNumber":72,"velocity":116,"programNumber":81},{"time":104619.7916666665,"duration":484.375,"noteNumber":77,"velocity":116,"programNumber":81},{"time":105109.37499999983,"duration":244.79166666667152,"noteNumber":75,"velocity":116,"programNumber":81},{"time":105364.58333333317,"duration":739.5833333333285,"noteNumber":72,"velocity":116,"programNumber":81},{"time":106114.58333333317,"duration":119.79166666667152,"noteNumber":72,"velocity":116,"programNumber":81},{"time":106359.37499999984,"duration":104.16666666667152,"noteNumber":72,"velocity":116,"programNumber":81},{"time":106609.37499999984,"duration":494.79166666665697,"noteNumber":77,"velocity":116,"programNumber":81},{"time":107109.37499999983,"duration":244.79166666667152,"noteNumber":79,"velocity":116,"programNumber":81},{"time":107359.37499999983,"duration":1250,"noteNumber":75,"velocity":116,"programNumber":81},{"time":112609.3749999998,"duration":734.375,"noteNumber":77,"velocity":116,"programNumber":81},{"time":113354.16666666647,"duration":239.58333333332848,"noteNumber":75,"velocity":116,"programNumber":81},{"time":113598.95833333312,"duration":494.7916666666715,"noteNumber":72,"velocity":116,"programNumber":81},{"time":114354.16666666644,"duration":223.95833333331393,"noteNumber":72,"velocity":116,"programNumber":81},{"time":114598.95833333308,"duration":140.625,"noteNumber":77,"velocity":116,"programNumber":81},{"time":114848.95833333308,"duration":161.45833333332848,"noteNumber":77,"velocity":116,"programNumber":81},{"time":115098.95833333308,"duration":197.91666666667152,"noteNumber":75,"velocity":116,"programNumber":81},{"time":115348.95833333308,"duration":739.5833333333285,"noteNumber":77,"velocity":116,"programNumber":81},{"time":116593.74999999975,"duration":119.79166666667152,"noteNumber":77,"velocity":116,"programNumber":81},{"time":116927.0833333331,"duration":333.3333333333285,"noteNumber":77,"velocity":116,"programNumber":81},{"time":117260.41666666642,"duration":328.125,"noteNumber":77,"velocity":116,"programNumber":81},{"time":117593.74999999975,"duration":114.58333333332848,"noteNumber":75,"velocity":116,"programNumber":81},{"time":117927.08333333308,"duration":328.125,"noteNumber":75,"velocity":116,"programNumber":81},{"time":118260.41666666641,"duration":119.79166666667152,"noteNumber":77,"velocity":116,"programNumber":81},{"time":118593.74999999974,"duration":286.4583333333285,"noteNumber":79,"velocity":116,"programNumber":81},{"time":118927.08333333307,"duration":140.625,"noteNumber":79,"velocity":116,"programNumber":81},{"time":119255.20833333307,"duration":166.66666666667152,"noteNumber":79,"velocity":116,"programNumber":81},{"time":119588.54166666641,"duration":625,"noteNumber":79,"velocity":116,"programNumber":81},{"time":120588.54166666641,"duration":234.37499999998545,"noteNumber":79,"velocity":116,"programNumber":81},{"time":120838.5416666664,"duration":83.33333333332848,"noteNumber":79,"velocity":116,"programNumber":81},{"time":121088.5416666664,"duration":72.91666666667152,"noteNumber":79,"velocity":116,"programNumber":81},{"time":121343.74999999974,"duration":838.5416666666715,"noteNumber":80,"velocity":116,"programNumber":81},{"time":122338.54166666642,"duration":234.375,"noteNumber":77,"velocity":116,"programNumber":81},{"time":122583.3333333331,"duration":244.79166666667152,"noteNumber":77,"velocity":116,"programNumber":81},{"time":123088.54166666644,"duration":239.58333333332848,"noteNumber":77,"velocity":116,"programNumber":81},{"time":123333.3333333331,"duration":244.79166666667152,"noteNumber":79,"velocity":116,"programNumber":81},{"time":123588.54166666644,"duration":739.5833333333285,"noteNumber":79,"velocity":116,"programNumber":81},{"time":124583.3333333331,"duration":223.95833333332848,"noteNumber":79,"velocity":116,"programNumber":81},{"time":124828.12499999975,"duration":479.1666666666715,"noteNumber":79,"velocity":116,"programNumber":81},{"time":125338.54166666642,"duration":484.375,"noteNumber":77,"velocity":116,"programNumber":81},{"time":125828.12499999975,"duration":244.79166666667152,"noteNumber":75,"velocity":116,"programNumber":81},{"time":126078.12499999975,"duration":119.79166666667152,"noteNumber":72,"velocity":116,"programNumber":81},{"time":126328.12499999975,"duration":52.08333333332848,"noteNumber":72,"velocity":116,"programNumber":81},{"time":126583.33333333308,"duration":395.83333333334303,"noteNumber":75,"velocity":116,"programNumber":81},{"time":127083.3333333331,"duration":515.625,"noteNumber":72,"velocity":116,"programNumber":81},{"time":128322.91666666644,"duration":239.58333333331393,"noteNumber":79,"velocity":116,"programNumber":81},{"time":128572.91666666642,"duration":98.95833333332848,"noteNumber":79,"velocity":116,"programNumber":81},{"time":128822.91666666642,"duration":473.9583333333285,"noteNumber":79,"velocity":116,"programNumber":81},{"time":129328.12499999975,"duration":593.75,"noteNumber":80,"velocity":116,"programNumber":81},{"time":130072.91666666642,"duration":234.375,"noteNumber":80,"velocity":116,"programNumber":81},{"time":130328.12499999975,"duration":197.91666666667152,"noteNumber":80,"velocity":116,"programNumber":81},{"time":130578.12499999975,"duration":218.75,"noteNumber":82,"velocity":116,"programNumber":81},{"time":130822.91666666642,"duration":244.79166666667152,"noteNumber":77,"velocity":116,"programNumber":81},{"time":131078.12499999977,"duration":239.58333333334303,"noteNumber":77,"velocity":116,"programNumber":81},{"time":131322.91666666645,"duration":250,"noteNumber":79,"velocity":116,"programNumber":81},{"time":131572.91666666645,"duration":723.958333333343,"noteNumber":79,"velocity":116,"programNumber":81},{"time":132572.9166666665,"duration":223.95833333334303,"noteNumber":79,"velocity":116,"programNumber":81},{"time":132817.7083333332,"duration":270.83333333334303,"noteNumber":79,"velocity":116,"programNumber":81},{"time":133322.91666666654,"duration":489.58333333334303,"noteNumber":77,"velocity":116,"programNumber":81},{"time":133817.70833333323,"duration":213.54166666665697,"noteNumber":75,"velocity":116,"programNumber":81},{"time":134067.70833333323,"duration":119.79166666665697,"noteNumber":72,"velocity":116,"programNumber":81},{"time":134317.70833333323,"duration":98.95833333334303,"noteNumber":72,"velocity":116,"programNumber":81},{"time":134567.70833333326,"duration":395.83333333334303,"noteNumber":75,"velocity":116,"programNumber":81},{"time":135067.70833333326,"duration":520.833333333343,"noteNumber":72,"velocity":116,"programNumber":81},{"time":136312.49999999994,"duration":244.79166666674428,"noteNumber":79,"velocity":116,"programNumber":81},{"time":136567.70833333334,"duration":93.75,"noteNumber":79,"velocity":116,"programNumber":81},{"time":136812.5,"duration":473.95833333334303,"noteNumber":79,"velocity":116,"programNumber":81},{"time":137312.5,"duration":453.125,"noteNumber":77,"velocity":116,"programNumber":81},{"time":137812.5,"duration":1218.75,"noteNumber":79,"velocity":116,"programNumber":81},{"time":158536.4583333333,"duration":223.95833333337214,"noteNumber":79,"velocity":116,"programNumber":81},{"time":158776.0416666667,"duration":83.33333333334303,"noteNumber":79,"velocity":116,"programNumber":81},{"time":159026.0416666667,"duration":67.70833333334303,"noteNumber":79,"velocity":116,"programNumber":81},{"time":159276.0416666667,"duration":723.958333333343,"noteNumber":80,"velocity":116,"programNumber":81},{"time":160276.04166666672,"duration":244.79166666668607,"noteNumber":77,"velocity":116,"programNumber":81},{"time":160526.04166666674,"duration":328.125,"noteNumber":77,"velocity":116,"programNumber":81},{"time":161026.04166666674,"duration":244.79166666665697,"noteNumber":77,"velocity":116,"programNumber":81},{"time":161276.04166666674,"duration":244.79166666665697,"noteNumber":79,"velocity":116,"programNumber":81},{"time":161526.04166666674,"duration":677.083333333343,"noteNumber":79,"velocity":116,"programNumber":81},{"time":162515.62500000006,"duration":234.375,"noteNumber":79,"velocity":116,"programNumber":81},{"time":162765.62500000006,"duration":145.83333333334303,"noteNumber":79,"velocity":116,"programNumber":81},{"time":163265.62500000006,"duration":494.79166666665697,"noteNumber":77,"velocity":116,"programNumber":81},{"time":163765.62500000006,"duration":244.79166666665697,"noteNumber":75,"velocity":116,"programNumber":81},{"time":164015.62500000006,"duration":119.79166666665697,"noteNumber":72,"velocity":116,"programNumber":81},{"time":164265.62500000006,"duration":83.33333333334303,"noteNumber":72,"velocity":116,"programNumber":81},{"time":164515.6250000001,"duration":453.1250000000582,"noteNumber":75,"velocity":116,"programNumber":81},{"time":165015.62500000015,"duration":520.833333333343,"noteNumber":72,"velocity":116,"programNumber":81},{"time":166265.62500000017,"duration":234.3750000000291,"noteNumber":79,"velocity":116,"programNumber":81},{"time":166515.6250000002,"duration":109.375,"noteNumber":79,"velocity":116,"programNumber":81},{"time":166765.6250000002,"duration":473.95833333334303,"noteNumber":79,"velocity":116,"programNumber":81},{"time":167265.6250000002,"duration":598.958333333343,"noteNumber":80,"velocity":116,"programNumber":81},{"time":168015.62500000023,"duration":229.16666666668607,"noteNumber":80,"velocity":116,"programNumber":81},{"time":168265.62500000026,"duration":203.125,"noteNumber":80,"velocity":116,"programNumber":81},{"time":168515.62500000026,"duration":223.95833333334303,"noteNumber":82,"velocity":116,"programNumber":81},{"time":169010.41666666695,"duration":244.79166666665697,"noteNumber":77,"velocity":116,"programNumber":81},{"time":169260.41666666695,"duration":244.79166666665697,"noteNumber":79,"velocity":116,"programNumber":81},{"time":169510.41666666695,"duration":723.958333333343,"noteNumber":79,"velocity":116,"programNumber":81},{"time":170510.41666666698,"duration":229.16666666668607,"noteNumber":79,"velocity":116,"programNumber":81},{"time":170755.20833333366,"duration":270.83333333334303,"noteNumber":79,"velocity":116,"programNumber":81},{"time":171255.20833333366,"duration":494.79166666665697,"noteNumber":77,"velocity":116,"programNumber":81},{"time":171755.20833333366,"duration":218.75,"noteNumber":75,"velocity":116,"programNumber":81},{"time":172005.20833333366,"duration":114.58333333334303,"noteNumber":72,"velocity":116,"programNumber":81},{"time":172255.20833333366,"duration":83.33333333334303,"noteNumber":72,"velocity":116,"programNumber":81},{"time":172510.41666666704,"duration":447.91666666668607,"noteNumber":75,"velocity":116,"programNumber":81},{"time":173010.41666666706,"duration":515.625,"noteNumber":72,"velocity":116,"programNumber":81},{"time":174500.00000000038,"duration":234.375,"noteNumber":79,"velocity":116,"programNumber":81},{"time":174744.79166666704,"duration":88.54166666665697,"noteNumber":79,"velocity":116,"programNumber":81},{"time":174994.79166666704,"duration":72.91666666665697,"noteNumber":79,"velocity":116,"programNumber":81},{"time":175250.00000000035,"duration":723.958333333343,"noteNumber":80,"velocity":116,"programNumber":81},{"time":176244.79166666706,"duration":234.3750000000291,"noteNumber":77,"velocity":116,"programNumber":81},{"time":176494.7916666671,"duration":328.125,"noteNumber":77,"velocity":116,"programNumber":81},{"time":176994.7916666671,"duration":244.79166666665697,"noteNumber":77,"velocity":116,"programNumber":81},{"time":177244.7916666671,"duration":244.79166666665697,"noteNumber":79,"velocity":116,"programNumber":81},{"time":177494.7916666671,"duration":682.291666666657,"noteNumber":79,"velocity":116,"programNumber":81},{"time":178494.79166666712,"duration":234.375,"noteNumber":79,"velocity":116,"programNumber":81},{"time":178744.79166666712,"duration":494.79166666665697,"noteNumber":79,"velocity":116,"programNumber":81},{"time":179244.79166666712,"duration":489.58333333334303,"noteNumber":77,"velocity":116,"programNumber":81},{"time":179739.5833333338,"duration":244.79166666665697,"noteNumber":75,"velocity":116,"programNumber":81},{"time":179989.5833333338,"duration":119.79166666665697,"noteNumber":72,"velocity":116,"programNumber":81},{"time":180239.5833333338,"duration":78.125,"noteNumber":72,"velocity":116,"programNumber":81},{"time":180494.79166666715,"duration":447.91666666665697,"noteNumber":75,"velocity":116,"programNumber":81},{"time":180989.5833333338,"duration":526.041666666657,"noteNumber":72,"velocity":116,"programNumber":81},{"time":182234.3750000005,"duration":234.3750000000291,"noteNumber":79,"velocity":116,"programNumber":81},{"time":182484.37500000052,"duration":98.95833333334303,"noteNumber":79,"velocity":116,"programNumber":81},{"time":182734.37500000052,"duration":473.95833333334303,"noteNumber":79,"velocity":116,"programNumber":81},{"time":183239.58333333387,"duration":468.75,"noteNumber":80,"velocity":116,"programNumber":81},{"time":183984.37500000055,"duration":234.375,"noteNumber":80,"velocity":116,"programNumber":81},{"time":184234.37500000055,"duration":119.79166666665697,"noteNumber":80,"velocity":116,"programNumber":81},{"time":184489.58333333387,"duration":218.75,"noteNumber":82,"velocity":116,"programNumber":81},{"time":184734.37500000052,"duration":244.79166666665697,"noteNumber":77,"velocity":116,"programNumber":81},{"time":184989.58333333384,"duration":239.58333333334303,"noteNumber":77,"velocity":116,"programNumber":81},{"time":185234.37500000052,"duration":244.79166666665697,"noteNumber":79,"velocity":116,"programNumber":81},{"time":185489.58333333384,"duration":718.75,"noteNumber":79,"velocity":116,"programNumber":81},{"time":186479.1666666672,"duration":234.3749999999709,"noteNumber":79,"velocity":116,"programNumber":81},{"time":186723.95833333384,"duration":270.83333333334303,"noteNumber":79,"velocity":116,"programNumber":81},{"time":187229.16666666718,"duration":489.58333333334303,"noteNumber":77,"velocity":116,"programNumber":81},{"time":187723.95833333387,"duration":218.75,"noteNumber":75,"velocity":116,"programNumber":81},{"time":187973.95833333387,"duration":119.79166666665697,"noteNumber":72,"velocity":116,"programNumber":81},{"time":188223.95833333387,"duration":88.54166666665697,"noteNumber":72,"velocity":116,"programNumber":81},{"time":188484.37500000055,"duration":442.70833333334303,"noteNumber":75,"velocity":116,"programNumber":81},{"time":188979.16666666724,"duration":947.916666666657,"noteNumber":72,"velocity":116,"programNumber":81},{"time":190473.9583333339,"duration":234.375,"noteNumber":79,"velocity":116,"programNumber":81},{"time":190723.9583333339,"duration":494.79166666665697,"noteNumber":79,"velocity":116,"programNumber":81},{"time":191223.9583333339,"duration":494.79166666665697,"noteNumber":77,"velocity":116,"programNumber":81},{"time":191723.9583333339,"duration":244.79166666665697,"noteNumber":75,"velocity":116,"programNumber":81},{"time":191968.75000000055,"duration":1239.583333333343,"noteNumber":72,"velocity":116,"programNumber":81},{"time":194473.95833333393,"duration":223.95833333334303,"noteNumber":79,"velocity":116,"programNumber":81},{"time":194713.54166666727,"duration":494.79166666665697,"noteNumber":79,"velocity":116,"programNumber":81},{"time":195218.75000000058,"duration":489.58333333334303,"noteNumber":77,"velocity":116,"programNumber":81},{"time":195713.54166666727,"duration":244.79166666665697,"noteNumber":75,"velocity":116,"programNumber":81},{"time":195963.54166666727,"duration":1140.625,"noteNumber":72,"velocity":116,"programNumber":81},{"time":197463.5416666673,"duration":494.79166666668607,"noteNumber":75,"velocity":116,"programNumber":81},{"time":197963.54166666733,"duration":244.79166666665697,"noteNumber":72,"velocity":116,"programNumber":81},{"time":198468.75000000064,"duration":218.7499999999709,"noteNumber":79,"velocity":116,"programNumber":81},{"time":198713.54166666727,"duration":494.79166666665697,"noteNumber":79,"velocity":116,"programNumber":81},{"time":199213.54166666727,"duration":484.375,"noteNumber":77,"velocity":116,"programNumber":81},{"time":199708.33333333393,"duration":239.58333333334303,"noteNumber":75,"velocity":116,"programNumber":81},{"time":199958.33333333393,"duration":1119.791666666657,"noteNumber":72,"velocity":116,"programNumber":81},{"time":201453.1250000006,"duration":494.7916666667152,"noteNumber":75,"velocity":116,"programNumber":81},{"time":201958.33333333398,"duration":239.58333333334303,"noteNumber":72,"velocity":116,"programNumber":81},{"time":202463.54166666736,"duration":223.95833333337214,"noteNumber":79,"velocity":116,"programNumber":81},{"time":202703.12500000073,"duration":494.79166666665697,"noteNumber":79,"velocity":116,"programNumber":81},{"time":203203.12500000073,"duration":494.79166666665697,"noteNumber":77,"velocity":116,"programNumber":81},{"time":203703.12500000073,"duration":1218.75,"noteNumber":79,"velocity":116,"programNumber":81},{"time":205197.9166666674,"duration":234.3750000000291,"noteNumber":72,"velocity":116,"programNumber":81},{"time":205453.1250000008,"duration":364.58333333334303,"noteNumber":75,"velocity":116,"programNumber":81},{"time":205947.91666666747,"duration":994.791666666657,"noteNumber":72,"velocity":116,"programNumber":81}]]}