{"tracks":[[{"time":3812.5,"duration":713.541666666667,"noteNumber":77,"velocity":109,"programNumber":84},{"time":4531.25,"duration":713.5416666666661,"noteNumber":77,"velocity":109,"programNumber":84},{"time":5249.999999999999,"duration":276.04166666666697,"noteNumber":77,"velocity":109,"programNumber":84},{"time":5531.249999999999,"duration":218.75,"noteNumber":75,"velocity":109,"programNumber":84},{"time":5755.208333333332,"duration":515.6249999999991,"noteNumber":77,"velocity":109,"programNumber":84},{"time":6281.249999999998,"duration":479.16666666666697,"noteNumber":75,"velocity":109,"programNumber":84},{"time":6765.624999999998,"duration":526.0416666666661,"noteNumber":72,"velocity":109,"programNumber":84},{"time":7296.874999999997,"duration":239.58333333333303,"noteNumber":70,"velocity":109,"programNumber":84},{"time":7536.45833333333,"duration":250,"noteNumber":72,"velocity":109,"programNumber":84},{"time":7786.45833333333,"duration":697.9166666666661,"noteNumber":77,"velocity":109,"programNumber":84},{"time":8489.58333333333,"duration":776.0416666666661,"noteNumber":77,"velocity":109,"programNumber":84},{"time":9270.83333333333,"duration":223.95833333333394,"noteNumber":77,"velocity":109,"programNumber":84},{"time":9499.999999999998,"duration":250,"noteNumber":75,"velocity":109,"programNumber":84},{"time":9755.208333333332,"duration":380.20833333333576,"noteNumber":77,"velocity":109,"programNumber":84},{"time":10140.625000000002,"duration":109.375,"noteNumber":75,"velocity":109,"programNumber":84},{"time":10260.416666666668,"duration":1510.416666666666,"noteNumber":72,"velocity":109,"programNumber":84},{"time":11781.25,"duration":739.5833333333358,"noteNumber":77,"velocity":109,"programNumber":84},{"time":12526.04166666667,"duration":718.7499999999982,"noteNumber":77,"velocity":109,"programNumber":84},{"time":13250.000000000002,"duration":255.20833333333394,"noteNumber":77,"velocity":109,"programNumber":84},{"time":13510.41666666667,"duration":244.79166666666606,"noteNumber":75,"velocity":109,"programNumber":84},{"time":13760.41666666667,"duration":500.0000000000018,"noteNumber":77,"velocity":109,"programNumber":84},{"time":14265.625000000005,"duration":494.79166666666606,"noteNumber":75,"velocity":109,"programNumber":84},{"time":14760.416666666672,"duration":515.6250000000018,"noteNumber":72,"velocity":109,"programNumber":84},{"time":15286.45833333334,"duration":223.95833333333394,"noteNumber":70,"velocity":109,"programNumber":84},{"time":15520.83333333334,"duration":250,"noteNumber":72,"velocity":109,"programNumber":84},{"time":15776.041666666673,"duration":734.3750000000018,"noteNumber":77,"velocity":109,"programNumber":84},{"time":16536.458333333343,"duration":3005.2083333333067,"noteNumber":77,"velocity":122,"programNumber":84},{"time":25749.99999999998,"duration":1828.124999999989,"noteNumber":63,"velocity":115,"programNumber":84},{"time":25744.79166666665,"duration":1833.3333333333212,"noteNumber":58,"velocity":115,"programNumber":84},{"time":27494.79166666664,"duration":244.79166666666424,"noteNumber":67,"velocity":116,"programNumber":84},{"time":27744.791666666635,"duration":239.58333333333212,"noteNumber":70,"velocity":116,"programNumber":84},{"time":27989.5833333333,"duration":166.66666666666788,"noteNumber":72,"velocity":116,"programNumber":84},{"time":28489.5833333333,"duration":937.5,"noteNumber":72,"velocity":116,"programNumber":84},{"time":29489.5833333333,"duration":239.58333333333212,"noteNumber":67,"velocity":116,"programNumber":84},{"time":29744.79166666663,"duration":489.5833333333321,"noteNumber":70,"velocity":116,"programNumber":84},{"time":30244.79166666663,"duration":135.41666666666788,"noteNumber":72,"velocity":116,"programNumber":84},{"time":30739.583333333292,"duration":744.7916666666642,"noteNumber":75,"velocity":116,"programNumber":84},{"time":31489.58333333329,"duration":119.79166666666788,"noteNumber":72,"velocity":116,"programNumber":84},{"time":31739.58333333329,"duration":244.79166666666788,"noteNumber":75,"velocity":116,"programNumber":84},{"time":32067.70833333329,"duration":192.70833333333212,"noteNumber":75,"velocity":116,"programNumber":84},{"time":32401.04166666662,"duration":244.79166666666788,"noteNumber":75,"velocity":116,"programNumber":84},{"time":32734.374999999953,"duration":307.2916666666606,"noteNumber":75,"velocity":116,"programNumber":84},{"time":33062.49999999995,"duration":166.66666666666424,"noteNumber":72,"velocity":116,"programNumber":84},{"time":33401.04166666661,"duration":140.625,"noteNumber":72,"velocity":116,"programNumber":84},{"time":33739.58333333329,"duration":286.4583333333285,"noteNumber":75,"velocity":116,"programNumber":84},{"time":34062.499999999956,"duration":171.875,"noteNumber":74,"velocity":116,"programNumber":84},{"time":34401.04166666662,"duration":145.83333333333576,"noteNumber":72,"velocity":116,"programNumber":84},{"time":34729.16666666662,"duration":583.3333333333358,"noteNumber":72,"velocity":116,"programNumber":84},{"time":35729.16666666663,"duration":244.79166666667152,"noteNumber":70,"velocity":116,"programNumber":84},{"time":35979.166666666635,"duration":78.125,"noteNumber":72,"velocity":116,"programNumber":84},{"time":36229.166666666635,"duration":78.125,"noteNumber":70,"velocity":116,"programNumber":84},{"time":36479.166666666635,"duration":619.7916666666642,"noteNumber":72,"velocity":116,"programNumber":84},{"time":37479.166666666635,"duration":78.125,"noteNumber":67,"velocity":116,"programNumber":84},{"time":37604.166666666635,"duration":119.79166666666424,"noteNumber":67,"velocity":116,"programNumber":84},{"time":37729.166666666635,"duration":494.79166666666424,"noteNumber":70,"velocity":116,"programNumber":84},{"time":38223.9583333333,"duration":208.33333333333576,"noteNumber":72,"velocity":116,"programNumber":84},{"time":38729.166666666635,"duration":619.7916666666642,"noteNumber":75,"velocity":116,"programNumber":84},{"time":39468.74999999996,"duration":83.33333333333576,"noteNumber":72,"velocity":116,"programNumber":84},{"time":39723.9583333333,"duration":187.5,"noteNumber":75,"velocity":116,"programNumber":84},{"time":40052.0833333333,"duration":177.08333333333576,"noteNumber":75,"velocity":116,"programNumber":84},{"time":40385.416666666635,"duration":145.83333333333576,"noteNumber":75,"velocity":116,"programNumber":84},{"time":40723.958333333314,"duration":286.45833333334303,"noteNumber":75,"velocity":116,"programNumber":84},{"time":41052.08333333332,"duration":151.04166666666424,"noteNumber":72,"velocity":116,"programNumber":84},{"time":41385.41666666665,"duration":104.16666666666424,"noteNumber":72,"velocity":116,"programNumber":84},{"time":41723.958333333314,"duration":322.9166666666715,"noteNumber":75,"velocity":116,"programNumber":84},{"time":42052.08333333332,"duration":140.625,"noteNumber":74,"velocity":116,"programNumber":84},{"time":42385.41666666666,"duration":140.625,"noteNumber":72,"velocity":116,"programNumber":84},{"time":42718.74999999999,"duration":494.79166666666424,"noteNumber":72,"velocity":116,"programNumber":84},{"time":43723.95833333334,"duration":489.5833333333503,"noteNumber":77,"velocity":116,"programNumber":84},{"time":44218.75000000003,"duration":244.79166666666424,"noteNumber":75,"velocity":116,"programNumber":84},{"time":44468.75000000003,"duration":739.5833333333358,"noteNumber":72,"velocity":116,"programNumber":84},{"time":45218.75000000003,"duration":72.91666666666424,"noteNumber":72,"velocity":116,"programNumber":84},{"time":45463.54166666669,"duration":98.95833333333576,"noteNumber":72,"velocity":116,"programNumber":84},{"time":45708.333333333365,"duration":494.79166666666424,"noteNumber":77,"velocity":116,"programNumber":84},{"time":46213.54166666669,"duration":239.58333333333576,"noteNumber":79,"velocity":116,"programNumber":84},{"time":43718.75000000001,"duration":3479.166666666686,"noteNumber":53,"velocity":109,"programNumber":84},{"time":43718.75000000001,"duration":3505.2083333333503,"noteNumber":65,"velocity":109,"programNumber":84},{"time":43718.75000000001,"duration":3520.8333333333503,"noteNumber":60,"velocity":109,"programNumber":84},{"time":46458.333333333365,"duration":1255.2083333333285,"noteNumber":75,"velocity":116,"programNumber":84},{"time":47958.33333333336,"duration":36.45833333333576,"noteNumber":58,"velocity":109,"programNumber":84},{"time":47958.33333333336,"duration":36.45833333333576,"noteNumber":63,"velocity":109,"programNumber":84},{"time":48083.33333333336,"duration":36.45833333333576,"noteNumber":58,"velocity":109,"programNumber":84},{"time":48083.33333333336,"duration":36.45833333333576,"noteNumber":63,"velocity":109,"programNumber":84},{"time":48208.33333333336,"duration":484.375,"noteNumber":63,"velocity":109,"programNumber":84},{"time":48208.33333333336,"duration":489.58333333333576,"noteNumber":58,"velocity":109,"programNumber":84},{"time":48708.33333333336,"duration":36.45833333333576,"noteNumber":58,"velocity":109,"programNumber":84},{"time":48713.54166666669,"duration":31.25,"noteNumber":63,"velocity":109,"programNumber":84},{"time":48958.33333333336,"duration":2369.791666666686,"noteNumber":58,"velocity":109,"programNumber":84},{"time":48958.33333333336,"duration":2369.791666666686,"noteNumber":63,"velocity":109,"programNumber":84},{"time":51708.33333333337,"duration":739.5833333333285,"noteNumber":77,"velocity":116,"programNumber":84},{"time":52453.12500000004,"duration":239.58333333333576,"noteNumber":75,"velocity":116,"programNumber":84},{"time":52697.91666666671,"duration":500,"noteNumber":72,"velocity":116,"programNumber":84},{"time":53453.125000000044,"duration":223.95833333334303,"noteNumber":72,"velocity":116,"programNumber":84},{"time":51708.33333333337,"duration":2218.7500000000146,"noteNumber":65,"velocity":109,"programNumber":84},{"time":51708.33333333337,"duration":2218.7500000000146,"noteNumber":70,"velocity":109,"programNumber":84},{"time":51703.12500000004,"duration":2223.9583333333503,"noteNumber":58,"velocity":109,"programNumber":84},{"time":53697.91666666672,"duration":286.45833333333576,"noteNumber":77,"velocity":116,"programNumber":84},{"time":53947.91666666672,"duration":244.79166666667152,"noteNumber":65,"velocity":127,"programNumber":84},{"time":54031.25000000006,"duration":166.66666666667152,"noteNumber":77,"velocity":116,"programNumber":84},{"time":54197.91666666673,"duration":244.79166666666424,"noteNumber":70,"velocity":127,"programNumber":84},{"time":54364.583333333394,"duration":145.83333333333576,"noteNumber":75,"velocity":116,"programNumber":84},{"time":54703.125000000065,"duration":739.5833333333358,"noteNumber":77,"velocity":116,"programNumber":84},{"time":54447.91666666673,"duration":1223.9583333333358,"noteNumber":74,"velocity":127,"programNumber":84},{"time":55697.91666666673,"duration":244.79166666667152,"noteNumber":53,"velocity":127,"programNumber":84},{"time":55703.125000000065,"duration":281.2500000000073,"noteNumber":77,"velocity":116,"programNumber":84},{"time":55947.91666666674,"duration":244.79166666667152,"noteNumber":60,"velocity":127,"programNumber":84},{"time":56031.25000000007,"duration":322.9166666666715,"noteNumber":77,"velocity":116,"programNumber":84},{"time":56197.916666666744,"duration":244.79166666667152,"noteNumber":65,"velocity":127,"programNumber":84},{"time":56359.37500000008,"duration":333.33333333333576,"noteNumber":77,"velocity":116,"programNumber":84},{"time":56697.91666666675,"duration":156.25,"noteNumber":75,"velocity":116,"programNumber":84},{"time":56447.91666666675,"duration":739.5833333333358,"noteNumber":69,"velocity":127,"programNumber":84},{"time":57026.04166666675,"duration":328.12500000001455,"noteNumber":75,"velocity":116,"programNumber":84},{"time":57197.91666666676,"duration":244.79166666667152,"noteNumber":70,"velocity":127,"programNumber":84},{"time":57359.3750000001,"duration":119.79166666666424,"noteNumber":77,"velocity":116,"programNumber":84},{"time":57697.91666666678,"duration":234.375,"noteNumber":55,"velocity":127,"programNumber":84},{"time":57692.708333333445,"duration":286.45833333333576,"noteNumber":79,"velocity":116,"programNumber":84},{"time":58026.04166666678,"duration":140.625,"noteNumber":79,"velocity":116,"programNumber":84},{"time":57937.50000000012,"duration":244.79166666666424,"noteNumber":62,"velocity":127,"programNumber":84},{"time":58187.50000000012,"duration":250,"noteNumber":67,"velocity":127,"programNumber":84},{"time":58359.37500000012,"duration":161.45833333333576,"noteNumber":79,"velocity":116,"programNumber":84},{"time":58692.70833333345,"duration":619.7916666666715,"noteNumber":79,"velocity":116,"programNumber":84},{"time":58447.91666666678,"duration":1197.9166666666788,"noteNumber":71,"velocity":127,"programNumber":84},{"time":59697.916666666795,"duration":218.75000000001455,"noteNumber":79,"velocity":116,"programNumber":84},{"time":59937.500000000146,"duration":83.33333333333576,"noteNumber":79,"velocity":116,"programNumber":84},{"time":60187.500000000146,"duration":72.91666666666424,"noteNumber":79,"velocity":116,"programNumber":84},{"time":60442.708333333474,"duration":848.9583333333358,"noteNumber":80,"velocity":116,"programNumber":84},{"time":61437.500000000146,"duration":78.125,"noteNumber":77,"velocity":116,"programNumber":84},{"time":61687.500000000146,"duration":328.125,"noteNumber":77,"velocity":116,"programNumber":84},{"time":62187.500000000146,"duration":244.79166666666424,"noteNumber":77,"velocity":116,"programNumber":84},{"time":62437.500000000146,"duration":244.79166666666424,"noteNumber":79,"velocity":116,"programNumber":84},{"time":62687.500000000146,"duration":807.2916666666642,"noteNumber":79,"velocity":116,"programNumber":84},{"time":63682.291666666824,"duration":250,"noteNumber":79,"velocity":116,"programNumber":84},{"time":63932.291666666824,"duration":473.95833333333576,"noteNumber":79,"velocity":116,"programNumber":84},{"time":64437.50000000016,"duration":484.375,"noteNumber":77,"velocity":116,"programNumber":84},{"time":64927.083333333496,"duration":244.79166666666424,"noteNumber":75,"velocity":116,"programNumber":84},{"time":65177.083333333496,"duration":119.79166666666424,"noteNumber":72,"velocity":116,"programNumber":84},{"time":65427.083333333496,"duration":52.08333333333576,"noteNumber":72,"velocity":116,"programNumber":84},{"time":65682.29166666683,"duration":395.8333333333285,"noteNumber":75,"velocity":116,"programNumber":84},{"time":66187.50000000016,"duration":906.25,"noteNumber":72,"velocity":116,"programNumber":84},{"time":67427.08333333349,"duration":239.58333333331393,"noteNumber":79,"velocity":116,"programNumber":84},{"time":67682.2916666668,"duration":78.125,"noteNumber":79,"velocity":116,"programNumber":84},{"time":67927.08333333347,"duration":473.9583333333285,"noteNumber":79,"velocity":116,"programNumber":84},{"time":68427.08333333347,"duration":718.75,"noteNumber":80,"velocity":116,"programNumber":84},{"time":69177.08333333347,"duration":93.75,"noteNumber":80,"velocity":116,"programNumber":84},{"time":69427.08333333347,"duration":93.75,"noteNumber":80,"velocity":116,"programNumber":84},{"time":69677.08333333347,"duration":218.75,"noteNumber":82,"velocity":116,"programNumber":84},{"time":69921.87500000015,"duration":244.79166666667152,"noteNumber":77,"velocity":116,"programNumber":84},{"time":70177.08333333349,"duration":239.58333333332848,"noteNumber":77,"velocity":116,"programNumber":84},{"time":70421.87500000015,"duration":244.79166666667152,"noteNumber":79,"velocity":116,"programNumber":84},{"time":70677.08333333349,"duration":718.75,"noteNumber":79,"velocity":116,"programNumber":84},{"time":71671.87500000013,"duration":223.95833333329938,"noteNumber":79,"velocity":116,"programNumber":84},{"time":71916.66666666676,"duration":270.8333333333285,"noteNumber":79,"velocity":116,"programNumber":84},{"time":72421.87500000009,"duration":489.5833333333285,"noteNumber":77,"velocity":116,"programNumber":84},{"time":72916.66666666674,"duration":218.75,"noteNumber":75,"velocity":116,"programNumber":84},{"time":73161.45833333342,"duration":125,"noteNumber":72,"velocity":116,"programNumber":84},{"time":73416.66666666674,"duration":104.16666666667152,"noteNumber":72,"velocity":116,"programNumber":84},{"time":73666.66666666674,"duration":244.79166666667152,"noteNumber":75,"velocity":116,"programNumber":84},{"time":74171.87500000009,"duration":593.75,"noteNumber":72,"velocity":116,"programNumber":84},{"time":75411.45833333342,"duration":244.79166666665697,"noteNumber":79,"velocity":116,"programNumber":84},{"time":75666.66666666674,"duration":78.125,"noteNumber":79,"velocity":116,"programNumber":84},{"time":75911.4583333334,"duration":473.95833333331393,"noteNumber":79,"velocity":116,"programNumber":84},{"time":75677.08333333342,"duration":729.1666666666279,"noteNumber":77,"velocity":109,"programNumber":84},{"time":76411.45833333337,"duration":453.125,"noteNumber":77,"velocity":109,"programNumber":84},{"time":76911.45833333337,"duration":1723.9583333333721,"noteNumber":79,"velocity":116,"programNumber":84},{"time":79411.45833333339,"duration":229.16666666667152,"noteNumber":72,"velocity":116,"programNumber":84},{"time":79656.25000000006,"duration":229.16666666667152,"noteNumber":75,"velocity":116,"programNumber":84},{"time":80151.04166666673,"duration":1062.5,"noteNumber":72,"velocity":116,"programNumber":84},{"time":88390.62500000001,"duration":244.79166666667152,"noteNumber":67,"velocity":116,"programNumber":84},{"time":86651.04166666673,"duration":2015.6249999999563,"noteNumber":63,"velocity":115,"programNumber":84},{"time":86640.62500000006,"duration":2031.2499999999563,"noteNumber":58,"velocity":115,"programNumber":84},{"time":88645.83333333336,"duration":239.58333333332848,"noteNumber":70,"velocity":116,"programNumber":84},{"time":88890.62500000001,"duration":161.45833333332848,"noteNumber":72,"velocity":116,"programNumber":84},{"time":89390.62500000001,"duration":812.5,"noteNumber":72,"velocity":116,"programNumber":84},{"time":90390.625,"duration":239.58333333329938,"noteNumber":67,"velocity":116,"programNumber":84},{"time":90640.62499999997,"duration":494.7916666666715,"noteNumber":70,"velocity":116,"programNumber":84},{"time":91140.62499999997,"duration":223.95833333332848,"noteNumber":72,"velocity":116,"programNumber":84},{"time":91640.62499999997,"duration":734.375,"noteNumber":75,"velocity":116,"programNumber":84},{"time":92640.62499999996,"duration":234.375,"noteNumber":75,"velocity":116,"programNumber":84},{"time":92880.20833333328,"duration":125,"noteNumber":75,"velocity":116,"programNumber":84},{"time":93380.20833333328,"duration":729.1666666666715,"noteNumber":75,"velocity":116,"programNumber":84},{"time":94135.41666666663,"duration":119.79166666667152,"noteNumber":72,"velocity":116,"programNumber":84},{"time":94380.2083333333,"duration":104.16666666667152,"noteNumber":72,"velocity":116,"programNumber":84},{"time":94640.62499999996,"duration":234.375,"noteNumber":75,"velocity":116,"programNumber":84},{"time":94880.20833333328,"duration":223.95833333332848,"noteNumber":74,"velocity":116,"programNumber":84},{"time":95130.20833333328,"duration":98.95833333332848,"noteNumber":72,"velocity":116,"programNumber":84},{"time":95380.20833333328,"duration":640.625,"noteNumber":72,"velocity":116,"programNumber":84},{"time":96635.41666666657,"duration":166.66666666665697,"noteNumber":70,"velocity":116,"programNumber":84},{"time":96880.20833333323,"duration":223.95833333332848,"noteNumber":72,"velocity":116,"programNumber":84},{"time":97380.20833333323,"duration":614.5833333333285,"noteNumber":72,"velocity":116,"programNumber":84},{"time":98380.20833333323,"duration":72.91666666667152,"noteNumber":67,"velocity":116,"programNumber":84},{"time":98630.20833333323,"duration":484.37499999998545,"noteNumber":70,"velocity":116,"programNumber":84},{"time":99124.99999999988,"duration":223.95833333332848,"noteNumber":72,"velocity":116,"programNumber":84},{"time":99624.99999999988,"duration":619.7916666666715,"noteNumber":75,"velocity":116,"programNumber":84},{"time":100369.79166666656,"duration":234.375,"noteNumber":72,"velocity":116,"programNumber":84},{"time":100619.79166666656,"duration":192.70833333332848,"noteNumber":75,"velocity":116,"programNumber":84},{"time":100953.12499999988,"duration":177.08333333332848,"noteNumber":75,"velocity":116,"programNumber":84},{"time":101286.45833333321,"duration":145.83333333332848,"noteNumber":75,"velocity":116,"programNumber":84},{"time":101619.79166666654,"duration":307.29166666665697,"noteNumber":75,"velocity":116,"programNumber":84},{"time":101953.12499999987,"duration":145.83333333332848,"noteNumber":72,"velocity":116,"programNumber":84},{"time":102286.4583333332,"duration":119.79166666667152,"noteNumber":72,"velocity":116,"programNumber":84},{"time":102619.79166666654,"duration":328.1249999999709,"noteNumber":75,"velocity":116,"programNumber":84},{"time":102953.12499999984,"duration":161.45833333332848,"noteNumber":74,"velocity":116,"programNumber":84},{"time":103286.45833333317,"duration":140.625,"noteNumber":72,"velocity":116,"programNumber":84},{"time":103619.7916666665,"duration":489.5833333333285,"noteNumber":72,"velocity":116,"programNumber":84},{"time":104619.79166666647,"duration":484.37499999998545,"noteNumber":77,"velocity":116,"programNumber":84},{"time":105109.37499999978,"duration":244.79166666667152,"noteNumber":75,"velocity":116,"programNumber":84},{"time":105364.58333333312,"duration":739.5833333333285,"noteNumber":72,"velocity":116,"programNumber":84},{"time":106114.58333333312,"duration":119.79166666667152,"noteNumber":72,"velocity":116,"programNumber":84},{"time":106359.3749999998,"duration":104.16666666667152,"noteNumber":72,"velocity":116,"programNumber":84},{"time":106609.3749999998,"duration":494.79166666662786,"noteNumber":77,"velocity":116,"programNumber":84},{"time":107109.37499999975,"duration":244.79166666665697,"noteNumber":79,"velocity":116,"programNumber":84},{"time":104619.79166666647,"duration":3473.958333333285,"noteNumber":53,"velocity":109,"programNumber":84},{"time":104619.79166666647,"duration":3505.208333333285,"noteNumber":65,"velocity":109,"programNumber":84},{"time":104619.79166666647,"duration":3520.833333333285,"noteNumber":60,"velocity":109,"programNumber":84},{"time":107359.37499999974,"duration":1250,"noteNumber":75,"velocity":116,"programNumber":84},{"time":108859.37499999974,"duration":36.45833333332848,"noteNumber":58,"velocity":109,"programNumber":84},{"time":108859.37499999974,"duration":36.45833333332848,"noteNumber":63,"velocity":109,"programNumber":84},{"time":108984.37499999974,"duration":36.45833333332848,"noteNumber":58,"velocity":109,"programNumber":84},{"time":108984.37499999974,"duration":36.45833333332848,"noteNumber":63,"velocity":109,"programNumber":84},{"time":109109.37499999974,"duration":484.375,"noteNumber":63,"velocity":109,"programNumber":84},{"time":109109.37499999974,"duration":489.5833333333285,"noteNumber":58,"velocity":109,"programNumber":84},{"time":109609.37499999974,"duration":36.45833333332848,"noteNumber":58,"velocity":109,"programNumber":84},{"time":109609.37499999974,"duration":36.45833333332848,"noteNumber":63,"velocity":109,"programNumber":84},{"time":109859.37499999972,"duration":2364.583333333285,"noteNumber":63,"velocity":109,"programNumber":84},{"time":109854.1666666664,"duration":2374.999999999942,"noteNumber":58,"velocity":109,"programNumber":84},{"time":112609.37499999964,"duration":734.375,"noteNumber":77,"velocity":116,"programNumber":84},{"time":113354.16666666631,"duration":239.58333333332848,"noteNumber":75,"velocity":116,"programNumber":84},{"time":113598.95833333296,"duration":494.7916666666715,"noteNumber":72,"velocity":116,"programNumber":84},{"time":114354.16666666628,"duration":223.95833333331393,"noteNumber":72,"velocity":116,"programNumber":84},{"time":114598.95833333292,"duration":140.625,"noteNumber":77,"velocity":116,"programNumber":84},{"time":112609.37499999964,"duration":2218.7499999999563,"noteNumber":65,"velocity":109,"programNumber":84},{"time":112609.37499999964,"duration":2218.7499999999563,"noteNumber":70,"velocity":109,"programNumber":84},{"time":112604.16666666631,"duration":2223.958333333285,"noteNumber":58,"velocity":109,"programNumber":84},{"time":114848.95833333292,"duration":161.45833333332848,"noteNumber":77,"velocity":116,"programNumber":84},{"time":114848.95833333292,"duration":244.79166666665697,"noteNumber":53,"velocity":127,"programNumber":84},{"time":115098.9583333329,"duration":197.91666666667152,"noteNumber":75,"velocity":116,"programNumber":84},{"time":115098.9583333329,"duration":244.79166666667152,"noteNumber":58,"velocity":127,"programNumber":84},{"time":115348.9583333329,"duration":739.583333333343,"noteNumber":77,"velocity":116,"programNumber":84},{"time":115348.9583333329,"duration":1223.9583333333576,"noteNumber":62,"velocity":127,"programNumber":84},{"time":116593.74999999959,"duration":119.79166666665697,"noteNumber":77,"velocity":116,"programNumber":84},{"time":116598.95833333292,"duration":244.79166666665697,"noteNumber":53,"velocity":127,"programNumber":84},{"time":116848.9583333329,"duration":239.58333333332848,"noteNumber":60,"velocity":123,"programNumber":84},{"time":116927.0833333329,"duration":333.3333333333285,"noteNumber":77,"velocity":116,"programNumber":84},{"time":117093.74999999956,"duration":244.79166666667152,"noteNumber":65,"velocity":127,"programNumber":84},{"time":117260.41666666623,"duration":328.125,"noteNumber":77,"velocity":116,"programNumber":84},{"time":117593.74999999956,"duration":114.58333333332848,"noteNumber":75,"velocity":116,"programNumber":84},{"time":117343.74999999956,"duration":744.791666666657,"noteNumber":69,"velocity":127,"programNumber":84},{"time":117927.08333333289,"duration":328.12499999998545,"noteNumber":75,"velocity":116,"programNumber":84},{"time":118093.74999999955,"duration":249.9999999999709,"noteNumber":70,"velocity":127,"programNumber":84},{"time":118260.4166666662,"duration":119.79166666664241,"noteNumber":77,"velocity":116,"programNumber":84},{"time":118598.95833333283,"duration":234.37499999998545,"noteNumber":55,"velocity":127,"programNumber":84},{"time":118593.7499999995,"duration":286.45833333331393,"noteNumber":79,"velocity":116,"programNumber":84},{"time":118927.08333333282,"duration":140.625,"noteNumber":79,"velocity":116,"programNumber":84},{"time":118843.74999999949,"duration":239.58333333332848,"noteNumber":62,"velocity":127,"programNumber":84},{"time":119088.54166666615,"duration":244.79166666667152,"noteNumber":67,"velocity":127,"programNumber":84},{"time":119255.20833333282,"duration":166.66666666667152,"noteNumber":79,"velocity":116,"programNumber":84},{"time":119588.54166666616,"duration":625,"noteNumber":79,"velocity":116,"programNumber":84},{"time":119343.74999999949,"duration":1203.125,"noteNumber":71,"velocity":127,"programNumber":84},{"time":120588.54166666616,"duration":234.37499999998545,"noteNumber":79,"velocity":116,"programNumber":84},{"time":120838.54166666615,"duration":83.33333333332848,"noteNumber":79,"velocity":116,"programNumber":84},{"time":121088.54166666615,"duration":72.91666666667152,"noteNumber":79,"velocity":116,"programNumber":84},{"time":121343.74999999949,"duration":838.5416666666715,"noteNumber":80,"velocity":116,"programNumber":84},{"time":122338.54166666618,"duration":234.375,"noteNumber":77,"velocity":116,"programNumber":84},{"time":122583.33333333285,"duration":244.79166666667152,"noteNumber":77,"velocity":116,"programNumber":84},{"time":123088.54166666619,"duration":239.58333333332848,"noteNumber":77,"velocity":116,"programNumber":84},{"time":123333.33333333285,"duration":244.79166666667152,"noteNumber":79,"velocity":116,"programNumber":84},{"time":123588.54166666619,"duration":739.5833333333285,"noteNumber":79,"velocity":116,"programNumber":84},{"time":124583.33333333285,"duration":223.95833333332848,"noteNumber":79,"velocity":116,"programNumber":84},{"time":124828.1249999995,"duration":479.1666666666715,"noteNumber":79,"velocity":116,"programNumber":84},{"time":125338.54166666618,"duration":484.375,"noteNumber":77,"velocity":116,"programNumber":84},{"time":125828.1249999995,"duration":244.79166666667152,"noteNumber":75,"velocity":116,"programNumber":84},{"time":126078.1249999995,"duration":119.79166666667152,"noteNumber":72,"velocity":116,"programNumber":84},{"time":126328.1249999995,"duration":52.08333333332848,"noteNumber":72,"velocity":116,"programNumber":84},{"time":126583.33333333283,"duration":395.83333333334303,"noteNumber":75,"velocity":116,"programNumber":84},{"time":127083.33333333285,"duration":515.625,"noteNumber":72,"velocity":116,"programNumber":84},{"time":128322.91666666619,"duration":239.58333333331393,"noteNumber":79,"velocity":116,"programNumber":84},{"time":128572.91666666618,"duration":98.95833333332848,"noteNumber":79,"velocity":116,"programNumber":84},{"time":128822.91666666618,"duration":473.9583333333285,"noteNumber":79,"velocity":116,"programNumber":84},{"time":129328.1249999995,"duration":593.75,"noteNumber":80,"velocity":116,"programNumber":84},{"time":130072.91666666618,"duration":234.375,"noteNumber":80,"velocity":116,"programNumber":84},{"time":130328.1249999995,"duration":197.91666666667152,"noteNumber":80,"velocity":116,"programNumber":84},{"time":130578.1249999995,"duration":218.75,"noteNumber":82,"velocity":116,"programNumber":84},{"time":130822.91666666618,"duration":244.79166666667152,"noteNumber":77,"velocity":116,"programNumber":84},{"time":131078.1249999995,"duration":239.58333333334303,"noteNumber":77,"velocity":116,"programNumber":84},{"time":131322.9166666662,"duration":250,"noteNumber":79,"velocity":116,"programNumber":84},{"time":131572.9166666662,"duration":723.958333333343,"noteNumber":79,"velocity":116,"programNumber":84},{"time":132572.91666666625,"duration":223.95833333334303,"noteNumber":79,"velocity":116,"programNumber":84},{"time":132817.70833333294,"duration":270.83333333334303,"noteNumber":79,"velocity":116,"programNumber":84},{"time":133322.91666666628,"duration":489.58333333334303,"noteNumber":77,"velocity":116,"programNumber":84},{"time":133817.70833333296,"duration":213.54166666665697,"noteNumber":75,"velocity":116,"programNumber":84},{"time":134067.70833333296,"duration":119.79166666665697,"noteNumber":72,"velocity":116,"programNumber":84},{"time":134317.70833333296,"duration":98.95833333334303,"noteNumber":72,"velocity":116,"programNumber":84},{"time":134567.708333333,"duration":395.83333333334303,"noteNumber":75,"velocity":116,"programNumber":84},{"time":135067.708333333,"duration":520.833333333343,"noteNumber":72,"velocity":116,"programNumber":84},{"time":136312.49999999968,"duration":244.79166666674428,"noteNumber":79,"velocity":116,"programNumber":84},{"time":136567.70833333308,"duration":93.75,"noteNumber":79,"velocity":116,"programNumber":84},{"time":136812.49999999974,"duration":473.95833333334303,"noteNumber":79,"velocity":116,"programNumber":84},{"time":137312.49999999974,"duration":453.125,"noteNumber":77,"velocity":116,"programNumber":84},{"time":137812.49999999974,"duration":1218.75,"noteNumber":79,"velocity":116,"programNumber":84},{"time":140307.29166666642,"duration":2734.374999999971,"noteNumber":79,"velocity":127,"programNumber":84},{"time":143052.08333333308,"duration":244.79166666674428,"noteNumber":72,"velocity":127,"programNumber":84},{"time":143302.08333333317,"duration":1244.791666666657,"noteNumber":75,"velocity":127,"programNumber":84},{"time":144552.08333333317,"duration":406.25,"noteNumber":72,"velocity":127,"programNumber":84},{"time":145052.08333333317,"duration":244.79166666665697,"noteNumber":74,"velocity":127,"programNumber":84},{"time":145302.08333333317,"duration":244.79166666665697,"noteNumber":75,"velocity":125,"programNumber":84},{"time":145552.08333333317,"duration":458.33333333334303,"noteNumber":75,"velocity":127,"programNumber":84},{"time":146052.0833333332,"duration":447.91666666668607,"noteNumber":77,"velocity":127,"programNumber":84},{"time":146552.08333333323,"duration":109.375,"noteNumber":79,"velocity":127,"programNumber":84},{"time":146666.66666666657,"duration":322.91666666665697,"noteNumber":82,"velocity":127,"programNumber":84},{"time":147052.08333333323,"duration":447.91666666665697,"noteNumber":82,"velocity":127,"programNumber":84},{"time":147546.87499999988,"duration":963.541666666657,"noteNumber":84,"velocity":121,"programNumber":84},{"time":148546.87499999988,"duration":72.91666666665697,"noteNumber":82,"velocity":109,"programNumber":84},{"time":148624.99999999988,"duration":78.125,"noteNumber":79,"velocity":109,"programNumber":84},{"time":148708.33333333323,"duration":161.45833333334303,"noteNumber":82,"velocity":109,"programNumber":84},{"time":148874.9999999999,"duration":78.125,"noteNumber":82,"velocity":109,"programNumber":84},{"time":148958.33333333326,"duration":78.125,"noteNumber":79,"velocity":109,"programNumber":84},{"time":149041.6666666666,"duration":244.79166666668607,"noteNumber":82,"velocity":109,"programNumber":84},{"time":149291.66666666663,"duration":78.125,"noteNumber":79,"velocity":109,"programNumber":84},{"time":149374.99999999997,"duration":229.16666666668607,"noteNumber":82,"velocity":109,"programNumber":84},{"time":149625,"duration":78.125,"noteNumber":79,"velocity":109,"programNumber":84},{"time":149708.33333333334,"duration":229.16666666668607,"noteNumber":82,"velocity":109,"programNumber":84},{"time":149958.33333333337,"duration":72.91666666665697,"noteNumber":79,"velocity":109,"programNumber":84},{"time":150041.6666666667,"duration":161.45833333334303,"noteNumber":82,"velocity":109,"programNumber":84},{"time":150208.33333333337,"duration":78.125,"noteNumber":82,"velocity":109,"programNumber":84},{"time":150291.66666666672,"duration":78.1250000000291,"noteNumber":79,"velocity":109,"programNumber":84},{"time":150375.0000000001,"duration":229.16666666668607,"noteNumber":82,"velocity":109,"programNumber":84},{"time":150625.00000000012,"duration":78.125,"noteNumber":79,"velocity":109,"programNumber":84},{"time":150703.12500000012,"duration":166.66666666665697,"noteNumber":82,"velocity":109,"programNumber":84},{"time":150875.00000000012,"duration":78.125,"noteNumber":82,"velocity":109,"programNumber":84},{"time":150953.12500000012,"duration":78.125,"noteNumber":79,"velocity":109,"programNumber":84},{"time":151041.66666666677,"duration":161.45833333334303,"noteNumber":82,"velocity":109,"programNumber":84},{"time":151203.12500000012,"duration":78.125,"noteNumber":82,"velocity":109,"programNumber":84},{"time":151291.66666666677,"duration":78.125,"noteNumber":79,"velocity":109,"programNumber":84},{"time":151375.00000000012,"duration":1104.166666666686,"noteNumber":82,"velocity":109,"programNumber":84},{"time":152541.6666666668,"duration":739.5833333333139,"noteNumber":84,"velocity":122,"programNumber":84},{"time":153286.45833333346,"duration":1239.583333333314,"noteNumber":87,"velocity":122,"programNumber":84},{"time":154536.45833333343,"duration":114.58333333334303,"noteNumber":60,"velocity":122,"programNumber":84},{"time":154656.25000000012,"duration":119.79166666665697,"noteNumber":58,"velocity":122,"programNumber":84},{"time":154781.25000000012,"duration":119.79166666665697,"noteNumber":55,"velocity":122,"programNumber":84},{"time":154906.25000000012,"duration":119.79166666665697,"noteNumber":58,"velocity":122,"programNumber":84},{"time":155031.25000000012,"duration":119.79166666665697,"noteNumber":60,"velocity":122,"programNumber":84},{"time":155156.25000000012,"duration":119.79166666665697,"noteNumber":63,"velocity":122,"programNumber":84},{"time":155281.25000000012,"duration":119.79166666665697,"noteNumber":60,"velocity":122,"programNumber":84},{"time":155406.25000000012,"duration":119.79166666665697,"noteNumber":58,"velocity":122,"programNumber":84},{"time":155531.25000000012,"duration":119.79166666665697,"noteNumber":60,"velocity":122,"programNumber":84},{"time":155656.25000000012,"duration":119.79166666665697,"noteNumber":58,"velocity":122,"programNumber":84},{"time":155781.25000000012,"duration":119.79166666665697,"noteNumber":55,"velocity":122,"programNumber":84},{"time":155901.04166666677,"duration":125,"noteNumber":58,"velocity":122,"programNumber":84},{"time":156031.25000000012,"duration":114.58333333334303,"noteNumber":60,"velocity":122,"programNumber":84},{"time":156151.0416666668,"duration":119.79166666665697,"noteNumber":63,"velocity":122,"programNumber":84},{"time":156281.25000000012,"duration":114.58333333334303,"noteNumber":65,"velocity":122,"programNumber":84},{"time":156401.0416666668,"duration":125,"noteNumber":63,"velocity":105,"programNumber":84},{"time":156531.25000000015,"duration":1989.583333333343,"noteNumber":67,"velocity":122,"programNumber":84},{"time":158536.4583333335,"duration":223.95833333337214,"noteNumber":79,"velocity":116,"programNumber":84},{"time":158776.04166666686,"duration":83.33333333334303,"noteNumber":79,"velocity":116,"programNumber":84},{"time":159026.04166666686,"duration":67.70833333334303,"noteNumber":79,"velocity":116,"programNumber":84},{"time":159276.04166666686,"duration":723.958333333343,"noteNumber":80,"velocity":116,"programNumber":84},{"time":160276.0416666669,"duration":244.79166666668607,"noteNumber":77,"velocity":116,"programNumber":84},{"time":160526.04166666692,"duration":328.125,"noteNumber":77,"velocity":116,"programNumber":84},{"time":161026.04166666692,"duration":244.79166666665697,"noteNumber":77,"velocity":116,"programNumber":84},{"time":161276.04166666692,"duration":244.79166666665697,"noteNumber":79,"velocity":116,"programNumber":84},{"time":161526.04166666692,"duration":677.083333333343,"noteNumber":79,"velocity":116,"programNumber":84},{"time":162515.62500000023,"duration":234.375,"noteNumber":79,"velocity":116,"programNumber":84},{"time":162765.62500000023,"duration":145.83333333334303,"noteNumber":79,"velocity":116,"programNumber":84},{"time":163265.62500000023,"duration":494.79166666665697,"noteNumber":77,"velocity":116,"programNumber":84},{"time":163765.62500000023,"duration":244.79166666665697,"noteNumber":75,"velocity":116,"programNumber":84},{"time":164015.62500000023,"duration":119.79166666665697,"noteNumber":72,"velocity":116,"programNumber":84},{"time":164265.62500000023,"duration":83.33333333334303,"noteNumber":72,"velocity":116,"programNumber":84},{"time":164515.62500000026,"duration":453.1250000000582,"noteNumber":75,"velocity":116,"programNumber":84},{"time":165015.62500000032,"duration":520.833333333343,"noteNumber":72,"velocity":116,"programNumber":84},{"time":166265.62500000035,"duration":234.3750000000291,"noteNumber":79,"velocity":116,"programNumber":84},{"time":166515.62500000038,"duration":109.375,"noteNumber":79,"velocity":116,"programNumber":84},{"time":166765.62500000038,"duration":473.95833333334303,"noteNumber":79,"velocity":116,"programNumber":84},{"time":167265.62500000038,"duration":598.958333333343,"noteNumber":80,"velocity":116,"programNumber":84},{"time":168015.6250000004,"duration":229.16666666668607,"noteNumber":80,"velocity":116,"programNumber":84},{"time":168265.62500000044,"duration":203.125,"noteNumber":80,"velocity":116,"programNumber":84},{"time":168515.62500000044,"duration":223.95833333334303,"noteNumber":82,"velocity":116,"programNumber":84},{"time":169010.41666666712,"duration":244.79166666665697,"noteNumber":77,"velocity":116,"programNumber":84},{"time":169260.41666666712,"duration":244.79166666665697,"noteNumber":79,"velocity":116,"programNumber":84},{"time":169510.41666666712,"duration":723.958333333343,"noteNumber":79,"velocity":116,"programNumber":84},{"time":170510.41666666715,"duration":229.16666666668607,"noteNumber":79,"velocity":116,"programNumber":84},{"time":170755.20833333384,"duration":270.83333333334303,"noteNumber":79,"velocity":116,"programNumber":84},{"time":171255.20833333384,"duration":494.79166666665697,"noteNumber":77,"velocity":116,"programNumber":84},{"time":171755.20833333384,"duration":218.75,"noteNumber":75,"velocity":116,"programNumber":84},{"time":172005.20833333384,"duration":114.58333333334303,"noteNumber":72,"velocity":116,"programNumber":84},{"time":172255.20833333384,"duration":83.33333333334303,"noteNumber":72,"velocity":116,"programNumber":84},{"time":172510.4166666672,"duration":447.91666666668607,"noteNumber":75,"velocity":116,"programNumber":84},{"time":173010.41666666724,"duration":515.625,"noteNumber":72,"velocity":116,"programNumber":84},{"time":174500.00000000055,"duration":234.375,"noteNumber":79,"velocity":116,"programNumber":84},{"time":174744.7916666672,"duration":88.54166666665697,"noteNumber":79,"velocity":116,"programNumber":84},{"time":174994.7916666672,"duration":72.91666666665697,"noteNumber":79,"velocity":116,"programNumber":84},{"time":175250.00000000052,"duration":723.958333333343,"noteNumber":80,"velocity":116,"programNumber":84},{"time":176244.79166666724,"duration":234.3750000000291,"noteNumber":77,"velocity":116,"programNumber":84},{"time":176494.79166666727,"duration":328.125,"noteNumber":77,"velocity":116,"programNumber":84},{"time":176994.79166666727,"duration":244.79166666665697,"noteNumber":77,"velocity":116,"programNumber":84},{"time":177244.79166666727,"duration":244.79166666665697,"noteNumber":79,"velocity":116,"programNumber":84},{"time":177494.79166666727,"duration":682.291666666657,"noteNumber":79,"velocity":116,"programNumber":84},{"time":178494.7916666673,"duration":234.375,"noteNumber":79,"velocity":116,"programNumber":84},{"time":178744.7916666673,"duration":494.79166666665697,"noteNumber":79,"velocity":116,"programNumber":84},{"time":179244.7916666673,"duration":489.58333333334303,"noteNumber":77,"velocity":116,"programNumber":84},{"time":179739.58333333398,"duration":244.79166666665697,"noteNumber":75,"velocity":116,"programNumber":84},{"time":179989.58333333398,"duration":119.79166666665697,"noteNumber":72,"velocity":116,"programNumber":84},{"time":180239.58333333398,"duration":78.125,"noteNumber":72,"velocity":116,"programNumber":84},{"time":180494.79166666733,"duration":447.91666666665697,"noteNumber":75,"velocity":116,"programNumber":84},{"time":180989.58333333398,"duration":526.041666666657,"noteNumber":72,"velocity":116,"programNumber":84},{"time":182234.37500000067,"duration":234.3750000000291,"noteNumber":79,"velocity":116,"programNumber":84},{"time":182484.3750000007,"duration":98.95833333334303,"noteNumber":79,"velocity":116,"programNumber":84},{"time":182734.3750000007,"duration":473.95833333334303,"noteNumber":79,"velocity":116,"programNumber":84},{"time":183239.58333333404,"duration":468.75,"noteNumber":80,"velocity":116,"programNumber":84},{"time":183984.37500000073,"duration":234.375,"noteNumber":80,"velocity":116,"programNumber":84},{"time":184234.37500000073,"duration":119.79166666665697,"noteNumber":80,"velocity":116,"programNumber":84},{"time":184489.58333333404,"duration":218.75,"noteNumber":82,"velocity":116,"programNumber":84},{"time":184734.3750000007,"duration":244.79166666665697,"noteNumber":77,"velocity":116,"programNumber":84},{"time":184989.583333334,"duration":239.58333333334303,"noteNumber":77,"velocity":116,"programNumber":84},{"time":185234.3750000007,"duration":244.79166666665697,"noteNumber":79,"velocity":116,"programNumber":84},{"time":185489.583333334,"duration":718.75,"noteNumber":79,"velocity":116,"programNumber":84},{"time":186479.16666666738,"duration":234.3749999999709,"noteNumber":79,"velocity":116,"programNumber":84},{"time":186723.958333334,"duration":270.83333333334303,"noteNumber":79,"velocity":116,"programNumber":84},{"time":187229.16666666736,"duration":489.58333333334303,"noteNumber":77,"velocity":116,"programNumber":84},{"time":187723.95833333404,"duration":218.75,"noteNumber":75,"velocity":116,"programNumber":84},{"time":187973.95833333404,"duration":119.79166666665697,"noteNumber":72,"velocity":116,"programNumber":84},{"time":188223.95833333404,"duration":88.54166666665697,"noteNumber":72,"velocity":116,"programNumber":84},{"time":188484.37500000073,"duration":442.70833333334303,"noteNumber":75,"velocity":116,"programNumber":84},{"time":188979.1666666674,"duration":947.916666666657,"noteNumber":72,"velocity":116,"programNumber":84},{"time":190473.95833333407,"duration":234.375,"noteNumber":79,"velocity":116,"programNumber":84},{"time":190723.95833333407,"duration":494.79166666665697,"noteNumber":79,"velocity":116,"programNumber":84},{"time":191223.95833333407,"duration":494.79166666665697,"noteNumber":77,"velocity":116,"programNumber":84},{"time":191723.95833333407,"duration":244.79166666665697,"noteNumber":75,"velocity":116,"programNumber":84},{"time":191968.75000000073,"duration":1239.583333333343,"noteNumber":72,"velocity":116,"programNumber":84},{"time":194473.9583333341,"duration":223.95833333334303,"noteNumber":79,"velocity":116,"programNumber":84},{"time":194713.54166666744,"duration":494.79166666665697,"noteNumber":79,"velocity":116,"programNumber":84},{"time":195218.75000000076,"duration":489.58333333334303,"noteNumber":77,"velocity":116,"programNumber":84},{"time":195713.54166666744,"duration":244.79166666665697,"noteNumber":75,"velocity":116,"programNumber":84},{"time":195963.54166666744,"duration":1140.625,"noteNumber":72,"velocity":116,"programNumber":84},{"time":197463.54166666747,"duration":494.79166666668607,"noteNumber":75,"velocity":116,"programNumber":84},{"time":197963.5416666675,"duration":244.79166666665697,"noteNumber":72,"velocity":116,"programNumber":84},{"time":198468.75000000081,"duration":218.75,"noteNumber":79,"velocity":116,"programNumber":84},{"time":198463.54166666747,"duration":666.666666666657,"noteNumber":77,"velocity":109,"programNumber":84},{"time":198713.54166666747,"duration":494.79166666665697,"noteNumber":79,"velocity":116,"programNumber":84},{"time":199213.54166666747,"duration":484.3750000000291,"noteNumber":77,"velocity":109,"programNumber":84},{"time":199708.33333333416,"duration":239.58333333334303,"noteNumber":75,"velocity":116,"programNumber":84},{"time":199963.5416666675,"duration":270.83333333334303,"noteNumber":75,"velocity":109,"programNumber":84},{"time":200203.12500000084,"duration":750.0000000000291,"noteNumber":77,"velocity":109,"programNumber":84},{"time":199958.33333333416,"duration":1119.7916666667152,"noteNumber":72,"velocity":116,"programNumber":84},{"time":201453.1250000009,"duration":26.04166666668607,"noteNumber":75,"velocity":116,"programNumber":84},{"time":201958.33333333427,"duration":52.083333333343035,"noteNumber":72,"velocity":116,"programNumber":84},{"time":201958.33333333427,"duration":250.0000000000291,"noteNumber":70,"velocity":109,"programNumber":84},{"time":202203.12500000096,"duration":296.8750000000291,"noteNumber":72,"velocity":109,"programNumber":84},{"time":202463.54166666765,"duration":223.95833333340124,"noteNumber":79,"velocity":116,"programNumber":84},{"time":202703.12500000105,"duration":494.79166666665697,"noteNumber":79,"velocity":116,"programNumber":84},{"time":203203.12500000105,"duration":494.79166666665697,"noteNumber":77,"velocity":109,"programNumber":84},{"time":203953.12500000105,"duration":296.875,"noteNumber":75,"velocity":109,"programNumber":84},{"time":203703.12500000105,"duration":1218.749999999971,"noteNumber":79,"velocity":116,"programNumber":84},{"time":204203.12500000105,"duration":770.8333333333139,"noteNumber":77,"velocity":109,"programNumber":84},{"time":205197.9166666677,"duration":234.3750000000291,"noteNumber":72,"velocity":116,"programNumber":84},{"time":204953.12500000102,"duration":484.3750000000582,"noteNumber":75,"velocity":109,"programNumber":84},{"time":205453.12500000108,"duration":364.58333333334303,"noteNumber":75,"velocity":116,"programNumber":84},{"time":205947.91666666776,"duration":531.25,"noteNumber":72,"velocity":116,"programNumber":84},{"time":206447.91666666776,"duration":703.1250000000291,"noteNumber":77,"velocity":109,"programNumber":84},{"time":207197.9166666678,"duration":703.1250000000291,"noteNumber":77,"velocity":109,"programNumber":84},{"time":207942.70833333448,"duration":244.79166666665697,"noteNumber":75,"velocity":109,"programNumber":84},{"time":208192.70833333448,"duration":244.79166666665697,"noteNumber":77,"velocity":95,"programNumber":84},{"time":208447.9166666678,"duration":531.2500000000291,"noteNumber":77,"velocity":109,"programNumber":84},{"time":208947.91666666782,"duration":526.041666666657,"noteNumber":75,"velocity":109,"programNumber":84},{"time":209442.70833333448,"duration":557.291666666657,"noteNumber":72,"velocity":109,"programNumber":84},{"time":209942.70833333448,"duration":213.54166666665697,"noteNumber":70,"velocity":109,"programNumber":84},{"time":210192.70833333448,"duration":302.08333333334303,"noteNumber":72,"velocity":95,"programNumber":84},{"time":210442.70833333448,"duration":718.7499999999709,"noteNumber":77,"velocity":109,"programNumber":84},{"time":211187.50000000114,"duration":723.958333333343,"noteNumber":77,"velocity":109,"programNumber":84},{"time":211942.70833333448,"duration":218.75,"noteNumber":77,"velocity":109,"programNumber":84},{"time":212187.50000000114,"duration":223.95833333331393,"noteNumber":75,"velocity":95,"programNumber":84},{"time":212442.70833333445,"duration":536.4583333333139,"noteNumber":77,"velocity":109,"programNumber":84},{"time":212937.5000000011,"duration":473.95833333331393,"noteNumber":75,"velocity":109,"programNumber":84},{"time":213442.70833333442,"duration":572.916666666657,"noteNumber":72,"velocity":109,"programNumber":84},{"time":213937.50000000108,"duration":234.375,"noteNumber":70,"velocity":109,"programNumber":84},{"time":214182.29166666773,"duration":270.83333333334303,"noteNumber":72,"velocity":109,"programNumber":84},{"time":214437.50000000108,"duration":651.041666666657,"noteNumber":77,"velocity":109,"programNumber":84},{"time":215182.29166666776,"duration":677.0833333333139,"noteNumber":77,"velocity":109,"programNumber":84},{"time":215932.29166666773,"duration":244.79166666668607,"noteNumber":77,"velocity":109,"programNumber":84},{"time":216182.29166666776,"duration":270.83333333334303,"noteNumber":75,"velocity":109,"programNumber":84},{"time":216432.29166666776,"duration":536.458333333343,"noteNumber":77,"velocity":109,"programNumber":84},{"time":216932.29166666776,"duration":494.79166666665697,"noteNumber":75,"velocity":109,"programNumber":84},{"time":217432.29166666776,"duration":520.8333333333721,"noteNumber":72,"velocity":109,"programNumber":84},{"time":217932.2916666678,"duration":255.20833333334303,"noteNumber":70,"velocity":109,"programNumber":84},{"time":218177.08333333448,"duration":281.2499999999709,"noteNumber":72,"velocity":109,"programNumber":84},{"time":218432.2916666678,"duration":651.0416666666861,"noteNumber":77,"velocity":109,"programNumber":84},{"time":219177.0833333345,"duration":682.291666666657,"noteNumber":77,"velocity":109,"programNumber":84},{"time":219927.0833333345,"duration":244.79166666665697,"noteNumber":77,"velocity":109,"programNumber":84},{"time":220177.0833333345,"duration":177.08333333334303,"noteNumber":75,"velocity":109,"programNumber":84},{"time":220427.0833333345,"duration":536.4583333333721,"noteNumber":77,"velocity":109,"programNumber":84},{"time":220932.29166666788,"duration":463.54166666665697,"noteNumber":75,"velocity":109,"programNumber":84},{"time":221421.8750000012,"duration":588.541666666657,"noteNumber":72,"velocity":109,"programNumber":84}]]}