{
    "tracks": [
        [{
            "time": 0,
            "duration": 496.09375,
            "noteNumber": 60,
            "velocity": 72,
            "programNumber": 0
        }, {
            "time": 0,
            "duration": 496.09375,
            "noteNumber": 64,
            "velocity": 70,
            "programNumber": 0
        }, {
            "time": 500,
            "duration": 496.09375,
            "noteNumber": 64,
            "velocity": 76,
            "programNumber": 0
        }, {
            "time": 1000,
            "duration": 496.09375,
            "noteNumber": 65,
            "velocity": 79,
            "programNumber": 0
        }, {
            "time": 0,
            "duration": 1902.34375,
            "noteNumber": 48,
            "velocity": 89,
            "programNumber": 0
        }, {
            "time": 0,
            "duration": 1902.34375,
            "noteNumber": 55,
            "velocity": 90,
            "programNumber": 0
        }, {
            "time": 1500,
            "duration": 496.09375,
            "noteNumber": 67,
            "velocity": 82,
            "programNumber": 0
        }, {
            "time": 2000,
            "duration": 496.09375,
            "noteNumber": 67,
            "velocity": 79,
            "programNumber": 0
        }, {
            "time": 2000,
            "duration": 902.34375,
            "noteNumber": 55,
            "velocity": 96,
            "programNumber": 0
        }, {
            "time": 2500,
            "duration": 496.09375,
            "noteNumber": 65,
            "velocity": 70,
            "programNumber": 0
        }, {
            "time": 3000,
            "duration": 496.09375,
            "noteNumber": 64,
            "velocity": 69,
            "programNumber": 0
        }, {
            "time": 3000,
            "duration": 902.34375,
            "noteNumber": 55,
            "velocity": 97,
            "programNumber": 0
        }, {
            "time": 3500,
            "duration": 496.09375,
            "noteNumber": 62,
            "velocity": 69,
            "programNumber": 0
        }, {
            "time": 4000,
            "duration": 496.09375,
            "noteNumber": 60,
            "velocity": 73,
            "programNumber": 0
        }, {
            "time": 4500,
            "duration": 496.09375,
            "noteNumber": 60,
            "velocity": 74,
            "programNumber": 0
        }, {
            "time": 5000,
            "duration": 496.09375,
            "noteNumber": 62,
            "velocity": 78,
            "programNumber": 0
        }, {
            "time": 4000,
            "duration": 1902.34375,
            "noteNumber": 48,
            "velocity": 100,
            "programNumber": 0
        }, {
            "time": 4000,
            "duration": 1902.34375,
            "noteNumber": 52,
            "velocity": 99,
            "programNumber": 0
        }, {
            "time": 4000,
            "duration": 1902.34375,
            "noteNumber": 55,
            "velocity": 98,
            "programNumber": 0
        }, {
            "time": 5500,
            "duration": 496.09375,
            "noteNumber": 64,
            "velocity": 83,
            "programNumber": 0
        }, {
            "time": 6000,
            "duration": 744.140625,
            "noteNumber": 64,
            "velocity": 78,
            "programNumber": 0
        }, {
            "time": 6000,
            "duration": 902.34375,
            "noteNumber": 55,
            "velocity": 101,
            "programNumber": 0
        }, {
            "time": 6750,
            "duration": 248.046875,
            "noteNumber": 62,
            "velocity": 69,
            "programNumber": 0
        }, {
            "time": 7000,
            "duration": 902.34375,
            "noteNumber": 55,
            "velocity": 96,
            "programNumber": 0
        }, {
            "time": 7000,
            "duration": 990.234375,
            "noteNumber": 59,
            "velocity": 74,
            "programNumber": 0
        }, {
            "time": 7000,
            "duration": 990.234375,
            "noteNumber": 62,
            "velocity": 74,
            "programNumber": 0
        }, {
            "time": 8000,
            "duration": 496.09375,
            "noteNumber": 60,
            "velocity": 85,
            "programNumber": 0
        }, {
            "time": 8000,
            "duration": 496.09375,
            "noteNumber": 64,
            "velocity": 82,
            "programNumber": 0
        }, {
            "time": 8500,
            "duration": 496.09375,
            "noteNumber": 64,
            "velocity": 76,
            "programNumber": 0
        }, {
            "time": 9000,
            "duration": 496.09375,
            "noteNumber": 65,
            "velocity": 80,
            "programNumber": 0
        }, {
            "time": 8000,
            "duration": 1902.34375,
            "noteNumber": 48,
            "velocity": 101,
            "programNumber": 0
        }, {
            "time": 8000,
            "duration": 1902.34375,
            "noteNumber": 55,
            "velocity": 98,
            "programNumber": 0
        }, {
            "time": 9500,
            "duration": 496.09375,
            "noteNumber": 67,
            "velocity": 79,
            "programNumber": 0
        }, {
            "time": 10000,
            "duration": 496.09375,
            "noteNumber": 67,
            "velocity": 78,
            "programNumber": 0
        }, {
            "time": 10000,
            "duration": 902.34375,
            "noteNumber": 55,
            "velocity": 100,
            "programNumber": 0
        }, {
            "time": 10500,
            "duration": 496.09375,
            "noteNumber": 65,
            "velocity": 70,
            "programNumber": 0
        }, {
            "time": 11000,
            "duration": 496.09375,
            "noteNumber": 64,
            "velocity": 72,
            "programNumber": 0
        }, {
            "time": 11000,
            "duration": 902.34375,
            "noteNumber": 55,
            "velocity": 94,
            "programNumber": 0
        }, {
            "time": 11500,
            "duration": 496.09375,
            "noteNumber": 62,
            "velocity": 70,
            "programNumber": 0
        }, {
            "time": 12000,
            "duration": 496.09375,
            "noteNumber": 60,
            "velocity": 72,
            "programNumber": 0
        }, {
            "time": 12500,
            "duration": 496.09375,
            "noteNumber": 60,
            "velocity": 73,
            "programNumber": 0
        }, {
            "time": 13000,
            "duration": 496.09375,
            "noteNumber": 62,
            "velocity": 78,
            "programNumber": 0
        }, {
            "time": 12000,
            "duration": 1902.34375,
            "noteNumber": 48,
            "velocity": 99,
            "programNumber": 0
        }, {
            "time": 12000,
            "duration": 1902.34375,
            "noteNumber": 52,
            "velocity": 99,
            "programNumber": 0
        }, {
            "time": 12000,
            "duration": 1902.34375,
            "noteNumber": 55,
            "velocity": 98,
            "programNumber": 0
        }, {
            "time": 13500,
            "duration": 496.09375,
            "noteNumber": 64,
            "velocity": 83,
            "programNumber": 0
        }, {
            "time": 14000,
            "duration": 744.140625,
            "noteNumber": 62,
            "velocity": 74,
            "programNumber": 0
        }, {
            "time": 14000,
            "duration": 902.34375,
            "noteNumber": 55,
            "velocity": 100,
            "programNumber": 0
        }, {
            "time": 14750,
            "duration": 248.046875,
            "noteNumber": 60,
            "velocity": 71,
            "programNumber": 0
        }, {
            "time": 15000,
            "duration": 902.34375,
            "noteNumber": 48,
            "velocity": 77,
            "programNumber": 0
        }, {
            "time": 15000,
            "duration": 990.234375,
            "noteNumber": 60,
            "velocity": 77,
            "programNumber": 0
        }, {
            "time": 16000,
            "duration": 496.09375,
            "noteNumber": 62,
            "velocity": 85,
            "programNumber": 0
        }, {
            "time": 16500,
            "duration": 496.09375,
            "noteNumber": 62,
            "velocity": 75,
            "programNumber": 0
        }, {
            "time": 17000,
            "duration": 496.09375,
            "noteNumber": 64,
            "velocity": 80,
            "programNumber": 0
        }, {
            "time": 16000,
            "duration": 1902.34375,
            "noteNumber": 55,
            "velocity": 58,
            "programNumber": 0
        }, {
            "time": 17500,
            "duration": 496.09375,
            "noteNumber": 60,
            "velocity": 67,
            "programNumber": 0
        }, {
            "time": 18000,
            "duration": 496.09375,
            "noteNumber": 62,
            "velocity": 81,
            "programNumber": 0
        }, {
            "time": 18500,
            "duration": 248.046875,
            "noteNumber": 64,
            "velocity": 81,
            "programNumber": 0
        }, {
            "time": 18000,
            "duration": 902.34375,
            "noteNumber": 55,
            "velocity": 50,
            "programNumber": 0
        }, {
            "time": 18750,
            "duration": 248.046875,
            "noteNumber": 65,
            "velocity": 81,
            "programNumber": 0
        }, {
            "time": 19000,
            "duration": 496.09375,
            "noteNumber": 64,
            "velocity": 75,
            "programNumber": 0
        }, {
            "time": 19000,
            "duration": 902.34375,
            "noteNumber": 55,
            "velocity": 49,
            "programNumber": 0
        }, {
            "time": 19500,
            "duration": 496.09375,
            "noteNumber": 60,
            "velocity": 67,
            "programNumber": 0
        }, {
            "time": 20000,
            "duration": 496.09375,
            "noteNumber": 62,
            "velocity": 81,
            "programNumber": 0
        }, {
            "time": 20500,
            "duration": 248.046875,
            "noteNumber": 64,
            "velocity": 79,
            "programNumber": 0
        }, {
            "time": 20000,
            "duration": 902.34375,
            "noteNumber": 55,
            "velocity": 50,
            "programNumber": 0
        }, {
            "time": 20750,
            "duration": 248.046875,
            "noteNumber": 65,
            "velocity": 79,
            "programNumber": 0
        }, {
            "time": 21000,
            "duration": 496.09375,
            "noteNumber": 64,
            "velocity": 75,
            "programNumber": 0
        }, {
            "time": 21000,
            "duration": 902.34375,
            "noteNumber": 56,
            "velocity": 52,
            "programNumber": 0
        }, {
            "time": 21500,
            "duration": 496.09375,
            "noteNumber": 62,
            "velocity": 70,
            "programNumber": 0
        }, {
            "time": 22000,
            "duration": 451.171875,
            "noteNumber": 57,
            "velocity": 52,
            "programNumber": 0
        }, {
            "time": 22000,
            "duration": 496.09375,
            "noteNumber": 60,
            "velocity": 71,
            "programNumber": 0
        }, {
            "time": 22500,
            "duration": 451.171875,
            "noteNumber": 54,
            "velocity": 43,
            "programNumber": 0
        }, {
            "time": 22500,
            "duration": 496.09375,
            "noteNumber": 62,
            "velocity": 79,
            "programNumber": 0
        }, {
            "time": 23000,
            "duration": 902.34375,
            "noteNumber": 55,
            "velocity": 51,
            "programNumber": 0
        }, {
            "time": 23500,
            "duration": 996.09375,
            "noteNumber": 64,
            "velocity": 84,
            "programNumber": 0
        }, {
            "time": 24000,
            "duration": 902.34375,
            "noteNumber": 60,
            "velocity": 55,
            "programNumber": 0
        }, {
            "time": 24500,
            "duration": 496.09375,
            "noteNumber": 64,
            "velocity": 97,
            "programNumber": 0
        }, {
            "time": 25000,
            "duration": 496.09375,
            "noteNumber": 65,
            "velocity": 100,
            "programNumber": 0
        }, {
            "time": 25000,
            "duration": 902.34375,
            "noteNumber": 58,
            "velocity": 44,
            "programNumber": 0
        }, {
            "time": 25500,
            "duration": 496.09375,
            "noteNumber": 67,
            "velocity": 103,
            "programNumber": 0
        }, {
            "time": 26000,
            "duration": 496.09375,
            "noteNumber": 67,
            "velocity": 101,
            "programNumber": 0
        }, {
            "time": 26000,
            "duration": 902.34375,
            "noteNumber": 57,
            "velocity": 49,
            "programNumber": 0
        }, {
            "time": 26500,
            "duration": 496.09375,
            "noteNumber": 65,
            "velocity": 92,
            "programNumber": 0
        }, {
            "time": 27000,
            "duration": 496.09375,
            "noteNumber": 64,
            "velocity": 89,
            "programNumber": 0
        }, {
            "time": 27000,
            "duration": 902.34375,
            "noteNumber": 53,
            "velocity": 42,
            "programNumber": 0
        }, {
            "time": 27500,
            "duration": 496.09375,
            "noteNumber": 62,
            "velocity": 88,
            "programNumber": 0
        }, {
            "time": 28000,
            "duration": 451.171875,
            "noteNumber": 52,
            "velocity": 49,
            "programNumber": 0
        }, {
            "time": 28000,
            "duration": 496.09375,
            "noteNumber": 60,
            "velocity": 93,
            "programNumber": 0
        }, {
            "time": 28500,
            "duration": 451.171875,
            "noteNumber": 52,
            "velocity": 46,
            "programNumber": 0
        }, {
            "time": 28500,
            "duration": 496.09375,
            "noteNumber": 60,
            "velocity": 97,
            "programNumber": 0
        }, {
            "time": 29000,
            "duration": 451.171875,
            "noteNumber": 55,
            "velocity": 51,
            "programNumber": 0
        }, {
            "time": 29000,
            "duration": 496.09375,
            "noteNumber": 62,
            "velocity": 100,
            "programNumber": 0
        }, {
            "time": 29500,
            "duration": 451.171875,
            "noteNumber": 60,
            "velocity": 53,
            "programNumber": 0
        }, {
            "time": 29500,
            "duration": 496.09375,
            "noteNumber": 64,
            "velocity": 103,
            "programNumber": 0
        }, {
            "time": 30000,
            "duration": 744.140625,
            "noteNumber": 62,
            "velocity": 94,
            "programNumber": 0
        }, {
            "time": 30000,
            "duration": 902.34375,
            "noteNumber": 55,
            "velocity": 46,
            "programNumber": 0
        }, {
            "time": 30750,
            "duration": 248.046875,
            "noteNumber": 60,
            "velocity": 90,
            "programNumber": 0
        }, {
            "time": 31000,
            "duration": 902.34375,
            "noteNumber": 48,
            "velocity": 48,
            "programNumber": 0
        }, {
            "time": 31000,
            "duration": 902.34375,
            "noteNumber": 52,
            "velocity": 47,
            "programNumber": 0
        }, {
            "time": 31000,
            "duration": 902.34375,
            "noteNumber": 55,
            "velocity": 45,
            "programNumber": 0
        }, {
            "time": 31000,
            "duration": 990.234375,
            "noteNumber": 60,
            "velocity": 93,
            "programNumber": 0
        }]
    ]
}
