{"tracks":[[{"time":4695.651,"duration":108.69562500000029,"noteNumber":45,"velocity":76,"programNumber":27},{"time":4956.5205000000005,"duration":108.69562500000029,"noteNumber":52,"velocity":65,"programNumber":27},{"time":5086.955250000001,"duration":108.69562500000029,"noteNumber":57,"velocity":65,"programNumber":27},{"time":5217.390000000001,"duration":108.69562500000029,"noteNumber":60,"velocity":65,"programNumber":27},{"time":5478.259500000002,"duration":108.69562500000029,"noteNumber":64,"velocity":76,"programNumber":27},{"time":5739.129000000003,"duration":108.69562500000029,"noteNumber":60,"velocity":65,"programNumber":27},{"time":5999.998500000003,"duration":108.69562500000029,"noteNumber":55,"velocity":65,"programNumber":27},{"time":6260.868000000004,"duration":108.69562500000029,"noteNumber":48,"velocity":76,"programNumber":27},{"time":6521.737500000005,"duration":108.69562500000029,"noteNumber":52,"velocity":65,"programNumber":27},{"time":6652.172250000005,"duration":108.69562500000029,"noteNumber":55,"velocity":65,"programNumber":27},{"time":6782.607000000005,"duration":108.69562500000029,"noteNumber":60,"velocity":65,"programNumber":27},{"time":7043.476500000006,"duration":108.69562500000029,"noteNumber":64,"velocity":76,"programNumber":27},{"time":7304.346000000007,"duration":108.69562500000029,"noteNumber":60,"velocity":65,"programNumber":27},{"time":7565.2155000000075,"duration":108.69562500000029,"noteNumber":55,"velocity":65,"programNumber":27},{"time":7826.085000000008,"duration":108.69562500000029,"noteNumber":50,"velocity":76,"programNumber":27},{"time":8086.954500000009,"duration":108.69562500000029,"noteNumber":57,"velocity":65,"programNumber":27},{"time":8217.38925000001,"duration":108.69562500000029,"noteNumber":62,"velocity":65,"programNumber":27},{"time":8347.82400000001,"duration":65.21737500000017,"noteNumber":66,"velocity":65,"programNumber":27},{"time":8608.69350000001,"duration":108.69562500000029,"noteNumber":66,"velocity":76,"programNumber":27},{"time":8869.563000000011,"duration":108.69562500000029,"noteNumber":62,"velocity":65,"programNumber":27},{"time":9130.432500000012,"duration":108.69562500000029,"noteNumber":55,"velocity":65,"programNumber":27},{"time":9391.302000000012,"duration":108.69562500000029,"noteNumber":53,"velocity":76,"programNumber":27},{"time":9652.171500000013,"duration":108.69562500000029,"noteNumber":57,"velocity":65,"programNumber":27},{"time":9782.606250000013,"duration":108.69562500000029,"noteNumber":60,"velocity":65,"programNumber":27},{"time":9913.041000000014,"duration":108.69562500000029,"noteNumber":60,"velocity":65,"programNumber":27},{"time":10173.910500000015,"duration":108.69562500000029,"noteNumber":65,"velocity":76,"programNumber":27},{"time":10434.780000000015,"duration":108.69562500000029,"noteNumber":57,"velocity":65,"programNumber":27},{"time":10695.649500000016,"duration":108.69562500000029,"noteNumber":55,"velocity":65,"programNumber":27},{"time":10956.519000000017,"duration":65.21737500000017,"noteNumber":45,"velocity":76,"programNumber":27},{"time":11217.388500000017,"duration":108.69562500000029,"noteNumber":52,"velocity":65,"programNumber":27},{"time":11347.823250000018,"duration":108.69562500000029,"noteNumber":57,"velocity":65,"programNumber":27},{"time":11478.258000000018,"duration":108.69562500000029,"noteNumber":60,"velocity":65,"programNumber":27},{"time":11739.127500000019,"duration":108.69562500000029,"noteNumber":64,"velocity":76,"programNumber":27},{"time":11999.99700000002,"duration":65.21737500000017,"noteNumber":60,"velocity":65,"programNumber":27},{"time":12260.86650000002,"duration":108.69562500000029,"noteNumber":55,"velocity":65,"programNumber":27},{"time":12521.73600000002,"duration":65.21737500000017,"noteNumber":40,"velocity":76,"programNumber":27},{"time":12782.605500000021,"duration":108.69562500000029,"noteNumber":47,"velocity":65,"programNumber":27},{"time":12913.040250000022,"duration":108.69562500000029,"noteNumber":52,"velocity":65,"programNumber":27},{"time":13043.475000000022,"duration":108.69562500000029,"noteNumber":56,"velocity":65,"programNumber":27},{"time":13130.431500000022,"duration":108.69562500000029,"noteNumber":59,"velocity":65,"programNumber":27},{"time":13304.344500000023,"duration":65.21737500000017,"noteNumber":64,"velocity":76,"programNumber":27},{"time":13565.214000000024,"duration":108.69562500000029,"noteNumber":59,"velocity":65,"programNumber":27},{"time":13826.083500000024,"duration":108.69562500000029,"noteNumber":55,"velocity":65,"programNumber":27},{"time":14086.953000000025,"duration":65.21737500000017,"noteNumber":45,"velocity":76,"programNumber":27},{"time":14347.822500000026,"duration":108.69562500000029,"noteNumber":52,"velocity":65,"programNumber":27},{"time":14478.257250000026,"duration":108.69562500000029,"noteNumber":57,"velocity":65,"programNumber":27},{"time":14608.692000000026,"duration":108.69562500000029,"noteNumber":60,"velocity":65,"programNumber":27},{"time":14869.561500000027,"duration":108.69562500000029,"noteNumber":64,"velocity":76,"programNumber":27},{"time":15130.431000000028,"duration":65.21737500000017,"noteNumber":60,"velocity":65,"programNumber":27},{"time":15391.300500000028,"duration":108.69562500000029,"noteNumber":55,"velocity":65,"programNumber":27},{"time":15652.17000000003,"duration":65.21737500000017,"noteNumber":40,"velocity":76,"programNumber":27},{"time":15913.03950000003,"duration":108.69562500000029,"noteNumber":47,"velocity":65,"programNumber":27},{"time":16043.47425000003,"duration":108.69562500000029,"noteNumber":52,"velocity":65,"programNumber":27},{"time":16173.90900000003,"duration":108.69562500000029,"noteNumber":56,"velocity":65,"programNumber":27},{"time":16260.86550000003,"duration":108.69562500000029,"noteNumber":59,"velocity":65,"programNumber":27},{"time":16434.77850000003,"duration":65.21737500000017,"noteNumber":64,"velocity":76,"programNumber":27},{"time":16695.64800000003,"duration":108.69562500000029,"noteNumber":59,"velocity":65,"programNumber":27},{"time":16956.51750000003,"duration":106.52171250000174,"noteNumber":55,"velocity":65,"programNumber":27},{"time":17209.77830625003,"duration":66.30433125000127,"noteNumber":45,"velocity":76,"programNumber":27},{"time":17482.332431250034,"duration":114.77261250000083,"noteNumber":52,"velocity":65,"programNumber":27},{"time":17620.400475000035,"duration":114.2044312500002,"noteNumber":57,"velocity":65,"programNumber":27},{"time":17757.900337500036,"duration":114.77261250000083,"noteNumber":60,"velocity":65,"programNumber":27},{"time":18032.900062500037,"duration":113.63624999999956,"noteNumber":64,"velocity":76,"programNumber":27},{"time":18305.627062500036,"duration":113.63624999999956,"noteNumber":60,"velocity":65,"programNumber":27},{"time":18578.354062500035,"duration":113.63624999999956,"noteNumber":55,"velocity":65,"programNumber":27},{"time":18851.081062500034,"duration":113.63624999999956,"noteNumber":48,"velocity":76,"programNumber":27},{"time":19123.808062500033,"duration":113.63624999999956,"noteNumber":52,"velocity":65,"programNumber":27},{"time":19260.171562500032,"duration":113.63624999999956,"noteNumber":55,"velocity":65,"programNumber":27},{"time":19396.535062500032,"duration":113.63624999999956,"noteNumber":60,"velocity":65,"programNumber":27},{"time":19669.26206250003,"duration":113.63624999999956,"noteNumber":64,"velocity":76,"programNumber":27},{"time":19941.98906250003,"duration":113.63624999999956,"noteNumber":60,"velocity":65,"programNumber":27},{"time":20214.71606250003,"duration":113.63624999999956,"noteNumber":55,"velocity":65,"programNumber":27},{"time":20487.443062500028,"duration":113.63624999999956,"noteNumber":50,"velocity":76,"programNumber":27},{"time":20760.170062500027,"duration":113.63624999999956,"noteNumber":57,"velocity":65,"programNumber":27},{"time":20896.533562500026,"duration":113.63624999999956,"noteNumber":62,"velocity":65,"programNumber":27},{"time":21032.897062500026,"duration":68.18174999999974,"noteNumber":66,"velocity":65,"programNumber":27},{"time":21305.624062500025,"duration":113.63624999999956,"noteNumber":66,"velocity":76,"programNumber":27},{"time":21578.351062500024,"duration":113.63624999999956,"noteNumber":62,"velocity":65,"programNumber":27},{"time":21851.078062500022,"duration":113.63624999999956,"noteNumber":55,"velocity":65,"programNumber":27},{"time":22123.80506250002,"duration":113.63624999999956,"noteNumber":53,"velocity":76,"programNumber":27},{"time":22396.53206250002,"duration":113.63624999999956,"noteNumber":57,"velocity":65,"programNumber":27},{"time":22532.89556250002,"duration":113.63624999999956,"noteNumber":60,"velocity":65,"programNumber":27},{"time":22669.25906250002,"duration":113.63624999999956,"noteNumber":60,"velocity":65,"programNumber":27},{"time":22941.98606250002,"duration":113.63624999999956,"noteNumber":65,"velocity":76,"programNumber":27},{"time":23214.713062500017,"duration":113.63624999999956,"noteNumber":57,"velocity":65,"programNumber":27},{"time":23487.440062500016,"duration":113.63624999999956,"noteNumber":55,"velocity":65,"programNumber":27},{"time":23760.167062500015,"duration":68.18174999999974,"noteNumber":45,"velocity":76,"programNumber":27},{"time":24032.894062500014,"duration":113.63624999999956,"noteNumber":52,"velocity":65,"programNumber":27},{"time":24169.257562500014,"duration":113.63624999999956,"noteNumber":57,"velocity":65,"programNumber":27},{"time":24305.621062500013,"duration":113.63624999999956,"noteNumber":60,"velocity":65,"programNumber":27},{"time":24578.348062500012,"duration":113.63624999999956,"noteNumber":64,"velocity":76,"programNumber":27},{"time":24851.07506250001,"duration":113.63624999999956,"noteNumber":60,"velocity":65,"programNumber":27},{"time":25123.80206250001,"duration":113.63624999999956,"noteNumber":55,"velocity":65,"programNumber":27},{"time":25396.52906250001,"duration":113.63624999999956,"noteNumber":48,"velocity":76,"programNumber":27},{"time":25669.256062500008,"duration":113.63624999999956,"noteNumber":52,"velocity":65,"programNumber":27},{"time":25805.619562500007,"duration":113.63624999999956,"noteNumber":55,"velocity":65,"programNumber":27},{"time":25941.983062500007,"duration":113.63624999999956,"noteNumber":60,"velocity":65,"programNumber":27},{"time":26214.710062500006,"duration":113.63624999999956,"noteNumber":64,"velocity":76,"programNumber":27},{"time":26487.437062500005,"duration":113.63624999999956,"noteNumber":60,"velocity":65,"programNumber":27},{"time":26760.164062500004,"duration":113.63624999999956,"noteNumber":55,"velocity":65,"programNumber":27},{"time":27032.891062500003,"duration":68.18174999999974,"noteNumber":40,"velocity":76,"programNumber":27},{"time":27305.6180625,"duration":113.63624999999956,"noteNumber":47,"velocity":65,"programNumber":27},{"time":27441.9815625,"duration":113.63624999999956,"noteNumber":52,"velocity":65,"programNumber":27},{"time":27578.3450625,"duration":113.63624999999956,"noteNumber":56,"velocity":65,"programNumber":27},{"time":27669.2540625,"duration":113.63624999999956,"noteNumber":59,"velocity":65,"programNumber":27},{"time":27851.0720625,"duration":68.18174999999974,"noteNumber":64,"velocity":76,"programNumber":27},{"time":28123.7990625,"duration":113.63624999999956,"noteNumber":56,"velocity":65,"programNumber":27},{"time":28396.526062499997,"duration":113.63624999999956,"noteNumber":52,"velocity":65,"programNumber":27},{"time":28669.253062499996,"duration":68.18174999999974,"noteNumber":40,"velocity":76,"programNumber":27},{"time":28941.980062499995,"duration":113.63624999999956,"noteNumber":47,"velocity":65,"programNumber":27},{"time":29078.343562499995,"duration":113.63624999999956,"noteNumber":52,"velocity":65,"programNumber":27},{"time":29214.707062499994,"duration":113.63624999999956,"noteNumber":56,"velocity":65,"programNumber":27},{"time":29305.616062499994,"duration":113.63624999999956,"noteNumber":59,"velocity":65,"programNumber":27},{"time":29487.434062499993,"duration":68.18174999999974,"noteNumber":64,"velocity":76,"programNumber":27},{"time":29760.161062499992,"duration":113.63624999999956,"noteNumber":59,"velocity":65,"programNumber":27},{"time":30032.88806249999,"duration":113.63624999999956,"noteNumber":55,"velocity":65,"programNumber":27},{"time":30305.61506249999,"duration":68.18174999999974,"noteNumber":45,"velocity":76,"programNumber":27},{"time":30578.34206249999,"duration":113.63624999999956,"noteNumber":52,"velocity":65,"programNumber":27},{"time":30714.70556249999,"duration":113.63624999999956,"noteNumber":57,"velocity":65,"programNumber":27},{"time":30851.069062499988,"duration":113.63624999999956,"noteNumber":60,"velocity":65,"programNumber":27},{"time":31123.796062499987,"duration":113.63624999999956,"noteNumber":64,"velocity":76,"programNumber":27},{"time":31396.523062499986,"duration":113.63624999999956,"noteNumber":60,"velocity":65,"programNumber":27},{"time":31669.250062499985,"duration":113.63624999999956,"noteNumber":55,"velocity":65,"programNumber":27},{"time":31941.977062499984,"duration":113.63624999999956,"noteNumber":48,"velocity":76,"programNumber":27},{"time":32214.704062499983,"duration":113.63624999999956,"noteNumber":52,"velocity":65,"programNumber":27},{"time":32351.067562499982,"duration":113.63624999999956,"noteNumber":55,"velocity":65,"programNumber":27},{"time":32487.43106249998,"duration":113.63624999999956,"noteNumber":60,"velocity":65,"programNumber":27},{"time":32760.15806249998,"duration":113.63624999999956,"noteNumber":64,"velocity":76,"programNumber":27},{"time":33032.88506249998,"duration":113.6362500000032,"noteNumber":60,"velocity":65,"programNumber":27},{"time":33305.61206249999,"duration":113.6362500000032,"noteNumber":55,"velocity":65,"programNumber":27},{"time":33578.339062499996,"duration":113.6362500000032,"noteNumber":50,"velocity":76,"programNumber":27},{"time":33851.0660625,"duration":113.6362500000032,"noteNumber":57,"velocity":65,"programNumber":27},{"time":33987.42956250001,"duration":113.6362500000032,"noteNumber":62,"velocity":65,"programNumber":27},{"time":34123.793062500015,"duration":68.18175000000338,"noteNumber":66,"velocity":65,"programNumber":27},{"time":34396.52006250002,"duration":113.6362500000032,"noteNumber":66,"velocity":76,"programNumber":27},{"time":34669.24706250003,"duration":113.6362500000032,"noteNumber":62,"velocity":65,"programNumber":27},{"time":34941.974062500034,"duration":113.6362500000032,"noteNumber":55,"velocity":65,"programNumber":27},{"time":35214.70106250004,"duration":113.6362500000032,"noteNumber":53,"velocity":76,"programNumber":27},{"time":35487.42806250005,"duration":113.6362500000032,"noteNumber":57,"velocity":65,"programNumber":27},{"time":35623.79156250005,"duration":113.6362500000032,"noteNumber":60,"velocity":65,"programNumber":27},{"time":35760.15506250006,"duration":113.6362500000032,"noteNumber":60,"velocity":65,"programNumber":27},{"time":36032.882062500066,"duration":113.6362500000032,"noteNumber":65,"velocity":76,"programNumber":27},{"time":36305.60906250007,"duration":113.6362500000032,"noteNumber":57,"velocity":65,"programNumber":27},{"time":36578.33606250008,"duration":113.6362500000032,"noteNumber":55,"velocity":65,"programNumber":27},{"time":36851.063062500085,"duration":68.18175000000338,"noteNumber":45,"velocity":76,"programNumber":27},{"time":37123.79006250009,"duration":113.6362500000032,"noteNumber":52,"velocity":65,"programNumber":27},{"time":37260.1535625001,"duration":113.6362500000032,"noteNumber":57,"velocity":65,"programNumber":27},{"time":37396.517062500105,"duration":113.6362500000032,"noteNumber":60,"velocity":65,"programNumber":27},{"time":37669.24406250011,"duration":113.6362500000032,"noteNumber":64,"velocity":76,"programNumber":27},{"time":37941.97106250012,"duration":68.18175000000338,"noteNumber":60,"velocity":65,"programNumber":27},{"time":38214.69806250012,"duration":113.6362500000032,"noteNumber":55,"velocity":65,"programNumber":27},{"time":38487.42506250013,"duration":68.18175000000338,"noteNumber":40,"velocity":76,"programNumber":27},{"time":38760.152062500136,"duration":113.6362500000032,"noteNumber":47,"velocity":65,"programNumber":27},{"time":38896.51556250014,"duration":113.6362500000032,"noteNumber":52,"velocity":65,"programNumber":27},{"time":39032.87906250015,"duration":113.6362500000032,"noteNumber":56,"velocity":65,"programNumber":27},{"time":39123.78806250015,"duration":113.6362500000032,"noteNumber":59,"velocity":65,"programNumber":27},{"time":39305.606062500156,"duration":68.18175000000338,"noteNumber":64,"velocity":76,"programNumber":27},{"time":39578.33306250016,"duration":113.6362500000032,"noteNumber":59,"velocity":65,"programNumber":27},{"time":39851.06006250017,"duration":113.6362500000032,"noteNumber":55,"velocity":65,"programNumber":27},{"time":40123.787062500174,"duration":68.18175000000338,"noteNumber":45,"velocity":76,"programNumber":27},{"time":40396.51406250018,"duration":113.6362500000032,"noteNumber":52,"velocity":65,"programNumber":27},{"time":40532.87756250019,"duration":113.6362500000032,"noteNumber":57,"velocity":65,"programNumber":27},{"time":40669.241062500194,"duration":113.6362500000032,"noteNumber":60,"velocity":65,"programNumber":27},{"time":40941.9680625002,"duration":113.6362500000032,"noteNumber":64,"velocity":76,"programNumber":27},{"time":41214.69506250021,"duration":113.6362500000032,"noteNumber":60,"velocity":65,"programNumber":27},{"time":41487.42206250021,"duration":113.6362500000032,"noteNumber":55,"velocity":65,"programNumber":27},{"time":41760.14906250022,"duration":113.6362500000032,"noteNumber":48,"velocity":76,"programNumber":27},{"time":42032.876062500225,"duration":113.6362500000032,"noteNumber":52,"velocity":65,"programNumber":27},{"time":42169.23956250023,"duration":113.6362500000032,"noteNumber":55,"velocity":65,"programNumber":27},{"time":42305.60306250024,"duration":113.6362500000032,"noteNumber":60,"velocity":65,"programNumber":27},{"time":42578.330062500245,"duration":113.6362500000032,"noteNumber":64,"velocity":76,"programNumber":27},{"time":42851.05706250025,"duration":113.6362500000032,"noteNumber":60,"velocity":65,"programNumber":27},{"time":43123.78406250026,"duration":113.6362500000032,"noteNumber":55,"velocity":65,"programNumber":27},{"time":43396.51106250026,"duration":113.6362500000032,"noteNumber":50,"velocity":76,"programNumber":27},{"time":43669.23806250027,"duration":113.6362500000032,"noteNumber":57,"velocity":65,"programNumber":27},{"time":43805.60156250028,"duration":113.6362500000032,"noteNumber":62,"velocity":65,"programNumber":27},{"time":43941.96506250028,"duration":68.18175000000338,"noteNumber":66,"velocity":65,"programNumber":27},{"time":44214.69206250029,"duration":113.6362500000032,"noteNumber":66,"velocity":76,"programNumber":27},{"time":44487.419062500296,"duration":113.6362500000032,"noteNumber":62,"velocity":65,"programNumber":27},{"time":44760.1460625003,"duration":113.6362500000032,"noteNumber":55,"velocity":65,"programNumber":27},{"time":45032.87306250031,"duration":113.6362500000032,"noteNumber":53,"velocity":76,"programNumber":27},{"time":45305.600062500314,"duration":113.6362500000032,"noteNumber":57,"velocity":65,"programNumber":27},{"time":45441.96356250032,"duration":113.6362500000032,"noteNumber":60,"velocity":65,"programNumber":27},{"time":45578.32706250033,"duration":113.6362500000032,"noteNumber":60,"velocity":65,"programNumber":27},{"time":45851.054062500334,"duration":113.6362500000032,"noteNumber":65,"velocity":76,"programNumber":27},{"time":46123.78106250034,"duration":113.6362500000032,"noteNumber":57,"velocity":65,"programNumber":27},{"time":46396.50806250035,"duration":113.6362500000032,"noteNumber":55,"velocity":65,"programNumber":27},{"time":46669.23506250035,"duration":68.18175000000338,"noteNumber":45,"velocity":76,"programNumber":27},{"time":46941.96206250036,"duration":113.6362500000032,"noteNumber":52,"velocity":65,"programNumber":27},{"time":47078.325562500366,"duration":113.6362500000032,"noteNumber":57,"velocity":65,"programNumber":27},{"time":47214.68906250037,"duration":113.6362500000032,"noteNumber":60,"velocity":65,"programNumber":27},{"time":47487.41606250038,"duration":113.6362500000032,"noteNumber":64,"velocity":76,"programNumber":27},{"time":47760.143062500385,"duration":68.18175000000338,"noteNumber":60,"velocity":65,"programNumber":27},{"time":48032.87006250039,"duration":113.6362500000032,"noteNumber":55,"velocity":65,"programNumber":27},{"time":48305.5970625004,"duration":68.18175000000338,"noteNumber":40,"velocity":76,"programNumber":27},{"time":48578.324062500404,"duration":113.6362500000032,"noteNumber":47,"velocity":65,"programNumber":27},{"time":48714.68756250041,"duration":113.6362500000032,"noteNumber":52,"velocity":65,"programNumber":27},{"time":48851.05106250042,"duration":113.6362500000032,"noteNumber":56,"velocity":65,"programNumber":27},{"time":48941.96006250042,"duration":113.6362500000032,"noteNumber":59,"velocity":65,"programNumber":27},{"time":49123.77806250042,"duration":68.18175000000338,"noteNumber":64,"velocity":76,"programNumber":27},{"time":49396.50506250043,"duration":113.6362500000032,"noteNumber":59,"velocity":65,"programNumber":27},{"time":49669.232062500436,"duration":113.6362500000032,"noteNumber":55,"velocity":65,"programNumber":27},{"time":49941.95906250044,"duration":68.18175000000338,"noteNumber":45,"velocity":76,"programNumber":27},{"time":50214.68606250045,"duration":113.6362500000032,"noteNumber":52,"velocity":65,"programNumber":27},{"time":50351.049562500455,"duration":113.6362500000032,"noteNumber":57,"velocity":65,"programNumber":27},{"time":50487.41306250046,"duration":113.6362500000032,"noteNumber":60,"velocity":65,"programNumber":27},{"time":50760.14006250047,"duration":113.6362500000032,"noteNumber":64,"velocity":76,"programNumber":27},{"time":51032.867062500474,"duration":68.18175000000338,"noteNumber":60,"velocity":65,"programNumber":27},{"time":51305.59406250048,"duration":113.6362500000032,"noteNumber":55,"velocity":65,"programNumber":27},{"time":51578.32106250049,"duration":68.18175000000338,"noteNumber":40,"velocity":76,"programNumber":27},{"time":51851.04806250049,"duration":113.6362500000032,"noteNumber":47,"velocity":65,"programNumber":27},{"time":51987.4115625005,"duration":113.6362500000032,"noteNumber":52,"velocity":65,"programNumber":27},{"time":52123.77506250051,"duration":113.6362500000032,"noteNumber":56,"velocity":65,"programNumber":27},{"time":52214.684062500506,"duration":113.6362500000032,"noteNumber":59,"velocity":65,"programNumber":27},{"time":52396.50206250051,"duration":68.18175000000338,"noteNumber":64,"velocity":76,"programNumber":27},{"time":52669.22906250052,"duration":113.6362500000032,"noteNumber":59,"velocity":65,"programNumber":27},{"time":52941.956062500525,"duration":113.6362500000032,"noteNumber":55,"velocity":65,"programNumber":27},{"time":53214.68306250053,"duration":68.18175000000338,"noteNumber":45,"velocity":76,"programNumber":27},{"time":53487.41006250054,"duration":113.6362500000032,"noteNumber":52,"velocity":65,"programNumber":27},{"time":53623.773562500544,"duration":113.6362500000032,"noteNumber":57,"velocity":65,"programNumber":27},{"time":53760.13706250055,"duration":113.6362500000032,"noteNumber":60,"velocity":65,"programNumber":27},{"time":54032.86406250056,"duration":113.6362500000032,"noteNumber":64,"velocity":76,"programNumber":27},{"time":54305.59106250056,"duration":113.6362500000032,"noteNumber":60,"velocity":65,"programNumber":27},{"time":54578.31806250057,"duration":113.6362500000032,"noteNumber":55,"velocity":65,"programNumber":27},{"time":54851.045062500576,"duration":113.6362500000032,"noteNumber":48,"velocity":76,"programNumber":27},{"time":55123.77206250058,"duration":113.6362500000032,"noteNumber":52,"velocity":65,"programNumber":27},{"time":55260.13556250059,"duration":113.6362500000032,"noteNumber":55,"velocity":65,"programNumber":27},{"time":55396.499062500596,"duration":113.6362500000032,"noteNumber":60,"velocity":65,"programNumber":27},{"time":55669.2260625006,"duration":113.6362500000032,"noteNumber":64,"velocity":76,"programNumber":27},{"time":55941.95306250061,"duration":113.6362500000032,"noteNumber":60,"velocity":65,"programNumber":27},{"time":56214.680062500614,"duration":113.6362500000032,"noteNumber":55,"velocity":65,"programNumber":27},{"time":56487.40706250062,"duration":113.6362500000032,"noteNumber":50,"velocity":76,"programNumber":27},{"time":56760.13406250063,"duration":113.6362500000032,"noteNumber":57,"velocity":65,"programNumber":27},{"time":56896.497562500634,"duration":113.6362500000032,"noteNumber":62,"velocity":65,"programNumber":27},{"time":57032.86106250064,"duration":68.18175000000338,"noteNumber":66,"velocity":65,"programNumber":27},{"time":57305.58806250065,"duration":113.6362500000032,"noteNumber":66,"velocity":76,"programNumber":27},{"time":57578.31506250065,"duration":113.6362500000032,"noteNumber":62,"velocity":65,"programNumber":27},{"time":57851.04206250066,"duration":113.6362500000032,"noteNumber":55,"velocity":65,"programNumber":27},{"time":58123.769062500665,"duration":113.6362500000032,"noteNumber":53,"velocity":76,"programNumber":27},{"time":58396.49606250067,"duration":113.6362500000032,"noteNumber":57,"velocity":65,"programNumber":27},{"time":58532.85956250068,"duration":113.6362500000032,"noteNumber":60,"velocity":65,"programNumber":27},{"time":58669.223062500685,"duration":113.6362500000032,"noteNumber":60,"velocity":65,"programNumber":27},{"time":58941.95006250069,"duration":113.6362500000032,"noteNumber":65,"velocity":76,"programNumber":27},{"time":59214.6770625007,"duration":113.6362500000032,"noteNumber":57,"velocity":65,"programNumber":27},{"time":59487.404062500704,"duration":113.6362500000032,"noteNumber":55,"velocity":65,"programNumber":27},{"time":59760.13106250071,"duration":68.18175000000338,"noteNumber":45,"velocity":76,"programNumber":27},{"time":60032.858062500716,"duration":113.6362500000032,"noteNumber":52,"velocity":65,"programNumber":27},{"time":60169.22156250072,"duration":113.6362500000032,"noteNumber":57,"velocity":65,"programNumber":27},{"time":60305.58506250073,"duration":113.6362500000032,"noteNumber":60,"velocity":65,"programNumber":27},{"time":60578.312062500736,"duration":113.6362500000032,"noteNumber":64,"velocity":76,"programNumber":27},{"time":60851.03906250074,"duration":113.6362500000032,"noteNumber":60,"velocity":65,"programNumber":27},{"time":61123.76606250075,"duration":113.6362500000032,"noteNumber":55,"velocity":65,"programNumber":27},{"time":61396.493062500755,"duration":113.6362500000032,"noteNumber":48,"velocity":76,"programNumber":27},{"time":61669.22006250076,"duration":113.6362500000032,"noteNumber":52,"velocity":65,"programNumber":27},{"time":61805.58356250077,"duration":113.6362500000032,"noteNumber":55,"velocity":65,"programNumber":27},{"time":61941.947062500774,"duration":113.6362500000032,"noteNumber":60,"velocity":65,"programNumber":27},{"time":62214.67406250078,"duration":113.6362500000032,"noteNumber":64,"velocity":76,"programNumber":27},{"time":62487.40106250079,"duration":113.6362500000032,"noteNumber":60,"velocity":65,"programNumber":27},{"time":62760.12806250079,"duration":113.6362500000032,"noteNumber":55,"velocity":65,"programNumber":27},{"time":63032.8550625008,"duration":68.18175000000338,"noteNumber":40,"velocity":76,"programNumber":27},{"time":63305.582062500805,"duration":113.6362500000032,"noteNumber":47,"velocity":65,"programNumber":27},{"time":63441.94556250081,"duration":113.6362500000032,"noteNumber":52,"velocity":65,"programNumber":27},{"time":63578.30906250082,"duration":113.6362500000032,"noteNumber":56,"velocity":65,"programNumber":27},{"time":63669.21806250082,"duration":113.6362500000032,"noteNumber":59,"velocity":65,"programNumber":27},{"time":63851.036062500825,"duration":68.18175000000338,"noteNumber":64,"velocity":76,"programNumber":27},{"time":64123.76306250083,"duration":113.6362500000032,"noteNumber":56,"velocity":65,"programNumber":27},{"time":64396.49006250084,"duration":113.6362500000032,"noteNumber":52,"velocity":65,"programNumber":27},{"time":64669.217062500844,"duration":68.18175000000338,"noteNumber":40,"velocity":76,"programNumber":27},{"time":64941.94406250085,"duration":113.6362500000032,"noteNumber":47,"velocity":65,"programNumber":27},{"time":65078.30756250086,"duration":113.6362500000032,"noteNumber":52,"velocity":65,"programNumber":27},{"time":65214.67106250086,"duration":113.6362500000032,"noteNumber":56,"velocity":65,"programNumber":27},{"time":65305.58006250086,"duration":113.6362500000032,"noteNumber":59,"velocity":65,"programNumber":27},{"time":65487.39806250087,"duration":68.18175000000338,"noteNumber":64,"velocity":76,"programNumber":27},{"time":65760.12506250087,"duration":113.63624999999593,"noteNumber":59,"velocity":65,"programNumber":27},{"time":66032.85206250087,"duration":113.63624999999593,"noteNumber":55,"velocity":65,"programNumber":27},{"time":66305.57906250087,"duration":68.18175000000338,"noteNumber":45,"velocity":76,"programNumber":27},{"time":66578.30606250087,"duration":113.63624999999593,"noteNumber":52,"velocity":65,"programNumber":27},{"time":66714.66956250086,"duration":113.63624999999593,"noteNumber":57,"velocity":65,"programNumber":27},{"time":66851.03306250085,"duration":113.63624999999593,"noteNumber":60,"velocity":65,"programNumber":27},{"time":67123.76006250085,"duration":113.63624999999593,"noteNumber":64,"velocity":76,"programNumber":27},{"time":67396.48706250085,"duration":113.63624999999593,"noteNumber":60,"velocity":65,"programNumber":27},{"time":67669.21406250085,"duration":113.63624999999593,"noteNumber":55,"velocity":65,"programNumber":27},{"time":67941.94106250085,"duration":113.63624999999593,"noteNumber":48,"velocity":76,"programNumber":27},{"time":68214.66806250084,"duration":113.63624999999593,"noteNumber":52,"velocity":65,"programNumber":27},{"time":68351.03156250084,"duration":113.63624999999593,"noteNumber":55,"velocity":65,"programNumber":27},{"time":68487.39506250083,"duration":113.63624999999593,"noteNumber":60,"velocity":65,"programNumber":27},{"time":68760.12206250083,"duration":113.63624999999593,"noteNumber":64,"velocity":76,"programNumber":27},{"time":69032.84906250083,"duration":113.63624999999593,"noteNumber":60,"velocity":65,"programNumber":27},{"time":69305.57606250083,"duration":113.63624999999593,"noteNumber":55,"velocity":65,"programNumber":27},{"time":69578.30306250083,"duration":113.63624999999593,"noteNumber":50,"velocity":76,"programNumber":27},{"time":69851.03006250082,"duration":113.63624999999593,"noteNumber":57,"velocity":65,"programNumber":27},{"time":69987.39356250082,"duration":113.63624999999593,"noteNumber":62,"velocity":65,"programNumber":27},{"time":70123.75706250081,"duration":68.18175000000338,"noteNumber":66,"velocity":65,"programNumber":27},{"time":70396.48406250081,"duration":113.63624999999593,"noteNumber":66,"velocity":76,"programNumber":27},{"time":70669.2110625008,"duration":113.63624999999593,"noteNumber":62,"velocity":65,"programNumber":27},{"time":70941.9380625008,"duration":113.63624999999593,"noteNumber":55,"velocity":65,"programNumber":27},{"time":71214.6650625008,"duration":113.63624999999593,"noteNumber":53,"velocity":76,"programNumber":27},{"time":71487.3920625008,"duration":113.63624999999593,"noteNumber":57,"velocity":65,"programNumber":27},{"time":71623.7555625008,"duration":113.63624999999593,"noteNumber":60,"velocity":65,"programNumber":27},{"time":71760.11906250079,"duration":113.63624999999593,"noteNumber":60,"velocity":65,"programNumber":27},{"time":72032.84606250079,"duration":113.63624999999593,"noteNumber":65,"velocity":76,"programNumber":27},{"time":72305.57306250079,"duration":113.63624999999593,"noteNumber":57,"velocity":65,"programNumber":27},{"time":72578.30006250078,"duration":113.63624999999593,"noteNumber":55,"velocity":65,"programNumber":27},{"time":72851.02706250078,"duration":68.18175000000338,"noteNumber":45,"velocity":76,"programNumber":27},{"time":73123.75406250078,"duration":113.63624999999593,"noteNumber":52,"velocity":65,"programNumber":27},{"time":73260.11756250077,"duration":113.63624999999593,"noteNumber":57,"velocity":65,"programNumber":27},{"time":73396.48106250077,"duration":113.63624999999593,"noteNumber":60,"velocity":65,"programNumber":27},{"time":73669.20806250077,"duration":113.63624999999593,"noteNumber":64,"velocity":76,"programNumber":27},{"time":73941.93506250076,"duration":68.18175000000338,"noteNumber":60,"velocity":65,"programNumber":27},{"time":74214.66206250076,"duration":113.63624999999593,"noteNumber":55,"velocity":65,"programNumber":27},{"time":74487.38906250076,"duration":68.18175000000338,"noteNumber":40,"velocity":76,"programNumber":27},{"time":74760.11606250076,"duration":113.63624999999593,"noteNumber":47,"velocity":65,"programNumber":27},{"time":74896.47956250075,"duration":113.63624999999593,"noteNumber":52,"velocity":65,"programNumber":27},{"time":75032.84306250075,"duration":113.63624999999593,"noteNumber":56,"velocity":65,"programNumber":27},{"time":75123.75206250075,"duration":113.63624999999593,"noteNumber":59,"velocity":65,"programNumber":27},{"time":75305.57006250074,"duration":68.18175000000338,"noteNumber":64,"velocity":76,"programNumber":27},{"time":75578.29706250074,"duration":113.63624999999593,"noteNumber":59,"velocity":65,"programNumber":27},{"time":75851.02406250074,"duration":113.63624999999593,"noteNumber":55,"velocity":65,"programNumber":27},{"time":76123.75106250074,"duration":68.18175000000338,"noteNumber":45,"velocity":76,"programNumber":27},{"time":76396.47806250074,"duration":113.63624999999593,"noteNumber":52,"velocity":65,"programNumber":27},{"time":76532.84156250073,"duration":113.63624999999593,"noteNumber":57,"velocity":65,"programNumber":27},{"time":76669.20506250073,"duration":113.63624999999593,"noteNumber":60,"velocity":65,"programNumber":27},{"time":76941.93206250072,"duration":113.63624999999593,"noteNumber":64,"velocity":76,"programNumber":27},{"time":77214.65906250072,"duration":113.63624999999593,"noteNumber":60,"velocity":65,"programNumber":27},{"time":77487.38606250072,"duration":113.63624999999593,"noteNumber":55,"velocity":65,"programNumber":27},{"time":77760.11306250072,"duration":113.63624999999593,"noteNumber":48,"velocity":76,"programNumber":27},{"time":78032.84006250072,"duration":113.63624999999593,"noteNumber":52,"velocity":65,"programNumber":27},{"time":78169.20356250071,"duration":113.63624999999593,"noteNumber":55,"velocity":65,"programNumber":27},{"time":78305.5670625007,"duration":113.63624999999593,"noteNumber":60,"velocity":65,"programNumber":27},{"time":78578.2940625007,"duration":113.63624999999593,"noteNumber":64,"velocity":76,"programNumber":27},{"time":78851.0210625007,"duration":113.63624999999593,"noteNumber":60,"velocity":65,"programNumber":27},{"time":79123.7480625007,"duration":113.63624999999593,"noteNumber":55,"velocity":65,"programNumber":27},{"time":79396.4750625007,"duration":113.63624999999593,"noteNumber":50,"velocity":76,"programNumber":27},{"time":79669.2020625007,"duration":113.63624999999593,"noteNumber":57,"velocity":65,"programNumber":27},{"time":79805.56556250069,"duration":113.63624999999593,"noteNumber":62,"velocity":65,"programNumber":27},{"time":79941.92906250068,"duration":68.18175000000338,"noteNumber":66,"velocity":65,"programNumber":27},{"time":80214.65606250068,"duration":113.63624999999593,"noteNumber":66,"velocity":76,"programNumber":27},{"time":80487.38306250068,"duration":113.63624999999593,"noteNumber":62,"velocity":65,"programNumber":27},{"time":80760.11006250068,"duration":113.63624999999593,"noteNumber":55,"velocity":65,"programNumber":27},{"time":81032.83706250068,"duration":113.63624999999593,"noteNumber":53,"velocity":76,"programNumber":27},{"time":81305.56406250068,"duration":113.63624999999593,"noteNumber":57,"velocity":65,"programNumber":27},{"time":81441.92756250067,"duration":113.63624999999593,"noteNumber":60,"velocity":65,"programNumber":27},{"time":81578.29106250066,"duration":113.63624999999593,"noteNumber":60,"velocity":65,"programNumber":27},{"time":81851.01806250066,"duration":113.63624999999593,"noteNumber":65,"velocity":76,"programNumber":27},{"time":82123.74506250066,"duration":113.63624999999593,"noteNumber":57,"velocity":65,"programNumber":27},{"time":82396.47206250066,"duration":113.63624999999593,"noteNumber":55,"velocity":65,"programNumber":27},{"time":82669.19906250066,"duration":68.18175000000338,"noteNumber":45,"velocity":76,"programNumber":27},{"time":82941.92606250066,"duration":113.63624999999593,"noteNumber":52,"velocity":65,"programNumber":27},{"time":83078.28956250065,"duration":113.63624999999593,"noteNumber":57,"velocity":65,"programNumber":27},{"time":83214.65306250064,"duration":113.63624999999593,"noteNumber":60,"velocity":65,"programNumber":27},{"time":83487.38006250064,"duration":113.63624999999593,"noteNumber":64,"velocity":76,"programNumber":27},{"time":83760.10706250064,"duration":68.18175000000338,"noteNumber":60,"velocity":65,"programNumber":27},{"time":84032.83406250064,"duration":113.63624999999593,"noteNumber":55,"velocity":65,"programNumber":27},{"time":84305.56106250064,"duration":68.18175000000338,"noteNumber":40,"velocity":76,"programNumber":27},{"time":84578.28806250064,"duration":113.63624999999593,"noteNumber":47,"velocity":65,"programNumber":27},{"time":84714.65156250063,"duration":113.63624999999593,"noteNumber":52,"velocity":65,"programNumber":27},{"time":84851.01506250062,"duration":113.63624999999593,"noteNumber":56,"velocity":65,"programNumber":27},{"time":84941.92406250062,"duration":113.63624999999593,"noteNumber":59,"velocity":65,"programNumber":27},{"time":85123.74206250062,"duration":68.18175000000338,"noteNumber":64,"velocity":76,"programNumber":27},{"time":85396.46906250062,"duration":113.63624999999593,"noteNumber":59,"velocity":65,"programNumber":27},{"time":85669.19606250062,"duration":113.63624999999593,"noteNumber":55,"velocity":65,"programNumber":27},{"time":85941.92306250062,"duration":68.18175000000338,"noteNumber":45,"velocity":76,"programNumber":27},{"time":86214.65006250062,"duration":113.63624999999593,"noteNumber":52,"velocity":65,"programNumber":27},{"time":86351.01356250061,"duration":113.63624999999593,"noteNumber":57,"velocity":65,"programNumber":27},{"time":86487.3770625006,"duration":113.63624999999593,"noteNumber":60,"velocity":65,"programNumber":27},{"time":86760.1040625006,"duration":113.63624999999593,"noteNumber":64,"velocity":76,"programNumber":27},{"time":87032.8310625006,"duration":68.18175000000338,"noteNumber":60,"velocity":65,"programNumber":27},{"time":87305.5580625006,"duration":113.63624999999593,"noteNumber":55,"velocity":65,"programNumber":27},{"time":87578.2850625006,"duration":68.18175000000338,"noteNumber":40,"velocity":76,"programNumber":27},{"time":87851.0120625006,"duration":113.63624999999593,"noteNumber":47,"velocity":65,"programNumber":27},{"time":87987.37556250059,"duration":113.63624999999593,"noteNumber":52,"velocity":65,"programNumber":27},{"time":88123.73906250058,"duration":113.63624999999593,"noteNumber":56,"velocity":65,"programNumber":27},{"time":88214.64806250058,"duration":113.63624999999593,"noteNumber":59,"velocity":65,"programNumber":27},{"time":88396.46606250058,"duration":68.18175000000338,"noteNumber":64,"velocity":76,"programNumber":27},{"time":88669.19306250058,"duration":113.63624999999593,"noteNumber":59,"velocity":65,"programNumber":27},{"time":88941.92006250058,"duration":113.63624999999593,"noteNumber":55,"velocity":65,"programNumber":27},{"time":89214.64706250057,"duration":68.18175000000338,"noteNumber":45,"velocity":76,"programNumber":27},{"time":89487.37406250057,"duration":113.63624999999593,"noteNumber":52,"velocity":65,"programNumber":27},{"time":89623.73756250057,"duration":113.63624999999593,"noteNumber":57,"velocity":65,"programNumber":27},{"time":89760.10106250056,"duration":113.63624999999593,"noteNumber":60,"velocity":65,"programNumber":27},{"time":90032.82806250056,"duration":113.63624999999593,"noteNumber":64,"velocity":76,"programNumber":27},{"time":90305.55506250056,"duration":113.63624999999593,"noteNumber":60,"velocity":65,"programNumber":27},{"time":90578.28206250056,"duration":113.63624999999593,"noteNumber":55,"velocity":65,"programNumber":27},{"time":90851.00906250055,"duration":113.63624999999593,"noteNumber":48,"velocity":76,"programNumber":27},{"time":91123.73606250055,"duration":113.63624999999593,"noteNumber":52,"velocity":65,"programNumber":27},{"time":91260.09956250055,"duration":113.63624999999593,"noteNumber":55,"velocity":65,"programNumber":27},{"time":91396.46306250054,"duration":113.63624999999593,"noteNumber":60,"velocity":65,"programNumber":27},{"time":91669.19006250054,"duration":113.63624999999593,"noteNumber":64,"velocity":76,"programNumber":27},{"time":91941.91706250054,"duration":113.63624999999593,"noteNumber":60,"velocity":65,"programNumber":27},{"time":92214.64406250053,"duration":113.63624999999593,"noteNumber":55,"velocity":65,"programNumber":27},{"time":92487.37106250053,"duration":113.63624999999593,"noteNumber":50,"velocity":76,"programNumber":27},{"time":92760.09806250053,"duration":113.63624999999593,"noteNumber":57,"velocity":65,"programNumber":27},{"time":92896.46156250052,"duration":113.63624999999593,"noteNumber":62,"velocity":65,"programNumber":27},{"time":93032.82506250052,"duration":68.18175000000338,"noteNumber":66,"velocity":65,"programNumber":27},{"time":93305.55206250052,"duration":113.63624999999593,"noteNumber":66,"velocity":76,"programNumber":27},{"time":93578.27906250051,"duration":113.63624999999593,"noteNumber":62,"velocity":65,"programNumber":27},{"time":93851.00606250051,"duration":113.63624999999593,"noteNumber":55,"velocity":65,"programNumber":27},{"time":94123.73306250051,"duration":113.63624999999593,"noteNumber":53,"velocity":76,"programNumber":27},{"time":94396.46006250051,"duration":113.63624999999593,"noteNumber":57,"velocity":65,"programNumber":27},{"time":94532.8235625005,"duration":113.63624999999593,"noteNumber":60,"velocity":65,"programNumber":27},{"time":94669.1870625005,"duration":113.63624999999593,"noteNumber":60,"velocity":65,"programNumber":27},{"time":94941.9140625005,"duration":113.63624999999593,"noteNumber":65,"velocity":76,"programNumber":27},{"time":95207.72418750048,"duration":113.63624999999593,"noteNumber":57,"velocity":65,"programNumber":27},{"time":95480.45118750048,"duration":108.69562499999302,"noteNumber":55,"velocity":65,"programNumber":27},{"time":95742.30881250047,"duration":70.7546250000014,"noteNumber":45,"velocity":76,"programNumber":27},{"time":96033.65156250047,"duration":127.55083333332732,"noteNumber":52,"velocity":65,"programNumber":27},{"time":96187.24406250047,"duration":140.4493749999965,"noteNumber":57,"velocity":65,"programNumber":27},{"time":96379.77677083379,"duration":140.4493749999965,"noteNumber":60,"velocity":65,"programNumber":27},{"time":96708.39810416712,"duration":134.40854166666395,"noteNumber":64,"velocity":76,"programNumber":27},{"time":97030.97860416712,"duration":134.40854166666395,"noteNumber":60,"velocity":65,"programNumber":27},{"time":97353.55910416711,"duration":134.40854166666395,"noteNumber":55,"velocity":65,"programNumber":27},{"time":97676.13960416711,"duration":134.40854166666395,"noteNumber":48,"velocity":76,"programNumber":27},{"time":97998.7201041671,"duration":134.40854166666395,"noteNumber":52,"velocity":65,"programNumber":27},{"time":98160.0103541671,"duration":134.40854166666395,"noteNumber":55,"velocity":65,"programNumber":27},{"time":98321.30060416709,"duration":134.40854166666395,"noteNumber":60,"velocity":65,"programNumber":27},{"time":98643.88110416709,"duration":134.40854166666395,"noteNumber":64,"velocity":76,"programNumber":27},{"time":98966.46160416708,"duration":134.40854166666395,"noteNumber":60,"velocity":65,"programNumber":27},{"time":99289.04210416708,"duration":134.40854166666395,"noteNumber":55,"velocity":65,"programNumber":27},{"time":99569.28397916707,"duration":64.65512500000477,"noteNumber":40,"velocity":76,"programNumber":27},{"time":99831.30722916707,"duration":111.60708333333605,"noteNumber":47,"velocity":65,"programNumber":27},{"time":99965.6415625004,"duration":115.74062500000582,"noteNumber":52,"velocity":65,"programNumber":27},{"time":100104.96706250041,"duration":120.66362500000105,"noteNumber":56,"velocity":65,"programNumber":27},{"time":100201.12089583374,"duration":124.50979166667094,"noteNumber":59,"velocity":65,"programNumber":27},{"time":100402.1611875004,"duration":78.125,"noteNumber":64,"velocity":76,"programNumber":27},{"time":100719.6475625004,"duration":135.86937499999476,"noteNumber":56,"velocity":65,"programNumber":27},{"time":101049.96118750039,"duration":142.04541666666046,"noteNumber":52,"velocity":65,"programNumber":27},{"time":101396.18697916705,"duration":93.75,"noteNumber":40,"velocity":76,"programNumber":27},{"time":101778.39822916704,"duration":164.47354166666628,"noteNumber":47,"velocity":65,"programNumber":27},{"time":101976.65552083371,"duration":173.61104166666337,"noteNumber":52,"velocity":65,"programNumber":27},{"time":102185.98081250038,"duration":149.5352916666743,"noteNumber":56,"velocity":65,"programNumber":27},{"time":102305.02831250038,"duration":155.48779166667373,"noteNumber":59,"velocity":65,"programNumber":27},{"time":102556.66985416705,"duration":98.68412499999977,"noteNumber":64,"velocity":76,"programNumber":27},{"time":102959.40772916705,"duration":173.61104166666337,"noteNumber":59,"velocity":65,"programNumber":27},{"time":103383.01852083372,"duration":148.8093749999971,"noteNumber":55,"velocity":65,"programNumber":27},{"time":103746.00464583372,"duration":98.68412499999977,"noteNumber":45,"velocity":76,"programNumber":27},{"time":104148.74252083372,"duration":173.61104166666337,"noteNumber":52,"velocity":65,"programNumber":27},{"time":104358.06781250039,"duration":148.8093749999971,"noteNumber":57,"velocity":65,"programNumber":27},{"time":104537.36497916706,"duration":156.25,"noteNumber":60,"velocity":65,"programNumber":27},{"time":104917.97372916706,"duration":164.47354166666628,"noteNumber":64,"velocity":76,"programNumber":27},{"time":105318.93352083373,"duration":173.61104166666337,"noteNumber":60,"velocity":65,"programNumber":27},{"time":105742.5443125004,"duration":148.8093749999971,"noteNumber":55,"velocity":65,"programNumber":27},{"time":106105.53043750039,"duration":164.47354166666628,"noteNumber":48,"velocity":76,"programNumber":27},{"time":106506.49022916706,"duration":173.61104166666337,"noteNumber":52,"velocity":65,"programNumber":27},{"time":106715.81552083373,"duration":178.5712499999936,"noteNumber":55,"velocity":65,"programNumber":27},{"time":106930.10102083372,"duration":178.5712499999936,"noteNumber":60,"velocity":65,"programNumber":27},{"time":107358.67202083372,"duration":178.5712499999936,"noteNumber":64,"velocity":76,"programNumber":27},{"time":107787.24302083372,"duration":178.5712499999936,"noteNumber":60,"velocity":65,"programNumber":27},{"time":108215.81402083371,"duration":178.5712499999936,"noteNumber":55,"velocity":65,"programNumber":27},{"time":108644.38502083371,"duration":178.5712499999936,"noteNumber":50,"velocity":76,"programNumber":27},{"time":109072.9560208337,"duration":178.5712499999936,"noteNumber":57,"velocity":65,"programNumber":27},{"time":109287.2415208337,"duration":178.5712499999936,"noteNumber":62,"velocity":65,"programNumber":27},{"time":109501.5270208337,"duration":107.14274999999907,"noteNumber":66,"velocity":65,"programNumber":27},{"time":109930.0980208337,"duration":178.5712499999936,"noteNumber":66,"velocity":76,"programNumber":27},{"time":110358.6690208337,"duration":178.5712499999936,"noteNumber":62,"velocity":65,"programNumber":27},{"time":110787.24002083369,"duration":178.5712499999936,"noteNumber":55,"velocity":65,"programNumber":27},{"time":111215.81102083369,"duration":178.5712499999936,"noteNumber":53,"velocity":76,"programNumber":27},{"time":111644.38202083368,"duration":178.5712499999936,"noteNumber":57,"velocity":65,"programNumber":27},{"time":111858.66752083368,"duration":178.5712499999936,"noteNumber":60,"velocity":65,"programNumber":27},{"time":112072.95302083368,"duration":178.5712499999936,"noteNumber":60,"velocity":65,"programNumber":27},{"time":112501.52402083368,"duration":178.5712499999936,"noteNumber":65,"velocity":76,"programNumber":27},{"time":112930.09502083367,"duration":178.5712499999936,"noteNumber":57,"velocity":65,"programNumber":27},{"time":113358.66602083367,"duration":178.5712499999936,"noteNumber":55,"velocity":65,"programNumber":27},{"time":113787.23702083367,"duration":107.14274999999907,"noteNumber":45,"velocity":76,"programNumber":27},{"time":114215.80802083366,"duration":178.5712499999936,"noteNumber":52,"velocity":65,"programNumber":27},{"time":114430.09352083366,"duration":178.5712499999936,"noteNumber":57,"velocity":65,"programNumber":27},{"time":114644.37902083366,"duration":178.5712499999936,"noteNumber":60,"velocity":65,"programNumber":27},{"time":115072.95002083365,"duration":178.5712499999936,"noteNumber":64,"velocity":76,"programNumber":27},{"time":115501.52102083365,"duration":107.14274999999907,"noteNumber":60,"velocity":65,"programNumber":27},{"time":115930.09202083365,"duration":178.5712499999936,"noteNumber":55,"velocity":65,"programNumber":27},{"time":116358.66302083364,"duration":107.14274999999907,"noteNumber":40,"velocity":76,"programNumber":27},{"time":116787.23402083364,"duration":178.5712499999936,"noteNumber":47,"velocity":65,"programNumber":27},{"time":117001.51952083364,"duration":178.5712499999936,"noteNumber":52,"velocity":65,"programNumber":27},{"time":117215.80502083364,"duration":178.57125000000815,"noteNumber":56,"velocity":65,"programNumber":27},{"time":117358.66202083364,"duration":178.57125000000815,"noteNumber":59,"velocity":65,"programNumber":27},{"time":117644.37602083365,"duration":107.14274999999907,"noteNumber":64,"velocity":76,"programNumber":27},{"time":118072.94702083364,"duration":178.5712499999936,"noteNumber":59,"velocity":65,"programNumber":27},{"time":118501.51802083364,"duration":178.5712499999936,"noteNumber":55,"velocity":65,"programNumber":27},{"time":118930.08902083364,"duration":107.14274999999907,"noteNumber":45,"velocity":76,"programNumber":27},{"time":119358.66002083363,"duration":178.5712499999936,"noteNumber":52,"velocity":65,"programNumber":27},{"time":119572.94552083363,"duration":178.5712499999936,"noteNumber":57,"velocity":65,"programNumber":27},{"time":119787.23102083363,"duration":178.5712499999936,"noteNumber":60,"velocity":65,"programNumber":27},{"time":120215.80202083362,"duration":178.5712499999936,"noteNumber":64,"velocity":76,"programNumber":27},{"time":120644.37302083362,"duration":178.5712499999936,"noteNumber":60,"velocity":65,"programNumber":27},{"time":121072.94402083362,"duration":178.5712499999936,"noteNumber":55,"velocity":65,"programNumber":27},{"time":121501.51502083361,"duration":178.5712499999936,"noteNumber":48,"velocity":76,"programNumber":27},{"time":121930.08602083361,"duration":178.5712499999936,"noteNumber":52,"velocity":65,"programNumber":27},{"time":122144.3715208336,"duration":178.5712499999936,"noteNumber":55,"velocity":65,"programNumber":27},{"time":122358.6570208336,"duration":178.5712499999936,"noteNumber":60,"velocity":65,"programNumber":27},{"time":122787.2280208336,"duration":178.5712499999936,"noteNumber":64,"velocity":76,"programNumber":27},{"time":123215.7990208336,"duration":178.5712499999936,"noteNumber":60,"velocity":65,"programNumber":27},{"time":123644.3700208336,"duration":178.5712499999936,"noteNumber":55,"velocity":65,"programNumber":27},{"time":124072.94102083359,"duration":178.5712499999936,"noteNumber":50,"velocity":76,"programNumber":27},{"time":124501.51202083359,"duration":178.5712499999936,"noteNumber":57,"velocity":65,"programNumber":27},{"time":124715.79752083358,"duration":178.5712499999936,"noteNumber":62,"velocity":65,"programNumber":27},{"time":124930.08302083358,"duration":107.14274999999907,"noteNumber":66,"velocity":65,"programNumber":27},{"time":125358.65402083358,"duration":178.5712499999936,"noteNumber":66,"velocity":76,"programNumber":27},{"time":125787.22502083358,"duration":178.5712499999936,"noteNumber":62,"velocity":65,"programNumber":27},{"time":126215.79602083357,"duration":178.5712499999936,"noteNumber":55,"velocity":65,"programNumber":27},{"time":126644.36702083357,"duration":178.5712499999936,"noteNumber":53,"velocity":76,"programNumber":27},{"time":127072.93802083356,"duration":178.5712499999936,"noteNumber":57,"velocity":65,"programNumber":27},{"time":127287.22352083356,"duration":178.5712499999936,"noteNumber":60,"velocity":65,"programNumber":27},{"time":127501.50902083356,"duration":178.5712499999936,"noteNumber":60,"velocity":65,"programNumber":27},{"time":127930.08002083356,"duration":178.5712499999936,"noteNumber":65,"velocity":76,"programNumber":27},{"time":128361.32958958355,"duration":181.2498187500023,"noteNumber":57,"velocity":65,"programNumber":27},{"time":128796.15058333355,"duration":181.2498187500023,"noteNumber":55,"velocity":65,"programNumber":27},{"time":129231.86443333355,"duration":103.57132499999716,"noteNumber":45,"velocity":76,"programNumber":27},{"time":129647.93544583356,"duration":174.99982500000624,"noteNumber":52,"velocity":65,"programNumber":27},{"time":129858.64952083357,"duration":178.5712499999936,"noteNumber":57,"velocity":65,"programNumber":27},{"time":130072.93502083357,"duration":178.5712499999936,"noteNumber":60,"velocity":65,"programNumber":27},{"time":130501.50602083356,"duration":178.5712499999936,"noteNumber":64,"velocity":76,"programNumber":27},{"time":130930.07702083356,"duration":107.14274999999907,"noteNumber":60,"velocity":65,"programNumber":27},{"time":131358.64802083356,"duration":178.57125000000815,"noteNumber":55,"velocity":65,"programNumber":27},{"time":131787.21902083355,"duration":107.14274999999907,"noteNumber":40,"velocity":76,"programNumber":27},{"time":132215.79002083355,"duration":178.57125000000815,"noteNumber":47,"velocity":65,"programNumber":27},{"time":132430.07552083355,"duration":178.57125000000815,"noteNumber":52,"velocity":65,"programNumber":27},{"time":132644.36102083354,"duration":178.57124999997905,"noteNumber":56,"velocity":65,"programNumber":27},{"time":132787.21802083353,"duration":178.57124999997905,"noteNumber":59,"velocity":65,"programNumber":27},{"time":133072.9320208335,"duration":107.14274999999907,"noteNumber":64,"velocity":76,"programNumber":27},{"time":133501.5030208335,"duration":178.57125000000815,"noteNumber":59,"velocity":65,"programNumber":27},{"time":133930.0740208335,"duration":178.57125000000815,"noteNumber":55,"velocity":65,"programNumber":27},{"time":134358.6450208335,"duration":107.14274999999907,"noteNumber":45,"velocity":76,"programNumber":27},{"time":134787.2160208335,"duration":178.57125000000815,"noteNumber":52,"velocity":65,"programNumber":27},{"time":135001.5015208335,"duration":178.57125000000815,"noteNumber":57,"velocity":65,"programNumber":27},{"time":135215.7870208335,"duration":178.57125000000815,"noteNumber":60,"velocity":65,"programNumber":27},{"time":135644.3580208335,"duration":178.57125000000815,"noteNumber":64,"velocity":76,"programNumber":27},{"time":136072.9290208335,"duration":107.14274999999907,"noteNumber":60,"velocity":65,"programNumber":27},{"time":136501.50002083348,"duration":178.57125000000815,"noteNumber":55,"velocity":65,"programNumber":27},{"time":136930.07102083348,"duration":107.14274999999907,"noteNumber":40,"velocity":76,"programNumber":27},{"time":137358.64202083347,"duration":178.57125000000815,"noteNumber":47,"velocity":65,"programNumber":27},{"time":137572.92752083347,"duration":178.57125000000815,"noteNumber":52,"velocity":65,"programNumber":27},{"time":137787.21302083347,"duration":178.57124999997905,"noteNumber":56,"velocity":65,"programNumber":27},{"time":137930.07002083346,"duration":178.57124999997905,"noteNumber":59,"velocity":65,"programNumber":27},{"time":138215.78402083344,"duration":107.14274999999907,"noteNumber":64,"velocity":76,"programNumber":27},{"time":138644.35502083343,"duration":178.57125000000815,"noteNumber":59,"velocity":65,"programNumber":27},{"time":139072.92602083343,"duration":178.57125000000815,"noteNumber":55,"velocity":65,"programNumber":27},{"time":139501.49702083343,"duration":142.85699999998906,"noteNumber":57,"velocity":65,"programNumber":27},{"time":139501.49702083343,"duration":142.85699999998906,"noteNumber":60,"velocity":65,"programNumber":27},{"time":139501.49702083343,"duration":142.85699999998906,"noteNumber":64,"velocity":65,"programNumber":27},{"time":139930.06802083342,"duration":142.85699999998906,"noteNumber":57,"velocity":65,"programNumber":27},{"time":139930.06802083342,"duration":142.85699999998906,"noteNumber":60,"velocity":65,"programNumber":27},{"time":139930.06802083342,"duration":142.85699999998906,"noteNumber":64,"velocity":65,"programNumber":27},{"time":140358.63902083342,"duration":142.85699999998906,"noteNumber":57,"velocity":65,"programNumber":27},{"time":140358.63902083342,"duration":142.85699999998906,"noteNumber":60,"velocity":65,"programNumber":27},{"time":140358.63902083342,"duration":142.85699999998906,"noteNumber":64,"velocity":65,"programNumber":27},{"time":140787.21002083342,"duration":142.85699999998906,"noteNumber":57,"velocity":65,"programNumber":27},{"time":140787.21002083342,"duration":142.85699999998906,"noteNumber":60,"velocity":65,"programNumber":27},{"time":140787.21002083342,"duration":142.85699999998906,"noteNumber":64,"velocity":65,"programNumber":27},{"time":141215.7810208334,"duration":142.85699999998906,"noteNumber":57,"velocity":65,"programNumber":27},{"time":141215.7810208334,"duration":142.85699999998906,"noteNumber":60,"velocity":65,"programNumber":27},{"time":141215.7810208334,"duration":142.85699999998906,"noteNumber":64,"velocity":65,"programNumber":27},{"time":141644.3520208334,"duration":142.85699999998906,"noteNumber":57,"velocity":65,"programNumber":27},{"time":141644.3520208334,"duration":142.85699999998906,"noteNumber":60,"velocity":65,"programNumber":27},{"time":141644.3520208334,"duration":142.85699999998906,"noteNumber":64,"velocity":65,"programNumber":27},{"time":142072.92302083338,"duration":142.85699999998906,"noteNumber":55,"velocity":65,"programNumber":27},{"time":142072.92302083338,"duration":142.85699999998906,"noteNumber":60,"velocity":65,"programNumber":27},{"time":142072.92302083338,"duration":142.85699999998906,"noteNumber":64,"velocity":65,"programNumber":27},{"time":142501.49402083337,"duration":142.85699999998906,"noteNumber":55,"velocity":65,"programNumber":27},{"time":142501.49402083337,"duration":142.85699999998906,"noteNumber":60,"velocity":65,"programNumber":27},{"time":142501.49402083337,"duration":142.85699999998906,"noteNumber":64,"velocity":65,"programNumber":27},{"time":142930.06502083337,"duration":142.85699999998906,"noteNumber":55,"velocity":65,"programNumber":27},{"time":142930.06502083337,"duration":142.85699999998906,"noteNumber":60,"velocity":65,"programNumber":27},{"time":142930.06502083337,"duration":142.85699999998906,"noteNumber":64,"velocity":65,"programNumber":27},{"time":143358.63602083336,"duration":142.85699999998906,"noteNumber":55,"velocity":65,"programNumber":27},{"time":143358.63602083336,"duration":142.85699999998906,"noteNumber":60,"velocity":65,"programNumber":27},{"time":143358.63602083336,"duration":142.85699999998906,"noteNumber":64,"velocity":65,"programNumber":27},{"time":143787.20702083336,"duration":142.85699999998906,"noteNumber":55,"velocity":65,"programNumber":27},{"time":143787.20702083336,"duration":142.85699999998906,"noteNumber":60,"velocity":65,"programNumber":27},{"time":143787.20702083336,"duration":142.85699999998906,"noteNumber":64,"velocity":65,"programNumber":27},{"time":144215.77802083336,"duration":142.85699999998906,"noteNumber":55,"velocity":65,"programNumber":27},{"time":144215.77802083336,"duration":142.85699999998906,"noteNumber":60,"velocity":65,"programNumber":27},{"time":144215.77802083336,"duration":142.85699999998906,"noteNumber":64,"velocity":65,"programNumber":27},{"time":144644.34902083332,"duration":142.85699999998906,"noteNumber":57,"velocity":65,"programNumber":27},{"time":144644.34902083332,"duration":142.85699999998906,"noteNumber":62,"velocity":65,"programNumber":27},{"time":144644.34902083332,"duration":142.85699999998906,"noteNumber":66,"velocity":65,"programNumber":27},{"time":145072.92002083332,"duration":142.85699999998906,"noteNumber":57,"velocity":65,"programNumber":27},{"time":145072.92002083332,"duration":142.85699999998906,"noteNumber":62,"velocity":65,"programNumber":27},{"time":145072.92002083332,"duration":142.85699999998906,"noteNumber":66,"velocity":65,"programNumber":27},{"time":145501.49102083332,"duration":142.85699999998906,"noteNumber":57,"velocity":65,"programNumber":27},{"time":145501.49102083332,"duration":142.85699999998906,"noteNumber":62,"velocity":65,"programNumber":27},{"time":145501.49102083332,"duration":142.85699999998906,"noteNumber":66,"velocity":65,"programNumber":27},{"time":145930.0620208333,"duration":142.85699999998906,"noteNumber":57,"velocity":65,"programNumber":27},{"time":145930.0620208333,"duration":142.85699999998906,"noteNumber":62,"velocity":65,"programNumber":27},{"time":145930.0620208333,"duration":142.85699999998906,"noteNumber":66,"velocity":65,"programNumber":27},{"time":146358.6330208333,"duration":142.85699999998906,"noteNumber":57,"velocity":65,"programNumber":27},{"time":146358.6330208333,"duration":142.85699999998906,"noteNumber":62,"velocity":65,"programNumber":27},{"time":146358.6330208333,"duration":142.85699999998906,"noteNumber":66,"velocity":65,"programNumber":27},{"time":146787.2040208333,"duration":142.85699999998906,"noteNumber":57,"velocity":65,"programNumber":27},{"time":146787.2040208333,"duration":142.85699999998906,"noteNumber":62,"velocity":65,"programNumber":27},{"time":146787.2040208333,"duration":142.85699999998906,"noteNumber":66,"velocity":65,"programNumber":27},{"time":147215.77502083327,"duration":142.85699999998906,"noteNumber":57,"velocity":65,"programNumber":27},{"time":147215.77502083327,"duration":142.85699999998906,"noteNumber":60,"velocity":65,"programNumber":27},{"time":147215.77502083327,"duration":142.85699999998906,"noteNumber":65,"velocity":65,"programNumber":27},{"time":147644.34602083327,"duration":142.85699999998906,"noteNumber":57,"velocity":65,"programNumber":27},{"time":147644.34602083327,"duration":142.85699999998906,"noteNumber":60,"velocity":65,"programNumber":27},{"time":147644.34602083327,"duration":142.85699999998906,"noteNumber":65,"velocity":65,"programNumber":27},{"time":148072.91702083327,"duration":142.85699999998906,"noteNumber":57,"velocity":65,"programNumber":27},{"time":148072.91702083327,"duration":142.85699999998906,"noteNumber":60,"velocity":65,"programNumber":27},{"time":148072.91702083327,"duration":142.85699999998906,"noteNumber":65,"velocity":65,"programNumber":27},{"time":148501.48802083326,"duration":142.85699999998906,"noteNumber":57,"velocity":65,"programNumber":27},{"time":148501.48802083326,"duration":142.85699999998906,"noteNumber":60,"velocity":65,"programNumber":27},{"time":148501.48802083326,"duration":142.85699999998906,"noteNumber":65,"velocity":65,"programNumber":27},{"time":148930.05902083326,"duration":142.85699999998906,"noteNumber":57,"velocity":65,"programNumber":27},{"time":148930.05902083326,"duration":142.85699999998906,"noteNumber":60,"velocity":65,"programNumber":27},{"time":148930.05902083326,"duration":142.85699999998906,"noteNumber":65,"velocity":65,"programNumber":27},{"time":149358.63002083325,"duration":142.85699999998906,"noteNumber":57,"velocity":65,"programNumber":27},{"time":149358.63002083325,"duration":142.85699999998906,"noteNumber":60,"velocity":65,"programNumber":27},{"time":149358.63002083325,"duration":142.85699999998906,"noteNumber":65,"velocity":65,"programNumber":27},{"time":149787.20102083322,"duration":142.85699999998906,"noteNumber":57,"velocity":65,"programNumber":27},{"time":149787.20102083322,"duration":142.85699999998906,"noteNumber":60,"velocity":65,"programNumber":27},{"time":149787.20102083322,"duration":142.85699999998906,"noteNumber":64,"velocity":65,"programNumber":27},{"time":150215.77202083322,"duration":142.85699999998906,"noteNumber":57,"velocity":65,"programNumber":27},{"time":150215.77202083322,"duration":142.85699999998906,"noteNumber":60,"velocity":65,"programNumber":27},{"time":150215.77202083322,"duration":142.85699999998906,"noteNumber":64,"velocity":65,"programNumber":27},{"time":150644.3430208332,"duration":142.85699999998906,"noteNumber":57,"velocity":65,"programNumber":27},{"time":150644.3430208332,"duration":142.85699999998906,"noteNumber":60,"velocity":65,"programNumber":27},{"time":150644.3430208332,"duration":142.85699999998906,"noteNumber":64,"velocity":65,"programNumber":27},{"time":151072.9140208332,"duration":142.85699999998906,"noteNumber":57,"velocity":65,"programNumber":27},{"time":151072.9140208332,"duration":142.85699999998906,"noteNumber":60,"velocity":65,"programNumber":27},{"time":151072.9140208332,"duration":142.85699999998906,"noteNumber":64,"velocity":65,"programNumber":27},{"time":151501.4850208332,"duration":142.85699999998906,"noteNumber":57,"velocity":65,"programNumber":27},{"time":151501.4850208332,"duration":142.85699999998906,"noteNumber":60,"velocity":65,"programNumber":27},{"time":151501.4850208332,"duration":142.85699999998906,"noteNumber":64,"velocity":65,"programNumber":27},{"time":151930.0560208332,"duration":142.85699999998906,"noteNumber":57,"velocity":65,"programNumber":27},{"time":151930.0560208332,"duration":142.85699999998906,"noteNumber":60,"velocity":65,"programNumber":27},{"time":151930.0560208332,"duration":142.85699999998906,"noteNumber":64,"velocity":65,"programNumber":27},{"time":152358.62702083317,"duration":142.85699999998906,"noteNumber":55,"velocity":65,"programNumber":27},{"time":152358.62702083317,"duration":142.85699999998906,"noteNumber":60,"velocity":65,"programNumber":27},{"time":152358.62702083317,"duration":142.85699999998906,"noteNumber":64,"velocity":65,"programNumber":27},{"time":152787.19802083317,"duration":142.85699999998906,"noteNumber":55,"velocity":65,"programNumber":27},{"time":152787.19802083317,"duration":142.85699999998906,"noteNumber":60,"velocity":65,"programNumber":27},{"time":152787.19802083317,"duration":142.85699999998906,"noteNumber":64,"velocity":65,"programNumber":27},{"time":153215.76902083316,"duration":142.85699999998906,"noteNumber":55,"velocity":65,"programNumber":27},{"time":153215.76902083316,"duration":142.85699999998906,"noteNumber":60,"velocity":65,"programNumber":27},{"time":153215.76902083316,"duration":142.85699999998906,"noteNumber":64,"velocity":65,"programNumber":27},{"time":153644.34002083316,"duration":142.85699999998906,"noteNumber":55,"velocity":65,"programNumber":27},{"time":153644.34002083316,"duration":142.85699999998906,"noteNumber":60,"velocity":65,"programNumber":27},{"time":153644.34002083316,"duration":142.85699999998906,"noteNumber":64,"velocity":65,"programNumber":27},{"time":154072.91102083315,"duration":142.85699999998906,"noteNumber":55,"velocity":65,"programNumber":27},{"time":154072.91102083315,"duration":142.85699999998906,"noteNumber":60,"velocity":65,"programNumber":27},{"time":154072.91102083315,"duration":142.85699999998906,"noteNumber":64,"velocity":65,"programNumber":27},{"time":154501.48202083315,"duration":142.85699999998906,"noteNumber":55,"velocity":65,"programNumber":27},{"time":154501.48202083315,"duration":142.85699999998906,"noteNumber":60,"velocity":65,"programNumber":27},{"time":154501.48202083315,"duration":142.85699999998906,"noteNumber":64,"velocity":65,"programNumber":27},{"time":154930.05302083312,"duration":142.85699999998906,"noteNumber":56,"velocity":65,"programNumber":27},{"time":154930.05302083312,"duration":142.85699999998906,"noteNumber":59,"velocity":65,"programNumber":27},{"time":154930.05302083312,"duration":142.85699999998906,"noteNumber":64,"velocity":65,"programNumber":27},{"time":155358.62402083311,"duration":142.85699999998906,"noteNumber":56,"velocity":65,"programNumber":27},{"time":155358.62402083311,"duration":142.85699999998906,"noteNumber":59,"velocity":65,"programNumber":27},{"time":155358.62402083311,"duration":142.85699999998906,"noteNumber":64,"velocity":65,"programNumber":27},{"time":155787.1950208331,"duration":142.85699999998906,"noteNumber":56,"velocity":65,"programNumber":27},{"time":155787.1950208331,"duration":142.85699999998906,"noteNumber":59,"velocity":65,"programNumber":27},{"time":155787.1950208331,"duration":142.85699999998906,"noteNumber":64,"velocity":65,"programNumber":27},{"time":156215.7660208331,"duration":142.85699999998906,"noteNumber":56,"velocity":65,"programNumber":27},{"time":156215.7660208331,"duration":142.85699999998906,"noteNumber":59,"velocity":65,"programNumber":27},{"time":156215.7660208331,"duration":142.85699999998906,"noteNumber":64,"velocity":65,"programNumber":27},{"time":156644.3370208331,"duration":142.85699999998906,"noteNumber":56,"velocity":65,"programNumber":27},{"time":156644.3370208331,"duration":142.85699999998906,"noteNumber":59,"velocity":65,"programNumber":27},{"time":156644.3370208331,"duration":142.85699999998906,"noteNumber":64,"velocity":65,"programNumber":27},{"time":157072.9080208331,"duration":142.85699999998906,"noteNumber":56,"velocity":65,"programNumber":27},{"time":157072.9080208331,"duration":142.85699999998906,"noteNumber":59,"velocity":65,"programNumber":27},{"time":157072.9080208331,"duration":142.85699999998906,"noteNumber":64,"velocity":65,"programNumber":27},{"time":157501.47902083307,"duration":142.85699999998906,"noteNumber":56,"velocity":65,"programNumber":27},{"time":157501.47902083307,"duration":142.85699999998906,"noteNumber":59,"velocity":65,"programNumber":27},{"time":157501.47902083307,"duration":142.85699999998906,"noteNumber":64,"velocity":65,"programNumber":27},{"time":157930.05002083306,"duration":142.85699999998906,"noteNumber":56,"velocity":65,"programNumber":27},{"time":157930.05002083306,"duration":142.85699999998906,"noteNumber":59,"velocity":65,"programNumber":27},{"time":157930.05002083306,"duration":142.85699999998906,"noteNumber":64,"velocity":65,"programNumber":27},{"time":158358.62102083306,"duration":142.85699999998906,"noteNumber":56,"velocity":65,"programNumber":27},{"time":158358.62102083306,"duration":142.85699999998906,"noteNumber":59,"velocity":65,"programNumber":27},{"time":158358.62102083306,"duration":142.85699999998906,"noteNumber":64,"velocity":65,"programNumber":27},{"time":158787.19202083306,"duration":142.85699999998906,"noteNumber":56,"velocity":65,"programNumber":27},{"time":158787.19202083306,"duration":142.85699999998906,"noteNumber":59,"velocity":65,"programNumber":27},{"time":158787.19202083306,"duration":142.85699999998906,"noteNumber":64,"velocity":65,"programNumber":27},{"time":159215.76302083305,"duration":142.85699999998906,"noteNumber":56,"velocity":65,"programNumber":27},{"time":159215.76302083305,"duration":142.85699999998906,"noteNumber":59,"velocity":65,"programNumber":27},{"time":159215.76302083305,"duration":142.85699999998906,"noteNumber":64,"velocity":65,"programNumber":27},{"time":159644.33402083305,"duration":142.85699999998906,"noteNumber":56,"velocity":65,"programNumber":27},{"time":159644.33402083305,"duration":142.85699999998906,"noteNumber":59,"velocity":65,"programNumber":27},{"time":159644.33402083305,"duration":142.85699999998906,"noteNumber":64,"velocity":65,"programNumber":27},{"time":160072.90502083302,"duration":142.85699999998906,"noteNumber":57,"velocity":65,"programNumber":27},{"time":160072.90502083302,"duration":142.85699999998906,"noteNumber":60,"velocity":65,"programNumber":27},{"time":160072.90502083302,"duration":142.85699999998906,"noteNumber":64,"velocity":65,"programNumber":27},{"time":160501.476020833,"duration":142.85699999998906,"noteNumber":57,"velocity":65,"programNumber":27},{"time":160501.476020833,"duration":142.85699999998906,"noteNumber":60,"velocity":65,"programNumber":27},{"time":160501.476020833,"duration":142.85699999998906,"noteNumber":64,"velocity":65,"programNumber":27},{"time":160930.047020833,"duration":142.85699999998906,"noteNumber":57,"velocity":65,"programNumber":27},{"time":160930.047020833,"duration":142.85699999998906,"noteNumber":60,"velocity":65,"programNumber":27},{"time":160930.047020833,"duration":142.85699999998906,"noteNumber":64,"velocity":65,"programNumber":27},{"time":161358.618020833,"duration":142.85699999998906,"noteNumber":57,"velocity":65,"programNumber":27},{"time":161358.618020833,"duration":142.85699999998906,"noteNumber":60,"velocity":65,"programNumber":27},{"time":161358.618020833,"duration":142.85699999998906,"noteNumber":64,"velocity":65,"programNumber":27},{"time":161787.189020833,"duration":142.85699999998906,"noteNumber":57,"velocity":65,"programNumber":27},{"time":161787.189020833,"duration":142.85699999998906,"noteNumber":60,"velocity":65,"programNumber":27},{"time":161787.189020833,"duration":142.85699999998906,"noteNumber":64,"velocity":65,"programNumber":27},{"time":162215.760020833,"duration":142.85699999998906,"noteNumber":57,"velocity":65,"programNumber":27},{"time":162215.760020833,"duration":142.85699999998906,"noteNumber":60,"velocity":65,"programNumber":27},{"time":162215.760020833,"duration":142.85699999998906,"noteNumber":64,"velocity":65,"programNumber":27},{"time":162644.33102083296,"duration":142.85699999998906,"noteNumber":55,"velocity":65,"programNumber":27},{"time":162644.33102083296,"duration":142.85699999998906,"noteNumber":60,"velocity":65,"programNumber":27},{"time":162644.33102083296,"duration":142.85699999998906,"noteNumber":64,"velocity":65,"programNumber":27},{"time":163072.90202083296,"duration":142.85699999998906,"noteNumber":55,"velocity":65,"programNumber":27},{"time":163072.90202083296,"duration":142.85699999998906,"noteNumber":60,"velocity":65,"programNumber":27},{"time":163072.90202083296,"duration":142.85699999998906,"noteNumber":64,"velocity":65,"programNumber":27},{"time":163501.47302083296,"duration":142.85699999998906,"noteNumber":55,"velocity":65,"programNumber":27},{"time":163501.47302083296,"duration":142.85699999998906,"noteNumber":60,"velocity":65,"programNumber":27},{"time":163501.47302083296,"duration":142.85699999998906,"noteNumber":64,"velocity":65,"programNumber":27},{"time":163930.04402083295,"duration":142.85699999998906,"noteNumber":55,"velocity":65,"programNumber":27},{"time":163930.04402083295,"duration":142.85699999998906,"noteNumber":60,"velocity":65,"programNumber":27},{"time":163930.04402083295,"duration":142.85699999998906,"noteNumber":64,"velocity":65,"programNumber":27},{"time":164358.61502083295,"duration":142.85699999998906,"noteNumber":55,"velocity":65,"programNumber":27},{"time":164358.61502083295,"duration":142.85699999998906,"noteNumber":60,"velocity":65,"programNumber":27},{"time":164358.61502083295,"duration":142.85699999998906,"noteNumber":64,"velocity":65,"programNumber":27},{"time":164787.18602083295,"duration":142.85699999998906,"noteNumber":55,"velocity":65,"programNumber":27},{"time":164787.18602083295,"duration":142.85699999998906,"noteNumber":60,"velocity":65,"programNumber":27},{"time":164787.18602083295,"duration":142.85699999998906,"noteNumber":64,"velocity":65,"programNumber":27},{"time":165215.7570208329,"duration":142.85699999998906,"noteNumber":57,"velocity":65,"programNumber":27},{"time":165215.7570208329,"duration":142.85699999998906,"noteNumber":62,"velocity":65,"programNumber":27},{"time":165215.7570208329,"duration":142.85699999998906,"noteNumber":66,"velocity":65,"programNumber":27},{"time":165644.3280208329,"duration":142.85699999998906,"noteNumber":57,"velocity":65,"programNumber":27},{"time":165644.3280208329,"duration":142.85699999998906,"noteNumber":62,"velocity":65,"programNumber":27},{"time":165644.3280208329,"duration":142.85699999998906,"noteNumber":66,"velocity":65,"programNumber":27},{"time":166072.8990208329,"duration":142.85699999998906,"noteNumber":57,"velocity":65,"programNumber":27},{"time":166072.8990208329,"duration":142.85699999998906,"noteNumber":62,"velocity":65,"programNumber":27},{"time":166072.8990208329,"duration":142.85699999998906,"noteNumber":66,"velocity":65,"programNumber":27},{"time":166501.4700208329,"duration":142.85699999998906,"noteNumber":57,"velocity":65,"programNumber":27},{"time":166501.4700208329,"duration":142.85699999998906,"noteNumber":62,"velocity":65,"programNumber":27},{"time":166501.4700208329,"duration":142.85699999998906,"noteNumber":66,"velocity":65,"programNumber":27},{"time":166930.0410208329,"duration":142.85699999998906,"noteNumber":57,"velocity":65,"programNumber":27},{"time":166930.0410208329,"duration":142.85699999998906,"noteNumber":62,"velocity":65,"programNumber":27},{"time":166930.0410208329,"duration":142.85699999998906,"noteNumber":66,"velocity":65,"programNumber":27},{"time":167358.6120208329,"duration":142.85699999998906,"noteNumber":57,"velocity":65,"programNumber":27},{"time":167358.6120208329,"duration":142.85699999998906,"noteNumber":62,"velocity":65,"programNumber":27},{"time":167358.6120208329,"duration":142.85699999998906,"noteNumber":66,"velocity":65,"programNumber":27},{"time":167787.18302083286,"duration":142.85699999998906,"noteNumber":57,"velocity":65,"programNumber":27},{"time":167787.18302083286,"duration":142.85699999998906,"noteNumber":60,"velocity":65,"programNumber":27},{"time":167787.18302083286,"duration":142.85699999998906,"noteNumber":65,"velocity":65,"programNumber":27},{"time":168215.75402083286,"duration":142.85699999998906,"noteNumber":57,"velocity":65,"programNumber":27},{"time":168215.75402083286,"duration":142.85699999998906,"noteNumber":60,"velocity":65,"programNumber":27},{"time":168215.75402083286,"duration":142.85699999998906,"noteNumber":65,"velocity":65,"programNumber":27},{"time":168644.32502083285,"duration":142.85699999998906,"noteNumber":57,"velocity":65,"programNumber":27},{"time":168644.32502083285,"duration":142.85699999998906,"noteNumber":60,"velocity":65,"programNumber":27},{"time":168644.32502083285,"duration":142.85699999998906,"noteNumber":65,"velocity":65,"programNumber":27},{"time":169072.89602083285,"duration":142.85699999998906,"noteNumber":57,"velocity":65,"programNumber":27},{"time":169072.89602083285,"duration":142.85699999998906,"noteNumber":60,"velocity":65,"programNumber":27},{"time":169072.89602083285,"duration":142.85699999998906,"noteNumber":65,"velocity":65,"programNumber":27},{"time":169501.46702083285,"duration":142.85699999998906,"noteNumber":57,"velocity":65,"programNumber":27},{"time":169501.46702083285,"duration":142.85699999998906,"noteNumber":60,"velocity":65,"programNumber":27},{"time":169501.46702083285,"duration":142.85699999998906,"noteNumber":65,"velocity":65,"programNumber":27},{"time":169930.03802083284,"duration":142.85699999998906,"noteNumber":57,"velocity":65,"programNumber":27},{"time":169930.03802083284,"duration":142.85699999998906,"noteNumber":60,"velocity":65,"programNumber":27},{"time":169930.03802083284,"duration":142.85699999998906,"noteNumber":65,"velocity":65,"programNumber":27},{"time":170358.6090208328,"duration":142.85699999998906,"noteNumber":57,"velocity":65,"programNumber":27},{"time":170358.6090208328,"duration":142.85699999998906,"noteNumber":60,"velocity":65,"programNumber":27},{"time":170358.6090208328,"duration":142.85699999998906,"noteNumber":64,"velocity":65,"programNumber":27},{"time":170787.1800208328,"duration":142.85699999998906,"noteNumber":57,"velocity":65,"programNumber":27},{"time":170787.1800208328,"duration":142.85699999998906,"noteNumber":60,"velocity":65,"programNumber":27},{"time":170787.1800208328,"duration":142.85699999998906,"noteNumber":64,"velocity":65,"programNumber":27},{"time":171215.7510208328,"duration":142.85699999998906,"noteNumber":57,"velocity":65,"programNumber":27},{"time":171215.7510208328,"duration":142.85699999998906,"noteNumber":60,"velocity":65,"programNumber":27},{"time":171215.7510208328,"duration":142.85699999998906,"noteNumber":64,"velocity":65,"programNumber":27},{"time":171644.3220208328,"duration":142.85699999998906,"noteNumber":57,"velocity":65,"programNumber":27},{"time":171644.3220208328,"duration":142.85699999998906,"noteNumber":60,"velocity":65,"programNumber":27},{"time":171644.3220208328,"duration":142.85699999998906,"noteNumber":64,"velocity":65,"programNumber":27},{"time":172072.8930208328,"duration":142.85699999998906,"noteNumber":57,"velocity":65,"programNumber":27},{"time":172072.8930208328,"duration":142.85699999998906,"noteNumber":60,"velocity":65,"programNumber":27},{"time":172072.8930208328,"duration":142.85699999998906,"noteNumber":64,"velocity":65,"programNumber":27},{"time":172501.4640208328,"duration":142.85699999998906,"noteNumber":57,"velocity":65,"programNumber":27},{"time":172501.4640208328,"duration":142.85699999998906,"noteNumber":60,"velocity":65,"programNumber":27},{"time":172501.4640208328,"duration":142.85699999998906,"noteNumber":64,"velocity":65,"programNumber":27},{"time":172930.03502083276,"duration":142.85699999998906,"noteNumber":56,"velocity":65,"programNumber":27},{"time":172930.03502083276,"duration":142.85699999998906,"noteNumber":59,"velocity":65,"programNumber":27},{"time":172930.03502083276,"duration":142.85699999998906,"noteNumber":64,"velocity":65,"programNumber":27},{"time":173358.60602083275,"duration":142.85699999998906,"noteNumber":56,"velocity":65,"programNumber":27},{"time":173358.60602083275,"duration":142.85699999998906,"noteNumber":59,"velocity":65,"programNumber":27},{"time":173358.60602083275,"duration":142.85699999998906,"noteNumber":64,"velocity":65,"programNumber":27},{"time":173787.17702083275,"duration":142.85699999998906,"noteNumber":56,"velocity":65,"programNumber":27},{"time":173787.17702083275,"duration":142.85699999998906,"noteNumber":59,"velocity":65,"programNumber":27},{"time":173787.17702083275,"duration":142.85699999998906,"noteNumber":64,"velocity":65,"programNumber":27},{"time":174215.74802083275,"duration":142.85699999998906,"noteNumber":56,"velocity":65,"programNumber":27},{"time":174215.74802083275,"duration":142.85699999998906,"noteNumber":59,"velocity":65,"programNumber":27},{"time":174215.74802083275,"duration":142.85699999998906,"noteNumber":64,"velocity":65,"programNumber":27},{"time":174644.31902083274,"duration":142.85699999998906,"noteNumber":56,"velocity":65,"programNumber":27},{"time":174644.31902083274,"duration":142.85699999998906,"noteNumber":59,"velocity":65,"programNumber":27},{"time":174644.31902083274,"duration":142.85699999998906,"noteNumber":64,"velocity":65,"programNumber":27},{"time":175072.89002083274,"duration":142.85699999998906,"noteNumber":56,"velocity":65,"programNumber":27},{"time":175072.89002083274,"duration":142.85699999998906,"noteNumber":59,"velocity":65,"programNumber":27},{"time":175072.89002083274,"duration":142.85699999998906,"noteNumber":64,"velocity":65,"programNumber":27},{"time":175501.4610208327,"duration":142.85699999998906,"noteNumber":57,"velocity":65,"programNumber":27},{"time":175501.4610208327,"duration":142.85699999998906,"noteNumber":60,"velocity":65,"programNumber":27},{"time":175501.4610208327,"duration":142.85699999998906,"noteNumber":64,"velocity":65,"programNumber":27},{"time":175930.0320208327,"duration":142.85699999998906,"noteNumber":57,"velocity":65,"programNumber":27},{"time":175930.0320208327,"duration":142.85699999998906,"noteNumber":60,"velocity":65,"programNumber":27},{"time":175930.0320208327,"duration":142.85699999998906,"noteNumber":64,"velocity":65,"programNumber":27},{"time":176358.6030208327,"duration":142.85699999998906,"noteNumber":57,"velocity":65,"programNumber":27},{"time":176358.6030208327,"duration":142.85699999998906,"noteNumber":60,"velocity":65,"programNumber":27},{"time":176358.6030208327,"duration":142.85699999998906,"noteNumber":64,"velocity":65,"programNumber":27},{"time":176787.1740208327,"duration":142.85699999998906,"noteNumber":57,"velocity":65,"programNumber":27},{"time":176787.1740208327,"duration":142.85699999998906,"noteNumber":60,"velocity":65,"programNumber":27},{"time":176787.1740208327,"duration":142.85699999998906,"noteNumber":64,"velocity":65,"programNumber":27},{"time":177215.7450208327,"duration":142.85699999998906,"noteNumber":57,"velocity":65,"programNumber":27},{"time":177215.7450208327,"duration":142.85699999998906,"noteNumber":60,"velocity":65,"programNumber":27},{"time":177215.7450208327,"duration":142.85699999998906,"noteNumber":64,"velocity":65,"programNumber":27},{"time":177644.3160208327,"duration":142.85699999998906,"noteNumber":57,"velocity":65,"programNumber":27},{"time":177644.3160208327,"duration":142.85699999998906,"noteNumber":60,"velocity":65,"programNumber":27},{"time":177644.3160208327,"duration":142.85699999998906,"noteNumber":64,"velocity":65,"programNumber":27},{"time":178072.88702083266,"duration":142.85699999998906,"noteNumber":55,"velocity":65,"programNumber":27},{"time":178072.88702083266,"duration":142.85699999998906,"noteNumber":60,"velocity":65,"programNumber":27},{"time":178072.88702083266,"duration":142.85699999998906,"noteNumber":64,"velocity":65,"programNumber":27},{"time":178501.45802083265,"duration":142.85699999998906,"noteNumber":55,"velocity":65,"programNumber":27},{"time":178501.45802083265,"duration":142.85699999998906,"noteNumber":60,"velocity":65,"programNumber":27},{"time":178501.45802083265,"duration":142.85699999998906,"noteNumber":64,"velocity":65,"programNumber":27},{"time":178930.02902083265,"duration":142.85699999998906,"noteNumber":55,"velocity":65,"programNumber":27},{"time":178930.02902083265,"duration":142.85699999998906,"noteNumber":60,"velocity":65,"programNumber":27},{"time":178930.02902083265,"duration":142.85699999998906,"noteNumber":64,"velocity":65,"programNumber":27},{"time":179358.60002083264,"duration":142.85699999998906,"noteNumber":55,"velocity":65,"programNumber":27},{"time":179358.60002083264,"duration":142.85699999998906,"noteNumber":60,"velocity":65,"programNumber":27},{"time":179358.60002083264,"duration":142.85699999998906,"noteNumber":64,"velocity":65,"programNumber":27},{"time":179787.17102083264,"duration":142.85699999998906,"noteNumber":55,"velocity":65,"programNumber":27},{"time":179787.17102083264,"duration":142.85699999998906,"noteNumber":60,"velocity":65,"programNumber":27},{"time":179787.17102083264,"duration":142.85699999998906,"noteNumber":64,"velocity":65,"programNumber":27},{"time":180215.74202083264,"duration":142.85699999998906,"noteNumber":55,"velocity":65,"programNumber":27},{"time":180215.74202083264,"duration":142.85699999998906,"noteNumber":60,"velocity":65,"programNumber":27},{"time":180215.74202083264,"duration":142.85699999998906,"noteNumber":64,"velocity":65,"programNumber":27},{"time":180644.3130208326,"duration":142.85699999998906,"noteNumber":57,"velocity":65,"programNumber":27},{"time":180644.3130208326,"duration":142.85699999998906,"noteNumber":62,"velocity":65,"programNumber":27},{"time":180644.3130208326,"duration":142.85699999998906,"noteNumber":66,"velocity":65,"programNumber":27},{"time":181072.8840208326,"duration":142.85699999998906,"noteNumber":57,"velocity":65,"programNumber":27},{"time":181072.8840208326,"duration":142.85699999998906,"noteNumber":62,"velocity":65,"programNumber":27},{"time":181072.8840208326,"duration":142.85699999998906,"noteNumber":66,"velocity":65,"programNumber":27},{"time":181501.4550208326,"duration":142.85699999998906,"noteNumber":57,"velocity":65,"programNumber":27},{"time":181501.4550208326,"duration":142.85699999998906,"noteNumber":62,"velocity":65,"programNumber":27},{"time":181501.4550208326,"duration":142.85699999998906,"noteNumber":66,"velocity":65,"programNumber":27},{"time":181930.0260208326,"duration":142.85699999998906,"noteNumber":57,"velocity":65,"programNumber":27},{"time":181930.0260208326,"duration":142.85699999998906,"noteNumber":62,"velocity":65,"programNumber":27},{"time":181930.0260208326,"duration":142.85699999998906,"noteNumber":66,"velocity":65,"programNumber":27},{"time":182358.5970208326,"duration":142.85699999998906,"noteNumber":57,"velocity":65,"programNumber":27},{"time":182358.5970208326,"duration":142.85699999998906,"noteNumber":62,"velocity":65,"programNumber":27},{"time":182358.5970208326,"duration":142.85699999998906,"noteNumber":66,"velocity":65,"programNumber":27},{"time":182787.16802083259,"duration":142.85699999998906,"noteNumber":57,"velocity":65,"programNumber":27},{"time":182787.16802083259,"duration":142.85699999998906,"noteNumber":62,"velocity":65,"programNumber":27},{"time":182787.16802083259,"duration":142.85699999998906,"noteNumber":66,"velocity":65,"programNumber":27},{"time":183215.73902083255,"duration":142.85699999998906,"noteNumber":57,"velocity":65,"programNumber":27},{"time":183215.73902083255,"duration":142.85699999998906,"noteNumber":60,"velocity":65,"programNumber":27},{"time":183215.73902083255,"duration":142.85699999998906,"noteNumber":65,"velocity":65,"programNumber":27},{"time":183644.31002083255,"duration":142.85699999998906,"noteNumber":57,"velocity":65,"programNumber":27},{"time":183644.31002083255,"duration":142.85699999998906,"noteNumber":60,"velocity":65,"programNumber":27},{"time":183644.31002083255,"duration":142.85699999998906,"noteNumber":65,"velocity":65,"programNumber":27},{"time":184072.88102083254,"duration":142.85699999998906,"noteNumber":57,"velocity":65,"programNumber":27},{"time":184072.88102083254,"duration":142.85699999998906,"noteNumber":60,"velocity":65,"programNumber":27},{"time":184072.88102083254,"duration":142.85699999998906,"noteNumber":65,"velocity":65,"programNumber":27},{"time":184501.45202083254,"duration":178.57125000000815,"noteNumber":57,"velocity":65,"programNumber":27},{"time":184501.45202083254,"duration":178.57125000000815,"noteNumber":60,"velocity":65,"programNumber":27},{"time":184501.45202083254,"duration":178.57125000000815,"noteNumber":65,"velocity":65,"programNumber":27},{"time":184930.02302083254,"duration":142.85699999998906,"noteNumber":57,"velocity":65,"programNumber":27},{"time":184930.02302083254,"duration":142.85699999998906,"noteNumber":60,"velocity":65,"programNumber":27},{"time":184930.02302083254,"duration":142.85699999998906,"noteNumber":65,"velocity":65,"programNumber":27},{"time":185358.59402083253,"duration":142.85699999998906,"noteNumber":57,"velocity":65,"programNumber":27},{"time":185358.59402083253,"duration":142.85699999998906,"noteNumber":60,"velocity":65,"programNumber":27},{"time":185358.59402083253,"duration":142.85699999998906,"noteNumber":65,"velocity":65,"programNumber":27},{"time":185787.1650208325,"duration":142.85699999998906,"noteNumber":57,"velocity":65,"programNumber":27},{"time":185787.1650208325,"duration":142.85699999998906,"noteNumber":60,"velocity":65,"programNumber":27},{"time":185787.1650208325,"duration":142.85699999998906,"noteNumber":64,"velocity":65,"programNumber":27},{"time":186215.7360208325,"duration":142.85699999998906,"noteNumber":57,"velocity":65,"programNumber":27},{"time":186215.7360208325,"duration":142.85699999998906,"noteNumber":60,"velocity":65,"programNumber":27},{"time":186215.7360208325,"duration":142.85699999998906,"noteNumber":64,"velocity":65,"programNumber":27},{"time":186644.3070208325,"duration":142.85699999998906,"noteNumber":57,"velocity":65,"programNumber":27},{"time":186644.3070208325,"duration":142.85699999998906,"noteNumber":60,"velocity":65,"programNumber":27},{"time":186644.3070208325,"duration":142.85699999998906,"noteNumber":64,"velocity":65,"programNumber":27},{"time":187072.8780208325,"duration":142.85699999998906,"noteNumber":57,"velocity":65,"programNumber":27},{"time":187072.8780208325,"duration":142.85699999998906,"noteNumber":60,"velocity":65,"programNumber":27},{"time":187072.8780208325,"duration":142.85699999998906,"noteNumber":64,"velocity":65,"programNumber":27},{"time":187501.4490208325,"duration":142.85699999998906,"noteNumber":57,"velocity":65,"programNumber":27},{"time":187501.4490208325,"duration":142.85699999998906,"noteNumber":60,"velocity":65,"programNumber":27},{"time":187501.4490208325,"duration":142.85699999998906,"noteNumber":64,"velocity":65,"programNumber":27},{"time":187930.02002083248,"duration":142.85699999998906,"noteNumber":57,"velocity":65,"programNumber":27},{"time":187930.02002083248,"duration":142.85699999998906,"noteNumber":60,"velocity":65,"programNumber":27},{"time":187930.02002083248,"duration":142.85699999998906,"noteNumber":64,"velocity":65,"programNumber":27},{"time":188358.59102083245,"duration":142.85699999998906,"noteNumber":56,"velocity":65,"programNumber":27},{"time":188358.59102083245,"duration":142.85699999998906,"noteNumber":59,"velocity":65,"programNumber":27},{"time":188358.59102083245,"duration":142.85699999998906,"noteNumber":64,"velocity":65,"programNumber":27},{"time":188787.16202083245,"duration":142.85699999998906,"noteNumber":56,"velocity":65,"programNumber":27},{"time":188787.16202083245,"duration":142.85699999998906,"noteNumber":59,"velocity":65,"programNumber":27},{"time":188787.16202083245,"duration":142.85699999998906,"noteNumber":64,"velocity":65,"programNumber":27},{"time":189215.73302083244,"duration":142.85699999998906,"noteNumber":56,"velocity":65,"programNumber":27},{"time":189215.73302083244,"duration":142.85699999998906,"noteNumber":59,"velocity":65,"programNumber":27},{"time":189215.73302083244,"duration":142.85699999998906,"noteNumber":64,"velocity":65,"programNumber":27},{"time":189644.30402083244,"duration":142.85699999998906,"noteNumber":56,"velocity":65,"programNumber":27},{"time":189644.30402083244,"duration":142.85699999998906,"noteNumber":59,"velocity":65,"programNumber":27},{"time":189644.30402083244,"duration":142.85699999998906,"noteNumber":64,"velocity":65,"programNumber":27},{"time":190072.87502083243,"duration":142.85699999998906,"noteNumber":56,"velocity":65,"programNumber":27},{"time":190072.87502083243,"duration":142.85699999998906,"noteNumber":59,"velocity":65,"programNumber":27},{"time":190072.87502083243,"duration":142.85699999998906,"noteNumber":64,"velocity":65,"programNumber":27},{"time":190501.44602083243,"duration":142.85699999998906,"noteNumber":56,"velocity":65,"programNumber":27},{"time":190501.44602083243,"duration":142.85699999998906,"noteNumber":59,"velocity":65,"programNumber":27},{"time":190501.44602083243,"duration":142.85699999998906,"noteNumber":64,"velocity":65,"programNumber":27},{"time":190930.0170208324,"duration":107.14274999999907,"noteNumber":45,"velocity":76,"programNumber":27},{"time":190930.0170208324,"duration":107.14274999999907,"noteNumber":60,"velocity":65,"programNumber":27},{"time":190930.0170208324,"duration":107.14274999999907,"noteNumber":64,"velocity":65,"programNumber":27},{"time":191358.5880208324,"duration":178.57125000000815,"noteNumber":52,"velocity":65,"programNumber":27},{"time":191572.8735208324,"duration":178.57125000000815,"noteNumber":57,"velocity":65,"programNumber":27},{"time":191787.1590208324,"duration":178.57125000000815,"noteNumber":60,"velocity":65,"programNumber":27},{"time":192215.7300208324,"duration":178.57125000000815,"noteNumber":64,"velocity":76,"programNumber":27},{"time":192644.30102083238,"duration":107.14274999999907,"noteNumber":60,"velocity":65,"programNumber":27},{"time":193072.87202083238,"duration":178.57125000000815,"noteNumber":55,"velocity":65,"programNumber":27},{"time":193501.44302083238,"duration":107.14274999999907,"noteNumber":40,"velocity":76,"programNumber":27},{"time":193930.01402083237,"duration":178.57125000000815,"noteNumber":47,"velocity":65,"programNumber":27},{"time":194144.29952083237,"duration":178.57125000000815,"noteNumber":52,"velocity":65,"programNumber":27},{"time":194358.58502083237,"duration":178.57124999997905,"noteNumber":56,"velocity":65,"programNumber":27},{"time":194501.44202083236,"duration":178.57124999997905,"noteNumber":59,"velocity":65,"programNumber":27},{"time":194787.15602083234,"duration":107.14274999999907,"noteNumber":64,"velocity":76,"programNumber":27},{"time":195215.72702083233,"duration":178.57125000000815,"noteNumber":59,"velocity":65,"programNumber":27},{"time":195639.83373958233,"duration":173.21411249999073,"noteNumber":55,"velocity":65,"programNumber":27},{"time":196055.90475208234,"duration":108.92846249998547,"noteNumber":45,"velocity":76,"programNumber":27},{"time":196491.6186020823,"duration":182.14267500001006,"noteNumber":52,"velocity":65,"programNumber":27},{"time":196709.4755270823,"duration":182.14267500001006,"noteNumber":57,"velocity":65,"programNumber":27},{"time":196927.3324520823,"duration":181.24981874998775,"noteNumber":60,"velocity":65,"programNumber":27},{"time":197358.58202083228,"duration":178.57125000000815,"noteNumber":64,"velocity":76,"programNumber":27},{"time":197787.15302083228,"duration":178.57125000000815,"noteNumber":60,"velocity":65,"programNumber":27},{"time":198215.72402083228,"duration":178.57125000000815,"noteNumber":55,"velocity":65,"programNumber":27},{"time":198644.29502083227,"duration":178.57125000000815,"noteNumber":48,"velocity":76,"programNumber":27},{"time":199072.86602083227,"duration":178.57125000000815,"noteNumber":52,"velocity":65,"programNumber":27},{"time":199287.15152083227,"duration":178.57125000000815,"noteNumber":55,"velocity":65,"programNumber":27},{"time":199501.43702083227,"duration":178.57125000000815,"noteNumber":60,"velocity":65,"programNumber":27},{"time":199930.00802083226,"duration":178.57125000000815,"noteNumber":64,"velocity":76,"programNumber":27},{"time":200358.57902083226,"duration":178.57125000000815,"noteNumber":60,"velocity":65,"programNumber":27},{"time":200787.15002083225,"duration":178.57125000000815,"noteNumber":55,"velocity":65,"programNumber":27},{"time":201215.72102083225,"duration":178.57125000000815,"noteNumber":50,"velocity":76,"programNumber":27},{"time":201644.29202083225,"duration":178.57125000000815,"noteNumber":57,"velocity":65,"programNumber":27},{"time":201858.57752083224,"duration":178.57125000000815,"noteNumber":62,"velocity":65,"programNumber":27},{"time":202072.86302083224,"duration":107.14274999999907,"noteNumber":66,"velocity":65,"programNumber":27},{"time":202501.43402083224,"duration":178.57125000000815,"noteNumber":66,"velocity":76,"programNumber":27},{"time":202930.00502083224,"duration":178.57125000000815,"noteNumber":62,"velocity":65,"programNumber":27},{"time":203358.57602083223,"duration":178.57125000000815,"noteNumber":55,"velocity":65,"programNumber":27},{"time":203787.14702083223,"duration":178.57125000000815,"noteNumber":53,"velocity":76,"programNumber":27},{"time":204215.71802083222,"duration":178.57125000000815,"noteNumber":57,"velocity":65,"programNumber":27},{"time":204430.00352083222,"duration":178.57125000000815,"noteNumber":60,"velocity":65,"programNumber":27},{"time":204644.28902083222,"duration":178.57125000000815,"noteNumber":60,"velocity":65,"programNumber":27},{"time":205072.86002083222,"duration":178.57125000000815,"noteNumber":65,"velocity":76,"programNumber":27},{"time":205501.4310208322,"duration":178.57125000000815,"noteNumber":57,"velocity":65,"programNumber":27},{"time":205930.0020208322,"duration":178.57125000000815,"noteNumber":55,"velocity":65,"programNumber":27},{"time":206358.5730208322,"duration":107.14274999999907,"noteNumber":45,"velocity":76,"programNumber":27},{"time":206787.1440208322,"duration":178.57125000000815,"noteNumber":52,"velocity":65,"programNumber":27},{"time":207001.4295208322,"duration":178.57125000000815,"noteNumber":57,"velocity":65,"programNumber":27},{"time":207215.7150208322,"duration":178.57125000000815,"noteNumber":60,"velocity":65,"programNumber":27},{"time":207644.2860208322,"duration":178.57125000000815,"noteNumber":64,"velocity":76,"programNumber":27},{"time":208072.8570208322,"duration":178.57125000000815,"noteNumber":60,"velocity":65,"programNumber":27},{"time":208501.4280208322,"duration":178.57125000000815,"noteNumber":55,"velocity":65,"programNumber":27},{"time":208929.99902083218,"duration":178.57125000000815,"noteNumber":48,"velocity":76,"programNumber":27},{"time":209358.57002083218,"duration":178.57125000000815,"noteNumber":52,"velocity":65,"programNumber":27},{"time":209572.85552083218,"duration":178.57125000000815,"noteNumber":55,"velocity":65,"programNumber":27},{"time":209787.14102083218,"duration":178.57125000000815,"noteNumber":60,"velocity":65,"programNumber":27},{"time":210215.71202083217,"duration":178.57125000000815,"noteNumber":64,"velocity":76,"programNumber":27},{"time":210644.28302083217,"duration":178.57125000000815,"noteNumber":60,"velocity":65,"programNumber":27},{"time":211072.85402083216,"duration":178.57125000000815,"noteNumber":55,"velocity":65,"programNumber":27},{"time":211501.42502083216,"duration":107.14274999999907,"noteNumber":40,"velocity":76,"programNumber":27},{"time":211929.99602083216,"duration":178.57125000000815,"noteNumber":47,"velocity":65,"programNumber":27},{"time":212144.28152083216,"duration":178.57125000000815,"noteNumber":52,"velocity":65,"programNumber":27},{"time":212358.56702083215,"duration":178.57124999997905,"noteNumber":56,"velocity":65,"programNumber":27},{"time":212501.42402083214,"duration":178.57124999997905,"noteNumber":59,"velocity":65,"programNumber":27},{"time":212787.13802083212,"duration":107.14274999999907,"noteNumber":64,"velocity":76,"programNumber":27},{"time":213215.70902083212,"duration":178.57125000000815,"noteNumber":56,"velocity":65,"programNumber":27},{"time":213644.2800208321,"duration":178.57125000000815,"noteNumber":52,"velocity":65,"programNumber":27},{"time":214072.8510208321,"duration":107.14274999999907,"noteNumber":40,"velocity":76,"programNumber":27},{"time":214501.4220208321,"duration":178.57125000000815,"noteNumber":47,"velocity":65,"programNumber":27},{"time":214715.7075208321,"duration":178.57125000000815,"noteNumber":52,"velocity":65,"programNumber":27},{"time":214929.9930208321,"duration":178.57124999997905,"noteNumber":56,"velocity":65,"programNumber":27},{"time":215072.8500208321,"duration":178.57124999997905,"noteNumber":59,"velocity":65,"programNumber":27},{"time":215358.56402083207,"duration":107.14274999999907,"noteNumber":64,"velocity":76,"programNumber":27},{"time":215787.13502083207,"duration":178.57125000000815,"noteNumber":59,"velocity":65,"programNumber":27},{"time":216215.70602083206,"duration":178.57125000000815,"noteNumber":55,"velocity":65,"programNumber":27},{"time":216644.27702083206,"duration":107.14274999999907,"noteNumber":45,"velocity":76,"programNumber":27},{"time":217072.84802083205,"duration":178.57125000000815,"noteNumber":52,"velocity":65,"programNumber":27},{"time":217287.13352083205,"duration":178.57125000000815,"noteNumber":57,"velocity":65,"programNumber":27},{"time":217501.41902083205,"duration":178.57125000000815,"noteNumber":60,"velocity":65,"programNumber":27},{"time":217929.99002083205,"duration":178.57125000000815,"noteNumber":64,"velocity":76,"programNumber":27},{"time":218358.56102083204,"duration":178.57125000000815,"noteNumber":60,"velocity":65,"programNumber":27},{"time":218787.13202083204,"duration":178.57125000000815,"noteNumber":55,"velocity":65,"programNumber":27},{"time":219215.70302083204,"duration":178.57125000000815,"noteNumber":48,"velocity":76,"programNumber":27},{"time":219644.27402083203,"duration":178.57125000000815,"noteNumber":52,"velocity":65,"programNumber":27},{"time":219858.55952083203,"duration":178.57125000000815,"noteNumber":55,"velocity":65,"programNumber":27},{"time":220072.84502083203,"duration":178.57125000000815,"noteNumber":60,"velocity":65,"programNumber":27},{"time":220501.41602083202,"duration":178.57125000000815,"noteNumber":64,"velocity":76,"programNumber":27},{"time":220929.98702083202,"duration":178.57125000000815,"noteNumber":60,"velocity":65,"programNumber":27},{"time":221358.55802083202,"duration":178.57125000000815,"noteNumber":55,"velocity":65,"programNumber":27},{"time":221787.129020832,"duration":178.57125000000815,"noteNumber":50,"velocity":76,"programNumber":27},{"time":222215.700020832,"duration":178.57125000000815,"noteNumber":57,"velocity":65,"programNumber":27},{"time":222429.985520832,"duration":178.57125000000815,"noteNumber":62,"velocity":65,"programNumber":27},{"time":222644.271020832,"duration":107.14274999999907,"noteNumber":66,"velocity":65,"programNumber":27},{"time":223072.842020832,"duration":178.57125000000815,"noteNumber":66,"velocity":76,"programNumber":27},{"time":223501.413020832,"duration":178.57125000000815,"noteNumber":62,"velocity":65,"programNumber":27},{"time":223929.984020832,"duration":178.57125000000815,"noteNumber":55,"velocity":65,"programNumber":27},{"time":224358.555020832,"duration":178.57125000000815,"noteNumber":53,"velocity":76,"programNumber":27},{"time":224787.126020832,"duration":178.57125000000815,"noteNumber":57,"velocity":65,"programNumber":27},{"time":225001.41152083199,"duration":178.57125000000815,"noteNumber":60,"velocity":65,"programNumber":27},{"time":225215.69702083198,"duration":178.57125000000815,"noteNumber":60,"velocity":65,"programNumber":27},{"time":225644.26802083198,"duration":178.57125000000815,"noteNumber":65,"velocity":76,"programNumber":27},{"time":226072.83902083198,"duration":178.57125000000815,"noteNumber":57,"velocity":65,"programNumber":27},{"time":226501.41002083197,"duration":178.57125000000815,"noteNumber":55,"velocity":65,"programNumber":27},{"time":226929.98102083197,"duration":107.14274999999907,"noteNumber":45,"velocity":76,"programNumber":27},{"time":227358.55202083196,"duration":178.57125000000815,"noteNumber":52,"velocity":65,"programNumber":27},{"time":227572.83752083196,"duration":178.57125000000815,"noteNumber":57,"velocity":65,"programNumber":27},{"time":227787.12302083196,"duration":178.57125000000815,"noteNumber":60,"velocity":65,"programNumber":27},{"time":228215.69402083196,"duration":178.57125000000815,"noteNumber":64,"velocity":76,"programNumber":27},{"time":228644.26502083195,"duration":107.14274999999907,"noteNumber":60,"velocity":65,"programNumber":27},{"time":229072.83602083195,"duration":178.57125000000815,"noteNumber":55,"velocity":65,"programNumber":27},{"time":229501.40702083195,"duration":107.14274999999907,"noteNumber":40,"velocity":76,"programNumber":27},{"time":229929.97802083194,"duration":178.57125000000815,"noteNumber":47,"velocity":65,"programNumber":27},{"time":230144.26352083194,"duration":178.57125000000815,"noteNumber":52,"velocity":65,"programNumber":27},{"time":230358.54902083194,"duration":178.57124999997905,"noteNumber":56,"velocity":65,"programNumber":27},{"time":230501.40602083193,"duration":178.57124999997905,"noteNumber":59,"velocity":65,"programNumber":27},{"time":230787.1200208319,"duration":107.14274999999907,"noteNumber":64,"velocity":76,"programNumber":27},{"time":231215.6910208319,"duration":178.57125000000815,"noteNumber":59,"velocity":65,"programNumber":27},{"time":231644.2620208319,"duration":178.57125000000815,"noteNumber":55,"velocity":65,"programNumber":27},{"time":232072.8330208319,"duration":107.14274999999907,"noteNumber":45,"velocity":76,"programNumber":27},{"time":232501.4040208319,"duration":178.57125000000815,"noteNumber":52,"velocity":65,"programNumber":27},{"time":232715.6895208319,"duration":178.57125000000815,"noteNumber":57,"velocity":65,"programNumber":27},{"time":232929.9750208319,"duration":178.57125000000815,"noteNumber":60,"velocity":65,"programNumber":27},{"time":233358.54602083188,"duration":178.57125000000815,"noteNumber":64,"velocity":76,"programNumber":27},{"time":233787.11702083188,"duration":178.57125000000815,"noteNumber":60,"velocity":65,"programNumber":27},{"time":234215.68802083188,"duration":178.57125000000815,"noteNumber":55,"velocity":65,"programNumber":27},{"time":234644.25902083187,"duration":178.57125000000815,"noteNumber":48,"velocity":76,"programNumber":27},{"time":235072.83002083187,"duration":178.57125000000815,"noteNumber":52,"velocity":65,"programNumber":27},{"time":235287.11552083187,"duration":178.57125000000815,"noteNumber":55,"velocity":65,"programNumber":27},{"time":235501.40102083187,"duration":178.57125000000815,"noteNumber":60,"velocity":65,"programNumber":27},{"time":235929.97202083186,"duration":178.57125000000815,"noteNumber":64,"velocity":76,"programNumber":27},{"time":236358.54302083186,"duration":178.57125000000815,"noteNumber":60,"velocity":65,"programNumber":27},{"time":236787.11402083185,"duration":178.57125000000815,"noteNumber":55,"velocity":65,"programNumber":27},{"time":237215.68502083185,"duration":178.57125000000815,"noteNumber":50,"velocity":76,"programNumber":27},{"time":237644.25602083185,"duration":178.57125000000815,"noteNumber":57,"velocity":65,"programNumber":27},{"time":237858.54152083184,"duration":178.57125000000815,"noteNumber":62,"velocity":65,"programNumber":27},{"time":238072.82702083184,"duration":107.14274999999907,"noteNumber":66,"velocity":65,"programNumber":27},{"time":238501.39802083184,"duration":178.57125000000815,"noteNumber":66,"velocity":76,"programNumber":27},{"time":238929.96902083184,"duration":178.57125000000815,"noteNumber":62,"velocity":65,"programNumber":27},{"time":239358.54002083183,"duration":178.57125000000815,"noteNumber":55,"velocity":65,"programNumber":27},{"time":239787.11102083183,"duration":178.57125000000815,"noteNumber":53,"velocity":76,"programNumber":27},{"time":240215.68202083182,"duration":178.57125000000815,"noteNumber":57,"velocity":65,"programNumber":27},{"time":240429.96752083182,"duration":178.57125000000815,"noteNumber":60,"velocity":65,"programNumber":27},{"time":240644.25302083182,"duration":178.57125000000815,"noteNumber":60,"velocity":65,"programNumber":27},{"time":241072.82402083182,"duration":180.35696249999455,"noteNumber":65,"velocity":76,"programNumber":27},{"time":241504.96644583181,"duration":180.35696249999455,"noteNumber":57,"velocity":65,"programNumber":27},{"time":241937.1088708318,"duration":179.46410625000135,"noteNumber":55,"velocity":65,"programNumber":27},{"time":242369.25129583184,"duration":102.67846875000396,"noteNumber":45,"velocity":76,"programNumber":27},{"time":242787.10802083183,"duration":178.57125000000815,"noteNumber":52,"velocity":65,"programNumber":27},{"time":243001.39352083183,"duration":178.57125000000815,"noteNumber":57,"velocity":65,"programNumber":27},{"time":243215.67902083183,"duration":178.57125000000815,"noteNumber":60,"velocity":65,"programNumber":27},{"time":243644.25002083182,"duration":178.57125000000815,"noteNumber":64,"velocity":76,"programNumber":27},{"time":244072.82102083182,"duration":107.14274999999907,"noteNumber":60,"velocity":65,"programNumber":27},{"time":244501.39202083182,"duration":178.57125000000815,"noteNumber":55,"velocity":65,"programNumber":27},{"time":244929.9630208318,"duration":107.14274999999907,"noteNumber":40,"velocity":76,"programNumber":27},{"time":245358.5340208318,"duration":178.57125000000815,"noteNumber":47,"velocity":65,"programNumber":27},{"time":245572.8195208318,"duration":178.57125000000815,"noteNumber":52,"velocity":65,"programNumber":27},{"time":245787.1050208318,"duration":178.57124999997905,"noteNumber":56,"velocity":65,"programNumber":27},{"time":245929.9620208318,"duration":178.57124999997905,"noteNumber":59,"velocity":65,"programNumber":27},{"time":246215.67602083177,"duration":107.14274999999907,"noteNumber":64,"velocity":76,"programNumber":27},{"time":246644.24702083177,"duration":178.57125000000815,"noteNumber":59,"velocity":65,"programNumber":27},{"time":247072.81802083176,"duration":178.57125000000815,"noteNumber":55,"velocity":65,"programNumber":27},{"time":247501.38902083176,"duration":107.14274999999907,"noteNumber":45,"velocity":76,"programNumber":27},{"time":247929.96002083176,"duration":178.57125000000815,"noteNumber":52,"velocity":65,"programNumber":27},{"time":248144.24552083176,"duration":178.57125000000815,"noteNumber":57,"velocity":65,"programNumber":27},{"time":248358.53102083175,"duration":178.57125000000815,"noteNumber":60,"velocity":65,"programNumber":27},{"time":248787.10202083175,"duration":178.57125000000815,"noteNumber":64,"velocity":76,"programNumber":27},{"time":249215.67302083175,"duration":107.14274999999907,"noteNumber":60,"velocity":65,"programNumber":27},{"time":249644.24402083174,"duration":178.57125000000815,"noteNumber":55,"velocity":65,"programNumber":27},{"time":250072.81502083174,"duration":107.14274999999907,"noteNumber":40,"velocity":76,"programNumber":27},{"time":250501.38602083173,"duration":178.57125000000815,"noteNumber":47,"velocity":65,"programNumber":27},{"time":250715.67152083173,"duration":178.57125000000815,"noteNumber":52,"velocity":65,"programNumber":27},{"time":250929.95702083173,"duration":178.57124999997905,"noteNumber":56,"velocity":65,"programNumber":27},{"time":251072.81402083172,"duration":178.57124999997905,"noteNumber":59,"velocity":65,"programNumber":27},{"time":251358.5280208317,"duration":107.14274999999907,"noteNumber":64,"velocity":76,"programNumber":27},{"time":251787.0990208317,"duration":178.57125000000815,"noteNumber":59,"velocity":65,"programNumber":27},{"time":252215.6700208317,"duration":178.57125000000815,"noteNumber":55,"velocity":65,"programNumber":27},{"time":252644.2410208317,"duration":142.85699999998906,"noteNumber":57,"velocity":71,"programNumber":27},{"time":252644.2410208317,"duration":142.85699999998906,"noteNumber":60,"velocity":71,"programNumber":27},{"time":252644.2410208317,"duration":142.85699999998906,"noteNumber":64,"velocity":71,"programNumber":27},{"time":253072.81202083168,"duration":142.85699999998906,"noteNumber":57,"velocity":71,"programNumber":27},{"time":253072.81202083168,"duration":142.85699999998906,"noteNumber":60,"velocity":71,"programNumber":27},{"time":253072.81202083168,"duration":142.85699999998906,"noteNumber":64,"velocity":71,"programNumber":27},{"time":253501.38302083168,"duration":142.85699999998906,"noteNumber":57,"velocity":71,"programNumber":27},{"time":253501.38302083168,"duration":142.85699999998906,"noteNumber":60,"velocity":71,"programNumber":27},{"time":253501.38302083168,"duration":142.85699999998906,"noteNumber":64,"velocity":71,"programNumber":27},{"time":253929.95402083168,"duration":142.85699999998906,"noteNumber":57,"velocity":71,"programNumber":27},{"time":253929.95402083168,"duration":142.85699999998906,"noteNumber":60,"velocity":71,"programNumber":27},{"time":253929.95402083168,"duration":142.85699999998906,"noteNumber":64,"velocity":71,"programNumber":27},{"time":254358.52502083167,"duration":142.85699999998906,"noteNumber":57,"velocity":71,"programNumber":27},{"time":254358.52502083167,"duration":142.85699999998906,"noteNumber":60,"velocity":71,"programNumber":27},{"time":254358.52502083167,"duration":142.85699999998906,"noteNumber":64,"velocity":71,"programNumber":27},{"time":254787.09602083167,"duration":142.85699999998906,"noteNumber":57,"velocity":71,"programNumber":27},{"time":254787.09602083167,"duration":142.85699999998906,"noteNumber":60,"velocity":71,"programNumber":27},{"time":254787.09602083167,"duration":142.85699999998906,"noteNumber":64,"velocity":71,"programNumber":27},{"time":255215.66702083164,"duration":142.85699999998906,"noteNumber":55,"velocity":71,"programNumber":27},{"time":255215.66702083164,"duration":142.85699999998906,"noteNumber":60,"velocity":71,"programNumber":27},{"time":255215.66702083164,"duration":142.85699999998906,"noteNumber":64,"velocity":71,"programNumber":27},{"time":255644.23802083163,"duration":142.85699999998906,"noteNumber":55,"velocity":71,"programNumber":27},{"time":255644.23802083163,"duration":142.85699999998906,"noteNumber":60,"velocity":71,"programNumber":27},{"time":255644.23802083163,"duration":142.85699999998906,"noteNumber":64,"velocity":71,"programNumber":27},{"time":256072.80902083163,"duration":142.85699999998906,"noteNumber":55,"velocity":71,"programNumber":27},{"time":256072.80902083163,"duration":142.85699999998906,"noteNumber":60,"velocity":71,"programNumber":27},{"time":256072.80902083163,"duration":142.85699999998906,"noteNumber":64,"velocity":71,"programNumber":27},{"time":256501.38002083162,"duration":142.85699999998906,"noteNumber":55,"velocity":71,"programNumber":27},{"time":256501.38002083162,"duration":142.85699999998906,"noteNumber":60,"velocity":71,"programNumber":27},{"time":256501.38002083162,"duration":142.85699999998906,"noteNumber":64,"velocity":71,"programNumber":27},{"time":256929.95102083162,"duration":142.85699999998906,"noteNumber":55,"velocity":71,"programNumber":27},{"time":256929.95102083162,"duration":142.85699999998906,"noteNumber":60,"velocity":71,"programNumber":27},{"time":256929.95102083162,"duration":142.85699999998906,"noteNumber":64,"velocity":71,"programNumber":27},{"time":257358.52202083162,"duration":142.85699999998906,"noteNumber":55,"velocity":71,"programNumber":27},{"time":257358.52202083162,"duration":142.85699999998906,"noteNumber":60,"velocity":71,"programNumber":27},{"time":257358.52202083162,"duration":142.85699999998906,"noteNumber":64,"velocity":71,"programNumber":27},{"time":257787.09302083158,"duration":142.85699999998906,"noteNumber":57,"velocity":71,"programNumber":27},{"time":257787.09302083158,"duration":142.85699999998906,"noteNumber":62,"velocity":71,"programNumber":27},{"time":257787.09302083158,"duration":142.85699999998906,"noteNumber":66,"velocity":71,"programNumber":27},{"time":258215.66402083158,"duration":142.85699999998906,"noteNumber":57,"velocity":71,"programNumber":27},{"time":258215.66402083158,"duration":142.85699999998906,"noteNumber":62,"velocity":71,"programNumber":27},{"time":258215.66402083158,"duration":142.85699999998906,"noteNumber":66,"velocity":71,"programNumber":27},{"time":258644.23502083158,"duration":142.85699999998906,"noteNumber":57,"velocity":71,"programNumber":27},{"time":258644.23502083158,"duration":142.85699999998906,"noteNumber":62,"velocity":71,"programNumber":27},{"time":258644.23502083158,"duration":142.85699999998906,"noteNumber":66,"velocity":71,"programNumber":27},{"time":259072.80602083157,"duration":142.85699999998906,"noteNumber":57,"velocity":71,"programNumber":27},{"time":259072.80602083157,"duration":142.85699999998906,"noteNumber":62,"velocity":71,"programNumber":27},{"time":259072.80602083157,"duration":142.85699999998906,"noteNumber":66,"velocity":71,"programNumber":27},{"time":259501.37702083157,"duration":142.85699999998906,"noteNumber":57,"velocity":71,"programNumber":27},{"time":259501.37702083157,"duration":142.85699999998906,"noteNumber":62,"velocity":71,"programNumber":27},{"time":259501.37702083157,"duration":142.85699999998906,"noteNumber":66,"velocity":71,"programNumber":27},{"time":259929.94802083157,"duration":142.85699999998906,"noteNumber":57,"velocity":71,"programNumber":27},{"time":259929.94802083157,"duration":142.85699999998906,"noteNumber":62,"velocity":71,"programNumber":27},{"time":259929.94802083157,"duration":142.85699999998906,"noteNumber":66,"velocity":71,"programNumber":27},{"time":260358.51902083153,"duration":142.85699999998906,"noteNumber":57,"velocity":71,"programNumber":27},{"time":260358.51902083153,"duration":142.85699999998906,"noteNumber":60,"velocity":71,"programNumber":27},{"time":260358.51902083153,"duration":142.85699999998906,"noteNumber":65,"velocity":71,"programNumber":27},{"time":260787.09002083153,"duration":142.85699999998906,"noteNumber":57,"velocity":71,"programNumber":27},{"time":260787.09002083153,"duration":142.85699999998906,"noteNumber":60,"velocity":71,"programNumber":27},{"time":260787.09002083153,"duration":142.85699999998906,"noteNumber":65,"velocity":71,"programNumber":27},{"time":261215.66102083153,"duration":142.85699999998906,"noteNumber":57,"velocity":71,"programNumber":27},{"time":261215.66102083153,"duration":142.85699999998906,"noteNumber":60,"velocity":71,"programNumber":27},{"time":261215.66102083153,"duration":142.85699999998906,"noteNumber":65,"velocity":71,"programNumber":27},{"time":261644.23202083152,"duration":142.85699999998906,"noteNumber":57,"velocity":71,"programNumber":27},{"time":261644.23202083152,"duration":142.85699999998906,"noteNumber":60,"velocity":71,"programNumber":27},{"time":261644.23202083152,"duration":142.85699999998906,"noteNumber":65,"velocity":71,"programNumber":27},{"time":262072.80302083152,"duration":142.85699999998906,"noteNumber":57,"velocity":71,"programNumber":27},{"time":262072.80302083152,"duration":142.85699999998906,"noteNumber":60,"velocity":71,"programNumber":27},{"time":262072.80302083152,"duration":142.85699999998906,"noteNumber":65,"velocity":71,"programNumber":27},{"time":262501.3740208315,"duration":142.85700000001816,"noteNumber":57,"velocity":71,"programNumber":27},{"time":262501.3740208315,"duration":142.85700000001816,"noteNumber":60,"velocity":71,"programNumber":27},{"time":262501.3740208315,"duration":142.85700000001816,"noteNumber":65,"velocity":71,"programNumber":27},{"time":262929.94502083154,"duration":142.85700000001816,"noteNumber":57,"velocity":71,"programNumber":27},{"time":262929.94502083154,"duration":142.85700000001816,"noteNumber":60,"velocity":71,"programNumber":27},{"time":262929.94502083154,"duration":142.85700000001816,"noteNumber":64,"velocity":71,"programNumber":27},{"time":263358.51602083154,"duration":142.85700000001816,"noteNumber":57,"velocity":71,"programNumber":27},{"time":263358.51602083154,"duration":142.85700000001816,"noteNumber":60,"velocity":71,"programNumber":27},{"time":263358.51602083154,"duration":142.85700000001816,"noteNumber":64,"velocity":71,"programNumber":27},{"time":263787.08702083153,"duration":142.85700000001816,"noteNumber":57,"velocity":71,"programNumber":27},{"time":263787.08702083153,"duration":142.85700000001816,"noteNumber":60,"velocity":71,"programNumber":27},{"time":263787.08702083153,"duration":142.85700000001816,"noteNumber":64,"velocity":71,"programNumber":27},{"time":264215.6580208315,"duration":142.85700000001816,"noteNumber":57,"velocity":71,"programNumber":27},{"time":264215.6580208315,"duration":142.85700000001816,"noteNumber":60,"velocity":71,"programNumber":27},{"time":264215.6580208315,"duration":142.85700000001816,"noteNumber":64,"velocity":71,"programNumber":27},{"time":264644.2290208315,"duration":142.85700000001816,"noteNumber":57,"velocity":71,"programNumber":27},{"time":264644.2290208315,"duration":142.85700000001816,"noteNumber":60,"velocity":71,"programNumber":27},{"time":264644.2290208315,"duration":142.85700000001816,"noteNumber":64,"velocity":71,"programNumber":27},{"time":265072.8000208315,"duration":142.85700000001816,"noteNumber":57,"velocity":71,"programNumber":27},{"time":265072.8000208315,"duration":142.85700000001816,"noteNumber":60,"velocity":71,"programNumber":27},{"time":265072.8000208315,"duration":142.85700000001816,"noteNumber":64,"velocity":71,"programNumber":27},{"time":265501.3710208316,"duration":142.85700000001816,"noteNumber":55,"velocity":71,"programNumber":27},{"time":265501.3710208316,"duration":142.85700000001816,"noteNumber":60,"velocity":71,"programNumber":27},{"time":265501.3710208316,"duration":142.85700000001816,"noteNumber":64,"velocity":71,"programNumber":27},{"time":265929.9420208316,"duration":142.85700000001816,"noteNumber":55,"velocity":71,"programNumber":27},{"time":265929.9420208316,"duration":142.85700000001816,"noteNumber":60,"velocity":71,"programNumber":27},{"time":265929.9420208316,"duration":142.85700000001816,"noteNumber":64,"velocity":71,"programNumber":27},{"time":266358.51302083157,"duration":142.85700000001816,"noteNumber":55,"velocity":71,"programNumber":27},{"time":266358.51302083157,"duration":142.85700000001816,"noteNumber":60,"velocity":71,"programNumber":27},{"time":266358.51302083157,"duration":142.85700000001816,"noteNumber":64,"velocity":71,"programNumber":27},{"time":266787.08402083156,"duration":142.85700000001816,"noteNumber":55,"velocity":71,"programNumber":27},{"time":266787.08402083156,"duration":142.85700000001816,"noteNumber":60,"velocity":71,"programNumber":27},{"time":266787.08402083156,"duration":142.85700000001816,"noteNumber":64,"velocity":71,"programNumber":27},{"time":267215.65502083156,"duration":142.85700000001816,"noteNumber":55,"velocity":71,"programNumber":27},{"time":267215.65502083156,"duration":142.85700000001816,"noteNumber":60,"velocity":71,"programNumber":27},{"time":267215.65502083156,"duration":142.85700000001816,"noteNumber":64,"velocity":71,"programNumber":27},{"time":267644.22602083156,"duration":142.85700000001816,"noteNumber":55,"velocity":71,"programNumber":27},{"time":267644.22602083156,"duration":142.85700000001816,"noteNumber":60,"velocity":71,"programNumber":27},{"time":267644.22602083156,"duration":142.85700000001816,"noteNumber":64,"velocity":71,"programNumber":27},{"time":268072.7970208316,"duration":142.85700000001816,"noteNumber":56,"velocity":71,"programNumber":27},{"time":268072.7970208316,"duration":142.85700000001816,"noteNumber":59,"velocity":71,"programNumber":27},{"time":268072.7970208316,"duration":142.85700000001816,"noteNumber":64,"velocity":71,"programNumber":27},{"time":268501.3680208316,"duration":142.85700000001816,"noteNumber":56,"velocity":71,"programNumber":27},{"time":268501.3680208316,"duration":142.85700000001816,"noteNumber":59,"velocity":71,"programNumber":27},{"time":268501.3680208316,"duration":142.85700000001816,"noteNumber":64,"velocity":71,"programNumber":27},{"time":268929.9390208316,"duration":142.85700000001816,"noteNumber":56,"velocity":71,"programNumber":27},{"time":268929.9390208316,"duration":142.85700000001816,"noteNumber":59,"velocity":71,"programNumber":27},{"time":268929.9390208316,"duration":142.85700000001816,"noteNumber":64,"velocity":71,"programNumber":27},{"time":269358.5100208316,"duration":142.85700000001816,"noteNumber":56,"velocity":71,"programNumber":27},{"time":269358.5100208316,"duration":142.85700000001816,"noteNumber":59,"velocity":71,"programNumber":27},{"time":269358.5100208316,"duration":142.85700000001816,"noteNumber":64,"velocity":71,"programNumber":27},{"time":269787.0810208316,"duration":142.85700000001816,"noteNumber":56,"velocity":71,"programNumber":27},{"time":269787.0810208316,"duration":142.85700000001816,"noteNumber":59,"velocity":71,"programNumber":27},{"time":269787.0810208316,"duration":142.85700000001816,"noteNumber":64,"velocity":71,"programNumber":27},{"time":270215.6520208316,"duration":142.85700000001816,"noteNumber":56,"velocity":71,"programNumber":27},{"time":270215.6520208316,"duration":142.85700000001816,"noteNumber":59,"velocity":71,"programNumber":27},{"time":270215.6520208316,"duration":142.85700000001816,"noteNumber":64,"velocity":71,"programNumber":27},{"time":270644.22302083165,"duration":178.57124999997905,"noteNumber":56,"velocity":71,"programNumber":27},{"time":270644.22302083165,"duration":178.57124999997905,"noteNumber":59,"velocity":71,"programNumber":27},{"time":270644.22302083165,"duration":178.57124999997905,"noteNumber":64,"velocity":71,"programNumber":27},{"time":271072.79402083164,"duration":142.85700000001816,"noteNumber":56,"velocity":71,"programNumber":27},{"time":271072.79402083164,"duration":142.85700000001816,"noteNumber":59,"velocity":71,"programNumber":27},{"time":271072.79402083164,"duration":142.85700000001816,"noteNumber":64,"velocity":71,"programNumber":27},{"time":271501.36502083164,"duration":142.85700000001816,"noteNumber":56,"velocity":71,"programNumber":27},{"time":271501.36502083164,"duration":142.85700000001816,"noteNumber":59,"velocity":71,"programNumber":27},{"time":271501.36502083164,"duration":142.85700000001816,"noteNumber":64,"velocity":71,"programNumber":27},{"time":271929.93602083164,"duration":142.85700000001816,"noteNumber":56,"velocity":71,"programNumber":27},{"time":271929.93602083164,"duration":142.85700000001816,"noteNumber":59,"velocity":71,"programNumber":27},{"time":271929.93602083164,"duration":142.85700000001816,"noteNumber":64,"velocity":71,"programNumber":27},{"time":272358.50702083163,"duration":142.85700000001816,"noteNumber":56,"velocity":71,"programNumber":27},{"time":272358.50702083163,"duration":142.85700000001816,"noteNumber":59,"velocity":71,"programNumber":27},{"time":272358.50702083163,"duration":142.85700000001816,"noteNumber":64,"velocity":71,"programNumber":27},{"time":272787.0780208316,"duration":142.85700000001816,"noteNumber":56,"velocity":71,"programNumber":27},{"time":272787.0780208316,"duration":142.85700000001816,"noteNumber":59,"velocity":71,"programNumber":27},{"time":272787.0780208316,"duration":142.85700000001816,"noteNumber":64,"velocity":71,"programNumber":27},{"time":273215.6490208317,"duration":142.85700000001816,"noteNumber":57,"velocity":71,"programNumber":27},{"time":273215.6490208317,"duration":142.85700000001816,"noteNumber":60,"velocity":71,"programNumber":27},{"time":273215.6490208317,"duration":142.85700000001816,"noteNumber":64,"velocity":71,"programNumber":27},{"time":273644.2200208317,"duration":142.85700000001816,"noteNumber":57,"velocity":71,"programNumber":27},{"time":273644.2200208317,"duration":142.85700000001816,"noteNumber":60,"velocity":71,"programNumber":27},{"time":273644.2200208317,"duration":142.85700000001816,"noteNumber":64,"velocity":71,"programNumber":27},{"time":274072.7910208317,"duration":142.85700000001816,"noteNumber":57,"velocity":71,"programNumber":27},{"time":274072.7910208317,"duration":142.85700000001816,"noteNumber":60,"velocity":71,"programNumber":27},{"time":274072.7910208317,"duration":142.85700000001816,"noteNumber":64,"velocity":71,"programNumber":27},{"time":274501.3620208317,"duration":142.85700000001816,"noteNumber":57,"velocity":71,"programNumber":27},{"time":274501.3620208317,"duration":142.85700000001816,"noteNumber":60,"velocity":71,"programNumber":27},{"time":274501.3620208317,"duration":142.85700000001816,"noteNumber":64,"velocity":71,"programNumber":27},{"time":274929.93302083167,"duration":142.85700000001816,"noteNumber":57,"velocity":71,"programNumber":27},{"time":274929.93302083167,"duration":142.85700000001816,"noteNumber":60,"velocity":71,"programNumber":27},{"time":274929.93302083167,"duration":142.85700000001816,"noteNumber":64,"velocity":71,"programNumber":27},{"time":275358.50402083166,"duration":142.85700000001816,"noteNumber":57,"velocity":71,"programNumber":27},{"time":275358.50402083166,"duration":142.85700000001816,"noteNumber":60,"velocity":71,"programNumber":27},{"time":275358.50402083166,"duration":142.85700000001816,"noteNumber":64,"velocity":71,"programNumber":27},{"time":275787.0750208317,"duration":142.85700000001816,"noteNumber":55,"velocity":71,"programNumber":27},{"time":275787.0750208317,"duration":142.85700000001816,"noteNumber":60,"velocity":71,"programNumber":27},{"time":275787.0750208317,"duration":142.85700000001816,"noteNumber":64,"velocity":71,"programNumber":27},{"time":276215.6460208317,"duration":142.85700000001816,"noteNumber":55,"velocity":71,"programNumber":27},{"time":276215.6460208317,"duration":142.85700000001816,"noteNumber":60,"velocity":71,"programNumber":27},{"time":276215.6460208317,"duration":142.85700000001816,"noteNumber":64,"velocity":71,"programNumber":27},{"time":276644.2170208317,"duration":142.85700000001816,"noteNumber":55,"velocity":71,"programNumber":27},{"time":276644.2170208317,"duration":142.85700000001816,"noteNumber":60,"velocity":71,"programNumber":27},{"time":276644.2170208317,"duration":142.85700000001816,"noteNumber":64,"velocity":71,"programNumber":27},{"time":277072.7880208317,"duration":142.85700000001816,"noteNumber":55,"velocity":71,"programNumber":27},{"time":277072.7880208317,"duration":142.85700000001816,"noteNumber":60,"velocity":71,"programNumber":27},{"time":277072.7880208317,"duration":142.85700000001816,"noteNumber":64,"velocity":71,"programNumber":27},{"time":277501.3590208317,"duration":142.85700000001816,"noteNumber":55,"velocity":71,"programNumber":27},{"time":277501.3590208317,"duration":142.85700000001816,"noteNumber":60,"velocity":71,"programNumber":27},{"time":277501.3590208317,"duration":142.85700000001816,"noteNumber":64,"velocity":71,"programNumber":27},{"time":277929.9300208317,"duration":142.85700000001816,"noteNumber":55,"velocity":71,"programNumber":27},{"time":277929.9300208317,"duration":142.85700000001816,"noteNumber":60,"velocity":71,"programNumber":27},{"time":277929.9300208317,"duration":142.85700000001816,"noteNumber":64,"velocity":71,"programNumber":27},{"time":278358.50102083175,"duration":142.85700000001816,"noteNumber":57,"velocity":71,"programNumber":27},{"time":278358.50102083175,"duration":142.85700000001816,"noteNumber":62,"velocity":71,"programNumber":27},{"time":278358.50102083175,"duration":142.85700000001816,"noteNumber":66,"velocity":71,"programNumber":27},{"time":278787.07202083175,"duration":142.85700000001816,"noteNumber":57,"velocity":71,"programNumber":27},{"time":278787.07202083175,"duration":142.85700000001816,"noteNumber":62,"velocity":71,"programNumber":27},{"time":278787.07202083175,"duration":142.85700000001816,"noteNumber":66,"velocity":71,"programNumber":27},{"time":279215.64302083175,"duration":142.85700000001816,"noteNumber":57,"velocity":71,"programNumber":27},{"time":279215.64302083175,"duration":142.85700000001816,"noteNumber":62,"velocity":71,"programNumber":27},{"time":279215.64302083175,"duration":142.85700000001816,"noteNumber":66,"velocity":71,"programNumber":27},{"time":279644.21402083174,"duration":142.85700000001816,"noteNumber":57,"velocity":71,"programNumber":27},{"time":279644.21402083174,"duration":142.85700000001816,"noteNumber":62,"velocity":71,"programNumber":27},{"time":279644.21402083174,"duration":142.85700000001816,"noteNumber":66,"velocity":71,"programNumber":27},{"time":280072.78502083174,"duration":142.85700000001816,"noteNumber":57,"velocity":71,"programNumber":27},{"time":280072.78502083174,"duration":142.85700000001816,"noteNumber":62,"velocity":71,"programNumber":27},{"time":280072.78502083174,"duration":142.85700000001816,"noteNumber":66,"velocity":71,"programNumber":27},{"time":280501.35602083174,"duration":142.85700000001816,"noteNumber":57,"velocity":71,"programNumber":27},{"time":280501.35602083174,"duration":142.85700000001816,"noteNumber":62,"velocity":71,"programNumber":27},{"time":280501.35602083174,"duration":142.85700000001816,"noteNumber":66,"velocity":71,"programNumber":27},{"time":280929.9270208318,"duration":142.85700000001816,"noteNumber":57,"velocity":71,"programNumber":27},{"time":280929.9270208318,"duration":142.85700000001816,"noteNumber":60,"velocity":71,"programNumber":27},{"time":280929.9270208318,"duration":142.85700000001816,"noteNumber":65,"velocity":71,"programNumber":27},{"time":281358.4980208318,"duration":142.85700000001816,"noteNumber":57,"velocity":71,"programNumber":27},{"time":281358.4980208318,"duration":142.85700000001816,"noteNumber":60,"velocity":71,"programNumber":27},{"time":281358.4980208318,"duration":142.85700000001816,"noteNumber":65,"velocity":71,"programNumber":27},{"time":281787.0690208318,"duration":142.85700000001816,"noteNumber":57,"velocity":71,"programNumber":27},{"time":281787.0690208318,"duration":142.85700000001816,"noteNumber":60,"velocity":71,"programNumber":27},{"time":281787.0690208318,"duration":142.85700000001816,"noteNumber":65,"velocity":71,"programNumber":27},{"time":282215.6400208318,"duration":142.85700000001816,"noteNumber":57,"velocity":71,"programNumber":27},{"time":282215.6400208318,"duration":142.85700000001816,"noteNumber":60,"velocity":71,"programNumber":27},{"time":282215.6400208318,"duration":142.85700000001816,"noteNumber":65,"velocity":71,"programNumber":27},{"time":282644.2110208318,"duration":142.85700000001816,"noteNumber":57,"velocity":71,"programNumber":27},{"time":282644.2110208318,"duration":142.85700000001816,"noteNumber":60,"velocity":71,"programNumber":27},{"time":282644.2110208318,"duration":142.85700000001816,"noteNumber":65,"velocity":71,"programNumber":27},{"time":283072.7820208318,"duration":142.85700000001816,"noteNumber":57,"velocity":71,"programNumber":27},{"time":283072.7820208318,"duration":142.85700000001816,"noteNumber":60,"velocity":71,"programNumber":27},{"time":283072.7820208318,"duration":142.85700000001816,"noteNumber":65,"velocity":71,"programNumber":27},{"time":283501.3530208318,"duration":142.85700000001816,"noteNumber":57,"velocity":71,"programNumber":27},{"time":283501.3530208318,"duration":142.85700000001816,"noteNumber":60,"velocity":71,"programNumber":27},{"time":283501.3530208318,"duration":142.85700000001816,"noteNumber":64,"velocity":71,"programNumber":27},{"time":283929.9240208318,"duration":142.85700000001816,"noteNumber":57,"velocity":71,"programNumber":27},{"time":283929.9240208318,"duration":142.85700000001816,"noteNumber":60,"velocity":71,"programNumber":27},{"time":283929.9240208318,"duration":142.85700000001816,"noteNumber":64,"velocity":71,"programNumber":27},{"time":284358.4950208318,"duration":142.85700000001816,"noteNumber":57,"velocity":71,"programNumber":27},{"time":284358.4950208318,"duration":142.85700000001816,"noteNumber":60,"velocity":71,"programNumber":27},{"time":284358.4950208318,"duration":142.85700000001816,"noteNumber":64,"velocity":71,"programNumber":27},{"time":284787.0660208318,"duration":142.85700000001816,"noteNumber":57,"velocity":71,"programNumber":27},{"time":284787.0660208318,"duration":142.85700000001816,"noteNumber":60,"velocity":71,"programNumber":27},{"time":284787.0660208318,"duration":142.85700000001816,"noteNumber":64,"velocity":71,"programNumber":27},{"time":285215.6370208318,"duration":142.85700000001816,"noteNumber":57,"velocity":71,"programNumber":27},{"time":285215.6370208318,"duration":142.85700000001816,"noteNumber":60,"velocity":71,"programNumber":27},{"time":285215.6370208318,"duration":142.85700000001816,"noteNumber":64,"velocity":71,"programNumber":27},{"time":285644.2080208318,"duration":142.85700000001816,"noteNumber":57,"velocity":71,"programNumber":27},{"time":285644.2080208318,"duration":142.85700000001816,"noteNumber":60,"velocity":71,"programNumber":27},{"time":285644.2080208318,"duration":142.85700000001816,"noteNumber":64,"velocity":71,"programNumber":27},{"time":286072.77902083186,"duration":142.85700000001816,"noteNumber":56,"velocity":71,"programNumber":27},{"time":286072.77902083186,"duration":142.85700000001816,"noteNumber":59,"velocity":71,"programNumber":27},{"time":286072.77902083186,"duration":142.85700000001816,"noteNumber":64,"velocity":71,"programNumber":27},{"time":286501.35002083186,"duration":142.85700000001816,"noteNumber":56,"velocity":71,"programNumber":27},{"time":286501.35002083186,"duration":142.85700000001816,"noteNumber":59,"velocity":71,"programNumber":27},{"time":286501.35002083186,"duration":142.85700000001816,"noteNumber":64,"velocity":71,"programNumber":27},{"time":286929.92102083185,"duration":142.85700000001816,"noteNumber":56,"velocity":71,"programNumber":27},{"time":286929.92102083185,"duration":142.85700000001816,"noteNumber":59,"velocity":71,"programNumber":27},{"time":286929.92102083185,"duration":142.85700000001816,"noteNumber":64,"velocity":71,"programNumber":27},{"time":287358.49202083185,"duration":142.85700000001816,"noteNumber":56,"velocity":71,"programNumber":27},{"time":287358.49202083185,"duration":142.85700000001816,"noteNumber":59,"velocity":71,"programNumber":27},{"time":287358.49202083185,"duration":142.85700000001816,"noteNumber":64,"velocity":71,"programNumber":27},{"time":287787.06302083185,"duration":142.85700000001816,"noteNumber":56,"velocity":71,"programNumber":27},{"time":287787.06302083185,"duration":142.85700000001816,"noteNumber":59,"velocity":71,"programNumber":27},{"time":287787.06302083185,"duration":142.85700000001816,"noteNumber":64,"velocity":71,"programNumber":27},{"time":288215.63402083184,"duration":142.85700000001816,"noteNumber":56,"velocity":71,"programNumber":27},{"time":288215.63402083184,"duration":142.85700000001816,"noteNumber":59,"velocity":71,"programNumber":27},{"time":288215.63402083184,"duration":142.85700000001816,"noteNumber":64,"velocity":71,"programNumber":27},{"time":288644.2050208319,"duration":142.85700000001816,"noteNumber":57,"velocity":61,"programNumber":27},{"time":288644.2050208319,"duration":142.85700000001816,"noteNumber":60,"velocity":61,"programNumber":27},{"time":288644.2050208319,"duration":142.85700000001816,"noteNumber":64,"velocity":61,"programNumber":27},{"time":289072.7760208319,"duration":142.85700000001816,"noteNumber":57,"velocity":61,"programNumber":27},{"time":289072.7760208319,"duration":142.85700000001816,"noteNumber":60,"velocity":61,"programNumber":27},{"time":289072.7760208319,"duration":142.85700000001816,"noteNumber":64,"velocity":61,"programNumber":27},{"time":289501.3470208319,"duration":142.85700000001816,"noteNumber":57,"velocity":61,"programNumber":27},{"time":289501.3470208319,"duration":142.85700000001816,"noteNumber":60,"velocity":61,"programNumber":27},{"time":289501.3470208319,"duration":142.85700000001816,"noteNumber":64,"velocity":61,"programNumber":27},{"time":289929.9180208319,"duration":142.85700000001816,"noteNumber":57,"velocity":61,"programNumber":27},{"time":289929.9180208319,"duration":142.85700000001816,"noteNumber":60,"velocity":61,"programNumber":27},{"time":289929.9180208319,"duration":142.85700000001816,"noteNumber":64,"velocity":61,"programNumber":27},{"time":290358.4890208319,"duration":142.85700000001816,"noteNumber":57,"velocity":61,"programNumber":27},{"time":290358.4890208319,"duration":142.85700000001816,"noteNumber":60,"velocity":61,"programNumber":27},{"time":290358.4890208319,"duration":142.85700000001816,"noteNumber":64,"velocity":61,"programNumber":27},{"time":290787.0600208319,"duration":142.85700000001816,"noteNumber":57,"velocity":61,"programNumber":27},{"time":290787.0600208319,"duration":142.85700000001816,"noteNumber":60,"velocity":61,"programNumber":27},{"time":290787.0600208319,"duration":142.85700000001816,"noteNumber":64,"velocity":61,"programNumber":27},{"time":291215.63102083193,"duration":142.85700000001816,"noteNumber":55,"velocity":61,"programNumber":27},{"time":291215.63102083193,"duration":142.85700000001816,"noteNumber":60,"velocity":61,"programNumber":27},{"time":291215.63102083193,"duration":142.85700000001816,"noteNumber":64,"velocity":61,"programNumber":27},{"time":291644.20202083193,"duration":142.85700000001816,"noteNumber":55,"velocity":61,"programNumber":27},{"time":291644.20202083193,"duration":142.85700000001816,"noteNumber":60,"velocity":61,"programNumber":27},{"time":291644.20202083193,"duration":142.85700000001816,"noteNumber":64,"velocity":61,"programNumber":27},{"time":292072.7730208319,"duration":142.85700000001816,"noteNumber":55,"velocity":61,"programNumber":27},{"time":292072.7730208319,"duration":142.85700000001816,"noteNumber":60,"velocity":61,"programNumber":27},{"time":292072.7730208319,"duration":142.85700000001816,"noteNumber":64,"velocity":61,"programNumber":27},{"time":292501.3440208319,"duration":142.85700000001816,"noteNumber":55,"velocity":61,"programNumber":27},{"time":292501.3440208319,"duration":142.85700000001816,"noteNumber":60,"velocity":61,"programNumber":27},{"time":292501.3440208319,"duration":142.85700000001816,"noteNumber":64,"velocity":61,"programNumber":27},{"time":292929.9150208319,"duration":142.85700000001816,"noteNumber":55,"velocity":61,"programNumber":27},{"time":292929.9150208319,"duration":142.85700000001816,"noteNumber":60,"velocity":61,"programNumber":27},{"time":292929.9150208319,"duration":142.85700000001816,"noteNumber":64,"velocity":61,"programNumber":27},{"time":293358.4860208319,"duration":142.85700000001816,"noteNumber":55,"velocity":61,"programNumber":27},{"time":293358.4860208319,"duration":142.85700000001816,"noteNumber":60,"velocity":61,"programNumber":27},{"time":293358.4860208319,"duration":142.85700000001816,"noteNumber":64,"velocity":61,"programNumber":27},{"time":293787.05702083197,"duration":142.85700000001816,"noteNumber":57,"velocity":61,"programNumber":27},{"time":293787.05702083197,"duration":142.85700000001816,"noteNumber":62,"velocity":61,"programNumber":27},{"time":293787.05702083197,"duration":142.85700000001816,"noteNumber":66,"velocity":61,"programNumber":27},{"time":294215.62802083197,"duration":142.85700000001816,"noteNumber":57,"velocity":61,"programNumber":27},{"time":294215.62802083197,"duration":142.85700000001816,"noteNumber":62,"velocity":61,"programNumber":27},{"time":294215.62802083197,"duration":142.85700000001816,"noteNumber":66,"velocity":61,"programNumber":27},{"time":294644.19902083196,"duration":142.85700000001816,"noteNumber":57,"velocity":61,"programNumber":27},{"time":294644.19902083196,"duration":142.85700000001816,"noteNumber":62,"velocity":61,"programNumber":27},{"time":294644.19902083196,"duration":142.85700000001816,"noteNumber":66,"velocity":61,"programNumber":27},{"time":295072.77002083196,"duration":142.85700000001816,"noteNumber":57,"velocity":61,"programNumber":27},{"time":295072.77002083196,"duration":142.85700000001816,"noteNumber":62,"velocity":61,"programNumber":27},{"time":295072.77002083196,"duration":142.85700000001816,"noteNumber":66,"velocity":61,"programNumber":27},{"time":295501.34102083195,"duration":142.85700000001816,"noteNumber":57,"velocity":61,"programNumber":27},{"time":295501.34102083195,"duration":142.85700000001816,"noteNumber":62,"velocity":61,"programNumber":27},{"time":295501.34102083195,"duration":142.85700000001816,"noteNumber":66,"velocity":61,"programNumber":27},{"time":295929.91202083195,"duration":142.85700000001816,"noteNumber":57,"velocity":61,"programNumber":27},{"time":295929.91202083195,"duration":142.85700000001816,"noteNumber":62,"velocity":61,"programNumber":27},{"time":295929.91202083195,"duration":142.85700000001816,"noteNumber":66,"velocity":61,"programNumber":27},{"time":296358.483020832,"duration":142.85700000001816,"noteNumber":57,"velocity":61,"programNumber":27},{"time":296358.483020832,"duration":142.85700000001816,"noteNumber":60,"velocity":61,"programNumber":27},{"time":296358.483020832,"duration":142.85700000001816,"noteNumber":65,"velocity":61,"programNumber":27},{"time":296787.054020832,"duration":142.85700000001816,"noteNumber":57,"velocity":61,"programNumber":27},{"time":296787.054020832,"duration":142.85700000001816,"noteNumber":60,"velocity":61,"programNumber":27},{"time":296787.054020832,"duration":142.85700000001816,"noteNumber":65,"velocity":61,"programNumber":27},{"time":297215.625020832,"duration":142.85700000001816,"noteNumber":57,"velocity":61,"programNumber":27},{"time":297215.625020832,"duration":142.85700000001816,"noteNumber":60,"velocity":61,"programNumber":27},{"time":297215.625020832,"duration":142.85700000001816,"noteNumber":65,"velocity":61,"programNumber":27},{"time":297644.196020832,"duration":178.57124999997905,"noteNumber":57,"velocity":61,"programNumber":27},{"time":297644.196020832,"duration":178.57124999997905,"noteNumber":60,"velocity":61,"programNumber":27},{"time":297644.196020832,"duration":178.57124999997905,"noteNumber":65,"velocity":61,"programNumber":27},{"time":298072.767020832,"duration":142.85700000001816,"noteNumber":57,"velocity":61,"programNumber":27},{"time":298072.767020832,"duration":142.85700000001816,"noteNumber":60,"velocity":61,"programNumber":27},{"time":298072.767020832,"duration":142.85700000001816,"noteNumber":65,"velocity":61,"programNumber":27},{"time":298501.338020832,"duration":142.85700000001816,"noteNumber":57,"velocity":61,"programNumber":27},{"time":298501.338020832,"duration":142.85700000001816,"noteNumber":60,"velocity":61,"programNumber":27},{"time":298501.338020832,"duration":142.85700000001816,"noteNumber":65,"velocity":61,"programNumber":27},{"time":298929.90902083204,"duration":142.85700000001816,"noteNumber":57,"velocity":61,"programNumber":27},{"time":298929.90902083204,"duration":142.85700000001816,"noteNumber":60,"velocity":61,"programNumber":27},{"time":298929.90902083204,"duration":142.85700000001816,"noteNumber":64,"velocity":61,"programNumber":27},{"time":299358.48002083204,"duration":142.85700000001816,"noteNumber":57,"velocity":61,"programNumber":27},{"time":299358.48002083204,"duration":142.85700000001816,"noteNumber":60,"velocity":61,"programNumber":27},{"time":299358.48002083204,"duration":142.85700000001816,"noteNumber":64,"velocity":61,"programNumber":27},{"time":299787.05102083203,"duration":142.85700000001816,"noteNumber":57,"velocity":61,"programNumber":27},{"time":299787.05102083203,"duration":142.85700000001816,"noteNumber":60,"velocity":61,"programNumber":27},{"time":299787.05102083203,"duration":142.85700000001816,"noteNumber":64,"velocity":61,"programNumber":27},{"time":300215.62202083203,"duration":142.85700000001816,"noteNumber":57,"velocity":61,"programNumber":27},{"time":300215.62202083203,"duration":142.85700000001816,"noteNumber":60,"velocity":61,"programNumber":27},{"time":300215.62202083203,"duration":142.85700000001816,"noteNumber":64,"velocity":61,"programNumber":27},{"time":300644.193020832,"duration":142.85700000001816,"noteNumber":57,"velocity":61,"programNumber":27},{"time":300644.193020832,"duration":142.85700000001816,"noteNumber":60,"velocity":61,"programNumber":27},{"time":300644.193020832,"duration":142.85700000001816,"noteNumber":64,"velocity":61,"programNumber":27},{"time":301072.764020832,"duration":142.85700000001816,"noteNumber":57,"velocity":61,"programNumber":27},{"time":301072.764020832,"duration":142.85700000001816,"noteNumber":60,"velocity":61,"programNumber":27},{"time":301072.764020832,"duration":142.85700000001816,"noteNumber":64,"velocity":61,"programNumber":27},{"time":301501.3350208321,"duration":142.85700000001816,"noteNumber":56,"velocity":61,"programNumber":27},{"time":301501.3350208321,"duration":142.85700000001816,"noteNumber":59,"velocity":61,"programNumber":27},{"time":301501.3350208321,"duration":142.85700000001816,"noteNumber":64,"velocity":61,"programNumber":27},{"time":301929.9060208321,"duration":142.85700000001816,"noteNumber":56,"velocity":61,"programNumber":27},{"time":301929.9060208321,"duration":142.85700000001816,"noteNumber":59,"velocity":61,"programNumber":27},{"time":301929.9060208321,"duration":142.85700000001816,"noteNumber":64,"velocity":61,"programNumber":27},{"time":302358.47702083207,"duration":142.85700000001816,"noteNumber":56,"velocity":61,"programNumber":27},{"time":302358.47702083207,"duration":142.85700000001816,"noteNumber":59,"velocity":61,"programNumber":27},{"time":302358.47702083207,"duration":142.85700000001816,"noteNumber":64,"velocity":61,"programNumber":27},{"time":302787.04802083207,"duration":142.85700000001816,"noteNumber":56,"velocity":61,"programNumber":27},{"time":302787.04802083207,"duration":142.85700000001816,"noteNumber":59,"velocity":61,"programNumber":27},{"time":302787.04802083207,"duration":142.85700000001816,"noteNumber":64,"velocity":61,"programNumber":27},{"time":303215.61902083206,"duration":142.85700000001816,"noteNumber":56,"velocity":61,"programNumber":27},{"time":303215.61902083206,"duration":142.85700000001816,"noteNumber":59,"velocity":61,"programNumber":27},{"time":303215.61902083206,"duration":142.85700000001816,"noteNumber":64,"velocity":61,"programNumber":27},{"time":303644.19002083206,"duration":142.85700000001816,"noteNumber":56,"velocity":61,"programNumber":27},{"time":303644.19002083206,"duration":142.85700000001816,"noteNumber":59,"velocity":61,"programNumber":27},{"time":303644.19002083206,"duration":142.85700000001816,"noteNumber":64,"velocity":61,"programNumber":27},{"time":304072.7610208321,"duration":142.85700000001816,"noteNumber":57,"velocity":61,"programNumber":27},{"time":304072.7610208321,"duration":142.85700000001816,"noteNumber":60,"velocity":61,"programNumber":27},{"time":304072.7610208321,"duration":142.85700000001816,"noteNumber":64,"velocity":61,"programNumber":27},{"time":304501.3320208321,"duration":142.85700000001816,"noteNumber":57,"velocity":61,"programNumber":27},{"time":304501.3320208321,"duration":142.85700000001816,"noteNumber":60,"velocity":61,"programNumber":27},{"time":304501.3320208321,"duration":142.85700000001816,"noteNumber":64,"velocity":61,"programNumber":27},{"time":304929.9030208321,"duration":142.85700000001816,"noteNumber":57,"velocity":61,"programNumber":27},{"time":304929.9030208321,"duration":142.85700000001816,"noteNumber":60,"velocity":61,"programNumber":27},{"time":304929.9030208321,"duration":142.85700000001816,"noteNumber":64,"velocity":61,"programNumber":27},{"time":305358.4740208321,"duration":142.85700000001816,"noteNumber":57,"velocity":61,"programNumber":27},{"time":305358.4740208321,"duration":142.85700000001816,"noteNumber":60,"velocity":61,"programNumber":27},{"time":305358.4740208321,"duration":142.85700000001816,"noteNumber":64,"velocity":61,"programNumber":27},{"time":305787.0450208321,"duration":142.85700000001816,"noteNumber":57,"velocity":61,"programNumber":27},{"time":305787.0450208321,"duration":142.85700000001816,"noteNumber":60,"velocity":61,"programNumber":27},{"time":305787.0450208321,"duration":142.85700000001816,"noteNumber":64,"velocity":61,"programNumber":27},{"time":306215.6160208321,"duration":142.85700000001816,"noteNumber":57,"velocity":61,"programNumber":27},{"time":306215.6160208321,"duration":142.85700000001816,"noteNumber":60,"velocity":61,"programNumber":27},{"time":306215.6160208321,"duration":142.85700000001816,"noteNumber":64,"velocity":61,"programNumber":27},{"time":306644.18702083215,"duration":142.85700000001816,"noteNumber":56,"velocity":61,"programNumber":27},{"time":306644.18702083215,"duration":142.85700000001816,"noteNumber":59,"velocity":61,"programNumber":27},{"time":306644.18702083215,"duration":142.85700000001816,"noteNumber":64,"velocity":61,"programNumber":27},{"time":307072.75802083215,"duration":142.85700000001816,"noteNumber":56,"velocity":61,"programNumber":27},{"time":307072.75802083215,"duration":142.85700000001816,"noteNumber":59,"velocity":61,"programNumber":27},{"time":307072.75802083215,"duration":142.85700000001816,"noteNumber":64,"velocity":61,"programNumber":27},{"time":307501.32902083214,"duration":142.85700000001816,"noteNumber":56,"velocity":61,"programNumber":27},{"time":307501.32902083214,"duration":142.85700000001816,"noteNumber":59,"velocity":61,"programNumber":27},{"time":307501.32902083214,"duration":142.85700000001816,"noteNumber":64,"velocity":61,"programNumber":27},{"time":307929.90002083214,"duration":142.85700000001816,"noteNumber":56,"velocity":61,"programNumber":27},{"time":307929.90002083214,"duration":142.85700000001816,"noteNumber":59,"velocity":61,"programNumber":27},{"time":307929.90002083214,"duration":142.85700000001816,"noteNumber":64,"velocity":61,"programNumber":27},{"time":308358.47102083213,"duration":142.85700000001816,"noteNumber":56,"velocity":61,"programNumber":27},{"time":308358.47102083213,"duration":142.85700000001816,"noteNumber":59,"velocity":61,"programNumber":27},{"time":308358.47102083213,"duration":142.85700000001816,"noteNumber":64,"velocity":61,"programNumber":27},{"time":308787.04202083213,"duration":142.85700000001816,"noteNumber":56,"velocity":61,"programNumber":27},{"time":308787.04202083213,"duration":142.85700000001816,"noteNumber":59,"velocity":61,"programNumber":27},{"time":308787.04202083213,"duration":142.85700000001816,"noteNumber":64,"velocity":61,"programNumber":27},{"time":309215.6130208322,"duration":142.85700000001816,"noteNumber":57,"velocity":71,"programNumber":27},{"time":309215.6130208322,"duration":142.85700000001816,"noteNumber":60,"velocity":71,"programNumber":27},{"time":309215.6130208322,"duration":142.85700000001816,"noteNumber":64,"velocity":71,"programNumber":27},{"time":309644.1840208322,"duration":142.85700000001816,"noteNumber":57,"velocity":71,"programNumber":27},{"time":309644.1840208322,"duration":142.85700000001816,"noteNumber":60,"velocity":71,"programNumber":27},{"time":309644.1840208322,"duration":142.85700000001816,"noteNumber":64,"velocity":71,"programNumber":27},{"time":310072.7550208322,"duration":142.85700000001816,"noteNumber":57,"velocity":71,"programNumber":27},{"time":310072.7550208322,"duration":142.85700000001816,"noteNumber":60,"velocity":71,"programNumber":27},{"time":310072.7550208322,"duration":142.85700000001816,"noteNumber":64,"velocity":71,"programNumber":27},{"time":310501.3260208322,"duration":142.85700000001816,"noteNumber":57,"velocity":71,"programNumber":27},{"time":310501.3260208322,"duration":142.85700000001816,"noteNumber":60,"velocity":71,"programNumber":27},{"time":310501.3260208322,"duration":142.85700000001816,"noteNumber":64,"velocity":71,"programNumber":27},{"time":310929.89702083217,"duration":142.85700000001816,"noteNumber":57,"velocity":71,"programNumber":27},{"time":310929.89702083217,"duration":142.85700000001816,"noteNumber":60,"velocity":71,"programNumber":27},{"time":310929.89702083217,"duration":142.85700000001816,"noteNumber":64,"velocity":71,"programNumber":27},{"time":311358.46802083217,"duration":142.85700000001816,"noteNumber":57,"velocity":71,"programNumber":27},{"time":311358.46802083217,"duration":142.85700000001816,"noteNumber":60,"velocity":71,"programNumber":27},{"time":311358.46802083217,"duration":142.85700000001816,"noteNumber":64,"velocity":71,"programNumber":27},{"time":311787.0390208322,"duration":142.85700000001816,"noteNumber":55,"velocity":71,"programNumber":27},{"time":311787.0390208322,"duration":142.85700000001816,"noteNumber":60,"velocity":71,"programNumber":27},{"time":311787.0390208322,"duration":142.85700000001816,"noteNumber":64,"velocity":71,"programNumber":27},{"time":312215.6100208322,"duration":142.85700000001816,"noteNumber":55,"velocity":71,"programNumber":27},{"time":312215.6100208322,"duration":142.85700000001816,"noteNumber":60,"velocity":71,"programNumber":27},{"time":312215.6100208322,"duration":142.85700000001816,"noteNumber":64,"velocity":71,"programNumber":27},{"time":312644.1810208322,"duration":142.85700000001816,"noteNumber":55,"velocity":71,"programNumber":27},{"time":312644.1810208322,"duration":142.85700000001816,"noteNumber":60,"velocity":71,"programNumber":27},{"time":312644.1810208322,"duration":142.85700000001816,"noteNumber":64,"velocity":71,"programNumber":27},{"time":313072.7520208322,"duration":142.85700000001816,"noteNumber":55,"velocity":71,"programNumber":27},{"time":313072.7520208322,"duration":142.85700000001816,"noteNumber":60,"velocity":71,"programNumber":27},{"time":313072.7520208322,"duration":142.85700000001816,"noteNumber":64,"velocity":71,"programNumber":27},{"time":313501.3230208322,"duration":142.85700000001816,"noteNumber":55,"velocity":71,"programNumber":27},{"time":313501.3230208322,"duration":142.85700000001816,"noteNumber":60,"velocity":71,"programNumber":27},{"time":313501.3230208322,"duration":142.85700000001816,"noteNumber":64,"velocity":71,"programNumber":27},{"time":313929.8940208322,"duration":142.85700000001816,"noteNumber":55,"velocity":71,"programNumber":27},{"time":313929.8940208322,"duration":142.85700000001816,"noteNumber":60,"velocity":71,"programNumber":27},{"time":313929.8940208322,"duration":142.85700000001816,"noteNumber":64,"velocity":71,"programNumber":27},{"time":314358.46502083226,"duration":142.85700000001816,"noteNumber":57,"velocity":71,"programNumber":27},{"time":314358.46502083226,"duration":142.85700000001816,"noteNumber":62,"velocity":71,"programNumber":27},{"time":314358.46502083226,"duration":142.85700000001816,"noteNumber":66,"velocity":71,"programNumber":27},{"time":314787.03602083225,"duration":142.85700000001816,"noteNumber":57,"velocity":71,"programNumber":27},{"time":314787.03602083225,"duration":142.85700000001816,"noteNumber":62,"velocity":71,"programNumber":27},{"time":314787.03602083225,"duration":142.85700000001816,"noteNumber":66,"velocity":71,"programNumber":27},{"time":315215.60702083225,"duration":142.85700000001816,"noteNumber":57,"velocity":71,"programNumber":27},{"time":315215.60702083225,"duration":142.85700000001816,"noteNumber":62,"velocity":71,"programNumber":27},{"time":315215.60702083225,"duration":142.85700000001816,"noteNumber":66,"velocity":71,"programNumber":27},{"time":315644.17802083225,"duration":142.85700000001816,"noteNumber":57,"velocity":71,"programNumber":27},{"time":315644.17802083225,"duration":142.85700000001816,"noteNumber":62,"velocity":71,"programNumber":27},{"time":315644.17802083225,"duration":142.85700000001816,"noteNumber":66,"velocity":71,"programNumber":27},{"time":316072.74902083224,"duration":142.85700000001816,"noteNumber":57,"velocity":71,"programNumber":27},{"time":316072.74902083224,"duration":142.85700000001816,"noteNumber":62,"velocity":71,"programNumber":27},{"time":316072.74902083224,"duration":142.85700000001816,"noteNumber":66,"velocity":71,"programNumber":27},{"time":316501.32002083224,"duration":142.85700000001816,"noteNumber":57,"velocity":71,"programNumber":27},{"time":316501.32002083224,"duration":142.85700000001816,"noteNumber":62,"velocity":71,"programNumber":27},{"time":316501.32002083224,"duration":142.85700000001816,"noteNumber":66,"velocity":71,"programNumber":27},{"time":316929.8910208323,"duration":142.85700000001816,"noteNumber":57,"velocity":71,"programNumber":27},{"time":316929.8910208323,"duration":142.85700000001816,"noteNumber":60,"velocity":71,"programNumber":27},{"time":316929.8910208323,"duration":142.85700000001816,"noteNumber":65,"velocity":71,"programNumber":27},{"time":317358.4620208323,"duration":142.85700000001816,"noteNumber":57,"velocity":71,"programNumber":27},{"time":317358.4620208323,"duration":142.85700000001816,"noteNumber":60,"velocity":71,"programNumber":27},{"time":317358.4620208323,"duration":142.85700000001816,"noteNumber":65,"velocity":71,"programNumber":27},{"time":317787.0330208323,"duration":142.85700000001816,"noteNumber":57,"velocity":71,"programNumber":27},{"time":317787.0330208323,"duration":142.85700000001816,"noteNumber":60,"velocity":71,"programNumber":27},{"time":317787.0330208323,"duration":142.85700000001816,"noteNumber":65,"velocity":71,"programNumber":27},{"time":318215.6040208323,"duration":142.85700000001816,"noteNumber":57,"velocity":71,"programNumber":27},{"time":318215.6040208323,"duration":142.85700000001816,"noteNumber":60,"velocity":71,"programNumber":27},{"time":318215.6040208323,"duration":142.85700000001816,"noteNumber":65,"velocity":71,"programNumber":27},{"time":318644.1750208323,"duration":142.85700000001816,"noteNumber":57,"velocity":71,"programNumber":27},{"time":318644.1750208323,"duration":142.85700000001816,"noteNumber":60,"velocity":71,"programNumber":27},{"time":318644.1750208323,"duration":142.85700000001816,"noteNumber":65,"velocity":71,"programNumber":27},{"time":319072.7460208323,"duration":142.85700000001816,"noteNumber":57,"velocity":71,"programNumber":27},{"time":319072.7460208323,"duration":142.85700000001816,"noteNumber":60,"velocity":71,"programNumber":27},{"time":319072.7460208323,"duration":142.85700000001816,"noteNumber":65,"velocity":71,"programNumber":27},{"time":319501.3170208323,"duration":142.85700000001816,"noteNumber":57,"velocity":71,"programNumber":27},{"time":319501.3170208323,"duration":142.85700000001816,"noteNumber":60,"velocity":71,"programNumber":27},{"time":319501.3170208323,"duration":142.85700000001816,"noteNumber":64,"velocity":71,"programNumber":27},{"time":319929.8880208323,"duration":142.85700000001816,"noteNumber":57,"velocity":71,"programNumber":27},{"time":319929.8880208323,"duration":142.85700000001816,"noteNumber":60,"velocity":71,"programNumber":27},{"time":319929.8880208323,"duration":142.85700000001816,"noteNumber":64,"velocity":71,"programNumber":27},{"time":320358.4590208323,"duration":142.85700000001816,"noteNumber":57,"velocity":71,"programNumber":27},{"time":320358.4590208323,"duration":142.85700000001816,"noteNumber":60,"velocity":71,"programNumber":27},{"time":320358.4590208323,"duration":142.85700000001816,"noteNumber":64,"velocity":71,"programNumber":27},{"time":320787.0300208323,"duration":142.85700000001816,"noteNumber":57,"velocity":71,"programNumber":27},{"time":320787.0300208323,"duration":142.85700000001816,"noteNumber":60,"velocity":71,"programNumber":27},{"time":320787.0300208323,"duration":142.85700000001816,"noteNumber":64,"velocity":71,"programNumber":27},{"time":321215.6010208323,"duration":142.85700000001816,"noteNumber":57,"velocity":71,"programNumber":27},{"time":321215.6010208323,"duration":142.85700000001816,"noteNumber":60,"velocity":71,"programNumber":27},{"time":321215.6010208323,"duration":142.85700000001816,"noteNumber":64,"velocity":71,"programNumber":27},{"time":321644.1720208323,"duration":142.85700000001816,"noteNumber":57,"velocity":71,"programNumber":27},{"time":321644.1720208323,"duration":142.85700000001816,"noteNumber":60,"velocity":71,"programNumber":27},{"time":321644.1720208323,"duration":142.85700000001816,"noteNumber":64,"velocity":71,"programNumber":27},{"time":322072.74302083236,"duration":142.85700000001816,"noteNumber":55,"velocity":71,"programNumber":27},{"time":322072.74302083236,"duration":142.85700000001816,"noteNumber":60,"velocity":71,"programNumber":27},{"time":322072.74302083236,"duration":142.85700000001816,"noteNumber":64,"velocity":71,"programNumber":27},{"time":322501.31402083236,"duration":142.85700000001816,"noteNumber":55,"velocity":71,"programNumber":27},{"time":322501.31402083236,"duration":142.85700000001816,"noteNumber":60,"velocity":71,"programNumber":27},{"time":322501.31402083236,"duration":142.85700000001816,"noteNumber":64,"velocity":71,"programNumber":27},{"time":322929.88502083236,"duration":142.85700000001816,"noteNumber":55,"velocity":71,"programNumber":27},{"time":322929.88502083236,"duration":142.85700000001816,"noteNumber":60,"velocity":71,"programNumber":27},{"time":322929.88502083236,"duration":142.85700000001816,"noteNumber":64,"velocity":71,"programNumber":27},{"time":323358.45602083235,"duration":142.85700000001816,"noteNumber":55,"velocity":71,"programNumber":27},{"time":323358.45602083235,"duration":142.85700000001816,"noteNumber":60,"velocity":71,"programNumber":27},{"time":323358.45602083235,"duration":142.85700000001816,"noteNumber":64,"velocity":71,"programNumber":27},{"time":323787.02702083235,"duration":142.85700000001816,"noteNumber":55,"velocity":71,"programNumber":27},{"time":323787.02702083235,"duration":142.85700000001816,"noteNumber":60,"velocity":71,"programNumber":27},{"time":323787.02702083235,"duration":142.85700000001816,"noteNumber":64,"velocity":71,"programNumber":27},{"time":324215.59802083235,"duration":142.85700000001816,"noteNumber":55,"velocity":71,"programNumber":27},{"time":324215.59802083235,"duration":142.85700000001816,"noteNumber":60,"velocity":71,"programNumber":27},{"time":324215.59802083235,"duration":142.85700000001816,"noteNumber":64,"velocity":71,"programNumber":27},{"time":324644.1690208324,"duration":142.85700000001816,"noteNumber":56,"velocity":71,"programNumber":27},{"time":324644.1690208324,"duration":142.85700000001816,"noteNumber":59,"velocity":71,"programNumber":27},{"time":324644.1690208324,"duration":142.85700000001816,"noteNumber":64,"velocity":71,"programNumber":27},{"time":325072.7400208324,"duration":142.85700000001816,"noteNumber":56,"velocity":71,"programNumber":27},{"time":325072.7400208324,"duration":142.85700000001816,"noteNumber":59,"velocity":71,"programNumber":27},{"time":325072.7400208324,"duration":142.85700000001816,"noteNumber":64,"velocity":71,"programNumber":27},{"time":325501.3110208324,"duration":142.85700000001816,"noteNumber":56,"velocity":71,"programNumber":27},{"time":325501.3110208324,"duration":142.85700000001816,"noteNumber":59,"velocity":71,"programNumber":27},{"time":325501.3110208324,"duration":142.85700000001816,"noteNumber":64,"velocity":71,"programNumber":27},{"time":325929.8820208324,"duration":142.85700000001816,"noteNumber":56,"velocity":71,"programNumber":27},{"time":325929.8820208324,"duration":142.85700000001816,"noteNumber":59,"velocity":71,"programNumber":27},{"time":325929.8820208324,"duration":142.85700000001816,"noteNumber":64,"velocity":71,"programNumber":27},{"time":326358.4530208324,"duration":142.85700000001816,"noteNumber":56,"velocity":71,"programNumber":27},{"time":326358.4530208324,"duration":142.85700000001816,"noteNumber":59,"velocity":71,"programNumber":27},{"time":326358.4530208324,"duration":142.85700000001816,"noteNumber":64,"velocity":71,"programNumber":27},{"time":326787.0240208324,"duration":142.85700000001816,"noteNumber":56,"velocity":71,"programNumber":27},{"time":326787.0240208324,"duration":142.85700000001816,"noteNumber":59,"velocity":71,"programNumber":27},{"time":326787.0240208324,"duration":142.85700000001816,"noteNumber":64,"velocity":71,"programNumber":27},{"time":327215.59502083244,"duration":178.57124999997905,"noteNumber":56,"velocity":71,"programNumber":27},{"time":327215.59502083244,"duration":178.57124999997905,"noteNumber":59,"velocity":71,"programNumber":27},{"time":327215.59502083244,"duration":178.57124999997905,"noteNumber":64,"velocity":71,"programNumber":27},{"time":327644.16602083243,"duration":142.85700000001816,"noteNumber":56,"velocity":71,"programNumber":27},{"time":327644.16602083243,"duration":142.85700000001816,"noteNumber":59,"velocity":71,"programNumber":27},{"time":327644.16602083243,"duration":142.85700000001816,"noteNumber":64,"velocity":71,"programNumber":27},{"time":328072.7370208324,"duration":142.85700000001816,"noteNumber":56,"velocity":71,"programNumber":27},{"time":328072.7370208324,"duration":142.85700000001816,"noteNumber":59,"velocity":71,"programNumber":27},{"time":328072.7370208324,"duration":142.85700000001816,"noteNumber":64,"velocity":71,"programNumber":27},{"time":328501.3080208324,"duration":142.85700000001816,"noteNumber":56,"velocity":71,"programNumber":27},{"time":328501.3080208324,"duration":142.85700000001816,"noteNumber":59,"velocity":71,"programNumber":27},{"time":328501.3080208324,"duration":142.85700000001816,"noteNumber":64,"velocity":71,"programNumber":27},{"time":328929.8790208324,"duration":142.85700000001816,"noteNumber":56,"velocity":71,"programNumber":27},{"time":328929.8790208324,"duration":142.85700000001816,"noteNumber":59,"velocity":71,"programNumber":27},{"time":328929.8790208324,"duration":142.85700000001816,"noteNumber":64,"velocity":71,"programNumber":27},{"time":329358.4500208324,"duration":142.85700000001816,"noteNumber":56,"velocity":71,"programNumber":27},{"time":329358.4500208324,"duration":142.85700000001816,"noteNumber":59,"velocity":71,"programNumber":27},{"time":329358.4500208324,"duration":142.85700000001816,"noteNumber":64,"velocity":71,"programNumber":27},{"time":329787.0210208325,"duration":142.85700000001816,"noteNumber":57,"velocity":71,"programNumber":27},{"time":329787.0210208325,"duration":142.85700000001816,"noteNumber":60,"velocity":71,"programNumber":27},{"time":329787.0210208325,"duration":142.85700000001816,"noteNumber":64,"velocity":71,"programNumber":27},{"time":330215.59202083247,"duration":142.85700000001816,"noteNumber":57,"velocity":71,"programNumber":27},{"time":330215.59202083247,"duration":142.85700000001816,"noteNumber":60,"velocity":71,"programNumber":27},{"time":330215.59202083247,"duration":142.85700000001816,"noteNumber":64,"velocity":71,"programNumber":27},{"time":330644.16302083246,"duration":142.85700000001816,"noteNumber":57,"velocity":71,"programNumber":27},{"time":330644.16302083246,"duration":142.85700000001816,"noteNumber":60,"velocity":71,"programNumber":27},{"time":330644.16302083246,"duration":142.85700000001816,"noteNumber":64,"velocity":71,"programNumber":27},{"time":331072.73402083246,"duration":142.85700000001816,"noteNumber":57,"velocity":71,"programNumber":27},{"time":331072.73402083246,"duration":142.85700000001816,"noteNumber":60,"velocity":71,"programNumber":27},{"time":331072.73402083246,"duration":142.85700000001816,"noteNumber":64,"velocity":71,"programNumber":27},{"time":331501.30502083246,"duration":142.85700000001816,"noteNumber":57,"velocity":71,"programNumber":27},{"time":331501.30502083246,"duration":142.85700000001816,"noteNumber":60,"velocity":71,"programNumber":27},{"time":331501.30502083246,"duration":142.85700000001816,"noteNumber":64,"velocity":71,"programNumber":27},{"time":331929.87602083245,"duration":142.85700000001816,"noteNumber":57,"velocity":71,"programNumber":27},{"time":331929.87602083245,"duration":142.85700000001816,"noteNumber":60,"velocity":71,"programNumber":27},{"time":331929.87602083245,"duration":142.85700000001816,"noteNumber":64,"velocity":71,"programNumber":27},{"time":332358.4470208325,"duration":142.85700000001816,"noteNumber":55,"velocity":71,"programNumber":27},{"time":332358.4470208325,"duration":142.85700000001816,"noteNumber":60,"velocity":71,"programNumber":27},{"time":332358.4470208325,"duration":142.85700000001816,"noteNumber":64,"velocity":71,"programNumber":27},{"time":332787.0180208325,"duration":142.85700000001816,"noteNumber":55,"velocity":71,"programNumber":27},{"time":332787.0180208325,"duration":142.85700000001816,"noteNumber":60,"velocity":71,"programNumber":27},{"time":332787.0180208325,"duration":142.85700000001816,"noteNumber":64,"velocity":71,"programNumber":27},{"time":333215.5890208325,"duration":142.85700000001816,"noteNumber":55,"velocity":71,"programNumber":27},{"time":333215.5890208325,"duration":142.85700000001816,"noteNumber":60,"velocity":71,"programNumber":27},{"time":333215.5890208325,"duration":142.85700000001816,"noteNumber":64,"velocity":71,"programNumber":27},{"time":333644.1600208325,"duration":142.85700000001816,"noteNumber":55,"velocity":71,"programNumber":27},{"time":333644.1600208325,"duration":142.85700000001816,"noteNumber":60,"velocity":71,"programNumber":27},{"time":333644.1600208325,"duration":142.85700000001816,"noteNumber":64,"velocity":71,"programNumber":27},{"time":334072.7310208325,"duration":142.85700000001816,"noteNumber":55,"velocity":71,"programNumber":27},{"time":334072.7310208325,"duration":142.85700000001816,"noteNumber":60,"velocity":71,"programNumber":27},{"time":334072.7310208325,"duration":142.85700000001816,"noteNumber":64,"velocity":71,"programNumber":27},{"time":334501.3020208325,"duration":142.85700000001816,"noteNumber":55,"velocity":71,"programNumber":27},{"time":334501.3020208325,"duration":142.85700000001816,"noteNumber":60,"velocity":71,"programNumber":27},{"time":334501.3020208325,"duration":142.85700000001816,"noteNumber":64,"velocity":71,"programNumber":27},{"time":334929.87302083254,"duration":142.85700000001816,"noteNumber":57,"velocity":71,"programNumber":27},{"time":334929.87302083254,"duration":142.85700000001816,"noteNumber":62,"velocity":71,"programNumber":27},{"time":334929.87302083254,"duration":142.85700000001816,"noteNumber":66,"velocity":71,"programNumber":27},{"time":335358.44402083254,"duration":142.85700000001816,"noteNumber":57,"velocity":71,"programNumber":27},{"time":335358.44402083254,"duration":142.85700000001816,"noteNumber":62,"velocity":71,"programNumber":27},{"time":335358.44402083254,"duration":142.85700000001816,"noteNumber":66,"velocity":71,"programNumber":27},{"time":335787.01502083254,"duration":142.85700000001816,"noteNumber":57,"velocity":71,"programNumber":27},{"time":335787.01502083254,"duration":142.85700000001816,"noteNumber":62,"velocity":71,"programNumber":27},{"time":335787.01502083254,"duration":142.85700000001816,"noteNumber":66,"velocity":71,"programNumber":27},{"time":336215.58602083253,"duration":142.85700000001816,"noteNumber":57,"velocity":71,"programNumber":27},{"time":336215.58602083253,"duration":142.85700000001816,"noteNumber":62,"velocity":71,"programNumber":27},{"time":336215.58602083253,"duration":142.85700000001816,"noteNumber":66,"velocity":71,"programNumber":27},{"time":336644.1570208325,"duration":142.85700000001816,"noteNumber":57,"velocity":71,"programNumber":27},{"time":336644.1570208325,"duration":142.85700000001816,"noteNumber":62,"velocity":71,"programNumber":27},{"time":336644.1570208325,"duration":142.85700000001816,"noteNumber":66,"velocity":71,"programNumber":27},{"time":337072.7280208325,"duration":142.85700000001816,"noteNumber":57,"velocity":71,"programNumber":27},{"time":337072.7280208325,"duration":142.85700000001816,"noteNumber":62,"velocity":71,"programNumber":27},{"time":337072.7280208325,"duration":142.85700000001816,"noteNumber":66,"velocity":71,"programNumber":27},{"time":337501.2990208326,"duration":142.85700000001816,"noteNumber":57,"velocity":71,"programNumber":27},{"time":337501.2990208326,"duration":142.85700000001816,"noteNumber":60,"velocity":71,"programNumber":27},{"time":337501.2990208326,"duration":142.85700000001816,"noteNumber":65,"velocity":71,"programNumber":27},{"time":337929.8700208326,"duration":142.85700000001816,"noteNumber":57,"velocity":71,"programNumber":27},{"time":337929.8700208326,"duration":142.85700000001816,"noteNumber":60,"velocity":71,"programNumber":27},{"time":337929.8700208326,"duration":142.85700000001816,"noteNumber":65,"velocity":71,"programNumber":27},{"time":338358.4410208326,"duration":142.85700000001816,"noteNumber":57,"velocity":71,"programNumber":27},{"time":338358.4410208326,"duration":142.85700000001816,"noteNumber":60,"velocity":71,"programNumber":27},{"time":338358.4410208326,"duration":142.85700000001816,"noteNumber":65,"velocity":71,"programNumber":27},{"time":338787.01202083257,"duration":142.85700000001816,"noteNumber":57,"velocity":71,"programNumber":27},{"time":338787.01202083257,"duration":142.85700000001816,"noteNumber":60,"velocity":71,"programNumber":27},{"time":338787.01202083257,"duration":142.85700000001816,"noteNumber":65,"velocity":71,"programNumber":27},{"time":339215.58302083256,"duration":142.85700000001816,"noteNumber":57,"velocity":71,"programNumber":27},{"time":339215.58302083256,"duration":142.85700000001816,"noteNumber":60,"velocity":71,"programNumber":27},{"time":339215.58302083256,"duration":142.85700000001816,"noteNumber":65,"velocity":71,"programNumber":27},{"time":339644.15402083256,"duration":142.85700000001816,"noteNumber":57,"velocity":71,"programNumber":27},{"time":339644.15402083256,"duration":142.85700000001816,"noteNumber":60,"velocity":71,"programNumber":27},{"time":339644.15402083256,"duration":142.85700000001816,"noteNumber":65,"velocity":71,"programNumber":27},{"time":340072.7250208326,"duration":142.85700000001816,"noteNumber":57,"velocity":71,"programNumber":27},{"time":340072.7250208326,"duration":142.85700000001816,"noteNumber":60,"velocity":71,"programNumber":27},{"time":340072.7250208326,"duration":142.85700000001816,"noteNumber":64,"velocity":71,"programNumber":27},{"time":340501.2960208326,"duration":142.85700000001816,"noteNumber":57,"velocity":71,"programNumber":27},{"time":340501.2960208326,"duration":142.85700000001816,"noteNumber":60,"velocity":71,"programNumber":27},{"time":340501.2960208326,"duration":142.85700000001816,"noteNumber":64,"velocity":71,"programNumber":27},{"time":340929.8670208326,"duration":142.85700000001816,"noteNumber":57,"velocity":71,"programNumber":27},{"time":340929.8670208326,"duration":142.85700000001816,"noteNumber":60,"velocity":71,"programNumber":27},{"time":340929.8670208326,"duration":142.85700000001816,"noteNumber":64,"velocity":71,"programNumber":27},{"time":341358.4380208326,"duration":142.85700000001816,"noteNumber":57,"velocity":71,"programNumber":27},{"time":341358.4380208326,"duration":142.85700000001816,"noteNumber":60,"velocity":71,"programNumber":27},{"time":341358.4380208326,"duration":142.85700000001816,"noteNumber":64,"velocity":71,"programNumber":27},{"time":341787.0090208326,"duration":142.85700000001816,"noteNumber":57,"velocity":71,"programNumber":27},{"time":341787.0090208326,"duration":142.85700000001816,"noteNumber":60,"velocity":71,"programNumber":27},{"time":341787.0090208326,"duration":142.85700000001816,"noteNumber":64,"velocity":71,"programNumber":27},{"time":342215.5800208326,"duration":142.85700000001816,"noteNumber":57,"velocity":71,"programNumber":27},{"time":342215.5800208326,"duration":142.85700000001816,"noteNumber":60,"velocity":71,"programNumber":27},{"time":342215.5800208326,"duration":142.85700000001816,"noteNumber":64,"velocity":71,"programNumber":27},{"time":342608.43677083263,"duration":89.28562500001863,"noteNumber":56,"velocity":71,"programNumber":27},{"time":342608.43677083263,"duration":89.28562500001863,"noteNumber":59,"velocity":71,"programNumber":27},{"time":342608.43677083263,"duration":89.28562500001863,"noteNumber":64,"velocity":71,"programNumber":27},{"time":342974.50783333264,"duration":142.85700000001816,"noteNumber":56,"velocity":71,"programNumber":27},{"time":342974.50783333264,"duration":142.85700000001816,"noteNumber":59,"velocity":71,"programNumber":27},{"time":342974.50783333264,"duration":142.85700000001816,"noteNumber":64,"velocity":71,"programNumber":27},{"time":343403.07883333263,"duration":142.85700000001816,"noteNumber":56,"velocity":71,"programNumber":27},{"time":343403.07883333263,"duration":142.85700000001816,"noteNumber":59,"velocity":71,"programNumber":27},{"time":343403.07883333263,"duration":142.85700000001816,"noteNumber":64,"velocity":71,"programNumber":27},{"time":343831.64983333263,"duration":142.85700000001816,"noteNumber":56,"velocity":71,"programNumber":27},{"time":343831.64983333263,"duration":142.85700000001816,"noteNumber":59,"velocity":71,"programNumber":27},{"time":343831.64983333263,"duration":142.85700000001816,"noteNumber":64,"velocity":71,"programNumber":27},{"time":344260.2208333326,"duration":142.85700000001816,"noteNumber":56,"velocity":71,"programNumber":27},{"time":344260.2208333326,"duration":142.85700000001816,"noteNumber":59,"velocity":71,"programNumber":27},{"time":344260.2208333326,"duration":142.85700000001816,"noteNumber":64,"velocity":71,"programNumber":27},{"time":344688.7918333326,"duration":142.85700000001816,"noteNumber":56,"velocity":71,"programNumber":27},{"time":344688.7918333326,"duration":142.85700000001816,"noteNumber":59,"velocity":71,"programNumber":27},{"time":344688.7918333326,"duration":142.85700000001816,"noteNumber":64,"velocity":71,"programNumber":27},{"time":345117.3628333327,"duration":142.85700000001816,"noteNumber":57,"velocity":71,"programNumber":27},{"time":345117.3628333327,"duration":142.85700000001816,"noteNumber":60,"velocity":71,"programNumber":27},{"time":345117.3628333327,"duration":142.85700000001816,"noteNumber":64,"velocity":71,"programNumber":27},{"time":345545.9338333327,"duration":142.85700000001816,"noteNumber":57,"velocity":71,"programNumber":27},{"time":345545.9338333327,"duration":142.85700000001816,"noteNumber":60,"velocity":71,"programNumber":27},{"time":345545.9338333327,"duration":142.85700000001816,"noteNumber":64,"velocity":71,"programNumber":27},{"time":345974.50483333267,"duration":142.85700000001816,"noteNumber":57,"velocity":71,"programNumber":27},{"time":345974.50483333267,"duration":142.85700000001816,"noteNumber":60,"velocity":71,"programNumber":27},{"time":345974.50483333267,"duration":142.85700000001816,"noteNumber":64,"velocity":71,"programNumber":27},{"time":346403.07583333267,"duration":142.85700000001816,"noteNumber":57,"velocity":71,"programNumber":27},{"time":346403.07583333267,"duration":142.85700000001816,"noteNumber":60,"velocity":71,"programNumber":27},{"time":346403.07583333267,"duration":142.85700000001816,"noteNumber":64,"velocity":71,"programNumber":27},{"time":346831.64683333266,"duration":142.85700000001816,"noteNumber":57,"velocity":71,"programNumber":27},{"time":346831.64683333266,"duration":142.85700000001816,"noteNumber":60,"velocity":71,"programNumber":27},{"time":346831.64683333266,"duration":142.85700000001816,"noteNumber":64,"velocity":71,"programNumber":27},{"time":347260.21783333266,"duration":142.85700000001816,"noteNumber":57,"velocity":71,"programNumber":27},{"time":347260.21783333266,"duration":142.85700000001816,"noteNumber":60,"velocity":71,"programNumber":27},{"time":347260.21783333266,"duration":142.85700000001816,"noteNumber":64,"velocity":71,"programNumber":27},{"time":347688.7888333327,"duration":142.85700000001816,"noteNumber":55,"velocity":71,"programNumber":27},{"time":347688.7888333327,"duration":142.85700000001816,"noteNumber":60,"velocity":71,"programNumber":27},{"time":347688.7888333327,"duration":142.85700000001816,"noteNumber":64,"velocity":71,"programNumber":27},{"time":348117.3598333327,"duration":142.85700000001816,"noteNumber":55,"velocity":71,"programNumber":27},{"time":348117.3598333327,"duration":142.85700000001816,"noteNumber":60,"velocity":71,"programNumber":27},{"time":348117.3598333327,"duration":142.85700000001816,"noteNumber":64,"velocity":71,"programNumber":27},{"time":348545.9308333327,"duration":142.85700000001816,"noteNumber":55,"velocity":71,"programNumber":27},{"time":348545.9308333327,"duration":142.85700000001816,"noteNumber":60,"velocity":71,"programNumber":27},{"time":348545.9308333327,"duration":142.85700000001816,"noteNumber":64,"velocity":71,"programNumber":27},{"time":348974.5018333327,"duration":142.85700000001816,"noteNumber":55,"velocity":71,"programNumber":27},{"time":348974.5018333327,"duration":142.85700000001816,"noteNumber":60,"velocity":71,"programNumber":27},{"time":348974.5018333327,"duration":142.85700000001816,"noteNumber":64,"velocity":71,"programNumber":27},{"time":349403.0728333327,"duration":142.85700000001816,"noteNumber":55,"velocity":71,"programNumber":27},{"time":349403.0728333327,"duration":142.85700000001816,"noteNumber":60,"velocity":71,"programNumber":27},{"time":349403.0728333327,"duration":142.85700000001816,"noteNumber":64,"velocity":71,"programNumber":27},{"time":349831.6438333327,"duration":142.85700000001816,"noteNumber":55,"velocity":71,"programNumber":27},{"time":349831.6438333327,"duration":142.85700000001816,"noteNumber":60,"velocity":71,"programNumber":27},{"time":349831.6438333327,"duration":142.85700000001816,"noteNumber":64,"velocity":71,"programNumber":27},{"time":350260.21483333275,"duration":142.85700000001816,"noteNumber":57,"velocity":71,"programNumber":27},{"time":350260.21483333275,"duration":142.85700000001816,"noteNumber":62,"velocity":71,"programNumber":27},{"time":350260.21483333275,"duration":142.85700000001816,"noteNumber":66,"velocity":71,"programNumber":27},{"time":350688.78583333275,"duration":142.85700000001816,"noteNumber":57,"velocity":71,"programNumber":27},{"time":350688.78583333275,"duration":142.85700000001816,"noteNumber":62,"velocity":71,"programNumber":27},{"time":350688.78583333275,"duration":142.85700000001816,"noteNumber":66,"velocity":71,"programNumber":27},{"time":351117.35683333274,"duration":142.85700000001816,"noteNumber":57,"velocity":71,"programNumber":27},{"time":351117.35683333274,"duration":142.85700000001816,"noteNumber":62,"velocity":71,"programNumber":27},{"time":351117.35683333274,"duration":142.85700000001816,"noteNumber":66,"velocity":71,"programNumber":27},{"time":351545.92783333274,"duration":142.85700000001816,"noteNumber":57,"velocity":71,"programNumber":27},{"time":351545.92783333274,"duration":142.85700000001816,"noteNumber":62,"velocity":71,"programNumber":27},{"time":351545.92783333274,"duration":142.85700000001816,"noteNumber":66,"velocity":71,"programNumber":27},{"time":351974.49883333273,"duration":142.85700000001816,"noteNumber":57,"velocity":71,"programNumber":27},{"time":351974.49883333273,"duration":142.85700000001816,"noteNumber":62,"velocity":71,"programNumber":27},{"time":351974.49883333273,"duration":142.85700000001816,"noteNumber":66,"velocity":71,"programNumber":27},{"time":352403.06983333273,"duration":142.85700000001816,"noteNumber":57,"velocity":71,"programNumber":27},{"time":352403.06983333273,"duration":142.85700000001816,"noteNumber":62,"velocity":71,"programNumber":27},{"time":352403.06983333273,"duration":142.85700000001816,"noteNumber":66,"velocity":71,"programNumber":27},{"time":352831.6408333328,"duration":178.57124999997905,"noteNumber":57,"velocity":71,"programNumber":27},{"time":352831.6408333328,"duration":178.57124999997905,"noteNumber":60,"velocity":71,"programNumber":27},{"time":352831.6408333328,"duration":178.57124999997905,"noteNumber":65,"velocity":71,"programNumber":27},{"time":353260.2118333328,"duration":142.85700000001816,"noteNumber":57,"velocity":71,"programNumber":27},{"time":353260.2118333328,"duration":142.85700000001816,"noteNumber":60,"velocity":71,"programNumber":27},{"time":353260.2118333328,"duration":142.85700000001816,"noteNumber":65,"velocity":71,"programNumber":27},{"time":353688.7828333328,"duration":142.85700000001816,"noteNumber":57,"velocity":71,"programNumber":27},{"time":353688.7828333328,"duration":142.85700000001816,"noteNumber":60,"velocity":71,"programNumber":27},{"time":353688.7828333328,"duration":142.85700000001816,"noteNumber":65,"velocity":71,"programNumber":27},{"time":354117.3538333328,"duration":178.57124999997905,"noteNumber":57,"velocity":71,"programNumber":27},{"time":354117.3538333328,"duration":178.57124999997905,"noteNumber":60,"velocity":71,"programNumber":27},{"time":354117.3538333328,"duration":178.57124999997905,"noteNumber":65,"velocity":71,"programNumber":27},{"time":354545.92483333277,"duration":142.85700000001816,"noteNumber":57,"velocity":71,"programNumber":27},{"time":354545.92483333277,"duration":142.85700000001816,"noteNumber":60,"velocity":71,"programNumber":27},{"time":354545.92483333277,"duration":142.85700000001816,"noteNumber":65,"velocity":71,"programNumber":27},{"time":354974.49583333277,"duration":142.85700000001816,"noteNumber":57,"velocity":71,"programNumber":27},{"time":354974.49583333277,"duration":142.85700000001816,"noteNumber":60,"velocity":71,"programNumber":27},{"time":354974.49583333277,"duration":142.85700000001816,"noteNumber":65,"velocity":71,"programNumber":27},{"time":355403.0668333328,"duration":178.57124999997905,"noteNumber":57,"velocity":71,"programNumber":27},{"time":355403.0668333328,"duration":178.57124999997905,"noteNumber":60,"velocity":71,"programNumber":27},{"time":355403.0668333328,"duration":178.57124999997905,"noteNumber":64,"velocity":71,"programNumber":27},{"time":355831.6378333328,"duration":142.85700000001816,"noteNumber":57,"velocity":71,"programNumber":27},{"time":355831.6378333328,"duration":142.85700000001816,"noteNumber":60,"velocity":71,"programNumber":27},{"time":355831.6378333328,"duration":142.85700000001816,"noteNumber":64,"velocity":71,"programNumber":27},{"time":356260.2088333328,"duration":142.85700000001816,"noteNumber":57,"velocity":71,"programNumber":27},{"time":356260.2088333328,"duration":142.85700000001816,"noteNumber":60,"velocity":71,"programNumber":27},{"time":356260.2088333328,"duration":142.85700000001816,"noteNumber":64,"velocity":71,"programNumber":27},{"time":356688.7798333328,"duration":142.85700000001816,"noteNumber":57,"velocity":71,"programNumber":27},{"time":356688.7798333328,"duration":142.85700000001816,"noteNumber":60,"velocity":71,"programNumber":27},{"time":356688.7798333328,"duration":142.85700000001816,"noteNumber":64,"velocity":71,"programNumber":27},{"time":357117.3508333328,"duration":142.85700000001816,"noteNumber":57,"velocity":71,"programNumber":27},{"time":357117.3508333328,"duration":142.85700000001816,"noteNumber":60,"velocity":71,"programNumber":27},{"time":357117.3508333328,"duration":142.85700000001816,"noteNumber":64,"velocity":71,"programNumber":27},{"time":357545.9218333328,"duration":142.85700000001816,"noteNumber":57,"velocity":71,"programNumber":27},{"time":357545.9218333328,"duration":142.85700000001816,"noteNumber":60,"velocity":71,"programNumber":27},{"time":357545.9218333328,"duration":142.85700000001816,"noteNumber":64,"velocity":71,"programNumber":27},{"time":357974.49283333286,"duration":142.85700000001816,"noteNumber":56,"velocity":71,"programNumber":27},{"time":357974.49283333286,"duration":142.85700000001816,"noteNumber":59,"velocity":71,"programNumber":27},{"time":357974.49283333286,"duration":142.85700000001816,"noteNumber":64,"velocity":71,"programNumber":27},{"time":358403.06383333285,"duration":142.85700000001816,"noteNumber":56,"velocity":71,"programNumber":27},{"time":358403.06383333285,"duration":142.85700000001816,"noteNumber":59,"velocity":71,"programNumber":27},{"time":358403.06383333285,"duration":142.85700000001816,"noteNumber":64,"velocity":71,"programNumber":27},{"time":358831.63483333285,"duration":142.85700000001816,"noteNumber":56,"velocity":71,"programNumber":27},{"time":358831.63483333285,"duration":142.85700000001816,"noteNumber":59,"velocity":71,"programNumber":27},{"time":358831.63483333285,"duration":142.85700000001816,"noteNumber":64,"velocity":71,"programNumber":27},{"time":359260.20583333285,"duration":141.96414375002496,"noteNumber":56,"velocity":71,"programNumber":27},{"time":359260.20583333285,"duration":141.96414375002496,"noteNumber":59,"velocity":71,"programNumber":27},{"time":359260.20583333285,"duration":141.96414375002496,"noteNumber":64,"velocity":71,"programNumber":27},{"time":359686.09826458286,"duration":141.07128749997355,"noteNumber":56,"velocity":71,"programNumber":27},{"time":359686.09826458286,"duration":141.07128749997355,"noteNumber":59,"velocity":71,"programNumber":27},{"time":359686.09826458286,"duration":141.07128749997355,"noteNumber":64,"velocity":71,"programNumber":27},{"time":360111.0978395828,"duration":141.96414375002496,"noteNumber":56,"velocity":71,"programNumber":27},{"time":360111.0978395828,"duration":141.96414375002496,"noteNumber":59,"velocity":71,"programNumber":27},{"time":360111.0978395828,"duration":141.96414375002496,"noteNumber":64,"velocity":71,"programNumber":27},{"time":360536.09741458285,"duration":143.74985625001136,"noteNumber":45,"velocity":61,"programNumber":27},{"time":360536.09741458285,"duration":143.74985625001136,"noteNumber":57,"velocity":61,"programNumber":27},{"time":360536.09741458285,"duration":143.74985625001136,"noteNumber":60,"velocity":61,"programNumber":27},{"time":360536.09741458285,"duration":143.74985625001136,"noteNumber":64,"velocity":61,"programNumber":27},{"time":361831.6318333329,"duration":142.85700000001816,"noteNumber":45,"velocity":61,"programNumber":27},{"time":361831.6318333329,"duration":142.85700000001816,"noteNumber":57,"velocity":61,"programNumber":27},{"time":361831.6318333329,"duration":142.85700000001816,"noteNumber":60,"velocity":61,"programNumber":27},{"time":361831.6318333329,"duration":142.85700000001816,"noteNumber":64,"velocity":61,"programNumber":27},{"time":363117.3448333329,"duration":142.85700000001816,"noteNumber":50,"velocity":61,"programNumber":27},{"time":363117.3448333329,"duration":142.85700000001816,"noteNumber":57,"velocity":61,"programNumber":27},{"time":363117.3448333329,"duration":142.85700000001816,"noteNumber":62,"velocity":61,"programNumber":27},{"time":363117.3448333329,"duration":142.85700000001816,"noteNumber":65,"velocity":61,"programNumber":27},{"time":364403.057833333,"duration":142.85700000001816,"noteNumber":50,"velocity":61,"programNumber":27},{"time":364403.057833333,"duration":142.85700000001816,"noteNumber":57,"velocity":61,"programNumber":27},{"time":364403.057833333,"duration":142.85700000001816,"noteNumber":62,"velocity":61,"programNumber":27},{"time":364403.057833333,"duration":142.85700000001816,"noteNumber":65,"velocity":61,"programNumber":27},{"time":365688.770833333,"duration":141.96414375002496,"noteNumber":45,"velocity":61,"programNumber":27},{"time":365688.770833333,"duration":141.96414375002496,"noteNumber":57,"velocity":61,"programNumber":27},{"time":365688.770833333,"duration":141.96414375002496,"noteNumber":60,"velocity":61,"programNumber":27},{"time":365688.770833333,"duration":141.96414375002496,"noteNumber":64,"velocity":61,"programNumber":27},{"time":366974.48383333307,"duration":142.85700000001816,"noteNumber":45,"velocity":61,"programNumber":27},{"time":366974.48383333307,"duration":142.85700000001816,"noteNumber":57,"velocity":61,"programNumber":27},{"time":366974.48383333307,"duration":142.85700000001816,"noteNumber":60,"velocity":61,"programNumber":27},{"time":366974.48383333307,"duration":142.85700000001816,"noteNumber":64,"velocity":61,"programNumber":27},{"time":368260.1968333331,"duration":142.85700000001816,"noteNumber":50,"velocity":61,"programNumber":27},{"time":368260.1968333331,"duration":142.85700000001816,"noteNumber":57,"velocity":61,"programNumber":27},{"time":368260.1968333331,"duration":142.85700000001816,"noteNumber":62,"velocity":61,"programNumber":27},{"time":368260.1968333331,"duration":142.85700000001816,"noteNumber":65,"velocity":61,"programNumber":27},{"time":369545.90983333316,"duration":142.85700000001816,"noteNumber":50,"velocity":61,"programNumber":27},{"time":369545.90983333316,"duration":142.85700000001816,"noteNumber":57,"velocity":61,"programNumber":27},{"time":369545.90983333316,"duration":142.85700000001816,"noteNumber":62,"velocity":61,"programNumber":27},{"time":369545.90983333316,"duration":142.85700000001816,"noteNumber":65,"velocity":61,"programNumber":27},{"time":370822.6942708332,"duration":141.96414375002496,"noteNumber":45,"velocity":61,"programNumber":27},{"time":370822.6942708332,"duration":141.96414375002496,"noteNumber":57,"velocity":61,"programNumber":27},{"time":370822.6942708332,"duration":141.96414375002496,"noteNumber":60,"velocity":61,"programNumber":27},{"time":370822.6942708332,"duration":141.96414375002496,"noteNumber":64,"velocity":61,"programNumber":27},{"time":373403.04883333325,"duration":142.85700000001816,"noteNumber":50,"velocity":61,"programNumber":27},{"time":373403.04883333325,"duration":142.85700000001816,"noteNumber":57,"velocity":61,"programNumber":27},{"time":373403.04883333325,"duration":142.85700000001816,"noteNumber":62,"velocity":61,"programNumber":27},{"time":373403.04883333325,"duration":142.85700000001816,"noteNumber":65,"velocity":61,"programNumber":27},{"time":375965.5462708333,"duration":143.74985625001136,"noteNumber":45,"velocity":61,"programNumber":27},{"time":375965.5462708333,"duration":143.74985625001136,"noteNumber":57,"velocity":61,"programNumber":27},{"time":375965.5462708333,"duration":143.74985625001136,"noteNumber":60,"velocity":61,"programNumber":27},{"time":375965.5462708333,"duration":143.74985625001136,"noteNumber":64,"velocity":61,"programNumber":27},{"time":378533.40084583336,"duration":141.96414375002496,"noteNumber":50,"velocity":61,"programNumber":27},{"time":378533.40084583336,"duration":141.96414375002496,"noteNumber":57,"velocity":61,"programNumber":27},{"time":378533.40084583336,"duration":141.96414375002496,"noteNumber":62,"velocity":61,"programNumber":27},{"time":378533.40084583336,"duration":141.96414375002496,"noteNumber":65,"velocity":61,"programNumber":27},{"time":381111.9696958334,"duration":141.96414375002496,"noteNumber":45,"velocity":61,"programNumber":27},{"time":381111.9696958334,"duration":141.96414375002496,"noteNumber":57,"velocity":61,"programNumber":27},{"time":381111.9696958334,"duration":141.96414375002496,"noteNumber":60,"velocity":61,"programNumber":27},{"time":381111.9696958334,"duration":141.96414375002496,"noteNumber":64,"velocity":61,"programNumber":27},{"time":382403.0398333334,"duration":142.85700000001816,"noteNumber":45,"velocity":61,"programNumber":27},{"time":382403.0398333334,"duration":142.85700000001816,"noteNumber":57,"velocity":61,"programNumber":27},{"time":382403.0398333334,"duration":142.85700000001816,"noteNumber":60,"velocity":61,"programNumber":27},{"time":382403.0398333334,"duration":142.85700000001816,"noteNumber":64,"velocity":61,"programNumber":27},{"time":383674.4671333334,"duration":138.39271874999395,"noteNumber":50,"velocity":61,"programNumber":27},{"time":383674.4671333334,"duration":138.39271874999395,"noteNumber":57,"velocity":61,"programNumber":27},{"time":383674.4671333334,"duration":138.39271874999395,"noteNumber":62,"velocity":61,"programNumber":27},{"time":383674.4671333334,"duration":138.39271874999395,"noteNumber":65,"velocity":61,"programNumber":27},{"time":384972.6801208334,"duration":141.96414375002496,"noteNumber":50,"velocity":61,"programNumber":27},{"time":384972.6801208334,"duration":141.96414375002496,"noteNumber":57,"velocity":61,"programNumber":27},{"time":384972.6801208334,"duration":141.96414375002496,"noteNumber":62,"velocity":61,"programNumber":27},{"time":384972.6801208334,"duration":141.96414375002496,"noteNumber":65,"velocity":61,"programNumber":27},{"time":386377.14300208347,"duration":7597.313831250009,"noteNumber":45,"velocity":61,"programNumber":27},{"time":386377.14300208347,"duration":7597.313831250009,"noteNumber":57,"velocity":61,"programNumber":27},{"time":386377.14300208347,"duration":7597.313831250009,"noteNumber":60,"velocity":61,"programNumber":27},{"time":386377.14300208347,"duration":7597.313831250009,"noteNumber":64,"velocity":61,"programNumber":27}]]}