{"tracks":[[{"time":7560.900000000001,"duration":487.8000000000002,"noteNumber":40,"velocity":100,"programNumber":27},{"time":8048.700000000001,"duration":243.89999999999964,"noteNumber":52,"velocity":100,"programNumber":27},{"time":8292.6,"duration":243.89999999999964,"noteNumber":55,"velocity":100,"programNumber":27},{"time":8536.5,"duration":243.89999999999964,"noteNumber":46,"velocity":100,"programNumber":27},{"time":8780.4,"duration":487.7999999999993,"noteNumber":45,"velocity":100,"programNumber":27},{"time":9268.199999999999,"duration":243.89999999999964,"noteNumber":52,"velocity":100,"programNumber":27},{"time":9512.099999999999,"duration":487.7999999999993,"noteNumber":40,"velocity":100,"programNumber":27},{"time":9999.899999999998,"duration":243.89999999999964,"noteNumber":52,"velocity":100,"programNumber":27},{"time":10243.799999999997,"duration":243.89999999999964,"noteNumber":55,"velocity":100,"programNumber":27},{"time":10487.699999999997,"duration":243.89999999999964,"noteNumber":46,"velocity":100,"programNumber":27},{"time":10731.599999999997,"duration":487.7999999999993,"noteNumber":45,"velocity":100,"programNumber":27},{"time":11219.399999999996,"duration":243.89999999999964,"noteNumber":52,"velocity":100,"programNumber":27},{"time":11463.299999999996,"duration":487.7999999999993,"noteNumber":40,"velocity":100,"programNumber":27},{"time":11951.099999999995,"duration":243.89999999999964,"noteNumber":52,"velocity":100,"programNumber":27},{"time":12194.999999999995,"duration":243.89999999999964,"noteNumber":55,"velocity":100,"programNumber":27},{"time":12438.899999999994,"duration":243.89999999999964,"noteNumber":46,"velocity":100,"programNumber":27},{"time":12682.799999999994,"duration":487.7999999999993,"noteNumber":45,"velocity":100,"programNumber":27},{"time":13170.599999999993,"duration":243.89999999999964,"noteNumber":52,"velocity":100,"programNumber":27},{"time":13414.499999999993,"duration":487.7999999999993,"noteNumber":40,"velocity":100,"programNumber":27},{"time":13902.299999999992,"duration":243.89999999999964,"noteNumber":52,"velocity":100,"programNumber":27},{"time":14146.199999999992,"duration":243.89999999999964,"noteNumber":55,"velocity":100,"programNumber":27},{"time":14390.099999999991,"duration":243.89999999999964,"noteNumber":46,"velocity":100,"programNumber":27},{"time":14633.99999999999,"duration":487.7999999999993,"noteNumber":45,"velocity":100,"programNumber":27},{"time":15121.79999999999,"duration":243.89999999999964,"noteNumber":52,"velocity":100,"programNumber":27},{"time":15365.69999999999,"duration":487.7999999999993,"noteNumber":40,"velocity":100,"programNumber":27},{"time":15853.499999999989,"duration":243.89999999999964,"noteNumber":52,"velocity":100,"programNumber":27},{"time":16097.399999999989,"duration":243.89999999999964,"noteNumber":55,"velocity":100,"programNumber":27},{"time":16341.299999999988,"duration":243.90000000000146,"noteNumber":46,"velocity":100,"programNumber":27},{"time":16585.19999999999,"duration":487.7999999999993,"noteNumber":45,"velocity":100,"programNumber":27},{"time":17072.99999999999,"duration":243.90000000000146,"noteNumber":52,"velocity":100,"programNumber":27},{"time":17316.89999999999,"duration":487.7999999999993,"noteNumber":40,"velocity":100,"programNumber":27},{"time":17804.69999999999,"duration":243.90000000000146,"noteNumber":52,"velocity":100,"programNumber":27},{"time":18048.59999999999,"duration":243.90000000000146,"noteNumber":55,"velocity":100,"programNumber":27},{"time":18292.499999999993,"duration":243.90000000000146,"noteNumber":46,"velocity":100,"programNumber":27},{"time":18536.399999999994,"duration":487.7999999999993,"noteNumber":45,"velocity":100,"programNumber":27},{"time":19024.199999999993,"duration":243.90000000000146,"noteNumber":52,"velocity":100,"programNumber":27},{"time":19268.099999999995,"duration":487.7999999999993,"noteNumber":40,"velocity":100,"programNumber":27},{"time":19755.899999999994,"duration":243.90000000000146,"noteNumber":52,"velocity":100,"programNumber":27},{"time":19999.799999999996,"duration":243.90000000000146,"noteNumber":55,"velocity":100,"programNumber":27},{"time":20243.699999999997,"duration":243.90000000000146,"noteNumber":46,"velocity":100,"programNumber":27},{"time":20487.6,"duration":487.7999999999993,"noteNumber":45,"velocity":100,"programNumber":27},{"time":20975.399999999998,"duration":243.90000000000146,"noteNumber":52,"velocity":100,"programNumber":27},{"time":21219.3,"duration":487.7999999999993,"noteNumber":40,"velocity":100,"programNumber":27},{"time":21707.1,"duration":243.90000000000146,"noteNumber":52,"velocity":100,"programNumber":27},{"time":21951,"duration":243.90000000000146,"noteNumber":55,"velocity":100,"programNumber":27},{"time":22194.9,"duration":243.90000000000146,"noteNumber":46,"velocity":100,"programNumber":27},{"time":22438.800000000003,"duration":487.7999999999993,"noteNumber":45,"velocity":100,"programNumber":27},{"time":22926.600000000002,"duration":243.90000000000146,"noteNumber":52,"velocity":100,"programNumber":27},{"time":23170.500000000004,"duration":487.7999999999993,"noteNumber":40,"velocity":100,"programNumber":27},{"time":23658.300000000003,"duration":243.90000000000146,"noteNumber":52,"velocity":100,"programNumber":27},{"time":23902.200000000004,"duration":243.90000000000146,"noteNumber":55,"velocity":100,"programNumber":27},{"time":24146.100000000006,"duration":243.90000000000146,"noteNumber":46,"velocity":100,"programNumber":27},{"time":24390.000000000007,"duration":487.7999999999993,"noteNumber":45,"velocity":100,"programNumber":27},{"time":24877.800000000007,"duration":243.90000000000146,"noteNumber":52,"velocity":100,"programNumber":27},{"time":25121.700000000008,"duration":487.7999999999993,"noteNumber":40,"velocity":100,"programNumber":27},{"time":25609.500000000007,"duration":243.90000000000146,"noteNumber":52,"velocity":100,"programNumber":27},{"time":25853.40000000001,"duration":243.90000000000146,"noteNumber":55,"velocity":100,"programNumber":27},{"time":26097.30000000001,"duration":243.90000000000146,"noteNumber":46,"velocity":100,"programNumber":27},{"time":26341.20000000001,"duration":487.7999999999993,"noteNumber":45,"velocity":100,"programNumber":27},{"time":26829.00000000001,"duration":243.90000000000146,"noteNumber":52,"velocity":100,"programNumber":27},{"time":27072.900000000012,"duration":487.7999999999993,"noteNumber":40,"velocity":100,"programNumber":27},{"time":27560.70000000001,"duration":243.90000000000146,"noteNumber":52,"velocity":100,"programNumber":27},{"time":27804.600000000013,"duration":243.90000000000146,"noteNumber":55,"velocity":100,"programNumber":27},{"time":28048.500000000015,"duration":243.90000000000146,"noteNumber":46,"velocity":100,"programNumber":27},{"time":28292.400000000016,"duration":487.7999999999993,"noteNumber":45,"velocity":100,"programNumber":27},{"time":28780.200000000015,"duration":243.90000000000146,"noteNumber":52,"velocity":100,"programNumber":27},{"time":29024.100000000017,"duration":487.8000000000029,"noteNumber":40,"velocity":100,"programNumber":27},{"time":29511.90000000002,"duration":243.90000000000146,"noteNumber":52,"velocity":100,"programNumber":30},{"time":29755.80000000002,"duration":243.90000000000146,"noteNumber":55,"velocity":100,"programNumber":30},{"time":29999.700000000023,"duration":243.90000000000146,"noteNumber":46,"velocity":100,"programNumber":30},{"time":30243.600000000024,"duration":487.7999999999993,"noteNumber":45,"velocity":100,"programNumber":30},{"time":30731.400000000023,"duration":242.37562500000058,"noteNumber":52,"velocity":100,"programNumber":30},{"time":30975.300000000025,"duration":487.7999999999993,"noteNumber":59,"velocity":100,"programNumber":30},{"time":30975.300000000025,"duration":487.7999999999993,"noteNumber":52,"velocity":100,"programNumber":30},{"time":31463.100000000024,"duration":243.90000000000146,"noteNumber":52,"velocity":100,"programNumber":30},{"time":31707.000000000025,"duration":243.90000000000146,"noteNumber":52,"velocity":100,"programNumber":30},{"time":31950.900000000027,"duration":243.90000000000146,"noteNumber":52,"velocity":100,"programNumber":30},{"time":32194.80000000003,"duration":243.90000000000146,"noteNumber":52,"velocity":100,"programNumber":30},{"time":32438.70000000003,"duration":243.90000000000146,"noteNumber":52,"velocity":100,"programNumber":30},{"time":32682.60000000003,"duration":243.89999999999782,"noteNumber":52,"velocity":100,"programNumber":30},{"time":32926.50000000003,"duration":243.90000000000146,"noteNumber":64,"velocity":100,"programNumber":30},{"time":33170.40000000003,"duration":243.90000000000146,"noteNumber":52,"velocity":100,"programNumber":30},{"time":33414.30000000003,"duration":243.90000000000146,"noteNumber":52,"velocity":100,"programNumber":30},{"time":33658.20000000003,"duration":243.90000000000146,"noteNumber":52,"velocity":100,"programNumber":30},{"time":33902.100000000035,"duration":243.90000000000146,"noteNumber":52,"velocity":100,"programNumber":30},{"time":34146.00000000004,"duration":243.90000000000146,"noteNumber":52,"velocity":100,"programNumber":30},{"time":34389.90000000004,"duration":243.90000000000146,"noteNumber":52,"velocity":100,"programNumber":30},{"time":34633.80000000004,"duration":243.90000000000146,"noteNumber":52,"velocity":100,"programNumber":30},{"time":34877.70000000004,"duration":243.90000000000146,"noteNumber":64,"velocity":100,"programNumber":30},{"time":35121.60000000004,"duration":243.90000000000146,"noteNumber":52,"velocity":100,"programNumber":30},{"time":35365.500000000044,"duration":243.90000000000146,"noteNumber":52,"velocity":100,"programNumber":30},{"time":35609.400000000045,"duration":243.90000000000146,"noteNumber":52,"velocity":100,"programNumber":30},{"time":35853.30000000005,"duration":243.90000000000146,"noteNumber":52,"velocity":100,"programNumber":30},{"time":36097.20000000005,"duration":243.90000000000146,"noteNumber":52,"velocity":100,"programNumber":30},{"time":36341.10000000005,"duration":243.90000000000146,"noteNumber":52,"velocity":100,"programNumber":30},{"time":36585.00000000005,"duration":243.90000000000146,"noteNumber":52,"velocity":100,"programNumber":30},{"time":36828.90000000005,"duration":243.90000000000146,"noteNumber":64,"velocity":100,"programNumber":30},{"time":37072.800000000054,"duration":243.90000000000146,"noteNumber":52,"velocity":100,"programNumber":30},{"time":37316.700000000055,"duration":243.90000000000146,"noteNumber":52,"velocity":100,"programNumber":30},{"time":37560.60000000006,"duration":243.90000000000146,"noteNumber":52,"velocity":100,"programNumber":30},{"time":37804.50000000006,"duration":243.90000000000146,"noteNumber":52,"velocity":100,"programNumber":30},{"time":38048.40000000006,"duration":243.90000000000146,"noteNumber":52,"velocity":100,"programNumber":30},{"time":38292.30000000006,"duration":243.90000000000146,"noteNumber":52,"velocity":100,"programNumber":30},{"time":38536.20000000006,"duration":243.90000000000146,"noteNumber":52,"velocity":100,"programNumber":30},{"time":38780.100000000064,"duration":243.90000000000146,"noteNumber":64,"velocity":100,"programNumber":30},{"time":39024.000000000065,"duration":243.90000000000146,"noteNumber":52,"velocity":100,"programNumber":30},{"time":39267.90000000007,"duration":243.90000000000146,"noteNumber":52,"velocity":100,"programNumber":30},{"time":39511.80000000007,"duration":243.90000000000146,"noteNumber":64,"velocity":100,"programNumber":30},{"time":39755.70000000007,"duration":243.90000000000146,"noteNumber":58,"velocity":100,"programNumber":30},{"time":39999.60000000007,"duration":243.90000000000146,"noteNumber":52,"velocity":100,"programNumber":30},{"time":40243.50000000007,"duration":243.90000000000146,"noteNumber":52,"velocity":100,"programNumber":30},{"time":40487.400000000074,"duration":243.90000000000146,"noteNumber":52,"velocity":100,"programNumber":30},{"time":40731.300000000076,"duration":243.90000000000146,"noteNumber":60,"velocity":100,"programNumber":30},{"time":40731.300000000076,"duration":243.90000000000146,"noteNumber":53,"velocity":100,"programNumber":30},{"time":40975.20000000008,"duration":243.90000000000146,"noteNumber":52,"velocity":100,"programNumber":30},{"time":41219.10000000008,"duration":243.90000000000146,"noteNumber":52,"velocity":100,"programNumber":30},{"time":41463.00000000008,"duration":243.90000000000146,"noteNumber":64,"velocity":100,"programNumber":30},{"time":41706.90000000008,"duration":243.90000000000146,"noteNumber":58,"velocity":100,"programNumber":30},{"time":41950.80000000008,"duration":243.90000000000146,"noteNumber":52,"velocity":100,"programNumber":30},{"time":42194.700000000084,"duration":243.90000000000146,"noteNumber":52,"velocity":100,"programNumber":30},{"time":42438.600000000086,"duration":243.90000000000146,"noteNumber":52,"velocity":100,"programNumber":30},{"time":42682.50000000009,"duration":243.90000000000146,"noteNumber":60,"velocity":100,"programNumber":30},{"time":42682.50000000009,"duration":243.90000000000146,"noteNumber":53,"velocity":100,"programNumber":30},{"time":42926.40000000009,"duration":243.90000000000146,"noteNumber":52,"velocity":100,"programNumber":30},{"time":43170.30000000009,"duration":243.90000000000146,"noteNumber":52,"velocity":100,"programNumber":30},{"time":43414.20000000009,"duration":243.90000000000146,"noteNumber":64,"velocity":100,"programNumber":30},{"time":43658.10000000009,"duration":243.90000000000146,"noteNumber":58,"velocity":100,"programNumber":30},{"time":43902.000000000095,"duration":243.90000000000146,"noteNumber":52,"velocity":100,"programNumber":30},{"time":44145.900000000096,"duration":243.90000000000146,"noteNumber":52,"velocity":100,"programNumber":30},{"time":44389.8000000001,"duration":243.90000000000146,"noteNumber":52,"velocity":100,"programNumber":30},{"time":44633.7000000001,"duration":243.90000000000146,"noteNumber":60,"velocity":100,"programNumber":30},{"time":44633.7000000001,"duration":243.90000000000146,"noteNumber":53,"velocity":100,"programNumber":30},{"time":44877.6000000001,"duration":243.90000000000146,"noteNumber":52,"velocity":100,"programNumber":30},{"time":45121.5000000001,"duration":243.90000000000146,"noteNumber":52,"velocity":100,"programNumber":30},{"time":45365.4000000001,"duration":243.90000000000146,"noteNumber":64,"velocity":100,"programNumber":30},{"time":45609.300000000105,"duration":243.90000000000146,"noteNumber":58,"velocity":100,"programNumber":30},{"time":45853.200000000106,"duration":243.90000000000146,"noteNumber":52,"velocity":100,"programNumber":30},{"time":46097.10000000011,"duration":243.90000000000146,"noteNumber":52,"velocity":100,"programNumber":30},{"time":46341.00000000011,"duration":243.90000000000146,"noteNumber":52,"velocity":100,"programNumber":30},{"time":46584.90000000011,"duration":243.90000000000146,"noteNumber":60,"velocity":100,"programNumber":30},{"time":46584.90000000011,"duration":243.90000000000146,"noteNumber":53,"velocity":100,"programNumber":30},{"time":46828.80000000011,"duration":243.90000000000146,"noteNumber":52,"velocity":100,"programNumber":30},{"time":47072.70000000011,"duration":243.90000000000146,"noteNumber":52,"velocity":100,"programNumber":30},{"time":47316.600000000115,"duration":243.90000000000146,"noteNumber":64,"velocity":100,"programNumber":30},{"time":47560.50000000012,"duration":243.90000000000146,"noteNumber":58,"velocity":100,"programNumber":30},{"time":47804.40000000012,"duration":243.90000000000146,"noteNumber":57,"velocity":100,"programNumber":30},{"time":48048.30000000012,"duration":243.90000000000146,"noteNumber":52,"velocity":100,"programNumber":30},{"time":48292.20000000012,"duration":243.90000000000146,"noteNumber":52,"velocity":100,"programNumber":30},{"time":48536.10000000012,"duration":243.90000000000146,"noteNumber":60,"velocity":100,"programNumber":30},{"time":48536.10000000012,"duration":243.90000000000146,"noteNumber":53,"velocity":100,"programNumber":30},{"time":48780.000000000124,"duration":243.90000000000146,"noteNumber":52,"velocity":100,"programNumber":30},{"time":49023.900000000125,"duration":243.90000000000146,"noteNumber":52,"velocity":100,"programNumber":30},{"time":49267.80000000013,"duration":243.90000000000146,"noteNumber":64,"velocity":100,"programNumber":30},{"time":49511.70000000013,"duration":243.90000000000146,"noteNumber":58,"velocity":100,"programNumber":30},{"time":49755.60000000013,"duration":243.90000000000146,"noteNumber":57,"velocity":100,"programNumber":30},{"time":49999.50000000013,"duration":243.90000000000146,"noteNumber":52,"velocity":100,"programNumber":30},{"time":50243.40000000013,"duration":243.90000000000146,"noteNumber":52,"velocity":100,"programNumber":30},{"time":50487.300000000134,"duration":243.90000000000146,"noteNumber":60,"velocity":100,"programNumber":30},{"time":50487.300000000134,"duration":243.90000000000146,"noteNumber":53,"velocity":100,"programNumber":30},{"time":50731.200000000135,"duration":243.90000000000146,"noteNumber":52,"velocity":100,"programNumber":30},{"time":50975.10000000014,"duration":243.90000000000146,"noteNumber":52,"velocity":100,"programNumber":30},{"time":51219.00000000014,"duration":243.90000000000146,"noteNumber":64,"velocity":100,"programNumber":30},{"time":51462.90000000014,"duration":243.90000000000146,"noteNumber":58,"velocity":100,"programNumber":30},{"time":51706.80000000014,"duration":243.90000000000146,"noteNumber":57,"velocity":100,"programNumber":30},{"time":51950.70000000014,"duration":243.90000000000146,"noteNumber":52,"velocity":100,"programNumber":30},{"time":52194.600000000144,"duration":243.90000000000146,"noteNumber":52,"velocity":100,"programNumber":30},{"time":52438.500000000146,"duration":243.90000000000146,"noteNumber":60,"velocity":100,"programNumber":30},{"time":52438.500000000146,"duration":243.90000000000146,"noteNumber":53,"velocity":100,"programNumber":30},{"time":52682.40000000015,"duration":243.90000000000146,"noteNumber":52,"velocity":100,"programNumber":30},{"time":52926.30000000015,"duration":243.90000000000146,"noteNumber":52,"velocity":100,"programNumber":30},{"time":53170.20000000015,"duration":243.90000000000146,"noteNumber":64,"velocity":100,"programNumber":30},{"time":53414.10000000015,"duration":243.90000000000146,"noteNumber":58,"velocity":100,"programNumber":30},{"time":53658.00000000015,"duration":243.90000000000146,"noteNumber":57,"velocity":100,"programNumber":30},{"time":53901.900000000154,"duration":243.90000000000146,"noteNumber":52,"velocity":100,"programNumber":30},{"time":54145.800000000156,"duration":243.90000000000146,"noteNumber":52,"velocity":100,"programNumber":30},{"time":54389.70000000016,"duration":243.90000000000146,"noteNumber":60,"velocity":100,"programNumber":30},{"time":54389.70000000016,"duration":243.90000000000146,"noteNumber":53,"velocity":100,"programNumber":30},{"time":54633.60000000016,"duration":243.90000000000146,"noteNumber":52,"velocity":100,"programNumber":30},{"time":54877.50000000016,"duration":243.90000000000146,"noteNumber":52,"velocity":100,"programNumber":30},{"time":55121.40000000016,"duration":243.90000000000146,"noteNumber":64,"velocity":100,"programNumber":30},{"time":55365.30000000016,"duration":243.90000000000146,"noteNumber":58,"velocity":100,"programNumber":30},{"time":55609.200000000164,"duration":243.90000000000146,"noteNumber":57,"velocity":100,"programNumber":30},{"time":55853.100000000166,"duration":243.90000000000146,"noteNumber":52,"velocity":100,"programNumber":30},{"time":56097.00000000017,"duration":243.90000000000146,"noteNumber":52,"velocity":100,"programNumber":30},{"time":56340.90000000017,"duration":243.90000000000146,"noteNumber":60,"velocity":100,"programNumber":30},{"time":56340.90000000017,"duration":243.90000000000146,"noteNumber":53,"velocity":100,"programNumber":30},{"time":56584.80000000017,"duration":243.90000000000146,"noteNumber":52,"velocity":100,"programNumber":30},{"time":56828.70000000017,"duration":243.90000000000146,"noteNumber":52,"velocity":100,"programNumber":30},{"time":57072.60000000017,"duration":243.90000000000146,"noteNumber":64,"velocity":100,"programNumber":30},{"time":57316.500000000175,"duration":243.90000000000146,"noteNumber":58,"velocity":100,"programNumber":30},{"time":57560.400000000176,"duration":243.90000000000146,"noteNumber":57,"velocity":100,"programNumber":30},{"time":57804.30000000018,"duration":243.90000000000146,"noteNumber":52,"velocity":100,"programNumber":30},{"time":58048.20000000018,"duration":243.90000000000146,"noteNumber":52,"velocity":100,"programNumber":30},{"time":58292.10000000018,"duration":243.90000000000146,"noteNumber":60,"velocity":100,"programNumber":30},{"time":58292.10000000018,"duration":243.90000000000146,"noteNumber":53,"velocity":100,"programNumber":30},{"time":58536.00000000018,"duration":243.90000000000146,"noteNumber":52,"velocity":100,"programNumber":30},{"time":58779.90000000018,"duration":243.90000000000146,"noteNumber":52,"velocity":100,"programNumber":30},{"time":59023.800000000185,"duration":243.90000000000146,"noteNumber":64,"velocity":100,"programNumber":30},{"time":59267.700000000186,"duration":243.90000000000146,"noteNumber":58,"velocity":100,"programNumber":30},{"time":59511.60000000019,"duration":243.90000000000146,"noteNumber":57,"velocity":100,"programNumber":30},{"time":59755.50000000019,"duration":243.90000000000146,"noteNumber":52,"velocity":100,"programNumber":30},{"time":59999.40000000019,"duration":243.90000000000146,"noteNumber":52,"velocity":100,"programNumber":30},{"time":60243.30000000019,"duration":243.90000000000146,"noteNumber":60,"velocity":100,"programNumber":30},{"time":60243.30000000019,"duration":243.90000000000146,"noteNumber":53,"velocity":100,"programNumber":30},{"time":60487.20000000019,"duration":243.90000000000146,"noteNumber":52,"velocity":100,"programNumber":30},{"time":60731.100000000195,"duration":243.90000000000146,"noteNumber":52,"velocity":100,"programNumber":30},{"time":60975.0000000002,"duration":243.90000000000146,"noteNumber":64,"velocity":100,"programNumber":30},{"time":61218.9000000002,"duration":243.90000000000146,"noteNumber":58,"velocity":100,"programNumber":30},{"time":61462.8000000002,"duration":243.90000000000146,"noteNumber":57,"velocity":100,"programNumber":30},{"time":61706.7000000002,"duration":243.90000000000146,"noteNumber":52,"velocity":100,"programNumber":30},{"time":61950.6000000002,"duration":243.90000000000146,"noteNumber":52,"velocity":100,"programNumber":30},{"time":62194.500000000204,"duration":487.8000000000029,"noteNumber":59,"velocity":127,"programNumber":30},{"time":62194.500000000204,"duration":487.8000000000029,"noteNumber":52,"velocity":127,"programNumber":30},{"time":62682.30000000021,"duration":243.90000000000146,"noteNumber":52,"velocity":100,"programNumber":30},{"time":62682.30000000021,"duration":243.90000000000146,"noteNumber":59,"velocity":100,"programNumber":30},{"time":62926.20000000021,"duration":243.90000000000146,"noteNumber":64,"velocity":100,"programNumber":30},{"time":63170.10000000021,"duration":243.90000000000146,"noteNumber":58,"velocity":100,"programNumber":30},{"time":63414.00000000021,"duration":487.8000000000029,"noteNumber":57,"velocity":100,"programNumber":30},{"time":63901.800000000214,"duration":243.90000000000146,"noteNumber":52,"velocity":100,"programNumber":30},{"time":64145.700000000215,"duration":487.8000000000029,"noteNumber":59,"velocity":127,"programNumber":30},{"time":64145.700000000215,"duration":487.8000000000029,"noteNumber":52,"velocity":127,"programNumber":30},{"time":64633.50000000022,"duration":243.90000000000146,"noteNumber":52,"velocity":100,"programNumber":30},{"time":64633.50000000022,"duration":243.90000000000146,"noteNumber":59,"velocity":100,"programNumber":30},{"time":64877.40000000022,"duration":243.90000000000146,"noteNumber":64,"velocity":100,"programNumber":30},{"time":65121.30000000022,"duration":243.90000000000146,"noteNumber":58,"velocity":100,"programNumber":30},{"time":65365.20000000022,"duration":487.79999999999563,"noteNumber":57,"velocity":100,"programNumber":30},{"time":65853.00000000022,"duration":243.89999999999418,"noteNumber":52,"velocity":100,"programNumber":30},{"time":66096.90000000021,"duration":487.8000000000029,"noteNumber":52,"velocity":127,"programNumber":30},{"time":66096.90000000021,"duration":487.8000000000029,"noteNumber":59,"velocity":127,"programNumber":30},{"time":66584.70000000022,"duration":243.89999999999418,"noteNumber":52,"velocity":100,"programNumber":30},{"time":66584.70000000022,"duration":243.89999999999418,"noteNumber":59,"velocity":100,"programNumber":30},{"time":66828.60000000021,"duration":243.89999999999418,"noteNumber":64,"velocity":100,"programNumber":30},{"time":67072.5000000002,"duration":243.89999999999418,"noteNumber":58,"velocity":100,"programNumber":30},{"time":67316.4000000002,"duration":487.8000000000029,"noteNumber":57,"velocity":100,"programNumber":30},{"time":67804.2000000002,"duration":243.89999999999418,"noteNumber":52,"velocity":100,"programNumber":30},{"time":68048.1000000002,"duration":487.8000000000029,"noteNumber":55,"velocity":127,"programNumber":30},{"time":68048.1000000002,"duration":487.8000000000029,"noteNumber":62,"velocity":127,"programNumber":30},{"time":68535.9000000002,"duration":243.89999999999418,"noteNumber":52,"velocity":100,"programNumber":30},{"time":68779.80000000019,"duration":243.89999999999418,"noteNumber":54,"velocity":100,"programNumber":30},{"time":68779.80000000019,"duration":243.89999999999418,"noteNumber":61,"velocity":100,"programNumber":30},{"time":69023.70000000019,"duration":243.89999999999418,"noteNumber":52,"velocity":100,"programNumber":30},{"time":69267.60000000018,"duration":243.89999999999418,"noteNumber":54,"velocity":100,"programNumber":30},{"time":69267.60000000018,"duration":243.89999999999418,"noteNumber":61,"velocity":100,"programNumber":30},{"time":69511.50000000017,"duration":243.89999999999418,"noteNumber":55,"velocity":100,"programNumber":30},{"time":69511.50000000017,"duration":243.89999999999418,"noteNumber":62,"velocity":100,"programNumber":30},{"time":69755.40000000017,"duration":243.89999999999418,"noteNumber":54,"velocity":100,"programNumber":30},{"time":69755.40000000017,"duration":243.89999999999418,"noteNumber":61,"velocity":100,"programNumber":30},{"time":69999.30000000016,"duration":487.8000000000029,"noteNumber":52,"velocity":127,"programNumber":30},{"time":69999.30000000016,"duration":487.8000000000029,"noteNumber":59,"velocity":127,"programNumber":30},{"time":70487.10000000017,"duration":243.89999999999418,"noteNumber":52,"velocity":100,"programNumber":30},{"time":70487.10000000017,"duration":243.89999999999418,"noteNumber":59,"velocity":100,"programNumber":30},{"time":70731.00000000016,"duration":243.89999999999418,"noteNumber":64,"velocity":100,"programNumber":30},{"time":70974.90000000015,"duration":243.89999999999418,"noteNumber":58,"velocity":100,"programNumber":30},{"time":71218.80000000015,"duration":487.8000000000029,"noteNumber":57,"velocity":100,"programNumber":30},{"time":71706.60000000015,"duration":243.89999999999418,"noteNumber":52,"velocity":100,"programNumber":30},{"time":71950.50000000015,"duration":487.8000000000029,"noteNumber":59,"velocity":127,"programNumber":30},{"time":71950.50000000015,"duration":487.8000000000029,"noteNumber":52,"velocity":127,"programNumber":30},{"time":72438.30000000015,"duration":243.89999999999418,"noteNumber":52,"velocity":100,"programNumber":30},{"time":72438.30000000015,"duration":243.89999999999418,"noteNumber":59,"velocity":100,"programNumber":30},{"time":72682.20000000014,"duration":243.89999999999418,"noteNumber":64,"velocity":100,"programNumber":30},{"time":72926.10000000014,"duration":243.89999999999418,"noteNumber":58,"velocity":100,"programNumber":30},{"time":73170.00000000013,"duration":487.8000000000029,"noteNumber":57,"velocity":100,"programNumber":30},{"time":73657.80000000013,"duration":243.89999999999418,"noteNumber":52,"velocity":100,"programNumber":30},{"time":73901.70000000013,"duration":487.8000000000029,"noteNumber":52,"velocity":127,"programNumber":30},{"time":73901.70000000013,"duration":487.8000000000029,"noteNumber":59,"velocity":127,"programNumber":30},{"time":74389.50000000013,"duration":243.89999999999418,"noteNumber":52,"velocity":100,"programNumber":30},{"time":74389.50000000013,"duration":243.89999999999418,"noteNumber":59,"velocity":100,"programNumber":30},{"time":74633.40000000013,"duration":243.89999999999418,"noteNumber":64,"velocity":100,"programNumber":30},{"time":74877.30000000012,"duration":243.89999999999418,"noteNumber":58,"velocity":100,"programNumber":30},{"time":75121.20000000011,"duration":487.8000000000029,"noteNumber":57,"velocity":100,"programNumber":30},{"time":75609.00000000012,"duration":243.89999999999418,"noteNumber":52,"velocity":100,"programNumber":30},{"time":75852.90000000011,"duration":487.8000000000029,"noteNumber":55,"velocity":127,"programNumber":30},{"time":75852.90000000011,"duration":487.8000000000029,"noteNumber":62,"velocity":127,"programNumber":30},{"time":76340.70000000011,"duration":243.89999999999418,"noteNumber":52,"velocity":100,"programNumber":30},{"time":76584.60000000011,"duration":243.89999999999418,"noteNumber":54,"velocity":100,"programNumber":30},{"time":76584.60000000011,"duration":243.89999999999418,"noteNumber":61,"velocity":100,"programNumber":30},{"time":76828.5000000001,"duration":243.89999999999418,"noteNumber":52,"velocity":100,"programNumber":30},{"time":77072.4000000001,"duration":243.89999999999418,"noteNumber":54,"velocity":100,"programNumber":30},{"time":77072.4000000001,"duration":243.89999999999418,"noteNumber":61,"velocity":100,"programNumber":30},{"time":77316.30000000009,"duration":243.89999999999418,"noteNumber":55,"velocity":100,"programNumber":30},{"time":77316.30000000009,"duration":243.89999999999418,"noteNumber":62,"velocity":100,"programNumber":30},{"time":77560.20000000008,"duration":243.89999999999418,"noteNumber":54,"velocity":100,"programNumber":30},{"time":77560.20000000008,"duration":243.89999999999418,"noteNumber":61,"velocity":100,"programNumber":30},{"time":77804.10000000008,"duration":487.8000000000029,"noteNumber":52,"velocity":127,"programNumber":30},{"time":77804.10000000008,"duration":487.8000000000029,"noteNumber":59,"velocity":127,"programNumber":30},{"time":78291.90000000008,"duration":243.89999999999418,"noteNumber":52,"velocity":100,"programNumber":30},{"time":78535.80000000008,"duration":243.89999999999418,"noteNumber":52,"velocity":100,"programNumber":30},{"time":78779.70000000007,"duration":243.89999999999418,"noteNumber":52,"velocity":100,"programNumber":30},{"time":79023.60000000006,"duration":243.89999999999418,"noteNumber":52,"velocity":100,"programNumber":30},{"time":79267.50000000006,"duration":243.89999999999418,"noteNumber":52,"velocity":100,"programNumber":30},{"time":79511.40000000005,"duration":243.89999999999418,"noteNumber":52,"velocity":100,"programNumber":30},{"time":79755.30000000005,"duration":487.8000000000029,"noteNumber":53,"velocity":127,"programNumber":30},{"time":79755.30000000005,"duration":487.8000000000029,"noteNumber":60,"velocity":127,"programNumber":30},{"time":80243.10000000005,"duration":243.89999999999418,"noteNumber":52,"velocity":100,"programNumber":30},{"time":80487.00000000004,"duration":243.89999999999418,"noteNumber":52,"velocity":100,"programNumber":30},{"time":80730.90000000004,"duration":243.89999999999418,"noteNumber":52,"velocity":100,"programNumber":30},{"time":80974.80000000003,"duration":243.89999999999418,"noteNumber":52,"velocity":100,"programNumber":30},{"time":81218.70000000003,"duration":243.89999999999418,"noteNumber":52,"velocity":100,"programNumber":30},{"time":81462.60000000002,"duration":243.89999999999418,"noteNumber":52,"velocity":100,"programNumber":30},{"time":81706.50000000001,"duration":487.8000000000029,"noteNumber":53,"velocity":127,"programNumber":30},{"time":81706.50000000001,"duration":487.8000000000029,"noteNumber":60,"velocity":127,"programNumber":30},{"time":82194.30000000002,"duration":243.89999999999418,"noteNumber":52,"velocity":100,"programNumber":30},{"time":82438.20000000001,"duration":243.89999999999418,"noteNumber":52,"velocity":100,"programNumber":30},{"time":82682.1,"duration":243.89999999999418,"noteNumber":52,"velocity":100,"programNumber":30},{"time":82926,"duration":243.89999999999418,"noteNumber":52,"velocity":100,"programNumber":30},{"time":83169.9,"duration":243.89999999999418,"noteNumber":52,"velocity":100,"programNumber":30},{"time":83413.79999999999,"duration":243.89999999999418,"noteNumber":52,"velocity":100,"programNumber":30},{"time":83657.69999999998,"duration":487.8000000000029,"noteNumber":55,"velocity":127,"programNumber":30},{"time":83657.69999999998,"duration":487.8000000000029,"noteNumber":62,"velocity":127,"programNumber":30},{"time":84145.49999999999,"duration":243.89999999999418,"noteNumber":52,"velocity":100,"programNumber":30},{"time":84389.39999999998,"duration":243.89999999999418,"noteNumber":54,"velocity":100,"programNumber":30},{"time":84389.39999999998,"duration":243.89999999999418,"noteNumber":61,"velocity":100,"programNumber":30},{"time":84633.29999999997,"duration":243.89999999999418,"noteNumber":52,"velocity":100,"programNumber":30},{"time":84877.19999999997,"duration":243.89999999999418,"noteNumber":54,"velocity":100,"programNumber":30},{"time":84877.19999999997,"duration":243.89999999999418,"noteNumber":61,"velocity":100,"programNumber":30},{"time":85121.09999999996,"duration":243.89999999999418,"noteNumber":55,"velocity":100,"programNumber":30},{"time":85121.09999999996,"duration":243.89999999999418,"noteNumber":62,"velocity":100,"programNumber":30},{"time":85364.99999999996,"duration":243.89999999999418,"noteNumber":54,"velocity":100,"programNumber":30},{"time":85364.99999999996,"duration":243.89999999999418,"noteNumber":61,"velocity":100,"programNumber":30},{"time":85608.89999999995,"duration":487.8000000000029,"noteNumber":52,"velocity":127,"programNumber":30},{"time":85608.89999999995,"duration":487.8000000000029,"noteNumber":59,"velocity":127,"programNumber":30},{"time":86096.69999999995,"duration":243.89999999999418,"noteNumber":52,"velocity":100,"programNumber":30},{"time":86340.59999999995,"duration":243.89999999999418,"noteNumber":52,"velocity":100,"programNumber":30},{"time":86584.49999999994,"duration":243.89999999999418,"noteNumber":52,"velocity":100,"programNumber":30},{"time":86828.39999999994,"duration":243.89999999999418,"noteNumber":52,"velocity":100,"programNumber":30},{"time":87072.29999999993,"duration":243.89999999999418,"noteNumber":52,"velocity":100,"programNumber":30},{"time":87316.19999999992,"duration":243.89999999999418,"noteNumber":52,"velocity":100,"programNumber":30},{"time":87560.09999999992,"duration":487.8000000000029,"noteNumber":53,"velocity":127,"programNumber":30},{"time":87560.09999999992,"duration":487.8000000000029,"noteNumber":60,"velocity":127,"programNumber":30},{"time":88047.89999999992,"duration":243.89999999999418,"noteNumber":52,"velocity":100,"programNumber":30},{"time":88291.79999999992,"duration":243.89999999999418,"noteNumber":52,"velocity":100,"programNumber":30},{"time":88535.69999999991,"duration":243.89999999999418,"noteNumber":52,"velocity":100,"programNumber":30},{"time":88779.5999999999,"duration":243.89999999999418,"noteNumber":52,"velocity":100,"programNumber":30},{"time":89023.4999999999,"duration":243.89999999999418,"noteNumber":52,"velocity":100,"programNumber":30},{"time":89267.39999999989,"duration":243.89999999999418,"noteNumber":52,"velocity":100,"programNumber":30},{"time":89511.29999999989,"duration":487.8000000000029,"noteNumber":53,"velocity":127,"programNumber":30},{"time":89511.29999999989,"duration":487.8000000000029,"noteNumber":60,"velocity":127,"programNumber":30},{"time":89999.09999999989,"duration":243.89999999999418,"noteNumber":52,"velocity":100,"programNumber":30},{"time":90242.99999999988,"duration":243.89999999999418,"noteNumber":52,"velocity":100,"programNumber":30},{"time":90486.89999999988,"duration":243.89999999999418,"noteNumber":52,"velocity":100,"programNumber":30},{"time":90730.79999999987,"duration":243.89999999999418,"noteNumber":52,"velocity":100,"programNumber":30},{"time":90974.69999999987,"duration":243.89999999999418,"noteNumber":52,"velocity":100,"programNumber":30},{"time":91218.59999999986,"duration":243.89999999999418,"noteNumber":52,"velocity":100,"programNumber":30},{"time":91462.49999999985,"duration":487.8000000000029,"noteNumber":55,"velocity":127,"programNumber":30},{"time":91462.49999999985,"duration":487.8000000000029,"noteNumber":62,"velocity":127,"programNumber":30},{"time":91950.29999999986,"duration":243.89999999999418,"noteNumber":52,"velocity":100,"programNumber":30},{"time":92194.19999999985,"duration":243.89999999999418,"noteNumber":54,"velocity":100,"programNumber":30},{"time":92194.19999999985,"duration":243.89999999999418,"noteNumber":61,"velocity":100,"programNumber":30},{"time":92438.09999999985,"duration":243.89999999999418,"noteNumber":52,"velocity":100,"programNumber":30},{"time":92681.99999999984,"duration":243.89999999999418,"noteNumber":54,"velocity":100,"programNumber":30},{"time":92681.99999999984,"duration":243.89999999999418,"noteNumber":61,"velocity":100,"programNumber":30},{"time":92925.89999999983,"duration":243.89999999999418,"noteNumber":55,"velocity":100,"programNumber":30},{"time":92925.89999999983,"duration":243.89999999999418,"noteNumber":62,"velocity":100,"programNumber":30},{"time":93169.79999999983,"duration":243.89999999999418,"noteNumber":54,"velocity":100,"programNumber":30},{"time":93169.79999999983,"duration":243.89999999999418,"noteNumber":61,"velocity":100,"programNumber":30},{"time":93413.69999999982,"duration":487.8000000000029,"noteNumber":54,"velocity":127,"programNumber":30},{"time":93901.49999999983,"duration":243.89999999999418,"noteNumber":66,"velocity":100,"programNumber":30},{"time":94145.39999999982,"duration":243.89999999999418,"noteNumber":69,"velocity":100,"programNumber":30},{"time":94389.29999999981,"duration":243.89999999999418,"noteNumber":60,"velocity":100,"programNumber":30},{"time":94633.19999999981,"duration":487.8000000000029,"noteNumber":59,"velocity":100,"programNumber":30},{"time":95120.99999999981,"duration":243.89999999999418,"noteNumber":66,"velocity":100,"programNumber":30},{"time":95364.8999999998,"duration":487.8000000000029,"noteNumber":54,"velocity":127,"programNumber":30},{"time":95852.69999999981,"duration":243.89999999999418,"noteNumber":66,"velocity":100,"programNumber":30},{"time":96096.5999999998,"duration":243.89999999999418,"noteNumber":69,"velocity":100,"programNumber":30},{"time":96340.4999999998,"duration":243.89999999999418,"noteNumber":60,"velocity":100,"programNumber":30},{"time":96584.39999999979,"duration":487.8000000000029,"noteNumber":59,"velocity":100,"programNumber":30},{"time":97072.1999999998,"duration":243.89999999999418,"noteNumber":66,"velocity":100,"programNumber":30},{"time":97316.09999999979,"duration":487.8000000000029,"noteNumber":54,"velocity":127,"programNumber":30},{"time":97803.89999999979,"duration":243.89999999999418,"noteNumber":66,"velocity":100,"programNumber":30},{"time":98047.79999999978,"duration":243.89999999999418,"noteNumber":69,"velocity":100,"programNumber":30},{"time":98291.69999999978,"duration":243.89999999999418,"noteNumber":60,"velocity":100,"programNumber":30},{"time":98535.59999999977,"duration":487.8000000000029,"noteNumber":59,"velocity":100,"programNumber":30},{"time":99023.39999999978,"duration":243.89999999999418,"noteNumber":66,"velocity":100,"programNumber":30},{"time":99267.29999999977,"duration":487.8000000000029,"noteNumber":54,"velocity":127,"programNumber":30},{"time":99755.09999999977,"duration":243.89999999999418,"noteNumber":66,"velocity":100,"programNumber":30},{"time":99998.99999999977,"duration":243.89999999999418,"noteNumber":69,"velocity":100,"programNumber":30},{"time":100242.89999999976,"duration":243.89999999999418,"noteNumber":60,"velocity":100,"programNumber":30},{"time":100486.79999999976,"duration":487.8000000000029,"noteNumber":59,"velocity":100,"programNumber":30},{"time":100974.59999999976,"duration":487.8000000000029,"noteNumber":66,"velocity":100,"programNumber":30},{"time":101462.39999999976,"duration":487.8000000000029,"noteNumber":61,"velocity":100,"programNumber":30},{"time":101462.39999999976,"duration":487.8000000000029,"noteNumber":54,"velocity":100,"programNumber":30},{"time":101950.19999999976,"duration":243.89999999999418,"noteNumber":61,"velocity":100,"programNumber":30},{"time":102194.09999999976,"duration":243.89999999999418,"noteNumber":60,"velocity":100,"programNumber":30},{"time":102437.99999999975,"duration":731.6999999999971,"noteNumber":59,"velocity":100,"programNumber":30},{"time":102437.99999999975,"duration":731.6999999999971,"noteNumber":66,"velocity":100,"programNumber":30},{"time":103169.69999999975,"duration":731.6999999999971,"noteNumber":54,"velocity":100,"programNumber":30},{"time":103169.69999999975,"duration":731.6999999999971,"noteNumber":61,"velocity":100,"programNumber":30},{"time":103901.39999999975,"duration":243.89999999999418,"noteNumber":61,"velocity":100,"programNumber":30},{"time":104145.29999999974,"duration":243.89999999999418,"noteNumber":60,"velocity":100,"programNumber":30},{"time":104389.19999999974,"duration":731.6999999999971,"noteNumber":59,"velocity":100,"programNumber":30},{"time":104389.19999999974,"duration":731.6999999999971,"noteNumber":66,"velocity":100,"programNumber":30},{"time":105120.89999999973,"duration":731.6999999999971,"noteNumber":54,"velocity":100,"programNumber":30},{"time":105120.89999999973,"duration":731.6999999999971,"noteNumber":61,"velocity":100,"programNumber":30},{"time":105852.59999999973,"duration":243.89999999999418,"noteNumber":61,"velocity":100,"programNumber":30},{"time":106096.49999999972,"duration":243.89999999999418,"noteNumber":60,"velocity":100,"programNumber":30},{"time":106340.39999999972,"duration":731.6999999999971,"noteNumber":59,"velocity":100,"programNumber":30},{"time":106340.39999999972,"duration":731.6999999999971,"noteNumber":66,"velocity":100,"programNumber":30},{"time":107072.09999999971,"duration":2195.100000000006,"noteNumber":52,"velocity":100,"programNumber":30},{"time":107072.09999999971,"duration":2195.100000000006,"noteNumber":59,"velocity":100,"programNumber":30},{"time":109754.99999999972,"duration":243.89999999999418,"noteNumber":61,"velocity":100,"programNumber":30},{"time":109267.19999999972,"duration":731.6999999999971,"noteNumber":54,"velocity":100,"programNumber":30},{"time":109998.89999999972,"duration":243.89999999999418,"noteNumber":60,"velocity":100,"programNumber":30},{"time":110242.79999999971,"duration":731.6999999999971,"noteNumber":59,"velocity":100,"programNumber":30},{"time":110242.79999999971,"duration":731.6999999999971,"noteNumber":66,"velocity":100,"programNumber":30},{"time":110974.49999999971,"duration":2195.100000000006,"noteNumber":52,"velocity":100,"programNumber":30},{"time":110974.49999999971,"duration":2195.100000000006,"noteNumber":59,"velocity":100,"programNumber":30},{"time":113169.59999999971,"duration":243.89999999999418,"noteNumber":55,"velocity":100,"programNumber":30},{"time":113169.59999999971,"duration":243.89999999999418,"noteNumber":62,"velocity":100,"programNumber":30},{"time":113413.49999999971,"duration":243.89999999999418,"noteNumber":52,"velocity":100,"programNumber":30},{"time":113657.3999999997,"duration":243.89999999999418,"noteNumber":54,"velocity":100,"programNumber":30},{"time":113657.3999999997,"duration":243.89999999999418,"noteNumber":61,"velocity":100,"programNumber":30},{"time":113901.2999999997,"duration":243.89999999999418,"noteNumber":52,"velocity":100,"programNumber":30},{"time":114145.19999999969,"duration":243.89999999999418,"noteNumber":54,"velocity":100,"programNumber":30},{"time":114145.19999999969,"duration":243.89999999999418,"noteNumber":61,"velocity":100,"programNumber":30},{"time":114389.09999999969,"duration":243.89999999999418,"noteNumber":55,"velocity":100,"programNumber":30},{"time":114389.09999999969,"duration":243.89999999999418,"noteNumber":62,"velocity":100,"programNumber":30},{"time":114632.99999999968,"duration":243.89999999999418,"noteNumber":54,"velocity":100,"programNumber":30},{"time":114632.99999999968,"duration":243.89999999999418,"noteNumber":61,"velocity":100,"programNumber":30},{"time":114876.89999999967,"duration":487.8000000000029,"noteNumber":52,"velocity":127,"programNumber":30},{"time":114876.89999999967,"duration":487.8000000000029,"noteNumber":59,"velocity":127,"programNumber":30},{"time":115364.69999999968,"duration":243.89999999999418,"noteNumber":52,"velocity":100,"programNumber":30},{"time":115364.69999999968,"duration":243.89999999999418,"noteNumber":59,"velocity":100,"programNumber":30},{"time":115608.59999999967,"duration":243.89999999999418,"noteNumber":64,"velocity":100,"programNumber":30},{"time":115852.49999999967,"duration":243.89999999999418,"noteNumber":58,"velocity":100,"programNumber":30},{"time":116096.39999999966,"duration":487.8000000000029,"noteNumber":57,"velocity":100,"programNumber":30},{"time":116584.19999999966,"duration":243.89999999999418,"noteNumber":52,"velocity":100,"programNumber":30},{"time":116828.09999999966,"duration":487.8000000000029,"noteNumber":59,"velocity":127,"programNumber":30},{"time":116828.09999999966,"duration":487.8000000000029,"noteNumber":52,"velocity":127,"programNumber":30},{"time":117315.89999999966,"duration":243.89999999999418,"noteNumber":52,"velocity":100,"programNumber":30},{"time":117315.89999999966,"duration":243.89999999999418,"noteNumber":59,"velocity":100,"programNumber":30},{"time":117559.79999999965,"duration":243.89999999999418,"noteNumber":64,"velocity":100,"programNumber":30},{"time":117803.69999999965,"duration":243.89999999999418,"noteNumber":58,"velocity":100,"programNumber":30},{"time":118047.59999999964,"duration":487.8000000000029,"noteNumber":57,"velocity":100,"programNumber":30},{"time":118535.39999999964,"duration":243.89999999999418,"noteNumber":52,"velocity":100,"programNumber":30},{"time":118779.29999999964,"duration":487.8000000000029,"noteNumber":52,"velocity":127,"programNumber":30},{"time":118779.29999999964,"duration":487.8000000000029,"noteNumber":59,"velocity":127,"programNumber":30},{"time":119267.09999999964,"duration":243.89999999999418,"noteNumber":52,"velocity":100,"programNumber":30},{"time":119267.09999999964,"duration":243.89999999999418,"noteNumber":59,"velocity":100,"programNumber":30},{"time":119510.99999999964,"duration":243.89999999999418,"noteNumber":64,"velocity":100,"programNumber":30},{"time":119754.89999999963,"duration":243.89999999999418,"noteNumber":58,"velocity":100,"programNumber":30},{"time":119998.79999999962,"duration":487.8000000000029,"noteNumber":57,"velocity":100,"programNumber":30},{"time":120486.59999999963,"duration":243.89999999999418,"noteNumber":52,"velocity":100,"programNumber":30},{"time":120730.49999999962,"duration":487.8000000000029,"noteNumber":55,"velocity":127,"programNumber":30},{"time":120730.49999999962,"duration":487.8000000000029,"noteNumber":62,"velocity":127,"programNumber":30},{"time":121218.29999999962,"duration":243.89999999999418,"noteNumber":52,"velocity":100,"programNumber":30},{"time":121462.19999999962,"duration":243.89999999999418,"noteNumber":54,"velocity":100,"programNumber":30},{"time":121462.19999999962,"duration":243.89999999999418,"noteNumber":61,"velocity":100,"programNumber":30},{"time":121706.09999999961,"duration":243.89999999999418,"noteNumber":52,"velocity":100,"programNumber":30},{"time":121949.9999999996,"duration":243.89999999999418,"noteNumber":54,"velocity":100,"programNumber":30},{"time":121949.9999999996,"duration":243.89999999999418,"noteNumber":61,"velocity":100,"programNumber":30},{"time":122193.8999999996,"duration":243.89999999999418,"noteNumber":55,"velocity":100,"programNumber":30},{"time":122193.8999999996,"duration":243.89999999999418,"noteNumber":62,"velocity":100,"programNumber":30},{"time":122437.7999999996,"duration":243.89999999999418,"noteNumber":54,"velocity":100,"programNumber":30},{"time":122437.7999999996,"duration":243.89999999999418,"noteNumber":61,"velocity":100,"programNumber":30},{"time":122681.69999999959,"duration":487.8000000000029,"noteNumber":52,"velocity":127,"programNumber":30},{"time":122681.69999999959,"duration":487.8000000000029,"noteNumber":59,"velocity":127,"programNumber":30},{"time":123169.49999999959,"duration":243.89999999999418,"noteNumber":52,"velocity":100,"programNumber":30},{"time":123169.49999999959,"duration":243.89999999999418,"noteNumber":59,"velocity":100,"programNumber":30},{"time":123413.39999999959,"duration":243.89999999999418,"noteNumber":64,"velocity":100,"programNumber":30},{"time":123657.29999999958,"duration":243.89999999999418,"noteNumber":58,"velocity":100,"programNumber":30},{"time":123901.19999999958,"duration":487.8000000000029,"noteNumber":57,"velocity":100,"programNumber":30},{"time":124388.99999999958,"duration":243.89999999999418,"noteNumber":52,"velocity":100,"programNumber":30},{"time":124632.89999999957,"duration":487.8000000000029,"noteNumber":59,"velocity":127,"programNumber":30},{"time":124632.89999999957,"duration":487.8000000000029,"noteNumber":52,"velocity":127,"programNumber":30},{"time":125120.69999999958,"duration":243.89999999999418,"noteNumber":52,"velocity":100,"programNumber":30},{"time":125120.69999999958,"duration":243.89999999999418,"noteNumber":59,"velocity":100,"programNumber":30},{"time":125364.59999999957,"duration":243.89999999999418,"noteNumber":64,"velocity":100,"programNumber":30},{"time":125608.49999999956,"duration":243.89999999999418,"noteNumber":58,"velocity":100,"programNumber":30},{"time":125852.39999999956,"duration":487.8000000000029,"noteNumber":57,"velocity":100,"programNumber":30},{"time":126340.19999999956,"duration":243.89999999999418,"noteNumber":52,"velocity":100,"programNumber":30},{"time":126584.09999999955,"duration":487.8000000000029,"noteNumber":52,"velocity":127,"programNumber":30},{"time":126584.09999999955,"duration":487.8000000000029,"noteNumber":59,"velocity":127,"programNumber":30},{"time":127071.89999999956,"duration":243.89999999999418,"noteNumber":52,"velocity":100,"programNumber":30},{"time":127071.89999999956,"duration":243.89999999999418,"noteNumber":59,"velocity":100,"programNumber":30},{"time":127315.79999999955,"duration":243.89999999999418,"noteNumber":64,"velocity":100,"programNumber":30},{"time":127559.69999999955,"duration":243.89999999999418,"noteNumber":58,"velocity":100,"programNumber":30},{"time":127803.59999999954,"duration":487.8000000000029,"noteNumber":57,"velocity":100,"programNumber":30},{"time":128291.39999999954,"duration":243.89999999999418,"noteNumber":52,"velocity":100,"programNumber":30},{"time":128535.29999999954,"duration":487.8000000000029,"noteNumber":55,"velocity":127,"programNumber":30},{"time":128535.29999999954,"duration":487.8000000000029,"noteNumber":62,"velocity":127,"programNumber":30},{"time":129023.09999999954,"duration":243.89999999999418,"noteNumber":52,"velocity":100,"programNumber":30},{"time":129266.99999999953,"duration":243.89999999999418,"noteNumber":54,"velocity":100,"programNumber":30},{"time":129266.99999999953,"duration":243.89999999999418,"noteNumber":61,"velocity":100,"programNumber":30},{"time":129510.89999999953,"duration":243.89999999999418,"noteNumber":52,"velocity":100,"programNumber":30},{"time":129754.79999999952,"duration":243.89999999999418,"noteNumber":54,"velocity":100,"programNumber":30},{"time":129754.79999999952,"duration":243.89999999999418,"noteNumber":61,"velocity":100,"programNumber":30},{"time":129998.69999999952,"duration":243.89999999999418,"noteNumber":55,"velocity":100,"programNumber":30},{"time":129998.69999999952,"duration":243.89999999999418,"noteNumber":62,"velocity":100,"programNumber":30},{"time":130242.59999999951,"duration":243.89999999999418,"noteNumber":54,"velocity":100,"programNumber":30},{"time":130242.59999999951,"duration":243.89999999999418,"noteNumber":61,"velocity":100,"programNumber":30},{"time":130486.4999999995,"duration":487.8000000000029,"noteNumber":52,"velocity":127,"programNumber":30},{"time":130486.4999999995,"duration":487.8000000000029,"noteNumber":59,"velocity":127,"programNumber":30},{"time":130974.29999999951,"duration":243.90000000000873,"noteNumber":52,"velocity":100,"programNumber":30},{"time":131218.19999999952,"duration":243.89999999999418,"noteNumber":52,"velocity":100,"programNumber":30},{"time":131462.0999999995,"duration":243.89999999999418,"noteNumber":52,"velocity":100,"programNumber":30},{"time":131705.9999999995,"duration":243.89999999999418,"noteNumber":52,"velocity":100,"programNumber":30},{"time":131949.8999999995,"duration":243.89999999999418,"noteNumber":52,"velocity":100,"programNumber":30},{"time":132193.7999999995,"duration":243.89999999999418,"noteNumber":52,"velocity":100,"programNumber":30},{"time":132437.6999999995,"duration":487.79999999998836,"noteNumber":53,"velocity":127,"programNumber":30},{"time":132437.6999999995,"duration":487.79999999998836,"noteNumber":60,"velocity":127,"programNumber":30},{"time":132925.49999999948,"duration":243.89999999999418,"noteNumber":52,"velocity":100,"programNumber":30},{"time":133169.39999999947,"duration":243.89999999999418,"noteNumber":52,"velocity":100,"programNumber":30},{"time":133413.29999999946,"duration":243.89999999999418,"noteNumber":52,"velocity":100,"programNumber":30},{"time":133657.19999999946,"duration":243.89999999999418,"noteNumber":52,"velocity":100,"programNumber":30},{"time":133901.09999999945,"duration":243.89999999999418,"noteNumber":52,"velocity":100,"programNumber":30},{"time":134144.99999999945,"duration":243.89999999999418,"noteNumber":52,"velocity":100,"programNumber":30},{"time":134388.89999999944,"duration":487.79999999998836,"noteNumber":53,"velocity":127,"programNumber":30},{"time":134388.89999999944,"duration":487.79999999998836,"noteNumber":60,"velocity":127,"programNumber":30},{"time":134876.69999999943,"duration":243.89999999999418,"noteNumber":52,"velocity":100,"programNumber":30},{"time":135120.59999999942,"duration":243.89999999999418,"noteNumber":52,"velocity":100,"programNumber":30},{"time":135364.49999999942,"duration":243.89999999999418,"noteNumber":52,"velocity":100,"programNumber":30},{"time":135608.3999999994,"duration":243.89999999999418,"noteNumber":52,"velocity":100,"programNumber":30},{"time":135852.2999999994,"duration":243.89999999999418,"noteNumber":52,"velocity":100,"programNumber":30},{"time":136096.1999999994,"duration":243.89999999999418,"noteNumber":52,"velocity":100,"programNumber":30},{"time":136340.0999999994,"duration":487.79999999998836,"noteNumber":55,"velocity":127,"programNumber":30},{"time":136340.0999999994,"duration":487.79999999998836,"noteNumber":62,"velocity":127,"programNumber":30},{"time":136827.89999999938,"duration":243.89999999999418,"noteNumber":52,"velocity":100,"programNumber":30},{"time":137071.79999999938,"duration":243.89999999999418,"noteNumber":54,"velocity":100,"programNumber":30},{"time":137071.79999999938,"duration":243.89999999999418,"noteNumber":61,"velocity":100,"programNumber":30},{"time":137315.69999999937,"duration":243.89999999999418,"noteNumber":52,"velocity":100,"programNumber":30},{"time":137559.59999999937,"duration":243.89999999999418,"noteNumber":54,"velocity":100,"programNumber":30},{"time":137559.59999999937,"duration":243.89999999999418,"noteNumber":61,"velocity":100,"programNumber":30},{"time":137803.49999999936,"duration":243.89999999999418,"noteNumber":55,"velocity":100,"programNumber":30},{"time":137803.49999999936,"duration":243.89999999999418,"noteNumber":62,"velocity":100,"programNumber":30},{"time":138047.39999999935,"duration":243.89999999999418,"noteNumber":54,"velocity":100,"programNumber":30},{"time":138047.39999999935,"duration":243.89999999999418,"noteNumber":61,"velocity":100,"programNumber":30},{"time":138291.29999999935,"duration":487.79999999998836,"noteNumber":52,"velocity":127,"programNumber":30},{"time":138291.29999999935,"duration":487.79999999998836,"noteNumber":59,"velocity":127,"programNumber":30},{"time":138779.09999999934,"duration":243.89999999999418,"noteNumber":52,"velocity":100,"programNumber":30},{"time":139022.99999999933,"duration":243.89999999999418,"noteNumber":52,"velocity":100,"programNumber":30},{"time":139266.89999999932,"duration":243.89999999999418,"noteNumber":52,"velocity":100,"programNumber":30},{"time":139510.79999999932,"duration":243.89999999999418,"noteNumber":52,"velocity":100,"programNumber":30},{"time":139754.6999999993,"duration":243.89999999999418,"noteNumber":52,"velocity":100,"programNumber":30},{"time":139998.5999999993,"duration":243.89999999999418,"noteNumber":52,"velocity":100,"programNumber":30},{"time":140242.4999999993,"duration":487.79999999998836,"noteNumber":53,"velocity":127,"programNumber":30},{"time":140242.4999999993,"duration":487.79999999998836,"noteNumber":60,"velocity":127,"programNumber":30},{"time":140730.2999999993,"duration":243.89999999999418,"noteNumber":52,"velocity":100,"programNumber":30},{"time":140974.19999999928,"duration":243.89999999999418,"noteNumber":52,"velocity":100,"programNumber":30},{"time":141218.09999999928,"duration":243.89999999999418,"noteNumber":52,"velocity":100,"programNumber":30},{"time":141461.99999999927,"duration":243.89999999999418,"noteNumber":52,"velocity":100,"programNumber":30},{"time":141705.89999999927,"duration":243.89999999999418,"noteNumber":52,"velocity":100,"programNumber":30},{"time":141949.79999999926,"duration":243.89999999999418,"noteNumber":52,"velocity":100,"programNumber":30},{"time":142193.69999999925,"duration":487.79999999998836,"noteNumber":53,"velocity":127,"programNumber":30},{"time":142193.69999999925,"duration":487.79999999998836,"noteNumber":60,"velocity":127,"programNumber":30},{"time":142681.49999999924,"duration":243.89999999999418,"noteNumber":52,"velocity":100,"programNumber":30},{"time":142925.39999999924,"duration":243.89999999999418,"noteNumber":52,"velocity":100,"programNumber":30},{"time":143169.29999999923,"duration":243.89999999999418,"noteNumber":52,"velocity":100,"programNumber":30},{"time":143413.19999999923,"duration":243.89999999999418,"noteNumber":52,"velocity":100,"programNumber":30},{"time":143657.09999999922,"duration":243.89999999999418,"noteNumber":52,"velocity":100,"programNumber":30},{"time":143900.9999999992,"duration":243.89999999999418,"noteNumber":52,"velocity":100,"programNumber":30},{"time":144144.8999999992,"duration":487.79999999998836,"noteNumber":55,"velocity":127,"programNumber":30},{"time":144144.8999999992,"duration":487.79999999998836,"noteNumber":62,"velocity":127,"programNumber":30},{"time":144632.6999999992,"duration":243.89999999999418,"noteNumber":52,"velocity":100,"programNumber":30},{"time":144876.5999999992,"duration":243.89999999999418,"noteNumber":54,"velocity":100,"programNumber":30},{"time":144876.5999999992,"duration":243.89999999999418,"noteNumber":61,"velocity":100,"programNumber":30},{"time":145120.49999999919,"duration":243.89999999999418,"noteNumber":52,"velocity":100,"programNumber":30},{"time":145364.39999999918,"duration":243.89999999999418,"noteNumber":54,"velocity":100,"programNumber":30},{"time":145364.39999999918,"duration":243.89999999999418,"noteNumber":61,"velocity":100,"programNumber":30},{"time":145608.29999999917,"duration":243.89999999999418,"noteNumber":55,"velocity":100,"programNumber":30},{"time":145608.29999999917,"duration":243.89999999999418,"noteNumber":62,"velocity":100,"programNumber":30},{"time":145852.19999999917,"duration":243.89999999999418,"noteNumber":54,"velocity":100,"programNumber":30},{"time":145852.19999999917,"duration":243.89999999999418,"noteNumber":61,"velocity":100,"programNumber":30},{"time":146096.09999999916,"duration":487.79999999998836,"noteNumber":54,"velocity":127,"programNumber":30},{"time":146583.89999999915,"duration":243.89999999999418,"noteNumber":66,"velocity":100,"programNumber":30},{"time":146827.79999999914,"duration":243.89999999999418,"noteNumber":69,"velocity":100,"programNumber":30},{"time":147071.69999999914,"duration":243.89999999999418,"noteNumber":60,"velocity":100,"programNumber":30},{"time":147315.59999999913,"duration":487.79999999998836,"noteNumber":59,"velocity":100,"programNumber":30},{"time":147803.39999999912,"duration":243.89999999999418,"noteNumber":66,"velocity":100,"programNumber":30},{"time":148047.29999999912,"duration":487.79999999998836,"noteNumber":54,"velocity":127,"programNumber":30},{"time":148535.0999999991,"duration":243.89999999999418,"noteNumber":66,"velocity":100,"programNumber":30},{"time":148778.9999999991,"duration":243.89999999999418,"noteNumber":69,"velocity":100,"programNumber":30},{"time":149022.8999999991,"duration":243.89999999999418,"noteNumber":60,"velocity":100,"programNumber":30},{"time":149266.7999999991,"duration":487.79999999998836,"noteNumber":59,"velocity":100,"programNumber":30},{"time":149754.59999999907,"duration":243.89999999999418,"noteNumber":66,"velocity":100,"programNumber":30},{"time":149998.49999999907,"duration":487.79999999998836,"noteNumber":54,"velocity":127,"programNumber":30},{"time":150486.29999999906,"duration":243.89999999999418,"noteNumber":66,"velocity":100,"programNumber":30},{"time":150730.19999999905,"duration":243.89999999999418,"noteNumber":69,"velocity":100,"programNumber":30},{"time":150974.09999999905,"duration":243.89999999999418,"noteNumber":60,"velocity":100,"programNumber":30},{"time":151217.99999999904,"duration":487.79999999998836,"noteNumber":59,"velocity":100,"programNumber":30},{"time":151705.79999999903,"duration":243.89999999999418,"noteNumber":66,"velocity":100,"programNumber":30},{"time":151949.69999999902,"duration":487.79999999998836,"noteNumber":54,"velocity":127,"programNumber":30},{"time":152437.499999999,"duration":243.89999999999418,"noteNumber":66,"velocity":100,"programNumber":30},{"time":152681.399999999,"duration":243.89999999999418,"noteNumber":69,"velocity":100,"programNumber":30},{"time":152925.299999999,"duration":243.89999999999418,"noteNumber":60,"velocity":100,"programNumber":30},{"time":153169.199999999,"duration":487.79999999998836,"noteNumber":59,"velocity":100,"programNumber":30},{"time":153656.99999999898,"duration":487.79999999998836,"noteNumber":66,"velocity":100,"programNumber":30},{"time":154144.79999999897,"duration":487.79999999998836,"noteNumber":61,"velocity":100,"programNumber":30},{"time":154144.79999999897,"duration":487.79999999998836,"noteNumber":54,"velocity":100,"programNumber":30},{"time":154632.59999999896,"duration":243.89999999999418,"noteNumber":61,"velocity":100,"programNumber":30},{"time":154876.49999999895,"duration":243.89999999999418,"noteNumber":60,"velocity":100,"programNumber":30},{"time":155120.39999999895,"duration":731.7000000000116,"noteNumber":59,"velocity":100,"programNumber":30},{"time":155120.39999999895,"duration":731.7000000000116,"noteNumber":66,"velocity":100,"programNumber":30},{"time":155852.09999999896,"duration":731.7000000000116,"noteNumber":54,"velocity":100,"programNumber":30},{"time":155852.09999999896,"duration":731.7000000000116,"noteNumber":61,"velocity":100,"programNumber":30},{"time":156583.79999999897,"duration":243.89999999999418,"noteNumber":61,"velocity":100,"programNumber":30},{"time":156827.69999999896,"duration":243.89999999999418,"noteNumber":60,"velocity":100,"programNumber":30},{"time":157071.59999999896,"duration":731.7000000000116,"noteNumber":59,"velocity":100,"programNumber":30},{"time":157071.59999999896,"duration":731.7000000000116,"noteNumber":66,"velocity":100,"programNumber":30},{"time":157803.29999999897,"duration":731.7000000000116,"noteNumber":54,"velocity":100,"programNumber":30},{"time":157803.29999999897,"duration":731.7000000000116,"noteNumber":61,"velocity":100,"programNumber":30},{"time":158534.99999999898,"duration":243.89999999999418,"noteNumber":61,"velocity":100,"programNumber":30},{"time":158778.89999999898,"duration":243.89999999999418,"noteNumber":60,"velocity":100,"programNumber":30},{"time":159022.79999999897,"duration":731.7000000000116,"noteNumber":59,"velocity":100,"programNumber":30},{"time":159022.79999999897,"duration":731.7000000000116,"noteNumber":66,"velocity":100,"programNumber":30},{"time":159754.49999999898,"duration":2195.100000000006,"noteNumber":52,"velocity":100,"programNumber":30},{"time":159754.49999999898,"duration":2195.100000000006,"noteNumber":59,"velocity":100,"programNumber":30},{"time":162437.39999999898,"duration":243.89999999999418,"noteNumber":61,"velocity":100,"programNumber":30},{"time":161949.599999999,"duration":731.6999999999825,"noteNumber":54,"velocity":100,"programNumber":30},{"time":162681.29999999897,"duration":243.89999999999418,"noteNumber":60,"velocity":100,"programNumber":30},{"time":162925.19999999896,"duration":731.7000000000116,"noteNumber":59,"velocity":100,"programNumber":30},{"time":162925.19999999896,"duration":731.7000000000116,"noteNumber":66,"velocity":100,"programNumber":30},{"time":163656.89999999898,"duration":2195.100000000006,"noteNumber":52,"velocity":100,"programNumber":30},{"time":163656.89999999898,"duration":2195.100000000006,"noteNumber":59,"velocity":100,"programNumber":30},{"time":165851.99999999898,"duration":243.89999999999418,"noteNumber":55,"velocity":100,"programNumber":30},{"time":165851.99999999898,"duration":243.89999999999418,"noteNumber":62,"velocity":100,"programNumber":30},{"time":166095.89999999898,"duration":243.89999999999418,"noteNumber":52,"velocity":100,"programNumber":30},{"time":166339.79999999897,"duration":243.89999999999418,"noteNumber":54,"velocity":100,"programNumber":30},{"time":166339.79999999897,"duration":243.89999999999418,"noteNumber":61,"velocity":100,"programNumber":30},{"time":166583.69999999896,"duration":243.89999999999418,"noteNumber":52,"velocity":100,"programNumber":30},{"time":166827.59999999896,"duration":243.89999999999418,"noteNumber":54,"velocity":100,"programNumber":30},{"time":166827.59999999896,"duration":243.89999999999418,"noteNumber":61,"velocity":100,"programNumber":30},{"time":167071.49999999895,"duration":243.89999999999418,"noteNumber":55,"velocity":100,"programNumber":30},{"time":167071.49999999895,"duration":243.89999999999418,"noteNumber":62,"velocity":100,"programNumber":30},{"time":167315.39999999895,"duration":243.89999999999418,"noteNumber":54,"velocity":100,"programNumber":30},{"time":167315.39999999895,"duration":243.89999999999418,"noteNumber":61,"velocity":100,"programNumber":30},{"time":167559.29999999894,"duration":1951.2000000000116,"noteNumber":52,"velocity":127,"programNumber":30},{"time":167559.29999999894,"duration":1951.2000000000116,"noteNumber":59,"velocity":127,"programNumber":30},{"time":169510.49999999895,"duration":487.79999999998836,"noteNumber":52,"velocity":127,"programNumber":30},{"time":169510.49999999895,"duration":487.79999999998836,"noteNumber":59,"velocity":127,"programNumber":30},{"time":169998.29999999894,"duration":243.89999999999418,"noteNumber":52,"velocity":100,"programNumber":30},{"time":169998.29999999894,"duration":243.89999999999418,"noteNumber":59,"velocity":100,"programNumber":30},{"time":170242.19999999893,"duration":243.89999999999418,"noteNumber":64,"velocity":100,"programNumber":30},{"time":170486.09999999893,"duration":243.89999999999418,"noteNumber":58,"velocity":100,"programNumber":30},{"time":170729.99999999892,"duration":487.79999999998836,"noteNumber":57,"velocity":100,"programNumber":30},{"time":171217.7999999989,"duration":243.89999999999418,"noteNumber":52,"velocity":100,"programNumber":30},{"time":171461.6999999989,"duration":487.79999999998836,"noteNumber":59,"velocity":127,"programNumber":30},{"time":171461.6999999989,"duration":487.79999999998836,"noteNumber":52,"velocity":127,"programNumber":30},{"time":171949.4999999989,"duration":243.89999999999418,"noteNumber":52,"velocity":100,"programNumber":30},{"time":171949.4999999989,"duration":243.89999999999418,"noteNumber":59,"velocity":100,"programNumber":30},{"time":172193.3999999989,"duration":243.89999999999418,"noteNumber":64,"velocity":100,"programNumber":30},{"time":172437.29999999888,"duration":243.89999999999418,"noteNumber":58,"velocity":100,"programNumber":30},{"time":172681.19999999888,"duration":487.79999999998836,"noteNumber":57,"velocity":100,"programNumber":30},{"time":173168.99999999886,"duration":243.89999999999418,"noteNumber":52,"velocity":100,"programNumber":30},{"time":173412.89999999886,"duration":487.79999999998836,"noteNumber":52,"velocity":127,"programNumber":30},{"time":173412.89999999886,"duration":487.79999999998836,"noteNumber":59,"velocity":127,"programNumber":30},{"time":173900.69999999885,"duration":243.89999999999418,"noteNumber":52,"velocity":100,"programNumber":30},{"time":173900.69999999885,"duration":243.89999999999418,"noteNumber":59,"velocity":100,"programNumber":30},{"time":174144.59999999884,"duration":243.89999999999418,"noteNumber":64,"velocity":100,"programNumber":30},{"time":174388.49999999884,"duration":243.89999999999418,"noteNumber":58,"velocity":100,"programNumber":30},{"time":174632.39999999883,"duration":487.79999999998836,"noteNumber":57,"velocity":100,"programNumber":30},{"time":175120.19999999882,"duration":243.89999999999418,"noteNumber":52,"velocity":100,"programNumber":30},{"time":175364.0999999988,"duration":487.79999999998836,"noteNumber":55,"velocity":127,"programNumber":30},{"time":175364.0999999988,"duration":487.79999999998836,"noteNumber":62,"velocity":127,"programNumber":30},{"time":175851.8999999988,"duration":243.89999999999418,"noteNumber":52,"velocity":100,"programNumber":30},{"time":176095.7999999988,"duration":243.89999999999418,"noteNumber":54,"velocity":100,"programNumber":30},{"time":176095.7999999988,"duration":243.89999999999418,"noteNumber":61,"velocity":100,"programNumber":30},{"time":176339.6999999988,"duration":243.89999999999418,"noteNumber":52,"velocity":100,"programNumber":30},{"time":176583.59999999878,"duration":243.89999999999418,"noteNumber":54,"velocity":100,"programNumber":30},{"time":176583.59999999878,"duration":243.89999999999418,"noteNumber":61,"velocity":100,"programNumber":30},{"time":176827.49999999878,"duration":243.89999999999418,"noteNumber":55,"velocity":100,"programNumber":30},{"time":176827.49999999878,"duration":243.89999999999418,"noteNumber":62,"velocity":100,"programNumber":30},{"time":177071.39999999877,"duration":243.89999999999418,"noteNumber":54,"velocity":100,"programNumber":30},{"time":177071.39999999877,"duration":243.89999999999418,"noteNumber":61,"velocity":100,"programNumber":30},{"time":177315.29999999877,"duration":487.79999999998836,"noteNumber":52,"velocity":127,"programNumber":30},{"time":177315.29999999877,"duration":487.79999999998836,"noteNumber":59,"velocity":127,"programNumber":30},{"time":177803.09999999875,"duration":243.89999999999418,"noteNumber":52,"velocity":100,"programNumber":30},{"time":177803.09999999875,"duration":243.89999999999418,"noteNumber":59,"velocity":100,"programNumber":30},{"time":178046.99999999875,"duration":243.89999999999418,"noteNumber":64,"velocity":100,"programNumber":30},{"time":178290.89999999874,"duration":243.89999999999418,"noteNumber":58,"velocity":100,"programNumber":30},{"time":178534.79999999874,"duration":487.79999999998836,"noteNumber":57,"velocity":100,"programNumber":30},{"time":179022.59999999873,"duration":243.89999999999418,"noteNumber":52,"velocity":100,"programNumber":30},{"time":179266.49999999872,"duration":487.79999999998836,"noteNumber":59,"velocity":127,"programNumber":30},{"time":179266.49999999872,"duration":487.79999999998836,"noteNumber":52,"velocity":127,"programNumber":30},{"time":179754.2999999987,"duration":243.89999999999418,"noteNumber":52,"velocity":100,"programNumber":30},{"time":179754.2999999987,"duration":243.89999999999418,"noteNumber":59,"velocity":100,"programNumber":30},{"time":179998.1999999987,"duration":243.89999999999418,"noteNumber":64,"velocity":100,"programNumber":30},{"time":180242.0999999987,"duration":243.89999999999418,"noteNumber":58,"velocity":100,"programNumber":30},{"time":180485.9999999987,"duration":487.79999999998836,"noteNumber":57,"velocity":100,"programNumber":30},{"time":180973.79999999868,"duration":243.89999999999418,"noteNumber":52,"velocity":100,"programNumber":30},{"time":181217.69999999867,"duration":487.79999999998836,"noteNumber":52,"velocity":127,"programNumber":30},{"time":181217.69999999867,"duration":487.79999999998836,"noteNumber":59,"velocity":127,"programNumber":30},{"time":181705.49999999866,"duration":243.89999999999418,"noteNumber":52,"velocity":100,"programNumber":30},{"time":181705.49999999866,"duration":243.89999999999418,"noteNumber":59,"velocity":100,"programNumber":30},{"time":181949.39999999866,"duration":243.89999999999418,"noteNumber":64,"velocity":100,"programNumber":30},{"time":182193.29999999865,"duration":243.89999999999418,"noteNumber":58,"velocity":100,"programNumber":30},{"time":182437.19999999864,"duration":487.79999999998836,"noteNumber":57,"velocity":100,"programNumber":30},{"time":182924.99999999863,"duration":243.89999999999418,"noteNumber":52,"velocity":100,"programNumber":30},{"time":183168.89999999863,"duration":487.79999999998836,"noteNumber":55,"velocity":127,"programNumber":30},{"time":183168.89999999863,"duration":487.79999999998836,"noteNumber":62,"velocity":127,"programNumber":30},{"time":183656.69999999861,"duration":243.89999999999418,"noteNumber":52,"velocity":100,"programNumber":30},{"time":183900.5999999986,"duration":243.89999999999418,"noteNumber":54,"velocity":100,"programNumber":30},{"time":183900.5999999986,"duration":243.89999999999418,"noteNumber":61,"velocity":100,"programNumber":30},{"time":184144.4999999986,"duration":243.89999999999418,"noteNumber":52,"velocity":100,"programNumber":30},{"time":184388.3999999986,"duration":243.89999999999418,"noteNumber":54,"velocity":100,"programNumber":30},{"time":184388.3999999986,"duration":243.89999999999418,"noteNumber":61,"velocity":100,"programNumber":30},{"time":184632.2999999986,"duration":243.89999999999418,"noteNumber":55,"velocity":100,"programNumber":30},{"time":184632.2999999986,"duration":243.89999999999418,"noteNumber":62,"velocity":100,"programNumber":30},{"time":184876.1999999986,"duration":243.89999999999418,"noteNumber":54,"velocity":100,"programNumber":30},{"time":184876.1999999986,"duration":243.89999999999418,"noteNumber":61,"velocity":100,"programNumber":30},{"time":185120.09999999858,"duration":487.79999999998836,"noteNumber":54,"velocity":127,"programNumber":30},{"time":185607.89999999857,"duration":243.89999999999418,"noteNumber":66,"velocity":100,"programNumber":30},{"time":185851.79999999856,"duration":243.89999999999418,"noteNumber":69,"velocity":100,"programNumber":30},{"time":186095.69999999856,"duration":243.89999999999418,"noteNumber":60,"velocity":100,"programNumber":30},{"time":186339.59999999855,"duration":487.79999999998836,"noteNumber":59,"velocity":100,"programNumber":30},{"time":186827.39999999854,"duration":243.89999999999418,"noteNumber":66,"velocity":100,"programNumber":30},{"time":187071.29999999853,"duration":487.79999999998836,"noteNumber":54,"velocity":127,"programNumber":30},{"time":187559.09999999852,"duration":243.89999999999418,"noteNumber":66,"velocity":100,"programNumber":30},{"time":187802.99999999852,"duration":243.89999999999418,"noteNumber":69,"velocity":100,"programNumber":30},{"time":188046.8999999985,"duration":243.89999999999418,"noteNumber":60,"velocity":100,"programNumber":30},{"time":188290.7999999985,"duration":487.79999999998836,"noteNumber":59,"velocity":100,"programNumber":30},{"time":188778.5999999985,"duration":243.89999999999418,"noteNumber":66,"velocity":100,"programNumber":30},{"time":189022.4999999985,"duration":487.79999999998836,"noteNumber":54,"velocity":127,"programNumber":30},{"time":189510.29999999847,"duration":243.89999999999418,"noteNumber":66,"velocity":100,"programNumber":30},{"time":189754.19999999847,"duration":243.89999999999418,"noteNumber":69,"velocity":100,"programNumber":30},{"time":189998.09999999846,"duration":243.89999999999418,"noteNumber":60,"velocity":100,"programNumber":30},{"time":190241.99999999846,"duration":487.79999999998836,"noteNumber":59,"velocity":100,"programNumber":30},{"time":190729.79999999845,"duration":243.89999999999418,"noteNumber":66,"velocity":100,"programNumber":30},{"time":190973.69999999844,"duration":487.79999999998836,"noteNumber":54,"velocity":127,"programNumber":30},{"time":191461.49999999843,"duration":243.89999999999418,"noteNumber":66,"velocity":100,"programNumber":30},{"time":191705.39999999842,"duration":243.89999999999418,"noteNumber":69,"velocity":100,"programNumber":30},{"time":191949.29999999842,"duration":243.89999999999418,"noteNumber":60,"velocity":100,"programNumber":30},{"time":192193.1999999984,"duration":487.79999999998836,"noteNumber":59,"velocity":100,"programNumber":30},{"time":192680.9999999984,"duration":487.79999999998836,"noteNumber":66,"velocity":100,"programNumber":30},{"time":193168.7999999984,"duration":487.79999999998836,"noteNumber":61,"velocity":100,"programNumber":30},{"time":193168.7999999984,"duration":487.79999999998836,"noteNumber":54,"velocity":100,"programNumber":30},{"time":193656.59999999838,"duration":243.89999999999418,"noteNumber":61,"velocity":100,"programNumber":30},{"time":193900.49999999837,"duration":243.89999999999418,"noteNumber":60,"velocity":100,"programNumber":30},{"time":194144.39999999836,"duration":731.7000000000116,"noteNumber":59,"velocity":100,"programNumber":30},{"time":194144.39999999836,"duration":731.7000000000116,"noteNumber":66,"velocity":100,"programNumber":30},{"time":194876.09999999838,"duration":731.7000000000116,"noteNumber":54,"velocity":100,"programNumber":30},{"time":194876.09999999838,"duration":731.7000000000116,"noteNumber":61,"velocity":100,"programNumber":30},{"time":195607.7999999984,"duration":243.89999999999418,"noteNumber":61,"velocity":100,"programNumber":30},{"time":195851.69999999838,"duration":243.89999999999418,"noteNumber":60,"velocity":100,"programNumber":30},{"time":196095.59999999838,"duration":731.7000000000116,"noteNumber":59,"velocity":100,"programNumber":30},{"time":196095.59999999838,"duration":731.7000000000116,"noteNumber":66,"velocity":100,"programNumber":30},{"time":196827.2999999984,"duration":731.7000000000116,"noteNumber":54,"velocity":100,"programNumber":30},{"time":196827.2999999984,"duration":731.7000000000116,"noteNumber":61,"velocity":100,"programNumber":30},{"time":197558.9999999984,"duration":243.89999999999418,"noteNumber":61,"velocity":100,"programNumber":30},{"time":197802.8999999984,"duration":243.89999999999418,"noteNumber":60,"velocity":100,"programNumber":30},{"time":198046.7999999984,"duration":731.7000000000116,"noteNumber":59,"velocity":100,"programNumber":30},{"time":198046.7999999984,"duration":731.7000000000116,"noteNumber":66,"velocity":100,"programNumber":30},{"time":198778.4999999984,"duration":2195.100000000006,"noteNumber":52,"velocity":100,"programNumber":30},{"time":198778.4999999984,"duration":2195.100000000006,"noteNumber":59,"velocity":100,"programNumber":30},{"time":201461.3999999984,"duration":243.89999999999418,"noteNumber":61,"velocity":100,"programNumber":30},{"time":200973.5999999984,"duration":731.6999999999825,"noteNumber":54,"velocity":100,"programNumber":30},{"time":201705.2999999984,"duration":243.89999999999418,"noteNumber":60,"velocity":100,"programNumber":30},{"time":201949.19999999838,"duration":731.7000000000116,"noteNumber":59,"velocity":100,"programNumber":30},{"time":201949.19999999838,"duration":731.7000000000116,"noteNumber":66,"velocity":100,"programNumber":30},{"time":202680.8999999984,"duration":2195.100000000006,"noteNumber":52,"velocity":100,"programNumber":30},{"time":202680.8999999984,"duration":2195.100000000006,"noteNumber":59,"velocity":100,"programNumber":30},{"time":204875.9999999984,"duration":243.89999999999418,"noteNumber":52,"velocity":100,"programNumber":30},{"time":204875.9999999984,"duration":243.89999999999418,"noteNumber":59,"velocity":100,"programNumber":30},{"time":214388.09999999838,"duration":487.79999999998836,"noteNumber":40,"velocity":100,"programNumber":27},{"time":214875.89999999836,"duration":243.89999999999418,"noteNumber":52,"velocity":100,"programNumber":27},{"time":215119.79999999836,"duration":243.89999999999418,"noteNumber":55,"velocity":100,"programNumber":27},{"time":215363.69999999835,"duration":243.89999999999418,"noteNumber":46,"velocity":100,"programNumber":27},{"time":215607.59999999835,"duration":487.79999999998836,"noteNumber":45,"velocity":100,"programNumber":27},{"time":216095.39999999834,"duration":243.89999999999418,"noteNumber":52,"velocity":100,"programNumber":27},{"time":216339.29999999833,"duration":487.79999999998836,"noteNumber":40,"velocity":100,"programNumber":27},{"time":216827.09999999832,"duration":243.89999999999418,"noteNumber":52,"velocity":100,"programNumber":27},{"time":217070.9999999983,"duration":243.89999999999418,"noteNumber":55,"velocity":100,"programNumber":27},{"time":217314.8999999983,"duration":243.89999999999418,"noteNumber":46,"velocity":100,"programNumber":27},{"time":217558.7999999983,"duration":487.79999999998836,"noteNumber":45,"velocity":100,"programNumber":27},{"time":218046.5999999983,"duration":243.89999999999418,"noteNumber":52,"velocity":100,"programNumber":27},{"time":218290.49999999828,"duration":487.79999999998836,"noteNumber":40,"velocity":100,"programNumber":27},{"time":218778.29999999827,"duration":243.89999999999418,"noteNumber":52,"velocity":100,"programNumber":27},{"time":219022.19999999827,"duration":243.89999999999418,"noteNumber":55,"velocity":100,"programNumber":27},{"time":219266.09999999826,"duration":243.89999999999418,"noteNumber":46,"velocity":100,"programNumber":27},{"time":219509.99999999825,"duration":487.79999999998836,"noteNumber":45,"velocity":100,"programNumber":27},{"time":219997.79999999824,"duration":243.89999999999418,"noteNumber":52,"velocity":100,"programNumber":27},{"time":220241.69999999824,"duration":487.79999999998836,"noteNumber":40,"velocity":100,"programNumber":27},{"time":220729.49999999822,"duration":243.89999999999418,"noteNumber":52,"velocity":100,"programNumber":27},{"time":220973.39999999822,"duration":243.89999999999418,"noteNumber":55,"velocity":100,"programNumber":27},{"time":221217.2999999982,"duration":243.89999999999418,"noteNumber":46,"velocity":100,"programNumber":27},{"time":221461.1999999982,"duration":487.79999999998836,"noteNumber":45,"velocity":100,"programNumber":27},{"time":221948.9999999982,"duration":243.89999999999418,"noteNumber":52,"velocity":100,"programNumber":27},{"time":222192.8999999982,"duration":487.79999999998836,"noteNumber":40,"velocity":100,"programNumber":27},{"time":222680.69999999818,"duration":243.89999999999418,"noteNumber":52,"velocity":100,"programNumber":27},{"time":222924.59999999817,"duration":243.89999999999418,"noteNumber":55,"velocity":100,"programNumber":27},{"time":223168.49999999817,"duration":243.89999999999418,"noteNumber":46,"velocity":100,"programNumber":27},{"time":223412.39999999816,"duration":487.79999999998836,"noteNumber":45,"velocity":100,"programNumber":27},{"time":223900.19999999815,"duration":243.89999999999418,"noteNumber":52,"velocity":100,"programNumber":27},{"time":224144.09999999814,"duration":487.79999999998836,"noteNumber":40,"velocity":100,"programNumber":27},{"time":224631.89999999813,"duration":243.89999999999418,"noteNumber":52,"velocity":100,"programNumber":27},{"time":224875.79999999813,"duration":243.89999999999418,"noteNumber":55,"velocity":100,"programNumber":27},{"time":225119.69999999812,"duration":243.89999999999418,"noteNumber":46,"velocity":100,"programNumber":27},{"time":225363.5999999981,"duration":487.79999999998836,"noteNumber":45,"velocity":100,"programNumber":27},{"time":225851.3999999981,"duration":243.89999999999418,"noteNumber":52,"velocity":100,"programNumber":27},{"time":226095.2999999981,"duration":487.79999999998836,"noteNumber":40,"velocity":100,"programNumber":27},{"time":226583.09999999808,"duration":243.89999999999418,"noteNumber":52,"velocity":100,"programNumber":27},{"time":226826.99999999808,"duration":243.89999999999418,"noteNumber":55,"velocity":100,"programNumber":27},{"time":227070.89999999807,"duration":243.89999999999418,"noteNumber":46,"velocity":100,"programNumber":27},{"time":227314.79999999807,"duration":487.79999999998836,"noteNumber":45,"velocity":100,"programNumber":27},{"time":227802.59999999806,"duration":243.89999999999418,"noteNumber":52,"velocity":100,"programNumber":27},{"time":228046.49999999805,"duration":487.79999999998836,"noteNumber":40,"velocity":100,"programNumber":27},{"time":228534.29999999804,"duration":243.89999999999418,"noteNumber":52,"velocity":100,"programNumber":30},{"time":228778.19999999803,"duration":243.89999999999418,"noteNumber":55,"velocity":100,"programNumber":30},{"time":229022.09999999803,"duration":243.89999999999418,"noteNumber":46,"velocity":100,"programNumber":30},{"time":229265.99999999802,"duration":487.79999999998836,"noteNumber":45,"velocity":100,"programNumber":30},{"time":229753.799999998,"duration":243.89999999999418,"noteNumber":52,"velocity":100,"programNumber":30},{"time":229997.699999998,"duration":487.79999999998836,"noteNumber":54,"velocity":127,"programNumber":30},{"time":230485.499999998,"duration":243.89999999999418,"noteNumber":66,"velocity":100,"programNumber":30},{"time":230729.399999998,"duration":243.89999999999418,"noteNumber":69,"velocity":100,"programNumber":30},{"time":230973.29999999798,"duration":243.89999999999418,"noteNumber":60,"velocity":100,"programNumber":30},{"time":231217.19999999797,"duration":487.79999999998836,"noteNumber":59,"velocity":100,"programNumber":30},{"time":231704.99999999796,"duration":243.89999999999418,"noteNumber":66,"velocity":100,"programNumber":30},{"time":231948.89999999796,"duration":487.79999999998836,"noteNumber":54,"velocity":127,"programNumber":30},{"time":232436.69999999795,"duration":243.89999999999418,"noteNumber":66,"velocity":100,"programNumber":30},{"time":232680.59999999794,"duration":243.89999999999418,"noteNumber":69,"velocity":100,"programNumber":30},{"time":232924.49999999793,"duration":243.89999999999418,"noteNumber":60,"velocity":100,"programNumber":30},{"time":233168.39999999793,"duration":487.79999999998836,"noteNumber":59,"velocity":100,"programNumber":30},{"time":233656.19999999792,"duration":243.89999999999418,"noteNumber":66,"velocity":100,"programNumber":30},{"time":233900.0999999979,"duration":487.79999999998836,"noteNumber":54,"velocity":127,"programNumber":30},{"time":234387.8999999979,"duration":243.89999999999418,"noteNumber":66,"velocity":100,"programNumber":30},{"time":234631.7999999979,"duration":243.89999999999418,"noteNumber":69,"velocity":100,"programNumber":30},{"time":234875.6999999979,"duration":243.89999999999418,"noteNumber":60,"velocity":100,"programNumber":30},{"time":235119.59999999788,"duration":487.79999999998836,"noteNumber":59,"velocity":100,"programNumber":30},{"time":235607.39999999787,"duration":243.89999999999418,"noteNumber":66,"velocity":100,"programNumber":30},{"time":235851.29999999786,"duration":487.79999999998836,"noteNumber":54,"velocity":127,"programNumber":30},{"time":236339.09999999785,"duration":243.89999999999418,"noteNumber":66,"velocity":100,"programNumber":30},{"time":236582.99999999785,"duration":243.89999999999418,"noteNumber":69,"velocity":100,"programNumber":30},{"time":236826.89999999784,"duration":243.89999999999418,"noteNumber":60,"velocity":100,"programNumber":30},{"time":237070.79999999783,"duration":487.79999999998836,"noteNumber":59,"velocity":100,"programNumber":30},{"time":237558.59999999782,"duration":487.79999999998836,"noteNumber":66,"velocity":100,"programNumber":30},{"time":237802.49999999782,"duration":487.79999999998836,"noteNumber":54,"velocity":127,"programNumber":30},{"time":238290.2999999978,"duration":243.89999999999418,"noteNumber":66,"velocity":100,"programNumber":30},{"time":238534.1999999978,"duration":243.89999999999418,"noteNumber":69,"velocity":100,"programNumber":30},{"time":238778.0999999978,"duration":243.89999999999418,"noteNumber":60,"velocity":100,"programNumber":30},{"time":239021.9999999978,"duration":487.79999999998836,"noteNumber":59,"velocity":100,"programNumber":30},{"time":239509.79999999778,"duration":243.89999999999418,"noteNumber":66,"velocity":100,"programNumber":30},{"time":239753.69999999777,"duration":487.79999999998836,"noteNumber":54,"velocity":127,"programNumber":30},{"time":240241.49999999776,"duration":243.89999999999418,"noteNumber":66,"velocity":100,"programNumber":30},{"time":240485.39999999775,"duration":243.89999999999418,"noteNumber":69,"velocity":100,"programNumber":30},{"time":240729.29999999775,"duration":243.89999999999418,"noteNumber":60,"velocity":100,"programNumber":30},{"time":240973.19999999774,"duration":487.79999999998836,"noteNumber":59,"velocity":100,"programNumber":30},{"time":241460.99999999773,"duration":243.89999999999418,"noteNumber":66,"velocity":100,"programNumber":30},{"time":241704.89999999772,"duration":487.79999999998836,"noteNumber":54,"velocity":127,"programNumber":30},{"time":242192.6999999977,"duration":243.89999999999418,"noteNumber":66,"velocity":100,"programNumber":30},{"time":242436.5999999977,"duration":243.89999999999418,"noteNumber":69,"velocity":100,"programNumber":30},{"time":242680.4999999977,"duration":243.89999999999418,"noteNumber":60,"velocity":100,"programNumber":30},{"time":242924.3999999977,"duration":487.79999999998836,"noteNumber":59,"velocity":100,"programNumber":30},{"time":243412.19999999768,"duration":243.89999999999418,"noteNumber":66,"velocity":100,"programNumber":30},{"time":243656.09999999768,"duration":487.79999999998836,"noteNumber":54,"velocity":127,"programNumber":30},{"time":244143.89999999767,"duration":243.89999999999418,"noteNumber":66,"velocity":100,"programNumber":30},{"time":244387.79999999766,"duration":243.89999999999418,"noteNumber":69,"velocity":100,"programNumber":30},{"time":244631.69999999765,"duration":243.89999999999418,"noteNumber":60,"velocity":100,"programNumber":30},{"time":244875.59999999765,"duration":487.79999999998836,"noteNumber":59,"velocity":100,"programNumber":30},{"time":245363.39999999764,"duration":487.79999999998836,"noteNumber":66,"velocity":100,"programNumber":30},{"time":245851.19999999763,"duration":487.79999999998836,"noteNumber":61,"velocity":100,"programNumber":30},{"time":245851.19999999763,"duration":487.79999999998836,"noteNumber":54,"velocity":100,"programNumber":30},{"time":246338.9999999976,"duration":243.89999999999418,"noteNumber":61,"velocity":100,"programNumber":30},{"time":246582.8999999976,"duration":243.89999999999418,"noteNumber":60,"velocity":100,"programNumber":30},{"time":246826.7999999976,"duration":731.7000000000116,"noteNumber":59,"velocity":100,"programNumber":30},{"time":246826.7999999976,"duration":731.7000000000116,"noteNumber":66,"velocity":100,"programNumber":30},{"time":247558.4999999976,"duration":731.7000000000116,"noteNumber":54,"velocity":100,"programNumber":30},{"time":247558.4999999976,"duration":731.7000000000116,"noteNumber":61,"velocity":100,"programNumber":30},{"time":248290.19999999763,"duration":243.89999999999418,"noteNumber":61,"velocity":100,"programNumber":30},{"time":248534.09999999762,"duration":243.89999999999418,"noteNumber":60,"velocity":100,"programNumber":30},{"time":248777.9999999976,"duration":731.7000000000116,"noteNumber":59,"velocity":100,"programNumber":30},{"time":248777.9999999976,"duration":731.7000000000116,"noteNumber":66,"velocity":100,"programNumber":30},{"time":249509.69999999763,"duration":731.7000000000116,"noteNumber":54,"velocity":100,"programNumber":30},{"time":249509.69999999763,"duration":731.7000000000116,"noteNumber":61,"velocity":100,"programNumber":30},{"time":250241.39999999764,"duration":243.89999999999418,"noteNumber":61,"velocity":100,"programNumber":30},{"time":250485.29999999763,"duration":243.89999999999418,"noteNumber":60,"velocity":100,"programNumber":30},{"time":250729.19999999763,"duration":731.7000000000116,"noteNumber":59,"velocity":100,"programNumber":30},{"time":250729.19999999763,"duration":731.7000000000116,"noteNumber":66,"velocity":100,"programNumber":30},{"time":251460.89999999764,"duration":2195.100000000006,"noteNumber":52,"velocity":100,"programNumber":30},{"time":251460.89999999764,"duration":2195.100000000006,"noteNumber":59,"velocity":100,"programNumber":30},{"time":254143.79999999763,"duration":243.89999999999418,"noteNumber":61,"velocity":100,"programNumber":30},{"time":253655.99999999764,"duration":731.6999999999825,"noteNumber":54,"velocity":100,"programNumber":30},{"time":254387.69999999763,"duration":243.89999999999418,"noteNumber":60,"velocity":100,"programNumber":30},{"time":254631.59999999762,"duration":731.7000000000116,"noteNumber":59,"velocity":100,"programNumber":30},{"time":254631.59999999762,"duration":731.7000000000116,"noteNumber":66,"velocity":100,"programNumber":30},{"time":255363.29999999763,"duration":1580.2687499999884,"noteNumber":59,"velocity":100,"programNumber":30},{"time":255363.29999999763,"duration":1707.2999999999884,"noteNumber":52,"velocity":100,"programNumber":30},{"time":257070.59999999762,"duration":243.89999999999418,"noteNumber":52,"velocity":100,"programNumber":30},{"time":257314.4999999976,"duration":243.89999999999418,"noteNumber":52,"velocity":100,"programNumber":30},{"time":257558.3999999976,"duration":487.79999999998836,"noteNumber":61,"velocity":100,"programNumber":30},{"time":257558.3999999976,"duration":487.79999999998836,"noteNumber":54,"velocity":100,"programNumber":30},{"time":258046.1999999976,"duration":243.89999999999418,"noteNumber":61,"velocity":100,"programNumber":30},{"time":258290.0999999976,"duration":243.89999999999418,"noteNumber":60,"velocity":100,"programNumber":30},{"time":258533.99999999758,"duration":731.7000000000116,"noteNumber":59,"velocity":100,"programNumber":30},{"time":258533.99999999758,"duration":731.7000000000116,"noteNumber":66,"velocity":100,"programNumber":30},{"time":259265.6999999976,"duration":731.7000000000116,"noteNumber":54,"velocity":100,"programNumber":30},{"time":259265.6999999976,"duration":731.7000000000116,"noteNumber":61,"velocity":100,"programNumber":30},{"time":259997.3999999976,"duration":243.89999999999418,"noteNumber":61,"velocity":100,"programNumber":30},{"time":260241.2999999976,"duration":243.89999999999418,"noteNumber":60,"velocity":100,"programNumber":30},{"time":260485.1999999976,"duration":731.7000000000116,"noteNumber":59,"velocity":100,"programNumber":30},{"time":260485.1999999976,"duration":731.7000000000116,"noteNumber":66,"velocity":100,"programNumber":30},{"time":261216.8999999976,"duration":731.7000000000116,"noteNumber":54,"velocity":100,"programNumber":30},{"time":261216.8999999976,"duration":731.7000000000116,"noteNumber":61,"velocity":100,"programNumber":30},{"time":261948.59999999762,"duration":243.89999999999418,"noteNumber":61,"velocity":100,"programNumber":30},{"time":262192.4999999976,"duration":243.90000000002328,"noteNumber":60,"velocity":100,"programNumber":30},{"time":262436.39999999764,"duration":731.7000000000116,"noteNumber":59,"velocity":100,"programNumber":30},{"time":262436.39999999764,"duration":731.7000000000116,"noteNumber":66,"velocity":100,"programNumber":30},{"time":263168.09999999765,"duration":2195.0999999999767,"noteNumber":52,"velocity":100,"programNumber":30},{"time":263168.09999999765,"duration":2195.0999999999767,"noteNumber":59,"velocity":100,"programNumber":30},{"time":265363.1999999976,"duration":487.79999999998836,"noteNumber":54,"velocity":100,"programNumber":30},{"time":265363.1999999976,"duration":487.79999999998836,"noteNumber":61,"velocity":100,"programNumber":30},{"time":265850.9999999976,"duration":243.90000000002328,"noteNumber":61,"velocity":100,"programNumber":30},{"time":266094.89999999764,"duration":243.90000000002328,"noteNumber":60,"velocity":100,"programNumber":30},{"time":266338.79999999766,"duration":731.7000000000116,"noteNumber":59,"velocity":100,"programNumber":30},{"time":266338.79999999766,"duration":731.7000000000116,"noteNumber":66,"velocity":100,"programNumber":30},{"time":267070.4999999977,"duration":2195.0999999999767,"noteNumber":52,"velocity":100,"programNumber":30},{"time":267070.4999999977,"duration":2195.0999999999767,"noteNumber":59,"velocity":100,"programNumber":30},{"time":269265.59999999765,"duration":243.90000000002328,"noteNumber":62,"velocity":100,"programNumber":30},{"time":269265.59999999765,"duration":243.90000000002328,"noteNumber":55,"velocity":100,"programNumber":30},{"time":269509.4999999977,"duration":243.90000000002328,"noteNumber":52,"velocity":100,"programNumber":30},{"time":269753.3999999977,"duration":243.90000000002328,"noteNumber":54,"velocity":100,"programNumber":30},{"time":269753.3999999977,"duration":243.90000000002328,"noteNumber":61,"velocity":100,"programNumber":30},{"time":269997.2999999977,"duration":243.90000000002328,"noteNumber":52,"velocity":100,"programNumber":30},{"time":270241.19999999774,"duration":243.90000000002328,"noteNumber":61,"velocity":100,"programNumber":30},{"time":270241.19999999774,"duration":243.90000000002328,"noteNumber":54,"velocity":100,"programNumber":30},{"time":270485.09999999776,"duration":243.90000000002328,"noteNumber":55,"velocity":100,"programNumber":30},{"time":270485.09999999776,"duration":243.90000000002328,"noteNumber":62,"velocity":100,"programNumber":30},{"time":270728.9999999978,"duration":243.90000000002328,"noteNumber":55,"velocity":100,"programNumber":30},{"time":270728.9999999978,"duration":243.90000000002328,"noteNumber":62,"velocity":100,"programNumber":30},{"time":270972.8999999978,"duration":1951.2000000000116,"noteNumber":52,"velocity":127,"programNumber":30},{"time":270972.8999999978,"duration":1951.2000000000116,"noteNumber":59,"velocity":99,"programNumber":30},{"time":272924.0999999978,"duration":487.79999999998836,"noteNumber":52,"velocity":100,"programNumber":30},{"time":272924.0999999978,"duration":487.79999999998836,"noteNumber":59,"velocity":100,"programNumber":30},{"time":273411.8999999978,"duration":243.90000000002328,"noteNumber":52,"velocity":100,"programNumber":30},{"time":273411.8999999978,"duration":243.90000000002328,"noteNumber":59,"velocity":100,"programNumber":30},{"time":273655.79999999783,"duration":243.90000000002328,"noteNumber":64,"velocity":100,"programNumber":30},{"time":273899.69999999786,"duration":243.90000000002328,"noteNumber":58,"velocity":100,"programNumber":30},{"time":274143.5999999979,"duration":487.79999999998836,"noteNumber":57,"velocity":100,"programNumber":30},{"time":274631.39999999787,"duration":243.90000000002328,"noteNumber":52,"velocity":100,"programNumber":30},{"time":274875.2999999979,"duration":487.79999999998836,"noteNumber":52,"velocity":100,"programNumber":30},{"time":274875.2999999979,"duration":487.79999999998836,"noteNumber":59,"velocity":100,"programNumber":30},{"time":275363.0999999979,"duration":243.90000000002328,"noteNumber":52,"velocity":100,"programNumber":30},{"time":275363.0999999979,"duration":243.90000000002328,"noteNumber":59,"velocity":100,"programNumber":30},{"time":275606.9999999979,"duration":243.90000000002328,"noteNumber":64,"velocity":100,"programNumber":30},{"time":275850.8999999979,"duration":243.90000000002328,"noteNumber":58,"velocity":100,"programNumber":30},{"time":276094.79999999795,"duration":487.79999999998836,"noteNumber":57,"velocity":100,"programNumber":30},{"time":276582.59999999794,"duration":243.90000000002328,"noteNumber":52,"velocity":100,"programNumber":30},{"time":276826.49999999796,"duration":487.79999999998836,"noteNumber":52,"velocity":100,"programNumber":30},{"time":276826.49999999796,"duration":487.79999999998836,"noteNumber":59,"velocity":100,"programNumber":30},{"time":277314.29999999795,"duration":243.90000000002328,"noteNumber":52,"velocity":100,"programNumber":30},{"time":277314.29999999795,"duration":243.90000000002328,"noteNumber":59,"velocity":100,"programNumber":30},{"time":277558.199999998,"duration":243.90000000002328,"noteNumber":64,"velocity":100,"programNumber":30},{"time":277802.099999998,"duration":243.90000000002328,"noteNumber":58,"velocity":100,"programNumber":30},{"time":278045.999999998,"duration":487.79999999998836,"noteNumber":57,"velocity":100,"programNumber":30},{"time":278533.799999998,"duration":243.90000000002328,"noteNumber":52,"velocity":100,"programNumber":30},{"time":278777.69999999803,"duration":487.79999999998836,"noteNumber":52,"velocity":100,"programNumber":30},{"time":278777.69999999803,"duration":487.79999999998836,"noteNumber":59,"velocity":100,"programNumber":30},{"time":279265.499999998,"duration":243.90000000002328,"noteNumber":52,"velocity":100,"programNumber":30},{"time":279265.499999998,"duration":243.90000000002328,"noteNumber":59,"velocity":100,"programNumber":30},{"time":279509.39999999804,"duration":243.90000000002328,"noteNumber":64,"velocity":100,"programNumber":30},{"time":279753.29999999807,"duration":243.90000000002328,"noteNumber":58,"velocity":100,"programNumber":30},{"time":279997.1999999981,"duration":487.79999999998836,"noteNumber":57,"velocity":100,"programNumber":30},{"time":280484.9999999981,"duration":243.90000000002328,"noteNumber":52,"velocity":100,"programNumber":30},{"time":280728.8999999981,"duration":487.79999999998836,"noteNumber":52,"velocity":100,"programNumber":30},{"time":280728.8999999981,"duration":487.79999999998836,"noteNumber":59,"velocity":100,"programNumber":30},{"time":281216.6999999981,"duration":243.90000000002328,"noteNumber":52,"velocity":100,"programNumber":30},{"time":281216.6999999981,"duration":243.90000000002328,"noteNumber":59,"velocity":100,"programNumber":30},{"time":281460.5999999981,"duration":243.90000000002328,"noteNumber":64,"velocity":100,"programNumber":30},{"time":281704.49999999814,"duration":243.90000000002328,"noteNumber":58,"velocity":100,"programNumber":30},{"time":281948.39999999816,"duration":487.79999999998836,"noteNumber":57,"velocity":100,"programNumber":30},{"time":282436.19999999815,"duration":243.90000000002328,"noteNumber":52,"velocity":100,"programNumber":30},{"time":282680.0999999982,"duration":487.79999999998836,"noteNumber":52,"velocity":100,"programNumber":30},{"time":282680.0999999982,"duration":487.79999999998836,"noteNumber":59,"velocity":100,"programNumber":30},{"time":283167.89999999816,"duration":243.90000000002328,"noteNumber":52,"velocity":100,"programNumber":30},{"time":283167.89999999816,"duration":243.90000000002328,"noteNumber":59,"velocity":100,"programNumber":30},{"time":283411.7999999982,"duration":243.90000000002328,"noteNumber":64,"velocity":100,"programNumber":30},{"time":283655.6999999982,"duration":243.90000000002328,"noteNumber":58,"velocity":100,"programNumber":30},{"time":283899.59999999823,"duration":487.79999999998836,"noteNumber":57,"velocity":100,"programNumber":30},{"time":284387.3999999982,"duration":243.90000000002328,"noteNumber":52,"velocity":100,"programNumber":30},{"time":284631.29999999824,"duration":487.79999999998836,"noteNumber":52,"velocity":100,"programNumber":30},{"time":284631.29999999824,"duration":487.79999999998836,"noteNumber":59,"velocity":100,"programNumber":30},{"time":285119.09999999823,"duration":243.90000000002328,"noteNumber":52,"velocity":100,"programNumber":30},{"time":285119.09999999823,"duration":243.90000000002328,"noteNumber":59,"velocity":100,"programNumber":30},{"time":285362.99999999825,"duration":243.90000000002328,"noteNumber":64,"velocity":100,"programNumber":30},{"time":285606.8999999983,"duration":243.90000000002328,"noteNumber":58,"velocity":100,"programNumber":30},{"time":285850.7999999983,"duration":487.79999999998836,"noteNumber":57,"velocity":100,"programNumber":30},{"time":286338.5999999983,"duration":243.90000000002328,"noteNumber":52,"velocity":100,"programNumber":30},{"time":286582.4999999983,"duration":487.80000000004657,"noteNumber":55,"velocity":100,"programNumber":30},{"time":286582.4999999983,"duration":487.80000000004657,"noteNumber":62,"velocity":100,"programNumber":30},{"time":287070.29999999836,"duration":243.90000000002328,"noteNumber":52,"velocity":100,"programNumber":27},{"time":287314.1999999984,"duration":243.90000000002328,"noteNumber":54,"velocity":100,"programNumber":27},{"time":287314.1999999984,"duration":243.90000000002328,"noteNumber":61,"velocity":100,"programNumber":27},{"time":287558.0999999984,"duration":243.90000000002328,"noteNumber":52,"velocity":100,"programNumber":27},{"time":287801.9999999984,"duration":243.90000000002328,"noteNumber":54,"velocity":100,"programNumber":27},{"time":287801.9999999984,"duration":243.90000000002328,"noteNumber":61,"velocity":100,"programNumber":27},{"time":288045.89999999845,"duration":243.90000000002328,"noteNumber":55,"velocity":100,"programNumber":27},{"time":288045.89999999845,"duration":243.90000000002328,"noteNumber":62,"velocity":100,"programNumber":27},{"time":288289.7999999985,"duration":243.90000000002328,"noteNumber":54,"velocity":100,"programNumber":27},{"time":288289.7999999985,"duration":243.90000000002328,"noteNumber":61,"velocity":100,"programNumber":27},{"time":288533.6999999985,"duration":487.79999999998836,"noteNumber":40,"velocity":100,"programNumber":27},{"time":289021.4999999985,"duration":0,"noteNumber":52,"velocity":100,"programNumber":27},{"time":288533.6999999985,"duration":487.79999999998836,"noteNumber":59,"velocity":100,"programNumber":27},{"time":289021.4999999985,"duration":243.90000000002328,"noteNumber":52,"velocity":100,"programNumber":27},{"time":289265.3999999985,"duration":243.90000000002328,"noteNumber":55,"velocity":100,"programNumber":27},{"time":289265.3999999985,"duration":243.90000000002328,"noteNumber":64,"velocity":100,"programNumber":27},{"time":289509.29999999853,"duration":243.90000000002328,"noteNumber":46,"velocity":100,"programNumber":27},{"time":289509.29999999853,"duration":243.90000000002328,"noteNumber":58,"velocity":100,"programNumber":27},{"time":289753.19999999856,"duration":243.90000000002328,"noteNumber":57,"velocity":100,"programNumber":27},{"time":289753.19999999856,"duration":487.80000000004657,"noteNumber":45,"velocity":100,"programNumber":27},{"time":290240.9999999986,"duration":0,"noteNumber":52,"velocity":100,"programNumber":27},{"time":290240.9999999986,"duration":243.90000000002328,"noteNumber":52,"velocity":100,"programNumber":27},{"time":290484.8999999986,"duration":243.90000000002328,"noteNumber":53,"velocity":100,"programNumber":27},{"time":290484.8999999986,"duration":243.90000000002328,"noteNumber":60,"velocity":100,"programNumber":27},{"time":290484.8999999986,"duration":487.80000000004657,"noteNumber":40,"velocity":100,"programNumber":27},{"time":290972.6999999987,"duration":0,"noteNumber":52,"velocity":100,"programNumber":27},{"time":290972.6999999987,"duration":243.90000000002328,"noteNumber":52,"velocity":100,"programNumber":27},{"time":291216.5999999987,"duration":243.90000000002328,"noteNumber":55,"velocity":100,"programNumber":27},{"time":291216.5999999987,"duration":243.90000000002328,"noteNumber":64,"velocity":100,"programNumber":27},{"time":291460.4999999987,"duration":243.90000000002328,"noteNumber":46,"velocity":100,"programNumber":27},{"time":291460.4999999987,"duration":243.90000000002328,"noteNumber":58,"velocity":100,"programNumber":27},{"time":291704.39999999874,"duration":243.90000000002328,"noteNumber":57,"velocity":100,"programNumber":27},{"time":291704.39999999874,"duration":487.80000000004657,"noteNumber":45,"velocity":100,"programNumber":27},{"time":292192.1999999988,"duration":0,"noteNumber":52,"velocity":100,"programNumber":27},{"time":292192.1999999988,"duration":243.90000000002328,"noteNumber":52,"velocity":100,"programNumber":27},{"time":292436.0999999988,"duration":243.90000000002328,"noteNumber":53,"velocity":100,"programNumber":27},{"time":292436.0999999988,"duration":243.90000000002328,"noteNumber":60,"velocity":100,"programNumber":27},{"time":292436.0999999988,"duration":487.80000000004657,"noteNumber":40,"velocity":100,"programNumber":27},{"time":292923.89999999886,"duration":0,"noteNumber":52,"velocity":100,"programNumber":27},{"time":292923.89999999886,"duration":243.90000000002328,"noteNumber":52,"velocity":100,"programNumber":27},{"time":293167.7999999989,"duration":243.90000000002328,"noteNumber":55,"velocity":100,"programNumber":27},{"time":293167.7999999989,"duration":243.90000000002328,"noteNumber":64,"velocity":100,"programNumber":27},{"time":293411.6999999989,"duration":243.90000000002328,"noteNumber":46,"velocity":100,"programNumber":27},{"time":293411.6999999989,"duration":243.90000000002328,"noteNumber":58,"velocity":100,"programNumber":27},{"time":293655.5999999989,"duration":243.90000000002328,"noteNumber":57,"velocity":100,"programNumber":27},{"time":293655.5999999989,"duration":487.80000000004657,"noteNumber":45,"velocity":100,"programNumber":27},{"time":294143.399999999,"duration":0,"noteNumber":52,"velocity":100,"programNumber":27},{"time":294143.399999999,"duration":243.90000000002328,"noteNumber":52,"velocity":100,"programNumber":27},{"time":294387.299999999,"duration":243.90000000002328,"noteNumber":53,"velocity":100,"programNumber":27},{"time":294387.299999999,"duration":243.90000000002328,"noteNumber":60,"velocity":100,"programNumber":27},{"time":294387.299999999,"duration":487.80000000004657,"noteNumber":40,"velocity":100,"programNumber":27},{"time":294875.09999999905,"duration":0,"noteNumber":52,"velocity":100,"programNumber":27},{"time":294875.09999999905,"duration":243.90000000002328,"noteNumber":52,"velocity":100,"programNumber":27},{"time":295118.99999999907,"duration":243.90000000002328,"noteNumber":55,"velocity":100,"programNumber":27},{"time":295118.99999999907,"duration":243.90000000002328,"noteNumber":64,"velocity":100,"programNumber":27},{"time":295362.8999999991,"duration":243.90000000002328,"noteNumber":46,"velocity":100,"programNumber":27},{"time":295362.8999999991,"duration":243.90000000002328,"noteNumber":58,"velocity":100,"programNumber":27},{"time":295606.7999999991,"duration":243.90000000002328,"noteNumber":57,"velocity":100,"programNumber":27},{"time":295606.7999999991,"duration":487.80000000004657,"noteNumber":45,"velocity":100,"programNumber":27},{"time":296094.59999999916,"duration":0,"noteNumber":52,"velocity":100,"programNumber":27},{"time":296094.59999999916,"duration":243.90000000002328,"noteNumber":52,"velocity":100,"programNumber":27},{"time":296338.4999999992,"duration":243.90000000002328,"noteNumber":53,"velocity":100,"programNumber":27},{"time":296338.4999999992,"duration":243.90000000002328,"noteNumber":60,"velocity":100,"programNumber":27},{"time":296338.4999999992,"duration":487.80000000004657,"noteNumber":40,"velocity":100,"programNumber":27},{"time":296826.29999999923,"duration":0,"noteNumber":52,"velocity":100,"programNumber":27},{"time":296826.29999999923,"duration":243.90000000002328,"noteNumber":52,"velocity":100,"programNumber":27},{"time":297070.19999999925,"duration":243.90000000002328,"noteNumber":55,"velocity":100,"programNumber":27},{"time":297070.19999999925,"duration":243.90000000002328,"noteNumber":64,"velocity":100,"programNumber":27},{"time":297314.0999999993,"duration":243.90000000002328,"noteNumber":46,"velocity":100,"programNumber":27},{"time":297314.0999999993,"duration":243.90000000002328,"noteNumber":58,"velocity":100,"programNumber":27},{"time":297557.9999999993,"duration":243.90000000002328,"noteNumber":52,"velocity":100,"programNumber":27},{"time":297557.9999999993,"duration":487.80000000004657,"noteNumber":45,"velocity":100,"programNumber":27},{"time":298045.79999999935,"duration":0,"noteNumber":52,"velocity":100,"programNumber":27},{"time":298045.79999999935,"duration":243.90000000002328,"noteNumber":52,"velocity":100,"programNumber":27},{"time":298289.6999999994,"duration":243.90000000002328,"noteNumber":53,"velocity":100,"programNumber":27},{"time":298289.6999999994,"duration":243.90000000002328,"noteNumber":60,"velocity":100,"programNumber":27},{"time":298289.6999999994,"duration":487.80000000004657,"noteNumber":40,"velocity":100,"programNumber":27},{"time":298777.4999999994,"duration":0,"noteNumber":52,"velocity":100,"programNumber":27},{"time":298777.4999999994,"duration":243.90000000002328,"noteNumber":52,"velocity":100,"programNumber":27},{"time":299021.39999999944,"duration":243.90000000002328,"noteNumber":55,"velocity":100,"programNumber":27},{"time":299021.39999999944,"duration":243.90000000002328,"noteNumber":64,"velocity":100,"programNumber":27},{"time":299265.29999999946,"duration":243.90000000002328,"noteNumber":46,"velocity":100,"programNumber":27},{"time":299265.29999999946,"duration":243.90000000002328,"noteNumber":58,"velocity":100,"programNumber":27},{"time":299509.1999999995,"duration":243.90000000002328,"noteNumber":52,"velocity":100,"programNumber":27},{"time":299509.1999999995,"duration":487.80000000004657,"noteNumber":45,"velocity":100,"programNumber":27},{"time":299996.99999999953,"duration":0,"noteNumber":52,"velocity":100,"programNumber":27},{"time":299996.99999999953,"duration":243.90000000002328,"noteNumber":52,"velocity":100,"programNumber":27},{"time":300240.89999999956,"duration":243.90000000002328,"noteNumber":53,"velocity":100,"programNumber":27},{"time":300240.89999999956,"duration":243.90000000002328,"noteNumber":60,"velocity":100,"programNumber":27},{"time":300240.89999999956,"duration":487.80000000004657,"noteNumber":40,"velocity":100,"programNumber":27},{"time":300728.6999999996,"duration":0,"noteNumber":52,"velocity":100,"programNumber":27},{"time":300728.6999999996,"duration":243.90000000002328,"noteNumber":52,"velocity":100,"programNumber":27},{"time":300972.5999999996,"duration":243.90000000002328,"noteNumber":55,"velocity":100,"programNumber":27},{"time":300972.5999999996,"duration":243.90000000002328,"noteNumber":64,"velocity":100,"programNumber":27},{"time":301216.49999999965,"duration":243.90000000002328,"noteNumber":46,"velocity":100,"programNumber":27},{"time":301216.49999999965,"duration":243.90000000002328,"noteNumber":58,"velocity":100,"programNumber":27},{"time":301460.3999999997,"duration":243.90000000002328,"noteNumber":52,"velocity":100,"programNumber":27},{"time":301460.3999999997,"duration":487.80000000004657,"noteNumber":45,"velocity":100,"programNumber":27},{"time":301948.1999999997,"duration":0,"noteNumber":52,"velocity":100,"programNumber":27},{"time":301948.1999999997,"duration":243.90000000002328,"noteNumber":52,"velocity":100,"programNumber":27},{"time":302192.09999999974,"duration":243.90000000002328,"noteNumber":53,"velocity":100,"programNumber":27},{"time":302192.09999999974,"duration":243.90000000002328,"noteNumber":60,"velocity":100,"programNumber":27},{"time":302192.09999999974,"duration":487.80000000004657,"noteNumber":40,"velocity":100,"programNumber":27},{"time":302679.8999999998,"duration":0,"noteNumber":52,"velocity":100,"programNumber":27},{"time":302679.8999999998,"duration":243.90000000002328,"noteNumber":52,"velocity":100,"programNumber":27},{"time":302923.7999999998,"duration":243.90000000002328,"noteNumber":55,"velocity":100,"programNumber":27},{"time":302923.7999999998,"duration":243.90000000002328,"noteNumber":64,"velocity":100,"programNumber":27},{"time":303167.69999999984,"duration":243.90000000002328,"noteNumber":46,"velocity":100,"programNumber":27},{"time":303167.69999999984,"duration":243.90000000002328,"noteNumber":58,"velocity":100,"programNumber":27},{"time":303411.59999999986,"duration":243.90000000002328,"noteNumber":52,"velocity":100,"programNumber":27},{"time":303411.59999999986,"duration":487.80000000004657,"noteNumber":45,"velocity":100,"programNumber":27},{"time":303899.3999999999,"duration":0,"noteNumber":52,"velocity":100,"programNumber":27},{"time":303899.3999999999,"duration":243.90000000002328,"noteNumber":52,"velocity":100,"programNumber":27},{"time":304143.29999999993,"duration":243.90000000002328,"noteNumber":53,"velocity":100,"programNumber":27},{"time":304143.29999999993,"duration":243.90000000002328,"noteNumber":60,"velocity":100,"programNumber":27},{"time":304143.29999999993,"duration":487.80000000004657,"noteNumber":40,"velocity":100,"programNumber":27},{"time":304631.1,"duration":0,"noteNumber":52,"velocity":100,"programNumber":27},{"time":304631.1,"duration":243.90000000002328,"noteNumber":52,"velocity":100,"programNumber":27},{"time":304875,"duration":243.90000000002328,"noteNumber":55,"velocity":100,"programNumber":27},{"time":304875,"duration":243.90000000002328,"noteNumber":64,"velocity":100,"programNumber":27},{"time":305118.9,"duration":243.90000000002328,"noteNumber":46,"velocity":100,"programNumber":27},{"time":305118.9,"duration":243.90000000002328,"noteNumber":52,"velocity":100,"programNumber":27},{"time":305362.80000000005,"duration":243.90000000002328,"noteNumber":52,"velocity":100,"programNumber":27},{"time":305362.80000000005,"duration":487.80000000004657,"noteNumber":45,"velocity":100,"programNumber":27},{"time":305850.6000000001,"duration":0,"noteNumber":52,"velocity":100,"programNumber":27},{"time":305850.6000000001,"duration":243.90000000002328,"noteNumber":52,"velocity":100,"programNumber":27},{"time":306094.5000000001,"duration":243.90000000002328,"noteNumber":52,"velocity":100,"programNumber":27},{"time":306094.5000000001,"duration":487.80000000004657,"noteNumber":40,"velocity":100,"programNumber":27},{"time":306582.30000000016,"duration":0,"noteNumber":52,"velocity":100,"programNumber":27},{"time":306582.30000000016,"duration":243.90000000002328,"noteNumber":52,"velocity":100,"programNumber":27},{"time":306826.2000000002,"duration":243.90000000002328,"noteNumber":55,"velocity":100,"programNumber":27},{"time":306826.2000000002,"duration":243.90000000002328,"noteNumber":64,"velocity":100,"programNumber":27},{"time":307070.1000000002,"duration":243.90000000002328,"noteNumber":46,"velocity":100,"programNumber":27},{"time":307070.1000000002,"duration":243.90000000002328,"noteNumber":52,"velocity":100,"programNumber":27},{"time":307314.00000000023,"duration":243.90000000002328,"noteNumber":52,"velocity":100,"programNumber":27},{"time":307314.00000000023,"duration":487.80000000004657,"noteNumber":45,"velocity":100,"programNumber":27},{"time":307801.8000000003,"duration":0,"noteNumber":52,"velocity":100,"programNumber":27},{"time":307801.8000000003,"duration":243.90000000002328,"noteNumber":52,"velocity":100,"programNumber":27},{"time":308045.7000000003,"duration":243.90000000002328,"noteNumber":52,"velocity":100,"programNumber":27},{"time":308045.7000000003,"duration":487.80000000004657,"noteNumber":40,"velocity":100,"programNumber":27},{"time":308533.50000000035,"duration":0,"noteNumber":52,"velocity":100,"programNumber":27},{"time":308533.50000000035,"duration":243.90000000002328,"noteNumber":52,"velocity":100,"programNumber":27},{"time":308777.4000000004,"duration":243.90000000002328,"noteNumber":55,"velocity":100,"programNumber":27},{"time":308777.4000000004,"duration":243.90000000002328,"noteNumber":64,"velocity":100,"programNumber":27},{"time":309021.3000000004,"duration":243.90000000002328,"noteNumber":46,"velocity":100,"programNumber":27},{"time":309021.3000000004,"duration":243.90000000002328,"noteNumber":52,"velocity":100,"programNumber":27},{"time":309265.2000000004,"duration":243.90000000002328,"noteNumber":52,"velocity":100,"programNumber":27},{"time":309265.2000000004,"duration":487.80000000004657,"noteNumber":45,"velocity":100,"programNumber":27},{"time":309753.00000000047,"duration":0,"noteNumber":52,"velocity":100,"programNumber":27},{"time":309753.00000000047,"duration":243.90000000002328,"noteNumber":52,"velocity":100,"programNumber":27},{"time":309996.9000000005,"duration":243.90000000002328,"noteNumber":52,"velocity":100,"programNumber":27},{"time":309996.9000000005,"duration":487.80000000004657,"noteNumber":40,"velocity":100,"programNumber":27},{"time":310484.70000000054,"duration":0,"noteNumber":52,"velocity":100,"programNumber":27},{"time":310484.70000000054,"duration":243.90000000002328,"noteNumber":52,"velocity":100,"programNumber":27},{"time":310728.60000000056,"duration":243.90000000002328,"noteNumber":55,"velocity":100,"programNumber":27},{"time":310728.60000000056,"duration":243.90000000002328,"noteNumber":64,"velocity":100,"programNumber":27},{"time":310972.5000000006,"duration":243.90000000002328,"noteNumber":46,"velocity":100,"programNumber":27},{"time":310972.5000000006,"duration":243.90000000002328,"noteNumber":52,"velocity":100,"programNumber":27},{"time":311216.4000000006,"duration":243.90000000002328,"noteNumber":52,"velocity":100,"programNumber":27},{"time":311216.4000000006,"duration":487.80000000004657,"noteNumber":45,"velocity":100,"programNumber":27},{"time":311704.20000000065,"duration":0,"noteNumber":52,"velocity":100,"programNumber":27},{"time":311704.20000000065,"duration":242.88374999997905,"noteNumber":52,"velocity":100,"programNumber":27},{"time":311948.1000000006,"duration":243.90000000002328,"noteNumber":52,"velocity":100,"programNumber":27},{"time":311948.1000000006,"duration":487.80000000004657,"noteNumber":40,"velocity":100,"programNumber":27},{"time":312435.90000000066,"duration":0,"noteNumber":52,"velocity":100,"programNumber":27},{"time":312435.90000000066,"duration":243.90000000002328,"noteNumber":52,"velocity":100,"programNumber":27},{"time":312679.8000000007,"duration":243.90000000002328,"noteNumber":55,"velocity":100,"programNumber":27},{"time":312679.8000000007,"duration":243.90000000002328,"noteNumber":64,"velocity":100,"programNumber":27},{"time":312923.7000000007,"duration":243.90000000002328,"noteNumber":46,"velocity":100,"programNumber":27},{"time":312923.7000000007,"duration":243.90000000002328,"noteNumber":52,"velocity":100,"programNumber":27},{"time":313167.60000000073,"duration":243.90000000002328,"noteNumber":52,"velocity":100,"programNumber":27},{"time":313167.60000000073,"duration":487.80000000004657,"noteNumber":45,"velocity":100,"programNumber":27},{"time":313655.4000000008,"duration":0,"noteNumber":52,"velocity":100,"programNumber":27},{"time":313655.4000000008,"duration":242.37562499998603,"noteNumber":52,"velocity":100,"programNumber":27},{"time":313899.30000000075,"duration":243.90000000002328,"noteNumber":52,"velocity":100,"programNumber":27},{"time":313899.30000000075,"duration":487.80000000004657,"noteNumber":40,"velocity":100,"programNumber":27},{"time":314387.1000000008,"duration":0,"noteNumber":52,"velocity":100,"programNumber":27},{"time":314387.1000000008,"duration":243.90000000002328,"noteNumber":52,"velocity":100,"programNumber":27},{"time":314631.0000000008,"duration":243.90000000002328,"noteNumber":55,"velocity":100,"programNumber":27},{"time":314631.0000000008,"duration":243.90000000002328,"noteNumber":64,"velocity":100,"programNumber":27},{"time":314874.90000000084,"duration":243.90000000002328,"noteNumber":46,"velocity":100,"programNumber":27},{"time":314874.90000000084,"duration":243.90000000002328,"noteNumber":52,"velocity":100,"programNumber":27},{"time":315118.80000000086,"duration":243.90000000002328,"noteNumber":52,"velocity":100,"programNumber":27},{"time":315118.80000000086,"duration":487.80000000004657,"noteNumber":45,"velocity":100,"programNumber":27},{"time":315606.6000000009,"duration":0,"noteNumber":52,"velocity":100,"programNumber":27},{"time":315606.6000000009,"duration":243.90000000002328,"noteNumber":52,"velocity":100,"programNumber":27},{"time":315850.50000000093,"duration":243.90000000002328,"noteNumber":52,"velocity":100,"programNumber":27},{"time":315850.50000000093,"duration":487.80000000004657,"noteNumber":40,"velocity":100,"programNumber":27},{"time":316338.300000001,"duration":0,"noteNumber":52,"velocity":95,"programNumber":27},{"time":316338.300000001,"duration":243.90000000002328,"noteNumber":52,"velocity":97,"programNumber":27},{"time":316582.200000001,"duration":243.90000000002328,"noteNumber":55,"velocity":94,"programNumber":27},{"time":316582.200000001,"duration":243.90000000002328,"noteNumber":64,"velocity":97,"programNumber":27},{"time":316826.100000001,"duration":243.90000000002328,"noteNumber":46,"velocity":92,"programNumber":27},{"time":316826.100000001,"duration":243.90000000002328,"noteNumber":52,"velocity":94,"programNumber":27},{"time":317070.00000000105,"duration":243.90000000002328,"noteNumber":52,"velocity":93,"programNumber":27},{"time":317070.00000000105,"duration":487.80000000004657,"noteNumber":45,"velocity":90,"programNumber":27},{"time":317557.8000000011,"duration":0,"noteNumber":52,"velocity":87,"programNumber":27},{"time":317557.8000000011,"duration":243.90000000002328,"noteNumber":52,"velocity":89,"programNumber":27},{"time":317801.7000000011,"duration":243.90000000002328,"noteNumber":52,"velocity":88,"programNumber":27},{"time":317801.7000000011,"duration":487.80000000004657,"noteNumber":40,"velocity":86,"programNumber":27},{"time":318289.50000000116,"duration":0,"noteNumber":52,"velocity":83,"programNumber":27},{"time":318289.50000000116,"duration":243.90000000002328,"noteNumber":52,"velocity":85,"programNumber":27},{"time":318533.4000000012,"duration":243.90000000002328,"noteNumber":55,"velocity":81,"programNumber":27},{"time":318533.4000000012,"duration":243.90000000002328,"noteNumber":64,"velocity":84,"programNumber":27},{"time":318777.3000000012,"duration":243.90000000002328,"noteNumber":46,"velocity":80,"programNumber":27},{"time":318777.3000000012,"duration":243.90000000002328,"noteNumber":52,"velocity":82,"programNumber":27},{"time":319021.20000000123,"duration":243.90000000002328,"noteNumber":52,"velocity":80,"programNumber":27},{"time":319021.20000000123,"duration":487.80000000004657,"noteNumber":45,"velocity":78,"programNumber":27},{"time":319509.0000000013,"duration":0,"noteNumber":52,"velocity":75,"programNumber":27},{"time":319509.0000000013,"duration":243.90000000002328,"noteNumber":52,"velocity":77,"programNumber":27},{"time":319752.9000000013,"duration":243.90000000002328,"noteNumber":52,"velocity":76,"programNumber":27},{"time":319752.9000000013,"duration":487.80000000004657,"noteNumber":40,"velocity":74,"programNumber":27},{"time":320240.70000000135,"duration":0,"noteNumber":52,"velocity":71,"programNumber":27},{"time":320240.70000000135,"duration":243.90000000002328,"noteNumber":52,"velocity":73,"programNumber":27},{"time":320484.6000000014,"duration":243.90000000002328,"noteNumber":55,"velocity":69,"programNumber":27},{"time":320484.6000000014,"duration":243.90000000002328,"noteNumber":64,"velocity":72,"programNumber":27},{"time":320728.5000000014,"duration":243.90000000002328,"noteNumber":46,"velocity":68,"programNumber":27},{"time":320728.5000000014,"duration":243.90000000002328,"noteNumber":52,"velocity":70,"programNumber":27},{"time":320972.4000000014,"duration":243.90000000002328,"noteNumber":52,"velocity":68,"programNumber":27},{"time":320972.4000000014,"duration":487.80000000004657,"noteNumber":45,"velocity":66,"programNumber":27},{"time":321460.20000000147,"duration":0,"noteNumber":52,"velocity":63,"programNumber":27},{"time":321460.20000000147,"duration":243.90000000002328,"noteNumber":52,"velocity":65,"programNumber":27},{"time":321704.1000000015,"duration":243.90000000002328,"noteNumber":52,"velocity":64,"programNumber":27},{"time":321704.1000000015,"duration":487.80000000004657,"noteNumber":40,"velocity":62,"programNumber":27},{"time":322191.90000000154,"duration":0,"noteNumber":52,"velocity":59,"programNumber":27},{"time":322191.90000000154,"duration":243.90000000002328,"noteNumber":52,"velocity":60,"programNumber":27},{"time":322435.80000000156,"duration":243.90000000002328,"noteNumber":55,"velocity":57,"programNumber":27},{"time":322435.80000000156,"duration":243.90000000002328,"noteNumber":64,"velocity":59,"programNumber":27},{"time":322679.7000000016,"duration":243.90000000002328,"noteNumber":46,"velocity":56,"programNumber":27},{"time":322679.7000000016,"duration":243.90000000002328,"noteNumber":52,"velocity":57,"programNumber":27},{"time":322923.6000000016,"duration":243.90000000002328,"noteNumber":52,"velocity":56,"programNumber":27},{"time":322923.6000000016,"duration":487.80000000004657,"noteNumber":45,"velocity":54,"programNumber":27},{"time":323411.40000000165,"duration":0,"noteNumber":52,"velocity":51,"programNumber":27},{"time":323411.40000000165,"duration":243.90000000002328,"noteNumber":52,"velocity":53,"programNumber":27},{"time":323655.3000000017,"duration":243.90000000002328,"noteNumber":52,"velocity":51,"programNumber":27},{"time":323655.3000000017,"duration":487.80000000004657,"noteNumber":40,"velocity":50,"programNumber":27},{"time":324143.1000000017,"duration":0,"noteNumber":52,"velocity":47,"programNumber":27},{"time":324143.1000000017,"duration":243.90000000002328,"noteNumber":52,"velocity":48,"programNumber":27},{"time":324387.00000000175,"duration":243.90000000002328,"noteNumber":55,"velocity":45,"programNumber":27},{"time":324387.00000000175,"duration":243.90000000002328,"noteNumber":64,"velocity":47,"programNumber":27},{"time":324630.90000000177,"duration":243.90000000002328,"noteNumber":46,"velocity":43,"programNumber":27},{"time":324630.90000000177,"duration":243.90000000002328,"noteNumber":52,"velocity":45,"programNumber":27},{"time":324874.8000000018,"duration":243.90000000002328,"noteNumber":52,"velocity":44,"programNumber":27},{"time":324874.8000000018,"duration":487.80000000004657,"noteNumber":45,"velocity":42,"programNumber":27},{"time":325362.60000000184,"duration":0,"noteNumber":52,"velocity":39,"programNumber":27},{"time":325362.60000000184,"duration":243.90000000002328,"noteNumber":52,"velocity":41,"programNumber":27},{"time":325606.50000000186,"duration":243.90000000002328,"noteNumber":52,"velocity":39,"programNumber":27},{"time":325606.50000000186,"duration":487.80000000004657,"noteNumber":40,"velocity":37,"programNumber":27},{"time":326094.3000000019,"duration":0,"noteNumber":52,"velocity":34,"programNumber":27},{"time":326094.3000000019,"duration":243.90000000002328,"noteNumber":52,"velocity":36,"programNumber":27},{"time":326338.20000000193,"duration":243.90000000002328,"noteNumber":55,"velocity":33,"programNumber":27},{"time":326338.20000000193,"duration":243.90000000002328,"noteNumber":64,"velocity":34,"programNumber":27},{"time":326582.10000000196,"duration":243.90000000002328,"noteNumber":46,"velocity":31,"programNumber":27},{"time":326582.10000000196,"duration":243.90000000002328,"noteNumber":52,"velocity":33,"programNumber":27},{"time":326826.000000002,"duration":243.90000000002328,"noteNumber":52,"velocity":32,"programNumber":27},{"time":326826.000000002,"duration":487.80000000004657,"noteNumber":45,"velocity":30,"programNumber":27},{"time":327313.800000002,"duration":0,"noteNumber":52,"velocity":27,"programNumber":27},{"time":327313.800000002,"duration":243.90000000002328,"noteNumber":52,"velocity":28,"programNumber":27},{"time":327557.70000000205,"duration":243.90000000002328,"noteNumber":52,"velocity":27,"programNumber":27},{"time":327557.70000000205,"duration":487.80000000004657,"noteNumber":40,"velocity":25,"programNumber":27},{"time":328045.5000000021,"duration":0,"noteNumber":52,"velocity":22,"programNumber":27},{"time":328045.5000000021,"duration":243.90000000002328,"noteNumber":52,"velocity":24,"programNumber":27},{"time":328289.4000000021,"duration":243.90000000002328,"noteNumber":55,"velocity":21,"programNumber":27},{"time":328289.4000000021,"duration":243.90000000002328,"noteNumber":64,"velocity":22,"programNumber":27},{"time":328533.30000000214,"duration":243.90000000002328,"noteNumber":46,"velocity":19,"programNumber":27},{"time":328533.30000000214,"duration":243.90000000002328,"noteNumber":52,"velocity":21,"programNumber":27},{"time":328777.20000000217,"duration":243.90000000002328,"noteNumber":52,"velocity":19,"programNumber":27},{"time":328777.20000000217,"duration":487.80000000004657,"noteNumber":45,"velocity":18,"programNumber":27},{"time":329265.0000000022,"duration":0,"noteNumber":52,"velocity":15,"programNumber":27},{"time":329265.0000000022,"duration":243.90000000002328,"noteNumber":52,"velocity":16,"programNumber":27},{"time":329508.90000000224,"duration":243.90000000002328,"noteNumber":52,"velocity":15,"programNumber":27},{"time":329508.90000000224,"duration":487.80000000004657,"noteNumber":40,"velocity":13,"programNumber":27},{"time":329996.7000000023,"duration":0,"noteNumber":52,"velocity":10,"programNumber":27},{"time":329996.7000000023,"duration":243.90000000002328,"noteNumber":52,"velocity":12,"programNumber":27},{"time":330240.6000000023,"duration":243.90000000002328,"noteNumber":55,"velocity":9,"programNumber":27},{"time":330240.6000000023,"duration":243.90000000002328,"noteNumber":64,"velocity":10,"programNumber":27},{"time":330484.5000000023,"duration":243.90000000002328,"noteNumber":46,"velocity":7,"programNumber":27},{"time":330484.5000000023,"duration":243.90000000002328,"noteNumber":52,"velocity":9,"programNumber":27},{"time":330728.40000000235,"duration":243.90000000002328,"noteNumber":52,"velocity":7,"programNumber":27},{"time":330728.40000000235,"duration":487.80000000004657,"noteNumber":45,"velocity":6,"programNumber":27},{"time":331216.2000000024,"duration":0,"noteNumber":52,"velocity":3,"programNumber":27},{"time":331216.2000000024,"duration":243.90000000002328,"noteNumber":52,"velocity":4,"programNumber":27},{"time":331460.1000000024,"duration":242.37562499998603,"noteNumber":52,"velocity":3,"programNumber":27},{"time":331460.1000000024,"duration":487.79999999998836,"noteNumber":40,"velocity":1,"programNumber":27}]]}