{"tracks":[[{"time":0,"duration":750,"noteNumber":40,"velocity":95,"programNumber":34},{"time":750,"duration":125,"noteNumber":40,"velocity":95,"programNumber":34},{"time":1000,"duration":125,"noteNumber":43,"velocity":95,"programNumber":34},{"time":1375,"duration":125,"noteNumber":40,"velocity":95,"programNumber":34},{"time":1750,"duration":250,"noteNumber":38,"velocity":95,"programNumber":34},{"time":2000,"duration":1000,"noteNumber":36,"velocity":95,"programNumber":34},{"time":3000,"duration":1000,"noteNumber":35,"velocity":95,"programNumber":34},{"time":4000,"duration":750,"noteNumber":40,"velocity":95,"programNumber":34},{"time":4750,"duration":125,"noteNumber":40,"velocity":95,"programNumber":34},{"time":5000,"duration":125,"noteNumber":43,"velocity":95,"programNumber":34},{"time":5375,"duration":125,"noteNumber":40,"velocity":95,"programNumber":34},{"time":5750,"duration":250,"noteNumber":38,"velocity":95,"programNumber":34},{"time":6000,"duration":1000,"noteNumber":36,"velocity":95,"programNumber":34},{"time":7000,"duration":1000,"noteNumber":35,"velocity":95,"programNumber":34},{"time":8000,"duration":750,"noteNumber":40,"velocity":95,"programNumber":34},{"time":8750,"duration":125,"noteNumber":40,"velocity":95,"programNumber":34},{"time":9000,"duration":125,"noteNumber":43,"velocity":95,"programNumber":34},{"time":9375,"duration":125,"noteNumber":40,"velocity":95,"programNumber":34},{"time":9750,"duration":250,"noteNumber":38,"velocity":95,"programNumber":34},{"time":10000,"duration":1000,"noteNumber":36,"velocity":95,"programNumber":34},{"time":11000,"duration":1000,"noteNumber":35,"velocity":95,"programNumber":34},{"time":12000,"duration":750,"noteNumber":40,"velocity":95,"programNumber":34},{"time":12750,"duration":125,"noteNumber":40,"velocity":95,"programNumber":34},{"time":13000,"duration":125,"noteNumber":43,"velocity":95,"programNumber":34},{"time":13375,"duration":125,"noteNumber":40,"velocity":95,"programNumber":34},{"time":13750,"duration":250,"noteNumber":38,"velocity":95,"programNumber":34},{"time":14000,"duration":1000,"noteNumber":36,"velocity":95,"programNumber":34},{"time":15000,"duration":1000,"noteNumber":35,"velocity":95,"programNumber":34},{"time":16000,"duration":750,"noteNumber":40,"velocity":95,"programNumber":34},{"time":16750,"duration":125,"noteNumber":40,"velocity":95,"programNumber":34},{"time":17000,"duration":125,"noteNumber":43,"velocity":95,"programNumber":34},{"time":17375,"duration":125,"noteNumber":40,"velocity":95,"programNumber":34},{"time":17750,"duration":250,"noteNumber":38,"velocity":95,"programNumber":34},{"time":18000,"duration":1000,"noteNumber":36,"velocity":95,"programNumber":34},{"time":19000,"duration":1000,"noteNumber":35,"velocity":95,"programNumber":34},{"time":20000,"duration":750,"noteNumber":40,"velocity":95,"programNumber":34},{"time":20750,"duration":125,"noteNumber":40,"velocity":95,"programNumber":34},{"time":21000,"duration":125,"noteNumber":43,"velocity":95,"programNumber":34},{"time":21375,"duration":125,"noteNumber":40,"velocity":95,"programNumber":34},{"time":21750,"duration":250,"noteNumber":38,"velocity":95,"programNumber":34},{"time":22000,"duration":1000,"noteNumber":36,"velocity":95,"programNumber":34},{"time":23000,"duration":1000,"noteNumber":35,"velocity":95,"programNumber":34},{"time":24000,"duration":750,"noteNumber":40,"velocity":95,"programNumber":34},{"time":24750,"duration":125,"noteNumber":40,"velocity":95,"programNumber":34},{"time":25000,"duration":125,"noteNumber":43,"velocity":95,"programNumber":34},{"time":25375,"duration":125,"noteNumber":40,"velocity":95,"programNumber":34},{"time":25750,"duration":250,"noteNumber":38,"velocity":95,"programNumber":34},{"time":26000,"duration":1000,"noteNumber":36,"velocity":95,"programNumber":34},{"time":27000,"duration":1000,"noteNumber":35,"velocity":95,"programNumber":34},{"time":28000,"duration":750,"noteNumber":40,"velocity":95,"programNumber":34},{"time":28750,"duration":125,"noteNumber":40,"velocity":95,"programNumber":34},{"time":29000,"duration":125,"noteNumber":43,"velocity":95,"programNumber":34},{"time":29375,"duration":125,"noteNumber":40,"velocity":95,"programNumber":34},{"time":29750,"duration":250,"noteNumber":38,"velocity":95,"programNumber":34},{"time":30000,"duration":1000,"noteNumber":36,"velocity":95,"programNumber":34},{"time":31000,"duration":1000,"noteNumber":35,"velocity":95,"programNumber":34},{"time":32000,"duration":750,"noteNumber":40,"velocity":95,"programNumber":34},{"time":32750,"duration":125,"noteNumber":40,"velocity":95,"programNumber":34},{"time":33000,"duration":125,"noteNumber":43,"velocity":95,"programNumber":34},{"time":33375,"duration":125,"noteNumber":40,"velocity":95,"programNumber":34},{"time":33750,"duration":250,"noteNumber":38,"velocity":95,"programNumber":34},{"time":34000,"duration":1000,"noteNumber":36,"velocity":95,"programNumber":34},{"time":35000,"duration":1000,"noteNumber":35,"velocity":95,"programNumber":34},{"time":36000,"duration":750,"noteNumber":40,"velocity":95,"programNumber":34},{"time":36750,"duration":125,"noteNumber":40,"velocity":95,"programNumber":34},{"time":37000,"duration":125,"noteNumber":43,"velocity":95,"programNumber":34},{"time":37375,"duration":125,"noteNumber":40,"velocity":95,"programNumber":34},{"time":37750,"duration":250,"noteNumber":38,"velocity":95,"programNumber":34},{"time":38000,"duration":1000,"noteNumber":36,"velocity":95,"programNumber":34},{"time":39000,"duration":1000,"noteNumber":35,"velocity":95,"programNumber":34},{"time":40000,"duration":750,"noteNumber":40,"velocity":95,"programNumber":34},{"time":40750,"duration":125,"noteNumber":40,"velocity":95,"programNumber":34},{"time":41000,"duration":125,"noteNumber":43,"velocity":95,"programNumber":34},{"time":41375,"duration":125,"noteNumber":40,"velocity":95,"programNumber":34},{"time":41750,"duration":250,"noteNumber":38,"velocity":95,"programNumber":34},{"time":42000,"duration":1000,"noteNumber":36,"velocity":95,"programNumber":34},{"time":43000,"duration":1000,"noteNumber":35,"velocity":95,"programNumber":34},{"time":44000,"duration":750,"noteNumber":40,"velocity":95,"programNumber":34},{"time":44750,"duration":125,"noteNumber":40,"velocity":95,"programNumber":34},{"time":45000,"duration":125,"noteNumber":43,"velocity":95,"programNumber":34},{"time":45375,"duration":125,"noteNumber":40,"velocity":95,"programNumber":34},{"time":45750,"duration":250,"noteNumber":38,"velocity":95,"programNumber":34},{"time":46000,"duration":1000,"noteNumber":36,"velocity":95,"programNumber":34},{"time":47000,"duration":1000,"noteNumber":35,"velocity":95,"programNumber":34},{"time":48000,"duration":250,"noteNumber":31,"velocity":95,"programNumber":34},{"time":48250,"duration":250,"noteNumber":31,"velocity":95,"programNumber":34},{"time":48500,"duration":250,"noteNumber":31,"velocity":95,"programNumber":34},{"time":48750,"duration":250,"noteNumber":31,"velocity":95,"programNumber":34},{"time":49000,"duration":250,"noteNumber":31,"velocity":95,"programNumber":34},{"time":49250,"duration":250,"noteNumber":31,"velocity":95,"programNumber":34},{"time":49500,"duration":250,"noteNumber":31,"velocity":95,"programNumber":34},{"time":49750,"duration":250,"noteNumber":31,"velocity":95,"programNumber":34},{"time":50000,"duration":250,"noteNumber":33,"velocity":95,"programNumber":34},{"time":50250,"duration":250,"noteNumber":33,"velocity":95,"programNumber":34},{"time":50500,"duration":250,"noteNumber":33,"velocity":95,"programNumber":34},{"time":50750,"duration":250,"noteNumber":33,"velocity":95,"programNumber":34},{"time":51000,"duration":250,"noteNumber":33,"velocity":95,"programNumber":34},{"time":51250,"duration":250,"noteNumber":33,"velocity":95,"programNumber":34},{"time":51500,"duration":250,"noteNumber":33,"velocity":95,"programNumber":34},{"time":51750,"duration":250,"noteNumber":33,"velocity":95,"programNumber":34},{"time":52000,"duration":750,"noteNumber":40,"velocity":95,"programNumber":34},{"time":52750,"duration":125,"noteNumber":40,"velocity":95,"programNumber":34},{"time":53000,"duration":125,"noteNumber":43,"velocity":95,"programNumber":34},{"time":53375,"duration":125,"noteNumber":40,"velocity":95,"programNumber":34},{"time":53750,"duration":250,"noteNumber":38,"velocity":95,"programNumber":34},{"time":54000,"duration":1000,"noteNumber":36,"velocity":95,"programNumber":34},{"time":55000,"duration":1000,"noteNumber":35,"velocity":95,"programNumber":34},{"time":56000,"duration":750,"noteNumber":40,"velocity":95,"programNumber":34},{"time":56750,"duration":125,"noteNumber":40,"velocity":95,"programNumber":34},{"time":57000,"duration":125,"noteNumber":43,"velocity":95,"programNumber":34},{"time":57375,"duration":125,"noteNumber":40,"velocity":95,"programNumber":34},{"time":57750,"duration":250,"noteNumber":38,"velocity":95,"programNumber":34},{"time":58000,"duration":375,"noteNumber":36,"velocity":95,"programNumber":34},{"time":58375,"duration":375,"noteNumber":38,"velocity":95,"programNumber":34},{"time":58750,"duration":250,"noteNumber":36,"velocity":95,"programNumber":34},{"time":59000,"duration":1000,"noteNumber":35,"velocity":95,"programNumber":34},{"time":60000,"duration":750,"noteNumber":40,"velocity":95,"programNumber":34},{"time":60750,"duration":125,"noteNumber":40,"velocity":95,"programNumber":34},{"time":61000,"duration":125,"noteNumber":43,"velocity":95,"programNumber":34},{"time":61375,"duration":125,"noteNumber":40,"velocity":95,"programNumber":34},{"time":61750,"duration":250,"noteNumber":38,"velocity":95,"programNumber":34},{"time":62000,"duration":1000,"noteNumber":36,"velocity":95,"programNumber":34},{"time":63000,"duration":1000,"noteNumber":35,"velocity":95,"programNumber":34},{"time":64000,"duration":750,"noteNumber":40,"velocity":95,"programNumber":34},{"time":64750,"duration":125,"noteNumber":40,"velocity":95,"programNumber":34},{"time":65000,"duration":125,"noteNumber":43,"velocity":95,"programNumber":34},{"time":65375,"duration":125,"noteNumber":40,"velocity":95,"programNumber":34},{"time":65750,"duration":250,"noteNumber":38,"velocity":95,"programNumber":34},{"time":66000,"duration":375,"noteNumber":36,"velocity":95,"programNumber":34},{"time":66375,"duration":375,"noteNumber":38,"velocity":95,"programNumber":34},{"time":66750,"duration":250,"noteNumber":36,"velocity":95,"programNumber":34},{"time":67000,"duration":1000,"noteNumber":35,"velocity":95,"programNumber":34},{"time":68000,"duration":250,"noteNumber":31,"velocity":95,"programNumber":34},{"time":68250,"duration":250,"noteNumber":31,"velocity":95,"programNumber":34},{"time":68500,"duration":250,"noteNumber":31,"velocity":95,"programNumber":34},{"time":68750,"duration":250,"noteNumber":31,"velocity":95,"programNumber":34},{"time":69000,"duration":250,"noteNumber":31,"velocity":95,"programNumber":34},{"time":69250,"duration":250,"noteNumber":31,"velocity":95,"programNumber":34},{"time":69500,"duration":250,"noteNumber":31,"velocity":95,"programNumber":34},{"time":69750,"duration":250,"noteNumber":31,"velocity":95,"programNumber":34},{"time":70000,"duration":250,"noteNumber":33,"velocity":95,"programNumber":34},{"time":70250,"duration":250,"noteNumber":33,"velocity":95,"programNumber":34},{"time":70500,"duration":250,"noteNumber":33,"velocity":95,"programNumber":34},{"time":70750,"duration":250,"noteNumber":33,"velocity":95,"programNumber":34},{"time":71000,"duration":250,"noteNumber":33,"velocity":95,"programNumber":34},{"time":71250,"duration":250,"noteNumber":33,"velocity":95,"programNumber":34},{"time":71500,"duration":250,"noteNumber":33,"velocity":95,"programNumber":34},{"time":71750,"duration":250,"noteNumber":33,"velocity":95,"programNumber":34},{"time":72000,"duration":750,"noteNumber":40,"velocity":95,"programNumber":34},{"time":72750,"duration":125,"noteNumber":40,"velocity":95,"programNumber":34},{"time":73000,"duration":125,"noteNumber":43,"velocity":95,"programNumber":34},{"time":73375,"duration":125,"noteNumber":40,"velocity":95,"programNumber":34},{"time":73750,"duration":250,"noteNumber":38,"velocity":95,"programNumber":34},{"time":74000,"duration":1000,"noteNumber":36,"velocity":95,"programNumber":34},{"time":75000,"duration":1000,"noteNumber":35,"velocity":95,"programNumber":34},{"time":76000,"duration":750,"noteNumber":40,"velocity":95,"programNumber":34},{"time":76750,"duration":125,"noteNumber":40,"velocity":95,"programNumber":34},{"time":77000,"duration":125,"noteNumber":43,"velocity":95,"programNumber":34},{"time":77375,"duration":125,"noteNumber":40,"velocity":95,"programNumber":34},{"time":77750,"duration":250,"noteNumber":38,"velocity":95,"programNumber":34},{"time":78000,"duration":1000,"noteNumber":36,"velocity":95,"programNumber":34},{"time":79000,"duration":1000,"noteNumber":35,"velocity":95,"programNumber":34},{"time":80000,"duration":750,"noteNumber":40,"velocity":95,"programNumber":34},{"time":80750,"duration":125,"noteNumber":40,"velocity":95,"programNumber":34},{"time":81000,"duration":125,"noteNumber":43,"velocity":95,"programNumber":34},{"time":81375,"duration":125,"noteNumber":40,"velocity":95,"programNumber":34},{"time":81750,"duration":250,"noteNumber":38,"velocity":95,"programNumber":34},{"time":82000,"duration":1000,"noteNumber":36,"velocity":95,"programNumber":34},{"time":83000,"duration":1000,"noteNumber":35,"velocity":95,"programNumber":34},{"time":84000,"duration":750,"noteNumber":40,"velocity":95,"programNumber":34},{"time":84750,"duration":125,"noteNumber":40,"velocity":95,"programNumber":34},{"time":85000,"duration":125,"noteNumber":43,"velocity":95,"programNumber":34},{"time":85375,"duration":125,"noteNumber":40,"velocity":95,"programNumber":34},{"time":85750,"duration":250,"noteNumber":38,"velocity":95,"programNumber":34},{"time":86000,"duration":1000,"noteNumber":36,"velocity":95,"programNumber":34},{"time":87000,"duration":1000,"noteNumber":35,"velocity":95,"programNumber":34},{"time":88000,"duration":750,"noteNumber":40,"velocity":95,"programNumber":34},{"time":88750,"duration":125,"noteNumber":40,"velocity":95,"programNumber":34},{"time":89000,"duration":125,"noteNumber":43,"velocity":95,"programNumber":34},{"time":89375,"duration":125,"noteNumber":40,"velocity":95,"programNumber":34},{"time":89750,"duration":250,"noteNumber":38,"velocity":95,"programNumber":34},{"time":90000,"duration":1000,"noteNumber":36,"velocity":95,"programNumber":34},{"time":91000,"duration":1000,"noteNumber":35,"velocity":95,"programNumber":34},{"time":92000,"duration":750,"noteNumber":40,"velocity":95,"programNumber":34},{"time":92750,"duration":125,"noteNumber":40,"velocity":95,"programNumber":34},{"time":93000,"duration":125,"noteNumber":43,"velocity":95,"programNumber":34},{"time":93375,"duration":125,"noteNumber":40,"velocity":95,"programNumber":34},{"time":93750,"duration":250,"noteNumber":38,"velocity":95,"programNumber":34},{"time":94000,"duration":1000,"noteNumber":36,"velocity":95,"programNumber":34},{"time":95000,"duration":1000,"noteNumber":35,"velocity":95,"programNumber":34},{"time":96000,"duration":750,"noteNumber":40,"velocity":95,"programNumber":34},{"time":96750,"duration":125,"noteNumber":40,"velocity":95,"programNumber":34},{"time":97000,"duration":125,"noteNumber":43,"velocity":95,"programNumber":34},{"time":97375,"duration":125,"noteNumber":40,"velocity":95,"programNumber":34},{"time":97750,"duration":250,"noteNumber":38,"velocity":95,"programNumber":34},{"time":98000,"duration":1000,"noteNumber":36,"velocity":95,"programNumber":34},{"time":99000,"duration":1000,"noteNumber":35,"velocity":95,"programNumber":34},{"time":100000,"duration":750,"noteNumber":40,"velocity":95,"programNumber":34},{"time":100750,"duration":125,"noteNumber":40,"velocity":95,"programNumber":34},{"time":101000,"duration":125,"noteNumber":43,"velocity":95,"programNumber":34},{"time":101375,"duration":125,"noteNumber":40,"velocity":95,"programNumber":34},{"time":101750,"duration":250,"noteNumber":38,"velocity":95,"programNumber":34},{"time":102000,"duration":1000,"noteNumber":36,"velocity":95,"programNumber":34},{"time":103000,"duration":1000,"noteNumber":35,"velocity":95,"programNumber":34},{"time":104000,"duration":750,"noteNumber":40,"velocity":95,"programNumber":34},{"time":104750,"duration":125,"noteNumber":40,"velocity":95,"programNumber":34},{"time":105000,"duration":125,"noteNumber":43,"velocity":95,"programNumber":34},{"time":105375,"duration":125,"noteNumber":40,"velocity":95,"programNumber":34},{"time":105750,"duration":250,"noteNumber":38,"velocity":95,"programNumber":34},{"time":106000,"duration":1000,"noteNumber":36,"velocity":95,"programNumber":34},{"time":107000,"duration":1000,"noteNumber":35,"velocity":95,"programNumber":34},{"time":108000,"duration":750,"noteNumber":40,"velocity":95,"programNumber":34},{"time":108750,"duration":125,"noteNumber":40,"velocity":95,"programNumber":34},{"time":109000,"duration":125,"noteNumber":43,"velocity":95,"programNumber":34},{"time":109375,"duration":125,"noteNumber":40,"velocity":95,"programNumber":34},{"time":109750,"duration":250,"noteNumber":38,"velocity":95,"programNumber":34},{"time":110000,"duration":1000,"noteNumber":36,"velocity":95,"programNumber":34},{"time":111000,"duration":1000,"noteNumber":35,"velocity":95,"programNumber":34},{"time":112000,"duration":750,"noteNumber":40,"velocity":95,"programNumber":34},{"time":112750,"duration":125,"noteNumber":40,"velocity":95,"programNumber":34},{"time":113000,"duration":125,"noteNumber":43,"velocity":95,"programNumber":34},{"time":113375,"duration":125,"noteNumber":40,"velocity":95,"programNumber":34},{"time":113750,"duration":250,"noteNumber":38,"velocity":95,"programNumber":34},{"time":114000,"duration":1000,"noteNumber":36,"velocity":95,"programNumber":34},{"time":115000,"duration":1000,"noteNumber":35,"velocity":95,"programNumber":34},{"time":116000,"duration":750,"noteNumber":40,"velocity":95,"programNumber":34},{"time":116750,"duration":125,"noteNumber":40,"velocity":95,"programNumber":34},{"time":117000,"duration":125,"noteNumber":43,"velocity":95,"programNumber":34},{"time":117375,"duration":125,"noteNumber":40,"velocity":95,"programNumber":34},{"time":117750,"duration":250,"noteNumber":38,"velocity":95,"programNumber":34},{"time":118000,"duration":1000,"noteNumber":36,"velocity":95,"programNumber":34},{"time":119000,"duration":1000,"noteNumber":35,"velocity":95,"programNumber":34},{"time":120000,"duration":250,"noteNumber":31,"velocity":95,"programNumber":34},{"time":120250,"duration":250,"noteNumber":31,"velocity":95,"programNumber":34},{"time":120500,"duration":250,"noteNumber":31,"velocity":95,"programNumber":34},{"time":120750,"duration":250,"noteNumber":31,"velocity":95,"programNumber":34},{"time":121000,"duration":250,"noteNumber":31,"velocity":95,"programNumber":34},{"time":121250,"duration":250,"noteNumber":31,"velocity":95,"programNumber":34},{"time":121500,"duration":250,"noteNumber":31,"velocity":95,"programNumber":34},{"time":121750,"duration":250,"noteNumber":31,"velocity":95,"programNumber":34},{"time":122000,"duration":250,"noteNumber":33,"velocity":95,"programNumber":34},{"time":122250,"duration":250,"noteNumber":33,"velocity":95,"programNumber":34},{"time":122500,"duration":250,"noteNumber":33,"velocity":95,"programNumber":34},{"time":122750,"duration":250,"noteNumber":33,"velocity":95,"programNumber":34},{"time":123000,"duration":250,"noteNumber":33,"velocity":95,"programNumber":34},{"time":123250,"duration":250,"noteNumber":33,"velocity":95,"programNumber":34},{"time":123500,"duration":250,"noteNumber":33,"velocity":95,"programNumber":34},{"time":123750,"duration":250,"noteNumber":33,"velocity":95,"programNumber":34},{"time":124000,"duration":750,"noteNumber":40,"velocity":95,"programNumber":34},{"time":124750,"duration":125,"noteNumber":40,"velocity":95,"programNumber":34},{"time":125000,"duration":125,"noteNumber":43,"velocity":95,"programNumber":34},{"time":125375,"duration":125,"noteNumber":40,"velocity":95,"programNumber":34},{"time":125750,"duration":250,"noteNumber":38,"velocity":95,"programNumber":34},{"time":126000,"duration":1000,"noteNumber":36,"velocity":95,"programNumber":34},{"time":127000,"duration":1000,"noteNumber":35,"velocity":95,"programNumber":34},{"time":128000,"duration":750,"noteNumber":40,"velocity":95,"programNumber":34},{"time":128750,"duration":125,"noteNumber":40,"velocity":95,"programNumber":34},{"time":129000,"duration":125,"noteNumber":43,"velocity":95,"programNumber":34},{"time":129375,"duration":125,"noteNumber":40,"velocity":95,"programNumber":34},{"time":129750,"duration":250,"noteNumber":38,"velocity":95,"programNumber":34},{"time":130000,"duration":375,"noteNumber":36,"velocity":95,"programNumber":34},{"time":130375,"duration":375,"noteNumber":38,"velocity":95,"programNumber":34},{"time":130750,"duration":250,"noteNumber":36,"velocity":95,"programNumber":34},{"time":131000,"duration":1000,"noteNumber":35,"velocity":95,"programNumber":34},{"time":132000,"duration":750,"noteNumber":40,"velocity":95,"programNumber":34},{"time":132750,"duration":125,"noteNumber":40,"velocity":95,"programNumber":34},{"time":133000,"duration":125,"noteNumber":43,"velocity":95,"programNumber":34},{"time":133375,"duration":125,"noteNumber":40,"velocity":95,"programNumber":34},{"time":133750,"duration":250,"noteNumber":38,"velocity":95,"programNumber":34},{"time":134000,"duration":1000,"noteNumber":36,"velocity":95,"programNumber":34},{"time":135000,"duration":1000,"noteNumber":35,"velocity":95,"programNumber":34},{"time":136000,"duration":750,"noteNumber":40,"velocity":95,"programNumber":34},{"time":136750,"duration":125,"noteNumber":40,"velocity":95,"programNumber":34},{"time":137000,"duration":125,"noteNumber":43,"velocity":95,"programNumber":34},{"time":137375,"duration":125,"noteNumber":40,"velocity":95,"programNumber":34},{"time":137750,"duration":250,"noteNumber":38,"velocity":95,"programNumber":34},{"time":138000,"duration":375,"noteNumber":36,"velocity":95,"programNumber":34},{"time":138375,"duration":375,"noteNumber":38,"velocity":95,"programNumber":34},{"time":138750,"duration":250,"noteNumber":36,"velocity":95,"programNumber":34},{"time":139000,"duration":1000,"noteNumber":35,"velocity":95,"programNumber":34},{"time":140000,"duration":750,"noteNumber":40,"velocity":95,"programNumber":34},{"time":140750,"duration":125,"noteNumber":40,"velocity":95,"programNumber":34},{"time":141000,"duration":125,"noteNumber":43,"velocity":95,"programNumber":34},{"time":141375,"duration":125,"noteNumber":40,"velocity":95,"programNumber":34},{"time":141750,"duration":250,"noteNumber":38,"velocity":95,"programNumber":34},{"time":142000,"duration":1000,"noteNumber":36,"velocity":95,"programNumber":34},{"time":143000,"duration":1000,"noteNumber":35,"velocity":95,"programNumber":34},{"time":144000,"duration":750,"noteNumber":40,"velocity":95,"programNumber":34},{"time":144750,"duration":125,"noteNumber":40,"velocity":95,"programNumber":34},{"time":145000,"duration":125,"noteNumber":43,"velocity":95,"programNumber":34},{"time":145375,"duration":125,"noteNumber":40,"velocity":95,"programNumber":34},{"time":145750,"duration":250,"noteNumber":38,"velocity":95,"programNumber":34},{"time":146000,"duration":375,"noteNumber":36,"velocity":95,"programNumber":34},{"time":146375,"duration":375,"noteNumber":38,"velocity":95,"programNumber":34},{"time":146750,"duration":250,"noteNumber":36,"velocity":95,"programNumber":34},{"time":147000,"duration":1000,"noteNumber":35,"velocity":95,"programNumber":34},{"time":148000,"duration":750,"noteNumber":40,"velocity":95,"programNumber":34},{"time":148750,"duration":125,"noteNumber":40,"velocity":95,"programNumber":34},{"time":149000,"duration":125,"noteNumber":43,"velocity":95,"programNumber":34},{"time":149375,"duration":125,"noteNumber":40,"velocity":95,"programNumber":34},{"time":149750,"duration":250,"noteNumber":38,"velocity":95,"programNumber":34},{"time":150000,"duration":1000,"noteNumber":36,"velocity":95,"programNumber":34},{"time":151000,"duration":1000,"noteNumber":35,"velocity":95,"programNumber":34},{"time":152000,"duration":750,"noteNumber":40,"velocity":95,"programNumber":34},{"time":152750,"duration":125,"noteNumber":40,"velocity":95,"programNumber":34},{"time":153000,"duration":125,"noteNumber":43,"velocity":95,"programNumber":34},{"time":153375,"duration":125,"noteNumber":40,"velocity":95,"programNumber":34},{"time":153750,"duration":250,"noteNumber":38,"velocity":95,"programNumber":34},{"time":154000,"duration":375,"noteNumber":36,"velocity":95,"programNumber":34},{"time":154375,"duration":375,"noteNumber":38,"velocity":95,"programNumber":34},{"time":154750,"duration":250,"noteNumber":36,"velocity":95,"programNumber":34},{"time":155000,"duration":1000,"noteNumber":35,"velocity":95,"programNumber":34},{"time":156000,"duration":250,"noteNumber":31,"velocity":95,"programNumber":34},{"time":156250,"duration":250,"noteNumber":31,"velocity":95,"programNumber":34},{"time":156500,"duration":250,"noteNumber":31,"velocity":95,"programNumber":34},{"time":156750,"duration":250,"noteNumber":31,"velocity":95,"programNumber":34},{"time":157000,"duration":250,"noteNumber":31,"velocity":95,"programNumber":34},{"time":157250,"duration":250,"noteNumber":31,"velocity":95,"programNumber":34},{"time":157500,"duration":250,"noteNumber":31,"velocity":95,"programNumber":34},{"time":157750,"duration":250,"noteNumber":31,"velocity":95,"programNumber":34},{"time":158000,"duration":250,"noteNumber":33,"velocity":95,"programNumber":34},{"time":158250,"duration":250,"noteNumber":33,"velocity":95,"programNumber":34},{"time":158500,"duration":250,"noteNumber":33,"velocity":95,"programNumber":34},{"time":158750,"duration":250,"noteNumber":33,"velocity":95,"programNumber":34},{"time":159000,"duration":250,"noteNumber":33,"velocity":95,"programNumber":34},{"time":159250,"duration":250,"noteNumber":33,"velocity":95,"programNumber":34},{"time":159500,"duration":250,"noteNumber":33,"velocity":95,"programNumber":34},{"time":159750,"duration":250,"noteNumber":33,"velocity":95,"programNumber":34},{"time":160000,"duration":750,"noteNumber":40,"velocity":95,"programNumber":34},{"time":160750,"duration":125,"noteNumber":40,"velocity":95,"programNumber":34},{"time":161000,"duration":125,"noteNumber":43,"velocity":95,"programNumber":34},{"time":161375,"duration":125,"noteNumber":40,"velocity":95,"programNumber":34},{"time":161750,"duration":250,"noteNumber":38,"velocity":95,"programNumber":34},{"time":162000,"duration":1000,"noteNumber":36,"velocity":95,"programNumber":34},{"time":163000,"duration":1000,"noteNumber":35,"velocity":95,"programNumber":34},{"time":164000,"duration":750,"noteNumber":40,"velocity":95,"programNumber":34},{"time":164750,"duration":125,"noteNumber":40,"velocity":95,"programNumber":34},{"time":165000,"duration":125,"noteNumber":43,"velocity":95,"programNumber":34},{"time":165375,"duration":125,"noteNumber":40,"velocity":95,"programNumber":34},{"time":165750,"duration":250,"noteNumber":38,"velocity":95,"programNumber":34},{"time":166000,"duration":1000,"noteNumber":36,"velocity":95,"programNumber":34},{"time":167000,"duration":1000,"noteNumber":35,"velocity":95,"programNumber":34},{"time":168000,"duration":750,"noteNumber":40,"velocity":95,"programNumber":34},{"time":168750,"duration":125,"noteNumber":40,"velocity":95,"programNumber":34},{"time":169000,"duration":125,"noteNumber":43,"velocity":95,"programNumber":34},{"time":169375,"duration":125,"noteNumber":40,"velocity":95,"programNumber":34},{"time":169750,"duration":250,"noteNumber":38,"velocity":95,"programNumber":34},{"time":170000,"duration":1000,"noteNumber":36,"velocity":95,"programNumber":34},{"time":171000,"duration":1000,"noteNumber":35,"velocity":95,"programNumber":34},{"time":172000,"duration":750,"noteNumber":40,"velocity":95,"programNumber":34},{"time":172750,"duration":125,"noteNumber":40,"velocity":95,"programNumber":34},{"time":173000,"duration":125,"noteNumber":43,"velocity":95,"programNumber":34},{"time":173375,"duration":125,"noteNumber":40,"velocity":95,"programNumber":34},{"time":173750,"duration":250,"noteNumber":38,"velocity":95,"programNumber":34},{"time":174000,"duration":1000,"noteNumber":36,"velocity":95,"programNumber":34},{"time":175000,"duration":1000,"noteNumber":35,"velocity":95,"programNumber":34},{"time":176000,"duration":750,"noteNumber":40,"velocity":95,"programNumber":34},{"time":176750,"duration":125,"noteNumber":40,"velocity":95,"programNumber":34},{"time":177000,"duration":125,"noteNumber":43,"velocity":95,"programNumber":34},{"time":177375,"duration":125,"noteNumber":40,"velocity":95,"programNumber":34},{"time":177750,"duration":250,"noteNumber":38,"velocity":95,"programNumber":34},{"time":178000,"duration":1000,"noteNumber":36,"velocity":95,"programNumber":34},{"time":179000,"duration":1000,"noteNumber":35,"velocity":95,"programNumber":34},{"time":180000,"duration":750,"noteNumber":40,"velocity":95,"programNumber":34},{"time":180750,"duration":125,"noteNumber":40,"velocity":95,"programNumber":34},{"time":181000,"duration":125,"noteNumber":43,"velocity":95,"programNumber":34},{"time":181375,"duration":125,"noteNumber":40,"velocity":95,"programNumber":34},{"time":181750,"duration":250,"noteNumber":38,"velocity":95,"programNumber":34},{"time":182000,"duration":1000,"noteNumber":36,"velocity":95,"programNumber":34},{"time":183000,"duration":1000,"noteNumber":35,"velocity":95,"programNumber":34},{"time":184000,"duration":750,"noteNumber":40,"velocity":95,"programNumber":34},{"time":184750,"duration":125,"noteNumber":40,"velocity":95,"programNumber":34},{"time":185000,"duration":125,"noteNumber":43,"velocity":95,"programNumber":34},{"time":185375,"duration":125,"noteNumber":40,"velocity":95,"programNumber":34},{"time":185750,"duration":250,"noteNumber":38,"velocity":95,"programNumber":34},{"time":186000,"duration":1000,"noteNumber":36,"velocity":95,"programNumber":34},{"time":187000,"duration":1000,"noteNumber":35,"velocity":95,"programNumber":34},{"time":188000,"duration":750,"noteNumber":40,"velocity":95,"programNumber":34},{"time":188750,"duration":125,"noteNumber":40,"velocity":95,"programNumber":34},{"time":189000,"duration":125,"noteNumber":43,"velocity":95,"programNumber":34},{"time":189375,"duration":125,"noteNumber":40,"velocity":95,"programNumber":34},{"time":189750,"duration":250,"noteNumber":38,"velocity":95,"programNumber":34},{"time":190000,"duration":1000,"noteNumber":36,"velocity":95,"programNumber":34},{"time":191000,"duration":1000,"noteNumber":35,"velocity":95,"programNumber":34},{"time":192000,"duration":750,"noteNumber":40,"velocity":95,"programNumber":34},{"time":192750,"duration":125,"noteNumber":40,"velocity":95,"programNumber":34},{"time":193000,"duration":125,"noteNumber":43,"velocity":95,"programNumber":34},{"time":193375,"duration":125,"noteNumber":40,"velocity":95,"programNumber":34},{"time":193750,"duration":250,"noteNumber":38,"velocity":95,"programNumber":34},{"time":194000,"duration":1000,"noteNumber":36,"velocity":95,"programNumber":34},{"time":195000,"duration":1000,"noteNumber":35,"velocity":95,"programNumber":34},{"time":196000,"duration":750,"noteNumber":40,"velocity":95,"programNumber":34},{"time":196750,"duration":125,"noteNumber":40,"velocity":95,"programNumber":34},{"time":197000,"duration":125,"noteNumber":43,"velocity":95,"programNumber":34},{"time":197375,"duration":125,"noteNumber":40,"velocity":95,"programNumber":34},{"time":197750,"duration":250,"noteNumber":38,"velocity":95,"programNumber":34},{"time":198000,"duration":1000,"noteNumber":36,"velocity":95,"programNumber":34},{"time":199000,"duration":1000,"noteNumber":35,"velocity":95,"programNumber":34},{"time":200000,"duration":750,"noteNumber":40,"velocity":95,"programNumber":34},{"time":200750,"duration":125,"noteNumber":40,"velocity":95,"programNumber":34},{"time":201000,"duration":125,"noteNumber":43,"velocity":95,"programNumber":34},{"time":201375,"duration":125,"noteNumber":40,"velocity":95,"programNumber":34},{"time":201750,"duration":250,"noteNumber":38,"velocity":95,"programNumber":34},{"time":202000,"duration":1000,"noteNumber":36,"velocity":95,"programNumber":34},{"time":203000,"duration":1000,"noteNumber":35,"velocity":95,"programNumber":34},{"time":204000,"duration":250,"noteNumber":31,"velocity":95,"programNumber":34},{"time":204250,"duration":250,"noteNumber":31,"velocity":95,"programNumber":34},{"time":204500,"duration":250,"noteNumber":31,"velocity":95,"programNumber":34},{"time":204750,"duration":250,"noteNumber":31,"velocity":95,"programNumber":34},{"time":205000,"duration":250,"noteNumber":31,"velocity":95,"programNumber":34},{"time":205250,"duration":250,"noteNumber":31,"velocity":95,"programNumber":34},{"time":205500,"duration":250,"noteNumber":31,"velocity":95,"programNumber":34},{"time":205750,"duration":250,"noteNumber":31,"velocity":95,"programNumber":34},{"time":206000,"duration":250,"noteNumber":33,"velocity":95,"programNumber":34},{"time":206250,"duration":250,"noteNumber":33,"velocity":95,"programNumber":34},{"time":206500,"duration":250,"noteNumber":33,"velocity":95,"programNumber":34},{"time":206750,"duration":250,"noteNumber":33,"velocity":95,"programNumber":34},{"time":207000,"duration":250,"noteNumber":33,"velocity":95,"programNumber":34},{"time":207250,"duration":250,"noteNumber":33,"velocity":95,"programNumber":34},{"time":207500,"duration":250,"noteNumber":33,"velocity":95,"programNumber":34},{"time":207750,"duration":250,"noteNumber":33,"velocity":95,"programNumber":34},{"time":208000,"duration":750,"noteNumber":40,"velocity":95,"programNumber":34},{"time":208750,"duration":125,"noteNumber":40,"velocity":95,"programNumber":34},{"time":209000,"duration":125,"noteNumber":43,"velocity":95,"programNumber":34},{"time":209375,"duration":125,"noteNumber":40,"velocity":95,"programNumber":34},{"time":209750,"duration":250,"noteNumber":38,"velocity":95,"programNumber":34},{"time":210000,"duration":1000,"noteNumber":36,"velocity":95,"programNumber":34},{"time":211000,"duration":1000,"noteNumber":35,"velocity":95,"programNumber":34},{"time":212000,"duration":750,"noteNumber":40,"velocity":95,"programNumber":34},{"time":212750,"duration":125,"noteNumber":40,"velocity":95,"programNumber":34},{"time":213000,"duration":125,"noteNumber":43,"velocity":95,"programNumber":34},{"time":213375,"duration":125,"noteNumber":40,"velocity":95,"programNumber":34},{"time":213750,"duration":250,"noteNumber":38,"velocity":95,"programNumber":34},{"time":214000,"duration":375,"noteNumber":36,"velocity":95,"programNumber":34},{"time":214375,"duration":375,"noteNumber":38,"velocity":95,"programNumber":34},{"time":214750,"duration":250,"noteNumber":36,"velocity":95,"programNumber":34},{"time":215000,"duration":1000,"noteNumber":35,"velocity":95,"programNumber":34},{"time":216000,"duration":750,"noteNumber":40,"velocity":95,"programNumber":34},{"time":216750,"duration":125,"noteNumber":40,"velocity":95,"programNumber":34},{"time":217000,"duration":125,"noteNumber":43,"velocity":95,"programNumber":34},{"time":217375,"duration":125,"noteNumber":40,"velocity":95,"programNumber":34},{"time":217750,"duration":250,"noteNumber":38,"velocity":95,"programNumber":34},{"time":218000,"duration":1000,"noteNumber":36,"velocity":95,"programNumber":34},{"time":219000,"duration":1000,"noteNumber":35,"velocity":95,"programNumber":34},{"time":220000,"duration":750,"noteNumber":40,"velocity":95,"programNumber":34},{"time":220750,"duration":125,"noteNumber":40,"velocity":95,"programNumber":34},{"time":221000,"duration":125,"noteNumber":43,"velocity":95,"programNumber":34},{"time":221375,"duration":125,"noteNumber":40,"velocity":95,"programNumber":34},{"time":221750,"duration":250,"noteNumber":38,"velocity":95,"programNumber":34},{"time":222000,"duration":375,"noteNumber":36,"velocity":95,"programNumber":34},{"time":222375,"duration":375,"noteNumber":38,"velocity":95,"programNumber":34},{"time":222750,"duration":250,"noteNumber":36,"velocity":95,"programNumber":34},{"time":223000,"duration":1000,"noteNumber":35,"velocity":95,"programNumber":34},{"time":224000,"duration":1998.958333333343,"noteNumber":40,"velocity":95,"programNumber":34}]]}