{"tracks":[[{"time":9450,"duration":300,"noteNumber":72,"velocity":110,"programNumber":0},{"time":9750,"duration":150,"noteNumber":72,"velocity":110,"programNumber":0},{"time":9900,"duration":300,"noteNumber":72,"velocity":110,"programNumber":0},{"time":10200,"duration":150,"noteNumber":72,"velocity":110,"programNumber":0},{"time":10350,"duration":300,"noteNumber":72,"velocity":110,"programNumber":0},{"time":10650,"duration":150,"noteNumber":74,"velocity":110,"programNumber":0},{"time":10800,"duration":450,"noteNumber":71,"velocity":110,"programNumber":0},{"time":11250,"duration":450,"noteNumber":69,"velocity":110,"programNumber":0},{"time":11700,"duration":300,"noteNumber":69,"velocity":110,"programNumber":0},{"time":12000,"duration":150,"noteNumber":67,"velocity":110,"programNumber":0},{"time":12150,"duration":300,"noteNumber":67,"velocity":110,"programNumber":0},{"time":12450,"duration":150,"noteNumber":67,"velocity":110,"programNumber":0},{"time":12600,"duration":450,"noteNumber":70,"velocity":110,"programNumber":0},{"time":13050,"duration":300,"noteNumber":70,"velocity":110,"programNumber":0},{"time":13350,"duration":150,"noteNumber":70,"velocity":110,"programNumber":0},{"time":13500,"duration":450,"noteNumber":70,"velocity":110,"programNumber":0},{"time":13950,"duration":300,"noteNumber":72,"velocity":110,"programNumber":0},{"time":14250,"duration":75,"noteNumber":69,"velocity":110,"programNumber":0},{"time":14325,"duration":75,"noteNumber":67,"velocity":110,"programNumber":0},{"time":14400,"duration":450,"noteNumber":65,"velocity":110,"programNumber":0},{"time":16650,"duration":300,"noteNumber":72,"velocity":110,"programNumber":0},{"time":16950,"duration":150,"noteNumber":72,"velocity":110,"programNumber":0},{"time":17100,"duration":300,"noteNumber":72,"velocity":110,"programNumber":0},{"time":17400,"duration":150,"noteNumber":72,"velocity":110,"programNumber":0},{"time":17550,"duration":300,"noteNumber":72,"velocity":110,"programNumber":0},{"time":17850,"duration":150,"noteNumber":74,"velocity":110,"programNumber":0},{"time":18000,"duration":450,"noteNumber":71,"velocity":110,"programNumber":0},{"time":18450,"duration":450,"noteNumber":69,"velocity":110,"programNumber":0},{"time":18900,"duration":300,"noteNumber":69,"velocity":110,"programNumber":0},{"time":19200,"duration":150,"noteNumber":67,"velocity":110,"programNumber":0},{"time":19350,"duration":300,"noteNumber":67,"velocity":110,"programNumber":0},{"time":19650,"duration":150,"noteNumber":67,"velocity":110,"programNumber":0},{"time":19800,"duration":450,"noteNumber":70,"velocity":110,"programNumber":0},{"time":20250,"duration":300,"noteNumber":70,"velocity":110,"programNumber":0},{"time":20550,"duration":150,"noteNumber":70,"velocity":110,"programNumber":0},{"time":20700,"duration":450,"noteNumber":70,"velocity":110,"programNumber":0},{"time":21150,"duration":300,"noteNumber":72,"velocity":110,"programNumber":0},{"time":21450,"duration":75,"noteNumber":69,"velocity":110,"programNumber":0},{"time":21525,"duration":75,"noteNumber":67,"velocity":110,"programNumber":0},{"time":21600,"duration":450,"noteNumber":65,"velocity":110,"programNumber":0},{"time":23850,"duration":300,"noteNumber":64,"velocity":110,"programNumber":0},{"time":24150,"duration":150,"noteNumber":64,"velocity":110,"programNumber":0},{"time":24300,"duration":300,"noteNumber":67,"velocity":110,"programNumber":0},{"time":24600,"duration":150,"noteNumber":67,"velocity":110,"programNumber":0},{"time":24750,"duration":300,"noteNumber":71,"velocity":110,"programNumber":0},{"time":25050,"duration":150,"noteNumber":71,"velocity":110,"programNumber":0},{"time":25200,"duration":450,"noteNumber":72,"velocity":110,"programNumber":0},{"time":25650,"duration":300,"noteNumber":69,"velocity":110,"programNumber":0},{"time":25950,"duration":150,"noteNumber":64,"velocity":110,"programNumber":0},{"time":26100,"duration":300,"noteNumber":67,"velocity":110,"programNumber":0},{"time":26400,"duration":150,"noteNumber":69,"velocity":110,"programNumber":0},{"time":26850,"duration":150,"noteNumber":64,"velocity":110,"programNumber":0},{"time":27000,"duration":450,"noteNumber":64,"velocity":110,"programNumber":0},{"time":27450,"duration":450,"noteNumber":64,"velocity":110,"programNumber":0},{"time":27900,"duration":300,"noteNumber":67,"velocity":110,"programNumber":0},{"time":28200,"duration":150,"noteNumber":67,"velocity":110,"programNumber":0},{"time":28350,"duration":300,"noteNumber":71,"velocity":110,"programNumber":0},{"time":28650,"duration":150,"noteNumber":71,"velocity":110,"programNumber":0},{"time":28800,"duration":300,"noteNumber":72,"velocity":110,"programNumber":0},{"time":29100,"duration":150,"noteNumber":67,"velocity":110,"programNumber":0},{"time":29250,"duration":300,"noteNumber":69,"velocity":110,"programNumber":0},{"time":29550,"duration":150,"noteNumber":64,"velocity":110,"programNumber":0},{"time":29700,"duration":300,"noteNumber":67,"velocity":110,"programNumber":0},{"time":30000,"duration":150,"noteNumber":69,"velocity":110,"programNumber":0},{"time":30600,"duration":300,"noteNumber":72,"velocity":110,"programNumber":0},{"time":30900,"duration":150,"noteNumber":72,"velocity":110,"programNumber":0},{"time":31050,"duration":300,"noteNumber":72,"velocity":110,"programNumber":0},{"time":31350,"duration":150,"noteNumber":72,"velocity":110,"programNumber":0},{"time":31500,"duration":300,"noteNumber":71,"velocity":110,"programNumber":0},{"time":31800,"duration":150,"noteNumber":71,"velocity":110,"programNumber":0},{"time":31950,"duration":300,"noteNumber":71,"velocity":110,"programNumber":0},{"time":32250,"duration":150,"noteNumber":67,"velocity":110,"programNumber":0},{"time":32400,"duration":450,"noteNumber":70,"velocity":110,"programNumber":0},{"time":32850,"duration":450,"noteNumber":70,"velocity":110,"programNumber":0},{"time":33300,"duration":300,"noteNumber":69,"velocity":110,"programNumber":0},{"time":33600,"duration":150,"noteNumber":69,"velocity":110,"programNumber":0},{"time":33750,"duration":300,"noteNumber":69,"velocity":110,"programNumber":0},{"time":34050,"duration":150,"noteNumber":65,"velocity":110,"programNumber":0},{"time":34200,"duration":450,"noteNumber":69,"velocity":110,"programNumber":0},{"time":34650,"duration":300,"noteNumber":67,"velocity":110,"programNumber":0},{"time":34950,"duration":150,"noteNumber":62,"velocity":110,"programNumber":0},{"time":35100,"duration":450,"noteNumber":64,"velocity":110,"programNumber":0},{"time":35550,"duration":300,"noteNumber":62,"velocity":110,"programNumber":0},{"time":35850,"duration":450,"noteNumber":62,"velocity":110,"programNumber":0},{"time":36300,"duration":300,"noteNumber":60,"velocity":110,"programNumber":0},{"time":40050,"duration":300,"noteNumber":72,"velocity":110,"programNumber":0},{"time":40350,"duration":150,"noteNumber":72,"velocity":110,"programNumber":0},{"time":40500,"duration":300,"noteNumber":72,"velocity":110,"programNumber":0},{"time":40800,"duration":150,"noteNumber":72,"velocity":110,"programNumber":0},{"time":40950,"duration":300,"noteNumber":72,"velocity":110,"programNumber":0},{"time":41250,"duration":150,"noteNumber":74,"velocity":110,"programNumber":0},{"time":41400,"duration":450,"noteNumber":71,"velocity":110,"programNumber":0},{"time":41850,"duration":450,"noteNumber":69,"velocity":110,"programNumber":0},{"time":42300,"duration":300,"noteNumber":69,"velocity":110,"programNumber":0},{"time":42600,"duration":150,"noteNumber":67,"velocity":110,"programNumber":0},{"time":42750,"duration":300,"noteNumber":67,"velocity":110,"programNumber":0},{"time":43050,"duration":150,"noteNumber":67,"velocity":110,"programNumber":0},{"time":43200,"duration":450,"noteNumber":70,"velocity":110,"programNumber":0},{"time":43650,"duration":300,"noteNumber":70,"velocity":110,"programNumber":0},{"time":43950,"duration":150,"noteNumber":70,"velocity":110,"programNumber":0},{"time":44100,"duration":450,"noteNumber":70,"velocity":110,"programNumber":0},{"time":44550,"duration":300,"noteNumber":72,"velocity":110,"programNumber":0},{"time":44850,"duration":75,"noteNumber":69,"velocity":110,"programNumber":0},{"time":44925,"duration":75,"noteNumber":67,"velocity":110,"programNumber":0},{"time":45000,"duration":450,"noteNumber":65,"velocity":110,"programNumber":0},{"time":47250,"duration":300,"noteNumber":72,"velocity":110,"programNumber":0},{"time":47550,"duration":150,"noteNumber":72,"velocity":110,"programNumber":0},{"time":47700,"duration":300,"noteNumber":72,"velocity":110,"programNumber":0},{"time":48000,"duration":150,"noteNumber":72,"velocity":110,"programNumber":0},{"time":48150,"duration":300,"noteNumber":72,"velocity":110,"programNumber":0},{"time":48450,"duration":150,"noteNumber":74,"velocity":110,"programNumber":0},{"time":48600,"duration":450,"noteNumber":71,"velocity":110,"programNumber":0},{"time":49050,"duration":450,"noteNumber":69,"velocity":110,"programNumber":0},{"time":49500,"duration":300,"noteNumber":69,"velocity":110,"programNumber":0},{"time":49800,"duration":150,"noteNumber":67,"velocity":110,"programNumber":0},{"time":49950,"duration":300,"noteNumber":67,"velocity":110,"programNumber":0},{"time":50250,"duration":150,"noteNumber":67,"velocity":110,"programNumber":0},{"time":50400,"duration":300,"noteNumber":70,"velocity":110,"programNumber":0},{"time":50700,"duration":150,"noteNumber":70,"velocity":110,"programNumber":0},{"time":50850,"duration":300,"noteNumber":70,"velocity":110,"programNumber":0},{"time":51150,"duration":150,"noteNumber":70,"velocity":110,"programNumber":0},{"time":51300,"duration":300,"noteNumber":70,"velocity":110,"programNumber":0},{"time":51600,"duration":150,"noteNumber":70,"velocity":110,"programNumber":0},{"time":51750,"duration":300,"noteNumber":72,"velocity":110,"programNumber":0},{"time":52050,"duration":75,"noteNumber":69,"velocity":110,"programNumber":0},{"time":52125,"duration":75,"noteNumber":67,"velocity":110,"programNumber":0},{"time":52200,"duration":450,"noteNumber":65,"velocity":110,"programNumber":0},{"time":54450,"duration":300,"noteNumber":64,"velocity":110,"programNumber":0},{"time":54750,"duration":150,"noteNumber":64,"velocity":110,"programNumber":0},{"time":54900,"duration":300,"noteNumber":67,"velocity":110,"programNumber":0},{"time":55200,"duration":150,"noteNumber":67,"velocity":110,"programNumber":0},{"time":55350,"duration":300,"noteNumber":71,"velocity":110,"programNumber":0},{"time":55650,"duration":150,"noteNumber":71,"velocity":110,"programNumber":0},{"time":55800,"duration":450,"noteNumber":72,"velocity":110,"programNumber":0},{"time":56250,"duration":300,"noteNumber":69,"velocity":110,"programNumber":0},{"time":56550,"duration":150,"noteNumber":64,"velocity":110,"programNumber":0},{"time":56700,"duration":300,"noteNumber":67,"velocity":110,"programNumber":0},{"time":57000,"duration":150,"noteNumber":69,"velocity":110,"programNumber":0},{"time":57450,"duration":150,"noteNumber":64,"velocity":110,"programNumber":0},{"time":57600,"duration":450,"noteNumber":64,"velocity":110,"programNumber":0},{"time":58050,"duration":300,"noteNumber":64,"velocity":110,"programNumber":0},{"time":58350,"duration":150,"noteNumber":64,"velocity":110,"programNumber":0},{"time":58500,"duration":300,"noteNumber":67,"velocity":110,"programNumber":0},{"time":58800,"duration":150,"noteNumber":67,"velocity":110,"programNumber":0},{"time":58950,"duration":300,"noteNumber":71,"velocity":110,"programNumber":0},{"time":59250,"duration":150,"noteNumber":71,"velocity":110,"programNumber":0},{"time":59400,"duration":450,"noteNumber":72,"velocity":110,"programNumber":0},{"time":59850,"duration":300,"noteNumber":69,"velocity":110,"programNumber":0},{"time":60150,"duration":150,"noteNumber":64,"velocity":110,"programNumber":0},{"time":60300,"duration":300,"noteNumber":67,"velocity":110,"programNumber":0},{"time":60600,"duration":150,"noteNumber":69,"velocity":110,"programNumber":0},{"time":61200,"duration":300,"noteNumber":72,"velocity":110,"programNumber":0},{"time":61500,"duration":150,"noteNumber":72,"velocity":110,"programNumber":0},{"time":61650,"duration":300,"noteNumber":72,"velocity":110,"programNumber":0},{"time":61950,"duration":150,"noteNumber":72,"velocity":110,"programNumber":0},{"time":62100,"duration":300,"noteNumber":71,"velocity":110,"programNumber":0},{"time":62400,"duration":150,"noteNumber":71,"velocity":110,"programNumber":0},{"time":62550,"duration":300,"noteNumber":71,"velocity":110,"programNumber":0},{"time":62850,"duration":150,"noteNumber":67,"velocity":110,"programNumber":0},{"time":63000,"duration":300,"noteNumber":70,"velocity":110,"programNumber":0},{"time":63300,"duration":150,"noteNumber":70,"velocity":110,"programNumber":0},{"time":63450,"duration":300,"noteNumber":70,"velocity":110,"programNumber":0},{"time":63750,"duration":150,"noteNumber":70,"velocity":110,"programNumber":0},{"time":63900,"duration":300,"noteNumber":69,"velocity":110,"programNumber":0},{"time":64200,"duration":150,"noteNumber":69,"velocity":110,"programNumber":0},{"time":64350,"duration":300,"noteNumber":69,"velocity":110,"programNumber":0},{"time":64650,"duration":150,"noteNumber":65,"velocity":110,"programNumber":0},{"time":64800,"duration":450,"noteNumber":69,"velocity":110,"programNumber":0},{"time":65250,"duration":300,"noteNumber":67,"velocity":110,"programNumber":0},{"time":65550,"duration":150,"noteNumber":62,"velocity":110,"programNumber":0},{"time":65700,"duration":450,"noteNumber":64,"velocity":110,"programNumber":0},{"time":66150,"duration":300,"noteNumber":62,"velocity":110,"programNumber":0},{"time":66450,"duration":450,"noteNumber":62,"velocity":110,"programNumber":0},{"time":66900,"duration":300,"noteNumber":60,"velocity":110,"programNumber":0},{"time":69300,"duration":1200,"noteNumber":74,"velocity":110,"programNumber":0},{"time":70500,"duration":150,"noteNumber":74,"velocity":110,"programNumber":0},{"time":70650,"duration":300,"noteNumber":74,"velocity":110,"programNumber":0},{"time":70950,"duration":150,"noteNumber":74,"velocity":110,"programNumber":0},{"time":71100,"duration":300,"noteNumber":74,"velocity":110,"programNumber":0},{"time":71400,"duration":150,"noteNumber":74,"velocity":110,"programNumber":0},{"time":71550,"duration":300,"noteNumber":74,"velocity":110,"programNumber":0},{"time":71850,"duration":150,"noteNumber":72,"velocity":110,"programNumber":0},{"time":72000,"duration":450,"noteNumber":74,"velocity":110,"programNumber":0},{"time":72450,"duration":300,"noteNumber":72,"velocity":110,"programNumber":0},{"time":72750,"duration":150,"noteNumber":69,"velocity":110,"programNumber":0},{"time":72900,"duration":300,"noteNumber":72,"velocity":110,"programNumber":0},{"time":73200,"duration":150,"noteNumber":74,"velocity":110,"programNumber":0},{"time":73350,"duration":300,"noteNumber":74,"velocity":110,"programNumber":0},{"time":73650,"duration":150,"noteNumber":74,"velocity":110,"programNumber":0},{"time":73800,"duration":300,"noteNumber":76,"velocity":110,"programNumber":0},{"time":74100,"duration":150,"noteNumber":74,"velocity":110,"programNumber":0},{"time":74250,"duration":300,"noteNumber":74,"velocity":110,"programNumber":0},{"time":74550,"duration":150,"noteNumber":72,"velocity":110,"programNumber":0},{"time":74700,"duration":300,"noteNumber":74,"velocity":110,"programNumber":0},{"time":75000,"duration":450,"noteNumber":72,"velocity":110,"programNumber":0},{"time":75450,"duration":75,"noteNumber":74,"velocity":110,"programNumber":0},{"time":75525,"duration":75,"noteNumber":72,"velocity":110,"programNumber":0},{"time":75600,"duration":300,"noteNumber":69,"velocity":110,"programNumber":0},{"time":76950,"duration":300,"noteNumber":73,"velocity":110,"programNumber":0},{"time":77250,"duration":150,"noteNumber":73,"velocity":110,"programNumber":0},{"time":77400,"duration":450,"noteNumber":74,"velocity":110,"programNumber":0},{"time":77850,"duration":300,"noteNumber":74,"velocity":110,"programNumber":0},{"time":78150,"duration":150,"noteNumber":74,"velocity":110,"programNumber":0},{"time":78300,"duration":450,"noteNumber":74,"velocity":110,"programNumber":0},{"time":78750,"duration":300,"noteNumber":74,"velocity":110,"programNumber":0},{"time":79050,"duration":150,"noteNumber":74,"velocity":110,"programNumber":0},{"time":79200,"duration":450,"noteNumber":74,"velocity":110,"programNumber":0},{"time":79650,"duration":300,"noteNumber":74,"velocity":110,"programNumber":0},{"time":79950,"duration":150,"noteNumber":72,"velocity":110,"programNumber":0},{"time":80100,"duration":450,"noteNumber":72,"velocity":110,"programNumber":0},{"time":80550,"duration":300,"noteNumber":72,"velocity":110,"programNumber":0},{"time":80850,"duration":150,"noteNumber":72,"velocity":110,"programNumber":0},{"time":81000,"duration":300,"noteNumber":76,"velocity":110,"programNumber":0},{"time":81300,"duration":150,"noteNumber":74,"velocity":110,"programNumber":0},{"time":81450,"duration":300,"noteNumber":74,"velocity":110,"programNumber":0},{"time":81750,"duration":150,"noteNumber":72,"velocity":110,"programNumber":0},{"time":81900,"duration":450,"noteNumber":74,"velocity":110,"programNumber":0},{"time":82350,"duration":300,"noteNumber":72,"velocity":110,"programNumber":0},{"time":82650,"duration":1950,"noteNumber":72,"velocity":110,"programNumber":0},{"time":84600,"duration":450,"noteNumber":70,"velocity":110,"programNumber":0},{"time":85050,"duration":300,"noteNumber":70,"velocity":110,"programNumber":0},{"time":85350,"duration":150,"noteNumber":67,"velocity":110,"programNumber":0},{"time":85500,"duration":300,"noteNumber":70,"velocity":110,"programNumber":0},{"time":85800,"duration":150,"noteNumber":67,"velocity":110,"programNumber":0},{"time":85950,"duration":300,"noteNumber":67,"velocity":110,"programNumber":0},{"time":86250,"duration":1050,"noteNumber":67,"velocity":110,"programNumber":0},{"time":90450,"duration":300,"noteNumber":72,"velocity":110,"programNumber":0},{"time":90750,"duration":150,"noteNumber":72,"velocity":110,"programNumber":0},{"time":90900,"duration":300,"noteNumber":72,"velocity":110,"programNumber":0},{"time":91200,"duration":150,"noteNumber":72,"velocity":110,"programNumber":0},{"time":91350,"duration":300,"noteNumber":72,"velocity":110,"programNumber":0},{"time":91650,"duration":150,"noteNumber":72,"velocity":110,"programNumber":0},{"time":91800,"duration":450,"noteNumber":71,"velocity":110,"programNumber":0},{"time":92250,"duration":450,"noteNumber":69,"velocity":110,"programNumber":0},{"time":92700,"duration":300,"noteNumber":69,"velocity":110,"programNumber":0},{"time":93000,"duration":150,"noteNumber":67,"velocity":110,"programNumber":0},{"time":93150,"duration":300,"noteNumber":67,"velocity":110,"programNumber":0},{"time":93450,"duration":150,"noteNumber":64,"velocity":110,"programNumber":0},{"time":93600,"duration":450,"noteNumber":70,"velocity":110,"programNumber":0},{"time":94050,"duration":300,"noteNumber":70,"velocity":110,"programNumber":0},{"time":94350,"duration":150,"noteNumber":70,"velocity":110,"programNumber":0},{"time":94500,"duration":450,"noteNumber":70,"velocity":110,"programNumber":0},{"time":94950,"duration":300,"noteNumber":70,"velocity":110,"programNumber":0},{"time":95250,"duration":75,"noteNumber":69,"velocity":110,"programNumber":0},{"time":95325,"duration":75,"noteNumber":67,"velocity":110,"programNumber":0},{"time":95400,"duration":450,"noteNumber":65,"velocity":110,"programNumber":0},{"time":97500,"duration":150,"noteNumber":60,"velocity":110,"programNumber":0},{"time":97650,"duration":300,"noteNumber":72,"velocity":110,"programNumber":0},{"time":97950,"duration":150,"noteNumber":72,"velocity":110,"programNumber":0},{"time":98100,"duration":300,"noteNumber":72,"velocity":110,"programNumber":0},{"time":98400,"duration":150,"noteNumber":72,"velocity":110,"programNumber":0},{"time":98550,"duration":300,"noteNumber":72,"velocity":110,"programNumber":0},{"time":98850,"duration":150,"noteNumber":72,"velocity":110,"programNumber":0},{"time":99000,"duration":450,"noteNumber":71,"velocity":110,"programNumber":0},{"time":99450,"duration":300,"noteNumber":69,"velocity":110,"programNumber":0},{"time":99750,"duration":150,"noteNumber":69,"velocity":110,"programNumber":0},{"time":99900,"duration":300,"noteNumber":69,"velocity":110,"programNumber":0},{"time":100200,"duration":150,"noteNumber":67,"velocity":110,"programNumber":0},{"time":100350,"duration":300,"noteNumber":67,"velocity":110,"programNumber":0},{"time":100650,"duration":150,"noteNumber":64,"velocity":110,"programNumber":0},{"time":100800,"duration":450,"noteNumber":70,"velocity":110,"programNumber":0},{"time":101250,"duration":300,"noteNumber":70,"velocity":110,"programNumber":0},{"time":101550,"duration":150,"noteNumber":70,"velocity":110,"programNumber":0},{"time":101700,"duration":450,"noteNumber":70,"velocity":110,"programNumber":0},{"time":102150,"duration":300,"noteNumber":70,"velocity":110,"programNumber":0},{"time":102450,"duration":75,"noteNumber":69,"velocity":110,"programNumber":0},{"time":102525,"duration":75,"noteNumber":67,"velocity":110,"programNumber":0},{"time":102600,"duration":450,"noteNumber":65,"velocity":110,"programNumber":0},{"time":104700,"duration":150,"noteNumber":64,"velocity":110,"programNumber":0},{"time":104850,"duration":300,"noteNumber":64,"velocity":110,"programNumber":0},{"time":105150,"duration":150,"noteNumber":64,"velocity":110,"programNumber":0},{"time":105300,"duration":300,"noteNumber":67,"velocity":110,"programNumber":0},{"time":105600,"duration":150,"noteNumber":67,"velocity":110,"programNumber":0},{"time":105750,"duration":300,"noteNumber":71,"velocity":110,"programNumber":0},{"time":106050,"duration":150,"noteNumber":71,"velocity":110,"programNumber":0},{"time":106200,"duration":450,"noteNumber":72,"velocity":110,"programNumber":0},{"time":106650,"duration":300,"noteNumber":69,"velocity":110,"programNumber":0},{"time":106950,"duration":150,"noteNumber":64,"velocity":110,"programNumber":0},{"time":107100,"duration":300,"noteNumber":67,"velocity":110,"programNumber":0},{"time":107400,"duration":150,"noteNumber":69,"velocity":110,"programNumber":0},{"time":107850,"duration":150,"noteNumber":64,"velocity":110,"programNumber":0},{"time":108000,"duration":450,"noteNumber":64,"velocity":110,"programNumber":0},{"time":108450,"duration":450,"noteNumber":64,"velocity":110,"programNumber":0},{"time":108900,"duration":300,"noteNumber":67,"velocity":110,"programNumber":0},{"time":109200,"duration":150,"noteNumber":67,"velocity":110,"programNumber":0},{"time":109350,"duration":300,"noteNumber":71,"velocity":110,"programNumber":0},{"time":109650,"duration":150,"noteNumber":71,"velocity":110,"programNumber":0},{"time":109800,"duration":450,"noteNumber":72,"velocity":110,"programNumber":0},{"time":110250,"duration":300,"noteNumber":69,"velocity":110,"programNumber":0},{"time":110550,"duration":150,"noteNumber":64,"velocity":110,"programNumber":0},{"time":110700,"duration":300,"noteNumber":67,"velocity":110,"programNumber":0},{"time":111000,"duration":150,"noteNumber":69,"velocity":110,"programNumber":0},{"time":111600,"duration":450,"noteNumber":72,"velocity":110,"programNumber":0},{"time":112050,"duration":450,"noteNumber":72,"velocity":110,"programNumber":0},{"time":112500,"duration":450,"noteNumber":71,"velocity":110,"programNumber":0},{"time":112950,"duration":450,"noteNumber":71,"velocity":110,"programNumber":0},{"time":113400,"duration":450,"noteNumber":70,"velocity":110,"programNumber":0},{"time":113850,"duration":450,"noteNumber":70,"velocity":110,"programNumber":0},{"time":114300,"duration":300,"noteNumber":69,"velocity":110,"programNumber":0},{"time":114600,"duration":150,"noteNumber":69,"velocity":110,"programNumber":0},{"time":114750,"duration":300,"noteNumber":69,"velocity":110,"programNumber":0},{"time":115050,"duration":150,"noteNumber":67,"velocity":110,"programNumber":0},{"time":115200,"duration":450,"noteNumber":69,"velocity":110,"programNumber":0},{"time":115650,"duration":300,"noteNumber":67,"velocity":110,"programNumber":0},{"time":115950,"duration":150,"noteNumber":62,"velocity":110,"programNumber":0},{"time":116100,"duration":450,"noteNumber":64,"velocity":110,"programNumber":0},{"time":116550,"duration":300,"noteNumber":62,"velocity":110,"programNumber":0},{"time":116850,"duration":450,"noteNumber":62,"velocity":110,"programNumber":0},{"time":117300,"duration":300,"noteNumber":60,"velocity":110,"programNumber":0},{"time":138600,"duration":3600,"noteNumber":76,"velocity":110,"programNumber":0},{"time":142650,"duration":300,"noteNumber":72,"velocity":110,"programNumber":0},{"time":142950,"duration":150,"noteNumber":72,"velocity":110,"programNumber":0},{"time":143100,"duration":300,"noteNumber":72,"velocity":110,"programNumber":0},{"time":143400,"duration":150,"noteNumber":72,"velocity":110,"programNumber":0},{"time":143550,"duration":300,"noteNumber":72,"velocity":110,"programNumber":0},{"time":143850,"duration":150,"noteNumber":72,"velocity":110,"programNumber":0},{"time":144000,"duration":450,"noteNumber":71,"velocity":110,"programNumber":0},{"time":144450,"duration":450,"noteNumber":69,"velocity":110,"programNumber":0},{"time":144900,"duration":300,"noteNumber":69,"velocity":110,"programNumber":0},{"time":145200,"duration":150,"noteNumber":67,"velocity":110,"programNumber":0},{"time":145350,"duration":300,"noteNumber":67,"velocity":110,"programNumber":0},{"time":145650,"duration":150,"noteNumber":64,"velocity":110,"programNumber":0},{"time":145800,"duration":450,"noteNumber":70,"velocity":110,"programNumber":0},{"time":146250,"duration":300,"noteNumber":70,"velocity":110,"programNumber":0},{"time":146550,"duration":150,"noteNumber":70,"velocity":110,"programNumber":0},{"time":146700,"duration":450,"noteNumber":70,"velocity":110,"programNumber":0},{"time":147150,"duration":300,"noteNumber":70,"velocity":110,"programNumber":0},{"time":147450,"duration":75,"noteNumber":69,"velocity":110,"programNumber":0},{"time":147525,"duration":75,"noteNumber":67,"velocity":110,"programNumber":0},{"time":147600,"duration":450,"noteNumber":65,"velocity":110,"programNumber":0},{"time":149700,"duration":150,"noteNumber":60,"velocity":110,"programNumber":0},{"time":149850,"duration":300,"noteNumber":72,"velocity":110,"programNumber":0},{"time":150150,"duration":150,"noteNumber":72,"velocity":110,"programNumber":0},{"time":150300,"duration":300,"noteNumber":72,"velocity":110,"programNumber":0},{"time":150600,"duration":150,"noteNumber":72,"velocity":110,"programNumber":0},{"time":150750,"duration":300,"noteNumber":72,"velocity":110,"programNumber":0},{"time":151050,"duration":150,"noteNumber":72,"velocity":110,"programNumber":0},{"time":151200,"duration":450,"noteNumber":71,"velocity":110,"programNumber":0},{"time":151650,"duration":300,"noteNumber":69,"velocity":110,"programNumber":0},{"time":151950,"duration":150,"noteNumber":69,"velocity":110,"programNumber":0},{"time":152100,"duration":300,"noteNumber":69,"velocity":110,"programNumber":0},{"time":152400,"duration":150,"noteNumber":67,"velocity":110,"programNumber":0},{"time":152550,"duration":300,"noteNumber":67,"velocity":110,"programNumber":0},{"time":152850,"duration":150,"noteNumber":64,"velocity":110,"programNumber":0},{"time":153000,"duration":450,"noteNumber":70,"velocity":110,"programNumber":0},{"time":153450,"duration":300,"noteNumber":70,"velocity":110,"programNumber":0},{"time":153750,"duration":150,"noteNumber":70,"velocity":110,"programNumber":0},{"time":153900,"duration":450,"noteNumber":70,"velocity":110,"programNumber":0},{"time":154350,"duration":300,"noteNumber":70,"velocity":110,"programNumber":0},{"time":154650,"duration":75,"noteNumber":69,"velocity":110,"programNumber":0},{"time":154725,"duration":75,"noteNumber":67,"velocity":110,"programNumber":0},{"time":154800,"duration":450,"noteNumber":65,"velocity":110,"programNumber":0},{"time":157050,"duration":300,"noteNumber":64,"velocity":110,"programNumber":0},{"time":157350,"duration":150,"noteNumber":64,"velocity":110,"programNumber":0},{"time":157500,"duration":300,"noteNumber":67,"velocity":110,"programNumber":0},{"time":157800,"duration":150,"noteNumber":67,"velocity":110,"programNumber":0},{"time":157950,"duration":300,"noteNumber":71,"velocity":110,"programNumber":0},{"time":158250,"duration":150,"noteNumber":71,"velocity":110,"programNumber":0},{"time":158400,"duration":450,"noteNumber":72,"velocity":110,"programNumber":0},{"time":158850,"duration":300,"noteNumber":69,"velocity":110,"programNumber":0},{"time":159150,"duration":150,"noteNumber":64,"velocity":110,"programNumber":0},{"time":159300,"duration":300,"noteNumber":67,"velocity":110,"programNumber":0},{"time":159600,"duration":150,"noteNumber":69,"velocity":110,"programNumber":0},{"time":160200,"duration":300,"noteNumber":64,"velocity":110,"programNumber":0},{"time":160500,"duration":150,"noteNumber":64,"velocity":110,"programNumber":0},{"time":160650,"duration":300,"noteNumber":64,"velocity":110,"programNumber":0},{"time":160950,"duration":150,"noteNumber":64,"velocity":110,"programNumber":0},{"time":161100,"duration":300,"noteNumber":67,"velocity":110,"programNumber":0},{"time":161400,"duration":150,"noteNumber":67,"velocity":110,"programNumber":0},{"time":161550,"duration":300,"noteNumber":71,"velocity":110,"programNumber":0},{"time":161850,"duration":150,"noteNumber":71,"velocity":110,"programNumber":0},{"time":162000,"duration":450,"noteNumber":72,"velocity":110,"programNumber":0},{"time":162450,"duration":300,"noteNumber":69,"velocity":110,"programNumber":0},{"time":162750,"duration":150,"noteNumber":64,"velocity":110,"programNumber":0},{"time":162900,"duration":300,"noteNumber":67,"velocity":110,"programNumber":0},{"time":163200,"duration":150,"noteNumber":69,"velocity":110,"programNumber":0},{"time":163350,"duration":300,"noteNumber":67,"velocity":110,"programNumber":0},{"time":163650,"duration":150,"noteNumber":67,"velocity":110,"programNumber":0},{"time":163800,"duration":450,"noteNumber":72,"velocity":110,"programNumber":0},{"time":164250,"duration":450,"noteNumber":72,"velocity":110,"programNumber":0},{"time":164700,"duration":450,"noteNumber":71,"velocity":110,"programNumber":0},{"time":165150,"duration":450,"noteNumber":71,"velocity":110,"programNumber":0},{"time":165600,"duration":450,"noteNumber":70,"velocity":110,"programNumber":0},{"time":166050,"duration":450,"noteNumber":70,"velocity":110,"programNumber":0},{"time":166500,"duration":300,"noteNumber":69,"velocity":110,"programNumber":0},{"time":166800,"duration":150,"noteNumber":69,"velocity":110,"programNumber":0},{"time":166950,"duration":300,"noteNumber":69,"velocity":110,"programNumber":0},{"time":167250,"duration":150,"noteNumber":67,"velocity":110,"programNumber":0},{"time":167400,"duration":450,"noteNumber":69,"velocity":110,"programNumber":0},{"time":167850,"duration":300,"noteNumber":67,"velocity":110,"programNumber":0},{"time":168150,"duration":150,"noteNumber":62,"velocity":110,"programNumber":0},{"time":168300,"duration":450,"noteNumber":64,"velocity":110,"programNumber":0},{"time":168750,"duration":300,"noteNumber":62,"velocity":110,"programNumber":0},{"time":169050,"duration":450,"noteNumber":62,"velocity":110,"programNumber":0},{"time":169500,"duration":300,"noteNumber":60,"velocity":110,"programNumber":0},{"time":171000,"duration":300,"noteNumber":72,"velocity":110,"programNumber":0},{"time":171300,"duration":150,"noteNumber":72,"velocity":110,"programNumber":0},{"time":171450,"duration":300,"noteNumber":72,"velocity":110,"programNumber":0},{"time":171750,"duration":150,"noteNumber":72,"velocity":110,"programNumber":0},{"time":171900,"duration":300,"noteNumber":71,"velocity":110,"programNumber":0},{"time":172200,"duration":150,"noteNumber":71,"velocity":110,"programNumber":0},{"time":172350,"duration":300,"noteNumber":71,"velocity":110,"programNumber":0},{"time":172650,"duration":150,"noteNumber":67,"velocity":110,"programNumber":0},{"time":172800,"duration":450,"noteNumber":70,"velocity":110,"programNumber":0},{"time":173250,"duration":450,"noteNumber":70,"velocity":110,"programNumber":0},{"time":173700,"duration":300,"noteNumber":69,"velocity":110,"programNumber":0},{"time":174000,"duration":150,"noteNumber":67,"velocity":110,"programNumber":0},{"time":174150,"duration":300,"noteNumber":69,"velocity":110,"programNumber":0},{"time":174450,"duration":150,"noteNumber":67,"velocity":110,"programNumber":0},{"time":174600,"duration":450,"noteNumber":69,"velocity":110,"programNumber":0},{"time":175050,"duration":300,"noteNumber":67,"velocity":110,"programNumber":0},{"time":175350,"duration":150,"noteNumber":69,"velocity":110,"programNumber":0},{"time":175500,"duration":450,"noteNumber":64,"velocity":110,"programNumber":0},{"time":175950,"duration":300,"noteNumber":62,"velocity":110,"programNumber":0},{"time":176250,"duration":75,"noteNumber":64,"velocity":110,"programNumber":0},{"time":176325,"duration":75,"noteNumber":62,"velocity":110,"programNumber":0},{"time":176400,"duration":300,"noteNumber":60,"velocity":110,"programNumber":0}]]}