{"tracks":[[{"time":1875,"duration":234.375,"noteNumber":61,"velocity":102,"programNumber":30},{"time":2109.375,"duration":234.375,"noteNumber":73,"velocity":102,"programNumber":30},{"time":2343.75,"duration":234.375,"noteNumber":68,"velocity":102,"programNumber":30},{"time":2578.125,"duration":234.375,"noteNumber":66,"velocity":102,"programNumber":30},{"time":2812.5,"duration":234.375,"noteNumber":78,"velocity":102,"programNumber":30},{"time":3046.875,"duration":234.375,"noteNumber":68,"velocity":102,"programNumber":30},{"time":3281.25,"duration":234.375,"noteNumber":77,"velocity":102,"programNumber":30},{"time":3515.625,"duration":234.375,"noteNumber":68,"velocity":102,"programNumber":30},{"time":3750,"duration":234.375,"noteNumber":61,"velocity":102,"programNumber":30},{"time":3984.375,"duration":234.375,"noteNumber":73,"velocity":102,"programNumber":30},{"time":4218.75,"duration":234.375,"noteNumber":68,"velocity":102,"programNumber":30},{"time":4453.125,"duration":234.375,"noteNumber":66,"velocity":102,"programNumber":30},{"time":4687.5,"duration":234.375,"noteNumber":78,"velocity":102,"programNumber":30},{"time":4921.875,"duration":234.375,"noteNumber":68,"velocity":102,"programNumber":30},{"time":5156.25,"duration":234.375,"noteNumber":77,"velocity":102,"programNumber":30},{"time":5390.625,"duration":234.375,"noteNumber":68,"velocity":102,"programNumber":30},{"time":5625,"duration":234.375,"noteNumber":63,"velocity":102,"programNumber":30},{"time":5859.375,"duration":234.375,"noteNumber":73,"velocity":102,"programNumber":30},{"time":6093.75,"duration":234.375,"noteNumber":68,"velocity":102,"programNumber":30},{"time":6328.125,"duration":234.375,"noteNumber":66,"velocity":102,"programNumber":30},{"time":6562.5,"duration":234.375,"noteNumber":78,"velocity":102,"programNumber":30},{"time":6796.875,"duration":234.375,"noteNumber":68,"velocity":102,"programNumber":30},{"time":7031.25,"duration":234.375,"noteNumber":77,"velocity":102,"programNumber":30},{"time":7265.625,"duration":234.375,"noteNumber":68,"velocity":102,"programNumber":30},{"time":7500,"duration":234.375,"noteNumber":63,"velocity":102,"programNumber":30},{"time":7734.375,"duration":234.375,"noteNumber":73,"velocity":102,"programNumber":30},{"time":7968.75,"duration":234.375,"noteNumber":68,"velocity":102,"programNumber":30},{"time":8203.125,"duration":234.375,"noteNumber":66,"velocity":102,"programNumber":30},{"time":8437.5,"duration":234.375,"noteNumber":78,"velocity":102,"programNumber":30},{"time":8671.875,"duration":234.375,"noteNumber":68,"velocity":102,"programNumber":30},{"time":8906.25,"duration":234.375,"noteNumber":77,"velocity":102,"programNumber":30},{"time":9140.625,"duration":234.375,"noteNumber":68,"velocity":102,"programNumber":30},{"time":9375,"duration":234.375,"noteNumber":66,"velocity":102,"programNumber":30},{"time":9609.375,"duration":234.375,"noteNumber":73,"velocity":102,"programNumber":30},{"time":9843.75,"duration":234.375,"noteNumber":68,"velocity":102,"programNumber":30},{"time":10078.125,"duration":234.375,"noteNumber":66,"velocity":102,"programNumber":30},{"time":10312.5,"duration":234.375,"noteNumber":78,"velocity":102,"programNumber":30},{"time":10546.875,"duration":234.375,"noteNumber":68,"velocity":102,"programNumber":30},{"time":10781.25,"duration":234.375,"noteNumber":77,"velocity":102,"programNumber":30},{"time":11015.625,"duration":234.375,"noteNumber":68,"velocity":102,"programNumber":30},{"time":11250,"duration":234.375,"noteNumber":66,"velocity":102,"programNumber":30},{"time":11484.375,"duration":234.375,"noteNumber":73,"velocity":102,"programNumber":30},{"time":11718.75,"duration":234.375,"noteNumber":68,"velocity":102,"programNumber":30},{"time":11953.125,"duration":234.375,"noteNumber":66,"velocity":102,"programNumber":30},{"time":12187.5,"duration":234.375,"noteNumber":78,"velocity":102,"programNumber":30},{"time":12421.875,"duration":234.375,"noteNumber":68,"velocity":102,"programNumber":30},{"time":12656.25,"duration":234.375,"noteNumber":77,"velocity":102,"programNumber":30},{"time":12890.625,"duration":234.375,"noteNumber":68,"velocity":102,"programNumber":30},{"time":13125,"duration":234.375,"noteNumber":61,"velocity":102,"programNumber":30},{"time":13359.375,"duration":234.375,"noteNumber":73,"velocity":102,"programNumber":30},{"time":13593.75,"duration":234.375,"noteNumber":68,"velocity":102,"programNumber":30},{"time":13828.125,"duration":234.375,"noteNumber":66,"velocity":102,"programNumber":30},{"time":14062.5,"duration":234.375,"noteNumber":78,"velocity":102,"programNumber":30},{"time":14296.875,"duration":234.375,"noteNumber":68,"velocity":102,"programNumber":30},{"time":14531.25,"duration":234.375,"noteNumber":77,"velocity":102,"programNumber":30},{"time":14765.625,"duration":234.375,"noteNumber":68,"velocity":102,"programNumber":30},{"time":15000,"duration":234.375,"noteNumber":61,"velocity":102,"programNumber":30},{"time":15234.375,"duration":234.375,"noteNumber":73,"velocity":102,"programNumber":30},{"time":15468.75,"duration":234.375,"noteNumber":68,"velocity":102,"programNumber":30},{"time":15703.125,"duration":234.375,"noteNumber":66,"velocity":102,"programNumber":30},{"time":15937.5,"duration":234.375,"noteNumber":78,"velocity":102,"programNumber":30},{"time":16171.875,"duration":234.375,"noteNumber":68,"velocity":102,"programNumber":30},{"time":16406.25,"duration":234.375,"noteNumber":77,"velocity":102,"programNumber":30},{"time":16640.625,"duration":234.375,"noteNumber":68,"velocity":102,"programNumber":30},{"time":16875,"duration":234.375,"noteNumber":61,"velocity":102,"programNumber":30},{"time":17109.375,"duration":234.375,"noteNumber":73,"velocity":102,"programNumber":30},{"time":17343.75,"duration":234.375,"noteNumber":68,"velocity":102,"programNumber":30},{"time":17578.125,"duration":234.375,"noteNumber":66,"velocity":102,"programNumber":30},{"time":17812.5,"duration":234.375,"noteNumber":78,"velocity":102,"programNumber":30},{"time":18046.875,"duration":234.375,"noteNumber":68,"velocity":102,"programNumber":30},{"time":18281.25,"duration":234.375,"noteNumber":77,"velocity":102,"programNumber":30},{"time":18515.625,"duration":234.375,"noteNumber":68,"velocity":102,"programNumber":30},{"time":18750,"duration":234.375,"noteNumber":61,"velocity":102,"programNumber":30},{"time":18984.375,"duration":234.375,"noteNumber":73,"velocity":102,"programNumber":30},{"time":19218.75,"duration":234.375,"noteNumber":68,"velocity":102,"programNumber":30},{"time":19453.125,"duration":234.375,"noteNumber":66,"velocity":102,"programNumber":30},{"time":19687.5,"duration":234.375,"noteNumber":78,"velocity":102,"programNumber":30},{"time":19921.875,"duration":234.375,"noteNumber":68,"velocity":102,"programNumber":30},{"time":20156.25,"duration":234.375,"noteNumber":77,"velocity":102,"programNumber":30},{"time":20390.625,"duration":234.375,"noteNumber":68,"velocity":102,"programNumber":30},{"time":20625,"duration":234.375,"noteNumber":63,"velocity":102,"programNumber":30},{"time":20859.375,"duration":234.375,"noteNumber":73,"velocity":102,"programNumber":30},{"time":21093.75,"duration":234.375,"noteNumber":68,"velocity":102,"programNumber":30},{"time":21328.125,"duration":234.375,"noteNumber":66,"velocity":102,"programNumber":30},{"time":21562.5,"duration":234.375,"noteNumber":78,"velocity":102,"programNumber":30},{"time":21796.875,"duration":234.375,"noteNumber":68,"velocity":102,"programNumber":30},{"time":22031.25,"duration":234.375,"noteNumber":77,"velocity":102,"programNumber":30},{"time":22265.625,"duration":234.375,"noteNumber":68,"velocity":102,"programNumber":30},{"time":22500,"duration":234.375,"noteNumber":63,"velocity":102,"programNumber":30},{"time":22734.375,"duration":234.375,"noteNumber":73,"velocity":102,"programNumber":30},{"time":22968.75,"duration":234.375,"noteNumber":68,"velocity":102,"programNumber":30},{"time":23203.125,"duration":234.375,"noteNumber":66,"velocity":102,"programNumber":30},{"time":23437.5,"duration":234.375,"noteNumber":78,"velocity":102,"programNumber":30},{"time":23671.875,"duration":234.375,"noteNumber":68,"velocity":102,"programNumber":30},{"time":23906.25,"duration":234.375,"noteNumber":77,"velocity":102,"programNumber":30},{"time":24140.625,"duration":234.375,"noteNumber":68,"velocity":102,"programNumber":30},{"time":24375,"duration":234.375,"noteNumber":66,"velocity":102,"programNumber":30},{"time":24609.375,"duration":234.375,"noteNumber":73,"velocity":102,"programNumber":30},{"time":24843.75,"duration":234.375,"noteNumber":68,"velocity":102,"programNumber":30},{"time":25078.125,"duration":234.375,"noteNumber":66,"velocity":102,"programNumber":30},{"time":25312.5,"duration":234.375,"noteNumber":78,"velocity":102,"programNumber":30},{"time":25546.875,"duration":234.375,"noteNumber":68,"velocity":102,"programNumber":30},{"time":25781.25,"duration":234.375,"noteNumber":77,"velocity":102,"programNumber":30},{"time":26015.625,"duration":234.375,"noteNumber":68,"velocity":102,"programNumber":30},{"time":26250,"duration":234.375,"noteNumber":66,"velocity":102,"programNumber":30},{"time":26484.375,"duration":234.375,"noteNumber":73,"velocity":102,"programNumber":30},{"time":26718.75,"duration":234.375,"noteNumber":68,"velocity":102,"programNumber":30},{"time":26953.125,"duration":234.375,"noteNumber":66,"velocity":102,"programNumber":30},{"time":27187.5,"duration":234.375,"noteNumber":78,"velocity":102,"programNumber":30},{"time":27421.875,"duration":234.375,"noteNumber":68,"velocity":102,"programNumber":30},{"time":27656.25,"duration":234.375,"noteNumber":77,"velocity":102,"programNumber":30},{"time":27890.625,"duration":234.375,"noteNumber":68,"velocity":102,"programNumber":30},{"time":28125,"duration":234.375,"noteNumber":61,"velocity":102,"programNumber":30},{"time":28359.375,"duration":234.375,"noteNumber":73,"velocity":102,"programNumber":30},{"time":28593.75,"duration":234.375,"noteNumber":68,"velocity":102,"programNumber":30},{"time":28828.125,"duration":234.375,"noteNumber":66,"velocity":102,"programNumber":30},{"time":29062.5,"duration":234.375,"noteNumber":78,"velocity":102,"programNumber":30},{"time":29296.875,"duration":234.375,"noteNumber":68,"velocity":102,"programNumber":30},{"time":29531.25,"duration":234.375,"noteNumber":77,"velocity":102,"programNumber":30},{"time":29765.625,"duration":234.375,"noteNumber":68,"velocity":102,"programNumber":30},{"time":30000,"duration":234.375,"noteNumber":61,"velocity":102,"programNumber":30},{"time":30234.375,"duration":234.375,"noteNumber":73,"velocity":102,"programNumber":30},{"time":30468.75,"duration":234.375,"noteNumber":68,"velocity":102,"programNumber":30},{"time":30703.125,"duration":234.375,"noteNumber":66,"velocity":102,"programNumber":30},{"time":30937.5,"duration":234.375,"noteNumber":78,"velocity":102,"programNumber":30},{"time":31171.875,"duration":234.375,"noteNumber":68,"velocity":102,"programNumber":30},{"time":31406.25,"duration":234.375,"noteNumber":77,"velocity":102,"programNumber":30},{"time":31640.625,"duration":234.375,"noteNumber":68,"velocity":102,"programNumber":30},{"time":31875,"duration":234.375,"noteNumber":61,"velocity":102,"programNumber":30},{"time":32109.375,"duration":234.375,"noteNumber":73,"velocity":102,"programNumber":30},{"time":32343.75,"duration":234.375,"noteNumber":68,"velocity":102,"programNumber":30},{"time":32578.125,"duration":234.375,"noteNumber":66,"velocity":102,"programNumber":30},{"time":32812.5,"duration":234.375,"noteNumber":78,"velocity":102,"programNumber":30},{"time":33046.875,"duration":234.375,"noteNumber":68,"velocity":102,"programNumber":30},{"time":33281.25,"duration":234.375,"noteNumber":77,"velocity":102,"programNumber":30},{"time":33515.625,"duration":234.375,"noteNumber":68,"velocity":102,"programNumber":30},{"time":33750,"duration":234.375,"noteNumber":61,"velocity":102,"programNumber":30},{"time":33984.375,"duration":234.375,"noteNumber":73,"velocity":102,"programNumber":30},{"time":34218.75,"duration":234.375,"noteNumber":68,"velocity":102,"programNumber":30},{"time":34453.125,"duration":234.375,"noteNumber":66,"velocity":102,"programNumber":30},{"time":34687.5,"duration":234.375,"noteNumber":78,"velocity":102,"programNumber":30},{"time":34921.875,"duration":234.375,"noteNumber":68,"velocity":102,"programNumber":30},{"time":35156.25,"duration":234.375,"noteNumber":77,"velocity":102,"programNumber":30},{"time":35390.625,"duration":234.375,"noteNumber":68,"velocity":102,"programNumber":30},{"time":35625,"duration":234.375,"noteNumber":63,"velocity":102,"programNumber":30},{"time":35859.375,"duration":234.375,"noteNumber":73,"velocity":102,"programNumber":30},{"time":36093.75,"duration":234.375,"noteNumber":68,"velocity":102,"programNumber":30},{"time":36328.125,"duration":234.375,"noteNumber":66,"velocity":102,"programNumber":30},{"time":36562.5,"duration":234.375,"noteNumber":78,"velocity":102,"programNumber":30},{"time":36796.875,"duration":234.375,"noteNumber":68,"velocity":102,"programNumber":30},{"time":37031.25,"duration":234.375,"noteNumber":77,"velocity":102,"programNumber":30},{"time":37265.625,"duration":234.375,"noteNumber":68,"velocity":102,"programNumber":30},{"time":37500,"duration":234.375,"noteNumber":63,"velocity":102,"programNumber":30},{"time":37734.375,"duration":234.375,"noteNumber":73,"velocity":102,"programNumber":30},{"time":37968.75,"duration":234.375,"noteNumber":68,"velocity":102,"programNumber":30},{"time":38203.125,"duration":234.375,"noteNumber":66,"velocity":102,"programNumber":30},{"time":38437.5,"duration":234.375,"noteNumber":78,"velocity":102,"programNumber":30},{"time":38671.875,"duration":234.375,"noteNumber":68,"velocity":102,"programNumber":30},{"time":38906.25,"duration":234.375,"noteNumber":77,"velocity":102,"programNumber":30},{"time":39140.625,"duration":234.375,"noteNumber":68,"velocity":102,"programNumber":30},{"time":39375,"duration":234.375,"noteNumber":66,"velocity":102,"programNumber":30},{"time":39609.375,"duration":234.375,"noteNumber":73,"velocity":102,"programNumber":30},{"time":39843.75,"duration":234.375,"noteNumber":68,"velocity":102,"programNumber":30},{"time":40078.125,"duration":234.375,"noteNumber":66,"velocity":102,"programNumber":30},{"time":40312.5,"duration":234.375,"noteNumber":78,"velocity":102,"programNumber":30},{"time":40546.875,"duration":234.375,"noteNumber":68,"velocity":102,"programNumber":30},{"time":40781.25,"duration":234.375,"noteNumber":77,"velocity":102,"programNumber":30},{"time":41015.625,"duration":234.375,"noteNumber":68,"velocity":102,"programNumber":30},{"time":41250,"duration":234.375,"noteNumber":66,"velocity":102,"programNumber":30},{"time":41484.375,"duration":234.375,"noteNumber":73,"velocity":102,"programNumber":30},{"time":41718.75,"duration":234.375,"noteNumber":68,"velocity":102,"programNumber":30},{"time":41953.125,"duration":234.375,"noteNumber":66,"velocity":102,"programNumber":30},{"time":42187.5,"duration":234.375,"noteNumber":78,"velocity":102,"programNumber":30},{"time":42421.875,"duration":234.375,"noteNumber":68,"velocity":102,"programNumber":30},{"time":42656.25,"duration":234.375,"noteNumber":77,"velocity":102,"programNumber":30},{"time":42890.625,"duration":234.375,"noteNumber":68,"velocity":102,"programNumber":30},{"time":43125,"duration":234.375,"noteNumber":75,"velocity":102,"programNumber":30},{"time":43359.375,"duration":234.375,"noteNumber":68,"velocity":102,"programNumber":30},{"time":43593.75,"duration":234.375,"noteNumber":73,"velocity":102,"programNumber":30},{"time":43828.125,"duration":234.375,"noteNumber":68,"velocity":102,"programNumber":30},{"time":44062.5,"duration":234.375,"noteNumber":75,"velocity":102,"programNumber":30},{"time":44296.875,"duration":234.375,"noteNumber":68,"velocity":102,"programNumber":30},{"time":44531.25,"duration":234.375,"noteNumber":77,"velocity":102,"programNumber":30},{"time":44765.625,"duration":234.375,"noteNumber":68,"velocity":102,"programNumber":30},{"time":45000,"duration":234.375,"noteNumber":78,"velocity":102,"programNumber":30},{"time":45234.375,"duration":234.375,"noteNumber":68,"velocity":102,"programNumber":30},{"time":45468.75,"duration":234.375,"noteNumber":77,"velocity":102,"programNumber":30},{"time":45703.125,"duration":234.375,"noteNumber":68,"velocity":102,"programNumber":30},{"time":45937.5,"duration":234.375,"noteNumber":75,"velocity":102,"programNumber":30},{"time":46171.875,"duration":234.375,"noteNumber":68,"velocity":102,"programNumber":30},{"time":46406.25,"duration":468.75,"noteNumber":73,"velocity":102,"programNumber":30},{"time":76875,"duration":234.375,"noteNumber":60,"velocity":102,"programNumber":30},{"time":77109.375,"duration":234.375,"noteNumber":72,"velocity":102,"programNumber":30},{"time":77343.75,"duration":234.375,"noteNumber":68,"velocity":102,"programNumber":30},{"time":77578.125,"duration":234.375,"noteNumber":63,"velocity":102,"programNumber":30},{"time":77812.5,"duration":234.375,"noteNumber":73,"velocity":102,"programNumber":30},{"time":78046.875,"duration":234.375,"noteNumber":68,"velocity":102,"programNumber":30},{"time":78281.25,"duration":234.375,"noteNumber":72,"velocity":102,"programNumber":30},{"time":78515.625,"duration":234.375,"noteNumber":68,"velocity":102,"programNumber":30},{"time":78750,"duration":234.375,"noteNumber":59,"velocity":102,"programNumber":30},{"time":78984.375,"duration":234.375,"noteNumber":71,"velocity":102,"programNumber":30},{"time":79218.75,"duration":234.375,"noteNumber":66,"velocity":102,"programNumber":30},{"time":79453.125,"duration":234.375,"noteNumber":64,"velocity":102,"programNumber":30},{"time":79687.5,"duration":234.375,"noteNumber":75,"velocity":102,"programNumber":30},{"time":79921.875,"duration":234.375,"noteNumber":66,"velocity":102,"programNumber":30},{"time":80156.25,"duration":234.375,"noteNumber":73,"velocity":102,"programNumber":30},{"time":80390.625,"duration":234.375,"noteNumber":66,"velocity":102,"programNumber":30},{"time":80625,"duration":234.375,"noteNumber":61,"velocity":102,"programNumber":30},{"time":80859.375,"duration":234.375,"noteNumber":73,"velocity":102,"programNumber":30},{"time":81093.75,"duration":234.375,"noteNumber":68,"velocity":102,"programNumber":30},{"time":81328.125,"duration":234.375,"noteNumber":66,"velocity":102,"programNumber":30},{"time":81562.5,"duration":234.375,"noteNumber":78,"velocity":102,"programNumber":30},{"time":81796.875,"duration":234.375,"noteNumber":68,"velocity":102,"programNumber":30},{"time":82031.25,"duration":234.375,"noteNumber":77,"velocity":102,"programNumber":30},{"time":82265.625,"duration":234.375,"noteNumber":68,"velocity":102,"programNumber":30},{"time":82500,"duration":234.375,"noteNumber":61,"velocity":102,"programNumber":30},{"time":82734.375,"duration":234.375,"noteNumber":73,"velocity":102,"programNumber":30},{"time":82968.75,"duration":234.375,"noteNumber":68,"velocity":102,"programNumber":30},{"time":83203.125,"duration":234.375,"noteNumber":66,"velocity":102,"programNumber":30},{"time":83437.5,"duration":234.375,"noteNumber":78,"velocity":102,"programNumber":30},{"time":83671.875,"duration":234.375,"noteNumber":68,"velocity":102,"programNumber":30},{"time":83906.25,"duration":234.375,"noteNumber":77,"velocity":102,"programNumber":30},{"time":84140.625,"duration":234.375,"noteNumber":68,"velocity":102,"programNumber":30},{"time":84375,"duration":234.375,"noteNumber":60,"velocity":102,"programNumber":30},{"time":84609.375,"duration":234.375,"noteNumber":72,"velocity":102,"programNumber":30},{"time":84843.75,"duration":234.375,"noteNumber":68,"velocity":102,"programNumber":30},{"time":85078.125,"duration":234.375,"noteNumber":63,"velocity":102,"programNumber":30},{"time":85312.5,"duration":234.375,"noteNumber":73,"velocity":102,"programNumber":30},{"time":85546.875,"duration":234.375,"noteNumber":68,"velocity":102,"programNumber":30},{"time":85781.25,"duration":234.375,"noteNumber":72,"velocity":102,"programNumber":30},{"time":86015.625,"duration":234.375,"noteNumber":68,"velocity":102,"programNumber":30},{"time":86250,"duration":234.375,"noteNumber":59,"velocity":102,"programNumber":30},{"time":86484.375,"duration":234.375,"noteNumber":71,"velocity":102,"programNumber":30},{"time":86718.75,"duration":234.375,"noteNumber":66,"velocity":102,"programNumber":30},{"time":86953.125,"duration":234.375,"noteNumber":64,"velocity":102,"programNumber":30},{"time":87187.5,"duration":234.375,"noteNumber":75,"velocity":102,"programNumber":30},{"time":87421.875,"duration":234.375,"noteNumber":66,"velocity":102,"programNumber":30},{"time":87656.25,"duration":234.375,"noteNumber":73,"velocity":102,"programNumber":30},{"time":87890.625,"duration":234.375,"noteNumber":66,"velocity":102,"programNumber":30},{"time":88125,"duration":234.375,"noteNumber":68,"velocity":102,"programNumber":30},{"time":88359.375,"duration":1871.09375,"noteNumber":73,"velocity":102,"programNumber":30},{"time":91640.625,"duration":933.59375,"noteNumber":68,"velocity":102,"programNumber":30},{"time":92578.125,"duration":937.5,"noteNumber":65,"velocity":102,"programNumber":30},{"time":93515.625,"duration":234.375,"noteNumber":68,"velocity":102,"programNumber":30},{"time":93750,"duration":703.125,"noteNumber":66,"velocity":102,"programNumber":30},{"time":94453.125,"duration":937.5,"noteNumber":65,"velocity":102,"programNumber":30},{"time":95390.625,"duration":933.59375,"noteNumber":68,"velocity":102,"programNumber":30},{"time":96328.125,"duration":937.5,"noteNumber":63,"velocity":95,"programNumber":30},{"time":97265.625,"duration":933.59375,"noteNumber":68,"velocity":102,"programNumber":30},{"time":98203.125,"duration":937.5,"noteNumber":63,"velocity":95,"programNumber":30},{"time":99140.625,"duration":1347.65625,"noteNumber":68,"velocity":102,"programNumber":30},{"time":100546.875,"duration":468.75,"noteNumber":68,"velocity":102,"programNumber":30},{"time":101015.625,"duration":175.78125,"noteNumber":66,"velocity":102,"programNumber":30},{"time":101250,"duration":410.15625,"noteNumber":68,"velocity":108,"programNumber":30},{"time":101718.75,"duration":175.78125,"noteNumber":73,"velocity":102,"programNumber":30},{"time":101953.125,"duration":1015.625,"noteNumber":73,"velocity":102,"programNumber":30},{"time":102968.75,"duration":2343.75,"noteNumber":63,"velocity":102,"programNumber":30},{"time":136875,"duration":234.375,"noteNumber":60,"velocity":102,"programNumber":30},{"time":137109.375,"duration":234.375,"noteNumber":72,"velocity":102,"programNumber":30},{"time":137343.75,"duration":234.375,"noteNumber":68,"velocity":102,"programNumber":30},{"time":137578.125,"duration":234.375,"noteNumber":63,"velocity":102,"programNumber":30},{"time":137812.5,"duration":234.375,"noteNumber":73,"velocity":102,"programNumber":30},{"time":138046.875,"duration":234.375,"noteNumber":68,"velocity":102,"programNumber":30},{"time":138281.25,"duration":234.375,"noteNumber":72,"velocity":102,"programNumber":30},{"time":138515.625,"duration":234.375,"noteNumber":68,"velocity":102,"programNumber":30},{"time":138750,"duration":234.375,"noteNumber":59,"velocity":102,"programNumber":30},{"time":138984.375,"duration":234.375,"noteNumber":71,"velocity":102,"programNumber":30},{"time":139218.75,"duration":234.375,"noteNumber":66,"velocity":102,"programNumber":30},{"time":139453.125,"duration":234.375,"noteNumber":64,"velocity":102,"programNumber":30},{"time":139687.5,"duration":234.375,"noteNumber":75,"velocity":102,"programNumber":30},{"time":139921.875,"duration":234.375,"noteNumber":66,"velocity":102,"programNumber":30},{"time":140156.25,"duration":234.375,"noteNumber":73,"velocity":102,"programNumber":30},{"time":140390.625,"duration":234.375,"noteNumber":66,"velocity":102,"programNumber":30},{"time":140625,"duration":234.375,"noteNumber":61,"velocity":102,"programNumber":30},{"time":140859.375,"duration":234.375,"noteNumber":73,"velocity":102,"programNumber":30},{"time":141093.75,"duration":234.375,"noteNumber":68,"velocity":102,"programNumber":30},{"time":141328.125,"duration":234.375,"noteNumber":66,"velocity":102,"programNumber":30},{"time":141562.5,"duration":234.375,"noteNumber":78,"velocity":102,"programNumber":30},{"time":141796.875,"duration":234.375,"noteNumber":68,"velocity":102,"programNumber":30},{"time":142031.25,"duration":234.375,"noteNumber":77,"velocity":102,"programNumber":30},{"time":142265.625,"duration":234.375,"noteNumber":68,"velocity":102,"programNumber":30},{"time":142500,"duration":234.375,"noteNumber":61,"velocity":102,"programNumber":30},{"time":142734.375,"duration":234.375,"noteNumber":73,"velocity":102,"programNumber":30},{"time":142968.75,"duration":234.375,"noteNumber":68,"velocity":102,"programNumber":30},{"time":143203.125,"duration":234.375,"noteNumber":66,"velocity":102,"programNumber":30},{"time":143437.5,"duration":234.375,"noteNumber":78,"velocity":102,"programNumber":30},{"time":143671.875,"duration":234.375,"noteNumber":68,"velocity":102,"programNumber":30},{"time":143906.25,"duration":234.375,"noteNumber":77,"velocity":102,"programNumber":30},{"time":144140.625,"duration":234.375,"noteNumber":68,"velocity":102,"programNumber":30},{"time":144375,"duration":234.375,"noteNumber":60,"velocity":102,"programNumber":30},{"time":144609.375,"duration":234.375,"noteNumber":72,"velocity":102,"programNumber":30},{"time":144843.75,"duration":234.375,"noteNumber":68,"velocity":102,"programNumber":30},{"time":145078.125,"duration":234.375,"noteNumber":63,"velocity":102,"programNumber":30},{"time":145312.5,"duration":234.375,"noteNumber":73,"velocity":102,"programNumber":30},{"time":145546.875,"duration":234.375,"noteNumber":68,"velocity":102,"programNumber":30},{"time":145781.25,"duration":234.375,"noteNumber":72,"velocity":102,"programNumber":30},{"time":146015.625,"duration":234.375,"noteNumber":68,"velocity":102,"programNumber":30},{"time":146250,"duration":234.375,"noteNumber":59,"velocity":102,"programNumber":30},{"time":146484.375,"duration":234.375,"noteNumber":71,"velocity":102,"programNumber":30},{"time":146718.75,"duration":234.375,"noteNumber":66,"velocity":102,"programNumber":30},{"time":146953.125,"duration":234.375,"noteNumber":64,"velocity":102,"programNumber":30},{"time":147187.5,"duration":234.375,"noteNumber":75,"velocity":102,"programNumber":30},{"time":147421.875,"duration":234.375,"noteNumber":66,"velocity":102,"programNumber":30},{"time":147656.25,"duration":234.375,"noteNumber":73,"velocity":102,"programNumber":30},{"time":147890.625,"duration":234.375,"noteNumber":66,"velocity":102,"programNumber":30},{"time":148125,"duration":234.375,"noteNumber":68,"velocity":102,"programNumber":30},{"time":148359.375,"duration":1871.09375,"noteNumber":73,"velocity":102,"programNumber":30},{"time":151640.625,"duration":933.59375,"noteNumber":68,"velocity":102,"programNumber":30},{"time":152578.125,"duration":937.5,"noteNumber":65,"velocity":102,"programNumber":30},{"time":153515.625,"duration":234.375,"noteNumber":68,"velocity":102,"programNumber":30},{"time":153750,"duration":703.125,"noteNumber":66,"velocity":102,"programNumber":30},{"time":154453.125,"duration":937.5,"noteNumber":65,"velocity":102,"programNumber":30},{"time":155390.625,"duration":933.59375,"noteNumber":68,"velocity":102,"programNumber":30},{"time":156328.125,"duration":937.5,"noteNumber":63,"velocity":95,"programNumber":30},{"time":157265.625,"duration":933.59375,"noteNumber":68,"velocity":102,"programNumber":30},{"time":158203.125,"duration":937.5,"noteNumber":63,"velocity":95,"programNumber":30},{"time":159140.625,"duration":1757.8125,"noteNumber":68,"velocity":102,"programNumber":30},{"time":161015.625,"duration":1171.875,"noteNumber":68,"velocity":102,"programNumber":30},{"time":162187.5,"duration":468.75,"noteNumber":65,"velocity":102,"programNumber":30},{"time":162656.25,"duration":214.84375,"noteNumber":61,"velocity":102,"programNumber":30},{"time":162871.09375,"duration":1402.34375,"noteNumber":65,"velocity":102,"programNumber":30},{"time":164296.875,"duration":214.84375,"noteNumber":73,"velocity":102,"programNumber":30},{"time":164511.71875,"duration":1875,"noteNumber":65,"velocity":102,"programNumber":30},{"time":166406.25,"duration":39.0625,"noteNumber":68,"velocity":102,"programNumber":30},{"time":166640.625,"duration":933.59375,"noteNumber":68,"velocity":102,"programNumber":30},{"time":167578.125,"duration":937.5,"noteNumber":65,"velocity":102,"programNumber":30},{"time":168515.625,"duration":933.59375,"noteNumber":68,"velocity":102,"programNumber":30},{"time":169453.125,"duration":703.125,"noteNumber":65,"velocity":102,"programNumber":30},{"time":170156.25,"duration":234.375,"noteNumber":73,"velocity":102,"programNumber":30},{"time":170390.625,"duration":933.59375,"noteNumber":73,"velocity":102,"programNumber":30},{"time":171328.125,"duration":937.5,"noteNumber":75,"velocity":102,"programNumber":30},{"time":172265.625,"duration":234.375,"noteNumber":75,"velocity":102,"programNumber":30},{"time":172500,"duration":703.125,"noteNumber":75,"velocity":102,"programNumber":30},{"time":173203.125,"duration":914.0625,"noteNumber":73,"velocity":102,"programNumber":30},{"time":174121.09375,"duration":722.65625,"noteNumber":70,"velocity":102,"programNumber":30},{"time":174843.75,"duration":234.375,"noteNumber":66,"velocity":102,"programNumber":30},{"time":175078.125,"duration":683.59375,"noteNumber":61,"velocity":102,"programNumber":30},{"time":175757.8125,"duration":468.75,"noteNumber":68,"velocity":102,"programNumber":30},{"time":176250,"duration":468.75,"noteNumber":68,"velocity":102,"programNumber":30},{"time":176718.75,"duration":175.78125,"noteNumber":73,"velocity":102,"programNumber":30},{"time":176953.125,"duration":937.5,"noteNumber":73,"velocity":102,"programNumber":30},{"time":177890.625,"duration":3984.375,"noteNumber":75,"velocity":102,"programNumber":30},{"time":185632.8125,"duration":1632.8125,"noteNumber":61,"velocity":76,"programNumber":30},{"time":185628.90625,"duration":1636.71875,"noteNumber":56,"velocity":76,"programNumber":30},{"time":185625,"duration":1640.625,"noteNumber":49,"velocity":76,"programNumber":30},{"time":187265.625,"duration":703.125,"noteNumber":65,"velocity":102,"programNumber":30},{"time":187968.75,"duration":234.375,"noteNumber":61,"velocity":102,"programNumber":30},{"time":188203.125,"duration":234.375,"noteNumber":56,"velocity":102,"programNumber":30},{"time":188437.5,"duration":234.375,"noteNumber":54,"velocity":102,"programNumber":30},{"time":188671.875,"duration":234.375,"noteNumber":53,"velocity":102,"programNumber":30},{"time":188906.25,"duration":234.375,"noteNumber":49,"velocity":102,"programNumber":30},{"time":189140.625,"duration":234.375,"noteNumber":47,"velocity":76,"programNumber":30},{"time":200632.8125,"duration":1632.8125,"noteNumber":61,"velocity":76,"programNumber":30},{"time":200628.90625,"duration":1636.71875,"noteNumber":56,"velocity":76,"programNumber":30},{"time":200625,"duration":1640.625,"noteNumber":49,"velocity":76,"programNumber":30},{"time":202265.625,"duration":703.125,"noteNumber":65,"velocity":102,"programNumber":30},{"time":202968.75,"duration":234.375,"noteNumber":61,"velocity":102,"programNumber":30},{"time":203203.125,"duration":234.375,"noteNumber":56,"velocity":102,"programNumber":30},{"time":203437.5,"duration":234.375,"noteNumber":54,"velocity":102,"programNumber":30},{"time":203671.875,"duration":234.375,"noteNumber":53,"velocity":102,"programNumber":30},{"time":203906.25,"duration":234.375,"noteNumber":49,"velocity":102,"programNumber":30},{"time":204140.625,"duration":234.375,"noteNumber":47,"velocity":70,"programNumber":30},{"time":211855.46875,"duration":1660.15625,"noteNumber":80,"velocity":108,"programNumber":30},{"time":213515.625,"duration":234.375,"noteNumber":78,"velocity":108,"programNumber":30},{"time":213750,"duration":703.125,"noteNumber":77,"velocity":108,"programNumber":30},{"time":214453.125,"duration":937.5,"noteNumber":75,"velocity":108,"programNumber":30},{"time":215390.625,"duration":234.375,"noteNumber":78,"velocity":108,"programNumber":30},{"time":215625,"duration":625,"noteNumber":77,"velocity":108,"programNumber":30},{"time":216250,"duration":156.25,"noteNumber":75,"velocity":102,"programNumber":30},{"time":216406.25,"duration":195.3125,"noteNumber":74,"velocity":108,"programNumber":30},{"time":216718.75,"duration":273.4375,"noteNumber":75,"velocity":108,"programNumber":30},{"time":217031.25,"duration":351.5625,"noteNumber":77,"velocity":108,"programNumber":30},{"time":217500,"duration":468.75,"noteNumber":73,"velocity":108,"programNumber":30},{"time":217968.75,"duration":234.375,"noteNumber":70,"velocity":108,"programNumber":30},{"time":218203.125,"duration":468.75,"noteNumber":68,"velocity":108,"programNumber":30},{"time":218671.875,"duration":234.375,"noteNumber":66,"velocity":108,"programNumber":30},{"time":218906.25,"duration":468.75,"noteNumber":65,"velocity":108,"programNumber":30},{"time":219375,"duration":468.75,"noteNumber":63,"velocity":108,"programNumber":30},{"time":219843.75,"duration":625,"noteNumber":63,"velocity":108,"programNumber":30},{"time":220468.75,"duration":156.25,"noteNumber":65,"velocity":108,"programNumber":30},{"time":220625,"duration":156.25,"noteNumber":66,"velocity":108,"programNumber":30},{"time":220781.25,"duration":156.25,"noteNumber":68,"velocity":108,"programNumber":30},{"time":220937.5,"duration":312.5,"noteNumber":71,"velocity":108,"programNumber":30},{"time":221250,"duration":1386.71875,"noteNumber":70,"velocity":108,"programNumber":30},{"time":222636.71875,"duration":468.75,"noteNumber":71,"velocity":108,"programNumber":30},{"time":223125,"duration":468.75,"noteNumber":71,"velocity":108,"programNumber":30},{"time":223593.75,"duration":234.375,"noteNumber":70,"velocity":108,"programNumber":30},{"time":223828.125,"duration":703.125,"noteNumber":70,"velocity":108,"programNumber":30},{"time":224531.25,"duration":937.5,"noteNumber":70,"velocity":108,"programNumber":30},{"time":225468.75,"duration":214.84375,"noteNumber":68,"velocity":108,"programNumber":30},{"time":225683.59375,"duration":722.65625,"noteNumber":78,"velocity":95,"programNumber":30},{"time":226640.625,"duration":703.125,"noteNumber":65,"velocity":108,"programNumber":30},{"time":227343.75,"duration":234.375,"noteNumber":63,"velocity":108,"programNumber":30},{"time":227578.125,"duration":933.59375,"noteNumber":63,"velocity":108,"programNumber":30},{"time":228515.625,"duration":703.125,"noteNumber":65,"velocity":108,"programNumber":30},{"time":229218.75,"duration":234.375,"noteNumber":63,"velocity":108,"programNumber":30},{"time":229453.125,"duration":445.3125,"noteNumber":63,"velocity":108,"programNumber":30},{"time":229902.34375,"duration":722.65625,"noteNumber":62,"velocity":102,"programNumber":30},{"time":230625,"duration":703.125,"noteNumber":62,"velocity":95,"programNumber":30},{"time":231328.125,"duration":703.125,"noteNumber":65,"velocity":95,"programNumber":30},{"time":232031.25,"duration":937.5,"noteNumber":65,"velocity":108,"programNumber":30},{"time":232968.75,"duration":234.375,"noteNumber":63,"velocity":108,"programNumber":30},{"time":233203.125,"duration":468.75,"noteNumber":58,"velocity":102,"programNumber":30},{"time":233671.875,"duration":468.75,"noteNumber":56,"velocity":108,"programNumber":30},{"time":234140.625,"duration":234.375,"noteNumber":58,"velocity":108,"programNumber":30},{"time":234375,"duration":1640.625,"noteNumber":63,"velocity":108,"programNumber":30},{"time":236015.625,"duration":937.5,"noteNumber":65,"velocity":108,"programNumber":30},{"time":236953.125,"duration":445.3125,"noteNumber":63,"velocity":108,"programNumber":30},{"time":237402.34375,"duration":722.65625,"noteNumber":62,"velocity":102,"programNumber":30},{"time":238125,"duration":703.125,"noteNumber":62,"velocity":108,"programNumber":30},{"time":238828.125,"duration":468.75,"noteNumber":65,"velocity":108,"programNumber":30},{"time":239296.875,"duration":703.125,"noteNumber":63,"velocity":95,"programNumber":30},{"time":240000,"duration":3750,"noteNumber":63,"velocity":108,"programNumber":30},{"time":243750,"duration":468.75,"noteNumber":73,"velocity":102,"programNumber":30},{"time":244218.75,"duration":894.53125,"noteNumber":73,"velocity":102,"programNumber":30},{"time":245117.1875,"duration":390.625,"noteNumber":73,"velocity":102,"programNumber":30},{"time":245507.8125,"duration":117.1875,"noteNumber":68,"velocity":102,"programNumber":30},{"time":245625,"duration":468.75,"noteNumber":73,"velocity":102,"programNumber":30},{"time":246093.75,"duration":894.53125,"noteNumber":73,"velocity":102,"programNumber":30},{"time":246992.51853333332,"duration":671.5466500000039,"noteNumber":73,"velocity":102,"programNumber":30},{"time":247664.06518333332,"duration":125,"noteNumber":68,"velocity":102,"programNumber":30},{"time":247789.06518333332,"duration":565.6804500000435,"noteNumber":75,"velocity":102,"programNumber":30},{"time":248354.74563333337,"duration":1511.8089333333774,"noteNumber":75,"velocity":102,"programNumber":30},{"time":249872.50694166674,"duration":775.8109583333426,"noteNumber":75,"velocity":102,"programNumber":30},{"time":250648.31790000008,"duration":756.7475500000292,"noteNumber":75,"velocity":102,"programNumber":30},{"time":251405.0654500001,"duration":493.94063333325903,"noteNumber":75,"velocity":102,"programNumber":30},{"time":251899.00608333337,"duration":1214.2845000000088,"noteNumber":75,"velocity":102,"programNumber":30},{"time":253113.29058333338,"duration":857.1419999999925,"noteNumber":75,"velocity":102,"programNumber":30},{"time":255256.14558333333,"duration":71.42850000000908,"noteNumber":73,"velocity":102,"programNumber":30},{"time":256184.71608333333,"duration":428.5709999999963,"noteNumber":75,"velocity":102,"programNumber":30},{"time":256613.28708333333,"duration":428.5709999999963,"noteNumber":73,"velocity":102,"programNumber":30},{"time":257041.85808333333,"duration":428.5709999999963,"noteNumber":70,"velocity":102,"programNumber":30},{"time":257470.42908333332,"duration":857.1419999999634,"noteNumber":68,"velocity":102,"programNumber":30},{"time":258327.57108333329,"duration":642.8564999999362,"noteNumber":68,"velocity":102,"programNumber":30},{"time":258970.42758333322,"duration":214.28549999999814,"noteNumber":66,"velocity":102,"programNumber":30},{"time":259184.71308333322,"duration":857.1419999999925,"noteNumber":68,"velocity":95,"programNumber":30},{"time":260041.8550833332,"duration":428.5709999999963,"noteNumber":66,"velocity":102,"programNumber":30},{"time":260470.4260833332,"duration":857.1419999999925,"noteNumber":68,"velocity":102,"programNumber":30},{"time":261327.5680833332,"duration":428.5709999999963,"noteNumber":66,"velocity":102,"programNumber":30},{"time":261756.1390833332,"duration":428.5709999999963,"noteNumber":68,"velocity":95,"programNumber":30},{"time":262184.7100833332,"duration":428.5709999999963,"noteNumber":66,"velocity":102,"programNumber":30},{"time":262613.2810833332,"duration":642.856499999878,"noteNumber":68,"velocity":95,"programNumber":30},{"time":263256.13758333307,"duration":428.5710000001127,"noteNumber":68,"velocity":102,"programNumber":30},{"time":263684.7085833332,"duration":214.28549999999814,"noteNumber":66,"velocity":102,"programNumber":30},{"time":263898.9940833332,"duration":428.5710000001127,"noteNumber":68,"velocity":102,"programNumber":30},{"time":264327.5650833333,"duration":428.5709999999963,"noteNumber":73,"velocity":89,"programNumber":30},{"time":264327.5650833333,"duration":428.5709999999963,"noteNumber":78,"velocity":89,"programNumber":30},{"time":264756.1360833333,"duration":428.5710000001127,"noteNumber":68,"velocity":102,"programNumber":30},{"time":265184.7070833334,"duration":214.28549999999814,"noteNumber":73,"velocity":89,"programNumber":30},{"time":265184.7070833334,"duration":214.28549999999814,"noteNumber":78,"velocity":89,"programNumber":30},{"time":265398.9925833334,"duration":428.5710000001127,"noteNumber":68,"velocity":102,"programNumber":30},{"time":265827.5635833335,"duration":142.85700000001816,"noteNumber":78,"velocity":89,"programNumber":30},{"time":265970.4205833335,"duration":714.285000000149,"noteNumber":68,"velocity":102,"programNumber":30},{"time":266684.7055833337,"duration":214.28549999999814,"noteNumber":63,"velocity":102,"programNumber":30},{"time":266898.9910833337,"duration":428.5709999999963,"noteNumber":68,"velocity":102,"programNumber":30},{"time":267327.5620833337,"duration":214.28549999999814,"noteNumber":63,"velocity":102,"programNumber":30},{"time":267541.84758333367,"duration":107.14274999999907,"noteNumber":49,"velocity":89,"programNumber":30},{"time":267541.84758333367,"duration":107.14274999999907,"noteNumber":44,"velocity":89,"programNumber":30},{"time":267756.13308333367,"duration":857.1419999999925,"noteNumber":66,"velocity":102,"programNumber":30},{"time":269041.84608333366,"duration":214.28549999999814,"noteNumber":63,"velocity":102,"programNumber":30},{"time":269898.98808333365,"duration":107.14274999999907,"noteNumber":44,"velocity":89,"programNumber":30},{"time":269898.98808333365,"duration":107.14274999999907,"noteNumber":49,"velocity":89,"programNumber":30},{"time":270113.27358333365,"duration":107.14274999999907,"noteNumber":44,"velocity":89,"programNumber":30},{"time":270113.27358333365,"duration":107.14274999999907,"noteNumber":49,"velocity":89,"programNumber":30},{"time":270327.55908333365,"duration":642.8564999999944,"noteNumber":66,"velocity":102,"programNumber":30},{"time":270970.41558333364,"duration":214.28549999999814,"noteNumber":63,"velocity":102,"programNumber":30},{"time":271184.70108333364,"duration":857.1419999999925,"noteNumber":66,"velocity":102,"programNumber":30},{"time":272470.4140833336,"duration":214.28549999999814,"noteNumber":63,"velocity":102,"programNumber":30},{"time":273327.5560833336,"duration":107.14274999999907,"noteNumber":44,"velocity":89,"programNumber":30},{"time":273327.5560833336,"duration":107.14274999999907,"noteNumber":49,"velocity":89,"programNumber":30},{"time":273541.8415833336,"duration":107.14274999999907,"noteNumber":44,"velocity":89,"programNumber":30},{"time":273541.8415833336,"duration":107.14274999999907,"noteNumber":49,"velocity":89,"programNumber":30},{"time":273756.1270833336,"duration":642.8564999999944,"noteNumber":66,"velocity":102,"programNumber":30},{"time":274398.9835833336,"duration":214.28549999999814,"noteNumber":63,"velocity":102,"programNumber":30},{"time":274613.2690833336,"duration":214.28549999999814,"noteNumber":66,"velocity":102,"programNumber":30},{"time":274827.5545833336,"duration":214.28549999999814,"noteNumber":66,"velocity":102,"programNumber":30},{"time":275041.8400833336,"duration":428.5709999999963,"noteNumber":63,"velocity":102,"programNumber":30},{"time":275470.4110833336,"duration":214.28549999999814,"noteNumber":68,"velocity":102,"programNumber":30},{"time":275684.6965833336,"duration":428.5709999999963,"noteNumber":68,"velocity":102,"programNumber":30},{"time":276113.2675833336,"duration":214.28549999999814,"noteNumber":68,"velocity":102,"programNumber":30},{"time":276327.5530833336,"duration":214.28549999999814,"noteNumber":70,"velocity":102,"programNumber":30},{"time":276541.8385833336,"duration":214.28549999999814,"noteNumber":70,"velocity":102,"programNumber":30},{"time":276756.1240833336,"duration":428.5709999999963,"noteNumber":68,"velocity":102,"programNumber":30},{"time":277184.6950833336,"duration":214.28549999999814,"noteNumber":73,"velocity":102,"programNumber":30},{"time":277398.9805833336,"duration":428.5709999999963,"noteNumber":73,"velocity":102,"programNumber":30},{"time":277827.5515833336,"duration":214.28549999999814,"noteNumber":68,"velocity":102,"programNumber":30},{"time":278041.8370833336,"duration":214.28549999999814,"noteNumber":75,"velocity":102,"programNumber":30},{"time":278256.1225833336,"duration":214.28549999999814,"noteNumber":75,"velocity":102,"programNumber":30},{"time":278470.4080833336,"duration":428.5709999999963,"noteNumber":73,"velocity":102,"programNumber":30},{"time":278898.9790833336,"duration":214.28549999999814,"noteNumber":78,"velocity":102,"programNumber":30},{"time":279113.26458333357,"duration":642.8564999999944,"noteNumber":78,"velocity":102,"programNumber":30},{"time":279756.12108333356,"duration":428.5709999999963,"noteNumber":78,"velocity":102,"programNumber":30},{"time":280184.69208333356,"duration":428.5709999999963,"noteNumber":77,"velocity":102,"programNumber":30},{"time":280613.26308333356,"duration":142.85700000001816,"noteNumber":73,"velocity":102,"programNumber":30},{"time":280756.1200833336,"duration":499.99950000003446,"noteNumber":75,"velocity":102,"programNumber":30},{"time":281256.1195833336,"duration":428.5710000001127,"noteNumber":73,"velocity":102,"programNumber":30},{"time":281684.6905833337,"duration":214.28549999999814,"noteNumber":75,"velocity":102,"programNumber":30},{"time":281898.9760833337,"duration":357.1425000000163,"noteNumber":73,"velocity":102,"programNumber":30},{"time":282256.11858333374,"duration":499.9995000001509,"noteNumber":68,"velocity":102,"programNumber":30},{"time":282756.1180833339,"duration":142.85700000001816,"noteNumber":75,"velocity":102,"programNumber":30},{"time":282898.9750833339,"duration":214.28549999999814,"noteNumber":73,"velocity":102,"programNumber":30},{"time":283113.2605833339,"duration":499.9995000001509,"noteNumber":73,"velocity":102,"programNumber":30},{"time":283613.26008333405,"duration":142.85700000001816,"noteNumber":75,"velocity":102,"programNumber":30},{"time":283756.1170833341,"duration":214.28549999999814,"noteNumber":73,"velocity":102,"programNumber":30},{"time":283970.4025833341,"duration":499.9995000001509,"noteNumber":68,"velocity":102,"programNumber":30},{"time":284470.4020833342,"duration":142.85700000001816,"noteNumber":75,"velocity":102,"programNumber":30},{"time":284613.25908333424,"duration":214.28549999999814,"noteNumber":73,"velocity":102,"programNumber":30},{"time":284827.54458333424,"duration":499.9995000001509,"noteNumber":73,"velocity":102,"programNumber":30},{"time":285327.5440833344,"duration":142.85700000001816,"noteNumber":75,"velocity":102,"programNumber":30},{"time":285470.4010833344,"duration":142.85700000001816,"noteNumber":73,"velocity":102,"programNumber":30},{"time":285684.6865833344,"duration":499.9995000001509,"noteNumber":68,"velocity":102,"programNumber":30},{"time":286184.68608333456,"duration":142.85700000001816,"noteNumber":75,"velocity":102,"programNumber":30},{"time":286327.5430833346,"duration":214.28549999999814,"noteNumber":73,"velocity":102,"programNumber":30},{"time":286541.8285833346,"duration":499.9995000001509,"noteNumber":73,"velocity":102,"programNumber":30},{"time":287041.8280833347,"duration":142.85700000001816,"noteNumber":75,"velocity":102,"programNumber":30},{"time":287184.68508333474,"duration":214.28549999999814,"noteNumber":73,"velocity":102,"programNumber":30},{"time":287398.97058333474,"duration":214.28550000011455,"noteNumber":68,"velocity":102,"programNumber":30},{"time":287613.25608333485,"duration":142.85700000001816,"noteNumber":70,"velocity":102,"programNumber":30},{"time":287756.1130833349,"duration":142.85700000001816,"noteNumber":75,"velocity":102,"programNumber":30},{"time":287898.9700833349,"duration":285.7140000000363,"noteNumber":73,"velocity":102,"programNumber":30},{"time":288184.6840833349,"duration":2071.426499999827,"noteNumber":78,"velocity":93,"programNumber":30},{"time":290256.11058333475,"duration":642.8565000000526,"noteNumber":78,"velocity":102,"programNumber":30},{"time":290898.9670833348,"duration":428.5710000000545,"noteNumber":75,"velocity":102,"programNumber":30},{"time":291327.53808333486,"duration":214.28549999999814,"noteNumber":73,"velocity":102,"programNumber":30},{"time":291541.82358333486,"duration":142.85700000001816,"noteNumber":75,"velocity":102,"programNumber":30},{"time":291684.6805833349,"duration":285.71400000009453,"noteNumber":73,"velocity":102,"programNumber":30},{"time":291970.394583335,"duration":214.28549999999814,"noteNumber":75,"velocity":102,"programNumber":30},{"time":292184.68008333497,"duration":357.1425000000163,"noteNumber":73,"velocity":102,"programNumber":30},{"time":292541.822583335,"duration":428.5710000001127,"noteNumber":68,"velocity":102,"programNumber":30},{"time":292970.3935833351,"duration":714.285000000149,"noteNumber":68,"velocity":102,"programNumber":30},{"time":293684.67858333525,"duration":142.85700000001816,"noteNumber":73,"velocity":102,"programNumber":30},{"time":293827.53558333527,"duration":714.285000000149,"noteNumber":68,"velocity":102,"programNumber":30},{"time":294541.8205833354,"duration":214.28549999999814,"noteNumber":63,"velocity":102,"programNumber":30},{"time":294756.1060833354,"duration":285.7140000000363,"noteNumber":68,"velocity":102,"programNumber":30},{"time":295041.82008333545,"duration":142.85700000001816,"noteNumber":63,"velocity":102,"programNumber":30},{"time":295184.67708333547,"duration":1714.283999999985,"noteNumber":66,"velocity":76,"programNumber":30},{"time":302470.38408333546,"duration":71.42849999997998,"noteNumber":49,"velocity":51,"programNumber":30},{"time":302470.38408333546,"duration":71.42849999997998,"noteNumber":54,"velocity":51,"programNumber":30},{"time":302470.38408333546,"duration":71.42849999997998,"noteNumber":58,"velocity":51,"programNumber":30},{"time":302684.66958333546,"duration":71.42849999997998,"noteNumber":49,"velocity":51,"programNumber":30},{"time":302684.66958333546,"duration":71.42849999997998,"noteNumber":54,"velocity":51,"programNumber":30},{"time":302684.66958333546,"duration":71.42849999997998,"noteNumber":58,"velocity":51,"programNumber":30},{"time":302898.95508333546,"duration":71.42849999997998,"noteNumber":49,"velocity":76,"programNumber":30},{"time":302898.95508333546,"duration":71.42849999997998,"noteNumber":54,"velocity":76,"programNumber":30},{"time":302898.95508333546,"duration":71.42849999997998,"noteNumber":58,"velocity":76,"programNumber":30},{"time":303113.24058333546,"duration":71.42849999997998,"noteNumber":49,"velocity":76,"programNumber":30},{"time":303113.24058333546,"duration":71.42849999997998,"noteNumber":54,"velocity":76,"programNumber":30},{"time":303113.24058333546,"duration":71.42849999997998,"noteNumber":58,"velocity":76,"programNumber":30},{"time":303327.52608333546,"duration":71.42849999997998,"noteNumber":49,"velocity":76,"programNumber":30},{"time":303327.52608333546,"duration":71.42849999997998,"noteNumber":54,"velocity":76,"programNumber":30},{"time":303327.52608333546,"duration":71.42849999997998,"noteNumber":58,"velocity":76,"programNumber":30},{"time":308470.3780833354,"duration":107.14274999999907,"noteNumber":49,"velocity":76,"programNumber":30},{"time":308470.3780833354,"duration":107.14274999999907,"noteNumber":56,"velocity":76,"programNumber":30},{"time":308470.3780833354,"duration":107.14274999999907,"noteNumber":61,"velocity":76,"programNumber":30},{"time":308684.6635833354,"duration":107.14274999999907,"noteNumber":49,"velocity":76,"programNumber":30},{"time":308684.6635833354,"duration":107.14274999999907,"noteNumber":56,"velocity":76,"programNumber":30},{"time":308684.6635833354,"duration":107.14274999999907,"noteNumber":61,"velocity":76,"programNumber":30},{"time":308856.0919833354,"duration":1321.427250000008,"noteNumber":61,"velocity":102,"programNumber":30},{"time":310184.6620833354,"duration":2142.8549999999814,"noteNumber":65,"velocity":32,"programNumber":30},{"time":314470.37208333536,"duration":107.14274999999907,"noteNumber":49,"velocity":83,"programNumber":30},{"time":314470.37208333536,"duration":107.14274999999907,"noteNumber":56,"velocity":83,"programNumber":30},{"time":314470.37208333536,"duration":107.14274999999907,"noteNumber":61,"velocity":83,"programNumber":30},{"time":314898.94308333535,"duration":107.14274999999907,"noteNumber":61,"velocity":64,"programNumber":30},{"time":314898.94308333535,"duration":107.14274999999907,"noteNumber":56,"velocity":64,"programNumber":30},{"time":314898.94308333535,"duration":107.14274999999907,"noteNumber":49,"velocity":64,"programNumber":30},{"time":315327.51408333535,"duration":107.14274999999907,"noteNumber":49,"velocity":83,"programNumber":30},{"time":315327.51408333535,"duration":107.14274999999907,"noteNumber":56,"velocity":83,"programNumber":30},{"time":315327.51408333535,"duration":107.14274999999907,"noteNumber":61,"velocity":83,"programNumber":30},{"time":321970.36458333535,"duration":107.14274999999907,"noteNumber":49,"velocity":76,"programNumber":30},{"time":321970.36458333535,"duration":107.14274999999907,"noteNumber":56,"velocity":76,"programNumber":30},{"time":321970.36458333535,"duration":107.14274999999907,"noteNumber":61,"velocity":76,"programNumber":30},{"time":322184.65008333535,"duration":107.14274999999907,"noteNumber":49,"velocity":76,"programNumber":30},{"time":322184.65008333535,"duration":107.14274999999907,"noteNumber":61,"velocity":76,"programNumber":30},{"time":322184.65008333535,"duration":107.14274999999907,"noteNumber":56,"velocity":76,"programNumber":30},{"time":322398.93558333535,"duration":107.14274999999907,"noteNumber":49,"velocity":76,"programNumber":30},{"time":322398.93558333535,"duration":107.14274999999907,"noteNumber":61,"velocity":76,"programNumber":30},{"time":322398.93558333535,"duration":107.14274999999907,"noteNumber":56,"velocity":76,"programNumber":30},{"time":322613.22108333535,"duration":428.5709999999963,"noteNumber":56,"velocity":102,"programNumber":30},{"time":325613.2180833353,"duration":107.14274999999907,"noteNumber":49,"velocity":83,"programNumber":30},{"time":325613.2180833353,"duration":107.14274999999907,"noteNumber":56,"velocity":83,"programNumber":30},{"time":325613.2180833353,"duration":107.14274999999907,"noteNumber":61,"velocity":83,"programNumber":30},{"time":325827.5035833353,"duration":107.14274999999907,"noteNumber":49,"velocity":83,"programNumber":30},{"time":325827.5035833353,"duration":107.14274999999907,"noteNumber":56,"velocity":83,"programNumber":30},{"time":325827.5035833353,"duration":107.14274999999907,"noteNumber":61,"velocity":83,"programNumber":30},{"time":326041.7890833353,"duration":428.5709999999963,"noteNumber":56,"velocity":102,"programNumber":30},{"time":326470.3600833353,"duration":428.5709999999963,"noteNumber":51,"velocity":102,"programNumber":30},{"time":326898.9310833353,"duration":857.1419999999925,"noteNumber":46,"velocity":102,"programNumber":30},{"time":332470.3540833353,"duration":3857.1390000000247,"noteNumber":61,"velocity":121,"programNumber":30},{"time":336327.49308333534,"duration":857.1419999999925,"noteNumber":66,"velocity":76,"programNumber":30},{"time":337184.63508333534,"duration":428.57099999982165,"noteNumber":63,"velocity":64,"programNumber":30},{"time":343184.62908333517,"duration":857.1419999998179,"noteNumber":73,"velocity":102,"programNumber":30},{"time":344041.771083335,"duration":428.5709999999963,"noteNumber":70,"velocity":102,"programNumber":30},{"time":344470.342083335,"duration":857.1419999999925,"noteNumber":68,"velocity":102,"programNumber":30},{"time":345327.484083335,"duration":428.5709999999963,"noteNumber":66,"velocity":102,"programNumber":30},{"time":346184.62608333497,"duration":428.5709999999963,"noteNumber":66,"velocity":102,"programNumber":30},{"time":346613.19708333496,"duration":428.5709999999963,"noteNumber":72,"velocity":83,"programNumber":30},{"time":347041.76808333496,"duration":428.5709999999963,"noteNumber":75,"velocity":95,"programNumber":30},{"time":348327.48108333495,"duration":428.5709999999963,"noteNumber":72,"velocity":83,"programNumber":30},{"time":348756.05208333494,"duration":428.5709999999963,"noteNumber":75,"velocity":102,"programNumber":30},{"time":349184.62308333494,"duration":357.1425000000163,"noteNumber":75,"velocity":102,"programNumber":30},{"time":349541.76558333496,"duration":499.99949999985984,"noteNumber":85,"velocity":95,"programNumber":30},{"time":350041.7650833348,"duration":1714.283999999985,"noteNumber":85,"velocity":97,"programNumber":30},{"time":351756.0490833348,"duration":571.4280000000144,"noteNumber":85,"velocity":97,"programNumber":30},{"time":352327.4770833348,"duration":571.4280000000144,"noteNumber":85,"velocity":97,"programNumber":30},{"time":352898.90508333483,"duration":571.4280000000144,"noteNumber":85,"velocity":97,"programNumber":30},{"time":353470.33308333484,"duration":1142.8560000000289,"noteNumber":85,"velocity":97,"programNumber":30},{"time":354613.1890833349,"duration":2285.7119999999413,"noteNumber":85,"velocity":97,"programNumber":30},{"time":356898.9010833348,"duration":499.99949999997625,"noteNumber":75,"velocity":85,"programNumber":30},{"time":357398.9005833348,"duration":999.9989999997779,"noteNumber":80,"velocity":97,"programNumber":30},{"time":358541.7565833346,"duration":999.9989999997779,"noteNumber":80,"velocity":97,"programNumber":30},{"time":359684.6125833344,"duration":428.5709999999963,"noteNumber":80,"velocity":97,"programNumber":30},{"time":360256.0405833344,"duration":2642.8545000002487,"noteNumber":80,"velocity":121,"programNumber":30},{"time":362898.89508333465,"duration":428.5709999999963,"noteNumber":75,"velocity":79,"programNumber":30},{"time":363327.46608333464,"duration":642.856500000169,"noteNumber":75,"velocity":97,"programNumber":30},{"time":364613.1790833348,"duration":2142.8549999999814,"noteNumber":73,"velocity":97,"programNumber":30},{"time":366756.0340833348,"duration":428.5709999999963,"noteNumber":73,"velocity":97,"programNumber":30},{"time":367184.6050833348,"duration":685.7135999999009,"noteNumber":73,"velocity":97,"programNumber":30},{"time":367870.3186833347,"duration":171.42839999997523,"noteNumber":75,"velocity":97,"programNumber":30},{"time":368041.74708333466,"duration":342.85679999995045,"noteNumber":73,"velocity":97,"programNumber":30},{"time":368384.6038833346,"duration":171.42839999997523,"noteNumber":73,"velocity":97,"programNumber":30},{"time":368556.0322833346,"duration":342.85679999995045,"noteNumber":73,"velocity":97,"programNumber":30},{"time":368898.88908333454,"duration":171.42839999997523,"noteNumber":68,"velocity":97,"programNumber":30},{"time":369070.3174833345,"duration":171.42839999997523,"noteNumber":75,"velocity":97,"programNumber":30},{"time":369241.7458833345,"duration":342.85679999995045,"noteNumber":73,"velocity":97,"programNumber":30},{"time":369584.60268333444,"duration":171.42839999997523,"noteNumber":68,"velocity":97,"programNumber":30},{"time":369756.0310833344,"duration":171.42839999997523,"noteNumber":75,"velocity":97,"programNumber":30},{"time":369927.4594833344,"duration":342.85679999995045,"noteNumber":73,"velocity":97,"programNumber":30},{"time":370270.31628333434,"duration":171.42839999997523,"noteNumber":68,"velocity":97,"programNumber":30},{"time":370441.7446833343,"duration":171.42839999997523,"noteNumber":75,"velocity":97,"programNumber":30},{"time":370613.1730833343,"duration":342.85679999995045,"noteNumber":73,"velocity":97,"programNumber":30},{"time":370956.02988333424,"duration":171.42839999997523,"noteNumber":68,"velocity":97,"programNumber":30},{"time":371127.4582833342,"duration":171.42839999997523,"noteNumber":75,"velocity":97,"programNumber":30},{"time":371298.8866833342,"duration":342.85679999995045,"noteNumber":73,"velocity":97,"programNumber":30},{"time":371641.74348333414,"duration":171.42839999997523,"noteNumber":68,"velocity":97,"programNumber":30},{"time":371813.1718833341,"duration":171.42839999997523,"noteNumber":75,"velocity":97,"programNumber":30},{"time":371984.6002833341,"duration":342.85679999995045,"noteNumber":73,"velocity":97,"programNumber":30},{"time":372327.45708333404,"duration":171.42839999997523,"noteNumber":68,"velocity":97,"programNumber":30},{"time":372498.885483334,"duration":171.42839999997523,"noteNumber":75,"velocity":97,"programNumber":30},{"time":372670.313883334,"duration":342.85679999995045,"noteNumber":73,"velocity":97,"programNumber":30},{"time":373013.17068333394,"duration":171.42839999997523,"noteNumber":68,"velocity":97,"programNumber":30},{"time":373184.5990833339,"duration":171.42839999997523,"noteNumber":75,"velocity":97,"programNumber":30},{"time":373356.0274833339,"duration":271.4282999999705,"noteNumber":73,"velocity":97,"programNumber":30},{"time":373627.45578333386,"duration":757.1421000002301,"noteNumber":68,"velocity":97,"programNumber":30},{"time":374398.8835833341,"duration":1785.7125000004307,"noteNumber":73,"velocity":103,"programNumber":30},{"time":376398.8815833345,"duration":357.1425000000163,"noteNumber":73,"velocity":97,"programNumber":30},{"time":376756.02408333455,"duration":499.9995000001509,"noteNumber":68,"velocity":97,"programNumber":30},{"time":377256.0235833347,"duration":2999.9970000000903,"noteNumber":68,"velocity":97,"programNumber":30},{"time":380184.5920833348,"duration":214.28549999999814,"noteNumber":73,"velocity":97,"programNumber":30},{"time":380398.8775833348,"duration":499.9995000001509,"noteNumber":68,"velocity":97,"programNumber":30},{"time":380898.87708333496,"duration":571.4280000000726,"noteNumber":68,"velocity":97,"programNumber":30},{"time":381470.305083335,"duration":1142.8560000001453,"noteNumber":68,"velocity":97,"programNumber":30},{"time":382613.1610833352,"duration":285.7139999999781,"noteNumber":68,"velocity":85,"programNumber":30},{"time":382898.87508333515,"duration":285.7139999999781,"noteNumber":68,"velocity":85,"programNumber":30},{"time":383184.58908333513,"duration":285.7139999999781,"noteNumber":66,"velocity":85,"programNumber":30},{"time":383470.3030833351,"duration":428.5709999999963,"noteNumber":63,"velocity":90,"programNumber":30},{"time":383898.8740833351,"duration":428.5709999999963,"noteNumber":61,"velocity":90,"programNumber":30},{"time":384327.4450833351,"duration":642.856499999878,"noteNumber":73,"velocity":97,"programNumber":30},{"time":385613.158083335,"duration":857.1419999998761,"noteNumber":73,"velocity":97,"programNumber":30},{"time":386470.30008333485,"duration":428.5709999999963,"noteNumber":75,"velocity":97,"programNumber":30},{"time":386898.87108333485,"duration":785.7135000000126,"noteNumber":73,"velocity":97,"programNumber":30},{"time":387684.58458333486,"duration":642.8565000000526,"noteNumber":73,"velocity":97,"programNumber":30},{"time":388327.4410833349,"duration":571.4280000000144,"noteNumber":73,"velocity":97,"programNumber":30},{"time":388898.8690833349,"duration":499.99949999997625,"noteNumber":70,"velocity":97,"programNumber":30},{"time":389398.8685833349,"duration":642.8565000000526,"noteNumber":68,"velocity":97,"programNumber":30},{"time":390041.72508333495,"duration":571.4280000000144,"noteNumber":68,"velocity":97,"programNumber":30},{"time":390613.15308333497,"duration":571.4280000000144,"noteNumber":66,"velocity":97,"programNumber":30},{"time":391184.581083335,"duration":1214.2845000000088,"noteNumber":68,"velocity":97,"programNumber":30},{"time":392398.865583335,"duration":857.1420000001672,"noteNumber":68,"velocity":97,"programNumber":30},{"time":393327.43608333514,"duration":428.5709999999963,"noteNumber":68,"velocity":97,"programNumber":30},{"time":393756.00708333513,"duration":857.1419999999925,"noteNumber":68,"velocity":97,"programNumber":30},{"time":394613.1490833351,"duration":571.4280000000144,"noteNumber":68,"velocity":97,"programNumber":30},{"time":395184.57708333514,"duration":571.4280000000144,"noteNumber":68,"velocity":97,"programNumber":30},{"time":395756.00508333516,"duration":499.99949999997625,"noteNumber":68,"velocity":97,"programNumber":30},{"time":396256.00458333513,"duration":499.99950000003446,"noteNumber":68,"velocity":97,"programNumber":30},{"time":397613.14608333516,"duration":107.14274999999907,"noteNumber":44,"velocity":97,"programNumber":30},{"time":397613.14608333516,"duration":107.14274999999907,"noteNumber":49,"velocity":97,"programNumber":30},{"time":398041.71708333516,"duration":6642.850500000233,"noteNumber":63,"velocity":102,"programNumber":30},{"time":404684.5675833354,"duration":5142.851999999781,"noteNumber":54,"velocity":102,"programNumber":30},{"time":409827.41958333517,"duration":1928.5694999999832,"noteNumber":44,"velocity":92,"programNumber":30},{"time":411755.98908333515,"duration":1928.5695000000414,"noteNumber":42,"velocity":85,"programNumber":30},{"time":413684.5585833352,"duration":15212.484787499998,"noteNumber":39,"velocity":95,"programNumber":30}]]}