{"tracks":[[{"time":146666.74,"duration":2673.6124479165883,"noteNumber":55,"velocity":100,"programNumber":29},{"time":146666.74,"duration":2673.6124479165883,"noteNumber":48,"velocity":100,"programNumber":29},{"time":149333.4079999999,"duration":2673.6124479166756,"noteNumber":44,"velocity":100,"programNumber":29},{"time":149333.4079999999,"duration":2673.6124479166756,"noteNumber":51,"velocity":100,"programNumber":29},{"time":152000.0759999999,"duration":2673.6124479166756,"noteNumber":48,"velocity":100,"programNumber":29},{"time":152000.0759999999,"duration":2673.6124479166756,"noteNumber":55,"velocity":100,"programNumber":29},{"time":154666.74399999992,"duration":2673.6124479166756,"noteNumber":44,"velocity":100,"programNumber":29},{"time":154666.74399999992,"duration":2673.6124479166756,"noteNumber":51,"velocity":100,"programNumber":29},{"time":157333.41199999992,"duration":2673.6124479166756,"noteNumber":48,"velocity":100,"programNumber":29},{"time":157333.41199999992,"duration":2673.6124479166756,"noteNumber":55,"velocity":100,"programNumber":29},{"time":160000.07999999993,"duration":2673.6124479166756,"noteNumber":44,"velocity":100,"programNumber":29},{"time":160000.07999999993,"duration":2673.6124479166756,"noteNumber":51,"velocity":100,"programNumber":29},{"time":162666.74799999993,"duration":2673.6124479166756,"noteNumber":48,"velocity":100,"programNumber":29},{"time":162666.74799999993,"duration":2673.6124479166756,"noteNumber":55,"velocity":100,"programNumber":29},{"time":165333.41599999994,"duration":333.3335000000079,"noteNumber":44,"velocity":100,"programNumber":29},{"time":165333.41599999994,"duration":333.3335000000079,"noteNumber":51,"velocity":100,"programNumber":29},{"time":165666.74949999995,"duration":333.3335000000079,"noteNumber":51,"velocity":100,"programNumber":29},{"time":165666.74949999995,"duration":333.3335000000079,"noteNumber":44,"velocity":100,"programNumber":29},{"time":166000.08299999996,"duration":444.4446666666772,"noteNumber":51,"velocity":100,"programNumber":29},{"time":166000.08299999996,"duration":444.4446666666772,"noteNumber":44,"velocity":100,"programNumber":29},{"time":168000.08399999997,"duration":993.0560520833242,"noteNumber":70,"velocity":100,"programNumber":29},{"time":169000.08449999997,"duration":659.7225520833454,"noteNumber":72,"velocity":100,"programNumber":29},{"time":169666.75149999998,"duration":659.7225520833454,"noteNumber":75,"velocity":100,"programNumber":29},{"time":170333.4185,"duration":326.38905208333745,"noteNumber":70,"velocity":100,"programNumber":29},{"time":170666.752,"duration":993.0560520833242,"noteNumber":72,"velocity":100,"programNumber":29},{"time":171666.7525,"duration":326.38905208333745,"noteNumber":70,"velocity":100,"programNumber":29},{"time":172000.086,"duration":659.7225520833454,"noteNumber":67,"velocity":100,"programNumber":29},{"time":172666.75300000003,"duration":659.7225520833454,"noteNumber":67,"velocity":100,"programNumber":29},{"time":173333.42000000004,"duration":659.7225520833454,"noteNumber":60,"velocity":100,"programNumber":29},{"time":174000.08700000006,"duration":326.38905208333745,"noteNumber":58,"velocity":100,"programNumber":29},{"time":174333.42050000007,"duration":659.7225520833454,"noteNumber":60,"velocity":100,"programNumber":29},{"time":175000.08750000008,"duration":993.0560520833242,"noteNumber":53,"velocity":100,"programNumber":29},{"time":176000.08800000008,"duration":493.0558020833414,"noteNumber":55,"velocity":100,"programNumber":29},{"time":176500.0882500001,"duration":159.7223020833335,"noteNumber":53,"velocity":100,"programNumber":29},{"time":176666.7550000001,"duration":493.0558020833414,"noteNumber":55,"velocity":100,"programNumber":29},{"time":177166.7552500001,"duration":159.7223020833335,"noteNumber":53,"velocity":100,"programNumber":29},{"time":177333.4220000001,"duration":326.38905208333745,"noteNumber":55,"velocity":100,"programNumber":29},{"time":177666.75550000012,"duration":326.38905208333745,"noteNumber":48,"velocity":100,"programNumber":29},{"time":178000.08900000012,"duration":493.0558020833414,"noteNumber":48,"velocity":100,"programNumber":29},{"time":178500.08925000014,"duration":159.7223020833335,"noteNumber":46,"velocity":100,"programNumber":29},{"time":178666.75600000014,"duration":326.38905208333745,"noteNumber":48,"velocity":100,"programNumber":29},{"time":179000.08950000015,"duration":326.38905208333745,"noteNumber":51,"velocity":100,"programNumber":29},{"time":179333.42300000016,"duration":326.38905208333745,"noteNumber":53,"velocity":100,"programNumber":29},{"time":179666.75650000016,"duration":993.056052083557,"noteNumber":53,"velocity":100,"programNumber":29},{"time":180666.7570000004,"duration":326.38905208333745,"noteNumber":51,"velocity":100,"programNumber":29},{"time":181000.0905000004,"duration":326.38905208333745,"noteNumber":53,"velocity":100,"programNumber":29},{"time":181333.4240000004,"duration":659.7225520833454,"noteNumber":55,"velocity":100,"programNumber":29},{"time":182000.09100000042,"duration":326.38905208333745,"noteNumber":58,"velocity":100,"programNumber":29},{"time":182333.42450000043,"duration":659.7225520833454,"noteNumber":60,"velocity":100,"programNumber":29},{"time":183000.09150000045,"duration":993.0560520833242,"noteNumber":63,"velocity":100,"programNumber":29},{"time":184000.09200000044,"duration":993.0560520833242,"noteNumber":65,"velocity":100,"programNumber":29},{"time":185000.09250000044,"duration":326.38905208333745,"noteNumber":70,"velocity":100,"programNumber":29},{"time":185333.42600000044,"duration":659.7225520833454,"noteNumber":72,"velocity":100,"programNumber":29},{"time":186000.09300000046,"duration":659.7225520833454,"noteNumber":70,"velocity":100,"programNumber":29},{"time":186666.76000000047,"duration":1159.7228020833281,"noteNumber":75,"velocity":100,"programNumber":29},{"time":187833.42725000047,"duration":1493.056302083889,"noteNumber":77,"velocity":100,"programNumber":29},{"time":189333.42800000103,"duration":5166.669249999948,"noteNumber":72,"velocity":100,"programNumber":29},{"time":210666.772000001,"duration":2666.667999999918,"noteNumber":55,"velocity":100,"programNumber":29},{"time":210666.772000001,"duration":2666.667999999918,"noteNumber":48,"velocity":100,"programNumber":29},{"time":213333.4400000009,"duration":1333.3340000000026,"noteNumber":51,"velocity":100,"programNumber":29},{"time":213333.4400000009,"duration":1333.3340000000026,"noteNumber":44,"velocity":100,"programNumber":29},{"time":214666.7740000009,"duration":1333.3340000000026,"noteNumber":50,"velocity":100,"programNumber":29},{"time":214666.7740000009,"duration":1333.3340000000026,"noteNumber":43,"velocity":100,"programNumber":29},{"time":216000.1080000009,"duration":2666.668000000005,"noteNumber":55,"velocity":100,"programNumber":29},{"time":216000.1080000009,"duration":2666.668000000005,"noteNumber":48,"velocity":100,"programNumber":29},{"time":218666.77600000091,"duration":1333.3340000000026,"noteNumber":51,"velocity":100,"programNumber":29},{"time":218666.77600000091,"duration":1333.3340000000026,"noteNumber":44,"velocity":100,"programNumber":29},{"time":220000.11000000092,"duration":1333.3340000000026,"noteNumber":50,"velocity":100,"programNumber":29},{"time":220000.11000000092,"duration":1333.3340000000026,"noteNumber":43,"velocity":100,"programNumber":29},{"time":221333.44400000092,"duration":2666.668000000005,"noteNumber":55,"velocity":100,"programNumber":29},{"time":221333.44400000092,"duration":2666.668000000005,"noteNumber":48,"velocity":100,"programNumber":29},{"time":224000.11200000093,"duration":1333.3340000000026,"noteNumber":51,"velocity":100,"programNumber":29},{"time":224000.11200000093,"duration":1333.3340000000026,"noteNumber":44,"velocity":100,"programNumber":29},{"time":225333.44600000093,"duration":1333.3340000000026,"noteNumber":50,"velocity":100,"programNumber":29},{"time":225333.44600000093,"duration":1333.3340000000026,"noteNumber":43,"velocity":100,"programNumber":29},{"time":226666.78000000093,"duration":2666.668000000005,"noteNumber":55,"velocity":100,"programNumber":29},{"time":226666.78000000093,"duration":2666.668000000005,"noteNumber":48,"velocity":100,"programNumber":29},{"time":229333.44800000094,"duration":1333.3340000000026,"noteNumber":51,"velocity":100,"programNumber":29},{"time":229333.44800000094,"duration":1333.3340000000026,"noteNumber":44,"velocity":100,"programNumber":29},{"time":230666.78200000094,"duration":1331.2506656250043,"noteNumber":50,"velocity":100,"programNumber":29},{"time":230666.78200000094,"duration":1331.2506656250043,"noteNumber":43,"velocity":100,"programNumber":29}]]}