{"tracks":[[{"time":108.08275,"duration":108.08275,"noteNumber":59,"velocity":110,"programNumber":3},{"time":220.86475000000002,"duration":108.08274999999998,"noteNumber":66,"velocity":105,"programNumber":3},{"time":333.64675,"duration":103.38350000000003,"noteNumber":59,"velocity":102,"programNumber":3},{"time":446.42875000000004,"duration":108.08275000000003,"noteNumber":63,"velocity":101,"programNumber":3},{"time":559.2107500000001,"duration":108.08275000000003,"noteNumber":59,"velocity":108,"programNumber":3},{"time":671.9927500000001,"duration":103.38350000000003,"noteNumber":66,"velocity":101,"programNumber":3},{"time":784.7747500000002,"duration":108.08275000000003,"noteNumber":59,"velocity":99,"programNumber":3},{"time":897.5567500000002,"duration":108.08275000000003,"noteNumber":63,"velocity":101,"programNumber":3},{"time":1010.3387500000002,"duration":108.08274999999992,"noteNumber":59,"velocity":104,"programNumber":3},{"time":1123.12075,"duration":108.08275000000003,"noteNumber":66,"velocity":99,"programNumber":3},{"time":1235.90275,"duration":108.08275000000003,"noteNumber":59,"velocity":102,"programNumber":3},{"time":1348.68475,"duration":103.38349999999991,"noteNumber":63,"velocity":99,"programNumber":3},{"time":1456.7674999999997,"duration":112.78199999999993,"noteNumber":59,"velocity":99,"programNumber":3},{"time":1574.2487499999995,"duration":108.08275000000003,"noteNumber":66,"velocity":105,"programNumber":3},{"time":1687.0307499999994,"duration":108.08275000000003,"noteNumber":59,"velocity":101,"programNumber":3},{"time":1799.8127499999994,"duration":103.38349999999991,"noteNumber":63,"velocity":103,"programNumber":3},{"time":1903.1962499999993,"duration":112.78199999999993,"noteNumber":59,"velocity":102,"programNumber":3},{"time":2025.3767499999992,"duration":108.0827499999998,"noteNumber":66,"velocity":103,"programNumber":3},{"time":2138.158749999999,"duration":108.08275000000003,"noteNumber":59,"velocity":104,"programNumber":3},{"time":2250.9407499999993,"duration":108.08275000000003,"noteNumber":63,"velocity":101,"programNumber":3},{"time":2363.7227499999995,"duration":108.08275000000003,"noteNumber":59,"velocity":99,"programNumber":3},{"time":2476.5047499999996,"duration":108.08275000000003,"noteNumber":66,"velocity":105,"programNumber":3},{"time":2589.2867499999998,"duration":103.38349999999991,"noteNumber":59,"velocity":97,"programNumber":3},{"time":2702.0687499999995,"duration":98.68424999999979,"noteNumber":63,"velocity":105,"programNumber":3},{"time":2810.151499999999,"duration":103.38349999999991,"noteNumber":59,"velocity":102,"programNumber":3},{"time":2927.632749999999,"duration":108.08275000000003,"noteNumber":66,"velocity":105,"programNumber":3},{"time":3040.414749999999,"duration":98.68424999999979,"noteNumber":59,"velocity":99,"programNumber":3},{"time":3153.1967499999987,"duration":108.08275000000003,"noteNumber":63,"velocity":103,"programNumber":3},{"time":3265.978749999999,"duration":108.08275000000003,"noteNumber":59,"velocity":99,"programNumber":3},{"time":3378.760749999999,"duration":108.08275000000003,"noteNumber":66,"velocity":103,"programNumber":3},{"time":3491.542749999999,"duration":108.08275000000003,"noteNumber":59,"velocity":97,"programNumber":3},{"time":3604.3247499999993,"duration":108.08275000000003,"noteNumber":64,"velocity":104,"programNumber":3},{"time":3717.1067499999995,"duration":103.38349999999991,"noteNumber":59,"velocity":102,"programNumber":3},{"time":3829.888749999999,"duration":108.08275000000003,"noteNumber":67,"velocity":101,"programNumber":3},{"time":3942.6707499999993,"duration":108.08275000000003,"noteNumber":59,"velocity":99,"programNumber":3},{"time":4055.4527499999995,"duration":108.08274999999958,"noteNumber":64,"velocity":104,"programNumber":3},{"time":4168.234749999999,"duration":108.08274999999958,"noteNumber":59,"velocity":102,"programNumber":3},{"time":4281.016749999998,"duration":98.68425000000025,"noteNumber":67,"velocity":104,"programNumber":3},{"time":4384.400249999998,"duration":117.48124999999982,"noteNumber":59,"velocity":101,"programNumber":3},{"time":4506.580749999997,"duration":108.08274999999958,"noteNumber":64,"velocity":104,"programNumber":3},{"time":4619.362749999997,"duration":108.08274999999958,"noteNumber":59,"velocity":101,"programNumber":3},{"time":4732.144749999996,"duration":108.08274999999958,"noteNumber":67,"velocity":106,"programNumber":3},{"time":4844.926749999995,"duration":108.08274999999958,"noteNumber":59,"velocity":99,"programNumber":3},{"time":4957.708749999994,"duration":103.38349999999991,"noteNumber":64,"velocity":110,"programNumber":3},{"time":5070.4907499999945,"duration":98.68425000000025,"noteNumber":59,"velocity":97,"programNumber":3},{"time":5183.272749999995,"duration":108.08274999999958,"noteNumber":67,"velocity":108,"programNumber":3},{"time":5296.054749999994,"duration":108.08274999999958,"noteNumber":59,"velocity":102,"programNumber":3},{"time":5408.836749999993,"duration":108.08274999999958,"noteNumber":64,"velocity":106,"programNumber":3},{"time":5521.618749999992,"duration":93.98499999999967,"noteNumber":59,"velocity":102,"programNumber":3},{"time":5634.400749999992,"duration":108.08274999999958,"noteNumber":67,"velocity":106,"programNumber":3},{"time":5747.182749999991,"duration":108.08274999999958,"noteNumber":59,"velocity":97,"programNumber":3},{"time":5859.96474999999,"duration":108.08274999999958,"noteNumber":64,"velocity":108,"programNumber":3},{"time":5972.746749999989,"duration":98.68425000000025,"noteNumber":59,"velocity":99,"programNumber":3},{"time":6085.5287499999895,"duration":108.08274999999958,"noteNumber":67,"velocity":104,"programNumber":3},{"time":6198.310749999989,"duration":108.08274999999958,"noteNumber":59,"velocity":104,"programNumber":3},{"time":6311.092749999988,"duration":98.68425000000025,"noteNumber":64,"velocity":104,"programNumber":3},{"time":6423.874749999988,"duration":108.08274999999958,"noteNumber":59,"velocity":102,"programNumber":3},{"time":6536.656749999987,"duration":108.08274999999958,"noteNumber":67,"velocity":104,"programNumber":3},{"time":6649.438749999987,"duration":98.68425000000025,"noteNumber":59,"velocity":101,"programNumber":3},{"time":6762.220749999987,"duration":93.98499999999967,"noteNumber":64,"velocity":108,"programNumber":3},{"time":6865.604249999987,"duration":117.48124999999982,"noteNumber":59,"velocity":108,"programNumber":3},{"time":6987.784749999986,"duration":108.08274999999958,"noteNumber":67,"velocity":108,"programNumber":3},{"time":7100.566749999985,"duration":98.68425000000025,"noteNumber":59,"velocity":102,"programNumber":3},{"time":7213.348749999986,"duration":108.08274999999958,"noteNumber":63,"velocity":101,"programNumber":3},{"time":7326.130749999985,"duration":108.08274999999958,"noteNumber":59,"velocity":110,"programNumber":3},{"time":7438.912749999984,"duration":108.08274999999958,"noteNumber":66,"velocity":105,"programNumber":3},{"time":7551.694749999983,"duration":98.68425000000025,"noteNumber":59,"velocity":102,"programNumber":3},{"time":7664.476749999983,"duration":108.08274999999958,"noteNumber":63,"velocity":101,"programNumber":3},{"time":7777.258749999983,"duration":93.98499999999967,"noteNumber":59,"velocity":108,"programNumber":3},{"time":7890.040749999982,"duration":108.08274999999958,"noteNumber":66,"velocity":101,"programNumber":3},{"time":8002.822749999981,"duration":108.08274999999958,"noteNumber":59,"velocity":99,"programNumber":3},{"time":8115.60474999998,"duration":103.38349999999991,"noteNumber":63,"velocity":101,"programNumber":3},{"time":8228.38674999998,"duration":93.98500000000058,"noteNumber":59,"velocity":104,"programNumber":3},{"time":8341.16874999998,"duration":108.08274999999958,"noteNumber":66,"velocity":99,"programNumber":3},{"time":8453.95074999998,"duration":98.68425000000025,"noteNumber":59,"velocity":102,"programNumber":3},{"time":8566.732749999981,"duration":108.08274999999958,"noteNumber":63,"velocity":99,"programNumber":3},{"time":8679.51474999998,"duration":98.68425000000025,"noteNumber":59,"velocity":99,"programNumber":3},{"time":8792.296749999981,"duration":108.08274999999958,"noteNumber":66,"velocity":105,"programNumber":3},{"time":8905.07874999998,"duration":108.08274999999958,"noteNumber":59,"velocity":101,"programNumber":3},{"time":9017.86074999998,"duration":108.08274999999958,"noteNumber":63,"velocity":103,"programNumber":3},{"time":9130.642749999979,"duration":103.38349999999991,"noteNumber":59,"velocity":102,"programNumber":3},{"time":9243.424749999978,"duration":108.08274999999958,"noteNumber":66,"velocity":103,"programNumber":3},{"time":9356.206749999978,"duration":108.08274999999958,"noteNumber":59,"velocity":104,"programNumber":3},{"time":9468.988749999977,"duration":108.08274999999958,"noteNumber":63,"velocity":101,"programNumber":3},{"time":9581.770749999976,"duration":108.08274999999958,"noteNumber":59,"velocity":99,"programNumber":3},{"time":9694.552749999975,"duration":108.08274999999958,"noteNumber":66,"velocity":105,"programNumber":3},{"time":9807.334749999975,"duration":108.08274999999958,"noteNumber":59,"velocity":97,"programNumber":3},{"time":9920.116749999974,"duration":108.08274999999958,"noteNumber":63,"velocity":105,"programNumber":3},{"time":10032.898749999973,"duration":108.08274999999958,"noteNumber":59,"velocity":102,"programNumber":3},{"time":10145.680749999972,"duration":108.08274999999958,"noteNumber":66,"velocity":105,"programNumber":3},{"time":10258.462749999971,"duration":108.08274999999958,"noteNumber":59,"velocity":99,"programNumber":3},{"time":10371.24474999997,"duration":108.08274999999958,"noteNumber":63,"velocity":103,"programNumber":3},{"time":10484.02674999997,"duration":98.68425000000025,"noteNumber":59,"velocity":99,"programNumber":3},{"time":10596.808749999971,"duration":108.08274999999958,"noteNumber":66,"velocity":103,"programNumber":3},{"time":10709.59074999997,"duration":108.08274999999958,"noteNumber":59,"velocity":97,"programNumber":3},{"time":10822.37274999997,"duration":108.08274999999958,"noteNumber":64,"velocity":104,"programNumber":3},{"time":10935.154749999969,"duration":93.98500000000058,"noteNumber":59,"velocity":102,"programNumber":3},{"time":11047.93674999997,"duration":108.08274999999958,"noteNumber":67,"velocity":101,"programNumber":3},{"time":11160.718749999969,"duration":108.08274999999958,"noteNumber":59,"velocity":99,"programNumber":3},{"time":11273.500749999968,"duration":108.08274999999958,"noteNumber":64,"velocity":104,"programNumber":3},{"time":11386.282749999968,"duration":103.38349999999991,"noteNumber":59,"velocity":102,"programNumber":3},{"time":11499.064749999967,"duration":108.08274999999958,"noteNumber":67,"velocity":104,"programNumber":3},{"time":11611.846749999966,"duration":108.08274999999958,"noteNumber":59,"velocity":101,"programNumber":3},{"time":11724.628749999965,"duration":108.08274999999958,"noteNumber":64,"velocity":104,"programNumber":3},{"time":11837.410749999965,"duration":108.08274999999958,"noteNumber":59,"velocity":101,"programNumber":3},{"time":11950.192749999964,"duration":108.08274999999958,"noteNumber":67,"velocity":106,"programNumber":3},{"time":12062.974749999963,"duration":108.08274999999958,"noteNumber":59,"velocity":99,"programNumber":3},{"time":12175.756749999962,"duration":108.08274999999958,"noteNumber":64,"velocity":110,"programNumber":3},{"time":12288.538749999962,"duration":108.08274999999958,"noteNumber":59,"velocity":97,"programNumber":3},{"time":12401.32074999996,"duration":98.68425000000025,"noteNumber":67,"velocity":108,"programNumber":3},{"time":12504.70424999996,"duration":108.08274999999958,"noteNumber":59,"velocity":102,"programNumber":3},{"time":12626.884749999961,"duration":98.68425000000025,"noteNumber":64,"velocity":106,"programNumber":3},{"time":12730.268249999961,"duration":103.38349999999991,"noteNumber":59,"velocity":102,"programNumber":3},{"time":12852.448749999961,"duration":98.68425000000025,"noteNumber":67,"velocity":106,"programNumber":3},{"time":12955.832249999961,"duration":103.38349999999991,"noteNumber":59,"velocity":97,"programNumber":3},{"time":13078.012749999962,"duration":98.68425000000025,"noteNumber":64,"velocity":108,"programNumber":3},{"time":13181.396249999962,"duration":103.38349999999991,"noteNumber":59,"velocity":99,"programNumber":3},{"time":13303.576749999962,"duration":108.08274999999958,"noteNumber":67,"velocity":104,"programNumber":3},{"time":13416.358749999961,"duration":108.08274999999958,"noteNumber":59,"velocity":104,"programNumber":3},{"time":13529.14074999996,"duration":98.68425000000025,"noteNumber":64,"velocity":104,"programNumber":3},{"time":13632.52424999996,"duration":108.08274999999958,"noteNumber":59,"velocity":102,"programNumber":3},{"time":13754.70474999996,"duration":98.68425000000025,"noteNumber":67,"velocity":104,"programNumber":3},{"time":13858.08824999996,"duration":108.08274999999958,"noteNumber":59,"velocity":101,"programNumber":3},{"time":13980.268749999961,"duration":108.08274999999958,"noteNumber":64,"velocity":108,"programNumber":3},{"time":14093.05074999996,"duration":108.08274999999958,"noteNumber":59,"velocity":108,"programNumber":3},{"time":14205.83274999996,"duration":108.08274999999958,"noteNumber":67,"velocity":108,"programNumber":3},{"time":14318.614749999959,"duration":108.08274999999958,"noteNumber":59,"velocity":102,"programNumber":3},{"time":14431.396749999958,"duration":93.98500000000058,"noteNumber":71,"velocity":106,"programNumber":3},{"time":14530.080999999958,"duration":112.78199999999924,"noteNumber":59,"velocity":101,"programNumber":3},{"time":14656.960749999958,"duration":108.08274999999958,"noteNumber":69,"velocity":104,"programNumber":3},{"time":14769.742749999958,"duration":108.08274999999958,"noteNumber":59,"velocity":101,"programNumber":3},{"time":14882.524749999957,"duration":108.08274999999958,"noteNumber":68,"velocity":103,"programNumber":3},{"time":14995.306749999956,"duration":98.68425000000025,"noteNumber":59,"velocity":101,"programNumber":3},{"time":15108.088749999957,"duration":98.68425000000025,"noteNumber":69,"velocity":97,"programNumber":3},{"time":15211.472249999957,"duration":117.48125000000073,"noteNumber":59,"velocity":96,"programNumber":3},{"time":15333.652749999957,"duration":98.68425000000025,"noteNumber":68,"velocity":103,"programNumber":3},{"time":15437.036249999957,"duration":117.48125000000073,"noteNumber":59,"velocity":91,"programNumber":3},{"time":15559.216749999958,"duration":108.08274999999958,"noteNumber":66,"velocity":101,"programNumber":3},{"time":15671.998749999957,"duration":98.68425000000025,"noteNumber":59,"velocity":101,"programNumber":3},{"time":15784.780749999958,"duration":108.08274999999958,"noteNumber":68,"velocity":101,"programNumber":3},{"time":15897.562749999957,"duration":108.08274999999958,"noteNumber":59,"velocity":99,"programNumber":3},{"time":16010.344749999957,"duration":108.08274999999958,"noteNumber":64,"velocity":104,"programNumber":3},{"time":16123.126749999956,"duration":108.08274999999958,"noteNumber":59,"velocity":102,"programNumber":3},{"time":16235.908749999955,"duration":108.08274999999958,"noteNumber":66,"velocity":105,"programNumber":3},{"time":16348.690749999954,"duration":108.0827500000014,"noteNumber":59,"velocity":102,"programNumber":3},{"time":16461.472749999957,"duration":108.0827500000014,"noteNumber":63,"velocity":103,"programNumber":3},{"time":16574.25474999996,"duration":108.0827500000014,"noteNumber":59,"velocity":97,"programNumber":3},{"time":16687.036749999963,"duration":108.0827500000014,"noteNumber":64,"velocity":101,"programNumber":3},{"time":16799.818749999966,"duration":108.0827500000014,"noteNumber":59,"velocity":101,"programNumber":3},{"time":16912.60074999997,"duration":108.0827500000014,"noteNumber":63,"velocity":97,"programNumber":3},{"time":17025.38274999997,"duration":108.0827500000014,"noteNumber":59,"velocity":97,"programNumber":3},{"time":17138.164749999974,"duration":108.0827500000014,"noteNumber":64,"velocity":102,"programNumber":3},{"time":17250.946749999977,"duration":108.0827500000014,"noteNumber":59,"velocity":101,"programNumber":3},{"time":17363.72874999998,"duration":98.68424999999843,"noteNumber":63,"velocity":92,"programNumber":3},{"time":17476.51074999998,"duration":108.0827500000014,"noteNumber":59,"velocity":99,"programNumber":3},{"time":17589.292749999982,"duration":108.0827500000014,"noteNumber":64,"velocity":102,"programNumber":3},{"time":17702.074749999985,"duration":108.0827500000014,"noteNumber":59,"velocity":104,"programNumber":3},{"time":17814.856749999988,"duration":98.68424999999843,"noteNumber":63,"velocity":105,"programNumber":3},{"time":17927.638749999987,"duration":98.68424999999843,"noteNumber":59,"velocity":99,"programNumber":3},{"time":18040.420749999987,"duration":98.68424999999843,"noteNumber":71,"velocity":106,"programNumber":3},{"time":18153.202749999986,"duration":108.0827500000014,"noteNumber":59,"velocity":101,"programNumber":3},{"time":18265.98474999999,"duration":108.0827500000014,"noteNumber":69,"velocity":104,"programNumber":3},{"time":18378.76674999999,"duration":108.0827500000014,"noteNumber":59,"velocity":101,"programNumber":3},{"time":18491.548749999994,"duration":108.0827500000014,"noteNumber":68,"velocity":103,"programNumber":3},{"time":18604.330749999997,"duration":108.0827500000014,"noteNumber":59,"velocity":101,"programNumber":3},{"time":18717.11275,"duration":108.0827500000014,"noteNumber":69,"velocity":97,"programNumber":3},{"time":18829.894750000003,"duration":108.0827500000014,"noteNumber":59,"velocity":96,"programNumber":3},{"time":18942.676750000006,"duration":108.0827500000014,"noteNumber":68,"velocity":103,"programNumber":3},{"time":19055.45875000001,"duration":108.0827500000014,"noteNumber":59,"velocity":91,"programNumber":3},{"time":19168.24075000001,"duration":108.0827500000014,"noteNumber":66,"velocity":101,"programNumber":3},{"time":19281.022750000015,"duration":98.68424999999843,"noteNumber":59,"velocity":101,"programNumber":3},{"time":19393.804750000014,"duration":98.68424999999843,"noteNumber":68,"velocity":101,"programNumber":3},{"time":19506.586750000013,"duration":108.0827500000014,"noteNumber":59,"velocity":99,"programNumber":3},{"time":19619.368750000016,"duration":108.0827500000014,"noteNumber":64,"velocity":104,"programNumber":3},{"time":19732.15075000002,"duration":108.0827500000014,"noteNumber":59,"velocity":102,"programNumber":3},{"time":19844.93275000002,"duration":108.0827500000014,"noteNumber":66,"velocity":105,"programNumber":3},{"time":19957.714750000025,"duration":98.68424999999843,"noteNumber":59,"velocity":102,"programNumber":3},{"time":20070.496750000024,"duration":108.0827500000014,"noteNumber":63,"velocity":103,"programNumber":3},{"time":20183.278750000027,"duration":108.0827500000014,"noteNumber":59,"velocity":97,"programNumber":3},{"time":20296.06075000003,"duration":103.38349999999991,"noteNumber":64,"velocity":101,"programNumber":3},{"time":20408.84275000003,"duration":93.98500000000058,"noteNumber":59,"velocity":101,"programNumber":3},{"time":20521.624750000028,"duration":108.0827500000014,"noteNumber":63,"velocity":97,"programNumber":3},{"time":20634.40675000003,"duration":108.0827500000014,"noteNumber":59,"velocity":97,"programNumber":3},{"time":20747.188750000034,"duration":98.68424999999843,"noteNumber":64,"velocity":102,"programNumber":3},{"time":20850.572250000034,"duration":103.38349999999991,"noteNumber":59,"velocity":101,"programNumber":3},{"time":20972.752750000032,"duration":108.0827500000014,"noteNumber":63,"velocity":92,"programNumber":3},{"time":21085.534750000035,"duration":98.68424999999843,"noteNumber":59,"velocity":99,"programNumber":3},{"time":21198.316750000035,"duration":108.0827500000014,"noteNumber":64,"velocity":102,"programNumber":3},{"time":21311.098750000037,"duration":98.68424999999843,"noteNumber":59,"velocity":104,"programNumber":3},{"time":21423.880750000037,"duration":108.0827500000014,"noteNumber":63,"velocity":105,"programNumber":3},{"time":21536.66275000004,"duration":108.0827500000014,"noteNumber":59,"velocity":99,"programNumber":3},{"time":21649.444750000042,"duration":108.0827500000014,"noteNumber":71,"velocity":106,"programNumber":3},{"time":21762.226750000045,"duration":98.68424999999843,"noteNumber":59,"velocity":101,"programNumber":3},{"time":21875.008750000045,"duration":108.0827500000014,"noteNumber":69,"velocity":104,"programNumber":3},{"time":21987.790750000047,"duration":108.0827500000014,"noteNumber":59,"velocity":101,"programNumber":3},{"time":22100.57275000005,"duration":108.0827500000014,"noteNumber":68,"velocity":103,"programNumber":3},{"time":22213.354750000053,"duration":98.68424999999843,"noteNumber":59,"velocity":101,"programNumber":3},{"time":22326.136750000052,"duration":108.0827500000014,"noteNumber":69,"velocity":97,"programNumber":3},{"time":22438.918750000055,"duration":108.0827500000014,"noteNumber":59,"velocity":96,"programNumber":3},{"time":22551.700750000058,"duration":108.0827500000014,"noteNumber":68,"velocity":103,"programNumber":3},{"time":22664.48275000006,"duration":108.0827500000014,"noteNumber":59,"velocity":91,"programNumber":3},{"time":22777.264750000064,"duration":108.0827500000014,"noteNumber":66,"velocity":101,"programNumber":3},{"time":22890.046750000067,"duration":108.0827500000014,"noteNumber":59,"velocity":101,"programNumber":3},{"time":23002.82875000007,"duration":108.0827500000014,"noteNumber":68,"velocity":101,"programNumber":3},{"time":23115.610750000073,"duration":108.0827500000014,"noteNumber":59,"velocity":99,"programNumber":3},{"time":23228.392750000075,"duration":108.0827500000014,"noteNumber":64,"velocity":104,"programNumber":3},{"time":23341.17475000008,"duration":108.0827500000014,"noteNumber":59,"velocity":102,"programNumber":3},{"time":23453.95675000008,"duration":108.0827500000014,"noteNumber":66,"velocity":105,"programNumber":3},{"time":23566.738750000084,"duration":98.68424999999843,"noteNumber":59,"velocity":102,"programNumber":3},{"time":23679.520750000083,"duration":108.0827500000014,"noteNumber":63,"velocity":103,"programNumber":3},{"time":23792.302750000086,"duration":98.68424999999843,"noteNumber":59,"velocity":97,"programNumber":3},{"time":23905.084750000085,"duration":108.0827500000014,"noteNumber":64,"velocity":101,"programNumber":3},{"time":24017.86675000009,"duration":108.0827500000014,"noteNumber":59,"velocity":101,"programNumber":3},{"time":24130.64875000009,"duration":108.0827500000014,"noteNumber":63,"velocity":97,"programNumber":3},{"time":24243.430750000094,"duration":108.0827500000014,"noteNumber":59,"velocity":97,"programNumber":3},{"time":24356.212750000097,"duration":108.0827500000014,"noteNumber":64,"velocity":102,"programNumber":3},{"time":24468.9947500001,"duration":103.38349999999991,"noteNumber":59,"velocity":101,"programNumber":3},{"time":24581.7767500001,"duration":108.0827500000014,"noteNumber":63,"velocity":92,"programNumber":3},{"time":24694.558750000102,"duration":103.38349999999991,"noteNumber":59,"velocity":99,"programNumber":3},{"time":24807.3407500001,"duration":108.0827500000014,"noteNumber":64,"velocity":102,"programNumber":3},{"time":24920.122750000104,"duration":103.38349999999991,"noteNumber":59,"velocity":104,"programNumber":3},{"time":25032.904750000103,"duration":108.0827500000014,"noteNumber":63,"velocity":105,"programNumber":3},{"time":25145.686750000106,"duration":108.0827500000014,"noteNumber":59,"velocity":99,"programNumber":3},{"time":25258.46875000011,"duration":108.0827500000014,"noteNumber":71,"velocity":106,"programNumber":3},{"time":25371.250750000112,"duration":93.98500000000058,"noteNumber":59,"velocity":101,"programNumber":3},{"time":25484.03275000011,"duration":108.0827500000014,"noteNumber":69,"velocity":104,"programNumber":3},{"time":25596.814750000114,"duration":108.0827500000014,"noteNumber":59,"velocity":101,"programNumber":3},{"time":25709.596750000117,"duration":108.0827500000014,"noteNumber":68,"velocity":103,"programNumber":3},{"time":25822.37875000012,"duration":98.68424999999843,"noteNumber":59,"velocity":101,"programNumber":3},{"time":25935.16075000012,"duration":98.68424999999843,"noteNumber":69,"velocity":97,"programNumber":3},{"time":26038.54425000012,"duration":108.0827500000014,"noteNumber":59,"velocity":96,"programNumber":3},{"time":26160.72475000012,"duration":98.68424999999843,"noteNumber":68,"velocity":103,"programNumber":3},{"time":26264.10825000012,"duration":108.0827500000014,"noteNumber":59,"velocity":91,"programNumber":3},{"time":26386.288750000123,"duration":93.98500000000058,"noteNumber":66,"velocity":101,"programNumber":3},{"time":26484.973000000125,"duration":112.78199999999924,"noteNumber":59,"velocity":101,"programNumber":3},{"time":26611.852750000126,"duration":93.98500000000058,"noteNumber":68,"velocity":101,"programNumber":3},{"time":26710.537000000128,"duration":112.78199999999924,"noteNumber":59,"velocity":99,"programNumber":3},{"time":26837.416750000128,"duration":108.0827500000014,"noteNumber":64,"velocity":104,"programNumber":3},{"time":26950.19875000013,"duration":98.68424999999843,"noteNumber":59,"velocity":102,"programNumber":3},{"time":27062.98075000013,"duration":98.68424999999843,"noteNumber":66,"velocity":105,"programNumber":3},{"time":27166.36425000013,"duration":108.0827500000014,"noteNumber":59,"velocity":102,"programNumber":3},{"time":27288.544750000132,"duration":108.0827500000014,"noteNumber":63,"velocity":103,"programNumber":3},{"time":27401.326750000135,"duration":103.38349999999991,"noteNumber":59,"velocity":97,"programNumber":3},{"time":27514.108750000134,"duration":108.0827500000014,"noteNumber":64,"velocity":101,"programNumber":3},{"time":27626.890750000137,"duration":98.68424999999843,"noteNumber":59,"velocity":101,"programNumber":3},{"time":27739.672750000136,"duration":108.0827500000014,"noteNumber":63,"velocity":97,"programNumber":3},{"time":27852.45475000014,"duration":108.0827500000014,"noteNumber":59,"velocity":97,"programNumber":3},{"time":27965.236750000142,"duration":108.0827500000014,"noteNumber":64,"velocity":102,"programNumber":3},{"time":28078.018750000145,"duration":98.68424999999843,"noteNumber":59,"velocity":101,"programNumber":3},{"time":28190.800750000144,"duration":108.0827500000014,"noteNumber":63,"velocity":92,"programNumber":3},{"time":28303.582750000147,"duration":98.68424999999843,"noteNumber":59,"velocity":99,"programNumber":3},{"time":28416.364750000146,"duration":98.68424999999843,"noteNumber":64,"velocity":102,"programNumber":3},{"time":28519.748250000146,"duration":117.48125000000073,"noteNumber":59,"velocity":104,"programNumber":3},{"time":28641.92875000015,"duration":108.0827500000014,"noteNumber":63,"velocity":105,"programNumber":3},{"time":28754.71075000015,"duration":108.0827500000014,"noteNumber":59,"velocity":99,"programNumber":3},{"time":28867.492750000154,"duration":93.98500000000058,"noteNumber":71,"velocity":106,"programNumber":3},{"time":28966.177000000156,"duration":112.78199999999924,"noteNumber":59,"velocity":101,"programNumber":3},{"time":29093.056750000156,"duration":98.68424999999843,"noteNumber":69,"velocity":104,"programNumber":3},{"time":29196.440250000156,"duration":117.48125000000073,"noteNumber":59,"velocity":101,"programNumber":3},{"time":29318.62075000016,"duration":93.98500000000058,"noteNumber":68,"velocity":103,"programNumber":3},{"time":29417.30500000016,"duration":122.18049999999857,"noteNumber":59,"velocity":101,"programNumber":3},{"time":29544.18475000016,"duration":108.0827500000014,"noteNumber":69,"velocity":97,"programNumber":3},{"time":29656.966750000163,"duration":108.0827500000014,"noteNumber":59,"velocity":96,"programNumber":3},{"time":29769.748750000166,"duration":108.0827500000014,"noteNumber":68,"velocity":103,"programNumber":3},{"time":29882.53075000017,"duration":108.0827500000014,"noteNumber":59,"velocity":91,"programNumber":3},{"time":29995.312750000172,"duration":108.0827500000014,"noteNumber":66,"velocity":101,"programNumber":3},{"time":30108.094750000175,"duration":98.68424999999843,"noteNumber":59,"velocity":101,"programNumber":3},{"time":30220.876750000174,"duration":108.0827500000014,"noteNumber":68,"velocity":101,"programNumber":3},{"time":30333.658750000177,"duration":93.98500000000058,"noteNumber":59,"velocity":99,"programNumber":3},{"time":30446.440750000176,"duration":108.0827500000014,"noteNumber":64,"velocity":104,"programNumber":3},{"time":30559.22275000018,"duration":108.0827500000014,"noteNumber":59,"velocity":102,"programNumber":3},{"time":30672.004750000182,"duration":108.0827500000014,"noteNumber":66,"velocity":105,"programNumber":3},{"time":30784.786750000185,"duration":93.98500000000058,"noteNumber":59,"velocity":102,"programNumber":3},{"time":30897.568750000184,"duration":98.68424999999843,"noteNumber":63,"velocity":103,"programNumber":3},{"time":31010.350750000183,"duration":98.68424999999843,"noteNumber":59,"velocity":97,"programNumber":3},{"time":31123.132750000183,"duration":98.68424999999843,"noteNumber":64,"velocity":101,"programNumber":3},{"time":31235.91475000018,"duration":98.68424999999843,"noteNumber":59,"velocity":101,"programNumber":3},{"time":31348.69675000018,"duration":108.0827500000014,"noteNumber":63,"velocity":97,"programNumber":3},{"time":31461.478750000184,"duration":108.0827500000014,"noteNumber":59,"velocity":97,"programNumber":3},{"time":31574.260750000187,"duration":108.0827500000014,"noteNumber":64,"velocity":102,"programNumber":3},{"time":31687.04275000019,"duration":108.0827500000014,"noteNumber":59,"velocity":101,"programNumber":3},{"time":31799.824750000193,"duration":108.0827500000014,"noteNumber":63,"velocity":92,"programNumber":3},{"time":31912.606750000195,"duration":108.0827500000014,"noteNumber":59,"velocity":99,"programNumber":3},{"time":32025.3887500002,"duration":108.0827500000014,"noteNumber":64,"velocity":102,"programNumber":3},{"time":32138.1707500002,"duration":98.68424999999843,"noteNumber":59,"velocity":104,"programNumber":3},{"time":32250.9527500002,"duration":108.0827500000014,"noteNumber":63,"velocity":105,"programNumber":3},{"time":32363.734750000203,"duration":98.68424999999843,"noteNumber":59,"velocity":99,"programNumber":3},{"time":32476.516750000203,"duration":108.0827500000014,"noteNumber":71,"velocity":106,"programNumber":3},{"time":32589.298750000205,"duration":98.68424999999843,"noteNumber":59,"velocity":101,"programNumber":3},{"time":32702.080750000205,"duration":98.68424999999843,"noteNumber":69,"velocity":104,"programNumber":3},{"time":32810.163500000206,"duration":112.78199999999924,"noteNumber":59,"velocity":101,"programNumber":3},{"time":32927.6447500002,"duration":98.68424999999843,"noteNumber":68,"velocity":103,"programNumber":3},{"time":33031.0282500002,"duration":117.48124999999709,"noteNumber":59,"velocity":101,"programNumber":3},{"time":33153.208750000194,"duration":108.0827500000014,"noteNumber":69,"velocity":97,"programNumber":3},{"time":33265.990750000194,"duration":103.38350000000355,"noteNumber":59,"velocity":96,"programNumber":3},{"time":33378.7727500002,"duration":108.0827500000014,"noteNumber":68,"velocity":103,"programNumber":3},{"time":33491.5547500002,"duration":98.68424999999843,"noteNumber":59,"velocity":91,"programNumber":3},{"time":33604.3367500002,"duration":103.38350000000355,"noteNumber":66,"velocity":101,"programNumber":3},{"time":33717.118750000205,"duration":108.0827500000014,"noteNumber":59,"velocity":101,"programNumber":3},{"time":33829.900750000204,"duration":108.0827500000014,"noteNumber":68,"velocity":101,"programNumber":3},{"time":33942.682750000204,"duration":108.0827500000014,"noteNumber":59,"velocity":99,"programNumber":3},{"time":34055.4647500002,"duration":108.0827500000014,"noteNumber":64,"velocity":104,"programNumber":3},{"time":34168.2467500002,"duration":108.0827500000014,"noteNumber":59,"velocity":102,"programNumber":3},{"time":34281.0287500002,"duration":103.38350000000355,"noteNumber":66,"velocity":105,"programNumber":3},{"time":34393.81075000021,"duration":98.68424999999843,"noteNumber":59,"velocity":102,"programNumber":3},{"time":34506.59275000021,"duration":108.0827500000014,"noteNumber":63,"velocity":103,"programNumber":3},{"time":34619.37475000021,"duration":98.68424999999843,"noteNumber":59,"velocity":97,"programNumber":3},{"time":34732.156750000206,"duration":108.0827500000014,"noteNumber":64,"velocity":101,"programNumber":3},{"time":34844.938750000205,"duration":98.68424999999843,"noteNumber":59,"velocity":101,"programNumber":3},{"time":34957.720750000204,"duration":108.0827500000014,"noteNumber":63,"velocity":97,"programNumber":3},{"time":35070.5027500002,"duration":103.38350000000355,"noteNumber":59,"velocity":97,"programNumber":3},{"time":35183.28475000021,"duration":108.0827500000014,"noteNumber":64,"velocity":102,"programNumber":3},{"time":35296.06675000021,"duration":108.0827500000014,"noteNumber":59,"velocity":101,"programNumber":3},{"time":35408.84875000021,"duration":108.0827500000014,"noteNumber":63,"velocity":92,"programNumber":3},{"time":35521.63075000021,"duration":103.38350000000355,"noteNumber":59,"velocity":99,"programNumber":3},{"time":35634.412750000214,"duration":108.0827500000014,"noteNumber":64,"velocity":102,"programNumber":3},{"time":35747.19475000021,"duration":108.0827500000014,"noteNumber":59,"velocity":104,"programNumber":3},{"time":35859.97675000021,"duration":108.0827500000014,"noteNumber":63,"velocity":105,"programNumber":3},{"time":35972.75875000021,"duration":108.0827500000014,"noteNumber":59,"velocity":99,"programNumber":3},{"time":36085.54075000021,"duration":108.0827500000014,"noteNumber":71,"velocity":106,"programNumber":3},{"time":36198.32275000021,"duration":108.0827500000014,"noteNumber":59,"velocity":101,"programNumber":3},{"time":36311.10475000021,"duration":108.0827500000014,"noteNumber":69,"velocity":104,"programNumber":3},{"time":36423.88675000021,"duration":108.0827500000014,"noteNumber":59,"velocity":101,"programNumber":3},{"time":36536.66875000021,"duration":108.0827500000014,"noteNumber":68,"velocity":103,"programNumber":3},{"time":36649.45075000021,"duration":108.0827500000014,"noteNumber":59,"velocity":101,"programNumber":3},{"time":36762.23275000021,"duration":108.0827500000014,"noteNumber":69,"velocity":97,"programNumber":3},{"time":36875.014750000206,"duration":108.0827500000014,"noteNumber":59,"velocity":96,"programNumber":3},{"time":36987.796750000205,"duration":108.0827500000014,"noteNumber":68,"velocity":103,"programNumber":3},{"time":37100.578750000204,"duration":108.0827500000014,"noteNumber":59,"velocity":91,"programNumber":3},{"time":37213.3607500002,"duration":108.0827500000014,"noteNumber":66,"velocity":101,"programNumber":3},{"time":37326.1427500002,"duration":108.0827500000014,"noteNumber":59,"velocity":101,"programNumber":3},{"time":37438.9247500002,"duration":108.0827500000014,"noteNumber":68,"velocity":101,"programNumber":3},{"time":37551.7067500002,"duration":108.0827500000014,"noteNumber":59,"velocity":99,"programNumber":3},{"time":37664.4887500002,"duration":108.0827500000014,"noteNumber":64,"velocity":104,"programNumber":3},{"time":37777.2707500002,"duration":108.0827500000014,"noteNumber":59,"velocity":102,"programNumber":3},{"time":37890.0527500002,"duration":108.0827500000014,"noteNumber":66,"velocity":105,"programNumber":3},{"time":38002.8347500002,"duration":108.0827500000014,"noteNumber":59,"velocity":102,"programNumber":3},{"time":38115.6167500002,"duration":108.0827500000014,"noteNumber":63,"velocity":103,"programNumber":3},{"time":38228.3987500002,"duration":98.68424999999843,"noteNumber":59,"velocity":97,"programNumber":3},{"time":38341.180750000196,"duration":108.0827500000014,"noteNumber":64,"velocity":101,"programNumber":3},{"time":38453.962750000195,"duration":108.0827500000014,"noteNumber":59,"velocity":101,"programNumber":3},{"time":38566.744750000194,"duration":108.0827500000014,"noteNumber":63,"velocity":97,"programNumber":3},{"time":38679.526750000194,"duration":108.0827500000014,"noteNumber":59,"velocity":97,"programNumber":3},{"time":38792.30875000019,"duration":108.0827500000014,"noteNumber":64,"velocity":102,"programNumber":3},{"time":38905.09075000019,"duration":108.0827500000014,"noteNumber":59,"velocity":101,"programNumber":3},{"time":39017.87275000019,"duration":98.68424999999843,"noteNumber":63,"velocity":92,"programNumber":3},{"time":39121.25625000019,"duration":108.0827500000014,"noteNumber":59,"velocity":99,"programNumber":3},{"time":39243.43675000019,"duration":93.98500000000058,"noteNumber":64,"velocity":102,"programNumber":3},{"time":39342.12100000019,"duration":112.78199999999924,"noteNumber":59,"velocity":104,"programNumber":3},{"time":39469.00075000019,"duration":108.0827500000014,"noteNumber":63,"velocity":105,"programNumber":3},{"time":39581.78275000019,"duration":98.68424999999843,"noteNumber":59,"velocity":99,"programNumber":3},{"time":39694.56475000019,"duration":98.68424999999843,"noteNumber":71,"velocity":106,"programNumber":3},{"time":39797.94825000018,"duration":108.0827500000014,"noteNumber":59,"velocity":101,"programNumber":3},{"time":39920.128750000185,"duration":108.0827500000014,"noteNumber":69,"velocity":104,"programNumber":3},{"time":40032.910750000185,"duration":108.0827500000014,"noteNumber":59,"velocity":101,"programNumber":3},{"time":40145.692750000184,"duration":108.0827500000014,"noteNumber":68,"velocity":103,"programNumber":3},{"time":40258.47475000018,"duration":93.98500000000058,"noteNumber":59,"velocity":101,"programNumber":3},{"time":40371.25675000018,"duration":98.68424999999843,"noteNumber":69,"velocity":97,"programNumber":3},{"time":40474.64025000018,"duration":117.48124999999709,"noteNumber":59,"velocity":96,"programNumber":3},{"time":40596.82075000017,"duration":108.0827500000014,"noteNumber":68,"velocity":103,"programNumber":3},{"time":40709.60275000017,"duration":108.0827500000014,"noteNumber":59,"velocity":91,"programNumber":3},{"time":40822.38475000017,"duration":108.0827500000014,"noteNumber":66,"velocity":101,"programNumber":3},{"time":40935.16675000017,"duration":108.0827500000014,"noteNumber":59,"velocity":101,"programNumber":3},{"time":41047.94875000017,"duration":108.0827500000014,"noteNumber":68,"velocity":101,"programNumber":3},{"time":41160.73075000017,"duration":98.68424999999843,"noteNumber":59,"velocity":99,"programNumber":3},{"time":41273.51275000017,"duration":108.0827500000014,"noteNumber":64,"velocity":104,"programNumber":3},{"time":41386.29475000017,"duration":108.0827500000014,"noteNumber":59,"velocity":102,"programNumber":3},{"time":41499.07675000017,"duration":93.98500000000058,"noteNumber":66,"velocity":105,"programNumber":3},{"time":41597.761000000166,"duration":112.78199999999924,"noteNumber":59,"velocity":102,"programNumber":3},{"time":41724.640750000166,"duration":108.0827500000014,"noteNumber":63,"velocity":103,"programNumber":3},{"time":41837.422750000165,"duration":108.0827500000014,"noteNumber":59,"velocity":97,"programNumber":3},{"time":41950.204750000164,"duration":108.0827500000014,"noteNumber":64,"velocity":101,"programNumber":3},{"time":42062.986750000164,"duration":108.0827500000014,"noteNumber":59,"velocity":101,"programNumber":3},{"time":42288.55075000016,"duration":108.0827500000014,"noteNumber":59,"velocity":97,"programNumber":3},{"time":42401.33275000016,"duration":108.0827500000014,"noteNumber":64,"velocity":102,"programNumber":3},{"time":42514.11475000016,"duration":108.0827500000014,"noteNumber":59,"velocity":101,"programNumber":3},{"time":42626.89675000016,"duration":108.0827500000014,"noteNumber":63,"velocity":92,"programNumber":3},{"time":42739.67875000016,"duration":108.0827500000014,"noteNumber":59,"velocity":99,"programNumber":3},{"time":42852.46075000016,"duration":108.0827500000014,"noteNumber":64,"velocity":102,"programNumber":3},{"time":42965.24275000016,"duration":108.0827500000014,"noteNumber":59,"velocity":104,"programNumber":3},{"time":43078.02475000016,"duration":98.68424999999843,"noteNumber":63,"velocity":105,"programNumber":3},{"time":43181.40825000015,"duration":117.48124999999709,"noteNumber":59,"velocity":99,"programNumber":3},{"time":43303.58875000015,"duration":108.0827500000014,"noteNumber":71,"velocity":106,"programNumber":3},{"time":43416.37075000015,"duration":108.0827500000014,"noteNumber":59,"velocity":101,"programNumber":3},{"time":43529.15275000015,"duration":108.0827500000014,"noteNumber":69,"velocity":104,"programNumber":3},{"time":43641.934750000146,"duration":98.68424999999843,"noteNumber":59,"velocity":101,"programNumber":3},{"time":43754.716750000145,"duration":108.0827500000014,"noteNumber":68,"velocity":103,"programNumber":3},{"time":43867.498750000144,"duration":108.0827500000014,"noteNumber":59,"velocity":101,"programNumber":3},{"time":43980.28075000014,"duration":93.98500000000058,"noteNumber":69,"velocity":97,"programNumber":3},{"time":44093.06275000014,"duration":108.0827500000014,"noteNumber":59,"velocity":96,"programNumber":3},{"time":44205.84475000014,"duration":108.0827500000014,"noteNumber":68,"velocity":103,"programNumber":3},{"time":44318.62675000014,"duration":98.68424999999843,"noteNumber":59,"velocity":91,"programNumber":3},{"time":44431.40875000014,"duration":98.68424999999843,"noteNumber":66,"velocity":101,"programNumber":3},{"time":44544.19075000014,"duration":98.68424999999843,"noteNumber":59,"velocity":101,"programNumber":3},{"time":44656.97275000014,"duration":108.0827500000014,"noteNumber":68,"velocity":101,"programNumber":3},{"time":44769.75475000014,"duration":108.0827500000014,"noteNumber":59,"velocity":99,"programNumber":3},{"time":44882.53675000014,"duration":108.0827500000014,"noteNumber":64,"velocity":104,"programNumber":3},{"time":44995.31875000014,"duration":108.0827500000014,"noteNumber":59,"velocity":102,"programNumber":3},{"time":45108.100750000136,"duration":108.0827500000014,"noteNumber":66,"velocity":105,"programNumber":3},{"time":45220.882750000135,"duration":108.0827500000014,"noteNumber":59,"velocity":102,"programNumber":3},{"time":45333.664750000135,"duration":108.0827500000014,"noteNumber":63,"velocity":103,"programNumber":3},{"time":45446.446750000134,"duration":108.0827500000014,"noteNumber":59,"velocity":97,"programNumber":3},{"time":45559.22875000013,"duration":108.0827500000014,"noteNumber":64,"velocity":101,"programNumber":3},{"time":45672.01075000013,"duration":108.0827500000014,"noteNumber":59,"velocity":101,"programNumber":3},{"time":45784.79275000013,"duration":108.0827500000014,"noteNumber":63,"velocity":97,"programNumber":3},{"time":45897.57475000013,"duration":108.0827500000014,"noteNumber":59,"velocity":97,"programNumber":3},{"time":46010.35675000013,"duration":98.68424999999843,"noteNumber":64,"velocity":102,"programNumber":3},{"time":46123.13875000013,"duration":98.68424999999843,"noteNumber":59,"velocity":101,"programNumber":3},{"time":46235.92075000013,"duration":108.0827500000014,"noteNumber":63,"velocity":92,"programNumber":3},{"time":46348.70275000013,"duration":98.68424999999843,"noteNumber":59,"velocity":99,"programNumber":3},{"time":46461.48475000013,"duration":103.38350000000355,"noteNumber":64,"velocity":102,"programNumber":3},{"time":46574.26675000013,"duration":103.38350000000355,"noteNumber":59,"velocity":104,"programNumber":3},{"time":46687.04875000014,"duration":98.68424999999843,"noteNumber":63,"velocity":105,"programNumber":3},{"time":46799.83075000014,"duration":103.38350000000355,"noteNumber":59,"velocity":99,"programNumber":3},{"time":46912.612750000146,"duration":103.38350000000355,"noteNumber":71,"velocity":106,"programNumber":3},{"time":47025.39475000015,"duration":108.0827500000014,"noteNumber":59,"velocity":101,"programNumber":3},{"time":47138.17675000015,"duration":108.0827500000014,"noteNumber":69,"velocity":104,"programNumber":3},{"time":47250.95875000015,"duration":108.0827500000014,"noteNumber":59,"velocity":101,"programNumber":3},{"time":47363.74075000015,"duration":108.0827500000014,"noteNumber":68,"velocity":103,"programNumber":3},{"time":47476.52275000015,"duration":108.0827500000014,"noteNumber":59,"velocity":101,"programNumber":3},{"time":47589.30475000015,"duration":108.0827500000014,"noteNumber":69,"velocity":97,"programNumber":3},{"time":47702.08675000015,"duration":103.38350000000355,"noteNumber":59,"velocity":96,"programNumber":3},{"time":47814.868750000154,"duration":108.0827500000014,"noteNumber":68,"velocity":103,"programNumber":3},{"time":47927.65075000015,"duration":108.0827500000014,"noteNumber":59,"velocity":91,"programNumber":3},{"time":48040.43275000015,"duration":108.0827500000014,"noteNumber":66,"velocity":101,"programNumber":3},{"time":48153.21475000015,"duration":108.0827500000014,"noteNumber":59,"velocity":101,"programNumber":3},{"time":48265.99675000015,"duration":103.38350000000355,"noteNumber":68,"velocity":101,"programNumber":3},{"time":48378.77875000016,"duration":108.0827500000014,"noteNumber":59,"velocity":99,"programNumber":3},{"time":48491.56075000016,"duration":108.0827500000014,"noteNumber":64,"velocity":104,"programNumber":3},{"time":48604.342750000156,"duration":108.0827500000014,"noteNumber":59,"velocity":102,"programNumber":3},{"time":48717.124750000155,"duration":108.0827500000014,"noteNumber":66,"velocity":105,"programNumber":3},{"time":48829.906750000155,"duration":108.0827500000014,"noteNumber":59,"velocity":102,"programNumber":3},{"time":48942.688750000154,"duration":108.0827500000014,"noteNumber":63,"velocity":103,"programNumber":3},{"time":49055.47075000015,"duration":108.0827500000014,"noteNumber":59,"velocity":97,"programNumber":3},{"time":49168.25275000015,"duration":108.0827500000014,"noteNumber":64,"velocity":101,"programNumber":3},{"time":49281.03475000015,"duration":108.0827500000014,"noteNumber":59,"velocity":101,"programNumber":3},{"time":49393.81675000015,"duration":108.0827500000014,"noteNumber":63,"velocity":97,"programNumber":3},{"time":49506.59875000015,"duration":108.0827500000014,"noteNumber":59,"velocity":97,"programNumber":3},{"time":49619.38075000015,"duration":108.0827500000014,"noteNumber":64,"velocity":102,"programNumber":3},{"time":49732.16275000015,"duration":108.0827500000014,"noteNumber":59,"velocity":101,"programNumber":3},{"time":49844.94475000015,"duration":108.0827500000014,"noteNumber":63,"velocity":92,"programNumber":3},{"time":49957.72675000015,"duration":108.0827500000014,"noteNumber":59,"velocity":99,"programNumber":3},{"time":50070.50875000015,"duration":108.0827500000014,"noteNumber":64,"velocity":102,"programNumber":3},{"time":50183.290750000146,"duration":108.0827500000014,"noteNumber":59,"velocity":104,"programNumber":3},{"time":50296.072750000145,"duration":108.0827500000014,"noteNumber":63,"velocity":105,"programNumber":3},{"time":50408.854750000144,"duration":108.0827500000014,"noteNumber":59,"velocity":99,"programNumber":3},{"time":50521.63675000014,"duration":51.69174999999814,"noteNumber":59,"velocity":96,"programNumber":3},{"time":50521.63675000014,"duration":93.98500000000058,"noteNumber":71,"velocity":106,"programNumber":3},{"time":50625.02025000015,"duration":14.097750000000815,"noteNumber":59,"velocity":101,"programNumber":3},{"time":50747.20075000015,"duration":108.0827500000014,"noteNumber":69,"velocity":104,"programNumber":3},{"time":50639.11800000015,"duration":220.86475000000064,"noteNumber":59,"velocity":94,"programNumber":3},{"time":50859.98275000015,"duration":98.68424999999843,"noteNumber":59,"velocity":101,"programNumber":3},{"time":50972.76475000015,"duration":108.0827500000014,"noteNumber":68,"velocity":103,"programNumber":3},{"time":50972.76475000015,"duration":112.78199999999924,"noteNumber":59,"velocity":96,"programNumber":3},{"time":51085.54675000015,"duration":108.0827500000014,"noteNumber":59,"velocity":101,"programNumber":3},{"time":51198.328750000146,"duration":108.0827500000014,"noteNumber":69,"velocity":97,"programNumber":3},{"time":51311.110750000145,"duration":98.68424999999843,"noteNumber":59,"velocity":96,"programNumber":3},{"time":51423.892750000145,"duration":108.0827500000014,"noteNumber":68,"velocity":103,"programNumber":3},{"time":51536.674750000144,"duration":75.18800000000192,"noteNumber":59,"velocity":91,"programNumber":3},{"time":51649.45675000014,"duration":108.0827500000014,"noteNumber":66,"velocity":101,"programNumber":3},{"time":51649.45675000014,"duration":112.78199999999924,"noteNumber":59,"velocity":88,"programNumber":3},{"time":51762.23875000014,"duration":93.98500000000058,"noteNumber":59,"velocity":101,"programNumber":3},{"time":51875.02075000014,"duration":98.68424999999843,"noteNumber":68,"velocity":101,"programNumber":3},{"time":51875.02075000014,"duration":103.38349999999627,"noteNumber":59,"velocity":97,"programNumber":3},{"time":51978.40425000014,"duration":103.38350000000355,"noteNumber":59,"velocity":99,"programNumber":3},{"time":52100.58475000014,"duration":108.0827500000014,"noteNumber":64,"velocity":104,"programNumber":3},{"time":52213.36675000014,"duration":108.0827500000014,"noteNumber":59,"velocity":102,"programNumber":3},{"time":52326.14875000014,"duration":46.99250000000029,"noteNumber":59,"velocity":96,"programNumber":3},{"time":52326.14875000014,"duration":98.68424999999843,"noteNumber":66,"velocity":105,"programNumber":3},{"time":52551.71275000014,"duration":103.38350000000355,"noteNumber":63,"velocity":103,"programNumber":3},{"time":52438.93075000014,"duration":225.56400000000576,"noteNumber":59,"velocity":102,"programNumber":3},{"time":52664.49475000014,"duration":108.0827500000014,"noteNumber":59,"velocity":97,"programNumber":3},{"time":52777.27675000014,"duration":108.0827500000014,"noteNumber":64,"velocity":101,"programNumber":3},{"time":52777.27675000014,"duration":112.78199999999924,"noteNumber":59,"velocity":96,"programNumber":3},{"time":52890.05875000014,"duration":108.0827500000014,"noteNumber":59,"velocity":101,"programNumber":3},{"time":53002.84075000014,"duration":93.98500000000058,"noteNumber":63,"velocity":97,"programNumber":3},{"time":53110.92350000014,"duration":4.699249999997846,"noteNumber":59,"velocity":97,"programNumber":3},{"time":53115.62275000014,"duration":150.37599999999657,"noteNumber":59,"velocity":94,"programNumber":3},{"time":53228.40475000014,"duration":103.38349999999627,"noteNumber":64,"velocity":102,"programNumber":3},{"time":53341.18675000014,"duration":4.699249999997846,"noteNumber":59,"velocity":101,"programNumber":3},{"time":53345.88600000014,"duration":70.4887499999968,"noteNumber":59,"velocity":90,"programNumber":3},{"time":53453.96875000013,"duration":103.38350000000355,"noteNumber":63,"velocity":92,"programNumber":3},{"time":53453.96875000013,"duration":112.78200000000652,"noteNumber":59,"velocity":88,"programNumber":3},{"time":53566.75075000014,"duration":108.0827500000014,"noteNumber":59,"velocity":99,"programNumber":3},{"time":53679.53275000014,"duration":108.0827500000014,"noteNumber":64,"velocity":102,"programNumber":3},{"time":53679.53275000014,"duration":112.78199999999924,"noteNumber":59,"velocity":97,"programNumber":3},{"time":53792.314750000136,"duration":103.38350000000355,"noteNumber":59,"velocity":104,"programNumber":3},{"time":53905.09675000014,"duration":108.0827500000014,"noteNumber":63,"velocity":105,"programNumber":3},{"time":54017.87875000014,"duration":108.0827500000014,"noteNumber":59,"velocity":99,"programNumber":3},{"time":54135.36000000014,"duration":46.99250000000029,"noteNumber":59,"velocity":96,"programNumber":3},{"time":54130.66075000014,"duration":108.0827500000014,"noteNumber":71,"velocity":106,"programNumber":3},{"time":54243.44275000014,"duration":4.699249999997846,"noteNumber":59,"velocity":101,"programNumber":3},{"time":54356.22475000014,"duration":108.0827500000014,"noteNumber":69,"velocity":104,"programNumber":3},{"time":54248.14200000014,"duration":220.86475000000064,"noteNumber":59,"velocity":94,"programNumber":3},{"time":54469.00675000014,"duration":108.0827500000014,"noteNumber":59,"velocity":101,"programNumber":3},{"time":54581.78875000014,"duration":108.0827500000014,"noteNumber":68,"velocity":103,"programNumber":3},{"time":54581.78875000014,"duration":112.78199999999924,"noteNumber":59,"velocity":96,"programNumber":3},{"time":54694.57075000014,"duration":108.0827500000014,"noteNumber":59,"velocity":101,"programNumber":3},{"time":54807.35275000014,"duration":108.0827500000014,"noteNumber":69,"velocity":97,"programNumber":3},{"time":54920.134750000136,"duration":150.37599999999657,"noteNumber":59,"velocity":96,"programNumber":3},{"time":55032.916750000135,"duration":108.08274999999412,"noteNumber":68,"velocity":103,"programNumber":3},{"time":55145.69875000013,"duration":4.699249999997846,"noteNumber":59,"velocity":91,"programNumber":3},{"time":55150.398000000125,"duration":70.4887499999968,"noteNumber":59,"velocity":90,"programNumber":3},{"time":55258.48075000012,"duration":108.0827500000014,"noteNumber":66,"velocity":101,"programNumber":3},{"time":55258.48075000012,"duration":112.78199999999924,"noteNumber":59,"velocity":88,"programNumber":3},{"time":55371.26275000012,"duration":108.0827500000014,"noteNumber":59,"velocity":101,"programNumber":3},{"time":55484.04475000012,"duration":108.0827500000014,"noteNumber":68,"velocity":101,"programNumber":3},{"time":55484.04475000012,"duration":112.78199999999924,"noteNumber":59,"velocity":97,"programNumber":3},{"time":55596.82675000012,"duration":108.0827500000014,"noteNumber":59,"velocity":99,"programNumber":3},{"time":55709.608750000116,"duration":108.0827500000014,"noteNumber":64,"velocity":104,"programNumber":3},{"time":55822.390750000115,"duration":108.0827500000014,"noteNumber":59,"velocity":102,"programNumber":3},{"time":55939.87200000011,"duration":46.99250000000029,"noteNumber":59,"velocity":96,"programNumber":3},{"time":55935.172750000114,"duration":108.0827500000014,"noteNumber":66,"velocity":105,"programNumber":3},{"time":56160.73675000011,"duration":108.0827500000014,"noteNumber":63,"velocity":103,"programNumber":3},{"time":56047.95475000011,"duration":225.5639999999985,"noteNumber":59,"velocity":102,"programNumber":3},{"time":56273.51875000011,"duration":108.0827500000014,"noteNumber":59,"velocity":97,"programNumber":3},{"time":56386.30075000011,"duration":108.0827500000014,"noteNumber":64,"velocity":101,"programNumber":3},{"time":56391.00000000011,"duration":108.0827500000014,"noteNumber":59,"velocity":96,"programNumber":3},{"time":56499.08275000011,"duration":108.0827500000014,"noteNumber":59,"velocity":101,"programNumber":3},{"time":56611.86475000011,"duration":108.0827500000014,"noteNumber":63,"velocity":97,"programNumber":3},{"time":56724.64675000011,"duration":108.0827500000014,"noteNumber":59,"velocity":97,"programNumber":3},{"time":56837.42875000011,"duration":108.0827500000014,"noteNumber":64,"velocity":102,"programNumber":3},{"time":56950.21075000011,"duration":4.699249999997846,"noteNumber":59,"velocity":101,"programNumber":3},{"time":56954.910000000105,"duration":70.4887499999968,"noteNumber":59,"velocity":90,"programNumber":3},{"time":57062.9927500001,"duration":93.98500000000058,"noteNumber":63,"velocity":92,"programNumber":3},{"time":57062.9927500001,"duration":103.38350000000355,"noteNumber":59,"velocity":88,"programNumber":3},{"time":57166.3762500001,"duration":117.48124999999709,"noteNumber":59,"velocity":99,"programNumber":3},{"time":57288.5567500001,"duration":98.68424999999843,"noteNumber":64,"velocity":102,"programNumber":3},{"time":57288.5567500001,"duration":112.78199999999924,"noteNumber":59,"velocity":97,"programNumber":3},{"time":57401.3387500001,"duration":98.68424999999843,"noteNumber":59,"velocity":104,"programNumber":3},{"time":57514.1207500001,"duration":103.38350000000355,"noteNumber":63,"velocity":105,"programNumber":3},{"time":57626.9027500001,"duration":98.68424999999843,"noteNumber":59,"velocity":99,"programNumber":3},{"time":57739.6847500001,"duration":51.69174999999814,"noteNumber":59,"velocity":96,"programNumber":3},{"time":57739.6847500001,"duration":98.68424999999843,"noteNumber":71,"velocity":106,"programNumber":3},{"time":57843.0682500001,"duration":9.398500000002969,"noteNumber":59,"velocity":101,"programNumber":3},{"time":57965.2487500001,"duration":108.0827500000014,"noteNumber":69,"velocity":104,"programNumber":3},{"time":57852.4667500001,"duration":225.5639999999985,"noteNumber":59,"velocity":94,"programNumber":3},{"time":58078.0307500001,"duration":108.0827500000014,"noteNumber":59,"velocity":101,"programNumber":3},{"time":58190.8127500001,"duration":108.0827500000014,"noteNumber":68,"velocity":103,"programNumber":3},{"time":58190.8127500001,"duration":112.78199999999924,"noteNumber":59,"velocity":96,"programNumber":3},{"time":58303.5947500001,"duration":108.0827500000014,"noteNumber":59,"velocity":101,"programNumber":3},{"time":58416.3767500001,"duration":108.0827500000014,"noteNumber":69,"velocity":97,"programNumber":3},{"time":58529.1587500001,"duration":150.37599999999657,"noteNumber":59,"velocity":96,"programNumber":3},{"time":58641.940750000096,"duration":98.68424999999843,"noteNumber":68,"velocity":103,"programNumber":3},{"time":58745.32425000009,"duration":14.097750000000815,"noteNumber":59,"velocity":91,"programNumber":3},{"time":58759.42200000009,"duration":70.4887499999968,"noteNumber":59,"velocity":90,"programNumber":3},{"time":58867.50475000009,"duration":93.98500000000058,"noteNumber":66,"velocity":101,"programNumber":3},{"time":58867.50475000009,"duration":98.68424999999843,"noteNumber":59,"velocity":88,"programNumber":3},{"time":58966.189000000086,"duration":122.18050000000221,"noteNumber":59,"velocity":101,"programNumber":3},{"time":59093.068750000086,"duration":93.98500000000058,"noteNumber":68,"velocity":101,"programNumber":3},{"time":59093.068750000086,"duration":98.68424999999843,"noteNumber":59,"velocity":97,"programNumber":3},{"time":59191.753000000084,"duration":122.18050000000221,"noteNumber":59,"velocity":99,"programNumber":3},{"time":59318.632750000084,"duration":98.68424999999843,"noteNumber":64,"velocity":104,"programNumber":3},{"time":59422.01625000008,"duration":117.48124999999709,"noteNumber":59,"velocity":102,"programNumber":3},{"time":59544.196750000076,"duration":37.59399999999732,"noteNumber":59,"velocity":96,"programNumber":3},{"time":59544.196750000076,"duration":98.68424999999843,"noteNumber":66,"velocity":105,"programNumber":3},{"time":59647.58025000007,"duration":9.398500000002969,"noteNumber":59,"velocity":102,"programNumber":3},{"time":59769.760750000074,"duration":98.68424999999843,"noteNumber":63,"velocity":103,"programNumber":3},{"time":59656.978750000075,"duration":216.16549999999552,"noteNumber":59,"velocity":94,"programNumber":3},{"time":59873.14425000007,"duration":103.38350000000355,"noteNumber":59,"velocity":97,"programNumber":3},{"time":59995.32475000007,"duration":98.68424999999843,"noteNumber":64,"velocity":101,"programNumber":3},{"time":59995.32475000007,"duration":103.38349999999627,"noteNumber":59,"velocity":96,"programNumber":3},{"time":60098.70825000007,"duration":117.48124999999709,"noteNumber":59,"velocity":101,"programNumber":3},{"time":60220.888750000064,"duration":108.0827500000014,"noteNumber":63,"velocity":97,"programNumber":3},{"time":60333.67075000006,"duration":150.37599999999657,"noteNumber":59,"velocity":97,"programNumber":3},{"time":60446.45275000006,"duration":108.08274999999412,"noteNumber":64,"velocity":102,"programNumber":3},{"time":60559.234750000054,"duration":75.18800000000192,"noteNumber":59,"velocity":101,"programNumber":3},{"time":60672.01675000005,"duration":98.68424999999843,"noteNumber":63,"velocity":92,"programNumber":3},{"time":60672.01675000005,"duration":103.38349999999627,"noteNumber":59,"velocity":88,"programNumber":3},{"time":60775.40025000005,"duration":117.48124999999709,"noteNumber":59,"velocity":99,"programNumber":3},{"time":60897.580750000045,"duration":108.0827500000014,"noteNumber":64,"velocity":102,"programNumber":3},{"time":60897.580750000045,"duration":112.78199999999924,"noteNumber":59,"velocity":97,"programNumber":3},{"time":61010.362750000044,"duration":108.0827500000014,"noteNumber":59,"velocity":104,"programNumber":3},{"time":61123.14475000004,"duration":108.0827500000014,"noteNumber":63,"velocity":105,"programNumber":3},{"time":61235.92675000004,"duration":108.0827500000014,"noteNumber":59,"velocity":99,"programNumber":3},{"time":61348.70875000004,"duration":51.69174999999814,"noteNumber":59,"velocity":96,"programNumber":3},{"time":61348.70875000004,"duration":98.68424999999843,"noteNumber":71,"velocity":106,"programNumber":3},{"time":61574.27275000004,"duration":108.0827500000014,"noteNumber":69,"velocity":104,"programNumber":3},{"time":61461.49075000004,"duration":225.5639999999985,"noteNumber":59,"velocity":101,"programNumber":3},{"time":61687.05475000004,"duration":108.0827500000014,"noteNumber":59,"velocity":101,"programNumber":3},{"time":61799.83675000004,"duration":108.0827500000014,"noteNumber":68,"velocity":103,"programNumber":3},{"time":61799.83675000004,"duration":112.78199999999924,"noteNumber":59,"velocity":96,"programNumber":3},{"time":61912.61875000004,"duration":108.0827500000014,"noteNumber":59,"velocity":101,"programNumber":3},{"time":62025.40075000004,"duration":108.0827500000014,"noteNumber":69,"velocity":97,"programNumber":3},{"time":62138.182750000036,"duration":108.0827500000014,"noteNumber":59,"velocity":96,"programNumber":3},{"time":62250.964750000036,"duration":108.0827500000014,"noteNumber":68,"velocity":103,"programNumber":3},{"time":62363.746750000035,"duration":4.699249999997846,"noteNumber":59,"velocity":91,"programNumber":3},{"time":62368.44600000003,"duration":70.4887499999968,"noteNumber":59,"velocity":90,"programNumber":3},{"time":62476.52875000003,"duration":108.0827500000014,"noteNumber":66,"velocity":101,"programNumber":3},{"time":62476.52875000003,"duration":112.78199999999924,"noteNumber":59,"velocity":88,"programNumber":3},{"time":62589.310750000026,"duration":108.0827500000014,"noteNumber":59,"velocity":101,"programNumber":3},{"time":62702.092750000025,"duration":103.38350000000355,"noteNumber":68,"velocity":101,"programNumber":3},{"time":62702.092750000025,"duration":112.78200000000652,"noteNumber":59,"velocity":97,"programNumber":3},{"time":62814.87475000003,"duration":108.0827500000014,"noteNumber":59,"velocity":99,"programNumber":3},{"time":62927.65675000003,"duration":108.0827500000014,"noteNumber":64,"velocity":104,"programNumber":3},{"time":63040.43875000003,"duration":108.0827500000014,"noteNumber":59,"velocity":102,"programNumber":3},{"time":63153.22075000003,"duration":51.69174999999814,"noteNumber":59,"velocity":96,"programNumber":3},{"time":63153.22075000003,"duration":108.0827500000014,"noteNumber":66,"velocity":105,"programNumber":3},{"time":63266.00275000003,"duration":4.699249999997846,"noteNumber":59,"velocity":102,"programNumber":3},{"time":63378.78475000003,"duration":108.0827500000014,"noteNumber":63,"velocity":103,"programNumber":3},{"time":63270.70200000003,"duration":220.86475000000064,"noteNumber":59,"velocity":94,"programNumber":3},{"time":63491.56675000003,"duration":108.0827500000014,"noteNumber":59,"velocity":97,"programNumber":3},{"time":63604.34875000003,"duration":108.0827500000014,"noteNumber":64,"velocity":101,"programNumber":3},{"time":63604.34875000003,"duration":112.78199999999924,"noteNumber":59,"velocity":96,"programNumber":3},{"time":63717.130750000026,"duration":108.0827500000014,"noteNumber":59,"velocity":101,"programNumber":3},{"time":63829.912750000025,"duration":108.0827500000014,"noteNumber":63,"velocity":97,"programNumber":3},{"time":63942.694750000024,"duration":150.37599999999657,"noteNumber":59,"velocity":97,"programNumber":3},{"time":64055.47675000002,"duration":108.08274999999412,"noteNumber":64,"velocity":102,"programNumber":3},{"time":64168.258750000015,"duration":4.699249999997846,"noteNumber":59,"velocity":101,"programNumber":3},{"time":64172.95800000001,"duration":70.4887499999968,"noteNumber":59,"velocity":90,"programNumber":3},{"time":64281.04075000001,"duration":108.0827500000014,"noteNumber":63,"velocity":92,"programNumber":3},{"time":64281.04075000001,"duration":112.78199999999924,"noteNumber":59,"velocity":88,"programNumber":3},{"time":64393.82275000001,"duration":108.0827500000014,"noteNumber":59,"velocity":99,"programNumber":3},{"time":64506.604750000006,"duration":108.0827500000014,"noteNumber":64,"velocity":102,"programNumber":3},{"time":64506.604750000006,"duration":112.78199999999924,"noteNumber":59,"velocity":97,"programNumber":3},{"time":64619.386750000005,"duration":108.0827500000014,"noteNumber":59,"velocity":104,"programNumber":3},{"time":64732.168750000004,"duration":108.0827500000014,"noteNumber":63,"velocity":105,"programNumber":3},{"time":64844.95075,"duration":108.0827500000014,"noteNumber":59,"velocity":99,"programNumber":3},{"time":64957.73275,"duration":51.69174999999814,"noteNumber":59,"velocity":96,"programNumber":3},{"time":64957.73275,"duration":108.0827500000014,"noteNumber":71,"velocity":106,"programNumber":3},{"time":65183.29675,"duration":98.68424999999843,"noteNumber":69,"velocity":104,"programNumber":3},{"time":65070.51475,"duration":216.16549999999552,"noteNumber":59,"velocity":101,"programNumber":3},{"time":65286.68025,"duration":108.0827500000014,"noteNumber":59,"velocity":101,"programNumber":3},{"time":65408.86075,"duration":98.68424999999843,"noteNumber":68,"velocity":103,"programNumber":3},{"time":65408.86075,"duration":103.38349999999627,"noteNumber":59,"velocity":96,"programNumber":3},{"time":65512.244249999996,"duration":117.48125000000437,"noteNumber":59,"velocity":101,"programNumber":3},{"time":65634.42475,"duration":93.98500000000058,"noteNumber":69,"velocity":97,"programNumber":3},{"time":65733.10900000001,"duration":14.097750000000815,"noteNumber":59,"velocity":96,"programNumber":3},{"time":65747.20675000001,"duration":150.37600000000384,"noteNumber":59,"velocity":94,"programNumber":3},{"time":65859.98875000002,"duration":98.68424999999115,"noteNumber":68,"velocity":103,"programNumber":3},{"time":65963.37225000001,"duration":14.097750000000815,"noteNumber":59,"velocity":91,"programNumber":3},{"time":65977.47000000002,"duration":70.48875000000407,"noteNumber":59,"velocity":90,"programNumber":3},{"time":66085.55275000002,"duration":98.6842500000057,"noteNumber":66,"velocity":101,"programNumber":3},{"time":66085.55275000002,"duration":103.38350000001083,"noteNumber":59,"velocity":88,"programNumber":3},{"time":66188.93625000003,"duration":108.0827500000014,"noteNumber":59,"velocity":101,"programNumber":3},{"time":66311.11675000003,"duration":108.0827500000014,"noteNumber":68,"velocity":101,"programNumber":3},{"time":66311.11675000003,"duration":112.78200000000652,"noteNumber":59,"velocity":97,"programNumber":3},{"time":66423.89875000004,"duration":108.0827500000014,"noteNumber":59,"velocity":99,"programNumber":3},{"time":66536.68075000004,"duration":108.0827500000014,"noteNumber":64,"velocity":104,"programNumber":3},{"time":66649.46275000005,"duration":98.6842500000057,"noteNumber":59,"velocity":102,"programNumber":3},{"time":66762.24475000006,"duration":51.69174999999814,"noteNumber":59,"velocity":96,"programNumber":3},{"time":66762.24475000006,"duration":108.0827500000014,"noteNumber":66,"velocity":105,"programNumber":3},{"time":66875.02675000006,"duration":4.699250000005122,"noteNumber":59,"velocity":102,"programNumber":3},{"time":66987.80875000007,"duration":108.0827500000014,"noteNumber":63,"velocity":103,"programNumber":3},{"time":66879.72600000007,"duration":220.86475000000792,"noteNumber":59,"velocity":94,"programNumber":3},{"time":67100.59075000008,"duration":108.0827500000014,"noteNumber":59,"velocity":97,"programNumber":3},{"time":67213.37275000008,"duration":108.0827500000014,"noteNumber":64,"velocity":101,"programNumber":3},{"time":67213.37275000008,"duration":112.78200000000652,"noteNumber":59,"velocity":96,"programNumber":3},{"time":67326.15475000009,"duration":108.0827500000014,"noteNumber":59,"velocity":101,"programNumber":3},{"time":67438.9367500001,"duration":98.6842500000057,"noteNumber":63,"velocity":97,"programNumber":3},{"time":67542.3202500001,"duration":9.398499999995693,"noteNumber":59,"velocity":97,"programNumber":3},{"time":67551.7187500001,"duration":150.37600000000384,"noteNumber":59,"velocity":94,"programNumber":3},{"time":67664.50075000011,"duration":98.68424999999115,"noteNumber":64,"velocity":102,"programNumber":3},{"time":67767.8842500001,"duration":14.097750000000815,"noteNumber":59,"velocity":101,"programNumber":3},{"time":67781.9820000001,"duration":70.48875000000407,"noteNumber":59,"velocity":90,"programNumber":3},{"time":67890.0647500001,"duration":98.6842500000057,"noteNumber":63,"velocity":92,"programNumber":3},{"time":67890.0647500001,"duration":103.38350000001083,"noteNumber":59,"velocity":88,"programNumber":3},{"time":67993.44825000012,"duration":108.0827500000014,"noteNumber":59,"velocity":99,"programNumber":3},{"time":68115.62875000012,"duration":108.0827500000014,"noteNumber":64,"velocity":102,"programNumber":3},{"time":68115.62875000012,"duration":112.78200000000652,"noteNumber":59,"velocity":97,"programNumber":3},{"time":68228.41075000013,"duration":108.0827500000014,"noteNumber":59,"velocity":104,"programNumber":3},{"time":68341.19275000013,"duration":108.0827500000014,"noteNumber":63,"velocity":105,"programNumber":3},{"time":68453.97475000014,"duration":108.0827500000014,"noteNumber":59,"velocity":99,"programNumber":3},{"time":68566.75675000015,"duration":51.69174999999814,"noteNumber":59,"velocity":96,"programNumber":3},{"time":68566.75675000015,"duration":108.0827500000014,"noteNumber":71,"velocity":106,"programNumber":3},{"time":68679.53875000015,"duration":4.699250000005122,"noteNumber":59,"velocity":101,"programNumber":3},{"time":68792.32075000016,"duration":108.0827500000014,"noteNumber":69,"velocity":104,"programNumber":3},{"time":68684.23800000016,"duration":220.86475000000792,"noteNumber":59,"velocity":94,"programNumber":3},{"time":68905.10275000017,"duration":108.0827500000014,"noteNumber":59,"velocity":101,"programNumber":3},{"time":69017.88475000017,"duration":108.0827500000014,"noteNumber":68,"velocity":103,"programNumber":3},{"time":69022.58400000018,"duration":108.0827500000014,"noteNumber":59,"velocity":96,"programNumber":3},{"time":69130.66675000018,"duration":108.0827500000014,"noteNumber":59,"velocity":101,"programNumber":3},{"time":69243.44875000019,"duration":108.0827500000014,"noteNumber":69,"velocity":97,"programNumber":3},{"time":69356.23075000019,"duration":150.37600000000384,"noteNumber":59,"velocity":96,"programNumber":3},{"time":69469.0127500002,"duration":108.0827500000014,"noteNumber":68,"velocity":103,"programNumber":3},{"time":69581.7947500002,"duration":4.699250000005122,"noteNumber":59,"velocity":91,"programNumber":3},{"time":69586.49400000021,"duration":70.48875000000407,"noteNumber":59,"velocity":90,"programNumber":3},{"time":69694.57675000021,"duration":98.6842500000057,"noteNumber":66,"velocity":101,"programNumber":3},{"time":69699.27600000022,"duration":98.6842500000057,"noteNumber":59,"velocity":88,"programNumber":3},{"time":69797.96025000022,"duration":108.0827500000014,"noteNumber":59,"velocity":101,"programNumber":3},{"time":69920.14075000022,"duration":108.0827500000014,"noteNumber":68,"velocity":101,"programNumber":3},{"time":69920.14075000022,"duration":112.78200000000652,"noteNumber":59,"velocity":97,"programNumber":3},{"time":70032.92275000023,"duration":98.6842500000057,"noteNumber":59,"velocity":99,"programNumber":3},{"time":70145.70475000024,"duration":108.0827500000014,"noteNumber":64,"velocity":104,"programNumber":3},{"time":70258.48675000024,"duration":98.6842500000057,"noteNumber":59,"velocity":102,"programNumber":3},{"time":70371.26875000025,"duration":51.69174999999814,"noteNumber":59,"velocity":96,"programNumber":3},{"time":70371.26875000025,"duration":108.0827500000014,"noteNumber":66,"velocity":105,"programNumber":3},{"time":70484.05075000026,"duration":4.699250000005122,"noteNumber":59,"velocity":102,"programNumber":3},{"time":70596.83275000026,"duration":108.0827500000014,"noteNumber":63,"velocity":103,"programNumber":3},{"time":70488.75000000026,"duration":220.86475000000792,"noteNumber":59,"velocity":94,"programNumber":3},{"time":70709.61475000027,"duration":108.0827500000014,"noteNumber":59,"velocity":97,"programNumber":3},{"time":70822.39675000028,"duration":108.0827500000014,"noteNumber":64,"velocity":101,"programNumber":3},{"time":70822.39675000028,"duration":112.78200000000652,"noteNumber":59,"velocity":96,"programNumber":3},{"time":70935.17875000028,"duration":108.0827500000014,"noteNumber":59,"velocity":101,"programNumber":3},{"time":71047.96075000029,"duration":108.0827500000014,"noteNumber":63,"velocity":97,"programNumber":3},{"time":71160.7427500003,"duration":108.0827500000014,"noteNumber":59,"velocity":97,"programNumber":3},{"time":71273.5247500003,"duration":108.0827500000014,"noteNumber":64,"velocity":102,"programNumber":3},{"time":71386.30675000031,"duration":4.699250000005122,"noteNumber":59,"velocity":101,"programNumber":3},{"time":71391.00600000031,"duration":70.48875000000407,"noteNumber":59,"velocity":90,"programNumber":3},{"time":71499.08875000032,"duration":108.0827500000014,"noteNumber":63,"velocity":92,"programNumber":3},{"time":71499.08875000032,"duration":112.78200000000652,"noteNumber":59,"velocity":88,"programNumber":3},{"time":71611.87075000032,"duration":108.0827500000014,"noteNumber":59,"velocity":99,"programNumber":3},{"time":71724.65275000033,"duration":108.0827500000014,"noteNumber":64,"velocity":102,"programNumber":3},{"time":71724.65275000033,"duration":112.78200000000652,"noteNumber":59,"velocity":97,"programNumber":3},{"time":71837.43475000034,"duration":108.0827500000014,"noteNumber":59,"velocity":104,"programNumber":3},{"time":71950.21675000034,"duration":93.98500000000058,"noteNumber":63,"velocity":105,"programNumber":3},{"time":72048.90100000035,"duration":112.78200000000652,"noteNumber":59,"velocity":99,"programNumber":3},{"time":72175.78075000035,"duration":42.293250000002445,"noteNumber":59,"velocity":96,"programNumber":3},{"time":72175.78075000035,"duration":93.98500000000058,"noteNumber":71,"velocity":106,"programNumber":3},{"time":72274.46500000036,"duration":14.097750000000815,"noteNumber":59,"velocity":101,"programNumber":3},{"time":72401.34475000037,"duration":98.6842500000057,"noteNumber":69,"velocity":104,"programNumber":3},{"time":72288.56275000036,"duration":216.16550000001735,"noteNumber":59,"velocity":94,"programNumber":3},{"time":72504.72825000038,"duration":108.0827500000014,"noteNumber":59,"velocity":101,"programNumber":3},{"time":72626.90875000038,"duration":98.6842500000057,"noteNumber":68,"velocity":103,"programNumber":3},{"time":72626.90875000038,"duration":103.38350000001083,"noteNumber":59,"velocity":96,"programNumber":3},{"time":72730.29225000039,"duration":108.0827500000014,"noteNumber":59,"velocity":101,"programNumber":3},{"time":72852.4727500004,"duration":108.0827500000014,"noteNumber":69,"velocity":97,"programNumber":3},{"time":72965.2547500004,"duration":150.37600000000384,"noteNumber":59,"velocity":96,"programNumber":3},{"time":73078.0367500004,"duration":98.68424999999115,"noteNumber":68,"velocity":103,"programNumber":3},{"time":73181.4202500004,"duration":9.398499999995693,"noteNumber":59,"velocity":91,"programNumber":3},{"time":73190.8187500004,"duration":75.18799999999464,"noteNumber":59,"velocity":90,"programNumber":3},{"time":73303.60075000039,"duration":98.6842500000057,"noteNumber":66,"velocity":101,"programNumber":3},{"time":73303.60075000039,"duration":103.38350000001083,"noteNumber":59,"velocity":88,"programNumber":3},{"time":73406.9842500004,"duration":117.48124999999709,"noteNumber":59,"velocity":101,"programNumber":3},{"time":73529.1647500004,"duration":108.0827500000014,"noteNumber":68,"velocity":101,"programNumber":3},{"time":73533.86400000041,"duration":108.0827500000014,"noteNumber":59,"velocity":97,"programNumber":3},{"time":73641.94675000041,"duration":108.0827500000014,"noteNumber":59,"velocity":99,"programNumber":3},{"time":73754.72875000042,"duration":108.0827500000014,"noteNumber":64,"velocity":104,"programNumber":3},{"time":73867.51075000042,"duration":108.0827500000014,"noteNumber":59,"velocity":102,"programNumber":3},{"time":73980.29275000043,"duration":51.69174999999814,"noteNumber":59,"velocity":96,"programNumber":3},{"time":73980.29275000043,"duration":108.0827500000014,"noteNumber":66,"velocity":105,"programNumber":3},{"time":74093.07475000044,"duration":4.699250000005122,"noteNumber":59,"velocity":102,"programNumber":3},{"time":74205.85675000044,"duration":108.0827500000014,"noteNumber":63,"velocity":103,"programNumber":3},{"time":74097.77400000044,"duration":220.86475000000792,"noteNumber":59,"velocity":94,"programNumber":3},{"time":74318.63875000045,"duration":108.0827500000014,"noteNumber":59,"velocity":97,"programNumber":3},{"time":74431.42075000046,"duration":108.0827500000014,"noteNumber":64,"velocity":101,"programNumber":3},{"time":74431.42075000046,"duration":112.78200000000652,"noteNumber":59,"velocity":96,"programNumber":3},{"time":74544.20275000046,"duration":98.6842500000057,"noteNumber":59,"velocity":101,"programNumber":3},{"time":74656.98475000047,"duration":108.0827500000014,"noteNumber":63,"velocity":97,"programNumber":3},{"time":74769.76675000048,"duration":150.37600000000384,"noteNumber":59,"velocity":97,"programNumber":3},{"time":74882.54875000048,"duration":108.0827500000014,"noteNumber":64,"velocity":102,"programNumber":3},{"time":74995.33075000049,"duration":4.699250000005122,"noteNumber":59,"velocity":101,"programNumber":3},{"time":75000.0300000005,"duration":70.48875000000407,"noteNumber":59,"velocity":90,"programNumber":3},{"time":75108.1127500005,"duration":108.0827500000014,"noteNumber":63,"velocity":92,"programNumber":3},{"time":75108.1127500005,"duration":112.78200000000652,"noteNumber":59,"velocity":88,"programNumber":3},{"time":75220.8947500005,"duration":108.0827500000014,"noteNumber":59,"velocity":99,"programNumber":3},{"time":75333.67675000051,"duration":108.0827500000014,"noteNumber":64,"velocity":102,"programNumber":3},{"time":75333.67675000051,"duration":112.78200000000652,"noteNumber":59,"velocity":97,"programNumber":3},{"time":75446.45875000051,"duration":108.0827500000014,"noteNumber":59,"velocity":104,"programNumber":3},{"time":75559.24075000052,"duration":108.0827500000014,"noteNumber":63,"velocity":105,"programNumber":3},{"time":75672.02275000053,"duration":108.0827500000014,"noteNumber":59,"velocity":99,"programNumber":3},{"time":75789.50400000054,"duration":46.992499999993015,"noteNumber":59,"velocity":96,"programNumber":3},{"time":75784.80475000053,"duration":108.0827500000014,"noteNumber":71,"velocity":106,"programNumber":3},{"time":75897.58675000054,"duration":4.699250000005122,"noteNumber":59,"velocity":101,"programNumber":3},{"time":76010.36875000055,"duration":108.0827500000014,"noteNumber":69,"velocity":104,"programNumber":3},{"time":75902.28600000055,"duration":220.86475000000792,"noteNumber":59,"velocity":94,"programNumber":3},{"time":76123.15075000055,"duration":98.6842500000057,"noteNumber":59,"velocity":101,"programNumber":3},{"time":76235.93275000056,"duration":108.0827500000014,"noteNumber":68,"velocity":103,"programNumber":3},{"time":76235.93275000056,"duration":112.78200000000652,"noteNumber":59,"velocity":96,"programNumber":3},{"time":76348.71475000057,"duration":108.0827500000014,"noteNumber":59,"velocity":101,"programNumber":3},{"time":76461.49675000057,"duration":108.0827500000014,"noteNumber":69,"velocity":97,"programNumber":3},{"time":76574.27875000058,"duration":108.0827500000014,"noteNumber":59,"velocity":96,"programNumber":3},{"time":76687.06075000059,"duration":108.0827500000014,"noteNumber":68,"velocity":103,"programNumber":3},{"time":76799.8427500006,"duration":4.699250000005122,"noteNumber":59,"velocity":91,"programNumber":3},{"time":76804.5420000006,"duration":70.48875000000407,"noteNumber":59,"velocity":90,"programNumber":3},{"time":76912.6247500006,"duration":93.98500000000058,"noteNumber":66,"velocity":101,"programNumber":3},{"time":76912.6247500006,"duration":108.0827500000014,"noteNumber":59,"velocity":88,"programNumber":3},{"time":77020.7075000006,"duration":112.78200000000652,"noteNumber":59,"velocity":101,"programNumber":3},{"time":77138.18875000061,"duration":98.6842500000057,"noteNumber":68,"velocity":101,"programNumber":3},{"time":77138.18875000061,"duration":112.78200000000652,"noteNumber":59,"velocity":97,"programNumber":3},{"time":77250.97075000062,"duration":98.6842500000057,"noteNumber":59,"velocity":99,"programNumber":3},{"time":77363.75275000063,"duration":108.0827500000014,"noteNumber":64,"velocity":104,"programNumber":3},{"time":77476.53475000063,"duration":98.6842500000057,"noteNumber":59,"velocity":102,"programNumber":3},{"time":77589.31675000064,"duration":51.69174999999814,"noteNumber":59,"velocity":96,"programNumber":3},{"time":77589.31675000064,"duration":108.0827500000014,"noteNumber":66,"velocity":105,"programNumber":3},{"time":77702.09875000064,"duration":4.699250000005122,"noteNumber":59,"velocity":102,"programNumber":3},{"time":77814.88075000065,"duration":108.0827500000014,"noteNumber":63,"velocity":103,"programNumber":3},{"time":77706.79800000065,"duration":220.86475000000792,"noteNumber":59,"velocity":94,"programNumber":3},{"time":77927.66275000066,"duration":108.0827500000014,"noteNumber":59,"velocity":97,"programNumber":3},{"time":78040.44475000066,"duration":98.6842500000057,"noteNumber":64,"velocity":101,"programNumber":3},{"time":78040.44475000066,"duration":103.38350000001083,"noteNumber":59,"velocity":96,"programNumber":3},{"time":78143.82825000068,"duration":117.48124999999709,"noteNumber":59,"velocity":101,"programNumber":3},{"time":78266.00875000068,"duration":98.6842500000057,"noteNumber":63,"velocity":97,"programNumber":3},{"time":78369.39225000069,"duration":9.398499999995693,"noteNumber":59,"velocity":97,"programNumber":3},{"time":78378.79075000068,"duration":150.37600000000384,"noteNumber":59,"velocity":94,"programNumber":3},{"time":78491.57275000069,"duration":108.0827500000014,"noteNumber":64,"velocity":102,"programNumber":3},{"time":78604.3547500007,"duration":4.699250000005122,"noteNumber":59,"velocity":101,"programNumber":3},{"time":78609.0540000007,"duration":70.48875000000407,"noteNumber":59,"velocity":90,"programNumber":3},{"time":78717.1367500007,"duration":98.6842500000057,"noteNumber":63,"velocity":92,"programNumber":3},{"time":78717.1367500007,"duration":103.38350000001083,"noteNumber":59,"velocity":88,"programNumber":3},{"time":78820.52025000071,"duration":108.0827500000014,"noteNumber":59,"velocity":99,"programNumber":3},{"time":78942.70075000072,"duration":93.98500000000058,"noteNumber":64,"velocity":102,"programNumber":3},{"time":78942.70075000072,"duration":98.6842500000057,"noteNumber":59,"velocity":97,"programNumber":3},{"time":79041.38500000072,"duration":112.78200000000652,"noteNumber":59,"velocity":104,"programNumber":3},{"time":79168.26475000073,"duration":98.6842500000057,"noteNumber":63,"velocity":105,"programNumber":3},{"time":79271.64825000074,"duration":108.0827500000014,"noteNumber":59,"velocity":99,"programNumber":3},{"time":79393.82875000074,"duration":37.59399999999732,"noteNumber":59,"velocity":96,"programNumber":3},{"time":79393.82875000074,"duration":98.68424999999115,"noteNumber":71,"velocity":106,"programNumber":3},{"time":79497.21225000074,"duration":9.398499999995693,"noteNumber":59,"velocity":101,"programNumber":3},{"time":79619.39275000074,"duration":98.6842500000057,"noteNumber":69,"velocity":104,"programNumber":3},{"time":79506.61075000073,"duration":216.16550000001735,"noteNumber":59,"velocity":94,"programNumber":3},{"time":79722.77625000075,"duration":103.38349999999627,"noteNumber":59,"velocity":101,"programNumber":3},{"time":79844.95675000075,"duration":108.0827500000014,"noteNumber":68,"velocity":103,"programNumber":3},{"time":79844.95675000075,"duration":112.78200000000652,"noteNumber":59,"velocity":96,"programNumber":3},{"time":79957.73875000076,"duration":108.0827500000014,"noteNumber":59,"velocity":101,"programNumber":3},{"time":80070.52075000077,"duration":108.0827500000014,"noteNumber":69,"velocity":97,"programNumber":3},{"time":80183.30275000077,"duration":108.0827500000014,"noteNumber":59,"velocity":96,"programNumber":3},{"time":80296.08475000078,"duration":108.0827500000014,"noteNumber":68,"velocity":103,"programNumber":3},{"time":80413.56600000078,"duration":103.38349999999627,"noteNumber":59,"velocity":91,"programNumber":3},{"time":80521.64875000078,"duration":108.0827500000014,"noteNumber":66,"velocity":101,"programNumber":3},{"time":80521.64875000078,"duration":117.48124999999709,"noteNumber":59,"velocity":88,"programNumber":3},{"time":80639.13000000078,"duration":103.38349999999627,"noteNumber":59,"velocity":101,"programNumber":3},{"time":80747.21275000078,"duration":108.0827500000014,"noteNumber":68,"velocity":101,"programNumber":3},{"time":80747.21275000078,"duration":112.78200000000652,"noteNumber":59,"velocity":97,"programNumber":3},{"time":80859.99475000078,"duration":108.0827500000014,"noteNumber":59,"velocity":99,"programNumber":3},{"time":80972.77675000079,"duration":108.0827500000014,"noteNumber":64,"velocity":104,"programNumber":3},{"time":81085.5587500008,"duration":108.0827500000014,"noteNumber":59,"velocity":102,"programNumber":3},{"time":81198.3407500008,"duration":42.293250000002445,"noteNumber":59,"velocity":96,"programNumber":3},{"time":81198.3407500008,"duration":108.0827500000014,"noteNumber":66,"velocity":105,"programNumber":3},{"time":81311.12275000081,"duration":4.699250000005122,"noteNumber":59,"velocity":102,"programNumber":3},{"time":81423.90475000082,"duration":108.0827500000014,"noteNumber":63,"velocity":103,"programNumber":3},{"time":81315.82200000082,"duration":220.86475000000792,"noteNumber":59,"velocity":94,"programNumber":3},{"time":81536.68675000082,"duration":108.0827500000014,"noteNumber":59,"velocity":97,"programNumber":3},{"time":81649.46875000083,"duration":108.0827500000014,"noteNumber":64,"velocity":101,"programNumber":3},{"time":81649.46875000083,"duration":112.78200000000652,"noteNumber":59,"velocity":96,"programNumber":3},{"time":81762.25075000084,"duration":108.0827500000014,"noteNumber":59,"velocity":101,"programNumber":3},{"time":81875.03275000084,"duration":108.0827500000014,"noteNumber":63,"velocity":97,"programNumber":3},{"time":81987.81475000085,"duration":108.0827500000014,"noteNumber":59,"velocity":97,"programNumber":3},{"time":82100.59675000086,"duration":108.0827500000014,"noteNumber":64,"velocity":102,"programNumber":3},{"time":82213.37875000086,"duration":4.699250000005122,"noteNumber":59,"velocity":101,"programNumber":3},{"time":82218.07800000087,"duration":70.48875000000407,"noteNumber":59,"velocity":90,"programNumber":3},{"time":82326.16075000087,"duration":108.0827500000014,"noteNumber":63,"velocity":92,"programNumber":3},{"time":82330.86000000087,"duration":108.0827500000014,"noteNumber":59,"velocity":88,"programNumber":3},{"time":82438.94275000088,"duration":108.0827500000014,"noteNumber":59,"velocity":99,"programNumber":3},{"time":82551.72475000088,"duration":108.0827500000014,"noteNumber":64,"velocity":102,"programNumber":3},{"time":82556.42400000089,"duration":108.0827500000014,"noteNumber":59,"velocity":97,"programNumber":3},{"time":82664.50675000089,"duration":108.0827500000014,"noteNumber":59,"velocity":104,"programNumber":3},{"time":82777.2887500009,"duration":98.6842500000057,"noteNumber":63,"velocity":105,"programNumber":3},{"time":82885.3715000009,"duration":112.78200000000652,"noteNumber":59,"velocity":99,"programNumber":3},{"time":83002.85275000091,"duration":46.992499999993015,"noteNumber":59,"velocity":96,"programNumber":3},{"time":83002.85275000091,"duration":108.08274999998685,"noteNumber":71,"velocity":106,"programNumber":3},{"time":83115.6347500009,"duration":4.699250000005122,"noteNumber":59,"velocity":101,"programNumber":3},{"time":83228.4167500009,"duration":98.6842500000057,"noteNumber":69,"velocity":104,"programNumber":3},{"time":83120.3340000009,"duration":216.1655000000028,"noteNumber":59,"velocity":94,"programNumber":3},{"time":83336.49950000091,"duration":112.78200000000652,"noteNumber":59,"velocity":101,"programNumber":3},{"time":83453.98075000092,"duration":108.0827500000014,"noteNumber":68,"velocity":103,"programNumber":3},{"time":83453.98075000092,"duration":112.78200000000652,"noteNumber":59,"velocity":96,"programNumber":3},{"time":83566.76275000093,"duration":108.0827500000014,"noteNumber":59,"velocity":101,"programNumber":3},{"time":83679.54475000093,"duration":98.6842500000057,"noteNumber":69,"velocity":97,"programNumber":3},{"time":83792.32675000094,"duration":98.6842500000057,"noteNumber":59,"velocity":96,"programNumber":3},{"time":83905.10875000095,"duration":108.0827500000014,"noteNumber":68,"velocity":103,"programNumber":3},{"time":84017.89075000095,"duration":75.18799999999464,"noteNumber":59,"velocity":91,"programNumber":3},{"time":84130.67275000094,"duration":108.0827500000014,"noteNumber":66,"velocity":101,"programNumber":3},{"time":84130.67275000094,"duration":112.78200000000652,"noteNumber":59,"velocity":88,"programNumber":3},{"time":84243.45475000095,"duration":98.6842500000057,"noteNumber":59,"velocity":101,"programNumber":3},{"time":84356.23675000096,"duration":108.0827500000014,"noteNumber":68,"velocity":101,"programNumber":3},{"time":84356.23675000096,"duration":112.78200000000652,"noteNumber":59,"velocity":97,"programNumber":3},{"time":84469.01875000096,"duration":108.0827500000014,"noteNumber":59,"velocity":99,"programNumber":3},{"time":84581.80075000097,"duration":98.6842500000057,"noteNumber":64,"velocity":104,"programNumber":3},{"time":84685.18425000098,"duration":117.48124999999709,"noteNumber":59,"velocity":102,"programNumber":3},{"time":84807.36475000098,"duration":42.293250000002445,"noteNumber":59,"velocity":96,"programNumber":3},{"time":84807.36475000098,"duration":108.0827500000014,"noteNumber":66,"velocity":105,"programNumber":3},{"time":84920.14675000099,"duration":4.699250000005122,"noteNumber":59,"velocity":102,"programNumber":3},{"time":85032.928750001,"duration":108.0827500000014,"noteNumber":63,"velocity":103,"programNumber":3},{"time":84924.846000001,"duration":220.86475000000792,"noteNumber":59,"velocity":94,"programNumber":3},{"time":85145.710750001,"duration":98.6842500000057,"noteNumber":59,"velocity":97,"programNumber":3},{"time":85258.49275000101,"duration":98.6842500000057,"noteNumber":64,"velocity":101,"programNumber":3},{"time":85258.49275000101,"duration":103.38350000001083,"noteNumber":59,"velocity":96,"programNumber":3},{"time":85361.87625000102,"duration":108.0827500000014,"noteNumber":59,"velocity":101,"programNumber":3},{"time":85484.05675000102,"duration":93.98500000000058,"noteNumber":63,"velocity":97,"programNumber":3},{"time":85582.74100000103,"duration":14.097750000000815,"noteNumber":59,"velocity":97,"programNumber":3},{"time":85596.83875000103,"duration":150.37600000000384,"noteNumber":59,"velocity":94,"programNumber":3},{"time":85709.62075000104,"duration":98.68424999999115,"noteNumber":64,"velocity":102,"programNumber":3},{"time":85813.00425000103,"duration":14.097750000000815,"noteNumber":59,"velocity":101,"programNumber":3},{"time":85827.10200000103,"duration":70.48875000000407,"noteNumber":59,"velocity":90,"programNumber":3},{"time":85935.18475000103,"duration":98.6842500000057,"noteNumber":63,"velocity":92,"programNumber":3},{"time":85935.18475000103,"duration":103.38350000001083,"noteNumber":59,"velocity":88,"programNumber":3},{"time":86038.56825000104,"duration":108.0827500000014,"noteNumber":59,"velocity":99,"programNumber":3},{"time":86160.74875000105,"duration":98.6842500000057,"noteNumber":64,"velocity":102,"programNumber":3},{"time":86160.74875000105,"duration":103.38350000001083,"noteNumber":59,"velocity":97,"programNumber":3},{"time":86264.13225000106,"duration":103.38349999999627,"noteNumber":59,"velocity":104,"programNumber":3},{"time":86386.31275000106,"duration":98.6842500000057,"noteNumber":63,"velocity":105,"programNumber":3},{"time":86489.69625000107,"duration":117.48124999999709,"noteNumber":59,"velocity":99,"programNumber":3},{"time":86611.87675000107,"duration":51.69174999999814,"noteNumber":59,"velocity":96,"programNumber":3},{"time":86611.87675000107,"duration":108.0827500000014,"noteNumber":71,"velocity":106,"programNumber":3},{"time":86837.44075000109,"duration":108.0827500000014,"noteNumber":69,"velocity":104,"programNumber":3},{"time":86724.65875000108,"duration":225.56400000001304,"noteNumber":59,"velocity":101,"programNumber":3},{"time":86950.22275000109,"duration":108.0827500000014,"noteNumber":59,"velocity":101,"programNumber":3},{"time":87063.0047500011,"duration":108.0827500000014,"noteNumber":68,"velocity":103,"programNumber":3},{"time":87063.0047500011,"duration":112.78200000000652,"noteNumber":59,"velocity":96,"programNumber":3},{"time":87175.7867500011,"duration":108.0827500000014,"noteNumber":59,"velocity":101,"programNumber":3},{"time":87288.56875000111,"duration":108.0827500000014,"noteNumber":69,"velocity":97,"programNumber":3},{"time":87401.35075000112,"duration":150.37600000000384,"noteNumber":59,"velocity":96,"programNumber":3},{"time":87514.13275000112,"duration":108.0827500000014,"noteNumber":68,"velocity":103,"programNumber":3},{"time":87626.91475000113,"duration":4.699250000005122,"noteNumber":59,"velocity":91,"programNumber":3},{"time":87631.61400000114,"duration":70.48875000000407,"noteNumber":59,"velocity":90,"programNumber":3},{"time":87739.69675000114,"duration":108.0827500000014,"noteNumber":66,"velocity":101,"programNumber":3},{"time":87739.69675000114,"duration":112.78200000000652,"noteNumber":59,"velocity":88,"programNumber":3},{"time":87852.47875000114,"duration":98.6842500000057,"noteNumber":59,"velocity":101,"programNumber":3},{"time":87965.26075000115,"duration":108.0827500000014,"noteNumber":68,"velocity":101,"programNumber":3},{"time":87965.26075000115,"duration":112.78200000000652,"noteNumber":59,"velocity":97,"programNumber":3},{"time":88078.04275000116,"duration":108.0827500000014,"noteNumber":59,"velocity":99,"programNumber":3},{"time":88190.82475000116,"duration":108.0827500000014,"noteNumber":64,"velocity":104,"programNumber":3},{"time":88303.60675000117,"duration":108.0827500000014,"noteNumber":59,"velocity":102,"programNumber":3},{"time":88416.38875000118,"duration":51.69174999999814,"noteNumber":59,"velocity":96,"programNumber":3},{"time":88416.38875000118,"duration":108.0827500000014,"noteNumber":66,"velocity":105,"programNumber":3},{"time":88529.17075000118,"duration":4.699250000005122,"noteNumber":59,"velocity":102,"programNumber":3},{"time":88641.95275000119,"duration":108.0827500000014,"noteNumber":63,"velocity":103,"programNumber":3},{"time":88533.87000000119,"duration":220.86475000000792,"noteNumber":59,"velocity":94,"programNumber":3},{"time":88754.7347500012,"duration":103.38349999999627,"noteNumber":59,"velocity":97,"programNumber":3},{"time":88867.51675000119,"duration":108.0827500000014,"noteNumber":64,"velocity":101,"programNumber":3},{"time":88872.2160000012,"duration":108.0827500000014,"noteNumber":59,"velocity":96,"programNumber":3},{"time":88980.2987500012,"duration":108.0827500000014,"noteNumber":59,"velocity":101,"programNumber":3},{"time":89093.0807500012,"duration":108.0827500000014,"noteNumber":63,"velocity":97,"programNumber":3},{"time":89205.86275000121,"duration":150.37600000000384,"noteNumber":59,"velocity":97,"programNumber":3},{"time":89318.64475000121,"duration":108.0827500000014,"noteNumber":64,"velocity":102,"programNumber":3},{"time":89431.42675000122,"duration":4.699250000005122,"noteNumber":59,"velocity":101,"programNumber":3},{"time":89436.12600000123,"duration":70.48875000000407,"noteNumber":59,"velocity":90,"programNumber":3},{"time":89544.20875000123,"duration":98.6842500000057,"noteNumber":63,"velocity":92,"programNumber":3},{"time":89544.20875000123,"duration":108.0827500000014,"noteNumber":59,"velocity":88,"programNumber":3},{"time":89652.29150000123,"duration":112.78200000000652,"noteNumber":59,"velocity":99,"programNumber":3},{"time":89769.77275000124,"duration":108.0827500000014,"noteNumber":64,"velocity":102,"programNumber":3},{"time":89769.77275000124,"duration":112.78200000000652,"noteNumber":59,"velocity":97,"programNumber":3},{"time":89882.55475000125,"duration":98.6842500000057,"noteNumber":59,"velocity":104,"programNumber":3},{"time":89995.33675000125,"duration":93.98500000000058,"noteNumber":63,"velocity":105,"programNumber":3},{"time":90103.41950000126,"duration":112.78200000000652,"noteNumber":59,"velocity":99,"programNumber":3},{"time":90220.90075000127,"duration":51.69174999999814,"noteNumber":59,"velocity":96,"programNumber":3},{"time":90220.90075000127,"duration":98.68424999999115,"noteNumber":71,"velocity":106,"programNumber":3},{"time":90333.68275000126,"duration":4.699250000005122,"noteNumber":59,"velocity":101,"programNumber":3},{"time":90446.46475000127,"duration":108.0827500000014,"noteNumber":69,"velocity":104,"programNumber":3},{"time":90338.38200000126,"duration":220.86475000000792,"noteNumber":59,"velocity":94,"programNumber":3},{"time":90559.24675000127,"duration":98.6842500000057,"noteNumber":59,"velocity":101,"programNumber":3},{"time":90672.02875000128,"duration":93.98500000000058,"noteNumber":68,"velocity":103,"programNumber":3},{"time":90672.02875000128,"duration":112.78200000000652,"noteNumber":59,"velocity":96,"programNumber":3},{"time":90784.81075000128,"duration":108.0827500000014,"noteNumber":59,"velocity":101,"programNumber":3},{"time":90897.59275000129,"duration":108.0827500000014,"noteNumber":69,"velocity":97,"programNumber":3},{"time":91010.3747500013,"duration":108.0827500000014,"noteNumber":59,"velocity":96,"programNumber":3},{"time":91123.1567500013,"duration":98.6842500000057,"noteNumber":68,"velocity":103,"programNumber":3},{"time":91235.93875000131,"duration":75.18799999999464,"noteNumber":59,"velocity":91,"programNumber":3},{"time":91348.7207500013,"duration":98.6842500000057,"noteNumber":66,"velocity":101,"programNumber":3},{"time":91348.7207500013,"duration":103.38350000001083,"noteNumber":59,"velocity":88,"programNumber":3},{"time":91452.10425000131,"duration":103.38349999999627,"noteNumber":59,"velocity":101,"programNumber":3},{"time":91574.28475000132,"duration":108.0827500000014,"noteNumber":68,"velocity":101,"programNumber":3},{"time":91574.28475000132,"duration":112.78200000000652,"noteNumber":59,"velocity":97,"programNumber":3},{"time":91687.06675000132,"duration":93.98500000000058,"noteNumber":59,"velocity":99,"programNumber":3},{"time":91799.84875000133,"duration":98.6842500000057,"noteNumber":64,"velocity":104,"programNumber":3},{"time":91903.23225000134,"duration":117.48124999999709,"noteNumber":59,"velocity":102,"programNumber":3},{"time":92025.41275000134,"duration":42.293250000002445,"noteNumber":59,"velocity":96,"programNumber":3},{"time":92025.41275000134,"duration":93.98500000000058,"noteNumber":66,"velocity":105,"programNumber":3},{"time":92124.09700000135,"duration":14.097750000000815,"noteNumber":59,"velocity":102,"programNumber":3},{"time":92250.97675000135,"duration":98.6842500000057,"noteNumber":63,"velocity":103,"programNumber":3},{"time":92138.19475000135,"duration":216.16550000001735,"noteNumber":59,"velocity":94,"programNumber":3},{"time":92354.36025000137,"duration":108.0827500000014,"noteNumber":59,"velocity":97,"programNumber":3},{"time":92476.54075000137,"duration":98.6842500000057,"noteNumber":64,"velocity":101,"programNumber":3},{"time":92476.54075000137,"duration":103.38350000001083,"noteNumber":59,"velocity":96,"programNumber":3},{"time":92579.92425000138,"duration":108.0827500000014,"noteNumber":59,"velocity":101,"programNumber":3},{"time":92702.10475000138,"duration":98.6842500000057,"noteNumber":63,"velocity":97,"programNumber":3},{"time":92805.48825000139,"duration":9.398499999995693,"noteNumber":59,"velocity":97,"programNumber":3},{"time":92814.88675000139,"duration":150.37600000000384,"noteNumber":59,"velocity":94,"programNumber":3},{"time":92927.6687500014,"duration":98.68424999999115,"noteNumber":64,"velocity":102,"programNumber":3},{"time":93031.05225000139,"duration":14.097750000000815,"noteNumber":59,"velocity":101,"programNumber":3},{"time":93045.15000000139,"duration":70.48875000000407,"noteNumber":59,"velocity":90,"programNumber":3},{"time":93153.23275000139,"duration":108.0827500000014,"noteNumber":63,"velocity":92,"programNumber":3},{"time":93153.23275000139,"duration":112.78200000000652,"noteNumber":59,"velocity":88,"programNumber":3},{"time":93266.0147500014,"duration":108.0827500000014,"noteNumber":59,"velocity":99,"programNumber":3},{"time":93378.7967500014,"duration":108.0827500000014,"noteNumber":64,"velocity":102,"programNumber":3},{"time":93383.49600000141,"duration":108.0827500000014,"noteNumber":59,"velocity":97,"programNumber":3},{"time":93491.57875000141,"duration":108.0827500000014,"noteNumber":59,"velocity":104,"programNumber":3},{"time":93604.36075000142,"duration":108.0827500000014,"noteNumber":63,"velocity":105,"programNumber":3},{"time":93717.14275000143,"duration":108.0827500000014,"noteNumber":59,"velocity":99,"programNumber":3},{"time":93829.92475000143,"duration":51.69174999999814,"noteNumber":59,"velocity":96,"programNumber":3},{"time":93829.92475000143,"duration":108.0827500000014,"noteNumber":71,"velocity":106,"programNumber":3},{"time":93942.70675000144,"duration":4.699250000005122,"noteNumber":59,"velocity":101,"programNumber":3},{"time":94055.48875000144,"duration":108.0827500000014,"noteNumber":69,"velocity":104,"programNumber":3},{"time":93947.40600000144,"duration":220.86475000000792,"noteNumber":59,"velocity":94,"programNumber":3},{"time":94168.27075000145,"duration":108.0827500000014,"noteNumber":59,"velocity":101,"programNumber":3},{"time":94281.05275000146,"duration":93.98500000000058,"noteNumber":68,"velocity":103,"programNumber":3},{"time":94281.05275000146,"duration":103.38349999999627,"noteNumber":59,"velocity":96,"programNumber":3},{"time":94384.43625000145,"duration":117.48124999999709,"noteNumber":59,"velocity":101,"programNumber":3},{"time":94506.61675000146,"duration":108.0827500000014,"noteNumber":69,"velocity":97,"programNumber":3},{"time":94619.39875000146,"duration":150.37600000000384,"noteNumber":59,"velocity":96,"programNumber":3},{"time":94732.18075000147,"duration":108.0827500000014,"noteNumber":68,"velocity":103,"programNumber":3},{"time":94844.96275000148,"duration":4.699250000005122,"noteNumber":59,"velocity":91,"programNumber":3},{"time":94849.66200000148,"duration":70.48875000000407,"noteNumber":59,"velocity":90,"programNumber":3},{"time":94957.74475000148,"duration":108.0827500000014,"noteNumber":66,"velocity":101,"programNumber":3},{"time":94957.74475000148,"duration":112.78200000000652,"noteNumber":59,"velocity":88,"programNumber":3},{"time":95070.52675000149,"duration":108.0827500000014,"noteNumber":59,"velocity":101,"programNumber":3},{"time":95183.3087500015,"duration":108.0827500000014,"noteNumber":68,"velocity":101,"programNumber":3},{"time":95183.3087500015,"duration":112.78200000000652,"noteNumber":59,"velocity":97,"programNumber":3},{"time":95296.0907500015,"duration":108.0827500000014,"noteNumber":59,"velocity":99,"programNumber":3},{"time":95408.87275000151,"duration":108.0827500000014,"noteNumber":64,"velocity":104,"programNumber":3},{"time":95521.65475000151,"duration":108.0827500000014,"noteNumber":59,"velocity":102,"programNumber":3},{"time":95634.43675000152,"duration":51.69174999999814,"noteNumber":59,"velocity":96,"programNumber":3},{"time":95634.43675000152,"duration":108.0827500000014,"noteNumber":66,"velocity":105,"programNumber":3},{"time":95747.21875000153,"duration":4.699250000005122,"noteNumber":59,"velocity":102,"programNumber":3},{"time":95860.00075000153,"duration":108.0827500000014,"noteNumber":63,"velocity":103,"programNumber":3},{"time":95751.91800000153,"duration":220.86475000000792,"noteNumber":59,"velocity":94,"programNumber":3},{"time":95972.78275000154,"duration":108.0827500000014,"noteNumber":59,"velocity":97,"programNumber":3},{"time":96085.56475000155,"duration":98.6842500000057,"noteNumber":64,"velocity":101,"programNumber":3},{"time":96085.56475000155,"duration":103.38350000001083,"noteNumber":59,"velocity":96,"programNumber":3},{"time":96188.94825000156,"duration":117.48124999999709,"noteNumber":59,"velocity":101,"programNumber":3},{"time":96311.12875000156,"duration":108.0827500000014,"noteNumber":63,"velocity":97,"programNumber":3},{"time":96423.91075000157,"duration":155.07525000000896,"noteNumber":59,"velocity":97,"programNumber":3},{"time":96536.69275000157,"duration":98.6842500000057,"noteNumber":64,"velocity":102,"programNumber":3},{"time":96649.47475000158,"duration":4.699250000005122,"noteNumber":59,"velocity":101,"programNumber":3},{"time":96654.17400000159,"duration":70.48875000000407,"noteNumber":59,"velocity":90,"programNumber":3},{"time":96762.25675000159,"duration":93.98500000000058,"noteNumber":63,"velocity":92,"programNumber":3},{"time":96762.25675000159,"duration":108.0827500000014,"noteNumber":59,"velocity":88,"programNumber":3},{"time":96870.33950000159,"duration":103.38349999999627,"noteNumber":59,"velocity":99,"programNumber":3},{"time":96987.82075000159,"duration":108.0827500000014,"noteNumber":64,"velocity":102,"programNumber":3},{"time":96987.82075000159,"duration":112.78200000000652,"noteNumber":59,"velocity":97,"programNumber":3},{"time":97100.60275000159,"duration":98.6842500000057,"noteNumber":59,"velocity":104,"programNumber":3},{"time":97213.3847500016,"duration":93.98500000000058,"noteNumber":63,"velocity":105,"programNumber":3},{"time":97312.0690000016,"duration":117.48124999999709,"noteNumber":59,"velocity":99,"programNumber":3},{"time":97438.9487500016,"duration":51.69174999999814,"noteNumber":59,"velocity":96,"programNumber":3},{"time":97438.9487500016,"duration":108.0827500000014,"noteNumber":71,"velocity":106,"programNumber":3},{"time":97664.51275000161,"duration":108.0827500000014,"noteNumber":69,"velocity":104,"programNumber":3},{"time":97551.7307500016,"duration":225.56400000001304,"noteNumber":59,"velocity":101,"programNumber":3},{"time":97777.29475000162,"duration":108.0827500000014,"noteNumber":59,"velocity":101,"programNumber":3},{"time":97890.07675000162,"duration":98.6842500000057,"noteNumber":68,"velocity":103,"programNumber":3},{"time":97890.07675000162,"duration":108.0827500000014,"noteNumber":59,"velocity":96,"programNumber":3},{"time":97998.15950000162,"duration":98.6842500000057,"noteNumber":59,"velocity":101,"programNumber":3},{"time":98115.64075000164,"duration":108.0827500000014,"noteNumber":69,"velocity":97,"programNumber":3},{"time":98228.42275000164,"duration":108.0827500000014,"noteNumber":59,"velocity":96,"programNumber":3},{"time":98341.20475000165,"duration":108.0827500000014,"noteNumber":68,"velocity":103,"programNumber":3},{"time":98453.98675000166,"duration":75.18799999999464,"noteNumber":59,"velocity":91,"programNumber":3},{"time":98566.76875000165,"duration":98.6842500000057,"noteNumber":66,"velocity":101,"programNumber":3},{"time":98566.76875000165,"duration":112.78200000000652,"noteNumber":59,"velocity":88,"programNumber":3},{"time":98679.55075000165,"duration":103.38349999999627,"noteNumber":59,"velocity":101,"programNumber":3},{"time":98792.33275000165,"duration":108.0827500000014,"noteNumber":68,"velocity":101,"programNumber":3},{"time":98792.33275000165,"duration":112.78200000000652,"noteNumber":59,"velocity":97,"programNumber":3},{"time":98905.11475000165,"duration":98.6842500000057,"noteNumber":59,"velocity":99,"programNumber":3},{"time":99017.89675000166,"duration":98.6842500000057,"noteNumber":64,"velocity":104,"programNumber":3},{"time":99130.67875000167,"duration":108.0827500000014,"noteNumber":59,"velocity":102,"programNumber":3},{"time":99243.46075000167,"duration":51.69174999999814,"noteNumber":59,"velocity":96,"programNumber":3},{"time":99243.46075000167,"duration":103.38349999999627,"noteNumber":66,"velocity":105,"programNumber":3},{"time":99356.24275000166,"duration":4.699250000005122,"noteNumber":59,"velocity":102,"programNumber":3},{"time":99469.02475000167,"duration":103.38349999999627,"noteNumber":63,"velocity":103,"programNumber":3},{"time":99360.94200000167,"duration":220.86474999999336,"noteNumber":59,"velocity":94,"programNumber":3},{"time":99581.80675000166,"duration":103.38349999999627,"noteNumber":59,"velocity":97,"programNumber":3},{"time":99694.58875000165,"duration":103.38349999999627,"noteNumber":64,"velocity":101,"programNumber":3},{"time":99694.58875000165,"duration":112.78199999999197,"noteNumber":59,"velocity":96,"programNumber":3},{"time":99807.37075000165,"duration":103.38349999999627,"noteNumber":59,"velocity":101,"programNumber":3},{"time":99920.15275000164,"duration":108.0827500000014,"noteNumber":63,"velocity":97,"programNumber":3},{"time":100032.93475000164,"duration":150.37600000000384,"noteNumber":59,"velocity":97,"programNumber":3},{"time":100145.71675000165,"duration":108.0827500000014,"noteNumber":64,"velocity":102,"programNumber":3},{"time":100258.49875000166,"duration":4.699250000005122,"noteNumber":59,"velocity":101,"programNumber":3},{"time":100263.19800000166,"duration":70.48875000000407,"noteNumber":59,"velocity":90,"programNumber":3},{"time":100371.28075000166,"duration":103.38350000001083,"noteNumber":63,"velocity":92,"programNumber":3},{"time":100375.98000000167,"duration":108.0827500000014,"noteNumber":59,"velocity":88,"programNumber":3},{"time":100484.06275000167,"duration":108.0827500000014,"noteNumber":59,"velocity":99,"programNumber":3},{"time":100596.84475000168,"duration":108.0827500000014,"noteNumber":64,"velocity":102,"programNumber":3},{"time":100601.54400000168,"duration":108.0827500000014,"noteNumber":59,"velocity":97,"programNumber":3},{"time":100709.62675000168,"duration":108.0827500000014,"noteNumber":59,"velocity":104,"programNumber":3},{"time":100822.40875000169,"duration":108.0827500000014,"noteNumber":63,"velocity":105,"programNumber":3},{"time":100935.1907500017,"duration":108.0827500000014,"noteNumber":59,"velocity":99,"programNumber":3},{"time":101047.9727500017,"duration":51.69174999999814,"noteNumber":59,"velocity":96,"programNumber":3},{"time":101047.9727500017,"duration":108.0827500000014,"noteNumber":71,"velocity":106,"programNumber":3},{"time":101273.53675000172,"duration":108.0827500000014,"noteNumber":69,"velocity":104,"programNumber":3},{"time":101160.75475000171,"duration":225.56400000001304,"noteNumber":59,"velocity":101,"programNumber":3},{"time":101386.31875000172,"duration":108.0827500000014,"noteNumber":59,"velocity":101,"programNumber":3},{"time":101499.10075000173,"duration":108.0827500000014,"noteNumber":68,"velocity":103,"programNumber":3},{"time":101499.10075000173,"duration":112.78200000000652,"noteNumber":59,"velocity":96,"programNumber":3},{"time":101611.88275000174,"duration":108.0827500000014,"noteNumber":59,"velocity":101,"programNumber":3},{"time":101724.66475000174,"duration":108.0827500000014,"noteNumber":69,"velocity":97,"programNumber":3},{"time":101837.44675000175,"duration":150.37600000000384,"noteNumber":59,"velocity":96,"programNumber":3},{"time":101950.22875000176,"duration":108.0827500000014,"noteNumber":68,"velocity":103,"programNumber":3},{"time":102063.01075000176,"duration":4.699250000005122,"noteNumber":59,"velocity":91,"programNumber":3},{"time":102067.71000000177,"duration":70.48875000000407,"noteNumber":59,"velocity":90,"programNumber":3},{"time":102175.79275000177,"duration":108.0827500000014,"noteNumber":66,"velocity":101,"programNumber":3},{"time":102175.79275000177,"duration":112.78200000000652,"noteNumber":59,"velocity":88,"programNumber":3},{"time":102288.57475000178,"duration":108.0827500000014,"noteNumber":59,"velocity":101,"programNumber":3},{"time":102401.35675000178,"duration":108.0827500000014,"noteNumber":68,"velocity":101,"programNumber":3},{"time":102401.35675000178,"duration":112.78200000000652,"noteNumber":59,"velocity":97,"programNumber":3},{"time":102514.13875000179,"duration":108.0827500000014,"noteNumber":59,"velocity":99,"programNumber":3},{"time":102626.9207500018,"duration":108.0827500000014,"noteNumber":64,"velocity":104,"programNumber":3},{"time":102739.7027500018,"duration":108.0827500000014,"noteNumber":59,"velocity":102,"programNumber":3},{"time":102857.18400000181,"duration":46.992499999993015,"noteNumber":59,"velocity":96,"programNumber":3},{"time":102852.48475000181,"duration":108.0827500000014,"noteNumber":66,"velocity":105,"programNumber":3},{"time":102965.26675000181,"duration":4.699250000005122,"noteNumber":59,"velocity":102,"programNumber":3},{"time":103078.04875000182,"duration":108.0827500000014,"noteNumber":63,"velocity":103,"programNumber":3},{"time":102969.96600000182,"duration":220.86475000000792,"noteNumber":59,"velocity":94,"programNumber":3},{"time":103190.83075000183,"duration":108.0827500000014,"noteNumber":59,"velocity":97,"programNumber":3},{"time":103303.61275000183,"duration":108.0827500000014,"noteNumber":64,"velocity":101,"programNumber":3},{"time":103303.61275000183,"duration":112.78200000000652,"noteNumber":59,"velocity":96,"programNumber":3},{"time":103416.39475000184,"duration":108.0827500000014,"noteNumber":59,"velocity":101,"programNumber":3},{"time":103529.17675000185,"duration":108.0827500000014,"noteNumber":63,"velocity":97,"programNumber":3},{"time":103641.95875000185,"duration":150.37600000000384,"noteNumber":59,"velocity":97,"programNumber":3},{"time":103754.74075000186,"duration":108.0827500000014,"noteNumber":64,"velocity":102,"programNumber":3},{"time":103867.52275000187,"duration":4.699250000005122,"noteNumber":59,"velocity":101,"programNumber":3},{"time":103872.22200000187,"duration":70.48875000000407,"noteNumber":59,"velocity":90,"programNumber":3},{"time":103980.30475000187,"duration":108.0827500000014,"noteNumber":63,"velocity":92,"programNumber":3},{"time":103980.30475000187,"duration":112.78200000000652,"noteNumber":59,"velocity":88,"programNumber":3},{"time":104093.08675000188,"duration":108.0827500000014,"noteNumber":59,"velocity":99,"programNumber":3},{"time":104205.86875000189,"duration":108.0827500000014,"noteNumber":64,"velocity":102,"programNumber":3},{"time":104205.86875000189,"duration":112.78200000000652,"noteNumber":59,"velocity":97,"programNumber":3},{"time":104318.65075000189,"duration":108.0827500000014,"noteNumber":59,"velocity":104,"programNumber":3},{"time":104431.4327500019,"duration":108.0827500000014,"noteNumber":63,"velocity":105,"programNumber":3},{"time":104544.2147500019,"duration":108.0827500000014,"noteNumber":59,"velocity":99,"programNumber":3},{"time":104656.99675000191,"duration":37.59399999999732,"noteNumber":59,"velocity":96,"programNumber":3},{"time":104656.99675000191,"duration":108.0827500000014,"noteNumber":71,"velocity":106,"programNumber":3},{"time":104769.77875000192,"duration":4.699250000005122,"noteNumber":59,"velocity":101,"programNumber":3},{"time":104882.56075000193,"duration":98.6842500000057,"noteNumber":69,"velocity":104,"programNumber":3},{"time":104774.47800000192,"duration":211.46625000001222,"noteNumber":59,"velocity":94,"programNumber":3},{"time":104985.94425000194,"duration":108.0827500000014,"noteNumber":59,"velocity":101,"programNumber":3},{"time":105108.12475000194,"duration":98.6842500000057,"noteNumber":68,"velocity":103,"programNumber":3},{"time":105108.12475000194,"duration":103.38350000001083,"noteNumber":59,"velocity":96,"programNumber":3},{"time":105211.50825000195,"duration":103.38349999999627,"noteNumber":59,"velocity":101,"programNumber":3},{"time":105333.68875000195,"duration":98.6842500000057,"noteNumber":69,"velocity":97,"programNumber":3},{"time":105437.07225000196,"duration":9.398499999995693,"noteNumber":59,"velocity":96,"programNumber":3},{"time":105446.47075000196,"duration":150.37600000000384,"noteNumber":59,"velocity":94,"programNumber":3},{"time":105559.25275000196,"duration":108.0827500000014,"noteNumber":68,"velocity":103,"programNumber":3},{"time":105672.03475000197,"duration":75.18799999999464,"noteNumber":59,"velocity":91,"programNumber":3},{"time":105784.81675000196,"duration":108.0827500000014,"noteNumber":66,"velocity":101,"programNumber":3},{"time":105784.81675000196,"duration":112.78200000000652,"noteNumber":59,"velocity":88,"programNumber":3},{"time":105897.59875000197,"duration":98.6842500000057,"noteNumber":59,"velocity":101,"programNumber":3},{"time":106010.38075000198,"duration":98.6842500000057,"noteNumber":68,"velocity":101,"programNumber":3},{"time":106010.38075000198,"duration":103.38350000001083,"noteNumber":59,"velocity":97,"programNumber":3},{"time":106113.76425000199,"duration":117.48124999999709,"noteNumber":59,"velocity":99,"programNumber":3},{"time":106235.94475000199,"duration":108.0827500000014,"noteNumber":64,"velocity":104,"programNumber":3},{"time":106348.726750002,"duration":98.6842500000057,"noteNumber":59,"velocity":102,"programNumber":3},{"time":106461.508750002,"duration":51.69174999999814,"noteNumber":59,"velocity":96,"programNumber":3},{"time":106461.508750002,"duration":108.0827500000014,"noteNumber":66,"velocity":105,"programNumber":3},{"time":106574.29075000201,"duration":4.699250000005122,"noteNumber":59,"velocity":102,"programNumber":3},{"time":106687.07275000201,"duration":108.0827500000014,"noteNumber":63,"velocity":103,"programNumber":3},{"time":106578.99000000201,"duration":220.86475000000792,"noteNumber":59,"velocity":94,"programNumber":3},{"time":106799.85475000202,"duration":108.0827500000014,"noteNumber":59,"velocity":97,"programNumber":3},{"time":106912.63675000203,"duration":108.0827500000014,"noteNumber":64,"velocity":101,"programNumber":3},{"time":106912.63675000203,"duration":112.78200000000652,"noteNumber":59,"velocity":96,"programNumber":3},{"time":107025.41875000203,"duration":108.0827500000014,"noteNumber":59,"velocity":101,"programNumber":3},{"time":107138.20075000204,"duration":108.0827500000014,"noteNumber":63,"velocity":97,"programNumber":3},{"time":107250.98275000205,"duration":150.37600000000384,"noteNumber":59,"velocity":97,"programNumber":3},{"time":107363.76475000205,"duration":98.68424999999115,"noteNumber":64,"velocity":102,"programNumber":3},{"time":107467.14825000205,"duration":14.097750000000815,"noteNumber":59,"velocity":101,"programNumber":3},{"time":107481.24600000205,"duration":70.48875000000407,"noteNumber":59,"velocity":90,"programNumber":3},{"time":107589.32875000205,"duration":108.0827500000014,"noteNumber":63,"velocity":92,"programNumber":3},{"time":107589.32875000205,"duration":112.78200000000652,"noteNumber":59,"velocity":88,"programNumber":3},{"time":107702.11075000206,"duration":108.0827500000014,"noteNumber":59,"velocity":99,"programNumber":3},{"time":107814.89275000207,"duration":108.0827500000014,"noteNumber":64,"velocity":102,"programNumber":3},{"time":107814.89275000207,"duration":112.78200000000652,"noteNumber":59,"velocity":97,"programNumber":3},{"time":107927.67475000207,"duration":108.0827500000014,"noteNumber":59,"velocity":104,"programNumber":3},{"time":108040.45675000208,"duration":108.0827500000014,"noteNumber":63,"velocity":105,"programNumber":3},{"time":108153.23875000208,"duration":108.0827500000014,"noteNumber":59,"velocity":99,"programNumber":3},{"time":108266.02075000209,"duration":51.69174999999814,"noteNumber":59,"velocity":96,"programNumber":3},{"time":108266.02075000209,"duration":108.0827500000014,"noteNumber":71,"velocity":106,"programNumber":3},{"time":108378.8027500021,"duration":4.699250000005122,"noteNumber":59,"velocity":101,"programNumber":3},{"time":108491.5847500021,"duration":108.0827500000014,"noteNumber":69,"velocity":104,"programNumber":3},{"time":108383.5020000021,"duration":220.86475000000792,"noteNumber":59,"velocity":94,"programNumber":3},{"time":108604.36675000211,"duration":108.0827500000014,"noteNumber":59,"velocity":101,"programNumber":3},{"time":108717.14875000212,"duration":108.0827500000014,"noteNumber":68,"velocity":103,"programNumber":3},{"time":108717.14875000212,"duration":112.78200000000652,"noteNumber":59,"velocity":96,"programNumber":3},{"time":108829.93075000212,"duration":108.0827500000014,"noteNumber":59,"velocity":101,"programNumber":3},{"time":108942.71275000213,"duration":108.0827500000014,"noteNumber":69,"velocity":97,"programNumber":3},{"time":109055.49475000214,"duration":150.37600000000384,"noteNumber":59,"velocity":96,"programNumber":3},{"time":109168.27675000214,"duration":108.0827500000014,"noteNumber":68,"velocity":103,"programNumber":3},{"time":109281.05875000215,"duration":4.699250000005122,"noteNumber":59,"velocity":91,"programNumber":3},{"time":109285.75800000216,"duration":70.48875000000407,"noteNumber":59,"velocity":90,"programNumber":3},{"time":109393.84075000216,"duration":108.0827500000014,"noteNumber":66,"velocity":101,"programNumber":3},{"time":109393.84075000216,"duration":112.78200000000652,"noteNumber":59,"velocity":88,"programNumber":3},{"time":109506.62275000216,"duration":98.6842500000057,"noteNumber":59,"velocity":101,"programNumber":3},{"time":109619.40475000217,"duration":98.6842500000057,"noteNumber":68,"velocity":101,"programNumber":3},{"time":109619.40475000217,"duration":108.0827500000014,"noteNumber":59,"velocity":97,"programNumber":3},{"time":109727.48750000217,"duration":112.78200000000652,"noteNumber":59,"velocity":99,"programNumber":3},{"time":109844.96875000218,"duration":98.6842500000057,"noteNumber":64,"velocity":104,"programNumber":3},{"time":109953.05150000218,"duration":112.78200000000652,"noteNumber":59,"velocity":102,"programNumber":3},{"time":110070.5327500022,"duration":46.99250000000757,"noteNumber":59,"velocity":96,"programNumber":3},{"time":110070.5327500022,"duration":108.0827500000014,"noteNumber":66,"velocity":105,"programNumber":3},{"time":110183.3147500022,"duration":4.699250000005122,"noteNumber":59,"velocity":102,"programNumber":3},{"time":110296.09675000221,"duration":108.0827500000014,"noteNumber":63,"velocity":103,"programNumber":3},{"time":110188.01400000221,"duration":220.86475000000792,"noteNumber":59,"velocity":94,"programNumber":3},{"time":110408.87875000222,"duration":93.98500000000058,"noteNumber":59,"velocity":97,"programNumber":3},{"time":110521.66075000222,"duration":108.0827500000014,"noteNumber":64,"velocity":101,"programNumber":3},{"time":110521.66075000222,"duration":112.78200000000652,"noteNumber":59,"velocity":96,"programNumber":3},{"time":110634.44275000223,"duration":93.98500000000058,"noteNumber":59,"velocity":101,"programNumber":3},{"time":110747.22475000223,"duration":108.0827500000014,"noteNumber":63,"velocity":97,"programNumber":3},{"time":110860.00675000224,"duration":108.0827500000014,"noteNumber":59,"velocity":97,"programNumber":3},{"time":110972.78875000225,"duration":108.0827500000014,"noteNumber":64,"velocity":102,"programNumber":3},{"time":111085.57075000225,"duration":75.18799999999464,"noteNumber":59,"velocity":101,"programNumber":3},{"time":111198.35275000225,"duration":108.0827500000014,"noteNumber":63,"velocity":92,"programNumber":3},{"time":111198.35275000225,"duration":112.78200000000652,"noteNumber":59,"velocity":88,"programNumber":3},{"time":111311.13475000225,"duration":98.6842500000057,"noteNumber":59,"velocity":99,"programNumber":3},{"time":111423.91675000226,"duration":108.0827500000014,"noteNumber":64,"velocity":102,"programNumber":3},{"time":111423.91675000226,"duration":112.78200000000652,"noteNumber":59,"velocity":97,"programNumber":3},{"time":111536.69875000227,"duration":98.6842500000057,"noteNumber":59,"velocity":104,"programNumber":3},{"time":111649.48075000227,"duration":108.0827500000014,"noteNumber":63,"velocity":105,"programNumber":3},{"time":111762.26275000228,"duration":98.6842500000057,"noteNumber":59,"velocity":99,"programNumber":3},{"time":111875.04475000229,"duration":51.69174999999814,"noteNumber":59,"velocity":96,"programNumber":3},{"time":111875.04475000229,"duration":108.0827500000014,"noteNumber":71,"velocity":106,"programNumber":3},{"time":111987.82675000229,"duration":4.699250000005122,"noteNumber":59,"velocity":101,"programNumber":3},{"time":112100.6087500023,"duration":108.0827500000014,"noteNumber":69,"velocity":104,"programNumber":3},{"time":111992.5260000023,"duration":220.86475000000792,"noteNumber":59,"velocity":94,"programNumber":3},{"time":112213.3907500023,"duration":108.0827500000014,"noteNumber":59,"velocity":101,"programNumber":3},{"time":112326.17275000231,"duration":98.6842500000057,"noteNumber":68,"velocity":103,"programNumber":3},{"time":112326.17275000231,"duration":112.78200000000652,"noteNumber":59,"velocity":96,"programNumber":3},{"time":112438.95475000232,"duration":103.38349999999627,"noteNumber":59,"velocity":101,"programNumber":3},{"time":112551.73675000231,"duration":108.0827500000014,"noteNumber":69,"velocity":97,"programNumber":3},{"time":112664.51875000232,"duration":150.37600000000384,"noteNumber":59,"velocity":96,"programNumber":3},{"time":112777.30075000232,"duration":108.0827500000014,"noteNumber":68,"velocity":103,"programNumber":3},{"time":112890.08275000233,"duration":75.18799999999464,"noteNumber":59,"velocity":91,"programNumber":3},{"time":113002.86475000232,"duration":103.38350000001083,"noteNumber":66,"velocity":101,"programNumber":3},{"time":113007.56400000233,"duration":108.0827500000014,"noteNumber":59,"velocity":88,"programNumber":3},{"time":113115.64675000233,"duration":103.38349999999627,"noteNumber":59,"velocity":101,"programNumber":3},{"time":113228.42875000232,"duration":103.38350000001083,"noteNumber":68,"velocity":101,"programNumber":3},{"time":113233.12800000233,"duration":108.0827500000014,"noteNumber":59,"velocity":97,"programNumber":3},{"time":113341.21075000233,"duration":108.0827500000014,"noteNumber":59,"velocity":99,"programNumber":3},{"time":113453.99275000233,"duration":108.0827500000014,"noteNumber":64,"velocity":104,"programNumber":3},{"time":113566.77475000234,"duration":98.6842500000057,"noteNumber":59,"velocity":102,"programNumber":3},{"time":113679.55675000235,"duration":51.69174999999814,"noteNumber":59,"velocity":96,"programNumber":3},{"time":113679.55675000235,"duration":108.0827500000014,"noteNumber":66,"velocity":105,"programNumber":3},{"time":113905.12075000236,"duration":108.0827500000014,"noteNumber":63,"velocity":103,"programNumber":3},{"time":113792.33875000235,"duration":225.56400000001304,"noteNumber":59,"velocity":102,"programNumber":3},{"time":114017.90275000237,"duration":108.0827500000014,"noteNumber":59,"velocity":97,"programNumber":3},{"time":114130.68475000237,"duration":108.0827500000014,"noteNumber":64,"velocity":101,"programNumber":3},{"time":114130.68475000237,"duration":112.78200000000652,"noteNumber":59,"velocity":96,"programNumber":3},{"time":114243.46675000238,"duration":108.0827500000014,"noteNumber":59,"velocity":101,"programNumber":3},{"time":114356.24875000239,"duration":108.0827500000014,"noteNumber":63,"velocity":97,"programNumber":3},{"time":114469.03075000239,"duration":150.37600000000384,"noteNumber":59,"velocity":97,"programNumber":3},{"time":114581.8127500024,"duration":108.0827500000014,"noteNumber":64,"velocity":102,"programNumber":3},{"time":114694.5947500024,"duration":4.699250000005122,"noteNumber":59,"velocity":101,"programNumber":3},{"time":114699.29400000241,"duration":70.48875000000407,"noteNumber":59,"velocity":90,"programNumber":3},{"time":114807.37675000241,"duration":108.0827500000014,"noteNumber":63,"velocity":92,"programNumber":3},{"time":114807.37675000241,"duration":112.78200000000652,"noteNumber":59,"velocity":88,"programNumber":3},{"time":114920.15875000242,"duration":108.0827500000014,"noteNumber":59,"velocity":99,"programNumber":3},{"time":115032.94075000242,"duration":108.0827500000014,"noteNumber":64,"velocity":102,"programNumber":3},{"time":115032.94075000242,"duration":112.78200000000652,"noteNumber":59,"velocity":97,"programNumber":3},{"time":115145.72275000243,"duration":108.0827500000014,"noteNumber":59,"velocity":104,"programNumber":3},{"time":115258.50475000244,"duration":108.0827500000014,"noteNumber":63,"velocity":105,"programNumber":3},{"time":115371.28675000244,"duration":108.0827500000014,"noteNumber":59,"velocity":99,"programNumber":3},{"time":115488.76800000246,"duration":46.992499999993015,"noteNumber":59,"velocity":96,"programNumber":3},{"time":115484.06875000245,"duration":108.0827500000014,"noteNumber":71,"velocity":106,"programNumber":3},{"time":115596.85075000246,"duration":4.699250000005122,"noteNumber":59,"velocity":101,"programNumber":3},{"time":115709.63275000246,"duration":108.0827500000014,"noteNumber":69,"velocity":104,"programNumber":3},{"time":115601.55000000246,"duration":220.86475000000792,"noteNumber":59,"velocity":94,"programNumber":3},{"time":115822.41475000247,"duration":108.0827500000014,"noteNumber":59,"velocity":101,"programNumber":3},{"time":115935.19675000248,"duration":108.0827500000014,"noteNumber":68,"velocity":103,"programNumber":3},{"time":115935.19675000248,"duration":112.78200000000652,"noteNumber":59,"velocity":96,"programNumber":3},{"time":116047.97875000248,"duration":108.0827500000014,"noteNumber":59,"velocity":101,"programNumber":3},{"time":116160.76075000249,"duration":108.0827500000014,"noteNumber":69,"velocity":97,"programNumber":3},{"time":116273.5427500025,"duration":108.0827500000014,"noteNumber":59,"velocity":96,"programNumber":3},{"time":116386.3247500025,"duration":108.0827500000014,"noteNumber":68,"velocity":103,"programNumber":3},{"time":116499.10675000251,"duration":4.699250000005122,"noteNumber":59,"velocity":91,"programNumber":3},{"time":116503.80600000251,"duration":70.48875000000407,"noteNumber":59,"velocity":90,"programNumber":3},{"time":116611.88875000252,"duration":108.0827500000014,"noteNumber":66,"velocity":101,"programNumber":3},{"time":116611.88875000252,"duration":112.78200000000652,"noteNumber":59,"velocity":88,"programNumber":3},{"time":116724.67075000252,"duration":108.0827500000014,"noteNumber":59,"velocity":101,"programNumber":3},{"time":116837.45275000253,"duration":108.0827500000014,"noteNumber":68,"velocity":101,"programNumber":3},{"time":116837.45275000253,"duration":112.78200000000652,"noteNumber":59,"velocity":97,"programNumber":3},{"time":116950.23475000254,"duration":108.0827500000014,"noteNumber":59,"velocity":99,"programNumber":3},{"time":117063.01675000254,"duration":108.0827500000014,"noteNumber":64,"velocity":104,"programNumber":3},{"time":117175.79875000255,"duration":108.0827500000014,"noteNumber":59,"velocity":102,"programNumber":3},{"time":117288.58075000255,"duration":51.69174999999814,"noteNumber":59,"velocity":96,"programNumber":3},{"time":117288.58075000255,"duration":108.0827500000014,"noteNumber":66,"velocity":105,"programNumber":3},{"time":117401.36275000256,"duration":4.699250000005122,"noteNumber":59,"velocity":102,"programNumber":3},{"time":117514.14475000257,"duration":108.0827500000014,"noteNumber":63,"velocity":103,"programNumber":3},{"time":117406.06200000257,"duration":220.86475000000792,"noteNumber":59,"velocity":94,"programNumber":3},{"time":117626.92675000257,"duration":108.0827500000014,"noteNumber":59,"velocity":97,"programNumber":3},{"time":117739.70875000258,"duration":108.0827500000014,"noteNumber":64,"velocity":101,"programNumber":3},{"time":117744.40800000259,"duration":108.0827500000014,"noteNumber":59,"velocity":96,"programNumber":3},{"time":117852.49075000259,"duration":108.0827500000014,"noteNumber":59,"velocity":101,"programNumber":3},{"time":117965.2727500026,"duration":108.0827500000014,"noteNumber":63,"velocity":97,"programNumber":3},{"time":118078.0547500026,"duration":150.37600000000384,"noteNumber":59,"velocity":97,"programNumber":3},{"time":118190.8367500026,"duration":98.68424999999115,"noteNumber":64,"velocity":102,"programNumber":3},{"time":118294.2202500026,"duration":14.097750000000815,"noteNumber":59,"velocity":101,"programNumber":3},{"time":118308.3180000026,"duration":70.48875000000407,"noteNumber":59,"velocity":90,"programNumber":3},{"time":118416.4007500026,"duration":98.6842500000057,"noteNumber":63,"velocity":92,"programNumber":3},{"time":118416.4007500026,"duration":103.38350000001083,"noteNumber":59,"velocity":88,"programNumber":3},{"time":118519.78425000262,"duration":108.0827500000014,"noteNumber":59,"velocity":99,"programNumber":3},{"time":118641.96475000262,"duration":98.6842500000057,"noteNumber":64,"velocity":102,"programNumber":3},{"time":118641.96475000262,"duration":103.38350000001083,"noteNumber":59,"velocity":97,"programNumber":3},{"time":118745.34825000263,"duration":108.0827500000014,"noteNumber":59,"velocity":104,"programNumber":3},{"time":118867.52875000263,"duration":108.0827500000014,"noteNumber":63,"velocity":105,"programNumber":3},{"time":118980.31075000264,"duration":98.6842500000057,"noteNumber":59,"velocity":99,"programNumber":3},{"time":119093.09275000264,"duration":51.69174999999814,"noteNumber":59,"velocity":96,"programNumber":3},{"time":119093.09275000264,"duration":108.0827500000014,"noteNumber":71,"velocity":106,"programNumber":3},{"time":119205.87475000265,"duration":4.699250000005122,"noteNumber":59,"velocity":101,"programNumber":3},{"time":119318.65675000266,"duration":108.0827500000014,"noteNumber":69,"velocity":104,"programNumber":3},{"time":119210.57400000266,"duration":220.86475000000792,"noteNumber":59,"velocity":94,"programNumber":3},{"time":119431.43875000266,"duration":103.38349999999627,"noteNumber":59,"velocity":101,"programNumber":3},{"time":119544.22075000266,"duration":108.0827500000014,"noteNumber":68,"velocity":103,"programNumber":3},{"time":119544.22075000266,"duration":112.78200000000652,"noteNumber":59,"velocity":96,"programNumber":3},{"time":119657.00275000266,"duration":108.0827500000014,"noteNumber":59,"velocity":101,"programNumber":3},{"time":119769.78475000267,"duration":108.0827500000014,"noteNumber":69,"velocity":97,"programNumber":3},{"time":119882.56675000268,"duration":108.0827500000014,"noteNumber":59,"velocity":96,"programNumber":3},{"time":119995.34875000268,"duration":98.6842500000057,"noteNumber":68,"velocity":103,"programNumber":3},{"time":120108.13075000269,"duration":4.699250000005122,"noteNumber":59,"velocity":91,"programNumber":3},{"time":120112.8300000027,"duration":70.48875000000407,"noteNumber":59,"velocity":90,"programNumber":3},{"time":120220.9127500027,"duration":108.0827500000014,"noteNumber":66,"velocity":101,"programNumber":3},{"time":120220.9127500027,"duration":112.78200000000652,"noteNumber":59,"velocity":88,"programNumber":3},{"time":120333.6947500027,"duration":103.38349999999627,"noteNumber":59,"velocity":101,"programNumber":3},{"time":120446.4767500027,"duration":108.0827500000014,"noteNumber":68,"velocity":101,"programNumber":3},{"time":120446.4767500027,"duration":112.78200000000652,"noteNumber":59,"velocity":97,"programNumber":3},{"time":120559.2587500027,"duration":108.0827500000014,"noteNumber":59,"velocity":99,"programNumber":3},{"time":120672.0407500027,"duration":108.0827500000014,"noteNumber":64,"velocity":104,"programNumber":3},{"time":120784.82275000271,"duration":108.0827500000014,"noteNumber":59,"velocity":102,"programNumber":3},{"time":120897.60475000272,"duration":51.69174999999814,"noteNumber":59,"velocity":96,"programNumber":3},{"time":120897.60475000272,"duration":108.0827500000014,"noteNumber":66,"velocity":105,"programNumber":3},{"time":121010.38675000273,"duration":4.699250000005122,"noteNumber":59,"velocity":102,"programNumber":3},{"time":121123.16875000273,"duration":108.0827500000014,"noteNumber":63,"velocity":103,"programNumber":3},{"time":121015.08600000273,"duration":220.86475000000792,"noteNumber":59,"velocity":94,"programNumber":3},{"time":121235.95075000274,"duration":108.0827500000014,"noteNumber":59,"velocity":97,"programNumber":3},{"time":121348.73275000275,"duration":108.0827500000014,"noteNumber":64,"velocity":101,"programNumber":3},{"time":121348.73275000275,"duration":112.78200000000652,"noteNumber":59,"velocity":96,"programNumber":3},{"time":121461.51475000275,"duration":108.0827500000014,"noteNumber":59,"velocity":101,"programNumber":3},{"time":121574.29675000276,"duration":108.0827500000014,"noteNumber":63,"velocity":97,"programNumber":3},{"time":121687.07875000277,"duration":150.37600000000384,"noteNumber":59,"velocity":97,"programNumber":3},{"time":121799.86075000277,"duration":108.0827500000014,"noteNumber":64,"velocity":102,"programNumber":3},{"time":121912.64275000278,"duration":4.699250000005122,"noteNumber":59,"velocity":101,"programNumber":3},{"time":121917.34200000278,"duration":70.48875000000407,"noteNumber":59,"velocity":90,"programNumber":3},{"time":122025.42475000279,"duration":108.0827500000014,"noteNumber":63,"velocity":92,"programNumber":3},{"time":122025.42475000279,"duration":112.78200000000652,"noteNumber":59,"velocity":88,"programNumber":3},{"time":122138.20675000279,"duration":108.0827500000014,"noteNumber":59,"velocity":99,"programNumber":3},{"time":122250.9887500028,"duration":108.0827500000014,"noteNumber":64,"velocity":102,"programNumber":3},{"time":122255.6880000028,"duration":108.0827500000014,"noteNumber":59,"velocity":97,"programNumber":3},{"time":122363.7707500028,"duration":108.0827500000014,"noteNumber":59,"velocity":104,"programNumber":3},{"time":122476.55275000281,"duration":108.0827500000014,"noteNumber":63,"velocity":105,"programNumber":3},{"time":122589.33475000282,"duration":108.0827500000014,"noteNumber":59,"velocity":99,"programNumber":3},{"time":122702.11675000282,"duration":51.69174999999814,"noteNumber":59,"velocity":96,"programNumber":3},{"time":122702.11675000282,"duration":108.0827500000014,"noteNumber":71,"velocity":106,"programNumber":3},{"time":122814.89875000283,"duration":4.699250000005122,"noteNumber":59,"velocity":101,"programNumber":3},{"time":122927.68075000284,"duration":108.0827500000014,"noteNumber":69,"velocity":104,"programNumber":3},{"time":122819.59800000284,"duration":220.86475000000792,"noteNumber":59,"velocity":94,"programNumber":3},{"time":123040.46275000284,"duration":108.0827500000014,"noteNumber":59,"velocity":101,"programNumber":3},{"time":123153.24475000285,"duration":108.0827500000014,"noteNumber":68,"velocity":103,"programNumber":3},{"time":123153.24475000285,"duration":112.78200000000652,"noteNumber":59,"velocity":96,"programNumber":3},{"time":123266.02675000286,"duration":108.0827500000014,"noteNumber":59,"velocity":101,"programNumber":3},{"time":123378.80875000286,"duration":108.0827500000014,"noteNumber":69,"velocity":97,"programNumber":3},{"time":123491.59075000287,"duration":150.37600000000384,"noteNumber":59,"velocity":96,"programNumber":3},{"time":123604.37275000288,"duration":108.0827500000014,"noteNumber":68,"velocity":103,"programNumber":3},{"time":123717.15475000288,"duration":4.699250000005122,"noteNumber":59,"velocity":91,"programNumber":3},{"time":123721.85400000289,"duration":70.48875000000407,"noteNumber":59,"velocity":90,"programNumber":3},{"time":123829.93675000289,"duration":108.0827500000014,"noteNumber":66,"velocity":101,"programNumber":3},{"time":123829.93675000289,"duration":112.78200000000652,"noteNumber":59,"velocity":88,"programNumber":3},{"time":123942.7187500029,"duration":108.0827500000014,"noteNumber":59,"velocity":101,"programNumber":3},{"time":124055.5007500029,"duration":108.0827500000014,"noteNumber":68,"velocity":101,"programNumber":3},{"time":124060.20000000291,"duration":108.0827500000014,"noteNumber":59,"velocity":97,"programNumber":3},{"time":124168.28275000291,"duration":108.0827500000014,"noteNumber":59,"velocity":99,"programNumber":3},{"time":124281.06475000292,"duration":108.0827500000014,"noteNumber":64,"velocity":104,"programNumber":3},{"time":124393.84675000292,"duration":93.98500000000058,"noteNumber":59,"velocity":102,"programNumber":3},{"time":124511.32800000293,"duration":46.992499999993015,"noteNumber":59,"velocity":96,"programNumber":3},{"time":124506.62875000293,"duration":108.0827500000014,"noteNumber":66,"velocity":105,"programNumber":3},{"time":124619.41075000293,"duration":4.699250000005122,"noteNumber":59,"velocity":102,"programNumber":3},{"time":124732.19275000294,"duration":108.0827500000014,"noteNumber":63,"velocity":103,"programNumber":3},{"time":124624.11000000294,"duration":220.86475000000792,"noteNumber":59,"velocity":94,"programNumber":3},{"time":124844.97475000295,"duration":93.98500000000058,"noteNumber":59,"velocity":97,"programNumber":3},{"time":124957.75675000295,"duration":98.6842500000057,"noteNumber":64,"velocity":101,"programNumber":3},{"time":124957.75675000295,"duration":103.38350000001083,"noteNumber":59,"velocity":96,"programNumber":3},{"time":125061.14025000297,"duration":117.48124999999709,"noteNumber":59,"velocity":101,"programNumber":3},{"time":125183.32075000297,"duration":98.6842500000057,"noteNumber":63,"velocity":97,"programNumber":3},{"time":125286.70425000298,"duration":9.398499999995693,"noteNumber":59,"velocity":97,"programNumber":3},{"time":125296.10275000297,"duration":150.37600000000384,"noteNumber":59,"velocity":94,"programNumber":3},{"time":125408.88475000298,"duration":98.68424999999115,"noteNumber":64,"velocity":102,"programNumber":3},{"time":125512.26825000298,"duration":14.097750000000815,"noteNumber":59,"velocity":101,"programNumber":3},{"time":125526.36600000298,"duration":70.48875000000407,"noteNumber":59,"velocity":90,"programNumber":3},{"time":125634.44875000298,"duration":93.98500000000058,"noteNumber":63,"velocity":92,"programNumber":3},{"time":125634.44875000298,"duration":98.6842500000057,"noteNumber":59,"velocity":88,"programNumber":3},{"time":125733.13300000298,"duration":122.18050000000221,"noteNumber":59,"velocity":99,"programNumber":3},{"time":125860.01275000299,"duration":93.98500000000058,"noteNumber":64,"velocity":102,"programNumber":3},{"time":125860.01275000299,"duration":98.6842500000057,"noteNumber":59,"velocity":97,"programNumber":3},{"time":125958.697000003,"duration":112.78200000000652,"noteNumber":59,"velocity":104,"programNumber":3},{"time":126085.576750003,"duration":108.0827500000014,"noteNumber":63,"velocity":105,"programNumber":3},{"time":126198.35875000301,"duration":108.0827500000014,"noteNumber":59,"velocity":99,"programNumber":3},{"time":126311.14075000302,"duration":51.69174999999814,"noteNumber":59,"velocity":96,"programNumber":3},{"time":126311.14075000302,"duration":108.0827500000014,"noteNumber":71,"velocity":106,"programNumber":3},{"time":126536.70475000303,"duration":108.0827500000014,"noteNumber":69,"velocity":104,"programNumber":3},{"time":126423.92275000302,"duration":225.56400000001304,"noteNumber":59,"velocity":101,"programNumber":3},{"time":126649.48675000304,"duration":108.0827500000014,"noteNumber":59,"velocity":101,"programNumber":3},{"time":126762.26875000304,"duration":108.0827500000014,"noteNumber":68,"velocity":103,"programNumber":3},{"time":126762.26875000304,"duration":112.78200000000652,"noteNumber":59,"velocity":96,"programNumber":3},{"time":126875.05075000305,"duration":108.0827500000014,"noteNumber":59,"velocity":101,"programNumber":3},{"time":126987.83275000306,"duration":98.6842500000057,"noteNumber":69,"velocity":97,"programNumber":3},{"time":127091.21625000307,"duration":9.398499999995693,"noteNumber":59,"velocity":96,"programNumber":3},{"time":127100.61475000306,"duration":150.37600000000384,"noteNumber":59,"velocity":94,"programNumber":3},{"time":127213.39675000307,"duration":108.0827500000014,"noteNumber":68,"velocity":103,"programNumber":3},{"time":127326.17875000308,"duration":4.699250000005122,"noteNumber":59,"velocity":91,"programNumber":3},{"time":127330.87800000308,"duration":70.48875000000407,"noteNumber":59,"velocity":90,"programNumber":3},{"time":127438.96075000308,"duration":108.0827500000014,"noteNumber":66,"velocity":101,"programNumber":3},{"time":127438.96075000308,"duration":112.78200000000652,"noteNumber":59,"velocity":88,"programNumber":3},{"time":127551.74275000309,"duration":108.0827500000014,"noteNumber":59,"velocity":101,"programNumber":3},{"time":127664.5247500031,"duration":108.0827500000014,"noteNumber":68,"velocity":101,"programNumber":3},{"time":127664.5247500031,"duration":112.78200000000652,"noteNumber":59,"velocity":97,"programNumber":3},{"time":127777.3067500031,"duration":108.0827500000014,"noteNumber":59,"velocity":99,"programNumber":3},{"time":127890.08875000311,"duration":108.0827500000014,"noteNumber":64,"velocity":104,"programNumber":3},{"time":128002.87075000312,"duration":108.0827500000014,"noteNumber":59,"velocity":102,"programNumber":3},{"time":128120.35200000313,"duration":42.293250000002445,"noteNumber":59,"velocity":96,"programNumber":3},{"time":128115.65275000312,"duration":98.6842500000057,"noteNumber":66,"velocity":105,"programNumber":3},{"time":128219.03625000313,"duration":14.097750000000815,"noteNumber":59,"velocity":102,"programNumber":3},{"time":128341.21675000314,"duration":108.0827500000014,"noteNumber":63,"velocity":103,"programNumber":3},{"time":128233.13400000313,"duration":220.86475000000792,"noteNumber":59,"velocity":94,"programNumber":3},{"time":128453.99875000314,"duration":98.6842500000057,"noteNumber":59,"velocity":97,"programNumber":3},{"time":128566.78075000315,"duration":108.0827500000014,"noteNumber":64,"velocity":101,"programNumber":3},{"time":128566.78075000315,"duration":112.78200000000652,"noteNumber":59,"velocity":96,"programNumber":3},{"time":128679.56275000316,"duration":108.0827500000014,"noteNumber":59,"velocity":101,"programNumber":3},{"time":128792.34475000316,"duration":108.0827500000014,"noteNumber":63,"velocity":97,"programNumber":3},{"time":128905.12675000317,"duration":150.37600000000384,"noteNumber":59,"velocity":97,"programNumber":3},{"time":129017.90875000317,"duration":108.0827500000014,"noteNumber":64,"velocity":102,"programNumber":3},{"time":129130.69075000318,"duration":4.699250000005122,"noteNumber":59,"velocity":101,"programNumber":3},{"time":129135.39000000319,"duration":70.48875000000407,"noteNumber":59,"velocity":90,"programNumber":3},{"time":129243.47275000319,"duration":98.6842500000057,"noteNumber":63,"velocity":92,"programNumber":3},{"time":129243.47275000319,"duration":103.38350000001083,"noteNumber":59,"velocity":88,"programNumber":3},{"time":129346.8562500032,"duration":117.48124999999709,"noteNumber":59,"velocity":99,"programNumber":3},{"time":129469.0367500032,"duration":108.0827500000014,"noteNumber":64,"velocity":102,"programNumber":3},{"time":129473.7360000032,"duration":108.0827500000014,"noteNumber":59,"velocity":97,"programNumber":3},{"time":129581.8187500032,"duration":108.0827500000014,"noteNumber":59,"velocity":104,"programNumber":3},{"time":129694.60075000321,"duration":108.0827500000014,"noteNumber":63,"velocity":105,"programNumber":3},{"time":129807.38275000322,"duration":93.98500000000058,"noteNumber":59,"velocity":99,"programNumber":3},{"time":129920.16475000323,"duration":51.69174999999814,"noteNumber":59,"velocity":96,"programNumber":3},{"time":129920.16475000323,"duration":98.68424999999115,"noteNumber":71,"velocity":106,"programNumber":3},{"time":130145.72875000323,"duration":108.0827500000014,"noteNumber":69,"velocity":104,"programNumber":3},{"time":130032.94675000322,"duration":225.56400000001304,"noteNumber":59,"velocity":101,"programNumber":3},{"time":130258.51075000323,"duration":108.0827500000014,"noteNumber":59,"velocity":101,"programNumber":3},{"time":130371.29275000324,"duration":108.0827500000014,"noteNumber":68,"velocity":103,"programNumber":3},{"time":130371.29275000324,"duration":112.78200000000652,"noteNumber":59,"velocity":96,"programNumber":3},{"time":130484.07475000324,"duration":108.0827500000014,"noteNumber":59,"velocity":101,"programNumber":3},{"time":130596.85675000325,"duration":108.0827500000014,"noteNumber":69,"velocity":97,"programNumber":3},{"time":130709.63875000326,"duration":150.37600000000384,"noteNumber":59,"velocity":96,"programNumber":3},{"time":130822.42075000326,"duration":108.0827500000014,"noteNumber":68,"velocity":103,"programNumber":3},{"time":130935.20275000327,"duration":4.699250000005122,"noteNumber":59,"velocity":91,"programNumber":3},{"time":130939.90200000328,"duration":70.48875000000407,"noteNumber":59,"velocity":90,"programNumber":3},{"time":131047.98475000328,"duration":93.98500000000058,"noteNumber":66,"velocity":101,"programNumber":3},{"time":131047.98475000328,"duration":103.38350000001083,"noteNumber":59,"velocity":88,"programNumber":3},{"time":131151.3682500033,"duration":117.48125000001164,"noteNumber":59,"velocity":101,"programNumber":3},{"time":131273.5487500033,"duration":93.98499999998603,"noteNumber":68,"velocity":101,"programNumber":3},{"time":131273.5487500033,"duration":103.38349999999627,"noteNumber":59,"velocity":97,"programNumber":3},{"time":131376.9322500033,"duration":117.48125000001164,"noteNumber":59,"velocity":99,"programNumber":3},{"time":131499.11275000332,"duration":98.68424999999115,"noteNumber":64,"velocity":104,"programNumber":3},{"time":131611.8947500033,"duration":98.68424999999115,"noteNumber":59,"velocity":102,"programNumber":3},{"time":131729.37600000328,"duration":46.992499999993015,"noteNumber":59,"velocity":96,"programNumber":3},{"time":131724.67675000327,"duration":98.68424999999115,"noteNumber":66,"velocity":105,"programNumber":3},{"time":131837.45875000325,"duration":4.699250000005122,"noteNumber":59,"velocity":102,"programNumber":3},{"time":131950.24075000326,"duration":98.68424999999115,"noteNumber":63,"velocity":103,"programNumber":3},{"time":131842.15800000326,"duration":220.8647499999788,"noteNumber":59,"velocity":94,"programNumber":3},{"time":132063.02275000323,"duration":93.98499999998603,"noteNumber":59,"velocity":97,"programNumber":3},{"time":132175.8047500032,"duration":108.0827500000014,"noteNumber":64,"velocity":101,"programNumber":3},{"time":132175.8047500032,"duration":112.78200000000652,"noteNumber":59,"velocity":96,"programNumber":3},{"time":132288.58675000322,"duration":103.38349999999627,"noteNumber":59,"velocity":101,"programNumber":3},{"time":132401.36875000322,"duration":108.0827500000014,"noteNumber":63,"velocity":97,"programNumber":3},{"time":132514.15075000323,"duration":103.38349999999627,"noteNumber":59,"velocity":97,"programNumber":3},{"time":132626.93275000324,"duration":103.38349999999627,"noteNumber":64,"velocity":102,"programNumber":3},{"time":132739.71475000324,"duration":4.699250000005122,"noteNumber":59,"velocity":101,"programNumber":3},{"time":132744.41400000325,"duration":70.48874999998952,"noteNumber":59,"velocity":90,"programNumber":3},{"time":132852.49675000325,"duration":103.38349999999627,"noteNumber":63,"velocity":92,"programNumber":3},{"time":132852.49675000325,"duration":112.78200000000652,"noteNumber":59,"velocity":88,"programNumber":3},{"time":132965.27875000326,"duration":108.0827500000014,"noteNumber":59,"velocity":99,"programNumber":3},{"time":133078.06075000326,"duration":108.0827500000014,"noteNumber":64,"velocity":102,"programNumber":3},{"time":133078.06075000326,"duration":112.78200000000652,"noteNumber":59,"velocity":97,"programNumber":3},{"time":133190.84275000327,"duration":108.0827500000014,"noteNumber":59,"velocity":104,"programNumber":3},{"time":133303.62475000328,"duration":108.0827500000014,"noteNumber":63,"velocity":105,"programNumber":3},{"time":133416.40675000328,"duration":108.0827500000014,"noteNumber":59,"velocity":99,"programNumber":3},{"time":133529.1887500033,"duration":51.69174999999814,"noteNumber":59,"velocity":96,"programNumber":3},{"time":133529.1887500033,"duration":108.0827500000014,"noteNumber":71,"velocity":106,"programNumber":3},{"time":133641.9707500033,"duration":4.699250000005122,"noteNumber":59,"velocity":101,"programNumber":3},{"time":133754.7527500033,"duration":108.0827500000014,"noteNumber":69,"velocity":104,"programNumber":3},{"time":133646.6700000033,"duration":220.86475000000792,"noteNumber":59,"velocity":94,"programNumber":3},{"time":133867.5347500033,"duration":108.0827500000014,"noteNumber":59,"velocity":101,"programNumber":3},{"time":133980.31675000332,"duration":108.0827500000014,"noteNumber":68,"velocity":103,"programNumber":3},{"time":133980.31675000332,"duration":112.78200000000652,"noteNumber":59,"velocity":96,"programNumber":3},{"time":134093.09875000332,"duration":108.0827500000014,"noteNumber":59,"velocity":101,"programNumber":3},{"time":134205.88075000333,"duration":108.0827500000014,"noteNumber":69,"velocity":97,"programNumber":3},{"time":134318.66275000334,"duration":150.3760000000184,"noteNumber":59,"velocity":96,"programNumber":3},{"time":134431.44475000334,"duration":108.0827500000014,"noteNumber":68,"velocity":103,"programNumber":3},{"time":134544.22675000335,"duration":4.699250000005122,"noteNumber":59,"velocity":91,"programNumber":3},{"time":134548.92600000335,"duration":70.48874999998952,"noteNumber":59,"velocity":90,"programNumber":3},{"time":134657.00875000336,"duration":108.0827500000014,"noteNumber":66,"velocity":101,"programNumber":3},{"time":134657.00875000336,"duration":112.78200000000652,"noteNumber":59,"velocity":88,"programNumber":3},{"time":134769.79075000336,"duration":108.0827500000014,"noteNumber":59,"velocity":101,"programNumber":3},{"time":134882.57275000337,"duration":108.0827500000014,"noteNumber":68,"velocity":101,"programNumber":3},{"time":134887.27200000337,"duration":108.0827500000014,"noteNumber":59,"velocity":97,"programNumber":3},{"time":134995.35475000337,"duration":108.0827500000014,"noteNumber":59,"velocity":99,"programNumber":3},{"time":135108.13675000338,"duration":108.0827500000014,"noteNumber":64,"velocity":104,"programNumber":3},{"time":135220.9187500034,"duration":108.0827500000014,"noteNumber":59,"velocity":102,"programNumber":3},{"time":135333.7007500034,"duration":51.69174999999814,"noteNumber":59,"velocity":96,"programNumber":3},{"time":135333.7007500034,"duration":108.0827500000014,"noteNumber":66,"velocity":105,"programNumber":3},{"time":135559.2647500034,"duration":108.0827500000014,"noteNumber":63,"velocity":103,"programNumber":3},{"time":135446.4827500034,"duration":225.56400000001304,"noteNumber":59,"velocity":102,"programNumber":3},{"time":135672.0467500034,"duration":108.0827500000014,"noteNumber":59,"velocity":97,"programNumber":3},{"time":135784.82875000342,"duration":108.0827500000014,"noteNumber":64,"velocity":101,"programNumber":3},{"time":135784.82875000342,"duration":112.78200000000652,"noteNumber":59,"velocity":96,"programNumber":3},{"time":135897.61075000343,"duration":108.0827500000014,"noteNumber":59,"velocity":101,"programNumber":3},{"time":136010.39275000343,"duration":108.0827500000014,"noteNumber":63,"velocity":97,"programNumber":3},{"time":136123.17475000344,"duration":150.3760000000184,"noteNumber":59,"velocity":97,"programNumber":3},{"time":136235.95675000345,"duration":108.0827500000014,"noteNumber":64,"velocity":102,"programNumber":3},{"time":136348.73875000345,"duration":4.699250000005122,"noteNumber":59,"velocity":101,"programNumber":3},{"time":136353.43800000346,"duration":70.48874999998952,"noteNumber":59,"velocity":90,"programNumber":3},{"time":136461.52075000346,"duration":108.0827500000014,"noteNumber":63,"velocity":92,"programNumber":3},{"time":136461.52075000346,"duration":112.78200000000652,"noteNumber":59,"velocity":88,"programNumber":3},{"time":136574.30275000347,"duration":108.0827500000014,"noteNumber":59,"velocity":99,"programNumber":3},{"time":136687.08475000347,"duration":98.68424999999115,"noteNumber":64,"velocity":102,"programNumber":3},{"time":136687.08475000347,"duration":103.38349999999627,"noteNumber":59,"velocity":97,"programNumber":3},{"time":136790.46825000347,"duration":117.48125000001164,"noteNumber":59,"velocity":104,"programNumber":3},{"time":136912.6487500035,"duration":108.0827500000014,"noteNumber":63,"velocity":105,"programNumber":3},{"time":137025.4307500035,"duration":108.0827500000014,"noteNumber":59,"velocity":99,"programNumber":3},{"time":137142.9120000035,"duration":46.992499999993015,"noteNumber":59,"velocity":96,"programNumber":3},{"time":137138.2127500035,"duration":108.0827500000014,"noteNumber":71,"velocity":106,"programNumber":3},{"time":137250.9947500035,"duration":4.699250000005122,"noteNumber":59,"velocity":101,"programNumber":3},{"time":137363.7767500035,"duration":108.0827500000014,"noteNumber":69,"velocity":104,"programNumber":3},{"time":137255.6940000035,"duration":220.86475000000792,"noteNumber":59,"velocity":94,"programNumber":3},{"time":137476.55875000352,"duration":108.0827500000014,"noteNumber":59,"velocity":101,"programNumber":3},{"time":137589.34075000352,"duration":108.0827500000014,"noteNumber":68,"velocity":103,"programNumber":3},{"time":137589.34075000352,"duration":112.78200000000652,"noteNumber":59,"velocity":96,"programNumber":3},{"time":137702.12275000353,"duration":98.68424999999115,"noteNumber":59,"velocity":101,"programNumber":3},{"time":137814.9047500035,"duration":108.0827500000014,"noteNumber":69,"velocity":97,"programNumber":3},{"time":137927.68675000352,"duration":150.3760000000184,"noteNumber":59,"velocity":96,"programNumber":3},{"time":138040.46875000352,"duration":108.0827500000014,"noteNumber":68,"velocity":103,"programNumber":3},{"time":138153.25075000353,"duration":4.699250000005122,"noteNumber":59,"velocity":91,"programNumber":3},{"time":138157.95000000353,"duration":70.48874999998952,"noteNumber":59,"velocity":90,"programNumber":3},{"time":138266.03275000353,"duration":108.0827500000014,"noteNumber":66,"velocity":101,"programNumber":3},{"time":138266.03275000353,"duration":112.78200000000652,"noteNumber":59,"velocity":88,"programNumber":3},{"time":138378.81475000354,"duration":108.0827500000014,"noteNumber":59,"velocity":101,"programNumber":3},{"time":138491.59675000355,"duration":98.68424999999115,"noteNumber":68,"velocity":101,"programNumber":3},{"time":138496.29600000355,"duration":108.0827499999723,"noteNumber":59,"velocity":97,"programNumber":3},{"time":138604.37875000353,"duration":108.0827500000014,"noteNumber":59,"velocity":99,"programNumber":3},{"time":138717.16075000353,"duration":108.0827500000014,"noteNumber":64,"velocity":104,"programNumber":3},{"time":138829.94275000354,"duration":108.0827500000014,"noteNumber":59,"velocity":102,"programNumber":3},{"time":138947.42400000355,"duration":46.992499999993015,"noteNumber":59,"velocity":96,"programNumber":3},{"time":138942.72475000354,"duration":103.38349999999627,"noteNumber":66,"velocity":105,"programNumber":3},{"time":139055.50675000355,"duration":4.699250000005122,"noteNumber":59,"velocity":102,"programNumber":3},{"time":139168.28875000356,"duration":103.38349999999627,"noteNumber":63,"velocity":103,"programNumber":3},{"time":139060.20600000356,"duration":220.86475000000792,"noteNumber":59,"velocity":94,"programNumber":3},{"time":139281.07075000356,"duration":108.0827500000014,"noteNumber":59,"velocity":97,"programNumber":3},{"time":139393.85275000357,"duration":108.0827500000014,"noteNumber":64,"velocity":101,"programNumber":3},{"time":139393.85275000357,"duration":112.78200000000652,"noteNumber":59,"velocity":96,"programNumber":3},{"time":139506.63475000358,"duration":108.0827500000014,"noteNumber":59,"velocity":101,"programNumber":3},{"time":139619.41675000358,"duration":103.38349999999627,"noteNumber":63,"velocity":97,"programNumber":3},{"time":139732.1987500036,"duration":150.3760000000184,"noteNumber":59,"velocity":97,"programNumber":3},{"time":139844.9807500036,"duration":108.0827500000014,"noteNumber":64,"velocity":102,"programNumber":3},{"time":139957.7627500036,"duration":4.699250000005122,"noteNumber":59,"velocity":101,"programNumber":3},{"time":139962.4620000036,"duration":70.48874999998952,"noteNumber":59,"velocity":90,"programNumber":3},{"time":140070.5447500036,"duration":108.0827500000014,"noteNumber":63,"velocity":92,"programNumber":3},{"time":140070.5447500036,"duration":112.78200000000652,"noteNumber":59,"velocity":88,"programNumber":3},{"time":140183.32675000362,"duration":108.0827500000014,"noteNumber":59,"velocity":99,"programNumber":3},{"time":140296.10875000362,"duration":108.0827500000014,"noteNumber":64,"velocity":102,"programNumber":3},{"time":140296.10875000362,"duration":112.78200000000652,"noteNumber":59,"velocity":97,"programNumber":3},{"time":140408.89075000363,"duration":108.0827500000014,"noteNumber":59,"velocity":104,"programNumber":3},{"time":140521.67275000364,"duration":108.0827500000014,"noteNumber":63,"velocity":105,"programNumber":3},{"time":140634.45475000364,"duration":108.0827500000014,"noteNumber":59,"velocity":99,"programNumber":3},{"time":140747.23675000365,"duration":51.69174999999814,"noteNumber":59,"velocity":96,"programNumber":3},{"time":140747.23675000365,"duration":108.0827500000014,"noteNumber":71,"velocity":106,"programNumber":3},{"time":140972.80075000366,"duration":108.0827500000014,"noteNumber":69,"velocity":104,"programNumber":3},{"time":140860.01875000366,"duration":225.56400000001304,"noteNumber":59,"velocity":101,"programNumber":3},{"time":141085.58275000367,"duration":108.0827500000014,"noteNumber":59,"velocity":101,"programNumber":3},{"time":141198.36475000367,"duration":108.0827500000014,"noteNumber":68,"velocity":103,"programNumber":3},{"time":141203.06400000368,"duration":108.0827500000014,"noteNumber":59,"velocity":96,"programNumber":3},{"time":141311.14675000368,"duration":108.0827500000014,"noteNumber":59,"velocity":101,"programNumber":3},{"time":141423.9287500037,"duration":108.0827500000014,"noteNumber":69,"velocity":97,"programNumber":3},{"time":141536.7107500037,"duration":108.0827500000014,"noteNumber":59,"velocity":96,"programNumber":3},{"time":141649.4927500037,"duration":108.0827500000014,"noteNumber":68,"velocity":103,"programNumber":3},{"time":141762.2747500037,"duration":4.699250000005122,"noteNumber":59,"velocity":91,"programNumber":3},{"time":141766.9740000037,"duration":70.48874999998952,"noteNumber":59,"velocity":90,"programNumber":3},{"time":141875.0567500037,"duration":108.0827500000014,"noteNumber":66,"velocity":101,"programNumber":3},{"time":141875.0567500037,"duration":112.78200000000652,"noteNumber":59,"velocity":88,"programNumber":3},{"time":141987.83875000372,"duration":108.0827500000014,"noteNumber":59,"velocity":101,"programNumber":3},{"time":142100.62075000373,"duration":108.0827500000014,"noteNumber":68,"velocity":101,"programNumber":3},{"time":142100.62075000373,"duration":112.78200000000652,"noteNumber":59,"velocity":97,"programNumber":3},{"time":142213.40275000373,"duration":108.0827500000014,"noteNumber":59,"velocity":99,"programNumber":3},{"time":142326.18475000374,"duration":108.0827500000014,"noteNumber":64,"velocity":104,"programNumber":3},{"time":142438.96675000375,"duration":108.0827500000014,"noteNumber":59,"velocity":102,"programNumber":3},{"time":142551.74875000375,"duration":51.69174999999814,"noteNumber":59,"velocity":96,"programNumber":3},{"time":142551.74875000375,"duration":108.0827500000014,"noteNumber":66,"velocity":105,"programNumber":3},{"time":142664.53075000376,"duration":4.699250000005122,"noteNumber":59,"velocity":102,"programNumber":3},{"time":142777.31275000377,"duration":108.0827500000014,"noteNumber":63,"velocity":103,"programNumber":3},{"time":142669.23000000376,"duration":220.86475000000792,"noteNumber":59,"velocity":94,"programNumber":3},{"time":142890.09475000377,"duration":108.0827500000014,"noteNumber":59,"velocity":97,"programNumber":3},{"time":143002.87675000378,"duration":108.0827500000014,"noteNumber":64,"velocity":101,"programNumber":3},{"time":143002.87675000378,"duration":112.78200000000652,"noteNumber":59,"velocity":96,"programNumber":3},{"time":143115.6587500038,"duration":108.0827500000014,"noteNumber":59,"velocity":101,"programNumber":3},{"time":143228.4407500038,"duration":108.0827500000014,"noteNumber":63,"velocity":97,"programNumber":3},{"time":143341.2227500038,"duration":150.3760000000184,"noteNumber":59,"velocity":97,"programNumber":3},{"time":143454.0047500038,"duration":108.0827500000014,"noteNumber":64,"velocity":102,"programNumber":3},{"time":143566.7867500038,"duration":4.699250000005122,"noteNumber":59,"velocity":101,"programNumber":3},{"time":143571.48600000382,"duration":70.48874999998952,"noteNumber":59,"velocity":90,"programNumber":3},{"time":143679.56875000382,"duration":108.0827500000014,"noteNumber":63,"velocity":92,"programNumber":3},{"time":143679.56875000382,"duration":112.78200000000652,"noteNumber":59,"velocity":88,"programNumber":3},{"time":143792.35075000382,"duration":108.0827500000014,"noteNumber":59,"velocity":99,"programNumber":3},{"time":143905.13275000383,"duration":108.0827500000014,"noteNumber":64,"velocity":102,"programNumber":3},{"time":143909.83200000384,"duration":108.0827500000014,"noteNumber":59,"velocity":97,"programNumber":3},{"time":144017.91475000384,"duration":108.0827500000014,"noteNumber":59,"velocity":104,"programNumber":3},{"time":144130.69675000384,"duration":108.0827500000014,"noteNumber":63,"velocity":105,"programNumber":3},{"time":144243.47875000385,"duration":108.0827500000014,"noteNumber":59,"velocity":99,"programNumber":3},{"time":144360.96000000386,"duration":37.594000000011874,"noteNumber":59,"velocity":96,"programNumber":3},{"time":144356.26075000386,"duration":108.0827500000305,"noteNumber":71,"velocity":106,"programNumber":3},{"time":144469.0427500039,"duration":4.699250000005122,"noteNumber":59,"velocity":101,"programNumber":3},{"time":144581.8247500039,"duration":108.0827500000014,"noteNumber":69,"velocity":104,"programNumber":3},{"time":144473.7420000039,"duration":220.86475000000792,"noteNumber":59,"velocity":94,"programNumber":3},{"time":144694.6067500039,"duration":98.68424999999115,"noteNumber":59,"velocity":101,"programNumber":3},{"time":144807.38875000388,"duration":93.98499999998603,"noteNumber":68,"velocity":103,"programNumber":3},{"time":144807.38875000388,"duration":98.68424999999115,"noteNumber":59,"velocity":96,"programNumber":3},{"time":144906.07300000387,"duration":112.78200000000652,"noteNumber":59,"velocity":101,"programNumber":3},{"time":145032.95275000387,"duration":93.98499999998603,"noteNumber":69,"velocity":97,"programNumber":3},{"time":145131.63700000386,"duration":14.097749999986263,"noteNumber":59,"velocity":96,"programNumber":3},{"time":145145.73475000384,"duration":150.3760000000184,"noteNumber":59,"velocity":94,"programNumber":3},{"time":145258.51675000385,"duration":98.68425000002026,"noteNumber":68,"velocity":103,"programNumber":3},{"time":145361.90025000388,"duration":14.097749999986263,"noteNumber":59,"velocity":91,"programNumber":3},{"time":145375.99800000386,"duration":70.48874999998952,"noteNumber":59,"velocity":90,"programNumber":3},{"time":145484.08075000386,"duration":108.0827500000014,"noteNumber":66,"velocity":101,"programNumber":3},{"time":145484.08075000386,"duration":112.78200000000652,"noteNumber":59,"velocity":88,"programNumber":3},{"time":145596.86275000387,"duration":108.0827500000014,"noteNumber":59,"velocity":101,"programNumber":3},{"time":145709.64475000388,"duration":108.0827500000014,"noteNumber":68,"velocity":101,"programNumber":3},{"time":145714.34400000388,"duration":108.0827500000014,"noteNumber":59,"velocity":97,"programNumber":3},{"time":145822.42675000388,"duration":108.0827500000014,"noteNumber":59,"velocity":99,"programNumber":3},{"time":145935.2087500039,"duration":108.0827500000014,"noteNumber":64,"velocity":104,"programNumber":3},{"time":146047.9907500039,"duration":93.98499999998603,"noteNumber":59,"velocity":102,"programNumber":3},{"time":146165.47200000388,"duration":46.992499999993015,"noteNumber":59,"velocity":96,"programNumber":3},{"time":146160.77275000387,"duration":108.0827500000014,"noteNumber":66,"velocity":105,"programNumber":3},{"time":146386.3367500039,"duration":108.0827500000014,"noteNumber":63,"velocity":103,"programNumber":3},{"time":146273.55475000388,"duration":225.56400000001304,"noteNumber":59,"velocity":102,"programNumber":3},{"time":146499.1187500039,"duration":108.0827500000014,"noteNumber":59,"velocity":97,"programNumber":3},{"time":146611.9007500039,"duration":108.0827500000014,"noteNumber":64,"velocity":101,"programNumber":3},{"time":146611.9007500039,"duration":112.78200000000652,"noteNumber":59,"velocity":96,"programNumber":3},{"time":146724.6827500039,"duration":108.0827500000014,"noteNumber":59,"velocity":101,"programNumber":3},{"time":146837.4647500039,"duration":98.68424999999115,"noteNumber":63,"velocity":97,"programNumber":3},{"time":146940.8482500039,"duration":9.398500000010245,"noteNumber":59,"velocity":97,"programNumber":3},{"time":146950.24675000392,"duration":150.3760000000184,"noteNumber":59,"velocity":94,"programNumber":3},{"time":147063.02875000393,"duration":108.0827500000014,"noteNumber":64,"velocity":102,"programNumber":3},{"time":147175.81075000393,"duration":4.699250000005122,"noteNumber":59,"velocity":101,"programNumber":3},{"time":147180.51000000394,"duration":70.48874999998952,"noteNumber":59,"velocity":90,"programNumber":3},{"time":147288.59275000394,"duration":108.0827500000014,"noteNumber":63,"velocity":92,"programNumber":3},{"time":147288.59275000394,"duration":112.78200000000652,"noteNumber":59,"velocity":88,"programNumber":3},{"time":147401.37475000395,"duration":108.0827500000014,"noteNumber":59,"velocity":99,"programNumber":3},{"time":147514.15675000395,"duration":108.0827500000014,"noteNumber":64,"velocity":102,"programNumber":3},{"time":147514.15675000395,"duration":112.78200000000652,"noteNumber":59,"velocity":97,"programNumber":3},{"time":147626.93875000396,"duration":108.0827500000014,"noteNumber":59,"velocity":104,"programNumber":3},{"time":147739.72075000397,"duration":108.0827500000014,"noteNumber":63,"velocity":105,"programNumber":3},{"time":147852.50275000397,"duration":108.0827500000014,"noteNumber":59,"velocity":99,"programNumber":3},{"time":147965.28475000398,"duration":108.0827500000014,"noteNumber":71,"velocity":77,"programNumber":3},{"time":147969.98400000398,"duration":108.0827500000014,"noteNumber":59,"velocity":108,"programNumber":3},{"time":148078.06675000399,"duration":108.0827500000014,"noteNumber":59,"velocity":72,"programNumber":3},{"time":148190.848750004,"duration":108.0827500000014,"noteNumber":69,"velocity":75,"programNumber":3},{"time":148303.630750004,"duration":108.0827500000014,"noteNumber":59,"velocity":72,"programNumber":3},{"time":148416.412750004,"duration":108.0827500000014,"noteNumber":68,"velocity":74,"programNumber":3},{"time":148529.194750004,"duration":108.0827500000014,"noteNumber":59,"velocity":72,"programNumber":3},{"time":148641.97675000402,"duration":108.0827500000014,"noteNumber":69,"velocity":68,"programNumber":3},{"time":148754.75875000402,"duration":108.0827500000014,"noteNumber":59,"velocity":67,"programNumber":3},{"time":148867.54075000403,"duration":108.0827500000014,"noteNumber":68,"velocity":74,"programNumber":3},{"time":148980.32275000404,"duration":98.68424999999115,"noteNumber":59,"velocity":62,"programNumber":3},{"time":149083.70625000403,"duration":108.0827500000014,"noteNumber":66,"velocity":72,"programNumber":3},{"time":149196.48825000404,"duration":103.38349999999627,"noteNumber":59,"velocity":72,"programNumber":3},{"time":149318.66875000403,"duration":108.0827500000014,"noteNumber":68,"velocity":72,"programNumber":3},{"time":149431.45075000403,"duration":108.0827500000014,"noteNumber":59,"velocity":70,"programNumber":3},{"time":149544.23275000404,"duration":98.68424999999115,"noteNumber":64,"velocity":75,"programNumber":3},{"time":149647.61625000404,"duration":108.0827500000014,"noteNumber":59,"velocity":73,"programNumber":3},{"time":149769.79675000402,"duration":98.68424999999115,"noteNumber":66,"velocity":80,"programNumber":3},{"time":149873.18025000402,"duration":117.48125000001164,"noteNumber":59,"velocity":77,"programNumber":3},{"time":149995.36075000404,"duration":108.0827500000014,"noteNumber":63,"velocity":78,"programNumber":3},{"time":150108.14275000404,"duration":108.0827500000014,"noteNumber":59,"velocity":72,"programNumber":3},{"time":150220.92475000405,"duration":108.0827500000014,"noteNumber":64,"velocity":76,"programNumber":3},{"time":150333.70675000406,"duration":98.68424999999115,"noteNumber":59,"velocity":76,"programNumber":3},{"time":150437.09025000405,"duration":117.48125000001164,"noteNumber":63,"velocity":72,"programNumber":3},{"time":150559.27075000407,"duration":98.68424999999115,"noteNumber":59,"velocity":72,"programNumber":3},{"time":150672.05275000405,"duration":108.0827500000014,"noteNumber":64,"velocity":77,"programNumber":3},{"time":150784.83475000405,"duration":108.0827500000014,"noteNumber":59,"velocity":76,"programNumber":3},{"time":150897.61675000406,"duration":108.0827500000014,"noteNumber":63,"velocity":67,"programNumber":3},{"time":151010.39875000407,"duration":108.0827500000014,"noteNumber":59,"velocity":74,"programNumber":3},{"time":151123.18075000407,"duration":108.0827500000014,"noteNumber":64,"velocity":77,"programNumber":3},{"time":151235.96275000408,"duration":108.0827500000014,"noteNumber":59,"velocity":79,"programNumber":3},{"time":151348.7447500041,"duration":98.68424999999115,"noteNumber":63,"velocity":80,"programNumber":3},{"time":151461.52675000406,"duration":98.68424999999115,"noteNumber":59,"velocity":74,"programNumber":3},{"time":151574.30875000404,"duration":98.68424999999115,"noteNumber":71,"velocity":77,"programNumber":3},{"time":151579.00800000405,"duration":98.68424999999115,"noteNumber":59,"velocity":108,"programNumber":3},{"time":151677.69225000404,"duration":108.0827500000014,"noteNumber":59,"velocity":72,"programNumber":3},{"time":151790.47425000404,"duration":108.0827500000014,"noteNumber":69,"velocity":75,"programNumber":3},{"time":151912.65475000403,"duration":98.68424999999115,"noteNumber":59,"velocity":72,"programNumber":3},{"time":152025.436750004,"duration":98.68424999999115,"noteNumber":68,"velocity":74,"programNumber":3},{"time":152128.820250004,"duration":108.0827500000014,"noteNumber":59,"velocity":72,"programNumber":3},{"time":152241.602250004,"duration":103.38349999999627,"noteNumber":69,"velocity":68,"programNumber":3},{"time":152354.38425000402,"duration":108.0827500000014,"noteNumber":59,"velocity":67,"programNumber":3},{"time":152476.564750004,"duration":108.0827500000014,"noteNumber":68,"velocity":74,"programNumber":3},{"time":152589.346750004,"duration":108.0827500000014,"noteNumber":59,"velocity":62,"programNumber":3},{"time":152702.12875000402,"duration":108.0827500000014,"noteNumber":66,"velocity":72,"programNumber":3},{"time":152814.91075000403,"duration":103.38349999999627,"noteNumber":59,"velocity":72,"programNumber":3},{"time":152927.69275000403,"duration":108.0827500000014,"noteNumber":68,"velocity":72,"programNumber":3},{"time":153040.47475000404,"duration":93.98499999998603,"noteNumber":59,"velocity":70,"programNumber":3},{"time":153139.15900000403,"duration":112.78200000000652,"noteNumber":64,"velocity":75,"programNumber":3},{"time":153266.03875000402,"duration":108.0827500000014,"noteNumber":59,"velocity":73,"programNumber":3},{"time":153378.82075000403,"duration":98.68424999999115,"noteNumber":66,"velocity":80,"programNumber":3},{"time":153491.602750004,"duration":98.68424999999115,"noteNumber":59,"velocity":77,"programNumber":3},{"time":153604.38475000398,"duration":98.68424999999115,"noteNumber":63,"velocity":78,"programNumber":3},{"time":153717.16675000396,"duration":98.68424999999115,"noteNumber":59,"velocity":72,"programNumber":3},{"time":153829.94875000394,"duration":93.98499999998603,"noteNumber":64,"velocity":76,"programNumber":3},{"time":153942.73075000392,"duration":98.68424999999115,"noteNumber":59,"velocity":76,"programNumber":3},{"time":154055.5127500039,"duration":98.68424999999115,"noteNumber":63,"velocity":72,"programNumber":3},{"time":154168.29475000387,"duration":108.0827500000014,"noteNumber":59,"velocity":72,"programNumber":3},{"time":154281.07675000388,"duration":108.0827500000014,"noteNumber":64,"velocity":77,"programNumber":3},{"time":154393.85875000388,"duration":103.38349999999627,"noteNumber":59,"velocity":76,"programNumber":3},{"time":154506.6407500039,"duration":108.0827500000014,"noteNumber":63,"velocity":67,"programNumber":3},{"time":154619.4227500039,"duration":108.0827500000014,"noteNumber":59,"velocity":74,"programNumber":3},{"time":154732.2047500039,"duration":108.0827500000014,"noteNumber":64,"velocity":77,"programNumber":3},{"time":154844.9867500039,"duration":108.0827500000014,"noteNumber":59,"velocity":79,"programNumber":3},{"time":154957.76875000392,"duration":98.68424999999115,"noteNumber":63,"velocity":80,"programNumber":3},{"time":155070.5507500039,"duration":108.0827500000014,"noteNumber":59,"velocity":74,"programNumber":3},{"time":155188.0320000039,"duration":103.38349999999627,"noteNumber":71,"velocity":77,"programNumber":3},{"time":155188.0320000039,"duration":108.0827500000014,"noteNumber":59,"velocity":108,"programNumber":3},{"time":155296.1147500039,"duration":108.0827500000014,"noteNumber":59,"velocity":72,"programNumber":3},{"time":155408.8967500039,"duration":108.0827500000014,"noteNumber":69,"velocity":75,"programNumber":3},{"time":155521.67875000392,"duration":98.68424999999115,"noteNumber":59,"velocity":72,"programNumber":3},{"time":155634.4607500039,"duration":93.98499999998603,"noteNumber":68,"velocity":74,"programNumber":3},{"time":155737.8442500039,"duration":117.48125000001164,"noteNumber":59,"velocity":72,"programNumber":3},{"time":155860.0247500039,"duration":108.0827500000014,"noteNumber":69,"velocity":68,"programNumber":3},{"time":155972.80675000392,"duration":98.68424999999115,"noteNumber":59,"velocity":67,"programNumber":3},{"time":156085.5887500039,"duration":108.0827500000014,"noteNumber":68,"velocity":74,"programNumber":3},{"time":156198.3707500039,"duration":108.0827500000014,"noteNumber":59,"velocity":62,"programNumber":3},{"time":156311.1527500039,"duration":103.38349999999627,"noteNumber":66,"velocity":72,"programNumber":3},{"time":156423.93475000391,"duration":108.0827500000014,"noteNumber":59,"velocity":72,"programNumber":3},{"time":156536.71675000392,"duration":103.38349999999627,"noteNumber":68,"velocity":72,"programNumber":3},{"time":156649.49875000393,"duration":103.38349999999627,"noteNumber":59,"velocity":70,"programNumber":3},{"time":156762.28075000393,"duration":103.38349999999627,"noteNumber":64,"velocity":75,"programNumber":3},{"time":156875.06275000394,"duration":108.0827500000014,"noteNumber":59,"velocity":73,"programNumber":3},{"time":156987.84475000395,"duration":108.0827500000014,"noteNumber":66,"velocity":80,"programNumber":3},{"time":157100.62675000395,"duration":98.68424999999115,"noteNumber":59,"velocity":77,"programNumber":3},{"time":157213.40875000393,"duration":98.68424999999115,"noteNumber":63,"velocity":78,"programNumber":3},{"time":157316.79225000393,"duration":112.78200000000652,"noteNumber":59,"velocity":72,"programNumber":3},{"time":157438.97275000394,"duration":108.0827500000014,"noteNumber":64,"velocity":76,"programNumber":3},{"time":157551.75475000395,"duration":108.0827500000014,"noteNumber":59,"velocity":76,"programNumber":3},{"time":157664.53675000396,"duration":108.0827500000014,"noteNumber":63,"velocity":72,"programNumber":3},{"time":157777.31875000396,"duration":98.68424999999115,"noteNumber":59,"velocity":72,"programNumber":3},{"time":157890.10075000394,"duration":98.68424999999115,"noteNumber":64,"velocity":77,"programNumber":3},{"time":157993.48425000394,"duration":108.0827500000014,"noteNumber":59,"velocity":76,"programNumber":3},{"time":158115.66475000393,"duration":98.68424999999115,"noteNumber":63,"velocity":67,"programNumber":3},{"time":158228.4467500039,"duration":93.98499999998603,"noteNumber":59,"velocity":74,"programNumber":3},{"time":158341.22875000388,"duration":98.68424999999115,"noteNumber":64,"velocity":77,"programNumber":3},{"time":158444.61225000388,"duration":103.38349999999627,"noteNumber":59,"velocity":79,"programNumber":3},{"time":158552.69500000388,"duration":112.78200000000652,"noteNumber":63,"velocity":80,"programNumber":3},{"time":158679.57475000387,"duration":108.0827500000014,"noteNumber":59,"velocity":74,"programNumber":3},{"time":158792.35675000388,"duration":108.0827500000014,"noteNumber":71,"velocity":77,"programNumber":3},{"time":158797.05600000388,"duration":108.0827500000014,"noteNumber":59,"velocity":108,"programNumber":3},{"time":158905.13875000388,"duration":98.68424999999115,"noteNumber":59,"velocity":72,"programNumber":3},{"time":159017.92075000386,"duration":93.98499999998603,"noteNumber":69,"velocity":75,"programNumber":3},{"time":159130.70275000384,"duration":103.38349999999627,"noteNumber":59,"velocity":72,"programNumber":3},{"time":159243.48475000384,"duration":103.38349999999627,"noteNumber":68,"velocity":74,"programNumber":3},{"time":159356.26675000385,"duration":98.68424999999115,"noteNumber":59,"velocity":72,"programNumber":3},{"time":159469.04875000383,"duration":98.68424999999115,"noteNumber":69,"velocity":68,"programNumber":3},{"time":159581.8307500038,"duration":108.0827500000014,"noteNumber":59,"velocity":67,"programNumber":3},{"time":159699.31200000382,"duration":103.38349999999627,"noteNumber":68,"velocity":74,"programNumber":3},{"time":162401.38075000382,"duration":98.68424999999115,"noteNumber":71,"velocity":106,"programNumber":3},{"time":162401.38075000382,"duration":112.78199999997742,"noteNumber":59,"velocity":106,"programNumber":3},{"time":162514.1627500038,"duration":108.0827500000014,"noteNumber":59,"velocity":101,"programNumber":3},{"time":162626.9447500038,"duration":108.0827500000014,"noteNumber":69,"velocity":104,"programNumber":3},{"time":162739.7267500038,"duration":98.68424999999115,"noteNumber":59,"velocity":101,"programNumber":3},{"time":162852.5087500038,"duration":93.98499999998603,"noteNumber":68,"velocity":103,"programNumber":3},{"time":162960.59150000376,"duration":103.38349999999627,"noteNumber":59,"velocity":101,"programNumber":3},{"time":163078.07275000375,"duration":93.98499999998603,"noteNumber":69,"velocity":97,"programNumber":3},{"time":163190.85475000372,"duration":108.0827500000014,"noteNumber":59,"velocity":96,"programNumber":3},{"time":163303.63675000373,"duration":108.0827500000014,"noteNumber":68,"velocity":103,"programNumber":3},{"time":163416.41875000374,"duration":108.0827500000014,"noteNumber":59,"velocity":91,"programNumber":3},{"time":163529.20075000374,"duration":108.0827500000014,"noteNumber":66,"velocity":101,"programNumber":3},{"time":163641.98275000375,"duration":108.0827500000014,"noteNumber":59,"velocity":101,"programNumber":3},{"time":163754.76475000376,"duration":108.0827500000014,"noteNumber":68,"velocity":101,"programNumber":3},{"time":163867.54675000376,"duration":93.98499999998603,"noteNumber":59,"velocity":99,"programNumber":3},{"time":163980.32875000374,"duration":108.0827500000014,"noteNumber":64,"velocity":104,"programNumber":3},{"time":164093.11075000375,"duration":108.0827500000014,"noteNumber":59,"velocity":102,"programNumber":3},{"time":164205.89275000375,"duration":93.98499999998603,"noteNumber":66,"velocity":105,"programNumber":3},{"time":164304.57700000374,"duration":112.78200000000652,"noteNumber":59,"velocity":102,"programNumber":3},{"time":164431.45675000374,"duration":108.0827500000014,"noteNumber":63,"velocity":103,"programNumber":3},{"time":164544.23875000374,"duration":98.68424999999115,"noteNumber":59,"velocity":97,"programNumber":3},{"time":164657.02075000372,"duration":108.0827500000014,"noteNumber":64,"velocity":101,"programNumber":3},{"time":164769.80275000373,"duration":98.68424999999115,"noteNumber":59,"velocity":101,"programNumber":3},{"time":164882.5847500037,"duration":98.68424999999115,"noteNumber":63,"velocity":97,"programNumber":3},{"time":164985.9682500037,"duration":108.0827500000014,"noteNumber":59,"velocity":97,"programNumber":3},{"time":165108.1487500037,"duration":98.68424999999115,"noteNumber":64,"velocity":102,"programNumber":3},{"time":165211.5322500037,"duration":108.0827500000014,"noteNumber":59,"velocity":101,"programNumber":3},{"time":165333.71275000367,"duration":98.68424999999115,"noteNumber":63,"velocity":92,"programNumber":3},{"time":165437.09625000367,"duration":103.38349999999627,"noteNumber":59,"velocity":99,"programNumber":3},{"time":165559.27675000366,"duration":108.0827500000014,"noteNumber":64,"velocity":102,"programNumber":3},{"time":165672.05875000366,"duration":108.0827500000014,"noteNumber":59,"velocity":104,"programNumber":3},{"time":165784.84075000367,"duration":108.0827500000014,"noteNumber":63,"velocity":105,"programNumber":3},{"time":165897.62275000368,"duration":108.0827500000014,"noteNumber":59,"velocity":99,"programNumber":3},{"time":166010.40475000368,"duration":103.38349999999627,"noteNumber":71,"velocity":106,"programNumber":3},{"time":166010.40475000368,"duration":112.78200000000652,"noteNumber":59,"velocity":106,"programNumber":3},{"time":166123.1867500037,"duration":108.0827500000014,"noteNumber":59,"velocity":101,"programNumber":3},{"time":166235.9687500037,"duration":108.0827500000014,"noteNumber":69,"velocity":104,"programNumber":3},{"time":166348.7507500037,"duration":108.0827500000014,"noteNumber":59,"velocity":101,"programNumber":3},{"time":166461.5327500037,"duration":108.0827500000014,"noteNumber":68,"velocity":103,"programNumber":3},{"time":166574.31475000372,"duration":108.0827500000014,"noteNumber":59,"velocity":101,"programNumber":3},{"time":166687.09675000372,"duration":108.0827500000014,"noteNumber":69,"velocity":97,"programNumber":3},{"time":166799.87875000373,"duration":108.0827500000014,"noteNumber":59,"velocity":96,"programNumber":3},{"time":166912.66075000374,"duration":108.0827500000014,"noteNumber":68,"velocity":103,"programNumber":3},{"time":167025.44275000374,"duration":108.0827500000014,"noteNumber":59,"velocity":91,"programNumber":3},{"time":167138.22475000375,"duration":108.0827500000014,"noteNumber":66,"velocity":101,"programNumber":3},{"time":167251.00675000375,"duration":108.0827500000014,"noteNumber":59,"velocity":101,"programNumber":3},{"time":167363.78875000376,"duration":108.0827500000014,"noteNumber":68,"velocity":101,"programNumber":3},{"time":167476.57075000377,"duration":108.0827500000014,"noteNumber":59,"velocity":99,"programNumber":3},{"time":167589.35275000377,"duration":108.0827500000014,"noteNumber":64,"velocity":104,"programNumber":3},{"time":167702.13475000378,"duration":108.0827500000014,"noteNumber":59,"velocity":102,"programNumber":3},{"time":167814.9167500038,"duration":108.0827500000014,"noteNumber":66,"velocity":105,"programNumber":3},{"time":167927.6987500038,"duration":108.0827500000014,"noteNumber":59,"velocity":102,"programNumber":3},{"time":168040.4807500038,"duration":108.0827500000014,"noteNumber":63,"velocity":103,"programNumber":3},{"time":168153.2627500038,"duration":108.0827500000014,"noteNumber":59,"velocity":97,"programNumber":3},{"time":168266.0447500038,"duration":108.0827500000014,"noteNumber":64,"velocity":101,"programNumber":3},{"time":168378.82675000382,"duration":108.0827500000014,"noteNumber":59,"velocity":101,"programNumber":3},{"time":168491.60875000383,"duration":98.68424999999115,"noteNumber":63,"velocity":97,"programNumber":3},{"time":168594.99225000382,"duration":108.0827500000014,"noteNumber":59,"velocity":97,"programNumber":3},{"time":168717.1727500038,"duration":98.68424999999115,"noteNumber":64,"velocity":102,"programNumber":3},{"time":168825.2555000038,"duration":112.78200000000652,"noteNumber":59,"velocity":101,"programNumber":3},{"time":168942.73675000382,"duration":108.0827500000014,"noteNumber":63,"velocity":92,"programNumber":3},{"time":169055.51875000383,"duration":98.68424999999115,"noteNumber":59,"velocity":99,"programNumber":3},{"time":169168.3007500038,"duration":108.0827500000014,"noteNumber":64,"velocity":102,"programNumber":3},{"time":169281.0827500038,"duration":98.68424999999115,"noteNumber":59,"velocity":104,"programNumber":3},{"time":169393.8647500038,"duration":98.68424999999115,"noteNumber":63,"velocity":105,"programNumber":3},{"time":169506.64675000377,"duration":98.68424999999115,"noteNumber":59,"velocity":99,"programNumber":3},{"time":169619.42875000375,"duration":108.0827500000014,"noteNumber":71,"velocity":106,"programNumber":3},{"time":169619.42875000375,"duration":112.78200000000652,"noteNumber":59,"velocity":106,"programNumber":3},{"time":169732.21075000375,"duration":108.0827500000014,"noteNumber":59,"velocity":101,"programNumber":3},{"time":169844.99275000376,"duration":108.0827500000014,"noteNumber":69,"velocity":104,"programNumber":3},{"time":169957.77475000377,"duration":108.0827500000014,"noteNumber":59,"velocity":101,"programNumber":3},{"time":170070.55675000377,"duration":108.0827500000014,"noteNumber":68,"velocity":103,"programNumber":3},{"time":170183.33875000378,"duration":108.0827500000014,"noteNumber":59,"velocity":101,"programNumber":3},{"time":170296.12075000379,"duration":108.0827500000014,"noteNumber":69,"velocity":97,"programNumber":3},{"time":170408.9027500038,"duration":108.0827500000014,"noteNumber":59,"velocity":96,"programNumber":3},{"time":170521.6847500038,"duration":108.0827500000014,"noteNumber":68,"velocity":103,"programNumber":3},{"time":170634.4667500038,"duration":108.0827500000014,"noteNumber":59,"velocity":91,"programNumber":3},{"time":170747.2487500038,"duration":108.0827500000014,"noteNumber":66,"velocity":101,"programNumber":3},{"time":170860.03075000382,"duration":98.68424999999115,"noteNumber":59,"velocity":101,"programNumber":3},{"time":170972.8127500038,"duration":98.68424999999115,"noteNumber":68,"velocity":101,"programNumber":3},{"time":171076.1962500038,"duration":108.0827500000014,"noteNumber":59,"velocity":99,"programNumber":3},{"time":171198.37675000378,"duration":98.68424999999115,"noteNumber":64,"velocity":104,"programNumber":3},{"time":171301.76025000378,"duration":108.0827500000014,"noteNumber":59,"velocity":102,"programNumber":3},{"time":171423.94075000376,"duration":98.68424999999115,"noteNumber":66,"velocity":105,"programNumber":3},{"time":171532.02350000376,"duration":103.38349999999627,"noteNumber":59,"velocity":102,"programNumber":3},{"time":171649.50475000375,"duration":108.0827500000014,"noteNumber":63,"velocity":103,"programNumber":3},{"time":171762.28675000375,"duration":103.38349999999627,"noteNumber":59,"velocity":97,"programNumber":3},{"time":171875.06875000376,"duration":108.0827500000014,"noteNumber":64,"velocity":101,"programNumber":3},{"time":171987.85075000377,"duration":103.38349999999627,"noteNumber":59,"velocity":101,"programNumber":3},{"time":172100.63275000377,"duration":108.0827500000014,"noteNumber":63,"velocity":97,"programNumber":3},{"time":172213.41475000378,"duration":103.38349999999627,"noteNumber":59,"velocity":97,"programNumber":3},{"time":172326.1967500038,"duration":103.38349999999627,"noteNumber":64,"velocity":102,"programNumber":3},{"time":172438.9787500038,"duration":108.0827500000014,"noteNumber":59,"velocity":101,"programNumber":3},{"time":172551.7607500038,"duration":108.0827500000014,"noteNumber":63,"velocity":92,"programNumber":3},{"time":172664.5427500038,"duration":108.0827500000014,"noteNumber":59,"velocity":99,"programNumber":3},{"time":172777.3247500038,"duration":108.0827500000014,"noteNumber":64,"velocity":102,"programNumber":3},{"time":172890.10675000382,"duration":108.0827500000014,"noteNumber":59,"velocity":104,"programNumber":3},{"time":173002.88875000383,"duration":103.38349999999627,"noteNumber":63,"velocity":105,"programNumber":3},{"time":173115.67075000383,"duration":103.38349999999627,"noteNumber":59,"velocity":99,"programNumber":3},{"time":173228.45275000384,"duration":108.0827500000014,"noteNumber":71,"velocity":106,"programNumber":3},{"time":173228.45275000384,"duration":112.78200000000652,"noteNumber":59,"velocity":106,"programNumber":3},{"time":173341.23475000384,"duration":108.0827500000014,"noteNumber":59,"velocity":101,"programNumber":3},{"time":173454.01675000385,"duration":108.0827500000014,"noteNumber":69,"velocity":104,"programNumber":3},{"time":173566.79875000386,"duration":108.0827500000014,"noteNumber":59,"velocity":101,"programNumber":3},{"time":173679.58075000386,"duration":108.0827500000014,"noteNumber":68,"velocity":103,"programNumber":3},{"time":173792.36275000387,"duration":108.0827500000014,"noteNumber":59,"velocity":101,"programNumber":3},{"time":173905.14475000388,"duration":98.68424999999115,"noteNumber":69,"velocity":97,"programNumber":3},{"time":174008.52825000387,"duration":117.48125000001164,"noteNumber":59,"velocity":96,"programNumber":3},{"time":174130.7087500039,"duration":108.0827500000014,"noteNumber":68,"velocity":103,"programNumber":3},{"time":174243.4907500039,"duration":108.0827500000014,"noteNumber":59,"velocity":91,"programNumber":3},{"time":174356.2727500039,"duration":108.0827500000014,"noteNumber":66,"velocity":101,"programNumber":3},{"time":174469.0547500039,"duration":108.0827500000014,"noteNumber":59,"velocity":101,"programNumber":3},{"time":174581.83675000392,"duration":108.0827500000014,"noteNumber":68,"velocity":101,"programNumber":3},{"time":174694.61875000392,"duration":108.0827500000014,"noteNumber":59,"velocity":99,"programNumber":3},{"time":174807.40075000393,"duration":108.0827500000014,"noteNumber":64,"velocity":104,"programNumber":3},{"time":174920.18275000394,"duration":108.0827500000014,"noteNumber":59,"velocity":102,"programNumber":3},{"time":175032.96475000394,"duration":108.0827500000014,"noteNumber":66,"velocity":105,"programNumber":3},{"time":175145.74675000395,"duration":108.0827500000014,"noteNumber":59,"velocity":102,"programNumber":3},{"time":175258.52875000396,"duration":108.0827500000014,"noteNumber":63,"velocity":103,"programNumber":3},{"time":175371.31075000396,"duration":108.0827500000014,"noteNumber":59,"velocity":97,"programNumber":3},{"time":175484.09275000397,"duration":108.0827500000014,"noteNumber":64,"velocity":101,"programNumber":3},{"time":175596.87475000398,"duration":108.0827500000014,"noteNumber":59,"velocity":101,"programNumber":3},{"time":175709.65675000398,"duration":108.0827500000014,"noteNumber":63,"velocity":97,"programNumber":3},{"time":175822.438750004,"duration":108.0827500000014,"noteNumber":59,"velocity":97,"programNumber":3},{"time":175935.220750004,"duration":108.0827500000014,"noteNumber":64,"velocity":102,"programNumber":3},{"time":176048.002750004,"duration":108.0827500000014,"noteNumber":59,"velocity":101,"programNumber":3},{"time":176160.784750004,"duration":108.0827500000014,"noteNumber":63,"velocity":92,"programNumber":3},{"time":176273.566750004,"duration":108.0827500000014,"noteNumber":59,"velocity":99,"programNumber":3},{"time":176386.34875000402,"duration":108.0827500000014,"noteNumber":64,"velocity":102,"programNumber":3},{"time":176499.13075000403,"duration":108.0827500000014,"noteNumber":59,"velocity":104,"programNumber":3},{"time":176611.91275000403,"duration":108.0827500000014,"noteNumber":63,"velocity":105,"programNumber":3},{"time":176724.69475000404,"duration":108.0827500000014,"noteNumber":59,"velocity":99,"programNumber":3},{"time":176837.47675000405,"duration":108.0827500000014,"noteNumber":71,"velocity":106,"programNumber":3},{"time":176842.17600000405,"duration":108.0827500000014,"noteNumber":59,"velocity":108,"programNumber":3},{"time":176950.25875000405,"duration":108.0827500000014,"noteNumber":59,"velocity":101,"programNumber":3},{"time":177063.04075000406,"duration":108.0827500000014,"noteNumber":69,"velocity":104,"programNumber":3},{"time":177175.82275000407,"duration":93.98499999998603,"noteNumber":59,"velocity":101,"programNumber":3},{"time":177288.60475000404,"duration":98.68424999999115,"noteNumber":68,"velocity":103,"programNumber":3},{"time":177396.68750000405,"duration":112.78200000000652,"noteNumber":59,"velocity":101,"programNumber":3},{"time":177514.16875000406,"duration":108.0827500000014,"noteNumber":69,"velocity":97,"programNumber":3},{"time":177626.95075000406,"duration":98.68424999999115,"noteNumber":59,"velocity":96,"programNumber":3},{"time":177739.73275000404,"duration":98.68424999999115,"noteNumber":68,"velocity":103,"programNumber":3},{"time":177852.51475000402,"duration":98.68424999999115,"noteNumber":59,"velocity":91,"programNumber":3},{"time":177965.296750004,"duration":108.0827500000014,"noteNumber":66,"velocity":101,"programNumber":3},{"time":178078.078750004,"duration":108.0827500000014,"noteNumber":59,"velocity":101,"programNumber":3},{"time":178190.860750004,"duration":108.0827500000014,"noteNumber":68,"velocity":101,"programNumber":3},{"time":178303.64275000402,"duration":108.0827500000014,"noteNumber":59,"velocity":99,"programNumber":3},{"time":178416.42475000402,"duration":103.38349999999627,"noteNumber":64,"velocity":104,"programNumber":3},{"time":178529.20675000403,"duration":103.38349999999627,"noteNumber":59,"velocity":102,"programNumber":3},{"time":178641.98875000403,"duration":103.38349999999627,"noteNumber":66,"velocity":105,"programNumber":3},{"time":178754.77075000404,"duration":108.0827500000014,"noteNumber":59,"velocity":102,"programNumber":3},{"time":178867.55275000405,"duration":108.0827500000014,"noteNumber":63,"velocity":103,"programNumber":3},{"time":178980.33475000405,"duration":108.0827500000014,"noteNumber":59,"velocity":97,"programNumber":3},{"time":179093.11675000406,"duration":108.0827500000014,"noteNumber":64,"velocity":101,"programNumber":3},{"time":179205.89875000407,"duration":103.38349999999627,"noteNumber":59,"velocity":101,"programNumber":3},{"time":179318.68075000407,"duration":108.0827500000014,"noteNumber":63,"velocity":97,"programNumber":3},{"time":179431.46275000408,"duration":103.38349999999627,"noteNumber":59,"velocity":97,"programNumber":3},{"time":179544.2447500041,"duration":108.0827500000014,"noteNumber":64,"velocity":102,"programNumber":3},{"time":179657.0267500041,"duration":93.98499999998603,"noteNumber":59,"velocity":101,"programNumber":3},{"time":179769.80875000407,"duration":108.0827500000014,"noteNumber":63,"velocity":92,"programNumber":3},{"time":179882.59075000408,"duration":108.0827500000014,"noteNumber":59,"velocity":99,"programNumber":3},{"time":179995.37275000408,"duration":108.0827500000014,"noteNumber":64,"velocity":102,"programNumber":3},{"time":180108.1547500041,"duration":108.0827500000014,"noteNumber":59,"velocity":104,"programNumber":3},{"time":180220.9367500041,"duration":108.0827500000014,"noteNumber":63,"velocity":105,"programNumber":3},{"time":180333.7187500041,"duration":108.0827500000014,"noteNumber":59,"velocity":99,"programNumber":3},{"time":180446.5007500041,"duration":108.0827500000014,"noteNumber":71,"velocity":106,"programNumber":3},{"time":180446.5007500041,"duration":112.78200000000652,"noteNumber":59,"velocity":108,"programNumber":3},{"time":180559.28275000412,"duration":108.0827500000014,"noteNumber":59,"velocity":101,"programNumber":3},{"time":180672.06475000412,"duration":108.0827500000014,"noteNumber":69,"velocity":104,"programNumber":3},{"time":180784.84675000413,"duration":108.0827500000014,"noteNumber":59,"velocity":101,"programNumber":3},{"time":180897.62875000414,"duration":98.68424999999115,"noteNumber":68,"velocity":103,"programNumber":3},{"time":181001.01225000413,"duration":117.48125000001164,"noteNumber":59,"velocity":101,"programNumber":3},{"time":181123.19275000415,"duration":98.68424999999115,"noteNumber":69,"velocity":97,"programNumber":3},{"time":181226.57625000415,"duration":117.48125000001164,"noteNumber":59,"velocity":96,"programNumber":3},{"time":181348.75675000416,"duration":108.0827500000014,"noteNumber":68,"velocity":103,"programNumber":3},{"time":181461.53875000417,"duration":108.0827500000014,"noteNumber":59,"velocity":91,"programNumber":3},{"time":181574.32075000418,"duration":108.0827500000014,"noteNumber":66,"velocity":101,"programNumber":3},{"time":181687.10275000418,"duration":108.0827500000014,"noteNumber":59,"velocity":101,"programNumber":3},{"time":181799.8847500042,"duration":108.0827500000014,"noteNumber":68,"velocity":101,"programNumber":3},{"time":181912.6667500042,"duration":108.0827500000014,"noteNumber":59,"velocity":99,"programNumber":3},{"time":182025.4487500042,"duration":98.68424999999115,"noteNumber":64,"velocity":104,"programNumber":3},{"time":182138.23075000418,"duration":108.0827500000014,"noteNumber":59,"velocity":102,"programNumber":3},{"time":182251.01275000419,"duration":108.0827500000014,"noteNumber":66,"velocity":105,"programNumber":3},{"time":182363.7947500042,"duration":108.0827500000014,"noteNumber":59,"velocity":102,"programNumber":3},{"time":182476.5767500042,"duration":108.0827500000014,"noteNumber":63,"velocity":103,"programNumber":3},{"time":182589.3587500042,"duration":98.68424999999115,"noteNumber":59,"velocity":97,"programNumber":3},{"time":182702.14075000418,"duration":98.68424999999115,"noteNumber":64,"velocity":101,"programNumber":3},{"time":182814.92275000416,"duration":108.0827500000014,"noteNumber":59,"velocity":101,"programNumber":3},{"time":182927.70475000417,"duration":98.68424999999115,"noteNumber":63,"velocity":97,"programNumber":3},{"time":183040.48675000414,"duration":98.68424999999115,"noteNumber":59,"velocity":97,"programNumber":3},{"time":183153.26875000412,"duration":108.0827500000014,"noteNumber":64,"velocity":102,"programNumber":3},{"time":183266.05075000413,"duration":108.0827500000014,"noteNumber":59,"velocity":101,"programNumber":3},{"time":183378.83275000413,"duration":108.0827500000014,"noteNumber":63,"velocity":92,"programNumber":3},{"time":183491.61475000414,"duration":108.0827500000014,"noteNumber":59,"velocity":99,"programNumber":3},{"time":183604.39675000415,"duration":98.68424999999115,"noteNumber":64,"velocity":102,"programNumber":3},{"time":183712.47950000415,"duration":98.68424999999115,"noteNumber":59,"velocity":104,"programNumber":3},{"time":183829.96075000413,"duration":108.0827500000014,"noteNumber":63,"velocity":105,"programNumber":3},{"time":183942.74275000414,"duration":98.68424999999115,"noteNumber":59,"velocity":99,"programNumber":3},{"time":184055.52475000412,"duration":108.0827500000014,"noteNumber":71,"velocity":106,"programNumber":3},{"time":184060.22400000412,"duration":108.0827500000014,"noteNumber":59,"velocity":108,"programNumber":3},{"time":184168.30675000412,"duration":98.68424999999115,"noteNumber":59,"velocity":101,"programNumber":3},{"time":184281.0887500041,"duration":98.68424999999115,"noteNumber":69,"velocity":104,"programNumber":3},{"time":184384.4722500041,"duration":108.0827500000014,"noteNumber":59,"velocity":101,"programNumber":3},{"time":184506.65275000408,"duration":98.68424999999115,"noteNumber":68,"velocity":103,"programNumber":3},{"time":184610.03625000408,"duration":108.0827500000014,"noteNumber":59,"velocity":101,"programNumber":3},{"time":184732.21675000407,"duration":98.68424999999115,"noteNumber":69,"velocity":97,"programNumber":3},{"time":184835.60025000406,"duration":103.38349999999627,"noteNumber":59,"velocity":96,"programNumber":3},{"time":184957.78075000405,"duration":108.0827500000014,"noteNumber":68,"velocity":103,"programNumber":3},{"time":185070.56275000406,"duration":93.98499999998603,"noteNumber":59,"velocity":91,"programNumber":3},{"time":185183.34475000403,"duration":108.0827500000014,"noteNumber":66,"velocity":101,"programNumber":3},{"time":185296.12675000404,"duration":93.98499999998603,"noteNumber":59,"velocity":101,"programNumber":3},{"time":185408.90875000402,"duration":108.0827500000014,"noteNumber":68,"velocity":101,"programNumber":3},{"time":185521.69075000403,"duration":108.0827500000014,"noteNumber":59,"velocity":99,"programNumber":3},{"time":185634.47275000403,"duration":108.0827500000014,"noteNumber":64,"velocity":104,"programNumber":3},{"time":185747.25475000404,"duration":108.0827500000014,"noteNumber":59,"velocity":102,"programNumber":3},{"time":185860.03675000404,"duration":108.0827500000014,"noteNumber":66,"velocity":105,"programNumber":3},{"time":185972.81875000405,"duration":108.0827500000014,"noteNumber":59,"velocity":102,"programNumber":3},{"time":186085.60075000406,"duration":108.0827500000014,"noteNumber":63,"velocity":103,"programNumber":3},{"time":186198.38275000406,"duration":108.0827500000014,"noteNumber":59,"velocity":97,"programNumber":3},{"time":186311.16475000407,"duration":108.0827500000014,"noteNumber":64,"velocity":101,"programNumber":3},{"time":186423.94675000408,"duration":108.0827500000014,"noteNumber":59,"velocity":101,"programNumber":3},{"time":186536.72875000408,"duration":108.0827500000014,"noteNumber":63,"velocity":97,"programNumber":3},{"time":186649.5107500041,"duration":98.68424999999115,"noteNumber":59,"velocity":97,"programNumber":3},{"time":186762.29275000407,"duration":98.68424999999115,"noteNumber":64,"velocity":102,"programNumber":3},{"time":186865.67625000406,"duration":117.48125000001164,"noteNumber":59,"velocity":101,"programNumber":3},{"time":186987.85675000408,"duration":108.0827500000014,"noteNumber":63,"velocity":92,"programNumber":3},{"time":187100.6387500041,"duration":108.0827500000014,"noteNumber":59,"velocity":99,"programNumber":3},{"time":187213.4207500041,"duration":108.0827500000014,"noteNumber":64,"velocity":102,"programNumber":3},{"time":187326.2027500041,"duration":108.0827500000014,"noteNumber":59,"velocity":104,"programNumber":3},{"time":187438.9847500041,"duration":108.0827500000014,"noteNumber":63,"velocity":105,"programNumber":3},{"time":187551.7667500041,"duration":108.0827500000014,"noteNumber":59,"velocity":99,"programNumber":3},{"time":187664.54875000412,"duration":108.0827500000014,"noteNumber":71,"velocity":106,"programNumber":3},{"time":187669.24800000413,"duration":108.0827500000014,"noteNumber":59,"velocity":108,"programNumber":3},{"time":187777.33075000413,"duration":108.0827500000014,"noteNumber":59,"velocity":101,"programNumber":3},{"time":187890.11275000413,"duration":108.0827500000014,"noteNumber":69,"velocity":104,"programNumber":3},{"time":188002.89475000414,"duration":108.0827500000014,"noteNumber":59,"velocity":101,"programNumber":3},{"time":188115.67675000415,"duration":108.0827500000014,"noteNumber":68,"velocity":103,"programNumber":3},{"time":188228.45875000415,"duration":108.0827500000014,"noteNumber":59,"velocity":101,"programNumber":3},{"time":188341.24075000416,"duration":108.0827500000014,"noteNumber":69,"velocity":97,"programNumber":3},{"time":188454.02275000417,"duration":108.0827500000014,"noteNumber":59,"velocity":96,"programNumber":3},{"time":188566.80475000417,"duration":108.0827500000014,"noteNumber":68,"velocity":103,"programNumber":3},{"time":188679.58675000418,"duration":108.0827500000014,"noteNumber":59,"velocity":91,"programNumber":3},{"time":188792.36875000419,"duration":108.0827500000014,"noteNumber":66,"velocity":101,"programNumber":3},{"time":188905.1507500042,"duration":108.0827500000014,"noteNumber":59,"velocity":101,"programNumber":3},{"time":189017.9327500042,"duration":108.0827500000014,"noteNumber":68,"velocity":101,"programNumber":3},{"time":189130.7147500042,"duration":108.0827500000014,"noteNumber":59,"velocity":99,"programNumber":3},{"time":189243.4967500042,"duration":108.0827500000014,"noteNumber":64,"velocity":104,"programNumber":3},{"time":189356.27875000422,"duration":108.0827500000014,"noteNumber":59,"velocity":102,"programNumber":3},{"time":189469.06075000422,"duration":108.0827500000014,"noteNumber":66,"velocity":105,"programNumber":3},{"time":189581.84275000423,"duration":108.0827500000014,"noteNumber":59,"velocity":102,"programNumber":3},{"time":189694.62475000424,"duration":108.0827500000014,"noteNumber":63,"velocity":103,"programNumber":3},{"time":189807.40675000424,"duration":108.0827500000014,"noteNumber":59,"velocity":97,"programNumber":3},{"time":189920.18875000425,"duration":108.0827500000014,"noteNumber":64,"velocity":101,"programNumber":3},{"time":190032.97075000426,"duration":108.0827500000014,"noteNumber":59,"velocity":101,"programNumber":3},{"time":190145.75275000426,"duration":108.0827500000014,"noteNumber":63,"velocity":97,"programNumber":3},{"time":190258.53475000427,"duration":108.0827500000014,"noteNumber":59,"velocity":97,"programNumber":3},{"time":190371.31675000428,"duration":98.68424999999115,"noteNumber":64,"velocity":102,"programNumber":3},{"time":190474.70025000427,"duration":108.0827500000014,"noteNumber":59,"velocity":101,"programNumber":3},{"time":190596.88075000426,"duration":93.98499999998603,"noteNumber":63,"velocity":92,"programNumber":3},{"time":190695.56500000425,"duration":122.18049999998766,"noteNumber":59,"velocity":99,"programNumber":3},{"time":190822.44475000424,"duration":98.68424999999115,"noteNumber":64,"velocity":102,"programNumber":3},{"time":190925.82825000424,"duration":108.0827500000014,"noteNumber":59,"velocity":104,"programNumber":3},{"time":191048.00875000423,"duration":98.68424999999115,"noteNumber":63,"velocity":105,"programNumber":3},{"time":191151.39225000422,"duration":117.48125000001164,"noteNumber":59,"velocity":99,"programNumber":3},{"time":191950.26475000422,"duration":507.51900000000023,"noteNumber":59,"velocity":108,"programNumber":3},{"time":195559.28875000423,"duration":507.51900000000023,"noteNumber":59,"velocity":108,"programNumber":3},{"time":199168.31275000423,"duration":507.51900000000023,"noteNumber":59,"velocity":108,"programNumber":3},{"time":202777.33675000424,"duration":507.51900000000023,"noteNumber":59,"velocity":108,"programNumber":3},{"time":205709.66875000423,"duration":108.0827500000014,"noteNumber":71,"velocity":106,"programNumber":3},{"time":205709.66875000423,"duration":112.78200000000652,"noteNumber":59,"velocity":108,"programNumber":3},{"time":205822.45075000424,"duration":108.0827500000014,"noteNumber":59,"velocity":101,"programNumber":3},{"time":205935.23275000424,"duration":108.0827500000014,"noteNumber":69,"velocity":104,"programNumber":3},{"time":206048.01475000425,"duration":108.0827500000014,"noteNumber":59,"velocity":101,"programNumber":3},{"time":206160.79675000426,"duration":108.0827500000014,"noteNumber":68,"velocity":103,"programNumber":3},{"time":206273.57875000426,"duration":108.0827500000014,"noteNumber":59,"velocity":101,"programNumber":3},{"time":206386.36075000427,"duration":108.0827500000014,"noteNumber":69,"velocity":97,"programNumber":3},{"time":206499.14275000428,"duration":108.0827500000014,"noteNumber":59,"velocity":96,"programNumber":3},{"time":206611.92475000428,"duration":108.0827500000014,"noteNumber":68,"velocity":103,"programNumber":3},{"time":206724.7067500043,"duration":108.0827500000014,"noteNumber":59,"velocity":91,"programNumber":3},{"time":206837.4887500043,"duration":108.0827500000014,"noteNumber":66,"velocity":101,"programNumber":3},{"time":206950.2707500043,"duration":93.98499999998603,"noteNumber":59,"velocity":101,"programNumber":3},{"time":207063.05275000428,"duration":108.0827500000014,"noteNumber":68,"velocity":101,"programNumber":3},{"time":207175.8347500043,"duration":98.68424999999115,"noteNumber":59,"velocity":99,"programNumber":3},{"time":207288.61675000426,"duration":108.0827500000014,"noteNumber":64,"velocity":104,"programNumber":3},{"time":207401.39875000427,"duration":108.0827500000014,"noteNumber":59,"velocity":102,"programNumber":3},{"time":207514.18075000428,"duration":108.0827500000014,"noteNumber":66,"velocity":105,"programNumber":3},{"time":207626.96275000428,"duration":108.0827500000014,"noteNumber":59,"velocity":102,"programNumber":3},{"time":207739.7447500043,"duration":108.0827500000014,"noteNumber":63,"velocity":103,"programNumber":3},{"time":207852.5267500043,"duration":108.0827500000014,"noteNumber":59,"velocity":97,"programNumber":3},{"time":207965.3087500043,"duration":108.0827500000014,"noteNumber":64,"velocity":101,"programNumber":3},{"time":208078.0907500043,"duration":108.0827500000014,"noteNumber":59,"velocity":101,"programNumber":3},{"time":208190.87275000432,"duration":98.68424999999115,"noteNumber":63,"velocity":97,"programNumber":3},{"time":208294.2562500043,"duration":108.0827500000014,"noteNumber":59,"velocity":97,"programNumber":3},{"time":208416.4367500043,"duration":108.0827500000014,"noteNumber":64,"velocity":102,"programNumber":3},{"time":208529.2187500043,"duration":108.0827500000014,"noteNumber":59,"velocity":101,"programNumber":3},{"time":208642.0007500043,"duration":108.0827500000014,"noteNumber":63,"velocity":92,"programNumber":3},{"time":208754.78275000432,"duration":108.0827500000014,"noteNumber":59,"velocity":99,"programNumber":3},{"time":208867.56475000433,"duration":108.0827500000014,"noteNumber":64,"velocity":102,"programNumber":3},{"time":208980.34675000433,"duration":93.98499999998603,"noteNumber":59,"velocity":104,"programNumber":3},{"time":209093.1287500043,"duration":98.68424999999115,"noteNumber":63,"velocity":105,"programNumber":3},{"time":209205.9107500043,"duration":108.0827500000014,"noteNumber":59,"velocity":99,"programNumber":3},{"time":209318.6927500043,"duration":103.38349999999627,"noteNumber":71,"velocity":106,"programNumber":3},{"time":209318.6927500043,"duration":112.78200000000652,"noteNumber":59,"velocity":108,"programNumber":3},{"time":209431.4747500043,"duration":103.38349999999627,"noteNumber":59,"velocity":101,"programNumber":3},{"time":209544.2567500043,"duration":108.0827500000014,"noteNumber":69,"velocity":104,"programNumber":3},{"time":209657.0387500043,"duration":108.0827500000014,"noteNumber":59,"velocity":101,"programNumber":3},{"time":209769.82075000432,"duration":108.0827500000014,"noteNumber":68,"velocity":103,"programNumber":3},{"time":209882.60275000433,"duration":108.0827500000014,"noteNumber":59,"velocity":101,"programNumber":3},{"time":209995.38475000433,"duration":108.0827500000014,"noteNumber":69,"velocity":97,"programNumber":3},{"time":210108.16675000434,"duration":108.0827500000014,"noteNumber":59,"velocity":96,"programNumber":3},{"time":210220.94875000435,"duration":108.0827500000014,"noteNumber":68,"velocity":103,"programNumber":3},{"time":210333.73075000435,"duration":98.68424999999115,"noteNumber":59,"velocity":91,"programNumber":3},{"time":210446.51275000433,"duration":108.0827500000014,"noteNumber":66,"velocity":101,"programNumber":3},{"time":210559.29475000434,"duration":98.68424999999115,"noteNumber":59,"velocity":101,"programNumber":3},{"time":210672.07675000431,"duration":108.0827500000014,"noteNumber":68,"velocity":101,"programNumber":3},{"time":210784.85875000432,"duration":108.0827500000014,"noteNumber":59,"velocity":99,"programNumber":3},{"time":210897.64075000433,"duration":108.0827500000014,"noteNumber":64,"velocity":104,"programNumber":3},{"time":211010.42275000433,"duration":108.0827500000014,"noteNumber":59,"velocity":102,"programNumber":3},{"time":211123.20475000434,"duration":108.0827500000014,"noteNumber":66,"velocity":105,"programNumber":3},{"time":211235.98675000435,"duration":108.0827500000014,"noteNumber":59,"velocity":102,"programNumber":3},{"time":211348.76875000435,"duration":103.38349999999627,"noteNumber":63,"velocity":103,"programNumber":3},{"time":211461.55075000436,"duration":103.38349999999627,"noteNumber":59,"velocity":97,"programNumber":3},{"time":211574.33275000437,"duration":103.38349999999627,"noteNumber":64,"velocity":101,"programNumber":3},{"time":211687.11475000437,"duration":103.38349999999627,"noteNumber":59,"velocity":101,"programNumber":3},{"time":211799.89675000438,"duration":108.0827500000014,"noteNumber":63,"velocity":97,"programNumber":3},{"time":211912.6787500044,"duration":103.38349999999627,"noteNumber":59,"velocity":97,"programNumber":3},{"time":212025.4607500044,"duration":103.38349999999627,"noteNumber":64,"velocity":102,"programNumber":3},{"time":212138.2427500044,"duration":108.0827500000014,"noteNumber":59,"velocity":101,"programNumber":3},{"time":212251.0247500044,"duration":108.0827500000014,"noteNumber":63,"velocity":92,"programNumber":3},{"time":212363.8067500044,"duration":108.0827500000014,"noteNumber":59,"velocity":99,"programNumber":3},{"time":212476.58875000442,"duration":108.0827500000014,"noteNumber":64,"velocity":102,"programNumber":3},{"time":212589.37075000443,"duration":108.0827500000014,"noteNumber":59,"velocity":104,"programNumber":3},{"time":212702.15275000443,"duration":108.0827500000014,"noteNumber":63,"velocity":105,"programNumber":3},{"time":212814.93475000444,"duration":103.38349999999627,"noteNumber":59,"velocity":99,"programNumber":3},{"time":212927.71675000445,"duration":108.0827500000014,"noteNumber":71,"velocity":106,"programNumber":3},{"time":212927.71675000445,"duration":112.78200000000652,"noteNumber":59,"velocity":108,"programNumber":3},{"time":213040.49875000445,"duration":108.0827500000014,"noteNumber":59,"velocity":101,"programNumber":3},{"time":213153.28075000446,"duration":108.0827500000014,"noteNumber":69,"velocity":104,"programNumber":3},{"time":213266.06275000446,"duration":108.0827500000014,"noteNumber":59,"velocity":101,"programNumber":3},{"time":213378.84475000447,"duration":108.0827500000014,"noteNumber":68,"velocity":103,"programNumber":3},{"time":213491.62675000448,"duration":108.0827500000014,"noteNumber":59,"velocity":101,"programNumber":3},{"time":213604.40875000448,"duration":108.0827500000014,"noteNumber":69,"velocity":97,"programNumber":3},{"time":213717.1907500045,"duration":108.0827500000014,"noteNumber":59,"velocity":96,"programNumber":3},{"time":213829.9727500045,"duration":108.0827500000014,"noteNumber":68,"velocity":103,"programNumber":3},{"time":213942.7547500045,"duration":108.0827500000014,"noteNumber":59,"velocity":91,"programNumber":3},{"time":214055.5367500045,"duration":108.0827500000014,"noteNumber":66,"velocity":101,"programNumber":3},{"time":214168.31875000452,"duration":108.0827500000014,"noteNumber":59,"velocity":101,"programNumber":3},{"time":214281.10075000452,"duration":108.0827500000014,"noteNumber":68,"velocity":101,"programNumber":3},{"time":214393.88275000453,"duration":108.0827500000014,"noteNumber":59,"velocity":99,"programNumber":3},{"time":214506.66475000454,"duration":108.0827500000014,"noteNumber":64,"velocity":104,"programNumber":3},{"time":214619.44675000454,"duration":108.0827500000014,"noteNumber":59,"velocity":102,"programNumber":3},{"time":214732.22875000455,"duration":108.0827500000014,"noteNumber":66,"velocity":105,"programNumber":3},{"time":214845.01075000456,"duration":108.0827500000014,"noteNumber":59,"velocity":102,"programNumber":3},{"time":214957.79275000456,"duration":108.0827500000014,"noteNumber":63,"velocity":103,"programNumber":3},{"time":215070.57475000457,"duration":108.0827500000014,"noteNumber":59,"velocity":97,"programNumber":3},{"time":215183.35675000458,"duration":108.0827500000014,"noteNumber":64,"velocity":101,"programNumber":3},{"time":215296.13875000458,"duration":108.0827500000014,"noteNumber":59,"velocity":101,"programNumber":3},{"time":215408.9207500046,"duration":108.0827500000014,"noteNumber":63,"velocity":97,"programNumber":3},{"time":215521.7027500046,"duration":108.0827500000014,"noteNumber":59,"velocity":97,"programNumber":3},{"time":215634.4847500046,"duration":108.0827500000014,"noteNumber":64,"velocity":102,"programNumber":3},{"time":215747.2667500046,"duration":108.0827500000014,"noteNumber":59,"velocity":101,"programNumber":3},{"time":215860.04875000461,"duration":108.0827500000014,"noteNumber":63,"velocity":92,"programNumber":3},{"time":215972.83075000462,"duration":108.0827500000014,"noteNumber":59,"velocity":99,"programNumber":3},{"time":216085.61275000463,"duration":108.0827500000014,"noteNumber":64,"velocity":102,"programNumber":3},{"time":216198.39475000463,"duration":108.0827500000014,"noteNumber":59,"velocity":104,"programNumber":3},{"time":216311.17675000464,"duration":108.0827500000014,"noteNumber":63,"velocity":105,"programNumber":3},{"time":216423.95875000465,"duration":108.0827500000014,"noteNumber":59,"velocity":99,"programNumber":3},{"time":216536.74075000465,"duration":108.0827500000014,"noteNumber":71,"velocity":106,"programNumber":3},{"time":216541.44000000466,"duration":108.0827500000014,"noteNumber":59,"velocity":108,"programNumber":3},{"time":216649.52275000466,"duration":98.68424999999115,"noteNumber":59,"velocity":101,"programNumber":3},{"time":216762.30475000464,"duration":108.0827500000014,"noteNumber":69,"velocity":104,"programNumber":3},{"time":216875.08675000464,"duration":108.0827500000014,"noteNumber":59,"velocity":101,"programNumber":3},{"time":216987.86875000465,"duration":98.68424999999115,"noteNumber":68,"velocity":103,"programNumber":3},{"time":217091.25225000465,"duration":108.0827500000014,"noteNumber":59,"velocity":101,"programNumber":3},{"time":217213.43275000463,"duration":98.68424999999115,"noteNumber":69,"velocity":97,"programNumber":3},{"time":217316.81625000463,"duration":108.0827500000014,"noteNumber":59,"velocity":96,"programNumber":3},{"time":217438.99675000462,"duration":98.68424999999115,"noteNumber":68,"velocity":103,"programNumber":3},{"time":217542.38025000461,"duration":108.0827500000014,"noteNumber":59,"velocity":91,"programNumber":3},{"time":217664.5607500046,"duration":93.98499999998603,"noteNumber":66,"velocity":101,"programNumber":3},{"time":217763.2450000046,"duration":112.78200000000652,"noteNumber":59,"velocity":101,"programNumber":3},{"time":217890.1247500046,"duration":108.0827500000014,"noteNumber":68,"velocity":101,"programNumber":3},{"time":218002.9067500046,"duration":108.0827500000014,"noteNumber":59,"velocity":99,"programNumber":3},{"time":218115.6887500046,"duration":93.98499999998603,"noteNumber":64,"velocity":104,"programNumber":3},{"time":218214.3730000046,"duration":122.18049999998766,"noteNumber":59,"velocity":102,"programNumber":3},{"time":218341.25275000458,"duration":108.0827500000014,"noteNumber":66,"velocity":105,"programNumber":3},{"time":218454.0347500046,"duration":98.68424999999115,"noteNumber":59,"velocity":102,"programNumber":3},{"time":218566.81675000457,"duration":108.0827500000014,"noteNumber":63,"velocity":103,"programNumber":3},{"time":218679.59875000457,"duration":108.0827500000014,"noteNumber":59,"velocity":97,"programNumber":3},{"time":218792.38075000458,"duration":108.0827500000014,"noteNumber":64,"velocity":101,"programNumber":3},{"time":218905.1627500046,"duration":108.0827500000014,"noteNumber":59,"velocity":101,"programNumber":3},{"time":219017.9447500046,"duration":108.0827500000014,"noteNumber":63,"velocity":97,"programNumber":3},{"time":219130.7267500046,"duration":108.0827500000014,"noteNumber":59,"velocity":97,"programNumber":3},{"time":219243.5087500046,"duration":108.0827500000014,"noteNumber":64,"velocity":102,"programNumber":3},{"time":219356.2907500046,"duration":98.68424999999115,"noteNumber":59,"velocity":101,"programNumber":3},{"time":219469.0727500046,"duration":108.0827500000014,"noteNumber":63,"velocity":92,"programNumber":3},{"time":219581.8547500046,"duration":98.68424999999115,"noteNumber":59,"velocity":99,"programNumber":3},{"time":219694.63675000457,"duration":98.68424999999115,"noteNumber":64,"velocity":102,"programNumber":3},{"time":219798.02025000457,"duration":117.48125000001164,"noteNumber":59,"velocity":104,"programNumber":3},{"time":219920.2007500046,"duration":108.0827500000014,"noteNumber":63,"velocity":105,"programNumber":3},{"time":220032.9827500046,"duration":108.0827500000014,"noteNumber":59,"velocity":99,"programNumber":3},{"time":220145.7647500046,"duration":108.0827500000014,"noteNumber":71,"velocity":106,"programNumber":3},{"time":220258.5467500046,"duration":108.0827500000014,"noteNumber":59,"velocity":101,"programNumber":3},{"time":220371.3287500046,"duration":108.0827500000014,"noteNumber":69,"velocity":104,"programNumber":3},{"time":220484.11075000462,"duration":108.0827500000014,"noteNumber":59,"velocity":101,"programNumber":3},{"time":220596.89275000463,"duration":108.0827500000014,"noteNumber":68,"velocity":103,"programNumber":3},{"time":220709.67475000463,"duration":108.0827500000014,"noteNumber":59,"velocity":101,"programNumber":3},{"time":220822.45675000464,"duration":108.0827500000014,"noteNumber":69,"velocity":97,"programNumber":3},{"time":220935.23875000465,"duration":108.0827500000014,"noteNumber":59,"velocity":96,"programNumber":3},{"time":221048.02075000465,"duration":108.0827500000014,"noteNumber":68,"velocity":103,"programNumber":3},{"time":221160.80275000466,"duration":108.0827500000014,"noteNumber":59,"velocity":91,"programNumber":3},{"time":221273.58475000467,"duration":108.0827500000014,"noteNumber":66,"velocity":101,"programNumber":3},{"time":221386.36675000467,"duration":108.0827500000014,"noteNumber":59,"velocity":101,"programNumber":3},{"time":221499.14875000468,"duration":108.0827500000014,"noteNumber":68,"velocity":101,"programNumber":3},{"time":221611.93075000469,"duration":108.0827500000014,"noteNumber":59,"velocity":99,"programNumber":3},{"time":221724.7127500047,"duration":108.0827500000014,"noteNumber":64,"velocity":104,"programNumber":3},{"time":221837.4947500047,"duration":108.0827500000014,"noteNumber":59,"velocity":102,"programNumber":3},{"time":221950.2767500047,"duration":108.0827500000014,"noteNumber":66,"velocity":105,"programNumber":3},{"time":222063.0587500047,"duration":98.68424999999115,"noteNumber":59,"velocity":102,"programNumber":3},{"time":222175.8407500047,"duration":108.0827500000014,"noteNumber":63,"velocity":103,"programNumber":3},{"time":222288.6227500047,"duration":98.68424999999115,"noteNumber":59,"velocity":97,"programNumber":3},{"time":222401.40475000467,"duration":98.68424999999115,"noteNumber":64,"velocity":101,"programNumber":3},{"time":222514.18675000465,"duration":108.0827500000014,"noteNumber":59,"velocity":101,"programNumber":3},{"time":222626.96875000466,"duration":108.0827500000014,"noteNumber":63,"velocity":97,"programNumber":3},{"time":222739.75075000466,"duration":108.0827500000014,"noteNumber":59,"velocity":97,"programNumber":3},{"time":222852.53275000467,"duration":108.0827500000014,"noteNumber":64,"velocity":102,"programNumber":3},{"time":222965.31475000468,"duration":108.0827500000014,"noteNumber":59,"velocity":101,"programNumber":3},{"time":223078.09675000468,"duration":108.0827500000014,"noteNumber":63,"velocity":92,"programNumber":3},{"time":223190.8787500047,"duration":108.0827500000014,"noteNumber":59,"velocity":99,"programNumber":3},{"time":223303.6607500047,"duration":108.0827500000014,"noteNumber":64,"velocity":102,"programNumber":3},{"time":223416.4427500047,"duration":108.0827500000014,"noteNumber":59,"velocity":104,"programNumber":3},{"time":223529.2247500047,"duration":108.0827500000014,"noteNumber":63,"velocity":105,"programNumber":3},{"time":223642.00675000472,"duration":108.0827500000014,"noteNumber":59,"velocity":99,"programNumber":3},{"time":223754.78875000472,"duration":108.0827500000014,"noteNumber":71,"velocity":106,"programNumber":3},{"time":223754.78875000472,"duration":112.78200000000652,"noteNumber":59,"velocity":106,"programNumber":3},{"time":223867.57075000473,"duration":98.68424999999115,"noteNumber":59,"velocity":101,"programNumber":3},{"time":223980.3527500047,"duration":98.68424999999115,"noteNumber":69,"velocity":104,"programNumber":3},{"time":224093.13475000468,"duration":93.98499999998603,"noteNumber":59,"velocity":101,"programNumber":3},{"time":224205.91675000466,"duration":108.0827500000014,"noteNumber":68,"velocity":103,"programNumber":3},{"time":224318.69875000467,"duration":108.0827500000014,"noteNumber":59,"velocity":101,"programNumber":3},{"time":224431.48075000467,"duration":103.38349999999627,"noteNumber":69,"velocity":97,"programNumber":3},{"time":224544.26275000468,"duration":108.0827500000014,"noteNumber":59,"velocity":96,"programNumber":3},{"time":224657.0447500047,"duration":108.0827500000014,"noteNumber":68,"velocity":103,"programNumber":3},{"time":224769.8267500047,"duration":108.0827500000014,"noteNumber":59,"velocity":91,"programNumber":3},{"time":224882.6087500047,"duration":103.38349999999627,"noteNumber":66,"velocity":101,"programNumber":3},{"time":224995.3907500047,"duration":103.38349999999627,"noteNumber":59,"velocity":101,"programNumber":3},{"time":225108.1727500047,"duration":108.0827500000014,"noteNumber":68,"velocity":101,"programNumber":3},{"time":225220.95475000472,"duration":108.0827500000014,"noteNumber":59,"velocity":99,"programNumber":3},{"time":225333.73675000473,"duration":108.0827500000014,"noteNumber":64,"velocity":104,"programNumber":3},{"time":225446.51875000473,"duration":108.0827500000014,"noteNumber":59,"velocity":102,"programNumber":3},{"time":225559.30075000474,"duration":108.0827500000014,"noteNumber":66,"velocity":105,"programNumber":3},{"time":225672.08275000475,"duration":108.0827500000014,"noteNumber":59,"velocity":102,"programNumber":3},{"time":225784.86475000475,"duration":108.0827500000014,"noteNumber":63,"velocity":103,"programNumber":3},{"time":225897.64675000476,"duration":108.0827500000014,"noteNumber":59,"velocity":97,"programNumber":3},{"time":226010.42875000476,"duration":108.0827500000014,"noteNumber":64,"velocity":101,"programNumber":3},{"time":226123.21075000477,"duration":108.0827500000014,"noteNumber":59,"velocity":101,"programNumber":3},{"time":226235.99275000478,"duration":108.0827500000014,"noteNumber":63,"velocity":97,"programNumber":3},{"time":226348.77475000478,"duration":108.0827500000014,"noteNumber":59,"velocity":97,"programNumber":3},{"time":226461.5567500048,"duration":108.0827500000014,"noteNumber":64,"velocity":102,"programNumber":3},{"time":226574.3387500048,"duration":108.0827500000014,"noteNumber":59,"velocity":101,"programNumber":3},{"time":226687.1207500048,"duration":108.0827500000014,"noteNumber":63,"velocity":92,"programNumber":3},{"time":226799.9027500048,"duration":108.0827500000014,"noteNumber":59,"velocity":99,"programNumber":3},{"time":226912.68475000482,"duration":108.0827500000014,"noteNumber":64,"velocity":102,"programNumber":3},{"time":227025.46675000482,"duration":108.0827500000014,"noteNumber":59,"velocity":104,"programNumber":3},{"time":227138.24875000483,"duration":108.0827500000014,"noteNumber":63,"velocity":105,"programNumber":3},{"time":227251.03075000484,"duration":108.0827500000014,"noteNumber":59,"velocity":99,"programNumber":3},{"time":227363.81275000484,"duration":108.0827500000014,"noteNumber":71,"velocity":106,"programNumber":3},{"time":227363.81275000484,"duration":112.78200000000652,"noteNumber":59,"velocity":106,"programNumber":3},{"time":227476.59475000485,"duration":108.0827500000014,"noteNumber":59,"velocity":101,"programNumber":3},{"time":227589.37675000486,"duration":108.0827500000014,"noteNumber":69,"velocity":104,"programNumber":3},{"time":227702.15875000486,"duration":108.0827500000014,"noteNumber":59,"velocity":101,"programNumber":3},{"time":227814.94075000487,"duration":108.0827500000014,"noteNumber":68,"velocity":103,"programNumber":3},{"time":227927.72275000488,"duration":98.68424999999115,"noteNumber":59,"velocity":101,"programNumber":3},{"time":228040.50475000485,"duration":98.68424999999115,"noteNumber":69,"velocity":97,"programNumber":3},{"time":228148.58750000485,"duration":112.78200000000652,"noteNumber":59,"velocity":96,"programNumber":3},{"time":228266.06875000487,"duration":108.0827500000014,"noteNumber":68,"velocity":103,"programNumber":3},{"time":228378.85075000487,"duration":98.68424999999115,"noteNumber":59,"velocity":91,"programNumber":3},{"time":228491.63275000485,"duration":98.68424999999115,"noteNumber":66,"velocity":101,"programNumber":3},{"time":228604.41475000483,"duration":93.98499999998603,"noteNumber":59,"velocity":101,"programNumber":3},{"time":228717.1967500048,"duration":98.68424999999115,"noteNumber":68,"velocity":101,"programNumber":3},{"time":228829.97875000478,"duration":98.68424999999115,"noteNumber":59,"velocity":99,"programNumber":3},{"time":228942.76075000476,"duration":98.68424999999115,"noteNumber":64,"velocity":104,"programNumber":3},{"time":229055.54275000474,"duration":108.0827500000014,"noteNumber":59,"velocity":102,"programNumber":3},{"time":229168.32475000474,"duration":103.38349999999627,"noteNumber":66,"velocity":105,"programNumber":3},{"time":229281.10675000475,"duration":108.0827500000014,"noteNumber":59,"velocity":102,"programNumber":3},{"time":229393.88875000476,"duration":108.0827500000014,"noteNumber":63,"velocity":103,"programNumber":3},{"time":229506.67075000476,"duration":108.0827500000014,"noteNumber":59,"velocity":97,"programNumber":3},{"time":229619.45275000477,"duration":98.68424999999115,"noteNumber":64,"velocity":101,"programNumber":3},{"time":229722.83625000477,"duration":108.0827500000014,"noteNumber":59,"velocity":101,"programNumber":3},{"time":229845.01675000475,"duration":93.98499999998603,"noteNumber":63,"velocity":97,"programNumber":3},{"time":229948.40025000475,"duration":108.0827500000014,"noteNumber":59,"velocity":97,"programNumber":3},{"time":230070.58075000474,"duration":108.0827500000014,"noteNumber":64,"velocity":102,"programNumber":3},{"time":230183.36275000474,"duration":108.0827500000014,"noteNumber":59,"velocity":101,"programNumber":3},{"time":230296.14475000475,"duration":98.68424999999115,"noteNumber":63,"velocity":92,"programNumber":3},{"time":230399.52825000475,"duration":112.78200000000652,"noteNumber":59,"velocity":99,"programNumber":3},{"time":230521.70875000476,"duration":98.68424999999115,"noteNumber":64,"velocity":102,"programNumber":3},{"time":230634.49075000474,"duration":108.0827500000014,"noteNumber":59,"velocity":104,"programNumber":3},{"time":230747.27275000475,"duration":108.0827500000014,"noteNumber":63,"velocity":105,"programNumber":3},{"time":230860.05475000475,"duration":93.98499999998603,"noteNumber":59,"velocity":99,"programNumber":3},{"time":230972.83675000473,"duration":93.98499999998603,"noteNumber":71,"velocity":106,"programNumber":3},{"time":230972.83675000473,"duration":98.68424999999115,"noteNumber":59,"velocity":106,"programNumber":3},{"time":231071.52100000472,"duration":122.18049999998766,"noteNumber":59,"velocity":101,"programNumber":3},{"time":231198.40075000472,"duration":93.98499999998603,"noteNumber":69,"velocity":104,"programNumber":3},{"time":231297.0850000047,"duration":122.18049999998766,"noteNumber":59,"velocity":101,"programNumber":3},{"time":231423.9647500047,"duration":108.0827500000014,"noteNumber":68,"velocity":103,"programNumber":3},{"time":231536.7467500047,"duration":98.68424999999115,"noteNumber":59,"velocity":101,"programNumber":3},{"time":231649.52875000468,"duration":108.0827500000014,"noteNumber":69,"velocity":97,"programNumber":3},{"time":231762.3107500047,"duration":108.0827500000014,"noteNumber":59,"velocity":96,"programNumber":3},{"time":231875.0927500047,"duration":108.0827500000014,"noteNumber":68,"velocity":103,"programNumber":3},{"time":231987.8747500047,"duration":108.0827500000014,"noteNumber":59,"velocity":91,"programNumber":3},{"time":232100.6567500047,"duration":108.0827500000014,"noteNumber":66,"velocity":101,"programNumber":3},{"time":232213.43875000472,"duration":108.0827500000014,"noteNumber":59,"velocity":101,"programNumber":3},{"time":232326.22075000472,"duration":108.0827500000014,"noteNumber":68,"velocity":101,"programNumber":3},{"time":232439.00275000473,"duration":108.0827500000014,"noteNumber":59,"velocity":99,"programNumber":3},{"time":232551.78475000474,"duration":98.68424999999115,"noteNumber":64,"velocity":104,"programNumber":3},{"time":232655.16825000473,"duration":117.48125000001164,"noteNumber":59,"velocity":102,"programNumber":3},{"time":232777.34875000475,"duration":98.68424999999115,"noteNumber":66,"velocity":105,"programNumber":3},{"time":232890.13075000473,"duration":108.0827500000014,"noteNumber":59,"velocity":102,"programNumber":3},{"time":233002.91275000473,"duration":108.0827500000014,"noteNumber":63,"velocity":103,"programNumber":3},{"time":233115.69475000474,"duration":98.68424999999115,"noteNumber":59,"velocity":97,"programNumber":3},{"time":233228.47675000472,"duration":108.0827500000014,"noteNumber":64,"velocity":101,"programNumber":3},{"time":233341.25875000472,"duration":108.0827500000014,"noteNumber":59,"velocity":101,"programNumber":3},{"time":233454.04075000473,"duration":108.0827500000014,"noteNumber":63,"velocity":97,"programNumber":3},{"time":233566.82275000474,"duration":98.68424999999115,"noteNumber":59,"velocity":97,"programNumber":3},{"time":233679.6047500047,"duration":108.0827500000014,"noteNumber":64,"velocity":102,"programNumber":3},{"time":233792.38675000472,"duration":108.0827500000014,"noteNumber":59,"velocity":101,"programNumber":3},{"time":233905.16875000473,"duration":108.0827500000014,"noteNumber":63,"velocity":92,"programNumber":3},{"time":234017.95075000473,"duration":108.0827500000014,"noteNumber":59,"velocity":99,"programNumber":3},{"time":234130.73275000474,"duration":108.0827500000014,"noteNumber":64,"velocity":102,"programNumber":3},{"time":234243.51475000475,"duration":108.0827500000014,"noteNumber":59,"velocity":104,"programNumber":3},{"time":234356.29675000475,"duration":108.0827500000014,"noteNumber":63,"velocity":105,"programNumber":3},{"time":234469.07875000476,"duration":108.0827500000014,"noteNumber":59,"velocity":99,"programNumber":3},{"time":234581.86075000477,"duration":108.0827500000014,"noteNumber":71,"velocity":106,"programNumber":3},{"time":234586.56000000477,"duration":108.0827500000014,"noteNumber":59,"velocity":106,"programNumber":3},{"time":234694.64275000477,"duration":108.0827500000014,"noteNumber":59,"velocity":101,"programNumber":3},{"time":234807.42475000478,"duration":108.0827500000014,"noteNumber":69,"velocity":104,"programNumber":3},{"time":234920.20675000479,"duration":108.0827500000014,"noteNumber":59,"velocity":101,"programNumber":3},{"time":235032.9887500048,"duration":108.0827500000014,"noteNumber":68,"velocity":103,"programNumber":3},{"time":235145.7707500048,"duration":108.0827500000014,"noteNumber":59,"velocity":101,"programNumber":3},{"time":235258.5527500048,"duration":108.0827500000014,"noteNumber":69,"velocity":97,"programNumber":3},{"time":235371.3347500048,"duration":108.0827500000014,"noteNumber":59,"velocity":96,"programNumber":3},{"time":235484.11675000482,"duration":98.68424999999115,"noteNumber":68,"velocity":103,"programNumber":3},{"time":235587.5002500048,"duration":117.48125000001164,"noteNumber":59,"velocity":91,"programNumber":3},{"time":235709.68075000483,"duration":108.0827500000014,"noteNumber":66,"velocity":101,"programNumber":3},{"time":235822.46275000484,"duration":108.0827500000014,"noteNumber":59,"velocity":101,"programNumber":3},{"time":235935.24475000484,"duration":108.0827500000014,"noteNumber":68,"velocity":101,"programNumber":3},{"time":236048.02675000485,"duration":108.0827500000014,"noteNumber":59,"velocity":99,"programNumber":3},{"time":236160.80875000486,"duration":108.0827500000014,"noteNumber":64,"velocity":104,"programNumber":3},{"time":236273.59075000486,"duration":108.0827500000014,"noteNumber":59,"velocity":102,"programNumber":3},{"time":236386.37275000487,"duration":108.0827500000014,"noteNumber":66,"velocity":105,"programNumber":3},{"time":236499.15475000488,"duration":98.68424999999115,"noteNumber":59,"velocity":102,"programNumber":3},{"time":236611.93675000485,"duration":108.0827500000014,"noteNumber":63,"velocity":103,"programNumber":3},{"time":236724.71875000486,"duration":98.68424999999115,"noteNumber":59,"velocity":97,"programNumber":3},{"time":236837.50075000484,"duration":98.68424999999115,"noteNumber":64,"velocity":101,"programNumber":3},{"time":236940.88425000483,"duration":108.0827500000014,"noteNumber":59,"velocity":101,"programNumber":3},{"time":237063.06475000482,"duration":98.68424999999115,"noteNumber":63,"velocity":97,"programNumber":3},{"time":237166.44825000482,"duration":108.0827500000014,"noteNumber":59,"velocity":97,"programNumber":3},{"time":237288.6287500048,"duration":93.98499999998603,"noteNumber":64,"velocity":102,"programNumber":3},{"time":237387.3130000048,"duration":112.78200000000652,"noteNumber":59,"velocity":101,"programNumber":3},{"time":237514.1927500048,"duration":93.98499999998603,"noteNumber":63,"velocity":92,"programNumber":3},{"time":237612.87700000478,"duration":112.78200000000652,"noteNumber":59,"velocity":99,"programNumber":3},{"time":237739.75675000477,"duration":93.98499999998603,"noteNumber":64,"velocity":102,"programNumber":3},{"time":237838.44100000476,"duration":112.78200000000652,"noteNumber":59,"velocity":104,"programNumber":3},{"time":237965.32075000476,"duration":93.98499999998603,"noteNumber":63,"velocity":105,"programNumber":3},{"time":238064.00500000475,"duration":122.18049999998766,"noteNumber":59,"velocity":99,"programNumber":3},{"time":238190.88475000474,"duration":103.38349999999627,"noteNumber":71,"velocity":106,"programNumber":3},{"time":238190.88475000474,"duration":112.78200000000652,"noteNumber":59,"velocity":113,"programNumber":3},{"time":238303.66675000475,"duration":108.0827500000014,"noteNumber":59,"velocity":101,"programNumber":3},{"time":238416.44875000475,"duration":108.0827500000014,"noteNumber":69,"velocity":104,"programNumber":3},{"time":238529.23075000476,"duration":103.38349999999627,"noteNumber":59,"velocity":101,"programNumber":3},{"time":238642.01275000477,"duration":108.0827500000014,"noteNumber":68,"velocity":103,"programNumber":3},{"time":238754.79475000477,"duration":108.0827500000014,"noteNumber":59,"velocity":101,"programNumber":3},{"time":238867.57675000478,"duration":108.0827500000014,"noteNumber":69,"velocity":97,"programNumber":3},{"time":238980.3587500048,"duration":108.0827500000014,"noteNumber":59,"velocity":96,"programNumber":3},{"time":239093.1407500048,"duration":108.0827500000014,"noteNumber":68,"velocity":103,"programNumber":3},{"time":239205.9227500048,"duration":108.0827500000014,"noteNumber":59,"velocity":91,"programNumber":3},{"time":239318.7047500048,"duration":108.0827500000014,"noteNumber":66,"velocity":101,"programNumber":3},{"time":239431.4867500048,"duration":108.0827500000014,"noteNumber":59,"velocity":101,"programNumber":3},{"time":239544.26875000482,"duration":108.0827500000014,"noteNumber":68,"velocity":101,"programNumber":3},{"time":239657.05075000483,"duration":108.0827500000014,"noteNumber":59,"velocity":99,"programNumber":3},{"time":239769.83275000483,"duration":108.0827500000014,"noteNumber":64,"velocity":104,"programNumber":3},{"time":239882.61475000484,"duration":108.0827500000014,"noteNumber":59,"velocity":102,"programNumber":3},{"time":239995.39675000485,"duration":108.0827500000014,"noteNumber":66,"velocity":105,"programNumber":3},{"time":240108.17875000485,"duration":108.0827500000014,"noteNumber":59,"velocity":102,"programNumber":3},{"time":240220.96075000486,"duration":108.0827500000014,"noteNumber":63,"velocity":103,"programNumber":3},{"time":240333.74275000487,"duration":108.0827500000014,"noteNumber":59,"velocity":97,"programNumber":3},{"time":240446.52475000487,"duration":108.0827500000014,"noteNumber":64,"velocity":101,"programNumber":3},{"time":240559.30675000488,"duration":108.0827500000014,"noteNumber":59,"velocity":101,"programNumber":3},{"time":240672.08875000488,"duration":108.0827500000014,"noteNumber":63,"velocity":97,"programNumber":3},{"time":240784.8707500049,"duration":108.0827500000014,"noteNumber":59,"velocity":97,"programNumber":3},{"time":240897.6527500049,"duration":108.0827500000014,"noteNumber":64,"velocity":102,"programNumber":3},{"time":241010.4347500049,"duration":108.0827500000014,"noteNumber":59,"velocity":101,"programNumber":3},{"time":241123.2167500049,"duration":98.68424999999115,"noteNumber":63,"velocity":92,"programNumber":3},{"time":241226.6002500049,"duration":117.48125000001164,"noteNumber":59,"velocity":99,"programNumber":3},{"time":241348.78075000492,"duration":108.0827500000014,"noteNumber":64,"velocity":102,"programNumber":3},{"time":241461.56275000493,"duration":108.0827500000014,"noteNumber":59,"velocity":104,"programNumber":3},{"time":241574.34475000494,"duration":108.0827500000014,"noteNumber":63,"velocity":105,"programNumber":3},{"time":241687.12675000494,"duration":108.0827500000014,"noteNumber":59,"velocity":99,"programNumber":3},{"time":241799.90875000495,"duration":108.0827500000014,"noteNumber":71,"velocity":106,"programNumber":3},{"time":241799.90875000495,"duration":112.78200000000652,"noteNumber":59,"velocity":113,"programNumber":3},{"time":241912.69075000496,"duration":98.68424999999115,"noteNumber":59,"velocity":101,"programNumber":3},{"time":242025.47275000493,"duration":108.0827500000014,"noteNumber":69,"velocity":104,"programNumber":3},{"time":242138.25475000494,"duration":98.68424999999115,"noteNumber":59,"velocity":101,"programNumber":3},{"time":242251.03675000492,"duration":98.68424999999115,"noteNumber":68,"velocity":103,"programNumber":3},{"time":242363.8187500049,"duration":93.98499999998603,"noteNumber":59,"velocity":101,"programNumber":3},{"time":242476.60075000487,"duration":103.38349999999627,"noteNumber":69,"velocity":97,"programNumber":3},{"time":242589.38275000488,"duration":108.0827500000014,"noteNumber":59,"velocity":96,"programNumber":3},{"time":242702.1647500049,"duration":108.0827500000014,"noteNumber":68,"velocity":103,"programNumber":3},{"time":242814.9467500049,"duration":108.0827500000014,"noteNumber":59,"velocity":91,"programNumber":3},{"time":242927.7287500049,"duration":98.68424999999115,"noteNumber":66,"velocity":101,"programNumber":3},{"time":243035.8115000049,"duration":103.38349999999627,"noteNumber":59,"velocity":101,"programNumber":3},{"time":243153.29275000488,"duration":93.98499999998603,"noteNumber":68,"velocity":101,"programNumber":3},{"time":243261.37550000485,"duration":112.78200000000652,"noteNumber":59,"velocity":99,"programNumber":3},{"time":243378.85675000487,"duration":98.68424999999115,"noteNumber":64,"velocity":104,"programNumber":3},{"time":243491.63875000484,"duration":108.0827500000014,"noteNumber":59,"velocity":102,"programNumber":3},{"time":243604.42075000485,"duration":108.0827500000014,"noteNumber":66,"velocity":105,"programNumber":3},{"time":243717.20275000486,"duration":103.38349999999627,"noteNumber":59,"velocity":102,"programNumber":3},{"time":243829.98475000486,"duration":93.98499999998603,"noteNumber":63,"velocity":103,"programNumber":3},{"time":243933.36825000486,"duration":117.48125000001164,"noteNumber":59,"velocity":97,"programNumber":3},{"time":244055.54875000488,"duration":98.68424999999115,"noteNumber":64,"velocity":101,"programNumber":3},{"time":244163.63150000488,"duration":103.38349999999627,"noteNumber":59,"velocity":101,"programNumber":3},{"time":244281.11275000486,"duration":98.68424999999115,"noteNumber":63,"velocity":97,"programNumber":3},{"time":244389.19550000486,"duration":112.78200000000652,"noteNumber":59,"velocity":97,"programNumber":3},{"time":244506.67675000487,"duration":108.0827500000014,"noteNumber":64,"velocity":102,"programNumber":3},{"time":244619.45875000488,"duration":103.38349999999627,"noteNumber":59,"velocity":101,"programNumber":3},{"time":244732.2407500049,"duration":108.0827500000014,"noteNumber":63,"velocity":92,"programNumber":3},{"time":244845.0227500049,"duration":108.0827500000014,"noteNumber":59,"velocity":99,"programNumber":3},{"time":244957.8047500049,"duration":108.0827500000014,"noteNumber":64,"velocity":102,"programNumber":3},{"time":245070.5867500049,"duration":98.68424999999115,"noteNumber":59,"velocity":104,"programNumber":3},{"time":245183.36875000488,"duration":108.0827500000014,"noteNumber":63,"velocity":105,"programNumber":3},{"time":245296.1507500049,"duration":98.68424999999115,"noteNumber":59,"velocity":99,"programNumber":3},{"time":245408.93275000487,"duration":108.0827500000014,"noteNumber":71,"velocity":106,"programNumber":3},{"time":245408.93275000487,"duration":112.78200000000652,"noteNumber":59,"velocity":113,"programNumber":3},{"time":245521.71475000487,"duration":108.0827500000014,"noteNumber":59,"velocity":101,"programNumber":3},{"time":245634.49675000488,"duration":108.0827500000014,"noteNumber":69,"velocity":104,"programNumber":3},{"time":245747.2787500049,"duration":108.0827500000014,"noteNumber":59,"velocity":101,"programNumber":3},{"time":245860.0607500049,"duration":108.0827500000014,"noteNumber":68,"velocity":103,"programNumber":3},{"time":245972.8427500049,"duration":98.68424999999115,"noteNumber":59,"velocity":101,"programNumber":3},{"time":246085.62475000488,"duration":108.0827500000014,"noteNumber":69,"velocity":97,"programNumber":3},{"time":246198.40675000488,"duration":108.0827500000014,"noteNumber":59,"velocity":96,"programNumber":3},{"time":246311.1887500049,"duration":108.0827500000014,"noteNumber":68,"velocity":103,"programNumber":3},{"time":246423.9707500049,"duration":108.0827500000014,"noteNumber":59,"velocity":91,"programNumber":3},{"time":246536.7527500049,"duration":108.0827500000014,"noteNumber":66,"velocity":101,"programNumber":3},{"time":246649.5347500049,"duration":108.0827500000014,"noteNumber":59,"velocity":101,"programNumber":3},{"time":246762.31675000492,"duration":108.0827500000014,"noteNumber":68,"velocity":101,"programNumber":3},{"time":246875.09875000492,"duration":108.0827500000014,"noteNumber":59,"velocity":99,"programNumber":3},{"time":246987.88075000493,"duration":108.0827500000014,"noteNumber":64,"velocity":104,"programNumber":3},{"time":247100.66275000494,"duration":108.0827500000014,"noteNumber":59,"velocity":102,"programNumber":3},{"time":247213.44475000494,"duration":108.0827500000014,"noteNumber":66,"velocity":105,"programNumber":3},{"time":247326.22675000495,"duration":108.0827500000014,"noteNumber":59,"velocity":102,"programNumber":3},{"time":247439.00875000496,"duration":98.68424999999115,"noteNumber":63,"velocity":103,"programNumber":3},{"time":247542.39225000495,"duration":117.48125000001164,"noteNumber":59,"velocity":97,"programNumber":3},{"time":247664.57275000497,"duration":108.0827500000014,"noteNumber":64,"velocity":101,"programNumber":3},{"time":247777.35475000498,"duration":98.68424999999115,"noteNumber":59,"velocity":101,"programNumber":3},{"time":247890.13675000495,"duration":108.0827500000014,"noteNumber":63,"velocity":97,"programNumber":3},{"time":248002.91875000496,"duration":98.68424999999115,"noteNumber":59,"velocity":97,"programNumber":3},{"time":248115.70075000494,"duration":108.0827500000014,"noteNumber":64,"velocity":102,"programNumber":3},{"time":248228.48275000494,"duration":98.68424999999115,"noteNumber":59,"velocity":101,"programNumber":3},{"time":248341.26475000492,"duration":108.0827500000014,"noteNumber":63,"velocity":92,"programNumber":3},{"time":248454.04675000493,"duration":98.68424999999115,"noteNumber":59,"velocity":99,"programNumber":3},{"time":248566.8287500049,"duration":103.38349999999627,"noteNumber":64,"velocity":102,"programNumber":3},{"time":248679.6107500049,"duration":98.68424999999115,"noteNumber":59,"velocity":104,"programNumber":3},{"time":248792.3927500049,"duration":108.0827500000014,"noteNumber":63,"velocity":105,"programNumber":3},{"time":248905.1747500049,"duration":93.98499999998603,"noteNumber":59,"velocity":99,"programNumber":3},{"time":249017.95675000487,"duration":108.0827500000014,"noteNumber":71,"velocity":106,"programNumber":3},{"time":249017.95675000487,"duration":112.78200000000652,"noteNumber":59,"velocity":113,"programNumber":3},{"time":249130.73875000488,"duration":108.0827500000014,"noteNumber":59,"velocity":101,"programNumber":3},{"time":249243.5207500049,"duration":108.0827500000014,"noteNumber":69,"velocity":104,"programNumber":3},{"time":249356.3027500049,"duration":108.0827500000014,"noteNumber":59,"velocity":101,"programNumber":3},{"time":249469.0847500049,"duration":108.0827500000014,"noteNumber":68,"velocity":103,"programNumber":3},{"time":249581.8667500049,"duration":108.0827500000014,"noteNumber":59,"velocity":101,"programNumber":3},{"time":249694.6487500049,"duration":98.68424999999115,"noteNumber":69,"velocity":97,"programNumber":3},{"time":249798.0322500049,"duration":108.0827500000014,"noteNumber":59,"velocity":96,"programNumber":3},{"time":249920.2127500049,"duration":98.68424999999115,"noteNumber":68,"velocity":103,"programNumber":3},{"time":250023.5962500049,"duration":103.38349999999627,"noteNumber":59,"velocity":91,"programNumber":3},{"time":250145.77675000488,"duration":98.68424999999115,"noteNumber":66,"velocity":101,"programNumber":3},{"time":250249.16025000488,"duration":103.38349999999627,"noteNumber":59,"velocity":101,"programNumber":3},{"time":250371.34075000486,"duration":108.0827500000014,"noteNumber":68,"velocity":101,"programNumber":3},{"time":250484.12275000487,"duration":108.0827500000014,"noteNumber":59,"velocity":99,"programNumber":3},{"time":250596.90475000488,"duration":108.0827500000014,"noteNumber":64,"velocity":104,"programNumber":3},{"time":250709.68675000488,"duration":98.68424999999115,"noteNumber":59,"velocity":102,"programNumber":3},{"time":250822.46875000486,"duration":98.68424999999115,"noteNumber":66,"velocity":105,"programNumber":3},{"time":250925.85225000486,"duration":108.0827500000014,"noteNumber":59,"velocity":102,"programNumber":3},{"time":251048.03275000484,"duration":98.68424999999115,"noteNumber":63,"velocity":103,"programNumber":3},{"time":251151.41625000484,"duration":117.48125000001164,"noteNumber":59,"velocity":97,"programNumber":3},{"time":251273.59675000486,"duration":108.0827500000014,"noteNumber":64,"velocity":101,"programNumber":3},{"time":251386.37875000486,"duration":108.0827500000014,"noteNumber":59,"velocity":101,"programNumber":3},{"time":251499.16075000487,"duration":108.0827500000014,"noteNumber":63,"velocity":97,"programNumber":3},{"time":251611.94275000488,"duration":108.0827500000014,"noteNumber":59,"velocity":97,"programNumber":3},{"time":251724.72475000488,"duration":108.0827500000014,"noteNumber":64,"velocity":102,"programNumber":3},{"time":251837.5067500049,"duration":108.0827500000014,"noteNumber":59,"velocity":101,"programNumber":3},{"time":251950.2887500049,"duration":108.0827500000014,"noteNumber":63,"velocity":92,"programNumber":3},{"time":252063.0707500049,"duration":108.0827500000014,"noteNumber":59,"velocity":99,"programNumber":3},{"time":252175.8527500049,"duration":108.0827500000014,"noteNumber":64,"velocity":102,"programNumber":3},{"time":252288.63475000492,"duration":108.0827500000014,"noteNumber":59,"velocity":104,"programNumber":3},{"time":252401.41675000492,"duration":108.0827500000014,"noteNumber":63,"velocity":105,"programNumber":3},{"time":252514.19875000493,"duration":108.0827499999723,"noteNumber":59,"velocity":99,"programNumber":3},{"time":252626.9807500049,"duration":108.0827500000014,"noteNumber":71,"velocity":106,"programNumber":3},{"time":252631.6800000049,"duration":108.0827500000014,"noteNumber":59,"velocity":106,"programNumber":3},{"time":252739.7627500049,"duration":108.0827500000014,"noteNumber":59,"velocity":101,"programNumber":3},{"time":252852.54475000492,"duration":108.0827500000014,"noteNumber":69,"velocity":104,"programNumber":3},{"time":252965.32675000493,"duration":108.0827500000014,"noteNumber":59,"velocity":101,"programNumber":3},{"time":253078.10875000493,"duration":108.0827500000014,"noteNumber":68,"velocity":103,"programNumber":3},{"time":253190.89075000494,"duration":108.0827500000014,"noteNumber":59,"velocity":101,"programNumber":3},{"time":253303.67275000495,"duration":108.0827500000014,"noteNumber":69,"velocity":97,"programNumber":3},{"time":253416.45475000495,"duration":108.0827500000014,"noteNumber":59,"velocity":96,"programNumber":3},{"time":253529.23675000496,"duration":108.0827500000014,"noteNumber":68,"velocity":103,"programNumber":3},{"time":253642.01875000497,"duration":108.0827500000014,"noteNumber":59,"velocity":91,"programNumber":3},{"time":253754.80075000497,"duration":108.0827500000014,"noteNumber":66,"velocity":101,"programNumber":3},{"time":253867.58275000498,"duration":108.0827500000014,"noteNumber":59,"velocity":101,"programNumber":3},{"time":253980.36475000498,"duration":108.0827500000014,"noteNumber":68,"velocity":101,"programNumber":3},{"time":254093.146750005,"duration":108.0827500000014,"noteNumber":59,"velocity":99,"programNumber":3},{"time":254205.928750005,"duration":108.0827500000014,"noteNumber":64,"velocity":104,"programNumber":3},{"time":254318.710750005,"duration":108.0827500000014,"noteNumber":59,"velocity":102,"programNumber":3},{"time":254431.492750005,"duration":108.0827500000014,"noteNumber":66,"velocity":105,"programNumber":3},{"time":254544.27475000502,"duration":108.0827500000014,"noteNumber":59,"velocity":102,"programNumber":3},{"time":254657.05675000502,"duration":108.0827500000014,"noteNumber":63,"velocity":103,"programNumber":3},{"time":254769.83875000503,"duration":108.0827500000014,"noteNumber":59,"velocity":97,"programNumber":3},{"time":254882.62075000504,"duration":108.0827500000014,"noteNumber":64,"velocity":101,"programNumber":3},{"time":254995.40275000504,"duration":108.0827500000014,"noteNumber":59,"velocity":101,"programNumber":3},{"time":255108.18475000505,"duration":108.0827500000014,"noteNumber":63,"velocity":97,"programNumber":3},{"time":255220.96675000506,"duration":108.0827500000014,"noteNumber":59,"velocity":97,"programNumber":3},{"time":255333.74875000506,"duration":108.0827500000014,"noteNumber":64,"velocity":102,"programNumber":3},{"time":255446.53075000507,"duration":108.0827500000014,"noteNumber":59,"velocity":101,"programNumber":3},{"time":255559.31275000508,"duration":108.0827500000014,"noteNumber":63,"velocity":92,"programNumber":3},{"time":255672.09475000508,"duration":108.0827500000014,"noteNumber":59,"velocity":99,"programNumber":3},{"time":255784.8767500051,"duration":98.68424999999115,"noteNumber":64,"velocity":102,"programNumber":3},{"time":255888.26025000509,"duration":117.48125000001164,"noteNumber":59,"velocity":104,"programNumber":3},{"time":256010.4407500051,"duration":108.0827500000014,"noteNumber":63,"velocity":105,"programNumber":3},{"time":256123.2227500051,"duration":108.0827500000014,"noteNumber":59,"velocity":99,"programNumber":3},{"time":256236.00475000512,"duration":108.0827500000014,"noteNumber":71,"velocity":106,"programNumber":3},{"time":256240.70400000512,"duration":108.0827500000014,"noteNumber":59,"velocity":106,"programNumber":3},{"time":256348.78675000512,"duration":108.0827500000014,"noteNumber":59,"velocity":101,"programNumber":3},{"time":256461.56875000513,"duration":108.0827500000014,"noteNumber":69,"velocity":104,"programNumber":3},{"time":256574.35075000513,"duration":108.0827500000014,"noteNumber":59,"velocity":101,"programNumber":3},{"time":256687.13275000514,"duration":108.0827500000014,"noteNumber":68,"velocity":103,"programNumber":3},{"time":256799.91475000515,"duration":108.0827500000014,"noteNumber":59,"velocity":101,"programNumber":3},{"time":256912.69675000515,"duration":98.68424999999115,"noteNumber":69,"velocity":97,"programNumber":3},{"time":257025.47875000513,"duration":108.0827500000014,"noteNumber":59,"velocity":96,"programNumber":3},{"time":257138.26075000514,"duration":108.0827500000014,"noteNumber":68,"velocity":103,"programNumber":3},{"time":257251.04275000514,"duration":108.0827500000014,"noteNumber":59,"velocity":91,"programNumber":3},{"time":257363.82475000515,"duration":108.0827500000014,"noteNumber":66,"velocity":101,"programNumber":3},{"time":257476.60675000516,"duration":108.0827500000014,"noteNumber":59,"velocity":101,"programNumber":3},{"time":257589.38875000516,"duration":103.38349999999627,"noteNumber":68,"velocity":101,"programNumber":3},{"time":257702.17075000517,"duration":108.0827500000014,"noteNumber":59,"velocity":99,"programNumber":3},{"time":257814.95275000518,"duration":103.38349999999627,"noteNumber":64,"velocity":104,"programNumber":3},{"time":257927.73475000518,"duration":108.0827500000014,"noteNumber":59,"velocity":102,"programNumber":3},{"time":258040.5167500052,"duration":103.38349999999627,"noteNumber":66,"velocity":105,"programNumber":3},{"time":258153.2987500052,"duration":108.0827500000014,"noteNumber":59,"velocity":102,"programNumber":3},{"time":258266.0807500052,"duration":103.38349999999627,"noteNumber":63,"velocity":103,"programNumber":3},{"time":258378.8627500052,"duration":108.0827500000014,"noteNumber":59,"velocity":97,"programNumber":3},{"time":258491.64475000522,"duration":108.0827500000014,"noteNumber":64,"velocity":101,"programNumber":3},{"time":258604.42675000522,"duration":108.0827500000014,"noteNumber":59,"velocity":101,"programNumber":3},{"time":258717.20875000523,"duration":108.0827500000014,"noteNumber":63,"velocity":97,"programNumber":3},{"time":258829.99075000524,"duration":108.0827500000014,"noteNumber":59,"velocity":97,"programNumber":3},{"time":258942.77275000524,"duration":108.0827500000014,"noteNumber":64,"velocity":102,"programNumber":3},{"time":259055.55475000525,"duration":108.0827500000014,"noteNumber":59,"velocity":101,"programNumber":3},{"time":259168.33675000526,"duration":108.0827500000014,"noteNumber":63,"velocity":92,"programNumber":3},{"time":259281.11875000526,"duration":108.0827500000014,"noteNumber":59,"velocity":99,"programNumber":3},{"time":259393.90075000527,"duration":108.0827500000014,"noteNumber":64,"velocity":102,"programNumber":3},{"time":259506.68275000528,"duration":108.0827500000014,"noteNumber":59,"velocity":104,"programNumber":3},{"time":259619.46475000528,"duration":108.0827500000014,"noteNumber":63,"velocity":105,"programNumber":3},{"time":259732.2467500053,"duration":108.0827500000014,"noteNumber":59,"velocity":99,"programNumber":3},{"time":259845.0287500053,"duration":108.0827500000014,"noteNumber":71,"velocity":106,"programNumber":3},{"time":259845.0287500053,"duration":112.78200000000652,"noteNumber":59,"velocity":106,"programNumber":3},{"time":259957.8107500053,"duration":108.0827500000014,"noteNumber":59,"velocity":101,"programNumber":3},{"time":260070.5927500053,"duration":108.0827500000014,"noteNumber":69,"velocity":104,"programNumber":3},{"time":260183.3747500053,"duration":108.0827500000014,"noteNumber":59,"velocity":101,"programNumber":3},{"time":260296.15675000532,"duration":108.0827500000014,"noteNumber":68,"velocity":103,"programNumber":3},{"time":260408.93875000533,"duration":108.0827500000014,"noteNumber":59,"velocity":101,"programNumber":3},{"time":260521.72075000533,"duration":108.0827500000014,"noteNumber":69,"velocity":97,"programNumber":3},{"time":260634.50275000534,"duration":98.68424999999115,"noteNumber":59,"velocity":96,"programNumber":3},{"time":260747.28475000532,"duration":98.68424999999115,"noteNumber":68,"velocity":103,"programNumber":3},{"time":260855.36750000532,"duration":112.78200000000652,"noteNumber":59,"velocity":91,"programNumber":3},{"time":260972.84875000533,"duration":98.68424999999115,"noteNumber":66,"velocity":101,"programNumber":3},{"time":261076.23225000533,"duration":117.48125000001164,"noteNumber":59,"velocity":101,"programNumber":3},{"time":261198.41275000534,"duration":93.98499999998603,"noteNumber":68,"velocity":101,"programNumber":3},{"time":261301.79625000534,"duration":108.0827500000014,"noteNumber":59,"velocity":99,"programNumber":3},{"time":261423.97675000533,"duration":93.98499999998603,"noteNumber":64,"velocity":104,"programNumber":3},{"time":261527.36025000532,"duration":117.48125000001164,"noteNumber":59,"velocity":102,"programNumber":3},{"time":261649.54075000534,"duration":98.68424999999115,"noteNumber":66,"velocity":105,"programNumber":3},{"time":261762.32275000532,"duration":108.0827500000014,"noteNumber":59,"velocity":102,"programNumber":3},{"time":261875.10475000532,"duration":103.38349999999627,"noteNumber":63,"velocity":103,"programNumber":3},{"time":261987.88675000533,"duration":98.68424999999115,"noteNumber":59,"velocity":97,"programNumber":3},{"time":262100.6687500053,"duration":108.0827500000014,"noteNumber":64,"velocity":101,"programNumber":3},{"time":262213.4507500053,"duration":108.0827500000014,"noteNumber":59,"velocity":101,"programNumber":3},{"time":262326.2327500053,"duration":108.0827500000014,"noteNumber":63,"velocity":97,"programNumber":3},{"time":262439.0147500053,"duration":108.0827500000014,"noteNumber":59,"velocity":97,"programNumber":3},{"time":262551.79675000533,"duration":108.0827500000014,"noteNumber":64,"velocity":102,"programNumber":3},{"time":262664.57875000534,"duration":108.0827500000014,"noteNumber":59,"velocity":101,"programNumber":3},{"time":262777.36075000535,"duration":108.0827500000014,"noteNumber":63,"velocity":92,"programNumber":3},{"time":262890.14275000535,"duration":108.0827500000014,"noteNumber":59,"velocity":99,"programNumber":3},{"time":263002.92475000536,"duration":108.0827500000014,"noteNumber":64,"velocity":102,"programNumber":3},{"time":263115.70675000537,"duration":108.0827500000014,"noteNumber":59,"velocity":104,"programNumber":3},{"time":263228.4887500054,"duration":108.0827500000014,"noteNumber":63,"velocity":105,"programNumber":3},{"time":263341.2707500054,"duration":98.68424999999115,"noteNumber":59,"velocity":99,"programNumber":3},{"time":263454.0527500054,"duration":108.0827500000014,"noteNumber":71,"velocity":106,"programNumber":3},{"time":263454.0527500054,"duration":112.78200000000652,"noteNumber":59,"velocity":106,"programNumber":3},{"time":263566.8347500054,"duration":98.68424999999115,"noteNumber":59,"velocity":101,"programNumber":3},{"time":263679.6167500054,"duration":98.68424999999115,"noteNumber":69,"velocity":104,"programNumber":3},{"time":263783.0002500054,"duration":108.0827500000014,"noteNumber":59,"velocity":101,"programNumber":3},{"time":263905.1807500054,"duration":98.68424999999115,"noteNumber":68,"velocity":103,"programNumber":3},{"time":264008.5642500054,"duration":103.38349999999627,"noteNumber":59,"velocity":101,"programNumber":3},{"time":264130.7447500054,"duration":98.68424999999115,"noteNumber":69,"velocity":97,"programNumber":3},{"time":264234.1282500054,"duration":103.38349999999627,"noteNumber":59,"velocity":96,"programNumber":3},{"time":264356.30875000544,"duration":98.68424999999115,"noteNumber":68,"velocity":103,"programNumber":3},{"time":264459.69225000544,"duration":117.48125000001164,"noteNumber":59,"velocity":91,"programNumber":3},{"time":264581.87275000545,"duration":108.0827500000014,"noteNumber":66,"velocity":101,"programNumber":3},{"time":264694.65475000546,"duration":108.0827500000014,"noteNumber":59,"velocity":101,"programNumber":3},{"time":264807.43675000547,"duration":108.0827500000014,"noteNumber":68,"velocity":101,"programNumber":3},{"time":264920.2187500055,"duration":108.0827500000014,"noteNumber":59,"velocity":99,"programNumber":3},{"time":265033.0007500055,"duration":108.0827500000014,"noteNumber":64,"velocity":104,"programNumber":3},{"time":265145.7827500055,"duration":108.0827500000014,"noteNumber":59,"velocity":102,"programNumber":3},{"time":265258.5647500055,"duration":108.0827500000014,"noteNumber":66,"velocity":105,"programNumber":3},{"time":265371.3467500055,"duration":108.0827500000014,"noteNumber":59,"velocity":102,"programNumber":3},{"time":265484.1287500055,"duration":108.0827500000014,"noteNumber":63,"velocity":103,"programNumber":3},{"time":265596.9107500055,"duration":108.0827500000014,"noteNumber":59,"velocity":97,"programNumber":3},{"time":265709.6927500055,"duration":108.0827500000014,"noteNumber":64,"velocity":101,"programNumber":3},{"time":265822.4747500055,"duration":108.0827500000014,"noteNumber":59,"velocity":101,"programNumber":3},{"time":265935.25675000553,"duration":108.0827500000014,"noteNumber":63,"velocity":97,"programNumber":3},{"time":266048.03875000554,"duration":108.0827500000014,"noteNumber":59,"velocity":97,"programNumber":3},{"time":266160.82075000554,"duration":108.0827500000014,"noteNumber":64,"velocity":102,"programNumber":3},{"time":266273.60275000555,"duration":108.0827500000014,"noteNumber":59,"velocity":101,"programNumber":3},{"time":266386.38475000556,"duration":108.0827500000014,"noteNumber":63,"velocity":92,"programNumber":3},{"time":266499.16675000556,"duration":108.0827500000014,"noteNumber":59,"velocity":99,"programNumber":3},{"time":266611.94875000557,"duration":108.0827500000014,"noteNumber":64,"velocity":102,"programNumber":3},{"time":266724.7307500056,"duration":108.0827500000014,"noteNumber":59,"velocity":104,"programNumber":3},{"time":266837.5127500056,"duration":108.0827500000014,"noteNumber":63,"velocity":105,"programNumber":3},{"time":266950.2947500056,"duration":108.0827500000014,"noteNumber":59,"velocity":99,"programNumber":3},{"time":267063.0767500056,"duration":108.0827500000014,"noteNumber":71,"velocity":106,"programNumber":3},{"time":267067.7760000056,"duration":108.0827500000014,"noteNumber":59,"velocity":106,"programNumber":3},{"time":267175.8587500056,"duration":108.0827500000014,"noteNumber":59,"velocity":101,"programNumber":3},{"time":267288.6407500056,"duration":108.0827500000014,"noteNumber":69,"velocity":104,"programNumber":3},{"time":267401.4227500056,"duration":108.0827500000014,"noteNumber":59,"velocity":101,"programNumber":3},{"time":267514.2047500056,"duration":108.0827500000014,"noteNumber":68,"velocity":103,"programNumber":3},{"time":267626.9867500056,"duration":108.0827500000014,"noteNumber":59,"velocity":101,"programNumber":3},{"time":267739.76875000563,"duration":108.0827500000014,"noteNumber":69,"velocity":97,"programNumber":3},{"time":267852.55075000564,"duration":108.0827500000014,"noteNumber":59,"velocity":96,"programNumber":3},{"time":267965.33275000565,"duration":108.0827500000014,"noteNumber":68,"velocity":103,"programNumber":3},{"time":268078.11475000565,"duration":108.0827500000014,"noteNumber":59,"velocity":91,"programNumber":3},{"time":268190.89675000566,"duration":108.0827500000014,"noteNumber":66,"velocity":101,"programNumber":3},{"time":268303.67875000567,"duration":108.0827500000014,"noteNumber":59,"velocity":101,"programNumber":3},{"time":268416.4607500057,"duration":108.0827500000014,"noteNumber":68,"velocity":101,"programNumber":3},{"time":268529.2427500057,"duration":108.0827500000014,"noteNumber":59,"velocity":99,"programNumber":3},{"time":268642.0247500057,"duration":108.0827500000014,"noteNumber":64,"velocity":104,"programNumber":3},{"time":268754.8067500057,"duration":108.0827500000014,"noteNumber":59,"velocity":102,"programNumber":3},{"time":268867.5887500057,"duration":108.0827500000014,"noteNumber":66,"velocity":105,"programNumber":3},{"time":268980.3707500057,"duration":108.0827500000014,"noteNumber":59,"velocity":102,"programNumber":3},{"time":269093.1527500057,"duration":108.0827500000014,"noteNumber":63,"velocity":103,"programNumber":3},{"time":269205.9347500057,"duration":108.0827500000014,"noteNumber":59,"velocity":97,"programNumber":3},{"time":269318.7167500057,"duration":108.0827500000014,"noteNumber":64,"velocity":101,"programNumber":3},{"time":269431.49875000573,"duration":98.68424999999115,"noteNumber":59,"velocity":101,"programNumber":3},{"time":269544.28075000574,"duration":108.0827500000014,"noteNumber":63,"velocity":97,"programNumber":3},{"time":269657.06275000575,"duration":98.68424999999115,"noteNumber":59,"velocity":97,"programNumber":3},{"time":269769.84475000575,"duration":108.0827500000014,"noteNumber":64,"velocity":102,"programNumber":3},{"time":269882.62675000576,"duration":98.68424999999115,"noteNumber":59,"velocity":101,"programNumber":3},{"time":269995.40875000576,"duration":108.0827500000014,"noteNumber":63,"velocity":92,"programNumber":3},{"time":270108.1907500058,"duration":98.68424999999115,"noteNumber":59,"velocity":99,"programNumber":3},{"time":270220.9727500058,"duration":98.68424999999115,"noteNumber":64,"velocity":102,"programNumber":3},{"time":270324.3562500058,"duration":108.0827500000014,"noteNumber":59,"velocity":104,"programNumber":3},{"time":270446.5367500058,"duration":98.68424999999115,"noteNumber":63,"velocity":105,"programNumber":3},{"time":270549.9202500058,"duration":103.38349999999627,"noteNumber":59,"velocity":99,"programNumber":3},{"time":270672.1007500058,"duration":108.0827500000014,"noteNumber":71,"velocity":106,"programNumber":3},{"time":270676.8000000058,"duration":108.0827500000014,"noteNumber":59,"velocity":106,"programNumber":3},{"time":270784.8827500058,"duration":103.38349999999627,"noteNumber":59,"velocity":101,"programNumber":3},{"time":270897.6647500058,"duration":108.0827500000014,"noteNumber":69,"velocity":104,"programNumber":3},{"time":271010.4467500058,"duration":108.0827500000014,"noteNumber":59,"velocity":101,"programNumber":3},{"time":271123.22875000583,"duration":108.0827500000014,"noteNumber":68,"velocity":103,"programNumber":3},{"time":271236.01075000584,"duration":103.38349999999627,"noteNumber":59,"velocity":101,"programNumber":3},{"time":271348.79275000584,"duration":103.38349999999627,"noteNumber":69,"velocity":97,"programNumber":3},{"time":271461.57475000585,"duration":108.0827500000014,"noteNumber":59,"velocity":96,"programNumber":3},{"time":271574.35675000586,"duration":108.0827500000014,"noteNumber":68,"velocity":103,"programNumber":3},{"time":271687.13875000586,"duration":108.0827500000014,"noteNumber":59,"velocity":91,"programNumber":3},{"time":271799.92075000587,"duration":108.0827500000014,"noteNumber":66,"velocity":101,"programNumber":3},{"time":271912.7027500059,"duration":108.0827500000014,"noteNumber":59,"velocity":101,"programNumber":3},{"time":272025.4847500059,"duration":108.0827500000014,"noteNumber":68,"velocity":101,"programNumber":3},{"time":272138.2667500059,"duration":108.0827500000014,"noteNumber":59,"velocity":99,"programNumber":3},{"time":272251.0487500059,"duration":108.0827500000014,"noteNumber":64,"velocity":104,"programNumber":3},{"time":272363.8307500059,"duration":108.0827500000014,"noteNumber":59,"velocity":102,"programNumber":3},{"time":272476.6127500059,"duration":108.0827500000014,"noteNumber":66,"velocity":105,"programNumber":3},{"time":272589.3947500059,"duration":108.0827500000014,"noteNumber":59,"velocity":102,"programNumber":3},{"time":272702.1767500059,"duration":108.0827500000014,"noteNumber":63,"velocity":103,"programNumber":3},{"time":272814.9587500059,"duration":108.0827500000014,"noteNumber":59,"velocity":97,"programNumber":3},{"time":272927.74075000593,"duration":108.0827500000014,"noteNumber":64,"velocity":101,"programNumber":3},{"time":273040.52275000594,"duration":108.0827500000014,"noteNumber":59,"velocity":101,"programNumber":3},{"time":273153.30475000595,"duration":108.0827500000014,"noteNumber":63,"velocity":97,"programNumber":3},{"time":273266.08675000595,"duration":108.0827500000014,"noteNumber":59,"velocity":97,"programNumber":3},{"time":273378.86875000596,"duration":108.0827500000014,"noteNumber":64,"velocity":102,"programNumber":3},{"time":273491.65075000597,"duration":108.0827500000014,"noteNumber":59,"velocity":101,"programNumber":3},{"time":273604.432750006,"duration":108.0827500000014,"noteNumber":63,"velocity":92,"programNumber":3},{"time":273717.214750006,"duration":108.0827500000014,"noteNumber":59,"velocity":99,"programNumber":3},{"time":273829.996750006,"duration":108.0827500000014,"noteNumber":64,"velocity":102,"programNumber":3},{"time":273942.778750006,"duration":108.0827500000014,"noteNumber":59,"velocity":104,"programNumber":3},{"time":274055.560750006,"duration":108.0827500000014,"noteNumber":63,"velocity":105,"programNumber":3},{"time":274168.342750006,"duration":108.0827500000014,"noteNumber":59,"velocity":99,"programNumber":3},{"time":274281.124750006,"duration":98.68424999999115,"noteNumber":71,"velocity":106,"programNumber":3},{"time":274281.124750006,"duration":108.0827500000014,"noteNumber":59,"velocity":106,"programNumber":3},{"time":274389.207500006,"duration":98.68424999999115,"noteNumber":59,"velocity":101,"programNumber":3},{"time":274506.688750006,"duration":108.0827500000014,"noteNumber":69,"velocity":104,"programNumber":3},{"time":274619.47075000603,"duration":108.0827500000014,"noteNumber":59,"velocity":101,"programNumber":3},{"time":274732.25275000604,"duration":108.0827500000014,"noteNumber":68,"velocity":103,"programNumber":3},{"time":274845.03475000605,"duration":98.68424999999115,"noteNumber":59,"velocity":101,"programNumber":3},{"time":274957.81675000605,"duration":98.68424999999115,"noteNumber":69,"velocity":97,"programNumber":3},{"time":275070.59875000606,"duration":103.38349999999627,"noteNumber":59,"velocity":96,"programNumber":3},{"time":275183.38075000606,"duration":98.68424999999115,"noteNumber":68,"velocity":103,"programNumber":3},{"time":275291.46350000607,"duration":103.38349999999627,"noteNumber":59,"velocity":91,"programNumber":3},{"time":275408.9447500061,"duration":108.0827500000014,"noteNumber":66,"velocity":101,"programNumber":3},{"time":275521.7267500061,"duration":108.0827500000014,"noteNumber":59,"velocity":101,"programNumber":3},{"time":275634.5087500061,"duration":108.0827500000014,"noteNumber":68,"velocity":101,"programNumber":3},{"time":275747.2907500061,"duration":98.68424999999115,"noteNumber":59,"velocity":99,"programNumber":3},{"time":275860.0727500061,"duration":98.68424999999115,"noteNumber":64,"velocity":104,"programNumber":3},{"time":275968.1555000061,"duration":103.38349999999627,"noteNumber":59,"velocity":102,"programNumber":3},{"time":276085.6367500061,"duration":108.0827500000014,"noteNumber":66,"velocity":105,"programNumber":3},{"time":276198.4187500061,"duration":108.0827500000014,"noteNumber":59,"velocity":102,"programNumber":3},{"time":276311.20075000613,"duration":108.0827500000014,"noteNumber":63,"velocity":103,"programNumber":3},{"time":276423.98275000614,"duration":108.0827500000014,"noteNumber":59,"velocity":97,"programNumber":3},{"time":276536.76475000614,"duration":108.0827500000014,"noteNumber":64,"velocity":101,"programNumber":3},{"time":276649.54675000615,"duration":108.0827500000014,"noteNumber":59,"velocity":101,"programNumber":3},{"time":276762.32875000616,"duration":98.68424999999115,"noteNumber":63,"velocity":97,"programNumber":3},{"time":276870.41150000616,"duration":98.68424999999115,"noteNumber":59,"velocity":97,"programNumber":3},{"time":276987.89275000617,"duration":98.68424999999115,"noteNumber":64,"velocity":102,"programNumber":3},{"time":277091.27625000617,"duration":108.0827500000014,"noteNumber":59,"velocity":101,"programNumber":3},{"time":277213.4567500062,"duration":108.0827500000014,"noteNumber":63,"velocity":92,"programNumber":3},{"time":277326.2387500062,"duration":108.0827500000014,"noteNumber":59,"velocity":99,"programNumber":3},{"time":277439.0207500062,"duration":108.0827500000014,"noteNumber":64,"velocity":102,"programNumber":3},{"time":277551.8027500062,"duration":103.38349999999627,"noteNumber":59,"velocity":104,"programNumber":3},{"time":277664.5847500062,"duration":108.0827500000014,"noteNumber":63,"velocity":105,"programNumber":3},{"time":277777.3667500062,"duration":108.0827500000014,"noteNumber":59,"velocity":99,"programNumber":3},{"time":277890.1487500062,"duration":108.0827500000014,"noteNumber":71,"velocity":106,"programNumber":3},{"time":277890.1487500062,"duration":112.78200000000652,"noteNumber":59,"velocity":106,"programNumber":3},{"time":278002.9307500062,"duration":108.0827500000014,"noteNumber":59,"velocity":101,"programNumber":3},{"time":278115.71275000623,"duration":108.0827500000014,"noteNumber":69,"velocity":104,"programNumber":3},{"time":278228.49475000624,"duration":108.0827500000014,"noteNumber":59,"velocity":101,"programNumber":3},{"time":278341.27675000625,"duration":108.0827500000014,"noteNumber":68,"velocity":103,"programNumber":3},{"time":278454.05875000625,"duration":108.0827500000014,"noteNumber":59,"velocity":101,"programNumber":3},{"time":278566.84075000626,"duration":108.0827500000014,"noteNumber":69,"velocity":97,"programNumber":3},{"time":278679.62275000627,"duration":98.68424999999115,"noteNumber":59,"velocity":96,"programNumber":3},{"time":278792.4047500063,"duration":98.68424999999115,"noteNumber":68,"velocity":103,"programNumber":3},{"time":278895.78825000627,"duration":117.48125000001164,"noteNumber":59,"velocity":91,"programNumber":3},{"time":279017.9687500063,"duration":108.0827500000014,"noteNumber":66,"velocity":101,"programNumber":3},{"time":279130.7507500063,"duration":108.0827500000014,"noteNumber":59,"velocity":101,"programNumber":3},{"time":279243.5327500063,"duration":98.68424999999115,"noteNumber":68,"velocity":101,"programNumber":3},{"time":279346.9162500063,"duration":117.48125000001164,"noteNumber":59,"velocity":99,"programNumber":3},{"time":279469.0967500063,"duration":93.98499999998603,"noteNumber":64,"velocity":104,"programNumber":3},{"time":279572.4802500063,"duration":117.48125000001164,"noteNumber":59,"velocity":102,"programNumber":3},{"time":279694.6607500063,"duration":108.0827500000014,"noteNumber":66,"velocity":105,"programNumber":3},{"time":279807.44275000633,"duration":108.0827500000014,"noteNumber":59,"velocity":102,"programNumber":3},{"time":279920.22475000634,"duration":98.68424999999115,"noteNumber":63,"velocity":103,"programNumber":3},{"time":280023.60825000633,"duration":117.48125000001164,"noteNumber":59,"velocity":97,"programNumber":3},{"time":280145.78875000635,"duration":108.0827500000014,"noteNumber":64,"velocity":101,"programNumber":3},{"time":280258.57075000636,"duration":108.0827500000014,"noteNumber":59,"velocity":101,"programNumber":3},{"time":280371.35275000636,"duration":108.0827500000014,"noteNumber":63,"velocity":97,"programNumber":3},{"time":280484.1347500064,"duration":108.0827500000014,"noteNumber":59,"velocity":97,"programNumber":3},{"time":280596.9167500064,"duration":108.0827500000014,"noteNumber":64,"velocity":102,"programNumber":3},{"time":280709.6987500064,"duration":108.0827500000014,"noteNumber":59,"velocity":101,"programNumber":3},{"time":280822.4807500064,"duration":108.0827500000014,"noteNumber":63,"velocity":92,"programNumber":3},{"time":280935.2627500064,"duration":108.0827500000014,"noteNumber":59,"velocity":99,"programNumber":3},{"time":281048.0447500064,"duration":108.0827500000014,"noteNumber":64,"velocity":102,"programNumber":3},{"time":281160.8267500064,"duration":108.0827500000014,"noteNumber":59,"velocity":104,"programNumber":3},{"time":281273.6087500064,"duration":108.0827500000014,"noteNumber":63,"velocity":105,"programNumber":3},{"time":281386.3907500064,"duration":108.0827500000014,"noteNumber":59,"velocity":99,"programNumber":3},{"time":281499.17275000643,"duration":98.68424999999115,"noteNumber":71,"velocity":106,"programNumber":3},{"time":281499.17275000643,"duration":112.78200000000652,"noteNumber":59,"velocity":108,"programNumber":3},{"time":281611.95475000644,"duration":108.0827500000014,"noteNumber":59,"velocity":101,"programNumber":3},{"time":281724.73675000644,"duration":108.0827500000014,"noteNumber":69,"velocity":104,"programNumber":3},{"time":281837.51875000645,"duration":98.68424999999115,"noteNumber":59,"velocity":101,"programNumber":3},{"time":281950.30075000646,"duration":108.0827500000014,"noteNumber":68,"velocity":103,"programNumber":3},{"time":282063.08275000646,"duration":108.0827500000014,"noteNumber":59,"velocity":101,"programNumber":3},{"time":282175.86475000647,"duration":108.0827500000014,"noteNumber":69,"velocity":97,"programNumber":3},{"time":282288.6467500065,"duration":108.0827500000014,"noteNumber":59,"velocity":96,"programNumber":3},{"time":282401.4287500065,"duration":108.0827500000014,"noteNumber":68,"velocity":103,"programNumber":3},{"time":282514.2107500065,"duration":108.0827500000014,"noteNumber":59,"velocity":91,"programNumber":3},{"time":282626.9927500065,"duration":108.0827500000014,"noteNumber":66,"velocity":101,"programNumber":3},{"time":282739.7747500065,"duration":108.0827500000014,"noteNumber":59,"velocity":101,"programNumber":3},{"time":282852.5567500065,"duration":108.0827500000014,"noteNumber":68,"velocity":101,"programNumber":3},{"time":282965.3387500065,"duration":108.0827500000014,"noteNumber":59,"velocity":99,"programNumber":3},{"time":283078.1207500065,"duration":108.0827500000014,"noteNumber":64,"velocity":104,"programNumber":3},{"time":283190.9027500065,"duration":108.0827500000014,"noteNumber":59,"velocity":102,"programNumber":3},{"time":283303.68475000653,"duration":108.0827500000014,"noteNumber":66,"velocity":105,"programNumber":3},{"time":283416.46675000654,"duration":108.0827500000014,"noteNumber":59,"velocity":102,"programNumber":3},{"time":283529.24875000655,"duration":108.0827500000014,"noteNumber":63,"velocity":103,"programNumber":3},{"time":283642.03075000655,"duration":108.0827500000014,"noteNumber":59,"velocity":97,"programNumber":3},{"time":283754.81275000656,"duration":108.0827500000014,"noteNumber":64,"velocity":101,"programNumber":3},{"time":283867.59475000657,"duration":108.0827500000014,"noteNumber":59,"velocity":101,"programNumber":3},{"time":283980.3767500066,"duration":108.0827500000014,"noteNumber":63,"velocity":97,"programNumber":3},{"time":284093.1587500066,"duration":108.0827500000014,"noteNumber":59,"velocity":97,"programNumber":3},{"time":284205.9407500066,"duration":108.0827500000014,"noteNumber":64,"velocity":102,"programNumber":3},{"time":284318.7227500066,"duration":108.0827500000014,"noteNumber":59,"velocity":101,"programNumber":3},{"time":284431.5047500066,"duration":108.0827500000014,"noteNumber":63,"velocity":92,"programNumber":3},{"time":284544.2867500066,"duration":108.0827500000014,"noteNumber":59,"velocity":99,"programNumber":3},{"time":284657.0687500066,"duration":108.0827500000014,"noteNumber":64,"velocity":102,"programNumber":3},{"time":284769.8507500066,"duration":108.0827500000014,"noteNumber":59,"velocity":104,"programNumber":3},{"time":284882.6327500066,"duration":108.0827500000014,"noteNumber":63,"velocity":105,"programNumber":3},{"time":284995.41475000663,"duration":108.0827500000014,"noteNumber":59,"velocity":99,"programNumber":3},{"time":285112.89600000664,"duration":103.38349999999627,"noteNumber":71,"velocity":106,"programNumber":3},{"time":285112.89600000664,"duration":108.0827500000014,"noteNumber":59,"velocity":108,"programNumber":3},{"time":285220.97875000664,"duration":108.0827500000014,"noteNumber":59,"velocity":101,"programNumber":3},{"time":285333.76075000665,"duration":108.0827500000014,"noteNumber":69,"velocity":104,"programNumber":3},{"time":285446.54275000666,"duration":108.0827500000014,"noteNumber":59,"velocity":101,"programNumber":3},{"time":285559.32475000666,"duration":108.0827500000014,"noteNumber":68,"velocity":103,"programNumber":3},{"time":285672.1067500067,"duration":108.0827500000014,"noteNumber":59,"velocity":101,"programNumber":3},{"time":285784.8887500067,"duration":108.0827500000014,"noteNumber":69,"velocity":97,"programNumber":3},{"time":285897.6707500067,"duration":108.0827500000014,"noteNumber":59,"velocity":96,"programNumber":3},{"time":286010.4527500067,"duration":108.0827500000014,"noteNumber":68,"velocity":103,"programNumber":3},{"time":286123.2347500067,"duration":108.0827500000014,"noteNumber":59,"velocity":91,"programNumber":3},{"time":286236.0167500067,"duration":108.0827500000014,"noteNumber":66,"velocity":101,"programNumber":3},{"time":286348.7987500067,"duration":108.0827500000014,"noteNumber":59,"velocity":101,"programNumber":3},{"time":286461.5807500067,"duration":108.0827500000014,"noteNumber":68,"velocity":101,"programNumber":3},{"time":286574.3627500067,"duration":108.0827500000014,"noteNumber":59,"velocity":99,"programNumber":3},{"time":286687.14475000673,"duration":108.0827500000014,"noteNumber":64,"velocity":104,"programNumber":3},{"time":286799.92675000674,"duration":103.38349999999627,"noteNumber":59,"velocity":102,"programNumber":3},{"time":286912.70875000674,"duration":108.0827500000014,"noteNumber":66,"velocity":105,"programNumber":3},{"time":287025.49075000675,"duration":108.0827500000014,"noteNumber":59,"velocity":102,"programNumber":3},{"time":287138.27275000676,"duration":108.0827500000014,"noteNumber":63,"velocity":103,"programNumber":3},{"time":287251.05475000676,"duration":108.0827500000014,"noteNumber":59,"velocity":97,"programNumber":3},{"time":287363.83675000677,"duration":108.0827500000014,"noteNumber":64,"velocity":101,"programNumber":3},{"time":287476.6187500068,"duration":108.0827500000014,"noteNumber":59,"velocity":101,"programNumber":3},{"time":287589.4007500068,"duration":108.0827500000014,"noteNumber":63,"velocity":97,"programNumber":3},{"time":287702.1827500068,"duration":108.0827500000014,"noteNumber":59,"velocity":97,"programNumber":3},{"time":287814.9647500068,"duration":108.0827500000014,"noteNumber":64,"velocity":102,"programNumber":3},{"time":287927.7467500068,"duration":108.0827500000014,"noteNumber":59,"velocity":101,"programNumber":3},{"time":288040.5287500068,"duration":108.0827500000014,"noteNumber":63,"velocity":92,"programNumber":3},{"time":288153.3107500068,"duration":108.0827500000014,"noteNumber":59,"velocity":99,"programNumber":3},{"time":288266.0927500068,"duration":108.0827500000014,"noteNumber":64,"velocity":102,"programNumber":3},{"time":288378.8747500068,"duration":108.0827500000014,"noteNumber":59,"velocity":104,"programNumber":3},{"time":288491.65675000683,"duration":108.0827500000014,"noteNumber":63,"velocity":105,"programNumber":3},{"time":288604.43875000684,"duration":108.0827500000014,"noteNumber":59,"velocity":99,"programNumber":3},{"time":288717.22075000685,"duration":4.699250000005122,"noteNumber":35,"velocity":127,"programNumber":3},{"time":288721.92000000685,"duration":216.1655000000028,"noteNumber":54,"velocity":127,"programNumber":3},{"time":288721.92000000685,"duration":216.1655000000028,"noteNumber":59,"velocity":127,"programNumber":3},{"time":288721.92000000685,"duration":441.72950000001583,"noteNumber":49,"velocity":90,"programNumber":3},{"time":288721.92000000685,"duration":441.72950000001583,"noteNumber":35,"velocity":127,"programNumber":3}]]}