{"tracks":[[{"time":-130.20833333333348,"duration":119.79166666666667,"noteNumber":59,"velocity":98,"programNumber":3},{"time":-5.2083333333334805,"duration":119.79166666666667,"noteNumber":63,"velocity":101,"programNumber":3},{"time":119.79166666666652,"duration":119.79166666666669,"noteNumber":59,"velocity":110,"programNumber":3},{"time":244.79166666666654,"duration":119.79166666666666,"noteNumber":66,"velocity":105,"programNumber":3},{"time":369.7916666666665,"duration":114.58333333333331,"noteNumber":59,"velocity":102,"programNumber":3},{"time":494.7916666666665,"duration":119.79166666666663,"noteNumber":63,"velocity":101,"programNumber":3},{"time":619.7916666666665,"duration":119.79166666666663,"noteNumber":59,"velocity":108,"programNumber":3},{"time":744.7916666666665,"duration":114.58333333333337,"noteNumber":66,"velocity":101,"programNumber":3},{"time":869.7916666666665,"duration":119.79166666666663,"noteNumber":59,"velocity":99,"programNumber":3},{"time":994.7916666666665,"duration":119.79166666666674,"noteNumber":63,"velocity":101,"programNumber":3},{"time":1119.7916666666665,"duration":119.79166666666674,"noteNumber":59,"velocity":104,"programNumber":3},{"time":1244.7916666666665,"duration":119.79166666666674,"noteNumber":66,"velocity":99,"programNumber":3},{"time":1369.7916666666665,"duration":119.79166666666674,"noteNumber":59,"velocity":102,"programNumber":3},{"time":1494.7916666666665,"duration":114.58333333333326,"noteNumber":63,"velocity":99,"programNumber":3},{"time":1614.583333333333,"duration":125,"noteNumber":59,"velocity":99,"programNumber":3},{"time":1744.7916666666663,"duration":119.79166666666674,"noteNumber":66,"velocity":105,"programNumber":3},{"time":1869.7916666666663,"duration":119.79166666666674,"noteNumber":59,"velocity":101,"programNumber":3},{"time":1994.7916666666663,"duration":114.58333333333326,"noteNumber":63,"velocity":103,"programNumber":3},{"time":2109.3749999999995,"duration":125,"noteNumber":59,"velocity":102,"programNumber":3},{"time":2244.791666666666,"duration":119.79166666666652,"noteNumber":66,"velocity":103,"programNumber":3},{"time":2369.791666666666,"duration":119.79166666666652,"noteNumber":59,"velocity":104,"programNumber":3},{"time":2494.791666666666,"duration":119.79166666666652,"noteNumber":63,"velocity":101,"programNumber":3},{"time":2619.791666666666,"duration":119.79166666666652,"noteNumber":59,"velocity":99,"programNumber":3},{"time":2744.791666666666,"duration":119.79166666666652,"noteNumber":66,"velocity":105,"programNumber":3},{"time":2869.791666666666,"duration":114.58333333333348,"noteNumber":59,"velocity":97,"programNumber":3},{"time":2994.791666666666,"duration":109.375,"noteNumber":63,"velocity":105,"programNumber":3},{"time":3114.5833333333326,"duration":114.58333333333348,"noteNumber":59,"velocity":102,"programNumber":3},{"time":3244.791666666666,"duration":119.79166666666652,"noteNumber":66,"velocity":105,"programNumber":3},{"time":3369.791666666666,"duration":109.375,"noteNumber":59,"velocity":99,"programNumber":3},{"time":3494.791666666666,"duration":119.79166666666652,"noteNumber":63,"velocity":103,"programNumber":3},{"time":3619.791666666666,"duration":119.79166666666652,"noteNumber":59,"velocity":99,"programNumber":3},{"time":3744.791666666666,"duration":119.79166666666652,"noteNumber":66,"velocity":103,"programNumber":3},{"time":3869.791666666666,"duration":119.79166666666652,"noteNumber":59,"velocity":97,"programNumber":3},{"time":3994.791666666666,"duration":119.79166666666697,"noteNumber":64,"velocity":104,"programNumber":3},{"time":4119.791666666666,"duration":114.58333333333303,"noteNumber":59,"velocity":102,"programNumber":3},{"time":4244.791666666666,"duration":119.79166666666697,"noteNumber":67,"velocity":101,"programNumber":3},{"time":4369.791666666666,"duration":119.79166666666697,"noteNumber":59,"velocity":99,"programNumber":3},{"time":4494.791666666666,"duration":119.79166666666697,"noteNumber":64,"velocity":104,"programNumber":3},{"time":4619.791666666666,"duration":119.79166666666697,"noteNumber":59,"velocity":102,"programNumber":3},{"time":4744.791666666666,"duration":109.375,"noteNumber":67,"velocity":104,"programNumber":3},{"time":4859.374999999999,"duration":130.20833333333303,"noteNumber":59,"velocity":101,"programNumber":3},{"time":4994.791666666665,"duration":119.79166666666697,"noteNumber":64,"velocity":104,"programNumber":3},{"time":5119.791666666665,"duration":119.79166666666697,"noteNumber":59,"velocity":101,"programNumber":3},{"time":5244.791666666665,"duration":119.79166666666697,"noteNumber":67,"velocity":106,"programNumber":3},{"time":5369.791666666665,"duration":119.79166666666697,"noteNumber":59,"velocity":99,"programNumber":3},{"time":5494.791666666665,"duration":114.58333333333303,"noteNumber":64,"velocity":110,"programNumber":3},{"time":5619.791666666665,"duration":109.375,"noteNumber":59,"velocity":97,"programNumber":3},{"time":5744.791666666665,"duration":119.79166666666697,"noteNumber":67,"velocity":108,"programNumber":3},{"time":5869.791666666665,"duration":119.79166666666697,"noteNumber":59,"velocity":102,"programNumber":3},{"time":5994.791666666665,"duration":119.79166666666697,"noteNumber":64,"velocity":106,"programNumber":3},{"time":6119.791666666665,"duration":104.16666666666697,"noteNumber":59,"velocity":102,"programNumber":3},{"time":6244.791666666665,"duration":119.79166666666697,"noteNumber":67,"velocity":106,"programNumber":3},{"time":6369.791666666665,"duration":119.79166666666697,"noteNumber":59,"velocity":97,"programNumber":3},{"time":6494.791666666665,"duration":119.79166666666697,"noteNumber":64,"velocity":108,"programNumber":3},{"time":6619.791666666665,"duration":109.375,"noteNumber":59,"velocity":99,"programNumber":3},{"time":6744.791666666665,"duration":119.79166666666697,"noteNumber":67,"velocity":104,"programNumber":3},{"time":6869.791666666665,"duration":119.79166666666697,"noteNumber":59,"velocity":104,"programNumber":3},{"time":6994.791666666665,"duration":109.375,"noteNumber":64,"velocity":104,"programNumber":3},{"time":7119.791666666665,"duration":119.79166666666697,"noteNumber":59,"velocity":102,"programNumber":3},{"time":7244.791666666665,"duration":119.79166666666697,"noteNumber":67,"velocity":104,"programNumber":3},{"time":7369.791666666665,"duration":109.375,"noteNumber":59,"velocity":101,"programNumber":3},{"time":7494.791666666665,"duration":104.16666666666697,"noteNumber":64,"velocity":108,"programNumber":3},{"time":7609.374999999999,"duration":130.20833333333303,"noteNumber":59,"velocity":108,"programNumber":3},{"time":7744.791666666665,"duration":119.79166666666697,"noteNumber":67,"velocity":108,"programNumber":3},{"time":7869.791666666665,"duration":109.375,"noteNumber":59,"velocity":102,"programNumber":3},{"time":7994.791666666665,"duration":119.79166666666697,"noteNumber":63,"velocity":101,"programNumber":3},{"time":8119.791666666665,"duration":119.79166666666697,"noteNumber":59,"velocity":110,"programNumber":3},{"time":8244.791666666666,"duration":119.79166666666606,"noteNumber":66,"velocity":105,"programNumber":3},{"time":8369.791666666666,"duration":109.375,"noteNumber":59,"velocity":102,"programNumber":3},{"time":8494.791666666666,"duration":119.79166666666606,"noteNumber":63,"velocity":101,"programNumber":3},{"time":8619.791666666666,"duration":104.16666666666606,"noteNumber":59,"velocity":108,"programNumber":3},{"time":8744.791666666666,"duration":119.79166666666606,"noteNumber":66,"velocity":101,"programNumber":3},{"time":8869.791666666666,"duration":119.79166666666606,"noteNumber":59,"velocity":99,"programNumber":3},{"time":8994.791666666666,"duration":114.58333333333394,"noteNumber":63,"velocity":101,"programNumber":3},{"time":9119.791666666666,"duration":104.16666666666606,"noteNumber":59,"velocity":104,"programNumber":3},{"time":9244.791666666666,"duration":119.79166666666606,"noteNumber":66,"velocity":99,"programNumber":3},{"time":9369.791666666666,"duration":109.375,"noteNumber":59,"velocity":102,"programNumber":3},{"time":9494.791666666666,"duration":119.79166666666606,"noteNumber":63,"velocity":99,"programNumber":3},{"time":9619.791666666666,"duration":109.375,"noteNumber":59,"velocity":99,"programNumber":3},{"time":9744.791666666666,"duration":119.79166666666606,"noteNumber":66,"velocity":105,"programNumber":3},{"time":9869.791666666666,"duration":119.79166666666606,"noteNumber":59,"velocity":101,"programNumber":3},{"time":9994.791666666666,"duration":119.79166666666606,"noteNumber":63,"velocity":103,"programNumber":3},{"time":10119.791666666666,"duration":114.58333333333394,"noteNumber":59,"velocity":102,"programNumber":3},{"time":10244.791666666666,"duration":119.79166666666606,"noteNumber":66,"velocity":103,"programNumber":3},{"time":10369.791666666666,"duration":119.79166666666606,"noteNumber":59,"velocity":104,"programNumber":3},{"time":10494.791666666666,"duration":119.79166666666606,"noteNumber":63,"velocity":101,"programNumber":3},{"time":10619.791666666666,"duration":119.79166666666606,"noteNumber":59,"velocity":99,"programNumber":3},{"time":10744.791666666666,"duration":119.79166666666606,"noteNumber":66,"velocity":105,"programNumber":3},{"time":10869.791666666666,"duration":119.79166666666606,"noteNumber":59,"velocity":97,"programNumber":3},{"time":10994.791666666666,"duration":119.79166666666606,"noteNumber":63,"velocity":105,"programNumber":3},{"time":11119.791666666666,"duration":119.79166666666606,"noteNumber":59,"velocity":102,"programNumber":3},{"time":11244.791666666666,"duration":119.79166666666606,"noteNumber":66,"velocity":105,"programNumber":3},{"time":11369.791666666666,"duration":119.79166666666606,"noteNumber":59,"velocity":99,"programNumber":3},{"time":11494.791666666666,"duration":119.79166666666606,"noteNumber":63,"velocity":103,"programNumber":3},{"time":11619.791666666666,"duration":109.375,"noteNumber":59,"velocity":99,"programNumber":3},{"time":11744.791666666666,"duration":119.79166666666606,"noteNumber":66,"velocity":103,"programNumber":3},{"time":11869.791666666666,"duration":119.79166666666606,"noteNumber":59,"velocity":97,"programNumber":3},{"time":11994.791666666666,"duration":119.79166666666606,"noteNumber":64,"velocity":104,"programNumber":3},{"time":12119.791666666666,"duration":104.16666666666606,"noteNumber":59,"velocity":102,"programNumber":3},{"time":12244.791666666666,"duration":119.79166666666606,"noteNumber":67,"velocity":101,"programNumber":3},{"time":12369.791666666666,"duration":119.79166666666606,"noteNumber":59,"velocity":99,"programNumber":3},{"time":12494.791666666666,"duration":119.79166666666606,"noteNumber":64,"velocity":104,"programNumber":3},{"time":12619.791666666666,"duration":114.58333333333394,"noteNumber":59,"velocity":102,"programNumber":3},{"time":12744.791666666666,"duration":119.79166666666606,"noteNumber":67,"velocity":104,"programNumber":3},{"time":12869.791666666666,"duration":119.79166666666606,"noteNumber":59,"velocity":101,"programNumber":3},{"time":12994.791666666666,"duration":119.79166666666606,"noteNumber":64,"velocity":104,"programNumber":3},{"time":13119.791666666666,"duration":119.79166666666606,"noteNumber":59,"velocity":101,"programNumber":3},{"time":13244.791666666666,"duration":119.79166666666606,"noteNumber":67,"velocity":106,"programNumber":3},{"time":13369.791666666666,"duration":119.79166666666606,"noteNumber":59,"velocity":99,"programNumber":3},{"time":13494.791666666666,"duration":119.79166666666606,"noteNumber":64,"velocity":110,"programNumber":3},{"time":13619.791666666666,"duration":119.79166666666606,"noteNumber":59,"velocity":97,"programNumber":3},{"time":13744.791666666666,"duration":109.375,"noteNumber":67,"velocity":108,"programNumber":3},{"time":13859.375,"duration":119.79166666666606,"noteNumber":59,"velocity":102,"programNumber":3},{"time":13994.791666666666,"duration":109.375,"noteNumber":64,"velocity":106,"programNumber":3},{"time":14109.375,"duration":114.58333333333394,"noteNumber":59,"velocity":102,"programNumber":3},{"time":14244.791666666668,"duration":109.375,"noteNumber":67,"velocity":106,"programNumber":3},{"time":14359.375000000002,"duration":114.58333333333394,"noteNumber":59,"velocity":97,"programNumber":3},{"time":14494.79166666667,"duration":109.375,"noteNumber":64,"velocity":108,"programNumber":3},{"time":14609.375000000004,"duration":114.58333333333394,"noteNumber":59,"velocity":99,"programNumber":3},{"time":14744.791666666672,"duration":119.79166666666606,"noteNumber":67,"velocity":104,"programNumber":3},{"time":14869.791666666672,"duration":119.79166666666606,"noteNumber":59,"velocity":104,"programNumber":3},{"time":14994.791666666672,"duration":109.375,"noteNumber":64,"velocity":104,"programNumber":3},{"time":15109.375000000005,"duration":119.79166666666606,"noteNumber":59,"velocity":102,"programNumber":3},{"time":15244.791666666672,"duration":109.375,"noteNumber":67,"velocity":104,"programNumber":3},{"time":15359.375000000005,"duration":119.79166666666606,"noteNumber":59,"velocity":101,"programNumber":3},{"time":15494.791666666672,"duration":119.79166666666606,"noteNumber":64,"velocity":108,"programNumber":3},{"time":15619.791666666672,"duration":119.79166666666606,"noteNumber":59,"velocity":108,"programNumber":3},{"time":15744.791666666672,"duration":119.79166666666606,"noteNumber":67,"velocity":108,"programNumber":3},{"time":15869.791666666672,"duration":119.79166666666606,"noteNumber":59,"velocity":102,"programNumber":3},{"time":15994.791666666672,"duration":104.16666666666606,"noteNumber":71,"velocity":106,"programNumber":3},{"time":16104.166666666672,"duration":125,"noteNumber":59,"velocity":101,"programNumber":3},{"time":16244.791666666672,"duration":119.79166666666606,"noteNumber":69,"velocity":104,"programNumber":3},{"time":16369.791666666672,"duration":119.79166666666788,"noteNumber":59,"velocity":101,"programNumber":3},{"time":16494.79166666667,"duration":119.79166666666788,"noteNumber":68,"velocity":103,"programNumber":3},{"time":16619.79166666667,"duration":109.375,"noteNumber":59,"velocity":101,"programNumber":3},{"time":16744.79166666667,"duration":109.375,"noteNumber":69,"velocity":97,"programNumber":3},{"time":16859.375000000004,"duration":130.20833333333212,"noteNumber":59,"velocity":96,"programNumber":3},{"time":16994.791666666668,"duration":109.375,"noteNumber":68,"velocity":103,"programNumber":3},{"time":17109.375,"duration":130.20833333333212,"noteNumber":59,"velocity":91,"programNumber":3},{"time":17244.791666666664,"duration":119.79166666666788,"noteNumber":66,"velocity":101,"programNumber":3},{"time":17369.791666666664,"duration":109.375,"noteNumber":59,"velocity":101,"programNumber":3},{"time":17494.791666666664,"duration":119.79166666666788,"noteNumber":68,"velocity":101,"programNumber":3},{"time":17619.791666666664,"duration":119.79166666666788,"noteNumber":59,"velocity":99,"programNumber":3},{"time":17744.791666666664,"duration":119.79166666666788,"noteNumber":64,"velocity":104,"programNumber":3},{"time":17869.791666666664,"duration":119.79166666666788,"noteNumber":59,"velocity":102,"programNumber":3},{"time":17994.791666666664,"duration":119.79166666666788,"noteNumber":66,"velocity":105,"programNumber":3},{"time":18119.791666666664,"duration":119.79166666666788,"noteNumber":59,"velocity":102,"programNumber":3},{"time":18244.791666666664,"duration":119.79166666666788,"noteNumber":63,"velocity":103,"programNumber":3},{"time":18369.791666666664,"duration":119.79166666666788,"noteNumber":59,"velocity":97,"programNumber":3},{"time":18494.791666666664,"duration":119.79166666666788,"noteNumber":64,"velocity":101,"programNumber":3},{"time":18619.791666666664,"duration":119.79166666666788,"noteNumber":59,"velocity":101,"programNumber":3},{"time":18744.791666666664,"duration":119.79166666666788,"noteNumber":63,"velocity":97,"programNumber":3},{"time":18869.791666666664,"duration":119.79166666666788,"noteNumber":59,"velocity":97,"programNumber":3},{"time":18994.791666666664,"duration":119.79166666666788,"noteNumber":64,"velocity":102,"programNumber":3},{"time":19119.791666666664,"duration":119.79166666666788,"noteNumber":59,"velocity":101,"programNumber":3},{"time":19244.791666666664,"duration":109.375,"noteNumber":63,"velocity":92,"programNumber":3},{"time":19369.791666666664,"duration":119.79166666666788,"noteNumber":59,"velocity":99,"programNumber":3},{"time":19494.791666666664,"duration":119.79166666666788,"noteNumber":64,"velocity":102,"programNumber":3},{"time":19619.791666666664,"duration":119.79166666666788,"noteNumber":59,"velocity":104,"programNumber":3},{"time":19744.791666666664,"duration":109.375,"noteNumber":63,"velocity":105,"programNumber":3},{"time":19869.791666666664,"duration":109.375,"noteNumber":59,"velocity":99,"programNumber":3},{"time":19994.791666666664,"duration":109.375,"noteNumber":71,"velocity":106,"programNumber":3},{"time":20119.791666666664,"duration":119.79166666666788,"noteNumber":59,"velocity":101,"programNumber":3},{"time":20244.791666666664,"duration":119.79166666666788,"noteNumber":69,"velocity":104,"programNumber":3},{"time":20369.791666666664,"duration":119.79166666666788,"noteNumber":59,"velocity":101,"programNumber":3},{"time":20494.791666666664,"duration":119.79166666666788,"noteNumber":68,"velocity":103,"programNumber":3},{"time":20619.791666666664,"duration":119.79166666666788,"noteNumber":59,"velocity":101,"programNumber":3},{"time":20744.791666666664,"duration":119.79166666666788,"noteNumber":69,"velocity":97,"programNumber":3},{"time":20869.791666666664,"duration":119.79166666666788,"noteNumber":59,"velocity":96,"programNumber":3},{"time":20994.791666666664,"duration":119.79166666666788,"noteNumber":68,"velocity":103,"programNumber":3},{"time":21119.791666666664,"duration":119.79166666666788,"noteNumber":59,"velocity":91,"programNumber":3},{"time":21244.791666666664,"duration":119.79166666666788,"noteNumber":66,"velocity":101,"programNumber":3},{"time":21369.791666666664,"duration":109.375,"noteNumber":59,"velocity":101,"programNumber":3},{"time":21494.791666666664,"duration":109.375,"noteNumber":68,"velocity":101,"programNumber":3},{"time":21619.791666666664,"duration":119.79166666666788,"noteNumber":59,"velocity":99,"programNumber":3},{"time":21744.791666666664,"duration":119.79166666666788,"noteNumber":64,"velocity":104,"programNumber":3},{"time":21869.791666666664,"duration":119.79166666666788,"noteNumber":59,"velocity":102,"programNumber":3},{"time":21994.791666666664,"duration":119.79166666666788,"noteNumber":66,"velocity":105,"programNumber":3},{"time":22119.791666666664,"duration":109.375,"noteNumber":59,"velocity":102,"programNumber":3},{"time":22244.791666666664,"duration":119.79166666666788,"noteNumber":63,"velocity":103,"programNumber":3},{"time":22369.791666666664,"duration":119.79166666666788,"noteNumber":59,"velocity":97,"programNumber":3},{"time":22494.791666666664,"duration":114.58333333333212,"noteNumber":64,"velocity":101,"programNumber":3},{"time":22619.791666666664,"duration":104.16666666666788,"noteNumber":59,"velocity":101,"programNumber":3},{"time":22744.791666666664,"duration":119.79166666666788,"noteNumber":63,"velocity":97,"programNumber":3},{"time":22869.791666666664,"duration":119.79166666666788,"noteNumber":59,"velocity":97,"programNumber":3},{"time":22994.791666666664,"duration":109.375,"noteNumber":64,"velocity":102,"programNumber":3},{"time":23109.374999999996,"duration":114.58333333333212,"noteNumber":59,"velocity":101,"programNumber":3},{"time":23244.79166666666,"duration":119.79166666666788,"noteNumber":63,"velocity":92,"programNumber":3},{"time":23369.79166666666,"duration":109.375,"noteNumber":59,"velocity":99,"programNumber":3},{"time":23494.79166666666,"duration":119.79166666666788,"noteNumber":64,"velocity":102,"programNumber":3},{"time":23619.79166666666,"duration":109.375,"noteNumber":59,"velocity":104,"programNumber":3},{"time":23744.79166666666,"duration":119.79166666666788,"noteNumber":63,"velocity":105,"programNumber":3},{"time":23869.79166666666,"duration":119.79166666666788,"noteNumber":59,"velocity":99,"programNumber":3},{"time":23994.79166666666,"duration":119.79166666666788,"noteNumber":71,"velocity":106,"programNumber":3},{"time":24119.79166666666,"duration":109.375,"noteNumber":59,"velocity":101,"programNumber":3},{"time":24244.79166666666,"duration":119.79166666666788,"noteNumber":69,"velocity":104,"programNumber":3},{"time":24369.79166666666,"duration":119.79166666666788,"noteNumber":59,"velocity":101,"programNumber":3},{"time":24494.79166666666,"duration":119.79166666666788,"noteNumber":68,"velocity":103,"programNumber":3},{"time":24619.79166666666,"duration":109.375,"noteNumber":59,"velocity":101,"programNumber":3},{"time":24744.79166666666,"duration":119.79166666666788,"noteNumber":69,"velocity":97,"programNumber":3},{"time":24869.79166666666,"duration":119.79166666666788,"noteNumber":59,"velocity":96,"programNumber":3},{"time":24994.79166666666,"duration":119.79166666666788,"noteNumber":68,"velocity":103,"programNumber":3},{"time":25119.79166666666,"duration":119.79166666666788,"noteNumber":59,"velocity":91,"programNumber":3},{"time":25244.79166666666,"duration":119.79166666666788,"noteNumber":66,"velocity":101,"programNumber":3},{"time":25369.79166666666,"duration":119.79166666666788,"noteNumber":59,"velocity":101,"programNumber":3},{"time":25494.79166666666,"duration":119.79166666666788,"noteNumber":68,"velocity":101,"programNumber":3},{"time":25619.79166666666,"duration":119.79166666666788,"noteNumber":59,"velocity":99,"programNumber":3},{"time":25744.79166666666,"duration":119.79166666666788,"noteNumber":64,"velocity":104,"programNumber":3},{"time":25869.79166666666,"duration":119.79166666666788,"noteNumber":59,"velocity":102,"programNumber":3},{"time":25994.79166666666,"duration":119.79166666666788,"noteNumber":66,"velocity":105,"programNumber":3},{"time":26119.79166666666,"duration":109.375,"noteNumber":59,"velocity":102,"programNumber":3},{"time":26244.79166666666,"duration":119.79166666666788,"noteNumber":63,"velocity":103,"programNumber":3},{"time":26369.79166666666,"duration":109.375,"noteNumber":59,"velocity":97,"programNumber":3},{"time":26494.79166666666,"duration":119.79166666666788,"noteNumber":64,"velocity":101,"programNumber":3},{"time":26619.79166666666,"duration":119.79166666666788,"noteNumber":59,"velocity":101,"programNumber":3},{"time":26744.79166666666,"duration":119.79166666666788,"noteNumber":63,"velocity":97,"programNumber":3},{"time":26869.79166666666,"duration":119.79166666666788,"noteNumber":59,"velocity":97,"programNumber":3},{"time":26994.79166666666,"duration":119.79166666666788,"noteNumber":64,"velocity":102,"programNumber":3},{"time":27119.79166666666,"duration":114.58333333333212,"noteNumber":59,"velocity":101,"programNumber":3},{"time":27244.79166666666,"duration":119.79166666666788,"noteNumber":63,"velocity":92,"programNumber":3},{"time":27369.79166666666,"duration":114.58333333333212,"noteNumber":59,"velocity":99,"programNumber":3},{"time":27494.79166666666,"duration":119.79166666666788,"noteNumber":64,"velocity":102,"programNumber":3},{"time":27619.79166666666,"duration":114.58333333333212,"noteNumber":59,"velocity":104,"programNumber":3},{"time":27744.79166666666,"duration":119.79166666666788,"noteNumber":63,"velocity":105,"programNumber":3},{"time":27869.79166666666,"duration":119.79166666666788,"noteNumber":59,"velocity":99,"programNumber":3},{"time":27994.79166666666,"duration":119.79166666666788,"noteNumber":71,"velocity":106,"programNumber":3},{"time":28119.79166666666,"duration":104.16666666666788,"noteNumber":59,"velocity":101,"programNumber":3},{"time":28244.79166666666,"duration":119.79166666666788,"noteNumber":69,"velocity":104,"programNumber":3},{"time":28369.79166666666,"duration":119.79166666666788,"noteNumber":59,"velocity":101,"programNumber":3},{"time":28494.79166666666,"duration":119.79166666666788,"noteNumber":68,"velocity":103,"programNumber":3},{"time":28619.79166666666,"duration":109.375,"noteNumber":59,"velocity":101,"programNumber":3},{"time":28744.79166666666,"duration":109.375,"noteNumber":69,"velocity":97,"programNumber":3},{"time":28859.374999999993,"duration":119.79166666666788,"noteNumber":59,"velocity":96,"programNumber":3},{"time":28994.79166666666,"duration":109.375,"noteNumber":68,"velocity":103,"programNumber":3},{"time":29109.374999999993,"duration":119.79166666666788,"noteNumber":59,"velocity":91,"programNumber":3},{"time":29244.79166666666,"duration":104.16666666666788,"noteNumber":66,"velocity":101,"programNumber":3},{"time":29354.16666666666,"duration":125,"noteNumber":59,"velocity":101,"programNumber":3},{"time":29494.79166666666,"duration":104.16666666666788,"noteNumber":68,"velocity":101,"programNumber":3},{"time":29604.16666666666,"duration":125,"noteNumber":59,"velocity":99,"programNumber":3},{"time":29744.79166666666,"duration":119.79166666666788,"noteNumber":64,"velocity":104,"programNumber":3},{"time":29869.79166666666,"duration":109.375,"noteNumber":59,"velocity":102,"programNumber":3},{"time":29994.79166666666,"duration":109.375,"noteNumber":66,"velocity":105,"programNumber":3},{"time":30109.374999999993,"duration":119.79166666666788,"noteNumber":59,"velocity":102,"programNumber":3},{"time":30244.79166666666,"duration":119.79166666666788,"noteNumber":63,"velocity":103,"programNumber":3},{"time":30369.79166666666,"duration":114.58333333333212,"noteNumber":59,"velocity":97,"programNumber":3},{"time":30494.79166666666,"duration":119.79166666666788,"noteNumber":64,"velocity":101,"programNumber":3},{"time":30619.79166666666,"duration":109.375,"noteNumber":59,"velocity":101,"programNumber":3},{"time":30744.79166666666,"duration":119.79166666666788,"noteNumber":63,"velocity":97,"programNumber":3},{"time":30869.79166666666,"duration":119.79166666666788,"noteNumber":59,"velocity":97,"programNumber":3},{"time":30994.79166666666,"duration":119.79166666666788,"noteNumber":64,"velocity":102,"programNumber":3},{"time":31119.79166666666,"duration":109.375,"noteNumber":59,"velocity":101,"programNumber":3},{"time":31244.79166666666,"duration":119.79166666666788,"noteNumber":63,"velocity":92,"programNumber":3},{"time":31369.79166666666,"duration":109.375,"noteNumber":59,"velocity":99,"programNumber":3},{"time":31494.79166666666,"duration":109.375,"noteNumber":64,"velocity":102,"programNumber":3},{"time":31609.374999999993,"duration":130.20833333333212,"noteNumber":59,"velocity":104,"programNumber":3},{"time":31744.791666666657,"duration":119.79166666666788,"noteNumber":63,"velocity":105,"programNumber":3},{"time":31869.791666666657,"duration":119.79166666666788,"noteNumber":59,"velocity":99,"programNumber":3},{"time":31994.791666666657,"duration":104.16666666666788,"noteNumber":71,"velocity":106,"programNumber":3},{"time":32104.166666666657,"duration":125,"noteNumber":59,"velocity":101,"programNumber":3},{"time":32244.791666666657,"duration":109.375,"noteNumber":69,"velocity":104,"programNumber":3},{"time":32359.37499999999,"duration":130.20833333333212,"noteNumber":59,"velocity":101,"programNumber":3},{"time":32494.791666666653,"duration":104.16666666666788,"noteNumber":68,"velocity":103,"programNumber":3},{"time":32604.166666666653,"duration":135.41666666666788,"noteNumber":59,"velocity":101,"programNumber":3},{"time":32744.791666666653,"duration":119.79166666666788,"noteNumber":69,"velocity":97,"programNumber":3},{"time":32869.79166666666,"duration":119.79166666666424,"noteNumber":59,"velocity":96,"programNumber":3},{"time":32994.79166666666,"duration":119.79166666666424,"noteNumber":68,"velocity":103,"programNumber":3},{"time":33119.79166666666,"duration":119.79166666666424,"noteNumber":59,"velocity":91,"programNumber":3},{"time":33244.79166666666,"duration":119.79166666666424,"noteNumber":66,"velocity":101,"programNumber":3},{"time":33369.79166666666,"duration":109.375,"noteNumber":59,"velocity":101,"programNumber":3},{"time":33494.79166666666,"duration":119.79166666666424,"noteNumber":68,"velocity":101,"programNumber":3},{"time":33619.79166666666,"duration":104.16666666666424,"noteNumber":59,"velocity":99,"programNumber":3},{"time":33744.79166666666,"duration":119.79166666666424,"noteNumber":64,"velocity":104,"programNumber":3},{"time":33869.79166666666,"duration":119.79166666666424,"noteNumber":59,"velocity":102,"programNumber":3},{"time":33994.79166666666,"duration":119.79166666666424,"noteNumber":66,"velocity":105,"programNumber":3},{"time":34119.79166666666,"duration":104.16666666666424,"noteNumber":59,"velocity":102,"programNumber":3},{"time":34244.79166666666,"duration":109.375,"noteNumber":63,"velocity":103,"programNumber":3},{"time":34369.79166666666,"duration":109.375,"noteNumber":59,"velocity":97,"programNumber":3},{"time":34494.79166666666,"duration":109.375,"noteNumber":64,"velocity":101,"programNumber":3},{"time":34619.79166666666,"duration":109.375,"noteNumber":59,"velocity":101,"programNumber":3},{"time":34744.79166666666,"duration":119.79166666666424,"noteNumber":63,"velocity":97,"programNumber":3},{"time":34869.79166666666,"duration":119.79166666666424,"noteNumber":59,"velocity":97,"programNumber":3},{"time":34994.79166666666,"duration":119.79166666666424,"noteNumber":64,"velocity":102,"programNumber":3},{"time":35119.79166666666,"duration":119.79166666666424,"noteNumber":59,"velocity":101,"programNumber":3},{"time":35244.79166666666,"duration":119.79166666666424,"noteNumber":63,"velocity":92,"programNumber":3},{"time":35369.79166666666,"duration":119.79166666666424,"noteNumber":59,"velocity":99,"programNumber":3},{"time":35494.79166666666,"duration":119.79166666666424,"noteNumber":64,"velocity":102,"programNumber":3},{"time":35619.79166666666,"duration":109.375,"noteNumber":59,"velocity":104,"programNumber":3},{"time":35744.79166666666,"duration":119.79166666666424,"noteNumber":63,"velocity":105,"programNumber":3},{"time":35869.79166666666,"duration":109.375,"noteNumber":59,"velocity":99,"programNumber":3},{"time":35994.79166666666,"duration":119.79166666666424,"noteNumber":71,"velocity":106,"programNumber":3},{"time":36119.79166666666,"duration":109.375,"noteNumber":59,"velocity":101,"programNumber":3},{"time":36244.79166666666,"duration":109.375,"noteNumber":69,"velocity":104,"programNumber":3},{"time":36364.58333333332,"duration":125,"noteNumber":59,"velocity":101,"programNumber":3},{"time":36494.79166666666,"duration":109.375,"noteNumber":68,"velocity":103,"programNumber":3},{"time":36609.37499999999,"duration":130.20833333333576,"noteNumber":59,"velocity":101,"programNumber":3},{"time":36744.791666666664,"duration":119.79166666666424,"noteNumber":69,"velocity":97,"programNumber":3},{"time":36869.791666666664,"duration":114.58333333333576,"noteNumber":59,"velocity":96,"programNumber":3},{"time":36994.791666666664,"duration":119.79166666666424,"noteNumber":68,"velocity":103,"programNumber":3},{"time":37119.791666666664,"duration":109.375,"noteNumber":59,"velocity":91,"programNumber":3},{"time":37244.791666666664,"duration":114.58333333333576,"noteNumber":66,"velocity":101,"programNumber":3},{"time":37369.791666666664,"duration":119.79166666666424,"noteNumber":59,"velocity":101,"programNumber":3},{"time":37494.791666666664,"duration":119.79166666666424,"noteNumber":68,"velocity":101,"programNumber":3},{"time":37619.791666666664,"duration":119.79166666666424,"noteNumber":59,"velocity":99,"programNumber":3},{"time":37744.791666666664,"duration":119.79166666666424,"noteNumber":64,"velocity":104,"programNumber":3},{"time":37869.791666666664,"duration":119.79166666666424,"noteNumber":59,"velocity":102,"programNumber":3},{"time":37994.791666666664,"duration":114.58333333333576,"noteNumber":66,"velocity":105,"programNumber":3},{"time":38119.791666666664,"duration":109.375,"noteNumber":59,"velocity":102,"programNumber":3},{"time":38244.791666666664,"duration":119.79166666666424,"noteNumber":63,"velocity":103,"programNumber":3},{"time":38369.791666666664,"duration":109.375,"noteNumber":59,"velocity":97,"programNumber":3},{"time":38494.791666666664,"duration":119.79166666666424,"noteNumber":64,"velocity":101,"programNumber":3},{"time":38619.791666666664,"duration":109.375,"noteNumber":59,"velocity":101,"programNumber":3},{"time":38744.791666666664,"duration":119.79166666666424,"noteNumber":63,"velocity":97,"programNumber":3},{"time":38869.791666666664,"duration":114.58333333333576,"noteNumber":59,"velocity":97,"programNumber":3},{"time":38994.791666666664,"duration":119.79166666666424,"noteNumber":64,"velocity":102,"programNumber":3},{"time":39119.791666666664,"duration":119.79166666666424,"noteNumber":59,"velocity":101,"programNumber":3},{"time":39244.791666666664,"duration":119.79166666666424,"noteNumber":63,"velocity":92,"programNumber":3},{"time":39369.791666666664,"duration":114.58333333333576,"noteNumber":59,"velocity":99,"programNumber":3},{"time":39494.791666666664,"duration":119.79166666666424,"noteNumber":64,"velocity":102,"programNumber":3},{"time":39619.791666666664,"duration":119.79166666666424,"noteNumber":59,"velocity":104,"programNumber":3},{"time":39744.791666666664,"duration":119.79166666666424,"noteNumber":63,"velocity":105,"programNumber":3},{"time":39869.791666666664,"duration":119.79166666666424,"noteNumber":59,"velocity":99,"programNumber":3},{"time":39994.791666666664,"duration":119.79166666666424,"noteNumber":71,"velocity":106,"programNumber":3},{"time":40119.791666666664,"duration":119.79166666666424,"noteNumber":59,"velocity":101,"programNumber":3},{"time":40244.791666666664,"duration":119.79166666666424,"noteNumber":69,"velocity":104,"programNumber":3},{"time":40369.791666666664,"duration":119.79166666666424,"noteNumber":59,"velocity":101,"programNumber":3},{"time":40494.791666666664,"duration":119.79166666666424,"noteNumber":68,"velocity":103,"programNumber":3},{"time":40619.791666666664,"duration":119.79166666666424,"noteNumber":59,"velocity":101,"programNumber":3},{"time":40744.791666666664,"duration":119.79166666666424,"noteNumber":69,"velocity":97,"programNumber":3},{"time":40869.791666666664,"duration":119.79166666666424,"noteNumber":59,"velocity":96,"programNumber":3},{"time":40994.791666666664,"duration":119.79166666666424,"noteNumber":68,"velocity":103,"programNumber":3},{"time":41119.791666666664,"duration":119.79166666666424,"noteNumber":59,"velocity":91,"programNumber":3},{"time":41244.791666666664,"duration":119.79166666666424,"noteNumber":66,"velocity":101,"programNumber":3},{"time":41369.791666666664,"duration":119.79166666666424,"noteNumber":59,"velocity":101,"programNumber":3},{"time":41494.791666666664,"duration":119.79166666666424,"noteNumber":68,"velocity":101,"programNumber":3},{"time":41619.791666666664,"duration":119.79166666666424,"noteNumber":59,"velocity":99,"programNumber":3},{"time":41744.791666666664,"duration":119.79166666666424,"noteNumber":64,"velocity":104,"programNumber":3},{"time":41869.791666666664,"duration":119.79166666666424,"noteNumber":59,"velocity":102,"programNumber":3},{"time":41994.791666666664,"duration":119.79166666666424,"noteNumber":66,"velocity":105,"programNumber":3},{"time":42119.791666666664,"duration":119.79166666666424,"noteNumber":59,"velocity":102,"programNumber":3},{"time":42244.791666666664,"duration":119.79166666666424,"noteNumber":63,"velocity":103,"programNumber":3},{"time":42369.791666666664,"duration":109.375,"noteNumber":59,"velocity":97,"programNumber":3},{"time":42494.791666666664,"duration":119.79166666666424,"noteNumber":64,"velocity":101,"programNumber":3},{"time":42619.791666666664,"duration":119.79166666666424,"noteNumber":59,"velocity":101,"programNumber":3},{"time":42744.791666666664,"duration":119.79166666666424,"noteNumber":63,"velocity":97,"programNumber":3},{"time":42869.791666666664,"duration":119.79166666666424,"noteNumber":59,"velocity":97,"programNumber":3},{"time":42994.791666666664,"duration":119.79166666666424,"noteNumber":64,"velocity":102,"programNumber":3},{"time":43119.791666666664,"duration":119.79166666666424,"noteNumber":59,"velocity":101,"programNumber":3},{"time":43244.791666666664,"duration":109.375,"noteNumber":63,"velocity":92,"programNumber":3},{"time":43359.375,"duration":119.79166666666424,"noteNumber":59,"velocity":99,"programNumber":3},{"time":43494.791666666664,"duration":104.16666666666424,"noteNumber":64,"velocity":102,"programNumber":3},{"time":43604.166666666664,"duration":125,"noteNumber":59,"velocity":104,"programNumber":3},{"time":43744.791666666664,"duration":119.79166666666424,"noteNumber":63,"velocity":105,"programNumber":3},{"time":43869.791666666664,"duration":109.375,"noteNumber":59,"velocity":99,"programNumber":3},{"time":43994.791666666664,"duration":109.375,"noteNumber":71,"velocity":106,"programNumber":3},{"time":44109.375,"duration":119.79166666666424,"noteNumber":59,"velocity":101,"programNumber":3},{"time":44244.791666666664,"duration":119.79166666666424,"noteNumber":69,"velocity":104,"programNumber":3},{"time":44369.791666666664,"duration":119.79166666666424,"noteNumber":59,"velocity":101,"programNumber":3},{"time":44494.791666666664,"duration":119.79166666666424,"noteNumber":68,"velocity":103,"programNumber":3},{"time":44619.791666666664,"duration":104.16666666666424,"noteNumber":59,"velocity":101,"programNumber":3},{"time":44744.791666666664,"duration":109.375,"noteNumber":69,"velocity":97,"programNumber":3},{"time":44859.375,"duration":130.20833333333576,"noteNumber":59,"velocity":96,"programNumber":3},{"time":44994.79166666667,"duration":119.79166666666424,"noteNumber":68,"velocity":103,"programNumber":3},{"time":45119.79166666667,"duration":119.79166666666424,"noteNumber":59,"velocity":91,"programNumber":3},{"time":45244.79166666667,"duration":119.79166666666424,"noteNumber":66,"velocity":101,"programNumber":3},{"time":45369.79166666667,"duration":119.79166666666424,"noteNumber":59,"velocity":101,"programNumber":3},{"time":45494.79166666667,"duration":119.79166666666424,"noteNumber":68,"velocity":101,"programNumber":3},{"time":45619.79166666667,"duration":109.375,"noteNumber":59,"velocity":99,"programNumber":3},{"time":45744.79166666667,"duration":119.79166666666424,"noteNumber":64,"velocity":104,"programNumber":3},{"time":45869.79166666667,"duration":119.79166666666424,"noteNumber":59,"velocity":102,"programNumber":3},{"time":45994.79166666667,"duration":104.16666666666424,"noteNumber":66,"velocity":105,"programNumber":3},{"time":46104.16666666667,"duration":125,"noteNumber":59,"velocity":102,"programNumber":3},{"time":46244.79166666667,"duration":119.79166666666424,"noteNumber":63,"velocity":103,"programNumber":3},{"time":46369.79166666667,"duration":119.79166666666424,"noteNumber":59,"velocity":97,"programNumber":3},{"time":46494.79166666667,"duration":119.79166666666424,"noteNumber":64,"velocity":101,"programNumber":3},{"time":46619.79166666667,"duration":119.79166666666424,"noteNumber":59,"velocity":101,"programNumber":3},{"time":46869.79166666667,"duration":119.79166666666424,"noteNumber":59,"velocity":97,"programNumber":3},{"time":46994.79166666667,"duration":119.79166666666424,"noteNumber":64,"velocity":102,"programNumber":3},{"time":47119.79166666667,"duration":119.79166666666424,"noteNumber":59,"velocity":101,"programNumber":3},{"time":47244.79166666667,"duration":119.79166666666424,"noteNumber":63,"velocity":92,"programNumber":3},{"time":47369.79166666667,"duration":119.79166666666424,"noteNumber":59,"velocity":99,"programNumber":3},{"time":47494.79166666667,"duration":119.79166666666424,"noteNumber":64,"velocity":102,"programNumber":3},{"time":47619.79166666667,"duration":119.79166666666424,"noteNumber":59,"velocity":104,"programNumber":3},{"time":47744.79166666667,"duration":109.375,"noteNumber":63,"velocity":105,"programNumber":3},{"time":47859.37500000001,"duration":130.20833333333576,"noteNumber":59,"velocity":99,"programNumber":3},{"time":47994.79166666668,"duration":119.79166666666424,"noteNumber":71,"velocity":106,"programNumber":3},{"time":48119.79166666668,"duration":119.79166666666424,"noteNumber":59,"velocity":101,"programNumber":3},{"time":48244.79166666668,"duration":119.79166666666424,"noteNumber":69,"velocity":104,"programNumber":3},{"time":48369.79166666668,"duration":109.375,"noteNumber":59,"velocity":101,"programNumber":3},{"time":48494.79166666668,"duration":119.79166666666424,"noteNumber":68,"velocity":103,"programNumber":3},{"time":48619.79166666668,"duration":119.79166666666424,"noteNumber":59,"velocity":101,"programNumber":3},{"time":48744.79166666668,"duration":104.16666666666424,"noteNumber":69,"velocity":97,"programNumber":3},{"time":48869.79166666668,"duration":119.79166666666424,"noteNumber":59,"velocity":96,"programNumber":3},{"time":48994.79166666668,"duration":119.79166666666424,"noteNumber":68,"velocity":103,"programNumber":3},{"time":49119.79166666668,"duration":109.375,"noteNumber":59,"velocity":91,"programNumber":3},{"time":49244.79166666668,"duration":109.375,"noteNumber":66,"velocity":101,"programNumber":3},{"time":49369.79166666668,"duration":109.375,"noteNumber":59,"velocity":101,"programNumber":3},{"time":49494.79166666668,"duration":119.79166666666424,"noteNumber":68,"velocity":101,"programNumber":3},{"time":49619.79166666668,"duration":119.79166666666424,"noteNumber":59,"velocity":99,"programNumber":3},{"time":49744.79166666668,"duration":119.79166666666424,"noteNumber":64,"velocity":104,"programNumber":3},{"time":49869.79166666668,"duration":119.79166666666424,"noteNumber":59,"velocity":102,"programNumber":3},{"time":49994.79166666668,"duration":119.79166666666424,"noteNumber":66,"velocity":105,"programNumber":3},{"time":50119.79166666668,"duration":119.79166666666424,"noteNumber":59,"velocity":102,"programNumber":3},{"time":50244.79166666668,"duration":119.79166666666424,"noteNumber":63,"velocity":103,"programNumber":3},{"time":50369.79166666668,"duration":119.79166666666424,"noteNumber":59,"velocity":97,"programNumber":3},{"time":50494.79166666668,"duration":119.79166666666424,"noteNumber":64,"velocity":101,"programNumber":3},{"time":50619.79166666668,"duration":119.79166666666424,"noteNumber":59,"velocity":101,"programNumber":3},{"time":50744.79166666668,"duration":119.79166666666424,"noteNumber":63,"velocity":97,"programNumber":3},{"time":50869.79166666668,"duration":119.79166666666424,"noteNumber":59,"velocity":97,"programNumber":3},{"time":50994.79166666668,"duration":109.375,"noteNumber":64,"velocity":102,"programNumber":3},{"time":51119.79166666668,"duration":109.375,"noteNumber":59,"velocity":101,"programNumber":3},{"time":51244.79166666668,"duration":119.79166666666424,"noteNumber":63,"velocity":92,"programNumber":3},{"time":51369.79166666668,"duration":109.375,"noteNumber":59,"velocity":99,"programNumber":3},{"time":51494.79166666668,"duration":114.58333333333576,"noteNumber":64,"velocity":102,"programNumber":3},{"time":51619.79166666668,"duration":114.58333333333576,"noteNumber":59,"velocity":104,"programNumber":3},{"time":51744.79166666668,"duration":109.375,"noteNumber":63,"velocity":105,"programNumber":3},{"time":51869.79166666668,"duration":114.58333333333576,"noteNumber":59,"velocity":99,"programNumber":3},{"time":51994.79166666668,"duration":114.58333333333576,"noteNumber":71,"velocity":106,"programNumber":3},{"time":52119.79166666668,"duration":119.79166666666424,"noteNumber":59,"velocity":101,"programNumber":3},{"time":52244.79166666668,"duration":119.79166666666424,"noteNumber":69,"velocity":104,"programNumber":3},{"time":52369.79166666668,"duration":119.79166666666424,"noteNumber":59,"velocity":101,"programNumber":3},{"time":52494.79166666668,"duration":119.79166666666424,"noteNumber":68,"velocity":103,"programNumber":3},{"time":52619.79166666668,"duration":119.79166666666424,"noteNumber":59,"velocity":101,"programNumber":3},{"time":52744.79166666668,"duration":119.79166666666424,"noteNumber":69,"velocity":97,"programNumber":3},{"time":52869.79166666668,"duration":114.58333333333576,"noteNumber":59,"velocity":96,"programNumber":3},{"time":52994.79166666668,"duration":119.79166666666424,"noteNumber":68,"velocity":103,"programNumber":3},{"time":53119.79166666668,"duration":119.79166666666424,"noteNumber":59,"velocity":91,"programNumber":3},{"time":53244.79166666668,"duration":119.79166666666424,"noteNumber":66,"velocity":101,"programNumber":3},{"time":53369.79166666668,"duration":119.79166666666424,"noteNumber":59,"velocity":101,"programNumber":3},{"time":53494.79166666668,"duration":114.58333333333576,"noteNumber":68,"velocity":101,"programNumber":3},{"time":53619.79166666668,"duration":119.79166666666424,"noteNumber":59,"velocity":99,"programNumber":3},{"time":53744.79166666668,"duration":119.79166666666424,"noteNumber":64,"velocity":104,"programNumber":3},{"time":53869.79166666668,"duration":119.79166666666424,"noteNumber":59,"velocity":102,"programNumber":3},{"time":53994.79166666668,"duration":119.79166666666424,"noteNumber":66,"velocity":105,"programNumber":3},{"time":54119.79166666668,"duration":119.79166666666424,"noteNumber":59,"velocity":102,"programNumber":3},{"time":54244.79166666668,"duration":119.79166666666424,"noteNumber":63,"velocity":103,"programNumber":3},{"time":54369.79166666668,"duration":119.79166666666424,"noteNumber":59,"velocity":97,"programNumber":3},{"time":54494.79166666668,"duration":119.79166666666424,"noteNumber":64,"velocity":101,"programNumber":3},{"time":54619.79166666668,"duration":119.79166666666424,"noteNumber":59,"velocity":101,"programNumber":3},{"time":54744.79166666668,"duration":119.79166666666424,"noteNumber":63,"velocity":97,"programNumber":3},{"time":54869.79166666668,"duration":119.79166666666424,"noteNumber":59,"velocity":97,"programNumber":3},{"time":54994.79166666668,"duration":119.79166666666424,"noteNumber":64,"velocity":102,"programNumber":3},{"time":55119.79166666668,"duration":119.79166666666424,"noteNumber":59,"velocity":101,"programNumber":3},{"time":55244.79166666668,"duration":119.79166666666424,"noteNumber":63,"velocity":92,"programNumber":3},{"time":55369.79166666668,"duration":119.79166666666424,"noteNumber":59,"velocity":99,"programNumber":3},{"time":55494.79166666668,"duration":119.79166666666424,"noteNumber":64,"velocity":102,"programNumber":3},{"time":55619.79166666668,"duration":119.79166666666424,"noteNumber":59,"velocity":104,"programNumber":3},{"time":55744.79166666668,"duration":119.79166666666424,"noteNumber":63,"velocity":105,"programNumber":3},{"time":55869.79166666668,"duration":119.79166666666424,"noteNumber":59,"velocity":99,"programNumber":3},{"time":55994.79166666668,"duration":57.29166666666424,"noteNumber":59,"velocity":96,"programNumber":3},{"time":55994.79166666668,"duration":104.16666666666424,"noteNumber":71,"velocity":106,"programNumber":3},{"time":56109.37500000001,"duration":15.625,"noteNumber":59,"velocity":101,"programNumber":3},{"time":56244.79166666667,"duration":119.79166666666424,"noteNumber":69,"velocity":104,"programNumber":3},{"time":56125.00000000001,"duration":244.79166666666424,"noteNumber":59,"velocity":94,"programNumber":3},{"time":56369.79166666667,"duration":109.375,"noteNumber":59,"velocity":101,"programNumber":3},{"time":56494.79166666667,"duration":119.79166666666424,"noteNumber":68,"velocity":103,"programNumber":3},{"time":56494.79166666667,"duration":125,"noteNumber":59,"velocity":96,"programNumber":3},{"time":56619.79166666667,"duration":119.79166666666424,"noteNumber":59,"velocity":101,"programNumber":3},{"time":56744.79166666667,"duration":119.79166666666424,"noteNumber":69,"velocity":97,"programNumber":3},{"time":56869.79166666667,"duration":109.375,"noteNumber":59,"velocity":96,"programNumber":3},{"time":56994.79166666667,"duration":119.79166666666424,"noteNumber":68,"velocity":103,"programNumber":3},{"time":57119.79166666667,"duration":0,"noteNumber":59,"velocity":91,"programNumber":3},{"time":57119.79166666667,"duration":83.33333333333576,"noteNumber":59,"velocity":90,"programNumber":3},{"time":57244.79166666667,"duration":119.79166666666424,"noteNumber":66,"velocity":101,"programNumber":3},{"time":57244.79166666667,"duration":125,"noteNumber":59,"velocity":88,"programNumber":3},{"time":57369.79166666667,"duration":104.16666666666424,"noteNumber":59,"velocity":101,"programNumber":3},{"time":57494.79166666667,"duration":109.375,"noteNumber":68,"velocity":101,"programNumber":3},{"time":57494.79166666667,"duration":114.58333333333576,"noteNumber":59,"velocity":97,"programNumber":3},{"time":57609.37500000001,"duration":114.58333333333576,"noteNumber":59,"velocity":99,"programNumber":3},{"time":57744.79166666668,"duration":119.79166666666424,"noteNumber":64,"velocity":104,"programNumber":3},{"time":57869.79166666668,"duration":119.79166666666424,"noteNumber":59,"velocity":102,"programNumber":3},{"time":57994.79166666668,"duration":52.08333333333576,"noteNumber":59,"velocity":96,"programNumber":3},{"time":57994.79166666668,"duration":109.375,"noteNumber":66,"velocity":105,"programNumber":3},{"time":58119.79166666668,"duration":0,"noteNumber":59,"velocity":102,"programNumber":3},{"time":58244.79166666668,"duration":114.58333333333576,"noteNumber":63,"velocity":103,"programNumber":3},{"time":58119.79166666668,"duration":250,"noteNumber":59,"velocity":94,"programNumber":3},{"time":58369.79166666668,"duration":119.79166666666424,"noteNumber":59,"velocity":97,"programNumber":3},{"time":58494.79166666668,"duration":119.79166666666424,"noteNumber":64,"velocity":101,"programNumber":3},{"time":58494.79166666668,"duration":125,"noteNumber":59,"velocity":96,"programNumber":3},{"time":58619.79166666668,"duration":119.79166666666424,"noteNumber":59,"velocity":101,"programNumber":3},{"time":58744.79166666668,"duration":104.16666666666424,"noteNumber":63,"velocity":97,"programNumber":3},{"time":58864.58333333334,"duration":5.208333333335759,"noteNumber":59,"velocity":97,"programNumber":3},{"time":58869.79166666668,"duration":166.66666666666424,"noteNumber":59,"velocity":94,"programNumber":3},{"time":58994.79166666668,"duration":114.58333333332848,"noteNumber":64,"velocity":102,"programNumber":3},{"time":59119.79166666667,"duration":5.208333333335759,"noteNumber":59,"velocity":101,"programNumber":3},{"time":59125.00000000001,"duration":78.125,"noteNumber":59,"velocity":90,"programNumber":3},{"time":59244.79166666667,"duration":114.58333333333576,"noteNumber":63,"velocity":92,"programNumber":3},{"time":59244.79166666667,"duration":125,"noteNumber":59,"velocity":88,"programNumber":3},{"time":59369.79166666667,"duration":119.79166666666424,"noteNumber":59,"velocity":99,"programNumber":3},{"time":59494.79166666667,"duration":119.79166666666424,"noteNumber":64,"velocity":102,"programNumber":3},{"time":59494.79166666667,"duration":125,"noteNumber":59,"velocity":97,"programNumber":3},{"time":59619.79166666667,"duration":114.58333333333576,"noteNumber":59,"velocity":104,"programNumber":3},{"time":59744.79166666667,"duration":119.79166666666424,"noteNumber":63,"velocity":105,"programNumber":3},{"time":59869.79166666667,"duration":119.79166666666424,"noteNumber":59,"velocity":99,"programNumber":3},{"time":60000.00000000001,"duration":52.08333333333576,"noteNumber":59,"velocity":96,"programNumber":3},{"time":59994.79166666667,"duration":119.79166666667152,"noteNumber":71,"velocity":106,"programNumber":3},{"time":60119.79166666668,"duration":5.208333333335759,"noteNumber":59,"velocity":101,"programNumber":3},{"time":60244.79166666668,"duration":119.79166666666424,"noteNumber":69,"velocity":104,"programNumber":3},{"time":60125.000000000015,"duration":244.79166666666424,"noteNumber":59,"velocity":94,"programNumber":3},{"time":60369.79166666668,"duration":119.79166666666424,"noteNumber":59,"velocity":101,"programNumber":3},{"time":60494.79166666668,"duration":119.79166666666424,"noteNumber":68,"velocity":103,"programNumber":3},{"time":60494.79166666668,"duration":125,"noteNumber":59,"velocity":96,"programNumber":3},{"time":60619.79166666668,"duration":119.79166666666424,"noteNumber":59,"velocity":101,"programNumber":3},{"time":60744.79166666668,"duration":119.79166666666424,"noteNumber":69,"velocity":97,"programNumber":3},{"time":60869.79166666668,"duration":0,"noteNumber":59,"velocity":96,"programNumber":3},{"time":60869.79166666668,"duration":166.66666666666424,"noteNumber":59,"velocity":94,"programNumber":3},{"time":60994.79166666668,"duration":119.79166666666424,"noteNumber":68,"velocity":103,"programNumber":3},{"time":61119.79166666668,"duration":5.208333333335759,"noteNumber":59,"velocity":91,"programNumber":3},{"time":61125.000000000015,"duration":78.125,"noteNumber":59,"velocity":90,"programNumber":3},{"time":61244.79166666668,"duration":119.79166666666424,"noteNumber":66,"velocity":101,"programNumber":3},{"time":61244.79166666668,"duration":125,"noteNumber":59,"velocity":88,"programNumber":3},{"time":61369.79166666668,"duration":119.79166666666424,"noteNumber":59,"velocity":101,"programNumber":3},{"time":61494.79166666668,"duration":119.79166666666424,"noteNumber":68,"velocity":101,"programNumber":3},{"time":61494.79166666668,"duration":125,"noteNumber":59,"velocity":97,"programNumber":3},{"time":61619.79166666668,"duration":119.79166666666424,"noteNumber":59,"velocity":99,"programNumber":3},{"time":61744.79166666668,"duration":119.79166666666424,"noteNumber":64,"velocity":104,"programNumber":3},{"time":61869.79166666668,"duration":119.79166666666424,"noteNumber":59,"velocity":102,"programNumber":3},{"time":62000.000000000015,"duration":52.08333333333576,"noteNumber":59,"velocity":96,"programNumber":3},{"time":61994.79166666668,"duration":119.79166666667152,"noteNumber":66,"velocity":105,"programNumber":3},{"time":62119.791666666686,"duration":0,"noteNumber":59,"velocity":102,"programNumber":3},{"time":62244.791666666686,"duration":119.79166666666424,"noteNumber":63,"velocity":103,"programNumber":3},{"time":62119.791666666686,"duration":250,"noteNumber":59,"velocity":94,"programNumber":3},{"time":62369.791666666686,"duration":119.79166666666424,"noteNumber":59,"velocity":97,"programNumber":3},{"time":62494.791666666686,"duration":119.79166666667152,"noteNumber":64,"velocity":101,"programNumber":3},{"time":62500.00000000002,"duration":119.79166666667152,"noteNumber":59,"velocity":96,"programNumber":3},{"time":62619.79166666669,"duration":119.79166666666424,"noteNumber":59,"velocity":101,"programNumber":3},{"time":62744.79166666669,"duration":119.79166666666424,"noteNumber":63,"velocity":97,"programNumber":3},{"time":62869.79166666669,"duration":119.79166666666424,"noteNumber":59,"velocity":97,"programNumber":3},{"time":62994.79166666669,"duration":119.79166666666424,"noteNumber":64,"velocity":102,"programNumber":3},{"time":63119.79166666669,"duration":5.208333333335759,"noteNumber":59,"velocity":101,"programNumber":3},{"time":63125.00000000003,"duration":78.125,"noteNumber":59,"velocity":90,"programNumber":3},{"time":63244.79166666669,"duration":104.16666666666424,"noteNumber":63,"velocity":92,"programNumber":3},{"time":63244.79166666669,"duration":114.58333333332848,"noteNumber":59,"velocity":88,"programNumber":3},{"time":63359.37500000002,"duration":130.20833333333576,"noteNumber":59,"velocity":99,"programNumber":3},{"time":63494.79166666669,"duration":109.375,"noteNumber":64,"velocity":102,"programNumber":3},{"time":63494.79166666669,"duration":125,"noteNumber":59,"velocity":97,"programNumber":3},{"time":63619.79166666669,"duration":109.375,"noteNumber":59,"velocity":104,"programNumber":3},{"time":63744.79166666669,"duration":114.58333333333576,"noteNumber":63,"velocity":105,"programNumber":3},{"time":63869.79166666669,"duration":109.375,"noteNumber":59,"velocity":99,"programNumber":3},{"time":63994.79166666669,"duration":57.29166666666424,"noteNumber":59,"velocity":96,"programNumber":3},{"time":63994.79166666669,"duration":109.375,"noteNumber":71,"velocity":106,"programNumber":3},{"time":64109.37500000003,"duration":10.416666666664241,"noteNumber":59,"velocity":101,"programNumber":3},{"time":64244.79166666669,"duration":119.79166666666424,"noteNumber":69,"velocity":104,"programNumber":3},{"time":64119.79166666669,"duration":250,"noteNumber":59,"velocity":94,"programNumber":3},{"time":64369.79166666669,"duration":119.79166666666424,"noteNumber":59,"velocity":101,"programNumber":3},{"time":64494.79166666669,"duration":119.79166666666424,"noteNumber":68,"velocity":103,"programNumber":3},{"time":64494.79166666669,"duration":125,"noteNumber":59,"velocity":96,"programNumber":3},{"time":64619.79166666669,"duration":119.79166666666424,"noteNumber":59,"velocity":101,"programNumber":3},{"time":64744.79166666669,"duration":119.79166666666424,"noteNumber":69,"velocity":97,"programNumber":3},{"time":64869.79166666669,"duration":0,"noteNumber":59,"velocity":96,"programNumber":3},{"time":64869.79166666669,"duration":166.66666666666424,"noteNumber":59,"velocity":94,"programNumber":3},{"time":64994.79166666669,"duration":109.375,"noteNumber":68,"velocity":103,"programNumber":3},{"time":65109.37500000003,"duration":15.625,"noteNumber":59,"velocity":91,"programNumber":3},{"time":65125.00000000003,"duration":78.125,"noteNumber":59,"velocity":90,"programNumber":3},{"time":65244.79166666669,"duration":104.16666666666424,"noteNumber":66,"velocity":101,"programNumber":3},{"time":65244.79166666669,"duration":109.375,"noteNumber":59,"velocity":88,"programNumber":3},{"time":65354.16666666669,"duration":135.41666666666424,"noteNumber":59,"velocity":101,"programNumber":3},{"time":65494.79166666669,"duration":104.16666666666424,"noteNumber":68,"velocity":101,"programNumber":3},{"time":65494.79166666669,"duration":109.37499999999272,"noteNumber":59,"velocity":97,"programNumber":3},{"time":65604.16666666669,"duration":135.41666666667152,"noteNumber":59,"velocity":99,"programNumber":3},{"time":65744.79166666669,"duration":109.375,"noteNumber":64,"velocity":104,"programNumber":3},{"time":65859.37500000001,"duration":130.20833333332848,"noteNumber":59,"velocity":102,"programNumber":3},{"time":65994.79166666667,"duration":41.66666666667152,"noteNumber":59,"velocity":96,"programNumber":3},{"time":65994.79166666667,"duration":109.375,"noteNumber":66,"velocity":105,"programNumber":3},{"time":66109.375,"duration":10.416666666671517,"noteNumber":59,"velocity":102,"programNumber":3},{"time":66244.79166666667,"duration":109.375,"noteNumber":63,"velocity":103,"programNumber":3},{"time":66119.79166666667,"duration":239.58333333332848,"noteNumber":59,"velocity":94,"programNumber":3},{"time":66359.375,"duration":114.58333333332848,"noteNumber":59,"velocity":97,"programNumber":3},{"time":66494.79166666666,"duration":109.375,"noteNumber":64,"velocity":101,"programNumber":3},{"time":66494.79166666666,"duration":114.58333333332848,"noteNumber":59,"velocity":96,"programNumber":3},{"time":66609.37499999999,"duration":130.20833333332848,"noteNumber":59,"velocity":101,"programNumber":3},{"time":66744.79166666664,"duration":119.79166666667152,"noteNumber":63,"velocity":97,"programNumber":3},{"time":66869.79166666664,"duration":0,"noteNumber":59,"velocity":97,"programNumber":3},{"time":66869.79166666664,"duration":166.66666666667152,"noteNumber":59,"velocity":94,"programNumber":3},{"time":66994.79166666664,"duration":119.79166666667152,"noteNumber":64,"velocity":102,"programNumber":3},{"time":67119.79166666664,"duration":0,"noteNumber":59,"velocity":101,"programNumber":3},{"time":67119.79166666664,"duration":83.33333333332848,"noteNumber":59,"velocity":90,"programNumber":3},{"time":67244.79166666664,"duration":109.375,"noteNumber":63,"velocity":92,"programNumber":3},{"time":67244.79166666664,"duration":114.58333333332848,"noteNumber":59,"velocity":88,"programNumber":3},{"time":67359.37499999997,"duration":130.20833333332848,"noteNumber":59,"velocity":99,"programNumber":3},{"time":67494.79166666663,"duration":119.79166666667152,"noteNumber":64,"velocity":102,"programNumber":3},{"time":67494.79166666663,"duration":125,"noteNumber":59,"velocity":97,"programNumber":3},{"time":67619.79166666663,"duration":119.79166666667152,"noteNumber":59,"velocity":104,"programNumber":3},{"time":67744.79166666663,"duration":119.79166666667152,"noteNumber":63,"velocity":105,"programNumber":3},{"time":67869.79166666663,"duration":119.79166666667152,"noteNumber":59,"velocity":99,"programNumber":3},{"time":67994.79166666663,"duration":57.29166666667152,"noteNumber":59,"velocity":96,"programNumber":3},{"time":67994.79166666663,"duration":109.375,"noteNumber":71,"velocity":106,"programNumber":3},{"time":68119.79166666663,"duration":0,"noteNumber":59,"velocity":101,"programNumber":3},{"time":68244.79166666663,"duration":119.79166666667152,"noteNumber":69,"velocity":104,"programNumber":3},{"time":68119.79166666663,"duration":250,"noteNumber":59,"velocity":94,"programNumber":3},{"time":68369.79166666663,"duration":119.79166666667152,"noteNumber":59,"velocity":101,"programNumber":3},{"time":68494.79166666663,"duration":119.79166666667152,"noteNumber":68,"velocity":103,"programNumber":3},{"time":68494.79166666663,"duration":125,"noteNumber":59,"velocity":96,"programNumber":3},{"time":68619.79166666663,"duration":119.79166666667152,"noteNumber":59,"velocity":101,"programNumber":3},{"time":68744.79166666663,"duration":119.79166666667152,"noteNumber":69,"velocity":97,"programNumber":3},{"time":68869.79166666663,"duration":119.79166666667152,"noteNumber":59,"velocity":96,"programNumber":3},{"time":68994.79166666663,"duration":119.79166666667152,"noteNumber":68,"velocity":103,"programNumber":3},{"time":69119.79166666663,"duration":5.208333333328483,"noteNumber":59,"velocity":91,"programNumber":3},{"time":69124.99999999996,"duration":78.125,"noteNumber":59,"velocity":90,"programNumber":3},{"time":69244.79166666663,"duration":119.79166666667152,"noteNumber":66,"velocity":101,"programNumber":3},{"time":69244.79166666663,"duration":125,"noteNumber":59,"velocity":88,"programNumber":3},{"time":69369.79166666663,"duration":119.79166666667152,"noteNumber":59,"velocity":101,"programNumber":3},{"time":69494.79166666663,"duration":114.58333333332848,"noteNumber":68,"velocity":101,"programNumber":3},{"time":69494.79166666663,"duration":125,"noteNumber":59,"velocity":97,"programNumber":3},{"time":69619.79166666663,"duration":119.79166666667152,"noteNumber":59,"velocity":99,"programNumber":3},{"time":69744.79166666663,"duration":119.79166666667152,"noteNumber":64,"velocity":104,"programNumber":3},{"time":69869.79166666663,"duration":119.79166666667152,"noteNumber":59,"velocity":102,"programNumber":3},{"time":69994.79166666663,"duration":57.29166666667152,"noteNumber":59,"velocity":96,"programNumber":3},{"time":69994.79166666663,"duration":119.79166666667152,"noteNumber":66,"velocity":105,"programNumber":3},{"time":70119.79166666663,"duration":5.208333333328483,"noteNumber":59,"velocity":102,"programNumber":3},{"time":70244.79166666663,"duration":119.79166666667152,"noteNumber":63,"velocity":103,"programNumber":3},{"time":70124.99999999996,"duration":244.79166666667152,"noteNumber":59,"velocity":94,"programNumber":3},{"time":70369.79166666663,"duration":119.79166666667152,"noteNumber":59,"velocity":97,"programNumber":3},{"time":70494.79166666663,"duration":119.79166666667152,"noteNumber":64,"velocity":101,"programNumber":3},{"time":70494.79166666663,"duration":125,"noteNumber":59,"velocity":96,"programNumber":3},{"time":70619.79166666663,"duration":119.79166666667152,"noteNumber":59,"velocity":101,"programNumber":3},{"time":70744.79166666663,"duration":119.79166666667152,"noteNumber":63,"velocity":97,"programNumber":3},{"time":70869.79166666663,"duration":0,"noteNumber":59,"velocity":97,"programNumber":3},{"time":70869.79166666663,"duration":166.66666666667152,"noteNumber":59,"velocity":94,"programNumber":3},{"time":70994.79166666663,"duration":119.79166666667152,"noteNumber":64,"velocity":102,"programNumber":3},{"time":71119.79166666663,"duration":5.208333333328483,"noteNumber":59,"velocity":101,"programNumber":3},{"time":71124.99999999996,"duration":78.125,"noteNumber":59,"velocity":90,"programNumber":3},{"time":71244.79166666663,"duration":119.79166666667152,"noteNumber":63,"velocity":92,"programNumber":3},{"time":71244.79166666663,"duration":125,"noteNumber":59,"velocity":88,"programNumber":3},{"time":71369.79166666663,"duration":119.79166666667152,"noteNumber":59,"velocity":99,"programNumber":3},{"time":71494.79166666663,"duration":119.79166666667152,"noteNumber":64,"velocity":102,"programNumber":3},{"time":71494.79166666663,"duration":125,"noteNumber":59,"velocity":97,"programNumber":3},{"time":71619.79166666663,"duration":119.79166666667152,"noteNumber":59,"velocity":104,"programNumber":3},{"time":71744.79166666663,"duration":119.79166666667152,"noteNumber":63,"velocity":105,"programNumber":3},{"time":71869.79166666663,"duration":119.79166666667152,"noteNumber":59,"velocity":99,"programNumber":3},{"time":71994.79166666663,"duration":57.29166666667152,"noteNumber":59,"velocity":96,"programNumber":3},{"time":71994.79166666663,"duration":119.79166666667152,"noteNumber":71,"velocity":106,"programNumber":3},{"time":72119.79166666663,"duration":0,"noteNumber":59,"velocity":101,"programNumber":3},{"time":72244.79166666663,"duration":109.375,"noteNumber":69,"velocity":104,"programNumber":3},{"time":72119.79166666663,"duration":239.58333333332848,"noteNumber":59,"velocity":94,"programNumber":3},{"time":72359.37499999996,"duration":119.79166666667152,"noteNumber":59,"velocity":101,"programNumber":3},{"time":72494.79166666663,"duration":109.375,"noteNumber":68,"velocity":103,"programNumber":3},{"time":72494.79166666663,"duration":114.58333333332848,"noteNumber":59,"velocity":96,"programNumber":3},{"time":72609.37499999996,"duration":130.20833333332848,"noteNumber":59,"velocity":101,"programNumber":3},{"time":72744.79166666661,"duration":104.16666666667152,"noteNumber":69,"velocity":97,"programNumber":3},{"time":72854.16666666661,"duration":15.625,"noteNumber":59,"velocity":96,"programNumber":3},{"time":72869.79166666661,"duration":166.66666666667152,"noteNumber":59,"velocity":94,"programNumber":3},{"time":72994.79166666661,"duration":109.375,"noteNumber":68,"velocity":103,"programNumber":3},{"time":73109.37499999994,"duration":15.625,"noteNumber":59,"velocity":91,"programNumber":3},{"time":73124.99999999994,"duration":78.125,"noteNumber":59,"velocity":90,"programNumber":3},{"time":73244.79166666661,"duration":109.375,"noteNumber":66,"velocity":101,"programNumber":3},{"time":73244.79166666661,"duration":114.58333333332848,"noteNumber":59,"velocity":88,"programNumber":3},{"time":73359.37499999994,"duration":119.79166666667152,"noteNumber":59,"velocity":101,"programNumber":3},{"time":73494.79166666661,"duration":119.79166666667152,"noteNumber":68,"velocity":101,"programNumber":3},{"time":73494.79166666661,"duration":125,"noteNumber":59,"velocity":97,"programNumber":3},{"time":73619.79166666661,"duration":119.79166666667152,"noteNumber":59,"velocity":99,"programNumber":3},{"time":73744.79166666661,"duration":119.79166666667152,"noteNumber":64,"velocity":104,"programNumber":3},{"time":73869.79166666661,"duration":109.375,"noteNumber":59,"velocity":102,"programNumber":3},{"time":73994.79166666661,"duration":57.29166666667152,"noteNumber":59,"velocity":96,"programNumber":3},{"time":73994.79166666661,"duration":119.79166666667152,"noteNumber":66,"velocity":105,"programNumber":3},{"time":74119.79166666661,"duration":5.208333333328483,"noteNumber":59,"velocity":102,"programNumber":3},{"time":74244.79166666661,"duration":119.79166666667152,"noteNumber":63,"velocity":103,"programNumber":3},{"time":74124.99999999994,"duration":244.79166666667152,"noteNumber":59,"velocity":94,"programNumber":3},{"time":74369.79166666661,"duration":119.79166666667152,"noteNumber":59,"velocity":97,"programNumber":3},{"time":74494.79166666661,"duration":119.79166666667152,"noteNumber":64,"velocity":101,"programNumber":3},{"time":74494.79166666661,"duration":125,"noteNumber":59,"velocity":96,"programNumber":3},{"time":74619.79166666661,"duration":119.79166666667152,"noteNumber":59,"velocity":101,"programNumber":3},{"time":74744.79166666661,"duration":109.375,"noteNumber":63,"velocity":97,"programNumber":3},{"time":74859.37499999994,"duration":10.416666666671517,"noteNumber":59,"velocity":97,"programNumber":3},{"time":74869.79166666661,"duration":166.66666666667152,"noteNumber":59,"velocity":94,"programNumber":3},{"time":74994.79166666661,"duration":109.375,"noteNumber":64,"velocity":102,"programNumber":3},{"time":75109.37499999994,"duration":15.625,"noteNumber":59,"velocity":101,"programNumber":3},{"time":75124.99999999994,"duration":78.125,"noteNumber":59,"velocity":90,"programNumber":3},{"time":75244.79166666661,"duration":109.375,"noteNumber":63,"velocity":92,"programNumber":3},{"time":75244.79166666661,"duration":114.58333333332848,"noteNumber":59,"velocity":88,"programNumber":3},{"time":75359.37499999994,"duration":119.79166666667152,"noteNumber":59,"velocity":99,"programNumber":3},{"time":75494.79166666661,"duration":119.79166666667152,"noteNumber":64,"velocity":102,"programNumber":3},{"time":75494.79166666661,"duration":125,"noteNumber":59,"velocity":97,"programNumber":3},{"time":75619.79166666661,"duration":119.79166666667152,"noteNumber":59,"velocity":104,"programNumber":3},{"time":75744.79166666661,"duration":119.79166666667152,"noteNumber":63,"velocity":105,"programNumber":3},{"time":75869.79166666661,"duration":119.79166666667152,"noteNumber":59,"velocity":99,"programNumber":3},{"time":75994.79166666661,"duration":57.29166666667152,"noteNumber":59,"velocity":96,"programNumber":3},{"time":75994.79166666661,"duration":119.79166666667152,"noteNumber":71,"velocity":106,"programNumber":3},{"time":76119.79166666661,"duration":5.208333333328483,"noteNumber":59,"velocity":101,"programNumber":3},{"time":76244.79166666661,"duration":119.79166666667152,"noteNumber":69,"velocity":104,"programNumber":3},{"time":76124.99999999994,"duration":244.79166666667152,"noteNumber":59,"velocity":94,"programNumber":3},{"time":76369.79166666661,"duration":119.79166666667152,"noteNumber":59,"velocity":101,"programNumber":3},{"time":76494.79166666661,"duration":119.79166666665697,"noteNumber":68,"velocity":103,"programNumber":3},{"time":76499.99999999994,"duration":119.79166666665697,"noteNumber":59,"velocity":96,"programNumber":3},{"time":76619.7916666666,"duration":119.79166666667152,"noteNumber":59,"velocity":101,"programNumber":3},{"time":76744.7916666666,"duration":119.79166666667152,"noteNumber":69,"velocity":97,"programNumber":3},{"time":76869.7916666666,"duration":0,"noteNumber":59,"velocity":96,"programNumber":3},{"time":76869.7916666666,"duration":166.66666666667152,"noteNumber":59,"velocity":94,"programNumber":3},{"time":76994.7916666666,"duration":119.79166666667152,"noteNumber":68,"velocity":103,"programNumber":3},{"time":77119.7916666666,"duration":5.208333333328483,"noteNumber":59,"velocity":91,"programNumber":3},{"time":77124.99999999993,"duration":78.125,"noteNumber":59,"velocity":90,"programNumber":3},{"time":77244.7916666666,"duration":109.375,"noteNumber":66,"velocity":101,"programNumber":3},{"time":77249.99999999993,"duration":109.375,"noteNumber":59,"velocity":88,"programNumber":3},{"time":77359.37499999993,"duration":119.79166666667152,"noteNumber":59,"velocity":101,"programNumber":3},{"time":77494.7916666666,"duration":119.79166666667152,"noteNumber":68,"velocity":101,"programNumber":3},{"time":77494.7916666666,"duration":125,"noteNumber":59,"velocity":97,"programNumber":3},{"time":77619.7916666666,"duration":109.375,"noteNumber":59,"velocity":99,"programNumber":3},{"time":77744.7916666666,"duration":119.79166666667152,"noteNumber":64,"velocity":104,"programNumber":3},{"time":77869.7916666666,"duration":109.375,"noteNumber":59,"velocity":102,"programNumber":3},{"time":77994.7916666666,"duration":57.29166666667152,"noteNumber":59,"velocity":96,"programNumber":3},{"time":77994.7916666666,"duration":119.79166666667152,"noteNumber":66,"velocity":105,"programNumber":3},{"time":78119.7916666666,"duration":5.208333333328483,"noteNumber":59,"velocity":102,"programNumber":3},{"time":78244.7916666666,"duration":119.79166666667152,"noteNumber":63,"velocity":103,"programNumber":3},{"time":78124.99999999993,"duration":244.79166666667152,"noteNumber":59,"velocity":94,"programNumber":3},{"time":78369.7916666666,"duration":119.79166666667152,"noteNumber":59,"velocity":97,"programNumber":3},{"time":78494.7916666666,"duration":119.79166666667152,"noteNumber":64,"velocity":101,"programNumber":3},{"time":78494.7916666666,"duration":125,"noteNumber":59,"velocity":96,"programNumber":3},{"time":78619.7916666666,"duration":119.79166666667152,"noteNumber":59,"velocity":101,"programNumber":3},{"time":78744.7916666666,"duration":119.79166666667152,"noteNumber":63,"velocity":97,"programNumber":3},{"time":78869.7916666666,"duration":119.79166666667152,"noteNumber":59,"velocity":97,"programNumber":3},{"time":78994.7916666666,"duration":119.79166666667152,"noteNumber":64,"velocity":102,"programNumber":3},{"time":79119.7916666666,"duration":5.208333333328483,"noteNumber":59,"velocity":101,"programNumber":3},{"time":79124.99999999993,"duration":78.125,"noteNumber":59,"velocity":90,"programNumber":3},{"time":79244.7916666666,"duration":119.79166666667152,"noteNumber":63,"velocity":92,"programNumber":3},{"time":79244.7916666666,"duration":125,"noteNumber":59,"velocity":88,"programNumber":3},{"time":79369.7916666666,"duration":119.79166666667152,"noteNumber":59,"velocity":99,"programNumber":3},{"time":79494.7916666666,"duration":119.79166666667152,"noteNumber":64,"velocity":102,"programNumber":3},{"time":79494.7916666666,"duration":125,"noteNumber":59,"velocity":97,"programNumber":3},{"time":79619.7916666666,"duration":119.79166666667152,"noteNumber":59,"velocity":104,"programNumber":3},{"time":79744.7916666666,"duration":104.16666666667152,"noteNumber":63,"velocity":105,"programNumber":3},{"time":79854.1666666666,"duration":125,"noteNumber":59,"velocity":99,"programNumber":3},{"time":79994.7916666666,"duration":46.875,"noteNumber":59,"velocity":96,"programNumber":3},{"time":79994.7916666666,"duration":104.16666666667152,"noteNumber":71,"velocity":106,"programNumber":3},{"time":80104.1666666666,"duration":15.625,"noteNumber":59,"velocity":101,"programNumber":3},{"time":80244.7916666666,"duration":109.375,"noteNumber":69,"velocity":104,"programNumber":3},{"time":80119.7916666666,"duration":239.58333333332848,"noteNumber":59,"velocity":94,"programNumber":3},{"time":80359.37499999993,"duration":119.79166666667152,"noteNumber":59,"velocity":101,"programNumber":3},{"time":80494.7916666666,"duration":109.375,"noteNumber":68,"velocity":103,"programNumber":3},{"time":80494.7916666666,"duration":114.58333333332848,"noteNumber":59,"velocity":96,"programNumber":3},{"time":80609.37499999993,"duration":119.79166666667152,"noteNumber":59,"velocity":101,"programNumber":3},{"time":80744.7916666666,"duration":119.79166666667152,"noteNumber":69,"velocity":97,"programNumber":3},{"time":80869.7916666666,"duration":0,"noteNumber":59,"velocity":96,"programNumber":3},{"time":80869.7916666666,"duration":166.66666666667152,"noteNumber":59,"velocity":94,"programNumber":3},{"time":80994.7916666666,"duration":109.375,"noteNumber":68,"velocity":103,"programNumber":3},{"time":81109.37499999993,"duration":10.416666666671517,"noteNumber":59,"velocity":91,"programNumber":3},{"time":81119.7916666666,"duration":83.33333333332848,"noteNumber":59,"velocity":90,"programNumber":3},{"time":81244.7916666666,"duration":109.375,"noteNumber":66,"velocity":101,"programNumber":3},{"time":81244.7916666666,"duration":114.58333333332848,"noteNumber":59,"velocity":88,"programNumber":3},{"time":81359.37499999993,"duration":130.20833333332848,"noteNumber":59,"velocity":101,"programNumber":3},{"time":81494.79166666658,"duration":119.79166666665697,"noteNumber":68,"velocity":101,"programNumber":3},{"time":81499.99999999991,"duration":119.79166666665697,"noteNumber":59,"velocity":97,"programNumber":3},{"time":81619.79166666657,"duration":119.79166666667152,"noteNumber":59,"velocity":99,"programNumber":3},{"time":81744.79166666657,"duration":119.79166666667152,"noteNumber":64,"velocity":104,"programNumber":3},{"time":81869.79166666657,"duration":119.79166666667152,"noteNumber":59,"velocity":102,"programNumber":3},{"time":81994.79166666657,"duration":57.29166666667152,"noteNumber":59,"velocity":96,"programNumber":3},{"time":81994.79166666657,"duration":119.79166666667152,"noteNumber":66,"velocity":105,"programNumber":3},{"time":82119.79166666657,"duration":5.208333333328483,"noteNumber":59,"velocity":102,"programNumber":3},{"time":82244.79166666657,"duration":119.79166666667152,"noteNumber":63,"velocity":103,"programNumber":3},{"time":82124.9999999999,"duration":244.79166666667152,"noteNumber":59,"velocity":94,"programNumber":3},{"time":82369.79166666657,"duration":119.79166666667152,"noteNumber":59,"velocity":97,"programNumber":3},{"time":82494.79166666657,"duration":119.79166666667152,"noteNumber":64,"velocity":101,"programNumber":3},{"time":82494.79166666657,"duration":125,"noteNumber":59,"velocity":96,"programNumber":3},{"time":82619.79166666657,"duration":109.375,"noteNumber":59,"velocity":101,"programNumber":3},{"time":82744.79166666657,"duration":119.79166666667152,"noteNumber":63,"velocity":97,"programNumber":3},{"time":82869.79166666657,"duration":0,"noteNumber":59,"velocity":97,"programNumber":3},{"time":82869.79166666657,"duration":166.66666666667152,"noteNumber":59,"velocity":94,"programNumber":3},{"time":82994.79166666657,"duration":119.79166666667152,"noteNumber":64,"velocity":102,"programNumber":3},{"time":83119.79166666657,"duration":5.208333333328483,"noteNumber":59,"velocity":101,"programNumber":3},{"time":83124.9999999999,"duration":78.125,"noteNumber":59,"velocity":90,"programNumber":3},{"time":83244.79166666657,"duration":119.79166666667152,"noteNumber":63,"velocity":92,"programNumber":3},{"time":83244.79166666657,"duration":125,"noteNumber":59,"velocity":88,"programNumber":3},{"time":83369.79166666657,"duration":119.79166666667152,"noteNumber":59,"velocity":99,"programNumber":3},{"time":83494.79166666657,"duration":119.79166666667152,"noteNumber":64,"velocity":102,"programNumber":3},{"time":83494.79166666657,"duration":125,"noteNumber":59,"velocity":97,"programNumber":3},{"time":83619.79166666657,"duration":119.79166666667152,"noteNumber":59,"velocity":104,"programNumber":3},{"time":83744.79166666657,"duration":119.79166666667152,"noteNumber":63,"velocity":105,"programNumber":3},{"time":83869.79166666657,"duration":119.79166666667152,"noteNumber":59,"velocity":99,"programNumber":3},{"time":83999.9999999999,"duration":52.08333333332848,"noteNumber":59,"velocity":96,"programNumber":3},{"time":83994.79166666657,"duration":119.79166666665697,"noteNumber":71,"velocity":106,"programNumber":3},{"time":84119.79166666656,"duration":5.208333333328483,"noteNumber":59,"velocity":101,"programNumber":3},{"time":84244.79166666656,"duration":119.79166666667152,"noteNumber":69,"velocity":104,"programNumber":3},{"time":84124.99999999988,"duration":244.79166666667152,"noteNumber":59,"velocity":94,"programNumber":3},{"time":84369.79166666656,"duration":109.375,"noteNumber":59,"velocity":101,"programNumber":3},{"time":84494.79166666656,"duration":119.79166666667152,"noteNumber":68,"velocity":103,"programNumber":3},{"time":84494.79166666656,"duration":125,"noteNumber":59,"velocity":96,"programNumber":3},{"time":84619.79166666656,"duration":119.79166666667152,"noteNumber":59,"velocity":101,"programNumber":3},{"time":84744.79166666656,"duration":119.79166666667152,"noteNumber":69,"velocity":97,"programNumber":3},{"time":84869.79166666656,"duration":119.79166666667152,"noteNumber":59,"velocity":96,"programNumber":3},{"time":84994.79166666656,"duration":119.79166666667152,"noteNumber":68,"velocity":103,"programNumber":3},{"time":85119.79166666656,"duration":5.208333333328483,"noteNumber":59,"velocity":91,"programNumber":3},{"time":85124.99999999988,"duration":78.125,"noteNumber":59,"velocity":90,"programNumber":3},{"time":85244.79166666656,"duration":104.16666666667152,"noteNumber":66,"velocity":101,"programNumber":3},{"time":85244.79166666656,"duration":119.79166666667152,"noteNumber":59,"velocity":88,"programNumber":3},{"time":85364.58333333323,"duration":125,"noteNumber":59,"velocity":101,"programNumber":3},{"time":85494.79166666656,"duration":109.375,"noteNumber":68,"velocity":101,"programNumber":3},{"time":85494.79166666656,"duration":125,"noteNumber":59,"velocity":97,"programNumber":3},{"time":85619.79166666656,"duration":109.375,"noteNumber":59,"velocity":99,"programNumber":3},{"time":85744.79166666656,"duration":119.79166666667152,"noteNumber":64,"velocity":104,"programNumber":3},{"time":85869.79166666656,"duration":109.375,"noteNumber":59,"velocity":102,"programNumber":3},{"time":85994.79166666656,"duration":57.29166666667152,"noteNumber":59,"velocity":96,"programNumber":3},{"time":85994.79166666656,"duration":119.79166666667152,"noteNumber":66,"velocity":105,"programNumber":3},{"time":86119.79166666656,"duration":5.208333333328483,"noteNumber":59,"velocity":102,"programNumber":3},{"time":86244.79166666656,"duration":119.79166666667152,"noteNumber":63,"velocity":103,"programNumber":3},{"time":86124.99999999988,"duration":244.79166666667152,"noteNumber":59,"velocity":94,"programNumber":3},{"time":86369.79166666656,"duration":119.79166666667152,"noteNumber":59,"velocity":97,"programNumber":3},{"time":86494.79166666656,"duration":109.375,"noteNumber":64,"velocity":101,"programNumber":3},{"time":86494.79166666656,"duration":114.58333333332848,"noteNumber":59,"velocity":96,"programNumber":3},{"time":86609.37499999988,"duration":130.20833333332848,"noteNumber":59,"velocity":101,"programNumber":3},{"time":86744.79166666654,"duration":109.375,"noteNumber":63,"velocity":97,"programNumber":3},{"time":86859.37499999987,"duration":10.416666666671517,"noteNumber":59,"velocity":97,"programNumber":3},{"time":86869.79166666654,"duration":166.66666666667152,"noteNumber":59,"velocity":94,"programNumber":3},{"time":86994.79166666654,"duration":119.79166666667152,"noteNumber":64,"velocity":102,"programNumber":3},{"time":87119.79166666654,"duration":5.208333333328483,"noteNumber":59,"velocity":101,"programNumber":3},{"time":87124.99999999987,"duration":78.125,"noteNumber":59,"velocity":90,"programNumber":3},{"time":87244.79166666654,"duration":109.375,"noteNumber":63,"velocity":92,"programNumber":3},{"time":87244.79166666654,"duration":114.58333333332848,"noteNumber":59,"velocity":88,"programNumber":3},{"time":87359.37499999987,"duration":119.79166666667152,"noteNumber":59,"velocity":99,"programNumber":3},{"time":87494.79166666654,"duration":104.16666666667152,"noteNumber":64,"velocity":102,"programNumber":3},{"time":87494.79166666654,"duration":109.375,"noteNumber":59,"velocity":97,"programNumber":3},{"time":87604.16666666654,"duration":125,"noteNumber":59,"velocity":104,"programNumber":3},{"time":87744.79166666654,"duration":109.375,"noteNumber":63,"velocity":105,"programNumber":3},{"time":87859.37499999987,"duration":119.79166666667152,"noteNumber":59,"velocity":99,"programNumber":3},{"time":87994.79166666654,"duration":41.66666666667152,"noteNumber":59,"velocity":96,"programNumber":3},{"time":87994.79166666654,"duration":109.375,"noteNumber":71,"velocity":106,"programNumber":3},{"time":88109.37499999987,"duration":10.416666666671517,"noteNumber":59,"velocity":101,"programNumber":3},{"time":88244.79166666654,"duration":109.375,"noteNumber":69,"velocity":104,"programNumber":3},{"time":88119.79166666654,"duration":239.58333333332848,"noteNumber":59,"velocity":94,"programNumber":3},{"time":88359.37499999987,"duration":114.58333333332848,"noteNumber":59,"velocity":101,"programNumber":3},{"time":88494.79166666653,"duration":119.79166666667152,"noteNumber":68,"velocity":103,"programNumber":3},{"time":88494.79166666653,"duration":125,"noteNumber":59,"velocity":96,"programNumber":3},{"time":88619.79166666653,"duration":119.79166666667152,"noteNumber":59,"velocity":101,"programNumber":3},{"time":88744.79166666653,"duration":119.79166666667152,"noteNumber":69,"velocity":97,"programNumber":3},{"time":88869.79166666653,"duration":119.79166666667152,"noteNumber":59,"velocity":96,"programNumber":3},{"time":88994.79166666653,"duration":119.79166666667152,"noteNumber":68,"velocity":103,"programNumber":3},{"time":89124.99999999987,"duration":114.58333333332848,"noteNumber":59,"velocity":91,"programNumber":3},{"time":89244.79166666653,"duration":119.79166666667152,"noteNumber":66,"velocity":101,"programNumber":3},{"time":89244.79166666653,"duration":130.20833333334303,"noteNumber":59,"velocity":88,"programNumber":3},{"time":89374.99999999987,"duration":114.58333333332848,"noteNumber":59,"velocity":101,"programNumber":3},{"time":89494.79166666653,"duration":119.79166666667152,"noteNumber":68,"velocity":101,"programNumber":3},{"time":89494.79166666653,"duration":125,"noteNumber":59,"velocity":97,"programNumber":3},{"time":89619.79166666653,"duration":119.79166666667152,"noteNumber":59,"velocity":99,"programNumber":3},{"time":89744.79166666653,"duration":119.79166666667152,"noteNumber":64,"velocity":104,"programNumber":3},{"time":89869.79166666653,"duration":119.79166666667152,"noteNumber":59,"velocity":102,"programNumber":3},{"time":89994.79166666653,"duration":46.875,"noteNumber":59,"velocity":96,"programNumber":3},{"time":89994.79166666653,"duration":119.79166666667152,"noteNumber":66,"velocity":105,"programNumber":3},{"time":90119.79166666653,"duration":5.208333333328483,"noteNumber":59,"velocity":102,"programNumber":3},{"time":90244.79166666653,"duration":119.79166666667152,"noteNumber":63,"velocity":103,"programNumber":3},{"time":90124.99999999985,"duration":244.79166666667152,"noteNumber":59,"velocity":94,"programNumber":3},{"time":90369.79166666653,"duration":119.79166666667152,"noteNumber":59,"velocity":97,"programNumber":3},{"time":90494.79166666653,"duration":119.79166666667152,"noteNumber":64,"velocity":101,"programNumber":3},{"time":90494.79166666653,"duration":125,"noteNumber":59,"velocity":96,"programNumber":3},{"time":90619.79166666653,"duration":119.79166666667152,"noteNumber":59,"velocity":101,"programNumber":3},{"time":90744.79166666653,"duration":119.79166666667152,"noteNumber":63,"velocity":97,"programNumber":3},{"time":90869.79166666653,"duration":119.79166666667152,"noteNumber":59,"velocity":97,"programNumber":3},{"time":90994.79166666653,"duration":119.79166666667152,"noteNumber":64,"velocity":102,"programNumber":3},{"time":91119.79166666653,"duration":5.208333333328483,"noteNumber":59,"velocity":101,"programNumber":3},{"time":91124.99999999985,"duration":78.125,"noteNumber":59,"velocity":90,"programNumber":3},{"time":91244.79166666653,"duration":119.79166666665697,"noteNumber":63,"velocity":92,"programNumber":3},{"time":91249.99999999985,"duration":119.79166666665697,"noteNumber":59,"velocity":88,"programNumber":3},{"time":91369.79166666651,"duration":119.79166666667152,"noteNumber":59,"velocity":99,"programNumber":3},{"time":91494.79166666651,"duration":119.79166666665697,"noteNumber":64,"velocity":102,"programNumber":3},{"time":91499.99999999984,"duration":119.79166666665697,"noteNumber":59,"velocity":97,"programNumber":3},{"time":91619.7916666665,"duration":119.79166666667152,"noteNumber":59,"velocity":104,"programNumber":3},{"time":91744.7916666665,"duration":109.375,"noteNumber":63,"velocity":105,"programNumber":3},{"time":91864.58333333317,"duration":125,"noteNumber":59,"velocity":99,"programNumber":3},{"time":91994.7916666665,"duration":52.08333333332848,"noteNumber":59,"velocity":96,"programNumber":3},{"time":91994.7916666665,"duration":119.79166666665697,"noteNumber":71,"velocity":106,"programNumber":3},{"time":92119.79166666648,"duration":5.208333333328483,"noteNumber":59,"velocity":101,"programNumber":3},{"time":92244.79166666648,"duration":109.375,"noteNumber":69,"velocity":104,"programNumber":3},{"time":92124.99999999981,"duration":239.58333333334303,"noteNumber":59,"velocity":94,"programNumber":3},{"time":92364.58333333315,"duration":125,"noteNumber":59,"velocity":101,"programNumber":3},{"time":92494.79166666648,"duration":119.79166666667152,"noteNumber":68,"velocity":103,"programNumber":3},{"time":92494.79166666648,"duration":125,"noteNumber":59,"velocity":96,"programNumber":3},{"time":92619.79166666648,"duration":119.79166666667152,"noteNumber":59,"velocity":101,"programNumber":3},{"time":92744.79166666648,"duration":109.375,"noteNumber":69,"velocity":97,"programNumber":3},{"time":92869.79166666648,"duration":109.375,"noteNumber":59,"velocity":96,"programNumber":3},{"time":92994.79166666648,"duration":119.79166666667152,"noteNumber":68,"velocity":103,"programNumber":3},{"time":93119.79166666648,"duration":0,"noteNumber":59,"velocity":91,"programNumber":3},{"time":93119.79166666648,"duration":83.33333333332848,"noteNumber":59,"velocity":90,"programNumber":3},{"time":93244.79166666648,"duration":119.79166666667152,"noteNumber":66,"velocity":101,"programNumber":3},{"time":93244.79166666648,"duration":125,"noteNumber":59,"velocity":88,"programNumber":3},{"time":93369.79166666648,"duration":109.375,"noteNumber":59,"velocity":101,"programNumber":3},{"time":93494.79166666648,"duration":119.79166666667152,"noteNumber":68,"velocity":101,"programNumber":3},{"time":93494.79166666648,"duration":125,"noteNumber":59,"velocity":97,"programNumber":3},{"time":93619.79166666648,"duration":119.79166666667152,"noteNumber":59,"velocity":99,"programNumber":3},{"time":93744.79166666648,"duration":109.375,"noteNumber":64,"velocity":104,"programNumber":3},{"time":93859.37499999981,"duration":130.20833333332848,"noteNumber":59,"velocity":102,"programNumber":3},{"time":93994.79166666647,"duration":46.875,"noteNumber":59,"velocity":96,"programNumber":3},{"time":93994.79166666647,"duration":119.79166666667152,"noteNumber":66,"velocity":105,"programNumber":3},{"time":94119.79166666647,"duration":5.208333333328483,"noteNumber":59,"velocity":102,"programNumber":3},{"time":94244.79166666647,"duration":119.79166666667152,"noteNumber":63,"velocity":103,"programNumber":3},{"time":94124.9999999998,"duration":244.79166666667152,"noteNumber":59,"velocity":94,"programNumber":3},{"time":94369.79166666647,"duration":109.375,"noteNumber":59,"velocity":97,"programNumber":3},{"time":94494.79166666647,"duration":109.375,"noteNumber":64,"velocity":101,"programNumber":3},{"time":94494.79166666647,"duration":114.58333333332848,"noteNumber":59,"velocity":96,"programNumber":3},{"time":94609.3749999998,"duration":119.79166666667152,"noteNumber":59,"velocity":101,"programNumber":3},{"time":94744.79166666647,"duration":104.16666666667152,"noteNumber":63,"velocity":97,"programNumber":3},{"time":94854.16666666647,"duration":15.625,"noteNumber":59,"velocity":97,"programNumber":3},{"time":94869.79166666647,"duration":166.66666666667152,"noteNumber":59,"velocity":94,"programNumber":3},{"time":94994.79166666647,"duration":109.375,"noteNumber":64,"velocity":102,"programNumber":3},{"time":95109.3749999998,"duration":15.625,"noteNumber":59,"velocity":101,"programNumber":3},{"time":95124.9999999998,"duration":78.125,"noteNumber":59,"velocity":90,"programNumber":3},{"time":95244.79166666647,"duration":109.375,"noteNumber":63,"velocity":92,"programNumber":3},{"time":95244.79166666647,"duration":114.58333333332848,"noteNumber":59,"velocity":88,"programNumber":3},{"time":95359.3749999998,"duration":119.79166666667152,"noteNumber":59,"velocity":99,"programNumber":3},{"time":95494.79166666647,"duration":109.375,"noteNumber":64,"velocity":102,"programNumber":3},{"time":95494.79166666647,"duration":114.58333333332848,"noteNumber":59,"velocity":97,"programNumber":3},{"time":95609.3749999998,"duration":114.58333333332848,"noteNumber":59,"velocity":104,"programNumber":3},{"time":95744.79166666645,"duration":109.375,"noteNumber":63,"velocity":105,"programNumber":3},{"time":95859.37499999978,"duration":130.20833333332848,"noteNumber":59,"velocity":99,"programNumber":3},{"time":95994.79166666644,"duration":57.29166666667152,"noteNumber":59,"velocity":96,"programNumber":3},{"time":95994.79166666644,"duration":119.79166666667152,"noteNumber":71,"velocity":106,"programNumber":3},{"time":96119.79166666644,"duration":0,"noteNumber":59,"velocity":101,"programNumber":3},{"time":96244.79166666644,"duration":119.79166666667152,"noteNumber":69,"velocity":104,"programNumber":3},{"time":96119.79166666644,"duration":250,"noteNumber":59,"velocity":94,"programNumber":3},{"time":96369.79166666644,"duration":119.79166666667152,"noteNumber":59,"velocity":101,"programNumber":3},{"time":96494.79166666644,"duration":119.79166666667152,"noteNumber":68,"velocity":103,"programNumber":3},{"time":96494.79166666644,"duration":125,"noteNumber":59,"velocity":96,"programNumber":3},{"time":96619.79166666644,"duration":119.79166666667152,"noteNumber":59,"velocity":101,"programNumber":3},{"time":96744.79166666644,"duration":119.79166666667152,"noteNumber":69,"velocity":97,"programNumber":3},{"time":96869.79166666644,"duration":0,"noteNumber":59,"velocity":96,"programNumber":3},{"time":96869.79166666644,"duration":166.66666666667152,"noteNumber":59,"velocity":94,"programNumber":3},{"time":96994.79166666644,"duration":119.79166666667152,"noteNumber":68,"velocity":103,"programNumber":3},{"time":97119.79166666644,"duration":5.208333333328483,"noteNumber":59,"velocity":91,"programNumber":3},{"time":97124.99999999977,"duration":78.125,"noteNumber":59,"velocity":90,"programNumber":3},{"time":97244.79166666644,"duration":119.79166666667152,"noteNumber":66,"velocity":101,"programNumber":3},{"time":97244.79166666644,"duration":125,"noteNumber":59,"velocity":88,"programNumber":3},{"time":97369.79166666644,"duration":109.375,"noteNumber":59,"velocity":101,"programNumber":3},{"time":97494.79166666644,"duration":119.79166666667152,"noteNumber":68,"velocity":101,"programNumber":3},{"time":97494.79166666644,"duration":125,"noteNumber":59,"velocity":97,"programNumber":3},{"time":97619.79166666644,"duration":119.79166666667152,"noteNumber":59,"velocity":99,"programNumber":3},{"time":97744.79166666644,"duration":119.79166666667152,"noteNumber":64,"velocity":104,"programNumber":3},{"time":97869.79166666644,"duration":119.79166666667152,"noteNumber":59,"velocity":102,"programNumber":3},{"time":97994.79166666644,"duration":57.29166666667152,"noteNumber":59,"velocity":96,"programNumber":3},{"time":97994.79166666644,"duration":119.79166666667152,"noteNumber":66,"velocity":105,"programNumber":3},{"time":98119.79166666644,"duration":5.208333333328483,"noteNumber":59,"velocity":102,"programNumber":3},{"time":98244.79166666644,"duration":119.79166666667152,"noteNumber":63,"velocity":103,"programNumber":3},{"time":98124.99999999977,"duration":244.79166666667152,"noteNumber":59,"velocity":94,"programNumber":3},{"time":98369.79166666644,"duration":114.58333333332848,"noteNumber":59,"velocity":97,"programNumber":3},{"time":98494.79166666644,"duration":119.79166666665697,"noteNumber":64,"velocity":101,"programNumber":3},{"time":98499.99999999977,"duration":119.79166666665697,"noteNumber":59,"velocity":96,"programNumber":3},{"time":98619.79166666642,"duration":119.79166666667152,"noteNumber":59,"velocity":101,"programNumber":3},{"time":98744.79166666642,"duration":119.79166666667152,"noteNumber":63,"velocity":97,"programNumber":3},{"time":98869.79166666642,"duration":0,"noteNumber":59,"velocity":97,"programNumber":3},{"time":98869.79166666642,"duration":166.66666666667152,"noteNumber":59,"velocity":94,"programNumber":3},{"time":98994.79166666642,"duration":119.79166666667152,"noteNumber":64,"velocity":102,"programNumber":3},{"time":99119.79166666642,"duration":5.208333333328483,"noteNumber":59,"velocity":101,"programNumber":3},{"time":99124.99999999975,"duration":78.125,"noteNumber":59,"velocity":90,"programNumber":3},{"time":99244.79166666642,"duration":109.375,"noteNumber":63,"velocity":92,"programNumber":3},{"time":99244.79166666642,"duration":119.79166666667152,"noteNumber":59,"velocity":88,"programNumber":3},{"time":99364.5833333331,"duration":125,"noteNumber":59,"velocity":99,"programNumber":3},{"time":99494.79166666642,"duration":119.79166666667152,"noteNumber":64,"velocity":102,"programNumber":3},{"time":99494.79166666642,"duration":125,"noteNumber":59,"velocity":97,"programNumber":3},{"time":99619.79166666642,"duration":109.375,"noteNumber":59,"velocity":104,"programNumber":3},{"time":99744.79166666642,"duration":104.16666666667152,"noteNumber":63,"velocity":105,"programNumber":3},{"time":99864.5833333331,"duration":125,"noteNumber":59,"velocity":99,"programNumber":3},{"time":99994.79166666642,"duration":57.29166666667152,"noteNumber":59,"velocity":96,"programNumber":3},{"time":99994.79166666642,"duration":109.375,"noteNumber":71,"velocity":106,"programNumber":3},{"time":100119.79166666642,"duration":5.208333333328483,"noteNumber":59,"velocity":101,"programNumber":3},{"time":100244.79166666642,"duration":119.79166666667152,"noteNumber":69,"velocity":104,"programNumber":3},{"time":100124.99999999975,"duration":244.79166666667152,"noteNumber":59,"velocity":94,"programNumber":3},{"time":100369.79166666642,"duration":109.375,"noteNumber":59,"velocity":101,"programNumber":3},{"time":100494.79166666642,"duration":104.16666666667152,"noteNumber":68,"velocity":103,"programNumber":3},{"time":100494.79166666642,"duration":125,"noteNumber":59,"velocity":96,"programNumber":3},{"time":100619.79166666642,"duration":119.79166666667152,"noteNumber":59,"velocity":101,"programNumber":3},{"time":100744.79166666642,"duration":119.79166666667152,"noteNumber":69,"velocity":97,"programNumber":3},{"time":100869.79166666642,"duration":119.79166666667152,"noteNumber":59,"velocity":96,"programNumber":3},{"time":100994.79166666642,"duration":109.375,"noteNumber":68,"velocity":103,"programNumber":3},{"time":101119.79166666642,"duration":0,"noteNumber":59,"velocity":91,"programNumber":3},{"time":101119.79166666642,"duration":83.33333333332848,"noteNumber":59,"velocity":90,"programNumber":3},{"time":101244.79166666642,"duration":109.375,"noteNumber":66,"velocity":101,"programNumber":3},{"time":101244.79166666642,"duration":114.58333333332848,"noteNumber":59,"velocity":88,"programNumber":3},{"time":101359.37499999975,"duration":114.58333333332848,"noteNumber":59,"velocity":101,"programNumber":3},{"time":101494.79166666641,"duration":119.79166666667152,"noteNumber":68,"velocity":101,"programNumber":3},{"time":101494.79166666641,"duration":125,"noteNumber":59,"velocity":97,"programNumber":3},{"time":101619.79166666641,"duration":104.16666666667152,"noteNumber":59,"velocity":99,"programNumber":3},{"time":101744.79166666641,"duration":109.375,"noteNumber":64,"velocity":104,"programNumber":3},{"time":101859.37499999974,"duration":130.20833333332848,"noteNumber":59,"velocity":102,"programNumber":3},{"time":101994.7916666664,"duration":46.875,"noteNumber":59,"velocity":96,"programNumber":3},{"time":101994.7916666664,"duration":104.16666666667152,"noteNumber":66,"velocity":105,"programNumber":3},{"time":102104.1666666664,"duration":15.625,"noteNumber":59,"velocity":102,"programNumber":3},{"time":102244.7916666664,"duration":109.375,"noteNumber":63,"velocity":103,"programNumber":3},{"time":102119.7916666664,"duration":239.58333333332848,"noteNumber":59,"velocity":94,"programNumber":3},{"time":102359.37499999972,"duration":119.79166666667152,"noteNumber":59,"velocity":97,"programNumber":3},{"time":102494.7916666664,"duration":109.375,"noteNumber":64,"velocity":101,"programNumber":3},{"time":102494.7916666664,"duration":114.58333333332848,"noteNumber":59,"velocity":96,"programNumber":3},{"time":102609.37499999972,"duration":119.79166666667152,"noteNumber":59,"velocity":101,"programNumber":3},{"time":102744.7916666664,"duration":109.375,"noteNumber":63,"velocity":97,"programNumber":3},{"time":102859.37499999972,"duration":10.416666666671517,"noteNumber":59,"velocity":97,"programNumber":3},{"time":102869.7916666664,"duration":166.66666666667152,"noteNumber":59,"velocity":94,"programNumber":3},{"time":102994.7916666664,"duration":109.375,"noteNumber":64,"velocity":102,"programNumber":3},{"time":103109.37499999972,"duration":15.625,"noteNumber":59,"velocity":101,"programNumber":3},{"time":103124.99999999972,"duration":78.125,"noteNumber":59,"velocity":90,"programNumber":3},{"time":103244.7916666664,"duration":119.79166666667152,"noteNumber":63,"velocity":92,"programNumber":3},{"time":103244.7916666664,"duration":125,"noteNumber":59,"velocity":88,"programNumber":3},{"time":103369.7916666664,"duration":119.79166666667152,"noteNumber":59,"velocity":99,"programNumber":3},{"time":103494.7916666664,"duration":119.79166666665697,"noteNumber":64,"velocity":102,"programNumber":3},{"time":103499.99999999972,"duration":119.79166666665697,"noteNumber":59,"velocity":97,"programNumber":3},{"time":103619.79166666638,"duration":119.79166666667152,"noteNumber":59,"velocity":104,"programNumber":3},{"time":103744.79166666638,"duration":119.79166666667152,"noteNumber":63,"velocity":105,"programNumber":3},{"time":103869.79166666638,"duration":119.79166666667152,"noteNumber":59,"velocity":99,"programNumber":3},{"time":103994.79166666638,"duration":57.29166666667152,"noteNumber":59,"velocity":96,"programNumber":3},{"time":103994.79166666638,"duration":119.79166666667152,"noteNumber":71,"velocity":106,"programNumber":3},{"time":104119.79166666638,"duration":5.208333333328483,"noteNumber":59,"velocity":101,"programNumber":3},{"time":104244.79166666638,"duration":119.79166666667152,"noteNumber":69,"velocity":104,"programNumber":3},{"time":104124.99999999971,"duration":244.79166666667152,"noteNumber":59,"velocity":94,"programNumber":3},{"time":104369.79166666638,"duration":119.79166666667152,"noteNumber":59,"velocity":101,"programNumber":3},{"time":104494.79166666638,"duration":104.16666666667152,"noteNumber":68,"velocity":103,"programNumber":3},{"time":104494.79166666638,"duration":114.58333333334303,"noteNumber":59,"velocity":96,"programNumber":3},{"time":104609.37499999972,"duration":130.20833333332848,"noteNumber":59,"velocity":101,"programNumber":3},{"time":104744.79166666638,"duration":119.79166666667152,"noteNumber":69,"velocity":97,"programNumber":3},{"time":104869.79166666638,"duration":0,"noteNumber":59,"velocity":96,"programNumber":3},{"time":104869.79166666638,"duration":166.66666666667152,"noteNumber":59,"velocity":94,"programNumber":3},{"time":104994.79166666638,"duration":119.79166666667152,"noteNumber":68,"velocity":103,"programNumber":3},{"time":105119.79166666638,"duration":5.208333333328483,"noteNumber":59,"velocity":91,"programNumber":3},{"time":105124.99999999971,"duration":78.125,"noteNumber":59,"velocity":90,"programNumber":3},{"time":105244.79166666638,"duration":119.79166666667152,"noteNumber":66,"velocity":101,"programNumber":3},{"time":105244.79166666638,"duration":125,"noteNumber":59,"velocity":88,"programNumber":3},{"time":105369.79166666638,"duration":119.79166666667152,"noteNumber":59,"velocity":101,"programNumber":3},{"time":105494.79166666638,"duration":119.79166666667152,"noteNumber":68,"velocity":101,"programNumber":3},{"time":105494.79166666638,"duration":125,"noteNumber":59,"velocity":97,"programNumber":3},{"time":105619.79166666638,"duration":119.79166666667152,"noteNumber":59,"velocity":99,"programNumber":3},{"time":105744.79166666638,"duration":119.79166666667152,"noteNumber":64,"velocity":104,"programNumber":3},{"time":105869.79166666638,"duration":119.79166666667152,"noteNumber":59,"velocity":102,"programNumber":3},{"time":105994.79166666638,"duration":57.29166666667152,"noteNumber":59,"velocity":96,"programNumber":3},{"time":105994.79166666638,"duration":119.79166666667152,"noteNumber":66,"velocity":105,"programNumber":3},{"time":106119.79166666638,"duration":5.208333333328483,"noteNumber":59,"velocity":102,"programNumber":3},{"time":106244.79166666638,"duration":119.79166666667152,"noteNumber":63,"velocity":103,"programNumber":3},{"time":106124.99999999971,"duration":244.79166666667152,"noteNumber":59,"velocity":94,"programNumber":3},{"time":106369.79166666638,"duration":119.79166666667152,"noteNumber":59,"velocity":97,"programNumber":3},{"time":106494.79166666638,"duration":109.375,"noteNumber":64,"velocity":101,"programNumber":3},{"time":106494.79166666638,"duration":114.58333333332848,"noteNumber":59,"velocity":96,"programNumber":3},{"time":106609.37499999971,"duration":130.20833333332848,"noteNumber":59,"velocity":101,"programNumber":3},{"time":106744.79166666637,"duration":119.79166666667152,"noteNumber":63,"velocity":97,"programNumber":3},{"time":106869.79166666637,"duration":0,"noteNumber":59,"velocity":97,"programNumber":3},{"time":106869.79166666637,"duration":171.875,"noteNumber":59,"velocity":94,"programNumber":3},{"time":106994.79166666637,"duration":109.375,"noteNumber":64,"velocity":102,"programNumber":3},{"time":107119.79166666637,"duration":5.208333333328483,"noteNumber":59,"velocity":101,"programNumber":3},{"time":107124.9999999997,"duration":78.125,"noteNumber":59,"velocity":90,"programNumber":3},{"time":107244.79166666637,"duration":104.16666666667152,"noteNumber":63,"velocity":92,"programNumber":3},{"time":107244.79166666637,"duration":119.79166666667152,"noteNumber":59,"velocity":88,"programNumber":3},{"time":107364.58333333304,"duration":114.58333333332848,"noteNumber":59,"velocity":99,"programNumber":3},{"time":107494.79166666637,"duration":119.79166666667152,"noteNumber":64,"velocity":102,"programNumber":3},{"time":107494.79166666637,"duration":125,"noteNumber":59,"velocity":97,"programNumber":3},{"time":107619.79166666637,"duration":109.375,"noteNumber":59,"velocity":104,"programNumber":3},{"time":107744.79166666637,"duration":104.16666666667152,"noteNumber":63,"velocity":105,"programNumber":3},{"time":107854.16666666637,"duration":130.20833333332848,"noteNumber":59,"velocity":99,"programNumber":3},{"time":107994.79166666637,"duration":57.29166666667152,"noteNumber":59,"velocity":96,"programNumber":3},{"time":107994.79166666637,"duration":119.79166666667152,"noteNumber":71,"velocity":106,"programNumber":3},{"time":108119.79166666637,"duration":0,"noteNumber":59,"velocity":101,"programNumber":3},{"time":108244.79166666637,"duration":119.79166666667152,"noteNumber":69,"velocity":104,"programNumber":3},{"time":108119.79166666637,"duration":250,"noteNumber":59,"velocity":94,"programNumber":3},{"time":108369.79166666637,"duration":119.79166666667152,"noteNumber":59,"velocity":101,"programNumber":3},{"time":108494.79166666637,"duration":109.375,"noteNumber":68,"velocity":103,"programNumber":3},{"time":108494.79166666637,"duration":119.79166666667152,"noteNumber":59,"velocity":96,"programNumber":3},{"time":108614.58333333304,"duration":109.375,"noteNumber":59,"velocity":101,"programNumber":3},{"time":108744.79166666637,"duration":119.79166666667152,"noteNumber":69,"velocity":97,"programNumber":3},{"time":108869.79166666637,"duration":119.79166666667152,"noteNumber":59,"velocity":96,"programNumber":3},{"time":108994.79166666637,"duration":119.79166666667152,"noteNumber":68,"velocity":103,"programNumber":3},{"time":109119.79166666637,"duration":0,"noteNumber":59,"velocity":91,"programNumber":3},{"time":109119.79166666637,"duration":83.33333333332848,"noteNumber":59,"velocity":90,"programNumber":3},{"time":109244.79166666637,"duration":109.375,"noteNumber":66,"velocity":101,"programNumber":3},{"time":109244.79166666637,"duration":125,"noteNumber":59,"velocity":88,"programNumber":3},{"time":109369.79166666637,"duration":114.58333333332848,"noteNumber":59,"velocity":101,"programNumber":3},{"time":109494.79166666637,"duration":119.79166666667152,"noteNumber":68,"velocity":101,"programNumber":3},{"time":109494.79166666637,"duration":125,"noteNumber":59,"velocity":97,"programNumber":3},{"time":109619.79166666637,"duration":109.375,"noteNumber":59,"velocity":99,"programNumber":3},{"time":109744.79166666637,"duration":109.375,"noteNumber":64,"velocity":104,"programNumber":3},{"time":109869.79166666637,"duration":119.79166666667152,"noteNumber":59,"velocity":102,"programNumber":3},{"time":109994.79166666637,"duration":57.29166666667152,"noteNumber":59,"velocity":96,"programNumber":3},{"time":109994.79166666637,"duration":114.58333333334303,"noteNumber":66,"velocity":105,"programNumber":3},{"time":110119.79166666638,"duration":5.208333333328483,"noteNumber":59,"velocity":102,"programNumber":3},{"time":110244.79166666638,"duration":114.58333333332848,"noteNumber":63,"velocity":103,"programNumber":3},{"time":110124.99999999971,"duration":244.79166666667152,"noteNumber":59,"velocity":94,"programNumber":3},{"time":110369.79166666638,"duration":114.58333333332848,"noteNumber":59,"velocity":97,"programNumber":3},{"time":110494.79166666638,"duration":114.58333333332848,"noteNumber":64,"velocity":101,"programNumber":3},{"time":110494.79166666638,"duration":125,"noteNumber":59,"velocity":96,"programNumber":3},{"time":110619.79166666638,"duration":114.58333333332848,"noteNumber":59,"velocity":101,"programNumber":3},{"time":110744.79166666638,"duration":119.79166666667152,"noteNumber":63,"velocity":97,"programNumber":3},{"time":110869.79166666638,"duration":0,"noteNumber":59,"velocity":97,"programNumber":3},{"time":110869.79166666638,"duration":166.66666666667152,"noteNumber":59,"velocity":94,"programNumber":3},{"time":110994.79166666638,"duration":119.79166666667152,"noteNumber":64,"velocity":102,"programNumber":3},{"time":111119.79166666638,"duration":5.208333333328483,"noteNumber":59,"velocity":101,"programNumber":3},{"time":111124.99999999971,"duration":78.125,"noteNumber":59,"velocity":90,"programNumber":3},{"time":111244.79166666638,"duration":114.58333333332848,"noteNumber":63,"velocity":92,"programNumber":3},{"time":111249.99999999971,"duration":119.79166666667152,"noteNumber":59,"velocity":88,"programNumber":3},{"time":111369.79166666638,"duration":119.79166666667152,"noteNumber":59,"velocity":99,"programNumber":3},{"time":111494.79166666638,"duration":119.79166666665697,"noteNumber":64,"velocity":102,"programNumber":3},{"time":111499.99999999971,"duration":119.79166666665697,"noteNumber":59,"velocity":97,"programNumber":3},{"time":111619.79166666637,"duration":119.79166666667152,"noteNumber":59,"velocity":104,"programNumber":3},{"time":111744.79166666637,"duration":119.79166666667152,"noteNumber":63,"velocity":105,"programNumber":3},{"time":111869.79166666637,"duration":119.79166666667152,"noteNumber":59,"velocity":99,"programNumber":3},{"time":111994.79166666637,"duration":57.29166666667152,"noteNumber":59,"velocity":96,"programNumber":3},{"time":111994.79166666637,"duration":119.79166666667152,"noteNumber":71,"velocity":106,"programNumber":3},{"time":112119.79166666637,"duration":0,"noteNumber":59,"velocity":101,"programNumber":3},{"time":112244.79166666637,"duration":119.79166666667152,"noteNumber":69,"velocity":104,"programNumber":3},{"time":112119.79166666637,"duration":250,"noteNumber":59,"velocity":94,"programNumber":3},{"time":112369.79166666637,"duration":119.79166666667152,"noteNumber":59,"velocity":101,"programNumber":3},{"time":112494.79166666637,"duration":119.79166666667152,"noteNumber":68,"velocity":103,"programNumber":3},{"time":112494.79166666637,"duration":125,"noteNumber":59,"velocity":96,"programNumber":3},{"time":112619.79166666637,"duration":119.79166666667152,"noteNumber":59,"velocity":101,"programNumber":3},{"time":112744.79166666637,"duration":119.79166666667152,"noteNumber":69,"velocity":97,"programNumber":3},{"time":112869.79166666637,"duration":0,"noteNumber":59,"velocity":96,"programNumber":3},{"time":112869.79166666637,"duration":166.66666666667152,"noteNumber":59,"velocity":94,"programNumber":3},{"time":112994.79166666637,"duration":119.79166666667152,"noteNumber":68,"velocity":103,"programNumber":3},{"time":113119.79166666637,"duration":5.208333333328483,"noteNumber":59,"velocity":91,"programNumber":3},{"time":113124.9999999997,"duration":78.125,"noteNumber":59,"velocity":90,"programNumber":3},{"time":113244.79166666637,"duration":119.79166666667152,"noteNumber":66,"velocity":101,"programNumber":3},{"time":113244.79166666637,"duration":125,"noteNumber":59,"velocity":88,"programNumber":3},{"time":113369.79166666637,"duration":119.79166666667152,"noteNumber":59,"velocity":101,"programNumber":3},{"time":113494.79166666637,"duration":119.79166666667152,"noteNumber":68,"velocity":101,"programNumber":3},{"time":113494.79166666637,"duration":125,"noteNumber":59,"velocity":97,"programNumber":3},{"time":113619.79166666637,"duration":119.79166666667152,"noteNumber":59,"velocity":99,"programNumber":3},{"time":113744.79166666637,"duration":119.79166666667152,"noteNumber":64,"velocity":104,"programNumber":3},{"time":113869.79166666637,"duration":119.79166666667152,"noteNumber":59,"velocity":102,"programNumber":3},{"time":113999.9999999997,"duration":52.08333333332848,"noteNumber":59,"velocity":96,"programNumber":3},{"time":113994.79166666637,"duration":119.79166666665697,"noteNumber":66,"velocity":105,"programNumber":3},{"time":114119.79166666635,"duration":5.208333333328483,"noteNumber":59,"velocity":102,"programNumber":3},{"time":114244.79166666635,"duration":119.79166666667152,"noteNumber":63,"velocity":103,"programNumber":3},{"time":114124.99999999968,"duration":244.79166666667152,"noteNumber":59,"velocity":94,"programNumber":3},{"time":114369.79166666635,"duration":119.79166666667152,"noteNumber":59,"velocity":97,"programNumber":3},{"time":114494.79166666635,"duration":119.79166666667152,"noteNumber":64,"velocity":101,"programNumber":3},{"time":114494.79166666635,"duration":125,"noteNumber":59,"velocity":96,"programNumber":3},{"time":114619.79166666635,"duration":119.79166666667152,"noteNumber":59,"velocity":101,"programNumber":3},{"time":114744.79166666635,"duration":119.79166666667152,"noteNumber":63,"velocity":97,"programNumber":3},{"time":114869.79166666635,"duration":0,"noteNumber":59,"velocity":97,"programNumber":3},{"time":114869.79166666635,"duration":166.66666666667152,"noteNumber":59,"velocity":94,"programNumber":3},{"time":114994.79166666635,"duration":119.79166666667152,"noteNumber":64,"velocity":102,"programNumber":3},{"time":115119.79166666635,"duration":5.208333333328483,"noteNumber":59,"velocity":101,"programNumber":3},{"time":115124.99999999968,"duration":78.125,"noteNumber":59,"velocity":90,"programNumber":3},{"time":115244.79166666635,"duration":119.79166666667152,"noteNumber":63,"velocity":92,"programNumber":3},{"time":115244.79166666635,"duration":125,"noteNumber":59,"velocity":88,"programNumber":3},{"time":115369.79166666635,"duration":119.79166666667152,"noteNumber":59,"velocity":99,"programNumber":3},{"time":115494.79166666635,"duration":119.79166666667152,"noteNumber":64,"velocity":102,"programNumber":3},{"time":115494.79166666635,"duration":125,"noteNumber":59,"velocity":97,"programNumber":3},{"time":115619.79166666635,"duration":119.79166666667152,"noteNumber":59,"velocity":104,"programNumber":3},{"time":115744.79166666635,"duration":119.79166666667152,"noteNumber":63,"velocity":105,"programNumber":3},{"time":115869.79166666635,"duration":119.79166666667152,"noteNumber":59,"velocity":99,"programNumber":3},{"time":115994.79166666635,"duration":41.66666666667152,"noteNumber":59,"velocity":96,"programNumber":3},{"time":115994.79166666635,"duration":119.79166666667152,"noteNumber":71,"velocity":106,"programNumber":3},{"time":116119.79166666635,"duration":5.208333333328483,"noteNumber":59,"velocity":101,"programNumber":3},{"time":116244.79166666635,"duration":109.375,"noteNumber":69,"velocity":104,"programNumber":3},{"time":116124.99999999968,"duration":234.375,"noteNumber":59,"velocity":94,"programNumber":3},{"time":116359.37499999968,"duration":119.79166666667152,"noteNumber":59,"velocity":101,"programNumber":3},{"time":116494.79166666635,"duration":109.375,"noteNumber":68,"velocity":103,"programNumber":3},{"time":116494.79166666635,"duration":114.58333333332848,"noteNumber":59,"velocity":96,"programNumber":3},{"time":116609.37499999968,"duration":114.58333333332848,"noteNumber":59,"velocity":101,"programNumber":3},{"time":116744.79166666634,"duration":109.375,"noteNumber":69,"velocity":97,"programNumber":3},{"time":116859.37499999967,"duration":10.416666666671517,"noteNumber":59,"velocity":96,"programNumber":3},{"time":116869.79166666634,"duration":166.66666666667152,"noteNumber":59,"velocity":94,"programNumber":3},{"time":116994.79166666634,"duration":119.79166666667152,"noteNumber":68,"velocity":103,"programNumber":3},{"time":117119.79166666634,"duration":0,"noteNumber":59,"velocity":91,"programNumber":3},{"time":117119.79166666634,"duration":83.33333333332848,"noteNumber":59,"velocity":90,"programNumber":3},{"time":117244.79166666634,"duration":119.79166666667152,"noteNumber":66,"velocity":101,"programNumber":3},{"time":117244.79166666634,"duration":125,"noteNumber":59,"velocity":88,"programNumber":3},{"time":117369.79166666634,"duration":109.375,"noteNumber":59,"velocity":101,"programNumber":3},{"time":117494.79166666634,"duration":109.375,"noteNumber":68,"velocity":101,"programNumber":3},{"time":117494.79166666634,"duration":114.58333333332848,"noteNumber":59,"velocity":97,"programNumber":3},{"time":117609.37499999967,"duration":130.20833333332848,"noteNumber":59,"velocity":99,"programNumber":3},{"time":117744.79166666632,"duration":119.79166666667152,"noteNumber":64,"velocity":104,"programNumber":3},{"time":117869.79166666632,"duration":109.375,"noteNumber":59,"velocity":102,"programNumber":3},{"time":117994.79166666632,"duration":57.29166666667152,"noteNumber":59,"velocity":96,"programNumber":3},{"time":117994.79166666632,"duration":119.79166666667152,"noteNumber":66,"velocity":105,"programNumber":3},{"time":118119.79166666632,"duration":5.208333333328483,"noteNumber":59,"velocity":102,"programNumber":3},{"time":118244.79166666632,"duration":119.79166666667152,"noteNumber":63,"velocity":103,"programNumber":3},{"time":118124.99999999965,"duration":244.79166666667152,"noteNumber":59,"velocity":94,"programNumber":3},{"time":118369.79166666632,"duration":119.79166666667152,"noteNumber":59,"velocity":97,"programNumber":3},{"time":118494.79166666632,"duration":119.79166666667152,"noteNumber":64,"velocity":101,"programNumber":3},{"time":118494.79166666632,"duration":125,"noteNumber":59,"velocity":96,"programNumber":3},{"time":118619.79166666632,"duration":119.79166666667152,"noteNumber":59,"velocity":101,"programNumber":3},{"time":118744.79166666632,"duration":119.79166666667152,"noteNumber":63,"velocity":97,"programNumber":3},{"time":118869.79166666632,"duration":0,"noteNumber":59,"velocity":97,"programNumber":3},{"time":118869.79166666632,"duration":166.66666666667152,"noteNumber":59,"velocity":94,"programNumber":3},{"time":118994.79166666632,"duration":109.375,"noteNumber":64,"velocity":102,"programNumber":3},{"time":119109.37499999965,"duration":15.625,"noteNumber":59,"velocity":101,"programNumber":3},{"time":119124.99999999965,"duration":78.125,"noteNumber":59,"velocity":90,"programNumber":3},{"time":119244.79166666632,"duration":119.79166666667152,"noteNumber":63,"velocity":92,"programNumber":3},{"time":119244.79166666632,"duration":125,"noteNumber":59,"velocity":88,"programNumber":3},{"time":119369.79166666632,"duration":119.79166666667152,"noteNumber":59,"velocity":99,"programNumber":3},{"time":119494.79166666632,"duration":119.79166666667152,"noteNumber":64,"velocity":102,"programNumber":3},{"time":119494.79166666632,"duration":125,"noteNumber":59,"velocity":97,"programNumber":3},{"time":119619.79166666632,"duration":119.79166666667152,"noteNumber":59,"velocity":104,"programNumber":3},{"time":119744.79166666632,"duration":119.79166666667152,"noteNumber":63,"velocity":105,"programNumber":3},{"time":119869.79166666632,"duration":119.79166666667152,"noteNumber":59,"velocity":99,"programNumber":3},{"time":119994.79166666632,"duration":57.29166666667152,"noteNumber":59,"velocity":96,"programNumber":3},{"time":119994.79166666632,"duration":119.79166666667152,"noteNumber":71,"velocity":106,"programNumber":3},{"time":120119.79166666632,"duration":5.208333333328483,"noteNumber":59,"velocity":101,"programNumber":3},{"time":120244.79166666632,"duration":119.79166666667152,"noteNumber":69,"velocity":104,"programNumber":3},{"time":120124.99999999965,"duration":244.79166666667152,"noteNumber":59,"velocity":94,"programNumber":3},{"time":120369.79166666632,"duration":119.79166666667152,"noteNumber":59,"velocity":101,"programNumber":3},{"time":120494.79166666632,"duration":119.79166666667152,"noteNumber":68,"velocity":103,"programNumber":3},{"time":120494.79166666632,"duration":125,"noteNumber":59,"velocity":96,"programNumber":3},{"time":120619.79166666632,"duration":119.79166666667152,"noteNumber":59,"velocity":101,"programNumber":3},{"time":120744.79166666632,"duration":119.79166666667152,"noteNumber":69,"velocity":97,"programNumber":3},{"time":120869.79166666632,"duration":0,"noteNumber":59,"velocity":96,"programNumber":3},{"time":120869.79166666632,"duration":166.66666666667152,"noteNumber":59,"velocity":94,"programNumber":3},{"time":120994.79166666632,"duration":119.79166666667152,"noteNumber":68,"velocity":103,"programNumber":3},{"time":121119.79166666632,"duration":5.208333333328483,"noteNumber":59,"velocity":91,"programNumber":3},{"time":121124.99999999965,"duration":78.125,"noteNumber":59,"velocity":90,"programNumber":3},{"time":121244.79166666632,"duration":119.79166666667152,"noteNumber":66,"velocity":101,"programNumber":3},{"time":121244.79166666632,"duration":125,"noteNumber":59,"velocity":88,"programNumber":3},{"time":121369.79166666632,"duration":109.375,"noteNumber":59,"velocity":101,"programNumber":3},{"time":121494.79166666632,"duration":109.375,"noteNumber":68,"velocity":101,"programNumber":3},{"time":121494.79166666632,"duration":119.79166666667152,"noteNumber":59,"velocity":97,"programNumber":3},{"time":121614.583333333,"duration":125,"noteNumber":59,"velocity":99,"programNumber":3},{"time":121744.79166666632,"duration":109.375,"noteNumber":64,"velocity":104,"programNumber":3},{"time":121864.583333333,"duration":125,"noteNumber":59,"velocity":102,"programNumber":3},{"time":121994.79166666632,"duration":52.08333333332848,"noteNumber":59,"velocity":96,"programNumber":3},{"time":121994.79166666632,"duration":119.79166666665697,"noteNumber":66,"velocity":105,"programNumber":3},{"time":122119.79166666631,"duration":5.208333333328483,"noteNumber":59,"velocity":102,"programNumber":3},{"time":122244.79166666631,"duration":119.79166666667152,"noteNumber":63,"velocity":103,"programNumber":3},{"time":122124.99999999964,"duration":244.79166666667152,"noteNumber":59,"velocity":94,"programNumber":3},{"time":122369.79166666631,"duration":104.16666666667152,"noteNumber":59,"velocity":97,"programNumber":3},{"time":122494.79166666631,"duration":119.79166666667152,"noteNumber":64,"velocity":101,"programNumber":3},{"time":122494.79166666631,"duration":125,"noteNumber":59,"velocity":96,"programNumber":3},{"time":122619.79166666631,"duration":104.16666666667152,"noteNumber":59,"velocity":101,"programNumber":3},{"time":122744.79166666631,"duration":119.79166666667152,"noteNumber":63,"velocity":97,"programNumber":3},{"time":122869.79166666631,"duration":119.79166666667152,"noteNumber":59,"velocity":97,"programNumber":3},{"time":122994.79166666631,"duration":119.79166666667152,"noteNumber":64,"velocity":102,"programNumber":3},{"time":123119.79166666631,"duration":0,"noteNumber":59,"velocity":101,"programNumber":3},{"time":123119.79166666631,"duration":83.33333333332848,"noteNumber":59,"velocity":90,"programNumber":3},{"time":123244.79166666631,"duration":119.79166666667152,"noteNumber":63,"velocity":92,"programNumber":3},{"time":123244.79166666631,"duration":125,"noteNumber":59,"velocity":88,"programNumber":3},{"time":123369.79166666631,"duration":109.375,"noteNumber":59,"velocity":99,"programNumber":3},{"time":123494.79166666631,"duration":119.79166666667152,"noteNumber":64,"velocity":102,"programNumber":3},{"time":123494.79166666631,"duration":125,"noteNumber":59,"velocity":97,"programNumber":3},{"time":123619.79166666631,"duration":109.375,"noteNumber":59,"velocity":104,"programNumber":3},{"time":123744.79166666631,"duration":119.79166666667152,"noteNumber":63,"velocity":105,"programNumber":3},{"time":123869.79166666631,"duration":109.375,"noteNumber":59,"velocity":99,"programNumber":3},{"time":123994.79166666631,"duration":57.29166666667152,"noteNumber":59,"velocity":96,"programNumber":3},{"time":123994.79166666631,"duration":119.79166666667152,"noteNumber":71,"velocity":106,"programNumber":3},{"time":124119.79166666631,"duration":5.208333333328483,"noteNumber":59,"velocity":101,"programNumber":3},{"time":124244.79166666631,"duration":119.79166666667152,"noteNumber":69,"velocity":104,"programNumber":3},{"time":124124.99999999964,"duration":244.79166666667152,"noteNumber":59,"velocity":94,"programNumber":3},{"time":124369.79166666631,"duration":119.79166666667152,"noteNumber":59,"velocity":101,"programNumber":3},{"time":124494.79166666631,"duration":109.375,"noteNumber":68,"velocity":103,"programNumber":3},{"time":124494.79166666631,"duration":125,"noteNumber":59,"velocity":96,"programNumber":3},{"time":124619.79166666631,"duration":114.58333333332848,"noteNumber":59,"velocity":101,"programNumber":3},{"time":124744.79166666631,"duration":119.79166666667152,"noteNumber":69,"velocity":97,"programNumber":3},{"time":124869.79166666631,"duration":0,"noteNumber":59,"velocity":96,"programNumber":3},{"time":124869.79166666631,"duration":166.66666666667152,"noteNumber":59,"velocity":94,"programNumber":3},{"time":124994.79166666631,"duration":119.79166666667152,"noteNumber":68,"velocity":103,"programNumber":3},{"time":125119.79166666631,"duration":0,"noteNumber":59,"velocity":91,"programNumber":3},{"time":125119.79166666631,"duration":83.33333333332848,"noteNumber":59,"velocity":90,"programNumber":3},{"time":125244.79166666631,"duration":114.58333333332848,"noteNumber":66,"velocity":101,"programNumber":3},{"time":125249.99999999964,"duration":119.79166666667152,"noteNumber":59,"velocity":88,"programNumber":3},{"time":125369.79166666631,"duration":114.58333333332848,"noteNumber":59,"velocity":101,"programNumber":3},{"time":125494.79166666631,"duration":114.58333333332848,"noteNumber":68,"velocity":101,"programNumber":3},{"time":125499.99999999964,"duration":119.79166666667152,"noteNumber":59,"velocity":97,"programNumber":3},{"time":125619.79166666631,"duration":119.79166666667152,"noteNumber":59,"velocity":99,"programNumber":3},{"time":125744.79166666631,"duration":119.79166666667152,"noteNumber":64,"velocity":104,"programNumber":3},{"time":125869.79166666631,"duration":109.375,"noteNumber":59,"velocity":102,"programNumber":3},{"time":125994.79166666631,"duration":57.29166666667152,"noteNumber":59,"velocity":96,"programNumber":3},{"time":125994.79166666631,"duration":119.79166666667152,"noteNumber":66,"velocity":105,"programNumber":3},{"time":126119.79166666631,"duration":0,"noteNumber":59,"velocity":102,"programNumber":3},{"time":126244.79166666631,"duration":119.79166666667152,"noteNumber":63,"velocity":103,"programNumber":3},{"time":126119.79166666631,"duration":250,"noteNumber":59,"velocity":94,"programNumber":3},{"time":126369.79166666631,"duration":119.79166666667152,"noteNumber":59,"velocity":97,"programNumber":3},{"time":126494.79166666631,"duration":119.79166666667152,"noteNumber":64,"velocity":101,"programNumber":3},{"time":126494.79166666631,"duration":125,"noteNumber":59,"velocity":96,"programNumber":3},{"time":126619.79166666631,"duration":119.79166666667152,"noteNumber":59,"velocity":101,"programNumber":3},{"time":126744.79166666631,"duration":119.79166666667152,"noteNumber":63,"velocity":97,"programNumber":3},{"time":126869.79166666631,"duration":0,"noteNumber":59,"velocity":97,"programNumber":3},{"time":126869.79166666631,"duration":166.66666666667152,"noteNumber":59,"velocity":94,"programNumber":3},{"time":126994.79166666631,"duration":119.79166666667152,"noteNumber":64,"velocity":102,"programNumber":3},{"time":127119.79166666631,"duration":5.208333333328483,"noteNumber":59,"velocity":101,"programNumber":3},{"time":127124.99999999964,"duration":78.125,"noteNumber":59,"velocity":90,"programNumber":3},{"time":127244.79166666631,"duration":119.79166666667152,"noteNumber":63,"velocity":92,"programNumber":3},{"time":127244.79166666631,"duration":125,"noteNumber":59,"velocity":88,"programNumber":3},{"time":127369.79166666631,"duration":119.79166666667152,"noteNumber":59,"velocity":99,"programNumber":3},{"time":127494.79166666631,"duration":119.79166666667152,"noteNumber":64,"velocity":102,"programNumber":3},{"time":127494.79166666631,"duration":125,"noteNumber":59,"velocity":97,"programNumber":3},{"time":127619.79166666631,"duration":119.79166666667152,"noteNumber":59,"velocity":104,"programNumber":3},{"time":127744.79166666631,"duration":119.79166666667152,"noteNumber":63,"velocity":105,"programNumber":3},{"time":127869.79166666631,"duration":119.79166666667152,"noteNumber":59,"velocity":99,"programNumber":3},{"time":127999.99999999964,"duration":52.08333333332848,"noteNumber":59,"velocity":96,"programNumber":3},{"time":127994.79166666631,"duration":119.79166666665697,"noteNumber":71,"velocity":106,"programNumber":3},{"time":128119.7916666663,"duration":5.208333333328483,"noteNumber":59,"velocity":101,"programNumber":3},{"time":128244.7916666663,"duration":119.79166666667152,"noteNumber":69,"velocity":104,"programNumber":3},{"time":128124.99999999962,"duration":244.79166666667152,"noteNumber":59,"velocity":94,"programNumber":3},{"time":128369.7916666663,"duration":119.79166666667152,"noteNumber":59,"velocity":101,"programNumber":3},{"time":128494.7916666663,"duration":119.79166666667152,"noteNumber":68,"velocity":103,"programNumber":3},{"time":128494.7916666663,"duration":125,"noteNumber":59,"velocity":96,"programNumber":3},{"time":128619.7916666663,"duration":119.79166666667152,"noteNumber":59,"velocity":101,"programNumber":3},{"time":128744.7916666663,"duration":119.79166666667152,"noteNumber":69,"velocity":97,"programNumber":3},{"time":128869.7916666663,"duration":119.79166666667152,"noteNumber":59,"velocity":96,"programNumber":3},{"time":128994.7916666663,"duration":119.79166666667152,"noteNumber":68,"velocity":103,"programNumber":3},{"time":129119.7916666663,"duration":5.208333333328483,"noteNumber":59,"velocity":91,"programNumber":3},{"time":129124.99999999962,"duration":78.125,"noteNumber":59,"velocity":90,"programNumber":3},{"time":129244.7916666663,"duration":119.79166666667152,"noteNumber":66,"velocity":101,"programNumber":3},{"time":129244.7916666663,"duration":125,"noteNumber":59,"velocity":88,"programNumber":3},{"time":129369.7916666663,"duration":119.79166666667152,"noteNumber":59,"velocity":101,"programNumber":3},{"time":129494.7916666663,"duration":119.79166666667152,"noteNumber":68,"velocity":101,"programNumber":3},{"time":129494.7916666663,"duration":125,"noteNumber":59,"velocity":97,"programNumber":3},{"time":129619.7916666663,"duration":119.79166666667152,"noteNumber":59,"velocity":99,"programNumber":3},{"time":129744.7916666663,"duration":119.79166666667152,"noteNumber":64,"velocity":104,"programNumber":3},{"time":129869.7916666663,"duration":119.79166666667152,"noteNumber":59,"velocity":102,"programNumber":3},{"time":129994.7916666663,"duration":57.29166666667152,"noteNumber":59,"velocity":96,"programNumber":3},{"time":129994.7916666663,"duration":119.79166666667152,"noteNumber":66,"velocity":105,"programNumber":3},{"time":130119.7916666663,"duration":5.208333333328483,"noteNumber":59,"velocity":102,"programNumber":3},{"time":130244.7916666663,"duration":119.79166666667152,"noteNumber":63,"velocity":103,"programNumber":3},{"time":130124.99999999962,"duration":244.79166666667152,"noteNumber":59,"velocity":94,"programNumber":3},{"time":130369.7916666663,"duration":119.79166666667152,"noteNumber":59,"velocity":97,"programNumber":3},{"time":130494.7916666663,"duration":119.79166666665697,"noteNumber":64,"velocity":101,"programNumber":3},{"time":130499.99999999962,"duration":119.79166666665697,"noteNumber":59,"velocity":96,"programNumber":3},{"time":130619.79166666628,"duration":119.79166666667152,"noteNumber":59,"velocity":101,"programNumber":3},{"time":130744.79166666628,"duration":119.79166666667152,"noteNumber":63,"velocity":97,"programNumber":3},{"time":130869.79166666628,"duration":0,"noteNumber":59,"velocity":97,"programNumber":3},{"time":130869.79166666628,"duration":166.66666666667152,"noteNumber":59,"velocity":94,"programNumber":3},{"time":130994.79166666628,"duration":109.375,"noteNumber":64,"velocity":102,"programNumber":3},{"time":131109.37499999962,"duration":15.625,"noteNumber":59,"velocity":101,"programNumber":3},{"time":131124.99999999962,"duration":78.125,"noteNumber":59,"velocity":90,"programNumber":3},{"time":131244.79166666628,"duration":109.375,"noteNumber":63,"velocity":92,"programNumber":3},{"time":131244.79166666628,"duration":114.58333333334303,"noteNumber":59,"velocity":88,"programNumber":3},{"time":131359.37499999962,"duration":119.79166666665697,"noteNumber":59,"velocity":99,"programNumber":3},{"time":131494.79166666628,"duration":109.375,"noteNumber":64,"velocity":102,"programNumber":3},{"time":131494.79166666628,"duration":114.58333333334303,"noteNumber":59,"velocity":97,"programNumber":3},{"time":131609.37499999962,"duration":119.79166666665697,"noteNumber":59,"velocity":104,"programNumber":3},{"time":131744.79166666628,"duration":119.79166666665697,"noteNumber":63,"velocity":105,"programNumber":3},{"time":131869.79166666628,"duration":109.375,"noteNumber":59,"velocity":99,"programNumber":3},{"time":131994.79166666628,"duration":57.291666666656965,"noteNumber":59,"velocity":96,"programNumber":3},{"time":131994.79166666628,"duration":119.79166666665697,"noteNumber":71,"velocity":106,"programNumber":3},{"time":132119.79166666628,"duration":5.208333333343035,"noteNumber":59,"velocity":101,"programNumber":3},{"time":132244.79166666628,"duration":119.79166666665697,"noteNumber":69,"velocity":104,"programNumber":3},{"time":132124.99999999962,"duration":244.79166666665697,"noteNumber":59,"velocity":94,"programNumber":3},{"time":132369.79166666628,"duration":114.58333333334303,"noteNumber":59,"velocity":101,"programNumber":3},{"time":132494.79166666628,"duration":119.79166666665697,"noteNumber":68,"velocity":103,"programNumber":3},{"time":132494.79166666628,"duration":125,"noteNumber":59,"velocity":96,"programNumber":3},{"time":132619.79166666628,"duration":119.79166666665697,"noteNumber":59,"velocity":101,"programNumber":3},{"time":132744.79166666628,"duration":119.79166666665697,"noteNumber":69,"velocity":97,"programNumber":3},{"time":132869.79166666628,"duration":119.79166666665697,"noteNumber":59,"velocity":96,"programNumber":3},{"time":132994.79166666628,"duration":109.375,"noteNumber":68,"velocity":103,"programNumber":3},{"time":133119.79166666628,"duration":5.208333333343035,"noteNumber":59,"velocity":91,"programNumber":3},{"time":133124.99999999962,"duration":78.125,"noteNumber":59,"velocity":90,"programNumber":3},{"time":133244.79166666628,"duration":119.79166666665697,"noteNumber":66,"velocity":101,"programNumber":3},{"time":133244.79166666628,"duration":125,"noteNumber":59,"velocity":88,"programNumber":3},{"time":133369.79166666628,"duration":114.58333333334303,"noteNumber":59,"velocity":101,"programNumber":3},{"time":133494.79166666628,"duration":119.79166666665697,"noteNumber":68,"velocity":101,"programNumber":3},{"time":133494.79166666628,"duration":125,"noteNumber":59,"velocity":97,"programNumber":3},{"time":133619.79166666628,"duration":119.79166666665697,"noteNumber":59,"velocity":99,"programNumber":3},{"time":133744.79166666628,"duration":119.79166666665697,"noteNumber":64,"velocity":104,"programNumber":3},{"time":133869.79166666628,"duration":119.79166666665697,"noteNumber":59,"velocity":102,"programNumber":3},{"time":133994.79166666628,"duration":57.291666666656965,"noteNumber":59,"velocity":96,"programNumber":3},{"time":133994.79166666628,"duration":119.79166666665697,"noteNumber":66,"velocity":105,"programNumber":3},{"time":134119.79166666628,"duration":5.208333333343035,"noteNumber":59,"velocity":102,"programNumber":3},{"time":134244.79166666628,"duration":119.79166666665697,"noteNumber":63,"velocity":103,"programNumber":3},{"time":134124.99999999962,"duration":244.79166666665697,"noteNumber":59,"velocity":94,"programNumber":3},{"time":134369.79166666628,"duration":119.79166666665697,"noteNumber":59,"velocity":97,"programNumber":3},{"time":134494.79166666628,"duration":119.79166666665697,"noteNumber":64,"velocity":101,"programNumber":3},{"time":134494.79166666628,"duration":125,"noteNumber":59,"velocity":96,"programNumber":3},{"time":134619.79166666628,"duration":119.79166666665697,"noteNumber":59,"velocity":101,"programNumber":3},{"time":134744.79166666628,"duration":119.79166666665697,"noteNumber":63,"velocity":97,"programNumber":3},{"time":134869.79166666628,"duration":0,"noteNumber":59,"velocity":97,"programNumber":3},{"time":134869.79166666628,"duration":166.66666666665697,"noteNumber":59,"velocity":94,"programNumber":3},{"time":134994.79166666628,"duration":119.79166666665697,"noteNumber":64,"velocity":102,"programNumber":3},{"time":135119.79166666628,"duration":5.208333333343035,"noteNumber":59,"velocity":101,"programNumber":3},{"time":135124.99999999962,"duration":78.125,"noteNumber":59,"velocity":90,"programNumber":3},{"time":135244.79166666628,"duration":119.79166666665697,"noteNumber":63,"velocity":92,"programNumber":3},{"time":135244.79166666628,"duration":125,"noteNumber":59,"velocity":88,"programNumber":3},{"time":135369.79166666628,"duration":119.79166666665697,"noteNumber":59,"velocity":99,"programNumber":3},{"time":135494.79166666628,"duration":119.79166666668607,"noteNumber":64,"velocity":102,"programNumber":3},{"time":135499.99999999962,"duration":119.79166666668607,"noteNumber":59,"velocity":97,"programNumber":3},{"time":135619.7916666663,"duration":119.79166666665697,"noteNumber":59,"velocity":104,"programNumber":3},{"time":135744.7916666663,"duration":119.79166666665697,"noteNumber":63,"velocity":105,"programNumber":3},{"time":135869.7916666663,"duration":119.79166666665697,"noteNumber":59,"velocity":99,"programNumber":3},{"time":135994.7916666663,"duration":57.291666666656965,"noteNumber":59,"velocity":96,"programNumber":3},{"time":135994.7916666663,"duration":119.79166666665697,"noteNumber":71,"velocity":106,"programNumber":3},{"time":136119.7916666663,"duration":5.208333333343035,"noteNumber":59,"velocity":101,"programNumber":3},{"time":136244.7916666663,"duration":119.79166666665697,"noteNumber":69,"velocity":104,"programNumber":3},{"time":136124.99999999965,"duration":244.79166666665697,"noteNumber":59,"velocity":94,"programNumber":3},{"time":136369.7916666663,"duration":119.79166666665697,"noteNumber":59,"velocity":101,"programNumber":3},{"time":136494.7916666663,"duration":119.79166666665697,"noteNumber":68,"velocity":103,"programNumber":3},{"time":136494.7916666663,"duration":125,"noteNumber":59,"velocity":96,"programNumber":3},{"time":136619.7916666663,"duration":119.79166666665697,"noteNumber":59,"velocity":101,"programNumber":3},{"time":136744.7916666663,"duration":119.79166666665697,"noteNumber":69,"velocity":97,"programNumber":3},{"time":136869.7916666663,"duration":0,"noteNumber":59,"velocity":96,"programNumber":3},{"time":136869.7916666663,"duration":166.66666666665697,"noteNumber":59,"velocity":94,"programNumber":3},{"time":136994.7916666663,"duration":119.79166666665697,"noteNumber":68,"velocity":103,"programNumber":3},{"time":137119.7916666663,"duration":5.208333333343035,"noteNumber":59,"velocity":91,"programNumber":3},{"time":137124.99999999965,"duration":78.125,"noteNumber":59,"velocity":90,"programNumber":3},{"time":137244.7916666663,"duration":119.79166666665697,"noteNumber":66,"velocity":101,"programNumber":3},{"time":137244.7916666663,"duration":125,"noteNumber":59,"velocity":88,"programNumber":3},{"time":137369.7916666663,"duration":119.79166666665697,"noteNumber":59,"velocity":101,"programNumber":3},{"time":137494.7916666663,"duration":119.79166666668607,"noteNumber":68,"velocity":101,"programNumber":3},{"time":137499.99999999965,"duration":119.79166666668607,"noteNumber":59,"velocity":97,"programNumber":3},{"time":137619.79166666634,"duration":119.79166666665697,"noteNumber":59,"velocity":99,"programNumber":3},{"time":137744.79166666634,"duration":119.79166666665697,"noteNumber":64,"velocity":104,"programNumber":3},{"time":137869.79166666634,"duration":104.16666666665697,"noteNumber":59,"velocity":102,"programNumber":3},{"time":137999.99999999968,"duration":52.083333333343035,"noteNumber":59,"velocity":96,"programNumber":3},{"time":137994.79166666634,"duration":119.79166666668607,"noteNumber":66,"velocity":105,"programNumber":3},{"time":138119.79166666637,"duration":5.208333333343035,"noteNumber":59,"velocity":102,"programNumber":3},{"time":138244.79166666637,"duration":119.79166666665697,"noteNumber":63,"velocity":103,"programNumber":3},{"time":138124.9999999997,"duration":244.79166666665697,"noteNumber":59,"velocity":94,"programNumber":3},{"time":138369.79166666637,"duration":104.16666666665697,"noteNumber":59,"velocity":97,"programNumber":3},{"time":138494.79166666637,"duration":109.375,"noteNumber":64,"velocity":101,"programNumber":3},{"time":138494.79166666637,"duration":114.58333333334303,"noteNumber":59,"velocity":96,"programNumber":3},{"time":138609.3749999997,"duration":130.20833333334303,"noteNumber":59,"velocity":101,"programNumber":3},{"time":138744.7916666664,"duration":109.375,"noteNumber":63,"velocity":97,"programNumber":3},{"time":138859.37499999974,"duration":10.416666666656965,"noteNumber":59,"velocity":97,"programNumber":3},{"time":138869.7916666664,"duration":166.66666666665697,"noteNumber":59,"velocity":94,"programNumber":3},{"time":138994.7916666664,"duration":109.375,"noteNumber":64,"velocity":102,"programNumber":3},{"time":139109.37499999974,"duration":15.625,"noteNumber":59,"velocity":101,"programNumber":3},{"time":139124.99999999974,"duration":78.125,"noteNumber":59,"velocity":90,"programNumber":3},{"time":139244.7916666664,"duration":104.16666666665697,"noteNumber":63,"velocity":92,"programNumber":3},{"time":139244.7916666664,"duration":109.375,"noteNumber":59,"velocity":88,"programNumber":3},{"time":139354.1666666664,"duration":135.41666666665697,"noteNumber":59,"velocity":99,"programNumber":3},{"time":139494.7916666664,"duration":104.16666666665697,"noteNumber":64,"velocity":102,"programNumber":3},{"time":139494.7916666664,"duration":109.375,"noteNumber":59,"velocity":97,"programNumber":3},{"time":139604.1666666664,"duration":125,"noteNumber":59,"velocity":104,"programNumber":3},{"time":139744.7916666664,"duration":119.79166666665697,"noteNumber":63,"velocity":105,"programNumber":3},{"time":139869.7916666664,"duration":119.79166666665697,"noteNumber":59,"velocity":99,"programNumber":3},{"time":139994.7916666664,"duration":57.291666666656965,"noteNumber":59,"velocity":96,"programNumber":3},{"time":139994.7916666664,"duration":119.79166666665697,"noteNumber":71,"velocity":106,"programNumber":3},{"time":140119.7916666664,"duration":0,"noteNumber":59,"velocity":101,"programNumber":3},{"time":140244.7916666664,"duration":119.79166666665697,"noteNumber":69,"velocity":104,"programNumber":3},{"time":140119.7916666664,"duration":250,"noteNumber":59,"velocity":94,"programNumber":3},{"time":140369.7916666664,"duration":119.79166666665697,"noteNumber":59,"velocity":101,"programNumber":3},{"time":140494.7916666664,"duration":119.79166666665697,"noteNumber":68,"velocity":103,"programNumber":3},{"time":140494.7916666664,"duration":125,"noteNumber":59,"velocity":96,"programNumber":3},{"time":140619.7916666664,"duration":119.79166666665697,"noteNumber":59,"velocity":101,"programNumber":3},{"time":140744.7916666664,"duration":109.375,"noteNumber":69,"velocity":97,"programNumber":3},{"time":140859.37499999974,"duration":10.416666666656965,"noteNumber":59,"velocity":96,"programNumber":3},{"time":140869.7916666664,"duration":166.66666666665697,"noteNumber":59,"velocity":94,"programNumber":3},{"time":140994.7916666664,"duration":119.79166666665697,"noteNumber":68,"velocity":103,"programNumber":3},{"time":141119.7916666664,"duration":5.208333333343035,"noteNumber":59,"velocity":91,"programNumber":3},{"time":141124.99999999974,"duration":78.125,"noteNumber":59,"velocity":90,"programNumber":3},{"time":141244.7916666664,"duration":119.79166666665697,"noteNumber":66,"velocity":101,"programNumber":3},{"time":141244.7916666664,"duration":125,"noteNumber":59,"velocity":88,"programNumber":3},{"time":141369.7916666664,"duration":119.79166666665697,"noteNumber":59,"velocity":101,"programNumber":3},{"time":141494.7916666664,"duration":119.79166666665697,"noteNumber":68,"velocity":101,"programNumber":3},{"time":141494.7916666664,"duration":125,"noteNumber":59,"velocity":97,"programNumber":3},{"time":141619.7916666664,"duration":119.79166666665697,"noteNumber":59,"velocity":99,"programNumber":3},{"time":141744.7916666664,"duration":119.79166666665697,"noteNumber":64,"velocity":104,"programNumber":3},{"time":141869.7916666664,"duration":119.79166666665697,"noteNumber":59,"velocity":102,"programNumber":3},{"time":141999.99999999974,"duration":46.875,"noteNumber":59,"velocity":96,"programNumber":3},{"time":141994.7916666664,"duration":109.375,"noteNumber":66,"velocity":105,"programNumber":3},{"time":142109.37499999974,"duration":15.625,"noteNumber":59,"velocity":102,"programNumber":3},{"time":142244.7916666664,"duration":119.79166666665697,"noteNumber":63,"velocity":103,"programNumber":3},{"time":142124.99999999974,"duration":244.79166666665697,"noteNumber":59,"velocity":94,"programNumber":3},{"time":142369.7916666664,"duration":109.375,"noteNumber":59,"velocity":97,"programNumber":3},{"time":142494.7916666664,"duration":119.79166666665697,"noteNumber":64,"velocity":101,"programNumber":3},{"time":142494.7916666664,"duration":125,"noteNumber":59,"velocity":96,"programNumber":3},{"time":142619.7916666664,"duration":119.79166666665697,"noteNumber":59,"velocity":101,"programNumber":3},{"time":142744.7916666664,"duration":119.79166666665697,"noteNumber":63,"velocity":97,"programNumber":3},{"time":142869.7916666664,"duration":0,"noteNumber":59,"velocity":97,"programNumber":3},{"time":142869.7916666664,"duration":166.66666666665697,"noteNumber":59,"velocity":94,"programNumber":3},{"time":142994.7916666664,"duration":119.79166666665697,"noteNumber":64,"velocity":102,"programNumber":3},{"time":143119.7916666664,"duration":5.208333333343035,"noteNumber":59,"velocity":101,"programNumber":3},{"time":143124.99999999974,"duration":78.125,"noteNumber":59,"velocity":90,"programNumber":3},{"time":143244.7916666664,"duration":109.375,"noteNumber":63,"velocity":92,"programNumber":3},{"time":143244.7916666664,"duration":114.58333333334303,"noteNumber":59,"velocity":88,"programNumber":3},{"time":143359.37499999974,"duration":130.20833333334303,"noteNumber":59,"velocity":99,"programNumber":3},{"time":143494.79166666642,"duration":119.79166666668607,"noteNumber":64,"velocity":102,"programNumber":3},{"time":143499.99999999977,"duration":119.79166666668607,"noteNumber":59,"velocity":97,"programNumber":3},{"time":143619.79166666645,"duration":119.79166666665697,"noteNumber":59,"velocity":104,"programNumber":3},{"time":143744.79166666645,"duration":119.79166666665697,"noteNumber":63,"velocity":105,"programNumber":3},{"time":143869.79166666645,"duration":104.16666666665697,"noteNumber":59,"velocity":99,"programNumber":3},{"time":143994.79166666645,"duration":57.291666666656965,"noteNumber":59,"velocity":96,"programNumber":3},{"time":143994.79166666645,"duration":109.375,"noteNumber":71,"velocity":106,"programNumber":3},{"time":144119.79166666645,"duration":0,"noteNumber":59,"velocity":101,"programNumber":3},{"time":144244.79166666645,"duration":119.79166666665697,"noteNumber":69,"velocity":104,"programNumber":3},{"time":144119.79166666645,"duration":250,"noteNumber":59,"velocity":94,"programNumber":3},{"time":144369.79166666645,"duration":119.79166666665697,"noteNumber":59,"velocity":101,"programNumber":3},{"time":144494.79166666645,"duration":119.79166666665697,"noteNumber":68,"velocity":103,"programNumber":3},{"time":144494.79166666645,"duration":125,"noteNumber":59,"velocity":96,"programNumber":3},{"time":144619.79166666645,"duration":119.79166666665697,"noteNumber":59,"velocity":101,"programNumber":3},{"time":144744.79166666645,"duration":119.79166666665697,"noteNumber":69,"velocity":97,"programNumber":3},{"time":144869.79166666645,"duration":0,"noteNumber":59,"velocity":96,"programNumber":3},{"time":144869.79166666645,"duration":166.66666666665697,"noteNumber":59,"velocity":94,"programNumber":3},{"time":144994.79166666645,"duration":119.79166666665697,"noteNumber":68,"velocity":103,"programNumber":3},{"time":145119.79166666645,"duration":5.208333333343035,"noteNumber":59,"velocity":91,"programNumber":3},{"time":145124.9999999998,"duration":78.125,"noteNumber":59,"velocity":90,"programNumber":3},{"time":145244.79166666645,"duration":104.16666666665697,"noteNumber":66,"velocity":101,"programNumber":3},{"time":145244.79166666645,"duration":114.58333333331393,"noteNumber":59,"velocity":88,"programNumber":3},{"time":145359.37499999977,"duration":130.20833333334303,"noteNumber":59,"velocity":101,"programNumber":3},{"time":145494.79166666645,"duration":104.16666666665697,"noteNumber":68,"velocity":101,"programNumber":3},{"time":145494.79166666645,"duration":114.58333333331393,"noteNumber":59,"velocity":97,"programNumber":3},{"time":145609.37499999977,"duration":130.20833333334303,"noteNumber":59,"velocity":99,"programNumber":3},{"time":145744.79166666645,"duration":109.375,"noteNumber":64,"velocity":104,"programNumber":3},{"time":145869.79166666645,"duration":109.375,"noteNumber":59,"velocity":102,"programNumber":3},{"time":145999.9999999998,"duration":52.083333333343035,"noteNumber":59,"velocity":96,"programNumber":3},{"time":145994.79166666645,"duration":109.3750000000291,"noteNumber":66,"velocity":105,"programNumber":3},{"time":146119.79166666648,"duration":5.208333333343035,"noteNumber":59,"velocity":102,"programNumber":3},{"time":146244.79166666648,"duration":109.375,"noteNumber":63,"velocity":103,"programNumber":3},{"time":146124.99999999983,"duration":244.79166666665697,"noteNumber":59,"velocity":94,"programNumber":3},{"time":146369.79166666648,"duration":104.16666666665697,"noteNumber":59,"velocity":97,"programNumber":3},{"time":146494.79166666648,"duration":119.79166666665697,"noteNumber":64,"velocity":101,"programNumber":3},{"time":146494.79166666648,"duration":125,"noteNumber":59,"velocity":96,"programNumber":3},{"time":146619.79166666648,"duration":114.58333333334303,"noteNumber":59,"velocity":101,"programNumber":3},{"time":146744.79166666648,"duration":119.79166666665697,"noteNumber":63,"velocity":97,"programNumber":3},{"time":146869.79166666648,"duration":114.58333333334303,"noteNumber":59,"velocity":97,"programNumber":3},{"time":146994.79166666648,"duration":114.58333333334303,"noteNumber":64,"velocity":102,"programNumber":3},{"time":147119.79166666648,"duration":5.208333333343035,"noteNumber":59,"velocity":101,"programNumber":3},{"time":147124.99999999983,"duration":78.125,"noteNumber":59,"velocity":90,"programNumber":3},{"time":147244.79166666648,"duration":114.58333333334303,"noteNumber":63,"velocity":92,"programNumber":3},{"time":147244.79166666648,"duration":125,"noteNumber":59,"velocity":88,"programNumber":3},{"time":147369.79166666648,"duration":119.79166666665697,"noteNumber":59,"velocity":99,"programNumber":3},{"time":147494.79166666648,"duration":119.79166666665697,"noteNumber":64,"velocity":102,"programNumber":3},{"time":147494.79166666648,"duration":125,"noteNumber":59,"velocity":97,"programNumber":3},{"time":147619.79166666648,"duration":119.79166666665697,"noteNumber":59,"velocity":104,"programNumber":3},{"time":147744.79166666648,"duration":119.79166666665697,"noteNumber":63,"velocity":105,"programNumber":3},{"time":147869.79166666648,"duration":119.79166666665697,"noteNumber":59,"velocity":99,"programNumber":3},{"time":147994.79166666648,"duration":57.291666666656965,"noteNumber":59,"velocity":96,"programNumber":3},{"time":147994.79166666648,"duration":119.79166666665697,"noteNumber":71,"velocity":106,"programNumber":3},{"time":148119.79166666648,"duration":5.208333333343035,"noteNumber":59,"velocity":101,"programNumber":3},{"time":148244.79166666648,"duration":119.79166666665697,"noteNumber":69,"velocity":104,"programNumber":3},{"time":148124.99999999983,"duration":244.79166666665697,"noteNumber":59,"velocity":94,"programNumber":3},{"time":148369.79166666648,"duration":119.79166666665697,"noteNumber":59,"velocity":101,"programNumber":3},{"time":148494.79166666648,"duration":119.79166666665697,"noteNumber":68,"velocity":103,"programNumber":3},{"time":148494.79166666648,"duration":125,"noteNumber":59,"velocity":96,"programNumber":3},{"time":148619.79166666648,"duration":119.79166666665697,"noteNumber":59,"velocity":101,"programNumber":3},{"time":148744.79166666648,"duration":119.79166666665697,"noteNumber":69,"velocity":97,"programNumber":3},{"time":148869.79166666648,"duration":0,"noteNumber":59,"velocity":96,"programNumber":3},{"time":148869.79166666648,"duration":166.66666666665697,"noteNumber":59,"velocity":94,"programNumber":3},{"time":148994.79166666648,"duration":119.79166666665697,"noteNumber":68,"velocity":103,"programNumber":3},{"time":149119.79166666648,"duration":5.208333333343035,"noteNumber":59,"velocity":91,"programNumber":3},{"time":149124.99999999983,"duration":78.125,"noteNumber":59,"velocity":90,"programNumber":3},{"time":149244.79166666648,"duration":119.79166666665697,"noteNumber":66,"velocity":101,"programNumber":3},{"time":149244.79166666648,"duration":125,"noteNumber":59,"velocity":88,"programNumber":3},{"time":149369.79166666648,"duration":119.79166666665697,"noteNumber":59,"velocity":101,"programNumber":3},{"time":149494.79166666648,"duration":119.79166666668607,"noteNumber":68,"velocity":101,"programNumber":3},{"time":149499.99999999983,"duration":119.79166666668607,"noteNumber":59,"velocity":97,"programNumber":3},{"time":149619.7916666665,"duration":119.79166666665697,"noteNumber":59,"velocity":99,"programNumber":3},{"time":149744.7916666665,"duration":119.79166666665697,"noteNumber":64,"velocity":104,"programNumber":3},{"time":149869.7916666665,"duration":119.79166666665697,"noteNumber":59,"velocity":102,"programNumber":3},{"time":149994.7916666665,"duration":57.291666666656965,"noteNumber":59,"velocity":96,"programNumber":3},{"time":149994.7916666665,"duration":119.79166666665697,"noteNumber":66,"velocity":105,"programNumber":3},{"time":150119.7916666665,"duration":0,"noteNumber":59,"velocity":102,"programNumber":3},{"time":150244.7916666665,"duration":119.79166666665697,"noteNumber":63,"velocity":103,"programNumber":3},{"time":150119.7916666665,"duration":250,"noteNumber":59,"velocity":94,"programNumber":3},{"time":150369.7916666665,"duration":119.79166666665697,"noteNumber":59,"velocity":97,"programNumber":3},{"time":150494.7916666665,"duration":119.79166666665697,"noteNumber":64,"velocity":101,"programNumber":3},{"time":150494.7916666665,"duration":125,"noteNumber":59,"velocity":96,"programNumber":3},{"time":150619.7916666665,"duration":119.79166666665697,"noteNumber":59,"velocity":101,"programNumber":3},{"time":150744.7916666665,"duration":119.79166666665697,"noteNumber":63,"velocity":97,"programNumber":3},{"time":150869.7916666665,"duration":0,"noteNumber":59,"velocity":97,"programNumber":3},{"time":150869.7916666665,"duration":166.66666666665697,"noteNumber":59,"velocity":94,"programNumber":3},{"time":150994.7916666665,"duration":119.79166666665697,"noteNumber":64,"velocity":102,"programNumber":3},{"time":151119.7916666665,"duration":5.208333333343035,"noteNumber":59,"velocity":101,"programNumber":3},{"time":151124.99999999985,"duration":78.125,"noteNumber":59,"velocity":90,"programNumber":3},{"time":151244.7916666665,"duration":119.79166666665697,"noteNumber":63,"velocity":92,"programNumber":3},{"time":151244.7916666665,"duration":125,"noteNumber":59,"velocity":88,"programNumber":3},{"time":151369.7916666665,"duration":119.79166666665697,"noteNumber":59,"velocity":99,"programNumber":3},{"time":151494.7916666665,"duration":109.375,"noteNumber":64,"velocity":102,"programNumber":3},{"time":151494.7916666665,"duration":114.58333333334303,"noteNumber":59,"velocity":97,"programNumber":3},{"time":151609.37499999985,"duration":130.20833333334303,"noteNumber":59,"velocity":104,"programNumber":3},{"time":151744.79166666654,"duration":119.79166666665697,"noteNumber":63,"velocity":105,"programNumber":3},{"time":151869.79166666654,"duration":119.79166666665697,"noteNumber":59,"velocity":99,"programNumber":3},{"time":151999.99999999988,"duration":52.083333333343035,"noteNumber":59,"velocity":96,"programNumber":3},{"time":151994.79166666654,"duration":119.79166666668607,"noteNumber":71,"velocity":106,"programNumber":3},{"time":152119.79166666657,"duration":5.208333333343035,"noteNumber":59,"velocity":101,"programNumber":3},{"time":152244.79166666657,"duration":119.79166666665697,"noteNumber":69,"velocity":104,"programNumber":3},{"time":152124.9999999999,"duration":244.79166666665697,"noteNumber":59,"velocity":94,"programNumber":3},{"time":152369.79166666657,"duration":119.79166666665697,"noteNumber":59,"velocity":101,"programNumber":3},{"time":152494.79166666657,"duration":119.79166666665697,"noteNumber":68,"velocity":103,"programNumber":3},{"time":152494.79166666657,"duration":125,"noteNumber":59,"velocity":96,"programNumber":3},{"time":152619.79166666657,"duration":109.375,"noteNumber":59,"velocity":101,"programNumber":3},{"time":152744.79166666657,"duration":119.79166666665697,"noteNumber":69,"velocity":97,"programNumber":3},{"time":152869.79166666657,"duration":0,"noteNumber":59,"velocity":96,"programNumber":3},{"time":152869.79166666657,"duration":166.66666666665697,"noteNumber":59,"velocity":94,"programNumber":3},{"time":152994.79166666657,"duration":119.79166666665697,"noteNumber":68,"velocity":103,"programNumber":3},{"time":153119.79166666657,"duration":5.208333333343035,"noteNumber":59,"velocity":91,"programNumber":3},{"time":153124.9999999999,"duration":78.125,"noteNumber":59,"velocity":90,"programNumber":3},{"time":153244.79166666657,"duration":119.79166666665697,"noteNumber":66,"velocity":101,"programNumber":3},{"time":153244.79166666657,"duration":125,"noteNumber":59,"velocity":88,"programNumber":3},{"time":153369.79166666657,"duration":119.79166666665697,"noteNumber":59,"velocity":101,"programNumber":3},{"time":153494.79166666657,"duration":109.375,"noteNumber":68,"velocity":101,"programNumber":3},{"time":153499.9999999999,"duration":119.79166666665697,"noteNumber":59,"velocity":97,"programNumber":3},{"time":153619.79166666657,"duration":119.79166666665697,"noteNumber":59,"velocity":99,"programNumber":3},{"time":153744.79166666657,"duration":119.79166666665697,"noteNumber":64,"velocity":104,"programNumber":3},{"time":153869.79166666657,"duration":119.79166666665697,"noteNumber":59,"velocity":102,"programNumber":3},{"time":153999.9999999999,"duration":52.083333333343035,"noteNumber":59,"velocity":96,"programNumber":3},{"time":153994.79166666657,"duration":114.58333333334303,"noteNumber":66,"velocity":105,"programNumber":3},{"time":154119.79166666657,"duration":5.208333333343035,"noteNumber":59,"velocity":102,"programNumber":3},{"time":154244.79166666657,"duration":114.58333333334303,"noteNumber":63,"velocity":103,"programNumber":3},{"time":154124.9999999999,"duration":244.79166666665697,"noteNumber":59,"velocity":94,"programNumber":3},{"time":154369.79166666657,"duration":119.79166666665697,"noteNumber":59,"velocity":97,"programNumber":3},{"time":154494.79166666657,"duration":119.79166666665697,"noteNumber":64,"velocity":101,"programNumber":3},{"time":154494.79166666657,"duration":125,"noteNumber":59,"velocity":96,"programNumber":3},{"time":154619.79166666657,"duration":119.79166666665697,"noteNumber":59,"velocity":101,"programNumber":3},{"time":154744.79166666657,"duration":114.58333333334303,"noteNumber":63,"velocity":97,"programNumber":3},{"time":154869.79166666657,"duration":0,"noteNumber":59,"velocity":97,"programNumber":3},{"time":154869.79166666657,"duration":166.66666666665697,"noteNumber":59,"velocity":94,"programNumber":3},{"time":154994.79166666657,"duration":119.79166666665697,"noteNumber":64,"velocity":102,"programNumber":3},{"time":155119.79166666657,"duration":5.208333333343035,"noteNumber":59,"velocity":101,"programNumber":3},{"time":155124.9999999999,"duration":78.125,"noteNumber":59,"velocity":90,"programNumber":3},{"time":155244.79166666657,"duration":119.79166666665697,"noteNumber":63,"velocity":92,"programNumber":3},{"time":155244.79166666657,"duration":125,"noteNumber":59,"velocity":88,"programNumber":3},{"time":155369.79166666657,"duration":119.79166666665697,"noteNumber":59,"velocity":99,"programNumber":3},{"time":155494.79166666657,"duration":119.79166666665697,"noteNumber":64,"velocity":102,"programNumber":3},{"time":155494.79166666657,"duration":125,"noteNumber":59,"velocity":97,"programNumber":3},{"time":155619.79166666657,"duration":119.79166666665697,"noteNumber":59,"velocity":104,"programNumber":3},{"time":155744.79166666657,"duration":119.79166666665697,"noteNumber":63,"velocity":105,"programNumber":3},{"time":155869.79166666657,"duration":119.79166666665697,"noteNumber":59,"velocity":99,"programNumber":3},{"time":155994.79166666657,"duration":57.291666666656965,"noteNumber":59,"velocity":96,"programNumber":3},{"time":155994.79166666657,"duration":119.79166666665697,"noteNumber":71,"velocity":106,"programNumber":3},{"time":156119.79166666657,"duration":0,"noteNumber":59,"velocity":101,"programNumber":3},{"time":156244.79166666657,"duration":119.79166666665697,"noteNumber":69,"velocity":104,"programNumber":3},{"time":156119.79166666657,"duration":250,"noteNumber":59,"velocity":94,"programNumber":3},{"time":156369.79166666657,"duration":119.79166666665697,"noteNumber":59,"velocity":101,"programNumber":3},{"time":156494.79166666657,"duration":119.79166666668607,"noteNumber":68,"velocity":103,"programNumber":3},{"time":156499.9999999999,"duration":119.79166666668607,"noteNumber":59,"velocity":96,"programNumber":3},{"time":156619.7916666666,"duration":119.79166666665697,"noteNumber":59,"velocity":101,"programNumber":3},{"time":156744.7916666666,"duration":119.79166666665697,"noteNumber":69,"velocity":97,"programNumber":3},{"time":156869.7916666666,"duration":119.79166666665697,"noteNumber":59,"velocity":96,"programNumber":3},{"time":156994.7916666666,"duration":119.79166666665697,"noteNumber":68,"velocity":103,"programNumber":3},{"time":157119.7916666666,"duration":5.208333333343035,"noteNumber":59,"velocity":91,"programNumber":3},{"time":157124.99999999994,"duration":78.125,"noteNumber":59,"velocity":90,"programNumber":3},{"time":157244.7916666666,"duration":119.79166666665697,"noteNumber":66,"velocity":101,"programNumber":3},{"time":157244.7916666666,"duration":125,"noteNumber":59,"velocity":88,"programNumber":3},{"time":157369.7916666666,"duration":119.79166666665697,"noteNumber":59,"velocity":101,"programNumber":3},{"time":157494.7916666666,"duration":119.79166666665697,"noteNumber":68,"velocity":101,"programNumber":3},{"time":157494.7916666666,"duration":125,"noteNumber":59,"velocity":97,"programNumber":3},{"time":157619.7916666666,"duration":119.79166666665697,"noteNumber":59,"velocity":99,"programNumber":3},{"time":157744.7916666666,"duration":119.79166666665697,"noteNumber":64,"velocity":104,"programNumber":3},{"time":157869.7916666666,"duration":119.79166666665697,"noteNumber":59,"velocity":102,"programNumber":3},{"time":157994.7916666666,"duration":57.291666666656965,"noteNumber":59,"velocity":96,"programNumber":3},{"time":157994.7916666666,"duration":119.79166666665697,"noteNumber":66,"velocity":105,"programNumber":3},{"time":158119.7916666666,"duration":5.208333333343035,"noteNumber":59,"velocity":102,"programNumber":3},{"time":158244.7916666666,"duration":119.79166666665697,"noteNumber":63,"velocity":103,"programNumber":3},{"time":158124.99999999994,"duration":244.79166666665697,"noteNumber":59,"velocity":94,"programNumber":3},{"time":158369.7916666666,"duration":119.79166666665697,"noteNumber":59,"velocity":97,"programNumber":3},{"time":158494.7916666666,"duration":119.79166666665697,"noteNumber":64,"velocity":101,"programNumber":3},{"time":158494.7916666666,"duration":125,"noteNumber":59,"velocity":96,"programNumber":3},{"time":158619.7916666666,"duration":119.79166666665697,"noteNumber":59,"velocity":101,"programNumber":3},{"time":158744.7916666666,"duration":119.79166666665697,"noteNumber":63,"velocity":97,"programNumber":3},{"time":158869.7916666666,"duration":0,"noteNumber":59,"velocity":97,"programNumber":3},{"time":158869.7916666666,"duration":166.66666666665697,"noteNumber":59,"velocity":94,"programNumber":3},{"time":158994.7916666666,"duration":119.79166666665697,"noteNumber":64,"velocity":102,"programNumber":3},{"time":159119.7916666666,"duration":5.208333333343035,"noteNumber":59,"velocity":101,"programNumber":3},{"time":159124.99999999994,"duration":78.125,"noteNumber":59,"velocity":90,"programNumber":3},{"time":159244.7916666666,"duration":119.79166666665697,"noteNumber":63,"velocity":92,"programNumber":3},{"time":159244.7916666666,"duration":125,"noteNumber":59,"velocity":88,"programNumber":3},{"time":159369.7916666666,"duration":119.79166666665697,"noteNumber":59,"velocity":99,"programNumber":3},{"time":159494.7916666666,"duration":119.79166666668607,"noteNumber":64,"velocity":102,"programNumber":3},{"time":159499.99999999994,"duration":119.79166666668607,"noteNumber":59,"velocity":97,"programNumber":3},{"time":159619.79166666663,"duration":119.79166666665697,"noteNumber":59,"velocity":104,"programNumber":3},{"time":159744.79166666663,"duration":119.79166666665697,"noteNumber":63,"velocity":105,"programNumber":3},{"time":159869.79166666663,"duration":119.79166666665697,"noteNumber":59,"velocity":99,"programNumber":3},{"time":159999.99999999997,"duration":41.666666666656965,"noteNumber":59,"velocity":96,"programNumber":3},{"time":159994.79166666663,"duration":119.79166666665697,"noteNumber":71,"velocity":106,"programNumber":3},{"time":160119.79166666663,"duration":5.208333333343035,"noteNumber":59,"velocity":101,"programNumber":3},{"time":160244.79166666663,"duration":119.79166666665697,"noteNumber":69,"velocity":104,"programNumber":3},{"time":160124.99999999997,"duration":244.79166666665697,"noteNumber":59,"velocity":94,"programNumber":3},{"time":160369.79166666663,"duration":109.375,"noteNumber":59,"velocity":101,"programNumber":3},{"time":160494.79166666663,"duration":104.16666666665697,"noteNumber":68,"velocity":103,"programNumber":3},{"time":160494.79166666663,"duration":109.375,"noteNumber":59,"velocity":96,"programNumber":3},{"time":160604.16666666663,"duration":125,"noteNumber":59,"velocity":101,"programNumber":3},{"time":160744.79166666663,"duration":104.16666666665697,"noteNumber":69,"velocity":97,"programNumber":3},{"time":160854.16666666663,"duration":15.625,"noteNumber":59,"velocity":96,"programNumber":3},{"time":160869.79166666663,"duration":166.66666666665697,"noteNumber":59,"velocity":94,"programNumber":3},{"time":160994.79166666663,"duration":109.375,"noteNumber":68,"velocity":103,"programNumber":3},{"time":161109.37499999997,"duration":15.625,"noteNumber":59,"velocity":91,"programNumber":3},{"time":161124.99999999997,"duration":78.125,"noteNumber":59,"velocity":90,"programNumber":3},{"time":161244.79166666663,"duration":119.79166666665697,"noteNumber":66,"velocity":101,"programNumber":3},{"time":161244.79166666663,"duration":125,"noteNumber":59,"velocity":88,"programNumber":3},{"time":161369.79166666663,"duration":119.79166666665697,"noteNumber":59,"velocity":101,"programNumber":3},{"time":161494.79166666663,"duration":119.79166666668607,"noteNumber":68,"velocity":101,"programNumber":3},{"time":161499.99999999997,"duration":119.79166666668607,"noteNumber":59,"velocity":97,"programNumber":3},{"time":161619.79166666666,"duration":119.79166666665697,"noteNumber":59,"velocity":99,"programNumber":3},{"time":161744.79166666666,"duration":119.79166666665697,"noteNumber":64,"velocity":104,"programNumber":3},{"time":161869.79166666666,"duration":104.16666666665697,"noteNumber":59,"velocity":102,"programNumber":3},{"time":162000,"duration":52.083333333343035,"noteNumber":59,"velocity":96,"programNumber":3},{"time":161994.79166666666,"duration":119.79166666668607,"noteNumber":66,"velocity":105,"programNumber":3},{"time":162119.7916666667,"duration":0,"noteNumber":59,"velocity":102,"programNumber":3},{"time":162244.7916666667,"duration":119.79166666665697,"noteNumber":63,"velocity":103,"programNumber":3},{"time":162119.7916666667,"duration":250,"noteNumber":59,"velocity":94,"programNumber":3},{"time":162369.7916666667,"duration":119.79166666665697,"noteNumber":59,"velocity":97,"programNumber":3},{"time":162494.7916666667,"duration":119.79166666665697,"noteNumber":64,"velocity":101,"programNumber":3},{"time":162494.7916666667,"duration":125,"noteNumber":59,"velocity":96,"programNumber":3},{"time":162619.7916666667,"duration":119.79166666665697,"noteNumber":59,"velocity":101,"programNumber":3},{"time":162744.7916666667,"duration":109.375,"noteNumber":63,"velocity":97,"programNumber":3},{"time":162859.37500000003,"duration":10.416666666656965,"noteNumber":59,"velocity":97,"programNumber":3},{"time":162869.7916666667,"duration":166.66666666665697,"noteNumber":59,"velocity":94,"programNumber":3},{"time":162994.7916666667,"duration":119.79166666665697,"noteNumber":64,"velocity":102,"programNumber":3},{"time":163119.7916666667,"duration":5.208333333343035,"noteNumber":59,"velocity":101,"programNumber":3},{"time":163125.00000000003,"duration":78.125,"noteNumber":59,"velocity":90,"programNumber":3},{"time":163244.7916666667,"duration":119.79166666665697,"noteNumber":63,"velocity":92,"programNumber":3},{"time":163244.7916666667,"duration":125,"noteNumber":59,"velocity":88,"programNumber":3},{"time":163369.7916666667,"duration":119.79166666665697,"noteNumber":59,"velocity":99,"programNumber":3},{"time":163494.7916666667,"duration":119.79166666665697,"noteNumber":64,"velocity":102,"programNumber":3},{"time":163494.7916666667,"duration":125,"noteNumber":59,"velocity":97,"programNumber":3},{"time":163619.7916666667,"duration":119.79166666665697,"noteNumber":59,"velocity":104,"programNumber":3},{"time":163744.7916666667,"duration":119.79166666665697,"noteNumber":63,"velocity":105,"programNumber":3},{"time":163869.7916666667,"duration":119.79166666665697,"noteNumber":59,"velocity":99,"programNumber":3},{"time":163994.7916666667,"duration":119.79166666668607,"noteNumber":71,"velocity":77,"programNumber":3},{"time":164000.00000000003,"duration":119.79166666668607,"noteNumber":59,"velocity":108,"programNumber":3},{"time":164119.79166666672,"duration":119.79166666665697,"noteNumber":59,"velocity":72,"programNumber":3},{"time":164244.79166666672,"duration":119.79166666665697,"noteNumber":69,"velocity":75,"programNumber":3},{"time":164369.79166666672,"duration":119.79166666665697,"noteNumber":59,"velocity":72,"programNumber":3},{"time":164494.79166666672,"duration":119.79166666665697,"noteNumber":68,"velocity":74,"programNumber":3},{"time":164619.79166666672,"duration":119.79166666665697,"noteNumber":59,"velocity":72,"programNumber":3},{"time":164744.79166666672,"duration":119.79166666665697,"noteNumber":69,"velocity":68,"programNumber":3},{"time":164869.79166666672,"duration":119.79166666665697,"noteNumber":59,"velocity":67,"programNumber":3},{"time":164994.79166666672,"duration":119.79166666665697,"noteNumber":68,"velocity":74,"programNumber":3},{"time":165119.79166666672,"duration":109.375,"noteNumber":59,"velocity":62,"programNumber":3},{"time":165234.37500000006,"duration":119.79166666665697,"noteNumber":66,"velocity":72,"programNumber":3},{"time":165359.37500000006,"duration":114.58333333334303,"noteNumber":59,"velocity":72,"programNumber":3},{"time":165494.79166666674,"duration":119.79166666665697,"noteNumber":68,"velocity":72,"programNumber":3},{"time":165619.79166666674,"duration":119.79166666665697,"noteNumber":59,"velocity":70,"programNumber":3},{"time":165744.79166666674,"duration":109.375,"noteNumber":64,"velocity":75,"programNumber":3},{"time":165859.3750000001,"duration":119.79166666665697,"noteNumber":59,"velocity":73,"programNumber":3},{"time":165994.79166666674,"duration":109.375,"noteNumber":66,"velocity":80,"programNumber":3},{"time":166109.3750000001,"duration":130.20833333334303,"noteNumber":59,"velocity":77,"programNumber":3},{"time":166244.79166666677,"duration":119.79166666665697,"noteNumber":63,"velocity":78,"programNumber":3},{"time":166369.79166666677,"duration":119.79166666665697,"noteNumber":59,"velocity":72,"programNumber":3},{"time":166494.79166666677,"duration":119.79166666665697,"noteNumber":64,"velocity":76,"programNumber":3},{"time":166619.79166666677,"duration":109.375,"noteNumber":59,"velocity":76,"programNumber":3},{"time":166734.37500000012,"duration":130.20833333334303,"noteNumber":63,"velocity":72,"programNumber":3},{"time":166869.7916666668,"duration":109.375,"noteNumber":59,"velocity":72,"programNumber":3},{"time":166994.7916666668,"duration":119.79166666665697,"noteNumber":64,"velocity":77,"programNumber":3},{"time":167119.7916666668,"duration":119.79166666665697,"noteNumber":59,"velocity":76,"programNumber":3},{"time":167244.7916666668,"duration":119.79166666665697,"noteNumber":63,"velocity":67,"programNumber":3},{"time":167369.7916666668,"duration":119.79166666665697,"noteNumber":59,"velocity":74,"programNumber":3},{"time":167494.7916666668,"duration":119.79166666665697,"noteNumber":64,"velocity":77,"programNumber":3},{"time":167619.7916666668,"duration":119.79166666665697,"noteNumber":59,"velocity":79,"programNumber":3},{"time":167744.7916666668,"duration":109.375,"noteNumber":63,"velocity":80,"programNumber":3},{"time":167869.7916666668,"duration":109.375,"noteNumber":59,"velocity":74,"programNumber":3},{"time":167994.7916666668,"duration":109.375,"noteNumber":71,"velocity":77,"programNumber":3},{"time":168000.00000000015,"duration":109.375,"noteNumber":59,"velocity":108,"programNumber":3},{"time":168109.37500000015,"duration":119.79166666665697,"noteNumber":59,"velocity":72,"programNumber":3},{"time":168234.37500000015,"duration":119.79166666665697,"noteNumber":69,"velocity":75,"programNumber":3},{"time":168369.7916666668,"duration":109.375,"noteNumber":59,"velocity":72,"programNumber":3},{"time":168494.7916666668,"duration":109.375,"noteNumber":68,"velocity":74,"programNumber":3},{"time":168609.37500000015,"duration":119.79166666665697,"noteNumber":59,"velocity":72,"programNumber":3},{"time":168734.37500000015,"duration":114.58333333334303,"noteNumber":69,"velocity":68,"programNumber":3},{"time":168859.37500000015,"duration":119.79166666665697,"noteNumber":59,"velocity":67,"programNumber":3},{"time":168994.7916666668,"duration":119.79166666665697,"noteNumber":68,"velocity":74,"programNumber":3},{"time":169119.7916666668,"duration":119.79166666665697,"noteNumber":59,"velocity":62,"programNumber":3},{"time":169244.7916666668,"duration":119.79166666665697,"noteNumber":66,"velocity":72,"programNumber":3},{"time":169369.7916666668,"duration":114.58333333334303,"noteNumber":59,"velocity":72,"programNumber":3},{"time":169494.7916666668,"duration":119.79166666665697,"noteNumber":68,"velocity":72,"programNumber":3},{"time":169619.7916666668,"duration":104.16666666665697,"noteNumber":59,"velocity":70,"programNumber":3},{"time":169729.1666666668,"duration":125,"noteNumber":64,"velocity":75,"programNumber":3},{"time":169869.7916666668,"duration":119.79166666665697,"noteNumber":59,"velocity":73,"programNumber":3},{"time":169994.7916666668,"duration":109.375,"noteNumber":66,"velocity":80,"programNumber":3},{"time":170119.7916666668,"duration":109.375,"noteNumber":59,"velocity":77,"programNumber":3},{"time":170244.7916666668,"duration":109.375,"noteNumber":63,"velocity":78,"programNumber":3},{"time":170369.7916666668,"duration":109.375,"noteNumber":59,"velocity":72,"programNumber":3},{"time":170494.7916666668,"duration":104.16666666665697,"noteNumber":64,"velocity":76,"programNumber":3},{"time":170619.7916666668,"duration":109.375,"noteNumber":59,"velocity":76,"programNumber":3},{"time":170744.7916666668,"duration":109.375,"noteNumber":63,"velocity":72,"programNumber":3},{"time":170869.7916666668,"duration":119.79166666665697,"noteNumber":59,"velocity":72,"programNumber":3},{"time":170994.7916666668,"duration":119.79166666665697,"noteNumber":64,"velocity":77,"programNumber":3},{"time":171119.7916666668,"duration":114.58333333334303,"noteNumber":59,"velocity":76,"programNumber":3},{"time":171244.7916666668,"duration":119.79166666665697,"noteNumber":63,"velocity":67,"programNumber":3},{"time":171369.7916666668,"duration":119.79166666665697,"noteNumber":59,"velocity":74,"programNumber":3},{"time":171494.7916666668,"duration":119.79166666665697,"noteNumber":64,"velocity":77,"programNumber":3},{"time":171619.7916666668,"duration":119.79166666665697,"noteNumber":59,"velocity":79,"programNumber":3},{"time":171744.7916666668,"duration":109.375,"noteNumber":63,"velocity":80,"programNumber":3},{"time":171869.7916666668,"duration":119.79166666665697,"noteNumber":59,"velocity":74,"programNumber":3},{"time":172000.00000000012,"duration":114.58333333334303,"noteNumber":71,"velocity":77,"programNumber":3},{"time":172000.00000000012,"duration":119.79166666668607,"noteNumber":59,"velocity":108,"programNumber":3},{"time":172119.7916666668,"duration":119.79166666665697,"noteNumber":59,"velocity":72,"programNumber":3},{"time":172244.7916666668,"duration":119.79166666665697,"noteNumber":69,"velocity":75,"programNumber":3},{"time":172369.7916666668,"duration":109.375,"noteNumber":59,"velocity":72,"programNumber":3},{"time":172494.7916666668,"duration":104.16666666665697,"noteNumber":68,"velocity":74,"programNumber":3},{"time":172609.37500000012,"duration":130.20833333334303,"noteNumber":59,"velocity":72,"programNumber":3},{"time":172744.7916666668,"duration":119.79166666665697,"noteNumber":69,"velocity":68,"programNumber":3},{"time":172869.7916666668,"duration":109.375,"noteNumber":59,"velocity":67,"programNumber":3},{"time":172994.7916666668,"duration":119.79166666665697,"noteNumber":68,"velocity":74,"programNumber":3},{"time":173119.7916666668,"duration":119.79166666665697,"noteNumber":59,"velocity":62,"programNumber":3},{"time":173244.7916666668,"duration":114.58333333334303,"noteNumber":66,"velocity":72,"programNumber":3},{"time":173369.7916666668,"duration":119.79166666665697,"noteNumber":59,"velocity":72,"programNumber":3},{"time":173494.7916666668,"duration":114.58333333334303,"noteNumber":68,"velocity":72,"programNumber":3},{"time":173619.7916666668,"duration":114.58333333334303,"noteNumber":59,"velocity":70,"programNumber":3},{"time":173744.7916666668,"duration":114.58333333334303,"noteNumber":64,"velocity":75,"programNumber":3},{"time":173869.7916666668,"duration":119.79166666665697,"noteNumber":59,"velocity":73,"programNumber":3},{"time":173994.7916666668,"duration":119.79166666665697,"noteNumber":66,"velocity":80,"programNumber":3},{"time":174119.7916666668,"duration":109.375,"noteNumber":59,"velocity":77,"programNumber":3},{"time":174244.7916666668,"duration":109.375,"noteNumber":63,"velocity":78,"programNumber":3},{"time":174359.37500000015,"duration":125,"noteNumber":59,"velocity":72,"programNumber":3},{"time":174494.7916666668,"duration":119.79166666665697,"noteNumber":64,"velocity":76,"programNumber":3},{"time":174619.7916666668,"duration":119.79166666665697,"noteNumber":59,"velocity":76,"programNumber":3},{"time":174744.7916666668,"duration":119.79166666665697,"noteNumber":63,"velocity":72,"programNumber":3},{"time":174869.7916666668,"duration":109.375,"noteNumber":59,"velocity":72,"programNumber":3},{"time":174994.7916666668,"duration":109.375,"noteNumber":64,"velocity":77,"programNumber":3},{"time":175109.37500000015,"duration":119.79166666665697,"noteNumber":59,"velocity":76,"programNumber":3},{"time":175244.7916666668,"duration":109.375,"noteNumber":63,"velocity":67,"programNumber":3},{"time":175369.7916666668,"duration":104.16666666665697,"noteNumber":59,"velocity":74,"programNumber":3},{"time":175494.7916666668,"duration":109.375,"noteNumber":64,"velocity":77,"programNumber":3},{"time":175609.37500000015,"duration":114.58333333334303,"noteNumber":59,"velocity":79,"programNumber":3},{"time":175729.16666666683,"duration":125,"noteNumber":63,"velocity":80,"programNumber":3},{"time":175869.79166666683,"duration":119.79166666665697,"noteNumber":59,"velocity":74,"programNumber":3},{"time":175994.79166666683,"duration":119.79166666668607,"noteNumber":71,"velocity":77,"programNumber":3},{"time":176000.00000000017,"duration":119.79166666668607,"noteNumber":59,"velocity":108,"programNumber":3},{"time":176119.79166666686,"duration":109.375,"noteNumber":59,"velocity":72,"programNumber":3},{"time":176244.79166666686,"duration":104.16666666665697,"noteNumber":69,"velocity":75,"programNumber":3},{"time":176369.79166666686,"duration":114.58333333334303,"noteNumber":59,"velocity":72,"programNumber":3},{"time":176494.79166666686,"duration":114.58333333334303,"noteNumber":68,"velocity":74,"programNumber":3},{"time":176619.79166666686,"duration":109.375,"noteNumber":59,"velocity":72,"programNumber":3},{"time":176744.79166666686,"duration":109.375,"noteNumber":69,"velocity":68,"programNumber":3},{"time":176869.79166666686,"duration":119.79166666665697,"noteNumber":59,"velocity":67,"programNumber":3},{"time":177000.00000000017,"duration":114.58333333334303,"noteNumber":68,"velocity":74,"programNumber":3},{"time":179994.79166666686,"duration":109.375,"noteNumber":71,"velocity":106,"programNumber":3},{"time":179994.79166666686,"duration":125,"noteNumber":59,"velocity":106,"programNumber":3},{"time":180119.79166666686,"duration":119.79166666665697,"noteNumber":59,"velocity":101,"programNumber":3},{"time":180244.79166666686,"duration":119.79166666665697,"noteNumber":69,"velocity":104,"programNumber":3},{"time":180369.79166666686,"duration":109.375,"noteNumber":59,"velocity":101,"programNumber":3},{"time":180494.79166666686,"duration":104.16666666665697,"noteNumber":68,"velocity":103,"programNumber":3},{"time":180614.58333333352,"duration":114.58333333334303,"noteNumber":59,"velocity":101,"programNumber":3},{"time":180744.79166666686,"duration":104.16666666665697,"noteNumber":69,"velocity":97,"programNumber":3},{"time":180869.79166666686,"duration":119.79166666665697,"noteNumber":59,"velocity":96,"programNumber":3},{"time":180994.79166666686,"duration":119.79166666665697,"noteNumber":68,"velocity":103,"programNumber":3},{"time":181119.79166666686,"duration":119.79166666665697,"noteNumber":59,"velocity":91,"programNumber":3},{"time":181244.79166666686,"duration":119.79166666665697,"noteNumber":66,"velocity":101,"programNumber":3},{"time":181369.79166666686,"duration":119.79166666665697,"noteNumber":59,"velocity":101,"programNumber":3},{"time":181494.79166666686,"duration":119.79166666665697,"noteNumber":68,"velocity":101,"programNumber":3},{"time":181619.79166666686,"duration":104.16666666665697,"noteNumber":59,"velocity":99,"programNumber":3},{"time":181744.79166666686,"duration":119.79166666665697,"noteNumber":64,"velocity":104,"programNumber":3},{"time":181869.79166666686,"duration":119.79166666665697,"noteNumber":59,"velocity":102,"programNumber":3},{"time":181994.79166666686,"duration":104.16666666665697,"noteNumber":66,"velocity":105,"programNumber":3},{"time":182104.16666666686,"duration":125,"noteNumber":59,"velocity":102,"programNumber":3},{"time":182244.79166666686,"duration":119.79166666665697,"noteNumber":63,"velocity":103,"programNumber":3},{"time":182369.79166666686,"duration":109.375,"noteNumber":59,"velocity":97,"programNumber":3},{"time":182494.79166666686,"duration":119.79166666665697,"noteNumber":64,"velocity":101,"programNumber":3},{"time":182619.79166666686,"duration":109.375,"noteNumber":59,"velocity":101,"programNumber":3},{"time":182744.79166666686,"duration":109.375,"noteNumber":63,"velocity":97,"programNumber":3},{"time":182859.3750000002,"duration":119.79166666665697,"noteNumber":59,"velocity":97,"programNumber":3},{"time":182994.79166666686,"duration":109.375,"noteNumber":64,"velocity":102,"programNumber":3},{"time":183109.3750000002,"duration":119.79166666665697,"noteNumber":59,"velocity":101,"programNumber":3},{"time":183244.79166666686,"duration":109.375,"noteNumber":63,"velocity":92,"programNumber":3},{"time":183359.3750000002,"duration":114.58333333334303,"noteNumber":59,"velocity":99,"programNumber":3},{"time":183494.7916666669,"duration":119.79166666665697,"noteNumber":64,"velocity":102,"programNumber":3},{"time":183619.7916666669,"duration":119.79166666665697,"noteNumber":59,"velocity":104,"programNumber":3},{"time":183744.7916666669,"duration":119.79166666665697,"noteNumber":63,"velocity":105,"programNumber":3},{"time":183869.7916666669,"duration":119.79166666665697,"noteNumber":59,"velocity":99,"programNumber":3},{"time":183994.7916666669,"duration":114.58333333334303,"noteNumber":71,"velocity":106,"programNumber":3},{"time":183994.7916666669,"duration":125,"noteNumber":59,"velocity":106,"programNumber":3},{"time":184119.7916666669,"duration":119.79166666665697,"noteNumber":59,"velocity":101,"programNumber":3},{"time":184244.7916666669,"duration":119.79166666665697,"noteNumber":69,"velocity":104,"programNumber":3},{"time":184369.7916666669,"duration":119.79166666665697,"noteNumber":59,"velocity":101,"programNumber":3},{"time":184494.7916666669,"duration":119.79166666665697,"noteNumber":68,"velocity":103,"programNumber":3},{"time":184619.7916666669,"duration":119.79166666665697,"noteNumber":59,"velocity":101,"programNumber":3},{"time":184744.7916666669,"duration":119.79166666665697,"noteNumber":69,"velocity":97,"programNumber":3},{"time":184869.7916666669,"duration":119.79166666665697,"noteNumber":59,"velocity":96,"programNumber":3},{"time":184994.7916666669,"duration":119.79166666665697,"noteNumber":68,"velocity":103,"programNumber":3},{"time":185119.7916666669,"duration":119.79166666665697,"noteNumber":59,"velocity":91,"programNumber":3},{"time":185244.7916666669,"duration":119.79166666665697,"noteNumber":66,"velocity":101,"programNumber":3},{"time":185369.7916666669,"duration":119.79166666665697,"noteNumber":59,"velocity":101,"programNumber":3},{"time":185494.7916666669,"duration":119.79166666665697,"noteNumber":68,"velocity":101,"programNumber":3},{"time":185619.7916666669,"duration":119.79166666665697,"noteNumber":59,"velocity":99,"programNumber":3},{"time":185744.7916666669,"duration":119.79166666665697,"noteNumber":64,"velocity":104,"programNumber":3},{"time":185869.7916666669,"duration":119.79166666665697,"noteNumber":59,"velocity":102,"programNumber":3},{"time":185994.7916666669,"duration":119.79166666665697,"noteNumber":66,"velocity":105,"programNumber":3},{"time":186119.7916666669,"duration":119.79166666665697,"noteNumber":59,"velocity":102,"programNumber":3},{"time":186244.7916666669,"duration":119.79166666665697,"noteNumber":63,"velocity":103,"programNumber":3},{"time":186369.7916666669,"duration":119.79166666665697,"noteNumber":59,"velocity":97,"programNumber":3},{"time":186494.7916666669,"duration":119.79166666665697,"noteNumber":64,"velocity":101,"programNumber":3},{"time":186619.7916666669,"duration":119.79166666665697,"noteNumber":59,"velocity":101,"programNumber":3},{"time":186744.7916666669,"duration":109.375,"noteNumber":63,"velocity":97,"programNumber":3},{"time":186859.37500000023,"duration":119.79166666665697,"noteNumber":59,"velocity":97,"programNumber":3},{"time":186994.7916666669,"duration":109.375,"noteNumber":64,"velocity":102,"programNumber":3},{"time":187114.58333333355,"duration":125,"noteNumber":59,"velocity":101,"programNumber":3},{"time":187244.7916666669,"duration":119.79166666665697,"noteNumber":63,"velocity":92,"programNumber":3},{"time":187369.7916666669,"duration":109.375,"noteNumber":59,"velocity":99,"programNumber":3},{"time":187494.7916666669,"duration":119.79166666665697,"noteNumber":64,"velocity":102,"programNumber":3},{"time":187619.7916666669,"duration":109.375,"noteNumber":59,"velocity":104,"programNumber":3},{"time":187744.7916666669,"duration":109.375,"noteNumber":63,"velocity":105,"programNumber":3},{"time":187869.7916666669,"duration":109.375,"noteNumber":59,"velocity":99,"programNumber":3},{"time":187994.7916666669,"duration":119.79166666665697,"noteNumber":71,"velocity":106,"programNumber":3},{"time":187994.7916666669,"duration":125,"noteNumber":59,"velocity":106,"programNumber":3},{"time":188119.7916666669,"duration":119.79166666665697,"noteNumber":59,"velocity":101,"programNumber":3},{"time":188244.7916666669,"duration":119.79166666665697,"noteNumber":69,"velocity":104,"programNumber":3},{"time":188369.7916666669,"duration":119.79166666665697,"noteNumber":59,"velocity":101,"programNumber":3},{"time":188494.7916666669,"duration":119.79166666665697,"noteNumber":68,"velocity":103,"programNumber":3},{"time":188619.7916666669,"duration":119.79166666665697,"noteNumber":59,"velocity":101,"programNumber":3},{"time":188744.7916666669,"duration":119.79166666665697,"noteNumber":69,"velocity":97,"programNumber":3},{"time":188869.7916666669,"duration":119.79166666665697,"noteNumber":59,"velocity":96,"programNumber":3},{"time":188994.7916666669,"duration":119.79166666665697,"noteNumber":68,"velocity":103,"programNumber":3},{"time":189119.7916666669,"duration":119.79166666665697,"noteNumber":59,"velocity":91,"programNumber":3},{"time":189244.7916666669,"duration":119.79166666665697,"noteNumber":66,"velocity":101,"programNumber":3},{"time":189369.7916666669,"duration":109.375,"noteNumber":59,"velocity":101,"programNumber":3},{"time":189494.7916666669,"duration":109.375,"noteNumber":68,"velocity":101,"programNumber":3},{"time":189609.37500000023,"duration":119.79166666665697,"noteNumber":59,"velocity":99,"programNumber":3},{"time":189744.7916666669,"duration":109.375,"noteNumber":64,"velocity":104,"programNumber":3},{"time":189859.37500000023,"duration":119.79166666665697,"noteNumber":59,"velocity":102,"programNumber":3},{"time":189994.7916666669,"duration":109.375,"noteNumber":66,"velocity":105,"programNumber":3},{"time":190114.58333333355,"duration":114.58333333334303,"noteNumber":59,"velocity":102,"programNumber":3},{"time":190244.7916666669,"duration":119.79166666665697,"noteNumber":63,"velocity":103,"programNumber":3},{"time":190369.7916666669,"duration":114.58333333334303,"noteNumber":59,"velocity":97,"programNumber":3},{"time":190494.7916666669,"duration":119.79166666665697,"noteNumber":64,"velocity":101,"programNumber":3},{"time":190619.7916666669,"duration":114.58333333334303,"noteNumber":59,"velocity":101,"programNumber":3},{"time":190744.7916666669,"duration":119.79166666665697,"noteNumber":63,"velocity":97,"programNumber":3},{"time":190869.7916666669,"duration":114.58333333334303,"noteNumber":59,"velocity":97,"programNumber":3},{"time":190994.7916666669,"duration":114.58333333334303,"noteNumber":64,"velocity":102,"programNumber":3},{"time":191119.7916666669,"duration":119.79166666665697,"noteNumber":59,"velocity":101,"programNumber":3},{"time":191244.7916666669,"duration":119.79166666665697,"noteNumber":63,"velocity":92,"programNumber":3},{"time":191369.7916666669,"duration":119.79166666665697,"noteNumber":59,"velocity":99,"programNumber":3},{"time":191494.7916666669,"duration":119.79166666665697,"noteNumber":64,"velocity":102,"programNumber":3},{"time":191619.7916666669,"duration":119.79166666665697,"noteNumber":59,"velocity":104,"programNumber":3},{"time":191744.7916666669,"duration":114.58333333334303,"noteNumber":63,"velocity":105,"programNumber":3},{"time":191869.7916666669,"duration":114.58333333334303,"noteNumber":59,"velocity":99,"programNumber":3},{"time":191994.7916666669,"duration":119.79166666665697,"noteNumber":71,"velocity":106,"programNumber":3},{"time":191994.7916666669,"duration":125,"noteNumber":59,"velocity":106,"programNumber":3},{"time":192119.7916666669,"duration":119.79166666665697,"noteNumber":59,"velocity":101,"programNumber":3},{"time":192244.7916666669,"duration":119.79166666665697,"noteNumber":69,"velocity":104,"programNumber":3},{"time":192369.7916666669,"duration":119.79166666665697,"noteNumber":59,"velocity":101,"programNumber":3},{"time":192494.7916666669,"duration":119.79166666665697,"noteNumber":68,"velocity":103,"programNumber":3},{"time":192619.7916666669,"duration":119.79166666665697,"noteNumber":59,"velocity":101,"programNumber":3},{"time":192744.7916666669,"duration":109.375,"noteNumber":69,"velocity":97,"programNumber":3},{"time":192859.37500000023,"duration":130.20833333334303,"noteNumber":59,"velocity":96,"programNumber":3},{"time":192994.79166666692,"duration":119.79166666665697,"noteNumber":68,"velocity":103,"programNumber":3},{"time":193119.79166666692,"duration":119.79166666665697,"noteNumber":59,"velocity":91,"programNumber":3},{"time":193244.79166666692,"duration":119.79166666665697,"noteNumber":66,"velocity":101,"programNumber":3},{"time":193369.79166666692,"duration":119.79166666665697,"noteNumber":59,"velocity":101,"programNumber":3},{"time":193494.79166666692,"duration":119.79166666665697,"noteNumber":68,"velocity":101,"programNumber":3},{"time":193619.79166666692,"duration":119.79166666665697,"noteNumber":59,"velocity":99,"programNumber":3},{"time":193744.79166666692,"duration":119.79166666665697,"noteNumber":64,"velocity":104,"programNumber":3},{"time":193869.79166666692,"duration":119.79166666665697,"noteNumber":59,"velocity":102,"programNumber":3},{"time":193994.79166666692,"duration":119.79166666665697,"noteNumber":66,"velocity":105,"programNumber":3},{"time":194119.79166666692,"duration":119.79166666665697,"noteNumber":59,"velocity":102,"programNumber":3},{"time":194244.79166666692,"duration":119.79166666665697,"noteNumber":63,"velocity":103,"programNumber":3},{"time":194369.79166666692,"duration":119.79166666665697,"noteNumber":59,"velocity":97,"programNumber":3},{"time":194494.79166666692,"duration":119.79166666665697,"noteNumber":64,"velocity":101,"programNumber":3},{"time":194619.79166666692,"duration":119.79166666665697,"noteNumber":59,"velocity":101,"programNumber":3},{"time":194744.79166666692,"duration":119.79166666665697,"noteNumber":63,"velocity":97,"programNumber":3},{"time":194869.79166666692,"duration":119.79166666665697,"noteNumber":59,"velocity":97,"programNumber":3},{"time":194994.79166666692,"duration":119.79166666665697,"noteNumber":64,"velocity":102,"programNumber":3},{"time":195119.79166666692,"duration":119.79166666665697,"noteNumber":59,"velocity":101,"programNumber":3},{"time":195244.79166666692,"duration":119.79166666665697,"noteNumber":63,"velocity":92,"programNumber":3},{"time":195369.79166666692,"duration":119.79166666665697,"noteNumber":59,"velocity":99,"programNumber":3},{"time":195494.79166666692,"duration":119.79166666665697,"noteNumber":64,"velocity":102,"programNumber":3},{"time":195619.79166666692,"duration":119.79166666665697,"noteNumber":59,"velocity":104,"programNumber":3},{"time":195744.79166666692,"duration":119.79166666665697,"noteNumber":63,"velocity":105,"programNumber":3},{"time":195869.79166666692,"duration":119.79166666665697,"noteNumber":59,"velocity":99,"programNumber":3},{"time":195994.79166666692,"duration":119.79166666668607,"noteNumber":71,"velocity":106,"programNumber":3},{"time":196000.00000000026,"duration":119.79166666668607,"noteNumber":59,"velocity":108,"programNumber":3},{"time":196119.79166666695,"duration":119.79166666665697,"noteNumber":59,"velocity":101,"programNumber":3},{"time":196244.79166666695,"duration":119.79166666665697,"noteNumber":69,"velocity":104,"programNumber":3},{"time":196369.79166666695,"duration":104.16666666665697,"noteNumber":59,"velocity":101,"programNumber":3},{"time":196494.79166666695,"duration":109.375,"noteNumber":68,"velocity":103,"programNumber":3},{"time":196614.5833333336,"duration":125,"noteNumber":59,"velocity":101,"programNumber":3},{"time":196744.79166666695,"duration":119.79166666665697,"noteNumber":69,"velocity":97,"programNumber":3},{"time":196869.79166666695,"duration":109.375,"noteNumber":59,"velocity":96,"programNumber":3},{"time":196994.79166666695,"duration":109.375,"noteNumber":68,"velocity":103,"programNumber":3},{"time":197119.79166666695,"duration":109.375,"noteNumber":59,"velocity":91,"programNumber":3},{"time":197244.79166666695,"duration":119.79166666665697,"noteNumber":66,"velocity":101,"programNumber":3},{"time":197369.79166666695,"duration":119.79166666665697,"noteNumber":59,"velocity":101,"programNumber":3},{"time":197494.79166666695,"duration":119.79166666665697,"noteNumber":68,"velocity":101,"programNumber":3},{"time":197619.79166666695,"duration":119.79166666665697,"noteNumber":59,"velocity":99,"programNumber":3},{"time":197744.79166666695,"duration":114.58333333334303,"noteNumber":64,"velocity":104,"programNumber":3},{"time":197869.79166666695,"duration":114.58333333334303,"noteNumber":59,"velocity":102,"programNumber":3},{"time":197994.79166666695,"duration":114.58333333334303,"noteNumber":66,"velocity":105,"programNumber":3},{"time":198119.79166666695,"duration":119.79166666665697,"noteNumber":59,"velocity":102,"programNumber":3},{"time":198244.79166666695,"duration":119.79166666665697,"noteNumber":63,"velocity":103,"programNumber":3},{"time":198369.79166666695,"duration":119.79166666665697,"noteNumber":59,"velocity":97,"programNumber":3},{"time":198494.79166666695,"duration":119.79166666665697,"noteNumber":64,"velocity":101,"programNumber":3},{"time":198619.79166666695,"duration":114.58333333334303,"noteNumber":59,"velocity":101,"programNumber":3},{"time":198744.79166666695,"duration":119.79166666665697,"noteNumber":63,"velocity":97,"programNumber":3},{"time":198869.79166666695,"duration":114.58333333334303,"noteNumber":59,"velocity":97,"programNumber":3},{"time":198994.79166666695,"duration":119.79166666665697,"noteNumber":64,"velocity":102,"programNumber":3},{"time":199119.79166666695,"duration":104.16666666665697,"noteNumber":59,"velocity":101,"programNumber":3},{"time":199244.79166666695,"duration":119.79166666665697,"noteNumber":63,"velocity":92,"programNumber":3},{"time":199369.79166666695,"duration":119.79166666665697,"noteNumber":59,"velocity":99,"programNumber":3},{"time":199494.79166666695,"duration":119.79166666665697,"noteNumber":64,"velocity":102,"programNumber":3},{"time":199619.79166666695,"duration":119.79166666665697,"noteNumber":59,"velocity":104,"programNumber":3},{"time":199744.79166666695,"duration":119.79166666665697,"noteNumber":63,"velocity":105,"programNumber":3},{"time":199869.79166666695,"duration":119.79166666665697,"noteNumber":59,"velocity":99,"programNumber":3},{"time":199994.79166666695,"duration":119.79166666665697,"noteNumber":71,"velocity":106,"programNumber":3},{"time":199994.79166666695,"duration":125,"noteNumber":59,"velocity":108,"programNumber":3},{"time":200119.79166666695,"duration":119.79166666665697,"noteNumber":59,"velocity":101,"programNumber":3},{"time":200244.79166666695,"duration":119.79166666665697,"noteNumber":69,"velocity":104,"programNumber":3},{"time":200369.79166666695,"duration":119.79166666665697,"noteNumber":59,"velocity":101,"programNumber":3},{"time":200494.79166666695,"duration":109.375,"noteNumber":68,"velocity":103,"programNumber":3},{"time":200609.3750000003,"duration":130.20833333334303,"noteNumber":59,"velocity":101,"programNumber":3},{"time":200744.79166666698,"duration":109.375,"noteNumber":69,"velocity":97,"programNumber":3},{"time":200859.37500000032,"duration":130.20833333334303,"noteNumber":59,"velocity":96,"programNumber":3},{"time":200994.791666667,"duration":119.79166666665697,"noteNumber":68,"velocity":103,"programNumber":3},{"time":201119.791666667,"duration":119.79166666665697,"noteNumber":59,"velocity":91,"programNumber":3},{"time":201244.791666667,"duration":119.79166666665697,"noteNumber":66,"velocity":101,"programNumber":3},{"time":201369.791666667,"duration":119.79166666665697,"noteNumber":59,"velocity":101,"programNumber":3},{"time":201494.791666667,"duration":119.79166666665697,"noteNumber":68,"velocity":101,"programNumber":3},{"time":201619.791666667,"duration":119.79166666665697,"noteNumber":59,"velocity":99,"programNumber":3},{"time":201744.791666667,"duration":109.375,"noteNumber":64,"velocity":104,"programNumber":3},{"time":201869.791666667,"duration":119.79166666665697,"noteNumber":59,"velocity":102,"programNumber":3},{"time":201994.791666667,"duration":119.79166666665697,"noteNumber":66,"velocity":105,"programNumber":3},{"time":202119.791666667,"duration":119.79166666665697,"noteNumber":59,"velocity":102,"programNumber":3},{"time":202244.791666667,"duration":119.79166666665697,"noteNumber":63,"velocity":103,"programNumber":3},{"time":202369.791666667,"duration":109.375,"noteNumber":59,"velocity":97,"programNumber":3},{"time":202494.791666667,"duration":109.375,"noteNumber":64,"velocity":101,"programNumber":3},{"time":202619.791666667,"duration":119.79166666665697,"noteNumber":59,"velocity":101,"programNumber":3},{"time":202744.791666667,"duration":109.375,"noteNumber":63,"velocity":97,"programNumber":3},{"time":202869.791666667,"duration":109.375,"noteNumber":59,"velocity":97,"programNumber":3},{"time":202994.791666667,"duration":119.79166666665697,"noteNumber":64,"velocity":102,"programNumber":3},{"time":203119.791666667,"duration":119.79166666665697,"noteNumber":59,"velocity":101,"programNumber":3},{"time":203244.791666667,"duration":119.79166666665697,"noteNumber":63,"velocity":92,"programNumber":3},{"time":203369.791666667,"duration":119.79166666665697,"noteNumber":59,"velocity":99,"programNumber":3},{"time":203494.791666667,"duration":109.375,"noteNumber":64,"velocity":102,"programNumber":3},{"time":203614.58333333366,"duration":109.375,"noteNumber":59,"velocity":104,"programNumber":3},{"time":203744.791666667,"duration":119.79166666665697,"noteNumber":63,"velocity":105,"programNumber":3},{"time":203869.791666667,"duration":109.375,"noteNumber":59,"velocity":99,"programNumber":3},{"time":203994.791666667,"duration":119.79166666668607,"noteNumber":71,"velocity":106,"programNumber":3},{"time":204000.00000000035,"duration":119.79166666668607,"noteNumber":59,"velocity":108,"programNumber":3},{"time":204119.79166666704,"duration":109.375,"noteNumber":59,"velocity":101,"programNumber":3},{"time":204244.79166666704,"duration":109.375,"noteNumber":69,"velocity":104,"programNumber":3},{"time":204359.37500000038,"duration":119.79166666665697,"noteNumber":59,"velocity":101,"programNumber":3},{"time":204494.79166666704,"duration":109.375,"noteNumber":68,"velocity":103,"programNumber":3},{"time":204609.37500000038,"duration":119.79166666665697,"noteNumber":59,"velocity":101,"programNumber":3},{"time":204744.79166666704,"duration":109.375,"noteNumber":69,"velocity":97,"programNumber":3},{"time":204859.37500000038,"duration":114.58333333334303,"noteNumber":59,"velocity":96,"programNumber":3},{"time":204994.79166666706,"duration":119.79166666665697,"noteNumber":68,"velocity":103,"programNumber":3},{"time":205119.79166666706,"duration":104.16666666665697,"noteNumber":59,"velocity":91,"programNumber":3},{"time":205244.79166666706,"duration":119.79166666665697,"noteNumber":66,"velocity":101,"programNumber":3},{"time":205369.79166666706,"duration":104.16666666665697,"noteNumber":59,"velocity":101,"programNumber":3},{"time":205494.79166666706,"duration":119.79166666665697,"noteNumber":68,"velocity":101,"programNumber":3},{"time":205619.79166666706,"duration":119.79166666665697,"noteNumber":59,"velocity":99,"programNumber":3},{"time":205744.79166666706,"duration":119.79166666665697,"noteNumber":64,"velocity":104,"programNumber":3},{"time":205869.79166666706,"duration":119.79166666665697,"noteNumber":59,"velocity":102,"programNumber":3},{"time":205994.79166666706,"duration":119.79166666665697,"noteNumber":66,"velocity":105,"programNumber":3},{"time":206119.79166666706,"duration":119.79166666665697,"noteNumber":59,"velocity":102,"programNumber":3},{"time":206244.79166666706,"duration":119.79166666665697,"noteNumber":63,"velocity":103,"programNumber":3},{"time":206369.79166666706,"duration":119.79166666665697,"noteNumber":59,"velocity":97,"programNumber":3},{"time":206494.79166666706,"duration":119.79166666665697,"noteNumber":64,"velocity":101,"programNumber":3},{"time":206619.79166666706,"duration":119.79166666665697,"noteNumber":59,"velocity":101,"programNumber":3},{"time":206744.79166666706,"duration":119.79166666665697,"noteNumber":63,"velocity":97,"programNumber":3},{"time":206869.79166666706,"duration":109.375,"noteNumber":59,"velocity":97,"programNumber":3},{"time":206994.79166666706,"duration":109.375,"noteNumber":64,"velocity":102,"programNumber":3},{"time":207109.3750000004,"duration":130.20833333334303,"noteNumber":59,"velocity":101,"programNumber":3},{"time":207244.7916666671,"duration":119.79166666665697,"noteNumber":63,"velocity":92,"programNumber":3},{"time":207369.7916666671,"duration":119.79166666665697,"noteNumber":59,"velocity":99,"programNumber":3},{"time":207494.7916666671,"duration":119.79166666665697,"noteNumber":64,"velocity":102,"programNumber":3},{"time":207619.7916666671,"duration":119.79166666665697,"noteNumber":59,"velocity":104,"programNumber":3},{"time":207744.7916666671,"duration":119.79166666665697,"noteNumber":63,"velocity":105,"programNumber":3},{"time":207869.7916666671,"duration":119.79166666665697,"noteNumber":59,"velocity":99,"programNumber":3},{"time":207994.7916666671,"duration":119.79166666668607,"noteNumber":71,"velocity":106,"programNumber":3},{"time":208000.00000000044,"duration":119.79166666668607,"noteNumber":59,"velocity":108,"programNumber":3},{"time":208119.79166666712,"duration":119.79166666665697,"noteNumber":59,"velocity":101,"programNumber":3},{"time":208244.79166666712,"duration":119.79166666665697,"noteNumber":69,"velocity":104,"programNumber":3},{"time":208369.79166666712,"duration":119.79166666665697,"noteNumber":59,"velocity":101,"programNumber":3},{"time":208494.79166666712,"duration":119.79166666665697,"noteNumber":68,"velocity":103,"programNumber":3},{"time":208619.79166666712,"duration":119.79166666665697,"noteNumber":59,"velocity":101,"programNumber":3},{"time":208744.79166666712,"duration":119.79166666665697,"noteNumber":69,"velocity":97,"programNumber":3},{"time":208869.79166666712,"duration":119.79166666665697,"noteNumber":59,"velocity":96,"programNumber":3},{"time":208994.79166666712,"duration":119.79166666665697,"noteNumber":68,"velocity":103,"programNumber":3},{"time":209119.79166666712,"duration":119.79166666665697,"noteNumber":59,"velocity":91,"programNumber":3},{"time":209244.79166666712,"duration":119.79166666665697,"noteNumber":66,"velocity":101,"programNumber":3},{"time":209369.79166666712,"duration":119.79166666665697,"noteNumber":59,"velocity":101,"programNumber":3},{"time":209494.79166666712,"duration":119.79166666665697,"noteNumber":68,"velocity":101,"programNumber":3},{"time":209619.79166666712,"duration":119.79166666665697,"noteNumber":59,"velocity":99,"programNumber":3},{"time":209744.79166666712,"duration":119.79166666665697,"noteNumber":64,"velocity":104,"programNumber":3},{"time":209869.79166666712,"duration":119.79166666665697,"noteNumber":59,"velocity":102,"programNumber":3},{"time":209994.79166666712,"duration":119.79166666665697,"noteNumber":66,"velocity":105,"programNumber":3},{"time":210119.79166666712,"duration":119.79166666665697,"noteNumber":59,"velocity":102,"programNumber":3},{"time":210244.79166666712,"duration":119.79166666665697,"noteNumber":63,"velocity":103,"programNumber":3},{"time":210369.79166666712,"duration":119.79166666665697,"noteNumber":59,"velocity":97,"programNumber":3},{"time":210494.79166666712,"duration":119.79166666665697,"noteNumber":64,"velocity":101,"programNumber":3},{"time":210619.79166666712,"duration":119.79166666665697,"noteNumber":59,"velocity":101,"programNumber":3},{"time":210744.79166666712,"duration":119.79166666665697,"noteNumber":63,"velocity":97,"programNumber":3},{"time":210869.79166666712,"duration":119.79166666665697,"noteNumber":59,"velocity":97,"programNumber":3},{"time":210994.79166666712,"duration":109.375,"noteNumber":64,"velocity":102,"programNumber":3},{"time":211109.37500000047,"duration":119.79166666665697,"noteNumber":59,"velocity":101,"programNumber":3},{"time":211244.79166666712,"duration":104.16666666665697,"noteNumber":63,"velocity":92,"programNumber":3},{"time":211354.16666666712,"duration":135.41666666665697,"noteNumber":59,"velocity":99,"programNumber":3},{"time":211494.79166666712,"duration":109.375,"noteNumber":64,"velocity":102,"programNumber":3},{"time":211609.37500000047,"duration":119.79166666665697,"noteNumber":59,"velocity":104,"programNumber":3},{"time":211744.79166666712,"duration":109.375,"noteNumber":63,"velocity":105,"programNumber":3},{"time":211859.37500000047,"duration":130.20833333334303,"noteNumber":59,"velocity":99,"programNumber":3},{"time":212744.79166666715,"duration":562.5,"noteNumber":59,"velocity":108,"programNumber":3},{"time":216744.79166666715,"duration":562.5,"noteNumber":59,"velocity":108,"programNumber":3},{"time":220744.79166666715,"duration":562.5,"noteNumber":59,"velocity":108,"programNumber":3},{"time":224744.79166666715,"duration":562.5,"noteNumber":59,"velocity":108,"programNumber":3},{"time":227994.79166666715,"duration":119.79166666665697,"noteNumber":71,"velocity":106,"programNumber":3},{"time":227994.79166666715,"duration":125,"noteNumber":59,"velocity":108,"programNumber":3},{"time":228119.79166666715,"duration":119.79166666665697,"noteNumber":59,"velocity":101,"programNumber":3},{"time":228244.79166666715,"duration":119.79166666665697,"noteNumber":69,"velocity":104,"programNumber":3},{"time":228369.79166666715,"duration":119.79166666665697,"noteNumber":59,"velocity":101,"programNumber":3},{"time":228494.79166666715,"duration":119.79166666665697,"noteNumber":68,"velocity":103,"programNumber":3},{"time":228619.79166666715,"duration":119.79166666665697,"noteNumber":59,"velocity":101,"programNumber":3},{"time":228744.79166666715,"duration":119.79166666665697,"noteNumber":69,"velocity":97,"programNumber":3},{"time":228869.79166666715,"duration":119.79166666665697,"noteNumber":59,"velocity":96,"programNumber":3},{"time":228994.79166666715,"duration":119.79166666665697,"noteNumber":68,"velocity":103,"programNumber":3},{"time":229119.79166666715,"duration":119.79166666665697,"noteNumber":59,"velocity":91,"programNumber":3},{"time":229244.79166666715,"duration":119.79166666665697,"noteNumber":66,"velocity":101,"programNumber":3},{"time":229369.79166666715,"duration":104.16666666665697,"noteNumber":59,"velocity":101,"programNumber":3},{"time":229494.79166666715,"duration":119.79166666665697,"noteNumber":68,"velocity":101,"programNumber":3},{"time":229619.79166666715,"duration":109.375,"noteNumber":59,"velocity":99,"programNumber":3},{"time":229744.79166666715,"duration":119.79166666665697,"noteNumber":64,"velocity":104,"programNumber":3},{"time":229869.79166666715,"duration":119.79166666665697,"noteNumber":59,"velocity":102,"programNumber":3},{"time":229994.79166666715,"duration":119.79166666665697,"noteNumber":66,"velocity":105,"programNumber":3},{"time":230119.79166666715,"duration":119.79166666665697,"noteNumber":59,"velocity":102,"programNumber":3},{"time":230244.79166666715,"duration":119.79166666665697,"noteNumber":63,"velocity":103,"programNumber":3},{"time":230369.79166666715,"duration":119.79166666665697,"noteNumber":59,"velocity":97,"programNumber":3},{"time":230494.79166666715,"duration":119.79166666665697,"noteNumber":64,"velocity":101,"programNumber":3},{"time":230619.79166666715,"duration":119.79166666665697,"noteNumber":59,"velocity":101,"programNumber":3},{"time":230744.79166666715,"duration":109.375,"noteNumber":63,"velocity":97,"programNumber":3},{"time":230859.3750000005,"duration":119.79166666665697,"noteNumber":59,"velocity":97,"programNumber":3},{"time":230994.79166666715,"duration":119.79166666665697,"noteNumber":64,"velocity":102,"programNumber":3},{"time":231119.79166666715,"duration":119.79166666665697,"noteNumber":59,"velocity":101,"programNumber":3},{"time":231244.79166666715,"duration":119.79166666665697,"noteNumber":63,"velocity":92,"programNumber":3},{"time":231369.79166666715,"duration":119.79166666665697,"noteNumber":59,"velocity":99,"programNumber":3},{"time":231494.79166666715,"duration":119.79166666665697,"noteNumber":64,"velocity":102,"programNumber":3},{"time":231619.79166666715,"duration":104.16666666665697,"noteNumber":59,"velocity":104,"programNumber":3},{"time":231744.79166666715,"duration":109.375,"noteNumber":63,"velocity":105,"programNumber":3},{"time":231869.79166666715,"duration":119.79166666665697,"noteNumber":59,"velocity":99,"programNumber":3},{"time":231994.79166666715,"duration":114.58333333334303,"noteNumber":71,"velocity":106,"programNumber":3},{"time":231994.79166666715,"duration":125,"noteNumber":59,"velocity":108,"programNumber":3},{"time":232119.79166666715,"duration":114.58333333334303,"noteNumber":59,"velocity":101,"programNumber":3},{"time":232244.79166666715,"duration":119.79166666665697,"noteNumber":69,"velocity":104,"programNumber":3},{"time":232369.79166666715,"duration":119.79166666665697,"noteNumber":59,"velocity":101,"programNumber":3},{"time":232494.79166666715,"duration":119.79166666665697,"noteNumber":68,"velocity":103,"programNumber":3},{"time":232619.79166666715,"duration":119.79166666665697,"noteNumber":59,"velocity":101,"programNumber":3},{"time":232744.79166666715,"duration":119.79166666665697,"noteNumber":69,"velocity":97,"programNumber":3},{"time":232869.79166666715,"duration":119.79166666665697,"noteNumber":59,"velocity":96,"programNumber":3},{"time":232994.79166666715,"duration":119.79166666665697,"noteNumber":68,"velocity":103,"programNumber":3},{"time":233119.79166666715,"duration":109.375,"noteNumber":59,"velocity":91,"programNumber":3},{"time":233244.79166666715,"duration":119.79166666665697,"noteNumber":66,"velocity":101,"programNumber":3},{"time":233369.79166666715,"duration":109.375,"noteNumber":59,"velocity":101,"programNumber":3},{"time":233494.79166666715,"duration":119.79166666665697,"noteNumber":68,"velocity":101,"programNumber":3},{"time":233619.79166666715,"duration":119.79166666665697,"noteNumber":59,"velocity":99,"programNumber":3},{"time":233744.79166666715,"duration":119.79166666665697,"noteNumber":64,"velocity":104,"programNumber":3},{"time":233869.79166666715,"duration":119.79166666665697,"noteNumber":59,"velocity":102,"programNumber":3},{"time":233994.79166666715,"duration":119.79166666665697,"noteNumber":66,"velocity":105,"programNumber":3},{"time":234119.79166666715,"duration":119.79166666665697,"noteNumber":59,"velocity":102,"programNumber":3},{"time":234244.79166666715,"duration":114.58333333334303,"noteNumber":63,"velocity":103,"programNumber":3},{"time":234369.79166666715,"duration":114.58333333334303,"noteNumber":59,"velocity":97,"programNumber":3},{"time":234494.79166666715,"duration":114.58333333334303,"noteNumber":64,"velocity":101,"programNumber":3},{"time":234619.79166666715,"duration":114.58333333334303,"noteNumber":59,"velocity":101,"programNumber":3},{"time":234744.79166666715,"duration":119.79166666665697,"noteNumber":63,"velocity":97,"programNumber":3},{"time":234869.79166666715,"duration":114.58333333334303,"noteNumber":59,"velocity":97,"programNumber":3},{"time":234994.79166666715,"duration":114.58333333334303,"noteNumber":64,"velocity":102,"programNumber":3},{"time":235119.79166666715,"duration":119.79166666665697,"noteNumber":59,"velocity":101,"programNumber":3},{"time":235244.79166666715,"duration":119.79166666665697,"noteNumber":63,"velocity":92,"programNumber":3},{"time":235369.79166666715,"duration":119.79166666665697,"noteNumber":59,"velocity":99,"programNumber":3},{"time":235494.79166666715,"duration":119.79166666665697,"noteNumber":64,"velocity":102,"programNumber":3},{"time":235619.79166666715,"duration":119.79166666665697,"noteNumber":59,"velocity":104,"programNumber":3},{"time":235744.79166666715,"duration":119.79166666665697,"noteNumber":63,"velocity":105,"programNumber":3},{"time":235869.79166666715,"duration":114.58333333334303,"noteNumber":59,"velocity":99,"programNumber":3},{"time":235994.79166666715,"duration":119.79166666665697,"noteNumber":71,"velocity":106,"programNumber":3},{"time":235994.79166666715,"duration":125,"noteNumber":59,"velocity":108,"programNumber":3},{"time":236119.79166666715,"duration":119.79166666665697,"noteNumber":59,"velocity":101,"programNumber":3},{"time":236244.79166666715,"duration":119.79166666665697,"noteNumber":69,"velocity":104,"programNumber":3},{"time":236369.79166666715,"duration":119.79166666665697,"noteNumber":59,"velocity":101,"programNumber":3},{"time":236494.79166666715,"duration":119.79166666665697,"noteNumber":68,"velocity":103,"programNumber":3},{"time":236619.79166666715,"duration":119.79166666665697,"noteNumber":59,"velocity":101,"programNumber":3},{"time":236744.79166666715,"duration":119.79166666665697,"noteNumber":69,"velocity":97,"programNumber":3},{"time":236869.79166666715,"duration":119.79166666665697,"noteNumber":59,"velocity":96,"programNumber":3},{"time":236994.79166666715,"duration":119.79166666665697,"noteNumber":68,"velocity":103,"programNumber":3},{"time":237119.79166666715,"duration":119.79166666665697,"noteNumber":59,"velocity":91,"programNumber":3},{"time":237244.79166666715,"duration":119.79166666665697,"noteNumber":66,"velocity":101,"programNumber":3},{"time":237369.79166666715,"duration":119.79166666665697,"noteNumber":59,"velocity":101,"programNumber":3},{"time":237494.79166666715,"duration":119.79166666665697,"noteNumber":68,"velocity":101,"programNumber":3},{"time":237619.79166666715,"duration":119.79166666665697,"noteNumber":59,"velocity":99,"programNumber":3},{"time":237744.79166666715,"duration":119.79166666665697,"noteNumber":64,"velocity":104,"programNumber":3},{"time":237869.79166666715,"duration":119.79166666665697,"noteNumber":59,"velocity":102,"programNumber":3},{"time":237994.79166666715,"duration":119.79166666665697,"noteNumber":66,"velocity":105,"programNumber":3},{"time":238119.79166666715,"duration":119.79166666665697,"noteNumber":59,"velocity":102,"programNumber":3},{"time":238244.79166666715,"duration":119.79166666665697,"noteNumber":63,"velocity":103,"programNumber":3},{"time":238369.79166666715,"duration":119.79166666665697,"noteNumber":59,"velocity":97,"programNumber":3},{"time":238494.79166666715,"duration":119.79166666665697,"noteNumber":64,"velocity":101,"programNumber":3},{"time":238619.79166666715,"duration":119.79166666665697,"noteNumber":59,"velocity":101,"programNumber":3},{"time":238744.79166666715,"duration":119.79166666665697,"noteNumber":63,"velocity":97,"programNumber":3},{"time":238869.79166666715,"duration":119.79166666665697,"noteNumber":59,"velocity":97,"programNumber":3},{"time":238994.79166666715,"duration":119.79166666665697,"noteNumber":64,"velocity":102,"programNumber":3},{"time":239119.79166666715,"duration":119.79166666665697,"noteNumber":59,"velocity":101,"programNumber":3},{"time":239244.79166666715,"duration":119.79166666665697,"noteNumber":63,"velocity":92,"programNumber":3},{"time":239369.79166666715,"duration":119.79166666665697,"noteNumber":59,"velocity":99,"programNumber":3},{"time":239494.79166666715,"duration":119.79166666665697,"noteNumber":64,"velocity":102,"programNumber":3},{"time":239619.79166666715,"duration":119.79166666665697,"noteNumber":59,"velocity":104,"programNumber":3},{"time":239744.79166666715,"duration":119.79166666665697,"noteNumber":63,"velocity":105,"programNumber":3},{"time":239869.79166666715,"duration":119.79166666665697,"noteNumber":59,"velocity":99,"programNumber":3},{"time":239994.79166666715,"duration":119.79166666668607,"noteNumber":71,"velocity":106,"programNumber":3},{"time":240000.0000000005,"duration":119.79166666668607,"noteNumber":59,"velocity":108,"programNumber":3},{"time":240119.79166666718,"duration":109.375,"noteNumber":59,"velocity":101,"programNumber":3},{"time":240244.79166666718,"duration":119.79166666665697,"noteNumber":69,"velocity":104,"programNumber":3},{"time":240369.79166666718,"duration":119.79166666665697,"noteNumber":59,"velocity":101,"programNumber":3},{"time":240494.79166666718,"duration":109.375,"noteNumber":68,"velocity":103,"programNumber":3},{"time":240609.37500000052,"duration":119.79166666665697,"noteNumber":59,"velocity":101,"programNumber":3},{"time":240744.79166666718,"duration":109.375,"noteNumber":69,"velocity":97,"programNumber":3},{"time":240859.37500000052,"duration":119.79166666665697,"noteNumber":59,"velocity":96,"programNumber":3},{"time":240994.79166666718,"duration":109.375,"noteNumber":68,"velocity":103,"programNumber":3},{"time":241109.37500000052,"duration":119.79166666665697,"noteNumber":59,"velocity":91,"programNumber":3},{"time":241244.79166666718,"duration":104.16666666665697,"noteNumber":66,"velocity":101,"programNumber":3},{"time":241354.16666666718,"duration":125,"noteNumber":59,"velocity":101,"programNumber":3},{"time":241494.79166666718,"duration":119.79166666665697,"noteNumber":68,"velocity":101,"programNumber":3},{"time":241619.79166666718,"duration":119.79166666665697,"noteNumber":59,"velocity":99,"programNumber":3},{"time":241744.79166666718,"duration":104.16666666665697,"noteNumber":64,"velocity":104,"programNumber":3},{"time":241854.16666666718,"duration":135.41666666665697,"noteNumber":59,"velocity":102,"programNumber":3},{"time":241994.79166666718,"duration":119.79166666665697,"noteNumber":66,"velocity":105,"programNumber":3},{"time":242119.79166666718,"duration":109.375,"noteNumber":59,"velocity":102,"programNumber":3},{"time":242244.79166666718,"duration":119.79166666665697,"noteNumber":63,"velocity":103,"programNumber":3},{"time":242369.79166666718,"duration":119.79166666665697,"noteNumber":59,"velocity":97,"programNumber":3},{"time":242494.79166666718,"duration":119.79166666665697,"noteNumber":64,"velocity":101,"programNumber":3},{"time":242619.79166666718,"duration":119.79166666665697,"noteNumber":59,"velocity":101,"programNumber":3},{"time":242744.79166666718,"duration":119.79166666665697,"noteNumber":63,"velocity":97,"programNumber":3},{"time":242869.79166666718,"duration":119.79166666665697,"noteNumber":59,"velocity":97,"programNumber":3},{"time":242994.79166666718,"duration":119.79166666665697,"noteNumber":64,"velocity":102,"programNumber":3},{"time":243119.79166666718,"duration":109.375,"noteNumber":59,"velocity":101,"programNumber":3},{"time":243244.79166666718,"duration":119.79166666665697,"noteNumber":63,"velocity":92,"programNumber":3},{"time":243369.79166666718,"duration":109.375,"noteNumber":59,"velocity":99,"programNumber":3},{"time":243494.79166666718,"duration":109.375,"noteNumber":64,"velocity":102,"programNumber":3},{"time":243609.37500000052,"duration":130.20833333334303,"noteNumber":59,"velocity":104,"programNumber":3},{"time":243744.7916666672,"duration":119.79166666665697,"noteNumber":63,"velocity":105,"programNumber":3},{"time":243869.7916666672,"duration":119.79166666665697,"noteNumber":59,"velocity":99,"programNumber":3},{"time":243994.7916666672,"duration":119.79166666665697,"noteNumber":71,"velocity":106,"programNumber":3},{"time":244119.7916666672,"duration":119.79166666665697,"noteNumber":59,"velocity":101,"programNumber":3},{"time":244244.7916666672,"duration":119.79166666665697,"noteNumber":69,"velocity":104,"programNumber":3},{"time":244369.7916666672,"duration":119.79166666665697,"noteNumber":59,"velocity":101,"programNumber":3},{"time":244494.7916666672,"duration":119.79166666665697,"noteNumber":68,"velocity":103,"programNumber":3},{"time":244619.7916666672,"duration":119.79166666665697,"noteNumber":59,"velocity":101,"programNumber":3},{"time":244744.7916666672,"duration":119.79166666665697,"noteNumber":69,"velocity":97,"programNumber":3},{"time":244869.7916666672,"duration":119.79166666665697,"noteNumber":59,"velocity":96,"programNumber":3},{"time":244994.7916666672,"duration":119.79166666665697,"noteNumber":68,"velocity":103,"programNumber":3},{"time":245119.7916666672,"duration":119.79166666665697,"noteNumber":59,"velocity":91,"programNumber":3},{"time":245244.7916666672,"duration":119.79166666665697,"noteNumber":66,"velocity":101,"programNumber":3},{"time":245369.7916666672,"duration":119.79166666665697,"noteNumber":59,"velocity":101,"programNumber":3},{"time":245494.7916666672,"duration":119.79166666665697,"noteNumber":68,"velocity":101,"programNumber":3},{"time":245619.7916666672,"duration":119.79166666665697,"noteNumber":59,"velocity":99,"programNumber":3},{"time":245744.7916666672,"duration":119.79166666665697,"noteNumber":64,"velocity":104,"programNumber":3},{"time":245869.7916666672,"duration":119.79166666665697,"noteNumber":59,"velocity":102,"programNumber":3},{"time":245994.7916666672,"duration":119.79166666668607,"noteNumber":66,"velocity":105,"programNumber":3},{"time":246119.79166666724,"duration":109.375,"noteNumber":59,"velocity":102,"programNumber":3},{"time":246244.79166666724,"duration":119.79166666665697,"noteNumber":63,"velocity":103,"programNumber":3},{"time":246369.79166666724,"duration":109.375,"noteNumber":59,"velocity":97,"programNumber":3},{"time":246494.79166666724,"duration":109.375,"noteNumber":64,"velocity":101,"programNumber":3},{"time":246619.79166666724,"duration":119.79166666665697,"noteNumber":59,"velocity":101,"programNumber":3},{"time":246744.79166666724,"duration":119.79166666665697,"noteNumber":63,"velocity":97,"programNumber":3},{"time":246869.79166666724,"duration":119.79166666665697,"noteNumber":59,"velocity":97,"programNumber":3},{"time":246994.79166666724,"duration":119.79166666665697,"noteNumber":64,"velocity":102,"programNumber":3},{"time":247119.79166666724,"duration":119.79166666665697,"noteNumber":59,"velocity":101,"programNumber":3},{"time":247244.79166666724,"duration":119.79166666665697,"noteNumber":63,"velocity":92,"programNumber":3},{"time":247369.79166666724,"duration":119.79166666665697,"noteNumber":59,"velocity":99,"programNumber":3},{"time":247494.79166666724,"duration":119.79166666665697,"noteNumber":64,"velocity":102,"programNumber":3},{"time":247619.79166666724,"duration":119.79166666665697,"noteNumber":59,"velocity":104,"programNumber":3},{"time":247744.79166666724,"duration":119.79166666665697,"noteNumber":63,"velocity":105,"programNumber":3},{"time":247869.79166666724,"duration":119.79166666668607,"noteNumber":59,"velocity":99,"programNumber":3},{"time":247994.79166666727,"duration":119.79166666665697,"noteNumber":71,"velocity":106,"programNumber":3},{"time":247994.79166666727,"duration":125,"noteNumber":59,"velocity":106,"programNumber":3},{"time":248119.79166666727,"duration":109.375,"noteNumber":59,"velocity":101,"programNumber":3},{"time":248244.79166666727,"duration":109.375,"noteNumber":69,"velocity":104,"programNumber":3},{"time":248369.79166666727,"duration":104.16666666665697,"noteNumber":59,"velocity":101,"programNumber":3},{"time":248494.79166666727,"duration":119.79166666665697,"noteNumber":68,"velocity":103,"programNumber":3},{"time":248619.79166666727,"duration":119.79166666665697,"noteNumber":59,"velocity":101,"programNumber":3},{"time":248744.79166666727,"duration":114.58333333334303,"noteNumber":69,"velocity":97,"programNumber":3},{"time":248869.79166666727,"duration":119.79166666665697,"noteNumber":59,"velocity":96,"programNumber":3},{"time":248994.79166666727,"duration":119.79166666665697,"noteNumber":68,"velocity":103,"programNumber":3},{"time":249119.79166666727,"duration":119.79166666665697,"noteNumber":59,"velocity":91,"programNumber":3},{"time":249244.79166666727,"duration":114.58333333334303,"noteNumber":66,"velocity":101,"programNumber":3},{"time":249369.79166666727,"duration":114.58333333334303,"noteNumber":59,"velocity":101,"programNumber":3},{"time":249494.79166666727,"duration":119.79166666665697,"noteNumber":68,"velocity":101,"programNumber":3},{"time":249619.79166666727,"duration":119.79166666665697,"noteNumber":59,"velocity":99,"programNumber":3},{"time":249744.79166666727,"duration":119.79166666665697,"noteNumber":64,"velocity":104,"programNumber":3},{"time":249869.79166666727,"duration":119.79166666665697,"noteNumber":59,"velocity":102,"programNumber":3},{"time":249994.79166666727,"duration":119.79166666665697,"noteNumber":66,"velocity":105,"programNumber":3},{"time":250119.79166666727,"duration":119.79166666665697,"noteNumber":59,"velocity":102,"programNumber":3},{"time":250244.79166666727,"duration":119.79166666665697,"noteNumber":63,"velocity":103,"programNumber":3},{"time":250369.79166666727,"duration":119.79166666665697,"noteNumber":59,"velocity":97,"programNumber":3},{"time":250494.79166666727,"duration":119.79166666665697,"noteNumber":64,"velocity":101,"programNumber":3},{"time":250619.79166666727,"duration":119.79166666665697,"noteNumber":59,"velocity":101,"programNumber":3},{"time":250744.79166666727,"duration":119.79166666665697,"noteNumber":63,"velocity":97,"programNumber":3},{"time":250869.79166666727,"duration":119.79166666665697,"noteNumber":59,"velocity":97,"programNumber":3},{"time":250994.79166666727,"duration":119.79166666665697,"noteNumber":64,"velocity":102,"programNumber":3},{"time":251119.79166666727,"duration":119.79166666665697,"noteNumber":59,"velocity":101,"programNumber":3},{"time":251244.79166666727,"duration":119.79166666665697,"noteNumber":63,"velocity":92,"programNumber":3},{"time":251369.79166666727,"duration":119.79166666665697,"noteNumber":59,"velocity":99,"programNumber":3},{"time":251494.79166666727,"duration":119.79166666665697,"noteNumber":64,"velocity":102,"programNumber":3},{"time":251619.79166666727,"duration":119.79166666665697,"noteNumber":59,"velocity":104,"programNumber":3},{"time":251744.79166666727,"duration":119.79166666665697,"noteNumber":63,"velocity":105,"programNumber":3},{"time":251869.79166666727,"duration":119.79166666665697,"noteNumber":59,"velocity":99,"programNumber":3},{"time":251994.79166666727,"duration":119.79166666665697,"noteNumber":71,"velocity":106,"programNumber":3},{"time":251994.79166666727,"duration":125,"noteNumber":59,"velocity":106,"programNumber":3},{"time":252119.79166666727,"duration":119.79166666665697,"noteNumber":59,"velocity":101,"programNumber":3},{"time":252244.79166666727,"duration":119.79166666665697,"noteNumber":69,"velocity":104,"programNumber":3},{"time":252369.79166666727,"duration":119.79166666665697,"noteNumber":59,"velocity":101,"programNumber":3},{"time":252494.79166666727,"duration":119.79166666665697,"noteNumber":68,"velocity":103,"programNumber":3},{"time":252619.79166666727,"duration":109.375,"noteNumber":59,"velocity":101,"programNumber":3},{"time":252744.79166666727,"duration":109.375,"noteNumber":69,"velocity":97,"programNumber":3},{"time":252864.58333333393,"duration":125,"noteNumber":59,"velocity":96,"programNumber":3},{"time":252994.79166666727,"duration":119.79166666665697,"noteNumber":68,"velocity":103,"programNumber":3},{"time":253119.79166666727,"duration":109.375,"noteNumber":59,"velocity":91,"programNumber":3},{"time":253244.79166666727,"duration":109.375,"noteNumber":66,"velocity":101,"programNumber":3},{"time":253369.79166666727,"duration":104.16666666665697,"noteNumber":59,"velocity":101,"programNumber":3},{"time":253494.79166666727,"duration":109.375,"noteNumber":68,"velocity":101,"programNumber":3},{"time":253619.79166666727,"duration":109.375,"noteNumber":59,"velocity":99,"programNumber":3},{"time":253744.79166666727,"duration":109.375,"noteNumber":64,"velocity":104,"programNumber":3},{"time":253869.79166666727,"duration":119.79166666665697,"noteNumber":59,"velocity":102,"programNumber":3},{"time":253994.79166666727,"duration":114.58333333334303,"noteNumber":66,"velocity":105,"programNumber":3},{"time":254119.79166666727,"duration":119.79166666665697,"noteNumber":59,"velocity":102,"programNumber":3},{"time":254244.79166666727,"duration":119.79166666665697,"noteNumber":63,"velocity":103,"programNumber":3},{"time":254369.79166666727,"duration":119.79166666665697,"noteNumber":59,"velocity":97,"programNumber":3},{"time":254494.79166666727,"duration":109.375,"noteNumber":64,"velocity":101,"programNumber":3},{"time":254609.3750000006,"duration":119.79166666665697,"noteNumber":59,"velocity":101,"programNumber":3},{"time":254744.79166666727,"duration":104.16666666665697,"noteNumber":63,"velocity":97,"programNumber":3},{"time":254859.37500000058,"duration":119.79166666665697,"noteNumber":59,"velocity":97,"programNumber":3},{"time":254994.79166666724,"duration":119.79166666665697,"noteNumber":64,"velocity":102,"programNumber":3},{"time":255119.79166666724,"duration":119.79166666665697,"noteNumber":59,"velocity":101,"programNumber":3},{"time":255244.79166666724,"duration":109.375,"noteNumber":63,"velocity":92,"programNumber":3},{"time":255359.37500000058,"duration":125,"noteNumber":59,"velocity":99,"programNumber":3},{"time":255494.79166666724,"duration":109.375,"noteNumber":64,"velocity":102,"programNumber":3},{"time":255619.79166666724,"duration":119.79166666665697,"noteNumber":59,"velocity":104,"programNumber":3},{"time":255744.79166666724,"duration":119.79166666665697,"noteNumber":63,"velocity":105,"programNumber":3},{"time":255869.79166666724,"duration":104.16666666665697,"noteNumber":59,"velocity":99,"programNumber":3},{"time":255994.79166666724,"duration":104.16666666665697,"noteNumber":71,"velocity":106,"programNumber":3},{"time":255994.79166666724,"duration":109.375,"noteNumber":59,"velocity":106,"programNumber":3},{"time":256104.16666666724,"duration":135.41666666665697,"noteNumber":59,"velocity":101,"programNumber":3},{"time":256244.79166666724,"duration":104.16666666665697,"noteNumber":69,"velocity":104,"programNumber":3},{"time":256354.16666666724,"duration":135.41666666665697,"noteNumber":59,"velocity":101,"programNumber":3},{"time":256494.79166666724,"duration":119.79166666665697,"noteNumber":68,"velocity":103,"programNumber":3},{"time":256619.79166666724,"duration":109.375,"noteNumber":59,"velocity":101,"programNumber":3},{"time":256744.79166666724,"duration":119.79166666665697,"noteNumber":69,"velocity":97,"programNumber":3},{"time":256869.79166666724,"duration":119.79166666665697,"noteNumber":59,"velocity":96,"programNumber":3},{"time":256994.79166666724,"duration":119.79166666665697,"noteNumber":68,"velocity":103,"programNumber":3},{"time":257119.79166666724,"duration":119.79166666665697,"noteNumber":59,"velocity":91,"programNumber":3},{"time":257244.79166666724,"duration":119.79166666665697,"noteNumber":66,"velocity":101,"programNumber":3},{"time":257369.79166666724,"duration":119.79166666665697,"noteNumber":59,"velocity":101,"programNumber":3},{"time":257494.79166666724,"duration":119.79166666665697,"noteNumber":68,"velocity":101,"programNumber":3},{"time":257619.79166666724,"duration":119.79166666665697,"noteNumber":59,"velocity":99,"programNumber":3},{"time":257744.79166666724,"duration":109.375,"noteNumber":64,"velocity":104,"programNumber":3},{"time":257859.37500000058,"duration":130.20833333334303,"noteNumber":59,"velocity":102,"programNumber":3},{"time":257994.79166666727,"duration":109.375,"noteNumber":66,"velocity":105,"programNumber":3},{"time":258119.79166666727,"duration":119.79166666665697,"noteNumber":59,"velocity":102,"programNumber":3},{"time":258244.79166666727,"duration":119.79166666665697,"noteNumber":63,"velocity":103,"programNumber":3},{"time":258369.79166666727,"duration":109.375,"noteNumber":59,"velocity":97,"programNumber":3},{"time":258494.79166666727,"duration":119.79166666665697,"noteNumber":64,"velocity":101,"programNumber":3},{"time":258619.79166666727,"duration":119.79166666665697,"noteNumber":59,"velocity":101,"programNumber":3},{"time":258744.79166666727,"duration":119.79166666665697,"noteNumber":63,"velocity":97,"programNumber":3},{"time":258869.79166666727,"duration":109.375,"noteNumber":59,"velocity":97,"programNumber":3},{"time":258994.79166666727,"duration":119.79166666665697,"noteNumber":64,"velocity":102,"programNumber":3},{"time":259119.79166666727,"duration":119.79166666665697,"noteNumber":59,"velocity":101,"programNumber":3},{"time":259244.79166666727,"duration":119.79166666665697,"noteNumber":63,"velocity":92,"programNumber":3},{"time":259369.79166666727,"duration":119.79166666665697,"noteNumber":59,"velocity":99,"programNumber":3},{"time":259494.79166666727,"duration":119.79166666665697,"noteNumber":64,"velocity":102,"programNumber":3},{"time":259619.79166666727,"duration":119.79166666665697,"noteNumber":59,"velocity":104,"programNumber":3},{"time":259744.79166666727,"duration":119.79166666665697,"noteNumber":63,"velocity":105,"programNumber":3},{"time":259869.79166666727,"duration":119.79166666665697,"noteNumber":59,"velocity":99,"programNumber":3},{"time":259994.79166666727,"duration":119.79166666668607,"noteNumber":71,"velocity":106,"programNumber":3},{"time":260000.0000000006,"duration":119.79166666668607,"noteNumber":59,"velocity":106,"programNumber":3},{"time":260119.7916666673,"duration":119.79166666665697,"noteNumber":59,"velocity":101,"programNumber":3},{"time":260244.7916666673,"duration":119.79166666665697,"noteNumber":69,"velocity":104,"programNumber":3},{"time":260369.7916666673,"duration":119.79166666665697,"noteNumber":59,"velocity":101,"programNumber":3},{"time":260494.7916666673,"duration":119.79166666665697,"noteNumber":68,"velocity":103,"programNumber":3},{"time":260619.7916666673,"duration":119.79166666665697,"noteNumber":59,"velocity":101,"programNumber":3},{"time":260744.7916666673,"duration":119.79166666665697,"noteNumber":69,"velocity":97,"programNumber":3},{"time":260869.7916666673,"duration":119.79166666665697,"noteNumber":59,"velocity":96,"programNumber":3},{"time":260994.7916666673,"duration":109.375,"noteNumber":68,"velocity":103,"programNumber":3},{"time":261109.37500000064,"duration":130.20833333334303,"noteNumber":59,"velocity":91,"programNumber":3},{"time":261244.79166666733,"duration":119.79166666665697,"noteNumber":66,"velocity":101,"programNumber":3},{"time":261369.79166666733,"duration":119.79166666665697,"noteNumber":59,"velocity":101,"programNumber":3},{"time":261494.79166666733,"duration":119.79166666665697,"noteNumber":68,"velocity":101,"programNumber":3},{"time":261619.79166666733,"duration":119.79166666665697,"noteNumber":59,"velocity":99,"programNumber":3},{"time":261744.79166666733,"duration":119.79166666665697,"noteNumber":64,"velocity":104,"programNumber":3},{"time":261869.79166666733,"duration":119.79166666665697,"noteNumber":59,"velocity":102,"programNumber":3},{"time":261994.79166666733,"duration":119.79166666665697,"noteNumber":66,"velocity":105,"programNumber":3},{"time":262119.79166666733,"duration":109.375,"noteNumber":59,"velocity":102,"programNumber":3},{"time":262244.7916666673,"duration":119.79166666668607,"noteNumber":63,"velocity":103,"programNumber":3},{"time":262369.7916666673,"duration":109.375,"noteNumber":59,"velocity":97,"programNumber":3},{"time":262494.7916666673,"duration":109.375,"noteNumber":64,"velocity":101,"programNumber":3},{"time":262609.37500000064,"duration":119.79166666668607,"noteNumber":59,"velocity":101,"programNumber":3},{"time":262744.7916666673,"duration":109.375,"noteNumber":63,"velocity":97,"programNumber":3},{"time":262859.37500000064,"duration":119.79166666668607,"noteNumber":59,"velocity":97,"programNumber":3},{"time":262994.7916666673,"duration":104.16666666668607,"noteNumber":64,"velocity":102,"programNumber":3},{"time":263104.1666666673,"duration":125,"noteNumber":59,"velocity":101,"programNumber":3},{"time":263244.7916666673,"duration":104.16666666668607,"noteNumber":63,"velocity":92,"programNumber":3},{"time":263354.1666666673,"duration":125,"noteNumber":59,"velocity":99,"programNumber":3},{"time":263494.7916666673,"duration":104.16666666668607,"noteNumber":64,"velocity":102,"programNumber":3},{"time":263604.1666666673,"duration":125,"noteNumber":59,"velocity":104,"programNumber":3},{"time":263744.7916666673,"duration":104.16666666668607,"noteNumber":63,"velocity":105,"programNumber":3},{"time":263854.1666666673,"duration":135.41666666668607,"noteNumber":59,"velocity":99,"programNumber":3},{"time":263994.7916666673,"duration":114.58333333331393,"noteNumber":71,"velocity":106,"programNumber":3},{"time":263994.7916666673,"duration":125,"noteNumber":59,"velocity":113,"programNumber":3},{"time":264119.7916666673,"duration":119.79166666668607,"noteNumber":59,"velocity":101,"programNumber":3},{"time":264244.7916666673,"duration":119.79166666668607,"noteNumber":69,"velocity":104,"programNumber":3},{"time":264369.7916666673,"duration":114.58333333331393,"noteNumber":59,"velocity":101,"programNumber":3},{"time":264494.7916666673,"duration":119.79166666668607,"noteNumber":68,"velocity":103,"programNumber":3},{"time":264619.7916666673,"duration":119.79166666668607,"noteNumber":59,"velocity":101,"programNumber":3},{"time":264744.7916666673,"duration":119.79166666668607,"noteNumber":69,"velocity":97,"programNumber":3},{"time":264869.7916666673,"duration":119.79166666668607,"noteNumber":59,"velocity":96,"programNumber":3},{"time":264994.7916666673,"duration":119.79166666668607,"noteNumber":68,"velocity":103,"programNumber":3},{"time":265119.7916666673,"duration":119.79166666668607,"noteNumber":59,"velocity":91,"programNumber":3},{"time":265244.7916666673,"duration":119.79166666668607,"noteNumber":66,"velocity":101,"programNumber":3},{"time":265369.7916666673,"duration":119.79166666668607,"noteNumber":59,"velocity":101,"programNumber":3},{"time":265494.7916666673,"duration":119.79166666668607,"noteNumber":68,"velocity":101,"programNumber":3},{"time":265619.7916666673,"duration":119.79166666668607,"noteNumber":59,"velocity":99,"programNumber":3},{"time":265744.7916666673,"duration":119.79166666668607,"noteNumber":64,"velocity":104,"programNumber":3},{"time":265869.7916666673,"duration":119.79166666668607,"noteNumber":59,"velocity":102,"programNumber":3},{"time":265994.7916666673,"duration":119.79166666668607,"noteNumber":66,"velocity":105,"programNumber":3},{"time":266119.7916666673,"duration":119.79166666668607,"noteNumber":59,"velocity":102,"programNumber":3},{"time":266244.7916666673,"duration":119.79166666668607,"noteNumber":63,"velocity":103,"programNumber":3},{"time":266369.7916666673,"duration":119.79166666668607,"noteNumber":59,"velocity":97,"programNumber":3},{"time":266494.7916666673,"duration":119.79166666668607,"noteNumber":64,"velocity":101,"programNumber":3},{"time":266619.7916666673,"duration":119.79166666668607,"noteNumber":59,"velocity":101,"programNumber":3},{"time":266744.7916666673,"duration":119.79166666668607,"noteNumber":63,"velocity":97,"programNumber":3},{"time":266869.7916666673,"duration":119.79166666668607,"noteNumber":59,"velocity":97,"programNumber":3},{"time":266994.7916666673,"duration":119.79166666668607,"noteNumber":64,"velocity":102,"programNumber":3},{"time":267119.7916666673,"duration":119.79166666668607,"noteNumber":59,"velocity":101,"programNumber":3},{"time":267244.7916666673,"duration":109.375,"noteNumber":63,"velocity":92,"programNumber":3},{"time":267359.37500000064,"duration":130.20833333331393,"noteNumber":59,"velocity":99,"programNumber":3},{"time":267494.79166666727,"duration":119.79166666668607,"noteNumber":64,"velocity":102,"programNumber":3},{"time":267619.79166666727,"duration":119.79166666668607,"noteNumber":59,"velocity":104,"programNumber":3},{"time":267744.79166666727,"duration":119.79166666668607,"noteNumber":63,"velocity":105,"programNumber":3},{"time":267869.79166666727,"duration":119.79166666668607,"noteNumber":59,"velocity":99,"programNumber":3},{"time":267994.79166666727,"duration":119.79166666668607,"noteNumber":71,"velocity":106,"programNumber":3},{"time":267994.79166666727,"duration":125,"noteNumber":59,"velocity":113,"programNumber":3},{"time":268119.79166666727,"duration":109.375,"noteNumber":59,"velocity":101,"programNumber":3},{"time":268244.79166666727,"duration":119.79166666668607,"noteNumber":69,"velocity":104,"programNumber":3},{"time":268369.79166666727,"duration":109.375,"noteNumber":59,"velocity":101,"programNumber":3},{"time":268494.79166666727,"duration":109.375,"noteNumber":68,"velocity":103,"programNumber":3},{"time":268619.79166666727,"duration":104.16666666668607,"noteNumber":59,"velocity":101,"programNumber":3},{"time":268744.79166666727,"duration":114.58333333331393,"noteNumber":69,"velocity":97,"programNumber":3},{"time":268869.79166666727,"duration":119.79166666668607,"noteNumber":59,"velocity":96,"programNumber":3},{"time":268994.79166666727,"duration":119.79166666668607,"noteNumber":68,"velocity":103,"programNumber":3},{"time":269119.79166666727,"duration":119.79166666668607,"noteNumber":59,"velocity":91,"programNumber":3},{"time":269244.79166666727,"duration":109.375,"noteNumber":66,"velocity":101,"programNumber":3},{"time":269364.58333333395,"duration":114.58333333331393,"noteNumber":59,"velocity":101,"programNumber":3},{"time":269494.79166666727,"duration":104.16666666668607,"noteNumber":68,"velocity":101,"programNumber":3},{"time":269614.58333333395,"duration":125,"noteNumber":59,"velocity":99,"programNumber":3},{"time":269744.79166666727,"duration":109.375,"noteNumber":64,"velocity":104,"programNumber":3},{"time":269869.79166666727,"duration":119.79166666668607,"noteNumber":59,"velocity":102,"programNumber":3},{"time":269994.79166666727,"duration":119.79166666668607,"noteNumber":66,"velocity":105,"programNumber":3},{"time":270119.79166666727,"duration":114.58333333331393,"noteNumber":59,"velocity":102,"programNumber":3},{"time":270244.79166666727,"duration":104.16666666668607,"noteNumber":63,"velocity":103,"programNumber":3},{"time":270359.37500000064,"duration":130.20833333331393,"noteNumber":59,"velocity":97,"programNumber":3},{"time":270494.79166666727,"duration":109.375,"noteNumber":64,"velocity":101,"programNumber":3},{"time":270614.58333333395,"duration":114.58333333331393,"noteNumber":59,"velocity":101,"programNumber":3},{"time":270744.79166666727,"duration":109.375,"noteNumber":63,"velocity":97,"programNumber":3},{"time":270864.58333333395,"duration":125,"noteNumber":59,"velocity":97,"programNumber":3},{"time":270994.79166666727,"duration":119.79166666668607,"noteNumber":64,"velocity":102,"programNumber":3},{"time":271119.79166666727,"duration":114.58333333331393,"noteNumber":59,"velocity":101,"programNumber":3},{"time":271244.79166666727,"duration":119.79166666668607,"noteNumber":63,"velocity":92,"programNumber":3},{"time":271369.79166666727,"duration":119.79166666668607,"noteNumber":59,"velocity":99,"programNumber":3},{"time":271494.79166666727,"duration":119.79166666668607,"noteNumber":64,"velocity":102,"programNumber":3},{"time":271619.79166666727,"duration":109.375,"noteNumber":59,"velocity":104,"programNumber":3},{"time":271744.79166666727,"duration":119.79166666668607,"noteNumber":63,"velocity":105,"programNumber":3},{"time":271869.79166666727,"duration":109.375,"noteNumber":59,"velocity":99,"programNumber":3},{"time":271994.79166666727,"duration":119.79166666668607,"noteNumber":71,"velocity":106,"programNumber":3},{"time":271994.79166666727,"duration":125,"noteNumber":59,"velocity":113,"programNumber":3},{"time":272119.79166666727,"duration":119.79166666668607,"noteNumber":59,"velocity":101,"programNumber":3},{"time":272244.79166666727,"duration":119.79166666668607,"noteNumber":69,"velocity":104,"programNumber":3},{"time":272369.79166666727,"duration":119.79166666668607,"noteNumber":59,"velocity":101,"programNumber":3},{"time":272494.79166666727,"duration":119.79166666668607,"noteNumber":68,"velocity":103,"programNumber":3},{"time":272619.79166666727,"duration":109.375,"noteNumber":59,"velocity":101,"programNumber":3},{"time":272744.79166666727,"duration":119.79166666668607,"noteNumber":69,"velocity":97,"programNumber":3},{"time":272869.79166666727,"duration":119.79166666668607,"noteNumber":59,"velocity":96,"programNumber":3},{"time":272994.79166666727,"duration":119.79166666668607,"noteNumber":68,"velocity":103,"programNumber":3},{"time":273119.79166666727,"duration":119.79166666668607,"noteNumber":59,"velocity":91,"programNumber":3},{"time":273244.79166666727,"duration":119.79166666668607,"noteNumber":66,"velocity":101,"programNumber":3},{"time":273369.79166666727,"duration":119.79166666668607,"noteNumber":59,"velocity":101,"programNumber":3},{"time":273494.79166666727,"duration":119.79166666668607,"noteNumber":68,"velocity":101,"programNumber":3},{"time":273619.79166666727,"duration":119.79166666668607,"noteNumber":59,"velocity":99,"programNumber":3},{"time":273744.79166666727,"duration":119.79166666668607,"noteNumber":64,"velocity":104,"programNumber":3},{"time":273869.79166666727,"duration":119.79166666668607,"noteNumber":59,"velocity":102,"programNumber":3},{"time":273994.79166666727,"duration":119.79166666668607,"noteNumber":66,"velocity":105,"programNumber":3},{"time":274119.79166666727,"duration":119.79166666668607,"noteNumber":59,"velocity":102,"programNumber":3},{"time":274244.79166666727,"duration":109.375,"noteNumber":63,"velocity":103,"programNumber":3},{"time":274359.3750000006,"duration":130.20833333331393,"noteNumber":59,"velocity":97,"programNumber":3},{"time":274494.7916666672,"duration":119.79166666668607,"noteNumber":64,"velocity":101,"programNumber":3},{"time":274619.7916666672,"duration":109.375,"noteNumber":59,"velocity":101,"programNumber":3},{"time":274744.7916666672,"duration":119.79166666668607,"noteNumber":63,"velocity":97,"programNumber":3},{"time":274869.7916666672,"duration":109.375,"noteNumber":59,"velocity":97,"programNumber":3},{"time":274994.7916666672,"duration":119.79166666668607,"noteNumber":64,"velocity":102,"programNumber":3},{"time":275119.7916666672,"duration":109.375,"noteNumber":59,"velocity":101,"programNumber":3},{"time":275244.7916666672,"duration":119.79166666668607,"noteNumber":63,"velocity":92,"programNumber":3},{"time":275369.7916666672,"duration":109.375,"noteNumber":59,"velocity":99,"programNumber":3},{"time":275494.7916666672,"duration":114.58333333331393,"noteNumber":64,"velocity":102,"programNumber":3},{"time":275619.7916666672,"duration":109.375,"noteNumber":59,"velocity":104,"programNumber":3},{"time":275744.7916666672,"duration":119.79166666668607,"noteNumber":63,"velocity":105,"programNumber":3},{"time":275869.7916666672,"duration":104.16666666668607,"noteNumber":59,"velocity":99,"programNumber":3},{"time":275994.7916666672,"duration":119.79166666668607,"noteNumber":71,"velocity":106,"programNumber":3},{"time":275994.7916666672,"duration":125,"noteNumber":59,"velocity":113,"programNumber":3},{"time":276119.7916666672,"duration":119.79166666668607,"noteNumber":59,"velocity":101,"programNumber":3},{"time":276244.7916666672,"duration":119.79166666668607,"noteNumber":69,"velocity":104,"programNumber":3},{"time":276369.7916666672,"duration":119.79166666668607,"noteNumber":59,"velocity":101,"programNumber":3},{"time":276494.7916666672,"duration":119.79166666668607,"noteNumber":68,"velocity":103,"programNumber":3},{"time":276619.7916666672,"duration":119.79166666668607,"noteNumber":59,"velocity":101,"programNumber":3},{"time":276744.7916666672,"duration":109.375,"noteNumber":69,"velocity":97,"programNumber":3},{"time":276859.3750000005,"duration":119.79166666668607,"noteNumber":59,"velocity":96,"programNumber":3},{"time":276994.7916666672,"duration":109.375,"noteNumber":68,"velocity":103,"programNumber":3},{"time":277109.3750000005,"duration":114.58333333331393,"noteNumber":59,"velocity":91,"programNumber":3},{"time":277244.79166666715,"duration":109.375,"noteNumber":66,"velocity":101,"programNumber":3},{"time":277359.37500000047,"duration":114.58333333331393,"noteNumber":59,"velocity":101,"programNumber":3},{"time":277494.7916666671,"duration":119.79166666668607,"noteNumber":68,"velocity":101,"programNumber":3},{"time":277619.7916666671,"duration":119.79166666668607,"noteNumber":59,"velocity":99,"programNumber":3},{"time":277744.7916666671,"duration":119.79166666668607,"noteNumber":64,"velocity":104,"programNumber":3},{"time":277869.7916666671,"duration":109.375,"noteNumber":59,"velocity":102,"programNumber":3},{"time":277994.7916666671,"duration":109.375,"noteNumber":66,"velocity":105,"programNumber":3},{"time":278109.3750000004,"duration":119.79166666668607,"noteNumber":59,"velocity":102,"programNumber":3},{"time":278244.7916666671,"duration":109.375,"noteNumber":63,"velocity":103,"programNumber":3},{"time":278359.3750000004,"duration":130.20833333331393,"noteNumber":59,"velocity":97,"programNumber":3},{"time":278494.79166666704,"duration":119.79166666668607,"noteNumber":64,"velocity":101,"programNumber":3},{"time":278619.79166666704,"duration":119.79166666668607,"noteNumber":59,"velocity":101,"programNumber":3},{"time":278744.79166666704,"duration":119.79166666668607,"noteNumber":63,"velocity":97,"programNumber":3},{"time":278869.79166666704,"duration":119.79166666668607,"noteNumber":59,"velocity":97,"programNumber":3},{"time":278994.79166666704,"duration":119.79166666668607,"noteNumber":64,"velocity":102,"programNumber":3},{"time":279119.79166666704,"duration":119.79166666668607,"noteNumber":59,"velocity":101,"programNumber":3},{"time":279244.79166666704,"duration":119.79166666668607,"noteNumber":63,"velocity":92,"programNumber":3},{"time":279369.79166666704,"duration":119.79166666668607,"noteNumber":59,"velocity":99,"programNumber":3},{"time":279494.79166666704,"duration":119.79166666668607,"noteNumber":64,"velocity":102,"programNumber":3},{"time":279619.79166666704,"duration":119.79166666668607,"noteNumber":59,"velocity":104,"programNumber":3},{"time":279744.79166666704,"duration":119.79166666668607,"noteNumber":63,"velocity":105,"programNumber":3},{"time":279869.79166666704,"duration":119.79166666668607,"noteNumber":59,"velocity":99,"programNumber":3},{"time":279994.79166666704,"duration":119.79166666662786,"noteNumber":71,"velocity":106,"programNumber":3},{"time":280000.00000000035,"duration":119.79166666662786,"noteNumber":59,"velocity":106,"programNumber":3},{"time":280119.791666667,"duration":119.79166666668607,"noteNumber":59,"velocity":101,"programNumber":3},{"time":280244.791666667,"duration":119.79166666668607,"noteNumber":69,"velocity":104,"programNumber":3},{"time":280369.791666667,"duration":119.79166666668607,"noteNumber":59,"velocity":101,"programNumber":3},{"time":280494.791666667,"duration":119.79166666668607,"noteNumber":68,"velocity":103,"programNumber":3},{"time":280619.791666667,"duration":119.79166666668607,"noteNumber":59,"velocity":101,"programNumber":3},{"time":280744.791666667,"duration":119.79166666668607,"noteNumber":69,"velocity":97,"programNumber":3},{"time":280869.791666667,"duration":119.79166666668607,"noteNumber":59,"velocity":96,"programNumber":3},{"time":280994.791666667,"duration":119.79166666668607,"noteNumber":68,"velocity":103,"programNumber":3},{"time":281119.791666667,"duration":119.79166666668607,"noteNumber":59,"velocity":91,"programNumber":3},{"time":281244.791666667,"duration":119.79166666668607,"noteNumber":66,"velocity":101,"programNumber":3},{"time":281369.791666667,"duration":119.79166666668607,"noteNumber":59,"velocity":101,"programNumber":3},{"time":281494.791666667,"duration":119.79166666668607,"noteNumber":68,"velocity":101,"programNumber":3},{"time":281619.791666667,"duration":119.79166666668607,"noteNumber":59,"velocity":99,"programNumber":3},{"time":281744.791666667,"duration":119.79166666668607,"noteNumber":64,"velocity":104,"programNumber":3},{"time":281869.791666667,"duration":119.79166666668607,"noteNumber":59,"velocity":102,"programNumber":3},{"time":281994.791666667,"duration":119.79166666668607,"noteNumber":66,"velocity":105,"programNumber":3},{"time":282119.791666667,"duration":119.79166666668607,"noteNumber":59,"velocity":102,"programNumber":3},{"time":282244.791666667,"duration":119.79166666668607,"noteNumber":63,"velocity":103,"programNumber":3},{"time":282369.791666667,"duration":119.79166666668607,"noteNumber":59,"velocity":97,"programNumber":3},{"time":282494.791666667,"duration":119.79166666668607,"noteNumber":64,"velocity":101,"programNumber":3},{"time":282619.791666667,"duration":119.79166666668607,"noteNumber":59,"velocity":101,"programNumber":3},{"time":282744.791666667,"duration":119.79166666668607,"noteNumber":63,"velocity":97,"programNumber":3},{"time":282869.791666667,"duration":119.79166666668607,"noteNumber":59,"velocity":97,"programNumber":3},{"time":282994.791666667,"duration":119.79166666668607,"noteNumber":64,"velocity":102,"programNumber":3},{"time":283119.791666667,"duration":119.79166666668607,"noteNumber":59,"velocity":101,"programNumber":3},{"time":283244.791666667,"duration":119.79166666668607,"noteNumber":63,"velocity":92,"programNumber":3},{"time":283369.791666667,"duration":119.79166666668607,"noteNumber":59,"velocity":99,"programNumber":3},{"time":283494.791666667,"duration":109.375,"noteNumber":64,"velocity":102,"programNumber":3},{"time":283609.3750000003,"duration":130.20833333331393,"noteNumber":59,"velocity":104,"programNumber":3},{"time":283744.7916666669,"duration":119.79166666668607,"noteNumber":63,"velocity":105,"programNumber":3},{"time":283869.7916666669,"duration":119.79166666668607,"noteNumber":59,"velocity":99,"programNumber":3},{"time":283994.7916666669,"duration":119.79166666662786,"noteNumber":71,"velocity":106,"programNumber":3},{"time":284000.00000000023,"duration":119.79166666662786,"noteNumber":59,"velocity":106,"programNumber":3},{"time":284119.79166666686,"duration":119.79166666668607,"noteNumber":59,"velocity":101,"programNumber":3},{"time":284244.79166666686,"duration":119.79166666668607,"noteNumber":69,"velocity":104,"programNumber":3},{"time":284369.79166666686,"duration":119.79166666668607,"noteNumber":59,"velocity":101,"programNumber":3},{"time":284494.79166666686,"duration":119.79166666668607,"noteNumber":68,"velocity":103,"programNumber":3},{"time":284619.79166666686,"duration":119.79166666668607,"noteNumber":59,"velocity":101,"programNumber":3},{"time":284744.79166666686,"duration":109.375,"noteNumber":69,"velocity":97,"programNumber":3},{"time":284869.79166666686,"duration":119.79166666668607,"noteNumber":59,"velocity":96,"programNumber":3},{"time":284994.79166666686,"duration":119.79166666668607,"noteNumber":68,"velocity":103,"programNumber":3},{"time":285119.79166666686,"duration":119.79166666668607,"noteNumber":59,"velocity":91,"programNumber":3},{"time":285244.79166666686,"duration":119.79166666668607,"noteNumber":66,"velocity":101,"programNumber":3},{"time":285369.79166666686,"duration":119.79166666668607,"noteNumber":59,"velocity":101,"programNumber":3},{"time":285494.79166666686,"duration":114.58333333331393,"noteNumber":68,"velocity":101,"programNumber":3},{"time":285619.79166666686,"duration":119.79166666668607,"noteNumber":59,"velocity":99,"programNumber":3},{"time":285744.79166666686,"duration":114.58333333331393,"noteNumber":64,"velocity":104,"programNumber":3},{"time":285869.79166666686,"duration":119.79166666668607,"noteNumber":59,"velocity":102,"programNumber":3},{"time":285994.79166666686,"duration":114.58333333331393,"noteNumber":66,"velocity":105,"programNumber":3},{"time":286119.79166666686,"duration":119.79166666668607,"noteNumber":59,"velocity":102,"programNumber":3},{"time":286244.79166666686,"duration":114.58333333331393,"noteNumber":63,"velocity":103,"programNumber":3},{"time":286369.79166666686,"duration":119.79166666668607,"noteNumber":59,"velocity":97,"programNumber":3},{"time":286494.79166666686,"duration":119.79166666668607,"noteNumber":64,"velocity":101,"programNumber":3},{"time":286619.79166666686,"duration":119.79166666668607,"noteNumber":59,"velocity":101,"programNumber":3},{"time":286744.79166666686,"duration":119.79166666668607,"noteNumber":63,"velocity":97,"programNumber":3},{"time":286869.79166666686,"duration":119.79166666668607,"noteNumber":59,"velocity":97,"programNumber":3},{"time":286994.79166666686,"duration":119.79166666668607,"noteNumber":64,"velocity":102,"programNumber":3},{"time":287119.79166666686,"duration":119.79166666668607,"noteNumber":59,"velocity":101,"programNumber":3},{"time":287244.79166666686,"duration":119.79166666668607,"noteNumber":63,"velocity":92,"programNumber":3},{"time":287369.79166666686,"duration":119.79166666668607,"noteNumber":59,"velocity":99,"programNumber":3},{"time":287494.79166666686,"duration":119.79166666668607,"noteNumber":64,"velocity":102,"programNumber":3},{"time":287619.79166666686,"duration":119.79166666668607,"noteNumber":59,"velocity":104,"programNumber":3},{"time":287744.79166666686,"duration":119.79166666668607,"noteNumber":63,"velocity":105,"programNumber":3},{"time":287869.79166666686,"duration":119.79166666668607,"noteNumber":59,"velocity":99,"programNumber":3},{"time":287994.79166666686,"duration":119.79166666668607,"noteNumber":71,"velocity":106,"programNumber":3},{"time":287994.79166666686,"duration":125,"noteNumber":59,"velocity":106,"programNumber":3},{"time":288119.79166666686,"duration":119.79166666668607,"noteNumber":59,"velocity":101,"programNumber":3},{"time":288244.79166666686,"duration":119.79166666668607,"noteNumber":69,"velocity":104,"programNumber":3},{"time":288369.79166666686,"duration":119.79166666668607,"noteNumber":59,"velocity":101,"programNumber":3},{"time":288494.79166666686,"duration":119.79166666668607,"noteNumber":68,"velocity":103,"programNumber":3},{"time":288619.79166666686,"duration":119.79166666668607,"noteNumber":59,"velocity":101,"programNumber":3},{"time":288744.79166666686,"duration":119.79166666668607,"noteNumber":69,"velocity":97,"programNumber":3},{"time":288869.79166666686,"duration":109.375,"noteNumber":59,"velocity":96,"programNumber":3},{"time":288994.79166666686,"duration":109.375,"noteNumber":68,"velocity":103,"programNumber":3},{"time":289114.58333333355,"duration":125,"noteNumber":59,"velocity":91,"programNumber":3},{"time":289244.79166666686,"duration":109.375,"noteNumber":66,"velocity":101,"programNumber":3},{"time":289359.3750000002,"duration":130.20833333331393,"noteNumber":59,"velocity":101,"programNumber":3},{"time":289494.7916666668,"duration":104.16666666668607,"noteNumber":68,"velocity":101,"programNumber":3},{"time":289609.3750000002,"duration":119.79166666668607,"noteNumber":59,"velocity":99,"programNumber":3},{"time":289744.79166666686,"duration":104.16666666668607,"noteNumber":64,"velocity":104,"programNumber":3},{"time":289859.37500000023,"duration":130.20833333331393,"noteNumber":59,"velocity":102,"programNumber":3},{"time":289994.79166666686,"duration":109.375,"noteNumber":66,"velocity":105,"programNumber":3},{"time":290119.79166666686,"duration":119.79166666668607,"noteNumber":59,"velocity":102,"programNumber":3},{"time":290244.79166666686,"duration":114.58333333331393,"noteNumber":63,"velocity":103,"programNumber":3},{"time":290369.79166666686,"duration":109.375,"noteNumber":59,"velocity":97,"programNumber":3},{"time":290494.79166666686,"duration":119.79166666668607,"noteNumber":64,"velocity":101,"programNumber":3},{"time":290619.79166666686,"duration":119.79166666668607,"noteNumber":59,"velocity":101,"programNumber":3},{"time":290744.79166666686,"duration":119.79166666668607,"noteNumber":63,"velocity":97,"programNumber":3},{"time":290869.79166666686,"duration":119.79166666668607,"noteNumber":59,"velocity":97,"programNumber":3},{"time":290994.79166666686,"duration":119.79166666668607,"noteNumber":64,"velocity":102,"programNumber":3},{"time":291119.79166666686,"duration":119.79166666668607,"noteNumber":59,"velocity":101,"programNumber":3},{"time":291244.79166666686,"duration":119.79166666668607,"noteNumber":63,"velocity":92,"programNumber":3},{"time":291369.79166666686,"duration":119.79166666668607,"noteNumber":59,"velocity":99,"programNumber":3},{"time":291494.79166666686,"duration":119.79166666668607,"noteNumber":64,"velocity":102,"programNumber":3},{"time":291619.79166666686,"duration":119.79166666668607,"noteNumber":59,"velocity":104,"programNumber":3},{"time":291744.79166666686,"duration":119.79166666668607,"noteNumber":63,"velocity":105,"programNumber":3},{"time":291869.79166666686,"duration":109.375,"noteNumber":59,"velocity":99,"programNumber":3},{"time":291994.79166666686,"duration":119.79166666668607,"noteNumber":71,"velocity":106,"programNumber":3},{"time":291994.79166666686,"duration":125,"noteNumber":59,"velocity":106,"programNumber":3},{"time":292119.79166666686,"duration":109.375,"noteNumber":59,"velocity":101,"programNumber":3},{"time":292244.79166666686,"duration":109.375,"noteNumber":69,"velocity":104,"programNumber":3},{"time":292359.3750000002,"duration":119.79166666668607,"noteNumber":59,"velocity":101,"programNumber":3},{"time":292494.79166666686,"duration":109.375,"noteNumber":68,"velocity":103,"programNumber":3},{"time":292609.3750000002,"duration":114.58333333331393,"noteNumber":59,"velocity":101,"programNumber":3},{"time":292744.7916666668,"duration":109.375,"noteNumber":69,"velocity":97,"programNumber":3},{"time":292859.3750000001,"duration":114.58333333331393,"noteNumber":59,"velocity":96,"programNumber":3},{"time":292994.79166666674,"duration":109.375,"noteNumber":68,"velocity":103,"programNumber":3},{"time":293109.37500000006,"duration":130.20833333331393,"noteNumber":59,"velocity":91,"programNumber":3},{"time":293244.7916666667,"duration":119.79166666668607,"noteNumber":66,"velocity":101,"programNumber":3},{"time":293369.7916666667,"duration":119.79166666668607,"noteNumber":59,"velocity":101,"programNumber":3},{"time":293494.7916666667,"duration":119.79166666668607,"noteNumber":68,"velocity":101,"programNumber":3},{"time":293619.7916666667,"duration":119.79166666668607,"noteNumber":59,"velocity":99,"programNumber":3},{"time":293744.7916666667,"duration":119.79166666668607,"noteNumber":64,"velocity":104,"programNumber":3},{"time":293869.7916666667,"duration":119.79166666668607,"noteNumber":59,"velocity":102,"programNumber":3},{"time":293994.7916666667,"duration":119.79166666668607,"noteNumber":66,"velocity":105,"programNumber":3},{"time":294119.7916666667,"duration":119.79166666668607,"noteNumber":59,"velocity":102,"programNumber":3},{"time":294244.7916666667,"duration":119.79166666668607,"noteNumber":63,"velocity":103,"programNumber":3},{"time":294369.7916666667,"duration":119.79166666668607,"noteNumber":59,"velocity":97,"programNumber":3},{"time":294494.7916666667,"duration":119.79166666668607,"noteNumber":64,"velocity":101,"programNumber":3},{"time":294619.7916666667,"duration":119.79166666668607,"noteNumber":59,"velocity":101,"programNumber":3},{"time":294744.7916666667,"duration":119.79166666668607,"noteNumber":63,"velocity":97,"programNumber":3},{"time":294869.7916666667,"duration":119.79166666668607,"noteNumber":59,"velocity":97,"programNumber":3},{"time":294994.7916666667,"duration":119.79166666668607,"noteNumber":64,"velocity":102,"programNumber":3},{"time":295119.7916666667,"duration":119.79166666668607,"noteNumber":59,"velocity":101,"programNumber":3},{"time":295244.7916666667,"duration":119.79166666668607,"noteNumber":63,"velocity":92,"programNumber":3},{"time":295369.7916666667,"duration":119.79166666668607,"noteNumber":59,"velocity":99,"programNumber":3},{"time":295494.7916666667,"duration":119.79166666668607,"noteNumber":64,"velocity":102,"programNumber":3},{"time":295619.7916666667,"duration":119.79166666668607,"noteNumber":59,"velocity":104,"programNumber":3},{"time":295744.7916666667,"duration":119.79166666668607,"noteNumber":63,"velocity":105,"programNumber":3},{"time":295869.7916666667,"duration":119.79166666668607,"noteNumber":59,"velocity":99,"programNumber":3},{"time":295994.7916666667,"duration":119.79166666662786,"noteNumber":71,"velocity":106,"programNumber":3},{"time":296000,"duration":119.79166666662786,"noteNumber":59,"velocity":106,"programNumber":3},{"time":296119.7916666666,"duration":119.79166666668607,"noteNumber":59,"velocity":101,"programNumber":3},{"time":296244.7916666666,"duration":119.79166666668607,"noteNumber":69,"velocity":104,"programNumber":3},{"time":296369.7916666666,"duration":119.79166666668607,"noteNumber":59,"velocity":101,"programNumber":3},{"time":296494.7916666666,"duration":119.79166666668607,"noteNumber":68,"velocity":103,"programNumber":3},{"time":296619.7916666666,"duration":119.79166666668607,"noteNumber":59,"velocity":101,"programNumber":3},{"time":296744.7916666666,"duration":119.79166666668607,"noteNumber":69,"velocity":97,"programNumber":3},{"time":296869.7916666666,"duration":119.79166666668607,"noteNumber":59,"velocity":96,"programNumber":3},{"time":296994.7916666666,"duration":119.79166666668607,"noteNumber":68,"velocity":103,"programNumber":3},{"time":297119.7916666666,"duration":119.79166666668607,"noteNumber":59,"velocity":91,"programNumber":3},{"time":297244.7916666666,"duration":119.79166666668607,"noteNumber":66,"velocity":101,"programNumber":3},{"time":297369.7916666666,"duration":119.79166666668607,"noteNumber":59,"velocity":101,"programNumber":3},{"time":297494.7916666666,"duration":119.79166666668607,"noteNumber":68,"velocity":101,"programNumber":3},{"time":297619.7916666666,"duration":119.79166666668607,"noteNumber":59,"velocity":99,"programNumber":3},{"time":297744.7916666666,"duration":119.79166666668607,"noteNumber":64,"velocity":104,"programNumber":3},{"time":297869.7916666666,"duration":119.79166666668607,"noteNumber":59,"velocity":102,"programNumber":3},{"time":297994.7916666666,"duration":119.79166666668607,"noteNumber":66,"velocity":105,"programNumber":3},{"time":298119.7916666666,"duration":119.79166666668607,"noteNumber":59,"velocity":102,"programNumber":3},{"time":298244.7916666666,"duration":119.79166666668607,"noteNumber":63,"velocity":103,"programNumber":3},{"time":298369.7916666666,"duration":119.79166666668607,"noteNumber":59,"velocity":97,"programNumber":3},{"time":298494.7916666666,"duration":119.79166666668607,"noteNumber":64,"velocity":101,"programNumber":3},{"time":298619.7916666666,"duration":109.375,"noteNumber":59,"velocity":101,"programNumber":3},{"time":298744.7916666666,"duration":119.79166666668607,"noteNumber":63,"velocity":97,"programNumber":3},{"time":298869.7916666666,"duration":109.375,"noteNumber":59,"velocity":97,"programNumber":3},{"time":298994.7916666666,"duration":119.79166666668607,"noteNumber":64,"velocity":102,"programNumber":3},{"time":299119.7916666666,"duration":109.375,"noteNumber":59,"velocity":101,"programNumber":3},{"time":299244.7916666666,"duration":119.79166666668607,"noteNumber":63,"velocity":92,"programNumber":3},{"time":299369.7916666666,"duration":109.375,"noteNumber":59,"velocity":99,"programNumber":3},{"time":299494.7916666666,"duration":109.375,"noteNumber":64,"velocity":102,"programNumber":3},{"time":299609.37499999994,"duration":119.79166666668607,"noteNumber":59,"velocity":104,"programNumber":3},{"time":299744.7916666666,"duration":109.375,"noteNumber":63,"velocity":105,"programNumber":3},{"time":299859.37499999994,"duration":114.58333333331393,"noteNumber":59,"velocity":99,"programNumber":3},{"time":299994.79166666657,"duration":119.79166666662786,"noteNumber":71,"velocity":106,"programNumber":3},{"time":299999.9999999999,"duration":119.79166666662786,"noteNumber":59,"velocity":106,"programNumber":3},{"time":300119.7916666665,"duration":114.58333333331393,"noteNumber":59,"velocity":101,"programNumber":3},{"time":300244.7916666665,"duration":119.79166666668607,"noteNumber":69,"velocity":104,"programNumber":3},{"time":300369.7916666665,"duration":119.79166666668607,"noteNumber":59,"velocity":101,"programNumber":3},{"time":300494.7916666665,"duration":119.79166666668607,"noteNumber":68,"velocity":103,"programNumber":3},{"time":300619.7916666665,"duration":114.58333333331393,"noteNumber":59,"velocity":101,"programNumber":3},{"time":300744.7916666665,"duration":114.58333333331393,"noteNumber":69,"velocity":97,"programNumber":3},{"time":300869.7916666665,"duration":119.79166666668607,"noteNumber":59,"velocity":96,"programNumber":3},{"time":300994.7916666665,"duration":119.79166666668607,"noteNumber":68,"velocity":103,"programNumber":3},{"time":301119.7916666665,"duration":119.79166666668607,"noteNumber":59,"velocity":91,"programNumber":3},{"time":301244.7916666665,"duration":119.79166666668607,"noteNumber":66,"velocity":101,"programNumber":3},{"time":301369.7916666665,"duration":119.79166666668607,"noteNumber":59,"velocity":101,"programNumber":3},{"time":301494.7916666665,"duration":119.79166666668607,"noteNumber":68,"velocity":101,"programNumber":3},{"time":301619.7916666665,"duration":119.79166666668607,"noteNumber":59,"velocity":99,"programNumber":3},{"time":301744.7916666665,"duration":119.79166666668607,"noteNumber":64,"velocity":104,"programNumber":3},{"time":301869.7916666665,"duration":119.79166666668607,"noteNumber":59,"velocity":102,"programNumber":3},{"time":301994.7916666665,"duration":119.79166666668607,"noteNumber":66,"velocity":105,"programNumber":3},{"time":302119.7916666665,"duration":119.79166666668607,"noteNumber":59,"velocity":102,"programNumber":3},{"time":302244.7916666665,"duration":119.79166666668607,"noteNumber":63,"velocity":103,"programNumber":3},{"time":302369.7916666665,"duration":119.79166666668607,"noteNumber":59,"velocity":97,"programNumber":3},{"time":302494.7916666665,"duration":119.79166666668607,"noteNumber":64,"velocity":101,"programNumber":3},{"time":302619.7916666665,"duration":119.79166666668607,"noteNumber":59,"velocity":101,"programNumber":3},{"time":302744.7916666665,"duration":119.79166666668607,"noteNumber":63,"velocity":97,"programNumber":3},{"time":302869.7916666665,"duration":119.79166666668607,"noteNumber":59,"velocity":97,"programNumber":3},{"time":302994.7916666665,"duration":119.79166666668607,"noteNumber":64,"velocity":102,"programNumber":3},{"time":303119.7916666665,"duration":119.79166666668607,"noteNumber":59,"velocity":101,"programNumber":3},{"time":303244.7916666665,"duration":119.79166666668607,"noteNumber":63,"velocity":92,"programNumber":3},{"time":303369.7916666665,"duration":119.79166666668607,"noteNumber":59,"velocity":99,"programNumber":3},{"time":303494.7916666665,"duration":119.79166666668607,"noteNumber":64,"velocity":102,"programNumber":3},{"time":303619.7916666665,"duration":119.79166666668607,"noteNumber":59,"velocity":104,"programNumber":3},{"time":303744.7916666665,"duration":119.79166666668607,"noteNumber":63,"velocity":105,"programNumber":3},{"time":303869.7916666665,"duration":119.79166666668607,"noteNumber":59,"velocity":99,"programNumber":3},{"time":303994.7916666665,"duration":109.375,"noteNumber":71,"velocity":106,"programNumber":3},{"time":303994.7916666665,"duration":119.79166666668607,"noteNumber":59,"velocity":106,"programNumber":3},{"time":304114.5833333332,"duration":109.375,"noteNumber":59,"velocity":101,"programNumber":3},{"time":304244.7916666665,"duration":119.79166666668607,"noteNumber":69,"velocity":104,"programNumber":3},{"time":304369.7916666665,"duration":119.79166666668607,"noteNumber":59,"velocity":101,"programNumber":3},{"time":304494.7916666665,"duration":119.79166666668607,"noteNumber":68,"velocity":103,"programNumber":3},{"time":304619.7916666665,"duration":109.375,"noteNumber":59,"velocity":101,"programNumber":3},{"time":304744.7916666665,"duration":109.375,"noteNumber":69,"velocity":97,"programNumber":3},{"time":304869.7916666665,"duration":114.58333333331393,"noteNumber":59,"velocity":96,"programNumber":3},{"time":304994.7916666665,"duration":109.375,"noteNumber":68,"velocity":103,"programNumber":3},{"time":305114.5833333332,"duration":114.58333333331393,"noteNumber":59,"velocity":91,"programNumber":3},{"time":305244.7916666665,"duration":119.79166666668607,"noteNumber":66,"velocity":101,"programNumber":3},{"time":305369.7916666665,"duration":119.79166666668607,"noteNumber":59,"velocity":101,"programNumber":3},{"time":305494.7916666665,"duration":119.79166666668607,"noteNumber":68,"velocity":101,"programNumber":3},{"time":305619.7916666665,"duration":109.375,"noteNumber":59,"velocity":99,"programNumber":3},{"time":305744.7916666665,"duration":109.375,"noteNumber":64,"velocity":104,"programNumber":3},{"time":305864.5833333332,"duration":114.58333333331393,"noteNumber":59,"velocity":102,"programNumber":3},{"time":305994.7916666665,"duration":119.79166666668607,"noteNumber":66,"velocity":105,"programNumber":3},{"time":306119.7916666665,"duration":119.79166666668607,"noteNumber":59,"velocity":102,"programNumber":3},{"time":306244.7916666665,"duration":119.79166666668607,"noteNumber":63,"velocity":103,"programNumber":3},{"time":306369.7916666665,"duration":119.79166666668607,"noteNumber":59,"velocity":97,"programNumber":3},{"time":306494.7916666665,"duration":119.79166666668607,"noteNumber":64,"velocity":101,"programNumber":3},{"time":306619.7916666665,"duration":119.79166666668607,"noteNumber":59,"velocity":101,"programNumber":3},{"time":306744.7916666665,"duration":109.375,"noteNumber":63,"velocity":97,"programNumber":3},{"time":306864.5833333332,"duration":109.375,"noteNumber":59,"velocity":97,"programNumber":3},{"time":306994.7916666665,"duration":109.375,"noteNumber":64,"velocity":102,"programNumber":3},{"time":307109.3749999998,"duration":119.79166666668607,"noteNumber":59,"velocity":101,"programNumber":3},{"time":307244.7916666665,"duration":119.79166666668607,"noteNumber":63,"velocity":92,"programNumber":3},{"time":307369.7916666665,"duration":119.79166666668607,"noteNumber":59,"velocity":99,"programNumber":3},{"time":307494.7916666665,"duration":119.79166666668607,"noteNumber":64,"velocity":102,"programNumber":3},{"time":307619.7916666665,"duration":114.58333333331393,"noteNumber":59,"velocity":104,"programNumber":3},{"time":307744.7916666665,"duration":119.79166666668607,"noteNumber":63,"velocity":105,"programNumber":3},{"time":307869.7916666665,"duration":119.79166666668607,"noteNumber":59,"velocity":99,"programNumber":3},{"time":307994.7916666665,"duration":119.79166666668607,"noteNumber":71,"velocity":106,"programNumber":3},{"time":307994.7916666665,"duration":125,"noteNumber":59,"velocity":106,"programNumber":3},{"time":308119.7916666665,"duration":119.79166666668607,"noteNumber":59,"velocity":101,"programNumber":3},{"time":308244.7916666665,"duration":119.79166666668607,"noteNumber":69,"velocity":104,"programNumber":3},{"time":308369.7916666665,"duration":119.79166666668607,"noteNumber":59,"velocity":101,"programNumber":3},{"time":308494.7916666665,"duration":119.79166666668607,"noteNumber":68,"velocity":103,"programNumber":3},{"time":308619.7916666665,"duration":119.79166666668607,"noteNumber":59,"velocity":101,"programNumber":3},{"time":308744.7916666665,"duration":119.79166666668607,"noteNumber":69,"velocity":97,"programNumber":3},{"time":308869.7916666665,"duration":109.375,"noteNumber":59,"velocity":96,"programNumber":3},{"time":308994.7916666665,"duration":109.375,"noteNumber":68,"velocity":103,"programNumber":3},{"time":309109.3749999998,"duration":130.20833333331393,"noteNumber":59,"velocity":91,"programNumber":3},{"time":309244.79166666645,"duration":119.79166666668607,"noteNumber":66,"velocity":101,"programNumber":3},{"time":309369.79166666645,"duration":119.79166666668607,"noteNumber":59,"velocity":101,"programNumber":3},{"time":309494.79166666645,"duration":109.375,"noteNumber":68,"velocity":101,"programNumber":3},{"time":309609.37499999977,"duration":130.20833333331393,"noteNumber":59,"velocity":99,"programNumber":3},{"time":309744.7916666664,"duration":104.16666666668607,"noteNumber":64,"velocity":104,"programNumber":3},{"time":309859.37499999977,"duration":130.20833333331393,"noteNumber":59,"velocity":102,"programNumber":3},{"time":309994.7916666664,"duration":119.79166666668607,"noteNumber":66,"velocity":105,"programNumber":3},{"time":310119.7916666664,"duration":119.79166666668607,"noteNumber":59,"velocity":102,"programNumber":3},{"time":310244.7916666664,"duration":109.375,"noteNumber":63,"velocity":103,"programNumber":3},{"time":310359.3749999997,"duration":130.20833333331393,"noteNumber":59,"velocity":97,"programNumber":3},{"time":310494.79166666634,"duration":119.79166666668607,"noteNumber":64,"velocity":101,"programNumber":3},{"time":310619.79166666634,"duration":119.79166666668607,"noteNumber":59,"velocity":101,"programNumber":3},{"time":310744.79166666634,"duration":119.79166666668607,"noteNumber":63,"velocity":97,"programNumber":3},{"time":310869.79166666634,"duration":119.79166666668607,"noteNumber":59,"velocity":97,"programNumber":3},{"time":310994.79166666634,"duration":119.79166666668607,"noteNumber":64,"velocity":102,"programNumber":3},{"time":311119.79166666634,"duration":119.79166666668607,"noteNumber":59,"velocity":101,"programNumber":3},{"time":311244.79166666634,"duration":119.79166666668607,"noteNumber":63,"velocity":92,"programNumber":3},{"time":311369.79166666634,"duration":119.79166666668607,"noteNumber":59,"velocity":99,"programNumber":3},{"time":311494.79166666634,"duration":119.79166666668607,"noteNumber":64,"velocity":102,"programNumber":3},{"time":311619.79166666634,"duration":119.79166666668607,"noteNumber":59,"velocity":104,"programNumber":3},{"time":311744.79166666634,"duration":119.79166666668607,"noteNumber":63,"velocity":105,"programNumber":3},{"time":311869.79166666634,"duration":119.79166666668607,"noteNumber":59,"velocity":99,"programNumber":3},{"time":311994.79166666634,"duration":109.375,"noteNumber":71,"velocity":106,"programNumber":3},{"time":311994.79166666634,"duration":125,"noteNumber":59,"velocity":108,"programNumber":3},{"time":312119.79166666634,"duration":119.79166666668607,"noteNumber":59,"velocity":101,"programNumber":3},{"time":312244.79166666634,"duration":119.79166666668607,"noteNumber":69,"velocity":104,"programNumber":3},{"time":312369.79166666634,"duration":109.375,"noteNumber":59,"velocity":101,"programNumber":3},{"time":312494.79166666634,"duration":119.79166666668607,"noteNumber":68,"velocity":103,"programNumber":3},{"time":312619.79166666634,"duration":119.79166666668607,"noteNumber":59,"velocity":101,"programNumber":3},{"time":312744.79166666634,"duration":119.79166666668607,"noteNumber":69,"velocity":97,"programNumber":3},{"time":312869.79166666634,"duration":119.79166666668607,"noteNumber":59,"velocity":96,"programNumber":3},{"time":312994.79166666634,"duration":119.79166666668607,"noteNumber":68,"velocity":103,"programNumber":3},{"time":313119.79166666634,"duration":119.79166666668607,"noteNumber":59,"velocity":91,"programNumber":3},{"time":313244.79166666634,"duration":119.79166666668607,"noteNumber":66,"velocity":101,"programNumber":3},{"time":313369.79166666634,"duration":119.79166666668607,"noteNumber":59,"velocity":101,"programNumber":3},{"time":313494.79166666634,"duration":119.79166666668607,"noteNumber":68,"velocity":101,"programNumber":3},{"time":313619.79166666634,"duration":119.79166666668607,"noteNumber":59,"velocity":99,"programNumber":3},{"time":313744.79166666634,"duration":119.79166666668607,"noteNumber":64,"velocity":104,"programNumber":3},{"time":313869.79166666634,"duration":119.79166666668607,"noteNumber":59,"velocity":102,"programNumber":3},{"time":313994.79166666634,"duration":119.79166666668607,"noteNumber":66,"velocity":105,"programNumber":3},{"time":314119.79166666634,"duration":119.79166666668607,"noteNumber":59,"velocity":102,"programNumber":3},{"time":314244.79166666634,"duration":119.79166666668607,"noteNumber":63,"velocity":103,"programNumber":3},{"time":314369.79166666634,"duration":119.79166666668607,"noteNumber":59,"velocity":97,"programNumber":3},{"time":314494.79166666634,"duration":119.79166666668607,"noteNumber":64,"velocity":101,"programNumber":3},{"time":314619.79166666634,"duration":119.79166666668607,"noteNumber":59,"velocity":101,"programNumber":3},{"time":314744.79166666634,"duration":119.79166666668607,"noteNumber":63,"velocity":97,"programNumber":3},{"time":314869.79166666634,"duration":119.79166666668607,"noteNumber":59,"velocity":97,"programNumber":3},{"time":314994.79166666634,"duration":119.79166666668607,"noteNumber":64,"velocity":102,"programNumber":3},{"time":315119.79166666634,"duration":119.79166666668607,"noteNumber":59,"velocity":101,"programNumber":3},{"time":315244.79166666634,"duration":119.79166666668607,"noteNumber":63,"velocity":92,"programNumber":3},{"time":315369.79166666634,"duration":119.79166666668607,"noteNumber":59,"velocity":99,"programNumber":3},{"time":315494.79166666634,"duration":119.79166666668607,"noteNumber":64,"velocity":102,"programNumber":3},{"time":315619.79166666634,"duration":119.79166666668607,"noteNumber":59,"velocity":104,"programNumber":3},{"time":315744.79166666634,"duration":119.79166666668607,"noteNumber":63,"velocity":105,"programNumber":3},{"time":315869.79166666634,"duration":119.79166666668607,"noteNumber":59,"velocity":99,"programNumber":3},{"time":315999.9999999997,"duration":114.58333333331393,"noteNumber":71,"velocity":106,"programNumber":3},{"time":315999.9999999997,"duration":119.79166666662786,"noteNumber":59,"velocity":108,"programNumber":3},{"time":316119.79166666634,"duration":119.79166666668607,"noteNumber":59,"velocity":101,"programNumber":3},{"time":316244.79166666634,"duration":119.79166666668607,"noteNumber":69,"velocity":104,"programNumber":3},{"time":316369.79166666634,"duration":119.79166666668607,"noteNumber":59,"velocity":101,"programNumber":3},{"time":316494.79166666634,"duration":119.79166666668607,"noteNumber":68,"velocity":103,"programNumber":3},{"time":316619.79166666634,"duration":119.79166666668607,"noteNumber":59,"velocity":101,"programNumber":3},{"time":316744.79166666634,"duration":119.79166666668607,"noteNumber":69,"velocity":97,"programNumber":3},{"time":316869.79166666634,"duration":119.79166666668607,"noteNumber":59,"velocity":96,"programNumber":3},{"time":316994.79166666634,"duration":119.79166666668607,"noteNumber":68,"velocity":103,"programNumber":3},{"time":317119.79166666634,"duration":119.79166666668607,"noteNumber":59,"velocity":91,"programNumber":3},{"time":317244.79166666634,"duration":119.79166666668607,"noteNumber":66,"velocity":101,"programNumber":3},{"time":317369.79166666634,"duration":119.79166666668607,"noteNumber":59,"velocity":101,"programNumber":3},{"time":317494.79166666634,"duration":119.79166666668607,"noteNumber":68,"velocity":101,"programNumber":3},{"time":317619.79166666634,"duration":119.79166666668607,"noteNumber":59,"velocity":99,"programNumber":3},{"time":317744.79166666634,"duration":119.79166666668607,"noteNumber":64,"velocity":104,"programNumber":3},{"time":317869.79166666634,"duration":114.58333333331393,"noteNumber":59,"velocity":102,"programNumber":3},{"time":317994.79166666634,"duration":119.79166666668607,"noteNumber":66,"velocity":105,"programNumber":3},{"time":318119.79166666634,"duration":119.79166666668607,"noteNumber":59,"velocity":102,"programNumber":3},{"time":318244.79166666634,"duration":119.79166666668607,"noteNumber":63,"velocity":103,"programNumber":3},{"time":318369.79166666634,"duration":119.79166666668607,"noteNumber":59,"velocity":97,"programNumber":3},{"time":318494.79166666634,"duration":119.79166666668607,"noteNumber":64,"velocity":101,"programNumber":3},{"time":318619.79166666634,"duration":119.79166666668607,"noteNumber":59,"velocity":101,"programNumber":3},{"time":318744.79166666634,"duration":119.79166666668607,"noteNumber":63,"velocity":97,"programNumber":3},{"time":318869.79166666634,"duration":119.79166666668607,"noteNumber":59,"velocity":97,"programNumber":3},{"time":318994.79166666634,"duration":119.79166666668607,"noteNumber":64,"velocity":102,"programNumber":3},{"time":319119.79166666634,"duration":119.79166666668607,"noteNumber":59,"velocity":101,"programNumber":3},{"time":319244.79166666634,"duration":119.79166666668607,"noteNumber":63,"velocity":92,"programNumber":3},{"time":319369.79166666634,"duration":119.79166666668607,"noteNumber":59,"velocity":99,"programNumber":3},{"time":319494.79166666634,"duration":119.79166666668607,"noteNumber":64,"velocity":102,"programNumber":3},{"time":319619.79166666634,"duration":119.79166666668607,"noteNumber":59,"velocity":104,"programNumber":3},{"time":319744.79166666634,"duration":119.79166666668607,"noteNumber":63,"velocity":105,"programNumber":3},{"time":319869.79166666634,"duration":119.79166666668607,"noteNumber":59,"velocity":99,"programNumber":3},{"time":319994.79166666634,"duration":5.208333333313931,"noteNumber":35,"velocity":127,"programNumber":3},{"time":319999.99999999965,"duration":239.58333333331393,"noteNumber":54,"velocity":127,"programNumber":3},{"time":319999.99999999965,"duration":239.58333333331393,"noteNumber":59,"velocity":127,"programNumber":3},{"time":319999.99999999965,"duration":489.58333333331393,"noteNumber":35,"velocity":127,"programNumber":3},{"time":319999.99999999965,"duration":489.58333333331393,"noteNumber":49,"velocity":90,"programNumber":3}]]}