{"tracks":[[{"time":1714.284,"duration":629.46365625,"noteNumber":40,"velocity":115,"programNumber":29},{"time":2357.1405,"duration":200.89265625000007,"noteNumber":43,"velocity":115,"programNumber":29},{"time":2571.426,"duration":200.89265625000007,"noteNumber":44,"velocity":115,"programNumber":29},{"time":2785.7115,"duration":200.89265625000007,"noteNumber":47,"velocity":115,"programNumber":29},{"time":2999.997,"duration":200.89265625000007,"noteNumber":52,"velocity":115,"programNumber":29},{"time":3214.2825,"duration":629.46365625,"noteNumber":50,"velocity":115,"programNumber":29},{"time":3857.1389999999997,"duration":200.89265625000007,"noteNumber":47,"velocity":115,"programNumber":29},{"time":4071.4244999999996,"duration":415.1781562499996,"noteNumber":54,"velocity":115,"programNumber":29},{"time":4499.995499999999,"duration":200.89265625000007,"noteNumber":47,"velocity":115,"programNumber":29},{"time":4714.280999999999,"duration":200.89265625000007,"noteNumber":50,"velocity":115,"programNumber":29},{"time":4928.566499999999,"duration":200.89265625000007,"noteNumber":52,"velocity":115,"programNumber":29},{"time":5142.851999999999,"duration":629.46365625,"noteNumber":40,"velocity":115,"programNumber":29},{"time":5785.708499999999,"duration":200.89265625000007,"noteNumber":43,"velocity":115,"programNumber":29},{"time":5999.993999999999,"duration":200.89265625000007,"noteNumber":44,"velocity":115,"programNumber":29},{"time":6214.279499999999,"duration":200.89265625000007,"noteNumber":47,"velocity":115,"programNumber":29},{"time":6428.564999999999,"duration":200.89265625000007,"noteNumber":52,"velocity":115,"programNumber":29},{"time":6642.850499999999,"duration":629.46365625,"noteNumber":50,"velocity":115,"programNumber":29},{"time":7285.7069999999985,"duration":200.89265625000007,"noteNumber":47,"velocity":115,"programNumber":29},{"time":7499.9924999999985,"duration":415.17815625000003,"noteNumber":54,"velocity":115,"programNumber":29},{"time":7928.563499999998,"duration":200.89265625000007,"noteNumber":47,"velocity":115,"programNumber":29},{"time":8142.848999999998,"duration":200.89265625000007,"noteNumber":50,"velocity":115,"programNumber":29},{"time":8357.134499999998,"duration":200.89265625000007,"noteNumber":52,"velocity":115,"programNumber":29},{"time":8571.419999999998,"duration":629.46365625,"noteNumber":40,"velocity":115,"programNumber":29},{"time":9214.276499999998,"duration":200.89265625000007,"noteNumber":43,"velocity":115,"programNumber":29},{"time":9428.561999999998,"duration":200.89265625000007,"noteNumber":44,"velocity":115,"programNumber":29},{"time":9642.847499999998,"duration":200.89265625000007,"noteNumber":47,"velocity":115,"programNumber":29},{"time":9857.132999999998,"duration":200.89265625000007,"noteNumber":52,"velocity":115,"programNumber":29},{"time":10071.418499999998,"duration":629.46365625,"noteNumber":50,"velocity":115,"programNumber":29},{"time":10714.274999999998,"duration":200.89265625000007,"noteNumber":47,"velocity":115,"programNumber":29},{"time":10928.560499999998,"duration":415.17815625000003,"noteNumber":54,"velocity":115,"programNumber":29},{"time":11357.131499999998,"duration":200.89265625000007,"noteNumber":47,"velocity":115,"programNumber":29},{"time":11571.416999999998,"duration":200.89265625000007,"noteNumber":50,"velocity":115,"programNumber":29},{"time":11785.702499999998,"duration":200.89265625000007,"noteNumber":52,"velocity":115,"programNumber":29},{"time":11999.987999999998,"duration":629.46365625,"noteNumber":40,"velocity":115,"programNumber":29},{"time":12642.844499999997,"duration":200.89265625000007,"noteNumber":43,"velocity":115,"programNumber":29},{"time":12857.129999999997,"duration":200.89265625000007,"noteNumber":44,"velocity":115,"programNumber":29},{"time":13071.415499999997,"duration":200.89265625000007,"noteNumber":47,"velocity":115,"programNumber":29},{"time":13285.700999999997,"duration":200.89265625000007,"noteNumber":52,"velocity":115,"programNumber":29},{"time":13499.986499999997,"duration":629.46365625,"noteNumber":50,"velocity":115,"programNumber":29},{"time":14142.842999999997,"duration":200.89265625000007,"noteNumber":47,"velocity":115,"programNumber":29},{"time":14357.128499999997,"duration":415.17815625000003,"noteNumber":54,"velocity":115,"programNumber":29},{"time":14785.699499999997,"duration":200.89265625000007,"noteNumber":47,"velocity":115,"programNumber":29},{"time":14999.984999999997,"duration":200.89265625000007,"noteNumber":50,"velocity":115,"programNumber":29},{"time":15214.270499999997,"duration":200.89265625000007,"noteNumber":52,"velocity":115,"programNumber":29},{"time":15428.555999999997,"duration":629.46365625,"noteNumber":40,"velocity":115,"programNumber":29},{"time":16071.412499999997,"duration":200.89265625000007,"noteNumber":43,"velocity":115,"programNumber":29},{"time":16285.697999999997,"duration":200.89265624999825,"noteNumber":44,"velocity":115,"programNumber":29},{"time":16499.983499999995,"duration":200.89265624999825,"noteNumber":47,"velocity":115,"programNumber":29},{"time":16714.268999999993,"duration":200.89265624999825,"noteNumber":52,"velocity":115,"programNumber":29},{"time":16928.55449999999,"duration":629.4636562500018,"noteNumber":50,"velocity":115,"programNumber":29},{"time":17571.410999999993,"duration":200.89265624999825,"noteNumber":47,"velocity":115,"programNumber":29},{"time":17785.69649999999,"duration":415.17815625000003,"noteNumber":54,"velocity":115,"programNumber":29},{"time":18214.26749999999,"duration":200.89265624999825,"noteNumber":47,"velocity":115,"programNumber":29},{"time":18428.55299999999,"duration":200.89265624999825,"noteNumber":50,"velocity":115,"programNumber":29},{"time":18642.838499999987,"duration":200.89265624999825,"noteNumber":52,"velocity":115,"programNumber":29},{"time":18857.123999999985,"duration":629.4636562499982,"noteNumber":40,"velocity":115,"programNumber":29},{"time":19499.980499999983,"duration":200.89265624999825,"noteNumber":43,"velocity":115,"programNumber":29},{"time":19714.26599999998,"duration":200.89265624999825,"noteNumber":44,"velocity":115,"programNumber":29},{"time":19928.55149999998,"duration":200.89265624999825,"noteNumber":47,"velocity":115,"programNumber":29},{"time":20142.836999999978,"duration":200.89265624999825,"noteNumber":52,"velocity":115,"programNumber":29},{"time":20357.122499999976,"duration":629.4636562500018,"noteNumber":50,"velocity":115,"programNumber":29},{"time":20999.978999999978,"duration":200.89265624999825,"noteNumber":47,"velocity":115,"programNumber":29},{"time":21214.264499999976,"duration":415.17815625000003,"noteNumber":54,"velocity":115,"programNumber":29},{"time":21642.835499999976,"duration":200.89265624999825,"noteNumber":47,"velocity":115,"programNumber":29},{"time":21857.120999999974,"duration":200.89265624999825,"noteNumber":50,"velocity":115,"programNumber":29},{"time":22071.406499999972,"duration":200.89265624999825,"noteNumber":52,"velocity":115,"programNumber":29},{"time":22285.69199999997,"duration":629.4636562499982,"noteNumber":40,"velocity":115,"programNumber":29},{"time":22928.548499999968,"duration":200.89265624999825,"noteNumber":43,"velocity":115,"programNumber":29},{"time":23142.833999999966,"duration":200.89265624999825,"noteNumber":44,"velocity":115,"programNumber":29},{"time":23357.119499999964,"duration":200.89265624999825,"noteNumber":47,"velocity":115,"programNumber":29},{"time":23571.404999999962,"duration":200.89265624999825,"noteNumber":52,"velocity":115,"programNumber":29},{"time":23785.69049999996,"duration":629.4636562500018,"noteNumber":50,"velocity":115,"programNumber":29},{"time":24428.546999999962,"duration":200.89265624999825,"noteNumber":47,"velocity":115,"programNumber":29},{"time":24642.83249999996,"duration":415.17815625000003,"noteNumber":54,"velocity":115,"programNumber":29},{"time":25071.40349999996,"duration":200.89265624999825,"noteNumber":47,"velocity":115,"programNumber":29},{"time":25285.68899999996,"duration":200.89265624999825,"noteNumber":50,"velocity":115,"programNumber":29},{"time":25499.974499999957,"duration":200.89265624999825,"noteNumber":52,"velocity":115,"programNumber":29},{"time":25714.259999999955,"duration":629.4636562499982,"noteNumber":45,"velocity":115,"programNumber":29},{"time":26357.116499999953,"duration":200.89265624999825,"noteNumber":48,"velocity":115,"programNumber":29},{"time":26571.40199999995,"duration":200.89265624999825,"noteNumber":49,"velocity":115,"programNumber":29},{"time":26785.68749999995,"duration":200.89265624999825,"noteNumber":52,"velocity":115,"programNumber":29},{"time":26999.972999999947,"duration":200.89265624999825,"noteNumber":57,"velocity":115,"programNumber":29},{"time":27214.258499999945,"duration":629.4636562500018,"noteNumber":55,"velocity":115,"programNumber":29},{"time":27857.114999999947,"duration":200.89265624999825,"noteNumber":52,"velocity":115,"programNumber":29},{"time":28071.400499999945,"duration":415.17815625000003,"noteNumber":59,"velocity":115,"programNumber":29},{"time":28499.971499999945,"duration":200.89265624999825,"noteNumber":52,"velocity":115,"programNumber":29},{"time":28714.256999999943,"duration":200.89265624999825,"noteNumber":55,"velocity":115,"programNumber":29},{"time":28928.54249999994,"duration":200.89265624999825,"noteNumber":57,"velocity":115,"programNumber":29},{"time":29142.82799999994,"duration":629.4636562499982,"noteNumber":40,"velocity":115,"programNumber":29},{"time":29785.684499999938,"duration":200.89265624999825,"noteNumber":43,"velocity":115,"programNumber":29},{"time":29999.969999999936,"duration":200.89265624999825,"noteNumber":44,"velocity":115,"programNumber":29},{"time":30214.255499999934,"duration":200.89265624999825,"noteNumber":47,"velocity":115,"programNumber":29},{"time":30428.540999999932,"duration":200.89265624999825,"noteNumber":52,"velocity":115,"programNumber":29},{"time":30642.82649999993,"duration":629.4636562500018,"noteNumber":50,"velocity":115,"programNumber":29},{"time":31285.68299999993,"duration":200.89265624999825,"noteNumber":47,"velocity":115,"programNumber":29},{"time":31499.96849999993,"duration":415.17815625000003,"noteNumber":54,"velocity":115,"programNumber":29},{"time":31928.53949999993,"duration":200.89265624999825,"noteNumber":47,"velocity":115,"programNumber":29},{"time":32142.824999999928,"duration":200.89265624999825,"noteNumber":50,"velocity":115,"programNumber":29},{"time":32357.110499999926,"duration":200.89265624999825,"noteNumber":52,"velocity":115,"programNumber":29},{"time":32571.395999999924,"duration":415.17815625000003,"noteNumber":42,"velocity":115,"programNumber":29},{"time":32999.966999999924,"duration":200.89265624999825,"noteNumber":42,"velocity":115,"programNumber":29},{"time":33214.25249999992,"duration":200.89265624999825,"noteNumber":42,"velocity":115,"programNumber":29},{"time":33428.53799999992,"duration":415.1781562499964,"noteNumber":42,"velocity":115,"programNumber":29},{"time":33857.10899999992,"duration":200.89265624999825,"noteNumber":42,"velocity":115,"programNumber":29},{"time":34071.394499999915,"duration":200.89265624999825,"noteNumber":42,"velocity":115,"programNumber":29},{"time":34285.67999999991,"duration":13.392843749999884,"noteNumber":40,"velocity":115,"programNumber":29},{"time":34312.46568749991,"duration":388.3924687499966,"noteNumber":42,"velocity":115,"programNumber":29},{"time":34714.25099999991,"duration":13.392843749999884,"noteNumber":40,"velocity":115,"programNumber":29},{"time":34741.03668749991,"duration":174.1069687499985,"noteNumber":42,"velocity":115,"programNumber":29},{"time":34928.53649999991,"duration":200.89265624999825,"noteNumber":42,"velocity":115,"programNumber":29},{"time":35142.821999999906,"duration":93.74990624999919,"noteNumber":40,"velocity":115,"programNumber":29},{"time":35249.964749999905,"duration":93.74990624999919,"noteNumber":42,"velocity":115,"programNumber":29},{"time":35357.107499999904,"duration":200.89265624999825,"noteNumber":45,"velocity":115,"programNumber":29},{"time":35571.3929999999,"duration":200.89265624999825,"noteNumber":42,"velocity":115,"programNumber":29},{"time":35785.6784999999,"duration":200.89265624999825,"noteNumber":42,"velocity":115,"programNumber":29},{"time":35999.9639999999,"duration":415.1781562499964,"noteNumber":42,"velocity":115,"programNumber":29},{"time":36428.534999999894,"duration":200.89265624999825,"noteNumber":42,"velocity":115,"programNumber":29},{"time":36642.82049999989,"duration":200.89265624999825,"noteNumber":42,"velocity":115,"programNumber":29},{"time":37071.39149999989,"duration":200.89265624999825,"noteNumber":42,"velocity":115,"programNumber":29},{"time":37499.962499999885,"duration":200.89265624999825,"noteNumber":40,"velocity":115,"programNumber":29},{"time":37714.24799999988,"duration":200.89265624999825,"noteNumber":40,"velocity":115,"programNumber":29},{"time":37928.53349999988,"duration":200.89265624999825,"noteNumber":42,"velocity":115,"programNumber":29},{"time":38142.81899999988,"duration":200.89265624999825,"noteNumber":42,"velocity":115,"programNumber":29},{"time":38357.10449999988,"duration":200.89265624999825,"noteNumber":42,"velocity":115,"programNumber":29},{"time":38571.389999999876,"duration":13.392843749999884,"noteNumber":40,"velocity":115,"programNumber":29},{"time":38598.175687499875,"duration":174.1069687499985,"noteNumber":42,"velocity":115,"programNumber":29},{"time":38785.675499999874,"duration":200.89265624999825,"noteNumber":42,"velocity":115,"programNumber":29},{"time":38999.96099999987,"duration":200.89265624999825,"noteNumber":42,"velocity":115,"programNumber":29},{"time":39214.24649999987,"duration":200.89265624999825,"noteNumber":42,"velocity":115,"programNumber":29},{"time":39428.53199999987,"duration":415.1781562499964,"noteNumber":45,"velocity":115,"programNumber":29},{"time":39857.102999999865,"duration":200.89265624999825,"noteNumber":45,"velocity":115,"programNumber":29},{"time":40071.38849999986,"duration":200.89265624999825,"noteNumber":45,"velocity":115,"programNumber":29},{"time":40499.95949999986,"duration":200.89265624999825,"noteNumber":45,"velocity":115,"programNumber":29},{"time":40928.530499999855,"duration":200.89265624999825,"noteNumber":45,"velocity":115,"programNumber":29},{"time":41142.81599999985,"duration":415.1781562499964,"noteNumber":44,"velocity":115,"programNumber":29},{"time":41571.38699999985,"duration":200.89265624999825,"noteNumber":44,"velocity":115,"programNumber":29},{"time":41785.67249999985,"duration":200.89265624999825,"noteNumber":44,"velocity":115,"programNumber":29},{"time":41999.957999999846,"duration":415.1781562499964,"noteNumber":51,"velocity":115,"programNumber":29},{"time":42428.52899999984,"duration":415.1781562499964,"noteNumber":51,"velocity":115,"programNumber":29},{"time":42857.09999999984,"duration":415.1781562499964,"noteNumber":49,"velocity":115,"programNumber":29},{"time":43285.670999999835,"duration":415.1781562499964,"noteNumber":49,"velocity":115,"programNumber":29},{"time":43714.24199999983,"duration":415.1781562499964,"noteNumber":49,"velocity":115,"programNumber":29},{"time":44142.81299999983,"duration":200.89265624999825,"noteNumber":49,"velocity":115,"programNumber":29},{"time":44357.098499999825,"duration":200.89265624999825,"noteNumber":49,"velocity":115,"programNumber":29},{"time":44571.38399999982,"duration":415.1781562499964,"noteNumber":47,"velocity":115,"programNumber":29},{"time":44999.95499999982,"duration":415.1781562499964,"noteNumber":47,"velocity":115,"programNumber":29},{"time":44999.95499999982,"duration":415.1781562499964,"noteNumber":54,"velocity":108,"programNumber":29},{"time":45428.525999999816,"duration":200.89265624999825,"noteNumber":47,"velocity":115,"programNumber":29},{"time":45642.811499999814,"duration":200.89265624999825,"noteNumber":47,"velocity":115,"programNumber":29},{"time":45642.811499999814,"duration":200.89265624999825,"noteNumber":54,"velocity":108,"programNumber":29},{"time":45642.811499999814,"duration":200.89265624999825,"noteNumber":59,"velocity":108,"programNumber":29},{"time":45857.09699999981,"duration":415.1781562499964,"noteNumber":54,"velocity":115,"programNumber":29},{"time":46285.66799999981,"duration":629.4636562500018,"noteNumber":40,"velocity":115,"programNumber":29},{"time":46928.52449999981,"duration":200.89265624999825,"noteNumber":43,"velocity":115,"programNumber":29},{"time":47142.80999999981,"duration":200.89265624999825,"noteNumber":44,"velocity":115,"programNumber":29},{"time":47357.09549999981,"duration":200.89265624999825,"noteNumber":47,"velocity":115,"programNumber":29},{"time":47571.380999999805,"duration":200.89265624999825,"noteNumber":52,"velocity":115,"programNumber":29},{"time":47785.6664999998,"duration":629.4636562500018,"noteNumber":50,"velocity":115,"programNumber":29},{"time":48428.522999999805,"duration":200.89265624999825,"noteNumber":47,"velocity":115,"programNumber":29},{"time":48642.8084999998,"duration":415.1781562499964,"noteNumber":54,"velocity":115,"programNumber":29},{"time":49071.3794999998,"duration":200.89265624999825,"noteNumber":47,"velocity":115,"programNumber":29},{"time":49285.6649999998,"duration":200.89265624999825,"noteNumber":50,"velocity":115,"programNumber":29},{"time":49499.950499999795,"duration":200.89265624999825,"noteNumber":52,"velocity":115,"programNumber":29},{"time":49714.23599999979,"duration":629.4636562500018,"noteNumber":40,"velocity":115,"programNumber":29},{"time":50357.092499999795,"duration":200.89265624999825,"noteNumber":43,"velocity":115,"programNumber":29},{"time":50571.37799999979,"duration":200.89265624999825,"noteNumber":44,"velocity":115,"programNumber":29},{"time":50785.66349999979,"duration":200.89265624999825,"noteNumber":47,"velocity":115,"programNumber":29},{"time":50999.94899999979,"duration":200.89265624999825,"noteNumber":52,"velocity":115,"programNumber":29},{"time":51214.23449999979,"duration":629.4636562500018,"noteNumber":50,"velocity":115,"programNumber":29},{"time":51857.09099999979,"duration":200.89265624999825,"noteNumber":47,"velocity":115,"programNumber":29},{"time":52071.37649999979,"duration":415.1781562499964,"noteNumber":54,"velocity":115,"programNumber":29},{"time":52499.947499999784,"duration":200.89265624999825,"noteNumber":47,"velocity":115,"programNumber":29},{"time":52714.23299999978,"duration":200.89265624999825,"noteNumber":50,"velocity":115,"programNumber":29},{"time":52928.51849999978,"duration":200.89265624999825,"noteNumber":52,"velocity":115,"programNumber":29},{"time":53142.80399999978,"duration":629.4636562500018,"noteNumber":40,"velocity":115,"programNumber":29},{"time":53785.66049999978,"duration":200.89265624999825,"noteNumber":43,"velocity":115,"programNumber":29},{"time":53999.94599999978,"duration":200.89265624999825,"noteNumber":44,"velocity":115,"programNumber":29},{"time":54214.231499999776,"duration":200.89265624999825,"noteNumber":47,"velocity":115,"programNumber":29},{"time":54428.516999999774,"duration":200.89265624999825,"noteNumber":52,"velocity":115,"programNumber":29},{"time":54642.80249999977,"duration":629.4636562500018,"noteNumber":50,"velocity":115,"programNumber":29},{"time":55285.658999999774,"duration":200.89265624999825,"noteNumber":47,"velocity":115,"programNumber":29},{"time":55499.94449999977,"duration":415.1781562499964,"noteNumber":54,"velocity":115,"programNumber":29},{"time":55928.51549999977,"duration":200.89265624999825,"noteNumber":47,"velocity":115,"programNumber":29},{"time":56142.80099999977,"duration":200.89265624999825,"noteNumber":50,"velocity":115,"programNumber":29},{"time":56357.086499999765,"duration":200.89265624999825,"noteNumber":52,"velocity":115,"programNumber":29},{"time":56571.37199999976,"duration":629.4636562500018,"noteNumber":40,"velocity":115,"programNumber":29},{"time":57214.228499999765,"duration":200.89265624999825,"noteNumber":43,"velocity":115,"programNumber":29},{"time":57428.51399999976,"duration":200.89265624999825,"noteNumber":44,"velocity":115,"programNumber":29},{"time":57642.79949999976,"duration":200.89265624999825,"noteNumber":47,"velocity":115,"programNumber":29},{"time":57857.08499999976,"duration":200.89265624999825,"noteNumber":52,"velocity":115,"programNumber":29},{"time":58071.37049999976,"duration":629.4636562500018,"noteNumber":50,"velocity":115,"programNumber":29},{"time":58714.22699999976,"duration":200.89265624999825,"noteNumber":47,"velocity":115,"programNumber":29},{"time":58928.51249999976,"duration":415.1781562499964,"noteNumber":54,"velocity":115,"programNumber":29},{"time":59357.08349999975,"duration":200.89265624999825,"noteNumber":47,"velocity":115,"programNumber":29},{"time":59571.36899999975,"duration":200.89265624999825,"noteNumber":50,"velocity":115,"programNumber":29},{"time":59785.65449999975,"duration":200.89265624999825,"noteNumber":52,"velocity":115,"programNumber":29},{"time":59999.93999999975,"duration":629.4636562500018,"noteNumber":45,"velocity":115,"programNumber":29},{"time":60642.79649999975,"duration":200.89265624999825,"noteNumber":48,"velocity":115,"programNumber":29},{"time":60857.08199999975,"duration":200.89265624999825,"noteNumber":49,"velocity":115,"programNumber":29},{"time":61071.367499999746,"duration":200.89265624999825,"noteNumber":52,"velocity":115,"programNumber":29},{"time":61285.652999999744,"duration":200.89265624999825,"noteNumber":57,"velocity":115,"programNumber":29},{"time":61499.93849999974,"duration":629.4636562500018,"noteNumber":55,"velocity":115,"programNumber":29},{"time":62142.79499999974,"duration":200.89265624999825,"noteNumber":52,"velocity":115,"programNumber":29},{"time":62357.08049999974,"duration":415.1781562499964,"noteNumber":59,"velocity":115,"programNumber":29},{"time":62785.65149999974,"duration":200.89265624999825,"noteNumber":52,"velocity":115,"programNumber":29},{"time":62999.936999999736,"duration":200.89265624999825,"noteNumber":55,"velocity":115,"programNumber":29},{"time":63214.222499999734,"duration":200.89265624999825,"noteNumber":57,"velocity":115,"programNumber":29},{"time":63428.50799999973,"duration":629.4636562500018,"noteNumber":40,"velocity":115,"programNumber":29},{"time":64071.364499999734,"duration":200.89265624999825,"noteNumber":43,"velocity":115,"programNumber":29},{"time":64285.64999999973,"duration":200.89265624999825,"noteNumber":44,"velocity":115,"programNumber":29},{"time":64499.93549999973,"duration":200.89265624999825,"noteNumber":47,"velocity":115,"programNumber":29},{"time":64714.22099999973,"duration":200.89265624999825,"noteNumber":52,"velocity":115,"programNumber":29},{"time":64928.50649999973,"duration":629.4636562499945,"noteNumber":50,"velocity":115,"programNumber":29},{"time":65571.36299999972,"duration":200.89265624999825,"noteNumber":47,"velocity":115,"programNumber":29},{"time":65785.64849999972,"duration":415.1781562499964,"noteNumber":54,"velocity":115,"programNumber":29},{"time":66214.21949999972,"duration":200.89265624999825,"noteNumber":47,"velocity":115,"programNumber":29},{"time":66428.50499999971,"duration":200.89265624999825,"noteNumber":50,"velocity":115,"programNumber":29},{"time":66642.79049999971,"duration":200.89265624999825,"noteNumber":52,"velocity":115,"programNumber":29},{"time":66857.07599999971,"duration":415.1781562499964,"noteNumber":42,"velocity":115,"programNumber":29},{"time":67285.6469999997,"duration":200.89265624999825,"noteNumber":42,"velocity":115,"programNumber":29},{"time":67499.9324999997,"duration":200.89265624999825,"noteNumber":42,"velocity":115,"programNumber":29},{"time":67714.2179999997,"duration":415.1781562499964,"noteNumber":42,"velocity":115,"programNumber":29},{"time":68142.7889999997,"duration":200.89265624999825,"noteNumber":42,"velocity":115,"programNumber":29},{"time":68357.0744999997,"duration":200.89265624999825,"noteNumber":42,"velocity":115,"programNumber":29},{"time":68571.3599999997,"duration":13.392843749999884,"noteNumber":40,"velocity":115,"programNumber":29},{"time":68598.1456874997,"duration":388.3924687499966,"noteNumber":42,"velocity":115,"programNumber":29},{"time":68999.93099999969,"duration":13.392843749999884,"noteNumber":40,"velocity":115,"programNumber":29},{"time":69026.71668749969,"duration":174.1069687499985,"noteNumber":42,"velocity":115,"programNumber":29},{"time":69214.21649999969,"duration":200.89265624999825,"noteNumber":42,"velocity":115,"programNumber":29},{"time":69428.50199999969,"duration":93.74990624999919,"noteNumber":40,"velocity":115,"programNumber":29},{"time":69535.64474999969,"duration":93.74990624999919,"noteNumber":42,"velocity":115,"programNumber":29},{"time":69642.78749999969,"duration":200.89265624999825,"noteNumber":45,"velocity":115,"programNumber":29},{"time":69857.07299999968,"duration":200.89265624999825,"noteNumber":42,"velocity":115,"programNumber":29},{"time":70071.35849999968,"duration":200.89265624999825,"noteNumber":42,"velocity":115,"programNumber":29},{"time":70285.64399999968,"duration":415.1781562499964,"noteNumber":42,"velocity":115,"programNumber":29},{"time":70714.21499999968,"duration":200.89265624999825,"noteNumber":42,"velocity":115,"programNumber":29},{"time":70928.50049999967,"duration":200.89265624999825,"noteNumber":42,"velocity":115,"programNumber":29},{"time":71357.07149999967,"duration":200.89265624999825,"noteNumber":42,"velocity":115,"programNumber":29},{"time":71785.64249999967,"duration":200.89265624999825,"noteNumber":40,"velocity":115,"programNumber":29},{"time":71999.92799999967,"duration":200.89265624999825,"noteNumber":40,"velocity":115,"programNumber":29},{"time":72214.21349999966,"duration":200.89265624999825,"noteNumber":42,"velocity":115,"programNumber":29},{"time":72428.49899999966,"duration":200.89265624999825,"noteNumber":42,"velocity":115,"programNumber":29},{"time":72642.78449999966,"duration":200.89265624999825,"noteNumber":42,"velocity":115,"programNumber":29},{"time":72857.06999999966,"duration":13.392843749999884,"noteNumber":40,"velocity":115,"programNumber":29},{"time":72883.85568749966,"duration":174.1069687499985,"noteNumber":42,"velocity":115,"programNumber":29},{"time":73071.35549999966,"duration":200.89265624999825,"noteNumber":42,"velocity":115,"programNumber":29},{"time":73285.64099999965,"duration":200.89265624999825,"noteNumber":42,"velocity":115,"programNumber":29},{"time":73499.92649999965,"duration":200.89265624999825,"noteNumber":42,"velocity":115,"programNumber":29},{"time":73714.21199999965,"duration":415.1781562499964,"noteNumber":45,"velocity":115,"programNumber":29},{"time":74142.78299999965,"duration":200.89265624999825,"noteNumber":45,"velocity":115,"programNumber":29},{"time":74357.06849999964,"duration":200.89265624999825,"noteNumber":45,"velocity":115,"programNumber":29},{"time":74785.63949999964,"duration":200.89265624999825,"noteNumber":45,"velocity":115,"programNumber":29},{"time":75214.21049999964,"duration":200.89265624999825,"noteNumber":45,"velocity":115,"programNumber":29},{"time":75428.49599999964,"duration":415.1781562499964,"noteNumber":44,"velocity":115,"programNumber":29},{"time":75857.06699999963,"duration":200.89265624999825,"noteNumber":44,"velocity":115,"programNumber":29},{"time":76071.35249999963,"duration":200.89265624999825,"noteNumber":44,"velocity":115,"programNumber":29},{"time":76285.63799999963,"duration":415.1781562499964,"noteNumber":51,"velocity":115,"programNumber":29},{"time":76714.20899999962,"duration":415.1781562499964,"noteNumber":51,"velocity":115,"programNumber":29},{"time":77142.77999999962,"duration":415.1781562499964,"noteNumber":49,"velocity":115,"programNumber":29},{"time":77571.35099999962,"duration":415.1781562499964,"noteNumber":49,"velocity":115,"programNumber":29},{"time":77999.92199999961,"duration":415.1781562499964,"noteNumber":49,"velocity":115,"programNumber":29},{"time":78428.49299999961,"duration":200.89265624999825,"noteNumber":49,"velocity":115,"programNumber":29},{"time":78642.77849999961,"duration":200.89265624999825,"noteNumber":49,"velocity":115,"programNumber":29},{"time":78857.0639999996,"duration":415.1781562499964,"noteNumber":47,"velocity":115,"programNumber":29},{"time":80571.3479999996,"duration":629.4636562499945,"noteNumber":47,"velocity":115,"programNumber":29},{"time":81214.2044999996,"duration":200.89265624999825,"noteNumber":50,"velocity":115,"programNumber":29},{"time":80571.3479999996,"duration":1058.0346562499908,"noteNumber":54,"velocity":108,"programNumber":29},{"time":81428.4899999996,"duration":200.89265624999825,"noteNumber":51,"velocity":115,"programNumber":29},{"time":81857.0609999996,"duration":200.89265624999825,"noteNumber":59,"velocity":115,"programNumber":29},{"time":81642.7754999996,"duration":1058.0346562499908,"noteNumber":54,"velocity":108,"programNumber":29},{"time":82071.34649999959,"duration":629.4636562499945,"noteNumber":57,"velocity":115,"programNumber":29},{"time":82714.20299999959,"duration":629.4636562499945,"noteNumber":54,"velocity":108,"programNumber":29},{"time":82928.48849999958,"duration":415.1781562499964,"noteNumber":61,"velocity":115,"programNumber":29},{"time":83571.34499999958,"duration":200.89265624999825,"noteNumber":57,"velocity":115,"programNumber":29},{"time":83357.05949999958,"duration":629.4636562499945,"noteNumber":54,"velocity":108,"programNumber":29},{"time":83785.63049999958,"duration":200.89265624999825,"noteNumber":59,"velocity":115,"programNumber":29},{"time":83999.91599999958,"duration":629.4636562499945,"noteNumber":47,"velocity":115,"programNumber":29},{"time":84642.77249999957,"duration":200.89265624999825,"noteNumber":50,"velocity":115,"programNumber":29},{"time":83999.91599999958,"duration":1058.0346562499908,"noteNumber":54,"velocity":108,"programNumber":29},{"time":84857.05799999957,"duration":200.89265624999825,"noteNumber":51,"velocity":115,"programNumber":29},{"time":85285.62899999956,"duration":200.89265624999825,"noteNumber":59,"velocity":115,"programNumber":29},{"time":85071.34349999957,"duration":1058.0346562499908,"noteNumber":54,"velocity":108,"programNumber":29},{"time":85499.91449999956,"duration":629.4636562499945,"noteNumber":57,"velocity":115,"programNumber":29},{"time":86142.77099999956,"duration":629.4636562499945,"noteNumber":54,"velocity":108,"programNumber":29},{"time":86357.05649999955,"duration":415.1781562499964,"noteNumber":61,"velocity":115,"programNumber":29},{"time":86999.91299999955,"duration":200.89265624999825,"noteNumber":57,"velocity":115,"programNumber":29},{"time":86785.62749999955,"duration":629.4636562499945,"noteNumber":54,"velocity":108,"programNumber":29},{"time":87214.19849999955,"duration":200.89265624999825,"noteNumber":59,"velocity":115,"programNumber":29},{"time":87428.48399999955,"duration":629.4636562499945,"noteNumber":47,"velocity":115,"programNumber":29},{"time":88071.34049999954,"duration":200.89265624999825,"noteNumber":50,"velocity":115,"programNumber":29},{"time":87428.48399999955,"duration":1058.0346562499908,"noteNumber":54,"velocity":108,"programNumber":29},{"time":88285.62599999954,"duration":200.89265624999825,"noteNumber":51,"velocity":115,"programNumber":29},{"time":88714.19699999953,"duration":200.89265624999825,"noteNumber":59,"velocity":115,"programNumber":29},{"time":88499.91149999954,"duration":1058.0346562499908,"noteNumber":54,"velocity":108,"programNumber":29},{"time":88928.48249999953,"duration":629.4636562499945,"noteNumber":57,"velocity":115,"programNumber":29},{"time":89571.33899999953,"duration":629.4636562499945,"noteNumber":54,"velocity":108,"programNumber":29},{"time":89785.62449999953,"duration":415.1781562499964,"noteNumber":61,"velocity":115,"programNumber":29},{"time":90428.48099999952,"duration":200.89265624999825,"noteNumber":57,"velocity":115,"programNumber":29},{"time":90214.19549999952,"duration":629.4636562499945,"noteNumber":54,"velocity":108,"programNumber":29},{"time":90642.76649999952,"duration":200.89265624999825,"noteNumber":59,"velocity":115,"programNumber":29},{"time":90857.05199999952,"duration":415.1781562499964,"noteNumber":59,"velocity":115,"programNumber":29},{"time":91285.62299999951,"duration":415.1781562499964,"noteNumber":59,"velocity":115,"programNumber":29},{"time":91714.19399999951,"duration":93.74990624999919,"noteNumber":63,"velocity":115,"programNumber":29},{"time":91821.33674999951,"duration":93.74990624999919,"noteNumber":62,"velocity":115,"programNumber":29},{"time":91928.4794999995,"duration":200.89265624999825,"noteNumber":59,"velocity":115,"programNumber":29},{"time":92142.7649999995,"duration":200.89265624999825,"noteNumber":62,"velocity":115,"programNumber":29},{"time":92357.0504999995,"duration":200.89265624999825,"noteNumber":64,"velocity":115,"programNumber":29},{"time":92571.3359999995,"duration":200.89265624999825,"noteNumber":66,"velocity":115,"programNumber":29},{"time":92785.6214999995,"duration":629.4636562499945,"noteNumber":69,"velocity":115,"programNumber":29},{"time":93428.4779999995,"duration":93.74990624999919,"noteNumber":65,"velocity":115,"programNumber":29},{"time":93535.62074999949,"duration":736.6064062499936,"noteNumber":64,"velocity":115,"programNumber":29},{"time":94285.61999999949,"duration":415.1781562499964,"noteNumber":71,"velocity":115,"programNumber":29},{"time":94714.19099999948,"duration":415.1781562499964,"noteNumber":71,"velocity":115,"programNumber":29},{"time":95142.76199999948,"duration":200.89265624999825,"noteNumber":74,"velocity":115,"programNumber":29},{"time":95357.04749999948,"duration":200.89265624999825,"noteNumber":71,"velocity":115,"programNumber":29},{"time":95571.33299999947,"duration":200.89265624999825,"noteNumber":74,"velocity":115,"programNumber":29},{"time":95785.61849999947,"duration":200.89265624999825,"noteNumber":76,"velocity":115,"programNumber":29},{"time":95999.90399999947,"duration":13.392843749999884,"noteNumber":76,"velocity":115,"programNumber":29},{"time":96026.68968749947,"duration":174.1069687499985,"noteNumber":78,"velocity":115,"programNumber":29},{"time":96214.18949999947,"duration":93.74990624999919,"noteNumber":78,"velocity":115,"programNumber":29},{"time":96321.33224999947,"duration":93.74990624999919,"noteNumber":76,"velocity":115,"programNumber":29},{"time":96428.47499999947,"duration":200.89265624999825,"noteNumber":74,"velocity":115,"programNumber":29},{"time":96642.76049999947,"duration":200.89265624999825,"noteNumber":71,"velocity":115,"programNumber":29},{"time":96857.04599999946,"duration":843.7491562500072,"noteNumber":71,"velocity":115,"programNumber":29},{"time":97714.18799999947,"duration":200.89265624999825,"noteNumber":47,"velocity":108,"programNumber":29},{"time":97714.18799999947,"duration":200.89265624999825,"noteNumber":54,"velocity":115,"programNumber":29},{"time":97928.47349999947,"duration":200.89265624999825,"noteNumber":47,"velocity":108,"programNumber":29},{"time":97928.47349999947,"duration":200.89265624999825,"noteNumber":54,"velocity":115,"programNumber":29},{"time":98142.75899999947,"duration":200.89265624999825,"noteNumber":54,"velocity":115,"programNumber":29},{"time":98142.75899999947,"duration":200.89265624999825,"noteNumber":47,"velocity":108,"programNumber":29},{"time":98357.04449999947,"duration":200.89265624999825,"noteNumber":47,"velocity":108,"programNumber":29},{"time":98357.04449999947,"duration":200.89265624999825,"noteNumber":54,"velocity":115,"programNumber":29},{"time":98571.32999999946,"duration":200.89265624999825,"noteNumber":54,"velocity":115,"programNumber":29},{"time":98571.32999999946,"duration":200.89265624999825,"noteNumber":47,"velocity":108,"programNumber":29},{"time":98785.61549999946,"duration":200.89265624999825,"noteNumber":47,"velocity":108,"programNumber":29},{"time":98785.61549999946,"duration":200.89265624999825,"noteNumber":54,"velocity":115,"programNumber":29},{"time":98999.90099999946,"duration":200.89265624999825,"noteNumber":47,"velocity":108,"programNumber":29},{"time":98999.90099999946,"duration":200.89265624999825,"noteNumber":54,"velocity":115,"programNumber":29},{"time":99214.18649999946,"duration":200.89265624999825,"noteNumber":54,"velocity":115,"programNumber":29},{"time":99214.18649999946,"duration":200.89265624999825,"noteNumber":47,"velocity":108,"programNumber":29},{"time":99428.47199999946,"duration":200.89265624999825,"noteNumber":47,"velocity":108,"programNumber":29},{"time":99428.47199999946,"duration":200.89265624999825,"noteNumber":54,"velocity":115,"programNumber":29},{"time":99642.75749999945,"duration":200.89265624999825,"noteNumber":54,"velocity":115,"programNumber":29},{"time":99642.75749999945,"duration":200.89265624999825,"noteNumber":47,"velocity":108,"programNumber":29},{"time":99857.04299999945,"duration":200.89265624999825,"noteNumber":47,"velocity":108,"programNumber":29},{"time":99857.04299999945,"duration":200.89265624999825,"noteNumber":54,"velocity":115,"programNumber":29},{"time":100071.32849999945,"duration":200.89265624999825,"noteNumber":47,"velocity":108,"programNumber":29},{"time":100071.32849999945,"duration":200.89265624999825,"noteNumber":54,"velocity":115,"programNumber":29},{"time":100285.61399999945,"duration":200.89265624999825,"noteNumber":54,"velocity":115,"programNumber":29},{"time":100285.61399999945,"duration":200.89265624999825,"noteNumber":47,"velocity":108,"programNumber":29},{"time":100499.89949999945,"duration":200.89265624999825,"noteNumber":47,"velocity":108,"programNumber":29},{"time":100499.89949999945,"duration":200.89265624999825,"noteNumber":54,"velocity":115,"programNumber":29},{"time":100714.18499999944,"duration":200.89265624999825,"noteNumber":54,"velocity":115,"programNumber":29},{"time":100714.18499999944,"duration":200.89265624999825,"noteNumber":47,"velocity":108,"programNumber":29},{"time":100928.47049999944,"duration":200.89265624999825,"noteNumber":47,"velocity":108,"programNumber":29},{"time":100928.47049999944,"duration":200.89265624999825,"noteNumber":54,"velocity":115,"programNumber":29},{"time":101142.75599999944,"duration":629.4636562499945,"noteNumber":40,"velocity":115,"programNumber":29},{"time":101785.61249999944,"duration":200.89265624999825,"noteNumber":43,"velocity":115,"programNumber":29},{"time":101999.89799999943,"duration":200.89265624999825,"noteNumber":44,"velocity":115,"programNumber":29},{"time":102214.18349999943,"duration":200.89265624999825,"noteNumber":47,"velocity":115,"programNumber":29},{"time":102428.46899999943,"duration":200.89265624999825,"noteNumber":52,"velocity":115,"programNumber":29},{"time":102642.75449999943,"duration":629.4636562499945,"noteNumber":50,"velocity":115,"programNumber":29},{"time":103285.61099999942,"duration":200.89265624999825,"noteNumber":47,"velocity":115,"programNumber":29},{"time":103499.89649999942,"duration":415.1781562499964,"noteNumber":54,"velocity":115,"programNumber":29},{"time":103928.46749999942,"duration":200.89265624999825,"noteNumber":47,"velocity":115,"programNumber":29},{"time":104142.75299999941,"duration":200.89265624999825,"noteNumber":50,"velocity":115,"programNumber":29},{"time":104357.03849999941,"duration":200.89265624999825,"noteNumber":52,"velocity":115,"programNumber":29},{"time":104571.32399999941,"duration":629.4636562499945,"noteNumber":40,"velocity":115,"programNumber":29},{"time":105214.1804999994,"duration":200.89265624999825,"noteNumber":43,"velocity":115,"programNumber":29},{"time":105428.4659999994,"duration":200.89265624999825,"noteNumber":44,"velocity":115,"programNumber":29},{"time":105642.7514999994,"duration":200.89265624999825,"noteNumber":47,"velocity":115,"programNumber":29},{"time":105857.0369999994,"duration":200.89265624999825,"noteNumber":52,"velocity":115,"programNumber":29},{"time":106071.3224999994,"duration":629.4636562499945,"noteNumber":50,"velocity":115,"programNumber":29},{"time":106714.17899999939,"duration":200.89265624999825,"noteNumber":47,"velocity":115,"programNumber":29},{"time":106928.46449999939,"duration":415.1781562499964,"noteNumber":54,"velocity":115,"programNumber":29},{"time":107357.03549999939,"duration":200.89265624999825,"noteNumber":47,"velocity":115,"programNumber":29},{"time":107571.32099999939,"duration":200.89265624999825,"noteNumber":50,"velocity":115,"programNumber":29},{"time":107785.60649999938,"duration":200.89265624999825,"noteNumber":52,"velocity":115,"programNumber":29},{"time":107999.89199999938,"duration":629.4636562499945,"noteNumber":40,"velocity":115,"programNumber":29},{"time":108642.74849999938,"duration":200.89265624999825,"noteNumber":43,"velocity":115,"programNumber":29},{"time":108857.03399999937,"duration":200.89265624999825,"noteNumber":44,"velocity":115,"programNumber":29},{"time":109071.31949999937,"duration":200.89265624999825,"noteNumber":47,"velocity":115,"programNumber":29},{"time":109285.60499999937,"duration":200.89265624999825,"noteNumber":52,"velocity":115,"programNumber":29},{"time":109499.89049999937,"duration":629.4636562499945,"noteNumber":50,"velocity":115,"programNumber":29},{"time":110142.74699999936,"duration":200.89265624999825,"noteNumber":47,"velocity":115,"programNumber":29},{"time":110357.03249999936,"duration":415.1781562499964,"noteNumber":54,"velocity":115,"programNumber":29},{"time":110785.60349999936,"duration":200.89265624999825,"noteNumber":47,"velocity":115,"programNumber":29},{"time":110999.88899999936,"duration":200.89265624999825,"noteNumber":50,"velocity":115,"programNumber":29},{"time":111214.17449999935,"duration":200.89265624999825,"noteNumber":52,"velocity":115,"programNumber":29},{"time":111428.45999999935,"duration":629.4636562499945,"noteNumber":40,"velocity":115,"programNumber":29},{"time":112071.31649999935,"duration":200.89265624999825,"noteNumber":43,"velocity":115,"programNumber":29},{"time":112285.60199999934,"duration":200.89265624999825,"noteNumber":44,"velocity":115,"programNumber":29},{"time":112499.88749999934,"duration":200.89265624999825,"noteNumber":47,"velocity":115,"programNumber":29},{"time":112714.17299999934,"duration":200.89265624999825,"noteNumber":52,"velocity":115,"programNumber":29},{"time":112928.45849999934,"duration":629.4636562499945,"noteNumber":50,"velocity":115,"programNumber":29},{"time":113571.31499999933,"duration":200.89265624999825,"noteNumber":47,"velocity":115,"programNumber":29},{"time":113785.60049999933,"duration":415.1781562499964,"noteNumber":54,"velocity":115,"programNumber":29},{"time":114214.17149999933,"duration":200.89265624999825,"noteNumber":47,"velocity":115,"programNumber":29},{"time":114428.45699999933,"duration":200.89265624999825,"noteNumber":50,"velocity":115,"programNumber":29},{"time":114642.74249999932,"duration":200.89265624999825,"noteNumber":52,"velocity":115,"programNumber":29},{"time":114857.02799999932,"duration":629.4636562499945,"noteNumber":45,"velocity":115,"programNumber":29},{"time":115499.88449999932,"duration":200.89265624999825,"noteNumber":48,"velocity":115,"programNumber":29},{"time":115714.16999999931,"duration":200.89265624999825,"noteNumber":49,"velocity":115,"programNumber":29},{"time":115928.45549999931,"duration":200.89265624999825,"noteNumber":52,"velocity":115,"programNumber":29},{"time":116142.74099999931,"duration":200.89265624999825,"noteNumber":57,"velocity":115,"programNumber":29},{"time":116357.02649999931,"duration":629.4636562499945,"noteNumber":55,"velocity":115,"programNumber":29},{"time":116999.8829999993,"duration":200.89265624999825,"noteNumber":52,"velocity":115,"programNumber":29},{"time":117214.1684999993,"duration":415.1781562499964,"noteNumber":59,"velocity":115,"programNumber":29},{"time":117642.7394999993,"duration":200.89265624999825,"noteNumber":52,"velocity":115,"programNumber":29},{"time":117857.0249999993,"duration":200.89265624999825,"noteNumber":55,"velocity":115,"programNumber":29},{"time":118071.3104999993,"duration":200.89265624999825,"noteNumber":57,"velocity":115,"programNumber":29},{"time":118285.59599999929,"duration":629.4636562499945,"noteNumber":40,"velocity":115,"programNumber":29},{"time":118928.45249999929,"duration":200.89265624999825,"noteNumber":43,"velocity":115,"programNumber":29},{"time":119142.73799999928,"duration":200.89265624999825,"noteNumber":44,"velocity":115,"programNumber":29},{"time":119357.02349999928,"duration":200.89265624999825,"noteNumber":47,"velocity":115,"programNumber":29},{"time":119571.30899999928,"duration":200.89265624999825,"noteNumber":52,"velocity":115,"programNumber":29},{"time":119785.59449999928,"duration":629.4636562499945,"noteNumber":50,"velocity":115,"programNumber":29},{"time":120428.45099999927,"duration":200.89265624999825,"noteNumber":47,"velocity":115,"programNumber":29},{"time":120642.73649999927,"duration":415.1781562499964,"noteNumber":54,"velocity":115,"programNumber":29},{"time":121071.30749999927,"duration":200.89265624999825,"noteNumber":47,"velocity":115,"programNumber":29},{"time":121285.59299999927,"duration":200.89265624999825,"noteNumber":50,"velocity":115,"programNumber":29},{"time":121499.87849999926,"duration":200.89265624999825,"noteNumber":52,"velocity":115,"programNumber":29},{"time":121714.16399999926,"duration":415.1781562499964,"noteNumber":42,"velocity":115,"programNumber":29},{"time":122142.73499999926,"duration":200.89265624999825,"noteNumber":42,"velocity":115,"programNumber":29},{"time":122357.02049999926,"duration":200.89265624999825,"noteNumber":42,"velocity":115,"programNumber":29},{"time":122571.30599999925,"duration":415.1781562499964,"noteNumber":42,"velocity":115,"programNumber":29},{"time":122999.87699999925,"duration":200.89265624999825,"noteNumber":42,"velocity":115,"programNumber":29},{"time":123214.16249999925,"duration":200.89265624999825,"noteNumber":42,"velocity":115,"programNumber":29},{"time":123428.44799999925,"duration":13.392843749999884,"noteNumber":40,"velocity":115,"programNumber":29},{"time":123455.23368749925,"duration":388.3924687499966,"noteNumber":42,"velocity":115,"programNumber":29},{"time":123857.01899999924,"duration":13.392843749999884,"noteNumber":40,"velocity":115,"programNumber":29},{"time":123883.80468749924,"duration":174.1069687499985,"noteNumber":42,"velocity":115,"programNumber":29},{"time":124071.30449999924,"duration":200.89265624999825,"noteNumber":42,"velocity":115,"programNumber":29},{"time":124285.58999999924,"duration":93.74990624999919,"noteNumber":40,"velocity":115,"programNumber":29},{"time":124392.73274999924,"duration":93.74990624999919,"noteNumber":42,"velocity":115,"programNumber":29},{"time":124499.87549999924,"duration":200.89265624999825,"noteNumber":45,"velocity":115,"programNumber":29},{"time":124714.16099999924,"duration":200.89265624999825,"noteNumber":42,"velocity":115,"programNumber":29},{"time":124928.44649999923,"duration":200.89265624999825,"noteNumber":42,"velocity":115,"programNumber":29},{"time":125142.73199999923,"duration":415.1781562499964,"noteNumber":42,"velocity":115,"programNumber":29},{"time":125571.30299999923,"duration":200.89265624999825,"noteNumber":42,"velocity":115,"programNumber":29},{"time":125785.58849999923,"duration":200.89265624999825,"noteNumber":42,"velocity":115,"programNumber":29},{"time":126214.15949999922,"duration":200.89265624999825,"noteNumber":42,"velocity":115,"programNumber":29},{"time":126642.73049999922,"duration":200.89265624999825,"noteNumber":40,"velocity":115,"programNumber":29},{"time":126857.01599999922,"duration":200.89265624999825,"noteNumber":40,"velocity":115,"programNumber":29},{"time":127071.30149999922,"duration":200.89265624999825,"noteNumber":42,"velocity":115,"programNumber":29},{"time":127285.58699999921,"duration":200.89265624999825,"noteNumber":42,"velocity":115,"programNumber":29},{"time":127499.87249999921,"duration":200.89265624999825,"noteNumber":42,"velocity":115,"programNumber":29},{"time":127714.15799999921,"duration":13.392843749999884,"noteNumber":40,"velocity":115,"programNumber":29},{"time":127740.94368749921,"duration":174.1069687499985,"noteNumber":42,"velocity":115,"programNumber":29},{"time":127928.44349999921,"duration":200.89265624999825,"noteNumber":42,"velocity":115,"programNumber":29},{"time":128142.7289999992,"duration":200.89265624999825,"noteNumber":42,"velocity":115,"programNumber":29},{"time":128357.0144999992,"duration":200.89265624999825,"noteNumber":42,"velocity":115,"programNumber":29},{"time":128571.2999999992,"duration":415.1781562499964,"noteNumber":45,"velocity":115,"programNumber":29},{"time":128999.8709999992,"duration":200.89265624999825,"noteNumber":45,"velocity":115,"programNumber":29},{"time":129214.1564999992,"duration":200.89265624999825,"noteNumber":45,"velocity":115,"programNumber":29},{"time":129642.7274999992,"duration":200.89265624999825,"noteNumber":45,"velocity":115,"programNumber":29},{"time":130071.29849999919,"duration":200.89265624999825,"noteNumber":45,"velocity":115,"programNumber":29},{"time":130285.58399999919,"duration":415.1781562499964,"noteNumber":44,"velocity":115,"programNumber":29},{"time":130714.15499999918,"duration":200.89265624999825,"noteNumber":44,"velocity":115,"programNumber":29},{"time":130928.44049999918,"duration":200.8926562500128,"noteNumber":44,"velocity":115,"programNumber":29},{"time":131142.7259999992,"duration":415.17815625001094,"noteNumber":51,"velocity":115,"programNumber":29},{"time":131571.29699999923,"duration":415.17815625001094,"noteNumber":51,"velocity":115,"programNumber":29},{"time":131999.86799999926,"duration":415.17815625001094,"noteNumber":49,"velocity":115,"programNumber":29},{"time":132428.43899999929,"duration":415.17815625001094,"noteNumber":49,"velocity":115,"programNumber":29},{"time":132857.0099999993,"duration":415.17815625001094,"noteNumber":49,"velocity":115,"programNumber":29},{"time":133285.58099999934,"duration":200.8926562500128,"noteNumber":49,"velocity":115,"programNumber":29},{"time":133499.86649999936,"duration":200.8926562500128,"noteNumber":49,"velocity":115,"programNumber":29},{"time":133714.1519999994,"duration":415.17815625001094,"noteNumber":47,"velocity":115,"programNumber":29},{"time":134142.72299999942,"duration":200.8926562500128,"noteNumber":47,"velocity":115,"programNumber":29},{"time":134357.00849999944,"duration":200.8926562500128,"noteNumber":47,"velocity":115,"programNumber":29},{"time":134571.29399999947,"duration":200.8926562500128,"noteNumber":47,"velocity":115,"programNumber":29},{"time":134785.5794999995,"duration":200.8926562500128,"noteNumber":47,"velocity":115,"programNumber":29},{"time":134999.86499999953,"duration":200.8926562500128,"noteNumber":47,"velocity":115,"programNumber":29},{"time":135214.15049999955,"duration":200.8926562500128,"noteNumber":47,"velocity":115,"programNumber":29},{"time":135428.43599999958,"duration":629.4636562500091,"noteNumber":40,"velocity":115,"programNumber":29},{"time":136071.2924999996,"duration":200.8926562500128,"noteNumber":43,"velocity":115,"programNumber":29},{"time":136285.57799999963,"duration":200.8926562500128,"noteNumber":44,"velocity":115,"programNumber":29},{"time":136499.86349999966,"duration":200.8926562500128,"noteNumber":47,"velocity":115,"programNumber":29},{"time":136714.14899999968,"duration":200.8926562500128,"noteNumber":52,"velocity":115,"programNumber":29},{"time":136928.4344999997,"duration":629.4636562500091,"noteNumber":50,"velocity":115,"programNumber":29},{"time":137571.29099999974,"duration":200.8926562500128,"noteNumber":47,"velocity":115,"programNumber":29},{"time":137785.57649999976,"duration":415.17815625001094,"noteNumber":54,"velocity":115,"programNumber":29},{"time":138214.1474999998,"duration":200.8926562500128,"noteNumber":47,"velocity":115,"programNumber":29},{"time":138428.43299999982,"duration":200.8926562500128,"noteNumber":50,"velocity":115,"programNumber":29},{"time":138642.71849999984,"duration":200.8926562500128,"noteNumber":52,"velocity":115,"programNumber":29},{"time":138857.00399999987,"duration":629.4636562500091,"noteNumber":40,"velocity":115,"programNumber":29},{"time":139499.8604999999,"duration":200.8926562500128,"noteNumber":43,"velocity":115,"programNumber":29},{"time":139714.14599999992,"duration":200.8926562500128,"noteNumber":44,"velocity":115,"programNumber":29},{"time":139928.43149999995,"duration":200.8926562500128,"noteNumber":47,"velocity":115,"programNumber":29},{"time":140142.71699999998,"duration":200.8926562500128,"noteNumber":52,"velocity":115,"programNumber":29},{"time":140357.0025,"duration":629.4636562500091,"noteNumber":50,"velocity":115,"programNumber":29},{"time":140999.85900000003,"duration":200.8926562500128,"noteNumber":47,"velocity":115,"programNumber":29},{"time":141214.14450000005,"duration":415.17815625001094,"noteNumber":54,"velocity":115,"programNumber":29},{"time":141642.71550000008,"duration":200.8926562500128,"noteNumber":47,"velocity":115,"programNumber":29},{"time":141857.0010000001,"duration":200.8926562500128,"noteNumber":50,"velocity":115,"programNumber":29},{"time":142071.28650000013,"duration":200.8926562500128,"noteNumber":52,"velocity":115,"programNumber":29},{"time":142285.57200000016,"duration":629.4636562500091,"noteNumber":40,"velocity":115,"programNumber":29},{"time":142928.42850000018,"duration":200.8926562500128,"noteNumber":43,"velocity":115,"programNumber":29},{"time":143142.7140000002,"duration":200.8926562500128,"noteNumber":44,"velocity":115,"programNumber":29},{"time":143356.99950000024,"duration":200.8926562500128,"noteNumber":47,"velocity":115,"programNumber":29},{"time":143571.28500000027,"duration":200.8926562500128,"noteNumber":52,"velocity":115,"programNumber":29},{"time":143785.5705000003,"duration":629.4636562500091,"noteNumber":50,"velocity":115,"programNumber":29},{"time":144428.42700000032,"duration":200.8926562500128,"noteNumber":47,"velocity":115,"programNumber":29},{"time":144642.71250000034,"duration":415.17815625001094,"noteNumber":54,"velocity":115,"programNumber":29},{"time":145071.28350000037,"duration":200.8926562500128,"noteNumber":47,"velocity":115,"programNumber":29},{"time":145285.5690000004,"duration":200.8926562500128,"noteNumber":50,"velocity":115,"programNumber":29},{"time":145499.85450000042,"duration":200.8926562500128,"noteNumber":52,"velocity":115,"programNumber":29},{"time":145714.14000000045,"duration":629.4636562500091,"noteNumber":40,"velocity":115,"programNumber":29},{"time":146356.99650000047,"duration":200.8926562500128,"noteNumber":43,"velocity":115,"programNumber":29},{"time":146571.2820000005,"duration":200.8926562500128,"noteNumber":44,"velocity":115,"programNumber":29},{"time":146785.56750000053,"duration":200.8926562500128,"noteNumber":47,"velocity":115,"programNumber":29},{"time":146999.85300000056,"duration":200.8926562500128,"noteNumber":52,"velocity":115,"programNumber":29},{"time":147214.13850000058,"duration":629.4636562500091,"noteNumber":50,"velocity":115,"programNumber":29},{"time":147856.9950000006,"duration":200.8926562500128,"noteNumber":47,"velocity":115,"programNumber":29},{"time":148071.28050000063,"duration":415.17815625001094,"noteNumber":54,"velocity":115,"programNumber":29},{"time":148499.85150000066,"duration":200.8926562500128,"noteNumber":47,"velocity":115,"programNumber":29},{"time":148714.1370000007,"duration":200.8926562500128,"noteNumber":50,"velocity":115,"programNumber":29},{"time":148928.4225000007,"duration":200.8926562500128,"noteNumber":52,"velocity":115,"programNumber":29},{"time":149142.70800000074,"duration":629.4636562500091,"noteNumber":40,"velocity":115,"programNumber":29},{"time":149785.56450000076,"duration":200.8926562500128,"noteNumber":43,"velocity":115,"programNumber":29},{"time":149999.8500000008,"duration":200.8926562500128,"noteNumber":44,"velocity":115,"programNumber":29},{"time":150214.13550000082,"duration":200.8926562500128,"noteNumber":47,"velocity":115,"programNumber":29},{"time":150428.42100000085,"duration":200.8926562500128,"noteNumber":52,"velocity":115,"programNumber":29},{"time":150642.70650000087,"duration":629.4636562500091,"noteNumber":50,"velocity":115,"programNumber":29},{"time":151285.5630000009,"duration":200.8926562500128,"noteNumber":47,"velocity":115,"programNumber":29},{"time":151499.84850000092,"duration":415.17815625001094,"noteNumber":54,"velocity":115,"programNumber":29},{"time":151928.41950000095,"duration":200.8926562500128,"noteNumber":47,"velocity":115,"programNumber":29},{"time":152142.70500000098,"duration":200.8926562500128,"noteNumber":50,"velocity":115,"programNumber":29},{"time":152356.990500001,"duration":200.8926562500128,"noteNumber":52,"velocity":115,"programNumber":29},{"time":152571.27600000103,"duration":629.4636562500091,"noteNumber":40,"velocity":115,"programNumber":29},{"time":153214.13250000105,"duration":200.8926562500128,"noteNumber":43,"velocity":115,"programNumber":29},{"time":153428.41800000108,"duration":200.8926562500128,"noteNumber":44,"velocity":115,"programNumber":29},{"time":153642.7035000011,"duration":200.8926562500128,"noteNumber":47,"velocity":115,"programNumber":29},{"time":153856.98900000114,"duration":200.8926562500128,"noteNumber":52,"velocity":115,"programNumber":29},{"time":154071.27450000116,"duration":629.4636562500091,"noteNumber":50,"velocity":115,"programNumber":29},{"time":154714.1310000012,"duration":200.8926562500128,"noteNumber":47,"velocity":115,"programNumber":29},{"time":154928.4165000012,"duration":415.17815625001094,"noteNumber":54,"velocity":115,"programNumber":29},{"time":155356.98750000124,"duration":200.8926562500128,"noteNumber":47,"velocity":115,"programNumber":29},{"time":155571.27300000127,"duration":200.8926562500128,"noteNumber":50,"velocity":115,"programNumber":29},{"time":155785.5585000013,"duration":200.8926562500128,"noteNumber":52,"velocity":115,"programNumber":29},{"time":155999.84400000132,"duration":629.4636562500091,"noteNumber":40,"velocity":115,"programNumber":29},{"time":156642.70050000135,"duration":200.8926562500128,"noteNumber":43,"velocity":115,"programNumber":29},{"time":156856.98600000137,"duration":200.8926562500128,"noteNumber":44,"velocity":115,"programNumber":29},{"time":157071.2715000014,"duration":200.8926562500128,"noteNumber":47,"velocity":115,"programNumber":29},{"time":157285.55700000143,"duration":200.8926562500128,"noteNumber":52,"velocity":115,"programNumber":29},{"time":157499.84250000145,"duration":629.4636562500091,"noteNumber":50,"velocity":115,"programNumber":29},{"time":158142.69900000148,"duration":200.8926562500128,"noteNumber":47,"velocity":115,"programNumber":29},{"time":158356.9845000015,"duration":415.17815625001094,"noteNumber":54,"velocity":115,"programNumber":29},{"time":158785.55550000153,"duration":200.8926562500128,"noteNumber":47,"velocity":115,"programNumber":29},{"time":158999.84100000156,"duration":200.8926562500128,"noteNumber":50,"velocity":115,"programNumber":29},{"time":159214.12650000158,"duration":200.8926562500128,"noteNumber":52,"velocity":115,"programNumber":29},{"time":159428.4120000016,"duration":629.4636562500091,"noteNumber":40,"velocity":115,"programNumber":29},{"time":160071.26850000164,"duration":200.8926562500128,"noteNumber":43,"velocity":115,"programNumber":29},{"time":160285.55400000166,"duration":200.8926562500128,"noteNumber":44,"velocity":115,"programNumber":29},{"time":160499.8395000017,"duration":200.8926562500128,"noteNumber":47,"velocity":115,"programNumber":29},{"time":160714.12500000172,"duration":200.8926562500128,"noteNumber":52,"velocity":115,"programNumber":29},{"time":160928.41050000174,"duration":629.4636562500091,"noteNumber":50,"velocity":115,"programNumber":29},{"time":161571.26700000177,"duration":200.8926562500128,"noteNumber":47,"velocity":115,"programNumber":29},{"time":161785.5525000018,"duration":415.17815625001094,"noteNumber":54,"velocity":115,"programNumber":29},{"time":162214.12350000182,"duration":200.8926562499837,"noteNumber":47,"velocity":115,"programNumber":29},{"time":162428.40900000182,"duration":200.8926562500128,"noteNumber":50,"velocity":115,"programNumber":29},{"time":162642.69450000185,"duration":200.8926562500128,"noteNumber":52,"velocity":115,"programNumber":29},{"time":162856.98000000187,"duration":629.4636562500091,"noteNumber":40,"velocity":115,"programNumber":29},{"time":163499.8365000019,"duration":200.8926562500128,"noteNumber":43,"velocity":115,"programNumber":29},{"time":163714.12200000192,"duration":200.8926562500128,"noteNumber":44,"velocity":115,"programNumber":29},{"time":163928.40750000195,"duration":200.8926562500128,"noteNumber":47,"velocity":115,"programNumber":29},{"time":164142.69300000198,"duration":200.8926562500128,"noteNumber":52,"velocity":115,"programNumber":29},{"time":164356.978500002,"duration":629.4636562500091,"noteNumber":50,"velocity":115,"programNumber":29},{"time":164999.83500000203,"duration":200.8926562499837,"noteNumber":47,"velocity":115,"programNumber":29},{"time":165214.12050000203,"duration":415.17815625001094,"noteNumber":54,"velocity":115,"programNumber":29},{"time":165642.69150000205,"duration":200.8926562499837,"noteNumber":47,"velocity":115,"programNumber":29},{"time":165856.97700000205,"duration":200.8926562500128,"noteNumber":50,"velocity":115,"programNumber":29},{"time":166071.26250000208,"duration":200.8926562499837,"noteNumber":52,"velocity":115,"programNumber":29},{"time":166285.54800000208,"duration":629.4636562500091,"noteNumber":40,"velocity":115,"programNumber":29},{"time":166928.4045000021,"duration":200.8926562500128,"noteNumber":43,"velocity":115,"programNumber":29},{"time":167142.69000000213,"duration":200.8926562500128,"noteNumber":44,"velocity":115,"programNumber":29},{"time":167356.97550000215,"duration":200.8926562500128,"noteNumber":47,"velocity":115,"programNumber":29},{"time":167571.26100000218,"duration":200.8926562500128,"noteNumber":52,"velocity":115,"programNumber":29},{"time":167785.5465000022,"duration":629.4636562500091,"noteNumber":50,"velocity":115,"programNumber":29},{"time":168428.40300000223,"duration":200.8926562499837,"noteNumber":47,"velocity":115,"programNumber":29},{"time":168642.68850000223,"duration":415.17815624998184,"noteNumber":54,"velocity":115,"programNumber":29},{"time":169071.25950000223,"duration":200.8926562500128,"noteNumber":47,"velocity":115,"programNumber":29},{"time":169285.54500000225,"duration":200.8926562500128,"noteNumber":50,"velocity":115,"programNumber":29},{"time":169499.83050000228,"duration":200.8926562499837,"noteNumber":52,"velocity":115,"programNumber":29},{"time":169714.11600000228,"duration":629.4636562500091,"noteNumber":40,"velocity":115,"programNumber":29},{"time":170356.9725000023,"duration":200.8926562500128,"noteNumber":43,"velocity":115,"programNumber":29},{"time":170571.25800000233,"duration":200.8926562500128,"noteNumber":44,"velocity":115,"programNumber":29},{"time":170785.54350000236,"duration":200.8926562500128,"noteNumber":47,"velocity":115,"programNumber":29},{"time":170999.82900000238,"duration":200.8926562500128,"noteNumber":52,"velocity":115,"programNumber":29},{"time":171214.1145000024,"duration":629.4636562500091,"noteNumber":50,"velocity":115,"programNumber":29},{"time":171856.97100000244,"duration":200.8926562500128,"noteNumber":47,"velocity":115,"programNumber":29},{"time":172071.25650000246,"duration":415.17815624998184,"noteNumber":54,"velocity":115,"programNumber":29},{"time":172499.82750000246,"duration":200.8926562500128,"noteNumber":47,"velocity":115,"programNumber":29},{"time":172714.1130000025,"duration":200.8926562499837,"noteNumber":50,"velocity":115,"programNumber":29},{"time":172928.39850000248,"duration":200.8926562500128,"noteNumber":52,"velocity":115,"programNumber":29},{"time":173142.6840000025,"duration":629.4636562500091,"noteNumber":40,"velocity":115,"programNumber":29},{"time":173785.54050000253,"duration":200.8926562500128,"noteNumber":43,"velocity":115,"programNumber":29},{"time":173999.82600000256,"duration":200.8926562500128,"noteNumber":44,"velocity":115,"programNumber":29},{"time":174214.1115000026,"duration":200.8926562500128,"noteNumber":47,"velocity":115,"programNumber":29},{"time":174428.39700000262,"duration":200.8926562499837,"noteNumber":52,"velocity":115,"programNumber":29},{"time":174642.68250000261,"duration":629.4636562500091,"noteNumber":50,"velocity":115,"programNumber":29},{"time":175285.53900000264,"duration":200.8926562500128,"noteNumber":47,"velocity":115,"programNumber":29},{"time":175499.82450000267,"duration":415.17815625001094,"noteNumber":54,"velocity":115,"programNumber":29},{"time":175928.3955000027,"duration":200.8926562499837,"noteNumber":47,"velocity":115,"programNumber":29},{"time":176142.6810000027,"duration":200.8926562500128,"noteNumber":50,"velocity":115,"programNumber":29},{"time":176356.96650000272,"duration":200.8926562500128,"noteNumber":52,"velocity":115,"programNumber":29},{"time":176571.25200000274,"duration":629.4636562500382,"noteNumber":40,"velocity":115,"programNumber":29},{"time":177214.1085000028,"duration":200.8926562499837,"noteNumber":43,"velocity":115,"programNumber":29},{"time":177428.3940000028,"duration":200.8926562500128,"noteNumber":44,"velocity":115,"programNumber":29},{"time":177642.67950000282,"duration":200.8926562500128,"noteNumber":47,"velocity":115,"programNumber":29},{"time":177856.96500000285,"duration":200.8926562499837,"noteNumber":52,"velocity":115,"programNumber":29},{"time":178071.25050000285,"duration":629.4636562500091,"noteNumber":50,"velocity":115,"programNumber":29},{"time":178714.10700000287,"duration":200.8926562499837,"noteNumber":47,"velocity":115,"programNumber":29},{"time":178928.39250000287,"duration":415.17815625001094,"noteNumber":54,"velocity":115,"programNumber":29},{"time":179356.9635000029,"duration":200.8926562500128,"noteNumber":47,"velocity":115,"programNumber":29},{"time":179571.24900000292,"duration":200.8926562500128,"noteNumber":50,"velocity":115,"programNumber":29},{"time":179785.53450000295,"duration":200.8926562500128,"noteNumber":52,"velocity":115,"programNumber":29},{"time":179999.82000000298,"duration":629.4636562500091,"noteNumber":40,"velocity":115,"programNumber":29},{"time":180642.676500003,"duration":200.8926562499837,"noteNumber":43,"velocity":115,"programNumber":29},{"time":180856.962000003,"duration":200.8926562500128,"noteNumber":44,"velocity":115,"programNumber":29},{"time":181071.24750000302,"duration":200.8926562499837,"noteNumber":47,"velocity":115,"programNumber":29},{"time":181285.53300000302,"duration":200.8926562500128,"noteNumber":52,"velocity":115,"programNumber":29},{"time":181499.81850000305,"duration":629.4636562500091,"noteNumber":50,"velocity":115,"programNumber":29},{"time":182142.67500000307,"duration":200.8926562499837,"noteNumber":47,"velocity":115,"programNumber":29},{"time":182356.96050000307,"duration":415.17815625001094,"noteNumber":54,"velocity":115,"programNumber":29},{"time":182785.5315000031,"duration":200.8926562500128,"noteNumber":47,"velocity":115,"programNumber":29},{"time":182999.81700000312,"duration":200.8926562500128,"noteNumber":50,"velocity":115,"programNumber":29},{"time":183214.10250000315,"duration":200.8926562500128,"noteNumber":52,"velocity":115,"programNumber":29},{"time":183428.38800000318,"duration":629.4636562500091,"noteNumber":40,"velocity":115,"programNumber":29},{"time":184071.2445000032,"duration":200.8926562500128,"noteNumber":43,"velocity":115,"programNumber":29},{"time":184285.53000000323,"duration":200.8926562499837,"noteNumber":44,"velocity":115,"programNumber":29},{"time":184499.81550000323,"duration":200.8926562500128,"noteNumber":47,"velocity":115,"programNumber":29},{"time":184714.10100000323,"duration":200.8926562500128,"noteNumber":52,"velocity":115,"programNumber":29},{"time":184928.38650000325,"duration":629.4636562500091,"noteNumber":50,"velocity":115,"programNumber":29},{"time":185571.24300000328,"duration":200.8926562500128,"noteNumber":47,"velocity":115,"programNumber":29},{"time":185785.5285000033,"duration":415.17815625001094,"noteNumber":54,"velocity":115,"programNumber":29},{"time":186214.09950000333,"duration":200.8926562500128,"noteNumber":47,"velocity":115,"programNumber":29},{"time":186428.38500000336,"duration":200.8926562500128,"noteNumber":50,"velocity":115,"programNumber":29},{"time":186642.67050000338,"duration":200.8926562499837,"noteNumber":52,"velocity":115,"programNumber":29},{"time":186856.95600000338,"duration":629.4636562500091,"noteNumber":40,"velocity":115,"programNumber":29},{"time":187499.81250000338,"duration":200.8926562500128,"noteNumber":43,"velocity":115,"programNumber":29},{"time":187714.0980000034,"duration":200.8926562499837,"noteNumber":44,"velocity":115,"programNumber":29},{"time":187928.3835000034,"duration":200.8926562500128,"noteNumber":47,"velocity":115,"programNumber":29},{"time":188142.66900000343,"duration":200.8926562499837,"noteNumber":52,"velocity":115,"programNumber":29},{"time":188356.95450000343,"duration":629.4636562500091,"noteNumber":50,"velocity":115,"programNumber":29},{"time":188999.81100000345,"duration":200.8926562500128,"noteNumber":47,"velocity":115,"programNumber":29},{"time":189214.09650000348,"duration":415.17815625001094,"noteNumber":54,"velocity":115,"programNumber":29},{"time":189642.6675000035,"duration":200.8926562500128,"noteNumber":47,"velocity":115,"programNumber":29},{"time":189856.95300000353,"duration":200.8926562499837,"noteNumber":50,"velocity":115,"programNumber":29},{"time":190071.23850000353,"duration":200.8926562500128,"noteNumber":52,"velocity":115,"programNumber":29}]]}