{"tracks":[[{"time":20672.12,"duration":262.2949333333345,"noteNumber":45,"velocity":107,"programNumber":29},{"time":20918.0215,"duration":264.344112499999,"noteNumber":43,"velocity":95,"programNumber":29},{"time":21163.923,"duration":192.62284166666723,"noteNumber":45,"velocity":120,"programNumber":29},{"time":21409.8245,"duration":743.8520375000007,"noteNumber":48,"velocity":120,"programNumber":29},{"time":22147.529,"duration":182.3769458333336,"noteNumber":45,"velocity":111,"programNumber":29},{"time":22393.4305,"duration":180.3277666666654,"noteNumber":43,"velocity":95,"programNumber":29},{"time":22639.332,"duration":116.80321249999906,"noteNumber":45,"velocity":105,"programNumber":29},{"time":22885.2335,"duration":692.6225583333326,"noteNumber":50,"velocity":113,"programNumber":29},{"time":23622.938,"duration":213.1146333333345,"noteNumber":52,"velocity":103,"programNumber":29},{"time":23868.8395,"duration":178.27858750000087,"noteNumber":55,"velocity":99,"programNumber":29},{"time":24114.740999999998,"duration":110.65567500000179,"noteNumber":52,"velocity":100,"programNumber":29},{"time":24237.69175,"duration":90.16388333333452,"noteNumber":50,"velocity":104,"programNumber":29},{"time":24360.6425,"duration":200.81955833333268,"noteNumber":48,"velocity":114,"programNumber":29},{"time":24606.544,"duration":157.7867958333336,"noteNumber":50,"velocity":107,"programNumber":29},{"time":24852.4455,"duration":737.7044999999998,"noteNumber":43,"velocity":111,"programNumber":29},{"time":25590.15,"duration":215.16381249999904,"noteNumber":50,"velocity":100,"programNumber":29},{"time":25836.0515,"duration":659.8356916666671,"noteNumber":42,"velocity":113,"programNumber":29},{"time":26573.756,"duration":276.63918750000084,"noteNumber":45,"velocity":107,"programNumber":29},{"time":26819.6575,"duration":254.0982166666654,"noteNumber":43,"velocity":103,"programNumber":29},{"time":27065.559,"duration":184.42612499999814,"noteNumber":45,"velocity":103,"programNumber":29},{"time":27311.4605,"duration":711.0651708333316,"noteNumber":48,"velocity":110,"programNumber":29},{"time":28049.165,"duration":256.1473958333336,"noteNumber":45,"velocity":101,"programNumber":29},{"time":28295.0665,"duration":252.04903750000085,"noteNumber":43,"velocity":94,"programNumber":29},{"time":28540.968,"duration":147.54089999999997,"noteNumber":45,"velocity":106,"programNumber":29},{"time":28786.8695,"duration":725.4094250000016,"noteNumber":50,"velocity":119,"programNumber":29},{"time":29524.574000000004,"duration":211.0654541666663,"noteNumber":52,"velocity":101,"programNumber":29},{"time":29770.475500000004,"duration":206.9670958333336,"noteNumber":55,"velocity":95,"programNumber":29},{"time":30016.377000000004,"duration":110.65567500000179,"noteNumber":52,"velocity":91,"programNumber":29},{"time":30139.327750000008,"duration":92.21306249999907,"noteNumber":50,"velocity":97,"programNumber":29},{"time":30262.278500000008,"duration":252.04903750000085,"noteNumber":48,"velocity":105,"programNumber":29},{"time":30508.180000000008,"duration":180.32776666666905,"noteNumber":50,"velocity":112,"programNumber":29},{"time":30754.08150000001,"duration":739.753679166668,"noteNumber":43,"velocity":109,"programNumber":29},{"time":31491.78600000001,"duration":233.60642500000176,"noteNumber":50,"velocity":120,"programNumber":29},{"time":31737.687500000015,"duration":532.7865833333344,"noteNumber":42,"velocity":120,"programNumber":29},{"time":32475.392000000014,"duration":221.31134999999995,"noteNumber":40,"velocity":102,"programNumber":29},{"time":32475.392000000014,"duration":231.55724583333358,"noteNumber":47,"velocity":88,"programNumber":29},{"time":32803.26066666668,"duration":1059.425629166668,"noteNumber":47,"velocity":88,"programNumber":29},{"time":33950.80100000002,"duration":188.5244833333345,"noteNumber":62,"velocity":98,"programNumber":29},{"time":33950.80100000002,"duration":206.96709583333723,"noteNumber":67,"velocity":108,"programNumber":29},{"time":32803.26066666668,"duration":2198.769245833333,"noteNumber":40,"velocity":100,"programNumber":29},{"time":35262.275666666676,"duration":215.16381249998813,"noteNumber":40,"velocity":100,"programNumber":29},{"time":35426.21,"duration":118.85239166665997,"noteNumber":47,"velocity":114,"programNumber":29},{"time":34278.66966666669,"duration":1368.8516833332978,"noteNumber":62,"velocity":105,"programNumber":29},{"time":34278.66966666669,"duration":1370.9008624999624,"noteNumber":67,"velocity":118,"programNumber":29},{"time":35590.14433333332,"duration":143.4425416666636,"noteNumber":50,"velocity":97,"programNumber":29},{"time":35754.07866666665,"duration":120.90157083333179,"noteNumber":52,"velocity":91,"programNumber":29},{"time":35918.012999999984,"duration":196.72119999999995,"noteNumber":55,"velocity":101,"programNumber":29},{"time":36081.947333333315,"duration":172.1310500000036,"noteNumber":52,"velocity":91,"programNumber":29},{"time":36245.88166666665,"duration":149.5900791666645,"noteNumber":50,"velocity":107,"programNumber":29},{"time":36737.68466666665,"duration":1098.3600333333306,"noteNumber":47,"velocity":109,"programNumber":29},{"time":36409.815999999984,"duration":1465.1631041666697,"noteNumber":40,"velocity":98,"programNumber":29},{"time":37885.224999999984,"duration":219.26217083333177,"noteNumber":64,"velocity":103,"programNumber":29},{"time":37885.224999999984,"duration":227.45888749999722,"noteNumber":69,"velocity":105,"programNumber":29},{"time":39196.69966666663,"duration":221.3113499999963,"noteNumber":40,"velocity":109,"programNumber":29},{"time":39360.63399999996,"duration":108.60649583332997,"noteNumber":47,"velocity":108,"programNumber":29},{"time":39524.56833333329,"duration":143.4425416666636,"noteNumber":50,"velocity":85,"programNumber":29},{"time":38213.093666666646,"duration":1487.7040749999796,"noteNumber":62,"velocity":113,"programNumber":29},{"time":38213.093666666646,"duration":1502.048329166646,"noteNumber":67,"velocity":120,"programNumber":29},{"time":39688.50266666662,"duration":102.45895833333634,"noteNumber":52,"velocity":86,"programNumber":29},{"time":39852.43699999996,"duration":198.7703791666645,"noteNumber":55,"velocity":95,"programNumber":29},{"time":40016.37133333329,"duration":163.93433333333087,"noteNumber":52,"velocity":88,"programNumber":29},{"time":40180.30566666662,"duration":149.5900791666645,"noteNumber":50,"velocity":109,"programNumber":29},{"time":40344.239999999954,"duration":200.81955833333632,"noteNumber":40,"velocity":107,"programNumber":29},{"time":41819.648999999954,"duration":196.72119999999995,"noteNumber":62,"velocity":103,"programNumber":29},{"time":41819.648999999954,"duration":211.0654541666663,"noteNumber":67,"velocity":96,"programNumber":29},{"time":40672.10866666662,"duration":2288.933129166653,"noteNumber":40,"velocity":113,"programNumber":29},{"time":43131.12366666661,"duration":180.32776666666177,"noteNumber":40,"velocity":112,"programNumber":29},{"time":43295.05799999994,"duration":147.5408999999927,"noteNumber":47,"velocity":99,"programNumber":29},{"time":42147.51766666662,"duration":1397.5401916666378,"noteNumber":62,"velocity":107,"programNumber":29},{"time":42147.51766666662,"duration":1403.6877291666387,"noteNumber":67,"velocity":112,"programNumber":29},{"time":43458.99233333326,"duration":145.49172083333542,"noteNumber":50,"velocity":93,"programNumber":29},{"time":43622.9266666666,"duration":112.70485416666634,"noteNumber":52,"velocity":94,"programNumber":29},{"time":43786.86099999993,"duration":192.6228416666636,"noteNumber":55,"velocity":97,"programNumber":29},{"time":43950.79533333326,"duration":165.9835124999954,"noteNumber":52,"velocity":92,"programNumber":29},{"time":44114.72966666659,"duration":151.63925833332905,"noteNumber":50,"velocity":103,"programNumber":29},{"time":44278.663999999924,"duration":206.96709583332995,"noteNumber":40,"velocity":104,"programNumber":29},{"time":45754.07299999992,"duration":202.86873750000086,"noteNumber":64,"velocity":96,"programNumber":29},{"time":45754.07299999992,"duration":209.01627500000177,"noteNumber":69,"velocity":101,"programNumber":29},{"time":45754.07299999992,"duration":219.26217083333177,"noteNumber":47,"velocity":90,"programNumber":29},{"time":45754.07299999992,"duration":219.26217083333177,"noteNumber":52,"velocity":98,"programNumber":29},{"time":44606.532666666586,"duration":1379.0975791666642,"noteNumber":40,"velocity":114,"programNumber":29},{"time":47065.54766666658,"duration":34.83604583333363,"noteNumber":40,"velocity":107,"programNumber":29},{"time":47229.48199999991,"duration":122.95075000000361,"noteNumber":47,"velocity":99,"programNumber":29},{"time":46081.941666666586,"duration":1272.5402624999915,"noteNumber":62,"velocity":109,"programNumber":29},{"time":46081.941666666586,"duration":1299.1795916666597,"noteNumber":67,"velocity":105,"programNumber":29},{"time":47393.41633333325,"duration":122.95075000000361,"noteNumber":50,"velocity":97,"programNumber":29},{"time":47557.350666666585,"duration":104.50813750000088,"noteNumber":52,"velocity":85,"programNumber":29},{"time":47721.284999999916,"duration":200.81955833332904,"noteNumber":55,"velocity":97,"programNumber":29},{"time":47885.21933333325,"duration":147.54089999999997,"noteNumber":52,"velocity":86,"programNumber":29},{"time":48049.15366666658,"duration":157.78679583332996,"noteNumber":50,"velocity":107,"programNumber":29},{"time":48213.08799999991,"duration":252.04903750000085,"noteNumber":64,"velocity":103,"programNumber":29},{"time":48213.08799999991,"duration":284.83590416666993,"noteNumber":69,"velocity":113,"programNumber":29},{"time":48213.08799999991,"duration":309.42605416667357,"noteNumber":60,"velocity":98,"programNumber":29},{"time":48540.956666666585,"duration":262.29493333333085,"noteNumber":67,"velocity":106,"programNumber":29},{"time":48540.956666666585,"duration":307.37687499999447,"noteNumber":59,"velocity":101,"programNumber":29},{"time":48540.956666666585,"duration":329.9178458333263,"noteNumber":62,"velocity":85,"programNumber":29},{"time":48868.82533333325,"duration":225.40970833333267,"noteNumber":69,"velocity":109,"programNumber":29},{"time":48868.82533333325,"duration":286.8850833333345,"noteNumber":64,"velocity":110,"programNumber":29},{"time":48868.82533333325,"duration":311.4752333333381,"noteNumber":60,"velocity":101,"programNumber":29},{"time":49196.693999999916,"duration":288.934262499999,"noteNumber":71,"velocity":113,"programNumber":29},{"time":49196.693999999916,"duration":309.4260541666663,"noteNumber":67,"velocity":113,"programNumber":29},{"time":49196.693999999916,"duration":348.3604583333363,"noteNumber":62,"velocity":113,"programNumber":29},{"time":49524.562666666585,"duration":237.7047833333345,"noteNumber":69,"velocity":108,"programNumber":29},{"time":49524.562666666585,"duration":266.3932916666672,"noteNumber":65,"velocity":101,"programNumber":29},{"time":49524.562666666585,"duration":295.08179999999993,"noteNumber":60,"velocity":107,"programNumber":29},{"time":49852.431333333254,"duration":192.6228416666636,"noteNumber":71,"velocity":108,"programNumber":29},{"time":49852.431333333254,"duration":217.21299166666722,"noteNumber":67,"velocity":102,"programNumber":29},{"time":49852.431333333254,"duration":272.5408291666681,"noteNumber":62,"velocity":101,"programNumber":29},{"time":50180.29999999992,"duration":3665.9815291666673,"noteNumber":53,"velocity":94,"programNumber":29},{"time":50180.29999999992,"duration":3668.030708333332,"noteNumber":72,"velocity":112,"programNumber":29},{"time":50180.29999999992,"duration":3711.063470833331,"noteNumber":69,"velocity":99,"programNumber":29},{"time":50180.29999999992,"duration":3762.2929499999955,"noteNumber":64,"velocity":107,"programNumber":29},{"time":85590.11599999992,"duration":663.9340499999962,"noteNumber":52,"velocity":73,"programNumber":29},{"time":85590.11599999992,"duration":752.0487541666662,"noteNumber":45,"velocity":84,"programNumber":29},{"time":85590.11599999992,"duration":772.5405458333262,"noteNumber":57,"velocity":78,"programNumber":29},{"time":86573.72199999992,"duration":514.3439708333317,"noteNumber":48,"velocity":85,"programNumber":29},{"time":86573.72199999992,"duration":676.229124999998,"noteNumber":55,"velocity":65,"programNumber":29},{"time":87557.32799999992,"duration":606.5570333333308,"noteNumber":50,"velocity":68,"programNumber":29},{"time":87557.32799999992,"duration":690.5733791666571,"noteNumber":43,"velocity":72,"programNumber":29},{"time":88540.9339999999,"duration":553.278375000009,"noteNumber":41,"velocity":73,"programNumber":29},{"time":88786.83549999991,"duration":479.50792499999807,"noteNumber":53,"velocity":88,"programNumber":29},{"time":89524.5399999999,"duration":727.4586041666626,"noteNumber":45,"velocity":78,"programNumber":29},{"time":89524.5399999999,"duration":735.6553208333353,"noteNumber":52,"velocity":60,"programNumber":29},{"time":90508.1459999999,"duration":491.8029999999999,"noteNumber":48,"velocity":76,"programNumber":29},{"time":90508.1459999999,"duration":586.0652416666708,"noteNumber":55,"velocity":76,"programNumber":29},{"time":91737.65349999991,"duration":106.5573166666727,"noteNumber":50,"velocity":71,"programNumber":29},{"time":91737.65349999991,"duration":118.85239166667452,"noteNumber":43,"velocity":84,"programNumber":29},{"time":92229.45649999993,"duration":399.5899375000008,"noteNumber":50,"velocity":60,"programNumber":29},{"time":92229.45649999993,"duration":432.3768041666626,"noteNumber":43,"velocity":76,"programNumber":29},{"time":92967.16099999993,"duration":213.11463333333086,"noteNumber":50,"velocity":95,"programNumber":29},{"time":92721.25949999993,"duration":473.3603875000117,"noteNumber":43,"velocity":84,"programNumber":29},{"time":93213.06249999994,"duration":188.52448333332723,"noteNumber":55,"velocity":80,"programNumber":29},{"time":93458.96399999993,"duration":647.5406166666653,"noteNumber":45,"velocity":95,"programNumber":29},{"time":94442.56999999993,"duration":461.06531249999534,"noteNumber":55,"velocity":83,"programNumber":29},{"time":94442.56999999993,"duration":522.5406874999899,"noteNumber":48,"velocity":85,"programNumber":29},{"time":95426.17599999992,"duration":584.0160625000135,"noteNumber":50,"velocity":57,"programNumber":29},{"time":95426.17599999992,"duration":711.0651708333462,"noteNumber":43,"velocity":70,"programNumber":29},{"time":95672.07749999993,"duration":571.7209875000117,"noteNumber":55,"velocity":72,"programNumber":29},{"time":96409.78199999993,"duration":364.7538916666672,"noteNumber":41,"velocity":85,"programNumber":29},{"time":96655.68349999994,"duration":358.6063541666663,"noteNumber":53,"velocity":88,"programNumber":29},{"time":96901.58499999993,"duration":334.0162041666772,"noteNumber":41,"velocity":81,"programNumber":29},{"time":97393.38799999995,"duration":176.22940833333996,"noteNumber":53,"velocity":97,"programNumber":29},{"time":97393.38799999995,"duration":192.62284166667087,"noteNumber":41,"velocity":96,"programNumber":29},{"time":99360.59999999995,"duration":262.2949333333381,"noteNumber":45,"velocity":108,"programNumber":29},{"time":99606.50149999995,"duration":264.3441124999954,"noteNumber":43,"velocity":95,"programNumber":29},{"time":99852.40299999995,"duration":192.62284166667087,"noteNumber":45,"velocity":120,"programNumber":29},{"time":100098.30449999995,"duration":743.852037500008,"noteNumber":48,"velocity":120,"programNumber":29},{"time":100836.00899999996,"duration":182.37694583334087,"noteNumber":45,"velocity":114,"programNumber":29},{"time":101081.91049999997,"duration":180.32776666666905,"noteNumber":43,"velocity":96,"programNumber":29},{"time":101327.81199999998,"duration":116.8032125000027,"noteNumber":45,"velocity":105,"programNumber":29},{"time":101573.71349999998,"duration":692.6225583333289,"noteNumber":50,"velocity":113,"programNumber":29},{"time":102311.41799999998,"duration":213.11463333333086,"noteNumber":52,"velocity":99,"programNumber":29},{"time":102557.31949999997,"duration":178.27858749999723,"noteNumber":55,"velocity":95,"programNumber":29},{"time":102803.22099999996,"duration":110.65567500000179,"noteNumber":52,"velocity":99,"programNumber":29},{"time":102926.17174999996,"duration":90.16388333332725,"noteNumber":50,"velocity":106,"programNumber":29},{"time":103049.12249999995,"duration":200.81955833332904,"noteNumber":48,"velocity":115,"programNumber":29},{"time":103295.02399999995,"duration":157.78679583333724,"noteNumber":50,"velocity":107,"programNumber":29},{"time":103540.92549999995,"duration":737.7045000000071,"noteNumber":43,"velocity":113,"programNumber":29},{"time":104278.62999999996,"duration":215.16381250000268,"noteNumber":50,"velocity":101,"programNumber":29},{"time":104524.53149999997,"duration":659.8356916666671,"noteNumber":42,"velocity":114,"programNumber":29},{"time":105262.23599999998,"duration":276.63918750001176,"noteNumber":45,"velocity":107,"programNumber":29},{"time":105508.13749999998,"duration":254.09821666667995,"noteNumber":43,"velocity":104,"programNumber":29},{"time":105754.03899999999,"duration":184.4261250000127,"noteNumber":45,"velocity":102,"programNumber":29},{"time":105999.9405,"duration":711.0651708333316,"noteNumber":48,"velocity":113,"programNumber":29},{"time":106737.64499999999,"duration":256.1473958333372,"noteNumber":45,"velocity":101,"programNumber":29},{"time":106983.5465,"duration":252.04903749999357,"noteNumber":43,"velocity":90,"programNumber":29},{"time":107229.44799999999,"duration":147.54090000000724,"noteNumber":45,"velocity":105,"programNumber":29},{"time":107475.3495,"duration":725.4094250000053,"noteNumber":50,"velocity":120,"programNumber":29},{"time":108213.054,"duration":211.0654541666736,"noteNumber":52,"velocity":101,"programNumber":29},{"time":108458.95550000001,"duration":206.96709583332995,"noteNumber":55,"velocity":92,"programNumber":29},{"time":108704.857,"duration":110.65567500000179,"noteNumber":52,"velocity":93,"programNumber":29},{"time":108827.80775,"duration":92.21306249999907,"noteNumber":50,"velocity":95,"programNumber":29},{"time":108950.75850000001,"duration":252.04903750000813,"noteNumber":48,"velocity":107,"programNumber":29},{"time":109196.66000000002,"duration":180.32776666666905,"noteNumber":50,"velocity":112,"programNumber":29},{"time":109442.56150000003,"duration":739.7536791666789,"noteNumber":43,"velocity":108,"programNumber":29},{"time":110180.26600000003,"duration":233.6064250000054,"noteNumber":50,"velocity":119,"programNumber":29},{"time":110426.16750000004,"duration":532.7865833333344,"noteNumber":42,"velocity":120,"programNumber":29},{"time":142639.26400000005,"duration":663.9340500000108,"noteNumber":52,"velocity":72,"programNumber":29},{"time":142639.26400000005,"duration":752.0487541666662,"noteNumber":45,"velocity":82,"programNumber":29},{"time":142639.26400000005,"duration":772.5405458333262,"noteNumber":57,"velocity":80,"programNumber":29},{"time":143622.87000000005,"duration":514.3439708333462,"noteNumber":48,"velocity":84,"programNumber":29},{"time":143622.87000000005,"duration":676.2291250000126,"noteNumber":55,"velocity":65,"programNumber":29},{"time":144606.47600000005,"duration":606.5570333333453,"noteNumber":50,"velocity":68,"programNumber":29},{"time":144606.47600000005,"duration":690.5733791666862,"noteNumber":43,"velocity":73,"programNumber":29},{"time":145590.08200000008,"duration":553.2783749999944,"noteNumber":41,"velocity":75,"programNumber":29},{"time":145835.9835000001,"duration":479.5079249999835,"noteNumber":53,"velocity":88,"programNumber":29},{"time":146573.68800000008,"duration":727.4586041666626,"noteNumber":45,"velocity":78,"programNumber":29},{"time":146573.68800000008,"duration":735.6553208333207,"noteNumber":52,"velocity":60,"programNumber":29},{"time":147557.29400000008,"duration":491.80300000001444,"noteNumber":48,"velocity":76,"programNumber":29},{"time":147557.29400000008,"duration":586.0652416666853,"noteNumber":55,"velocity":76,"programNumber":29},{"time":148786.8015000001,"duration":106.5573166666727,"noteNumber":50,"velocity":67,"programNumber":29},{"time":148786.8015000001,"duration":118.85239166667452,"noteNumber":43,"velocity":81,"programNumber":29},{"time":149278.6045000001,"duration":399.58993749998626,"noteNumber":50,"velocity":62,"programNumber":29},{"time":149278.6045000001,"duration":432.37680416664807,"noteNumber":43,"velocity":76,"programNumber":29},{"time":150016.3090000001,"duration":213.1146333333454,"noteNumber":50,"velocity":97,"programNumber":29},{"time":149770.4075000001,"duration":473.36038750002626,"noteNumber":43,"velocity":84,"programNumber":29},{"time":150262.2105000001,"duration":188.52448333334178,"noteNumber":55,"velocity":81,"programNumber":29},{"time":150508.1120000001,"duration":647.5406166666653,"noteNumber":45,"velocity":93,"programNumber":29},{"time":151491.7180000001,"duration":461.06531249999534,"noteNumber":55,"velocity":85,"programNumber":29},{"time":151491.7180000001,"duration":522.5406875000044,"noteNumber":48,"velocity":84,"programNumber":29},{"time":152475.3240000001,"duration":584.0160625000135,"noteNumber":50,"velocity":54,"programNumber":29},{"time":152475.3240000001,"duration":711.0651708333462,"noteNumber":43,"velocity":68,"programNumber":29},{"time":152721.22550000012,"duration":571.7209875000117,"noteNumber":55,"velocity":72,"programNumber":29},{"time":153458.93000000014,"duration":364.75389166668174,"noteNumber":41,"velocity":89,"programNumber":29},{"time":153704.83150000015,"duration":358.6063541666663,"noteNumber":53,"velocity":91,"programNumber":29},{"time":153950.73300000015,"duration":334.01620416666265,"noteNumber":41,"velocity":83,"programNumber":29},{"time":154442.53600000014,"duration":176.22940833333996,"noteNumber":53,"velocity":95,"programNumber":29},{"time":154442.53600000014,"duration":192.62284166668542,"noteNumber":41,"velocity":99,"programNumber":29},{"time":158376.96000000017,"duration":227.45888749998994,"noteNumber":45,"velocity":96,"programNumber":29},{"time":158622.86150000014,"duration":143.44254166664905,"noteNumber":57,"velocity":90,"programNumber":29},{"time":158745.81225000013,"duration":124.99992916666088,"noteNumber":55,"velocity":84,"programNumber":29},{"time":158868.76300000012,"duration":104.50813750000088,"noteNumber":52,"velocity":91,"programNumber":29},{"time":158991.7137500001,"duration":114.75403333333088,"noteNumber":50,"velocity":103,"programNumber":29},{"time":159114.6645000001,"duration":92.21306249999907,"noteNumber":48,"velocity":95,"programNumber":29},{"time":159237.6152500001,"duration":90.16388333332725,"noteNumber":45,"velocity":105,"programNumber":29},{"time":159360.56600000008,"duration":165.98351250000997,"noteNumber":48,"velocity":100,"programNumber":29},{"time":159606.4675000001,"duration":282.78672500001267,"noteNumber":50,"velocity":90,"programNumber":29},{"time":160098.2705000001,"duration":245.90150000000722,"noteNumber":43,"velocity":110,"programNumber":29},{"time":160590.07350000012,"duration":284.8359041666554,"noteNumber":45,"velocity":107,"programNumber":29},{"time":161081.8765000001,"duration":172.13104999999632,"noteNumber":57,"velocity":100,"programNumber":29},{"time":161081.8765000001,"duration":186.47530416666996,"noteNumber":50,"velocity":105,"programNumber":29},{"time":161081.8765000001,"duration":190.5736625000136,"noteNumber":62,"velocity":107,"programNumber":29},{"time":161573.67950000011,"duration":747.9503958333225,"noteNumber":55,"velocity":98,"programNumber":29},{"time":161573.67950000011,"duration":752.0487541666662,"noteNumber":60,"velocity":105,"programNumber":29},{"time":161573.67950000011,"duration":752.0487541666662,"noteNumber":48,"velocity":110,"programNumber":29},{"time":162311.3840000001,"duration":215.16381250001723,"noteNumber":45,"velocity":104,"programNumber":29},{"time":162557.28550000011,"duration":143.44254166664905,"noteNumber":57,"velocity":84,"programNumber":29},{"time":162680.2362500001,"duration":118.85239166667452,"noteNumber":55,"velocity":81,"programNumber":29},{"time":162803.18700000012,"duration":120.90157083334634,"noteNumber":52,"velocity":86,"programNumber":29},{"time":162926.13775000014,"duration":88.11470416665543,"noteNumber":50,"velocity":89,"programNumber":29},{"time":163049.08850000013,"duration":84.01634583334089,"noteNumber":48,"velocity":97,"programNumber":29},{"time":163172.03925000015,"duration":84.01634583334089,"noteNumber":45,"velocity":101,"programNumber":29},{"time":163294.99000000017,"duration":206.96709583332995,"noteNumber":48,"velocity":96,"programNumber":29},{"time":163540.89150000017,"duration":190.5736625000136,"noteNumber":50,"velocity":101,"programNumber":29},{"time":164032.6945000002,"duration":245.90150000000722,"noteNumber":43,"velocity":106,"programNumber":29},{"time":164524.4975000002,"duration":362.7047125000099,"noteNumber":45,"velocity":114,"programNumber":29},{"time":165016.30050000022,"duration":1153.6878708333243,"noteNumber":62,"velocity":108,"programNumber":29},{"time":165016.30050000022,"duration":1157.786229166668,"noteNumber":50,"velocity":109,"programNumber":29},{"time":165016.30050000022,"duration":1184.4255583333434,"noteNumber":57,"velocity":102,"programNumber":29},{"time":166245.80800000022,"duration":227.45888749998994,"noteNumber":45,"velocity":95,"programNumber":29},{"time":166491.7095000002,"duration":143.44254166664905,"noteNumber":57,"velocity":93,"programNumber":29},{"time":166614.6602500002,"duration":124.99992916666088,"noteNumber":55,"velocity":84,"programNumber":29},{"time":166737.61100000018,"duration":104.50813750000088,"noteNumber":52,"velocity":92,"programNumber":29},{"time":166860.56175000017,"duration":114.75403333333088,"noteNumber":50,"velocity":103,"programNumber":29},{"time":166983.51250000016,"duration":92.21306249999907,"noteNumber":48,"velocity":99,"programNumber":29},{"time":167106.46325000015,"duration":90.16388333332725,"noteNumber":45,"velocity":107,"programNumber":29},{"time":167229.41400000014,"duration":165.98351250000997,"noteNumber":48,"velocity":103,"programNumber":29},{"time":167475.31550000014,"duration":282.78672500001267,"noteNumber":50,"velocity":93,"programNumber":29},{"time":167967.11850000016,"duration":245.90150000000722,"noteNumber":43,"velocity":105,"programNumber":29},{"time":168458.92150000017,"duration":284.8359041666554,"noteNumber":45,"velocity":106,"programNumber":29},{"time":168950.72450000016,"duration":165.98351250000997,"noteNumber":62,"velocity":105,"programNumber":29},{"time":168950.72450000016,"duration":180.3277666666836,"noteNumber":57,"velocity":105,"programNumber":29},{"time":168950.72450000016,"duration":194.67202083335724,"noteNumber":50,"velocity":101,"programNumber":29},{"time":169442.52750000017,"duration":741.8028583333362,"noteNumber":55,"velocity":107,"programNumber":29},{"time":169442.52750000017,"duration":741.8028583333362,"noteNumber":60,"velocity":115,"programNumber":29},{"time":169442.52750000017,"duration":754.097933333338,"noteNumber":48,"velocity":113,"programNumber":29},{"time":170180.23200000016,"duration":215.16381250001723,"noteNumber":45,"velocity":107,"programNumber":29},{"time":170426.13350000017,"duration":143.44254166664905,"noteNumber":57,"velocity":84,"programNumber":29},{"time":170549.08425000016,"duration":118.85239166667452,"noteNumber":55,"velocity":82,"programNumber":29},{"time":170672.03500000018,"duration":120.90157083334634,"noteNumber":52,"velocity":90,"programNumber":29},{"time":170794.9857500002,"duration":88.11470416665543,"noteNumber":50,"velocity":86,"programNumber":29},{"time":170917.93650000019,"duration":84.01634583334089,"noteNumber":48,"velocity":95,"programNumber":29},{"time":171040.8872500002,"duration":84.01634583334089,"noteNumber":45,"velocity":101,"programNumber":29},{"time":171163.83800000022,"duration":206.96709583332995,"noteNumber":48,"velocity":96,"programNumber":29},{"time":171409.73950000023,"duration":190.5736625000136,"noteNumber":50,"velocity":103,"programNumber":29},{"time":171901.54250000024,"duration":245.90150000000722,"noteNumber":43,"velocity":105,"programNumber":29},{"time":172393.34550000026,"duration":362.7047125000099,"noteNumber":45,"velocity":112,"programNumber":29},{"time":172885.14850000027,"duration":1004.0977916666598,"noteNumber":50,"velocity":108,"programNumber":29},{"time":172885.14850000027,"duration":1006.1469708333316,"noteNumber":57,"velocity":103,"programNumber":29},{"time":172885.14850000027,"duration":1012.2945083333179,"noteNumber":62,"velocity":108,"programNumber":29},{"time":174114.65600000025,"duration":225.40970833334723,"noteNumber":40,"velocity":98,"programNumber":29},{"time":174360.55750000026,"duration":225.40970833334723,"noteNumber":52,"velocity":107,"programNumber":29},{"time":174852.36050000027,"duration":225.40970833334723,"noteNumber":51,"velocity":100,"programNumber":29},{"time":175344.1635000003,"duration":225.40970833334723,"noteNumber":49,"velocity":96,"programNumber":29},{"time":175835.96650000033,"duration":225.40970833334723,"noteNumber":47,"velocity":101,"programNumber":29},{"time":176327.76950000034,"duration":225.40970833334723,"noteNumber":45,"velocity":105,"programNumber":29},{"time":176819.57250000036,"duration":225.40970833334723,"noteNumber":43,"velocity":108,"programNumber":29},{"time":177311.37550000037,"duration":350.4096375000081,"noteNumber":50,"velocity":118,"programNumber":29},{"time":177680.22775000037,"duration":350.4096375000663,"noteNumber":55,"velocity":117,"programNumber":29},{"time":178049.08000000045,"duration":225.40970833334723,"noteNumber":40,"velocity":98,"programNumber":29},{"time":178294.98150000046,"duration":225.40970833334723,"noteNumber":52,"velocity":110,"programNumber":29},{"time":178786.78450000047,"duration":225.40970833334723,"noteNumber":51,"velocity":101,"programNumber":29},{"time":179278.5875000005,"duration":225.40970833334723,"noteNumber":49,"velocity":101,"programNumber":29},{"time":179770.3905000005,"duration":225.40970833334723,"noteNumber":47,"velocity":105,"programNumber":29},{"time":180016.2920000005,"duration":225.40970833334723,"noteNumber":50,"velocity":102,"programNumber":29},{"time":180262.19350000052,"duration":225.40970833334723,"noteNumber":42,"velocity":113,"programNumber":29},{"time":180753.9965000006,"duration":225.40970833334723,"noteNumber":43,"velocity":108,"programNumber":29},{"time":181245.7995000006,"duration":225.40970833334723,"noteNumber":44,"velocity":107,"programNumber":29},{"time":181737.60250000062,"duration":225.40970833334723,"noteNumber":48,"velocity":109,"programNumber":29},{"time":181983.50400000063,"duration":227.45888749998994,"noteNumber":45,"velocity":95,"programNumber":29},{"time":182229.4055000006,"duration":143.44254166664905,"noteNumber":57,"velocity":93,"programNumber":29},{"time":182352.3562500006,"duration":124.99992916666088,"noteNumber":55,"velocity":87,"programNumber":29},{"time":182475.30700000058,"duration":104.50813750000088,"noteNumber":52,"velocity":95,"programNumber":29},{"time":182598.25775000057,"duration":114.75403333333088,"noteNumber":50,"velocity":100,"programNumber":29},{"time":182721.20850000056,"duration":92.21306249999907,"noteNumber":48,"velocity":96,"programNumber":29},{"time":182844.15925000055,"duration":90.16388333332725,"noteNumber":45,"velocity":107,"programNumber":29},{"time":182967.11000000054,"duration":165.98351250000997,"noteNumber":48,"velocity":101,"programNumber":29},{"time":183213.01150000055,"duration":282.78672500001267,"noteNumber":50,"velocity":91,"programNumber":29},{"time":183704.81450000056,"duration":245.90150000000722,"noteNumber":43,"velocity":104,"programNumber":29},{"time":184196.61750000058,"duration":284.8359041666554,"noteNumber":45,"velocity":107,"programNumber":29},{"time":184688.42050000056,"duration":172.13104999999632,"noteNumber":57,"velocity":104,"programNumber":29},{"time":184688.42050000056,"duration":186.47530416666996,"noteNumber":50,"velocity":105,"programNumber":29},{"time":184688.42050000056,"duration":190.5736625000136,"noteNumber":62,"velocity":105,"programNumber":29},{"time":185180.22350000057,"duration":747.9503958333225,"noteNumber":55,"velocity":101,"programNumber":29},{"time":185180.22350000057,"duration":752.0487541666662,"noteNumber":60,"velocity":107,"programNumber":29},{"time":185180.22350000057,"duration":752.0487541666662,"noteNumber":48,"velocity":108,"programNumber":29},{"time":185917.92800000057,"duration":215.16381250001723,"noteNumber":45,"velocity":107,"programNumber":29},{"time":186163.82950000057,"duration":143.44254166664905,"noteNumber":57,"velocity":86,"programNumber":29},{"time":186286.78025000056,"duration":118.85239166667452,"noteNumber":55,"velocity":82,"programNumber":29},{"time":186409.73100000058,"duration":120.90157083334634,"noteNumber":52,"velocity":90,"programNumber":29},{"time":186532.6817500006,"duration":88.11470416665543,"noteNumber":50,"velocity":88,"programNumber":29},{"time":186655.6325000006,"duration":84.01634583334089,"noteNumber":48,"velocity":98,"programNumber":29},{"time":186778.5832500006,"duration":84.01634583334089,"noteNumber":45,"velocity":101,"programNumber":29},{"time":186901.53400000063,"duration":206.96709583332995,"noteNumber":48,"velocity":98,"programNumber":29},{"time":187147.43550000063,"duration":190.5736625000136,"noteNumber":50,"velocity":101,"programNumber":29},{"time":187639.23850000065,"duration":245.90150000000722,"noteNumber":43,"velocity":107,"programNumber":29},{"time":188131.04150000066,"duration":362.7047125000099,"noteNumber":45,"velocity":115,"programNumber":29},{"time":188622.84450000068,"duration":1153.6878708333243,"noteNumber":62,"velocity":106,"programNumber":29},{"time":188622.84450000068,"duration":1157.786229166668,"noteNumber":50,"velocity":107,"programNumber":29},{"time":188622.84450000068,"duration":1184.4255583333434,"noteNumber":57,"velocity":101,"programNumber":29},{"time":189852.35200000068,"duration":227.45888749998994,"noteNumber":45,"velocity":96,"programNumber":29},{"time":190098.25350000066,"duration":143.44254166664905,"noteNumber":57,"velocity":91,"programNumber":29},{"time":190221.20425000065,"duration":124.99992916666088,"noteNumber":55,"velocity":84,"programNumber":29},{"time":190344.15500000064,"duration":104.50813750000088,"noteNumber":52,"velocity":94,"programNumber":29},{"time":190467.10575000063,"duration":114.75403333333088,"noteNumber":50,"velocity":101,"programNumber":29},{"time":190590.05650000062,"duration":92.21306249999907,"noteNumber":48,"velocity":96,"programNumber":29},{"time":190713.0072500006,"duration":90.16388333332725,"noteNumber":45,"velocity":104,"programNumber":29},{"time":190835.9580000006,"duration":165.98351250000997,"noteNumber":48,"velocity":101,"programNumber":29},{"time":191081.8595000006,"duration":282.78672500001267,"noteNumber":50,"velocity":94,"programNumber":29},{"time":191573.66250000062,"duration":245.90150000000722,"noteNumber":43,"velocity":106,"programNumber":29},{"time":192065.46550000063,"duration":284.8359041666554,"noteNumber":45,"velocity":107,"programNumber":29},{"time":192557.26850000062,"duration":165.98351250000997,"noteNumber":62,"velocity":106,"programNumber":29},{"time":192557.26850000062,"duration":180.3277666666836,"noteNumber":57,"velocity":106,"programNumber":29},{"time":192557.26850000062,"duration":194.67202083335724,"noteNumber":50,"velocity":101,"programNumber":29},{"time":193049.07150000063,"duration":741.8028583333362,"noteNumber":55,"velocity":108,"programNumber":29},{"time":193049.07150000063,"duration":741.8028583333362,"noteNumber":60,"velocity":112,"programNumber":29},{"time":193049.07150000063,"duration":754.097933333338,"noteNumber":48,"velocity":113,"programNumber":29},{"time":193786.77600000062,"duration":215.16381250001723,"noteNumber":45,"velocity":107,"programNumber":29},{"time":194032.67750000063,"duration":143.44254166664905,"noteNumber":57,"velocity":85,"programNumber":29},{"time":194155.62825000062,"duration":118.85239166667452,"noteNumber":55,"velocity":79,"programNumber":29},{"time":194278.57900000064,"duration":120.90157083334634,"noteNumber":52,"velocity":91,"programNumber":29},{"time":194401.52975000066,"duration":88.11470416665543,"noteNumber":50,"velocity":87,"programNumber":29},{"time":194524.48050000065,"duration":84.01634583334089,"noteNumber":48,"velocity":97,"programNumber":29},{"time":194647.43125000066,"duration":84.01634583334089,"noteNumber":45,"velocity":100,"programNumber":29},{"time":194770.38200000068,"duration":206.96709583332995,"noteNumber":48,"velocity":96,"programNumber":29},{"time":195016.2835000007,"duration":190.5736625000136,"noteNumber":50,"velocity":103,"programNumber":29},{"time":195508.0865000007,"duration":245.90150000000722,"noteNumber":43,"velocity":105,"programNumber":29},{"time":195999.88950000072,"duration":362.7047125000099,"noteNumber":45,"velocity":113,"programNumber":29},{"time":196491.69250000073,"duration":1004.0977916666598,"noteNumber":50,"velocity":105,"programNumber":29},{"time":196491.69250000073,"duration":1006.1469708333316,"noteNumber":57,"velocity":101,"programNumber":29},{"time":196491.69250000073,"duration":1012.2945083333179,"noteNumber":62,"velocity":106,"programNumber":29},{"time":197721.2000000007,"duration":225.40970833334723,"noteNumber":40,"velocity":101,"programNumber":29},{"time":197967.10150000072,"duration":225.40970833334723,"noteNumber":52,"velocity":106,"programNumber":29},{"time":198458.90450000073,"duration":225.40970833334723,"noteNumber":51,"velocity":102,"programNumber":29},{"time":198950.70750000075,"duration":225.40970833334723,"noteNumber":49,"velocity":95,"programNumber":29},{"time":199442.5105000008,"duration":225.40970833334723,"noteNumber":47,"velocity":101,"programNumber":29},{"time":199934.3135000008,"duration":225.40970833334723,"noteNumber":45,"velocity":105,"programNumber":29},{"time":200426.11650000082,"duration":225.40970833334723,"noteNumber":43,"velocity":107,"programNumber":29},{"time":200917.91950000083,"duration":350.4096375000081,"noteNumber":50,"velocity":119,"programNumber":29},{"time":201286.77175000083,"duration":350.4096375000663,"noteNumber":55,"velocity":120,"programNumber":29},{"time":201655.6240000009,"duration":225.40970833334723,"noteNumber":40,"velocity":96,"programNumber":29},{"time":201901.52550000092,"duration":225.40970833334723,"noteNumber":52,"velocity":106,"programNumber":29},{"time":202393.32850000093,"duration":225.40970833334723,"noteNumber":51,"velocity":98,"programNumber":29},{"time":202885.13150000095,"duration":225.40970833334723,"noteNumber":49,"velocity":102,"programNumber":29},{"time":203376.93450000096,"duration":225.40970833334723,"noteNumber":47,"velocity":108,"programNumber":29},{"time":203622.83600000097,"duration":225.40970833334723,"noteNumber":50,"velocity":100,"programNumber":29},{"time":203868.73750000098,"duration":225.40970833334723,"noteNumber":42,"velocity":114,"programNumber":29},{"time":204360.54050000105,"duration":225.40970833334723,"noteNumber":43,"velocity":107,"programNumber":29},{"time":204852.34350000106,"duration":225.40970833334723,"noteNumber":44,"velocity":107,"programNumber":29},{"time":205344.14650000108,"duration":225.40970833334723,"noteNumber":48,"velocity":104,"programNumber":29},{"time":221327.74400000108,"duration":225.40970833334723,"noteNumber":40,"velocity":101,"programNumber":29},{"time":221573.6455000011,"duration":225.40970833334723,"noteNumber":52,"velocity":108,"programNumber":29},{"time":222065.4485000011,"duration":225.40970833334723,"noteNumber":51,"velocity":99,"programNumber":29},{"time":222557.25150000112,"duration":225.40970833334723,"noteNumber":49,"velocity":95,"programNumber":29},{"time":223049.05450000116,"duration":225.40970833334723,"noteNumber":47,"velocity":102,"programNumber":29},{"time":223540.85750000118,"duration":225.40970833334723,"noteNumber":45,"velocity":107,"programNumber":29},{"time":224032.6605000012,"duration":225.40970833334723,"noteNumber":43,"velocity":108,"programNumber":29},{"time":224524.4635000012,"duration":350.4096375000081,"noteNumber":50,"velocity":120,"programNumber":29},{"time":224893.3157500012,"duration":350.4096375000663,"noteNumber":55,"velocity":119,"programNumber":29},{"time":225262.1680000013,"duration":225.40970833334723,"noteNumber":40,"velocity":96,"programNumber":29},{"time":225508.0695000013,"duration":225.40970833334723,"noteNumber":52,"velocity":106,"programNumber":29},{"time":225999.8725000013,"duration":225.40970833334723,"noteNumber":51,"velocity":101,"programNumber":29},{"time":226491.67550000132,"duration":225.40970833334723,"noteNumber":49,"velocity":101,"programNumber":29},{"time":226983.47850000134,"duration":225.40970833334723,"noteNumber":47,"velocity":107,"programNumber":29},{"time":227229.38000000134,"duration":225.40970833334723,"noteNumber":50,"velocity":99,"programNumber":29},{"time":227475.28150000135,"duration":225.40970833334723,"noteNumber":42,"velocity":113,"programNumber":29},{"time":227967.08450000142,"duration":225.40970833334723,"noteNumber":43,"velocity":106,"programNumber":29},{"time":228458.88750000144,"duration":225.40970833334723,"noteNumber":44,"velocity":104,"programNumber":29},{"time":228950.69050000145,"duration":225.40970833334723,"noteNumber":48,"velocity":109,"programNumber":29},{"time":237065.44000000146,"duration":217.21299166668905,"noteNumber":79,"velocity":120,"programNumber":29},{"time":237557.2430000015,"duration":180.3277666666545,"noteNumber":79,"velocity":114,"programNumber":29},{"time":238049.0460000015,"duration":184.42612499999814,"noteNumber":78,"velocity":104,"programNumber":29},{"time":238540.84900000147,"duration":153.68843750000815,"noteNumber":76,"velocity":101,"programNumber":29},{"time":239055.19297083482,"duration":106.5573166666727,"noteNumber":74,"velocity":120,"programNumber":29},{"time":239276.50432083482,"duration":94.26224166667089,"noteNumber":71,"velocity":101,"programNumber":29},{"time":239370.7665625015,"duration":102.45895833335817,"noteNumber":74,"velocity":88,"programNumber":29},{"time":239469.1271625015,"duration":67.62291250002454,"noteNumber":71,"velocity":101,"programNumber":29},{"time":239563.3894041682,"duration":217.21299166668905,"noteNumber":69,"velocity":120,"programNumber":29},{"time":239764.20896250155,"duration":198.77037916667177,"noteNumber":71,"velocity":95,"programNumber":29},{"time":240061.33994166824,"duration":96.31142083334271,"noteNumber":69,"velocity":114,"programNumber":29},{"time":240276.50375416825,"duration":114.75403333333088,"noteNumber":69,"velocity":101,"programNumber":29},{"time":240366.66763750158,"duration":79.91798749999725,"noteNumber":67,"velocity":108,"programNumber":29},{"time":240477.32331250157,"duration":108.60649583334452,"noteNumber":64,"velocity":98,"programNumber":29},{"time":240631.01175000158,"duration":303.27851666667266,"noteNumber":67,"velocity":120,"programNumber":29},{"time":240631.01175000158,"duration":307.3768750000163,"noteNumber":62,"velocity":106,"programNumber":29},{"time":241258.06057500158,"duration":77.86880833332543,"noteNumber":64,"velocity":113,"programNumber":29},{"time":241479.3719250016,"duration":77.86880833332543,"noteNumber":67,"velocity":120,"programNumber":29},{"time":241688.3882000016,"duration":65.57373333332362,"noteNumber":67,"velocity":96,"programNumber":29},{"time":241770.35536666826,"duration":102.45895833332906,"noteNumber":69,"velocity":84,"programNumber":29},{"time":241842.0766375016,"duration":73.77044999998179,"noteNumber":67,"velocity":108,"programNumber":29},{"time":241936.33887916824,"duration":270.49165000001085,"noteNumber":64,"velocity":119,"programNumber":29},{"time":242204.78135000158,"duration":141.39336250000633,"noteNumber":67,"velocity":120,"programNumber":29},{"time":242471.17464166824,"duration":69.67209166666726,"noteNumber":67,"velocity":104,"programNumber":29},{"time":242555.19098750158,"duration":102.45895833335817,"noteNumber":69,"velocity":77,"programNumber":29},{"time":242641.2565125016,"duration":98.36060000001453,"noteNumber":67,"velocity":107,"programNumber":29},{"time":242747.81382916827,"duration":219.26217083333177,"noteNumber":64,"velocity":120,"programNumber":29},{"time":242995.76450833495,"duration":178.27858750001178,"noteNumber":67,"velocity":120,"programNumber":29},{"time":243212.97750000164,"duration":141.39336250000633,"noteNumber":63,"velocity":120,"programNumber":29},{"time":243458.87900000165,"duration":127.0491083333327,"noteNumber":62,"velocity":107,"programNumber":29},{"time":243704.78050000165,"duration":168.03269166665268,"noteNumber":59,"velocity":105,"programNumber":29},{"time":243950.68200000163,"duration":194.67202083332813,"noteNumber":62,"velocity":101,"programNumber":29},{"time":244196.58350000164,"duration":170.0818708333245,"noteNumber":57,"velocity":101,"programNumber":29},{"time":244442.48500000162,"duration":188.52448333334178,"noteNumber":59,"velocity":98,"programNumber":29},{"time":244688.38650000162,"duration":155.73761666667997,"noteNumber":55,"velocity":120,"programNumber":29},{"time":244934.28800000163,"duration":217.21299166668905,"noteNumber":79,"velocity":119,"programNumber":29},{"time":245426.09100000167,"duration":180.3277666666545,"noteNumber":79,"velocity":113,"programNumber":29},{"time":245917.89400000166,"duration":184.42612499999814,"noteNumber":78,"velocity":108,"programNumber":29},{"time":246409.69700000164,"duration":153.68843750000815,"noteNumber":76,"velocity":101,"programNumber":29},{"time":246924.040970835,"duration":106.5573166666727,"noteNumber":74,"velocity":120,"programNumber":29},{"time":247145.352320835,"duration":94.26224166667089,"noteNumber":71,"velocity":101,"programNumber":29},{"time":247239.61456250167,"duration":102.45895833335817,"noteNumber":74,"velocity":89,"programNumber":29},{"time":247337.97516250168,"duration":67.62291250002454,"noteNumber":71,"velocity":99,"programNumber":29},{"time":247432.23740416838,"duration":217.21299166668905,"noteNumber":69,"velocity":119,"programNumber":29},{"time":247633.05696250172,"duration":198.77037916667177,"noteNumber":71,"velocity":98,"programNumber":29},{"time":247930.1879416684,"duration":96.31142083334271,"noteNumber":69,"velocity":113,"programNumber":29},{"time":248145.35175416843,"duration":114.75403333333088,"noteNumber":69,"velocity":100,"programNumber":29},{"time":248235.51563750175,"duration":79.91798749999725,"noteNumber":67,"velocity":104,"programNumber":29},{"time":248346.17131250174,"duration":108.60649583334452,"noteNumber":64,"velocity":96,"programNumber":29},{"time":248499.85975000175,"duration":303.27851666667266,"noteNumber":67,"velocity":120,"programNumber":29},{"time":248499.85975000175,"duration":307.3768750000163,"noteNumber":62,"velocity":109,"programNumber":29},{"time":249126.90857500175,"duration":77.86880833332543,"noteNumber":64,"velocity":113,"programNumber":29},{"time":249348.21992500176,"duration":77.86880833332543,"noteNumber":67,"velocity":120,"programNumber":29},{"time":249557.23620000176,"duration":65.57373333332362,"noteNumber":67,"velocity":96,"programNumber":29},{"time":249639.20336666843,"duration":102.45895833332906,"noteNumber":69,"velocity":85,"programNumber":29},{"time":249710.92463750177,"duration":73.77044999998179,"noteNumber":67,"velocity":106,"programNumber":29},{"time":249805.1868791684,"duration":270.49165000001085,"noteNumber":64,"velocity":120,"programNumber":29},{"time":250073.62935000175,"duration":141.39336250000633,"noteNumber":67,"velocity":120,"programNumber":29},{"time":250340.02264166842,"duration":69.67209166666726,"noteNumber":67,"velocity":102,"programNumber":29},{"time":250424.03898750176,"duration":102.45895833335817,"noteNumber":69,"velocity":76,"programNumber":29},{"time":250510.10451250177,"duration":98.36060000001453,"noteNumber":67,"velocity":108,"programNumber":29},{"time":250616.66182916844,"duration":219.26217083333177,"noteNumber":64,"velocity":120,"programNumber":29},{"time":250864.61250833512,"duration":178.27858750001178,"noteNumber":67,"velocity":120,"programNumber":29},{"time":251081.8255000018,"duration":141.39336250000633,"noteNumber":63,"velocity":120,"programNumber":29},{"time":251327.72700000182,"duration":127.0491083333327,"noteNumber":62,"velocity":108,"programNumber":29},{"time":251573.62850000183,"duration":168.03269166665268,"noteNumber":59,"velocity":106,"programNumber":29},{"time":251819.5300000018,"duration":194.67202083332813,"noteNumber":62,"velocity":103,"programNumber":29},{"time":252065.4315000018,"duration":170.0818708333245,"noteNumber":57,"velocity":100,"programNumber":29},{"time":252311.3330000018,"duration":188.52448333334178,"noteNumber":59,"velocity":98,"programNumber":29},{"time":252557.2345000018,"duration":155.73761666667997,"noteNumber":55,"velocity":120,"programNumber":29},{"time":252803.1360000018,"duration":262.2949333333527,"noteNumber":45,"velocity":107,"programNumber":29},{"time":253049.0375000018,"duration":264.3441124999954,"noteNumber":43,"velocity":96,"programNumber":29},{"time":253294.93900000182,"duration":192.6228416666563,"noteNumber":45,"velocity":120,"programNumber":29},{"time":253540.8405000018,"duration":743.8520374999789,"noteNumber":48,"velocity":120,"programNumber":29},{"time":254278.5450000018,"duration":182.37694583332632,"noteNumber":45,"velocity":112,"programNumber":29},{"time":254524.4465000018,"duration":180.3277666666545,"noteNumber":43,"velocity":98,"programNumber":29},{"time":254770.34800000177,"duration":116.8032125000027,"noteNumber":45,"velocity":109,"programNumber":29},{"time":255016.24950000178,"duration":692.6225583333289,"noteNumber":50,"velocity":113,"programNumber":29},{"time":255753.95400000177,"duration":213.1146333333454,"noteNumber":52,"velocity":101,"programNumber":29},{"time":255999.85550000178,"duration":178.27858750001178,"noteNumber":55,"velocity":95,"programNumber":29},{"time":256245.7570000018,"duration":110.65567499998724,"noteNumber":52,"velocity":101,"programNumber":29},{"time":256368.70775000178,"duration":90.16388333332725,"noteNumber":50,"velocity":107,"programNumber":29},{"time":256491.65850000177,"duration":200.8195583333436,"noteNumber":48,"velocity":113,"programNumber":29},{"time":256737.56000000177,"duration":157.78679583332269,"noteNumber":50,"velocity":107,"programNumber":29},{"time":256983.46150000175,"duration":737.7044999999925,"noteNumber":43,"velocity":113,"programNumber":29},{"time":257721.16600000174,"duration":215.16381249998813,"noteNumber":50,"velocity":104,"programNumber":29},{"time":257967.06750000172,"duration":659.8356916666671,"noteNumber":42,"velocity":113,"programNumber":29},{"time":258704.7720000017,"duration":276.6391874999972,"noteNumber":45,"velocity":105,"programNumber":29},{"time":258950.67350000172,"duration":254.0982166666363,"noteNumber":43,"velocity":103,"programNumber":29},{"time":259196.5750000017,"duration":184.42612499999814,"noteNumber":45,"velocity":101,"programNumber":29},{"time":259442.4765000017,"duration":711.0651708333462,"noteNumber":48,"velocity":113,"programNumber":29},{"time":260180.18100000173,"duration":256.1473958333372,"noteNumber":45,"velocity":102,"programNumber":29},{"time":260426.08250000174,"duration":252.04903749999357,"noteNumber":43,"velocity":94,"programNumber":29},{"time":260671.98400000174,"duration":147.5408999999927,"noteNumber":45,"velocity":106,"programNumber":29},{"time":260917.88550000175,"duration":725.4094249999907,"noteNumber":50,"velocity":118,"programNumber":29},{"time":261655.59000000174,"duration":211.0654541666736,"noteNumber":52,"velocity":101,"programNumber":29},{"time":261901.49150000175,"duration":206.96709583332995,"noteNumber":55,"velocity":92,"programNumber":29},{"time":262147.3930000017,"duration":110.65567499998724,"noteNumber":52,"velocity":92,"programNumber":29},{"time":262270.3437500017,"duration":92.21306249999907,"noteNumber":50,"velocity":96,"programNumber":29},{"time":262393.2945000017,"duration":252.04903749999357,"noteNumber":48,"velocity":105,"programNumber":29},{"time":262639.1960000017,"duration":180.3277666666545,"noteNumber":50,"velocity":113,"programNumber":29},{"time":262885.09750000166,"duration":739.7536791666644,"noteNumber":43,"velocity":104,"programNumber":29},{"time":263622.80200000165,"duration":233.6064250000054,"noteNumber":50,"velocity":120,"programNumber":29},{"time":263868.70350000163,"duration":532.7865833333344,"noteNumber":42,"velocity":120,"programNumber":29},{"time":264606.4080000016,"duration":159.8359749999945,"noteNumber":57,"velocity":97,"programNumber":29},{"time":264606.4080000016,"duration":170.0818708333536,"noteNumber":45,"velocity":107,"programNumber":29},{"time":264606.4080000016,"duration":174.18022916669725,"noteNumber":52,"velocity":103,"programNumber":29},{"time":264852.30950000166,"duration":178.27858749998268,"noteNumber":57,"velocity":96,"programNumber":29},{"time":264852.30950000166,"duration":184.42612499999814,"noteNumber":45,"velocity":105,"programNumber":29},{"time":264852.30950000166,"duration":188.52448333334178,"noteNumber":52,"velocity":97,"programNumber":29},{"time":266081.81700000167,"duration":198.77037916664267,"noteNumber":50,"velocity":103,"programNumber":29},{"time":266081.81700000167,"duration":219.26217083330266,"noteNumber":43,"velocity":95,"programNumber":29},{"time":266081.81700000167,"duration":225.40970833331812,"noteNumber":55,"velocity":100,"programNumber":29},{"time":266573.6200000016,"duration":524.5898666666471,"noteNumber":53,"velocity":103,"programNumber":29},{"time":266573.6200000016,"duration":709.0159916666453,"noteNumber":48,"velocity":101,"programNumber":29},{"time":266573.6200000016,"duration":743.8520374999498,"noteNumber":41,"velocity":108,"programNumber":29},{"time":267557.2260000016,"duration":209.01627500000177,"noteNumber":57,"velocity":107,"programNumber":29},{"time":267803.1275000016,"duration":215.16381250001723,"noteNumber":55,"velocity":101,"programNumber":29},{"time":268049.0290000016,"duration":227.45888749998994,"noteNumber":57,"velocity":94,"programNumber":29},{"time":268294.9305000016,"duration":153.68843749997905,"noteNumber":59,"velocity":102,"programNumber":29},{"time":268540.83200000157,"duration":159.8359749999945,"noteNumber":57,"velocity":95,"programNumber":29},{"time":268540.83200000157,"duration":170.0818708333536,"noteNumber":45,"velocity":107,"programNumber":29},{"time":268540.83200000157,"duration":174.18022916669725,"noteNumber":52,"velocity":99,"programNumber":29},{"time":268786.7335000016,"duration":178.27858749998268,"noteNumber":57,"velocity":97,"programNumber":29},{"time":268786.7335000016,"duration":184.42612499999814,"noteNumber":45,"velocity":106,"programNumber":29},{"time":268786.7335000016,"duration":188.52448333334178,"noteNumber":52,"velocity":96,"programNumber":29},{"time":270016.2410000016,"duration":198.77037916664267,"noteNumber":50,"velocity":101,"programNumber":29},{"time":270016.2410000016,"duration":219.26217083330266,"noteNumber":43,"velocity":95,"programNumber":29},{"time":270016.2410000016,"duration":225.40970833331812,"noteNumber":55,"velocity":101,"programNumber":29},{"time":270508.04400000157,"duration":524.5898666666471,"noteNumber":53,"velocity":101,"programNumber":29},{"time":270508.04400000157,"duration":709.0159916666453,"noteNumber":48,"velocity":101,"programNumber":29},{"time":270508.04400000157,"duration":743.8520374999498,"noteNumber":41,"velocity":107,"programNumber":29},{"time":271491.65000000154,"duration":209.01627500000177,"noteNumber":57,"velocity":104,"programNumber":29},{"time":271737.5515000015,"duration":215.16381250001723,"noteNumber":55,"velocity":103,"programNumber":29},{"time":271983.45300000155,"duration":227.45888749998994,"noteNumber":57,"velocity":94,"programNumber":29},{"time":272229.35450000153,"duration":153.68843749997905,"noteNumber":59,"velocity":99,"programNumber":29},{"time":272475.2560000015,"duration":672.1307666666689,"noteNumber":57,"velocity":71,"programNumber":29},{"time":272475.2560000015,"duration":756.1471124999807,"noteNumber":50,"velocity":88,"programNumber":29},{"time":272475.2560000015,"duration":776.6389041666407,"noteNumber":62,"velocity":94,"programNumber":29},{"time":273458.8620000015,"duration":366.80307083332445,"noteNumber":55,"velocity":74,"programNumber":29},{"time":273458.8620000015,"duration":481.55710416665534,"noteNumber":60,"velocity":83,"programNumber":29},{"time":273458.8620000015,"duration":522.5406874999753,"noteNumber":48,"velocity":83,"programNumber":29},{"time":274688.3695000014,"duration":317.6227708333172,"noteNumber":53,"velocity":84,"programNumber":29},{"time":274934.2710000014,"duration":229.50806666666176,"noteNumber":58,"velocity":68,"programNumber":29},{"time":275180.1725000014,"duration":268.4424708333099,"noteNumber":53,"velocity":72,"programNumber":29},{"time":274442.46800000145,"duration":1032.7862999999197,"noteNumber":46,"velocity":102,"programNumber":29},{"time":275426.07400000136,"duration":256.1473958333954,"noteNumber":58,"velocity":92,"programNumber":29},{"time":275671.9755000014,"duration":188.52448333334178,"noteNumber":53,"velocity":84,"programNumber":29},{"time":275917.87700000143,"duration":305.32769583328627,"noteNumber":48,"velocity":100,"programNumber":29},{"time":276163.7785000014,"duration":237.70478333329083,"noteNumber":60,"velocity":97,"programNumber":29},{"time":276409.6800000014,"duration":698.7700958332862,"noteNumber":50,"velocity":107,"programNumber":29},{"time":276655.58150000137,"duration":479.5079249999835,"noteNumber":62,"velocity":101,"programNumber":29},{"time":277393.28600000136,"duration":598.360316666658,"noteNumber":48,"velocity":96,"programNumber":29},{"time":277639.18750000134,"duration":368.8522499999963,"noteNumber":60,"velocity":99,"programNumber":29},{"time":278376.89200000133,"duration":307.3768749999581,"noteNumber":55,"velocity":76,"programNumber":29},{"time":278622.7935000013,"duration":129.0982874999754,"noteNumber":43,"velocity":85,"programNumber":29},{"time":278868.6950000013,"duration":65.57373333332362,"noteNumber":55,"velocity":58,"programNumber":29},{"time":278868.6950000013,"duration":81.96716666663997,"noteNumber":43,"velocity":85,"programNumber":29},{"time":279114.59650000127,"duration":360.655533333309,"noteNumber":43,"velocity":101,"programNumber":29},{"time":279114.59650000127,"duration":508.1964333332726,"noteNumber":55,"velocity":93,"programNumber":29},{"time":279606.3995000012,"duration":305.32769583328627,"noteNumber":43,"velocity":114,"programNumber":29},{"time":279852.3010000012,"duration":235.655604166619,"noteNumber":55,"velocity":101,"programNumber":29},{"time":280098.2025000012,"duration":133.19664583331905,"noteNumber":43,"velocity":103,"programNumber":29},{"time":280344.10400000116,"duration":663.9340499999817,"noteNumber":52,"velocity":71,"programNumber":29},{"time":280344.10400000116,"duration":752.0487541666371,"noteNumber":45,"velocity":84,"programNumber":29},{"time":280344.10400000116,"duration":772.5405458332971,"noteNumber":57,"velocity":78,"programNumber":29},{"time":281327.7100000011,"duration":514.3439708333462,"noteNumber":48,"velocity":84,"programNumber":29},{"time":281327.7100000011,"duration":676.2291250000126,"noteNumber":55,"velocity":64,"programNumber":29},{"time":282311.31600000116,"duration":606.5570333333453,"noteNumber":50,"velocity":68,"programNumber":29},{"time":282311.31600000116,"duration":690.5733791666571,"noteNumber":43,"velocity":71,"programNumber":29},{"time":283294.9220000011,"duration":553.2783749999944,"noteNumber":41,"velocity":75,"programNumber":29},{"time":283540.8235000011,"duration":479.5079250000417,"noteNumber":53,"velocity":88,"programNumber":29},{"time":284278.52800000116,"duration":727.4586041666917,"noteNumber":45,"velocity":80,"programNumber":29},{"time":284278.52800000116,"duration":735.6553208333789,"noteNumber":52,"velocity":61,"programNumber":29},{"time":285262.1340000012,"duration":491.80300000001444,"noteNumber":48,"velocity":78,"programNumber":29},{"time":285262.1340000012,"duration":586.0652416666853,"noteNumber":55,"velocity":78,"programNumber":29},{"time":286491.6415000012,"duration":106.5573166666436,"noteNumber":50,"velocity":68,"programNumber":29},{"time":286491.6415000012,"duration":118.85239166661631,"noteNumber":43,"velocity":84,"programNumber":29},{"time":286983.44450000115,"duration":399.58993750001537,"noteNumber":50,"velocity":61,"programNumber":29},{"time":286983.44450000115,"duration":432.3768041667063,"noteNumber":43,"velocity":78,"programNumber":29},{"time":287721.14900000114,"duration":213.1146333333454,"noteNumber":50,"velocity":96,"programNumber":29},{"time":287475.24750000116,"duration":473.36038749996806,"noteNumber":43,"velocity":83,"programNumber":29},{"time":287967.0505000011,"duration":188.52448333334178,"noteNumber":55,"velocity":80,"programNumber":29},{"time":288212.95200000115,"duration":647.5406166666653,"noteNumber":45,"velocity":93,"programNumber":29},{"time":289196.5580000011,"duration":461.06531249999534,"noteNumber":55,"velocity":83,"programNumber":29},{"time":289196.5580000011,"duration":522.5406874999753,"noteNumber":48,"velocity":82,"programNumber":29},{"time":290180.1640000011,"duration":584.0160624999553,"noteNumber":50,"velocity":56,"programNumber":29},{"time":290180.1640000011,"duration":711.0651708333171,"noteNumber":43,"velocity":71,"programNumber":29},{"time":290426.0655000011,"duration":571.7209874999826,"noteNumber":55,"velocity":72,"programNumber":29},{"time":291163.77000000107,"duration":364.75389166665263,"noteNumber":41,"velocity":90,"programNumber":29},{"time":291409.67150000104,"duration":358.6063541666954,"noteNumber":53,"velocity":89,"programNumber":29},{"time":291655.5730000011,"duration":334.01620416663354,"noteNumber":41,"velocity":80,"programNumber":29},{"time":292147.37600000104,"duration":176.22940833331086,"noteNumber":53,"velocity":94,"programNumber":29},{"time":292147.37600000104,"duration":192.6228416666272,"noteNumber":41,"velocity":97,"programNumber":29},{"time":295098.194000001,"duration":221.31134999997448,"noteNumber":40,"velocity":103,"programNumber":29},{"time":295098.194000001,"duration":231.55724583333358,"noteNumber":47,"velocity":85,"programNumber":29},{"time":295426.0626666677,"duration":1059.4256291666534,"noteNumber":47,"velocity":85,"programNumber":29},{"time":296573.603000001,"duration":188.52448333334178,"noteNumber":62,"velocity":104,"programNumber":29},{"time":296573.603000001,"duration":206.96709583332995,"noteNumber":67,"velocity":107,"programNumber":29},{"time":295426.0626666677,"duration":2198.7692458331003,"noteNumber":40,"velocity":102,"programNumber":29},{"time":297885.07766666735,"duration":215.1638124998426,"noteNumber":40,"velocity":102,"programNumber":29},{"time":298049.01200000057,"duration":118.85239166661631,"noteNumber":47,"velocity":115,"programNumber":29},{"time":296901.47166666767,"duration":1368.8516833328758,"noteNumber":62,"velocity":107,"programNumber":29},{"time":296901.47166666767,"duration":1370.9008624995477,"noteNumber":67,"velocity":120,"programNumber":29},{"time":298212.94633333385,"duration":143.44254166667815,"noteNumber":50,"velocity":97,"programNumber":29},{"time":298376.8806666672,"duration":120.90157083334634,"noteNumber":52,"velocity":88,"programNumber":29},{"time":298540.8150000005,"duration":196.72120000002906,"noteNumber":55,"velocity":98,"programNumber":29},{"time":298704.74933333386,"duration":172.13105000002543,"noteNumber":52,"velocity":93,"programNumber":29},{"time":298868.6836666672,"duration":149.5900791666936,"noteNumber":50,"velocity":107,"programNumber":29},{"time":299360.4866666672,"duration":1098.3600333333598,"noteNumber":47,"velocity":106,"programNumber":29},{"time":299032.61800000054,"duration":1465.1631041666842,"noteNumber":40,"velocity":101,"programNumber":29},{"time":300508.0270000006,"duration":219.26217083336087,"noteNumber":64,"velocity":101,"programNumber":29},{"time":300508.0270000006,"duration":227.45888750004815,"noteNumber":69,"velocity":108,"programNumber":29},{"time":301819.5016666672,"duration":221.31134999997448,"noteNumber":40,"velocity":107,"programNumber":29},{"time":301983.43600000045,"duration":108.60649583337363,"noteNumber":47,"velocity":104,"programNumber":29},{"time":302147.3703333338,"duration":143.44254166667815,"noteNumber":50,"velocity":87,"programNumber":29},{"time":300835.8956666673,"duration":1487.7040749997832,"noteNumber":62,"velocity":114,"programNumber":29},{"time":300835.8956666673,"duration":1502.0483291664277,"noteNumber":67,"velocity":119,"programNumber":29},{"time":302311.3046666671,"duration":102.45895833329996,"noteNumber":52,"velocity":87,"programNumber":29},{"time":302475.2390000004,"duration":198.77037916664267,"noteNumber":55,"velocity":93,"programNumber":29},{"time":302639.17333333375,"duration":163.93433333327994,"noteNumber":52,"velocity":89,"programNumber":29},{"time":302803.107666667,"duration":149.5900791666936,"noteNumber":50,"velocity":109,"programNumber":29},{"time":302967.04200000037,"duration":200.8195583333145,"noteNumber":40,"velocity":107,"programNumber":29},{"time":304442.45100000035,"duration":196.72120000002906,"noteNumber":62,"velocity":104,"programNumber":29},{"time":304442.45100000035,"duration":211.0654541666736,"noteNumber":67,"velocity":96,"programNumber":29},{"time":303294.91066666704,"duration":2288.9331291666604,"noteNumber":40,"velocity":113,"programNumber":29},{"time":305753.92566666694,"duration":180.3277666666545,"noteNumber":40,"velocity":111,"programNumber":29},{"time":305917.8600000003,"duration":147.54089999990538,"noteNumber":47,"velocity":94,"programNumber":29},{"time":304770.319666667,"duration":1397.5401916665141,"noteNumber":62,"velocity":107,"programNumber":29},{"time":304770.319666667,"duration":1403.6877291665296,"noteNumber":67,"velocity":112,"programNumber":29},{"time":306081.79433333356,"duration":145.49172083334997,"noteNumber":50,"velocity":93,"programNumber":29},{"time":306245.7286666669,"duration":112.70485416665906,"noteNumber":52,"velocity":93,"programNumber":29},{"time":306409.66300000023,"duration":192.62284166668542,"noteNumber":55,"velocity":98,"programNumber":29},{"time":306573.5973333336,"duration":165.98351250000997,"noteNumber":52,"velocity":93,"programNumber":29},{"time":306737.5316666669,"duration":151.63925833336543,"noteNumber":50,"velocity":101,"programNumber":29},{"time":306901.46600000025,"duration":206.96709583332995,"noteNumber":40,"velocity":106,"programNumber":29},{"time":308376.87500000023,"duration":202.8687374999863,"noteNumber":64,"velocity":96,"programNumber":29},{"time":308376.87500000023,"duration":209.01627500000177,"noteNumber":69,"velocity":103,"programNumber":29},{"time":308376.87500000023,"duration":219.26217083336087,"noteNumber":47,"velocity":94,"programNumber":29},{"time":308376.87500000023,"duration":219.26217083336087,"noteNumber":52,"velocity":96,"programNumber":29},{"time":307229.3346666669,"duration":1379.0975791666424,"noteNumber":40,"velocity":112,"programNumber":29},{"time":309688.3496666669,"duration":34.836045833304524,"noteNumber":40,"velocity":107,"programNumber":29},{"time":309852.28400000016,"duration":122.95075000001816,"noteNumber":47,"velocity":100,"programNumber":29},{"time":308704.7436666669,"duration":1272.5402624999406,"noteNumber":62,"velocity":107,"programNumber":29},{"time":308704.7436666669,"duration":1299.179591666616,"noteNumber":67,"velocity":106,"programNumber":29},{"time":310016.2183333335,"duration":122.95075000001816,"noteNumber":50,"velocity":96,"programNumber":29},{"time":310180.15266666684,"duration":104.50813749997178,"noteNumber":52,"velocity":88,"programNumber":29},{"time":310344.0870000001,"duration":200.8195583333145,"noteNumber":55,"velocity":97,"programNumber":29},{"time":310508.02133333345,"duration":147.54089999996359,"noteNumber":52,"velocity":88,"programNumber":29},{"time":310671.95566666673,"duration":157.78679583332269,"noteNumber":50,"velocity":107,"programNumber":29},{"time":310835.8900000001,"duration":1377.0483999990392,"noteNumber":76,"velocity":119,"programNumber":29},{"time":312321.5448958324,"duration":297.130979166599,"noteNumber":76,"velocity":107,"programNumber":29},{"time":312579.7414708324,"duration":178.27858749998268,"noteNumber":73,"velocity":94,"programNumber":29},{"time":312770.31513333233,"duration":196.72119999997085,"noteNumber":71,"velocity":101,"programNumber":29},{"time":312946.54454166564,"duration":153.68843749997905,"noteNumber":73,"velocity":108,"programNumber":29},{"time":313106.38051666564,"duration":135.24582499999087,"noteNumber":71,"velocity":102,"programNumber":29},{"time":313286.7082833323,"duration":647.540616666316,"noteNumber":69,"velocity":107,"programNumber":29},{"time":314475.23219999863,"duration":868.851966666407,"noteNumber":76,"velocity":120,"programNumber":29},{"time":315438.3464083317,"duration":327.8686666666763,"noteNumber":76,"velocity":98,"programNumber":29},{"time":315735.47738749837,"duration":182.37694583338453,"noteNumber":73,"velocity":94,"programNumber":29},{"time":315913.7559749984,"duration":155.73761666665087,"noteNumber":76,"velocity":95,"programNumber":29},{"time":316081.78866666503,"duration":135.24582499999087,"noteNumber":73,"velocity":102,"programNumber":29},{"time":316229.329566665,"duration":206.96709583332995,"noteNumber":76,"velocity":98,"programNumber":29},{"time":316405.5589749983,"duration":120.90157083334634,"noteNumber":73,"velocity":108,"programNumber":29},{"time":316553.0998749983,"duration":88.11470416665543,"noteNumber":76,"velocity":102,"programNumber":29},{"time":316735.47682083165,"duration":274.5900083332672,"noteNumber":81,"velocity":105,"programNumber":29},{"time":317067.44384583156,"duration":405.7374750000308,"noteNumber":81,"velocity":95,"programNumber":29},{"time":317440.3944541649,"duration":143.44254166667815,"noteNumber":80,"velocity":101,"programNumber":29},{"time":317594.08289166493,"duration":151.63925833330723,"noteNumber":76,"velocity":85,"programNumber":29},{"time":317774.4106583316,"duration":151.63925833330723,"noteNumber":80,"velocity":107,"programNumber":29},{"time":317934.2466333316,"duration":129.0982874999754,"noteNumber":76,"velocity":101,"programNumber":29},{"time":318079.7383541649,"duration":141.39336250000633,"noteNumber":78,"velocity":102,"programNumber":29},{"time":318241.62350833154,"duration":139.3441833333345,"noteNumber":76,"velocity":107,"programNumber":29},{"time":318389.16440833156,"duration":133.19664583331905,"noteNumber":78,"velocity":94,"programNumber":29},{"time":318524.41023333155,"duration":127.0491083333618,"noteNumber":76,"velocity":102,"programNumber":29},{"time":318708.8363583316,"duration":557.3767333331052,"noteNumber":76,"velocity":111,"programNumber":29},{"time":319358.4261541647,"duration":346.31127916666446,"noteNumber":76,"velocity":109,"programNumber":29},{"time":319671.9505666647,"duration":155.73761666670907,"noteNumber":73,"velocity":102,"programNumber":29},{"time":319835.8848999981,"duration":178.27858749998268,"noteNumber":71,"velocity":92,"programNumber":29},{"time":319995.7208749981,"duration":159.8359749999945,"noteNumber":73,"velocity":99,"programNumber":29},{"time":320163.75356666476,"duration":182.37694583338453,"noteNumber":71,"velocity":100,"programNumber":29},{"time":320313.34364583145,"duration":145.49172083334997,"noteNumber":73,"velocity":96,"programNumber":29},{"time":320473.17962083145,"duration":129.0982874999754,"noteNumber":71,"velocity":107,"programNumber":29},{"time":320651.45820833143,"duration":149.5900791666936,"noteNumber":69,"velocity":105,"programNumber":29},{"time":320807.19582499814,"duration":209.01627500000177,"noteNumber":71,"velocity":95,"programNumber":29},{"time":320971.1301583315,"duration":94.26224166667089,"noteNumber":69,"velocity":112,"programNumber":29},{"time":321163.75299999816,"duration":909.8355499994941,"noteNumber":66,"velocity":108,"programNumber":29},{"time":322419.8998291643,"duration":770.491366666276,"noteNumber":59,"velocity":117,"programNumber":29},{"time":323294.89933333057,"duration":342.2129208332626,"noteNumber":59,"velocity":118,"programNumber":29},{"time":323639.1614333305,"duration":161.88515416666633,"noteNumber":61,"velocity":107,"programNumber":29},{"time":323815.3908416638,"duration":172.13105000002543,"noteNumber":59,"velocity":107,"programNumber":29},{"time":323954.73502499715,"duration":96.31142083334271,"noteNumber":61,"velocity":101,"programNumber":29},{"time":324104.32510416384,"duration":465.16367083310615,"noteNumber":64,"velocity":105,"programNumber":29},{"time":324651.4559416636,"duration":356.55717499984894,"noteNumber":64,"velocity":107,"programNumber":29},{"time":325096.1278208301,"duration":389.34404166648164,"noteNumber":64,"velocity":106,"programNumber":29},{"time":325589.97999999655,"duration":313.52441249997355,"noteNumber":64,"velocity":105,"programNumber":29},{"time":325864.5700083299,"duration":182.37694583332632,"noteNumber":61,"velocity":95,"programNumber":29},{"time":326063.3403874965,"duration":311.47523333335994,"noteNumber":59,"velocity":107,"programNumber":29},{"time":326573.5859999965,"duration":221.31134999997448,"noteNumber":40,"velocity":102,"programNumber":29},{"time":326573.5859999965,"duration":231.55724583333358,"noteNumber":47,"velocity":88,"programNumber":29},{"time":326901.4546666632,"duration":1059.4256291666534,"noteNumber":47,"velocity":89,"programNumber":29},{"time":328048.9949999965,"duration":188.52448333334178,"noteNumber":62,"velocity":101,"programNumber":29},{"time":328048.9949999965,"duration":206.96709583332995,"noteNumber":67,"velocity":105,"programNumber":29},{"time":326901.4546666632,"duration":2198.7692458331003,"noteNumber":40,"velocity":101,"programNumber":29},{"time":329360.46966666286,"duration":215.1638124998426,"noteNumber":40,"velocity":99,"programNumber":29},{"time":329524.4039999961,"duration":118.85239166661631,"noteNumber":47,"velocity":113,"programNumber":29},{"time":328376.8636666632,"duration":1368.8516833328758,"noteNumber":62,"velocity":107,"programNumber":29},{"time":328376.8636666632,"duration":1370.9008624995477,"noteNumber":67,"velocity":120,"programNumber":29},{"time":329688.33833332936,"duration":143.44254166667815,"noteNumber":50,"velocity":98,"programNumber":29},{"time":329852.2726666627,"duration":120.90157083334634,"noteNumber":52,"velocity":88,"programNumber":29},{"time":330016.20699999604,"duration":196.72120000002906,"noteNumber":55,"velocity":98,"programNumber":29},{"time":330180.1413333294,"duration":172.13105000002543,"noteNumber":52,"velocity":94,"programNumber":29},{"time":330344.0756666627,"duration":149.5900791666936,"noteNumber":50,"velocity":105,"programNumber":29},{"time":330835.8786666627,"duration":1098.3600333333598,"noteNumber":47,"velocity":108,"programNumber":29},{"time":330508.00999999605,"duration":1465.1631041666842,"noteNumber":40,"velocity":102,"programNumber":29},{"time":331983.4189999961,"duration":219.26217083336087,"noteNumber":64,"velocity":100,"programNumber":29},{"time":331983.4189999961,"duration":227.45888750004815,"noteNumber":69,"velocity":107,"programNumber":29},{"time":333294.8936666627,"duration":221.31134999997448,"noteNumber":40,"velocity":107,"programNumber":29},{"time":333458.82799999596,"duration":108.60649583337363,"noteNumber":47,"velocity":108,"programNumber":29},{"time":333622.7623333293,"duration":143.44254166667815,"noteNumber":50,"velocity":86,"programNumber":29},{"time":332311.2876666628,"duration":1487.7040749997832,"noteNumber":62,"velocity":111,"programNumber":29},{"time":332311.2876666628,"duration":1502.0483291664277,"noteNumber":67,"velocity":119,"programNumber":29},{"time":333786.69666666264,"duration":102.45895833329996,"noteNumber":52,"velocity":90,"programNumber":29},{"time":333950.6309999959,"duration":198.77037916664267,"noteNumber":55,"velocity":90,"programNumber":29},{"time":334114.56533332926,"duration":163.93433333327994,"noteNumber":52,"velocity":87,"programNumber":29},{"time":334278.49966666254,"duration":149.5900791666936,"noteNumber":50,"velocity":108,"programNumber":29},{"time":334442.4339999959,"duration":200.8195583333145,"noteNumber":40,"velocity":108,"programNumber":29},{"time":335917.8429999958,"duration":196.72119999985443,"noteNumber":62,"velocity":101,"programNumber":29},{"time":335917.8429999958,"duration":211.06545416649897,"noteNumber":67,"velocity":96,"programNumber":29},{"time":335917.8429999958,"duration":282.78672499977984,"noteNumber":88,"velocity":107,"programNumber":29},{"time":334770.30266666255,"duration":2288.933129166253,"noteNumber":40,"velocity":113,"programNumber":29},{"time":337229.317666662,"duration":180.3277666666545,"noteNumber":40,"velocity":114,"programNumber":29},{"time":337393.25199999526,"duration":147.5409000000218,"noteNumber":47,"velocity":96,"programNumber":29},{"time":336245.7116666622,"duration":1397.540191666456,"noteNumber":62,"velocity":108,"programNumber":29},{"time":336245.7116666622,"duration":1403.6877291664714,"noteNumber":67,"velocity":114,"programNumber":29},{"time":337557.18633332866,"duration":145.49172083334997,"noteNumber":50,"velocity":92,"programNumber":29},{"time":337721.120666662,"duration":112.70485416665906,"noteNumber":52,"velocity":93,"programNumber":29},{"time":336245.7116666622,"duration":1729.5072166664759,"noteNumber":88,"velocity":100,"programNumber":29},{"time":337885.05499999534,"duration":192.62284166668542,"noteNumber":55,"velocity":95,"programNumber":29},{"time":338048.9893333287,"duration":165.98351250000997,"noteNumber":52,"velocity":95,"programNumber":29},{"time":338212.923666662,"duration":151.63925833336543,"noteNumber":50,"velocity":101,"programNumber":29},{"time":338376.85799999535,"duration":206.96709583332995,"noteNumber":40,"velocity":105,"programNumber":29},{"time":339852.26699999534,"duration":202.8687374998699,"noteNumber":64,"velocity":96,"programNumber":29},{"time":339852.26699999534,"duration":209.01627499988535,"noteNumber":69,"velocity":104,"programNumber":29},{"time":339852.26699999534,"duration":219.26217083324445,"noteNumber":47,"velocity":94,"programNumber":29},{"time":339852.26699999534,"duration":219.26217083324445,"noteNumber":52,"velocity":95,"programNumber":29},{"time":338704.726666662,"duration":1379.097579166526,"noteNumber":40,"velocity":113,"programNumber":29},{"time":339852.26699999534,"duration":260.24575416656444,"noteNumber":90,"velocity":105,"programNumber":29},{"time":341163.74166666187,"duration":34.836045833304524,"noteNumber":40,"velocity":106,"programNumber":29},{"time":340180.1356666619,"duration":1118.8518249999615,"noteNumber":88,"velocity":105,"programNumber":29},{"time":341327.6759999952,"duration":122.95075000001816,"noteNumber":47,"velocity":98,"programNumber":29},{"time":340180.1356666619,"duration":1272.5402624999988,"noteNumber":62,"velocity":107,"programNumber":29},{"time":340180.1356666619,"duration":1299.1795916666742,"noteNumber":67,"velocity":107,"programNumber":29},{"time":341491.61033332854,"duration":122.95075000001816,"noteNumber":50,"velocity":95,"programNumber":29},{"time":341655.5446666619,"duration":104.50813749997178,"noteNumber":52,"velocity":88,"programNumber":29},{"time":341819.47899999516,"duration":200.8195583333145,"noteNumber":55,"velocity":97,"programNumber":29},{"time":341983.4133333285,"duration":147.54089999996359,"noteNumber":52,"velocity":89,"programNumber":29},{"time":342147.3476666618,"duration":157.78679583332269,"noteNumber":50,"velocity":105,"programNumber":29},{"time":342311.2819999951,"duration":1377.0483999990392,"noteNumber":76,"velocity":120,"programNumber":29},{"time":343796.9368958275,"duration":297.130979166599,"noteNumber":76,"velocity":107,"programNumber":29},{"time":344055.1334708274,"duration":178.27858749998268,"noteNumber":73,"velocity":95,"programNumber":29},{"time":344245.7071333274,"duration":196.72119999997085,"noteNumber":71,"velocity":101,"programNumber":29},{"time":344421.9365416607,"duration":153.68843749997905,"noteNumber":73,"velocity":107,"programNumber":29},{"time":344581.7725166607,"duration":135.24582499999087,"noteNumber":71,"velocity":102,"programNumber":29},{"time":344762.10028332734,"duration":647.540616666316,"noteNumber":69,"velocity":106,"programNumber":29},{"time":345950.6241999937,"duration":868.851966666407,"noteNumber":76,"velocity":120,"programNumber":29},{"time":346913.73840832675,"duration":327.8686666666763,"noteNumber":76,"velocity":101,"programNumber":29},{"time":347210.8693874934,"duration":182.37694583338453,"noteNumber":73,"velocity":95,"programNumber":29},{"time":347389.14797499345,"duration":155.73761666665087,"noteNumber":76,"velocity":93,"programNumber":29},{"time":347557.1806666601,"duration":135.24582499999087,"noteNumber":73,"velocity":99,"programNumber":29},{"time":347704.72156666004,"duration":206.96709583332995,"noteNumber":76,"velocity":98,"programNumber":29},{"time":347880.95097499335,"duration":120.90157083334634,"noteNumber":73,"velocity":107,"programNumber":29},{"time":348028.4918749934,"duration":88.11470416665543,"noteNumber":76,"velocity":99,"programNumber":29},{"time":348210.8688208267,"duration":274.5900083332672,"noteNumber":81,"velocity":106,"programNumber":29},{"time":348542.8358458266,"duration":405.7374750000308,"noteNumber":81,"velocity":97,"programNumber":29},{"time":348915.78645415994,"duration":143.44254166667815,"noteNumber":80,"velocity":102,"programNumber":29},{"time":349069.47489166,"duration":151.63925833330723,"noteNumber":76,"velocity":84,"programNumber":29},{"time":349249.80265832663,"duration":151.63925833330723,"noteNumber":80,"velocity":104,"programNumber":29},{"time":349409.6386333266,"duration":129.0982874999754,"noteNumber":76,"velocity":101,"programNumber":29},{"time":349555.1303541599,"duration":141.39336250000633,"noteNumber":78,"velocity":104,"programNumber":29},{"time":349717.0155083266,"duration":139.3441833333345,"noteNumber":76,"velocity":107,"programNumber":29},{"time":349864.5564083266,"duration":133.19664583331905,"noteNumber":78,"velocity":93,"programNumber":29},{"time":349999.8022333266,"duration":127.0491083333618,"noteNumber":76,"velocity":101,"programNumber":29},{"time":350184.22835832665,"duration":557.3767333331052,"noteNumber":76,"velocity":113,"programNumber":29},{"time":350833.81815415976,"duration":346.31127916666446,"noteNumber":76,"velocity":108,"programNumber":29},{"time":351147.34256665973,"duration":155.73761666670907,"noteNumber":73,"velocity":101,"programNumber":29},{"time":351311.2768999931,"duration":178.27858749998268,"noteNumber":71,"velocity":95,"programNumber":29},{"time":351471.1128749931,"duration":159.8359749999945,"noteNumber":73,"velocity":101,"programNumber":29},{"time":351639.1455666598,"duration":182.37694583338453,"noteNumber":71,"velocity":102,"programNumber":29},{"time":351788.7356458265,"duration":145.49172083334997,"noteNumber":73,"velocity":96,"programNumber":29},{"time":351948.5716208265,"duration":129.0982874999754,"noteNumber":71,"velocity":110,"programNumber":29},{"time":352126.8502083265,"duration":149.5900791666936,"noteNumber":69,"velocity":107,"programNumber":29},{"time":352282.5878249932,"duration":209.01627500000177,"noteNumber":71,"velocity":98,"programNumber":29},{"time":352446.5221583265,"duration":94.26224166667089,"noteNumber":69,"velocity":113,"programNumber":29},{"time":352639.1449999932,"duration":909.8355499994941,"noteNumber":66,"velocity":107,"programNumber":29},{"time":353895.29182915937,"duration":770.491366666276,"noteNumber":59,"velocity":120,"programNumber":29},{"time":354770.2913333256,"duration":342.2129208332626,"noteNumber":59,"velocity":117,"programNumber":29},{"time":355114.55343332555,"duration":161.88515416666633,"noteNumber":61,"velocity":109,"programNumber":29},{"time":355290.78284165886,"duration":172.13105000002543,"noteNumber":59,"velocity":104,"programNumber":29},{"time":355430.1270249922,"duration":96.31142083334271,"noteNumber":61,"velocity":103,"programNumber":29},{"time":355579.7171041589,"duration":465.16367083310615,"noteNumber":64,"velocity":106,"programNumber":29},{"time":356126.84794165863,"duration":356.55717499984894,"noteNumber":64,"velocity":109,"programNumber":29},{"time":356571.51982082514,"duration":389.34404166648164,"noteNumber":64,"velocity":107,"programNumber":29},{"time":357065.3719999916,"duration":313.52441249997355,"noteNumber":64,"velocity":107,"programNumber":29},{"time":357339.9620083249,"duration":182.37694583332632,"noteNumber":61,"velocity":95,"programNumber":29},{"time":357538.73238749156,"duration":311.47523333335994,"noteNumber":59,"velocity":106,"programNumber":29},{"time":358048.97799999156,"duration":252.04903749999357,"noteNumber":64,"velocity":100,"programNumber":29},{"time":358048.97799999156,"duration":284.8359041666845,"noteNumber":69,"velocity":111,"programNumber":29},{"time":358048.97799999156,"duration":309.4260541666881,"noteNumber":60,"velocity":102,"programNumber":29},{"time":358376.84666665824,"duration":262.2949333333527,"noteNumber":67,"velocity":106,"programNumber":29},{"time":358376.84666665824,"duration":307.3768750000163,"noteNumber":59,"velocity":101,"programNumber":29},{"time":358376.84666665824,"duration":329.9178458333481,"noteNumber":62,"velocity":90,"programNumber":29},{"time":358704.7153333249,"duration":225.40970833331812,"noteNumber":69,"velocity":108,"programNumber":29},{"time":358704.7153333249,"duration":286.8850833332981,"noteNumber":64,"velocity":108,"programNumber":29},{"time":358704.7153333249,"duration":311.47523333330173,"noteNumber":60,"velocity":102,"programNumber":29},{"time":359032.58399999153,"duration":288.9342625000281,"noteNumber":71,"velocity":110,"programNumber":29},{"time":359032.58399999153,"duration":309.4260541666881,"noteNumber":67,"velocity":114,"programNumber":29},{"time":359032.58399999153,"duration":348.3604583333363,"noteNumber":62,"velocity":111,"programNumber":29},{"time":359360.4526666582,"duration":237.70478333334904,"noteNumber":69,"velocity":107,"programNumber":29},{"time":359360.4526666582,"duration":266.3932916666963,"noteNumber":65,"velocity":101,"programNumber":29},{"time":359360.4526666582,"duration":295.0818000000436,"noteNumber":60,"velocity":106,"programNumber":29},{"time":359688.32133332494,"duration":192.62284166668542,"noteNumber":71,"velocity":109,"programNumber":29},{"time":359688.32133332494,"duration":217.21299166668905,"noteNumber":67,"velocity":104,"programNumber":29},{"time":359688.32133332494,"duration":272.5408291667118,"noteNumber":62,"velocity":101,"programNumber":29},{"time":360016.1899999917,"duration":5409.832999999984,"noteNumber":53,"velocity":98,"programNumber":29},{"time":360016.1899999917,"duration":5409.832999999984,"noteNumber":64,"velocity":107,"programNumber":29},{"time":360016.1899999917,"duration":5409.832999999984,"noteNumber":69,"velocity":100,"programNumber":29},{"time":360016.1899999917,"duration":5409.832999999984,"noteNumber":72,"velocity":113,"programNumber":29}]]}