{"tracks":[[{"time":11612.903999999997,"duration":225.80646666666507,"noteNumber":76,"velocity":84,"programNumber":24},{"time":11854.839499999995,"duration":419.35486666666657,"noteNumber":74,"velocity":71,"programNumber":24},{"time":12338.710499999994,"duration":532.2580999999991,"noteNumber":76,"velocity":77,"programNumber":24},{"time":13064.516999999994,"duration":250.00001666666685,"noteNumber":76,"velocity":81,"programNumber":24},{"time":13548.387999999994,"duration":403.22583333333205,"noteNumber":65,"velocity":78,"programNumber":24},{"time":14032.258999999993,"duration":145.16129999999976,"noteNumber":69,"velocity":62,"programNumber":24},{"time":14274.194499999992,"duration":580.6452000000008,"noteNumber":72,"velocity":87,"programNumber":24},{"time":15000.000999999993,"duration":467.7419666666665,"noteNumber":74,"velocity":78,"programNumber":24},{"time":15483.871999999992,"duration":411.2903499999993,"noteNumber":71,"velocity":92,"programNumber":24},{"time":15967.742999999991,"duration":467.7419666666683,"noteNumber":74,"velocity":80,"programNumber":24},{"time":16451.613999999994,"duration":467.7419666666683,"noteNumber":71,"velocity":80,"programNumber":24},{"time":16935.484999999997,"duration":459.6774499999956,"noteNumber":73,"velocity":75,"programNumber":24},{"time":17419.355999999992,"duration":1693.5484999999899,"noteNumber":68,"velocity":68,"programNumber":24},{"time":19354.839999999982,"duration":403.22583333333387,"noteNumber":76,"velocity":91,"programNumber":24},{"time":19838.71099999998,"duration":145.16129999999976,"noteNumber":73,"velocity":67,"programNumber":24},{"time":20080.64649999998,"duration":427.4193833333338,"noteNumber":76,"velocity":81,"programNumber":24},{"time":20564.51749999998,"duration":895.1613499999985,"noteNumber":76,"velocity":90,"programNumber":24},{"time":21532.25949999998,"duration":467.7419666666683,"noteNumber":65,"velocity":91,"programNumber":24},{"time":22016.13049999998,"duration":137.09678333333432,"noteNumber":69,"velocity":60,"programNumber":24},{"time":22258.06599999998,"duration":709.6774666666643,"noteNumber":72,"velocity":84,"programNumber":24},{"time":22983.87249999998,"duration":508.06454999999914,"noteNumber":71,"velocity":83,"programNumber":24},{"time":23709.67899999998,"duration":370.96776666666847,"noteNumber":74,"velocity":94,"programNumber":24},{"time":24193.54999999998,"duration":459.6774499999992,"noteNumber":71,"velocity":84,"programNumber":24},{"time":24677.42099999998,"duration":282.25808333333407,"noteNumber":68,"velocity":75,"programNumber":24},{"time":25161.29199999998,"duration":467.7419666666683,"noteNumber":71,"velocity":92,"programNumber":24},{"time":25645.162999999982,"duration":1290.3226666666596,"noteNumber":68,"velocity":68,"programNumber":24},{"time":27338.711499999972,"duration":88.7096833333344,"noteNumber":76,"velocity":67,"programNumber":24},{"time":27580.64699999997,"duration":225.80646666666507,"noteNumber":76,"velocity":94,"programNumber":24},{"time":27822.58249999997,"duration":64.51613333333444,"noteNumber":73,"velocity":68,"programNumber":24},{"time":28064.51799999997,"duration":467.7419666666683,"noteNumber":76,"velocity":95,"programNumber":24},{"time":28548.388999999974,"duration":975.8065166666638,"noteNumber":78,"velocity":101,"programNumber":24},{"time":29758.06649999997,"duration":96.77419999999984,"noteNumber":72,"velocity":63,"programNumber":24},{"time":30000.00199999997,"duration":427.4193833333338,"noteNumber":76,"velocity":89,"programNumber":24},{"time":30483.87299999997,"duration":741.935533333326,"noteNumber":72,"velocity":64,"programNumber":24},{"time":31693.550499999965,"duration":225.8064666666687,"noteNumber":68,"velocity":60,"programNumber":24},{"time":31935.485999999968,"duration":467.74196666666467,"noteNumber":71,"velocity":75,"programNumber":24},{"time":32419.356999999967,"duration":1145.1613666666817,"noteNumber":68,"velocity":68,"programNumber":24},{"time":33629.03449999998,"duration":104.83871666666528,"noteNumber":68,"velocity":71,"programNumber":24},{"time":33870.96999999998,"duration":379.0322833333339,"noteNumber":69,"velocity":91,"programNumber":24},{"time":34354.84099999998,"duration":209.67743333333055,"noteNumber":68,"velocity":76,"programNumber":24},{"time":34596.77649999998,"duration":201.61291666666511,"noteNumber":56,"velocity":55,"programNumber":24},{"time":34838.71199999998,"duration":137.09678333333432,"noteNumber":60,"velocity":88,"programNumber":24},{"time":35080.64749999998,"duration":96.77419999999984,"noteNumber":68,"velocity":62,"programNumber":24},{"time":35322.58299999998,"duration":1225.8065333333434,"noteNumber":68,"velocity":83,"programNumber":24},{"time":37233.87344999999,"duration":467.7419666666683,"noteNumber":75,"velocity":102,"programNumber":68},{"time":37717.74444999999,"duration":370.96776666666847,"noteNumber":73,"velocity":94,"programNumber":68},{"time":38233.87351666666,"duration":362.903250000003,"noteNumber":73,"velocity":97,"programNumber":68},{"time":38717.744516666666,"duration":1790.3227000000043,"noteNumber":72,"velocity":95,"programNumber":68},{"time":40862.90595,"duration":88.7096833333344,"noteNumber":75,"velocity":99,"programNumber":68},{"time":41112.905966666665,"duration":467.7419666666683,"noteNumber":75,"velocity":104,"programNumber":68},{"time":41629.03503333333,"duration":290.3225999999995,"noteNumber":73,"velocity":97,"programNumber":68},{"time":42080.647966666664,"duration":387.09679999999935,"noteNumber":73,"velocity":98,"programNumber":68},{"time":42580.647999999994,"duration":693.548433333337,"noteNumber":72,"velocity":106,"programNumber":68},{"time":43306.4545,"duration":403.2258333333375,"noteNumber":72,"velocity":99,"programNumber":68},{"time":43766.13195,"duration":96.77419999999984,"noteNumber":70,"velocity":95,"programNumber":68},{"time":44000.00293333334,"duration":217.74195000000327,"noteNumber":73,"velocity":110,"programNumber":68},{"time":45000.003000000004,"duration":330.645183333334,"noteNumber":75,"velocity":109,"programNumber":68},{"time":45483.874,"duration":653.2258500000098,"noteNumber":73,"velocity":100,"programNumber":68},{"time":46209.68050000002,"duration":56.45161666666536,"noteNumber":72,"velocity":95,"programNumber":68},{"time":46451.616000000016,"duration":177.4193666666688,"noteNumber":60,"velocity":106,"programNumber":68},{"time":46693.551500000016,"duration":96.77419999999984,"noteNumber":72,"velocity":88,"programNumber":68},{"time":46935.487000000016,"duration":443.5484166666647,"noteNumber":72,"velocity":105,"programNumber":68},{"time":47419.358000000015,"duration":169.35485000000335,"noteNumber":60,"velocity":100,"programNumber":68},{"time":47669.35801666669,"duration":96.77419999999984,"noteNumber":72,"velocity":78,"programNumber":68},{"time":47903.22900000002,"duration":427.4193833333338,"noteNumber":72,"velocity":109,"programNumber":68},{"time":48387.10000000002,"duration":209.67743333333055,"noteNumber":60,"velocity":98,"programNumber":68},{"time":48604.84195000002,"duration":96.77419999999984,"noteNumber":72,"velocity":78,"programNumber":68},{"time":48870.97100000001,"duration":459.67745000000286,"noteNumber":72,"velocity":117,"programNumber":68},{"time":49354.84200000001,"duration":225.8064666666687,"noteNumber":72,"velocity":111,"programNumber":68},{"time":49838.71300000001,"duration":217.74195000000327,"noteNumber":73,"velocity":108,"programNumber":68},{"time":50322.58400000001,"duration":1137.0968500000163,"noteNumber":73,"velocity":109,"programNumber":68},{"time":51774.19700000003,"duration":225.8064666666687,"noteNumber":77,"velocity":110,"programNumber":68},{"time":52016.13250000003,"duration":612.9032666666681,"noteNumber":75,"velocity":111,"programNumber":68},{"time":52741.93900000003,"duration":104.83871666666528,"noteNumber":77,"velocity":104,"programNumber":68},{"time":52991.93901666669,"duration":483.8709999999992,"noteNumber":75,"velocity":111,"programNumber":68},{"time":53475.81001666669,"duration":64.5161333333308,"noteNumber":73,"velocity":109,"programNumber":68},{"time":53709.68100000002,"duration":467.7419666666683,"noteNumber":77,"velocity":109,"programNumber":68},{"time":54193.55200000002,"duration":459.6774499999956,"noteNumber":75,"velocity":111,"programNumber":68},{"time":54677.42300000002,"duration":169.35485000000335,"noteNumber":68,"velocity":88,"programNumber":68},{"time":54919.358500000024,"duration":661.290366666668,"noteNumber":68,"velocity":102,"programNumber":68},{"time":55653.229516666695,"duration":145.16129999999976,"noteNumber":66,"velocity":105,"programNumber":68},{"time":56112.90696666669,"duration":241.9354999999996,"noteNumber":68,"velocity":111,"programNumber":68},{"time":56354.84246666669,"duration":201.61291666666511,"noteNumber":70,"velocity":84,"programNumber":68},{"time":56580.64893333336,"duration":96.77419999999984,"noteNumber":73,"velocity":103,"programNumber":68},{"time":56838.71346666669,"duration":709.6774666666824,"noteNumber":75,"velocity":111,"programNumber":68},{"time":57588.71351666671,"duration":185.48388333333423,"noteNumber":70,"velocity":109,"programNumber":68},{"time":57822.58450000004,"duration":709.6774666666679,"noteNumber":75,"velocity":97,"programNumber":68},{"time":58548.39100000004,"duration":330.645183333334,"noteNumber":70,"velocity":111,"programNumber":68},{"time":59032.26200000004,"duration":467.7419666666683,"noteNumber":68,"velocity":111,"programNumber":68},{"time":59516.13300000004,"duration":322.58066666666855,"noteNumber":65,"velocity":107,"programNumber":68},{"time":60000.00400000004,"duration":467.7419666666683,"noteNumber":68,"velocity":111,"programNumber":68},{"time":60483.87500000004,"duration":814.5161833333332,"noteNumber":73,"velocity":111,"programNumber":68},{"time":61451.617000000035,"duration":217.74195000000327,"noteNumber":73,"velocity":90,"programNumber":68},{"time":61935.488000000034,"duration":1137.0968500000163,"noteNumber":73,"velocity":109,"programNumber":68},{"time":63387.10100000005,"duration":225.8064666666687,"noteNumber":77,"velocity":110,"programNumber":68},{"time":63629.03650000005,"duration":612.9032666666681,"noteNumber":75,"velocity":111,"programNumber":68},{"time":64354.84300000005,"duration":104.83871666666528,"noteNumber":77,"velocity":104,"programNumber":68},{"time":64604.84301666672,"duration":483.8709999999992,"noteNumber":75,"velocity":111,"programNumber":68},{"time":65088.714016666716,"duration":64.5161333333308,"noteNumber":73,"velocity":109,"programNumber":68},{"time":65322.58500000004,"duration":467.741966666661,"noteNumber":77,"velocity":109,"programNumber":68},{"time":65806.45600000003,"duration":459.67745000000286,"noteNumber":75,"velocity":111,"programNumber":68},{"time":66290.32700000003,"duration":169.35485000000335,"noteNumber":68,"velocity":88,"programNumber":68},{"time":66532.26250000004,"duration":661.290366666668,"noteNumber":68,"velocity":102,"programNumber":68},{"time":67266.13351666671,"duration":145.16130000000703,"noteNumber":66,"velocity":105,"programNumber":68},{"time":67725.81096666672,"duration":241.93550000000687,"noteNumber":68,"velocity":111,"programNumber":68},{"time":67967.74646666672,"duration":201.61291666666511,"noteNumber":70,"velocity":84,"programNumber":68},{"time":68193.55293333338,"duration":96.77419999999984,"noteNumber":73,"velocity":103,"programNumber":68},{"time":68451.61746666672,"duration":709.6774666666897,"noteNumber":75,"velocity":111,"programNumber":68},{"time":69201.61751666674,"duration":185.48388333333423,"noteNumber":70,"velocity":109,"programNumber":68},{"time":69435.48850000008,"duration":709.6774666666897,"noteNumber":75,"velocity":97,"programNumber":68},{"time":70161.2950000001,"duration":330.64518333334127,"noteNumber":70,"velocity":111,"programNumber":68},{"time":70645.1660000001,"duration":467.7419666666683,"noteNumber":68,"velocity":111,"programNumber":68},{"time":71129.0370000001,"duration":322.5806666666613,"noteNumber":65,"velocity":107,"programNumber":68},{"time":71612.9080000001,"duration":467.7419666666683,"noteNumber":68,"velocity":111,"programNumber":68},{"time":72096.7790000001,"duration":1782.2581833333243,"noteNumber":73,"velocity":111,"programNumber":68},{"time":75483.87600000009,"duration":451.61293333332287,"noteNumber":76,"velocity":108,"programNumber":24},{"time":75967.74700000008,"duration":177.4193666666688,"noteNumber":73,"velocity":95,"programNumber":24},{"time":76411.29541666673,"duration":1153.2258833333908,"noteNumber":74,"velocity":111,"programNumber":24},{"time":77645.1664666668,"duration":48.387100000007194,"noteNumber":72,"velocity":82,"programNumber":24},{"time":77887.1019666668,"duration":225.80646666666144,"noteNumber":72,"velocity":111,"programNumber":24},{"time":78387.10200000013,"duration":451.61293333332287,"noteNumber":76,"velocity":101,"programNumber":24},{"time":78870.97300000011,"duration":403.22583333333023,"noteNumber":72,"velocity":101,"programNumber":24},{"time":79838.71500000011,"duration":96.77419999999984,"noteNumber":68,"velocity":105,"programNumber":24},{"time":80080.65050000012,"duration":217.741949999996,"noteNumber":68,"velocity":80,"programNumber":24},{"time":80322.58600000011,"duration":120.96774999999616,"noteNumber":71,"velocity":112,"programNumber":24},{"time":80564.5215000001,"duration":217.741949999996,"noteNumber":71,"velocity":81,"programNumber":24},{"time":81048.3925000001,"duration":451.6129333333374,"noteNumber":71,"velocity":106,"programNumber":24},{"time":81532.2635000001,"duration":104.83871666666528,"noteNumber":68,"velocity":74,"programNumber":24},{"time":81750.0054500001,"duration":1048.3871666666819,"noteNumber":68,"velocity":86,"programNumber":24},{"time":83709.68300000012,"duration":64.51613333333808,"noteNumber":76,"velocity":91,"programNumber":24},{"time":83927.42495000013,"duration":451.6129333333374,"noteNumber":76,"velocity":111,"programNumber":24},{"time":84435.48950000014,"duration":104.83871666666528,"noteNumber":76,"velocity":92,"programNumber":24},{"time":84677.42500000013,"duration":903.2258666667185,"noteNumber":76,"velocity":111,"programNumber":24},{"time":85645.16700000018,"duration":64.51613333333808,"noteNumber":72,"velocity":97,"programNumber":24},{"time":85887.10250000018,"duration":709.6774666666752,"noteNumber":74,"velocity":122,"programNumber":24},{"time":86612.90900000019,"duration":911.2903833333257,"noteNumber":72,"velocity":122,"programNumber":24},{"time":87580.65100000017,"duration":451.61293333332287,"noteNumber":73,"velocity":109,"programNumber":24},{"time":88064.52200000016,"duration":467.7419666666683,"noteNumber":71,"velocity":95,"programNumber":24},{"time":88548.39300000016,"duration":185.48388333333423,"noteNumber":68,"velocity":95,"programNumber":24},{"time":88790.32850000015,"duration":451.61293333332287,"noteNumber":71,"velocity":111,"programNumber":24},{"time":89274.19950000013,"duration":104.83871666666528,"noteNumber":68,"velocity":78,"programNumber":24},{"time":89516.13500000013,"duration":1346.7742833333614,"noteNumber":68,"velocity":111,"programNumber":24},{"time":91209.68350000016,"duration":120.96774999999616,"noteNumber":76,"velocity":104,"programNumber":24},{"time":91435.48996666682,"duration":217.741949999996,"noteNumber":76,"velocity":111,"programNumber":24},{"time":91677.42546666681,"duration":80.64516666666896,"noteNumber":73,"velocity":78,"programNumber":24},{"time":91919.36096666682,"duration":419.3548666666611,"noteNumber":76,"velocity":111,"programNumber":24},{"time":92419.36100000015,"duration":903.2258666666894,"noteNumber":76,"velocity":111,"programNumber":24},{"time":93387.10300000016,"duration":459.6774499999883,"noteNumber":72,"velocity":101,"programNumber":24},{"time":93854.84496666682,"duration":467.74196666668286,"noteNumber":76,"velocity":110,"programNumber":24},{"time":94338.71596666683,"duration":814.5161833333405,"noteNumber":72,"velocity":107,"programNumber":24},{"time":95330.65151666684,"duration":459.67745000000286,"noteNumber":68,"velocity":96,"programNumber":24},{"time":95806.45800000017,"duration":379.0322833333339,"noteNumber":71,"velocity":103,"programNumber":24},{"time":96250.00641666683,"duration":911.2903833333694,"noteNumber":71,"velocity":111,"programNumber":24},{"time":97258.0710000002,"duration":88.7096833333344,"noteNumber":68,"velocity":99,"programNumber":24},{"time":97516.13553333354,"duration":620.9677833333553,"noteNumber":71,"velocity":120,"programNumber":24},{"time":98225.81300000021,"duration":451.6129333333374,"noteNumber":56,"velocity":119,"programNumber":24},{"time":98677.42593333355,"duration":209.67743333333055,"noteNumber":68,"velocity":121,"programNumber":24},{"time":99177.42596666688,"duration":1395.1613833333686,"noteNumber":68,"velocity":120,"programNumber":24},{"time":101104.84545000027,"duration":467.74196666668286,"noteNumber":75,"velocity":107,"programNumber":68},{"time":101588.71645000028,"duration":370.96776666666847,"noteNumber":73,"velocity":103,"programNumber":68},{"time":102104.84551666696,"duration":362.903250000003,"noteNumber":73,"velocity":97,"programNumber":68},{"time":102588.71651666696,"duration":1790.3227000000188,"noteNumber":72,"velocity":95,"programNumber":68},{"time":104733.87795000031,"duration":88.7096833333344,"noteNumber":75,"velocity":99,"programNumber":68},{"time":104983.87796666699,"duration":467.7419666666683,"noteNumber":75,"velocity":104,"programNumber":68},{"time":105500.00703333366,"duration":290.3225999999995,"noteNumber":73,"velocity":97,"programNumber":68},{"time":105951.619966667,"duration":387.09679999999935,"noteNumber":73,"velocity":98,"programNumber":68},{"time":106451.62000000033,"duration":693.5484333333152,"noteNumber":72,"velocity":106,"programNumber":68},{"time":107177.4265000003,"duration":403.2258333333157,"noteNumber":72,"velocity":99,"programNumber":68},{"time":107637.1039500003,"duration":96.77419999999984,"noteNumber":70,"velocity":95,"programNumber":68},{"time":107870.97493333362,"duration":217.741949999996,"noteNumber":73,"velocity":110,"programNumber":68},{"time":108870.97500000028,"duration":330.6451833333267,"noteNumber":75,"velocity":109,"programNumber":68},{"time":109354.84600000027,"duration":653.2258500000025,"noteNumber":73,"velocity":100,"programNumber":68},{"time":110080.65250000027,"duration":56.451616666672635,"noteNumber":72,"velocity":95,"programNumber":68},{"time":110322.58800000028,"duration":177.4193666666688,"noteNumber":60,"velocity":106,"programNumber":68},{"time":110564.52350000029,"duration":96.77419999999984,"noteNumber":72,"velocity":88,"programNumber":68},{"time":110806.4590000003,"duration":443.548416666672,"noteNumber":72,"velocity":105,"programNumber":68},{"time":111290.3300000003,"duration":169.3548499999888,"noteNumber":60,"velocity":100,"programNumber":68},{"time":111540.33001666695,"duration":96.77419999999984,"noteNumber":72,"velocity":78,"programNumber":68},{"time":111774.20100000028,"duration":427.41938333332655,"noteNumber":72,"velocity":109,"programNumber":68},{"time":112258.07200000028,"duration":209.67743333333055,"noteNumber":60,"velocity":98,"programNumber":68},{"time":112475.81395000027,"duration":96.77419999999984,"noteNumber":72,"velocity":78,"programNumber":68},{"time":112741.94300000028,"duration":459.6774499999883,"noteNumber":72,"velocity":117,"programNumber":68},{"time":113225.81400000026,"duration":225.80646666666144,"noteNumber":72,"velocity":111,"programNumber":68},{"time":113709.68500000026,"duration":217.741949999996,"noteNumber":73,"velocity":108,"programNumber":68},{"time":114193.55600000026,"duration":1137.0968500000163,"noteNumber":73,"velocity":109,"programNumber":68},{"time":115645.16900000029,"duration":225.80646666666144,"noteNumber":77,"velocity":110,"programNumber":68},{"time":115887.10450000028,"duration":612.9032666666753,"noteNumber":75,"velocity":111,"programNumber":68},{"time":116612.91100000028,"duration":104.83871666666528,"noteNumber":77,"velocity":104,"programNumber":68},{"time":116862.91101666696,"duration":483.8709999999992,"noteNumber":75,"velocity":111,"programNumber":68},{"time":117346.78201666696,"duration":64.51613333333808,"noteNumber":73,"velocity":109,"programNumber":68},{"time":117580.6530000003,"duration":467.7419666666683,"noteNumber":77,"velocity":109,"programNumber":68},{"time":118064.5240000003,"duration":459.67745000000286,"noteNumber":75,"velocity":111,"programNumber":68},{"time":118548.3950000003,"duration":169.35485000000335,"noteNumber":68,"velocity":88,"programNumber":68},{"time":118790.3305000003,"duration":661.290366666668,"noteNumber":68,"velocity":102,"programNumber":68},{"time":119524.20151666697,"duration":145.16130000000703,"noteNumber":66,"velocity":105,"programNumber":68},{"time":119983.87896666698,"duration":241.93550000000687,"noteNumber":68,"velocity":111,"programNumber":68},{"time":120225.81446666698,"duration":201.61291666666511,"noteNumber":70,"velocity":84,"programNumber":68},{"time":120451.62093333364,"duration":96.77419999999984,"noteNumber":73,"velocity":103,"programNumber":68},{"time":120709.68546666698,"duration":709.6774666666897,"noteNumber":75,"velocity":111,"programNumber":68},{"time":121459.685516667,"duration":185.48388333333423,"noteNumber":70,"velocity":109,"programNumber":68},{"time":121693.55650000034,"duration":709.6774666666897,"noteNumber":75,"velocity":97,"programNumber":68},{"time":122419.36300000036,"duration":330.64518333334127,"noteNumber":70,"velocity":111,"programNumber":68},{"time":122903.23400000036,"duration":467.7419666666683,"noteNumber":68,"velocity":111,"programNumber":68},{"time":123387.10500000036,"duration":322.5806666666613,"noteNumber":65,"velocity":107,"programNumber":68},{"time":123870.97600000036,"duration":467.7419666666683,"noteNumber":68,"velocity":111,"programNumber":68},{"time":124354.84700000036,"duration":814.5161833333259,"noteNumber":73,"velocity":111,"programNumber":68},{"time":125322.58900000036,"duration":217.741949999996,"noteNumber":73,"velocity":90,"programNumber":68},{"time":125806.46000000036,"duration":1137.0968500000163,"noteNumber":73,"velocity":109,"programNumber":68},{"time":127258.07300000038,"duration":225.80646666666144,"noteNumber":77,"velocity":110,"programNumber":68},{"time":127500.00850000037,"duration":612.9032666666753,"noteNumber":75,"velocity":111,"programNumber":68},{"time":128225.81500000038,"duration":104.83871666666528,"noteNumber":77,"velocity":104,"programNumber":68},{"time":128475.81501666705,"duration":483.8709999999992,"noteNumber":75,"velocity":111,"programNumber":68},{"time":128959.68601666705,"duration":64.51613333333808,"noteNumber":73,"velocity":109,"programNumber":68},{"time":129193.5570000004,"duration":467.7419666666683,"noteNumber":77,"velocity":109,"programNumber":68},{"time":129677.4280000004,"duration":459.67745000000286,"noteNumber":75,"velocity":111,"programNumber":68},{"time":130161.29900000039,"duration":169.35485000000335,"noteNumber":68,"velocity":88,"programNumber":68},{"time":130403.2345000004,"duration":661.290366666668,"noteNumber":68,"velocity":102,"programNumber":68},{"time":131137.10551666707,"duration":145.16130000000703,"noteNumber":66,"velocity":105,"programNumber":68},{"time":131596.7829666671,"duration":241.93549999999232,"noteNumber":68,"velocity":111,"programNumber":68},{"time":131838.71846666708,"duration":201.61291666666511,"noteNumber":70,"velocity":84,"programNumber":68},{"time":132064.52493333374,"duration":96.77420000001439,"noteNumber":73,"velocity":103,"programNumber":68},{"time":132322.5894666671,"duration":709.6774666665879,"noteNumber":75,"velocity":111,"programNumber":68},{"time":133072.589516667,"duration":185.48388333333423,"noteNumber":70,"velocity":109,"programNumber":68},{"time":133306.46050000034,"duration":709.6774666666461,"noteNumber":75,"velocity":97,"programNumber":68},{"time":134032.2670000003,"duration":330.64518333331216,"noteNumber":70,"velocity":111,"programNumber":68},{"time":134516.1380000003,"duration":467.74196666665375,"noteNumber":68,"velocity":111,"programNumber":68},{"time":135000.00900000028,"duration":322.5806666666758,"noteNumber":65,"velocity":107,"programNumber":68},{"time":135483.8800000003,"duration":467.74196666665375,"noteNumber":68,"velocity":111,"programNumber":68},{"time":135967.75100000028,"duration":1314.5162166666705,"noteNumber":73,"velocity":111,"programNumber":68},{"time":137419.3640000003,"duration":1290.322666666616,"noteNumber":77,"velocity":112,"programNumber":68},{"time":138854.84796666692,"duration":451.61293333332287,"noteNumber":75,"velocity":100,"programNumber":68},{"time":139354.84800000023,"duration":1354.8387999999395,"noteNumber":77,"velocity":108,"programNumber":68},{"time":140806.46100000016,"duration":362.903250000003,"noteNumber":75,"velocity":111,"programNumber":68},{"time":141290.33200000017,"duration":467.74196666665375,"noteNumber":75,"velocity":109,"programNumber":68},{"time":141774.20300000015,"duration":225.80646666669054,"noteNumber":73,"velocity":94,"programNumber":68},{"time":142016.13850000018,"duration":693.5484333332861,"noteNumber":70,"velocity":109,"programNumber":68},{"time":142709.68693333346,"duration":96.77420000001439,"noteNumber":73,"velocity":99,"programNumber":68},{"time":142983.88050000014,"duration":693.5484333332861,"noteNumber":75,"velocity":111,"programNumber":68},{"time":143677.42893333343,"duration":88.70968333331984,"noteNumber":68,"velocity":91,"programNumber":68},{"time":143927.4289500001,"duration":685.4839166666789,"noteNumber":68,"velocity":103,"programNumber":68},{"time":144677.4290000001,"duration":169.35485000000335,"noteNumber":73,"velocity":105,"programNumber":68},{"time":145161.30000000008,"duration":1056.451683333231,"noteNumber":77,"velocity":111,"programNumber":68},{"time":146612.91299999994,"duration":346.77421666667215,"noteNumber":75,"velocity":111,"programNumber":68},{"time":147096.78399999996,"duration":411.29034999999567,"noteNumber":77,"velocity":107,"programNumber":68},{"time":147580.65499999994,"duration":693.5484333332861,"noteNumber":75,"velocity":101,"programNumber":68},{"time":148556.46151666655,"duration":387.09679999999935,"noteNumber":75,"velocity":108,"programNumber":68},{"time":149032.26799999987,"duration":419.3548666666611,"noteNumber":75,"velocity":111,"programNumber":68},{"time":149500.00996666652,"duration":661.2903666666534,"noteNumber":68,"velocity":101,"programNumber":68},{"time":150241.94549999983,"duration":282.2580833333195,"noteNumber":73,"velocity":97,"programNumber":68},{"time":150967.7519999998,"duration":451.61293333332287,"noteNumber":75,"velocity":117,"programNumber":68},{"time":151459.68751666645,"duration":80.6451666666544,"noteNumber":68,"velocity":95,"programNumber":68},{"time":151701.62301666645,"duration":701.6129499999806,"noteNumber":68,"velocity":106,"programNumber":68},{"time":152419.36499999976,"duration":161.2903333333379,"noteNumber":73,"velocity":110,"programNumber":68},{"time":152903.23599999977,"duration":217.7419499999669,"noteNumber":77,"velocity":111,"programNumber":68},{"time":153145.17149999973,"duration":927.4194166666421,"noteNumber":75,"velocity":97,"programNumber":68},{"time":154354.8489999997,"duration":185.48388333333423,"noteNumber":73,"velocity":95,"programNumber":68},{"time":154596.7844999997,"duration":1548.387199999881,"noteNumber":73,"velocity":109,"programNumber":68},{"time":156290.33299999955,"duration":451.61293333332287,"noteNumber":78,"velocity":111,"programNumber":68},{"time":156774.20399999953,"duration":2870.9679333331587,"noteNumber":73,"velocity":99,"programNumber":68},{"time":162080.65596666597,"duration":258.0645333333232,"noteNumber":73,"velocity":111,"programNumber":68},{"time":162580.6559999993,"duration":1137.0968499998853,"noteNumber":73,"velocity":109,"programNumber":68},{"time":164032.26899999916,"duration":225.80646666666144,"noteNumber":77,"velocity":110,"programNumber":68},{"time":164274.20449999915,"duration":612.9032666666608,"noteNumber":75,"velocity":111,"programNumber":68},{"time":165000.01099999915,"duration":104.83871666667983,"noteNumber":77,"velocity":104,"programNumber":68},{"time":165250.01101666584,"duration":483.87100000001374,"noteNumber":75,"velocity":111,"programNumber":68},{"time":165733.88201666586,"duration":64.51613333332352,"noteNumber":73,"velocity":109,"programNumber":68},{"time":165967.75299999918,"duration":467.74196666665375,"noteNumber":77,"velocity":109,"programNumber":68},{"time":166451.62399999917,"duration":459.6774499999883,"noteNumber":75,"velocity":111,"programNumber":68},{"time":166935.49499999915,"duration":169.35485000000335,"noteNumber":68,"velocity":88,"programNumber":68},{"time":167177.43049999914,"duration":661.2903666666825,"noteNumber":68,"velocity":102,"programNumber":68},{"time":167911.30151666582,"duration":145.16130000000703,"noteNumber":66,"velocity":105,"programNumber":68},{"time":168370.97896666583,"duration":241.93549999999232,"noteNumber":68,"velocity":111,"programNumber":68},{"time":168612.91446666582,"duration":201.61291666666511,"noteNumber":70,"velocity":84,"programNumber":68},{"time":168838.7209333325,"duration":96.77420000001439,"noteNumber":73,"velocity":103,"programNumber":68},{"time":169096.78546666584,"duration":709.6774666665879,"noteNumber":75,"velocity":111,"programNumber":68},{"time":169846.78551666575,"duration":185.48388333333423,"noteNumber":70,"velocity":109,"programNumber":68},{"time":170080.65649999908,"duration":709.6774666666461,"noteNumber":75,"velocity":97,"programNumber":68},{"time":170806.46299999906,"duration":330.64518333331216,"noteNumber":70,"velocity":111,"programNumber":68},{"time":171290.33399999904,"duration":467.74196666665375,"noteNumber":68,"velocity":111,"programNumber":68},{"time":171774.20499999903,"duration":322.5806666666758,"noteNumber":65,"velocity":107,"programNumber":68},{"time":172258.07599999904,"duration":467.74196666665375,"noteNumber":68,"velocity":111,"programNumber":68},{"time":172741.94699999903,"duration":814.516183333355,"noteNumber":73,"velocity":111,"programNumber":68},{"time":173709.68899999905,"duration":217.741949999996,"noteNumber":73,"velocity":90,"programNumber":68},{"time":174193.55999999904,"duration":1137.0968499998853,"noteNumber":73,"velocity":109,"programNumber":68},{"time":175645.1729999989,"duration":225.80646666666144,"noteNumber":77,"velocity":110,"programNumber":68},{"time":175887.1084999989,"duration":612.9032666666608,"noteNumber":75,"velocity":111,"programNumber":68},{"time":176612.9149999989,"duration":104.83871666667983,"noteNumber":77,"velocity":104,"programNumber":68},{"time":176862.9150166656,"duration":483.87100000001374,"noteNumber":75,"velocity":111,"programNumber":68},{"time":177346.7860166656,"duration":64.51613333332352,"noteNumber":73,"velocity":109,"programNumber":68},{"time":177580.65699999893,"duration":467.74196666665375,"noteNumber":77,"velocity":109,"programNumber":68},{"time":178064.5279999989,"duration":459.6774499999883,"noteNumber":75,"velocity":111,"programNumber":68},{"time":178548.3989999989,"duration":169.35485000000335,"noteNumber":68,"velocity":88,"programNumber":68},{"time":178790.3344999989,"duration":661.2903666666825,"noteNumber":68,"velocity":102,"programNumber":68},{"time":179524.20551666556,"duration":145.16130000000703,"noteNumber":66,"velocity":105,"programNumber":68},{"time":179983.88296666558,"duration":241.93549999999232,"noteNumber":68,"velocity":111,"programNumber":68},{"time":180225.81846666557,"duration":201.61291666666511,"noteNumber":70,"velocity":84,"programNumber":68},{"time":180451.62493333223,"duration":96.77420000001439,"noteNumber":73,"velocity":103,"programNumber":68},{"time":180709.6894666656,"duration":709.6774666665879,"noteNumber":75,"velocity":111,"programNumber":68},{"time":181459.6895166655,"duration":185.48388333333423,"noteNumber":70,"velocity":109,"programNumber":68},{"time":181693.56049999883,"duration":709.6774666666461,"noteNumber":75,"velocity":97,"programNumber":68},{"time":182419.3669999988,"duration":330.64518333331216,"noteNumber":70,"velocity":111,"programNumber":68},{"time":182903.2379999988,"duration":467.74196666665375,"noteNumber":68,"velocity":111,"programNumber":68},{"time":183387.10899999877,"duration":322.5806666666758,"noteNumber":65,"velocity":107,"programNumber":68},{"time":183870.9799999988,"duration":467.74196666665375,"noteNumber":68,"velocity":111,"programNumber":68},{"time":184354.85099999877,"duration":887.0968333332567,"noteNumber":73,"velocity":111,"programNumber":68},{"time":185322.59299999868,"duration":185.48388333333423,"noteNumber":73,"velocity":99,"programNumber":68},{"time":185806.46399999867,"duration":1370.9678333333286,"noteNumber":73,"velocity":99,"programNumber":68},{"time":187258.07699999865,"duration":225.80646666666144,"noteNumber":77,"velocity":110,"programNumber":68},{"time":187500.01249999864,"duration":612.9032666666608,"noteNumber":75,"velocity":111,"programNumber":68},{"time":188225.81899999865,"duration":104.83871666667983,"noteNumber":77,"velocity":104,"programNumber":68},{"time":188475.81901666534,"duration":483.87100000001374,"noteNumber":75,"velocity":111,"programNumber":68},{"time":188959.69001666535,"duration":64.51613333332352,"noteNumber":73,"velocity":109,"programNumber":68},{"time":189193.56099999868,"duration":467.74196666665375,"noteNumber":77,"velocity":109,"programNumber":68},{"time":189677.43199999866,"duration":459.6774499999883,"noteNumber":75,"velocity":111,"programNumber":68},{"time":190161.30299999865,"duration":169.35485000000335,"noteNumber":68,"velocity":88,"programNumber":68},{"time":190403.23849999864,"duration":661.2903666666534,"noteNumber":68,"velocity":102,"programNumber":68},{"time":191137.10951666528,"duration":145.16130000000703,"noteNumber":66,"velocity":105,"programNumber":68},{"time":191596.7869666653,"duration":241.93549999999232,"noteNumber":68,"velocity":111,"programNumber":68},{"time":191838.7224666653,"duration":201.61291666666511,"noteNumber":70,"velocity":84,"programNumber":68},{"time":192064.52893333195,"duration":96.77420000001439,"noteNumber":73,"velocity":103,"programNumber":68},{"time":192322.5934666653,"duration":709.6774666666752,"noteNumber":75,"velocity":111,"programNumber":68}]]}