{"tracks":[[{"time":3870.968,"duration":451.6129333333329,"noteNumber":88,"velocity":106,"programNumber":1},{"time":4112.903499999999,"duration":524.1935833333328,"noteNumber":85,"velocity":84,"programNumber":1},{"time":4354.838999999999,"duration":548.3871333333336,"noteNumber":83,"velocity":70,"programNumber":1},{"time":4596.774499999999,"duration":540.3226166666673,"noteNumber":88,"velocity":109,"programNumber":1},{"time":4838.709999999999,"duration":500.0000333333337,"noteNumber":85,"velocity":83,"programNumber":1},{"time":5080.6455,"duration":532.2581,"noteNumber":83,"velocity":64,"programNumber":1},{"time":5322.580999999999,"duration":451.6129333333338,"noteNumber":88,"velocity":102,"programNumber":1},{"time":5564.5165,"duration":427.4193833333329,"noteNumber":85,"velocity":80,"programNumber":1},{"time":6290.3229999999985,"duration":459.67745000000014,"noteNumber":81,"velocity":64,"programNumber":1},{"time":6774.193999999999,"duration":459.67745000000014,"noteNumber":81,"velocity":40,"programNumber":1},{"time":6048.387499999999,"duration":1395.161383333333,"noteNumber":85,"velocity":65,"programNumber":1},{"time":5806.451999999999,"duration":1661.2904333333327,"noteNumber":88,"velocity":110,"programNumber":1},{"time":3870.968,"duration":3814.5163833333318,"noteNumber":57,"velocity":80,"programNumber":1},{"time":3870.968,"duration":3814.5163833333318,"noteNumber":64,"velocity":86,"programNumber":1},{"time":7258.064999999999,"duration":459.6774499999992,"noteNumber":81,"velocity":25,"programNumber":1},{"time":7741.935999999998,"duration":491.93551666666644,"noteNumber":100,"velocity":110,"programNumber":1},{"time":7983.8714999999975,"duration":540.3226166666682,"noteNumber":97,"velocity":65,"programNumber":1},{"time":8225.806999999997,"duration":500.0000333333355,"noteNumber":95,"velocity":101,"programNumber":1},{"time":8467.742499999998,"duration":500.0000333333337,"noteNumber":100,"velocity":87,"programNumber":1},{"time":8709.678,"duration":524.1935833333318,"noteNumber":97,"velocity":109,"programNumber":1},{"time":8951.6135,"duration":500.0000333333319,"noteNumber":95,"velocity":76,"programNumber":1},{"time":9193.548999999999,"duration":451.61293333333197,"noteNumber":100,"velocity":109,"programNumber":1},{"time":9435.484499999999,"duration":459.6774499999992,"noteNumber":97,"velocity":80,"programNumber":1},{"time":10161.290999999997,"duration":1112.9033,"noteNumber":93,"velocity":86,"programNumber":1},{"time":9919.355499999998,"duration":1354.8387999999995,"noteNumber":97,"velocity":73,"programNumber":1},{"time":9677.419999999998,"duration":1612.9033333333318,"noteNumber":100,"velocity":106,"programNumber":1},{"time":7741.935999999998,"duration":3588.709916666665,"noteNumber":64,"velocity":84,"programNumber":1},{"time":7741.935999999998,"duration":3604.8389499999976,"noteNumber":57,"velocity":86,"programNumber":1},{"time":11693.54916666666,"duration":927.4194166666675,"noteNumber":69,"velocity":65,"programNumber":1},{"time":11741.93626666666,"duration":1169.3549166666671,"noteNumber":73,"velocity":64,"programNumber":1},{"time":11653.226583333328,"duration":1508.0646166666666,"noteNumber":64,"velocity":70,"programNumber":1},{"time":11612.903999999995,"duration":1677.4194666666663,"noteNumber":57,"velocity":91,"programNumber":1},{"time":12822.581499999995,"duration":540.3226166666664,"noteNumber":69,"velocity":71,"programNumber":1},{"time":13064.516999999994,"duration":419.35486666666657,"noteNumber":71,"velocity":92,"programNumber":1},{"time":13306.452499999994,"duration":241.9354999999996,"noteNumber":73,"velocity":107,"programNumber":1},{"time":13548.387999999994,"duration":1169.3549166666671,"noteNumber":65,"velocity":69,"programNumber":1},{"time":13548.387999999994,"duration":1185.4839499999998,"noteNumber":72,"velocity":77,"programNumber":1},{"time":13548.387999999994,"duration":1346.7742833333323,"noteNumber":69,"velocity":58,"programNumber":1},{"time":14758.065499999993,"duration":201.61291666666511,"noteNumber":65,"velocity":53,"programNumber":1},{"time":13548.387999999994,"duration":1637.09688333333,"noteNumber":53,"velocity":67,"programNumber":1},{"time":15000.000999999991,"duration":338.70969999999943,"noteNumber":69,"velocity":88,"programNumber":1},{"time":15000.000999999991,"duration":379.0322833333321,"noteNumber":72,"velocity":88,"programNumber":1},{"time":15000.000999999991,"duration":379.0322833333321,"noteNumber":65,"velocity":91,"programNumber":1},{"time":15241.93649999999,"duration":201.61291666666511,"noteNumber":53,"velocity":76,"programNumber":1},{"time":15483.871999999988,"duration":1733.8710833333316,"noteNumber":71,"velocity":69,"programNumber":1},{"time":15483.871999999988,"duration":1733.8710833333316,"noteNumber":68,"velocity":64,"programNumber":1},{"time":15483.871999999988,"duration":1741.935599999997,"noteNumber":64,"velocity":68,"programNumber":1},{"time":15483.871999999988,"duration":1854.8388333333314,"noteNumber":52,"velocity":71,"programNumber":1},{"time":17419.355999999985,"duration":177.41936666666516,"noteNumber":61,"velocity":78,"programNumber":1},{"time":17419.355999999985,"duration":548.3871333333336,"noteNumber":65,"velocity":83,"programNumber":1},{"time":17903.226999999984,"duration":266.12904999999955,"noteNumber":64,"velocity":87,"programNumber":1},{"time":17419.355999999985,"duration":790.3226333333332,"noteNumber":68,"velocity":74,"programNumber":1},{"time":18145.162499999984,"duration":370.96776666666483,"noteNumber":65,"velocity":103,"programNumber":1},{"time":17661.291499999985,"duration":1266.1291166666633,"noteNumber":61,"velocity":64,"programNumber":1},{"time":17419.355999999985,"duration":1790.322699999997,"noteNumber":49,"velocity":73,"programNumber":1},{"time":18629.033499999983,"duration":604.838749999999,"noteNumber":65,"velocity":99,"programNumber":1},{"time":18387.097999999984,"duration":870.9677999999985,"noteNumber":68,"velocity":127,"programNumber":1},{"time":18870.968999999983,"duration":443.5484166666647,"noteNumber":56,"velocity":78,"programNumber":1},{"time":19112.904499999982,"duration":217.74194999999963,"noteNumber":61,"velocity":65,"programNumber":1},{"time":19354.839999999982,"duration":1104.8387833333327,"noteNumber":69,"velocity":70,"programNumber":1},{"time":19354.839999999982,"duration":1419.3549333333322,"noteNumber":73,"velocity":82,"programNumber":1},{"time":19354.839999999982,"duration":1750.0001166666625,"noteNumber":64,"velocity":74,"programNumber":1},{"time":20564.51749999998,"duration":572.58068333333,"noteNumber":69,"velocity":66,"programNumber":1},{"time":20806.45299999998,"duration":443.5484166666647,"noteNumber":71,"velocity":101,"programNumber":1},{"time":19354.839999999982,"duration":1895.1614166666623,"noteNumber":57,"velocity":84,"programNumber":1},{"time":21048.38849999998,"duration":217.74194999999963,"noteNumber":73,"velocity":122,"programNumber":1},{"time":21290.32399999998,"duration":1145.1613666666672,"noteNumber":65,"velocity":81,"programNumber":1},{"time":21290.32399999998,"duration":1346.774283333336,"noteNumber":69,"velocity":78,"programNumber":1},{"time":21290.32399999998,"duration":1346.774283333336,"noteNumber":72,"velocity":77,"programNumber":1},{"time":22500.00149999998,"duration":217.74194999999963,"noteNumber":65,"velocity":65,"programNumber":1},{"time":21290.32399999998,"duration":1548.387200000001,"noteNumber":53,"velocity":49,"programNumber":1},{"time":22741.93699999998,"duration":322.5806666666649,"noteNumber":69,"velocity":79,"programNumber":1},{"time":22741.93699999998,"duration":346.77421666666487,"noteNumber":72,"velocity":81,"programNumber":1},{"time":22741.93699999998,"duration":370.96776666666483,"noteNumber":65,"velocity":74,"programNumber":1},{"time":22983.87249999998,"duration":209.67743333333055,"noteNumber":53,"velocity":56,"programNumber":1},{"time":23266.13058333331,"duration":1693.5485000000008,"noteNumber":64,"velocity":64,"programNumber":1},{"time":23306.453166666644,"duration":1677.4194666666663,"noteNumber":68,"velocity":44,"programNumber":1},{"time":23354.840266666644,"duration":1693.5485000000008,"noteNumber":71,"velocity":58,"programNumber":1},{"time":23225.807999999975,"duration":1879.032383333335,"noteNumber":52,"velocity":61,"programNumber":1},{"time":25161.291999999976,"duration":241.9354999999996,"noteNumber":61,"velocity":78,"programNumber":1},{"time":25161.291999999976,"duration":540.3226166666645,"noteNumber":65,"velocity":84,"programNumber":1},{"time":25645.162999999975,"duration":258.0645333333341,"noteNumber":64,"velocity":78,"programNumber":1},{"time":25161.291999999976,"duration":774.1935999999987,"noteNumber":68,"velocity":86,"programNumber":1},{"time":25887.098499999975,"duration":290.3225999999995,"noteNumber":65,"velocity":97,"programNumber":1},{"time":25403.227499999975,"duration":1258.0645999999979,"noteNumber":61,"velocity":59,"programNumber":1},{"time":25161.291999999976,"duration":1717.742049999997,"noteNumber":49,"velocity":67,"programNumber":1},{"time":26370.969499999974,"duration":580.645199999999,"noteNumber":65,"velocity":93,"programNumber":1},{"time":26129.033999999974,"duration":854.838766666664,"noteNumber":68,"velocity":115,"programNumber":1},{"time":26612.904999999973,"duration":427.4193833333302,"noteNumber":56,"velocity":77,"programNumber":1},{"time":26854.840499999973,"duration":217.741949999996,"noteNumber":61,"velocity":67,"programNumber":1},{"time":27096.77599999997,"duration":1354.8388000000014,"noteNumber":45,"velocity":86,"programNumber":1},{"time":27096.77599999997,"duration":1798.3872166666697,"noteNumber":64,"velocity":87,"programNumber":1},{"time":27096.77599999997,"duration":1814.5162500000042,"noteNumber":69,"velocity":80,"programNumber":1},{"time":28548.38899999997,"duration":467.7419666666683,"noteNumber":43,"velocity":96,"programNumber":1},{"time":29032.259999999973,"duration":1677.41946666667,"noteNumber":65,"velocity":99,"programNumber":1},{"time":28959.679349999973,"duration":1750.0001166666698,"noteNumber":41,"velocity":101,"programNumber":1},{"time":29072.582583333307,"duration":1677.41946666667,"noteNumber":69,"velocity":106,"programNumber":1},{"time":29161.29226666664,"duration":1701.6130166666699,"noteNumber":72,"velocity":97,"programNumber":1},{"time":30967.74399999998,"duration":1798.387216666666,"noteNumber":64,"velocity":63,"programNumber":1},{"time":30975.808516666646,"duration":1798.387216666666,"noteNumber":68,"velocity":65,"programNumber":1},{"time":30975.808516666646,"duration":1814.516249999997,"noteNumber":71,"velocity":72,"programNumber":1},{"time":30951.614966666646,"duration":1895.1614166666623,"noteNumber":52,"velocity":61,"programNumber":1},{"time":32943.55058333331,"duration":1709.6775333333353,"noteNumber":61,"velocity":67,"programNumber":1},{"time":32862.90541666664,"duration":1798.3872166666697,"noteNumber":49,"velocity":72,"programNumber":1},{"time":32983.87316666664,"duration":1750.0001166666698,"noteNumber":65,"velocity":61,"programNumber":1},{"time":33064.51833333331,"duration":1693.5485000000044,"noteNumber":68,"velocity":63,"programNumber":1},{"time":34879.03458333332,"duration":1395.1613833333322,"noteNumber":63,"velocity":86,"programNumber":1},{"time":36290.32499999998,"duration":16.12903333333088,"noteNumber":63,"velocity":101,"programNumber":1},{"time":36532.26049999998,"duration":225.8064666666687,"noteNumber":61,"velocity":101,"programNumber":1},{"time":34838.711999999985,"duration":1919.3549666666659,"noteNumber":60,"velocity":81,"programNumber":1},{"time":34919.357166666654,"duration":1919.3549666666586,"noteNumber":68,"velocity":79,"programNumber":1},{"time":36774.19599999998,"duration":612.9032666666681,"noteNumber":39,"velocity":107,"programNumber":1},{"time":37500.00249999998,"duration":120.96775000000343,"noteNumber":39,"velocity":93,"programNumber":1},{"time":37016.13149999998,"duration":895.1613500000094,"noteNumber":58,"velocity":82,"programNumber":1},{"time":37258.06699999998,"duration":766.1290833333478,"noteNumber":66,"velocity":110,"programNumber":1},{"time":37258.06699999998,"duration":766.1290833333478,"noteNumber":63,"velocity":105,"programNumber":1},{"time":37983.873499999994,"duration":145.16129999999976,"noteNumber":58,"velocity":77,"programNumber":1},{"time":37741.93799999999,"duration":548.3871333333373,"noteNumber":42,"velocity":105,"programNumber":1},{"time":34838.711999999985,"duration":3693.5486333333392,"noteNumber":44,"velocity":93,"programNumber":1},{"time":38467.74449999999,"duration":145.16129999999976,"noteNumber":42,"velocity":90,"programNumber":1},{"time":38225.808999999994,"duration":564.5161666666681,"noteNumber":58,"velocity":86,"programNumber":1},{"time":38225.808999999994,"duration":588.7097166666717,"noteNumber":63,"velocity":89,"programNumber":1},{"time":38225.808999999994,"duration":604.8387500000026,"noteNumber":66,"velocity":94,"programNumber":1},{"time":38951.6155,"duration":120.96775000000343,"noteNumber":58,"velocity":81,"programNumber":1},{"time":38709.67999999999,"duration":580.6452000000136,"noteNumber":41,"velocity":93,"programNumber":1},{"time":39435.486500000006,"duration":104.83871666666528,"noteNumber":41,"velocity":76,"programNumber":1},{"time":39193.55100000001,"duration":629.0322999999989,"noteNumber":58,"velocity":87,"programNumber":1},{"time":39193.55100000001,"duration":725.8064999999988,"noteNumber":65,"velocity":93,"programNumber":1},{"time":39193.55100000001,"duration":766.1290833333333,"noteNumber":60,"velocity":89,"programNumber":1},{"time":39919.357500000006,"duration":129.03226666666887,"noteNumber":58,"velocity":80,"programNumber":1},{"time":39677.422000000006,"duration":548.38713333333,"noteNumber":41,"velocity":97,"programNumber":1},{"time":40403.228500000005,"duration":177.4193666666688,"noteNumber":41,"velocity":88,"programNumber":1},{"time":40161.293000000005,"duration":451.6129333333374,"noteNumber":65,"velocity":76,"programNumber":1},{"time":40161.293000000005,"duration":508.06455000001006,"noteNumber":58,"velocity":70,"programNumber":1},{"time":40161.293000000005,"duration":508.06455000001006,"noteNumber":60,"velocity":80,"programNumber":1},{"time":40887.09950000002,"duration":129.03226666666887,"noteNumber":58,"velocity":82,"programNumber":1},{"time":40645.16400000001,"duration":612.9032666666753,"noteNumber":39,"velocity":103,"programNumber":1},{"time":39919.357500000006,"duration":1435.4839666666812,"noteNumber":84,"velocity":127,"programNumber":1},{"time":40040.32525000001,"duration":1314.5162166666778,"noteNumber":82,"velocity":116,"programNumber":1},{"time":40161.293000000005,"duration":1193.5484666666816,"noteNumber":77,"velocity":118,"programNumber":1},{"time":41370.97050000002,"duration":169.35485000000335,"noteNumber":39,"velocity":92,"programNumber":1},{"time":41129.03500000002,"duration":661.2903666666753,"noteNumber":58,"velocity":91,"programNumber":1},{"time":41129.03500000002,"duration":790.3226333333369,"noteNumber":63,"velocity":100,"programNumber":1},{"time":41129.03500000002,"duration":790.3226333333369,"noteNumber":66,"velocity":103,"programNumber":1},{"time":41854.841500000024,"duration":161.29033333333064,"noteNumber":58,"velocity":70,"programNumber":1},{"time":41612.906000000025,"duration":564.5161666666681,"noteNumber":42,"velocity":100,"programNumber":1},{"time":42338.71250000002,"duration":129.03226666666887,"noteNumber":42,"velocity":99,"programNumber":1},{"time":42096.777000000024,"duration":580.645199999999,"noteNumber":58,"velocity":92,"programNumber":1},{"time":42096.777000000024,"duration":701.6129500000025,"noteNumber":63,"velocity":95,"programNumber":1},{"time":42096.777000000024,"duration":774.193600000006,"noteNumber":66,"velocity":98,"programNumber":1},{"time":42822.58350000003,"duration":120.96775000000343,"noteNumber":58,"velocity":78,"programNumber":1},{"time":42580.64800000002,"duration":580.6452000000136,"noteNumber":41,"velocity":101,"programNumber":1},{"time":43306.454500000036,"duration":120.96775000000343,"noteNumber":41,"velocity":77,"programNumber":1},{"time":43064.51900000004,"duration":669.3548833333407,"noteNumber":58,"velocity":93,"programNumber":1},{"time":43064.51900000004,"duration":733.8710166666715,"noteNumber":65,"velocity":91,"programNumber":1},{"time":43064.51900000004,"duration":774.193600000006,"noteNumber":60,"velocity":97,"programNumber":1},{"time":43790.32550000004,"duration":104.83871666666528,"noteNumber":58,"velocity":74,"programNumber":1},{"time":43548.39000000004,"duration":540.3226166666645,"noteNumber":41,"velocity":99,"programNumber":1},{"time":44274.19650000004,"duration":201.61291666666511,"noteNumber":41,"velocity":89,"programNumber":1},{"time":44032.26100000004,"duration":443.5484166666647,"noteNumber":65,"velocity":91,"programNumber":1},{"time":44032.26100000004,"duration":467.7419666666683,"noteNumber":60,"velocity":101,"programNumber":1},{"time":44032.26100000004,"duration":508.0645500000028,"noteNumber":58,"velocity":98,"programNumber":1},{"time":44758.06750000005,"duration":137.09678333333432,"noteNumber":58,"velocity":80,"programNumber":1},{"time":44516.13200000004,"duration":548.3871333333373,"noteNumber":39,"velocity":100,"programNumber":1},{"time":44032.26100000004,"duration":1193.548466666667,"noteNumber":77,"velocity":100,"programNumber":1},{"time":43790.32550000004,"duration":1435.4839666666667,"noteNumber":84,"velocity":100,"programNumber":1},{"time":43911.29325000004,"duration":1346.7742833333323,"noteNumber":82,"velocity":100,"programNumber":1},{"time":45241.93850000004,"duration":161.29033333333064,"noteNumber":39,"velocity":94,"programNumber":1},{"time":45000.00300000005,"duration":620.9677833333262,"noteNumber":58,"velocity":93,"programNumber":1},{"time":45000.00300000005,"duration":741.9355333333224,"noteNumber":66,"velocity":103,"programNumber":1},{"time":45000.00300000005,"duration":741.9355333333224,"noteNumber":63,"velocity":100,"programNumber":1},{"time":45725.80950000004,"duration":96.77419999999984,"noteNumber":58,"velocity":81,"programNumber":1},{"time":45483.87400000004,"duration":564.5161666666681,"noteNumber":42,"velocity":103,"programNumber":1},{"time":46209.68050000004,"duration":104.83871666666528,"noteNumber":42,"velocity":96,"programNumber":1},{"time":45967.74500000004,"duration":491.9355166666646,"noteNumber":66,"velocity":94,"programNumber":1},{"time":45967.74500000004,"duration":500.00003333333007,"noteNumber":63,"velocity":100,"programNumber":1},{"time":45967.74500000004,"duration":532.2580999999991,"noteNumber":58,"velocity":96,"programNumber":1},{"time":46693.55150000004,"duration":145.16129999999976,"noteNumber":58,"velocity":83,"programNumber":1},{"time":47177.42250000004,"duration":104.83871666666528,"noteNumber":41,"velocity":75,"programNumber":1},{"time":46935.48700000004,"duration":620.9677833333335,"noteNumber":58,"velocity":86,"programNumber":1},{"time":46935.48700000004,"duration":741.9355333333297,"noteNumber":65,"velocity":84,"programNumber":1},{"time":46935.48700000004,"duration":774.1935999999987,"noteNumber":60,"velocity":86,"programNumber":1},{"time":47661.293500000036,"duration":96.77419999999984,"noteNumber":58,"velocity":82,"programNumber":1},{"time":47419.35800000004,"duration":580.645199999999,"noteNumber":41,"velocity":97,"programNumber":1},{"time":48145.164500000035,"duration":104.83871666666528,"noteNumber":41,"velocity":89,"programNumber":1},{"time":47903.229000000036,"duration":604.8387500000026,"noteNumber":58,"velocity":96,"programNumber":1},{"time":47903.229000000036,"duration":693.548433333337,"noteNumber":65,"velocity":91,"programNumber":1},{"time":47903.229000000036,"duration":733.8710166666715,"noteNumber":60,"velocity":104,"programNumber":1},{"time":48629.03550000004,"duration":104.83871666666528,"noteNumber":58,"velocity":98,"programNumber":1},{"time":48387.100000000035,"duration":564.5161666666754,"noteNumber":41,"velocity":109,"programNumber":1},{"time":49112.90650000004,"duration":104.83871666666528,"noteNumber":41,"velocity":104,"programNumber":1},{"time":48870.97100000004,"duration":588.7097166666645,"noteNumber":58,"velocity":108,"programNumber":1},{"time":48870.97100000004,"duration":709.6774666666679,"noteNumber":65,"velocity":115,"programNumber":1},{"time":48870.97100000004,"duration":766.1290833333333,"noteNumber":60,"velocity":110,"programNumber":1},{"time":49596.77750000004,"duration":96.77419999999984,"noteNumber":58,"velocity":102,"programNumber":1},{"time":49354.84200000004,"duration":548.38713333333,"noteNumber":41,"velocity":114,"programNumber":1},{"time":50080.64850000004,"duration":185.48388333333423,"noteNumber":41,"velocity":109,"programNumber":1},{"time":49838.71300000004,"duration":427.4193833333338,"noteNumber":65,"velocity":110,"programNumber":1},{"time":49838.71300000004,"duration":451.6129333333374,"noteNumber":60,"velocity":118,"programNumber":1},{"time":49838.71300000004,"duration":459.67745000000286,"noteNumber":58,"velocity":113,"programNumber":1},{"time":50322.584000000046,"duration":306.4516333333304,"noteNumber":70,"velocity":112,"programNumber":1},{"time":50322.584000000046,"duration":338.70969999999943,"noteNumber":66,"velocity":105,"programNumber":1},{"time":50322.584000000046,"duration":379.0322833333339,"noteNumber":73,"velocity":110,"programNumber":1},{"time":50806.455000000045,"duration":524.1935833333337,"noteNumber":73,"velocity":106,"programNumber":1},{"time":50322.584000000046,"duration":1056.4516833333328,"noteNumber":54,"velocity":99,"programNumber":1},{"time":51048.390500000045,"duration":508.0645500000028,"noteNumber":82,"velocity":109,"programNumber":1},{"time":51290.326000000045,"duration":266.1290500000032,"noteNumber":78,"velocity":106,"programNumber":1},{"time":51532.261500000044,"duration":379.0322833333412,"noteNumber":73,"velocity":98,"programNumber":1},{"time":51532.261500000044,"duration":387.0968000000066,"noteNumber":54,"velocity":89,"programNumber":1},{"time":51774.19700000005,"duration":282.25808333333407,"noteNumber":82,"velocity":119,"programNumber":1},{"time":52016.13250000005,"duration":177.4193666666688,"noteNumber":54,"velocity":87,"programNumber":1},{"time":52016.13250000005,"duration":185.48388333333423,"noteNumber":73,"velocity":95,"programNumber":1},{"time":52258.06800000005,"duration":169.35485000000335,"noteNumber":75,"velocity":96,"programNumber":1},{"time":52258.06800000005,"duration":548.3871333333373,"noteNumber":56,"velocity":89,"programNumber":1},{"time":52258.06800000005,"duration":693.548433333337,"noteNumber":80,"velocity":114,"programNumber":1},{"time":52983.874500000056,"duration":225.8064666666687,"noteNumber":80,"velocity":98,"programNumber":1},{"time":52500.00350000006,"duration":709.6774666666679,"noteNumber":72,"velocity":95,"programNumber":1},{"time":52741.93900000006,"duration":467.7419666666683,"noteNumber":75,"velocity":99,"programNumber":1},{"time":53467.745500000055,"duration":161.29033333333064,"noteNumber":72,"velocity":88,"programNumber":1},{"time":53225.810000000056,"duration":612.9032666666681,"noteNumber":56,"velocity":102,"programNumber":1},{"time":53709.681000000055,"duration":387.09679999999935,"noteNumber":68,"velocity":105,"programNumber":1},{"time":53709.681000000055,"duration":387.09679999999935,"noteNumber":72,"velocity":106,"programNumber":1},{"time":53709.681000000055,"duration":387.09679999999935,"noteNumber":75,"velocity":103,"programNumber":1},{"time":53951.616500000055,"duration":201.61291666666511,"noteNumber":56,"velocity":98,"programNumber":1},{"time":54193.552000000054,"duration":338.70969999999943,"noteNumber":68,"velocity":100,"programNumber":1},{"time":54193.552000000054,"duration":588.7097166666645,"noteNumber":61,"velocity":100,"programNumber":1},{"time":54193.552000000054,"duration":854.8387666666677,"noteNumber":73,"velocity":108,"programNumber":1},{"time":54193.552000000054,"duration":854.8387666666677,"noteNumber":77,"velocity":117,"programNumber":1},{"time":54677.42300000005,"duration":459.67745000000286,"noteNumber":68,"velocity":90,"programNumber":1},{"time":54919.35850000005,"duration":225.8064666666687,"noteNumber":61,"velocity":95,"programNumber":1},{"time":55161.29400000005,"duration":370.96776666666847,"noteNumber":70,"velocity":102,"programNumber":1},{"time":55161.29400000005,"duration":491.9355166666646,"noteNumber":73,"velocity":110,"programNumber":1},{"time":55161.29400000005,"duration":774.1935999999987,"noteNumber":54,"velocity":99,"programNumber":1},{"time":55645.16500000005,"duration":604.8387500000026,"noteNumber":70,"velocity":73,"programNumber":1},{"time":55161.29400000005,"duration":1250.0000833333397,"noteNumber":78,"velocity":105,"programNumber":1},{"time":55887.10050000005,"duration":540.3226166666718,"noteNumber":73,"velocity":110,"programNumber":1},{"time":56370.97150000006,"duration":137.09678333333432,"noteNumber":70,"velocity":84,"programNumber":1},{"time":56129.03600000005,"duration":540.3226166666718,"noteNumber":54,"velocity":113,"programNumber":1},{"time":56854.84250000006,"duration":80.64516666666896,"noteNumber":54,"velocity":99,"programNumber":1},{"time":56612.90700000006,"duration":580.645199999999,"noteNumber":70,"velocity":105,"programNumber":1},{"time":56612.90700000006,"duration":790.3226333333296,"noteNumber":78,"velocity":108,"programNumber":1},{"time":56612.90700000006,"duration":822.5806999999986,"noteNumber":73,"velocity":112,"programNumber":1},{"time":57338.713500000056,"duration":129.03226666666887,"noteNumber":70,"velocity":84,"programNumber":1},{"time":57096.77800000006,"duration":572.5806833333336,"noteNumber":54,"velocity":115,"programNumber":1},{"time":57580.649000000056,"duration":306.4516333333304,"noteNumber":70,"velocity":105,"programNumber":1},{"time":57580.649000000056,"duration":306.4516333333304,"noteNumber":73,"velocity":110,"programNumber":1},{"time":57822.584500000055,"duration":177.41936666666152,"noteNumber":54,"velocity":100,"programNumber":1},{"time":57580.649000000056,"duration":491.93551666665735,"noteNumber":78,"velocity":108,"programNumber":1},{"time":58064.52000000005,"duration":362.90324999999575,"noteNumber":72,"velocity":93,"programNumber":1},{"time":58064.52000000005,"duration":370.9677666666612,"noteNumber":75,"velocity":95,"programNumber":1},{"time":58064.52000000005,"duration":540.3226166666573,"noteNumber":56,"velocity":94,"programNumber":1},{"time":58548.39100000004,"duration":258.0645333333305,"noteNumber":75,"velocity":99,"programNumber":1},{"time":58548.39100000004,"duration":282.25808333333407,"noteNumber":72,"velocity":93,"programNumber":1},{"time":58790.32650000004,"duration":201.61291666666511,"noteNumber":56,"velocity":100,"programNumber":1},{"time":58064.52000000005,"duration":1346.774283333325,"noteNumber":68,"velocity":86,"programNumber":1},{"time":59032.26200000004,"duration":604.8387500000026,"noteNumber":61,"velocity":106,"programNumber":1},{"time":59516.13300000004,"duration":322.5806666666758,"noteNumber":68,"velocity":96,"programNumber":1},{"time":59032.26200000004,"duration":814.5161833333405,"noteNumber":77,"velocity":109,"programNumber":1},{"time":59032.26200000004,"duration":814.5161833333405,"noteNumber":73,"velocity":111,"programNumber":1},{"time":59758.068500000045,"duration":201.61291666666511,"noteNumber":61,"velocity":100,"programNumber":1},{"time":60000.004000000044,"duration":330.645183333334,"noteNumber":70,"velocity":100,"programNumber":1},{"time":60000.004000000044,"duration":459.67745000000286,"noteNumber":73,"velocity":112,"programNumber":1},{"time":60000.004000000044,"duration":620.9677833333408,"noteNumber":54,"velocity":102,"programNumber":1},{"time":60725.81050000005,"duration":96.77419999999984,"noteNumber":54,"velocity":96,"programNumber":1},{"time":60483.87500000005,"duration":629.0322999999989,"noteNumber":70,"velocity":74,"programNumber":1},{"time":60725.81050000005,"duration":532.2580999999991,"noteNumber":73,"velocity":103,"programNumber":1},{"time":60967.74600000005,"duration":532.2580999999991,"noteNumber":54,"velocity":110,"programNumber":1},{"time":61451.61700000005,"duration":322.58066666666855,"noteNumber":73,"velocity":98,"programNumber":1},{"time":61209.68150000005,"duration":572.5806833333336,"noteNumber":70,"velocity":78,"programNumber":1},{"time":60000.004000000044,"duration":1782.2581833333388,"noteNumber":78,"velocity":108,"programNumber":1},{"time":61693.55250000005,"duration":96.77419999999984,"noteNumber":54,"velocity":98,"programNumber":1},{"time":61935.48800000005,"duration":306.4516333333304,"noteNumber":70,"velocity":113,"programNumber":1},{"time":61935.48800000005,"duration":338.70969999999943,"noteNumber":66,"velocity":105,"programNumber":1},{"time":61935.48800000005,"duration":379.0322833333339,"noteNumber":73,"velocity":110,"programNumber":1},{"time":62419.35900000005,"duration":524.1935833333337,"noteNumber":73,"velocity":106,"programNumber":1},{"time":61935.48800000005,"duration":1056.4516833333328,"noteNumber":54,"velocity":99,"programNumber":1},{"time":62661.29450000005,"duration":508.0645500000028,"noteNumber":82,"velocity":115,"programNumber":1},{"time":62903.23000000005,"duration":266.1290500000032,"noteNumber":78,"velocity":106,"programNumber":1},{"time":63145.16550000005,"duration":379.0322833333412,"noteNumber":73,"velocity":98,"programNumber":1},{"time":63145.16550000005,"duration":387.0968000000066,"noteNumber":54,"velocity":89,"programNumber":1},{"time":63387.10100000005,"duration":282.25808333333407,"noteNumber":82,"velocity":114,"programNumber":1},{"time":63629.03650000005,"duration":177.4193666666688,"noteNumber":54,"velocity":87,"programNumber":1},{"time":63629.03650000005,"duration":185.48388333333423,"noteNumber":73,"velocity":95,"programNumber":1},{"time":63870.97200000005,"duration":169.35485000000335,"noteNumber":75,"velocity":96,"programNumber":1},{"time":63870.97200000005,"duration":548.3871333333373,"noteNumber":56,"velocity":89,"programNumber":1},{"time":63870.97200000005,"duration":693.548433333337,"noteNumber":80,"velocity":108,"programNumber":1},{"time":64596.77850000006,"duration":225.8064666666687,"noteNumber":80,"velocity":98,"programNumber":1},{"time":64112.90750000006,"duration":709.6774666666679,"noteNumber":72,"velocity":95,"programNumber":1},{"time":64354.84300000006,"duration":467.7419666666683,"noteNumber":75,"velocity":99,"programNumber":1},{"time":65080.64950000006,"duration":161.29033333333064,"noteNumber":72,"velocity":88,"programNumber":1},{"time":64838.71400000006,"duration":612.9032666666681,"noteNumber":56,"velocity":102,"programNumber":1},{"time":65322.58500000006,"duration":387.0968000000066,"noteNumber":68,"velocity":105,"programNumber":1},{"time":65322.58500000006,"duration":387.0968000000066,"noteNumber":72,"velocity":106,"programNumber":1},{"time":65322.58500000006,"duration":387.0968000000066,"noteNumber":75,"velocity":103,"programNumber":1},{"time":65564.52050000006,"duration":201.61291666667967,"noteNumber":56,"velocity":98,"programNumber":1},{"time":65806.45600000006,"duration":338.7097000000067,"noteNumber":68,"velocity":100,"programNumber":1},{"time":65806.45600000006,"duration":588.709716666679,"noteNumber":61,"velocity":100,"programNumber":1},{"time":65806.45600000006,"duration":854.8387666666677,"noteNumber":77,"velocity":111,"programNumber":1},{"time":65806.45600000006,"duration":854.8387666666677,"noteNumber":73,"velocity":108,"programNumber":1},{"time":66290.32700000008,"duration":459.6774499999883,"noteNumber":68,"velocity":90,"programNumber":1},{"time":66532.26250000007,"duration":225.80646666666144,"noteNumber":61,"velocity":95,"programNumber":1},{"time":66774.19800000006,"duration":370.96776666666847,"noteNumber":70,"velocity":102,"programNumber":1},{"time":66774.19800000006,"duration":491.9355166666646,"noteNumber":73,"velocity":109,"programNumber":1},{"time":66774.19800000006,"duration":774.1935999999987,"noteNumber":54,"velocity":99,"programNumber":1},{"time":67258.06900000006,"duration":604.8387499999953,"noteNumber":70,"velocity":73,"programNumber":1},{"time":66774.19800000006,"duration":1250.000083333318,"noteNumber":78,"velocity":105,"programNumber":1},{"time":67500.00450000005,"duration":540.3226166666573,"noteNumber":73,"velocity":110,"programNumber":1},{"time":67983.87550000005,"duration":137.09678333332704,"noteNumber":70,"velocity":84,"programNumber":1},{"time":67741.94000000006,"duration":540.3226166666573,"noteNumber":54,"velocity":107,"programNumber":1},{"time":68467.74650000005,"duration":80.64516666666896,"noteNumber":54,"velocity":99,"programNumber":1},{"time":68225.81100000005,"duration":580.6452000000136,"noteNumber":70,"velocity":105,"programNumber":1},{"time":68225.81100000005,"duration":790.3226333333587,"noteNumber":78,"velocity":108,"programNumber":1},{"time":68225.81100000005,"duration":822.5807000000204,"noteNumber":73,"velocity":108,"programNumber":1},{"time":68951.61750000007,"duration":129.0322666666616,"noteNumber":70,"velocity":84,"programNumber":1},{"time":68709.68200000006,"duration":572.5806833333336,"noteNumber":54,"velocity":107,"programNumber":1},{"time":69193.55300000006,"duration":306.45163333334494,"noteNumber":73,"velocity":108,"programNumber":1},{"time":69193.55300000006,"duration":306.45163333334494,"noteNumber":70,"velocity":105,"programNumber":1},{"time":69435.48850000006,"duration":177.4193666666688,"noteNumber":54,"velocity":100,"programNumber":1},{"time":69193.55300000006,"duration":491.9355166666792,"noteNumber":78,"velocity":108,"programNumber":1},{"time":69677.42400000007,"duration":362.903250000003,"noteNumber":72,"velocity":93,"programNumber":1},{"time":69677.42400000007,"duration":370.96776666666847,"noteNumber":75,"velocity":95,"programNumber":1},{"time":69677.42400000007,"duration":540.3226166666718,"noteNumber":56,"velocity":94,"programNumber":1},{"time":70161.29500000007,"duration":258.06453333333775,"noteNumber":75,"velocity":99,"programNumber":1},{"time":70161.29500000007,"duration":282.25808333333407,"noteNumber":72,"velocity":93,"programNumber":1},{"time":70403.23050000008,"duration":201.61291666666511,"noteNumber":56,"velocity":100,"programNumber":1},{"time":69677.42400000007,"duration":1346.7742833333323,"noteNumber":68,"velocity":86,"programNumber":1},{"time":70645.16600000007,"duration":604.8387499999953,"noteNumber":61,"velocity":106,"programNumber":1},{"time":71129.03700000007,"duration":322.5806666666613,"noteNumber":68,"velocity":96,"programNumber":1},{"time":70645.16600000007,"duration":814.5161833333259,"noteNumber":73,"velocity":112,"programNumber":1},{"time":70645.16600000007,"duration":814.5161833333259,"noteNumber":77,"velocity":113,"programNumber":1},{"time":71370.97250000006,"duration":201.61291666666511,"noteNumber":61,"velocity":100,"programNumber":1},{"time":71612.90800000005,"duration":330.6451833333267,"noteNumber":70,"velocity":100,"programNumber":1},{"time":71612.90800000005,"duration":459.6774499999883,"noteNumber":73,"velocity":107,"programNumber":1},{"time":71612.90800000005,"duration":620.9677833333117,"noteNumber":54,"velocity":102,"programNumber":1},{"time":72338.71450000003,"duration":96.77419999999984,"noteNumber":54,"velocity":96,"programNumber":1},{"time":72096.77900000004,"duration":629.0323000000062,"noteNumber":70,"velocity":74,"programNumber":1},{"time":72338.71450000003,"duration":532.2581000000209,"noteNumber":73,"velocity":103,"programNumber":1},{"time":72580.65000000004,"duration":532.2581000000209,"noteNumber":54,"velocity":110,"programNumber":1},{"time":73064.52100000005,"duration":322.5806666666758,"noteNumber":73,"velocity":98,"programNumber":1},{"time":72822.58550000004,"duration":572.5806833333481,"noteNumber":70,"velocity":78,"programNumber":1},{"time":71612.90800000005,"duration":1782.2581833333388,"noteNumber":78,"velocity":108,"programNumber":1},{"time":73306.45650000006,"duration":96.77419999999984,"noteNumber":54,"velocity":98,"programNumber":1},{"time":73548.39200000007,"duration":250.0000166666723,"noteNumber":71,"velocity":103,"programNumber":1},{"time":73548.39200000007,"duration":467.7419666666683,"noteNumber":69,"velocity":95,"programNumber":1},{"time":73548.39200000007,"duration":854.8387666666677,"noteNumber":57,"velocity":109,"programNumber":1},{"time":74274.19850000007,"duration":443.54841666665743,"noteNumber":69,"velocity":104,"programNumber":1},{"time":74032.26300000006,"duration":790.3226333333296,"noteNumber":71,"velocity":88,"programNumber":1},{"time":73790.32750000007,"duration":1048.3871666666528,"noteNumber":73,"velocity":93,"programNumber":1},{"time":74758.06950000006,"duration":96.77419999999984,"noteNumber":69,"velocity":59,"programNumber":1},{"time":73548.39200000007,"duration":1314.516216666656,"noteNumber":76,"velocity":98,"programNumber":1},{"time":75000.00500000005,"duration":258.06453333333775,"noteNumber":71,"velocity":115,"programNumber":1},{"time":75000.00500000005,"duration":459.67745000000286,"noteNumber":69,"velocity":107,"programNumber":1},{"time":74516.13400000006,"duration":943.5484499999875,"noteNumber":57,"velocity":91,"programNumber":1},{"time":75000.00500000005,"duration":459.67745000000286,"noteNumber":76,"velocity":113,"programNumber":1},{"time":75241.94050000006,"duration":217.741949999996,"noteNumber":73,"velocity":93,"programNumber":1},{"time":75483.87600000005,"duration":362.903250000003,"noteNumber":64,"velocity":115,"programNumber":1},{"time":75483.87600000005,"duration":532.2581000000064,"noteNumber":69,"velocity":115,"programNumber":1},{"time":75483.87600000005,"duration":782.2581166666641,"noteNumber":57,"velocity":114,"programNumber":1},{"time":75967.74700000005,"duration":483.8709999999992,"noteNumber":64,"velocity":83,"programNumber":1},{"time":76209.68250000005,"duration":241.93549999999232,"noteNumber":69,"velocity":101,"programNumber":1},{"time":75483.87600000005,"duration":991.9355499999947,"noteNumber":73,"velocity":108,"programNumber":1},{"time":76693.55350000004,"duration":282.25808333333407,"noteNumber":83,"velocity":117,"programNumber":1},{"time":76451.61800000005,"duration":580.645199999999,"noteNumber":57,"velocity":108,"programNumber":1},{"time":77177.42450000005,"duration":177.4193666666688,"noteNumber":57,"velocity":84,"programNumber":1},{"time":77177.42450000005,"duration":612.9032666666753,"noteNumber":81,"velocity":95,"programNumber":1},{"time":76935.48900000005,"duration":862.9032833333476,"noteNumber":85,"velocity":118,"programNumber":1},{"time":77419.36000000006,"duration":451.6129333333374,"noteNumber":72,"velocity":95,"programNumber":1},{"time":77419.36000000006,"duration":661.290366666668,"noteNumber":69,"velocity":52,"programNumber":1},{"time":77419.36000000006,"duration":693.5484333333297,"noteNumber":77,"velocity":96,"programNumber":1},{"time":77419.36000000006,"duration":830.6452166666568,"noteNumber":53,"velocity":117,"programNumber":1},{"time":78145.16650000005,"duration":338.70969999999215,"noteNumber":69,"velocity":82,"programNumber":1},{"time":77903.23100000006,"duration":709.6774666666461,"noteNumber":72,"velocity":97,"programNumber":1},{"time":78629.03750000003,"duration":96.77419999999984,"noteNumber":69,"velocity":84,"programNumber":1},{"time":78145.16650000005,"duration":693.5484333333152,"noteNumber":77,"velocity":96,"programNumber":1},{"time":78387.10200000004,"duration":532.2580999999918,"noteNumber":53,"velocity":118,"programNumber":1},{"time":78870.97300000003,"duration":282.25808333333407,"noteNumber":77,"velocity":109,"programNumber":1},{"time":78870.97300000003,"duration":290.3225999999995,"noteNumber":72,"velocity":111,"programNumber":1},{"time":78870.97300000003,"duration":322.5806666666613,"noteNumber":69,"velocity":109,"programNumber":1},{"time":79112.90850000003,"duration":201.61291666665056,"noteNumber":53,"velocity":99,"programNumber":1},{"time":79354.84400000001,"duration":322.5806666666758,"noteNumber":68,"velocity":100,"programNumber":1},{"time":79354.84400000001,"duration":483.87100000001374,"noteNumber":71,"velocity":106,"programNumber":1},{"time":79354.84400000001,"duration":830.6452166666859,"noteNumber":52,"velocity":98,"programNumber":1},{"time":79838.71500000003,"duration":604.8387499999953,"noteNumber":68,"velocity":82,"programNumber":1},{"time":80080.65050000003,"duration":524.1935833333118,"noteNumber":71,"velocity":116,"programNumber":1},{"time":79354.84400000001,"duration":1250.0000833333324,"noteNumber":76,"velocity":111,"programNumber":1},{"time":80564.52150000002,"duration":161.29033333332336,"noteNumber":68,"velocity":89,"programNumber":1},{"time":80322.58600000002,"duration":548.3871333333227,"noteNumber":52,"velocity":109,"programNumber":1},{"time":80806.45700000001,"duration":258.06453333333775,"noteNumber":76,"velocity":105,"programNumber":1},{"time":80806.45700000001,"duration":258.06453333333775,"noteNumber":71,"velocity":112,"programNumber":1},{"time":80806.45700000001,"duration":290.3225999999995,"noteNumber":68,"velocity":102,"programNumber":1},{"time":81048.39250000002,"duration":177.41936666665424,"noteNumber":52,"velocity":92,"programNumber":1},{"time":81774.19900000002,"duration":177.4193666666688,"noteNumber":64,"velocity":103,"programNumber":1},{"time":81532.26350000002,"duration":766.1290833333478,"noteNumber":61,"velocity":99,"programNumber":1},{"time":82500.00550000003,"duration":322.5806666666758,"noteNumber":61,"velocity":102,"programNumber":1},{"time":81290.32800000001,"duration":1669.3549500000227,"noteNumber":49,"velocity":102,"programNumber":1},{"time":82741.94100000004,"duration":298.38711666666495,"noteNumber":56,"velocity":115,"programNumber":1},{"time":82258.07000000004,"duration":830.6452166666568,"noteNumber":68,"velocity":108,"programNumber":1},{"time":82016.13450000003,"duration":1096.77426666666,"noteNumber":65,"velocity":93,"programNumber":1},{"time":82983.87650000003,"duration":185.48388333333423,"noteNumber":61,"velocity":105,"programNumber":1},{"time":83225.81200000003,"duration":209.67743333333055,"noteNumber":64,"velocity":108,"programNumber":1},{"time":83225.81200000003,"duration":524.1935833333264,"noteNumber":69,"velocity":115,"programNumber":1},{"time":83225.81200000003,"duration":846.7742499999877,"noteNumber":57,"velocity":117,"programNumber":1},{"time":83709.68300000003,"duration":588.7097166666499,"noteNumber":64,"velocity":88,"programNumber":1},{"time":83951.61850000003,"duration":508.06454999998095,"noteNumber":69,"velocity":113,"programNumber":1},{"time":83225.81200000003,"duration":1266.1291166666342,"noteNumber":73,"velocity":110,"programNumber":1},{"time":84193.55400000002,"duration":564.5161666666536,"noteNumber":57,"velocity":117,"programNumber":1},{"time":84677.425,"duration":145.16130000000703,"noteNumber":73,"velocity":108,"programNumber":1},{"time":84677.425,"duration":201.61291666667967,"noteNumber":69,"velocity":118,"programNumber":1},{"time":84435.48950000001,"duration":459.67745000000286,"noteNumber":64,"velocity":90,"programNumber":1},{"time":84919.36050000001,"duration":104.83871666666528,"noteNumber":57,"velocity":99,"programNumber":1},{"time":85161.296,"duration":177.4193666666688,"noteNumber":65,"velocity":106,"programNumber":1},{"time":85161.296,"duration":564.5161666666681,"noteNumber":53,"velocity":117,"programNumber":1},{"time":85161.296,"duration":661.290366666668,"noteNumber":69,"velocity":107,"programNumber":1},{"time":85161.296,"duration":725.806500000006,"noteNumber":72,"velocity":117,"programNumber":1},{"time":85645.167,"duration":346.77421666667215,"noteNumber":65,"velocity":89,"programNumber":1},{"time":86129.038,"duration":225.80646666666144,"noteNumber":67,"velocity":110,"programNumber":1},{"time":86129.038,"duration":282.2580833333195,"noteNumber":65,"velocity":108,"programNumber":1},{"time":85887.10250000001,"duration":854.8387666666385,"noteNumber":53,"velocity":106,"programNumber":1},{"time":86612.90899999999,"duration":338.70969999999215,"noteNumber":65,"velocity":93,"programNumber":1},{"time":86129.038,"duration":822.5806999999768,"noteNumber":72,"velocity":107,"programNumber":1},{"time":86370.9735,"duration":604.8387499999808,"noteNumber":69,"velocity":97,"programNumber":1},{"time":86854.84449999998,"duration":177.4193666666688,"noteNumber":53,"velocity":116,"programNumber":1},{"time":87096.77999999998,"duration":387.09679999999935,"noteNumber":64,"velocity":100,"programNumber":1},{"time":87096.77999999998,"duration":532.2581000000064,"noteNumber":68,"velocity":105,"programNumber":1},{"time":87096.77999999998,"duration":822.5807000000059,"noteNumber":52,"velocity":93,"programNumber":1},{"time":87580.65099999998,"duration":564.5161666666827,"noteNumber":64,"velocity":88,"programNumber":1},{"time":87096.77999999998,"duration":1225.8065333333507,"noteNumber":71,"velocity":102,"programNumber":1},{"time":87822.58649999999,"duration":508.06455000001006,"noteNumber":68,"velocity":115,"programNumber":1},{"time":88306.4575,"duration":129.0322666666616,"noteNumber":64,"velocity":88,"programNumber":1},{"time":88064.522,"duration":580.645199999999,"noteNumber":52,"velocity":118,"programNumber":1},{"time":88548.393,"duration":290.32260000001406,"noteNumber":68,"velocity":112,"programNumber":1},{"time":88548.393,"duration":330.64518333334127,"noteNumber":64,"velocity":109,"programNumber":1},{"time":88548.393,"duration":419.35486666667566,"noteNumber":71,"velocity":116,"programNumber":1},{"time":88790.3285,"duration":298.3871166666795,"noteNumber":52,"velocity":110,"programNumber":1},{"time":89032.26400000001,"duration":145.16130000000703,"noteNumber":61,"velocity":108,"programNumber":1},{"time":89032.26400000001,"duration":241.93550000000687,"noteNumber":65,"velocity":109,"programNumber":1},{"time":89516.13500000002,"duration":258.06453333333775,"noteNumber":64,"velocity":109,"programNumber":1},{"time":89032.26400000001,"duration":822.5807000000204,"noteNumber":68,"velocity":108,"programNumber":1},{"time":89274.19950000002,"duration":814.516183333355,"noteNumber":61,"velocity":83,"programNumber":1},{"time":90241.94150000004,"duration":298.3871166666795,"noteNumber":61,"velocity":106,"programNumber":1},{"time":89032.26400000001,"duration":1758.0646333333862,"noteNumber":49,"velocity":112,"programNumber":1},{"time":90483.87700000005,"duration":330.64518333334127,"noteNumber":56,"velocity":117,"programNumber":1},{"time":89758.07050000003,"duration":1129.0323333333654,"noteNumber":65,"velocity":84,"programNumber":1},{"time":90000.00600000004,"duration":903.2258666666894,"noteNumber":68,"velocity":111,"programNumber":1},{"time":90725.81250000006,"duration":177.4193666666688,"noteNumber":61,"velocity":105,"programNumber":1},{"time":90967.74800000007,"duration":612.9032666666753,"noteNumber":57,"velocity":117,"programNumber":1},{"time":91209.68350000007,"duration":629.0323000000062,"noteNumber":64,"velocity":88,"programNumber":1},{"time":91693.55450000007,"duration":572.5806833333481,"noteNumber":57,"velocity":110,"programNumber":1},{"time":91451.61900000008,"duration":943.548450000002,"noteNumber":73,"velocity":110,"programNumber":1},{"time":91935.49000000008,"duration":790.3226333333441,"noteNumber":64,"velocity":103,"programNumber":1},{"time":91451.61900000008,"duration":1306.451700000005,"noteNumber":69,"velocity":110,"programNumber":1},{"time":92177.42550000008,"duration":629.0323000000062,"noteNumber":71,"velocity":100,"programNumber":1},{"time":92419.36100000008,"duration":403.2258333333448,"noteNumber":57,"velocity":117,"programNumber":1},{"time":92661.29650000008,"duration":258.06453333333775,"noteNumber":73,"velocity":116,"programNumber":1},{"time":93387.10300000009,"duration":266.1290500000032,"noteNumber":67,"velocity":114,"programNumber":1},{"time":92903.23200000009,"duration":854.8387666666677,"noteNumber":53,"velocity":107,"programNumber":1},{"time":93145.16750000008,"duration":846.7742500000022,"noteNumber":65,"velocity":97,"programNumber":1},{"time":93387.10300000009,"duration":774.1935999999987,"noteNumber":72,"velocity":111,"programNumber":1},{"time":93629.0385000001,"duration":532.2580999999918,"noteNumber":69,"velocity":95,"programNumber":1},{"time":94112.90950000008,"duration":104.83871666667983,"noteNumber":65,"velocity":95,"programNumber":1},{"time":93870.97400000009,"duration":588.7097166666645,"noteNumber":53,"velocity":110,"programNumber":1},{"time":94354.84500000009,"duration":330.6451833333267,"noteNumber":65,"velocity":109,"programNumber":1},{"time":94354.84500000009,"duration":379.0322833333339,"noteNumber":69,"velocity":117,"programNumber":1},{"time":94354.84500000009,"duration":419.3548666666611,"noteNumber":72,"velocity":108,"programNumber":1},{"time":94596.78050000008,"duration":217.741949999996,"noteNumber":53,"velocity":101,"programNumber":1},{"time":94838.71600000007,"duration":362.903250000003,"noteNumber":64,"velocity":108,"programNumber":1},{"time":94838.71600000007,"duration":500.00003333333007,"noteNumber":68,"velocity":106,"programNumber":1},{"time":94838.71600000007,"duration":774.1935999999987,"noteNumber":52,"velocity":106,"programNumber":1},{"time":95322.58700000007,"duration":572.5806833333336,"noteNumber":64,"velocity":82,"programNumber":1},{"time":94838.71600000007,"duration":1233.8710500000016,"noteNumber":71,"velocity":106,"programNumber":1},{"time":95564.52250000006,"duration":540.3226166666718,"noteNumber":68,"velocity":110,"programNumber":1},{"time":96048.39350000008,"duration":104.83871666666528,"noteNumber":64,"velocity":91,"programNumber":1},{"time":95806.45800000007,"duration":572.5806833333336,"noteNumber":52,"velocity":107,"programNumber":1},{"time":96290.32900000007,"duration":362.903250000003,"noteNumber":71,"velocity":107,"programNumber":1},{"time":96290.32900000007,"duration":362.903250000003,"noteNumber":64,"velocity":110,"programNumber":1},{"time":96290.32900000007,"duration":362.903250000003,"noteNumber":68,"velocity":109,"programNumber":1},{"time":96532.26450000008,"duration":241.93549999999232,"noteNumber":52,"velocity":110,"programNumber":1},{"time":96774.20000000007,"duration":387.09679999999935,"noteNumber":61,"velocity":92,"programNumber":1},{"time":96774.20000000007,"duration":483.8709999999992,"noteNumber":65,"velocity":107,"programNumber":1},{"time":96774.20000000007,"duration":790.3226333333441,"noteNumber":49,"velocity":108,"programNumber":1},{"time":97258.07100000007,"duration":588.709716666679,"noteNumber":61,"velocity":92,"programNumber":1},{"time":97500.00650000008,"duration":483.8709999999992,"noteNumber":65,"velocity":114,"programNumber":1},{"time":96774.20000000007,"duration":1233.8710500000016,"noteNumber":68,"velocity":115,"programNumber":1},{"time":97983.87750000008,"duration":137.09678333332704,"noteNumber":61,"velocity":94,"programNumber":1},{"time":97741.94200000008,"duration":564.5161666666536,"noteNumber":49,"velocity":114,"programNumber":1},{"time":98225.81300000007,"duration":209.67743333333055,"noteNumber":65,"velocity":109,"programNumber":1},{"time":98225.81300000007,"duration":209.67743333333055,"noteNumber":68,"velocity":117,"programNumber":1},{"time":98225.81300000007,"duration":290.3225999999995,"noteNumber":61,"velocity":105,"programNumber":1},{"time":98467.74850000006,"duration":177.4193666666688,"noteNumber":49,"velocity":92,"programNumber":1},{"time":98709.68400000007,"duration":338.7097000000067,"noteNumber":60,"velocity":109,"programNumber":1},{"time":98709.68400000007,"duration":524.1935833333409,"noteNumber":63,"velocity":100,"programNumber":1},{"time":98709.68400000007,"duration":782.2581166666787,"noteNumber":44,"velocity":116,"programNumber":1},{"time":99193.55500000008,"duration":564.5161666666681,"noteNumber":60,"velocity":64,"programNumber":1},{"time":98709.68400000007,"duration":1266.1291166666924,"noteNumber":68,"velocity":95,"programNumber":1},{"time":99435.49050000007,"duration":588.7097166666936,"noteNumber":63,"velocity":98,"programNumber":1},{"time":99919.36150000009,"duration":161.29033333335246,"noteNumber":60,"velocity":69,"programNumber":1},{"time":99677.42600000008,"duration":532.2581000000355,"noteNumber":44,"velocity":110,"programNumber":1},{"time":100161.29700000011,"duration":370.96776666666847,"noteNumber":60,"velocity":117,"programNumber":1},{"time":100161.29700000011,"duration":387.09679999999935,"noteNumber":68,"velocity":115,"programNumber":1},{"time":100161.29700000011,"duration":387.09679999999935,"noteNumber":63,"velocity":113,"programNumber":1},{"time":100403.23250000011,"duration":209.67743333333055,"noteNumber":44,"velocity":114,"programNumber":1},{"time":100645.1680000001,"duration":612.9032666666753,"noteNumber":39,"velocity":107,"programNumber":1},{"time":101370.97450000011,"duration":120.96774999999616,"noteNumber":39,"velocity":93,"programNumber":1},{"time":100887.10350000011,"duration":895.1613499999949,"noteNumber":58,"velocity":82,"programNumber":1},{"time":101129.03900000012,"duration":766.1290833333187,"noteNumber":63,"velocity":105,"programNumber":1},{"time":101129.03900000012,"duration":766.1290833333187,"noteNumber":66,"velocity":110,"programNumber":1},{"time":101854.84550000011,"duration":145.16129999999248,"noteNumber":58,"velocity":77,"programNumber":1},{"time":101612.9100000001,"duration":548.3871333333373,"noteNumber":42,"velocity":105,"programNumber":1},{"time":102338.71650000011,"duration":145.16130000000703,"noteNumber":42,"velocity":90,"programNumber":1},{"time":102096.7810000001,"duration":564.5161666666827,"noteNumber":58,"velocity":86,"programNumber":1},{"time":102096.7810000001,"duration":588.709716666679,"noteNumber":63,"velocity":89,"programNumber":1},{"time":102096.7810000001,"duration":604.8387500000099,"noteNumber":66,"velocity":94,"programNumber":1},{"time":102822.58750000011,"duration":120.96774999999616,"noteNumber":58,"velocity":81,"programNumber":1},{"time":102580.65200000012,"duration":580.6451999999845,"noteNumber":41,"velocity":93,"programNumber":1},{"time":103306.45850000011,"duration":104.83871666666528,"noteNumber":41,"velocity":76,"programNumber":1},{"time":103064.5230000001,"duration":629.0323000000062,"noteNumber":58,"velocity":87,"programNumber":1},{"time":103064.5230000001,"duration":725.806500000006,"noteNumber":65,"velocity":93,"programNumber":1},{"time":103064.5230000001,"duration":766.1290833333333,"noteNumber":60,"velocity":89,"programNumber":1},{"time":103790.32950000011,"duration":129.0322666666616,"noteNumber":58,"velocity":80,"programNumber":1},{"time":103548.3940000001,"duration":548.3871333333373,"noteNumber":41,"velocity":97,"programNumber":1},{"time":104274.20050000011,"duration":177.4193666666688,"noteNumber":41,"velocity":88,"programNumber":1},{"time":104032.2650000001,"duration":451.6129333333374,"noteNumber":65,"velocity":95,"programNumber":1},{"time":104032.2650000001,"duration":508.0645499999955,"noteNumber":60,"velocity":104,"programNumber":1},{"time":104032.2650000001,"duration":508.0645499999955,"noteNumber":58,"velocity":100,"programNumber":1},{"time":104758.0715000001,"duration":129.0322666666616,"noteNumber":58,"velocity":82,"programNumber":1},{"time":104516.1360000001,"duration":612.9032666666462,"noteNumber":39,"velocity":103,"programNumber":1},{"time":103790.32950000011,"duration":1435.4839666666376,"noteNumber":84,"velocity":100,"programNumber":1},{"time":103911.2972500001,"duration":1314.5162166666414,"noteNumber":82,"velocity":100,"programNumber":1},{"time":104032.2650000001,"duration":1193.5484666666453,"noteNumber":77,"velocity":100,"programNumber":1},{"time":105241.94250000008,"duration":169.35485000000335,"noteNumber":39,"velocity":92,"programNumber":1},{"time":105000.00700000009,"duration":661.290366666668,"noteNumber":58,"velocity":91,"programNumber":1},{"time":105000.00700000009,"duration":790.3226333333441,"noteNumber":63,"velocity":100,"programNumber":1},{"time":105000.00700000009,"duration":790.3226333333441,"noteNumber":66,"velocity":103,"programNumber":1},{"time":105725.81350000009,"duration":161.2903333333379,"noteNumber":58,"velocity":70,"programNumber":1},{"time":105483.87800000008,"duration":564.5161666666827,"noteNumber":42,"velocity":100,"programNumber":1},{"time":106209.6845000001,"duration":129.0322666666616,"noteNumber":42,"velocity":99,"programNumber":1},{"time":105967.7490000001,"duration":580.645199999999,"noteNumber":58,"velocity":92,"programNumber":1},{"time":105967.7490000001,"duration":701.6129499999952,"noteNumber":63,"velocity":95,"programNumber":1},{"time":105967.7490000001,"duration":774.1935999999987,"noteNumber":66,"velocity":98,"programNumber":1},{"time":106693.55550000009,"duration":120.96775000001071,"noteNumber":58,"velocity":78,"programNumber":1},{"time":106451.6200000001,"duration":580.645199999999,"noteNumber":41,"velocity":101,"programNumber":1},{"time":107177.4265000001,"duration":120.96774999999616,"noteNumber":41,"velocity":77,"programNumber":1},{"time":106935.4910000001,"duration":669.3548833333334,"noteNumber":58,"velocity":93,"programNumber":1},{"time":106935.4910000001,"duration":733.8710166666715,"noteNumber":65,"velocity":91,"programNumber":1},{"time":106935.4910000001,"duration":774.1935999999987,"noteNumber":60,"velocity":97,"programNumber":1},{"time":107661.2975000001,"duration":104.83871666666528,"noteNumber":58,"velocity":74,"programNumber":1},{"time":107419.3620000001,"duration":540.3226166666718,"noteNumber":41,"velocity":99,"programNumber":1},{"time":108145.1685000001,"duration":201.61291666666511,"noteNumber":41,"velocity":89,"programNumber":1},{"time":107903.2330000001,"duration":443.548416666672,"noteNumber":65,"velocity":91,"programNumber":1},{"time":107903.2330000001,"duration":467.7419666666683,"noteNumber":60,"velocity":101,"programNumber":1},{"time":107903.2330000001,"duration":508.0645499999955,"noteNumber":58,"velocity":98,"programNumber":1},{"time":108629.03950000009,"duration":137.09678333332704,"noteNumber":58,"velocity":80,"programNumber":1},{"time":108387.1040000001,"duration":548.3871333333227,"noteNumber":39,"velocity":100,"programNumber":1},{"time":107903.2330000001,"duration":1193.5484666666598,"noteNumber":77,"velocity":100,"programNumber":1},{"time":107661.2975000001,"duration":1435.4839666666521,"noteNumber":84,"velocity":100,"programNumber":1},{"time":107782.2652500001,"duration":1346.7742833333177,"noteNumber":82,"velocity":100,"programNumber":1},{"time":109112.91050000009,"duration":161.2903333333379,"noteNumber":39,"velocity":94,"programNumber":1},{"time":108870.97500000008,"duration":620.9677833333408,"noteNumber":58,"velocity":93,"programNumber":1},{"time":108870.97500000008,"duration":741.9355333333369,"noteNumber":66,"velocity":103,"programNumber":1},{"time":108870.97500000008,"duration":741.9355333333369,"noteNumber":63,"velocity":100,"programNumber":1},{"time":109596.78150000008,"duration":96.77419999999984,"noteNumber":58,"velocity":81,"programNumber":1},{"time":109354.84600000009,"duration":564.5161666666681,"noteNumber":42,"velocity":103,"programNumber":1},{"time":110080.6525000001,"duration":104.83871666666528,"noteNumber":42,"velocity":96,"programNumber":1},{"time":109838.71700000009,"duration":491.9355166666792,"noteNumber":66,"velocity":94,"programNumber":1},{"time":109838.71700000009,"duration":500.0000333333446,"noteNumber":63,"velocity":100,"programNumber":1},{"time":109838.71700000009,"duration":532.2581000000064,"noteNumber":58,"velocity":96,"programNumber":1},{"time":110564.5235000001,"duration":145.16130000000703,"noteNumber":58,"velocity":83,"programNumber":1},{"time":111048.39450000011,"duration":104.83871666666528,"noteNumber":41,"velocity":75,"programNumber":1},{"time":110806.4590000001,"duration":620.9677833333262,"noteNumber":58,"velocity":86,"programNumber":1},{"time":110806.4590000001,"duration":741.9355333333224,"noteNumber":65,"velocity":84,"programNumber":1},{"time":110806.4590000001,"duration":774.1935999999841,"noteNumber":60,"velocity":86,"programNumber":1},{"time":111532.2655000001,"duration":96.77419999999984,"noteNumber":58,"velocity":82,"programNumber":1},{"time":111290.3300000001,"duration":580.645199999999,"noteNumber":41,"velocity":97,"programNumber":1},{"time":112016.13650000011,"duration":104.83871666666528,"noteNumber":41,"velocity":89,"programNumber":1},{"time":111774.2010000001,"duration":604.8387499999953,"noteNumber":58,"velocity":96,"programNumber":1},{"time":111774.2010000001,"duration":693.5484333333297,"noteNumber":65,"velocity":91,"programNumber":1},{"time":111774.2010000001,"duration":733.8710166666569,"noteNumber":60,"velocity":104,"programNumber":1},{"time":112500.0075000001,"duration":104.83871666666528,"noteNumber":58,"velocity":98,"programNumber":1},{"time":112258.0720000001,"duration":564.5161666666536,"noteNumber":41,"velocity":114,"programNumber":1},{"time":112983.8785000001,"duration":104.83871666666528,"noteNumber":41,"velocity":104,"programNumber":1},{"time":112741.94300000009,"duration":588.7097166666645,"noteNumber":58,"velocity":108,"programNumber":1},{"time":112741.94300000009,"duration":709.6774666666606,"noteNumber":65,"velocity":108,"programNumber":1},{"time":112741.94300000009,"duration":766.1290833333187,"noteNumber":60,"velocity":115,"programNumber":1},{"time":113467.74950000008,"duration":96.77419999999984,"noteNumber":58,"velocity":102,"programNumber":1},{"time":113225.81400000009,"duration":548.3871333333373,"noteNumber":41,"velocity":108,"programNumber":1},{"time":113951.62050000009,"duration":185.48388333333423,"noteNumber":41,"velocity":109,"programNumber":1},{"time":113709.68500000008,"duration":427.4193833333411,"noteNumber":65,"velocity":109,"programNumber":1},{"time":113709.68500000008,"duration":451.6129333333374,"noteNumber":60,"velocity":115,"programNumber":1},{"time":113709.68500000008,"duration":459.67745000000286,"noteNumber":58,"velocity":111,"programNumber":1},{"time":114193.55600000008,"duration":306.4516333333304,"noteNumber":70,"velocity":111,"programNumber":1},{"time":114193.55600000008,"duration":338.70969999999215,"noteNumber":66,"velocity":105,"programNumber":1},{"time":114193.55600000008,"duration":379.03228333331936,"noteNumber":73,"velocity":110,"programNumber":1},{"time":114677.42700000007,"duration":524.1935833333409,"noteNumber":73,"velocity":106,"programNumber":1},{"time":114193.55600000008,"duration":1056.4516833333328,"noteNumber":54,"velocity":99,"programNumber":1},{"time":114919.36250000008,"duration":508.06455000001006,"noteNumber":82,"velocity":116,"programNumber":1},{"time":115161.29800000008,"duration":266.1290500000032,"noteNumber":78,"velocity":106,"programNumber":1},{"time":115403.23350000009,"duration":379.03228333331936,"noteNumber":73,"velocity":98,"programNumber":1},{"time":115403.23350000009,"duration":387.0967999999848,"noteNumber":54,"velocity":89,"programNumber":1},{"time":115645.16900000008,"duration":282.2580833333195,"noteNumber":82,"velocity":110,"programNumber":1},{"time":115887.10450000007,"duration":177.41936666665424,"noteNumber":54,"velocity":87,"programNumber":1},{"time":115887.10450000007,"duration":185.48388333331968,"noteNumber":73,"velocity":95,"programNumber":1},{"time":116129.04000000007,"duration":169.35485000000335,"noteNumber":75,"velocity":96,"programNumber":1},{"time":116129.04000000007,"duration":548.3871333333518,"noteNumber":56,"velocity":89,"programNumber":1},{"time":116129.04000000007,"duration":693.5484333333588,"noteNumber":80,"velocity":113,"programNumber":1},{"time":116854.84650000009,"duration":225.80646666666144,"noteNumber":80,"velocity":98,"programNumber":1},{"time":116370.97550000007,"duration":709.6774666666752,"noteNumber":72,"velocity":95,"programNumber":1},{"time":116612.91100000008,"duration":467.7419666666683,"noteNumber":75,"velocity":99,"programNumber":1},{"time":117338.71750000009,"duration":161.2903333333379,"noteNumber":72,"velocity":88,"programNumber":1},{"time":117096.78200000008,"duration":612.9032666666753,"noteNumber":56,"velocity":102,"programNumber":1},{"time":117580.6530000001,"duration":387.09679999999935,"noteNumber":75,"velocity":103,"programNumber":1},{"time":117580.6530000001,"duration":387.09679999999935,"noteNumber":68,"velocity":105,"programNumber":1},{"time":117580.6530000001,"duration":387.09679999999935,"noteNumber":72,"velocity":106,"programNumber":1},{"time":117822.58850000009,"duration":201.61291666667967,"noteNumber":56,"velocity":98,"programNumber":1},{"time":118064.52400000009,"duration":338.7097000000067,"noteNumber":68,"velocity":100,"programNumber":1},{"time":118064.52400000009,"duration":588.709716666679,"noteNumber":61,"velocity":100,"programNumber":1},{"time":118064.52400000009,"duration":854.8387666666677,"noteNumber":73,"velocity":108,"programNumber":1},{"time":118064.52400000009,"duration":854.8387666666677,"noteNumber":77,"velocity":109,"programNumber":1},{"time":118548.3950000001,"duration":459.6774499999883,"noteNumber":68,"velocity":90,"programNumber":1},{"time":118790.3305000001,"duration":225.80646666666144,"noteNumber":61,"velocity":95,"programNumber":1},{"time":119032.26600000009,"duration":370.96776666666847,"noteNumber":70,"velocity":102,"programNumber":1},{"time":119032.26600000009,"duration":491.9355166666646,"noteNumber":73,"velocity":111,"programNumber":1},{"time":119032.26600000009,"duration":774.1935999999987,"noteNumber":54,"velocity":99,"programNumber":1},{"time":119516.13700000009,"duration":604.8387499999953,"noteNumber":70,"velocity":73,"programNumber":1},{"time":119032.26600000009,"duration":1250.000083333318,"noteNumber":78,"velocity":105,"programNumber":1},{"time":119758.07250000008,"duration":540.3226166666573,"noteNumber":73,"velocity":110,"programNumber":1},{"time":120241.94350000008,"duration":137.09678333332704,"noteNumber":70,"velocity":84,"programNumber":1},{"time":120000.00800000009,"duration":540.3226166666573,"noteNumber":54,"velocity":109,"programNumber":1},{"time":120725.81450000008,"duration":80.64516666666896,"noteNumber":54,"velocity":99,"programNumber":1},{"time":120483.87900000007,"duration":580.6452000000136,"noteNumber":70,"velocity":105,"programNumber":1},{"time":120483.87900000007,"duration":790.3226333333587,"noteNumber":78,"velocity":108,"programNumber":1},{"time":120483.87900000007,"duration":822.5807000000204,"noteNumber":73,"velocity":110,"programNumber":1},{"time":121209.6855000001,"duration":129.0322666666616,"noteNumber":70,"velocity":84,"programNumber":1},{"time":120967.75000000009,"duration":572.5806833333336,"noteNumber":54,"velocity":115,"programNumber":1},{"time":121451.62100000009,"duration":306.45163333334494,"noteNumber":73,"velocity":118,"programNumber":1},{"time":121451.62100000009,"duration":306.45163333334494,"noteNumber":70,"velocity":105,"programNumber":1},{"time":121693.5565000001,"duration":177.4193666666688,"noteNumber":54,"velocity":100,"programNumber":1},{"time":121451.62100000009,"duration":491.9355166666792,"noteNumber":78,"velocity":108,"programNumber":1},{"time":121935.4920000001,"duration":362.903250000003,"noteNumber":72,"velocity":93,"programNumber":1},{"time":121935.4920000001,"duration":370.96776666666847,"noteNumber":75,"velocity":95,"programNumber":1},{"time":121935.4920000001,"duration":540.3226166666718,"noteNumber":56,"velocity":94,"programNumber":1},{"time":122419.3630000001,"duration":258.06453333333775,"noteNumber":75,"velocity":99,"programNumber":1},{"time":122419.3630000001,"duration":282.25808333333407,"noteNumber":72,"velocity":93,"programNumber":1},{"time":122661.2985000001,"duration":201.61291666666511,"noteNumber":56,"velocity":100,"programNumber":1},{"time":121935.4920000001,"duration":1346.7742833333323,"noteNumber":68,"velocity":86,"programNumber":1},{"time":122903.2340000001,"duration":604.8387499999953,"noteNumber":61,"velocity":106,"programNumber":1},{"time":123387.1050000001,"duration":322.5806666666613,"noteNumber":68,"velocity":96,"programNumber":1},{"time":122903.2340000001,"duration":814.5161833333259,"noteNumber":77,"velocity":117,"programNumber":1},{"time":122903.2340000001,"duration":814.5161833333259,"noteNumber":73,"velocity":109,"programNumber":1},{"time":123629.04050000009,"duration":201.61291666666511,"noteNumber":61,"velocity":100,"programNumber":1},{"time":123870.97600000008,"duration":330.6451833333267,"noteNumber":70,"velocity":100,"programNumber":1},{"time":123870.97600000008,"duration":459.6774499999883,"noteNumber":73,"velocity":115,"programNumber":1},{"time":123870.97600000008,"duration":620.9677833333117,"noteNumber":54,"velocity":102,"programNumber":1},{"time":124596.78250000006,"duration":96.77419999999984,"noteNumber":54,"velocity":96,"programNumber":1},{"time":124354.84700000007,"duration":629.0323000000062,"noteNumber":70,"velocity":74,"programNumber":1},{"time":124596.78250000006,"duration":532.2581000000209,"noteNumber":73,"velocity":103,"programNumber":1},{"time":124838.71800000007,"duration":532.2581000000209,"noteNumber":54,"velocity":110,"programNumber":1},{"time":125322.58900000008,"duration":322.5806666666758,"noteNumber":73,"velocity":98,"programNumber":1},{"time":125080.65350000007,"duration":572.5806833333481,"noteNumber":70,"velocity":78,"programNumber":1},{"time":123870.97600000008,"duration":1782.2581833333388,"noteNumber":78,"velocity":108,"programNumber":1},{"time":125564.52450000009,"duration":96.77419999999984,"noteNumber":54,"velocity":98,"programNumber":1},{"time":125806.4600000001,"duration":306.4516333333304,"noteNumber":70,"velocity":116,"programNumber":1},{"time":125806.4600000001,"duration":338.70969999999215,"noteNumber":66,"velocity":105,"programNumber":1},{"time":125806.4600000001,"duration":379.03228333331936,"noteNumber":73,"velocity":110,"programNumber":1},{"time":126290.33100000008,"duration":524.1935833333409,"noteNumber":73,"velocity":106,"programNumber":1},{"time":125806.4600000001,"duration":1056.4516833333328,"noteNumber":54,"velocity":99,"programNumber":1},{"time":126532.26650000009,"duration":508.06455000001006,"noteNumber":82,"velocity":116,"programNumber":1},{"time":126774.20200000009,"duration":266.1290500000032,"noteNumber":78,"velocity":106,"programNumber":1},{"time":127016.1375000001,"duration":379.03228333331936,"noteNumber":73,"velocity":98,"programNumber":1},{"time":127016.1375000001,"duration":387.0967999999848,"noteNumber":54,"velocity":89,"programNumber":1},{"time":127258.07300000009,"duration":282.2580833333195,"noteNumber":82,"velocity":113,"programNumber":1},{"time":127500.00850000008,"duration":177.41936666665424,"noteNumber":54,"velocity":87,"programNumber":1},{"time":127500.00850000008,"duration":185.48388333331968,"noteNumber":73,"velocity":95,"programNumber":1},{"time":127741.94400000008,"duration":169.35485000000335,"noteNumber":75,"velocity":96,"programNumber":1},{"time":127741.94400000008,"duration":548.3871333333518,"noteNumber":56,"velocity":89,"programNumber":1},{"time":127741.94400000008,"duration":693.5484333333588,"noteNumber":80,"velocity":110,"programNumber":1},{"time":128467.7505000001,"duration":225.80646666666144,"noteNumber":80,"velocity":98,"programNumber":1},{"time":127983.87950000008,"duration":709.6774666666752,"noteNumber":72,"velocity":95,"programNumber":1},{"time":128225.81500000009,"duration":467.7419666666683,"noteNumber":75,"velocity":99,"programNumber":1},{"time":128951.6215000001,"duration":161.2903333333379,"noteNumber":72,"velocity":88,"programNumber":1},{"time":128709.68600000009,"duration":612.9032666666753,"noteNumber":56,"velocity":102,"programNumber":1},{"time":129193.5570000001,"duration":387.09679999999935,"noteNumber":72,"velocity":106,"programNumber":1},{"time":129193.5570000001,"duration":387.09679999999935,"noteNumber":75,"velocity":103,"programNumber":1},{"time":129193.5570000001,"duration":387.09679999999935,"noteNumber":68,"velocity":105,"programNumber":1},{"time":129435.4925000001,"duration":201.61291666667967,"noteNumber":56,"velocity":98,"programNumber":1},{"time":129677.4280000001,"duration":338.7097000000067,"noteNumber":68,"velocity":100,"programNumber":1},{"time":129677.4280000001,"duration":588.709716666679,"noteNumber":61,"velocity":100,"programNumber":1},{"time":129677.4280000001,"duration":854.8387666666677,"noteNumber":77,"velocity":116,"programNumber":1},{"time":129677.4280000001,"duration":854.8387666666677,"noteNumber":73,"velocity":108,"programNumber":1},{"time":130161.29900000012,"duration":459.6774499999883,"noteNumber":68,"velocity":90,"programNumber":1},{"time":130403.23450000011,"duration":225.80646666666144,"noteNumber":61,"velocity":95,"programNumber":1},{"time":130645.1700000001,"duration":370.96776666666847,"noteNumber":70,"velocity":102,"programNumber":1},{"time":130645.1700000001,"duration":491.9355166666792,"noteNumber":73,"velocity":107,"programNumber":1},{"time":130645.1700000001,"duration":774.1935999999987,"noteNumber":54,"velocity":99,"programNumber":1},{"time":131129.0410000001,"duration":604.8387499999953,"noteNumber":70,"velocity":73,"programNumber":1},{"time":130645.1700000001,"duration":1250.000083333347,"noteNumber":78,"velocity":105,"programNumber":1},{"time":131370.9765000001,"duration":540.3226166666718,"noteNumber":73,"velocity":110,"programNumber":1},{"time":131854.84750000012,"duration":137.0967833333125,"noteNumber":70,"velocity":84,"programNumber":1},{"time":131612.9120000001,"duration":540.3226166666718,"noteNumber":54,"velocity":117,"programNumber":1},{"time":132338.7185000001,"duration":80.6451666666544,"noteNumber":54,"velocity":99,"programNumber":1},{"time":132096.7830000001,"duration":580.645199999999,"noteNumber":70,"velocity":105,"programNumber":1},{"time":132096.7830000001,"duration":790.3226333333296,"noteNumber":78,"velocity":108,"programNumber":1},{"time":132096.7830000001,"duration":822.5806999999913,"noteNumber":73,"velocity":111,"programNumber":1},{"time":132822.58950000012,"duration":129.03226666664705,"noteNumber":70,"velocity":84,"programNumber":1},{"time":132580.6540000001,"duration":572.5806833333336,"noteNumber":54,"velocity":110,"programNumber":1},{"time":133064.5250000001,"duration":306.45163333331584,"noteNumber":73,"velocity":110,"programNumber":1},{"time":133064.5250000001,"duration":306.45163333331584,"noteNumber":70,"velocity":105,"programNumber":1},{"time":133306.4605000001,"duration":177.4193666666688,"noteNumber":54,"velocity":100,"programNumber":1},{"time":133064.5250000001,"duration":491.9355166666501,"noteNumber":78,"velocity":108,"programNumber":1},{"time":133548.3960000001,"duration":362.903250000003,"noteNumber":72,"velocity":93,"programNumber":1},{"time":133548.3960000001,"duration":370.96776666666847,"noteNumber":75,"velocity":95,"programNumber":1},{"time":133548.3960000001,"duration":540.3226166666718,"noteNumber":56,"velocity":94,"programNumber":1},{"time":134032.2670000001,"duration":258.0645333333232,"noteNumber":75,"velocity":99,"programNumber":1},{"time":134032.2670000001,"duration":282.2580833333195,"noteNumber":72,"velocity":93,"programNumber":1},{"time":134274.2025000001,"duration":201.61291666666511,"noteNumber":56,"velocity":100,"programNumber":1},{"time":133548.3960000001,"duration":1346.7742833333323,"noteNumber":68,"velocity":86,"programNumber":1},{"time":134516.1380000001,"duration":604.8387500000244,"noteNumber":61,"velocity":106,"programNumber":1},{"time":135000.0090000001,"duration":322.5806666666758,"noteNumber":68,"velocity":96,"programNumber":1},{"time":134516.1380000001,"duration":814.516183333355,"noteNumber":77,"velocity":118,"programNumber":1},{"time":134516.1380000001,"duration":814.516183333355,"noteNumber":73,"velocity":117,"programNumber":1},{"time":135241.94450000013,"duration":201.61291666666511,"noteNumber":61,"velocity":100,"programNumber":1},{"time":135483.88000000012,"duration":330.64518333334127,"noteNumber":70,"velocity":100,"programNumber":1},{"time":135483.88000000012,"duration":459.6774500000174,"noteNumber":73,"velocity":108,"programNumber":1},{"time":135483.88000000012,"duration":620.9677833333553,"noteNumber":54,"velocity":102,"programNumber":1},{"time":136209.68650000016,"duration":96.77420000001439,"noteNumber":54,"velocity":96,"programNumber":1},{"time":135967.75100000013,"duration":629.0323000000499,"noteNumber":70,"velocity":74,"programNumber":1},{"time":136209.68650000016,"duration":532.2581000000355,"noteNumber":73,"velocity":103,"programNumber":1},{"time":136451.62200000018,"duration":532.2581000000064,"noteNumber":54,"velocity":110,"programNumber":1},{"time":136935.4930000002,"duration":322.5806666666467,"noteNumber":73,"velocity":98,"programNumber":1},{"time":136693.5575000002,"duration":572.5806833333045,"noteNumber":70,"velocity":78,"programNumber":1},{"time":135483.88000000012,"duration":1782.2581833333825,"noteNumber":78,"velocity":108,"programNumber":1},{"time":137177.42850000018,"duration":96.77419999998529,"noteNumber":54,"velocity":98,"programNumber":1},{"time":137419.36400000018,"duration":330.64518333334127,"noteNumber":61,"velocity":109,"programNumber":1},{"time":137419.36400000018,"duration":508.06455000001006,"noteNumber":65,"velocity":118,"programNumber":1},{"time":137419.36400000018,"duration":806.4516666666605,"noteNumber":46,"velocity":113,"programNumber":1},{"time":137903.2350000002,"duration":580.645199999999,"noteNumber":61,"velocity":100,"programNumber":1},{"time":137419.36400000018,"duration":1266.1291166666779,"noteNumber":70,"velocity":114,"programNumber":1},{"time":138145.17050000018,"duration":548.3871333333373,"noteNumber":65,"velocity":111,"programNumber":1},{"time":138629.0415000002,"duration":161.2903333333379,"noteNumber":61,"velocity":100,"programNumber":1},{"time":138387.10600000017,"duration":572.5806833333336,"noteNumber":46,"velocity":118,"programNumber":1},{"time":138870.9770000002,"duration":387.09679999999935,"noteNumber":65,"velocity":115,"programNumber":1},{"time":138870.9770000002,"duration":387.09679999999935,"noteNumber":70,"velocity":114,"programNumber":1},{"time":138870.9770000002,"duration":387.09679999999935,"noteNumber":61,"velocity":112,"programNumber":1},{"time":139112.91250000018,"duration":217.741949999996,"noteNumber":46,"velocity":115,"programNumber":1},{"time":139354.84800000017,"duration":306.45163333334494,"noteNumber":60,"velocity":113,"programNumber":1},{"time":139354.84800000017,"duration":491.9355166666792,"noteNumber":63,"velocity":117,"programNumber":1},{"time":139354.84800000017,"duration":620.9677833333553,"noteNumber":68,"velocity":114,"programNumber":1},{"time":139838.7190000002,"duration":177.4193666666688,"noteNumber":60,"velocity":89,"programNumber":1},{"time":139354.84800000017,"duration":766.1290833333333,"noteNumber":44,"velocity":109,"programNumber":1},{"time":140080.65450000018,"duration":330.64518333331216,"noteNumber":60,"velocity":104,"programNumber":1},{"time":140080.65450000018,"duration":508.06454999998095,"noteNumber":68,"velocity":105,"programNumber":1},{"time":140080.65450000018,"duration":508.06454999998095,"noteNumber":63,"velocity":112,"programNumber":1},{"time":140564.52550000016,"duration":137.0967833333416,"noteNumber":60,"velocity":97,"programNumber":1},{"time":140322.59000000017,"duration":564.5161666666681,"noteNumber":44,"velocity":108,"programNumber":1},{"time":140806.46100000018,"duration":387.09679999999935,"noteNumber":68,"velocity":117,"programNumber":1},{"time":140806.46100000018,"duration":387.09679999999935,"noteNumber":60,"velocity":118,"programNumber":1},{"time":140806.46100000018,"duration":387.09679999999935,"noteNumber":63,"velocity":108,"programNumber":1},{"time":141048.39650000018,"duration":201.61291666666511,"noteNumber":44,"velocity":116,"programNumber":1},{"time":141290.33200000017,"duration":338.7097000000067,"noteNumber":58,"velocity":113,"programNumber":1},{"time":141290.33200000017,"duration":491.9355166666792,"noteNumber":61,"velocity":116,"programNumber":1},{"time":141290.33200000017,"duration":774.1935999999987,"noteNumber":42,"velocity":112,"programNumber":1},{"time":141774.20300000018,"duration":604.8387499999953,"noteNumber":58,"velocity":105,"programNumber":1},{"time":142016.13850000018,"duration":532.2581000000064,"noteNumber":61,"velocity":109,"programNumber":1},{"time":141290.33200000017,"duration":1258.0646000000124,"noteNumber":66,"velocity":111,"programNumber":1},{"time":142500.0095000002,"duration":129.03226666664705,"noteNumber":58,"velocity":103,"programNumber":1},{"time":142258.07400000017,"duration":564.5161666666681,"noteNumber":42,"velocity":109,"programNumber":1},{"time":142741.94500000018,"duration":330.64518333331216,"noteNumber":66,"velocity":117,"programNumber":1},{"time":142741.94500000018,"duration":338.7096999999776,"noteNumber":58,"velocity":116,"programNumber":1},{"time":142741.94500000018,"duration":338.7096999999776,"noteNumber":61,"velocity":108,"programNumber":1},{"time":142983.88050000017,"duration":161.2903333333088,"noteNumber":42,"velocity":112,"programNumber":1},{"time":143225.81600000014,"duration":201.61291666666511,"noteNumber":58,"velocity":107,"programNumber":1},{"time":143225.81600000014,"duration":338.7097000000067,"noteNumber":61,"velocity":110,"programNumber":1},{"time":143225.81600000014,"duration":387.09679999999935,"noteNumber":66,"velocity":115,"programNumber":1},{"time":143467.75150000013,"duration":169.35485000000335,"noteNumber":58,"velocity":90,"programNumber":1},{"time":143225.81600000014,"duration":588.7097166666645,"noteNumber":39,"velocity":108,"programNumber":1},{"time":143709.68700000012,"duration":282.2580833333486,"noteNumber":66,"velocity":111,"programNumber":1},{"time":143709.68700000012,"duration":282.2580833333486,"noteNumber":58,"velocity":108,"programNumber":1},{"time":143709.68700000012,"duration":362.903250000003,"noteNumber":61,"velocity":114,"programNumber":1},{"time":143951.62250000014,"duration":177.4193666666397,"noteNumber":39,"velocity":118,"programNumber":1},{"time":144193.5580000001,"duration":169.35485000000335,"noteNumber":61,"velocity":111,"programNumber":1},{"time":144193.5580000001,"duration":290.32259999998496,"noteNumber":65,"velocity":118,"programNumber":1},{"time":144193.5580000001,"duration":322.5806666666467,"noteNumber":68,"velocity":116,"programNumber":1},{"time":144435.4935000001,"duration":129.03226666664705,"noteNumber":61,"velocity":95,"programNumber":1},{"time":144193.5580000001,"duration":580.645199999999,"noteNumber":37,"velocity":108,"programNumber":1},{"time":144677.4290000001,"duration":362.90325000003213,"noteNumber":61,"velocity":110,"programNumber":1},{"time":144677.4290000001,"duration":370.96776666669757,"noteNumber":65,"velocity":108,"programNumber":1},{"time":144677.4290000001,"duration":379.032283333363,"noteNumber":68,"velocity":108,"programNumber":1},{"time":144919.3645000001,"duration":306.45163333334494,"noteNumber":37,"velocity":111,"programNumber":1},{"time":145161.30000000013,"duration":306.45163333331584,"noteNumber":61,"velocity":107,"programNumber":1},{"time":145161.30000000013,"duration":620.9677833333262,"noteNumber":65,"velocity":116,"programNumber":1},{"time":145161.30000000013,"duration":782.2581166666641,"noteNumber":46,"velocity":110,"programNumber":1},{"time":145645.17100000012,"duration":564.5161666666681,"noteNumber":61,"velocity":116,"programNumber":1},{"time":145887.10650000014,"duration":508.06454999998095,"noteNumber":65,"velocity":107,"programNumber":1},{"time":145161.30000000013,"duration":1233.871049999987,"noteNumber":70,"velocity":114,"programNumber":1},{"time":146370.97750000012,"duration":137.0967833333416,"noteNumber":61,"velocity":102,"programNumber":1},{"time":146129.04200000013,"duration":508.06455000001006,"noteNumber":46,"velocity":109,"programNumber":1},{"time":146612.91300000015,"duration":387.09679999999935,"noteNumber":70,"velocity":108,"programNumber":1},{"time":146612.91300000015,"duration":387.09679999999935,"noteNumber":61,"velocity":118,"programNumber":1},{"time":146612.91300000015,"duration":387.09679999999935,"noteNumber":65,"velocity":116,"programNumber":1},{"time":146854.84850000014,"duration":241.93550000002142,"noteNumber":46,"velocity":110,"programNumber":1},{"time":147096.78400000016,"duration":290.32260000001406,"noteNumber":60,"velocity":118,"programNumber":1},{"time":147096.78400000016,"duration":500.0000333333446,"noteNumber":63,"velocity":108,"programNumber":1},{"time":147096.78400000016,"duration":588.7097166666645,"noteNumber":68,"velocity":111,"programNumber":1},{"time":147580.65500000017,"duration":137.0967833333125,"noteNumber":60,"velocity":91,"programNumber":1},{"time":147096.78400000016,"duration":782.2581166666641,"noteNumber":44,"velocity":111,"programNumber":1},{"time":147822.59050000017,"duration":346.77421666667215,"noteNumber":60,"velocity":111,"programNumber":1},{"time":147822.59050000017,"duration":540.3226166666718,"noteNumber":68,"velocity":109,"programNumber":1},{"time":147822.59050000017,"duration":540.3226166666718,"noteNumber":63,"velocity":110,"programNumber":1},{"time":148306.46150000018,"duration":137.0967833333125,"noteNumber":60,"velocity":101,"programNumber":1},{"time":148064.52600000016,"duration":564.5161666666681,"noteNumber":44,"velocity":110,"programNumber":1},{"time":148548.39700000017,"duration":387.09679999999935,"noteNumber":63,"velocity":113,"programNumber":1},{"time":148548.39700000017,"duration":387.09679999999935,"noteNumber":68,"velocity":108,"programNumber":1},{"time":148548.39700000017,"duration":387.09679999999935,"noteNumber":60,"velocity":117,"programNumber":1},{"time":148790.33250000016,"duration":161.2903333333379,"noteNumber":44,"velocity":111,"programNumber":1},{"time":149032.26800000016,"duration":322.5806666666758,"noteNumber":58,"velocity":114,"programNumber":1},{"time":149032.26800000016,"duration":508.06455000001006,"noteNumber":61,"velocity":108,"programNumber":1},{"time":149032.26800000016,"duration":782.2581166666641,"noteNumber":42,"velocity":111,"programNumber":1},{"time":149516.13900000017,"duration":604.8387499999953,"noteNumber":58,"velocity":96,"programNumber":1},{"time":149758.07450000016,"duration":508.06455000001006,"noteNumber":61,"velocity":117,"programNumber":1},{"time":149032.26800000016,"duration":1250.000083333347,"noteNumber":66,"velocity":113,"programNumber":1},{"time":150241.94550000018,"duration":104.83871666665073,"noteNumber":58,"velocity":106,"programNumber":1},{"time":150000.01000000015,"duration":524.1935833333409,"noteNumber":42,"velocity":109,"programNumber":1},{"time":150483.88100000017,"duration":306.45163333331584,"noteNumber":58,"velocity":117,"programNumber":1},{"time":150483.88100000017,"duration":338.7096999999776,"noteNumber":66,"velocity":116,"programNumber":1},{"time":150483.88100000017,"duration":338.7096999999776,"noteNumber":61,"velocity":107,"programNumber":1},{"time":150725.81650000016,"duration":137.0967833333125,"noteNumber":42,"velocity":111,"programNumber":1},{"time":150967.75200000015,"duration":169.35485000000335,"noteNumber":58,"velocity":115,"programNumber":1},{"time":150967.75200000015,"duration":322.5806666666467,"noteNumber":61,"velocity":108,"programNumber":1},{"time":150967.75200000015,"duration":322.5806666666467,"noteNumber":66,"velocity":116,"programNumber":1},{"time":151209.68750000015,"duration":161.2903333333088,"noteNumber":58,"velocity":96,"programNumber":1},{"time":150967.75200000015,"duration":540.3226166666136,"noteNumber":39,"velocity":113,"programNumber":1},{"time":151451.6230000001,"duration":266.12904999998864,"noteNumber":58,"velocity":107,"programNumber":1},{"time":151451.6230000001,"duration":290.32259999998496,"noteNumber":66,"velocity":110,"programNumber":1},{"time":151451.6230000001,"duration":346.77421666664304,"noteNumber":61,"velocity":118,"programNumber":1},{"time":151693.5585000001,"duration":177.4193666666397,"noteNumber":39,"velocity":112,"programNumber":1},{"time":151935.49400000006,"duration":169.35485000000335,"noteNumber":61,"velocity":114,"programNumber":1},{"time":151935.49400000006,"duration":290.32259999998496,"noteNumber":65,"velocity":111,"programNumber":1},{"time":151935.49400000006,"duration":306.45163333331584,"noteNumber":68,"velocity":107,"programNumber":1},{"time":152177.42950000006,"duration":129.03226666664705,"noteNumber":61,"velocity":94,"programNumber":1},{"time":151935.49400000006,"duration":500.0000333333155,"noteNumber":37,"velocity":111,"programNumber":1},{"time":152419.36500000005,"duration":370.96776666666847,"noteNumber":61,"velocity":110,"programNumber":1},{"time":152419.36500000005,"duration":387.09679999999935,"noteNumber":65,"velocity":118,"programNumber":1},{"time":152419.36500000005,"duration":387.09679999999935,"noteNumber":68,"velocity":115,"programNumber":1},{"time":152661.30050000004,"duration":241.93550000002142,"noteNumber":37,"velocity":114,"programNumber":1},{"time":152903.23600000006,"duration":370.96776666666847,"noteNumber":61,"velocity":118,"programNumber":1},{"time":152903.23600000006,"duration":524.1935833333409,"noteNumber":65,"velocity":110,"programNumber":1},{"time":152903.23600000006,"duration":854.8387666666822,"noteNumber":46,"velocity":108,"programNumber":1},{"time":153387.10700000008,"duration":580.6452000000281,"noteNumber":61,"velocity":98,"programNumber":1},{"time":153629.04250000007,"duration":500.0000333333737,"noteNumber":65,"velocity":113,"programNumber":1},{"time":152903.23600000006,"duration":1290.3226666667033,"noteNumber":70,"velocity":115,"programNumber":1},{"time":154112.9135000001,"duration":104.83871666665073,"noteNumber":61,"velocity":103,"programNumber":1},{"time":153870.9780000001,"duration":524.1935833333409,"noteNumber":46,"velocity":117,"programNumber":1},{"time":154354.8490000001,"duration":387.09679999999935,"noteNumber":70,"velocity":116,"programNumber":1},{"time":154354.8490000001,"duration":387.09679999999935,"noteNumber":65,"velocity":112,"programNumber":1},{"time":154354.8490000001,"duration":387.09679999999935,"noteNumber":61,"velocity":115,"programNumber":1},{"time":154596.7845000001,"duration":161.2903333333379,"noteNumber":46,"velocity":113,"programNumber":1},{"time":154838.7200000001,"duration":346.77421666667215,"noteNumber":60,"velocity":113,"programNumber":1},{"time":154838.7200000001,"duration":564.5161666666681,"noteNumber":63,"velocity":113,"programNumber":1},{"time":154838.7200000001,"duration":580.645199999999,"noteNumber":68,"velocity":110,"programNumber":1},{"time":155322.5910000001,"duration":145.16129999997793,"noteNumber":60,"velocity":83,"programNumber":1},{"time":154838.7200000001,"duration":814.5161833333259,"noteNumber":46,"velocity":116,"programNumber":1},{"time":155564.5265000001,"duration":322.5806666666467,"noteNumber":60,"velocity":107,"programNumber":1},{"time":155564.5265000001,"duration":500.0000333333155,"noteNumber":63,"velocity":117,"programNumber":1},{"time":155564.5265000001,"duration":508.06454999998095,"noteNumber":68,"velocity":118,"programNumber":1},{"time":156048.39750000008,"duration":96.77419999998529,"noteNumber":60,"velocity":95,"programNumber":1},{"time":155806.4620000001,"duration":548.3871333333082,"noteNumber":46,"velocity":107,"programNumber":1},{"time":156290.33300000007,"duration":411.29034999999567,"noteNumber":60,"velocity":113,"programNumber":1},{"time":156290.33300000007,"duration":411.29034999999567,"noteNumber":63,"velocity":109,"programNumber":1},{"time":156290.33300000007,"duration":411.29034999999567,"noteNumber":68,"velocity":117,"programNumber":1},{"time":156532.26850000006,"duration":217.741949999996,"noteNumber":46,"velocity":107,"programNumber":1},{"time":156774.20400000006,"duration":298.3871166666504,"noteNumber":82,"velocity":108,"programNumber":1},{"time":157016.13950000005,"duration":258.0645333333232,"noteNumber":80,"velocity":96,"programNumber":1},{"time":157258.07500000004,"duration":290.32259999998496,"noteNumber":73,"velocity":86,"programNumber":1},{"time":157500.01050000003,"duration":298.3871166666504,"noteNumber":82,"velocity":110,"programNumber":1},{"time":157741.94600000003,"duration":266.12904999998864,"noteNumber":80,"velocity":99,"programNumber":1},{"time":157983.88150000002,"duration":250.00001666665776,"noteNumber":73,"velocity":99,"programNumber":1},{"time":158225.817,"duration":298.3871166666504,"noteNumber":82,"velocity":113,"programNumber":1},{"time":158467.7525,"duration":225.80646666666144,"noteNumber":80,"velocity":86,"programNumber":1},{"time":158709.688,"duration":459.6774499999883,"noteNumber":85,"velocity":113,"programNumber":1},{"time":158951.6235,"duration":241.93549999999232,"noteNumber":77,"velocity":88,"programNumber":1},{"time":159193.55899999998,"duration":282.2580833333195,"noteNumber":75,"velocity":78,"programNumber":1},{"time":159435.49449999997,"duration":104.83871666665073,"noteNumber":85,"velocity":112,"programNumber":1},{"time":159677.42999999996,"duration":459.6774499999883,"noteNumber":85,"velocity":110,"programNumber":1},{"time":159919.36549999996,"duration":241.93549999999232,"noteNumber":77,"velocity":97,"programNumber":1},{"time":160161.30099999995,"duration":290.32259999998496,"noteNumber":75,"velocity":96,"programNumber":1},{"time":160403.23649999994,"duration":96.77419999998529,"noteNumber":85,"velocity":109,"programNumber":1},{"time":160645.17199999993,"duration":459.6774499999883,"noteNumber":85,"velocity":113,"programNumber":1},{"time":160887.10749999993,"duration":250.00001666665776,"noteNumber":77,"velocity":101,"programNumber":1},{"time":161129.04299999992,"duration":258.0645333333232,"noteNumber":75,"velocity":99,"programNumber":1},{"time":161370.9784999999,"duration":104.83871666665073,"noteNumber":85,"velocity":111,"programNumber":1},{"time":161612.9139999999,"duration":459.6774499999883,"noteNumber":85,"velocity":118,"programNumber":1},{"time":161854.8494999999,"duration":225.80646666666144,"noteNumber":77,"velocity":106,"programNumber":1},{"time":162096.7849999999,"duration":282.2580833333195,"noteNumber":75,"velocity":105,"programNumber":1},{"time":162338.72049999988,"duration":185.48388333333423,"noteNumber":85,"velocity":106,"programNumber":1},{"time":162580.65599999987,"duration":306.45163333334494,"noteNumber":70,"velocity":118,"programNumber":1},{"time":162580.65599999987,"duration":338.7097000000067,"noteNumber":66,"velocity":105,"programNumber":1},{"time":162580.65599999987,"duration":379.0322833333339,"noteNumber":73,"velocity":110,"programNumber":1},{"time":163064.52699999989,"duration":524.1935833333118,"noteNumber":73,"velocity":106,"programNumber":1},{"time":162580.65599999987,"duration":1056.4516833333182,"noteNumber":54,"velocity":99,"programNumber":1},{"time":163306.46249999988,"duration":508.06454999998095,"noteNumber":82,"velocity":109,"programNumber":1},{"time":163548.39799999987,"duration":266.12904999998864,"noteNumber":78,"velocity":106,"programNumber":1},{"time":163790.33349999986,"duration":379.0322833333339,"noteNumber":73,"velocity":98,"programNumber":1},{"time":163790.33349999986,"duration":387.09679999999935,"noteNumber":54,"velocity":89,"programNumber":1},{"time":164032.26899999985,"duration":282.2580833333486,"noteNumber":82,"velocity":118,"programNumber":1},{"time":164274.20449999988,"duration":177.4193666666688,"noteNumber":54,"velocity":87,"programNumber":1},{"time":164274.20449999988,"duration":185.48388333333423,"noteNumber":73,"velocity":95,"programNumber":1},{"time":164516.13999999987,"duration":169.35485000000335,"noteNumber":75,"velocity":96,"programNumber":1},{"time":164516.13999999987,"duration":548.3871333333082,"noteNumber":56,"velocity":89,"programNumber":1},{"time":164516.13999999987,"duration":693.5484333333152,"noteNumber":80,"velocity":118,"programNumber":1},{"time":165241.94649999985,"duration":225.80646666666144,"noteNumber":80,"velocity":98,"programNumber":1},{"time":164758.07549999986,"duration":709.6774666666461,"noteNumber":72,"velocity":95,"programNumber":1},{"time":165000.01099999985,"duration":467.74196666665375,"noteNumber":75,"velocity":99,"programNumber":1},{"time":165725.81749999983,"duration":161.2903333333379,"noteNumber":72,"velocity":88,"programNumber":1},{"time":165483.88199999984,"duration":612.9032666666608,"noteNumber":56,"velocity":102,"programNumber":1},{"time":165967.75299999982,"duration":387.09680000002845,"noteNumber":75,"velocity":103,"programNumber":1},{"time":165967.75299999982,"duration":387.09680000002845,"noteNumber":68,"velocity":105,"programNumber":1},{"time":165967.75299999982,"duration":387.09680000002845,"noteNumber":72,"velocity":106,"programNumber":1},{"time":166209.68849999984,"duration":201.61291666666511,"noteNumber":56,"velocity":98,"programNumber":1},{"time":166451.62399999984,"duration":338.7097000000067,"noteNumber":68,"velocity":100,"programNumber":1},{"time":166451.62399999984,"duration":588.7097166666936,"noteNumber":61,"velocity":100,"programNumber":1},{"time":166451.62399999984,"duration":854.8387666667113,"noteNumber":77,"velocity":115,"programNumber":1},{"time":166451.62399999984,"duration":854.8387666667113,"noteNumber":73,"velocity":108,"programNumber":1},{"time":166935.49499999985,"duration":459.6774500000174,"noteNumber":68,"velocity":90,"programNumber":1},{"time":167177.43049999987,"duration":225.80646666666144,"noteNumber":61,"velocity":95,"programNumber":1},{"time":167419.36599999986,"duration":370.96776666666847,"noteNumber":70,"velocity":102,"programNumber":1},{"time":167419.36599999986,"duration":491.9355166666792,"noteNumber":73,"velocity":110,"programNumber":1},{"time":167419.36599999986,"duration":774.1935999999987,"noteNumber":54,"velocity":99,"programNumber":1},{"time":167903.23699999988,"duration":604.8387499999953,"noteNumber":70,"velocity":73,"programNumber":1},{"time":167419.36599999986,"duration":1250.000083333347,"noteNumber":78,"velocity":105,"programNumber":1},{"time":168145.17249999987,"duration":540.3226166666718,"noteNumber":73,"velocity":110,"programNumber":1},{"time":168629.04349999988,"duration":137.0967833333125,"noteNumber":70,"velocity":84,"programNumber":1},{"time":168387.10799999986,"duration":540.3226166666718,"noteNumber":54,"velocity":117,"programNumber":1},{"time":169112.91449999987,"duration":80.6451666666544,"noteNumber":54,"velocity":99,"programNumber":1},{"time":168870.97899999988,"duration":580.645199999999,"noteNumber":70,"velocity":105,"programNumber":1},{"time":168870.97899999988,"duration":790.3226333333296,"noteNumber":78,"velocity":108,"programNumber":1},{"time":168870.97899999988,"duration":822.5806999999913,"noteNumber":73,"velocity":114,"programNumber":1},{"time":169596.78549999988,"duration":129.03226666664705,"noteNumber":70,"velocity":84,"programNumber":1},{"time":169354.84999999986,"duration":572.5806833333336,"noteNumber":54,"velocity":117,"programNumber":1},{"time":169838.72099999987,"duration":306.45163333331584,"noteNumber":70,"velocity":105,"programNumber":1},{"time":169838.72099999987,"duration":306.45163333331584,"noteNumber":73,"velocity":115,"programNumber":1},{"time":170080.65649999987,"duration":177.4193666666688,"noteNumber":54,"velocity":100,"programNumber":1},{"time":169838.72099999987,"duration":491.9355166666501,"noteNumber":78,"velocity":108,"programNumber":1},{"time":170322.59199999986,"duration":362.903250000003,"noteNumber":72,"velocity":93,"programNumber":1},{"time":170322.59199999986,"duration":370.96776666666847,"noteNumber":75,"velocity":95,"programNumber":1},{"time":170322.59199999986,"duration":540.3226166666718,"noteNumber":56,"velocity":94,"programNumber":1},{"time":170806.46299999987,"duration":258.0645333333232,"noteNumber":75,"velocity":99,"programNumber":1},{"time":170806.46299999987,"duration":282.2580833333195,"noteNumber":72,"velocity":93,"programNumber":1},{"time":171048.39849999986,"duration":201.61291666666511,"noteNumber":56,"velocity":100,"programNumber":1},{"time":170322.59199999986,"duration":1346.7742833333323,"noteNumber":68,"velocity":86,"programNumber":1},{"time":171290.33399999986,"duration":604.8387500000244,"noteNumber":61,"velocity":106,"programNumber":1},{"time":171774.20499999987,"duration":322.5806666666758,"noteNumber":68,"velocity":96,"programNumber":1},{"time":171290.33399999986,"duration":814.516183333355,"noteNumber":77,"velocity":117,"programNumber":1},{"time":171290.33399999986,"duration":814.516183333355,"noteNumber":73,"velocity":110,"programNumber":1},{"time":172016.1404999999,"duration":201.61291666666511,"noteNumber":61,"velocity":100,"programNumber":1},{"time":172258.07599999988,"duration":330.64518333334127,"noteNumber":70,"velocity":100,"programNumber":1},{"time":172258.07599999988,"duration":459.6774500000174,"noteNumber":73,"velocity":114,"programNumber":1},{"time":172258.07599999988,"duration":620.9677833333553,"noteNumber":54,"velocity":102,"programNumber":1},{"time":172983.88249999992,"duration":96.77420000001439,"noteNumber":54,"velocity":96,"programNumber":1},{"time":172741.9469999999,"duration":629.0323000000499,"noteNumber":70,"velocity":74,"programNumber":1},{"time":172983.88249999992,"duration":532.2581000000355,"noteNumber":73,"velocity":103,"programNumber":1},{"time":173225.81799999994,"duration":532.2581000000064,"noteNumber":54,"velocity":110,"programNumber":1},{"time":173709.68899999995,"duration":322.5806666666467,"noteNumber":73,"velocity":98,"programNumber":1},{"time":173467.75349999996,"duration":572.5806833333045,"noteNumber":70,"velocity":78,"programNumber":1},{"time":172258.07599999988,"duration":1782.2581833333825,"noteNumber":78,"velocity":108,"programNumber":1},{"time":173951.62449999995,"duration":96.77419999998529,"noteNumber":54,"velocity":98,"programNumber":1},{"time":174193.55999999994,"duration":306.45163333334494,"noteNumber":70,"velocity":108,"programNumber":1},{"time":174193.55999999994,"duration":338.7097000000067,"noteNumber":66,"velocity":105,"programNumber":1},{"time":174193.55999999994,"duration":379.0322833333339,"noteNumber":73,"velocity":110,"programNumber":1},{"time":174677.43099999995,"duration":524.1935833333118,"noteNumber":73,"velocity":106,"programNumber":1},{"time":174193.55999999994,"duration":1056.4516833333182,"noteNumber":54,"velocity":99,"programNumber":1},{"time":174919.36649999995,"duration":508.06454999998095,"noteNumber":82,"velocity":107,"programNumber":1},{"time":175161.30199999994,"duration":266.12904999998864,"noteNumber":78,"velocity":106,"programNumber":1},{"time":175403.23749999993,"duration":379.0322833333339,"noteNumber":73,"velocity":98,"programNumber":1},{"time":175403.23749999993,"duration":387.09679999999935,"noteNumber":54,"velocity":89,"programNumber":1},{"time":175645.17299999992,"duration":282.2580833333486,"noteNumber":82,"velocity":118,"programNumber":1},{"time":175887.10849999994,"duration":177.4193666666688,"noteNumber":54,"velocity":87,"programNumber":1},{"time":175887.10849999994,"duration":185.48388333333423,"noteNumber":73,"velocity":95,"programNumber":1},{"time":176129.04399999994,"duration":169.35485000000335,"noteNumber":75,"velocity":96,"programNumber":1},{"time":176129.04399999994,"duration":548.3871333333082,"noteNumber":56,"velocity":89,"programNumber":1},{"time":176129.04399999994,"duration":693.5484333333152,"noteNumber":80,"velocity":109,"programNumber":1},{"time":176854.8504999999,"duration":225.80646666666144,"noteNumber":80,"velocity":98,"programNumber":1},{"time":176370.97949999993,"duration":709.6774666666461,"noteNumber":72,"velocity":95,"programNumber":1},{"time":176612.91499999992,"duration":467.74196666665375,"noteNumber":75,"velocity":99,"programNumber":1},{"time":177338.7214999999,"duration":161.2903333333379,"noteNumber":72,"velocity":88,"programNumber":1},{"time":177096.7859999999,"duration":612.9032666666608,"noteNumber":56,"velocity":102,"programNumber":1},{"time":177580.6569999999,"duration":387.09680000002845,"noteNumber":75,"velocity":103,"programNumber":1},{"time":177580.6569999999,"duration":387.09680000002845,"noteNumber":68,"velocity":105,"programNumber":1},{"time":177580.6569999999,"duration":387.09680000002845,"noteNumber":72,"velocity":106,"programNumber":1},{"time":177822.5924999999,"duration":201.61291666666511,"noteNumber":56,"velocity":98,"programNumber":1},{"time":178064.5279999999,"duration":338.7097000000067,"noteNumber":68,"velocity":100,"programNumber":1},{"time":178064.5279999999,"duration":588.7097166666936,"noteNumber":61,"velocity":100,"programNumber":1},{"time":178064.5279999999,"duration":854.8387666667113,"noteNumber":73,"velocity":108,"programNumber":1},{"time":178064.5279999999,"duration":854.8387666667113,"noteNumber":77,"velocity":115,"programNumber":1},{"time":178548.39899999992,"duration":459.6774500000174,"noteNumber":68,"velocity":90,"programNumber":1},{"time":178790.33449999994,"duration":225.80646666666144,"noteNumber":61,"velocity":95,"programNumber":1},{"time":179032.26999999993,"duration":370.96776666666847,"noteNumber":70,"velocity":102,"programNumber":1},{"time":179032.26999999993,"duration":491.9355166666792,"noteNumber":73,"velocity":109,"programNumber":1},{"time":179032.26999999993,"duration":774.1935999999987,"noteNumber":54,"velocity":99,"programNumber":1},{"time":179516.14099999995,"duration":604.8387499999953,"noteNumber":70,"velocity":73,"programNumber":1},{"time":179032.26999999993,"duration":1250.000083333347,"noteNumber":78,"velocity":105,"programNumber":1},{"time":179758.07649999994,"duration":540.3226166666718,"noteNumber":73,"velocity":110,"programNumber":1},{"time":180241.94749999995,"duration":137.0967833333125,"noteNumber":70,"velocity":84,"programNumber":1},{"time":180000.01199999993,"duration":540.3226166666718,"noteNumber":54,"velocity":115,"programNumber":1},{"time":180725.81849999994,"duration":80.6451666666544,"noteNumber":54,"velocity":99,"programNumber":1},{"time":180483.88299999994,"duration":580.645199999999,"noteNumber":70,"velocity":105,"programNumber":1},{"time":180483.88299999994,"duration":790.3226333333296,"noteNumber":78,"velocity":108,"programNumber":1},{"time":180483.88299999994,"duration":822.5806999999913,"noteNumber":73,"velocity":116,"programNumber":1},{"time":181209.68949999995,"duration":129.03226666664705,"noteNumber":70,"velocity":84,"programNumber":1},{"time":180967.75399999993,"duration":572.5806833333336,"noteNumber":54,"velocity":118,"programNumber":1},{"time":181451.62499999994,"duration":306.45163333331584,"noteNumber":70,"velocity":105,"programNumber":1},{"time":181451.62499999994,"duration":306.45163333331584,"noteNumber":73,"velocity":114,"programNumber":1},{"time":181693.56049999993,"duration":177.4193666666688,"noteNumber":54,"velocity":100,"programNumber":1},{"time":181451.62499999994,"duration":491.9355166666501,"noteNumber":78,"velocity":108,"programNumber":1},{"time":181935.49599999993,"duration":362.903250000003,"noteNumber":72,"velocity":93,"programNumber":1},{"time":181935.49599999993,"duration":370.96776666666847,"noteNumber":75,"velocity":95,"programNumber":1},{"time":181935.49599999993,"duration":540.3226166666718,"noteNumber":56,"velocity":94,"programNumber":1},{"time":182419.36699999994,"duration":258.0645333333232,"noteNumber":75,"velocity":99,"programNumber":1},{"time":182419.36699999994,"duration":282.2580833333195,"noteNumber":72,"velocity":93,"programNumber":1},{"time":182661.30249999993,"duration":201.61291666666511,"noteNumber":56,"velocity":100,"programNumber":1},{"time":181935.49599999993,"duration":1346.7742833333323,"noteNumber":68,"velocity":86,"programNumber":1},{"time":182903.23799999992,"duration":604.8387500000244,"noteNumber":61,"velocity":106,"programNumber":1},{"time":183387.10899999994,"duration":322.5806666666758,"noteNumber":68,"velocity":96,"programNumber":1},{"time":182903.23799999992,"duration":814.516183333355,"noteNumber":73,"velocity":114,"programNumber":1},{"time":182903.23799999992,"duration":814.516183333355,"noteNumber":77,"velocity":115,"programNumber":1},{"time":183629.04449999996,"duration":201.61291666666511,"noteNumber":61,"velocity":100,"programNumber":1},{"time":183870.97999999995,"duration":330.64518333334127,"noteNumber":70,"velocity":100,"programNumber":1},{"time":183870.97999999995,"duration":459.6774500000174,"noteNumber":73,"velocity":118,"programNumber":1},{"time":183870.97999999995,"duration":620.9677833333553,"noteNumber":54,"velocity":102,"programNumber":1},{"time":184596.7865,"duration":96.77420000001439,"noteNumber":54,"velocity":96,"programNumber":1},{"time":184354.85099999997,"duration":629.0323000000499,"noteNumber":70,"velocity":74,"programNumber":1},{"time":184596.7865,"duration":532.2581000000355,"noteNumber":73,"velocity":103,"programNumber":1},{"time":184838.722,"duration":532.2581000000064,"noteNumber":54,"velocity":110,"programNumber":1},{"time":185322.59300000002,"duration":322.5806666666467,"noteNumber":73,"velocity":98,"programNumber":1},{"time":185080.65750000003,"duration":572.5806833333045,"noteNumber":70,"velocity":78,"programNumber":1},{"time":183870.97999999995,"duration":1782.2581833333825,"noteNumber":78,"velocity":108,"programNumber":1},{"time":185564.52850000001,"duration":96.77419999998529,"noteNumber":54,"velocity":98,"programNumber":1},{"time":185806.464,"duration":306.45163333334494,"noteNumber":70,"velocity":117,"programNumber":1},{"time":185806.464,"duration":379.0322833333339,"noteNumber":73,"velocity":110,"programNumber":1},{"time":186290.33500000002,"duration":524.1935833333118,"noteNumber":73,"velocity":106,"programNumber":1},{"time":185806.464,"duration":1056.4516833333182,"noteNumber":54,"velocity":99,"programNumber":1},{"time":186532.2705,"duration":508.06454999998095,"noteNumber":82,"velocity":118,"programNumber":1},{"time":186774.206,"duration":266.12904999998864,"noteNumber":78,"velocity":106,"programNumber":1},{"time":187016.1415,"duration":379.0322833333339,"noteNumber":73,"velocity":98,"programNumber":1},{"time":187016.1415,"duration":387.09679999999935,"noteNumber":54,"velocity":89,"programNumber":1},{"time":187258.077,"duration":282.2580833333486,"noteNumber":82,"velocity":111,"programNumber":1},{"time":187500.0125,"duration":177.4193666666688,"noteNumber":54,"velocity":87,"programNumber":1},{"time":187500.0125,"duration":185.48388333333423,"noteNumber":73,"velocity":95,"programNumber":1},{"time":187741.948,"duration":169.35485000000335,"noteNumber":75,"velocity":96,"programNumber":1},{"time":187741.948,"duration":548.3871333333082,"noteNumber":56,"velocity":89,"programNumber":1},{"time":187741.948,"duration":693.5484333333152,"noteNumber":80,"velocity":115,"programNumber":1},{"time":188467.75449999998,"duration":225.80646666666144,"noteNumber":80,"velocity":98,"programNumber":1},{"time":187983.8835,"duration":709.6774666666461,"noteNumber":72,"velocity":95,"programNumber":1},{"time":188225.819,"duration":467.74196666665375,"noteNumber":75,"velocity":99,"programNumber":1},{"time":188951.62549999997,"duration":161.2903333333379,"noteNumber":72,"velocity":88,"programNumber":1},{"time":188709.68999999997,"duration":612.9032666666608,"noteNumber":56,"velocity":102,"programNumber":1},{"time":189193.56099999996,"duration":387.09680000002845,"noteNumber":72,"velocity":106,"programNumber":1},{"time":189193.56099999996,"duration":387.09680000002845,"noteNumber":75,"velocity":103,"programNumber":1},{"time":189435.49649999998,"duration":201.61291666666511,"noteNumber":56,"velocity":98,"programNumber":1},{"time":189677.43199999997,"duration":338.7097000000067,"noteNumber":68,"velocity":100,"programNumber":1},{"time":189677.43199999997,"duration":588.7097166666936,"noteNumber":61,"velocity":100,"programNumber":1},{"time":189677.43199999997,"duration":854.8387666667113,"noteNumber":77,"velocity":114,"programNumber":1},{"time":190161.30299999999,"duration":459.6774500000174,"noteNumber":68,"velocity":90,"programNumber":1},{"time":190403.2385,"duration":225.80646666666144,"noteNumber":61,"velocity":95,"programNumber":1},{"time":190645.174,"duration":370.96776666666847,"noteNumber":70,"velocity":102,"programNumber":1},{"time":190645.174,"duration":774.1935999999987,"noteNumber":54,"velocity":99,"programNumber":1},{"time":191129.045,"duration":604.8387499999953,"noteNumber":70,"velocity":73,"programNumber":1},{"time":190645.174,"duration":1250.000083333347,"noteNumber":78,"velocity":105,"programNumber":1},{"time":191370.9805,"duration":540.3226166666718,"noteNumber":73,"velocity":110,"programNumber":1},{"time":191854.85150000002,"duration":137.0967833333125,"noteNumber":70,"velocity":84,"programNumber":1},{"time":191612.916,"duration":540.3226166666718,"noteNumber":54,"velocity":109,"programNumber":1},{"time":192338.7225,"duration":80.6451666666544,"noteNumber":54,"velocity":99,"programNumber":1},{"time":192096.787,"duration":790.3226333333005,"noteNumber":78,"velocity":108,"programNumber":1},{"time":192096.787,"duration":822.5806999999622,"noteNumber":73,"velocity":111,"programNumber":1},{"time":192822.5935,"duration":129.03226666664705,"noteNumber":70,"velocity":84,"programNumber":1},{"time":192580.658,"duration":572.5806833333045,"noteNumber":54,"velocity":118,"programNumber":1},{"time":193064.52899999998,"duration":306.45163333331584,"noteNumber":73,"velocity":110,"programNumber":1},{"time":193306.46449999997,"duration":177.4193666666688,"noteNumber":54,"velocity":100,"programNumber":1},{"time":193064.52899999998,"duration":491.9355166666501,"noteNumber":78,"velocity":108,"programNumber":1},{"time":193548.39999999997,"duration":362.903250000003,"noteNumber":72,"velocity":93,"programNumber":1},{"time":193548.39999999997,"duration":370.96776666666847,"noteNumber":75,"velocity":95,"programNumber":1},{"time":193548.39999999997,"duration":540.3226166666718,"noteNumber":56,"velocity":94,"programNumber":1},{"time":194032.27099999998,"duration":258.0645333333232,"noteNumber":75,"velocity":99,"programNumber":1},{"time":194032.27099999998,"duration":282.2580833333195,"noteNumber":72,"velocity":93,"programNumber":1},{"time":194274.20649999997,"duration":201.61291666666511,"noteNumber":56,"velocity":100,"programNumber":1},{"time":194516.14199999996,"duration":604.8387500000244,"noteNumber":61,"velocity":106,"programNumber":1},{"time":195000.01299999998,"duration":322.5806666666758,"noteNumber":68,"velocity":96,"programNumber":1},{"time":194516.14199999996,"duration":814.516183333355,"noteNumber":77,"velocity":110,"programNumber":1},{"time":194516.14199999996,"duration":814.516183333355,"noteNumber":73,"velocity":118,"programNumber":1},{"time":195241.9485,"duration":201.61291666666511,"noteNumber":61,"velocity":100,"programNumber":1},{"time":195483.884,"duration":459.6774499999883,"noteNumber":73,"velocity":116,"programNumber":1},{"time":195483.884,"duration":620.9677833333262,"noteNumber":54,"velocity":102,"programNumber":1},{"time":196209.6905,"duration":96.77420000001439,"noteNumber":54,"velocity":96,"programNumber":1},{"time":195967.75499999998,"duration":629.0323000000499,"noteNumber":70,"velocity":74,"programNumber":1},{"time":196209.6905,"duration":532.2581000000355,"noteNumber":73,"velocity":103,"programNumber":1},{"time":196451.62600000002,"duration":532.2581000000064,"noteNumber":54,"velocity":110,"programNumber":1},{"time":196935.49700000003,"duration":322.5806666666467,"noteNumber":73,"velocity":98,"programNumber":1},{"time":196693.56150000004,"duration":572.5806833333045,"noteNumber":70,"velocity":78,"programNumber":1},{"time":195483.884,"duration":1782.2581833333534,"noteNumber":78,"velocity":108,"programNumber":1},{"time":197177.43250000002,"duration":96.77419999998529,"noteNumber":54,"velocity":98,"programNumber":1},{"time":197419.36800000002,"duration":306.45163333334494,"noteNumber":70,"velocity":118,"programNumber":1},{"time":197419.36800000002,"duration":379.0322833333339,"noteNumber":73,"velocity":110,"programNumber":1},{"time":197903.23900000003,"duration":524.1935833333118,"noteNumber":73,"velocity":106,"programNumber":1},{"time":197419.36800000002,"duration":1056.4516833333182,"noteNumber":54,"velocity":99,"programNumber":1},{"time":198145.17450000002,"duration":508.06454999998095,"noteNumber":82,"velocity":108,"programNumber":1},{"time":198387.11000000002,"duration":266.12904999998864,"noteNumber":78,"velocity":106,"programNumber":1},{"time":198629.0455,"duration":379.0322833333339,"noteNumber":73,"velocity":98,"programNumber":1},{"time":198629.0455,"duration":387.09679999999935,"noteNumber":54,"velocity":89,"programNumber":1},{"time":198870.981,"duration":282.2580833333486,"noteNumber":82,"velocity":109,"programNumber":1},{"time":199112.91650000002,"duration":177.4193666666688,"noteNumber":54,"velocity":87,"programNumber":1},{"time":199112.91650000002,"duration":185.48388333333423,"noteNumber":73,"velocity":95,"programNumber":1},{"time":199354.852,"duration":169.35485000000335,"noteNumber":75,"velocity":96,"programNumber":1},{"time":199354.852,"duration":548.3871333333082,"noteNumber":56,"velocity":89,"programNumber":1},{"time":199354.852,"duration":693.5484333333152,"noteNumber":80,"velocity":112,"programNumber":1},{"time":200080.6585,"duration":225.80646666666144,"noteNumber":80,"velocity":98,"programNumber":1},{"time":199596.7875,"duration":709.6774666666461,"noteNumber":72,"velocity":95,"programNumber":1},{"time":199838.723,"duration":467.74196666665375,"noteNumber":75,"velocity":99,"programNumber":1},{"time":200564.52949999998,"duration":161.2903333333379,"noteNumber":72,"velocity":88,"programNumber":1},{"time":200322.59399999998,"duration":612.9032666666608,"noteNumber":56,"velocity":102,"programNumber":1},{"time":200806.46499999997,"duration":387.09680000002845,"noteNumber":75,"velocity":103,"programNumber":1},{"time":200806.46499999997,"duration":387.09680000002845,"noteNumber":72,"velocity":106,"programNumber":1},{"time":201048.4005,"duration":201.61291666666511,"noteNumber":56,"velocity":98,"programNumber":1},{"time":201290.33599999998,"duration":338.7097000000067,"noteNumber":68,"velocity":100,"programNumber":1},{"time":201290.33599999998,"duration":588.7097166666354,"noteNumber":61,"velocity":100,"programNumber":1},{"time":201290.33599999998,"duration":854.8387666666531,"noteNumber":77,"velocity":115,"programNumber":1},{"time":201774.20699999997,"duration":459.6774499999883,"noteNumber":68,"velocity":90,"programNumber":1},{"time":202016.14249999996,"duration":225.80646666666144,"noteNumber":61,"velocity":95,"programNumber":1},{"time":202258.07799999995,"duration":491.9355166666501,"noteNumber":73,"velocity":116,"programNumber":1},{"time":202258.07799999995,"duration":774.1935999999696,"noteNumber":54,"velocity":99,"programNumber":1},{"time":202741.94899999994,"duration":604.8387499999953,"noteNumber":70,"velocity":73,"programNumber":1},{"time":202258.07799999995,"duration":1250.0000833332888,"noteNumber":78,"velocity":105,"programNumber":1},{"time":202983.88449999993,"duration":540.3226166666427,"noteNumber":73,"velocity":110,"programNumber":1},{"time":203467.7554999999,"duration":137.0967833333125,"noteNumber":70,"velocity":84,"programNumber":1},{"time":203225.81999999992,"duration":540.3226166666427,"noteNumber":54,"velocity":109,"programNumber":1},{"time":203951.6264999999,"duration":80.6451666666544,"noteNumber":54,"velocity":99,"programNumber":1},{"time":203709.6909999999,"duration":790.3226333332714,"noteNumber":78,"velocity":108,"programNumber":1},{"time":203709.6909999999,"duration":822.5806999999331,"noteNumber":73,"velocity":115,"programNumber":1},{"time":204435.49749999985,"duration":129.03226666664705,"noteNumber":70,"velocity":84,"programNumber":1},{"time":204193.56199999986,"duration":572.5806833332754,"noteNumber":54,"velocity":113,"programNumber":1},{"time":204677.43299999982,"duration":306.45163333331584,"noteNumber":73,"velocity":114,"programNumber":1},{"time":204919.3684999998,"duration":177.4193666666688,"noteNumber":54,"velocity":100,"programNumber":1},{"time":204677.43299999982,"duration":491.9355166666501,"noteNumber":78,"velocity":108,"programNumber":1},{"time":205161.3039999998,"duration":362.903250000003,"noteNumber":72,"velocity":93,"programNumber":1},{"time":205161.3039999998,"duration":370.96776666666847,"noteNumber":75,"velocity":95,"programNumber":1},{"time":205161.3039999998,"duration":540.3226166666718,"noteNumber":56,"velocity":94,"programNumber":1},{"time":205645.1749999998,"duration":258.0645333333232,"noteNumber":75,"velocity":99,"programNumber":1},{"time":205645.1749999998,"duration":282.2580833333195,"noteNumber":72,"velocity":93,"programNumber":1},{"time":205887.1104999998,"duration":201.61291666666511,"noteNumber":56,"velocity":100,"programNumber":1},{"time":206129.0459999998,"duration":604.8387499999662,"noteNumber":61,"velocity":106,"programNumber":1},{"time":206612.91699999978,"duration":322.5806666666467,"noteNumber":68,"velocity":96,"programNumber":1},{"time":206129.0459999998,"duration":814.5161833332968,"noteNumber":77,"velocity":107,"programNumber":1},{"time":206129.0459999998,"duration":814.5161833332968,"noteNumber":73,"velocity":109,"programNumber":1},{"time":206854.85249999978,"duration":201.61291666666511,"noteNumber":61,"velocity":100,"programNumber":1},{"time":207096.78799999977,"duration":459.6774500000174,"noteNumber":73,"velocity":107,"programNumber":1},{"time":207096.78799999977,"duration":620.9677833333553,"noteNumber":54,"velocity":102,"programNumber":1},{"time":207822.59449999977,"duration":96.77419999998529,"noteNumber":54,"velocity":96,"programNumber":1},{"time":207580.65899999978,"duration":629.0322999999626,"noteNumber":70,"velocity":74,"programNumber":1},{"time":207822.59449999977,"duration":532.2580999999773,"noteNumber":73,"velocity":103,"programNumber":1},{"time":208064.52999999977,"duration":532.2580999999773,"noteNumber":54,"velocity":110,"programNumber":1},{"time":208548.40099999975,"duration":322.5806666666467,"noteNumber":73,"velocity":98,"programNumber":1},{"time":208306.46549999976,"duration":572.5806833333045,"noteNumber":70,"velocity":78,"programNumber":1},{"time":207096.78799999977,"duration":1782.2581833332952,"noteNumber":78,"velocity":108,"programNumber":1},{"time":208790.33649999974,"duration":96.77419999998529,"noteNumber":54,"velocity":98,"programNumber":1},{"time":209032.2719999997,"duration":306.45163333334494,"noteNumber":70,"velocity":115,"programNumber":1},{"time":209032.2719999997,"duration":379.0322833333339,"noteNumber":73,"velocity":110,"programNumber":1},{"time":209516.14299999972,"duration":524.1935833333118,"noteNumber":73,"velocity":106,"programNumber":1},{"time":209032.2719999997,"duration":1056.4516833333182,"noteNumber":54,"velocity":99,"programNumber":1},{"time":209758.0784999997,"duration":508.06454999995185,"noteNumber":82,"velocity":109,"programNumber":1},{"time":210000.0139999997,"duration":266.12904999995953,"noteNumber":78,"velocity":106,"programNumber":1},{"time":210241.94949999967,"duration":379.0322833333048,"noteNumber":73,"velocity":98,"programNumber":1},{"time":210241.94949999967,"duration":387.09679999997024,"noteNumber":54,"velocity":89,"programNumber":1},{"time":210483.88499999966,"duration":282.2580833333195,"noteNumber":82,"velocity":108,"programNumber":1},{"time":210725.82049999965,"duration":177.4193666666688,"noteNumber":54,"velocity":87,"programNumber":1},{"time":210725.82049999965,"duration":185.48388333333423,"noteNumber":73,"velocity":95,"programNumber":1},{"time":210967.75599999964,"duration":169.35484999997425,"noteNumber":75,"velocity":96,"programNumber":1},{"time":210967.75599999964,"duration":548.387133333279,"noteNumber":56,"velocity":89,"programNumber":1},{"time":210967.75599999964,"duration":693.5484333332861,"noteNumber":80,"velocity":118,"programNumber":1},{"time":211693.5624999996,"duration":225.80646666666144,"noteNumber":80,"velocity":98,"programNumber":1},{"time":211209.6914999996,"duration":709.6774666666461,"noteNumber":72,"velocity":95,"programNumber":1},{"time":211451.6269999996,"duration":467.74196666665375,"noteNumber":75,"velocity":99,"programNumber":1},{"time":212177.43349999958,"duration":161.2903333333379,"noteNumber":72,"velocity":88,"programNumber":1},{"time":211935.49799999958,"duration":612.9032666666317,"noteNumber":56,"velocity":102,"programNumber":1},{"time":212419.36899999957,"duration":387.09679999999935,"noteNumber":75,"velocity":103,"programNumber":1},{"time":212419.36899999957,"duration":387.09679999999935,"noteNumber":72,"velocity":106,"programNumber":1},{"time":212661.30449999956,"duration":201.61291666666511,"noteNumber":56,"velocity":98,"programNumber":1},{"time":212903.23999999955,"duration":588.7097166666645,"noteNumber":61,"velocity":100,"programNumber":1},{"time":212903.23999999955,"duration":854.838766666624,"noteNumber":73,"velocity":108,"programNumber":1},{"time":212903.23999999955,"duration":854.838766666624,"noteNumber":77,"velocity":113,"programNumber":1},{"time":213387.11099999954,"duration":459.6774499999592,"noteNumber":68,"velocity":90,"programNumber":1},{"time":213629.04649999953,"duration":225.80646666663233,"noteNumber":61,"velocity":95,"programNumber":1},{"time":213870.9819999995,"duration":491.9355166666792,"noteNumber":73,"velocity":107,"programNumber":1},{"time":213870.9819999995,"duration":774.1935999999987,"noteNumber":54,"velocity":99,"programNumber":1},{"time":214354.8529999995,"duration":604.8387499999662,"noteNumber":70,"velocity":73,"programNumber":1},{"time":213870.9819999995,"duration":1250.000083333318,"noteNumber":78,"velocity":105,"programNumber":1},{"time":214596.7884999995,"duration":540.3226166666427,"noteNumber":73,"velocity":110,"programNumber":1},{"time":215080.65949999948,"duration":137.0967833333125,"noteNumber":70,"velocity":84,"programNumber":1},{"time":214838.7239999995,"duration":540.3226166666136,"noteNumber":54,"velocity":112,"programNumber":1},{"time":215564.53049999944,"duration":80.6451666666544,"noteNumber":54,"velocity":99,"programNumber":1},{"time":215322.59499999945,"duration":790.3226333333005,"noteNumber":78,"velocity":108,"programNumber":1},{"time":215322.59499999945,"duration":822.5806999999622,"noteNumber":73,"velocity":117,"programNumber":1},{"time":216048.40149999943,"duration":129.03226666664705,"noteNumber":70,"velocity":84,"programNumber":1},{"time":215806.46599999943,"duration":572.5806833333045,"noteNumber":54,"velocity":110,"programNumber":1},{"time":216290.33699999942,"duration":306.45163333331584,"noteNumber":73,"velocity":119,"programNumber":1},{"time":216532.2724999994,"duration":177.4193666666688,"noteNumber":54,"velocity":100,"programNumber":1},{"time":216290.33699999942,"duration":491.9355166666501,"noteNumber":78,"velocity":108,"programNumber":1},{"time":216774.2079999994,"duration":362.903250000003,"noteNumber":72,"velocity":93,"programNumber":1},{"time":216774.2079999994,"duration":370.96776666666847,"noteNumber":75,"velocity":95,"programNumber":1},{"time":216774.2079999994,"duration":540.3226166666427,"noteNumber":56,"velocity":94,"programNumber":1},{"time":217258.0789999994,"duration":258.0645333333232,"noteNumber":75,"velocity":99,"programNumber":1},{"time":217258.0789999994,"duration":282.2580833333195,"noteNumber":72,"velocity":93,"programNumber":1},{"time":217500.01449999938,"duration":201.61291666666511,"noteNumber":56,"velocity":100,"programNumber":1},{"time":217741.94999999937,"duration":604.8387500000244,"noteNumber":61,"velocity":106,"programNumber":1},{"time":218225.82099999939,"duration":322.5806666666467,"noteNumber":68,"velocity":96,"programNumber":1},{"time":217741.94999999937,"duration":814.5161833333259,"noteNumber":77,"velocity":117,"programNumber":1},{"time":217741.94999999937,"duration":814.5161833333259,"noteNumber":73,"velocity":115,"programNumber":1},{"time":218467.75649999938,"duration":201.61291666666511,"noteNumber":61,"velocity":100,"programNumber":1},{"time":218709.69199999937,"duration":459.6774499999883,"noteNumber":73,"velocity":114,"programNumber":1},{"time":218709.69199999937,"duration":620.9677833332971,"noteNumber":54,"velocity":102,"programNumber":1},{"time":219435.49849999935,"duration":96.77420000001439,"noteNumber":54,"velocity":96,"programNumber":1},{"time":219193.56299999935,"duration":629.0322999999626,"noteNumber":70,"velocity":74,"programNumber":1},{"time":219435.49849999935,"duration":532.2580999999773,"noteNumber":73,"velocity":103,"programNumber":1},{"time":219677.43399999934,"duration":532.2580999999773,"noteNumber":54,"velocity":110,"programNumber":1},{"time":220161.30499999932,"duration":322.5806666666467,"noteNumber":73,"velocity":98,"programNumber":1},{"time":219919.36949999933,"duration":572.5806833333045,"noteNumber":70,"velocity":78,"programNumber":1},{"time":218709.69199999937,"duration":1782.258183333266,"noteNumber":78,"velocity":108,"programNumber":1},{"time":220403.24049999932,"duration":96.77419999998529,"noteNumber":54,"velocity":98,"programNumber":1},{"time":220645.1759999993,"duration":306.45163333334494,"noteNumber":70,"velocity":115,"programNumber":1},{"time":220645.1759999993,"duration":379.0322833333339,"noteNumber":73,"velocity":110,"programNumber":1},{"time":221129.0469999993,"duration":524.1935833333118,"noteNumber":73,"velocity":106,"programNumber":1},{"time":220645.1759999993,"duration":1056.451683333289,"noteNumber":54,"velocity":99,"programNumber":1},{"time":221370.98249999929,"duration":508.06454999998095,"noteNumber":82,"velocity":111,"programNumber":1},{"time":221612.91799999928,"duration":266.12904999998864,"noteNumber":78,"velocity":106,"programNumber":1},{"time":221854.85349999927,"duration":379.0322833333339,"noteNumber":73,"velocity":98,"programNumber":1},{"time":221854.85349999927,"duration":387.09679999999935,"noteNumber":54,"velocity":89,"programNumber":1},{"time":222096.78899999926,"duration":282.2580833333195,"noteNumber":82,"velocity":109,"programNumber":1},{"time":222338.72449999925,"duration":177.4193666666688,"noteNumber":54,"velocity":87,"programNumber":1},{"time":222338.72449999925,"duration":185.48388333333423,"noteNumber":73,"velocity":95,"programNumber":1},{"time":222580.65999999925,"duration":169.35485000000335,"noteNumber":75,"velocity":96,"programNumber":1},{"time":222580.65999999925,"duration":548.3871333333082,"noteNumber":56,"velocity":89,"programNumber":1},{"time":222580.65999999925,"duration":693.5484333333152,"noteNumber":80,"velocity":113,"programNumber":1},{"time":223306.46649999922,"duration":225.80646666666144,"noteNumber":80,"velocity":98,"programNumber":1},{"time":222822.59549999924,"duration":709.6774666666461,"noteNumber":72,"velocity":95,"programNumber":1},{"time":223064.53099999923,"duration":467.74196666665375,"noteNumber":75,"velocity":99,"programNumber":1},{"time":223790.3374999992,"duration":161.2903333333379,"noteNumber":72,"velocity":88,"programNumber":1},{"time":223548.40199999922,"duration":612.9032666666608,"noteNumber":56,"velocity":102,"programNumber":1},{"time":224032.2729999992,"duration":387.09680000002845,"noteNumber":75,"velocity":103,"programNumber":1},{"time":224032.2729999992,"duration":387.09680000002845,"noteNumber":72,"velocity":106,"programNumber":1},{"time":224274.20849999922,"duration":201.61291666666511,"noteNumber":56,"velocity":98,"programNumber":1}]]}